<svg width="120" height="1024" viewBox="0 0 120 1024" fill="none" xmlns="http://www.w3.org/2000/svg">
<rect width="120" height="1024" fill="#212931"/>
<rect x="24" y="24" width="72" height="72" rx="36" fill="#3E4B65"/>
<path d="M74.625 72.375H71.25V47.625C71.25 47.0283 71.0129 46.456 70.591 46.034C70.169 45.6121 69.5967 45.375 69 45.375H51C50.4033 45.375 49.831 45.6121 49.409 46.034C48.9871 46.456 48.75 47.0283 48.75 47.625V72.375H45.375C45.0766 72.375 44.7905 72.4935 44.5795 72.7045C44.3685 72.9155 44.25 73.2016 44.25 73.5C44.25 73.7984 44.3685 74.0845 44.5795 74.2955C44.7905 74.5065 45.0766 74.625 45.375 74.625H74.625C74.9234 74.625 75.2095 74.5065 75.4205 74.2955C75.6315 74.0845 75.75 73.7984 75.75 73.5C75.75 73.2016 75.6315 72.9155 75.4205 72.7045C75.2095 72.4935 74.9234 72.375 74.625 72.375ZM65.0625 61.6875C64.7287 61.6875 64.4025 61.5885 64.125 61.4031C63.8475 61.2177 63.6312 60.9541 63.5035 60.6458C63.3757 60.3374 63.3423 59.9981 63.4074 59.6708C63.4725 59.3434 63.6333 59.0428 63.8693 58.8068C64.1053 58.5708 64.4059 58.41 64.7333 58.3449C65.0606 58.2798 65.3999 58.3132 65.7083 58.441C66.0166 58.5687 66.2802 58.785 66.4656 59.0625C66.651 59.34 66.75 59.6662 66.75 60C66.75 60.4476 66.5722 60.8768 66.2557 61.1932C65.9393 61.5097 65.5101 61.6875 65.0625 61.6875Z" fill="white"/>
<rect x="32" y="254" width="56" height="56" rx="28" fill="#3E4B65"/>
<path d="M72 280.437V292C71.9991 292.361 71.9012 292.715 71.7165 293.025C71.5317 293.335 71.267 293.59 70.95 293.762C70.6593 293.923 70.3319 294.005 70 294H64C63.7348 294 63.4805 293.895 63.2929 293.707C63.1054 293.52 63 293.265 63 293V287C63 286.735 62.8947 286.48 62.7071 286.293C62.5196 286.105 62.2652 286 62 286H58C57.7348 286 57.4805 286.105 57.2929 286.293C57.1054 286.48 57 286.735 57 287V293C57 293.265 56.8947 293.52 56.7071 293.707C56.5196 293.895 56.2652 294 56 294H50C49.7163 294.001 49.4356 293.941 49.1769 293.825C48.9182 293.708 48.6874 293.538 48.5 293.325C48.1749 292.941 47.9976 292.453 48 291.95V280.437C48.0001 280.16 48.0579 279.886 48.1699 279.632C48.2818 279.378 48.4453 279.15 48.65 278.962L58.65 269.875C59.0187 269.538 59.5003 269.351 60 269.351C60.4997 269.351 60.9813 269.538 61.35 269.875L71.35 278.962C71.5548 279.15 71.7183 279.378 71.8302 279.632C71.9421 279.886 71.9999 280.16 72 280.437Z" fill="white"/>
<path d="M60.0117 373C57.4406 373 54.9271 373.762 52.7893 375.191C50.6515 376.619 48.9852 378.65 48.0013 381.025C47.0174 383.401 46.7599 386.014 47.2615 388.536C47.7631 391.058 49.0013 393.374 50.8193 395.192C52.6374 397.01 54.9538 398.249 57.4755 398.75C59.9973 399.252 62.6112 398.994 64.9866 398.01C67.362 397.026 69.3924 395.36 70.8208 393.222C72.2493 391.085 73.0117 388.571 73.0117 386C73.0051 382.554 71.6334 379.251 69.1968 376.815C66.7603 374.378 63.4575 373.007 60.0117 373ZM60.0117 397C57.8361 397 55.7094 396.355 53.9005 395.146C52.0915 393.937 50.6816 392.22 49.849 390.21C49.0165 388.2 48.7986 385.988 49.2231 383.854C49.6475 381.72 50.6952 379.76 52.2335 378.222C53.7719 376.683 55.7319 375.636 57.8657 375.211C59.9995 374.787 62.2113 375.005 64.2212 375.837C66.2312 376.67 67.9492 378.08 69.1579 379.889C70.3666 381.698 71.0117 383.824 71.0117 386C71.0084 388.916 69.8484 391.712 67.7862 393.775C65.7241 395.837 62.9281 396.997 60.0117 397ZM65.2367 379.438L57.4742 382.962C57.2492 383.071 57.0714 383.257 56.9742 383.488L53.7867 390.913C53.7083 391.096 53.6866 391.299 53.7245 391.495C53.7623 391.691 53.858 391.871 53.9992 392.013C54.1912 392.196 54.4462 392.299 54.7117 392.3C54.8444 392.299 54.9759 392.274 55.0992 392.225L62.5242 389.038C62.7543 388.94 62.941 388.763 63.0492 388.538L66.5617 380.762C66.6393 380.577 66.66 380.373 66.6212 380.176C66.5824 379.979 66.4858 379.798 66.3437 379.655C66.2017 379.513 66.0205 379.417 65.8234 379.378C65.6263 379.339 65.422 379.36 65.2367 379.438ZM61.3867 387.35L56.6117 389.4L58.6617 384.625L63.6367 382.363L61.3867 387.35Z" fill="#8D95A5"/>
<path d="M75.1 480.3C74.9282 480.432 74.7168 480.502 74.5 480.5C74.3448 480.5 74.1916 480.463 74.0528 480.394C73.9139 480.325 73.7931 480.224 73.7 480.1C73.0973 479.289 72.3127 478.632 71.4096 478.181C70.5064 477.729 69.5098 477.496 68.5 477.5C68.2348 477.5 67.9804 477.394 67.7929 477.207C67.6054 477.019 67.5 476.765 67.5 476.5C67.5 476.234 67.6054 475.98 67.7929 475.793C67.9804 475.605 68.2348 475.5 68.5 475.5C69.0691 475.499 69.6264 475.337 70.1066 475.031C70.5869 474.726 70.9703 474.29 71.2123 473.775C71.4542 473.26 71.5446 472.686 71.4729 472.122C71.4012 471.557 71.1704 471.025 70.8074 470.586C70.4444 470.148 69.9643 469.822 69.4229 469.646C68.8816 469.47 68.3014 469.452 67.7502 469.594C67.199 469.736 66.6994 470.031 66.3098 470.446C65.9202 470.861 65.6567 471.378 65.55 471.937C65.5306 472.071 65.4843 472.199 65.4139 472.314C65.3436 472.43 65.2506 472.53 65.1405 472.608C65.0305 472.686 64.9057 472.742 64.7738 472.77C64.6418 472.799 64.5054 472.801 64.3727 472.776C64.24 472.75 64.1138 472.698 64.0018 472.623C63.8898 472.547 63.7942 472.45 63.7208 472.337C63.6474 472.223 63.5978 472.096 63.5749 471.963C63.552 471.83 63.5563 471.694 63.5875 471.562C63.7359 470.784 64.0668 470.053 64.553 469.428C65.0393 468.803 65.667 468.303 66.3844 467.968C67.1019 467.633 67.8886 467.474 68.6798 467.502C69.4711 467.531 70.2442 467.747 70.9355 468.133C71.6269 468.519 72.2168 469.063 72.6566 469.722C73.0964 470.38 73.3735 471.133 73.4653 471.92C73.557 472.706 73.4607 473.503 73.1842 474.245C72.9077 474.987 72.459 475.653 71.875 476.187C73.2341 476.776 74.415 477.712 75.3 478.9C75.3788 479.005 75.4361 479.124 75.4687 479.251C75.5013 479.379 75.5085 479.511 75.49 479.641C75.4714 479.771 75.4274 479.896 75.3605 480.009C75.2936 480.122 75.2051 480.221 75.1 480.3ZM68.1 488.562C68.2129 488.801 68.2277 489.075 68.1412 489.325C68.0548 489.575 67.874 489.781 67.6375 489.9C67.4995 489.961 67.3509 489.995 67.2 490C67.0126 489.998 66.8293 489.945 66.6704 489.846C66.5115 489.746 66.3833 489.605 66.3 489.437C65.7234 488.258 64.8271 487.264 63.7134 486.568C62.5996 485.873 61.313 485.504 60 485.504C58.687 485.504 57.4004 485.873 56.2866 486.568C55.1729 487.264 54.2766 488.258 53.7 489.437C53.6426 489.555 53.5625 489.661 53.4642 489.748C53.3659 489.836 53.2514 489.903 53.1271 489.946C53.0029 489.989 52.8714 490.007 52.7402 489.999C52.609 489.991 52.4807 489.957 52.3625 489.9C52.126 489.781 51.9452 489.575 51.8588 489.325C51.7723 489.075 51.7871 488.801 51.9 488.562C52.8294 486.649 54.4057 485.125 56.35 484.262C55.3548 483.499 54.6236 482.444 54.2591 481.244C53.8946 480.044 53.9152 478.76 54.3179 477.573C54.7206 476.385 55.4853 475.354 56.5045 474.623C57.5236 473.893 58.7461 473.5 60 473.5C61.2539 473.5 62.4764 473.893 63.4955 474.623C64.5147 475.354 65.2794 476.385 65.6821 477.573C66.0848 478.76 66.1054 480.044 65.7409 481.244C65.3765 482.444 64.6452 483.499 63.65 484.262C65.5943 485.125 67.1707 486.649 68.1 488.562ZM60 483.5C60.7911 483.5 61.5645 483.265 62.2223 482.826C62.8801 482.386 63.3928 481.761 63.6955 481.03C63.9983 480.299 64.0775 479.495 63.9231 478.719C63.7688 477.943 63.3878 477.231 62.8284 476.671C62.269 476.112 61.5563 475.731 60.7804 475.577C60.0044 475.422 59.2002 475.501 58.4693 475.804C57.7384 476.107 57.1137 476.62 56.6741 477.277C56.2346 477.935 56 478.709 56 479.5C56.0033 480.559 56.4258 481.575 57.1752 482.324C57.9247 483.074 58.9402 483.496 60 483.5ZM52.5 476.5C52.5 476.234 52.3946 475.98 52.2071 475.793C52.0196 475.605 51.7652 475.5 51.5 475.5C50.9309 475.499 50.3737 475.337 49.8934 475.031C49.4131 474.726 49.0297 474.29 48.7877 473.775C48.5458 473.26 48.4554 472.686 48.5271 472.122C48.5988 471.557 48.8296 471.025 49.1926 470.586C49.5556 470.148 50.0358 469.822 50.5771 469.646C51.1184 469.47 51.6986 469.452 52.2498 469.594C52.801 469.736 53.3006 470.031 53.6902 470.446C54.0798 470.861 54.3433 471.378 54.45 471.937C54.4694 472.071 54.5157 472.199 54.5861 472.314C54.6564 472.43 54.7495 472.53 54.8595 472.608C54.9695 472.686 55.0943 472.742 55.2262 472.77C55.3582 472.799 55.4946 472.801 55.6273 472.776C55.76 472.75 55.8862 472.698 55.9982 472.623C56.1102 472.547 56.2058 472.45 56.2792 472.337C56.3526 472.223 56.4022 472.096 56.4251 471.963C56.4481 471.83 56.4438 471.694 56.4125 471.562C56.2641 470.784 55.9332 470.053 55.447 469.428C54.9607 468.803 54.333 468.303 53.6156 467.968C52.8981 467.633 52.1114 467.474 51.3202 467.502C50.5289 467.531 49.7558 467.747 49.0645 468.133C48.3731 468.519 47.7832 469.063 47.3434 469.722C46.9036 470.38 46.6265 471.133 46.5347 471.92C46.443 472.706 46.5393 473.503 46.8158 474.245C47.0923 474.987 47.541 475.653 48.125 476.187C46.7659 476.776 45.585 477.712 44.7 478.9C44.5409 479.112 44.4725 479.379 44.5101 479.641C44.5476 479.904 44.6878 480.141 44.9 480.3C45.0718 480.432 45.2832 480.502 45.5 480.5C45.6552 480.5 45.8084 480.463 45.9472 480.394C46.0861 480.325 46.2069 480.224 46.3 480.1C46.9027 479.289 47.6873 478.632 48.5905 478.181C49.4936 477.729 50.4902 477.496 51.5 477.5C51.7652 477.5 52.0196 477.394 52.2071 477.207C52.3946 477.019 52.5 476.765 52.5 476.5Z" fill="#8D95A5"/>
<path d="M60.9995 564V569.425L65.6995 572.138C65.8884 572.248 66.0357 572.418 66.1187 572.621C66.2018 572.823 66.216 573.048 66.1592 573.259C66.1025 573.471 65.9778 573.658 65.8044 573.792C65.631 573.925 65.4185 573.999 65.1995 574C65.0228 574.005 64.8487 573.957 64.6995 573.863L59.4995 570.863H59.4745L59.4245 570.825L59.387 570.8L59.3495 570.775L59.312 570.738L59.287 570.713C59.262 570.7 59.2495 570.675 59.237 570.663L59.212 570.638L59.187 570.588L59.162 570.55L59.137 570.513C59.1292 570.507 59.1229 570.499 59.1186 570.49C59.1142 570.482 59.112 570.472 59.112 570.463L59.087 570.425C59.087 570.413 59.0745 570.4 59.0745 570.375C59.0699 570.37 59.0665 570.364 59.0644 570.358C59.0622 570.351 59.0614 570.344 59.062 570.338L59.037 570.288C59.0375 570.281 59.0367 570.274 59.0346 570.267C59.0324 570.261 59.029 570.255 59.0245 570.25C59.0245 570.225 59.0245 570.213 59.012 570.2V570.15C59.012 570.125 58.9995 570.113 58.9995 570.1V564C58.9995 563.735 59.1048 563.48 59.2924 563.293C59.4799 563.105 59.7342 563 59.9995 563C60.2647 563 60.519 563.105 60.7066 563.293C60.8941 563.48 60.9995 563.735 60.9995 564ZM72.8495 567.025C72.862 567 72.8745 566.988 72.8745 566.975L72.8995 566.938C72.912 566.925 72.912 566.9 72.9245 566.888L72.9495 566.85C72.9476 566.832 72.952 566.815 72.962 566.8C72.962 566.788 72.9745 566.775 72.9745 566.75C72.979 566.745 72.9824 566.739 72.9846 566.733C72.9867 566.726 72.9875 566.719 72.987 566.713C72.987 566.688 72.9995 566.675 72.9995 566.663C72.9995 566.65 73.012 566.625 73.012 566.613V566.563C73.0223 566.53 73.0265 566.496 73.0245 566.463V561.463C73.0245 561.197 72.9191 560.943 72.7316 560.755C72.544 560.568 72.2897 560.463 72.0245 560.463C71.7592 560.463 71.5049 560.568 71.3174 560.755C71.1298 560.943 71.0245 561.197 71.0245 561.463V564.05L68.487 561.513C66.8085 559.835 64.6703 558.693 62.3427 558.23C60.0151 557.768 57.6026 558.006 55.4103 558.914C53.2179 559.822 51.3441 561.361 50.0258 563.334C48.7075 565.307 48.0039 567.627 48.0039 570C48.0039 572.373 48.7075 574.693 50.0258 576.666C51.3441 578.639 53.2179 580.178 55.4103 581.086C57.6026 581.994 60.0151 582.232 62.3427 581.77C64.6703 581.307 66.8085 580.165 68.487 578.488C68.674 578.3 68.779 578.046 68.779 577.781C68.779 577.516 68.674 577.262 68.487 577.075C68.395 576.981 68.2851 576.906 68.1639 576.855C68.0426 576.804 67.9123 576.778 67.7807 576.778C67.6491 576.778 67.5189 576.804 67.3976 576.855C67.2763 576.906 67.1664 576.981 67.0745 577.075C65.6755 578.472 63.8936 579.424 61.9541 579.809C60.0146 580.194 58.0045 579.995 56.1779 579.238C54.3513 578.481 52.7902 577.199 51.6919 575.555C50.5935 573.91 50.0073 571.977 50.0073 570C50.0073 568.023 50.5935 566.09 51.6919 564.445C52.7902 562.801 54.3513 561.519 56.1779 560.762C58.0045 560.005 60.0146 559.806 61.9541 560.191C63.8936 560.576 65.6755 561.528 67.0745 562.925L69.612 565.463H67.0245C66.7592 565.463 66.5049 565.568 66.3174 565.755C66.1298 565.943 66.0245 566.197 66.0245 566.463C66.0245 566.728 66.1298 566.982 66.3174 567.17C66.5049 567.357 66.7592 567.463 67.0245 567.463H72.312L72.362 567.438H72.3995L72.4495 567.413H72.487L72.537 567.388L72.5745 567.363L72.6245 567.325L72.6495 567.3L72.7995 567.163L72.8245 567.125L72.8495 567.025Z" fill="#8D95A5"/>
<path d="M71 652H66V651C65.9967 650.205 65.6796 649.444 65.1177 648.882C64.5558 648.32 63.7946 648.003 63 648H57C56.2054 648.003 55.4442 648.32 54.8823 648.882C54.3204 649.444 54.0033 650.205 54 651V652H49C48.7348 652 48.4804 652.105 48.2929 652.293C48.1054 652.48 48 652.735 48 653C48 653.265 48.1054 653.52 48.2929 653.707C48.4804 653.895 48.7348 654 49 654H50V672C50 672.53 50.2107 673.039 50.5858 673.414C50.9609 673.789 51.4696 674 52 674H68C68.5304 674 69.0391 673.789 69.4142 673.414C69.7893 673.039 70 672.53 70 672V654H71C71.2652 654 71.5196 653.895 71.7071 653.707C71.8946 653.52 72 653.265 72 653C72 652.735 71.8946 652.48 71.7071 652.293C71.5196 652.105 71.2652 652 71 652ZM56 651C56 650.735 56.1054 650.48 56.2929 650.293C56.4804 650.105 56.7348 650 57 650H63C63.2652 650 63.5196 650.105 63.7071 650.293C63.8946 650.48 64 650.735 64 651V652H56V651ZM68 672H52V654H68V672ZM58 659V667C58 667.265 57.8946 667.52 57.7071 667.707C57.5196 667.895 57.2652 668 57 668C56.7348 668 56.4804 667.895 56.2929 667.707C56.1054 667.52 56 667.265 56 667V659C56 658.735 56.1054 658.48 56.2929 658.293C56.4804 658.105 56.7348 658 57 658C57.2652 658 57.5196 658.105 57.7071 658.293C57.8946 658.48 58 658.735 58 659ZM64 659V667C64 667.265 63.8946 667.52 63.7071 667.707C63.5196 667.895 63.2652 668 63 668C62.7348 668 62.4804 667.895 62.2929 667.707C62.1054 667.52 62 667.265 62 667V659C62 658.735 62.1054 658.48 62.2929 658.293C62.4804 658.105 62.7348 658 63 658C63.2652 658 63.5196 658.105 63.7071 658.293C63.8946 658.48 64 658.735 64 659Z" fill="#8D95A5"/>
<path d="M73.6879 751.037C73.6569 750.897 73.5962 750.766 73.5099 750.652C73.4236 750.537 73.3138 750.443 73.1879 750.375L70.2129 748.725C70.0534 748.401 69.8739 748.088 69.6754 747.787L69.7379 744.387C69.7391 744.245 69.7108 744.103 69.6549 743.972C69.599 743.841 69.5166 743.723 69.4129 743.625C67.9316 742.282 66.1798 741.271 64.2754 740.662C64.1387 740.619 63.9944 740.606 63.8522 740.624C63.71 740.641 63.573 740.688 63.4504 740.762L60.5379 742.512C60.1754 742.5 59.8254 742.5 59.4629 742.512L56.5504 740.762C56.4278 740.688 56.2909 740.641 56.1487 740.624C56.0064 740.606 55.8622 740.619 55.7254 740.662C53.8185 741.272 52.066 742.287 50.5879 743.637C50.4833 743.732 50.4002 743.848 50.3442 743.977C50.2881 744.106 50.2604 744.246 50.2629 744.387L50.3254 747.787C50.1254 748.087 49.9504 748.4 49.7754 748.725L46.8004 750.375C46.6763 750.444 46.5685 750.538 46.4844 750.653C46.4003 750.767 46.3418 750.898 46.3129 751.037C45.8879 752.989 45.8879 755.01 46.3129 756.962C46.344 757.102 46.4047 757.233 46.4909 757.348C46.5772 757.462 46.687 757.556 46.8129 757.625L49.7879 759.275C49.9474 759.598 50.1269 759.911 50.3254 760.212L50.2629 763.612C50.2618 763.755 50.29 763.896 50.346 764.027C50.4019 764.158 50.4843 764.277 50.5879 764.375C52.0692 765.718 53.821 766.728 55.7254 767.337C55.8622 767.38 56.0064 767.393 56.1487 767.376C56.2909 767.358 56.4278 767.311 56.5504 767.237L59.4629 765.487H60.5379L63.4629 767.237C63.615 767.337 63.7935 767.389 63.9754 767.387C64.0771 767.383 64.1778 767.366 64.2754 767.337C66.1823 766.727 67.9349 765.713 69.4129 764.362C69.5175 764.268 69.6006 764.152 69.6567 764.022C69.7127 763.893 69.7404 763.753 69.7379 763.612L69.6754 760.212C69.8754 759.912 70.0504 759.6 70.2254 759.275L73.2004 757.625C73.3245 757.556 73.4323 757.461 73.5164 757.347C73.6006 757.232 73.6591 757.101 73.6879 756.962C74.113 755.01 74.113 752.989 73.6879 751.037ZM71.8129 756.1L68.9754 757.675C68.7954 757.779 68.6515 757.936 68.5629 758.125C68.3573 758.551 68.1191 758.96 67.8504 759.35C67.7363 759.524 67.6755 759.728 67.6754 759.937L67.7254 763.175C66.6492 764.091 65.4172 764.806 64.0879 765.287L61.3004 763.612C61.1449 763.522 60.9679 763.474 60.7879 763.475H60.7129C60.2387 763.512 59.7622 763.512 59.2879 763.475C59.083 763.463 58.8791 763.511 58.7004 763.612L55.9129 765.287C54.5853 764.809 53.3535 764.098 52.2754 763.187L52.3254 759.937C52.3253 759.728 52.2645 759.524 52.1504 759.35C51.8864 758.957 51.6483 758.548 51.4379 758.125C51.3456 757.939 51.2026 757.783 51.0254 757.675L48.1879 756.1C47.9378 754.711 47.9378 753.288 48.1879 751.9L51.0254 750.325C51.2054 750.22 51.3493 750.063 51.4379 749.875C51.6436 749.449 51.8818 749.039 52.1504 748.65C52.2645 748.475 52.3253 748.271 52.3254 748.062L52.2754 744.825C53.3516 743.908 54.5837 743.193 55.9129 742.712L58.7004 744.387C58.8786 744.489 59.0829 744.537 59.2879 744.525C59.7622 744.487 60.2387 744.487 60.7129 744.525C60.9179 744.536 61.1217 744.488 61.3004 744.387L64.0879 742.712C65.4156 743.19 66.6473 743.902 67.7254 744.812L67.6754 748.062C67.6755 748.271 67.7363 748.475 67.8504 748.65C68.1145 749.042 68.3525 749.451 68.5629 749.875C68.6552 750.061 68.7982 750.217 68.9754 750.325L71.8129 751.9C72.063 753.288 72.063 754.711 71.8129 756.1ZM60.0004 747C58.616 747 57.2626 747.41 56.1114 748.179C54.9603 748.948 54.0631 750.042 53.5333 751.321C53.0035 752.6 52.8648 754.007 53.1349 755.365C53.405 756.723 54.0717 757.97 55.0507 758.949C56.0296 759.928 57.2769 760.595 58.6348 760.865C59.9927 761.135 61.4001 760.997 62.6792 760.467C63.9583 759.937 65.0515 759.04 65.8207 757.889C66.5899 756.737 67.0004 755.384 67.0004 754C67.0004 752.143 66.2629 750.363 64.9502 749.05C63.6374 747.737 61.8569 747 60.0004 747ZM60.0004 759C59.0115 759 58.0448 758.706 57.2226 758.157C56.4003 757.608 55.7595 756.827 55.381 755.913C55.0026 754.999 54.9036 753.994 55.0965 753.024C55.2894 752.054 55.7656 751.163 56.4649 750.464C57.1642 749.765 58.0551 749.289 59.025 749.096C59.9949 748.903 61.0002 749.002 61.9138 749.38C62.8275 749.759 63.6084 750.4 64.1578 751.222C64.7072 752.044 65.0004 753.011 65.0004 754C65.0004 755.326 64.4736 756.597 63.536 757.535C62.5983 758.473 61.3265 759 60.0004 759Z" fill="#8D95A5"/>
<path d="M71.7125 966.712L66.4625 971.962C66.2705 972.146 66.0155 972.249 65.75 972.25C65.5517 972.25 65.358 972.19 65.1935 972.08C65.0289 971.969 64.901 971.812 64.826 971.628C64.751 971.445 64.7322 971.243 64.7721 971.049C64.812 970.855 64.9087 970.677 65.05 970.538L68.5875 967H57C56.7348 967 56.4804 966.895 56.2929 966.707C56.1054 966.52 56 966.265 56 966C56 965.735 56.1054 965.48 56.2929 965.293C56.4804 965.105 56.7348 965 57 965H68.5875L65.05 961.462C64.861 961.275 64.7542 961.02 64.753 960.754C64.7519 960.488 64.8564 960.233 65.0438 960.044C65.2311 959.855 65.4858 959.748 65.7518 959.747C66.0179 959.746 66.2735 959.85 66.4625 960.038L71.7125 965.288C71.9003 965.477 72.0056 965.733 72.0056 966C72.0056 966.267 71.9003 966.523 71.7125 966.712ZM57 976H50V956H57C57.2652 956 57.5196 955.895 57.7071 955.707C57.8946 955.52 58 955.265 58 955C58 954.735 57.8946 954.48 57.7071 954.293C57.5196 954.105 57.2652 954 57 954H50C49.4696 954 48.9609 954.211 48.5858 954.586C48.2107 954.961 48 955.47 48 956V976C48 976.53 48.2107 977.039 48.5858 977.414C48.9609 977.789 49.4696 978 50 978H57C57.2652 978 57.5196 977.895 57.7071 977.707C57.8946 977.52 58 977.265 58 977C58 976.735 57.8946 976.48 57.7071 976.293C57.5196 976.105 57.2652 976 57 976Z" fill="#8D95A5"/>
</svg>
