<svg width="22" height="22" viewBox="0 0 22 22" fill="none" xmlns="http://www.w3.org/2000/svg">
<path d="M18.1628 6.90698C19.8582 6.90698 21.2326 5.53259 21.2326 3.83721C21.2326 2.14182 19.8582 0.767442 18.1628 0.767442C16.4674 0.767442 15.093 2.14182 15.093 3.83721C15.093 5.53259 16.4674 6.90698 18.1628 6.90698Z" stroke="#AEAEAE" stroke-width="1.5" stroke-linecap="round" stroke-linejoin="round"/>
<path d="M13.0465 0.767442H7.93023C2.81395 0.767442 0.767442 2.81395 0.767442 7.93023V14.0698C0.767442 19.186 2.81395 21.2326 7.93023 21.2326H14.0698C19.186 21.2326 21.2326 19.186 21.2326 14.0698V8.95349" stroke="#AEAEAE" stroke-width="1.5" stroke-linecap="round" stroke-linejoin="round"/>
<path d="M5.68928 13.998C5.33114 12.8724 5.75067 11.4706 6.93765 11.092C7.56184 10.8873 8.32928 11.0613 8.76928 11.665C9.17858 11.0408 9.97672 10.8976 10.5907 11.092C11.7776 11.4706 12.1972 12.8724 11.839 13.998C11.2763 15.7887 9.3116 16.7199 8.76928 16.7199C8.21672 16.7097 6.27253 15.799 5.68928 13.998Z" stroke="#AEAEAE" stroke-width="1.5" stroke-linecap="round" stroke-linejoin="round"/>
</svg>
