<svg width="14" height="14" viewBox="0 0 14 14" fill="none" xmlns="http://www.w3.org/2000/svg">
<path d="M11.3745 -0.000143105C12.0976 -0.000143105 12.7143 0.258093 13.2247 0.774565C13.7412 1.28496 13.9994 1.90169 13.9994 2.62475V11.3744C13.9994 12.0975 13.7412 12.7142 13.2247 13.2246C12.7143 13.7411 12.0976 13.9993 11.3745 13.9993H9.66107V8.57633H11.4748L11.7482 6.46183H9.66107V5.11293C9.66107 4.77267 9.73094 4.51747 9.87069 4.34734C10.0165 4.1772 10.296 4.09214 10.7092 4.09214L11.8211 4.08302V2.19638C11.4383 2.1417 10.8976 2.11435 10.1988 2.11435C9.37245 2.11435 8.71015 2.3574 8.21191 2.84349C7.71974 3.32958 7.47365 4.01619 7.47365 4.9033V6.46183H5.65081V8.57633H7.47365V13.9993H2.62489C1.90183 13.9993 1.28207 13.7411 0.765594 13.2246C0.255198 12.7142 0 12.0975 0 11.3744V2.62475C0 1.90169 0.255198 1.28496 0.765594 0.774565C1.28207 0.258093 1.90183 -0.000143105 2.62489 -0.000143105H11.3745Z" fill="#3F42C7"/>
</svg>
