<svg width="48" height="48" viewBox="0 0 48 48" fill="none" xmlns="http://www.w3.org/2000/svg">
<path d="M31.3419 26.49L30.3419 24.83C30.1319 24.46 29.9419 23.76 29.9419 23.35V20.82C29.9419 18.47 28.5619 16.44 26.5719 15.49C26.0519 14.57 25.0919 14 23.9919 14C22.9019 14 21.9219 14.59 21.4019 15.52C19.4519 16.49 18.1019 18.5 18.1019 20.82V23.35C18.1019 23.76 17.9119 24.46 17.7019 24.82L16.6919 26.49C16.2919 27.16 16.2019 27.9 16.4519 28.58C16.6919 29.25 17.2619 29.77 18.0019 30.02C19.9419 30.68 21.9819 31 24.0219 31C26.0619 31 28.1019 30.68 30.0419 30.03C30.7419 29.8 31.2819 29.27 31.5419 28.58C31.8019 27.89 31.7319 27.13 31.3419 26.49Z" fill="white"/>
<path d="M26.8297 32.01C26.4097 33.17 25.2997 34 23.9997 34C23.2097 34 22.4297 33.68 21.8797 33.11C21.5597 32.81 21.3197 32.41 21.1797 32C21.3097 32.02 21.4397 32.03 21.5797 32.05C21.8097 32.08 22.0497 32.11 22.2897 32.13C22.8597 32.18 23.4397 32.21 24.0197 32.21C24.5897 32.21 25.1597 32.18 25.7197 32.13C25.9297 32.11 26.1397 32.1 26.3397 32.07C26.4997 32.05 26.6597 32.03 26.8297 32.01Z" fill="white"/>
<rect x="0.5" y="0.5" width="47" height="47" rx="11.5" stroke="white" stroke-opacity="0.1"/>
</svg>
