<svg width="25" height="20" viewBox="0 0 25 20" fill="none" xmlns="http://www.w3.org/2000/svg">
<path d="M23.6498 17.7893C24.3338 17.3493 23.9428 16.2693 23.1498 16.3773C21.6198 16.5673 19.8998 16.3173 18.3438 15.5623C19.0667 15.2569 19.7157 14.8 20.247 14.2225C20.7784 13.6449 21.1796 12.9601 21.4238 12.2143C21.4691 12.0766 21.475 11.9289 21.4407 11.7881C21.4064 11.6472 21.3333 11.5188 21.2298 11.4173C21.8134 10.9057 22.2813 10.2756 22.6022 9.56899C22.9231 8.86234 23.0897 8.09541 23.0908 7.31931C23.0908 6.94431 22.8398 6.59531 22.4318 6.52331C23.2878 4.92231 23.2978 2.93931 22.3138 1.22831C22.2533 1.12182 22.1677 1.03169 22.0645 0.965744C21.9613 0.8998 21.8435 0.86003 21.7215 0.849882C21.5994 0.839735 21.4767 0.859517 21.364 0.907513C21.2513 0.955509 21.152 1.03027 21.0748 1.12531C19.0422 3.62357 16.1244 5.24154 12.9288 5.64231C13.0228 3.59131 11.9788 1.71331 10.1018 0.688312C7.95279 -0.487688 5.40379 -0.131688 3.69079 1.56431C2.85079 1.80331 2.03579 1.66231 1.14179 1.13031C1.02592 1.06282 0.894247 1.02723 0.76016 1.02716C0.626074 1.02708 0.49436 1.06253 0.378424 1.1299C0.262487 1.19727 0.166468 1.29415 0.100134 1.41068C0.0338001 1.52721 -0.000478745 1.65923 0.000785828 1.79331C0.000785828 3.33231 1.12079 4.91131 2.07279 5.73731C2.01236 9.41632 3.38345 12.9749 5.89679 15.6623C8.52079 18.4593 12.1408 19.9993 16.0928 19.9993C18.772 20.0052 21.396 19.2379 23.6498 17.7893ZM15.8858 15.8263C17.1427 16.8053 18.6123 17.475 20.1758 17.7813C18.8738 18.2283 17.4958 18.4603 16.0918 18.4603C12.5598 18.4603 9.32879 17.0893 6.99279 14.5993C5.84295 13.3712 4.95041 11.9254 4.3677 10.3471C3.785 8.76888 3.5239 7.09 3.59979 5.40931C3.60629 5.27981 3.58012 5.15076 3.52368 5.03402C3.46723 4.91729 3.38233 4.81663 3.27678 4.74131C2.77678 4.38631 2.24179 3.75531 1.89478 3.09131C2.66978 3.27431 4.19378 3.25631 4.64478 2.77331C6.16479 1.15531 8.14779 1.36531 9.38279 2.04331C10.6308 2.72431 11.7928 4.20531 11.3128 6.31731C11.2018 6.80631 11.5818 7.28931 12.0878 7.25731C15.622 7.07841 18.9573 5.56778 21.4228 3.02931C21.6217 3.8058 21.5732 4.62503 21.2841 5.37262C20.9949 6.1202 20.4795 6.75883 19.8098 7.19931C19.1838 7.61731 19.4738 8.61531 20.2408 8.61131C20.6308 8.60345 21.0186 8.55111 21.3968 8.45531C21.1916 9.12644 20.8097 9.73001 20.291 10.2028C19.7723 10.6755 19.136 11 18.4488 11.1423C17.6688 11.3023 17.6318 12.4283 18.4008 12.6393C18.7394 12.7294 19.0861 12.7857 19.4358 12.8073C19.0805 13.3022 18.6153 13.7079 18.0767 13.9924C17.5381 14.277 16.9408 14.4327 16.3318 14.4473C15.6198 14.4613 15.3188 15.3843 15.8858 15.8263Z" fill="#96979F"/>
</svg>
