<svg width="30" height="30" viewBox="0 0 30 30" fill="none" xmlns="http://www.w3.org/2000/svg">
<g clip-path="url(#clip0_52_38078)">
<path d="M21.0937 8.34375C23.3719 8.34375 25.2187 6.49692 25.2187 4.21875C25.2187 1.94058 23.3719 0.09375 21.0937 0.09375C18.8156 0.09375 16.9688 1.94058 16.9688 4.21875C16.9688 6.49692 18.8156 8.34375 21.0937 8.34375Z" fill="#6A8189"/>
<path d="M20.5312 8.25C22.7059 8.25 24.4687 6.48712 24.4687 4.3125C24.4687 2.13788 22.7059 0.375 20.5312 0.375C18.3566 0.375 16.5938 2.13788 16.5938 4.3125C16.5938 6.48712 18.3566 8.25 20.5312 8.25Z" fill="#425763"/>
<path d="M22.875 4.125C22.875 4.125 27.375 9.5625 24.2812 16.6875L21.75 6.84375L23.0625 5.34375" fill="#6A8189"/>
<path d="M20.2496 18.3752C22.1246 18.9377 23.8121 20.5314 24.3746 22.5939C24.9371 24.7502 24.1871 27.4689 22.4996 28.6877C21.3746 29.5314 20.0621 29.7189 18.7496 29.7189C15.6559 29.7189 12.4684 28.6877 9.37462 27.6564C8.34337 27.2814 7.31212 26.9064 6.37462 26.2502C5.43712 25.5939 4.68712 24.5627 4.49962 23.3439C4.31212 21.6564 5.34337 19.9689 6.65587 19.1252C8.90587 17.6252 11.3434 17.0627 13.6871 17.0627C15.7496 16.9689 18.2809 17.7189 20.2496 18.3752Z" fill="#B74F88"/>
<path d="M19.9692 16.9687C21.6567 17.5312 23.3442 19.125 23.813 21.1875C24.3755 23.3437 23.6255 26.0625 22.0317 27.2812C21.0005 28.125 19.688 28.3125 18.4692 28.3125C15.563 28.3125 12.563 27.2812 9.6567 26.25C8.7192 25.875 7.68795 25.5 6.8442 24.8437C6.00045 24.1875 5.25045 23.1562 5.1567 21.9375C4.9692 20.25 5.9067 18.5625 7.2192 17.7187C9.37545 16.2187 11.6255 15.6562 13.8755 15.6562C15.6567 15.6562 18.0942 16.3125 19.9692 16.9687Z" fill="#F29EDE"/>
<path d="M18.75 18C18.75 18 13.7813 20.0625 10.2188 25.7812C10.2188 25.7812 8.90629 20.8125 9.65629 17.25C9.65629 17.25 14.625 19.5 18.75 18Z" fill="#B74F88"/>
<path d="M16.875 18C16.875 18 13.125 19.5 10.5 23.8125C10.5 23.8125 9.56255 20.1562 10.125 17.4375C10.125 17.4375 13.875 19.125 16.875 18Z" fill="#FAEACF"/>
<path opacity="0.6" d="M7.5 17.4375C7.5 17.4375 8.90625 21.0937 10.6875 21.375C12.4687 21.6562 15.4688 22.3125 19.4063 18.4688L7.5 17.4375Z" fill="#B74F88"/>
<path opacity="0.28" d="M21.209 24.5312C21.832 22.6105 21.259 20.7038 19.9293 20.2725C18.5995 19.8412 17.0165 21.0487 16.3936 22.9694C15.7706 24.8902 16.3436 26.7969 17.6733 27.2282C19.0031 27.6594 20.5861 26.452 21.209 24.5312Z" fill="white"/>
<path d="M7.96845 15.9375C7.96845 15.9375 7.8747 16.125 7.6872 16.4062C6.7497 17.3438 5.15595 16.9688 4.78095 15.6563C4.03095 12.9375 3.1872 7.3125 8.2497 3.09375L7.96845 15.9375Z" fill="#425763"/>
<path d="M7.03125 4.40702C7.03125 4.40702 7.59375 6.56327 10.5938 6.84452C13.5938 7.03202 23.9062 5.53202 23.9062 5.53202C23.9062 5.53202 21.1875 0.282024 14.9062 0.00077382C10.0312 -0.186726 7.40625 3.65702 7.03125 4.40702Z" fill="#6A8189"/>
<path d="M19.5938 4.87668L20.625 9.37668C20.625 9.37668 14.9062 11.3454 6.09375 7.22043C6.09375 7.22043 6.09375 4.22043 8.90625 2.34543C11.7188 0.470425 19.5938 4.87668 19.5938 4.87668Z" fill="#6A8189"/>
<path d="M23.408 11.271C23.4262 6.24864 19.3695 2.16248 14.3472 2.14428C9.32481 2.12608 5.23865 6.18274 5.22045 11.2051C5.20225 16.2274 9.25891 20.3136 14.2812 20.3318C19.3036 20.35 23.3898 16.2933 23.408 11.271Z" fill="#A67A65"/>
<path d="M23.0017 10.5814C23.0193 5.71443 19.0881 1.75465 14.2211 1.73701C9.35408 1.71937 5.39429 5.65057 5.37666 10.5176C5.35902 15.3846 9.29022 19.3444 14.1572 19.362C19.0242 19.3796 22.984 15.4485 23.0017 10.5814Z" fill="#E5A98C"/>
<path d="M22.886 10.3469C22.9029 5.68699 19.223 1.89601 14.6666 1.8795C10.1103 1.86299 6.40293 5.62721 6.38604 10.2871C6.36916 14.947 10.0491 18.738 14.6055 18.7545C19.1618 18.771 22.8692 15.0068 22.886 10.3469Z" fill="#E8CCAA"/>
<path d="M18.3281 11.4849C18.3405 8.06763 15.6642 5.28766 12.3505 5.27565C9.0368 5.26364 6.34047 8.02414 6.32808 11.4414C6.3157 14.8587 8.99196 17.6386 12.3057 17.6506C15.6194 17.6627 18.3157 14.9022 18.3281 11.4849Z" fill="#FAEACF"/>
<path d="M7.125 4.31227C7.125 4.31227 7.6875 6.37477 10.5 6.65602C13.3125 6.93727 23.0625 5.34352 23.0625 5.34352C23.0625 5.34352 20.625 0.468519 14.625 0.187269C9.9375 -0.0939808 7.5 3.56227 7.125 4.31227Z" fill="#425763"/>
<path d="M15.268 12.1975C15.2699 11.6798 14.8937 11.2587 14.4277 11.257C13.9617 11.2553 13.5824 11.6736 13.5805 12.1914C13.5787 12.7092 13.9549 13.1303 14.4209 13.132C14.8869 13.1337 15.2662 12.7153 15.268 12.1975Z" fill="#425763"/>
<path d="M14.7041 11.7943C14.7047 11.639 14.6212 11.5128 14.5177 11.5124C14.4141 11.512 14.3297 11.6376 14.3291 11.793C14.3286 11.9483 14.4121 12.0745 14.5156 12.0749C14.6192 12.0753 14.7036 11.9497 14.7041 11.7943Z" fill="white"/>
<path d="M8.68601 10.721C8.68789 10.2032 8.31165 9.78209 7.84566 9.7804C7.37967 9.77871 7.00039 10.1971 6.99851 10.7148C6.99664 11.2326 7.37288 11.6537 7.83887 11.6554C8.30486 11.6571 8.68414 11.2387 8.68601 10.721Z" fill="#425763"/>
<path d="M8.21489 10.4115C8.21545 10.2562 8.13196 10.13 8.02841 10.1296C7.92485 10.1292 7.84045 10.2548 7.83989 10.4102C7.83932 10.5655 7.92281 10.6917 8.02637 10.6921C8.12992 10.6925 8.21432 10.5668 8.21489 10.4115Z" fill="white"/>
<path d="M20.1562 11.9055C20.1562 11.9055 20.9062 11.343 21.4687 11.5305C22.0312 11.718 21.9375 13.6867 20.4375 13.8742L20.1562 11.9055Z" fill="#FAEACF"/>
<path d="M17.3438 5.43721C17.3438 5.43721 19.4062 9.09345 19.0312 14.906C18.8437 17.7185 22.3125 19.1247 24.0938 16.9685L24.1875 16.8747C25.6875 15.0935 24.5625 10.2185 23.625 6.93721C23.0625 4.96846 21.1875 4.21845 19.3125 4.8747L17.3438 5.43721Z" fill="#425763"/>
<path d="M19.125 4.78048L20.0625 8.99923C20.0625 8.99923 14.25 11.1555 5.90625 7.21798C5.90625 7.21798 6.375 4.12423 9 2.34298C11.625 0.561725 19.125 4.78048 19.125 4.78048Z" fill="#425763"/>
<path d="M6.65625 6.46875C6.65625 6.46875 7.40625 5.4375 8.34375 5.4375C9.28125 5.4375 13.125 8.0625 19.3125 7.21875C19.3125 7.21875 18.0937 8.4375 16.6875 8.625C15.1875 8.71875 9.9375 8.25 6.65625 6.46875Z" fill="#6A8189"/>
<path d="M12.5625 16.3125C12.5625 16.3125 11.7187 16.2187 11.1562 15.75C10.5937 15.2812 10.0312 15.375 9.84375 15.375C9.75 15.375 9.5625 15.1875 9.375 15.0938C9.1875 15 8.90625 15 8.90625 15.0938C8.90625 15.1875 9.1875 15.6563 9.1875 15.6563C9.1875 15.6563 9.28125 16.0312 9.1875 16.2187C9.09375 16.4062 9.1875 16.9687 9.84375 17.1562C10.5 17.3437 10.9687 17.25 11.25 17.0625C11.4375 16.9688 12.5625 16.3125 12.5625 16.3125Z" fill="#A67A65"/>
<path d="M24.9375 8.53125C24.9375 8.53125 20.0625 4.875 13.5 4.3125C6.9375 3.75 6.1875 5.25 6.1875 5.25L8.34375 2.34375C8.34375 2.34375 16.2187 2.34375 20.0625 4.03125C23.9062 5.71875 24.5625 6.75 24.5625 6.75L24.9375 8.53125Z" fill="#F29EDE"/>
<path opacity="0.28" d="M8.0625 3.93758L9.09375 3.00008C9.09375 3.00008 14.7188 2.53133 18.75 4.68758C18.75 4.59383 12.4688 3.28133 8.0625 3.93758Z" fill="white"/>
<path d="M15.8437 27.5625L15.5625 27.9375L17.1562 29.0625L26.0625 20.1562L24.5625 18.2812L15.8437 27.5625Z" fill="#9A4C18"/>
<path d="M26.2501 22.6875C25.9689 26.25 22.6876 29.25 19.0314 29.1562C15.3751 29.1562 13.1251 26.1563 13.7814 22.6875C14.4376 19.4063 17.5314 16.875 20.8126 16.875C24.0939 16.875 26.5314 19.4063 26.2501 22.6875Z" fill="#9A4C18"/>
<path d="M27.1878 23.8132C26.9065 27.1882 23.719 30.0007 20.0628 30.0007C16.5003 30.0007 14.2503 27.0944 14.9065 23.8132C15.5628 20.7194 18.5628 18.2819 21.7503 18.2819C25.0315 18.1882 27.469 20.6257 27.1878 23.8132Z" fill="#9A4C18"/>
<path d="M16.875 27.75L18.375 28.5938L25.6875 20.9062L24.4688 19.3125L16.875 27.75Z" fill="#F49937"/>
<path d="M26.4379 23.8125C26.1566 26.7188 23.5316 29.1563 20.5316 29.0625C17.6254 29.0625 15.6566 26.625 16.2191 23.8125C16.6879 21.0938 19.3129 19.0312 21.9379 19.0312C24.6566 19.0312 26.7191 21.0938 26.4379 23.8125Z" fill="#F49937"/>
<path d="M25.4999 22.6875C25.2187 25.7812 22.3124 28.4062 19.1249 28.3125C15.9374 28.3125 13.9687 25.6875 14.5312 22.6875C15.0937 19.875 17.8124 17.625 20.6249 17.5312C23.6249 17.5312 25.7812 19.7812 25.4999 22.6875Z" fill="#FFEDC0"/>
<path d="M25.1254 22.875C24.8441 25.7813 22.2191 28.2188 19.2191 28.125C16.3129 28.125 14.3441 25.6875 14.9066 22.875C15.3754 20.1563 18.0004 18.0938 20.6254 18.0938C23.3441 18.0938 25.3129 20.1563 25.1254 22.875Z" fill="#FFD766"/>
<path d="M23.9061 22.875C23.6248 25.125 21.5623 26.9063 19.3123 26.9063C17.0623 26.9063 15.5623 25.0312 15.9373 22.875C16.3123 20.8125 18.2811 19.125 20.4373 19.125C22.5936 19.125 24.1873 20.7188 23.9061 22.875Z" fill="#FFEDC0"/>
<path d="M23.9998 22.3125C23.8123 24.4688 21.7498 26.3438 19.4061 26.3438C17.1561 26.3438 15.6561 24.4688 16.0311 22.3125C16.4061 20.25 18.3748 18.5625 20.5311 18.5625C22.6873 18.5625 24.1873 20.25 23.9998 22.3125Z" fill="#F49937"/>
<path d="M23.3434 22.875C23.1559 24.75 21.3747 26.3438 19.4997 26.25C17.6247 26.25 16.3122 24.6562 16.6872 22.875C16.9684 21.0937 18.6559 19.6875 20.4372 19.6875C22.2184 19.6875 23.5309 21.0937 23.3434 22.875Z" fill="#FFD766"/>
<path d="M20.9062 19.3125L21.375 21.375L23.625 21.9375L21.5625 23.3437L21.4687 25.6875L19.5937 24.2812L17.25 25.125L18.2812 22.9687L17.0625 21.1875H19.4062L20.9062 19.3125Z" fill="#F49937"/>
</g>
<defs>
<clipPath id="clip0_52_38078">
<rect width="30" height="30" fill="white"/>
</clipPath>
</defs>
</svg>
