<svg width="18" height="18" viewBox="0 0 18 18" fill="none" xmlns="http://www.w3.org/2000/svg">
<mask id="mask0_0_257" style="mask-type:luminance" maskUnits="userSpaceOnUse" x="-2" y="-2" width="24" height="24">
<rect x="-1.92403" y="-1.92506" width="23.0925" height="23.0925" fill="white"/>
</mask>
<g mask="url(#mask0_0_257)">
<path fill-rule="evenodd" clip-rule="evenodd" d="M7.69749 15.395C9.47369 15.395 11.1065 14.784 12.4093 13.7708L16.6391 18.0006L17.9996 16.6401L13.7699 12.4103C14.784 11.1065 15.395 9.47369 15.395 7.69749C15.395 3.45329 11.9417 0 7.69749 0C3.45329 0 0 3.45329 0 7.69749C0 11.9417 3.45329 15.395 7.69749 15.395ZM7.69754 1.92437C10.8814 1.92437 13.4707 4.51362 13.4707 7.69749C13.4707 10.8814 10.8814 13.4706 7.69754 13.4706C4.51366 13.4706 1.92442 10.8814 1.92442 7.69749C1.92442 4.51362 4.51366 1.92437 7.69754 1.92437Z" fill="#ADB5BD"/>
</g>
</svg>
