<svg width="24" height="24" viewBox="0 0 24 24" fill="none" xmlns="http://www.w3.org/2000/svg">
<path fill-rule="evenodd" clip-rule="evenodd" d="M5.57999 5.58072C5.79092 5.37004 6.07686 5.25171 6.37499 5.25171C6.67311 5.25171 6.95904 5.37004 7.16999 5.58072L12 10.4107L16.83 5.58072C16.933 5.47018 17.0572 5.38153 17.1952 5.32005C17.3332 5.25856 17.4822 5.2255 17.6332 5.22283C17.7843 5.22016 17.9343 5.24796 18.0744 5.30454C18.2145 5.36112 18.3417 5.44533 18.4485 5.55216C18.5554 5.65899 18.6396 5.78625 18.6961 5.92632C18.7527 6.0664 18.7806 6.21645 18.7779 6.3675C18.7752 6.51856 18.7422 6.66753 18.6807 6.80553C18.6192 6.94353 18.5305 7.06773 18.42 7.17072L13.59 12.0007L18.42 16.8307C18.5305 16.9338 18.6192 17.058 18.6807 17.196C18.7422 17.334 18.7752 17.4829 18.7779 17.634C18.7806 17.785 18.7527 17.935 18.6961 18.0751C18.6396 18.2152 18.5554 18.3424 18.4485 18.4492C18.3417 18.5562 18.2145 18.6403 18.0744 18.6969C17.9343 18.7534 17.7843 18.7813 17.6332 18.7786C17.4822 18.7759 17.3332 18.7429 17.1952 18.6814C17.0572 18.6199 16.933 18.5313 16.83 18.4207L12 13.5907L7.16999 18.4207C6.95672 18.6195 6.67464 18.7276 6.38319 18.7225C6.09174 18.7173 5.81367 18.5992 5.60754 18.3931C5.40143 18.187 5.28336 17.9089 5.27822 17.6175C5.27307 17.326 5.38127 17.044 5.57999 16.8307L10.41 12.0007L5.57999 7.17072C5.36931 6.95979 5.25098 6.67384 5.25098 6.37572C5.25098 6.07759 5.36931 5.79166 5.57999 5.58072Z" fill="white"/>
</svg>
