<svg width="30" height="30" viewBox="0 0 30 30" fill="none" xmlns="http://www.w3.org/2000/svg">
<g clip-path="url(#clip0_52_52478)">
<path d="M21.9372 0.655306L7.87469 8.90531C5.34343 10.3116 4.49969 13.1241 5.53094 15.7491C6.18719 17.3428 7.40594 19.1241 9.74968 20.7178C12.1872 22.4053 14.6247 23.0616 16.7809 23.1553C20.6247 23.4366 23.8122 21.4678 24.3747 18.2803L26.9997 2.81156C27.3747 0.561556 24.3747 -0.750944 21.9372 0.655306Z" fill="#853E96"/>
<path d="M17.8536 28.9494C19.3259 26.8832 16.8276 22.5777 12.2736 19.3327C7.71957 16.0877 2.8343 15.1321 1.36204 17.1983C-0.110213 19.2645 2.38806 23.57 6.94209 26.815C11.4961 30.06 16.3814 31.0156 17.8536 28.9494Z" fill="#853E96"/>
<path d="M21.093 2.06181L8.43677 9.37431C6.18677 10.6868 5.34302 13.2181 6.28052 15.6556C6.84302 17.0618 7.96802 18.6556 10.0305 20.1556C12.1868 21.6556 14.4368 22.2181 16.3118 22.3118C19.6868 22.4993 22.593 20.8118 23.1555 17.9993L25.4993 4.12431C25.968 1.96806 23.2493 0.749311 21.093 2.06181Z" fill="#581F66"/>
<path d="M17.6589 27.6633C18.8307 26.0188 16.3965 22.2743 12.222 19.2998C8.04749 16.3252 3.71344 15.247 2.54164 16.8915C1.36985 18.536 3.80404 22.2805 7.97857 25.255C12.1531 28.2296 16.4872 29.3078 17.6589 27.6633Z" fill="#581F66"/>
<path d="M16.7426 27.0125C17.4938 25.9583 15.1288 22.9847 11.4603 20.3706C7.79174 17.7566 4.20888 16.4922 3.45773 17.5463C2.70658 18.6005 5.07158 21.5741 8.74011 24.1881C12.4086 26.8022 15.9915 28.0666 16.7426 27.0125Z" fill="#A94DBC"/>
<path d="M13.1246 22.1247L8.62457 19.2185C7.12457 18.281 5.62457 17.8122 4.68707 17.9997C3.93707 18.0935 4.31207 19.1247 5.24957 19.781L14.1558 25.781C15.4683 26.6247 16.7808 26.6247 16.4996 25.781C16.2183 24.656 14.9058 23.2497 13.1246 22.1247Z" fill="#A94DBC"/>
<path d="M13.6875 23.25L7.125 19.0312L9.65625 14.625L17.0625 18.8438L13.6875 23.25Z" fill="#581F66"/>
<path d="M20.5315 3.28098L9.93779 9.84348C8.06279 11.0622 7.31279 13.2185 8.06279 15.1872C8.53154 16.406 9.37529 17.7185 11.0628 18.9372C12.844 20.156 14.6253 20.6247 16.219 20.7185C19.0315 20.8122 21.469 19.3122 21.9378 16.8747L24.1878 4.96848C24.5628 3.09348 22.3128 2.15598 20.5315 3.28098Z" fill="#A94DBC"/>
<path d="M13.5069 23.6426C13.9876 22.9679 12.9074 21.3737 11.0943 20.0817C9.28108 18.7897 7.4215 18.2893 6.94076 18.9639C6.46003 19.6386 7.54018 21.2329 9.35336 22.5249C11.1665 23.8169 13.0261 24.3173 13.5069 23.6426Z" fill="#581F66"/>
<path d="M11.4375 19.5C11.4375 19.5 16.2188 21.4688 18.4688 17.0625C20.7188 12.6563 23.25 2.8125 23.25 2.8125L24.5625 3.09375L24.2812 10.2187L22.0312 19.875C22.125 19.875 16.875 24.75 11.4375 19.5ZM10.7812 25.875C10.7812 25.875 13.125 27.2812 14.5312 26.4375C15.9375 25.5938 14.625 22.7812 14.625 22.7812C14.625 22.7812 17.1562 25.4062 17.3438 26.25C17.625 27.0938 16.2188 29.625 10.7812 25.875Z" fill="#581F66"/>
<path d="M9.65672 11.8125L20.3442 4.125C20.5317 3.9375 20.9067 3.9375 21.0942 4.125C21.4692 4.3125 21.563 4.875 21.2817 5.15625L12.563 15.0938C11.9067 15.8438 10.5942 15.8437 10.0317 15C9.28172 14.25 8.90672 13.125 9.65672 11.8125ZM7.50047 22.2188C7.50047 22.2188 5.62547 19.4062 6.56297 18.6562C6.56297 18.6562 5.43797 17.5312 4.40672 17.9062C3.37547 18.2812 7.50047 22.2188 7.50047 22.2188Z" fill="#E08CF5"/>
<path d="M16.9687 27.375L16.5938 27.8438L18.1875 28.9688L27 20.1563L25.5 18.2812L16.9687 27.375Z" fill="#9A4C18"/>
<path d="M27.1878 22.6881C26.9065 26.1568 23.719 29.1568 20.0628 29.0631C16.5003 29.0631 14.2503 26.0631 14.9065 22.6881C15.5628 19.5006 18.5628 16.9693 21.7503 16.9693C25.0315 16.8756 27.469 19.4068 27.1878 22.6881Z" fill="#9A4C18"/>
<path d="M28.0317 23.7187C27.7504 27 24.5629 29.9062 21.0942 29.8125C17.6254 29.8125 15.3754 27 16.0317 23.7187C16.6879 20.7187 19.5942 18.2812 22.7817 18.2812C25.9692 18.2812 28.3129 20.625 28.0317 23.7187Z" fill="#9A4C18"/>
<path d="M17.9062 27.6562L19.4063 28.4062L26.625 20.9062L25.4062 19.3125L17.9062 27.6562Z" fill="#F49937"/>
<path d="M27.375 23.8125C27.0938 26.625 24.4688 29.0625 21.5625 28.9688C18.6563 28.9688 16.7813 26.5312 17.3438 23.8125C17.8125 21.1875 20.3438 19.125 22.9688 19.0312C25.5938 19.0312 27.6563 21.0938 27.375 23.8125Z" fill="#F49937"/>
<path d="M26.4376 22.5937C26.1563 25.5938 23.3438 28.2187 20.2501 28.125C17.1563 28.125 15.1876 25.5938 15.7501 22.5937C16.3126 19.7812 18.9376 17.625 21.7501 17.5312C24.5626 17.5312 26.6251 19.7812 26.4376 22.5937Z" fill="#FFEDC0"/>
<path d="M26.0625 22.875C25.7813 25.6875 23.1563 28.125 20.25 28.0312C17.3438 28.0312 15.4688 25.5938 16.0313 22.875C16.5 20.25 19.0313 18.1875 21.6563 18.0938C24.2813 18.0938 26.25 20.1563 26.0625 22.875Z" fill="#FFD766"/>
<path d="M24.8436 22.875C24.6561 25.0313 22.5936 26.9063 20.3436 26.9063C18.0936 26.9063 16.6873 25.0313 17.0623 22.9688C17.4373 20.9063 19.4061 19.3125 21.4686 19.2188C23.5311 19.125 25.1248 20.7188 24.8436 22.875Z" fill="#FFEDC0"/>
<path d="M24.9373 22.3125C24.7498 24.4687 22.6873 26.25 20.4373 26.25C18.1873 26.25 16.7811 24.4687 17.1561 22.3125C17.5311 20.25 19.4998 18.6562 21.5623 18.6562C23.6248 18.6562 25.1248 20.25 24.9373 22.3125Z" fill="#F49937"/>
<path d="M24.2815 22.875C24.094 24.75 22.4065 26.25 20.4377 26.25C18.5627 26.25 17.344 24.75 17.6252 22.875C17.9065 21.0937 19.594 19.6875 21.3752 19.6875C23.1565 19.6875 24.469 21.0937 24.2815 22.875Z" fill="#FFD766"/>
<path d="M21.9375 19.3125L22.4063 21.375L24.5625 21.9375L22.5938 23.25L22.4063 25.5937L20.625 24.2812L18.2813 25.0313L19.3125 22.875L18.0938 21.1875L20.4375 21.0937L21.9375 19.3125Z" fill="#F49937"/>
</g>
<defs>
<clipPath id="clip0_52_52478">
<rect width="30" height="30" fill="white"/>
</clipPath>
</defs>
</svg>
