<svg width="22" height="16" viewBox="0 0 22 16" fill="none" xmlns="http://www.w3.org/2000/svg">
<path fill-rule="evenodd" clip-rule="evenodd" d="M8.8 8.95902V3.34884H18.3333C19.3055 3.34996 20.2374 3.74234 20.9248 4.43991C21.6122 5.13748 21.9989 6.08326 22 7.06977V16H20.5333V13.9342L1.46667 13.7794V16H0V0H1.46667V2.97674H3.76883C4.83353 2.97796 5.85427 3.40772 6.60712 4.17172C7.35997 4.93573 7.78343 5.97159 7.78461 7.05205V8.95902H8.8ZM5.57048 5.22364C5.09259 4.73868 4.44466 4.46589 3.76883 4.46512H1.46667V8.95893H6.31794V7.05195C6.31718 6.36612 6.04837 5.7086 5.57048 5.22364ZM1.46667 12.291V10.4474H20.5333V12.4458L1.46667 12.291ZM10.2667 4.83721V8.95902H20.5333V7.06977C20.5327 6.47786 20.3007 5.9104 19.8882 5.49186C19.4758 5.07332 18.9166 4.83789 18.3333 4.83721H10.2667Z" fill="#BABBC3"/>
</svg>
