<svg width="33" height="27" viewBox="0 0 33 27" fill="none" xmlns="http://www.w3.org/2000/svg">
<path fill-rule="evenodd" clip-rule="evenodd" d="M29.3009 12.0579L32.9335 17.8089H0.0657668L3.69831 12.0578V1.47867L5.17698 0H27.8222L29.3009 1.47867V12.0579ZM26.3436 10.339V2.95734H6.65565V10.339C8.56127 9.84608 11.8533 9.23822 16.4996 9.23822C21.1459 9.23822 24.438 9.84608 26.3436 10.339Z" fill="#899494"/>
<path d="M0 19.6284V22.5857H3.44555V26.6582H6.40289V22.5857H26.5973V26.6582H29.5546V22.5857H33.0003V19.6284H0Z" fill="#899494"/>
<path d="M22.9525 7.69945C22.9525 7.69945 13.8156 4.12488 11.9849 4.12488C10.1543 4.12488 8.67026 4.95411 8.67026 5.97668V8.56257C8.67026 8.56257 10.6255 8.0703 11.9694 7.94305C13.1793 7.82839 22.9525 7.69945 22.9525 7.69945Z" fill="#899494"/>
<path d="M24.3298 8.56257V5.97668C24.3298 4.95411 22.8457 4.12488 21.015 4.12488C19.1843 4.12488 10.0474 7.69945 10.0474 7.69945C10.0474 7.69945 19.8207 7.82831 21.0306 7.94305C22.3746 8.0703 24.3298 8.56257 24.3298 8.56257Z" fill="#899494"/>
</svg>
