<svg width="60" height="61" viewBox="0 0 60 61" fill="none" xmlns="http://www.w3.org/2000/svg">
<path d="M8.48281 11.8783C8.27619 12.1911 8.15946 12.5545 8.14535 12.9291C8.13125 13.3037 8.22031 13.6749 8.40281 14.0023C9.40677 15.7928 10.949 17.2217 12.8108 18.0863C14.6731 17.2216 16.2157 15.7923 17.2198 14.0013L17.2238 13.9933C17.4198 13.6693 17.5218 13.3033 17.5218 12.9313C17.5218 12.5603 17.4198 12.1943 17.2238 11.8703L17.2218 11.8663C17.0709 11.6083 16.8537 11.3952 16.5928 11.2493C16.3244 11.0989 16.0224 11.0188 15.7148 11.0163C15.3648 11.0243 15.0248 11.1283 14.7378 11.3133C14.4544 11.4926 14.2293 11.7504 14.0898 12.0553L14.0878 12.0613L13.8978 12.4513L8.48281 11.8783ZM8.48281 11.8783L8.48981 11.8663L8.48281 11.8783ZM8.48281 11.8783L8.48981 11.8663L8.48281 11.8783ZM8.48981 11.8663C8.63681 11.6133 8.85281 11.4003 9.11881 11.2493C9.38381 11.0993 9.68681 11.0193 9.99681 11.0163C10.3468 11.0243 10.6868 11.1283 10.9748 11.3133C11.2628 11.4983 11.4868 11.7563 11.6218 12.0553M8.48981 11.8663L11.6218 12.0553L8.48981 11.8663ZM11.6218 12.0553L11.6248 12.0613L11.6218 12.0553ZM11.6218 12.0553L11.6248 12.0613L11.6218 12.0553ZM11.6248 12.0613L11.8128 12.4513L11.6248 12.0613ZM11.6248 12.0613L11.8128 12.4513L11.6248 12.0613ZM11.8128 12.4513C11.9068 12.6443 12.0548 12.8053 12.2398 12.9173C12.4255 13.0299 12.6386 13.0895 12.8558 13.0895C13.073 13.0895 13.2861 13.0299 13.4718 12.9173C13.6568 12.8053 13.8048 12.6443 13.8978 12.4513H11.8128ZM10.1728 19.1113L10.1758 19.1123C10.8808 19.5753 11.6388 19.9623 12.4348 20.2643C12.7048 20.3663 13.0058 20.3663 13.2758 20.2643H13.2778C14.0748 19.9603 14.8348 19.5743 15.5438 19.1133L15.5478 19.1103C17.0922 18.0668 18.3709 16.6764 19.2818 15.0503C19.6618 14.3883 19.8548 13.6423 19.8398 12.8873C19.8235 12.1282 19.6013 11.3879 19.1968 10.7453C18.8371 10.1571 18.3296 9.67342 17.7248 9.34231C17.1087 9.0038 16.4178 8.82438 15.7148 8.82031H15.7128C15.1362 8.82129 14.566 8.94111 14.0378 9.17231C13.5998 9.36378 13.1995 9.632 12.8558 9.96431C12.5158 9.63431 12.1158 9.36631 11.6738 9.17231C11.1459 8.94125 10.5761 8.82142 9.99981 8.82031H9.99681C9.29382 8.82438 8.60295 9.0038 7.98681 9.34231C7.37681 9.67931 6.86881 10.1623 6.51581 10.7453C6.11097 11.3877 5.88837 12.1281 5.87181 12.8873C5.85776 13.6459 6.05067 14.3941 6.42981 15.0513C7.34148 16.68 8.62415 18.0709 10.1738 19.1113H10.1728ZM8.48281 27.7963C8.27619 28.1091 8.15946 28.4725 8.14535 28.8471C8.13125 29.2217 8.22031 29.5929 8.40281 29.9203C9.40661 31.7112 10.9489 33.1404 12.8108 34.0053C14.6731 33.1407 16.2158 31.7114 17.2198 29.9203L17.2238 29.9123C17.4198 29.5883 17.5218 29.2223 17.5218 28.8503C17.5218 28.4793 17.4198 28.1133 17.2238 27.7893L17.2218 27.7853C17.0709 27.5272 16.8538 27.3142 16.5928 27.1683C16.3245 27.0179 16.0224 26.9377 15.7148 26.9353C15.3648 26.9443 15.0248 27.0473 14.7378 27.2323C14.4544 27.4116 14.2293 27.6694 14.0898 27.9743L14.0878 27.9803L13.8978 28.3703L8.48281 27.7963ZM8.48281 27.7963L8.48981 27.7853L8.48281 27.7963ZM8.48281 27.7963L8.48981 27.7853L8.48281 27.7963ZM8.48981 27.7853C8.63681 27.5323 8.85281 27.3193 9.11881 27.1683C9.38381 27.0183 9.68681 26.9383 9.99681 26.9353C10.3468 26.9443 10.6868 27.0473 10.9748 27.2323C11.2628 27.4173 11.4868 27.6753 11.6218 27.9743M8.48981 27.7853L11.6218 27.9743L8.48981 27.7853ZM11.6218 27.9743L11.6248 27.9803L11.6218 27.9743ZM11.6218 27.9743L11.6248 27.9803L11.6218 27.9743ZM11.6248 27.9803L11.8128 28.3703L11.6248 27.9803ZM11.6248 27.9803L11.8128 28.3703L11.6248 27.9803ZM11.8128 28.3703C11.9068 28.5633 12.0548 28.7243 12.2398 28.8363C12.4255 28.9489 12.6386 29.0085 12.8558 29.0085C13.073 29.0085 13.2861 28.9489 13.4718 28.8363C13.6568 28.7243 13.8048 28.5633 13.8978 28.3703H11.8128ZM10.1728 35.0303L10.1758 35.0313C10.8808 35.4943 11.6388 35.8813 12.4348 36.1833C12.7048 36.2853 13.0058 36.2853 13.2758 36.1833H13.2778C14.0718 35.8811 14.8315 35.4953 15.5438 35.0323L15.5478 35.0293C17.0922 33.9859 18.371 32.5955 19.2818 30.9693C19.6618 30.3073 19.8548 29.5613 19.8398 28.8063C19.8235 28.0472 19.6013 27.3069 19.1968 26.6643C18.8371 26.0761 18.3296 25.5924 17.7248 25.2613C17.1087 24.9228 16.4178 24.7434 15.7148 24.7393H15.7128C15.1362 24.7403 14.566 24.8601 14.0378 25.0913C13.5998 25.2828 13.1995 25.551 12.8558 25.8833C12.5158 25.5533 12.1158 25.2853 11.6738 25.0913C11.1459 24.8603 10.5761 24.7405 9.99981 24.7393H9.99681C9.29382 24.7434 8.60295 24.9228 7.98681 25.2613C7.37681 25.5983 6.86881 26.0813 6.51581 26.6633C6.11079 27.306 5.88818 28.0468 5.87181 28.8063C5.85776 29.5649 6.05067 30.3131 6.42981 30.9703C7.34145 32.599 8.62413 33.99 10.1738 35.0303H10.1728ZM8.48281 43.7143C8.27619 44.0271 8.15946 44.3905 8.14535 44.7651C8.13125 45.1397 8.22031 45.5109 8.40281 45.8383C9.40661 47.6292 10.9489 49.0584 12.8108 49.9233C14.6731 49.0586 16.2158 47.6293 17.2198 45.8383L17.2238 45.8303C17.4198 45.5053 17.5218 45.1403 17.5218 44.7683C17.5218 44.3973 17.4198 44.0313 17.2238 43.7073L17.2218 43.7033C17.0709 43.4453 16.8537 43.2322 16.5928 43.0863C16.3244 42.9359 16.0224 42.8558 15.7148 42.8533C15.3648 42.8613 15.0248 42.9653 14.7378 43.1503C14.4545 43.3296 14.2293 43.5874 14.0898 43.8923L14.0878 43.8983L13.8978 44.2883L8.48281 43.7143ZM8.48281 43.7143L8.48981 43.7033L8.48281 43.7143ZM8.48281 43.7143L8.48981 43.7033L8.48281 43.7143ZM8.48981 43.7033C8.63681 43.4503 8.85281 43.2363 9.11881 43.0863C9.38381 42.9363 9.68681 42.8563 9.99681 42.8533C10.3468 42.8613 10.6868 42.9653 10.9748 43.1503C11.2628 43.3353 11.4868 43.5933 11.6218 43.8923M8.48981 43.7033L11.6218 43.8923L8.48981 43.7033ZM11.6218 43.8923L11.6248 43.8983L11.6218 43.8923ZM11.6218 43.8923L11.6248 43.8983L11.6218 43.8923ZM11.6248 43.8983L11.8128 44.2883L11.6248 43.8983ZM11.6248 43.8983L11.8128 44.2883L11.6248 43.8983ZM11.8128 44.2883C11.9068 44.4813 12.0548 44.6423 12.2398 44.7543C12.4255 44.8669 12.6386 44.9265 12.8558 44.9265C13.073 44.9265 13.2861 44.8669 13.4718 44.7543C13.6568 44.6423 13.8048 44.4813 13.8978 44.2883H11.8128ZM10.1728 50.9483L10.1758 50.9493C10.8808 51.4123 11.6388 51.7993 12.4348 52.1013C12.7048 52.2033 13.0058 52.2033 13.2758 52.1013H13.2778C14.0718 51.7992 14.8315 51.4133 15.5438 50.9503L15.5478 50.9473C17.0922 49.9039 18.371 48.5135 19.2818 46.8873C19.6618 46.2253 19.8548 45.4793 19.8398 44.7243C19.8235 43.9652 19.6013 43.2249 19.1968 42.5823C18.8371 41.9941 18.3296 41.5104 17.7248 41.1793C17.1087 40.8408 16.4178 40.6614 15.7148 40.6573H15.7128C15.1362 40.6583 14.566 40.7781 14.0378 41.0093C13.5997 41.2007 13.1995 41.469 12.8558 41.8013C12.5122 41.469 12.1119 41.2007 11.6738 41.0093C11.1459 40.7782 10.5761 40.6584 9.99981 40.6573H9.99681C9.29382 40.6614 8.60295 40.8408 7.98681 41.1793C7.37681 41.5163 6.86881 41.9993 6.51581 42.5823C6.11097 43.2247 5.88837 43.9651 5.87181 44.7243C5.85794 45.4826 6.05085 46.2304 6.42981 46.8873C7.34145 48.516 8.62413 49.907 10.1738 50.9473L10.1728 50.9483Z" fill="#213A52"/>
<path d="M8.48281 11.8783C8.27619 12.1911 8.15946 12.5545 8.14535 12.9291C8.13125 13.3037 8.22031 13.6749 8.40281 14.0023C9.40677 15.7928 10.949 17.2217 12.8108 18.0863C14.6731 17.2216 16.2157 15.7923 17.2198 14.0013L17.2238 13.9933C17.4198 13.6693 17.5218 13.3033 17.5218 12.9313C17.5218 12.5603 17.4198 12.1943 17.2238 11.8703L17.2218 11.8663C17.0709 11.6083 16.8537 11.3952 16.5928 11.2493C16.3244 11.0989 16.0224 11.0188 15.7148 11.0163C15.3648 11.0243 15.0248 11.1283 14.7378 11.3133C14.4544 11.4926 14.2293 11.7504 14.0898 12.0553L14.0878 12.0613L13.8978 12.4513M8.48281 11.8783L13.8978 12.4513M8.48281 11.8783L8.48981 11.8663M13.8978 12.4513C13.8048 12.6443 13.6568 12.8053 13.4718 12.9173C13.2861 13.0299 13.073 13.0895 12.8558 13.0895C12.6386 13.0895 12.4255 13.0299 12.2398 12.9173C12.0548 12.8053 11.9068 12.6443 11.8128 12.4513M13.8978 12.4513H11.8128M8.48981 11.8663C8.63681 11.6133 8.85281 11.4003 9.11881 11.2493C9.38381 11.0993 9.68681 11.0193 9.99681 11.0163C10.3468 11.0243 10.6868 11.1283 10.9748 11.3133C11.2628 11.4983 11.4868 11.7563 11.6218 12.0553M8.48981 11.8663L11.6218 12.0553M11.6218 12.0553L11.6248 12.0613L11.8128 12.4513M8.48281 27.7963C8.27619 28.1091 8.15946 28.4725 8.14535 28.8471C8.13125 29.2217 8.22031 29.5929 8.40281 29.9203C9.40661 31.7112 10.9489 33.1404 12.8108 34.0053C14.6731 33.1407 16.2158 31.7114 17.2198 29.9203L17.2238 29.9123C17.4198 29.5883 17.5218 29.2223 17.5218 28.8503C17.5218 28.4793 17.4198 28.1133 17.2238 27.7893L17.2218 27.7853C17.0709 27.5272 16.8538 27.3142 16.5928 27.1683C16.3245 27.0179 16.0224 26.9377 15.7148 26.9353C15.3648 26.9443 15.0248 27.0473 14.7378 27.2323C14.4544 27.4116 14.2293 27.6694 14.0898 27.9743L14.0878 27.9803L13.8978 28.3703M8.48281 27.7963L13.8978 28.3703M8.48281 27.7963L8.48981 27.7853M13.8978 28.3703C13.8048 28.5633 13.6568 28.7243 13.4718 28.8363C13.2861 28.9489 13.073 29.0085 12.8558 29.0085C12.6386 29.0085 12.4255 28.9489 12.2398 28.8363C12.0548 28.7243 11.9068 28.5633 11.8128 28.3703M13.8978 28.3703H11.8128M8.48981 27.7853C8.63681 27.5323 8.85281 27.3193 9.11881 27.1683C9.38381 27.0183 9.68681 26.9383 9.99681 26.9353C10.3468 26.9443 10.6868 27.0473 10.9748 27.2323C11.2628 27.4173 11.4868 27.6753 11.6218 27.9743M8.48981 27.7853L11.6218 27.9743M11.6218 27.9743L11.6248 27.9803L11.8128 28.3703M8.48281 43.7143C8.27619 44.0271 8.15946 44.3905 8.14535 44.7651C8.13125 45.1397 8.22031 45.5109 8.40281 45.8383C9.40661 47.6292 10.9489 49.0584 12.8108 49.9233C14.6731 49.0586 16.2158 47.6293 17.2198 45.8383L17.2238 45.8303C17.4198 45.5053 17.5218 45.1403 17.5218 44.7683C17.5218 44.3973 17.4198 44.0313 17.2238 43.7073L17.2218 43.7033C17.0709 43.4453 16.8537 43.2322 16.5928 43.0863C16.3244 42.9359 16.0224 42.8558 15.7148 42.8533C15.3648 42.8613 15.0248 42.9653 14.7378 43.1503C14.4545 43.3296 14.2293 43.5874 14.0898 43.8923L14.0878 43.8983L13.8978 44.2883M8.48281 43.7143L13.8978 44.2883M8.48281 43.7143L8.48981 43.7033M13.8978 44.2883C13.8048 44.4813 13.6568 44.6423 13.4718 44.7543C13.2861 44.8669 13.073 44.9265 12.8558 44.9265C12.6386 44.9265 12.4255 44.8669 12.2398 44.7543C12.0548 44.6423 11.9068 44.4813 11.8128 44.2883M13.8978 44.2883H11.8128M8.48981 43.7033C8.63681 43.4503 8.85281 43.2363 9.11881 43.0863C9.38381 42.9363 9.68681 42.8563 9.99681 42.8533C10.3468 42.8613 10.6868 42.9653 10.9748 43.1503C11.2628 43.3353 11.4868 43.5933 11.6218 43.8923M8.48981 43.7033L11.6218 43.8923M11.6218 43.8923L11.6248 43.8983L11.8128 44.2883M10.1728 19.1113L10.1758 19.1123C10.8808 19.5753 11.6388 19.9623 12.4348 20.2643C12.7048 20.3663 13.0058 20.3663 13.2758 20.2643H13.2778C14.0748 19.9603 14.8348 19.5743 15.5438 19.1133L15.5478 19.1103C17.0922 18.0668 18.3709 16.6764 19.2818 15.0503C19.6618 14.3883 19.8548 13.6423 19.8398 12.8873C19.8235 12.1282 19.6013 11.3879 19.1968 10.7453C18.8371 10.1571 18.3296 9.67342 17.7248 9.34231C17.1087 9.0038 16.4178 8.82438 15.7148 8.82031H15.7128C15.1362 8.82129 14.566 8.94111 14.0378 9.17231C13.5998 9.36378 13.1995 9.632 12.8558 9.96431C12.5158 9.63431 12.1158 9.36631 11.6738 9.17231C11.1459 8.94125 10.5761 8.82142 9.99981 8.82031H9.99681C9.29382 8.82438 8.60295 9.0038 7.98681 9.34231C7.37681 9.67931 6.86881 10.1623 6.51581 10.7453C6.11097 11.3877 5.88837 12.1281 5.87181 12.8873C5.85776 13.6459 6.05067 14.3941 6.42981 15.0513C7.34148 16.68 8.62415 18.0709 10.1738 19.1113H10.1728ZM10.1728 35.0303L10.1758 35.0313C10.8808 35.4943 11.6388 35.8813 12.4348 36.1833C12.7048 36.2853 13.0058 36.2853 13.2758 36.1833H13.2778C14.0719 35.8811 14.8315 35.4953 15.5438 35.0323L15.5478 35.0293C17.0922 33.9859 18.371 32.5955 19.2818 30.9693C19.6618 30.3073 19.8548 29.5613 19.8398 28.8063C19.8235 28.0472 19.6013 27.3069 19.1968 26.6643C18.8371 26.0761 18.3296 25.5924 17.7248 25.2613C17.1087 24.9228 16.4178 24.7434 15.7148 24.7393H15.7128C15.1362 24.7403 14.566 24.8601 14.0378 25.0913C13.5998 25.2828 13.1995 25.551 12.8558 25.8833C12.5158 25.5533 12.1158 25.2853 11.6738 25.0913C11.1459 24.8603 10.5761 24.7405 9.99981 24.7393H9.99681C9.29382 24.7434 8.60295 24.9228 7.98681 25.2613C7.37681 25.5983 6.86881 26.0813 6.51581 26.6633C6.11079 27.306 5.88818 28.0468 5.87181 28.8063C5.85776 29.5649 6.05067 30.3131 6.42981 30.9703C7.34145 32.599 8.62413 33.99 10.1738 35.0303H10.1728ZM10.1728 50.9483L10.1758 50.9493C10.8808 51.4123 11.6388 51.7993 12.4348 52.1013C12.7048 52.2033 13.0058 52.2033 13.2758 52.1013H13.2778C14.0719 51.7992 14.8315 51.4133 15.5438 50.9503L15.5478 50.9473C17.0922 49.9039 18.371 48.5135 19.2818 46.8873C19.6618 46.2253 19.8548 45.4793 19.8398 44.7243C19.8235 43.9652 19.6013 43.2249 19.1968 42.5823C18.8371 41.9941 18.3296 41.5104 17.7248 41.1793C17.1087 40.8408 16.4178 40.6614 15.7148 40.6573H15.7128C15.1362 40.6583 14.566 40.7781 14.0378 41.0093C13.5997 41.2007 13.1995 41.469 12.8558 41.8013C12.5122 41.469 12.1119 41.2007 11.6738 41.0093C11.1459 40.7782 10.5761 40.6584 9.99981 40.6573H9.99681C9.29382 40.6614 8.60295 40.8408 7.98681 41.1793C7.37681 41.5163 6.86881 41.9993 6.51581 42.5823C6.11097 43.2247 5.88837 43.9651 5.87181 44.7243C5.85794 45.4826 6.05085 46.2304 6.42981 46.8873C7.34145 48.516 8.62413 49.907 10.1738 50.9473L10.1728 50.9483Z" stroke="#213A52" stroke-width="0.5"/>
<path d="M27.5 15.5H50M27.5 30.5H50M27.5 45.5H50" stroke="#213A52" stroke-width="4" stroke-linecap="round" stroke-linejoin="round"/>
</svg>
