<svg width="20" height="20" viewBox="0 0 20 20" fill="none" xmlns="http://www.w3.org/2000/svg">
<g clip-path="url(#clip0_12_19616)">
<path d="M4.94355 4.06806C6.48593 2.73157 8.45914 1.99716 10.5 2.00001C15.1946 2.00001 19 5.80545 19 10.5C19 12.3156 18.4305 13.9986 17.4615 15.379L14.75 10.5H17.3C17.3001 9.16688 16.9084 7.86314 16.1735 6.75087C15.4386 5.63861 14.3929 4.76689 13.1666 4.24411C11.9403 3.72133 10.5873 3.57055 9.27596 3.81052C7.96462 4.05049 6.75274 4.67062 5.791 5.5938L4.94355 4.06806ZM16.0565 16.9319C14.5141 18.2684 12.5409 19.0028 10.5 19C5.80545 19 2 15.1945 2 10.5C2 8.6844 2.5695 7.0014 3.5385 5.621L6.25 10.5H3.7C3.69989 11.8331 4.09164 13.1369 4.82654 14.2491C5.56143 15.3614 6.60706 16.2331 7.8334 16.7559C9.05974 17.2787 10.4127 17.4294 11.724 17.1895C13.0354 16.9495 14.2473 16.3294 15.209 15.4062L16.0565 16.9319Z" fill="#9197A4"/>
</g>
<defs>
<clipPath id="clip0_12_19616">
<rect width="20" height="20" fill="white"/>
</clipPath>
</defs>
</svg>
