<svg width="52" height="42" viewBox="0 0 52 42" fill="none" xmlns="http://www.w3.org/2000/svg">
<circle cx="21" cy="21" r="21" fill="#395A6A"/>
<rect x="32" y="22" width="20" height="20" rx="10" fill="#26DC43"/>
<path d="M40.8749 34.9999C40.7755 34.9985 40.6802 34.9601 40.6077 34.8921L37.9827 32.2671C37.9229 32.1942 37.8923 32.1017 37.8969 32.0075C37.9016 31.9134 37.941 31.8243 38.0077 31.7577C38.0743 31.691 38.1634 31.6516 38.2575 31.6469C38.3517 31.6423 38.4442 31.6729 38.5171 31.7327L40.8749 34.0952L45.8577 29.1077C45.9305 29.0479 46.023 29.0173 46.1172 29.0219C46.2113 29.0266 46.3004 29.066 46.367 29.1327C46.4337 29.1993 46.4732 29.2884 46.4778 29.3825C46.4824 29.4767 46.4518 29.5692 46.3921 29.6421L41.1421 34.8921C41.0696 34.9601 40.9743 34.9985 40.8749 34.9999Z" fill="#E2E7E9"/>
</svg>
