<svg width="260" height="1144" viewBox="0 0 260 1144" fill="none" xmlns="http://www.w3.org/2000/svg">
<g filter="url(#filter0_d_37_42967)">
<rect x="60" y="60" width="140" height="1024" fill="#5914E9"/>
</g>
<path d="M134.758 548.5L124.879 558.379C124.592 558.655 124.364 558.986 124.206 559.352C124.049 559.718 123.966 560.112 123.963 560.51C123.96 560.909 124.035 561.304 124.186 561.672C124.337 562.041 124.56 562.376 124.842 562.658C125.123 562.939 125.458 563.162 125.827 563.313C126.196 563.464 126.591 563.54 126.989 563.536C127.387 563.533 127.781 563.45 128.147 563.293C128.513 563.136 128.844 562.907 129.121 562.621L138.742 552.742C139.835 551.61 140.44 550.094 140.426 548.521C140.412 546.948 139.781 545.443 138.669 544.331C137.556 543.218 136.051 542.587 134.478 542.573C132.905 542.56 131.389 543.165 130.258 544.258L120.635 554.135C118.947 555.823 117.999 558.112 117.999 560.5C117.999 562.887 118.947 565.176 120.635 566.864C122.323 568.552 124.613 569.5 127 569.5C129.387 569.5 131.676 568.552 133.364 566.864L142.75 557.5" stroke="#A780F8" stroke-width="2" stroke-linecap="round" stroke-linejoin="round"/>
<rect x="88" y="187" width="84" height="50" rx="11" fill="white"/>
<path d="M135.742 116.378C134.232 114.847 132.44 113.633 130.467 112.804C128.494 111.975 126.379 111.549 124.244 111.549C122.108 111.549 119.994 111.975 118.021 112.804C116.048 113.633 114.255 114.847 112.745 116.378L124.244 128.037L135.742 116.378Z" fill="#D0BDF7"/>
<path d="M124.258 128.055C125.768 129.586 127.56 130.8 129.533 131.629C131.506 132.457 133.621 132.884 135.756 132.884C137.892 132.884 140.007 132.457 141.98 131.629C143.952 130.8 145.745 129.586 147.255 128.055L135.756 116.396L124.258 128.055Z" fill="white"/>
<path d="M124.23 128.052C122.72 129.583 120.927 130.797 118.954 131.626C116.981 132.454 114.867 132.881 112.731 132.881C110.596 132.881 108.481 132.454 106.508 131.626C104.535 130.797 102.742 129.583 101.232 128.052L112.731 116.393L124.23 128.052Z" fill="white"/>
<path d="M135.771 116.381C137.28 114.85 139.073 113.635 141.046 112.807C143.019 111.978 145.134 111.552 147.269 111.552C149.405 111.552 151.519 111.978 153.492 112.807C155.465 113.635 157.258 114.85 158.768 116.381L147.269 128.04L135.771 116.381Z" fill="#D0BDF7"/>
<path d="M124 298H124.015H124ZM130 298H130.015H130ZM136 298H136.015H136ZM143.5 298C143.5 304.627 137.455 310 130 310C127.793 310.008 125.612 309.521 123.617 308.577L116.5 310L118.592 304.42C117.268 302.563 116.5 300.361 116.5 298C116.5 291.373 122.545 286 130 286C137.455 286 143.5 291.373 143.5 298Z" stroke="#A780F8" stroke-width="2" stroke-linecap="round" stroke-linejoin="round"/>
<path d="M119.5 373.5C119.5 372.704 119.816 371.941 120.379 371.379C120.941 370.816 121.704 370.5 122.5 370.5H137.5C138.296 370.5 139.059 370.816 139.621 371.379C140.184 371.941 140.5 372.704 140.5 373.5V397.5L130 392.25L119.5 397.5V373.5Z" stroke="#A780F8" stroke-width="2" stroke-linecap="round" stroke-linejoin="round"/>
<path d="M136 462.5C136 464.091 135.368 465.617 134.243 466.743C133.117 467.868 131.591 468.5 130 468.5C128.409 468.5 126.883 467.868 125.757 466.743C124.632 465.617 124 464.091 124 462.5C124 460.909 124.632 459.383 125.757 458.257C126.883 457.132 128.409 456.5 130 456.5C131.591 456.5 133.117 457.132 134.243 458.257C135.368 459.383 136 460.909 136 462.5V462.5ZM130 473C127.215 473 124.545 474.106 122.575 476.075C120.606 478.045 119.5 480.715 119.5 483.5H140.5C140.5 480.715 139.394 478.045 137.425 476.075C135.455 474.106 132.785 473 130 473V473Z" stroke="#A780F8" stroke-width="2" stroke-linecap="round" stroke-linejoin="round"/>
<path d="M131.5 1011V1012.5C131.5 1013.69 131.026 1014.84 130.182 1015.68C129.338 1016.53 128.193 1017 127 1017H121C119.807 1017 118.662 1016.53 117.818 1015.68C116.974 1014.84 116.5 1013.69 116.5 1012.5V997.5C116.5 996.307 116.974 995.162 117.818 994.318C118.662 993.474 119.807 993 121 993H127C128.193 993 129.338 993.474 130.182 994.318C131.026 995.162 131.5 996.307 131.5 997.5V999M137.5 1011L143.5 1005L137.5 1011ZM143.5 1005L137.5 999L143.5 1005ZM143.5 1005H122.5H143.5Z" stroke="#FFBCBC" stroke-width="2" stroke-linecap="round" stroke-linejoin="round"/>
<path d="M118 203C118 202.204 118.316 201.441 118.879 200.879C119.441 200.316 120.204 200 121 200H124C124.796 200 125.559 200.316 126.121 200.879C126.684 201.441 127 202.204 127 203V206C127 206.796 126.684 207.559 126.121 208.121C125.559 208.684 124.796 209 124 209H121C120.204 209 119.441 208.684 118.879 208.121C118.316 207.559 118 206.796 118 206V203ZM133 203C133 202.204 133.316 201.441 133.879 200.879C134.441 200.316 135.204 200 136 200H139C139.796 200 140.559 200.316 141.121 200.879C141.684 201.441 142 202.204 142 203V206C142 206.796 141.684 207.559 141.121 208.121C140.559 208.684 139.796 209 139 209H136C135.204 209 134.441 208.684 133.879 208.121C133.316 207.559 133 206.796 133 206V203ZM118 218C118 217.204 118.316 216.441 118.879 215.879C119.441 215.316 120.204 215 121 215H124C124.796 215 125.559 215.316 126.121 215.879C126.684 216.441 127 217.204 127 218V221C127 221.796 126.684 222.559 126.121 223.121C125.559 223.684 124.796 224 124 224H121C120.204 224 119.441 223.684 118.879 223.121C118.316 222.559 118 221.796 118 221V218ZM133 218C133 217.204 133.316 216.441 133.879 215.879C134.441 215.316 135.204 215 136 215H139C139.796 215 140.559 215.316 141.121 215.879C141.684 216.441 142 217.204 142 218V221C142 221.796 141.684 222.559 141.121 223.121C140.559 223.684 139.796 224 139 224H136C135.204 224 134.441 223.684 133.879 223.121C133.316 222.559 133 221.796 133 221V218Z" stroke="#5914E9" stroke-width="2" stroke-linecap="round" stroke-linejoin="round"/>
<defs>
<filter id="filter0_d_37_42967" x="0" y="0" width="260" height="1144" filterUnits="userSpaceOnUse" color-interpolation-filters="sRGB">
<feFlood flood-opacity="0" result="BackgroundImageFix"/>
<feColorMatrix in="SourceAlpha" type="matrix" values="0 0 0 0 0 0 0 0 0 0 0 0 0 0 0 0 0 0 127 0" result="hardAlpha"/>
<feOffset/>
<feGaussianBlur stdDeviation="30"/>
<feComposite in2="hardAlpha" operator="out"/>
<feColorMatrix type="matrix" values="0 0 0 0 0.333333 0 0 0 0 0.333333 0 0 0 0 0.333333 0 0 0 0.05 0"/>
<feBlend mode="normal" in2="BackgroundImageFix" result="effect1_dropShadow_37_42967"/>
<feBlend mode="normal" in="SourceGraphic" in2="effect1_dropShadow_37_42967" result="shape"/>
</filter>
</defs>
</svg>
