<svg width="24" height="24" viewBox="0 0 24 24" fill="none" xmlns="http://www.w3.org/2000/svg">
<path d="M16 11.0009H13V5.41087L13.79 6.21087C13.883 6.3046 13.9936 6.379 14.1154 6.42976C14.2373 6.48053 14.368 6.50667 14.5 6.50667C14.632 6.50667 14.7627 6.48053 14.8846 6.42976C15.0064 6.379 15.117 6.3046 15.21 6.21087C15.3037 6.11791 15.3781 6.00731 15.4289 5.88545C15.4797 5.76359 15.5058 5.63288 15.5058 5.50087C15.5058 5.36886 15.4797 5.23816 15.4289 5.1163C15.3781 4.99444 15.3037 4.88384 15.21 4.79087L12.71 2.29087C12.6149 2.19983 12.5028 2.12847 12.38 2.08087C12.1365 1.98085 11.8635 1.98085 11.62 2.08087C11.4972 2.12847 11.3851 2.19983 11.29 2.29087L8.79 4.79087C8.6017 4.97918 8.49591 5.23457 8.49591 5.50087C8.49591 5.76717 8.6017 6.02257 8.79 6.21087C8.9783 6.39918 9.2337 6.50496 9.5 6.50496C9.7663 6.50496 10.0217 6.39918 10.21 6.21087L11 5.41087V11.0009H8C7.73478 11.0009 7.48043 11.1062 7.29289 11.2938C7.10536 11.4813 7 11.7357 7 12.0009C7 12.2661 7.10536 12.5204 7.29289 12.708C7.48043 12.8955 7.73478 13.0009 8 13.0009H11V18.5909L10.21 17.7909C10.1168 17.6976 10.0061 17.6237 9.88425 17.5732C9.76243 17.5228 9.63186 17.4968 9.5 17.4968C9.36814 17.4968 9.23757 17.5228 9.11575 17.5732C8.99393 17.6237 8.88324 17.6976 8.79 17.7909C8.69676 17.8841 8.6228 17.9948 8.57234 18.1166C8.52188 18.2384 8.49591 18.369 8.49591 18.5009C8.49591 18.6327 8.52188 18.7633 8.57234 18.8851C8.6228 19.0069 8.69676 19.1176 8.79 19.2109L11.29 21.7109C11.3851 21.8019 11.4972 21.8733 11.62 21.9209C11.7397 21.9738 11.8691 22.0011 12 22.0011C12.1309 22.0011 12.2603 21.9738 12.38 21.9209C12.5028 21.8733 12.6149 21.8019 12.71 21.7109L15.21 19.2109C15.3983 19.0226 15.5041 18.7672 15.5041 18.5009C15.5041 18.2346 15.3983 17.9792 15.21 17.7909C15.0217 17.6026 14.7663 17.4968 14.5 17.4968C14.2337 17.4968 13.9783 17.6026 13.79 17.7909L13 18.5909V13.0009H16C16.2652 13.0009 16.5196 12.8955 16.7071 12.708C16.8946 12.5204 17 12.2661 17 12.0009C17 11.7357 16.8946 11.4813 16.7071 11.2938C16.5196 11.1062 16.2652 11.0009 16 11.0009Z" fill="#C5D0E6"/>
</svg>
