<svg width="8" height="14" viewBox="0 0 8 14" fill="none" xmlns="http://www.w3.org/2000/svg">
<path d="M0.641429 -0.000100278C0.810541 0.00219735 0.972685 0.0676243 1.09603 0.183336L7.47644 6.56374C7.59625 6.68471 7.66346 6.84808 7.66346 7.01834C7.66346 7.1886 7.59625 7.35198 7.47644 7.47295L1.09603 13.8533C0.972064 13.9551 0.814684 14.0071 0.654502 13.9992C0.494321 13.9914 0.342791 13.9242 0.229389 13.8108C0.115988 13.6974 0.0488203 13.5459 0.0409533 13.3857C0.0330859 13.2255 0.0850819 13.0681 0.186826 12.9441L6.1206 7.01834L0.186826 1.09254C0.0670139 0.971575 -0.000199582 0.808199 -0.000199582 0.63794C-0.000199582 0.467681 0.0670139 0.304305 0.186826 0.183336C0.310173 0.0676243 0.472318 0.00219735 0.641429 -0.000100278Z" fill="white"/>
</svg>
