<svg width="34" height="34" viewBox="0 0 34 34" fill="none" xmlns="http://www.w3.org/2000/svg">
<path d="M0.00134756 15.1976V4.99838C0.00134756 4.54754 0.18044 4.11518 0.499226 3.79639C0.818012 3.47761 1.25038 3.29852 1.70121 3.29852H28.2021L27.7091 2.80555C27.4306 2.48037 27.2852 2.06207 27.3017 1.63426C27.3182 1.20644 27.4956 0.800617 27.7983 0.497879C28.101 0.195143 28.5068 0.0177924 28.9347 0.00126773C29.3624 -0.015257 29.7807 0.130262 30.106 0.408745L33.5056 3.80848C33.8222 4.12697 34 4.5578 34 5.00688C34 5.45596 33.8222 5.88679 33.5056 6.20529L30.106 9.60501C29.7807 9.88349 29.3624 10.029 28.9347 10.0125C28.5068 9.99597 28.101 9.81861 27.7983 9.51587C27.4956 9.21314 27.3182 8.80731 27.3017 8.3795C27.2852 7.95168 27.4306 7.53339 27.7091 7.2082L28.2021 6.69824H3.40107V15.1976C3.40107 15.6484 3.22198 16.0807 2.9032 16.3996C2.58441 16.7183 2.15205 16.8974 1.70121 16.8974C1.25038 16.8974 0.818012 16.7183 0.499226 16.3996C0.18044 16.0807 0.00134756 15.6484 0.00134756 15.1976ZM32.2988 16.8974C31.848 16.8974 31.4155 17.0765 31.0968 17.3953C30.778 17.714 30.5989 18.1465 30.5989 18.5973V27.0966H5.79788L6.29085 26.6037C6.56933 26.2785 6.71485 25.8601 6.69832 25.4324C6.68179 25.0045 6.50445 24.5987 6.20171 24.296C5.89897 23.9933 5.49315 23.8159 5.06533 23.7994C4.63752 23.7829 4.21922 23.9284 3.89404 24.2068L0.494308 27.6065C0.177707 27.9251 0 28.3559 0 28.8049C0 29.254 0.177707 29.6849 0.494308 30.0033L3.89404 33.4031C4.21922 33.6816 4.63752 33.8271 5.06533 33.8106C5.49315 33.7941 5.89897 33.6167 6.20171 33.314C6.50445 33.0112 6.68179 32.6054 6.69832 32.1776C6.71485 31.7498 6.56933 31.3315 6.29085 31.0063L5.79788 30.4964H32.2988C32.7496 30.4964 33.1819 30.3173 33.5008 29.9985C33.8196 29.6796 33.9987 29.2473 33.9987 28.7965V18.5973C33.9987 18.1465 33.8196 17.714 33.5008 17.3953C33.1819 17.0765 32.7496 16.8974 32.2988 16.8974Z" fill="white"/>
</svg>
