<svg width="95" height="117" viewBox="0 0 95 117" fill="none" xmlns="http://www.w3.org/2000/svg">
<path d="M23.9263 9.04627e-10L4.25613 1.60919e-10C1.91526 0 0 1.45632 2.1203e-10 3.22658L1.19195e-09 18.1386C1.30857e-09 19.9132 1.92101 21.3652 4.25613 21.3652L23.9263 21.3652C26.2672 21.3652 28.1825 19.9089 28.1825 18.1386L28.1825 3.22658C28.1825 1.45632 26.2614 9.92916e-10 23.9263 9.04627e-10Z" fill="#6255FC"/>
<path d="M83.9698 113.695L83.9698 116.895L81.7489 116.895L81.7489 107.321L85.1263 107.321C85.8009 107.321 86.3791 107.402 86.861 107.564C87.3472 107.722 87.7458 107.941 88.0569 108.221C88.3723 108.502 88.6044 108.832 88.7534 109.214C88.9023 109.595 88.9768 110.006 88.9768 110.449C88.9768 110.926 88.9001 111.364 88.7468 111.763C88.5935 112.162 88.3591 112.503 88.0437 112.788C87.7283 113.073 87.3275 113.296 86.8413 113.458C86.3594 113.616 85.7878 113.695 85.1263 113.695L83.9698 113.695ZM83.9698 112.019L85.1263 112.019C85.7045 112.019 86.1207 111.881 86.3747 111.605C86.6288 111.329 86.7558 110.944 86.7558 110.449C86.7558 110.23 86.723 110.03 86.6573 109.851C86.5916 109.671 86.4908 109.518 86.355 109.391C86.2236 109.26 86.055 109.159 85.8491 109.089C85.6476 109.019 85.4066 108.984 85.1263 108.984L83.9698 108.984L83.9698 112.019Z" fill="#282C38"/>
<path d="M94.2951 111.572C94.2425 111.656 94.1856 111.715 94.1242 111.75C94.0673 111.785 93.9928 111.802 93.9008 111.802C93.8045 111.802 93.7081 111.783 93.6117 111.743C93.5154 111.699 93.4102 111.653 93.2963 111.605C93.1868 111.557 93.062 111.513 92.9218 111.474C92.7816 111.43 92.6217 111.408 92.4421 111.408C92.1837 111.408 91.9844 111.459 91.8442 111.559C91.7084 111.656 91.6405 111.791 91.6405 111.967C91.6405 112.094 91.6843 112.199 91.7719 112.282C91.8639 112.365 91.9844 112.44 92.1333 112.505C92.2822 112.567 92.4509 112.626 92.6393 112.683C92.8276 112.74 93.0204 112.803 93.2175 112.873C93.4146 112.944 93.6073 113.027 93.7957 113.123C93.9841 113.215 94.1527 113.331 94.3017 113.471C94.4506 113.607 94.5689 113.774 94.6565 113.971C94.7485 114.168 94.7945 114.404 94.7945 114.68C94.7945 115.018 94.7331 115.329 94.6105 115.613C94.4878 115.898 94.3038 116.144 94.0585 116.349C93.8176 116.555 93.5175 116.715 93.1583 116.829C92.8035 116.943 92.3939 117 91.9296 117C91.6974 117 91.4653 116.978 91.2331 116.934C91.0009 116.89 90.7753 116.831 90.5563 116.757C90.3417 116.682 90.1424 116.595 89.9584 116.494C89.7744 116.389 89.6167 116.277 89.4853 116.159L89.9584 115.41C90.0153 115.322 90.0832 115.254 90.1621 115.206C90.2409 115.154 90.3439 115.127 90.4709 115.127C90.5892 115.127 90.6943 115.154 90.7863 115.206C90.8827 115.259 90.9856 115.316 91.0951 115.377C91.2046 115.438 91.3317 115.495 91.4762 115.548C91.6252 115.6 91.8113 115.627 92.0347 115.627C92.1924 115.627 92.326 115.611 92.4356 115.581C92.5451 115.546 92.6327 115.5 92.6984 115.443C92.7641 115.386 92.8123 115.322 92.8429 115.252C92.8736 115.182 92.8889 115.11 92.8889 115.035C92.8889 114.899 92.8429 114.788 92.751 114.7C92.659 114.613 92.5385 114.538 92.3896 114.477C92.2406 114.411 92.0698 114.352 91.877 114.299C91.6887 114.242 91.4959 114.179 91.2988 114.109C91.1017 114.039 90.9068 113.955 90.714 113.859C90.5257 113.758 90.357 113.633 90.2081 113.485C90.0591 113.331 89.9387 113.145 89.8467 112.926C89.7547 112.707 89.7087 112.442 89.7087 112.131C89.7087 111.842 89.7634 111.568 89.873 111.31C89.9869 111.047 90.1555 110.817 90.3789 110.62C90.6023 110.423 90.8827 110.267 91.22 110.153C91.5573 110.035 91.9515 109.976 92.4027 109.976C92.648 109.976 92.8846 109.998 93.1123 110.041C93.3445 110.085 93.5613 110.147 93.7629 110.225C93.9644 110.304 94.1483 110.398 94.3148 110.508C94.4813 110.613 94.628 110.729 94.755 110.856L94.2951 111.572Z" fill="#282C38"/>
</svg>
