<svg width="19" height="19" viewBox="0 0 19 19" fill="none" xmlns="http://www.w3.org/2000/svg">
<path d="M8.76793 13.4215C8.76793 13.8547 9.11913 14.2059 9.55235 14.2059C9.98556 14.2059 10.3368 13.8547 10.3368 13.4215H8.76793ZM10.3368 9.06362C10.3368 8.6304 9.98556 8.27921 9.55235 8.27921C9.11913 8.27921 8.76793 8.6304 8.76793 9.06362H10.3368ZM10.3368 13.4215V9.06362H8.76793V13.4215H10.3368Z" fill="#93989A"/>
<path d="M11.679 12.0276C12.1122 12.0276 12.4634 11.6764 12.4634 11.2432C12.4634 10.81 12.1122 10.4588 11.679 10.4588V12.0276ZM7.32117 10.4588C6.88795 10.4588 6.53676 10.81 6.53676 11.2432C6.53676 11.6764 6.88795 12.0276 7.32117 12.0276V10.4588ZM11.679 10.4588H7.32117V12.0276H11.679V10.4588Z" fill="#93989A"/>
<path d="M8.54136 1.83029L7.91384 2.30094L8.54136 1.83029ZM9.84872 3.57343L9.22117 4.04409L9.22419 4.04806L9.84872 3.57343ZM17.4314 8.62852V13.8579H19.0002V8.62852H17.4314ZM17.4314 13.8579C17.4314 15.6066 17.1938 16.3853 16.7895 16.7895C16.3853 17.1938 15.6066 17.4314 13.8579 17.4314V19.0002C15.5954 19.0002 16.9958 18.802 17.8989 17.8989C18.802 16.9958 19.0002 15.5954 19.0002 13.8579H17.4314ZM13.8579 17.4314H5.14225V19.0002H13.8579V17.4314ZM5.14225 17.4314C3.39351 17.4314 2.61487 17.1938 2.21064 16.7895C1.80641 16.3853 1.56882 15.6066 1.56882 13.8579H0C0 15.5954 0.198192 16.9958 1.10132 17.8989C2.00444 18.802 3.40472 19.0002 5.14225 19.0002V17.4314ZM1.56882 13.8579V5.14225H0V13.8579H1.56882ZM1.56882 5.14225C1.56882 3.39351 1.80641 2.61487 2.21064 2.21064C2.61487 1.80641 3.39351 1.56882 5.14225 1.56882V0C3.40472 0 2.00444 0.198192 1.10132 1.10132C0.198192 2.00444 0 3.40472 0 5.14225H1.56882ZM5.14225 1.56882H6.4496V0H5.14225V1.56882ZM6.4496 1.56882C7.03537 1.56882 7.27108 1.65662 7.3955 1.73136C7.53849 1.81726 7.64672 1.94478 7.91384 2.30094L9.16889 1.35965C8.93922 1.05341 8.65523 0.65799 8.20338 0.386545C7.73296 0.10395 7.17118 0 6.4496 0V1.56882ZM7.91384 2.30094L9.22119 4.04408L10.4762 3.10278L9.16889 1.35965L7.91384 2.30094ZM9.22419 4.04806C9.36888 4.23843 9.58767 4.54531 9.93758 4.75679C10.3081 4.9807 10.7366 5.05509 11.2432 5.05509V3.48627C10.8782 3.48627 10.7752 3.42991 10.7491 3.41415C10.7024 3.38596 10.6597 3.3442 10.4732 3.09879L9.22419 4.04806ZM11.2432 5.05509H13.8579V3.48627H11.2432V5.05509ZM13.8579 5.05509C15.6066 5.05509 16.3853 5.29268 16.7895 5.69691C17.1938 6.10114 17.4314 6.87977 17.4314 8.62852H19.0002C19.0002 6.89099 18.802 5.49071 17.8989 4.58759C16.9958 3.68446 15.5954 3.48627 13.8579 3.48627V5.05509Z" fill="#93989A"/>
</svg>
