<svg width="20" height="20" viewBox="0 0 20 20" fill="none" xmlns="http://www.w3.org/2000/svg">
<path d="M2.50033 13.3333C2.04009 13.3333 1.66699 13.7064 1.66699 14.1667C1.66699 14.6269 2.04009 15 2.50033 15V13.3333ZM8.74149 12.656C9.00533 12.2789 8.91349 11.7593 8.53633 11.4955C8.15925 11.2317 7.63967 11.3235 7.37584 11.7007L8.74149 12.656ZM10.425 7.34606C10.1618 7.72366 10.2547 8.24308 10.6322 8.50617C11.0098 8.76933 11.5292 8.6765 11.7923 8.29894L10.425 7.34606ZM11.2562 7.61083L10.5734 7.133L10.5725 7.13439L11.2562 7.61083ZM17.5003 6.66667C17.9606 6.66667 18.3337 6.29357 18.3337 5.83333C18.3337 5.3731 17.9606 5 17.5003 5V6.66667ZM2.50033 15H4.49783V13.3333H2.50033V15ZM4.49783 15C6.12939 14.9999 7.65834 14.2037 8.59391 12.867L7.22843 11.9113C6.60473 12.8025 5.58554 13.3333 4.49783 13.3333V15ZM8.59391 12.867L8.74149 12.656L7.37584 11.7007L7.22843 11.9113L8.59391 12.867ZM11.7923 8.29894L11.9398 8.08728L10.5725 7.13439L10.425 7.34606L11.7923 8.29894ZM11.9389 8.08867C12.5626 7.19753 13.5818 6.66675 14.6696 6.66667L14.6695 5C13.0379 5.00013 11.509 5.79629 10.5734 7.133L11.9389 8.08867ZM14.6696 6.66667H17.5003V5H14.6695L14.6696 6.66667Z" fill="#0F5C82"/>
<path d="M15 3.33398L17.5 5.83398L15 8.33398" stroke="#0F5C82" stroke-width="1.66667" stroke-linecap="round" stroke-linejoin="round"/>
<path d="M2.5 5.83398H4.4975C5.85714 5.83408 7.13122 6.49756 7.91083 7.61148L11.2558 12.3898C12.0354 13.5037 13.3095 14.1672 14.6692 14.1673H17.5" stroke="#0F5C82" stroke-width="1.66667" stroke-linecap="round" stroke-linejoin="round"/>
<path d="M15 16.668L17.5 14.168L15 11.668" stroke="#0F5C82" stroke-width="1.66667" stroke-linecap="round" stroke-linejoin="round"/>
</svg>
