<svg width="126" height="32" viewBox="0 0 126 32" fill="none" xmlns="http://www.w3.org/2000/svg">
<path d="M10 11.5058C10 10.3651 11.1912 9.6401 12.1691 10.1847L20.2338 14.6791C21.2554 15.2491 21.2554 16.7513 20.2338 17.3206L12.1691 21.815C11.1912 22.3603 10 21.6346 10 20.4946V11.5058Z" fill="#CCCCCC"/>
<path d="M10 11.5058C10 10.3651 11.1912 9.6401 12.1691 10.1847L20.2338 14.6791C21.2554 15.2491 21.2554 16.7513 20.2338 17.3206L12.1691 21.815C11.1912 22.3603 10 21.6346 10 20.4946V11.5058Z" fill="#EBB000"/>
<rect x="0.5" y="0.5" width="30" height="31" rx="15" stroke="#CCCCCC"/>
<rect x="0.5" y="0.5" width="30" height="31" rx="15" stroke="#EBB000" stroke-opacity="0.32"/>
<path d="M68.7097 12.2542C68.5235 11.8131 68.255 11.4134 67.9193 11.0774C67.5833 10.7404 67.1872 10.4726 66.7525 10.2885C66.3017 10.0969 65.8182 9.99886 65.3301 10C64.6453 10 63.9772 10.1919 63.3966 10.5543C63.2577 10.641 63.1257 10.7363 63.0007 10.84C62.8757 10.7363 62.7437 10.641 62.6048 10.5543C62.0242 10.1919 61.3561 10 60.6713 10C60.1781 10 59.7003 10.0967 59.2489 10.2885C58.8127 10.4733 58.4196 10.7391 58.0821 11.0774C57.7459 11.413 57.4774 11.8128 57.2917 12.2542C57.0986 12.7133 57 13.2008 57 13.7026C57 14.1759 57.0945 14.6691 57.282 15.1708C57.4389 15.5901 57.664 16.025 57.9515 16.4642C58.4071 17.1592 59.0336 17.8841 59.8114 18.6189C61.1005 19.837 62.377 20.6784 62.4312 20.7125L62.7604 20.9286C62.9062 21.0238 63.0938 21.0238 63.2396 20.9286L63.5688 20.7125C63.623 20.677 64.8981 19.837 66.1886 18.6189C66.9664 17.8841 67.5929 17.1592 68.0485 16.4642C68.336 16.025 68.5624 15.5901 68.718 15.1708C68.9055 14.6691 69 14.1759 69 13.7026C69.0014 13.2008 68.9028 12.7133 68.7097 12.2542Z" fill="#D4D5D8"/>
<path d="M68.7097 12.2542C68.5235 11.8131 68.255 11.4134 67.9193 11.0774C67.5833 10.7404 67.1872 10.4726 66.7525 10.2885C66.3017 10.0969 65.8182 9.99886 65.3301 10C64.6453 10 63.9772 10.1919 63.3966 10.5543C63.2577 10.641 63.1257 10.7363 63.0007 10.84C62.8757 10.7363 62.7437 10.641 62.6048 10.5543C62.0242 10.1919 61.3561 10 60.6713 10C60.1781 10 59.7003 10.0967 59.2489 10.2885C58.8127 10.4733 58.4196 10.7391 58.0821 11.0774C57.7459 11.413 57.4774 11.8128 57.2917 12.2542C57.0986 12.7133 57 13.2008 57 13.7026C57 14.1759 57.0945 14.6691 57.282 15.1708C57.4389 15.5901 57.664 16.025 57.9515 16.4642C58.4071 17.1592 59.0336 17.8841 59.8114 18.6189C61.1005 19.837 62.377 20.6784 62.4312 20.7125L62.7604 20.9286C62.9062 21.0238 63.0938 21.0238 63.2396 20.9286L63.5688 20.7125C63.623 20.677 64.8981 19.837 66.1886 18.6189C66.9664 17.8841 67.5929 17.1592 68.0485 16.4642C68.336 16.025 68.5624 15.5901 68.718 15.1708C68.9055 14.6691 69 14.1759 69 13.7026C69.0014 13.2008 68.9028 12.7133 68.7097 12.2542Z" fill="#EBB000"/>
<rect x="47.5" y="0.5" width="31" height="30" rx="15" stroke="#CCCCCC"/>
<rect x="47.5" y="0.5" width="31" height="30" rx="15" stroke="#EBB000" stroke-opacity="0.32"/>
<path d="M113.643 17.5C113.088 17.5 112.578 17.6833 112.175 17.9897L109.658 16.4885C109.733 16.1667 109.733 15.8333 109.658 15.5115L112.175 14.0103C112.578 14.3167 113.088 14.5 113.643 14.5C114.945 14.5 116 13.4926 116 12.25C116 11.0074 114.945 10 113.643 10C112.341 10 111.286 11.0074 111.286 12.25C111.286 12.4178 111.305 12.5812 111.342 12.7385L108.825 14.2397C108.422 13.9333 107.912 13.75 107.357 13.75C106.055 13.75 105 14.7574 105 16C105 17.2426 106.055 18.25 107.357 18.25C107.912 18.25 108.422 18.0667 108.825 17.7603L111.342 19.2615C111.304 19.4219 111.286 19.5857 111.286 19.75C111.286 20.9926 112.341 22 113.643 22C114.945 22 116 20.9926 116 19.75C116 18.5074 114.945 17.5 113.643 17.5Z" fill="#D4D5D8"/>
<path d="M113.643 17.5C113.088 17.5 112.578 17.6833 112.175 17.9897L109.658 16.4885C109.733 16.1667 109.733 15.8333 109.658 15.5115L112.175 14.0103C112.578 14.3167 113.088 14.5 113.643 14.5C114.945 14.5 116 13.4926 116 12.25C116 11.0074 114.945 10 113.643 10C112.341 10 111.286 11.0074 111.286 12.25C111.286 12.4178 111.305 12.5812 111.342 12.7385L108.825 14.2397C108.422 13.9333 107.912 13.75 107.357 13.75C106.055 13.75 105 14.7574 105 16C105 17.2426 106.055 18.25 107.357 18.25C107.912 18.25 108.422 18.0667 108.825 17.7603L111.342 19.2615C111.304 19.4219 111.286 19.5857 111.286 19.75C111.286 20.9926 112.341 22 113.643 22C114.945 22 116 20.9926 116 19.75C116 18.5074 114.945 17.5 113.643 17.5Z" fill="#EBB000"/>
<rect x="95.5" y="0.5" width="30" height="31" rx="15" stroke="#CCCCCC"/>
<rect x="95.5" y="0.5" width="30" height="31" rx="15" stroke="#EBB000" stroke-opacity="0.32"/>
</svg>
