<svg width="30" height="30" viewBox="0 0 30 30" fill="none" xmlns="http://www.w3.org/2000/svg">
<g clip-path="url(#clip0_52_67189)">
<path d="M3.37555 14.25C3.37555 14.25 -0.0931953 11.3438 2.25055 6.46875L5.71931 8.34375L3.37555 14.25ZM17.8131 5.53125C17.8131 5.53125 17.0631 10.5 21.2818 12.6562C25.5006 14.8125 24.2818 19.9688 23.5318 24.5625C23.5318 24.5625 34.7818 14.5312 24.7506 3.84375C24.7506 3.84375 17.9068 4.5 17.8131 5.53125Z" fill="#993A6E"/>
<path d="M2.53171 10.2196C2.53171 10.2196 1.96921 25.4071 9.18796 28.4071C16.7817 31.5946 24.563 29.7196 27.4692 12.0009C27.4692 12.0009 25.7817 4.40711 16.9692 4.50086C8.53171 4.68836 2.43796 8.71961 2.53171 10.2196Z" fill="#BC7458"/>
<path d="M3.18683 10.5947C3.18683 10.5947 2.71808 24.6572 9.37433 27.4697C16.4056 30.3759 23.6243 28.6884 26.2493 12.2822C26.2493 12.2822 24.6556 5.25093 16.4993 5.34468C8.81183 5.34468 3.09308 9.18843 3.18683 10.5947Z" fill="#E5A98C"/>
<path d="M3.37509 11.25C3.37509 11.25 2.90634 24 9.18759 26.4375C15.6563 29.0625 22.4063 27.4688 24.8438 12.75C24.8438 12.75 23.3438 6.46875 15.8438 6.46875C8.62509 6.5625 3.37509 9.9375 3.37509 11.25Z" fill="#E8CCAA"/>
<path d="M3.56168 12.0929C3.56168 12.0929 3.18668 23.9992 8.90543 26.3429C14.9054 28.7804 20.9992 27.2804 23.2492 13.4992C23.2492 13.4992 21.9367 7.5929 14.9992 7.68665C8.34293 7.68665 3.56168 10.8742 3.56168 12.0929Z" fill="#FAEACF"/>
<path d="M2.625 10.5943C2.625 10.5943 4.21875 13.2193 8.0625 12.2818C12 11.4381 21.9375 4.31305 21.9375 4.31305C21.9375 4.31305 17.4375 0.56305 9.28125 3.0943C5.0625 4.4068 2.8125 9.4693 2.625 10.5943Z" fill="#993A6E"/>
<path d="M9.46912 5.81299C8.34412 6.65674 7.03162 9.56299 5.71912 10.8755C4.50037 12.188 2.34412 11.438 2.15662 9.65674C1.87537 7.78174 0.187872 4.78174 2.62537 0.0942383C2.62537 0.0942383 6.93787 -0.655762 9.84412 3.00049C10.5941 3.84424 10.4066 5.15674 9.46912 5.81299ZM20.5316 6.46924C21.7504 7.12549 23.4379 8.25049 24.9379 9.37549C26.2504 10.5005 28.3129 9.56299 28.4066 7.78174C28.4066 5.81299 28.0316 3.18799 26.7191 -0.0932617C26.7191 -0.0932617 22.4066 -0.374512 19.8754 3.56299C19.2191 4.68799 19.5004 5.90674 20.5316 6.46924Z" fill="#D8649E"/>
<path d="M3.28125 11.2501C3.28125 11.2501 4.875 13.8751 8.71875 12.9376C12.6562 12.0938 22.5938 4.96883 22.5938 4.96883C22.5938 4.96883 18 1.31257 9.9375 3.84382C5.625 5.15633 3.375 10.2188 3.28125 11.2501Z" fill="#D8649E"/>
<path d="M16.8758 5.25107C16.8758 5.25107 16.1258 10.2198 20.3446 12.3761C24.5633 14.5323 24.5633 19.2198 23.7196 23.8136C23.7196 23.8136 32.7196 12.9386 23.7196 3.65732C23.7196 3.56357 16.9696 4.21982 16.8758 5.25107Z" fill="#D8649E"/>
<path d="M21.2819 6.09425L24.5632 8.2505C25.5944 9.09425 27.0944 8.34425 27.0944 7.03175C27.0944 5.6255 26.8132 3.65675 25.7819 1.1255C25.7819 1.1255 22.5007 0.937996 20.7194 3.84425C20.2507 4.688 20.5319 5.6255 21.2819 6.09425Z" fill="#FFD4F7"/>
<path d="M21.4681 6.56271C22.1243 6.93771 23.0618 7.59396 23.8118 8.25021C24.5618 8.90646 25.5931 8.34396 25.5931 7.40646C25.5931 6.37521 25.4056 4.87521 24.6556 3.09396C24.6556 3.09396 22.4056 2.90646 21.0931 5.06271C20.8118 5.53146 20.9993 6.18771 21.4681 6.56271Z" fill="#BF6A93"/>
<path d="M8.5319 5.53109C7.68815 6.09359 6.56315 7.03109 5.62565 7.96859C4.7819 8.90609 3.18815 8.43734 3.0944 7.12484C2.9069 5.81234 2.9069 3.84359 3.6569 1.40609C3.6569 1.40609 6.75065 0.843594 8.81315 3.46859C9.37565 4.12484 9.18815 5.06234 8.5319 5.53109Z" fill="#FFD4F7"/>
<path d="M8.4375 6.00085L6.28125 7.87585C5.625 8.62585 4.5 8.1571 4.40625 7.2196C4.40625 6.18835 4.40625 4.7821 4.96875 2.9071C4.96875 2.9071 7.21875 2.43835 8.71875 4.50085C9.09375 4.87585 9 5.62585 8.4375 6.00085Z" fill="#BF6A93"/>
<path d="M6.1875 10.5938C6.75 10.3125 7.5 10.2188 8.34375 10.2188C10.0312 10.3125 11.4375 11.5312 11.25 13.0312L10.875 15.5625C10.5938 16.7813 9.46875 17.625 8.0625 17.7188H7.96875C6.5625 17.8125 5.25 16.875 4.875 15.6563C4.6875 14.9063 4.5 13.9688 4.5 13.0312C4.5 12 5.15625 11.0625 6.1875 10.5938Z" fill="#3C505B"/>
<path d="M6.28125 11.3438C6.84375 11.0625 7.5 10.875 8.34375 10.875C10.0312 10.9688 11.25 12.375 11.1562 13.9687L10.7812 16.7812C10.5 18.0937 9.46875 19.125 8.15625 19.2188H8.0625C6.65625 19.3125 5.34375 18.375 5.0625 16.9688C4.875 16.125 4.6875 15.0937 4.6875 14.0625C4.6875 12.9375 5.34375 11.9062 6.28125 11.3438Z" fill="white"/>
<path d="M10.4996 14.1556C10.0309 12.4681 8.81211 11.5306 7.68711 11.9993C6.46836 12.4681 5.62461 14.4368 5.90586 16.4056C6.18711 18.6556 7.68711 19.8743 9.09336 19.0306C10.4059 18.1868 10.9684 15.9368 10.4996 14.1556Z" fill="#D8649E"/>
<path d="M9.93679 13.7814C9.56179 12.5627 8.62429 11.9064 7.78054 12.1877C6.84304 12.5627 6.18679 13.9689 6.46804 15.3752C6.74929 16.9689 7.87428 17.9064 8.90553 17.2502C9.93678 16.7814 10.3118 15.0939 9.93679 13.7814Z" fill="#3C505B"/>
<path d="M8.62579 14.2493C8.43829 13.6868 7.96954 13.4055 7.50079 13.593C7.03204 13.7805 6.65704 14.343 6.75079 14.9993C6.84454 15.6555 7.50079 16.0305 8.06329 15.843C8.62579 15.468 8.90704 14.8118 8.62579 14.2493Z" fill="white"/>
<path d="M20.7188 11.8121C20.1563 11.5308 19.5 11.2496 18.6562 11.2496C16.9687 11.1558 15.5625 12.2808 15.4688 13.7808L15.5625 16.3121C15.75 17.5308 16.7812 18.4683 18.0937 18.6558H18.1875C19.6875 18.8433 21.0937 18.0933 21.4687 16.8746C21.75 16.1246 21.9375 15.2808 22.125 14.3433C22.2188 13.3121 21.6563 12.3746 20.7188 11.8121Z" fill="#3C505B"/>
<path d="M20.4375 12.5633C19.9687 12.2821 19.2188 12.0008 18.4688 12.0008C16.875 11.9071 15.4688 13.2196 15.4688 14.8133L15.5625 17.6258C15.6563 18.9383 16.6875 20.0633 18 20.2508H18.0937C19.5 20.4383 20.8125 19.5946 21.2813 18.2821C21.5625 17.5321 21.75 16.5008 21.9375 15.4696C21.9375 14.2508 21.4687 13.1258 20.4375 12.5633Z" fill="white"/>
<path d="M16.1257 14.9068C16.6882 13.3131 18.0006 12.4693 19.0319 13.0318C20.1569 13.5943 20.8132 15.5631 20.3444 17.5318C19.8757 19.6881 18.2819 20.8131 16.9694 19.8756C15.8444 18.9381 15.4694 16.6881 16.1257 14.9068Z" fill="#D8649E"/>
<path d="M16.687 14.6246C17.1558 13.4059 18.0933 12.8434 18.9371 13.2184C19.7808 13.6871 20.3433 15.0934 19.9683 16.4996C19.5933 18.0934 18.3745 18.9371 17.3433 18.1871C16.4058 17.5309 16.1245 15.8434 16.687 14.6246Z" fill="#3C505B"/>
<path d="M17.9066 15.1876C18.0941 14.7189 18.6566 14.4376 19.1253 14.6251C19.5941 14.8126 19.8753 15.4689 19.7816 16.0314C19.5941 16.6876 18.9378 17.0626 18.3753 16.6876C17.8128 16.4064 17.6253 15.6564 17.9066 15.1876Z" fill="white"/>
<path d="M6.84375 9.09394C6.84375 9.09394 11.5312 2.62519 16.5 5.06269C16.5 5.06269 17.4375 6.93769 14.7187 8.06269C12 9.18769 6.84375 9.09394 6.84375 9.09394ZM20.1562 7.50019C20.1562 7.50019 24.375 8.90644 25.4062 10.5939C26.4375 12.2814 26.625 14.4377 25.7812 16.9689C25.7812 16.9689 25.5 15.0002 24.75 13.4064C24 11.8127 22.2188 8.25019 20.1562 7.50019Z" fill="#EA7DB8"/>
<path d="M18.4688 27.75L18.1875 28.2188L19.5937 29.1563L27.6562 21.1875L26.3438 19.5L18.4688 27.75Z" fill="#9A4C18"/>
<path d="M27.7498 23.4375C27.4685 26.625 24.5623 29.25 21.281 29.25C17.9998 29.25 16.031 26.5312 16.5935 23.4375C17.156 20.5312 19.9685 18.2812 22.8748 18.2812C25.781 18.2812 28.031 20.5312 27.7498 23.4375Z" fill="#9A4C18"/>
<path d="M28.5937 24.4688C28.3124 27.4688 25.4999 30.0938 22.3124 30C19.1249 30 17.1562 27.375 17.7187 24.4688C18.2812 21.75 20.9999 19.5937 23.8124 19.5C26.6249 19.5 28.8749 21.6563 28.5937 24.4688Z" fill="#9A4C18"/>
<path d="M19.4062 28.0313L20.7187 28.7813L27.2812 21.8438L26.25 20.4375L19.4062 28.0313Z" fill="#F49937"/>
<path d="M27.9374 24.4688C27.6562 27 25.3124 29.25 22.6874 29.1563C20.0624 29.1563 18.3749 27 18.8437 24.4688C19.3124 22.0313 21.5624 20.1562 23.9999 20.1562C26.3437 20.1562 28.2187 22.0313 27.9374 24.4688Z" fill="#F49937"/>
<path d="M27.0942 23.4375C26.813 26.1562 24.2817 28.5 21.4692 28.5C18.6567 28.5 16.8755 26.1562 17.3442 23.4375C17.813 20.9062 20.2505 18.8438 22.8755 18.8438C25.4067 18.8438 27.2817 20.8125 27.0942 23.4375Z" fill="#FFEDC0"/>
<path d="M26.7187 23.625C26.4374 26.1563 24.0937 28.4063 21.4687 28.3125C18.8437 28.3125 17.1562 26.1563 17.6249 23.625C18.0937 21.1875 20.3437 19.3125 22.7812 19.3125C25.1249 19.3125 26.9999 21.1875 26.7187 23.625Z" fill="#FFD766"/>
<path d="M25.6869 23.625C25.4994 25.5938 23.6244 27.2812 21.5619 27.2812C19.4994 27.2812 18.1869 25.5938 18.5619 23.625C18.9369 21.75 20.7181 20.25 22.5931 20.25C24.4681 20.25 25.8744 21.75 25.6869 23.625Z" fill="#FFEDC0"/>
<path d="M25.7814 23.1563C25.5939 25.125 23.7189 26.7187 21.7502 26.7187C19.7814 26.7187 18.3752 25.0313 18.7502 23.1563C19.1252 21.2813 20.8127 19.7812 22.6877 19.7812C24.5627 19.7812 25.9689 21.2813 25.7814 23.1563Z" fill="#F49937"/>
<path d="M25.1251 23.625C24.9376 25.3125 23.3439 26.7187 21.6564 26.7187C19.9689 26.7187 18.8439 25.3125 19.1251 23.7187C19.4064 22.125 20.9064 20.9062 22.5001 20.8125C24.0939 20.8125 25.3126 22.0312 25.1251 23.625Z" fill="#FFD766"/>
<path d="M22.9688 20.4375L23.4375 22.3125L25.4063 22.7812L23.625 24L23.4375 26.1563L21.8438 24.9375L19.6875 25.6875L20.625 23.7188L19.5 22.125H21.6563L22.9688 20.4375Z" fill="#F49937"/>
</g>
<defs>
<clipPath id="clip0_52_67189">
<rect width="30" height="30" fill="white"/>
</clipPath>
</defs>
</svg>
