<svg width="644" height="324" viewBox="0 0 644 324" fill="none" xmlns="http://www.w3.org/2000/svg">
<path d="M582.689 127.489L593.984 208.382C594.056 208.897 594.164 209.406 594.308 209.906L601.473 234.781C604.639 245.775 620.396 245.233 622.801 234.049L629.097 204.759C631.335 196.855 642.97 198.417 643.044 206.632L644 312.776C644.055 318.89 639.113 323.877 632.998 323.877H11.0017C4.92563 323.877 0 318.951 0 312.875V181.687C0 171.144 14.5362 168.318 18.4864 178.093C21.9638 186.698 34.4171 185.841 36.6826 176.84L38.9778 167.721C41.6485 157.111 56.4877 156.48 60.0493 166.826L79.5123 223.361L82.2755 232.182C85.4726 242.388 99.88 242.492 103.224 232.333L130.283 150.136C133.58 140.118 147.72 140.032 151.14 150.008L159.541 174.517C163.203 185.2 178.659 184.091 180.758 172.994L193.308 106.659C195.583 94.6348 212.842 94.7511 214.954 106.805L235.371 223.298C237.524 235.585 255.232 235.37 257.087 223.035L264.709 172.337C266.362 161.339 281.426 159.459 285.732 169.713L292.982 186.978C297.418 197.542 313.033 195.135 314.081 183.725L330.042 9.99569C331.226 -2.89098 349.821 -3.51211 351.862 9.26682L369.678 120.798C371.012 129.153 382.551 130.341 385.56 122.433C388.664 114.276 400.651 115.876 401.506 124.562L403.421 144.004C404.699 156.983 423.493 157.344 425.269 144.424L436.887 59.8889C438.345 49.2811 452.559 46.7954 457.53 56.2788L462.586 65.9226C465.213 70.9325 472.07 71.7019 475.741 67.3986C480.261 62.1014 488.921 64.7171 489.753 71.6303L503.384 184.971C504.957 198.051 524.011 197.815 525.26 184.7L526.527 171.388C527.26 163.694 537.049 160.893 541.74 167.035C546.39 173.123 556.087 170.435 556.939 162.822L560.859 127.788C562.298 114.928 580.899 114.674 582.689 127.489Z" fill="#FF8E26"/>
</svg>
