<svg width="64" height="20" viewBox="0 0 64 20" fill="none" xmlns="http://www.w3.org/2000/svg">
<g clip-path="url(#clip0_12_19631)">
<path d="M17.3 3H19V8H17.3V4.66667H13.9V3H17.3ZM3.7 3H7.1V4.66667H3.7V8H2V3H3.7ZM17.3 16.3333V13H19V18H13.9V16.3333H17.3ZM3.7 16.3333H7.1V18H2V13H3.7V16.3333Z" fill="white"/>
</g>
<g clip-path="url(#clip1_12_19631)">
<path d="M46.8118 14.7492C46.4609 14.128 46.1881 13.4638 46 12.7725C46.4095 12.5593 46.7533 12.2342 46.9936 11.8333C47.2338 11.4324 47.3611 10.9713 47.3613 10.5009C47.3614 10.0306 47.2345 9.56937 46.9946 9.16829C46.7546 8.7672 46.411 8.4419 46.0017 8.22835C46.3769 6.83926 47.0913 5.57083 48.0776 4.54256C48.4628 4.79898 48.9098 4.94127 49.3691 4.9537C49.8285 4.96612 50.2822 4.84819 50.6801 4.61295C51.078 4.37772 51.4046 4.03435 51.6237 3.62085C51.8428 3.20735 51.9459 2.73984 51.9216 2.27006C53.2846 1.9094 54.7149 1.90999 56.0776 2.27176C56.0535 2.74153 56.1568 3.20897 56.3761 3.62235C56.5954 4.03573 56.9221 4.37894 57.32 4.614C57.718 4.84905 58.1718 4.96679 58.6311 4.95418C59.0904 4.94158 59.5373 4.79911 59.9224 4.54256C60.403 5.04397 60.8296 5.61422 61.1882 6.25075C61.5476 6.88729 61.8166 7.55102 62 8.2275C61.5905 8.44073 61.2467 8.76578 61.0064 9.16668C60.7662 9.56758 60.6389 10.0287 60.6387 10.4991C60.6386 10.9694 60.7655 11.4306 61.0054 11.8317C61.2454 12.2328 61.589 12.5581 61.9983 12.7716C61.6231 14.1607 60.9087 15.4292 59.9224 16.4574C59.5372 16.201 59.0902 16.0587 58.6309 16.0463C58.1715 16.0339 57.7178 16.1518 57.3199 16.387C56.922 16.6223 56.5954 16.9657 56.3763 17.3792C56.1572 17.7927 56.0541 18.2602 56.0784 18.7299C54.7154 19.0906 53.2851 19.09 51.9224 18.7282C51.9465 18.2585 51.8432 17.791 51.6239 17.3777C51.4046 16.9643 51.0779 16.6211 50.68 16.386C50.282 16.1509 49.8282 16.0332 49.3689 16.0458C48.9096 16.0584 48.4627 16.2009 48.0776 16.4574C47.587 15.9449 47.1617 15.371 46.8118 14.7492ZM51.5099 14.9158C52.3944 15.4382 53.0594 16.2764 53.3775 17.2699C53.7917 17.3098 54.2075 17.3107 54.6217 17.2707C54.9399 16.2771 55.6053 15.4388 56.4901 14.9167C57.3743 14.3929 58.4163 14.2219 59.4161 14.4365C59.6568 14.0898 59.8643 13.7201 60.0369 13.3334C59.3558 12.5545 58.9796 11.5455 58.9803 10.5C58.9803 9.42919 59.3704 8.42892 60.0369 7.6666C59.8631 7.28005 59.6547 6.91078 59.4144 6.5635C58.4153 6.77792 57.374 6.60725 56.4901 6.08418C55.6056 5.56184 54.9406 4.72356 54.6225 3.7301C54.2083 3.69016 53.7925 3.68931 53.3783 3.72925C53.0601 4.72285 52.3947 5.56115 51.5099 6.08333C50.6257 6.60711 49.5837 6.7781 48.5839 6.5635C48.3437 6.91048 48.1358 7.27981 47.9631 7.6666C48.6442 8.44554 49.0204 9.45451 49.0197 10.5C49.0197 11.5708 48.6296 12.5711 47.9631 13.3334C48.1369 13.72 48.3453 14.0892 48.5856 14.4365C49.5847 14.2221 50.626 14.3928 51.5099 14.9158ZM54 13.0495C53.3396 13.0495 52.7062 12.7809 52.2392 12.3028C51.7722 11.8247 51.5099 11.1762 51.5099 10.5C51.5099 9.82382 51.7722 9.17533 52.2392 8.6972C52.7062 8.21907 53.3396 7.95045 54 7.95045C54.6604 7.95045 55.2938 8.21907 55.7608 8.6972C56.2278 9.17533 56.4901 9.82382 56.4901 10.5C56.4901 11.1762 56.2278 11.8247 55.7608 12.3028C55.2938 12.7809 54.6604 13.0495 54 13.0495ZM54 11.3498C54.2201 11.3498 54.4313 11.2603 54.5869 11.1009C54.7426 10.9416 54.83 10.7254 54.83 10.5C54.83 10.2746 54.7426 10.0584 54.5869 9.89907C54.4313 9.73969 54.2201 9.65015 54 9.65015C53.7799 9.65015 53.5687 9.73969 53.4131 9.89907C53.2574 10.0584 53.17 10.2746 53.17 10.5C53.17 10.7254 53.2574 10.9416 53.4131 11.1009C53.5687 11.2603 53.7799 11.3498 54 11.3498Z" fill="white"/>
</g>
<defs>
<clipPath id="clip0_12_19631">
<rect width="20" height="20" fill="white"/>
</clipPath>
<clipPath id="clip1_12_19631">
<rect width="20" height="20" fill="white" transform="translate(44)"/>
</clipPath>
</defs>
</svg>
