<svg width="350" height="83" viewBox="0 0 350 83" fill="none" xmlns="http://www.w3.org/2000/svg">
<g clip-path="url(#clip0_52_34576)">
<path d="M349.368 62.6282C349.368 71.0132 342.268 79.5065 329.445 79.5065C316.456 79.5065 309.42 72.911 307.688 62.6931L318.181 60.2252C319.061 66.1496 323.86 69.4257 329.813 69.4257C334.994 69.4257 337.967 66.6547 337.967 63.3065C337.967 60.6004 335.6 58.3635 331.812 57.6202L324.134 56.0976C315.373 54.373 309.702 48.7589 309.702 40.5038C309.702 30.8271 318.462 23.5894 328.882 23.5894C341.402 23.5894 347.528 31.0652 348.473 38.0215L338.292 41.0306C337.411 36.802 334.366 33.6486 328.781 33.6486C324.177 33.6486 320.843 36.535 320.843 39.6379C320.843 42.2429 322.503 44.5087 326.457 45.2592L334.005 46.6446C344.057 48.5136 349.368 54.9503 349.368 62.6282ZM302.24 51.3639C302.24 55.0712 301.508 58.742 300.085 62.1654C298.662 65.5887 296.577 68.6973 293.949 71.3123C291.321 73.9274 288.203 75.9975 284.772 77.4037C281.342 78.8099 277.668 79.5245 273.961 79.5065C258.331 79.5065 245.876 67.2969 245.876 51.6309C245.889 47.9266 246.633 44.2614 248.066 40.8454C249.499 37.4295 251.592 34.33 254.226 31.7248C256.859 29.1196 259.981 27.0598 263.412 25.6638C266.843 24.2677 270.516 23.5628 274.22 23.5894C289.822 23.5894 302.24 35.7701 302.24 51.3639ZM290.774 51.5299C290.774 47.1013 289.015 42.8542 285.883 39.7227C282.752 36.5912 278.505 34.832 274.076 34.832C269.648 34.832 265.4 36.5912 262.269 39.7227C259.137 42.8542 257.378 47.1013 257.378 51.5299C257.378 60.9107 264.724 68.6463 274.098 68.6463C283.471 68.6463 290.774 60.8674 290.774 51.5299ZM239.858 63.7106C239.858 74.7439 230.116 78.6983 220.54 78.6983H197.73V24.4265H220.23C228.954 24.4265 237.549 29.0736 237.549 38.7792C237.549 44.184 234.662 47.9507 229.936 50.3825V50.5124C236.343 52.9226 239.858 56.5378 239.858 63.7106ZM208.634 46.457H217.935C221.926 46.457 226.595 45.4107 226.595 40.5327C226.595 36.0371 222.496 34.7598 218.708 34.7598H208.634V46.457ZM228.897 62.2529C228.897 57.2522 224.192 56.1987 220.028 56.1987H208.634V68.2783H220.403C224.43 68.2783 228.897 67.1093 228.897 62.2529ZM188.4 51.3639C188.4 55.0718 187.668 58.7432 186.244 62.167C184.821 65.5909 182.735 68.6997 180.106 71.3149C177.478 73.9301 174.358 76 170.927 77.4058C167.496 78.8116 163.821 79.5255 160.113 79.5065C144.483 79.5065 132.036 67.2969 132.036 51.6309C132.049 47.9291 132.792 44.2662 134.223 40.8522C135.654 37.4381 137.745 34.3399 140.375 31.7351C143.006 29.1302 146.124 27.0699 149.552 25.6721C152.98 24.2744 156.65 23.5666 160.351 23.5894C175.981 23.5894 188.4 35.7701 188.4 51.3639ZM176.927 51.5299C176.973 49.3084 176.575 47.1 175.757 45.0341C174.939 42.9682 173.716 41.0864 172.162 39.499C170.607 37.9115 168.751 36.6503 166.702 35.7894C164.654 34.9284 162.454 34.4849 160.232 34.4849C158.01 34.4849 155.811 34.9284 153.762 35.7894C151.714 36.6503 149.858 37.9115 148.303 39.499C146.748 41.0864 145.526 42.9682 144.708 45.0341C143.89 47.1 143.492 49.3084 143.538 51.5299C143.538 60.9107 150.877 68.6463 160.243 68.6463C169.61 68.6463 176.927 60.8674 176.927 51.5299ZM111.982 34.3052V68.9061C111.997 75.7685 107.126 82.9846 98.1492 82.9846H37.2171C28.6156 82.9846 23.9757 75.7685 23.9757 68.9061V56.3935C23.96 55.8994 23.7591 55.4292 23.4129 55.0763C23.0667 54.7234 22.6004 54.5136 22.1067 54.4885C15.4315 53.1454 9.49133 49.375 5.43487 43.9062C1.37842 38.4374 -0.506192 31.6587 0.145462 24.881C0.797117 18.1033 3.93874 11.8079 8.96286 7.21215C13.987 2.61642 20.5367 0.0468185 27.3455 0.000207671C31.4357 -0.0158261 35.4761 0.89678 39.1623 2.66924C42.8484 4.4417 46.0842 7.02777 48.6256 10.2325C49.5998 11.4665 50.0688 11.3727 51.0358 10.8676L61.4918 4.89989C64.2339 3.31237 68.5635 1.55887 74.0405 4.79887L84.0636 10.5717L106.664 23.7554C111.997 26.9016 111.997 31.0291 111.997 34.3052H111.982ZM108.649 34.3052C108.649 31.0147 108.526 28.7489 104.968 26.649C100.538 24.0368 73.99 8.65945 72.3375 7.68528C68.78 5.59263 66.0235 6.14105 63.1298 7.80795C62.5021 8.17597 58.0786 10.6944 52.5944 13.8189C50.574 14.923 48.1999 15.0817 46.0062 12.3252C43.7723 9.52056 40.9339 7.25661 37.7027 5.70226C34.4716 4.14791 30.9311 3.34329 27.3455 3.34845C21.3682 3.39142 15.619 5.64877 11.2093 9.68417C6.79955 13.7196 4.04237 19.2465 3.47069 25.1966C2.89902 31.1466 4.55344 37.0974 8.11418 41.8986C11.6749 46.6998 16.8891 50.0105 22.7489 51.1907C24.0147 51.3482 25.1785 51.9651 26.0193 52.9242C26.8601 53.8834 27.3192 55.118 27.3095 56.3935V68.9061C27.3095 73.3512 30.0949 79.6291 37.2171 79.6291H98.1492C104.925 79.6291 108.699 74.3398 108.699 68.9061L108.649 34.3052ZM92.5135 36.802C71.2767 38.3101 70.7283 38.2452 49.5637 36.802C46.5474 36.5061 48.4813 42.1491 50.0616 42.4233C59.5507 44.3211 61.9464 44.7396 61.9464 47.3735C61.6506 51.7464 61.5495 55.7296 55.6035 72.9543C54.1603 76.1726 60.2723 75.1985 61.0011 73.5532C64.8112 66.1857 67.2141 60.3479 69.7253 57.4831C69.8892 57.2949 70.0916 57.144 70.3188 57.0406C70.5459 56.9372 70.7926 56.8837 71.0422 56.8837C71.2918 56.8837 71.5385 56.9372 71.7657 57.0406C71.9929 57.144 72.1952 57.2949 72.3592 57.4831C74.8703 60.3695 77.2733 66.1857 81.0833 73.5532C81.8049 75.1985 87.8881 76.1726 86.4809 72.9543C80.5421 55.7296 80.4339 51.7464 80.138 47.3735C80.138 44.7613 82.5338 44.3211 92.0156 42.4305C93.6031 42.1563 95.5298 36.5133 92.5135 36.802ZM71.017 34.2764C72.245 34.2849 73.448 33.9285 74.4732 33.2523C75.4984 32.5761 76.2996 31.6106 76.7752 30.4784C77.2508 29.3461 77.3793 28.098 77.1444 26.8926C76.9096 25.6872 76.322 24.5787 75.4561 23.7077C74.5902 22.8368 73.4852 22.2427 72.2811 22.0008C71.0771 21.7589 69.8283 21.8801 68.6933 22.3491C67.5582 22.8181 66.5881 23.6136 65.9059 24.6348C65.2237 25.6561 64.8603 26.8569 64.8617 28.085C64.8579 29.722 65.504 31.2935 66.6581 32.4544C67.8122 33.6153 69.38 34.2706 71.017 34.2764ZM27.3455 11.7912C24.2346 11.7726 21.1882 12.6781 18.5925 14.393C15.9968 16.1078 13.9687 18.5547 12.7653 21.4235C11.5619 24.2923 11.2374 27.4539 11.8329 30.5073C12.4284 33.5608 13.9172 36.3687 16.1104 38.5751C18.3036 40.7814 21.1025 42.287 24.1523 42.9007C27.2022 43.5145 30.3656 43.209 33.2416 42.0228C36.1175 40.8366 38.5765 38.8232 40.3069 36.2378C42.0372 33.6524 42.961 30.6115 42.961 27.5005C42.9677 25.4436 42.569 23.4055 41.7877 21.5026C41.0065 19.5998 39.858 17.8695 38.4079 16.4107C36.9577 14.9519 35.2344 13.793 33.3363 13.0004C31.4382 12.2078 29.4025 11.7969 27.3455 11.7912Z" fill="white"/>
</g>
<defs>
<clipPath id="clip0_52_34576">
<rect width="349.978" height="82.9844" fill="white" transform="translate(0.0112305)"/>
</clipPath>
</defs>
</svg>
