<svg width="20" height="20" viewBox="0 0 20 20" fill="none" xmlns="http://www.w3.org/2000/svg">
<path d="M5.28969 13.4727L5.28966 13.4727L5.29586 13.4762C6.34129 14.0611 7.5988 13.8978 8.77762 13.1884C8.77769 13.1883 8.77776 13.1883 8.77783 13.1882L9.99845 12.4559L11.2232 13.1889L11.2236 13.1891C12.014 13.6611 12.7217 13.8298 13.32 13.8298C13.9432 13.8298 14.429 13.6383 14.7314 13.462C15.7391 12.877 16.25 11.7306 16.25 10.4198V1.53983C16.25 1.16069 16.6487 0.930515 16.9492 1.07842L16.9514 1.0795C18.5516 1.85753 19.5 3.4655 19.5 5.80983V14.1898C19.5 17.1237 17.1239 19.4998 14.19 19.4998H5.81C2.87614 19.4998 0.5 17.1237 0.5 14.1898V5.80983C0.5 3.46563 1.44825 1.85771 3.04836 1.07963C3.36002 0.928723 3.75 1.16073 3.75 1.53983V10.4198C3.75 11.7334 4.26288 12.8788 5.28969 13.4727Z" fill="white" stroke="white"/>
<path d="M13.4805 11.2967L13.4805 11.2967L13.4765 11.299C13.4413 11.3198 13.3529 11.3494 13.1752 11.3178C12.9992 11.2864 12.7717 11.1999 12.5072 11.0413L12.5068 11.041L11.1897 10.2527C11.1892 10.2524 11.1886 10.2521 11.188 10.2517C10.8366 10.0386 10.4041 9.9475 10 9.9475C9.5959 9.9475 9.16342 10.0386 8.81197 10.2517C8.81141 10.2521 8.81085 10.2524 8.81029 10.2527L7.49323 11.041L7.49275 11.0413C7.23055 11.1986 7.0037 11.283 6.82714 11.3136C6.65268 11.3438 6.5584 11.3172 6.51676 11.2951C6.426 11.2401 6.25 11.002 6.25 10.42V1C6.25 0.726142 6.47614 0.5 6.75 0.5H13.25C13.5239 0.5 13.75 0.726142 13.75 1V10.42C13.75 11.0079 13.5704 11.2449 13.4805 11.2967Z" fill="white" stroke="white"/>
</svg>
