<svg width="30" height="30" viewBox="0 0 30 30" fill="none" xmlns="http://www.w3.org/2000/svg">
<g clip-path="url(#clip0_52_45988)">
<path d="M10.875 5.4375C10.875 5.4375 10.9688 3.84375 9.75 2.15625C9.75 2.15625 12.0938 2.4375 14.3438 3.84375V4.96875L12.75 6.9375L10.875 5.4375Z" fill="#9A4C18"/>
<path d="M14.625 10.0306C14.625 10.0306 18.8437 8.99936 23.8125 10.4056C28.7812 11.8119 30.375 16.6869 29.25 19.2181L26.7188 17.6244C26.7188 17.6244 27.8438 13.3119 23.1562 12.2806L14.625 10.0306Z" fill="#3C505B"/>
<path d="M27.7954 18.6135C27.8182 12.2968 22.6321 7.15718 16.2118 7.13392C9.79148 7.11066 4.56824 12.2125 4.54535 18.5293C4.52246 24.8461 9.7086 29.9857 16.1289 30.0089C22.5492 30.0322 27.7725 24.9303 27.7954 18.6135Z" fill="#9A4C18"/>
<path d="M26.5098 17.9961C26.5319 11.8865 21.723 6.91611 15.7686 6.89453C9.81433 6.87296 4.96945 11.8083 4.94731 17.918C4.92517 24.0276 9.73416 28.998 15.6885 29.0195C21.6428 29.0411 26.4877 24.1058 26.5098 17.9961Z" fill="#E5895B"/>
<path d="M25.3697 17.4484C25.3906 11.7012 20.8743 7.0257 15.2824 7.00544C9.69056 6.98518 5.14056 11.6278 5.11974 17.375C5.09891 23.1222 9.61515 27.7977 15.207 27.8179C20.7989 27.8382 25.3489 23.1956 25.3697 17.4484Z" fill="#FAD395"/>
<path d="M6.5625 23.4373L12.0937 25.4998L10.7812 20.3435L4.40625 19.3123L6.5625 23.4373ZM17.9062 26.7185L25.125 23.9998C26.0625 23.531 26.625 22.5935 26.625 21.5623L26.5312 15.7498C26.5312 13.9685 24.75 12.7498 23.0625 13.3123L15.2812 16.1248C14.0625 16.5935 13.4062 17.8123 13.5938 19.1248L15.0938 24.9373C15.375 26.531 16.4062 27.4685 17.9062 26.7185Z" fill="#3C505B"/>
<path d="M7.5 23.3446L11.8125 22.3133L10.4063 19.5946L7.96875 19.9696L7.5 23.3446ZM19.0312 24.6571L23.9062 22.5946C24.5625 22.2196 25.0312 21.5633 25.0312 20.7196L24.9375 16.2196C24.9375 14.8133 23.5312 13.8758 22.2188 14.3446L16.2187 16.5008C15.2812 16.8758 14.7187 17.8133 14.9062 18.7508L16.125 23.1571C16.4062 24.5633 17.8125 25.2196 19.0312 24.6571Z" fill="#98B1B7"/>
<path d="M4.125 12.3756L11.1563 10.2194C11.7188 10.0319 12.2813 9.93814 12.8438 10.1256L23.3438 12.4694C24.375 12.7506 24.375 13.8756 23.4375 14.3444L14.9063 16.9694C14.8125 17.0631 14.625 17.0631 14.4375 16.9694L4.03125 13.3131C3.65625 13.1256 3.65625 12.5631 4.125 12.3756Z" fill="#FAD395"/>
<path d="M3.5625 12.5625L6.9375 11.3438C6.9375 11.3438 19.125 14.9063 22.125 15.1875L16.5 16.7812L13.0312 15.375L3.5625 12.5625Z" fill="#CBDEE4"/>
<path d="M9.375 13.9691L3.9375 12.2816C2.625 11.9066 1.59375 12.8441 1.59375 14.4378L1.125 18.8441C1.125 20.4378 2.15625 22.1253 3.46875 22.5941L6.9375 23.5316C7.125 23.6253 7.3125 23.5316 7.5 23.4378L9.09375 21.6566C9.375 21.2816 9.65625 21.3753 9.9375 21.9378L11.625 25.0316C11.8125 25.3129 12 25.5003 12.2813 25.5941L15.5625 26.7191C17.1562 27.3753 18.4688 26.4379 18.4688 24.5629L18.1875 19.8754C18.1875 18.0941 16.875 16.2191 15.2812 15.6566L9.375 13.9691Z" fill="#3C505B"/>
<path d="M24.1875 20.6953C24.9687 18.7773 24.4747 16.7633 23.0841 16.1969C21.6936 15.6306 19.933 16.7263 19.1518 18.6443C18.3706 20.5623 18.8646 22.5763 20.2551 23.1427C21.6457 23.7091 23.4063 22.6134 24.1875 20.6953Z" fill="#3C505B"/>
<path d="M21.7501 14.1562C21.7501 14.1562 24.4688 14.5312 25.3126 14.1562C26.1563 13.7812 27.2813 13.875 27.3751 13.125C27.4688 12.2812 26.5313 7.6875 21.1876 5.8125L23.8126 10.0312L21.7501 14.1562ZM7.03131 11.4375C7.03131 11.4375 6.18756 9.84375 7.12506 8.0625C8.06256 6.28125 7.12506 3.5625 7.12506 3.5625L11.8126 5.25C11.8126 5.25 14.5313 6.46875 14.1563 7.78125C13.7813 9.09375 12.4688 11.1562 12.3751 11.25C12.1876 11.4375 11.2501 12.6562 11.2501 12.6562L7.03131 11.4375Z" fill="#9A4C18"/>
<path d="M7.59392 11.8125C7.59392 11.8125 7.40642 9.5625 8.25017 9C9.09392 8.4375 8.43767 5.25 8.43767 5.25L13.1252 6.9375C13.1252 6.9375 15.8439 8.15625 15.4689 9.46875C15.0939 10.7813 13.7814 12.8438 13.6877 12.9375C13.5939 13.0313 12.7502 13.7812 12.7502 13.7812L7.59392 11.8125ZM20.0627 13.6875C20.0627 13.6875 22.7814 14.0625 23.6252 13.6875C24.4689 13.3125 25.5939 13.4062 25.6877 12.6562C25.7814 11.9062 24.8439 7.21875 19.5002 5.34375L22.1252 9.5625L20.0627 13.6875Z" fill="#DB7D1F"/>
<path d="M9.46875 14.9996L4.875 13.5934C3.75 13.2184 2.90625 14.0621 2.90625 15.3746L2.4375 18.3746C2.4375 19.6871 3.28125 21.0934 4.40625 21.4684L7.03125 22.0309C7.21875 22.1246 7.40625 22.0309 7.5 21.9371L8.8125 20.5309C9.09375 20.2496 9.5625 20.4371 9.84375 20.9059L11.25 23.4371C11.3438 23.6246 11.625 23.8121 11.8125 23.9059L14.625 24.8434C15.9375 25.3121 17.0625 24.5621 17.0625 23.0621L16.7812 19.8746C16.7812 18.3746 15.6563 16.8746 14.3438 16.4059L9.46875 14.9996Z" fill="#CBDEE4"/>
<path d="M23.9945 20.2267C24.5609 18.8362 24.2426 17.3923 23.2836 17.0017C22.3245 16.6111 21.088 17.4217 20.5216 18.8122C19.9552 20.2028 20.2735 21.6467 21.2325 22.0373C22.1915 22.4279 23.4281 21.6173 23.9945 20.2267Z" fill="#CBDEE4"/>
<path d="M4.875 14.625L3.84375 19.3125L5.90625 19.9687L7.03125 15.2812L4.875 14.625Z" fill="white"/>
<path d="M24.0938 17.4375C24.0938 17.4375 28.3125 17.1563 27.9375 15C27.9375 15 29.9062 17.1563 29.4375 18.9375C28.875 20.7188 23.7188 21.2813 23.7188 21.2813C23.7188 21.2813 24.8438 19.3125 24.0938 17.4375ZM3.9375 12.75L7.78125 11.25L6.75 10.6875L2.625 12.375L3.9375 12.75Z" fill="#3C505B"/>
<path d="M10.4997 12.2804C10.4997 12.2804 9.18721 11.8116 10.1247 9.56161C11.0622 7.31161 13.8747 4.21786 13.8747 4.21786L10.781 0.18661C10.781 0.18661 15.8435 -0.18839 19.4997 3.93661C19.4997 3.93661 23.8122 7.03036 23.8122 8.71786C23.8122 10.4054 25.3122 13.7804 23.531 14.6241C21.8435 15.2804 10.9685 12.8429 10.4997 12.2804Z" fill="#9A4C18"/>
<path d="M11.1566 12.5625C11.1566 12.5625 10.9691 10.6875 11.7191 9C12.4691 7.21875 14.9066 4.59375 14.9066 4.59375L13.5941 1.5C13.5941 1.5 16.1253 1.59375 18.9378 4.6875C18.9378 4.6875 22.3128 7.03125 22.3128 8.34375C22.3128 9.65625 21.5628 13.6875 20.2503 14.25C18.7503 14.8125 11.5316 13.0312 11.1566 12.5625Z" fill="#F49937"/>
<path d="M13.6875 12L15.5625 7.875L15.6563 3.1875L18.0937 8.25L16.875 13.0312C16.875 13.0312 14.3438 12.9375 13.6875 12Z" fill="#FDE049"/>
<path d="M25.4063 9.9375L24.6562 13.0312L22.5 11.4375L23.3437 13.875L26.8125 13.5937L25.4063 9.9375Z" fill="#9A4C18"/>
<path d="M20.7188 12.0937L22.6875 13.0312L24.9375 11.8125L24.5625 13.5937L23.25 14.0625L19.4063 14.4375L20.7188 12.0937ZM10.4063 8.53125L10.3125 10.7812L11.9062 13.0312L11.5313 12.8437L9.09375 11.9062L8.4375 9.9375L10.4063 8.53125Z" fill="#DB7D1F"/>
<path d="M17.5312 14.5312L19.875 10.5938L19.6875 6.375L18.75 4.5C18.75 4.5 21.1875 6.1875 21.6562 6.75C22.125 7.3125 22.7812 8.90625 22.5937 9.375L21 13.9687L20.1562 14.4375C20.0625 14.4375 18.375 14.8125 17.5312 14.5312Z" fill="#DB7D1F"/>
<path d="M6.75 10.6875C6.75 10.6875 14.0625 15 25.7812 14.1563L24.9375 15.0938C24.9375 15.0938 14.625 16.2188 6.09375 11.5313L6.75 10.6875Z" fill="#3C505B"/>
<path d="M11.0623 8.90625L11.7185 8.8125C11.7185 8.8125 10.8748 10.7813 11.3435 12.1875C11.3435 12.1875 9.65602 11.5313 10.406 8.90625H11.0623Z" fill="#9A4C18"/>
<path d="M21.9375 13.125C21.9375 13.125 24.4688 12.375 24.2812 10.5C24.2812 10.5 24.8438 12 24.375 12.9375C23.9063 13.875 22.4062 13.5 22.4062 13.5L21.9375 13.125Z" fill="#DB7D1F"/>
</g>
<defs>
<clipPath id="clip0_52_45988">
<rect width="30" height="30" fill="white"/>
</clipPath>
</defs>
</svg>
