<svg width="150" height="58" viewBox="0 0 150 58" fill="none" xmlns="http://www.w3.org/2000/svg">
<g clip-path="url(#clip0_52_34647)">
<path d="M0.00756836 45.3418H6.67088V48.167H3.14871V50.4717H6.33632V53.0738H3.14871V57.7112H0.00756836V45.3418Z" fill="white"/>
<path d="M14.4865 54.264L13.3156 50.5467L12.1353 54.264H14.4865ZM13.2134 44.9707H13.5851L19.2912 57.7118H15.8062L15.3229 56.4387H11.3361L10.8436 57.7118H7.50726L13.2134 44.9707Z" fill="white"/>
<path d="M23.817 47.8696V50.4717H25.0437C25.2304 50.4972 25.4204 50.4787 25.5985 50.4176C25.7767 50.3566 25.9382 50.2548 26.07 50.1202C26.2018 49.9857 26.3004 49.8222 26.3578 49.6428C26.4152 49.4634 26.4298 49.2731 26.4006 49.087C26.4064 48.9133 26.3741 48.7405 26.3059 48.5807C26.2378 48.4208 26.1354 48.2779 26.0061 48.1618C25.8768 48.0458 25.7236 47.9595 25.5573 47.909C25.3911 47.8585 25.2158 47.845 25.0437 47.8696H23.817ZM20.7967 45.3418H25.2761C27.8131 45.3418 29.3094 46.6986 29.3094 48.6967C29.371 49.4714 29.1442 50.2415 28.6724 50.859C28.2007 51.4766 27.5173 51.898 26.7537 52.0423L30.1458 57.7019H26.6329L23.8449 52.256V57.7112H20.7967V45.3418Z" fill="white"/>
<path d="M37.1715 51.7735L41.9111 45.1846H42.3572L42.6918 57.712H39.7923L39.69 52.3218L37.1715 56.4574L34.6623 52.3218L34.5601 57.712H31.6513L31.9859 45.1846H32.4412L37.1715 51.7735Z" fill="white"/>
<path d="M51.0186 54.264L49.8476 50.5467L48.6674 54.264H51.0186ZM49.7454 44.9707H50.1078L55.8139 57.7118H52.3104L51.8271 56.4387H47.8682L47.4035 57.7118H44.0393L49.7454 44.9707Z" fill="white"/>
<path d="M57.3287 45.1846H57.9514L63.8712 51.4947V45.3426H66.8451V57.8792H66.2224L60.3026 51.6806V57.712H57.3287V45.1846Z" fill="white"/>
<path d="M72.9973 48.1948V54.8303H74.0567C75.3856 54.8303 76.3429 53.5757 76.3429 51.5033C76.3429 49.4309 75.4135 48.1855 74.0567 48.1855L72.9973 48.1948ZM69.8654 45.3418H74.0567C77.2443 45.3418 79.6327 47.916 79.6327 51.4289C79.6327 54.9418 77.2815 57.7112 74.0567 57.7112H69.8654V45.3418Z" fill="white"/>
<path d="M85.4317 57.9531C84.4705 58.0414 83.5091 57.7852 82.7192 57.2303C81.9294 56.6753 81.3624 55.8577 81.1196 54.9235L83.5173 53.6503C83.9541 54.7469 84.4466 55.3881 85.376 55.3881C86.1287 55.3881 86.5562 55.035 86.5562 54.4123C86.5562 53.7897 86.1659 53.3715 84.9206 52.7767C82.6251 51.6801 81.6865 50.537 81.6865 48.7062C81.6823 48.2083 81.7818 47.715 81.9787 47.2577C82.1756 46.8003 82.4655 46.389 82.83 46.0498C83.1946 45.7106 83.6257 45.4511 84.096 45.2876C84.5663 45.1242 85.0655 45.0604 85.5618 45.1004C86.3968 45.019 87.233 45.2422 87.9162 45.729C88.5994 46.2158 89.0835 46.9333 89.2792 47.749L87.0023 48.9757C86.6677 48.1672 86.1845 47.8048 85.6455 47.8048C85.5287 47.7946 85.411 47.8085 85.2998 47.8457C85.1886 47.8829 85.0862 47.9426 84.999 48.021C84.9119 48.0994 84.8418 48.195 84.7931 48.3017C84.7445 48.4084 84.7182 48.5239 84.7161 48.6412C84.7161 49.2081 85.1715 49.5705 86.0916 50.063C88.7587 51.4106 89.623 52.4886 89.623 54.2636C89.623 56.4754 88.1547 57.981 85.4596 57.981" fill="white"/>
<path d="M90.6081 45.3418H98.4795V48.167H96.0354V57.7112H92.8942V48.167H90.6081V45.3418Z" fill="white"/>
<path d="M103.517 47.8696V50.4717H104.743C104.929 50.4952 105.119 50.4753 105.296 50.4136C105.473 50.3518 105.634 50.25 105.765 50.1159C105.897 49.9818 105.995 49.8192 106.053 49.6407C106.111 49.4622 106.127 49.2727 106.1 49.087C106.106 48.9133 106.074 48.7405 106.005 48.5807C105.937 48.4208 105.835 48.2779 105.706 48.1618C105.576 48.0458 105.423 47.9595 105.257 47.909C105.091 47.8585 104.915 47.845 104.743 47.8696H103.517ZM100.496 45.3418H105.022C107.559 45.3418 109.046 46.6986 109.046 48.6967C109.109 49.4772 108.877 50.2529 108.398 50.8718C107.918 51.4907 107.225 51.9081 106.453 52.0423L109.845 57.7019H106.332L103.544 52.256V57.7112H100.524L100.496 45.3418Z" fill="white"/>
<path d="M111.518 45.3418H118.516V47.9997H114.576V50.0628H118.349V52.414H114.576V55.137H118.516V57.7112H111.518V45.3418Z" fill="white"/>
<path d="M124.538 48.1948V54.8303H125.588C126.917 54.8303 127.874 53.5757 127.874 51.5033C127.874 49.4309 126.945 48.1855 125.588 48.1855L124.538 48.1948ZM121.397 45.3418H125.588C128.785 45.3418 131.164 47.916 131.164 51.4289C131.164 54.9418 128.822 57.7112 125.588 57.7112H121.397V45.3418Z" fill="white"/>
<path d="M133.283 45.3418H140.281V47.9997H136.341V50.0628H140.114V52.414H136.341V55.137H140.281V57.7112H133.283V45.3418Z" fill="white"/>
<path d="M142.13 45.3418H149.992V48.167H147.548V57.7112H144.407V48.167H142.13V45.3418Z" fill="white"/>
<path d="M76.5009 17.2204C75.8803 17.2314 75.2767 17.4254 74.766 17.7782C74.2553 18.131 73.8602 18.6268 73.6303 19.2033C73.4004 19.7799 73.3459 20.4115 73.4737 21.0189C73.6015 21.6263 73.9058 22.1824 74.3486 22.6175C74.7913 23.0525 75.3527 23.3471 75.9622 23.4642C76.5718 23.5813 77.2024 23.5157 77.7748 23.2757C78.3472 23.0357 78.836 22.632 79.1797 22.1152C79.5235 21.5984 79.707 20.9915 79.7071 20.3708C79.7034 19.9534 79.6176 19.5408 79.4545 19.1566C79.2914 18.7724 79.0542 18.4241 78.7565 18.1315C78.4588 17.839 78.1063 17.608 77.7193 17.4516C77.3323 17.2953 76.9183 17.2167 76.5009 17.2204ZM76.5009 26.049C75.382 26.0307 74.2934 25.6822 73.3719 25.0472C72.4505 24.4123 71.7372 23.5192 71.3216 22.4802C70.9061 21.4411 70.8068 20.3025 71.0363 19.2072C71.2657 18.1119 71.8137 17.1089 72.6114 16.324C73.4091 15.5392 74.4209 15.0075 75.5198 14.7959C76.6186 14.5842 77.7555 14.7019 78.7877 15.1343C79.8198 15.5667 80.7012 16.2944 81.3211 17.226C81.9411 18.1577 82.2719 19.2518 82.272 20.3708C82.25 21.8835 81.6311 23.3261 80.5501 24.3845C79.4691 25.4428 78.0137 26.0311 76.5009 26.0212" fill="white"/>
<path d="M58.3231 35.3146H65.9343V9.99961H91.6768V2.56496H58.3231V35.3146ZM68.5458 37.8331H55.7675V0H94.2418V12.5181H68.4993L68.5458 37.8331Z" fill="white"/>
</g>
<defs>
<clipPath id="clip0_52_34647">
<rect width="149.985" height="57.9531" fill="white" transform="translate(0.00756836)"/>
</clipPath>
</defs>
</svg>
