<svg width="14" height="14" viewBox="0 0 14 14" fill="none" xmlns="http://www.w3.org/2000/svg">
<path fill-rule="evenodd" clip-rule="evenodd" d="M9.98308 9.28454L13.3115 12.7513H13.3167C13.4993 12.9412 13.5668 13.2141 13.4936 13.4672C13.4205 13.7203 13.2179 13.9152 12.9621 13.9784C12.7064 14.0416 12.4363 13.9636 12.2537 13.7737L8.89511 10.281C7.94736 10.9498 6.81512 11.3075 5.65513 11.3045C3.00485 11.3057 0.709659 9.46516 0.135018 6.87793C-0.439624 4.29069 0.860627 1.65163 3.26222 0.530765C5.66382 -0.590095 8.52171 0.108302 10.1357 2.21047C11.7497 4.31263 11.6862 7.25394 9.98308 9.28454ZM9.82706 5.65001C9.82801 3.34244 7.95854 1.47079 5.65097 1.46907C3.34242 1.47021 1.47093 3.34077 1.46864 5.64932C1.46921 7.95689 3.33993 9.8273 5.6475 9.82749C7.95508 9.82768 9.8261 7.95758 9.82706 5.65001Z" fill="white"/>
</svg>
