<svg width="15" height="15" viewBox="0 0 15 15" fill="none" xmlns="http://www.w3.org/2000/svg">
<path d="M12.5375 6.15091H1.75007V11.5446C1.75007 13.5673 2.42428 14.2415 4.44693 14.2415H9.84066C11.8633 14.2415 12.5375 13.5673 12.5375 11.5446V6.15091Z" stroke="white" stroke-width="1.5" stroke-miterlimit="10" stroke-linecap="round" stroke-linejoin="round"/>
<path d="M13.5686 4.1276V4.80182C13.5686 5.54346 13.2113 6.15025 12.2202 6.15025H2.10693C1.07538 6.15025 0.758494 5.54346 0.758494 4.80182V4.1276C0.758494 3.38596 1.07538 2.77917 2.10693 2.77917H12.2202C13.2113 2.77917 13.5686 3.38596 13.5686 4.1276Z" stroke="white" stroke-width="1.5" stroke-miterlimit="10" stroke-linecap="round" stroke-linejoin="round"/>
<path d="M6.92069 2.77946H3.19901C2.96978 2.53 2.97652 2.14569 3.21924 1.90298L4.17663 0.945589C4.42609 0.696129 4.83736 0.696129 5.08682 0.945589L6.92069 2.77946Z" stroke="white" stroke-width="1.5" stroke-miterlimit="10" stroke-linecap="round" stroke-linejoin="round"/>
<path d="M11.1209 2.77946H7.39926L9.23313 0.945589C9.48259 0.696129 9.89386 0.696129 10.1433 0.945589L11.1007 1.90298C11.3434 2.14569 11.3502 2.53 11.1209 2.77946Z" stroke="white" stroke-width="1.5" stroke-miterlimit="10" stroke-linecap="round" stroke-linejoin="round"/>
<path d="M5.10205 6.15091V9.61638C5.10205 10.1558 5.69536 10.4726 6.14709 10.1827L6.78085 9.76471C7.01009 9.61638 7.3 9.61638 7.52249 9.76471L8.12254 10.1692C8.56753 10.4659 9.16758 10.149 9.16758 9.60964V6.15091H5.10205Z" stroke="white" stroke-width="1.5" stroke-miterlimit="10" stroke-linecap="round" stroke-linejoin="round"/>
</svg>
