<svg width="24" height="24" viewBox="0 0 24 24" fill="none" xmlns="http://www.w3.org/2000/svg">
<mask id="mask0_0_347" style="mask-type:luminance" maskUnits="userSpaceOnUse" x="-3" y="-3" width="30" height="30">
<rect x="-2.3998" y="-2.4008" width="28.8016" height="28.8016" fill="white"/>
</mask>
<g mask="url(#mask0_0_347)">
<path fill-rule="evenodd" clip-rule="evenodd" d="M17.4804 24.0001C17.4864 24.0001 17.508 24.0001 17.514 24.0001C18.1477 24.0001 18.7465 23.7505 19.2001 23.2969L22.4547 20.0423C22.9239 19.5731 22.9239 18.8146 22.4547 18.3454L17.6544 13.5451C17.1852 13.0759 16.4268 13.0759 15.9576 13.5451L14.0446 15.4581C13.1578 15.194 11.5029 14.594 10.454 13.5451C9.40518 12.4963 8.80515 10.8414 8.54114 9.95455L10.454 8.04164C10.9233 7.57242 10.9233 6.81398 10.454 6.34475L5.65378 1.54448C5.20375 1.09446 4.40691 1.09446 3.95688 1.54448L0.703499 4.79906C0.247474 5.25509 -0.00934069 5.88152 0.000259869 6.52116C0.0278614 8.23005 0.480287 14.1656 5.15815 18.8434C9.83601 23.5213 15.7715 23.9725 17.4804 24.0001ZM4.80653 4.08981L7.9099 7.19318L6.35822 8.74487C6.0714 9.03049 5.94899 9.44331 6.033 9.83933C6.0618 9.97734 6.76624 13.2499 8.75835 15.242C10.7505 17.2341 14.023 17.9386 14.1611 17.9674C14.5607 18.0514 14.9699 17.929 15.2555 17.6422L16.8072 16.0905L19.9106 19.1939L17.5032 21.6C16.0056 21.5748 10.8813 21.1728 6.85504 17.1453C2.81562 13.1059 2.4244 7.96363 2.4004 6.49594L4.80653 4.08981ZM21.6003 10.7994H24.0004C24.0004 4.64306 19.3525 0 13.1878 0V2.40013C18.0625 2.40013 21.6003 5.93193 21.6003 10.7994Z" fill="#878A92"/>
<path fill-rule="evenodd" clip-rule="evenodd" d="M13.1994 7.19973C15.7231 7.19973 16.7996 8.27619 16.7996 10.7999H19.1997C19.1997 6.92972 17.0696 4.7996 13.1994 4.7996V7.19973H13.1994Z" fill="#878A92"/>
</g>
</svg>
