<svg width="18" height="21" viewBox="0 0 18 21" fill="none" xmlns="http://www.w3.org/2000/svg">
<path d="M5.52324 18.8717L5.52338 18.8718C6.5011 19.8126 7.75313 20.2817 9.00505 20.2817C10.2574 20.2817 11.5083 19.8124 12.4748 18.8735L12.4767 18.8717C15.3492 16.1097 18.3759 11.8637 17.252 6.90674L5.52324 18.8717ZM5.52324 18.8717C2.65112 16.11 -0.37595 11.8538 0.747933 6.8966L5.52324 18.8717ZM9.00505 0.507042C12.4184 0.507042 16.2518 2.50649 17.252 6.90649L0.747989 6.89635C1.74787 2.49745 5.59037 0.507042 8.99491 0.507042H8.99497H8.99503H8.99508H8.99514H8.9952H8.99526H8.99532H8.99538H8.99543H8.99549H8.99555H8.9956H8.99566H8.99572H8.99577H8.99583H8.99588H8.99594H8.996H8.99605H8.9961H8.99616H8.99621H8.99627H8.99632H8.99638H8.99643H8.99648H8.99653H8.99659H8.99664H8.99669H8.99674H8.9968H8.99685H8.9969H8.99695H8.997H8.99705H8.9971H8.99715H8.9972H8.99725H8.9973H8.99735H8.9974H8.99745H8.9975H8.99755H8.9976H8.99765H8.99769H8.99774H8.99779H8.99784H8.99788H8.99793H8.99798H8.99802H8.99807H8.99812H8.99816H8.99821H8.99825H8.9983H8.99835H8.99839H8.99844H8.99848H8.99852H8.99857H8.99861H8.99866H8.9987H8.99874H8.99879H8.99883H8.99887H8.99891H8.99896H8.999H8.99904H8.99908H8.99912H8.99917H8.99921H8.99925H8.99929H8.99933H8.99937H8.99941H8.99945H8.99949H8.99953H8.99957H8.99961H8.99965H8.99969H8.99973H8.99976H8.9998H8.99984H8.99988H8.99992H8.99995H8.99999H9.00003H9.00007H9.0001H9.00014H9.00018H9.00021H9.00025H9.00029H9.00032H9.00036H9.00039H9.00043H9.00046H9.0005H9.00053H9.00057H9.0006H9.00064H9.00067H9.0007H9.00074H9.00077H9.0008H9.00084H9.00087H9.0009H9.00094H9.00097H9.001H9.00103H9.00106H9.0011H9.00113H9.00116H9.00119H9.00122H9.00125H9.00128H9.00131H9.00134H9.00137H9.0014H9.00143H9.00146H9.00149H9.00152H9.00155H9.00158H9.00161H9.00164H9.00167H9.0017H9.00172H9.00175H9.00178H9.00181H9.00184H9.00186H9.00189H9.00192H9.00195H9.00197H9.002H9.00203H9.00205H9.00208H9.0021H9.00213H9.00216H9.00218H9.00221H9.00223H9.00226H9.00228H9.00231H9.00233H9.00236H9.00238H9.00241H9.00243H9.00245H9.00248H9.0025H9.00253H9.00255H9.00257H9.0026H9.00262H9.00264H9.00266H9.00269H9.00271H9.00273H9.00275H9.00278H9.0028H9.00282H9.00284H9.00286H9.00288H9.0029H9.00293H9.00295H9.00297H9.00299H9.00301H9.00303H9.00305H9.00307H9.00309H9.00311H9.00313H9.00315H9.00317H9.00319H9.00321H9.00322H9.00324H9.00326H9.00328H9.0033H9.00332H9.00334H9.00335H9.00337H9.00339H9.00341H9.00342H9.00344H9.00346H9.00348H9.00349H9.00351H9.00353H9.00354H9.00356H9.00358H9.00359H9.00361H9.00363H9.00364H9.00366H9.00367H9.00369H9.0037H9.00372H9.00374H9.00375H9.00377H9.00378H9.0038H9.00381H9.00382H9.00384H9.00385H9.00387H9.00388H9.0039H9.00391H9.00392H9.00394H9.00395H9.00396H9.00398H9.00399H9.004H9.00402H9.00403H9.00404H9.00406H9.00407H9.00408H9.00409H9.0041H9.00412H9.00413H9.00414H9.00415H9.00416H9.00418H9.00419H9.0042H9.00421H9.00422H9.00423H9.00424H9.00425H9.00427H9.00428H9.00429H9.0043H9.00431H9.00432H9.00433H9.00434H9.00435H9.00436H9.00437H9.00438H9.00439H9.0044H9.00441H9.00442H9.00443H9.00444H9.00444H9.00445H9.00446H9.00447H9.00448H9.00449H9.0045H9.0045H9.00451H9.00452H9.00453H9.00454H9.00455H9.00455H9.00456H9.00457H9.00458H9.00459H9.00459H9.0046H9.00462H9.00463H9.00464H9.00466H9.00467H9.00468H9.0047H9.00471H9.00472H9.00473H9.00474H9.00476H9.00477H9.00478H9.00479H9.0048H9.00481H9.00482H9.00483H9.00484H9.00485H9.00485H9.00486H9.00487H9.00488H9.00489H9.00489H9.0049H9.00491H9.00492H9.00493H9.00494H9.00495H9.00496H9.00497H9.00497H9.00498H9.00499H9.005H9.00501H9.00502H9.00502H9.00503H9.00504H9.00505ZM5.30364 8.68056C5.30364 10.7251 6.96051 12.382 9.00505 12.382C11.0496 12.382 12.7065 10.7251 12.7065 8.68056C12.7065 6.63603 11.0496 4.97915 9.00505 4.97915C6.96051 4.97915 5.30364 6.63603 5.30364 8.68056Z" fill="#BEBEBE" stroke="#BEBEBE"/>
</svg>
