<svg width="26" height="26" viewBox="0 0 26 26" fill="none" xmlns="http://www.w3.org/2000/svg">
<path d="M12.9998 11.2201L13.4758 10.3957C13.619 10.1477 13.5235 9.92874 13.4758 9.84612C13.4281 9.7635 13.2862 9.57129 12.9998 9.57129C12.7134 9.57129 12.5715 9.76345 12.5239 9.84612C12.4762 9.92874 12.3807 10.1477 12.5239 10.3957L12.9998 11.2201Z" fill="#FF5F5F"/>
<path d="M7.79242 18.0414C7.74473 18.124 7.64921 18.3429 7.79242 18.591C7.93557 18.839 8.17292 18.8658 8.26834 18.8658C8.36376 18.8658 8.60111 18.839 8.74431 18.5909L9.22029 17.7666H8.26834C7.98198 17.7666 7.84015 17.9588 7.79242 18.0414Z" fill="#FF5F5F"/>
<path d="M11.8594 16.2432H14.1418L13.0006 14.2666L11.8594 16.2432Z" fill="#FF5F5F"/>
<path d="M17.0625 6.60156C16.6418 6.60156 16.3008 6.26052 16.3008 5.83984V0H5.38281C4.12278 0 3.09766 1.02512 3.09766 2.28516V23.7148C3.09766 24.9749 4.12278 26 5.38281 26H20.6172C21.8772 26 22.9023 24.9749 22.9023 23.7148V6.60156H17.0625ZM19.527 19.3531C19.1524 20.0021 18.4812 20.3896 17.7318 20.3896C16.9823 20.3896 16.3112 20.0022 15.9365 19.3531L15.0207 17.767H10.9793L10.0635 19.3531C9.68881 20.0021 9.01763 20.3896 8.2682 20.3896C8.26815 20.3896 8.2682 20.3896 8.26815 20.3896C7.51872 20.3896 6.8476 20.0021 6.47293 19.3531C6.09822 18.7041 6.09817 17.9291 6.47293 17.2801C6.84765 16.6311 7.51877 16.2436 8.2682 16.2436H10.0997L12.1204 12.7436L11.2047 11.1575C10.83 10.5084 10.8299 9.73345 11.2047 9.08441C11.5794 8.43538 12.2505 8.04786 13 8.04786C13.7495 8.04786 14.4206 8.43532 14.7953 9.08441C15.1701 9.73345 15.17 10.5084 14.7953 11.1575L13.8795 12.7436L15.9003 16.2436H17.7317C18.4812 16.2436 19.1523 16.6311 19.527 17.2801C19.9018 17.9291 19.9017 18.7041 19.527 19.3531Z" fill="#FF5F5F"/>
<path d="M17.7312 17.7666H16.7793L17.2553 18.591C17.3985 18.839 17.6358 18.8658 17.7312 18.8658C17.8267 18.8658 18.064 18.839 18.2072 18.591C18.3504 18.3429 18.2549 18.124 18.2072 18.0414C18.1595 17.9588 18.0176 17.7666 17.7312 17.7666Z" fill="#FF5F5F"/>
<path d="M17.8242 0.446289V5.0784H22.456L17.8242 0.446289Z" fill="#FF5F5F"/>
</svg>
