<svg width="24" height="24" viewBox="0 0 24 24" fill="none" xmlns="http://www.w3.org/2000/svg">
<path d="M22.3255 12C22.3255 17.7026 17.7026 22.3255 12 22.3255V24C18.6274 24 24 18.6274 24 12H22.3255ZM12 22.3255C6.29733 22.3255 1.67442 17.7026 1.67442 12H0C0 18.6274 5.37257 24 12 24V22.3255ZM1.67442 12C1.67442 6.29733 6.29733 1.67442 12 1.67442V0C5.37257 0 0 5.37257 0 12H1.67442ZM12 1.67442C17.7026 1.67442 22.3255 6.29733 22.3255 12H24C24 5.37257 18.6274 0 12 0V1.67442Z" fill="#93989A"/>
<path d="M7.53498 1.11619C7.0726 1.11619 6.69777 1.49102 6.69777 1.95339C6.69777 2.41577 7.0726 2.7906 7.53498 2.7906V1.11619ZM8.65126 1.95339L9.44536 2.21855C9.53063 1.96322 9.4879 1.68246 9.33055 1.46404C9.17322 1.24563 8.92045 1.11619 8.65126 1.11619V1.95339ZM8.65126 22.0464V22.8836C8.92045 22.8836 9.17322 22.7541 9.33055 22.5358C9.4879 22.3173 9.53063 22.0366 9.44536 21.7813L8.65126 22.0464ZM7.53498 21.2092C7.0726 21.2092 6.69777 21.584 6.69777 22.0464C6.69777 22.5087 7.0726 22.8836 7.53498 22.8836V21.2092ZM7.53498 2.7906H8.65126V1.11619H7.53498V2.7906ZM7.85715 1.68824C5.62294 8.3794 5.62294 15.6204 7.85715 22.3115L9.44536 21.7813C7.32609 15.4342 7.32609 8.5655 9.44536 2.21855L7.85715 1.68824ZM8.65126 21.2092H7.53498V22.8836H8.65126V21.2092Z" fill="#93989A"/>
<path d="M16.143 1.68847C15.9965 1.24989 15.5223 1.01307 15.0837 1.15951C14.6451 1.30595 14.4083 1.7802 14.5547 2.21878L16.143 1.68847ZM14.5547 21.7815C14.4083 22.2201 14.6451 22.6943 15.0837 22.8407C15.5223 22.9872 15.9965 22.7503 16.143 22.3117L14.5547 21.7815ZM14.5547 2.21878C16.674 8.56573 16.674 15.4345 14.5547 21.7815L16.143 22.3117C18.3772 15.6206 18.3772 8.37963 16.143 1.68847L14.5547 2.21878Z" fill="#93989A"/>
<path d="M1.11619 16.4649C1.11619 16.9273 1.49102 17.3021 1.95339 17.3021C2.41577 17.3021 2.7906 16.9273 2.7906 16.4649H1.11619ZM1.95339 15.3486L2.21855 14.5545C1.96322 14.4693 1.68246 14.512 1.46404 14.6693C1.24563 14.8267 1.11619 15.0794 1.11619 15.3486H1.95339ZM22.0464 15.3486H22.8836C22.8836 15.0794 22.7541 14.8267 22.5358 14.6693C22.3173 14.512 22.0366 14.4693 21.7813 14.5545L22.0464 15.3486ZM21.2092 16.4649C21.2092 16.9273 21.584 17.3021 22.0464 17.3021C22.5087 17.3021 22.8836 16.9273 22.8836 16.4649H21.2092ZM2.7906 16.4649V15.3486H1.11619V16.4649H2.7906ZM1.68824 16.1427C8.3794 18.3769 15.6204 18.3769 22.3115 16.1427L21.7813 14.5545C15.4342 16.6738 8.5655 16.6738 2.21855 14.5545L1.68824 16.1427ZM21.2092 15.3486V16.4649H22.8836V15.3486H21.2092Z" fill="#93989A"/>
<path d="M1.68847 7.85715C1.24989 8.00359 1.01307 8.47784 1.15951 8.91642C1.30595 9.35499 1.7802 9.59181 2.21878 9.44536L1.68847 7.85715ZM21.7815 9.44536C22.2201 9.59181 22.6943 9.35499 22.8407 8.91642C22.9872 8.47784 22.7503 8.00359 22.3117 7.85715L21.7815 9.44536ZM2.21878 9.44536C8.56573 7.32609 15.4345 7.32609 21.7815 9.44536L22.3117 7.85715C15.6206 5.62294 8.37963 5.62294 1.68847 7.85715L2.21878 9.44536Z" fill="#93989A"/>
</svg>
