<svg width="17" height="20" viewBox="0 0 17 20" fill="none" xmlns="http://www.w3.org/2000/svg">
<path d="M16.6066 16.8731L15.1755 14.488C14.5145 13.3869 14.1652 12.1268 14.1652 10.8425V8.74902C14.1616 6.17137 12.4685 3.90092 9.99901 3.16215V1.66648C9.99901 0.746109 9.2529 0 8.33253 0C7.41216 0 6.66605 0.746109 6.66605 1.66648V3.16215C4.19653 3.90092 2.50343 6.17137 2.49985 8.74902V10.8384C2.49987 12.1225 2.15103 13.3825 1.49059 14.4838L0.0594981 16.8689C-0.0177407 16.9975 -0.0199199 17.1577 0.0537924 17.2883C0.127505 17.4189 0.265731 17.4998 0.415708 17.5001H16.2473C16.3974 17.5002 16.536 17.4194 16.61 17.2887C16.6839 17.158 16.6819 16.9977 16.6045 16.8689L16.6066 16.8731Z" fill="#00B97D"/>
<path d="M5.70882 18.3324C6.18624 19.35 7.20895 19.9999 8.333 19.9999C9.45706 19.9999 10.4798 19.35 10.9572 18.3324L5.70882 18.3324Z" fill="#00B97D"/>
<path d="M12.4997 7.81163C14.5131 7.81163 16.1452 6.17951 16.1452 4.1662C16.1452 2.15289 14.5131 0.520775 12.4997 0.520775C10.4864 0.520775 8.85432 2.15289 8.85432 4.1662C8.85432 6.17951 10.4864 7.81163 12.4997 7.81163Z" fill="#E60000" stroke="white"/>
</svg>
