<svg width="21" height="21" viewBox="0 0 21 21" fill="none" xmlns="http://www.w3.org/2000/svg">
<path d="M7.79058 4.14997C7.61006 3.96627 7.3855 3.83186 7.1383 3.75955C6.8911 3.68724 6.62951 3.67944 6.37844 3.73689C6.12509 3.79289 5.89004 3.9121 5.69519 4.08344C5.50035 4.25477 5.35204 4.47264 5.2641 4.71674L0.0862476 18.9438C0.00550151 19.1754 -0.0190273 19.4228 0.0146849 19.6657C0.0483971 19.9086 0.139384 20.14 0.280138 20.3408C0.420892 20.5416 0.607378 20.7061 0.82421 20.8206C1.04104 20.9352 1.282 20.9965 1.52721 20.9996C1.70687 20.9999 1.88536 20.9707 2.05556 20.9131L16.2826 15.7353C16.5267 15.6473 16.7446 15.499 16.916 15.3042C17.0873 15.1093 17.2065 14.8743 17.2625 14.6209C17.32 14.3699 17.3121 14.1083 17.2398 13.8611C17.1675 13.6139 17.0331 13.3893 16.8494 13.2088L7.79058 4.14997ZM7.2142 17.3972L3.60219 13.7852L4.86063 10.3077L10.6917 16.1388L7.2142 17.3972ZM1.53681 19.4626L3.0162 15.3799L5.61954 17.9832L1.53681 19.4626ZM12.2864 15.5528L5.44662 8.71301L6.70506 5.23549L15.7639 14.2943L12.2864 15.5528ZM12.5458 6.1481C12.5599 5.62835 12.6843 5.11753 12.9108 4.6495C13.4199 3.63122 14.3806 3.07405 15.6198 3.07405C16.2634 3.07405 16.6765 2.8531 16.9359 2.38239C17.0681 2.11584 17.1434 1.82466 17.1568 1.52742C17.1568 1.42694 17.1768 1.32747 17.2155 1.23476C17.2542 1.14205 17.311 1.05796 17.3825 0.987366C17.454 0.916768 17.5388 0.861069 17.632 0.8235C17.7252 0.785931 17.8249 0.76724 17.9253 0.768512C18.1292 0.768512 18.3246 0.84948 18.4688 0.993604C18.6129 1.13773 18.6939 1.3332 18.6939 1.53702C18.6939 2.77625 17.8773 4.61107 15.6198 4.61107C14.9762 4.61107 14.5631 4.83202 14.3037 5.30274C14.1715 5.56929 14.0963 5.86046 14.0828 6.1577C14.0828 6.25818 14.0628 6.35766 14.0241 6.45036C13.9854 6.54307 13.9286 6.62716 13.8571 6.69776C13.7856 6.76836 13.7008 6.82405 13.6076 6.86162C13.5145 6.89919 13.4147 6.91788 13.3143 6.91661C13.1104 6.91661 12.915 6.83564 12.7708 6.69152C12.6267 6.54739 12.5458 6.35192 12.5458 6.1481ZM10.2402 3.07405V0.768512C10.2402 0.56469 10.3212 0.369216 10.4653 0.225092C10.6094 0.080968 10.8049 0 11.0087 0C11.2126 0 11.408 0.080968 11.5522 0.225092C11.6963 0.369216 11.7772 0.56469 11.7772 0.768512V3.07405C11.7772 3.27787 11.6963 3.47335 11.5522 3.61747C11.408 3.76159 11.2126 3.84256 11.0087 3.84256C10.8049 3.84256 10.6094 3.76159 10.4653 3.61747C10.3212 3.47335 10.2402 3.27787 10.2402 3.07405ZM20.0099 10.9801C20.1542 11.1258 20.2352 11.3226 20.2352 11.5277C20.2352 11.7328 20.1542 11.9295 20.0099 12.0752C19.863 12.2173 19.6667 12.2967 19.4624 12.2967C19.258 12.2967 19.0617 12.2173 18.9148 12.0752L17.3778 10.5382C17.2552 10.3889 17.1926 10.1993 17.2021 10.0064C17.2115 9.81347 17.2925 9.63095 17.429 9.49436C17.5656 9.35777 17.7481 9.27687 17.9411 9.26739C18.134 9.25792 18.3236 9.32055 18.4729 9.4431L20.0099 10.9801ZM20.471 6.87819L18.1655 7.6467C18.0883 7.6734 18.007 7.6864 17.9253 7.68512C17.7426 7.68517 17.5658 7.62007 17.4266 7.50151C17.2875 7.38295 17.1952 7.21869 17.1663 7.03822C17.1374 6.85774 17.1737 6.67287 17.2688 6.51678C17.3639 6.36069 17.5115 6.2436 17.6852 6.18652L19.9907 5.41801C20.0866 5.38647 20.1877 5.37413 20.2884 5.38168C20.389 5.38923 20.4872 5.41654 20.5773 5.46203C20.6674 5.50752 20.7477 5.57032 20.8135 5.64683C20.8793 5.72334 20.9294 5.81206 20.961 5.90794C20.9925 6.00382 21.0048 6.10496 20.9973 6.20561C20.9897 6.30626 20.9624 6.40443 20.9169 6.49453C20.8715 6.58463 20.8087 6.66488 20.7321 6.73071C20.6556 6.79653 20.5669 6.84665 20.471 6.87819Z" fill="#3E4B65"/>
</svg>
