<svg width="15" height="13" viewBox="0 0 15 13" fill="none" xmlns="http://www.w3.org/2000/svg">
<path d="M3.27513 6.91308V12.0499C3.26648 12.2533 3.37004 12.445 3.54485 12.5493C3.71966 12.6535 3.93756 12.6535 4.11237 12.5493C4.28718 12.445 4.39074 12.2533 4.3821 12.0499V6.91308C4.36949 6.61655 4.12542 6.38263 3.82861 6.38263C3.53181 6.38263 3.28774 6.61655 3.27513 6.91308Z" fill="#00B97D"/>
<path d="M1.53716 12.6087H2.75613V6.50887C2.7608 6.47973 2.76381 6.45035 2.76513 6.42087C2.76513 3.80643 4.88455 1.687 7.49899 1.687C10.1134 1.687 12.2329 3.80643 12.2329 6.42087C12.2338 6.46045 12.2378 6.4999 12.2449 6.53887V12.6077H13.4638C14.3264 12.5924 15.0137 11.8814 14.9998 11.0187V7.83883C15.0066 7.14088 14.5558 6.5207 13.8898 6.31187C13.846 2.81322 10.9974 0 7.49849 0C3.99957 0 1.15094 2.81322 1.10718 6.31187C0.442153 6.5215 -0.00738209 7.14159 0.000207847 7.83883V11.0187C-0.0137192 11.8819 0.673995 12.5934 1.53716 12.6087Z" fill="#00B97D"/>
<path d="M10.6189 6.91268V12.0495C10.6189 12.3552 10.8667 12.603 11.1724 12.603C11.4781 12.603 11.7259 12.3552 11.7259 12.0495V6.91268C11.7259 6.607 11.4781 6.35919 11.1724 6.35919C10.8667 6.35919 10.6189 6.607 10.6189 6.91268H10.6189Z" fill="#00B97D"/>
</svg>
