<svg width="17" height="17" viewBox="0 0 17 17" fill="none" xmlns="http://www.w3.org/2000/svg">
<path d="M12.7827 16.9268H4.22166C3.87066 16.9268 3.57958 16.6357 3.57958 16.2847C3.57958 15.9337 3.87066 15.6426 4.22166 15.6426H12.7827C13.1337 15.6426 13.4248 15.9337 13.4248 16.2847C13.4248 16.6357 13.1337 16.9268 12.7827 16.9268Z" fill="#CAC3AA"/>
<path d="M15.6512 2.81872L12.2267 5.26717C11.773 5.59249 11.1224 5.39559 10.9255 4.87337L9.30743 0.558607C9.03348 -0.186202 7.98047 -0.186202 7.70652 0.558607L6.07992 4.86481C5.88302 5.39559 5.24094 5.59249 4.78721 5.25861L1.3628 2.81016C0.677914 2.33074 -0.229556 3.00706 0.0529585 3.80324L3.61435 13.7768C3.7342 14.1193 4.05952 14.3419 4.41908 14.3419H12.5777C12.9373 14.3419 13.2626 14.1107 13.3825 13.7768L16.9439 3.80324C17.2349 3.00706 16.3275 2.33074 15.6512 2.81872ZM10.643 10.7206H6.36244C6.01144 10.7206 5.72036 10.4295 5.72036 10.0785C5.72036 9.72747 6.01144 9.4364 6.36244 9.4364H10.643C10.994 9.4364 11.285 9.72747 11.285 10.0785C11.285 10.4295 10.994 10.7206 10.643 10.7206Z" fill="#CAC3AA"/>
</svg>
