<svg width="30" height="30" viewBox="0 0 30 30" fill="none" xmlns="http://www.w3.org/2000/svg">
<g clip-path="url(#clip0_52_75462)">
<path d="M13.2183 19.4062C13.2183 19.4062 10.7808 20.25 10.4995 22.875L10.4058 24.75C10.4058 24.75 9.09326 24 9.65576 22.0312C10.2183 20.0625 11.7183 19.7812 13.2183 19.4062Z" fill="#F49937"/>
<path d="M21.3758 19.3125C22.7821 19.7813 24.0946 21.0938 24.4696 22.875C24.9384 24.6562 24.2821 26.9062 23.0633 27.9375C22.2196 28.5938 21.1883 28.7813 20.1571 28.7813C17.8133 28.7813 15.3758 27.9375 13.0321 27C12.2821 26.7188 11.4383 26.4375 10.6883 25.875C10.0321 25.3125 9.37585 24.4688 9.2821 23.4375C9.0946 22.0313 9.93835 20.625 10.9696 19.875C12.7508 18.6563 14.5321 18.1875 16.3133 18.1875C17.9071 18.1875 19.8758 18.75 21.3758 19.3125Z" fill="#CCCCCC"/>
<path d="M20.9078 20.5316C22.1266 20.9066 23.3453 22.0316 23.7203 23.4378C24.0953 24.9378 23.5328 26.8128 22.4078 27.6566C21.6578 28.2191 20.7203 28.4066 19.7828 28.4066C17.6266 28.4066 15.4703 27.6566 13.3141 27.0003C12.5641 26.7191 11.9078 26.5316 11.2516 26.0628C10.5953 25.5941 10.1266 24.8441 10.0328 24.0003C9.84533 22.8753 10.5953 21.6566 11.5328 21.0941C13.1266 20.0628 14.7203 19.6878 16.4078 19.6878C17.9078 19.5941 19.5953 20.0628 20.9078 20.5316Z" fill="#CCCCCC"/>
<path d="M20.7179 19.5941C21.9367 19.9691 22.9679 21.0941 23.3429 22.5003C23.7179 24.0003 23.1554 25.8753 22.1242 26.7191C21.3742 27.2816 20.5304 27.4691 19.6867 27.4691C17.6242 27.4691 15.6554 26.7191 13.5929 26.0628C12.9367 25.7816 12.1867 25.5941 11.6242 25.1253C11.0617 24.6566 10.4992 23.9066 10.4054 23.0628C10.3117 21.9378 10.9679 20.7191 11.8117 20.1566C13.3117 19.1253 14.8117 18.7503 16.4054 18.7503C17.8117 18.6566 19.4054 19.1253 20.7179 19.5941Z" fill="white"/>
<path d="M19.875 20.25C19.875 20.25 16.5 21.6562 13.9688 25.5937C13.9688 25.5937 13.0313 22.2188 13.5938 19.6875C13.5938 19.7812 17.0625 21.2813 19.875 20.25Z" fill="#CCCCCC"/>
<path d="M18.6568 20.25C18.6568 20.25 16.1255 21.2812 14.2505 24.2812C14.2505 24.2812 13.5943 21.75 13.9693 19.875C13.9693 19.875 16.5943 21 18.6568 20.25Z" fill="#FAEACF"/>
<path opacity="0.28" d="M21.6162 24.7819C22.0475 23.4522 21.6784 22.1411 20.7919 21.8536C19.9054 21.5661 18.8372 22.411 18.4059 23.7407C17.9746 25.0705 18.3436 26.3815 19.2301 26.669C20.1166 26.9565 21.1849 26.1117 21.6162 24.7819Z" fill="white"/>
<path d="M13.9687 19.125L13.6875 20.3438C13.6875 20.3438 16.5 21.2812 18.4688 21L20.1562 20.625L19.9687 19.5L13.9687 19.125Z" fill="#FAD395"/>
<path d="M18.9374 4.21875L19.4999 2.4375L19.1249 1.59375L21.2811 2.8125L22.7811 6.9375L18.2811 6L18.9374 4.21875ZM9.28113 7.03125C9.28113 7.03125 8.06238 8.8125 8.62488 11.625L10.0311 9.28125L9.46863 6.84375L9.28113 7.03125ZM11.7186 3.84375C11.7186 3.84375 11.6249 2.71875 10.6874 1.6875C10.6874 1.6875 12.3749 1.59375 14.0624 2.4375L14.1561 3.28125L13.2186 4.875L11.7186 3.84375Z" fill="#9A4C18"/>
<path d="M17.9064 20.4462C22.3673 19.8201 25.4818 15.7378 24.8628 11.3282C24.2439 6.91858 20.1259 3.85147 15.665 4.47761C11.2041 5.10374 8.08964 9.18602 8.70858 13.5956C9.32752 18.0052 13.4455 21.0723 17.9064 20.4462Z" fill="#9A4C18"/>
<path d="M17.3981 19.8033C21.5514 19.2203 24.434 15.2978 23.8366 11.042C23.2393 6.78619 19.3882 3.80878 15.2349 4.39173C11.0817 4.97469 8.19909 8.89726 8.79644 13.153C9.39379 17.4088 13.2449 20.3862 17.3981 19.8033Z" fill="#E5895B"/>
<path d="M16.956 18.9576C20.8528 18.4106 23.5568 14.7251 22.9954 10.7257C22.434 6.72625 18.8199 3.9275 14.9231 4.47447C11.0262 5.02144 8.32226 8.707 8.88362 12.7064C9.44499 16.7058 13.0591 19.5046 16.956 18.9576Z" fill="#FAD395"/>
<path d="M20.1562 8.8125C20.1562 8.8125 22.125 8.8125 22.6875 8.4375C23.25 8.0625 24 8.0625 24.0938 7.5C24.0938 6.9375 22.9687 3.75 19.0312 3L21.2813 5.71875L20.1562 8.8125ZM9.65625 8.34375C9.65625 8.34375 8.90625 7.3125 9.375 6C9.84375 4.6875 8.90625 2.8125 8.90625 2.8125L12.375 3.5625C12.375 3.5625 14.4375 4.125 14.25 5.0625C14.0625 6 13.4062 7.59375 13.3125 7.6875C13.2188 7.78125 12.6562 8.8125 12.6562 8.8125L9.65625 8.34375Z" fill="#9A4C18"/>
<path d="M10.1244 8.625C10.1244 8.625 9.7494 7.125 10.3119 6.5625C10.8744 6.09375 10.1244 3.9375 10.1244 3.9375L13.5932 4.6875C13.5932 4.6875 15.6557 5.25 15.4682 6.1875C15.2807 7.125 14.6244 8.71875 14.5307 8.8125C14.4369 8.90625 13.9682 9.46875 13.9682 9.46875L10.1244 8.625ZM18.9369 8.625C18.9369 8.625 20.9057 8.625 21.4682 8.25C22.0307 7.875 22.7807 7.875 22.8744 7.3125C22.8744 6.75 21.7494 3.5625 17.8119 2.8125L20.0619 5.625L18.9369 8.625Z" fill="#DB7D1F"/>
<path d="M12.0937 8.62532C12.0937 8.62532 11.1563 8.43782 11.5313 6.75032C12 5.06282 13.5938 2.62532 13.5938 2.62532L10.9688 0.187824C10.9688 0.187824 14.5313 -0.562176 17.4375 1.96907C17.4375 1.96907 20.8125 3.65657 20.9062 4.87532C21.0937 6.09407 22.5 8.25032 21.2812 9.00032C20.3438 9.56282 12.5625 9.00032 12.0937 8.62532Z" fill="#9A4C18"/>
<path d="M12.6569 8.7181C12.6569 8.7181 12.2819 7.49935 12.6569 6.18685C12.9382 4.87435 14.4382 2.81185 14.4382 2.81185L13.1257 0.749349C13.1257 0.749349 14.9069 0.561849 17.1569 2.43685C17.1569 2.43685 19.6882 3.74935 19.8757 4.5931C19.9694 5.5306 19.8757 8.3431 19.0319 8.9056C18.1882 9.4681 12.9382 9.0931 12.6569 8.7181Z" fill="#F49937"/>
<path d="M14.3438 8.15625L15.1875 5.0625L14.8125 1.78125L16.9688 5.0625L16.5938 8.53125C16.5938 8.53125 14.9062 8.71875 14.3438 8.15625Z" fill="#FDE049"/>
<path d="M22.3125 5.53125L22.125 7.6875L20.4375 6.84375L21.2813 8.4375L23.625 7.875L22.3125 5.53125Z" fill="#9A4C18"/>
<path d="M19.2188 7.40625L20.7188 7.875L22.2188 6.84375L22.0312 8.0625L21.1875 8.53125L18.5625 9.1875L19.2188 7.40625ZM11.7188 6L11.9062 7.59375L13.2188 9L12.8438 8.90625L11.0625 8.53125L10.5 7.125L11.7188 6Z" fill="#DB7D1F"/>
<path d="M17.25 9.46875L18.5625 6.46875L18 3.5625L17.1562 2.34375C17.1562 2.34375 19.0313 3.28125 19.4063 3.65625C19.7813 4.03125 20.4375 5.0625 20.3438 5.4375C20.25 5.8125 19.6875 8.8125 19.6875 8.8125L19.125 9.1875C19.0313 9.1875 17.9063 9.5625 17.25 9.46875Z" fill="#DB7D1F"/>
<path d="M12.1876 6.1875L12.6563 6.09375C12.6563 6.09375 12.2813 7.5 12.7501 8.53125C12.7501 8.53125 11.5313 8.25 11.7188 6.375L12.1876 6.1875Z" fill="#9A4C18"/>
<path d="M20.1562 8.0625C20.1562 8.0625 21.8438 7.3125 21.5625 6C21.5625 6 22.125 7.03125 21.9375 7.6875C21.75 8.25 20.625 8.15625 20.625 8.15625L20.1562 8.0625Z" fill="#DB7D1F"/>
<path d="M12.8438 9.28125L13.9688 10.2187L18.1875 8.8125V7.40625L16.6875 9.09375L13.6875 8.8125L12.5625 8.34375L12.8438 9.28125Z" fill="#F49937"/>
<path d="M18.8439 9.09375C18.8439 9.09375 19.3127 9.5625 19.5939 9.9375L18.8439 11.0625C18.8439 11.0625 20.8127 10.875 21.0939 11.625C21.3752 12.4688 21.1877 13.5 21.1877 13.5L24.3752 12.75C24.3752 12.75 23.9064 9.1875 22.6877 7.78125L21.5627 7.21875L20.3439 8.25L18.8439 9.09375ZM10.8752 8.53125L8.71892 11.25C8.71892 11.25 8.53142 9.75 9.37517 7.875L10.8752 8.53125Z" fill="#DB7D1F"/>
<path d="M24.2812 13.6875L21.1875 13.5L21.0938 13.125L24.5625 12.1875L24.2812 13.6875Z" fill="#9A4C18"/>
<path d="M21.9375 13.0312L21.4687 11.1562C21.4687 11.1562 20.0625 10.7812 19.2187 10.7812L18.75 10.875L20.0625 11.3438L21.1875 13.4063L21.9375 13.0312Z" fill="#9A4C18"/>
<path d="M19.6875 10.9688L20.1562 9.84375L18.6562 8.625L16.875 9.65625L19.0312 9.375L18.75 10.875L19.6875 10.9688Z" fill="#9A4C18"/>
<path d="M18.4688 9.1875L13.875 10.7813L12.6562 9.09375L14.1563 9.9375L18.5625 8.625L18.4688 9.1875Z" fill="#9A4C18"/>
<path d="M13.9687 10.5937L11.625 10.4062L13.5938 9.9375L13.9687 10.5937ZM13.2188 9.65625L10.875 9.46875L8.71875 11.3438L10.3125 8.53125L12.75 9L13.125 9.5625" fill="#9A4C18"/>
<path d="M18.5625 8.8125L22.0312 8.4375L22.875 10.0312L21.2812 11.8125L20.625 11.5313L18.5625 8.8125ZM10.125 9.5625L12.6562 10.4063L13.7812 9.9375L13.3125 9.46875L11.25 9.1875L10.125 9.5625Z" fill="#9A4C18"/>
<path d="M18.5625 9.5625L21.6563 8.71875L22.3125 9.84375L19.875 11.8125L18.1875 11.25L18.5625 9.5625Z" fill="#FAD395"/>
<path d="M13.9688 18C13.9688 18 18.2813 18 20.3438 16.2188C20.3438 16.2188 20.25 17.625 19.4063 18.4688C19.4063 18.5625 16.7812 18.9375 13.9688 18Z" fill="white" stroke="#9A4C18" stroke-width="0.342562" stroke-miterlimit="10"/>
<path d="M21.7494 11.8132C21.7494 11.8132 17.9057 11.0632 14.9994 11.3445C14.9994 11.3445 14.6244 11.6257 14.1557 11.6257C13.6869 11.532 13.3119 11.157 13.3119 11.157C10.3119 10.2195 6.65567 10.2195 6.65567 10.2195C6.65567 10.2195 6.28067 10.1257 6.37442 10.782C6.46817 11.4382 6.93692 11.4382 6.93692 11.4382C6.93692 11.4382 7.03067 13.9695 7.96817 14.6257C8.90567 15.3757 11.3432 16.032 12.1869 16.1257C13.1244 16.3132 13.4994 16.032 13.6869 15.3757C13.8744 14.8132 13.8744 13.782 13.9682 13.2195C13.9682 12.9382 14.1557 12.8445 14.2494 12.8445H14.4369C14.5307 12.8445 14.7182 13.032 14.8119 13.3132C14.9994 13.8757 15.1869 14.907 15.4682 15.5632C15.7494 16.2195 16.2182 16.5945 17.1557 16.6882C17.9994 16.6882 20.4369 16.5945 21.2807 16.032C22.1244 15.4695 21.7494 12.9382 21.7494 12.9382C21.7494 12.9382 22.2182 13.032 22.2182 12.3757C22.1244 11.8132 21.7494 11.8132 21.7494 11.8132Z" fill="#4A4A4A"/>
<path d="M15.2812 11.7182C15.2812 11.7182 19.4062 11.5307 21.8438 12.1869V12.4682C21.8438 12.4682 17.5312 11.7182 15.2812 11.7182Z" fill="#6F6F6F"/>
<path d="M20.9062 12.7507C20.0625 12.5632 17.625 12.0945 15.375 12.4695C15.1875 12.4695 15.0938 12.657 15.0938 12.9382C15.1875 13.5007 15.4687 14.532 15.8437 15.5632C15.9375 15.7507 16.0313 15.9382 16.125 16.032C16.875 15.3757 18.9375 13.5945 20.9062 12.8445V12.7507Z" fill="white"/>
<path d="M21 12.75C19.0313 13.5 16.875 15.375 16.2188 15.9375C16.4062 16.125 16.5938 16.2187 16.875 16.2187C17.9063 16.3125 19.875 16.3125 21 15.5625C21.0938 15.5625 21.0938 15.4687 21.0938 15.375C21.1875 15.0937 21.4688 14.4375 21.2813 12.9375C21.1875 12.9375 21.0938 12.8438 21 12.75Z" fill="#CCCCCC"/>
<path d="M7.59375 11.4375C7.40625 11.4375 7.3125 11.625 7.3125 11.8125C7.40625 13.2187 7.78125 13.9687 7.96875 14.25C7.96875 14.3437 8.0625 14.3437 8.0625 14.4375C8.25 14.625 8.4375 14.7187 8.71875 14.9062C9.65625 14.25 11.25 13.0312 12.8437 12.2812C10.5937 11.4375 8.34375 11.3437 7.59375 11.4375Z" fill="white"/>
<path d="M13.0312 12.2813C12.9375 12.2813 12.8438 12.1875 12.75 12.1875C11.1563 12.8438 9.5625 14.0625 8.625 14.8125C9.84375 15.4688 11.3438 15.75 12.1875 15.8437C12.5625 15.9375 12.9375 15.6562 13.0312 15.2812C13.3125 14.3437 13.3125 13.3125 13.3125 12.75C13.4062 12.5625 13.3125 12.375 13.0312 12.2813Z" fill="#CCCCCC"/>
<path d="M22.5 20.9062C22.5 20.9062 22.9687 22.0312 23.25 24.6562V26.5312C23.25 26.5312 24.5625 25.7813 24.0938 23.8125C23.625 21.8438 23.25 21.6562 22.5 20.9062Z" fill="#F49937"/>
<path d="M20.1562 29.4379C20.1562 29.3441 20.1562 29.2504 20.0625 29.2504C20.25 28.7816 20.0625 28.1254 20.0625 28.1254L18.9375 24.9379C18.75 24.1879 18.1875 23.5316 17.4375 23.0629L17.3438 22.3129C17.3438 22.0316 17.0625 21.8441 16.7812 21.7504L15.8437 21.5629L15.5625 21.2816C15.375 21.1879 14.8125 21.2816 14.7188 21.3754C14.625 21.4691 14.3438 21.9379 14.3438 22.1254L14.4375 22.5941L10.7812 21.8441C10.6875 21.7504 10.5938 21.6566 10.4063 21.5629L10.2187 20.8129C10.125 20.5316 9.9375 20.3441 9.65625 20.2504L8.8125 20.0629L8.53125 19.7816C8.0625 19.6879 7.21875 19.9691 7.3125 20.4379L7.5 21.1879C7.3125 21.2816 7.21875 21.3754 7.03125 21.4691C6.84375 21.6566 6.75 21.9379 6.65625 22.2191V22.6879L6.84375 25.6879C6.84375 25.7816 6.84375 26.5316 7.5 27.1879C7.5 27.1879 7.5 27.2816 7.59375 27.3754C7.78125 27.6566 8.0625 27.8441 8.53125 28.0316C9.09375 28.2191 9.46875 28.2191 9.75 28.1254H9.84375C10.6875 28.0316 10.875 27.3754 10.875 27.3754L11.0625 26.9066L11.3438 27.0004C11.5313 27.2816 11.9062 27.4691 12.1875 27.5629C12.4688 27.6566 12.6563 27.5629 12.75 27.4691C12.9375 27.4691 13.125 27.4691 13.2188 27.3754L13.5 27.4691C13.6875 27.8441 14.0625 28.1254 14.4375 28.2191C14.7187 28.3129 14.9062 28.2191 15 28.1254C15.2812 28.2191 15.4688 28.1254 15.6562 27.9379L15.9375 28.4066C16.0312 28.5941 16.2187 28.6879 16.3125 28.8754C16.5937 29.2504 17.3437 29.9066 18.1875 30.0004H18.9375C19.6875 30.0004 20.1562 29.8129 20.1562 29.4379Z" fill="#4A0751"/>
<path d="M19.125 21.2804C19.125 21.2804 21.9375 21.1867 22.9688 22.0304C23.5313 22.4992 23.8125 24.0929 23.9063 25.2179C24 26.0617 23.4375 26.9054 22.5938 27.2804C21.9375 27.5617 21.0938 27.8429 20.8125 27.8429L19.2188 24.5617V21.2804H19.125Z" fill="#9A4C18"/>
<path d="M18.8438 21.4686C18.8438 21.4686 21.375 21.3748 22.3125 22.1248C22.7812 22.5936 23.0625 23.8123 23.1563 24.8436C23.25 25.7811 22.6875 26.5311 21.8437 26.9061C21.2812 27.0936 20.625 27.3748 20.3438 27.3748L18.8438 24.3748V21.4686Z" fill="#E5895B"/>
<path d="M19.2188 21.8445C19.2188 21.8445 21.375 21.7507 22.2188 22.407C22.5938 22.782 22.7812 23.7195 22.875 24.4695C22.9687 25.407 22.4062 26.2507 21.5625 26.532C21.0938 26.7195 20.7187 26.8132 20.5312 26.8132L19.2188 24.3757V21.8445Z" fill="#FAD395"/>
<path d="M16.9685 27.4692C16.781 27.6567 17.2497 28.313 17.6247 28.7817C17.8122 29.063 18.0935 29.1567 18.3747 29.1567L21.281 28.4067C21.4685 28.4067 21.5622 28.313 21.5622 28.1255C21.656 27.7505 21.3747 27.2817 21.1872 26.9067C20.9997 26.5317 20.6247 26.3442 20.3435 26.438C19.2185 26.5317 17.156 27.2817 16.9685 27.4692Z" fill="#9A4C18"/>
<path d="M17.2501 27.4697C17.0626 27.6572 17.5313 28.2197 17.8126 28.5947C18.0001 28.7822 18.1876 28.9697 18.4688 28.8759L21.0001 28.2197C21.0938 28.2197 21.1876 28.1259 21.2813 27.9384C21.3751 27.6572 21.0938 27.1885 20.9063 26.9072C20.7188 26.626 20.4376 26.4384 20.1563 26.5322C19.3126 26.7197 17.4376 27.2822 17.2501 27.4697Z" fill="#E5895B"/>
<path d="M16.7813 27.4697C16.5938 27.6572 17.0626 28.2197 17.3438 28.5947C17.5313 28.7822 17.7188 28.9697 18.0001 28.8759L20.5313 28.2197C20.6251 28.2197 20.7188 28.1259 20.8126 27.9384C20.9063 27.6572 20.6251 27.1885 20.4376 26.9072C20.2501 26.626 19.9688 26.4384 19.6876 26.5322C18.7501 26.6259 16.9688 27.2822 16.7813 27.4697Z" fill="#E5895B"/>
<path d="M16.7813 27.4697C16.5938 27.6572 17.0626 28.2197 17.3438 28.5947C17.5313 28.7822 17.7188 28.9697 18.0001 28.8759L20.5313 28.2197C20.6251 28.2197 20.7188 28.1259 20.8126 27.9384C20.9063 27.6572 20.6251 27.1885 20.4376 26.9072C20.2501 26.626 19.9688 26.4384 19.6876 26.5322C18.8438 26.7197 16.9688 27.2822 16.7813 27.4697Z" fill="#FAD395"/>
<path d="M8.53125 24.375C8.71875 24.4688 8.53125 25.2188 8.4375 25.7813C8.34375 26.0625 8.15625 26.25 7.875 26.3438L6.375 26.8125C6.1875 26.8125 6.09375 26.8125 5.90625 26.7188C5.625 26.4375 5.625 25.9688 5.625 25.5C5.625 25.125 5.90625 24.75 6.1875 24.6562C7.3125 24.375 8.34375 24.2813 8.53125 24.375Z" fill="#9A4C18"/>
<path d="M8.25 24.5619C8.4375 24.6557 8.25 25.3119 8.15625 25.7807C8.0625 26.0619 7.875 26.2494 7.6875 26.2494L6.46875 26.6244C6.375 26.6244 6.1875 26.6244 6.09375 26.5307C5.8125 26.3432 5.8125 25.8744 5.8125 25.4994C5.8125 25.1244 6 24.8432 6.28125 24.7494C7.3125 24.4682 7.96875 24.4682 8.25 24.5619Z" fill="#E5895B"/>
<path d="M7.96875 24.6559C8.15625 24.7497 7.96875 25.3122 7.875 25.6872C7.78125 25.8747 7.6875 26.0622 7.5 26.0622L6.5625 26.4372C6.46875 26.4372 6.375 26.4372 6.28125 26.3434C6.09375 26.1559 6.09375 25.7809 6.09375 25.4997C6.09375 25.2184 6.28125 24.9372 6.46875 24.8434C7.21875 24.6559 7.78125 24.5622 7.96875 24.6559Z" fill="#FAD395"/>
<path d="M20.0625 28.7816C20.0625 28.6879 20.0625 28.5941 19.9688 28.5941C20.1562 28.1254 19.9688 27.4691 19.9688 27.4691L18.8438 24.2816C18.6563 23.5316 18.0938 22.8754 17.3438 22.4066L17.25 21.6566C17.25 21.3754 16.9688 21.1879 16.6875 21.0941L15.75 20.9066L15.4688 20.6254C15.2812 20.5316 14.7188 20.6254 14.625 20.7191C14.5313 20.8129 14.25 21.2816 14.25 21.4691L14.3437 21.9379L10.6875 21.1879C10.5937 21.0941 10.5 21.0004 10.3125 20.9066L10.125 20.1566C10.0312 19.8754 9.84375 19.6879 9.5625 19.5941L8.71875 19.4066L8.4375 19.1254C7.96875 19.0316 7.125 19.3129 7.21875 19.7816L7.3125 20.5316C7.125 20.6254 7.03125 20.7191 6.84375 20.8129C6.65625 21.0004 6.5625 21.2816 6.46875 21.5629V22.0316L6.65625 25.0316C6.65625 25.1254 6.65625 25.8754 7.3125 26.5316L7.5 26.7191C7.6875 27.0004 7.96875 27.1879 8.4375 27.3754C9 27.5629 9.375 27.5629 9.65625 27.4691H9.75C10.5937 27.3754 10.7812 26.7191 10.7812 26.7191L10.9687 26.2504L11.25 26.3441C11.4375 26.6254 11.8125 26.8129 12.0937 26.9066C12.375 27.0004 12.5625 26.9066 12.6562 26.8129C12.8438 26.8129 13.0312 26.8129 13.125 26.7191L13.4062 26.8129C13.5938 27.1879 13.9687 27.4691 14.3437 27.5629C14.625 27.6566 14.8125 27.5629 14.9062 27.4691C15.1875 27.5629 15.375 27.4691 15.5625 27.2816L15.8438 27.7504C15.9375 27.9379 16.125 28.0316 16.2188 28.2191C16.5 28.5941 17.25 29.2504 18.0938 29.3441H18.8438C19.6875 29.3441 20.1562 29.1566 20.0625 28.7816Z" fill="#780364"/>
<path d="M16.5935 25.2188C16.406 25.4062 16.8747 26.1563 17.2497 26.7188C17.4372 27 17.8122 27.1875 18.0935 27.0938L21.4685 26.1562C21.656 26.1562 21.7497 25.9688 21.8435 25.7813C21.9372 25.3125 21.656 24.75 21.3747 24.375C21.0935 24 20.7185 23.8125 20.4372 23.8125C19.3122 24.0938 16.8747 25.0312 16.5935 25.2188Z" fill="#9A4C18"/>
<path d="M16.9688 25.313C16.7813 25.5005 17.2501 26.1567 17.5313 26.6255C17.7188 26.9067 18.0001 27.0005 18.2813 26.9067L21.2813 26.063C21.4688 26.063 21.5626 25.8755 21.5626 25.7817C21.6563 25.4067 21.3751 24.938 21.1876 24.563C21.0001 24.188 20.6251 24.0005 20.3438 24.0942C19.3126 24.2817 17.1563 25.0317 16.9688 25.313Z" fill="#E5895B"/>
<path d="M17.0616 25.4063C16.9678 25.5 17.3428 26.0625 17.6241 26.4375C17.8116 26.625 17.9991 26.7188 18.1866 26.7188L20.5303 26.1562C20.6241 26.1562 20.7178 26.0625 20.8116 25.875C20.9053 25.5938 20.7178 25.125 20.5303 24.8438C20.3428 24.5625 20.0616 24.375 19.7803 24.375L17.0616 25.4063Z" fill="#FAD395"/>
<path d="M15.8435 23.5312C15.656 23.7188 16.1247 24.4688 16.4997 25.0313C16.6872 25.3125 17.0622 25.5 17.3435 25.4062L20.7185 24.4688C20.906 24.4688 20.9997 24.2813 21.0935 24.0938C21.1872 23.625 20.906 23.0625 20.6247 22.6875C20.3435 22.3125 19.9685 22.125 19.6872 22.125C18.5622 22.4062 16.031 23.25 15.8435 23.5312Z" fill="#9A4C18"/>
<path d="M16.2188 23.5317C16.0313 23.7192 16.5001 24.3755 16.7813 24.8442C16.9688 25.1255 17.2501 25.2192 17.5313 25.1255L20.5313 24.2817C20.7188 24.2817 20.8126 24.0942 20.8126 24.0005C20.9063 23.6255 20.6251 23.1567 20.4376 22.7817C20.2501 22.4067 19.8751 22.2192 19.5938 22.313C18.5626 22.5005 16.4063 23.3442 16.2188 23.5317Z" fill="#E5895B"/>
<path d="M8.15625 20.7188C8.4375 20.8125 8.15625 21.75 7.96875 22.3125C7.875 22.6875 7.59375 22.875 7.3125 22.9688L5.625 23.5313C5.4375 23.5313 5.25 23.5312 5.15625 23.4375C4.78125 23.1562 4.6875 22.5 4.6875 22.0312C4.6875 21.5625 4.96875 21.0937 5.34375 21C6.65625 20.7187 7.875 20.625 8.15625 20.7188Z" fill="#9A4C18"/>
<path d="M7.78125 20.9056C7.96875 20.9993 7.78125 21.7493 7.6875 22.3118C7.59375 22.5931 7.40625 22.7806 7.125 22.8743L5.71875 23.3431C5.53125 23.3431 5.4375 23.3431 5.25 23.2493C4.96875 22.9681 4.875 22.4993 4.875 22.0306C4.875 21.6556 5.15625 21.1868 5.4375 21.1868C6.65625 20.8118 7.5 20.8118 7.78125 20.9056Z" fill="#E5895B"/>
<path d="M7.5 21C7.6875 21.0938 7.5 21.75 7.40625 22.125C7.3125 22.4063 7.125 22.5938 6.9375 22.5938L5.8125 23.0625C5.71875 23.0625 5.53125 23.0625 5.4375 22.9688C5.25 22.7813 5.15625 22.3125 5.15625 21.9375C5.15625 21.5625 5.34375 21.2813 5.625 21.1875L7.5 21Z" fill="#FAD395"/>
<path d="M7.96875 22.6875C8.15625 22.7812 7.96875 23.5312 7.875 24.0938C7.6875 24.375 7.5 24.5625 7.3125 24.6562L5.8125 25.125C5.625 25.125 5.53125 25.125 5.34375 25.0312C5.0625 24.75 4.96875 24.2812 4.96875 23.8125C4.96875 23.4375 5.25 23.0625 5.53125 22.9687C6.65625 22.6875 7.6875 22.6875 7.96875 22.6875Z" fill="#9A4C18"/>
<path d="M7.59375 22.8744C7.78125 22.9682 7.59375 23.6244 7.5 24.0932C7.40625 24.3744 7.21875 24.5619 7.03125 24.5619L5.8125 24.9369C5.71875 24.9369 5.53125 24.9369 5.4375 24.8432C5.15625 24.6557 5.15625 24.1869 5.15625 23.8119C5.15625 23.4369 5.34375 23.1557 5.625 23.0619C6.65625 22.7807 7.40625 22.7807 7.59375 22.8744Z" fill="#E5895B"/>
<path d="M7.40625 22.9687C7.59375 23.0625 7.40625 23.625 7.3125 24C7.21875 24.1875 7.03125 24.375 6.9375 24.375L6 24.75C5.90625 24.75 5.8125 24.75 5.71875 24.6562C5.53125 24.4687 5.53125 24.0937 5.53125 23.8125C5.53125 23.5312 5.71875 23.25 5.90625 23.1563C6.5625 22.9688 7.21875 22.9687 7.40625 22.9687ZM16.3125 23.625C16.2188 23.7188 16.5938 24.2812 16.875 24.6562C17.0625 24.8437 17.25 24.9375 17.4375 24.9375L19.7813 24.375C19.875 24.375 19.9688 24.2813 20.0625 24.0938C20.1562 23.8125 19.9688 23.3438 19.7813 23.0625C19.5938 22.7812 19.3125 22.5938 19.0312 22.5938C18.1875 22.875 16.4062 23.4375 16.3125 23.625Z" fill="#FAD395"/>
<path d="M9.46875 19.4063C9.65625 19.5 9.28125 20.3437 9 20.9062C8.8125 21.1875 8.53125 21.375 8.34375 21.375L6.1875 21.5625C6 21.5625 5.8125 21.4687 5.71875 21.375C5.4375 21 5.53125 20.4375 5.625 19.9687C5.71875 19.5 6.09375 19.125 6.46875 19.125C7.6875 19.125 9.1875 19.2188 9.46875 19.4063Z" fill="#9A4C18"/>
<path d="M9.09283 19.5002C9.28033 19.5939 8.99908 20.3439 8.71783 20.8127C8.62408 21.0939 8.34283 21.2814 8.06158 21.2814L6.28033 21.4689C6.09283 21.4689 5.99908 21.3752 5.90533 21.2814C5.71783 21.0002 5.71783 20.4377 5.81158 20.0627C5.90533 19.6877 6.18658 19.3127 6.56158 19.3127C7.59283 19.2189 8.81158 19.4064 9.09283 19.5002Z" fill="#E5895B"/>
<path d="M8.34375 19.5935C8.53125 19.6873 8.25 20.2498 8.0625 20.6248C7.96875 20.8123 7.78125 20.9998 7.59375 20.9998L6.46875 21.1873C6.375 21.1873 6.28125 21.1873 6.1875 21.0935C6 20.8123 6.09375 20.4373 6.09375 20.0623C6.1875 19.781 6.375 19.4998 6.65625 19.4998C7.5 19.406 8.15625 19.4998 8.34375 19.5935Z" fill="#FAD395"/>
<path d="M15.2812 20.1565C15 20.1565 15.0938 21.0002 15.1875 21.5627C15.2813 21.844 15.375 22.1252 15.6563 22.219L18.5625 22.969C18.75 23.0627 18.9375 23.0627 19.0312 22.969C19.4062 22.7815 19.5938 22.6877 19.6875 22.219C19.7812 21.7502 19.5938 21.3752 19.2188 21.1877C18.0938 20.8127 15.5625 20.0627 15.2812 20.1565Z" fill="#9A4C18"/>
<path d="M15.5616 20.3438C15.3741 20.3438 15.3741 21.0937 15.4678 21.5625C15.4678 21.8437 15.6553 22.0312 15.8428 22.125L18.4678 22.5937C18.5616 22.6875 18.7491 22.6875 18.8428 22.5937C19.1241 22.4062 19.3116 22.5 19.4053 22.125C19.4991 21.75 19.3116 21.375 19.0303 21.2813C17.9991 20.9063 15.7491 20.3438 15.5616 20.3438Z" fill="#E5895B"/>
<path d="M15.5633 20.5319C15.3758 20.5319 15.4696 21.1882 15.5633 21.5632C15.5633 21.7507 15.7508 21.9382 15.8446 22.0319L18.0946 22.4069C18.1883 22.5006 18.2821 22.4069 18.3758 22.4069C18.5633 22.2194 18.4696 22.3132 18.5633 22.0319C18.5633 21.7507 18.4696 21.3757 18.2821 21.2819C17.4383 21.0007 15.7508 20.4381 15.5633 20.5319Z" fill="#FAD395"/>
<path d="M10.1245 22.3125L10.0308 22.875C9.93705 23.0625 10.1245 23.3438 10.312 23.3438L14.437 24.0938C14.7183 24.1875 14.9995 23.9063 14.9058 23.5313L14.7183 22.875C14.7183 22.6875 14.5308 22.5938 14.437 22.5938L10.687 21.9375C10.4058 22.0312 10.1245 22.125 10.1245 22.3125Z" fill="#8D2299"/>
<path d="M7.40625 26.4375C7.40625 26.4375 8.90625 27.4688 10.3125 26.25L10.875 25.3125L13.6875 25.875C14.25 25.875 15.8437 26.1562 15.8437 26.1562C15.8437 26.1562 16.0312 27.5625 16.875 28.125C17.7188 28.6875 18.1875 29.4375 19.0312 29.3437C19.875 29.25 19.9687 29.7188 19.9687 29.7188L19.4062 30C19.4062 30 16.6875 29.9063 16.0312 28.3125C16.0312 28.3125 15.5625 28.5938 14.7188 28.5938C13.875 28.5 13.3125 27.5625 13.3125 27.5625C13.3125 27.5625 12.8438 28.2188 12.1875 28.125C11.5312 28.0312 11.0625 27 11.0625 27C11.0625 27 11.1562 28.4063 9.84375 28.3125C8.53125 28.2188 7.3125 27.1875 7.125 26.8125L7.40625 26.4375Z" fill="#4A0751"/>
<path d="M10.2184 22.4062L14.7184 23.25C14.7184 23.25 14.6246 22.875 14.5309 22.7812C14.4371 22.6875 10.4059 22.0312 10.4059 22.0312C10.4059 22.0312 10.1246 22.0312 10.2184 22.4062Z" fill="#AA3C98"/>
</g>
<defs>
<clipPath id="clip0_52_75462">
<rect width="30" height="30" fill="white"/>
</clipPath>
</defs>
</svg>
