<svg width="30" height="30" viewBox="0 0 30 30" fill="none" xmlns="http://www.w3.org/2000/svg">
<g clip-path="url(#clip0_52_74890)">
<path d="M13.125 8.90625L15 2.8125L23.7187 3.09375L23.625 4.6875L16.125 4.21875L15.0938 9.1875L13.125 8.90625ZM29.9062 14.625C30 17.25 27.9375 19.125 25.5 19.0312C23.0625 18.8438 21.0937 16.6875 21 14.25C20.9062 11.8125 22.875 9.84375 25.2187 9.9375C27.75 9.9375 29.9062 12.0938 29.9062 14.625Z" fill="#597787"/>
<path d="M27.2805 18.6558C27.468 25.312 20.9055 30.187 13.218 29.3433C5.9055 28.687 0.749249 23.1558 1.0305 17.1558C1.4055 11.2495 6.843 6.84327 13.6867 6.93702C20.9055 7.12452 27.093 12.2808 27.2805 18.6558Z" fill="#597787"/>
<path d="M7.59375 13.5C7.59375 15.75 5.8125 17.4375 3.65625 17.3438C1.59375 17.25 -0.09375 15.2813 -0.09375 13.125C-0.09375 10.9688 1.59375 9.28125 3.65625 9.28125C5.8125 9.375 7.59375 11.25 7.59375 13.5Z" fill="#597787"/>
<path d="M5.90625 13.0312C5.90625 14.5312 4.875 15.6563 3.5625 15.5625C2.34375 15.4688 1.3125 14.25 1.3125 12.8437C1.3125 11.4375 2.34375 10.3125 3.5625 10.3125C4.875 10.3125 5.90625 11.5312 5.90625 13.0312Z" fill="#CBDEE4"/>
<path d="M5.25 12.6562C5.25 13.6875 4.59375 14.4375 3.75 14.3438C2.90625 14.25 2.25 13.5 2.25 12.4688C2.25 11.5313 2.90625 10.7812 3.75 10.7812C4.5 10.7812 5.25 11.625 5.25 12.6562Z" fill="white"/>
<path d="M26.1559 18.281C26.2497 23.906 20.5309 28.031 13.5934 27.3748C7.0309 26.8123 2.06215 22.031 2.3434 16.9685C2.62465 11.9998 7.68715 8.24977 13.8747 8.34352C20.4372 8.53102 26.0622 12.8435 26.1559 18.281Z" fill="#CBDEE4"/>
<path d="M23.625 18.1866C23.7188 23.4366 18.6563 27.0928 12.75 26.3428C7.125 25.6866 2.8125 21.3741 2.8125 16.6866C2.8125 12.0928 7.03125 8.43659 12.5625 8.62409C18.375 8.71784 23.5313 13.0303 23.625 18.1866Z" fill="#E4F1F4"/>
<path d="M21.9375 17.3439C22.0312 21.6564 17.9062 24.7502 13.0312 24.0939C8.4375 23.5314 4.96875 19.9689 4.96875 16.1252C4.96875 12.2814 8.4375 9.28144 12.8437 9.37519C17.7187 9.46894 21.8437 13.0314 21.9375 17.3439Z" fill="white"/>
<path d="M9.65625 14.8125C9.65625 15.75 8.90625 16.5 7.875 16.4063C6.9375 16.3125 6.09375 15.5625 6.09375 14.625C6.09375 13.6875 6.84375 13.0312 7.875 13.0312C8.8125 13.125 9.65625 13.875 9.65625 14.8125Z" fill="#3C505B"/>
<path d="M26.25 3.84296C26.25 5.34296 25.0312 6.65546 23.5312 6.65546C22.0312 6.65546 20.8125 5.43671 20.8125 3.93671C20.8125 2.43671 21.9375 1.21796 23.4375 1.21796C24.9375 1.12421 26.25 2.34296 26.25 3.84296Z" fill="#597787"/>
<path d="M25.2187 3.65625C25.2187 4.6875 24.4687 5.53125 23.4375 5.53125C22.4062 5.53125 21.6562 4.6875 21.6562 3.65625C21.6562 2.625 22.4062 1.78125 23.4375 1.78125C24.375 1.78125 25.2187 2.625 25.2187 3.65625Z" fill="#CBDEE4"/>
<path d="M24.6562 3.37546C24.6562 4.03171 24.0937 4.59421 23.4375 4.59421C22.7812 4.59421 22.2188 4.03171 22.2188 3.37546C22.2188 2.71921 22.6875 2.15671 23.3437 2.15671C24.0937 2.06296 24.6562 2.62546 24.6562 3.37546Z" fill="white"/>
<path d="M12.5625 22.6875C9.65625 22.4062 7.875 20.4375 7.78125 20.3438C7.5 20.0625 7.5 19.6875 7.78125 19.4063C7.96875 19.125 8.34375 19.125 8.625 19.4063C8.625 19.4063 10.2187 21.0937 12.5625 21.2812C15 21.4688 16.5938 19.9687 16.5938 19.9687C16.875 19.6875 17.25 19.7812 17.5312 20.0625C17.8125 20.3437 17.8125 20.8125 17.5312 21.0937C17.4375 21.0937 15.5625 22.9688 12.5625 22.6875Z" fill="#3C505B"/>
<path d="M28.2188 14.1571C28.3125 15.8446 27 17.1571 25.3125 16.9696C23.7188 16.8758 22.4062 15.4696 22.4062 13.8758C22.4062 12.2821 23.625 10.9696 25.2188 11.0633C26.8125 11.0633 28.2188 12.4696 28.2188 14.1571Z" fill="#E4F1F4"/>
<path d="M27.9375 13.6868C27.9375 14.8118 27.0938 15.6556 25.9688 15.5618C24.8438 15.4681 24 14.5306 24 13.4993C24 12.3743 24.8438 11.5306 25.875 11.6243C27 11.6243 27.9375 12.5618 27.9375 13.6868Z" fill="white"/>
<path d="M24.0938 16.6875C24.0938 16.6875 25.7812 17.5312 27.375 16.4062L27.0937 18.0937C27.0937 18.0937 25.875 18.375 24.0938 16.6875Z" fill="#597787"/>
<path d="M14.4375 16.5003C14.4375 16.5003 16.125 13.7815 19.5938 14.6253C19.5938 14.6253 21.4688 15.5628 20.9062 16.219L20.0625 16.6878C20.0625 16.6878 18.0938 14.6253 14.4375 16.5003Z" fill="#3C505B"/>
</g>
<defs>
<clipPath id="clip0_52_74890">
<rect width="30" height="30" fill="white"/>
</clipPath>
</defs>
</svg>
