<svg width="24" height="20" viewBox="0 0 24 20" fill="none" xmlns="http://www.w3.org/2000/svg">
<path d="M0.352152 17.7886C-0.33182 17.3486 0.0591641 16.2686 0.852132 16.3766C2.38207 16.5666 4.102 16.3166 5.65794 15.5617C4.93505 15.2563 4.28607 14.7994 3.75477 14.2219C3.22347 13.6444 2.82221 12.9596 2.57806 12.2138C2.53272 12.0761 2.52686 11.9285 2.56115 11.7876C2.59544 11.6467 2.6685 11.5183 2.77205 11.4168C2.18845 10.9053 1.7206 10.2752 1.39971 9.5686C1.07882 8.86198 0.91226 8.09508 0.911129 7.31901C0.911129 6.94403 1.16212 6.59504 1.5701 6.52305C0.714137 4.92211 0.704138 2.93919 1.6881 1.22826C1.7486 1.12177 1.83417 1.03165 1.93738 0.965705C2.0406 0.899763 2.15834 0.859995 2.2804 0.849848C2.40245 0.839701 2.52514 0.859482 2.63783 0.907476C2.75051 0.95547 2.84979 1.03023 2.92705 1.12527C4.9595 3.62342 7.87724 5.24132 11.0727 5.64208C10.9787 3.59117 12.0227 1.71324 13.8996 0.688284C16.0485 -0.487669 18.5974 -0.131683 20.3103 1.56425C21.1503 1.80324 21.9653 1.66224 22.8592 1.13027C22.9751 1.06278 23.1068 1.02719 23.2408 1.02711C23.3749 1.02704 23.5066 1.06249 23.6226 1.12986C23.7385 1.19722 23.8345 1.29409 23.9008 1.41062C23.9672 1.52714 24.0015 1.65916 24.0002 1.79324C24.0002 3.33218 22.8802 4.91111 21.9283 5.73708C21.9887 9.41594 20.6177 12.9744 18.1044 15.6617C15.4805 18.4586 11.8607 19.9985 7.90884 19.9985C5.22976 20.0044 2.60589 19.2371 0.352152 17.7886ZM8.11584 15.8257C6.85893 16.8046 5.38944 17.4743 3.82601 17.7806C5.12796 18.2276 6.5059 18.4596 7.90984 18.4596C11.4417 18.4596 14.6726 17.0886 17.0085 14.5987C18.1583 13.3706 19.0508 11.9249 19.6335 10.3467C20.2161 8.76853 20.4772 7.08971 20.4013 5.40909C20.3948 5.2796 20.421 5.15055 20.4774 5.03382C20.5339 4.91709 20.6188 4.81644 20.7243 4.74112C21.2243 4.38613 21.7593 3.75516 22.1063 3.09119C21.3313 3.27418 19.8074 3.25618 19.3564 2.7732C17.8364 1.15526 15.8535 1.36526 14.6186 2.04323C13.3706 2.7242 12.2087 4.20514 12.6886 6.31705C12.7996 6.80603 12.4197 7.28901 11.9137 7.25702C8.37964 7.07812 5.04446 5.56755 2.57906 3.02919C2.38012 3.80564 2.42861 4.62484 2.71777 5.3724C3.00694 6.11996 3.52233 6.75855 4.192 7.19902C4.81797 7.617 4.52798 8.61496 3.76101 8.61096C3.37102 8.6031 2.98319 8.55076 2.60506 8.45497C2.81024 9.12607 3.19217 9.72962 3.71082 10.2024C4.22948 10.6751 4.86575 10.9996 5.55294 11.1419C6.33291 11.3019 6.36991 12.4278 5.60094 12.6388C5.26235 12.7289 4.91567 12.7851 4.56598 12.8068C4.92121 13.3016 5.38642 13.7073 5.92501 13.9919C6.4636 14.2764 7.06088 14.4321 7.66985 14.4467C8.38183 14.4607 8.68281 15.3837 8.11584 15.8257Z" fill="#96979F"/>
</svg>
