<svg width="277" height="123" viewBox="0 0 277 123" fill="none" xmlns="http://www.w3.org/2000/svg">
<mask id="mask0_6_11729" style="mask-type:alpha" maskUnits="userSpaceOnUse" x="-38" y="-10" width="315" height="133">
<rect x="-38" y="-10" width="315" height="133" rx="12" fill="#FF9254"/>
</mask>
<g mask="url(#mask0_6_11729)">
<path d="M31.4032 101.125C30.5214 101.125 29.8065 100.425 29.8065 99.5625C29.8065 98.6996 30.5214 98 31.4032 98C32.2851 98 33 98.6996 33 99.5625C33 100.425 32.2851 101.125 31.4032 101.125Z" fill="white" fill-opacity="0.13"/>
<path d="M31.4032 108.417C30.5214 108.417 29.8065 107.717 29.8065 106.854C29.8065 105.991 30.5214 105.292 31.4032 105.292C32.2851 105.292 33 105.991 33 106.854C33 107.717 32.2851 108.417 31.4032 108.417Z" fill="white" fill-opacity="0.13"/>
<path d="M31.4032 115.708C30.5214 115.708 29.8065 115.009 29.8065 114.146C29.8065 113.283 30.5214 112.583 31.4032 112.583C32.2851 112.583 33 113.283 33 114.146C33 115.009 32.2851 115.708 31.4032 115.708Z" fill="white" fill-opacity="0.13"/>
<path d="M31.4032 123C30.5214 123 29.8065 122.3 29.8065 121.437C29.8065 120.575 30.5214 119.875 31.4032 119.875C32.2851 119.875 33 120.575 33 121.438C33 122.3 32.2851 123 31.4032 123Z" fill="white" fill-opacity="0.13"/>
<path d="M23.9516 101.125C23.0697 101.125 22.3548 100.425 22.3548 99.5625C22.3548 98.6996 23.0697 98 23.9516 98C24.8335 98 25.5484 98.6996 25.5484 99.5625C25.5484 100.425 24.8335 101.125 23.9516 101.125Z" fill="white" fill-opacity="0.13"/>
<path d="M23.9516 108.417C23.0697 108.417 22.3548 107.717 22.3548 106.854C22.3548 105.991 23.0697 105.292 23.9516 105.292C24.8335 105.292 25.5484 105.991 25.5484 106.854C25.5484 107.717 24.8335 108.417 23.9516 108.417Z" fill="white" fill-opacity="0.13"/>
<path d="M23.9516 115.708C23.0697 115.708 22.3548 115.009 22.3548 114.146C22.3548 113.283 23.0697 112.583 23.9516 112.583C24.8335 112.583 25.5484 113.283 25.5484 114.146C25.5484 115.009 24.8335 115.708 23.9516 115.708Z" fill="white" fill-opacity="0.13"/>
<path d="M23.9516 123C23.0697 123 22.3548 122.3 22.3548 121.437C22.3548 120.575 23.0697 119.875 23.9516 119.875C24.8335 119.875 25.5484 120.575 25.5484 121.437C25.5484 122.3 24.8335 123 23.9516 123Z" fill="white" fill-opacity="0.13"/>
<path d="M16.5 101.125C15.6181 101.125 14.9032 100.425 14.9032 99.5625C14.9032 98.6996 15.6181 98 16.5 98C17.3819 98 18.0968 98.6996 18.0968 99.5625C18.0968 100.425 17.3819 101.125 16.5 101.125Z" fill="white" fill-opacity="0.13"/>
<path d="M16.5 108.417C15.6181 108.417 14.9032 107.717 14.9032 106.854C14.9032 105.991 15.6181 105.292 16.5 105.292C17.3819 105.292 18.0968 105.991 18.0968 106.854C18.0968 107.717 17.3819 108.417 16.5 108.417Z" fill="white" fill-opacity="0.13"/>
<path d="M16.5 115.708C15.6181 115.708 14.9032 115.009 14.9032 114.146C14.9032 113.283 15.6181 112.583 16.5 112.583C17.3819 112.583 18.0968 113.283 18.0968 114.146C18.0968 115.009 17.3819 115.708 16.5 115.708Z" fill="white" fill-opacity="0.13"/>
<path d="M16.5 123C15.6181 123 14.9032 122.3 14.9032 121.437C14.9032 120.575 15.6181 119.875 16.5 119.875C17.3819 119.875 18.0968 120.575 18.0968 121.437C18.0968 122.3 17.3819 123 16.5 123Z" fill="white" fill-opacity="0.13"/>
<path d="M9.04839 101.125C8.16651 101.125 7.45161 100.425 7.45161 99.5625C7.45161 98.6996 8.16651 98 9.04839 98C9.93026 98 10.6452 98.6996 10.6452 99.5625C10.6452 100.425 9.93026 101.125 9.04839 101.125Z" fill="white" fill-opacity="0.13"/>
<path d="M9.04839 108.417C8.16651 108.417 7.45161 107.717 7.45161 106.854C7.45161 105.991 8.16651 105.292 9.04839 105.292C9.93026 105.292 10.6452 105.991 10.6452 106.854C10.6452 107.717 9.93026 108.417 9.04839 108.417Z" fill="white" fill-opacity="0.13"/>
<path d="M9.04838 115.708C8.16651 115.708 7.45161 115.009 7.45161 114.146C7.45161 113.283 8.16651 112.583 9.04838 112.583C9.93026 112.583 10.6452 113.283 10.6452 114.146C10.6452 115.009 9.93026 115.708 9.04838 115.708Z" fill="white" fill-opacity="0.13"/>
<path d="M9.04838 123C8.16651 123 7.45161 122.3 7.45161 121.437C7.45161 120.575 8.16651 119.875 9.04838 119.875C9.93026 119.875 10.6452 120.575 10.6452 121.437C10.6452 122.3 9.93026 123 9.04838 123Z" fill="white" fill-opacity="0.13"/>
<path d="M1.59677 101.125C0.714897 101.125 -1.0602e-07 100.425 -6.8299e-08 99.5625C-3.05785e-08 98.6996 0.714897 98 1.59677 98C2.47865 98 3.19355 98.6996 3.19355 99.5625C3.19355 100.425 2.47865 101.125 1.59677 101.125Z" fill="white" fill-opacity="0.13"/>
<path d="M1.59677 108.417C0.714897 108.417 -4.24748e-07 107.717 -3.87028e-07 106.854C-3.49307e-07 105.991 0.714897 105.292 1.59677 105.292C2.47865 105.292 3.19355 105.991 3.19355 106.854C3.19355 107.717 2.47865 108.417 1.59677 108.417Z" fill="white" fill-opacity="0.13"/>
<path d="M1.59677 115.708C0.714896 115.708 -7.43477e-07 115.009 -7.05757e-07 114.146C-6.68036e-07 113.283 0.714897 112.583 1.59677 112.583C2.47865 112.583 3.19355 113.283 3.19355 114.146C3.19355 115.009 2.47865 115.708 1.59677 115.708Z" fill="white" fill-opacity="0.13"/>
<path d="M1.59677 123C0.714896 123 -1.06221e-06 122.3 -1.02449e-06 121.437C-9.86765e-07 120.575 0.714896 119.875 1.59677 119.875C2.47865 119.875 3.19355 120.575 3.19355 121.437C3.19355 122.3 2.47865 123 1.59677 123Z" fill="white" fill-opacity="0.13"/>
<path d="M266.75 1.40323C266.75 2.17821 266.134 2.80645 265.375 2.80645C264.616 2.80645 264 2.17821 264 1.40323C264 0.628246 264.616 0 265.375 0C266.134 0 266.75 0.628246 266.75 1.40323Z" fill="white" fill-opacity="0.5"/>
<path d="M273.167 1.40323C273.167 2.17821 272.551 2.80645 271.792 2.80645C271.032 2.80645 270.417 2.17821 270.417 1.40323C270.417 0.628246 271.032 0 271.792 0C272.551 0 273.167 0.628246 273.167 1.40323Z" fill="white" fill-opacity="0.5"/>
<path d="M279.583 1.40323C279.583 2.17821 278.968 2.80645 278.208 2.80645C277.449 2.80645 276.833 2.17821 276.833 1.40323C276.833 0.628246 277.449 0 278.208 0C278.968 0 279.583 0.628246 279.583 1.40323Z" fill="white" fill-opacity="0.5"/>
<path d="M286 1.40323C286 2.17821 285.384 2.80645 284.625 2.80645C283.866 2.80645 283.25 2.17821 283.25 1.40323C283.25 0.628246 283.866 0 284.625 0C285.384 0 286 0.628246 286 1.40323Z" fill="white" fill-opacity="0.5"/>
<path d="M266.75 7.95161C266.75 8.72659 266.134 9.35484 265.375 9.35484C264.616 9.35484 264 8.72659 264 7.95161C264 7.17663 264.616 6.54839 265.375 6.54839C266.134 6.54839 266.75 7.17663 266.75 7.95161Z" fill="white" fill-opacity="0.5"/>
<path d="M273.167 7.95161C273.167 8.72659 272.551 9.35484 271.792 9.35484C271.032 9.35484 270.417 8.72659 270.417 7.95161C270.417 7.17663 271.032 6.54839 271.792 6.54839C272.551 6.54839 273.167 7.17663 273.167 7.95161Z" fill="white" fill-opacity="0.5"/>
<path d="M279.583 7.95161C279.583 8.72659 278.968 9.35484 278.208 9.35484C277.449 9.35484 276.833 8.72659 276.833 7.95161C276.833 7.17663 277.449 6.54839 278.208 6.54839C278.968 6.54839 279.583 7.17663 279.583 7.95161Z" fill="white" fill-opacity="0.5"/>
<path d="M286 7.95161C286 8.72659 285.384 9.35484 284.625 9.35484C283.866 9.35484 283.25 8.72659 283.25 7.95161C283.25 7.17663 283.866 6.54839 284.625 6.54839C285.384 6.54839 286 7.17663 286 7.95161Z" fill="white" fill-opacity="0.5"/>
<path d="M266.75 14.5C266.75 15.275 266.134 15.9032 265.375 15.9032C264.616 15.9032 264 15.275 264 14.5C264 13.725 264.616 13.0968 265.375 13.0968C266.134 13.0968 266.75 13.725 266.75 14.5Z" fill="white" fill-opacity="0.5"/>
<path d="M273.167 14.5C273.167 15.275 272.551 15.9032 271.792 15.9032C271.032 15.9032 270.417 15.275 270.417 14.5C270.417 13.725 271.032 13.0968 271.792 13.0968C272.551 13.0968 273.167 13.725 273.167 14.5Z" fill="white" fill-opacity="0.5"/>
<path d="M279.583 14.5C279.583 15.275 278.968 15.9032 278.208 15.9032C277.449 15.9032 276.833 15.275 276.833 14.5C276.833 13.725 277.449 13.0968 278.208 13.0968C278.968 13.0968 279.583 13.725 279.583 14.5Z" fill="white" fill-opacity="0.5"/>
<path d="M286 14.5C286 15.275 285.384 15.9032 284.625 15.9032C283.866 15.9032 283.25 15.275 283.25 14.5C283.25 13.725 283.866 13.0968 284.625 13.0968C285.384 13.0968 286 13.725 286 14.5Z" fill="white" fill-opacity="0.5"/>
<path d="M266.75 21.0484C266.75 21.8234 266.134 22.4516 265.375 22.4516C264.616 22.4516 264 21.8234 264 21.0484C264 20.2734 264.616 19.6452 265.375 19.6452C266.134 19.6452 266.75 20.2734 266.75 21.0484Z" fill="white" fill-opacity="0.5"/>
<path d="M273.167 21.0484C273.167 21.8234 272.551 22.4516 271.792 22.4516C271.032 22.4516 270.417 21.8234 270.417 21.0484C270.417 20.2734 271.032 19.6452 271.792 19.6452C272.551 19.6452 273.167 20.2734 273.167 21.0484Z" fill="white" fill-opacity="0.5"/>
<path d="M279.583 21.0484C279.583 21.8234 278.968 22.4516 278.208 22.4516C277.449 22.4516 276.833 21.8234 276.833 21.0484C276.833 20.2734 277.449 19.6452 278.208 19.6452C278.968 19.6452 279.583 20.2734 279.583 21.0484Z" fill="white" fill-opacity="0.5"/>
<path d="M286 21.0484C286 21.8234 285.384 22.4516 284.625 22.4516C283.866 22.4516 283.25 21.8234 283.25 21.0484C283.25 20.2734 283.866 19.6452 284.625 19.6452C285.384 19.6452 286 20.2734 286 21.0484Z" fill="white" fill-opacity="0.5"/>
<path d="M266.75 27.5968C266.75 28.3718 266.134 29 265.375 29C264.616 29 264 28.3718 264 27.5968C264 26.8218 264.616 26.1935 265.375 26.1935C266.134 26.1935 266.75 26.8218 266.75 27.5968Z" fill="white" fill-opacity="0.5"/>
<path d="M273.167 27.5968C273.167 28.3718 272.551 29 271.792 29C271.032 29 270.417 28.3718 270.417 27.5968C270.417 26.8218 271.032 26.1935 271.792 26.1935C272.551 26.1935 273.167 26.8218 273.167 27.5968Z" fill="white" fill-opacity="0.5"/>
<path d="M279.583 27.5968C279.583 28.3718 278.968 29 278.208 29C277.449 29 276.833 28.3718 276.833 27.5968C276.833 26.8218 277.449 26.1935 278.208 26.1935C278.968 26.1935 279.583 26.8218 279.583 27.5968Z" fill="white" fill-opacity="0.5"/>
<path d="M286 27.5968C286 28.3718 285.384 29 284.625 29C283.866 29 283.25 28.3718 283.25 27.5968C283.25 26.8218 283.866 26.1935 284.625 26.1935C285.384 26.1935 286 26.8218 286 27.5968Z" fill="white" fill-opacity="0.5"/>
</g>
</svg>
