<svg width="14" height="12" viewBox="0 0 14 12" fill="none" xmlns="http://www.w3.org/2000/svg">
<path fill-rule="evenodd" clip-rule="evenodd" d="M1.4 1.85874H3.5L4.9 0.663818H9.1L10.5 1.85874H12.6C13.3732 1.85874 14 2.39372 14 3.05366V10.2232C14 10.8831 13.3732 11.4181 12.6 11.4181H1.4C0.626801 11.4181 0 10.8831 0 10.2232V3.05366C0 2.39372 0.626801 1.85874 1.4 1.85874ZM7 3.65112C5.067 3.65112 3.5 4.98858 3.5 6.63843C3.5 8.28827 5.067 9.62573 7 9.62573C8.933 9.62573 10.5 8.28827 10.5 6.63843C10.5 4.98858 8.933 3.65112 7 3.65112ZM7 4.84605C8.1598 4.84605 9.1 5.64852 9.1 6.63843C9.1 7.62834 8.1598 8.43081 7 8.43081C5.8402 8.43081 4.9 7.62834 4.9 6.63843C4.9 5.64852 5.8402 4.84605 7 4.84605Z" fill="#D9D9D9"/>
<mask id="mask0_37_37098" style="mask-type:alpha" maskUnits="userSpaceOnUse" x="0" y="0" width="14" height="12">
<path fill-rule="evenodd" clip-rule="evenodd" d="M1.4 1.85874H3.5L4.9 0.663818H9.1L10.5 1.85874H12.6C13.3732 1.85874 14 2.39372 14 3.05366V10.2232C14 10.8831 13.3732 11.4181 12.6 11.4181H1.4C0.626801 11.4181 0 10.8831 0 10.2232V3.05366C0 2.39372 0.626801 1.85874 1.4 1.85874ZM7 3.65112C5.067 3.65112 3.5 4.98858 3.5 6.63843C3.5 8.28827 5.067 9.62573 7 9.62573C8.933 9.62573 10.5 8.28827 10.5 6.63843C10.5 4.98858 8.933 3.65112 7 3.65112ZM7 4.84605C8.1598 4.84605 9.1 5.64852 9.1 6.63843C9.1 7.62834 8.1598 8.43081 7 8.43081C5.8402 8.43081 4.9 7.62834 4.9 6.63843C4.9 5.64852 5.8402 4.84605 7 4.84605Z" fill="#D9D9D9"/>
</mask>
<g mask="url(#mask0_37_37098)">
</g>
</svg>
