<svg width="21" height="19" viewBox="0 0 21 19" fill="none" xmlns="http://www.w3.org/2000/svg">
<path d="M18.217 6.70196C16.3953 6.70196 15.6506 5.41368 16.5564 3.83353C17.0797 2.91765 16.7677 1.75015 15.8518 1.22678L14.1107 0.230381C13.3155 -0.242658 12.289 0.0391529 11.8159 0.834261L11.7052 1.02549C10.7994 2.60564 9.30981 2.60564 8.39393 1.02549L8.28322 0.834261C7.83031 0.0391529 6.80371 -0.242658 6.0086 0.230381L4.26742 1.22678C3.35153 1.75015 3.03953 2.92771 3.56289 3.8436C4.47877 5.41368 3.73399 6.70196 1.91229 6.70196C0.865561 6.70196 0 7.55746 0 8.61425V10.3856C0 11.4324 0.855496 12.2979 1.91229 12.2979C3.73399 12.2979 4.47877 13.5862 3.56289 15.1663C3.03953 16.0822 3.35153 17.2497 4.26742 17.7731L6.0086 18.7695C6.80371 19.2425 7.83031 18.9607 8.30335 18.1656L8.41406 17.9744C9.31988 16.3942 10.8094 16.3942 11.7253 17.9744L11.836 18.1656C12.3091 18.9607 13.3357 19.2425 14.1308 18.7695L15.872 17.7731C16.7879 17.2497 17.0999 16.0722 16.5765 15.1663C15.6606 13.5862 16.4054 12.2979 18.2271 12.2979C19.2738 12.2979 20.1394 11.4424 20.1394 10.3856V8.61425C20.1293 7.56752 19.2738 6.70196 18.217 6.70196ZM10.0647 12.771C8.26309 12.771 6.79365 11.3015 6.79365 9.49994C6.79365 7.69836 8.26309 6.22892 10.0647 6.22892C11.8662 6.22892 13.3357 7.69836 13.3357 9.49994C13.3357 11.3015 11.8662 12.771 10.0647 12.771Z" fill="#B0B0B0"/>
</svg>
