<svg width="165" height="874" viewBox="0 0 165 874" fill="none" xmlns="http://www.w3.org/2000/svg">
<rect width="165" height="874" fill="#666AEC"/>
<g clip-path="url(#clip0_37_35644)">
<rect x="60" y="782.82" width="46" height="38.9688" rx="11" stroke="white" stroke-opacity="0.2" stroke-width="2"/>
<path fill-rule="evenodd" clip-rule="evenodd" d="M85.08 805.369L87.67 803.158H78V801.451H87.67L85.08 799.241L86.5 798.037L91.5 802.305L86.5 806.572L85.08 805.369ZM90 794.623C91.1046 794.623 92 795.387 92 796.33V800.316L90 798.609V796.33H76V808.279H90V806L92 804.293V808.279C92 809.222 91.1046 809.986 90 809.986H76C74.89 809.986 74 809.218 74 808.279V796.33C74 795.383 74.89 794.623 76 794.623H90Z" fill="#D9D9D9"/>
<mask id="mask0_37_35644" style="mask-type:alpha" maskUnits="userSpaceOnUse" x="74" y="794" width="18" height="16">
<path fill-rule="evenodd" clip-rule="evenodd" d="M85.08 805.369L87.67 803.158H78V801.451H87.67L85.08 799.241L86.5 798.037L91.5 802.305L86.5 806.572L85.08 805.369ZM90 794.623C91.1046 794.623 92 795.387 92 796.33V800.316L90 798.609V796.33H76V808.279H90V806L92 804.293V808.279C92 809.222 91.1046 809.986 90 809.986H76C74.89 809.986 74 809.218 74 808.279V796.33C74 795.383 74.89 794.623 76 794.623H90Z" fill="#D9D9D9"/>
</mask>
<g mask="url(#mask0_37_35644)">
</g>
</g>
<g clip-path="url(#clip1_37_35644)">
<rect x="59" y="165.582" width="48" height="40.9688" rx="12" fill="white" fill-opacity="0.2"/>
<path fill-rule="evenodd" clip-rule="evenodd" d="M79.3994 193.236V187.09H81.7994H84.1994H86.5994V193.236H90.1994V184.95L82.9994 178.805L75.7994 184.95V193.236H79.3994ZM82.9994 175.916L94.8914 186.066H92.5994V195.284H84.1994V189.139H81.7994V195.284H73.3994V186.066H71.1074L82.9994 175.916Z" fill="#D9D9D9"/>
<mask id="mask1_37_35644" style="mask-type:alpha" maskUnits="userSpaceOnUse" x="71" y="175" width="24" height="21">
<path fill-rule="evenodd" clip-rule="evenodd" d="M79.3994 193.236V187.09H81.7994H84.1994H86.5994V193.236H90.1994V184.95L82.9994 178.805L75.7994 184.95V193.236H79.3994ZM82.9994 175.916L94.8914 186.066H92.5994V195.284H84.1994V189.139H81.7994V195.284H73.3994V186.066H71.1074L82.9994 175.916Z" fill="#D9D9D9"/>
</mask>
<g mask="url(#mask1_37_35644)">
</g>
</g>
<g clip-path="url(#clip2_37_35644)">
<rect x="59" y="240.691" width="48" height="40.9688" rx="12" fill="white" fill-opacity="0.2"/>
<path fill-rule="evenodd" clip-rule="evenodd" d="M79.533 260.152V262.2H77.133V260.152H79.533ZM84.333 260.152V262.2H81.933V260.152H84.333ZM89.133 260.152V262.2H86.733V260.152H89.133ZM91.533 252.982C92.8585 252.982 93.933 253.899 93.933 255.03V269.37C93.933 270.501 92.8585 271.418 91.533 271.418H74.733C73.401 271.418 72.333 270.496 72.333 269.37V255.03C72.333 253.899 73.4075 252.982 74.733 252.982H75.933V250.934H78.333V252.982H87.933V250.934H90.333V252.982H91.533ZM91.533 269.37V258.103H74.733V269.37H91.533ZM79.533 264.248V266.297H77.133V264.248H79.533ZM84.333 264.248V266.297H81.933V264.248H84.333ZM89.133 264.248V266.297H86.733V264.248H89.133Z" fill="#D9D9D9"/>
</g>
<g clip-path="url(#clip3_37_35644)">
<rect x="59" y="315.801" width="48" height="40.9688" rx="12" fill="white" fill-opacity="0.2"/>
<path fill-rule="evenodd" clip-rule="evenodd" d="M73.4 328.319H92.6C93.9255 328.319 95 329.236 95 330.367V342.658C95 343.789 93.9255 344.706 92.6 344.706H73.4C72.068 344.706 71 343.785 71 342.658V330.367C71 329.23 72.068 328.319 73.4 328.319ZM83 335.488L92.6 330.367H73.4L83 335.488ZM73.4 342.658H92.6V332.795L83 337.906L73.4 332.795V342.658Z" fill="#D9D9D9"/>
<mask id="mask2_37_35644" style="mask-type:alpha" maskUnits="userSpaceOnUse" x="71" y="328" width="24" height="17">
<path fill-rule="evenodd" clip-rule="evenodd" d="M73.4 328.319H92.6C93.9255 328.319 95 329.236 95 330.367V342.658C95 343.789 93.9255 344.706 92.6 344.706H73.4C72.068 344.706 71 343.785 71 342.658V330.367C71 329.23 72.068 328.319 73.4 328.319ZM83 335.488L92.6 330.367H73.4L83 335.488ZM73.4 342.658H92.6V332.795L83 337.906L73.4 332.795V342.658Z" fill="#D9D9D9"/>
</mask>
<g mask="url(#mask2_37_35644)">
</g>
</g>
<g clip-path="url(#clip4_37_35644)">
<rect x="59" y="390.91" width="48" height="40.9688" rx="12" fill="white"/>
<path fill-rule="evenodd" clip-rule="evenodd" d="M82.9997 402.291C85.9452 402.291 88.333 404.329 88.333 406.843C88.333 409.357 85.9452 411.395 82.9997 411.395C80.0542 411.395 77.6663 409.357 77.6663 406.843C77.6663 404.329 80.0542 402.291 82.9997 402.291ZM82.9997 404.567C81.5269 404.567 80.333 405.586 80.333 406.843C80.333 408.1 81.5269 409.119 82.9997 409.119C84.4724 409.119 85.6663 408.1 85.6663 406.843C85.6663 405.586 84.4724 404.567 82.9997 404.567ZM82.9997 412.533C86.5597 412.533 93.6663 414.046 93.6663 417.085V420.499H72.333V417.085C72.333 414.046 79.4397 412.533 82.9997 412.533ZM82.9996 414.695C79.0396 414.695 74.8663 416.356 74.8663 417.085V418.337H91.133V417.085C91.133 416.356 86.9596 414.695 82.9996 414.695Z" fill="#D9D9D9"/>
<mask id="mask3_37_35644" style="mask-type:alpha" maskUnits="userSpaceOnUse" x="72" y="402" width="22" height="19">
<path fill-rule="evenodd" clip-rule="evenodd" d="M82.9997 402.291C85.9452 402.291 88.333 404.329 88.333 406.843C88.333 409.357 85.9452 411.395 82.9997 411.395C80.0542 411.395 77.6663 409.357 77.6663 406.843C77.6663 404.329 80.0542 402.291 82.9997 402.291ZM82.9997 404.567C81.5269 404.567 80.333 405.586 80.333 406.843C80.333 408.1 81.5269 409.119 82.9997 409.119C84.4724 409.119 85.6663 408.1 85.6663 406.843C85.6663 405.586 84.4724 404.567 82.9997 404.567ZM82.9997 412.533C86.5597 412.533 93.6663 414.046 93.6663 417.085V420.499H72.333V417.085C72.333 414.046 79.4397 412.533 82.9997 412.533ZM82.9996 414.695C79.0396 414.695 74.8663 416.356 74.8663 417.085V418.337H91.133V417.085C91.133 416.356 86.9596 414.695 82.9996 414.695Z" fill="#D9D9D9"/>
</mask>
<g mask="url(#mask3_37_35644)">
</g>
</g>
<g clip-path="url(#clip5_37_35644)">
<rect x="59" y="466.02" width="48" height="40.9688" rx="12" fill="white" fill-opacity="0.2"/>
<path fill-rule="evenodd" clip-rule="evenodd" d="M82.9994 482.407C85.6504 482.407 87.7994 484.241 87.7994 486.504C87.7994 488.767 85.6504 490.601 82.9994 490.601C80.3485 490.601 78.1994 488.767 78.1994 486.504C78.1994 484.241 80.3485 482.407 82.9994 482.407ZM82.9994 484.455C81.6739 484.455 80.5994 485.373 80.5994 486.504C80.5994 487.635 81.6739 488.552 82.9994 488.552C84.3249 488.552 85.3994 487.635 85.3994 486.504C85.3994 485.373 84.3249 484.455 82.9994 484.455ZM80.5994 496.746C80.2994 496.746 80.0474 496.562 79.9994 496.316L79.5554 493.602C78.7994 493.346 78.1514 492.997 77.5274 492.588L74.5394 493.622C74.2754 493.704 73.9514 493.622 73.8074 493.397L71.4074 489.853C71.2514 489.628 71.3234 489.351 71.5514 489.198L74.0834 487.497L73.9994 486.504L74.0834 485.48L71.5514 483.81C71.3234 483.657 71.2514 483.38 71.4074 483.155L73.8074 479.611C73.9514 479.386 74.2754 479.293 74.5394 479.386L77.5274 480.41C78.1514 480.01 78.7994 479.662 79.5554 479.406L79.9994 476.692C80.0474 476.446 80.2994 476.262 80.5994 476.262H85.3994C85.6994 476.262 85.9514 476.446 85.9994 476.692L86.4434 479.406C87.1994 479.662 87.8474 480.01 88.4714 480.41L91.4594 479.386C91.7234 479.293 92.0474 479.386 92.1914 479.611L94.5914 483.155C94.7474 483.38 94.6754 483.657 94.4474 483.81L91.9154 485.48L91.9994 486.504L91.9154 487.528L94.4474 489.198C94.6754 489.351 94.7474 489.628 94.5914 489.853L92.1914 493.397C92.0474 493.622 91.7234 493.714 91.4594 493.622L88.4714 492.598C87.8474 492.997 87.1994 493.346 86.4434 493.602L85.9994 496.316C85.9514 496.562 85.6994 496.746 85.3994 496.746H80.5994ZM82.0994 478.31L81.6554 480.983C80.2154 481.239 78.9434 481.895 78.0194 482.806L75.1274 481.741L74.2274 483.073L76.7594 484.66C76.2794 485.859 76.2794 487.159 76.7594 488.347L74.2154 489.945L75.1154 491.277L78.0314 490.212C78.9554 491.113 80.2154 491.768 81.6434 492.014L82.0874 494.698H83.9114L84.3554 492.024C85.7834 491.768 87.0434 491.113 87.9674 490.212L90.8834 491.277L91.7834 489.945L89.2394 488.358C89.7194 487.159 89.7194 485.859 89.2394 484.66L91.7714 483.073L90.8714 481.741L87.9794 482.806C87.0554 481.895 85.7834 481.239 84.3434 480.994L83.8994 478.31H82.0994Z" fill="#D9D9D9"/>
<mask id="mask4_37_35644" style="mask-type:alpha" maskUnits="userSpaceOnUse" x="71" y="476" width="24" height="21">
<path fill-rule="evenodd" clip-rule="evenodd" d="M82.9994 482.407C85.6504 482.407 87.7994 484.241 87.7994 486.504C87.7994 488.767 85.6504 490.601 82.9994 490.601C80.3485 490.601 78.1994 488.767 78.1994 486.504C78.1994 484.241 80.3485 482.407 82.9994 482.407ZM82.9994 484.455C81.6739 484.455 80.5994 485.373 80.5994 486.504C80.5994 487.635 81.6739 488.552 82.9994 488.552C84.3249 488.552 85.3994 487.635 85.3994 486.504C85.3994 485.373 84.3249 484.455 82.9994 484.455ZM80.5994 496.746C80.2994 496.746 80.0474 496.562 79.9994 496.316L79.5554 493.602C78.7994 493.346 78.1514 492.997 77.5274 492.588L74.5394 493.622C74.2754 493.704 73.9514 493.622 73.8074 493.397L71.4074 489.853C71.2514 489.628 71.3234 489.351 71.5514 489.198L74.0834 487.497L73.9994 486.504L74.0834 485.48L71.5514 483.81C71.3234 483.657 71.2514 483.38 71.4074 483.155L73.8074 479.611C73.9514 479.386 74.2754 479.293 74.5394 479.386L77.5274 480.41C78.1514 480.01 78.7994 479.662 79.5554 479.406L79.9994 476.692C80.0474 476.446 80.2994 476.262 80.5994 476.262H85.3994C85.6994 476.262 85.9514 476.446 85.9994 476.692L86.4434 479.406C87.1994 479.662 87.8474 480.01 88.4714 480.41L91.4594 479.386C91.7234 479.293 92.0474 479.386 92.1914 479.611L94.5914 483.155C94.7474 483.38 94.6754 483.657 94.4474 483.81L91.9154 485.48L91.9994 486.504L91.9154 487.528L94.4474 489.198C94.6754 489.351 94.7474 489.628 94.5914 489.853L92.1914 493.397C92.0474 493.622 91.7234 493.714 91.4594 493.622L88.4714 492.598C87.8474 492.997 87.1994 493.346 86.4434 493.602L85.9994 496.316C85.9514 496.562 85.6994 496.746 85.3994 496.746H80.5994ZM82.0994 478.31L81.6554 480.983C80.2154 481.239 78.9434 481.895 78.0194 482.806L75.1274 481.741L74.2274 483.073L76.7594 484.66C76.2794 485.859 76.2794 487.159 76.7594 488.347L74.2154 489.945L75.1154 491.277L78.0314 490.212C78.9554 491.113 80.2154 491.768 81.6434 492.014L82.0874 494.698H83.9114L84.3554 492.024C85.7834 491.768 87.0434 491.113 87.9674 490.212L90.8834 491.277L91.7834 489.945L89.2394 488.358C89.7194 487.159 89.7194 485.859 89.2394 484.66L91.7714 483.073L90.8714 481.741L87.9794 482.806C87.0554 481.895 85.7834 481.239 84.3434 480.994L83.8994 478.31H82.0994Z" fill="#D9D9D9"/>
</mask>
<g mask="url(#mask4_37_35644)">
</g>
</g>
<path d="M70.2294 64.6736C69.7204 64.188 69.4204 63.5688 69.3791 62.9181V54.8041C69.4203 54.1534 69.7203 53.534 70.2294 53.0486L70.9019 52.4744C71.1274 52.2815 71.254 52.0201 71.254 51.7475C71.254 51.475 71.1274 51.2135 70.9019 51.0206L63.7689 44.9295C63.5427 44.7371 63.2365 44.6292 62.9172 44.6292C62.598 44.6292 62.2918 44.7371 62.0656 44.9295L59.3504 47.2478C59.1259 47.4412 59 47.7024 59 47.9747C59 48.2469 59.1259 48.5082 59.3504 48.7016L64.4413 53.0484C64.9514 53.5335 65.2518 54.1529 65.2926 54.8039V62.9179C65.2519 63.5686 64.9515 64.1876 64.4413 64.6723L59.3504 69.0208C59.1259 69.2142 59 69.4755 59 69.7475C59 70.0199 59.1259 70.2811 59.3504 70.4745L62.0656 72.7928C62.2918 72.9851 62.598 73.093 62.9172 73.093C63.2364 73.093 63.5427 72.9851 63.7689 72.7928L70.9019 66.7011C71.1274 66.5081 71.254 66.2468 71.254 65.9744C71.254 65.7017 71.1274 65.4404 70.9019 65.2475L70.2294 64.6736Z" fill="white"/>
<path d="M89.8323 69.7883C89.2637 70.2229 88.5388 70.4794 87.7766 70.5153H78.2763C77.5137 70.4794 76.7881 70.2231 76.2188 69.7883L75.548 69.2126C75.321 69.0209 75.0147 68.9135 74.6955 68.9135C74.3763 68.9135 74.07 69.0209 73.8431 69.2126L66.711 75.3038C66.4858 75.4973 66.3594 75.7589 66.3594 76.0316C66.3594 76.3043 66.4858 76.5659 66.711 76.7592L69.4261 79.0776C69.6528 79.2693 69.959 79.3768 70.278 79.3768C70.5971 79.3768 70.9032 79.2693 71.1299 79.0776L76.2197 74.7285C76.7888 74.2941 77.5142 74.0378 78.2765 74.0019H87.7796C88.5417 74.0377 89.2667 74.2939 89.8352 74.7285L94.9273 79.0776C95.1539 79.2693 95.4598 79.3768 95.7788 79.3768C96.0976 79.3768 96.4037 79.2693 96.6301 79.0776L99.3453 76.7592C99.5706 76.5659 99.6969 76.3043 99.6969 76.0316C99.6969 75.7589 99.5706 75.4973 99.3453 75.3038L92.208 69.2122C91.9816 69.0205 91.6757 68.9131 91.3569 68.9131C91.0381 68.9131 90.732 69.0205 90.5056 69.2122L89.8323 69.7883Z" fill="white"/>
<path d="M95.9943 53.1111C96.5047 53.5971 96.8056 54.2174 96.847 54.8692V62.9801C96.8053 63.6316 96.5044 64.2513 95.9943 64.7368L95.3216 65.3122C95.0968 65.5055 94.9707 65.7668 94.9707 66.0392C94.9707 66.3115 95.0968 66.5728 95.3216 66.766L102.457 72.8564C102.683 73.0487 102.989 73.1566 103.308 73.1566C103.627 73.1566 103.934 73.0487 104.16 72.8564L106.875 70.5369C107.1 70.3439 107.227 70.0824 107.227 69.8099C107.227 69.5375 107.1 69.2759 106.875 69.0829L101.785 64.736C101.275 64.2505 100.974 63.6308 100.932 62.9793L100.933 54.8684C100.974 54.2166 101.275 53.5964 101.785 53.1103L106.875 48.7635C107.1 48.5708 107.227 48.3097 107.227 48.0374C107.227 47.7651 107.1 47.504 106.875 47.3113L104.16 44.9916C104.048 44.8961 103.915 44.8204 103.769 44.7687C103.623 44.717 103.466 44.6904 103.308 44.6904C103.15 44.6904 102.993 44.717 102.847 44.7687C102.701 44.8204 102.569 44.8961 102.457 44.9916L95.3216 51.0818C95.0968 51.2751 94.9707 51.5364 94.9707 51.8088C94.9707 52.0812 95.0968 52.3425 95.3216 52.5358L95.9943 53.1111Z" fill="white"/>
<path d="M76.3904 47.9964C76.9588 47.5612 77.6842 47.3047 78.4465 47.2694H87.9477C88.7098 47.3053 89.4348 47.5617 90.0035 47.9964L90.6776 48.5717C90.7892 48.6672 90.9219 48.7429 91.0679 48.7946C91.2139 48.8463 91.3704 48.8728 91.5284 48.8728C91.6865 48.8728 91.8431 48.8463 91.989 48.7946C92.135 48.7429 92.2677 48.6672 92.3795 48.5717L99.5134 42.4802C99.7385 42.2868 99.8648 42.0252 99.8648 41.7525C99.8648 41.4799 99.7385 41.2183 99.5134 41.0249L96.7982 38.7093C96.5723 38.5165 96.2659 38.4082 95.9465 38.4082C95.627 38.4082 95.3207 38.5165 95.0947 38.7093L90.0037 43.0561C89.435 43.4908 88.71 43.7472 87.9479 43.7831H78.4465C77.6842 43.7478 76.9588 43.4913 76.3904 43.0561L71.2995 38.7093C71.0728 38.5177 70.7667 38.4102 70.4477 38.4102C70.1287 38.4102 69.8226 38.5177 69.5959 38.7093L66.8808 41.0276C66.6557 41.2209 66.5293 41.4825 66.5293 41.7551C66.5293 42.0278 66.6557 42.2893 66.8808 42.4827L74.0131 48.5715C74.239 48.7643 74.5454 48.8726 74.8649 48.8726C75.1843 48.8726 75.4907 48.7643 75.7166 48.5715L76.3904 47.9964Z" fill="white"/>
<defs>
<clipPath id="clip0_37_35644">
<rect width="48" height="40.9688" fill="white" transform="translate(59 781.82)"/>
</clipPath>
<clipPath id="clip1_37_35644">
<rect width="48" height="40.9688" fill="white" transform="translate(59 165.582)"/>
</clipPath>
<clipPath id="clip2_37_35644">
<rect width="48" height="40.9688" fill="white" transform="translate(59 240.691)"/>
</clipPath>
<clipPath id="clip3_37_35644">
<rect width="48" height="40.9688" fill="white" transform="translate(59 315.801)"/>
</clipPath>
<clipPath id="clip4_37_35644">
<rect width="48" height="40.9688" fill="white" transform="translate(59 390.91)"/>
</clipPath>
<clipPath id="clip5_37_35644">
<rect width="48" height="40.9688" fill="white" transform="translate(59 466.02)"/>
</clipPath>
</defs>
</svg>
