<svg width="644" height="348" viewBox="0 0 644 348" fill="none" xmlns="http://www.w3.org/2000/svg">
<path d="M61.3026 136.426L49.9146 224.084L42.5948 251.399C39.5831 262.638 23.4624 262.118 21.1803 250.709L14.9096 219.358C12.8026 211.359 1.03427 212.833 0.964996 221.105L0.000394111 336.292C-0.0507873 342.404 4.8896 347.386 11.0016 347.386H632.998C639.074 347.386 643.999 342.46 643.999 336.384V193.973C643.999 183.365 629.276 180.688 625.543 190.618C622.226 199.44 609.486 198.613 607.337 189.437L605.056 179.696C602.511 168.829 587.271 168.22 583.867 178.848L564.488 239.351L561.787 248.62C558.73 259.109 543.905 259.21 540.705 248.763L513.786 160.871C510.628 150.56 496.062 150.476 492.785 160.75L484.547 186.581C481.055 197.532 465.223 196.466 463.231 185.146L450.72 114.068C448.572 101.865 431.021 101.975 429.027 114.205L408.655 239.142C406.624 251.592 388.648 251.388 386.901 238.895L379.29 184.486C377.721 173.269 362.269 171.457 358.147 182.007L351.142 199.939C346.904 210.785 330.924 208.475 329.933 196.873L313.964 10.0651C312.852 -2.94091 294.039 -3.52689 292.121 9.38472L274.295 129.326C273.037 137.788 261.293 138.923 258.438 130.859C255.5 122.558 243.33 124.081 242.527 132.849L240.589 153.999C239.39 167.092 220.388 167.433 218.721 154.391L207.104 63.5493C205.718 52.7126 191.093 50.3026 186.303 60.1219L181.372 70.232C178.85 75.4033 171.795 76.1721 168.218 71.6656C163.88 66.1996 155.097 68.7225 154.321 75.6578L140.632 197.988C139.157 211.178 119.912 210.956 118.741 197.735L117.428 182.916C116.741 175.166 106.776 172.465 102.269 178.807C97.7998 185.097 87.9224 182.501 87.1234 174.826L83.1549 136.705C81.8034 123.722 62.9842 123.482 61.3026 136.426Z" fill="#FF8E26"/>
</svg>
