<svg width="23" height="22" viewBox="0 0 23 22" fill="none" xmlns="http://www.w3.org/2000/svg">
<path d="M22.7436 18.7606C22.5668 18.9294 22.3428 19.0081 22.1188 19.0081C21.8947 19.0081 21.6707 18.9294 21.4939 18.7606L15.6576 13.1907L16.2825 12.5943L16.9074 11.9979L22.7436 17.5678C23.0856 17.8941 23.0856 18.4343 22.7436 18.7606Z" fill="#15161E"/>
<path d="M6.15442 7.77846L12.9928 14.3048C13.4526 14.7437 13.4526 15.4526 12.9928 15.8914L11.9317 16.9154C10.9767 17.8156 9.46751 17.8156 8.52428 16.9154L3.40727 12.0318C2.47583 11.1429 2.47583 9.69136 3.40727 8.79117L4.48019 7.76721C4.94002 7.33962 5.6946 7.33962 6.15442 7.77846Z" fill="#15161E"/>
<path d="M20.4449 8.80215L15.9528 13.078C15.4811 13.5281 14.7266 13.5281 14.255 13.078L7.44013 6.57418C6.96852 6.12409 6.96852 5.40394 7.44013 4.95384L11.9323 0.666701C12.8637 -0.222234 14.3846 -0.222234 15.3279 0.666701L20.4449 5.55022C21.3763 6.45041 21.3763 7.89071 20.4449 8.80215Z" fill="#15161E"/>
<path d="M7.95848 21.8099H0.884276C0.400872 21.8099 0 21.4273 0 20.9659C0 20.5046 0.400872 20.122 0.884276 20.122H7.95848C8.44189 20.122 8.84276 20.5046 8.84276 20.9659C8.84276 21.4273 8.44189 21.8099 7.95848 21.8099Z" fill="#15161E"/>
</svg>
