<svg width="35" height="26" viewBox="0 0 35 26" fill="none" xmlns="http://www.w3.org/2000/svg">
<path d="M17.1369 2.742e-10C7.67247 1.22764e-10 1.61769e-10 5.82034 3.61321e-10 13.0001C5.60874e-10 20.1798 7.67247 26.0002 17.1369 26.0002C26.6014 26.0002 34.2739 20.1798 34.2739 13.0001C34.2638 5.82355 26.5972 0.00767166 17.1369 2.742e-10ZM24.354 13.4143C24.2353 13.5948 24.0425 13.7412 23.8044 13.8312L23.8044 13.8358L14.0119 17.5501C13.4071 17.7794 12.672 17.5933 12.3697 17.1346C12.2838 17.0042 12.2396 16.8602 12.2406 16.7144L12.2406 9.28581C12.2403 8.77295 12.7881 8.35705 13.4642 8.35678C13.6543 8.35672 13.8418 8.39024 14.0119 8.45471L23.8044 12.169C24.4095 12.3978 24.6556 12.9553 24.354 13.4143Z" fill="#FBCD2D" fill-opacity="0.73"/>
</svg>
