<svg width="350" height="26" viewBox="0 0 350 26" fill="none" xmlns="http://www.w3.org/2000/svg">
<path d="M1 12.5227C1 11.1292 1.6498 9.71973 2.99335 8.34805C4.3413 6.97188 6.34092 5.68675 8.89032 4.58588C13.9858 2.38557 21.0949 1 29 1H321C328.905 1 336.014 2.38557 341.11 4.58588C343.659 5.68676 345.659 6.97189 347.007 8.34806C348.35 9.71974 349 11.1292 349 12.5227C349 13.9163 348.35 15.3257 347.007 16.6974C345.659 18.0736 343.659 19.3587 341.11 20.4596C336.014 22.6599 328.905 24.0455 321 24.0455H29C21.0949 24.0455 13.9858 22.6599 8.89032 20.4596C6.34092 19.3587 4.3413 18.0736 2.99335 16.6974C1.6498 15.3257 1 13.9163 1 12.5227Z" stroke="#8F92A1" stroke-opacity="0.4" stroke-width="2"/>
</svg>
