<svg width="14" height="14" viewBox="0 0 14 14" fill="none" xmlns="http://www.w3.org/2000/svg">
<path d="M13.1353 0H8.32203C7.84558 7.09967e-09 7.45934 0.386239 7.45934 0.86269C7.45934 1.33914 7.84558 1.72538 8.32203 1.72538H11.0522L6.49815 6.27939C6.28014 6.49739 6.195 6.81515 6.2748 7.11295C6.35459 7.41075 6.5872 7.64336 6.885 7.72316C7.18281 7.80295 7.50056 7.71781 7.71856 7.4998L12.2726 2.9458V5.67592C12.2726 6.15237 12.6588 6.53861 13.1353 6.53861C13.6117 6.53861 13.998 6.15237 13.998 5.67592V0.86269C13.9974 0.386476 13.6115 0.000571343 13.1353 0Z" fill="white"/>
<path d="M9.91679 12.5194H1.4786V4.0812H7.82435L9.30295 2.6026H0.739303C0.542869 2.6026 0.35451 2.68077 0.215804 2.81987C0.0770989 2.95896 -0.000548096 3.14754 2.91269e-06 3.34397V13.2608C2.91269e-06 13.6691 0.330999 14.0001 0.739303 14.0001H10.6561C11.0644 14.0001 11.3954 13.6691 11.3954 13.2608V4.69192L9.91679 6.17364V12.5194Z" fill="white"/>
</svg>
