<svg width="19" height="26" viewBox="0 0 19 26" fill="none" xmlns="http://www.w3.org/2000/svg">
<mask id="mask0_0_341" style="mask-type:luminance" maskUnits="userSpaceOnUse" x="-5" y="-2" width="29" height="30">
<rect x="-4.72736" y="-1.1811" width="28.3622" height="28.3622" fill="white"/>
</mask>
<g mask="url(#mask0_0_341)">
<path fill-rule="evenodd" clip-rule="evenodd" d="M11.8176 4.72835H2.36352C1.06004 4.72835 0 5.78839 0 7.09187V10.4268V13.4166V26L7.09055 21.7445L14.1811 26V13.4178V11.6097V7.09187C14.1811 5.78839 13.1211 4.72835 11.8176 4.72835ZM11.8176 21.8249L7.09055 18.9898L2.36352 21.8249V13.4178V10.428V7.09188H11.8176V11.6086V13.4166V21.8249Z" fill="#878A92"/>
<path fill-rule="evenodd" clip-rule="evenodd" d="M16.544 0H15.3622H12.9963H7.08989C5.78641 0 4.72637 1.06004 4.72637 2.36352H7.08989H12.5094H14.1804C15.4839 2.36352 16.544 3.42355 16.544 4.72703V6.39804V6.8802V8.68829V15.8344V17.0681L18.9075 20.0095V8.68829V6.8802V5.90879V3.54527V2.36352C18.9075 1.06004 17.8474 0 16.544 0Z" fill="#878A92"/>
</g>
</svg>
