<svg width="10" height="6" viewBox="0 0 10 6" fill="none" xmlns="http://www.w3.org/2000/svg">
<mask id="mask0_20_70247" style="mask-type:luminance" maskUnits="userSpaceOnUse" x="-2" y="-4" width="14" height="13">
<rect x="-1.15373" y="-3.46019" width="12.3065" height="12.3065" fill="white"/>
</mask>
<g mask="url(#mask0_20_70247)">
<path fill-rule="evenodd" clip-rule="evenodd" d="M0.112984 0.112984C0.185134 0.0406514 0.2831 0 0.385264 0C0.487429 0 0.585395 0.0406514 0.657545 0.112984L5.00019 4.4564L9.34283 0.112984C9.49319 -0.0373737 9.73696 -0.0373946 9.88734 0.112937C10.0377 0.26327 10.0378 0.507041 9.88748 0.657452L5.27247 5.27247C5.20032 5.3448 5.10235 5.38545 5.00019 5.38545C4.89802 5.38545 4.80006 5.3448 4.72791 5.27247L0.112984 0.657545C0.0406514 0.585395 0 0.487429 0 0.385265C0 0.2831 0.0406514 0.185134 0.112984 0.112984H0.112984Z" fill="#8F9198"/>
</g>
</svg>
