<svg width="30" height="30" viewBox="0 0 30 30" fill="none" xmlns="http://www.w3.org/2000/svg">
<g clip-path="url(#clip0_52_41744)">
<path d="M1.78125 21.4688L0.65625 23.25L4.21875 27.0938L8.25 26.7188L1.78125 21.4688Z" fill="#2D2D2D"/>
<path d="M28.875 9.09375L26.3438 3.9375L25.2188 7.125L28.5 9.75L28.875 9.09375Z" fill="#2D2D2D"/>
<path d="M25.8752 7.5L11.5315 6.09375C9.3752 6.1875 7.5002 7.78125 7.03145 9.84375L3.9377 24.5625C3.3752 26.25 4.40645 28.0312 6.09395 28.5938C6.3752 28.6875 6.65645 28.6875 7.03145 28.7812L22.5002 29.0625C24.9377 28.9688 26.9065 27.2812 27.2815 24.9375L29.1565 11.25C29.4377 9.5625 28.3127 7.875 26.6252 7.5C26.344 7.5 26.0627 7.5 25.8752 7.5Z" fill="#2D2D2D"/>
<path d="M23.4378 2.34375L8.2503 2.625C6.0003 2.71875 4.1253 4.21875 3.5628 6.375L0.375301 20.9062C-0.0934491 22.5938 0.844051 24.375 2.53155 24.9375C2.8128 25.0312 3.1878 25.0312 3.5628 25.0312L19.594 25.3125C22.0315 25.3125 24.0941 23.5312 24.5628 21.1875L26.9066 6.09375C27.1878 4.3125 25.969 2.71875 24.2815 2.4375C24.0003 2.34375 23.719 2.34375 23.4378 2.34375Z" fill="#2D2D2D"/>
<path d="M21.4688 22.875C22.3125 22.125 22.875 21.0937 23.25 19.9687C23.4375 19.3125 25.5937 5.15625 25.5937 5.15625L27.9375 9.9375L26.25 22.5938C26.25 22.5938 25.7812 25.5938 24.6562 26.4375L21.4688 22.875Z" fill="url(#paint0_linear_52_41744)"/>
<path d="M21.5625 23.25C20.9062 23.7188 20.1562 24 19.4062 24.2813C18.8438 24.2813 2.8125 23.7188 2.8125 23.7188L6.375 27.5625L20.5312 27.6563C20.5312 27.6563 23.4375 27.5625 24.2812 26.7188L21.4688 23.625" fill="#3F3F3F"/>
<path d="M22.0312 22.875L24.9375 26.25C24.75 26.625 24.375 27 23.9062 27.0938L20.8125 23.1563L22.0312 22.875Z" fill="#2D2D2D"/>
<path d="M22.5004 2.53125L8.71918 2.8125C6.65668 2.90625 4.96918 4.40625 4.50043 6.375L1.50043 20.25C1.03168 21.8438 1.87543 23.5313 3.56293 24C3.84418 24.0938 4.12543 24.0938 4.40668 24.0938L19.0317 24.375C21.2817 24.375 23.1567 22.6875 23.5317 20.4375L25.6879 6.09375C25.9692 4.5 24.9379 2.90625 23.2504 2.625C23.0629 2.53125 22.7817 2.53125 22.5004 2.53125Z" fill="#2D2D2D"/>
<path d="M21.8434 3.4694L9.09344 3.6569C7.21844 3.75065 5.62469 5.06315 5.24969 6.93815L2.43719 19.6882C1.96844 21.1882 2.81219 22.7819 4.31219 23.1569C4.59344 23.2507 4.78094 23.2506 5.06219 23.2506L18.5622 23.5319C20.6247 23.5319 22.4059 21.9382 22.6872 19.8757L24.6559 6.6569C25.0309 5.1569 23.9997 3.75065 22.4997 3.4694C22.3122 3.4694 22.0309 3.37565 21.8434 3.4694Z" fill="url(#paint1_linear_52_41744)"/>
<path d="M21.6558 7.21875C20.5308 6.65625 19.8745 5.4375 19.9683 4.21875C19.9683 4.125 19.9683 3.9375 19.9683 3.84375L20.062 3.375L16.4995 3.75L14.1558 16.875C13.7808 18.4688 12.4683 19.5938 10.8745 19.6875C10.4995 19.6875 10.0308 19.5938 9.65579 19.4062C8.81204 18.9375 8.34329 18 8.62454 17.0625C8.99954 15.5625 10.312 14.3438 11.9058 14.25C12.187 14.25 12.4683 14.25 12.7495 14.3438L13.312 11.0625C13.0308 11.0625 12.7495 11.0625 12.4683 11.0625C8.99954 11.3438 6.18704 13.875 5.43704 17.25C5.06204 19.0312 5.71829 20.9062 7.12454 22.0312C8.06204 22.6875 9.18704 22.9688 10.312 22.9688C13.8745 22.7812 16.8745 20.25 17.6245 16.7812L18.8433 9.9375C20.2495 10.875 21.937 11.25 23.6245 11.0625L24.2808 7.6875C23.3433 7.78125 22.4058 7.59375 21.6558 7.21875Z" fill="#23239E"/>
<path d="M20.062 5.8125C19.0308 5.25 18.7495 4.875 18.7495 3.46875C18.7495 3.375 19.0308 3.28125 19.0308 3.1875L19.4058 3.28125L14.6245 3.5625L12.562 15.4688C12.187 17.0625 10.8745 18.1875 9.28079 18.2812C8.90579 18.2812 8.43704 18.1875 8.06204 18C7.21829 17.5313 6.74954 16.5938 6.93704 15.6563C7.31204 14.0625 8.62454 12.9375 10.2183 12.8437C10.4995 12.8437 10.7808 12.8438 11.062 12.9375L11.6245 9.5625C11.3433 9.5625 11.062 9.5625 10.7808 9.5625C7.31204 9.84375 4.49954 12.375 3.74954 15.75C3.37454 17.5312 4.03079 19.4062 5.43704 20.5312C6.37454 21.1875 7.49954 21.4688 8.62454 21.4688C12.187 21.2812 15.187 18.75 16.0308 15.2812L17.2495 8.4375C18.6558 9.375 20.3433 9.75 22.0308 9.65625L22.687 7.59375C21.7495 7.78125 20.812 6.1875 20.062 5.8125Z" fill="#B942BC"/>
<path d="M20.9058 6.46875C19.7808 5.90625 19.1245 4.6875 19.2183 3.46875C19.2183 3.375 18.937 3.375 19.0308 3.28125H18.2808L16.5933 3.46875L14.3433 16.125C13.9683 17.7188 11.5308 19.5 9.93704 19.5938C9.56204 19.5938 9.09329 19.5 8.71829 19.3125C7.87454 18.8438 7.49954 17.25 7.78079 16.3125C8.15579 14.8125 9.46829 13.5938 11.062 13.5C11.3433 13.5 11.6245 13.5 11.9058 13.5938L12.4683 10.2187C12.187 10.2187 11.9058 10.2187 11.6245 10.2187C8.15579 10.5 5.34329 13.0312 4.59329 16.4062C4.21829 18.1875 4.87454 20.0625 6.28079 21.1875C7.21829 21.8438 8.34329 22.125 9.46829 22.125C13.0308 21.9375 16.0308 19.4062 16.7808 15.9375L17.9995 9.09375C19.4058 10.0312 21.0933 10.4062 22.7808 10.2187L23.437 6.75C22.5933 7.03125 21.7495 6.9375 20.9058 6.46875Z" fill="white"/>
</g>
<defs>
<linearGradient id="paint0_linear_52_41744" x1="27.5888" y1="6.60178" x2="23.1076" y2="26.0737" gradientUnits="userSpaceOnUse">
<stop stop-color="#767D82"/>
<stop offset="1" stop-color="#522448"/>
</linearGradient>
<linearGradient id="paint1_linear_52_41744" x1="6.99747" y1="6.21253" x2="22.6252" y2="23.2005" gradientUnits="userSpaceOnUse">
<stop stop-color="#767D82"/>
<stop offset="1" stop-color="#522448"/>
</linearGradient>
<clipPath id="clip0_52_41744">
<rect width="30" height="30" fill="white"/>
</clipPath>
</defs>
</svg>
