<svg width="120" height="120" viewBox="0 0 120 120" fill="none" xmlns="http://www.w3.org/2000/svg">
<path d="M119 74.4305C119 99.2155 102.145 119 81.7022 119C61.259 119 44.4043 99.2155 44.4043 74.4305C44.4043 49.6454 61.259 29.8608 81.7022 29.8608C102.145 29.8608 119 49.6454 119 74.4305Z" stroke="#9F9F9F" stroke-width="2"/>
<path d="M23.58 12.6215C23.58 13.3447 23.58 14.0678 23.58 14.791C23.58 16.5266 23.58 18.2621 23.58 20.0025C23.58 22.0948 23.58 24.1871 23.58 26.2794C23.58 28.0921 23.58 29.9097 23.58 31.7224C23.58 32.5998 23.5638 33.482 23.58 34.3595C23.58 34.3739 23.58 34.3835 23.58 34.3981C24.1188 33.7568 24.6618 33.1108 25.2006 32.4696C23.8393 32.4696 22.4779 32.4696 21.1165 32.4696C18.9408 32.4696 16.7609 32.4696 14.5852 32.4696C14.0868 32.4696 13.5884 32.4696 13.0941 32.4696C13.6331 33.1108 14.1759 33.7568 14.7148 34.3981C14.7067 33.2651 14.4353 32.0694 13.8761 31.1438C13.5115 30.5412 13.1468 30.1025 12.6525 29.659C12.2676 29.3119 11.8341 29.0756 11.3803 28.878C9.58536 28.0873 7.35291 28.8153 6.12523 30.5557C5.35541 31.6501 4.91378 32.9613 4.90162 34.4028C5.44049 33.7617 5.98342 33.1156 6.5223 32.4744C6.02394 32.4744 5.52963 32.4744 5.03127 32.4744C4.52481 32.4744 3.99809 32.5275 3.49163 32.46C3.63344 32.4841 3.7793 32.5082 3.92111 32.5275C3.81171 32.5082 3.70637 32.4744 3.60508 32.431C3.73473 32.4937 3.86438 32.5612 3.99404 32.6239C3.87654 32.566 3.7712 32.4937 3.6699 32.4021C3.7793 32.5033 3.8887 32.6046 3.99809 32.7058C3.913 32.6239 3.84008 32.5371 3.77525 32.4407C3.86033 32.5709 3.94542 32.701 4.03051 32.8312C3.95352 32.7107 3.89275 32.5853 3.84412 32.4455C3.8968 32.5998 3.95352 32.7541 4.00619 32.9083C3.96568 32.783 3.94137 32.6625 3.92516 32.5323C3.94542 32.701 3.96567 32.8746 3.98188 33.0433C3.96163 32.8119 3.96973 32.5756 3.96973 32.3443C3.96973 31.8622 3.96973 31.3753 3.96973 30.8931C3.96973 29.2733 3.96973 27.6486 3.96973 26.0287C3.96973 24.0666 3.96973 22.1044 3.96973 20.1423C3.96973 18.4501 3.96973 16.758 3.96973 15.0658C3.96973 14.2607 3.96163 13.4556 3.96973 12.6553C3.96973 12.5781 3.97378 12.5058 3.98188 12.4287C3.96163 12.5974 3.94137 12.771 3.92516 12.9397C3.94137 12.8096 3.96973 12.6842 4.00619 12.5637C3.95352 12.718 3.8968 12.8722 3.84412 13.0265C3.89275 12.8867 3.95352 12.7613 4.03051 12.6408C3.94542 12.771 3.86033 12.9012 3.77525 13.0313C3.84412 12.9301 3.91706 12.8433 3.99809 12.7662C3.8887 12.8674 3.7793 12.9686 3.6699 13.0699C3.7712 12.9783 3.87654 12.906 3.99404 12.8481C3.86438 12.9108 3.73473 12.9783 3.60508 13.041C3.71042 12.9928 3.81171 12.9638 3.92111 12.9445C3.7793 12.9686 3.63344 12.9928 3.49163 13.012C3.71447 12.9831 3.94542 12.9976 4.17231 12.9976C4.65852 12.9976 5.14472 12.9976 5.63092 12.9976C7.25161 12.9976 8.86823 12.9976 10.4889 12.9976C12.4459 12.9976 14.4028 12.9976 16.3639 12.9976C18.0575 12.9976 19.7511 12.9976 21.4447 12.9976C22.251 12.9976 23.0573 12.9831 23.8636 12.9976C23.9284 12.9976 23.9932 13.0024 24.0581 13.012C23.9162 12.9879 23.7704 12.9638 23.6285 12.9445C23.738 12.9638 23.8433 12.9976 23.9446 13.041C23.8149 12.9783 23.6853 12.9108 23.5557 12.8481C23.6732 12.906 23.7785 12.9783 23.8798 13.0699C23.7704 12.9686 23.661 12.8674 23.5516 12.7662C23.6367 12.8481 23.7096 12.9349 23.7744 13.0313C23.6893 12.9012 23.6042 12.771 23.5191 12.6408C23.5962 12.7613 23.657 12.8867 23.7055 13.0265C23.6529 12.8722 23.5962 12.718 23.5435 12.5637C23.584 12.689 23.6083 12.8096 23.6245 12.9397C23.6042 12.771 23.584 12.5974 23.5678 12.4287C23.5759 12.4865 23.58 12.554 23.58 12.6215C23.5881 13.1229 23.7542 13.6291 24.054 13.9859C24.3335 14.3185 24.7955 14.574 25.2006 14.5499C26.0637 14.5017 26.8415 13.7014 26.8213 12.6215C26.8051 11.72 26.5296 10.9197 26.0353 10.2448C25.6585 9.73375 25.0548 9.31915 24.4875 9.21309C24.2444 9.16488 24.0054 9.13113 23.7583 9.13113C23.3814 9.13113 23.0005 9.13113 22.6237 9.13113C21.0233 9.13113 19.4229 9.13113 17.8225 9.13113C15.7278 9.13113 13.6371 9.13113 11.5424 9.13113C9.71506 9.13113 7.88774 9.13113 6.06446 9.13113C5.26627 9.13113 4.46404 9.11185 3.66585 9.13113C2.3612 9.16006 1.22673 10.1628 0.845869 11.6525C0.75268 12.0093 0.732422 12.3901 0.732422 12.7662C0.732422 13.2627 0.732422 13.7593 0.732422 14.2559C0.732422 16.3337 0.732422 18.4068 0.732422 20.4846C0.732422 22.9385 0.732422 25.3972 0.732422 27.8511C0.732422 29.4131 0.732422 30.9703 0.732422 32.5323C0.732422 32.6335 0.732422 32.7348 0.732422 32.8312C0.740525 33.4387 0.866128 33.9642 1.08897 34.5089C1.34018 35.1164 1.84259 35.6852 2.3612 35.9552C2.80689 36.1914 3.22422 36.3264 3.71853 36.3313C3.86438 36.3313 4.01429 36.3313 4.16016 36.3313C4.67068 36.3313 5.17713 36.3313 5.68765 36.3313C5.96722 36.3313 6.24679 36.3313 6.52635 36.3313C7.40959 36.3313 8.13891 35.449 8.14702 34.4028C8.14702 34.2244 8.15921 34.0461 8.17944 33.8677C8.15921 34.0365 8.13891 34.21 8.1227 34.3788C8.16323 34.0316 8.24429 33.6989 8.35363 33.3808C8.30098 33.535 8.24429 33.6893 8.19157 33.8436C8.30506 33.5303 8.45091 33.241 8.6251 32.971C8.54002 33.1011 8.45493 33.2313 8.36985 33.3615C8.536 33.1108 8.72238 32.889 8.93308 32.6914C8.82368 32.7926 8.71427 32.8939 8.60487 32.9951C8.83178 32.7878 9.07485 32.6142 9.33821 32.4793C9.20857 32.5419 9.07893 32.6094 8.94929 32.6721C9.2207 32.5371 9.50027 32.4455 9.78795 32.3973C9.64619 32.4214 9.50027 32.4455 9.35851 32.4648C9.65832 32.4166 9.95812 32.4166 10.2579 32.4648C10.1162 32.4407 9.97031 32.4166 9.82849 32.3973C10.1202 32.4455 10.3998 32.5419 10.6672 32.6721C10.5375 32.6094 10.4079 32.5419 10.2782 32.4793C10.5416 32.6142 10.7847 32.7878 11.0116 32.9951C10.9022 32.8939 10.7928 32.7926 10.6834 32.6914C10.8941 32.889 11.0804 33.1108 11.2466 33.3615C11.1615 33.2313 11.0764 33.1011 10.9913 32.971C11.1655 33.241 11.3114 33.5303 11.4249 33.8436C11.3722 33.6893 11.3155 33.535 11.2628 33.3808C11.3762 33.7038 11.4532 34.0365 11.4937 34.3788C11.4734 34.21 11.4532 34.0365 11.437 33.8677C11.4573 34.0461 11.4654 34.2244 11.4694 34.4028C11.4775 35.4442 12.2068 36.3313 13.0901 36.3313C14.4515 36.3313 15.8128 36.3313 17.1742 36.3313C19.35 36.3313 21.5298 36.3313 23.7055 36.3313C24.2039 36.3313 24.7023 36.3313 25.1966 36.3313C26.0718 36.3313 26.8172 35.449 26.8172 34.4028C26.8172 33.6796 26.8172 32.9565 26.8172 32.2334C26.8172 30.4978 26.8172 28.7622 26.8172 27.0218C26.8172 24.9296 26.8172 22.8373 26.8172 20.7449C26.8172 18.9323 26.8172 17.1147 26.8172 15.302C26.8172 14.4246 26.8294 13.5423 26.8172 12.6649C26.8172 12.6505 26.8172 12.6408 26.8172 12.6264C26.8172 11.6188 26.0718 10.6497 25.1966 10.698C24.3214 10.7413 23.58 11.5416 23.58 12.6215Z" fill="#393D46"/>
<path d="M37.5148 26.5105C37.5148 28.3859 37.5148 30.2564 37.5148 32.1318C37.5148 32.4307 37.531 32.7392 37.5026 33.0429C37.5229 32.8743 37.5432 32.7006 37.5594 32.532C37.5432 32.6621 37.5148 32.7875 37.4783 32.908C37.531 32.7537 37.5877 32.5994 37.6404 32.4452C37.5917 32.585 37.531 32.7103 37.454 32.8308C37.5391 32.7006 37.6242 32.5705 37.7093 32.4404C37.6404 32.5416 37.5675 32.6283 37.4864 32.7055C37.5958 32.6043 37.7052 32.503 37.8146 32.4018C37.7133 32.4934 37.608 32.5657 37.4905 32.6236C37.6202 32.5609 37.7498 32.4934 37.8794 32.4307C37.7741 32.4789 37.6728 32.5078 37.5634 32.5271C37.7052 32.503 37.8511 32.4789 37.9929 32.4597C37.5756 32.5127 37.1421 32.4741 36.7207 32.4741C36.3114 32.4741 35.9063 32.4741 35.497 32.4741C36.0359 33.1153 36.5788 33.7613 37.1177 34.4025C37.1096 33.2696 36.8382 32.0739 36.279 31.1483C35.9144 30.5457 35.5497 30.107 35.0554 29.6634C34.6705 29.3163 34.237 29.0801 33.7832 28.8824C31.9842 28.0918 29.7558 28.8198 28.5281 30.5602C27.7583 31.6545 27.3167 32.9659 27.3046 34.4073C27.8434 33.7661 28.3863 33.1201 28.9252 32.4789C27.8393 32.4789 26.7575 32.4789 25.6717 32.4789C25.5137 32.4789 25.3556 32.4789 25.1977 32.4789C25.7365 33.1201 26.2794 33.7661 26.8183 34.4073C26.8183 33.8384 26.8183 33.2744 26.8183 32.7055C26.8183 31.3459 26.8183 29.9817 26.8183 28.6221C26.8183 26.9733 26.8183 25.3294 26.8183 23.6806C26.8183 22.2584 26.8183 20.8314 26.8183 19.4092C26.8183 18.7149 26.8305 18.0207 26.8183 17.3265C26.8183 17.3168 26.8183 17.3072 26.8183 17.2976C26.2794 17.9388 25.7365 18.5848 25.1977 19.226C26.0242 19.226 26.8507 19.226 27.6773 19.226C28.9697 19.226 30.2622 19.226 31.5547 19.226C31.8992 19.226 32.2597 19.197 32.6001 19.2452C32.4583 19.2211 32.3124 19.197 32.1706 19.1778C32.3165 19.2067 32.4502 19.2501 32.5879 19.3127C32.4583 19.2501 32.3286 19.1826 32.199 19.1199C32.3529 19.197 32.4947 19.2935 32.6244 19.414C32.515 19.3127 32.4056 19.2115 32.2962 19.1103C32.5636 19.3658 32.7743 19.7177 32.9931 20.0263C33.3861 20.5855 33.7791 21.1447 34.1762 21.704C35.0959 23.0104 36.0157 24.3218 36.9395 25.6282C37.1623 25.9465 37.3892 26.2598 37.608 26.578C37.5229 26.4478 37.4378 26.3176 37.3527 26.1875C37.4459 26.3369 37.5189 26.4864 37.5836 26.6552C37.531 26.5008 37.4743 26.3466 37.4216 26.1923C37.4783 26.3611 37.5189 26.5298 37.5432 26.7129C37.5229 26.5443 37.5026 26.3707 37.4864 26.202C37.5067 26.3032 37.5148 26.4044 37.5148 26.5105C37.5229 27.0119 37.689 27.5181 37.9888 27.8748C38.2684 28.2075 38.7303 28.463 39.1355 28.4389C39.9985 28.3907 40.7724 27.5904 40.7562 26.5105C40.744 25.8163 40.6022 25.1799 40.3348 24.5628C40.2092 24.2735 40.0269 24.018 39.8526 23.7673C39.7797 23.6661 39.7108 23.5648 39.6379 23.4636C39.2854 22.9623 38.9289 22.456 38.5763 21.9547C37.6202 20.5951 36.6599 19.2308 35.7037 17.8713C35.4403 17.4952 35.1769 17.1192 34.9136 16.748C34.2694 15.8368 33.2848 15.3643 32.2962 15.3643C31.1253 15.3595 29.9503 15.3643 28.7793 15.3643C27.6084 15.3643 26.4334 15.3499 25.2624 15.3643C25.2422 15.3643 25.222 15.3643 25.2017 15.3643C24.3265 15.3643 23.581 16.2466 23.581 17.2927C23.581 17.8616 23.581 18.4257 23.581 18.9946C23.581 20.3541 23.581 21.7184 23.581 23.0779C23.581 24.7267 23.581 26.3707 23.581 28.0195C23.581 29.4417 23.581 30.8687 23.581 32.2909C23.581 32.9851 23.5729 33.6793 23.581 34.3736C23.581 34.3832 23.581 34.3929 23.581 34.4025C23.581 35.4438 24.3225 36.3309 25.2017 36.3309C26.2876 36.3309 27.3693 36.3309 28.4552 36.3309C28.6132 36.3309 28.7712 36.3309 28.9293 36.3309C29.8126 36.3309 30.5418 35.4486 30.5499 34.4025C30.5499 34.2241 30.5621 34.0457 30.5823 33.8674C30.5621 34.0361 30.5418 34.2096 30.5256 34.3784C30.5661 34.0313 30.6472 33.6986 30.7566 33.3805C30.7039 33.5347 30.6472 33.689 30.5945 33.8432C30.708 33.5299 30.8538 33.2406 31.028 32.9706C30.9429 33.1008 30.8578 33.231 30.7727 33.3612C30.9389 33.1105 31.1253 32.8887 31.336 32.691C31.2266 32.7922 31.1172 32.8935 31.0078 32.9947C31.2347 32.7875 31.4777 32.6139 31.7411 32.4789C31.6115 32.5416 31.4818 32.609 31.3522 32.6717C31.6237 32.5367 31.9032 32.4452 32.1909 32.3969C32.0491 32.4211 31.9032 32.4452 31.7614 32.4644C32.0612 32.4162 32.361 32.4162 32.6609 32.4644C32.5191 32.4404 32.3732 32.4162 32.2314 32.3969C32.5231 32.4452 32.8027 32.5416 33.0701 32.6717C32.9404 32.609 32.8108 32.5416 32.6811 32.4789C32.9445 32.6139 33.1876 32.7875 33.4145 32.9947C33.3051 32.8935 33.1957 32.7922 33.0863 32.691C33.297 32.8887 33.4833 33.1105 33.6495 33.3612C33.5644 33.231 33.4793 33.1008 33.3942 32.9706C33.5684 33.2406 33.7143 33.5299 33.8278 33.8432C33.7751 33.689 33.7184 33.5347 33.6657 33.3805C33.7791 33.7034 33.8561 34.0361 33.8966 34.3784C33.8763 34.2096 33.8561 34.0361 33.8399 33.8674C33.8602 34.0457 33.8683 34.2241 33.8723 34.4025C33.8804 35.4438 34.6097 36.3309 35.493 36.3309C36.1332 36.3309 36.7774 36.3309 37.4176 36.3309C37.843 36.3309 38.2765 36.3405 38.6857 36.1718C39.18 35.9741 39.6622 35.6463 39.9985 35.1642C40.1687 34.9184 40.3307 34.6773 40.4361 34.388C40.6143 33.9107 40.6954 33.5588 40.74 33.0382C40.7845 32.4982 40.7521 31.9342 40.7521 31.3942C40.7521 30.4059 40.7521 29.4176 40.7521 28.4293C40.7521 27.7881 40.7521 27.1517 40.7521 26.5105C40.7521 25.5029 40.0066 24.5339 39.1315 24.5821C38.2603 24.6303 37.5148 25.4306 37.5148 26.5105ZM11.4705 34.3977C11.4705 34.5761 11.4584 34.7544 11.4381 34.9328C11.4584 34.764 11.4786 34.5905 11.4948 34.4217C11.4543 34.7689 11.3733 35.1016 11.2639 35.4197C11.3165 35.2655 11.3733 35.1112 11.4259 34.9569C11.3125 35.2702 11.1666 35.5595 10.9924 35.8295C11.0775 35.6994 11.1626 35.5692 11.2477 35.439C11.0815 35.6897 10.8952 35.9115 10.6845 36.1091C10.7939 36.0079 10.9033 35.9066 11.0127 35.8054C10.7858 36.0127 10.5427 36.1863 10.2793 36.3212C10.409 36.2586 10.5386 36.191 10.6683 36.1284C10.3968 36.2634 10.1172 36.355 9.82957 36.4032C9.97138 36.3791 10.1172 36.355 10.259 36.3357C9.95922 36.3839 9.6594 36.3839 9.35957 36.3357C9.50138 36.3598 9.64724 36.3839 9.78905 36.4032C9.49733 36.355 9.21776 36.2586 8.95035 36.1284C9.08 36.191 9.20966 36.2586 9.33931 36.3212C9.07595 36.1863 8.83285 36.0127 8.60596 35.8054C8.71535 35.9066 8.82475 36.0079 8.93415 36.1091C8.72346 35.9115 8.53708 35.6897 8.37096 35.439C8.45604 35.5692 8.54113 35.6994 8.62621 35.8295C8.452 35.5595 8.30613 35.2702 8.19269 34.9569C8.24536 35.1112 8.30208 35.2655 8.35475 35.4197C8.24131 35.0967 8.16432 34.764 8.12381 34.4217C8.14406 34.5905 8.16432 34.764 8.18053 34.9328C8.14001 34.5761 8.14001 34.2193 8.18053 33.8625C8.16027 34.0313 8.14001 34.2048 8.12381 34.3736C8.16432 34.0264 8.24536 33.6938 8.35475 33.3756C8.30208 33.5299 8.24536 33.6842 8.19269 33.8384C8.30613 33.5251 8.452 33.2358 8.62621 32.9659C8.54113 33.096 8.45604 33.2261 8.37096 33.3563C8.53708 33.1056 8.72346 32.8838 8.93415 32.6862C8.82475 32.7875 8.71535 32.8887 8.60596 32.9899C8.83285 32.7826 9.07595 32.609 9.33931 32.4741C9.20966 32.5367 9.08 32.6043 8.95035 32.6669C9.22181 32.532 9.50138 32.4404 9.78905 32.3921C9.64724 32.4162 9.50138 32.4404 9.35957 32.4597C9.6594 32.4114 9.95922 32.4114 10.259 32.4597C10.1172 32.4355 9.97138 32.4114 9.82957 32.3921C10.1213 32.4404 10.4009 32.5367 10.6683 32.6669C10.5386 32.6043 10.409 32.5367 10.2793 32.4741C10.5427 32.609 10.7858 32.7826 11.0127 32.9899C10.9033 32.8887 10.7939 32.7875 10.6845 32.6862C10.8952 32.8838 11.0815 33.1056 11.2477 33.3563C11.1626 33.2261 11.0775 33.096 10.9924 32.9659C11.1666 33.2358 11.3125 33.5251 11.4259 33.8384C11.3733 33.6842 11.3165 33.5299 11.2639 33.3756C11.3773 33.6986 11.4543 34.0313 11.4948 34.3736C11.4746 34.2048 11.4543 34.0313 11.4381 33.8625C11.4624 34.0409 11.4705 34.2193 11.4705 34.3977C11.4746 34.8942 11.6488 35.4101 11.9446 35.762C12.2241 36.0947 12.686 36.3502 13.0912 36.3261C13.9623 36.2779 14.7199 35.4776 14.7118 34.3977C14.7037 33.2551 14.4282 32.045 13.857 31.1146C13.4923 30.5264 13.1357 30.0925 12.6496 29.6538C12.2647 29.3018 11.8311 29.0705 11.3773 28.8728C10.9195 28.6703 10.409 28.5835 9.91871 28.5642C9.43656 28.545 8.93009 28.6221 8.46415 28.7812C7.56872 29.0849 6.69761 29.7164 6.10201 30.5746C5.70495 31.1483 5.44158 31.6882 5.20658 32.3776C5.02426 32.9176 4.95133 33.4817 4.90676 34.0602C4.82573 35.1932 5.09719 36.4177 5.58744 37.3867C6.06555 38.3316 6.79485 39.1705 7.64166 39.6284C8.2332 39.9467 8.75992 40.1202 9.40414 40.2022C9.88629 40.2648 10.3684 40.2022 10.8425 40.0913C11.8352 39.8695 12.8319 39.1608 13.4802 38.24C14.25 37.1457 14.6916 35.8343 14.7037 34.3929C14.7118 33.3853 13.9542 32.4162 13.0831 32.4644C12.2079 32.5175 11.4786 33.3177 11.4705 34.3977Z" fill="#393D46"/>
<path d="M33.8767 34.3978C33.8767 34.5762 33.8646 34.7546 33.8443 34.933C33.8646 34.7642 33.8848 34.5907 33.9011 34.4219C33.8605 34.7691 33.7795 35.1017 33.6701 35.4199C33.7228 35.2656 33.7795 35.1113 33.8322 34.9571C33.7187 35.2704 33.5729 35.5597 33.3986 35.8297C33.4837 35.6995 33.5688 35.5693 33.6539 35.4392C33.4878 35.6899 33.3014 35.9116 33.0907 36.1093C33.2001 36.0081 33.3095 35.9068 33.4189 35.8056C33.192 36.0129 32.9489 36.1865 32.6856 36.3214C32.8152 36.2588 32.9449 36.1912 33.0745 36.1286C32.803 36.2635 32.5235 36.3551 32.2358 36.4034C32.3776 36.3793 32.5235 36.3551 32.6653 36.3359C32.3655 36.3841 32.0656 36.3841 31.7658 36.3359C31.9076 36.36 32.0535 36.3841 32.1953 36.4034C31.9036 36.3551 31.624 36.2588 31.3566 36.1286C31.4862 36.1912 31.6159 36.2588 31.7456 36.3214C31.4822 36.1865 31.2391 36.0129 31.0122 35.8056C31.1216 35.9068 31.231 36.0081 31.3404 36.1093C31.1297 35.9116 30.9433 35.6899 30.7772 35.4392C30.8623 35.5693 30.9474 35.6995 31.0325 35.8297C30.8582 35.5597 30.7124 35.2704 30.5989 34.9571C30.6516 35.1113 30.7083 35.2656 30.761 35.4199C30.6475 35.0969 30.5706 34.7642 30.5301 34.4219C30.5503 34.5907 30.5706 34.7642 30.5868 34.933C30.5463 34.5762 30.5463 34.2195 30.5868 33.8627C30.5665 34.0314 30.5463 34.205 30.5301 34.3737C30.5706 34.0266 30.6516 33.694 30.761 33.3758C30.7083 33.5301 30.6516 33.6843 30.5989 33.8386C30.7124 33.5252 30.8582 33.236 31.0325 32.966C30.9474 33.0962 30.8623 33.2263 30.7772 33.3565C30.9433 33.1058 31.1297 32.884 31.3404 32.6864C31.231 32.7876 31.1216 32.8889 31.0122 32.9901C31.2391 32.7828 31.4822 32.6092 31.7456 32.4743C31.6159 32.5369 31.4862 32.6044 31.3566 32.6671C31.6281 32.5321 31.9076 32.4405 32.1953 32.3923C32.0535 32.4164 31.9076 32.4405 31.7658 32.4598C32.0656 32.4116 32.3655 32.4116 32.6653 32.4598C32.5235 32.4357 32.3776 32.4116 32.2358 32.3923C32.5275 32.4405 32.8071 32.5369 33.0745 32.6671C32.9449 32.6044 32.8152 32.5369 32.6856 32.4743C32.9489 32.6092 33.192 32.7828 33.4189 32.9901C33.3095 32.8889 33.2001 32.7876 33.0907 32.6864C33.3014 32.884 33.4878 33.1058 33.6539 33.3565C33.5688 33.2263 33.4837 33.0962 33.3986 32.966C33.5729 33.236 33.7187 33.5252 33.8322 33.8386C33.7795 33.6843 33.7228 33.5301 33.6701 33.3758C33.7836 33.6988 33.8605 34.0314 33.9011 34.3737C33.8808 34.205 33.8605 34.0314 33.8443 33.8627C33.8646 34.0411 33.8767 34.2195 33.8767 34.3978C33.8808 34.8944 34.055 35.4103 34.3508 35.7622C34.6304 36.0948 35.0923 36.3504 35.4974 36.3262C36.3685 36.2781 37.1262 35.4777 37.1181 34.3978C37.11 33.2553 36.8345 32.0452 36.2632 31.1147C35.8986 30.5266 35.542 30.0927 35.0558 29.654C34.6708 29.302 34.2373 29.0706 33.7836 28.873C33.3257 28.6705 32.8152 28.5837 32.3249 28.5644C31.8428 28.5451 31.3363 28.6223 30.8704 28.7814C29.975 29.0851 29.1039 29.7167 28.5083 30.5748C28.1112 31.1485 27.8478 31.6884 27.6128 32.3778C27.4305 32.9178 27.3576 33.4819 27.313 34.0604C27.232 35.1933 27.5034 36.4178 27.9937 37.3868C28.4718 38.3318 29.2011 39.1707 30.0479 39.6286C30.6394 39.9468 31.1662 40.1203 31.8104 40.2024C32.2925 40.265 32.7747 40.2024 33.2487 40.0915C34.2414 39.8697 35.2381 39.161 35.8864 38.2402C36.6562 37.1458 37.0978 35.8345 37.11 34.393C37.1181 33.3854 36.3604 32.4164 35.4893 32.4646C34.6142 32.5177 33.8848 33.3179 33.8767 34.3978Z" fill="#393D46"/>
</svg>
