<svg width="200" height="200" viewBox="0 0 200 200" fill="none" xmlns="http://www.w3.org/2000/svg">
<path d="M100.823 0.753121C108.63 0.818099 116.371 1.80346 123.891 3.66882C132.364 5.77037 140.556 8.98887 148.246 13.2666C162.979 21.4627 175.382 33.2771 184.284 47.5953C193.187 61.9135 198.295 78.2635 199.126 95.103C199.561 103.892 198.823 112.663 196.959 121.191C195.305 128.76 192.763 136.138 189.368 143.168L169.205 133.241C174.74 121.716 177.312 108.989 176.681 96.2118C176.037 83.1853 172.086 70.5375 165.199 59.4613C158.313 48.3852 148.718 39.2459 137.321 32.9056C126.142 26.6868 113.59 23.3618 100.806 23.2271L100.823 0.753121Z" fill="#82BD39" stroke="white" stroke-width="1.5"/>
<path d="M188.684 144.556C185.18 151.532 180.878 158.043 175.884 163.967C170.258 170.642 163.754 176.571 156.521 181.583C142.662 191.184 126.586 197.098 109.808 198.764C93.0307 200.431 76.1052 197.796 60.6284 191.108C52.5508 187.618 45.0067 183.083 38.1775 177.646C32.1159 172.82 26.6174 167.283 21.8089 161.133L39.6178 147.424C47.5145 157.478 57.7997 165.404 69.5426 170.479C81.5151 175.652 94.6081 177.69 107.587 176.401C120.565 175.112 133.001 170.538 143.722 163.11C154.237 155.825 162.762 146.03 168.527 134.619L188.684 144.556Z" fill="#6339BD" stroke="white" stroke-width="1.5"/>
<mask id="path-3-inside-1_37_43862" fill="white">
<path fill-rule="evenodd" clip-rule="evenodd" d="M39.9809 146.667C39.9787 146.664 39.9765 146.661 39.9743 146.658C31.2519 135.437 25.8496 121.995 24.3808 107.858C22.9116 93.717 25.4366 79.4478 31.6692 66.6702C37.9017 53.8926 47.5921 43.1184 59.64 35.5712C71.6879 28.0239 85.6106 24.0059 99.8272 23.9734L99.7724 0.000301191C91.6446 0.0188818 83.5899 1.02783 75.779 2.97787C65.6194 5.51429 55.8723 9.64285 46.9133 15.2551C31.0664 25.1822 18.3204 39.3536 10.1225 56.1604C1.9247 72.9671 -1.39654 91.7357 0.535948 110.335C1.62848 120.85 4.37544 131.073 8.631 140.641C11.9001 147.991 16.0595 154.954 21.0431 161.366C21.0471 161.371 21.0511 161.377 21.0551 161.382L39.9809 146.667Z"/>
</mask>
<path fill-rule="evenodd" clip-rule="evenodd" d="M39.9809 146.667C39.9787 146.664 39.9765 146.661 39.9743 146.658C31.2519 135.437 25.8496 121.995 24.3808 107.858C22.9116 93.717 25.4366 79.4478 31.6692 66.6702C37.9017 53.8926 47.5921 43.1184 59.64 35.5712C71.6879 28.0239 85.6106 24.0059 99.8272 23.9734L99.7724 0.000301191C91.6446 0.0188818 83.5899 1.02783 75.779 2.97787C65.6194 5.51429 55.8723 9.64285 46.9133 15.2551C31.0664 25.1822 18.3204 39.3536 10.1225 56.1604C1.9247 72.9671 -1.39654 91.7357 0.535948 110.335C1.62848 120.85 4.37544 131.073 8.631 140.641C11.9001 147.991 16.0595 154.954 21.0431 161.366C21.0471 161.371 21.0511 161.377 21.0551 161.382L39.9809 146.667Z" fill="#F6C139"/>
<path d="M39.9809 146.667L40.9016 147.851L42.0861 146.93L41.1648 145.746L39.9809 146.667ZM39.9743 146.658L41.159 145.738L41.1586 145.738L39.9743 146.658ZM24.3808 107.858L25.8727 107.703L25.8727 107.703L24.3808 107.858ZM31.6692 66.6702L30.321 66.0126L31.6692 66.6702ZM59.64 35.5712L60.4363 36.8424L59.64 35.5712ZM99.8272 23.9734L99.8306 25.4734L101.331 25.47L101.327 23.97L99.8272 23.9734ZM99.7724 0.000301191L101.272 -0.00312792L101.269 -1.50313L99.769 -1.4997L99.7724 0.000301191ZM75.779 2.97787L75.4157 1.52253L75.779 2.97787ZM46.9133 15.2551L46.1169 13.9839L46.9133 15.2551ZM10.1225 56.1604L11.4707 56.818L10.1225 56.1604ZM0.535948 110.335L-0.956027 110.49L0.535948 110.335ZM8.631 140.641L7.26044 141.25L8.631 140.641ZM21.0431 161.366L19.8587 162.287L19.8588 162.287L21.0431 161.366ZM21.0551 161.382L19.871 162.303L20.7918 163.487L21.9758 162.566L21.0551 161.382ZM41.1648 145.746C41.1625 145.743 41.1607 145.74 41.159 145.738L38.7896 147.578C38.7922 147.582 38.7948 147.585 38.797 147.588L41.1648 145.746ZM41.1586 145.738C32.6083 134.737 27.3126 121.561 25.8727 107.703L22.8888 108.013C24.3866 122.428 29.8954 136.136 38.79 147.579L41.1586 145.738ZM25.8727 107.703C24.4325 93.841 26.9077 79.8533 33.0173 67.3278L30.321 66.0126C23.9654 79.0423 21.3906 93.593 22.8888 108.013L25.8727 107.703ZM33.0173 67.3278C39.1269 54.8023 48.6261 44.2407 60.4363 36.8424L58.8437 34.3C46.5581 41.9962 36.6765 52.9829 30.321 66.0126L33.0173 67.3278ZM60.4363 36.8424C72.2465 29.444 85.8945 25.5053 99.8306 25.4734L99.8238 22.4734C85.3267 22.5066 71.1293 26.6038 58.8437 34.3L60.4363 36.8424ZM101.327 23.97L101.272 -0.00312792L98.2724 0.00373031L98.3272 23.9769L101.327 23.97ZM99.769 -1.4997C91.5193 -1.48084 83.3438 -0.456759 75.4157 1.52253L76.1424 4.43321C83.8361 2.51241 91.77 1.51861 99.7758 1.5003L99.769 -1.4997ZM75.4157 1.52253C65.1037 4.09698 55.2103 8.28748 46.1169 13.9839L47.7096 16.5263C56.5342 10.9982 66.1351 6.93159 76.1424 4.43321L75.4157 1.52253ZM46.1169 13.9839C30.0324 24.0599 17.0952 38.4439 8.77436 55.5028L11.4707 56.818C19.5456 40.2634 32.1004 26.3045 47.7096 16.5263L46.1169 13.9839ZM8.77436 55.5028C0.453551 72.5616 -2.9175 91.6117 -0.956027 110.49L2.02792 110.18C0.124424 91.8596 3.39584 73.3726 11.4707 56.818L8.77436 55.5028ZM-0.956027 110.49C0.152889 121.163 2.94107 131.539 7.26044 141.25L10.0015 140.031C5.80982 130.607 3.10406 120.537 2.02792 110.18L-0.956027 110.49ZM7.26044 141.25C10.5786 148.71 14.8004 155.778 19.8587 162.287L22.2275 160.446C17.3187 154.13 13.2216 147.271 10.0015 140.031L7.26044 141.25ZM19.8588 162.287C19.8628 162.292 19.8669 162.297 19.871 162.303L22.2392 160.461C22.2353 160.456 22.2314 160.451 22.2274 160.446L19.8588 162.287ZM21.9758 162.566L40.9016 147.851L39.0601 145.483L20.1344 160.197L21.9758 162.566Z" fill="white" mask="url(#path-3-inside-1_37_43862)"/>
</svg>
