<svg width="135" height="21" viewBox="0 0 135 21" fill="none" xmlns="http://www.w3.org/2000/svg">
<g clip-path="url(#clip0_52_117926)">
<path d="M17.5063 17.3208C17.5484 17.3631 17.5816 17.4134 17.604 17.4686C17.6265 17.5239 17.6377 17.583 17.6371 17.6427V19.764C17.6364 19.883 17.5864 19.9958 17.4968 20.0813C17.4064 20.1685 17.2654 20.1969 17.1606 20.215L1.10026 20.2038C0.979383 20.2027 0.863873 20.1537 0.779098 20.0676C0.694322 19.9815 0.647213 19.8653 0.648116 19.7445V17.3373C0.648116 17.2518 0.701548 17.139 0.787776 17.0433L12.7968 3.66806H0.451119C0.196488 3.66599 -0.00131995 3.47003 6.63327e-06 3.22244L0.016073 1.05054C0.0163848 0.990938 0.0285241 0.931986 0.0517882 0.877099C0.0750523 0.822213 0.108979 0.772482 0.151606 0.730784C0.236991 0.646609 0.352328 0.599751 0.47227 0.600509H0.476029L16.5378 0.620687C16.7883 0.622749 16.9902 0.82792 16.9882 1.08096V3.37046C16.9882 3.5394 16.9526 3.65156 16.8677 3.74597L4.87992 17.1861H17.1867C17.2463 17.1862 17.3052 17.1982 17.3601 17.2213C17.415 17.2445 17.4647 17.2783 17.5063 17.3208ZM39.4952 3.2762C41.3926 5.20014 42.4261 7.74342 42.4062 10.4369C42.3871 13.1296 41.3159 15.6571 39.3905 17.553C37.4651 19.449 34.9079 20.5087 32.2248 20.4626C29.5286 20.4431 26.9996 19.3727 25.1022 17.4487C23.2048 15.5248 22.1706 12.9818 22.1905 10.2885C22.2103 7.59473 23.2815 5.06714 25.2069 3.17126C27.1139 1.29313 29.6293 0.261748 32.2966 0.261748C32.322 0.261748 32.348 0.261748 32.3734 0.262117C35.0688 0.281632 37.5972 1.35234 39.4953 3.27627L39.4952 3.2762ZM39.1742 10.4129C39.2016 6.62448 36.14 3.52003 32.3493 3.49271C28.5663 3.47216 25.4512 6.52395 25.4232 10.312C25.3957 14.0997 28.4574 17.2046 32.2487 17.2326C32.2658 17.2326 32.2822 17.233 32.2994 17.233C36.066 17.2326 39.1454 14.1839 39.1742 10.4129ZM85.3242 19.885C85.3701 19.9893 85.3263 20.0741 85.3051 20.106C85.2845 20.1371 85.2243 20.2096 85.1127 20.2096H82.1825C82.0907 20.2089 82.0079 20.1542 81.9723 20.0728L80.1311 15.7594H70.1426L68.2056 20.0731C68.1871 20.114 68.1572 20.1486 68.1194 20.1728C68.0816 20.1971 68.0377 20.2098 67.9928 20.2096H65.0263C64.9127 20.2089 64.8531 20.1347 64.8326 20.1026C64.8121 20.0708 64.7697 19.9856 64.8162 19.883L73.5431 0.768784C73.5883 0.672679 73.6581 0.610451 73.7224 0.610451H76.7813C76.8642 0.610451 76.934 0.750668 76.9517 0.791024L85.3242 19.885L85.3242 19.885ZM78.782 12.6926L75.2187 4.57711L71.5362 12.6926H78.782ZM59.4452 17.132H59.4445L51.0943 17.1327V0.791024C51.095 0.767215 51.0909 0.743515 51.0822 0.721315C51.0736 0.699116 51.0606 0.678866 51.044 0.661755C51.0274 0.644644 51.0076 0.631018 50.9857 0.621676C50.9637 0.612334 50.9402 0.607466 50.9163 0.607357L49.4827 0.609714L48.0491 0.607357C48.0252 0.607476 48.0017 0.612351 47.9797 0.621696C47.9578 0.631041 47.938 0.644668 47.9214 0.661777C47.9048 0.678886 47.8918 0.699132 47.8832 0.721327C47.8746 0.743522 47.8704 0.767218 47.8711 0.791024V20.0204C47.8704 20.0878 47.9026 20.1301 47.9225 20.15C47.939 20.1669 47.9588 20.1804 47.9807 20.1896C48.0025 20.1988 48.026 20.2036 48.0497 20.2037L59.2617 20.2121H59.4451C59.4964 20.2128 59.5413 20.1944 59.5755 20.1608C59.6097 20.1272 59.6285 20.0822 59.6289 20.0343V17.3097C59.6288 17.2859 59.6239 17.2623 59.6145 17.2404C59.6052 17.2185 59.5915 17.1987 59.5744 17.1821C59.5573 17.1656 59.537 17.1526 59.5148 17.144C59.4926 17.1353 59.4689 17.1312 59.4451 17.1319L59.4452 17.132ZM134.276 11.1027C132.362 15.1751 126.856 18.3527 123.744 19.8841C123.069 20.2177 122.509 20.4689 122.312 20.5503C122.309 20.5515 122.067 20.6689 121.761 20.6866L121.704 20.6874L121.69 20.6866C121.384 20.6689 121.141 20.5515 121.136 20.5491C120.941 20.4689 120.381 20.2174 119.707 19.8841C117.637 18.8657 114.509 17.1189 112.082 14.8652C109.656 17.1189 106.527 18.8657 104.458 19.8841C103.783 20.2177 103.222 20.4689 103.025 20.5503C103.023 20.5515 102.78 20.6689 102.474 20.6866L102.417 20.6874L102.403 20.6866C102.097 20.6689 101.855 20.5515 101.85 20.5491C101.655 20.4689 101.094 20.2174 100.42 19.8841C97.308 18.3527 91.8018 15.1754 89.8882 11.1027C89.0205 9.25797 88.9299 7.17636 89.6329 5.24152C90.3595 3.24792 91.8343 1.65295 93.785 0.750226C96.4592 -0.487354 99.5713 -0.177388 101.906 1.55868C102.081 1.68949 102.25 1.82732 102.414 1.97182L102.439 1.99392L102.464 1.97182C102.627 1.82724 102.796 1.68941 102.971 1.55868C105.306 -0.177388 108.417 -0.487206 111.093 0.750226C111.434 0.908465 111.765 1.09003 112.082 1.29364C112.399 1.09006 112.73 0.908494 113.072 0.750226C115.746 -0.487354 118.858 -0.177388 121.192 1.55868C121.367 1.68947 121.537 1.8273 121.7 1.97182L121.725 1.99392L121.751 1.97182C121.914 1.82726 122.083 1.68943 122.258 1.55868C124.593 -0.177388 127.704 -0.487206 130.379 0.750226C132.33 1.6528 133.804 3.24777 134.531 5.24138C135.234 7.17599 135.144 9.25753 134.276 11.1027ZM112.082 10.4841C112.199 10.2915 112.306 10.093 112.402 9.88931C112.944 8.73473 112.999 7.43095 112.557 6.21774C112.433 5.87992 112.274 5.55625 112.082 5.25228C111.89 5.55625 111.731 5.87992 111.607 6.21774C111.165 7.43117 111.22 8.73488 111.762 9.88931C111.858 10.093 111.965 10.2915 112.082 10.4841ZM110.169 12.7521C109.779 12.2211 109.442 11.6706 109.175 11.1027C108.307 9.25797 108.217 7.17636 108.919 5.24152C109.164 4.57007 109.498 3.93481 109.913 3.35308C109.906 3.34977 109.899 3.34609 109.892 3.34277C109.195 3.02014 108.456 2.85643 107.696 2.85643C106.595 2.85643 105.552 3.19998 104.68 3.84981C104.207 4.2016 103.678 4.68397 103.015 5.82183C102.834 6.15507 102.557 6.66189 102.533 6.69679C102.513 6.72662 102.476 6.782 102.439 6.782C102.402 6.782 102.365 6.72728 102.341 6.69164C102.32 6.66181 102.044 6.15522 101.862 5.8208C101.199 4.68316 100.67 4.20116 100.197 3.84981C99.325 3.19998 98.282 2.85643 97.1811 2.85643C96.4214 2.85643 95.6828 3.01999 94.9851 3.34277C93.7311 3.92272 92.7847 4.94378 92.3207 6.21782C91.8786 7.43124 91.9335 8.73495 92.4754 9.88939C94.0758 13.2945 99.4483 16.2218 101.684 17.3223C101.929 17.4433 102.175 17.5613 102.423 17.6762L102.439 17.6836L102.455 17.6762C102.702 17.5612 102.949 17.4433 103.194 17.3223C104.768 16.5475 107.896 14.8672 110.169 12.7522L110.169 12.7521ZM131.843 6.21774C131.379 4.94378 130.433 3.92264 129.179 3.3427C128.482 3.02007 127.743 2.85636 126.983 2.85636C125.882 2.85636 124.839 3.1999 123.967 3.84974C123.494 4.20153 122.965 4.68389 122.301 5.82176C122.121 6.155 121.844 6.66181 121.82 6.69672C121.8 6.72655 121.762 6.78193 121.725 6.78193C121.689 6.78193 121.652 6.72721 121.627 6.69156C121.607 6.66174 121.331 6.15515 121.149 5.82073C120.486 4.68308 119.957 4.20109 119.484 3.84974C118.612 3.1999 117.569 2.85636 116.468 2.85636C115.708 2.85636 114.969 3.01992 114.272 3.3427C114.265 3.34594 114.258 3.3497 114.251 3.35301C114.666 3.93471 115 4.56992 115.244 5.2413C115.947 7.17592 115.857 9.25745 114.989 11.1027C114.722 11.6706 114.386 12.221 113.995 12.7521C116.268 14.8671 119.397 16.5474 120.97 17.3222C121.215 17.4433 121.462 17.5613 121.71 17.6762L121.726 17.6835L121.741 17.6762C121.989 17.5612 122.236 17.4432 122.48 17.3222C124.716 16.2216 130.088 13.2944 131.689 9.88931C132.231 8.73473 132.285 7.43095 131.843 6.21774Z" fill="#183B54"/>
</g>
<defs>
<clipPath id="clip0_52_117926">
<rect width="135" height="20.6875" fill="white"/>
</clipPath>
</defs>
</svg>
