<svg width="40" height="36" viewBox="0 0 40 36" fill="none" xmlns="http://www.w3.org/2000/svg">
<path d="M39.9169 34.0309L34.3574 20.9323C34.1889 20.5532 33.8098 20.3005 33.3886 20.3005H24.1227V24.8914C24.1227 27.1657 22.2695 29.061 19.9531 29.061C17.6787 29.061 15.7834 27.2078 15.7834 24.8914V20.3005H6.51749C6.09631 20.3005 5.71725 20.5532 5.54878 20.9323L0.0734675 34.0309C-0.0528859 34.3258 -0.0107681 34.7048 0.157703 34.9996C0.368292 35.2945 0.663117 35.4629 1.04218 35.4629H38.9482C39.2851 35.4629 39.6221 35.2945 39.7906 34.9996C40.0433 34.7048 40.0433 34.3258 39.9169 34.0309Z" fill="#3347D2"/>
<path fill-rule="evenodd" clip-rule="evenodd" d="M10.6031 14.4464H18.4371V24.8495C18.4371 25.6919 19.1531 26.4079 19.9954 26.4079C20.8378 26.4079 21.5538 25.6919 21.5538 24.8495V14.4464H29.3877C29.9773 14.4464 30.4406 13.9831 30.4406 13.3935V1.05294C30.4406 0.463296 29.9773 0 29.3877 0H10.6031C10.0135 0 9.5502 0.463296 9.5502 1.05294V13.3935C9.5502 13.9831 10.0135 14.4464 10.6031 14.4464ZM14.7307 2.82041H25.218C25.8077 2.82041 26.271 3.50642 26.271 4.37951C26.271 5.25261 25.8077 5.93861 25.218 5.93861H14.7307C14.141 5.93861 13.6777 5.25261 13.6777 4.37951C13.7199 3.50642 14.1832 2.82041 14.7307 2.82041ZM25.218 8.54991H14.7307C14.1832 8.54991 13.7199 9.23592 13.6777 10.109C13.6777 10.9821 14.141 11.6681 14.7307 11.6681H25.218C25.8077 11.6681 26.271 10.9821 26.271 10.109C26.271 9.23592 25.8077 8.54991 25.218 8.54991Z" fill="#3347D2"/>
</svg>
