<svg width="15" height="16" viewBox="0 0 15 16" fill="none" xmlns="http://www.w3.org/2000/svg">
<path d="M13.9874 6.48337C14.2572 6.63141 14.4822 6.84921 14.6389 7.11401C14.7957 7.37881 14.8784 7.68086 14.8784 7.98856C14.8784 8.29627 14.7957 8.59832 14.6389 8.86311C14.4822 9.12791 14.2572 9.34572 13.9874 9.49376L2.54109 15.7892C2.28012 15.932 1.98653 16.0046 1.68909 15.9997C1.39165 15.9949 1.10057 15.9129 0.844372 15.7617C0.588173 15.6105 0.37565 15.3954 0.227629 15.1374C0.0796081 14.8793 0.00116936 14.5872 0 14.2898L0 1.6988C0.00313458 1.4023 0.0830047 1.11166 0.231831 0.855194C0.380658 0.598728 0.593368 0.385177 0.849244 0.235339C1.10512 0.0855018 1.39544 0.00448552 1.69193 0.000180967C1.98842 -0.00412358 2.28097 0.0684304 2.54109 0.210776L13.9874 6.50626V6.48337Z" fill="white"/>
</svg>
