<svg width="20" height="19" viewBox="0 0 20 19" fill="none" xmlns="http://www.w3.org/2000/svg">
<path d="M11.1146 9.97546C11.4159 9.67419 11.4159 9.18571 11.1146 8.88444C10.8134 8.58317 10.3249 8.58317 10.0236 8.88444L11.1146 9.97546ZM8.02845 11.9707L8.57396 12.5161L8.02845 11.9707ZM13.1202 17.0624L12.5747 16.5169L13.1202 17.0624ZM17.1215 13.061L17.667 13.6065L17.1215 13.061ZM6.9381 2.87759L7.48361 3.4231L6.9381 2.87759ZM2.57672 7.23897L2.0312 6.69346L2.57672 7.23897ZM2.03004 16.5164C2.33068 16.8183 2.81914 16.8193 3.12107 16.5187C3.42299 16.2181 3.42403 15.7296 3.12339 15.4277L2.03004 16.5164ZM10.0236 8.88444L7.48294 11.4252L8.57396 12.5161L11.1146 9.97546L10.0236 8.88444ZM7.48294 11.4252C5.77244 13.1357 5.77244 15.8974 7.48294 17.6079L8.57396 16.5169C7.46601 15.409 7.46601 13.6241 8.57396 12.5161L7.48294 11.4252ZM7.48294 17.6079C9.19343 19.3184 11.9551 19.3184 13.6656 17.6079L12.5747 16.5169C11.4667 17.6248 9.68191 17.6248 8.57396 16.5169L7.48294 17.6079ZM13.6656 17.6079L17.667 13.6065L16.576 12.5155L12.5747 16.5169L13.6656 17.6079ZM17.667 13.6065C20.7765 10.4971 20.7765 5.44151 17.667 2.33207L16.576 3.4231C19.0829 5.92998 19.0829 10.0086 16.576 12.5155L17.667 13.6065ZM17.667 2.33207C14.5576 -0.777358 9.50202 -0.777358 6.39259 2.33207L7.48361 3.4231C9.9905 0.916221 14.0692 0.916221 16.576 3.4231L17.667 2.33207ZM6.39259 2.33207L2.0312 6.69346L3.12223 7.78449L7.48361 3.4231L6.39259 2.33207ZM2.0312 6.69346C-0.677712 9.40237 -0.676035 13.7987 2.03004 16.5164L3.12339 15.4277C1.01549 13.3108 1.01716 9.88955 3.12223 7.78449L2.0312 6.69346Z" fill="#93989A"/>
</svg>
