<svg width="48" height="48" viewBox="0 0 48 48" fill="none" xmlns="http://www.w3.org/2000/svg">
<path d="M37.3312 36.961C38.5265 36.961 39.7312 36.7079 40.7156 35.9907C41.85 35.1657 42.7593 33.9798 43.0125 32.5689C43.1906 31.5657 43.1343 30.5439 43.1343 29.5314C43.1343 27.2157 43.1484 24.8954 43.1343 22.5751C43.1296 21.4782 42.8156 20.3298 42.164 19.4392C41.3437 18.3142 40.1718 17.4095 38.775 17.1517C38.2359 17.0486 37.6828 16.997 37.1343 17.0251C36.3093 17.0673 35.5921 17.2689 34.8515 17.6157C33.5578 18.2204 32.6437 19.3923 32.1328 20.6907C31.7203 21.7361 31.8 22.8986 31.8 24.0001C31.8 25.3876 31.8 26.7798 31.8 28.1673C31.8 29.2079 31.8 30.2485 31.8 31.2892C31.8 32.222 32.0015 33.0657 32.3953 33.9048C32.9953 35.1985 34.1718 36.1126 35.4703 36.6235C36.0562 36.8579 36.7031 36.9564 37.3312 36.961C38.3109 36.9704 39.2531 36.0939 39.2062 35.086C39.1593 34.0642 38.3812 33.2204 37.3312 33.211C37.1578 33.211 36.989 33.197 36.8156 33.1735C36.9796 33.197 37.1484 33.2204 37.3125 33.2392C36.9984 33.1923 36.6984 33.1079 36.4078 32.986C36.5578 33.047 36.7078 33.1126 36.8578 33.1735C36.5718 33.0517 36.3093 32.897 36.0609 32.7095C36.1875 32.8079 36.314 32.9064 36.4406 33.0048C36.1828 32.8032 35.9531 32.5735 35.7515 32.3157C35.85 32.4423 35.9484 32.5689 36.0468 32.6954C35.8593 32.447 35.7046 32.1845 35.5828 31.8985C35.6437 32.0485 35.7093 32.1985 35.7703 32.3485C35.6484 32.0579 35.564 31.7579 35.5171 31.4439C35.5406 31.6079 35.564 31.7767 35.5828 31.9407C35.5265 31.5235 35.5453 31.097 35.5453 30.6751C35.5453 29.9485 35.5453 29.2267 35.5453 28.5001C35.5453 26.8314 35.5453 25.1673 35.5453 23.4986C35.5453 23.0111 35.5171 22.5142 35.5828 22.0314C35.5593 22.1954 35.5359 22.3642 35.5171 22.5282C35.564 22.2142 35.6484 21.9142 35.7703 21.6236C35.7093 21.7736 35.6437 21.9236 35.5828 22.0736C35.7046 21.7876 35.8593 21.5251 36.0468 21.2767C35.9484 21.4032 35.85 21.5298 35.7515 21.6564C35.9531 21.3986 36.1828 21.1689 36.4406 20.9673C36.314 21.0657 36.1875 21.1642 36.0609 21.2626C36.3093 21.0751 36.5718 20.9204 36.8578 20.7986C36.7078 20.8595 36.5578 20.9251 36.4078 20.9861C36.6984 20.8642 36.9984 20.7798 37.3125 20.7329C37.1484 20.7564 36.9796 20.7798 36.8156 20.7986C37.2421 20.7423 37.6921 20.7423 38.1187 20.7986C37.9546 20.7751 37.7859 20.7517 37.6218 20.7329C37.9359 20.7798 38.2359 20.8642 38.5265 20.9861C38.3765 20.9251 38.2265 20.8595 38.0765 20.7986C38.3625 20.9204 38.625 21.0751 38.8734 21.2626C38.7468 21.1642 38.6203 21.0657 38.4937 20.9673C38.7515 21.1689 38.9812 21.3986 39.1828 21.6564C39.0843 21.5298 38.9859 21.4032 38.8875 21.2767C39.075 21.5251 39.2296 21.7876 39.3515 22.0736C39.2906 21.9236 39.225 21.7736 39.164 21.6236C39.2859 21.9142 39.3703 22.2142 39.4171 22.5282C39.3937 22.3642 39.3703 22.1954 39.3515 22.0314C39.4078 22.4486 39.389 22.8751 39.389 23.297C39.389 24.0236 39.389 24.7454 39.389 25.472C39.389 27.1407 39.389 28.8048 39.389 30.4735C39.389 30.961 39.4171 31.4579 39.3515 31.9407C39.375 31.7767 39.3984 31.6079 39.4171 31.4439C39.3703 31.7579 39.2859 32.0579 39.164 32.3485C39.225 32.1985 39.2906 32.0485 39.3515 31.8985C39.2296 32.1845 39.075 32.447 38.8875 32.6954C38.9859 32.5689 39.0843 32.4423 39.1828 32.3157C38.9812 32.5735 38.7515 32.8032 38.4937 33.0048C38.6203 32.9064 38.7468 32.8079 38.8734 32.7095C38.625 32.897 38.3625 33.0517 38.0765 33.1735C38.2265 33.1126 38.3765 33.047 38.5265 32.986C38.2359 33.1079 37.9359 33.1923 37.6218 33.2392C37.7859 33.2157 37.9546 33.1923 38.1187 33.1735C37.8562 33.2064 37.5937 33.211 37.3312 33.211C36.3515 33.211 35.4093 34.0735 35.4562 35.086C35.5031 36.1032 36.2812 36.961 37.3312 36.961ZM10.3968 36.961C11.5921 36.961 12.7968 36.7079 13.7812 35.9907C14.9156 35.1657 15.825 33.9798 16.0781 32.5689C16.2562 31.5657 16.2 30.5439 16.2 29.5314C16.2 27.2157 16.214 24.8954 16.2 22.5751C16.1953 21.4782 15.8812 20.3298 15.2296 19.4392C14.4093 18.3142 13.2374 17.4095 11.8406 17.1517C11.3015 17.0486 10.7484 16.997 10.1999 17.0251C9.37494 17.0673 8.65775 17.2689 7.91712 17.6157C6.62337 18.2204 5.70931 19.3923 5.19838 20.6907C4.78588 21.7361 4.86556 22.8986 4.86556 24.0001C4.86556 25.3876 4.86556 26.7798 4.86556 28.1673C4.86556 29.2079 4.86556 30.2485 4.86556 31.2892C4.86556 32.222 5.06713 33.0657 5.46088 33.9048C6.06087 35.1985 7.23744 36.1126 8.53588 36.6235C9.12182 36.8579 9.76868 36.9564 10.3968 36.961C11.3765 36.9704 12.3187 36.0939 12.2718 35.086C12.2249 34.0642 11.4468 33.2204 10.3968 33.211C10.2234 33.211 10.0546 33.197 9.88119 33.1735C10.0453 33.197 10.214 33.2204 10.3781 33.2392C10.064 33.1923 9.764 33.1079 9.47337 32.986C9.62337 33.047 9.77338 33.1126 9.92338 33.1735C9.63743 33.0517 9.37493 32.897 9.1265 32.7095C9.25307 32.8079 9.37962 32.9064 9.50619 33.0048C9.24837 32.8032 9.01868 32.5735 8.81713 32.3157C8.91557 32.4423 9.014 32.5689 9.11243 32.6954C8.92493 32.447 8.77026 32.1845 8.64838 31.8985C8.70932 32.0485 8.77494 32.1985 8.83588 32.3485C8.714 32.0579 8.62963 31.7579 8.58276 31.4439C8.60619 31.6079 8.62963 31.7767 8.64838 31.9407C8.59212 31.5235 8.61087 31.097 8.61087 30.6751C8.61087 29.9485 8.61087 29.2267 8.61087 28.5001C8.61087 26.8314 8.61087 25.1673 8.61087 23.4986C8.61087 23.0111 8.58276 22.5142 8.64838 22.0314C8.62494 22.1954 8.60151 22.3642 8.58276 22.5282C8.62963 22.2142 8.714 21.9142 8.83588 21.6236C8.77494 21.7736 8.70932 21.9236 8.64838 22.0736C8.77026 21.7876 8.92493 21.5251 9.11243 21.2767C9.014 21.4032 8.91557 21.5298 8.81713 21.6564C9.01868 21.3986 9.24837 21.1689 9.50619 20.9673C9.37962 21.0657 9.25307 21.1642 9.1265 21.2626C9.37493 21.0751 9.63743 20.9204 9.92338 20.7986C9.77338 20.8595 9.62337 20.9251 9.47337 20.9861C9.764 20.8642 10.064 20.7798 10.3781 20.7329C10.214 20.7564 10.0453 20.7798 9.88119 20.7986C10.3078 20.7423 10.7578 20.7423 11.1843 20.7986C11.0203 20.7751 10.8515 20.7517 10.6874 20.7329C11.0015 20.7798 11.3015 20.8642 11.5921 20.9861C11.4421 20.9251 11.2921 20.8595 11.1421 20.7986C11.4281 20.9204 11.6906 21.0751 11.939 21.2626C11.8124 21.1642 11.6859 21.0657 11.5593 20.9673C11.8171 21.1689 12.0468 21.3986 12.2484 21.6564C12.1499 21.5298 12.0515 21.4032 11.9531 21.2767C12.1406 21.5251 12.2952 21.7876 12.4171 22.0736C12.3562 21.9236 12.2906 21.7736 12.2296 21.6236C12.3515 21.9142 12.4359 22.2142 12.4827 22.5282C12.4593 22.3642 12.4359 22.1954 12.4171 22.0314C12.4734 22.4486 12.4546 22.8751 12.4546 23.297C12.4546 24.0236 12.4546 24.7454 12.4546 25.472C12.4546 27.1407 12.4546 28.8048 12.4546 30.4735C12.4546 30.961 12.4827 31.4579 12.4171 31.9407C12.4406 31.7767 12.464 31.6079 12.4827 31.4439C12.4359 31.7579 12.3515 32.0579 12.2296 32.3485C12.2906 32.1985 12.3562 32.0485 12.4171 31.8985C12.2952 32.1845 12.1406 32.447 11.9531 32.6954C12.0515 32.5689 12.1499 32.4423 12.2484 32.3157C12.0468 32.5735 11.8171 32.8032 11.5593 33.0048C11.6859 32.9064 11.8124 32.8079 11.939 32.7095C11.6906 32.897 11.4281 33.0517 11.1421 33.1735C11.2921 33.1126 11.4421 33.047 11.5921 32.986C11.3015 33.1079 11.0015 33.1923 10.6874 33.2392C10.8515 33.2157 11.0203 33.1923 11.1843 33.1735C10.9218 33.2064 10.6593 33.211 10.3968 33.211C9.41712 33.211 8.47494 34.0735 8.52182 35.086C8.56401 36.1032 9.34682 36.961 10.3968 36.961Z" fill="#393D46"/>
<path d="M8.61572 31.2937C8.61572 29.85 8.61572 28.4062 8.61572 26.9625C8.61572 24.9609 8.61572 22.9594 8.61572 20.9578C8.61572 19.9922 8.63916 19.0312 8.76572 18.075C8.74228 18.2391 8.71885 18.4078 8.7001 18.5719C8.90635 17.0625 9.30947 15.5859 9.9001 14.1797C9.83916 14.3297 9.77353 14.4797 9.7126 14.6297C10.2985 13.2562 11.0532 11.9625 11.9673 10.7812C11.8689 10.9078 11.7704 11.0343 11.672 11.1609C12.5814 9.98903 13.636 8.93434 14.8079 8.02496C14.6814 8.1234 14.5548 8.22184 14.4282 8.32028C15.6095 7.4109 16.9032 6.65153 18.2766 6.06559C18.1266 6.12653 17.9766 6.19215 17.8266 6.25309C19.2329 5.66246 20.7095 5.25934 22.2188 5.05309C22.0548 5.07653 21.886 5.09996 21.722 5.11871C23.236 4.92184 24.7688 4.92184 26.2829 5.11871C26.1188 5.09528 25.9501 5.07184 25.786 5.05309C27.2954 5.25934 28.772 5.66246 30.1782 6.25309C30.0282 6.19215 29.8782 6.12653 29.7282 6.06559C31.1016 6.65153 32.3954 7.40621 33.5766 8.32028C33.4501 8.22184 33.3235 8.1234 33.197 8.02496C34.3688 8.93434 35.4235 9.98903 36.3329 11.1609C36.2345 11.0343 36.136 10.9078 36.0376 10.7812C36.947 11.9625 37.7063 13.2562 38.2923 14.6297C38.2313 14.4797 38.1657 14.3297 38.1048 14.1797C38.6954 15.5859 39.0985 17.0625 39.3048 18.5719C39.2813 18.4078 39.2579 18.2391 39.2391 18.075C39.3704 19.0687 39.3891 20.0625 39.3891 21.0609C39.3891 22.1437 39.3891 23.2219 39.3891 24.3047C39.3891 27 39.3891 29.6953 39.3891 32.3906C39.3891 33.2578 39.4266 34.1391 39.3141 35.0016C39.3376 34.8375 39.361 34.6687 39.3798 34.5047C39.2813 35.2172 39.0938 35.9109 38.8173 36.5719C38.8782 36.4219 38.9438 36.2719 39.0048 36.1219C38.7235 36.7875 38.3579 37.4109 37.9126 37.9875C38.011 37.8609 38.1095 37.7344 38.2079 37.6078C37.7766 38.1609 37.2845 38.6531 36.7313 39.0844C36.8579 38.9859 36.9845 38.8875 37.111 38.7891C36.5391 39.2297 35.911 39.5953 35.2454 39.8812C35.3954 39.8203 35.5454 39.7547 35.6954 39.6937C35.0298 39.9703 34.3407 40.1578 33.6282 40.2562C33.7923 40.2328 33.961 40.2094 34.1251 40.1906C33.3985 40.2844 32.6673 40.2656 31.936 40.2656C31.0266 40.2656 30.1173 40.2656 29.2079 40.2656C28.9782 40.2656 28.7532 40.2656 28.5235 40.2656C27.5438 40.2656 26.6016 41.1281 26.6485 42.1406C26.6954 43.1578 27.4735 44.0156 28.5235 44.0156C29.6766 44.0156 30.8251 44.0156 31.9782 44.0156C32.4141 44.0156 32.8501 44.025 33.286 44.0109C34.6407 43.9687 35.9016 43.65 37.1391 43.1203C39.2251 42.225 41.0345 40.5047 42.0376 38.4703C42.6376 37.2516 42.9798 36.0047 43.1063 34.65C43.1391 34.3031 43.1391 33.9562 43.1391 33.6047C43.1391 31.1812 43.1391 28.7578 43.1391 26.3344C43.1391 24.3422 43.1438 22.35 43.1391 20.3578C43.1345 18.1875 42.7735 15.9797 42.0235 13.9406C41.2173 11.7469 40.0641 9.76871 38.5641 7.97809C35.7657 4.64059 31.7063 2.26871 27.4173 1.53277C25.0313 1.12027 22.6501 1.13434 20.2735 1.58902C18.1126 2.00152 15.9938 2.84059 14.1142 3.98434C10.2657 6.33278 7.3501 9.98434 5.87822 14.2359C5.19854 16.1953 4.87041 18.3 4.86572 20.3719C4.86572 21.1781 4.86572 21.9797 4.86572 22.7859C4.86572 25.4344 4.86572 28.0875 4.86572 30.7359C4.86572 30.9234 4.86572 31.1062 4.86572 31.2937C4.86572 32.2734 5.72822 33.2156 6.74072 33.1687C7.75322 33.1219 8.61572 32.3437 8.61572 31.2937Z" fill="#393D46"/>
<path d="M26.6486 42.136C26.6486 42.2673 26.6393 42.3985 26.6205 42.5251C26.6439 42.361 26.6674 42.1923 26.6861 42.0282C26.6486 42.2579 26.5877 42.4829 26.5033 42.6985C26.5643 42.5485 26.6299 42.3985 26.6908 42.2485C26.5924 42.4782 26.4658 42.6891 26.3158 42.8907C26.4143 42.7641 26.5127 42.6376 26.6111 42.511C26.4705 42.6891 26.3111 42.8485 26.133 42.9891C26.2596 42.8907 26.3861 42.7923 26.5127 42.6938C26.3158 42.8438 26.1002 42.9704 25.8705 43.0688C26.0205 43.0079 26.1705 42.9423 26.3205 42.8813C26.1049 42.9704 25.8799 43.0313 25.6502 43.0641C25.8143 43.0407 25.983 43.0173 26.1471 42.9985C25.533 43.0782 24.8908 43.0267 24.2721 43.0267C23.6439 43.0267 22.9924 43.0782 22.3689 43.0032C22.533 43.0267 22.7018 43.0501 22.8658 43.0688C22.6221 43.0313 22.3924 42.9704 22.1627 42.8766C22.3127 42.9376 22.4627 43.0032 22.6127 43.0641C22.3924 42.9657 22.1908 42.8485 21.9986 42.7032C22.1252 42.8016 22.2518 42.9001 22.3783 42.9985C22.1908 42.8485 22.0268 42.6845 21.8768 42.497C21.9752 42.6235 22.0736 42.7501 22.1721 42.8766C22.0268 42.6845 21.9096 42.4829 21.8111 42.2626C21.8721 42.4126 21.9377 42.5626 21.9986 42.7126C21.9049 42.4876 21.8439 42.2532 21.8064 42.0095C21.8299 42.1735 21.8533 42.3423 21.8721 42.5063C21.8393 42.2485 21.8393 41.9954 21.8721 41.7423C21.8486 41.9063 21.8252 42.0751 21.8064 42.2391C21.8439 42.0095 21.9049 41.7845 21.9893 41.5688C21.9283 41.7188 21.8627 41.8688 21.8018 42.0188C21.9002 41.7891 22.0268 41.5782 22.1768 41.3766C22.0783 41.5032 21.9799 41.6298 21.8814 41.7563C22.0221 41.5782 22.1814 41.4188 22.3596 41.2782C22.233 41.3766 22.1064 41.4751 21.9799 41.5735C22.1768 41.4235 22.3924 41.297 22.6221 41.1985C22.4721 41.2595 22.3221 41.3251 22.1721 41.386C22.3877 41.297 22.6127 41.236 22.8424 41.2032C22.6783 41.2266 22.5096 41.2501 22.3455 41.2688C22.9596 41.1892 23.6018 41.2407 24.2205 41.2407C24.8486 41.2407 25.5002 41.1891 26.1236 41.2641C25.9596 41.2407 25.7908 41.2173 25.6268 41.1985C25.8705 41.236 26.1002 41.297 26.3299 41.3907C26.1799 41.3298 26.0299 41.2641 25.8799 41.2032C26.1002 41.3016 26.3018 41.4188 26.4939 41.5641C26.3674 41.4657 26.2408 41.3673 26.1143 41.2688C26.3018 41.4188 26.4658 41.5829 26.6158 41.7704C26.5174 41.6438 26.4189 41.5173 26.3205 41.3907C26.4658 41.5829 26.583 41.7845 26.6814 42.0048C26.6205 41.8548 26.5549 41.7048 26.4939 41.5548C26.5877 41.7798 26.6486 42.0141 26.6861 42.2579C26.6627 42.0938 26.6393 41.9251 26.6205 41.761C26.6393 41.8876 26.6439 42.0095 26.6486 42.136C26.6533 42.6188 26.8549 43.1157 27.1971 43.4626C27.5205 43.786 28.0549 44.0345 28.5236 44.011C29.5267 43.9642 30.4127 43.186 30.3986 42.136C30.3892 41.2829 30.1595 40.3923 29.6861 39.6704C29.2408 38.9954 28.6361 38.3813 27.9049 38.0204C27.2158 37.6829 26.5127 37.4954 25.7346 37.486C25.5471 37.486 25.3643 37.486 25.1768 37.486C24.5064 37.486 23.8314 37.486 23.1611 37.486C23.0205 37.486 22.8752 37.486 22.7346 37.486C21.9471 37.4954 21.1971 37.6923 20.4986 38.0626C19.8236 38.4188 19.2986 38.9673 18.858 39.5813C18.4033 40.2188 18.2111 40.9735 18.1127 41.7423C18.0096 42.5954 18.2252 43.4532 18.5908 44.222C18.9424 44.972 19.5377 45.5626 20.2127 46.0313C21.0658 46.622 22.0877 46.7813 23.1002 46.7813C23.7705 46.7813 24.4361 46.7813 25.1064 46.7813C25.3174 46.7813 25.533 46.7813 25.7439 46.7813C26.5361 46.772 27.2861 46.5751 27.9846 46.2048C29.4705 45.4173 30.3799 43.7907 30.3986 42.1313C30.408 41.1516 29.5267 40.2095 28.5236 40.2563C27.4971 40.3079 26.658 41.086 26.6486 42.136Z" fill="#393D46"/>
</svg>
