<svg width="15" height="6" viewBox="0 0 15 6" fill="none" xmlns="http://www.w3.org/2000/svg">
<path d="M6.63023 2.19684L6.63023 0.613053C6.63023 0.279174 6.89562 0.0137822 7.2295 0.00522192C7.32367 0.00522174 7.41356 0.000941055 7.50774 0.000940878C8.3938 0.00522139 9.25846 0.0737092 10.1017 0.206405C10.9407 0.343381 11.7112 0.548845 12.4004 0.827078C13.0895 1.11387 13.6588 1.47771 14.104 1.92289C14.3951 2.21396 14.6219 2.54356 14.776 2.90312C14.9344 3.26696 15.0115 3.66933 14.9986 4.11022C14.9943 4.65385 14.8274 5.08618 14.5106 5.40294C14.3908 5.52279 14.2452 5.61696 14.0869 5.67261C13.9242 5.73254 13.7487 5.75394 13.5604 5.71969L11.1676 5.31305C10.9835 5.28308 10.8294 5.24028 10.6967 5.18463C10.5683 5.13326 10.457 5.06478 10.3757 4.98345C10.2729 4.88071 10.2002 4.74802 10.1616 4.58964C10.1188 4.43554 10.0974 4.25148 10.0974 4.04602L10.0846 3.38254C10.0846 3.28837 10.0504 3.21132 9.98187 3.14283C9.94762 3.10859 9.91338 3.0829 9.87057 3.05722C9.82349 3.03582 9.78496 3.02298 9.75072 3.00585C9.53241 2.94165 9.21566 2.89028 8.80473 2.85604C8.38952 2.82607 7.95719 2.80467 7.50774 2.80039C7.42213 2.80039 7.33223 2.80467 7.24663 2.80467C6.90847 2.80895 6.63023 2.53928 6.63023 2.19684Z" fill="white"/>
<path d="M0.509112 5.42456C0.389258 5.30471 0.286526 5.15917 0.209477 4.99651C0.188074 4.94943 0.166672 4.90234 0.14955 4.85098C0.0682205 4.62411 0.0168534 4.3844 0.00401182 4.12329C-0.0173907 3.6824 0.0468175 3.28431 0.200915 2.91619C0.205196 2.91191 0.205196 2.90335 0.209477 2.89907C0.359294 2.54379 0.5776 2.21419 0.872955 1.91883C1.30957 1.48222 1.87887 1.11838 2.58088 0.835864C3.28288 0.55335 4.05765 0.343606 4.90091 0.21091C5.19198 0.168105 5.48306 0.125301 5.77413 0.0996178V2.89907C5.56439 2.92903 5.38889 2.96755 5.25191 3.01036C5.22195 3.0232 5.18342 3.03604 5.14062 3.05317C5.09353 3.07457 5.05501 3.10453 5.01648 3.14306C4.94371 3.21582 4.91375 3.29715 4.91375 3.39132L4.90947 4.03768C4.90947 4.25171 4.88807 4.43577 4.84098 4.58559C4.80246 4.74396 4.73397 4.87238 4.62696 4.97939C4.54563 5.06072 4.44289 5.12921 4.3102 5.18486C4.1775 5.2405 4.0234 5.28331 3.84362 5.31755L1.42086 5.72848C1.23252 5.76272 1.06558 5.74988 0.91148 5.68996C0.761662 5.62575 0.628966 5.54442 0.509112 5.42456Z" fill="white"/>
</svg>
