<svg width="16" height="16" viewBox="0 0 16 16" fill="none" xmlns="http://www.w3.org/2000/svg">
<path fill-rule="evenodd" clip-rule="evenodd" d="M7.33321 11.333C7.85849 11.333 8.37864 11.2295 8.86394 11.0285C9.34924 10.8275 9.7902 10.5329 10.1616 10.1614C10.5331 9.79 10.8277 9.34904 11.0287 8.86374C11.2297 8.37844 11.3332 7.8583 11.3332 7.33301C11.3332 6.80772 11.2297 6.28758 11.0287 5.80227C10.8277 5.31697 10.5331 4.87602 10.1616 4.50458C9.7902 4.13315 9.34924 3.83851 8.86394 3.63749C8.37864 3.43647 7.85849 3.33301 7.33321 3.33301C6.27234 3.33301 5.25493 3.75444 4.50478 4.50458C3.75463 5.25473 3.33321 6.27214 3.33321 7.33301C3.33321 8.39387 3.75463 9.41129 4.50478 10.1614C5.25493 10.9116 6.27234 11.333 7.33321 11.333ZM2.95987 11.441C3.98822 12.5382 5.39203 13.208 6.89187 13.317C8.28549 13.4214 9.67166 13.0345 10.8099 12.2237L13.2925 14.707L13.5285 14.471L14.4712 13.5283L14.7072 13.2923L12.2239 10.8097C13.0347 9.67146 13.4216 8.28529 13.3172 6.89167C13.2058 5.38083 12.5269 3.96807 11.417 2.93701C10.307 1.90596 8.84815 1.33294 7.33321 1.33301C6.16247 1.33297 5.01729 1.67544 4.03879 2.31822C3.06029 2.961 2.29121 3.876 1.82633 4.95048C1.36144 6.02496 1.22106 7.21198 1.42247 8.36526C1.62389 9.51855 2.15831 10.5877 2.95987 11.441Z" fill="white"/>
</svg>
