<svg width="32" height="32" viewBox="0 0 32 32" fill="none" xmlns="http://www.w3.org/2000/svg">
<path fill-rule="evenodd" clip-rule="evenodd" d="M10.5117 26.8077C11.2024 27.577 12.0891 27.9997 13.0091 27.9997H13.0104C13.9344 27.9997 14.8251 27.577 15.5171 26.8063C15.8877 26.397 16.5197 26.3637 16.9291 26.733C17.3397 27.1023 17.3731 27.7357 17.0037 28.145C15.9264 29.341 14.5091 29.9997 13.0104 29.9997H13.0077C11.5131 29.9983 10.0984 29.3397 9.02506 28.1437C8.65573 27.7343 8.68906 27.101 9.09973 26.733C9.51039 26.3623 10.1424 26.3957 10.5117 26.8077ZM13.0755 1.33301C19.0021 1.33301 22.9835 5.94901 22.9835 10.2597C22.9835 12.477 23.5475 13.417 24.1461 14.4143C24.7381 15.3983 25.4088 16.5157 25.4088 18.6277C24.9435 24.0237 19.3101 24.4637 13.0755 24.4637C6.84079 24.4637 1.20613 24.0237 0.746111 18.713C0.742129 16.5157 1.4128 15.3983 2.0048 14.4143L2.21379 14.0625C2.72836 13.1782 3.16746 12.2161 3.16746 10.2597C3.16746 5.94901 7.14879 1.33301 13.0755 1.33301ZM13.0755 3.33301C8.41546 3.33301 5.16746 6.98368 5.16746 10.2597C5.16746 13.0317 4.39813 14.313 3.71813 15.4437C3.1728 16.3517 2.74213 17.069 2.74213 18.6277C2.9648 21.1423 4.62479 22.4637 13.0755 22.4637C21.4795 22.4637 23.1915 21.0837 23.4128 18.541C23.4088 17.069 22.9781 16.3517 22.4328 15.4437C21.7528 14.313 20.9835 13.0317 20.9835 10.2597C20.9835 6.98368 17.7355 3.33301 13.0755 3.33301Z" fill="#262525"/>
<circle cx="21.4102" cy="5.33301" r="4.5" fill="#F74A4A" stroke="#FEFEFE"/>
</svg>
