<svg width="204" height="1108" viewBox="0 0 204 1108" fill="none" xmlns="http://www.w3.org/2000/svg">
<g filter="url(#filter0_d_37_40623)">
<rect x="30" y="42" width="120" height="1024" fill="#161B1D"/>
</g>
<rect x="54" y="78" width="72" height="72" rx="36" fill="#00B3D6"/>
<rect x="82" y="109" width="16" height="16" rx="8" fill="white"/>
<path d="M107.309 115.312V124.5C107.304 125.543 106.888 126.542 106.151 127.279C105.413 128.017 104.414 128.433 103.371 128.437H100.746C99.7018 128.437 98.7003 128.023 97.9619 127.284C97.2234 126.546 96.8086 125.544 96.8086 124.5V117.937C96.8086 116.893 97.2234 115.892 97.9619 115.153C98.7003 114.415 99.7018 114 100.746 114H104.618C104.289 110.394 102.617 107.044 99.9338 104.613C97.2506 102.182 93.7519 100.848 90.1313 100.875H90.1148C86.4921 100.84 82.9892 102.171 80.3043 104.604C77.6195 107.036 75.9498 110.391 75.6281 114H79.5C80.543 114.004 81.542 114.42 82.2795 115.158C83.017 115.895 83.4332 116.894 83.4375 117.937V124.5C83.4332 125.543 83.017 126.542 82.2795 127.279C81.542 128.017 80.543 128.433 79.5 128.437H76.875C75.832 128.433 74.833 128.017 74.0955 127.279C73.358 126.542 72.9418 125.543 72.9375 124.5V115.312C72.9374 113.062 73.3826 110.834 74.2472 108.756C75.1118 106.679 76.3789 104.793 77.9755 103.207C79.5721 101.621 81.4666 100.366 83.55 99.5156C85.6334 98.6649 87.8645 98.2348 90.1148 98.2499H90.2461C94.77 98.2542 99.1074 100.053 102.306 103.252C105.505 106.451 107.304 110.788 107.309 115.312Z" fill="white"/>
<rect x="62" y="296" width="56" height="56" rx="28" fill="#00B3D6"/>
<path d="M102 322.437V334C101.999 334.361 101.901 334.715 101.716 335.025C101.532 335.335 101.267 335.59 100.95 335.762C100.659 335.923 100.332 336.005 100 336H94C93.7348 336 93.4805 335.895 93.2929 335.707C93.1054 335.52 93 335.265 93 335V329C93 328.735 92.8947 328.48 92.7071 328.293C92.5196 328.105 92.2652 328 92 328H88C87.7348 328 87.4805 328.105 87.2929 328.293C87.1054 328.48 87 328.735 87 329V335C87 335.265 86.8947 335.52 86.7071 335.707C86.5196 335.895 86.2652 336 86 336H80C79.7163 336.001 79.4356 335.941 79.1769 335.825C78.9182 335.708 78.6874 335.538 78.5 335.325C78.1749 334.941 77.9976 334.453 78 333.95V322.437C78.0001 322.16 78.0579 321.886 78.1699 321.632C78.2818 321.378 78.4453 321.15 78.65 320.962L88.65 311.875C89.0187 311.538 89.5003 311.351 90 311.351C90.4997 311.351 90.9813 311.538 91.35 311.875L101.35 320.962C101.555 321.15 101.718 321.378 101.83 321.632C101.942 321.886 102 322.16 102 322.437Z" fill="white"/>
<path d="M102.988 438.5C101.122 435.286 98.135 432.873 94.6001 431.725C96.2944 430.717 97.6111 429.181 98.3479 427.353C99.0846 425.525 99.2007 423.505 98.6782 421.604C98.1558 419.703 97.0237 418.026 95.4559 416.831C93.8881 415.636 91.9714 414.989 90.0001 414.989C88.0288 414.989 86.112 415.636 84.5443 416.831C82.9765 418.026 81.8444 419.703 81.3219 421.604C80.7995 423.505 80.9155 425.525 81.6523 427.353C82.389 429.181 83.7057 430.717 85.4001 431.725C81.8652 432.873 78.8785 435.286 77.0126 438.5C76.9343 438.613 76.8804 438.742 76.8542 438.877C76.828 439.013 76.83 439.152 76.8603 439.287C76.8905 439.421 76.9482 439.548 77.0298 439.659C77.1114 439.77 77.2151 439.863 77.3344 439.933C77.4537 440.002 77.586 440.045 77.723 440.061C77.8601 440.077 77.9988 440.064 78.1306 440.023C78.2624 439.982 78.3843 439.915 78.4888 439.825C78.5932 439.735 78.678 439.624 78.7376 439.5C79.8806 437.525 81.5228 435.885 83.4996 434.745C85.4764 433.605 87.7182 433.005 90.0001 433.005C92.282 433.005 94.5238 433.605 96.5006 434.745C98.4774 435.885 100.12 437.525 101.263 439.5C101.322 439.624 101.407 439.735 101.511 439.825C101.616 439.915 101.738 439.982 101.87 440.023C102.001 440.064 102.14 440.077 102.277 440.061C102.414 440.045 102.546 440.002 102.666 439.933C102.785 439.863 102.889 439.77 102.97 439.659C103.052 439.548 103.11 439.421 103.14 439.287C103.17 439.152 103.172 439.013 103.146 438.877C103.12 438.742 103.066 438.613 102.988 438.5ZM83.0001 424C83.0001 422.615 83.4106 421.262 84.1798 420.111C84.949 418.96 86.0422 418.063 87.3213 417.533C88.6004 417.003 90.0079 416.864 91.3657 417.134C92.7236 417.404 93.9709 418.071 94.9498 419.05C95.9288 420.029 96.5955 421.276 96.8656 422.634C97.1357 423.992 96.9971 425.4 96.4672 426.679C95.9374 427.958 95.0402 429.051 93.8891 429.82C92.7379 430.589 91.3846 431 90.0001 431C88.1436 431 86.3631 430.262 85.0503 428.95C83.7376 427.637 83.0001 425.856 83.0001 424Z" fill="#6C7293"/>
<path d="M90.0117 507C87.4406 507 84.9271 507.762 82.7893 509.191C80.6515 510.619 78.9852 512.65 78.0013 515.025C77.0174 517.401 76.7599 520.014 77.2615 522.536C77.7631 525.058 79.0013 527.374 80.8193 529.192C82.6374 531.01 84.9538 532.249 87.4755 532.75C89.9973 533.252 92.6112 532.994 94.9866 532.01C97.362 531.026 99.3924 529.36 100.821 527.222C102.249 525.085 103.012 522.571 103.012 520C103.005 516.554 101.633 513.251 99.1968 510.815C96.7603 508.378 93.4575 507.007 90.0117 507ZM90.0117 531C87.8361 531 85.7094 530.355 83.9005 529.146C82.0915 527.937 80.6816 526.22 79.849 524.21C79.0165 522.2 78.7986 519.988 79.2231 517.854C79.6475 515.72 80.6952 513.76 82.2335 512.222C83.7719 510.683 85.7319 509.636 87.8657 509.211C89.9995 508.787 92.2113 509.005 94.2212 509.837C96.2312 510.67 97.9492 512.08 99.1579 513.889C100.367 515.698 101.012 517.824 101.012 520C101.008 522.916 99.8484 525.712 97.7862 527.775C95.7241 529.837 92.9281 530.997 90.0117 531ZM95.2367 513.438L87.4742 516.962C87.2492 517.071 87.0714 517.257 86.9742 517.488L83.7867 524.913C83.7083 525.096 83.6866 525.299 83.7245 525.495C83.7623 525.691 83.858 525.871 83.9992 526.013C84.1912 526.196 84.4462 526.299 84.7117 526.3C84.8444 526.299 84.9759 526.274 85.0992 526.225L92.5242 523.038C92.7543 522.94 92.941 522.763 93.0492 522.538L96.5617 514.762C96.6393 514.577 96.66 514.373 96.6212 514.176C96.5824 513.979 96.4858 513.798 96.3437 513.655C96.2017 513.513 96.0205 513.417 95.8234 513.378C95.6263 513.339 95.422 513.36 95.2367 513.438ZM91.3867 521.35L86.6117 523.4L88.6617 518.625L93.6367 516.363L91.3867 521.35Z" fill="#6C7293"/>
<path d="M97.4121 625C97.0259 624.998 96.6484 624.886 96.3246 624.675L90.0121 620.688H89.9871L84.1246 624.4C83.7458 624.639 83.3044 624.76 82.8569 624.746C82.4093 624.733 81.9758 624.586 81.6121 624.325C81.2386 624.051 80.9557 623.671 80.7998 623.234C80.6439 622.798 80.622 622.324 80.7371 621.875L82.4246 615.238C82.4299 615.22 82.4303 615.202 82.4259 615.184C82.4215 615.167 82.4124 615.151 82.3996 615.138L76.7496 610.438C76.4276 610.169 76.1936 609.809 76.0777 609.406C75.9619 609.003 75.9695 608.574 76.0996 608.175C76.2247 607.781 76.4659 607.435 76.7916 607.18C77.1173 606.926 77.5122 606.776 77.9246 606.75L85.2996 606.275C85.3104 606.274 85.3208 606.27 85.3296 606.263C85.3384 606.257 85.3452 606.248 85.3496 606.238L88.0996 599.3C88.248 598.917 88.5089 598.587 88.848 598.355C89.1871 598.123 89.5885 597.999 89.9996 597.999C90.4106 597.999 90.812 598.123 91.1511 598.355C91.4902 598.587 91.7511 598.917 91.8996 599.3L94.6496 606.238C94.6539 606.248 94.6608 606.257 94.6695 606.263C94.6783 606.27 94.6887 606.274 94.6996 606.275L102.075 606.75C102.487 606.776 102.882 606.926 103.208 607.18C103.533 607.435 103.774 607.781 103.9 608.175C104.03 608.574 104.037 609.003 103.921 609.406C103.806 609.809 103.572 610.169 103.25 610.438L97.5996 615.138C97.5867 615.151 97.5776 615.167 97.5732 615.184C97.5688 615.202 97.5693 615.22 97.5746 615.238L99.3871 622.4C99.4947 622.805 99.477 623.234 99.3364 623.629C99.1959 624.024 98.939 624.367 98.5996 624.613C98.2522 624.859 97.838 624.995 97.4121 625ZM89.9996 618.688C90.3846 618.685 90.7622 618.794 91.0871 619L97.3871 622.988H97.4121C97.4281 622.979 97.4412 622.966 97.4496 622.95C97.4621 622.938 97.4621 622.925 97.4496 622.875L95.6371 615.713C95.5387 615.331 95.5499 614.929 95.6692 614.553C95.7886 614.177 96.0114 613.843 96.3121 613.588L101.975 608.888C101.987 608.875 102.012 608.85 101.987 608.788C101.962 608.725 101.962 608.738 101.95 608.738L94.5621 608.263C94.1754 608.235 93.8046 608.098 93.4927 607.868C93.1807 607.638 92.9404 607.324 92.7996 606.963L90.0371 600.038C90.0246 600 90.0121 600 89.9996 600C89.9871 600 89.9746 600 89.9621 600.038L87.1996 606.975C87.0587 607.336 86.8184 607.65 86.5065 607.88C86.1945 608.11 85.8237 608.247 85.4371 608.275L78.0496 608.75C78.0371 608.75 78.0246 608.75 78.0121 608.8C77.9996 608.85 78.0121 608.888 78.0246 608.9L83.6871 613.6C83.9877 613.855 84.2105 614.19 84.3299 614.566C84.4492 614.942 84.4604 615.343 84.3621 615.725L82.6746 622.375C82.6595 622.434 82.6621 622.497 82.6821 622.555C82.7021 622.612 82.7386 622.663 82.7871 622.7C82.8219 622.734 82.8677 622.753 82.916 622.756C82.9642 622.758 83.0117 622.743 83.0496 622.713L88.9121 619C89.2369 618.794 89.6145 618.685 89.9996 618.688Z" fill="#6C7293"/>
<path d="M90.9995 698V703.425L95.6995 706.138C95.8884 706.248 96.0357 706.418 96.1187 706.621C96.2018 706.823 96.216 707.048 96.1592 707.259C96.1025 707.471 95.9778 707.658 95.8044 707.792C95.631 707.925 95.4185 707.999 95.1995 708C95.0228 708.005 94.8487 707.957 94.6995 707.863L89.4995 704.863H89.4745L89.4245 704.825L89.387 704.8L89.3495 704.775L89.312 704.738L89.287 704.713C89.262 704.7 89.2495 704.675 89.237 704.663L89.212 704.638L89.187 704.588L89.162 704.55L89.137 704.513C89.1292 704.507 89.1229 704.499 89.1186 704.49C89.1142 704.482 89.112 704.472 89.112 704.463L89.087 704.425C89.087 704.413 89.0745 704.4 89.0745 704.375C89.0699 704.37 89.0665 704.364 89.0644 704.358C89.0622 704.351 89.0614 704.344 89.062 704.338L89.037 704.288C89.0375 704.281 89.0367 704.274 89.0346 704.267C89.0324 704.261 89.029 704.255 89.0245 704.25C89.0245 704.225 89.0245 704.213 89.012 704.2V704.15C89.012 704.125 88.9995 704.113 88.9995 704.1V698C88.9995 697.735 89.1048 697.48 89.2924 697.293C89.4799 697.105 89.7342 697 89.9995 697C90.2647 697 90.519 697.105 90.7066 697.293C90.8941 697.48 90.9995 697.735 90.9995 698ZM102.849 701.025C102.862 701 102.874 700.988 102.874 700.975L102.899 700.938C102.912 700.925 102.912 700.9 102.924 700.888L102.949 700.85C102.948 700.832 102.952 700.815 102.962 700.8C102.962 700.788 102.974 700.775 102.974 700.75C102.979 700.745 102.982 700.739 102.985 700.733C102.987 700.726 102.988 700.719 102.987 700.713C102.987 700.688 102.999 700.675 102.999 700.663C102.999 700.65 103.012 700.625 103.012 700.613V700.563C103.022 700.53 103.026 700.496 103.024 700.463V695.463C103.024 695.197 102.919 694.943 102.732 694.755C102.544 694.568 102.29 694.463 102.024 694.463C101.759 694.463 101.505 694.568 101.317 694.755C101.13 694.943 101.024 695.197 101.024 695.463V698.05L98.487 695.513C96.8085 693.835 94.6703 692.693 92.3427 692.23C90.0151 691.768 87.6026 692.006 85.4103 692.914C83.2179 693.822 81.3441 695.361 80.0258 697.334C78.7075 699.307 78.0039 701.627 78.0039 704C78.0039 706.373 78.7075 708.693 80.0258 710.666C81.3441 712.639 83.2179 714.178 85.4103 715.086C87.6026 715.994 90.0151 716.232 92.3427 715.77C94.6703 715.307 96.8085 714.165 98.487 712.488C98.674 712.3 98.779 712.046 98.779 711.781C98.779 711.516 98.674 711.262 98.487 711.075C98.395 710.981 98.2851 710.906 98.1639 710.855C98.0426 710.804 97.9123 710.778 97.7807 710.778C97.6491 710.778 97.5189 710.804 97.3976 710.855C97.2763 710.906 97.1664 710.981 97.0745 711.075C95.6755 712.472 93.8936 713.424 91.9541 713.809C90.0146 714.194 88.0045 713.995 86.1779 713.238C84.3513 712.481 82.7902 711.199 81.6919 709.555C80.5935 707.91 80.0073 705.977 80.0073 704C80.0073 702.023 80.5935 700.09 81.6919 698.445C82.7902 696.801 84.3513 695.519 86.1779 694.762C88.0045 694.005 90.0146 693.806 91.9541 694.191C93.8936 694.576 95.6755 695.528 97.0745 696.925L99.612 699.463H97.0245C96.7592 699.463 96.5049 699.568 96.3174 699.755C96.1298 699.943 96.0245 700.197 96.0245 700.463C96.0245 700.728 96.1298 700.982 96.3174 701.17C96.5049 701.357 96.7592 701.463 97.0245 701.463H102.312L102.362 701.438H102.399L102.449 701.413H102.487L102.537 701.388L102.574 701.363L102.624 701.325L102.649 701.3L102.799 701.163L102.824 701.125L102.849 701.025Z" fill="#6C7293"/>
<path d="M101 786H96V785C95.9967 784.205 95.6796 783.444 95.1177 782.882C94.5558 782.32 93.7946 782.003 93 782H87C86.2054 782.003 85.4442 782.32 84.8823 782.882C84.3204 783.444 84.0033 784.205 84 785V786H79C78.7348 786 78.4804 786.105 78.2929 786.293C78.1054 786.48 78 786.735 78 787C78 787.265 78.1054 787.52 78.2929 787.707C78.4804 787.895 78.7348 788 79 788H80V806C80 806.53 80.2107 807.039 80.5858 807.414C80.9609 807.789 81.4696 808 82 808H98C98.5304 808 99.0391 807.789 99.4142 807.414C99.7893 807.039 100 806.53 100 806V788H101C101.265 788 101.52 787.895 101.707 787.707C101.895 787.52 102 787.265 102 787C102 786.735 101.895 786.48 101.707 786.293C101.52 786.105 101.265 786 101 786ZM86 785C86 784.735 86.1054 784.48 86.2929 784.293C86.4804 784.105 86.7348 784 87 784H93C93.2652 784 93.5196 784.105 93.7071 784.293C93.8946 784.48 94 784.735 94 785V786H86V785ZM98 806H82V788H98V806ZM88 793V801C88 801.265 87.8946 801.52 87.7071 801.707C87.5196 801.895 87.2652 802 87 802C86.7348 802 86.4804 801.895 86.2929 801.707C86.1054 801.52 86 801.265 86 801V793C86 792.735 86.1054 792.48 86.2929 792.293C86.4804 792.105 86.7348 792 87 792C87.2652 792 87.5196 792.105 87.7071 792.293C87.8946 792.48 88 792.735 88 793ZM94 793V801C94 801.265 93.8946 801.52 93.7071 801.707C93.5196 801.895 93.2652 802 93 802C92.7348 802 92.4804 801.895 92.2929 801.707C92.1054 801.52 92 801.265 92 801V793C92 792.735 92.1054 792.48 92.2929 792.293C92.4804 792.105 92.7348 792 93 792C93.2652 792 93.5196 792.105 93.7071 792.293C93.8946 792.48 94 792.735 94 793Z" fill="#6C7293"/>
<path d="M101.712 1008.71L96.4625 1013.96C96.2705 1014.15 96.0155 1014.25 95.75 1014.25C95.5517 1014.25 95.358 1014.19 95.1935 1014.08C95.0289 1013.97 94.901 1013.81 94.826 1013.63C94.751 1013.44 94.7322 1013.24 94.7721 1013.05C94.812 1012.85 94.9087 1012.68 95.05 1012.54L98.5875 1009H87C86.7348 1009 86.4804 1008.89 86.2929 1008.71C86.1054 1008.52 86 1008.27 86 1008C86 1007.73 86.1054 1007.48 86.2929 1007.29C86.4804 1007.11 86.7348 1007 87 1007H98.5875L95.05 1003.46C94.861 1003.28 94.7542 1003.02 94.753 1002.75C94.7519 1002.49 94.8564 1002.23 95.0438 1002.04C95.2311 1001.85 95.4858 1001.75 95.7518 1001.75C96.0179 1001.75 96.2735 1001.85 96.4625 1002.04L101.712 1007.29C101.9 1007.48 102.006 1007.73 102.006 1008C102.006 1008.27 101.9 1008.52 101.712 1008.71ZM87 1018H80V998H87C87.2652 998 87.5196 997.895 87.7071 997.707C87.8946 997.52 88 997.265 88 997C88 996.735 87.8946 996.48 87.7071 996.293C87.5196 996.105 87.2652 996 87 996H80C79.4696 996 78.9609 996.211 78.5858 996.586C78.2107 996.961 78 997.47 78 998V1018C78 1018.53 78.2107 1019.04 78.5858 1019.41C78.9609 1019.79 79.4696 1020 80 1020H87C87.2652 1020 87.5196 1019.89 87.7071 1019.71C87.8946 1019.52 88 1019.27 88 1019C88 1018.73 87.8946 1018.48 87.7071 1018.29C87.5196 1018.11 87.2652 1018 87 1018Z" fill="#6C7294"/>
<defs>
<filter id="filter0_d_37_40623" x="0" y="0" width="204" height="1108" filterUnits="userSpaceOnUse" color-interpolation-filters="sRGB">
<feFlood flood-opacity="0" result="BackgroundImageFix"/>
<feColorMatrix in="SourceAlpha" type="matrix" values="0 0 0 0 0 0 0 0 0 0 0 0 0 0 0 0 0 0 127 0" result="hardAlpha"/>
<feOffset dx="12"/>
<feGaussianBlur stdDeviation="21"/>
<feComposite in2="hardAlpha" operator="out"/>
<feColorMatrix type="matrix" values="0 0 0 0 0.1344 0 0 0 0 0.142933 0 0 0 0 0.1856 0 0 0 0.04 0"/>
<feBlend mode="normal" in2="BackgroundImageFix" result="effect1_dropShadow_37_40623"/>
<feBlend mode="normal" in="SourceGraphic" in2="effect1_dropShadow_37_40623" result="shape"/>
</filter>
</defs>
</svg>
