<svg width="56" height="56" viewBox="0 0 56 56" fill="none" xmlns="http://www.w3.org/2000/svg">
<path d="M41.9998 14.9777V11.6667C41.9998 11.0479 41.7539 10.4544 41.3164 10.0168C40.8788 9.57921 40.2853 9.33337 39.6664 9.33337H18.6664C18.0476 9.33337 17.4541 9.57921 17.0165 10.0168C16.5789 10.4544 16.3331 11.0479 16.3331 11.6667V14.9777C14.4828 21.1751 12.7094 23.9657 12.8051 29.1667C12.9054 34.5941 14.8538 37.1631 18.4564 47.4881C18.6253 47.9316 18.9246 48.3134 19.3149 48.5834C19.7053 48.8533 20.1682 48.9986 20.6428 49.0001H30.5104C31.0628 48.9998 31.5971 48.8036 32.0183 48.4465C32.4396 48.0893 32.7205 47.5942 32.8111 47.0494L33.8331 40.9291L34.9344 47.5394C35.0025 47.948 35.2134 48.3192 35.5296 48.5867C35.8459 48.8542 36.2469 49.0007 36.6611 49.0001H38.0961C38.4513 48.9991 38.7977 48.8901 39.0895 48.6876C39.3812 48.485 39.6044 48.1985 39.7294 47.8661C43.4044 37.3661 45.4251 34.6361 45.5254 29.1691C45.6234 23.9541 43.8338 21.1191 41.9998 14.9777ZM39.6664 11.6667V14H18.6664V11.6667H39.6664ZM37.6901 46.6667H37.1534L34.9834 33.6421C34.9375 33.3702 34.7967 33.1235 34.5861 32.9455C34.3756 32.7676 34.1088 32.6699 33.8331 32.6699C33.5574 32.6699 33.2906 32.7676 33.0801 32.9455C32.8695 33.1235 32.7287 33.3702 32.6828 33.6421L30.5104 46.6667H20.6404C16.9491 36.1667 15.2388 33.9804 15.1384 29.1667C15.0428 24.5467 16.6061 22.1317 18.3421 16.3334H39.9908C41.7174 22.0967 43.2808 24.5351 43.1944 29.1247C43.1058 33.9757 41.3698 36.1947 37.6901 46.6667Z" fill="#393D46"/>
</svg>
