<svg width="172" height="40" viewBox="0 0 172 40" fill="none" xmlns="http://www.w3.org/2000/svg">
<g clip-path="url(#clip0_12_19564)">
<path d="M19 24.2248C18.9996 25.3392 18.6023 26.4201 17.8738 27.2884C17.1453 28.1568 16.1293 28.7607 14.994 29L14.4517 27.4403C14.9482 27.3619 15.4205 27.1789 15.8344 26.9044C16.2483 26.6299 16.5936 26.2708 16.8453 25.8529H14.75C14.2991 25.8529 13.8667 25.6812 13.5479 25.3756C13.2291 25.07 13.05 24.6554 13.05 24.2232V20.9637C13.05 20.5314 13.2291 20.1169 13.5479 19.8113C13.8667 19.5056 14.2991 19.3339 14.75 19.3339H17.2473C17.0399 17.7587 16.24 16.3101 14.9977 15.2601C13.7554 14.21 12.1562 13.6306 10.5 13.6306C8.84382 13.6306 7.24456 14.21 6.00229 15.2601C4.76002 16.3101 3.96013 17.7587 3.7527 19.3339H6.25C6.70087 19.3339 7.13327 19.5056 7.45208 19.8113C7.77089 20.1169 7.95 20.5314 7.95 20.9637V24.2232C7.95 24.6554 7.77089 25.07 7.45208 25.3756C7.13327 25.6812 6.70087 25.8529 6.25 25.8529H3.7C3.24913 25.8529 2.81673 25.6812 2.49792 25.3756C2.17911 25.07 2 24.6554 2 24.2232V20.1488C2 15.6482 5.80545 12 10.5 12C15.1946 12 19 15.6482 19 20.1488V24.2248ZM17.3 24.2232V20.9637H14.75V24.2232H17.3ZM3.7 20.9637V24.2232H6.25V20.9637H3.7Z" fill="white"/>
</g>
<g clip-path="url(#clip1_12_19564)">
<path d="M54.4942 22.6057L53.2008 23.9126C53.6149 24.6177 53.7603 25.4511 53.6097 26.2567C53.4591 27.0623 53.023 27.7848 52.383 28.2887C51.743 28.7926 50.9431 29.0433 50.1333 28.9939C49.3234 28.9444 48.5592 28.5982 47.9839 28.0202C47.4086 27.4421 47.0617 26.6718 47.0082 25.8538C46.9547 25.0357 47.1983 24.226 47.6933 23.5764C48.1883 22.9269 48.9008 22.4821 49.6972 22.3254C50.4935 22.1687 51.3191 22.3109 52.0192 22.7253L53.315 21.415L49.8275 17.8908L51.0067 16.6993L54.4942 20.2234L57.985 16.6959L59.1633 17.8866L55.6717 21.415L56.9733 22.7286C57.6722 22.3122 58.4974 22.1677 59.2942 22.3221C60.091 22.4765 60.8047 22.9193 61.3016 23.5674C61.7984 24.2156 62.0443 25.0246 61.9931 25.8428C61.9418 26.661 61.5971 27.4323 61.0234 28.012C60.4497 28.5917 59.6865 28.9401 58.8768 28.9918C58.0671 29.0436 57.2665 28.7951 56.6251 28.2931C55.9837 27.791 55.5455 27.0698 55.3927 26.2646C55.2399 25.4594 55.3829 24.6256 55.795 23.9194L54.4942 22.6057ZM50.3333 27.3155C50.7754 27.3155 51.1993 27.1381 51.5118 26.8222C51.8244 26.5064 52 26.078 52 25.6313C52 25.1847 51.8244 24.7563 51.5118 24.4404C51.1993 24.1246 50.7754 23.9472 50.3333 23.9472C49.8913 23.9472 49.4674 24.1246 49.1548 24.4404C48.8423 24.7563 48.6667 25.1847 48.6667 25.6313C48.6667 26.078 48.8423 26.5064 49.1548 26.8222C49.4674 27.1381 49.8913 27.3155 50.3333 27.3155ZM58.6667 27.3155C59.1087 27.3155 59.5326 27.1381 59.8452 26.8222C60.1577 26.5064 60.3333 26.078 60.3333 25.6313C60.3333 25.1847 60.1577 24.7563 59.8452 24.4404C59.5326 24.1246 59.1087 23.9472 58.6667 23.9472C58.2246 23.9472 57.8007 24.1246 57.4882 24.4404C57.1756 24.7563 57 25.1847 57 25.6313C57 26.078 57.1756 26.5064 57.4882 26.8222C57.8007 27.1381 58.2246 27.3155 58.6667 27.3155ZM60.3333 21.4209V14.6842H48.6667V21.4209H47V13.8421C47 13.6188 47.0878 13.4046 47.2441 13.2466C47.4004 13.0887 47.6123 13 47.8333 13H61.1667C61.3877 13 61.5996 13.0887 61.7559 13.2466C61.9122 13.4046 62 13.6188 62 13.8421V21.4209H60.3333Z" fill="white"/>
</g>
<g clip-path="url(#clip2_12_19564)">
<path d="M107 27.0698H90V25.3953H90.85V19.5608C90.85 15.3848 94.2755 12 98.5 12C102.724 12 106.15 15.3848 106.15 19.5608V25.3953H107V27.0698ZM92.55 25.3953H104.45V19.5608C104.45 16.31 101.786 13.6744 98.5 13.6744C95.2139 13.6744 92.55 16.31 92.55 19.5608V25.3953ZM96.375 27.907H100.625C100.625 28.4621 100.401 28.9944 100.003 29.387C99.6041 29.7795 99.0636 30 98.5 30C97.9364 30 97.3959 29.7795 96.9974 29.387C96.5989 28.9944 96.375 28.4621 96.375 27.907Z" fill="white"/>
<circle cx="102" cy="14" r="3.5" fill="#FA0303" stroke="#181B25"/>
</g>
<circle cx="152" cy="20" r="20" fill="#D9D9D9"/>
<defs>
<clipPath id="clip0_12_19564">
<rect width="20" height="20" fill="white" transform="translate(0 10)"/>
</clipPath>
<clipPath id="clip1_12_19564">
<rect width="20" height="20" fill="white" transform="translate(44 10)"/>
</clipPath>
<clipPath id="clip2_12_19564">
<rect width="20" height="20" fill="white" transform="translate(88 10)"/>
</clipPath>
</defs>
</svg>
