<svg width="120" height="1024" viewBox="0 0 120 1024" fill="none" xmlns="http://www.w3.org/2000/svg">
<g filter="url(#filter0_d_15_32983)">
<rect width="120" height="1024" fill="#121517"/>
</g>
<path d="M72 325.438V337.001C71.9991 337.362 71.9012 337.716 71.7165 338.026C71.5317 338.336 71.267 338.591 70.95 338.763C70.6593 338.924 70.3319 339.006 70 339.001H64C63.7348 339.001 63.4805 338.896 63.2929 338.708C63.1054 338.52 63 338.266 63 338.001V332.001C63 331.736 62.8947 331.481 62.7071 331.294C62.5196 331.106 62.2652 331.001 62 331.001H58C57.7348 331.001 57.4805 331.106 57.2929 331.294C57.1054 331.481 57 331.736 57 332.001V338.001C57 338.266 56.8947 338.52 56.7071 338.708C56.5196 338.896 56.2652 339.001 56 339.001H50C49.7163 339.002 49.4356 338.942 49.1769 338.826C48.9182 338.709 48.6874 338.539 48.5 338.326C48.1749 337.942 47.9976 337.454 48 336.951V325.438C48.0001 325.161 48.0579 324.886 48.1699 324.633C48.2818 324.379 48.4453 324.151 48.65 323.963L58.65 314.876C59.0187 314.539 59.5003 314.352 60 314.352C60.4997 314.352 60.9813 314.539 61.35 314.876L71.35 323.963C71.5548 324.151 71.7183 324.379 71.8302 324.633C71.9421 324.886 71.9999 325.161 72 325.438Z" fill="#00B3D6"/>
<rect x="32.5" y="299.5" width="55" height="55" rx="27.5" stroke="#00B3D6"/>
<path d="M72.9876 423.501C71.1217 420.287 68.135 417.874 64.6001 416.726C66.2944 415.718 67.6111 414.182 68.3479 412.354C69.0846 410.525 69.2007 408.506 68.6782 406.605C68.1558 404.704 67.0237 403.027 65.4559 401.832C63.8881 400.637 61.9714 399.99 60.0001 399.99C58.0288 399.99 56.112 400.637 54.5443 401.832C52.9765 403.027 51.8444 404.704 51.3219 406.605C50.7995 408.506 50.9155 410.525 51.6523 412.354C52.389 414.182 53.7057 415.718 55.4001 416.726C51.8652 417.874 48.8785 420.287 47.0126 423.501C46.9343 423.614 46.8804 423.743 46.8542 423.878C46.828 424.014 46.83 424.153 46.8603 424.288C46.8905 424.422 46.9482 424.549 47.0298 424.66C47.1114 424.771 47.2151 424.864 47.3344 424.934C47.4537 425.003 47.586 425.046 47.723 425.062C47.8601 425.078 47.9988 425.065 48.1306 425.024C48.2624 424.983 48.3843 424.916 48.4888 424.826C48.5932 424.736 48.678 424.625 48.7376 424.501C49.8806 422.526 51.5228 420.886 53.4996 419.746C55.4764 418.606 57.7182 418.006 60.0001 418.006C62.282 418.006 64.5238 418.606 66.5006 419.746C68.4774 420.886 70.1196 422.526 71.2626 424.501C71.3222 424.625 71.4069 424.736 71.5114 424.826C71.6158 424.916 71.7378 424.983 71.8696 425.024C72.0014 425.065 72.1401 425.078 72.2771 425.062C72.4141 425.046 72.5465 425.003 72.6658 424.934C72.7851 424.864 72.8888 424.771 72.9704 424.66C73.052 424.549 73.1097 424.422 73.1399 424.288C73.1701 424.153 73.1722 424.014 73.146 423.878C73.1198 423.743 73.0658 423.614 72.9876 423.501ZM53.0001 409.001C53.0001 407.616 53.4106 406.263 54.1798 405.112C54.949 403.961 56.0422 403.064 57.3213 402.534C58.6004 402.004 60.0079 401.865 61.3657 402.135C62.7236 402.405 63.9709 403.072 64.9498 404.051C65.9288 405.03 66.5955 406.277 66.8656 407.635C67.1357 408.993 66.9971 410.401 66.4672 411.68C65.9374 412.959 65.0402 414.052 63.8891 414.821C62.7379 415.59 61.3846 416.001 60.0001 416.001C58.1436 416.001 56.3631 415.263 55.0503 413.951C53.7376 412.638 53.0001 410.857 53.0001 409.001Z" fill="#7E839A"/>
<path d="M60.0127 474C57.4415 474 54.9281 474.762 52.7903 476.191C50.6524 477.619 48.9862 479.65 48.0023 482.025C47.0183 484.401 46.7609 487.014 47.2625 489.536C47.7641 492.058 49.0022 494.374 50.8203 496.192C52.6384 498.01 54.9548 499.249 57.4765 499.75C59.9983 500.252 62.6121 499.994 64.9876 499.01C67.363 498.026 69.3933 496.36 70.8218 494.222C72.2503 492.085 73.0127 489.571 73.0127 487C73.0061 483.554 71.6343 480.251 69.1978 477.815C66.7612 475.378 63.4585 474.007 60.0127 474ZM60.0127 498C57.8371 498 55.7104 497.355 53.9014 496.146C52.0925 494.937 50.6826 493.22 49.85 491.21C49.0175 489.2 48.7996 486.988 49.2241 484.854C49.6485 482.72 50.6961 480.76 52.2345 479.222C53.7729 477.683 55.7329 476.636 57.8667 476.211C60.0005 475.787 62.2122 476.005 64.2222 476.837C66.2322 477.67 67.9502 479.08 69.1589 480.889C70.3676 482.698 71.0127 484.824 71.0127 487C71.0094 489.916 69.8494 492.712 67.7872 494.775C65.725 496.837 62.9291 497.997 60.0127 498ZM65.2377 480.438L57.4752 483.962C57.2501 484.071 57.0723 484.257 56.9752 484.488L53.7877 491.913C53.7093 492.096 53.6876 492.299 53.7254 492.495C53.7633 492.691 53.859 492.871 54.0002 493.013C54.1922 493.196 54.4472 493.299 54.7127 493.3C54.8454 493.299 54.9769 493.274 55.1002 493.225L62.5252 490.038C62.7553 489.94 62.942 489.763 63.0502 489.538L66.5627 481.762C66.6403 481.577 66.661 481.373 66.6222 481.176C66.5834 480.979 66.4868 480.798 66.3447 480.655C66.2026 480.513 66.0215 480.417 65.8244 480.378C65.6272 480.339 65.423 480.36 65.2377 480.438ZM61.3877 488.35L56.6127 490.4L58.6627 485.625L63.6377 483.363L61.3877 488.35Z" fill="#7E839A"/>
<path d="M67.4121 574C67.0259 573.998 66.6484 573.885 66.3246 573.675L60.0121 569.687H59.9871L54.1246 573.4C53.7458 573.639 53.3044 573.759 52.8569 573.746C52.4093 573.732 51.9758 573.586 51.6121 573.325C51.2386 573.05 50.9557 572.67 50.7998 572.234C50.6439 571.797 50.622 571.324 50.7371 570.875L52.4246 564.237C52.4299 564.22 52.4303 564.201 52.4259 564.184C52.4215 564.166 52.4124 564.15 52.3996 564.137L46.7496 559.437C46.4276 559.168 46.1936 558.809 46.0777 558.406C45.9619 558.002 45.9695 557.574 46.0996 557.175C46.2247 556.781 46.4659 556.434 46.7916 556.18C47.1173 555.926 47.5122 555.776 47.9246 555.75L55.2996 555.275C55.3104 555.273 55.3208 555.269 55.3296 555.263C55.3384 555.256 55.3452 555.247 55.3496 555.237L58.0996 548.3C58.248 547.916 58.5089 547.587 58.848 547.355C59.1871 547.122 59.5885 546.998 59.9996 546.998C60.4106 546.998 60.812 547.122 61.1511 547.355C61.4902 547.587 61.7511 547.916 61.8996 548.3L64.6496 555.237C64.6539 555.247 64.6608 555.256 64.6695 555.263C64.6783 555.269 64.6887 555.273 64.6996 555.275L72.0746 555.75C72.4869 555.776 72.8818 555.926 73.2075 556.18C73.5332 556.434 73.7744 556.781 73.8996 557.175C74.0296 557.574 74.0372 558.002 73.9214 558.406C73.8055 558.809 73.5715 559.168 73.2496 559.437L67.5996 564.137C67.5867 564.15 67.5776 564.166 67.5732 564.184C67.5688 564.201 67.5693 564.22 67.5746 564.237L69.3871 571.4C69.4947 571.805 69.477 572.233 69.3364 572.628C69.1959 573.023 68.939 573.366 68.5996 573.612C68.2522 573.859 67.838 573.994 67.4121 574ZM59.9996 567.687C60.3846 567.685 60.7622 567.793 61.0871 568L67.3871 571.987H67.4121C67.4281 571.979 67.4412 571.966 67.4496 571.95C67.4621 571.937 67.4621 571.925 67.4496 571.875L65.6371 564.712C65.5387 564.33 65.5499 563.929 65.6692 563.553C65.7886 563.177 66.0114 562.842 66.3121 562.587L71.9746 557.887C71.9871 557.875 72.0121 557.85 71.9871 557.787C71.9621 557.725 71.9621 557.737 71.9496 557.737L64.5621 557.262C64.1754 557.234 63.8046 557.097 63.4927 556.867C63.1807 556.637 62.9404 556.323 62.7996 555.962L60.0371 549.037C60.0246 549 60.0121 549 59.9996 549C59.9871 549 59.9746 549 59.9621 549.037L57.1996 555.975C57.0587 556.336 56.8184 556.65 56.5065 556.88C56.1945 557.11 55.8237 557.247 55.4371 557.275L48.0496 557.75C48.0371 557.75 48.0246 557.75 48.0121 557.8C47.9996 557.85 48.0121 557.887 48.0246 557.9L53.6871 562.6C53.9877 562.855 54.2105 563.189 54.3299 563.565C54.4492 563.941 54.4604 564.343 54.3621 564.725L52.6746 571.375C52.6595 571.434 52.6621 571.496 52.6821 571.554C52.7021 571.612 52.7386 571.663 52.7871 571.7C52.8219 571.733 52.8677 571.753 52.916 571.755C52.9642 571.757 53.0117 571.742 53.0496 571.712L58.9121 568C59.2369 567.793 59.6145 567.685 59.9996 567.687Z" fill="#7E839A"/>
<path d="M61.0004 629V634.425L65.7004 637.138C65.8894 637.248 66.0366 637.418 66.1197 637.621C66.2028 637.823 66.217 638.048 66.1602 638.259C66.1034 638.471 65.9788 638.658 65.8054 638.792C65.632 638.925 65.4195 638.999 65.2004 639C65.0238 639.005 64.8497 638.957 64.7004 638.863L59.5004 635.863H59.4754L59.4254 635.825L59.3879 635.8L59.3504 635.775L59.3129 635.738L59.2879 635.713C59.2629 635.7 59.2504 635.675 59.2379 635.663L59.2129 635.638L59.1879 635.588L59.1629 635.55L59.1379 635.513C59.1302 635.507 59.1239 635.499 59.1195 635.49C59.1152 635.482 59.1129 635.472 59.1129 635.463L59.0879 635.425C59.0879 635.413 59.0754 635.4 59.0754 635.375C59.0709 635.37 59.0675 635.364 59.0653 635.358C59.0632 635.351 59.0624 635.344 59.0629 635.338L59.0379 635.288C59.0385 635.281 59.0377 635.274 59.0356 635.267C59.0334 635.261 59.03 635.255 59.0254 635.25C59.0254 635.225 59.0254 635.213 59.0129 635.2V635.15C59.0129 635.125 59.0004 635.113 59.0004 635.1V629C59.0004 628.735 59.1058 628.48 59.2933 628.293C59.4809 628.105 59.7352 628 60.0004 628C60.2657 628 60.52 628.105 60.7075 628.293C60.8951 628.48 61.0004 628.735 61.0004 629ZM72.8504 632.025C72.8629 632 72.8754 631.988 72.8754 631.975L72.9004 631.938C72.9129 631.925 72.9129 631.9 72.9254 631.888L72.9504 631.85C72.9486 631.832 72.953 631.815 72.9629 631.8C72.9629 631.788 72.9754 631.775 72.9754 631.75C72.98 631.745 72.9834 631.739 72.9856 631.733C72.9877 631.726 72.9885 631.719 72.9879 631.713C72.9879 631.688 73.0004 631.675 73.0004 631.663C73.0004 631.65 73.0129 631.625 73.0129 631.613V631.563C73.0232 631.53 73.0275 631.496 73.0254 631.463V626.463C73.0254 626.197 72.9201 625.943 72.7325 625.755C72.545 625.568 72.2907 625.463 72.0254 625.463C71.7602 625.463 71.5059 625.568 71.3183 625.755C71.1308 625.943 71.0254 626.197 71.0254 626.463V629.05L68.4879 626.513C66.8095 624.835 64.6713 623.693 62.3437 623.23C60.0161 622.768 57.6036 623.006 55.4112 623.914C53.2189 624.822 51.3451 626.361 50.0268 628.334C48.7085 630.307 48.0049 632.627 48.0049 635C48.0049 637.373 48.7085 639.693 50.0268 641.666C51.3451 643.639 53.2189 645.178 55.4112 646.086C57.6036 646.994 60.0161 647.232 62.3437 646.77C64.6713 646.307 66.8095 645.165 68.4879 643.488C68.675 643.3 68.78 643.046 68.78 642.781C68.78 642.516 68.675 642.262 68.4879 642.075C68.396 641.981 68.2861 641.906 68.1648 641.855C68.0435 641.804 67.9133 641.778 67.7817 641.778C67.6501 641.778 67.5198 641.804 67.3986 641.855C67.2773 641.906 67.1674 641.981 67.0754 642.075C65.6765 643.472 63.8946 644.424 61.9551 644.809C60.0156 645.194 58.0055 644.995 56.1789 644.238C54.3523 643.481 52.7912 642.199 51.6928 640.555C50.5945 638.91 50.0083 636.977 50.0083 635C50.0083 633.023 50.5945 631.09 51.6928 629.445C52.7912 627.801 54.3523 626.519 56.1789 625.762C58.0055 625.005 60.0156 624.806 61.9551 625.191C63.8946 625.576 65.6765 626.528 67.0754 627.925L69.6129 630.463H67.0254C66.7602 630.463 66.5059 630.568 66.3183 630.755C66.1308 630.943 66.0254 631.197 66.0254 631.463C66.0254 631.728 66.1308 631.982 66.3183 632.17C66.5059 632.357 66.7602 632.463 67.0254 632.463H72.3129L72.3629 632.438H72.4004L72.4504 632.413H72.4879L72.5379 632.388L72.5754 632.363L72.6254 632.325L72.6504 632.3L72.8004 632.163L72.8254 632.125L72.8504 632.025Z" fill="#7E839A"/>
<path d="M71 699H66V698C65.9967 697.205 65.6796 696.444 65.1177 695.882C64.5558 695.32 63.7946 695.003 63 695H57C56.2054 695.003 55.4442 695.32 54.8823 695.882C54.3204 696.444 54.0033 697.205 54 698V699H49C48.7348 699 48.4804 699.105 48.2929 699.293C48.1054 699.48 48 699.735 48 700C48 700.265 48.1054 700.52 48.2929 700.707C48.4804 700.895 48.7348 701 49 701H50V719C50 719.53 50.2107 720.039 50.5858 720.414C50.9609 720.789 51.4696 721 52 721H68C68.5304 721 69.0391 720.789 69.4142 720.414C69.7893 720.039 70 719.53 70 719V701H71C71.2652 701 71.5196 700.895 71.7071 700.707C71.8946 700.52 72 700.265 72 700C72 699.735 71.8946 699.48 71.7071 699.293C71.5196 699.105 71.2652 699 71 699ZM56 698C56 697.735 56.1054 697.48 56.2929 697.293C56.4804 697.105 56.7348 697 57 697H63C63.2652 697 63.5196 697.105 63.7071 697.293C63.8946 697.48 64 697.735 64 698V699H56V698ZM68 719H52V701H68V719ZM58 706V714C58 714.265 57.8946 714.52 57.7071 714.707C57.5196 714.895 57.2652 715 57 715C56.7348 715 56.4804 714.895 56.2929 714.707C56.1054 714.52 56 714.265 56 714V706C56 705.735 56.1054 705.48 56.2929 705.293C56.4804 705.105 56.7348 705 57 705C57.2652 705 57.5196 705.105 57.7071 705.293C57.8946 705.48 58 705.735 58 706ZM64 706V714C64 714.265 63.8946 714.52 63.7071 714.707C63.5196 714.895 63.2652 715 63 715C62.7348 715 62.4804 714.895 62.2929 714.707C62.1054 714.52 62 714.265 62 714V706C62 705.735 62.1054 705.48 62.2929 705.293C62.4804 705.105 62.7348 705 63 705C63.2652 705 63.5196 705.105 63.7071 705.293C63.8946 705.48 64 705.735 64 706Z" fill="#7E839A"/>
<path d="M71.7125 966.712L66.4625 971.962C66.2705 972.146 66.0155 972.249 65.75 972.25C65.5517 972.25 65.358 972.19 65.1935 972.08C65.0289 971.969 64.901 971.812 64.826 971.628C64.751 971.445 64.7322 971.243 64.7721 971.049C64.812 970.855 64.9087 970.677 65.05 970.538L68.5875 967H57C56.7348 967 56.4804 966.895 56.2929 966.707C56.1054 966.52 56 966.265 56 966C56 965.735 56.1054 965.48 56.2929 965.293C56.4804 965.105 56.7348 965 57 965H68.5875L65.05 961.462C64.861 961.275 64.7542 961.02 64.753 960.754C64.7519 960.488 64.8564 960.233 65.0438 960.044C65.2311 959.855 65.4858 959.748 65.7518 959.747C66.0179 959.746 66.2735 959.85 66.4625 960.038L71.7125 965.288C71.9003 965.477 72.0056 965.733 72.0056 966C72.0056 966.267 71.9003 966.523 71.7125 966.712ZM57 976H50V956H57C57.2652 956 57.5196 955.895 57.7071 955.707C57.8946 955.52 58 955.265 58 955C58 954.735 57.8946 954.48 57.7071 954.293C57.5196 954.105 57.2652 954 57 954H50C49.4696 954 48.9609 954.211 48.5858 954.586C48.2107 954.961 48 955.47 48 956V976C48 976.53 48.2107 977.039 48.5858 977.414C48.9609 977.789 49.4696 978 50 978H57C57.2652 978 57.5196 977.895 57.7071 977.707C57.8946 977.52 58 977.265 58 977C58 976.735 57.8946 976.48 57.7071 976.293C57.5196 976.105 57.2652 976 57 976Z" fill="#7E839A"/>
<path d="M76.625 73.875V78.625C76.625 79.2549 76.3748 79.859 75.9294 80.3044C75.484 80.7498 74.8799 81 74.25 81C73.6201 81 73.016 80.7498 72.5706 80.3044C72.1252 79.859 71.875 79.2549 71.875 78.625V73.875C71.875 70.7256 70.6239 67.7051 68.3969 65.4781C66.1699 63.2511 63.1494 62 60 62C56.8506 62 53.8301 63.2511 51.6031 65.4781C49.3761 67.7051 48.125 70.7256 48.125 73.875V78.625C48.125 79.2549 47.8748 79.859 47.4294 80.3044C46.984 80.7498 46.3799 81 45.75 81C45.1201 81 44.516 80.7498 44.0706 80.3044C43.6252 79.859 43.375 79.2549 43.375 78.625V73.875C43.375 69.4658 45.1266 65.2371 48.2444 62.1194C51.3621 59.0016 55.5908 57.25 60 57.25C64.4092 57.25 68.6379 59.0016 71.7556 62.1194C74.8734 65.2371 76.625 69.4658 76.625 73.875ZM60 47.75C53.0736 47.7579 46.4332 50.5128 41.5355 55.4105C36.6378 60.3082 33.8829 66.9486 33.875 73.875V78.625C33.875 79.2549 34.1252 79.859 34.5706 80.3044C35.016 80.7498 35.6201 81 36.25 81C36.8799 81 37.484 80.7498 37.9294 80.3044C38.3748 79.859 38.625 79.2549 38.625 78.625V73.875C38.625 68.206 40.877 62.7692 44.8856 58.7606C48.8942 54.752 54.331 52.5 60 52.5C65.669 52.5 71.1058 54.752 75.1144 58.7606C79.123 62.7692 81.375 68.206 81.375 73.875V78.625C81.375 79.2549 81.6252 79.859 82.0706 80.3044C82.516 80.7498 83.1201 81 83.75 81C84.3799 81 84.984 80.7498 85.4294 80.3044C85.8748 79.859 86.125 79.2549 86.125 78.625V73.875C86.1171 66.9486 83.3622 60.3082 78.4645 55.4105C73.5668 50.5128 66.9264 47.7579 60 47.75ZM60 38.25C50.5541 38.2579 41.4973 42.0137 34.818 48.693C28.1387 55.3723 24.3829 64.4291 24.375 73.875V78.625C24.375 79.2549 24.6252 79.859 25.0706 80.3044C25.516 80.7498 26.1201 81 26.75 81C27.3799 81 27.984 80.7498 28.4294 80.3044C28.8748 79.859 29.125 79.2549 29.125 78.625V73.875C29.125 65.6864 32.3779 57.8333 38.1681 52.0431C43.9583 46.2529 51.8114 43 60 43C68.1886 43 76.0417 46.2529 81.8319 52.0431C87.6221 57.8333 90.875 65.6864 90.875 73.875V78.625C90.875 79.2549 91.1252 79.859 91.5706 80.3044C92.016 80.7498 92.6201 81 93.25 81C93.8799 81 94.484 80.7498 94.9294 80.3044C95.3748 79.859 95.625 79.2549 95.625 78.625V73.875C95.6171 64.4291 91.8613 55.3723 85.182 48.693C78.5027 42.0137 69.4459 38.2579 60 38.25Z" fill="#00B2D6"/>
<defs>
<filter id="filter0_d_15_32983" x="-30" y="-42" width="204" height="1108" filterUnits="userSpaceOnUse" color-interpolation-filters="sRGB">
<feFlood flood-opacity="0" result="BackgroundImageFix"/>
<feColorMatrix in="SourceAlpha" type="matrix" values="0 0 0 0 0 0 0 0 0 0 0 0 0 0 0 0 0 0 127 0" result="hardAlpha"/>
<feOffset dx="12"/>
<feGaussianBlur stdDeviation="21"/>
<feComposite in2="hardAlpha" operator="out"/>
<feColorMatrix type="matrix" values="0 0 0 0 0.1344 0 0 0 0 0.142933 0 0 0 0 0.1856 0 0 0 0.04 0"/>
<feBlend mode="normal" in2="BackgroundImageFix" result="effect1_dropShadow_15_32983"/>
<feBlend mode="normal" in="SourceGraphic" in2="effect1_dropShadow_15_32983" result="shape"/>
</filter>
</defs>
</svg>
