<svg width="24" height="18" viewBox="0 0 24 18" fill="none" xmlns="http://www.w3.org/2000/svg">
<path d="M15.338 15.4368C14.8756 15.4368 14.5007 15.9081 14.5007 16.4893C14.5007 17.0706 14.8756 17.5419 15.338 17.5419V15.4368ZM15.338 0C14.8756 0 14.5007 0.471225 14.5007 1.05251C14.5007 1.6338 14.8756 2.10502 15.338 2.10502V0ZM15.338 17.5419H17.0236V15.4368H15.338V17.5419ZM17.0236 17.5419C20.8562 17.5419 24.0004 13.6056 24.0004 8.77093H22.326C22.326 12.4405 19.9334 15.4368 17.0236 15.4368V17.5419ZM24.0004 8.77093C24.0004 3.95277 20.8693 0 17.0236 0V2.10502C19.9426 2.10502 22.326 5.11286 22.326 8.77093H24.0004ZM17.0236 0H15.338V2.10502H17.0236V0Z" fill="#93989A"/>
<path d="M8.65133 2.10502C9.11371 2.10502 9.48855 1.6338 9.48855 1.05251C9.48855 0.471225 9.11371 0 8.65133 0V2.10502ZM8.65133 17.5419C9.11371 17.5419 9.48855 17.0706 9.48855 16.4893C9.48855 15.9081 9.11371 15.4368 8.65133 15.4368V17.5419ZM8.65133 0H6.97688V2.10502H8.65133V0ZM6.97688 0C3.1321 0 0 3.9375 0 8.77093H1.67445C1.67445 5.10006 4.05687 2.10502 6.97688 2.10502V0ZM0 8.77093C0 13.5891 3.13111 17.5419 6.97688 17.5419V15.4368C4.05786 15.4368 1.67445 12.429 1.67445 8.77093H0ZM6.97688 17.5419H8.65133V15.4368H6.97688V17.5419Z" fill="#93989A"/>
<path d="M7.53548 7.71853C7.07309 7.71853 6.69826 8.18976 6.69826 8.77104C6.69826 9.35233 7.07309 9.82356 7.53548 9.82356V7.71853ZM16.4659 9.82356C16.9283 9.82356 17.3031 9.35233 17.3031 8.77104C17.3031 8.18976 16.9283 7.71853 16.4659 7.71853V9.82356ZM7.53548 9.82356H16.4659V7.71853H7.53548V9.82356Z" fill="#93989A"/>
</svg>
