<svg width="30" height="30" viewBox="0 0 30 30" fill="none" xmlns="http://www.w3.org/2000/svg">
<g clip-path="url(#clip0_52_77047)">
<path d="M6.84375 2.43658C6.375 2.71783 6 3.46783 6.375 3.93658C5.8125 3.65533 4.96875 4.03033 4.875 4.68658C4.78125 5.06158 4.875 5.43658 4.6875 5.71783C4.59375 5.90533 4.40625 5.90533 4.3125 6.09283C4.125 6.28033 4.03125 6.65533 4.125 6.93658C4.21875 7.21783 4.5 7.40533 4.78125 7.49908C4.3125 7.49908 3.9375 7.87408 3.84375 8.24908C3.75 8.71783 3.9375 9.18658 4.3125 9.37408C3.9375 9.56158 3.65625 9.84283 3.65625 10.3116C3.65625 10.6866 3.84375 11.0616 4.125 11.3428C3.9375 11.6241 4.03125 12.0928 4.21875 12.3741C4.40625 12.7491 4.6875 12.9366 4.96875 13.2178C5.25 13.4991 5.625 13.8741 6 14.0616C6.375 14.2491 6.9375 14.4366 7.3125 14.2491C7.875 14.0616 8.34375 13.4991 8.625 13.0303C9.375 11.9991 10.0313 10.8741 10.4063 9.65533C10.875 8.43658 11.0625 7.21783 10.9687 5.90533C10.875 5.34283 10.7813 4.78033 10.4063 4.31158C10.125 3.93658 9.75 3.56158 9.46875 3.18658C9.1875 2.90533 8.90625 2.43658 8.4375 2.34283C7.96875 2.24908 7.3125 2.24908 6.84375 2.43658Z" fill="#4A3531"/>
<path d="M20.1568 18.6562C22.0318 19.2187 23.7193 20.8125 24.2818 22.9687C24.8443 25.2187 24.0943 27.8437 22.4068 29.0625C21.2818 29.9062 19.9693 30.0937 18.6568 30.0937C15.5631 30.0937 12.3756 29.0625 9.28185 28.0312C8.2506 27.6562 7.21935 27.2812 6.28185 26.625C5.34435 25.9687 4.59435 24.9375 4.40685 23.7187C4.21935 22.0312 5.2506 20.3437 6.5631 19.5C8.8131 18 11.2506 17.4375 13.5943 17.4375C15.6568 17.25 18.1881 18 20.1568 18.6562Z" fill="#305472"/>
<path d="M19.8755 17.2492C21.563 17.8117 23.2505 19.4055 23.7192 21.5617C24.2817 23.8117 23.5317 26.4367 21.938 27.6555C20.9067 28.4992 19.5942 28.6867 18.3755 28.6867C15.4692 28.6867 12.4692 27.6555 9.56295 26.6242C8.62545 26.2492 7.5942 25.8742 6.75045 25.218C5.9067 24.5617 5.1567 23.5305 5.06295 22.3117C4.87545 20.6242 5.81295 18.9367 7.12545 18.093C9.2817 16.593 11.5317 16.0305 13.7817 16.0305C15.563 15.9367 18.0005 16.593 19.8755 17.2492Z" fill="#997567"/>
<path d="M21.1153 24.8144C21.7382 22.8937 21.1653 20.987 19.8355 20.5557C18.5058 20.1244 16.9228 21.3319 16.2998 23.2526C15.6769 25.1734 16.2499 27.0801 17.5796 27.5114C18.9094 27.9426 20.4923 26.7352 21.1153 24.8144Z" fill="#A88378"/>
<path d="M23.2322 11.5268C23.2504 6.5045 19.1937 2.41834 14.1714 2.40014C9.14903 2.38194 5.06287 6.4386 5.04467 11.4609C5.02647 16.4833 9.08313 20.5694 14.1055 20.5876C19.1278 20.6058 23.214 16.5492 23.2322 11.5268Z" fill="#4A3531"/>
<path d="M22.8269 10.8353C22.8445 5.96834 18.9133 2.00855 14.0463 1.99092C9.17928 1.97328 5.21949 5.90447 5.20185 10.7715C5.18422 15.6385 9.11541 19.5983 13.9824 19.6159C18.8494 19.6336 22.8092 15.7024 22.8269 10.8353Z" fill="#7A594F"/>
<path d="M22.8063 10.6008C22.8234 5.88912 19.1436 2.05617 14.5872 2.03966C10.0309 2.02315 6.32338 5.82934 6.3063 10.541C6.28923 15.2527 9.96904 19.0856 14.5254 19.1022C19.0817 19.1187 22.7892 15.3125 22.8063 10.6008Z" fill="#7A594F"/>
<path d="M18.2431 11.7388C18.2555 8.32153 15.5793 5.54156 12.2655 5.52955C8.95184 5.51755 6.25551 8.27805 6.24312 11.6953C6.23074 15.1126 8.90699 17.8925 12.2207 17.9046C15.5344 17.9166 18.2307 15.1561 18.2431 11.7388Z" fill="#997567"/>
<path d="M15.0913 12.4534C15.0932 11.9356 14.7169 11.5145 14.2509 11.5128C13.7849 11.5111 13.4057 11.9295 13.4038 12.4473C13.4019 12.965 13.7782 13.3861 14.2441 13.3878C14.7101 13.3895 15.0894 12.9711 15.0913 12.4534Z" fill="#362826"/>
<path d="M8.59519 10.9651C8.59707 10.4473 8.22083 10.0262 7.75484 10.0245C7.28885 10.0229 6.90957 10.4412 6.90769 10.959C6.90582 11.4768 7.28206 11.8979 7.74805 11.8995C8.21404 11.9012 8.59332 11.4829 8.59519 10.9651Z" fill="#362826"/>
<path d="M8.03032 10.6557C8.03088 10.5003 7.94739 10.3741 7.84383 10.3737C7.74028 10.3734 7.65588 10.499 7.65532 10.6543C7.65475 10.8096 7.73824 10.9359 7.8418 10.9362C7.94535 10.9366 8.02975 10.811 8.03032 10.6557Z" fill="white"/>
<path d="M12.4688 16.5C12.4688 16.5 11.625 16.4063 11.0625 15.9375C10.5 15.4688 9.9375 15.5625 9.75 15.5625C9.65625 15.5625 9.46875 15.375 9.28125 15.2812C9.09375 15.1875 8.8125 15.1875 8.8125 15.2812C8.8125 15.375 9.09375 15.8438 9.09375 15.8438C9.09375 15.8438 9.1875 16.2188 9.09375 16.4063C9 16.5938 9.09375 17.1563 9.75 17.3438C10.4062 17.5313 10.875 17.4375 11.1562 17.25C11.3438 17.1563 12.4688 16.5 12.4688 16.5Z" fill="#4A3531"/>
<path d="M13.5937 10.7812C13.6875 10.9687 13.9687 10.9687 14.1562 10.9687L17.0625 10.7812C17.1562 10.7812 17.3437 10.7812 17.4375 10.6875C17.5312 10.5937 17.4375 10.4062 17.3437 10.3125C17.25 10.2187 17.0625 10.2187 16.9687 10.2187C16.2187 10.125 15.5625 10.125 14.8125 10.2187C14.5312 10.125 13.3125 10.125 13.5937 10.7812ZM8.625 9.5625H8.90625C9 9.5625 9.09375 9.46875 9.09375 9.28125C9.09375 9.09375 8.90625 9 8.71875 8.90625C8.34375 8.8125 7.875 8.53125 7.3125 8.34375C7.21875 8.34375 7.03125 8.25 6.9375 8.25C6.84375 8.25 6.65625 8.34375 6.65625 8.53125C6.65625 8.71875 6.84375 8.8125 7.03125 8.90625C7.21875 9 7.5 9.09375 7.78125 9.1875C8.0625 9.375 8.34375 9.46875 8.625 9.5625Z" fill="#362826"/>
<path d="M17.0623 9C16.8748 9 16.6873 9.09375 16.5935 9C16.406 9 16.2185 8.90625 16.031 8.8125L13.6873 7.5C13.4998 7.40625 13.2185 7.21875 13.031 7.03125C12.281 7.875 10.781 7.78125 10.1248 6.9375C9.84352 7.21875 9.46852 7.21875 9.09352 7.125C8.81227 7.03125 8.53102 6.75 8.34352 6.46875C8.06227 6.46875 7.78102 6.5625 7.40602 6.5625C7.21852 6.09375 7.31227 5.4375 7.68727 5.0625C7.21852 5.25 6.65602 4.96875 6.56227 4.5C6.46852 4.21875 6.56227 3.84375 6.65602 3.5625C6.74977 3.1875 6.93727 2.90625 7.03102 2.53125C7.12477 2.15625 7.31227 1.78125 7.59352 1.59375C7.87477 1.40625 8.34352 1.40625 8.71852 1.3125C9.28102 1.21875 9.74977 0.75 10.2185 0.46875C10.781 0.1875 11.531 0 12.281 0C12.7498 0 13.406 0.1875 13.5935 0.5625C13.781 0.1875 14.2498 0 14.7185 0C15.1873 0 15.5623 0.375 15.656 0.75C16.6873 0.46875 17.8123 0.46875 18.8435 0.65625C19.2185 0.75 19.5935 0.84375 19.781 1.125C19.9685 1.40625 19.9685 1.96875 19.5935 2.0625C19.8748 2.15625 20.2498 2.0625 20.531 2.0625C20.8123 2.0625 21.1873 1.96875 21.4685 2.0625C21.7498 2.15625 22.031 2.4375 22.1248 2.71875C22.2185 3 21.8435 3.375 21.5623 3.28125L24.281 4.40625C23.8123 4.96875 23.0623 5.34375 22.3123 5.34375C22.4998 5.4375 22.781 5.4375 23.0623 5.625C23.3435 5.71875 23.531 6 23.531 6.28125C23.531 6.5625 23.3435 6.84375 23.0623 6.84375L23.9998 7.40625C23.7185 7.6875 23.531 8.0625 23.2498 8.34375C23.0623 8.53125 22.8748 8.8125 22.5935 8.90625C22.2185 9.09375 21.7498 9.09375 21.3748 8.8125C21.281 9.09375 21.281 9.5625 20.906 9.5625C20.6248 9.5625 20.3435 9.1875 20.156 9.09375C19.1248 8.4375 18.1873 8.8125 17.0623 9Z" fill="#4A3531"/>
<path d="M18.1875 7.59375C17.7187 7.5 17.1562 7.78125 17.0625 8.25C17.0625 8.625 17.25 9 17.625 9.09375C18 9.28125 18.375 9.375 18.75 9.375C18.5625 9.46875 18.375 9.65625 18.1875 9.75C18.2812 10.3125 18.8438 10.875 19.4062 10.9687C19.0312 10.9687 18.6562 11.3438 18.5625 11.8125C18.5625 12.1875 18.8437 12.6562 19.2187 12.75C19.0312 12.75 18.8437 12.75 18.6562 12.8437C18.4687 12.9375 18.2812 13.125 18.375 13.3125C18.375 13.6875 18.8437 13.875 18.8437 14.1562C18.8437 14.3438 18.6562 14.5312 18.375 14.625C18.1875 14.7188 17.9062 14.8125 17.9062 15.0938C17.8125 15.2812 18.0937 15.5625 18.2812 15.4688C18 15.5625 17.8125 15.8438 17.7187 16.125C17.7187 16.4063 17.9062 16.6875 18.1875 16.7812C17.9062 16.6875 17.625 16.875 17.625 17.1562C17.625 17.3437 17.8125 17.5313 18.0937 17.5313C18.375 17.5313 18.4687 17.5312 18.75 17.4375C18.75 17.625 18.75 17.9062 18.9375 18.0937C19.125 18.4687 19.5 18.6562 19.875 18.5625C20.25 18.4687 20.5312 18.0937 20.5312 17.7187C20.5312 17.8125 20.625 18 20.625 18.0937C21.4687 18.375 22.5 17.625 22.5937 16.7812C23.1562 16.9687 23.7188 16.7812 24.0938 16.3125C24.375 15.8437 24.375 15.1875 24.0938 14.8125C24.75 14.8125 25.3125 14.25 25.4062 13.6875C25.5 13.125 25.3125 12.375 24.75 12.0937C25.125 12.0937 25.5 11.7188 25.5 11.3438C25.5 10.9688 25.3125 10.5 24.9375 10.3125C24.6562 10.0312 24.1875 9.9375 23.8125 9.75C24.4687 9.375 25.125 8.8125 25.125 8.0625C25.125 7.40625 24.4687 6.75 23.8125 6.84375L21.1875 5.71875C20.9062 5.625 20.5312 5.4375 20.25 5.34375C19.7812 5.15625 19.3125 4.96875 18.75 4.96875C18.2812 4.96875 17.7187 5.34375 17.625 5.8125C17.625 6.09375 17.7187 6.375 17.8125 6.75C17.7187 6.9375 17.8125 7.21875 17.625 7.5" fill="#4A3531"/>
<path d="M22.4067 4.12582C22.7817 3.75082 23.5317 3.93832 23.7192 4.40707C23.9067 4.87582 23.6254 5.53207 23.0629 5.62582C23.3442 5.43832 23.7192 5.81332 23.9067 6.18832L24.3754 6.93832C24.6567 7.40707 24.9379 7.87582 25.0317 8.34457C25.2192 9.18832 25.0317 10.1258 24.8442 10.9696C24.7504 11.4383 24.5629 12.0008 24.0942 12.1883C23.6254 12.3758 23.1567 12.0008 22.7817 11.6258C21.9379 10.6883 21.7504 9.37582 21.2817 8.25082C21.0942 7.68832 20.8129 7.12582 20.5317 6.46957C20.1567 5.62582 18.8442 3.75082 19.6879 2.90707C20.5317 2.06332 22.5004 2.90707 22.4067 4.12582Z" fill="#4A3531"/>
<path d="M17.4364 1.03125C17.8114 1.03125 18.1864 1.03125 18.5614 1.21875C18.9364 1.40625 19.1239 1.78125 18.9364 2.15625C19.2177 1.6875 19.7802 1.40625 20.3427 1.59375C20.9052 1.6875 21.2802 2.25 21.2802 2.71875C21.6552 2.625 22.0302 2.4375 22.4052 2.4375C22.7802 2.34375 23.2489 2.4375 23.5302 2.8125C23.8114 3.1875 23.7177 3.65625 23.3427 3.84375C23.6239 3.65625 23.9989 3.75 24.2802 3.84375C24.5614 4.03125 24.7489 4.40625 24.6552 4.6875C24.6552 4.875 24.5614 5.0625 24.5614 5.25C24.6552 5.625 25.0302 5.8125 25.2177 6.09375C25.4052 6.375 25.4989 6.75 25.4989 7.125C25.5927 7.59375 25.5927 8.0625 25.6864 8.53125C25.7802 9.09375 25.7802 9.65625 25.8739 10.3125C25.8739 10.6875 25.9677 11.1562 25.6864 11.4375C25.5927 11.7187 25.5927 12.0937 25.4989 12.375C25.4052 12.75 25.3114 13.125 25.1239 13.5C24.8427 13.7812 24.4677 13.9687 24.0927 13.7812C23.8114 13.6875 23.7177 13.4062 23.6239 13.125C23.5302 12.8438 23.5302 12.5625 23.5302 12.2812C23.4364 11.9062 23.2489 11.5312 22.9677 11.3438C22.6864 11.1562 22.2177 11.0625 21.8427 11.25C21.9364 10.875 22.0302 10.5 21.9364 10.125C21.8427 9.75 21.6552 9.375 21.2802 9.28125C20.7177 9.1875 20.1552 9.5625 19.6864 9.28125C19.2177 8.90625 19.6864 8.15625 19.4052 7.6875C19.1239 7.21875 18.4677 7.21875 17.9989 7.3125C17.4364 7.40625 16.8739 7.5 16.4989 7.125C16.3114 6.9375 16.3114 6.75 16.2176 6.5625C15.7489 5.4375 15.4676 4.125 15.3739 2.90625C15.2801 1.78125 16.5927 1.125 17.4364 1.03125Z" fill="#4A3531"/>
<path d="M5.53158 19.6875C5.53158 19.6875 6.46908 23.4375 9.46908 24.375C12.4691 25.3125 16.9691 25.875 19.9691 24.75C22.9691 23.625 23.8128 22.5938 23.8128 22.5938C23.8128 22.5938 24.4691 29.9062 16.5941 28.7812C8.71908 27.6562 5.90658 25.0313 5.62533 24.5625C5.34408 24 3.84408 22.4062 5.53158 19.6875Z" fill="#53A9B8"/>
<path d="M12.001 7.78199C12.0947 8.25074 12.376 8.53199 12.751 8.81324C13.126 9.09449 13.501 9.18824 13.9697 9.37574C13.6885 9.28199 13.3135 9.56324 13.3135 9.84449C13.2197 10.1257 13.4072 10.5007 13.5947 10.6882C13.7822 10.8757 14.0635 11.0632 14.4385 11.157C14.0635 11.2507 13.9697 11.532 14.0635 11.8132C14.1572 12.0945 14.3447 12.282 14.5322 12.3757C15.001 12.7507 15.4697 13.032 15.9385 13.3132C16.501 13.6882 17.1572 13.9695 17.8135 14.2507C18.1885 14.4382 18.6572 14.532 19.126 14.4382C19.6885 14.2507 19.9697 13.782 20.1572 13.3132C20.5322 12.3757 20.8135 11.4382 20.8135 10.5007C20.8135 10.032 20.8135 9.65699 20.626 9.18824C20.4385 8.62574 19.9697 8.15699 19.501 7.87574C18.9385 7.50074 18.376 7.31324 17.8135 7.12574C16.9697 6.75074 16.0322 6.46949 15.0947 6.37574C14.1572 6.18824 11.7197 6.28199 12.001 7.78199Z" fill="#4A3531"/>
<path d="M5.71875 7.6875C5.71875 7.6875 9.65625 7.3125 13.875 9.375C13.875 9.375 12.75 5.90625 7.40625 4.96875C7.40625 4.96875 5.90625 6.28125 5.71875 7.6875Z" fill="#6A648E"/>
<path d="M10.0312 27.4687C10.0312 27.4687 8.8125 26.0625 8.8125 25.3125C8.8125 25.3125 7.96875 25.875 7.78125 26.5312C7.78125 26.625 9.5625 27.5625 10.0312 27.4687Z" fill="#305472"/>
<path d="M20.0053 23.5447C20.2609 22.7567 19.9889 21.9625 19.3979 21.7708C18.8069 21.5791 18.1207 22.0625 17.8651 22.8505C17.6095 23.6385 17.8814 24.4327 18.4724 24.6244C19.0634 24.8161 19.7497 24.3327 20.0053 23.5447Z" fill="#A88378"/>
<path opacity="0.43" d="M20.1563 24.6562C20.1563 24.6562 20.625 29.25 17.625 29.5313C17.625 29.5313 24.5625 29.25 24.0938 22.4062C24.0938 22.4062 22.7813 23.9062 20.1563 24.6562Z" fill="#305472"/>
<path d="M7.21875 6.84375C7.21875 6.84375 7.40625 6.09375 8.0625 5.71875C8.0625 5.71875 11.25 6.84375 12.375 7.96875C12.2812 8.0625 9.46875 6.84375 7.21875 6.84375Z" fill="#807CA5"/>
<path d="M14.5312 2.81332C16.1249 3.00082 17.8124 3.28207 19.3124 3.84457C19.6874 4.03207 20.1562 4.21957 20.3437 4.59457C20.5312 4.96957 20.4374 5.53207 20.0624 5.71957C20.5312 6.09457 21.1874 6.28207 21.7499 6.18832C21.7499 6.56332 21.8437 6.84457 21.8437 7.21957C22.4999 8.06332 22.7812 9.18832 22.9687 10.2196C23.0624 10.7821 23.2499 11.4383 23.1562 12.0008C23.0624 12.5633 22.7812 13.2196 22.2187 13.4071C21.1874 13.2196 21.0937 11.5321 20.0624 11.2508C19.3124 11.0633 18.3749 11.9071 17.7187 11.4383C17.2499 11.0633 17.4374 10.2196 17.7187 9.65707C17.2499 9.75082 16.7812 9.37582 16.5937 9.00082C16.4062 8.62582 16.3124 8.06332 16.2187 7.59457C16.1249 7.12582 15.9374 6.65707 15.4687 6.37582C15.0937 6.09457 14.5312 6.18832 14.0624 5.90707C13.5937 5.62582 13.3124 5.15707 12.9374 4.68832C12.6562 4.21957 11.9999 3.84457 11.7187 3.28207C11.1562 2.34457 13.8749 2.71957 14.5312 2.81332Z" fill="#604845"/>
<path d="M21.75 15.75L18.0937 14.8125C17.7187 15.2812 17.8125 16.0312 18 16.6875C18.0938 17.1562 18.1875 17.5313 18.4688 17.9063C18.8438 18.375 19.5937 18.4688 20.1562 18.375C20.7188 18.2813 21.2812 17.9062 21.8437 17.625C22.5937 17.1562 23.4375 16.5937 23.9062 15.8437C23.25 16.0312 22.5 16.0312 21.75 15.75Z" fill="#362826"/>
<path d="M21.563 24.4693C21.7505 24.4693 24.0942 24.4693 25.7817 27.0943C26.2505 27.8443 25.9692 28.7818 25.2192 29.1568C23.6255 29.9068 20.6255 30.938 17.3442 29.1568C16.688 28.7818 16.313 27.6568 16.7817 27.0005C17.6255 25.7818 19.1255 24.3755 21.563 24.4693Z" fill="#425763"/>
<path d="M21.5623 25.0309C21.7498 25.0309 23.7185 25.0309 25.2185 27.0934C25.5935 27.6559 25.406 28.4059 24.7498 28.6871C23.3435 29.3434 20.8123 29.9996 17.906 28.5934C17.3435 28.3121 17.156 27.4684 17.531 26.9996C18.1873 26.0621 19.406 24.9371 21.5623 25.0309Z" fill="#A2B6BA"/>
<path d="M21.5628 25.1257C21.7503 25.1257 23.344 25.1257 24.5628 26.8132C24.844 27.2819 24.7503 27.9382 24.1878 28.1257C23.0628 28.5944 21.0003 29.2507 18.6565 28.0319C18.1878 27.7507 18.0003 27.1882 18.3753 26.7194C18.7503 25.9694 19.7815 25.0319 21.5628 25.1257Z" fill="#87999B"/>
<path d="M21.1875 27.75C24.553 27.75 27.2812 25.0217 27.2812 21.6562C27.2812 18.2908 24.553 15.5625 21.1875 15.5625C17.822 15.5625 15.0938 18.2908 15.0938 21.6562C15.0938 25.0217 17.822 27.75 21.1875 27.75Z" fill="#425763"/>
<path d="M21.1875 26.9062C24.1905 26.9062 26.625 24.4718 26.625 21.4687C26.625 18.4657 24.1905 16.0312 21.1875 16.0312C18.1845 16.0312 15.75 18.4657 15.75 21.4687C15.75 24.4718 18.1845 26.9062 21.1875 26.9062Z" fill="#A2B6BA"/>
<path d="M21.375 25.9688C24.1192 25.9688 26.3438 23.7442 26.3438 21C26.3438 18.2558 24.1192 16.0312 21.375 16.0312C18.6308 16.0312 16.4062 18.2558 16.4062 21C16.4062 23.7442 18.6308 25.9688 21.375 25.9688Z" fill="#CBDEE4"/>
<path d="M24.0938 20.625C24.7151 20.625 25.2187 20.1213 25.2187 19.5C25.2187 18.8787 24.7151 18.375 24.0938 18.375C23.4724 18.375 22.9688 18.8787 22.9688 19.5C22.9688 20.1213 23.4724 20.625 24.0938 20.625Z" fill="#425763"/>
<path d="M24.1875 20.0625C24.5499 20.0625 24.8437 19.7687 24.8437 19.4063C24.8437 19.0438 24.5499 18.75 24.1875 18.75C23.8251 18.75 23.5312 19.0438 23.5312 19.4063C23.5312 19.7687 23.8251 20.0625 24.1875 20.0625Z" fill="#4ED154"/>
<path d="M20.1563 19.0312C20.1563 19.0312 20.4375 17.0625 21.9375 16.3125C22.125 16.2187 22.125 16.0312 21.8437 16.0312H21.5625C21.375 16.0312 19.6875 16.125 19.125 19.125L20.1563 19.0312Z" fill="#A2B6BA"/>
<path d="M22.9891 22.2594C22.9961 20.3437 21.5746 18.7855 19.8142 18.7791C18.0538 18.7727 16.6211 20.3206 16.6141 22.2363C16.6072 24.1521 18.0287 25.7102 19.7891 25.7166C21.5495 25.723 22.9822 24.1752 22.9891 22.2594Z" fill="#425763"/>
<path d="M22.3708 22.1036C22.3761 20.6539 21.289 19.4746 19.9429 19.4698C18.5967 19.4649 17.5011 20.6362 17.4958 22.0859C17.4906 23.5357 18.5776 24.7149 19.9238 24.7198C21.27 24.7246 22.3656 23.5533 22.3708 22.1036Z" fill="#3587C4"/>
<path d="M21.9082 22.0032C21.9125 20.8124 20.9926 19.8436 19.8535 19.8395C18.7144 19.8354 17.7875 20.7974 17.7832 21.9883C17.7789 23.1791 18.6988 24.1479 19.8379 24.152C20.977 24.1561 21.9039 23.1941 21.9082 22.0032Z" fill="#4DA3EC"/>
<path d="M21.0099 20.9826C21.011 20.6719 20.76 20.4192 20.4494 20.4181C20.1387 20.4169 19.886 20.6679 19.8849 20.9785C19.8837 21.2892 20.1347 21.5419 20.4453 21.5431C20.756 21.5442 21.0087 21.2933 21.0099 20.9826Z" fill="white"/>
<path d="M21.2806 17.5313L22.0306 16.7813C22.1243 16.6875 22.3118 16.6875 22.4056 16.6875C22.6868 16.7812 23.2493 16.9688 23.9056 17.3438C24.2806 17.5313 24.0931 18.1875 23.6243 18.0938L21.5618 18.1875C21.2806 18.2813 21.0931 17.8125 21.2806 17.5313Z" fill="#E1F0F4"/>
</g>
<defs>
<clipPath id="clip0_52_77047">
<rect width="30" height="30" fill="white"/>
</clipPath>
</defs>
</svg>
