<svg width="41" height="41" viewBox="0 0 41 41" fill="none" xmlns="http://www.w3.org/2000/svg">
<path fill-rule="evenodd" clip-rule="evenodd" d="M24.1143 20.4992L32.5448 12.0687C33.0317 11.6075 33.3135 10.9669 33.3135 10.2494C33.3128 9.74206 33.1619 9.2463 32.88 8.82456C32.598 8.40282 32.1975 8.07396 31.729 7.87942C31.2604 7.68488 30.7448 7.63335 30.247 7.73134C29.7492 7.82932 29.2916 8.07243 28.9317 8.43004L20.5012 16.8862L12.0707 8.43004C11.8318 8.19112 11.5481 8.00159 11.236 7.87229C10.9238 7.74299 10.5892 7.67644 10.2514 7.67644C9.91347 7.67644 9.57889 7.74299 9.26673 7.87229C8.95456 8.00159 8.67092 8.19112 8.432 8.43004C7.94948 8.91256 7.6784 9.567 7.6784 10.2494C7.6784 10.9318 7.94948 11.5862 8.432 12.0687L16.8881 20.4992L8.45763 28.9298C7.97076 29.391 7.68889 30.0316 7.68889 30.7491C7.68962 31.2564 7.84048 31.7522 8.12246 32.1739C8.40444 32.5957 8.80493 32.9245 9.27348 33.1191C9.74202 33.3136 10.2577 33.3651 10.7554 33.2672C11.2532 33.1692 11.7108 32.9261 12.0707 32.5685L20.5012 24.1123L28.9317 32.5428C29.393 33.0297 30.0336 33.3116 30.7511 33.3116C31.2584 33.3108 31.7542 33.16 32.1759 32.878C32.5976 32.596 32.9265 32.1955 33.121 31.727C33.3156 31.2584 33.3671 30.7428 33.2691 30.245C33.1711 29.7473 32.928 29.2896 32.5704 28.9298L24.1143 20.4992Z" fill="black"/>
</svg>
