<svg width="15" height="15" viewBox="0 0 15 15" fill="none" xmlns="http://www.w3.org/2000/svg">
<path fill-rule="evenodd" clip-rule="evenodd" d="M13.329 6.66452C13.3309 8.14459 12.835 9.58229 11.9212 10.7465L14.7536 13.5706C14.8317 13.6481 14.8936 13.7402 14.9359 13.8417C14.9782 13.9432 15 14.0521 15 14.1621C15 14.2721 14.9782 14.381 14.9359 14.4825C14.8936 14.584 14.8317 14.6761 14.7536 14.7536C14.6761 14.8317 14.584 14.8936 14.4825 14.9359C14.381 14.9782 14.2721 15 14.1621 15C14.0521 15 13.9432 14.9782 13.8417 14.9359C13.7402 14.8936 13.6481 14.8317 13.5706 14.7536L10.7465 11.9212C9.58229 12.835 8.14459 13.3309 6.66452 13.329C5.3464 13.329 4.05789 12.9382 2.96191 12.2059C1.86594 11.4736 1.01173 10.4327 0.507309 9.21492C0.00288761 7.99714 -0.129092 6.65713 0.12806 5.36434C0.385212 4.07155 1.01995 2.88404 1.952 1.952C2.88404 1.01995 4.07155 0.385212 5.36434 0.12806C6.65713 -0.129092 7.99714 0.00288761 9.21492 0.507309C10.4327 1.01173 11.4736 1.86594 12.2059 2.96191C12.9382 4.05789 13.329 5.3464 13.329 6.66452ZM4.75172 2.04661C3.83838 2.42493 3.05774 3.06558 2.50851 3.88757C1.95928 4.70955 1.66613 5.67593 1.66613 6.66452C1.66613 7.99018 2.19275 9.26154 3.13013 10.1989C4.06751 11.1363 5.33887 11.6629 6.66452 11.6629C7.65311 11.6629 8.6195 11.3698 9.44148 10.8205C10.2635 10.2713 10.9041 9.49066 11.2824 8.57732C11.6607 7.66399 11.7597 6.65898 11.5669 5.68938C11.374 4.71979 10.898 3.82916 10.1989 3.13013C9.49988 2.43109 8.60925 1.95504 7.63966 1.76218C6.67007 1.56931 5.66506 1.6683 4.75172 2.04661Z" fill="#347AE2"/>
</svg>
