<svg width="20" height="20" viewBox="0 0 20 20" fill="none" xmlns="http://www.w3.org/2000/svg">
<path d="M19.6682 4.94942C19.0282 2.77942 17.2182 0.969416 15.0482 0.329416C13.3982 -0.150584 12.2582 -0.110584 11.4682 0.479416C10.5182 1.18942 10.4082 2.46942 10.4082 3.37942V5.86942C10.4082 8.32942 11.5282 9.57942 13.7282 9.57942H16.5982C17.4982 9.57942 18.7882 9.46942 19.4982 8.51942C20.1082 7.73942 20.1582 6.59942 19.6682 4.94942Z" fill="#B0B0B0"/>
<path d="M16.9075 11.3592C16.6475 11.0592 16.2675 10.8892 15.8775 10.8892H12.2975C10.5375 10.8892 9.10746 9.45917 9.10746 7.69917V4.11917C9.10746 3.72917 8.93746 3.34917 8.63746 3.08917C8.34746 2.82917 7.94746 2.70917 7.56746 2.75917C5.21746 3.05917 3.05746 4.34917 1.64746 6.28917C0.227457 8.23917 -0.292543 10.6192 0.157457 12.9992C0.807457 16.4392 3.55746 19.1892 7.00746 19.8392C7.55746 19.9492 8.10746 19.9992 8.65746 19.9992C10.4675 19.9992 12.2175 19.4392 13.7075 18.3492C15.6475 16.9392 16.9375 14.7792 17.2375 12.4292C17.2875 12.0392 17.1675 11.6492 16.9075 11.3592Z" fill="#B0B0B0"/>
</svg>
