<svg width="234" height="64" viewBox="0 0 234 64" fill="none" xmlns="http://www.w3.org/2000/svg">
<g clip-path="url(#clip0_52_60083)">
<path d="M18.3428 23.1016V45.6092H30.4394C35.2979 45.6092 39.3631 41.6431 39.3631 36.6855C39.3631 33.6118 37.6775 30.7363 35.0996 29.0507L35.0004 28.9516L35.0996 28.8524C36.4877 27.1668 37.2809 25.0846 37.2809 23.0024C37.2809 17.9457 33.0173 13.7812 27.8614 13.7812C22.6063 13.8804 18.3428 18.0448 18.3428 23.1016ZM22.9038 27.6626V23.1016C22.9038 20.5236 25.0851 18.4414 27.7623 18.4414C30.4394 18.4414 32.6207 20.5236 32.6207 23.1016C32.6207 25.6796 30.4394 27.7618 27.7623 27.7618L22.9038 27.6626ZM22.9038 40.949V32.3228H30.5385C32.9182 32.3228 34.9012 34.3058 34.9012 36.6855C34.9012 39.0651 32.9182 41.0482 30.5385 41.0482L22.9038 40.949Z" fill="#D71920"/>
<path d="M41.7432 34.5041C41.7432 40.8499 46.6016 46.0058 52.5508 46.0058C58.4999 46.0058 63.3584 40.8499 63.3584 34.5041C63.3584 28.1583 58.4999 23.1016 52.5508 23.1016C46.6016 23.1016 41.7432 28.2575 41.7432 34.5041ZM46.3042 34.5041C46.3042 30.6372 49.0805 27.5634 52.5508 27.5634C56.0211 27.5634 58.7974 30.7363 58.7974 34.5041C58.7974 38.3711 56.0211 41.4448 52.5508 41.4448C49.0805 41.5439 46.3042 38.3711 46.3042 34.5041Z" fill="#D71920"/>
<path d="M115.512 14.377H110.951V45.61H115.512V14.377Z" fill="#D71920"/>
<path d="M133.36 23.498C133.36 23.6964 133.36 36.487 133.36 36.487C133.36 39.4616 131.377 41.643 128.7 41.643C126.023 41.643 124.04 39.4616 124.04 36.487C124.04 36.487 124.04 23.6964 124.04 23.498C123.841 23.498 119.677 23.498 119.479 23.498C119.479 23.6964 119.479 36.6853 119.479 36.6853C119.479 42.1387 123.345 46.0057 128.601 46.0057C133.856 46.0057 137.723 42.0396 137.723 36.6853C137.723 36.6853 137.723 23.6964 137.723 23.498C137.623 23.498 133.459 23.498 133.36 23.498Z" fill="#D71920"/>
<path d="M66.7295 14.377V45.61H71.1914V35.8931H72.8769C73.9676 35.8931 74.7608 36.8846 76.843 39.8592C76.843 39.8592 80.4125 45.1142 80.71 45.5109C80.8092 45.5109 85.8659 45.5109 86.2625 45.5109C86.0642 45.2134 80.9083 37.5786 80.9083 37.5786C79.9168 36.0914 79.0244 34.7032 78.0329 33.7117H77.9337L78.0329 33.6125C78.9252 32.621 79.9168 31.2329 80.9083 29.7456C80.9083 29.7456 84.577 24.3914 85.1719 23.499C84.8744 23.499 79.7185 23.499 79.7185 23.499C79.6193 23.5981 77.0414 27.4651 77.0414 27.4651C75.0583 30.5388 74.1659 31.4312 73.0752 31.4312H71.3897V14.377H66.7295Z" fill="#D71920"/>
<path d="M88.6416 14.377V45.61H93.1035V35.8931H94.7891C95.8797 35.8931 96.673 36.8846 98.7552 39.8592C98.7552 39.8592 102.325 45.1142 102.622 45.5109C102.721 45.5109 107.778 45.5109 108.175 45.5109C107.976 45.2134 102.82 37.5786 102.82 37.5786C101.829 36.0914 100.937 34.7032 99.945 33.7117L99.8458 33.6125L99.945 33.5134C100.837 32.621 101.631 31.4312 102.82 29.6464C102.82 29.6464 106.489 24.2922 107.084 23.3998C106.787 23.3998 101.631 23.3998 101.631 23.3998C101.531 23.499 98.9535 27.3659 98.9535 27.3659C96.9704 30.3405 96.078 31.332 94.9874 31.332H93.3018V14.377H88.6416Z" fill="#D71920"/>
<path d="M141.788 14.377V45.61H151.902C157.454 45.61 162.015 40.5532 162.015 34.3066C162.015 28.06 157.454 23.0032 151.902 23.0032C150.018 23.0032 148.134 23.5981 146.448 24.8871L146.349 24.9863V14.377H141.788ZM146.25 40.9498V34.2075C146.25 30.4397 148.729 27.4651 151.802 27.4651C154.876 27.4651 157.355 30.5388 157.355 34.2075C157.355 37.9753 154.876 40.9498 151.802 40.9498H146.25Z" fill="#D71920"/>
<path d="M165.089 14.377V45.61H175.202C180.755 45.61 185.316 40.5532 185.316 34.3066C185.316 28.06 180.755 23.0032 175.202 23.0032C173.319 23.0032 171.435 23.5981 169.749 24.8871L169.551 24.9863V14.377H165.089ZM169.65 40.9498V34.2075C169.65 30.4397 172.129 27.4651 175.202 27.4651C178.276 27.4651 180.755 30.5388 180.755 34.2075C180.755 37.9753 178.276 40.9498 175.202 40.9498H169.65Z" fill="#D71920"/>
<path d="M212.583 32.7189V45.6087H217.144V32.7189C217.144 29.7443 219.325 27.563 222.399 27.563C225.473 27.563 227.654 29.7443 227.654 32.7189V45.6087H232.215V32.7189C232.215 27.1664 228.051 23.002 222.498 23.002C216.747 23.1011 212.583 27.2655 212.583 32.7189Z" fill="#D71920"/>
<path d="M187.894 34.5036C187.894 41.246 192.455 46.0053 198.999 46.0053C203.461 46.0053 207.526 43.0308 209.211 38.7672H204.254C202.965 40.4528 200.982 41.4443 198.999 41.4443C195.429 41.4443 193.149 39.5604 192.554 35.9909V35.8918C192.554 35.8918 209.311 35.8918 209.509 35.8918C209.509 35.6935 209.509 34.5036 209.509 34.5036C209.509 28.1579 204.65 23.002 198.701 23.002C192.653 23.1011 187.894 28.257 187.894 34.5036ZM192.752 31.9257C193.744 29.2486 196.024 27.563 198.602 27.563C201.18 27.563 203.461 29.2486 204.452 31.9257V32.0248H192.752V31.9257Z" fill="#D71920"/>
<path d="M13.7822 21.9115V27.7615H7.33729C3.27203 27.7615 0 24.4895 0 20.4242V14.5742H6.54407C10.5102 14.5742 13.7822 17.8463 13.7822 21.9115Z" fill="#D71920"/>
<path d="M13.7822 38.2719V32.4219H7.33729C3.27203 32.4219 0 35.6939 0 39.7592V45.6092H6.54407C10.5102 45.6092 13.7822 42.3371 13.7822 38.2719Z" fill="#D71920"/>
</g>
<defs>
<clipPath id="clip0_52_60083">
<rect width="234" height="63.4219" fill="white"/>
</clipPath>
</defs>
</svg>
