<svg width="30" height="30" viewBox="0 0 30 30" fill="none" xmlns="http://www.w3.org/2000/svg">
<g clip-path="url(#clip0_52_68388)">
<path d="M20.9062 18.0937C20.9062 18.0937 22.875 13.5938 22.3125 9.09375L17.1562 15.9375L20.9062 18.0937Z" fill="#807CA5"/>
<path d="M19.7818 17.4385C21.6568 18.0947 23.3443 19.5947 24.0006 21.751C24.5631 24.001 23.8131 26.7197 22.0318 27.9385C20.9068 28.7822 19.5006 28.9697 18.1881 28.9697C15.0006 28.9697 11.8131 27.9385 8.6256 26.8135C7.6881 26.5322 6.5631 26.1572 5.6256 25.4072C4.6881 24.751 3.9381 23.7197 3.7506 22.4072C3.5631 20.7197 4.59435 18.9385 5.90685 18.0947C8.2506 16.5947 10.5943 15.9385 13.0318 16.0322C15.2818 16.0322 17.8131 16.7822 19.7818 17.4385Z" fill="#8EA8AF"/>
<path d="M19.5005 16.126C21.2817 16.7822 22.8755 18.2822 23.438 20.4385C24.0005 22.6885 23.2505 25.4072 21.6567 26.626C20.6255 27.4697 19.313 27.6572 18.0942 27.6572C15.0942 27.6572 12.0942 26.626 9.0942 25.501C8.06295 25.126 7.12545 24.751 6.18795 24.0947C5.3442 23.4385 4.5942 22.4072 4.4067 21.0947C4.2192 19.4072 5.1567 17.626 6.4692 16.7822C8.62545 15.2822 10.8755 14.626 13.2192 14.7197C15.188 14.7197 17.6255 15.376 19.5005 16.126Z" fill="#D3DEE2"/>
<path d="M16.406 17.0625C16.406 17.0625 12.656 18.5625 9.93724 22.9687C9.93724 22.9687 8.90599 19.2188 9.56224 16.5C9.46849 16.5 13.3122 18.1875 16.406 17.0625Z" fill="white"/>
<path d="M10.875 26.1562L12.6562 20.3438L14.25 20.1562L11.7188 26.3438L10.875 26.1562ZM6.9375 24.6562L7.96875 18.4688L9.46875 18.2812L7.6875 25.0313L6.9375 24.6562Z" fill="#BDD1D6"/>
<path d="M12.9375 20.25L11.0625 26.25C11.0625 26.25 8.53125 25.6875 7.5 24.9375L8.4375 18.75C8.4375 18.75 11.7188 20.4375 12.9375 20.25Z" fill="#FCFCFC"/>
<path d="M14.3438 20.0625C14.3438 20.0625 19.4062 20.0625 21.9375 20.8125C21.9375 20.8125 23.5313 20.5312 23.1563 19.5C22.7813 18.4687 21.6563 16.9688 19.875 16.125C19.875 16.125 16.2188 19.7812 14.3438 20.0625Z" fill="#807CA5"/>
<path d="M22.1248 7.3125C22.1248 7.3125 23.9998 15.0938 16.8748 19.4063C16.8748 19.4063 13.8748 20.9062 11.1561 20.4375C8.43732 19.9687 6.84357 17.7187 7.68732 15.8437L11.8123 9.65625L22.1248 7.3125Z" fill="#6A648E"/>
<path d="M8.15623 17.8125C8.15623 17.8125 4.03123 15.2812 4.59373 8.8125L9.65623 9.84375L8.15623 17.8125Z" fill="#6A648E"/>
<path opacity="0.28" d="M20.4777 24.5493C20.9728 23.0226 20.2963 21.4353 18.9665 21.004C17.6368 20.5727 16.1574 21.4608 15.6622 22.9875C15.167 24.5143 15.8436 26.1016 17.1733 26.5328C18.5031 26.9641 19.9825 26.0761 20.4777 24.5493Z" fill="white"/>
<path d="M22.4063 9.56215C22.4063 14.5309 18.4688 18.5621 13.5 18.4684C8.53125 18.4684 4.59375 14.4372 4.59375 9.4684C4.59375 4.49965 8.625 0.4684 13.5938 0.56215C18.5625 0.56215 22.5 4.5934 22.4063 9.56215Z" fill="#E5A98C"/>
<path d="M22.4375 9.34367C22.4548 4.58021 18.7331 0.705132 14.125 0.688435C9.51688 0.671737 5.76726 4.51975 5.75 9.2832C5.73274 14.0467 9.45437 17.9217 14.0625 17.9384C18.6706 17.9551 22.4202 14.1071 22.4375 9.34367Z" fill="#E8CCAA"/>
<path d="M17.9173 10.466C17.9299 6.997 15.2118 4.1749 11.8463 4.16271C8.48082 4.15051 5.74236 6.95284 5.72979 10.4219C5.71722 13.8909 8.4353 16.713 11.8008 16.7252C15.1663 16.7374 17.9047 13.9351 17.9173 10.466Z" fill="#FAEACF"/>
<path d="M14.6909 11.1272C14.6928 10.6094 14.3165 10.1883 13.8505 10.1867C13.3846 10.185 13.0053 10.6033 13.0034 11.1211C13.0015 11.6389 13.3778 12.06 13.8437 12.0617C14.3097 12.0633 14.689 11.645 14.6909 11.1272Z" fill="#425763"/>
<path d="M14.1358 10.8139C14.1363 10.6585 14.0529 10.5323 13.9493 10.5319C13.8458 10.5316 13.7613 10.6572 13.7608 10.8125C13.7602 10.9678 13.8437 11.0941 13.9473 11.0944C14.0508 11.0948 14.1352 10.9692 14.1358 10.8139Z" fill="white"/>
<path d="M8.02488 9.70924C8.02676 9.19147 7.65052 8.77037 7.18453 8.76868C6.71854 8.76699 6.33926 9.18536 6.33738 9.70312C6.33551 10.2209 6.71174 10.642 7.17773 10.6437C7.64373 10.6454 8.02301 10.227 8.02488 9.70924Z" fill="#425763"/>
<path d="M7.56352 9.39589C7.56408 9.24056 7.48059 9.11434 7.37704 9.11396C7.27348 9.11359 7.18908 9.2392 7.18852 9.39453C7.18796 9.54986 7.27145 9.67609 7.375 9.67646C7.47855 9.67684 7.56296 9.55122 7.56352 9.39589Z" fill="white"/>
<path d="M12 15.375C12 15.375 11.1563 15.2812 10.5938 14.8125C10.0313 14.3437 9.375 14.4375 9.28125 14.4375C9.1875 14.4375 9 14.25 8.8125 14.1563C8.625 14.0625 8.34375 14.0625 8.34375 14.1563C8.34375 14.25 8.625 14.7187 8.625 14.7187C8.625 14.7187 8.71875 15.0937 8.625 15.2812C8.53125 15.4687 8.625 16.125 9.28125 16.2187C9.9375 16.3125 10.4062 16.3125 10.6875 16.125C10.875 16.0313 12 15.375 12 15.375Z" fill="#A67A65"/>
<path d="M20.625 12.9377C20.625 12.9377 17.625 9.00016 10.0312 7.68766C10.0312 7.68766 6 7.03141 4.59375 9.84391C4.59375 9.84391 4.96875 -0.749839 15.2812 1.78141C23.5313 3.75016 23.4375 11.7189 20.7188 14.1564C20.7188 14.1564 21.2813 14.2502 20.625 12.9377Z" fill="#D3DEE2"/>
<path d="M20.1562 10.8748C20.1562 10.8748 16.9688 5.99982 10.875 5.99982C10.875 5.99982 6.1875 5.71857 4.78125 8.53107C4.78125 8.53107 5.90625 -1.59393 15.8437 0.468572C24.2812 2.24982 23.3438 12.4686 20.625 14.9061C20.5312 14.9061 20.7188 12.1873 20.1562 10.8748Z" fill="#6A648E"/>
<path d="M15.9369 1.96848C18.3744 2.90598 21.5619 5.06223 21.5619 10.031C21.5619 10.031 19.3119 6.37473 16.7807 5.53098C16.1244 5.34348 15.3744 5.06223 14.8119 4.78098C12.8432 4.03098 13.9682 1.31223 15.9369 1.96848Z" fill="#807CA5"/>
<path d="M19.3125 9.65648C19.3125 9.65648 21.8438 16.1252 14.25 19.3127C14.25 19.3127 21.375 18.1877 22.4062 10.8752C22.4062 10.8752 21.0938 9.18773 19.3125 9.65648Z" fill="#6A648E"/>
<path d="M6.375 16.0312C6.375 16.0312 7.78125 22.6875 10.3125 22.875C12.8438 23.0625 16.0312 20.625 19.3125 17.1562C19.3125 17.1562 14.5312 20.1562 12 19.6875C9.46875 19.2187 6.375 16.0312 6.375 16.0312Z" fill="#6A648E"/>
<path d="M15.375 27.5625L15.0938 28.0312L16.6875 29.0625L25.5937 20.25L24.0938 18.375L15.375 27.5625Z" fill="#9A4C18"/>
<path d="M25.782 22.6875C25.5007 26.25 22.2195 29.1562 18.5632 29.1562C15.0007 29.1562 12.657 26.1563 13.3132 22.6875C13.9695 19.5 17.0632 16.9688 20.2507 16.875C23.532 16.9688 26.0632 19.4063 25.782 22.6875Z" fill="#9A4C18"/>
<path d="M26.6254 23.8125C26.3442 27.1875 23.1567 30 19.5942 30C16.1254 30 13.8754 27.0938 14.5317 23.8125C15.1879 20.7187 18.1879 18.375 21.2817 18.2812C24.5629 18.2812 26.9067 20.7187 26.6254 23.8125Z" fill="#9A4C18"/>
<path d="M16.4062 27.75L17.9063 28.5938L25.2188 20.9062L24 19.3125L16.4062 27.75Z" fill="#F49937"/>
<path d="M25.9682 23.8125C25.6869 26.7188 23.0619 29.0625 20.0619 29.0625C17.1557 29.0625 15.2807 26.625 15.7494 23.8125C16.2182 21.1875 18.7494 19.0312 21.4682 19.0312C24.1869 19.0312 26.2494 21.0938 25.9682 23.8125Z" fill="#F49937"/>
<path d="M24.9382 22.6875C24.6569 25.7813 21.8444 28.3125 18.6569 28.3125C15.5632 28.3125 13.5007 25.6875 14.0632 22.6875C14.6257 19.875 17.3444 17.625 20.1569 17.625C23.0632 17.625 25.2194 19.7813 24.9382 22.6875Z" fill="#FFEDC0"/>
<path d="M24.5619 22.9679C24.2807 25.8742 21.6557 28.2179 18.6557 28.2179C15.7494 28.2179 13.8744 25.7804 14.3432 22.9679C14.8119 20.3429 17.3432 18.1867 20.0619 18.1867C22.8744 18.0929 24.8432 20.1554 24.5619 22.9679Z" fill="#FFD766"/>
<path d="M23.4383 22.9686C23.2508 25.2186 21.1883 26.9998 18.8445 26.9998C16.5945 26.9998 15.0945 25.1248 15.4695 22.9686C15.8445 20.9061 17.8133 19.2186 19.9695 19.2186C22.1258 19.1248 23.6258 20.8123 23.4383 22.9686Z" fill="#FFEDC0"/>
<path d="M23.532 22.4063C23.3445 24.5625 21.282 26.4375 19.032 26.4375C16.782 26.4375 15.282 24.6563 15.657 22.5C16.032 20.4375 18.0008 18.75 20.0633 18.75C22.1258 18.6563 23.7195 20.25 23.532 22.4063Z" fill="#F49937"/>
<path d="M22.7809 22.9693C22.5934 24.8443 20.8122 26.3443 18.9372 26.3443C17.0622 26.3443 15.7497 24.7505 16.1247 22.9693C16.4059 21.188 18.0934 19.7818 19.8747 19.7818C21.7497 19.688 22.9684 21.0943 22.7809 22.9693Z" fill="#FFD766"/>
<path d="M20.4375 19.4062L20.9062 21.375L23.1562 21.9375L21.0937 23.3437L20.9062 25.6875L19.125 24.375L16.7812 25.2187L17.8125 22.9687L16.5938 21.2812L18.9375 21.1875L20.4375 19.4062Z" fill="#F49937"/>
</g>
<defs>
<clipPath id="clip0_52_68388">
<rect width="30" height="30" fill="white"/>
</clipPath>
</defs>
</svg>
