<svg width="16" height="16" viewBox="0 0 16 16" fill="none" xmlns="http://www.w3.org/2000/svg">
<path d="M12.9474 3.25343C13.5554 3.63277 14.258 3.83337 14.9747 3.83228V6.57074C13.5509 6.57074 12.2328 6.11837 11.1564 5.34958V10.9381C11.1564 13.7337 8.88898 16 6.09198 16C5.04838 16 4.0784 15.6846 3.27264 15.1439C1.91872 14.2353 1.02734 12.6904 1.02734 10.9381C1.02734 8.1426 3.29482 5.87634 6.09203 5.8764C6.32449 5.87629 6.55666 5.89207 6.78692 5.92353V6.54403L6.78685 8.7232C6.56518 8.65287 6.3289 8.61473 6.08374 8.61473C4.8042 8.61473 3.76712 9.65147 3.76712 10.9301C3.76712 11.8343 4.28552 12.6171 5.04146 12.9985C5.3549 13.1565 5.70888 13.2455 6.08374 13.2455C7.36065 13.2455 8.39598 12.213 8.40038 10.9381V0H11.1563C11.1563 1.31175 11.8241 2.55287 12.9474 3.25343Z" fill="#C2C8CC"/>
</svg>
