<svg width="14" height="14" viewBox="0 0 14 14" fill="none" xmlns="http://www.w3.org/2000/svg">
<path d="M13.8086 12.0815L11.0824 9.36062C10.9594 9.23782 10.7926 9.16959 10.6176 9.16959H10.1719C10.9266 8.20624 11.375 6.99454 11.375 5.67641C11.375 2.54074 8.8293 0 5.6875 0C2.5457 0 0 2.54074 0 5.67641C0 8.81209 2.5457 11.3528 5.6875 11.3528C7.0082 11.3528 8.22227 10.9053 9.1875 10.152V10.5969C9.1875 10.7715 9.25586 10.938 9.37891 11.0608L12.1051 13.7817C12.3621 14.0382 12.7777 14.0382 13.032 13.7817L13.8059 13.0094C14.0629 12.7528 14.0629 12.338 13.8086 12.0815ZM5.6875 9.16959C3.7543 9.16959 2.1875 7.60858 2.1875 5.67641C2.1875 3.74698 3.75156 2.18324 5.6875 2.18324C7.6207 2.18324 9.1875 3.74425 9.1875 5.67641C9.1875 7.60585 7.62344 9.16959 5.6875 9.16959Z" fill="white"/>
</svg>
