<svg width="24" height="24" viewBox="0 0 24 24" fill="none" xmlns="http://www.w3.org/2000/svg">
<path fill-rule="evenodd" clip-rule="evenodd" d="M4 7.27043V4.44043C12.59 4.44043 19.56 11.4104 19.56 20.0004H16.73C16.73 12.9704 11.03 7.27043 4 7.27043ZM4 12.9304V10.1004C9.47 10.1004 13.9 14.5304 13.9 20.0004H11.07C11.07 16.1004 7.9 12.9304 4 12.9304ZM8.36 17.8204C8.36 19.0244 7.38398 20.0004 6.18 20.0004C4.97602 20.0004 4 19.0244 4 17.8204C4 16.6165 4.97602 15.6404 6.18 15.6404C7.38398 15.6404 8.36 16.6165 8.36 17.8204Z" fill="#558E60"/>
</svg>
