<svg width="103" height="136" viewBox="0 0 103 136" fill="none" xmlns="http://www.w3.org/2000/svg">
<path fill-rule="evenodd" clip-rule="evenodd" d="M63.2419 22.1645L62.412 20.7244C61.7099 19.5058 60.154 19.0854 58.9337 19.7846V19.7846C58.3529 20.1268 57.6598 20.2239 57.0073 20.0545C56.3548 19.885 55.7965 19.463 55.4555 18.8815C55.2361 18.5119 55.1182 18.0909 55.1137 17.6611V17.6611C55.1335 16.972 54.8736 16.3042 54.393 15.8099C53.9125 15.3156 53.2524 15.0368 52.563 15.0371H50.891C50.2156 15.0371 49.5681 15.3062 49.0917 15.7849C48.6153 16.2636 48.3492 16.9125 48.3525 17.5878V17.5878C48.3325 18.9822 47.1963 20.1021 45.8018 20.1019C45.372 20.0975 44.951 19.9796 44.5813 19.7602V19.7602C43.3611 19.061 41.8052 19.4814 41.1031 20.7L40.2121 22.1645C39.5109 23.3815 39.9255 24.9365 41.1397 25.6428V25.6428C41.9289 26.0984 42.415 26.9405 42.415 27.8518C42.415 28.763 41.9289 29.6051 41.1397 30.0608V30.0608C39.9271 30.7623 39.512 32.3134 40.2121 33.5268V33.5268L41.0542 34.9791C41.3832 35.5727 41.9351 36.0107 42.5879 36.1963C43.2407 36.3818 43.9405 36.2995 44.5325 35.9677V35.9677C45.1144 35.6281 45.8079 35.5351 46.4588 35.7093C47.1097 35.8834 47.664 36.3104 47.9986 36.8952C48.2179 37.2649 48.3358 37.6859 48.3403 38.1157V38.1157C48.3403 39.5244 49.4823 40.6664 50.891 40.6664H52.563C53.967 40.6664 55.107 39.5318 55.1137 38.1279V38.1279C55.1105 37.4504 55.3782 36.7997 55.8572 36.3206C56.3363 35.8416 56.987 35.5739 57.6645 35.5772C58.0932 35.5886 58.5125 35.706 58.8849 35.9189V35.9189C60.1019 36.6201 61.6569 36.2055 62.3632 34.9913V34.9913L63.2419 33.5268C63.582 32.943 63.6754 32.2477 63.5013 31.5948C63.3272 30.942 62.9 30.3855 62.3143 30.0486V30.0486C61.7287 29.7116 61.3015 29.1551 61.1274 28.5023C60.9533 27.8494 61.0467 27.1541 61.3868 26.5703C61.608 26.1841 61.9282 25.8639 62.3143 25.6428V25.6428C63.5212 24.9369 63.9349 23.391 63.2419 22.1767V22.1767V22.1645Z" stroke="#384455" stroke-width="1.5" stroke-linecap="round" stroke-linejoin="round"/>
<ellipse opacity="0.4" cx="51.7326" cy="27.8518" rx="3.51487" ry="3.51487" stroke="#384455" stroke-width="1.5" stroke-linecap="round" stroke-linejoin="round"/>
<path opacity="0.4" d="M55.5216 101.853V100.609C55.5216 97.8953 53.3216 95.6953 50.6083 95.6953H44.1083C41.3963 95.6953 39.1963 97.8953 39.1963 100.609V115.449C39.1963 118.162 41.3963 120.362 44.1083 120.362H50.6216C53.327 120.362 55.5216 118.169 55.5216 115.463V114.206" stroke="#384455" stroke-width="1.5" stroke-linecap="round" stroke-linejoin="round"/>
<path d="M64.5801 108.029H48.5254" stroke="#384455" stroke-width="1.5" stroke-linecap="round" stroke-linejoin="round"/>
<path d="M60.6748 104.142L64.5788 108.028L60.6748 111.916" stroke="#384455" stroke-width="1.5" stroke-linecap="round" stroke-linejoin="round"/>
</svg>
