<svg width="20" height="17" viewBox="0 0 20 17" fill="none" xmlns="http://www.w3.org/2000/svg">
<path d="M15.782 6.48068L15.7821 6.48069L15.7853 6.47806C16.3171 6.04598 16.4018 5.2559 15.9734 4.72133C15.5464 4.16552 14.7468 4.09123 14.2165 4.52047L11.088 7.01932L11.087 7.02007C10.8117 7.24105 10.4159 7.3675 9.995 7.3675C9.57408 7.3675 9.1783 7.24105 8.90297 7.02007L8.90204 7.01932L5.77342 4.52042C5.22844 4.07934 4.44673 4.19189 4.02194 4.7147L4.02187 4.71465L4.01599 4.72218C3.59983 5.25486 3.68133 6.04469 4.2147 6.47806L4.21469 6.47807L4.21796 6.48068L7.34605 8.97916C8.09773 9.59117 9.06329 9.88 10 9.88C10.9396 9.88 11.8935 9.58961 12.6526 8.98026C12.6527 8.98012 12.6529 8.97999 12.6531 8.97986L15.782 6.48068ZM5 0.5H15C16.4234 0.5 17.5331 0.855911 18.2848 1.5539C19.0297 2.24565 19.5 3.3453 19.5 5V12C19.5 13.6547 19.0297 14.7543 18.2848 15.4461C17.5331 16.1441 16.4234 16.5 15 16.5H5C3.57665 16.5 2.4669 16.1441 1.71523 15.4461C0.970257 14.7543 0.5 13.6547 0.5 12V5C0.5 3.3453 0.970257 2.24565 1.71523 1.5539C2.4669 0.855911 3.57665 0.5 5 0.5Z" fill="#252525" stroke="#252525"/>
</svg>
