<svg width="30" height="30" viewBox="0 0 30 30" fill="none" xmlns="http://www.w3.org/2000/svg">
<g clip-path="url(#clip0_52_64195)">
<path d="M6.09375 11.1562C6.09375 11.1562 7.3125 17.7188 6.1875 21L9.84375 18.6562L9.375 13.125L6.09375 11.1562ZM24.6562 22.7812C24.6562 22.7812 28.5938 13.4063 24.1875 6.09375L20.4375 12.5625L20.9062 20.5313L24.6562 22.7812Z" fill="#77315B"/>
<path d="M21.0006 18.4697C22.8756 19.126 24.5631 20.626 25.1256 22.7822C25.6881 25.0322 24.9381 27.6572 23.1568 28.9697C22.0318 29.8135 20.6256 30.001 19.3131 30.001C16.1256 30.001 13.0318 28.9697 9.84435 27.8447C8.8131 27.4697 7.6881 27.0947 6.7506 26.4385C5.8131 25.7822 5.0631 24.751 4.8756 23.4385C4.6881 21.751 5.71935 19.9697 7.03185 19.126C9.3756 17.626 11.7193 16.9697 14.1568 17.0635C16.4068 17.0635 19.0318 17.8135 21.0006 18.4697Z" fill="#77315B"/>
<path d="M23.3437 6.375C23.3437 6.375 28.125 14.3437 22.7812 19.5L18.9375 17.4375L23.3437 6.375Z" fill="#425763"/>
<path d="M21.1881 17.3447C23.0631 18.001 24.7506 19.501 25.3131 21.6572C25.8756 23.9072 25.1256 26.5322 23.3443 27.8447C22.2193 28.6885 20.8131 28.876 19.5006 28.876C16.3131 28.876 13.2193 27.8447 10.0318 26.7197C9.0006 26.3447 7.8756 25.9697 6.9381 25.3135C6.0006 24.6572 5.2506 23.626 5.0631 22.3135C4.8756 20.626 5.90685 18.8447 7.21935 18.001C9.5631 16.501 11.9068 15.8447 14.3443 15.9385C16.6881 15.9385 19.2193 16.6885 21.1881 17.3447Z" fill="#B74F88"/>
<path d="M20.9055 15.9385C22.6868 16.5947 23.343 18.751 23.9055 20.9072C24.468 23.1572 24.6555 25.2197 23.0618 26.4385C22.0305 27.2822 20.718 27.4697 19.4993 27.4697C16.4993 27.4697 13.4993 26.4385 10.593 25.3135C9.56178 24.9385 8.62428 24.5635 7.68678 23.9072C6.84303 23.251 6.09303 22.2197 5.90553 20.9072C5.62428 19.2197 6.56178 17.5322 7.87428 16.6885C10.0305 15.1885 12.2805 14.5322 14.6243 14.626C16.593 14.5322 19.0305 15.2822 20.9055 15.9385Z" fill="#D19780"/>
<path opacity="0.28" d="M22.2223 23.6256C22.8612 21.6556 22.3012 19.709 20.9715 19.2777C19.6417 18.8465 18.0458 20.0939 17.4069 22.0639C16.768 24.0339 17.328 25.9805 18.6577 26.4117C19.9875 26.843 21.5834 25.5956 22.2223 23.6256Z" fill="white"/>
<path d="M10.8757 17.4375C10.8757 17.4375 11.3444 24.4687 15.1882 27C15.1882 27 9.75065 26.1562 8.7194 24.8437C7.68815 23.5312 6.00065 22.875 6.37565 19.7812C6.37565 19.7812 6.75065 16.875 9.37565 16.125L10.8757 17.4375Z" fill="#5077B5"/>
<path d="M9.37565 16.9688C9.37565 16.9688 8.43815 25.3125 14.5319 27.0938C14.5319 27.0938 9.0944 26.25 8.06315 24.9375C7.0319 23.625 5.3444 22.9688 5.7194 19.875C5.7194 19.875 6.0944 16.9687 8.7194 16.2188L9.37565 16.9688Z" fill="#B74F88"/>
<path d="M12 23.5313C12 23.5313 16.7812 25.7813 20.4375 25.0313C24.0937 24.2813 24.75 20.0625 24.75 20.0625C24.75 20.0625 25.875 25.125 22.875 26.9063C19.875 28.6875 14.3438 27 14.3438 27L12 23.5313Z" fill="#5077B5"/>
<path d="M7.3125 16.875C7.3125 16.875 8.0625 24.0938 10.7812 26.9063C10.7812 26.9063 7.78125 26.5312 7.125 25.3125L5.625 20.0625C5.625 20.0625 5.71875 18.5625 7.3125 16.875Z" fill="#CEB46B"/>
<path d="M18.6566 17.5312C18.6566 17.5312 19.4066 21.1875 16.8753 22.4062C14.3441 23.625 17.5316 29.5312 17.5316 29.5312C17.5316 29.5312 17.3441 25.7812 18.2816 25.0312C19.2191 24.375 26.2503 21 22.4066 15.1875C22.4066 15.2812 18.7503 16.7812 18.6566 17.5312Z" fill="#425763"/>
<path d="M24.35 10.0939C24.3686 4.96803 20.2703 0.797771 15.1962 0.779385C10.1221 0.760999 5.99361 4.90145 5.97504 10.0273C5.95646 15.1532 10.0548 19.3235 15.1289 19.3419C20.203 19.3603 24.3315 15.2198 24.35 10.0939Z" fill="#A67A65"/>
<path d="M23.9525 9.48447C23.9705 4.5139 19.9977 0.470017 15.0789 0.452194C10.1601 0.43437 6.15804 4.44936 6.14003 9.41992C6.12202 14.3905 10.0949 18.4344 15.0137 18.4522C19.9325 18.47 23.9345 14.455 23.9525 9.48447Z" fill="#E5A98C"/>
<path d="M23.8477 9.25383C23.8649 4.49037 20.1433 0.615288 15.5352 0.598591C10.927 0.581893 7.17742 4.4299 7.16016 9.19336C7.1429 13.9568 10.8645 17.8319 15.4727 17.8486C20.0808 17.8653 23.8304 14.0173 23.8477 9.25383Z" fill="#E5A98C"/>
<path d="M19.3333 10.3762C19.3459 6.90715 16.6278 4.08506 13.2623 4.07286C9.89683 4.06067 7.15838 6.86299 7.14581 10.332C7.13324 13.8011 9.85131 16.6232 13.2168 16.6354C16.5823 16.6476 19.3207 13.8452 19.3333 10.3762Z" fill="#E8CCAA"/>
<path d="M16.105 11.0335C16.1068 10.5157 15.7306 10.0946 15.2646 10.0929C14.7986 10.0912 14.4193 10.5096 14.4175 11.0273C14.4156 11.5451 14.7918 11.9662 15.2578 11.9679C15.7238 11.9696 16.1031 11.5512 16.105 11.0335Z" fill="#425763"/>
<path d="M15.5479 10.7201C15.5485 10.5648 15.465 10.4386 15.3614 10.4382C15.2579 10.4378 15.1735 10.5634 15.1729 10.7188C15.1723 10.8741 15.2558 11.0003 15.3594 11.0007C15.4629 11.0011 15.5473 10.8754 15.5479 10.7201Z" fill="white"/>
<path d="M9.45066 9.63111C9.45254 9.11335 9.0763 8.69225 8.61031 8.69056C8.14432 8.68887 7.76504 9.10723 7.76316 9.625C7.76129 10.1428 8.13753 10.5639 8.60352 10.5656C9.06951 10.5672 9.44879 10.1489 9.45066 9.63111Z" fill="#425763"/>
<path d="M12.9949 7.95788C12.9964 7.54367 12.7038 7.20682 12.3414 7.2055C11.9789 7.20419 11.6839 7.53891 11.6824 7.95312C11.6809 8.36734 11.9735 8.70419 12.3359 8.7055C12.6984 8.70682 12.9934 8.37209 12.9949 7.95788Z" fill="#B74F88"/>
<path d="M8.98539 9.22402C8.98596 9.06869 8.90247 8.94246 8.79891 8.94209C8.69536 8.94171 8.61096 9.06733 8.61039 9.22266C8.60983 9.37799 8.69332 9.50421 8.79687 9.50459C8.90043 9.50496 8.98483 9.37935 8.98539 9.22402Z" fill="white"/>
<path d="M13.4063 15.2812C13.4063 15.2812 12.5625 15.1875 12 14.7187C11.4375 14.25 10.7812 14.3438 10.6875 14.3438C10.5938 14.3438 10.4062 14.1562 10.2188 14.0625C10.0312 13.9688 9.75 13.9688 9.75 14.0625C9.75 14.1562 10.0313 14.625 10.0313 14.625C10.0313 14.625 10.125 15 10.0313 15.1875C9.9375 15.375 10.0312 16.0313 10.6875 16.125C11.3438 16.3125 11.8125 16.2188 12.0938 16.0313C12.375 15.8438 13.4063 15.2812 13.4063 15.2812Z" fill="#A67A65"/>
<path d="M13.9694 3.843C13.9694 3.843 12.7507 7.0305 14.6257 8.343C16.5007 9.6555 23.4382 12.7493 22.1257 16.218C22.1257 16.218 28.3132 8.99925 23.0632 3.74925C16.4069 -3.00075 13.9694 3.468 13.9694 3.843Z" fill="#425763"/>
<path d="M6.09451 10.6877C6.09451 10.6877 6.46951 6.93768 7.68826 6.56268C8.90701 6.18768 12.0945 7.31268 13.782 6.18768C13.782 6.18768 17.8133 1.68768 16.9695 0.843928C16.1258 0.000177532 12.7508 0.187678 10.407 1.40643C8.06326 2.62518 5.43826 5.90643 6.09451 10.6877Z" fill="#425763"/>
<path d="M16.7812 3.46824C16.7812 3.46824 15.0937 5.53074 16.6875 7.12449C18.2812 8.71824 22.3125 9.93699 23.3438 11.9995C23.3438 11.9995 24 4.21824 16.7812 3.46824ZM14.8125 2.24949C14.8125 2.24949 14.25 4.87449 12.8438 5.15574C11.4375 5.43699 7.6875 5.71824 7.6875 5.71824C7.6875 5.71824 11.3438 1.49949 14.8125 2.24949Z" fill="#5E6D72"/>
<path d="M8.8125 2.43689C8.8125 2.43689 22.5938 0.749389 25.3125 9.18689C25.3125 9.18689 25.5938 1.96814 17.25 0.186888C12.1875 -0.844362 8.8125 2.43689 8.8125 2.43689Z" fill="#B74F88"/>
</g>
<defs>
<clipPath id="clip0_52_64195">
<rect width="30" height="30" fill="white"/>
</clipPath>
</defs>
</svg>
