<svg width="20" height="20" viewBox="0 0 20 20" fill="none" xmlns="http://www.w3.org/2000/svg">
<path fill-rule="evenodd" clip-rule="evenodd" d="M5.31202 3.12461C3.64217 3.12461 1.87483 4.5795 1.87483 6.87433C1.87483 9.56163 3.84965 12.0539 6.0807 13.9763C7.29787 15.0176 8.60971 15.9428 9.9991 16.7398C11.3885 15.9428 12.7003 15.0176 13.9175 13.9763C16.1485 12.0539 18.1234 9.56163 18.1234 6.87433C18.1234 4.5795 16.356 3.12461 14.6862 3.12461C12.9701 3.12461 11.4252 4.35702 10.9003 6.19438C10.8442 6.39011 10.7259 6.56226 10.5633 6.68482C10.4008 6.80737 10.2027 6.87365 9.9991 6.87365C9.7955 6.87365 9.59743 6.80737 9.43485 6.68482C9.27226 6.56226 9.154 6.39011 9.09793 6.19438C8.57297 4.35702 7.02812 3.12461 5.31202 3.12461ZM9.9991 17.811L9.56789 18.6435L9.56539 18.6422L9.55789 18.6385L9.53539 18.626C9.40461 18.5581 9.27542 18.4873 9.14792 18.4135C7.62463 17.5463 6.18743 16.536 4.85581 15.3962C2.55602 13.4126 0 10.4366 0 6.87433C0 3.54458 2.60726 1.24975 5.31202 1.24975C7.2456 1.24975 8.94044 2.25218 9.9991 3.77456C11.0578 2.25218 12.7526 1.24975 14.6862 1.24975C17.3909 1.24975 19.9982 3.54458 19.9982 6.87433C19.9982 10.4366 17.4422 13.4126 15.1424 15.3962C13.6979 16.631 12.1297 17.7134 10.4628 18.626L10.4403 18.6385L10.4328 18.6422H10.4303L9.9991 17.811ZM9.9991 17.811L10.4303 18.6435C10.297 18.7123 10.1491 18.7482 9.9991 18.7482C9.84906 18.7482 9.7012 18.7123 9.56789 18.6435L9.9991 17.811Z" fill="#C9D1D9"/>
</svg>
