<svg width="150" height="42" viewBox="0 0 150 42" fill="none" xmlns="http://www.w3.org/2000/svg">
<g clip-path="url(#clip0_52_33812)">
<mask id="mask0_52_33812" style="mask-type:luminance" maskUnits="userSpaceOnUse" x="0" y="0" width="150" height="42">
<path d="M150 0H0.000244141V41.0625H150V0Z" fill="white"/>
</mask>
<g mask="url(#mask0_52_33812)">
<path d="M75.0632 1.5712C74.607 2.52713 73.8781 3.32662 72.9682 3.86888L75.9586 5.67661L74.2691 6.52134C74.2155 7.28001 73.958 8.01013 73.5239 8.6346C73.0897 9.25907 72.495 9.75472 71.8025 10.0692C71.1153 10.3405 70.3694 10.4286 69.6379 10.3249C68.9064 10.2213 68.2143 9.92939 67.6295 9.47791C66.5398 8.49802 64.3013 4.56156 64.3013 4.56156L69.4541 1.18263L72.2249 3.37893C72.4731 3.14826 72.6585 2.85811 72.7634 2.5359C72.8683 2.21369 72.8894 1.87004 72.8246 1.53742C73.6018 1.00523 74.4296 0.523735 75.1814 0C75.1844 0.527144 75.1363 1.05334 75.0378 1.5712" fill="#008C49"/>
<path d="M80.7315 29.8524C80.9108 30.222 80.9976 30.6297 80.9843 31.0402C80.9711 31.4508 80.8582 31.852 80.6555 32.2092C80.4231 32.5992 80.0792 32.9106 79.6682 33.1034C79.2571 33.2961 78.7978 33.3613 78.3494 33.2905C77.9529 33.2222 77.5806 33.0531 77.2682 32.7995C76.9559 32.546 76.7139 32.2164 76.5655 31.8425C76.4171 31.4685 76.3673 31.0627 76.4208 30.6639C76.4743 30.2652 76.6293 29.8868 76.8711 29.5652C77.1489 29.2035 77.5264 28.9308 77.9571 28.7807C78.3878 28.6306 78.853 28.6097 79.2955 28.7205C79.9113 28.9038 80.432 29.3186 80.7484 29.8778" fill="#008C49"/>
<path d="M12.8064 15.6023C12.8064 10.7028 10.6523 8.52344 5.82891 8.52344H0.000244141V32.176H4.46888V22.6812C5.06865 22.6812 5.66841 22.6812 6.09922 22.6051L8.92063 32.176H13.516L10.137 21.5661C11.4295 20.8988 12.874 19.3191 12.874 15.6023M4.46888 12.2825H5.63462C7.46769 12.2825 8.34621 12.7809 8.34621 15.6023C8.34621 18.4237 7.50148 18.9137 5.63462 18.9137H4.46888V12.2825Z" fill="black"/>
</g>
<path d="M18.5843 8.5231L14.2339 32.1756H18.5843L19.2769 27.0312H23.2134L23.923 32.1672H28.2734L23.9145 8.51465L18.5843 8.5231ZM22.5799 23.0863H19.9274L21.2452 14.7403L22.5799 23.0863Z" fill="black"/>
<mask id="mask1_52_33812" style="mask-type:luminance" maskUnits="userSpaceOnUse" x="0" y="0" width="150" height="46">
<path d="M150 0H0.000244141V45.4129H150V0Z" fill="white"/>
</mask>
<g mask="url(#mask1_52_33812)">
<path d="M35.8846 8.20312C32.1931 8.20312 29.8025 10.6275 29.8025 14.3781V26.3142C29.8025 30.0733 31.9904 32.4977 35.3693 32.4977H36.4843C39.8633 32.4977 42.0511 30.0733 42.0511 26.3142V19.9449H36.0535V23.5773H37.8275V25.5793C37.8275 28.0628 37.1179 28.5443 35.8846 28.5443C34.6513 28.5443 34.2711 27.8685 34.2711 26.348V14.4457C34.2711 12.1565 35.4115 12.1565 35.7917 12.1565C37.1094 12.1565 37.8275 12.8154 37.8275 16.2788V16.5153H42.1018V14.8258C42.1018 10.8134 39.6605 8.22847 35.8846 8.22847" fill="black"/>
<path d="M53.5142 20.8143L49.0202 8.52344H44.9148V32.176H48.9949V18.7109L53.7169 32.176H57.5942V8.52344H53.5142V20.8143Z" fill="black"/>
<path d="M96.6209 18.5846C94.8723 17.0978 93.3686 15.8138 93.3686 14.1835C93.3686 13.2543 93.6643 12.1477 95.1088 12.1477C95.6156 12.1477 96.7983 12.3758 96.9841 14.4876V14.741L101.258 14.268V14.023C100.87 10.4244 98.6651 8.19434 95.4974 8.19434C91.4258 8.19434 89.0943 10.3906 89.0943 14.2088C89.0943 18.027 91.6285 20.0291 93.7826 21.8621C95.5987 23.3826 97.1615 24.692 97.1615 26.6602C97.1615 27.8513 96.4097 28.5355 95.0919 28.5355C93.7741 28.5355 93.1068 27.3444 92.9632 25.2664V25.0045L88.7395 25.6212V25.8408C88.9507 30.4362 92.0171 32.4889 94.9483 32.4889C98.9861 32.4889 101.487 30.1236 101.487 26.3054C101.487 22.69 98.9523 20.5021 96.6547 18.5846" fill="black"/>
<path d="M107.704 21.9125H112.84V17.9591H107.704V12.4768H114.386V8.52344H103.244V32.176H114.833V28.2226H107.704V21.9125Z" fill="black"/>
<path d="M121.025 8.52344H116.557V32.176H126.305V28.2226H121.025V8.52344Z" fill="black"/>
<path d="M131.787 8.52344H127.327V32.176H137.075V28.2226H131.787V8.52344Z" fill="black"/>
<path d="M145.176 18.5846C143.428 17.0978 141.916 15.8138 141.916 14.1835C141.916 13.2543 142.22 12.1477 143.664 12.1477C144.171 12.1477 145.354 12.3758 145.54 14.4876V14.741L149.814 14.268V14.023C149.425 10.4244 147.221 8.19434 144.053 8.19434C139.981 8.19434 137.65 10.3906 137.65 14.2088C137.65 18.027 140.142 20.0291 142.338 21.8621C144.163 23.3826 145.717 24.692 145.717 26.6602C145.717 27.8513 144.965 28.5355 143.656 28.5355C142.346 28.5355 141.662 27.3444 141.519 25.2664V25.0045L137.253 25.6212V25.8408C137.464 30.4362 140.522 32.4889 143.461 32.4889C147.491 32.4889 149.991 30.1236 149.991 26.3054C149.991 22.69 147.457 20.5021 145.168 18.5846" fill="black"/>
</g>
<mask id="mask2_52_33812" style="mask-type:luminance" maskUnits="userSpaceOnUse" x="0" y="0" width="150" height="42">
<path d="M150 0H0.000244141V41.0625H150V0Z" fill="white"/>
</mask>
<g mask="url(#mask2_52_33812)">
<path d="M72.3347 15.1119C72.3959 17.3818 72.1832 19.6508 71.7012 21.8698C72.391 21.8482 73.0775 21.9733 73.7154 22.2369C74.3532 22.5005 74.9278 22.8965 75.4011 23.3988C76.44 24.491 77.2829 25.7541 77.8931 27.1325L74.9449 30.2665C74.1678 28.729 72.7064 26.8284 70.7213 26.8875C70.4363 26.89 70.1527 26.9269 69.8765 26.9973C69.2683 28.7206 68.0435 30.8662 65.957 31.0859C65.0104 31.2777 64.028 31.1815 63.1366 30.8096C62.2452 30.4377 61.4857 29.8071 60.9562 28.9994L60.5422 28.3236C60.9562 27.0227 61.218 25.8992 61.5897 24.5899C61.9276 25.4346 62.4851 26.7186 63.6002 26.8706C63.9785 26.9135 64.3605 26.8335 64.6899 26.6426C64.3162 26.2843 64.0419 25.8352 63.8938 25.3392C63.7457 24.8431 63.729 24.3172 63.8451 23.8127C64.3351 21.9036 67.317 11.5303 67.317 11.5303H74.5564C75.4518 11.5303 76.8118 11.7921 77.5721 14.6811L81.7957 27.8674C81.8074 27.9011 81.8311 27.9293 81.8623 27.9465C81.8935 27.9636 81.93 27.9686 81.9647 27.9603L86.7036 26.4483L87.1007 27.6985L82.3617 29.2021C82.2203 29.2498 82.0717 29.2727 81.9224 29.2697C81.6171 29.2694 81.3198 29.1718 81.0737 28.991C80.8276 28.8102 80.6456 28.5557 80.554 28.2644L76.3303 15.0782L72.3347 15.1119Z" fill="#008C49"/>
<path d="M88.2918 36.1035H61.6235V41.0621H88.2918V36.1035Z" fill="#FBB90F"/>
</g>
</g>
<defs>
<clipPath id="clip0_52_33812">
<rect width="149.999" height="41.0625" fill="white" transform="translate(0.000244141)"/>
</clipPath>
</defs>
</svg>
