<svg width="32" height="32" viewBox="0 0 32 32" fill="none" xmlns="http://www.w3.org/2000/svg">
<path d="M17.3333 21.333V22.6663C17.3333 23.7272 16.9119 24.7446 16.1618 25.4948C15.4116 26.2449 14.3942 26.6663 13.3333 26.6663H8C6.93913 26.6663 5.92172 26.2449 5.17157 25.4948C4.42143 24.7446 4 23.7272 4 22.6663V9.33301C4 8.27214 4.42143 7.25473 5.17157 6.50458C5.92172 5.75444 6.93913 5.33301 8 5.33301H13.3333C14.3942 5.33301 15.4116 5.75444 16.1618 6.50458C16.9119 7.25473 17.3333 8.27214 17.3333 9.33301V10.6663M22.6667 21.333L28 15.9997L22.6667 21.333ZM28 15.9997L22.6667 10.6663L28 15.9997ZM28 15.9997H9.33333H28Z" stroke="#FFBCBC" stroke-width="2" stroke-linecap="round" stroke-linejoin="round"/>
</svg>
