<svg width="78" height="67" viewBox="0 0 78 67" fill="none" xmlns="http://www.w3.org/2000/svg">
<path fill-rule="evenodd" clip-rule="evenodd" d="M6.5 22.2166V61.096H65V66.6502H6.5C2.90875 66.6502 0 64.1786 0 61.096V22.2166H6.5ZM74.8475 17.4677L45.5 1.7771L16.1525 17.4677C14.2675 18.4397 13 20.1893 13 22.2166V49.9875C13 53.0424 15.925 55.5417 19.5 55.5417H71.5C75.075 55.5417 78 53.0424 78 49.9875V22.2166C78 20.1893 76.7325 18.4397 74.8475 17.4677ZM71.5 49.9876H19.5V27.7708L45.5 41.6563L71.5 27.7708V49.9876ZM45.5 36.1021L19.5 22.2166L45.5 8.33111L71.5 22.2166L45.5 36.1021Z" fill="#D9D9D9"/>
</svg>
