<svg width="30" height="30" viewBox="0 0 30 30" fill="none" xmlns="http://www.w3.org/2000/svg">
<g clip-path="url(#clip0_52_64445)">
<path d="M4.96875 11.1562C4.96875 11.1562 6.1875 17.7188 5.0625 21L8.71875 18.6562L8.15625 13.125L4.96875 11.1562ZM23.4375 22.7812C23.4375 22.7812 27.375 13.4063 22.9688 6.09375L19.2188 12.5625L19.6875 20.5313L23.4375 22.7812Z" fill="#77315B"/>
<path d="M19.7818 18.4697C21.6568 19.126 23.3443 20.626 23.9068 22.7822C24.4693 25.0322 23.7193 27.6572 21.9381 28.9697C20.8131 29.8135 19.4068 30.001 18.0943 30.001C14.9068 30.001 11.8131 28.9697 8.6256 27.8447C7.59435 27.4697 6.46935 27.0947 5.53185 26.4385C4.59435 25.7822 3.84435 24.751 3.65685 23.4385C3.46935 21.751 4.5006 19.9697 5.8131 19.126C8.15685 17.626 10.5006 16.9697 12.9381 17.0635C15.2818 17.0635 17.8131 17.8135 19.7818 18.4697Z" fill="#77315B"/>
<path d="M22.2188 6.375C22.2188 6.375 27 14.3437 21.6563 19.5L17.8125 17.5313L22.2188 6.375Z" fill="#425763"/>
<path d="M20.0631 17.3447C21.9381 18.001 23.6256 19.501 24.1881 21.6572C24.7506 23.9072 24.0006 26.5322 22.2193 27.8447C21.0943 28.6885 19.6881 28.876 18.3756 28.876C15.1881 28.876 12.0943 27.8447 8.90685 26.7197C7.8756 26.3447 6.7506 25.9697 5.8131 25.3135C4.8756 24.6572 4.1256 23.626 3.9381 22.3135C3.7506 20.626 4.78185 18.8447 6.09435 18.001C8.4381 16.501 10.7818 15.8447 13.2193 15.9385C15.4693 15.9385 18.0943 16.6885 20.0631 17.3447Z" fill="#B74F88"/>
<path d="M19.688 15.9385C21.4692 16.5947 22.1255 18.751 22.688 20.9072C23.2505 23.1572 23.438 25.2197 21.8442 26.4385C20.813 27.2822 19.5005 27.4697 18.2817 27.4697C15.2817 27.4697 12.2817 26.4385 9.37545 25.3135C8.3442 24.9385 7.4067 24.5635 6.4692 23.9072C5.62545 23.251 4.87545 22.2197 4.68795 20.9072C4.50045 19.2197 5.43795 17.4385 6.75045 16.5947C8.9067 15.0947 11.1567 14.4385 13.5005 14.5322C15.4692 14.5322 17.813 15.2822 19.688 15.9385Z" fill="#D19780"/>
<path opacity="0.28" d="M21.07 23.5885C21.7089 21.6185 21.1489 19.6719 19.8191 19.2406C18.4894 18.8094 16.8935 20.0568 16.2545 22.0267C15.6156 23.9967 16.1756 25.9434 17.5054 26.3746C18.8351 26.8059 20.4311 25.5585 21.07 23.5885Z" fill="white"/>
<path d="M9.75065 17.4375C9.75065 17.4375 10.2194 24.4687 14.0632 27C14.0632 27 8.62565 26.1562 7.5944 24.8437C6.56315 23.5312 4.87565 22.875 5.25065 19.7812C5.25065 19.7812 5.62565 16.875 8.25065 16.125L9.75065 17.4375Z" fill="#5077B5"/>
<path d="M8.25065 16.9688C8.25065 16.9688 7.31315 25.3125 13.4069 27.0938C13.4069 27.0938 7.9694 26.25 6.93815 24.9375C5.9069 23.625 4.2194 22.9688 4.5944 19.875C4.5944 19.875 4.9694 16.9687 7.5944 16.2188L8.25065 16.9688Z" fill="#B74F88"/>
<path d="M10.875 23.5313C10.875 23.5313 15.6562 25.7813 19.3125 25.0313C22.9688 24.2813 23.625 20.0625 23.625 20.0625C23.625 20.0625 24.75 25.125 21.75 26.9063C18.75 28.6875 13.125 26.9063 13.125 26.9063L10.875 23.5313Z" fill="#5077B5"/>
<path d="M6.09375 16.875C6.09375 16.875 6.84375 24.0938 9.5625 26.9063C9.5625 26.9063 6.5625 26.5312 5.90625 25.3125L4.5 20.0625C4.5 20.0625 4.5 18.5625 6.09375 16.875Z" fill="#CEB46B"/>
<path d="M17.5318 17.5313C17.5318 17.5313 20.813 20.1563 18.188 21.4688C15.6568 22.7813 19.4068 28.7813 19.4068 28.7813C19.4068 28.7813 17.8131 25.125 18.7506 24.4688C19.6881 23.8125 25.1256 21.0938 21.1881 15.2812C21.1881 15.2812 17.6256 16.7813 17.5318 17.5313Z" fill="#425763"/>
<path d="M23.186 10.1467C23.2045 5.02077 19.1062 0.850505 14.0321 0.832119C8.95799 0.813733 4.82955 4.95418 4.81097 10.0801C4.7924 15.206 8.89073 19.3762 13.9648 19.3946C19.039 19.413 23.1674 15.2726 23.186 10.1467Z" fill="#A67A65"/>
<path d="M22.7885 9.4454C22.8065 4.47484 18.8336 0.430954 13.9148 0.413131C8.99605 0.395308 4.99398 4.4103 4.97597 9.38086C4.95796 14.3514 8.93082 18.3953 13.8496 18.4131C18.7684 18.431 22.7705 14.416 22.7885 9.4454Z" fill="#E5A98C"/>
<path d="M22.6836 9.21476C22.7009 4.45131 18.9792 0.576228 14.3711 0.55953C9.76297 0.542833 6.01336 4.39084 5.9961 9.1543C5.97884 13.9178 9.70047 17.7928 14.3086 17.8095C18.9167 17.8262 22.6663 13.9782 22.6836 9.21476Z" fill="#E5A98C"/>
<path d="M18.1692 10.4309C18.1818 6.96184 15.4637 4.13974 12.0983 4.12755C8.73277 4.11535 5.99431 6.91768 5.98174 10.3867C5.96917 13.8558 8.68725 16.6779 12.0527 16.69C15.4182 16.7022 18.1567 13.8999 18.1692 10.4309Z" fill="#E8CCAA"/>
<path d="M14.9409 11.0881C14.9428 10.5704 14.5665 10.1493 14.1005 10.1476C13.6346 10.1459 13.2553 10.5643 13.2534 11.082C13.2515 11.5998 13.6278 12.0209 14.0938 12.0226C14.5597 12.0243 14.939 11.6059 14.9409 11.0881Z" fill="#425763"/>
<path d="M14.3838 10.681C14.3844 10.5257 14.3009 10.3995 14.1974 10.3991C14.0938 10.3987 14.0094 10.5244 14.0088 10.6797C14.0083 10.835 14.0918 10.9612 14.1953 10.9616C14.2989 10.962 14.3833 10.8364 14.3838 10.681Z" fill="white"/>
<path d="M8.2866 9.59205C8.28848 9.07429 7.91224 8.65318 7.44625 8.65149C6.98026 8.64981 6.60098 9.06817 6.5991 9.58594C6.59722 10.1037 6.97346 10.5248 7.43945 10.5265C7.90544 10.5282 8.28472 10.1098 8.2866 9.59205Z" fill="#425763"/>
<path d="M11.8308 8.01257C11.8323 7.59836 11.5397 7.2615 11.1773 7.26019C10.8149 7.25888 10.5198 7.5936 10.5183 8.00781C10.5168 8.42203 10.8094 8.75888 11.1719 8.76019C11.5343 8.7615 11.8293 8.42678 11.8308 8.01257Z" fill="#B74F88"/>
<path d="M7.82133 9.2787C7.82189 9.12337 7.7384 8.99715 7.63485 8.99677C7.5313 8.9964 7.44689 9.12201 7.44633 9.27734C7.44577 9.43267 7.52926 9.5589 7.63281 9.55927C7.73637 9.55965 7.82077 9.43403 7.82133 9.2787Z" fill="white"/>
<path d="M12.2813 15.2812C12.2813 15.2812 11.4375 15.1875 10.875 14.7187C10.3125 14.25 9.65625 14.3438 9.5625 14.3438C9.46875 14.3438 9.28125 14.1562 9.09375 14.0625C8.90625 13.9688 8.625 13.9688 8.625 14.0625C8.625 14.1562 8.90625 14.625 8.90625 14.625C8.90625 14.625 9 15 8.90625 15.1875C8.8125 15.375 8.90625 16.0313 9.5625 16.125C10.2188 16.2188 10.6875 16.2188 10.9688 16.0313C11.25 15.8438 12.2813 15.2812 12.2813 15.2812Z" fill="#A67A65"/>
<path d="M12.7507 3.843C12.7507 3.843 11.5319 7.0305 13.4069 8.343C15.2819 9.6555 22.2194 12.7493 20.9069 16.218C20.9069 16.218 27.0944 8.99925 21.8444 3.74925C15.2819 -3.00075 12.8444 3.468 12.7507 3.843Z" fill="#425763"/>
<path d="M4.87566 10.6877C4.87566 10.6877 5.25066 6.93768 6.46941 6.56268C7.68816 6.18768 10.8757 7.31268 12.5632 6.18768C12.5632 6.18768 16.5944 1.68768 15.7507 0.843928C15.0007 0.000177532 11.5319 0.187678 9.28191 1.40643C7.03191 2.62518 4.31316 5.90643 4.87566 10.6877Z" fill="#425763"/>
<path d="M15.6563 3.46824C15.6563 3.46824 13.9688 5.53074 15.5625 7.12449C17.1563 8.71824 21.1875 9.93699 22.2188 11.9995C22.2188 11.9995 22.875 4.21824 15.6563 3.46824ZM13.6875 2.24949C13.6875 2.24949 13.125 4.87449 11.7188 5.15574C10.3125 5.43699 6.46875 5.71824 6.46875 5.71824C6.46875 5.71824 10.125 1.49949 13.6875 2.24949Z" fill="#5E6D72"/>
<path d="M7.6875 2.43689C7.6875 2.43689 21.4687 0.749389 24.1875 9.18689C24.1875 9.18689 24.4688 1.96814 16.125 0.186888C10.9688 -0.844362 7.6875 2.43689 7.6875 2.43689Z" fill="#B74F88"/>
<path d="M21.8442 24.4693C22.0317 24.4693 24.3755 24.4693 26.063 27.0943C26.5317 27.8443 26.2505 28.7818 25.5005 29.1568C23.9067 29.9068 20.9067 30.938 17.6255 29.1568C16.9692 28.7818 16.5942 27.6568 17.063 27.0005C17.9067 25.7818 19.4067 24.3755 21.8442 24.4693Z" fill="#425763"/>
<path d="M21.8435 25.0309C22.031 25.0309 23.9998 25.0309 25.4998 27.0934C25.8748 27.6559 25.6873 28.4059 25.031 28.6871C23.6248 29.3434 21.0935 29.9996 18.1873 28.5934C17.6248 28.3121 17.4373 27.4684 17.8123 26.9996C18.4685 26.0621 19.6873 24.9371 21.8435 25.0309Z" fill="#A2B6BA"/>
<path d="M21.844 25.1257C22.0315 25.1257 23.6253 25.1257 24.844 26.8132C25.1253 27.2819 25.0315 27.9382 24.469 28.1257C23.344 28.5944 21.2815 29.2507 18.9378 28.0319C18.469 27.7507 18.2815 27.1882 18.6565 26.7194C19.0315 25.9694 20.0628 25.0319 21.844 25.1257Z" fill="#87999B"/>
<path d="M21.4688 27.75C24.8342 27.75 27.5625 25.0217 27.5625 21.6562C27.5625 18.2908 24.8342 15.5625 21.4688 15.5625C18.1033 15.5625 15.375 18.2908 15.375 21.6562C15.375 25.0217 18.1033 27.75 21.4688 27.75Z" fill="#425763"/>
<path d="M21.4687 26.9062C24.4718 26.9062 26.9062 24.4718 26.9062 21.4687C26.9062 18.4657 24.4718 16.0312 21.4687 16.0312C18.4657 16.0312 16.0312 18.4657 16.0312 21.4687C16.0312 24.4718 18.4657 26.9062 21.4687 26.9062Z" fill="#A2B6BA"/>
<path d="M21.6563 25.9688C24.4004 25.9688 26.625 23.7442 26.625 21C26.625 18.2558 24.4004 16.0312 21.6563 16.0312C18.9121 16.0312 16.6875 18.2558 16.6875 21C16.6875 23.7442 18.9121 25.9688 21.6563 25.9688Z" fill="#CBDEE4"/>
<path d="M24.375 20.625C24.9963 20.625 25.5 20.1213 25.5 19.5C25.5 18.8787 24.9963 18.375 24.375 18.375C23.7537 18.375 23.25 18.8787 23.25 19.5C23.25 20.1213 23.7537 20.625 24.375 20.625Z" fill="#425763"/>
<path d="M24.4688 20.0625C24.8312 20.0625 25.125 19.7687 25.125 19.4063C25.125 19.0438 24.8312 18.75 24.4688 18.75C24.1063 18.75 23.8125 19.0438 23.8125 19.4063C23.8125 19.7687 24.1063 20.0625 24.4688 20.0625Z" fill="#4ED154"/>
<path d="M20.4375 19.0312C20.4375 19.0312 20.7188 17.0625 22.2188 16.3125C22.4062 16.2187 22.4062 16.0312 22.125 16.0312H21.8437C21.6562 16.0312 19.9688 16.125 19.4062 19.125L20.4375 19.0312Z" fill="#A2B6BA"/>
<path d="M23.2723 22.2633C23.2793 20.3476 21.8578 18.7894 20.0974 18.783C18.337 18.7767 16.9043 20.3245 16.8973 22.2402C16.8904 24.156 18.3119 25.7142 20.0723 25.7205C21.8327 25.7269 23.2654 24.1791 23.2723 22.2633Z" fill="#425763"/>
<path d="M22.654 22.1056C22.6593 20.6558 21.5722 19.4766 20.2261 19.4717C18.8799 19.4668 17.7843 20.6381 17.779 22.0879C17.7738 23.5376 18.8608 24.7168 20.207 24.7217C21.5532 24.7266 22.6488 23.5553 22.654 22.1056Z" fill="#3587C4"/>
<path d="M22.1914 22.0052C22.1957 20.8143 21.2758 19.8456 20.1367 19.8415C18.9976 19.8373 18.0707 20.7994 18.0664 21.9902C18.0621 23.1811 18.982 24.1498 20.1211 24.154C21.2602 24.1581 22.1871 23.196 22.1914 22.0052Z" fill="#4DA3EC"/>
<path d="M21.295 20.9845C21.2961 20.6739 21.0452 20.4211 20.7345 20.42C20.4239 20.4189 20.1711 20.6698 20.17 20.9805C20.1689 21.2911 20.4198 21.5439 20.7305 21.545C21.0411 21.5461 21.2939 21.2952 21.295 20.9845Z" fill="white"/>
<path d="M21.5618 17.5313L22.3118 16.7813C22.4056 16.6875 22.5931 16.6875 22.6868 16.6875C22.9681 16.7812 23.5306 16.9688 24.1868 17.3438C24.5618 17.5313 24.3743 18.1875 23.9056 18.0938L21.8431 18.1875C21.5618 18.2813 21.3743 17.8125 21.5618 17.5313Z" fill="#E1F0F4"/>
</g>
<defs>
<clipPath id="clip0_52_64445">
<rect width="30" height="30" fill="white"/>
</clipPath>
</defs>
</svg>
