<svg width="323" height="226" viewBox="0 0 323 226" fill="none" xmlns="http://www.w3.org/2000/svg">
<path d="M322.174 124.134C312.338 117.677 317.225 157.04 301.883 164.314C288.026 168.944 288.826 148.16 276.248 137.696C267.364 130.305 265.422 148.143 257.448 146.057C234.711 140.109 239.496 1.50324 213.941 1.50324C188.386 1.50324 203.997 69.4456 190.203 86.1372C179.86 98.6535 175.95 63.8847 162.004 68.0227C145.49 72.9217 144.484 123.595 126.213 134.91C111.405 144.081 108.161 113.214 95.844 130.729C84.3501 147.073 82.7252 180.282 73.0673 179.501C66.3184 178.955 64.919 165.855 56.4167 168.944C50.1896 171.207 48.7511 177.283 44.1444 176.713C35.0548 175.589 32.3623 137.613 25.3447 133.516C19.3795 130.032 13.3136 155.901 1.48366 225.485" stroke="#F6841B" stroke-width="3"/>
</svg>
