<svg width="30" height="30" viewBox="0 0 30 30" fill="none" xmlns="http://www.w3.org/2000/svg">
<g clip-path="url(#clip0_52_40893)">
<path d="M19.2188 19.2188C19.2188 19.2188 22.2188 18.4688 23.1563 16.875L20.0625 15.9375L19.2188 19.2188Z" fill="#858585"/>
<path d="M14.3441 2.62572C14.3441 2.62572 10.9691 0.844466 8.62532 1.59447C6.28157 2.34447 1.78157 9.37572 6.56282 13.3132L6.65657 13.407C11.6253 17.3445 13.5003 7.03197 13.5003 7.03197L14.3441 2.62572Z" fill="#8E8686"/>
<path d="M14.1561 3.65648C14.1561 3.65648 11.6248 1.50023 9.28106 2.25023C6.93731 2.90648 2.90606 9.37523 7.59356 12.9377L7.68731 13.0315C12.6561 16.594 14.5311 7.21898 14.5311 7.21898L14.1561 3.65648Z" fill="#B8B8B8"/>
<path d="M6.75013 10.3125C6.75013 10.3125 4.31263 11.1562 4.59388 12.8437C4.87513 14.5312 5.81263 17.625 9.65638 17.625L10.0314 15.2812L6.75013 10.3125Z" fill="#8E8686"/>
<path d="M7.50033 9.5625C7.50033 9.5625 4.96908 10.5938 5.25033 12.2813C5.53158 13.9688 6.84408 17.3438 10.6878 17.3438L11.0628 15L7.50033 9.5625Z" fill="#B8B8B8"/>
<path d="M7.87468 27.1861C6.18718 26.2486 5.43718 24.0923 6.28093 21.9361C6.56218 21.1861 8.15593 19.3111 8.62468 18.9361C10.1247 17.8111 16.2184 17.0611 21.0934 20.6236C21.9372 21.2798 22.5934 22.3111 22.8747 23.6236V23.7173C23.5309 26.9986 22.4059 29.6236 19.4997 29.6236C16.1247 29.6236 10.7809 28.7798 7.87468 27.1861Z" fill="#7B7F79"/>
<path d="M7.31218 26.8117C5.62468 25.7804 4.87468 23.4367 5.71843 21.0929C5.99968 20.2492 7.59343 18.1867 8.06218 17.8117C9.56218 16.5929 15.6559 15.7492 20.5309 19.5929C21.3747 20.3429 22.0309 21.4679 22.3122 22.8742V22.9679C22.9684 26.6242 21.8434 29.4367 18.9372 29.4367C15.5622 29.4367 10.2184 28.5929 7.31218 26.8117Z" fill="#7B7F79"/>
<path d="M8.06218 26.2505C6.37468 25.313 5.62468 23.1568 6.46843 21.0005C6.74968 20.2505 8.34343 18.3755 8.81218 18.0005C10.3122 16.8755 16.4059 16.1255 21.2809 19.688C22.1247 20.3443 22.7809 21.3755 23.0622 22.688V22.7818C23.7184 26.063 22.5934 28.688 19.6872 28.688C16.3122 28.5943 10.8747 27.7505 8.06218 26.2505Z" fill="#C8CEC6"/>
<path d="M8.15644 24.2807C6.65644 23.5307 7.12519 21.8432 7.96894 19.9682C8.25019 19.312 8.90644 18.7495 9.37519 18.4682C10.7814 17.5307 16.2189 16.687 20.7189 19.687C21.5627 20.2495 22.1252 21.0932 22.4064 22.1245V22.2182C22.9689 24.937 21.0002 27.3745 18.5627 26.9995C15.4689 26.5307 10.7814 25.4995 8.15644 24.2807Z" fill="#D1D1D1"/>
<path d="M8.06235 24.2821C6.74985 23.5321 8.1561 22.6883 8.81235 20.9071C9.0936 20.2508 10.4061 18.9383 10.7811 18.6571C11.9998 17.7196 14.9061 16.7821 18.8436 19.7821C19.5936 20.3446 20.0623 21.1883 20.2498 22.2196V22.3133C20.7186 25.0321 19.4061 27.0946 17.3436 26.7196C14.5311 26.2508 10.3123 25.5008 8.06235 24.2821Z" fill="#EBEBEB"/>
<path d="M17.8125 19.5937C17.8125 19.5937 18.6562 22.2187 16.6875 23.25C16.6875 23.25 21.5625 23.8125 22.875 23.0625C22.875 23.0625 23.3438 20.25 19.4063 18.9375L17.8125 19.5937ZM9.5625 18C9.5625 18 8.53125 18.75 7.5 20.4375L8.625 21.0937L8.90625 21.375C8.90625 21.375 9.65625 19.6875 10.875 19.0312L9.5625 18Z" fill="#EBEBEB"/>
<path d="M7.68797 19.9688C7.68797 19.9688 9.00048 23.1563 22.7817 22.9688L21.4692 26.3438C21.4692 26.3438 17.9067 27 13.1255 25.875C8.53173 24.75 6.18797 24.2812 7.68797 19.9688Z" fill="#C8CEC6"/>
<path d="M7.12504 21.2806C7.21879 20.9993 7.59378 20.8118 7.87503 20.9993C8.90628 21.6556 11.625 23.0618 17.3438 23.7181C18.6563 23.8118 20.4375 23.8118 22.6875 23.2493C22.6875 23.2493 22.7813 23.7181 22.6875 24.3743C22.4063 25.9681 20.9063 27.1868 19.4063 27.1868C17.5313 27.1868 15.6563 27.0931 13.0313 26.4368C8.62503 25.4993 6.18754 25.0306 7.12504 21.2806Z" fill="#F4F4F4"/>
<path d="M23.4606 12.1086C23.4771 7.55227 19.7968 3.84523 15.2405 3.82872C10.6841 3.81221 6.97707 7.49248 6.96056 12.0488C6.94405 16.6052 10.6243 20.3122 15.1807 20.3287C19.737 20.3452 23.444 16.665 23.4606 12.1086Z" fill="#595959"/>
<path d="M23.0995 11.4881C23.1157 7.03532 19.519 3.41254 15.0662 3.3964C10.6134 3.38027 6.99066 6.97689 6.97453 11.4297C6.95839 15.8825 10.555 19.5053 15.0078 19.5214C19.4606 19.5375 23.0834 15.9409 23.0995 11.4881Z" fill="#D1D1D1"/>
<path d="M23.0122 11.3258C23.0276 7.08015 19.6822 3.62617 15.5401 3.61116C11.398 3.59615 8.02761 7.02579 8.01223 11.2715C7.99685 15.5172 11.3422 18.9712 15.4844 18.9862C19.6265 19.0012 22.9968 15.5715 23.0122 11.3258Z" fill="#DBDBDB"/>
<path d="M18.8573 12.3773C18.8686 9.27069 16.4432 6.74348 13.4402 6.73259C10.4371 6.72171 7.99355 9.23129 7.9823 12.3379C7.97104 15.4445 10.3964 17.9717 13.3994 17.9826C16.4025 17.9935 18.846 15.4839 18.8573 12.3773Z" fill="#EBEBEB"/>
<path d="M16.0509 12.9429C16.0526 12.4769 15.7182 12.098 15.304 12.0965C14.8898 12.095 14.5526 12.4715 14.5509 12.9375C14.5492 13.4035 14.8836 13.7825 15.2979 13.784C15.7121 13.7855 16.0492 13.4089 16.0509 12.9429Z" fill="#595959"/>
<path d="M15.6325 12.6537C15.6329 12.5502 15.5492 12.4659 15.4457 12.4655C15.3421 12.4651 15.2579 12.5488 15.2575 12.6523C15.2571 12.7559 15.3408 12.8401 15.4443 12.8405C15.5479 12.8409 15.6321 12.7573 15.6325 12.6537Z" fill="white"/>
<path d="M9.99232 11.9195C9.994 11.4535 9.65959 11.0745 9.24537 11.073C8.83116 11.0715 8.494 11.4481 8.49232 11.9141C8.49063 12.3801 8.82504 12.759 9.23926 12.7605C9.65347 12.762 9.99063 12.3855 9.99232 11.9195Z" fill="#595959"/>
<path d="M9.57392 11.6303C9.5743 11.5267 9.49065 11.4425 9.3871 11.4421C9.28355 11.4417 9.1993 11.5254 9.19892 11.6289C9.19855 11.7325 9.28219 11.8167 9.38574 11.8171C9.4893 11.8175 9.57355 11.7338 9.57392 11.6303Z" fill="white"/>
<path d="M10.2187 26.1567C10.2187 26.1567 11.25 25.9692 11.9062 25.1254C11.9062 25.1254 12.1875 26.5317 13.125 26.8129L10.2187 26.1567ZM18.9375 25.7817C18.9375 25.7817 19.2188 26.6254 18.9375 27.5629H20.1562C20.1562 27.5629 19.875 25.7817 18.75 24.3754L18.9375 25.7817ZM7.78125 23.3442C7.78125 23.3442 7.59375 24.0942 7.875 24.8442L6.84375 24.9379C6.84375 24.9379 6.9375 24.0942 7.3125 23.2504C7.40625 22.8754 7.78125 22.9692 7.78125 23.3442Z" fill="#C8CEC6"/>
<path d="M12.8439 24.75C12.8439 24.75 16.4064 24.0937 18.0939 25.125C18.0939 25.125 18.5626 25.875 18.0939 26.0625C17.6251 26.25 14.4376 24.75 12.8439 25.2187C12.8439 25.2187 12.4689 24.8437 12.8439 24.75ZM7.96886 22.9688C7.96886 22.9688 10.5939 23.0625 11.6251 24.0938C11.6251 24.0938 11.8126 24.75 11.5314 24.75C11.2501 24.8437 9.18761 23.25 7.96886 23.3437C7.87511 23.3437 7.68761 23.0625 7.96886 22.9688Z" fill="white"/>
<path d="M20.1562 12.9365C20.1562 12.9365 21.0937 12.374 21.4687 12.8428C22.2187 13.5928 21.5625 14.7178 20.1562 14.9053V12.9365Z" fill="#DBDBDB"/>
<path d="M13.6875 16.3125C13.6875 16.3125 12.9375 16.2187 12.375 15.75C11.8125 15.375 11.3438 15.375 11.25 15.375C11.1563 15.375 10.9688 15.1875 10.7813 15.0938C10.5938 15 10.3125 15 10.3125 15.0938C10.3125 15.1875 10.5 15.5625 10.5 15.5625V16.125C10.5 16.3125 10.5 16.875 11.0625 16.9688C11.625 17.0625 12 17.0625 12.2813 16.875C12.6563 16.9687 13.6875 16.3125 13.6875 16.3125Z" fill="#6E6E6E"/>
<path d="M12.375 21.5625C12.375 21.5625 12.1875 23.0625 9.18747 22.875C6.18748 22.6875 7.03122 20.625 7.03122 20.625L12.375 21.5625Z" fill="#C8CEC6"/>
<path d="M18.0002 23.0625C18.0002 23.0625 17.7189 24.5625 14.0627 24.375C10.4064 24.1875 11.5314 22.2188 11.5314 22.2188L18.0002 23.0625ZM20.5314 19.7813C20.5314 19.7813 22.1252 20.4375 22.3127 23.1563H23.0627C23.0627 23.1563 22.9689 20.5312 20.8127 19.5L20.5314 19.7813Z" fill="#C8CEC6"/>
<path d="M17.6246 22.4062C17.6246 22.4062 17.4371 23.9062 14.5309 23.7187C11.6246 23.4375 12.4684 21.5625 12.4684 21.5625L17.6246 22.4062Z" fill="#EBEBEB"/>
<path d="M12.1875 21C12.1875 21 12.5625 22.4062 9.6562 22.125C6.74995 21.8437 7.7812 19.875 7.7812 19.875L12.1875 21Z" fill="#EBEBEB"/>
<path d="M11.625 22.2188C11.625 22.2188 12 21.375 12.75 20.7188C12.75 20.7188 12.2813 21.6562 12.2813 22.3125L11.625 22.2188Z" fill="#C8CEC6"/>
<path d="M10.3124 19.9687L10.8749 20.25C11.0624 20.3438 11.1562 20.625 11.1562 20.8125C11.1562 21 10.9687 21.1875 10.7812 21.375C10.5937 21.4687 10.4062 21.5625 10.1249 21.5625C9.74991 21.5625 9.46866 21.4688 9.09366 21.2813C8.81241 21.0938 8.34366 20.5313 8.71866 20.1563C9.09366 19.6875 9.84366 19.875 10.3124 19.9687Z" fill="white"/>
<path d="M15.5624 21.375L16.1249 21.6563C16.3124 21.75 16.4062 22.0313 16.4062 22.2188C16.4062 22.4063 16.2187 22.5937 16.0312 22.7812C15.8437 22.875 15.6562 22.9688 15.3749 22.9688C14.9999 22.9688 14.7187 22.875 14.3437 22.6875C14.0624 22.5 13.5937 21.9375 13.9687 21.5625C14.3437 21.0938 15.0937 21.2812 15.5624 21.375Z" fill="white"/>
<path d="M17.4375 7.03104L15.6563 6.65604C15.6563 6.65604 15.2812 2.81229 10.3125 3.37479C10.3125 3.37479 12 1.12479 14.3438 1.59354C16.6875 2.06229 18.2812 4.12479 17.8125 5.15604C17.3438 6.18729 17.4375 7.03104 17.4375 7.03104Z" fill="#858585"/>
<path d="M16.0312 6.56204C16.0312 6.56204 17.9062 4.87454 17.3438 3.84329C16.7812 2.81204 14.4375 1.21829 11.8125 2.24954L10.125 3.09329C10.125 3.09329 12 0.56204 13.5937 0.18704C15.1875 -0.18796 20.4375 -0.000460163 22.0312 2.15579C23.625 4.21829 23.1562 7.40579 21.5625 8.71829C19.9688 10.0308 16.4062 6.93704 16.0312 6.56204Z" fill="#858585"/>
<path d="M15.8438 6.74914C15.8438 6.74914 17.5313 5.15539 17.0625 4.21789C16.5938 3.28039 14.3438 1.78039 12 2.81164L10.3125 3.46789C10.3125 3.46789 12.0937 1.12414 13.5 0.749139C14.9062 0.374139 19.7813 0.655389 21.2813 2.53039C22.7813 4.40539 22.3125 7.40539 20.9062 8.62414C19.5 9.84289 16.125 7.12414 15.8438 6.74914Z" fill="#D4D4D4"/>
<path d="M19.5002 8.71934C19.5002 8.71934 20.7189 5.25059 22.9689 5.71934C25.2189 6.18809 27.4689 10.6881 24.8439 13.6881C24.8439 13.6881 22.8752 15.3756 23.3439 16.5943C23.3439 16.5943 23.7189 16.9693 24.6564 16.6881C24.6564 16.6881 23.5314 17.2506 22.3127 17.2506C21.0939 17.2506 18.0939 15.2818 18.6564 12.6568L19.5002 8.71934Z" fill="#858585"/>
<path d="M18.0942 8.25059C18.0942 8.25059 19.313 4.78184 21.563 5.25059C23.813 5.71934 26.063 10.2193 23.438 13.2193C23.438 13.2193 21.4692 14.9068 21.938 16.1256C21.938 16.1256 21.8442 17.0631 22.688 16.8756C22.688 16.8756 21.8442 17.1568 20.6255 17.1568C19.4067 17.1568 16.688 15.0006 17.2505 12.3756L18.0942 8.25059Z" fill="#D4D4D4"/>
<path d="M17.7188 15.0938C17.7188 15.0938 18.1875 18.2812 20.9062 18.1875C23.625 18.0937 24.6562 16.6875 24.6562 16.6875C24.6562 16.6875 23.5313 17.25 21.1875 16.7812C18.75 16.4062 17.7188 15.0938 17.7188 15.0938Z" fill="#858585"/>
<path d="M17.9062 6.65561C17.9062 6.65561 19.125 2.81186 14.625 1.96811L13.2188 2.06186C13.2188 2.06186 15.75 0.374362 19.2187 2.53061C22.4062 4.49936 20.8125 6.56186 20.8125 6.56186C20.8125 6.56186 18.75 7.03061 17.9062 6.65561ZM19.125 8.81186C19.125 8.81186 21 7.31186 22.125 7.78061C23.25 8.24936 24.1875 9.74936 22.875 11.2494C21.5625 12.7494 20.625 14.3431 21.0937 15.5619C21.0937 15.5619 18.8437 13.4056 19.0312 11.9994C19.2187 10.5931 19.7812 9.46811 19.125 8.81186Z" fill="#F0F0F0"/>
<path d="M21.1873 19.875C21.1873 19.875 20.2498 21.4687 20.2498 23.4375H18.5623C18.5623 23.4375 19.0311 21.4687 20.8123 19.5937L21.1873 19.875ZM9.56234 22.4062C9.56234 22.4062 6.74984 21.0937 9.46859 18H9.09359C9.09359 18 6.93734 19.7812 7.12484 21.1875C7.21859 22.7812 9.56234 22.4062 9.56234 22.4062Z" fill="#C8CEC6"/>
<path d="M16.5938 27.4688L16.2188 27.9375L17.8125 29.0625L27 19.9688L25.5 18.0938L16.5938 27.4688Z" fill="#9A4C18"/>
<path d="M27.1871 22.5938C26.9059 26.1563 23.5309 29.25 19.7809 29.25C16.1246 29.25 13.7809 26.1563 14.4371 22.6875C15.0934 19.4063 18.2809 16.7813 21.5621 16.7813C24.9371 16.5938 27.4684 19.125 27.1871 22.5938Z" fill="#9A4C18"/>
<path d="M28.1248 23.7194C27.8435 27.1882 24.5623 30.0944 20.906 30.0007C17.3435 30.0007 14.9998 27.0944 15.656 23.7194C16.3123 20.5319 19.406 18.0944 22.5935 18.0944C25.8748 18.0007 28.406 20.4382 28.1248 23.7194Z" fill="#9A4C18"/>
<path d="M17.625 27.75L19.125 28.5938L26.625 20.7188L25.4063 19.125L17.625 27.75Z" fill="#F49937"/>
<path d="M27.3752 23.7178C27.094 26.624 24.3752 29.1553 21.3752 29.0615C18.3752 29.0615 16.4065 26.5303 16.969 23.7178C17.5315 20.999 20.0627 18.8428 22.7815 18.8428C25.594 18.749 27.6565 20.9053 27.3752 23.7178Z" fill="#F49937"/>
<path d="M26.3433 22.5009C26.0621 25.5946 23.1558 28.3134 19.8746 28.3134C16.6871 28.3134 14.6246 25.6884 15.1871 22.5946C15.7496 19.6884 18.5621 17.4384 21.4683 17.3446C24.4683 17.2509 26.6246 19.5009 26.3433 22.5009Z" fill="#FFEDC0"/>
<path d="M25.969 22.7803C25.6877 25.6865 22.969 28.2178 19.969 28.124C16.969 28.124 15.0002 25.5928 15.5627 22.7803C16.1252 20.0615 18.6565 17.9053 21.3752 17.9053C24.1877 17.8115 26.2502 19.9678 25.969 22.7803Z" fill="#FFD766"/>
<path d="M24.8435 22.7812C24.5622 25.0312 22.4997 26.9062 20.156 26.9062C17.8122 26.9062 16.3122 25.0312 16.6872 22.7812C17.0622 20.625 19.1247 18.9375 21.281 18.9375C23.4372 18.9375 25.031 20.5312 24.8435 22.7812Z" fill="#FFEDC0"/>
<path d="M24.8438 22.2186C24.5626 24.4686 22.5001 26.3436 20.1563 26.3436C17.9063 26.3436 16.3126 24.4686 16.7813 22.3123C17.1563 20.1561 19.2188 18.5623 21.2813 18.4686C23.5313 18.3748 25.1251 20.0623 24.8438 22.2186Z" fill="#F49937"/>
<path d="M24.1877 22.7813C24.0002 24.6563 22.2189 26.25 20.2502 26.25C18.2814 26.25 17.0627 24.6563 17.3439 22.7813C17.6252 21 19.4064 19.5 21.1877 19.5C23.0627 19.5 24.3752 20.9063 24.1877 22.7813Z" fill="#FFD766"/>
<path d="M21.75 19.125L22.2188 21.1875L24.4688 21.75L22.4062 23.1563L22.2188 25.5937L20.4375 24.1875L18 25.0313L19.0312 22.7812L17.8125 21H20.1562L21.75 19.125Z" fill="#F49937"/>
</g>
<defs>
<clipPath id="clip0_52_40893">
<rect width="30" height="30" fill="white"/>
</clipPath>
</defs>
</svg>
