<svg width="23" height="20" viewBox="0 0 23 20" fill="none" xmlns="http://www.w3.org/2000/svg">
<path d="M10.35 15.3333C10.35 15.5367 10.2692 15.7317 10.1254 15.8754C9.98167 16.0192 9.78667 16.1 9.58333 16.1H6.9C6.69667 16.1 6.50166 16.0192 6.35789 15.8754C6.21411 15.7317 6.13333 15.5367 6.13333 15.3333C6.13333 15.13 6.21411 14.935 6.35789 14.7912C6.50166 14.6474 6.69667 14.5667 6.9 14.5667H9.58333C9.78667 14.5667 9.98167 14.6474 10.1254 14.7912C10.2692 14.935 10.35 15.13 10.35 15.3333ZM16.1 14.5667H13.4167C13.2133 14.5667 13.0183 14.6474 12.8746 14.7912C12.7308 14.935 12.65 15.13 12.65 15.3333C12.65 15.5367 12.7308 15.7317 12.8746 15.8754C13.0183 16.0192 13.2133 16.1 13.4167 16.1H16.1C16.3033 16.1 16.4983 16.0192 16.6421 15.8754C16.7859 15.7317 16.8667 15.5367 16.8667 15.3333C16.8667 15.13 16.7859 14.935 16.6421 14.7912C16.4983 14.6474 16.3033 14.5667 16.1 14.5667ZM23 19.1667C23 19.37 22.9192 19.565 22.7754 19.7088C22.6317 19.8526 22.4367 19.9333 22.2333 19.9333H0.766667C0.563334 19.9333 0.368329 19.8526 0.224551 19.7088C0.0807735 19.565 0 19.37 0 19.1667C0 18.9633 0.0807735 18.7683 0.224551 18.6246C0.368329 18.4808 0.563334 18.4 0.766667 18.4H2.3V6.9C2.3 6.75762 2.33965 6.61805 2.4145 6.49694C2.48935 6.37582 2.59646 6.27795 2.7238 6.21427C2.85115 6.1506 2.99371 6.12364 3.13552 6.13643C3.27732 6.14922 3.41276 6.20124 3.52667 6.28667L8.43333 9.96667V6.9C8.43333 6.75762 8.47298 6.61805 8.54783 6.49694C8.62269 6.37582 8.72979 6.27795 8.85714 6.21427C8.98448 6.1506 9.12705 6.12364 9.26885 6.13643C9.41066 6.14922 9.5461 6.20124 9.66 6.28667L13.3687 9.07542L14.4804 1.31292C14.5333 0.948819 14.7153 0.615877 14.9933 0.374849C15.2713 0.13382 15.6267 0.000777912 15.9946 0H17.7388C18.1067 0.000777912 18.462 0.13382 18.74 0.374849C19.018 0.615877 19.2 0.948819 19.2529 1.31292L20.6904 11.3946C20.6969 11.4063 20.7002 11.4195 20.7 11.4329V18.3808H22.2333C22.3356 18.3808 22.4369 18.4012 22.5312 18.441C22.6255 18.4807 22.7109 18.5389 22.7823 18.6121C22.8538 18.6854 22.9099 18.7721 22.9472 18.8674C22.9846 18.9626 23.0026 19.0644 23 19.1667ZM14.7679 10.12L15.5921 10.7333H19.0517L17.7388 1.53333H15.9946L14.7679 10.12ZM3.83333 18.4H19.1667V12.2667H15.3333C15.1679 12.264 15.0073 12.2105 14.8733 12.1133L13.4933 11.0783L9.96667 8.43333V11.5C9.96667 11.6424 9.92702 11.7819 9.85217 11.9031C9.77731 12.0242 9.67021 12.1221 9.54286 12.1857C9.41552 12.2494 9.27295 12.2764 9.13115 12.2636C8.98934 12.2508 8.8539 12.1988 8.74 12.1133L3.83333 8.43333V18.4Z" fill="#3E4B65"/>
</svg>
