<svg width="30" height="30" viewBox="0 0 30 30" fill="none" xmlns="http://www.w3.org/2000/svg">
<g clip-path="url(#clip0_52_73931)">
<path d="M16.875 3.74948C16.875 3.74948 11.4375 -2.43802 1.5 1.21823C1.5 1.21823 1.96875 11.062 16.875 3.74948Z" fill="#1D3A0A"/>
<path d="M15.375 3.93847C15.375 3.93847 10.9688 -0.65528 3 2.06347C3 2.06347 3.375 9.28222 15.375 3.93847Z" fill="#2A6900"/>
<path d="M13.9688 4.31198C13.9688 4.31198 19.4062 -1.87552 29.3438 1.78073C29.3438 1.78073 28.875 11.5307 13.9688 4.31198Z" fill="#1D3A0A"/>
<path d="M15.4688 4.40722C15.4688 4.40722 19.875 -0.18653 27.8438 2.53222C27.8438 2.62597 27.4688 9.75097 15.4688 4.40722Z" fill="#2A6900"/>
<path d="M15.8433 29.2501C15.8433 29.2501 21.3746 27.5626 24.4683 24.6564C27.5621 21.7501 31.4996 17.4376 29.4371 10.6876C27.3746 3.93762 22.1246 2.43762 15.6558 3.93762C15.6558 3.93762 4.49956 0.375117 1.49956 10.3126C-1.50044 20.2501 7.03081 26.3439 15.8433 29.2501Z" fill="#7E1406"/>
<path d="M15.8444 27.0936C15.8444 27.0936 20.9069 25.5936 23.8131 23.0624C26.7194 20.5311 30.2819 16.6874 28.4069 10.7811C26.5319 4.78111 21.6569 3.56236 15.7506 4.78111C15.7506 4.78111 5.53187 1.68736 2.71937 10.4061C-0.0931323 19.1249 7.68812 24.5624 15.8444 27.0936Z" fill="#CC5037"/>
<path d="M15.7491 25.031C15.7491 25.031 20.1553 23.7185 22.6866 21.5623C25.2178 19.406 28.3116 16.1248 26.7178 11.0623C25.1241 5.99978 20.8116 4.87478 15.6553 5.99978C15.6553 5.99978 6.74909 3.28103 4.31159 10.781C1.87409 18.281 8.71784 22.781 15.7491 25.031Z" fill="#EA5A42"/>
<path d="M15.8438 6.09375C15.8438 6.09375 22.5938 15.6562 16.0313 26.4375C16.0313 26.4375 26.0625 17.0625 15.8438 6.09375Z" fill="#7E1406"/>
<path d="M8.06178 6.00042C8.06178 6.00042 11.4368 4.50042 13.7805 5.62542C16.1243 6.75042 18.093 13.4067 17.0618 17.1567C16.0305 20.9067 8.24928 21.4692 5.71803 17.7192C3.18678 13.9692 3.28054 9.28167 8.06178 6.00042ZM19.1243 6.65667C19.1243 6.65667 21.3743 5.06292 23.718 6.28167C26.0618 7.50042 28.3118 12.0004 27.9368 14.6254C27.5618 17.2504 24.7493 19.1254 23.2493 18.5629C21.7493 18.0004 23.718 10.3129 19.1243 6.65667Z" fill="#E5775A"/>
<path d="M8.34297 7.31165C8.34297 7.31165 11.343 6.2804 12.9367 7.2179C14.5305 8.1554 14.9992 10.8741 14.5305 12.2804C14.0617 13.6866 13.218 15.9366 10.3117 14.9991C7.40547 13.9679 5.99922 11.9991 5.99922 11.9991C5.99922 11.9991 5.81172 8.1554 8.34297 7.31165ZM22.8742 7.68665C22.8742 7.68665 23.8117 6.56165 24.6555 7.0304C25.4992 7.49915 26.2492 9.2804 26.343 10.4054C26.4367 11.5304 26.6242 13.2179 25.3117 12.8429C23.9992 12.4679 22.968 11.2491 22.968 11.2491C22.968 11.2491 22.0305 8.5304 22.8742 7.68665Z" fill="#F99987"/>
<path d="M10.5934 28.3125C5.71843 33.6562 -6.84407 25.6875 8.06218 12.375C8.15593 12.375 15.5622 22.9688 10.5934 28.3125Z" fill="#636363"/>
<path d="M9.5617 27.4687C5.53045 32.3437 -3.9383 25.6875 8.0617 13.4062C8.0617 13.4062 13.4992 22.5937 9.5617 27.4687Z" fill="#AAAAAA"/>
<path d="M8.06239 14.8125C8.06239 14.8125 11.5311 22.0312 8.62488 26.1562C5.71863 30.2813 -0.656365 25.2188 8.06239 14.8125Z" fill="#E8E8E8"/>
<path d="M6.09333 21.7498C6.09333 21.7498 6.74958 20.9998 7.68708 21.4686C8.62458 21.9373 9.46833 21.7498 9.09333 23.2498C8.71833 24.6561 8.53083 26.9998 7.21833 25.7811C5.90583 24.4686 5.43708 22.8748 6.09333 21.7498Z" fill="#F7F7F7"/>
</g>
<defs>
<clipPath id="clip0_52_73931">
<rect width="30" height="30" fill="white"/>
</clipPath>
</defs>
</svg>
