<svg width="30" height="30" viewBox="0 0 30 30" fill="none" xmlns="http://www.w3.org/2000/svg">
<g clip-path="url(#clip0_52_68918)">
<path d="M15.75 9.84375L17.0625 14.8125L14.625 16.3125L11.1562 13.7812L15.75 9.84375ZM25.875 12.5625C25.875 17.8125 21.6562 22.0312 16.4063 22.0312C14.7188 22.0312 13.125 21.5625 11.7188 20.8125C11.625 20.7188 11.4375 20.625 11.25 20.5312H11.0625L10.9688 20.4375L9.46875 22.125L11.8125 24.1875L9.65625 26.5312L7.03125 24.6562L5.25 26.7188L3.46875 25.4062L4.96875 22.3125L2.625 20.25L4.78125 17.8125L7.125 19.875L8.71875 18.0937C8.71875 18 8.625 18 8.625 17.9063L8.53125 17.8125C7.5 16.2188 6.9375 14.4375 6.9375 12.4688C6.9375 7.21875 11.1562 3 16.4063 3C21.6562 3 25.875 7.3125 25.875 12.5625ZM22.9688 12.5625C22.9688 8.90625 19.9688 5.90625 16.3125 5.90625C12.6562 5.90625 9.65625 8.90625 9.65625 12.5625C9.65625 16.2188 12.6562 19.2188 16.3125 19.2188C19.9688 19.2188 22.9688 16.2188 22.9688 12.5625Z" fill="#754B68"/>
<path d="M24.1875 10.6875C24.1875 16.0312 19.875 20.3438 14.5312 20.3438C12.8438 20.3438 11.1562 19.875 9.75 19.0312C9.65625 18.9375 9.46875 18.8438 9.28125 18.75L9.09375 18.6562L7.78125 20.1562L10.125 22.2188L7.78125 24.8438L5.4375 22.7812L3.375 25.125L0.75 22.7812L2.8125 20.4375L0.46875 18.375L2.8125 15.75L5.25 17.8125L6.65625 16.2187L6.5625 16.125C5.4375 14.5312 4.875 12.6562 4.875 10.7812C4.875 5.4375 9.1875 1.125 14.5312 1.125C19.875 1.125 24.1875 5.34375 24.1875 10.6875ZM21 10.6875C21 7.125 18.0938 4.21875 14.5312 4.21875C10.9688 4.21875 8.0625 7.125 8.0625 10.6875C8.0625 14.25 10.9688 17.1562 14.5312 17.1562C18.0938 17.1562 21 14.25 21 10.6875Z" fill="#EA9FC6"/>
<path d="M3.375 24.6562L1.21875 22.6875L3.28125 20.3438L0.9375 18.2812L2.90625 16.125L5.25 18.1875L7.03125 16.125C6.9375 16.0313 6.84375 15.9375 6.84375 15.8438C5.8125 14.3438 5.25 12.5625 5.25 10.5938C5.25 5.4375 9.46875 1.21875 14.625 1.21875C19.7812 1.21875 24 5.4375 24 10.5938C24 15.75 19.7812 19.9688 14.625 19.9688C12.9375 19.9688 11.3438 19.5 9.9375 18.75C9.84375 18.6562 9.65625 18.5625 9.46875 18.4688H9.375C9.28125 18.375 9.1875 18.375 9.09375 18.2812L7.40625 20.1562L9.75 22.2188L7.78125 24.375L5.4375 22.3125L3.375 24.6562ZM14.5312 3.9375C10.7812 3.9375 7.6875 7.03125 7.6875 10.6875C7.6875 14.4375 10.7812 17.4375 14.5312 17.4375C18.2812 17.4375 21.375 14.3438 21.375 10.6875C21.375 6.9375 18.2812 3.9375 14.5312 3.9375ZM3.46875 25.5L3.84375 25.0313L5.53125 23.1563L7.40625 24.8438L7.875 25.2188L8.25 24.75L10.0312 23.3438L11.8125 24L10.2188 21.75L8.34375 20.0625L9.28125 19.0312C9.46875 19.125 9.5625 19.2188 9.65625 19.3125C11.1562 20.1563 12.8438 20.625 14.625 20.625C20.0625 20.625 24.5625 16.2188 24.5625 10.6875C24.5625 5.15625 19.9688 0.75 14.5312 0.75C9.09375 0.75 4.59375 5.25 4.59375 10.6875C4.59375 12.6562 5.15625 14.5312 6.28125 16.2188L5.25 17.4375L3.375 15.75L2.90625 15.375L2.53125 15.8438L0.5625 18L0.1875 18.4688L0.65625 18.75L2.53125 20.4375L0.84375 22.3125L0.46875 22.7812L0.9375 23.1563L3.09375 25.125L3.46875 25.5ZM14.5312 4.5C18 4.5 20.7188 7.3125 20.7188 10.6875C20.7188 14.0625 17.9062 16.875 14.5312 16.875C11.1562 16.875 8.34375 14.0625 8.34375 10.6875C8.34375 7.3125 11.1562 4.5 14.5312 4.5Z" fill="#754B68"/>
<path d="M19.3125 15.5625C19.3125 15.5625 21.9375 13.2188 21.2813 9.5625L23.7187 8.625C23.7187 8.625 24.75 11.9063 22.5 15.5625H19.3125Z" fill="#EA9FC6"/>
<path d="M2.4375 18.4688L7.875 23.3438L8.71875 22.4062L2.90625 17.3438L2.0625 18.2812L2.4375 18.4688ZM7.5 13.9688C7.40625 13.9688 7.40625 14.0625 7.3125 14.0625C7.125 14.25 6.9375 14.4375 6.65625 14.625C4.3125 8.625 8.4375 5.0625 8.4375 5.0625C6.5625 9.09375 6.84375 12 7.5 13.9688ZM11.625 17.7188C19.0312 20.1562 22.5 14.3438 22.7812 13.875C19.125 20.7188 13.7812 19.9688 10.7812 18.75C11.0625 18.4688 11.4375 18.0938 11.625 17.7188Z" fill="#FFDCF0"/>
<path d="M6.09375 16.3125L8.90625 13.125L9.375 13.875L6.375 16.875L6.09375 16.3125ZM8.4375 19.125L11.25 15.9375L11.625 16.6875L8.71875 19.6875L8.4375 19.125ZM19.875 12.9375L16.4062 15.2812C16.4062 15.2812 15.4688 14.9062 15.1875 13.875L18.4688 11.25C18.4688 11.25 19.5938 11.9062 19.875 12.9375ZM14.7188 7.875L12.1875 10.5C12.1875 10.5 11.4375 10.3125 11.1562 9.375L13.5 6.46875C13.6875 6.5625 14.5312 6.9375 14.7188 7.875ZM19.4063 10.125L15.5625 13.2188C15.5625 13.2188 14.625 12.8437 14.3438 11.9062L17.9062 8.53125C18 8.625 19.125 9.09375 19.4063 10.125ZM17.5313 8.34375L14.1562 11.5312C14.1562 11.5312 13.3125 11.25 13.0312 10.3125L16.2187 6.84375C16.2187 6.9375 17.3438 7.3125 17.5313 8.34375Z" fill="#754B68"/>
<path d="M12 13.2188L13.875 13.875L14.4375 12.8437C14.4375 12.8437 13.3125 11.0625 10.6875 9.9375C10.6875 9.9375 9.75 10.7812 9.1875 11.9062C9.1875 11.9062 9.28125 13.0312 9.75 13.9687L9.5625 14.5312L6.75 15.8437L9.46875 19.3125L11.9063 16.3125C11.9063 16.3125 12.6563 16.125 13.3125 16.2187C13.9688 16.3125 14.4375 16.125 14.4375 16.125C14.4375 16.125 15.1875 15.375 15.0938 14.9062L12 13.4062V13.2188Z" fill="#754B68"/>
<path d="M19.4063 12L15.9375 14.3438C15.9375 14.3438 15 13.9688 14.7188 12.9375L18 10.3125C18 10.4062 19.125 10.9688 19.4063 12Z" fill="#EA9FC6"/>
<path d="M14.25 7.03125L11.7188 9.65625C11.7188 9.65625 10.9688 9.46875 10.6875 8.53125L13.0312 5.625C13.125 5.71875 14.0625 6.09375 14.25 7.03125Z" fill="#EA9FC6"/>
<path d="M18.9375 9.28125L15.0938 12.375C15.0938 12.375 14.1562 12 13.875 11.0625L17.4375 7.6875C17.4375 7.6875 18.6563 8.25 18.9375 9.28125Z" fill="#EA9FC6"/>
<path d="M17.0625 7.5L13.6875 10.6875C13.6875 10.6875 12.8438 10.4063 12.5625 9.46875L15.75 6C15.75 6.09375 16.7813 6.46875 17.0625 7.5Z" fill="#EA9FC6"/>
<path d="M11.5313 12.375L13.4063 13.0312L13.9688 12C13.9688 12 12.8438 10.2188 10.2187 9.09375C10.2187 9.09375 9.28125 9.9375 8.71875 11.0625C8.71875 11.0625 8.8125 12.1875 9.28125 13.125L9.09375 13.6875L7.6875 15.75L9.46875 17.7188L11.5313 15.5625C11.5313 15.5625 12.2813 15.375 12.9375 15.4688C13.5938 15.5625 14.0625 15.375 14.0625 15.375C14.0625 15.375 14.8125 14.625 14.7188 14.1563L11.625 12.6563L11.5313 12.375Z" fill="#EA9FC6"/>
<path d="M19.4063 12L15.9375 14.3438C15.9375 14.3438 15 13.9688 14.7188 12.9375L18 10.3125C18 10.4062 19.125 10.9688 19.4063 12Z" fill="#EA9FC6" stroke="#754B68" stroke-width="0.731531" stroke-miterlimit="10"/>
<path d="M14.25 7.03125L11.7188 9.65625C11.7188 9.65625 10.9688 9.46875 10.6875 8.53125L13.0312 5.625C13.125 5.71875 14.0625 6.09375 14.25 7.03125Z" fill="#EA9FC6" stroke="#754B68" stroke-width="0.731531" stroke-miterlimit="10"/>
<path d="M18.9375 9.28125L15.0938 12.375C15.0938 12.375 14.1562 12 13.875 11.0625L17.4375 7.6875C17.4375 7.6875 18.6563 8.25 18.9375 9.28125Z" fill="#EA9FC6" stroke="#754B68" stroke-width="0.731531" stroke-miterlimit="10"/>
<path d="M17.0625 7.5L13.6875 10.6875C13.6875 10.6875 12.8438 10.4063 12.5625 9.46875L15.75 6C15.75 6.09375 16.7813 6.46875 17.0625 7.5Z" fill="#EA9FC6" stroke="#754B68" stroke-width="0.731531" stroke-miterlimit="10"/>
<path d="M11.5312 12.375L13.4062 13.0312L13.9687 12C13.9687 12 12.8437 10.2188 10.2187 9.09375C10.2187 9.09375 9.28125 9.9375 8.71875 11.0625C8.71875 11.0625 8.8125 12.1875 9.28125 13.125L8.90625 13.6875L7.03125 15.9375L9.375 18.0937L11.7188 15.75C11.7188 15.75 12.1875 15.5625 12.8438 15.6563C13.5 15.75 13.9687 15.5625 13.9687 15.5625C13.9687 15.5625 14.7188 14.8125 14.625 14.3438L11.5312 12.8437V12.375Z" fill="#EA9FC6" stroke="#754B68" stroke-width="0.731531" stroke-miterlimit="10"/>
<path d="M9.9375 15V12.8438L5.15625 18.2812L7.40625 20.1562L11.7188 15.2812L9.9375 15Z" fill="#EA9FC6"/>
<path d="M2.4375 22.5938L3.5625 23.3437L10.2187 15.75L9.5625 14.9062L2.4375 22.5938ZM12 11.1562L10.5 10.2187L9.84375 11.1562L11.9062 11.5312L12 11.1562ZM18.1875 12L17.8125 11.3438L16.5 12.5625L16.875 12.8437L18.1875 12ZM17.9062 9.28125L17.5312 8.625L16.125 9.84375L16.5 10.2187L17.9062 9.28125ZM16.2187 7.40625L15.75 6.84375L14.625 8.15625L15 8.53125L16.2187 7.40625ZM13.5938 6.9375L13.2188 6.375L12.375 7.5L12.6562 7.78125L13.5938 6.9375Z" fill="#FFDCF0"/>
<path d="M15.75 25.5937L15.2812 26.1562L17.25 27.4687L28.3125 16.4062L26.5313 14.1562L15.75 25.5937Z" fill="#9A4C18"/>
<path d="M28.5945 19.5939C28.2195 24.0001 24.1883 27.6564 19.5945 27.6564C15.0945 27.6564 12.282 23.9064 13.1258 19.6876C13.9695 15.6564 17.7195 12.5626 21.7508 12.4689C25.8758 12.3751 28.9695 15.4689 28.5945 19.5939Z" fill="#9A4C18"/>
<path d="M29.7196 20.9064C29.3446 25.0314 25.4071 28.5939 21.0008 28.5939C16.5946 28.5939 13.8758 25.0314 14.7196 21.0002C15.4696 17.1564 19.2196 14.1564 23.1571 14.1564C27.0008 14.0627 30.0008 17.0627 29.7196 20.9064Z" fill="#9A4C18"/>
<path d="M16.9688 25.875L18.8438 26.9063L27.9375 17.3438L26.4375 15.375L16.9688 25.875Z" fill="#F49937"/>
<path d="M28.7819 21.0005C28.4069 24.563 25.1256 27.563 21.4694 27.563C17.8131 27.563 15.4694 24.563 16.1256 21.0942C16.7819 17.813 19.8756 15.188 23.2506 15.0942C26.6256 15.0005 29.1569 17.6255 28.7819 21.0005Z" fill="#F49937"/>
<path d="M27.6572 19.5C27.2822 23.3437 23.8134 26.5312 19.7822 26.5312C15.8447 26.5312 13.4072 23.25 14.0634 19.5937C14.7197 16.0312 18.0947 13.3125 21.6572 13.2188C25.3134 13.2188 27.9384 15.9375 27.6572 19.5Z" fill="#FFEDC0"/>
<path d="M27.0944 19.7812C26.7194 23.3438 23.4381 26.3438 19.7819 26.3438C16.1256 26.3438 13.7819 23.3438 14.4381 19.875C15.0944 16.5938 18.1881 13.9688 21.5631 13.875C24.9381 13.875 27.4694 16.4063 27.0944 19.7812Z" fill="#FFD766"/>
<path d="M25.6877 19.7804C25.4064 22.4992 22.8752 24.8429 20.0627 24.8429C17.2502 24.8429 15.3752 22.4992 15.9377 19.8742C16.4064 17.2492 18.8439 15.1867 21.4689 15.1867C24.0939 15.0929 25.9689 17.1554 25.6877 19.7804Z" fill="#FFEDC0"/>
<path d="M25.7817 19.125C25.5005 21.8437 22.9692 24.0938 20.1567 24.0938C17.3442 24.0938 15.563 21.8437 16.0317 19.125C16.5005 16.5937 18.938 14.5312 21.563 14.5312C24.0942 14.5312 26.063 16.5 25.7817 19.125Z" fill="#F49937"/>
<path d="M24.9375 19.7813C24.6562 22.125 22.5 24 20.1562 24C17.8125 24 16.2187 22.0313 16.5937 19.7813C16.9687 17.625 19.0312 15.8438 21.2812 15.8438C23.5312 15.8438 25.2187 17.625 24.9375 19.7813Z" fill="#FFD766"/>
<path d="M21.9375 15.4688L22.5938 17.9063L25.3125 18.6562L22.7812 20.3438L22.5938 23.25L20.3438 21.5625L17.4375 22.5938L18.6563 19.875L17.1562 17.7187L20.0625 17.625L21.9375 15.4688Z" fill="#F49937"/>
</g>
<defs>
<clipPath id="clip0_52_68918">
<rect width="30" height="30" fill="white"/>
</clipPath>
</defs>
</svg>
