<svg width="30" height="30" viewBox="0 0 30 30" fill="none" xmlns="http://www.w3.org/2000/svg">
<g clip-path="url(#clip0_52_42336)">
<path d="M6.1875 2.34375L26.4375 0L26.1562 1.5H27.1875L27.0937 2.8125H27.9375L27.8438 3.46875H29.0625L25.4062 28.9688L0.65625 26.1562L6.1875 2.34375Z" fill="#8E4964"/>
<path d="M24.6563 27.375L1.6875 25.5937L6.75 3.46875L27.75 4.3125L24.6563 27.375Z" fill="#FFDEF5"/>
<path d="M24.0938 26.7188L1.875 24.9375L6.9375 2.90625L27.1875 3.5625L24.0938 26.7188Z" fill="#9EB1BA"/>
<path d="M23.4375 25.3125L2.53125 25.0313L7.5 3L26.5312 2.15625L23.4375 25.3125Z" fill="#D6DFE5"/>
<path d="M22.5938 24.0938L1.78125 24.9375L6.84375 2.90625L25.6875 0.9375L22.5938 24.0938Z" fill="#FFDEF5"/>
<path d="M21 22.0312L4.03125 22.7812L8.15625 4.78125L23.5312 3.1875L21 22.0312Z" fill="white"/>
<path d="M21.75 23.0625L2.90625 23.8125L7.5 3.84375L24.5625 2.0625L21.75 23.0625Z" fill="white"/>
<path d="M1.21875 25.5L22.2188 25.3125L22.5938 24.0938L1.40625 24.9375L1.21875 25.5Z" fill="#8E4964"/>
<path d="M22.2188 25.3125H23.4375L26.4375 0L25.7812 0.84375L22.2188 25.3125Z" fill="#8E4964"/>
<path d="M7.96875 4.6875L6.375 12L14.25 11.3438L15.4688 3.9375L7.96875 4.6875Z" fill="#AEFFF5"/>
<path d="M16.2187 3.9375L15.0938 11.25L22.5 10.6875L23.7187 3.28125L16.2187 3.9375Z" fill="#B7C6CE"/>
<path d="M6.28125 12.75L4.03125 22.7812L21 22.0313L22.2188 11.625L6.28125 12.75Z" fill="#FFA9E0"/>
<mask id="mask0_52_42336" style="mask-type:luminance" maskUnits="userSpaceOnUse" x="4" y="11" width="19" height="12">
<path d="M6.28125 12.75L4.03125 22.7812L21 22.0313L22.2188 11.625L6.28125 12.75Z" fill="white"/>
</mask>
<g mask="url(#mask0_52_42336)">
<path d="M12.9184 15.9441C14.0434 14.7278 14.1235 12.9723 13.0972 12.0231C12.071 11.0739 10.327 11.2904 9.20204 12.5067C8.07703 13.723 7.99698 15.4785 9.02323 16.4277C10.0495 17.3769 11.7934 17.1604 12.9184 15.9441Z" fill="#8E4964"/>
<path d="M22.8706 15.5203C23.9956 14.304 24.0756 12.5485 23.0494 11.5993C22.0231 10.6501 20.2792 10.8666 19.1542 12.0829C18.0292 13.2992 17.9491 15.0547 18.9754 16.0039C20.0016 16.9531 21.7456 16.7366 22.8706 15.5203Z" fill="#8E4964"/>
<path d="M12.0938 13.5945C12.0938 13.5945 13.5 11.6258 16.3125 11.532C19.125 11.4383 21.1875 13.782 20.8125 16.9695L12.0938 13.5945Z" fill="#8E4964"/>
<path d="M12.5431 16.4427C13.5978 15.3025 13.6517 13.6371 12.6634 12.723C11.6752 11.809 10.0191 11.9923 8.96438 13.1326C7.90968 14.2729 7.85582 15.9383 8.84406 16.8523C9.8323 17.7664 11.4884 17.583 12.5431 16.4427Z" fill="#8E4964"/>
<path d="M22.5792 15.8998C23.6339 14.7595 23.6878 13.0941 22.6996 12.18C21.7113 11.266 20.0552 11.4494 19.0005 12.5896C17.9458 13.7299 17.8919 15.3953 18.8802 16.3094C19.8684 17.2234 21.5246 17.04 22.5792 15.8998Z" fill="#8E4964"/>
<path d="M12 14.157C12 14.157 13.4062 12.1883 16.2187 12.0945C19.0312 12.0008 21.0938 14.3445 20.7188 17.532L12 14.157Z" fill="#8E4964"/>
<path d="M10.2188 19.5004C10.2188 17.6254 11.3438 15.7504 13.125 14.8129C13.875 14.4379 14.7187 14.1567 15.75 14.1567C19.9688 13.9692 20.7188 16.4067 20.7188 18.0004C20.7188 19.5942 19.2188 24.4692 15.4688 24.9379C12.0938 25.1254 10.3125 23.1567 10.2188 19.5004Z" fill="#8E4964"/>
<path d="M12.8153 16.0152C13.7997 14.9509 13.8582 13.4042 12.946 12.5604C12.0337 11.7167 10.4962 11.8954 9.51187 12.9597C8.52749 14.024 8.46899 15.5707 9.38122 16.4145C10.2934 17.2582 11.8309 17.0795 12.8153 16.0152Z" fill="#8E4964"/>
<path d="M12.5488 13.3596C12.5707 12.9979 12.002 12.6689 11.2784 12.625C10.5549 12.581 9.95047 12.8386 9.92848 13.2004C9.9065 13.5622 10.4752 13.8911 11.1988 13.9351C11.9224 13.9791 12.5268 13.7214 12.5488 13.3596Z" fill="#8E4964"/>
<path d="M22.5673 15.3375C23.5516 14.2732 23.6101 12.7265 22.6979 11.8827C21.7857 11.039 20.2482 11.2177 19.2638 12.282C18.2794 13.3462 18.2209 14.893 19.1332 15.7367C20.0454 16.5805 21.5829 16.4017 22.5673 15.3375Z" fill="#8E4964"/>
<path d="M10.5938 19.2196C10.5938 17.4383 11.625 15.5633 13.4062 14.7196C14.0625 14.3446 14.9062 14.0633 15.9375 14.0633C19.9688 13.8758 20.7188 16.2196 20.7188 17.7196C20.7188 19.2196 19.3125 24.0008 15.6563 24.3758C12.375 24.6571 10.5938 22.7821 10.5938 19.2196Z" fill="#8E4964"/>
<path d="M10.875 18.9387C10.875 17.2512 11.9062 15.5637 13.5 14.6262C14.1562 14.2512 14.9062 14.0637 15.8437 13.97C19.5937 13.7825 20.3438 16.0325 20.3438 17.4387C20.3438 18.845 19.0312 23.345 15.5625 23.72C12.6562 24.095 10.9687 22.3137 10.875 18.9387Z" fill="#8E4964"/>
<path d="M11.25 18.845C11.25 17.2513 12.1875 15.6575 13.6875 14.9075C14.25 14.6263 15 14.345 15.8437 14.345C19.3125 14.2513 19.9687 16.22 19.9687 17.5325C19.9687 18.845 18.75 22.97 15.5625 23.345C12.8438 23.6263 11.3438 21.9388 11.25 18.845Z" fill="#8E4964"/>
<path d="M19.0312 16.6875C18.75 16.5937 18.4687 16.5 18.0937 16.5C17.25 16.5 16.5938 17.1562 16.5 17.8125V19.0312C16.5 19.5937 16.9687 19.9687 17.625 20.0625C18.2812 20.0625 19.0312 19.6875 19.2187 19.0312C19.3125 18.6562 19.5 18.2812 19.5937 17.8125C19.6875 17.3437 19.4062 16.875 19.0312 16.6875Z" fill="#8E4964"/>
<path d="M18.8438 17.0625C18.5625 16.9688 18.2813 16.875 17.9063 16.875C17.1563 16.875 16.4062 17.625 16.4062 18.375V19.6875C16.4062 20.3438 16.875 20.8125 17.4375 20.8125C18.0938 20.8125 18.75 20.3438 19.0312 19.6875C19.125 19.3125 19.3125 18.8438 19.4063 18.2812C19.5 17.7188 19.3125 17.25 18.8438 17.0625Z" fill="#8E4964"/>
<path d="M16.7807 18.3754C17.0619 17.5317 17.7182 17.1567 18.1869 17.3442C18.7494 17.5317 18.9369 18.4692 18.7494 19.4067C18.4682 20.4379 17.7182 21.0942 17.0619 20.6254C16.4994 20.3442 16.4057 19.2192 16.7807 18.3754Z" fill="#8E4964"/>
<path d="M16.9689 18.1874C17.2501 17.6249 17.7189 17.2499 18.0939 17.4374C18.4689 17.6249 18.7501 18.2812 18.4689 18.9374C18.2814 19.6874 17.6251 20.1562 17.1564 19.8749C16.7814 19.5937 16.7814 18.8437 16.9689 18.1874Z" fill="#8E4964"/>
<path d="M17.6244 18.3755C17.7182 18.0942 17.9994 18.0005 18.1869 18.0942C18.3744 18.188 18.5619 18.4692 18.4682 18.7505C18.3744 19.1255 17.9994 19.2192 17.8119 19.1255C17.5307 19.0317 17.4369 18.6567 17.6244 18.3755ZM12.3744 16.9692C12.6557 16.8755 12.9369 16.688 13.4057 16.688C14.1557 16.5942 14.8119 17.1567 14.7182 17.813C14.7182 18.188 14.6244 18.563 14.5307 18.938C14.3432 19.5005 13.8744 19.9692 13.2182 20.063C12.5619 20.1567 11.9057 19.7817 11.8119 19.2192C11.7182 18.8442 11.7182 18.4692 11.7182 18.0005C11.6244 17.7192 11.9057 17.2505 12.3744 16.9692Z" fill="#8E4964"/>
<path d="M12.4686 17.3437C12.7498 17.1562 13.0311 17.0625 13.4061 17.0625C14.1561 17.0625 14.7186 17.625 14.6248 18.375C14.6248 18.75 14.5311 19.2187 14.4373 19.6875C14.3436 20.3437 13.7811 20.8125 13.1248 20.9062C12.4686 21 11.9061 20.625 11.8123 19.9687C11.7186 19.5937 11.7186 19.125 11.7186 18.6562C11.6248 18.0937 11.9998 17.625 12.4686 17.3437Z" fill="#8E4964"/>
<path d="M14.2497 18.3766C14.0622 17.6266 13.5935 17.2516 13.031 17.5328C12.4685 17.8141 12.0935 18.7516 12.1872 19.6891C12.281 20.7203 12.9372 21.1891 13.5935 20.7203C14.156 20.2516 14.4372 19.2203 14.2497 18.3766Z" fill="#8E4964"/>
<path d="M14.0619 18.2825C13.9682 17.72 13.4994 17.4387 13.1244 17.6262C12.6557 17.8137 12.3744 18.47 12.4682 19.22C12.5619 19.97 13.0307 20.345 13.4994 19.97C13.9682 19.595 14.1557 18.845 14.0619 18.2825Z" fill="#8E4964"/>
<path d="M13.4064 18.5625C13.3127 18.375 13.1252 18.1875 12.8439 18.2812C12.5627 18.375 12.4689 18.6563 12.4689 18.9375C12.4689 19.2188 12.7502 19.4062 13.0314 19.2187C13.4064 19.125 13.5002 18.75 13.4064 18.5625ZM18.5627 12.9375C18.5627 12.9375 18.8439 16.5937 20.9064 17.8125C20.8127 17.9062 22.4064 14.3437 18.5627 12.9375ZM14.7189 12.75C14.7189 12.75 13.1252 17.25 10.3127 18.9375C10.2189 18.9375 9.75018 14.1562 14.7189 12.75ZM17.2502 13.5C17.2502 13.5 17.2502 15.375 15.5627 17.4375C15.5627 17.4375 16.2189 14.5312 15.1877 13.4062C15.2814 13.4062 16.3127 12.75 17.2502 13.5Z" fill="#8E4964"/>
<path d="M18.9373 13.9687C18.9373 13.9687 18.7498 15.2812 16.9685 16.3125C16.9685 16.3125 17.906 14.4375 17.0623 13.5C17.0623 13.5 18.1873 13.3125 18.9373 13.9687ZM14.9998 13.3125C14.9998 13.3125 15.7498 14.25 15.0935 16.125C15.0935 16.125 14.531 14.3438 13.1248 14.3438C13.1248 14.4375 13.8748 13.5 14.9998 13.3125ZM9.93727 16.2187C9.93727 16.2187 8.90602 18.375 9.18727 20.25C9.46852 22.0312 10.4998 23.625 10.031 25.125C10.031 25.125 10.781 22.7812 10.8748 21.375C10.9685 19.9687 10.5935 17.9063 11.3435 16.5938L9.93727 16.2187Z" fill="#8E4964"/>
<path d="M22.5273 12.8499C22.5493 12.4881 21.9805 12.1592 21.2569 12.1152C20.5334 12.0712 19.929 12.3288 19.907 12.6906C19.885 13.0524 20.4538 13.3814 21.1773 13.4253C21.9009 13.4693 22.5053 13.2117 22.5273 12.8499Z" fill="#8E4964"/>
<path d="M10.4998 15.8437C10.4998 15.8437 9.46852 18 9.74977 19.875C10.031 21.6562 10.3123 23.7187 9.84352 25.2187C9.84352 25.2187 10.8748 22.3125 10.9685 20.9062C11.0623 19.5 11.0623 17.5312 11.8123 16.2187L10.4998 15.8437ZM22.1248 15.1875C22.1248 15.1875 22.4998 17.3437 21.656 19.2187C20.8123 21 20.156 21.6562 19.406 24.0938L19.9685 20.1562C20.3435 18.75 20.9998 16.875 20.6248 15.5625L22.1248 15.1875Z" fill="#8E4964"/>
<path d="M21.5625 14.8125C21.5625 14.8125 21.9375 16.9688 21.0938 18.8438C20.25 20.625 19.3125 22.6875 19.4063 24.1875C19.4063 24.1875 19.2188 21.2813 19.5 19.875C19.7812 18.4688 20.4375 16.5 20.0625 15.1875L21.5625 14.8125ZM13.125 15.8437C13.125 15.8437 12.375 17.7187 11.5313 18.75L11.0625 20.4375L11.1562 18C11.25 18.0938 12.75 16.7812 13.125 15.8437Z" fill="#8E4964"/>
<path d="M19.3117 16.0313C19.3117 16.0313 19.4992 17.1563 19.6867 17.5313L19.593 19.6875L20.1555 17.25C20.1555 17.1562 19.4055 16.3125 19.3117 16.0313ZM10.593 13.2188C10.593 13.2188 9.2805 14.25 9.74925 15.9375C9.74925 15.9375 8.718 14.8125 9.93675 13.0312L10.593 13.2188ZM21.843 12.8438C21.843 12.8438 22.7805 13.125 22.4992 14.9062C22.4992 14.9062 23.718 13.4062 22.4055 12.5625L21.843 12.8438ZM15.2805 14.0625C15.2805 14.0625 16.0305 15.75 15.6555 17.4375C15.6555 17.4375 16.3117 15.0938 15.9367 14.0625C15.843 14.0625 15.3742 13.875 15.2805 14.0625ZM16.218 12.8438C16.218 12.8438 18.843 12.75 20.8117 14.7188C20.8117 14.7188 21.3742 15.375 21.2805 15.75C21.2805 16.2187 19.7805 20.8125 19.7805 20.8125L20.4367 15.5625C20.4367 15.5625 19.968 14.8125 19.4992 14.4375C19.1242 14.1562 17.6242 13.0313 16.218 12.8438ZM12.1867 15.0938C12.1867 15.0938 12.093 16.3125 11.343 16.875C10.593 17.4375 10.6867 18.2813 10.6867 18.2813L10.4055 21.4688L10.218 17.8125C10.218 17.8125 10.7805 17.0625 10.968 16.5C11.1555 15.9375 11.5305 15.1875 11.5305 15.1875L12.1867 15.0938Z" fill="#8E4964"/>
</g>
<mask id="mask1_52_42336" style="mask-type:luminance" maskUnits="userSpaceOnUse" x="4" y="11" width="19" height="12">
<path d="M6.28125 12.75L4.03125 22.7812L21 22.0313L22.2188 11.625L6.28125 12.75Z" fill="white"/>
</mask>
<g mask="url(#mask1_52_42336)">
<path d="M12.6291 16.6322C13.6837 15.4919 13.7376 13.8265 12.7494 12.9125C11.7611 11.9984 10.105 12.1818 9.05031 13.3221C7.99562 14.4623 7.94175 16.1277 8.92999 17.0418C9.91824 17.9558 11.5744 17.7725 12.6291 16.6322Z" fill="#B2642F"/>
<path d="M22.1564 16.2611C23.2111 15.1208 23.265 13.4554 22.2767 12.5414C21.2885 11.6273 19.6323 11.8107 18.5777 12.951C17.523 14.0912 17.4691 15.7566 18.4573 16.6707C19.4456 17.5848 21.1017 17.4014 22.1564 16.2611Z" fill="#B2642F"/>
<path d="M11.9062 14.4384C11.9062 14.4384 13.2188 12.5634 15.9375 12.4696C18.6563 12.3759 20.5312 14.6259 20.1562 17.6259L11.9062 14.4384Z" fill="#B2642F"/>
<path d="M12.2108 17.0679C13.1952 16.0037 13.2537 14.4569 12.3415 13.6132C11.4293 12.7694 9.89175 12.9482 8.90738 14.0124C7.923 15.0767 7.8645 16.6235 8.77673 17.4672C9.68895 18.311 11.2264 18.1322 12.2108 17.0679Z" fill="#B2642F"/>
<path d="M21.8173 16.5777C22.8016 15.5134 22.8601 13.9667 21.9479 13.1229C21.0357 12.2792 19.4982 12.4579 18.5138 13.5222C17.5294 14.5865 17.4709 16.1332 18.3832 16.977C19.2954 17.8207 20.8329 17.642 21.8173 16.5777Z" fill="#B2642F"/>
<path d="M11.8125 14.9071C11.8125 14.9071 13.125 13.0321 15.8437 12.9384C18.5625 12.8446 20.4375 15.0946 20.0625 18.0946L11.8125 14.9071Z" fill="#F79248"/>
<path d="M10.0312 19.9696C10.0312 18.1883 11.0625 16.4071 12.8438 15.4696C13.5 15.0946 14.3438 14.9071 15.375 14.8133C19.3125 14.6258 20.0625 16.9696 20.0625 18.4696C20.0625 19.8758 18.6563 24.6571 15.0938 25.0321C11.8125 25.4071 10.125 23.5321 10.0312 19.9696Z" fill="#BC7458"/>
<path d="M12.4705 16.7653C13.4197 15.7391 13.4805 14.2516 12.6063 13.443C11.7321 12.6344 10.2539 12.8109 9.30466 13.8371C8.35543 14.8634 8.29463 16.3508 9.16884 17.1594C10.0431 17.968 11.5212 17.7916 12.4705 16.7653Z" fill="#F79248"/>
<path d="M12.3407 14.2659C12.3627 13.9041 11.794 13.5752 11.0704 13.5312C10.3469 13.4872 9.74246 13.7449 9.72047 14.1067C9.69849 14.4684 10.2672 14.7974 10.9908 14.8413C11.7144 14.8853 12.3188 14.6277 12.3407 14.2659Z" fill="#FFBE92"/>
<path d="M21.8543 16.0817C22.8035 15.0555 22.8643 13.568 21.9901 12.7594C21.1159 11.9508 19.6377 12.1273 18.6884 13.1535C17.7392 14.1798 17.6784 15.6672 18.5526 16.4758C19.4268 17.2844 20.905 17.108 21.8543 16.0817Z" fill="#F79248"/>
<path d="M10.4062 19.7825C10.4062 18.095 11.4375 16.3137 13.0312 15.47C13.6875 15.095 14.4375 14.9075 15.4687 14.8137C19.3125 14.6262 19.9687 16.8762 19.9687 18.2825C19.9687 19.6887 18.5625 24.1887 15.1875 24.5637C12.1875 24.9387 10.5 23.0637 10.4062 19.7825Z" fill="#E5A98C"/>
<path d="M10.6875 19.4997C10.6875 17.906 11.625 16.2185 13.2188 15.4685C13.875 15.1872 14.5312 14.906 15.4688 14.906C19.0312 14.7185 19.6875 16.8747 19.6875 18.1872C19.6875 19.4997 18.375 23.8122 15.1875 24.0935C12.375 24.3747 10.7812 22.6872 10.6875 19.4997Z" fill="#E8CCAA"/>
<path d="M11.0625 19.4057C11.0625 17.9057 11.9063 16.4057 13.4063 15.6557C13.9688 15.3745 14.625 15.187 15.4688 15.0932C18.8438 14.9995 19.4063 16.8745 19.4063 18.0932C19.4063 19.312 18.1875 23.2495 15.1875 23.6245C12.5625 23.9057 11.0625 22.312 11.0625 19.4057Z" fill="#FAEACF"/>
<path d="M18.375 17.3438C18.0938 17.25 17.8125 17.1562 17.4375 17.1562C16.6875 17.1562 16.0312 17.8125 15.9375 18.4688V19.5938C15.9375 20.1563 16.4063 20.5313 17.0625 20.5313C17.7188 20.5313 18.375 20.1563 18.5625 19.5938C18.6562 19.2188 18.8438 18.8438 18.9375 18.375C19.0313 17.9063 18.8438 17.5313 18.375 17.3438Z" fill="#3C505B"/>
<path d="M18.2812 17.7187C18.0937 17.625 17.7188 17.5312 17.4375 17.5312C16.6875 17.5312 16.0312 18.1875 16.0312 18.9375V20.1562C16.0312 20.7187 16.5 21.1875 17.0625 21.1875C17.7188 21.1875 18.2812 20.8125 18.5625 20.1562L18.9375 18.8437C18.9375 18.375 18.6562 17.9062 18.2812 17.7187Z" fill="white"/>
<path d="M16.2187 18.938C16.5 18.188 17.1562 17.7192 17.625 18.0005C18.0937 18.188 18.375 19.1255 18.0937 19.9692C17.8125 21.0005 17.0625 21.563 16.5 21.188C16.0313 20.813 15.9375 19.7817 16.2187 18.938Z" fill="#54B9EB"/>
<path d="M16.5004 18.7502C16.6879 18.1877 17.1567 17.9064 17.5317 18.0002C17.9067 18.1877 18.0942 18.7502 17.9067 19.5002C17.7192 20.2502 17.1567 20.6252 16.6879 20.3439C16.3129 20.1564 16.2192 19.4064 16.5004 18.7502Z" fill="#3C505B"/>
<path d="M17.0629 18.9375C17.1567 18.6563 17.4379 18.5625 17.6254 18.6562C17.8129 18.75 18.0004 19.0313 17.9067 19.3125C17.8129 19.5938 17.5317 19.7813 17.2504 19.6875C16.9692 19.5 16.9692 19.2188 17.0629 18.9375Z" fill="white"/>
<path d="M12.0941 17.6255C12.3754 17.5317 12.6566 17.3442 13.0316 17.3442C13.7816 17.2505 14.3441 17.813 14.2504 18.4692C14.2504 18.7505 14.1566 19.2192 14.0629 19.5942C13.9691 20.1567 13.4066 20.5317 12.8441 20.6255C12.1879 20.7192 11.6254 20.438 11.5316 19.8755C11.4379 19.5942 11.4379 19.1255 11.4379 18.7505C11.3441 18.2817 11.6254 17.9067 12.0941 17.6255Z" fill="#3C505B"/>
<path d="M12.1879 17.9063C12.4691 17.7188 12.7504 17.625 13.1254 17.625C13.8754 17.625 14.3441 18.1875 14.2504 18.8438C14.2504 19.2188 14.1566 19.5938 14.0629 20.0625C13.9691 20.625 13.4066 21.0938 12.8441 21.1875C12.1879 21.2813 11.7191 20.9063 11.6254 20.3438C11.5316 19.9688 11.5316 19.5938 11.5316 19.0312C11.4379 18.6562 11.7191 18.1875 12.1879 17.9063Z" fill="white"/>
<path d="M13.9694 19.0309C13.7819 18.2809 13.3132 17.9996 12.8444 18.1871C12.2819 18.4684 11.9069 19.3121 12.0007 20.2496C12.0944 21.1871 12.7507 21.6559 13.3132 21.2809C13.7819 20.8121 14.0632 19.7809 13.9694 19.0309Z" fill="#54B9EB"/>
<path d="M13.6884 18.8438C13.5946 18.2813 13.2196 18.0937 12.7509 18.2812C12.3759 18.4687 12.0009 19.125 12.0946 19.7813C12.1884 20.5313 12.6571 20.8125 13.1259 20.5312C13.5946 20.1562 13.8759 19.4063 13.6884 18.8438Z" fill="#3C505B"/>
<path d="M13.125 19.125C13.0312 18.9375 12.8437 18.8438 12.6562 18.8438C12.4687 18.9375 12.2812 19.2187 12.2812 19.5C12.2812 19.7812 12.5625 19.9688 12.8437 19.7813C13.125 19.6875 13.2187 19.3125 13.125 19.125Z" fill="white"/>
<path d="M18.0003 13.7812C18.0003 13.7812 18.1878 17.25 20.1566 18.4688C20.1566 18.4688 21.6566 15.0937 18.0003 13.7812ZM14.3441 13.5938C14.3441 13.5938 12.8441 17.9062 10.1253 19.5C10.1253 19.5 9.65658 14.9062 14.3441 13.5938ZM16.7816 14.3438C16.7816 14.3438 16.7816 16.125 15.1878 18.0937C15.1878 18.0937 15.8441 15.375 14.8128 14.25C14.8128 14.25 15.8441 13.5938 16.7816 14.3438Z" fill="#F79248"/>
<path d="M18.375 14.8125C18.375 14.8125 18.1875 16.0312 16.5 16.9688C16.5 16.9688 17.4375 15.1875 16.5938 14.25C16.5938 14.25 17.625 14.0625 18.375 14.8125ZM14.625 14.1562C14.625 14.1562 15.375 15 14.625 16.875C14.625 16.875 14.0625 15.1875 12.75 15.1875C12.8438 15.1875 13.5 14.3438 14.625 14.1562Z" fill="#F79248"/>
<path d="M9.75088 16.9688C9.75088 16.9688 8.81338 19.0313 9.09463 20.8125C9.37588 22.5938 10.3134 24 9.84463 25.4062C9.84463 25.4062 10.5009 23.25 10.5946 21.8437C10.6884 20.5312 10.3134 18.5625 11.0634 17.3437L9.75088 16.9688Z" fill="#B2642F"/>
<path d="M21.8066 13.6643C21.8286 13.3025 21.2598 12.9736 20.5362 12.9296C19.8127 12.8857 19.2083 13.1433 19.1863 13.5051C19.1643 13.8669 19.7331 14.1958 20.4566 14.2398C21.1802 14.2838 21.7846 14.0261 21.8066 13.6643Z" fill="#FFBE92"/>
<path d="M10.4071 16.5938C10.4071 16.5938 9.46963 18.6562 9.75088 20.4375C10.0321 22.2187 10.3134 24.0937 9.84463 25.5937C9.84463 25.5937 10.8759 22.875 10.9696 21.4687C11.0634 20.1562 11.0634 18.2812 11.7196 16.9687L10.4071 16.5938Z" fill="#F79248"/>
<path d="M21.375 15.9375C21.375 15.9375 21.75 18 20.9062 19.7813C20.0625 21.5625 19.5 22.125 18.75 24.375L19.3125 20.625C19.5938 19.3125 20.25 17.5312 19.9687 16.3125L21.375 15.9375Z" fill="#B2642F"/>
<path d="M20.8132 15.5625C20.8132 15.5625 21.1882 17.625 20.3444 19.4062C19.5007 21.1875 18.6569 23.0625 18.7507 24.5625C18.7507 24.5625 18.5632 21.8437 18.8444 20.4375C19.1257 19.125 19.7819 17.25 19.4069 15.9375L20.8132 15.5625Z" fill="#F79248"/>
<path d="M12.8437 16.5938C12.8437 16.5938 12.0938 18.375 11.3438 19.4062L10.875 21L10.9687 18.6562C10.9687 18.6562 12.4687 17.4375 12.8437 16.5938ZM18.6562 16.6875C18.6562 16.6875 18.8437 17.7187 19.0312 18.0937L18.9375 20.0625L19.5 17.7187C19.5 17.8125 18.75 16.9687 18.6562 16.6875Z" fill="#B2642F"/>
<path d="M10.4065 14.0625C10.4065 14.0625 9.09397 15.0937 9.56272 16.6875C9.56272 16.6875 8.53147 15.5625 9.75022 13.9687L10.4065 14.0625ZM21.094 13.6875C21.094 13.6875 22.0315 13.9688 21.6565 15.5625C21.6565 15.5625 22.7815 14.1562 21.5627 13.3125L21.094 13.6875Z" fill="#FFBE92"/>
<path d="M14.9062 14.9062C14.9062 14.9062 15.6563 16.5 15.1875 18.0937C15.1875 18.0937 15.8438 15.8438 15.4688 14.8125C15.4688 14.8125 14.9062 14.7187 14.9062 14.9062Z" fill="#B2642F"/>
<path d="M15.75 13.6883C15.75 13.6883 18.2812 13.5945 20.1562 15.4695C20.1562 15.4695 20.625 16.032 20.625 16.5008C20.625 16.9695 19.2188 21.282 19.2188 21.282L19.7812 16.3133C19.7812 16.3133 19.3125 15.5633 18.9375 15.282C18.5625 15.0008 17.0625 13.8758 15.75 13.6883ZM12 15.8445C12 15.8445 11.9062 17.0633 11.1562 17.532C10.5 18.0945 10.5 18.8445 10.5 18.8445L10.3125 21.8445L10.125 18.3758L10.875 17.157L11.3438 15.9383L12 15.8445Z" fill="#FFA96E"/>
</g>
<mask id="mask2_52_42336" style="mask-type:luminance" maskUnits="userSpaceOnUse" x="6" y="3" width="10" height="8">
<path d="M14.4375 10.5L6.75 10.9688L7.78125 4.59375L15.2812 3.75L14.4375 10.5Z" fill="white"/>
</mask>
<g mask="url(#mask2_52_42336)">
<path d="M9.46829 4.125C8.90579 4.21875 8.43704 4.59375 8.15579 4.96875C8.06204 5.15625 7.87454 5.34375 7.68704 5.53125C6.93704 6.375 7.40579 7.59375 8.71829 7.3125C10.0308 7.125 10.8745 6.5625 11.3433 5.4375C11.7183 4.5 10.8745 3.84375 9.84329 4.03125L9.46829 4.125ZM13.9683 3.65625C14.5308 3.65625 14.9058 3.9375 15.0933 4.3125C15.187 4.5 15.2808 4.59375 15.4683 4.78125C16.0308 5.4375 15.187 6.84375 13.7808 6.84375C12.3745 6.84375 11.7183 6.46875 11.6245 5.4375C11.5308 4.59375 12.562 3.65625 13.5933 3.65625H13.9683Z" fill="#A3704D"/>
<path d="M14.1559 7.49908L14.3434 3.74908H14.0622C13.0309 3.65533 11.9059 3.65533 10.8747 3.84283C10.0309 4.03033 9.18717 4.21783 8.53092 4.68658C8.43717 5.71783 8.15592 7.21783 7.40592 8.62408C7.40592 8.62408 5.90592 11.3428 7.40592 11.5303C8.99967 11.7178 13.8747 11.6241 14.7184 10.6866C15.5622 9.74908 14.1559 7.96783 14.1559 7.49908Z" fill="#A3704D"/>
<path d="M14.0625 3.74977C13.2188 3.65602 12 3.56227 10.7813 3.65602C9.84375 3.74977 9.1875 3.93727 8.8125 4.21852C8.8125 4.87477 8.625 6.84352 7.6875 8.53102C7.6875 8.53102 6.28125 10.9685 7.6875 11.156C9.09375 11.3435 13.5 11.2498 14.25 10.406C15 9.56227 13.7813 7.96852 13.6875 7.59352C13.7813 7.12477 13.875 4.59352 14.0625 3.74977Z" fill="#FBCC94"/>
<path d="M9.37515 4.3125C9.00015 4.40625 8.5314 4.6875 8.25015 5.0625C8.1564 5.25 8.06265 5.4375 7.87515 5.625C7.2189 6.28125 7.68765 7.40625 8.81265 7.21875C10.0314 7.03125 10.6876 6.5625 11.0626 5.625C11.3439 4.78125 10.6876 4.21875 9.75015 4.40625L9.37515 4.3125Z" fill="#FAB88C"/>
<path d="M9.37456 4.5014C8.99956 4.59515 8.62456 4.8764 8.43706 5.15765C8.34331 5.2514 8.24956 5.4389 8.06206 5.6264C7.49956 6.1889 7.87456 7.1264 8.90581 6.9389C9.93706 6.7514 10.4996 6.3764 10.8746 5.53265C11.1558 4.8764 10.4996 4.3139 9.74956 4.5014H9.37456Z" fill="#FFD097"/>
<path d="M9 6.0947C8.90625 6.2822 8.71875 6.4697 8.4375 6.56345C8.15625 6.56345 8.0625 6.37595 8.15625 6.18845C8.15625 5.9072 8.4375 5.7197 8.71875 5.7197C8.90625 5.62595 9.09375 5.81345 9 6.0947Z" fill="#A3704D"/>
<path d="M8.625 6.1875C8.53125 6.1875 8.4375 6.28125 8.4375 6.28125C8.34375 6.28125 8.34375 6.1875 8.34375 6.1875C8.34375 6.09375 8.4375 6 8.4375 6C8.53125 6 8.625 6.09375 8.625 6.1875ZM13.9688 3.84375C14.4375 3.84375 14.8125 4.03125 15 4.40625C15 4.59375 15.0937 4.6875 15.2812 4.875C15.8437 5.4375 15 6.75 13.7812 6.75C12.5625 6.75 12 6.46875 11.8125 5.4375C11.7188 4.6875 12.5625 3.84375 13.5938 3.9375L13.9688 3.84375Z" fill="#FAB88C"/>
<path d="M13.8751 4.03125C14.2501 4.03125 14.6251 4.21875 14.8126 4.5C14.9064 4.59375 15.0001 4.78125 15.0939 4.875C15.5626 5.4375 14.8126 6.5625 13.7814 6.5625C12.7501 6.5625 12.1876 6.28125 12.0939 5.4375C12.0001 4.78125 12.7501 4.03125 13.5939 4.125L13.8751 4.03125Z" fill="#FFD097"/>
<path d="M13.875 5.625C13.875 5.90625 14.0625 6 14.3438 6C14.625 6 14.8125 5.71875 14.8125 5.53125C14.8125 5.25 14.625 5.15625 14.3438 5.15625C14.0625 5.15625 13.875 5.34375 13.875 5.625Z" fill="#A3704D"/>
<path d="M6.8436 10.3125C6.8436 10.3125 8.06235 10.125 8.9061 10.3125C9.74985 10.5 13.1249 10.125 14.8124 9.65625C14.8124 9.65625 15.1874 10.0313 14.9061 10.4063C14.6249 10.7813 11.0624 12.5625 10.3124 12.75C9.6561 12.9375 6.93735 11.625 6.8436 11.25C6.74985 10.9687 6.6561 10.5 6.8436 10.3125Z" fill="#5D8993"/>
<path d="M14.3438 5.625C14.3438 5.71875 14.4375 5.71875 14.5312 5.71875C14.625 5.71875 14.7187 5.625 14.7187 5.53125C14.7187 5.4375 14.625 5.4375 14.5312 5.4375C14.3437 5.53125 14.3438 5.53125 14.3438 5.625Z" fill="#FAB88C"/>
<path d="M7.2186 10.125C7.2186 10.125 8.3436 9.9375 9.0936 10.125C9.93735 10.3125 12.9374 10.0312 14.5311 9.5625C14.5311 9.5625 14.9061 9.9375 14.6249 10.2187C14.3436 10.5 11.0624 12.1875 10.4061 12.375C9.74986 12.5625 7.31235 11.3438 7.2186 10.9688C7.12485 10.7812 7.0311 10.3125 7.2186 10.125Z" fill="#CBDEE4"/>
<path d="M12.2813 6.46875C12.2813 6.46875 13.2188 6.9375 14.0625 6.75V6.84375C14.0625 6.84375 13.125 7.125 12.2813 6.46875ZM10.0312 6.65625C10.0312 6.65625 8.90625 7.3125 8.25 7.21875L8.15625 7.40625C8.15625 7.40625 9 7.40625 10.0312 6.65625Z" fill="#A3704D"/>
<path d="M7.7812 5.90625C7.7812 5.90625 7.5937 6.65625 8.81245 6.5625C10.0312 6.46875 10.9687 5.53125 10.9687 5.53125C10.9687 5.53125 10.6874 6.75 8.9062 7.03125C7.12495 7.3125 7.7812 5.90625 7.7812 5.90625ZM15.2812 5.25C15.2812 5.25 15.1874 6.09375 13.9687 6.1875C12.7499 6.28125 11.9999 5.4375 11.9999 5.4375C11.9999 5.4375 11.9999 6.65625 13.7812 6.65625C15.5624 6.5625 15.2812 5.25 15.2812 5.25Z" fill="#FBCC94"/>
<path d="M10.9685 8.625C10.9685 8.71875 10.8748 8.8125 10.781 8.8125C10.6873 8.8125 10.5935 8.71875 10.6873 8.71875C10.6873 8.625 10.781 8.53125 10.8748 8.53125C10.9685 8.53125 11.0623 8.625 10.9685 8.625Z" fill="#A3704D"/>
<path d="M7.03125 10.5C7.03125 10.5 7.40625 10.3125 7.6875 10.3125C8.0625 10.3125 9.84375 10.6875 11.3438 10.4063L14.7188 9.84375L14.625 9.65625L10.7812 10.2187C9.46875 10.3125 8.0625 9.84375 7.03125 10.4063V10.5Z" fill="#5D8993"/>
<path d="M12.4688 10.3131L10.6875 10.6881C10.4062 11.1569 10.125 11.6256 10.0312 12.0944C10.2187 12.1881 10.3125 12.1881 10.3125 12.1881C10.6875 12.1881 12.6563 11.1569 13.4063 10.6881C14.1562 10.3131 13.0313 10.2194 12.4688 10.3131Z" fill="#D5EAEF"/>
<path d="M12.9375 10.0312C12.9375 10.0312 12.8438 10.5 12.5625 10.875L12.0938 11.7188C12.0938 11.7188 12.9375 11.0625 13.125 11.0625C13.3125 10.9688 14.7188 10.5938 14.1563 10.4063C13.6875 10.125 12.9375 10.0312 12.9375 10.0312Z" fill="#CBDEE4"/>
<path opacity="0.4" d="M12 11.8127C12.0938 11.7189 12.375 11.3439 12.5625 11.0627C12.75 10.7814 12.9375 10.5002 13.2188 10.6877C13.5 10.7814 13.4063 11.1564 13.4063 11.1564L12 11.8127ZM10.2187 12.7502C10.125 12.6564 9.9375 12.3752 9.84375 12.0939C9.75 11.8127 9.5625 11.6252 9.375 11.8127C9.09375 11.8127 9.09375 12.1877 9.09375 12.1877L10.2187 12.7502Z" fill="#5D8993"/>
<path d="M11.1562 11.0631C11.1562 11.0631 11.2499 10.6881 11.4374 10.5943C11.6249 10.5006 12.2812 10.2193 12.3749 10.4068C12.4687 10.5006 12.7499 10.7818 12.3749 10.8756C11.9999 11.0631 12.0937 11.3443 11.8124 11.4381C11.4374 11.5318 11.0624 11.3443 11.1562 11.0631Z" fill="#EEFDFF"/>
<path d="M8.71875 4.5944C8.71875 4.5944 9.5625 4.12565 10.0312 4.0319C10.5 3.93815 13.3125 3.75065 14.3438 3.93815V3.75065C14.3438 3.75065 11.8125 3.37565 10.2187 3.75065C8.625 4.0319 8.53125 4.4069 8.53125 4.4069L8.71875 4.5944Z" fill="#A3704D"/>
</g>
<path d="M2.8124 14.6258C2.71865 12.4695 4.96865 10.3133 7.8749 9.75077L11.1561 9.00077C14.1561 8.34452 17.1561 9.46952 17.7186 11.6258C18.2811 13.9695 15.9374 16.5008 12.5624 17.0633L8.8124 17.7195C8.8124 18.282 9.3749 19.3133 10.2186 20.157C10.3124 20.3445 10.2186 20.532 10.0311 20.532C8.8124 20.2508 6.1874 19.5945 5.34365 17.532C3.84365 17.0633 2.8124 16.032 2.8124 14.6258Z" fill="#4C6980"/>
<path d="M3.28139 14.4379C3.18764 12.4691 5.25014 10.5004 7.96889 9.93787L10.9689 9.28162C13.6876 8.71912 16.4064 9.75037 16.8751 11.7191C17.3439 13.7816 15.2814 16.1254 12.1876 16.6879L8.81264 17.3441C8.62514 17.3441 8.43764 17.4379 8.25014 17.4379C8.25014 17.9066 8.43764 18.6566 8.90639 19.3129C9.00014 19.5004 8.81264 19.6879 8.62514 19.5941C7.68764 19.3129 6.28139 18.5629 5.53139 17.1566C4.21889 16.6879 3.28139 15.6566 3.28139 14.4379Z" fill="white"/>
<path d="M5.90625 12.9375L5.8125 13.0312C5.625 13.4062 5.25 13.875 4.96875 14.1563C4.875 14.0625 4.78125 14.0625 4.78125 13.9688C5.0625 13.6875 5.4375 13.2188 5.625 12.8438L5.90625 12.9375ZM8.15625 13.9688L8.4375 14.0625C8.4375 14.0625 8.4375 14.1563 8.34375 14.1563C8.0625 14.625 7.6875 15.0938 7.21875 15.375C7.78125 15.5625 8.4375 15.5625 9.1875 15.5625C9.09375 15.6563 9 15.8438 9 15.9375C8.15625 15.9375 7.5 15.8438 6.9375 15.6563C6.375 16.0313 5.625 16.3125 4.96875 16.5938C4.96875 16.5 4.875 16.4062 4.78125 16.3125C5.4375 16.125 6.09375 15.8438 6.65625 15.5625C6.375 15.375 6.1875 15.1875 5.90625 15C5.625 15.1875 5.34375 15.4688 5.0625 15.6563C5.0625 15.5625 4.96875 15.4688 4.875 15.4688C5.625 15 6.09375 14.5313 6.375 14.0625H6.75C6.75 14.0625 6.75 14.1563 6.65625 14.1563C6.65625 14.0625 6.5625 14.25 6.46875 14.3438L8.15625 13.9688ZM6.65625 12.375C6.65625 12.8438 6.65625 13.6875 5.8125 14.3438C5.8125 14.25 5.71875 14.1563 5.625 14.0625C6.375 13.5 6.375 12.8438 6.375 12.375L4.78125 12.75V12.4688L6.75 12V11.4375L7.21875 11.3438C7.21875 11.3438 7.21875 11.4375 7.125 11.4375V11.9062L9.28125 11.4375V11.8125L7.875 12.0937V13.3125C7.875 13.6875 7.6875 13.6875 7.03125 13.875C7.03125 13.7813 6.9375 13.6875 6.9375 13.5938C7.21875 13.5938 7.40625 13.5 7.5 13.5C7.59375 13.5 7.59375 13.5 7.59375 13.4063V12.1875L6.65625 12.375ZM6.1875 14.625C6.375 14.9063 6.5625 15.0937 6.9375 15.2812C7.3125 15 7.59375 14.7188 7.875 14.3438L6.1875 14.625ZM9 13.4063C8.8125 13.125 8.4375 12.75 8.0625 12.4688L8.34375 12.2813C8.71875 12.5625 9.09375 12.9375 9.28125 13.125L9 13.4063ZM10.6875 14.625C10.5 15.0938 10.3125 15.4687 9.84375 15.75L9.5625 15.5625C9.9375 15.375 10.2187 15 10.3125 14.5313L10.6875 14.625ZM12.0937 11.625C12.0937 11.5312 12 11.4375 11.9062 11.4375L9.84375 12C9.84375 12 9.84375 12.0937 9.75 12.0937L9.65625 11.7188L10.125 11.625C10.3125 11.3437 10.5 10.875 10.6875 10.5L11.1562 10.5938L11.0625 10.6875C10.9688 10.9687 10.7812 11.25 10.5938 11.5313L11.8125 11.25C11.7188 11.1563 11.5312 11.0625 11.4375 10.9687L11.7187 10.7813C12 10.9688 12.375 11.25 12.5625 11.5313L12.0937 11.625ZM12 11.8125L11.9062 13.6875C11.9062 13.9688 11.7187 14.0625 11.1562 14.1563C11.1562 14.0625 11.0625 13.9688 11.0625 13.875C11.625 13.7813 11.625 13.7813 11.625 13.6875V13.3125L10.3125 13.5938V14.3438L9.9375 14.4375V12.2813L12 11.8125ZM11.625 12.1875L10.3125 12.4688V12.8438L11.625 12.5625V12.1875ZM10.3125 13.4063L11.625 13.2188V12.8438L10.3125 13.0312V13.4063ZM11.4375 15.0938C11.4375 15.1875 11.4375 15.2813 11.8125 15.1875L12.9375 15C13.2188 15 13.2188 14.9062 13.3125 14.4375C13.4062 14.4375 13.5937 14.5313 13.6875 14.5313C13.5937 15.0938 13.5 15.2812 13.0312 15.375L11.9062 15.5625C11.3437 15.6563 11.25 15.5625 11.25 15.1875V14.5313L11.7187 14.4375C11.7187 14.4375 11.7187 14.5313 11.625 14.5313L11.4375 15.0938ZM12.4688 14.625C12.2812 14.4375 11.9062 14.25 11.5312 14.1563L11.8125 13.875C12.1875 13.9688 12.5625 14.1563 12.75 14.3438L12.4688 14.625ZM14.4375 11.1562C14.7187 11.0625 14.7188 11.0625 14.8125 10.5C14.9062 10.5 15.0938 10.5938 15.1875 10.5938C15.0938 11.25 15 11.4375 14.5312 11.5313L13.4062 11.7188C12.8438 11.8125 12.75 11.7188 12.75 11.3438L12.8438 10.0312L13.3125 9.9375C13.3125 9.9375 13.3125 10.0312 13.2187 10.0312V10.6875C13.7812 10.4062 14.3437 10.125 14.625 9.84375L15 10.0312C15 10.0312 14.9062 10.125 14.9062 10.0312C14.5312 10.3125 13.875 10.5938 13.2187 10.875V11.1562C13.2187 11.3437 13.2187 11.3438 13.5937 11.25L14.4375 11.1562ZM14.3438 13.2188C14.625 13.2188 14.625 13.125 14.7188 12.5625C14.8125 12.6562 15 12.6563 15.0937 12.6563C15 13.3125 14.9062 13.4062 14.4375 13.5L13.3125 13.6875C12.75 13.7813 12.6562 13.6875 12.6562 13.3125L12.75 12L13.2187 11.9062C13.2187 11.9062 13.2187 12 13.125 12V12.6563L14.625 11.9062L15 12.0937H14.8125C14.3438 12.375 13.6875 12.6563 13.125 12.9375V13.3125C13.125 13.5 13.125 13.5 13.5 13.4063L14.3438 13.2188ZM14.625 15C14.4375 14.7188 13.9687 14.3438 13.5937 14.1563L13.875 13.875C14.3438 14.0625 14.8125 14.3438 15 14.625L14.625 15Z" fill="#4C6980" stroke="#4C6980" stroke-width="0.209437" stroke-miterlimit="10"/>
<path d="M7.21875 5.34375L7.125 6.5625L15.375 6.375L15.5625 5.0625L7.21875 5.34375Z" fill="#4C6980"/>
<path d="M16.8753 7.3125C16.8753 7.3125 16.219 6.75 16.7815 5.625L17.5315 5.90625L16.8753 7.3125ZM20.2503 4.96875C20.2503 4.96875 19.969 6.1875 21.0003 6.5625C22.1253 6.9375 21.6565 8.34375 21.3753 9.46875C21.3753 9.46875 24.7503 6.75 21.9378 4.3125C22.0315 4.3125 20.2503 4.6875 20.2503 4.96875Z" fill="#993A6E"/>
<path d="M16.6872 6.46951C16.6872 6.46951 16.3122 9.75076 17.8122 10.407C19.4997 11.157 21.5622 10.6883 22.5934 6.18826C22.5934 6.18826 22.2184 4.31326 19.9684 4.68826C18.0934 5.06326 16.6872 6.18826 16.6872 6.46951Z" fill="#BC7458"/>
<path d="M16.8745 6.56287C16.8745 6.56287 16.5933 9.65662 17.9995 10.2191C19.5933 10.8754 21.4683 10.5004 22.4058 6.37537C22.4058 6.37537 22.1245 4.68787 19.9683 4.96912C18.0933 5.25037 16.8745 6.18787 16.8745 6.56287Z" fill="#E5A98C"/>
<path d="M16.8749 6.65622C16.8749 6.65622 16.5937 9.46872 17.9062 9.93747C19.4062 10.5 21.0937 10.125 21.9374 6.46872C21.9374 6.46872 21.6562 4.96872 19.7812 5.24997C18.0937 5.53122 16.8749 6.37497 16.8749 6.65622Z" fill="#E8CCAA"/>
<path d="M16.8747 6.84383C16.8747 6.84383 16.5935 9.46883 17.8122 9.93758C19.1247 10.5001 20.7185 10.1251 21.4685 6.75008C21.4685 6.75008 21.1872 5.34383 19.4997 5.62508C17.9997 5.71883 16.8747 6.56258 16.8747 6.84383Z" fill="#FAEACF"/>
<path d="M16.6875 6.56306C16.6875 6.56306 16.9688 7.12556 17.8125 6.84431C18.6563 6.56306 21.1875 4.59431 21.1875 4.59431C21.1875 4.59431 20.1563 3.84431 18.2813 4.68806C17.3438 5.15681 16.7812 6.28181 16.6875 6.56306Z" fill="#993A6E"/>
<path d="M18.2812 5.34375C18 5.53125 17.7187 6.28125 17.3437 6.5625C17.0625 6.84375 16.5938 6.75 16.5938 6.375C16.5938 6 16.3125 5.34375 16.875 4.3125C16.875 4.3125 17.8125 4.03125 18.375 4.6875C18.5625 4.875 18.4687 5.15625 18.2812 5.34375ZM20.9062 5.15625C21.1875 5.25 21.6562 5.4375 22.0312 5.71875C22.4062 6 22.9687 5.625 22.9687 5.25C22.9687 4.78125 22.9688 4.125 22.5938 3.375C22.5938 3.375 21.4688 3.46875 20.7188 4.59375C20.5312 4.6875 20.625 4.96875 20.9062 5.15625Z" fill="#D8649E"/>
<path d="M16.875 6.65721C16.875 6.65721 17.1563 7.21971 18 6.93846C18.9375 6.65721 21.4687 4.68846 21.4687 4.68846C21.4687 4.68846 20.3438 4.03221 18.4688 4.87596C17.4375 5.25096 16.875 6.46971 16.875 6.65721Z" fill="#D8649E"/>
<path d="M19.9686 4.96875C19.9686 4.96875 19.6874 6.1875 20.7186 6.5625C21.7499 6.9375 21.7499 8.15625 21.4686 9.28125C21.4686 9.28125 24.0936 6.375 21.7499 4.3125C21.7499 4.3125 20.0624 4.6875 19.9686 4.96875Z" fill="#D8649E"/>
<path d="M21.0934 4.96875L21.9372 5.4375C22.2184 5.625 22.5934 5.34375 22.6872 5.0625C22.6872 4.6875 22.6872 4.21875 22.4059 3.65625C22.4059 3.65625 21.5622 3.75 20.9997 4.5C20.8122 4.6875 20.9059 4.875 21.0934 4.96875Z" fill="#FFD4F7"/>
<path d="M21.0938 5.0625L21.6563 5.34375C21.8438 5.4375 22.125 5.34375 22.125 5.0625C22.125 4.78125 22.125 4.5 21.9375 4.03125C21.9375 4.03125 21.375 4.125 21 4.6875C21 4.875 21 5.0625 21.0938 5.0625Z" fill="#BF6A93"/>
<path d="M18.0937 5.24993C17.9062 5.43743 17.625 5.62493 17.4375 5.90618C17.1563 6.09368 16.875 6.09368 16.875 5.81243C16.875 5.53118 16.875 5.06243 17.0625 4.59368C17.0625 4.59368 17.7187 4.40618 18.1875 4.87493C18.2812 4.96868 18.1875 5.15618 18.0937 5.24993Z" fill="#FFD4F7"/>
<path d="M18 5.34375C17.9063 5.4375 17.625 5.625 17.5313 5.8125C17.3438 6 17.1562 5.90625 17.1562 5.71875C17.1562 5.53125 17.1563 5.15625 17.3438 4.78125C17.3438 4.78125 17.8125 4.59375 18.0938 4.96875C18.1875 5.15625 18.1875 5.25 18 5.34375Z" fill="#BF6A93"/>
<path d="M17.4372 6.46875C17.5309 6.375 17.7184 6.375 17.9059 6.375C18.2809 6.375 18.5622 6.5625 18.5622 6.9375C18.5622 7.125 18.4684 7.3125 18.4684 7.5C18.3747 7.78125 18.0934 7.96875 17.8122 8.0625C17.5309 8.0625 17.2497 7.96875 17.1559 7.6875C17.1559 7.5 17.0622 7.3125 17.1559 7.125C17.0622 6.84375 17.2497 6.5625 17.4372 6.46875Z" fill="#3C505B"/>
<path d="M17.5313 6.65625C17.625 6.5625 17.8125 6.46875 17.9062 6.46875C18.2812 6.46875 18.5625 6.75 18.4688 7.125C18.4688 7.3125 18.375 7.5 18.375 7.78125C18.2812 8.0625 18 8.34375 17.7187 8.34375C17.4375 8.34375 17.1563 8.15625 17.0625 7.875V7.21875C17.1563 7.03125 17.25 6.75 17.5313 6.65625Z" fill="white"/>
<path d="M18.375 7.12434C18.2813 6.74934 18 6.56184 17.8125 6.74934C17.5312 6.84309 17.3438 7.31184 17.3438 7.78059C17.3438 8.24934 17.7188 8.53059 18 8.34309C18.2813 8.06184 18.4688 7.59309 18.375 7.12434Z" fill="#D8649E"/>
<path d="M18.2812 7.125C18.1875 6.84375 18 6.75 17.8125 6.84375C17.625 6.9375 17.4375 7.3125 17.4375 7.59375C17.4375 7.96875 17.7188 8.15625 17.9062 7.96875C18.1875 7.78125 18.2812 7.40625 18.2812 7.125Z" fill="#3C505B"/>
<path d="M18 7.21852C18 7.12477 17.8125 7.03102 17.7187 7.12477C17.625 7.12477 17.5312 7.31227 17.5312 7.40602C17.5312 7.59352 17.7187 7.59352 17.8125 7.59352C17.9062 7.49977 18 7.31227 18 7.21852Z" fill="white"/>
<path d="M20.8125 6.375C20.7188 6.28125 20.5312 6.28125 20.25 6.28125C19.875 6.28125 19.5 6.5625 19.4062 6.9375V7.5C19.4062 7.78125 19.6875 7.96875 19.9687 8.0625C20.3437 8.0625 20.7188 7.875 20.8125 7.59375C20.9062 7.40625 21 7.21875 21 6.9375C21.1875 6.75 21.0938 6.46875 20.8125 6.375Z" fill="#3C505B"/>
<path d="M20.813 6.5625C20.7192 6.46875 20.5317 6.46875 20.3442 6.46875C19.9692 6.46875 19.5942 6.84375 19.5942 7.21875V7.875C19.5005 8.15625 19.688 8.4375 20.063 8.4375C20.438 8.4375 20.7192 8.25 20.9067 7.875C21.0005 7.6875 21.0942 7.40625 21.0942 7.125C21.0942 6.9375 21.0005 6.65625 20.813 6.5625Z" fill="white"/>
<path d="M19.6876 7.21788C19.8751 6.84288 20.1564 6.56163 20.4376 6.74913C20.7189 6.84288 20.8126 7.31163 20.7189 7.78038C20.5314 8.34288 20.1564 8.62413 19.8751 8.34288C19.5001 8.15538 19.5001 7.68663 19.6876 7.21788Z" fill="#D8649E"/>
<path d="M19.7817 7.12595C19.8754 6.8447 20.1567 6.6572 20.3442 6.75095C20.6254 6.8447 20.7192 7.2197 20.6254 7.50095C20.5317 7.87595 20.1567 8.06345 19.9692 7.9697C19.6879 7.87595 19.6879 7.4072 19.7817 7.12595Z" fill="#3C505B"/>
<path d="M20.0625 7.21875C20.1562 7.125 20.25 7.03125 20.3438 7.03125C20.4375 7.03125 20.5312 7.21875 20.4375 7.3125C20.3437 7.5 20.25 7.59375 20.0625 7.5C20.0625 7.5 20.0625 7.40625 20.0625 7.21875Z" fill="white"/>
<path d="M17.625 6.09424C17.625 6.09424 18.75 4.50049 19.875 4.87549C19.875 4.87549 20.0625 5.25049 19.4063 5.62549C18.75 6.00049 17.625 6.09424 17.625 6.09424ZM20.8125 5.34424C20.8125 5.34424 21.8438 5.53174 22.125 5.90674C22.4063 6.28174 22.4063 6.84424 22.125 7.50049C22.125 7.50049 22.125 7.03174 21.9375 6.65674C21.75 6.28174 21.2813 5.43799 20.8125 5.34424Z" fill="#EA7DB8"/>
<path d="M23.2496 9.37471C23.2496 8.15596 22.2183 8.24971 22.2183 8.24971C22.2183 8.24971 21.5621 8.24971 21.1871 8.71846C20.8121 8.24971 20.2496 8.24971 20.2496 8.24971C20.2496 8.24971 19.1246 8.15596 18.8433 9.46846C18.4683 10.9685 20.8121 11.9997 20.9058 12.0935C21.0933 11.906 23.3433 10.6872 23.2496 9.37471Z" fill="#362222"/>
<path d="M23.2501 9.18701C23.2501 8.15576 22.2188 8.06201 22.2188 8.06201C22.2188 8.06201 21.6563 7.96826 21.1876 8.43701C20.8126 7.96826 20.2501 7.96826 20.2501 7.96826C20.2501 7.96826 19.1251 7.87451 18.7501 9.18701C18.3751 10.5933 20.6251 11.6245 20.8126 11.7183C21.0001 11.6245 23.2501 10.4995 23.2501 9.18701Z" fill="#960F62"/>
<path d="M23.0626 9.1875C23.0626 8.625 22.8751 8.4375 22.5939 8.34375C22.4064 8.25 22.1251 8.25 21.9376 8.34375C21.7501 8.4375 21.4689 8.53125 21.1876 8.8125C21.0001 8.625 20.8126 8.4375 20.6251 8.34375C20.3439 8.25 19.9689 8.25 19.6876 8.34375C19.4064 8.4375 19.2189 8.71875 19.0314 9.1875C18.7501 10.4063 20.7189 11.25 20.9064 11.3438C21.0001 11.25 22.9689 10.3125 23.0626 9.1875Z" fill="#DD82D4"/>
<path d="M22.3121 9.1875C22.3121 8.8125 22.1246 8.625 21.9371 8.53125C21.7496 8.4375 21.5621 8.4375 21.3746 8.53125C21.1871 8.625 20.9996 8.71875 20.8121 8.90625C20.7183 8.71875 20.5308 8.625 20.3433 8.625C20.1558 8.53125 19.8746 8.53125 19.6871 8.625C19.4996 8.71875 19.3121 8.90625 19.2183 9.28125C19.0308 10.125 20.5308 10.7812 20.6246 10.875C20.8121 10.6875 22.3121 10.0312 22.3121 9.1875Z" fill="#F9B6EA"/>
<path d="M21.9379 10.125C21.7504 10.2187 21.5629 10.2187 21.3754 10.125C21.2817 10.0312 21.0942 9.93746 21.0942 9.65621C21.0004 9.18746 21.5629 7.96871 22.4067 8.43746C23.3442 8.99996 22.5004 9.93746 21.9379 10.125Z" fill="#FFB3B3"/>
<path d="M20.625 11.625C20.625 11.625 22.4063 10.9688 23.1563 9.5625C23.1563 9.5625 22.9688 10.6875 20.8125 11.7188L20.625 11.625Z" fill="#DD82D4"/>
<path d="M22.3125 8.99934H22.2188L22.125 8.90559C22.125 8.81184 22.2187 8.53059 22.4062 8.62434C22.5937 8.71809 22.4062 8.99934 22.3125 8.99934Z" fill="white"/>
<path d="M20.2498 8.90582C20.2498 8.99957 20.156 9.09332 20.0623 9.09332C19.9685 9.09332 19.8748 9.18707 19.781 9.18707C19.5935 9.18707 19.2185 8.90582 19.6873 8.62457C20.156 8.34332 20.3435 8.71832 20.2498 8.90582Z" fill="#FFB3B3"/>
<path opacity="0.28" d="M18.9375 10.2187C18.9375 10.2187 20.9062 12.1875 23.0625 10.0312C23.0625 10.0312 22.2187 11.1562 21 11.9062C21 11.8125 19.125 11.25 18.9375 10.2187Z" fill="#362222"/>
<path d="M15.5625 27.375L15.1875 27.8438L16.875 28.9687L26.0625 19.7812L24.5625 17.9062L15.5625 27.375Z" fill="#9A4C18"/>
<path d="M26.3442 22.4068C26.063 26.0631 22.688 29.1568 18.8442 29.1568C15.0942 29.1568 12.7505 26.0631 13.4067 22.5006C14.063 19.1256 17.2505 16.5006 20.6255 16.5006C24.0005 16.4068 26.6255 18.9381 26.3442 22.4068Z" fill="#9A4C18"/>
<path d="M27.1876 23.5313C26.9063 27 23.6251 30 19.8751 29.9062C16.2188 29.9062 13.8751 26.9062 14.6251 23.5313C15.2813 20.3438 18.3751 17.8125 21.6563 17.8125C25.0313 17.8125 27.4688 20.25 27.1876 23.5313Z" fill="#9A4C18"/>
<path d="M16.5938 27.6562L18.1875 28.5L25.6875 20.5312L24.4687 18.9375L16.5938 27.6562Z" fill="#F49937"/>
<path d="M26.5315 23.5303C26.2502 26.5303 23.4377 29.0615 20.344 29.0615C17.344 29.0615 15.3752 26.5303 15.9377 23.624C16.5002 20.8115 19.1252 18.6553 21.844 18.6553C24.6565 18.5615 26.719 20.7178 26.5315 23.5303Z" fill="#F49937"/>
<path d="M25.5004 22.4071C25.2192 25.5946 22.2192 28.3134 18.9379 28.2196C15.6567 28.2196 13.5942 25.5009 14.1567 22.4071C14.7192 19.5009 17.5317 17.1571 20.5317 17.1571C23.5317 17.0634 25.7817 19.3134 25.5004 22.4071Z" fill="#FFEDC0"/>
<path d="M25.1252 22.5938C24.844 25.5938 22.1252 28.0312 19.0315 28.0312C16.0315 28.0312 14.0627 25.5 14.6252 22.5938C15.1877 19.7813 17.8127 17.625 20.5315 17.625C23.2502 17.625 25.3127 19.7813 25.1252 22.5938Z" fill="#FFD766"/>
<path d="M23.906 22.5938C23.6247 24.8438 21.5622 26.8125 19.2185 26.8125C16.8747 26.8125 15.3747 24.9375 15.7497 22.5938C16.1247 20.4375 18.1872 18.75 20.3435 18.6562C22.4997 18.6562 24.0935 20.4375 23.906 22.5938Z" fill="#FFEDC0"/>
<path d="M23.906 22.0313C23.6247 24.2813 21.5622 26.1562 19.2185 26.1562C16.8747 26.1562 15.3747 24.2813 15.7497 22.0313C16.1247 19.875 18.1872 18.1875 20.3435 18.1875C22.5935 18.1875 24.1872 19.875 23.906 22.0313Z" fill="#F49937"/>
<path d="M23.2495 22.5943C23.062 24.563 21.2808 26.1568 19.2183 26.1568C17.2495 26.1568 15.937 24.563 16.312 22.688C16.5933 20.813 18.3745 19.4068 20.2495 19.4068C22.1245 19.313 23.437 20.7193 23.2495 22.5943Z" fill="#FFD766"/>
<path d="M20.7188 18.9375L21.2813 21L23.5313 21.6562L21.4688 23.0625L21.2813 25.5L19.4063 24.0938L16.9688 24.9375L18 22.6875L16.7812 20.9062L19.2188 20.8125L20.7188 18.9375Z" fill="#F49937"/>
</g>
<defs>
<clipPath id="clip0_52_42336">
<rect width="30" height="30" fill="white"/>
</clipPath>
</defs>
</svg>
