<svg width="64" height="64" viewBox="0 0 64 64" fill="none" xmlns="http://www.w3.org/2000/svg">
<path d="M23.6524 43.131C25.9576 43.131 27.8263 41.2623 27.8263 38.9571C27.8263 36.6519 25.9576 34.7832 23.6524 34.7832C21.3472 34.7832 19.4785 36.6519 19.4785 38.9571C19.4785 41.2623 21.3472 43.131 23.6524 43.131Z" stroke="#213A52" stroke-width="1.94783" stroke-linecap="round" stroke-linejoin="round"/>
<path d="M37.5655 43.131C39.8707 43.131 41.7394 41.2623 41.7394 38.9571C41.7394 36.6519 39.8707 34.7832 37.5655 34.7832C35.2603 34.7832 33.3916 36.6519 33.3916 38.9571C33.3916 41.2623 35.2603 43.131 37.5655 43.131Z" stroke="#213A52" stroke-width="1.94783" stroke-linecap="round" stroke-linejoin="round"/>
<path d="M27.8262 38.9561V20.8691H41.7392V38.9561" stroke="#213A52" stroke-width="1.94783" stroke-linecap="round" stroke-linejoin="round"/>
<path d="M27.8262 26.4355H41.7392" stroke="#213A52" stroke-width="1.94783" stroke-linecap="round" stroke-linejoin="round"/>
</svg>
