<svg width="10" height="5" viewBox="0 0 10 5" fill="none" xmlns="http://www.w3.org/2000/svg">
<path d="M9.02421 0.693765C9.02347 0.787286 9.00274 0.87957 8.96342 0.964426C8.9241 1.04928 8.86708 1.12475 8.79621 1.18576L4.51221 4.99976L0.229205 1.18576C0.157835 1.12567 0.100374 1.05079 0.0608004 0.966294C0.0212264 0.881802 0.000483899 0.78972 8.36574e-06 0.69642C-0.000467167 0.603121 0.0193356 0.510832 0.0580464 0.425941C0.0967571 0.341049 0.153451 0.265583 0.224205 0.204765C0.376115 0.0732125 0.570195 0.000553708 0.771148 3.1518e-06C0.972101 -0.000547404 1.16658 0.0710469 1.31921 0.201765L4.51221 3.04576L7.70521 0.201765C7.85776 0.0713148 8.05204 -0.000117026 8.25276 0.000433411C8.45349 0.000983848 8.64736 0.0734801 8.7992 0.204765C8.9492 0.339765 9.02421 0.517765 9.02421 0.693765Z" fill="#9798A0"/>
</svg>
