<svg width="20" height="21" viewBox="0 0 20 21" fill="none" xmlns="http://www.w3.org/2000/svg">
<path fill-rule="evenodd" clip-rule="evenodd" d="M18.5236 6.17741L17.8928 5.08281C17.3592 4.15661 16.1765 3.8371 15.2491 4.36854V4.36854C14.8076 4.62861 14.2808 4.7024 13.7848 4.57363C13.2889 4.44485 12.8645 4.1241 12.6053 3.6821C12.4386 3.40115 12.349 3.08115 12.3456 2.75447V2.75447C12.3606 2.23071 12.163 1.72316 11.7978 1.34745C11.4326 0.971739 10.9308 0.759858 10.4069 0.760074H9.13602C8.62268 0.760068 8.1305 0.964623 7.76839 1.32848C7.40628 1.69233 7.20409 2.18548 7.20656 2.69881V2.69881C7.19134 3.75866 6.32778 4.60983 5.26782 4.60972C4.94113 4.60633 4.62114 4.51673 4.34019 4.34999V4.34999C3.41273 3.81855 2.2301 4.13806 1.69646 5.06426L1.01929 6.17741C0.486291 7.10245 0.801458 8.28433 1.72429 8.82114V8.82114C2.32414 9.16746 2.69367 9.8075 2.69367 10.5001C2.69367 11.1928 2.32414 11.8328 1.72429 12.1791V12.1791C0.80263 12.7123 0.487119 13.8914 1.01929 14.8136V14.8136L1.65935 15.9175C1.90939 16.3686 2.3289 16.7016 2.82507 16.8426C3.32124 16.9836 3.85314 16.9211 4.30309 16.6689V16.6689C4.74541 16.4108 5.2725 16.34 5.76721 16.4724C6.26192 16.6048 6.68325 16.9293 6.93754 17.3739C7.10429 17.6548 7.19389 17.9748 7.19728 18.3015V18.3015C7.19728 19.3722 8.06528 20.2402 9.13602 20.2402H10.4069C11.474 20.2402 12.3405 19.3779 12.3456 18.3108V18.3108C12.3431 17.7958 12.5466 17.3012 12.9107 16.9371C13.2748 16.573 13.7694 16.3695 14.2843 16.372C14.6102 16.3807 14.9289 16.47 15.212 16.6318V16.6318C16.137 17.1648 17.3189 16.8496 17.8557 15.9268V15.9268L18.5236 14.8136C18.7821 14.3699 18.8531 13.8414 18.7207 13.3452C18.5884 12.849 18.2637 12.426 17.8186 12.1699V12.1699C17.3735 11.9138 17.0488 11.4908 16.9164 10.9946C16.7841 10.4984 16.8551 9.96988 17.1136 9.52614C17.2817 9.23262 17.5251 8.98926 17.8186 8.82114V8.82114C18.7359 8.28462 19.0503 7.10964 18.5236 6.18669V6.18669V6.17741Z" stroke="white" stroke-width="1.5" stroke-linecap="round" stroke-linejoin="round"/>
<circle cx="9.77548" cy="10.4999" r="2.67156" stroke="white" stroke-width="1.5" stroke-linecap="round" stroke-linejoin="round"/>
</svg>
