<svg width="24" height="24" viewBox="0 0 24 24" fill="none" xmlns="http://www.w3.org/2000/svg">
<path d="M11.9307 14.814C13.3083 14.814 14.4251 13.6972 14.4251 12.3196C14.4251 10.942 13.3083 9.8252 11.9307 9.8252C10.5531 9.8252 9.43628 10.942 9.43628 12.3196C9.43628 13.6972 10.5531 14.814 11.9307 14.814Z" stroke="#636977" stroke-opacity="0.6" stroke-width="1.2" stroke-miterlimit="10" stroke-linecap="round" stroke-linejoin="round"/>
<path d="M18.6376 12.3198C18.6376 12.3088 18.6376 12.3088 18.6376 12.2977C18.6376 11.1114 19.1254 9.99173 20.0789 9.2933L20.1565 9.23787L18.7042 6.7102C17.6288 7.19799 16.3871 7.13148 15.3672 6.54391L15.2009 6.44413C14.181 5.87873 13.5047 4.82553 13.3828 3.65039H10.4671C10.3451 4.82553 9.66885 5.86764 8.64892 6.4663L8.48262 6.55499C7.46269 7.14256 6.22103 7.20908 5.14566 6.72129L3.69336 9.24895L3.77096 9.30438C4.73547 9.99173 5.22326 11.1225 5.21218 12.3088C5.21218 12.3198 5.21218 12.3198 5.21218 12.3309C5.21218 12.342 5.21218 12.342 5.21218 12.3531C5.21218 13.5393 4.72438 14.659 3.77096 15.3575L3.69336 15.3907L5.14566 17.9184L5.22326 17.8852C6.29863 17.3974 7.52921 17.5304 8.54914 18.129C8.56023 18.1401 8.57131 18.1401 8.5824 18.1512C9.61342 18.7388 10.334 19.7366 10.456 20.9117L10.4671 21.0004H13.3828L13.3938 20.9117C13.5158 19.7366 14.2364 18.7388 15.2674 18.1512C15.2785 18.1401 15.2896 18.1401 15.3007 18.129C16.3206 17.5415 17.5512 17.3974 18.6266 17.8852L18.7042 17.9184L20.1565 15.3907L20.0789 15.3353C19.1144 14.648 18.6266 13.5172 18.6376 12.3309C18.6376 12.3309 18.6376 12.3198 18.6376 12.3198Z" stroke="#636977" stroke-opacity="0.6" stroke-width="1.2" stroke-miterlimit="10" stroke-linecap="square" stroke-linejoin="round"/>
</svg>
