<svg width="45" height="45" viewBox="0 0 45 45" fill="none" xmlns="http://www.w3.org/2000/svg">
<g clip-path="url(#clip0_52_57730)">
<path d="M25.7344 41.625C25.7344 41.625 24.75 45.2812 19.125 44.8594L14.2031 44.4375C12.9375 44.2969 11.6719 43.7344 10.8281 42.75L6.89062 38.1094L25.7344 41.625Z" fill="#63310F"/>
<path d="M15.1875 28.2656C15.1875 28.2656 16.0312 32.0625 15.4687 36L14.9062 39.6563C14.9062 39.6563 20.5312 38.8125 22.3594 36.7031C24.1875 34.5938 26.5781 27.1406 26.5781 27.1406L24.3281 24.6094L15.1875 28.2656Z" fill="#FCC097"/>
<path d="M41.3441 25.8758C40.0785 36.4227 27.4223 45.8446 16.5941 44.7196C5.766 43.454 3.516 32.3446 4.78163 21.7977C6.04725 11.2508 13.2191 3.37585 24.0473 4.64147C34.8754 5.9071 42.6098 15.329 41.3441 25.8758Z" fill="#63310F"/>
<path d="M39.797 24.1882C38.672 33.7507 29.672 40.6413 19.8282 39.6569C9.98448 38.6725 5.90635 30.3756 7.73448 20.8131C9.28135 12.9381 16.0314 4.92252 26.0157 6.04752C36.0001 7.17252 40.922 14.6256 39.797 24.1882Z" fill="#E8BD89"/>
<path d="M39.6563 22.3597C38.5313 30.6565 28.4063 39.6565 19.125 38.8128C9.84376 37.969 4.50001 29.5315 5.62501 21.2347C6.60938 13.0784 13.3594 4.50028 24.8906 5.62528C34.1719 6.60966 40.7813 14.0628 39.6563 22.3597Z" fill="#CE9D67"/>
<path d="M23.0628 24.6094C22.2191 31.3594 23.0628 36.4219 15.891 35.7188C8.71908 34.875 5.20345 28.6875 5.90658 21.9375C6.6097 15.1875 11.5316 10.5469 18.7035 11.25C25.8753 11.9531 23.766 18 23.0628 24.6094Z" fill="#FFD097"/>
<path d="M34.4531 22.2193C34.4531 22.2193 35.2969 27.2818 33.6094 29.2506C31.9219 31.2193 38.8125 32.2037 38.8125 32.2037C38.8125 32.2037 41.625 26.8599 41.0625 23.7662C40.3594 20.5318 34.4531 22.2193 34.4531 22.2193ZM27 36.7037C27 36.7037 25.1719 42.0474 21.7969 42.8912C18.4219 43.7349 15.1875 43.8756 12.7969 42.8912C10.4063 42.0474 5.76562 36.0006 5.76562 33.7506C5.76562 31.5006 5.625 31.2193 5.625 31.2193L27 36.7037Z" fill="#63310F"/>
<path d="M27.8438 35.1563C30.2344 35.2969 25.3125 42.1875 22.6406 42.8906C19.9688 43.5938 15.3281 43.4531 13.3594 42.6094C11.3906 41.7656 6.04688 35.4375 6.04688 33.1875L5.90625 29.3906C5.90625 29.3906 6.89062 33.8906 27.8438 35.1563Z" fill="#C6A27B"/>
<path d="M18.7029 29.3906C18.7029 29.3906 22.6404 28.125 25.031 29.3906C25.031 29.3906 26.156 30.5156 25.4529 30.9375C24.8904 31.3594 24.0466 31.9219 23.4841 31.3594C22.9216 30.7969 20.3904 29.3906 18.7029 29.3906ZM9.70289 26.5781C9.70289 26.5781 8.85914 24.0469 6.89039 23.9062C6.89039 23.9062 5.48414 24.3281 5.62476 24.75C5.62476 25.3125 5.48414 26.0156 6.18726 25.875C6.89039 25.7344 8.99976 25.7344 9.70289 26.5781Z" fill="#2B2927"/>
<path d="M10.1251 33.0469C10.1251 33.0469 16.3126 36.1406 20.9532 35.8594C21.9376 35.7188 22.5001 37.125 22.0782 38.25C21.3751 40.0781 18.9845 41.7656 17.297 41.625C12.9376 41.2031 9.84383 34.4531 9.84383 34.4531C9.84383 34.4531 9.28133 34.1719 10.1251 33.0469Z" fill="#63310F"/>
<path d="M13.2188 40.0788C13.2188 40.0788 13.2188 38.6725 16.1719 38.2506C19.125 37.8288 20.8125 39.3756 20.8125 39.3756C20.8125 39.3756 20.8125 41.0631 19.6875 41.485C18.5625 41.7663 15.4688 42.7506 13.2188 40.0788Z" fill="#ED5671"/>
<path d="M19.2656 41.2031L16.7344 40.7813L16.875 39.2344L15.8906 40.7813H13.9219C13.9219 40.6406 15.75 43.3125 19.2656 41.2031Z" fill="#A02A44"/>
<path d="M5.625 21.5156C5.625 21.5156 12.375 27.7031 12.375 17.0156L9.14062 12.375C9.14062 12.375 6.75 14.625 6.1875 18.2812M27 35.2969L32.625 33.0469L33.6094 35.7187C33.6094 35.7187 30.5156 40.0781 24.3281 41.7656L27 35.2969Z" fill="#AA8866"/>
<path d="M27.7035 16.8741C27.2816 16.8741 27.0004 17.0148 26.5785 17.0148H26.2973C26.016 17.0148 25.5941 17.1554 25.3129 17.296C24.7504 17.4366 24.0473 17.7179 23.766 18.2804C23.766 18.421 23.6254 18.5616 23.4848 18.8429C25.7348 18.2804 27.7035 18.9835 28.266 19.8273C29.1098 20.8116 30.0941 21.9366 31.9223 21.3741C33.891 20.8116 31.5004 17.8585 27.7035 16.8741ZM10.9691 16.4523C9.42227 16.0304 7.17227 17.0148 5.90664 17.8585C6.04727 18.421 6.04727 18.5616 6.04727 19.2648C8.4379 17.7179 11.1098 18.7023 11.8129 19.6866C12.516 20.8116 13.2191 21.9366 14.766 21.3741C16.1723 20.8116 14.0629 17.296 10.9691 16.4523ZM41.6254 11.1085L39.6566 17.5773C39.6566 17.5773 28.4066 11.3898 18.2816 15.4679L16.3129 16.171C16.3129 16.171 7.31289 14.3429 6.60977 12.6554C6.60977 12.6554 4.5004 9.28039 7.45352 5.20226C7.45352 5.20226 7.8754 5.90539 8.29727 7.45226C8.29727 7.45226 9.42227 3.79601 14.0629 2.10851C14.0629 2.10851 13.3598 2.67101 13.641 5.20226C13.641 5.20226 18.7035 0.421011 24.4691 0.561636C24.4691 0.561636 22.9223 1.96789 22.9223 4.63976C22.9223 4.63976 28.6879 3.09289 35.4379 4.07726C35.4379 4.07726 34.5941 5.76476 33.0473 7.31164C32.9066 7.17101 37.4066 8.85851 41.6254 11.1085Z" fill="#63310F"/>
<path d="M38.9528 10.8274L37.2653 16.1711C37.2653 16.1711 27.7028 10.968 19.1247 14.343L17.4372 14.9055C17.4372 14.9055 8.71846 13.4992 8.15596 12.093C8.15596 12.093 6.32783 9.9836 7.45283 7.31173C7.45283 7.31173 8.29658 8.8586 8.71846 10.1242C8.71846 10.1242 8.85908 5.34298 12.7966 3.93673C12.7966 3.93673 12.2341 4.49923 12.5153 6.46798C12.5153 6.46798 17.8591 1.82735 22.781 1.96798C22.781 1.96798 20.6716 3.93673 20.6716 6.18673C20.6716 6.18673 27.8435 4.07735 33.7497 4.9211C33.7497 4.9211 33.0466 6.32735 31.6403 7.59298C31.6403 7.45235 35.4372 8.8586 38.9528 10.8274Z" fill="url(#paint0_linear_52_57730)"/>
<path d="M32.625 14.9062L29.5312 17.5781C29.5312 17.5781 32.9062 22.3594 32.2031 27.1406L40.6406 23.625L40.0781 17.0156C40.0781 17.0156 35.8594 14.9062 32.625 14.9062ZM34.1719 29.25C34.1719 29.25 36.7031 27.1406 38.1094 27.2812C39.5156 27.4219 41.0625 35.0156 36 36C30.9375 36.9844 34.1719 29.25 34.1719 29.25Z" fill="#63310F"/>
<path d="M35.719 28.9685C35.719 28.9685 38.5315 26.4373 40.219 26.5779C41.9065 26.7185 43.4533 35.7185 37.6877 36.9842C31.9221 38.2498 35.719 28.9685 35.719 28.9685Z" fill="#63310F"/>
<path d="M33.6089 28.5464C33.6089 28.5464 37.1246 25.8745 38.8121 26.0151C40.4996 26.1558 42.4683 34.5933 36.2808 35.5776C30.0933 36.7026 33.6089 28.5464 33.6089 28.5464Z" fill="#E8BD89"/>
<path d="M34.5936 28.8274C34.5936 28.8274 36.703 27.2805 37.9686 27.4211C39.2342 27.5618 40.6405 33.1868 36.2811 33.7493C31.9217 34.4524 34.5936 28.8274 34.5936 28.8274Z" fill="#C18053"/>
<path d="M34.0311 29.2493C34.0311 29.2493 36.1405 27.7024 37.4061 27.843C38.6717 27.9836 40.078 33.6086 35.7186 34.1711C31.3592 35.0149 34.0311 29.2493 34.0311 29.2493Z" fill="#CE9D67"/>
<path d="M33.7499 28.8274C34.8749 24.6087 30.6562 23.4837 30.6562 23.4837C30.6562 23.4837 28.2655 22.6399 26.1562 24.1868C25.0312 22.0774 22.7812 21.6556 22.7812 21.6556C22.7812 21.6556 18.8437 20.3899 17.1562 25.1712C15.4687 30.0931 22.4999 35.4368 22.9218 35.8587C23.4843 35.5774 32.4843 33.7493 33.7499 28.8274ZM15.328 26.8587C15.6093 23.9056 12.6562 23.6243 12.6562 23.6243C12.6562 23.6243 10.9687 23.3431 9.84365 24.6087C8.85928 23.3431 7.3124 23.2024 7.3124 23.2024C7.3124 23.2024 4.4999 22.7806 4.07803 26.1556C3.65615 29.6712 8.85928 32.4837 9.14053 32.6243C9.5624 32.4837 15.1874 30.3743 15.328 26.8587Z" fill="#63310F"/>
<path d="M14.6249 25.0307C14.7656 21.5151 11.3906 21.0932 11.3906 21.0932C11.3906 21.0932 9.42182 20.812 8.01557 22.2182C6.89057 20.6713 5.06245 20.5307 5.06245 20.5307C5.06245 20.5307 1.68745 20.1088 1.12495 24.0463C0.562447 28.1245 8.57807 32.062 8.85932 32.3432L8.7187 31.6401L7.87495 31.9213L8.57807 31.3588C9.14057 31.2182 14.4843 29.2495 14.6249 25.0307Z" fill="#63310F"/>
<path d="M30.9375 27.1406C31.0781 27.1406 35.1562 26.5781 35.1562 26.5781L35.2969 27.7031L30.9375 29.8125L31.3594 27.5625L30.9375 27.1406Z" fill="#AE021D"/>
<path d="M38.8125 17.4375L30.9375 18.2813C30.9375 18.2813 32.0625 19.6875 32.4844 21.9375L37.125 20.3906C37.4062 20.3906 39.6563 19.8281 39.6563 19.8281L38.8125 17.4375Z" fill="url(#paint1_linear_52_57730)"/>
<path d="M33.0469 4.92188C33.0469 4.92188 29.6719 7.03125 25.7344 7.59375L32.4844 9.5625L25.7344 10.5469C23.7656 10.6875 21.6562 11.1094 21.6562 11.1094L31.2188 12.375C31.2188 12.375 23.7656 12.5156 20.3906 14.0625C20.3906 14.0625 29.5312 12.375 37.125 16.3125L38.3906 15.8906L40.6406 11.6719C40.6406 11.6719 36.8438 9.42188 34.0313 8.85938L32.0625 8.15625L33.4687 5.0625L33.0469 4.92188Z" fill="#B85A1B"/>
<path d="M41.2031 11.8125L33.1875 11.6719L37.125 13.5L29.5312 13.7812C29.5312 13.7812 33.3281 14.2031 35.0156 16.7344L36.2812 17.1562L39.0937 16.4531L41.2031 11.8125Z" fill="#63310F"/>
<path d="M7.3125 10.5469C7.3125 10.5469 9.84375 12.375 11.9531 12.6562L22.0781 13.5L17.7188 15.4688C17.7188 15.4688 10.6875 14.4844 9.28125 13.5C8.01563 12.5156 7.3125 10.5469 7.3125 10.5469Z" fill="#B85A1B"/>
<path d="M14.6251 24.0469C14.7657 22.5 13.922 21.7969 13.2189 21.375C12.6564 21.0937 11.8126 21.0938 11.1095 21.2344C10.547 21.375 9.56262 21.7969 8.8595 22.3594C8.297 21.6562 7.59387 21.2344 7.03137 21.0938C6.18762 20.6719 5.20325 20.6719 4.3595 21.0938C3.65637 21.375 2.95325 22.0781 2.81262 23.4844C2.39075 26.5781 8.01575 29.25 8.297 29.3906C8.57825 29.25 14.4845 27.1406 14.6251 24.0469Z" fill="#960F0F"/>
<path d="M34.3125 26.2973C34.875 24.0473 34.0313 22.9223 33.0469 22.2192C32.2032 21.5161 30.9375 21.2348 29.8125 21.3755C28.8282 21.5161 27.4219 21.7973 26.2969 22.5005C25.7344 21.3755 24.75 20.6723 24.0469 20.1098C22.9219 19.2661 21.5157 18.9848 20.1094 19.4067C18.9844 19.688 17.8594 20.5317 17.1563 22.3598C15.6094 26.7192 23.0625 31.9223 23.4844 32.3442C24.0469 32.2036 33.1875 30.7973 34.3125 26.2973Z" fill="#960F0F"/>
<path d="M35.0158 27.7045C36.1408 23.4858 31.5002 22.2202 31.5002 22.2202C31.5002 22.2202 28.8283 21.3764 26.5783 22.7827C25.3127 20.5327 22.9221 20.1108 22.9221 20.1108C22.9221 20.1108 18.4221 18.8452 16.7346 23.4858C15.0471 28.267 22.7814 33.892 23.2033 34.3139C23.7658 34.3139 33.6096 32.6264 35.0158 27.7045Z" fill="#960F0F"/>
<path d="M33.8907 26.8598C34.4532 24.6098 33.6094 23.4848 32.625 22.7817C31.7813 22.0786 30.5157 21.7973 29.3907 21.938C28.4063 22.0786 27 22.3598 25.875 23.063C25.3125 21.938 24.3282 21.2348 23.625 20.6723C22.5 19.8286 21.0938 19.5473 19.6875 19.9692C18.5625 20.2505 17.4375 21.0942 16.7344 22.9223C15.1875 27.2817 22.6407 32.4848 23.0625 32.9067C23.625 32.7661 32.7657 31.3598 33.8907 26.8598Z" fill="#FF5C5C"/>
<path d="M30.6558 26.1572C31.0777 24.4697 30.3745 23.626 29.6714 23.0635C28.9683 22.6416 28.1245 22.3603 27.2808 22.501C26.5777 22.6416 25.5933 22.7822 24.6089 23.3447C24.187 22.501 23.4839 21.9385 22.9214 21.6572C22.0777 21.0947 20.9527 20.8135 19.9683 21.0947C19.1245 21.376 18.2808 21.9385 17.8589 23.3447C16.7339 26.5791 22.2183 30.376 22.4995 30.6572C23.062 30.5166 29.812 29.5322 30.6558 26.1572Z" fill="#F98B8B"/>
<path d="M20.1094 27.2815C19.4062 27.2815 18.7031 27.1409 18.4219 26.719C18.1406 26.2971 17.7188 25.8753 17.7188 25.1721C17.7188 23.6253 19.9687 20.5315 22.5 22.7815C25.1719 25.0315 21.7969 27.1409 20.1094 27.2815Z" fill="#FFBDBD"/>
<path d="M30.6559 23.7652C30.3747 23.7652 30.234 23.7652 30.0934 23.6246C29.9528 23.484 29.8122 23.3433 29.9528 23.0621C29.9528 22.4996 30.7965 21.3746 31.6403 22.0777C32.484 22.7808 31.2184 23.6246 30.6559 23.7652Z" fill="white"/>
<path d="M22.5002 23.2035C22.3595 23.4847 22.0783 23.766 21.797 23.9066C21.5158 24.0472 21.0939 24.0472 20.672 24.0472C19.6877 23.766 18.422 22.3597 20.3908 21.516C22.3595 20.5316 22.7814 22.3597 22.5002 23.2035Z" fill="#FFBDBD"/>
<path d="M15.3283 25.4524C15.469 22.4993 12.094 22.218 12.094 22.218C12.094 22.218 10.1252 21.9368 8.71897 23.2024C7.59397 21.7962 5.76584 21.7962 5.76584 21.7962C5.76584 21.7962 2.53147 21.3743 1.96897 24.7493C1.40647 28.1243 7.73459 31.0774 8.01584 31.218C8.43772 31.0774 15.1877 28.968 15.3283 25.4524Z" fill="#960F0F"/>
<path d="M14.6251 24.75C14.7657 23.2031 13.922 22.5 13.2189 22.0781C12.5157 21.7969 11.672 21.6563 10.9689 21.9375C10.4064 22.0781 9.422 22.5 8.71887 23.0625C8.15637 22.3594 7.45325 21.9375 6.89075 21.7969C6.047 21.375 5.06262 21.375 4.21887 21.7969C3.51575 22.0781 2.81262 22.7813 2.672 24.1875C2.25012 27.2813 7.87512 29.9531 8.15637 30.0937C8.43762 29.9531 14.4845 27.8438 14.6251 24.75Z" fill="#FF5C5C"/>
<path d="M12.3753 24.6094C12.3753 23.4844 11.9535 22.9219 11.391 22.6406C10.8285 22.3594 10.266 22.3594 9.70345 22.5C9.28158 22.6406 8.57845 22.9219 8.01595 23.3438C7.59408 22.9219 7.03158 22.5 6.6097 22.3594C5.90658 22.0781 5.20345 22.0781 4.64095 22.3594C4.07845 22.6406 3.65658 23.0625 3.51595 24.0469C3.09408 26.2969 7.31283 28.2656 7.59408 28.4063C7.87533 28.5469 12.2347 27 12.3753 24.6094Z" fill="#F98B8B"/>
<path d="M7.31214 24.0468C7.17152 24.4687 6.89027 24.8906 6.46839 25.1718C6.04652 25.4531 5.62464 25.5937 5.06214 25.5937C3.79652 25.5937 1.82777 24.1875 4.21839 22.5C6.74964 20.9531 7.59339 22.9218 7.31214 24.0468Z" fill="#FFBDBD"/>
</g>
<defs>
<linearGradient id="paint0_linear_52_57730" x1="7.05599" y1="9.01329" x2="38.923" y2="9.01329" gradientUnits="userSpaceOnUse">
<stop stop-color="#F38C05"/>
<stop offset="1" stop-color="#B85A1B"/>
</linearGradient>
<linearGradient id="paint1_linear_52_57730" x1="30.8731" y1="19.6871" x2="39.6667" y2="19.6871" gradientUnits="userSpaceOnUse">
<stop stop-color="#F38C05"/>
<stop offset="1" stop-color="#B85A1B"/>
</linearGradient>
<clipPath id="clip0_52_57730">
<rect width="45" height="45" fill="white"/>
</clipPath>
</defs>
</svg>
