<svg width="30" height="30" viewBox="0 0 30 30" fill="none" xmlns="http://www.w3.org/2000/svg">
<g clip-path="url(#clip0_52_69802)">
<path d="M4.96875 2.34334L3.84375 0.749594C3.84375 0.749594 9.09375 -2.15666 13.2188 3.09334C13.2188 3.09334 14.4375 4.59334 13.6875 5.90584L14.625 7.59334C14.625 7.59334 16.5938 6.46834 17.5312 8.53084C17.5312 8.53084 19.125 7.12459 20.625 9.09334L21.1875 7.87459C21.1875 7.87459 22.5938 5.90584 23.3438 8.99959C23.3438 8.99959 24.375 7.21834 25.875 8.06209C27.375 8.90584 26.3438 11.9058 26.3438 11.9058C26.3438 11.9058 27.2812 10.9683 27.75 11.4371C28.2188 11.9058 28.0312 13.7808 27.4687 15.2808C26.9062 16.7808 26.7188 17.0621 26.7188 17.0621L20.1562 16.8746L11.25 11.7183L4.96875 2.34334Z" fill="#472E1D"/>
<path d="M28.4992 19.3117C28.4992 19.0305 28.218 18.6555 27.9367 18.468C27.7492 18.1867 27.468 17.9992 27.093 17.9992C27.1867 17.8117 27.3742 17.5305 27.468 17.343C27.843 16.4992 28.0305 15.7492 28.1242 15.093C28.593 13.4992 28.4055 12.093 28.1242 11.9055H28.0305C27.9367 11.6242 27.9367 11.4367 27.843 11.4367C27.5617 11.2492 27.093 11.718 26.8117 11.9992C26.5305 12.093 26.2492 12.468 25.968 12.6555L26.2492 11.9055C26.4367 11.4367 26.4367 11.0617 26.4367 10.7805C26.4367 10.6867 26.5305 10.6867 26.5305 10.593C26.9055 9.46795 26.718 8.90545 26.343 8.71795C26.1555 7.96795 25.4992 7.8742 25.0305 7.8742C24.5617 7.8742 23.9055 9.1867 23.4367 10.0305L22.968 10.968C23.0617 10.6867 23.0617 10.4055 23.0617 10.1242C23.343 9.3742 23.5305 8.2492 22.8742 7.8742C22.7805 7.59295 22.6867 7.3117 22.4055 7.21795C21.7492 6.9367 20.9055 8.2492 20.4367 9.09295C20.1555 8.8117 19.7805 8.71795 19.4992 8.6242C19.218 8.15545 18.6555 8.0617 18.2805 8.0617C18.1867 8.0617 18.093 8.0617 18.093 8.15545H17.9055C17.718 8.15545 17.4367 8.4367 17.1555 8.8117C17.1555 8.34295 17.0617 7.96795 16.6867 7.78045C16.4992 7.6867 16.3117 7.78045 16.1242 7.8742C16.0305 7.59295 15.9367 7.40545 15.6555 7.3117C15.3742 7.21795 15.093 7.3117 14.8117 7.6867C14.6242 7.78045 14.5305 7.8742 14.343 8.0617L12.1867 5.53045C12.5617 4.8742 12.6555 3.84295 12.468 3.5617C12.2805 3.09295 8.43674 -0.750799 5.24924 0.280451L4.49924 0.561701C4.40549 0.561701 4.40549 0.655451 4.40549 0.655451L4.03049 1.03045H3.93674C3.65549 1.21795 3.56174 1.3117 3.46799 1.40545C3.28049 1.4992 3.09299 1.78045 3.09299 1.78045C2.99924 1.78045 2.81174 1.96795 2.81174 1.96795C2.06174 3.09295 2.06174 4.40545 2.34299 5.71795C2.43674 6.65545 2.71799 7.4992 2.99924 8.15545C2.99924 8.34295 3.09299 8.53045 3.18674 8.6242C3.37424 9.09295 3.56174 9.46795 3.65549 9.5617C3.93674 9.84295 4.40549 10.1242 4.78049 10.0305C4.96799 10.1242 5.15549 10.1242 5.24924 10.1242L6.84299 13.1242C6.37424 13.593 5.99924 14.2492 5.81174 14.8117C5.53049 15.843 3.65549 19.3117 3.09299 20.4367C2.71799 21.2805 2.71799 21.7492 2.71799 23.0617C2.62424 23.718 2.62424 24.468 2.90549 25.218C2.90549 26.0617 3.37424 26.6242 3.93674 27.1867C4.31174 27.7492 4.78049 28.3117 5.43674 28.7805C5.99924 29.2492 6.56174 29.5305 7.12424 29.718C8.24924 30.468 9.65549 30.1867 11.0617 29.5305C11.1555 29.4367 11.343 29.4367 11.4367 29.343C12.1867 29.1555 12.9367 28.7805 13.7805 28.3117C13.8742 28.4055 13.968 28.4055 13.968 28.4055C14.4367 28.8742 14.9992 29.0617 15.5617 29.0617C16.4992 29.2492 17.6242 28.8742 18.6555 28.3117C22.3117 27.2805 27.3742 21.843 27.2805 21.3742C27.2805 21.1867 28.0305 20.4367 27.9367 20.343C28.3117 19.6867 28.4992 19.4055 28.4992 19.3117Z" fill="#472E1D"/>
<path d="M6.28112 0.749461H6.18737C6.18737 0.749461 5.53112 1.31196 5.34362 1.31196C5.06237 1.31196 4.87487 1.59321 4.87487 1.59321C2.81237 3.93696 5.06237 8.53071 5.43737 8.90571C5.71862 9.28071 6.46862 9.74946 6.84362 9.28071C7.21862 8.81196 9.46862 6.93696 9.74987 6.74946C10.4999 6.46821 12.1874 6.46821 12.7499 6.37446C13.4061 6.28071 13.7811 4.68696 13.4999 4.21821C13.1249 3.65571 9.46862 -0.281789 6.28112 0.749461Z" fill="#8E4332"/>
<path d="M5.25 7.3125L10.3125 17.3438C10.3125 17.3438 8.8125 20.25 9.09375 22.2188C9.375 24.1875 11.3437 27.9375 13.5 26.5312C15.6562 25.125 16.9688 22.4062 16.9688 22.4062C16.9688 22.4062 21.375 24.0938 22.6875 21.0938C24.0938 18.0938 23.25 15.9375 22.5938 15.375C21.9375 14.7187 19.5 13.4062 18.4688 13.3125C17.4375 13.2188 16.4062 12.75 16.4062 12.75L11.0625 2.625C11.0625 2.625 6.5625 3.46875 5.25 7.3125Z" fill="#9A4C18"/>
<path d="M6.1875 7.21872L12.1875 17.8125C12.1875 17.8125 9.75 20.0625 10.0312 22.125C10.3125 24.1875 12.2812 27.8437 14.4375 26.4375C16.6875 25.0312 17.9062 22.3125 17.9062 22.3125C17.9062 22.3125 22.3125 24 23.625 21C25.0312 18 23.5312 16.0312 22.875 15.4687C22.2188 14.8125 20.4375 13.3125 19.4062 13.2187C18.375 13.125 17.3438 12.6562 17.3438 12.6562L11.25 3.37497C11.4375 3.28122 7.5 3.37497 6.1875 7.21872Z" fill="#9A4C18"/>
<path d="M5.90625 8.15528L11.25 17.7178C11.25 17.7178 9 19.7803 9.28125 21.5615C9.5625 23.3428 11.25 26.624 13.2188 25.4053C15.1875 24.1865 16.4062 21.749 16.4062 21.749C16.4062 21.749 20.3438 23.249 21.5625 20.5303C22.7812 17.8115 22.0312 15.9365 21.4687 15.374C20.9062 14.8115 18.75 13.6865 17.8125 13.499C16.9688 13.4053 16.0312 13.0303 16.0312 13.0303L11.0625 4.03028C11.0625 3.93653 7.125 4.78028 5.90625 8.15528Z" fill="#F7BB8A"/>
<path d="M5.90659 0.749107H5.81284C5.81284 0.749107 5.25034 1.40536 4.96909 1.40536C4.68784 1.40536 4.50034 1.68661 4.50034 1.68661C2.43784 4.03036 4.50034 8.43661 4.78159 8.81161C5.06284 9.18661 5.71909 9.56161 6.09409 9.09286C6.46909 8.62411 8.62534 6.74911 8.90659 6.46786L12.2816 5.15536C12.8441 5.06161 12.7503 4.31161 12.5628 3.84286C12.3753 3.46786 9.00034 -0.282143 5.90659 0.749107Z" fill="#C95D5D"/>
<path d="M5.4371 1.21955C5.34335 1.21955 5.34335 1.21955 5.4371 1.21955C5.34335 1.21955 4.8746 1.78205 4.59335 1.78205C4.40585 1.78205 4.21835 1.96955 4.21835 1.96955C2.53085 3.84455 4.40585 7.59455 4.59335 7.8758C4.8746 8.15705 5.4371 8.53205 5.71835 8.15705C5.9996 7.78205 7.8746 6.28205 8.0621 6.09455C8.71835 5.8133 10.4996 5.15705 10.8746 5.0633C11.3433 4.96955 11.2496 4.3133 11.0621 4.03205C10.9683 3.5633 7.96835 0.375803 5.4371 1.21955Z" fill="#EF9595"/>
<path opacity="0.28" d="M12.8438 17.625C12.8438 17.625 14.25 15.375 15.5625 14.5312C16.9688 13.7812 17.1563 13.5 16.875 13.2187C16.5938 12.9375 15.9375 12.75 15.75 12.75C15.5625 12.75 14.25 13.7812 13.3125 14.9062L11.625 16.875C11.625 17.0625 12.4688 18.0937 12.8438 17.625Z" fill="#96745C"/>
<path d="M8.53125 7.21875L11.625 12.2813C11.625 12.2813 12.8438 14.4375 12.75 14.7188C12.6563 15 11.4375 15.9375 11.4375 15.9375C11.4375 15.9375 10.4062 15.4688 10.2187 14.8125C10.0312 14.1563 6.9375 8.71875 6.9375 8.71875C6.9375 8.71875 7.6875 7.21875 8.53125 7.21875ZM10.4063 20.9062C10.4063 20.9062 10.875 19.125 11.7188 18.75C12.4688 18.375 13.5 18.2813 13.4062 18.9375C13.3125 19.5938 13.0313 20.25 12.75 20.7188L11.625 22.7812C11.4375 23.1562 10.5 23.25 10.3125 22.7812C10.125 22.3125 10.4063 20.9062 10.4063 20.9062Z" fill="#FCD5BB"/>
<path opacity="0.28" d="M11.4375 25.6875C11.4375 25.6875 14.1563 24.4688 14.8125 23.1562C15.5625 21.8438 16.2187 20.625 17.1562 20.5312C18.0937 20.4375 19.4062 20.8125 20.1562 19.9687C20.9062 19.125 21.8438 17.625 21.375 16.7812C20.9062 15.9375 18 13.5 18 13.5C18 13.5 19.4062 13.7812 19.9688 14.0625C20.5312 14.3437 23.9063 16.5937 23.0625 18.2812C22.2188 19.9687 22.0312 23.625 16.7812 22.0312C16.7812 22.0312 16.5 22.7812 16.3125 23.0625C16.125 23.3437 13.0313 27.2812 11.4375 25.6875ZM10.6875 4.96875C10.6875 4.96875 14.7188 13.2187 15.375 13.4062C16.0312 13.6875 18 13.125 18 13.125C18 13.125 16.6875 13.2187 16.2187 12.375C15.75 11.5312 12 4.5 12 4.5L10.6875 4.96875Z" fill="#96745C"/>
<path d="M5.4375 1.21875C5.4375 1.21875 5.90625 3.46875 6.28125 3.9375C6.65625 4.3125 7.3125 5.34375 7.03125 5.53125C6.75 5.71875 6.1875 5.25 5.90625 4.96875C5.53125 4.78125 4.78125 1.59375 4.78125 1.59375C4.78125 1.59375 4.96875 1.21875 5.4375 1.21875Z" fill="#C95D5D"/>
<path opacity="0.23" d="M4.21875 7.40629C4.21875 7.40629 5.25 8.06254 5.90625 7.40629C6.5625 6.75004 7.96875 5.81254 8.53125 5.34379C9.1875 4.87504 9.9375 2.62504 9.375 1.78129C8.8125 0.937538 12.0937 4.21879 12.0937 4.21879L11.625 5.15629L8.90625 6.46879L5.71875 9.00004C5.71875 9.00004 4.40625 8.62504 4.21875 7.40629Z" fill="#AF644E"/>
<path d="M14.8125 14.0625L16.875 12.375L18.1875 13.2188L14.8125 14.0625Z" fill="#875F43"/>
<path d="M27.0937 19.9691C26.9999 19.5004 26.5312 18.7504 25.4999 19.8754C25.2187 20.2504 24.7499 20.5316 24.3749 20.8129L26.6249 17.3441C27.3749 15.6566 27.1874 13.9691 26.9062 13.7816C26.6249 13.5941 25.9687 14.3441 25.6874 14.5316C25.4062 14.7191 24.6562 15.9379 24.5624 16.3129C24.4687 16.6879 23.4374 18.3754 23.2499 18.7504C23.0624 19.1254 22.4062 19.6879 22.2187 19.7816C22.0312 19.8754 21.9374 19.6879 21.9374 19.5004C21.9374 19.3129 23.7187 16.3129 23.7187 16.3129C23.7187 16.3129 24.9374 14.2504 25.4999 12.5629C26.0624 10.8754 25.0312 10.6879 24.4687 10.6879C23.9062 10.6879 23.0624 12.7504 22.8749 13.0316C22.6874 13.3129 21.4687 15.9379 20.9999 16.7816C20.5312 17.6254 19.9687 18.0941 19.7812 18.1879C19.5937 18.2816 19.5937 18.1879 19.5937 18.1879L20.1562 16.9691C20.2499 16.6879 22.2187 12.8441 22.4062 12.0941C22.5937 11.4379 22.8749 10.3129 22.2187 9.93788C21.4687 9.56288 20.4374 11.5316 20.2499 11.9066L18.3749 15.3754L16.6874 18.1879C16.4999 18.2816 16.3124 18.2816 16.3124 18.0004C16.3124 17.8129 16.4062 17.3441 16.7812 15.5629C17.1562 13.7816 16.3124 13.0316 15.7499 13.0316C15.1874 13.0316 14.9062 14.6254 14.7187 15.5629C14.5312 16.5004 12.9374 19.5941 12.4687 20.6254C11.9999 21.5629 12.1874 22.1254 12.1874 24.0941C12.2812 26.1566 15.0937 27.1879 15.0937 27.1879C16.2187 28.2191 17.7187 27.8441 19.1249 27.0941C22.3124 26.1566 27.1874 20.4379 27.0937 19.9691Z" fill="#7C563C"/>
<path d="M27.0941 19.9692C27.0004 19.4067 26.1566 18.3754 25.1254 19.5004C24.8441 19.8754 24.3754 20.1567 24.0004 20.5317C24.9379 19.2192 25.8754 17.7192 26.2504 16.9692C27.0941 15.2817 26.8129 13.5004 26.5316 13.2192C26.2504 13.0317 25.5941 13.7817 25.3129 13.9692C25.0316 14.1567 24.2816 15.4692 24.1879 15.7504C24.0941 16.1254 23.0629 17.8129 22.8754 18.2817C22.6879 18.7504 22.0316 19.3129 21.8441 19.3129C21.6566 19.4067 21.5629 19.2192 21.5629 19.0317C21.5629 18.8442 23.3441 15.7504 23.3441 15.7504C23.3441 15.7504 24.5629 13.5942 25.1254 11.8129C25.6879 10.0317 24.6566 9.84419 24.0941 9.84419C23.5316 9.84419 22.5941 11.9067 22.5004 12.2817C22.3129 12.5629 21.0941 15.2817 20.6254 16.1254C20.1566 16.9692 19.5004 17.4379 19.4066 17.5317C19.2191 17.6254 19.2191 17.5317 19.2191 17.5317L19.7816 16.3129C19.8754 16.0317 21.8441 12.0004 22.1254 11.3442C22.3129 10.6879 22.6879 9.46919 21.9379 9.18794C21.1879 8.81294 20.0629 10.8754 19.8754 11.2504L17.9066 14.8129L16.1254 17.7192C15.9379 17.8129 15.7504 17.8129 15.7504 17.5317C15.7504 17.3442 15.8441 16.8754 16.2191 15.0004C16.5941 13.2192 15.7504 12.3754 15.1879 12.3754C14.6254 12.3754 14.3441 13.9692 14.0629 14.9067C13.8754 15.8442 12.1879 19.1254 11.8129 20.0629C11.3441 21.0942 11.4379 21.5629 11.5316 23.6254C11.6254 25.6879 14.4379 26.8129 14.4379 26.8129C15.5629 27.8442 17.0629 27.4692 18.4691 26.7192C21.9379 25.9692 27.1879 20.5317 27.0941 19.9692Z" fill="#7C563C"/>
<path d="M27.6562 19.1254C27.5624 18.6566 26.8124 17.6254 25.7812 18.7504C25.4999 19.1254 25.0312 19.4066 24.6562 19.6879L26.9062 16.2191C27.6562 14.5316 27.4687 12.8441 27.1874 12.6566C26.9062 12.4691 26.2499 13.2191 25.9687 13.4066C25.6874 13.5941 24.9374 14.8129 24.8437 15.1879C24.7499 15.5629 23.7187 17.2504 23.5312 17.6254C23.3437 18.0941 22.6874 18.5629 22.4999 18.6566C22.3124 18.7504 22.2187 18.5629 22.2187 18.3754C22.2187 18.1879 23.9999 15.1879 23.9999 15.1879C23.9999 15.1879 25.2187 13.1254 25.7812 11.4379C26.3437 9.75038 25.3124 9.56288 24.7499 9.56288C24.1874 9.56288 23.3437 11.6254 23.1562 11.9066C22.9687 12.1879 21.7499 14.8129 21.2812 15.6566C20.8124 16.5004 20.2499 16.9691 20.0624 17.0629C19.8749 17.1566 19.8749 17.0629 19.8749 17.0629L20.4374 15.8441C20.5312 15.5629 22.4999 11.7191 22.6874 10.9691C22.8749 10.3129 23.1562 9.18788 22.4999 8.81288C21.7499 8.43788 20.7187 10.4066 20.5312 10.7816L18.6562 14.2504L16.9687 17.0629C16.7812 17.1566 16.5937 17.1566 16.5937 16.8754C16.5937 16.6879 16.6874 16.2191 17.0624 14.4379C17.4374 12.6566 16.5937 11.9066 16.0312 11.9066C15.4687 11.9066 15.1874 13.5004 14.9999 14.4379C14.8124 15.3754 13.2187 18.4691 12.7499 19.5004C12.2812 20.4379 12.4687 21.0004 12.4687 22.9691C12.5624 25.0316 15.3749 26.0629 15.3749 26.0629C16.4999 27.0941 17.9999 26.7191 19.4062 25.9691C22.4999 24.9379 27.6562 19.5941 27.6562 19.1254Z" fill="#7C563C" stroke="#7C563C" stroke-width="0.0704454" stroke-miterlimit="10"/>
<path d="M15.2812 12.2812C15.2812 12.2812 17.7188 12.6563 17.1562 16.0312L16.4063 17.8125H15.75L15.2812 12.2812Z" fill="#A3704D"/>
<path d="M26.4382 19.8755C26.3444 19.4067 25.5944 18.4692 24.6569 19.5005L23.6257 20.438C24.4694 19.2192 25.4069 17.9067 25.6882 17.1567C26.4382 15.563 26.2507 13.9692 25.9694 13.7817C25.6882 13.5942 25.1257 14.2505 24.8444 14.438C24.5632 14.6255 23.9069 15.7505 23.8132 16.1255C23.7194 16.4067 22.7819 18.0942 22.5944 18.4692C22.4069 18.8442 21.7507 19.4067 21.6569 19.4067C21.4694 19.5005 21.3757 19.313 21.3757 19.1255C21.3757 18.938 23.0632 16.1255 23.0632 16.1255C23.0632 16.1255 24.1882 14.1567 24.6569 12.563C25.1257 10.9692 24.1882 10.7817 23.7194 10.7817C23.2507 10.7817 22.4069 12.6567 22.2194 12.938C22.0319 13.2192 20.9069 15.6567 20.5319 16.5005C20.0632 17.2505 19.5007 17.7192 19.4069 17.813C19.3132 17.9067 19.2194 17.813 19.2194 17.813L19.7819 16.688C19.9694 16.4067 21.6569 12.7505 21.9382 12.188C22.1257 11.5317 22.4069 10.5005 21.7507 10.2192C21.0944 9.84423 20.0632 11.7192 19.8757 12.0942L18.0944 15.2817C17.8131 15.8442 16.6882 17.813 16.5007 17.9067C16.3132 18.0005 16.2194 18.0005 16.2194 17.7192C16.2194 17.5317 16.3132 17.063 16.5944 15.4692C16.8757 13.8755 16.1257 13.0317 15.6569 13.1255C15.0944 13.1255 14.9069 14.6255 14.6257 15.4692C14.4382 16.313 12.9382 19.313 12.5632 20.1567C12.1882 21.0942 12.2819 21.563 12.2819 23.438C12.3757 25.313 15.0007 26.3442 15.0007 26.3442C16.0319 27.2817 17.4382 26.9067 18.6569 26.2505C21.6569 25.313 26.4382 20.3442 26.4382 19.8755Z" fill="#A3704D"/>
<path d="M25.4999 20.6255C25.4999 20.1568 24.8436 19.3131 23.9061 20.2506C23.6249 20.5318 23.2499 20.813 22.9686 21.0943L25.0311 18.0943C25.7811 16.5943 25.5936 15.0943 25.4061 14.9068C25.1249 14.7193 24.5624 15.3755 24.2811 15.563C23.9999 15.7505 23.3436 16.8755 23.2499 17.1568C23.1561 17.438 22.2186 18.938 22.0311 19.3131C21.8436 19.6881 21.2811 20.1568 21.0936 20.1568C20.9061 20.2505 20.8124 20.0631 20.9061 19.8756C20.9061 19.6881 22.4999 17.0631 22.4999 17.0631C22.4999 17.0631 23.6249 15.1881 24.0936 13.688C24.6561 12.188 23.7186 11.9068 23.2499 11.9068C22.7811 11.9068 21.9374 13.7818 21.8436 13.9693C21.6561 14.2505 20.5311 16.5943 20.1561 17.3443C19.7811 18.0943 19.2186 18.4693 19.1249 18.563C19.0311 18.6568 18.9374 18.563 18.9374 18.563C18.9374 18.563 19.3124 17.7193 19.4999 17.5318L21.5624 13.2193C21.7499 12.6568 22.0311 11.6255 21.4686 11.2505C20.8124 10.8755 19.8749 12.7505 19.6874 13.0318C19.4999 13.313 18.2811 15.5631 17.9999 16.1256C17.7186 16.6881 16.5936 18.4693 16.4999 18.563C16.3124 18.6568 16.2186 18.6568 16.2186 18.4693C16.2186 18.2818 16.3124 17.9068 16.5936 16.313C16.8749 14.7193 16.2186 13.9693 15.6561 14.063C15.1874 14.063 14.9061 15.4693 14.7186 16.313C14.5311 17.1568 13.1249 19.8756 12.7499 20.8131C12.3749 21.6568 12.4686 22.1255 12.5624 23.813C12.6561 25.5943 15.0936 26.5318 15.0936 26.5318C16.0311 27.3755 17.3436 27.0943 18.4686 26.4381C21.0936 25.5943 25.5936 21.0005 25.4999 20.6255Z" fill="#A3704D"/>
<path opacity="0.34" d="M21.3757 22.6875C21.3757 22.6875 19.4069 20.9062 17.2507 20.9062C15.0007 20.9062 14.4382 22.125 15.0944 22.875C15.7507 23.7188 16.8757 23.9063 17.8132 23.4375C18.6569 22.9688 19.1257 22.7813 19.8757 23.1563C20.6257 23.5313 21.6569 23.25 21.3757 22.6875Z" fill="#A3704D"/>
<path d="M25.2187 18.75L24.6562 19.5L22.875 21.8437C22.875 21.8437 22.5938 21.8437 22.5 21.6562C22.4062 21.4687 25.3125 17.9062 25.3125 17.9062L25.2187 18.8437M23.4375 16.3125L21.5625 19.6875C21.5625 19.6875 21.2812 19.7812 21.1875 19.5937C21.0938 19.4062 23.4375 15.4687 23.4375 15.4687L23.5312 16.4062M21.375 14.5312L19.5 17.9062C19.5 17.9062 19.2187 18 19.125 17.8125C19.0312 17.625 21.375 13.6875 21.375 13.6875L21.4687 14.625M14.3437 24.9375C14.3437 24.9375 15.4687 26.3437 17.625 25.875C19.7812 25.4062 25.6875 20.8125 25.6875 20.8125C25.6875 20.8125 22.5 25.0312 18.8438 26.3437C15.1875 27.75 14.1562 26.1562 14.1562 26.1562L14.3437 24.9375Z" fill="#A3704D"/>
<path d="M15.4688 11.1562C15.4688 11.1562 17.9062 11.5313 17.3438 14.9062L16.5938 16.6875H15.9375L15.4688 11.1562Z" fill="#A3704D"/>
<path d="M27.2816 18.8442C27.1879 18.2817 26.3441 17.2504 25.3129 18.3754C25.0316 18.7504 24.5629 19.0317 24.1879 19.4067C25.1254 18.0942 26.0629 16.5942 26.4379 15.8442C27.2816 14.1567 27.0004 12.3754 26.7191 12.0942C26.4379 11.9067 25.7816 12.6567 25.5004 12.8442C25.2191 13.0317 24.4691 14.3442 24.3754 14.6254C24.2816 15.0004 23.2504 16.6879 23.0629 17.1567C22.8754 17.6254 22.2191 18.1879 22.0316 18.1879C21.8441 18.2817 21.7504 18.0942 21.7504 17.9067C21.7504 17.7192 23.5316 14.6254 23.5316 14.6254C23.5316 14.6254 24.7504 12.4692 25.3129 10.6879C25.8754 8.90669 24.8441 8.71919 24.2816 8.71919C23.7191 8.71919 22.7816 10.7817 22.6879 11.1567C22.5004 11.4379 21.2816 14.1567 20.8129 15.0004C20.3441 15.8442 19.6879 16.3129 19.5941 16.4067C19.4066 16.5004 19.4066 16.4067 19.4066 16.4067L19.9691 15.1879C20.0629 14.9067 22.0316 10.8754 22.3129 10.2192C22.5004 9.56294 22.8754 8.34419 22.1254 8.06294C21.3754 7.68794 20.2504 9.75044 20.0629 10.1254L18.0941 13.6879L16.3129 16.5942C16.1254 16.6879 15.9379 16.6879 15.9379 16.4067C15.9379 16.2192 16.0316 15.7504 16.4066 13.8754C16.7816 12.0942 15.9379 11.2504 15.3754 11.2504C14.8129 11.2504 14.5316 12.8442 14.2504 13.7817C14.0629 14.7192 12.3754 18.0004 12.0004 18.9379C11.5316 19.9692 11.6254 20.4379 11.7191 22.5004C11.8129 24.5629 14.6254 25.6879 14.6254 25.6879C15.7504 26.7192 17.2504 26.3442 18.6566 25.5942C22.1254 24.8442 27.3754 19.3129 27.2816 18.8442Z" fill="#A3704D" stroke="#A3704D" stroke-width="0.0719844" stroke-miterlimit="10"/>
<path d="M26.6257 18.7505C26.5319 18.2817 25.7819 17.3442 24.8444 18.3755L23.8132 19.313C24.6569 18.0942 25.5944 16.7817 25.8757 16.0317C26.6257 14.438 26.4382 12.8442 26.1569 12.6567C25.8757 12.4692 25.3132 13.1255 25.0319 13.313C24.7507 13.5005 24.0944 14.6255 24.0007 15.0005C23.9069 15.2817 22.9694 16.9692 22.7819 17.3442C22.5944 17.7192 21.9382 18.2817 21.8444 18.2817C21.6569 18.3755 21.5632 18.188 21.5632 18.0005C21.5632 17.813 23.2507 15.0005 23.2507 15.0005C23.2507 15.0005 24.3757 13.0317 24.8444 11.438C25.3132 9.84423 24.3757 9.65673 23.9069 9.65673C23.4382 9.65673 22.5944 11.5317 22.4069 11.813C22.2194 12.0942 21.0944 14.5317 20.7194 15.3755C20.2507 16.1255 19.6882 16.5942 19.5944 16.688C19.5007 16.7817 19.4069 16.688 19.4069 16.688L19.9694 15.563C20.1569 15.2817 21.8444 11.6255 22.1257 11.063C22.3132 10.4067 22.5944 9.37548 21.9382 9.09423C21.2819 8.71923 20.2507 10.5942 20.0632 10.9692L18.2819 14.1567C18.0007 14.7192 16.8757 16.688 16.6882 16.7817C16.5007 16.8755 16.4069 16.8755 16.4069 16.5942C16.4069 16.4067 16.5007 15.938 16.7819 14.3442C17.0632 12.7505 16.3132 11.9067 15.8444 12.0005C15.2819 12.0005 15.0944 13.5005 14.8132 14.3442C14.6257 15.188 13.1257 18.188 12.7507 19.0317C12.3757 19.9692 12.4694 20.438 12.4694 22.313C12.5632 24.188 15.1882 25.2192 15.1882 25.2192C16.2194 26.1567 17.6257 25.7817 18.8444 25.1255C21.9382 24.188 26.7194 19.1255 26.6257 18.7505Z" fill="#F7BB8A"/>
<path opacity="0.34" d="M21.6553 21.5625C21.6553 21.5625 19.6866 19.7812 17.5304 19.7812C15.3741 19.7812 14.7178 21 15.3741 21.75C16.0303 22.5938 17.1553 22.7812 18.0928 22.3125C19.0303 21.8437 19.4053 21.6562 20.1553 22.0312C20.9053 22.4062 21.9366 22.125 21.6553 21.5625Z" fill="#E5895B"/>
<path d="M25.407 17.625L24.8445 18.375L23.0633 20.625C23.0633 20.625 22.782 20.625 22.6883 20.4375C22.5945 20.25 25.5008 16.6875 25.5008 16.6875L25.407 17.625ZM23.6258 15.0938L21.7508 18.4688C21.7508 18.4688 21.4695 18.5625 21.3758 18.375C21.282 18.1875 23.6258 14.25 23.6258 14.25L23.7195 15.1875M21.657 13.4063L21.1883 14.25L19.6883 16.7812C19.6883 16.7812 19.407 16.875 19.3133 16.6875C19.2195 16.5 21.5633 12.5625 21.5633 12.5625L21.657 13.5" fill="#A3704D"/>
<path d="M14.625 23.8125C14.625 23.8125 15.75 25.2188 17.9063 24.75C18.9375 24.4688 20.9063 23.3438 22.5938 22.125L25.9688 19.5938C25.9688 19.5938 22.7812 23.8125 19.125 25.125C15.4687 26.5312 14.4375 24.9375 14.4375 24.9375L14.625 23.8125Z" fill="#E8AB82"/>
<path d="M13.3132 10.0321C13.0319 10.4071 11.4382 12.9384 10.9694 13.5946L9.75069 15.2821C9.84444 15.0009 9.93819 14.7196 10.0319 14.2509C10.5007 12.4696 9.65694 11.6259 9.09444 11.7196H9.00069C8.81319 11.3446 9.00069 11.7196 8.71944 11.7196C8.06319 11.8134 7.12569 12.8446 6.75069 13.7821C6.46944 14.7196 4.68819 18.7509 4.12569 19.7821C3.75069 20.7196 3.75069 21.0946 3.65694 22.3134C3.56319 22.9696 3.28194 22.9696 3.56319 23.7196C3.56319 25.7821 6.65694 27.0009 6.65694 27.0009C7.87569 28.0321 9.56319 27.6571 11.1569 26.9071C15.0007 25.9696 21.0944 20.4384 21.0944 19.9696C21.0944 19.8759 21.0944 19.8759 21.0007 19.7821C21.2819 19.5009 21.4694 19.2196 21.4694 19.1259C21.4694 18.7509 21.0007 18.1884 20.3444 18.1884C20.2507 18.0009 19.9694 17.8134 19.7819 17.7196C19.9694 17.4384 20.1569 17.0634 20.3444 16.8759C20.3444 16.8759 20.3444 16.7821 20.4382 16.7821C20.6257 16.5009 20.7194 16.3134 20.9069 16.1259C21.9382 14.3446 21.7507 12.6571 21.4694 12.3759C21.2819 12.2821 21.0944 12.3759 20.8132 12.5634H20.7194C20.7194 12.1884 20.6257 12.0009 20.5319 11.9071C20.2507 11.7196 19.4069 12.4696 19.1257 12.6571C19.4069 12.0946 19.6882 11.5321 19.8757 11.0634C20.5319 9.46962 19.6882 9.18837 19.1257 9.09462C18.9382 8.71962 18.3757 8.62587 18.0007 8.62587C17.7194 8.62587 17.2507 9.18837 16.8757 9.75087C17.0632 9.18837 17.0632 8.62587 16.5007 8.34462C16.3132 8.25087 16.2194 8.34462 16.0319 8.34462C15.9382 8.15712 15.8444 7.96962 15.6569 7.87587C14.9069 7.59462 13.5007 9.65712 13.3132 10.0321Z" fill="#7C563C" stroke="#7C563C" stroke-width="0.0763738" stroke-miterlimit="10"/>
<path d="M8.8125 11.5322C9.46875 11.5322 10.875 12.6572 10.5 14.626L9.9375 17.3447C9.9375 17.626 10.125 17.626 10.3125 17.5322C10.5 17.4385 11.9062 15.001 12.375 14.3447C12.8437 13.6885 14.4375 10.876 14.625 10.501C14.9062 10.126 16.125 7.87598 16.9688 8.25098C17.7188 8.62598 17.3438 9.93847 17.0625 10.6885C16.7813 11.4385 14.4375 15.8447 14.3438 16.126C14.1562 16.4072 13.6875 17.4385 13.6875 17.4385C13.6875 17.4385 13.7812 17.626 13.875 17.4385C14.0625 17.3447 14.7187 16.876 15.2812 15.8447C15.8437 14.9072 17.3438 11.9072 17.5313 11.626C17.7188 11.251 18.8438 9.00098 19.4063 9.00098C19.9688 9.00098 21.0938 9.28222 20.4375 11.1572C19.7812 13.0322 18.2812 15.4697 18.2812 15.4697L16.125 19.126C16.125 19.3135 16.2188 19.501 16.4062 19.501C16.5938 19.4072 17.3437 18.8447 17.625 18.376C17.8125 17.9072 19.0312 15.9385 19.2188 15.5635C19.4062 15.1885 20.25 13.7822 20.5312 13.5947C20.9062 13.4072 21.6562 12.5635 21.9375 12.751C22.2188 13.0322 22.4062 14.9072 21.4688 16.876C21 17.7197 19.875 19.3135 18.8438 20.8135L20.1563 19.6885C21.375 18.4697 22.2188 19.5947 22.2188 20.1572C22.3125 20.7197 16.3125 26.7197 12.5625 27.6572C11.0625 28.501 9.28125 28.876 8.15625 27.751C8.15625 27.751 5.0625 26.5322 5.0625 24.1885C5.0625 21.9385 4.96875 21.376 5.53125 20.251C6.09375 19.126 7.96875 15.5635 8.25 14.5322C8.4375 13.5947 8.15625 11.626 8.8125 11.5322Z" fill="#7C563C"/>
<path d="M7.96868 14.063C8.53118 14.063 9.28118 14.813 8.90618 16.5005L8.53118 18.7505C8.53118 18.938 8.71868 19.0318 8.81243 18.9381C8.99993 18.8443 10.1249 16.8755 10.4062 16.4068L12.1874 13.313C12.3749 13.0318 13.4062 11.1568 14.0624 11.5318C14.7187 11.9068 14.4374 12.938 14.2499 13.5005C14.1562 14.063 12.3749 17.6255 12.1874 17.813C12.0937 18.0943 11.6249 18.9381 11.6249 18.9381C11.6249 18.9381 11.7187 19.0318 11.8124 18.9381C11.9999 18.8443 12.5624 18.4693 12.9374 17.7193C13.4062 16.9693 14.5312 14.5318 14.7187 14.2505C14.9062 13.9693 15.7499 12.0943 16.2187 12.0943C16.6874 12.0943 17.7187 12.3755 17.1562 13.9693C16.5937 15.563 15.4687 17.438 15.4687 17.438L13.7812 20.3443C13.7812 20.5318 13.8749 20.7193 14.0624 20.6255C14.2499 20.5318 14.9062 20.063 14.9999 19.688L16.2187 17.438C16.3124 17.1568 17.0624 16.0318 17.3437 15.8443C17.6249 15.6568 18.2812 15.0006 18.5624 15.1881C18.8437 15.3756 19.0312 17.063 18.2812 18.563C17.9062 19.313 17.0624 20.5318 16.1249 21.7506L17.1562 20.9068C18.0937 19.8755 18.9374 20.9068 18.9374 21.3755C19.0312 21.8443 14.0624 26.6255 10.9687 27.2818C9.65618 27.938 8.24993 28.2193 7.21868 27.188C7.21868 27.188 4.59368 26.0631 4.49993 24.0943C4.49993 22.2193 4.31243 21.7506 4.78118 20.8131C5.24993 19.8756 6.74993 17.063 6.93743 16.2193C7.21868 15.4693 7.49993 14.063 7.96868 14.063Z" fill="#A3704D"/>
<path d="M14.3432 25.875C14.3432 25.875 9.65571 28.0313 8.15571 26.9063C6.65571 25.7813 4.21821 23.9063 5.24946 19.6875C5.24946 19.6875 1.87446 24.0938 5.99946 27.375C10.1245 30.6563 14.3432 25.875 14.3432 25.875Z" fill="#A3704D"/>
<path opacity="0.34" d="M14.2495 23.5314C14.2495 23.5314 12.3745 21.2814 9.93702 21.0001C7.49952 20.7189 6.65577 21.9376 7.31202 22.8751C7.87452 23.8126 9.18702 24.2814 10.2183 23.9064C11.2495 23.5314 11.7183 23.3439 12.562 23.9064C13.312 24.3751 14.437 24.1876 14.2495 23.5314Z" fill="#A3704D"/>
<path d="M15.3749 22.6875C16.8749 21.375 18.8437 18.8438 18.8437 18.8438L18.4687 19.4063L18.8437 19.3125L18.5624 20.3438L15.7499 23.3437C15.5624 23.625 14.9999 23.8125 14.7187 23.625C14.4374 23.4375 15.3749 22.6875 15.3749 22.6875Z" fill="#A3704D"/>
<path d="M15.1875 25.4066C15.1875 25.4066 16.5937 24.0004 16.875 23.1566C17.25 22.4066 17.8125 20.9066 18.1875 20.6254C18.5625 20.4379 19.5 21.0004 19.4062 21.2816C19.4062 21.6566 16.125 24.5629 15.1875 25.4066Z" fill="#A3704D"/>
<path d="M8.53109 11.8135C9.18734 11.8135 10.0311 12.751 9.65609 14.7197L9.09359 17.4385C9.09359 17.7197 9.28109 17.7197 9.46859 17.626C9.65609 17.5322 11.0623 15.0947 11.5311 14.4385L13.7811 10.5947C14.0623 10.2197 15.2811 7.96973 16.1248 8.34473C16.9686 8.81348 16.5936 10.0322 16.3123 10.7822C16.0311 11.5322 13.7811 15.9385 13.5936 16.2197C13.4061 16.501 12.9373 17.5322 12.9373 17.5322C12.9373 17.5322 13.0311 17.7197 13.2186 17.5322C13.4061 17.4385 14.0623 16.9697 14.6248 15.9385C15.1873 15.001 16.6873 12.001 16.8748 11.7197C17.0623 11.3447 18.1873 9.09473 18.7498 9.09473C19.3123 9.09473 20.5311 9.37598 19.7811 11.3447C19.1248 13.3135 17.7186 15.6572 17.7186 15.6572L15.5623 19.3135C15.5623 19.501 15.6561 19.6885 15.8436 19.6885C16.0311 19.5947 16.7811 19.0322 17.0623 18.5635C17.2498 18.0947 18.4686 16.126 18.6561 15.751C18.8436 15.376 19.6873 13.9697 19.9686 13.7822C20.3436 13.5947 21.0936 12.751 21.3748 12.9385C21.7498 13.2197 21.8436 15.1885 20.9061 17.0635C20.4373 17.9072 19.3123 19.501 18.2811 21.001L19.5936 19.876C20.8123 18.6572 21.6561 19.7822 21.7498 20.4385C21.8436 21.001 15.7498 27.001 11.9998 27.8447C10.4061 28.6885 8.71859 29.0635 7.49984 27.8447C7.49984 27.8447 4.31234 26.5322 4.31234 24.1885C4.31234 21.8447 4.21859 21.2822 4.68734 20.251C5.15609 19.126 7.12484 15.5635 7.40609 14.5322C7.49984 13.5947 7.87484 11.8135 8.53109 11.8135Z" fill="#7C563C"/>
<path d="M8.34375 12.5635C9 12.5635 10.0312 12.1885 9.5625 14.1572L9 16.876C9 17.1572 9.1875 17.1572 9.375 17.0635C9.5625 16.9697 10.9687 14.5322 11.4375 13.876C11.9062 13.2197 13.5 10.4072 13.6875 10.0322C13.9688 9.65722 15.1875 7.40723 16.0312 7.78223C16.7812 8.15723 16.4063 9.46972 16.125 10.2197C15.8438 10.9697 13.5 15.376 13.4062 15.6572C13.2188 15.9385 12.75 16.9697 12.75 16.9697C12.75 16.9697 12.8438 17.1572 12.9375 16.9697C13.125 16.876 13.7812 16.4072 14.3438 15.376C14.9062 14.4385 16.4063 11.4385 16.5938 11.1572C16.7813 10.7822 17.9063 8.53223 18.4688 8.53223C19.0313 8.53223 20.1562 8.81347 19.5 10.6885C18.8438 12.5635 17.3438 15.001 17.3438 15.001L15.1875 18.6572C15.1875 18.8447 15.2812 19.0322 15.4688 19.0322C15.6562 18.9385 16.4062 18.376 16.6875 17.9072C16.875 17.4385 18.0938 15.4697 18.2812 15.0947C18.4688 14.7197 19.3125 13.3135 19.5938 13.126C19.9688 12.9385 20.7188 12.0947 21 12.2822C21.2812 12.5635 21.4688 14.4385 20.5312 16.4072C20.0625 17.251 18.9375 18.8447 17.9062 20.3447L19.2188 19.2197C20.4375 18.001 21.2813 19.126 21.2813 19.6885C21.375 20.251 15.375 26.251 11.625 27.1885C10.125 28.0322 8.34375 28.4072 7.21875 27.2822C7.21875 27.2822 4.125 26.0635 4.125 23.7197C4.125 21.4697 4.03125 20.9072 4.59375 19.7822C5.15625 18.6572 7.03125 15.0947 7.3125 14.0635C7.5 13.0322 7.6875 12.5635 8.34375 12.5635Z" fill="#A3704D" stroke="#A3704D" stroke-width="0.0750418" stroke-miterlimit="10"/>
<path d="M8.24984 12.2817C8.81234 12.2817 9.65609 13.1254 9.28109 15.0004L8.81234 17.5317C8.81234 17.8129 8.99984 17.8129 9.18734 17.7192C9.37484 17.6254 10.6873 15.3754 11.0623 14.8129C11.4373 14.2504 12.9373 11.6254 13.1248 11.2504C13.3123 10.8754 14.5311 8.81294 15.2811 9.18794C16.0311 9.56294 15.6561 10.7817 15.4686 11.4379C15.1873 12.0942 13.1248 16.2192 12.9373 16.5004C12.7498 16.7817 12.2811 17.7192 12.2811 17.7192C12.2811 17.7192 12.3748 17.9067 12.4686 17.7192C12.6561 17.6254 13.2186 17.1567 13.7811 16.3129L15.8436 12.3754C16.0311 12.0942 16.9686 9.93794 17.5311 9.93794C18.0936 9.93794 19.1248 10.2192 18.5623 12.0004C17.9061 13.7817 16.5936 15.9379 16.5936 15.9379L14.6248 19.3129C14.6248 19.5004 14.7186 19.6879 14.9061 19.5942C15.0936 19.5004 15.8436 18.9379 16.0311 18.5629L17.4373 16.0317C17.6248 15.6567 18.3748 14.4379 18.6561 14.1567C18.9373 13.9692 19.6873 13.2192 19.9686 13.4067C20.2498 13.6879 20.4373 15.4692 19.5936 17.1567C19.2186 18.0004 18.1873 19.4067 17.1561 20.8129C17.6248 20.5317 17.9998 20.1567 18.3748 19.7817C19.4998 18.6567 20.3436 19.7817 20.3436 20.2504C20.4373 20.7192 14.8123 26.2504 11.3436 27.0942C9.93734 27.8442 8.34359 28.2192 7.21859 27.0942C7.21859 27.0942 4.31234 25.8754 4.31234 23.7192C4.31234 21.5629 4.21859 21.0942 4.68734 20.0629C5.15609 19.0317 6.93734 15.7504 7.12484 14.8129C7.31234 13.8754 7.68734 12.2817 8.24984 12.2817Z" fill="#E8AB82"/>
<path d="M8.53118 12.8443C9.09368 12.8443 9.84368 13.5943 9.46868 15.2818L9.09368 17.5318C9.09368 17.7193 9.28118 17.813 9.37493 17.7193C9.56243 17.6255 10.6874 15.6568 10.9687 15.188L12.7499 12.0943C12.9374 11.813 13.9687 9.93805 14.6249 10.313C15.2812 10.688 14.9999 11.7193 14.8124 12.2818C14.6249 12.938 12.7499 16.5005 12.6562 16.688C12.5624 16.9693 12.0937 17.813 12.0937 17.813C12.0937 17.813 12.1874 17.9068 12.2812 17.813C12.4687 17.7193 13.0312 17.3443 13.4062 16.5943C13.8749 15.8443 14.9999 13.4068 15.1874 13.1255C15.3749 12.8443 16.2187 10.9693 16.6874 10.9693C17.1562 10.9693 18.1874 11.2505 17.6249 12.8443C17.0624 14.438 15.9374 16.313 15.9374 16.313L14.2499 19.2193C14.2499 19.4068 14.3437 19.5943 14.5312 19.5005C14.7187 19.4068 15.3749 18.938 15.4687 18.563L16.6874 16.313C16.7812 16.0318 17.5312 14.9068 17.8124 14.7193C18.0937 14.5318 18.7499 13.8755 19.0312 14.063C19.3124 14.2505 19.4999 15.938 18.7499 17.438C18.3749 18.188 17.5312 19.4068 16.5937 20.6255L17.6249 19.7818C18.5624 18.7505 19.4062 19.7818 19.4062 20.2505C19.4999 20.7193 14.5312 25.5005 11.4374 26.1568C10.1249 26.813 8.71868 27.0943 7.68743 26.063C7.68743 26.063 5.06243 24.938 4.96868 22.9693C4.96868 21.0943 4.78118 20.6255 5.24993 19.688C5.62493 18.7505 7.21868 15.938 7.40618 15.0943C7.78118 14.3443 8.06243 12.938 8.53118 12.8443Z" fill="#FCD6BE"/>
<path d="M14.9057 24.6562C14.9057 24.6562 10.2182 26.8125 8.71821 25.6875C7.21821 24.5625 4.78071 22.6875 5.81196 18.4688C5.81196 18.4688 2.43696 22.875 6.56196 26.1562C10.687 29.4375 14.9057 24.6562 14.9057 24.6562Z" fill="#E8AB82"/>
<path d="M15.9374 21.5625C17.4374 20.25 19.4062 17.7188 19.4062 17.7188L19.0312 18.2813L19.4062 18.1875L19.1249 19.2188L16.3124 22.2188C16.1249 22.5 15.5624 22.6875 15.2812 22.5C14.9999 22.4063 15.9374 21.5625 15.9374 21.5625Z" fill="#A3704D"/>
<path d="M15.75 24.2816C15.75 24.2816 17.1563 22.8754 17.4375 22.0316C17.7188 21.1879 18.375 19.7816 18.75 19.5004C19.125 19.3129 20.0625 19.8754 19.9688 20.1566C19.9688 20.5316 16.6875 23.4379 15.75 24.2816Z" fill="#E8AB82"/>
<path d="M13.0312 11.5321L14.7188 8.43833C15 8.34458 15.6563 8.25083 15.9375 8.43833C16.2188 8.62583 16.4063 8.90708 16.3125 9.46958C16.2188 10.0321 14.3438 13.3133 14.3438 13.3133L13.0312 11.5321ZM17.0625 21.3758L19.5 18.4696C19.7812 18.3758 20.4375 18.2821 20.7188 18.4696C21 18.6571 21.1875 18.9383 21.0938 19.5008C21 20.0633 17.9063 22.7821 17.9063 22.7821L17.0625 21.3758Z" fill="#FCD6BE"/>
<path d="M15.0938 11.1556L13.9688 10.2181C13.9688 10.2181 14.7188 8.6243 15.1875 8.4368C15.6563 8.2493 16.0313 8.4368 16.125 8.71805C16.2188 8.9993 15.75 10.2181 15.0938 11.1556Z" fill="#E85B73"/>
<path d="M17.7187 15.0946C17.7187 15.0946 19.125 13.0321 19.4063 12.9383C19.6875 12.8446 20.3438 12.7508 20.625 12.9383C20.9062 13.1258 21.0937 13.4071 21 13.9696C20.9062 14.5321 18.6562 17.7196 18.6562 17.7196L17.7187 15.0946ZM15.9375 11.9071C15.9375 11.9071 17.3437 9.84458 17.625 9.75083C17.9062 9.65708 18.5625 9.56333 18.8438 9.75083C19.125 9.93833 19.3125 10.2196 19.2188 10.7821C19.125 11.3446 16.875 14.5321 16.875 14.5321L15.9375 11.9071Z" fill="#FCD6BE"/>
<path d="M17.7187 12.5618L16.5938 11.6243C16.5938 11.6243 17.3437 10.0306 17.8125 9.84305C18.2812 9.65555 18.6562 9.84305 18.75 10.1243C18.75 10.4993 18.375 11.6243 17.7187 12.5618ZM19.7812 15.6556L18.6562 14.7181C18.6562 14.7181 19.4062 13.1243 19.875 12.9368C20.3438 12.7493 20.7188 12.9368 20.8125 13.2181C20.8125 13.5931 20.4375 14.7181 19.7812 15.6556ZM19.3125 20.7181L18.9375 19.7806C18.9375 19.7806 20.0625 18.2806 20.5312 18.2806C21 18.2806 21.375 18.5618 21.2812 18.9368C21.0938 19.2181 20.25 20.0618 19.3125 20.7181Z" fill="#E85B73"/>
</g>
<defs>
<clipPath id="clip0_52_69802">
<rect width="30" height="30" fill="white"/>
</clipPath>
</defs>
</svg>
