<svg width="30" height="30" viewBox="0 0 30 30" fill="none" xmlns="http://www.w3.org/2000/svg">
<g clip-path="url(#clip0_52_41805)">
<path d="M3.28151 14.4375C3.28151 14.4375 -0.280992 11.4375 2.15651 6.5625L5.62526 8.4375L3.28151 14.4375ZM17.8128 5.53125C17.8128 5.53125 17.0628 10.5938 21.3753 12.6562C25.6878 14.7188 24.469 20.0625 23.6253 24.75C23.6253 24.75 35.0628 14.625 24.844 3.84375C24.844 3.84375 17.9065 4.5 17.8128 5.53125Z" fill="#993A6E"/>
<path d="M2.34398 10.4071C2.34398 10.4071 1.78148 25.7821 9.09398 28.8759C16.7815 32.0634 24.6565 30.1884 27.5627 12.2821C27.5627 12.2821 25.8752 4.5946 16.8752 4.68835C8.43773 4.68835 2.25023 8.81335 2.34398 10.4071Z" fill="#BC7458"/>
<path d="M3.00014 10.6884C3.00014 10.6884 2.53139 24.9384 9.28138 27.7509C16.4064 30.7509 23.7189 28.9697 26.3439 12.3759C26.3439 12.3759 24.7501 5.25092 16.5001 5.34467C8.71889 5.43842 3.00014 9.28217 3.00014 10.6884Z" fill="#E5A98C"/>
<path d="M3.28114 11.3438C3.28114 11.3438 2.81239 24.1875 9.18739 26.7188C15.7499 29.3438 22.4999 27.75 25.0311 12.8438C25.0311 12.8438 23.5311 6.46875 15.9374 6.46875C8.53114 6.65625 3.18739 10.0313 3.28114 11.3438Z" fill="#E8CCAA"/>
<path d="M3.469 12.1875C3.469 12.1875 3.00025 24.1875 8.81275 26.5312C14.8128 28.9688 21.0003 27.4688 23.2503 13.5938C23.2503 13.5938 21.9378 7.6875 15.0003 7.6875C8.25025 7.78125 3.37525 10.9688 3.469 12.1875Z" fill="#FAEACF"/>
<path d="M2.4375 10.6885C2.4375 10.6885 4.03125 13.3135 7.96875 12.376C11.9063 11.4385 21.9375 4.31347 21.9375 4.31347C21.9375 4.31347 17.3438 0.563473 9.1875 3.18847C4.96875 4.50097 2.625 9.56347 2.4375 10.6885Z" fill="#993A6E"/>
<path d="M9.3747 5.90656C8.2497 6.75031 6.9372 9.65656 5.6247 11.0628C4.40595 12.3753 2.2497 11.6253 1.96845 9.84406C1.6872 7.87531 -0.000301123 4.87531 2.53095 0.0940607C2.53095 0.0940607 6.84345 -0.655939 9.84345 3.00031C10.4997 3.93781 10.3122 5.25031 9.3747 5.90656ZM20.5309 6.56281C21.7497 7.31281 23.531 8.34406 24.9372 9.56281C26.3435 10.6878 28.4059 9.75031 28.4059 7.96906C28.4059 6.00031 28.0309 3.37531 26.6247 0.00031075C26.6247 0.00031075 22.2185 -0.28094 19.781 3.75031C19.2185 4.68781 19.4997 6.00031 20.5309 6.56281Z" fill="#D8649E"/>
<path d="M3.09375 11.4385C3.09375 11.4385 4.6875 14.0635 8.625 13.126C12.5625 12.1885 22.5938 5.06347 22.5938 5.06347C22.5938 5.06347 18 1.31347 9.84375 3.93847C5.53125 5.25097 3.28125 10.3135 3.09375 11.4385Z" fill="#D8649E"/>
<path d="M16.8751 5.25C16.8751 5.25 16.1251 10.3125 20.4376 12.375C24.7501 14.4375 24.6564 19.3125 23.9064 23.9062C23.9064 23.9062 33.0001 12.9375 23.9064 3.46875C23.8126 3.5625 16.9689 4.3125 16.8751 5.25Z" fill="#D8649E"/>
<path d="M21.2813 6.18786C22.2188 6.75036 23.5313 7.50036 24.5625 8.43786C25.5938 9.18786 27.1875 8.53161 27.1875 7.21911C27.1875 5.71911 26.9062 3.75036 25.875 1.31286C25.875 1.31286 22.5938 1.12536 20.7187 4.12536C20.3437 4.78161 20.5313 5.71911 21.2813 6.18786Z" fill="#FFD4F7"/>
<path d="M21.5623 6.56271C22.2185 6.93771 23.156 7.59396 23.906 8.25021C24.656 8.90646 25.6873 8.34396 25.6873 7.40646C25.6873 6.37521 25.4998 4.87521 24.7498 3.00021C24.7498 3.00021 22.406 2.81271 21.1873 4.96896C20.8123 5.53146 20.9998 6.28146 21.5623 6.56271Z" fill="#BF6A93"/>
<path d="M8.43785 5.62484C7.5941 6.18734 6.4691 7.12484 5.5316 8.06234C4.68785 8.99984 3.0941 8.43734 2.9066 7.21859C2.7191 5.81234 2.81285 3.93734 3.4691 1.40609C3.4691 1.40609 6.56285 0.843594 8.7191 3.46859C9.2816 4.12484 9.0941 5.06234 8.43785 5.62484Z" fill="#FFD4F7"/>
<path d="M8.34419 6.0946C7.78169 6.56335 6.93794 7.2196 6.28169 7.9696C5.62544 8.7196 4.50044 8.3446 4.31294 7.4071C4.21919 6.2821 4.31294 4.7821 4.78169 2.9071C4.78169 2.9071 7.03169 2.43835 8.53169 4.50085C9.00044 4.9696 8.90669 5.7196 8.34419 6.0946Z" fill="#BF6A93"/>
<path d="M6.09382 10.6875C6.65632 10.5 7.31257 10.3125 8.25007 10.3125C10.0313 10.4062 11.3438 11.625 11.2501 13.125L10.8751 15.6563C10.5938 16.875 9.46882 17.7188 8.06257 17.8125H7.96882C6.46882 17.9062 5.06257 16.9687 4.78132 15.75C4.59382 15 4.40632 14.0625 4.40632 13.125C4.31257 12.0938 4.96882 11.1562 6.09382 10.6875Z" fill="#3C505B"/>
<path d="M6.1875 11.5313C6.75 11.25 7.40625 11.0625 8.25 11.0625C9.9375 11.1563 11.1563 12.5625 11.0625 14.25L10.6875 17.0625C10.4062 18.375 9.375 19.4062 7.96875 19.5H7.875C6.46875 19.5938 5.15625 18.5625 4.78125 17.1562C4.59375 16.3125 4.40625 15.2812 4.40625 14.25C4.59375 13.0312 5.15625 12 6.1875 11.5313Z" fill="white"/>
<path d="M10.4059 14.2493C9.93711 12.5618 8.71836 11.6243 7.59336 12.0931C6.37461 12.5618 5.53086 14.5306 5.81211 16.5931C6.09336 18.8431 7.59336 20.0618 8.99961 19.2181C10.4059 18.3743 10.8746 16.1243 10.4059 14.2493Z" fill="#D8649E"/>
<path d="M9.93776 13.8752C9.56276 12.6564 8.62526 12.0002 7.78151 12.2814C6.84401 12.6564 6.18776 14.0627 6.46901 15.5627C6.75026 17.2502 7.87526 18.0939 8.90651 17.5314C9.84401 16.9689 10.3128 15.2814 9.93776 13.8752Z" fill="#3C505B"/>
<path d="M8.62519 14.343C8.43769 13.7805 7.87519 13.4993 7.40644 13.6868C6.84394 13.8743 6.56269 14.4368 6.65644 15.093C6.75019 15.7493 7.40644 16.218 8.06269 15.9368C8.53144 15.6555 8.81269 14.9055 8.62519 14.343Z" fill="white"/>
<path d="M20.7188 11.9058C20.1563 11.6246 19.5 11.3433 18.5625 11.3433C16.875 11.2496 15.375 12.3746 15.375 13.8746L15.4688 16.4058C15.6563 17.6246 16.6875 18.5621 18.0937 18.8433H18.1875C19.6875 19.0308 21.0938 18.2808 21.5625 17.0621C21.8438 16.3121 22.0313 15.4683 22.2188 14.4371C22.3125 13.4996 21.75 12.4683 20.7188 11.9058Z" fill="#3C505B"/>
<path d="M20.5312 12.6571C19.9687 12.3758 19.3125 12.0946 18.5625 12.0008C16.875 11.9071 15.5625 13.2196 15.4688 14.9071L15.5625 17.7196C15.6563 19.0321 16.6875 20.1571 18 20.3446H18.0937C19.5 20.5321 20.9063 19.6883 21.2813 18.2821C21.5625 17.5321 21.75 16.5008 21.9375 15.3758C22.0312 14.3446 21.4687 13.2196 20.5312 12.6571Z" fill="white"/>
<path d="M16.125 15.0929C16.6875 13.4054 18 12.6554 19.125 13.2179C20.25 13.7804 20.9062 15.8429 20.5312 17.8116C20.0625 19.9679 18.4687 21.0929 17.1562 20.1554C15.75 19.1241 15.4687 16.8741 16.125 15.0929Z" fill="#D8649E"/>
<path d="M16.687 14.7184C17.1558 13.4996 18.0933 12.9371 18.9371 13.3121C19.8746 13.7809 20.3433 15.1871 19.9683 16.6871C19.5933 18.2809 18.3745 19.1246 17.3433 18.3746C16.4058 17.7184 16.1245 16.0309 16.687 14.7184Z" fill="#3C505B"/>
<path d="M17.9066 15.2814C18.1878 14.8126 18.6566 14.5314 19.1253 14.7189C19.5941 14.9064 19.9691 15.5626 19.7816 16.1251C19.5941 16.7814 18.9378 17.1564 18.3753 16.7814C17.8128 16.5939 17.6253 15.8439 17.9066 15.2814Z" fill="white"/>
<path d="M6.75 9.18821C6.75 9.18821 11.5312 2.62571 16.5 5.15696C16.5 5.15696 17.4375 7.03196 14.7187 8.15696C12 9.28196 6.75 9.18821 6.75 9.18821ZM20.25 7.59446C20.25 7.59446 24.4687 9.00071 25.5937 10.6882C26.7187 12.3757 26.8125 14.6257 25.9687 17.157C25.9687 17.157 25.6875 15.1882 24.9375 13.5945C24.1875 12.0007 22.3125 8.34446 20.25 7.59446Z" fill="#EA7DB8"/>
</g>
<defs>
<clipPath id="clip0_52_41805">
<rect width="30" height="30" fill="white"/>
</clipPath>
</defs>
</svg>
