<svg width="30" height="30" viewBox="0 0 30 30" fill="none" xmlns="http://www.w3.org/2000/svg">
<g clip-path="url(#clip0_52_38959)">
<path d="M6.09375 11.1562C6.09375 11.1562 7.3125 17.7188 6.1875 21L9.84375 18.6562L9.375 13.125L6.09375 11.1562ZM24.6562 22.7812C24.6562 22.7812 28.5938 13.4063 24.1875 6.09375L20.4375 12.5625L20.9062 20.5313L24.6562 22.7812Z" fill="#77315B"/>
<path d="M20.9996 18.4697C22.8746 19.126 24.5621 20.626 25.1246 22.7822C25.6871 25.0322 24.9371 27.6572 23.1559 28.9697C22.0309 29.8135 20.6246 30.001 19.3121 30.001C16.1246 30.001 13.0309 28.9697 9.84337 27.8447C8.81212 27.4697 7.68712 27.0947 6.74962 26.4385C5.81212 25.7822 5.06212 24.751 4.87462 23.4385C4.68712 21.751 5.71837 19.9697 7.03087 19.126C9.37462 17.626 11.7184 16.9697 14.1559 17.0635C16.4059 17.0635 19.0309 17.8135 20.9996 18.4697Z" fill="#77315B"/>
<path d="M23.3437 6.375C23.3437 6.375 28.125 14.3437 22.7812 19.5L18.9375 17.4375L23.3437 6.375Z" fill="#425763"/>
<path d="M21.1871 17.3447C23.0621 18.001 24.7496 19.501 25.3121 21.6572C25.8746 23.9072 25.1246 26.5322 23.3434 27.8447C22.2184 28.6885 20.8121 28.876 19.4996 28.876C16.3121 28.876 13.2184 27.8447 10.0309 26.7197C8.99962 26.3447 7.87462 25.9697 6.93712 25.3135C5.99962 24.6572 5.24962 23.626 5.06212 22.3135C4.87462 20.626 5.90587 18.8447 7.21837 18.001C9.56212 16.501 11.9059 15.8447 14.3434 15.9385C16.6871 15.9385 19.2184 16.6885 21.1871 17.3447Z" fill="#B74F88"/>
<path d="M20.9065 15.9385C22.6878 16.5947 23.344 18.751 23.9065 20.9072C24.469 23.1572 24.6565 25.2197 23.0628 26.4385C22.0315 27.2822 20.719 27.4697 19.5003 27.4697C16.5003 27.4697 13.5003 26.4385 10.594 25.3135C9.56275 24.9385 8.62525 24.5635 7.68775 23.9072C6.844 23.251 6.094 22.2197 5.9065 20.9072C5.62525 19.2197 6.56275 17.5322 7.87525 16.6885C10.0315 15.1885 12.2815 14.5322 14.6253 14.626C16.594 14.5322 19.0315 15.2822 20.9065 15.9385Z" fill="#D19780"/>
<path opacity="0.28" d="M22.2223 23.6256C22.8612 21.6556 22.3012 19.709 20.9715 19.2777C19.6417 18.8465 18.0458 20.0939 17.4069 22.0639C16.768 24.0339 17.328 25.9805 18.6577 26.4117C19.9875 26.843 21.5834 25.5956 22.2223 23.6256Z" fill="white"/>
<path d="M10.8747 17.4375C10.8747 17.4375 11.3434 24.4687 15.1872 27C15.1872 27 9.74968 26.1562 8.71843 24.8437C7.68718 23.5312 5.99968 22.875 6.37468 19.7812C6.37468 19.7812 6.74968 16.875 9.37468 16.125L10.8747 17.4375Z" fill="#5077B5"/>
<path d="M9.37468 16.9688C9.37468 16.9688 8.43718 25.3125 14.5309 27.0938C14.5309 27.0938 9.09343 26.25 8.06218 24.9375C7.03093 23.625 5.34343 22.9688 5.71843 19.875C5.71843 19.875 6.09343 16.9687 8.71843 16.2188L9.37468 16.9688Z" fill="#B74F88"/>
<path d="M12 23.5313C12 23.5313 16.7812 25.7813 20.4375 25.0313C24.0937 24.2813 24.75 20.0625 24.75 20.0625C24.75 20.0625 25.875 25.125 22.875 26.9063C19.875 28.6875 14.3438 27 14.3438 27L12 23.5313Z" fill="#5077B5"/>
<path d="M7.3125 16.875C7.3125 16.875 8.0625 24.0938 10.7812 26.9063C10.7812 26.9063 7.78125 26.5312 7.125 25.3125L5.625 20.0625C5.625 20.0625 5.71875 18.5625 7.3125 16.875Z" fill="#CEB46B"/>
<path d="M18.6566 17.5312C18.6566 17.5312 19.4066 21.1875 16.8753 22.4062C14.3441 23.625 17.5316 29.5312 17.5316 29.5312C17.5316 29.5312 17.3441 25.7812 18.2816 25.0312C19.2191 24.375 26.2503 21 22.4066 15.1875C22.4066 15.2812 18.7503 16.7812 18.6566 17.5312Z" fill="#425763"/>
<path d="M24.351 10.0939C24.3696 4.96803 20.2713 0.797771 15.1971 0.779385C10.123 0.760999 5.99459 4.90145 5.97601 10.0273C5.95744 15.1532 10.0558 19.3235 15.1299 19.3419C20.204 19.3603 24.3324 15.2198 24.351 10.0939Z" fill="#A67A65"/>
<path d="M23.9516 9.48447C23.9696 4.5139 19.9967 0.470017 15.0779 0.452194C10.1591 0.43437 6.15707 4.44936 6.13906 9.41992C6.12105 14.3905 10.0939 18.4344 15.0127 18.4522C19.9315 18.47 23.9335 14.455 23.9516 9.48447Z" fill="#E5A98C"/>
<path d="M23.8457 9.25383C23.863 4.49037 20.1413 0.615288 15.5332 0.598591C10.9251 0.581893 7.17547 4.4299 7.15821 9.19336C7.14095 13.9568 10.8626 17.8319 15.4707 17.8486C20.0788 17.8653 23.8284 14.0173 23.8457 9.25383Z" fill="#E5A98C"/>
<path d="M19.3333 10.3762C19.3459 6.90715 16.6278 4.08506 13.2623 4.07286C9.89683 4.06067 7.15838 6.86299 7.14581 10.332C7.13324 13.8011 9.85131 16.6232 13.2168 16.6354C16.5823 16.6476 19.3207 13.8452 19.3333 10.3762Z" fill="#E8CCAA"/>
<path d="M16.1059 11.0335C16.1078 10.5157 15.7316 10.0946 15.2656 10.0929C14.7996 10.0912 14.4203 10.5096 14.4184 11.0273C14.4166 11.5451 14.7928 11.9662 15.2588 11.9679C15.7248 11.9696 16.1041 11.5512 16.1059 11.0335Z" fill="#425763"/>
<path d="M15.5479 10.7201C15.5485 10.5648 15.465 10.4386 15.3614 10.4382C15.2579 10.4378 15.1735 10.5634 15.1729 10.7188C15.1723 10.8741 15.2558 11.0003 15.3594 11.0007C15.4629 11.0011 15.5473 10.8754 15.5479 10.7201Z" fill="white"/>
<path d="M9.44969 9.63111C9.45156 9.11335 9.07532 8.69225 8.60933 8.69056C8.14334 8.68887 7.76406 9.10723 7.76219 9.625C7.76031 10.1428 8.13655 10.5639 8.60254 10.5656C9.06853 10.5672 9.44781 10.1489 9.44969 9.63111Z" fill="#425763"/>
<path d="M12.9959 7.95788C12.9974 7.54367 12.7048 7.20682 12.3423 7.2055C11.9799 7.20419 11.6849 7.53891 11.6834 7.95312C11.6819 8.36734 11.9745 8.70419 12.3369 8.7055C12.6994 8.70682 12.9944 8.37209 12.9959 7.95788Z" fill="#B74F88"/>
<path d="M8.98637 9.22402C8.98693 9.06869 8.90344 8.94246 8.79989 8.94209C8.69634 8.94171 8.61193 9.06733 8.61137 9.22266C8.61081 9.37799 8.6943 9.50421 8.79785 9.50459C8.9014 9.50496 8.98581 9.37935 8.98637 9.22402Z" fill="white"/>
<path d="M13.4063 15.2812C13.4063 15.2812 12.5625 15.1875 12 14.7187C11.4375 14.25 10.7812 14.3438 10.6875 14.3438C10.5938 14.3438 10.4062 14.1562 10.2188 14.0625C10.0312 13.9688 9.75 13.9688 9.75 14.0625C9.75 14.1562 10.0313 14.625 10.0313 14.625C10.0313 14.625 10.125 15 10.0313 15.1875C9.9375 15.375 10.0312 16.0313 10.6875 16.125C11.3438 16.3125 11.8125 16.2188 12.0938 16.0313C12.375 15.8438 13.4063 15.2812 13.4063 15.2812Z" fill="#A67A65"/>
<path d="M13.9685 3.843C13.9685 3.843 12.7497 7.0305 14.6247 8.343C16.4997 9.6555 23.4372 12.7493 22.1247 16.218C22.1247 16.218 28.3122 8.99925 23.0622 3.74925C16.406 -3.00075 13.9685 3.468 13.9685 3.843Z" fill="#425763"/>
<path d="M6.09354 10.6877C6.09354 10.6877 6.46854 6.93768 7.68729 6.56268C8.90604 6.18768 12.0935 7.31268 13.781 6.18768C13.781 6.18768 17.8123 1.68768 16.9685 0.843928C16.1248 0.000177532 12.7498 0.187678 10.406 1.40643C8.06229 2.62518 5.43729 5.90643 6.09354 10.6877Z" fill="#425763"/>
<path d="M16.7812 3.46824C16.7812 3.46824 15.0937 5.53074 16.6875 7.12449C18.2812 8.71824 22.3125 9.93699 23.3438 11.9995C23.3438 11.9995 24 4.21824 16.7812 3.46824ZM14.8125 2.24949C14.8125 2.24949 14.25 4.87449 12.8438 5.15574C11.4375 5.43699 7.6875 5.71824 7.6875 5.71824C7.6875 5.71824 11.3438 1.49949 14.8125 2.24949Z" fill="#5E6D72"/>
<path d="M8.8125 2.43689C8.8125 2.43689 22.5938 0.749389 25.3125 9.18689C25.3125 9.18689 25.5938 1.96814 17.25 0.186888C12.1875 -0.844362 8.8125 2.43689 8.8125 2.43689Z" fill="#B74F88"/>
</g>
<defs>
<clipPath id="clip0_52_38959">
<rect width="30" height="30" fill="white"/>
</clipPath>
</defs>
</svg>
