<svg width="15" height="14" viewBox="0 0 15 14" fill="none" xmlns="http://www.w3.org/2000/svg">
<path d="M11.0324 7.74322e-07C9.56305 -0.000909005 8.21025 0.79994 7.50431 2.08862C6.79839 0.800883 5.44673 0.000256639 3.9782 7.74322e-07C2.52213 0.0236173 1.19257 0.832467 0.50217 2.11467C-0.206865 3.5963 -0.162912 5.32798 0.620375 6.77174V6.78176H3.92009L4.6754 5.4214C4.74597 5.29385 4.88024 5.21469 5.02601 5.21469C5.17178 5.21469 5.30605 5.29385 5.37662 5.4214L6.76302 7.9007L8.90874 3.38587C8.97637 3.23607 9.12862 3.14275 9.2928 3.15049C9.45698 3.15822 9.59979 3.26543 9.65303 3.42093L10.8731 6.78176H14.3792V6.77174C15.1627 5.3281 15.207 3.59649 14.4984 2.11467C13.8091 0.836158 12.4846 0.028053 11.0324 7.74322e-07Z" fill="#00B97D"/>
<path d="M9.92549 7.73216L9.17619 5.66558L7.19075 9.84483C7.12786 9.98379 6.99154 10.075 6.8391 10.0801C6.68665 10.0852 6.54454 10.0033 6.4725 9.86887L5.03 7.2904L4.75052 7.79127C4.67906 7.91962 4.5438 7.99932 4.3969 7.99963H1.35263C3.05271 10.0377 5.02999 11.8275 7.22681 13.3168C7.3936 13.4329 7.61498 13.4329 7.78177 13.3168C9.97783 11.8266 11.955 10.0369 13.656 7.99963H10.3071C10.1358 8.00124 9.98244 7.89374 9.92549 7.73216Z" fill="#00B97D"/>
</svg>
