<svg width="14" height="14" viewBox="0 0 14 14" fill="none" xmlns="http://www.w3.org/2000/svg">
<path d="M4.73028 9.77029C4.75458 9.73384 4.74547 9.69434 4.70293 9.65181C4.64825 9.60928 4.60572 9.6032 4.57533 9.63358C4.55103 9.67004 4.56014 9.70953 4.60268 9.75206C4.65736 9.7946 4.6999 9.80067 4.73028 9.77029ZM4.47508 9.39661C4.4447 9.35408 4.40824 9.34193 4.36571 9.36015C4.32925 9.38446 4.32925 9.42092 4.36571 9.46952C4.40824 9.51813 4.4447 9.53332 4.47508 9.5151C4.51154 9.49079 4.51154 9.4513 4.47508 9.39661ZM4.1014 9.03204C4.11355 9.00774 4.09836 8.98343 4.05582 8.95913C4.01329 8.94698 3.98899 8.95305 3.98291 8.97736C3.96468 9.00774 3.97683 9.03204 4.01937 9.05027C4.06798 9.06242 4.09532 9.05635 4.1014 9.03204ZM4.29279 9.24167C4.30495 9.23559 4.30798 9.22344 4.30191 9.20521C4.30191 9.18091 4.29279 9.16268 4.27457 9.15053C4.23811 9.10799 4.20773 9.09888 4.18342 9.12318C4.15912 9.14749 4.16216 9.18091 4.19254 9.22344C4.22899 9.2599 4.26241 9.26597 4.29279 9.24167ZM5.07662 9.92523C5.08877 9.8827 5.06143 9.84928 4.99459 9.82498C4.9399 9.80675 4.90041 9.8189 4.8761 9.86144C4.86395 9.90397 4.89129 9.93739 4.95813 9.96169C5.01282 9.97992 5.05231 9.96777 5.07662 9.92523ZM5.35916 10.0255C5.42599 10.0255 5.45941 10.0012 5.45941 9.95258C5.45941 9.90397 5.42296 9.87966 5.35004 9.87966C5.28928 9.87966 5.2589 9.90397 5.2589 9.95258C5.2589 10.0012 5.29232 10.0255 5.35916 10.0255ZM5.81487 9.88878C5.80272 9.84624 5.76322 9.83105 5.69638 9.84321C5.62955 9.85536 5.6022 9.8827 5.61436 9.92523C5.62651 9.97384 5.66296 9.99207 5.72373 9.97992C5.78449 9.96777 5.81487 9.93739 5.81487 9.88878ZM11.6662 6.99957C11.6662 5.71143 11.2105 4.61165 10.2991 3.70023C9.38764 2.78881 8.28786 2.3331 6.99972 2.3331C5.71157 2.3331 4.61179 2.78881 3.70037 3.70023C2.78895 4.61165 2.33324 5.71143 2.33324 6.99957C2.33324 8.01429 2.63097 8.92875 3.22643 9.74295C3.82189 10.5511 4.58749 11.1131 5.52321 11.4291C5.63258 11.4473 5.71157 11.4321 5.76018 11.3835C5.81487 11.3349 5.84221 11.2741 5.84221 11.2012C5.84221 10.8853 5.83917 10.5966 5.8331 10.3354C5.79664 10.3415 5.74803 10.3506 5.68727 10.3627C5.63258 10.3688 5.52625 10.3749 5.36827 10.3809C5.21029 10.3809 5.06446 10.3688 4.93079 10.3445C4.79711 10.3141 4.66344 10.2533 4.52976 10.1622C4.40216 10.065 4.31406 9.93739 4.26545 9.77941C4.1257 9.42092 3.95253 9.1961 3.74594 9.10496C3.73379 9.09888 3.7186 9.08977 3.70037 9.07761C3.68822 9.05938 3.66391 9.03508 3.62746 9.0047C3.59708 8.96824 3.57581 8.93786 3.56366 8.91356C3.55758 8.88925 3.56973 8.86799 3.60011 8.84976C3.63657 8.82545 3.69733 8.8133 3.7824 8.8133C3.81886 8.8133 3.86443 8.81938 3.91911 8.83153C3.9738 8.84368 4.06494 8.89229 4.19254 8.97736C4.32014 9.05635 4.42039 9.16268 4.49331 9.29635C4.59053 9.46649 4.70293 9.59409 4.83053 9.67915C4.96421 9.76422 5.09788 9.80675 5.23156 9.80675C5.36523 9.80675 5.48068 9.79764 5.5779 9.77941C5.67512 9.7551 5.76626 9.72472 5.85132 9.68827C5.89386 9.40269 5.99411 9.19306 6.15209 9.05938C5.85436 9.02293 5.59309 8.96824 5.36827 8.89533C5.14345 8.81634 4.92167 8.69785 4.70293 8.53987C4.48419 8.37582 4.31406 8.14493 4.19254 7.84719C4.07709 7.54339 4.01937 7.17882 4.01937 6.75349C4.01937 6.27347 4.18039 5.85726 4.50242 5.50484C4.35659 5.12812 4.37178 4.71494 4.54799 4.26531C4.66344 4.22885 4.82749 4.25316 5.04016 4.33822C5.2589 4.41721 5.44422 4.50532 5.59613 4.60253L5.8331 4.74836C6.18551 4.64507 6.57439 4.59342 6.99972 4.59342C7.42505 4.59342 7.81392 4.64507 8.16633 4.74836C8.23317 4.70583 8.31824 4.65114 8.42153 4.58431C8.5309 4.51747 8.70104 4.43848 8.93193 4.34734C9.16282 4.25619 9.33599 4.22885 9.45144 4.26531C9.62765 4.71494 9.64284 5.12812 9.49701 5.50484C9.81905 5.85726 9.98006 6.27347 9.98006 6.75349C9.98006 7.09983 9.93753 7.40667 9.85246 7.67402C9.7674 7.9353 9.65803 8.14796 9.52435 8.31202C9.39675 8.47 9.23574 8.60367 9.0413 8.71304C8.84686 8.82241 8.65546 8.9014 8.4671 8.95001C8.28482 8.99862 8.07823 9.03508 7.84734 9.05938C8.06 9.24775 8.16633 9.53636 8.16633 9.92523C8.16633 10.1683 8.1633 10.4387 8.15722 10.7364C8.15722 11.0341 8.15722 11.1891 8.15722 11.2012C8.15722 11.2741 8.18152 11.3349 8.23013 11.3835C8.28482 11.4321 8.36685 11.4473 8.47622 11.4291C9.41194 11.1131 10.1775 10.5511 10.773 9.74295C11.3685 8.92875 11.6662 8.01429 11.6662 6.99957ZM13.9994 2.62475V11.3744C13.9994 12.0975 13.7412 12.7142 13.2247 13.2246C12.7143 13.7411 12.0976 13.9993 11.3745 13.9993H2.62489C1.90183 13.9993 1.28207 13.7411 0.765594 13.2246C0.255198 12.7142 0 12.0975 0 11.3744V2.62475C0 1.90169 0.255198 1.28496 0.765594 0.774565C1.28207 0.258093 1.90183 -0.000143105 2.62489 -0.000143105H11.3745C12.0976 -0.000143105 12.7143 0.258093 13.2247 0.774565C13.7412 1.28496 13.9994 1.90169 13.9994 2.62475Z" fill="#3F42C7"/>
</svg>
