<svg width="30" height="30" viewBox="0 0 30 30" fill="none" xmlns="http://www.w3.org/2000/svg">
<g clip-path="url(#clip0_52_47856)">
<path d="M30 22.6875L27.4688 7.03125L2.53125 9.1875L0.28125 12.2813L2.71875 29.4375L28.3125 25.2188L30 22.6875Z" fill="#6E8089"/>
<path d="M18.6562 2.62473C18.6562 1.78098 17.9062 1.03098 17.0625 1.21848L11.0625 1.87473C10.2187 1.96848 9.65625 2.81223 9.84375 3.65598L11.1562 10.2185C11.3437 10.8747 12 11.3435 12.6562 11.2497L17.3437 10.781C18.0937 10.6872 18.5625 10.1247 18.6562 9.37473V2.62473ZM14.4375 5.62473C13.5937 5.62473 12.8437 4.96848 12.8437 4.12473C12.8437 3.28098 13.5937 2.62473 14.4375 2.62473C15.2812 2.62473 16.0312 3.28098 16.0312 4.12473C16.0312 4.96848 15.2812 5.62473 14.4375 5.62473Z" fill="#6E8089"/>
<path d="M1.78125 11.7188L4.03125 27.9375L17.8125 25.5938L15.6563 10.3125L1.78125 11.7188Z" fill="#90A3AD"/>
<path d="M2.625 10.4063L4.96875 26.625L28.875 22.5938L26.7188 7.96875L2.625 10.4063Z" fill="#D6DFE5"/>
<path d="M18 9.84375L18.1875 11.7188L22.875 11.1562L22.6875 9.375L18 9.84375ZM18.2812 13.2188L18.375 14.25L25.3125 13.5L25.125 12.4688L18.2812 13.2188ZM18.4688 15.0938L18.5625 16.125L25.5 15.375L25.3125 14.3438L18.4688 15.0938ZM18.6562 16.9688L18.8437 18L25.6875 17.25L25.5937 16.3125L18.6562 16.9688ZM18.8437 18.9375L19.0312 19.9687L25.875 19.2188L25.7812 18.1875L18.8437 18.9375Z" fill="#A0B7C1"/>
<path d="M3.5625 11.25L5.53125 25.5L18.2812 23.25L16.2187 9.65625L3.5625 11.25Z" fill="white"/>
<mask id="mask0_52_47856" style="mask-type:luminance" maskUnits="userSpaceOnUse" x="4" y="10" width="14" height="15">
<path d="M4.59375 11.8125L6.375 24.6562L17.3438 22.7812L15.5625 10.6875L4.59375 11.8125Z" fill="white"/>
</mask>
<g mask="url(#mask0_52_47856)">
<path d="M1.125 7.5L4.125 31.4062L21.9375 27.8438L19.125 5.34375L1.125 7.5Z" fill="#9BC1D1"/>
<path d="M16.5938 12.5625C16.5938 12.5625 19.7813 16.2187 18.4688 23.7188L15.8438 20.8125L16.5938 12.5625Z" fill="#BC723B"/>
<path d="M17.3442 16.875C17.3442 16.875 17.4379 19.875 18.3754 22.3125C19.3129 24.75 16.3129 26.3438 16.3129 26.3438L13.8754 20.7188L15.9379 17.625L17.3442 16.875ZM6.75042 12.5625C6.75042 12.5625 4.03167 18 6.18792 23.4375C8.34417 28.875 11.3442 16.3125 11.3442 16.3125L8.25042 12.9375L6.75042 12.5625Z" fill="#BC723B"/>
<path d="M15.1879 21.5625C16.3129 21.9375 17.3442 22.875 17.7192 24.1875C18.0942 25.5 17.5317 27.1875 16.5942 27.9375C15.9379 28.4062 15.0942 28.5937 14.2504 28.5937C12.3754 28.5937 10.4067 27.9375 8.53167 27.2812C7.87542 27.0938 7.21917 26.8125 6.65667 26.4375C6.09417 26.0625 5.62542 25.4062 5.53167 24.6562C5.43792 23.625 6.00042 22.5937 6.84417 22.0312C8.25042 21.0937 9.65667 20.7188 11.1567 20.7188C12.4692 20.7188 13.9692 21.1875 15.1879 21.5625Z" fill="#B78C48"/>
<path d="M15.0005 20.8125C16.0317 21.1875 17.063 22.125 17.3442 23.4375C17.7192 24.75 17.2505 26.4375 16.2192 27.1875C15.563 27.6562 14.813 27.8438 14.063 27.8438C12.2817 27.8438 10.5005 27.1875 8.62546 26.5312L6.93796 25.5937C6.37546 25.2187 6.00046 24.5625 5.90671 23.8125C5.81296 22.7812 6.37546 21.75 7.12546 21.1875C8.43796 20.25 9.84421 19.875 11.1567 19.875C12.3755 19.9688 13.8755 20.3438 15.0005 20.8125Z" fill="#EAB75C"/>
<path d="M13.8752 21.75C13.8752 21.75 10.6877 22.875 8.43768 26.25C8.43768 26.25 7.59393 23.4375 8.06268 21.375C8.06268 21.375 11.3439 22.5938 13.8752 21.75Z" fill="#E8CCAA"/>
<path d="M7.40625 21C7.40625 21 8.25 23.25 9.375 23.4375C10.5 23.625 12.2812 24 14.7187 21.6563L7.40625 21Z" fill="#E8CCAA"/>
<path opacity="0.28" d="M15.7704 25.3556C16.1537 24.1736 15.8257 23.0082 15.0377 22.7527C14.2497 22.4971 13.3001 23.2481 12.9168 24.4301C12.5334 25.6121 12.8615 26.7775 13.6495 27.0331C14.4375 27.2886 15.387 26.5376 15.7704 25.3556Z" fill="white"/>
<path d="M17.0692 17.2315C17.0805 14.1249 14.6132 11.5975 11.5583 11.5864C8.50352 11.5754 6.01797 14.0848 6.00671 17.1914C5.99545 20.298 8.46275 22.8254 11.5176 22.8364C14.5724 22.8475 17.058 20.3381 17.0692 17.2315Z" fill="#A67A65"/>
<path d="M16.8322 16.8441C16.8431 13.841 14.4175 11.3978 11.4144 11.3869C8.41136 11.376 5.96808 13.8016 5.9572 16.8047C5.94632 19.8077 8.37195 22.251 11.375 22.2619C14.378 22.2728 16.8213 19.8471 16.8322 16.8441Z" fill="#E5A98C"/>
<path d="M16.8097 16.7066C16.82 13.8589 14.5618 11.5421 11.7659 11.532C8.96994 11.5219 6.69502 13.8222 6.6847 16.6699C6.67438 19.5176 8.93257 21.8344 11.7285 21.8445C14.5245 21.8546 16.7994 19.5543 16.8097 16.7066Z" fill="#E8CCAA"/>
<path d="M13.9569 17.4327C13.9645 15.3617 12.3336 13.6768 10.3143 13.6695C8.29499 13.6622 6.65195 15.3352 6.64445 17.4062C6.63694 19.4773 8.26782 21.1622 10.2871 21.1695C12.3064 21.1768 13.9494 19.5038 13.9569 17.4327Z" fill="#FAEACF"/>
<path d="M12.0626 17.7612C12.0637 17.4505 11.8548 17.1979 11.5959 17.197C11.337 17.1961 11.1262 17.4472 11.1251 17.7578C11.124 18.0685 11.3329 18.3211 11.5918 18.322C11.8507 18.3229 12.0615 18.0719 12.0626 17.7612Z" fill="#425763"/>
<path d="M11.7858 17.6296C11.7862 17.526 11.7445 17.4419 11.6928 17.4417C11.641 17.4416 11.5987 17.5254 11.5983 17.6289C11.598 17.7325 11.6396 17.8166 11.6914 17.8167C11.7432 17.8169 11.7855 17.7331 11.7858 17.6296Z" fill="white"/>
<path d="M8.10653 16.9272C8.10766 16.6166 7.8987 16.364 7.63982 16.363C7.38094 16.3621 7.17016 16.6132 7.16903 16.9238C7.1679 17.2345 7.37686 17.4871 7.63574 17.488C7.89463 17.489 8.1054 17.2379 8.10653 16.9272Z" fill="#425763"/>
<path d="M7.73603 16.6999C7.73641 16.5963 7.69474 16.5122 7.64296 16.5121C7.59118 16.5119 7.54891 16.5957 7.54853 16.6992C7.54816 16.8028 7.58982 16.8869 7.6416 16.8871C7.69338 16.8872 7.73565 16.8035 7.73603 16.6999Z" fill="white"/>
<path d="M15.0938 17.6248C15.0938 17.6248 15.5625 17.2498 15.9375 17.4373C16.3125 17.531 16.2187 18.7498 15.2812 18.8435L15.0938 17.6248Z" fill="#FAEACF"/>
<path d="M10.5 20.3438C10.5 20.3438 10.0313 20.25 9.65625 19.9687C9.28125 19.6875 8.90625 19.6875 8.90625 19.7813C8.8125 19.7813 8.71875 19.6875 8.625 19.5938C8.53125 19.5 8.34375 19.5 8.34375 19.5938C8.34375 19.6875 8.53125 19.9687 8.53125 19.9687V20.3438C8.53125 20.5313 8.53125 20.8125 8.90625 20.9062C9.28125 21 9.5625 20.9062 9.75 20.9062C9.9375 20.9062 10.5 20.3438 10.5 20.3438Z" fill="#A67A65"/>
<path d="M11.625 16.5C14.4727 16.5 16.7812 15.0729 16.7812 13.3125C16.7812 11.5521 14.4727 10.125 11.625 10.125C8.77728 10.125 6.46875 11.5521 6.46875 13.3125C6.46875 15.0729 8.77728 16.5 11.625 16.5Z" fill="#BC723B"/>
<path d="M14.062 15.6563C14.062 15.6563 14.9058 17.3438 14.437 19.125C13.9683 20.9063 17.3433 21.8438 17.3433 21.8438C17.3433 21.8438 16.9683 19.2188 17.2495 18.2813C17.5308 17.3438 17.812 13.7813 16.312 12.0938C16.312 12.0938 13.8745 15.2813 14.062 15.6563Z" fill="#BC723B"/>
<path d="M11.625 15.375C14.0067 15.375 15.9375 14.3257 15.9375 13.0312C15.9375 11.7368 14.0067 10.6875 11.625 10.6875C9.24327 10.6875 7.3125 11.7368 7.3125 13.0312C7.3125 14.3257 9.24327 15.375 11.625 15.375Z" fill="#CC804C"/>
<path d="M6.5625 19.6875C6.5625 19.6875 6.28125 21.0938 6.46875 21.75C6.46875 21.75 6.75 21.2812 7.3125 21C7.40625 21 6.65625 19.9688 6.5625 19.6875Z" fill="#7C4D2D"/>
<path d="M15.0938 18.9375C15.5597 18.9375 15.9375 18.5597 15.9375 18.0937C15.9375 17.6278 15.5597 17.25 15.0938 17.25C14.6278 17.25 14.25 17.6278 14.25 18.0937C14.25 18.5597 14.6278 18.9375 15.0938 18.9375Z" fill="#E8CCAA"/>
<path d="M17.0622 19.4053C17.0622 19.4053 16.7809 20.4365 17.3434 21.1865C17.9059 21.9365 17.9059 23.0615 17.9059 23.0615C17.9059 23.0615 17.0622 21.374 16.4059 20.8115C15.7497 20.249 16.4997 19.2178 17.0622 19.4053Z" fill="#CC804C"/>
<path d="M12.4688 14.25C13.8149 14.25 14.9062 13.6204 14.9062 12.8438C14.9062 12.0671 13.8149 11.4375 12.4688 11.4375C11.1226 11.4375 10.0312 12.0671 10.0312 12.8438C10.0312 13.6204 11.1226 14.25 12.4688 14.25Z" fill="#E29969"/>
</g>
<path d="M1.78125 11.7187L2.625 10.4062L4.96875 26.625L4.03125 27.9375L1.78125 11.7187Z" fill="#B3C1C9"/>
<path d="M28.875 22.5L27.9375 23.8125L4.03125 27.9375L4.96875 26.625L28.875 22.5Z" fill="#90A3AD"/>
<path d="M26.3386 21.3743C27.6566 20.0563 27.5973 17.86 26.206 16.4688C24.8148 15.0775 22.6185 15.0182 21.3005 16.3362C19.9825 17.6542 20.0419 19.8505 21.4331 21.2417C22.8243 22.6329 25.0206 22.6923 26.3386 21.3743Z" fill="#65B2C4"/>
<path d="M17.9059 3.84421C17.9059 3.09421 17.3434 2.53171 16.5934 2.62546L11.9059 3.28171C11.2497 3.37546 10.7809 4.12546 10.9684 4.78171L12.0934 10.2192C12.2809 10.7817 12.7497 11.1567 13.3122 11.063L17.0622 10.5942C17.6247 10.5005 18.0934 10.0317 18.0934 9.46921L17.9059 3.84421ZM14.5309 6.37546C13.8747 6.37546 13.3122 5.81296 13.3122 5.15671C13.3122 4.50046 13.8747 3.93796 14.5309 3.93796C15.1872 3.93796 15.7497 4.50046 15.7497 5.15671C15.8434 5.81296 15.2809 6.37546 14.5309 6.37546Z" fill="#7A96A0"/>
<path d="M18.0003 3.00046C18.0003 2.25046 17.3441 1.68796 16.6878 1.78171L11.8128 2.43796C11.0628 2.53171 10.5941 3.28171 10.7816 3.93796L11.9066 9.37546C12.0941 9.93796 12.5628 10.313 13.2191 10.2192L17.0628 9.75046C17.6253 9.65671 18.0941 9.18796 18.0941 8.62546L18.0003 3.00046ZM14.5316 5.53171C13.7816 5.53171 13.2191 4.96921 13.2191 4.31296C13.2191 3.65671 13.7816 3.09421 14.5316 3.09421C15.2816 3.09421 15.8441 3.65671 15.8441 4.31296C15.8441 4.96921 15.1878 5.53171 14.5316 5.53171Z" fill="#A0B7C1"/>
<path d="M12.2812 6.84375L12.75 9L17.1562 8.4375V6.375L12.2812 6.84375Z" fill="#D6DFE5"/>
<path d="M11.0625 9.09375L12 11.7188C12 11.7188 12 12.75 17.25 10.5938L12.375 10.875L11.8125 9.09375H11.0625Z" fill="#6E8089"/>
</g>
<defs>
<clipPath id="clip0_52_47856">
<rect width="30" height="30" fill="white"/>
</clipPath>
</defs>
</svg>
