<svg width="568" height="269" viewBox="0 0 568 269" fill="none" xmlns="http://www.w3.org/2000/svg">
<path d="M0 191.369C0 186.951 3.58171 183.369 7.99997 183.369H23.9999C28.4182 183.369 31.9999 186.951 31.9999 191.369V268.999H0V191.369Z" fill="#35A7F9"/>
<path d="M89.2067 144.662C89.2067 140.243 92.7884 136.662 97.2067 136.662H113.207C117.625 136.662 121.207 140.243 121.207 144.662V268.999H89.2067V144.662Z" fill="#35A7F9"/>
<path d="M178.413 60.7615C178.413 56.3432 181.995 52.7615 186.413 52.7615H202.413C206.832 52.7615 210.413 56.3432 210.413 60.7615V268.999H178.413V60.7615Z" fill="#35A7F9"/>
<path d="M267.624 107.468C267.624 103.05 271.206 99.4684 275.624 99.4684H291.624C296.042 99.4684 299.624 103.05 299.624 107.468V268.998H267.624V107.468Z" fill="#35A7F9"/>
<path d="M356.827 7.99998C356.827 3.58171 360.409 0 364.827 0H380.827C385.245 0 388.827 3.58171 388.827 7.99997V268.999H356.827V7.99998Z" fill="#35A7F9"/>
<path d="M446.037 85.8454C446.037 81.4271 449.619 77.8454 454.037 77.8454H470.037C474.456 77.8454 478.037 81.4271 478.037 85.8454V268.999H446.037V85.8454Z" fill="#35A7F9"/>
<path d="M535.244 27.8944C535.244 23.4762 538.826 19.8945 543.244 19.8945H559.244C563.662 19.8945 567.244 23.4762 567.244 27.8944V269H535.244V27.8944Z" fill="#35A7F9"/>
</svg>
