<svg width="22" height="22" viewBox="0 0 22 22" fill="none" xmlns="http://www.w3.org/2000/svg">
<path d="M11.0196 18.032C14.8924 18.032 18.032 14.8924 18.032 11.0196C18.032 7.1467 14.8924 4.00711 11.0196 4.00711C7.1467 4.00711 4.00711 7.1467 4.00711 11.0196C4.00711 14.8924 7.1467 18.032 11.0196 18.032Z" fill="#E0DED8"/>
<path d="M11.0196 21.9991C10.4686 21.9991 10.0178 21.5883 10.0178 21.0374V20.9572C10.0178 20.4062 10.4686 19.9554 11.0196 19.9554C11.5705 19.9554 12.0213 20.4062 12.0213 20.9572C12.0213 21.5082 11.5705 21.9991 11.0196 21.9991ZM18.1723 19.174C17.9118 19.174 17.6614 19.0739 17.461 18.8835L17.3308 18.7533C16.9401 18.3626 16.9401 17.7315 17.3308 17.3408C17.7215 16.9501 18.3526 16.9501 18.7433 17.3408L18.8735 17.471C19.2642 17.8617 19.2642 18.4928 18.8735 18.8835C18.6832 19.0739 18.4327 19.174 18.1723 19.174ZM3.86687 19.174C3.6064 19.174 3.35596 19.0739 3.1556 18.8835C2.76491 18.4928 2.76491 17.8617 3.1556 17.471L3.28583 17.3408C3.67653 16.9501 4.30765 16.9501 4.69834 17.3408C5.08904 17.7315 5.08904 18.3626 4.69834 18.7533L4.56811 18.8835C4.37777 19.0739 4.11731 19.174 3.86687 19.174ZM21.0374 12.0213H20.9572C20.4062 12.0213 19.9554 11.5705 19.9554 11.0196C19.9554 10.4686 20.4062 10.0178 20.9572 10.0178C21.5082 10.0178 21.9991 10.4686 21.9991 11.0196C21.9991 11.5705 21.5883 12.0213 21.0374 12.0213ZM1.08192 12.0213H1.00178C0.4508 12.0213 0 11.5705 0 11.0196C0 10.4686 0.4508 10.0178 1.00178 10.0178C1.55276 10.0178 2.04363 10.4686 2.04363 11.0196C2.04363 11.5705 1.6329 12.0213 1.08192 12.0213ZM18.042 4.99888C17.7816 4.99888 17.5311 4.8987 17.3308 4.70836C16.9401 4.31767 16.9401 3.68655 17.3308 3.29585L17.461 3.16562C17.8517 2.77493 18.4828 2.77493 18.8735 3.16562C19.2642 3.55631 19.2642 4.18744 18.8735 4.57813L18.7433 4.70836C18.5529 4.8987 18.3025 4.99888 18.042 4.99888ZM3.9971 4.99888C3.73663 4.99888 3.48619 4.8987 3.28583 4.70836L3.1556 4.56811C2.76491 4.17742 2.76491 3.5463 3.1556 3.1556C3.5463 2.76491 4.17742 2.76491 4.56811 3.1556L4.69834 3.28583C5.08904 3.67653 5.08904 4.30765 4.69834 4.69834C4.508 4.8987 4.24754 4.99888 3.9971 4.99888ZM11.0196 2.04363C10.4686 2.04363 10.0178 1.6329 10.0178 1.08192V1.00178C10.0178 0.4508 10.4686 0 11.0196 0C11.5705 0 12.0213 0.4508 12.0213 1.00178C12.0213 1.55276 11.5705 2.04363 11.0196 2.04363Z" fill="#E0DED8"/>
</svg>
