<svg width="18" height="18" viewBox="0 0 18 18" fill="none" xmlns="http://www.w3.org/2000/svg">
<g clip-path="url(#clip0_52_89132)">
<path d="M-0.5303 12.2197C-0.8232 12.5126 -0.8232 12.9874 -0.5303 13.2803C-0.2374 13.5732 0.2374 13.5732 0.5303 13.2803L-0.5303 12.2197ZM7.125 5.625L7.65533 5.09467C7.36244 4.80178 6.88756 4.80178 6.59467 5.09467L7.125 5.625ZM10.875 9.375L10.3447 9.90533C10.6376 10.1982 11.1124 10.1982 11.4053 9.90533L10.875 9.375ZM17.0303 4.28033C17.3232 3.98744 17.3232 3.51256 17.0303 3.21967C16.7374 2.92678 16.2626 2.92678 15.9697 3.21967L17.0303 4.28033ZM0.5303 13.2803L7.65533 6.15533L6.59467 5.09467L-0.5303 12.2197L0.5303 13.2803ZM6.59467 6.15533L10.3447 9.90533L11.4053 8.84467L7.65533 5.09467L6.59467 6.15533ZM11.4053 9.90533L17.0303 4.28033L15.9697 3.21967L10.3447 8.84467L11.4053 9.90533Z" fill="#E23434"/>
<path d="M4.5 13.5C4.91421 13.5 5.25 13.1642 5.25 12.75C5.25 12.3358 4.91421 12 4.5 12V13.5ZM0 12.75H-0.75C-0.75 13.1642 -0.41421 13.5 0 13.5V12.75ZM0.75 8.25C0.75 7.83579 0.41421 7.5 0 7.5C-0.41421 7.5 -0.75 7.83579 -0.75 8.25H0.75ZM4.5 12H0V13.5H4.5V12ZM0.75 12.75V8.25H-0.75V12.75H0.75Z" fill="#E23434"/>
</g>
<defs>
<clipPath id="clip0_52_89132">
<rect width="18" height="18" fill="white" transform="matrix(-1 0 0 -1 18 18)"/>
</clipPath>
</defs>
</svg>
