<svg width="10" height="13" viewBox="0 0 10 13" fill="none" xmlns="http://www.w3.org/2000/svg">
<mask id="mask0_0_51" style="mask-type:luminance" maskUnits="userSpaceOnUse" x="-3" y="-2" width="16" height="16">
<rect x="-2.5" y="-1.25" width="15" height="15" fill="white"/>
</mask>
<g mask="url(#mask0_0_51)">
<path fill-rule="evenodd" clip-rule="evenodd" d="M9.93937 4.11625C9.90875 4.05 9.87062 3.98688 9.81688 3.93313L6.06688 0.183125C6.01312 0.129375 5.95 0.0912501 5.88375 0.0606251C5.865 0.0518751 5.845 0.046875 5.825 0.0400001C5.7725 0.0225 5.71875 0.0112501 5.66313 0.00812501C5.65 0.00687495 5.63812 0 5.625 0H1.25C0.560625 0 0 0.560625 0 1.25V11.25C0 11.9394 0.560625 12.5 1.25 12.5H8.75C9.43937 12.5 10 11.9394 10 11.25V4.375C10 4.36188 9.99312 4.35 9.99187 4.33625C9.98875 4.28062 9.97812 4.22687 9.96 4.17438C9.95375 4.15438 9.94812 4.135 9.93937 4.11625ZM7.86625 3.74998H6.25V2.13373L7.86625 3.74998ZM1.25 11.25V1.25H5V4.375C5 4.72062 5.27937 5 5.625 5H8.75L8.75125 11.25H1.25Z" fill="#4EAC6D"/>
<path fill-rule="evenodd" clip-rule="evenodd" d="M2.5 6.25H7.5V7.5H2.5V6.25ZM2.5 8.75H7.5V10H2.5V8.75ZM2.5 3.75H3.75V5H2.5V3.75Z" fill="#4EAC6D"/>
</g>
</svg>
