<svg width="23" height="19" viewBox="0 0 23 19" fill="none" xmlns="http://www.w3.org/2000/svg">
<path d="M22.04 17.48H21.28V7.6C21.28 7.19687 21.1199 6.81025 20.8348 6.5252C20.5497 6.24014 20.1631 6.08 19.76 6.08H13.68V1.52C13.68 1.11687 13.5199 0.730253 13.2348 0.445198C12.9497 0.160142 12.5631 0 12.16 0H3.04C2.63687 0 2.25025 0.160142 1.9652 0.445198C1.68014 0.730253 1.52 1.11687 1.52 1.52V17.48H0.76C0.558435 17.48 0.365126 17.5601 0.222599 17.7026C0.0800712 17.8451 0 18.0384 0 18.24C0 18.4416 0.0800712 18.6349 0.222599 18.7774C0.365126 18.9199 0.558435 19 0.76 19H22.04C22.2416 19 22.4349 18.9199 22.5774 18.7774C22.7199 18.6349 22.8 18.4416 22.8 18.24C22.8 18.0384 22.7199 17.8451 22.5774 17.7026C22.4349 17.5601 22.2416 17.48 22.04 17.48ZM19.76 7.6V17.48H13.68V7.6H19.76ZM3.04 1.52H12.16V17.48H3.04V1.52ZM4.56 4.56C4.56 4.35844 4.64007 4.16513 4.7826 4.0226C4.92513 3.88007 5.11844 3.8 5.32 3.8H8.36C8.56156 3.8 8.75487 3.88007 8.8974 4.0226C9.03993 4.16513 9.12 4.35844 9.12 4.56C9.12 4.76156 9.03993 4.95487 8.8974 5.0974C8.75487 5.23993 8.56156 5.32 8.36 5.32H5.32C5.11844 5.32 4.92513 5.23993 4.7826 5.0974C4.64007 4.95487 4.56 4.76156 4.56 4.56ZM10.64 10.64C10.64 10.8416 10.5599 11.0349 10.4174 11.1774C10.2749 11.3199 10.0816 11.4 9.88 11.4H6.84C6.63844 11.4 6.44513 11.3199 6.3026 11.1774C6.16007 11.0349 6.08 10.8416 6.08 10.64C6.08 10.4384 6.16007 10.2451 6.3026 10.1026C6.44513 9.96007 6.63844 9.88 6.84 9.88H9.88C10.0816 9.88 10.2749 9.96007 10.4174 10.1026C10.5599 10.2451 10.64 10.4384 10.64 10.64ZM9.12 14.44C9.12 14.6416 9.03993 14.8349 8.8974 14.9774C8.75487 15.1199 8.56156 15.2 8.36 15.2H5.32C5.11844 15.2 4.92513 15.1199 4.7826 14.9774C4.64007 14.8349 4.56 14.6416 4.56 14.44C4.56 14.2384 4.64007 14.0451 4.7826 13.9026C4.92513 13.7601 5.11844 13.68 5.32 13.68H8.36C8.56156 13.68 8.75487 13.7601 8.8974 13.9026C9.03993 14.0451 9.12 14.2384 9.12 14.44ZM18.24 14.44C18.24 14.6416 18.1599 14.8349 18.0174 14.9774C17.8749 15.1199 17.6816 15.2 17.48 15.2H15.96C15.7584 15.2 15.5651 15.1199 15.4226 14.9774C15.2801 14.8349 15.2 14.6416 15.2 14.44C15.2 14.2384 15.2801 14.0451 15.4226 13.9026C15.5651 13.7601 15.7584 13.68 15.96 13.68H17.48C17.6816 13.68 17.8749 13.7601 18.0174 13.9026C18.1599 14.0451 18.24 14.2384 18.24 14.44ZM15.2 10.64C15.2 10.4384 15.2801 10.2451 15.4226 10.1026C15.5651 9.96007 15.7584 9.88 15.96 9.88H17.48C17.6816 9.88 17.8749 9.96007 18.0174 10.1026C18.1599 10.2451 18.24 10.4384 18.24 10.64C18.24 10.8416 18.1599 11.0349 18.0174 11.1774C17.8749 11.3199 17.6816 11.4 17.48 11.4H15.96C15.7584 11.4 15.5651 11.3199 15.4226 11.1774C15.2801 11.0349 15.2 10.8416 15.2 10.64Z" fill="#3E4B65"/>
</svg>
