<svg width="30" height="30" viewBox="0 0 30 30" fill="none" xmlns="http://www.w3.org/2000/svg">
<g clip-path="url(#clip0_52_72626)">
<path d="M23.9062 4.03125C23.9062 4.03125 27 17.9063 24 20.1563C21 22.4063 18.2812 24 18.2812 24L15.0938 22.3125L14.8125 16.6875L23.9062 4.03125Z" fill="#422F28"/>
<path d="M20.3438 8.25C22.7773 8.25 24.75 6.40317 24.75 4.125C24.75 1.84683 22.7773 0 20.3438 0C17.9102 0 15.9375 1.84683 15.9375 4.125C15.9375 6.40317 17.9102 8.25 20.3438 8.25Z" fill="#422F28"/>
<path d="M18.8438 9.65625C21.2773 9.65625 23.25 7.80942 23.25 5.53125C23.25 3.25308 21.2773 1.40625 18.8438 1.40625C16.4102 1.40625 14.4375 3.25308 14.4375 5.53125C14.4375 7.80942 16.4102 9.65625 18.8438 9.65625Z" fill="#893E27"/>
<path d="M19.8756 17.9062C21.6569 18.4687 23.3444 19.9687 23.9069 22.0312C24.4694 24.1875 23.7194 26.8125 22.0319 27.9375C21.0006 28.875 19.6881 29.0625 18.3756 29.0625C15.2819 29.0625 12.2819 28.0312 9.18814 27C8.15689 26.625 7.12564 26.3437 6.28189 25.6875C5.34439 25.0312 4.59439 24 4.50064 22.7812C4.31314 21.0937 5.34439 19.5 6.56314 18.6562C8.81314 17.25 11.1569 16.5938 13.5006 16.5938C15.4694 16.5938 18.0006 17.25 19.8756 17.9062Z" fill="#A53829"/>
<path d="M20.0631 16.875C21.8444 17.4375 23.5319 18.9375 24.0944 21C24.6569 23.1562 23.9069 25.7813 22.2194 26.9063C21.0944 27.6563 19.7819 27.9375 18.5631 27.9375C15.4694 27.9375 12.4694 26.9062 9.37564 25.875C8.34439 25.5 7.31314 25.2188 6.46939 24.5625C5.53189 23.9063 4.78189 22.875 4.68814 21.6563C4.50064 19.9688 5.53189 18.375 6.75064 17.5313C9.00064 16.125 11.3444 15.4688 13.6881 15.4688C15.7506 15.4688 18.1881 16.2188 20.0631 16.875Z" fill="#D3624F"/>
<path d="M19.7818 15.5625C21.4693 16.125 23.063 17.625 23.5318 19.6875C24.0943 21.8437 23.3443 24.4687 21.7505 25.5937C20.7193 26.3437 19.5005 26.625 18.2818 26.625C15.3755 26.625 12.563 25.5938 9.65676 24.5625C8.71926 24.1875 7.68801 23.9062 6.84426 23.25C6.00051 22.5937 5.25051 21.5625 5.15676 20.3438C4.96926 18.6563 5.90676 17.0625 7.12551 16.2187C9.18801 14.8125 11.438 14.1562 13.5943 14.1562C15.6568 14.1562 18.0005 14.9062 19.7818 15.5625Z" fill="#E5A98C"/>
<path d="M21.033 22.8555C21.64 20.984 21.094 19.1302 19.8135 18.7149C18.533 18.2996 17.0029 19.4801 16.3959 21.3516C15.7889 23.2231 16.3349 25.0769 17.6154 25.4922C18.8959 25.9075 20.426 24.727 21.033 22.8555Z" fill="#F7BFA9"/>
<path d="M23.1338 9.90243C23.1517 4.98365 19.1786 0.981736 14.2599 0.963912C9.34107 0.946089 5.33916 4.9191 5.32133 9.83789C5.30351 14.7567 9.27653 18.7586 14.1953 18.7764C19.1141 18.7942 23.116 14.8212 23.1338 9.90243Z" fill="#A67A65"/>
<path d="M22.7168 9.22852C22.7341 4.46506 18.8865 0.589529 14.1231 0.572268C9.3596 0.555008 5.48406 4.40256 5.4668 9.16601C5.44954 13.9295 9.29709 17.805 14.0605 17.8223C18.824 17.8395 22.6995 13.992 22.7168 9.22852Z" fill="#E5A98C"/>
<path d="M22.6783 8.98812C22.6948 4.43177 19.0985 0.725038 14.6457 0.708904C10.1929 0.692769 6.56984 4.37334 6.55333 8.92969C6.53682 13.486 10.1331 17.1928 14.5859 17.2089C19.0387 17.225 22.6618 13.5445 22.6783 8.98812Z" fill="#E5A98C"/>
<path d="M18.1975 10.1515C18.2095 6.83779 15.6169 4.14207 12.4068 4.13044C9.19661 4.1188 6.58453 6.79567 6.57252 10.1094C6.56052 13.4231 9.15313 16.1188 12.3633 16.1304C15.5734 16.1421 18.1855 13.4652 18.1975 10.1515Z" fill="#F7BFA9"/>
<path d="M15.1069 10.8043C15.1088 10.2865 14.7745 9.86555 14.3603 9.86405C13.9461 9.86255 13.6088 10.2811 13.6069 10.7988C13.605 11.3166 13.9393 11.7375 14.3535 11.739C14.7677 11.7405 15.105 11.322 15.1069 10.8043Z" fill="#425763"/>
<path d="M14.626 10.4057C14.6266 10.2503 14.5431 10.1241 14.4395 10.1237C14.336 10.1234 14.2516 10.249 14.251 10.4043C14.2505 10.5596 14.3339 10.6859 14.4375 10.6862C14.5411 10.6866 14.6255 10.561 14.626 10.4057Z" fill="white"/>
<path d="M8.73191 9.41169C8.73379 8.89392 8.39952 8.47297 7.98531 8.47147C7.5711 8.46997 7.23379 8.88848 7.23191 9.40625C7.23004 9.92402 7.5643 10.345 7.97852 10.3465C8.39273 10.348 8.73004 9.92945 8.73191 9.41169Z" fill="#425763"/>
<path d="M8.34477 9.01308C8.34533 8.85775 8.26184 8.73152 8.15829 8.73115C8.05473 8.73077 7.97033 8.85639 7.96977 9.01172C7.96921 9.16705 8.0527 9.29327 8.15625 9.29365C8.2598 9.29402 8.34421 9.16841 8.34477 9.01308Z" fill="white"/>
<path d="M12.5625 14.8125C12.5625 14.8125 11.7187 14.7187 11.1562 14.25C10.5937 13.7812 10.0312 13.875 9.9375 13.875C9.84375 13.875 9.65625 13.6875 9.46875 13.5938C9.28125 13.5 9 13.5 9 13.5938C9 13.6875 9.28125 14.1563 9.28125 14.1563V14.7187C9.1875 14.9062 9.28125 15.4688 9.9375 15.6563C10.5938 15.8438 10.9687 15.75 11.25 15.5625C11.4375 15.4688 12.5625 14.8125 12.5625 14.8125Z" fill="#A67A65"/>
<path d="M8.8125 3.75069C8.8125 3.75069 9 6.37569 12.4688 6.65694C15.9375 6.93819 22.125 8.43819 22.7812 10.4069C22.7812 10.4069 24.1875 5.62569 19.9688 2.53194C15.75 -0.561814 9.375 -0.468064 8.8125 3.75069Z" fill="#422F28"/>
<path d="M10.6868 3.28191L10.0306 2.62566C10.0306 2.62566 8.34306 1.21941 7.03056 1.87566C5.71806 2.53191 4.40556 7.03191 9.84306 6.37566L11.1556 6.28191C11.1556 6.28191 11.2493 3.65691 10.6868 3.28191ZM18.7493 13.2194C18.7493 13.2194 19.4056 12.0944 20.8118 12.0944C22.2181 12.0944 23.4368 10.9694 22.9681 8.34441C22.4993 5.71941 19.4056 5.43816 19.4056 5.43816L19.8743 9.00066L18.7493 13.2194Z" fill="#422F28"/>
<path d="M20.0625 13.4063C20.8392 13.4063 21.4688 12.6088 21.4688 11.625C21.4688 10.6412 20.8392 9.84375 20.0625 9.84375C19.2858 9.84375 18.6562 10.6412 18.6562 11.625C18.6562 12.6088 19.2858 13.4063 20.0625 13.4063Z" fill="#E5A98C"/>
<path d="M18.1884 7.59428C18.1884 7.59428 19.3134 8.71928 18.3759 11.063C17.3447 13.4068 18.7509 16.8755 18.7509 16.8755C18.7509 16.8755 18.4697 14.063 19.0322 13.313C19.5947 12.563 21.6572 9.00053 20.5322 7.12553C19.5009 5.34428 18.1884 7.59428 18.1884 7.59428Z" fill="#422F28"/>
<path d="M19.4062 13.875L19.5937 13.4063C19.5937 13.4063 21.2812 12.9375 21.4687 12.0938C21.375 12.0938 21.4688 14.1563 19.4062 13.875Z" fill="#A67A65"/>
<path d="M4.96875 20.9996C4.96875 20.9996 6.09375 19.8746 7.40625 20.0621C8.8125 20.2496 9.46875 21.9371 10.5 23.1558C11.5312 24.3746 13.2188 22.9683 13.5938 22.8746C13.9688 22.6871 15.375 21.9371 17.3438 22.8746C19.4062 23.8121 20.4375 27.2808 20.4375 27.2808C20.4375 27.2808 14.3438 27.1871 10.7812 26.0621C7.21875 24.9371 5.34375 22.4058 4.96875 20.9996Z" fill="#D3624F"/>
<path d="M8.25039 22.6866C8.43789 22.8741 8.62539 23.1553 8.62539 23.4366C8.62539 23.7178 8.62539 23.9991 8.43789 24.1866C8.15664 24.4678 7.59414 24.2803 7.21914 24.0928C6.56289 23.7178 5.15664 22.6866 5.81289 21.7491C6.56289 20.7178 7.87539 22.0303 8.25039 22.6866ZM16.4066 25.1241C16.5941 25.3116 16.6879 25.5928 16.7816 25.8741C16.8754 26.1553 16.7816 26.4366 16.5941 26.6241C16.3129 26.9053 15.7504 26.7178 15.3754 26.5303C14.7191 26.1553 13.3129 25.1241 13.9691 24.1866C14.6254 23.2491 15.9379 24.4678 16.4066 25.1241Z" fill="#E27364"/>
<path d="M9 21C9 21 10.5937 22.875 11.5312 22.875C12.4687 22.875 14.1562 21.5625 15.8437 21.6563C17.5312 21.75 20.4375 23.3437 21.2812 26.0625L20.1562 26.625C20.1562 26.625 18.4687 23.1562 15.8437 22.875C15.8437 22.875 14.7187 22.875 13.3125 23.4375C11.9062 24 10.7812 24.6562 9 21Z" fill="#A53829"/>
<path d="M21.3747 7.12487C21.1872 5.99987 20.2497 5.15612 19.3122 4.40612C18.7497 3.93737 18.1872 3.46862 17.5309 3.09362C16.4997 2.53112 15.3747 2.34362 14.2497 2.24987C13.5934 2.15612 12.9372 2.06237 12.4684 2.43737C12.1872 2.62487 11.9997 2.99987 11.8122 3.18737C11.4372 3.56237 10.8747 3.74987 10.4059 3.74987C9.93717 3.74987 9.46842 3.65612 8.90592 3.56237C8.81217 3.74987 8.90592 4.03112 9.09342 4.21862C9.28092 4.31237 9.56217 4.31237 9.84342 4.31237C11.4372 4.21862 12.9372 4.21862 14.4372 4.49987C16.6872 4.96862 18.6559 6.09362 20.6247 7.12487" fill="#513C36"/>
<path d="M15.375 27.5625L15.0938 27.9375L16.5938 28.9688L25.2187 20.5312L23.8125 18.6562L15.375 27.5625Z" fill="#9A4C18"/>
<path d="M25.4064 22.875C25.1252 26.25 22.0314 29.1562 18.4689 29.0625C15.0002 29.0625 12.8439 26.1562 13.5002 22.875C14.1564 19.7812 17.0627 17.3438 20.1564 17.3438C23.2502 17.3438 25.5939 19.6875 25.4064 22.875Z" fill="#9A4C18"/>
<path d="M26.2503 24C25.9691 27.1875 22.8753 30 19.5003 29.9062C16.1253 29.9062 13.9691 27.1875 14.6253 24C15.1878 21 18.0941 18.75 21.1878 18.6562C24.1878 18.6562 26.5316 20.9063 26.2503 24Z" fill="#9A4C18"/>
<path d="M16.4062 27.75L17.8125 28.5L24.8438 21.1875L23.7187 19.6875L16.4062 27.75Z" fill="#F49937"/>
<path d="M25.5942 24C25.313 26.7187 22.7817 29.0625 19.9692 29.0625C17.1567 29.0625 15.3755 26.7187 15.8442 24C16.313 21.4687 18.7505 19.4062 21.3755 19.4062C23.9067 19.4062 25.7817 21.375 25.5942 24Z" fill="#F49937"/>
<path d="M24.6565 22.8742C24.3752 25.7804 21.6565 28.3117 18.5627 28.3117C15.5627 28.3117 13.594 25.7804 14.1565 22.9679C14.719 20.2492 17.2502 18.0929 20.0627 18.0929C22.7815 17.9992 24.844 20.0617 24.6565 22.8742Z" fill="#FFEDC0"/>
<path d="M24.2817 23.0625C24.0005 25.7812 21.4692 28.125 18.6567 28.125C15.8442 28.125 14.063 25.7812 14.5317 23.0625C15.0005 20.5312 17.438 18.4688 20.063 18.4688C22.5942 18.4688 24.4692 20.4375 24.2817 23.0625Z" fill="#FFD766"/>
<path d="M23.1562 23.0625C22.9687 25.2187 20.9999 27 18.7499 26.9062C16.5937 26.9062 15.1874 25.125 15.5624 23.0625C15.9374 21.0937 17.8124 19.5 19.8749 19.4062C21.8437 19.5 23.3437 21.0937 23.1562 23.0625Z" fill="#FFEDC0"/>
<path d="M23.1562 22.5938C22.9687 24.6563 20.9999 26.4375 18.7499 26.4375C16.5937 26.4375 15.1874 24.6563 15.5624 22.5938C15.9374 20.625 17.8124 19.0313 19.7812 19.0313C21.9374 18.9375 23.4374 20.5313 23.1562 22.5938Z" fill="#F49937"/>
<path d="M22.4993 23.0625C22.3118 24.8438 20.6243 26.3438 18.8431 26.3438C17.0618 26.3438 15.8431 24.8438 16.1243 23.0625C16.4056 21.375 17.9993 19.9688 19.7806 19.9688C21.4681 20.0625 22.6868 21.375 22.4993 23.0625Z" fill="#FFD766"/>
<path d="M20.25 19.6875L20.7187 21.6563L22.875 22.2188L20.9062 23.5313L20.7187 25.7812L19.0312 24.4688L16.6875 25.2187L17.7187 23.1563L16.5938 21.4687H18.75L20.25 19.6875Z" fill="#F49937"/>
</g>
<defs>
<clipPath id="clip0_52_72626">
<rect width="30" height="30" fill="white"/>
</clipPath>
</defs>
</svg>
