<svg width="20" height="18" viewBox="0 0 20 18" fill="none" xmlns="http://www.w3.org/2000/svg">
<path fill-rule="evenodd" clip-rule="evenodd" d="M7.41732 1.42285H12.559C14.8173 1.42285 16.6423 2.1839 16.6673 4.11854V14.9155C16.6673 15.0364 16.634 15.1573 16.5673 15.264C16.459 15.4347 16.2757 15.5628 16.0507 15.6197C15.834 15.6766 15.5923 15.6481 15.3923 15.5485L9.99232 13.244L4.58398 15.5485C4.45982 15.6047 4.31732 15.641 4.17565 15.641C3.70898 15.641 3.33398 15.3138 3.33398 14.9155V4.11854C3.33398 2.1839 5.16732 1.42285 7.41732 1.42285ZM6.85065 6.84268H13.1257C13.484 6.84268 13.7757 6.59302 13.7757 6.28078C13.7757 5.96782 13.484 5.71888 13.1257 5.71888H6.85065C6.49232 5.71888 6.20065 5.96782 6.20065 6.28078C6.20065 6.59302 6.49232 6.84268 6.85065 6.84268Z" fill="#242731"/>
</svg>
