<svg width="30" height="30" viewBox="0 0 30 30" fill="none" xmlns="http://www.w3.org/2000/svg">
<g clip-path="url(#clip0_52_53754)">
<path d="M5.53112 0.937688L3.65612 4.50019C3.37487 4.78144 2.24987 7.96894 2.62487 9.75019C2.99987 11.5314 3.09362 10.6877 3.09362 10.6877C3.09362 10.6877 1.78112 11.5314 1.40612 12.4689C1.03112 13.4064 1.59362 14.7189 1.87487 15.8439C2.15612 17.0627 2.34362 18.1877 2.15612 18.6564C1.96862 19.0314 2.24987 21.7502 2.24987 22.2189C2.24987 22.6877 2.81237 29.5314 3.74987 29.9064C4.78112 30.2814 8.34362 30.0939 11.1561 30.0939C13.9686 30.0002 21.6561 25.5002 23.3436 23.3439C24.9374 21.1877 28.3124 8.53144 27.4686 5.43769C26.5311 2.34394 7.68737 -1.87481 5.53112 0.937688Z" fill="#6D6964"/>
<path d="M6.37481 0.936719L4.59356 4.31172C4.31231 4.59297 3.28106 7.59297 3.65606 9.18672C4.03106 10.7805 4.12481 10.0305 4.12481 10.0305C4.12481 10.0305 2.90606 10.7805 2.53106 11.718C2.24981 12.6555 2.71856 13.7805 2.99981 14.9055C3.18731 16.0305 3.46856 17.1555 3.28106 17.5305C3.09356 17.9055 3.37481 20.4367 3.37481 20.9055C3.37481 21.3742 3.93731 27.7492 4.87481 28.1242C5.81231 28.4992 9.18731 28.3117 11.8123 28.218C14.5311 28.1242 21.6561 23.9055 23.1561 21.843C24.6561 19.7805 27.8436 7.96797 26.9998 5.15547C26.2498 2.34297 8.43731 -1.68828 6.37481 0.936719Z" fill="#BAB6AA"/>
<path d="M6.84357 1.87536L5.15607 4.96912C4.87482 5.25037 3.93732 8.06286 4.31232 9.56286C4.68732 11.0629 4.78107 10.4066 4.78107 10.4066C4.78107 10.4066 3.65607 11.1566 3.37482 12.0004C3.09357 12.8441 3.56232 13.9691 3.74982 15.0004C3.93732 16.0316 4.12482 17.0629 4.03107 17.4379C3.93732 17.8129 4.12482 20.0629 4.12482 20.5316C4.12482 21.0004 4.68732 26.9066 5.53107 27.1879C6.37482 27.4691 9.56232 27.3754 11.9998 27.2816C14.5311 27.1879 21.1873 23.2504 22.4998 21.3754C23.9061 19.5004 26.9061 8.53161 26.1561 5.90662C25.4061 3.28162 8.71857 -0.655885 6.84357 1.87536Z" fill="#E0DDD4"/>
<path d="M10.2187 11.5312C10.2187 11.5312 10.2187 10.0312 13.0312 10.7812C16.0312 11.5312 16.0312 12.5625 15.8437 12.75C15.6562 12.9375 14.9062 13.6875 12.75 13.2187C10.5938 12.75 10.2187 11.5312 10.2187 11.5312ZM4.5 10.4062C4.5 10.4062 4.59375 8.99996 6 9.46871C7.3125 9.93746 7.21875 10.875 7.125 11.0625C7.03125 11.25 6.5625 12 5.53125 11.8125C4.5 11.5312 4.5 10.4062 4.5 10.4062Z" fill="#0C0C0C"/>
<path d="M6.46884 8.71806C6.46884 8.71806 7.68759 9.56181 6.56259 11.3431L4.21884 14.9056C4.21884 14.9056 3.75009 16.1243 4.40634 16.3118C5.15634 16.4056 5.62509 15.1868 5.71884 15.1868C5.81259 15.0931 9.00009 9.74931 9.00009 9.74931C9.00009 9.74931 9.18759 8.71806 8.06259 8.43681C7.12509 8.15556 6.56259 8.43681 6.46884 8.71806Z" fill="#FDF9F6"/>
<path d="M7.03042 8.71886C7.03042 8.71886 7.49917 8.15636 7.03042 7.59386C6.56167 7.12511 5.43667 5.81261 4.68667 5.71886C3.93667 5.53136 4.03042 6.75011 4.68667 6.65636C5.34292 6.56261 6.18667 8.43761 6.56167 8.81261C6.93667 9.18761 7.03042 8.71886 7.03042 8.71886ZM10.0304 9.37511C10.0304 9.37511 8.90542 9.09386 8.99917 8.71886C9.09292 8.34386 9.93667 7.68761 10.4054 7.59386C10.8742 7.50011 14.7179 7.03136 16.7804 8.34386C18.9367 9.65636 17.8117 10.0314 17.6242 9.93761C17.3429 9.84386 16.2179 8.25011 12.8429 8.25011C12.7492 8.15636 11.1554 8.15636 10.0304 9.37511ZM15.3742 12.0939C15.3742 12.0939 16.4992 12.2814 17.1554 12.0939C17.7179 12.0001 17.9992 11.7189 18.0929 11.8126C18.1867 11.9064 18.3742 13.3126 17.9054 13.1251L15.3742 12.5626V12.0939ZM4.03042 15.7501C4.03042 15.7501 4.31167 16.5939 4.78042 16.5939H7.49917C7.78042 16.5939 8.24917 16.3126 8.43667 16.6876C8.71792 17.0626 9.56167 16.8751 9.65542 16.7814C9.84292 16.5939 10.3117 17.9064 9.09292 18.0001C7.87417 18.0001 5.43667 17.3439 5.15542 17.2501C4.96792 17.1564 3.93667 16.5939 4.03042 15.7501Z" fill="#0C0C0C"/>
<path d="M4.40584 16.4063C4.40584 16.4063 3.93709 17.25 3.74959 17.3438C3.56209 17.3438 2.81209 16.9688 3.09334 15.8438L2.71834 15.375C2.71834 15.375 1.78084 18.4688 2.81209 18.9375C3.84334 19.4063 4.78084 19.2188 5.62459 18.4688L6.37459 20.25L12.6558 21.5625C13.2183 21.4688 17.3433 18.1875 17.3433 18.1875L15.5621 17.4375C15.5621 17.4375 13.0308 19.0313 11.5308 19.4063C11.5308 19.4063 8.53084 19.2188 7.96834 18.8438C7.40584 18.5625 7.49959 16.875 7.49959 16.875L4.40584 16.4063Z" fill="#0C0C0C"/>
<path d="M10.125 15.6556L14.3438 18.2806C15.0938 18.4681 16.6875 19.1243 18 17.4368C18 17.4368 18.4688 16.6868 18.375 16.6868C18.2813 16.6868 16.875 17.7181 16.2187 17.7181C15.6562 17.8118 11.0625 15.9368 11.0625 15.9368C11.0625 15.9368 10.125 15.4681 10.125 15.6556Z" fill="#0C0C0C"/>
<path d="M4.21864 19.7812C4.21864 19.7812 5.24989 21 6.09364 21.2813C6.93739 21.5625 10.4999 21.6562 11.9061 21.375C13.3124 21.0937 14.5311 20.1562 14.5311 20.1562C14.5311 20.1562 14.9061 20.625 14.5311 20.8125C14.1561 21 12.5624 22.4062 12.0936 22.4062C11.6249 22.4062 7.31239 22.3125 7.31239 22.3125C7.31239 22.3125 6.37489 22.125 5.90614 21.9375C5.43739 21.75 4.12489 20.1562 4.21864 19.7812Z" fill="#6D6964"/>
<path d="M12.9372 14.5312C12.9372 14.5312 15.9372 14.25 16.781 14.4375C17.531 14.625 18.281 16.5937 16.6872 17.1562C14.9997 17.625 11.906 15.6562 12.9372 14.5312ZM4.59349 12.75C4.59349 12.75 3.93724 11.8125 3.65599 11.7188C3.46849 11.7188 2.81224 13.2188 3.09349 14.1563C3.37474 15.0938 4.59349 14.0625 4.59349 12.75Z" fill="#C18F9A"/>
<path d="M9.75 24.5625L12.9375 21.5625C13.4063 21.0938 14.3438 20.5312 14.4375 20.5312C14.5312 20.5312 14.8125 21 14.5313 21.1875C14.3438 21.375 10.875 24.4687 10.4063 24.6562C10.0313 24.8437 9.75 24.5625 9.75 24.5625Z" fill="#6D6964"/>
<path d="M22.9688 3.375C22.9688 3.375 23.25 14.1562 20.625 18.2812C18 22.4062 11.0625 27.75 11.0625 27.75C11.0625 27.75 17.25 25.9688 19.6875 24.375C22.2188 22.6875 24 19.2188 24 19.2188L26.8125 6.9375C26.9062 6.75 25.125 3.5625 22.9688 3.375Z" fill="#BAB6AA"/>
<path d="M7.96875 2.06312L6.375 4.87562C6.375 4.87562 13.125 4.21937 19.875 6.84437L20.625 3.65687C20.625 3.65687 13.2188 1.68812 7.96875 2.06312ZM4.40625 19.0319C4.40625 19.0319 4.5 20.3444 5.25 20.6256C6 20.9069 8.53125 21.6569 11.7188 21.1881L12.375 21.0006C12.375 20.9069 5.25 19.4069 4.40625 19.0319Z" fill="#FDF9F6"/>
<path d="M4.21875 24.9375L8.34375 26.1562L4.59375 29.7188L4.21875 24.9375Z" fill="#0C0C0C"/>
</g>
<defs>
<clipPath id="clip0_52_53754">
<rect width="30" height="30" fill="white"/>
</clipPath>
</defs>
</svg>
