<svg width="30" height="30" viewBox="0 0 30 30" fill="none" xmlns="http://www.w3.org/2000/svg">
<g clip-path="url(#clip0_52_73449)">
<path d="M20.7276 4.05068C21.037 3.93818 16.0401 0.825676 9.01823 2.1288C1.99636 3.43193 0.580732 8.8788 1.98698 11.9444C3.39323 15.0101 6.44948 16.3882 9.81511 14.4569C13.1807 12.5257 17.6245 5.23193 20.7276 4.05068Z" fill="#16577F"/>
<path d="M18.4591 4.61174C18.7497 4.50861 13.3872 1.43361 7.71531 2.81174C2.04344 4.18986 1.19969 8.89611 2.51219 11.4367C3.82469 13.9774 6.41219 15.0367 9.07469 13.2555C11.7372 11.4742 15.9841 5.74611 18.4591 4.61174Z" fill="#1389E3"/>
<path d="M16.6784 4.53687C14.9303 3.73615 13.0177 3.36036 11.0967 3.4402C9.17565 3.52004 7.30077 4.05324 5.62523 4.99625C-0.0841482 8.23062 4.5096 14.0619 7.1346 12.8056C9.7596 11.5494 13.1252 6.41187 16.6784 4.53687Z" fill="#7BC9DB"/>
<path d="M13.7433 4.62145C13.7433 4.62145 7.62138 4.04957 4.62138 6.73082C1.62138 9.41207 5.71826 13.2933 9.00888 10.0402C10.7407 8.37425 12.3248 6.5612 13.7433 4.62145Z" fill="url(#paint0_linear_52_73449)"/>
<path d="M29.8029 7.2743C30.0092 7.18993 26.5873 5.07117 21.9186 6.0368C17.2498 7.00242 16.4061 10.818 17.3998 12.9274C18.3936 15.0368 20.4842 15.9837 22.6967 14.6055C24.9092 13.2274 27.7498 8.12743 29.8029 7.2743Z" fill="#16577F"/>
<path d="M28.7711 7.36009C28.9398 7.28509 25.3679 5.04446 21.4492 5.86009C17.5304 6.67571 16.8179 9.86321 17.6523 11.6445C18.4867 13.4257 20.2398 14.2038 22.0961 13.0507C23.9523 11.8976 27.0367 8.07259 28.7711 7.36009Z" fill="#1389E3"/>
<path d="M27.5433 7.25673C26.3719 6.65919 25.0755 6.34766 23.7605 6.34766C22.4455 6.34766 21.1491 6.65919 19.9777 7.25673C15.9652 9.33798 18.9558 13.4536 20.7933 12.6567C22.6308 11.8599 25.0402 8.43798 27.5433 7.25673Z" fill="#7BC9DB"/>
<path d="M25.537 7.23843C25.537 7.23843 21.3558 6.69468 19.2276 8.43843C17.0995 10.1822 19.8089 12.9759 22.1526 10.8103C23.3819 9.71974 24.5143 8.52464 25.537 7.23843Z" fill="url(#paint1_linear_52_73449)"/>
<path d="M15.741 13.8008C15.741 13.8008 7.06908 17.1102 4.59408 22.0227C2.11908 26.9352 8.34408 30.5164 12.3191 27.3945C16.2941 24.2727 15.741 13.8008 15.741 13.8008Z" fill="#16577F"/>
<path d="M14.465 15.1875C14.465 15.1875 7.71504 17.8125 5.78379 21.5625C3.85254 25.3125 8.69004 28.1812 11.8025 25.7437C14.915 23.3062 14.465 15.1875 14.465 15.1875Z" fill="#1389E3"/>
<path d="M13.8838 16.1992C13.8838 16.1992 8.58688 18.2148 7.0775 21.2148C5.56813 24.2148 9.35563 26.3992 11.765 24.4867C14.1744 22.5742 13.8838 16.1992 13.8838 16.1992Z" fill="#7BC9DB"/>
<path d="M13.2473 17.2227C13.2473 17.2227 9.49727 18.6664 8.39102 20.8039C7.28477 22.9414 10.0129 24.507 11.7566 23.1477C13.5004 21.7883 13.2473 17.2227 13.2473 17.2227Z" fill="url(#paint2_linear_52_73449)"/>
<path d="M23.9714 24.4597C24.8344 24.511 25.6714 24.7739 26.4088 25.2251C27.1461 25.6764 27.7611 26.3021 28.1995 27.0472C28.3031 27.212 28.372 27.3961 28.4021 27.5884C28.4322 27.7807 28.4228 27.9771 28.3746 28.1657C28.3264 28.3543 28.2402 28.5311 28.1215 28.6853C28.0028 28.8395 27.8539 28.9679 27.6839 29.0628C26.4741 29.7209 25.1189 30.0656 23.7417 30.0656C22.3646 30.0656 21.0093 29.7209 19.7995 29.0628C19.4464 28.842 19.1938 28.4917 19.0956 28.087C18.9975 27.6822 19.0617 27.2552 19.2745 26.8972C19.7749 26.1168 20.4709 25.4812 21.2933 25.0535C22.1158 24.6259 23.0359 24.4211 23.962 24.4597H23.9714Z" fill="#425763"/>
<path d="M23.9341 25.031C24.6574 25.0651 25.3626 25.2686 25.9928 25.6253C26.623 25.9819 27.1606 26.4816 27.5623 27.0841C27.6571 27.2153 27.7215 27.3661 27.7506 27.5254C27.7798 27.6847 27.773 27.8484 27.7308 28.0048C27.6885 28.1611 27.6119 28.306 27.5066 28.429C27.4012 28.5519 27.2697 28.6497 27.1216 28.7154C26.0499 29.2165 24.8779 29.466 23.695 29.4449C22.5121 29.4238 21.3497 29.1326 20.2966 28.5935C20.1555 28.52 20.0319 28.417 19.9343 28.2915C19.8366 28.1659 19.7671 28.0208 19.7307 27.8659C19.6942 27.7111 19.6915 27.5502 19.7229 27.3943C19.7542 27.2383 19.8188 27.091 19.9123 26.9622C20.3611 26.332 20.9613 25.8248 21.6576 25.4873C22.3538 25.1498 23.1238 24.9929 23.8966 25.031H23.9341Z" fill="#A2B6BA"/>
<path d="M23.9158 25.1159C24.5062 25.141 25.0822 25.3052 25.5971 25.5952C26.1119 25.8852 26.5509 26.2928 26.8783 26.7847C26.9488 26.895 26.9954 27.0188 27.0151 27.1483C27.0348 27.2777 27.0272 27.4098 26.9927 27.5361C26.9583 27.6623 26.8978 27.78 26.8151 27.8815C26.7324 27.983 26.6294 28.066 26.5127 28.1253C25.6395 28.5332 24.6846 28.736 23.7211 28.7181C22.7575 28.7002 21.8108 28.4622 20.9533 28.0222C20.841 27.9595 20.7428 27.8744 20.6648 27.7722C20.5868 27.6699 20.5307 27.5527 20.4999 27.4279C20.4691 27.303 20.4644 27.1732 20.4859 27.0464C20.5075 26.9196 20.5549 26.7986 20.6252 26.6909C20.99 26.177 21.4784 25.7632 22.0453 25.488C22.6123 25.2127 23.2395 25.0847 23.8689 25.1159H23.9158Z" fill="#87999B"/>
<path d="M23.5496 27.7594C26.9047 27.7594 29.6246 25.0395 29.6246 21.6844C29.6246 18.3292 26.9047 15.6094 23.5496 15.6094C20.1945 15.6094 17.4746 18.3292 17.4746 21.6844C17.4746 25.0395 20.1945 27.7594 23.5496 27.7594Z" fill="#425763"/>
<path d="M23.5504 26.8879C26.5327 26.8879 28.9504 24.4702 28.9504 21.4879C28.9504 18.5056 26.5327 16.0879 23.5504 16.0879C20.5681 16.0879 18.1504 18.5056 18.1504 21.4879C18.1504 24.4702 20.5681 26.8879 23.5504 26.8879Z" fill="#A2B6BA"/>
<path d="M23.7648 26.0258C26.5194 26.0258 28.7523 23.7928 28.7523 21.0383C28.7523 18.2838 26.5194 16.0508 23.7648 16.0508C21.0103 16.0508 18.7773 18.2838 18.7773 21.0383C18.7773 23.7928 21.0103 26.0258 23.7648 26.0258Z" fill="#CBDEE4"/>
<path d="M26.5027 20.6148C27.1137 20.6148 27.609 20.1196 27.609 19.5086C27.609 18.8976 27.1137 18.4023 26.5027 18.4023C25.8918 18.4023 25.3965 18.8976 25.3965 19.5086C25.3965 20.1196 25.8918 20.6148 26.5027 20.6148Z" fill="#425763"/>
<path d="M26.5504 20.1086C26.918 20.1086 27.216 19.8106 27.216 19.443C27.216 19.0754 26.918 18.7773 26.5504 18.7773C26.1828 18.7773 25.8848 19.0754 25.8848 19.443C25.8848 19.8106 26.1828 20.1086 26.5504 20.1086Z" fill="#4ED154"/>
<path d="M22.5473 19.0781C22.6345 18.5277 22.8333 18.0009 23.1316 17.5302C23.4298 17.0594 23.8212 16.6546 24.2816 16.3406C24.4785 16.2281 24.441 16.1062 24.2254 16.0781H23.9348C23.7004 16.0781 22.0598 16.1531 21.4785 19.1625L22.5473 19.0781Z" fill="#A2B6BA"/>
<path d="M25.3129 22.143C25.3129 20.2479 23.8774 18.7117 22.1066 18.7117C20.3359 18.7117 18.9004 20.2479 18.9004 22.143C18.9004 24.038 20.3359 25.5742 22.1066 25.5742C23.8774 25.5742 25.3129 24.038 25.3129 22.143Z" fill="#425763"/>
<path d="M24.7099 22.084C24.7152 20.6394 23.624 19.4643 22.2727 19.4594C20.9213 19.4544 19.8215 20.6215 19.8162 22.066C19.8109 23.5106 20.9021 24.6857 22.2535 24.6906C23.6049 24.6956 24.7046 23.5285 24.7099 22.084Z" fill="#3587C4"/>
<path d="M24.3072 21.9884C24.3116 20.7872 23.4043 19.81 22.2808 19.8059C21.1572 19.8018 20.2428 20.7722 20.2384 21.9735C20.234 23.1747 21.1413 24.1518 22.2648 24.1559C23.3884 24.16 24.3028 23.1896 24.3072 21.9884Z" fill="#4DA3EC"/>
<path d="M23.4169 20.9853C23.4181 20.6694 23.1504 20.4124 22.819 20.4112C22.4877 20.41 22.2181 20.665 22.2169 20.9809C22.2158 21.2967 22.4835 21.5537 22.8148 21.5549C23.1462 21.5561 23.4158 21.3011 23.4169 20.9853Z" fill="white"/>
<path d="M23.6904 17.5119C23.9352 17.2469 24.1983 16.9994 24.4779 16.7713C24.5297 16.7294 24.5908 16.7008 24.6561 16.6877C24.7214 16.6746 24.7889 16.6776 24.8529 16.6963C25.3894 16.854 25.9031 17.0809 26.381 17.3713C26.4596 17.421 26.5196 17.4952 26.5517 17.5825C26.5837 17.6698 26.586 17.7653 26.5582 17.854C26.5304 17.9428 26.4741 18.0199 26.3979 18.0733C26.3218 18.1267 26.2301 18.1535 26.1372 18.1494C25.4401 18.1052 24.7404 18.124 24.0466 18.2057C23.9634 18.2126 23.88 18.1946 23.8069 18.1541C23.7339 18.1135 23.6746 18.0522 23.6364 17.9779C23.5983 17.9036 23.583 17.8197 23.5926 17.7367C23.6022 17.6538 23.6362 17.5755 23.6904 17.5119Z" fill="#E1F0F4"/>
</g>
<defs>
<linearGradient id="paint0_linear_52_73449" x1="14.2009" y1="6.47076" x2="3.57944" y2="9.20826" gradientUnits="userSpaceOnUse">
<stop stop-color="white"/>
<stop offset="1" stop-color="#7BC9DB"/>
</linearGradient>
<linearGradient id="paint1_linear_52_73449" x1="46.3165" y1="19.1718" x2="38.9573" y2="20.7487" gradientUnits="userSpaceOnUse">
<stop stop-color="white"/>
<stop offset="1" stop-color="#7BC9DB"/>
</linearGradient>
<linearGradient id="paint2_linear_52_73449" x1="13.8161" y1="20.0266" x2="8.02793" y2="21.1488" gradientUnits="userSpaceOnUse">
<stop stop-color="white"/>
<stop offset="1" stop-color="#7BC9DB"/>
</linearGradient>
<clipPath id="clip0_52_73449">
<rect width="30" height="30" fill="white"/>
</clipPath>
</defs>
</svg>
