<svg width="56" height="36" viewBox="0 0 56 36" fill="none" xmlns="http://www.w3.org/2000/svg">
<ellipse cx="23.5273" cy="15.095" rx="23.5273" ry="15.095" fill="#788EBA"/>
<rect x="35.8511" y="15.8136" width="20.1489" height="20.1489" rx="10" fill="#26DC43"/>
<path d="M44.7922 28.9103C44.692 28.9089 44.596 28.8702 44.523 28.8017L41.8784 26.1571C41.8182 26.0837 41.7874 25.9905 41.7921 25.8957C41.7967 25.8008 41.8365 25.7111 41.9036 25.644C41.9708 25.5768 42.0605 25.5371 42.1554 25.5324C42.2502 25.5277 42.3434 25.5585 42.4168 25.6188L44.7922 27.9989L49.8121 22.9742C49.8855 22.914 49.9787 22.8832 50.0735 22.8879C50.1684 22.8925 50.2581 22.9323 50.3252 22.9994C50.3924 23.0666 50.4321 23.1563 50.4368 23.2511C50.4415 23.346 50.4107 23.4392 50.3504 23.5126L45.0613 28.8017C44.9883 28.8702 44.8923 28.9089 44.7922 28.9103Z" fill="#E2E7E9"/>
</svg>
