<svg width="30" height="30" viewBox="0 0 30 30" fill="none" xmlns="http://www.w3.org/2000/svg">
<g clip-path="url(#clip0_52_76931)">
<path d="M7.125 2.4375C6.65625 2.71875 6.28125 3.375 6.65625 3.84375C6.09375 3.5625 5.34375 3.9375 5.15625 4.59375C5.15625 4.875 5.25 5.34375 4.96875 5.625C4.96875 5.71875 4.78125 5.8125 4.6875 5.90625C4.5 6.09375 4.40625 6.46875 4.5 6.75C4.59375 7.03125 4.78125 7.21875 5.0625 7.3125C4.6875 7.3125 4.21875 7.6875 4.125 8.0625C4.125 8.53125 4.3125 9 4.6875 9.1875C4.3125 9.28125 4.03125 9.65625 4.03125 10.0312C4.03125 10.4062 4.21875 10.7812 4.5 10.9688C4.3125 11.25 4.40625 11.7188 4.59375 12C4.78125 12.2812 5.0625 12.5625 5.34375 12.8438C5.71875 13.125 6 13.5 6.375 13.6875C6.75 13.875 7.21875 13.9688 7.6875 13.875C8.25 13.6875 8.71875 13.2188 9 12.6562C9.65625 11.625 10.3125 10.5938 10.7812 9.375C11.25 8.25 11.4375 6.9375 11.25 5.71875C11.1562 5.15625 11.0625 4.59375 10.6875 4.125C10.4062 3.75 10.125 3.375 9.75 3.09375C9.375 2.71875 9.09375 2.34375 8.625 2.15625C8.15625 2.15625 7.59375 2.25 7.125 2.4375Z" fill="#4A3531"/>
<path d="M20.1569 18.1875C21.9381 18.75 23.6256 20.25 24.1881 22.3125C24.7506 24.4687 24.0006 27.0938 22.3131 28.2188C21.2819 28.9688 19.8756 29.25 18.6569 29.25C15.5631 29.25 12.5631 28.2188 9.46939 27.1875C8.43814 26.8125 7.40689 26.5313 6.56314 25.875C5.62564 25.2188 4.87564 24.1875 4.78189 22.9688C4.59439 21.2813 5.62564 19.6875 6.84439 18.8438C9.09439 17.4375 11.3444 16.7812 13.6881 16.7812C15.7506 16.7812 18.1881 17.5312 20.1569 18.1875Z" fill="#305472"/>
<path d="M19.7818 16.875C21.4693 17.4375 23.063 18.9375 23.5318 21C24.0943 23.1562 23.3443 25.7813 21.7505 26.9063C20.7193 27.6563 19.5005 27.9375 18.2818 27.9375C15.3755 27.9375 12.563 26.9062 9.65676 25.875C8.71926 25.5 7.68801 25.2188 6.84426 24.5625C6.00051 23.9063 5.25051 22.875 5.15676 21.6563C4.96926 19.9688 5.90676 18.375 7.12551 17.5313C9.18801 16.125 11.438 15.4688 13.5943 15.4688C15.6568 15.4688 18.0005 16.2188 19.7818 16.875Z" fill="#997567"/>
<path d="M21.0545 24.1836C21.6615 22.3121 21.1155 20.4583 19.835 20.043C18.5545 19.6277 17.0244 20.8082 16.4174 22.6797C15.8104 24.5512 16.3564 26.405 17.6369 26.8203C18.9174 27.2356 20.4475 26.0551 21.0545 24.1836Z" fill="#A88378"/>
<path d="M23.1534 11.2481C23.1712 6.32935 19.1982 2.32744 14.2794 2.30962C9.3606 2.29179 5.35869 6.26481 5.34087 11.1836C5.32304 16.1024 9.29606 20.1043 14.2148 20.1221C19.1336 20.1399 23.1355 16.1669 23.1534 11.2481Z" fill="#4A3531"/>
<path d="M22.7344 10.5762C22.7516 5.81272 18.9041 1.93718 14.1406 1.91992C9.37717 1.90266 5.50164 5.75021 5.48438 10.5137C5.46712 15.2771 9.31467 19.1527 14.0781 19.1699C18.8416 19.1872 22.7171 15.3396 22.7344 10.5762Z" fill="#7A594F"/>
<path d="M22.6959 10.3358C22.7124 5.77942 19.1161 2.07269 14.6633 2.05656C10.2105 2.04043 6.58742 5.72099 6.57091 10.2773C6.5544 14.8337 10.1507 18.5404 14.6035 18.5566C19.0563 18.5727 22.6794 14.8921 22.6959 10.3358Z" fill="#7A594F"/>
<path d="M18.219 11.5011C18.231 8.1874 15.6384 5.49168 12.4282 5.48005C9.21809 5.46841 6.60601 8.14528 6.59401 11.459C6.582 14.7727 9.17461 17.4684 12.3848 17.48C15.5949 17.4917 18.207 14.8148 18.219 11.5011Z" fill="#997567"/>
<path d="M15.1264 12.15C15.1283 11.6322 14.7941 11.2113 14.3798 11.2097C13.9656 11.2082 13.6283 11.6268 13.6264 12.1445C13.6246 12.6623 13.9588 13.0832 14.373 13.0847C14.7873 13.0862 15.1246 12.6677 15.1264 12.15Z" fill="#362826"/>
<path d="M8.7573 10.6734C8.75918 10.1556 8.42491 9.73469 8.0107 9.73319C7.59649 9.73168 7.25918 10.1502 7.2573 10.668C7.25543 11.1857 7.58969 11.6067 8.00391 11.6082C8.41812 11.6097 8.75543 11.1912 8.7573 10.6734Z" fill="#362826"/>
<path d="M8.37016 10.3685C8.37072 10.2132 8.28723 10.087 8.18368 10.0866C8.08013 10.0862 7.99572 10.2119 7.99516 10.3672C7.9946 10.5225 8.07809 10.6487 8.18164 10.6491C8.28519 10.6495 8.3696 10.5239 8.37016 10.3685Z" fill="white"/>
<path d="M12.6563 16.125C12.6563 16.125 11.8125 16.0313 11.25 15.5625C10.6875 15.0938 10.125 15.1875 10.0312 15.1875C9.9375 15.1875 9.75 15 9.5625 14.9062C9.375 14.8125 9.09375 14.8125 9.09375 14.9062C9.09375 15 9.375 15.4688 9.375 15.4688V16.0313C9.28125 16.2188 9.375 16.7813 10.0312 16.9688C10.6875 17.1563 11.0625 17.0625 11.3438 16.875C11.5313 16.7813 12.6563 16.125 12.6563 16.125Z" fill="#4A3531"/>
<path d="M13.6875 10.5C13.7813 10.6875 14.0625 10.6875 14.25 10.6875L17.0625 10.5C17.1563 10.5 17.3438 10.5 17.3438 10.4062C17.4375 10.3125 17.3438 10.125 17.25 10.0312C17.1562 9.9375 17.0625 9.9375 16.875 9.9375C16.2188 9.84375 15.4688 9.84375 14.8125 9.9375C14.625 9.84375 13.4063 9.9375 13.6875 10.5ZM8.90625 9.28125H9.1875C9.28125 9.28125 9.375 9.1875 9.375 9C9.375 8.8125 9.1875 8.71875 9.09375 8.71875L7.59375 8.15625C7.5 8.0625 7.3125 8.0625 7.21875 8.0625C7.125 8.0625 6.9375 8.15625 6.9375 8.34375C6.9375 8.53125 7.125 8.625 7.21875 8.625C7.5 8.71875 7.78125 8.8125 8.0625 9C8.34375 9.09375 8.53125 9.28125 8.90625 9.28125Z" fill="#362826"/>
<path d="M17.0623 8.8125C16.8748 8.8125 16.6873 8.90625 16.5935 8.8125C16.406 8.8125 16.2185 8.71875 16.031 8.625L13.781 7.3125C13.5935 7.21875 13.3123 7.03125 13.2185 6.84375C12.4685 7.59375 11.0623 7.59375 10.406 6.75C10.1248 6.9375 9.74977 7.03125 9.37477 6.9375C8.99977 6.84375 8.71852 6.5625 8.62477 6.28125C8.34352 6.375 7.96852 6.375 7.68727 6.46875C7.49977 5.90625 7.59352 5.25 7.96852 4.875C7.49977 5.0625 6.93727 4.78125 6.84352 4.3125C6.74977 4.03125 6.84352 3.75 6.93727 3.5625C7.12477 3.1875 7.21852 2.8125 7.31227 2.53125C7.40602 2.15625 7.59352 1.875 7.87477 1.6875C8.15602 1.5 8.62477 1.5 8.99977 1.40625C9.56227 1.3125 9.93727 0.9375 10.406 0.65625C10.9685 0.1875 11.7185 0 12.4685 0C12.9373 0 13.4998 0.1875 13.781 0.5625C13.9685 0.1875 14.3435 0 14.8123 0C15.281 0 15.656 0.375 15.7498 0.75C16.781 0.46875 17.8123 0.46875 18.8435 0.65625C19.2185 0.75 19.5935 0.84375 19.781 1.125C19.9685 1.40625 19.9685 1.96875 19.5935 2.0625C19.8748 2.15625 20.2498 2.0625 20.531 2.0625C20.8123 2.0625 21.1873 1.96875 21.4685 2.0625C21.7498 2.15625 22.031 2.4375 22.031 2.71875C22.031 3 21.7498 3.375 21.4685 3.28125L24.1873 4.3125C23.7185 4.875 22.9685 5.25 22.2185 5.25C22.4998 5.34375 22.781 5.34375 22.9685 5.4375C23.156 5.53125 23.4373 5.8125 23.4373 6.09375C23.4373 6.375 23.2498 6.65625 22.9685 6.65625L23.906 7.21875C23.6248 7.5 23.4373 7.78125 23.156 8.15625C22.9685 8.34375 22.781 8.625 22.5935 8.71875C22.2185 8.90625 21.7498 8.90625 21.3748 8.625C21.281 8.90625 21.281 9.375 20.9998 9.375C20.7185 9.375 20.4373 9 20.2498 8.90625C19.1248 8.25 18.1873 8.625 17.0623 8.8125Z" fill="#4A3531"/>
<path d="M18.1875 7.40625C17.7187 7.3125 17.1562 7.59375 17.0625 8.0625C17.0625 8.4375 17.25 8.71875 17.625 8.90625C17.9062 9.09375 18.2812 9.09375 18.6562 9.09375C18.4687 9.1875 18.2812 9.375 18.0937 9.46875C18.1875 10.0313 18.6562 10.5937 19.3125 10.6875C18.9375 10.6875 18.5625 11.0625 18.4688 11.4375C18.4688 11.8125 18.75 12.2812 19.125 12.375C18.9375 12.375 18.75 12.375 18.5625 12.4687C18.375 12.5625 18.2812 12.75 18.2812 12.9375C18.2812 13.2188 18.75 13.5 18.75 13.7812C18.75 13.9687 18.5625 14.1562 18.375 14.25C18.1875 14.3437 18 14.4375 17.9062 14.625C17.8125 14.8125 18.0937 15.0938 18.2812 15C18 15.0938 17.8125 15.2813 17.8125 15.6563C17.8125 15.9375 18 16.2188 18.2812 16.3125C18 16.2188 17.7187 16.4062 17.7187 16.6875C17.7187 16.875 17.9062 17.0625 18.0937 17.0625C18.2812 17.0625 18.4687 17.0625 18.6562 16.9688C18.6562 17.1563 18.6562 17.4375 18.8437 17.625C19.0312 18 19.4062 18.1875 19.7812 18.0938C20.1562 18 20.4375 17.625 20.4375 17.3438C20.4375 17.4375 20.5312 17.625 20.5312 17.7188C21.375 17.9062 22.3125 17.25 22.4062 16.4062C22.875 16.5938 23.5312 16.4062 23.8125 15.9375C24.0937 15.4688 24.0937 14.9062 23.8125 14.4375C24.4687 14.4375 24.9375 13.9687 25.125 13.3125C25.3125 12.75 25.0312 12 24.4687 11.7188C24.8437 11.7188 25.2187 11.3437 25.2187 10.9687C25.2187 10.5937 25.0312 10.2188 24.6562 9.9375C24.375 9.65625 24 9.5625 23.625 9.375C24.1875 9 24.9375 8.4375 24.9375 7.6875C24.9375 7.03125 24.2812 6.375 23.625 6.46875L21 5.34375C20.7187 5.25 20.4375 5.0625 20.0625 4.96875C19.5937 4.78125 19.125 4.59375 18.6562 4.59375C18.1875 4.59375 17.625 4.96875 17.5312 5.4375C17.5312 5.71875 17.625 6 17.7187 6.28125C17.8125 6.5625 17.8125 6.9375 17.625 7.125" fill="#4A3531"/>
<path d="M22.3116 4.03219C22.6866 3.65719 23.3428 3.84469 23.6241 4.31344C23.9053 4.78219 23.5303 5.43844 23.0616 5.53219C23.3428 5.43844 23.7178 5.71969 23.8116 6.00094L24.2803 6.75094C24.5616 7.21969 24.7491 7.59469 24.9366 8.15719C25.1241 9.00094 24.9366 9.84469 24.7491 10.6884C24.6553 11.1572 24.4678 11.7197 23.9991 11.8134C23.5303 12.0009 23.0616 11.6259 22.6866 11.2509C21.9366 10.3134 21.6553 9.09469 21.2803 7.96969C21.0928 7.40719 20.8116 6.84469 20.5303 6.28219C20.1553 5.53219 18.9366 3.75094 19.6866 2.90719C20.4366 1.96969 22.4053 2.90719 22.3116 4.03219Z" fill="#4A3531"/>
<path d="M17.4364 0.9375C17.8114 0.9375 18.1864 0.9375 18.4677 1.125C18.7489 1.3125 18.9364 1.6875 18.8427 2.0625C19.1239 1.59375 19.6864 1.40625 20.1552 1.5C20.6239 1.59375 21.0927 2.15625 21.0927 2.625C21.4677 2.53125 21.8427 2.34375 22.2177 2.34375C22.5927 2.25 23.0614 2.34375 23.2489 2.71875C23.5301 3 23.4364 3.5625 23.0614 3.65625C23.3427 3.46875 23.7177 3.5625 23.9989 3.65625C24.2802 3.84375 24.3739 4.125 24.3739 4.5C24.3739 4.6875 24.2801 4.875 24.2801 5.0625C24.3739 5.4375 24.7489 5.53125 24.9364 5.8125C25.3114 6.09375 25.3114 6.46875 25.4052 6.84375C25.4989 7.3125 25.4989 7.78125 25.5926 8.25C25.6864 8.8125 25.6864 9.375 25.7802 9.9375C25.7802 10.3125 25.8739 10.7812 25.5926 11.0625C25.4989 11.3438 25.4989 11.625 25.4052 12C25.3114 12.375 25.2177 12.75 25.0302 13.125C24.7489 13.4062 24.3739 13.5938 23.9989 13.4062C23.7177 13.3125 23.6239 13.0312 23.5302 12.75C23.4364 12.4688 23.4364 12.1875 23.3426 11.9062C23.2489 11.5312 23.0614 11.1562 22.7801 10.9688C22.4989 10.7812 22.0302 10.6875 21.7489 10.875C21.8427 10.5 21.9364 10.125 21.8426 9.75C21.7489 9.375 21.5614 9.09375 21.1864 9C20.7177 8.90625 20.0614 9.28125 19.6864 9C19.3114 8.625 19.6864 7.875 19.4052 7.40625C19.1239 6.9375 18.4677 6.9375 17.9989 7.03125C17.5302 7.125 16.8739 7.21875 16.4989 6.84375C16.4052 6.65625 16.3114 6.46875 16.2176 6.375C15.8426 5.25 15.4676 4.03125 15.3739 2.8125C15.2801 1.6875 16.5927 1.03125 17.4364 0.9375Z" fill="#4A3531"/>
<path d="M5.90658 19.2188C5.90658 19.2188 6.84408 22.875 9.75033 23.7187C12.6566 24.5625 17.0628 25.125 19.9691 24.0938C22.8753 23.0625 23.7191 21.9375 23.7191 21.9375C23.7191 21.9375 24.3753 29.0625 16.6878 27.9375C9.09408 26.9062 6.28158 24.2812 6.00033 23.8125C5.71908 23.3437 4.21908 21.8438 5.90658 19.2188Z" fill="#53A9B8"/>
<path d="M12.1873 7.59297C12.2811 7.96797 12.5623 8.34297 12.9373 8.62422C13.3123 8.90547 13.6873 8.99922 14.0623 9.18672C13.7811 9.09297 13.4998 9.37422 13.4061 9.65547C13.3123 9.93672 13.4998 10.3117 13.6873 10.4992C13.8748 10.6867 14.1561 10.8742 14.4373 10.968C14.1561 11.0617 14.0623 11.343 14.1561 11.6242C14.2498 11.9055 14.4373 12.093 14.6248 12.1867C15.0936 12.5617 15.4686 12.843 16.0311 13.1242C16.5936 13.4992 17.2498 13.7805 17.8123 14.0617C18.1873 14.2492 18.6561 14.343 19.0311 14.2492C19.4998 14.0617 19.8748 13.593 20.0623 13.1242C20.4373 12.2805 20.6248 11.343 20.7186 10.3117C20.7186 9.84297 20.7186 9.46797 20.5311 9.09297C20.3436 8.53047 19.8748 8.06172 19.4061 7.78047C18.9373 7.49922 18.3748 7.21797 17.8123 7.03047C16.9686 6.74922 16.0311 6.37422 15.1873 6.28047C14.2498 6.09297 11.9061 6.09297 12.1873 7.59297Z" fill="#4A3531"/>
<path d="M6 7.40625C6 7.40625 9.84375 7.125 13.9688 9.09375C13.9688 9.09375 12.8437 5.71875 7.6875 4.875C7.6875 4.875 6.1875 6.1875 6 7.40625Z" fill="#6A648E"/>
<path d="M10.2187 26.7188C10.2187 26.7188 9.09375 25.3125 9.09375 24.6562C9.09375 24.6562 8.25 25.2188 8.0625 25.875C8.0625 25.875 9.75 26.8125 10.2187 26.7188Z" fill="#305472"/>
<path d="M19.9822 23.044C20.2218 22.3052 19.937 21.551 19.346 21.3593C18.755 21.1676 18.0816 21.6111 17.842 22.3499C17.6024 23.0886 17.8873 23.8429 18.4783 24.0346C19.0693 24.2262 19.7426 23.7827 19.9822 23.044Z" fill="#A88378"/>
<path opacity="0.43" d="M20.1563 24C20.1563 24 20.625 28.5 17.7188 28.7813C17.7188 28.7813 24.5625 28.5 24 21.8438C23.9063 21.8438 22.6875 23.25 20.1563 24Z" fill="#305472"/>
<path d="M7.5 6.75C7.5 6.75 7.6875 6 8.34375 5.625C8.34375 5.625 11.4375 6.65625 12.5625 7.875C12.4687 7.875 9.65625 6.75 7.5 6.75Z" fill="#807CA5"/>
<path d="M14.625 2.81166C16.2188 2.99916 17.8125 3.28041 19.2188 3.84291C19.5938 4.03041 19.9688 4.21791 20.25 4.59291C20.4375 4.96791 20.3438 5.53041 19.9688 5.62416C20.4375 5.99916 21 6.18666 21.5625 6.09291C21.5625 6.46791 21.6563 6.74916 21.6563 7.12416C22.3125 7.96791 22.5 8.99916 22.7813 10.0304C22.875 10.5929 23.0625 11.1554 22.9688 11.8117C22.875 12.3742 22.5938 12.9367 22.0313 13.2179C21 13.0304 21 11.3429 19.9688 11.1554C19.2188 10.9679 18.375 11.7179 17.7188 11.3429C17.25 10.9679 17.4375 10.2179 17.7188 9.65541C17.25 9.74916 16.7813 9.46791 16.5938 8.99916C16.4063 8.62416 16.3125 8.15541 16.2188 7.68666C16.125 7.21791 15.9375 6.74916 15.5625 6.46791C15.1875 6.18666 14.625 6.28041 14.1563 5.99916C13.5938 5.62416 13.3125 5.15541 13.0313 4.68666C12.75 4.21791 12.0938 3.84291 11.9063 3.37416C11.3438 2.34291 14.0625 2.71791 14.625 2.81166Z" fill="#604845"/>
<path d="M21.6563 15.375L18.0937 14.5312C17.7187 15 17.8125 15.75 18 16.4062C18.0938 16.7812 18.1875 17.25 18.4688 17.625C18.8438 18.0937 19.5 18.1875 20.1562 18.0937C20.7188 18 21.2813 17.625 21.75 17.3438C22.5 16.875 23.3437 16.4063 23.8125 15.5625C23.1562 15.6563 22.3125 15.5625 21.6563 15.375Z" fill="#362826"/>
<path d="M15.4687 27.375L15.0938 27.75L16.5938 28.875L25.2187 20.3438L23.8125 18.5625L15.4687 27.375Z" fill="#9A4C18"/>
<path d="M25.4064 22.7819C25.1252 26.1569 22.0314 29.0632 18.4689 28.9694C15.0002 28.9694 12.8439 26.0632 13.5002 22.7819C14.1564 19.6882 17.0627 17.2507 20.1564 17.2507C23.2502 17.1569 25.5939 19.5944 25.4064 22.7819Z" fill="#9A4C18"/>
<path d="M26.2503 23.8125C25.9691 27 22.8753 29.8125 19.5003 29.7188C16.1253 29.7188 13.9691 27 14.6253 23.8125C15.1878 20.8125 18.0941 18.5625 21.1878 18.4688C24.1878 18.4688 26.5316 20.7187 26.2503 23.8125Z" fill="#9A4C18"/>
<path d="M16.4062 27.5625L17.8125 28.4062L24.8438 21L23.7187 19.5L16.4062 27.5625Z" fill="#F49937"/>
<path d="M25.5942 23.8125C25.313 26.5312 22.7817 28.875 19.9692 28.875C17.1567 28.875 15.3755 26.5312 15.8442 23.8125C16.313 21.2812 18.7505 19.2188 21.3755 19.2188C23.9067 19.2188 25.7817 21.1875 25.5942 23.8125Z" fill="#F49937"/>
<path d="M24.6565 22.6867C24.3752 25.6867 21.6565 28.1242 18.5627 28.1242C15.5627 28.1242 13.594 25.5929 14.1565 22.7804C14.719 20.0617 17.2502 17.9054 20.0627 17.9054C22.7815 17.8117 24.844 19.8742 24.6565 22.6867Z" fill="#FFEDC0"/>
<path d="M24.2817 22.875C24.0005 25.5937 21.4692 27.9375 18.6567 27.9375C15.8442 27.9375 14.063 25.5937 14.5317 22.875C15.0005 20.3437 17.438 18.2812 20.063 18.2812C22.5942 18.2812 24.4692 20.3437 24.2817 22.875Z" fill="#FFD766"/>
<path d="M23.1562 22.9687C22.9687 25.125 20.9999 26.9062 18.7499 26.8125C16.5937 26.8125 15.1874 25.0312 15.5624 22.9687C15.9374 21 17.8124 19.4062 19.8749 19.3125C21.8437 19.3125 23.3437 20.9062 23.1562 22.9687Z" fill="#FFEDC0"/>
<path d="M23.1562 22.4062C22.9687 24.4687 20.9999 26.25 18.8437 26.25C16.6874 26.25 15.2812 24.4687 15.6562 22.4062C16.0312 20.4375 17.9062 18.8438 19.8749 18.8438C21.9374 18.8438 23.4374 20.3437 23.1562 22.4062Z" fill="#F49937"/>
<path d="M22.4993 22.9687C22.3118 24.75 20.6243 26.25 18.8431 26.25C17.0618 26.25 15.8431 24.75 16.1243 22.9687C16.4056 21.2812 17.9993 19.875 19.7806 19.875C21.4681 19.875 22.6868 21.1875 22.4993 22.9687Z" fill="#FFD766"/>
<path d="M20.25 19.5L20.7187 21.4688L22.875 22.0313L20.9062 23.3438L20.7187 25.5938L19.0312 24.2813L16.6875 25.125L17.7187 22.9688L16.5938 21.2813H18.75L20.25 19.5Z" fill="#F49937"/>
</g>
<defs>
<clipPath id="clip0_52_76931">
<rect width="30" height="30" fill="white"/>
</clipPath>
</defs>
</svg>
