<svg width="30" height="30" viewBox="0 0 30 30" fill="none" xmlns="http://www.w3.org/2000/svg">
<g clip-path="url(#clip0_52_64707)">
<path d="M16.124 22.5928L8.71778 26.9053C8.71778 26.9053 15.1865 28.6866 18.4678 27.7491C20.4365 27.1866 21.9365 24.2803 21.9365 24.2803L16.124 22.5928ZM12.6553 23.1553L6.84278 15.0928C6.84278 15.0928 3.18653 5.6241 2.71778 5.4366C2.24903 5.2491 1.78028 5.15535 0.374034 6.1866C-1.03222 7.21785 2.34278 16.1241 2.34278 16.1241L6.84278 24.1866C6.74903 24.1866 11.9053 23.9991 12.6553 23.1553Z" fill="#C48051"/>
<path d="M13.4053 21.8432L7.59278 13.7807L4.59278 5.81191C4.12403 5.62441 2.53028 4.68691 1.12403 5.81191C-0.282216 6.93691 3.09278 14.9057 3.09278 14.9057L7.49903 22.9682C7.49903 22.9682 12.6553 22.7807 13.4053 21.8432Z" fill="#C48051"/>
<path d="M13.6865 22.4994L7.87403 14.4369L4.87403 6.46816C4.40528 6.28066 2.81153 5.34316 1.40528 6.46816C-0.000966072 7.59316 3.37403 15.5619 3.37403 15.5619L7.78028 23.7182C7.78028 23.6244 12.9365 23.3432 13.6865 22.4994Z" fill="#FCC097"/>
<path d="M3.37469 9.5625C3.37469 9.5625 2.24969 6.28125 2.34344 5.8125C2.43719 5.34375 4.03094 4.59375 4.59344 4.96875C5.15594 5.34375 6.18719 7.96875 6.37469 9.09375C6.37469 9.09375 4.59344 9.9375 3.37469 9.5625Z" fill="#DD4568"/>
<path d="M6.75 24.1875L8.90625 27L16.125 24.5625L12.1875 23.25L6.75 24.1875Z" fill="#C48051"/>
<path d="M5.90625 9.84375L9.28125 18.375C9.9375 20.25 12.8437 21.5625 15.2812 21.2813C17.7187 21 21 21.0938 21.9375 19.6875C22.875 18.375 26.3437 10.5938 28.5 9.1875C28.5 9.1875 26.3437 11.0625 24.2812 12.375C22.2187 13.6875 19.5 17.4375 16.3125 17.3438C13.125 17.25 10.6875 16.6875 9.28125 14.1562C7.875 11.625 6.9375 9.46875 6.9375 9.46875L5.90625 9.84375Z" fill="#4C2537"/>
<path d="M6.09375 8.90609C6.09375 8.90609 7.78125 15.7498 15.1875 15.3748C22.5938 14.9998 27.375 9.46859 27.375 9.46859C27.375 9.46859 20.0625 7.03109 18.0937 6.56234C16.125 6.09359 10.875 6.18734 10.875 6.18734L6.09375 8.90609Z" fill="#4C2537"/>
<path d="M8.625 7.3125C8.625 7.3125 13.2188 10.7813 21.6563 8.25L19.2188 7.125L9.5625 6.1875L8.625 7.3125Z" fill="white"/>
<path d="M5.625 8.90625C5.625 8.90625 7.40625 6.5625 7.78125 5.34375C8.15625 4.21875 9.5625 2.625 11.4375 3.5625C13.3125 4.5 14.625 4.5 15.4688 4.03125C16.4063 3.75 18 2.8125 19.5938 3.46875C21.0938 4.125 25.5 7.6875 28.6875 8.34375C28.7813 8.34375 28.7813 8.53125 28.6875 8.53125C28.3125 8.625 27.8438 8.71875 27.2813 8.71875C26.3438 8.71875 19.875 5.90625 18.9375 5.53125C18 5.15625 14.625 6.1875 12.8438 5.90625C11.1562 5.71875 9.09375 6.5625 9.09375 6.5625C9.09375 6.5625 6.65625 9.28125 5.625 8.90625Z" fill="#960F4E" stroke="#960F4E" stroke-width="0.364969" stroke-miterlimit="10"/>
<path d="M5.8125 8.90646C5.8125 8.90646 7.96875 7.03146 8.90625 5.25021C9.84375 3.46896 12.4688 4.96896 13.3125 5.25021C14.0625 5.62521 15.5625 5.25021 16.5938 4.78146C17.625 4.31271 19.125 3.93771 20.625 4.96896C22.125 6.00021 26.5312 8.25021 28.5938 8.62521C28.5938 8.62521 26.9063 9.93771 23.5313 9.00021C20.1563 8.06271 19.3125 7.59396 17.3438 7.78146C15.375 7.96896 12.4688 7.96896 10.5938 7.12521C10.5938 7.12521 10.0313 6.75021 9 7.50021C7.96875 8.25021 6 8.90646 5.8125 8.90646Z" fill="#960F0F"/>
<path d="M5.8125 9.00021C5.8125 9.00021 7.96875 6.65646 8.90625 4.87521C9.84375 3.09396 12.4688 4.59396 13.3125 4.87521C14.1562 5.15646 15.6562 4.78146 16.6875 4.31271C17.7187 3.84396 19.2188 3.46896 20.7188 4.50021C22.2188 5.53146 26.4375 8.25021 28.5938 8.62521C28.5938 8.62521 27.0937 9.46896 23.7187 8.53146C20.3437 7.59396 19.5 7.12521 17.5313 7.31271C15.5625 7.50021 12.6562 7.50021 10.7812 6.65646C10.7812 6.65646 10.2188 6.28146 9.1875 7.03146C8.15625 7.78146 6 9.00021 5.8125 9.00021Z" fill="#DD4568"/>
<path d="M5.34375 9.09375L8.71875 17.625C9.375 19.4062 12.2812 20.8125 14.7188 20.5313C17.1562 20.25 20.25 20.1563 21.1875 18.8438C22.125 17.5313 26.7187 10.2188 28.875 8.90625C28.875 8.90625 25.6875 10.4063 23.7187 11.7188C21.75 13.0313 18.9375 16.7812 15.75 16.6875C12.5625 16.5938 10.125 16.0313 8.71875 13.5C7.3125 10.9688 6.375 8.8125 6.375 8.8125L5.34375 9.09375Z" fill="#960F4E"/>
<path d="M6.09375 8.90625C6.09375 9 6.09375 9 6.09375 8.90625C6.28125 9.46875 8.34375 14.5313 9 16.0313C9.65625 17.625 12.375 18.8438 14.5312 18.5625C16.6875 18.2812 19.5938 18.2813 20.5312 17.0625C21.375 15.9375 25.5938 10.875 27.6562 9.28125C27.75 9.28125 27.6562 9.1875 27.5625 9.1875C26.625 9.5625 24.2812 10.5 22.875 11.3438C21 12.4688 18.375 15.2813 15.4688 15.1875C12.5625 15.0938 10.2188 14.625 8.90625 12.375L6.5625 8.8125H6.46875L6.09375 8.90625Z" fill="#DD4568"/>
<path d="M20.437 5.25048C19.5933 4.78173 18.6558 4.40673 17.6245 4.59423C17.1558 4.68798 16.687 4.87548 16.5933 5.34423C16.4995 5.71923 16.7808 6.18798 17.062 6.37548C17.437 6.56298 17.812 6.65673 18.187 6.65673L20.1558 6.93798C20.7183 7.03173 21.4683 7.21923 22.0308 7.21923C22.7808 7.21923 21.937 6.56298 21.7495 6.37548C21.3745 5.90673 20.9995 5.53173 20.437 5.25048ZM19.8745 16.5942C20.3433 16.313 20.6245 15.938 20.7183 15.4692C20.7183 15.2817 20.7183 15.0005 20.437 14.9067C20.2495 14.813 19.9683 14.813 19.7808 14.9067C19.5933 15.0005 19.4995 15.188 19.4058 15.3755C19.2183 15.6567 19.0308 15.938 18.937 16.2192L18.4683 16.9692C18.3745 17.3442 18.8433 17.063 19.0308 16.9692C19.4058 16.9692 19.687 16.7817 19.8745 16.5942ZM11.7183 5.06298C11.2495 4.68798 10.5933 4.50048 10.0308 4.59423C9.74955 4.68798 9.4683 4.78173 9.37455 5.15673C9.2808 5.43798 9.4683 5.71923 9.6558 5.90673C9.8433 6.09423 10.1245 6.09423 10.312 6.18798C10.687 6.28173 11.1558 6.28173 11.5308 6.37548C11.9058 6.37548 12.3745 6.56298 12.7495 6.56298C13.2183 6.56298 12.7495 6.09423 12.562 5.90673C12.2808 5.62548 11.9995 5.25048 11.7183 5.06298Z" fill="#F964A0"/>
<path d="M25.7812 9.1875C25.7812 9.1875 26.9062 9.65625 26.7187 10.2187L26.9062 10.3125L28.875 8.8125C28.9687 8.625 28.875 8.4375 28.875 8.4375H28.5937C28.5937 8.4375 27.375 9.09375 25.7812 9.1875ZM7.59375 8.15625C7.59375 8.15625 6.46875 8.53125 5.90625 8.53125L5.53125 9.09375L6.09375 9.84375C6.09375 9.84375 6.46875 9.28125 6.84375 9.375C6.84375 9.375 7.125 8.625 7.59375 8.4375V8.15625Z" fill="#960F0F"/>
<path d="M10.6866 5.4375C10.7804 5.4375 10.9679 5.53125 11.0616 5.53125C11.1554 5.53125 11.3429 5.4375 11.3429 5.34375C11.3429 5.25 11.2491 5.15625 11.0616 5.0625C10.8741 4.96875 10.6866 4.96875 10.4991 4.875H10.1241C9.46789 5.0625 10.4991 5.34375 10.6866 5.4375ZM19.0304 5.34375C19.1241 5.34375 19.3116 5.4375 19.4054 5.4375C19.4991 5.4375 19.6866 5.34375 19.6866 5.25C19.6866 5.15625 19.5929 5.0625 19.4054 4.96875C19.2179 4.875 19.0304 4.875 18.8429 4.78125H18.4679C17.9054 5.0625 18.8429 5.34375 19.0304 5.34375Z" fill="#FFA1CA"/>
<path d="M14.8125 22.5938L21.2813 15L24.9375 7.21878C25.4062 7.03128 27.0937 6.18753 28.5 7.40628C29.9062 8.62503 25.7812 16.3125 25.7812 16.3125L21.0938 24C21 24 15.4688 23.625 14.8125 22.5938Z" fill="#C48051"/>
<path d="M16.0312 23.2491L22.2188 15.9366L25.6875 8.53036C26.1562 8.43661 27.75 7.59286 29.0625 8.71786C30.375 9.84286 26.4375 17.2491 26.4375 17.2491L21.9375 24.6554C21.9375 24.5616 16.6875 24.1866 16.0312 23.2491Z" fill="#C48051"/>
<path d="M15.9375 21.5616L22.125 14.2491L25.5937 6.84286C26.0625 6.74911 27.6562 5.90536 28.9688 7.03036C30.2812 8.15536 26.3438 15.5616 26.3438 15.5616L21.8437 22.9679C21.8437 22.8741 16.5938 22.4054 15.9375 21.5616Z" fill="#FCC097"/>
<path d="M15.8437 21.9375L9.65625 26.5312C9.65625 26.5312 14.25 27.6562 16.2187 27.4687C20.1562 27 22.0312 22.5938 22.0312 22.5938L15.8437 21.9375Z" fill="#FCC097"/>
<path d="M3.75041 13.032C4.03166 13.2195 4.50041 13.2195 4.68791 12.9382C5.06291 12.5632 4.96916 11.907 4.50041 11.532C4.12541 11.2507 3.28166 10.9695 3.00041 11.4382C2.90666 11.8132 3.37541 12.7507 3.75041 13.032Z" fill="#FFD9C0"/>
<path d="M18.7492 18.0938L16.8742 21.8438C16.4055 22.875 12.9367 26.0625 10.0305 25.6875C7.12423 25.3125 8.90548 23.25 8.90548 23.25L18.7492 18.0938Z" fill="#C48051"/>
<path d="M21.5623 12.374C21.5623 12.374 20.0623 11.0615 15.0936 12.8428C15.0936 12.8428 10.6873 11.3428 6.46858 13.9678C2.24983 16.5928 4.21858 22.3115 6.84358 23.4365C9.46858 24.5615 13.9686 25.2178 15.7498 22.4053C17.5311 19.5928 17.9061 15.5615 21.5623 12.374Z" fill="#4C2537"/>
<path d="M21.9366 12.1875C21.9366 12.1875 19.6866 10.4062 14.7178 12.1875C14.7178 12.1875 11.9991 9.84373 7.78031 12.375C3.56156 14.9062 3.84281 21.6562 6.46781 22.6875C9.09281 23.7187 13.5928 24.4687 15.3741 21.6562C17.1553 18.8437 15.7491 15.9375 21.9366 12.1875Z" fill="#960F0F"/>
<path d="M15.6553 15.4681C15.2803 15.0931 14.7178 14.8118 14.3428 14.4368C13.8741 14.0618 13.5928 13.6868 13.3116 13.2181C13.0303 12.6556 12.8428 12.0931 12.4678 11.6243C12.0928 11.1556 11.7178 10.8743 11.2491 10.4993C10.1241 10.4056 8.71781 10.6868 7.12406 11.7181C2.90531 14.2493 3.18656 20.9993 5.81156 22.0306C8.43656 23.0618 12.8428 23.8118 14.7178 20.9993C15.3741 19.9681 15.9366 18.4681 16.4991 16.9681C16.3116 16.4056 16.1241 15.9368 15.6553 15.4681Z" fill="#960F0F"/>
<path d="M22.3119 12.3744C22.3119 12.3744 19.3119 9.84316 14.7181 11.5307C14.7181 11.5307 12.1869 9.28066 8.24936 11.7182C4.31186 14.1557 4.59311 20.3432 7.03061 21.3744C9.46811 22.4057 13.0306 23.2494 14.7181 20.6244C16.4056 17.9994 16.8744 11.6244 22.3119 12.3744Z" fill="#DD4545"/>
<path d="M13.875 10.875C13.875 10.875 10.3125 12.5625 9.375 17.8125C9.375 17.8125 9.5625 18.1875 9.75 18.1875C9.9375 18.1875 11.1562 14.0625 13.0312 12.75C14.9062 11.4375 16.3125 10.9687 17.625 10.9687L14.9062 11.0625C14.3437 11.1562 13.875 10.875 13.875 10.875Z" fill="#960F0F"/>
<path d="M17.3439 11.625C17.6252 11.625 17.9064 11.625 18.0939 11.8125C18.2814 12.0938 18.0939 12.375 17.9064 12.6563L15.4689 16.0313C15.1877 16.4063 15.0002 16.7813 14.5314 16.9688C14.1564 17.25 13.5939 17.3438 13.2189 17.0625C12.6564 16.7813 12.6564 16.0312 12.8439 15.4688C13.0314 14.625 13.5002 13.5 14.1564 12.8438C15.0939 12.2812 16.2189 11.8125 17.3439 11.625ZM10.5002 11.4375C10.7814 11.4375 10.9689 11.4375 11.1564 11.625C11.3439 11.8125 11.1564 12.1875 11.0627 12.375L9.00016 15.375C8.81266 15.6562 8.53141 16.0312 8.25016 16.2187C7.96891 16.4062 7.40641 16.5 7.03141 16.3125C6.56266 15.9375 6.56266 15.375 6.65641 14.8125C6.84391 14.0625 7.21891 13.125 7.87516 12.5625C8.53141 11.9062 9.56266 11.5312 10.5002 11.4375Z" fill="#F96464"/>
<path d="M19.2188 13.0321C19.2188 13.0321 20.9063 12.0009 20.3438 11.3446C20.3438 11.3446 21.6563 11.1571 22.5938 11.2509C22.7813 11.2509 22.875 11.5321 22.6875 11.6259L21.375 12.6571L19.2188 13.0321Z" fill="#960F4E"/>
<path d="M24.6562 7.875C24.6562 7.875 26.3438 6.84375 27.75 6.9375L27.9375 5.90625C27.9375 5.90625 25.125 6.375 24.75 7.40625L24.6562 7.875Z" fill="#C48051"/>
<path d="M26.25 9.74919C26.25 9.74919 27.1875 6.37419 27.5625 6.09294C27.9375 5.81169 29.7188 5.81169 30 6.37419C30.2812 6.93669 29.625 9.65544 29.1563 10.7804C29.0625 10.6867 27 10.6867 26.25 9.74919Z" fill="#DD4568"/>
<path d="M25.9693 11.1557C26.2505 11.2495 26.5318 11.6245 26.438 11.9995C26.438 12.187 26.3443 12.2807 26.2505 12.4682L25.4068 13.9682L24.563 15.562C24.4693 15.8432 24.2818 16.0307 24.0005 16.0307C23.813 16.0307 23.6255 15.937 23.5318 15.7495C23.438 15.562 23.438 15.3745 23.438 15.187C23.3443 14.062 24.0943 10.312 25.9693 11.1557ZM20.7193 19.8745C21.0005 19.9682 21.2818 20.3432 21.188 20.7182C21.188 20.9057 21.0943 20.9995 21.0005 21.187L20.1568 22.687L19.313 24.2807C19.2193 24.562 19.0318 24.7495 18.7505 24.7495C18.563 24.7495 18.3755 24.6557 18.2818 24.4682C18.188 24.2807 18.188 24.0932 18.188 23.9995C18.0005 22.7807 18.7505 19.0307 20.7193 19.8745Z" fill="#FFD9C0"/>
<path d="M24.4685 18C23.9998 17.9063 23.6248 17.7188 23.2498 17.5313C23.0623 17.4375 22.8748 17.4375 22.6873 17.4375C22.4998 17.4375 22.3123 17.5312 22.3123 17.7187C22.3123 17.9062 22.5935 18 22.8748 18.0937L24.7498 18.6562C24.0935 18.6562 23.4373 18.5625 22.6873 18.5625C22.4998 18.5625 22.3123 18.5625 22.2185 18.6562C22.1248 18.75 22.2185 18.8438 22.3123 18.9375C22.406 19.0313 22.5935 19.0312 22.6873 19.125C23.2498 19.3125 23.906 19.4062 24.3748 19.2187C24.9373 19.0312 25.2185 18.6562 25.4998 18.2812L25.8748 18C25.406 18.1875 24.8435 18.0938 24.4685 18Z" fill="#C48051"/>
<path d="M5.06315 7.78125C5.06315 7.96875 5.1569 8.0625 5.06315 8.25C5.06315 8.34375 4.87565 8.4375 4.68815 8.53125C4.50065 8.625 4.4069 8.71875 4.2194 8.625C4.0319 8.625 3.93815 8.34375 3.8444 8.15625L3.00065 6.09375C3.00065 6 2.9069 5.8125 3.00065 5.8125C3.0944 5.8125 3.0944 5.71875 3.18815 5.71875C3.4694 5.71875 3.8444 5.71875 4.12565 5.625C4.4069 5.625 4.4069 5.71875 4.50065 6C4.68815 6.28125 4.68815 6.5625 4.7819 6.84375C4.7819 7.03125 4.87565 7.125 4.87565 7.3125C4.9694 7.40625 5.06315 7.59375 5.06315 7.78125ZM27.7507 8.90625C27.7507 9.09375 27.6569 9.28125 27.8444 9.46875C27.9382 9.65625 28.1257 9.65625 28.3132 9.65625C28.5007 9.65625 28.5944 9.46875 28.7819 9.375C29.1569 9 29.2506 8.4375 29.3444 7.875C29.3444 7.59375 29.4381 7.3125 29.3444 7.125C29.2506 6.9375 29.0631 6.84375 28.8756 6.75C28.1256 6.5625 28.1256 6.84375 28.0319 7.3125L27.7507 8.90625Z" fill="#F964A0"/>
<path opacity="0.6" d="M17.1562 20.3438L16.9688 21.5625C16.9688 21.5625 15.75 28.125 12 27.2812L9.1875 26.7187L8.71875 25.125L12.375 24.2812C12.375 24.2812 13.3125 25.0312 14.625 23.8125C15.9375 22.6875 17.1562 20.3438 17.1562 20.3438Z" fill="#C48051"/>
<path d="M11.4375 24.1875L10.3125 27L9.375 26.8125L10.125 24L11.4375 24.1875Z" fill="#4C2537"/>
</g>
<defs>
<clipPath id="clip0_52_64707">
<rect width="30" height="30" fill="white"/>
</clipPath>
</defs>
</svg>
