<svg width="296" height="1331" viewBox="0 0 296 1331" fill="none" xmlns="http://www.w3.org/2000/svg">
<g filter="url(#filter0_d_12_18978)">
<rect x="104" y="112" width="72" height="1107" fill="#212121"/>
</g>
<path fill-rule="evenodd" clip-rule="evenodd" d="M146.711 886.297C147.099 886.69 147.096 887.323 146.703 887.711L140.703 893.642C140.313 894.027 139.687 894.027 139.297 893.642L133.297 887.711C132.904 887.323 132.901 886.69 133.289 886.297C133.677 885.904 134.31 885.901 134.703 886.289L140 891.524L145.297 886.289C145.69 885.901 146.323 885.904 146.711 886.297Z" fill="#8F8F8F"/>
<mask id="mask0_12_18978" style="mask-type:alpha" maskUnits="userSpaceOnUse" x="128" y="1080" width="24" height="24">
<rect x="128" y="1080" width="24" height="24" rx="12" fill="#676679"/>
</mask>
<g mask="url(#mask0_12_18978)">
<rect x="128" y="1080" width="24" height="24" fill="#787878"/>
</g>
<mask id="mask1_12_18978" style="mask-type:alpha" maskUnits="userSpaceOnUse" x="128" y="1010" width="24" height="24">
<rect x="128" y="1010" width="24" height="24" rx="12" fill="#676679"/>
</mask>
<g mask="url(#mask1_12_18978)">
<rect x="128" y="1010" width="24" height="24" fill="#787878"/>
</g>
<mask id="mask2_12_18978" style="mask-type:alpha" maskUnits="userSpaceOnUse" x="128" y="940" width="24" height="24">
<rect x="128" y="940" width="24" height="24" rx="12" fill="#676679"/>
</mask>
<g mask="url(#mask2_12_18978)">
<rect x="128" y="940" width="24" height="24" fill="#787878"/>
</g>
<path fill-rule="evenodd" clip-rule="evenodd" d="M132.388 1151.68C132.389 1148.63 134.867 1146.15 137.921 1146.15C140.977 1146.15 143.454 1148.63 143.454 1151.68C143.454 1154.74 140.977 1157.22 137.921 1157.22H137.889L137.886 1157.22C134.84 1157.21 132.378 1154.73 132.388 1151.68ZM137.921 1148.15C135.971 1148.15 134.388 1149.73 134.388 1151.68V1151.69C134.381 1153.63 135.95 1155.21 137.891 1155.22H137.921C139.872 1155.22 141.454 1153.63 141.454 1151.68C141.454 1149.73 139.872 1148.15 137.921 1148.15Z" fill="#8F8F8F"/>
<path fill-rule="evenodd" clip-rule="evenodd" d="M132.413 1160C133.876 1159.08 135.832 1158.51 137.922 1158.51C140 1158.51 141.955 1159.08 143.419 1159.99C144.851 1160.89 145.994 1162.26 145.994 1163.9C145.994 1164.74 145.689 1165.46 145.151 1166.02C144.637 1166.56 143.948 1166.92 143.218 1167.17C141.767 1167.66 139.862 1167.81 137.922 1167.81C135.993 1167.81 134.09 1167.67 132.637 1167.18C131.906 1166.93 131.215 1166.58 130.698 1166.04C130.157 1165.48 129.85 1164.76 129.85 1163.92C129.85 1162.28 130.982 1160.91 132.413 1160ZM133.482 1161.7C132.336 1162.42 131.85 1163.25 131.85 1163.92C131.85 1164.24 131.949 1164.46 132.138 1164.65C132.351 1164.87 132.713 1165.1 133.273 1165.28C134.403 1165.66 136.036 1165.81 137.922 1165.81C139.816 1165.81 141.447 1165.66 142.574 1165.27C143.132 1165.08 143.492 1164.86 143.704 1164.64C143.894 1164.44 143.994 1164.22 143.994 1163.9C143.994 1163.24 143.507 1162.41 142.357 1161.69C141.238 1160.99 139.658 1160.51 137.922 1160.51C136.176 1160.51 134.597 1160.99 133.482 1161.7Z" fill="#8F8F8F"/>
<path d="M145.087 1154.13C144.535 1154.13 144.087 1154.58 144.087 1155.13C144.087 1155.69 144.535 1156.13 145.087 1156.13H146.131V1157.14C146.131 1157.69 146.579 1158.14 147.131 1158.14C147.683 1158.14 148.131 1157.69 148.131 1157.14V1156.13H149.177C149.729 1156.13 150.177 1155.69 150.177 1155.13C150.177 1154.58 149.729 1154.13 149.177 1154.13H148.131V1153.13C148.131 1152.58 147.683 1152.13 147.131 1152.13C146.579 1152.13 146.131 1152.58 146.131 1153.13V1154.13H145.087Z" fill="#8F8F8F"/>
<path fill-rule="evenodd" clip-rule="evenodd" d="M140.018 562.409C139.097 562.409 138.351 563.155 138.351 564.075C138.351 564.996 139.097 565.742 140.018 565.742C140.938 565.742 141.684 564.996 141.684 564.075C141.684 563.155 140.938 562.409 140.018 562.409ZM136.684 564.075C136.684 562.234 138.177 560.742 140.018 560.742C141.859 560.742 143.351 562.234 143.351 564.075C143.351 565.916 141.859 567.409 140.018 567.409C138.177 567.409 136.684 565.916 136.684 564.075Z" fill="#8F8F8F"/>
<path fill-rule="evenodd" clip-rule="evenodd" d="M140.018 555.742C139.797 555.742 139.585 555.83 139.428 555.986C139.272 556.142 139.184 556.354 139.184 556.575V556.72C139.183 557.151 139.055 557.572 138.817 557.931C138.579 558.29 138.242 558.571 137.846 558.741C137.775 558.771 137.701 558.792 137.626 558.801C137.266 558.927 136.879 558.959 136.502 558.89C136.068 558.811 135.667 558.604 135.352 558.296L135.345 558.289L135.295 558.239C135.218 558.162 135.125 558.1 135.024 558.058C134.923 558.016 134.815 557.995 134.705 557.995C134.596 557.995 134.487 558.016 134.386 558.058C134.285 558.1 134.193 558.162 134.115 558.239L134.115 558.24C134.037 558.317 133.976 558.409 133.934 558.51C133.892 558.611 133.87 558.72 133.87 558.829C133.87 558.939 133.892 559.047 133.934 559.148C133.976 559.25 134.037 559.342 134.115 559.419L134.172 559.476C134.48 559.791 134.687 560.192 134.766 560.626C134.843 561.052 134.794 561.49 134.624 561.888C134.469 562.293 134.198 562.644 133.845 562.897C133.485 563.155 133.055 563.298 132.612 563.308L132.593 563.309H132.518C132.297 563.309 132.085 563.396 131.928 563.553C131.772 563.709 131.684 563.921 131.684 564.142C131.684 564.363 131.772 564.575 131.928 564.731C132.085 564.887 132.297 564.975 132.518 564.975H132.663C133.093 564.977 133.514 565.105 133.873 565.342C134.231 565.579 134.512 565.915 134.682 566.309C134.858 566.712 134.911 567.158 134.833 567.591C134.754 568.025 134.547 568.426 134.238 568.741L134.232 568.748L134.182 568.798C134.104 568.875 134.043 568.967 134.001 569.069C133.959 569.17 133.937 569.278 133.937 569.388C133.937 569.497 133.959 569.606 134.001 569.707C134.043 569.808 134.104 569.9 134.182 569.977L134.182 569.978C134.26 570.055 134.351 570.117 134.453 570.159C134.554 570.201 134.662 570.222 134.772 570.222C134.881 570.222 134.99 570.201 135.091 570.159C135.192 570.117 135.284 570.055 135.361 569.978L135.418 569.921C135.734 569.613 136.134 569.406 136.568 569.327C136.994 569.25 137.433 569.299 137.83 569.469C138.235 569.624 138.586 569.894 138.839 570.248C139.097 570.608 139.24 571.038 139.251 571.481L139.251 571.5V571.575C139.251 571.796 139.339 572.008 139.495 572.164C139.651 572.321 139.863 572.409 140.084 572.409C140.305 572.409 140.517 572.321 140.674 572.164C140.83 572.008 140.918 571.796 140.918 571.575V571.434L140.918 571.43C140.919 571 141.047 570.579 141.285 570.22C141.522 569.862 141.858 569.581 142.252 569.411C142.655 569.234 143.101 569.182 143.533 569.26C143.968 569.339 144.368 569.546 144.684 569.854L144.69 569.861L144.74 569.911C144.818 569.988 144.91 570.05 145.011 570.092C145.112 570.134 145.221 570.156 145.33 570.156C145.44 570.156 145.548 570.134 145.649 570.092C145.75 570.05 145.842 569.989 145.92 569.911L145.92 569.911C145.998 569.833 146.059 569.741 146.101 569.64C146.143 569.539 146.165 569.431 146.165 569.321C146.165 569.212 146.143 569.103 146.101 569.002C146.059 568.901 145.998 568.809 145.92 568.731L145.863 568.675C145.555 568.359 145.348 567.959 145.269 567.524C145.191 567.092 145.243 566.645 145.42 566.243C145.59 565.849 145.871 565.513 146.229 565.276C146.588 565.038 147.009 564.91 147.439 564.909L147.443 564.909L147.518 564.909C147.739 564.909 147.951 564.821 148.107 564.664C148.263 564.508 148.351 564.296 148.351 564.075C148.351 563.854 148.263 563.642 148.107 563.486C147.951 563.33 147.739 563.242 147.518 563.242H147.376L147.373 563.242C146.942 563.24 146.521 563.113 146.162 562.875C145.803 562.637 145.521 562.299 145.352 561.903C145.321 561.833 145.301 561.759 145.291 561.683C145.165 561.324 145.134 560.936 145.203 560.559C145.281 560.125 145.488 559.725 145.797 559.409L145.803 559.403L145.853 559.353C145.931 559.275 145.993 559.183 146.035 559.082C146.076 558.981 146.098 558.872 146.098 558.763C146.098 558.653 146.076 558.545 146.035 558.444C145.993 558.342 145.931 558.251 145.854 558.173L145.853 558.172C145.776 558.095 145.684 558.034 145.583 557.992C145.481 557.95 145.373 557.928 145.263 557.928C145.154 557.928 145.045 557.95 144.944 557.992C144.843 558.034 144.751 558.095 144.674 558.172L144.617 558.229C144.302 558.538 143.901 558.745 143.467 558.823C143.034 558.902 142.588 558.849 142.185 558.673C141.791 558.503 141.455 558.222 141.218 557.864C140.98 557.505 140.853 557.084 140.851 556.654L140.851 556.65V556.575C140.851 556.354 140.763 556.142 140.607 555.986C140.451 555.83 140.239 555.742 140.018 555.742ZM146.184 566.575L146.947 566.912C146.903 567.011 146.89 567.121 146.909 567.227C146.928 567.332 146.978 567.43 147.052 567.507L147.098 567.552C147.33 567.784 147.515 568.06 147.641 568.364C147.767 568.667 147.831 568.992 147.831 569.321C147.831 569.65 147.767 569.975 147.641 570.278C147.515 570.582 147.331 570.858 147.098 571.09L146.509 570.5L147.099 571.089C146.867 571.322 146.591 571.506 146.287 571.632C145.984 571.758 145.659 571.822 145.33 571.822C145.002 571.822 144.676 571.758 144.373 571.632C144.069 571.506 143.794 571.322 143.562 571.089L143.516 571.043C143.439 570.969 143.341 570.919 143.236 570.9C143.13 570.881 143.02 570.894 142.921 570.938L142.913 570.941C142.815 570.983 142.733 571.052 142.674 571.14C142.616 571.228 142.585 571.33 142.584 571.436V571.575C142.584 572.238 142.321 572.874 141.852 573.343C141.383 573.812 140.747 574.075 140.084 574.075C139.421 574.075 138.785 573.812 138.316 573.343C137.848 572.874 137.584 572.238 137.584 571.575V571.512C137.58 571.406 137.545 571.304 137.484 571.217C137.42 571.129 137.332 571.061 137.23 571.024C137.213 571.018 137.197 571.011 137.181 571.004C137.082 570.961 136.972 570.948 136.866 570.967C136.76 570.986 136.663 571.036 136.586 571.11L136.54 571.156C136.308 571.388 136.032 571.573 135.729 571.698C135.426 571.824 135.1 571.889 134.772 571.889C134.443 571.889 134.118 571.824 133.814 571.698C133.511 571.573 133.236 571.389 133.004 571.156C132.771 570.924 132.587 570.649 132.461 570.345C132.335 570.042 132.27 569.716 132.27 569.388C132.27 569.059 132.335 568.734 132.461 568.43C132.587 568.127 132.771 567.851 133.004 567.619L133.049 567.573C133.124 567.496 133.174 567.399 133.193 567.294C133.212 567.187 133.199 567.077 133.155 566.978L133.152 566.97C133.11 566.873 133.041 566.79 132.953 566.732C132.865 566.674 132.762 566.643 132.657 566.642H132.518C131.855 566.642 131.219 566.378 130.75 565.91C130.281 565.441 130.018 564.805 130.018 564.142C130.018 563.479 130.281 562.843 130.75 562.374C131.219 561.905 131.855 561.642 132.518 561.642H132.581C132.687 561.638 132.789 561.603 132.876 561.541C132.964 561.478 133.031 561.39 133.069 561.288C133.075 561.271 133.081 561.255 133.089 561.239C133.132 561.14 133.145 561.03 133.126 560.923C133.107 560.818 133.057 560.721 132.983 560.644L132.937 560.598C132.705 560.366 132.52 560.09 132.394 559.787C132.269 559.483 132.204 559.158 132.204 558.829C132.204 558.501 132.269 558.176 132.394 557.872C132.52 557.569 132.704 557.293 132.937 557.061C133.169 556.829 133.444 556.644 133.748 556.519C134.051 556.393 134.377 556.328 134.705 556.328C135.034 556.328 135.359 556.393 135.662 556.519C135.966 556.644 136.242 556.829 136.474 557.061L136.52 557.107C136.596 557.181 136.694 557.231 136.799 557.25C136.906 557.27 137.015 557.257 137.114 557.213C137.168 557.189 137.223 557.171 137.28 557.16C137.338 557.12 137.388 557.07 137.428 557.01C137.486 556.923 137.517 556.82 137.518 556.715V556.575C137.518 555.912 137.781 555.276 138.25 554.807C138.719 554.339 139.355 554.075 140.018 554.075C140.681 554.075 141.317 554.339 141.785 554.807C142.254 555.276 142.518 555.912 142.518 556.575V556.648C142.518 556.753 142.55 556.856 142.608 556.944C142.666 557.032 142.749 557.101 142.846 557.143L142.854 557.146C142.953 557.19 143.063 557.203 143.169 557.184C143.275 557.164 143.372 557.115 143.449 557.04L143.495 556.995C143.727 556.762 144.003 556.578 144.306 556.452C144.61 556.326 144.935 556.261 145.263 556.261C145.592 556.261 145.917 556.326 146.221 556.452C146.524 556.578 146.8 556.762 147.032 556.995C147.264 557.227 147.448 557.502 147.574 557.805C147.7 558.109 147.765 558.434 147.765 558.763C147.765 559.091 147.7 559.417 147.574 559.72C147.448 560.023 147.264 560.299 147.032 560.531L146.986 560.577C146.912 560.654 146.862 560.751 146.843 560.857C146.823 560.963 146.836 561.073 146.88 561.172C146.904 561.225 146.921 561.281 146.933 561.338C146.973 561.396 147.023 561.446 147.082 561.485C147.17 561.543 147.273 561.575 147.378 561.575H147.518C148.181 561.575 148.817 561.839 149.285 562.307C149.754 562.776 150.018 563.412 150.018 564.075C150.018 564.738 149.754 565.374 149.285 565.843C148.817 566.312 148.181 566.575 147.518 566.575H147.445C147.339 566.576 147.237 566.607 147.149 566.665C147.061 566.724 146.992 566.806 146.95 566.903L146.184 566.575Z" fill="#8F8F8F"/>
<path d="M134.605 480.144C134.605 479.591 135.053 479.144 135.605 479.144H139.665C140.218 479.144 140.665 479.591 140.665 480.144C140.665 480.696 140.218 481.144 139.665 481.144H135.605C135.053 481.144 134.605 480.696 134.605 480.144Z" fill="#8F8F8F"/>
<path fill-rule="evenodd" clip-rule="evenodd" d="M150.138 481.491C150.262 482.339 150.316 483.261 150.316 484.253C150.316 487.527 149.732 490.031 147.958 491.66C146.209 493.266 143.545 493.792 140.016 493.792C136.486 493.792 133.822 493.266 132.073 491.66C130.299 490.031 129.715 487.527 129.715 484.253C129.715 480.979 130.299 478.474 132.073 476.845C133.822 475.239 136.486 474.714 140.016 474.714C143.545 474.714 146.209 475.239 147.958 476.845C149.154 477.943 149.809 479.439 150.109 481.301C150.125 481.363 150.134 481.426 150.138 481.491ZM131.715 484.253C131.715 481.123 132.294 479.357 133.426 478.318C134.583 477.255 136.569 476.714 140.016 476.714C143.462 476.714 145.448 477.255 146.605 478.318C147.18 478.846 147.613 479.562 147.899 480.549H145.284C143.316 480.549 141.721 482.144 141.721 484.111C141.721 486.08 143.316 487.675 145.284 487.675H147.975C147.692 488.809 147.234 489.61 146.605 490.187C145.448 491.25 143.462 491.792 140.016 491.792C136.569 491.792 134.583 491.25 133.426 490.187C132.294 489.148 131.715 487.383 131.715 484.253ZM148.27 485.675C148.3 485.235 148.316 484.762 148.316 484.253C148.316 483.633 148.293 483.066 148.248 482.549H145.284C144.421 482.549 143.721 483.248 143.721 484.111C143.721 484.976 144.421 485.675 145.284 485.675H148.27Z" fill="#8F8F8F"/>
<path d="M160 468C160 470.209 158.209 472 156 472C153.791 472 152 470.209 152 468C152 465.791 153.791 464 156 464C158.209 464 160 465.791 160 468Z" fill="white"/>
<path fill-rule="evenodd" clip-rule="evenodd" d="M145.165 396.752C143.623 396.257 141.798 396.656 140.886 398.04C140.705 398.314 140.402 398.482 140.073 398.489C139.745 398.497 139.434 398.342 139.242 398.077C138.236 396.689 136.43 396.267 134.928 396.751C132.116 397.657 130.906 401.117 131.875 404.141C132.653 406.564 134.36 408.424 136.11 409.689C136.98 410.319 137.843 410.787 138.571 411.095C139.331 411.417 139.848 411.523 140.051 411.523C140.252 411.523 140.77 411.415 141.537 411.088C142.269 410.775 143.137 410.301 144.012 409.666C145.771 408.391 147.473 406.533 148.223 404.147L148.225 404.142C149.192 401.12 147.978 397.658 145.165 396.752ZM140.026 395.983C141.63 394.498 143.959 394.264 145.777 394.848C149.995 396.206 151.306 401.072 150.13 404.749C149.211 407.672 147.165 409.851 145.186 411.286C144.191 412.007 143.193 412.555 142.322 412.927C141.486 413.284 140.665 413.523 140.051 413.523C139.441 413.523 138.625 413.29 137.791 412.937C136.924 412.57 135.93 412.027 134.937 411.309C132.961 409.88 130.918 407.701 129.97 404.753C128.793 401.077 130.093 396.207 134.315 394.848M140.026 395.983C138.414 394.563 136.165 394.251 134.315 394.848L140.026 395.983Z" fill="#8F8F8F"/>
<path fill-rule="evenodd" clip-rule="evenodd" d="M142.793 399.462C142.85 398.913 143.341 398.513 143.89 398.57C144.746 398.658 145.489 399.052 146.001 399.699C146.506 400.338 146.734 401.155 146.705 402.02C146.686 402.572 146.224 403.004 145.672 402.986C145.12 402.967 144.687 402.505 144.706 401.953C144.722 401.476 144.595 401.145 144.432 400.939C144.275 400.742 144.037 400.595 143.686 400.559C143.137 400.503 142.737 400.012 142.793 399.462Z" fill="#8F8F8F"/>
<path fill-rule="evenodd" clip-rule="evenodd" d="M132.067 316.067C133.809 314.325 136.477 313.75 140 313.75C143.524 313.75 146.192 314.325 147.934 316.067C149.676 317.808 150.25 320.476 150.25 324C150.25 327.524 149.676 330.192 147.934 331.933C146.192 333.675 143.524 334.25 140 334.25C136.477 334.25 133.809 333.675 132.067 331.933C130.325 330.192 129.75 327.524 129.75 324C129.75 320.476 130.325 317.808 132.067 316.067ZM133.481 317.481C132.332 318.63 131.75 320.587 131.75 324C131.75 327.413 132.332 329.37 133.481 330.519C134.63 331.668 136.587 332.25 140 332.25C143.414 332.25 145.371 331.668 146.52 330.519C147.669 329.37 148.25 327.413 148.25 324C148.25 320.587 147.669 318.63 146.52 317.481C145.371 316.332 143.414 315.75 140 315.75C136.587 315.75 134.63 316.332 133.481 317.481Z" fill="#8F8F8F"/>
<path fill-rule="evenodd" clip-rule="evenodd" d="M145.253 320.793C145.689 321.131 145.769 321.76 145.431 322.196L142.502 325.976C142.339 326.187 142.098 326.323 141.834 326.356C141.57 326.389 141.303 326.315 141.094 326.15L138.474 324.094L136.097 327.183C135.76 327.62 135.132 327.702 134.694 327.365C134.257 327.028 134.175 326.4 134.512 325.963L137.505 322.074C137.667 321.862 137.908 321.725 138.173 321.691C138.438 321.658 138.705 321.732 138.915 321.897L141.537 323.956L143.85 320.971C144.188 320.535 144.816 320.455 145.253 320.793Z" fill="#8F8F8F"/>
<path d="M133.5 234C132.605 234 131.856 234.055 131.245 234.208C130.619 234.365 130.069 234.643 129.67 235.138C129.282 235.619 129.134 236.186 129.067 236.721C129 237.247 129 237.862 129 238.5L129 238.565C129 239.176 129 239.767 129.06 240.273C129.124 240.804 129.266 241.374 129.652 241.858C130.049 242.357 130.602 242.636 131.23 242.793C131.842 242.945 132.596 243 133.5 243C134.404 243 135.158 242.945 135.77 242.793C136.398 242.636 136.951 242.357 137.348 241.858C137.734 241.374 137.876 240.804 137.94 240.273C138 239.767 138 239.176 138 238.565L138 238.5C138 237.862 138 237.247 137.934 236.721C137.866 236.186 137.718 235.619 137.33 235.138C136.931 234.643 136.381 234.365 135.755 234.208C135.144 234.055 134.395 234 133.5 234Z" fill="#8F8F8F"/>
<path d="M133.5 245C132.605 245 131.856 245.055 131.245 245.208C130.619 245.365 130.069 245.643 129.67 246.138C129.282 246.619 129.134 247.186 129.067 247.721C129 248.247 129 248.862 129 249.5L129 249.565C129 250.176 129 250.767 129.06 251.273C129.124 251.804 129.266 252.374 129.652 252.858C130.049 253.357 130.602 253.636 131.23 253.793C131.842 253.945 132.596 254 133.5 254C134.404 254 135.158 253.945 135.77 253.793C136.398 253.636 136.951 253.357 137.348 252.858C137.734 252.374 137.876 251.804 137.94 251.273C138 250.767 138 250.176 138 249.565L138 249.5C138 248.862 138 248.247 137.934 247.721C137.866 247.186 137.718 246.619 137.33 246.138C136.931 245.643 136.381 245.365 135.755 245.208C135.144 245.055 134.395 245 133.5 245Z" fill="#8F8F8F"/>
<path d="M144.5 245C143.605 245 142.856 245.055 142.245 245.208C141.619 245.365 141.069 245.643 140.67 246.138C140.282 246.619 140.134 247.186 140.067 247.721C140 248.247 140 248.862 140 249.5L140 249.565C140 250.176 140 250.767 140.06 251.273C140.124 251.804 140.266 252.374 140.652 252.858C141.049 253.357 141.602 253.636 142.23 253.793C142.842 253.945 143.596 254 144.5 254C145.404 254 146.158 253.945 146.77 253.793C147.398 253.636 147.951 253.357 148.348 252.858C148.734 252.374 148.876 251.804 148.94 251.273C149 250.767 149 250.176 149 249.565L149 249.5C149 248.862 149 248.247 148.934 247.721C148.866 247.186 148.718 246.619 148.33 246.138C147.931 245.643 147.381 245.365 146.755 245.208C146.144 245.055 145.395 245 144.5 245Z" fill="#8F8F8F"/>
<path d="M144.5 234C143.605 234 142.856 234.055 142.245 234.208C141.619 234.365 141.069 234.643 140.67 235.138C140.282 235.619 140.134 236.186 140.067 236.721C140 237.247 140 237.862 140 238.5L140 238.565C140 239.176 140 239.767 140.06 240.273C140.124 240.804 140.266 241.374 140.652 241.858C141.049 242.357 141.602 242.636 142.23 242.793C142.842 242.945 143.596 243 144.5 243C145.404 243 146.158 242.945 146.77 242.793C147.398 242.636 147.951 242.357 148.348 241.858C148.734 241.374 148.876 240.804 148.94 240.273C149 239.767 149 239.176 149 238.565L149 238.5C149 237.862 149 237.247 148.934 236.721C148.866 236.186 148.718 235.619 148.33 235.138C147.931 234.643 147.381 234.365 146.755 234.208C146.144 234.055 145.395 234 144.5 234Z" fill="#8F8F8F"/>
<rect width="24" height="24" rx="4" transform="matrix(-1 0 0 1 152 156)" fill="#8F8F8F"/>
<g opacity="0.9">
<path d="M143.755 166.592L139.532 160L135.406 166.44L139.348 165.152L143.755 166.592Z" fill="white"/>
<path d="M144 169.026L139.348 167.507L135 168.927L139.532 176L144 169.026Z" fill="white"/>
</g>
<defs>
<filter id="filter0_d_12_18978" x="0" y="0" width="296" height="1331" filterUnits="userSpaceOnUse" color-interpolation-filters="sRGB">
<feFlood flood-opacity="0" result="BackgroundImageFix"/>
<feColorMatrix in="SourceAlpha" type="matrix" values="0 0 0 0 0 0 0 0 0 0 0 0 0 0 0 0 0 0 127 0" result="hardAlpha"/>
<feOffset dx="8"/>
<feGaussianBlur stdDeviation="56"/>
<feComposite in2="hardAlpha" operator="out"/>
<feColorMatrix type="matrix" values="0 0 0 0 0.0862745 0 0 0 0 0.0862745 0 0 0 0 0.0862745 0 0 0 1 0"/>
<feBlend mode="normal" in2="BackgroundImageFix" result="effect1_dropShadow_12_18978"/>
<feBlend mode="normal" in="SourceGraphic" in2="effect1_dropShadow_12_18978" result="shape"/>
</filter>
</defs>
</svg>
