<svg width="14" height="13" viewBox="0 0 14 13" fill="none" xmlns="http://www.w3.org/2000/svg">
<path d="M8.3125 6.98577C8.23987 6.98577 7.9275 7.01523 7.01444 7.01523C6.2825 7.01523 5.86863 6.99357 5.6875 6.98577C2.86869 6.86183 0.659312 6.37217 0.659312 5.78023C0.659312 5.1883 2.86869 4.69127 5.6875 4.5669V6.49653H8.3125V4.56733C11.1239 4.69127 13.3333 5.1883 13.3333 5.78023C13.3333 6.3648 11.1239 6.86183 8.3125 6.98577ZM8.3125 4.3628V2.6H12.25V0H1.75V2.6H5.6875V4.36237C2.499 4.50883 0 5.1519 0 5.91153C0 6.6716 2.499 7.31467 5.6875 7.46113V13H8.3125V7.46113C11.501 7.31467 14 6.6716 14 5.91153C14 5.1519 11.501 4.5162 8.3125 4.36237V4.3628Z" fill="white"/>
</svg>
