<svg width="17" height="17" viewBox="0 0 17 17" fill="none" xmlns="http://www.w3.org/2000/svg">
<path fill-rule="evenodd" clip-rule="evenodd" d="M8.18055 2.14045C8.50348 1.55327 9.34722 1.55327 9.67015 2.14045L12.1629 6.67272H5.6878L8.18055 2.14045ZM3.74757 6.67272L6.69091 1.32116C7.65973 -0.44039 10.191 -0.440382 11.1597 1.32116L14.1032 6.67272H16.1506C16.4053 6.67272 16.6465 6.78688 16.808 6.98383C16.9695 7.18079 17.0341 7.43971 16.9842 7.68945L15.5574 14.8231C15.319 16.0151 14.2724 16.8731 13.0568 16.8731H3.94383C2.72824 16.8731 1.68165 16.0151 1.44325 14.8231L0.016516 7.68945C-0.0334319 7.43971 0.0312217 7.18079 0.192677 6.98383C0.354132 6.78688 0.59538 6.67272 0.850042 6.67272H3.74757ZM4.25017 8.37279H1.88691L3.11031 14.4897C3.18977 14.887 3.53864 15.1731 3.94383 15.1731H13.0568C13.4621 15.1731 13.8109 14.887 13.8904 14.4897L15.1138 8.37279H13.6005H4.25017Z" fill="#0E0E0E"/>
</svg>
