<svg width="56" height="56" viewBox="0 0 56 56" fill="none" xmlns="http://www.w3.org/2000/svg">
<path d="M27.9999 11.6666C16.877 11.6666 8.16663 16.8 8.16663 23.3333V32.6666C8.16663 37.9936 14.217 42.5973 22.9109 43.9343C23.401 44.1927 23.9459 44.3296 24.4999 44.3333H31.4999C32.0539 44.3296 32.5989 44.1927 33.0889 43.9343C41.7829 42.5973 47.8333 37.9936 47.8333 32.6666V23.3333C47.8333 16.8 39.1229 11.6666 27.9999 11.6666ZM10.5 32.6666V28.9053C13.5103 31.8313 17.3603 33.7429 21.5109 34.3723C21.1798 34.9124 21.003 35.533 20.9999 36.1666V40.8333C20.9999 40.9546 21.0233 41.0666 21.0349 41.1879C14.8073 39.7039 10.5 36.3253 10.5 32.6666ZM32.6666 40.8333C32.6545 41.1388 32.5277 41.4286 32.3115 41.6448C32.0953 41.8611 31.8055 41.9879 31.4999 41.9999H29.1666V39.6666H30.3333C30.6427 39.6666 30.9394 39.5437 31.1582 39.3249C31.377 39.1061 31.4999 38.8094 31.4999 38.4999C31.4999 38.1905 31.377 37.8938 31.1582 37.675C30.9394 37.4562 30.6427 37.3333 30.3333 37.3333H29.1666V34.9999H31.4999C31.8094 34.9999 32.1061 35.1229 32.3249 35.3416C32.5437 35.5604 32.6666 35.8572 32.6666 36.1666V40.8333ZM23.3333 40.8333V36.1666C23.3333 35.8572 23.4562 35.5604 23.675 35.3416C23.8938 35.1229 24.1905 34.9999 24.4999 34.9999H26.8333V37.3333C26.5239 37.3333 26.2271 37.4562 26.0083 37.675C25.7895 37.8938 25.6666 38.1905 25.6666 38.4999C25.6666 38.8094 25.7895 39.1061 26.0083 39.3249C26.2271 39.5437 26.5239 39.6666 26.8333 39.6666V41.9999H24.4999C24.194 41.9889 23.9036 41.8625 23.6872 41.646C23.4707 41.4296 23.3443 41.1392 23.3333 40.8333ZM34.7293 30.6016C34.9626 27.7759 31.9993 26.0586 29.1666 25.7319V23.3986C34.6523 23.8769 38.3553 27.5893 34.7293 30.6016ZM23.3333 30.3333C23.3333 29.2319 25.3283 27.9999 27.9999 27.9999C30.5386 27.9999 32.4333 29.2319 32.4333 30.3333C32.4333 31.4346 30.5386 32.6666 27.9999 32.6666C26.1006 32.6666 23.3333 31.7823 23.3333 30.3333ZM26.8333 25.7436C23.4873 26.1053 20.9999 27.9813 20.9999 30.3286C17.7333 27.1786 21.8096 23.8373 26.8333 23.4033V25.7436ZM38.0519 29.9436C38.3311 29.3327 38.4835 28.6715 38.4999 27.9999C38.4999 24.0729 33.8869 21 27.9999 21C22.1129 21 17.5 24.0729 17.5 27.9999C17.5154 28.6738 17.6678 29.3375 17.948 29.9506C17.1715 29.5158 16.5126 28.8986 16.028 28.1522C15.5435 27.4059 15.2478 26.5528 15.1666 25.6666C15.1666 21.8726 21.0443 18.6666 27.9999 18.6666C34.9556 18.6666 40.8333 21.8726 40.8333 25.6666C40.7521 26.5528 40.4564 27.4059 39.9719 28.1522C39.4873 28.8986 38.8284 29.5158 38.0519 29.9506V29.9436ZM45.4999 32.6666C45.4999 36.3253 41.1926 39.7039 34.9649 41.1879C34.9766 41.0689 34.9999 40.9546 34.9999 40.8333V36.1666C34.9969 35.533 34.8201 34.9124 34.4889 34.3723C38.6396 33.7429 42.4896 31.8313 45.4999 28.9053V32.6666ZM42.4829 28.4923C42.9288 27.6169 43.163 26.649 43.1666 25.6666C43.1666 20.433 36.5049 16.3333 27.9999 16.3333C19.4949 16.3333 12.8333 20.433 12.8333 25.6666C12.8372 26.649 13.0713 27.6168 13.517 28.4923C12.6534 27.92 11.9324 27.1574 11.4094 26.2631C10.8864 25.3688 10.5753 24.3665 10.5 23.3333C10.5 18.2746 18.5149 14 27.9999 14C37.4849 14 45.4999 18.2746 45.4999 23.3333C45.4246 24.3665 45.1135 25.3688 44.5905 26.2631C44.0675 27.1574 43.3465 27.92 42.4829 28.4923Z" fill="#393D46"/>
</svg>
