<svg width="18" height="11" viewBox="0 0 18 11" fill="none" xmlns="http://www.w3.org/2000/svg">
<path d="M17.7559 4.44945L13.2489 0.228534C13.0875 0.0814984 12.8771 0 12.6587 0C12.4404 0 12.23 0.0814984 12.0686 0.228534C11.9915 0.298567 11.9299 0.383952 11.8877 0.479207C11.8455 0.574462 11.8238 0.677483 11.8238 0.781654C11.8238 0.885826 11.8455 0.988846 11.8877 1.0841C11.9299 1.17936 11.9915 1.26474 12.0686 1.33477L15.1513 4.2204H0.834181C0.374081 4.2204 0 4.57048 0 5.00057C0 5.43366 0.374081 5.78374 0.834181 5.78374H15.1513L12.0686 8.66837C11.9917 8.73839 11.9302 8.82372 11.8881 8.91888C11.846 9.01404 11.8243 9.11694 11.8243 9.22099C11.8243 9.32503 11.846 9.42793 11.8881 9.52309C11.9302 9.61825 11.9917 9.70358 12.0686 9.77361C12.2317 9.92664 12.4457 10.0037 12.6587 10.0037C12.8775 10.0047 13.0885 9.92247 13.2489 9.77361L17.7559 5.55369C17.8328 5.48375 17.8942 5.39852 17.9363 5.30344C17.9784 5.20836 18.0001 5.10554 18.0001 5.00157C18.0001 4.8976 17.9784 4.79478 17.9363 4.6997C17.8942 4.60463 17.8328 4.51939 17.7559 4.44945Z" fill="white"/>
</svg>
