<svg width="24" height="24" viewBox="0 0 24 24" fill="none" xmlns="http://www.w3.org/2000/svg">
<path d="M18.06 20.5696H5.25C3.87 20.5696 2.75 19.4496 2.75 18.0696V7.84961C2.75 6.46961 3.87 5.34961 5.25 5.34961H18.06C19.44 5.34961 20.56 6.46961 20.56 7.84961V18.0696C20.56 19.4596 19.44 20.5696 18.06 20.5696Z" fill="black"/>
<path d="M2.75 9.01953V9.90953C2.75 11.2895 3.87 12.4095 5.25 12.4095H18.06C19.44 12.4095 20.56 11.2895 20.56 9.90953V9.01953" stroke="white" stroke-width="1.2" stroke-miterlimit="10" stroke-linecap="round" stroke-linejoin="round"/>
<path d="M18.06 20.5696H5.25C3.87 20.5696 2.75 19.4496 2.75 18.0696V7.84961C2.75 6.46961 3.87 5.34961 5.25 5.34961H18.06C19.44 5.34961 20.56 6.46961 20.56 7.84961V18.0696C20.56 19.4596 19.44 20.5696 18.06 20.5696Z" stroke="black" stroke-width="1.2" stroke-miterlimit="10" stroke-linecap="round" stroke-linejoin="round"/>
<path d="M8.96997 5.35V4.75C8.96997 3.65 9.86997 2.75 10.97 2.75H12.33C13.43 2.75 14.33 3.65 14.33 4.75V5.35" stroke="black" stroke-width="1.2" stroke-miterlimit="10" stroke-linecap="round" stroke-linejoin="round"/>
<path d="M7.72998 10.71V13.73" stroke="white" stroke-width="1.2" stroke-miterlimit="10" stroke-linecap="round" stroke-linejoin="round"/>
<path d="M15.58 10.71V13.73" stroke="white" stroke-width="1.2" stroke-miterlimit="10" stroke-linecap="round" stroke-linejoin="round"/>
</svg>
