<svg width="30" height="30" viewBox="0 0 30 30" fill="none" xmlns="http://www.w3.org/2000/svg">
<g clip-path="url(#clip0_52_67285)">
<path d="M6.375 2.4375L27.2812 0L27 1.5H28.125L27.9375 2.90625H28.875L28.7812 3.5625L30 3.65625L26.1562 29.9062L0.65625 27L6.375 2.4375Z" fill="#8E4964"/>
<path d="M25.4062 28.3125L1.78125 26.4375L6.9375 3.5625L28.5938 4.40625L25.4062 28.3125Z" fill="#FFDEF5"/>
<path d="M24.8438 27.5625L1.875 25.7812L7.125 3L28.0312 3.65625L24.8438 27.5625Z" fill="#9EB1BA"/>
<path d="M24.1875 26.1562L2.53125 25.875L7.78125 3.09375L27.375 2.25L24.1875 26.1562Z" fill="#D6DFE5"/>
<path d="M23.3438 24.9375L1.875 25.7812L7.03125 3L26.5312 1.03125L23.3438 24.9375Z" fill="#FFDEF5"/>
<path d="M21.6562 22.7812L4.125 23.5312L8.34375 4.96875L24.2812 3.28125L21.6562 22.7812Z" fill="white"/>
<path d="M22.4062 23.8125L3 24.6562L7.6875 4.03125L25.4062 2.15625L22.4062 23.8125Z" fill="white"/>
<path d="M1.21875 26.3438L22.9688 26.1562L23.3438 24.9375L1.40625 25.7812L1.21875 26.3438Z" fill="#8E4964"/>
<path d="M22.9688 26.1562H24.1875L27.2813 0L26.5312 0.84375L22.9688 26.1562Z" fill="#8E4964"/>
<path d="M8.25 4.875L6.5625 12.375L14.7188 11.8125L15.9375 4.125L8.25 4.875Z" fill="#AEFFF5"/>
<path d="M16.7812 4.125L15.5625 11.625L23.25 11.0625L24.4688 3.375L16.7812 4.125Z" fill="#B7C6CE"/>
<path d="M6.46875 13.2188L4.125 23.5312L21.6562 22.7812L22.9688 12L6.46875 13.2188Z" fill="#FFA9E0"/>
<mask id="mask0_52_67285" style="mask-type:luminance" maskUnits="userSpaceOnUse" x="4" y="12" width="19" height="12">
<path d="M6.46875 13.2188L4.125 23.5312L21.6562 22.7812L22.9688 12L6.46875 13.2188Z" fill="white"/>
</mask>
<g mask="url(#mask0_52_67285)">
<path d="M13.2867 16.5202C14.4469 15.2659 14.5246 13.4511 13.4604 12.4667C12.3961 11.4823 10.5928 11.7011 9.43269 12.9554C8.27253 14.2097 8.19478 16.0246 9.25904 17.0089C10.3233 17.9933 12.1266 17.7745 13.2867 16.5202Z" fill="#8E4964"/>
<path d="M23.6109 16.0593C24.7711 14.8049 24.8488 12.9901 23.7846 12.0058C22.7203 11.0214 20.9171 11.2402 19.7569 12.4945C18.5967 13.7488 18.519 15.5636 19.5833 16.548C20.6475 17.5324 22.4508 17.3136 23.6109 16.0593Z" fill="#8E4964"/>
<path d="M12.4688 14.0612C12.4688 14.0612 13.875 11.9987 16.7812 11.905C19.6875 11.8112 21.75 14.2487 21.375 17.4362L12.4688 14.0612Z" fill="#8E4964"/>
<path d="M12.8948 17.0168C13.9847 15.8386 14.0362 14.1139 13.01 13.1647C11.9837 12.2154 10.2683 12.4011 9.17842 13.5794C8.08857 14.7577 8.03702 16.4824 9.06327 17.4316C10.0895 18.3808 11.805 18.1951 12.8948 17.0168Z" fill="#8E4964"/>
<path d="M23.305 16.4368C24.3948 15.2585 24.4464 13.5338 23.4201 12.5846C22.3939 11.6354 20.6784 11.821 19.5886 12.9993C18.4987 14.1776 18.4472 15.9023 19.4734 16.8515C20.4997 17.8008 22.2151 17.6151 23.305 16.4368Z" fill="#8E4964"/>
<path d="M12.375 14.6237C12.375 14.6237 13.7812 12.5612 16.6875 12.4675C19.5937 12.3737 21.6562 14.8112 21.2812 17.9987L12.375 14.6237Z" fill="#8E4964"/>
<path d="M10.5 20.1544C10.5 18.1856 11.625 16.3106 13.5 15.2794C14.25 14.9044 15.0937 14.6231 16.2188 14.5294C20.5312 14.3419 21.375 16.8731 21.2813 18.4669C21.2813 20.0606 19.7812 25.2169 15.8438 25.5919C12.4688 25.9669 10.5938 23.9044 10.5 20.1544Z" fill="#8E4964"/>
<path d="M13.1797 16.5952C14.1992 15.4929 14.2554 13.8869 13.3052 13.0079C12.355 12.129 10.7581 12.3101 9.73861 13.4124C8.71907 14.5146 8.66289 16.1207 9.61312 16.9996C10.5634 17.8785 12.1602 17.6975 13.1797 16.5952Z" fill="#8E4964"/>
<path d="M13.017 13.8712C13.0421 13.4577 12.434 13.0843 11.6588 13.0372C10.8835 12.9901 10.2347 13.2871 10.2096 13.7006C10.1844 14.114 10.7925 14.4874 11.5678 14.5345C12.343 14.5816 12.9919 14.2847 13.017 13.8712Z" fill="#8E4964"/>
<path d="M23.3711 15.8042C24.3906 14.7019 24.4468 13.0958 23.4966 12.2169C22.5464 11.338 20.9496 11.5191 19.93 12.6214C18.9105 13.7236 18.8543 15.3297 19.8045 16.2086C20.7548 17.0875 22.3516 16.9064 23.3711 15.8042Z" fill="#8E4964"/>
<path d="M10.875 19.8735C10.875 17.9985 12 16.1235 13.7812 15.186C14.5312 14.811 15.375 14.5297 16.4062 14.5297C20.5312 14.3422 21.2812 16.7797 21.2812 18.2797C21.2812 19.7797 19.7812 24.7485 16.125 25.1235C12.8438 25.4985 10.9687 23.5297 10.875 19.8735Z" fill="#8E4964"/>
<path d="M11.25 19.5926C11.25 17.8114 12.2812 16.1239 13.9687 15.1864C14.625 14.8114 15.4688 14.6239 16.4063 14.5301C20.3438 14.3426 21 16.6864 21 18.0926C21 19.4989 19.5938 24.1864 16.125 24.5614C13.0313 24.9364 11.3438 23.0614 11.25 19.5926Z" fill="#8E4964"/>
<path d="M11.625 19.406C11.625 17.8122 12.5625 16.1247 14.1563 15.281C14.8125 14.9997 15.5625 14.7185 16.4063 14.7185C20.0625 14.531 20.7188 16.6872 20.7188 17.9997C20.7188 19.3122 19.4062 23.6247 16.2187 23.9997C13.3125 24.3747 11.7188 22.5935 11.625 19.406Z" fill="#8E4964"/>
<path d="M19.5937 17.25C19.3125 17.1562 19.0312 17.0625 18.5625 17.0625C17.7187 17.0625 16.9688 17.7187 16.9688 18.4687V19.6875C16.9688 20.25 17.5312 20.7187 18.1875 20.7187C18.9375 20.7187 19.5938 20.3437 19.875 19.6875C20.0625 19.3125 20.1562 18.8437 20.25 18.375C20.3438 17.9062 20.0625 17.4375 19.5937 17.25Z" fill="#8E4964"/>
<path d="M19.5 17.625C19.2187 17.5312 18.9375 17.4375 18.5625 17.4375C17.8125 17.4375 17.0625 18.1875 16.9688 19.0312V20.4375C16.9688 21.0937 17.4375 21.5625 18.0937 21.5625C18.75 21.5625 19.5 21.0937 19.6875 20.4375C19.875 20.0625 19.9687 19.5 20.0625 19.0312C20.1562 18.375 19.875 17.8125 19.5 17.625Z" fill="#8E4964"/>
<path d="M17.2498 18.9372C17.6248 18.0935 18.1873 17.6247 18.7498 17.906C19.3123 18.1872 19.5935 19.1247 19.3123 20.0622C19.031 21.1872 18.1873 21.7497 17.6248 21.3747C17.0623 20.9997 16.8748 19.8747 17.2498 18.9372Z" fill="#8E4964"/>
<path d="M17.5313 18.7484C17.8125 18.0922 18.2812 17.8109 18.6562 17.9984C19.0312 18.1859 19.3125 18.8422 19.125 19.5922C18.9375 20.4359 18.2812 20.8109 17.8125 20.5297C17.3437 20.2484 17.25 19.4047 17.5313 18.7484Z" fill="#8E4964"/>
<path d="M18.1883 19.0298C18.282 18.7485 18.5633 18.6548 18.8445 18.6548C19.1258 18.7485 19.2195 19.0298 19.1258 19.311C19.032 19.686 18.657 19.8735 18.3758 19.686C18.0945 19.5923 18.0008 19.311 18.1883 19.0298ZM12.7508 17.5298C13.032 17.3423 13.407 17.2485 13.782 17.2485C14.6258 17.1548 15.1883 17.7173 15.0945 18.4673C15.0945 18.8423 15.0008 19.2173 14.907 19.686C14.7195 20.2485 14.157 20.7173 13.5008 20.811C12.7508 20.9048 12.1883 20.5298 12.0945 19.9673C12.0008 19.5923 12.0008 19.2173 12.0008 18.7485C11.907 18.2798 12.282 17.811 12.7508 17.5298Z" fill="#8E4964"/>
<path d="M12.8437 17.9063C13.125 17.7188 13.4062 17.625 13.7812 17.625C14.5312 17.625 15.0937 18.1875 15 19.0312C15 19.4062 14.9062 19.875 14.8125 20.3438C14.625 21 14.1562 21.4688 13.5 21.6563C12.8437 21.75 12.2812 21.375 12.0937 20.7188C12 20.3438 12 19.875 12 19.3125C12 18.6563 12.375 18.1875 12.8437 17.9063Z" fill="#8E4964"/>
<path d="M14.719 19.0302C14.5315 18.2802 13.969 17.9052 13.5003 18.0927C12.9378 18.374 12.469 19.3115 12.5628 20.249C12.6565 21.2802 13.3128 21.8427 13.969 21.374C14.6253 20.999 14.9065 19.874 14.719 19.0302Z" fill="#8E4964"/>
<path d="M14.5313 18.843C14.4375 18.2805 13.9688 17.9993 13.5938 18.1868C13.125 18.3743 12.8438 19.1243 12.8438 19.7805C12.9375 20.5305 13.4062 20.9055 13.9687 20.5305C14.4375 20.2493 14.625 19.4993 14.5313 18.843Z" fill="#8E4964"/>
<path d="M13.8755 19.125C13.7817 18.8437 13.5942 18.75 13.313 18.8438C13.0317 18.9375 12.8442 19.2187 12.938 19.5C12.938 19.7812 13.313 19.9688 13.5942 19.7812C13.8755 19.7812 13.9692 19.4062 13.8755 19.125ZM19.1255 13.4062C19.1255 13.4062 19.4067 17.1563 21.4692 18.4688C21.4692 18.4688 23.063 14.8125 19.1255 13.4062ZM15.188 13.2188C15.188 13.2188 13.5005 17.9062 10.5942 19.5937C10.5942 19.5937 10.0317 14.625 15.188 13.2188ZM17.813 13.9687C17.813 13.9687 17.813 15.8438 16.1255 18C16.1255 18 16.7817 15 15.7505 13.875C15.7505 13.875 16.8755 13.2187 17.813 13.9687Z" fill="#8E4964"/>
<path d="M19.5935 14.4375C19.5935 14.4375 19.406 15.75 17.531 16.875C17.531 16.875 18.5623 15 17.6248 13.9687C17.6248 13.875 18.7498 13.6875 19.5935 14.4375ZM15.4685 13.7812C15.4685 13.7812 16.3123 14.7187 15.5623 16.6875C15.5623 16.6875 14.9998 14.8125 13.5935 14.9062C13.4998 14.9062 14.3435 13.9688 15.4685 13.7812ZM10.2185 16.7812C10.2185 16.7812 9.18727 19.0312 9.46852 20.9062C9.74977 22.7812 10.781 24.375 10.3123 25.875C10.3123 25.875 11.0623 23.4375 11.156 22.0313C11.2498 20.5313 10.8748 18.4687 11.6248 17.1562L10.2185 16.7812Z" fill="#8E4964"/>
<path d="M23.2592 13.2013C23.2843 12.7878 22.6762 12.4144 21.901 12.3673C21.1257 12.3202 20.4769 12.6172 20.4517 13.0306C20.4266 13.4441 21.0347 13.8175 21.81 13.8646C22.5852 13.9117 23.2341 13.6147 23.2592 13.2013Z" fill="#8E4964"/>
<path d="M10.8748 16.4062C10.8748 16.4062 9.84352 18.6562 10.1248 20.5312C10.406 22.4062 10.781 24.5625 10.2185 26.0625C10.2185 26.0625 11.3435 23.0625 11.4373 21.5625C11.531 20.0625 11.531 18.0937 12.281 16.6875L10.8748 16.4062ZM22.781 15.6562C22.781 15.6562 23.156 17.9062 22.3123 19.7812C21.4685 21.6562 20.8123 22.3125 19.9685 24.8437C19.9685 24.8437 20.2498 22.2187 20.6248 20.8125C20.9998 19.3125 21.656 17.4375 21.281 16.125L22.781 15.6562Z" fill="#8E4964"/>
<path d="M22.2188 15.2812C22.2188 15.2812 22.5938 17.5313 21.75 19.4063C20.9063 21.2813 19.9687 23.4375 19.9687 24.9375C19.9687 24.9375 19.7812 21.9375 20.0625 20.4375C20.4375 18.9375 21 16.9688 20.625 15.5625L22.2188 15.2812ZM13.5937 16.4063C13.5937 16.4063 12.75 18.375 12 19.4063L11.5312 21.1875L11.625 18.6563C11.5312 18.6563 13.125 17.3438 13.5937 16.4063Z" fill="#8E4964"/>
<path d="M19.8765 16.5C19.8765 16.5 20.064 17.625 20.2515 18L20.1577 20.1563L20.7202 17.625C20.814 17.7188 19.9702 16.7813 19.8765 16.5ZM10.8765 13.5938C10.8765 13.5938 9.47024 14.7188 10.0327 16.4063C10.0327 16.4063 8.90774 15.1875 10.2202 13.4063L10.8765 13.5938ZM22.5015 13.2188C22.5015 13.2188 23.439 13.5 23.1577 15.2812C23.1577 15.2812 24.3765 13.7813 23.064 12.8438L22.5015 13.2188ZM15.7515 14.5313C15.7515 14.5313 16.5952 16.3125 16.1265 18C16.1265 18 16.7827 15.5625 16.4077 14.4375C16.4077 14.4375 15.8452 14.3438 15.7515 14.5313ZM16.689 13.2188C16.689 13.2188 19.4077 13.125 21.4702 15.1875C21.4702 15.1875 22.0327 15.8437 22.0327 16.2187C22.0327 16.6875 20.5327 21.4688 20.5327 21.4688L21.189 16.0313C21.189 16.0313 20.7202 15.2812 20.2515 14.9062C19.689 14.625 18.189 13.5 16.689 13.2188ZM12.564 15.5625C12.564 15.5625 12.3765 16.875 11.7202 17.4375C10.9702 18 11.064 18.8438 11.064 18.8438L10.7827 22.125L10.5952 18.375C10.5952 18.375 11.1577 17.625 11.3452 17.0625C11.6265 16.5 11.9077 15.6563 11.9077 15.6563L12.564 15.5625Z" fill="#8E4964"/>
</g>
<mask id="mask1_52_67285" style="mask-type:luminance" maskUnits="userSpaceOnUse" x="4" y="12" width="19" height="12">
<path d="M6.46875 13.2188L4.125 23.5312L21.6562 22.7812L22.9688 12L6.46875 13.2188Z" fill="white"/>
</mask>
<g mask="url(#mask1_52_67285)">
<path d="M13.0432 17.2766C14.1331 16.0983 14.1846 14.3736 13.1584 13.4244C12.1321 12.4752 10.4167 12.6609 9.32686 13.8392C8.23701 15.0175 8.18546 16.7422 9.21171 17.6914C10.238 18.6406 11.9534 18.4549 13.0432 17.2766Z" fill="#B2642F"/>
<path d="M22.8694 16.7922C23.9593 15.614 24.0108 13.8893 22.9846 12.94C21.9583 11.9908 20.2429 12.1765 19.153 13.3548C18.0632 14.5331 18.0116 16.2578 19.0379 17.207C20.0641 18.1562 21.7796 17.9705 22.8694 16.7922Z" fill="#B2642F"/>
<path d="M12.2812 14.9052C12.2812 14.9052 13.5937 12.9364 16.4062 12.9364C19.2187 12.8427 21.1875 15.0927 20.8125 18.1864L12.2812 14.9052Z" fill="#B2642F"/>
<path d="M12.6094 17.7104C13.6289 16.6081 13.6851 15.0021 12.7349 14.1232C11.7846 13.2443 10.1878 13.4253 9.1683 14.5276C8.14876 15.6299 8.09258 17.2359 9.04281 18.1148C9.99304 18.9938 11.5899 18.8127 12.6094 17.7104Z" fill="#B2642F"/>
<path d="M22.4531 17.1753C23.4727 16.073 23.5289 14.4669 22.5786 13.588C21.6284 12.7091 20.0316 12.8902 19.012 13.9924C17.9925 15.0947 17.9363 16.7008 18.8866 17.5797C19.8368 18.4586 21.4336 18.2775 22.4531 17.1753Z" fill="#B2642F"/>
<path d="M12.0938 15.4677C12.0938 15.4677 13.4062 13.4989 16.2187 13.4989C19.0312 13.4052 21 15.6552 20.625 18.7489L12.0938 15.4677Z" fill="#F79248"/>
<path d="M10.3125 20.6235C10.3125 18.7485 11.3438 16.9672 13.2188 16.0297C13.875 15.6547 14.8125 15.3735 15.75 15.3735C19.875 15.186 20.625 17.6235 20.625 19.1235C20.625 20.6235 19.125 25.4985 15.4688 25.8735C12.1875 26.2485 10.4062 24.2797 10.3125 20.6235Z" fill="#BC7458"/>
<path d="M12.8749 17.2808C13.8593 16.2166 13.9178 14.6698 13.0055 13.8261C12.0933 12.9823 10.5558 13.1611 9.57144 14.2253C8.58706 15.2896 8.52856 16.8363 9.44079 17.6801C10.353 18.5238 11.8905 18.3451 12.8749 17.2808Z" fill="#F79248"/>
<path d="M12.6855 14.6975C12.7075 14.3357 12.1387 14.0068 11.4151 13.9628C10.6916 13.9189 10.0872 14.1765 10.0652 14.5383C10.0432 14.9001 10.612 15.229 11.3355 15.273C12.0591 15.317 12.6635 15.0593 12.6855 14.6975Z" fill="#FFBE92"/>
<path d="M22.5663 16.6109C23.5507 15.5467 23.6092 13.9999 22.6969 13.1561C21.7847 12.3124 20.2472 12.4912 19.2628 13.5554C18.2785 14.6197 18.22 16.1664 19.1322 17.0102C20.0444 17.8539 21.5819 17.6752 22.5663 16.6109Z" fill="#F79248"/>
<path d="M10.6875 20.4364C10.6875 18.6551 11.7188 16.8739 13.4063 15.9364C14.0625 15.5614 14.9062 15.3739 15.8438 15.2801C19.7812 15.0926 20.5312 17.4364 20.5312 18.8426C20.5312 20.2489 19.125 24.9364 15.5625 25.4051C12.5625 25.7801 10.7812 23.9051 10.6875 20.4364Z" fill="#E5A98C"/>
<path d="M11.0625 20.1555C11.0625 18.468 12 16.7805 13.6875 15.9368C14.3438 15.5618 15.0938 15.3743 16.0312 15.3743C19.7812 15.1868 20.4375 17.4368 20.4375 18.7493C20.4375 20.0618 19.125 24.5618 15.75 24.9368C12.75 25.2181 11.0625 23.4368 11.0625 20.1555Z" fill="#E8CCAA"/>
<path d="M11.3438 20.0618C11.3438 18.5618 12.2812 16.9681 13.7812 16.2181C14.3437 15.9368 15.0937 15.6556 15.9375 15.6556C19.4062 15.5618 19.9687 17.5306 19.9687 18.7493C19.9687 19.9681 18.75 24.0931 15.75 24.3743C12.9375 24.7493 11.4375 23.0618 11.3438 20.0618Z" fill="#FAEACF"/>
<path d="M18.9375 17.9063C18.6563 17.8125 18.375 17.7188 18 17.7188C17.25 17.7188 16.5 18.375 16.5 19.0312V20.1563C16.5 20.7188 16.9687 21.0938 17.625 21.1875C18.2812 21.1875 18.9375 20.8125 19.2187 20.25C19.3125 19.875 19.5 19.5 19.5937 19.0312C19.6875 18.5625 19.4063 18.0938 18.9375 17.9063Z" fill="#3C505B"/>
<path d="M18.8438 18.2813C18.6563 18.1875 18.2813 18.0938 17.9063 18.0938C17.1563 18.0938 16.5 18.8438 16.4062 19.5938V20.9062C16.4062 21.5625 16.875 21.9375 17.4375 22.0313C18.0938 22.0313 18.75 21.5625 18.9375 20.9062C19.0313 20.5312 19.2188 20.0625 19.3125 19.5C19.5 18.9375 19.3125 18.4688 18.8438 18.2813Z" fill="white"/>
<path d="M16.7816 19.5921C17.0629 18.8421 17.7191 18.3734 18.1879 18.5609C18.7504 18.7484 18.9379 19.6859 18.6566 20.6234C18.3754 21.6546 17.6254 22.2171 17.0629 21.8421C16.5004 21.4671 16.4066 20.4359 16.7816 19.5921Z" fill="#54B9EB"/>
<path d="M17.0625 19.4062C17.3438 18.8437 17.8125 18.4687 18.1875 18.6562C18.5625 18.8437 18.75 19.4999 18.5625 20.1562C18.375 20.9062 17.7187 21.3749 17.3437 21.0937C16.875 20.8124 16.7813 20.0624 17.0625 19.4062Z" fill="#3C505B"/>
<path d="M17.6249 19.5937C17.7186 19.3125 17.9999 19.2188 18.1874 19.3125C18.3749 19.4063 18.5624 19.6875 18.4686 19.9687C18.3749 20.25 18.0936 20.4375 17.8124 20.3438C17.5311 20.1563 17.4374 19.875 17.6249 19.5937Z" fill="white"/>
<path d="M12.4688 18.186C12.75 18.0923 13.0313 17.9048 13.4063 17.9048C14.1563 17.811 14.7188 18.3735 14.625 19.0298C14.625 19.4048 14.5312 19.7798 14.4375 20.1548C14.3438 20.7173 13.7813 21.186 13.125 21.2798C12.4688 21.3735 11.9063 20.9985 11.7188 20.5298C11.625 20.2485 11.625 19.7798 11.625 19.311C11.7188 18.936 12 18.4673 12.4688 18.186Z" fill="#3C505B"/>
<path d="M12.5629 18.5625C12.8441 18.375 13.1254 18.2812 13.5004 18.2812C14.2504 18.2812 14.8129 18.8437 14.7191 19.5937C14.7191 19.9687 14.6254 20.4375 14.5316 20.9062C14.4379 21.4687 13.8754 22.0313 13.3129 22.125C12.6566 22.2188 12.0941 21.8438 12.0004 21.1875C11.9066 20.8125 11.9066 20.3438 11.9066 19.875C11.8129 19.3125 12.0941 18.8437 12.5629 18.5625Z" fill="white"/>
<path d="M14.3438 19.5934C14.1563 18.8434 13.6875 18.4684 13.125 18.7496C12.5625 19.0309 12.1875 19.9684 12.1875 20.8121C12.2812 21.8434 12.9375 22.3121 13.5938 21.8434C14.25 21.4684 14.5313 20.4371 14.3438 19.5934Z" fill="#54B9EB"/>
<path d="M14.1566 19.4993C14.0629 18.9368 13.5941 18.6555 13.2191 18.843C12.7504 19.0305 12.4691 19.6868 12.5629 20.343C12.6566 21.093 13.1254 21.468 13.5941 21.093C14.0629 20.8118 14.2504 20.0618 14.1566 19.4993Z" fill="#3C505B"/>
<path d="M13.5 19.687C13.4062 19.4995 13.2188 19.312 12.9375 19.4058C12.6563 19.4995 12.5625 19.7808 12.5625 20.062C12.5625 20.3433 12.8438 20.5308 13.125 20.3433C13.5 20.3433 13.5938 19.9683 13.5 19.687Z" fill="white"/>
<path d="M18.5634 14.25C18.5634 14.25 18.8446 17.8125 20.8134 19.0312C20.8134 19.125 22.3134 15.5625 18.5634 14.25ZM14.7196 14.0625C14.7196 14.0625 13.1259 18.4688 10.4071 20.1562C10.4071 20.1562 9.93838 15.375 14.7196 14.0625ZM17.3446 14.8125C17.3446 14.8125 17.3446 16.5937 15.7509 18.6562C15.7509 18.6562 16.4071 15.8437 15.3759 14.7187C15.2821 14.7187 16.4071 14.0625 17.3446 14.8125Z" fill="#F79248"/>
<path d="M18.9376 15.2812C18.9376 15.2812 18.7501 16.5938 16.9688 17.5313C16.9688 17.5313 17.9063 15.75 17.0626 14.7187C17.1563 14.8125 18.1876 14.5312 18.9376 15.2812ZM15.0938 14.625C15.0938 14.625 15.8438 15.4688 15.1876 17.4375C15.1876 17.4375 14.6251 15.6562 13.3126 15.75C13.2188 15.75 13.9688 14.8125 15.0938 14.625Z" fill="#F79248"/>
<path d="M10.031 17.5312C10.031 17.5312 8.99977 19.6875 9.28102 21.4687C9.56227 23.25 10.5935 24.75 10.031 26.25C10.031 26.25 10.781 24 10.8748 22.5937C10.9685 21.1875 10.5935 19.2187 11.3435 17.9062L10.031 17.5312Z" fill="#B2642F"/>
<path d="M22.4804 14.1116C22.5024 13.7498 21.9336 13.4209 21.2101 13.3769C20.4865 13.3329 19.8821 13.5906 19.8601 13.9524C19.8381 14.3141 20.4069 14.6431 21.1304 14.687C21.854 14.731 22.4584 14.4734 22.4804 14.1116Z" fill="#FFBE92"/>
<path d="M10.6873 17.1562C10.6873 17.1562 9.65602 19.3125 9.93727 21.0938C10.2185 22.875 10.4998 24.9375 10.031 26.3438C10.031 26.3438 11.0623 23.5313 11.156 22.125C11.2498 20.7188 11.2498 18.75 11.9998 17.5313L10.6873 17.1562Z" fill="#F79248"/>
<path d="M22.0312 16.5C22.0312 16.5 22.4062 18.6562 21.5625 20.4375C20.7187 22.2187 20.0625 22.7812 19.3125 25.2187L19.875 21.375C20.25 19.9687 20.9062 18.1875 20.5312 16.875L22.0312 16.5Z" fill="#B2642F"/>
<path d="M21.4694 16.0312C21.4694 16.0312 21.8444 18.1875 21.0007 19.9687C20.1569 21.75 19.3132 23.8125 19.3132 25.2187C19.3132 25.2187 19.1257 22.4062 19.4069 21C19.7819 19.5937 20.3444 17.625 19.9694 16.4062L21.4694 16.0312Z" fill="#F79248"/>
<path d="M13.2188 17.1562C13.2188 17.1562 12.4687 19.0313 11.625 20.0625L11.25 21.6563L11.3438 19.2188C11.3438 19.3125 12.8438 18.0938 13.2188 17.1562ZM19.3125 17.25C19.3125 17.25 19.5 18.2813 19.6875 18.75L19.5938 20.8125L20.1562 18.4688C20.1562 18.375 19.4062 17.5313 19.3125 17.25Z" fill="#B2642F"/>
<path d="M10.6867 14.5313C10.6867 14.5313 9.37425 15.5625 9.843 17.25C9.843 17.25 8.81175 16.125 10.0305 14.4375L10.6867 14.5313ZM21.7492 14.1563C21.7492 14.1563 22.6867 14.4375 22.4055 16.125C22.4055 16.125 23.6242 14.7188 22.3117 13.7812L21.7492 14.1563Z" fill="#FFBE92"/>
<path d="M15.375 15.375C15.375 15.375 16.125 17.0625 15.6563 18.6563C15.6563 18.6563 16.3125 16.3125 15.9375 15.2812C15.9375 15.2812 15.375 15.1875 15.375 15.375Z" fill="#B2642F"/>
<path d="M16.2187 14.155C16.2187 14.155 18.8438 14.0613 20.7188 16.03C20.7188 16.03 21.2812 16.5925 21.1875 17.0613C21.1875 17.4363 19.7812 22.03 19.7812 22.03L20.3438 16.8738C20.3438 16.8738 19.875 16.1238 19.4062 15.7488C19.125 15.3738 17.625 14.3425 16.2187 14.155ZM12.375 16.405C12.375 16.405 12.2812 17.6238 11.5312 18.1863C10.875 18.7488 10.875 19.4988 10.875 19.4988L10.5937 22.5925L10.4062 19.03C10.4062 19.03 10.9687 18.28 11.1562 17.7175C11.4375 17.155 11.625 16.405 11.625 16.405H12.375Z" fill="#FFA96E"/>
</g>
<mask id="mask2_52_67285" style="mask-type:luminance" maskUnits="userSpaceOnUse" x="6" y="3" width="10" height="9">
<path d="M14.9063 10.875L6.9375 11.3438L7.96875 4.6875L15.75 3.9375L14.9063 10.875Z" fill="white"/>
</mask>
<g mask="url(#mask2_52_67285)">
<path d="M9.74999 4.3125C9.18749 4.40625 8.71874 4.6875 8.34374 5.15625C8.24999 5.34375 8.15624 5.53125 7.87499 5.71875C7.12499 6.5625 7.68749 7.78125 8.99999 7.59375C10.4062 7.40625 11.1562 6.84375 11.625 5.71875C12 4.78125 11.1562 4.03125 10.0312 4.3125H9.74999ZM14.4375 3.84375C15 3.84375 15.4687 4.125 15.6562 4.5C15.75 4.6875 15.8437 4.875 16.0312 5.0625C16.6875 5.71875 15.6562 7.21875 14.25 7.21875C12.8437 7.21875 12.0937 6.84375 12 5.71875C11.9062 4.78125 12.9375 3.9375 14.0625 3.9375L14.4375 3.84375Z" fill="#A3704D"/>
<path d="M14.5306 7.78033L14.7181 3.93658H14.4368C13.3118 3.84283 12.1868 3.84283 11.0618 4.03033C10.3118 4.12408 9.4681 4.40533 8.81185 4.87408C8.62435 5.90533 8.3431 7.49908 7.5931 8.90533C7.5931 8.90533 5.99935 11.7178 7.5931 11.9053C9.18685 12.0928 14.2493 11.9991 15.1868 10.9678C16.1243 10.0303 14.6243 8.24908 14.5306 7.78033Z" fill="#A3704D"/>
<path d="M14.5312 3.84352C13.6875 3.74977 12.375 3.65602 11.1562 3.74977C10.125 3.84352 9.5625 4.12477 9.09375 4.31227C9.09375 4.96852 8.90625 7.03102 7.96875 8.81227C7.96875 8.81227 6.5625 11.3435 7.96875 11.531C9.46875 11.7185 13.9687 11.6248 14.7187 10.6873C15.4688 9.74977 14.1562 8.15602 14.1562 7.78102C14.25 7.31227 14.3438 4.68727 14.5312 3.84352Z" fill="#FBCC94"/>
<path d="M9.74917 4.50162C9.28042 4.59537 8.81167 4.87662 8.62417 5.25162C8.43667 5.43912 8.34292 5.53287 8.15542 5.81412C7.49917 6.47037 7.96792 7.59537 9.09292 7.40787C10.3117 7.22037 10.9679 6.75162 11.4367 5.72037C11.7179 4.87662 11.0617 4.22037 10.0304 4.50162H9.74917Z" fill="#FAB88C"/>
<path d="M9.65491 4.68868C9.27991 4.78243 8.90491 4.96993 8.62366 5.34493C8.62366 5.43868 8.43616 5.62618 8.24866 5.81368C7.68616 6.37618 8.06116 7.40743 9.18616 7.21993C10.2174 7.03243 10.8737 6.65743 11.2487 5.71993C11.5299 4.96993 10.8737 4.40743 10.0299 4.59493L9.65491 4.68868Z" fill="#FFD097"/>
<path d="M9.28025 6.2822C9.1865 6.4697 8.90525 6.75095 8.71775 6.75095C8.4365 6.75095 8.249 6.56345 8.34275 6.37595C8.4365 6.0947 8.71775 5.9072 8.90525 5.9072C9.1865 5.81345 9.374 6.00095 9.28025 6.2822Z" fill="#A3704D"/>
<path d="M8.8125 6.375C8.8125 6.46875 8.71875 6.5625 8.625 6.5625C8.625 6.5625 8.53125 6.46875 8.53125 6.375C8.53125 6.28125 8.625 6.1875 8.71875 6.1875C8.8125 6.1875 8.90625 6.28125 8.8125 6.375ZM14.3438 4.03125C14.8125 4.03125 15.1875 4.21875 15.375 4.59375C15.4687 4.6875 15.5625 4.875 15.6563 5.0625C16.2188 5.71875 15.375 6.9375 14.0625 6.9375C12.8437 6.9375 12.1875 6.65625 12.0937 5.625C12 4.875 12.9375 4.03125 13.875 4.03125H14.3438Z" fill="#FAB88C"/>
<path d="M14.3431 4.21875C14.8118 4.21875 15.0931 4.40625 15.2806 4.6875C15.3743 4.78125 15.4681 4.96875 15.5618 5.0625C16.0306 5.625 15.2806 6.75 14.1556 6.75C13.0306 6.75 12.5618 6.46875 12.3743 5.625C12.2806 4.96875 13.1243 4.21875 13.9681 4.21875H14.3431Z" fill="#FFD097"/>
<path d="M14.3438 5.81345C14.3438 6.0947 14.5312 6.2822 14.8125 6.18845C15.0938 6.18845 15.2812 5.9072 15.2812 5.7197C15.2812 5.43845 15.0938 5.25095 14.8125 5.3447C14.5312 5.3447 14.3438 5.5322 14.3438 5.81345Z" fill="#A3704D"/>
<path d="M7.03013 10.6875C7.03013 10.6875 8.24888 10.5 9.18638 10.6875C10.1239 10.875 13.5926 10.5 15.2801 10.0312C15.2801 10.0312 15.6551 10.4063 15.3739 10.7813C15.0926 11.1563 11.3426 12.9375 10.5926 13.2188C9.84263 13.4063 7.12388 12 7.03013 11.7188C6.93638 11.3438 6.84263 10.875 7.03013 10.6875Z" fill="#5D8993"/>
<path d="M14.7188 5.8125C14.7188 5.90625 14.8125 5.90625 14.9062 5.90625C15 5.90625 15.0938 5.8125 15.0938 5.71875C15.0938 5.71875 15 5.625 14.9062 5.625C14.8125 5.625 14.7188 5.71875 14.7188 5.8125Z" fill="#FAB88C"/>
<path d="M7.40494 10.5C7.40494 10.5 8.52994 10.3125 9.37369 10.5C10.2174 10.6875 13.4049 10.3125 14.9987 9.9375C14.9987 9.9375 15.3737 10.3125 15.0924 10.6875C14.8112 11.0625 11.4362 12.75 10.7799 12.9375C10.1237 13.125 7.59244 11.8125 7.49869 11.5312C7.31119 11.1562 7.21744 10.6875 7.40494 10.5Z" fill="#CBDEE4"/>
<path d="M12.6563 6.65625C12.6563 6.65625 13.6875 7.125 14.4375 6.9375L14.5313 7.125C14.5313 7.125 13.5938 7.3125 12.6563 6.65625ZM10.3125 6.84375C10.3125 6.84375 9.1875 7.5 8.4375 7.40625L8.34375 7.59375C8.34375 7.59375 9.28125 7.6875 10.3125 6.84375Z" fill="#A3704D"/>
<path d="M7.96772 6.09375C7.96772 6.09375 7.78022 6.9375 8.99897 6.84375C10.2177 6.75 11.249 5.71875 11.249 5.71875C11.249 5.71875 10.9677 7.03125 9.09272 7.3125C7.31147 7.5 7.96772 6.09375 7.96772 6.09375ZM15.749 5.4375C15.749 5.4375 15.6552 6.28125 14.4365 6.375C13.124 6.46875 12.374 5.625 12.374 5.625C12.374 5.625 12.374 6.84375 14.1552 6.84375C16.0302 6.84375 15.749 5.4375 15.749 5.4375Z" fill="#FBCC94"/>
<path d="M11.3435 8.90625C11.3435 9 11.2498 9.09375 11.156 9.09375C11.0623 9.09375 10.9685 9 11.0623 9C11.0623 8.90625 11.156 8.8125 11.2498 8.8125C11.3435 8.8125 11.3435 8.90625 11.3435 8.90625Z" fill="#A3704D"/>
<path d="M7.21875 10.7812C7.21875 10.7812 7.59375 10.5937 7.96875 10.5937C8.34375 10.5937 10.2188 10.9687 11.7188 10.6875L15.1875 10.125L15.0938 9.9375L11.1562 10.5C9.84375 10.5937 8.34375 10.125 7.21875 10.6875V10.7812Z" fill="#5D8993"/>
<path d="M12.9375 10.689L11.0625 11.064C10.7812 11.5328 10.5 12.0015 10.4062 12.564C10.5938 12.6578 10.6875 12.6578 10.7812 12.6578C11.1562 12.6578 13.2187 11.5328 13.9687 11.1578C14.625 10.689 13.4062 10.5015 12.9375 10.689Z" fill="#D5EAEF"/>
<path d="M13.3125 10.3125C13.3125 10.3125 13.2187 10.7812 12.9375 11.25L12.4688 12.0937L13.5937 11.3438C13.7812 11.25 15.2812 10.875 14.7187 10.5938C14.0625 10.4063 13.3125 10.3125 13.3125 10.3125Z" fill="#CBDEE4"/>
<path opacity="0.4" d="M12.375 12.1877C12.4687 12.0939 12.8438 11.7189 12.9375 11.4377C13.125 11.1564 13.3125 10.8752 13.5937 11.0627C13.875 11.1564 13.7812 11.5314 13.7812 11.5314L12.375 12.1877ZM10.5938 13.1252C10.5 13.0314 10.3125 12.6564 10.2187 12.3752C10.125 12.0939 9.9375 11.9064 9.65625 12.0002C9.375 12.1877 9.375 12.5627 9.375 12.5627L10.5938 13.1252Z" fill="#5D8993"/>
<path d="M11.5303 11.4381C11.5303 11.4381 11.6241 11.0631 11.8116 10.9693C11.9991 10.8756 12.6553 10.5943 12.7491 10.7818C12.8428 10.8756 13.1241 11.1568 12.7491 11.2506C12.3741 11.4381 12.4678 11.7193 12.0928 11.8131C11.8116 11.9068 11.4366 11.7193 11.5303 11.4381Z" fill="#EEFDFF"/>
<path d="M8.90625 4.7819C8.90625 4.7819 9.75 4.31315 10.2188 4.2194C10.6875 4.12565 13.5938 3.93815 14.625 4.0319V3.8444C14.625 3.8444 12 3.4694 10.3125 3.8444C8.90625 4.12565 8.8125 4.50065 8.8125 4.50065L8.90625 4.7819Z" fill="#A3704D"/>
</g>
<path d="M2.81326 15.0939C2.71951 12.9376 5.06326 10.6876 7.96951 10.0314L11.3445 9.28136C14.4383 8.62511 17.532 9.75011 18.0945 12.0001C18.7508 14.3439 16.3133 16.9689 12.7508 17.6251L8.90701 18.2814C8.90701 18.9376 9.56327 19.8751 10.407 20.8126C10.5008 21.0001 10.407 21.1876 10.2195 21.1876C8.90701 20.9064 6.28201 20.1564 5.34451 18.0939C3.93826 17.6251 2.90701 16.5001 2.81326 15.0939Z" fill="#4C6980"/>
<path d="M3.37404 14.9064C3.28029 12.8439 5.43654 10.7814 8.15529 10.2189L11.249 9.56267C14.0615 8.90642 16.874 10.0314 17.3428 12.0002C17.9053 14.1564 15.6553 16.5002 12.4678 17.1564L9.09279 17.8127C8.90529 17.8127 8.71779 17.9064 8.53029 17.9064C8.53029 18.4689 8.71779 19.1252 9.28029 19.8752C9.37404 20.0627 9.18654 20.2502 8.99904 20.1564C8.06154 19.8752 6.56154 19.1252 5.81154 17.6252C4.31154 17.2502 3.37404 16.2189 3.37404 14.9064Z" fill="white"/>
<path d="M6.09375 13.3125L6 13.4063C5.8125 13.7813 5.4375 14.25 5.15625 14.5313C5.0625 14.4375 4.96875 14.4375 4.96875 14.3438C5.34375 14.0625 5.625 13.5938 5.8125 13.2188L6.09375 13.3125ZM8.4375 14.4375L8.71875 14.5313C8.71875 14.5313 8.71875 14.625 8.625 14.625C8.34375 15.0938 7.96875 15.5625 7.5 15.9375C8.0625 16.125 8.71875 16.2188 9.5625 16.125C9.46875 16.2188 9.375 16.4063 9.375 16.5C8.53125 16.5 7.78125 16.4062 7.21875 16.2187C6.5625 16.5937 5.90625 16.9687 5.15625 17.1562C5.15625 17.0625 5.0625 16.9688 4.96875 16.875C5.625 16.6875 6.28125 16.4063 6.84375 16.125C6.5625 15.9375 6.28125 15.75 6.09375 15.5625C5.8125 15.75 5.53125 16.0312 5.25 16.2187C5.25 16.125 5.15625 16.0313 5.0625 16.0313C5.8125 15.5625 6.375 15 6.65625 14.5313H7.125C7.125 14.5313 7.125 14.625 7.03125 14.625C6.9375 14.7188 6.84375 14.8125 6.84375 14.9062L8.4375 14.4375ZM6.84375 12.75C6.84375 13.3125 6.84375 14.0625 6 14.8125L5.8125 14.625C6.46875 13.9688 6.5625 13.3125 6.5625 12.8438L4.96875 13.125V12.75L6.9375 12.2813V11.7188L7.40625 11.625C7.40625 11.625 7.40625 11.7188 7.3125 11.7188V12.1875L9.46875 11.7188V12.0938L7.96875 12.375V13.6875C7.96875 14.0625 7.78125 14.1563 7.03125 14.25C7.03125 14.1563 6.9375 14.0625 6.9375 13.9688C7.21875 13.9688 7.40625 13.875 7.5 13.875C7.59375 13.875 7.59375 13.875 7.59375 13.7813V12.4688L6.84375 12.75ZM6.375 15.0938C6.5625 15.375 6.84375 15.6562 7.125 15.75C7.5 15.4687 7.875 15.1875 8.0625 14.8125L6.375 15.0938ZM9.28125 13.875C9.09375 13.5938 8.71875 13.2188 8.34375 12.9375L8.625 12.75C9 13.0313 9.375 13.4063 9.65625 13.6875L9.28125 13.875ZM11.0625 15.0938C10.875 15.5625 10.6875 15.9375 10.2188 16.2187L9.9375 16.0313C10.4063 15.75 10.5938 15.375 10.7812 15L11.0625 15.0938ZM12.4688 12.0938C12.4688 12 12.375 11.9063 12.2813 11.9063L10.2188 12.4688C10.2188 12.4688 10.2188 12.5625 10.125 12.5625L10.0312 12.1875L10.5 12.0938C10.6875 11.8125 10.875 11.3438 11.0625 10.9688L11.5313 11.0625L11.4375 11.1562C11.3438 11.4375 11.1562 11.7188 10.9688 12L12.1875 11.7188C12.0938 11.625 11.9063 11.4375 11.8125 11.4375L12.0938 11.25C12.375 11.4375 12.75 11.8125 12.9375 12L12.4688 12.0938ZM12.375 12.1875L12.2813 14.0625C12.2813 14.3438 12.0938 14.4375 11.4375 14.5313C11.4375 14.4375 11.3438 14.3438 11.3438 14.25C11.9063 14.1563 11.9062 14.1563 11.9062 14.0625V13.6875L10.6875 14.0625V14.8125L10.3125 14.9062V12.6563L12.375 12.1875ZM12 12.5625L10.6875 12.8438V13.2188L12 12.9375V12.5625ZM10.6875 13.7813L12 13.5V13.125L10.6875 13.4063V13.7813ZM11.8125 15.5625C11.8125 15.6563 11.9063 15.75 12.1875 15.6563L13.3125 15.4688C13.5938 15.4688 13.5938 15.375 13.6875 14.9062C13.7813 14.9062 13.9688 15 14.0625 15C13.9688 15.5625 13.875 15.75 13.4063 15.8438L12.1875 16.0313C11.625 16.125 11.4375 16.0313 11.4375 15.6563V14.9062L11.9062 14.8125C11.9062 14.8125 11.9063 14.9062 11.8125 14.9062V15.5625ZM12.8438 15.1875C12.6562 15 12.2812 14.8125 11.9062 14.7188L12.1875 14.4375C12.5625 14.5312 12.9375 14.7188 13.125 14.9062L12.8438 15.1875ZM14.9062 11.5313C15.1875 11.4375 15.1875 11.4375 15.2812 10.875C15.375 10.875 15.5625 10.9688 15.6563 10.9688C15.5625 11.625 15.4688 11.8125 15 11.9063L13.875 12.0938C13.3125 12.1875 13.125 12.0938 13.2188 11.7188L13.3125 10.4063L13.7812 10.3125C13.7812 10.3125 13.7813 10.4063 13.6875 10.4063V11.0625L15.1875 10.2188L15.5625 10.4063L15.4688 10.5L13.7812 11.4375V11.7188C13.7812 11.9063 13.7813 11.9063 14.1563 11.8125L14.9062 11.5313ZM14.8125 13.6875C15.0938 13.6875 15.0938 13.5938 15.1875 13.0312C15.2813 13.125 15.4688 13.125 15.5625 13.125C15.4688 13.7813 15.375 13.9688 14.9062 14.0625L13.7812 14.25C13.2188 14.3438 13.0312 14.25 13.125 13.875L13.2188 12.4688L13.6875 12.375C13.6875 12.375 13.6875 12.4688 13.5938 12.4688V13.125L15.0938 12.2813L15.4688 12.4688H15.2812C14.8125 12.75 14.1562 13.0313 13.5 13.3125V13.6875C13.5 13.875 13.5 13.875 13.875 13.7813L14.8125 13.6875ZM15.0938 15.5625C14.9063 15.2813 14.4375 14.9062 13.9688 14.7188L14.3438 14.4375C14.8125 14.625 15.2812 14.9062 15.4688 15.2812L15.0938 15.5625Z" fill="#4C6980" stroke="#4C6980" stroke-width="0.216375" stroke-miterlimit="10"/>
<path d="M7.5 5.53125L7.3125 6.84375L15.8437 6.5625L16.0312 5.25L7.5 5.53125Z" fill="#4C6980"/>
<path d="M17.343 7.59375C17.343 7.59375 16.6868 7.03125 17.2493 5.90625L17.9993 6.1875L17.343 7.59375ZM20.9055 5.15625C20.9055 5.15625 20.6243 6.375 21.6555 6.75C22.7805 7.125 22.4055 8.53125 22.1243 9.75C22.1243 9.75 25.593 6.9375 22.7805 4.5C22.6868 4.5 20.9055 4.875 20.9055 5.15625Z" fill="#993A6E"/>
<path d="M17.2493 6.65701C17.2493 6.65701 16.8743 10.032 18.4681 10.782C20.2493 11.532 22.3118 11.0633 23.4368 6.46951C23.4368 6.46951 23.0618 4.59451 20.7181 4.96951C18.6556 5.25076 17.2493 6.37576 17.2493 6.65701Z" fill="#BC7458"/>
<path d="M17.3433 6.74914C17.3433 6.74914 17.062 9.93664 18.4683 10.5929C20.062 11.2491 22.0308 10.8741 22.9683 6.56164C22.9683 6.56164 22.5933 4.78039 20.5308 5.15539C18.6558 5.43664 17.3433 6.46789 17.3433 6.74914Z" fill="#E5A98C"/>
<path d="M17.4374 6.93758C17.4374 6.93758 17.1562 9.84383 18.4687 10.3126C19.9687 10.9688 21.7499 10.5001 22.5937 6.75008C22.5937 6.75008 22.3124 5.15633 20.3437 5.43758C18.6562 5.71883 17.4374 6.56258 17.4374 6.93758Z" fill="#E8CCAA"/>
<path d="M17.4382 7.03088C17.4382 7.03088 17.157 9.74963 18.3757 10.2184C19.782 10.7809 21.3757 10.4059 22.1257 6.84338C22.1257 6.84338 21.8445 5.43713 20.0632 5.62463C18.5632 5.90588 17.4382 6.84338 17.4382 7.03088Z" fill="#FAEACF"/>
<path d="M17.25 6.75082C17.25 6.75082 17.5313 7.31332 18.4688 7.03207C19.4063 6.75082 22.0313 4.68832 22.0313 4.68832C22.0313 4.68832 20.9063 3.93832 18.9375 4.87582C17.9063 5.34457 17.3438 6.46957 17.25 6.75082Z" fill="#993A6E"/>
<path d="M18.8438 5.53125C18.5625 5.71875 18.1875 6.46875 17.9063 6.75C17.625 7.03125 17.1562 6.9375 17.1562 6.5625C17.1562 6.1875 16.875 5.53125 17.4375 4.40625C17.4375 4.40625 18.375 4.03125 19.0312 4.78125C19.125 4.96875 19.0313 5.34375 18.8438 5.53125ZM21.5625 5.25C21.8438 5.34375 22.3125 5.625 22.6875 5.8125C23.0625 6.09375 23.625 5.71875 23.7187 5.25C23.7187 4.78125 23.7187 4.125 23.3437 3.28125C23.3437 3.28125 22.125 3.375 21.4687 4.5C21.1875 4.875 21.2812 5.15625 21.5625 5.25Z" fill="#D8649E"/>
<path d="M17.3438 6.93832C17.3438 6.93832 17.625 7.50082 18.5625 7.21957C19.5 6.93832 22.125 4.87582 22.125 4.87582C22.125 4.87582 21 4.12582 19.0312 5.06332C18 5.43832 17.4375 6.65707 17.3438 6.93832Z" fill="#D8649E"/>
<path d="M20.6249 5.0625C20.6249 5.0625 20.3436 6.28125 21.3749 6.65625C22.4999 7.03125 22.4061 8.25 22.1249 9.46875C22.1249 9.46875 24.8436 6.46875 22.4061 4.3125C22.4999 4.40625 20.6249 4.875 20.6249 5.0625Z" fill="#D8649E"/>
<path d="M21.7506 5.15625C22.0319 5.25 22.3131 5.4375 22.5944 5.625C22.8756 5.8125 23.3444 5.53125 23.3444 5.25C23.3444 4.875 23.3444 4.40625 23.0631 3.84375C23.0631 3.84375 22.2194 3.9375 21.6569 4.78125C21.4694 4.875 21.5631 5.0625 21.7506 5.15625Z" fill="#FFD4F7"/>
<path d="M21.8428 5.25C22.0303 5.34375 22.2178 5.4375 22.4053 5.625C22.5928 5.71875 22.8741 5.625 22.8741 5.34375C22.8741 5.0625 22.8741 4.6875 22.6866 4.3125C22.6866 4.3125 22.0303 4.40625 21.7491 4.96875C21.6553 5.0625 21.6553 5.15625 21.8428 5.25Z" fill="#BF6A93"/>
<path d="M18.6562 5.4375C18.4687 5.625 18.1875 5.8125 18 6.09375C17.8125 6.28125 17.4375 6.28125 17.4375 6C17.4375 5.71875 17.4375 5.25 17.625 4.6875C17.625 4.6875 18.2812 4.40625 18.75 4.96875C18.8437 5.0625 18.8437 5.34375 18.6562 5.4375Z" fill="#FFD4F7"/>
<path d="M18.6562 5.53125C18.4687 5.625 18.2812 5.8125 18.1875 6C18 6.1875 17.8125 6.09375 17.8125 5.90625C17.8125 5.71875 17.8125 5.34375 18 4.875C18 4.875 18.4688 4.6875 18.8438 5.0625C18.75 5.25 18.75 5.4375 18.6562 5.53125Z" fill="#BF6A93"/>
<path d="M17.9995 6.65625C18.187 6.65625 18.2808 6.5625 18.562 6.5625C18.937 6.5625 19.2183 6.75 19.2183 7.125C19.2183 7.3125 19.1245 7.5 19.1245 7.6875C19.0308 7.96875 18.7495 8.15625 18.4683 8.25C18.0933 8.25 17.812 8.15625 17.812 7.875C17.812 7.6875 17.7183 7.5 17.812 7.3125C17.6245 7.03125 17.812 6.84375 17.9995 6.65625Z" fill="#3C505B"/>
<path d="M18.0944 6.84375C18.1882 6.75 18.3757 6.75 18.5632 6.65625C18.9382 6.65625 19.2194 6.9375 19.1257 7.3125C19.1257 7.5 19.0319 7.78125 19.0319 7.96875C18.9382 8.25 18.6569 8.53125 18.3757 8.53125C18.0944 8.53125 17.8132 8.34375 17.7194 8.0625C17.7194 7.875 17.6257 7.6875 17.7194 7.40625C17.6257 7.21875 17.8132 7.03125 18.0944 6.84375Z" fill="white"/>
<path d="M18.9375 7.4067C18.8438 7.0317 18.5625 6.8442 18.375 6.93795C18.0937 7.0317 17.9062 7.50045 17.9062 7.9692C17.9062 8.43795 18.2812 8.7192 18.5625 8.5317C18.8437 8.3442 19.0313 7.7817 18.9375 7.4067Z" fill="#D8649E"/>
<path d="M18.8437 7.3125C18.75 7.03125 18.5625 6.9375 18.375 7.03125C18.1875 7.125 18 7.5 18 7.78125C18 8.15625 18.2812 8.34375 18.5625 8.15625C18.75 8.0625 18.9375 7.59375 18.8437 7.3125Z" fill="#3C505B"/>
<path d="M18.5625 7.49977C18.5625 7.40602 18.375 7.31227 18.2813 7.40602C18.1875 7.40602 18.0938 7.59352 18.0938 7.78102C18.0938 7.96852 18.2813 7.96852 18.375 7.96852C18.4688 7.78102 18.5625 7.59352 18.5625 7.49977Z" fill="white"/>
<path d="M21.4688 6.5625C21.375 6.46875 21.1875 6.46875 20.9062 6.46875C20.4375 6.46875 20.0625 6.84375 20.0625 7.125V7.6875C20.0625 7.96875 20.3438 8.15625 20.625 8.25C21 8.25 21.375 8.0625 21.4688 7.78125C21.5625 7.59375 21.6563 7.40625 21.6563 7.125C21.9375 6.9375 21.75 6.65625 21.4688 6.5625Z" fill="#3C505B"/>
<path d="M21.4687 6.75C21.375 6.65625 21.1875 6.65625 21 6.65625C20.625 6.65625 20.25 7.03125 20.1562 7.40625V8.0625C20.1562 8.34375 20.4375 8.625 20.7188 8.625C21.0938 8.625 21.4688 8.4375 21.5625 8.0625C21.6562 7.875 21.75 7.59375 21.75 7.3125C21.8438 7.125 21.6562 6.9375 21.4687 6.75Z" fill="white"/>
<path d="M20.2506 7.50059C20.4381 7.12559 20.7194 6.84434 21.0006 6.93809C21.2819 7.03184 21.4694 7.50059 21.2819 8.06309C21.0944 8.62559 20.7194 8.90684 20.3444 8.71934C20.1569 8.43809 20.0631 7.87559 20.2506 7.50059Z" fill="#D8649E"/>
<path d="M20.4381 7.4072C20.5319 7.12595 20.8131 6.93845 21.0006 7.0322C21.1881 7.12595 21.3756 7.50095 21.1881 7.7822C21.0944 8.1572 20.7194 8.43845 20.5319 8.25095C20.3444 8.06345 20.2506 7.68845 20.4381 7.4072Z" fill="#3C505B"/>
<path d="M20.7194 7.5C20.8132 7.40625 20.9069 7.3125 21.0007 7.3125C21.0944 7.3125 21.1882 7.5 21.0944 7.6875C21.0007 7.875 20.8132 7.96875 20.7194 7.875C20.7194 7.78125 20.6257 7.59375 20.7194 7.5Z" fill="white"/>
<path d="M18.1875 6.28174C18.1875 6.28174 19.4062 4.68799 20.5312 5.06299C20.5312 5.06299 20.7188 5.53174 20.0625 5.81299C19.4062 6.18799 18.1875 6.28174 18.1875 6.28174ZM21.4688 5.53174C21.4688 5.53174 22.5938 5.71924 22.875 6.09424C23.1562 6.46924 23.1562 7.03174 22.875 7.68799C22.875 7.68799 22.7813 7.21924 22.5938 6.84424C22.4063 6.46924 21.9375 5.62549 21.4688 5.53174Z" fill="#EA7DB8"/>
<path d="M23.9995 9.65576C23.9995 8.43701 22.9683 8.43701 22.9683 8.43701C22.9683 8.43701 22.312 8.43701 21.8433 8.90576C21.4683 8.43701 20.9058 8.43701 20.9058 8.43701C20.9058 8.43701 19.7808 8.34326 19.4995 9.65576C19.1245 11.1558 21.4683 12.2808 21.6558 12.3745C21.7495 12.2808 23.9995 11.062 23.9995 9.65576Z" fill="#362222"/>
<path d="M23.9995 9.46826C23.9995 8.34326 22.9683 8.34326 22.9683 8.34326C22.9683 8.34326 22.312 8.24951 21.8433 8.71826C21.4683 8.24951 20.812 8.24951 20.812 8.24951C20.812 8.24951 19.687 8.15576 19.4058 9.46826C19.0308 10.9683 21.3745 11.9995 21.562 12.0933C21.6558 11.9995 23.9995 10.8745 23.9995 9.46826Z" fill="#960F62"/>
<path d="M23.7197 9.46875C23.7197 8.90625 23.5322 8.71875 23.2509 8.53125C23.0634 8.4375 22.7822 8.4375 22.5009 8.53125C22.3134 8.625 22.0322 8.71875 21.7509 9C21.5634 8.8125 21.2822 8.625 21.0947 8.53125C20.8134 8.4375 20.4384 8.4375 20.1572 8.53125C19.8759 8.625 19.5947 8.90625 19.5009 9.46875C19.2197 10.6875 21.2822 11.625 21.3759 11.7187C21.6572 11.625 23.7197 10.5938 23.7197 9.46875Z" fill="#DD82D4"/>
<path d="M23.0631 9.46875C23.0631 9.09375 22.8756 8.90625 22.6881 8.8125C22.5006 8.71875 22.3131 8.71875 22.1256 8.8125C21.9381 8.90625 21.7506 9 21.5631 9.1875C21.4693 9 21.2818 8.90625 21.0943 8.90625C20.9068 8.8125 20.6256 8.8125 20.3443 8.90625C20.1568 9 19.9693 9.1875 19.8756 9.5625C19.6881 10.5 21.1881 11.1562 21.2818 11.1562C21.4693 11.0625 22.9693 10.3125 23.0631 9.46875Z" fill="#F9B6EA"/>
<path d="M22.6879 10.5002C22.5004 10.594 22.2192 10.594 22.1254 10.5002C22.0317 10.4065 21.8442 10.219 21.8442 10.0315C21.7504 9.46897 22.3129 8.34397 23.1567 8.81272C24.0942 9.28147 23.1567 10.3127 22.6879 10.5002Z" fill="#FFB3B3"/>
<path d="M21.2812 12C21.2812 12 23.1562 11.3437 23.9062 9.84375C23.9062 9.84375 23.7187 10.9687 21.5625 12.0937L21.2812 12Z" fill="#DD82D4"/>
<path d="M22.9688 9.28029H22.875L22.7812 9.18654C22.7812 9.09279 22.875 8.71779 23.0625 8.90529C23.3438 8.99904 23.1563 9.28029 22.9688 9.28029Z" fill="white"/>
<path d="M20.906 9.28125C20.906 9.375 20.8122 9.46875 20.7185 9.46875C20.6247 9.5625 20.531 9.5625 20.4372 9.5625C20.156 9.5625 19.781 9.28125 20.2497 8.90625C20.8122 8.625 20.9997 9 20.906 9.28125Z" fill="#FFB3B3"/>
<path opacity="0.28" d="M19.5938 10.5C19.5938 10.5 21.6562 12.5625 23.8125 10.3125C23.8125 10.3125 22.875 11.4375 21.6563 12.1875C21.6563 12.2812 19.7812 11.625 19.5938 10.5Z" fill="#362222"/>
</g>
<defs>
<clipPath id="clip0_52_67285">
<rect width="30" height="30" fill="white"/>
</clipPath>
</defs>
</svg>
