<svg width="20" height="20" viewBox="0 0 20 20" fill="none" xmlns="http://www.w3.org/2000/svg">
<path fill-rule="evenodd" clip-rule="evenodd" d="M9.80094 17.3784C7.99208 16.2652 6.30932 14.9549 4.78279 13.4712C3.70957 12.4027 2.89253 11.1 2.39427 9.66302C1.49763 6.87542 2.54497 3.68416 5.47599 2.73973C7.01641 2.24382 8.69879 2.52725 9.99684 3.50136C11.2954 2.52844 12.9772 2.2451 14.5177 2.73973C17.4487 3.68416 18.5036 6.87542 17.6069 9.66302C17.1087 11.1 16.2916 12.4027 15.2184 13.4712C13.6919 14.9549 12.0091 16.2652 10.2003 17.3784L10.0044 17.5003L9.80094 17.3784Z" stroke="white" stroke-linecap="round" stroke-linejoin="round"/>
<path d="M13.1166 5.87768C14.0044 6.16127 14.6352 6.95828 14.714 7.89602" stroke="white" stroke-linecap="round" stroke-linejoin="round"/>
</svg>
