<svg width="15" height="15" viewBox="0 0 15 15" fill="none" xmlns="http://www.w3.org/2000/svg">
<path d="M11.5418 4.23662C11.5013 4.22988 11.4541 4.22988 11.4137 4.23662C10.4834 4.20291 9.74195 3.4412 9.74195 2.49748C9.74195 1.53354 10.5171 0.758344 11.4811 0.758344C12.445 0.758344 13.2202 1.54028 13.2202 2.49748C13.2135 3.4412 12.472 4.20291 11.5418 4.23662Z" stroke="white" stroke-width="1.5" stroke-linecap="round" stroke-linejoin="round"/>
<path d="M10.8483 9.14405C11.7718 9.29909 12.7897 9.13731 13.5042 8.65871C14.4547 8.02507 14.4547 6.98698 13.5042 6.35334C12.783 5.87475 11.7516 5.71296 10.8281 5.87474" stroke="white" stroke-width="1.5" stroke-linecap="round" stroke-linejoin="round"/>
<path d="M3.43214 4.23662C3.47258 4.22988 3.51977 4.22988 3.56021 4.23662C4.49045 4.20291 5.23194 3.4412 5.23194 2.49748C5.23194 1.53354 4.45675 0.758344 3.49281 0.758344C2.52887 0.758344 1.75367 1.54028 1.75367 2.49748C1.76041 3.4412 2.5019 4.20291 3.43214 4.23662Z" stroke="white" stroke-width="1.5" stroke-linecap="round" stroke-linejoin="round"/>
<path d="M4.12707 9.14405C3.20358 9.29909 2.18572 9.13731 1.47119 8.65871C0.520729 8.02507 0.520729 6.98698 1.47119 6.35334C2.19246 5.87475 3.2238 5.71296 4.1473 5.87474" stroke="white" stroke-width="1.5" stroke-linecap="round" stroke-linejoin="round"/>
<path d="M7.49725 9.27249C7.45681 9.26575 7.40962 9.26575 7.36918 9.27249C6.43894 9.23879 5.69745 8.47707 5.69745 7.53336C5.69745 6.56942 6.47265 5.79422 7.43659 5.79422C8.40053 5.79422 9.17572 6.57616 9.17572 7.53336C9.16898 8.47707 8.42749 9.24553 7.49725 9.27249Z" stroke="white" stroke-width="1.5" stroke-linecap="round" stroke-linejoin="round"/>
<path d="M5.53544 11.3956C4.58498 12.0293 4.58498 13.0673 5.53544 13.701C6.61397 14.4222 8.38007 14.4222 9.4586 13.701C10.4091 13.0673 10.4091 12.0293 9.4586 11.3956C8.38681 10.6811 6.61397 10.6811 5.53544 11.3956Z" stroke="white" stroke-width="1.5" stroke-linecap="round" stroke-linejoin="round"/>
</svg>
