<svg width="30" height="30" viewBox="0 0 30 30" fill="none" xmlns="http://www.w3.org/2000/svg">
<path d="M0.75 10.875L5.4375 23.4375C6.28125 25.6875 9.84375 27.375 12.8438 27C15.8438 26.625 19.875 26.7188 21 25.0313C22.125 23.3438 26.4375 11.4375 29.0625 9.84375C29.0625 9.84375 26.3438 14.4375 23.8125 16.0313C21.2812 17.625 17.9062 22.3125 14.0625 22.125C10.2188 22.0312 7.21875 21.375 5.34375 18.2812C3.46875 15.1875 2.4375 12.4688 2.4375 12.4688L0.75 10.875Z" fill="#4C2537"/>
<path d="M1.59375 8.53133C1.59375 8.53133 3.65625 22.8751 12.75 22.1251C21.8438 21.2813 27.75 9.75008 27.75 9.75008C27.75 9.75008 18.8438 4.59383 16.3125 3.56258C13.7812 2.53133 7.5 2.90633 7.5 2.90633L1.59375 8.53133Z" fill="#4C2537"/>
<path d="M4.6875 7.03125C4.6875 7.03125 10.3125 11.3438 20.7188 8.15625L17.8125 6.75L6 5.53125L4.6875 7.03125Z" fill="white"/>
<path d="M1.03125 9.09407C1.03125 9.09407 3.1875 6.18782 3.75 4.78157C4.3125 3.37532 5.90625 1.50032 8.25 2.53157C10.5938 3.56282 12.1875 3.65657 13.2188 3.18782C14.25 2.71907 16.3125 1.59407 18.2812 2.43782C20.1562 3.28157 25.5 7.68782 29.4375 8.43782C29.5312 8.43782 29.5312 8.62532 29.4375 8.62532C29.0625 8.71907 28.4062 8.90657 27.75 8.90657C26.625 8.90657 18.6562 5.53157 17.5312 5.06282C16.4062 4.59407 12.1875 5.90657 10.0312 5.43782C7.875 5.06282 5.34375 6.09407 5.34375 6.09407C5.34375 6.09407 2.34375 9.56282 1.03125 9.09407Z" fill="#960F4E" stroke="#960F4E" stroke-width="0.44775" stroke-miterlimit="10"/>
<path d="M1.21875 9.09391C1.21875 9.09391 3.84375 6.84391 5.0625 4.59391C6.28125 2.34391 9.46875 4.31266 10.4062 4.68766C11.3438 5.06266 13.2188 4.59391 14.5312 4.03141C15.8438 3.46891 17.625 3.00016 19.5 4.21891C21.375 5.43766 26.7188 8.25016 29.3438 8.71891C29.3438 8.71891 27.2813 10.3127 23.1563 9.09391C19.0313 7.87516 18 7.31266 15.6563 7.59391C13.3125 7.87516 9.65625 7.78141 7.3125 6.84391C7.3125 6.84391 6.65625 6.37516 5.4375 7.31266C4.21875 8.25016 1.5 9.09391 1.21875 9.09391Z" fill="#960F0F"/>
<path d="M1.21875 9.18766C1.21875 9.18766 3.84375 6.28141 5.0625 4.12516C6.28125 1.96891 9.46875 3.84391 10.4062 4.21891C11.3438 4.59391 13.2188 4.12516 14.5312 3.56266C15.8438 3.00016 17.625 2.53141 19.5 3.75016C21.375 4.96891 26.5313 8.34391 29.1563 8.81266C29.1563 8.81266 27.2813 9.84391 23.1563 8.71891C19.0313 7.59391 18 6.93766 15.6563 7.21891C13.3125 7.50016 9.65625 7.40641 7.3125 6.46891C7.3125 6.46891 6.65625 6.00016 5.4375 6.93766C4.21875 7.87516 1.5 9.18766 1.21875 9.18766Z" fill="#DD4568"/>
<path d="M0.65625 9.09375L4.78125 22.5938C5.625 24.9375 9.1875 26.5312 12.1875 26.1562C15.1875 25.7812 18.9375 25.6875 20.1562 24.0938C21.2812 22.4063 27 10.7812 29.625 9.09375C29.625 9.09375 25.6875 13.6875 23.25 15.2812C20.8125 16.875 17.3438 21.5625 13.5 21.375C9.46875 21.1875 6.46875 20.625 4.6875 17.4375C2.90625 14.25 1.875 8.71875 1.875 8.71875L0.65625 9.09375Z" fill="#960F4E"/>
<path d="M1.5 11.9063L1.03125 9.1875C1.3125 9.84375 4.3125 18.8438 5.0625 20.7188C5.8125 22.6875 9.1875 24.1875 11.9062 23.8125C14.625 23.4375 18.1875 23.4375 19.2188 21.9375C20.25 20.5312 22.9687 16.125 25.5937 14.1563C25.6875 14.0625 29.25 8.8125 29.1562 8.8125C27.9375 9.28125 28.5 8.90625 26.7188 9.9375C24.375 11.4375 16.5937 19.7812 13.0312 19.5938C9.46875 19.4062 6.65625 18.9375 4.96875 16.2187C3.46875 13.7812 1.875 9.1875 1.6875 8.90625H1.59375L1.5 11.9063Z" fill="#DD4568"/>
<path d="M19.2187 4.59448C18.1875 3.93823 16.9687 3.56323 15.8437 3.84448C15.2812 3.93823 14.7187 4.21948 14.625 4.78198C14.5312 5.25073 14.8125 5.71948 15.1875 6.00073C15.5625 6.28198 16.125 6.37573 16.5937 6.37573L21.2812 6.93823C22.2187 6.84448 21.1875 6.09448 20.9062 5.81323C20.4375 5.34448 19.875 4.87573 19.2187 4.59448ZM18.4687 21.282C19.0312 20.907 19.4062 20.4382 19.5 19.9695C19.5 19.6882 19.5 19.407 19.2187 19.2195C18.9375 19.1257 18.6562 19.1257 18.375 19.2195C18.1875 19.3132 18 19.5945 17.9062 19.782C17.7187 20.157 17.5312 20.4382 17.25 20.8132C17.0625 21.0945 16.7812 21.4695 16.6875 21.7507C16.5937 22.1257 17.1562 21.8445 17.3437 21.7507C17.8125 21.657 18.1875 21.5632 18.4687 21.282ZM8.53122 4.68823C7.87497 4.21948 7.12497 3.93823 6.37497 4.03198C6.09372 4.12573 5.71872 4.31323 5.62497 4.78198C5.53122 5.06323 5.71872 5.43823 5.99997 5.62573C6.28122 5.81323 6.56247 5.90698 6.84372 6.00073L8.34372 6.28198C8.81247 6.37573 9.37497 6.56323 9.74997 6.56323C10.3125 6.56323 9.65622 6.00073 9.46872 5.71948C9.18747 5.25073 8.90622 4.87573 8.53122 4.68823Z" fill="#F964A0"/>
<path d="M25.875 9.375C25.875 9.375 27.1875 9.9375 27 10.6875L27.2812 10.7812L29.7188 8.90625C29.8125 8.71875 29.8125 8.53125 29.8125 8.53125H29.4375C29.25 8.53125 27.75 9.28125 25.875 9.375Z" fill="#960F0F"/>
<path d="M7.2188 5.0625C7.31255 5.0625 7.50005 5.15625 7.5938 5.15625C7.7813 5.15625 7.87505 5.0625 7.87505 4.875C7.87505 4.6875 7.68755 4.59375 7.5938 4.59375C7.4063 4.5 7.12505 4.40625 6.8438 4.40625H6.37505C5.7188 4.6875 6.93755 4.96875 7.2188 5.0625ZM17.5313 4.6875C17.625 4.6875 17.8125 4.78125 17.9063 4.78125C18.0938 4.78125 18.1875 4.6875 18.1875 4.5C18.1875 4.3125 18 4.21875 17.9063 4.21875C17.7188 4.125 17.4375 4.03125 17.1563 4.03125H16.6875C16.125 4.3125 17.25 4.59375 17.5313 4.6875Z" fill="#FFA1CA"/>
<path d="M27.0937 9.5625L21.5625 21.2813L21.8437 22.9688L29.625 8.90625L27.0937 9.5625Z" fill="#4C2537"/>
<path d="M1.21875 8.25L4.3125 18.75L4.125 20.7188L0.46875 10.5L0.65625 9.09375L1.21875 8.25Z" fill="#960F4E"/>
<path d="M19.1253 16.5L11.1565 16.7812C8.53154 16.9687 4.87529 16.5937 5.43779 17.7187C6.00029 18.75 8.71904 21.1875 11.719 20.8125C14.719 20.5312 19.0315 18.0938 19.1253 16.5Z" fill="#960F0F"/>
<path d="M18.6564 16.3125L13.1252 16.4063L11.2502 16.5C8.81266 16.6875 5.34391 16.4062 5.90641 17.1562C6.37516 17.9062 8.90641 19.5938 11.8127 19.4063C14.7189 19.2188 18.6564 17.3438 18.6564 16.3125Z" fill="#DD4545"/>
<path d="M12.375 17.7187C11.9062 17.7187 10.3125 17.3438 10.125 16.875L9.9375 16.4062H13.2188C13.125 16.4062 12.9375 17.7187 12.375 17.7187Z" fill="#960F0F"/>
<path d="M4.03125 7.875C4.03125 7.875 2.625 10.3125 3.28125 12.4688L2.53125 11.8125L1.78125 8.71875L3.9375 6.1875L4.03125 7.875ZM22.9688 8.34375C22.9688 8.34375 23.7188 11.5312 22.9688 13.5C22.2188 15.4688 24.375 14.8125 24.375 14.8125L27.375 8.90625L23.625 7.125L22.9688 8.34375Z" fill="#DD4568"/>
<path d="M23.6247 10.6875C23.6247 10.6875 23.9997 14.1563 22.6872 15.6563C21.3747 17.1563 20.9997 19.0313 20.9997 21.75C20.9997 24.4688 19.6872 28.5938 18.7497 25.5938C17.8122 22.5938 18.7497 18 18.7497 18C18.7497 18 23.7184 12 23.6247 10.6875Z" fill="#D3C2C2"/>
<path d="M12.5621 16.5942C12.5621 16.5942 10.8746 15.6567 13.3121 15.3755C15.7496 15.0942 20.3434 13.5005 21.5621 12.8442C22.7809 12.188 22.4059 13.313 22.4059 13.313C22.4059 13.313 20.5309 14.9067 20.2496 15.7505C19.9684 16.5942 19.4059 17.3442 19.4059 17.3442L12.5621 16.5942Z" fill="#D3C2C2"/>
<path d="M22.125 13.2188C22.125 13.2188 21.75 14.3438 21.2813 15.1875C20.7188 16.0313 20.625 19.3125 20.25 18.6562L18.6562 16.3125L16.5 15.5625L22.125 13.2188Z" fill="white"/>
<path d="M15.75 25.9688L15.375 26.5312L17.3438 27.9375L28.5 16.7812L26.625 14.5312L15.75 25.9688Z" fill="#9A4C18"/>
<path d="M28.6876 19.9687C28.3126 24.375 24.2814 28.125 19.6876 28.0312C15.1876 28.0312 12.2814 24.2812 13.1251 19.9687C13.9689 15.9375 17.8126 12.75 21.8439 12.75C25.9689 12.75 29.0626 15.8437 28.6876 19.9687Z" fill="#9A4C18"/>
<path d="M29.8125 21.375C29.4375 25.5938 25.5 29.1562 21 29.0625C16.5937 29.0625 13.7812 25.5 14.625 21.375C15.375 17.5312 19.2187 14.5312 23.1562 14.4375C27.1875 14.4375 30.1875 17.4375 29.8125 21.375Z" fill="#9A4C18"/>
<path d="M17.0625 26.25L18.9375 27.2813L28.0312 17.7188L26.5312 15.75L17.0625 26.25Z" fill="#F49937"/>
<path d="M28.9684 21.375C28.5934 24.9375 25.3121 27.9375 21.5621 27.9375C17.9059 27.9375 15.5621 24.9375 16.2184 21.375C16.8746 18 20.0621 15.375 23.3434 15.375C26.8121 15.375 29.2496 18 28.9684 21.375Z" fill="#F49937"/>
<path d="M27.7497 19.875C27.3747 23.7188 23.8122 27 19.8747 26.9063C15.9372 26.9063 13.4059 23.625 14.1559 19.875C14.8122 16.3125 18.1872 13.5 21.7497 13.5C25.4059 13.5 28.1247 16.3125 27.7497 19.875Z" fill="#FFEDC0"/>
<path d="M27.2809 20.2505C26.9059 23.813 23.6246 26.813 19.8746 26.813C16.2184 26.813 13.8746 23.813 14.5309 20.2505C15.1871 16.8755 18.3746 14.2505 21.6559 14.2505C25.0309 14.1567 27.5621 16.7817 27.2809 20.2505Z" fill="#FFD766"/>
<path d="M25.7808 20.2492C25.4995 22.9679 22.8745 25.3117 20.062 25.3117C17.2495 25.3117 15.3745 22.9679 15.8433 20.2492C16.312 17.6242 18.7495 15.5617 21.3745 15.5617C24.187 15.4679 26.062 17.5304 25.7808 20.2492Z" fill="#FFEDC0"/>
<path d="M25.8752 19.5C25.5939 22.2187 23.0627 24.5625 20.1564 24.4688C17.3439 24.4688 15.4689 22.2187 16.0314 19.5C16.5002 16.875 18.9377 14.9062 21.5627 14.8125C24.1877 14.9062 26.1564 16.875 25.8752 19.5Z" fill="#F49937"/>
<path d="M25.0312 20.25C24.75 22.5938 22.5937 24.4688 20.25 24.4688C17.9062 24.4688 16.3125 22.5 16.6875 20.25C17.0625 18 19.2187 16.3125 21.375 16.2188C23.625 16.2188 25.3125 18 25.0312 20.25Z" fill="#FFD766"/>
<path d="M22.0313 15.75L22.6875 18.2813L25.4063 19.0312L22.875 20.7188L22.6875 23.625L20.4375 22.0313L17.4375 23.0625L18.75 20.25L17.25 18.0938H20.1563L22.0313 15.75Z" fill="#F49937"/>
</svg>
