<svg width="56" height="56" viewBox="0 0 56 56" fill="none" xmlns="http://www.w3.org/2000/svg">
<path d="M14 39.1836C14.0727 41.7793 14.8076 44.3134 16.135 46.5453C16.329 46.9324 16.6268 47.2578 16.9952 47.4853C17.3637 47.7128 17.7881 47.8333 18.221 47.8333H28.2544C28.7753 47.8336 29.2813 47.6597 29.6919 47.3392C30.1025 47.0187 30.394 46.57 30.52 46.0646L31.5 42.1446L32.48 46.0646C32.6061 46.57 32.8976 47.0187 33.3082 47.3392C33.7188 47.6597 34.2248 47.8336 34.7457 47.8333H37.779C38.2129 47.8333 38.6382 47.7123 39.007 47.4839C39.3759 47.2556 39.6739 46.9289 39.8674 46.5406C41.1955 44.3109 41.9298 41.7779 42 39.1836C42 32.3189 37.3334 30.1723 37.3334 27.5403C37.3334 24.2736 42 23.7159 42 19.1263C42 14.1586 37.3334 14.6626 37.3334 11.5756V10.5C37.3334 9.88113 37.0875 9.28763 36.65 8.85004C36.2124 8.41246 35.6189 8.16663 35 8.16663H32.6667C32.0479 8.16663 31.4544 8.41246 31.0168 8.85004C30.5792 9.28763 30.3334 9.88113 30.3334 10.5V11.9C30.3338 12.3547 30.2217 12.8026 30.0072 13.2036C29.7927 13.6046 29.4823 13.9463 29.1037 14.1983C28.6894 14.4741 28.3176 14.809 28 15.1923C27.6825 14.809 27.3107 14.4741 26.8964 14.1983C26.5178 13.9463 26.2074 13.6046 25.9929 13.2036C25.7783 12.8026 25.6663 12.3547 25.6667 11.9V10.5C25.6667 9.88113 25.4209 9.28763 24.9833 8.85004C24.5457 8.41246 23.9522 8.16663 23.3334 8.16663H21C20.3812 8.16663 19.7877 8.41246 19.3501 8.85004C18.9125 9.28763 18.6667 9.88113 18.6667 10.5V11.5756C18.6683 12.0877 18.5266 12.59 18.2578 13.0258C17.989 13.4616 17.6037 13.8136 17.1454 14.042C16.1976 14.5118 15.4005 15.2378 14.8445 16.1378C14.2886 17.0377 13.996 18.0755 14 19.1333C14 23.6693 18.6667 24.3273 18.6667 27.5869C18.6667 30.0789 14 32.3726 14 39.1836ZM16.3334 19.1169C16.3334 15.4443 21 16.4196 21 11.5663V10.5H23.3334V11.9C23.3321 12.7392 23.5388 13.5657 23.935 14.3055C24.3312 15.0453 24.9045 15.6755 25.6037 16.1396C25.9816 16.3912 26.2916 16.7322 26.5061 17.1323C26.7206 17.5324 26.833 17.9793 26.8334 18.4333C26.8334 18.7427 26.9563 19.0394 27.1751 19.2582C27.3939 19.477 27.6906 19.5999 28 19.5999C28.3095 19.5999 28.6062 19.477 28.825 19.2582C29.0438 19.0394 29.1667 18.7427 29.1667 18.4333C29.1663 17.9785 29.2783 17.5307 29.4929 17.1297C29.7074 16.7287 30.0178 16.387 30.3964 16.135C31.0949 15.6713 31.6678 15.0418 32.064 14.3029C32.4601 13.5639 32.6672 12.7384 32.6667 11.9V10.5H35V11.5756C35 16.4756 39.6667 15.421 39.6667 19.1263C39.6667 22.4209 35 22.9483 35 27.5799C35 31.6749 39.6667 32.7623 39.6667 39.1836C39.5869 41.4153 38.9379 43.5896 37.7814 45.4999H34.748L32.634 37.0509C32.5467 36.8216 32.3917 36.6242 32.1896 36.4849C31.9875 36.3456 31.7478 36.271 31.5024 36.271C31.2569 36.271 31.0173 36.3456 30.8152 36.4849C30.6131 36.6242 30.4581 36.8216 30.3707 37.0509L28.2544 45.4999H18.221C17.0641 43.5896 16.4144 41.4155 16.3334 39.1836C16.3334 32.8276 21 31.6959 21 27.5403C21 22.9109 16.3334 22.4583 16.3334 19.1333V19.1169Z" fill="#393D46"/>
</svg>
