<svg width="22" height="22" viewBox="0 0 22 22" fill="none" xmlns="http://www.w3.org/2000/svg">
<path d="M8.16204 1.75063C8.2407 1.45084 8.13362 1.13299 7.88958 0.941916C7.64555 0.750842 7.31129 0.723125 7.03912 0.871396C5.55654 1.67908 4.2052 2.83639 3.11848 4.31205C-0.480857 9.19958 0.0964553 15.9133 4.64739 19.2648C9.19832 22.6162 15.781 21.1753 19.3803 16.2878C20.1978 15.1777 20.7989 13.978 21.1876 12.7469C21.2817 12.4486 21.1878 12.123 20.9493 11.9207C20.7108 11.7183 20.3742 11.6788 20.0953 11.8204C16.8339 13.4757 13.3517 13.4559 10.857 11.6187C8.1092 9.59514 7.10927 5.76304 8.16204 1.75063Z" stroke="#B9B8BB" stroke-width="1.5" stroke-linejoin="round"/>
</svg>
