<svg width="21" height="17" viewBox="0 0 21 17" fill="none" xmlns="http://www.w3.org/2000/svg">
<path d="M10.1639 7.65747C12.5811 7.65747 14.5407 6.17079 14.5407 4.33688C14.5407 2.50297 12.5811 1.01629 10.1639 1.01629C7.74664 1.01629 5.78709 2.50297 5.78709 4.33688C5.78709 6.17079 7.74664 7.65747 10.1639 7.65747Z" stroke="#7D8DB5" stroke-width="2" stroke-linecap="round" stroke-linejoin="round"/>
<path d="M17.6744 15.9838C18.8143 15.9838 19.6195 15.108 19.1959 14.3041C18.4754 12.9334 17.2295 11.7582 15.6195 10.9302C14.0094 10.1023 12.109 9.6597 10.1639 9.6597C8.21882 9.6597 6.31844 10.1023 4.70835 10.9302C3.09825 11.7582 1.85244 12.9334 1.13192 14.3041C0.708337 15.108 1.5129 15.9838 2.65345 15.9838H17.6744Z" stroke="#7D8DB5" stroke-width="2" stroke-linecap="round" stroke-linejoin="round"/>
</svg>
