<svg width="32" height="32" viewBox="0 0 32 32" fill="none" xmlns="http://www.w3.org/2000/svg">
<path d="M16 6.66663C9.64408 6.66663 4.66675 9.59996 4.66675 13.3333V18.6666C4.66675 21.7106 8.12408 24.3413 13.0921 25.1053C13.3721 25.253 13.6835 25.3312 14.0001 25.3333H18C18.3166 25.3312 18.628 25.253 18.908 25.1053C23.876 24.3413 27.3334 21.7106 27.3334 18.6666V13.3333C27.3334 9.59996 22.356 6.66663 16 6.66663ZM6.00008 18.6666V16.5173C7.72029 18.1893 9.92028 19.2816 12.2921 19.6413C12.1028 19.9499 12.0018 20.3046 12.0001 20.6666V23.3333C12.0001 23.4026 12.0134 23.4666 12.0201 23.5359C8.46142 22.6879 6.00008 20.7573 6.00008 18.6666ZM18.6667 23.3333C18.6598 23.5079 18.5873 23.6735 18.4638 23.797C18.3402 23.9206 18.1746 23.993 18 23.9999H16.6667V22.6666H17.3334C17.5102 22.6666 17.6797 22.5964 17.8048 22.4713C17.9298 22.3463 18 22.1767 18 21.9999C18 21.8231 17.9298 21.6536 17.8048 21.5285C17.6797 21.4035 17.5102 21.3333 17.3334 21.3333H16.6667V19.9999H18C18.1768 19.9999 18.3464 20.0702 18.4714 20.1952C18.5965 20.3202 18.6667 20.4898 18.6667 20.6666V23.3333ZM13.3334 23.3333V20.6666C13.3334 20.4898 13.4036 20.3202 13.5287 20.1952C13.6537 20.0702 13.8233 19.9999 14.0001 19.9999H15.3334V21.3333C15.1566 21.3333 14.987 21.4035 14.862 21.5285C14.7369 21.6536 14.6667 21.8231 14.6667 21.9999C14.6667 22.1767 14.7369 22.3463 14.862 22.4713C14.987 22.5964 15.1566 22.6666 15.3334 22.6666V23.9999H14.0001C13.8253 23.9936 13.6593 23.9214 13.5356 23.7977C13.412 23.674 13.3397 23.5081 13.3334 23.3333ZM19.8454 17.4866C19.9787 15.872 18.2854 14.8906 16.6667 14.704V13.3706C19.8014 13.644 21.9174 15.7653 19.8454 17.4866ZM13.3334 17.3333C13.3334 16.7039 14.4734 16 16 16C17.4507 16 18.5334 16.7039 18.5334 17.3333C18.5334 17.9626 17.4507 18.6666 16 18.6666C14.9147 18.6666 13.3334 18.1613 13.3334 17.3333ZM15.3334 14.7106C13.4214 14.9173 12.0001 15.9893 12.0001 17.3306C10.1334 15.5306 12.4627 13.6213 15.3334 13.3733V14.7106ZM21.744 17.1106C21.9036 16.7615 21.9907 16.3837 22 16C22 13.756 19.364 12 16 12C12.6361 12 10.0001 13.756 10.0001 16C10.0089 16.385 10.096 16.7643 10.2561 17.1146C9.81241 16.8662 9.43587 16.5135 9.15898 16.087C8.88208 15.6605 8.71314 15.173 8.66675 14.6666C8.66675 12.4986 12.0254 10.6666 16 10.6666C19.9747 10.6666 23.3334 12.4986 23.3334 14.6666C23.287 15.173 23.118 15.6605 22.8411 16.087C22.5642 16.5135 22.1877 16.8662 21.744 17.1146V17.1106ZM26 18.6666C26 20.7573 23.5387 22.6879 19.98 23.5359C19.9867 23.4679 20 23.4026 20 23.3333V20.6666C19.9983 20.3046 19.8973 19.9499 19.708 19.6413C22.0798 19.2816 24.2798 18.1893 26 16.5173V18.6666ZM24.276 16.2813C24.5308 15.7811 24.6646 15.228 24.6667 14.6666C24.6667 11.676 20.86 9.3333 16 9.3333C11.1401 9.3333 7.33342 11.676 7.33342 14.6666C7.33563 15.228 7.46943 15.781 7.72408 16.2813C7.23061 15.9543 6.81863 15.5185 6.51977 15.0075C6.22092 14.4964 6.04314 13.9237 6.00008 13.3333C6.00008 10.4426 10.5801 7.99996 16 7.99996C21.42 7.99996 26 10.4426 26 13.3333C25.957 13.9237 25.7792 14.4964 25.4803 15.0075C25.1815 15.5185 24.7695 15.9543 24.276 16.2813Z" fill="#9F9F9F"/>
</svg>
