<svg width="27" height="27" viewBox="0 0 27 27" fill="none" xmlns="http://www.w3.org/2000/svg">
<path fill-rule="evenodd" clip-rule="evenodd" d="M26.9997 4.84611C26.9997 5.22847 26.6898 5.53842 26.3074 5.53842H24.9229V21.4613H26.3075C26.6898 21.4613 26.9998 21.7712 26.9998 22.1536V26.3074C26.9998 26.6898 26.6898 26.9997 26.3075 26.9997H22.1537C21.7713 26.9997 21.4614 26.6898 21.4614 26.3074V24.9228H5.53842V26.3074C5.53842 26.6898 5.22847 26.9997 4.84611 26.9997H0.692302C0.309943 26.9997 0 26.6898 0 26.3074V22.1536C0 21.7713 0.309943 21.4613 0.692302 21.4614H2.07691V5.53842H0.692302C0.309943 5.53842 0 5.22847 0 4.84611V0.692302C0 0.309943 0.309943 0 0.692302 0H4.84611C5.22847 0 5.53842 0.309943 5.53842 0.692302V2.07691H21.4613V0.692302C21.4613 0.309943 21.7712 0 22.1536 0H26.3074C26.6898 0 26.9997 0.309943 26.9997 0.692302V4.84611ZM22.1536 21.4613H23.5382H23.5383V5.53842H22.1537C21.7713 5.53842 21.4614 5.22847 21.4614 4.84611V3.46151H5.53842V4.84611C5.53842 5.22847 5.22847 5.53842 4.84611 5.53842H3.46151V21.4613H4.84611C5.22847 21.4613 5.53842 21.7712 5.53842 22.1536V23.5382H21.4613V22.1536C21.4613 21.7712 21.7712 21.4613 22.1536 21.4613Z" fill="#899494"/>
</svg>
