<svg width="24" height="24" viewBox="0 0 24 24" fill="none" xmlns="http://www.w3.org/2000/svg">
<path fill-rule="evenodd" clip-rule="evenodd" d="M1.99991 12C1.99991 6.48 6.46991 2 11.9999 2C17.5199 2 21.9999 6.48 21.9999 12C21.9999 17.53 17.5199 22 11.9999 22C6.46991 22 1.99991 17.53 1.99991 12ZM14.2299 13.83L15.8499 8.71C15.9599 8.36 15.6399 8.03 15.2899 8.14L10.1699 9.74C9.95991 9.81 9.78991 9.97 9.72991 10.18L8.12991 15.31C8.01991 15.65 8.34991 15.98 8.68991 15.87L13.7899 14.27C13.9999 14.21 14.1699 14.04 14.2299 13.83Z" fill="#A9B4CD"/>
</svg>
