<svg width="194" height="13" viewBox="0 0 194 13" fill="none" xmlns="http://www.w3.org/2000/svg">
<path d="M193.781 5.9714L187.01 0.189851C186.713 -0.0632835 186.231 -0.0632835 185.933 0.189851C185.636 0.442985 185.636 0.854141 185.933 1.10728L192.168 6.43009L185.934 11.7529C185.637 12.006 185.637 12.4172 185.934 12.671C186.231 12.9241 186.713 12.9241 187.01 12.671L193.782 6.88941C194.074 6.6389 194.074 6.22128 193.781 5.9714Z" fill="#26CE83"/>
<path d="M0.218936 5.9714L6.9903 0.189851C7.28742 -0.0632835 7.76881 -0.0632835 8.06668 0.189851C8.36381 0.442985 8.36381 0.854141 8.06668 1.10728L1.83242 6.43009L8.06593 11.7529C8.36306 12.006 8.36306 12.4172 8.06593 12.671C7.76881 12.9241 7.28667 12.9241 6.98955 12.671L0.218185 6.88941C-0.0744358 6.6389 -0.0744358 6.22128 0.218936 5.9714Z" fill="#26CE83"/>
</svg>
