<svg width="30" height="30" viewBox="0 0 30 30" fill="none" xmlns="http://www.w3.org/2000/svg">
<g clip-path="url(#clip0_52_77146)">
<path d="M5.625 22.6875H5.34375C2.53125 22.6875 0.28125 20.4375 0.28125 17.625V14.3438C0.28125 11.5313 2.53125 9.28125 5.34375 9.28125H16.6875C19.5 9.28125 21.75 11.5313 21.75 14.3438V17.625C21.75 20.4375 19.5 22.6875 16.6875 22.6875H10.2187L10.125 26.625L5.625 22.6875Z" fill="#336649"/>
<path d="M16.6875 9.5625C19.3125 9.5625 21.375 11.7187 21.375 14.25V17.5313C21.375 20.1563 19.2188 22.2188 16.6875 22.2188H9.9375L9.84375 25.7812L5.8125 22.2188H5.34375C2.71875 22.2188 0.65625 20.0625 0.65625 17.5313V14.25C0.65625 11.625 2.8125 9.5625 5.34375 9.5625H16.6875ZM16.6875 8.90625H5.34375C2.4375 8.90625 0 11.3438 0 14.3438V17.625C0 20.5312 2.4375 22.9688 5.34375 22.9688H5.53125L9.375 26.4375L10.4062 27.2812V25.9688L10.5 22.9688H16.6875C19.5938 22.9688 22.0312 20.5312 22.0312 17.625V14.3438C22.0312 11.3438 19.6875 8.90625 16.6875 8.90625Z" fill="#336649"/>
<path d="M10.4063 11.3438C8.4375 11.3438 6.84375 9.75 6.84375 7.78125V5.4375C6.84375 3.46875 8.4375 1.875 10.4063 1.875H18.2812C20.25 1.875 21.8437 3.46875 21.8437 5.4375V7.78125C21.8437 9.75 20.25 11.3438 18.2812 11.3438H12.8437L10.3125 13.7812L10.4063 11.3438Z" fill="#59AA7F"/>
<path d="M18.375 2.15625C20.1562 2.15625 21.6562 3.65625 21.6562 5.4375V7.78125C21.6562 9.5625 20.1562 11.0625 18.375 11.0625H12.8438L10.7812 13.0313V11.0625H10.5C8.71875 11.0625 7.21875 9.5625 7.21875 7.78125V5.4375C7.21875 3.65625 8.71875 2.15625 10.5 2.15625H18.375ZM18.375 1.59375H10.5C8.34375 1.59375 6.5625 3.375 6.5625 5.53125V7.875C6.5625 9.9375 8.15625 11.625 10.125 11.8125V14.625L11.1562 13.5938L13.0312 11.8125H18.2812C20.4375 11.8125 22.2188 10.0312 22.2188 7.875V5.4375C22.2188 3.28125 20.5312 1.59375 18.375 1.59375Z" fill="#336649"/>
<path d="M5.625 21.1875H5.34375C2.53125 21.1875 0.28125 18.9375 0.28125 16.125V12.8437C0.28125 10.0312 2.53125 7.78125 5.34375 7.78125H16.6875C19.5 7.78125 21.75 10.0312 21.75 12.8437V16.125C21.75 18.9375 19.5 21.1875 16.6875 21.1875H10.2187L10.125 25.3125L5.625 21.1875Z" fill="#59AA7F"/>
<path d="M16.6875 8.15625C19.3125 8.15625 21.375 10.3125 21.375 12.8438V16.125C21.375 18.75 19.2188 20.8125 16.6875 20.8125H9.9375L9.84375 24.5625L5.8125 20.8125H5.34375C2.71875 20.8125 0.65625 18.6563 0.65625 16.125V12.8438C0.65625 10.2188 2.8125 8.15625 5.34375 8.15625H16.6875ZM16.6875 7.5H5.34375C2.4375 7.5 0 9.9375 0 12.8438V16.125C0 19.125 2.4375 21.5625 5.34375 21.5625H5.53125L9.375 25.125L10.4062 26.0625V24.6562L10.5 21.4688H16.6875C19.5938 21.4688 22.0312 19.0313 22.0312 16.125V12.8438C22.0312 9.9375 19.6875 7.5 16.6875 7.5Z" fill="#336649"/>
<path d="M15.6563 8.71875H5.8125C3.5625 8.71875 1.6875 10.5938 1.6875 12.9375V15.9375C1.6875 18.2812 3.5625 20.1562 5.8125 20.1562H15.6563C17.9063 20.1562 19.7813 18.2812 19.7813 15.9375V12.9375C19.7813 10.5938 18 8.71875 15.6563 8.71875Z" fill="#75D1A3"/>
<path d="M26.0633 18.9378C27.4696 19.4066 28.8758 20.6253 29.3446 22.3128C29.8133 24.0941 29.1571 26.1566 27.8446 27.0941C27.0008 27.7503 25.8758 27.9378 24.8446 27.9378C22.4071 27.9378 19.8758 27.0941 17.4383 26.2503C16.5946 25.9691 15.7508 25.6878 15.0946 25.1253C14.3446 24.5628 13.7821 23.8128 13.6883 22.7816C13.5008 21.4691 14.3446 20.0628 15.3758 19.4066C17.1571 18.2816 19.0321 17.7191 21.0008 17.8128C22.5008 17.9066 24.4696 18.4691 26.0633 18.9378Z" fill="#29677C"/>
<path d="M26.4383 17.25C27.9383 17.9063 29.4383 19.4063 29.907 21.5625C30.3758 23.8125 29.7195 26.5313 28.3133 27.75C27.3758 28.5938 26.2508 28.7813 25.1258 28.7813C22.5008 28.7813 19.8758 27.75 17.3445 26.625C16.5008 26.25 15.5633 25.875 14.8133 25.2188C14.0633 24.5625 13.407 23.4375 13.3133 22.2188C13.1258 20.4375 13.9695 18.75 15.0945 17.9063C16.9695 16.4063 18.9383 15.75 21.0008 15.75C22.6883 15.8438 24.7508 16.5938 26.4383 17.25Z" fill="#29677C"/>
<path d="M29.3632 13.41C29.3793 8.9572 25.7827 5.33441 21.3299 5.31828C16.8771 5.30214 13.2543 8.89877 13.2382 13.3516C13.2221 17.8044 16.8187 21.4271 21.2715 21.4433C25.7243 21.4594 29.3471 17.8628 29.3632 13.41Z" fill="#7F5C4E"/>
<path d="M25.7822 17.9066C27.1884 18.3753 28.4072 19.5941 28.8759 21.2816C29.3447 23.0628 28.6884 25.1253 27.4697 26.0628C26.6259 26.7191 25.6884 26.9066 24.6572 26.9066C22.3134 26.9066 19.9697 26.0628 17.7197 25.2191C16.9697 24.9378 16.1259 24.6566 15.4697 24.0941C14.8134 23.5316 14.2509 22.7816 14.0634 21.7503C13.8759 20.4378 14.7197 19.0316 15.6572 18.3753C17.3447 17.2503 19.1259 16.6878 20.9072 16.7816C22.4072 16.7816 24.3759 17.4378 25.7822 17.9066Z" fill="#438BAA"/>
<path d="M24.8442 18.75C25.8755 19.125 26.9067 20.0625 27.2817 21.375C27.6567 22.7812 27.188 24.375 26.1567 25.125C25.5005 25.5937 24.7505 25.7812 24.0005 25.7812C22.2192 25.7812 20.3442 25.125 18.563 24.4688C18.0005 24.2812 17.3442 24 16.7817 23.625C16.2192 23.25 15.8442 22.5937 15.7505 21.8437C15.6567 20.8125 16.2192 19.7812 16.9692 19.2187C18.2817 18.2812 19.688 17.9062 21.0942 17.9062C22.2192 17.9062 23.7192 18.375 24.8442 18.75Z" fill="#7BB9DB"/>
<path d="M15.9375 18.2812C15.9375 18.2812 17.0625 21.1875 18.4688 21.4687C19.875 21.75 22.3125 22.2188 25.4062 19.2188L15.9375 18.2812Z" fill="#29677C"/>
<path d="M28.5203 13.4058C28.5347 9.41902 25.3145 6.17537 21.3277 6.16092C17.3409 6.14648 14.0972 9.36671 14.0828 13.3535C14.0684 17.3403 17.2886 20.584 21.2754 20.5984C25.2622 20.6129 28.5059 17.3926 28.5203 13.4058Z" fill="#A67A65"/>
<path d="M28.1895 12.8804C28.2036 8.9971 25.109 5.83785 21.2775 5.82397C17.446 5.81008 14.3286 8.94683 14.3145 12.8301C14.3005 16.7133 17.3951 19.8726 21.2266 19.8865C25.058 19.9003 28.1755 16.7636 28.1895 12.8804Z" fill="#E5A98C"/>
<path d="M28.1104 12.6895C28.1239 8.96154 25.2387 5.92896 21.6661 5.91602C18.0935 5.90307 15.1864 8.91466 15.1729 12.6426C15.1594 16.3705 18.0446 19.4031 21.6172 19.416C25.1898 19.429 28.0969 16.4174 28.1104 12.6895Z" fill="#E8CCAA"/>
<path d="M24.5509 13.5932C24.5606 10.9009 22.4279 8.71049 19.7873 8.70092C17.1467 8.69135 14.9981 10.8662 14.9884 13.5586C14.9786 16.251 17.1113 18.4414 19.752 18.4509C22.3926 18.4605 24.5411 16.2856 24.5509 13.5932Z" fill="#FAEACF"/>
<path d="M16.5261 12.6322C16.5264 12.5287 16.4428 12.4444 16.3392 12.444C16.2357 12.4437 16.1514 12.5273 16.1511 12.6309C16.1507 12.7344 16.2343 12.8187 16.3379 12.819C16.4414 12.8194 16.5257 12.7358 16.5261 12.6322Z" fill="white"/>
<path d="M9.09375 19.5V22.2188L6.09375 19.4062L9 19.5H9.09375Z" fill="#75D1A3"/>
<path d="M3.9375 10.5938H12.0938V12H3.9375V10.5938Z" fill="#59AA7F"/>
<path d="M8.90625 4.3125H17.3438V5.71875H8.90625V4.3125Z" fill="#75D1A3"/>
<path d="M3.9375 13.4062H12.0938V14.8125H3.9375V13.4062Z" fill="#59AA7F"/>
<path d="M3.9375 16.3125H12.0938V17.7188H3.9375V16.3125Z" fill="#59AA7F"/>
</g>
<defs>
<clipPath id="clip0_52_77146">
<rect width="30" height="30" fill="white"/>
</clipPath>
</defs>
</svg>
