<svg width="12" height="12" viewBox="0 0 12 12" fill="none" xmlns="http://www.w3.org/2000/svg">
<mask id="mask0_0_605" style="mask-type:luminance" maskUnits="userSpaceOnUse" x="-2" y="-2" width="16" height="16">
<rect x="-1.89474" y="-1.26316" width="15.1579" height="15.1579" fill="white"/>
</mask>
<g mask="url(#mask0_0_605)">
<path fill-rule="evenodd" clip-rule="evenodd" d="M5.68421 0C3.94295 0 2.52632 1.41663 2.52632 3.15789C2.52632 4.89916 3.94295 6.31579 5.68421 6.31579C7.42547 6.31579 8.84211 4.89916 8.84211 3.15789C8.84211 1.41663 7.42547 0 5.68421 0ZM5.68421 5.05263C4.63958 5.05263 3.78947 4.20253 3.78947 3.15789C3.78947 2.11326 4.63958 1.26316 5.68421 1.26316C6.72884 1.26316 7.57895 2.11326 7.57895 3.15789C7.57895 4.20253 6.72884 5.05263 5.68421 5.05263ZM11.3684 12V11.3684C11.3684 8.93116 9.38463 6.94737 6.94737 6.94737H4.42105C1.98316 6.94737 0 8.93116 0 11.3684V12H1.26316V11.3684C1.26316 9.62716 2.67979 8.21053 4.42105 8.21053H6.94737C8.68863 8.21053 10.1053 9.62716 10.1053 11.3684V12H11.3684Z" fill="#8F9198"/>
</g>
</svg>
