<svg width="24" height="24" viewBox="0 0 24 24" fill="none" xmlns="http://www.w3.org/2000/svg">
<mask id="mask0_0_788" style="mask-type:luminance" maskUnits="userSpaceOnUse" x="2" y="14" width="16" height="7">
<path fill-rule="evenodd" clip-rule="evenodd" d="M2 14.2939H17.1998V20.9999H2V14.2939Z" fill="white"/>
</mask>
<g mask="url(#mask0_0_788)">
<path fill-rule="evenodd" clip-rule="evenodd" d="M9.59987 15.7108C6.81795 15.7108 3.50146 16.048 3.50146 17.6584C3.50146 18.9355 5.55362 19.5834 9.59987 19.5834C13.6461 19.5834 15.6983 18.9289 15.6983 17.6396C15.6983 16.3597 13.6461 15.7108 9.59987 15.7108ZM9.59998 21.0003C7.5218 21.0003 2 21.0003 2 17.6584C2 14.2939 7.72001 14.2939 9.59998 14.2939C12.8624 14.2939 17.2 14.6406 17.2 17.6396C17.2 21.0003 11.48 21.0003 9.59998 21.0003Z" fill="#B9B8BB"/>
</g>
<path fill-rule="evenodd" clip-rule="evenodd" d="M9.60027 4.41683C7.59316 4.41683 5.96045 5.9574 5.96045 7.85029C5.96045 9.74318 7.59316 11.2837 9.60027 11.2837H9.6313C10.5963 11.28 11.5053 10.922 12.187 10.2731C12.8697 9.62605 13.2431 8.76556 13.2391 7.85312C13.2391 5.9574 11.6064 4.41683 9.60027 4.41683ZM9.60038 12.7006C6.76541 12.7006 4.45898 10.5243 4.45898 7.85029C4.45898 5.17625 6.76541 3 9.60038 3C12.4344 3 14.7408 5.17625 14.7408 7.85029C14.7468 9.13866 14.2172 10.3552 13.2522 11.2715C12.2892 12.1886 11.0029 12.6959 9.63442 12.7006H9.60038Z" fill="#B9B8BB"/>
<path fill-rule="evenodd" clip-rule="evenodd" d="M16.4981 11.6257C16.1297 11.6257 15.8084 11.3697 15.7553 11.0155C15.6983 10.6283 15.9836 10.2693 16.394 10.2155C17.6433 10.0502 18.5863 9.02724 18.5883 7.83521C18.5883 6.65074 17.6893 5.6514 16.453 5.4606C16.0436 5.39637 15.7663 5.03272 15.8334 4.64639C15.9005 4.26007 16.2879 4.00032 16.6953 4.06172C18.6624 4.36586 20.0899 5.95366 20.0899 7.83616C20.0859 9.72999 18.5873 11.3565 16.6032 11.6191C16.5682 11.6238 16.5331 11.6257 16.4981 11.6257Z" fill="#B9B8BB"/>
<mask id="mask1_0_788" style="mask-type:luminance" maskUnits="userSpaceOnUse" x="17" y="13" width="5" height="6">
<path fill-rule="evenodd" clip-rule="evenodd" d="M17.8613 13.8467H21.9994V18.5482H17.8613V13.8467Z" fill="white"/>
</mask>
<g mask="url(#mask1_0_788)">
<path fill-rule="evenodd" clip-rule="evenodd" d="M19.9138 18.5482C19.6104 18.5482 19.3251 18.3735 19.212 18.0911C19.0649 17.7255 19.2601 17.3156 19.6475 17.1777C20.4984 16.8735 20.4984 16.5023 20.4984 16.3436C20.4984 15.8081 19.8267 15.4416 18.5023 15.2555C18.0918 15.1969 17.8085 14.8361 17.8696 14.4498C17.9317 14.0625 18.3211 13.8028 18.7235 13.8528C21.4323 14.2354 21.9999 15.4189 21.9999 16.3436C21.9999 17.0322 21.6846 17.9645 20.18 18.5019C20.0929 18.5331 20.0028 18.5482 19.9138 18.5482Z" fill="#B9B8BB"/>
</g>
</svg>
