<svg width="18" height="18" viewBox="0 0 18 18" fill="none" xmlns="http://www.w3.org/2000/svg">
<path d="M12.9373 8.99923C12.9353 9.14832 12.8776 9.29127 12.7756 9.40001L7.15058 15.025C7.04129 15.1147 6.90254 15.1605 6.76132 15.1536C6.6201 15.1467 6.48651 15.0875 6.38654 14.9875C6.28656 14.8875 6.22735 14.7539 6.22041 14.6127C6.21348 14.4715 6.25932 14.3327 6.34901 14.2234L11.5803 8.99923L6.34901 3.77501C6.25932 3.66572 6.21348 3.52697 6.22041 3.38575C6.22735 3.24454 6.28656 3.11095 6.38654 3.01097C6.48651 2.911 6.6201 2.85178 6.76132 2.84484C6.90254 2.83791 7.04129 2.88375 7.15058 2.97345L12.7756 8.59845C12.8776 8.70719 12.9353 8.85014 12.9373 8.99923Z" fill="#E2E5E9"/>
</svg>
