<svg width="26" height="18" viewBox="0 0 26 18" fill="none" xmlns="http://www.w3.org/2000/svg">
<path d="M25.0785 2.85938C24.7973 1.73438 23.9066 0.84375 22.8285 0.5625C20.8129 0 12.8441 0 12.8441 0C12.8441 0 4.82852 0 2.81289 0.5625C1.73477 0.84375 0.844141 1.73438 0.562891 2.85938C0.000391006 4.82812 0.000391006 9.04688 0.000391006 9.04688C0.000391006 9.04688 0.000391006 13.2188 0.562891 15.2344C0.844141 16.3594 1.73477 17.2031 2.81289 17.4844C4.82852 18 12.8441 18 12.8441 18C12.8441 18 20.8129 18 22.8285 17.4844C23.9066 17.2031 24.7973 16.3594 25.0785 15.2344C25.641 13.2188 25.641 9.04688 25.641 9.04688C25.641 9.04688 25.641 4.82812 25.0785 2.85938ZM10.2191 12.8438V5.25L16.8754 9.04688L10.2191 12.8438Z" fill="#FF0000"/>
</svg>
