<svg width="16" height="16" viewBox="0 0 16 16" fill="none" xmlns="http://www.w3.org/2000/svg">
<path fill-rule="evenodd" clip-rule="evenodd" d="M7.18286 12.2293C7.29274 12.3387 7.4232 12.4252 7.5667 12.4839C7.71021 12.5426 7.86392 12.5722 8.01895 12.5712C8.17399 12.5701 8.32728 12.5383 8.46997 12.4777C8.61266 12.4171 8.74192 12.3287 8.85029 12.2179L15.6354 5.4533C15.7502 5.34475 15.8417 5.21401 15.9043 5.06902C15.967 4.92403 15.9995 4.76782 16 4.60987C15.999 4.37958 15.9303 4.15467 15.8025 3.9631C15.6747 3.77153 15.4934 3.62175 15.2811 3.53237C15.0689 3.443 14.8351 3.41797 14.6087 3.46039C14.3824 3.50282 14.1735 3.61084 14.008 3.77101L14.0046 3.76644L8.032 9.69787L2.016 3.77216L2.01143 3.77673C1.84777 3.61075 1.63844 3.49721 1.41007 3.45055C1.1817 3.40388 0.94461 3.4262 0.72896 3.51466C0.51331 3.60313 0.328848 3.75374 0.199041 3.94734C0.0692342 4.14094 -5.08611e-05 4.36878 2.8013e-08 4.60187C2.8013e-08 4.94244 0.148571 5.24301 0.380571 5.45673L7.18057 12.2339L7.18286 12.2293Z" fill="white"/>
</svg>
