<svg width="32" height="32" viewBox="0 0 32 32" fill="none" xmlns="http://www.w3.org/2000/svg">
<path d="M20.6667 4.66663H11.2534C10.9136 4.66597 10.5865 4.79505 10.3386 5.02748C10.0908 5.25992 9.94113 5.57819 9.92006 5.9173L8.6694 25.9173C8.65791 26.0993 8.68388 26.2818 8.74573 26.4533C8.80757 26.6249 8.90396 26.782 9.02893 26.9149C9.15391 27.0477 9.30481 27.1535 9.47231 27.2257C9.63981 27.2979 9.82034 27.335 10.0027 27.3346H12.7294C13.045 27.3345 13.3503 27.2224 13.5911 27.0183C13.8318 26.8142 13.9923 26.5313 14.0441 26.2199L15.9601 14.7226L17.8761 26.2199C17.9281 26.531 18.0887 26.8136 18.3294 27.0174C18.5701 27.2213 18.8753 27.3332 19.1907 27.3333H21.9173C22.0996 27.3336 22.28 27.2966 22.4474 27.2245C22.6148 27.1524 22.7657 27.0467 22.8906 26.914C23.0156 26.7813 23.112 26.6244 23.1739 26.4529C23.2359 26.2815 23.262 26.0992 23.2507 25.9173L22 5.9173C21.9789 5.57819 21.8292 5.25992 21.5814 5.02748C21.3336 4.79505 21.0064 4.66597 20.6667 4.66663ZM20.6667 5.99997L20.8133 8.34797C20.3598 8.14579 19.9748 7.8163 19.705 7.39949C19.4352 6.98268 19.2922 6.49649 19.2933 5.99997H20.6667ZM12.6267 5.99997C12.6278 6.49645 12.4847 6.98257 12.2149 7.39935C11.9451 7.81613 11.5601 8.14566 11.1067 8.34797L11.2534 5.99997H12.6267ZM19.1907 25.9999L16.6174 10.5573C16.5911 10.402 16.5107 10.261 16.3904 10.1593C16.27 10.0576 16.1176 10.0018 15.9601 10.0018C15.8025 10.0018 15.6501 10.0576 15.5297 10.1593C15.4094 10.261 15.329 10.402 15.3027 10.5573L12.7294 25.9999H10.0027L11.0107 9.88663C11.838 9.61355 12.5629 9.09576 13.0895 8.40175C13.6162 7.70775 13.9197 6.87023 13.9601 5.99997H15.2934V7.99997C15.2934 8.17678 15.3636 8.34635 15.4887 8.47137C15.6137 8.59639 15.7832 8.66663 15.9601 8.66663C16.1369 8.66663 16.3064 8.59639 16.4315 8.47137C16.5565 8.34635 16.6267 8.17678 16.6267 7.99997V5.99997H17.9601C18.0004 6.87023 18.3039 7.70775 18.8305 8.40175C19.3572 9.09576 20.0821 9.61355 20.9093 9.88663L21.9173 25.9999H19.1907Z" fill="#9F9F9F"/>
</svg>
