<svg width="22" height="22" viewBox="0 0 22 22" fill="none" xmlns="http://www.w3.org/2000/svg">
<path d="M21.7788 3.18895L18.7632 0.173284C18.6167 0.053062 18.4307 -0.00837618 18.2414 0.000919661C18.0522 0.0102155 17.8731 0.0895807 17.7391 0.223578C17.6051 0.357575 17.5258 0.536623 17.5165 0.725895C17.5072 0.915167 17.5686 1.10113 17.6888 1.24761L17.8302 1.37955L12.6376 5.28106L9.02822 6.0067C8.88367 6.03585 8.74996 6.10433 8.64184 6.20461L0.669184 14.1867C0.457195 14.3962 0.288888 14.6456 0.174019 14.9207C0.0591489 15.1957 0 15.4907 0 15.7888C0 16.0868 0.0591489 16.3819 0.174019 16.6569C0.288888 16.9319 0.457195 17.1813 0.669184 17.3908L4.56127 21.2829C4.77076 21.4949 5.02023 21.6632 5.29524 21.7781C5.57024 21.893 5.86531 21.9521 6.16334 21.9521C6.46138 21.9521 6.75644 21.893 7.03145 21.7781C7.30646 21.6632 7.55593 21.4949 7.76541 21.2829L15.7475 13.3103C15.8478 13.2021 15.9163 13.0684 15.9454 12.9239L16.671 9.31451L20.5726 4.12192L20.7045 4.26328C20.8486 4.40261 21.0412 4.48051 21.2417 4.48051C21.4421 4.48051 21.6347 4.40261 21.7788 4.26328C21.9204 4.12034 21.9998 3.92729 21.9998 3.72611C21.9998 3.52493 21.9204 3.33188 21.7788 3.18895ZM8.42509 18.4934L3.45867 13.527L7.67117 9.31451L12.6376 14.2809L8.42509 18.4934ZM5.62618 20.218L1.73409 16.3259C1.66286 16.2558 1.60629 16.1722 1.56767 16.0799C1.52906 15.9877 1.50918 15.8887 1.50918 15.7888C1.50918 15.6888 1.52906 15.5898 1.56767 15.4976C1.60629 15.4054 1.66286 15.3217 1.73409 15.2516L2.39377 14.5919L7.36018 19.5583L6.70051 20.218C6.55757 20.3596 6.36452 20.439 6.16334 20.439C5.96216 20.439 5.76912 20.3596 5.62618 20.218ZM15.3611 8.55117C15.2962 8.64119 15.2513 8.74399 15.2292 8.85274L14.513 12.4056L13.7025 13.216L8.73608 8.2496L9.54654 7.43914L13.0994 6.72292C13.2081 6.70083 13.3109 6.65586 13.4009 6.59099L18.9045 2.4633L19.4888 3.04759L15.3611 8.55117Z" fill="#3E4B65"/>
</svg>
