<svg width="60" height="60" viewBox="0 0 60 60" fill="none" xmlns="http://www.w3.org/2000/svg">
<path d="M25 42.5C34.665 42.5 42.5 34.665 42.5 25C42.5 15.335 34.665 7.5 25 7.5C15.335 7.5 7.5 15.335 7.5 25C7.5 34.665 15.335 42.5 25 42.5Z" stroke="#005759" stroke-width="5" stroke-linecap="round" stroke-linejoin="round"/>
<path d="M52.5 52.5L37.5 37.5" stroke="#005759" stroke-width="5" stroke-linecap="round" stroke-linejoin="round"/>
<path d="M30 17.5H23.75C21.6789 17.5 20 19.1789 20 21.25C20 23.3211 21.6789 25 23.75 25H26.25C28.321 25 30 26.679 30 28.75C30 30.821 28.321 32.5 26.25 32.5H20" stroke="#005759" stroke-width="5" stroke-linecap="round" stroke-linejoin="round"/>
<path d="M27.5 32.5C27.5 31.1192 26.3807 30 25 30C23.6193 30 22.5 31.1192 22.5 32.5H27.5ZM22.5 35C22.5 36.3808 23.6193 37.5 25 37.5C26.3807 37.5 27.5 36.3808 27.5 35H22.5ZM27.5 15C27.5 13.6193 26.3807 12.5 25 12.5C23.6193 12.5 22.5 13.6193 22.5 15H27.5ZM22.5 17.5C22.5 18.8807 23.6193 20 25 20C26.3807 20 27.5 18.8807 27.5 17.5H22.5ZM22.5 32.5V35H27.5V32.5H22.5ZM22.5 15V17.5H27.5V15H22.5Z" fill="#005759"/>
</svg>
