<svg width="30" height="30" viewBox="0 0 30 30" fill="none" xmlns="http://www.w3.org/2000/svg">
<g clip-path="url(#clip0_52_47265)">
<path d="M24.5625 4.21875C24.5625 4.21875 27.75 18.5625 24.6562 20.8125C21.5625 23.0625 18.75 24.75 18.75 24.75L15.4687 23.0625L15.0938 17.25L24.5625 4.21875Z" fill="#422F28"/>
<path d="M20.9062 8.53125C23.3915 8.53125 25.4062 6.60048 25.4062 4.21875C25.4062 1.83702 23.3915 -0.09375 20.9062 -0.09375C18.421 -0.09375 16.4062 1.83702 16.4062 4.21875C16.4062 6.60048 18.421 8.53125 20.9062 8.53125Z" fill="#422F28"/>
<path d="M19.3125 10.0312C21.7978 10.0312 23.8125 8.10048 23.8125 5.71875C23.8125 3.33702 21.7978 1.40625 19.3125 1.40625C16.8272 1.40625 14.8125 3.33702 14.8125 5.71875C14.8125 8.10048 16.8272 10.0312 19.3125 10.0312Z" fill="#893E27"/>
<path d="M20.4371 18.5625C22.3121 19.2188 23.9996 20.7188 24.5621 22.875C25.1246 25.125 24.3746 27.75 22.5934 29.0625C21.4684 29.9063 20.1559 30.0937 18.7496 30.0937C15.5621 30.0937 12.4684 29.0625 9.28087 27.9375C8.24962 27.5625 7.12462 27.1875 6.28087 26.5312C5.34337 25.875 4.59337 24.8438 4.40587 23.5313C4.21837 21.8438 5.24962 20.0625 6.56212 19.2188C8.90587 17.7188 11.2496 17.1562 13.6871 17.1562C15.8434 17.1562 18.3746 17.9062 20.4371 18.5625Z" fill="#A53829"/>
<path d="M20.6246 17.3438C22.4996 18 24.1871 19.5 24.7496 21.6563C25.3121 23.9063 24.5621 26.5313 22.7809 27.8438C21.6559 28.6875 20.3434 28.875 18.9371 28.875C15.7496 28.875 12.6559 27.8438 9.46837 26.7188C8.53087 26.4375 7.49962 26.0625 6.56212 25.3125C5.62462 24.6562 4.87462 23.625 4.68712 22.3125C4.49962 20.625 5.53087 18.8438 6.84337 18C9.18712 16.5 11.5309 15.9375 13.9684 15.9375C16.1246 16.0312 18.6559 16.6875 20.6246 17.3438Z" fill="#D3624F"/>
<path d="M20.2505 16.0312C22.0317 16.6875 23.6255 18.1875 24.188 20.3438C24.7505 22.5938 24.0005 25.2187 22.4067 26.5312C21.3755 27.375 20.063 27.5625 18.8442 27.5625C15.8442 27.5625 12.938 26.5312 9.93795 25.4062C8.9067 25.0312 7.9692 24.6562 7.0317 24C6.18795 23.3438 5.43795 22.3125 5.25045 21C5.06295 19.3125 6.00045 17.5312 7.31295 16.6875C9.4692 15.1875 11.7192 14.625 14.063 14.625C16.0317 14.625 18.3755 15.375 20.2505 16.0312Z" fill="#E5A98C"/>
<path d="M21.6114 23.623C22.2343 21.7023 21.6613 19.7956 20.3316 19.3643C19.0018 18.933 17.4189 20.1405 16.7959 22.0612C16.173 23.982 16.7459 25.8887 18.0757 26.32C19.4054 26.7512 20.9884 25.5438 21.6114 23.623Z" fill="#F7BFA9"/>
<path d="M23.7872 10.2717C23.8056 5.19754 19.7071 1.06926 14.633 1.05087C9.55887 1.03248 5.43058 5.13096 5.4122 10.2051C5.39381 15.2792 9.49229 19.4075 14.5664 19.4259C19.6405 19.4443 23.7688 15.3458 23.7872 10.2717Z" fill="#A67A65"/>
<path d="M23.3858 9.57236C23.4036 4.65357 19.4306 0.651657 14.5118 0.633834C9.59302 0.616011 5.59111 4.58903 5.57329 9.50781C5.55546 14.4266 9.52848 18.4285 14.4473 18.4463C19.3661 18.4642 23.368 14.4911 23.3858 9.57236Z" fill="#E5A98C"/>
<path d="M23.277 9.33976C23.2941 4.62809 19.5723 0.794978 14.9642 0.77828C10.356 0.761583 6.60658 4.56762 6.58951 9.2793C6.57243 13.991 10.2942 17.8241 14.9023 17.8408C19.5105 17.8575 23.2599 14.0514 23.277 9.33976Z" fill="#E5A98C"/>
<path d="M18.7806 10.4699C18.7931 7.0009 16.0751 4.17881 12.7096 4.16661C9.3441 4.15442 6.60564 6.95674 6.59307 10.4258C6.5805 13.8948 9.29858 16.7169 12.6641 16.7291C16.0295 16.7413 18.768 13.939 18.7806 10.4699Z" fill="#F7BFA9"/>
<path d="M15.5464 11.1135C15.5482 10.5958 15.172 10.1747 14.706 10.173C14.24 10.1713 13.8607 10.5897 13.8589 11.1074C13.857 11.6252 14.2332 12.0463 14.6992 12.048C15.1652 12.0497 15.5445 11.6313 15.5464 11.1135Z" fill="#425763"/>
<path d="M14.9864 10.8021C14.9869 10.6468 14.9034 10.5206 14.7999 10.5202C14.6963 10.5198 14.6119 10.6455 14.6114 10.8008C14.6108 10.9561 14.6943 11.0823 14.7979 11.0827C14.9014 11.0831 14.9858 10.9575 14.9864 10.8021Z" fill="white"/>
<path d="M8.91355 9.6526C8.91543 9.13483 8.53919 8.71373 8.0732 8.71204C7.60721 8.71035 7.22793 9.12872 7.22605 9.64648C7.22418 10.1643 7.60042 10.5854 8.06641 10.587C8.5324 10.5887 8.91168 10.1704 8.91355 9.6526Z" fill="#425763"/>
<path d="M8.44731 9.3412C8.44787 9.18587 8.36438 9.05965 8.26083 9.05927C8.15727 9.0589 8.07287 9.18451 8.07231 9.33984C8.07175 9.49517 8.15524 9.6214 8.25879 9.62177C8.36234 9.62215 8.44674 9.49653 8.44731 9.3412Z" fill="white"/>
<path d="M12.8437 15.2812C12.8437 15.2812 12 15.1875 11.4375 14.7187C10.875 14.25 10.3125 14.3438 10.125 14.3438C10.0312 14.3438 9.84375 14.1562 9.65625 14.0625C9.46875 13.9688 9.1875 13.9688 9.1875 14.0625C9.1875 14.1562 9.46875 14.625 9.46875 14.625C9.46875 14.625 9.5625 15 9.46875 15.1875C9.375 15.375 9.46875 16.0313 10.125 16.125C10.7812 16.2188 11.25 16.2188 11.5312 16.0313C11.7187 15.9375 12.8437 15.2812 12.8437 15.2812Z" fill="#A67A65"/>
<path d="M9 3.84284C9 3.84284 9.1875 6.56159 12.75 6.84284C16.4062 7.12409 22.7812 8.71784 23.4375 10.7803C23.4375 10.7803 24.9375 5.90534 20.5312 2.62409C16.125 -0.657161 9.5625 -0.469661 9 3.84284Z" fill="#422F28"/>
<path d="M10.875 3.375L10.2187 2.71875C10.2187 2.71875 8.53124 1.3125 7.12499 1.875C5.71874 2.4375 4.40624 7.21875 10.125 6.5625L11.4375 6.46875C11.4375 6.46875 11.4375 3.75 10.875 3.375ZM19.2187 13.5938C19.2187 13.5938 19.875 12.4688 21.375 12.4688C22.875 12.4688 24.0937 11.25 23.5312 8.53125C22.9687 5.8125 19.7812 5.53125 19.7812 5.53125L20.25 9.1875L19.2187 13.5938Z" fill="#422F28"/>
<path d="M20.625 13.7813C21.4017 13.7813 22.0312 12.9838 22.0312 12C22.0312 11.0162 21.4017 10.2188 20.625 10.2188C19.8483 10.2188 19.2188 11.0162 19.2188 12C19.2188 12.9838 19.8483 13.7813 20.625 13.7813Z" fill="#E5A98C"/>
<path d="M18.5622 7.87501C18.5622 7.87501 19.7809 9.00001 18.7497 11.5313C17.7184 13.9688 19.2184 17.5313 19.2184 17.5313C19.2184 17.5313 18.9372 14.625 19.4997 13.875C20.0622 13.125 22.2184 9.37501 21.0934 7.50001C19.9684 5.62501 18.5622 7.87501 18.5622 7.87501Z" fill="#422F28"/>
<path d="M19.875 14.3428L20.0625 13.8741C20.0625 13.8741 21.75 13.4053 22.0312 12.5616C21.9375 12.4678 22.0312 14.6241 19.875 14.3428Z" fill="#A67A65"/>
<path d="M4.96875 21.6554C4.96875 21.6554 6.09375 20.4367 7.5 20.7179C8.90625 20.9992 9.65625 22.5929 10.6875 23.9054C11.7187 25.2179 13.5 23.7179 13.875 23.5304C14.25 23.3429 15.6562 22.5929 17.8125 23.5304C19.875 24.4679 21 28.1242 21 28.1242C21 28.1242 14.7188 28.0304 10.9687 26.9054C7.21875 25.7804 5.34375 23.1554 4.96875 21.6554Z" fill="#D3624F"/>
<path d="M8.43791 23.4366C8.62541 23.7178 8.71916 23.9053 8.81291 24.1866C8.90666 24.4678 8.81291 24.7491 8.53166 24.9366C8.15666 25.2178 7.68791 25.0303 7.31291 24.8428C6.65666 24.5616 5.15666 23.4366 5.81291 22.4991C6.56291 21.4678 7.96916 22.7803 8.43791 23.4366ZM16.7817 25.9678C16.9692 26.2491 17.0629 26.4366 17.1567 26.7178C17.2504 26.9991 17.1567 27.2803 16.8754 27.4678C16.5004 27.7491 16.0317 27.5616 15.6567 27.3741C14.9067 26.9991 13.5004 25.8741 14.1567 24.9366C15.0004 23.9991 16.3129 25.3116 16.7817 25.9678Z" fill="#E27364"/>
<path d="M9.09375 21.6562C9.09375 21.6562 10.6875 23.5312 11.625 23.5312C12.5625 23.5312 14.3438 22.125 16.125 22.3125C17.9063 22.5 20.8125 24.0938 21.75 26.8125L20.625 27.4687C20.625 27.4687 18.8438 23.9062 16.125 23.5312C16.125 23.5312 15 23.5313 13.5 24.0938C12 24.6563 10.9688 25.5 9.09375 21.6562Z" fill="#A53829"/>
<path d="M21.9375 7.31237C21.75 6.09362 20.7188 5.24987 19.875 4.49987C19.3125 4.03112 18.6563 3.56237 18 3.18737C16.9688 2.62487 15.75 2.43737 14.625 2.24987C13.9688 2.15612 13.3125 2.06237 12.75 2.43737C12.4688 2.62487 12.2813 2.99987 12 3.28112C11.625 3.65612 11.1563 3.74987 10.5938 3.84362C10.125 3.84362 9.5625 3.74987 9.09375 3.65612C9 3.84362 9.09375 4.21862 9.375 4.31237C9.5625 4.40612 9.84375 4.40612 10.125 4.40612C11.7188 4.31237 13.3125 4.31237 14.9062 4.59362C17.1562 5.06237 19.3125 6.18737 21.2813 7.31237" fill="#513C36"/>
</g>
<defs>
<clipPath id="clip0_52_47265">
<rect width="30" height="30" fill="white"/>
</clipPath>
</defs>
</svg>
