<svg width="914" height="56" viewBox="0 0 914 56" fill="none" xmlns="http://www.w3.org/2000/svg">
<g opacity="0.25">
<rect x="5" y="48" width="7" height="8" fill="#37CBB0"/>
<rect x="18" y="27" width="7" height="29" fill="#D82C60"/>
<rect x="31" y="39" width="7" height="17" fill="#37CBB0"/>
<rect x="44" y="27" width="7" height="29" fill="#D82C60"/>
<rect x="57" y="39" width="7" height="17" fill="#37CBB0"/>
<rect x="70" y="40" width="7" height="16" fill="#D82C60"/>
<rect x="83" y="45" width="7" height="11" fill="#37CBB0"/>
<rect x="96" y="48" width="7" height="8" fill="#37CBB0"/>
<rect x="109" y="40" width="7" height="16" fill="#D82C60"/>
<rect x="122" y="39" width="7" height="17" fill="#37CBB0"/>
<rect x="135" y="27" width="7" height="29" fill="#D82C60"/>
<rect x="148" y="35" width="7" height="21" fill="#D82C60"/>
<rect x="161" y="46" width="7" height="10" fill="#37CBB0"/>
<rect x="174" y="39" width="7" height="17" fill="#37CBB0"/>
<rect x="187" y="27" width="7" height="29" fill="#D82C60"/>
<rect x="200" y="35" width="7" height="21" fill="#D82C60"/>
<rect x="213" y="42" width="7" height="14" fill="#D82C60"/>
<rect x="226" y="28" width="7" height="28" fill="#37CBB0"/>
<rect x="239" y="48" width="7" height="8" fill="#37CBB0"/>
<rect x="252" y="39" width="7" height="17" fill="#37CBB0"/>
<rect x="265" y="46" width="7" height="10" fill="#D82C60"/>
<rect x="278" y="36" width="7" height="20" fill="#37CBB0"/>
<rect x="291" y="32" width="7" height="24" fill="#37CBB0"/>
<rect x="304" y="27" width="7" height="29" fill="#D82C60"/>
<rect x="317" y="20" width="7" height="36" fill="#37CBB0"/>
<rect x="330" y="17" width="7" height="39" fill="#37CBB0"/>
<rect x="343" y="47" width="7" height="9" fill="#D82C60"/>
<rect x="356" y="36" width="7" height="20" fill="#D82C60"/>
<rect x="369" y="17" width="7" height="39" fill="#37CBB0"/>
<rect x="382" y="27" width="7" height="29" fill="#D82C60"/>
<rect x="395" width="7" height="56" fill="#37CBB0"/>
<rect x="408" y="42" width="7" height="14" fill="#D82C60"/>
<rect x="421" y="39" width="7" height="17" fill="#37CBB0"/>
<rect x="434" y="36" width="7" height="20" fill="#37CBB0"/>
<rect width="7" height="8" transform="matrix(1 0 0 -1 447 56)" fill="#37CBB0"/>
<rect width="7" height="29" transform="matrix(1 0 0 -1 460 56)" fill="#D82C60"/>
<rect width="7" height="17" transform="matrix(1 0 0 -1 473 56)" fill="#37CBB0"/>
<rect width="7" height="29" transform="matrix(1 0 0 -1 486 56)" fill="#D82C60"/>
<rect width="7" height="17" transform="matrix(1 0 0 -1 499 56)" fill="#37CBB0"/>
<rect width="7" height="16" transform="matrix(1 0 0 -1 512 56)" fill="#D82C60"/>
<rect width="7" height="11" transform="matrix(1 0 0 -1 525 56)" fill="#37CBB0"/>
<rect width="7" height="8" transform="matrix(1 0 0 -1 538 56)" fill="#37CBB0"/>
<rect width="7" height="16" transform="matrix(1 0 0 -1 551 56)" fill="#D82C60"/>
<rect width="7" height="17" transform="matrix(1 0 0 -1 564 56)" fill="#37CBB0"/>
<rect width="7" height="29" transform="matrix(1 0 0 -1 577 56)" fill="#D82C60"/>
<rect width="7" height="21" transform="matrix(1 0 0 -1 590 56)" fill="#D82C60"/>
<rect width="7" height="10" transform="matrix(1 0 0 -1 603 56)" fill="#37CBB0"/>
<rect width="7" height="17" transform="matrix(1 0 0 -1 616 56)" fill="#37CBB0"/>
<rect width="7" height="29" transform="matrix(1 0 0 -1 629 56)" fill="#D82C60"/>
<rect width="7" height="21" transform="matrix(1 0 0 -1 642 56)" fill="#D82C60"/>
<rect width="7" height="21" transform="matrix(1 0 0 -1 655 56)" fill="#D82C60"/>
<rect width="7" height="14" transform="matrix(1 0 0 -1 668 56)" fill="#D82C60"/>
<rect width="7" height="28" transform="matrix(1 0 0 -1 681 56)" fill="#37CBB0"/>
<rect width="7" height="8" transform="matrix(1 0 0 -1 694 56)" fill="#37CBB0"/>
<rect width="7" height="17" transform="matrix(1 0 0 -1 707 56)" fill="#37CBB0"/>
<rect width="7" height="10" transform="matrix(1 0 0 -1 720 56)" fill="#D82C60"/>
<rect width="7" height="20" transform="matrix(1 0 0 -1 733 56)" fill="#37CBB0"/>
<rect width="7" height="24" transform="matrix(1 0 0 -1 746 56)" fill="#37CBB0"/>
<rect width="7" height="29" transform="matrix(1 0 0 -1 759 56)" fill="#D82C60"/>
<rect width="7" height="29" transform="matrix(1 0 0 -1 772 56)" fill="#D82C60"/>
<rect width="7" height="36" transform="matrix(1 0 0 -1 785 56)" fill="#37CBB0"/>
<rect width="7" height="39" transform="matrix(1 0 0 -1 798 56)" fill="#37CBB0"/>
<rect width="7" height="9" transform="matrix(1 0 0 -1 811 56)" fill="#D82C60"/>
<rect width="7" height="20" transform="matrix(1 0 0 -1 824 56)" fill="#D82C60"/>
<rect width="7" height="39" transform="matrix(1 0 0 -1 837 56)" fill="#37CBB0"/>
<rect width="7" height="29" transform="matrix(1 0 0 -1 850 56)" fill="#D82C60"/>
<rect width="7" height="56" transform="matrix(1 0 0 -1 863 56)" fill="#37CBB0"/>
<rect width="7" height="14" transform="matrix(1 0 0 -1 876 56)" fill="#D82C60"/>
<rect width="7" height="17" transform="matrix(1 0 0 -1 889 56)" fill="#37CBB0"/>
<rect width="7" height="20" transform="matrix(1 0 0 -1 902 56)" fill="#37CBB0"/>
</g>
</svg>
