<svg width="21" height="14" viewBox="0 0 21 14" fill="none" xmlns="http://www.w3.org/2000/svg">
<path d="M20.733 2.05225C21.0877 1.58277 21.0877 0.821589 20.733 0.35211C20.3783 -0.11737 19.8033 -0.11737 19.4486 0.35211L20.733 2.05225ZM1.5505 0.35211C1.1958 -0.11737 0.620723 -0.11737 0.266024 0.35211C-0.0886747 0.821589 -0.0886747 1.58277 0.266024 2.05225L1.5505 0.35211ZM19.4486 0.35211L11.5527 10.803L12.8372 12.5032L20.733 2.05225L19.4486 0.35211ZM11.5527 10.803C10.9749 11.5678 10.0241 11.5678 9.44635 10.803L8.16187 12.5032C9.44905 14.2069 11.55 14.2069 12.8372 12.5032L11.5527 10.803ZM9.44635 10.803L1.5505 0.35211L0.266024 2.05225L8.16187 12.5032L9.44635 10.803Z" fill="#101010"/>
</svg>
