<svg width="22" height="22" viewBox="0 0 22 22" fill="none" xmlns="http://www.w3.org/2000/svg">
<path d="M10.4884 20.9767C4.70698 20.9767 0 16.2698 0 10.4884C0 4.70698 4.70698 0 10.4884 0C16.2698 0 20.9767 4.70698 20.9767 10.4884C20.9767 16.2698 16.2698 20.9767 10.4884 20.9767ZM10.4884 1.53488C5.54605 1.53488 1.53488 5.55628 1.53488 10.4884C1.53488 15.4205 5.54605 19.4419 10.4884 19.4419C15.4307 19.4419 19.4419 15.4205 19.4419 10.4884C19.4419 5.55628 15.4307 1.53488 10.4884 1.53488Z" fill="#CBC6B6"/>
<path d="M21.232 22.0004C21.0376 22.0004 20.8432 21.9288 20.6897 21.7753L18.6432 19.7288C18.3464 19.4321 18.3464 18.9409 18.6432 18.6442C18.9399 18.3474 19.4311 18.3474 19.7278 18.6442L21.7743 20.6907C22.0711 20.9874 22.0711 21.4786 21.7743 21.7753C21.6208 21.9288 21.4264 22.0004 21.232 22.0004Z" fill="#CBC6B6"/>
</svg>
