<svg width="24" height="24" viewBox="0 0 24 24" fill="none" xmlns="http://www.w3.org/2000/svg">
<path d="M21.7407 19.8752C20.3413 17.4644 18.1012 15.655 15.4501 14.7939C16.7208 14.0382 17.7083 12.8863 18.2609 11.5149C18.8135 10.1436 18.9005 8.62881 18.5087 7.20321C18.1168 5.77762 17.2678 4.5201 16.0919 3.62385C14.9161 2.7276 13.4785 2.24219 12.0001 2.24219C10.5216 2.24219 9.08403 2.7276 7.90819 3.62385C6.73235 4.5201 5.88329 5.77762 5.49145 7.20321C5.09961 8.62881 5.18666 10.1436 5.73922 11.5149C6.29179 12.8863 7.2793 14.0382 8.55007 14.7939C5.89891 15.655 3.65888 17.4644 2.25944 19.8752C2.20074 19.9603 2.16029 20.0567 2.14063 20.1582C2.12097 20.2598 2.12252 20.3643 2.14519 20.4652C2.16785 20.5661 2.21115 20.6612 2.27235 20.7446C2.33355 20.828 2.41133 20.8978 2.50081 20.9497C2.59028 21.0015 2.68952 21.0343 2.79228 21.046C2.89505 21.0577 2.99912 21.048 3.09795 21.0175C3.19678 20.987 3.28824 20.9364 3.36659 20.8689C3.44493 20.8014 3.50846 20.7184 3.55319 20.6252C4.41042 19.1439 5.64211 17.9141 7.1247 17.0591C8.60728 16.2042 10.2886 15.7541 12.0001 15.7541C13.7115 15.7541 15.3928 16.2042 16.8754 17.0591C18.358 17.9141 19.5897 19.1439 20.4469 20.6252C20.4917 20.7184 20.5552 20.8014 20.6335 20.8689C20.7119 20.9364 20.8033 20.987 20.9022 21.0175C21.001 21.048 21.1051 21.0577 21.2078 21.046C21.3106 21.0343 21.4098 21.0015 21.4993 20.9497C21.5888 20.8978 21.6666 20.828 21.7278 20.7446C21.789 20.6612 21.8323 20.5661 21.8549 20.4652C21.8776 20.3643 21.8792 20.2598 21.8595 20.1582C21.8398 20.0567 21.7994 19.9603 21.7407 19.8752ZM6.75007 9.00016C6.75007 7.96181 7.05797 6.94678 7.63485 6.08342C8.21173 5.22006 9.03167 4.54715 9.99098 4.14979C10.9503 3.75243 12.0059 3.64847 13.0243 3.85104C14.0427 4.05361 14.9782 4.55363 15.7124 5.28785C16.4466 6.02208 16.9466 6.95754 17.1492 7.97594C17.3518 8.99434 17.2478 10.0499 16.8504 11.0092C16.4531 11.9686 15.7802 12.7885 14.9168 13.3654C14.0535 13.9423 13.0384 14.2502 12.0001 14.2502C10.6077 14.2502 9.27232 13.697 8.28776 12.7125C7.30319 11.7279 6.75007 10.3925 6.75007 9.00016Z" fill="#E2E3E9"/>
</svg>
