<svg width="64" height="32" viewBox="0 0 64 32" fill="none" xmlns="http://www.w3.org/2000/svg">
<g clip-path="url(#clip0_52_125112)">
<path d="M16.0302 9.92015C16.2402 9.40015 16.8302 8.84015 17.5802 9.05015C18.1802 9.22015 18.5502 9.57015 18.7802 10.0502C18.9802 10.4902 19.0302 11.0102 19.0402 11.5102C19.0286 12.0975 18.9481 12.6816 18.8002 13.2502C18.7402 13.5102 18.6802 13.7602 18.6102 13.9902H19.9902C20.3007 13.9902 20.6069 14.0624 20.8846 14.2013C21.1624 14.3402 21.4039 14.5418 21.5902 14.7902C21.7765 15.0385 21.9024 15.3269 21.958 15.6324C22.0135 15.9379 21.9972 16.2521 21.9102 16.5502L20.5502 21.2002C20.4566 21.5191 20.3002 21.8162 20.0903 22.074C19.8805 22.3318 19.6213 22.5452 19.328 22.7016C19.0347 22.858 18.7131 22.9544 18.3821 22.9851C18.0511 23.0157 17.7173 22.9801 17.4002 22.8802L12.0502 21.2002C11.7597 21.1106 11.4934 20.9559 11.2716 20.748C11.0498 20.5401 10.8783 20.2843 10.7702 20.0002L10.2502 18.6002C10.0867 18.16 10.0832 17.6763 10.2405 17.2339C10.3977 16.7914 10.7056 16.4184 11.1102 16.1802L12.9802 15.0802L13.0002 15.0702L13.1002 14.9802C13.2002 14.9102 13.3302 14.7802 13.5002 14.5802C13.8502 14.1902 14.3202 13.5502 14.8002 12.5402C15.0002 12.1002 15.1702 11.7602 15.3302 11.4402C15.5802 10.9402 15.7902 10.5202 16.0302 9.92015ZM13.5202 15.9202L13.5002 15.9302L11.6202 17.0402C11.4157 17.1596 11.2601 17.3478 11.1814 17.5713C11.1026 17.7947 11.1058 18.0388 11.1902 18.2602L11.7102 19.6402C11.7643 19.7822 11.85 19.9101 11.9609 20.0141C12.0718 20.118 12.205 20.1954 12.3502 20.2402L17.7002 21.9202C18.5002 22.1802 19.3502 21.7202 19.5902 20.9202L20.9502 16.2702C20.9935 16.1219 21.0018 15.9657 20.9746 15.8137C20.9473 15.6617 20.8853 15.5181 20.7932 15.3941C20.7012 15.2701 20.5817 15.1691 20.4441 15.0991C20.3066 15.029 20.1546 14.9917 20.0002 14.9902H17.9302C17.8491 14.9917 17.7688 14.9736 17.6963 14.9372C17.6238 14.9009 17.5612 14.8474 17.5139 14.7814C17.4667 14.7155 17.4362 14.639 17.4251 14.5587C17.414 14.4783 17.4226 14.3964 17.4502 14.3202C17.5502 14.0402 17.7102 13.5502 17.8302 13.0202C17.9602 12.4802 18.0502 11.9402 18.0302 11.5202C18.0302 11.0602 17.9802 10.7202 17.8702 10.4702C17.8198 10.3558 17.7426 10.2552 17.6451 10.1768C17.5477 10.0985 17.4328 10.0448 17.3102 10.0202C17.2702 10.0002 17.2102 10.0102 17.1502 10.0502C17.0635 10.1128 16.9974 10.1998 16.9602 10.3002C16.7102 10.9302 16.4602 11.4102 16.2002 11.9502C16.0402 12.2502 15.8802 12.5802 15.7002 12.9602C15.3277 13.7852 14.8395 14.553 14.2502 15.2402C14.0384 15.4819 13.804 15.7029 13.5502 15.9002L13.5302 15.9102L13.5202 15.9202Z" fill="#2B2B2B"/>
</g>
<g clip-path="url(#clip1_52_125112)">
<path d="M50.5814 18.0004L50.6314 18.4504C50.734 19.3412 50.7272 20.2412 50.6114 21.1304C50.5414 21.5704 50.4114 22.0104 50.1714 22.3604C49.9214 22.7404 49.5314 23.0004 49.0014 23.0004C48.4814 23.0004 48.1714 22.6304 47.9814 22.3004C47.7814 21.9904 47.6214 21.5504 47.4414 21.1004L47.4314 21.0704C46.8814 19.6704 46.1314 17.7604 44.1314 16.4204C43.8214 16.2204 43.5314 16.0604 43.2714 15.9604C42.5714 15.6604 41.9514 14.9004 42.1114 14.0204L42.3414 12.8204C42.4117 12.4545 42.5828 12.1155 42.8355 11.8416C43.0881 11.5678 43.4123 11.3699 43.7714 11.2704L48.7214 9.89041C49.1883 9.76175 49.6768 9.73139 50.156 9.80125C50.6353 9.87111 51.0948 10.0397 51.5056 10.2963C51.9163 10.5529 52.2693 10.8919 52.5423 11.292C52.8153 11.692 53.0022 12.1444 53.0914 12.6204L53.5514 15.0404C53.619 15.4016 53.6061 15.7733 53.5137 16.129C53.4213 16.4847 53.2516 16.8157 53.0167 17.0983C52.7818 17.381 52.4875 17.6083 52.1547 17.7643C51.8219 17.9202 51.4589 18.0008 51.0914 18.0004H50.5814ZM52.1114 12.8004C52.0466 12.4603 51.912 12.1374 51.716 11.8521C51.5199 11.5668 51.2668 11.3253 50.9725 11.1429C50.6783 10.9605 50.3493 10.8412 50.0066 10.7926C49.6638 10.744 49.3147 10.7671 48.9814 10.8604L44.0314 12.2304C43.8521 12.2813 43.6906 12.3814 43.5652 12.5192C43.4397 12.657 43.3553 12.8272 43.3214 13.0104L43.1014 14.2104C43.0414 14.4904 43.2614 14.8704 43.6514 15.0304C43.9614 15.1604 44.3114 15.3404 44.6814 15.5804C46.9614 17.1104 47.8114 19.2804 48.3514 20.6904L48.3614 20.7104C48.5614 21.2104 48.6914 21.5604 48.8314 21.7904C48.8745 21.8704 48.9321 21.9416 49.0014 22.0004C49.1414 22.0004 49.2514 21.9504 49.3514 21.8004C49.4714 21.6204 49.5714 21.3404 49.6314 20.9704C49.7672 19.9326 49.7402 18.8799 49.5514 17.8504L49.5214 17.6504L49.5114 17.6004C49.4965 17.5278 49.4981 17.4527 49.5158 17.3807C49.5336 17.3087 49.5671 17.2416 49.614 17.1841C49.6609 17.1267 49.72 17.0804 49.787 17.0487C49.854 17.0169 49.9272 17.0004 50.0014 17.0004H51.0914C51.3118 16.9999 51.5293 16.9508 51.7286 16.8566C51.9279 16.7624 52.104 16.6255 52.2443 16.4556C52.3847 16.2856 52.4858 16.0868 52.5406 15.8734C52.5954 15.6599 52.6025 15.4369 52.5614 15.2204L52.1114 12.8004Z" fill="#2B2B2B"/>
</g>
<defs>
<clipPath id="clip0_52_125112">
<rect width="16" height="16" fill="white" transform="translate(8 8)"/>
</clipPath>
<clipPath id="clip1_52_125112">
<rect width="16" height="16" fill="white" transform="translate(40 8)"/>
</clipPath>
</defs>
</svg>
