<svg width="15" height="15" viewBox="0 0 15 15" fill="none" xmlns="http://www.w3.org/2000/svg">
<path d="M7.49605 9.14155C8.61254 9.14155 9.51764 8.23646 9.51764 7.11997C9.51764 6.00348 8.61254 5.09838 7.49605 5.09838C6.37956 5.09838 5.47447 6.00348 5.47447 7.11997C5.47447 8.23646 6.37956 9.14155 7.49605 9.14155Z" stroke="white" stroke-width="1.5" stroke-miterlimit="10" stroke-linecap="round" stroke-linejoin="round"/>
<path d="M0.758094 7.71259V6.5266C0.758094 5.82578 1.33088 5.24626 2.03843 5.24626C3.25812 5.24626 3.75678 4.38372 3.14356 3.32575C2.79316 2.71928 3.00205 1.93086 3.61527 1.58045L4.78105 0.913329C5.3134 0.596614 6.00074 0.785295 6.31745 1.31765L6.39158 1.44568C6.99805 2.50364 7.99537 2.50364 8.60858 1.44568L8.68271 1.31765C8.99942 0.785295 9.68676 0.596614 10.2191 0.913329L11.3849 1.58045C11.9981 1.93086 12.207 2.71928 11.8566 3.32575C11.2434 4.38372 11.742 5.24626 12.9617 5.24626C13.6625 5.24626 14.2421 5.81904 14.2421 6.5266V7.71259C14.2421 8.41341 13.6693 8.99293 12.9617 8.99293C11.742 8.99293 11.2434 9.85547 11.8566 10.9134C12.207 11.5266 11.9981 12.3083 11.3849 12.6587L10.2191 13.3259C9.68676 13.6426 8.99942 13.4539 8.68271 12.9215L8.60858 12.7935C8.00211 11.7355 7.00479 11.7355 6.39158 12.7935L6.31745 12.9215C6.00074 13.4539 5.3134 13.6426 4.78105 13.3259L3.61527 12.6587C3.00205 12.3083 2.79316 11.5199 3.14356 10.9134C3.75678 9.85547 3.25812 8.99293 2.03843 8.99293C1.33088 8.99293 0.758094 8.41341 0.758094 7.71259Z" stroke="white" stroke-width="1.5" stroke-miterlimit="10" stroke-linecap="round" stroke-linejoin="round"/>
</svg>
