<svg width="30" height="30" viewBox="0 0 30 30" fill="none" xmlns="http://www.w3.org/2000/svg">
<g clip-path="url(#clip0_52_65336)">
<path d="M8.71881 4.21875C8.71881 4.21875 7.78131 2.25 6.37506 2.25C4.96881 2.25 2.15631 4.03125 2.81256 9.375C2.81256 9.375 6.37506 10.5938 8.43756 9C8.43756 9 6.75006 6.1875 8.71881 4.21875Z" fill="#827420"/>
<path d="M7.78089 4.125C7.78089 4.125 7.12464 2.4375 5.99964 2.4375C4.87464 2.4375 2.81214 4.03125 3.37464 8.53125C3.37464 8.53125 5.99964 9.5625 7.59339 8.15625C7.59339 8.15625 6.37464 5.8125 7.78089 4.125Z" fill="#E3D146"/>
<path d="M14.4365 3C14.4365 3 17.4365 4.40625 18.8428 6.46875C20.249 8.53125 22.7803 11.8125 26.9053 11.0625C26.9053 11.0625 27.374 0.1875 14.999 0C14.9053 0.09375 11.9053 2.0625 14.4365 3Z" fill="#998522"/>
<path d="M16.2187 0.187497C16.2187 0.187497 14.8125 3.1875 12.4688 3.84375C10.125 4.5 5.625 6.375 4.96875 9C4.96875 9 6.1875 -1.40625 16.2187 0.187497Z" fill="#827420"/>
<path d="M7.3125 7.03125C8.8658 7.03125 10.125 5.73008 10.125 4.125C10.125 2.51992 8.8658 1.21875 7.3125 1.21875C5.7592 1.21875 4.5 2.51992 4.5 4.125C4.5 5.73008 5.7592 7.03125 7.3125 7.03125Z" fill="#B74F88"/>
<path d="M7.3125 6.09375C8.39981 6.09375 9.28125 5.17034 9.28125 4.03125C9.28125 2.89216 8.39981 1.96875 7.3125 1.96875C6.22519 1.96875 5.34375 2.89216 5.34375 4.03125C5.34375 5.17034 6.22519 6.09375 7.3125 6.09375Z" fill="#ED5A9D"/>
<path d="M21.4693 17.25C23.438 17.9062 25.2193 19.5937 25.7818 22.0312C26.438 24.4687 25.5005 27.4688 23.813 28.7812C22.688 29.7188 21.2818 29.9062 19.8756 29.9062C16.5943 29.9062 13.3131 28.7812 10.0318 27.5625C8.9068 27.1875 7.7818 26.7187 6.8443 26.0625C5.9068 25.3125 5.06305 24.1875 4.87555 22.7812C4.68805 20.9062 5.7193 19.0312 7.12555 18C9.56305 16.3125 12.0006 15.6562 14.5318 15.6562C16.7818 15.6562 19.4068 16.5 21.4693 17.25Z" fill="#C98C75"/>
<path d="M20.6255 17.4367C22.4067 17.9992 24.0005 19.4992 24.563 21.5617C25.1255 23.718 24.3755 26.2492 22.7817 27.468C21.7505 28.218 20.438 28.4992 19.2192 28.4992C16.2192 28.4992 13.313 27.468 10.313 26.4367C9.2817 26.0617 8.3442 25.7805 7.4067 25.1242C6.56295 24.468 5.81295 23.4367 5.62545 22.3117C5.43795 20.6242 6.37545 19.0305 7.68795 18.1867C9.8442 16.7805 12.0942 16.1242 14.438 16.218C16.4067 16.1242 18.7505 16.7805 20.6255 17.4367Z" fill="#FAEACF"/>
<path d="M18.0942 18.2813C18.0942 18.2813 13.9692 19.9688 10.9692 24.75C10.9692 24.75 9.84422 20.625 10.5005 17.625C10.5005 17.7188 14.7192 19.5938 18.0942 18.2813Z" fill="#FAEACF"/>
<path d="M7.59375 17.7188C7.59375 17.7188 9.1875 21.75 11.1562 22.125C13.125 22.5 16.5 23.1563 20.9062 18.9375L7.59375 17.7188Z" fill="#E8CCAA"/>
<path opacity="0.28" d="M22.9063 25.6436C23.6091 23.4766 22.9811 21.3315 21.5036 20.8523C20.0261 20.3731 18.2586 21.7413 17.5558 23.9083C16.8529 26.0753 17.481 28.2205 18.9585 28.6997C20.436 29.1789 22.2034 27.8106 22.9063 25.6436Z" fill="white"/>
<path d="M25.2945 10.7843C25.3148 5.19243 20.7981 0.642888 15.2062 0.622625C9.61431 0.602363 5.06476 5.11905 5.0445 10.7109C5.02424 16.3028 9.54093 20.8524 15.1328 20.8726C20.7247 20.8929 25.2742 16.3762 25.2945 10.7843Z" fill="#A67A65"/>
<path d="M24.856 10.0967C24.8757 4.66018 20.4845 0.237009 15.0479 0.217309C9.61135 0.19761 5.18818 4.58884 5.16848 10.0254C5.14878 15.4619 9.54001 19.8851 14.9766 19.9048C20.4131 19.9245 24.8363 15.5333 24.856 10.0967Z" fill="#E5A98C"/>
<path d="M24.7316 9.79705C24.7505 4.5676 20.6525 0.313396 15.5784 0.29501C10.5043 0.276624 6.37552 4.50102 6.35658 9.73047C6.33763 14.9599 10.4356 19.2141 15.5098 19.2325C20.5839 19.2509 24.7126 15.0265 24.7316 9.79705Z" fill="#E8CCAA"/>
<path d="M19.6833 11.0893C19.6972 7.25778 16.7284 4.14096 13.0522 4.12764C9.37608 4.11431 6.38472 7.20954 6.37084 11.041C6.35696 14.8725 9.32581 17.9893 13.002 18.0026C16.6781 18.016 19.6695 14.9207 19.6833 11.0893Z" fill="#FAEACF"/>
<path d="M16.2166 11.8291C16.2187 11.2595 15.8006 10.7963 15.2829 10.7944C14.7651 10.7925 14.3437 11.2527 14.3416 11.8223C14.3396 12.3918 14.7576 12.855 15.2754 12.8569C15.7932 12.8588 16.2146 12.3986 16.2166 11.8291Z" fill="#425763"/>
<path d="M15.6123 11.3998C15.6129 11.2445 15.5294 11.1182 15.4259 11.1179C15.3223 11.1175 15.2379 11.2431 15.2373 11.3984C15.2368 11.5538 15.3203 11.68 15.4238 11.6804C15.5274 11.6807 15.6118 11.5551 15.6123 11.3998Z" fill="white"/>
<path d="M8.95296 10.1845C8.95502 9.61498 8.53696 9.15176 8.01919 9.14988C7.50143 9.14801 7.08002 9.60819 7.07796 10.1777C7.07589 10.7473 7.49395 11.2105 8.01172 11.2124C8.52949 11.2143 8.95089 10.7541 8.95296 10.1845Z" fill="#425763"/>
<path d="M8.34868 9.84901C8.34924 9.69368 8.26575 9.56746 8.16219 9.56709C8.05864 9.56671 7.97424 9.69233 7.97368 9.84766C7.97311 10.003 8.0566 10.1292 8.16016 10.1296C8.26371 10.13 8.34811 10.0043 8.34868 9.84901Z" fill="white"/>
<path d="M21.6562 11.531C21.6562 11.531 22.5 10.8748 23.1563 11.156C23.8125 11.4373 23.7187 13.4998 22.0312 13.781L21.6562 11.531Z" fill="#FAEACF"/>
<path d="M13.3125 16.4062C13.3125 16.4062 12.375 16.3125 11.7187 15.75C11.0625 15.2812 10.4062 15.2812 10.3125 15.375C10.2187 15.4687 10.0312 15.1875 9.75 15.0938C9.5625 15 9.1875 15 9.1875 15.0938C9.1875 15.1875 9.46875 15.75 9.46875 15.75C9.46875 15.75 9.5625 16.125 9.46875 16.4062C9.375 16.5937 9.46875 17.25 10.125 17.4375C10.875 17.625 11.3437 17.5312 11.625 17.3437L13.3125 16.4062Z" fill="#B74F88"/>
<path d="M13.7807 3C13.7807 3 16.5932 4.40625 17.812 6.46875C19.0307 8.53125 21.4682 11.8125 25.2182 11.0625C25.2182 11.0625 25.687 0.1875 14.1557 0C14.2495 0 11.437 2.0625 13.7807 3Z" fill="#E3D146"/>
<path d="M15.375 0.187434C15.375 0.187434 14.1562 3.46868 11.9062 4.12493C9.65625 4.78118 5.625 6.65618 5.0625 9.28118C5.0625 9.28118 6.1875 -1.40632 15.375 0.187434Z" fill="#E3D146"/>
<path d="M12.2812 2.25049C12.2812 2.25049 14.5312 9.75049 23.25 11.1567L25.0312 11.063L19.7812 2.62549C19.6875 2.62549 15.375 0.187991 12.2812 2.25049Z" fill="#E3D146"/>
<path d="M20.8125 8.25C20.8125 8.25 21.9375 5.8125 23.7187 5.8125C25.3125 5.8125 28.4062 7.6875 28.2187 13.0312C28.2187 14.0625 27.4688 14.9063 26.4375 15.0938C24.9375 15.375 22.6875 15.375 21.0937 14.1563C21.0937 14.1563 23.1562 10.6875 20.8125 8.25Z" fill="#827420"/>
<path d="M13.6875 2.0625C13.6875 2.0625 15.2812 9.375 24.2812 10.5C24.2812 10.5 24.2812 1.6875 15.375 0.84375C15.2812 0.84375 13.6875 1.40625 13.6875 2.0625Z" fill="#FFEF92"/>
<path d="M7.21875 4.96931C7.21875 4.96931 9.09375 1.03181 12.5625 0.938056C16.0312 0.844306 16.5 0.750556 16.5938 1.31306C16.6875 1.87556 17.0625 2.34431 15 2.25056C12.75 2.25056 8.71875 3.18806 7.21875 4.96931Z" fill="#FFEF92"/>
<path d="M23.1562 10.6875C24.7096 10.6875 25.9688 9.38633 25.9688 7.78125C25.9688 6.17617 24.7096 4.875 23.1562 4.875C21.6029 4.875 20.3438 6.17617 20.3438 7.78125C20.3438 9.38633 21.6029 10.6875 23.1562 10.6875Z" fill="#ED5A9D"/>
<path d="M21.9375 8.15625C21.9375 8.15625 22.7813 6.09375 24.0938 6.09375C25.2188 6.09375 27.4687 7.59375 27.4687 11.8125C27.4687 12.9375 26.625 13.875 25.5 13.9687C24.375 14.0625 23.0625 13.9688 22.125 13.125C22.125 13.2188 23.7188 10.2188 21.9375 8.15625Z" fill="#E3D146"/>
<path d="M23.0625 8.53125C23.0625 8.53125 23.625 7.21875 24.4688 7.21875C25.3125 7.21875 27 8.4375 26.5312 12C26.5312 12 24.4687 12.75 23.25 11.7188C23.25 11.625 24.2812 9.84375 23.0625 8.53125Z" fill="#FFEF92"/>
<path d="M5.15627 20.625C5.15627 20.625 6.28127 23.9063 12.9375 25.4062C19.5938 27 22.6875 27.375 24.0938 26.25C25.5 25.2187 25.9688 25.0313 25.9688 25.0313C25.9688 25.0313 25.6875 30.4687 19.7813 29.8125C13.9688 29.3437 6.56252 26.4375 6.56252 26.4375C6.56252 26.4375 3.37502 24.2812 5.15627 20.625Z" fill="#5CD9EA"/>
<path d="M19.125 26.625L16.6875 29.625C16.6875 29.625 19.3125 30.375 21.4688 30.0937C23.625 29.8125 25.6875 28.5938 26.0625 25.125C25.9688 25.125 24.1875 28.0313 19.125 26.625Z" fill="#188689"/>
<path d="M13.0312 4.125C13.0312 4.125 16.5938 9.75 22.0312 10.7812L22.125 12C22.125 12.0937 16.875 10.6875 13.0312 4.125Z" fill="#827420"/>
<path d="M5.53108 21.375C5.53108 21.375 4.59358 24 7.03108 25.3125C9.46858 26.5312 18.9373 29.25 18.9373 29.25L17.8123 29.8125L6.74983 26.8125C6.74983 26.8125 3.37483 25.6875 4.96858 20.7188L5.53108 21.375Z" fill="#188689"/>
<path d="M14.5312 1.5C14.5312 1.5 18.0937 1.5 20.5312 3.75L21.0938 4.40625L19.6875 6.75L14.5312 1.5Z" fill="#FFF6CA"/>
<path d="M20.625 19.125C20.625 19.125 23.4375 24 19.6875 26.8125C19.6875 26.8125 21.9375 27.5625 23.8125 26.5312C23.8125 26.5312 26.8125 21.6562 22.125 18.0938L20.625 19.125Z" fill="#E8CCAA"/>
</g>
<defs>
<clipPath id="clip0_52_65336">
<rect width="30" height="30" fill="white"/>
</clipPath>
</defs>
</svg>
