<svg width="30" height="30" viewBox="0 0 30 30" fill="none" xmlns="http://www.w3.org/2000/svg">
<g clip-path="url(#clip0_52_48695)">
<path d="M16.875 3.74948C16.875 3.74948 11.4375 -2.43802 1.5 1.21823C1.5 1.21823 1.96875 11.062 16.875 3.74948Z" fill="#1D3A0A"/>
<path d="M15.375 3.93847C15.375 3.93847 10.9688 -0.65528 3 2.06347C3 2.06347 3.375 9.28222 15.375 3.93847Z" fill="#2A6900"/>
<path d="M13.9688 4.31198C13.9688 4.31198 19.4062 -1.87552 29.3438 1.78073C29.3438 1.78073 28.875 11.5307 13.9688 4.31198Z" fill="#1D3A0A"/>
<path d="M15.4688 4.40722C15.4688 4.40722 19.875 -0.18653 27.8438 2.53222C27.8438 2.62597 27.4688 9.75097 15.4688 4.40722Z" fill="#2A6900"/>
<path d="M15.8433 29.2501C15.8433 29.2501 21.3746 27.5626 24.4683 24.6564C27.5621 21.7501 31.4996 17.4376 29.4371 10.6876C27.3746 3.93762 22.1246 2.43762 15.6558 3.93762C15.6558 3.93762 4.49956 0.375117 1.49956 10.3126C-1.50044 20.2501 7.03081 26.3439 15.8433 29.2501Z" fill="#7E1406"/>
<path d="M15.8434 27.0936C15.8434 27.0936 20.9059 25.5936 23.8121 23.0624C26.7184 20.5311 30.2809 16.6874 28.4059 10.7811C26.5309 4.78111 21.6559 3.56236 15.7496 4.78111C15.7496 4.78111 5.53089 1.68736 2.71839 10.4061C-0.0941088 19.1249 7.68714 24.5624 15.8434 27.0936Z" fill="#CC5037"/>
<path d="M15.7501 25.031C15.7501 25.031 20.1563 23.7185 22.6876 21.5623C25.2188 19.406 28.3126 16.1248 26.7188 11.0623C25.1251 5.99978 20.8126 4.87478 15.6563 5.99978C15.6563 5.99978 6.75006 3.28103 4.31256 10.781C1.87506 18.281 8.71881 22.781 15.7501 25.031Z" fill="#EA5A42"/>
<path d="M15.8438 6.09375C15.8438 6.09375 22.5938 15.6562 16.0313 26.4375C16.0313 26.4375 26.0625 17.0625 15.8438 6.09375Z" fill="#7E1406"/>
<path d="M8.06276 6.00042C8.06276 6.00042 11.4378 4.50042 13.7815 5.62542C16.1253 6.75042 18.094 13.4067 17.0628 17.1567C16.0315 20.9067 8.25026 21.4692 5.71901 17.7192C3.18776 13.9692 3.28151 9.28167 8.06276 6.00042ZM19.1253 6.65667C19.1253 6.65667 21.3753 5.06292 23.719 6.28167C26.0628 7.50042 28.3128 12.0004 27.9378 14.6254C27.5628 17.2504 24.7503 19.1254 23.2503 18.5629C21.7503 18.0004 23.719 10.3129 19.1253 6.65667Z" fill="#E5775A"/>
<path d="M8.34394 7.31165C8.34394 7.31165 11.3439 6.2804 12.9377 7.2179C14.5314 8.1554 15.0002 10.8741 14.5314 12.2804C14.0627 13.6866 13.2189 15.9366 10.3127 14.9991C7.40644 13.9679 6.00019 11.9991 6.00019 11.9991C6.00019 11.9991 5.81269 8.1554 8.34394 7.31165ZM22.8752 7.68665C22.8752 7.68665 23.8127 6.56165 24.6564 7.0304C25.5002 7.49915 26.2502 9.2804 26.3439 10.4054C26.4377 11.5304 26.6252 13.2179 25.3127 12.8429C24.0002 12.4679 22.9689 11.2491 22.9689 11.2491C22.9689 11.2491 22.0314 8.5304 22.8752 7.68665Z" fill="#F99987"/>
<path d="M10.5934 28.3125C5.71843 33.6562 -6.84407 25.6875 8.06218 12.375C8.15593 12.375 15.5622 22.9688 10.5934 28.3125Z" fill="#636363"/>
<path d="M9.56268 27.4687C5.53143 32.3437 -3.93732 25.6875 8.06268 13.4062C8.06268 13.4062 13.5002 22.5937 9.56268 27.4687Z" fill="#AAAAAA"/>
<path d="M8.06239 14.8125C8.06239 14.8125 11.5311 22.0312 8.62488 26.1562C5.71863 30.2813 -0.656365 25.2188 8.06239 14.8125Z" fill="#E8E8E8"/>
<path d="M6.09333 21.7498C6.09333 21.7498 6.74958 20.9998 7.68708 21.4686C8.62458 21.9373 9.46833 21.7498 9.09333 23.2498C8.71833 24.6561 8.53083 26.9998 7.21833 25.7811C5.90583 24.4686 5.43708 22.8748 6.09333 21.7498Z" fill="#F7F7F7"/>
</g>
<defs>
<clipPath id="clip0_52_48695">
<rect width="30" height="30" fill="white"/>
</clipPath>
</defs>
</svg>
