<svg width="23" height="21" viewBox="0 0 23 21" fill="none" xmlns="http://www.w3.org/2000/svg">
<path d="M10.6683 0.104379C11.2073 -0.0348486 11.7948 -0.0348486 12.3328 0.104713L21.3187 2.43243C22.3261 2.69242 22.9998 3.39285 22.9998 4.17965V10.9969C22.9998 13.0709 21.9832 15.0685 20.1511 16.6247C19.2868 17.3599 18.1854 17.9725 16.8531 18.5036L11.9948 20.4381C11.6912 20.559 11.3255 20.5591 11.0218 20.4383L6.1549 18.5026C4.81903 17.9707 3.71779 17.3592 2.85349 16.6243C1.01863 15.0671 0 13.0681 0 10.9929V4.17965C0 3.39285 0.673712 2.69242 1.67999 2.43272L10.6683 0.104379ZM11.6529 1.5289C11.5545 1.50339 11.4457 1.50339 11.3465 1.52901L2.35792 3.85742C2.17212 3.90537 2.04819 4.03422 2.04819 4.17965V10.9929C2.04819 12.7034 2.88778 14.351 4.40049 15.6348C5.08762 16.2191 5.99523 16.723 7.12789 17.174L11.5067 18.9156L15.8792 17.1753C16.8672 16.7815 17.6858 16.3456 18.3356 15.8511L18.6038 15.6355C20.1137 14.353 20.9516 12.7065 20.9516 10.9969V4.17965C20.9516 4.03422 20.8277 3.90537 20.6408 3.85713L11.6529 1.5289ZM16.5805 7.43133C16.9441 7.69934 16.9772 8.11873 16.6797 8.41426L16.5805 8.49893L11.258 12.4224C10.8943 12.6905 10.3253 12.7148 9.92436 12.4954L9.8095 12.4223L7.22605 10.5169C6.82622 10.222 6.8264 9.74403 7.22644 9.4493C7.59011 9.18136 8.15905 9.15711 8.55989 9.37647L8.67472 9.44958L10.5332 10.821L15.1323 7.43133C15.5322 7.13653 16.1806 7.13653 16.5805 7.43133Z" fill="#7D8DB5"/>
</svg>
