<svg width="103" height="376" viewBox="0 0 103 376" fill="none" xmlns="http://www.w3.org/2000/svg">
<path d="M47.7093 39.6955V35.6066C47.7093 34.5665 48.5572 33.7214 49.6077 33.7144H53.4558C54.5113 33.7144 55.367 34.5616 55.367 35.6066V35.6066V39.7082C55.3668 40.5913 56.0787 41.313 56.9704 41.3337H59.5358C62.0932 41.3337 64.1663 39.2812 64.1663 36.7494V36.7494V25.1174C64.1527 24.1214 63.6803 23.1861 62.8836 22.5777L54.11 15.5807C52.5729 14.3624 50.3879 14.3624 48.8509 15.5807L40.1157 22.5904C39.316 23.1964 38.8429 24.1332 38.833 25.1301V36.7494C38.833 39.2812 40.9062 41.3337 43.4636 41.3337H46.029C46.9428 41.3337 47.6836 40.6002 47.6836 39.6955V39.6955" stroke="#384455" stroke-width="1.5" stroke-linecap="round" stroke-linejoin="round"/>
<path opacity="0.4" d="M45.1602 111.708L49.151 106.521L53.7033 110.097L57.6087 105.057" stroke="#384455" stroke-width="1.5" stroke-linecap="round" stroke-linejoin="round"/>
<circle cx="62.1606" cy="97.6" r="2.56293" stroke="#384455" stroke-width="1.5" stroke-linecap="round" stroke-linejoin="round"/>
<path d="M55.3994 96.1602H45.7091C41.6938 96.1602 39.2041 99.0038 39.2041 103.019V113.796C39.2041 117.811 41.645 120.642 45.7091 120.642H57.1812C61.1965 120.642 63.6862 117.811 63.6862 113.796V104.41" stroke="#384455" stroke-width="1.5" stroke-linecap="round" stroke-linejoin="round"/>
<rect x="23.5" y="160" width="56" height="56" rx="10" fill="#413FBD"/>
<path fill-rule="evenodd" clip-rule="evenodd" d="M57.3812 175.692L57.3825 176.691C61.0554 176.979 63.4815 179.482 63.4855 183.32L63.5 194.554C63.5052 198.739 60.8763 201.314 56.6624 201.32L46.3692 201.334C42.1816 201.339 39.5198 198.703 39.5145 194.506L39.5 183.404C39.4947 179.541 41.8354 177.044 45.5082 176.707L45.5069 175.708C45.5056 175.121 45.94 174.68 46.5193 174.68C47.0985 174.679 47.5329 175.119 47.5342 175.705L47.5355 176.638L55.3552 176.627L55.3539 175.694C55.3525 175.108 55.787 174.668 56.3662 174.667C56.9323 174.666 57.3799 175.105 57.3812 175.692ZM41.5286 183.816L61.4595 183.789V183.323C61.4029 180.457 59.9653 178.954 57.3851 178.73L57.3864 179.756C57.3864 180.329 56.9402 180.784 56.3741 180.784C55.7949 180.785 55.3591 180.332 55.3591 179.759L55.3578 178.68L47.5382 178.69L47.5395 179.768C47.5395 180.343 47.1064 180.796 46.5272 180.796C45.9479 180.797 45.5122 180.345 45.5122 179.771L45.5109 178.745C42.9438 179.002 41.5234 180.511 41.5273 183.401L41.5286 183.816ZM55.8199 189.873V189.887C55.833 190.5 56.3333 190.966 56.9402 190.952C57.5326 190.938 58.0052 190.43 57.992 189.817C57.9644 189.23 57.4891 188.752 56.898 188.753C56.2925 188.767 55.8186 189.26 55.8199 189.873ZM56.9073 195.856C56.3017 195.843 55.8133 195.338 55.812 194.725C55.7988 194.112 56.2846 193.604 56.8901 193.59H56.9033C57.522 193.59 58.0236 194.095 58.0236 194.721C58.0249 195.347 57.5247 195.855 56.9073 195.856ZM50.3962 189.894C50.4225 190.507 50.9241 190.985 51.5296 190.959C52.122 190.931 52.5946 190.424 52.5683 189.811C52.5538 189.212 52.0667 188.745 51.4743 188.747C50.8688 188.773 50.3948 189.281 50.3962 189.894ZM51.5349 195.796C50.9293 195.823 50.4291 195.345 50.4014 194.732C50.4014 194.119 50.874 193.612 51.4796 193.584C52.072 193.583 52.5604 194.049 52.5735 194.648C52.6012 195.262 52.1273 195.768 51.5349 195.796ZM44.9724 189.941C44.9988 190.554 45.5003 191.033 46.1059 191.005C46.6983 190.979 47.1709 190.471 47.1432 189.858C47.1301 189.258 46.643 188.792 46.0493 188.793C45.4437 188.82 44.9711 189.328 44.9724 189.941ZM46.1112 195.803C45.5056 195.831 45.0054 195.351 44.9777 194.738C44.9764 194.125 45.4503 193.618 46.0559 193.591C46.6483 193.59 47.1367 194.056 47.1498 194.656C47.1775 195.269 46.7049 195.776 46.1112 195.803Z" fill="white"/>
<path fill-rule="evenodd" clip-rule="evenodd" d="M55.1487 255.683H46.278C43.5327 255.683 41.166 257.908 41.166 260.655V274.939C41.166 277.84 43.378 280.153 46.278 280.153H56.93C59.6767 280.153 61.902 277.687 61.902 274.939V262.717L55.1487 255.683Z" stroke="#384455" stroke-width="1.5" stroke-linecap="round" stroke-linejoin="round"/>
<path d="M54.7988 255.667V259.546C54.7988 261.439 56.3308 262.975 58.2228 262.979C59.9788 262.983 61.7748 262.984 61.8962 262.976" stroke="#384455" stroke-width="1.5" stroke-linecap="round" stroke-linejoin="round"/>
<path opacity="0.4" d="M54.5446 272.744H47.3486" stroke="#384455" stroke-width="1.5" stroke-linecap="round" stroke-linejoin="round"/>
<path opacity="0.4" d="M51.8233 266.141H47.3486" stroke="#384455" stroke-width="1.5" stroke-linecap="round" stroke-linejoin="round"/>
<path opacity="0.4" d="M58.96 346.576C61.0964 346.576 62.8295 344.844 62.8295 342.707C62.8295 340.571 61.0964 338.839 58.96 338.839" stroke="#384455" stroke-width="1.5" stroke-linecap="round" stroke-linejoin="round"/>
<path d="M60.7383 350.779C61.3763 350.823 62.0106 350.914 62.6352 351.054C63.5029 351.224 64.5467 351.58 64.9183 352.358C65.1554 352.857 65.1554 353.438 64.9183 353.938C64.5479 354.716 63.5029 355.071 62.6352 355.249" stroke="#384455" stroke-width="1.5" stroke-linecap="round" stroke-linejoin="round"/>
<path opacity="0.4" d="M43.8862 346.576C41.7497 346.576 40.0166 344.844 40.0166 342.707C40.0166 340.571 41.7497 338.839 43.8862 338.839" stroke="#384455" stroke-width="1.5" stroke-linecap="round" stroke-linejoin="round"/>
<path d="M42.1075 350.779C41.4695 350.823 40.8352 350.914 40.2106 351.054C39.3429 351.224 38.2991 351.58 37.9288 352.358C37.6904 352.857 37.6904 353.438 37.9288 353.938C38.2979 354.716 39.3429 355.071 40.2106 355.249" stroke="#384455" stroke-width="1.5" stroke-linecap="round" stroke-linejoin="round"/>
<path fill-rule="evenodd" clip-rule="evenodd" d="M51.4172 351.612C55.7463 351.612 59.4448 352.267 59.4448 354.889C59.4448 357.51 55.7708 358.189 51.4172 358.189C47.0869 358.189 43.3896 357.534 43.3896 354.912C43.3896 352.291 47.0636 351.612 51.4172 351.612Z" stroke="#384455" stroke-width="1.5" stroke-linecap="round" stroke-linejoin="round"/>
<path opacity="0.4" fill-rule="evenodd" clip-rule="evenodd" d="M51.4168 347.873C48.5617 347.873 46.2725 345.584 46.2725 342.727C46.2725 339.872 48.5617 337.583 51.4168 337.583C54.2719 337.583 56.5611 339.872 56.5611 342.727C56.5611 345.584 54.2719 347.873 51.4168 347.873Z" stroke="#384455" stroke-width="1.5" stroke-linecap="round" stroke-linejoin="round"/>
</svg>
