<svg width="49" height="49" viewBox="0 0 49 49" fill="none" xmlns="http://www.w3.org/2000/svg">
<mask id="mask0_52_59992" style="mask-type:luminance" maskUnits="userSpaceOnUse" x="-1" y="-1" width="51" height="51">
<path d="M49.577 -0.576966H-0.576966V49.577H49.577V-0.576966Z" fill="white"/>
</mask>
<g mask="url(#mask0_52_59992)">
<path d="M48.3735 24.5002C48.3735 37.685 37.685 48.3735 24.5002 48.3735C11.3153 48.3735 0.626924 37.685 0.626924 24.5002C0.626924 11.3154 11.3153 0.626924 24.5002 0.626924C37.685 0.626924 48.3735 11.3154 48.3735 24.5002Z" stroke="black" stroke-width="1.25"/>
<path d="M7.35902 13.7471L8.14845 12.6698C8.47294 12.227 8.95191 11.9998 9.39527 12.3242C9.64404 12.5068 9.72679 12.7631 9.6631 13.066L9.67212 13.0725C9.86772 12.9457 10.0558 12.9431 10.2524 13.0314C10.5553 13.1648 10.8327 13.4427 10.9114 13.3795L10.945 13.4041L10.4871 14.029C10.4004 14.0586 10.1511 13.8389 9.92339 13.7416C9.72779 13.6588 9.58937 13.6694 9.45345 13.8544L9.23779 14.1488L9.99311 14.7025L9.52818 15.3365L7.35852 13.7466L7.35902 13.7471ZM8.7854 13.8178L9.03467 13.4778C9.16808 13.2957 9.16256 13.1377 9.01109 13.0264C8.86866 12.9221 8.71067 12.9462 8.57726 13.1282L8.32148 13.4773L8.7854 13.8178Z" fill="black"/>
<path d="M9.95586 10.5336L11.5031 9.12077L11.9344 9.59322L10.9675 10.4759L11.2137 10.7453L12.0222 10.0075L12.4204 10.4438L11.6119 11.1816L11.8958 11.4925L12.8904 10.5848L13.3443 11.0823L11.7689 12.5202L9.95586 10.5336Z" fill="black"/>
<path d="M12.8147 8.11111L13.5068 7.69282L14.4763 8.58356C14.6529 8.74505 14.8595 8.96272 14.8595 8.96272L14.866 8.95871C14.866 8.95871 14.7722 8.67283 14.708 8.44312L14.363 7.17473L15.0456 6.76196L15.6971 9.5114L14.9438 9.9668L12.8147 8.11111Z" fill="black"/>
<path d="M16.5106 6.11156L17.2399 5.81766L18.2455 8.31232L17.5162 8.60622L16.5106 6.11156Z" fill="black"/>
<path d="M18.9155 5.23655L20.9567 4.7656L21.1007 5.38851L19.8253 5.68292L19.9075 6.03853L20.9743 5.79227L21.1072 6.36754L20.0404 6.61379L20.1352 7.02405L21.4472 6.72112L21.5987 7.37714L19.5203 7.85661L18.916 5.23605L18.9155 5.23655Z" fill="black"/>
<path d="M22.6599 4.48351H23.4458L23.6414 5.40484C23.7056 5.69821 23.7733 6.15311 23.7733 6.15311H23.7808C23.7808 6.15311 23.852 5.75037 23.9198 5.44195L24.1264 4.48301H24.8371L25.0442 5.43443C25.1119 5.74636 25.1796 6.15311 25.1796 6.15311H25.1871C25.1871 6.15311 25.2584 5.69771 25.3226 5.39681L25.5182 4.48251H26.3231L25.6165 7.17174H24.8225L24.5818 6.03224C24.5331 5.79902 24.4875 5.50966 24.4875 5.50966H24.48C24.48 5.50966 24.4348 5.79902 24.3862 6.03224L24.153 7.17224H23.348L22.6594 4.48301L22.6599 4.48351Z" fill="black"/>
<path d="M28.045 4.76952L30.0868 5.23946L29.9433 5.86237L28.6679 5.56898L28.5861 5.92456L29.6529 6.16981L29.5205 6.74558L28.4538 6.50033L28.3595 6.91109L29.672 7.21301L29.521 7.86903L27.4426 7.39106L28.0455 4.77002L28.045 4.76952Z" fill="black"/>
<path d="M31.8376 5.81228L32.968 6.32486C33.6737 6.64484 33.9586 7.31941 33.6055 8.0968C33.2514 8.87769 32.5864 9.10489 31.826 8.75983L30.7261 8.2613L31.8371 5.81178L31.8376 5.81228ZM32.0367 8.14143C32.3657 8.29039 32.6912 8.18256 32.8793 7.76779C33.0628 7.36355 32.9525 7.03253 32.6099 6.87755L32.2844 6.7301L31.7112 7.99448L32.0367 8.14143Z" fill="black"/>
<path d="M37.2121 8.88371L38.2528 9.80805C38.4494 9.98309 38.5532 10.1606 38.5878 10.3372C38.6264 10.5373 38.5743 10.7379 38.4268 10.9034C38.2568 11.0945 38.0677 11.1431 37.8345 11.0664L37.827 11.0749C37.984 11.3403 37.9453 11.6382 37.7432 11.8659C37.5506 12.0825 37.3189 12.1683 37.0852 12.1417C36.8891 12.1186 36.6945 12.0208 36.4864 11.8363L35.4261 10.8944L37.2121 8.88371ZM36.8314 11.3177C36.9578 11.43 37.1128 11.4315 37.2201 11.3107C37.335 11.1813 37.2969 11.0318 37.176 10.924L36.7597 10.5543L36.4126 10.945L36.8319 11.3172L36.8314 11.3177ZM37.4599 10.5027C37.5722 10.6025 37.6956 10.6165 37.7909 10.5097C37.8832 10.4059 37.8596 10.274 37.7472 10.1737L37.3846 9.85118L37.0947 10.1777L37.4604 10.5022L37.4599 10.5027Z" fill="black"/>
<path d="M39.1339 13.2994L39.9684 11.5109L40.4839 12.1915L40.18 12.7808C40.0772 12.9814 39.9443 13.1861 39.9443 13.1861L39.9489 13.1921C39.9489 13.1921 40.184 13.1224 40.4047 13.0777L41.0542 12.9443L41.5582 13.6099L39.6083 13.9263L38.8555 14.4966L38.3805 13.8697L39.1339 13.2994Z" fill="black"/>
<path d="M30.4436 21.2004C30.2109 21.0063 29.922 20.8568 29.5779 20.753C29.2339 20.6492 28.8422 20.596 28.4028 20.5945C27.9835 20.593 27.6019 20.6376 27.2568 20.7289C26.9118 20.8202 26.6123 20.9531 26.3581 21.1271C26.1038 21.3017 25.9002 21.5123 25.7482 21.7596C25.5962 22.0068 25.5054 22.2837 25.4759 22.5896L27.0958 22.5956C27.169 22.3945 27.3085 22.2421 27.5146 22.1377C27.7207 22.0339 27.9825 21.9823 28.301 21.9838C28.6676 21.9853 28.9465 22.062 29.1371 22.2135C29.3277 22.3649 29.4225 22.5801 29.4215 22.8584L29.4195 23.4026L27.8055 23.493C26.9709 23.5381 26.332 23.7301 25.8876 24.0687C25.4428 24.4077 25.2196 24.8812 25.2171 25.4895C25.2161 25.796 25.2682 26.0718 25.374 26.3181C25.4799 26.5643 25.6288 26.7755 25.8219 26.9515C26.0145 27.1275 26.2437 27.2635 26.5095 27.3593C26.7748 27.4551 27.0687 27.5037 27.3912 27.5047C27.8261 27.5062 28.2143 27.4219 28.5558 27.2524C28.8969 27.0824 29.1546 26.8447 29.3292 26.5392H29.438L29.4345 27.41L31.1387 27.4165L31.1563 22.8655C31.1578 22.5109 31.0971 22.1935 30.9757 21.9131C30.8539 21.6327 30.6763 21.395 30.4436 21.2004ZM29.4134 24.9925C29.4129 25.1615 29.3763 25.3186 29.3031 25.4635C29.2299 25.6084 29.1291 25.7348 28.9997 25.8432C28.8703 25.9515 28.7188 26.0352 28.5453 26.0949C28.3717 26.1546 28.1827 26.1842 27.977 26.1836C27.6706 26.1826 27.4213 26.1109 27.2287 25.969C27.0356 25.8276 26.9398 25.6315 26.9408 25.3818C26.9429 24.8983 27.3185 24.632 28.0683 24.5823L29.4164 24.503L29.4144 24.9925H29.4134Z" fill="black"/>
<path d="M36.1814 20.6243C35.6859 20.6223 35.2717 20.7287 34.9382 20.9428C34.6052 21.1575 34.3609 21.4534 34.2064 21.8316H34.0976L34.1016 20.7613L32.3974 20.7547L32.3718 27.4207L34.1307 27.4272L34.1453 23.5834C34.1463 23.3658 34.1773 23.1677 34.238 22.9886C34.2992 22.8096 34.387 22.6566 34.5029 22.5302C34.6182 22.4038 34.7566 22.3065 34.9176 22.2388C35.0791 22.1711 35.2627 22.1375 35.4678 22.1385C35.8871 22.14 36.1956 22.2594 36.3942 22.4956C36.5928 22.7318 36.6911 23.0819 36.6891 23.5453L36.674 27.4373L38.4329 27.4438L38.4495 23.1346C38.4525 22.3366 38.2604 21.7197 37.8732 21.2829C37.486 20.846 36.9218 20.6264 36.1805 20.6238" fill="black"/>
<path d="M41.4809 20.4148L41.4854 19.2071L39.7265 19.2005L39.7019 25.6493C39.7009 25.9758 39.7411 26.2537 39.8228 26.4839C39.9046 26.7136 40.036 26.9027 40.2165 27.0506C40.3971 27.1986 40.6308 27.3069 40.9167 27.3766C41.2026 27.4463 41.5486 27.4819 41.9559 27.4835C42.1254 27.484 42.2874 27.4764 42.4424 27.4609C42.5973 27.4453 42.7297 27.4278 42.8386 27.4082L42.8436 26.0666C42.7588 26.0746 42.6801 26.0801 42.6079 26.0837C42.5351 26.0877 42.4404 26.0892 42.324 26.0887C42.0221 26.0877 41.8024 26.0185 41.666 25.8805C41.5296 25.7431 41.4619 25.5295 41.4629 25.2391L41.4744 22.2414L42.8586 22.2469L42.8642 20.8626L41.9223 20.8591C41.678 20.8581 41.4809 20.6595 41.4819 20.4153" fill="black"/>
<path d="M21.8886 25.7666H21.7798L20.3971 20.7081H20.2872L19.5219 23.2138C19.4612 23.4129 19.4647 23.6265 19.5324 23.8237L20.7702 27.4182L20.709 27.6594C20.6353 27.9132 20.5029 28.0958 20.3108 28.2076C20.1192 28.3194 19.8579 28.3751 19.5274 28.3741H19.4431L19.3253 28.3731C19.2826 28.3731 19.2435 28.3716 19.2074 28.3696C19.1713 28.3671 19.1447 28.3641 19.1287 28.3601L19.1231 29.7744C19.1392 29.7784 19.1808 29.7819 19.247 29.7839C19.3132 29.7859 19.3849 29.7885 19.4617 29.791C19.5384 29.7935 19.6086 29.7945 19.6733 29.7945H19.7942C20.209 29.7965 20.5751 29.7574 20.8916 29.6781C21.208 29.5989 21.4879 29.468 21.7301 29.2854C21.9729 29.1029 22.184 28.8651 22.3646 28.5717C22.5451 28.2783 22.7066 27.9162 22.8496 27.4859L25.1722 20.7256L23.311 20.7186L21.8896 25.7656L21.8886 25.7666Z" fill="black"/>
<path d="M16.7973 16.4383L14.9045 16.4313L11.8943 26.3517H11.808L11.8216 22.7913C11.8231 22.4367 11.7624 22.1192 11.641 21.8389C11.5191 21.5585 11.3416 21.3213 11.1089 21.1267C10.8757 20.9326 10.5873 20.7831 10.2432 20.6793C9.89915 20.5755 9.50745 20.5223 9.0681 20.5208C8.64882 20.5193 8.26715 20.564 7.92209 20.6553C7.57703 20.7465 7.27761 20.8794 7.02283 21.0535C6.76855 21.228 6.56492 21.4387 6.41295 21.6859C6.26099 21.9332 6.17021 22.21 6.14062 22.516L7.76059 22.522C7.83382 22.3209 7.97324 22.1684 8.17938 22.0641C8.38551 21.9603 8.64731 21.9086 8.96579 21.9101C9.33241 21.9116 9.61127 21.9883 9.80186 22.1398C9.99244 22.2913 10.0872 22.5064 10.0862 22.7848L10.0842 23.329L8.47027 23.4192C7.63621 23.4644 6.99675 23.6565 6.55238 23.995C6.10802 24.334 5.88433 24.8075 5.88233 25.4159C5.88132 25.7223 5.93348 25.9982 6.03931 26.2444C6.14513 26.4907 6.29409 26.7018 6.48718 26.8779C6.68027 27.0539 6.90898 27.1898 7.17479 27.2856C7.44011 27.3814 7.73401 27.43 8.0565 27.4311C8.49184 27.4326 8.87953 27.3483 9.22107 27.1788C9.56212 27.0088 9.81991 26.771 9.99445 26.4656H10.1033L10.0998 27.3363L11.804 27.3428L13.4862 27.3493L16.7968 16.4388L16.7973 16.4383ZM10.0792 24.9178C10.0787 25.0869 10.0416 25.2438 9.96887 25.3888C9.89564 25.5337 9.79433 25.6601 9.66544 25.7684C9.53604 25.8768 9.38457 25.9605 9.21104 26.0202C9.03751 26.0799 8.84843 26.1095 8.6428 26.109C8.33636 26.108 8.08709 26.0363 7.8945 25.8943C7.70141 25.7529 7.60562 25.5568 7.60662 25.307C7.60862 24.8235 7.98428 24.5572 8.73358 24.5076L10.0817 24.4283L10.0792 24.9178Z" fill="black"/>
<path d="M18.4705 16.445L15.1598 27.3555L17.0526 27.3625L20.3628 16.4525L18.4705 16.445Z" fill="black"/>
<path d="M8.40523 30.7379L9.26537 32.6237L8.66302 32.8985L8.12938 31.7279L7.72865 31.9105L8.17051 32.879L7.61631 33.1317L7.17445 32.1633L6.28472 32.569L5.95872 31.8538L8.40523 30.7379Z" fill="black"/>
<path d="M8.30758 33.7223C8.97563 33.2734 9.76605 33.3773 10.2315 34.0704C10.6969 34.7635 10.4983 35.5404 9.82975 35.9893C9.1617 36.4382 8.37027 36.3258 7.90484 35.6327C7.43941 34.9396 7.63902 34.1707 8.30758 33.7223ZM9.38538 35.3272C9.75101 35.082 9.92153 34.7359 9.71189 34.424C9.50224 34.1115 9.11756 34.1391 8.75194 34.3843C8.38632 34.6296 8.2188 34.9737 8.42845 35.2856C8.63809 35.5981 9.01976 35.5725 9.38538 35.3272Z" fill="black"/>
<path d="M11.3023 35.6348L12.2251 36.6002C12.6048 36.9974 12.7452 37.5085 12.348 37.8882C12.1253 38.1013 11.858 38.1379 11.5706 38.0226L11.5626 38.0306C11.6533 38.2458 11.6228 38.4308 11.5019 38.6094C11.3173 38.8847 10.9958 39.1089 11.0445 39.1977L11.0149 39.2263L10.4792 38.6661C10.4652 38.5753 10.7255 38.3681 10.8604 38.161C10.9763 37.9825 10.9898 37.8445 10.8313 37.679L10.579 37.4152L9.90197 38.0627L9.3588 37.4945L11.3028 35.6353L11.3023 35.6348ZM10.9838 37.027L11.2752 37.3315C11.4312 37.4945 11.5876 37.5165 11.7236 37.3866C11.8515 37.2643 11.855 37.1048 11.699 36.9418L11.4001 36.6293L10.9838 37.027Z" fill="black"/>
<path d="M14.8033 38.7733L15.4744 39.2111L14.8394 42.0082L14.1403 41.5518L14.2456 41.1491L13.4833 40.6516L13.1572 40.9104L12.5022 40.483L14.8033 38.7733ZM13.9271 40.295L14.3935 40.5994L14.5395 40.0658C14.5766 39.9329 14.6433 39.7202 14.6433 39.7202L14.6373 39.7162C14.6373 39.7162 14.4728 39.8647 14.3629 39.9504L13.9271 40.295Z" fill="black"/>
<path d="M15.9206 41.0692C16.2431 40.332 16.9894 40.0055 17.7302 40.3295C17.999 40.4468 18.2101 40.6214 18.335 40.824C18.5131 41.1114 18.5407 41.4519 18.4343 41.7789L17.7141 41.4639C17.7813 41.2633 17.6946 41.0201 17.4603 40.9178C17.1193 40.7683 16.8274 40.9855 16.6509 41.3887C16.4743 41.792 16.541 42.1656 16.8615 42.306C17.1133 42.4159 17.337 42.3171 17.4578 42.1069L18.1851 42.4249C18.0451 42.6882 17.8159 42.8748 17.5662 42.9671C17.2672 43.0784 16.9658 43.0533 16.6077 42.8963C15.8564 42.5678 15.5986 41.806 15.9211 41.0687L15.9206 41.0692Z" fill="black"/>
<path d="M18.918 42.3186C19.1085 41.5367 19.7876 41.0864 20.573 41.278C20.8579 41.3472 21.0961 41.4831 21.2541 41.6606C21.4793 41.9129 21.5651 42.2434 21.5169 42.584L20.753 42.3979C20.7846 42.1887 20.6573 41.9641 20.409 41.9039C20.0474 41.8156 19.7972 42.0799 19.6928 42.5072C19.5885 42.935 19.7184 43.2916 20.0585 43.3744C20.3253 43.4396 20.5289 43.3032 20.6112 43.0755L21.3825 43.2635C21.2902 43.5469 21.0961 43.7706 20.8664 43.904C20.5911 44.0655 20.2902 44.0926 19.91 43.9998C19.1136 43.8057 18.7279 43.1 18.9185 42.3176L18.918 42.3186Z" fill="black"/>
<path d="M22.2934 41.6816L24.3823 41.8391L24.3341 42.4766L23.0286 42.3783L23.0011 42.7419L24.0924 42.8241L24.0478 43.413L22.9564 43.3307L22.9248 43.751L24.2674 43.8523L24.2168 44.5239L22.0903 44.3634L22.2934 41.6816Z" fill="black"/>
<path d="M25.0211 43.675L25.8236 43.6088C25.8677 43.8205 26.0408 43.9077 26.2996 43.8867C26.453 43.8741 26.6356 43.7984 26.6225 43.6374C26.609 43.4764 26.4259 43.4498 26.0889 43.3947C25.6295 43.3194 25.0733 43.2106 25.0261 42.6408C24.9755 42.026 25.4585 41.7521 26.0618 41.702C26.6165 41.6558 27.1457 41.8464 27.2053 42.4302L26.4295 42.4944C26.3948 42.3499 26.282 42.2652 26.0683 42.2827C25.8958 42.2973 25.7825 42.3856 25.7915 42.4944C25.8045 42.6519 26.0352 42.6554 26.444 42.7196C26.9029 42.7913 27.3673 42.9302 27.4145 43.5C27.4626 44.0848 26.9676 44.4389 26.3342 44.4915C25.637 44.5492 25.0833 44.2924 25.0211 43.675Z" fill="black"/>
<path d="M28.1356 43.3603L28.9165 43.1647C28.9943 43.3664 29.1793 43.4245 29.4311 43.3613C29.5806 43.3237 29.7486 43.2199 29.7095 43.0629C29.6703 42.9059 29.4848 42.91 29.1437 42.91C28.6783 42.91 28.1121 42.8929 27.9731 42.3387C27.8232 41.7404 28.2555 41.3918 28.8428 41.2443C29.383 41.1089 29.9357 41.2112 30.0891 41.7775L29.3338 41.9666C29.2761 41.8296 29.1512 41.7639 28.9431 41.8161C28.7751 41.8582 28.6778 41.9641 28.7044 42.0699C28.743 42.2234 28.9707 42.1892 29.385 42.1862C29.8494 42.1822 30.3304 42.2444 30.4688 42.7991C30.6112 43.3684 30.1799 43.7982 29.5635 43.9527C28.8849 44.1227 28.2971 43.9597 28.1356 43.3603Z" fill="black"/>
<path d="M30.5498 40.7798L31.2826 40.4954L32.2551 43.0031L31.5223 43.2875L30.5498 40.7798Z" fill="black"/>
<path d="M31.9173 40.2533L33.1405 39.5893C33.3718 39.4634 33.5744 39.4263 33.7519 39.4539C33.953 39.4855 34.1241 39.6028 34.2299 39.7979C34.3518 40.0226 34.3332 40.2167 34.1817 40.4103L34.1873 40.4204C34.4902 40.3632 34.757 40.5006 34.9025 40.7679C35.0409 41.0227 35.0424 41.27 34.9386 41.4801C34.8503 41.6561 34.6918 41.8066 34.4476 41.9395L33.2012 42.6161L31.9178 40.2528L31.9173 40.2533ZM33.5237 40.5708C33.6561 40.4991 33.7113 40.3878 33.6431 40.2624C33.5769 40.14 33.4445 40.1174 33.3126 40.1896L32.8863 40.4214L33.0944 40.8045L33.5242 40.5713L33.5237 40.5708ZM34.0764 41.439C34.2254 41.3582 34.279 41.2133 34.2018 41.0713C34.1191 40.9194 33.9656 40.9043 33.8236 40.9816L33.3346 41.2474L33.5839 41.7068L34.0764 41.439Z" fill="black"/>
<path d="M34.4485 38.7753L35.0865 38.3158L36.6578 40.4985L36.0198 40.958L34.4485 38.7753Z" fill="black"/>
<path d="M35.6431 37.9026L36.2254 37.3745L37.58 38.8681L38.4327 38.0947L38.8851 38.5932L37.4502 39.8952L35.6426 37.9031L35.6431 37.9026Z" fill="black"/>
<path d="M37.4568 36.1653L37.9748 35.574L39.9976 37.347L39.4795 37.9383L37.4568 36.1653Z" fill="black"/>
<path d="M38.3653 35.1453L39.6668 33.228L40.221 33.6041L39.7877 34.2421L41.4588 35.3766L41.017 36.027L39.3458 34.8926L38.919 35.5215L38.3653 35.1453Z" fill="black"/>
<path d="M41.8566 32.7549L39.8861 32.8678L40.2407 32.0909L40.9032 32.0794C41.1284 32.0748 41.3717 32.0949 41.3717 32.0949L41.3747 32.0879C41.3747 32.0879 41.2021 31.9139 41.0577 31.7403L40.6324 31.2318L40.9794 30.4724L42.1826 32.0392L43.0413 32.4314L42.7148 33.1466L41.8561 32.7544L41.8566 32.7549Z" fill="black"/>
</g>
</svg>
