<svg width="24" height="24" viewBox="0 0 24 24" fill="none" xmlns="http://www.w3.org/2000/svg">
<path d="M11.9997 17.2502C11.8009 17.2475 11.6103 17.1706 11.4654 17.0346L3.96535 9.53459C3.84575 9.38887 3.78464 9.20387 3.79388 9.01558C3.80313 8.82729 3.88208 8.64917 4.01539 8.51587C4.14869 8.38257 4.3268 8.30362 4.51509 8.29437C4.70338 8.28512 4.88838 8.34624 5.0341 8.46584L11.9997 15.4408L18.9654 8.46584C19.1111 8.34624 19.2961 8.28512 19.4844 8.29437C19.6727 8.30362 19.8508 8.38257 19.9841 8.51587C20.1174 8.64917 20.1963 8.82729 20.2056 9.01558C20.2148 9.20387 20.1537 9.38887 20.0341 9.53459L12.5341 17.0346C12.3891 17.1706 12.1985 17.2475 11.9997 17.2502Z" fill="#F1F3F4"/>
</svg>
