<svg width="56" height="56" viewBox="0 0 56 56" fill="none" xmlns="http://www.w3.org/2000/svg">
<rect width="56" height="56" rx="8" fill="#5541D7"/>
<path fill-rule="evenodd" clip-rule="evenodd" d="M25.5002 26.9998C24.9479 26.9998 24.5002 26.5521 24.5002 25.9998C24.5002 25.4475 24.9479 24.9998 25.5002 24.9998C26.0525 24.9998 26.5002 25.4475 26.5002 25.9998C26.5002 26.5521 26.0525 26.9998 25.5002 26.9998ZM27.5002 33.2098V35.9898C25.2302 35.8598 23.2102 34.7798 21.8402 33.1298C22.5202 32.5898 24.1202 32.0198 25.5002 32.0198C25.5802 32.0198 25.6502 32.0298 25.7302 32.0298C25.9702 31.3898 26.4002 30.7398 27.0302 30.1698C26.4702 30.0598 25.9402 30.0098 25.5002 30.0098C24.2002 30.0098 22.1102 30.4598 20.7702 31.4398C20.2802 30.3998 19.9902 29.2398 19.9902 28.0098C19.9902 23.5998 23.5802 20.0098 27.9902 20.0098C32.4002 20.0098 35.9902 23.5998 35.9902 28.0098C35.9902 29.2198 35.7202 30.3598 35.2402 31.3798C34.2402 30.7798 32.8802 30.5098 32.0002 30.5098C30.4802 30.5098 27.5002 31.3298 27.5002 33.2098ZM32.0002 24.9998C30.8902 24.9998 29.9902 25.8898 30.0002 26.9998C30.0002 28.1098 30.8902 28.9998 32.0002 28.9998C33.1102 28.9998 34.0002 28.1098 34.0002 26.9998C34.0002 25.8898 33.1102 24.9998 32.0002 24.9998ZM25.5002 28.9998C27.1502 28.9998 28.5002 27.6498 28.5002 25.9998C28.5002 24.3498 27.1502 22.9998 25.5002 22.9998C23.8502 22.9998 22.5002 24.3498 22.5002 25.9998C22.5002 27.6498 23.8502 28.9998 25.5002 28.9998Z" fill="#5541D7"/>
<path fill-rule="evenodd" clip-rule="evenodd" d="M28.5002 25.9998C28.5002 24.3498 27.1502 22.9998 25.5002 22.9998C23.8502 22.9998 22.5002 24.3498 22.5002 25.9998C22.5002 27.6498 23.8502 28.9998 25.5002 28.9998C27.1502 28.9998 28.5002 27.6498 28.5002 25.9998ZM25.5002 26.9998C24.9502 26.9998 24.5002 26.5498 24.5002 25.9998C24.5002 25.4498 24.9502 24.9998 25.5002 24.9998C26.0502 24.9998 26.5002 25.4498 26.5002 25.9998C26.5002 26.5498 26.0502 26.9998 25.5002 26.9998ZM32.0002 28.9998C33.1102 28.9998 34.0002 28.1098 34.0002 26.9998C34.0002 25.8898 33.1102 24.9998 32.0002 24.9998C30.8902 24.9998 29.9902 25.8898 30.0002 26.9998C30.0002 28.1098 30.8902 28.9998 32.0002 28.9998ZM27.9902 18.0098C22.4702 18.0098 17.9902 22.4898 17.9902 28.0098C17.9902 33.5298 22.4702 38.0098 27.9902 38.0098C33.5102 38.0098 37.9902 33.5298 37.9902 28.0098C37.9902 22.4898 33.5102 18.0098 27.9902 18.0098ZM21.8402 33.1198C22.5202 32.5798 24.1102 32.0098 25.5002 32.0098C25.5702 32.0098 25.6502 32.0198 25.7302 32.0198C25.9702 31.3798 26.4002 30.7298 27.0302 30.1598C26.4702 30.0598 25.9402 29.9998 25.5002 29.9998C24.2002 29.9998 22.1102 30.4498 20.7702 31.4298C20.2702 30.3898 19.9902 29.2298 19.9902 27.9998C19.9902 23.5898 23.5802 19.9998 27.9902 19.9998C32.4002 19.9998 35.9902 23.5898 35.9902 27.9998C35.9902 29.1998 35.7202 30.3398 35.2402 31.3698C34.2402 30.7798 32.8802 30.4998 32.0002 30.4998C30.4802 30.4998 27.5002 31.3098 27.5002 33.1998V35.9798C25.2302 35.8498 23.2102 34.7698 21.8402 33.1198Z" fill="white"/>
</svg>
