<svg width="20" height="20" viewBox="0 0 20 20" fill="none" xmlns="http://www.w3.org/2000/svg">
<path fill-rule="evenodd" clip-rule="evenodd" d="M5.83268 1.04199C3.18632 1.04199 1.04102 3.18729 1.04102 5.83366V14.167C1.04102 16.8134 3.18632 18.9587 5.83268 18.9587H14.166C16.8124 18.9587 18.9577 16.8134 18.9577 14.167V5.83366C18.9577 3.18729 16.8124 1.04199 14.166 1.04199H5.83268ZM13.2493 10.0003C13.2493 10.4145 12.9136 10.7503 12.4993 10.7503H10.7493V12.5003C10.7493 12.9145 10.4136 13.2503 9.99935 13.2503C9.58514 13.2503 9.24935 12.9145 9.24935 12.5003V10.7503H7.49935C7.08514 10.7503 6.74935 10.4145 6.74935 10.0003C6.74935 9.58611 7.08514 9.25033 7.49935 9.25033H9.24935V7.50033C9.24935 7.08611 9.58513 6.75033 9.99935 6.75033C10.4136 6.75033 10.7493 7.08611 10.7493 7.50033V9.25033H12.4993C12.9136 9.25033 13.2493 9.58611 13.2493 10.0003Z" fill="white"/>
</svg>
