<svg width="93" height="97" viewBox="0 0 93 97" fill="none" xmlns="http://www.w3.org/2000/svg">
<path d="M23.8018 -3.04271e-10L4.23397 0C1.90529 0 0 1.45095 0 3.21468L-4.00856e-10 18.0717C-4.40074e-10 19.8398 1.91101 21.2864 4.23397 21.2864L23.8018 21.2864C26.1305 21.2864 28.0358 19.8355 28.0358 18.0717L28.0358 3.21468C28.0358 1.45095 26.1248 -3.33967e-10 23.8018 -3.04271e-10Z" fill="#FF621F"/>
<path d="M89.8957 97.0003L88.1831 97.0003C87.9913 97.0003 87.8323 96.9567 87.7059 96.8696C87.5839 96.778 87.4989 96.6626 87.451 96.5231L86.8888 94.8628L83.2676 94.8628L82.7054 96.5231C82.6618 96.6451 82.5769 96.7563 82.4505 96.8565C82.3241 96.9524 82.1694 97.0003 81.9864 97.0003L80.2607 97.0003L83.9474 87.4765L86.209 87.4765L89.8957 97.0003ZM83.7774 93.3594L86.379 93.3594L85.5031 90.7513C85.4464 90.5857 85.3789 90.3918 85.3004 90.1696C85.2264 89.943 85.1523 89.6989 85.0782 89.4375C85.0085 89.7033 84.9366 89.9495 84.8625 90.1761C84.7884 90.4027 84.7187 90.5988 84.6533 90.7644L83.7774 93.3594Z" fill="#282C38"/>
<path d="M92.7627 90.2219L92.7627 97.0003L90.7363 97.0003L90.7363 90.2219L92.7627 90.2219ZM92.998 88.3655C92.998 88.5267 92.9653 88.6792 92.8999 88.823C92.8346 88.9625 92.7452 89.0867 92.6319 89.1956C92.5186 89.3002 92.3857 89.3852 92.2332 89.4506C92.085 89.5116 91.926 89.5421 91.756 89.5421C91.5904 89.5421 91.4357 89.5116 91.2919 89.4506C91.1481 89.3852 91.0196 89.3002 90.9063 89.1956C90.7973 89.0867 90.7102 88.9625 90.6448 88.823C90.5838 88.6792 90.5533 88.5267 90.5533 88.3655C90.5533 88.1999 90.5838 88.0452 90.6448 87.9014C90.7102 87.7576 90.7973 87.6312 90.9063 87.5223C91.0196 87.4133 91.1481 87.3283 91.2919 87.2673C91.4357 87.2063 91.5904 87.1758 91.756 87.1758C91.926 87.1758 92.085 87.2063 92.2332 87.2673C92.3857 87.3283 92.5186 87.4133 92.6319 87.5223C92.7452 87.6312 92.8346 87.7576 92.8999 87.9014C92.9653 88.0452 92.998 88.1999 92.998 88.3655Z" fill="#282C38"/>
</svg>
