<svg width="20" height="20" viewBox="0 0 20 20" fill="none" xmlns="http://www.w3.org/2000/svg">
<path d="M3.26213 1.82429C3.53232 1.62954 3.89253 1.61439 4.17813 1.78575L16.6781 9.28575C16.9291 9.43635 17.0827 9.70761 17.0827 10.0003C17.0827 10.293 16.9291 10.5643 16.6781 10.7149L4.17813 18.2149C3.89253 18.3863 3.53232 18.3711 3.26213 18.1764C2.99193 17.9816 2.86364 17.6447 2.9359 17.3196L4.37721 10.8337L8.74935 10.8337C9.20959 10.8337 9.58268 10.4606 9.58268 10.0003C9.58268 9.54009 9.20959 9.16699 8.74935 9.16699L4.37721 9.16699L2.9359 2.6811C2.86364 2.35597 2.99193 2.01904 3.26213 1.82429Z" fill="white"/>
</svg>
