<svg width="104" height="900" viewBox="0 0 104 900" fill="none" xmlns="http://www.w3.org/2000/svg">
<g filter="url(#filter0_i_37_40394)">
<rect width="104" height="900" fill="#2C65D6"/>
</g>
<path d="M47 146H45C43.3431 146 42 147.343 42 149V151C42 152.657 43.3431 154 45 154H47C48.6569 154 50 152.657 50 151V149C50 147.343 48.6569 146 47 146Z" fill="white"/>
<path d="M47 158H45C43.3431 158 42 159.343 42 161V163C42 164.657 43.3431 166 45 166H47C48.6569 166 50 164.657 50 163V161C50 159.343 48.6569 158 47 158Z" fill="white"/>
<path d="M59 146H57C55.3431 146 54 147.343 54 149V163C54 164.657 55.3431 166 57 166H59C60.6569 166 62 164.657 62 163V149C62 147.343 60.6569 146 59 146Z" fill="white"/>
<path d="M60.3096 292.3H44.5996C43.4996 292.3 42.5996 291.4 42.5996 290.3V279.31C42.5996 278.21 43.4996 277.31 44.5996 277.31H60.3096C61.4096 277.31 62.3096 278.21 62.3096 279.31V290.3C62.3096 291.4 61.4196 292.3 60.3096 292.3Z" stroke="white" stroke-width="1.5" stroke-miterlimit="10" stroke-linecap="round" stroke-linejoin="round"/>
<path d="M42.5996 281.1H62.3096" stroke="white" stroke-width="1.5" stroke-miterlimit="10" stroke-linecap="round" stroke-linejoin="round"/>
<path d="M47.7402 278.89V275.6" stroke="white" stroke-width="1.5" stroke-miterlimit="10" stroke-linecap="round" stroke-linejoin="round"/>
<path d="M57.1699 278.89V275.6" stroke="white" stroke-width="1.5" stroke-miterlimit="10" stroke-linecap="round" stroke-linejoin="round"/>
<path d="M42.5996 220.19H45.6296L48.6196 213.88C48.8096 213.47 49.4096 213.51 49.5496 213.94L53.2896 225.38C53.4196 225.79 53.9796 225.85 54.1996 225.48L57.6596 219.6H60.6896" stroke="white" stroke-width="1.5" stroke-miterlimit="10" stroke-linecap="round" stroke-linejoin="round"/>
<path d="M57.1685 345.539C58.2043 344.203 57.9614 342.281 56.626 341.245C55.2906 340.209 53.3683 340.452 52.3325 341.788C51.2967 343.123 51.5396 345.045 52.875 346.081C54.2105 347.117 56.1327 346.874 57.1685 345.539Z" stroke="white" stroke-width="1.5" stroke-miterlimit="10" stroke-linecap="round" stroke-linejoin="round"/>
<path d="M48.8398 354.86C48.8398 351.6 51.4898 348.95 54.7498 348.95C58.0098 348.95 60.6598 351.6 60.6598 354.86" stroke="white" stroke-width="1.5" stroke-miterlimit="10" stroke-linecap="round" stroke-linejoin="round"/>
<path d="M48.6134 345.599C49.1717 344.557 48.7799 343.26 47.7381 342.702C46.6964 342.144 45.3993 342.535 44.841 343.577C44.2827 344.619 44.6746 345.916 45.7163 346.474C46.758 347.033 48.0551 346.641 48.6134 345.599Z" stroke="white" stroke-width="1.5" stroke-miterlimit="10" stroke-linecap="round" stroke-linejoin="round"/>
<path d="M42.5996 352.41C42.5996 350.13 44.4496 348.28 46.7296 348.28C48.4196 348.28 49.8696 349.29 50.5096 350.75" stroke="white" stroke-width="1.5" stroke-miterlimit="10" stroke-linecap="round" stroke-linejoin="round"/>
<path d="M58.99 406.09C58.73 405.78 58.3 405.69 57.92 405.81C57.11 406.08 56.19 406.01 55.39 405.56C54.59 405.1 54.07 404.34 53.89 403.51C53.8 403.11 53.5 402.78 53.1 402.72C52.1 402.56 51.06 402.56 50.04 402.73C49.64 402.8 49.35 403.12 49.26 403.52C49.08 404.36 48.57 405.12 47.77 405.59C46.97 406.06 46.05 406.12 45.24 405.86C44.86 405.74 44.43 405.83 44.17 406.14C43.52 406.95 43.01 407.85 42.66 408.8C42.52 409.18 42.66 409.6 42.96 409.86C43.59 410.44 43.99 411.27 44 412.19C44 413.12 43.6 413.94 42.97 414.52C42.67 414.79 42.54 415.21 42.68 415.58C42.86 416.05 43.08 416.52 43.34 416.97C43.6 417.42 43.9 417.84 44.22 418.23C44.48 418.54 44.91 418.63 45.29 418.51C46.1 418.24 47.02 418.31 47.82 418.76C48.62 419.22 49.14 419.98 49.32 420.81C49.41 421.2 49.7 421.53 50.1 421.59C51.11 421.75 52.14 421.75 53.16 421.58C53.56 421.51 53.85 421.19 53.94 420.79C54.12 419.95 54.63 419.19 55.43 418.72C56.23 418.25 57.15 418.19 57.96 418.45C58.35 418.57 58.78 418.48 59.03 418.16C59.68 417.35 60.19 416.45 60.55 415.5C60.69 415.12 60.55 414.7 60.25 414.44C59.61 413.87 59.21 413.04 59.2 412.12C59.2 411.19 59.6 410.37 60.23 409.79C60.53 409.52 60.66 409.1 60.52 408.73C60.34 408.26 60.12 407.79 59.86 407.34C59.61 406.89 59.31 406.48 58.99 406.09Z" stroke="white" stroke-width="1.5" stroke-miterlimit="10" stroke-linecap="round" stroke-linejoin="round"/>
<path d="M51.6104 415.12C53.2452 415.12 54.5704 413.794 54.5704 412.16C54.5704 410.525 53.2452 409.2 51.6104 409.2C49.9756 409.2 48.6504 410.525 48.6504 412.16C48.6504 413.794 49.9756 415.12 51.6104 415.12Z" stroke="white" stroke-width="1.5" stroke-miterlimit="10" stroke-linecap="round" stroke-linejoin="round"/>
<circle cx="50" cy="60" r="20" fill="white"/>
<path d="M42 69H45V66H55V69H58V63H42V69ZM57 58H60V61H57V58ZM40 58H43V61H40V58ZM55 61H45V53C45 51.9 45.9 51 47 51H53C54.1 51 55 51.9 55 53V61Z" fill="#377EFA"/>
<defs>
<filter id="filter0_i_37_40394" x="0" y="-1" width="104" height="901" filterUnits="userSpaceOnUse" color-interpolation-filters="sRGB">
<feFlood flood-opacity="0" result="BackgroundImageFix"/>
<feBlend mode="normal" in="SourceGraphic" in2="BackgroundImageFix" result="shape"/>
<feColorMatrix in="SourceAlpha" type="matrix" values="0 0 0 0 0 0 0 0 0 0 0 0 0 0 0 0 0 0 127 0" result="hardAlpha"/>
<feOffset dy="-1"/>
<feGaussianBlur stdDeviation="2"/>
<feComposite in2="hardAlpha" operator="arithmetic" k2="-1" k3="1"/>
<feColorMatrix type="matrix" values="0 0 0 0 0 0 0 0 0 0 0 0 0 0 0 0 0 0 0.1 0"/>
<feBlend mode="normal" in2="shape" result="effect1_innerShadow_37_40394"/>
</filter>
</defs>
</svg>
