<svg width="45" height="45" viewBox="0 0 45 45" fill="none" xmlns="http://www.w3.org/2000/svg">
<g clip-path="url(#clip0_52_57797)">
<path d="M0.140242 34.1712L2.95274 20.1087L4.64024 10.8274C4.78087 10.4055 4.78087 9.98367 4.92149 9.70242V9.5618C5.48399 8.15555 6.60899 7.03055 7.59337 6.88992L40.0777 1.26492C43.4527 0.561798 44.4371 3.9368 44.7184 5.6243L44.2965 9.42117L41.484 39.9368C41.3434 41.2024 40.359 42.1868 39.234 42.0462L2.67149 38.6712C0.983992 38.6712 -0.000383437 35.1555 0.140242 34.1712Z" fill="#5C2E0E"/>
<path d="M1.40635 33.7492L5.34385 21.3742L7.17198 12.9367C7.17198 12.6555 7.3126 12.2336 7.45323 11.9523V11.8117C8.01573 10.6867 8.85948 9.84295 9.84385 9.70233L40.2189 4.92108C41.6251 4.63983 42.7501 5.48358 42.8907 6.88983L42.4689 10.5461L39.3751 37.6867C39.2345 38.8117 38.3907 39.5148 37.4064 39.5148L2.95323 36.5617C2.53135 36.5617 1.26573 34.4523 1.40635 33.7492Z" fill="#ED9828"/>
<path d="M6.74994 9.84375L19.4062 20.25L41.2031 4.35938L37.8281 33.8906C37.6874 34.875 36.8437 35.7187 35.9999 35.7187L2.53119 33.75C1.96869 33.75 1.82806 33.0469 1.96869 32.3438L6.74994 9.84375Z" fill="#FA9C39"/>
<path d="M37.5469 35.5788L20.6719 17.1569C20.25 16.5944 19.4062 16.735 18.7031 17.2975L1.40625 33.7507L37.5469 35.5788Z" fill="#692122"/>
<path d="M36.5625 35.5781L20.25 19.9687C19.8281 19.5468 18.9844 19.5468 18.2812 20.1093L2.25 34.1718L36.5625 35.5781Z" fill="#FFD085"/>
<path d="M6.75 9.84375L17.4375 26.2969C18 26.7188 18.7031 26.7188 19.4062 26.1562L41.625 4.64062L40.5 3.51562L7.73437 9.42187L6.75 9.84375Z" fill="#692122"/>
<path d="M7.59368 9.84367L17.7187 23.4843C18.2812 24.0468 18.9843 23.9062 19.6874 23.203L39.9374 4.92179C40.4999 4.35929 40.4999 3.37492 39.7968 3.51554L8.01556 8.71867C7.59368 8.71867 7.31243 9.56242 7.59368 9.84367Z" fill="#FFD085"/>
<path d="M37.2656 3.9375L18.9844 20.8125L9.28125 8.71875L37.2656 3.9375Z" fill="#FFE8B6"/>
<path d="M40.7812 7.875L27.8437 20.3906L37.8281 33.6094L40.7812 7.875ZM6.1875 12.6562L11.8125 21.7969L2.25 31.2188L6.1875 12.6562Z" fill="#FFD085"/>
</g>
<defs>
<clipPath id="clip0_52_57797">
<rect width="45" height="45" fill="white"/>
</clipPath>
</defs>
</svg>
