<svg width="32" height="32" viewBox="0 0 32 32" fill="none" xmlns="http://www.w3.org/2000/svg">
<path fill-rule="evenodd" clip-rule="evenodd" d="M10.2602 17.8549C9.40056 17.8549 8.70215 17.1564 8.70215 16.2968C8.70215 15.4396 9.40056 14.7412 10.2602 14.7412C11.1199 14.7412 11.8183 15.4396 11.8183 16.2968C11.8183 17.1564 11.1199 17.8549 10.2602 17.8549ZM16.3174 17.8549C15.4577 17.8549 14.7593 17.1564 14.7593 16.2968C14.7593 15.4396 15.4577 14.7412 16.3174 14.7412C17.1771 14.7412 17.8755 15.4396 17.8755 16.2968C17.8755 17.1564 17.1771 17.8549 16.3174 17.8549ZM20.8166 16.2968C20.8166 17.1564 21.515 17.8549 22.3747 17.8549C23.2343 17.8549 23.9328 17.1564 23.9328 16.2968C23.9328 15.4396 23.2343 14.7412 22.3747 14.7412C21.515 14.7412 20.8166 15.4396 20.8166 16.2968Z" fill="#200E32"/>
<path fill-rule="evenodd" clip-rule="evenodd" d="M16.027 2.66699C8.28033 2.66699 2.66699 8.99515 2.66699 16.0204C2.66699 18.2637 3.32033 20.5725 4.46699 22.6823C4.68033 23.0309 4.70699 23.4702 4.56033 23.8855L3.66699 26.8766C3.46699 27.5977 4.08033 28.1305 4.76033 27.9169L7.45366 27.117C8.18699 26.8766 8.76033 27.1824 9.44033 27.5977C11.387 28.7448 13.8137 29.3337 16.0003 29.3337C22.6137 29.3337 29.3337 24.2193 29.3337 15.9803C29.3337 8.87497 23.6003 2.66699 16.027 2.66699Z" stroke="#200E32" stroke-width="1.5" stroke-linecap="round" stroke-linejoin="round"/>
</svg>
