<svg width="24" height="24" viewBox="0 0 24 24" fill="none" xmlns="http://www.w3.org/2000/svg">
<mask id="mask0_0_370" style="mask-type:luminance" maskUnits="userSpaceOnUse" x="-3" y="-3" width="30" height="30">
<rect x="-2.3996" y="-2.4006" width="28.7992" height="28.7992" fill="white"/>
</mask>
<g mask="url(#mask0_0_370)">
<path fill-rule="evenodd" clip-rule="evenodd" d="M11.9997 0C5.49465 0 0 5.49465 0 11.9997C0 15.8264 1.91035 19.2931 4.79987 21.5082V21.5994H4.92226C6.92381 23.0934 9.37534 23.9993 11.9997 23.9993C14.624 23.9993 17.0755 23.0934 19.0771 21.5994H19.1995V21.5082C22.089 19.2931 23.9993 15.8276 23.9993 11.9997C23.9993 5.49465 18.5047 0 11.9997 0ZM7.2886 20.3118C7.64499 18.6979 9.08135 17.4871 10.7997 17.4871H13.1996C14.918 17.4871 16.3543 18.6991 16.7107 20.3118C15.3092 21.1242 13.6988 21.5994 11.9997 21.5994C10.3005 21.5994 8.69015 21.1242 7.2886 20.3118ZM18.7315 18.7687C17.8231 16.6087 15.686 15.0872 13.1996 15.0872H10.7997C8.31337 15.0872 6.17503 16.6099 5.26785 18.7687C3.5075 17.0179 2.39993 14.6108 2.39993 11.9997C2.39993 6.79541 6.79541 2.39994 11.9997 2.39994C17.2039 2.39994 21.5994 6.79541 21.5994 11.9997C21.5994 14.6108 20.4918 17.0179 18.7315 18.7687Z" fill="#4EAC6D"/>
<path fill-rule="evenodd" clip-rule="evenodd" d="M11.9997 4.7992C9.26374 4.7992 7.1998 6.86314 7.1998 9.59906C7.1998 12.335 9.26374 14.3989 11.9997 14.3989C14.7356 14.3989 16.7995 12.335 16.7995 9.59906C16.7995 6.86314 14.7356 4.7992 11.9997 4.7992ZM11.9997 11.999C10.5861 11.999 9.59973 11.0126 9.59973 9.59906C9.59973 8.18551 10.5861 7.19913 11.9997 7.19913C13.4132 7.19913 14.3996 8.18551 14.3996 9.59906C14.3996 11.0126 13.4132 11.999 11.9997 11.999Z" fill="#4EAC6D"/>
</g>
</svg>
