<svg width="22" height="22" viewBox="0 0 22 22" fill="none" xmlns="http://www.w3.org/2000/svg">
<path d="M14.1588 3.84766H3.93148C2.97182 3.84766 2.19238 4.62709 2.19238 5.58675V20.2609C2.19238 21.2206 2.97182 22 3.93148 22H14.1588C15.1185 22 15.8979 21.2206 15.8979 20.2609V5.58675C15.8934 4.62709 15.1139 3.84766 14.1588 3.84766ZM14.6769 20.2564C14.6769 20.5448 14.4426 20.779 14.1543 20.779H3.92697C3.63862 20.779 3.40434 20.5448 3.40434 20.2564V5.58675C3.40434 5.2984 3.63862 5.06412 3.92697 5.06412H14.1543C14.4426 5.06412 14.6769 5.2984 14.6769 5.58675V20.2564Z" fill="#8E8E8E"/>
<path d="M18.0699 0H7.84261C6.88295 0 6.10352 0.779439 6.10352 1.73909C6.10352 2.077 6.37384 2.34733 6.71175 2.34733C7.04966 2.34733 7.31998 2.077 7.31998 1.73909C7.31998 1.45075 7.55426 1.21647 7.84261 1.21647H18.0699C18.3583 1.21647 18.5926 1.45075 18.5926 1.73909V16.4133C18.5926 16.7016 18.3583 16.9359 18.0699 16.9359C17.732 16.9359 17.4617 17.2062 17.4617 17.5441C17.4617 17.882 17.732 18.1524 18.0699 18.1524C19.0296 18.1524 19.809 17.3729 19.809 16.4133V1.73909C19.809 0.779439 19.0296 0 18.0699 0Z" fill="#8E8E8E"/>
</svg>
