<svg width="200" height="73" viewBox="0 0 200 73" fill="none" xmlns="http://www.w3.org/2000/svg">
<g clip-path="url(#clip0_52_34588)">
<path d="M69.2944 67.217V66.8568L69.4787 66.2954L69.7971 65.1728L70.8695 61.5032C70.9616 61.2435 73.1483 53.854 75.4523 46.0121L75.5193 45.8194C78.3427 36.3522 82.1212 23.4584 82.1212 23.4584L82.3893 22.5116C82.4712 22.2725 82.6242 22.0641 82.8279 21.9144C83.0315 21.7646 83.2761 21.6807 83.5287 21.6738H86.6119C86.9302 21.6738 88.5472 21.6738 88.7986 21.6738H90.2312C91.3084 21.657 92.385 21.7355 93.4484 21.9084C94.9338 22.1508 96.3358 22.7583 97.5285 23.6762C98.7156 24.6219 99.6605 25.8367 100.285 27.2201L100.427 27.0274C101.449 25.4386 102.846 24.1263 104.496 23.2071C106.146 22.2878 107.998 21.7899 109.886 21.7576H119.387C119.688 21.756 119.98 21.8666 120.204 22.0679C120.429 22.2692 120.57 22.5468 120.602 22.8468L120.694 24.0951L120.895 26.8096C120.895 26.8766 120.895 27.2704 120.962 27.9155L121.264 27.3542C122.217 25.4849 123.696 23.9355 125.52 22.897C126.985 22.1108 128.624 21.7073 130.287 21.7241C130.999 21.7241 132.75 21.7241 133.981 21.7241H135.255H136.604H139.201H147.68C149.483 21.7894 151.254 22.2256 152.881 23.0054C154.508 23.7852 155.958 24.892 157.138 26.2566C157.138 26.2566 157.784 27.0107 158.102 27.3709L158.94 26.9185L161.713 25.2932C164.796 23.517 168.6 21.7073 173.526 21.7073H198.367C198.622 21.704 198.871 21.784 199.077 21.9352C199.283 22.0864 199.433 22.3006 199.506 22.5452L199.557 22.8719C199.557 23.0757 199.505 23.2761 199.405 23.4537C199.305 23.6314 199.161 23.7802 198.987 23.8856L197.663 24.7235L186.537 31.5935C184.535 32.8334 176.282 37.7681 170.468 41.2534C175.369 46.7661 184.92 57.4901 187.517 60.5229L193.332 67.3511C193.512 67.5672 193.61 67.8403 193.608 68.1218L193.516 68.6245C193.415 68.8306 193.259 69.0047 193.066 69.1275C192.872 69.2502 192.648 69.3169 192.418 69.3199H175.411C172.821 69.3028 170.268 68.6974 167.946 67.5494C165.624 66.4013 163.593 64.7407 162.006 62.6929C162.006 62.6929 158.655 58.6379 156.468 56.0909C157.407 57.7665 158.404 59.6097 159.342 61.411L162.442 67.4684L162.576 68.0129C162.572 68.234 162.511 68.4504 162.4 68.6413C162.293 68.8181 162.141 68.9637 161.961 69.0637C161.78 69.1636 161.576 69.2144 161.369 69.211H146.892C145.09 69.2511 143.314 68.7837 141.765 67.8621C140.477 67.0553 139.373 65.9879 138.522 64.7287C137.935 63.8648 137.425 62.9509 136.998 61.9975L136.796 61.5534L132.557 64.1087C129.549 65.9519 125.964 67.9291 121.364 68.2978C120.148 69.5006 118.684 70.424 117.075 71.0039C114.961 71.7504 112.73 72.1053 110.489 72.0512C109.828 72.0512 109.191 72.0512 108.571 71.9841L104.993 71.7495C104.717 71.7259 104.457 71.6069 104.258 71.4128C104.059 71.2187 103.934 70.9616 103.904 70.6855L103.854 70.3085L103.628 67.0578C103.443 64.6449 103.217 61.3943 103.008 58.0346C100.948 59.4397 98.5054 60.1768 96.0121 60.1459C95.1711 60.147 94.3312 60.0882 93.4986 59.97L91.2868 59.6768C90.8592 61.0645 90.2477 62.3888 89.4688 63.6144C88.2439 65.463 86.4629 66.8743 84.3833 67.6443C83.4868 67.9719 82.552 68.1831 81.6018 68.2726C80.8669 68.3463 80.1285 68.3798 79.39 68.3732H70.5009C70.3198 68.3749 70.1408 68.3359 69.9769 68.2591C69.813 68.1822 69.6685 68.0694 69.5541 67.9291C69.4026 67.7231 69.3231 67.4728 69.3279 67.217" fill="black"/>
<path d="M197.026 23.5085L194.387 25.1339L185.934 30.3618C183.764 31.6855 174.28 37.3659 168.608 40.759C173.92 46.7158 183.973 58.0094 186.612 61.1177L190.559 65.7675L191.815 67.2253L192.427 67.9458H183.052H175.386C172.978 67.9229 170.606 67.3538 168.449 66.2813C166.293 65.2089 164.408 63.661 162.936 61.7544L155.94 53.3764C155.371 52.6977 154.801 52.0359 154.265 51.4159L154.214 51.3572L154.147 51.2818L154.005 51.1059C153.687 50.7205 153.368 50.3519 153.092 50.0084L152.162 50.5781C152.933 51.994 153.779 53.5439 154.349 54.5493C155.672 56.8952 157.038 59.3667 158.269 61.7879L160.389 65.9016L161.051 67.1918L161.394 67.8369H146.867C145.284 67.8401 143.73 67.4083 142.376 66.5886C141.237 65.8586 140.261 64.9001 139.511 63.7735C138.958 62.9794 138.476 62.1384 138.07 61.2601C137.819 60.6904 137.567 60.1207 137.366 59.5845L131.937 62.8603C129.064 64.6113 125.486 66.6472 120.811 66.8986C119.664 68.1493 118.225 69.0963 116.622 69.6549C114.639 70.3501 112.548 70.6876 110.447 70.6519C109.802 70.6519 109.216 70.6519 108.621 70.5849L105.471 70.3755H105.086V69.9901L105.035 69.2277L104.851 66.7896C104.625 63.7903 104.348 59.5259 104.105 55.3284L103.804 55.6468C102.797 56.6662 101.592 57.4691 100.264 58.0065C98.9356 58.5439 97.5116 58.8043 96.0791 58.7718H95.9702C95.2133 58.7645 94.4577 58.7085 93.7081 58.6043L91.7476 58.3362L91.136 58.2524H90.8093L90.7674 57.9424L90.6752 57.5822L90.4909 58.2021C90.0521 59.8224 89.3774 61.3693 88.4885 62.7933C87.4108 64.4335 85.8375 65.6869 83.9979 66.3707C83.1865 66.661 82.3423 66.8496 81.4845 66.9321C80.7882 66.9952 80.0891 67.0232 79.39 67.0159H70.4841L70.66 66.4461L70.9784 65.3067L72.0675 61.6623C72.1597 61.4109 74.3045 54.122 76.6503 46.1461L76.7006 46.012C79.524 36.4862 82.5653 26.0639 82.7412 25.6114L83.3109 23.6091L83.4952 22.9724L83.579 22.6624H84.5844H86.6621H89.2845C89.6028 22.6624 89.9463 22.6624 90.2815 22.6624C91.2916 22.6449 92.3013 22.7206 93.2976 22.8886C94.5894 23.101 95.8092 23.6275 96.8499 24.4218C98.1251 25.4709 99.0873 26.8505 99.6314 28.4097C99.8325 28.9794 100 29.5408 100.134 30.0853C100.57 29.2056 100.905 28.4935 101.114 28.0997V28.0411C101.19 27.9405 101.273 27.7646 101.416 27.5552C102.332 26.1312 103.585 24.9545 105.064 24.129C106.542 23.3035 108.201 22.8545 109.895 22.8215H119.395L119.446 23.2321L119.513 24.0699L119.697 26.6922C119.697 26.7592 119.806 28.4935 120.015 31.0321C120.015 31.4845 120.057 31.9704 120.107 32.4647C120.107 32.6909 120.107 32.9171 120.107 33.1601L120.652 31.7023V31.6185C121.094 30.2472 121.657 28.9181 122.336 27.6473C123.189 25.9867 124.5 24.6056 126.114 23.6677C127.402 22.978 128.842 22.6209 130.303 22.6289H134.585H135.272H136.57H139.084H139.218H147.696C149.336 22.7029 150.942 23.1129 152.417 23.8335C153.891 24.5541 155.202 25.5699 156.267 26.8179C156.77 27.3792 157.289 28.0159 157.817 28.6192L162.266 26.1057C165.299 24.3464 168.826 22.6707 173.459 22.6707H198.3L197.026 23.5085ZM173.568 27.4211C170.108 27.4211 167.502 28.5857 164.679 30.211L159.367 33.2103C158.705 33.5706 158.161 33.889 157.775 34.1152L157.138 34.4838L156.795 34.6598L156.569 34.3749L156.083 33.8052C155.404 32.9674 153.946 31.2247 152.799 29.9178C152.134 29.1573 151.329 28.5316 150.428 28.0746C149.601 27.6248 148.679 27.3778 147.738 27.3541H140.357C141.195 28.4265 142.594 30.077 144.002 31.7777C145.92 34.0984 147.948 36.5029 148.903 37.6423L149.59 38.4802L149.933 38.8907L149.473 39.1504L148.543 39.6698L144.303 42.0492L143.465 42.4933L143.08 42.7195L142.879 42.3089L142.443 41.4711C141.17 38.9577 136.813 30.6299 134.945 27.3373C133.981 27.3373 131.225 27.3373 130.362 27.3373C129.687 27.3153 129.019 27.4744 128.427 27.7981C127.888 28.0915 127.426 28.5076 127.078 29.0129C126.673 29.5893 126.33 30.2071 126.056 30.8561C125.763 31.5515 125.511 32.2804 125.218 33.0679L119.27 49.4806L119.152 49.8157H118.792L117.116 49.5811L116.773 49.5224V49.1706C116.614 47.1347 116.413 44.4034 116.203 41.5549V41.4544L116.161 40.9014L116.094 39.896C115.684 34.4754 115.256 29.0046 115.181 27.3289H110.029C109.116 27.3596 108.224 27.614 107.432 28.0698C106.64 28.5256 105.973 29.1688 105.488 29.9429L105.312 30.278L105.153 30.588C104.239 32.4563 101.868 37.4915 100.519 40.382V40.449L100.469 40.5244L99.4219 42.7613L98.9025 43.884L98.6009 42.6943L97.9893 40.2814L96.0958 32.7412L96.0288 32.4061C95.869 31.5055 95.625 30.6219 95.2999 29.767C95.0467 29.0816 94.633 28.4668 94.0935 27.9741C93.645 27.6576 93.1284 27.4509 92.5854 27.3708C91.8761 27.2598 91.1586 27.2093 90.4406 27.22H89.1002H87.1481C86.0757 30.831 78.2338 57.3811 76.8179 62.1314H79.2811C80.3054 62.1923 81.3324 62.0703 82.3139 61.7712C83.2195 61.451 83.9902 60.8339 84.5006 60.0202C85.1419 58.9825 85.6195 57.8521 85.9165 56.6689L89.8542 43.5656L90.8344 40.2144L91.3371 38.5388L91.7057 40.2144L92.4095 43.5656L93.2473 47.3609L93.2976 47.5368C93.4735 48.4417 94.3867 52.5637 94.6883 53.8958C95.1407 53.8958 95.5261 53.9628 95.9199 53.9628C96.7373 54.0095 97.5555 53.8846 98.3217 53.596C99.0879 53.3074 99.7852 52.8616 100.369 52.2872C101.369 51.135 102.176 49.8277 102.756 48.4165L102.823 48.316L105.58 42.9792L107.088 40.0887L107.808 38.6393L107.901 40.2647L108.085 43.5154C108.378 48.6511 108.998 59.7018 109.45 65.9183C109.794 65.9183 110.137 65.9183 110.481 65.9183C112.015 65.9558 113.543 65.7233 114.997 65.2313C116.222 64.8172 117.257 63.9755 117.912 62.8603L118.18 62.3744L118.323 62.1314H118.599H119.169H119.848C123.584 62.1314 126.483 60.5731 129.449 58.7802L138.271 53.4685L139.109 52.9491L139.544 52.6894L139.746 53.1502L140.156 54.0634C140.474 54.7504 140.935 55.806 141.187 56.4511L141.388 56.9705C141.881 58.4421 142.551 59.8486 143.382 61.1596C143.766 61.7507 144.271 62.2534 144.865 62.6341C145.467 63.0015 146.161 63.1903 146.867 63.1787H153.662C152.572 61.1009 151.383 58.9897 150.227 56.9203C149.313 55.2447 147.713 52.2956 146.8 50.6284C146.683 50.4105 146.565 50.2095 146.482 50.0335L146.088 49.2879L145.887 48.9108L146.247 48.693L146.976 48.2657L153.176 44.5543L153.821 44.1772L154.139 43.9845L154.365 44.2778L154.868 44.8475L155.279 45.3502C156.192 46.4728 157.792 48.3663 159.518 50.377C162.207 53.6109 165.24 57.2386 166.547 58.797C167.587 60.0989 168.87 61.186 170.326 61.9974C171.882 62.8543 173.634 63.293 175.411 63.2709H175.461H182.164C177.874 58.3194 165.248 44.1605 162.324 40.8679L161.621 40.0301L161.252 39.6363L161.713 39.3766L162.626 38.8237C165.701 36.9972 176.869 30.2948 181.678 27.4211H173.568ZM136.319 46.9169L135.607 47.319L127.539 51.9437L125.235 53.2674L124.095 53.9293L124.623 52.7145L125.687 50.2681L130.613 38.8488L131.409 37.0307L131.795 36.1175L132.205 37.0224L133.043 38.8237L136.168 45.6183L136.486 46.3472L136.671 46.7158" fill="#D1D1D4"/>
<path d="M189.428 25.3937L184.552 28.4098C182.164 29.8927 170.401 36.9219 165.282 39.9632L164.846 40.2229C169.161 45.0486 181.736 59.1824 184.677 62.6174L186.939 65.3068L187.191 65.6H175.319C171.13 65.6 167.619 63.8406 164.654 60.2716L155.781 49.6817L155.605 49.4974C154.767 48.5088 154.072 47.6458 153.528 46.984L148.97 49.7068C149.9 51.3825 151.366 54.1556 152.229 55.6972C153.528 58.0095 154.893 60.4643 156.125 62.852L157.331 65.223L157.474 65.4744H146.825C145.814 65.4824 144.815 65.2468 143.914 64.7875C143.013 64.3281 142.235 63.6585 141.647 62.8353C141.075 62.0476 140.581 61.2057 140.173 60.3219C139.754 59.484 139.419 58.5541 139.117 57.7582L138.975 57.356C138.841 57.0293 138.656 56.602 138.455 56.158L130.655 60.8497C127.556 62.7599 124.137 64.6282 119.647 64.5612C118.786 65.8091 117.572 66.7718 116.161 67.3259C113.823 68.1866 111.317 68.4963 108.839 68.2307L107.431 68.1302H107.255V67.971L107.147 66.5719C106.778 61.7126 106.309 53.3597 105.94 47.5034L104.977 49.3633C104.564 50.2772 104.1 51.1668 103.586 52.0276C103.035 52.9366 102.349 53.756 101.55 54.4572C99.8744 55.8899 97.5369 56.7277 93.9595 56.2334L92.82 56.1328H92.7028V56.0155L92.4514 54.8929C92.4514 54.6248 91.245 49.3215 90.9936 48.1904L88.2205 57.4733C87.3827 60.1375 86.3438 62.9191 83.1937 64.1171C82.5108 64.3617 81.7976 64.5111 81.074 64.5612C80.3382 64.619 79.6 64.6386 78.8622 64.6198H73.6762L73.7432 64.3852L74.3548 62.2907C74.5391 61.721 84.886 26.6169 84.9782 26.265L85.3217 25.1172L85.3636 24.9832H88.9243C90.0867 24.9286 91.2516 24.9594 92.4095 25.0753C93.4859 25.1676 94.5141 25.5626 95.3754 26.2147C96.2765 26.9365 96.956 27.8976 97.3358 28.9879C97.7397 30.0755 98.0453 31.197 98.249 32.3391L99.4136 36.9722C100.352 34.9782 101.24 33.0848 101.927 31.6186C102.321 30.8227 102.639 30.1608 102.865 29.6749C102.999 29.4152 103.092 29.2141 103.184 29.0633L103.36 28.7449C104.059 27.6391 105.021 26.7233 106.159 26.0787C107.298 25.4341 108.578 25.0808 109.886 25.0502H117.225V25.2261L117.343 26.7342C117.343 26.9688 118.072 36.6706 118.616 44.1187L122.881 32.3391C123.132 31.6186 123.425 30.7975 123.769 29.9932C124.137 29.1603 124.601 28.373 125.151 27.6474C125.728 26.824 126.5 26.1561 127.397 25.703C128.294 25.2498 129.29 25.0256 130.295 25.0502H135.247H136.319H139.05H147.621C148.93 25.111 150.214 25.4398 151.391 26.0162C152.568 26.5926 153.615 27.4044 154.466 28.4014C155.371 29.4235 156.468 30.7305 157.222 31.6437C159.132 30.5713 162.509 28.6779 163.372 28.1668C165.977 26.6755 169.144 25.0586 173.425 25.0586H189.955L189.428 25.3937ZM146.121 38.2456C144.044 35.7322 140.257 31.25 138.464 29.0298C140.307 32.4313 142.72 37.0895 144.002 39.5442L146.163 38.321L146.121 38.2456ZM131.803 41.9655L129.038 48.2993L133.512 45.7356" fill="white"/>
<path d="M184.074 27.648C181.426 29.2734 167.209 37.7687 163.422 40.0308C166.773 43.7758 180.84 59.5601 183.982 63.2381L185.213 64.6959H183.303H175.319C173.298 64.7191 171.304 64.2229 169.53 63.2548C167.921 62.3437 166.499 61.1354 165.341 59.6942C163.104 57.0132 155.697 48.1659 153.712 45.8201L147.738 49.431C148.576 50.9391 150.402 54.3741 151.433 56.2089C152.732 58.538 154.097 60.9676 155.304 63.3302L155.966 64.6121H154.508H146.825C145.881 64.6207 144.952 64.3747 144.136 63.8999C143.392 63.4444 142.748 62.8431 142.242 62.1322C141.744 61.4115 141.31 60.6491 140.944 59.8533C140.583 59.0155 140.265 58.1777 139.963 57.4321L139.829 57.0886C139.603 56.5105 139.193 55.5889 138.891 54.9019L130.211 60.1214C127.061 62.0651 123.693 63.9083 119.152 63.6989C118.664 64.5005 118.021 65.1975 117.262 65.7497C116.503 66.3018 115.642 66.6982 114.729 66.916C112.813 67.3977 110.831 67.5535 108.864 67.3768H108.11L108.043 66.6144C107.582 60.6828 106.971 49.6656 106.652 44.1863L104.139 49.054C103.703 49.8918 103.301 50.7966 102.798 51.6177C102.283 52.4666 101.645 53.2346 100.905 53.8965C100.09 54.5969 99.1189 55.0911 98.0731 55.3376C96.7583 55.6349 95.3983 55.6747 94.0683 55.4549L93.4484 55.3794L93.3143 54.7846C93.2473 54.4662 91.8063 47.8476 91.8063 47.8476L91.0774 44.555L87.2905 57.3148C86.9485 58.6272 86.4119 59.8811 85.6987 61.0346C85.0106 62.1049 83.9932 62.9224 82.7998 63.3637C82.1631 63.5894 81.4972 63.7221 80.8226 63.7575C80.1608 63.8078 79.4486 63.7575 78.7449 63.7575H76.089H74.9077L75.2428 62.6181C75.335 62.2662 79.0716 49.5818 82.1045 39.369L82.1966 39.0422C84.1822 32.3398 85.8495 26.7432 85.8662 26.6092L86.0505 25.9808H88.9242C89.9716 25.9327 91.0211 25.9523 92.066 26.0395C93.0572 26.101 94.0117 26.4376 94.8224 27.0113C95.6243 27.6909 96.2243 28.5777 96.5566 29.575C96.9183 30.5614 97.1985 31.5757 97.3944 32.6079L99.2125 39.7795C99.7152 38.682 100.352 37.308 101.014 35.9172C101.743 34.384 102.472 32.8257 103.066 31.6109C103.343 31.0076 103.594 30.4966 103.77 30.1196L104.021 29.6336L104.114 29.4745L104.181 29.332C104.792 28.3474 105.634 27.5267 106.634 26.9412C107.634 26.3558 108.762 26.0232 109.92 25.9724H116.388L116.438 26.8102C116.438 27.0867 117.51 41.2624 118.055 48.4759L123.777 32.6749C124.053 31.9041 124.33 31.1082 124.615 30.3709C124.925 29.6104 125.321 28.8879 125.796 28.2178C126.303 27.5021 126.979 26.9227 127.764 26.531C128.549 26.1394 129.418 25.9475 130.295 25.9724C131.351 25.9724 135.221 26.0143 135.221 26.0143H135.741L135.992 26.4584C137.014 28.268 139.025 32.0633 140.776 35.3894C141.966 37.6515 143.03 39.7125 143.599 40.8016L147.579 38.5395C146.741 37.5844 145.342 35.8921 143.859 34.1159C141.58 31.3763 139.117 28.3853 138.372 27.4135L137.274 25.9724H139.092H147.621C148.792 26.0041 149.939 26.3082 150.972 26.8605C152.03 27.3994 152.974 28.136 153.754 29.0304C154.868 30.3039 156.267 31.9879 156.988 32.8508C158.605 31.9376 162.852 29.5834 163.833 28.9969C166.74 27.2878 169.571 25.9724 173.442 25.9724H186.738L184.074 27.648ZM131.778 39.7041L127.128 50.4699L134.719 46.1133" fill="#ED1C38"/>
<path d="M133.537 45.7359L129.038 48.2996L131.778 41.9658L133.537 45.7359ZM146.105 38.2794L143.943 39.5026C142.661 37.0479 140.248 32.3896 138.405 28.9881C140.232 31.2335 143.985 35.7492 146.063 38.204L146.105 38.2794ZM165.282 39.955C170.367 36.9138 182.13 29.9014 184.552 28.4017L189.428 25.3856L189.955 25.0588H173.442C169.161 25.0588 165.994 26.6758 163.389 28.1671C162.551 28.6782 159.149 30.5716 157.239 31.644C156.485 30.7308 155.387 29.4238 154.483 28.4017C153.631 27.4058 152.584 26.5948 151.407 26.0185C150.229 25.4422 148.947 25.1127 147.638 25.0505H139.067H136.336H135.263H130.312C129.307 25.0259 128.311 25.2501 127.414 25.7032C126.516 26.1564 125.745 26.8243 125.168 27.6477C124.627 28.3855 124.174 29.184 123.819 30.027C123.475 30.8648 123.182 31.6524 122.931 32.3645L118.65 44.1357C118.105 36.6876 117.393 26.9774 117.376 26.7512L117.259 25.2432V25.0672H109.92C108.613 25.0977 107.333 25.45 106.195 26.093C105.056 26.736 104.094 27.6499 103.393 28.7536L103.217 29.0719C103.125 29.2311 103.033 29.4322 102.899 29.6835C102.673 30.1778 102.354 30.8397 101.961 31.6272C101.257 33.1018 100.369 34.9785 99.4471 36.9976L98.2826 32.3478C98.0788 31.2057 97.7732 30.0841 97.3693 28.9965C96.9895 27.9062 96.3101 26.9451 95.4089 26.2234C94.5326 25.5833 93.4924 25.2055 92.4095 25.1342C91.7143 25.0544 91.0148 25.0181 90.315 25.0253H88.9243H85.3636L85.3217 25.1594L84.9782 26.3072C84.886 26.6339 74.5391 61.738 74.3548 62.3329L73.7432 64.3939L73.6762 64.6284H76.0891H78.2338H78.7784H79.1638C79.8005 64.6284 80.4456 64.6284 81.0572 64.5698C81.7721 64.5103 82.4761 64.3582 83.1518 64.1174C86.3438 62.9193 87.3911 60.1378 88.1786 57.482L90.935 48.1572C91.1863 49.2798 92.3509 54.5831 92.3928 54.8596L92.6441 55.9823V56.0996H92.7614L93.9008 56.2504C94.5506 56.3392 95.2054 56.3868 95.8613 56.3928C97.9341 56.4905 99.9668 55.799 101.55 54.4575C102.347 53.7505 103.031 52.9255 103.577 52.0111C104.093 51.1512 104.558 50.2616 104.968 49.3469L105.932 47.4953C106.275 53.3599 106.77 61.738 107.138 66.547L107.247 67.9545V68.1137H107.415L108.797 68.2143C109.417 68.2143 109.987 68.2729 110.531 68.2729C112.447 68.3189 114.354 67.9917 116.145 67.3094C117.558 66.7482 118.778 65.7875 119.655 64.5447H119.823C124.204 64.5447 127.572 62.7099 130.605 60.8332L138.405 56.1415C138.606 56.5855 138.791 56.9793 138.908 57.3312L139.092 57.8087C139.394 58.6465 139.729 59.4843 140.148 60.3724C140.556 61.2563 141.05 62.0981 141.622 62.8858C142.207 63.7137 142.983 64.3881 143.885 64.852C144.786 65.3158 145.786 65.5553 146.8 65.55H157.448L157.306 65.2903L156.125 62.8355C154.893 60.4478 153.528 57.993 152.229 55.6807C151.391 54.1307 149.9 51.4079 148.97 49.6904L153.528 46.9759C154.072 47.6126 154.784 48.4755 155.605 49.4893L155.781 49.682L164.654 60.3221C167.619 63.8912 171.105 65.6506 175.319 65.6506H187.199L186.948 65.3573L184.686 62.668C181.745 59.233 169.169 45.074 164.855 40.2734L165.29 40.0137" fill="#1B2728"/>
<path d="M173.442 26.8767C169.848 26.8767 167.159 28.0916 164.302 29.742L156.828 33.9311C156.828 33.9311 154.684 31.3506 153.134 29.5661C152.446 28.7607 151.604 28.1017 150.657 27.6281C149.71 27.1546 148.678 26.8763 147.621 26.8097H139.05C140.533 28.7115 148.92 38.7233 148.92 38.7233L143.281 41.9908C143.281 41.9908 137.308 30.4542 135.255 26.9102C135.255 26.9102 131.384 26.9102 130.329 26.9102C126.843 26.9102 125.704 29.9934 124.657 33.043L117.502 52.7566C117.502 52.7566 115.625 27.3292 115.608 26.9521H109.953C108.943 26.9839 107.957 27.2634 107.08 27.7659C106.204 28.2685 105.464 28.9787 104.926 29.8342C104.583 30.3369 98.9528 42.4013 98.9528 42.4013L96.5148 32.8168C96.0791 30.7474 95.6769 28.7953 94.3029 27.7062C93.1216 26.7846 91.1109 26.8265 88.9494 26.8684H86.7376C86.6454 27.2035 76.2733 62.2908 76.1142 62.894H78.2589C79.6971 63.0118 81.1447 62.8843 82.5401 62.517C84.7268 61.6792 85.64 59.8863 86.5113 57.0462L91.2701 40.977L92.7279 47.6795L94.2359 54.5914C100.101 55.4292 101.734 52.1282 103.402 48.6681L107.389 40.9016C107.389 40.9016 108.345 58.4956 108.965 66.5553C112.5 66.7898 116.966 66.3458 118.583 62.9862L118.65 62.8438H118.809C123.232 63.1705 126.517 61.4111 129.751 59.4339L139.26 53.6195C139.26 53.6195 140.215 55.7057 140.625 56.7445C141.899 60.012 143.206 63.7486 146.825 63.7486H154.508C153.318 61.4027 151.994 58.9899 150.654 56.6524C149.313 54.3149 146.574 49.1121 146.574 49.1121L153.913 44.722L166.044 59.1826C168.256 61.8552 171.172 63.8575 175.319 63.8575H183.303C179.742 59.6685 162.056 39.8627 162.056 39.8627C162.056 39.8627 180.564 28.8037 183.596 26.9354L173.442 26.8767ZM131.753 37.5336L135.858 46.4814L125.285 52.5639" fill="#ED1C38"/>
<path d="M105.287 7.95888C104.915 8.07181 104.534 8.14758 104.147 8.18509C103.892 8.22077 103.634 8.23757 103.376 8.23536C102.874 8.23536 102.329 8.19347 101.801 8.15158C101.315 8.10969 100.863 8.07617 100.402 8.07617C100.122 8.07945 99.8423 8.09904 99.5644 8.13482C99.0581 8.19877 98.5606 8.31962 98.0814 8.49508V8.42805C98.1823 7.59958 98.5541 6.82763 99.1389 6.2322C99.7237 5.63677 100.489 5.25122 101.315 5.13547H101.801C102.615 5.17173 103.396 5.46079 104.038 5.96238C104.679 6.46397 105.148 7.1531 105.379 7.93375V7.97564L105.287 7.95888ZM107.23 8.65426L107.18 8.19347C107.143 7.85623 107.068 7.52444 106.954 7.20486C106.635 6.06981 105.956 5.06903 105.019 4.35292C104.082 3.6368 102.938 3.24404 101.759 3.23365C101.515 3.23548 101.272 3.25508 101.031 3.2923C100.297 3.3875 99.5893 3.62859 98.9501 4.00136C98.3109 4.37413 97.7527 4.87105 97.3085 5.46284C96.8642 6.05464 96.5429 6.72934 96.3634 7.44722C96.184 8.16511 96.1499 8.91164 96.2634 9.64287C96.4093 10.9853 97.0511 12.2249 98.063 13.1191C99.0749 14.0132 100.384 14.4974 101.734 14.477C101.978 14.478 102.222 14.4612 102.463 14.4267C103.2 14.3541 103.915 14.1369 104.568 13.7876C105.22 13.4383 105.798 12.9636 106.267 12.3909L106.342 12.1563L106.225 11.9636C106.041 11.8463 105.471 11.5614 105.127 11.4023L104.926 11.3017L104.7 11.2263L104.474 11.352C103.899 12.0174 103.1 12.4495 102.229 12.5668H101.751C101.005 12.5644 100.277 12.3368 99.6627 11.9137C99.0483 11.4907 98.576 10.8919 98.3077 10.1958V10.1539C98.8799 9.90095 99.5001 9.77518 100.126 9.7853H100.519L101.433 9.88584C102.057 9.98201 102.686 10.0352 103.318 10.045C103.747 10.0435 104.175 10.0127 104.6 9.95286C105.449 9.82688 106.268 9.5427 107.012 9.11505C107.239 8.95587 107.239 8.82182 107.222 8.58724" fill="white"/>
<path d="M134.057 3.85375L133.806 3.59403H132.373L132.122 3.85375V13.9326L132.373 14.1923H133.806L134.057 13.9326" fill="white"/>
<path d="M133.102 4.50634e-09C132.76 -2.84276e-05 132.432 0.134485 132.189 0.374408C131.946 0.614331 131.808 0.940346 131.803 1.28184C131.829 1.605 131.976 1.90648 132.214 2.1263C132.453 2.34613 132.765 2.46818 133.089 2.46818C133.413 2.46818 133.726 2.34613 133.964 2.1263C134.202 1.90648 134.349 1.605 134.375 1.28184C134.373 0.943992 134.238 0.620469 134 0.380785C133.762 0.141101 133.44 0.00438084 133.102 4.50634e-09Z" fill="white"/>
<path d="M114.318 5.13574C114.803 5.14106 115.282 5.24318 115.727 5.43611C116.173 5.62903 116.575 5.90888 116.91 6.25925C117.246 6.60961 117.508 7.02344 117.682 7.47647C117.855 7.92951 117.936 8.41262 117.921 8.89749C117.947 9.37354 117.876 9.84993 117.713 10.298C117.551 10.7461 117.299 11.1566 116.973 11.5049C116.648 11.8532 116.255 12.132 115.819 12.3246C115.383 12.5172 114.912 12.6197 114.435 12.6257C113.47 12.6374 112.537 12.2774 111.83 11.6204C111.477 11.2754 111.198 10.8618 111.011 10.405C110.823 9.9483 110.732 9.45808 110.741 8.96451C110.711 7.98344 111.071 7.0305 111.741 6.31332C112.411 5.59615 113.337 5.17288 114.318 5.13574ZM114.268 14.4605H114.544C115.253 14.465 115.955 14.3279 116.609 14.0574C117.264 13.787 117.858 13.3885 118.356 12.8854C118.867 12.3549 119.269 11.7289 119.537 11.0432C119.806 10.3575 119.937 9.6255 119.923 8.88911C119.939 8.14915 119.806 7.41352 119.534 6.72545C119.261 6.03737 118.854 5.41073 118.335 4.88233C117.817 4.35393 117.198 3.93443 116.516 3.64848C115.833 3.36252 115.1 3.21588 114.36 3.21716C113.126 3.20927 111.926 3.61883 110.954 4.3793C109.982 5.13977 109.296 6.20649 109.006 7.40619C108.841 8.25608 108.765 9.12095 108.78 9.98664V17.8955L109.032 18.1553H110.439L110.69 17.8872V12.9022L110.757 12.9692C111.722 13.8537 112.961 14.3802 114.268 14.4605Z" fill="white"/>
<path d="M89.0583 5.13617C89.543 5.14262 90.0217 5.24551 90.4663 5.43882C90.9108 5.63214 91.3125 5.91202 91.6478 6.26216C91.9831 6.61229 92.2454 7.02567 92.4193 7.47819C92.5932 7.93072 92.6754 8.41334 92.6609 8.89792C92.6869 9.37396 92.6164 9.85036 92.4535 10.2984C92.2907 10.7465 92.0389 11.1571 91.7133 11.5053C91.3878 11.8536 90.9951 12.1324 90.559 12.3251C90.1229 12.5177 89.6523 12.6201 89.1756 12.6262C88.2102 12.6378 87.2773 12.2778 86.57 11.6208C86.2154 11.2765 85.9351 10.8632 85.7464 10.4065C85.5576 9.9497 85.4644 9.45911 85.4725 8.96494C85.443 7.98387 85.8025 7.03093 86.4726 6.31375C87.1427 5.59658 88.0691 5.17331 89.0499 5.13617M89.0499 14.461H89.318C90.0263 14.4654 90.7283 14.3283 91.3829 14.0579C92.0375 13.7874 92.6315 13.389 93.13 12.8859C94.156 11.8147 94.7162 10.3809 94.6884 8.89792C94.7359 7.5208 94.2707 6.17503 93.3828 5.12129C92.4949 4.06755 91.2476 3.38082 89.8823 3.19413C88.5171 3.00744 87.1312 3.33408 85.993 4.11076C84.8548 4.88745 84.0454 6.05891 83.7215 7.39824C83.5719 8.24996 83.5045 9.11408 83.5204 9.97869V17.8876L83.7717 18.1473H85.1876L85.4306 17.8792V12.9026L85.506 12.9697C86.4658 13.8618 87.7079 14.3895 89.0164 14.461" fill="white"/>
<path d="M121.297 12.6924C121.859 13.2545 122.526 13.6996 123.261 14.0016C123.996 14.3036 124.784 14.4566 125.578 14.4518H125.687C128.678 14.4518 130.019 12.7761 130.019 11.1843C130.019 8.95574 127.899 8.34414 127.262 8.2101L126.625 8.08442C126.098 7.98389 125.553 7.87497 125.076 7.74092C124.732 7.64876 123.593 7.27175 123.593 6.43395C123.593 5.59614 124.573 5.02643 125.553 5.02643C126.413 4.99903 127.251 5.29839 127.899 5.86424L128.175 5.97315L128.427 5.88099C128.772 5.6236 129.099 5.34372 129.407 5.04319L129.499 4.81698L129.34 4.55726C128.271 3.66026 126.905 3.19685 125.511 3.25866C123.258 3.25866 121.565 4.69969 121.565 6.60988C121.565 8.12631 122.797 9.20709 125.076 9.65112L126.491 9.91922C127.405 10.0868 127.924 10.5895 127.924 11.2765C127.924 11.9635 127.086 12.6505 125.721 12.6505C124.64 12.6432 123.603 12.2236 122.822 11.4775L122.596 11.3602L122.386 11.4524L121.247 12.3153L121.18 12.4745L121.297 12.6924Z" fill="white"/>
<path d="M197.227 64.8124C197.332 64.8124 197.432 64.8539 197.506 64.9277C197.58 65.0016 197.621 65.1017 197.621 65.2062C197.621 65.3106 197.58 65.4108 197.506 65.4846C197.432 65.5585 197.332 65.6 197.227 65.6H196.683V64.8124H197.227ZM197.529 66.1194C197.727 66.0717 197.901 65.9536 198.018 65.787C198.135 65.6205 198.188 65.417 198.166 65.2146C198.174 65.088 198.156 64.9611 198.112 64.8422C198.068 64.7232 198 64.6148 197.911 64.5239C197.823 64.4331 197.716 64.3618 197.598 64.3148C197.481 64.2678 197.354 64.2461 197.227 64.2511H196.063V67.175H196.633V66.1864H196.817L197.546 67.2002H198.25L197.529 66.1194ZM197.068 68.1217C197.548 68.1267 198.019 67.989 198.42 67.726C198.822 67.463 199.136 67.0866 199.323 66.6446C199.51 66.2026 199.562 65.715 199.471 65.2437C199.381 64.7724 199.152 64.3386 198.814 63.9975C198.477 63.6563 198.045 63.4232 197.575 63.3277C197.105 63.2323 196.617 63.2787 196.173 63.4612C195.729 63.6437 195.349 63.954 195.082 64.3527C194.815 64.7514 194.672 65.2205 194.672 65.7005C194.668 66.0176 194.726 66.3324 194.845 66.6265C194.964 66.9206 195.139 67.1882 195.363 67.4136C195.586 67.639 195.851 67.8177 196.144 67.9393C196.437 68.0609 196.751 68.1229 197.068 68.1217ZM197.068 62.7598C197.846 62.7598 198.592 63.0687 199.142 63.6186C199.692 64.1686 200.001 64.9144 200.001 65.6921C200.001 66.4698 199.692 67.2157 199.142 67.7656C198.592 68.3155 197.846 68.6244 197.068 68.6244C196.291 68.6244 195.545 68.3155 194.995 67.7656C194.445 67.2157 194.136 66.4698 194.136 65.6921C194.136 64.9144 194.445 64.1686 194.995 63.6186C195.545 63.0687 196.291 62.7598 197.068 62.7598Z" fill="white"/>
<path d="M67.0407 36.5281C67.0407 43.1562 65.0753 49.6355 61.3929 55.1465C57.7105 60.6576 52.4766 64.953 46.353 67.4894C40.2295 70.0259 33.4913 70.6896 26.9905 69.3965C20.4898 68.1034 14.5185 64.9117 9.83171 60.2249C5.14493 55.5381 1.9532 49.5668 0.660119 43.0661C-0.632959 36.5653 0.0306959 29.8271 2.56716 23.7035C5.10362 17.58 9.39898 12.3461 14.91 8.6637C20.4211 4.98132 26.9004 3.01586 33.5285 3.01586C42.4165 3.01586 50.9404 6.54661 57.2252 12.8314C63.51 19.1161 67.0407 27.6401 67.0407 36.5281Z" fill="white"/>
<path d="M33.5284 66.8066C38.9298 66.8054 44.2326 65.3594 48.8868 62.6183C53.5411 59.8773 57.3774 55.9412 59.9979 51.2181C62.6184 46.495 63.9278 41.1568 63.7903 35.7572C63.6527 30.3575 62.0732 25.093 59.2156 20.5094C60.3793 24.6851 60.2363 29.117 58.8059 33.2091C57.3755 37.3011 54.7262 40.8569 51.2145 43.3983C42.0573 50.151 28.7194 50.1929 10.3212 55.9654C13.1568 59.3648 16.706 62.0984 20.7168 63.972C24.7275 65.8456 29.1016 66.8134 33.5284 66.8066Z" fill="#00528A"/>
<path d="M51.491 12.1651C45.854 8.00542 38.9488 5.92974 31.9526 6.29198C24.9563 6.65421 18.3024 9.43193 13.1251 14.1515C7.9479 18.8711 4.56799 25.2404 3.56167 32.1733C2.55535 39.1063 3.98494 46.1736 7.60668 52.1704C28.4178 46.4901 45.308 32.6244 51.491 12.1651Z" fill="#ED1C38"/>
</g>
<defs>
<clipPath id="clip0_52_34588">
<rect width="199.952" height="72.0625" fill="white" transform="translate(0.0161756)"/>
</clipPath>
</defs>
</svg>
