<svg width="64" height="64" viewBox="0 0 64 64" fill="none" xmlns="http://www.w3.org/2000/svg">
<path d="M18.043 30.88H45.9587L40.7148 20.7499C40.5195 20.3795 40.1763 20.2527 39.8868 20.438C38.1232 21.5787 31.7955 24.9424 24.1148 20.3892C23.8253 20.2235 23.4955 20.3502 23.3071 20.7109L18.043 30.88Z" stroke="#213A52" stroke-width="1.66957" stroke-miterlimit="10" stroke-linejoin="round"/>
<path d="M45.9587 30.7871H18.043V43.6132H45.9587V30.7871Z" stroke="#213A52" stroke-width="1.66957" stroke-miterlimit="10" stroke-linejoin="round"/>
<path d="M39.9216 34.5596C41.1722 34.5596 42.1851 35.4712 42.1851 36.5967V39.6523H37.6582V36.5967C37.6582 35.4712 38.671 34.5596 39.9216 34.5596Z" stroke="#213A52" stroke-width="1.66957" stroke-miterlimit="10"/>
<path d="M24.0779 34.5596C25.3285 34.5596 26.3413 35.4712 26.3413 36.5967V39.6523H21.8145V36.5967C21.8145 35.4712 22.8273 34.5596 24.0779 34.5596Z" stroke="#213A52" stroke-width="1.66957" stroke-miterlimit="10"/>
<path d="M32.1287 34.5596C33.3793 34.5596 34.3921 35.4712 34.3921 36.5967V39.6523H29.8652V36.5967C29.8652 35.4712 30.8781 34.5596 32.1287 34.5596Z" stroke="#213A52" stroke-width="1.66957" stroke-miterlimit="10"/>
<path d="M45.957 30.8564L48.9749 43.6825" stroke="#213A52" stroke-width="1.66957" stroke-miterlimit="10" stroke-linecap="round"/>
<path d="M18.0413 30.834L15.0234 43.6601" stroke="#213A52" stroke-width="1.66957" stroke-miterlimit="10" stroke-linecap="round"/>
</svg>
