<svg width="25" height="22" viewBox="0 0 25 22" fill="none" xmlns="http://www.w3.org/2000/svg">
<path fill-rule="evenodd" clip-rule="evenodd" d="M18.2877 0C20.1534 0 21.8573 0.767501 23.0855 2.16116C24.2572 3.49067 24.9025 5.2712 24.9025 7.17478C24.9025 9.24689 24.0935 11.1741 22.3565 13.2399C20.8042 15.0862 18.5709 16.9893 15.9849 19.1929L15.9761 19.2004C15.015 20.0194 14.0213 20.8662 12.9636 21.7916L12.9318 21.8196C12.7942 21.9399 12.6227 22.0002 12.4512 22.0002C12.2797 22.0002 12.1082 21.94 11.9707 21.8196L11.9388 21.7916C10.878 20.8635 9.88164 20.0144 8.9181 19.1933L8.91771 19.193C6.3316 16.9893 4.0983 15.0862 2.54594 13.2399C0.808989 11.1742 0 9.24689 0 7.17478C0 5.2712 0.645275 3.49067 1.81686 2.16121C3.04515 0.76755 4.74907 0 6.61472 0C9.23862 0 10.8998 1.5671 11.8313 2.88178C12.0731 3.22292 12.2786 3.56499 12.4512 3.88687C12.6238 3.56499 12.8294 3.22292 13.0711 2.88178C14.0026 1.5671 15.6638 0 18.2877 0ZM12.4512 20.3025C13.3527 19.5188 14.2077 18.7903 15.0384 18.0824C20.0997 13.7695 23.4433 10.9202 23.4433 7.17478C23.4433 5.62664 22.9275 4.18872 21.9909 3.12594C21.0435 2.0511 19.7284 1.45913 18.2877 1.45913C16.2873 1.45913 14.9942 2.69151 14.2617 3.7253C13.6047 4.65258 13.2618 5.58729 13.1449 5.94609C13.0471 6.24643 12.7671 6.44969 12.4512 6.44969C12.1354 6.44969 11.8554 6.24643 11.7576 5.94609C11.6406 5.58729 11.2978 4.65258 10.6407 3.72535C9.90826 2.69151 8.61513 1.45913 6.61472 1.45913C5.17402 1.45913 3.85891 2.0511 2.91154 3.12594C1.97493 4.18872 1.45913 5.62664 1.45913 7.17478C1.45913 10.9202 4.80272 13.7695 9.8639 18.0823C10.6948 18.7903 11.5498 19.5189 12.4512 20.3025Z" fill="#00B97C"/>
</svg>
