<svg width="12" height="14" viewBox="0 0 12 14" fill="none" xmlns="http://www.w3.org/2000/svg">
<path d="M9.16666 1.54V0.5C9.16666 0.226667 8.93999 0 8.66666 0C8.39332 0 8.16666 0.226667 8.16666 0.5V1.5H3.83332V0.5C3.83332 0.226667 3.60666 0 3.33332 0C3.05999 0 2.83332 0.226667 2.83332 0.5V1.54C1.03332 1.70667 0.15999 2.78 0.0266567 4.37333C0.0133234 4.56667 0.173323 4.72667 0.35999 4.72667H11.64C11.8333 4.72667 11.9933 4.56 11.9733 4.37333C11.84 2.78 10.9667 1.70667 9.16666 1.54Z" fill="#192252"/>
<path d="M11.3333 5.72656H0.666667C0.3 5.72656 0 6.02656 0 6.39323V10.4999C0 12.4999 1 13.8332 3.33333 13.8332H8.66667C11 13.8332 12 12.4999 12 10.4999V6.39323C12 6.02656 11.7 5.72656 11.3333 5.72656ZM4.14 11.3066C4.10667 11.3332 4.07333 11.3666 4.04 11.3866C4 11.4132 3.96 11.4332 3.92 11.4466C3.88 11.4666 3.84 11.4799 3.8 11.4866C3.75333 11.4932 3.71333 11.4999 3.66667 11.4999C3.58 11.4999 3.49333 11.4799 3.41333 11.4466C3.32667 11.4132 3.26 11.3666 3.19333 11.3066C3.07333 11.1799 3 11.0066 3 10.8332C3 10.6599 3.07333 10.4866 3.19333 10.3599C3.26 10.2999 3.32667 10.2532 3.41333 10.2199C3.53333 10.1666 3.66667 10.1532 3.8 10.1799C3.84 10.1866 3.88 10.1999 3.92 10.2199C3.96 10.2332 4 10.2532 4.04 10.2799C4.07333 10.3066 4.10667 10.3332 4.14 10.3599C4.26 10.4866 4.33333 10.6599 4.33333 10.8332C4.33333 11.0066 4.26 11.1799 4.14 11.3066ZM4.14 8.97323C4.01333 9.09323 3.84 9.16656 3.66667 9.16656C3.49333 9.16656 3.32 9.09323 3.19333 8.97323C3.07333 8.84656 3 8.67323 3 8.4999C3 8.32656 3.07333 8.15323 3.19333 8.02656C3.38 7.8399 3.67333 7.7799 3.92 7.88656C4.00667 7.9199 4.08 7.96656 4.14 8.02656C4.26 8.15323 4.33333 8.32656 4.33333 8.4999C4.33333 8.67323 4.26 8.84656 4.14 8.97323ZM6.47333 11.3066C6.34667 11.4266 6.17333 11.4999 6 11.4999C5.82667 11.4999 5.65333 11.4266 5.52667 11.3066C5.40667 11.1799 5.33333 11.0066 5.33333 10.8332C5.33333 10.6599 5.40667 10.4866 5.52667 10.3599C5.77333 10.1132 6.22667 10.1132 6.47333 10.3599C6.59333 10.4866 6.66667 10.6599 6.66667 10.8332C6.66667 11.0066 6.59333 11.1799 6.47333 11.3066ZM6.47333 8.97323C6.44 8.9999 6.40667 9.02656 6.37333 9.05323C6.33333 9.0799 6.29333 9.0999 6.25333 9.11323C6.21333 9.13323 6.17333 9.14656 6.13333 9.15323C6.08667 9.1599 6.04667 9.16656 6 9.16656C5.82667 9.16656 5.65333 9.09323 5.52667 8.97323C5.40667 8.84656 5.33333 8.67323 5.33333 8.4999C5.33333 8.32656 5.40667 8.15323 5.52667 8.02656C5.58667 7.96656 5.66 7.9199 5.74667 7.88656C5.99333 7.7799 6.28667 7.8399 6.47333 8.02656C6.59333 8.15323 6.66667 8.32656 6.66667 8.4999C6.66667 8.67323 6.59333 8.84656 6.47333 8.97323ZM8.80667 11.3066C8.68 11.4266 8.50667 11.4999 8.33333 11.4999C8.16 11.4999 7.98667 11.4266 7.86 11.3066C7.74 11.1799 7.66667 11.0066 7.66667 10.8332C7.66667 10.6599 7.74 10.4866 7.86 10.3599C8.10667 10.1132 8.56 10.1132 8.80667 10.3599C8.92667 10.4866 9 10.6599 9 10.8332C9 11.0066 8.92667 11.1799 8.80667 11.3066ZM8.80667 8.97323C8.77333 8.9999 8.74 9.02656 8.70667 9.05323C8.66667 9.0799 8.62667 9.0999 8.58667 9.11323C8.54667 9.13323 8.50667 9.14656 8.46667 9.15323C8.42 9.1599 8.37333 9.16656 8.33333 9.16656C8.16 9.16656 7.98667 9.09323 7.86 8.97323C7.74 8.84656 7.66667 8.67323 7.66667 8.4999C7.66667 8.32656 7.74 8.15323 7.86 8.02656C7.92667 7.96656 7.99333 7.9199 8.08 7.88656C8.2 7.83323 8.33333 7.8199 8.46667 7.84656C8.50667 7.85323 8.54667 7.86656 8.58667 7.88656C8.62667 7.8999 8.66667 7.9199 8.70667 7.94656C8.74 7.97323 8.77333 7.9999 8.80667 8.02656C8.92667 8.15323 9 8.32656 9 8.4999C9 8.67323 8.92667 8.84656 8.80667 8.97323Z" fill="#192252"/>
</svg>
