<svg width="30" height="30" viewBox="0 0 30 30" fill="none" xmlns="http://www.w3.org/2000/svg">
<g clip-path="url(#clip0_52_45789)">
<path d="M0.28125 10.3125L6.84375 3.46875L27.4688 3.9375L30 12.75L29.1563 29.1562L1.125 27L0.28125 10.3125Z" fill="#1D260F"/>
<path d="M0.28125 9.28125L6.75 2.4375L27.375 2.90625L29.9062 11.625L29.0625 28.0312L1.125 25.9688L0.28125 9.28125Z" fill="#3B511C"/>
<path d="M28.5 22.6875L1.6875 20.5312L7.6875 13.5938L27 14.0625L28.5 22.6875Z" fill="#3B511C"/>
<path d="M25.5 20.5312L4.875 19.125L8.53125 14.5312L25.125 15L25.5 20.5312Z" fill="#B0BF71"/>
<path d="M9.84375 16.7812C9.5625 17.25 8.71875 17.625 7.96875 17.625C7.21875 17.625 7.03125 17.1562 7.40625 16.6875C7.78125 16.2187 8.53125 15.9375 9.1875 15.9375C9.84375 15.9375 10.125 16.3125 9.84375 16.7812ZM24.5625 17.4375C24.5625 18 23.9062 18.4688 22.9687 18.375C22.125 18.2813 21.375 17.8125 21.4688 17.25C21.5625 16.6875 22.2188 16.3125 23.0625 16.4063C23.9062 16.5 24.5625 16.9688 24.5625 17.4375Z" fill="#63942A"/>
<path d="M18.562 17.1568C18.187 18.8443 16.2183 20.2506 14.3433 20.0631C12.4683 19.9693 11.7183 18.3756 12.562 16.8756C13.2183 15.4693 14.9058 14.5318 16.4058 14.6256C17.9058 14.6256 18.937 15.6568 18.562 17.1568Z" fill="#B0BF71"/>
<path d="M1.6875 20.5312L1.96875 25.125L28.2188 27.1875L28.5 22.6875L1.6875 20.5312Z" fill="#507224"/>
<path d="M28.4062 17.1562L1.125 14.8125L7.21875 7.6875L26.9062 8.15625L28.4062 17.1562Z" fill="#3B511C"/>
<path d="M25.4063 14.9062L4.40625 13.4063L8.0625 8.625L25.0312 9.09375L25.4063 14.9062Z" fill="#B0BF71"/>
<path d="M9.37534 10.9695C9.09409 11.4383 8.15659 11.907 7.50034 11.8133C6.75034 11.8133 6.46909 11.3445 6.84409 10.782C7.21909 10.3133 8.06284 9.93829 8.71909 10.032C9.37534 10.032 9.75034 10.5008 9.37534 10.9695ZM24.4691 11.7195C24.4691 12.282 23.7191 12.7508 22.8753 12.7508C21.9378 12.657 21.2816 12.1883 21.3753 11.6258C21.4691 11.0633 22.1253 10.6883 22.9691 10.6883C23.7191 10.6883 24.3753 11.157 24.4691 11.7195Z" fill="#63942A"/>
<path d="M18.2808 11.3438C17.9058 13.0313 15.937 14.5313 13.9683 14.3438C12.0933 14.2501 11.3433 12.6563 12.187 10.9688C12.937 9.56256 14.6245 8.53131 16.1245 8.62506C17.6245 8.71881 18.6558 9.84381 18.2808 11.3438Z" fill="#B0BF71"/>
<path d="M1.125 14.8125L1.40625 19.6875L28.125 21.8437L28.4062 17.1562L1.125 14.8125Z" fill="#507224"/>
<path d="M28.6875 11.625L0.9375 9.5625L7.125 3.09375L27.0938 3.5625L28.6875 11.625Z" fill="#63942A"/>
<path d="M26.9063 10.5938L2.71875 8.90625L7.6875 3.5625L26.0625 4.03125L26.9063 10.5938Z" fill="#D2E1A3"/>
<path d="M25.6875 9.65625L4.3125 8.25L8.0625 3.9375L25.2188 4.5L25.6875 9.65625Z" fill="#B0BF71"/>
<path d="M19.4065 6.46834C18.9377 8.53084 16.4065 10.2183 13.6877 9.93709C11.0627 9.74959 10.0315 7.96834 11.2502 6.09334C12.2815 4.49959 14.4377 3.37459 16.4065 3.46834C18.3752 3.46834 19.7815 4.68709 19.4065 6.46834Z" fill="#507224"/>
<path d="M9.37534 6.09375C9.09409 6.5625 8.15659 6.84375 7.40659 6.84375C6.65659 6.84375 6.37534 6.375 6.75034 6C7.12534 5.53125 7.96909 5.25 8.62534 5.25C9.37534 5.25 9.65659 5.625 9.37534 6.09375ZM24.6566 6.75C24.6566 7.3125 23.9066 7.6875 22.9691 7.59375C22.0316 7.59375 21.3753 7.03125 21.3753 6.5625C21.4691 6.09375 22.1253 5.71875 22.9691 5.71875C23.9066 5.8125 24.6566 6.28125 24.6566 6.75Z" fill="#63942A"/>
<path d="M0.9375 9.5625L1.21875 13.875L28.5 15.8438L28.6875 11.625L0.9375 9.5625Z" fill="#507224"/>
<path d="M12.6562 10.5L12.4687 14.7188L15.5625 15L15.6563 10.875L12.6562 10.5ZM12.375 15.8438L12.4687 20.5312L15.5625 20.7188V16.2187L12.375 15.8438ZM12.2812 21.4688L12.375 26.1563L15.6563 26.3438L15.5625 21.6563L12.2812 21.4688Z" fill="#B4BAAB"/>
<path d="M14.8125 3.28125L12.6562 10.4063L15.5625 10.7812L17.8125 3.375L14.8125 3.28125Z" fill="white"/>
<path d="M1.03125 10.5938L9.9375 11.4375H1.03125V10.5938ZM1.3125 12.0937L10.2187 12.9375H1.21875L1.3125 12.0937ZM28.5 13.3125L19.125 13.4062L28.5 14.4375V13.3125ZM1.21875 15.75L9.75 16.5938H1.125L1.21875 15.75ZM1.5 18.0937L9.9375 18.9375H1.40625L1.5 18.0937ZM28.3125 18.9375H19.3125L28.3125 20.0625V18.9375ZM1.96875 22.3125L10.4062 23.25L1.875 23.1563L1.96875 22.3125ZM28.125 24.9375L19.2188 25.0313L28.125 26.0625V24.9375Z" fill="#3B511C"/>
</g>
<defs>
<clipPath id="clip0_52_45789">
<rect width="30" height="30" fill="white"/>
</clipPath>
</defs>
</svg>
