<svg width="153" height="18" viewBox="0 0 153 18" fill="none" xmlns="http://www.w3.org/2000/svg">
<g clip-path="url(#clip0_52_115814)">
<mask id="mask0_52_115814" style="mask-type:luminance" maskUnits="userSpaceOnUse" x="39" y="3" width="114" height="11">
<path d="M153 3.375H39.375V13.5H153V3.375Z" fill="white"/>
</mask>
<g mask="url(#mask0_52_115814)">
<path d="M40.5 12.3742H41.7375V9.11172H45.1125V7.93047H41.7375V5.68047H46.0125V4.49922H40.5V12.3742ZM52.2503 12.4867C54.6128 12.4867 56.4128 10.6867 56.4128 8.43672C56.4128 6.18672 54.6128 4.38672 52.2503 4.38672C49.8878 4.38672 48.0878 6.18672 48.0878 8.43672C48.0878 10.6867 49.8878 12.4867 52.2503 12.4867ZM52.2503 11.3617C50.619 11.3617 49.3253 10.068 49.3253 8.43672C49.3253 6.80547 50.619 5.51172 52.2503 5.51172C53.8815 5.51172 55.1753 6.80547 55.1753 8.43672C55.1753 10.068 53.8815 11.3617 52.2503 11.3617ZM59.4346 12.3742H60.6722V9.44922H62.5284L64.1596 12.3742H65.5659L63.7771 9.22422C63.7771 9.22422 65.2846 8.71797 65.2846 6.97422C65.2846 5.56797 64.2159 4.49922 62.6972 4.49922H59.4346V12.3742ZM60.6722 8.32422V5.62422H62.6972C63.4847 5.62422 64.0472 6.18672 64.0472 6.97422C64.0472 7.76172 63.4847 8.32422 62.6972 8.32422H60.6722ZM72.129 12.3742H73.3665V6.58047L76.2353 10.2367L79.104 6.58047V12.3742H80.3415V4.49922H79.2165L76.2353 8.32422L73.254 4.49922H72.129V12.3742ZM83.8705 12.3742H89.5518V11.193H85.1081V8.88672H88.5393V7.70547H85.1081V5.68047H89.4393V4.49922H83.8705V12.3742ZM92.4699 12.3742H93.7074V9.44922H95.5637L97.1949 12.3742H98.6012L96.8124 9.22422C96.8124 9.22422 98.3199 8.71797 98.3199 6.97422C98.3199 5.56797 97.2512 4.49922 95.7324 4.49922H92.4699V12.3742ZM93.7074 8.32422V5.62422H95.7324C96.5199 5.62422 97.0824 6.18672 97.0824 6.97422C97.0824 7.76172 96.5199 8.32422 95.7324 8.32422H93.7074ZM105.176 12.4867C107.314 12.4867 108.439 10.9117 108.439 10.9117L107.651 10.1242C107.651 10.1242 106.807 11.3617 105.176 11.3617C103.545 11.3617 102.251 10.068 102.251 8.43672C102.251 6.80547 103.545 5.51172 105.176 5.51172C106.807 5.51172 107.595 6.69297 107.595 6.69297L108.382 5.90547C108.382 5.90547 107.314 4.38672 105.176 4.38672C102.814 4.38672 101.014 6.18672 101.014 8.43672C101.014 10.6867 102.814 12.4867 105.176 12.4867ZM111.185 12.3742H112.422V8.94297H116.304V12.3742H117.541V4.49922H116.304V7.81797H112.422V4.49922H111.185V12.3742ZM120.057 12.3742H121.35L122.138 10.3492H125.625L126.413 12.3742H127.707L124.557 4.49922H123.207L120.057 12.3742ZM122.588 9.22422L123.882 5.96172L125.175 9.22422H122.588ZM130.229 12.3742H131.466V6.58047L135.798 12.3742H136.923V4.49922H135.685V10.293L131.354 4.49922H130.229V12.3742ZM141.918 12.3742H143.155V5.68047H145.518V4.49922H139.555V5.68047H141.918V12.3742ZM150.179 12.4867C151.922 12.4867 152.991 11.418 152.991 10.1805C152.991 7.25547 148.829 8.32422 148.829 6.58047C148.829 6.01797 149.335 5.51172 150.291 5.51172C151.36 5.51172 151.922 6.24297 151.922 6.24297L152.766 5.39922C152.766 5.39922 151.922 4.38672 150.291 4.38672C148.603 4.38672 147.591 5.39922 147.591 6.58047C147.591 9.50547 151.753 8.43672 151.753 10.1805C151.753 10.7992 151.191 11.3617 150.179 11.3617C148.829 11.3617 148.21 10.4617 148.21 10.4617L147.366 11.3055C147.366 11.3055 148.266 12.4867 150.179 12.4867Z" fill="white"/>
</g>
<path d="M30.2937 4.23715C28.8966 1.62478 26.1657 0 23.2125 0H0.762107C0.349299 0 0 0.350439 0 0.796458C0 0.987609 0.0952634 1.17876 0.222282 1.33805L5.11246 6.27609C5.55703 6.7221 6.12862 6.94512 6.73194 6.94512H22.5457C23.6571 6.94512 24.6097 7.83714 24.6097 8.98406C24.6097 10.1309 23.7205 11.0548 22.5774 11.0548H11.6856C11.2728 11.0548 10.9235 11.4053 10.9235 11.8513C10.9235 12.0424 11.0188 12.2336 11.1458 12.3929L16.036 17.331C16.4806 17.7769 17.0522 18 17.6555 18H22.5774C29.0236 17.9682 33.8503 11.0867 30.2937 4.23715Z" fill="#FF3008"/>
</g>
<defs>
<clipPath id="clip0_52_115814">
<rect width="153" height="18" fill="white"/>
</clipPath>
</defs>
</svg>
