<svg width="20" height="20" viewBox="0 0 20 20" fill="none" xmlns="http://www.w3.org/2000/svg">
<g clip-path="url(#clip0_12_19601)">
<path d="M9.6684 2.00085V3.71525C6.30623 4.13448 3.70409 7.00261 3.70409 10.4791C3.70409 14.2436 6.75611 17.2958 10.5204 17.2958C12.0959 17.2958 13.5452 16.7616 14.7006 15.8643L15.913 17.0768C14.4441 18.2783 12.5654 19 10.5204 19C5.81461 19 2 15.1852 2 10.4791C2 6.06105 5.36302 2.42775 9.6684 2.00085ZM18.9983 11.3312C18.8279 13.0448 18.1514 14.6092 17.1178 15.8711L15.9054 14.6595C16.6381 13.7162 17.1289 12.5761 17.284 11.3312H18.9991H18.9983ZM11.3742 2.00085C15.3993 2.40048 18.5995 5.60177 19 9.62704H17.2848C16.9006 6.54418 14.4569 4.1004 11.3742 3.71525V2V2.00085Z" fill="#9197A4"/>
</g>
<defs>
<clipPath id="clip0_12_19601">
<rect width="20" height="20" fill="white"/>
</clipPath>
</defs>
</svg>
