<svg width="45" height="44" viewBox="0 0 45 44" fill="none" xmlns="http://www.w3.org/2000/svg">
<path fill-rule="evenodd" clip-rule="evenodd" d="M42.7691 17.7339C39.2191 9.97296 34.8011 5.33898 30.9591 5.33898C30.216 5.33061 29.4854 5.53161 28.8511 5.91898C25.7392 7.83397 25.5972 13.8189 25.5922 14.4759L25.5902 14.5531V14.5531C25.5803 14.9516 25.5413 16.5173 25.5082 18.6339L24.2512 18.1719V0.869996C24.2512 0.389511 23.8617 0 23.3812 0H21.6192C21.1387 0 20.7492 0.389511 20.7492 0.869996V18.1699L19.4922 18.6319C19.4594 16.4769 19.4196 14.9005 19.4106 14.5441L19.4106 14.5438L19.4092 14.4889C19.4032 13.8129 19.2612 7.83197 16.1492 5.91698C15.5147 5.53026 14.7842 5.32996 14.0412 5.33898C10.2012 5.33898 5.78124 9.97196 2.23125 17.7329C-2.46873 28.0069 1.68825 42.0218 1.86725 42.6138C2.00028 43.0549 2.45434 43.3154 2.90225 43.2078C5.48028 42.5734 8.02368 41.8057 10.5222 40.9078C15.9612 38.9188 18.7762 36.9678 19.1272 34.9389C19.5592 32.4479 19.5742 25.5759 19.5162 20.4779L21.8912 19.6039H23.1072L25.4822 20.4779C25.4252 25.5779 25.4392 32.4489 25.8712 34.9389C26.2222 36.9658 29.0371 38.9168 34.4761 40.9028C36.9747 41.8005 39.5181 42.5682 42.0961 43.2028C42.544 43.3104 42.9981 43.0499 43.1311 42.6088C43.3111 42.0228 47.4691 28.0079 42.7691 17.7339ZM16.9952 21.6389L10.7952 24.8389V27.4389L11.2682 28.8839L12.4552 30.0389C12.8007 30.3733 12.8096 30.9244 12.4752 31.2699C12.1408 31.6153 11.5897 31.6243 11.2442 31.2899L9.96722 30.0499L8.51923 31.6499C8.19642 32.0061 7.64595 32.0332 7.28973 31.7104C6.93351 31.3876 6.90642 30.8371 7.22923 30.4809L9.05522 28.4649V25.7389L5.63524 27.5059C5.35889 27.6488 5.0273 27.6334 4.76537 27.4655C4.50344 27.2977 4.35096 27.0028 4.36537 26.6921C4.37978 26.3813 4.5589 26.1018 4.83524 25.9589L5.59724 25.5649L4.23524 24.4809C3.85942 24.181 3.79785 23.6332 4.09774 23.2574C4.39763 22.8816 4.94541 22.82 5.32124 23.1199L7.29323 24.6929L12.0622 22.2289L7.97323 19.1289C7.72493 18.9412 7.59565 18.6352 7.63409 18.3263C7.67253 18.0174 7.87285 17.7525 8.15959 17.6313C8.44633 17.5102 8.77593 17.5512 9.02422 17.7389L10.3442 18.7389L10.4552 17.7299C10.508 17.2522 10.938 16.9077 11.4157 16.9604C11.8934 17.0132 12.238 17.4432 12.1852 17.9209L11.9602 19.9639L13.7762 21.3389L16.2012 20.0929C16.6281 19.872 17.1533 20.039 17.3742 20.4659C17.5951 20.8928 17.4281 21.418 17.0012 21.6389H16.9952ZM39.4011 25.5679L40.7641 24.4809L40.7631 24.4769C41.1389 24.177 41.2005 23.6292 40.9006 23.2534C40.6007 22.8776 40.0529 22.816 39.6771 23.1159L37.7051 24.6889L32.9361 22.2249L37.0261 19.1249C37.4091 18.8347 37.4843 18.2889 37.1941 17.9059C36.9039 17.5229 36.3581 17.4477 35.9751 17.7379L34.6551 18.7379L34.5441 17.7289C34.4914 17.2512 34.0614 16.9067 33.5836 16.9594C33.1059 17.0122 32.7614 17.4422 32.8141 17.9199L33.0401 19.9629L31.2241 21.3389L28.8011 20.0919C28.5248 19.949 28.1932 19.9644 27.9313 20.1323C27.6693 20.3001 27.5169 20.595 27.5313 20.9058C27.5457 21.2165 27.7248 21.496 28.0011 21.6389L34.2011 24.8389V27.4389L33.7301 28.8909L32.5451 30.0389C32.2956 30.2486 32.1842 30.5801 32.2565 30.8979C32.3288 31.2157 32.5727 31.4665 32.8884 31.5476C33.2041 31.6287 33.5386 31.5265 33.7551 31.2829L35.0321 30.0469L36.4801 31.6469C36.8029 32.0031 37.3534 32.0302 37.7096 31.7074C38.0658 31.3846 38.0929 30.8341 37.7701 30.4779L35.9441 28.4619V25.7389L39.3631 27.5089C39.6394 27.6518 39.971 27.6364 40.233 27.4685C40.4949 27.3007 40.6474 27.0058 40.633 26.6951C40.6186 26.3843 40.4394 26.1048 40.1631 25.9619L39.4011 25.5679Z" fill="#00B97D"/>
</svg>
