<svg width="21" height="20" viewBox="0 0 21 20" fill="none" xmlns="http://www.w3.org/2000/svg">
<path d="M0.755534 16.6831C0.343482 16.6831 0.00178023 16.3414 0.00178023 15.9293V10.2008C-0.04847 7.47724 0.966586 4.90443 2.856 2.97482C4.74541 1.05526 7.27802 0 10.0016 0C15.5693 0 20.1019 4.53257 20.1019 10.1003V15.8288C20.1019 16.2409 19.7602 16.5826 19.3481 16.5826C18.9361 16.5826 18.5944 16.2409 18.5944 15.8288V10.1003C18.5944 5.36673 14.7452 1.50751 10.0016 1.50751C7.68002 1.50751 5.52931 2.40196 3.93135 4.03007C2.32334 5.66823 1.46909 7.84909 1.50929 10.1807V15.9193C1.50929 16.3414 1.17764 16.6831 0.755534 16.6831Z" fill="white" fill-opacity="0.6"/>
<path d="M3.96168 10.4524H3.83103C1.72052 10.4524 0.0019629 12.171 0.0019629 14.2815V16.1709C0.0019629 18.2814 1.72052 20 3.83103 20H3.96168C6.0722 20 7.79075 18.2814 7.79075 16.1709V14.2815C7.79075 12.171 6.0722 10.4524 3.96168 10.4524Z" fill="white" fill-opacity="0.6"/>
<path d="M16.273 10.4524H16.1423C14.0318 10.4524 12.3133 12.171 12.3133 14.2815V16.1709C12.3133 18.2814 14.0318 20 16.1423 20H16.273C18.3835 20 20.1021 18.2814 20.1021 16.1709V14.2815C20.1021 12.171 18.3835 10.4524 16.273 10.4524Z" fill="white" fill-opacity="0.6"/>
</svg>
