<svg width="24" height="24" viewBox="0 0 24 24" fill="none" xmlns="http://www.w3.org/2000/svg">
<path d="M17.2497 11.9998C17.247 12.1986 17.1701 12.3892 17.0341 12.5342L9.5341 20.0342C9.38838 20.1538 9.20338 20.2149 9.01509 20.2056C8.8268 20.1964 8.64869 20.1174 8.51539 19.9841C8.38208 19.8508 8.30313 19.6727 8.29388 19.4844C8.28464 19.2961 8.34576 19.1111 8.46535 18.9654L15.4404 11.9998L8.46535 5.03416C8.34576 4.88844 8.28464 4.70344 8.29388 4.51515C8.30313 4.32686 8.38208 4.14874 8.51539 4.01544C8.64869 3.88214 8.8268 3.80319 9.01509 3.79394C9.20338 3.78469 9.38838 3.84581 9.5341 3.96541L17.0341 11.4654C17.1701 11.6104 17.247 11.801 17.2497 11.9998Z" fill="#E2E4E9"/>
</svg>
