<svg width="30" height="30" viewBox="0 0 30 30" fill="none" xmlns="http://www.w3.org/2000/svg">
<g clip-path="url(#clip0_52_37728)">
<path d="M3.84375 1.96875L2.25 8.25L26.5312 16.2187L28.0312 10.2187L3.84375 1.96875Z" fill="#474747"/>
<path d="M8.34371 21.3753L3.84371 3.18781C3.28121 1.12531 5.81246 -0.374694 7.40621 0.0940561L25.4062 5.43781C27.9375 6.18781 29.25 10.0316 26.9062 11.8128L11.625 23.3441C10.5 24.1878 8.71871 23.0628 8.34371 21.3753Z" fill="#474747"/>
<path d="M6.5622 28.1258L2.2497 10.3133C1.6872 8.15703 2.90595 6.09453 4.4997 6.56328L24.281 12.3758C26.9997 13.2195 27.3747 16.6883 25.1247 18.4695L10.5935 29.6258C9.46845 30.4695 7.03095 29.8133 6.5622 28.1258Z" fill="#474747"/>
<path d="M7.59336 25.9693L3.74961 10.1256C3.28086 8.25059 4.40586 6.37559 5.81211 6.84434L23.2496 12.0006C25.6871 12.7506 25.9684 15.8443 23.9996 17.4381L10.4996 27.6568C9.56211 28.4068 7.96836 27.4693 7.59336 25.9693Z" fill="#949494"/>
<path d="M23.0625 10.4063L26.5312 9.9375L25.0313 15.9375L3.65625 8.8125L5.0625 3.375L23.0625 10.4063Z" fill="#949494"/>
<path d="M8.90609 20.7188L5.06234 4.87505C4.59359 3.00005 5.53109 1.0313 7.49984 1.5938L24.5623 6.75005C26.9998 7.50005 27.2811 10.5938 25.3123 12.1875L11.9061 22.4063C10.8748 23.1563 9.28109 22.2188 8.90609 20.7188Z" fill="white"/>
<path d="M9.46854 19.7811L5.81229 4.78109C5.34354 2.99984 6.37479 1.21859 7.68729 1.68734L24.1873 6.56234C26.4373 7.21859 26.8123 10.2186 24.8435 11.7186L12.1873 21.3748C11.2498 22.0311 9.74979 21.1873 9.46854 19.7811Z" fill="url(#paint0_linear_52_37728)"/>
<path d="M20.5312 5.4375L22.7812 13.5938L25.5 11.5312L23.7187 6.375L20.5312 5.4375ZM14.1562 3.5625L18 17.3438L20.625 15.1875L17.8125 4.6875L14.1562 3.5625Z" fill="white"/>
<path d="M2.71875 8.4375L4.59375 15.4688L6.9375 12.5625L5.0625 4.6875C5.0625 4.6875 4.875 3.65625 5.15625 2.90625L2.71875 8.4375Z" fill="url(#paint1_linear_52_37728)"/>
<path d="M19.875 16.3125L19.125 21.9375L25.3125 16.875L26.9063 9.65625C26.9063 9.65625 26.3438 10.7812 25.7813 11.5312C25.7813 11.5312 25.2188 12.1875 24.5625 12.5625L19.875 16.3125Z" fill="url(#paint2_linear_52_37728)"/>
<path opacity="0.2" d="M10.6875 22.3125L9.5625 27.8438C9.5625 27.8438 8.71875 27.6563 8.34375 27.1875L9.84375 21.4688L10.6875 22.3125Z" fill="white"/>
</g>
<defs>
<linearGradient id="paint0_linear_52_37728" x1="10.2929" y1="23.0047" x2="16.9784" y2="3.35749" gradientUnits="userSpaceOnUse">
<stop stop-color="#CFCFCF"/>
<stop offset="1" stop-color="#DEDEDE"/>
</linearGradient>
<linearGradient id="paint1_linear_52_37728" x1="3.97069" y1="6.42084" x2="5.7945" y2="12.3721" gradientUnits="userSpaceOnUse">
<stop stop-color="#474747"/>
<stop offset="1" stop-color="#474747" stop-opacity="0"/>
</linearGradient>
<linearGradient id="paint2_linear_52_37728" x1="27.2388" y1="12.3107" x2="21.4075" y2="17.638" gradientUnits="userSpaceOnUse">
<stop stop-color="#474747"/>
<stop offset="1" stop-color="#474747" stop-opacity="0"/>
</linearGradient>
<clipPath id="clip0_52_37728">
<rect width="30" height="30" fill="white"/>
</clipPath>
</defs>
</svg>
