<svg width="56" height="56" viewBox="0 0 56 56" fill="none" xmlns="http://www.w3.org/2000/svg">
<path d="M45.5009 16.4048H33.3886C32.971 16.4053 32.5614 16.5185 32.2029 16.7325C31.8444 16.9464 31.5502 17.2532 31.3516 17.6204C31.193 16.9312 30.8799 16.2871 30.4359 15.7366C29.9919 15.1862 29.4285 14.7439 28.7885 14.4431C28.1484 14.1423 27.4484 13.991 26.7413 14.0004C26.0341 14.0099 25.3384 14.1799 24.7066 14.4977C24.0748 14.8155 23.5236 15.2727 23.0944 15.8349C22.6653 16.397 22.3695 17.0493 22.2295 17.7425C22.0894 18.4357 22.1087 19.1516 22.286 19.8362C22.4632 20.5209 22.7937 21.1563 23.2526 21.6944C22.9726 21.7527 21.3509 22.1261 20.7186 22.2731C20.4247 22.3537 20.174 22.5461 20.0201 22.8091C19.8662 23.0721 19.8214 23.3849 19.8951 23.6806C19.9689 23.9763 20.1554 24.2314 20.4148 24.3913C20.6742 24.5512 20.9859 24.6033 21.2832 24.5364C23.3141 23.9535 25.4037 23.5989 27.5132 23.4794C25.7699 24.9437 23.5646 25.7438 21.2879 25.7381C18.2802 25.7399 15.3593 26.7462 12.9887 28.5973C10.6181 30.4484 8.93359 33.0382 8.20259 35.9557C8.13959 36.2101 8.18159 37.2321 8.16759 38.5714C8.16759 39.031 8.25812 39.4862 8.43401 39.9108C8.6099 40.3354 8.86771 40.7213 9.19272 41.0463C9.51772 41.3713 9.90356 41.6291 10.3282 41.805C10.7528 41.9809 11.208 42.0714 11.6676 42.0714H31.7016C32.6286 42.0684 33.5172 41.7004 34.1749 41.0471L35.0009 40.2211L35.8269 41.0471C36.4846 41.7004 37.3732 42.0684 38.3002 42.0714H44.3342C45.2625 42.0714 46.1527 41.7027 46.8091 41.0463C47.4655 40.3899 47.8342 39.4997 47.8342 38.5714V18.7381C47.8342 18.1192 47.5884 17.5258 47.1508 17.0882C46.7132 16.6506 46.1197 16.4048 45.5009 16.4048ZM26.8342 21.0714C26.3727 21.0714 25.9216 20.9346 25.5379 20.6782C25.1542 20.4218 24.8551 20.0574 24.6785 19.631C24.5019 19.2046 24.4557 18.7355 24.5457 18.2829C24.6358 17.8302 24.858 17.4145 25.1843 17.0882C25.5106 16.7618 25.9264 16.5396 26.379 16.4496C26.8316 16.3595 27.3008 16.4058 27.7272 16.5824C28.1535 16.759 28.5179 17.058 28.7743 17.4418C29.0307 17.8255 29.1676 18.2766 29.1676 18.7381V21.0714H26.8342ZM21.2879 28.0714C22.4549 28.0696 23.6156 27.8998 24.7342 27.5674C25.1329 28.0349 25.5583 28.479 26.0082 28.8974C26.2273 29.1165 26.5244 29.2396 26.8342 29.2396C27.144 29.2396 27.4412 29.1165 27.6602 28.8974C27.8793 28.6783 28.0024 28.3812 28.0024 28.0714C28.0024 27.7616 27.8793 27.4645 27.6602 27.2454L27.0162 26.6014C27.3079 26.4427 27.5996 26.2817 27.8772 26.0974L29.5106 27.7307C29.7296 27.9498 30.0268 28.0729 30.3366 28.0729C30.6464 28.0729 30.9435 27.9498 31.1626 27.7307C31.3816 27.5117 31.5047 27.2146 31.5047 26.9047C31.5047 26.5949 31.3816 26.2978 31.1626 26.0787L29.6996 24.6181C29.9329 24.3847 30.1662 24.1514 30.3669 23.9181L31.8439 25.3974C31.9524 25.5059 32.0811 25.5919 32.2229 25.6506C32.3646 25.7093 32.5165 25.7396 32.6699 25.7396C32.8233 25.7396 32.9752 25.7093 33.1169 25.6506C33.2587 25.5919 33.3874 25.5059 33.4959 25.3974C33.6044 25.2889 33.6904 25.1602 33.7491 25.0184C33.8078 24.8767 33.838 24.7248 33.838 24.5714C33.838 24.418 33.8078 24.2661 33.7491 24.1244C33.6904 23.9827 33.6044 23.8539 33.4959 23.7454L31.7226 21.9744C32.4856 20.6281 32.6022 20.2758 33.3909 18.7381H45.5009V35.0714H10.9349C11.7625 33.003 13.1914 31.2302 15.037 29.9824C16.8826 28.7345 19.06 28.0688 21.2879 28.0714ZM44.3342 39.7381H38.3002C37.5629 39.7381 37.2992 39.1337 36.6506 38.5714C36.2058 38.1477 35.6151 37.9114 35.0009 37.9114C34.3867 37.9114 33.796 38.1477 33.3512 38.5714C32.7002 39.1361 32.4366 39.7381 31.7016 39.7381H11.6676C11.3582 39.7381 11.0614 39.6152 10.8426 39.3964C10.6238 39.1776 10.5009 38.8808 10.5009 38.5714V37.4047H45.5009V38.5714C45.5009 38.8808 45.378 39.1776 45.1592 39.3964C44.9404 39.6152 44.6437 39.7381 44.3342 39.7381Z" fill="white"/>
</svg>
