<svg width="18" height="21" viewBox="0 0 18 21" fill="none" xmlns="http://www.w3.org/2000/svg">
<mask id="mask0_37_44150" style="mask-type:luminance" maskUnits="userSpaceOnUse" x="0" y="0" width="18" height="21">
<path fill-rule="evenodd" clip-rule="evenodd" d="M0 0H17.1641V21H0V0Z" fill="white"/>
</mask>
<g mask="url(#mask0_37_44150)">
<path fill-rule="evenodd" clip-rule="evenodd" d="M5.38129 1.51103C2.81354 1.51103 1.51103 2.50025 1.51103 4.45351V19.2858C1.51103 19.3805 1.56543 19.4319 1.61076 19.4581C1.65609 19.4863 1.72761 19.5064 1.81022 19.4601L8.23915 15.8537C8.46883 15.7258 8.74988 15.7248 8.98057 15.8548L15.3541 19.455C15.4377 19.5034 15.5092 19.4812 15.5546 19.454C15.5999 19.4268 15.6533 19.3755 15.6533 19.2808V4.63786C15.6533 3.86522 15.6533 1.51103 11.7871 1.51103H5.38129ZM1.7115 21.0003C1.41433 21.0003 1.11716 20.9207 0.847185 20.7616C0.316309 20.4523 0 19.8993 0 19.2858V4.45351C0 1.62285 1.96132 0 5.38129 0H11.7871C15.204 0 17.1643 1.69135 17.1643 4.63786V19.2808C17.1643 19.8953 16.848 20.4483 16.3161 20.7576C15.7863 21.0678 15.1476 21.0739 14.6117 20.7717L8.60785 17.3799L2.54861 20.7787C2.2867 20.9258 1.9996 21.0003 1.7115 21.0003Z" fill="white"/>
</g>
<path fill-rule="evenodd" clip-rule="evenodd" d="M12.2296 8.28903H4.85773C4.44069 8.28903 4.10222 7.95056 4.10222 7.53352C4.10222 7.11647 4.44069 6.778 4.85773 6.778H12.2296C12.6466 6.778 12.9851 7.11647 12.9851 7.53352C12.9851 7.95056 12.6466 8.28903 12.2296 8.28903Z" fill="white"/>
</svg>
