<svg width="24" height="24" viewBox="0 0 24 24" fill="none" xmlns="http://www.w3.org/2000/svg">
<path d="M3 5V19C3 21.201 4.794 22 6 22H21V20H6.012C5.55 19.988 5 19.806 5 19C5 18.194 5.55 18.012 6.012 18H21V4C21 2.897 20.103 2 19 2H6C4.794 2 3 2.799 3 5Z" fill="white"/>
<g clip-path="url(#clip0_2_125)">
<path d="M13.6666 13H13.3333C13.2448 13 13.1601 12.9649 13.0975 12.9024C13.035 12.8399 12.9999 12.7551 12.9999 12.6667V10.3333C12.9999 10.2449 13.035 10.1601 13.0975 10.0976C13.1601 10.0351 13.2448 10 13.3333 10H13.6666C13.9318 10 14.1862 10.1054 14.3737 10.2929C14.5612 10.4804 14.6666 10.7348 14.6666 11V12C14.6666 12.2652 14.5612 12.5196 14.3737 12.7071C14.1862 12.8946 13.9318 13 13.6666 13ZM10.3333 13H10.6666C10.755 13 10.8398 12.9649 10.9023 12.9024C10.9648 12.8399 10.9999 12.7551 10.9999 12.6667V10.3333C10.9999 10.2449 10.9648 10.1601 10.9023 10.0976C10.8398 10.0351 10.755 10 10.6666 10H10.3333C10.068 10 9.81368 10.1054 9.62615 10.2929C9.43861 10.4804 9.33325 10.7348 9.33325 11V12C9.33325 12.2652 9.43861 12.5196 9.62615 12.7071C9.81368 12.8946 10.068 13 10.3333 13Z" fill="#5B4EEA" stroke="#5B4EEA" stroke-linecap="round" stroke-linejoin="round"/>
<path d="M9.33334 11.6667L9.21334 10C9.18491 9.61673 9.23587 9.23172 9.36304 8.86904C9.49021 8.50637 9.69085 8.17384 9.95241 7.89226C10.214 7.61067 10.5308 7.38609 10.8831 7.23256C11.2355 7.07904 11.6157 6.99986 12 7V7C12.3843 6.99986 12.7646 7.07904 13.1169 7.23256C13.4692 7.38609 13.7861 7.61067 14.0476 7.89226C14.3092 8.17384 14.5098 8.50637 14.637 8.86904C14.7642 9.23172 14.8151 9.61673 14.7867 10L14.6667 11.6667" stroke="#5B4EEA" stroke-linecap="round" stroke-linejoin="round"/>
</g>
<defs>
<clipPath id="clip0_2_125">
<rect width="8" height="8" fill="white" transform="translate(8 6)"/>
</clipPath>
</defs>
</svg>
