<svg width="25" height="22" viewBox="0 0 25 22" fill="none" xmlns="http://www.w3.org/2000/svg">
<path d="M18.301 0C16.9487 0 15.7089 0.428515 14.6161 1.27367C13.5684 2.08392 12.8709 3.11593 12.4602 3.86637C12.0496 3.11589 11.352 2.08392 10.3044 1.27367C9.21157 0.428515 7.97177 0 6.6195 0C2.8458 0 0 3.08668 0 7.17992C0 11.602 3.55034 14.6276 8.92508 19.2078C9.83779 19.9857 10.8723 20.8673 11.9476 21.8076C12.0893 21.9318 12.2714 22.0001 12.4602 22.0001C12.6491 22.0001 12.8311 21.9318 12.9729 21.8077C14.0482 20.8672 15.0827 19.9856 15.996 19.2073C21.3701 14.6276 24.9205 11.602 24.9205 7.17992C24.9205 3.08668 22.0747 0 18.301 0Z" fill="#00B97C"/>
</svg>
