<svg width="103" height="376" viewBox="0 0 103 376" fill="none" xmlns="http://www.w3.org/2000/svg">
<rect x="23.5" width="56" height="56" rx="10" fill="#413FBD"/>
<path d="M47.6794 39.6981V35.6211C47.6794 34.5804 48.5292 33.7367 49.5776 33.7367H53.4098C53.9133 33.7367 54.3961 33.9353 54.7521 34.2887C55.108 34.6421 55.308 35.1214 55.308 35.6211V39.6981C55.3048 40.1308 55.4758 40.5468 55.7828 40.8539C56.0899 41.161 56.5077 41.3337 56.9436 41.3336H59.5581C60.7792 41.3368 61.9513 40.8575 62.8159 40.0014C63.6805 39.1454 64.1663 37.983 64.1663 36.7708V25.1561C64.1663 24.1769 63.7291 23.2481 62.9725 22.6199L54.0784 15.5682C52.5312 14.3317 50.3145 14.3717 48.8135 15.663L40.1224 22.6199C39.33 23.2296 38.8564 24.1612 38.833 25.1561V36.7589C38.833 39.2855 40.8962 41.3336 43.4412 41.3336H45.9961C46.9013 41.3337 47.637 40.6086 47.6436 39.71L47.6794 39.6981Z" fill="white"/>
<path opacity="0.4" d="M45.1602 111.708L49.151 106.521L53.7033 110.097L57.6087 105.057" stroke="#384455" stroke-width="1.5" stroke-linecap="round" stroke-linejoin="round"/>
<circle cx="62.1606" cy="97.6" r="2.56293" stroke="#384455" stroke-width="1.5" stroke-linecap="round" stroke-linejoin="round"/>
<path d="M55.3994 96.1602H45.7091C41.6938 96.1602 39.2041 99.0038 39.2041 103.019V113.796C39.2041 117.811 41.645 120.642 45.7091 120.642H57.1812C61.1965 120.642 63.6862 117.811 63.6862 113.796V104.41" stroke="#384455" stroke-width="1.5" stroke-linecap="round" stroke-linejoin="round"/>
<path opacity="0.4" d="M39.623 184.54H63.3883" stroke="#384455" stroke-width="1.5" stroke-linecap="round" stroke-linejoin="round"/>
<path opacity="0.4" fill-rule="evenodd" clip-rule="evenodd" d="M44.8271 189.747C44.8271 189.333 45.1629 188.997 45.5771 188.997H45.5895C46.0037 188.997 46.3395 189.333 46.3395 189.747C46.3395 190.161 46.0037 190.497 45.5895 190.497H45.5771C45.1629 190.497 44.8271 190.161 44.8271 189.747ZM51.5061 188.997C51.0919 188.997 50.7561 189.333 50.7561 189.747C50.7561 190.161 51.0919 190.497 51.5061 190.497H51.5185C51.9327 190.497 52.2685 190.161 52.2685 189.747C52.2685 189.333 51.9327 188.997 51.5185 188.997H51.5061ZM57.4227 188.997C57.0085 188.997 56.6727 189.333 56.6727 189.747C56.6727 190.161 57.0085 190.497 57.4227 190.497H57.4351C57.8493 190.497 58.1851 190.161 58.1851 189.747C58.1851 189.333 57.8493 188.997 57.4351 188.997H57.4227ZM57.4227 194.179C57.0085 194.179 56.6727 194.515 56.6727 194.929C56.6727 195.343 57.0085 195.679 57.4227 195.679H57.4351C57.8493 195.679 58.1851 195.343 58.1851 194.929C58.1851 194.515 57.8493 194.179 57.4351 194.179H57.4227ZM50.7561 194.929C50.7561 194.515 51.0919 194.179 51.5061 194.179H51.5185C51.9327 194.179 52.2685 194.515 52.2685 194.929C52.2685 195.343 51.9327 195.679 51.5185 195.679H51.5061C51.0919 195.679 50.7561 195.343 50.7561 194.929ZM45.5771 194.179C45.1629 194.179 44.8271 194.515 44.8271 194.929C44.8271 195.343 45.1629 195.679 45.5771 195.679H45.5895C46.0037 195.679 46.3395 195.343 46.3395 194.929C46.3395 194.515 46.0037 194.179 45.5895 194.179H45.5771Z" fill="#384455"/>
<path d="M56.892 174.667V179.055" stroke="#384455" stroke-width="1.5" stroke-linecap="round" stroke-linejoin="round"/>
<path d="M46.1205 174.667V179.055" stroke="#384455" stroke-width="1.5" stroke-linecap="round" stroke-linejoin="round"/>
<path fill-rule="evenodd" clip-rule="evenodd" d="M57.151 176.772H45.8613C41.9457 176.772 39.5 178.954 39.5 182.963V195.029C39.5 199.102 41.9457 201.334 45.8613 201.334H57.1387C61.0666 201.334 63.5 199.14 63.5 195.13V182.963C63.5123 178.954 61.079 176.772 57.151 176.772Z" stroke="#384455" stroke-width="1.5" stroke-linecap="round" stroke-linejoin="round"/>
<path fill-rule="evenodd" clip-rule="evenodd" d="M55.1487 255.683H46.278C43.5327 255.683 41.166 257.908 41.166 260.655V274.939C41.166 277.84 43.378 280.153 46.278 280.153H56.93C59.6767 280.153 61.902 277.687 61.902 274.939V262.717L55.1487 255.683Z" stroke="#384455" stroke-width="1.5" stroke-linecap="round" stroke-linejoin="round"/>
<path d="M54.7988 255.667V259.546C54.7988 261.439 56.3308 262.975 58.2228 262.979C59.9788 262.983 61.7748 262.984 61.8962 262.976" stroke="#384455" stroke-width="1.5" stroke-linecap="round" stroke-linejoin="round"/>
<path opacity="0.4" d="M54.5446 272.744H47.3486" stroke="#384455" stroke-width="1.5" stroke-linecap="round" stroke-linejoin="round"/>
<path opacity="0.4" d="M51.8233 266.141H47.3486" stroke="#384455" stroke-width="1.5" stroke-linecap="round" stroke-linejoin="round"/>
<path opacity="0.4" d="M58.96 346.576C61.0964 346.576 62.8295 344.844 62.8295 342.707C62.8295 340.571 61.0964 338.839 58.96 338.839" stroke="#384455" stroke-width="1.5" stroke-linecap="round" stroke-linejoin="round"/>
<path d="M60.7383 350.779C61.3763 350.823 62.0106 350.914 62.6352 351.054C63.5029 351.224 64.5467 351.58 64.9183 352.358C65.1554 352.857 65.1554 353.438 64.9183 353.938C64.5479 354.716 63.5029 355.071 62.6352 355.249" stroke="#384455" stroke-width="1.5" stroke-linecap="round" stroke-linejoin="round"/>
<path opacity="0.4" d="M43.8862 346.576C41.7497 346.576 40.0166 344.844 40.0166 342.707C40.0166 340.571 41.7497 338.839 43.8862 338.839" stroke="#384455" stroke-width="1.5" stroke-linecap="round" stroke-linejoin="round"/>
<path d="M42.1075 350.779C41.4695 350.823 40.8352 350.914 40.2106 351.054C39.3429 351.224 38.2991 351.58 37.9288 352.358C37.6904 352.857 37.6904 353.438 37.9288 353.938C38.2979 354.716 39.3429 355.071 40.2106 355.249" stroke="#384455" stroke-width="1.5" stroke-linecap="round" stroke-linejoin="round"/>
<path fill-rule="evenodd" clip-rule="evenodd" d="M51.4172 351.612C55.7463 351.612 59.4448 352.267 59.4448 354.889C59.4448 357.51 55.7708 358.189 51.4172 358.189C47.0869 358.189 43.3896 357.534 43.3896 354.912C43.3896 352.291 47.0636 351.612 51.4172 351.612Z" stroke="#384455" stroke-width="1.5" stroke-linecap="round" stroke-linejoin="round"/>
<path opacity="0.4" fill-rule="evenodd" clip-rule="evenodd" d="M51.4168 347.873C48.5617 347.873 46.2725 345.584 46.2725 342.727C46.2725 339.872 48.5617 337.583 51.4168 337.583C54.2719 337.583 56.5611 339.872 56.5611 342.727C56.5611 345.584 54.2719 347.873 51.4168 347.873Z" stroke="#384455" stroke-width="1.5" stroke-linecap="round" stroke-linejoin="round"/>
</svg>
