<svg width="30" height="30" viewBox="0 0 30 30" fill="none" xmlns="http://www.w3.org/2000/svg">
<g clip-path="url(#clip0_52_49145)">
<path d="M25.9688 2.15625L9.65625 3.09375L14.0625 29.25L29.25 25.9688L25.9688 2.15625Z" fill="#602718"/>
<path d="M15 18.4688C15 18.4688 14.8125 20.625 15.2812 22.7812L15.75 24.75C15.75 24.75 12.6562 24.5625 11.5312 23.5312C10.4062 22.5 8.71875 18.4688 8.71875 18.4688L9.84375 16.9688L15 18.4688Z" fill="#8E4028"/>
<path d="M1.49998 17.5319C2.62498 22.7819 7.87498 26.1569 13.125 25.0319C18.375 23.9069 20.9062 18.7507 19.4062 13.5007C18.0937 9.18816 13.2187 5.43816 7.87498 6.65691C2.53123 7.87566 0.281228 12.2819 1.49998 17.5319Z" fill="#8E4028"/>
<path d="M1.49996 17.2505C2.62496 22.313 8.71871 27.3755 13.5937 26.3442C18.4687 25.313 20.4375 18.4692 19.3125 13.4067C18.2812 8.34421 14.5312 4.78171 8.43746 6.09421C3.56246 7.12546 0.468708 12.188 1.49996 17.2505Z" fill="#8E4028"/>
<path d="M14.6862 22.7124C18.2771 21.9254 20.532 18.2944 19.7228 14.6023C18.9136 10.9103 15.3466 8.55541 11.7557 9.34247C8.16487 10.1295 5.90992 13.7605 6.71915 17.4526C7.52839 21.1446 11.0954 23.4995 14.6862 22.7124Z" fill="#8E4028"/>
<path d="M4.31217 16.125C4.31217 16.125 4.12467 18.9375 5.15592 19.9687C6.18717 21 2.53092 21.8437 2.53092 21.8437C2.53092 21.8437 0.749669 19.0312 0.843419 17.25C0.937169 15.4687 4.31217 16.125 4.31217 16.125ZM8.62467 22.9688C7.31217 23.1562 10.4059 26.7187 11.9059 27C13.4059 27.2812 15.8434 26.9062 16.8747 26.3438C17.9059 25.7812 19.6872 21.6562 19.8747 20.4375L20.2497 18.1875C20.2497 18.1875 19.9684 18.375 19.3122 18.9375C18.0934 19.6875 15.5622 21.8438 8.62467 22.9688ZM13.1247 19.2188C13.1247 19.2188 10.8747 18.75 9.74967 19.5C9.74967 19.5 9.18717 20.25 9.56217 20.3438C9.93717 20.5313 10.4059 20.8125 10.5934 20.4375C10.9684 20.25 12.2809 19.3125 13.1247 19.2188ZM17.9059 17.1562C17.9059 17.1562 18.2809 15.6562 19.2184 15.4688C19.2184 15.4688 19.9684 15.5625 19.9684 15.8437C19.9684 16.125 20.0622 16.5938 19.6872 16.5C19.3122 16.5 18.1872 16.7812 17.9059 17.1562Z" fill="#8E4028"/>
<path d="M9.09375 22.9699L5.90625 22.0324L5.53125 23.6261C5.53125 23.6261 7.5 25.8761 10.875 26.5324L9.09375 22.9699ZM15.4688 17.0636L13.7812 17.6261L13.4062 16.4074L15.375 15.7511L15.4688 17.0636ZM12.4688 15.0011C12.4688 15.0011 10.875 14.1574 9.28125 14.8136C7.59375 15.4699 6.46875 17.1574 7.3125 17.4386C8.15625 17.7199 8.4375 16.8761 8.71875 16.2199C9 15.5636 10.2188 14.9074 11.7188 15.8449C11.7188 15.8449 12.375 15.5636 12.4688 15.0011ZM5.15625 10.3136C8.90625 8.53238 14.625 6.84488 18.0938 10.1261C16.6875 11.0636 13.7812 12.0949 13.7812 12.0949L12.6562 11.8136C9 10.5011 5.34375 11.9074 3.1875 13.0324C3.5625 11.8136 4.125 10.7824 5.15625 10.3136Z" fill="#8E4028"/>
<path d="M1.21875 10.0314L2.4375 13.2189C2.4375 13.2189 7.21875 9.46891 12.0937 11.1564L13.0312 11.4377C13.0312 11.4377 17.625 10.1252 17.9063 9.18766C17.9063 9.18766 18.75 7.78141 18 6.18766C18 6.18766 17.625 7.21891 17.5313 8.06266C17.5313 8.06266 17.1562 5.15641 14.9062 4.40641C14.9062 4.40641 15.2812 4.68766 15.2812 6.00016C15.2812 6.00016 11.25 3.56266 8.53125 3.93766C8.53125 3.93766 9.84375 4.87516 9.9375 6.28141C9.9375 6.28141 6.75 5.34391 3.65625 6.18766C3.65625 6.18766 4.125 7.03141 4.96875 7.68766C4.96875 7.59391 3 8.62516 1.21875 10.0314Z" fill="#8E4028"/>
<path d="M4.875 12.1875L6.75 13.6875C6.75 13.6875 5.25 16.7813 5.90625 19.7813L1.125 18.0937L1.3125 12.75C1.3125 12.8438 3.1875 12.4688 4.875 12.1875Z" fill="#8E4028"/>
<path d="M6.46875 18.6562C6.375 18.6562 4.21875 18.5625 4.21875 18.5625V19.125L6.65625 20.1562L6.28125 18.9375L6.46875 18.6562ZM1.6875 13.6875L6 13.7812C6 13.7812 5.71875 13.5 5.53125 14.8125L2.8125 15.375C2.71875 15.375 1.40625 15.1875 1.40625 15.1875L1.6875 13.6875ZM4.03125 6C4.03125 6 6 7.125 8.15625 7.21875L4.59375 8.90625C4.59375 8.90625 7.21875 9.1875 8.25 9.09375C9.28125 9 10.5 9.1875 10.5 9.1875L5.34375 10.5C5.34375 10.5 9.375 10.125 11.25 10.9687C11.25 10.9687 6.1875 10.4062 2.34375 13.3125L1.6875 13.125L0 10.7812C0 10.7812 2.15625 9.09375 3.5625 8.625L4.6875 7.96875L3.65625 6.09375L4.03125 6Z" fill="#8E4028"/>
<path d="M0.09375 10.6875L4.40625 10.125L2.34375 11.3438L6.46875 11.0625C6.46875 11.0625 4.40625 11.5312 3.65625 13.0312L3 13.3125L1.40625 13.125L0.09375 10.6875ZM18.1875 8.15625C18.1875 8.15625 16.9688 9.375 15.75 9.5625L10.3125 10.5938L12.8438 11.4375C12.8438 11.4375 16.5938 10.5 17.25 9.9375C18 9.28125 18.1875 8.15625 18.1875 8.15625ZM14.25 4.59375C14.25 4.59375 15.0938 6.84375 14.7188 8.34375C14.7188 8.34375 15.6562 6.84375 15.375 5.25C15.375 5.25 15.0938 4.59375 14.25 4.59375Z" fill="#8E4028"/>
<path d="M10.4064 4.03125C10.4064 4.03125 12.9377 4.59375 13.9689 5.8125C15.0002 7.03125 14.9064 7.78125 14.9064 7.78125C14.9064 7.78125 14.2502 6.28125 13.2189 5.90625C12.1877 5.53125 10.4064 4.03125 10.4064 4.03125ZM5.90645 6.09375C5.8127 6.09375 8.71895 5.71875 10.5939 6.84375C12.4689 7.96875 13.6877 8.4375 13.6877 8.4375L10.1252 7.5C10.1252 7.59375 7.3127 6.09375 5.90645 6.09375ZM4.21895 20.25C4.21895 20.25 2.6252 19.4062 1.8752 19.5937C1.1252 19.7812 0.843946 23.4375 3.65645 23.4375C6.5627 23.4375 4.21895 20.25 4.21895 20.25Z" fill="#8E4028"/>
<path d="M4.40626 20.5307C4.40626 20.5307 2.34376 18.6557 1.50001 18.937C0.656261 19.2182 0.468761 23.9995 3.84376 23.9057C7.21876 23.9057 4.40626 20.5307 4.40626 20.5307Z" fill="#8E4028"/>
<path d="M3.93756 20.0617C3.93756 20.0617 2.62506 19.4992 1.96881 19.6867C1.31256 19.8742 1.12506 23.1555 3.56256 23.0617C6.00006 22.968 3.93756 20.0617 3.93756 20.0617Z" fill="#8E4028"/>
<path d="M4.31256 20.2492C4.31256 20.2492 3.00006 19.6867 2.34381 19.8742C1.68756 20.0617 1.50006 23.343 3.93756 23.2492C6.37506 23.1555 4.31256 20.2492 4.31256 20.2492ZM13.6876 25.218C14.9063 26.2492 17.3438 25.3117 17.0626 24.2805L13.6876 25.218Z" fill="#8E4028"/>
<path d="M10.5937 23.1562C11.0625 23.25 11.7187 23.3437 12.1875 23.25C14.25 23.0625 16.125 22.5937 18.0937 21.75C17.8125 21.9375 17.625 22.125 17.3437 22.2187C17.1562 22.6875 16.9688 23.25 16.9688 23.625C17.1562 23.625 17.3437 23.7187 17.7187 23.625C16.4062 24.5625 14.3437 25.0312 13.5 24.8437C12.8437 24.75 11.625 24.1875 10.4062 23.4375C10.4062 23.3437 10.5 23.25 10.5937 23.1562Z" fill="#8E4028"/>
<path d="M10.125 23.0625C10.2188 23.0625 10.2187 22.9688 10.3125 22.875H10.2187C10.3125 22.875 10.3125 22.7812 10.4063 22.7812C10.875 22.9687 11.625 23.0625 12.0937 23.0625C14.1562 22.875 16.0313 22.4062 18 21.4688V21.8437C17.7188 22.125 17.4375 22.2187 17.1562 22.3125C16.9687 22.875 16.9688 23.3438 16.9688 23.9063C17.1562 23.9063 17.3437 23.8125 17.625 23.625C16.4062 24.75 13.125 25.5938 12.1875 25.3125C11.625 25.125 11.25 24.2813 10.125 23.0625Z" fill="#8E4028"/>
<path d="M16.9688 22.5C16.875 22.875 16.6875 23.3437 16.7812 23.7187V23.8125C16.5937 23.9062 16.5 24 16.3125 24L14.7187 24.5625C14.4375 24.6563 13.875 24.75 13.5937 24.6562C13.125 24.5625 12.5625 24.2813 12.0937 24.0938L11.0625 23.5313C11.5312 23.625 11.9063 23.625 12.2813 23.625C13.875 23.3438 15.375 23.0625 16.9688 22.5Z" fill="#8E4028"/>
<path d="M16.9688 22.5C16.9688 22.7812 16.875 22.9688 16.7812 23.1563C16.6875 23.25 16.4062 23.3438 16.3125 23.4375C16.5 23.4375 16.6875 23.5312 16.7812 23.8125C16.0312 24.1875 13.7812 24.8437 12.9375 24.6562C12.6562 24.5625 12.375 24.5625 12.0937 24.4688C12.1875 24.375 12.9375 24.1875 13.125 24.0938C12.6562 24.0938 12.0937 24 11.9062 23.9062C11.8125 23.8125 11.625 23.7188 11.5312 23.5313H12.1875C13.875 23.3438 15.375 22.9688 16.9688 22.5Z" fill="#8E4028"/>
<path d="M16.8749 22.8743C16.8749 22.9681 16.7812 23.0618 16.7812 23.1556C16.6874 23.2493 16.4062 23.3431 16.3124 23.4368C16.4999 23.4368 16.6874 23.5306 16.7812 23.8118C16.1249 24.1868 14.6249 24.7493 13.7812 24.6556C13.4999 24.4681 13.3124 24.0931 13.2187 23.7181C14.4374 23.5306 15.5624 23.2493 16.8749 22.8743ZM8.24994 21.0931C9.09369 20.9056 10.0312 20.9993 10.6874 21.2806C11.5312 21.1868 11.9999 21.0931 12.5624 20.9056C13.8749 19.6868 13.1249 18.2806 12.1874 17.3431C11.8124 16.9681 11.1562 16.7806 10.5937 16.9681C9.09369 17.3431 8.06244 17.9993 7.68744 18.2806C7.49994 18.9368 7.40619 20.9056 8.24994 21.0931Z" fill="#8E4028"/>
<path d="M8.25031 21.0939C9.09406 21.0002 9.75031 21.0939 10.4066 21.2814C11.2503 21.0939 11.7191 21.0002 12.2816 20.7189C12.9378 19.8752 12.5628 18.4689 11.7191 17.8127C10.8753 17.7189 8.25031 18.4689 7.78156 19.1252C7.50031 19.7814 7.68781 20.7189 8.25031 21.0939Z" fill="#8E4028"/>
<path d="M12.4688 18.8438C12.2812 18.4688 11.625 17.625 11.25 17.3438C10.4062 17.25 8.4375 17.5312 7.96875 18.1875C7.875 18.4687 7.59375 19.6875 7.59375 19.9687C8.71875 20.7187 12.1875 20.4375 12.375 19.0312C12.4688 18.9375 12.4688 18.9375 12.4688 18.8438Z" fill="#8E4028"/>
<path d="M8.15625 18.8438C7.875 19.2188 7.78125 19.6875 7.78125 20.0625C7.875 20.4375 8.0625 20.8125 8.4375 21.0938C9 21.0938 9.5625 21.0938 10.125 21.1875C10.7812 20.8125 10.9688 20.1562 10.875 19.5937C10.7813 18.9375 10.2187 18.2812 9.375 18.2812C8.90625 18.4688 8.4375 18.6563 8.15625 18.8438Z" fill="#8E4028"/>
<path d="M9.18731 18.9369C8.71856 19.0307 8.34356 19.4994 8.43731 19.9682C8.53106 20.4369 8.99981 20.8119 9.46856 20.7182C9.93731 20.6244 10.3123 20.1557 10.2186 19.6869C10.1248 19.2182 9.65606 18.8432 9.18731 18.9369ZM16.4061 15.2807C16.1248 16.4994 16.4998 17.9057 17.1561 19.1244C17.9998 19.4994 19.5936 19.0307 20.2498 18.2807C20.4373 16.9682 20.0623 15.1869 19.0311 14.4369C18.0936 13.6869 16.6873 14.0619 16.4061 15.2807Z" fill="#8E4028"/>
<path d="M16.4064 15.7496C16.1252 16.7808 16.4065 18.4683 17.0627 19.5933C17.9065 19.5933 19.5002 19.0308 19.9689 18.3746C20.1564 17.2496 19.6877 15.6558 18.7502 14.9996C17.9065 14.2496 16.6877 14.6246 16.4064 15.7496Z" fill="#8E4028"/>
<path d="M16.4062 16.0323C16.2188 16.5011 16.2188 16.8761 16.4062 17.5323C17.4375 18.4698 19.875 18.0948 19.6875 16.0323C19.5 15.5636 19.2188 15.0948 18.8438 14.8136C17.9063 14.2511 16.6875 15.0011 16.4062 16.0323Z" fill="#8E4028"/>
<path d="M17.2505 15.6556C16.313 15.8431 16.0317 16.7806 16.1255 17.6244C16.2192 18.3744 16.8755 19.2181 17.813 19.1244C18.7505 18.9369 19.0317 17.9994 18.938 17.1556C18.8442 16.4056 18.188 15.5619 17.2505 15.6556Z" fill="#8E4028"/>
<path d="M17.3441 16.4069C16.8754 16.5007 16.5941 16.9694 16.6879 17.5319C16.7816 18.0944 17.2504 18.4694 17.6254 18.3757C18.0941 18.2819 18.3754 17.8132 18.2816 17.2507C18.2816 16.6882 17.8129 16.3132 17.3441 16.4069Z" fill="#8E4028"/>
<path d="M17.0629 15.5631C16.5941 15.6568 16.3129 16.0318 16.4066 16.4068C16.5004 16.7818 16.8754 17.0631 17.3441 16.9693C17.8129 16.8756 18.0941 16.5006 18.0004 16.1256C17.9066 15.7506 17.5316 15.4693 17.0629 15.5631ZM8.43788 18.1881C7.96913 18.2818 7.68788 18.6568 7.78163 19.0318C7.87538 19.4068 8.25038 19.6881 8.71913 19.5943C9.18788 19.5006 9.46913 19.1256 9.37538 18.7506C9.28163 18.3756 8.90663 18.0943 8.43788 18.1881Z" fill="#8E4028"/>
<path d="M5.90625 19.0312L6.9375 21.1875C10.4063 21.8438 14.4375 19.9687 14.4375 19.9687C14.5312 18.8437 13.875 16.4062 13.875 16.4062C10.0313 16.7813 5.90625 19.0312 5.90625 19.0312ZM6.5625 19.5C6.5625 19.5 10.125 17.0625 13.3125 16.7812C13.3125 16.7812 13.9688 19.2188 13.875 20.1563C13.875 20.1563 10.5 21.8437 7.5 21.375L6.5625 19.5Z" fill="#8E4028"/>
<path d="M5.625 18.8443L6.9375 21.3755C10.4062 22.0318 14.4375 20.063 14.4375 20.063C14.5312 18.938 13.6875 16.2193 13.6875 16.2193C9.9375 16.5005 5.625 18.8443 5.625 18.8443ZM6.46875 19.0318C6.46875 19.0318 10.125 16.9693 13.4062 16.7818C13.4062 16.7818 13.9688 18.938 13.9688 19.8755C13.9688 19.8755 10.5938 21.563 7.59375 21.0943L6.46875 19.0318ZM12.0937 15.188L12.4688 14.9068C12.4688 14.9068 10.5 12.938 8.71875 14.3443C6.9375 15.7505 6.9375 16.7818 6.9375 16.7818C6.9375 16.7818 9.09375 13.4068 12.0937 15.188ZM21.375 15.4693L20.0625 15.2818L19.9687 15.0005C19.9687 15.0005 20.8125 14.7193 21.2813 14.813L21.375 15.4693Z" fill="#8E4028"/>
<path d="M19.0312 14.8125L21.0938 14.5312L21.1875 17.625L19.875 18.2812C19.875 18.2812 19.7812 15.4688 19.0312 14.8125Z" fill="#B79576"/>
<path d="M14.8125 18.2812C14.8125 18.2812 14.625 20.3437 15.0938 22.3125L15.5625 24.1875C15.5625 24.1875 12.6562 24 11.625 23.0625C10.5937 22.125 9 18.2812 9 18.2812L10.0312 16.875L14.8125 18.2812Z" fill="#FCC097"/>
<path d="M2.1558 17.8124C3.2808 22.7811 8.06205 25.5936 13.0308 24.4686C17.9996 23.3436 20.2496 18.4686 18.7496 13.4999C17.5308 9.46861 13.0308 5.99986 8.06205 7.12486C3.0933 8.24986 1.0308 12.8436 2.1558 17.8124Z" fill="#E8BD89"/>
<path d="M2.06189 17.1562C3.09314 21.9374 8.81189 26.7187 13.4994 25.6874C18.1869 24.6562 19.9681 18.2812 18.9369 13.4999C17.9056 8.81242 14.5306 6.09367 8.81189 7.40617C4.12439 8.34367 1.03064 12.3749 2.06189 17.1562Z" fill="#E8BD89"/>
<path d="M14.4992 22.2496C17.8878 21.5068 20.0147 18.0758 19.2498 14.5861C18.4849 11.0964 15.1178 8.86949 11.7293 9.61222C8.34072 10.3549 6.21382 13.786 6.97871 17.2757C7.7436 20.7654 11.1106 22.9923 14.4992 22.2496Z" fill="#FFD097"/>
<path d="M4.68736 16.1252C4.68736 16.1252 4.49986 18.8439 5.53111 19.7814C6.56236 20.7189 2.99986 21.5627 2.99986 21.5627C2.99986 21.5627 1.31236 18.8439 1.40611 17.2502C1.59361 15.5627 4.68736 16.1252 4.68736 16.1252Z" fill="#63310F"/>
<path d="M8.71842 22.5C7.49967 22.6875 10.4059 26.0625 11.8122 26.25C13.2184 26.5312 15.5622 26.1562 16.4997 25.5937C17.4372 25.0312 19.1247 21.1875 19.4059 19.9687L19.6872 18.4688C19.6872 18.4688 19.4997 18.4688 18.8434 18.9375C17.7184 19.875 15.2809 21.4687 8.71842 22.5Z" fill="#D8B18B"/>
<path d="M13.0313 19.0312C13.0313 19.0312 10.9688 18.5625 9.84377 19.3125C9.84377 19.3125 9.37502 19.9688 9.65627 20.1562C10.0313 20.3438 10.4063 20.625 10.6875 20.25C10.9688 19.875 12.1875 19.125 13.0313 19.0312ZM17.5313 17.0625C17.5313 17.0625 17.8125 15.6562 18.75 15.4688C18.75 15.4688 19.4063 15.5625 19.5 15.8437C19.5938 16.125 19.5938 16.5 19.3125 16.5C18.8438 16.4063 17.8125 16.6875 17.5313 17.0625Z" fill="#343F3D"/>
<path d="M18.1875 11.25C18.1875 11.25 17.3438 10.0312 14.9062 11.4375L15.8438 8.625C15.8438 8.625 17.3438 9.375 18.1875 11.1562" fill="#E5895B"/>
<path d="M9.1875 22.5L6.1875 21.5625L5.8125 23.0625C5.8125 23.0625 7.59375 25.125 10.875 25.7812L9.1875 22.5Z" fill="#B79576"/>
<path d="M15.2812 16.9688L13.6875 17.5313L13.3125 16.3125L15.0938 15.75L15.2812 16.9688Z" fill="#343F3D"/>
<path d="M12.375 15.0002C12.375 15.0002 10.875 14.1564 9.375 14.8127C7.78125 15.4689 6.65625 17.0627 7.5 17.2502C8.34375 17.4377 8.625 16.7814 8.90625 16.2189C9.1875 15.6564 10.3125 15.0002 11.7188 15.8439C11.625 15.8439 12.375 15.5627 12.375 15.0002ZM19.6875 12.8439C19.6875 12.8439 18.0938 12.1877 16.5 12.8439C14.9063 13.5002 13.9687 14.8127 14.7187 15.0002C15.4687 15.1877 15.9375 14.7189 16.2188 14.0627C16.5 13.5002 18 12.1877 19.3125 13.0314C19.3125 13.1252 19.5938 13.4064 19.6875 12.8439ZM5.4375 10.5939C9 8.90642 14.625 7.03142 17.9063 10.0314C16.5938 10.9689 13.5938 12.2814 13.5938 12.2814L12.5625 12.0002C9.09375 10.7814 5.71875 12.0939 3.65625 13.2189C3.9375 12.0939 4.5 11.0627 5.4375 10.5939Z" fill="#63310F"/>
<path d="M1.78125 10.3127L3 13.3127C3 13.3127 7.5 9.75016 12.0938 11.3439L12.9375 11.6252C12.9375 11.6252 17.25 10.3127 17.5313 9.46891C17.5313 9.46891 18.2812 8.15641 17.625 6.65641C17.625 6.65641 17.25 7.59391 17.1563 8.43766C17.1563 8.43766 16.7813 5.62516 14.7188 5.06266C14.7188 5.06266 15.0938 5.34391 15 6.56266C15 6.56266 12 4.12516 9.46875 4.50016C9.46875 4.50016 10.6875 5.53141 10.7813 6.84391C10.7813 6.84391 6.9375 6.00016 4.03125 6.75016C4.03125 6.75016 4.5 7.50016 5.25 8.15641C5.34375 8.06266 3.46875 9.00016 1.78125 10.3127Z" fill="url(#paint0_linear_52_49145)"/>
<path d="M5.25 12.375L7.03125 13.7812C7.03125 13.7812 5.625 16.7812 6.28125 19.5L1.78125 17.9063L1.875 12.9375L5.25 12.375Z" fill="#63310F"/>
<path d="M6.75 18.4688C6.65625 18.4688 4.59375 18.375 4.59375 18.375V18.9375L6.9375 19.9687L6.5625 18.75L6.75 18.4688Z" fill="#343F3D"/>
<path d="M2.25 13.7812L6.28125 13.875C6.28125 13.875 6 13.5938 5.8125 14.8125L3.1875 15.2812C3.09375 15.2812 1.96875 15.0938 1.96875 15.0938L2.25 13.7812Z" fill="url(#paint1_linear_52_49145)"/>
<path d="M4.40625 6.5625C4.40625 6.5625 6.1875 7.59375 8.25 7.6875L4.96875 9.28125C4.96875 9.28125 7.40625 9.5625 8.4375 9.46875C9.375 9.375 10.5938 9.5625 10.5938 9.5625L5.8125 10.7812C5.8125 10.7812 9.5625 10.4062 11.4375 11.1562C11.4375 11.1562 6.65625 10.5937 3.09375 13.3125L2.34375 13.125L0.9375 10.875C0.9375 10.875 2.71875 9.375 4.125 8.90625L5.0625 8.34375L4.125 6.5625H4.40625Z" fill="#B85A1B"/>
<path d="M0.65625 10.9688L4.6875 10.5L2.8125 11.7188L6.75 11.5313C6.75 11.5313 4.78125 12 4.125 13.4063L3.46875 13.6875L1.96875 13.5L0.65625 10.9688Z" fill="#63310F"/>
<path d="M17.8125 8.625C17.8125 8.625 16.5938 9.75 15.5625 9.9375L10.4062 10.875L12.8437 11.625C12.8437 11.625 16.4062 10.7812 16.9688 10.125C17.5312 9.46875 17.8125 8.625 17.8125 8.625ZM14.7187 4.96875C14.7187 4.96875 15.5625 7.03125 15.0938 8.53125C15.0938 8.53125 15.9375 7.125 15.75 5.625C15.75 5.53125 15.5625 4.96875 14.7187 4.96875Z" fill="#B85A1B"/>
<path d="M10.5004 4.6875C10.5004 4.6875 12.9379 5.25 13.7817 6.375C14.6254 7.5 14.6254 8.25 14.6254 8.25C14.6254 8.25 13.9692 6.84375 13.1254 6.46875C12.1879 6.09375 10.5004 4.6875 10.5004 4.6875ZM6.18791 6.65625C6.09416 6.65625 8.81291 6.28125 10.5942 7.40625C12.3754 8.53125 13.5004 8.90625 13.5004 8.90625L10.1254 8.0625C10.1254 8.0625 7.50041 6.65625 6.18791 6.65625Z" fill="#FFBA7B"/>
<path d="M4.68753 19.9686C4.68753 19.9686 3.18753 19.1248 2.53128 19.3123C1.87503 19.4998 1.50003 22.9686 4.21878 22.9686C6.93753 22.9686 4.68753 19.9686 4.68753 19.9686Z" fill="#63310F"/>
<path d="M4.78112 20.2508C4.78112 20.2508 2.90612 18.4696 2.06237 18.7508C1.21862 19.0321 1.12487 23.5321 4.31237 23.4383C7.49987 23.3446 4.78112 20.2508 4.78112 20.2508Z" fill="#E8BD89"/>
<path d="M4.4065 19.7805C4.4065 19.7805 3.18775 19.218 2.62525 19.4055C2.06275 19.593 1.7815 22.593 4.12525 22.4992C6.37525 22.4055 4.4065 19.7805 4.4065 19.7805Z" fill="#C18053"/>
<path d="M4.68718 19.968C4.68718 19.968 3.46843 19.4055 2.90593 19.593C2.34343 19.7805 2.15593 22.8742 4.40593 22.6867C6.65593 22.593 4.68718 19.968 4.68718 19.968Z" fill="#CE9D67"/>
<path d="M13.5938 24.6562C14.7188 25.5938 17.0625 24.75 16.7812 23.7188L13.5938 24.6562Z" fill="#FFBC8F"/>
<path d="M10.5938 22.6875C11.0625 22.7813 11.625 22.875 12.0937 22.7812C14.0625 22.5938 15.75 22.125 17.7187 21.375C17.4375 21.5625 17.25 21.75 16.9688 21.8438C16.7813 22.3125 16.5938 22.7813 16.5938 23.1563C16.7813 23.1563 16.9687 23.25 17.25 23.1563C16.0312 24 14.0625 24.4688 13.2188 24.2813C12.6563 24.1875 11.4375 23.625 10.3125 22.9688C10.5 22.875 10.5938 22.7813 10.5938 22.6875Z" fill="#9A4C18"/>
<path d="M10.2188 22.5938C10.3125 22.5938 10.3125 22.5 10.4063 22.4062H10.3125C10.4063 22.4062 10.4063 22.3125 10.5 22.3125C10.9688 22.5 11.625 22.5938 12.0938 22.5938C14.0625 22.4063 15.75 21.9375 17.625 21.0938V21.4687C17.3437 21.75 17.0625 21.8437 16.7812 21.9375C16.5938 22.5 16.5938 22.9688 16.5938 23.4375C16.7813 23.4375 16.9688 23.3437 17.25 23.25C16.0312 24.375 12.9375 25.0312 12.1875 24.8438C11.625 24.5625 11.25 23.7188 10.2188 22.5938Z" fill="#63310F"/>
<path d="M16.5938 22.125C16.5 22.5 16.4062 22.875 16.4062 23.25V23.3437C16.3125 23.3437 16.125 23.4375 15.9375 23.4375C15.4688 23.625 14.9062 23.8125 14.4375 23.9062C14.1562 24 13.6875 24.0938 13.3125 24C12.8438 23.9062 12.2812 23.625 11.9062 23.4375C11.625 23.25 11.25 23.1562 10.9688 22.9687C11.3438 23.0625 11.8125 23.0625 12.0937 23.0625C13.6875 22.875 15.1875 22.5938 16.5938 22.125Z" fill="#792936"/>
<path d="M16.5938 22.125C16.5938 22.3125 16.5 22.5938 16.4062 22.6875C16.3125 22.7813 16.0312 22.875 15.9375 22.9687C16.125 22.9687 16.2187 23.0625 16.3125 23.25C15.5625 23.625 13.5 24.1875 12.75 24.0938C12.4688 24 12.2812 24 12 23.9062C12.0938 23.8125 12.8437 23.625 13.0312 23.625C12.5625 23.625 12.0937 23.5312 11.9062 23.4375C11.8125 23.3437 11.625 23.25 11.5312 23.0625H12.1875C13.6875 22.875 15.1875 22.5938 16.5938 22.125Z" fill="url(#paint2_linear_52_49145)"/>
<path d="M16.5938 22.4062C16.5938 22.5 16.5 22.5938 16.5 22.6875C16.4063 22.7813 16.125 22.875 16.0313 22.9688C16.2188 22.9688 16.3125 23.0625 16.4063 23.25C15.75 23.625 14.3437 24.0938 13.5 24.0938C13.3125 23.9063 13.125 23.625 13.0312 23.25C14.25 23.0625 15.2813 22.7812 16.5938 22.4062Z" fill="url(#paint3_linear_52_49145)"/>
<path d="M8.43711 20.8118C9.28086 20.6243 10.1246 20.8118 10.6871 20.9993C11.5309 20.9056 11.9059 20.8118 12.4684 20.6243C13.6871 19.4993 13.0309 18.1868 12.0934 17.2493C11.7184 16.8743 11.1559 16.6868 10.5934 16.8743C9.18711 17.2493 8.15586 17.8118 7.78086 18.0931C7.68711 18.7493 7.68711 20.6243 8.43711 20.8118Z" fill="#343F3D"/>
<path d="M8.43741 20.8117C9.18741 20.718 9.84366 20.8117 10.4999 20.9992C11.3437 20.8117 11.7187 20.718 12.1874 20.4367C12.7499 19.593 12.4687 18.2805 11.6249 17.718C10.7812 17.6242 8.53116 18.2805 8.06241 18.9367C7.78116 19.593 8.06241 20.4367 8.53116 20.8117H8.43741Z" fill="url(#paint4_linear_52_49145)"/>
<path d="M12.3752 18.6564C12.2814 18.2814 11.5314 17.4377 11.2502 17.2502C10.4064 17.1564 8.62516 17.4377 8.15641 18.0002C8.06266 18.2814 7.87516 19.5002 7.96891 19.6877C9.00016 20.4377 12.0939 20.0627 12.3752 18.7502V18.6564Z" fill="white"/>
<path d="M8.34375 18.6563C8.0625 19.0313 7.96875 19.4063 8.0625 19.7813C8.15625 20.1563 8.34375 20.5313 8.625 20.7188C9.1875 20.7188 9.75 20.7188 10.2187 20.8125C10.7812 20.5313 11.0625 19.875 10.9687 19.3125C10.875 18.75 10.3125 18.0938 9.5625 18.0938C9 18.2812 8.625 18.4688 8.34375 18.6563Z" fill="#343F3D"/>
<path d="M9.28163 18.7507C8.81288 18.8444 8.53163 19.2194 8.62538 19.6882C8.71913 20.1569 9.09413 20.4382 9.56288 20.4382C10.0316 20.3444 10.3129 19.9694 10.2191 19.5007C10.1254 19.0319 9.75038 18.6569 9.28163 18.7507ZM16.1254 15.2819C15.8441 16.4069 16.2191 17.8132 16.8754 18.9382C17.6254 19.3132 19.3129 18.8444 19.9691 18.1882C20.1566 16.9694 19.5941 15.1882 18.6566 14.4382C17.7191 13.7819 16.4066 14.1569 16.1254 15.2819Z" fill="#343F3D"/>
<path d="M16.1252 15.6559C15.844 16.5934 16.1252 18.2809 16.7814 19.2184C17.5314 19.2184 19.1252 18.6559 19.5002 18.0934C19.6877 17.0622 19.2189 15.5622 18.3752 14.9059C17.5314 14.3434 16.4065 14.6247 16.1252 15.6559Z" fill="url(#paint5_linear_52_49145)"/>
<path d="M16.1249 16.0308C16.0311 16.4995 15.9374 16.7808 16.1249 17.437C17.0624 18.3745 19.4061 17.9995 19.2186 16.0308C19.0311 15.562 18.7499 15.187 18.3749 14.9058C17.5311 14.3433 16.4061 14.9995 16.1249 16.0308Z" fill="white"/>
<path d="M16.8747 15.6564C16.0309 15.7502 15.7496 16.7814 15.8434 17.4377C15.9371 18.1877 16.5934 18.9377 17.4372 18.8439C18.2809 18.7502 18.5622 17.7189 18.4684 17.0627C18.3747 16.3127 17.7184 15.5627 16.8747 15.6564Z" fill="#343F3D"/>
<path d="M17.0621 16.3132C16.6871 16.4069 16.4059 16.8757 16.4996 17.3444C16.5934 17.9069 16.9684 18.2819 17.4371 18.1882C17.8121 18.0944 18.0934 17.6257 17.9996 17.1569C17.8121 16.5944 17.4371 16.2194 17.0621 16.3132Z" fill="#343F3D"/>
<path d="M16.6874 15.4688C16.3124 15.5625 15.9374 15.9375 16.0312 16.3125C16.1249 16.6875 16.4999 16.9688 16.8749 16.875C17.2499 16.7812 17.6249 16.4063 17.5312 16.0313C17.5312 15.6563 17.1562 15.4688 16.6874 15.4688ZM8.62492 18C8.24992 18.0938 7.87492 18.4688 7.96867 18.8438C8.06242 19.2188 8.43742 19.5 8.81242 19.4063C9.18742 19.3125 9.56242 18.9375 9.46867 18.5625C9.46867 18.1875 9.09367 18 8.62492 18Z" fill="#FFFFFC"/>
<path d="M6.1875 18.8429L7.125 20.9054C10.4062 21.5617 14.1562 19.7804 14.1562 19.7804C14.25 18.6554 13.5938 16.4054 13.5938 16.4054C10.0313 16.6867 6.1875 18.8429 6.1875 18.8429ZM6.84375 19.3117C6.84375 19.3117 10.2188 16.9679 13.2188 16.7804C13.2188 16.7804 13.7812 19.0304 13.6875 19.9679C13.6875 19.9679 10.5 21.5617 7.6875 21.0929L6.84375 19.3117ZM15 16.2179L15.5625 19.1242C18.75 19.5929 21.1875 17.6242 21.1875 17.6242C21.375 16.6867 21.2812 14.9054 21.2812 14.9054C19.2188 14.3429 15 16.2179 15 16.2179ZM15.4688 16.8742C15.4688 16.8742 19.2188 14.4367 21.0938 14.7179C21.0938 14.7179 21.0937 16.9679 20.9062 17.8117C20.9062 17.8117 18.4688 19.5929 15.9375 19.2179L15.4688 16.8742Z" fill="white"/>
<path d="M6 18.6554L7.21875 20.9991C10.5 21.6554 14.3438 19.7804 14.3438 19.7804C14.4375 18.6554 13.6875 16.1241 13.6875 16.1241C10.0313 16.4054 6 18.6554 6 18.6554ZM6.75 18.8429C6.75 18.8429 10.2188 16.9679 13.2188 16.6866C13.2188 16.6866 13.7813 18.7491 13.6875 19.5929C13.6875 19.5929 10.5 21.1866 7.6875 20.7179L6.75 18.8429ZM14.9062 15.8429L15.5625 19.3116C18.75 19.7804 21.2813 17.6241 21.2813 17.6241C21.4688 16.6866 21.375 14.4366 21.375 14.4366C19.2188 14.0616 14.9062 15.8429 14.9062 15.8429ZM15.4688 16.2179C15.4688 16.2179 19.2188 14.6241 21.0938 14.9054C21.0938 14.9054 21.0938 16.7804 20.9062 17.5304C20.9062 17.5304 18.4688 19.3116 15.8438 18.9366L15.4688 16.2179Z" fill="#343F3D"/>
<path d="M12 15.1881L12.375 14.9069C12.375 14.9069 10.5 13.1256 8.90625 14.3444C7.3125 15.5631 7.21875 16.6881 7.21875 16.6881C7.21875 16.6881 9.1875 13.5006 12 15.1881Z" fill="url(#paint6_linear_52_49145)"/>
<path d="M19.3125 13.2194L19.6875 12.9381C19.6875 12.9381 17.8125 11.1569 16.2187 12.3756C14.5312 13.6881 14.5312 14.7194 14.5312 14.7194C14.5312 14.7194 16.5 11.5319 19.3125 13.2194Z" fill="url(#paint7_linear_52_49145)"/>
<path d="M20.8125 15.4687L19.5 15.2812L19.4062 15C19.4062 15 20.1562 14.8125 20.625 14.8125L20.8125 15.4687Z" fill="#E8BD89"/>
<path d="M6 21.2812C6 21.2812 6 22.875 4.96875 23.4375V23.625L5.625 23.7187C5.625 23.7187 6.46875 22.9688 6 21.2812Z" fill="#8E4028"/>
<path d="M25.9688 2.25L11.8125 3.84375L15.4687 28.0312L29.25 25.7812L25.9688 2.25Z" fill="#8F672F"/>
<path d="M20.0625 15.6562L15 16.2187L16.3125 24.9375L21.2813 24.1875L20.0625 15.6562Z" fill="#9E7544"/>
<path d="M18.75 15.0008L16.2187 15.2821C15.8437 15.2821 15.6562 15.6571 15.6562 15.9383L16.3125 20.5321C16.4062 20.8133 16.6875 21.0946 16.9687 21.0008L19.5 20.6258C19.7812 20.5321 20.0625 20.2508 19.9687 19.9696L19.4062 15.4696C19.3125 15.1883 19.0312 14.9071 18.75 15.0008Z" fill="#C9D1CD"/>
<path d="M26.25 14.8125L21.0937 15.375L22.4062 24.0938L27.375 23.25L26.25 14.8125ZM18.75 6L13.6875 6.5625L14.7187 14.25L19.6875 13.5L18.75 6ZM24.8438 5.0625L19.7812 5.71875L21.0937 14.4375L26.0625 13.5938L24.8438 5.0625Z" fill="#9E7544"/>
<path d="M13.8752 24.093L16.6877 23.6242C17.1565 23.5305 17.5315 23.1555 17.5315 22.6867C17.5315 22.1242 17.1565 21.6555 16.594 21.5617L13.594 21.1867C12.844 21.093 12.2815 21.7492 12.469 22.4055L12.7502 23.4367C12.9377 23.9992 13.4065 24.1867 13.8752 24.093Z" fill="#8E4028"/>
<path d="M14.0627 25.7805L16.8752 25.3117C17.344 25.218 17.719 24.843 17.719 24.3742C17.719 23.8117 17.344 23.343 16.7815 23.2492L13.7815 22.8742C13.0315 22.7805 12.469 23.4367 12.6565 24.093L12.9377 25.1242C13.1252 25.6867 13.594 25.8742 14.0627 25.7805Z" fill="#8E4028"/>
<path d="M14.2502 27.6555L17.0627 27.1867C17.5315 27.093 17.9065 26.718 17.9065 26.2492C17.9065 25.6867 17.5315 25.218 16.969 25.1242L14.0627 24.843C13.3127 24.7492 12.7502 25.4055 12.9377 26.0617L13.219 27.093C13.4065 27.468 13.8752 27.7492 14.2502 27.6555Z" fill="#8E4028"/>
<path d="M14.0628 23.8131L16.219 23.4381C16.594 23.3443 16.8753 23.0631 16.8753 22.6881C16.8753 22.2193 16.594 21.8443 16.1253 21.8443L13.7815 21.5631C13.219 21.4693 12.7503 22.0318 12.844 22.5006C12.9378 22.7818 12.9378 23.0631 13.1253 23.3443C13.3128 23.7193 13.6878 23.9068 14.0628 23.8131Z" fill="#FFD097"/>
<path d="M14.2503 25.5943L16.4065 25.2193C16.7815 25.1256 17.0628 24.8443 17.0628 24.4693C17.0628 24.0006 16.7815 23.6256 16.3128 23.6256L14.0628 23.3443C13.5003 23.2506 13.0315 23.8131 13.1253 24.2818C13.219 24.5631 13.219 24.8443 13.4065 25.1256C13.5003 25.5006 13.8753 25.6881 14.2503 25.5943Z" fill="#FFD097"/>
<path d="M14.5315 27.3756L16.6878 27.0006C17.0628 26.9068 17.344 26.6256 17.344 26.2506C17.344 25.7818 17.0628 25.4068 16.594 25.4068L14.2503 25.1256C13.6878 25.0318 13.219 25.5943 13.3128 26.0631C13.4065 26.3443 13.4065 26.6256 13.594 26.9068C13.7815 27.2818 14.1565 27.4693 14.5315 27.3756Z" fill="#FFD097"/>
<path d="M16.7809 23.1563L13.1247 23.0625C13.1247 23.0625 12.8434 23.3438 13.2184 23.625C13.5934 23.9063 16.3122 23.625 16.3122 23.625L16.7809 23.1563Z" fill="#D8B18B"/>
<path d="M17.1559 24.9375L13.4997 24.75C13.4997 24.75 13.2184 25.0313 13.5934 25.3125C13.9684 25.5938 16.6872 25.3125 16.6872 25.3125C16.6872 25.3125 17.0622 25.125 17.1559 24.9375Z" fill="#D8B18B"/>
<path d="M17.1559 26.8125L13.4997 26.625C13.4997 26.625 13.2184 26.9063 13.5934 27.1875C13.9684 27.4688 16.6872 27.1875 16.6872 27.1875C16.6872 27.1875 17.0622 27 17.1559 26.8125Z" fill="#D8B18B"/>
<path d="M13.3125 7.96797L16.5 7.59297C17.0625 7.49922 17.4375 7.12422 17.5312 6.65547C17.5312 6.09297 17.1562 5.62422 16.5 5.53047L13.0312 5.06172C12.1875 4.96797 11.5312 5.62422 11.7187 6.28047C11.8125 6.65547 11.9062 7.03047 12.0937 7.31172C12.1875 7.78047 12.75 8.06172 13.3125 7.96797Z" fill="#8E4028"/>
<path d="M13.6875 10.3117L16.875 9.93672C17.4375 9.84297 17.8125 9.46797 17.9062 8.99922C17.9062 8.43672 17.5312 7.96797 16.875 7.87422L13.4062 7.40547C12.5625 7.31172 11.9062 7.96797 12.0937 8.62422C12.1875 8.99922 12.2812 9.37422 12.4687 9.65547C12.6562 10.1242 13.125 10.3117 13.6875 10.3117Z" fill="#8E4028"/>
<path d="M14.0625 12.5617L17.25 12.1867C17.8125 12.093 18.1875 11.718 18.2812 11.2492C18.2812 10.6867 17.9062 10.218 17.25 10.1242L13.7812 9.65547C12.9375 9.56172 12.2812 10.218 12.4687 10.8742C12.5625 11.2492 12.6562 11.6242 12.8437 11.9055C13.0312 12.3742 13.5 12.6555 14.0625 12.5617Z" fill="#8E4028"/>
<path d="M13.4997 8.06303L15.8434 7.68803C16.2184 7.59428 16.5934 7.31303 16.5934 6.93803C16.5934 6.46928 16.3122 6.09428 15.8434 6.00053L13.3122 5.62553C12.7497 5.53178 12.1872 6.09428 12.3747 6.65678L12.6559 7.50053C12.7497 7.96928 13.1247 8.15678 13.4997 8.06303Z" fill="#FFD097"/>
<path d="M13.7809 9.93803L16.1247 9.56303C16.4997 9.46928 16.8747 9.18803 16.8747 8.81303C16.8747 8.34428 16.5934 7.96928 16.1247 7.87553L13.5934 7.50053C13.0309 7.40678 12.4684 7.96928 12.6559 8.53178L12.9372 9.37553C13.0309 9.84428 13.4059 10.0318 13.7809 9.93803Z" fill="#FFD097"/>
<path d="M14.0622 11.813L16.4059 11.438C16.7809 11.3443 17.1559 11.063 17.1559 10.688C17.1559 10.2193 16.8747 9.84428 16.4059 9.75053L13.8747 9.37553C13.3122 9.28178 12.7497 9.84428 12.9372 10.4068L13.2184 11.2505C13.2184 11.7193 13.6872 11.9068 14.0622 11.813Z" fill="#FFD097"/>
<path d="M17.0622 11.1562L13.2184 10.9687C13.2184 10.9687 12.9372 11.25 13.3122 11.5312C13.6872 11.8125 16.5934 11.5312 16.5934 11.5312C16.5934 11.5312 16.9684 11.3437 17.0622 11.1562ZM16.7809 9.28125L12.9372 9.09375C12.9372 9.09375 12.6559 9.375 13.0309 9.65625C13.4059 9.9375 16.3122 9.65625 16.3122 9.65625C16.3122 9.65625 16.5934 9.5625 16.7809 9.28125ZM16.3122 7.5L12.4684 7.3125C12.4684 7.3125 12.1872 7.59375 12.5622 7.875C12.9372 8.15625 15.8434 7.875 15.8434 7.875C15.8434 7.875 16.2184 7.78125 16.3122 7.5Z" fill="#D8B18B"/>
<path d="M16.4065 17.344C16.3127 16.6877 16.7815 16.0315 17.4377 15.9377C18.094 15.844 18.7502 16.3127 18.844 16.969C18.9377 17.344 18.3752 17.8127 18.094 18.094L18.6565 19.5002L17.2502 19.6877L17.344 18.094C17.0627 18.094 16.5002 17.8127 16.4065 17.344Z" fill="#343F3D"/>
<path d="M12.2812 11.7188L14.1562 21.375H14.8125L13.4062 12.4688L12.2812 11.7188Z" fill="#602718"/>
<path d="M25.9688 2.25L26.1562 3.09375L11.9062 4.78125L11.8125 3.84375L25.9688 2.25Z" fill="#9E7544"/>
<path d="M19.125 26.625L18.75 27L20.1562 28.125L29.25 20.9062L28.0312 19.125L19.125 26.625Z" fill="#9A4C18"/>
<path d="M29.1563 23.2494C28.5001 26.4369 25.2188 28.8744 21.8438 28.4056C18.5626 28.0306 16.7813 25.0306 17.7188 21.9369C18.6563 19.0306 21.7501 17.0619 24.6563 17.3431C27.7501 17.7181 29.7188 20.2494 29.1563 23.2494Z" fill="#9A4C18"/>
<path d="M29.8121 24.3736C29.1559 27.3736 25.9684 29.7173 22.6871 29.3423C19.4996 28.9673 17.7184 26.1548 18.6559 23.1548C19.5934 20.4361 22.5934 18.5611 25.4996 18.8423C28.4996 19.0298 30.3746 21.4673 29.8121 24.3736Z" fill="#9A4C18"/>
<path d="M20.0625 26.9063L21.375 27.8438L28.7813 21.5625L27.8438 19.9688L20.0625 26.9063Z" fill="#F49937"/>
<path d="M29.1564 24.2821C28.5939 26.9071 25.8751 28.7821 23.2501 28.5008C20.5314 28.2196 19.1251 25.7821 19.8751 23.2508C20.6251 20.8133 23.1564 19.2196 25.5939 19.5008C28.1251 19.7821 29.7189 21.8446 29.1564 24.2821Z" fill="#F49937"/>
<path d="M28.4059 23.1561C27.8434 25.9686 24.9372 28.0311 22.0309 27.6561C19.1247 27.2811 17.5309 24.7499 18.3747 22.0311C19.2184 19.4999 21.8434 17.7186 24.4684 17.9999C27.1872 18.2811 28.9684 20.5311 28.4059 23.1561Z" fill="#FFEDC0"/>
<path d="M28.0314 23.3446C27.4689 25.9696 24.7501 27.8446 22.1251 27.5633C19.4064 27.2821 18.0001 24.8446 18.7501 22.3133C19.5001 19.8758 22.0314 18.2821 24.4689 18.5633C26.9064 18.7508 28.5939 20.8133 28.0314 23.3446Z" fill="#FFD766"/>
<path d="M26.9998 23.1565C26.531 25.1252 24.4685 26.6252 22.406 26.344C20.3435 26.0627 19.2185 24.2815 19.781 22.3127C20.3435 20.4377 22.3123 19.1252 24.281 19.3127C26.156 19.594 27.3748 21.2815 26.9998 23.1565Z" fill="#FFEDC0"/>
<path d="M27.0935 22.6877C26.6248 24.6565 24.5623 26.1565 22.4998 25.8752C20.4373 25.594 19.3123 23.8127 19.8748 21.844C20.4373 19.969 22.406 18.6565 24.3748 18.844C26.2498 19.1252 27.4685 20.8127 27.0935 22.6877Z" fill="#F49937"/>
<path d="M26.4373 23.1571C26.0623 24.8446 24.2811 26.0634 22.5936 25.8759C20.8123 25.6884 19.8748 24.0946 20.3436 22.5009C20.8123 20.9071 22.4998 19.7821 24.0936 19.9696C25.6873 20.0634 26.8123 21.4696 26.4373 23.1571Z" fill="#FFD766"/>
<path d="M24.5625 19.6875L24.8438 21.5625L26.8125 22.3125L24.8438 23.3437L24.375 25.5L22.875 24.0938L20.625 24.5625L21.75 22.6875L20.9062 21L23.0625 21.1875L24.5625 19.6875Z" fill="#F49937"/>
</g>
<defs>
<linearGradient id="paint0_linear_52_49145" x1="18.4699" y1="7.41686" x2="2.26943" y2="9.06638" gradientUnits="userSpaceOnUse">
<stop stop-color="#F38C05"/>
<stop offset="1" stop-color="#B85A1B"/>
</linearGradient>
<linearGradient id="paint1_linear_52_49145" x1="6.91712" y1="13.9311" x2="2.62064" y2="14.3685" gradientUnits="userSpaceOnUse">
<stop stop-color="#F38C05"/>
<stop offset="1" stop-color="#B85A1B"/>
</linearGradient>
<linearGradient id="paint2_linear_52_49145" x1="12.7304" y1="23.4248" x2="12.2192" y2="23.3916" gradientUnits="userSpaceOnUse">
<stop stop-color="#BDD6DE"/>
<stop offset="1" stop-color="white"/>
</linearGradient>
<linearGradient id="paint3_linear_52_49145" x1="14.0178" y1="23.5188" x2="13.2092" y2="24.037" gradientUnits="userSpaceOnUse">
<stop stop-color="white"/>
<stop offset="1" stop-color="#BDD6DE"/>
</linearGradient>
<linearGradient id="paint4_linear_52_49145" x1="10.6299" y1="18.7925" x2="10.8013" y2="19.6726" gradientUnits="userSpaceOnUse">
<stop stop-color="#BDD6DE"/>
<stop offset="1" stop-color="white"/>
</linearGradient>
<linearGradient id="paint5_linear_52_49145" x1="18.2318" y1="16.9034" x2="18.4739" y2="17.7031" gradientUnits="userSpaceOnUse">
<stop stop-color="#BDD6DE"/>
<stop offset="1" stop-color="white"/>
</linearGradient>
<linearGradient id="paint6_linear_52_49145" x1="12.9903" y1="14.6557" x2="7.70278" y2="15.194" gradientUnits="userSpaceOnUse">
<stop stop-color="#F38C05"/>
<stop offset="1" stop-color="#B85A1B"/>
</linearGradient>
<linearGradient id="paint7_linear_52_49145" x1="20.2451" y1="12.6402" x2="14.9566" y2="13.1787" gradientUnits="userSpaceOnUse">
<stop stop-color="#F38C05"/>
<stop offset="1" stop-color="#B85A1B"/>
</linearGradient>
<clipPath id="clip0_52_49145">
<rect width="30" height="30" fill="white"/>
</clipPath>
</defs>
</svg>
