<svg width="30" height="30" viewBox="0 0 30 30" fill="none" xmlns="http://www.w3.org/2000/svg">
<g clip-path="url(#clip0_52_47976)">
<path d="M27.0696 25.1837C28.0654 21.1629 22.8833 16.4201 15.4952 14.5904C8.10701 12.7607 1.31049 14.5369 0.314719 18.5576C-0.681051 22.5784 4.50101 27.3212 11.8892 29.1509C19.2773 30.9806 26.0739 29.2044 27.0696 25.1837Z" fill="#3D210F"/>
<path d="M27.15 24.9402C28.0337 21.3718 22.7609 16.9957 15.3727 15.166C7.98454 13.3362 1.27883 14.7457 0.395084 18.3142C-0.488661 21.8826 4.78422 26.2587 12.1724 28.0884C19.5605 29.9181 26.2663 28.5086 27.15 24.9402Z" fill="#80461D"/>
<path d="M26.0574 5.58144C26.4806 3.87261 23.7679 1.73056 19.9984 0.797023C16.2289 -0.136511 12.8301 0.491988 12.4069 2.20082C11.9837 3.90964 14.6964 6.0517 18.4659 6.98523C22.2353 7.91877 25.6342 7.29027 26.0574 5.58144Z" fill="#80461D"/>
<path d="M25.6871 25.8742C26.2496 25.4992 27.0933 24.843 27.4683 23.718C28.0308 21.9367 27.1871 20.4367 27.1871 20.4367C26.3433 18.843 21.7496 16.4055 15.9371 14.6242C10.1246 12.843 4.87458 12.2805 3.28083 13.218C3.28083 13.218 1.78083 13.968 1.21833 15.843C0.843329 16.968 1.21833 18.093 1.49958 18.7492C1.49958 18.843 1.59333 18.9367 1.68708 19.1242C1.78083 19.218 1.78083 19.3117 1.78083 19.3117C3.09333 20.9055 7.40583 23.0617 12.8433 24.7492C18.2808 26.343 23.0621 26.9055 25.0308 26.343C25.0308 26.343 25.1246 26.343 25.1246 26.2492C25.4058 26.0617 25.5933 25.968 25.6871 25.8742ZM25.4996 13.4055C25.8746 13.1242 26.5308 12.6555 26.7183 11.8117C27.0933 10.4992 26.5308 9.46797 26.5308 9.46797C25.9683 8.34297 22.7808 6.56172 18.7496 5.34297C14.7183 4.12422 11.1558 3.74922 9.93708 4.40547C9.93708 4.40547 8.90583 4.96797 8.43708 6.28047C8.15583 7.12422 8.43708 7.87422 8.62458 8.34297C8.62458 8.43672 8.71833 8.53047 8.71833 8.62422C8.81208 8.71797 8.81208 8.81172 8.81208 8.81172C9.74958 9.93672 12.6558 11.5305 16.4058 12.6555C20.1558 13.7805 23.5308 14.1555 24.8433 13.6867H24.9371C25.3121 13.4992 25.4058 13.4992 25.4996 13.4055Z" fill="#80461D"/>
<path d="M25.7815 19.9687C26.344 19.5937 27.0003 19.0312 27.3753 18C27.844 16.4062 27.1878 15.0937 27.1878 15.0937C26.4378 13.5937 22.5003 11.5312 17.4378 10.0312C12.3753 8.34375 7.8753 7.96875 6.46905 8.71875C6.46905 8.71875 5.15655 9.46875 4.59405 11.0625C4.21905 12.0937 4.59405 13.125 4.78155 13.6875C4.78155 13.7812 4.8753 13.875 4.96905 13.9687C5.0628 14.0625 5.0628 14.1562 5.0628 14.1562C6.1878 15.5625 9.9378 17.5312 14.6253 18.9375C19.3128 20.3438 23.4378 20.8125 25.219 20.25L25.3128 20.1562C25.5003 20.1562 25.594 20.0625 25.7815 19.9687ZM26.2503 7.21875C27.9378 4.3125 23.9065 0 23.9065 0C21.5628 2.71875 15.094 -0.28125 12.844 1.59375C12.1878 2.0625 12.0003 2.625 11.9065 3.09375C11.719 3.65625 11.9065 4.21875 12.094 4.5C12.094 4.59375 12.1878 4.59375 12.1878 4.6875C12.1878 4.78125 12.2815 4.78125 12.2815 4.78125C12.9378 5.53125 15.1878 6.65625 18.0003 7.5C20.8128 8.34375 23.2503 8.71875 24.2815 8.4375H24.3753C24.469 8.4375 24.9378 8.625 25.0315 8.625C25.3128 8.34375 25.7815 7.96875 26.2503 7.21875Z" fill="#80461D"/>
<path d="M26.6909 23.9726C27.4875 20.756 22.4292 16.7358 15.3928 14.9932C8.35647 13.2506 2.00659 14.4455 1.20998 17.6621C0.413363 20.8787 5.47167 24.899 12.508 26.6416C19.5444 28.3842 25.8942 27.1892 26.6909 23.9726Z" fill="#965123"/>
<path d="M24.1876 26.6243C24.7501 26.2493 25.5001 25.4993 25.8751 24.3743C26.4376 22.4993 25.6876 21.093 25.6876 21.093C24.9376 19.4993 20.9063 17.1555 15.7501 15.5618C10.5938 13.968 5.90633 13.4993 4.40633 14.4368C4.40633 14.4368 3.00008 15.2805 2.43758 17.0618C2.06258 18.2805 2.34383 19.3118 2.62508 19.968C2.62508 20.0618 2.71883 20.1555 2.81258 20.343C2.71883 20.4368 2.81258 20.5305 2.81258 20.5305C3.93758 22.1243 7.78133 24.1868 12.5626 25.7805C17.3438 27.2805 21.6563 27.7493 23.5313 27.093L23.6251 26.9993C23.9063 26.9055 24.0001 26.8118 24.1876 26.6243Z" fill="#BF763B"/>
<path d="M18.6562 17.8125C18.6562 17.8125 24.75 20.9063 23.1563 24.0938C21 28.5938 9.1875 24.8438 4.125 22.0312C4.125 22.0312 8.71875 25.5 17.25 26.9063C17.25 26.9063 21.5625 27.75 23.4375 27.1875C25.3125 26.625 25.9688 24.9375 25.7812 23.625C25.7812 22.4063 26.4375 20.9062 18.6562 17.8125Z" fill="#965123"/>
<path d="M24.4686 19.0308C24.9373 18.7496 25.4998 18.2808 25.7811 17.4371C26.1561 16.1246 25.5936 15.0933 25.5936 15.0933C24.9373 13.8746 21.4686 12.0933 17.1561 10.7808C12.8436 9.46833 8.90609 8.99958 7.78109 9.65583C7.78109 9.65583 6.65609 10.2183 6.28109 11.5308C5.99984 12.3746 6.28109 13.1246 6.46859 13.5933C6.46859 13.6871 6.56234 13.7808 6.56234 13.8746V14.0621C7.49984 15.2808 10.7811 16.8746 14.8123 18.0933C18.8436 19.3121 22.4061 19.7808 23.9061 19.3121H23.9998C24.2811 19.2183 24.3748 19.1246 24.4686 19.0308Z" fill="#BF763B"/>
<path d="M19.875 11.7188C19.875 11.7188 23.0625 13.5 21.9375 16.125C20.8125 18.75 12.0938 17.25 7.78125 15C7.78125 15 11.625 17.8125 18.75 19.0312C18.75 19.0312 22.4063 19.6875 23.9062 19.3125C25.4062 18.8438 25.9688 17.5313 25.875 16.5C25.7812 15.4688 26.4375 14.25 19.875 11.7188Z" fill="#965123"/>
<path d="M24.4571 12.1258C24.8803 10.417 21.801 8.18409 17.5792 7.13853C13.3573 6.09297 9.59182 6.63066 9.16862 8.33949C8.74542 10.0483 11.8248 12.2812 16.0466 13.3267C20.2684 14.3723 24.0339 13.8346 24.4571 12.1258Z" fill="#965123"/>
<path d="M24.4683 12.6566C24.8433 12.4691 25.312 12.0941 25.4995 11.4378C25.7808 10.4066 25.312 9.56281 25.312 9.56281C24.7495 8.62531 22.0308 7.21906 18.562 6.18781C15.0933 5.15656 11.9995 4.78156 11.062 5.25031C11.062 5.25031 10.1245 5.71906 9.84329 6.75031C9.65579 7.40656 9.84329 8.06281 10.0308 8.43781C10.0308 8.53156 10.1245 8.53156 10.1245 8.62531C10.1245 8.71906 10.2183 8.71906 10.2183 8.71906C10.9683 9.65656 13.5933 10.9691 16.8745 11.9066C20.062 12.8441 22.9683 13.2191 24.187 12.9378H24.2808C24.2808 12.7503 24.3745 12.7503 24.4683 12.6566Z" fill="#BF763B"/>
<path d="M21.4688 6.9375C21.4688 6.9375 23.7188 8.34375 22.875 10.4063C22.0312 12.4688 15.6562 12.0938 12.6562 10.4063C12.6562 10.4063 15.4687 12 20.5312 12.75C20.5312 12.75 23.0625 13.2187 24.1875 12.8437C25.3125 12.4687 25.6875 11.3438 25.5937 10.5938C25.5937 9.84375 26.0625 8.90625 21.4688 6.9375Z" fill="#965123"/>
<path d="M25.0317 6.56189C24.5629 8.24939 22.0317 8.90564 18.1879 7.96814C14.3442 7.03064 11.7192 4.87439 12.0942 3.18689C12.5629 1.49939 15.7504 1.21814 19.5942 2.15564C23.4379 3.09314 25.4067 4.87439 25.0317 6.56189Z" fill="#965123"/>
<path d="M21.2813 3C21.2813 3 23.1563 4.03125 22.5938 5.25C22.0313 6.5625 16.9688 5.625 14.4375 4.40625C14.4375 4.40625 16.6875 5.90625 20.8125 6.65625C20.8125 6.65625 22.875 7.125 23.8125 6.9375C24.6562 6.75 24.9375 6.09375 24.8438 5.53125C24.75 4.96875 25.125 4.40625 21.2813 3Z" fill="#965123"/>
<path d="M25.2189 6.375C26.5314 4.21875 23.7189 1.03125 23.7189 1.03125C21.7502 3 15.4689 0.375 13.5002 1.6875C12.9377 2.0625 12.7502 2.4375 12.7502 2.8125C12.6564 3.1875 12.8439 3.65625 12.9377 3.84375L13.0314 3.9375L13.1252 4.21875C13.7814 4.875 15.7502 5.8125 18.2814 6.5625C20.7189 7.3125 22.9689 7.6875 23.8127 7.5H23.9064C24.0002 7.5 24.0939 7.40625 24.0939 7.40625C24.3752 7.21875 24.7502 6.9375 25.2189 6.375Z" fill="#BF763B"/>
<path d="M13.0312 4.125C13.0312 4.125 17.625 6.46875 20.25 6.09375C22.875 5.71875 25.2188 3.84375 24.2812 1.78125C24.2812 1.78125 26.5312 4.59375 25.3125 6.28125C24.1875 7.96875 23.1562 7.59375 21.8438 7.40625C20.5312 7.3125 14.4375 5.625 13.0312 4.125ZM20.25 21.4688C19.875 21.75 19.4062 21.75 19.2188 21.5625C19.0312 21.375 19.2188 20.9062 19.5938 20.7188C19.9688 20.4375 20.4375 20.4375 20.625 20.625C20.8125 20.8125 20.625 21.1875 20.25 21.4688ZM15 3.65625C14.625 3.9375 14.0625 3.84375 13.7812 3.46875C13.5 3.09375 13.5938 2.625 13.9688 2.34375C14.3438 2.0625 14.9063 2.15625 15.1875 2.53125C15.4688 2.90625 15.375 3.375 15 3.65625ZM17.3438 2.90625C16.875 3.09375 16.4062 3 16.3125 2.8125C16.2188 2.53125 16.5 2.25 16.875 2.0625C17.3438 1.875 17.8125 1.96875 17.9062 2.15625C18 2.34375 17.7188 2.71875 17.3438 2.90625ZM12.8438 23.3438C12.375 23.3438 12 23.0625 12 22.7812C12 22.5 12.4688 22.3125 12.9375 22.4062C13.4062 22.4062 13.7812 22.6875 13.7812 22.9688C13.7812 23.1562 13.3125 23.3438 12.8438 23.3438ZM4.59375 16.6875C4.125 16.6875 3.75 16.2188 3.75 15.75C3.75 15.2812 4.21875 15 4.6875 15C5.15625 15 5.53125 15.4688 5.53125 15.9375C5.53125 16.4062 5.0625 16.7812 4.59375 16.6875ZM17.3438 22.5C16.875 22.5 16.4062 22.3125 16.4062 22.0312C16.4062 21.75 16.7812 21.5625 17.25 21.5625C17.7188 21.5625 18.1875 21.75 18.1875 22.0312C18.2812 22.2188 17.8125 22.5 17.3438 22.5Z" fill="#965123"/>
<path d="M23.7191 25.0316C23.2504 25.2191 22.7816 25.1254 22.6879 24.8441C22.5941 24.5629 22.8754 24.2816 23.3441 24.0941C23.8129 23.9066 24.2816 24.0004 24.3754 24.2816C24.4691 24.5629 24.1879 24.8441 23.7191 25.0316ZM25.3129 22.5004C25.2191 22.9691 24.9379 23.2504 24.5629 23.1566C24.2816 23.0629 24.0941 22.6879 24.2816 22.2191C24.3754 21.7504 24.7504 21.4691 25.0316 21.5629C25.3129 21.6566 25.4066 22.0316 25.3129 22.5004Z" fill="#80461D"/>
<path d="M23.7188 13.5938C21.75 13.2188 19.5 13.2188 17.0625 13.6875C16.7813 13.7813 16.5 13.7812 16.2188 13.7812H15.0938L13.9687 13.4063C13.6875 13.3125 13.5 13.2187 13.2188 13.0312C10.9688 11.9062 8.8125 11.1562 6.84375 10.9687C4.875 10.7812 0.9375 10.7812 0.9375 10.7812L0.75 13.125C0.75 13.125 1.5 13.3125 1.5 13.7812C1.5 14.25 2.15625 19.2188 2.15625 19.2188C2.15625 19.2188 2.4375 20.9063 3.75 21.5625C5.15625 22.2188 7.96875 23.1563 9.9375 22.0313C11.8125 20.9063 13.5 16.5938 13.7812 16.0313C14.0625 15.5625 14.1562 15.2812 14.8125 15.375C15.4688 15.4688 15.4688 15.75 15.6563 16.3125C15.8438 16.875 16.5 21.5625 18.0938 23.25C19.6875 24.9375 22.6875 24.8438 24.1875 24.6562C25.6875 24.4688 26.25 22.875 26.25 22.875L28.0312 17.8125C28.125 17.3438 28.875 17.3438 28.875 17.3438C28.9688 16.9688 29.25 15 29.25 15L23.7188 13.5938Z" fill="#020202"/>
<path opacity="0.48" d="M11.7188 13.5947C11.3438 13.3134 10.875 13.0322 10.2187 12.8447C7.875 12.0947 6.28125 11.7197 4.59375 11.9072C2.90625 12.0947 2.71875 14.8134 2.71875 14.8134L3 18.8447C3.1875 19.5947 3.375 20.7197 4.875 21.2822C5.4375 18.8447 6.9375 14.4384 11.7188 13.5947Z" fill="#9DB0D6"/>
<path opacity="0.48" d="M11.7188 13.5938C6.9375 14.5312 5.4375 18.8438 4.875 21.2813C5.25 21.375 5.625 21.4688 6.09375 21.5625C6.09375 21.5625 9.375 22.4062 10.6875 20.625C12 18.8438 12.6563 15.5625 12.5625 15.1875C12.4688 14.8125 12.4688 14.1562 11.7188 13.5938ZM26.0625 15.2812C21.1875 16.125 19.5938 20.625 19.125 23.0625C20.4375 23.9062 22.125 24 22.125 24C24.6563 24.4688 25.2188 23.0625 25.5938 22.3125C26.0625 21.5625 26.8125 18.5625 26.8125 18.5625C26.8125 18.5625 27.2812 16.2187 26.0625 15.2812Z" fill="#6276A5"/>
<path opacity="0.48" d="M26.0624 15.2812C25.9687 15.1875 25.8749 15.1875 25.7812 15.0938C24.1874 14.3438 22.5937 14.25 20.1562 14.25C17.7187 14.3438 17.5312 15.375 17.3437 15.75C17.1562 16.125 17.0624 19.5 17.9062 21.5625C18.1874 22.125 18.5624 22.5938 19.1249 22.875C19.5937 20.625 21.1874 16.125 26.0624 15.2812Z" fill="#9DB0D6"/>
<path opacity="0.27" d="M11.0339 15.7152C11.2446 14.8074 9.86179 13.7108 7.94523 13.2659C6.02868 12.8211 4.30418 13.1964 4.09346 14.1043C3.88274 15.0121 5.26559 16.1087 7.18214 16.5535C9.0987 16.9984 10.8232 16.6231 11.0339 15.7152Z" fill="#9DB0D6"/>
<path opacity="0.27" d="M25.6766 17.2967C25.7625 16.3687 24.244 15.4694 22.285 15.2881C20.3259 15.1068 18.6682 15.7121 18.5823 16.6401C18.4964 17.568 20.0149 18.4673 21.9739 18.6486C23.933 18.8299 25.5907 18.2246 25.6766 17.2967Z" fill="#9DB0D6"/>
</g>
<defs>
<clipPath id="clip0_52_47976">
<rect width="30" height="30" fill="white"/>
</clipPath>
</defs>
</svg>
