<svg width="48" height="48" viewBox="0 0 48 48" fill="none" xmlns="http://www.w3.org/2000/svg">
<path d="M32 18.75C33.5188 18.75 34.75 17.5188 34.75 16C34.75 14.4812 33.5188 13.25 32 13.25C30.4812 13.25 29.25 14.4812 29.25 16C29.25 17.5188 30.4812 18.75 32 18.75Z" fill="#34C759"/>
<path d="M31.04 20.15C29.47 19.81 28.19 18.53 27.85 16.96C27.72 16.35 27.71 15.76 27.82 15.2C27.95 14.58 27.49 14 26.85 14H19C16.24 14 14 16.24 14 19V25.95C14 28.71 16.24 30.95 19 30.95H20.5C20.78 30.95 21.14 31.13 21.3 31.35L22.8 33.34C23.46 34.22 24.54 34.22 25.2 33.34L26.7 31.35C26.89 31.1 27.18 30.95 27.5 30.95H29.01C31.77 30.95 34 28.72 34 25.96V21.15C34 20.52 33.42 20.06 32.8 20.18C32.24 20.28 31.65 20.28 31.04 20.15ZM20 24C19.44 24 19 23.55 19 23C19 22.45 19.44 22 20 22C20.55 22 21 22.45 21 23C21 23.55 20.56 24 20 24ZM24 24C23.44 24 23 23.55 23 23C23 22.45 23.44 22 24 22C24.55 22 25 22.45 25 23C25 23.55 24.56 24 24 24ZM28 24C27.44 24 27 23.55 27 23C27 22.45 27.44 22 28 22C28.55 22 29 22.45 29 23C29 23.55 28.56 24 28 24Z" fill="white"/>
<rect x="0.5" y="0.5" width="47" height="47" rx="11.5" stroke="white" stroke-opacity="0.1"/>
</svg>
