<svg width="30" height="30" viewBox="0 0 30 30" fill="none" xmlns="http://www.w3.org/2000/svg">
<g clip-path="url(#clip0_52_68788)">
<path d="M11.625 10.5937L10.125 16.2188L12.9375 18L16.9688 15.0938L11.625 10.5937ZM10.9688 2.71875C16.9688 2.71875 21.9375 7.59375 21.9375 13.6875C21.9375 15.8438 21.2812 18 20.0625 19.7812L19.9688 19.875C19.9688 19.9688 19.875 19.9688 19.875 20.0625L21.75 22.125L24.375 19.6875L26.8125 22.4062L24.0938 24.8438L25.7812 28.4062L23.8125 30L21.75 27.5625L18.75 29.7188L16.3125 27L19.0312 24.5625L17.3438 22.5938L17.0625 22.875C16.875 22.9688 16.6875 23.1563 16.5 23.1563C14.8125 24.0938 12.9375 24.6562 11.0625 24.6562C4.96875 24.5625 0 19.6875 0 13.6875C0 7.6875 4.96875 2.71875 10.9688 2.71875ZM10.9688 21.2813C15.1875 21.2813 18.6562 17.8125 18.6562 13.5938C18.6562 9.375 15.1875 5.90625 10.9688 5.90625C6.75 5.90625 3.28125 9.375 3.28125 13.5938C3.28125 17.9062 6.75 21.2813 10.9688 21.2813Z" fill="#754B68"/>
<path d="M13.0312 0.46875C19.125 0.46875 24.0938 5.4375 24.0938 11.5312C24.0938 13.7812 23.4375 15.9375 22.2188 17.7188L22.125 17.9062L23.7187 19.7812L26.4375 17.3438L29.0625 20.3438L26.3438 22.7812L28.7812 25.5L25.875 28.125L23.4375 25.4062L20.7188 27.8438L18.0937 24.8438L20.8125 22.4062L19.3125 20.7188L19.125 20.8125C18.9375 20.9062 18.75 21.0938 18.5625 21.0938C16.875 22.0312 15 22.5938 13.0312 22.5938C6.9375 22.5938 1.96875 17.625 1.96875 11.5312C1.96875 5.4375 6.9375 0.46875 13.0312 0.46875ZM13.0312 19.0312C17.1562 19.0312 20.5312 15.6562 20.5312 11.5312C20.5312 7.40625 17.1562 4.03125 13.0312 4.03125C8.90625 4.03125 5.53125 7.40625 5.53125 11.5312C5.53125 15.6562 8.90625 19.0312 13.0312 19.0312Z" fill="#EA9FC6"/>
<path d="M25.875 27.6562L23.4375 24.9375L20.7188 27.375L18.4688 24.9375L21.1875 22.5L19.2188 20.25L18.9375 20.5312C18.9375 20.5312 18.8438 20.5312 18.8438 20.625C18.6562 20.7188 18.4688 20.8125 18.375 20.9062C16.7812 21.8437 15 22.3125 13.0312 22.3125C7.125 22.3125 2.25 17.5312 2.25 11.5312C2.25 5.53125 7.125 0.75 13.0312 0.75C18.9375 0.75 23.8125 5.53125 23.8125 11.5312C23.8125 13.7812 23.1562 15.8438 21.9375 17.5312C21.8437 17.625 21.75 17.7188 21.6562 17.9062L23.7187 20.25L26.4375 17.8125L28.6875 20.25L25.9688 22.6875L28.4062 25.4062L25.875 27.6562ZM13.0312 3.75C8.71875 3.75 5.15625 7.21875 5.15625 11.625C5.15625 15.9375 8.625 19.5 13.0312 19.5C17.3438 19.5 20.9062 16.0312 20.9062 11.625C20.9062 7.21875 17.3438 3.75 13.0312 3.75ZM25.875 28.5938L26.3438 28.125L28.7812 25.875L29.25 25.4062L28.7812 24.9375L26.8125 22.7812L28.9687 20.8125L29.4375 20.3438L28.9687 19.875L26.7188 17.4375L26.4375 16.875L25.9688 17.3438L23.8125 19.3125L22.5938 17.9062C23.8125 16.0312 24.5625 13.875 24.5625 11.5312C24.5625 5.25 19.4062 0.09375 13.125 0.09375C6.84375 0.09375 1.59375 5.25 1.59375 11.5312C1.59375 17.8125 6.75 22.9688 13.0312 22.9688C15 22.9688 16.9687 22.4062 18.75 21.4688C18.9375 21.375 19.0312 21.2812 19.2188 21.1875L20.3438 22.4062L18.0937 24.375L16.2187 27L18.1875 26.25L20.25 27.8438L20.7188 28.3125L21.1875 27.8438L23.3437 25.875L25.3125 28.0312L25.875 28.5938ZM13.0312 4.40625C16.9688 4.40625 20.1562 7.59375 20.1562 11.5312C20.1562 15.4688 16.9688 18.6562 13.0312 18.6562C9.09375 18.6562 5.90625 15.4688 5.90625 11.5312C5.90625 7.59375 9.09375 4.40625 13.0312 4.40625Z" fill="#754B68"/>
<path d="M7.59289 17.1562C7.59289 17.1562 4.59288 14.4375 5.34289 10.3125L2.53039 9.1875C2.53039 9.1875 1.40538 12.9375 3.93664 17.25L7.59289 17.1562Z" fill="#EA9FC6"/>
<path d="M27 20.4375L20.7188 26.1562L19.6875 25.0313L26.4375 19.2188L27.4688 20.25L27 20.4375ZM21.1875 15.2812C21.2813 15.2812 21.2812 15.375 21.375 15.375C21.5625 15.6562 21.8438 15.8438 22.125 16.0312C24.9375 9 20.0625 4.96875 20.0625 4.96875C22.2188 9.65625 21.9375 13.125 21.1875 15.2812ZM16.4062 19.5937C7.875 22.4062 3.9375 15.6563 3.5625 15.1875C7.78125 23.1562 13.9688 22.2188 17.3438 20.8125C17.0625 20.4375 16.6875 20.0625 16.4062 19.5937Z" fill="#FFDCF0"/>
<path d="M22.7812 17.9999L19.5 14.3437L19.0312 15.1874L22.4062 18.6562L22.7812 17.9999ZM20.1562 21.1874L16.875 17.6249L16.4062 18.4687L19.7813 21.9374L20.1562 21.1874ZM6.9375 14.0624L10.875 16.6874C10.875 16.6874 11.9063 16.2187 12.2813 15.0937L8.53125 12.0937C8.53125 12.1874 7.21875 12.8437 6.9375 14.0624ZM12.8437 8.3437L15.75 11.4374C15.75 11.4374 16.5938 11.1562 16.875 10.1249L14.1563 6.8437C14.0625 6.74995 13.0312 7.2187 12.8437 8.3437ZM7.5 10.8749L11.9062 14.4374C11.9062 14.4374 12.9375 14.0624 13.3125 12.9374L9.1875 9.0937C9.09375 9.0937 7.78125 9.6562 7.5 10.8749ZM9.5625 8.9062L13.5 12.5624C13.5 12.5624 14.4375 12.2812 14.8125 11.1562L11.1562 7.2187C11.0625 7.2187 9.84375 7.68745 9.5625 8.9062Z" fill="#754B68"/>
<path d="M15.937 14.4375L13.7807 15.1875L13.1245 14.0625C13.1245 14.0625 14.437 12 17.437 10.7812C17.437 10.7812 18.562 11.7187 19.1245 13.0312C19.1245 13.0312 19.0307 14.3437 18.4682 15.375L18.6557 16.0312L21.937 17.5313L18.7495 21.6562L15.937 18.1875C15.937 18.1875 14.9995 18 14.3432 18.0937C13.5932 18.1875 13.0307 18 13.0307 18C13.0307 18 12.187 17.0625 12.2807 16.5938L15.8432 14.9062L15.937 14.4375Z" fill="#754B68"/>
<path d="M7.5 13.125L11.4375 15.75C11.4375 15.75 12.4688 15.2812 12.8438 14.1562L9.09375 11.1562C9.09375 11.1562 7.78125 11.9062 7.5 13.125ZM13.3125 7.3125L16.2187 10.4063C16.2187 10.4063 17.0625 10.125 17.3438 9.09375L14.625 5.8125C14.625 5.8125 13.5938 6.1875 13.3125 7.3125ZM8.0625 9.9375L12.4688 13.5C12.4688 13.5 13.5 13.125 13.875 12L9.75 8.15625C9.65625 8.0625 8.34375 8.71875 8.0625 9.9375ZM10.125 7.875L14.0625 11.5312C14.0625 11.5312 15 11.25 15.375 10.125L11.7188 6.1875C11.625 6.1875 10.4063 6.65625 10.125 7.875Z" fill="#EA9FC6"/>
<path d="M16.4995 13.5L14.3432 14.25L13.687 13.125C13.687 13.125 14.9995 11.0625 17.9995 9.84375C17.9995 9.84375 19.1245 10.7812 19.687 12.0937C19.687 12.0937 19.5932 13.4062 19.0307 14.4375L19.2182 15.0938L20.9057 17.4375L18.8432 19.6875L16.4995 17.25C16.4995 17.25 15.562 17.0625 14.9057 17.1562C14.1557 17.25 13.5932 17.0625 13.5932 17.0625C13.5932 17.0625 12.7495 16.125 12.8432 15.6563L16.4057 13.9687L16.4995 13.5Z" fill="#EA9FC6"/>
<path d="M7.5 13.125L11.4375 15.75C11.4375 15.75 12.4688 15.2812 12.8438 14.1562L9.09375 11.1562C9.09375 11.1562 7.78125 11.9062 7.5 13.125ZM13.3125 7.3125L16.2187 10.4063C16.2187 10.4063 17.0625 10.125 17.3438 9.09375L14.625 5.8125C14.625 5.8125 13.5938 6.1875 13.3125 7.3125ZM8.0625 9.9375L12.4688 13.5C12.4688 13.5 13.5 13.125 13.875 12L9.75 8.15625C9.65625 8.0625 8.34375 8.71875 8.0625 9.9375ZM10.125 7.875L14.0625 11.5312C14.0625 11.5312 15 11.25 15.375 10.125L11.7188 6.1875C11.625 6.1875 10.4063 6.65625 10.125 7.875Z" fill="#EA9FC6" stroke="#754B68" stroke-width="0.842625" stroke-miterlimit="10"/>
<path d="M16.4995 13.5L14.3432 14.25L13.687 13.125C13.687 13.125 14.9995 11.0625 17.9995 9.84375C17.9995 9.84375 19.1245 10.7812 19.687 12.0937C19.687 12.0937 19.5932 13.4062 19.0307 14.4375L19.4995 15.0938L21.562 17.625L18.937 20.0625L16.2182 17.3438C16.2182 17.3438 15.6557 17.1562 14.9995 17.1562C14.2495 17.25 13.687 17.0625 13.687 17.0625C13.687 17.0625 12.8432 16.125 12.937 15.6563L16.4995 13.9688V13.5Z" fill="#EA9FC6" stroke="#754B68" stroke-width="0.842625" stroke-miterlimit="10"/>
<path d="M18.375 16.5V14.0625L23.9063 20.25L21.2813 22.5L16.3125 16.7812L18.375 16.5Z" fill="#EA9FC6"/>
<path d="M27 25.2188L25.6875 26.1562L18 17.3438L18.8438 16.4062L27 25.2188ZM16.0313 12.0937L17.7188 10.9688L18.4688 12L16.0313 12.4688V12.0937ZM8.8125 13.0312L9.28125 12.2813L10.875 13.5938L10.4063 14.0625L8.8125 13.0312ZM9.1875 9.9375L9.65625 9.1875L11.1562 10.5938L10.7813 10.9688L9.1875 9.9375ZM11.0625 7.78125L11.625 7.125L13.0312 8.625L12.5625 9L11.0625 7.78125ZM14.1563 7.125L14.5313 6.5625L15.5625 7.875L15.1875 8.15625L14.1563 7.125Z" fill="#FFDCF0"/>
</g>
<defs>
<clipPath id="clip0_52_68788">
<rect width="30" height="30" fill="white"/>
</clipPath>
</defs>
</svg>
