<svg width="56" height="516" viewBox="0 0 56 516" fill="none" xmlns="http://www.w3.org/2000/svg">
<rect width="56" height="56" rx="28" fill="#EB9947"/>
<path d="M40 26.4384V38.0009C39.9991 38.3619 39.9012 38.7159 39.7165 39.026C39.5317 39.3361 39.267 39.5908 38.95 39.7634C38.6593 39.9237 38.3319 40.0055 38 40.0009H32C31.7348 40.0009 31.4805 39.8956 31.2929 39.708C31.1054 39.5205 31 39.2661 31 39.0009V33.0009C31 32.7357 30.8947 32.4814 30.7071 32.2938C30.5196 32.1063 30.2652 32.0009 30 32.0009H26C25.7348 32.0009 25.4805 32.1063 25.2929 32.2938C25.1054 32.4814 25 32.7357 25 33.0009V39.0009C25 39.2661 24.8947 39.5205 24.7071 39.708C24.5196 39.8956 24.2652 40.0009 24 40.0009H18C17.7163 40.002 17.4356 39.9423 17.1769 39.8259C16.9182 39.7095 16.6874 39.539 16.5 39.3259C16.1749 38.9418 15.9976 38.4542 16 37.9509V26.4384C16.0001 26.1609 16.0579 25.8865 16.1699 25.6325C16.2818 25.3786 16.4453 25.1507 16.65 24.9634L26.65 15.8759C27.0187 15.5386 27.5003 15.3516 28 15.3516C28.4997 15.3516 28.9813 15.5386 29.35 15.8759L39.35 24.9634C39.5548 25.1507 39.7183 25.3786 39.8302 25.6325C39.9421 25.8865 39.9999 26.1609 40 26.4384Z" fill="white"/>
<path d="M40.7375 124.849C40.7342 124.849 40.731 124.848 40.7287 124.846C40.7263 124.843 40.725 124.84 40.725 124.837C40.5443 124.529 40.2856 124.275 39.975 124.099L28.975 117.912C28.677 117.746 28.3413 117.658 28 117.658C27.6587 117.658 27.323 117.746 27.025 117.912L16.025 124.099C15.7144 124.275 15.4557 124.529 15.275 124.837C15.275 124.84 15.2737 124.843 15.2713 124.846C15.269 124.848 15.2658 124.849 15.2625 124.849V124.874C15.0897 125.166 14.999 125.498 15 125.837V138.162C15.0006 138.518 15.0959 138.868 15.276 139.176C15.456 139.483 15.7145 139.737 16.025 139.912L27.025 146.099C27.3019 146.251 27.6098 146.336 27.925 146.349H28.1C28.4072 146.336 28.707 146.25 28.975 146.099L39.975 139.912C40.2855 139.737 40.544 139.483 40.7241 139.176C40.9042 138.868 40.9994 138.518 41 138.162V125.837C41.0018 125.49 40.9112 125.149 40.7375 124.849ZM28 119.649L37.9625 125.249L28.1125 130.849L18.05 125.249L28 119.649ZM17 126.949L27.1125 132.587L27.0125 143.799L17 138.162V126.949ZM29.0125 143.787L29.1125 132.587L39 126.962V138.162L29.0125 143.787Z" fill="#898EA9"/>
<path d="M28.0127 211C25.4415 211 22.9281 211.762 20.7903 213.191C18.6524 214.619 16.9862 216.65 16.0023 219.025C15.0183 221.401 14.7609 224.014 15.2625 226.536C15.7641 229.058 17.0022 231.374 18.8203 233.192C20.6384 235.01 22.9548 236.249 25.4765 236.75C27.9983 237.252 30.6121 236.994 32.9876 236.01C35.363 235.026 37.3933 233.36 38.8218 231.222C40.2503 229.085 41.0127 226.571 41.0127 224C41.0061 220.554 39.6343 217.251 37.1978 214.815C34.7612 212.378 31.4585 211.007 28.0127 211ZM28.0127 235C25.8371 235 23.7104 234.355 21.9014 233.146C20.0925 231.937 18.6826 230.22 17.85 228.21C17.0175 226.2 16.7996 223.988 17.2241 221.854C17.6485 219.72 18.6961 217.76 20.2345 216.222C21.7729 214.683 23.7329 213.636 25.8667 213.211C28.0005 212.787 30.2122 213.005 32.2222 213.837C34.2322 214.67 35.9502 216.08 37.1589 217.889C38.3676 219.698 39.0127 221.824 39.0127 224C39.0094 226.916 37.8494 229.712 35.7872 231.775C33.725 233.837 30.9291 234.997 28.0127 235ZM33.2377 217.438L25.4752 220.962C25.2501 221.071 25.0723 221.257 24.9752 221.488L21.7877 228.913C21.7093 229.096 21.6876 229.299 21.7254 229.495C21.7633 229.691 21.859 229.871 22.0002 230.013C22.1922 230.196 22.4472 230.299 22.7127 230.3C22.8454 230.299 22.9769 230.274 23.1002 230.225L30.5252 227.038C30.7553 226.94 30.942 226.763 31.0502 226.538L34.5627 218.762C34.6403 218.577 34.661 218.373 34.6222 218.176C34.5834 217.979 34.4868 217.798 34.3447 217.655C34.2026 217.513 34.0215 217.417 33.8244 217.378C33.6272 217.339 33.423 217.36 33.2377 217.438ZM29.3877 225.35L24.6127 227.4L26.6627 222.625L31.6377 220.363L29.3877 225.35Z" fill="#898EA9"/>
<path d="M41.8749 325.776L40.0874 309.776C40.0348 309.286 39.8024 308.834 39.4352 308.506C39.068 308.178 38.5922 307.998 38.0999 308.001H33.9124C33.6718 306.607 32.9466 305.343 31.8648 304.432C30.783 303.521 29.4142 303.021 27.9999 303.021C26.5857 303.021 25.2169 303.521 24.1351 304.432C23.0533 305.343 22.3281 306.607 22.0874 308.001H17.8999C17.4077 307.998 16.9318 308.178 16.5647 308.506C16.1975 308.834 15.9651 309.286 15.9124 309.776L14.1249 325.776C14.0947 326.056 14.1235 326.341 14.2096 326.61C14.2957 326.879 14.4372 327.127 14.6249 327.338C14.812 327.547 15.0413 327.714 15.2977 327.829C15.5541 327.943 15.8318 328.001 16.1124 328.001H39.8874C40.1681 328.001 40.4458 327.943 40.7022 327.829C40.9585 327.714 41.1878 327.547 41.3749 327.338C41.5627 327.127 41.7041 326.879 41.7903 326.61C41.8764 326.341 41.9052 326.056 41.8749 325.776ZM27.9999 305.001C28.8865 305.002 29.7476 305.298 30.4486 305.84C31.1497 306.383 31.6512 307.143 31.8749 308.001H24.1249C24.3487 307.143 24.8502 306.383 25.5513 305.84C26.2523 305.298 27.1134 305.002 27.9999 305.001ZM16.1124 326.001L17.8999 310.001H21.9999V313.001C21.9999 313.266 22.1053 313.52 22.2928 313.708C22.4804 313.895 22.7347 314.001 22.9999 314.001C23.2652 314.001 23.5195 313.895 23.707 313.708C23.8946 313.52 23.9999 313.266 23.9999 313.001V310.001H31.9999V313.001C31.9999 313.266 32.1053 313.52 32.2928 313.708C32.4804 313.895 32.7347 314.001 32.9999 314.001C33.2652 314.001 33.5195 313.895 33.707 313.708C33.8946 313.52 33.9999 313.266 33.9999 313.001V310.001H38.0999L39.8874 326.001H16.1124Z" fill="#898EA9"/>
<path d="M28 420C27.8294 420.002 27.6613 419.959 27.5125 419.875C26.975 419.575 14.5 412.488 14.5 403.5C14.5 401.926 14.9953 400.392 15.9157 399.115C16.8361 397.838 18.135 396.883 19.6283 396.385C21.1216 395.887 22.7337 395.872 24.2363 396.341C25.7388 396.81 27.0555 397.741 28 399C28.9445 397.741 30.2612 396.81 31.7637 396.341C33.2663 395.872 34.8784 395.887 36.3717 396.385C37.865 396.883 39.1639 397.838 40.0843 399.115C41.0047 400.392 41.5 401.926 41.5 403.5C41.5 407.325 39.2875 411.25 34.925 415.175C32.944 416.956 30.7871 418.531 28.4875 419.875C28.3387 419.959 28.1706 420.002 28 420ZM22 398C20.5413 398 19.1424 398.579 18.1109 399.611C17.0795 400.642 16.5 402.041 16.5 403.5C16.5 410.4 25.75 416.463 28 417.838C30.25 416.463 39.5 410.4 39.5 403.5C39.5012 402.229 39.0618 400.996 38.2566 400.012C37.4514 399.028 36.3301 398.353 35.0835 398.103C33.837 397.852 32.5422 398.041 31.4193 398.638C30.2965 399.235 29.4151 400.202 28.925 401.375C28.8497 401.558 28.7215 401.715 28.5568 401.826C28.3921 401.936 28.1983 401.995 28 401.995C27.8017 401.995 27.6079 401.936 27.4432 401.826C27.2785 401.715 27.1503 401.558 27.075 401.375C26.6588 400.373 25.9541 399.517 25.0505 398.916C24.1469 398.315 23.0852 397.996 22 398Z" fill="#898EA9"/>
<path d="M29.0004 494V499.425L33.7004 502.138C33.8894 502.248 34.0366 502.418 34.1197 502.621C34.2028 502.823 34.217 503.048 34.1602 503.259C34.1034 503.471 33.9788 503.658 33.8054 503.792C33.632 503.925 33.4195 503.999 33.2004 504C33.0238 504.005 32.8497 503.957 32.7004 503.863L27.5004 500.863H27.4754L27.4254 500.825L27.3879 500.8L27.3504 500.775L27.3129 500.738L27.2879 500.713C27.2629 500.7 27.2504 500.675 27.2379 500.663L27.2129 500.638L27.1879 500.588L27.1629 500.55L27.1379 500.513C27.1302 500.507 27.1239 500.499 27.1195 500.49C27.1152 500.482 27.1129 500.472 27.1129 500.463L27.0879 500.425C27.0879 500.413 27.0754 500.4 27.0754 500.375C27.0709 500.37 27.0675 500.364 27.0653 500.358C27.0632 500.351 27.0624 500.344 27.0629 500.338L27.0379 500.288C27.0385 500.281 27.0377 500.274 27.0356 500.267C27.0334 500.261 27.03 500.255 27.0254 500.25C27.0254 500.225 27.0254 500.213 27.0129 500.2V500.15C27.0129 500.125 27.0004 500.113 27.0004 500.1V494C27.0004 493.735 27.1058 493.48 27.2933 493.293C27.4809 493.105 27.7352 493 28.0004 493C28.2657 493 28.52 493.105 28.7075 493.293C28.8951 493.48 29.0004 493.735 29.0004 494ZM40.8504 497.025C40.8629 497 40.8754 496.988 40.8754 496.975L40.9004 496.938C40.9129 496.925 40.9129 496.9 40.9254 496.888L40.9504 496.85C40.9486 496.832 40.953 496.815 40.9629 496.8C40.9629 496.788 40.9754 496.775 40.9754 496.75C40.98 496.745 40.9834 496.739 40.9856 496.733C40.9877 496.726 40.9885 496.719 40.9879 496.713C40.9879 496.688 41.0004 496.675 41.0004 496.663C41.0004 496.65 41.0129 496.625 41.0129 496.613V496.563C41.0232 496.53 41.0275 496.496 41.0254 496.463V491.463C41.0254 491.197 40.9201 490.943 40.7325 490.755C40.545 490.568 40.2907 490.463 40.0254 490.463C39.7602 490.463 39.5059 490.568 39.3183 490.755C39.1308 490.943 39.0254 491.197 39.0254 491.463V494.05L36.4879 491.513C34.8095 489.835 32.6713 488.693 30.3437 488.23C28.0161 487.768 25.6036 488.006 23.4112 488.914C21.2189 489.822 19.3451 491.361 18.0268 493.334C16.7085 495.307 16.0049 497.627 16.0049 500C16.0049 502.373 16.7085 504.693 18.0268 506.666C19.3451 508.639 21.2189 510.178 23.4112 511.086C25.6036 511.994 28.0161 512.232 30.3437 511.77C32.6713 511.307 34.8095 510.165 36.4879 508.488C36.675 508.3 36.78 508.046 36.78 507.781C36.78 507.516 36.675 507.262 36.4879 507.075C36.396 506.981 36.2861 506.906 36.1648 506.855C36.0435 506.804 35.9133 506.778 35.7817 506.778C35.6501 506.778 35.5198 506.804 35.3986 506.855C35.2773 506.906 35.1674 506.981 35.0754 507.075C33.6765 508.472 31.8946 509.424 29.9551 509.809C28.0156 510.194 26.0055 509.995 24.1789 509.238C22.3523 508.481 20.7912 507.199 19.6928 505.555C18.5945 503.91 18.0083 501.977 18.0083 500C18.0083 498.023 18.5945 496.09 19.6928 494.445C20.7912 492.801 22.3523 491.519 24.1789 490.762C26.0055 490.005 28.0156 489.806 29.9551 490.191C31.8946 490.576 33.6765 491.528 35.0754 492.925L37.6129 495.463H35.0254C34.7602 495.463 34.5059 495.568 34.3183 495.755C34.1308 495.943 34.0254 496.197 34.0254 496.463C34.0254 496.728 34.1308 496.982 34.3183 497.17C34.5059 497.357 34.7602 497.463 35.0254 497.463H40.3129L40.3629 497.438H40.4004L40.4504 497.413H40.4879L40.5379 497.388L40.5754 497.363L40.6254 497.325L40.6504 497.3L40.8004 497.163L40.8254 497.125L40.8504 497.025Z" fill="#898EA9"/>
</svg>
