<svg width="30" height="30" viewBox="0 0 30 30" fill="none" xmlns="http://www.w3.org/2000/svg">
<g clip-path="url(#clip0_52_68500)">
<path d="M21.9375 18.6562C21.9375 18.6562 23.9063 13.9688 23.3438 9.28125L18.0938 16.3125L21.9375 18.6562Z" fill="#807CA5"/>
<path d="M20.8131 17.9063C22.7818 18.5625 24.563 20.1562 25.1255 22.4062C25.7818 24.75 24.8443 27.4688 23.1568 28.7813C22.0318 29.625 20.5318 29.8125 19.2193 29.9062C15.9381 29.9062 12.6568 28.7812 9.37555 27.6562C8.25055 27.2812 7.12555 26.9062 6.18805 26.1562C5.25055 25.4062 4.4068 24.375 4.2193 23.0625C4.0318 21.2813 5.06305 19.5 6.4693 18.5625C8.9068 16.9687 11.3443 16.4062 13.8756 16.4062C16.0318 16.5 18.7506 17.25 20.8131 17.9063Z" fill="#8EA8AF"/>
<path d="M20.4381 16.5C22.2193 17.1563 23.9068 18.75 24.4693 21C25.0318 23.3438 24.2818 26.0625 22.5943 27.375C21.4693 28.2188 20.1568 28.4062 18.8443 28.5C15.7506 28.5 12.6568 27.375 9.5631 26.25C8.53185 25.875 7.5006 25.5 6.5631 24.75C5.6256 24 4.8756 22.9688 4.78185 21.6563C4.59435 19.875 5.6256 18.0937 6.9381 17.1562C9.1881 15.5625 11.5318 15 13.9693 15C15.9381 15.0938 18.4693 15.8438 20.4381 16.5Z" fill="#D3DEE2"/>
<path d="M17.2497 17.5313C17.2497 17.5313 13.3122 19.125 10.4997 23.625C10.4997 23.625 9.46849 19.7812 10.1247 16.9688C10.1247 16.9688 14.0622 18.75 17.2497 17.5313Z" fill="white"/>
<path d="M11.5312 26.9063L13.4062 21L15 20.7188L12.375 27.1875L11.5312 26.9063ZM7.40625 25.4063L8.53125 19.0312L10.125 18.75L8.25 25.7812L7.40625 25.4063Z" fill="#BDD1D6"/>
<path d="M13.5938 20.8125L11.7188 27C11.7188 27 9.09375 26.3437 7.96875 25.5937L8.90625 19.3125C9 19.3125 12.375 21 13.5938 20.8125Z" fill="#FCFCFC"/>
<path d="M15.0938 20.625C15.0938 20.625 20.25 20.625 22.875 21.375C22.875 21.375 24.5625 21.0937 24.0938 19.9687C23.7188 18.8437 22.5938 17.3438 20.7188 16.5C20.8125 16.5 17.0625 20.4375 15.0938 20.625Z" fill="#807CA5"/>
<path d="M23.1555 7.40625C23.1555 7.40625 25.1243 15.4687 17.718 19.9688C17.718 19.9688 14.6243 21.4688 11.8118 21C8.99926 20.5312 7.40551 18.1875 8.24926 16.2188L12.5618 9.84375L23.1555 7.40625Z" fill="#6A648E"/>
<path d="M8.71835 18.375C8.71835 18.375 4.40585 15.75 5.0621 9.09375L10.3121 10.125L8.71835 18.375Z" fill="#6A648E"/>
<path opacity="0.28" d="M21.5013 25.268C22.0125 23.692 21.3089 22.0518 19.9299 21.6046C18.5509 21.1573 17.0187 22.0724 16.5075 23.6484C15.9964 25.2244 16.6999 26.8645 18.0789 27.3118C19.4579 27.759 20.9902 26.844 21.5013 25.268Z" fill="white"/>
<path d="M23.5312 9.84375C23.5312 15 19.5 19.125 14.3437 19.125C9.1875 19.125 5.0625 14.9063 5.0625 9.84375C5.0625 4.78125 9.28125 0.5625 14.3437 0.5625C19.4062 0.5625 23.5312 4.6875 23.5312 9.84375Z" fill="#E5A98C"/>
<path d="M23.4405 9.57032C23.4583 4.65153 19.6112 0.650075 14.8477 0.632815C10.0843 0.615555 6.2083 4.58903 6.19047 9.50781C6.17265 14.4266 10.0197 18.4281 14.7832 18.4453C19.5467 18.4626 23.4227 14.4891 23.4405 9.57032Z" fill="#E8CCAA"/>
<path d="M18.7051 10.7447C18.718 7.17215 15.9163 4.2658 12.4473 4.25323C8.97823 4.24066 6.15553 7.12663 6.14258 10.6992C6.12963 14.2718 8.93135 17.1782 12.4004 17.1907C15.8694 17.2033 18.6921 14.3173 18.7051 10.7447Z" fill="#FAEACF"/>
<path d="M15.4334 11.4085C15.4355 10.8389 15.0594 10.3758 14.5934 10.3742C14.1274 10.3725 13.748 10.8328 13.7459 11.4023C13.7439 11.9719 14.1199 12.435 14.5859 12.4367C15.0519 12.4383 15.4314 11.978 15.4334 11.4085Z" fill="#425763"/>
<path d="M14.8936 11.0873C14.8942 10.932 14.8107 10.8057 14.7071 10.8054C14.6036 10.805 14.5192 10.9306 14.5186 11.0859C14.518 11.2413 14.6015 11.3675 14.7051 11.3679C14.8086 11.3682 14.893 11.2426 14.8936 11.0873Z" fill="white"/>
<path d="M8.58967 9.89674C8.59174 9.3272 8.21565 8.86412 7.74966 8.86243C7.28367 8.86074 6.90424 9.32108 6.90217 9.89062C6.90011 10.4602 7.2762 10.9232 7.74219 10.9249C8.20818 10.9266 8.58761 10.4663 8.58967 9.89674Z" fill="#425763"/>
<path d="M8.04789 9.57558C8.04846 9.42025 7.96497 9.29402 7.86141 9.29365C7.75786 9.29327 7.67346 9.41889 7.67289 9.57422C7.67233 9.72955 7.75582 9.85577 7.85937 9.85615C7.96293 9.85652 8.04733 9.73091 8.04789 9.57558Z" fill="white"/>
<path d="M12.6563 15.75C12.6563 15.75 11.8125 15.6563 11.1562 15.1875C10.5 14.7188 9.9375 14.8125 9.84375 14.8125C9.75 14.8125 9.5625 14.625 9.375 14.5312C9.1875 14.4375 8.90625 14.4375 8.8125 14.5312C8.8125 14.625 9.09375 15.0938 9.09375 15.0938C9.09375 15.0938 9.1875 15.4688 9.09375 15.6563C9 15.8438 9.09375 16.5 9.75 16.6875C10.4062 16.875 10.875 16.7813 11.1562 16.5938C11.4375 16.4063 12.6563 15.75 12.6563 15.75Z" fill="#A67A65"/>
<path d="M21.6562 13.3121C21.6562 13.3121 18.5625 9.28081 10.6875 7.87456C10.6875 7.87456 6.46875 7.21831 5.0625 10.1246C5.0625 10.1246 5.4375 -0.844189 16.125 1.78081C24.6563 3.84331 24.4688 12.0933 21.75 14.6246C21.75 14.5308 22.2188 14.7183 21.6562 13.3121Z" fill="#D3DEE2"/>
<path d="M21.0938 11.1553C21.0938 11.1553 17.8125 6.09283 11.5313 6.09283C11.5313 6.09283 6.65625 5.81158 5.15625 8.71783C5.15625 8.71783 6.28125 -1.68842 16.5938 0.374077C25.3125 2.15533 24.375 12.7491 21.4688 15.3741C21.5625 15.3741 21.75 12.5616 21.0938 11.1553Z" fill="#6A648E"/>
<path d="M16.6877 1.96815C19.1252 2.90565 22.5002 5.15565 22.5002 10.3119C22.5002 10.3119 20.1565 6.46815 17.5315 5.71815C16.7815 5.53065 16.1252 5.2494 15.469 4.96815C13.594 4.1244 14.719 1.21815 16.6877 1.96815Z" fill="#807CA5"/>
<path d="M20.25 9.93795C20.25 9.93795 22.875 16.688 15 19.8755C15 19.8755 22.4062 18.7505 23.4375 11.1567C23.4375 11.1567 22.125 9.37545 20.25 9.93795Z" fill="#6A648E"/>
<path d="M6.84375 16.5C6.84375 16.5 8.34375 23.3438 10.875 23.625C13.4062 23.9063 16.7812 21.2812 20.25 17.7187C20.25 17.7187 15.2812 20.8125 12.6562 20.3438C10.0312 19.875 6.84375 16.5 6.84375 16.5Z" fill="#6A648E"/>
<path d="M21.2817 24.4693C21.4692 24.4693 23.813 24.4693 25.5005 27.0943C25.9692 27.8443 25.688 28.7818 24.938 29.1568C23.3442 29.9068 20.3442 30.938 17.063 29.1568C16.4067 28.7818 16.0317 27.6568 16.5005 27.0005C17.3442 25.7818 18.8442 24.3755 21.2817 24.4693Z" fill="#425763"/>
<path d="M21.281 25.0309C21.4685 25.0309 23.4373 25.0309 24.9373 27.0934C25.3123 27.6559 25.1248 28.4059 24.4685 28.6871C23.0623 29.3434 20.531 29.9996 17.6248 28.5934C17.0623 28.3121 16.8748 27.4684 17.2498 26.9996C17.906 26.0621 19.1248 24.9371 21.281 25.0309Z" fill="#A2B6BA"/>
<path d="M21.2815 25.1257C21.469 25.1257 23.0628 25.1257 24.2815 26.8132C24.5628 27.2819 24.469 27.9382 23.9065 28.1257C22.7815 28.5944 20.719 29.2507 18.3753 28.0319C17.9065 27.7507 17.719 27.1882 18.094 26.7194C18.469 25.9694 19.5003 25.0319 21.2815 25.1257Z" fill="#87999B"/>
<path d="M20.9062 27.75C24.2717 27.75 27 25.0217 27 21.6562C27 18.2908 24.2717 15.5625 20.9062 15.5625C17.5408 15.5625 14.8125 18.2908 14.8125 21.6562C14.8125 25.0217 17.5408 27.75 20.9062 27.75Z" fill="#425763"/>
<path d="M20.9062 26.9062C23.9093 26.9062 26.3438 24.4718 26.3438 21.4687C26.3438 18.4657 23.9093 16.0312 20.9062 16.0312C17.9032 16.0312 15.4688 18.4657 15.4688 21.4687C15.4688 24.4718 17.9032 26.9062 20.9062 26.9062Z" fill="#A2B6BA"/>
<path d="M21.0937 25.9688C23.8379 25.9688 26.0625 23.7442 26.0625 21C26.0625 18.2558 23.8379 16.0312 21.0937 16.0312C18.3496 16.0312 16.125 18.2558 16.125 21C16.125 23.7442 18.3496 25.9688 21.0937 25.9688Z" fill="#CBDEE4"/>
<path d="M23.8125 20.625C24.4338 20.625 24.9375 20.1213 24.9375 19.5C24.9375 18.8787 24.4338 18.375 23.8125 18.375C23.1912 18.375 22.6875 18.8787 22.6875 19.5C22.6875 20.1213 23.1912 20.625 23.8125 20.625Z" fill="#425763"/>
<path d="M23.9063 20.0625C24.2687 20.0625 24.5625 19.7687 24.5625 19.4063C24.5625 19.0438 24.2687 18.75 23.9063 18.75C23.5438 18.75 23.25 19.0438 23.25 19.4063C23.25 19.7687 23.5438 20.0625 23.9063 20.0625Z" fill="#4ED154"/>
<path d="M19.875 19.0312C19.875 19.0312 20.1562 17.0625 21.6562 16.3125C21.8438 16.2187 21.8437 16.0312 21.5625 16.0312H21.2813C21.0938 16.0312 19.4062 16.125 18.8438 19.125L19.875 19.0312Z" fill="#A2B6BA"/>
<path d="M22.704 22.2575C22.7109 20.3417 21.2895 18.7836 19.529 18.7772C17.7686 18.7708 16.3359 20.3186 16.329 22.2344C16.322 24.1501 17.7435 25.7083 19.5039 25.7147C21.2643 25.7211 22.697 24.1732 22.704 22.2575Z" fill="#425763"/>
<path d="M22.0876 22.0997C22.0929 20.6499 21.0058 19.4707 19.6596 19.4659C18.3135 19.461 17.2179 20.6323 17.2126 22.082C17.2074 23.5318 18.2944 24.711 19.6406 24.7159C20.9868 24.7207 22.0824 23.5494 22.0876 22.0997Z" fill="#3587C4"/>
<path d="M21.623 21.9993C21.6274 20.8085 20.7074 19.8397 19.5684 19.8356C18.4293 19.8315 17.5024 20.7935 17.498 21.9844C17.4937 23.1752 18.4136 24.144 19.5527 24.1481C20.6918 24.1522 21.6187 23.1902 21.623 21.9993Z" fill="#4DA3EC"/>
<path d="M20.7266 20.9806C20.7278 20.67 20.4768 20.4172 20.1662 20.4161C19.8555 20.415 19.6028 20.6659 19.6016 20.9766C19.6005 21.2872 19.8514 21.54 20.1621 21.5411C20.4728 21.5422 20.7255 21.2913 20.7266 20.9806Z" fill="white"/>
<path d="M20.9993 17.5313L21.7493 16.7813C21.8431 16.6875 22.0306 16.6875 22.1243 16.6875C22.4056 16.7812 22.9681 16.9688 23.6243 17.3438C23.9993 17.5313 23.8118 18.1875 23.3431 18.0938L21.2806 18.1875C20.9993 18.2813 20.8118 17.8125 20.9993 17.5313Z" fill="#E1F0F4"/>
</g>
<defs>
<clipPath id="clip0_52_68500">
<rect width="30" height="30" fill="white"/>
</clipPath>
</defs>
</svg>
