<svg width="15" height="15" viewBox="0 0 15 15" fill="none" xmlns="http://www.w3.org/2000/svg">
<path d="M9.14253 4.57825C8.25049 4.57825 8.20748 4.28824 8.20748 3.73321V0.703039C8.20748 0.314761 7.89272 0 7.50444 0C7.11617 0 6.80141 0.314761 6.80141 0.703039V3.73321C6.80141 4.28824 6.7574 4.57825 5.86535 4.57825C5.8004 4.57824 5.74744 4.63032 5.74635 4.69526V5.86732C5.74744 5.93266 5.80101 5.98489 5.86635 5.98433C6.45071 6.01861 7.02908 5.85089 7.50444 5.5093C7.98019 5.85088 8.55887 6.01859 9.14354 5.98433C9.20888 5.98489 9.26245 5.93266 9.26354 5.86732V4.69526C9.26302 4.66369 9.24997 4.63363 9.22728 4.61169C9.20458 4.58974 9.1741 4.57772 9.14253 4.57825Z" fill="#00B97D"/>
<path d="M6.15136 7.70927C6.05427 6.96286 5.99819 6.2117 5.98335 5.45915C5.98335 3.57404 5.77734 1.06891 3.99524 1.06891C1.82812 1.06691 1.88053e-05 6.82022 1.88053e-05 10.4324C1.88053e-05 10.5464 -0.013982 13.2326 0.722058 13.9756C0.839845 14.1019 1.00438 14.1742 1.17708 14.1756C1.53912 14.1713 1.88567 14.0281 2.14514 13.7756C2.80417 13.26 3.56648 12.8923 4.38026 12.6975C6.63338 12.0475 6.40037 9.93939 6.15136 7.70927Z" fill="#00B97D"/>
<path d="M14.9998 10.4335C14.9998 6.82027 13.1717 1.06695 11.0056 1.06695C9.22353 1.06695 9.01752 3.57209 9.01752 5.45719C9.00257 6.20974 8.94648 6.9609 8.84951 7.70732C8.6015 9.93944 8.36649 12.0476 10.6206 12.6976C11.4344 12.8927 12.1967 13.2608 12.8557 13.7767C13.1151 14.0293 13.4617 14.1725 13.8238 14.1767C13.9965 14.1753 14.161 14.103 14.2788 13.9767C15.0149 13.2336 15.0008 10.5465 14.9998 10.4335Z" fill="#00B97D"/>
</svg>
