<svg width="16" height="32" viewBox="0 0 16 32" fill="none" xmlns="http://www.w3.org/2000/svg">
<path d="M10.2154 8.73831C10.124 8.66974 10.0152 8.62798 9.90142 8.61772C9.7876 8.60746 9.67317 8.62909 9.57095 8.6802C9.46873 8.73131 9.38276 8.80988 9.32268 8.90709C9.26259 9.00431 9.23077 9.11634 9.23077 9.23062V11.6922C8.52332 11.7179 7.82485 11.8592 7.16308 12.1106C6.13568 12.4965 5.23926 13.1667 4.57846 14.0429C3.6783 15.3252 3.15788 16.8353 3.07692 18.3998C3.06558 18.5255 3.09317 18.6517 3.15593 18.7612C3.21869 18.8707 3.3136 18.9582 3.42779 19.012C3.54198 19.0657 3.66993 19.083 3.79431 19.0616C3.91868 19.0402 4.03345 18.981 4.12308 18.8922C5.24156 17.7509 6.61134 16.8869 8.12308 16.3691C8.56615 16.2214 8.93538 16.1229 9.23077 16.086V18.4614C9.23209 18.5791 9.26716 18.694 9.33182 18.7924C9.39648 18.8908 9.48801 18.9686 9.59556 19.0166C9.7031 19.0645 9.82214 19.0806 9.93855 19.0629C10.055 19.0452 10.1639 18.9945 10.2523 18.9168L15.7908 13.9937C15.8568 13.9342 15.9092 13.861 15.9443 13.7793C15.9794 13.6976 15.9963 13.6092 15.994 13.5203C15.9917 13.4314 15.9701 13.3441 15.9308 13.2643C15.8914 13.1846 15.8353 13.1143 15.7662 13.0583L10.2154 8.73831ZM9.77231 12.9229C9.8591 12.9334 9.94713 12.9253 10.0305 12.8991C10.1139 12.8729 10.1908 12.8293 10.256 12.771C10.3212 12.7128 10.3733 12.6414 10.4087 12.5614C10.4442 12.4815 10.4622 12.395 10.4615 12.3075V10.486L14.4246 13.5629L10.4615 17.1075V15.3845C10.4615 15.2213 10.3967 15.0647 10.2813 14.9493C10.1659 14.8339 10.0094 14.7691 9.84615 14.7691H9.79692C9.60721 14.7708 9.41792 14.7872 9.23077 14.8183C7.54561 15.1271 5.95638 15.8269 4.59077 16.8614C4.83692 15.9998 5.18154 15.3106 5.57539 14.7937C6.09384 14.1026 6.79817 13.5733 7.60615 13.2675C8.28919 13.0084 9.01785 12.8912 9.74769 12.9229H9.77231ZM3.07692 9.846C2.26087 9.846 1.47825 10.1702 0.90121 10.7472C0.324175 11.3242 0 12.1069 0 12.9229L0 20.3075C0 20.7116 0.079587 21.1117 0.234217 21.485C0.388847 21.8583 0.615491 22.1975 0.90121 22.4833C1.47825 23.0603 2.26087 23.3845 3.07692 23.3845H10.4615C10.8656 23.3845 11.2657 23.3049 11.639 23.1502C12.0123 22.9956 12.3515 22.769 12.6373 22.4833C12.923 22.1975 13.1496 21.8583 13.3042 21.485C13.4589 21.1117 13.5385 20.7116 13.5385 20.3075V19.0768C13.5385 18.9136 13.4736 18.757 13.3582 18.6416C13.2428 18.5262 13.0863 18.4614 12.9231 18.4614C12.7599 18.4614 12.6033 18.5262 12.4879 18.6416C12.3725 18.757 12.3077 18.9136 12.3077 19.0768V20.3075C12.3077 21.3291 11.4831 22.1537 10.4615 22.1537H3.07692C2.58729 22.1537 2.11772 21.9592 1.7715 21.613C1.42527 21.2667 1.23077 20.7972 1.23077 20.3075V12.9229C1.23077 11.9014 2.05538 11.0768 3.07692 11.0768H5.53846C5.70167 11.0768 5.8582 11.0119 5.9736 10.8965C6.08901 10.7811 6.15385 10.6246 6.15385 10.4614C6.15385 10.2982 6.08901 10.1417 5.9736 10.0262C5.8582 9.91084 5.70167 9.846 5.53846 9.846H3.07692Z" fill="white"/>
</svg>
