<svg width="22" height="16" viewBox="0 0 22 16" fill="none" xmlns="http://www.w3.org/2000/svg">
<path d="M7.53819 11.5897C8.4451 10.7234 9.65099 10.24 10.9051 10.24C12.1593 10.24 13.3652 10.7234 14.2721 11.5897" stroke="#C5D0E6" stroke-width="2" stroke-linecap="round" stroke-linejoin="round"/>
<path d="M4.27981 8.3313C6.05098 6.60082 8.42891 5.632 10.9051 5.632C13.3813 5.632 15.7593 6.60082 17.5304 8.3313" stroke="#C5D0E6" stroke-width="2" stroke-linecap="round" stroke-linejoin="round"/>
<path d="M1.024 5.07296C3.65837 2.47834 7.20757 1.024 10.9051 1.024C14.6027 1.024 18.1519 2.47834 20.7863 5.07296" stroke="#C5D0E6" stroke-width="2" stroke-linecap="round" stroke-linejoin="round"/>
<path d="M10.9059 16C11.5421 16 12.0579 15.4842 12.0579 14.848C12.0579 14.2118 11.5421 13.696 10.9059 13.696C10.2696 13.696 9.75387 14.2118 9.75387 14.848C9.75387 15.4842 10.2696 16 10.9059 16Z" fill="#C5D0E6"/>
</svg>
