<svg width="34" height="34" viewBox="0 0 34 34" fill="none" xmlns="http://www.w3.org/2000/svg">
<path fill-rule="evenodd" clip-rule="evenodd" d="M14.2976 16.9997L23.2904 8.007C23.6133 7.70101 23.8003 7.27602 23.8003 6.80004C23.7998 6.46348 23.6998 6.13459 23.5127 5.8548C23.3256 5.57502 23.0599 5.35686 22.7491 5.2278C22.4383 5.09874 22.0962 5.06456 21.766 5.12956C21.4358 5.19456 21.1322 5.35584 20.8934 5.59308L10.6938 15.7927C10.3878 16.0987 10.2008 16.5237 10.2008 16.9997C10.2008 17.4757 10.3878 17.9007 10.6938 18.2067L20.8934 28.4063C21.2135 28.7264 21.6477 28.9063 22.1004 28.9063C22.5531 28.9063 22.9872 28.7264 23.3074 28.4063C23.6275 28.0862 23.8073 27.6521 23.8073 27.1994C23.8073 26.7467 23.6275 26.3125 23.3074 25.9924L14.2976 16.9997Z" fill="#2D3340"/>
</svg>
