<svg width="25" height="25" viewBox="0 0 25 25" fill="none" xmlns="http://www.w3.org/2000/svg">
<path fill-rule="evenodd" clip-rule="evenodd" d="M9.98793 3.15517H12.5003H15.0127V8.99282C13.96 9.76861 12.9346 9.88501 12.0357 9.73459C11.2728 9.6069 10.5615 9.27661 9.98793 8.90004V3.15517ZM8.52195 10.8431C7.32217 11.6344 6.13673 11.9442 5.03502 11.9065V21.7005H7.46559V14.5824C7.46559 13.9112 8.00968 13.3671 8.68086 13.3671H16.3198C16.9909 13.3671 17.535 13.9112 17.535 14.5824V21.7005H19.9656V11.9065C18.8831 11.9435 17.7199 11.6452 16.5417 10.8841C14.9245 12.1127 13.1989 12.3936 11.6346 12.1318C10.4296 11.9302 9.35942 11.4158 8.52195 10.8431ZM15.1045 21.7005V15.7977H9.89614V21.7005H15.1045ZM0.980973 9.87177C1.3481 10.3285 1.90001 10.8305 2.60447 11.222V22.9158C2.60447 23.5869 3.14857 24.131 3.81975 24.131H21.1808C21.8521 24.131 22.3961 23.5869 22.3961 22.9158V11.222C23.1006 10.8305 23.6525 10.3285 24.0197 9.87177C24.3178 9.50087 24.372 8.99007 24.1584 8.56484L20.556 1.39433C20.3498 0.98375 19.9296 0.724609 19.4701 0.724609H16.228H12.5003H8.77266H5.53053C5.07105 0.724609 4.65087 0.98375 4.4446 1.39433L0.84224 8.56484C0.628608 8.99007 0.68283 9.50087 0.980973 9.87177ZM7.55738 3.15517V8.54595C6.39317 9.45282 5.43147 9.5596 4.73142 9.43705C4.21554 9.34675 3.76435 9.11773 3.41473 8.85853L6.28001 3.15517H7.55738ZM17.4432 3.15517V8.54595C18.6075 9.45282 19.5692 9.5596 20.2692 9.43705C20.7851 9.34675 21.2362 9.11773 21.5859 8.85853L18.7206 3.15517H17.4432Z" fill="#0E0E0E"/>
</svg>
