<svg width="160" height="160" viewBox="0 0 160 160" fill="none" xmlns="http://www.w3.org/2000/svg">
<path d="M124.913 48.9667C124.373 47.6169 123.545 46.401 122.487 45.4039C121.429 44.4068 120.166 43.6525 118.787 43.1934L103.033 37.94L98.8267 29.5267C98.0001 27.8621 96.724 26.4621 95.1428 25.4854C93.5616 24.5086 91.7386 23.9941 89.88 24.0001H71.4534C69.5948 23.9941 67.7717 24.5086 66.1906 25.4854C64.6094 26.4621 63.3333 27.8621 62.5067 29.5267L58.3 37.94L42.5467 43.1934C41.1672 43.6525 39.9044 44.4068 38.8462 45.4039C37.7881 46.401 36.9602 47.6169 36.42 48.9667L25.1934 77.04C24.4014 79.0086 23.9962 81.1114 24 83.2333V124C24 125.768 24.7024 127.464 25.9526 128.714C27.2029 129.964 28.8986 130.667 30.6667 130.667H37.3334C39.1015 130.667 40.7972 129.964 42.0474 128.714C43.2976 127.464 44 125.768 44 124V114.493L47.3334 103.373V110.853C47.53 114.612 48.6768 118.259 50.6667 121.453V130.667C50.6667 132.435 51.3691 134.13 52.6193 135.381C53.8696 136.631 55.5652 137.333 57.3334 137.333H104C105.768 137.333 107.464 136.631 108.714 135.381C109.964 134.13 110.667 132.435 110.667 130.667V121.453C112.657 118.259 113.804 114.612 114 110.853V103.373L117.333 114.493V124C117.333 125.768 118.036 127.464 119.286 128.714C120.536 129.964 122.232 130.667 124 130.667H130.667C132.435 130.667 134.13 129.964 135.381 128.714C136.631 127.464 137.333 125.768 137.333 124V83.2333C137.338 81.1135 136.933 79.0128 136.14 77.0467L124.913 48.9667ZM117.26 49.8667C113.705 55.2132 110.448 60.7528 107.507 66.46C107.153 67.7934 107.453 66.2467 107.333 104C104.681 104 102.138 102.946 100.262 101.071C98.3869 99.1957 97.3334 96.6522 97.3334 94C97.3334 93.116 96.9822 92.2681 96.357 91.643C95.7319 91.0179 94.8841 90.6667 94 90.6667C93.116 90.6667 92.2681 91.0179 91.643 91.643C91.0179 92.2681 90.6667 93.116 90.6667 94C90.6667 98.4203 92.4226 102.66 95.5482 105.785C98.6738 108.911 102.913 110.667 107.333 110.667V110.853C107.195 113.151 106.487 115.378 105.273 117.333H84V55.7867L101.16 44.3467C120.2 50.82 115.933 49.0934 117.26 49.8667ZM66.6667 36.1734L70.7934 43.3934L64.9934 39.5267L66.6667 36.1734ZM94.72 36.1734L96.3934 39.5067L90.5934 43.3734L94.72 36.1734ZM90.1467 30.7334L80.6667 47.28L71.2134 30.7334C72.5667 30.6667 88.76 30.6667 90.12 30.7334H90.1467ZM60.1734 44.3467L77.3334 55.7867V117.333H56.06C54.8363 115.382 54.1275 113.153 54 110.853V110.667C58.4203 110.667 62.6595 108.911 65.7851 105.785C68.9107 102.66 70.6667 98.4203 70.6667 94C70.6667 93.116 70.3155 92.2681 69.6904 91.643C69.0653 91.0179 68.2174 90.6667 67.3334 90.6667C66.4493 90.6667 65.6015 91.0179 64.9763 91.643C64.3512 92.2681 64 93.116 64 94C64 96.6522 62.9465 99.1957 61.0711 101.071C59.1957 102.946 56.6522 104 54 104C53.88 66.2534 54.18 67.76 53.8267 66.46C50.887 60.7517 47.6309 55.2119 44.0734 49.8667C45.0934 49.2667 53.3734 46.6667 60.1734 44.3467ZM30.6667 124V117.333H37.3334V124H30.6667ZM46.9134 81.5867L38.1867 110.667H30.6667V83.2333C30.6662 81.9615 30.9083 80.7012 31.38 79.52L40.4667 56.8134L47.3334 68.2534V78.7133C47.3339 79.6865 47.1924 80.6544 46.9134 81.5867ZM57.3334 130.667V124H104V130.667H57.3334ZM114 78.7133V68.2534L120.867 56.8134L129.953 79.5267C130.426 80.7051 130.669 81.9635 130.667 83.2333V110.667H123.147L114.42 81.58C114.14 80.6502 113.999 79.6843 114 78.7133ZM124 124V117.333H130.667V124H124Z" fill="#393D46"/>
</svg>
