<svg width="35" height="35" viewBox="0 0 35 35" fill="none" xmlns="http://www.w3.org/2000/svg">
<path fill-rule="evenodd" clip-rule="evenodd" d="M35 6.28206C35 6.77771 34.5982 7.1795 34.1025 7.1795H32.3077V27.8205H34.1026C34.5983 27.8205 35 28.2222 35 28.7179V34.1025C35 34.5982 34.5983 35 34.1026 35H28.718C28.2223 35 27.8205 34.5982 27.8205 34.1025V32.3076H7.1795V34.1025C7.1795 34.5982 6.77771 35 6.28206 35H0.897437C0.401781 35 0 34.5982 0 34.1025V28.7179C0 28.2223 0.401781 27.8205 0.897437 27.8205H2.69231V7.1795H0.897437C0.401781 7.1795 0 6.77771 0 6.28206V0.897437C0 0.401781 0.401781 0 0.897437 0H6.28206C6.77771 0 7.1795 0.401781 7.1795 0.897437V2.69231H27.8205V0.897437C27.8205 0.401781 28.2222 0 28.7179 0H34.1025C34.5982 0 35 0.401781 35 0.897437V6.28206ZM28.7179 27.8205H30.5128H30.5129V7.1795H28.718C28.2223 7.1795 27.8205 6.77771 27.8205 6.28206V4.48719H7.1795V6.28206C7.1795 6.77771 6.77771 7.1795 6.28206 7.1795H4.48719V27.8205H6.28206C6.77771 27.8205 7.1795 28.2222 7.1795 28.7179V30.5128H27.8205V28.7179C27.8205 28.2222 28.2222 27.8205 28.7179 27.8205Z" fill="#78797A"/>
</svg>
