<svg width="136" height="136" viewBox="0 0 136 136" fill="none" xmlns="http://www.w3.org/2000/svg">
<path d="M73.3994 50.9996C71.1994 50.3996 57.3994 41.9996 58.3994 38.5996C59.3994 35.1996 63.3994 36.7996 63.3994 36.7996C63.3994 36.7996 62.7994 30.1996 64.9994 30.1996C67.1994 30.1996 70.9994 33.9996 70.9994 33.9996C70.9994 33.9996 70.7994 24.1996 73.5994 25.7996C76.3994 27.3996 75.7994 31.7996 77.5994 31.7996C79.1994 31.7996 82.9994 26.7996 84.5994 28.9996C86.1994 31.1996 86.3994 38.7996 84.7994 42.1996C83.1994 45.5996 78.3994 53.1996 78.3994 53.1996L73.3994 50.9996Z" fill="#FF3008"/>
<path d="M82.9992 86.3996C82.3992 62.3996 75.1992 46.1996 75.1992 45.9996L76.1992 45.5996C76.1992 45.7996 83.5992 62.1996 84.1992 86.3996H82.9992Z" fill="#28362C"/>
<path d="M88.7999 57.4004C88.1999 56.8004 93.3999 49.2004 94.7999 47.6004C95.9999 46.0004 99.7999 42.6004 101.8 42.6004C103.8 42.6004 112 42.4004 112.8 43.0004C113.4 43.6004 110.8 48.8004 108.8 50.4004C106.8 52.0004 102.4 55.8004 98.7999 56.2004C94.9999 56.6004 89.3999 57.8004 88.7999 57.4004Z" fill="#004C52"/>
<path d="M78.5994 33.0005C77.9994 31.8005 77.3994 26.6005 81.3994 23.4005C82.5994 22.4005 86.1994 21.2005 90.1994 18.4005C93.5994 16.0005 99.9994 20.4005 101.199 23.4005C102.399 26.4005 101.599 28.8005 99.9994 31.8005C98.3994 34.6005 94.7994 38.6005 92.1994 40.0005C88.7994 41.4005 80.1994 35.8005 78.5994 33.0005Z" fill="#EDB9B5"/>
<path d="M88.9995 50.4005C84.9995 50.0005 78.7995 45.8005 76.7995 40.4005C74.7995 35.0005 75.3995 26.4005 79.1995 25.2005C82.9995 24.0005 89.9995 27.2005 91.3995 27.8005C92.9995 28.6005 95.3995 26.2005 96.7995 25.6005C98.9995 24.6005 104.2 24.8005 104.8 26.2005C106 29.0005 101.4 42.2005 99.7995 45.0005C96.7995 48.0005 91.9995 50.6005 88.9995 50.4005Z" fill="#F9D0CC"/>
<path d="M91.9994 39.7998C94.5993 38.3998 98.1994 34.3998 99.7994 31.5998C101.199 29.1998 101.799 27.1998 101.399 24.9998C99.7994 24.7998 97.7993 24.9998 96.5993 25.5998C95.3993 26.1998 92.9993 28.3998 91.1993 27.7998C89.7993 27.1998 83.5994 24.3998 79.7994 24.9998C77.3994 28.1998 77.7994 32.1998 78.3994 32.9998C80.1994 35.7998 88.7994 41.3998 91.9994 39.7998Z" fill="#F6DBD9"/>
<path d="M88.8256 45.0898L87.125 93.4608L88.1244 93.4959L89.8249 45.125L88.8256 45.0898Z" fill="#28362C"/>
<path d="M73 60.4C73.4 61.8 81.6 110.2 81.6 110.2L91.8 110L103.6 60L73 60.4Z" fill="#C3A289"/>
<path d="M32.5996 109.6C35.9996 110.4 76.1996 109.6 76.1996 109.6L75.3996 71.9996L32.7996 71.5996L32.5996 109.6Z" fill="#004C52"/>
<path d="M30.8008 64.2008L31.0008 77.8008L77.6008 78.0008V63.8008L30.8008 64.2008Z" fill="#1F6167"/>
<path d="M53.7996 64.3996C53.7996 64.3996 47.1996 63.1996 44.1996 62.7996C39.5996 61.9996 34.9996 58.5996 33.7996 55.1996C33.3996 53.7996 33.5996 52.3996 34.3996 51.3996C35.7996 49.9996 37.3996 49.1996 39.1996 49.3996C44.7996 49.7996 50.5996 57.9996 50.9996 58.3996L53.9996 63.5996C53.9996 63.7996 53.9996 63.9996 53.9996 64.1996C53.9996 64.3996 53.7996 64.3996 53.7996 64.3996ZM38.9996 50.3996C37.5996 50.3996 36.3996 50.9996 35.3996 52.1996C34.5996 52.9996 34.5996 53.9996 34.9996 54.9996C35.9996 57.9996 40.3996 61.1996 44.5996 61.7996C46.7996 62.1996 50.9996 62.9996 52.9996 63.1996L50.3996 58.9996C50.1996 58.5996 44.5996 50.7996 39.3996 50.3996C39.1996 50.3996 38.9996 50.3996 38.9996 50.3996Z" fill="#DBA7A5"/>
<path d="M53.6 64.3996C53.4 64.3996 53.4 64.3996 53.2 64.1996C53 63.9996 53 63.7996 53 63.7996C53 63.5996 54 58.5996 54.8 56.5996C55.2 55.5996 57.2 51.1996 60 50.7996C61.2 50.5996 62.2 51.1996 63.2 52.3996C64 53.3996 64.2 54.3996 64.2 55.5996C63.8 57.5996 62.2 59.3996 59 61.5996C56.4 63.3996 54 64.3996 53.8 64.3996C53.8 64.1996 53.6 64.3996 53.6 64.3996ZM60.6 51.5996H60.4C58.6 51.7996 56.8 54.9996 56 56.7996C55.4 58.1996 54.8 61.1996 54.4 62.7996C55.4 62.3996 57 61.3996 58.6 60.3996C61.6 58.3996 63.2 56.5996 63.4 55.1996C63.6 54.3996 63.4 53.5996 62.6 52.7996C61.8 51.9996 61.2 51.5996 60.6 51.5996Z" fill="#DBA7A5"/>
<path d="M45.2008 72.9992C41.0008 72.9992 37.4008 70.1992 37.2008 70.1992C37.0008 69.9992 37.0008 69.7992 37.2008 69.5992C37.4008 69.3992 37.6008 69.3992 37.8008 69.5992C37.8008 69.5992 43.6008 73.9992 48.6008 71.3992C52.0008 69.7992 53.2008 64.5992 53.2008 64.5992C53.2008 64.3992 53.6008 64.1992 53.8008 64.1992C54.0008 64.1992 54.2008 64.5992 54.2008 64.7992C54.2008 64.9992 53.0008 70.5992 49.2008 72.3992C47.8008 72.7992 46.6008 72.9992 45.2008 72.9992Z" fill="#DBA7A5"/>
<path d="M54.1992 109.6C53.9992 109.6 53.7992 109.4 53.7992 109.2L53.1992 64.8004C53.1992 64.6004 53.3992 64.4004 53.5992 64.4004C53.7992 64.4004 53.9992 64.4004 54.1992 64.6004C54.9992 66.6004 57.5992 71.6004 59.9992 72.4004C65.9992 74.2004 68.7992 68.0004 68.9992 67.6004C69.1992 67.4004 69.3992 67.2004 69.5992 67.4004C69.7992 67.6004 69.9992 67.8004 69.7992 68.0004C69.7992 68.0004 66.5992 75.2004 59.5992 73.2004C57.3992 72.6004 55.3992 69.2004 54.1992 67.0004L54.7992 109C54.7992 109.4 54.5992 109.6 54.1992 109.6Z" fill="#DBA7A5"/>
</svg>
