<svg width="15" height="18" viewBox="0 0 15 18" fill="none" xmlns="http://www.w3.org/2000/svg">
<path d="M4.87487 0H1.12497C0.504727 0 0 0.504727 0 1.12497V16.8746C0 17.4949 0.504727 17.9996 1.12497 17.9996H4.8749C5.49515 17.9996 5.99987 17.4949 5.99987 16.8746V1.12497C5.99984 0.504727 5.49511 0 4.87487 0Z" fill="#742996"/>
<path d="M13.8749 0H10.125C9.50473 0 9 0.504727 9 1.12497V16.8746C9 17.4949 9.50473 17.9996 10.125 17.9996H13.8749C14.4951 17.9996 14.9999 17.4949 14.9999 16.8746V1.12497C14.9998 0.504727 14.4951 0 13.8749 0Z" fill="#742996"/>
</svg>
