<svg width="48" height="48" viewBox="0 0 48 48" fill="none" xmlns="http://www.w3.org/2000/svg">
<path d="M10.4015 1.93587C10.1062 3.25775 9.81558 4.57962 9.52027 5.9015C9.04215 8.06244 8.56402 10.2187 8.0859 12.3796C7.96871 12.914 7.84683 13.4484 7.72965 13.9827C7.39683 15.4968 7.23277 17.0624 7.32184 18.614C7.55152 22.5327 9.12183 26.264 11.7937 29.1515C13.1015 30.5624 14.6953 31.7671 16.4156 32.6296C18.3891 33.6187 20.4797 34.1999 22.6734 34.3968C26.6578 34.7531 30.825 33.5484 33.9984 31.1156C35.625 29.8687 37.0125 28.4109 38.1141 26.6765C39.1125 25.1109 39.8578 23.3343 40.2656 21.5249C40.6828 19.6781 40.8141 17.7515 40.5797 15.8671C40.4719 15.0281 40.3172 14.2077 40.1343 13.3874C39.703 11.4421 39.2719 9.49681 38.8406 7.5515C38.4469 5.77494 38.0531 4.00306 37.6594 2.2265C37.6359 2.12806 37.6172 2.02962 37.5938 1.93119C37.5047 1.53744 37.2281 1.19525 36.9234 0.956189C36.5953 0.703064 36.2109 0.553064 35.7891 0.553064C35.0063 0.553064 34.2234 0.553064 33.4406 0.553064C31.5609 0.553064 29.6813 0.553064 27.8016 0.553064C25.5375 0.553064 23.2734 0.553064 21.0047 0.553064C19.0406 0.553064 17.0765 0.553064 15.1078 0.553064C14.1562 0.553064 13.2 0.539001 12.2437 0.553064C12.2297 0.553064 12.2156 0.553064 12.2062 0.553064C11.2265 0.553064 10.2843 1.41556 10.3312 2.42806C10.3781 3.44525 11.1562 4.30306 12.2062 4.30306C12.989 4.30306 13.7718 4.30306 14.5547 4.30306C16.4343 4.30306 18.3141 4.30306 20.1938 4.30306C22.4578 4.30306 24.7219 4.30306 26.9906 4.30306C28.9547 4.30306 30.9188 4.30306 32.8875 4.30306C33.8391 4.30306 34.7952 4.32181 35.7516 4.30306C35.7656 4.30306 35.7797 4.30306 35.7891 4.30306C35.1844 3.84369 34.5844 3.38431 33.9797 2.92494C34.3031 4.39212 34.6313 5.85931 34.9547 7.33119C35.4469 9.539 35.9344 11.7515 36.4266 13.9593C36.6 14.7327 36.7828 15.5062 36.8859 16.2937C36.8625 16.1296 36.8391 15.9609 36.8203 15.7968C36.9938 17.1093 36.9891 18.4312 36.8156 19.7437C36.8391 19.5796 36.8625 19.4109 36.8813 19.2468C36.7031 20.5359 36.3609 21.7968 35.8594 22.9968C35.9203 22.8468 35.9859 22.6968 36.0469 22.5468C35.55 23.7234 34.9031 24.8343 34.125 25.8515C34.2234 25.7249 34.3219 25.5984 34.4203 25.4718C33.6375 26.4843 32.7327 27.389 31.725 28.1671C31.8516 28.0687 31.9781 27.9702 32.1047 27.8718C31.0969 28.6452 30 29.2827 28.8375 29.7796C28.9875 29.7187 29.1375 29.6531 29.2875 29.5921C28.0734 30.1031 26.7984 30.4546 25.4906 30.6327C25.6547 30.6093 25.8234 30.5859 25.9875 30.5671C24.6656 30.7406 23.3297 30.7406 22.0125 30.5671C22.1766 30.5906 22.3453 30.614 22.5094 30.6327C21.2016 30.4546 19.9266 30.1031 18.7125 29.5921C18.8625 29.6531 19.0125 29.7187 19.1625 29.7796C17.9953 29.2827 16.8984 28.6406 15.8953 27.8718C16.0218 27.9702 16.1484 28.0687 16.275 28.1671C15.2672 27.3843 14.3578 26.4796 13.5797 25.4718C13.6781 25.5984 13.7765 25.7249 13.875 25.8515C13.0968 24.8343 12.4547 23.7281 11.9531 22.5468C12.014 22.6968 12.0797 22.8468 12.1406 22.9968C11.639 21.7968 11.2968 20.5359 11.1187 19.2468C11.1422 19.4109 11.1656 19.5796 11.1843 19.7437C11.0109 18.4312 11.0062 17.1093 11.1797 15.7968C11.1562 15.9609 11.1328 16.1296 11.114 16.2937C11.2078 15.5952 11.3672 14.9062 11.5172 14.2171C11.7234 13.2796 11.9297 12.3468 12.1406 11.4093C12.6468 9.12181 13.1578 6.82962 13.664 4.54212C13.7859 4.00306 13.9031 3.464 14.025 2.92494C14.1328 2.43275 14.0953 1.92181 13.8375 1.48119C13.6078 1.09213 13.1625 0.721814 12.7172 0.618689C12.239 0.510876 11.7 0.534314 11.2734 0.806189C10.8656 1.07338 10.5093 1.45775 10.4015 1.93587Z" fill="#393D46"/>
<path d="M22.125 32.6015C22.125 34.064 22.125 35.5265 22.125 36.9843C22.125 39.314 22.125 41.6391 22.125 43.9687C22.125 44.5031 22.125 45.0328 22.125 45.5672C22.125 46.5469 22.9875 47.4891 24 47.4422C25.0172 47.3953 25.875 46.6172 25.875 45.5672C25.875 44.1047 25.875 42.6422 25.875 41.1844C25.875 38.8546 25.875 36.5297 25.875 34.2C25.875 33.6656 25.875 33.1359 25.875 32.6015C25.875 31.6218 25.0125 30.6797 24 30.7265C22.9828 30.7734 22.125 31.5515 22.125 32.6015Z" fill="#393D46"/>
<path d="M15.258 47.4421C15.8393 47.4421 16.4205 47.4421 17.0018 47.4421C18.3893 47.4421 19.7768 47.4421 21.1643 47.4421C22.8518 47.4421 24.5392 47.4421 26.222 47.4421C27.6752 47.4421 29.1283 47.4421 30.5767 47.4421C31.2845 47.4421 31.997 47.4562 32.7048 47.4421C32.7142 47.4421 32.7236 47.4421 32.733 47.4421C33.7126 47.4421 34.6548 46.5796 34.608 45.5671C34.5611 44.5499 33.783 43.6921 32.733 43.6921C32.1517 43.6921 31.5705 43.6921 30.9892 43.6921C29.6017 43.6921 28.2142 43.6921 26.8267 43.6921C25.1392 43.6921 23.4517 43.6921 21.769 43.6921C20.3158 43.6921 18.8627 43.6921 17.4143 43.6921C16.7065 43.6921 15.994 43.6781 15.2861 43.6921C15.2768 43.6921 15.2674 43.6921 15.258 43.6921C14.2783 43.6921 13.3362 44.5546 13.383 45.5671C13.4299 46.5843 14.208 47.4421 15.258 47.4421ZM26.897 19.2281C26.5455 18.2296 26.1939 17.2265 25.8423 16.2281C25.2845 14.6343 24.7267 13.0406 24.1642 11.4468C24.0377 11.0812 23.9064 10.7203 23.7798 10.3546C23.0111 11.1234 22.2424 11.8921 21.4736 12.6609C22.6549 12.8296 23.8314 12.9937 25.0127 13.1624C25.1814 13.1859 25.3502 13.2093 25.5189 13.2328C25.8517 13.3218 26.1845 13.3218 26.5173 13.2328C26.8361 13.1437 27.1127 12.9843 27.347 12.7499C27.8439 12.2531 27.9658 11.5921 27.8298 10.9265C27.6189 9.91867 27.4127 8.90617 27.2017 7.89836C26.8642 6.28117 26.5314 4.66398 26.1939 3.0468C26.1189 2.67648 26.0392 2.30617 25.9642 1.94055C25.8705 1.49523 25.4861 1.04523 25.1017 0.820228C24.6986 0.585853 24.108 0.487416 23.658 0.632728C23.2033 0.778041 22.7674 1.05929 22.5377 1.49523C22.294 1.9593 22.2424 2.42336 22.3502 2.93898C22.5611 3.9468 22.7674 4.9593 22.9783 5.96711C23.3158 7.5843 23.6486 9.20148 23.9861 10.8187C24.0611 11.189 24.1408 11.5593 24.2158 11.9249C24.9845 11.1562 25.7533 10.3874 26.522 9.61867C25.3408 9.44992 24.1642 9.28586 22.983 9.11711C22.8143 9.09367 22.6455 9.07022 22.4768 9.04679C22.144 8.95772 21.8111 8.95772 21.4783 9.04679C21.1596 9.13585 20.883 9.29523 20.6486 9.5296C20.1986 9.9796 19.9502 10.7343 20.1658 11.3531C20.5174 12.3515 20.869 13.3546 21.2205 14.3531C21.7783 15.9468 22.3361 17.5406 22.8986 19.1343C23.0252 19.4999 23.1565 19.8609 23.283 20.2265C23.447 20.6906 23.7095 21.0937 24.1455 21.3468C24.5486 21.5812 25.1392 21.6796 25.5892 21.5343C26.0439 21.389 26.4798 21.1078 26.7095 20.6718C26.9345 20.2453 27.0658 19.7015 26.897 19.2281Z" fill="#393D46"/>
</svg>
