<svg width="33" height="36" viewBox="0 0 33 36" fill="none" xmlns="http://www.w3.org/2000/svg">
<g filter="url(#filter0_f_12_19380)">
<path d="M4 24.4226V16.3457L11.25 26.1534V31.1534L4 24.4226Z" fill="#040336" fill-opacity="0.1"/>
</g>
<path d="M33 14.6154C33 11.7247 32.1496 8.899 30.5563 6.49551C28.963 4.09202 26.6984 2.21873 24.0489 1.11253C21.3994 0.00632603 18.4839 -0.283107 15.6712 0.280831C12.8585 0.844768 10.2748 2.23675 8.24695 4.28075C6.21909 6.32475 4.8381 8.92896 4.27861 11.7641C3.71913 14.5992 4.00628 17.5378 5.10375 20.2085C6.20122 22.8791 8.05972 25.1617 10.4442 26.7676C12.8287 28.3736 15.6322 29.2308 18.5 29.2308V21.9563C17.0596 21.9563 15.6515 21.5258 14.4538 20.7192C13.2561 19.9125 12.3226 18.766 11.7714 17.4246C11.2202 16.0833 11.0759 14.6072 11.3569 13.1832C11.638 11.7592 12.3316 10.4512 13.3501 9.42455C14.3687 8.3979 15.6664 7.69874 17.0792 7.41549C18.4919 7.13223 19.9563 7.27761 21.2871 7.83323C22.6179 8.38885 23.7553 9.32976 24.5556 10.537C25.3559 11.7442 25.783 13.1635 25.783 14.6154H33Z" fill="#FBBE57"/>
<defs>
<filter id="filter0_f_12_19380" x="0" y="12.3457" width="15.25" height="22.8076" filterUnits="userSpaceOnUse" color-interpolation-filters="sRGB">
<feFlood flood-opacity="0" result="BackgroundImageFix"/>
<feBlend mode="normal" in="SourceGraphic" in2="BackgroundImageFix" result="shape"/>
<feGaussianBlur stdDeviation="2" result="effect1_foregroundBlur_12_19380"/>
</filter>
</defs>
</svg>
