<svg width="11" height="12" viewBox="0 0 11 12" fill="none" xmlns="http://www.w3.org/2000/svg">
<mask id="mask0_0_226" style="mask-type:luminance" maskUnits="userSpaceOnUse" x="-2" y="-2" width="15" height="16">
<rect x="-1.80411" y="-1.2708" width="14.5629" height="14.5629" fill="white"/>
</mask>
<g mask="url(#mask0_0_226)">
<path fill-rule="evenodd" clip-rule="evenodd" d="M5.16711 11.9291C5.3455 12.0244 5.56941 12.0238 5.74781 11.9285C10.6094 9.31687 10.9547 4.21438 10.9504 2.76355C10.9498 2.52447 10.8078 2.31209 10.5888 2.21562L5.70412 0.0518049C5.54696 -0.0173691 5.36796 -0.0173691 5.2108 0.0524117L0.360126 2.21622C0.144716 2.3127 0.00394065 2.52144 0.000906631 2.75748C-0.0197242 4.20103 0.270928 9.31444 5.16711 11.9291ZM3.4596 4.97469L4.85097 6.36606L7.45592 3.76111L8.31392 4.61911L4.85097 8.08206L2.6016 5.83269L3.4596 4.97469Z" fill="#8F9198"/>
</g>
</svg>
