<svg width="20" height="20" viewBox="0 0 20 20" fill="none" xmlns="http://www.w3.org/2000/svg">
<g opacity="0.3">
<path d="M17.5758 5.81628C16.8675 5.03294 15.6842 4.64128 13.9675 4.64128H13.7675V4.60794C13.7675 3.20794 13.7675 1.47461 10.6342 1.47461H9.36751C6.23418 1.47461 6.23418 3.21628 6.23418 4.60794V4.64961H6.03418C4.30918 4.64961 3.13418 5.04128 2.42584 5.82461C1.60085 6.74128 1.62584 7.97461 1.70918 8.81628L1.71751 8.87461L1.7783 9.51289C1.79256 9.66267 1.87332 9.79805 1.99931 9.88027C2.20137 10.0121 2.51111 10.2109 2.70084 10.3163C2.81751 10.3913 2.94251 10.4579 3.06751 10.5246C4.49251 11.3079 6.05918 11.8329 7.65084 12.0913C7.72584 12.8746 8.06751 13.7913 9.89251 13.7913C11.7175 13.7913 12.0758 12.8829 12.1342 12.0746C13.8342 11.7996 15.4758 11.2079 16.9592 10.3413C17.0092 10.3163 17.0425 10.2913 17.0842 10.2663C17.4044 10.0853 17.7362 9.86361 18.0408 9.64493C18.154 9.56366 18.2263 9.43753 18.2416 9.29902L18.2508 9.21628L18.2925 8.82461C18.3008 8.77461 18.3008 8.73294 18.3092 8.67461C18.3758 7.83294 18.3592 6.68294 17.5758 5.81628ZM10.9092 11.5246C10.9092 12.4079 10.9092 12.5413 9.88418 12.5413C8.85918 12.5413 8.85918 12.3829 8.85918 11.5329V10.4829H10.9092V11.5246ZM7.42584 4.64128V4.60794C7.42584 3.19128 7.42584 2.66628 9.36751 2.66628H10.6342C12.5758 2.66628 12.5758 3.19961 12.5758 4.60794V4.64961H7.42584V4.64128Z" fill="#292D32"/>
<path d="M17.2589 11.509C17.613 11.3417 18.0202 11.6223 17.9848 12.0123L17.6992 15.1583C17.5242 16.8249 16.8409 18.5249 13.1742 18.5249H6.82422C3.15755 18.5249 2.47422 16.8249 2.29922 15.1666L2.02851 12.1888C1.99347 11.8033 2.39179 11.5233 2.74482 11.6819C3.70402 12.113 5.31603 12.8064 6.35201 13.0854C6.51602 13.1295 6.64917 13.2476 6.72357 13.4003C7.23778 14.4555 8.32696 15.0166 9.89089 15.0166C11.4394 15.0166 12.5419 14.4339 13.058 13.3755C13.1326 13.2227 13.2656 13.1047 13.4297 13.0603C14.5315 12.7618 16.2528 11.9845 17.2589 11.509Z" fill="#292D32"/>
</g>
</svg>
