<svg width="21" height="20" viewBox="0 0 21 20" fill="none" xmlns="http://www.w3.org/2000/svg">
<path d="M19.3005 19.9996C19.1205 19.9996 18.9405 19.9296 18.8105 19.7996L16.9505 17.9396C16.6805 17.6696 16.6805 17.2296 16.9505 16.9496C17.2205 16.6796 17.6605 16.6796 17.9405 16.9496L19.8005 18.8096C20.0705 19.0796 20.0705 19.5196 19.8005 19.7996C19.6605 19.9296 19.4805 19.9996 19.3005 19.9996Z" fill="black"/>
<path d="M0.75 9.5C0.75 4.67421 4.67421 0.75 9.5 0.75C14.3258 0.75 18.25 4.67421 18.25 9.5C18.25 14.3258 14.3258 18.25 9.5 18.25C4.67421 18.25 0.75 14.3258 0.75 9.5Z" stroke="black" stroke-width="1.5"/>
</svg>
