<svg width="16" height="16" viewBox="0 0 16 16" fill="none" xmlns="http://www.w3.org/2000/svg">
<path d="M8.03022 1.92015C8.24022 1.40015 8.83022 0.84015 9.58022 1.05015C10.1802 1.22015 10.5502 1.57015 10.7802 2.05015C10.9802 2.49015 11.0302 3.01015 11.0402 3.51015C11.0286 4.09755 10.9481 4.68155 10.8002 5.25015C10.7402 5.51015 10.6802 5.76015 10.6102 5.99015H11.9902C12.3007 5.99015 12.6069 6.06244 12.8846 6.2013C13.1624 6.34015 13.4039 6.54176 13.5902 6.79015C13.7765 7.03854 13.9024 7.3269 13.958 7.63238C14.0135 7.93786 13.9972 8.25208 13.9102 8.55015L12.5502 13.2002C12.4566 13.5191 12.3002 13.8162 12.0903 14.074C11.8805 14.3318 11.6213 14.5452 11.328 14.7016C11.0347 14.858 10.7131 14.9544 10.3821 14.9851C10.0511 15.0157 9.71728 14.9801 9.40022 14.8802L4.05022 13.2002C3.75969 13.1106 3.49341 12.9559 3.27161 12.748C3.04981 12.5401 2.87834 12.2843 2.77022 12.0002L2.25022 10.6002C2.08668 10.16 2.08323 9.67632 2.24046 9.23387C2.3977 8.79142 2.70559 8.4184 3.11022 8.18015L4.98022 7.08015L5.00022 7.07015L5.10022 6.98015C5.20022 6.91015 5.33022 6.78015 5.50022 6.58015C5.85022 6.19015 6.32022 5.55015 6.80022 4.54015C7.00022 4.10015 7.17022 3.76015 7.33022 3.44015C7.58022 2.94015 7.79022 2.52015 8.03022 1.92015ZM5.52022 7.92015L5.50022 7.93015L3.62022 9.04015C3.41565 9.15962 3.26014 9.34783 3.18139 9.57126C3.10264 9.79469 3.10577 10.0388 3.19022 10.2602L3.71022 11.6402C3.76428 11.7822 3.85002 11.9101 3.96091 12.0141C4.07181 12.118 4.20496 12.1954 4.35022 12.2402L9.70022 13.9202C10.5002 14.1802 11.3502 13.7202 11.5902 12.9202L12.9502 8.27015C12.9935 8.12192 13.0018 7.9657 12.9746 7.81371C12.9473 7.66173 12.8853 7.51811 12.7932 7.39412C12.7012 7.27014 12.5817 7.16914 12.4441 7.09905C12.3066 7.02897 12.1546 6.99169 12.0002 6.99015H9.93022C9.84911 6.99174 9.76883 6.97358 9.6963 6.93721C9.62378 6.90085 9.56119 6.84739 9.51394 6.78144C9.46669 6.71549 9.4362 6.63903 9.4251 6.55867C9.414 6.4783 9.42262 6.39644 9.45022 6.32015C9.55022 6.04015 9.71022 5.55015 9.83022 5.02015C9.96022 4.48015 10.0502 3.94015 10.0302 3.52015C10.0302 3.06015 9.98022 2.72015 9.87022 2.47015C9.81978 2.35575 9.74257 2.25516 9.64511 2.17684C9.54765 2.09853 9.4328 2.04479 9.31022 2.02015C9.27022 2.00015 9.21022 2.01015 9.15022 2.05015C9.06352 2.11282 8.99739 2.19984 8.96022 2.30015C8.71022 2.93015 8.46022 3.41015 8.20022 3.95015C8.04022 4.25015 7.88022 4.58015 7.70022 4.96015C7.32775 5.78522 6.8395 6.55296 6.25022 7.24015C6.03838 7.48188 5.80399 7.70288 5.55022 7.90015L5.53022 7.91015L5.52022 7.92015Z" fill="#2B2B2B"/>
</svg>
