<svg width="24" height="24" viewBox="0 0 24 24" fill="none" xmlns="http://www.w3.org/2000/svg">
<path d="M12 21C16.9706 21 21 16.9706 21 12C21 7.02944 16.9706 3 12 3C7.02944 3 3 7.02944 3 12C3 16.9706 7.02944 21 12 21Z" fill="#15161E" stroke="#15161E" stroke-width="1.5" stroke-linecap="round" stroke-linejoin="round"/>
<path d="M12 18C12.6213 18 13.125 17.4963 13.125 16.875C13.125 16.2537 12.6213 15.75 12 15.75C11.3787 15.75 10.875 16.2537 10.875 16.875C10.875 17.4963 11.3787 18 12 18Z" fill="white"/>
<path d="M12 14.25C12 14.6642 12.3358 15 12.75 15C13.1642 15 13.5 14.6642 13.5 14.25H12ZM12.75 13.5V12.75C12.5511 12.75 12.3603 12.829 12.2197 12.9697C12.079 13.1103 12 13.3011 12 13.5H12.75ZM9.375 10.875C9.375 11.2892 9.71079 11.625 10.125 11.625C10.5392 11.625 10.875 11.2892 10.875 10.875H9.375ZM13.5 14.25V13.5H12V14.25H13.5ZM12.75 14.25C13.4175 14.25 14.07 14.0521 14.6251 13.6812L13.7917 12.434C13.4833 12.64 13.1208 12.75 12.75 12.75V14.25ZM14.6251 13.6812C15.1801 13.3104 15.6126 12.7833 15.8681 12.1666L14.4823 11.5925C14.3404 11.9351 14.1 12.228 13.7917 12.434L14.6251 13.6812ZM15.8681 12.1666C16.1235 11.5499 16.1904 10.8713 16.0602 10.2166L14.589 10.5092C14.6613 10.8729 14.6242 11.2499 14.4823 11.5925L15.8681 12.1666ZM16.0602 10.2166C15.9299 9.56189 15.6085 8.96052 15.1365 8.48852L14.0758 9.54918C14.338 9.8114 14.5166 10.1455 14.589 10.5092L16.0602 10.2166ZM15.1365 8.48852C14.6645 8.01651 14.0631 7.69508 13.4084 7.56485L13.1158 9.03603C13.4795 9.10838 13.8136 9.28695 14.0758 9.54918L15.1365 8.48852ZM13.4084 7.56485C12.7537 7.43463 12.0751 7.50146 11.4584 7.75691L12.0325 9.14273C12.3751 9.00081 12.7521 8.96368 13.1158 9.03603L13.4084 7.56485ZM11.4584 7.75691C10.8417 8.01235 10.3146 8.44494 9.94379 8.99995L11.191 9.83331C11.397 9.52497 11.6899 9.28464 12.0325 9.14273L11.4584 7.75691ZM9.94379 8.99995C9.57294 9.55497 9.375 10.2075 9.375 10.875H10.875C10.875 10.5042 10.985 10.1417 11.191 9.83331L9.94379 8.99995Z" fill="white"/>
</svg>
