<svg width="30" height="30" viewBox="0 0 30 30" fill="none" xmlns="http://www.w3.org/2000/svg">
<g clip-path="url(#clip0_52_78483)">
<path d="M7.96875 11.625C7.96875 11.625 7.40625 11.5312 6.9375 11.1562C6.5625 10.7812 6.09375 10.875 6.09375 10.875C6 10.875 5.90625 10.7812 5.71875 10.6875C5.625 10.5938 5.4375 10.5938 5.34375 10.6875C5.34375 10.7812 5.53125 11.1562 5.53125 11.1562V11.625C5.53125 11.8125 5.53125 12.1875 6 12.375C6.46875 12.4688 6.75 12.4688 6.9375 12.375C7.125 12.0938 7.96875 11.625 7.96875 11.625Z" fill="#BC4D3F"/>
<path d="M3.93779 20.4376C2.71904 19.5939 2.25029 18.4689 2.90654 16.7814C3.09404 16.2189 4.87529 14.0626 5.15654 13.7814C6.18779 12.9376 10.5003 10.7814 14.2503 13.8751C14.9065 14.4376 15.0003 17.1564 15.1878 18.1876V18.2814C15.6565 21.0001 14.8128 23.1564 12.5628 22.9689C10.1253 22.7814 6.09404 21.8439 3.93779 20.4376Z" fill="#2E561D"/>
<path d="M16.1258 4.68656C15.2821 2.81156 13.1258 0.655312 10.5008 0.280313C9.56332 -0.00093751 8.43832 -0.188437 7.03207 0.186563C-0.186679 2.06156 2.90707 10.4991 2.90707 10.4991C3.75082 9.18656 5.53207 4.68656 8.71957 5.06156C10.0321 5.15531 11.0633 4.78031 11.7196 4.31156C12.5633 5.43656 13.6883 7.78031 13.5946 11.4366C13.5946 11.4366 13.7821 12.9366 15.8446 13.0303C15.8446 13.0303 15.6571 11.9053 16.0321 11.2491C16.2196 10.4991 16.9696 6.74906 16.1258 4.68656Z" fill="#8E4028"/>
<path d="M6.9375 12.5614C6.9375 14.1551 5.8125 15.4676 4.40625 15.3739C3 15.2801 1.78125 13.9676 1.78125 12.3739C1.78125 10.7801 2.90625 9.46762 4.3125 9.56137C5.71875 9.56137 6.9375 10.9676 6.9375 12.5614Z" fill="#8E4028"/>
<path d="M7.03125 12.6562C7.03125 14.1562 6 15.2813 4.6875 15.1875C3.375 15.0938 2.25 13.875 2.25 12.4687C2.25 11.0625 3.28125 9.9375 4.59375 9.9375C5.90625 9.9375 7.03125 11.1562 7.03125 12.6562Z" fill="#FFEFAB"/>
<path d="M4.40571 20.0629C3.28071 19.4067 2.62446 18.5629 3.28071 17.0629C3.46821 16.5942 5.24946 14.3442 5.53071 14.1567C6.56196 13.4067 10.312 13.2192 13.9682 15.9379C14.6245 16.4067 15.187 17.2504 15.3745 18.1879V18.2817C15.8432 20.7192 15.0932 22.5942 12.8432 22.4067C10.4057 22.1254 6.46821 21.2817 4.40571 20.0629Z" fill="#71AF5D"/>
<path d="M4.49997 18.6568C3.37497 18.0943 3.74997 16.8755 4.31247 15.6568C4.49997 15.188 4.96872 14.813 5.24997 14.6255C6.18747 13.9693 10.2187 13.5943 13.5937 15.8443C14.25 16.313 14.7187 16.9693 14.9062 17.7193V17.813C15.375 19.7818 13.7812 21.4693 12 21.0943C9.74997 20.6255 6.37497 19.688 4.49997 18.6568Z" fill="#E8A554"/>
<path d="M4.4062 18.6557C3.4687 18.0932 4.4062 17.5307 4.9687 16.312C5.06245 15.937 5.99995 14.9995 6.2812 14.812C7.12495 14.1557 9.2812 13.5932 12.1875 15.8432C12.75 16.2182 13.125 16.8745 13.3125 17.7182V17.812C13.6875 19.7807 12.6562 21.2807 11.1562 20.9057C9.0937 20.3432 5.99995 19.687 4.4062 18.6557Z" fill="#FFD097"/>
<path d="M6.09375 12.9375C6.09375 12.9375 5.34375 13.5 4.59375 14.9062L5.0625 15.4687L4.96875 15.5625C4.96875 15.5625 6.28125 14.4375 7.21875 13.9687L6.09375 12.9375Z" fill="#71AF5D"/>
<path d="M4.40587 15.75C4.40587 15.75 5.06212 17.9063 15.1871 18.375L14.2496 20.8125C14.2496 20.8125 11.6246 21.0938 8.06212 20.0625C4.68712 19.0313 3.37462 18.75 4.40587 15.75Z" fill="#71AF5D"/>
<path d="M3.75088 16.5934C3.84463 16.4059 4.03213 16.3122 4.21963 16.4059C4.96963 16.9684 6.93838 17.9997 11.0634 18.6559C12.0946 18.8434 13.3134 18.8434 15.0946 18.5622C15.0946 18.5622 15.1884 18.9372 15.0946 19.4059C14.9071 20.5309 13.7821 21.3747 12.5634 21.2809C11.1571 21.1872 9.84463 21.0934 7.87588 20.4372C4.87588 19.5934 3.09463 19.1247 3.75088 16.5934Z" fill="#A0E58C"/>
<path d="M14.9994 5.81158C14.9994 9.65533 12.1869 14.5303 8.62437 14.1553C5.34312 13.7803 2.99937 11.5303 2.71812 8.24908C2.43687 4.78033 4.78062 1.68658 8.43687 1.49908C12.2806 1.31158 14.9994 1.78033 14.9994 5.81158Z" fill="#8E4028"/>
<path d="M14.8119 6.1883C14.8119 9.9383 11.4369 13.8758 7.96815 13.5008C4.78065 13.2196 2.9994 10.9696 2.71815 7.78205C2.4369 4.40705 4.78065 1.40705 8.2494 1.21955C12.0931 1.03205 14.8119 2.2508 14.8119 6.1883Z" fill="#E8A554"/>
<path d="M11.7181 8.71875C11.8118 11.25 9.93685 13.0312 7.5931 12.8438C5.43685 12.6562 3.6556 10.6875 3.4681 8.4375C3.2806 6.09375 4.87435 4.125 7.12435 4.03125C9.56185 4.03125 11.6243 6.09375 11.7181 8.71875Z" fill="#FFD097"/>
<path d="M3.28125 6.84375C3.28125 6.84375 3.46875 5.8125 5.53125 5.90625C7.6875 5.90625 10.6875 6.28125 12 4.78125L11.5312 4.3125C11.5312 4.3125 10.2188 5.0625 8.0625 5.0625C6 5.0625 3.28125 5.53125 3.1875 5.8125C3 6 3.28125 6.84375 3.28125 6.84375Z" fill="#E8A554"/>
<path d="M9.84375 8.34375C9.84375 8.8125 9.5625 9.09375 9.1875 9.09375C8.8125 9.09375 8.53125 8.71875 8.53125 8.34375C8.53125 7.875 8.8125 7.59375 9.1875 7.59375C9.5625 7.59375 9.84375 7.96875 9.84375 8.34375ZM5.0625 7.875C5.0625 8.25 4.78125 8.625 4.5 8.625C4.21875 8.625 3.9375 8.25 3.9375 7.875C3.9375 7.5 4.21875 7.125 4.5 7.125C4.78125 7.125 5.0625 7.5 5.0625 7.875Z" fill="#8E4028"/>
<path d="M4.78125 7.59375C4.78125 7.6875 4.6875 7.78125 4.59375 7.78125C4.5 7.78125 4.40625 7.6875 4.40625 7.59375C4.40625 7.5 4.5 7.40625 4.59375 7.40625C4.6875 7.40625 4.78125 7.5 4.78125 7.59375Z" fill="white"/>
<path d="M6.9375 17.4375C6.9375 17.4375 7.21875 16.7812 7.78125 16.4062C7.78125 16.4062 7.5 17.0625 7.5 17.5313L6.9375 17.4375Z" fill="#8E4028"/>
<path d="M6 20.0625C6 20.0625 6.75 19.9688 7.21875 19.4062C7.21875 19.4062 7.40625 20.4375 8.15625 20.7187C8.0625 20.7187 6.1875 20.1562 6 20.0625Z" fill="#71AF5D"/>
<path d="M8.15625 13.875L9.375 14.3437L11.8125 14.8125L11.9062 12.75C11.9062 12.75 9 13.7812 8.15625 13.875Z" fill="#8E4028"/>
<path d="M5.15625 17.3438C5.15625 17.3438 4.6875 16.7813 5.0625 16.0313C5.34375 15.375 6.5625 14.25 6.5625 14.25L5.34375 14.4375C5.34375 14.4375 3.84375 15.1875 3.65625 16.5938L5.15625 17.3438Z" fill="#A0E58C"/>
<path d="M4.21875 17.9997C4.21875 17.9997 4.125 18.4684 4.3125 19.0309H3.5625C3.5625 19.0309 3.5625 18.4684 3.84375 17.8122C3.9375 17.7184 4.21875 17.8122 4.21875 17.9997Z" fill="#71AF5D"/>
<path d="M7.87435 18.9375C7.87435 18.9375 10.4993 18.5625 11.7181 19.5C11.7181 19.5 12.0931 20.0625 11.7181 20.1562C11.4368 20.25 9.0931 19.0312 7.87435 19.3125C7.87435 19.3125 7.68685 19.0313 7.87435 18.9375ZM4.4056 17.4375C4.4056 17.4375 6.2806 17.625 7.0306 18.375C7.0306 18.375 7.12435 18.8438 6.93685 18.8438C6.74935 18.8438 5.24935 17.7187 4.4056 17.7187C4.4056 17.7187 4.2181 17.5312 4.4056 17.4375Z" fill="#E0F9D7"/>
<path d="M13.875 3.09278C13.875 3.09278 12.75 5.62403 9.375 5.34278C6 5.06153 3.75 5.53028 2.8125 6.84278C2.8125 6.84278 2.8125 1.40528 7.59375 0.65528C12.4688 -0.0947201 13.875 2.34278 13.875 3.09278Z" fill="#FFEFAB"/>
<path d="M4.3125 10.6875C4.3125 10.6875 5.25 12.4687 5.625 12.6562C6 12.8438 8.90625 12.8437 9.5625 12.5625C10.2188 12.2812 9.9375 10.5938 9.9375 10.5938L4.3125 10.6875Z" fill="#FFD097"/>
<path d="M8.15711 11.625C8.15711 11.625 7.59461 11.5312 7.21961 11.25C6.84461 10.9687 6.37586 11.0625 6.37586 11.0625C6.28211 11.0625 6.18836 10.9688 6.09461 10.875C6.00086 10.7813 5.81336 10.7813 5.71961 10.875C5.62586 10.9688 5.81336 11.25 5.81336 11.25V11.625C5.81336 11.8125 5.81336 12.0937 6.28211 12.1875C6.75086 12.2812 7.03211 12.1875 7.21961 12.0937L8.15711 11.625Z" fill="#B23D3D"/>
<path d="M19.0312 8.4375C19.0312 9.84375 17.9062 10.875 16.4063 10.875C15 10.7812 13.875 9.65625 13.7812 8.34375C13.7812 6.9375 14.9062 5.90625 16.3125 5.90625C17.9062 5.90625 19.0312 7.03125 19.0312 8.4375Z" fill="#E8A554"/>
<path d="M19.0312 9C19.0312 10.4062 17.9062 11.4375 16.4063 11.4375C15 11.3437 13.875 10.2187 13.7812 8.90625C13.7812 7.5 14.9062 6.46875 16.3125 6.46875C17.8125 6.46875 19.0312 7.59375 19.0312 9Z" fill="#E8A554"/>
<path d="M20.5312 13.9682C20.5312 16.312 18.6562 18.187 16.5 17.9995C14.25 17.9057 12.4688 15.937 12.4688 13.5932C12.4688 11.2495 14.25 9.37446 16.4062 9.46821C18.75 9.56196 20.5312 11.5307 20.5312 13.9682Z" fill="#E8A554"/>
<path d="M20.1562 13.7812C20.1562 15.9375 18.2813 17.625 16.125 17.4375C13.875 17.3438 12.1875 15.4688 12.0938 13.4062C12.0938 11.25 13.875 9.65625 16.0313 9.65625C18.375 9.75 20.1562 11.625 20.1562 13.7812Z" fill="#FFEFAB"/>
<path d="M18.5625 8.4375C18.5625 9.84375 17.4375 10.875 15.9375 10.875C14.5312 10.7812 13.4062 9.65625 13.4062 8.34375C13.4062 6.9375 14.5312 5.90625 15.9375 5.90625C17.3437 5.90625 18.5625 7.03125 18.5625 8.4375Z" fill="#FFEFAB"/>
<path d="M11.4375 14.1563C11.4375 14.1563 12.1875 16.5 10.4062 17.25C10.4062 17.25 14.8125 18 16.0312 17.3438C16.0312 17.3438 16.4062 14.9062 12.8437 13.5938L11.4375 14.1563Z" fill="#71AF5D"/>
<path d="M9.46875 8.0625C9.46875 8.15625 9.375 8.25 9.28125 8.25C9.1875 8.25 9.09375 8.15625 9.09375 8.0625C9.09375 7.96875 9.1875 7.875 9.28125 7.875C9.375 7.875 9.46875 7.96875 9.46875 8.0625Z" fill="white"/>
<path d="M9.375 17.8119C9.375 17.8119 12.9375 18.1869 12.4688 14.6244C12.4688 14.6244 13.5 14.0619 14.25 14.8119C15.0938 15.5619 16.3125 16.3119 15.8437 18.4681C15.8437 18.5619 9.84375 19.0306 9.375 17.8119Z" fill="#A0E58C"/>
<path d="M12.5625 19.6875C12.5625 19.6875 12.75 20.4375 12.5625 21.1875L13.6875 21.2813C13.6875 21.2813 13.4062 19.7813 12.375 18.375L12.5625 19.6875Z" fill="#71AF5D"/>
<path d="M13.5938 8.43838C13.5938 8.43838 14.4375 7.96963 14.8125 8.34463C15.4688 9.00088 14.9063 10.0321 13.6875 10.1259L13.5938 8.43838Z" fill="#E8BD89"/>
<path d="M14.1561 10.0312C14.1561 10.0312 13.9686 11.7188 15.0936 12.4688C15.0936 12.4688 14.5311 12.5625 14.0623 12C13.5936 11.4375 13.6873 10.125 13.6873 10.125L14.1561 10.0312Z" fill="#E8A554"/>
<path d="M5.53125 1.96834C5.53125 1.96834 8.4375 0.374594 10.875 1.49959C10.875 1.49959 11.625 2.53084 9.75 2.71834C7.96875 2.90584 7.96875 1.78084 5.53125 1.96834ZM17.7188 11.4371C17.7188 11.4371 18.9375 13.7808 16.9688 15.2808C16.6875 15.4683 16.6875 15.8433 16.7812 16.1246C17.0625 16.5933 17.625 16.5933 17.9063 16.3121C18.8438 15.2808 19.9688 13.3121 17.7188 11.4371Z" fill="white"/>
<path d="M16.4062 6.65625C16.4062 6.65625 17.5312 8.0625 16.7812 9.28125C16.7812 9.28125 16.7812 9.84375 17.1562 9.84375C17.5312 9.84375 18 9.65625 17.9063 9.1875C17.8125 8.71875 17.9062 6.9375 16.4062 6.65625Z" fill="white"/>
<path d="M24.6568 15.6555C26.3443 16.218 27.8443 17.718 28.4068 19.7805C28.9693 21.9367 28.2193 24.468 26.6255 25.6867C25.5943 26.4367 24.3755 26.718 23.1568 26.718C20.3443 26.718 17.438 25.6867 14.6255 24.6555C13.688 24.2805 12.7505 23.9992 11.9068 23.343C11.063 22.6867 10.4068 21.6555 10.2193 20.5305C10.0318 18.843 10.9693 17.2492 12.188 16.4055C14.2505 14.9992 16.4068 14.343 18.6568 14.4367C20.5318 14.343 22.8755 14.9992 24.6568 15.6555Z" fill="#3B0909"/>
<path d="M25.1255 17.0617C26.9067 17.6242 28.5942 19.1242 29.063 21.1867C29.6255 23.343 28.8755 25.8742 27.188 27.093C26.1567 27.843 24.8442 28.1242 23.5317 28.1242C20.5317 28.1242 17.5317 27.093 14.438 26.0617C13.4067 25.6867 12.3755 25.4055 11.5317 24.7492C10.5942 24.093 9.93795 23.0617 9.75045 21.9367C9.56295 20.2492 10.5005 18.6555 11.813 17.8117C14.063 16.4055 16.313 15.7492 18.6567 15.843C20.7192 15.7492 23.1567 16.4055 25.1255 17.0617Z" fill="#3B0909"/>
<path d="M24.6568 16.3125C26.3443 16.875 27.8443 18.375 28.4068 20.4375C28.9693 22.5937 28.2193 25.125 26.6255 26.3437C25.5943 27.0937 24.3755 27.375 23.1568 27.375C20.3443 27.375 17.438 26.3437 14.6255 25.3125C13.688 24.9375 12.7505 24.6562 11.9068 24C11.063 23.3437 10.4068 22.3125 10.2193 21.1875C10.0318 19.5 10.9693 17.9062 12.188 17.0625C14.2505 15.6562 16.4068 15 18.6568 15.0937C20.5318 14.9062 22.8755 15.6562 24.6568 16.3125Z" fill="#B23D3D"/>
<path d="M16.7812 25.875L18.8438 18.9375L20.0625 17.8125L21 18.0937L18.5625 26.3438C18.6562 26.4375 17.25 26.25 16.7812 25.875Z" fill="#C68383"/>
<path opacity="0.1" d="M25.4993 23.4237C25.9625 21.9955 25.3 20.501 24.0195 20.0857C22.739 19.6704 21.3254 20.4915 20.8622 21.9198C20.399 23.348 21.0615 24.8425 22.342 25.2578C23.6225 25.6731 25.0361 24.852 25.4993 23.4237Z" fill="white"/>
<path d="M26.3443 16.6875C26.3443 16.6875 29.4381 19.125 28.4068 23.1563L29.2506 22.9688C29.2506 22.9688 29.6256 18.75 26.3443 16.6875ZM11.9068 17.0625C11.9068 17.0625 9.84433 19.4063 10.5943 22.6875L9.84432 22.3125C9.84432 22.3125 9.56308 19.0313 11.3443 17.1563L11.9068 17.0625ZM11.8131 24.6563L12.4693 24.2813L17.8131 26.4375L17.3443 26.9063C17.4381 26.8125 12.5631 25.2188 11.8131 24.6563Z" fill="#3B0909"/>
<path d="M24.2812 16.0309C24.1875 15.9372 23.3437 17.0622 23.3437 17.0622C23.3437 17.0622 26.25 18.2809 26.7187 19.3122C27.1875 20.3434 26.25 25.1247 25.7812 25.7809C25.3125 26.3434 23.9062 27.2809 23.1562 27.3747C23.1562 27.3747 27.0937 27.8434 28.0312 24.7497C28.9687 21.6559 28.7812 18.0934 24.2812 16.0309Z" fill="#932F2F"/>
<path d="M27.1873 9.84375C27.1873 14.4375 23.6248 18.0938 19.0311 18C14.4373 17.9063 10.7811 14.25 10.8748 9.75C10.8748 5.15625 14.6248 1.5 19.1248 1.5C23.7186 1.59375 27.2811 5.34375 27.1873 9.84375Z" fill="#4A3531"/>
<path d="M26.9998 9.28125C26.9998 13.875 23.4373 17.5313 18.8435 17.4375C14.3435 17.4375 10.5935 13.6875 10.6873 9.1875C10.6873 4.59375 14.4373 0.9375 18.9373 0.9375C23.4373 1.03125 26.9998 4.6875 26.9998 9.28125Z" fill="#7A594F"/>
<path d="M27.0031 8.9893C27.0189 4.64006 23.5899 1.10183 19.3442 1.08645C15.0985 1.07107 11.6439 4.58435 11.6281 8.93359C11.6124 13.2828 15.0414 16.8211 19.2871 16.8364C23.5328 16.8518 26.9874 13.3385 27.0031 8.9893Z" fill="#7A594F"/>
<path d="M23.2327 10.4503C23.2447 7.13662 20.6521 4.4409 17.4419 4.42926C14.2318 4.41763 11.6197 7.09449 11.6077 10.4082C11.5957 13.7219 14.1883 16.4176 17.3984 16.4293C20.6086 16.4409 23.2207 13.764 23.2327 10.4503Z" fill="#997567"/>
<path d="M17.7187 14.4375C17.7187 14.4375 17.0625 14.3437 16.5938 14.0625C16.125 13.7812 15.6563 13.875 15.5625 13.875C15.4688 13.875 15.375 13.7812 15.1875 13.6875C15 13.5938 14.8125 13.5938 14.8125 13.6875C14.8125 13.7812 15 14.0625 15 14.0625V14.4375C15 14.5312 15 14.9062 15.4687 15C15.9375 15.0937 16.3125 15 16.5 14.9062C16.7813 14.9062 17.7187 14.4375 17.7187 14.4375Z" fill="#362826"/>
<path d="M24.75 11.4375C24.75 11.4375 25.3125 16.125 19.5 16.9688C19.5 16.9688 23.8125 17.4375 26.4375 12.2813C26.4375 12.2813 27 11.3438 26.5312 10.125C26.5312 10.125 25.5 11.3437 24.75 11.4375Z" fill="#7A594F"/>
<path d="M17.9061 7.96825C17.9061 7.96825 18.2811 7.40575 18.8436 7.40575C19.4061 7.40575 21.2811 7.312 21.5623 7.78075C21.8436 8.15575 21.1873 8.437 21.1873 8.437L17.9061 7.96825ZM15.1873 7.4995C15.1873 7.4995 15.2811 6.7495 14.9061 6.65575C14.5311 6.562 13.0311 5.90575 12.5623 6.28075C12.0936 6.65575 12.1873 7.1245 12.1873 7.1245L15.1873 7.4995ZM25.2186 9.187C25.2186 9.187 26.4373 8.6245 26.8123 9.09325C27.2811 9.46825 27.7498 11.9058 25.7811 12.2808C23.8123 12.6558 25.2186 9.187 25.2186 9.187Z" fill="#362826"/>
<path d="M25.2185 9.09463C25.2185 9.09463 26.2498 8.62588 26.6248 9.00088C26.9998 9.37588 27.3748 11.3446 25.6873 11.7196C23.9998 12.0946 25.2185 9.09463 25.2185 9.09463Z" fill="#7A594F"/>
<path d="M20.5698 10.8941C20.5717 10.3763 20.2374 9.95539 19.8232 9.95389C19.409 9.95239 19.0717 10.3709 19.0698 10.8887C19.0679 11.4064 19.4022 11.8274 19.8164 11.8289C20.2306 11.8304 20.5679 11.4119 20.5698 10.8941Z" fill="#362826"/>
<path d="M14.3296 9.56598C14.3314 9.04822 13.9972 8.62727 13.583 8.62576C13.1688 8.62426 12.8314 9.04278 12.8296 9.56055C12.8277 10.0783 13.162 10.4993 13.5762 10.5008C13.9904 10.5023 14.3277 10.0837 14.3296 9.56598Z" fill="#362826"/>
<path d="M13.8448 9.16933C13.8453 9.014 13.7618 8.88777 13.6583 8.8874C13.5547 8.88702 13.4703 9.01264 13.4698 9.16797C13.4692 9.3233 13.5527 9.44952 13.6562 9.4499C13.7598 9.45027 13.8442 9.32466 13.8448 9.16933Z" fill="white"/>
<path d="M20.087 10.5463C20.0875 10.3909 20.004 10.2647 19.9005 10.2644C19.7969 10.264 19.7125 10.3896 19.712 10.5449C19.7114 10.7003 19.7949 10.8265 19.8984 10.8269C20.002 10.8272 20.0864 10.7016 20.087 10.5463Z" fill="white"/>
<path d="M13.2188 3.1884C13.2188 3.1884 17.9062 1.78215 22.9688 4.50091C22.9688 4.50091 24.2812 6.65716 24.75 10.0322L27.0937 8.71966C27.0937 8.71966 27.2812 3.09465 21.6562 1.3134C16.0312 -0.467845 13.2188 3.1884 13.2188 3.1884Z" fill="#362826"/>
<path d="M24.375 9L25.9688 8.34375L25.5937 7.59375L23.9062 8.15625L24.375 9ZM23.8125 7.3125L25.5 6.65625L25.125 5.90625L23.4375 6.46875L23.8125 7.3125Z" fill="#7A594F"/>
<path d="M13.125 12.9376C13.125 12.9376 16.4063 12.8438 19.3125 14.5313L19.5937 13.8751C19.5937 13.8751 16.875 12.2813 13.2188 12.5626L13.125 12.9376Z" fill="#4A3531"/>
<path d="M18.4688 13.875L17.4375 17.7187H18.6562L19.5 13.6875L18.4688 13.875ZM13.7812 12.75L13.5937 15.8437L12.75 15L12.9375 12.4688L13.7812 12.75Z" fill="#4A3531"/>
<path d="M18.6562 13.2188C18.6562 13.2188 19.5 13.7812 19.3125 15.0938L19.9687 14.25L20.0625 12.6562L18.6562 13.2188ZM12.75 13.3125C12.75 13.3125 13.125 12.4687 13.875 12.4687L12.9375 12.2812L12.75 13.3125Z" fill="#997567"/>
<path d="M13.2194 14.9062C13.2194 14.9062 14.0631 15.9375 15.0006 16.2187C15.9381 16.5 18.3756 16.3125 18.3756 16.3125C18.3756 16.3125 18.7506 17.4375 18.5631 17.5313C18.3756 17.625 15.0006 18.75 15.0006 18.75L12.9381 15.1875C12.6569 14.625 13.2194 14.9062 13.2194 14.9062Z" fill="#4A3531"/>
<path d="M15 18.75C15 18.75 18 18.4688 19.5 17.8125L19.2187 14.5312L18.1875 17.1562L15.75 17.8125L15 18.75Z" fill="#4A3531"/>
<path d="M13.5938 22.9688C13.5938 22.9688 14.8125 23.3437 15.1875 23.25C15.6563 23.1562 15.8437 23.3437 15.8437 23.3437L17.1562 24.0938H15.4688L15 25.0313V23.625L13.5938 22.9688Z" fill="#7A594F"/>
<path d="M9.65625 13.7812L11.3438 13.4062L11.1562 14.25L9.65625 13.7812Z" fill="#E8A554"/>
<path d="M3.5625 15.8437L5.71875 13.3125L6.09375 13.4063L3.09375 17.5313L3.5625 15.8437Z" fill="#2E561D"/>
<path d="M16.4062 27L16.0312 27.4688L17.9062 28.7813L28.3125 18.375L26.625 16.2188L16.4062 27Z" fill="#9A4C18"/>
<path d="M28.5929 21.2813C28.2179 25.4063 24.3742 28.9687 20.1554 28.875C15.9367 28.875 13.2179 25.3125 14.0617 21.2813C14.8117 17.5313 18.4679 14.5312 22.2179 14.5312C25.9679 14.5312 28.8742 17.4375 28.5929 21.2813Z" fill="#9A4C18"/>
<path d="M29.6238 22.5937C29.2488 26.5312 25.5925 29.9062 21.3738 29.8125C17.2488 29.8125 14.6238 26.4375 15.3738 22.5937C16.1238 18.9375 19.6863 16.125 23.3425 16.125C27.0925 16.125 29.905 18.9375 29.6238 22.5937Z" fill="#9A4C18"/>
<path d="M17.625 27.2812L19.4063 28.2188L27.9375 19.2187L26.5312 17.3438L17.625 27.2812Z" fill="#F49937"/>
<path d="M28.7803 22.6875C28.4991 26.0625 25.3116 28.875 21.8428 28.875C18.3741 28.875 16.2178 26.0625 16.7803 22.6875C17.3428 19.5938 20.3428 17.0625 23.5303 17.0625C26.7178 17.0625 29.0616 19.5 28.7803 22.6875Z" fill="#F49937"/>
<path d="M27.6553 21.2817C27.2803 24.8442 23.999 27.938 20.249 27.938C16.5928 27.938 14.1553 24.8442 14.9053 21.3755C15.5615 18.0005 18.749 15.4692 22.0303 15.3755C25.4053 15.2817 27.9365 17.9067 27.6553 21.2817Z" fill="#FFEDC0"/>
<path d="M27.1866 21.5625C26.9053 24.9375 23.7178 27.75 20.2491 27.75C16.7803 27.75 14.6241 24.9375 15.1866 21.5625C15.7491 18.4688 18.7491 15.9375 21.9366 15.9375C25.1241 15.9375 27.4678 18.375 27.1866 21.5625Z" fill="#FFD766"/>
<path d="M25.8757 21.562C25.5944 24.187 23.1569 26.3432 20.5319 26.3432C17.9069 26.3432 16.1257 24.187 16.5944 21.6557C17.0632 19.2182 19.4069 17.2495 21.8444 17.2495C24.2819 17.1557 26.0632 19.0307 25.8757 21.562Z" fill="#FFEDC0"/>
<path d="M25.8757 20.9062C25.5944 23.4375 23.2507 25.5937 20.5319 25.5937C17.9069 25.5937 16.1257 23.4375 16.5944 20.9062C17.0632 18.4687 19.3132 16.5938 21.8444 16.5C24.3757 16.5 26.1569 18.4687 25.8757 20.9062Z" fill="#F49937"/>
<path d="M25.1248 21.5625C24.8436 23.7188 22.8748 25.5938 20.6248 25.5938C18.3748 25.5938 16.9686 23.8125 17.3436 21.6563C17.7186 19.5938 19.6873 17.9063 21.7498 17.9063C23.8123 17.8125 25.3123 19.4063 25.1248 21.5625Z" fill="#FFD766"/>
<path d="M22.3125 17.4375L22.875 19.7812L25.5 20.4375L23.0625 22.0312L22.9688 24.75L20.8125 23.25L18 24.1875L19.2188 21.6562L17.8125 19.5937L20.5312 19.5L22.3125 17.4375Z" fill="#F49937"/>
</g>
<defs>
<clipPath id="clip0_52_78483">
<rect width="30" height="30" fill="white"/>
</clipPath>
</defs>
</svg>
