<svg width="30" height="30" viewBox="0 0 30 30" fill="none" xmlns="http://www.w3.org/2000/svg">
<g clip-path="url(#clip0_52_45418)">
<path d="M9.65625 4.875L13.875 4.78125V5.90625L9.46875 6.46875L9.65625 4.875Z" fill="#6D9FA8"/>
<path d="M26.4375 18.3741C26.5313 14.8116 24.2813 11.9991 21.2813 11.7178C20.9063 8.90534 18.75 6.93659 16.2188 7.21784C15.4688 7.31159 14.8125 7.59284 14.1563 7.96784C13.2188 5.90534 11.3438 4.68659 9.18752 4.96784C6.18752 5.34284 3.65627 8.71784 3.56252 12.3741V13.1241C1.68752 13.8741 0.28127 16.1241 0.0937703 18.7491C2.03326e-05 21.7491 1.59377 24.2803 3.93752 24.5616H4.50002L19.6875 25.2178H20.25C23.625 25.2178 26.3438 22.1241 26.4375 18.3741Z" fill="#6D9FA8"/>
<path d="M29.9063 18.4678C30 14.9053 27.75 12.1866 24.8438 11.9053C24.4688 9.09284 22.3125 7.12409 19.7813 7.40534C19.0313 7.49909 18.375 7.78034 17.8125 8.15534C16.875 6.09284 15 4.87409 12.8438 5.15534C9.84377 5.53034 7.40627 8.81159 7.21877 12.5616V13.3116C5.34377 14.0616 3.93752 16.3116 3.84377 18.9366C3.75002 21.9366 5.34377 24.4678 7.59377 24.7491H8.06252L23.1563 25.3116H23.7188C27 25.2178 29.8125 22.2178 29.9063 18.4678Z" fill="#6D9FA8"/>
<path d="M30.0003 17.5304C30.094 14.1554 27.9378 11.5304 25.1253 11.2492C24.7503 8.53043 22.6878 6.65543 20.344 6.93668C19.6878 7.03043 19.0315 7.21793 18.3753 7.59293C17.4378 5.62418 15.6565 4.40543 13.6878 4.68668C10.8753 5.06168 8.5315 8.24918 8.344 11.7179V12.3742C6.56275 13.2179 5.25025 15.3742 5.1565 17.8117C5.06275 20.7179 6.56275 23.1554 8.719 23.4367H9.094L23.5315 24.0929H24.094C27.2815 23.9992 29.9065 21.0929 30.0003 17.5304Z" fill="#6D9FA8"/>
<path d="M9.5625 5.8125L13.7812 5.71875V6.84375L9.375 7.40625L9.5625 5.8125Z" fill="#9BC3CC"/>
<path d="M16.5 7.03125L20.5312 6.9375L20.625 8.0625L16.3125 8.625L16.5 7.03125Z" fill="#6D9FA8"/>
<path d="M15.5625 7.96875L19.5938 7.78125L19.6875 9L15.375 9.46875L15.5625 7.96875Z" fill="#9BC3CC"/>
<path d="M28.687 17.9061C28.7808 14.6249 26.7183 12.1874 23.9995 11.9061C23.6245 9.28115 21.7495 7.59365 19.4058 7.78115C18.7495 7.8749 18.0933 8.0624 17.5308 8.4374C16.687 6.5624 14.9995 5.4374 13.0308 5.71865C10.312 6.09365 8.06204 9.09365 7.96829 12.4686V13.1249C6.28079 13.7811 4.96829 15.8436 4.87454 18.2811C4.78079 20.9999 6.18704 23.3437 8.24954 23.5312H8.62454L22.4058 24.0937H22.9683C26.062 24.0937 28.5933 21.3749 28.687 17.9061Z" fill="#9BC3CC"/>
<path d="M25.4065 18.0936C25.5003 14.8124 23.4378 12.2811 20.719 11.9999C20.344 9.3749 18.3753 7.59365 16.0315 7.8749C15.3753 7.96865 14.719 8.15615 14.1565 8.53115C13.3128 6.65615 11.5315 5.53115 9.56276 5.8124C6.75026 6.1874 4.50026 9.1874 4.40651 12.5624V13.2186C2.71901 13.8749 1.40651 16.0311 1.31276 18.3749C1.21901 21.0936 2.71901 23.4374 4.78151 23.7186H5.15651L19.219 24.3749H19.7815C22.7815 24.3749 25.3128 21.5624 25.4065 18.0936Z" fill="#B9DAE4"/>
<path d="M23.6248 18.2815C23.7186 15.469 21.8436 13.3128 19.4998 13.0315C19.2186 10.7815 17.5311 9.28153 15.4686 9.46903C14.9061 9.56278 14.3436 9.75028 13.8748 10.0315C13.1248 8.43778 11.6248 7.50028 9.93734 7.68778C7.59359 8.06278 5.62484 10.594 5.53109 13.5003V14.0628C4.03109 14.6253 2.99984 16.4065 2.90609 18.469C2.81234 20.8128 4.12484 22.7815 5.90609 23.0628H6.28109L18.2811 23.6253H18.8436C21.3748 23.6253 23.5311 21.2815 23.6248 18.2815Z" fill="white"/>
<path d="M23.6248 18.2815C23.7186 15.469 21.8436 13.3128 19.4998 13.0315C19.2186 10.7815 17.5311 9.28153 15.4686 9.46903C14.9061 9.56278 14.3436 9.75028 13.8748 10.0315C13.1248 8.43778 11.6248 7.50028 9.93734 7.68778C7.59359 8.06278 5.62484 10.594 5.53109 13.5003V14.0628C4.03109 14.6253 2.99984 16.4065 2.90609 18.469C2.81234 20.8128 4.12484 22.7815 5.90609 23.0628H6.28109L18.2811 23.6253H18.8436C21.3748 23.6253 23.5311 21.2815 23.6248 18.2815Z" fill="white"/>
<path d="M7.59357 23.1563C6.93732 23.1563 6.37482 22.5 6.37482 21.8437L6.46857 18.0937H5.71857C5.34357 18.0937 4.96857 17.9063 4.78107 17.5313C4.59357 17.1563 4.59357 16.5937 4.87482 16.2187L8.43732 10.5938C8.62482 10.2188 8.99982 10.0312 9.37482 10.0312C9.74982 10.0312 10.0311 10.2187 10.3123 10.5L14.1561 16.0313C14.4373 16.4063 14.4373 16.9688 14.2498 17.3438C14.0623 17.7188 13.5936 18 13.2186 18H12.2811L12.1873 21.9375C12.1873 22.6875 11.6248 23.25 10.9686 23.25L7.59357 23.1563Z" fill="#295163"/>
<path d="M9.46903 10.6875C9.65653 10.6875 9.75028 10.7813 9.93778 10.875L13.7815 16.4062C14.0628 16.875 13.7815 17.5313 13.3128 17.5313H11.8128L11.719 22.0312C11.719 22.5 11.4378 22.7812 11.0628 22.7812L7.78153 22.6875C7.40653 22.6875 7.12528 22.3125 7.12528 21.9375L7.21903 17.625H5.81278C5.34403 17.625 5.15653 17.0625 5.43778 16.5938L9.09403 11.0625C9.09403 10.7813 9.28153 10.6875 9.46903 10.6875ZM9.46903 9.5625C8.90653 9.5625 8.34403 9.84375 8.06278 10.4063L4.40653 15.9375C4.03153 16.5 4.03153 17.25 4.31278 17.8125C4.59403 18.375 5.15653 18.6562 5.71903 18.6562H5.90653L5.81278 21.8437C5.81278 22.875 6.56278 23.7188 7.59403 23.8125L10.8753 23.9062H10.969C12.0003 23.9062 12.7503 23.0625 12.7503 22.0312V18.6562H13.1253C13.7815 18.6562 14.344 18.2812 14.719 17.7188C15.0003 17.0625 15.0003 16.4062 14.6253 15.75L10.7815 10.2187C10.5003 9.75 9.93778 9.5625 9.46903 9.5625Z" fill="#295163"/>
<path d="M6.84357 22.5938C6.18732 22.5938 5.62482 21.9375 5.62482 21.2813L5.71857 17.5313H4.96857C4.59357 17.5313 4.21857 17.3438 4.03107 16.9688C3.84357 16.5938 3.84357 16.0313 4.12482 15.6563L7.78107 10.125C7.96857 9.75 8.34357 9.5625 8.71857 9.5625C9.09357 9.5625 9.37482 9.75 9.65607 10.0312L13.4998 15.5625C13.7811 15.9375 13.7811 16.5 13.5936 16.875C13.4061 17.25 12.9373 17.5313 12.5623 17.5313H11.6248L11.5311 21.4688C11.5311 22.2188 10.9686 22.7812 10.3123 22.7812L6.84357 22.5938Z" fill="#67A567"/>
<path d="M8.71903 10.0312C8.90653 10.0312 9.00028 10.125 9.18778 10.2187L13.0315 15.75C13.3128 16.2187 13.0315 16.875 12.5628 16.875H11.0628L10.969 21.375C10.969 21.8437 10.6878 22.125 10.3128 22.125L7.03153 22.0312C6.65653 22.0312 6.37528 21.6563 6.37528 21.2813V16.875H4.96903C4.50028 16.875 4.31278 16.3125 4.59403 15.8437L8.25028 10.3125C8.34403 10.125 8.53153 10.0312 8.71903 10.0312ZM8.71903 8.90625C8.15653 8.90625 7.59403 9.1875 7.31278 9.75L3.65653 15.2812C3.28153 15.8437 3.28153 16.5937 3.56278 17.1562C3.84403 17.7187 4.40653 18 4.96903 18H5.15653L5.06278 21.1875C5.06278 22.2188 5.81278 23.0625 6.84403 23.1563L10.1253 23.25H10.219C11.2503 23.25 12.0003 22.4062 12.0003 21.375V18H12.3753C13.0315 18 13.594 17.625 13.969 17.0625C14.2503 16.4063 14.2503 15.75 13.8753 15.0938L10.0315 9.5625C9.75028 9.1875 9.28153 8.90625 8.71903 8.90625Z" fill="#295163"/>
<path opacity="0.47" d="M11.7188 15.75L9 11.7188L5.90625 15.6563H7.875V21H9.75L9.65625 15.6563L11.7188 15.75Z" fill="#97DD97"/>
<path d="M19.3122 24.6562C18.7497 24.6562 18.2809 24.2812 18.0934 23.7187L13.4059 11.7188C13.2184 11.3438 13.3122 10.7813 13.4997 10.4063C13.7809 10.0313 14.1559 9.75 14.5309 9.75L16.3122 9.65625C16.8747 9.65625 17.3434 9.9375 17.5309 10.4063L20.4372 17.1562L23.5309 10.0312C23.7184 9.5625 24.2809 9.1875 24.8434 9.09375L26.9997 8.90625H27.0934C27.5622 8.90625 28.0309 9.1875 28.3122 9.5625C28.5934 9.9375 28.5934 10.5 28.4059 10.875L22.8747 23.8125C22.6872 24.2812 22.1247 24.6562 21.5622 24.6562H19.3122Z" fill="#295163"/>
<path d="M27.1876 9.46875C27.8439 9.46875 28.2189 10.0312 27.9376 10.6875L22.4064 23.625C22.3126 23.9063 22.0314 24.0938 21.6564 24.0938L19.4064 24C19.1251 24 18.7501 23.8125 18.6564 23.4375L13.9689 11.4375C13.7814 10.9688 14.1564 10.3125 14.6251 10.3125L16.4064 10.2188H16.5001C16.7814 10.2188 17.0626 10.4062 17.1564 10.6875L20.5314 18.5625L24.1876 10.2188C24.2814 9.9375 24.6564 9.65625 24.9376 9.65625L27.1876 9.46875C27.0939 9.46875 27.0939 9.46875 27.1876 9.46875ZM27.1876 8.34375H27.0001L24.8439 8.53125C24.0939 8.625 23.3439 9.09375 23.0626 9.75L20.4376 15.75L18.0939 10.2188C17.8126 9.5625 17.1564 9.09375 16.4064 9.09375H16.3126L14.5314 9.1875C13.9689 9.1875 13.4064 9.5625 13.0314 10.125C12.6564 10.6875 12.6564 11.3438 12.8439 11.9063L17.5314 23.9062C17.8126 24.6562 18.4689 25.125 19.3126 25.125L21.5626 25.3125H21.6564C22.4064 25.3125 23.1564 24.8438 23.4376 24.0938L28.9689 11.1562C29.2501 10.5 29.1564 9.84375 28.7814 9.28125C28.4064 8.71875 27.8439 8.34375 27.1876 8.34375Z" fill="#295163"/>
<path d="M18.1872 24C17.6247 24 17.1559 23.625 16.9684 23.0625L12.2809 11.0625C12.0934 10.6875 12.1872 10.125 12.3747 9.75C12.6559 9.375 13.0309 9.09375 13.4059 9.09375L15.1872 9C15.7497 9 16.2184 9.28125 16.4059 9.75L19.3122 16.5L22.4997 9.375C22.6872 8.90625 23.2497 8.53125 23.8122 8.4375L25.9684 8.25H26.0622C26.5309 8.25 26.9997 8.53125 27.2809 8.90625C27.5622 9.28125 27.5622 9.84375 27.3747 10.2187L21.8434 23.1563C21.6559 23.625 21.0934 24 20.5309 24H18.1872Z" fill="#B9DAE4"/>
<path d="M26.0626 8.90625C26.7189 8.90625 27.0939 9.46875 26.8126 10.125L21.2814 23.0625C21.1876 23.3437 20.9064 23.5312 20.5314 23.5312L18.2814 23.4375C18.0001 23.4375 17.6251 23.25 17.5314 22.875L12.8439 10.875C12.6564 10.4063 13.0314 9.75 13.5001 9.75L15.2814 9.65625H15.3751C15.6564 9.65625 15.9376 9.84375 16.0314 10.125L19.4064 18L23.0626 9.65625C23.1564 9.375 23.5314 9.09375 23.8126 9.09375L26.0626 8.90625ZM26.0626 7.78125H25.8751L23.7189 7.96875C22.9689 8.0625 22.2189 8.53125 21.9376 9.1875L19.3126 15.1875L16.9689 9.65625C16.6876 9 16.0314 8.53125 15.2814 8.53125H15.1876L13.4064 8.625C12.8439 8.625 12.2814 9 11.9064 9.5625C11.5314 10.125 11.5314 10.7813 11.7189 11.3438L16.4064 23.3437C16.6876 24.0937 17.3439 24.5625 18.1876 24.5625L20.4376 24.6562H20.5314C21.2814 24.6562 22.0314 24.1875 22.3126 23.4375L27.8439 10.5C28.1251 9.84375 28.0314 9.1875 27.6564 8.625C27.3751 8.0625 26.7189 7.78125 26.0626 7.78125Z" fill="#295163"/>
<path d="M25.6876 9.9374L20.5314 21.6561C20.4376 21.9374 20.1564 22.1249 19.8751 22.0311L18.0001 21.9374C17.7189 21.9374 17.4376 21.7499 17.3439 21.4686L13.1251 10.8749C12.9376 10.4061 13.2189 9.9374 13.6876 9.9374L15.1876 9.84365C15.4689 9.84365 15.6564 9.9374 15.7501 10.2186L18.8439 17.4374L22.4064 9.65615C22.5001 9.3749 22.7814 9.1874 23.0626 9.1874L24.8439 9.09365C25.5001 8.90615 25.8751 9.46865 25.6876 9.9374Z" fill="white"/>
</g>
<defs>
<clipPath id="clip0_52_45418">
<rect width="30" height="30" fill="white"/>
</clipPath>
</defs>
</svg>
