<svg width="30" height="30" viewBox="0 0 30 30" fill="none" xmlns="http://www.w3.org/2000/svg">
<g clip-path="url(#clip0_52_52086)">
<path d="M21.1874 9.375L25.3124 9.65625C25.3124 9.65625 27.1874 11.9062 25.2187 12.9375C23.2499 13.9688 20.2499 13.5 20.2499 13.5L21.1874 9.375ZM6.18745 9.9375L4.68745 10.0312C3.6562 10.0312 2.81245 10.7812 2.5312 11.7187C2.3437 12.6562 2.3437 13.6875 3.56245 14.25C5.99995 15.375 7.0312 13.5937 7.0312 13.5937L6.18745 9.9375Z" fill="#363232"/>
<path d="M14.2502 23.0625C13.594 23.0625 12.9377 22.9687 12.2815 22.7812L10.6877 22.4062C6.56273 21.4687 3.65648 18.5625 3.93773 15.375L4.21898 10.875L5.25023 10.9687L4.96898 15.4688C4.78148 18 7.31273 20.5313 10.8752 21.2813L12.3752 21.6562C15.469 22.3125 18.844 21.75 20.9065 20.1562C22.1252 19.2188 22.7815 18.0937 22.8752 16.7812L23.4377 10.5938L24.469 10.7812L23.9065 16.9688C23.8127 18.5625 22.969 20.0625 21.5627 21.0938C19.8752 22.5 17.0627 23.25 14.2502 23.0625Z" fill="#363232"/>
<path d="M3.28154 12.75C3.37529 12 3.84404 11.4375 4.40654 11.3437L24.9378 9.9375C25.4065 9.9375 25.7815 10.5 25.7815 11.1562C25.6878 11.8125 25.3128 12.375 24.844 12.375L4.21904 14.0625C3.65654 14.25 3.18779 13.5937 3.28154 12.75Z" fill="#363232"/>
<path d="M14.0623 24.6562L11.9998 24.375L10.406 24C5.99978 23.0625 3.09353 19.9688 3.28103 16.6875L3.65603 12H4.68728L4.40603 16.6875C4.21853 19.3125 6.84353 21.9375 10.5935 22.7812L12.1873 23.1563C15.4685 23.9063 19.031 23.25 21.1873 21.6563C22.406 20.7188 23.156 19.5 23.2498 18.0937L23.906 11.625L25.031 11.8125L24.3748 18.2813C24.281 19.9688 23.4373 21.4688 21.9373 22.5938C19.8748 24.0938 17.0623 24.8438 14.0623 24.6562Z" fill="#363232"/>
<path d="M11.4375 22.9688L11.0625 26.25C11.0625 26.25 12.5625 27.2813 16.125 26.9063L16.5938 23.25L11.4375 22.9688Z" fill="#363232"/>
<path d="M19.7815 27.6563C20.5315 29.5313 16.7815 30.4688 12.7503 29.7188C9.56278 29.1563 7.59403 27.75 7.68778 26.625C7.78153 25.5937 9.65653 24.8438 12.2815 24.8438C15.469 24.8438 19.1253 25.9688 19.7815 27.6563Z" fill="#363232"/>
<path d="M19.2192 27.4692C19.8754 28.8755 16.5942 29.438 12.8442 28.7817C9.93793 28.313 8.06293 27.2817 8.15668 26.438C8.25043 25.688 9.93793 25.1255 12.2817 25.2192C15.2817 25.313 18.6567 26.2505 19.2192 27.4692Z" fill="#665A9E"/>
<path d="M17.4377 27C17.9064 27.9375 15.5627 28.4062 12.8439 27.9375C10.7814 27.5625 9.56266 26.8125 9.65641 26.25C9.75016 25.6875 10.8752 25.4062 12.5627 25.4062C14.6252 25.5 16.9689 26.1562 17.4377 27Z" fill="#9685A6"/>
<path d="M11.9062 23.0625L11.5312 26.3438C11.5312 26.3438 12.6563 27.375 15.5625 26.8125L15.9375 23.1563L11.9062 23.0625Z" fill="#665A9E"/>
<path d="M15.75 23.5313L15.375 27C15.375 27 15.6562 27.1875 16.3125 26.4375L16.6875 23.25L15.75 23.5313Z" fill="#363232"/>
<path d="M12.4688 23.0625L12.1875 25.7812C12.1875 25.7812 12.375 26.3438 13.5 26.3438L13.7812 23.1563L12.4688 23.0625Z" fill="#9685A6"/>
<path d="M14.1563 23.9062C13.5001 23.9062 12.8438 23.8125 12.1876 23.625L10.5938 23.25C6.4688 22.3125 3.6563 19.2188 3.8438 15.9375L4.2188 11.25L5.25005 11.3438L4.9688 16.0312C4.7813 18.6562 7.31255 21.2812 10.8751 22.125L12.3751 22.5C15.4688 23.1562 18.8438 22.5937 20.9063 20.9062C22.1251 19.9687 22.7813 18.75 22.8751 17.3437L23.5313 10.875L24.1876 10.9687L23.6251 17.4375C23.5313 19.125 23.0626 20.7187 21.6563 21.8437C19.6876 23.3437 16.9688 24.0938 14.1563 23.9062Z" fill="url(#paint0_linear_52_52086)"/>
<path d="M3.00029 12.375C3.09404 11.8125 3.56279 11.4375 4.12529 11.4375L24.5628 11.0625C25.0315 11.0625 25.5003 11.4375 25.4065 12C25.4065 12.4688 24.9378 12.8437 24.469 12.8437L3.93779 13.4062C3.37529 13.4062 2.90654 12.9375 3.00029 12.375Z" fill="#665A9E"/>
<path d="M3.09404 11.25C3.18779 10.6875 3.65654 10.3125 4.21904 10.3125L24.6565 9.9375C25.1253 9.9375 25.594 10.3125 25.5003 10.875C25.5003 11.3438 25.0315 11.7187 24.5628 11.7187L4.03154 12.2812C3.46904 12.2812 3.00029 11.8125 3.09404 11.25Z" fill="#ABA6D8"/>
<path d="M6.46875 13.2188C6.93474 13.2188 7.3125 12.5052 7.3125 11.625C7.3125 10.7448 6.93474 10.0312 6.46875 10.0312C6.00276 10.0312 5.625 10.7448 5.625 11.625C5.625 12.5052 6.00276 13.2188 6.46875 13.2188Z" fill="#363232"/>
<path d="M13.3123 21.0932L12.4685 20.9994C8.43729 20.4369 5.53104 17.7182 5.71854 14.9057L6.37479 5.99944C6.56229 3.28069 9.84354 0.843195 13.8748 0.561945L14.7185 0.468195C19.2185 0.186945 23.0623 2.53069 22.8748 5.71819L22.2185 16.2182C21.9373 19.5932 17.8123 21.7494 13.3123 21.0932Z" fill="#363232"/>
<path d="M13.4997 20.343L12.6559 20.2493C8.90592 19.6868 6.28092 17.1555 6.46842 14.6243L7.03092 6.46801C7.21842 3.93676 10.2184 1.68676 13.9684 1.40551L14.8122 1.31176C18.9372 1.03051 22.4997 3.18676 22.3122 6.18676L21.7497 15.9368C21.5622 18.9368 17.6247 20.9055 13.4997 20.343Z" fill="#665A9E"/>
<path d="M12.7496 19.3134L12.0934 19.2197C8.99962 18.7509 6.84337 16.4072 7.03087 14.1572L7.49962 6.65718C7.68712 4.31343 10.1246 2.25093 13.3121 1.87593H13.9684C17.5309 1.50093 20.5309 3.46968 20.3434 6.18843L19.7809 15.1884C19.5934 18.0009 16.2184 19.8759 12.7496 19.3134Z" fill="url(#paint1_linear_52_52086)"/>
<path d="M11.8127 18.1878L11.2502 18.094C9.00016 17.719 7.50016 15.9378 7.68766 14.1565L8.15641 8.34402C8.34391 6.46902 10.2189 4.50027 12.5627 3.93777L13.1252 3.75027C16.0314 3.00027 18.6564 4.40652 18.3752 6.93777L17.5314 14.8128C17.2502 17.1565 14.4377 18.6565 11.8127 18.1878Z" fill="#DDC3F2"/>
<path d="M7.5 6.9375C7.5 6.9375 9 8.34375 10.4063 8.25V9.5625C10.4063 9.5625 8.34375 8.8125 7.40625 8.71875L7.5 6.9375ZM7.21875 9.9375C7.21875 9.9375 7.875 11.1562 10.2187 11.0625L10.125 12.375C10.125 12.375 8.0625 11.7187 7.03125 11.625L7.21875 9.9375ZM6.84375 12.6562C6.84375 12.6562 7.3125 13.875 9.84375 13.6875L9.75 14.9062L6.65625 14.5313L6.84375 12.6562Z" fill="#363232"/>
<path d="M7.40625 7.78125C7.40625 7.78125 8.90625 9.1875 10.3125 9.09375L10.4063 9.75C10.4063 9.75 8.34375 9.75 7.3125 9.5625L7.40625 7.78125ZM7.03125 10.6875C7.03125 10.6875 7.78125 12 10.2187 11.8125L10.125 12.375H7.03125V10.6875ZM6.65625 13.5C6.65625 13.5 7.3125 14.8125 9.84375 14.5312L9.75 15.2812C9.75 15.2812 7.59375 15.4687 6.65625 15.375V13.5Z" fill="#665A9E"/>
<path d="M12.0937 5.53115L10.875 16.8749C10.875 16.8749 12.5625 16.9686 13.2188 16.6874C13.875 16.4061 14.7187 5.8124 14.7187 5.8124C14.7187 5.8124 14.1562 4.78115 12.0937 5.53115Z" fill="#F0E1FF"/>
<path d="M21.8437 14.4375V13.875C19.9687 15.2812 15.6563 15.4687 15.6563 15.4687L15.5625 16.125C18.1875 16.3125 20.7188 16.2188 21.75 15.9375C21.75 15.4687 21.8437 14.8125 21.8437 14.4375ZM16.0312 12C16.0312 12 21.9375 12.0937 22.7812 9.65625L22.5 11.9062C22.5 11.9062 19.4062 12.9375 15.9375 12.6562L16.0312 12ZM22.125 9C22.125 8.625 22.2188 7.96875 22.2188 7.59375C20.1563 8.53125 16.5 8.625 16.5 8.625L16.4062 9.375C18.5625 9.5625 20.625 9.28125 21.8437 9C21.8437 8.90625 22.125 9 22.125 9Z" fill="#665A9E"/>
<path d="M18.1875 5.7182C18.0937 6.4682 16.5938 6.93695 14.8125 6.74945C12.9375 6.6557 11.5312 5.9057 11.5312 5.1557C11.625 4.49945 13.125 3.93695 15 4.12445C16.7812 4.31195 18.2812 4.9682 18.1875 5.7182Z" fill="white"/>
<path d="M22.5938 13.125C22.8526 13.125 23.0625 12.4115 23.0625 11.5312C23.0625 10.651 22.8526 9.9375 22.5938 9.9375C22.3349 9.9375 22.125 10.651 22.125 11.5312C22.125 12.4115 22.3349 13.125 22.5938 13.125Z" fill="#363232"/>
<path d="M17.5313 22.5009L18.0937 23.6259C18.0937 23.6259 14.7188 25.0322 9.375 23.0634L9.65625 21.8447C9.65625 21.7509 14.5313 23.0634 17.5313 22.5009Z" fill="#9685A6"/>
<path d="M16.875 23.9062L17.25 24.4688C17.25 24.4688 14.4375 24.9375 10.4062 24L10.875 23.625C10.875 23.5312 14.5312 24.1875 16.875 23.9062ZM15.6563 14.8125C15.6563 14.8125 21.4687 14.9062 22.4062 12.4688L22.125 14.7188C22.125 14.7188 19.0312 15.75 15.5625 15.5625L15.6563 14.8125ZM22.2188 9.9375C20.4375 11.5313 16.125 11.4375 16.125 11.4375L16.0312 12.1875C19.0312 12.4688 21.75 11.7188 22.4062 11.4375C22.4062 10.9688 22.3125 10.5 22.2188 9.9375ZM16.5 8.0625C16.5 8.0625 21.4687 8.25 22.3125 5.8125V8.15625C22.3125 8.15625 19.5938 9.46875 16.4062 9.1875L16.5 8.0625Z" fill="#363232"/>
<path d="M29.1567 18.4683C29.1567 14.5308 25.3129 14.3433 25.3129 14.3433C25.3129 14.3433 23.0629 14.0621 21.5629 15.8433C20.1567 14.1558 18.1879 14.2496 18.1879 14.2496C18.1879 14.2496 14.4379 13.9683 14.1567 18.4683C13.7817 23.1558 21.0004 26.5308 21.4692 26.8121C21.9379 26.4371 29.2504 23.0621 29.1567 18.4683Z" fill="#363232"/>
<path d="M29.5317 17.7183C29.5317 13.7808 25.6879 13.5933 25.6879 13.5933C25.6879 13.5933 23.4379 13.3121 21.9379 15.0933C20.5317 13.4058 18.5629 13.4996 18.5629 13.4996C18.5629 13.4996 14.8129 13.2183 14.5317 17.7183C14.1567 22.4058 21.3754 25.7808 21.8442 26.0621C22.2192 25.7808 29.5317 22.4058 29.5317 17.7183Z" fill="#960F0F"/>
<path d="M28.5939 17.625C28.5939 15.6562 27.7501 14.8125 26.9064 14.4375C26.1564 14.0625 25.2189 14.0625 24.3751 14.4375C23.7189 14.7188 22.6876 15.1875 21.9376 16.125C21.2814 15.375 20.4376 14.9063 19.7814 14.625C18.8439 14.1563 17.6251 14.25 16.7814 14.8125C16.0314 15.2813 15.2814 16.2188 15.1876 17.9063C14.9064 21.8438 21.3751 24.75 21.7501 24.9375C22.1251 24.5625 28.5939 21.5625 28.5939 17.625Z" fill="#DD4545"/>
<path d="M26.0625 17.7188C26.0625 16.3125 25.4062 15.6563 24.75 15.375C24.1875 15.0938 23.5312 15.0938 22.875 15.375C22.4062 15.5625 21.6562 15.9375 21.0937 16.5938C20.625 16.0313 19.9687 15.6563 19.5 15.4688C18.75 15.1875 17.9062 15.1875 17.25 15.5625C16.6875 15.9375 16.125 16.5938 16.0312 17.8125C15.75 20.7188 20.625 22.875 20.9062 23.0625C21.2812 22.7813 26.0625 20.625 26.0625 17.7188Z" fill="#F96464"/>
<path d="M25.1246 21.0946C24.4684 21.3759 23.7184 21.2821 23.3434 21.0009C22.9684 20.7196 22.4996 20.2509 22.4059 19.5009C22.1246 17.7196 23.7184 13.4071 26.7184 15.1884C29.7184 16.9696 26.7184 20.4384 25.1246 21.0946Z" fill="#FFB3B3"/>
<path d="M25.3125 18.4684C24.9375 18.5621 24.6562 18.5621 24.4687 18.4684C24.2812 18.3746 24.0937 18.0934 24 17.7184C23.9062 16.8746 24.5625 14.8121 26.0625 15.6559C27.5625 16.4059 26.1562 18.0934 25.3125 18.4684Z" fill="white"/>
<path d="M19.1246 16.8755C19.0309 17.1568 18.9371 17.438 18.6559 17.6255C18.4684 17.813 18.1871 17.9068 17.8121 17.9068C17.0621 17.9068 15.8434 16.9693 17.1559 15.8443C18.4684 14.7193 19.2184 16.1255 19.1246 16.8755Z" fill="#FFB3B3"/>
</g>
<defs>
<linearGradient id="paint0_linear_52_52086" x1="3.87051" y1="17.4242" x2="24.1626" y2="17.4371" gradientUnits="userSpaceOnUse">
<stop stop-color="#B3B2EB"/>
<stop offset="1" stop-color="#9583A3"/>
</linearGradient>
<linearGradient id="paint1_linear_52_52086" x1="7.25548" y1="10.1381" x2="20.0323" y2="11.0383" gradientUnits="userSpaceOnUse">
<stop stop-color="#B3B2EB"/>
<stop offset="1" stop-color="#9583A3"/>
</linearGradient>
<clipPath id="clip0_52_52086">
<rect width="30" height="30" fill="white"/>
</clipPath>
</defs>
</svg>
