<svg width="23" height="14" viewBox="0 0 23 14" fill="none" xmlns="http://www.w3.org/2000/svg">
<path d="M11.4716 13.9529C12.1066 13.9529 12.6214 13.5623 12.6214 13.0805C12.6214 12.5987 12.1066 12.2082 11.4716 12.2082C10.8365 12.2082 10.3217 12.5987 10.3217 13.0805C10.3217 13.5623 10.8365 13.9529 11.4716 13.9529Z" fill="#B0B6C4"/>
<path d="M11.4716 8.71876C9.98337 8.71873 8.55312 9.15652 7.48161 9.94007C7.26204 10.1009 7.13565 10.3213 7.13026 10.5528C7.12487 10.7843 7.24092 11.0079 7.45286 11.1745C7.66481 11.3411 7.9553 11.4369 8.26043 11.441C8.56556 11.4451 8.86033 11.3571 9.0799 11.1963C9.7329 10.7426 10.5862 10.491 11.4716 10.491C12.357 10.491 13.2103 10.7426 13.8633 11.1963C14.0828 11.3571 14.3776 11.4451 14.6827 11.441C14.9879 11.4369 15.2784 11.3411 15.4903 11.1745C15.7023 11.0079 15.8183 10.7843 15.8129 10.5528C15.8075 10.3213 15.6811 10.1009 15.4616 9.94007C14.3901 9.15652 12.9598 8.71873 11.4716 8.71876ZM11.4716 4.35691C10.0828 4.3576 8.70842 4.57036 7.4303 4.98252C6.15219 5.39467 4.99649 5.99778 4.03206 6.75593C3.92711 6.84013 3.84505 6.93919 3.79057 7.04745C3.73608 7.15571 3.71024 7.27106 3.71451 7.3869C3.71878 7.50274 3.75309 7.6168 3.81546 7.72259C3.87784 7.82837 3.96707 7.92379 4.07805 8.00341C4.3022 8.16421 4.60136 8.25087 4.90972 8.24433C5.06241 8.24109 5.21276 8.21506 5.35218 8.16774C5.49161 8.12042 5.61739 8.05272 5.72234 7.96852C6.47317 7.37751 7.37336 6.90741 8.36908 6.58632C9.36481 6.26524 10.4356 6.09975 11.5176 6.09975C12.5995 6.09975 13.6704 6.26524 14.6661 6.58632C15.6618 6.90741 16.562 7.37751 17.3128 7.96852C17.4193 8.05095 17.5463 8.11652 17.6865 8.16145C17.8266 8.20637 17.9771 8.22975 18.1292 8.23023C18.3539 8.22958 18.5735 8.179 18.7607 8.08472C18.9479 7.99045 19.0946 7.85663 19.1827 7.69979C19.2708 7.54295 19.2963 7.36997 19.2563 7.20222C19.2162 7.03448 19.1122 6.87932 18.9571 6.75593C17.9873 5.99355 16.8242 5.38797 15.5377 4.97568C14.2512 4.56339 12.8681 4.35291 11.4716 4.35691Z" fill="#B0B6C4"/>
<path d="M22.648 3.42336C19.6474 1.22723 15.6407 0 11.4714 0C7.30216 0 3.29551 1.22723 0.294886 3.42336C0.100835 3.58706 -0.00445259 3.80038 0.000144432 4.02052C0.00474146 4.24066 0.118883 4.45134 0.319672 4.6103C0.520461 4.76925 0.793047 4.86473 1.08275 4.87758C1.37245 4.89043 1.65785 4.8197 1.88168 4.67957C4.45458 2.79274 7.89303 1.73804 11.4714 1.73804C15.0498 1.73804 18.4883 2.79274 21.0612 4.67957C21.2743 4.83544 21.5585 4.92294 21.8546 4.92383C22.0095 4.92338 22.1626 4.8992 22.3049 4.85273C22.4472 4.80625 22.5756 4.73846 22.6825 4.6534C22.8921 4.48652 23.0062 4.26346 22.9997 4.03298C22.9932 3.80249 22.8668 3.58332 22.648 3.42336Z" fill="#B0B6C4"/>
</svg>
