<svg width="30" height="30" viewBox="0 0 30 30" fill="none" xmlns="http://www.w3.org/2000/svg">
<g clip-path="url(#clip0_52_40258)">
<path d="M8.25044 4.125C8.25044 4.125 7.31294 2.15625 6.00044 2.15625C4.68794 2.15625 1.78169 3.9375 2.43794 9.1875C2.43794 9.1875 5.90669 10.4062 7.96919 8.8125C7.96919 8.8125 6.37544 6.09375 8.25044 4.125Z" fill="#827420"/>
<path d="M7.31279 4.125C7.31279 4.125 6.65654 2.53125 5.62529 2.53125C4.59404 2.53125 2.43779 3.9375 3.00029 8.34375C3.00029 8.34375 5.62529 9.375 7.12529 7.96875C7.12529 8.0625 5.90654 5.71875 7.31279 4.125Z" fill="#E3D146"/>
<path d="M13.8755 3C13.8755 3 16.8755 4.3125 18.188 6.46875C19.5005 8.625 22.0317 11.625 26.063 10.9687C26.063 10.9687 26.5317 0.28125 14.3442 0.09375C14.3442 0.09375 11.3442 1.96875 13.8755 3Z" fill="#998522"/>
<path d="M15.5625 0.1883C15.5625 0.1883 14.25 3.09455 11.9062 3.84455C9.5625 4.59455 5.15625 6.1883 4.5 8.8133C4.5 8.8133 5.71875 -1.40545 15.5625 0.1883Z" fill="#827420"/>
<path d="M6.84375 6.84375C8.34527 6.84375 9.5625 5.58455 9.5625 4.03125C9.5625 2.47795 8.34527 1.21875 6.84375 1.21875C5.34223 1.21875 4.125 2.47795 4.125 4.03125C4.125 5.58455 5.34223 6.84375 6.84375 6.84375Z" fill="#B74F88"/>
<path d="M6.84375 6C7.93106 6 8.8125 5.07659 8.8125 3.9375C8.8125 2.79841 7.93106 1.875 6.84375 1.875C5.75644 1.875 4.875 2.79841 4.875 3.9375C4.875 5.07659 5.75644 6 6.84375 6Z" fill="#ED5A9D"/>
<path d="M20.7183 16.8744C22.5933 17.5306 24.3746 19.2181 24.9371 21.5619C25.4996 23.9994 24.6558 26.9056 22.9683 28.2181C21.8433 29.1556 20.4371 29.3431 19.1246 29.3431C15.9371 29.3431 12.6558 28.2181 9.46832 26.9994C8.43707 26.7181 7.31207 26.2494 6.37457 25.5931C5.43707 24.8431 4.59332 23.7181 4.49957 22.4056C4.31207 20.5306 5.34332 18.6556 6.74957 17.7181C9.09332 16.1244 11.5308 15.4681 14.0621 15.4681C16.1246 15.3744 18.7496 16.2181 20.7183 16.8744Z" fill="#C98C75"/>
<path d="M19.9683 17.1562C21.6558 17.7187 23.2495 19.2188 23.812 21.1875C24.3745 23.25 23.6245 25.7812 22.0308 27C20.9995 27.75 19.7808 27.9375 18.4683 27.9375C15.562 27.9375 12.6558 26.9063 9.74954 25.9688C8.81204 25.5938 7.78079 25.3125 6.93704 24.6562C6.09329 24 5.34329 23.0625 5.24954 21.8437C5.06204 20.25 5.99954 18.6563 7.21829 17.8125C9.37454 16.4063 11.5308 15.8438 13.7808 15.8438C15.7495 15.8438 18.0933 16.5 19.9683 17.1562Z" fill="#FAEACF"/>
<path d="M17.4374 17.9995C17.4374 17.9995 13.4062 19.687 10.4062 24.3745C10.4062 24.3745 9.37492 20.3433 9.93742 17.437C9.93742 17.3433 14.1562 19.2183 17.4374 17.9995Z" fill="#FAEACF"/>
<path d="M7.125 17.4375C7.125 17.4375 8.71875 21.4688 10.5938 21.75C12.4688 22.125 15.8438 22.7812 20.1562 18.5625L7.125 17.4375Z" fill="#E8CCAA"/>
<path opacity="0.28" d="M22.1101 25.1164C22.797 22.9986 22.1959 20.9063 20.7677 20.4431C19.3394 19.9799 17.6248 21.3212 16.938 23.4389C16.2511 25.5567 16.8522 27.649 18.2804 28.1122C19.7087 28.5754 21.4233 27.2341 22.1101 25.1164Z" fill="white"/>
<path d="M24.5048 10.6345C24.5246 5.14619 20.0916 0.680895 14.6033 0.661008C9.11494 0.641122 4.64965 5.07417 4.62976 10.5625C4.60987 16.0508 9.04292 20.5161 14.5312 20.536C20.0196 20.5559 24.4849 16.1228 24.5048 10.6345Z" fill="#A67A65"/>
<path d="M24.0555 9.86881C24.0748 4.53581 19.7672 0.196892 14.4342 0.177567C9.10124 0.158243 4.76232 4.46583 4.743 9.79883C4.72367 15.1318 9.03126 19.4707 14.3643 19.4901C19.6973 19.5094 24.0362 15.2018 24.0555 9.86881Z" fill="#E5A98C"/>
<path d="M23.9155 9.65702C23.934 4.53113 19.9197 0.361169 14.9491 0.343158C9.97853 0.325148 5.93404 4.4659 5.91547 9.5918C5.89689 14.7177 9.91127 18.8876 14.8818 18.9057C19.8524 18.9237 23.8969 14.7829 23.9155 9.65702Z" fill="#E8CCAA"/>
<path d="M19.0303 10.8776C19.0438 7.14971 16.1166 4.11699 12.4923 4.10386C8.86791 4.09072 5.91883 7.10216 5.90532 10.8301C5.89181 14.558 8.81899 17.5907 12.4434 17.6039C16.0677 17.617 19.0168 14.6056 19.0303 10.8776Z" fill="#FAEACF"/>
<path d="M15.6297 11.5654C15.6318 10.9958 15.2137 10.5326 14.696 10.5307C14.1782 10.5289 13.7568 10.9891 13.7547 11.5586C13.7526 12.1281 14.1707 12.5914 14.6885 12.5932C15.2062 12.5951 15.6276 12.1349 15.6297 11.5654Z" fill="#425763"/>
<path d="M15.0166 11.2338C15.0172 11.0785 14.9337 10.9522 14.8302 10.9519C14.7266 10.9515 14.6422 11.0771 14.6416 11.2324C14.6411 11.3878 14.7246 11.514 14.8281 11.5144C14.9317 11.5147 15.0161 11.3891 15.0166 11.2338Z" fill="white"/>
<path d="M8.46858 10.081C8.47064 9.51147 8.05258 9.04824 7.53482 9.04637C7.01705 9.04449 6.59564 9.50468 6.59358 10.0742C6.59152 10.6438 7.00958 11.107 7.52734 11.1089C8.04511 11.1107 8.46652 10.6506 8.46858 10.081Z" fill="#425763"/>
<path d="M7.85551 9.65566C7.85607 9.50033 7.77258 9.3741 7.66903 9.37373C7.56548 9.37335 7.48107 9.49897 7.48051 9.6543C7.47995 9.80963 7.56344 9.93585 7.66699 9.93623C7.77055 9.9366 7.85495 9.81099 7.85551 9.65566Z" fill="white"/>
<path d="M21 11.3435C21 11.3435 21.8438 10.6873 22.5 10.9685C23.1563 11.2498 23.0625 13.3123 21.375 13.4998L21 11.3435Z" fill="#FAEACF"/>
<path d="M12.6562 16.125C12.6562 16.125 11.7187 16.0312 11.0625 15.4687C10.4062 15 9.75 15 9.65625 15.0938C9.5625 15.0938 9.375 14.9062 9.09375 14.8125C8.90625 14.7188 8.625 14.7188 8.53125 14.8125C8.53125 14.9062 8.8125 15.375 8.8125 15.375C8.8125 15.375 8.90625 15.75 8.8125 16.0313C8.71875 16.2188 8.8125 16.875 9.46875 17.0625C10.125 17.25 10.6875 17.1563 10.9687 16.9688C11.4375 16.875 12.6562 16.125 12.6562 16.125Z" fill="#B74F88"/>
<path d="M13.2192 2.99933C13.2192 2.99933 15.938 4.31183 17.1567 6.46808C18.3755 8.62433 20.7192 11.6243 24.4692 10.9681C24.4692 10.9681 24.938 0.280576 13.5942 0.0930759C13.688 -0.000674099 10.8755 1.96808 13.2192 2.99933Z" fill="#E3D146"/>
<path d="M14.7187 0.187682C14.7187 0.187682 13.5 3.37518 11.3438 4.12518C9.1875 4.87518 5.25 6.56268 4.59375 9.18768C4.59375 9.18768 5.71875 -1.31232 14.7187 0.187682Z" fill="#E3D146"/>
<path d="M11.7188 2.15674C11.7188 2.15674 13.875 9.46924 22.5 10.9692L24.2812 10.8755L19.125 2.62549C19.0312 2.62549 14.7188 0.187989 11.7188 2.15674Z" fill="#E3D146"/>
<path d="M20.0625 8.0625C20.0625 8.0625 21.1875 5.625 22.875 5.625C24.4688 5.625 27.4688 7.40625 27.375 12.75C27.375 13.7812 26.625 14.625 25.5937 14.8125C24.0937 15.0938 21.9375 15.0937 20.3438 13.9687C20.3438 13.9687 22.4062 10.5 20.0625 8.0625Z" fill="#827420"/>
<path d="M13.125 1.96875C13.125 1.96875 14.7188 9.1875 23.5312 10.2187C23.5312 10.2187 23.5312 1.5 14.7187 0.75C14.7187 0.84375 13.125 1.40625 13.125 1.96875Z" fill="#FFEF92"/>
<path d="M6.75 4.87581C6.75 4.87581 8.625 1.03206 12 0.844561C15.375 0.657061 15.8438 0.657061 15.9375 1.21956C15.9375 1.78206 16.4062 2.25081 14.3438 2.15706C12.1875 2.15706 8.25 3.09456 6.75 4.87581Z" fill="#FFEF92"/>
<path d="M22.4062 10.5C23.9078 10.5 25.125 9.2408 25.125 7.6875C25.125 6.1342 23.9078 4.875 22.4062 4.875C20.9047 4.875 19.6875 6.1342 19.6875 7.6875C19.6875 9.2408 20.9047 10.5 22.4062 10.5Z" fill="#ED5A9D"/>
<path d="M21.1875 8.0625C21.1875 8.0625 22.0312 6 23.3437 6C24.4687 6 26.7187 7.40625 26.7187 11.625C26.7187 12.75 25.875 13.5937 24.8437 13.7812C23.8125 13.875 22.5 13.7812 21.4687 12.9375C21.4687 12.9375 22.9688 10.0312 21.1875 8.0625Z" fill="#E3D146"/>
<path d="M22.3125 8.34375C22.3125 8.34375 22.875 7.03125 23.7188 7.03125C24.5625 7.03125 26.25 8.15625 25.7813 11.7188C25.7813 11.7188 23.7188 12.4688 22.5 11.4375C22.5 11.4375 23.4375 9.65625 22.3125 8.34375Z" fill="#FFEF92"/>
<path d="M4.68717 20.25C4.68717 20.25 5.81217 23.4375 12.3747 24.9375C18.9372 26.4375 21.9372 26.8125 23.3434 25.7812C24.7497 24.75 25.2184 24.5625 25.2184 24.5625C25.2184 24.5625 24.9372 29.9062 19.2184 29.3437C13.4997 28.7812 6.18717 25.875 6.18717 25.875C6.18717 25.875 2.99967 23.8125 4.68717 20.25Z" fill="#5CD9EA"/>
<path d="M18.4688 26.1563L16.0312 29.0625C16.0312 29.0625 18.5625 29.8125 20.7188 29.5313C22.7812 29.25 24.8437 28.0313 25.2187 24.6562C25.125 24.6562 23.3438 27.4688 18.4688 26.1563Z" fill="#188689"/>
<path d="M12.4688 4.125C12.4688 4.125 15.9375 9.65625 21.2813 10.6875L21.375 11.9062C21.375 11.8125 16.2188 10.5 12.4688 4.125Z" fill="#827420"/>
<path d="M5.15632 21C5.15632 21 4.21882 23.625 6.56257 24.8437C8.90632 26.0625 18.2813 28.6875 18.2813 28.6875L17.1563 29.3437L6.28132 26.25C6.28132 26.25 3.00007 25.2188 4.50007 20.25L5.15632 21Z" fill="#188689"/>
<path d="M13.9688 1.40625C13.9688 1.40625 17.4375 1.40625 19.875 3.5625L20.4375 4.21875L19.0312 6.5625C18.9375 6.65625 14.625 2.34375 13.9688 1.40625Z" fill="#FFF6CA"/>
<path d="M15.75 27.2812L15.375 27.75L17.0625 28.9688L27.0938 19.0312L25.5 16.875L15.75 27.2812Z" fill="#9A4C18"/>
<path d="M27.3749 21.8428C26.9999 25.7803 23.3437 29.1553 19.3124 29.1553C15.2812 29.1553 12.6562 25.7803 13.4062 21.9366C14.1562 18.2803 17.6249 15.4678 21.1874 15.4678C24.8437 15.2803 27.6562 18.0928 27.3749 21.8428Z" fill="#9A4C18"/>
<path d="M28.3122 23.0625C28.0309 26.8125 24.3747 30.0938 20.4372 30C16.4997 30 13.9684 26.8125 14.7184 23.0625C15.4684 19.5938 18.8434 16.875 22.3122 16.875C25.9684 16.875 28.6872 19.5 28.3122 23.0625Z" fill="#9A4C18"/>
<path d="M16.7812 27.4687L18.5625 28.4062L26.7188 19.7812L25.4062 18L16.7812 27.4687Z" fill="#F49937"/>
<path d="M27.563 23.0625C27.2817 26.25 24.2817 28.9688 20.9067 28.9688C17.6255 28.9688 15.4692 26.25 16.1255 23.0625C16.688 20.0625 19.5942 17.7188 22.5942 17.625C25.5942 17.7188 27.8442 20.0625 27.563 23.0625Z" fill="#F49937"/>
<path d="M26.4378 21.7507C26.1565 25.2194 22.969 28.1257 19.3128 28.1257C15.7503 28.1257 13.5003 25.2194 14.1565 21.8444C14.8128 18.6569 17.8128 16.1257 21.0003 16.1257C24.3753 16.0319 26.8128 18.4694 26.4378 21.7507Z" fill="#FFEDC0"/>
<path d="M26.063 22.0312C25.7817 25.2187 22.7817 27.9375 19.4067 27.9375C16.1255 27.9375 13.9692 25.2187 14.6255 22.0312C15.188 19.0312 18.0942 16.6875 21.0942 16.5938C24.0942 16.5938 26.3442 18.9375 26.063 22.0312Z" fill="#FFD766"/>
<path d="M24.7501 22.0307C24.4688 24.562 22.2188 26.6245 19.5938 26.6245C17.0626 26.6245 15.3751 24.562 15.8438 22.1245C16.2188 19.7807 18.4688 17.9057 20.8126 17.9057C23.2501 17.812 24.9376 19.687 24.7501 22.0307Z" fill="#FFEDC0"/>
<path d="M24.7501 21.375C24.4688 23.8125 22.2188 25.875 19.6876 25.875C17.1563 25.875 15.4688 23.8125 15.9376 21.375C16.3126 19.0312 18.5626 17.25 20.9063 17.1562C23.3438 17.25 25.0313 19.0312 24.7501 21.375Z" fill="#F49937"/>
<path d="M23.9999 22.0312C23.8124 24.0937 21.8437 25.875 19.6874 25.875C17.5312 25.875 16.1249 24.0937 16.4999 22.0312C16.8749 20.0625 18.7499 18.4688 20.7187 18.4688C22.7812 18.4688 24.2812 20.0625 23.9999 22.0312Z" fill="#FFD766"/>
<path d="M21.375 18.0938L21.9375 20.3438L24.375 21L22.125 22.5L21.9375 25.125L19.875 23.625L17.25 24.5625L18.375 22.125L17.0625 20.1563L19.6875 20.0625L21.375 18.0938Z" fill="#F49937"/>
</g>
<defs>
<clipPath id="clip0_52_40258">
<rect width="30" height="30" fill="white"/>
</clipPath>
</defs>
</svg>
