<svg width="93" height="17" viewBox="0 0 93 17" fill="none" xmlns="http://www.w3.org/2000/svg">
<g clip-path="url(#clip0_52_33920)">
<mask id="mask0_52_33920" style="mask-type:luminance" maskUnits="userSpaceOnUse" x="0" y="0" width="93" height="17">
<path d="M92.9792 0H0.0208079V16.6071H92.9792V0Z" fill="white"/>
</mask>
<g mask="url(#mask0_52_33920)">
<path d="M77.0196 6.79948e-06H74.668C74.0933 -0.00100683 73.524 0.111318 72.9928 0.330553C72.4615 0.549789 71.9787 0.871632 71.5719 1.27767C71.1652 1.6837 70.8425 2.16595 70.6223 2.69684C70.4021 3.22772 70.2888 3.7968 70.2888 4.37153V16.1908C70.2908 16.3081 70.3388 16.4198 70.4225 16.502C70.5061 16.5842 70.6187 16.6303 70.736 16.6303H72.702C72.8193 16.6303 72.9319 16.5842 73.0155 16.502C73.0992 16.4198 73.1472 16.3081 73.1492 16.1908V5.02687C73.1471 4.74077 73.202 4.45712 73.3105 4.19241C73.419 3.92769 73.5791 3.68719 73.7814 3.48489C74.1912 3.07702 74.7452 2.8471 75.3234 2.84496H77.0196C77.1361 2.84496 77.2479 2.79866 77.3303 2.71625C77.4127 2.63383 77.459 2.52205 77.459 2.4055V0.447182C77.46 0.388825 77.4494 0.330848 77.4278 0.276637C77.4062 0.222426 77.374 0.173065 77.3331 0.131437C77.2921 0.0898087 77.2434 0.0567467 77.1895 0.034181C77.1357 0.0116153 77.0779 -2.18335e-06 77.0196 6.79948e-06Z" fill="black"/>
<path d="M23.2352 13.7545C22.9461 13.7575 22.6593 13.7031 22.3914 13.5944C22.1234 13.4856 21.8798 13.3247 21.6747 13.1209C21.4695 12.9172 21.3069 12.6747 21.1962 12.4076C21.0856 12.1405 21.0292 11.854 21.0302 11.5649V0.447175C21.0302 0.3299 20.9842 0.217313 20.902 0.133669C20.8198 0.050026 20.708 0.00202197 20.5907 0L18.6247 0C18.5061 0 18.3924 0.0471129 18.3085 0.130974C18.2246 0.214836 18.1775 0.328577 18.1775 0.447175V12.2356C18.1775 13.395 18.6381 14.5069 19.4579 15.3268C20.2777 16.1466 21.3896 16.6071 22.549 16.6071H23.2352C23.3525 16.6072 23.4651 16.5611 23.5487 16.4789C23.6324 16.3967 23.6804 16.2849 23.6824 16.1677V14.2017C23.6824 14.0831 23.6353 13.9693 23.5514 13.8855C23.4676 13.8016 23.3538 13.7545 23.2352 13.7545Z" fill="black"/>
<path d="M32.0169 13.7545C31.7278 13.7575 31.4409 13.7031 31.173 13.5944C30.9051 13.4856 30.6615 13.3247 30.4563 13.1209C30.2512 12.9172 30.0885 12.6747 29.9779 12.4076C29.8673 12.1405 29.8108 11.854 29.8119 11.5649V0.447175C29.8119 0.3299 29.7658 0.217313 29.6836 0.133669C29.6014 0.050026 29.4896 0.00202197 29.3724 0L27.4064 0C27.2878 0 27.174 0.0471129 27.0902 0.130974C27.0063 0.214836 26.9592 0.328577 26.9592 0.447175V12.2356C26.9592 12.8097 27.0723 13.3782 27.292 13.9085C27.5116 14.4389 27.8336 14.9208 28.2396 15.3268C28.6455 15.7327 29.1274 16.0547 29.6578 16.2744C30.1882 16.4941 30.7566 16.6071 31.3307 16.6071H32.0169C32.1342 16.6072 32.2468 16.5611 32.3304 16.4789C32.414 16.3967 32.462 16.2849 32.4641 16.1677V14.2017C32.4641 14.0831 32.417 13.9693 32.3331 13.8855C32.2492 13.8016 32.1355 13.7545 32.0169 13.7545Z" fill="black"/>
<path d="M13.5671 6.79948e-06H4.40004C3.82531 -0.00100683 3.25603 0.111318 2.72476 0.330553C2.19349 0.549789 1.71067 0.871632 1.30392 1.27767C0.897171 1.6837 0.574477 2.16595 0.354306 2.69684C0.134135 3.22772 0.020807 3.7968 0.0208079 4.37153L0.0208079 16.1908C0.0228299 16.3081 0.0708339 16.4198 0.154477 16.502C0.238121 16.5842 0.350708 16.6303 0.467983 16.6303H2.43401C2.54994 16.6283 2.66057 16.5814 2.74256 16.4994C2.82455 16.4174 2.87149 16.3068 2.87347 16.1908V11.6805H11.1539V16.1908C11.1559 16.3081 11.2039 16.4198 11.2876 16.502C11.3712 16.5842 11.4838 16.6303 11.6011 16.6303H13.5671C13.6837 16.6303 13.7955 16.584 13.8779 16.5016C13.9603 16.4191 14.0066 16.3074 14.0066 16.1908V0.447182C14.0076 0.388825 13.997 0.330848 13.9754 0.276637C13.9537 0.222426 13.9215 0.173065 13.8806 0.131437C13.8397 0.0898087 13.7909 0.0567467 13.7371 0.034181C13.6833 0.0116153 13.6255 -2.18335e-06 13.5671 6.79948e-06ZM2.87347 8.85098V4.99603C2.88355 4.42539 3.11682 3.88142 3.52326 3.48074C3.9297 3.08007 4.47694 2.8546 5.04767 2.85267H11.1539V8.85098H2.87347Z" fill="black"/>
<path d="M45.1239 0.000108792H39.8889C39.3122 -0.0039595 38.7404 0.10611 38.2065 0.323977C37.6725 0.541845 37.187 0.863203 36.7778 1.26954C36.3686 1.67588 36.0438 2.15917 35.8222 2.69157C35.6006 3.22396 35.4865 3.79495 35.4865 4.37163V12.2357C35.486 13.3194 35.8902 14.3643 36.6199 15.1655C37.036 15.6119 37.538 15.9697 38.0957 16.2175C38.6535 16.4652 39.2555 16.5978 39.8657 16.6073H49.0559C49.1732 16.6073 49.2858 16.5612 49.3695 16.479C49.4531 16.3968 49.5011 16.285 49.5031 16.1678V14.2018C49.5031 14.0832 49.456 13.9694 49.3721 13.8856C49.2883 13.8017 49.1745 13.7546 49.0559 13.7546H40.575C40.2166 13.7436 39.8656 13.6494 39.5499 13.4795C39.2341 13.3095 38.9621 13.0685 38.7555 12.7754C38.5106 12.4187 38.3765 11.9976 38.37 11.565V9.7223H49.0559C49.1745 9.7223 49.2883 9.67519 49.3721 9.59133C49.456 9.50747 49.5031 9.39373 49.5031 9.27513V4.37163C49.5031 3.7969 49.3898 3.22782 49.1696 2.69694C48.9495 2.16606 48.6268 1.6838 48.22 1.27777C47.8133 0.871734 47.3304 0.549891 46.7992 0.330655C46.2679 0.11142 45.6986 -0.000904832 45.1239 0.000108792ZM46.6659 6.89277H38.37V5.02697C38.368 4.74088 38.4228 4.45723 38.5313 4.19251C38.6399 3.9278 38.7999 3.68729 39.0022 3.48499C39.412 3.07712 39.966 2.8472 40.5442 2.84507H44.4686C44.7874 2.84676 45.1022 2.9164 45.3921 3.04935C45.6819 3.18229 45.94 3.37549 46.1493 3.61606C46.4766 4.00102 46.6545 4.49086 46.6505 4.99613L46.6659 6.89277Z" fill="black"/>
<path d="M66.7193 4.37152C66.7173 3.21141 66.255 2.09952 65.4339 1.27992C64.6129 0.460321 63.5002 -1.79792e-06 62.3401 0L57.0742 0C55.9234 0.00175465 54.818 0.449436 53.9903 1.24901C53.5727 1.65471 53.2408 2.14014 53.0143 2.67652C52.7878 3.2129 52.6714 3.78929 52.6719 4.37152V7.40922C52.6719 7.9859 52.7859 8.55689 53.0076 9.08928C53.2292 9.62168 53.5539 10.105 53.9631 10.5113C54.3723 10.9176 54.8579 11.239 55.3918 11.4569C55.9258 11.6747 56.4976 11.7848 57.0742 11.7807H63.8204C63.7896 12.136 63.6703 12.478 63.4734 12.7753C63.2741 13.0649 63.01 13.3041 62.7023 13.474C62.3945 13.6439 62.0514 13.74 61.7002 13.7545H53.5122C53.395 13.7565 53.2832 13.8045 53.201 13.8881C53.1188 13.9718 53.0728 14.0844 53.0728 14.2017V16.1908C53.0748 16.3067 53.1217 16.4174 53.2037 16.4994C53.2857 16.5814 53.3963 16.6283 53.5122 16.6303H62.3324C62.9404 16.6148 63.539 16.4771 64.0926 16.2254C64.6463 15.9737 65.1437 15.6132 65.5551 15.1654C66.2848 14.3641 66.689 13.3193 66.6885 12.2356L66.7193 4.37152ZM56.2184 8.28815C56.0147 8.08648 55.8532 7.84627 55.7434 7.58152C55.6335 7.31678 55.5775 7.03281 55.5785 6.74617V5.02686C55.5792 4.69913 55.6537 4.37576 55.7966 4.08079C55.9394 3.78581 56.1468 3.52679 56.4035 3.32297C56.7606 3.05556 57.185 2.89272 57.6293 2.85267H61.7002C62.2787 2.85312 62.8333 3.0833 63.2422 3.49259C63.4445 3.6949 63.6045 3.9354 63.7131 4.20011C63.8216 4.46483 63.8764 4.74848 63.8744 5.03457V8.93578H57.7527C57.1745 8.93365 56.6205 8.70373 56.2107 8.29586" fill="black"/>
<path d="M88.5999 6.79948e-06H83.3649C82.2055 6.79948e-06 81.0936 0.460576 80.2737 1.28039C79.4539 2.10021 78.9934 3.21213 78.9934 4.37152V12.2356C78.9934 13.395 79.4539 14.5069 80.2737 15.3268C81.0936 16.1466 82.2055 16.6072 83.3649 16.6072H88.5999C89.1746 16.6082 89.7439 16.4958 90.2752 16.2766C90.8064 16.0574 91.2893 15.7355 91.696 15.3295C92.1028 14.9235 92.4255 14.4412 92.6456 13.9103C92.8658 13.3794 92.9791 12.8104 92.9791 12.2356V4.37152C92.9791 3.7968 92.8658 3.22771 92.6456 2.69683C92.4255 2.16595 92.1028 1.6837 91.696 1.27767C91.2893 0.871632 90.8064 0.549789 90.2752 0.330553C89.7439 0.111318 89.1746 -0.00100683 88.5999 6.79948e-06ZM90.1419 11.5649C90.1429 11.8515 90.0869 12.1355 89.977 12.4002C89.8671 12.665 89.7057 12.9052 89.502 13.1069C89.3013 13.312 89.0613 13.4744 88.7963 13.5843C88.5314 13.6943 88.2469 13.7496 87.96 13.7468H84.0588C83.7694 13.7519 83.4819 13.6992 83.2131 13.5918C82.9443 13.4843 82.6997 13.3243 82.4936 13.1211C82.2875 12.9178 82.1241 12.6755 82.0129 12.4083C81.9017 12.1411 81.8449 11.8543 81.846 11.5649V5.02687C81.844 4.74077 81.8988 4.45712 82.0073 4.19241C82.1159 3.92769 82.2759 3.68719 82.4782 3.48489C82.8871 3.07559 83.4417 2.84542 84.0202 2.84496H87.9523C88.5283 2.84699 89.0801 3.07671 89.4874 3.48401C89.8947 3.89132 90.1244 4.44315 90.1265 5.01916L90.1419 11.5649Z" fill="black"/>
</g>
</g>
<defs>
<clipPath id="clip0_52_33920">
<rect width="92.7085" height="16.5625" fill="white" transform="translate(0.0208079) scale(1.0027)"/>
</clipPath>
</defs>
</svg>
