<svg width="30" height="30" viewBox="0 0 30 30" fill="none" xmlns="http://www.w3.org/2000/svg">
<g clip-path="url(#clip0_52_66532)">
<path d="M13.5938 8.34375L9.5625 1.96875L0.1875 6.9375L3.84375 11.25L13.5938 8.34375Z" fill="#714113"/>
<path d="M11.9062 6.9375L9.46875 3.375L1.21875 6.75L3.84375 10.875L11.9062 6.9375Z" fill="#BB7C46"/>
<path d="M11.9062 6.9375L12.75 2.71875L29.1563 3.375L27.75 7.96875L11.9062 6.9375Z" fill="#714113"/>
<path d="M12.6562 7.59375L13.5 3.375L27.4687 4.03125L26.0625 8.625L12.6562 7.59375Z" fill="#BB7C46"/>
<path d="M21.0938 30.0937L4.03125 25.2188L3.9375 10.5L21.0938 13.3125V30.0937Z" fill="#714113"/>
<path d="M21.0938 30.0937L27.4687 22.5L27.375 7.96875L21.0938 13.3125V30.0937Z" fill="#714113"/>
<path d="M27.75 7.96875L11.9062 6.9375L3.84375 10.875L21.0938 13.3125L27.75 7.96875Z" fill="#714113"/>
<path d="M21.8445 11.157L14.8132 9.75072C13.6882 9.56322 12.9382 8.43822 13.2195 7.31322L14.2507 2.34447C14.4382 1.21947 15.5632 0.469467 16.6882 0.750717L23.7195 2.15697C24.8445 2.34447 25.5945 3.46947 25.3132 4.59447L24.3757 9.46947C24.0945 10.5945 22.9695 11.3445 21.8445 11.157Z" fill="#7A0F0F"/>
<path d="M22.9695 11.2507L15.9382 9.84447C14.8132 9.65697 14.0632 8.53197 14.3445 7.40697L15.3757 2.43822C15.5632 1.31322 16.6882 0.563217 17.8132 0.844467L24.8445 2.25072C25.9695 2.43822 26.7195 3.56322 26.4382 4.68822L25.407 9.65697C25.2195 10.782 24.0945 11.532 22.9695 11.2507Z" fill="#E22222"/>
<path d="M22.407 11.3445L15.3757 9.93822C14.2507 9.75072 13.5007 8.62572 13.782 7.50072L14.8132 2.53197C15.0007 1.40697 16.1257 0.656967 17.2507 0.938217L24.282 2.34447C25.407 2.53197 26.157 3.65697 25.8757 4.78197L24.8445 9.75072C24.657 10.8757 23.532 11.6257 22.407 11.3445Z" fill="#E26546"/>
<path d="M18.6562 2.34375L17.3438 8.90625L23.7187 7.03125L18.6562 2.34375Z" fill="#7A0F0F"/>
<path d="M17.9058 15.6558L11.9995 11.5308C11.062 10.8745 10.7808 9.562 11.5308 8.6245L14.437 4.40575C15.0933 3.46825 16.4058 3.187 17.3433 3.937L23.2495 8.062C24.187 8.71825 24.4683 10.0308 23.7183 10.9683L20.812 15.187C20.1558 16.0308 18.8433 16.312 17.9058 15.6558Z" fill="#0F1D7A"/>
<path d="M18.8433 16.2183L12.937 12.0933C11.9995 11.437 11.7183 10.1245 12.4683 9.187L15.3745 4.96825C16.0308 4.03075 17.3433 3.7495 18.2808 4.4995L24.187 8.6245C25.1245 9.28075 25.4058 10.5933 24.6558 11.5308L21.7495 15.7495C21.0933 16.5933 19.8745 16.8745 18.8433 16.2183Z" fill="#2F44E2"/>
<path d="M18.2808 16.0308L12.3745 11.9058C11.437 11.2495 11.1558 9.937 11.9058 8.9995L14.812 4.78075C15.4683 3.84325 16.7808 3.562 17.7183 4.312L23.6245 8.437C24.562 9.09325 24.8433 10.4058 24.0933 11.3433L21.187 15.562C20.5308 16.4995 19.2183 16.687 18.2808 16.0308Z" fill="#4658E2"/>
<path d="M18.4688 6.28125L14.7188 11.7188L21.2813 12.5625L18.4688 6.28125Z" fill="#0F1D7A"/>
<path d="M14.8135 9.65676L6.56349 11.813C5.43849 12.0943 4.31349 11.438 4.03224 10.313L2.53224 4.78176C2.25099 3.65676 3.00099 2.43801 4.03224 2.15676L12.376 0.000506468C13.501 -0.280744 14.626 0.375506 14.9072 1.50051L16.3135 7.03176C16.5947 8.25051 15.9385 9.37551 14.8135 9.65676Z" fill="#1E579B"/>
<path d="M13.2193 9.84426L6.28176 11.6255C5.15676 11.9068 4.03176 11.2505 3.75051 10.1255L2.43801 5.15676C2.15676 4.03176 2.81301 2.90676 3.93801 2.62551L10.8755 0.844256C12.0005 0.563006 13.1255 1.21926 13.4068 2.34426L14.7193 7.31301C15.0005 8.43801 14.2505 9.56301 13.2193 9.84426Z" fill="#1E579B"/>
<path d="M14.2505 9.46926L7.31301 11.2505C6.18801 11.5318 5.06301 10.8755 4.78176 9.75051L3.46926 4.78176C3.18801 3.65676 3.84426 2.53176 4.96926 2.25051L11.9068 0.469256C13.0318 0.188006 14.1568 0.844256 14.438 1.96926L15.7505 6.93801C16.0318 8.06301 15.3755 9.18801 14.2505 9.46926Z" fill="#A6CAFF"/>
<path d="M13.7818 9.84426L6.84426 11.6255C5.71926 11.9068 4.59426 11.2505 4.31301 10.1255L3.00051 5.15676C2.71926 4.03176 3.37551 2.90676 4.50051 2.62551L11.438 0.844256C12.563 0.563006 13.688 1.21926 13.9693 2.34426L15.2818 7.31301C15.563 8.34426 14.9068 9.56301 13.7818 9.84426Z" fill="url(#paint0_linear_52_66532)"/>
<path d="M6.46875 3.375L8.15625 9.75L13.125 5.34375L6.46875 3.375Z" fill="#1E579B"/>
<path d="M20.7188 12.375L19.0312 8.90625L0.09375 6.84375L4.125 12.0937L20.7188 12.375Z" fill="#714113"/>
<path d="M20.5312 28.875L5.0625 24.5625V11.625L20.5312 13.875V28.875Z" fill="url(#paint1_linear_52_66532)"/>
<path d="M20.5312 28.875L26.5312 22.4062V9L20.5312 13.875V28.875Z" fill="#BB7C46"/>
<path d="M26.5312 9L12.2813 8.15625L5.0625 11.625L20.5312 13.875L26.5312 9Z" fill="#714113"/>
<path d="M8.8125 15.0009V23.4384C8.8125 23.9071 9.28125 24.1884 9.65625 24.0009L17.25 20.0634C17.625 19.8759 17.7188 19.2196 17.25 19.0321L9.65625 14.5321C9.28125 14.2509 8.8125 14.5321 8.8125 15.0009Z" fill="#99633A"/>
<path d="M9.75 16.3134V22.2196C9.75 22.6884 10.2188 22.9696 10.5938 22.7821L15.8438 20.0634C16.2188 19.8759 16.3125 19.2196 15.8438 19.0321L10.5938 15.8446C10.2188 15.5634 9.75 15.8446 9.75 16.3134Z" fill="#BB7C46"/>
<path d="M19.875 13.2188L22.9687 6.375L29.9062 3.1875L27.5625 7.875L19.875 13.2188Z" fill="#714113"/>
<path d="M20.5312 13.875L18.8438 10.4063L2.34375 8.34375L5.0625 11.625L20.5312 13.875Z" fill="#99633A"/>
<path d="M20.5312 13.875L23.5313 7.03125L28.2188 4.78125L26.5312 9L20.5312 13.875Z" fill="#99633A"/>
<path d="M10.0312 22.875L9.375 23.9062L17.5313 19.9687L16.2187 19.7812L10.0312 22.875Z" fill="#714113"/>
</g>
<defs>
<linearGradient id="paint0_linear_52_66532" x1="2.95457" y1="6.21144" x2="15.3432" y2="6.21144" gradientUnits="userSpaceOnUse">
<stop stop-color="#4280E2"/>
<stop offset="1" stop-color="#4F96FF"/>
</linearGradient>
<linearGradient id="paint1_linear_52_66532" x1="7.10878" y1="26.732" x2="19.6765" y2="12.4392" gradientUnits="userSpaceOnUse">
<stop stop-color="#DDC8AC"/>
<stop offset="1" stop-color="#DDA866"/>
</linearGradient>
<clipPath id="clip0_52_66532">
<rect width="30" height="30" fill="white"/>
</clipPath>
</defs>
</svg>
