<svg width="18" height="17" viewBox="0 0 18 17" fill="none" xmlns="http://www.w3.org/2000/svg">
<path d="M11.4827 3.89764C11.4827 3.33815 11.2072 2.82042 10.7395 2.51144L7.39929 0.281833C6.8398 -0.0939443 6.10494 -0.0939443 5.54545 0.281833L2.20521 2.51144C1.74593 2.82042 1.46201 3.33815 1.46201 3.89764V8.64079C1.46201 8.8746 1.64572 9.05832 1.87954 9.05832H11.0652C11.299 9.05832 11.4827 8.8746 11.4827 8.64079V3.89764ZM6.47237 6.97067C5.67071 6.97067 5.01101 6.31097 5.01101 5.50931C5.01101 4.70765 5.67071 4.04795 6.47237 4.04795C7.27403 4.04795 7.93372 4.70765 7.93372 5.50931C7.93372 6.31097 7.27403 6.97067 6.47237 6.97067Z" fill="#777778"/>
<path d="M17.3275 15.7392H16.267V13.234C17.0603 12.9751 17.6365 12.2319 17.6365 11.3551V9.685C17.6365 8.59107 16.743 7.69756 15.649 7.69756C14.5551 7.69756 13.6616 8.59107 13.6616 9.685V11.3551C13.6616 12.2236 14.2294 12.9584 15.006 13.2257V15.7392H11.4821V10.7288C11.4821 10.495 11.2984 10.3113 11.0645 10.3113H1.87889C1.64507 10.3113 1.46136 10.495 1.46136 10.7288V15.7392H0.626295C0.283921 15.7392 0 16.0231 0 16.3655C0 16.7079 0.283921 16.9918 0.626295 16.9918H15.5989C15.6156 16.9918 15.624 17.0001 15.6407 17.0001C15.6574 17.0001 15.6657 16.9918 15.6824 16.9918H17.3275C17.6699 16.9918 17.9538 16.7079 17.9538 16.3655C17.9538 16.0231 17.6699 15.7392 17.3275 15.7392ZM5.84542 13.234C5.84542 12.8916 6.12934 12.6077 6.47172 12.6077C6.81409 12.6077 7.09801 12.8916 7.09801 13.234V15.7392H5.84542V13.234Z" fill="#777778"/>
</svg>
