<svg width="74" height="37" viewBox="0 0 74 37" fill="none" xmlns="http://www.w3.org/2000/svg">
<g clip-path="url(#clip0_52_121411)">
<path fill-rule="evenodd" clip-rule="evenodd" d="M70.8376 8.19712H73.9L73.6648 9.29247H70.603L68.901 17.0948C68.824 17.4458 68.78 17.8032 68.7697 18.1624C68.7697 19.1506 69.3981 19.6348 70.3923 19.6348C71.1676 19.6126 71.9238 19.3941 72.5915 18.9998L72.377 20.1427C71.6456 20.544 70.8249 20.7543 69.9906 20.7539C68.3682 20.7539 67.2427 19.9166 67.2427 18.4164C67.2555 17.9971 67.3074 17.5799 67.3978 17.1702L69.1277 9.29247H67.2944L67.529 8.19712H69.3623L70.0941 4.91901L71.6845 4.31182L70.8376 8.19712ZM62.562 8.19712H65.6798L63.4807 18.3132C63.4135 18.5801 63.3696 18.8523 63.3495 19.1268C63.3495 19.4562 63.5603 19.6625 63.9778 19.6625C64.3661 19.6465 64.7439 19.5318 65.0754 19.3292L64.8407 20.3729C64.4142 20.6288 63.9267 20.7658 63.429 20.7698C62.407 20.7698 61.8581 20.2102 61.8581 19.345C61.8727 19.0282 61.9166 18.7133 61.9894 18.4045L63.9778 9.30835H62.3275L62.562 8.19712ZM66.6502 4.53803C66.6158 4.86543 66.4642 5.16944 66.223 5.39406C65.9818 5.61866 65.6675 5.74876 65.3378 5.76037C65.1269 5.76037 64.9246 5.67675 64.7754 5.52789C64.6263 5.37904 64.5425 5.17716 64.5425 4.96664C64.567 4.64811 64.7091 4.35001 64.9413 4.13005C65.1734 3.9101 65.4791 3.78395 65.7992 3.77605C66.0125 3.76729 66.2208 3.84204 66.3799 3.98437C66.5389 4.12671 66.6358 4.32537 66.6502 4.53803ZM56.8117 11.376C56.8117 10.6895 56.3663 10.1854 55.5034 10.1854C53.7496 10.1854 52.2822 11.9396 51.7056 13.8207C52.172 13.9137 52.6458 13.9642 53.1213 13.9715C55.5312 13.9675 56.8117 12.8484 56.8117 11.376ZM59.9931 11.376C59.9931 13.9437 57.4003 15.9757 53.6025 15.9757C52.829 15.9786 52.0575 15.9014 51.3 15.7455C51.3 15.8487 51.272 15.9518 51.272 16.0272C51.272 17.6147 52.3458 18.4918 53.9166 18.4918C55.4575 18.4127 56.9571 17.9679 58.2911 17.1941L57.7939 19.5752C56.334 20.35 54.7072 20.7586 53.0537 20.7658C50.0433 20.7658 47.7885 19.2657 47.7885 16.19C47.7885 11.9951 51.2204 7.98281 55.8016 7.98281C58.2275 7.97091 60.009 9.11388 60.009 11.376H59.9931ZM47.6652 11.5268C47.657 11.7574 47.6303 11.987 47.5857 12.2134L44.2373 12.2888C44.2689 12.1132 44.2861 11.9354 44.2889 11.757C44.2889 10.9196 43.9748 10.1695 42.9806 10.1695C41.9069 10.1695 40.9922 10.9633 40.3599 11.9475C39.5907 13.2047 39.1668 14.642 39.1311 16.1146C39.1311 17.7021 40.0458 18.4958 41.7239 18.4958C43.2507 18.4173 44.7342 17.9633 46.0427 17.1742L45.5177 19.5356C44.1567 20.3237 42.6135 20.7449 41.04 20.7579C37.9779 20.7579 35.6197 19.361 35.6197 16.1582C35.6197 11.9118 38.7652 7.97488 43.2669 7.97488C45.9155 7.97091 47.6692 9.34406 47.6692 11.5268H47.6652ZM29.8813 15.416L31.0185 10.3085C30.7757 10.1727 30.5015 10.1029 30.2232 10.106C27.185 10.106 25.2484 13.6778 25.2484 16.2535C25.2484 17.7021 25.8528 18.464 27.0299 18.464C27.3874 18.4784 27.7437 18.4149 28.0741 18.2778C28.4044 18.1407 28.7009 17.9334 28.9427 17.6703C29.435 17.0061 29.7585 16.2325 29.8852 15.416H29.8813ZM33.0626 8.66939L34.9476 8.18522L32.9592 17.2099C32.9065 17.4357 32.872 17.6653 32.8559 17.8965C32.8559 18.2259 33.0388 18.4045 33.4325 18.4045C33.8508 18.3702 34.2573 18.2486 34.6255 18.0473L34.2278 19.98C33.4803 20.4135 32.6307 20.641 31.7662 20.6389C30.7164 20.6389 29.8255 20.1824 29.5909 19.2935C29.1182 19.7735 28.5506 20.1501 27.9242 20.3995C27.2977 20.6489 26.6262 20.7655 25.9522 20.7421C23.3315 20.7421 21.7369 19.0633 21.7369 16.3448C21.7441 15.2345 21.9711 14.1364 22.4049 13.114C22.8385 12.0914 23.4704 11.1644 24.2642 10.3863C25.0579 9.60822 25.9979 8.99428 27.03 8.57976C28.0623 8.16525 29.1663 7.95834 30.2789 7.97091C31.2605 7.96744 32.2264 8.21765 33.0825 8.69718L33.0626 8.66939ZM16.758 3.11328H21.9277L18.8578 17.3211C18.8053 17.5468 18.7708 17.7765 18.7543 18.0077C18.7543 18.3371 18.9611 18.5156 19.3548 18.5156C19.7596 18.4791 20.1523 18.3587 20.508 18.1624L20.0865 20.0912C19.3405 20.5288 18.4902 20.7577 17.6249 20.7539C16.241 20.7539 15.2388 20.1427 15.2388 18.6704C15.2477 18.2072 15.3091 17.7466 15.4218 17.2972L17.9669 5.52225H16.2649L16.758 3.11328ZM11.5326 8.91147C11.5548 8.64654 11.5194 8.37994 11.4288 8.12992C11.3382 7.87991 11.1945 7.65239 11.0076 7.46293C10.5344 7.06605 9.77885 6.90334 8.62159 6.90334H6.59741L5.26123 12.9754H6.76046C8.43462 12.9754 9.50835 12.6222 10.2401 11.9832C10.6592 11.5901 10.9908 11.1136 11.2134 10.5844C11.4361 10.0552 11.5448 9.48528 11.5326 8.91147ZM15.2906 8.69718C15.3026 9.62597 15.1038 10.5454 14.7093 11.3867C14.3147 12.228 13.7343 12.9691 13.0119 13.5548C11.624 14.67 9.71518 15.2058 7.27746 15.2058H4.79197L3.63871 20.5237H0L2.95869 6.90334H1.12542L1.65034 4.4388H9.00735C11.3098 4.4388 12.8847 4.76821 13.9544 5.60559C14.8451 6.29217 15.2906 7.28433 15.2906 8.69718Z" fill="white"/>
<path fill-rule="evenodd" clip-rule="evenodd" d="M15.0499 31.1559C14.7217 31.1693 14.3981 31.0752 14.1281 30.8879C13.8904 30.7055 13.7335 30.4381 13.6895 30.1421L14.2444 27.702C14.3994 27.3314 14.6687 27.0195 15.0137 26.8115C15.3696 26.5758 15.7869 26.4499 16.2145 26.4494C16.4528 26.4394 16.6879 26.5094 16.8817 26.6485C17.071 26.8005 17.1995 27.0149 17.2447 27.2531C17.3171 27.5627 17.3332 27.8828 17.2919 28.1981L17.1976 28.7158L17.1756 28.8135C17.047 29.4571 16.759 30.0582 16.3379 30.5621C16.1796 30.7491 15.9819 30.8991 15.7597 31.0017C15.5369 31.1043 15.2947 31.1569 15.0499 31.1559ZM17.8467 28.7664C17.8887 28.5546 17.919 28.3407 17.9371 28.1257C17.9739 27.7275 17.9358 27.326 17.8247 26.9417C17.7291 26.598 17.5211 26.296 17.2337 26.0838C16.9366 25.8832 16.5839 25.7806 16.2248 25.7905C15.8023 25.7895 15.3857 25.8941 15.0137 26.0946C14.8225 26.1952 14.6435 26.3166 14.4802 26.4566L15.075 23.8247C15.0821 23.7991 15.0821 23.7723 15.077 23.7465C15.0712 23.7207 15.0596 23.6966 15.0428 23.6762C15.0266 23.6548 15.0059 23.6373 14.982 23.6254C14.9575 23.6134 14.9316 23.6073 14.9045 23.6074H14.6287C14.5848 23.6079 14.5421 23.6232 14.5079 23.6509C14.4737 23.6784 14.4498 23.7167 14.4401 23.7595L12.7426 31.4744C12.7368 31.5001 12.7368 31.5266 12.7426 31.5522C12.7478 31.5779 12.7594 31.602 12.7749 31.6229C12.7911 31.6439 12.8124 31.6607 12.8363 31.6721C12.8602 31.6835 12.8867 31.689 12.9132 31.688H13.1922C13.2355 31.6882 13.2775 31.6736 13.311 31.6465C13.3447 31.6195 13.3679 31.5818 13.3776 31.5396L13.4719 31.1378C13.5978 31.2936 13.7535 31.4239 13.9285 31.5215C14.2618 31.7041 14.6371 31.7965 15.0169 31.7894C15.3341 31.7901 15.6473 31.7262 15.9386 31.6018C16.2299 31.4772 16.4928 31.2947 16.7111 31.0654C17.2253 30.5138 17.5857 29.8371 17.7562 29.1031L17.8467 28.7664Z" fill="white"/>
<path fill-rule="evenodd" clip-rule="evenodd" d="M23.4075 25.9865C23.3914 25.9591 23.3687 25.9364 23.3416 25.9205C23.3138 25.9046 23.2828 25.8961 23.2512 25.896H22.9392C22.9063 25.8964 22.8733 25.9053 22.8443 25.9217C22.8145 25.9382 22.79 25.9617 22.7725 25.9901L20.0229 30.5662L19.2245 26.0299C19.2167 25.9897 19.1954 25.9534 19.1632 25.9276C19.1315 25.9017 19.0914 25.888 19.0508 25.8887H18.7568C18.7291 25.8891 18.7013 25.8954 18.6767 25.9073C18.6515 25.9191 18.6296 25.9363 18.6115 25.9575C18.5934 25.9779 18.5799 26.0022 18.5721 26.0286C18.565 26.0549 18.5631 26.0826 18.5682 26.1095L19.5223 31.4243L19.0249 32.2641L18.8111 32.5864C18.7039 32.7757 18.5515 32.9354 18.3673 33.051C18.1833 33.1667 17.9727 33.2348 17.7557 33.2489C17.6491 33.2431 17.5438 33.2285 17.4398 33.2054C17.4153 33.2018 17.3894 33.2031 17.3656 33.2093C17.341 33.2156 17.3184 33.2266 17.2984 33.2417C17.257 33.271 17.2286 33.3151 17.2183 33.3648L17.1789 33.6254C17.1704 33.6685 17.1795 33.7128 17.2028 33.7498C17.2266 33.7867 17.2635 33.8134 17.3055 33.8246C17.4546 33.8658 17.6084 33.8866 17.7628 33.8861C18.118 33.8803 18.4623 33.7653 18.7491 33.5566C19.1102 33.2741 19.406 32.9173 19.6165 32.5104L23.4004 26.182C23.4159 26.1538 23.4243 26.122 23.4243 26.0897C23.4243 26.0573 23.4159 26.0255 23.4004 25.9974" fill="white"/>
<path d="M37.7906 24.7324C35.7702 24.7324 34.3008 26.2313 34.3008 28.2949C34.3189 28.994 34.5404 29.673 34.937 30.2495C35.3336 30.826 35.8897 31.2754 36.537 31.5435C37.1841 31.8115 37.8953 31.8867 38.5845 31.7599C39.2737 31.6332 39.9119 31.3099 40.4209 30.8291C40.5552 30.6965 40.634 30.518 40.6418 30.3295C40.6437 30.2517 40.6289 30.1746 40.5998 30.1026C40.57 30.0307 40.5262 29.9655 40.4706 29.9113C40.4144 29.8569 40.3479 29.8147 40.2755 29.787C40.2025 29.7592 40.125 29.7468 40.0468 29.7503C39.9552 29.7524 39.8647 29.7727 39.7801 29.8099C39.6961 29.8473 39.6206 29.9008 39.5573 29.9675C39.3383 30.1968 39.0747 30.3792 38.7828 30.5037C38.4909 30.6282 38.1769 30.6921 37.8598 30.6915C37.3192 30.7011 36.7953 30.5026 36.3974 30.1372C35.9996 29.7718 35.758 29.2677 35.7231 28.7293H40.2865C40.7833 28.7293 41.0118 28.4976 41.0118 28.0053C41.0151 27.8575 41.0054 27.7097 40.9828 27.5635C40.7509 25.7715 39.5502 24.7324 37.7906 24.7324ZM37.7906 25.8366C38.879 25.8366 39.6045 26.5354 39.6335 27.6468H35.7231C35.7754 27.139 36.017 26.6694 36.4 26.3308C36.783 25.9923 37.2791 25.8095 37.7906 25.8185V25.8366Z" fill="white"/>
<path d="M45.384 24.7325C44.9416 24.7294 44.5069 24.8442 44.1238 25.0651C43.7414 25.2859 43.4249 25.6049 43.2073 25.9887V25.5181C43.2169 25.4257 43.2066 25.3324 43.1782 25.2441C43.1492 25.1559 43.1026 25.0746 43.04 25.0056C42.978 24.9366 42.9017 24.8814 42.8171 24.8437C42.7319 24.8059 42.6402 24.7864 42.5471 24.7864C42.4535 24.7864 42.3617 24.8059 42.2771 24.8437C42.1919 24.8814 42.1156 24.9366 42.0537 25.0056C41.991 25.0746 41.9445 25.1559 41.9154 25.2441C41.887 25.3324 41.8766 25.4257 41.8864 25.5181V30.9812C41.8766 31.0785 41.887 31.1767 41.9174 31.2696C41.9484 31.3625 41.9981 31.448 42.0633 31.5206C42.1292 31.5931 42.2093 31.651 42.2991 31.6908C42.3883 31.7305 42.4851 31.751 42.5833 31.751C42.6808 31.751 42.7778 31.7305 42.8675 31.6908C42.9567 31.651 43.0374 31.5931 43.1026 31.5206C43.1685 31.448 43.2182 31.3625 43.2486 31.2696C43.279 31.1767 43.2893 31.0785 43.2796 30.9812V28.0523C43.2796 26.778 44.005 25.8801 45.0352 25.8801C46.0655 25.8801 46.5266 26.5354 46.5266 27.8858V30.9703C46.5163 31.0676 46.5273 31.1659 46.5576 31.2587C46.588 31.3516 46.6378 31.4371 46.7036 31.5096C46.7688 31.5822 46.8489 31.6402 46.9388 31.6799C47.0279 31.7196 47.1248 31.7401 47.223 31.7401C47.3211 31.7401 47.418 31.7196 47.5072 31.6799C47.5969 31.6402 47.6771 31.5822 47.7429 31.5096C47.8081 31.4371 47.8579 31.3516 47.8882 31.2587C47.9186 31.1659 47.9296 31.0676 47.9192 30.9703V27.4622C47.9121 26.1336 47.2482 24.7325 45.384 24.7325Z" fill="white"/>
<path d="M54.2 24.7839C54.0392 24.7866 53.8842 24.8425 53.7589 24.9427C53.6335 25.043 53.5451 25.1819 53.5069 25.3378L51.6028 30.113L49.7161 25.3378C49.678 25.1795 49.5875 25.0388 49.459 24.9383C49.3305 24.8377 49.1722 24.7834 49.0088 24.7839C48.919 24.7824 48.8292 24.7987 48.7459 24.8317C48.6619 24.8648 48.5857 24.914 48.5211 24.9766C48.4559 25.0391 48.4042 25.1137 48.3687 25.1962C48.3332 25.2787 48.3137 25.3674 48.3125 25.4573C48.3131 25.5922 48.3428 25.7256 48.3997 25.8482L50.5758 31C50.6391 31.2167 50.7715 31.407 50.9523 31.5424C51.1332 31.6777 51.3528 31.7509 51.5789 31.7509C51.8049 31.7509 52.0252 31.6777 52.2061 31.5424C52.387 31.407 52.5187 31.2167 52.582 31L54.7949 25.8193C54.8447 25.7045 54.8744 25.5821 54.8822 25.4573C54.8854 25.3673 54.8699 25.2778 54.8363 25.1942C54.8033 25.1107 54.7529 25.0348 54.689 24.9716C54.6244 24.9084 54.5482 24.859 54.4642 24.8267C54.3803 24.7944 54.2898 24.7798 54.2 24.7839Z" fill="white"/>
<path d="M58.2426 24.7332C57.4113 24.7168 56.5962 24.9598 55.9096 25.4284C55.8153 25.4849 55.7371 25.565 55.6829 25.6609C55.6293 25.7567 55.6008 25.865 55.6015 25.975C55.5995 26.0471 55.6125 26.1188 55.6383 26.1859C55.6648 26.253 55.7041 26.3142 55.7545 26.3658C55.805 26.4175 55.865 26.4585 55.9316 26.4865C55.9981 26.5146 56.0697 26.5289 56.1421 26.5289C56.2984 26.5194 56.4482 26.4611 56.5704 26.3624C57.0244 26.0349 57.5696 25.8554 58.1302 25.8483C59.1605 25.8483 59.7483 26.3696 59.7483 27.2964V27.4485C57.441 27.4485 55.0938 27.7309 55.0938 29.733C55.0938 31.181 56.3307 31.8219 57.5534 31.8219C57.9926 31.8415 58.43 31.7496 58.8239 31.5546C59.218 31.3595 59.5558 31.0678 59.8058 30.7068V31.0688C59.7935 31.1607 59.8006 31.2543 59.8284 31.3429C59.8555 31.4317 59.902 31.5134 59.964 31.5823C60.026 31.6513 60.1029 31.7058 60.1882 31.7422C60.2734 31.7786 60.3664 31.7959 60.4588 31.7929C60.5499 31.7929 60.6397 31.7733 60.7223 31.7354C60.805 31.6976 60.878 31.6425 60.9374 31.5737C60.9968 31.5049 61.0401 31.4243 61.0653 31.3372C61.0905 31.25 61.0963 31.1585 61.0828 31.0688V27.3652C61.0686 25.7035 60.0131 24.7332 58.2426 24.7332ZM59.4434 28.4694H59.7334V28.788C59.7534 29.0433 59.7185 29.3 59.6313 29.5406C59.5435 29.7812 59.4047 30.0002 59.2251 30.1828C59.0448 30.3654 58.8278 30.5073 58.5882 30.599C58.3486 30.6906 58.0921 30.7298 57.8364 30.714C57.5205 30.714 56.4973 30.6416 56.4973 29.704C56.4973 28.5781 58.1774 28.4513 59.4434 28.4513V28.4694Z" fill="white"/>
<path d="M64.6865 26.0438C64.7672 26.0554 64.8492 26.0494 64.9267 26.0262C65.0042 26.0029 65.0766 25.963 65.1373 25.9093C65.198 25.8554 65.2465 25.7891 65.2788 25.7148C65.3111 25.6405 65.3272 25.5601 65.3253 25.479C65.3285 25.3969 65.3136 25.3149 65.282 25.239C65.2503 25.1631 65.2026 25.095 65.1418 25.0395C65.0811 24.984 65.0088 24.9424 64.9299 24.9177C64.8512 24.8929 64.7685 24.8855 64.6865 24.8962H63.4353V23.6472C63.4476 23.5498 63.4385 23.451 63.4102 23.3572C63.3811 23.2634 63.3326 23.1769 63.2674 23.1033C63.2022 23.0297 63.1221 22.9708 63.0329 22.9304C62.9432 22.89 62.8456 22.8691 62.7474 22.8691C62.6492 22.8691 62.5523 22.89 62.4626 22.9304C62.3728 22.9708 62.2927 23.0297 62.2281 23.1033C62.1629 23.1769 62.1144 23.2634 62.0853 23.3572C62.0563 23.451 62.0479 23.5498 62.0601 23.6472V29.6316C62.0601 31.0146 62.7423 31.7458 64.0373 31.7458C64.3363 31.7541 64.6342 31.6998 64.9113 31.5866C65.0223 31.5418 65.1173 31.466 65.1857 31.3683C65.2536 31.2706 65.2923 31.1553 65.2962 31.0362C65.2988 30.9633 65.2859 30.8907 65.2594 30.8227C65.2322 30.7548 65.1922 30.6931 65.1399 30.6416C65.0882 30.5899 65.0269 30.5495 64.9584 30.5227C64.8906 30.496 64.8176 30.4834 64.7446 30.486C64.66 30.4892 64.5753 30.5038 64.4946 30.5294C64.401 30.555 64.3048 30.5684 64.2078 30.5692C63.6814 30.5692 63.4353 30.2253 63.4353 29.4831V26.0438H64.6865Z" fill="white"/>
<path d="M69.2842 24.7324C67.1836 24.7324 65.6567 26.2167 65.6567 28.2695C65.649 28.744 65.7375 29.2153 65.9164 29.655C66.0953 30.0946 66.3614 30.4939 66.6979 30.8291C67.3955 31.4883 68.3237 31.8483 69.2842 31.832C69.7609 31.8476 70.2356 31.7667 70.68 31.5943C71.1244 31.4218 71.5294 31.1612 71.8705 30.8283C72.2109 30.4953 72.4802 30.097 72.663 29.6572C72.8451 29.2175 72.9362 28.7454 72.9304 28.2695C72.9304 26.1986 71.3957 24.7324 69.2842 24.7324ZM69.2842 30.6554C67.8334 30.6554 67.0893 29.457 67.0893 28.2695C67.0893 26.6367 68.2288 25.8946 69.2842 25.8946C70.3403 25.8946 71.4829 26.6367 71.4829 28.2695C71.4829 29.9023 70.3545 30.6373 69.2842 30.6373V30.6554Z" fill="white"/>
<path d="M31.9264 24.0812C30.8089 22.7742 27.1924 25.3085 27.2105 28.5668C27.2105 28.6071 27.1943 28.6458 27.166 28.6743C27.1369 28.7029 27.0981 28.7189 27.0581 28.7189C27.0316 28.7193 27.0057 28.7129 26.9832 28.7002C26.9599 28.6875 26.9405 28.669 26.9276 28.6465C26.717 28.1924 26.6072 27.6985 26.6046 27.1983C26.604 26.8201 26.6667 26.4445 26.7894 26.0869C26.7984 26.0559 26.7965 26.0228 26.7842 25.993C26.7726 25.9632 26.7506 25.9382 26.7229 25.9219C26.6951 25.9058 26.6628 25.8994 26.6305 25.9036C26.5988 25.9079 26.5691 25.9227 26.5465 25.9457C25.9503 26.5907 25.6203 27.4361 25.6216 28.3134C25.6138 28.7747 25.6997 29.2327 25.8728 29.6603C26.0466 30.0879 26.3043 30.4764 26.6311 30.8026C26.958 31.1288 27.3475 31.3862 27.7757 31.5594C28.2046 31.7326 28.6632 31.8179 29.1257 31.8107C34.0812 31.6948 32.9237 25.2469 31.9264 24.0812Z" fill="#80B341"/>
</g>
<defs>
<clipPath id="clip0_52_121411">
<rect width="74" height="30.7723" fill="white" transform="translate(0 3.11328)"/>
</clipPath>
</defs>
</svg>
