<svg width="18" height="19" viewBox="0 0 18 19" fill="none" xmlns="http://www.w3.org/2000/svg">
<path d="M12.8778 6.25387C12.4069 6.21328 11.9922 6.56251 11.9517 7.03392C11.9111 7.50532 12.26 7.92037 12.731 7.96097L12.8778 6.25387ZM5.20634 7.96899C5.67701 7.92508 6.023 7.50757 5.97912 7.03647C5.93525 6.56536 5.51812 6.21906 5.04746 6.26298L5.20634 7.96899ZM12.731 7.96097C14.1439 8.08274 14.9663 8.4906 15.465 9.10576C15.9828 9.74457 16.288 10.7712 16.288 12.4276H17.9998C17.9998 10.6143 17.6758 9.11362 16.7942 8.02616C15.8936 6.91506 14.5463 6.39767 12.8778 6.25387L12.731 7.96097ZM16.288 12.4276V12.5389H17.9998V12.4276H16.288ZM16.288 12.5389C16.288 14.3689 15.9167 15.4278 15.2944 16.0507C14.6721 16.6736 13.6142 17.0452 11.7859 17.0452V18.7586C13.7835 18.7586 15.4046 18.3635 16.5048 17.2623C17.6051 16.161 17.9998 14.5384 17.9998 12.5389H16.288ZM11.7859 17.0452H6.21391V18.7586H11.7859V17.0452ZM6.21391 17.0452C4.38561 17.0452 3.32772 16.6736 2.70541 16.0507C2.0831 15.4278 1.71182 14.3689 1.71182 12.5389H0C0 14.5384 0.394761 16.161 1.49497 17.2623C2.59518 18.3635 4.2163 18.7586 6.21391 18.7586V17.0452ZM1.71182 12.5389V12.4276H0V12.5389H1.71182ZM1.71182 12.4276C1.71182 10.7838 2.01272 9.76061 2.52354 9.12149C3.01456 8.50714 3.82201 8.09816 5.20634 7.96899L5.04746 6.26298C3.40188 6.41652 2.07383 6.94136 1.18683 8.05113C0.319632 9.13613 0 10.6274 0 12.4276H1.71182Z" fill="#010101"/>
<path d="M8.14834 12.3328C8.14834 12.806 8.53155 13.1895 9.00425 13.1895C9.47696 13.1895 9.86016 12.806 9.86016 12.3328H8.14834ZM9.86016 2.58351C9.86016 2.11036 9.47696 1.7268 9.00425 1.7268C8.53155 1.7268 8.14834 2.11036 8.14834 2.58351H9.86016ZM9.86016 12.3328V2.58351H8.14834V12.3328H9.86016Z" fill="#010101"/>
<path d="M11.0154 3.63744L8.14813 0.767467L5.28083 3.63744" fill="#010101"/>
<path d="M11.0154 3.63744L8.14813 0.767467L5.28083 3.63744" stroke="#010101" stroke-width="1.5" stroke-linecap="round" stroke-linejoin="round"/>
</svg>
