<svg width="30" height="30" viewBox="0 0 30 30" fill="none" xmlns="http://www.w3.org/2000/svg">
<g clip-path="url(#clip0_52_51116)">
<path d="M13.341 18.1117C13.6584 19.7611 13.7216 21.4494 13.5285 23.118C13.1816 25.6305 13.2004 25.4711 13.2004 25.4711C13.2004 25.4711 16.716 24.8898 17.8879 23.5398C19.0597 22.1898 20.5504 17.343 20.5504 17.343L19.1254 15.7305L13.341 18.1117Z" fill="#8E4028"/>
<path d="M28.9032 15.4679C28.5597 18.4689 27.0384 21.2105 24.6738 23.0899C22.3091 24.9693 19.2948 25.8326 16.2938 25.4898C10.0501 24.7773 6.54382 19.1148 7.70632 12.9273C8.64382 7.78041 13.9501 2.89603 20.1938 3.60853C26.4376 4.32103 29.6251 9.21478 28.9032 15.4679Z" fill="#8E4028"/>
<path d="M28.7908 15.1321C28.097 21.1321 21.6751 27.6853 15.8533 27.0196C10.0314 26.354 7.01263 18.7509 7.70638 12.7134C8.40013 6.6759 12.272 2.22277 19.5001 3.04777C22.3343 3.41897 24.9051 4.90045 26.6473 7.16653C28.3895 9.4326 29.1605 12.2978 28.7908 15.1321Z" fill="#8E4028"/>
<path d="M22.8638 15.9693C23.3664 11.5919 20.3337 7.64828 16.09 7.16102C11.8463 6.67376 7.99862 9.82737 7.496 14.2048C6.99339 18.5822 10.0261 22.5259 14.2698 23.0131C18.5135 23.5004 22.3612 20.3468 22.8638 15.9693Z" fill="#8E4028"/>
<path d="M25.4998 14.1838C25.4998 14.1838 26.0342 17.4651 24.9467 18.7588C23.8592 20.0526 28.2186 20.6338 28.2186 20.6338C28.2186 20.6338 29.9717 17.1182 29.5967 15.112C29.2217 13.1057 25.4998 14.1838 25.4998 14.1838Z" fill="#8E4028"/>
<path d="M21.3283 22.5652C22.8283 22.659 19.7533 27.0934 18.0377 27.5809C16.1219 28.0634 14.1098 28.005 12.2252 27.4121C10.9971 26.8402 8.4377 22.3121 8.01582 20.9152C7.56582 19.3027 7.34082 18.3652 7.34082 18.3652C7.34082 18.3652 7.67832 18.5902 8.52207 19.1059C9.9002 19.9496 13.1721 22.0871 21.3283 22.5652Z" fill="#8E4028"/>
<path d="M15.5908 18.8344C15.5908 18.8344 18.1033 18.0469 19.5564 18.8344C19.5564 18.8344 20.2502 19.5937 19.8471 19.8281C19.4439 20.0625 18.9096 20.4844 18.6283 20.0906C17.7681 19.3712 16.7079 18.9327 15.5908 18.8344Z" fill="#8E4028"/>
<path d="M9.9089 16.9883C9.9089 16.9883 9.3464 15.3102 8.16515 15.207C8.16515 15.207 7.3214 15.4414 7.34015 15.7789C7.3589 16.1164 7.27453 16.6414 7.6964 16.5102C8.4681 16.3714 9.26335 16.5433 9.9089 16.9883Z" fill="#8E4028"/>
<path d="M20.7652 22.6414L24.3746 21.1602L25.0027 22.9227C23.5155 24.8136 21.4728 26.1907 19.1621 26.8602L20.7652 22.6414Z" fill="#8E4028"/>
<path d="M12.6191 16.5652L14.6629 17.0059L14.991 15.5434L12.6473 15.084L12.6191 16.5652Z" fill="#8E4028"/>
<path d="M15.9375 13.7905C16.478 13.4401 17.0859 13.2066 17.722 13.1049C18.3581 13.0031 19.0084 13.0355 19.6313 13.1999C21.6375 13.7905 23.1937 15.5999 22.2469 15.9562C21.3 16.3124 20.8031 15.5343 20.3719 14.8312C19.9406 14.128 18.4406 13.4905 16.875 14.7187C16.875 14.7187 16.0406 14.4655 15.9375 13.7905Z" fill="#8E4028"/>
<path d="M23.8408 7.56622C19.2658 5.9256 12.4502 4.75372 8.84082 8.8506C10.5158 9.62401 12.2656 10.224 14.0627 10.6412L15.3096 10.1443C19.3971 8.26935 23.7471 9.39435 26.3814 10.4725C26.2044 9.82788 25.8839 9.23166 25.444 8.72839C25.004 8.22512 24.456 7.82783 23.8408 7.56622Z" fill="#8E4028"/>
<path d="M28.3408 6.75082L27.2815 10.6039C27.2815 10.6039 21.2627 6.85394 15.8533 9.30082L14.794 9.70394C14.794 9.70394 9.37521 8.68207 8.94396 7.65082C8.60133 7.14921 8.37764 6.57605 8.28991 5.97496C8.20219 5.37386 8.25273 4.76068 8.43771 4.18207C8.77492 4.85179 9.0571 5.54784 9.28146 6.26332C9.28146 6.26332 9.37521 2.81332 11.8408 1.77269C11.8408 1.77269 11.4565 2.14769 11.6346 3.64769C11.6346 3.64769 16.0596 0.366444 19.1815 0.450819C18.3837 1.21084 17.896 2.23963 17.8127 3.33832C20.1175 2.48631 22.5909 2.19079 25.0315 2.47582C24.6935 3.16256 24.2542 3.79462 23.7283 4.35082C25.3252 5.03125 26.8672 5.83362 28.3408 6.75082Z" fill="#8E4028"/>
<path d="M24.375 9.71289L22.4062 11.6816C22.4062 11.6816 24.5156 15.1316 24.0938 18.6473L29.4375 16.116L28.6125 9.98477C28.6125 9.98477 26.3813 9.77852 24.375 9.71289Z" fill="#8E4028"/>
<path d="M23.25 17.3625C23.325 17.3625 25.8844 16.9688 25.8844 16.9688L25.9875 17.6531L23.2688 19.1531L23.5406 17.6813L23.25 17.3625Z" fill="#8E4028"/>
<path d="M28.2094 11.0254L23.25 11.6629C23.25 11.6629 23.5875 11.2879 23.9063 12.7598C23.9063 12.7598 26.9906 13.0316 27.15 13.0316C27.3094 13.0316 28.7906 12.666 28.7906 12.666L28.2094 11.0254Z" fill="#8E4028"/>
<path d="M24.6186 2.47461C23.2242 3.3931 21.6636 4.03006 20.0248 4.34961L24.2998 5.77461C22.9069 6.07869 21.4986 6.30715 20.0811 6.45898C19.2102 6.51688 18.3451 6.64226 17.4936 6.83398L23.5592 7.72461C23.5592 7.72461 18.8717 7.78086 16.7529 8.94336C16.7529 8.94336 22.5467 7.71523 27.2811 10.5746L28.0498 10.2652L29.7373 7.36836C28.3655 6.47121 26.8765 5.7677 25.3123 5.27773L24.0936 4.75273C24.0936 4.75273 24.7404 3.09336 25.0311 2.47461H24.6186Z" fill="#8E4028"/>
<path d="M29.7377 7.38828L24.7221 7.28516L27.1877 8.49453L22.3877 8.71016C22.3877 8.71016 24.8158 9.01953 25.8189 10.6602L26.6064 10.9227L28.3971 10.5008L29.7377 7.38828Z" fill="#8E4028"/>
<path d="M8.4375 6.60938C9.30081 7.28546 10.3134 7.74514 11.3906 7.95L17.8125 8.4375L15 9.70313C15 9.70313 10.4719 9.1125 9.66563 8.4375C9.11464 7.93623 8.69326 7.30898 8.4375 6.60938Z" fill="#8E4028"/>
<path d="M12.5996 2.01562C12.5996 2.01562 11.8777 4.6875 12.5434 6.4125C11.797 5.38784 11.3905 4.15511 11.3809 2.8875C11.4684 2.63367 11.6328 2.41337 11.8512 2.25715C12.0695 2.10092 12.3311 2.01651 12.5996 2.01562Z" fill="#8E4028"/>
<path d="M16.987 0.880859C16.987 0.880859 14.062 1.87461 13.1245 3.33711C12.5699 4.02173 12.2833 4.88481 12.3183 5.76523C12.6253 4.83615 13.2154 4.02643 14.0058 3.44961C15.093 2.70821 16.0931 1.84651 16.987 0.880859Z" fill="#8E4028"/>
<path d="M22.4996 2.81167C22.4996 2.81167 19.209 2.71792 17.1559 4.24604C16.0718 5.07229 14.9246 5.81207 13.7246 6.45854L17.7559 4.98667C17.7559 4.98667 20.8215 2.90542 22.4996 2.81167Z" fill="#8E4028"/>
<path d="M26.0154 18.8993C26.0154 18.8993 27.7404 17.6993 28.631 17.8774C29.5217 18.0555 30.356 22.2368 27.056 22.5649C23.756 22.893 26.0154 18.8993 26.0154 18.8993Z" fill="#8E4028"/>
<path d="M25.884 19.2463C25.884 19.2463 28.0121 16.8744 29.0621 17.09C30.1121 17.3057 30.8621 22.865 26.934 23.165C23.0059 23.465 25.884 19.2463 25.884 19.2463Z" fill="#8E4028"/>
<path d="M26.3066 18.6563C26.9629 18.2397 27.7148 17.9977 28.4909 17.9531C29.2503 18.1125 29.8222 21.8344 27.0284 21.9937C24.2347 22.1531 26.3066 18.6563 26.3066 18.6563Z" fill="#8E4028"/>
<path d="M25.9402 18.9375C26.5966 18.521 27.3485 18.279 28.1246 18.2344C28.8746 18.3938 29.4465 22.1156 26.6621 22.275C23.8777 22.4344 25.9402 18.9375 25.9402 18.9375Z" fill="#8E4028"/>
<path d="M15.6471 25.8273C14.3908 27.168 11.4096 26.3617 11.5877 25.1055L15.6471 25.8273Z" fill="#8E4028"/>
<path d="M19.0125 23.0152C18.4281 23.1977 17.8236 23.3079 17.2125 23.3434C14.8312 23.3361 12.4622 23.0018 10.1719 22.3496C10.4574 22.5548 10.7739 22.7131 11.1094 22.8184C11.4106 23.2904 11.6086 23.8207 11.6906 24.3746C11.4562 24.3746 11.2406 24.5246 10.8562 24.3746C12.4018 25.2348 14.1868 25.5641 15.9375 25.3121C17.1771 24.8205 18.3318 24.1372 19.3594 23.2871C19.2355 23.2075 19.1194 23.1165 19.0125 23.0152Z" fill="#8E4028"/>
<path d="M19.5098 22.893L19.3035 22.743H19.3691C19.2926 22.7174 19.2223 22.6758 19.1629 22.6211C18.5504 22.9062 17.8944 23.0868 17.2223 23.1555C14.8228 23.1865 12.4375 22.7831 10.1816 21.9648V22.3867C10.5066 22.6063 10.8687 22.7651 11.2504 22.8555C11.5058 23.4148 11.64 24.0218 11.6441 24.6367C11.3601 24.5995 11.0805 24.5336 10.8098 24.4398C12.3941 25.6117 16.2848 26.1367 17.2504 25.7148C18.0004 25.3961 18.3473 24.3836 19.5098 22.9023V22.893Z" fill="#8E4028"/>
<path d="M11.5875 23.0352C11.7998 23.4555 11.9393 23.9088 12 24.3758V24.4414C12.1808 24.5168 12.3654 24.5825 12.5531 24.6383C13.1631 24.8408 13.7909 24.9852 14.4281 25.0695C14.8719 25.1445 15.325 25.1445 15.7687 25.0695C16.3654 24.8517 16.9349 24.5654 17.4656 24.2164C17.8406 23.9914 18.1969 23.7477 18.5531 23.4945C18.0952 23.6064 17.6273 23.6723 17.1562 23.6914C15.2642 23.6829 13.3785 23.4723 11.5312 23.0633L11.5875 23.0352Z" fill="#8E4028"/>
<path d="M11.5879 23.0352C11.6463 23.2822 11.741 23.5191 11.8691 23.7383C12.0582 23.8386 12.2522 23.9293 12.4504 24.0102C12.3354 24.0185 12.2271 24.0674 12.1447 24.148C12.0623 24.2287 12.0112 24.336 12.0004 24.4508C12.9379 24.807 15.6004 25.3039 16.5191 25.0039C16.8408 24.9147 17.1544 24.7987 17.4566 24.657C17.0402 24.5403 16.6177 24.4465 16.191 24.3758C16.6798 24.351 17.1583 24.2266 17.5973 24.0102C17.77 23.8982 17.9068 23.7386 17.991 23.5508C17.7312 23.5985 17.4677 23.6236 17.2035 23.6258C15.316 23.629 13.4335 23.431 11.5879 23.0352Z" fill="#8E4028"/>
<path d="M11.7002 23.4375C11.7431 23.5562 11.7998 23.6694 11.8689 23.775C12.058 23.8753 12.252 23.966 12.4502 24.0469C12.3352 24.0552 12.2269 24.1041 12.1445 24.1848C12.0621 24.2654 12.011 24.3727 12.0002 24.4875C13.148 24.952 14.3817 25.1662 15.6189 25.1156C15.8893 24.8035 16.0621 24.4188 16.1158 24.0094C14.63 23.9486 13.1525 23.7572 11.7002 23.4375Z" fill="#8E4028"/>
<path d="M21.4502 20.39C20.5025 20.3059 19.5498 20.4809 18.6939 20.8962C17.9402 20.9315 17.1859 20.8396 16.4627 20.6243C14.7939 19.4243 15.5252 17.6618 16.4627 16.4993C16.6726 16.2444 16.9462 16.0495 17.2557 15.9343C17.5652 15.819 17.8996 15.7876 18.2252 15.8431C19.4694 16.0157 20.6727 16.4094 21.7783 17.0056C22.0971 17.7931 22.4064 20.09 21.4221 20.3806L21.4502 20.39Z" fill="#8E4028"/>
<path d="M21.4501 20.3914C20.5874 20.371 19.7313 20.5473 18.9469 20.9071C18.1888 20.882 17.4418 20.7167 16.7438 20.4196C16.3784 19.9015 16.2106 19.2696 16.2708 18.6385C16.331 18.0073 16.6152 17.4186 17.0719 16.9789C18.0844 16.7914 21.1969 17.3727 21.8251 18.0758C22.0247 18.448 22.0961 18.8756 22.0283 19.2925C21.9605 19.7093 21.7573 20.0923 21.4501 20.3821V20.3914Z" fill="#8E4028"/>
<path d="M16.3311 18.301C16.6104 17.6065 17.0174 16.9705 17.5311 16.426C18.5342 16.2385 20.7654 16.3041 21.3842 17.0072C21.6829 17.661 21.9062 18.3467 22.0498 19.051C20.8873 20.0541 16.8467 20.0916 16.3686 18.4978V18.3385L16.3311 18.301Z" fill="#8E4028"/>
<path d="M21.3753 17.8129C21.5499 17.9857 21.6875 18.1923 21.7796 18.42C21.8717 18.6478 21.9166 18.8919 21.9113 19.1375C21.906 19.3831 21.8508 19.6251 21.749 19.8486C21.6472 20.0722 21.5009 20.2727 21.3191 20.4379C20.6812 20.4444 20.0483 20.552 19.4441 20.7566C19.0827 20.5979 18.7831 20.3254 18.591 19.9806C18.399 19.6358 18.3249 19.2377 18.3801 18.8469C18.4353 18.456 18.6168 18.094 18.8969 17.8159C19.177 17.5379 19.5404 17.359 19.9316 17.3066C20.4428 17.4192 20.9397 17.589 21.4128 17.8129H21.3753Z" fill="#8E4028"/>
<path d="M20.1753 17.9996C20.4465 18.0258 20.6966 18.1573 20.8719 18.3659C21.0472 18.5745 21.1337 18.8436 21.1128 19.1152C21.0982 19.3913 20.9764 19.6507 20.7732 19.8381C20.57 20.0255 20.3016 20.1261 20.0253 20.1184C19.7523 20.0922 19.5007 19.9593 19.3252 19.7487C19.1496 19.538 19.0643 19.2666 19.0878 18.9934C19.0926 18.8563 19.1247 18.7215 19.1822 18.5969C19.2397 18.4724 19.3215 18.3606 19.4228 18.268C19.5241 18.1755 19.6428 18.1041 19.772 18.058C19.9012 18.0119 20.0383 17.9921 20.1753 17.9996Z" fill="#8E4028"/>
<path d="M11.4097 14.6634C11.8572 16.1861 11.6958 17.823 10.9597 19.229C10.3462 19.4436 9.68757 19.4951 9.04825 19.3784C8.40892 19.2617 7.8109 18.9808 7.31281 18.5634C6.94719 17.1009 7.16281 15.0009 8.25031 13.979C8.47171 13.7389 8.75199 13.5608 9.0634 13.4623C9.37481 13.3638 9.70655 13.3484 10.0258 13.4175C10.345 13.4866 10.6406 13.638 10.8833 13.8565C11.1261 14.075 11.3075 14.3532 11.4097 14.6634Z" fill="#8E4028"/>
<path d="M11.4281 15.1134C11.8516 16.6038 11.7286 18.1964 11.0812 19.6041C9.83245 19.6537 8.60152 19.295 7.57497 18.5822C7.39792 17.8767 7.39058 17.1393 7.55354 16.4304C7.71649 15.7216 8.04512 15.0614 8.51247 14.5041C8.71828 14.2883 8.97574 14.1286 9.26048 14.04C9.54522 13.9515 9.84784 13.937 10.1397 13.998C10.4316 14.059 10.7031 14.1935 10.9286 14.3887C11.154 14.5838 11.3259 14.8333 11.4281 15.1134Z" fill="#8E4028"/>
<path d="M11.4473 15.5163C11.6736 16.0711 11.7512 16.6754 11.6723 17.2694C10.6316 18.5069 7.72539 18.3476 7.69727 15.9382C7.85538 15.3872 8.14863 14.8845 8.55039 14.4757C9.46914 13.6319 10.9785 14.2976 11.4473 15.5163Z" fill="#8E4028"/>
<path d="M10.4341 15.1885C10.9071 15.2756 11.3285 15.5413 11.6112 15.9304C11.8938 16.3195 12.0162 16.8023 11.9529 17.2791C11.8966 18.2166 11.2591 19.2478 10.2091 19.1541C9.73433 19.0669 9.31145 18.7999 9.02855 18.4087C8.74565 18.0175 8.62452 17.5323 8.6904 17.0541C8.73727 16.1822 9.37477 15.1228 10.4341 15.1885Z" fill="#8E4028"/>
<path d="M10.3872 16.0039C10.6631 16.0586 10.907 16.2181 11.0679 16.4488C11.2287 16.6796 11.2938 16.9636 11.2497 17.2414C11.2601 17.5237 11.1602 17.799 10.9713 18.0089C10.7823 18.2189 10.519 18.3471 10.2372 18.3664C9.96204 18.3139 9.71816 18.1563 9.55717 17.927C9.39619 17.6978 9.33074 17.4149 9.37468 17.1383C9.36178 16.8544 9.4605 16.5767 9.64973 16.3647C9.83897 16.1527 10.1037 16.0232 10.3872 16.0039Z" fill="#8E4028"/>
<path d="M10.6409 15.0001C10.8077 15.0171 10.9657 15.0829 11.0953 15.1892C11.225 15.2955 11.3204 15.4377 11.3697 15.5979C11.419 15.7581 11.42 15.9293 11.3726 16.0901C11.3251 16.2509 11.2314 16.3942 11.103 16.502C10.9747 16.6099 10.8174 16.6775 10.6508 16.6964C10.4842 16.7154 10.3157 16.6849 10.1664 16.6087C10.0171 16.5324 9.89355 16.4139 9.8112 16.2679C9.72884 16.1218 9.69134 15.9548 9.70337 15.7876C9.73931 15.5657 9.85374 15.3642 10.0258 15.2197C10.1979 15.0751 10.4162 14.9972 10.6409 15.0001Z" fill="#8E4028"/>
<path d="M20.8968 17.0435C21.0594 17.071 21.2106 17.1451 21.332 17.2567C21.4534 17.3683 21.5398 17.5128 21.5808 17.6725C21.6218 17.8323 21.6157 18.0005 21.563 18.1568C21.5104 18.3131 21.4136 18.4508 21.2844 18.5533C21.1551 18.6557 20.9989 18.7185 20.8347 18.734C20.6705 18.7495 20.5053 18.7171 20.3592 18.6407C20.213 18.5642 20.0921 18.4471 20.0112 18.3034C19.9302 18.1597 19.8927 17.9956 19.9031 17.831C19.94 17.5991 20.0626 17.3896 20.2466 17.2438C20.4306 17.0979 20.6626 17.0265 20.8968 17.0435Z" fill="#8E4028"/>
<path d="M14.5026 15.7508C14.2481 17.1227 14.1537 18.5196 14.2214 19.9133C14.2214 19.9133 19.0214 21.6289 22.9964 20.4102L23.9339 17.7477C23.9339 17.7477 18.9651 15.5539 14.5026 15.7508ZM22.3214 20.5695C18.9839 21.507 14.8214 19.932 14.8214 19.932C14.7619 18.6153 14.8373 17.2959 15.0464 15.9945C18.7964 15.9008 23.1839 18.3477 23.1839 18.3477L22.3214 20.5695Z" fill="#8E4028"/>
<path d="M14.5221 15.4398C14.2322 16.9342 14.1065 18.4557 14.1471 19.9773C14.1471 19.9773 19.0315 21.8523 23.0065 20.5961L24.244 17.5117C24.244 17.5117 18.9846 15.243 14.5221 15.4398ZM22.3502 20.2586C19.0127 21.1961 14.8502 19.6211 14.8502 19.6211C14.7925 18.3967 14.8775 17.1697 15.1033 15.9648C18.8533 15.8805 23.3346 17.7836 23.3346 17.7836L22.3502 20.2586Z" fill="#8E4028"/>
<path d="M16.3781 13.9978L15.9375 13.6697C15.9375 13.6697 17.9062 11.251 20.1375 12.5728C22.3687 13.8947 22.4438 15.1978 22.4438 15.1978C22.4438 15.1978 19.5937 11.6072 16.3781 13.9978Z" fill="#8E4028"/>
<path d="M5.6252 15.3939L7.15332 15.0002V14.6158C6.64134 14.5291 6.11842 14.5291 5.60645 14.6158L5.6252 15.3939Z" fill="#8E4028"/>
<path d="M8.25938 14.3805L5.8125 14.3242L6.10313 17.868L7.70625 18.5242C7.70625 18.5242 7.44375 15.1961 8.25938 14.3805Z" fill="#B79576"/>
<path d="M13.5752 17.8781C13.8664 19.4233 13.9233 21.0035 13.744 22.5656C13.4252 24.9281 13.4346 24.7781 13.4346 24.7781C13.4346 24.7781 16.7533 24.225 17.869 22.9594C18.9846 21.6937 20.3815 17.1188 20.3815 17.1188L19.0408 15.6094L13.5752 17.8781Z" fill="#FCC097"/>
<path d="M28.1246 15.8433C27.4402 21.7402 22.209 25.509 16.3308 24.834C10.4527 24.159 7.3121 18.7496 8.4371 12.8715C8.96261 10.2528 10.4374 7.92076 12.578 6.3235C14.7187 4.72625 17.3741 3.9765 20.034 4.21833C25.9215 4.89333 28.8277 9.94645 28.1246 15.8433Z" fill="#E8BD89"/>
<path d="M28.1246 15.0741C27.4684 20.6991 21.4215 26.9053 15.9371 26.3241C10.4527 25.7428 7.60275 18.4959 8.24962 12.8334C8.8965 7.17093 12.4684 3.74906 19.2746 4.49906C24.759 5.12718 28.7809 9.37406 28.1246 15.0741Z" fill="#E8BD89"/>
<path d="M22.5432 15.8641C23.0169 11.7387 20.1609 8.02237 16.1641 7.56346C12.1673 7.10455 8.54326 10.0768 8.06958 14.2022C7.5959 18.3276 10.452 22.0439 14.4487 22.5028C18.4455 22.9617 22.0696 19.9894 22.5432 15.8641Z" fill="#FFD097"/>
<path d="M25.031 14.1834C25.031 14.1834 25.5279 17.2678 24.5154 18.4866C23.5029 19.7053 27.5998 20.2772 27.5998 20.2772C27.5998 20.2772 29.2498 16.9678 28.8935 15.0741C28.5373 13.1803 25.031 14.1834 25.031 14.1834Z" fill="#63310F"/>
<path d="M21.1027 22.0789C22.509 22.1633 19.6121 26.3539 17.9996 26.7664C16.1956 27.2218 14.3009 27.1699 12.5246 26.6164C11.3621 26.0727 8.92461 21.807 8.54961 20.4852C8.12773 18.9664 8.05273 18.8164 8.05273 18.8164C8.05273 18.8164 8.29648 18.8164 9.09336 19.2758C10.3965 20.1102 13.4152 21.6289 21.1027 22.0789Z" fill="#D8B18B"/>
<path d="M15.6934 18.5616C15.6934 18.5616 18.0559 17.821 19.4434 18.5616C19.4434 18.5616 20.0996 19.2741 19.7246 19.4991C19.3496 19.7241 18.8902 20.1178 18.5715 19.7428C17.756 19.0632 16.7512 18.6508 15.6934 18.5616Z" fill="#343F3D"/>
<path d="M10.3126 16.8191C10.3126 16.8191 9.78763 15.2441 8.67201 15.1504C8.67201 15.1504 7.87513 15.366 7.89388 15.6848C7.91263 16.0035 7.82826 16.5004 8.23138 16.3691C8.9573 16.2406 9.70467 16.4022 10.3126 16.8191Z" fill="#343F3D"/>
<path d="M8.80273 10.209C8.80273 10.209 9.63711 8.69023 12.5527 9.99336L11.1934 6.88086C10.1122 7.69844 9.29146 8.81224 8.83086 10.0871" fill="#E5895B"/>
<path d="M12.9564 12.5254L14.9908 13.0879L14.3533 20.4754L11.7002 20.3066L12.9564 12.5254Z" fill="#D8B18B"/>
<path d="M20.5691 22.1434L23.9535 20.7559L24.5441 22.4152C23.1488 24.2118 21.2235 25.5238 19.041 26.1652L20.5691 22.1434Z" fill="#B79576"/>
<path d="M12.9004 16.4242L14.8129 16.8367L15.1223 15.4586L12.9191 15.0273L12.9004 16.4242Z" fill="#343F3D"/>
<path d="M16.0215 13.8097C16.5302 13.479 17.1023 13.2582 17.7012 13.1614C18.3001 13.0645 18.9126 13.0937 19.4996 13.2472C21.3746 13.8097 22.8559 15.5159 21.9652 15.8534C21.0746 16.1909 20.6059 15.4503 20.2027 14.7847C19.7996 14.119 18.384 13.5284 16.9215 14.6909C16.9215 14.6909 16.1152 14.4472 16.0215 13.8097Z" fill="#63310F"/>
<path d="M23.4371 7.95024C19.1246 6.39399 12.4215 4.91274 8.99023 8.79399C10.6776 9.60426 12.423 10.2874 14.2121 10.8377L15.384 10.3784C19.2277 8.57836 23.3434 9.66586 25.8184 10.6877C25.6526 10.0819 25.3524 9.52117 24.9401 9.04724C24.5279 8.57332 24.0142 8.19837 23.4371 7.95024Z" fill="#63310F"/>
<path d="M27.7127 7.18056L26.7096 10.7993C26.7096 10.7993 21.0846 7.25556 15.9377 9.58056L14.9439 9.96494C14.9439 9.96494 9.80644 9.02744 9.43144 8.02431C9.1131 7.5506 8.9071 7.01048 8.82912 6.44511C8.75113 5.87973 8.80323 5.30401 8.98143 4.76181C9.29442 5.38799 9.55167 6.04051 9.75018 6.71181C9.75018 6.71181 9.82518 3.47744 12.1877 2.48369C12.1877 2.48369 11.8314 2.83056 12.0002 4.24619C12.0002 4.24619 15.1783 1.07744 18.1127 1.16181C17.3988 1.96515 16.9646 2.97831 16.8752 4.04931C16.8752 4.04931 21.1689 2.62431 24.6189 3.11181C24.3067 3.77545 23.8923 4.386 23.3908 4.92119C24.887 5.56284 26.3319 6.31817 27.7127 7.18056Z" fill="url(#paint0_linear_52_51116)"/>
<path d="M23.9346 9.96484L22.0596 11.8398C23.2222 13.824 23.7764 16.1059 23.6533 18.4023L28.6877 16.0211L27.9096 10.2367C27.9096 10.2367 25.8564 10.0305 23.9346 9.96484Z" fill="#63310F"/>
<path d="M22.9121 17.1758C22.9871 17.1758 25.3965 16.8008 25.3965 16.8008L25.4902 17.4477L22.9309 18.8633L23.184 17.4758L22.9121 17.1758Z" fill="#343F3D"/>
<path d="M27.5811 11.25L22.8936 11.8406C22.8936 11.8406 23.2123 11.4844 23.5123 12.8812C23.5123 12.8812 26.4186 13.1344 26.5686 13.1344C26.7186 13.1344 27.9092 12.8062 27.9092 12.8062L27.5811 11.25Z" fill="url(#paint1_linear_52_51116)"/>
<path d="M24.1973 3.15039C22.8878 4.02458 21.4194 4.63298 19.8754 4.94102L23.9066 6.28164C22.591 6.5679 21.2609 6.78383 19.9223 6.92852C19.1024 6.98464 18.2877 7.10057 17.4848 7.27539L23.2035 8.12852C23.2035 8.12852 18.7504 8.17539 16.791 9.27227C16.791 9.27227 22.2473 8.10977 26.7098 10.8004L27.4316 10.5098L28.7723 7.69727C27.5633 6.88068 26.2394 6.24875 24.8441 5.82227L23.7004 5.32539C23.7004 5.32539 24.3098 3.76914 24.5816 3.17852L24.1973 3.15039Z" fill="#B85A1B"/>
<path d="M29.0623 7.78086L24.3748 7.67773L26.7092 8.82148L22.1904 9.01836C22.1904 9.01836 24.4779 9.31836 25.4154 10.8934L26.1654 11.1465L27.8529 10.7434L29.0623 7.78086Z" fill="#63310F"/>
<path d="M8.95312 7.05078C9.77768 7.68674 10.7417 8.11735 11.7656 8.30703L17.8125 8.80391L15.1312 9.99453C15.1312 9.99453 10.875 9.37578 10.1156 8.80391C9.58966 8.32419 9.19033 7.72198 8.95312 7.05078Z" fill="#B85A1B"/>
<path d="M12.0936 2.48449C11.7144 3.8341 11.695 5.25943 12.0373 6.61886C11.3285 5.65716 10.9444 4.49477 10.9404 3.30011C11.0217 3.05969 11.1771 2.85123 11.3843 2.70468C11.5915 2.55813 11.8398 2.48104 12.0936 2.48449Z" fill="#B85A1B"/>
<path d="M17.0059 1.64062C17.0059 1.64062 14.2871 2.57812 13.359 3.96563C12.8353 4.60995 12.5652 5.42352 12.5996 6.25313C12.8888 5.3734 13.4461 4.60628 14.1934 4.05937C15.2199 3.36288 16.1635 2.55137 17.0059 1.64062Z" fill="#FFBA7B"/>
<path d="M22.1629 3.44996C20.4018 3.42778 18.67 3.90214 17.166 4.81871C16.145 5.60019 15.0635 6.29926 13.9316 6.90934L17.7379 5.51246C17.7379 5.51246 20.6254 3.55309 22.1629 3.44996Z" fill="#FFBA7B"/>
<path d="M25.5185 18.6284C25.5185 18.6284 27.1404 17.494 27.9748 17.6909C28.8092 17.8878 29.606 21.7972 26.5029 22.1065C23.3998 22.4159 25.5185 18.6284 25.5185 18.6284Z" fill="#63310F"/>
<path d="M25.3965 18.9467C25.3965 18.9467 27.4028 16.7154 28.3965 16.9217C29.3903 17.1279 30.0934 22.3592 26.3903 22.6404C22.6871 22.9217 25.3965 18.9467 25.3965 18.9467Z" fill="#E8BD89"/>
<path d="M25.7902 18.3945C26.4089 18.0001 27.1198 17.774 27.8527 17.7383C28.5652 17.8883 29.0996 21.3945 26.4746 21.5445C23.8496 21.6945 25.7902 18.3945 25.7902 18.3945Z" fill="#C18053"/>
<path d="M25.4435 18.6562C26.0623 18.2619 26.7732 18.0357 27.506 18C28.2185 18.15 28.7529 21.6562 26.1279 21.8062C23.5029 21.9562 25.4435 18.6562 25.4435 18.6562Z" fill="#CE9D67"/>
<path d="M15.7501 25.1531C14.5594 26.4187 11.747 25.6594 11.9251 24.4688L15.7501 25.1531Z" fill="#FFBC8F"/>
<path d="M18.9187 22.4996C18.3693 22.6787 17.7989 22.7858 17.2219 22.8184C14.9799 22.8122 12.7495 22.4967 10.5938 21.8809C10.8644 22.0701 11.1613 22.2185 11.475 22.3215C11.7605 22.7739 11.9459 23.2821 12.0187 23.8121C11.8031 23.8121 11.5969 23.9527 11.2312 23.8121C12.6892 24.6005 14.3651 24.8903 16.0031 24.6371C17.1684 24.1823 18.2563 23.5498 19.2281 22.7621C19.1167 22.6849 19.0131 22.597 18.9187 22.4996Z" fill="#9A4C18"/>
<path d="M19.3781 22.3875C19.3125 22.3875 19.2562 22.2937 19.1906 22.2469H19.2563C19.1848 22.2207 19.1182 22.1827 19.0594 22.1344C18.4825 22.4022 17.8643 22.5702 17.2312 22.6312C14.9724 22.6778 12.7238 22.3157 10.5938 21.5625V21.9563C10.8996 22.1609 11.2392 22.3101 11.5969 22.3969C11.8424 22.9256 11.9704 23.5014 11.9719 24.0844C11.703 24.0474 11.439 23.9814 11.1844 23.8875C12.6844 25.0031 16.35 25.4906 17.2594 25.0969C17.9625 24.7969 18.2906 23.8313 19.3781 22.4438V22.3875Z" fill="#63310F"/>
<path d="M11.916 22.5C12.1187 22.8996 12.2518 23.3307 12.3098 23.775V23.8406L12.8254 24.0281C13.4181 24.2157 14.027 24.3475 14.6441 24.4219C15.0748 24.4814 15.5126 24.4655 15.9379 24.375C16.5016 24.169 17.0395 23.8984 17.541 23.5687C17.8879 23.3531 18.2348 23.1281 18.5629 22.8844C18.1328 22.9923 17.6932 23.0582 17.2504 23.0813C15.4562 23.0853 13.6672 22.8904 11.916 22.5Z" fill="#792936"/>
<path d="M11.916 22.5C11.9782 22.731 12.0662 22.9543 12.1785 23.1656C12.3614 23.2599 12.5492 23.3444 12.741 23.4187C12.633 23.4284 12.5315 23.4745 12.4531 23.5495C12.3748 23.6244 12.3242 23.7238 12.3098 23.8313C13.6744 24.3096 15.126 24.4886 16.566 24.3562C16.866 24.2777 17.158 24.171 17.4379 24.0375C17.0496 23.9295 16.6551 23.845 16.2566 23.7844C16.717 23.7648 17.1678 23.6465 17.5785 23.4375C17.7451 23.3333 17.8785 23.1837 17.9629 23.0063C17.715 23.0493 17.4644 23.0744 17.2129 23.0813C15.4318 23.0732 13.6565 22.8784 11.916 22.5Z" fill="url(#paint2_linear_52_51116)"/>
<path d="M12.0283 22.8652C12.069 22.9756 12.1192 23.0823 12.1783 23.184C12.3612 23.2782 12.549 23.3627 12.7408 23.4371C12.6328 23.4468 12.5313 23.4929 12.4529 23.5678C12.3746 23.6428 12.324 23.7421 12.3096 23.8496C13.3914 24.2903 14.5548 24.4949 15.7221 24.4496C15.9776 24.1566 16.1407 23.7945 16.1908 23.409C14.7906 23.3442 13.3982 23.1623 12.0283 22.8652Z" fill="url(#paint3_linear_52_51116)"/>
<path d="M21.2064 20.0255C20.3169 19.954 19.4242 20.119 18.6189 20.5036C17.9095 20.5445 17.1984 20.4588 16.5189 20.2505C14.9439 19.1161 15.6283 17.438 16.5189 16.3599C16.719 16.1202 16.9783 15.937 17.271 15.8285C17.5637 15.72 17.8797 15.6898 18.1877 15.7411C19.3705 15.9183 20.513 16.3022 21.5627 16.8755C21.8627 17.6161 22.1533 19.7818 21.2252 20.063L21.2064 20.0255Z" fill="#343F3D"/>
<path d="M21.206 20.025C20.3941 20.0104 19.5895 20.1803 18.8528 20.5219C18.1407 20.4906 17.4396 20.3351 16.7809 20.0625C16.4387 19.5733 16.2818 18.9781 16.3385 18.3837C16.3952 17.7893 16.6617 17.2345 17.0903 16.8188C18.0278 16.6406 20.7372 17.1563 21.3372 17.8125C21.5149 18.1692 21.5744 18.5733 21.507 18.966C21.4396 19.3588 21.2487 19.7199 20.9622 19.9969L21.206 20.025Z" fill="url(#paint4_linear_52_51116)"/>
<path d="M16.3877 18.0558C16.6468 17.3914 17.032 16.7833 17.5221 16.2652C18.4596 16.0777 20.5689 16.1433 21.1596 16.7996C21.3824 17.4306 21.5333 18.0847 21.6096 18.7496C20.5127 19.6871 16.8752 19.6871 16.4346 18.1777C16.4303 18.1278 16.4303 18.0776 16.4346 18.0277L16.3877 18.0558Z" fill="white"/>
<path d="M18.8439 17.4941C18.3957 17.2901 17.9276 17.133 17.447 17.0254C17.077 17.0713 16.7324 17.2378 16.4664 17.4992C16.2005 17.7605 16.028 18.1022 15.9758 18.4714C15.9235 18.8406 15.9942 19.2168 16.1772 19.5417C16.3601 19.8667 16.6449 20.1223 16.9877 20.2691C17.5554 20.0758 18.1504 19.9745 18.7502 19.9691C19.0745 19.6652 19.2721 19.25 19.3033 18.8066C19.3171 18.5684 19.2836 18.3298 19.2047 18.1045C19.1259 17.8792 19.0033 17.6718 18.8439 17.4941Z" fill="#343F3D"/>
<path d="M11.7562 14.6255C12.1728 16.065 12.0183 17.6096 11.3249 18.938C10.7243 19.1567 10.0791 19.2241 9.44634 19.1341C8.81355 19.0442 8.21266 18.7998 7.69679 18.4224C7.52107 17.6522 7.52435 16.8519 7.70638 16.0832C7.88841 15.3144 8.24434 14.5977 8.74679 13.988C8.9598 13.7655 9.22611 13.601 9.52049 13.5101C9.81487 13.4193 10.1276 13.4051 10.429 13.469C10.7303 13.5328 11.0104 13.6726 11.2427 13.875C11.475 14.0774 11.6517 14.3357 11.7562 14.6255Z" fill="#343F3D"/>
<path d="M11.7747 15.0555C12.1676 16.4594 12.0514 17.9571 11.4466 19.2836C10.2737 19.3402 9.11453 19.0109 8.14656 18.3461C7.98709 17.6784 7.98895 16.9824 8.15198 16.3156C8.31501 15.6488 8.63452 15.0305 9.08406 14.5117C9.27652 14.3202 9.51327 14.1791 9.77331 14.101C10.0334 14.0229 10.3087 14.0102 10.5748 14.0639C10.8409 14.1177 11.0897 14.2364 11.299 14.4093C11.5083 14.5823 11.6717 14.8042 11.7747 15.0555Z" fill="url(#paint5_linear_52_51116)"/>
<path d="M11.7937 15.4397C12.0043 15.9626 12.0754 16.5312 12 17.0897C11.0625 18.2522 8.25 18.1022 8.25 15.8616C8.40329 15.3438 8.67996 14.8709 9.05625 14.4835C9.92812 13.6585 11.3437 14.2866 11.7937 15.4397Z" fill="white"/>
<path d="M10.8286 15.1214C11.2781 15.1997 11.6794 15.4501 11.9472 15.8194C12.215 16.1888 12.3283 16.648 12.263 17.0995C12.2161 17.9527 11.6067 18.9745 10.6224 18.8995C10.1729 18.8213 9.77161 18.5709 9.50378 18.2015C9.23596 17.8322 9.12267 17.3729 9.18799 16.9214C9.23486 16.0683 9.84424 15.0652 10.8286 15.1214Z" fill="#343F3D"/>
<path d="M10.7903 15.9375C11.0521 15.9856 11.2848 16.134 11.4389 16.3511C11.593 16.5683 11.6563 16.8369 11.6153 17.1C11.6258 17.3634 11.5342 17.6207 11.3595 17.8181C11.1847 18.0156 10.9405 18.1378 10.6778 18.1594C10.417 18.1091 10.1857 17.9602 10.0321 17.7436C9.87838 17.5271 9.81415 17.2596 9.85275 16.9969C9.8422 16.7335 9.93385 16.4762 10.1086 16.2787C10.2833 16.0813 10.5275 15.9591 10.7903 15.9375Z" fill="#343F3D"/>
<path d="M11.0345 14.916C11.1881 14.9416 11.331 15.0111 11.4459 15.1162C11.5609 15.2213 11.6429 15.3574 11.6822 15.5081C11.7214 15.6588 11.7162 15.8176 11.6671 15.9654C11.618 16.1132 11.5272 16.2436 11.4056 16.3409C11.284 16.4381 11.1368 16.4981 10.9819 16.5136C10.8269 16.529 10.6708 16.4992 10.5324 16.4279C10.394 16.3565 10.2792 16.2466 10.202 16.1114C10.1247 15.9762 10.0882 15.8215 10.097 15.666C10.1252 15.4437 10.2388 15.2411 10.4138 15.1011C10.5888 14.9611 10.8114 14.8947 11.0345 14.916Z" fill="#FFFFFC"/>
<path d="M17.6995 16.8749C17.8531 16.9005 17.996 16.97 18.111 17.0751C18.2259 17.1802 18.308 17.3163 18.3472 17.467C18.3865 17.6176 18.3812 17.7765 18.3322 17.9243C18.2831 18.0721 18.1923 18.2025 18.0707 18.2998C17.9491 18.397 17.8019 18.457 17.6469 18.4725C17.492 18.4879 17.3359 18.4581 17.1975 18.3868C17.0591 18.3154 16.9443 18.2055 16.867 18.0703C16.7897 17.9351 16.7533 17.7804 16.762 17.6249C16.7737 17.5138 16.8072 17.4062 16.8608 17.3082C16.9144 17.2102 16.9869 17.1238 17.0741 17.054C17.1613 16.9843 17.2615 16.9325 17.3688 16.9018C17.4762 16.871 17.5886 16.8619 17.6995 16.8749Z" fill="#FFFFFC"/>
<path d="M14.6723 15.6554C14.4322 16.947 14.341 18.2618 14.4004 19.5742C14.4004 19.5742 18.9285 21.1961 22.6691 20.0429L23.6066 17.5398C23.6066 17.5398 18.8723 15.4773 14.6723 15.6554ZM22.041 20.1929C18.891 21.0742 14.9816 19.6023 14.9816 19.6023C14.9231 18.3482 14.9954 17.0914 15.1973 15.8523C18.741 15.7679 22.866 18.0742 22.866 18.0742L22.041 20.1929Z" fill="white"/>
<path d="M5.625 14.7C5.70429 15.7662 5.86095 16.8253 6.09375 17.8688C8.08904 19.1034 10.4886 19.5073 12.7781 18.9938L13.125 15.5344C13.125 15.5344 8.04375 13.8938 5.625 14.7ZM12.3563 19.1157C9.45938 19.8844 6.44062 18.1032 6.44062 18.1032C6.18889 16.9267 6.00111 15.7374 5.87812 14.5407C7.99688 13.9875 12.6 16.3594 12.6 16.3594L12.3563 19.1157Z" fill="white"/>
<path d="M14.6907 15.3649C14.4118 16.7879 14.2923 18.2374 14.3344 19.6868C14.3344 19.6868 18.9375 21.4212 22.6782 20.2681L23.8407 17.3618C23.8407 17.3618 18.8907 15.1774 14.6907 15.3649ZM22.0594 19.9024C18.9094 20.7837 15 19.3118 15 19.3118C14.9436 18.1566 15.0223 16.9988 15.2344 15.8618C17.9036 15.9658 20.5326 16.5469 22.9969 17.5774L22.0594 19.9024Z" fill="#343F3D"/>
<path d="M5.5498 14.3156C5.64589 15.5542 5.82441 16.7851 6.08418 18C7.06962 18.651 8.17493 19.099 9.33552 19.3179C10.4961 19.5368 11.6887 19.5222 12.8436 19.275L13.1248 15.1406C13.1248 15.1406 7.99668 13.5094 5.5498 14.3156ZM12.3748 18.75C9.44043 19.5187 6.38418 17.7375 6.38418 17.7375C6.15572 16.7311 5.99907 15.7098 5.91543 14.6812C8.0623 14.1281 12.6092 15.5719 12.6092 15.5719L12.3748 18.75Z" fill="#343F3D"/>
<path d="M16.4434 14.006L15.9746 13.6966C15.9746 13.6966 17.8496 11.381 19.9777 12.6654C22.1059 13.9497 22.1527 15.131 22.1527 15.131C22.1527 15.131 19.4715 11.756 16.4434 14.006Z" fill="url(#paint6_linear_52_51116)"/>
<path d="M8.5873 14.0624L7.84668 13.1249C7.84668 13.1249 9.05605 10.6968 11.4654 11.2499C13.4436 11.6718 13.5561 11.203 14.0248 14.5874C13.3598 13.8176 12.4238 13.3336 11.4112 13.2358C10.3986 13.138 9.38732 13.4341 8.5873 14.0624Z" fill="url(#paint7_linear_52_51116)"/>
<path d="M6.3 15.3197L7.73438 15.001V14.6353C7.25343 14.5538 6.7622 14.5538 6.28125 14.6353L6.3 15.3197Z" fill="#E8BD89"/>
<path d="M24.1502 20.3066C24.1502 20.3066 24.347 22.1816 25.5658 22.641L25.622 22.8566L24.7877 23.091C24.7877 23.091 23.7564 22.3691 24.1502 20.3066Z" fill="#8E4028"/>
<path d="M8.1192 19.0686C8.07005 19.5759 7.90911 20.066 7.64795 20.5037C7.38679 20.9414 7.0319 21.3158 6.60879 21.5999C6.18568 21.8841 5.70487 22.071 5.20092 22.1471C4.69697 22.2233 4.1824 22.1869 3.6942 22.0405C2.6458 21.7087 1.74741 21.0189 1.15615 20.0918C0.564897 19.1646 0.318419 18.0591 0.459828 16.9686C0.505344 16.4633 0.661738 15.9743 0.917869 15.5364C1.174 15.0984 1.52356 14.7224 1.94165 14.435C2.35974 14.1476 2.83606 13.956 3.33668 13.8738C3.8373 13.7915 4.3499 13.8207 4.83795 13.9592C5.90221 14.283 6.81662 14.9748 7.41773 15.9108C8.01885 16.8468 8.26749 17.9661 8.1192 19.0686Z" fill="#282828"/>
<path d="M12.3188 13.3965L14.1469 13.4246L13.4062 16.1621L11.8125 15.8715L12.3188 13.3965Z" fill="#282828"/>
<path d="M3.79688 13.7906L9.375 13.125C9.375 13.125 12.6562 15.9375 12.4781 15.9375C12.3 15.9375 6.34687 16.6219 6.34687 16.6219L3.79688 13.7906Z" fill="#282828"/>
<path d="M6.66543 16.2191L5.5498 27.0191L12.1779 24.0191L13.5373 15.5723L6.66543 16.2191Z" fill="#282828"/>
<path d="M3.89108 26.784L1.74421 25.7059C1.284 25.4803 0.905165 25.1175 0.65999 24.6674C0.414814 24.2174 0.315395 23.7023 0.375456 23.1934L1.55671 14.7559L7.91296 16.6309L6.60983 25.6215C6.41296 26.9246 5.19421 27.3184 3.89108 26.784Z" fill="#282828"/>
<path d="M9.00977 13.182L10.2566 12.1226C10.3402 12.0265 10.4563 11.9648 10.5826 11.9492C10.709 11.9336 10.8366 11.9653 10.941 12.0382L13.9223 12.6289C14.0225 12.6905 14.1078 12.7735 14.1721 12.8719C14.2364 12.9704 14.2781 13.0819 14.2943 13.1984C14.3104 13.3149 14.3005 13.4335 14.2654 13.5458C14.2303 13.658 14.1707 13.7611 14.091 13.8476L11.7004 16.032L9.00977 13.182Z" fill="#282828"/>
<path d="M11.7004 13.9223L13.641 13.2754L12.9098 15.3566L10.9316 15.5629L11.7004 13.9223Z" fill="#97A9AF"/>
<path d="M4.125 14.5223L9.375 13.9316C9.375 13.9316 11.6625 15.741 11.5031 15.7129C11.3438 15.6848 6.28125 16.7723 6.28125 16.7723L4.125 14.5223Z" fill="#E4E8EA"/>
<path d="M6.28144 16.7727L5.41895 25.8758L11.5408 23.3539L12.9564 15.207L6.28144 16.7727Z" fill="#7D9093"/>
<path d="M4.42489 25.6586L2.67177 25.1898C2.26473 25.0139 1.92151 24.7173 1.68846 24.3401C1.45541 23.9629 1.34378 23.5232 1.36864 23.0805L2.51239 14.9336L7.84677 16.8742L7.57489 24.2617C7.39677 25.4336 5.52177 26.1273 4.42489 25.6586Z" fill="#BACCD3"/>
<path d="M7.7719 19.2009C7.72714 19.6531 7.58304 20.0898 7.3499 20.4798C7.11675 20.8698 6.80032 21.2034 6.42323 21.4569C6.04614 21.7104 5.6177 21.8774 5.16855 21.9461C4.71939 22.0147 4.26062 21.9833 3.82502 21.854C2.88966 21.5569 2.08828 20.9408 1.56059 20.1133C1.03291 19.2858 0.812405 18.2993 0.937521 17.3259C0.97965 16.8743 1.12056 16.4375 1.35026 16.0464C1.57996 15.6554 1.89285 15.3196 2.26675 15.0628C2.64066 14.8061 3.06643 14.6347 3.51393 14.5609C3.96142 14.487 4.41969 14.5124 4.85627 14.6353C5.80399 14.9281 6.6171 15.5477 7.15098 16.3837C7.68485 17.2197 7.90487 18.2179 7.7719 19.2009Z" fill="#445C7F"/>
<path d="M7.0973 18.8721C7.05903 19.2557 6.93674 19.6261 6.73915 19.9571C6.54155 20.2881 6.27348 20.5714 5.954 20.7871C5.63452 21.0028 5.27145 21.1455 4.89061 21.205C4.50976 21.2645 4.12049 21.2394 3.75043 21.1315C2.9553 20.8775 2.27426 20.353 1.82556 19.6491C1.37687 18.9452 1.18886 18.1064 1.29418 17.2784C1.33233 16.897 1.45325 16.5285 1.64849 16.1987C1.84373 15.8689 2.10859 15.5856 2.42458 15.3687C2.74058 15.1518 3.1001 15.0065 3.47807 14.9428C3.85603 14.8792 4.24332 14.8988 4.61293 15.0003C5.41787 15.2479 6.10907 15.7726 6.56387 16.4814C7.01867 17.1902 7.20766 18.0372 7.0973 18.8721Z" fill="#668BC6"/>
<path d="M6.40351 18.6847C6.37405 18.9778 6.28039 19.2609 6.12918 19.5138C5.97797 19.7666 5.77292 19.9831 5.5286 20.1478C5.28429 20.3124 5.0067 20.4213 4.71557 20.4665C4.42444 20.5118 4.12692 20.4924 3.84414 20.4097C3.23481 20.2187 2.71255 19.8185 2.3695 19.2799C2.02644 18.7414 1.88465 18.0989 1.96914 17.4659C1.99501 17.1726 2.08546 16.8886 2.234 16.6343C2.38253 16.38 2.58548 16.1617 2.82829 15.995C3.0711 15.8284 3.34777 15.7175 3.63847 15.6703C3.92918 15.6231 4.22671 15.6409 4.50976 15.7222C5.12407 15.9134 5.65102 16.3156 5.99755 16.8577C6.34407 17.3998 6.48786 18.0469 6.40351 18.6847Z" fill="#70D2F9"/>
<path d="M6.32771 17.5868C6.32133 17.733 6.28081 17.8757 6.20941 18.0034C6.13801 18.1311 6.0377 18.2403 5.91652 18.3223C5.79533 18.4043 5.65663 18.4568 5.51152 18.4756C5.36641 18.4944 5.21892 18.479 5.08084 18.4306C4.77968 18.3418 4.51997 18.1487 4.34819 17.8859C4.17642 17.623 4.1038 17.3077 4.14334 16.9962C4.14973 16.85 4.19024 16.7073 4.26164 16.5796C4.33305 16.4519 4.43335 16.3427 4.55454 16.2607C4.67572 16.1787 4.81442 16.1262 4.95953 16.1074C5.10464 16.0886 5.25214 16.104 5.39021 16.1524C5.69347 16.2378 5.95552 16.4302 6.12788 16.6939C6.30024 16.9576 6.37123 17.2748 6.32771 17.5868Z" fill="white"/>
<path d="M9.30957 13.9211L10.5658 12.9086C10.6473 12.8157 10.76 12.7559 10.8826 12.7403C11.0053 12.7248 11.1293 12.7547 11.2314 12.8243L13.6408 13.2461L11.2502 15.4586L9.30957 13.9211Z" fill="#D5DEE2"/>
<path d="M6.2528 24.1874C6.2368 24.3119 6.19595 24.432 6.13266 24.5404C6.06938 24.6489 5.98495 24.7435 5.8844 24.8187C5.78384 24.8939 5.6692 24.9481 5.54729 24.9782C5.42537 25.0082 5.29866 25.0135 5.17467 24.9936C4.92001 24.9413 4.69485 24.7939 4.54506 24.5814C4.39527 24.3689 4.3321 24.1073 4.36842 23.8499C4.38556 23.7262 4.42724 23.6071 4.49102 23.4998C4.5548 23.3924 4.63938 23.2988 4.73982 23.2246C4.84025 23.1504 4.9545 23.0969 5.07587 23.0675C5.19723 23.038 5.32326 23.0331 5.44655 23.053C5.70157 23.1011 5.92804 23.2461 6.07839 23.4576C6.22873 23.6692 6.29125 23.9307 6.2528 24.1874Z" fill="#474747"/>
<path d="M6.01906 24.15C6.00655 24.2436 5.97528 24.3339 5.92712 24.4152C5.87896 24.4965 5.8149 24.5673 5.73876 24.6233C5.66262 24.6793 5.57598 24.7194 5.484 24.7412C5.39202 24.7629 5.29659 24.7659 5.20343 24.75C5.01448 24.7092 4.84782 24.5988 4.73662 24.4407C4.62543 24.2826 4.57788 24.0884 4.60343 23.8968C4.61466 23.8026 4.6451 23.7117 4.69289 23.6296C4.74067 23.5476 4.80476 23.4763 4.88122 23.4201C4.95767 23.3638 5.04484 23.3239 5.13736 23.3027C5.22987 23.2815 5.32574 23.2795 5.41906 23.2968C5.60909 23.3355 5.77712 23.4455 5.88869 23.6041C6.00025 23.7627 6.0469 23.958 6.01906 24.15Z" fill="#F91919"/>
<path d="M5.82226 23.8022C5.813 23.8604 5.78131 23.9126 5.73398 23.9477C5.68666 23.9827 5.62747 23.9978 5.56914 23.9897C5.50833 23.9783 5.45449 23.9434 5.41937 23.8924C5.38424 23.8415 5.37068 23.7787 5.38164 23.7178C5.39089 23.6615 5.42122 23.6108 5.46648 23.576C5.51174 23.5411 5.56855 23.5248 5.62539 23.5303C5.68679 23.5418 5.74144 23.5764 5.77808 23.627C5.81471 23.6776 5.83053 23.7403 5.82226 23.8022Z" fill="white"/>
<path d="M9.54406 16.8758C9.52755 17.019 9.47014 17.1543 9.3787 17.2657C9.28725 17.3771 9.16565 17.4598 9.02844 17.5039C8.79406 17.5039 8.64406 17.307 8.70031 16.9977C8.7151 16.8528 8.77174 16.7154 8.8633 16.6022C8.95486 16.489 9.07739 16.4049 9.21594 16.3602C9.45031 16.3039 9.60031 16.5289 9.54406 16.8758Z" fill="#97A9AF"/>
<path d="M10.8845 17.0727C10.8709 17.2182 10.8134 17.3562 10.7196 17.4684C10.6259 17.5805 10.5003 17.6616 10.3595 17.7008C10.1251 17.7008 9.97512 17.5133 10.0314 17.1946C10.0492 17.0494 10.108 16.9122 10.201 16.7993C10.294 16.6864 10.4173 16.6024 10.5564 16.5571C10.7907 16.5289 10.9407 16.7539 10.8845 17.0727Z" fill="#97A9AF"/>
<path d="M12.3372 17.3719C12.3187 17.5182 12.2585 17.6561 12.1637 17.7691C12.069 17.8822 11.9437 17.9656 11.8029 18.0094C11.5685 18.0094 11.4185 17.8125 11.4747 17.4937C11.4958 17.3519 11.5562 17.2188 11.6489 17.1095C11.7417 17.0001 11.8632 16.9189 11.9997 16.875C12.2435 16.875 12.3935 17.0531 12.3372 17.3719Z" fill="#97A9AF"/>
<path d="M6.91895 16.3316L7.41582 15.5816L10.6596 15.0098L11.2502 15.4598L6.91895 16.3316Z" fill="white"/>
<path d="M7.88457 18.5352L8.5877 18.7789L7.69707 24.9383L6.91895 25.2383L7.88457 18.5352Z" fill="#BACCD3"/>
<path d="M12.4035 18.3945L8.58789 18.7789L7.69727 24.9383L11.541 23.3539L12.4035 18.3945Z" fill="#97A9AF"/>
<path d="M12.6091 25.0415L8.61532 23.954C8.28303 23.8646 7.99126 23.6644 7.78836 23.3865C7.58546 23.1086 7.48361 22.7696 7.4997 22.4259C7.51392 22.0369 7.67609 21.6679 7.95312 21.3944C8.23014 21.1208 8.60112 20.9633 8.99032 20.954L13.4716 20.8697C13.7154 20.8633 13.9571 20.9157 14.1764 21.0224C14.3956 21.1292 14.586 21.2872 14.7313 21.4831C14.8766 21.6789 14.9725 21.9069 15.0111 22.1477C15.0497 22.3885 15.0297 22.6351 14.9528 22.8665C14.7932 23.389 14.5829 23.8945 14.3247 24.3759C14.151 24.6593 13.8891 24.8779 13.5792 24.9982C13.2693 25.1184 12.9285 25.1336 12.6091 25.0415Z" fill="#8E4028"/>
<path d="M12.2719 27.0743L8.2688 25.9868C7.93564 25.8976 7.64274 25.6978 7.43827 25.42C7.23381 25.1423 7.12996 24.8033 7.1438 24.4587C7.15802 24.0696 7.3202 23.7006 7.59722 23.4271C7.87425 23.1536 8.24523 22.9961 8.63443 22.9868L13.1251 22.9024C13.3675 22.9002 13.607 22.9553 13.824 23.0633C14.0411 23.1714 14.2295 23.3291 14.3739 23.5239C14.5183 23.7186 14.6147 23.9447 14.6551 24.1837C14.6955 24.4227 14.6787 24.6679 14.6063 24.8993C14.4475 25.4085 14.2403 25.9014 13.9876 26.3712C13.8194 26.6614 13.5598 26.8877 13.2495 27.0149C12.9391 27.1421 12.5954 27.163 12.2719 27.0743Z" fill="#8E4028"/>
<path d="M11.5971 29.7463L7.594 28.6588C7.26084 28.5697 6.96793 28.3698 6.76347 28.0921C6.559 27.8144 6.45515 27.4753 6.469 27.1307C6.48105 26.7418 6.64283 26.3726 6.92057 26.1001C7.19831 25.8276 7.57056 25.6729 7.95962 25.6682L12.4409 25.5745C12.684 25.5702 12.9246 25.624 13.1427 25.7314C13.3609 25.8388 13.5502 25.9967 13.6951 26.1919C13.8399 26.3872 13.9361 26.6142 13.9756 26.8541C14.0151 27.0941 13.9967 27.3399 13.9221 27.5713C13.7717 28.0882 13.5675 28.5878 13.3127 29.062C13.1418 29.3488 12.8811 29.5712 12.5709 29.6949C12.2608 29.8186 11.9186 29.8367 11.5971 29.7463Z" fill="#8E4028"/>
<path d="M11.9723 26.7565L8.81289 25.9033C8.54116 25.8407 8.2994 25.6862 8.12856 25.4658C7.95771 25.2454 7.86828 24.9727 7.87539 24.694C7.8876 24.3781 8.02296 24.0796 8.2525 23.8624C8.48203 23.6451 8.7875 23.5263 9.10352 23.5315L12.6473 23.4377C12.8389 23.4341 13.0286 23.4764 13.2006 23.5612C13.3725 23.6459 13.5216 23.7707 13.6354 23.9249C13.7493 24.0791 13.8245 24.2583 13.8548 24.4476C13.8852 24.6369 13.8697 24.8306 13.8098 25.0127C13.6923 25.4416 13.5288 25.8565 13.3223 26.2502C13.1836 26.4706 12.9764 26.6395 12.7326 26.7309C12.4888 26.8224 12.2217 26.8313 11.9723 26.7565Z" fill="#FFD097"/>
<path d="M12.5809 24.2432L9.42151 23.4369C9.14891 23.376 8.90613 23.2218 8.73499 23.001C8.56385 22.7803 8.47509 22.5067 8.48401 22.2275C8.49587 21.9198 8.62469 21.6282 8.8442 21.4121C9.06371 21.1961 9.35736 21.072 9.66526 21.065L13.1996 20.9994C13.3875 20.9904 13.5749 21.0258 13.7466 21.1025C13.9183 21.1793 14.0696 21.2954 14.1882 21.4413C14.3068 21.5873 14.3894 21.7591 14.4294 21.9429C14.4694 22.1267 14.4656 22.3173 14.4184 22.4994C14.2959 22.9025 14.1326 23.292 13.9309 23.6619C13.8034 23.8959 13.601 24.0803 13.3563 24.1857C13.1115 24.2911 12.8385 24.3113 12.5809 24.2432Z" fill="#FFD097"/>
<path d="M11.4754 29.0629L8.14731 28.5098C7.88352 28.4362 7.65218 28.276 7.4906 28.0549C7.32902 27.8338 7.24662 27.5647 7.25668 27.291C7.25664 26.976 7.3805 26.6736 7.6015 26.449C7.8225 26.2245 8.12293 26.0959 8.43793 26.091L11.9817 26.0254C12.1711 26.0268 12.3574 26.0727 12.5258 26.1593C12.6942 26.2459 12.84 26.3709 12.9512 26.5241C13.0625 26.6773 13.1362 26.8546 13.1665 27.0415C13.1968 27.2284 13.1827 27.4199 13.1254 27.6004C12.9989 28.002 12.8357 28.3911 12.6379 28.7629C12.3942 29.2316 12.0004 29.1566 11.4754 29.0629Z" fill="#FFD097"/>
<path d="M8.75586 22.7441L14.0715 23.1191C14.1234 23.1794 14.1601 23.2513 14.1784 23.3287C14.1968 23.406 14.1963 23.4867 14.177 23.5639C14.1577 23.641 14.1202 23.7125 14.0676 23.7721C14.0149 23.8317 13.9488 23.8779 13.8746 23.9066C13.3027 24.2535 9.28086 23.4473 9.28086 23.4473C9.07391 23.2385 8.8972 23.0019 8.75586 22.7441Z" fill="#D8B18B"/>
<path d="M7.81836 25.209L13.1434 25.584C13.193 25.6465 13.2274 25.7196 13.2439 25.7977C13.2605 25.8757 13.2587 25.9565 13.2387 26.0338C13.2187 26.111 13.1811 26.1826 13.1287 26.2428C13.0764 26.303 13.0108 26.3503 12.9371 26.3809C12.3652 26.7184 8.34336 25.9121 8.34336 25.9121C8.13705 25.7028 7.96041 25.4662 7.81836 25.209Z" fill="#D8B18B"/>
<path d="M7.5 27.9375L12.825 28.3125C12.8769 28.3728 12.9136 28.4446 12.9319 28.522C12.9503 28.5994 12.9498 28.6801 12.9305 28.7572C12.9112 28.8344 12.8737 28.9058 12.8211 28.9655C12.7685 29.0251 12.7023 29.0712 12.6281 29.1C12.0563 29.4469 8.025 28.6406 8.025 28.6406C7.82109 28.4293 7.6447 28.193 7.5 27.9375Z" fill="#BF916B"/>
</g>
<defs>
<linearGradient id="paint0_linear_52_51116" x1="8.78456" y1="5.98056" x2="27.7127" y2="5.98056" gradientUnits="userSpaceOnUse">
<stop stop-color="#F38C05"/>
<stop offset="1" stop-color="#B85A1B"/>
</linearGradient>
<linearGradient id="paint1_linear_52_51116" x1="22.9123" y1="12.15" x2="27.9279" y2="12.15" gradientUnits="userSpaceOnUse">
<stop stop-color="#F38C05"/>
<stop offset="1" stop-color="#B85A1B"/>
</linearGradient>
<linearGradient id="paint2_linear_52_51116" x1="16.8678" y1="25.2352" x2="17.564" y2="25.2744" gradientUnits="userSpaceOnUse">
<stop stop-color="#BDD6DE"/>
<stop offset="1" stop-color="white"/>
</linearGradient>
<linearGradient id="paint3_linear_52_51116" x1="16.6899" y1="23.2235" x2="17.651" y2="23.2775" gradientUnits="userSpaceOnUse">
<stop stop-color="white"/>
<stop offset="1" stop-color="#BDD6DE"/>
</linearGradient>
<linearGradient id="paint4_linear_52_51116" x1="4.69639" y1="-3.56022" x2="4.59645" y2="-2.52184" gradientUnits="userSpaceOnUse">
<stop stop-color="#BDD6DE"/>
<stop offset="1" stop-color="white"/>
</linearGradient>
<linearGradient id="paint5_linear_52_51116" x1="-4.33138" y1="-4.89304" x2="-4.52057" y2="-3.93529" gradientUnits="userSpaceOnUse">
<stop stop-color="#BDD6DE"/>
<stop offset="1" stop-color="white"/>
</linearGradient>
<linearGradient id="paint6_linear_52_51116" x1="15.9746" y1="13.706" x2="22.1527" y2="13.706" gradientUnits="userSpaceOnUse">
<stop stop-color="#F38C05"/>
<stop offset="1" stop-color="#B85A1B"/>
</linearGradient>
<linearGradient id="paint7_linear_52_51116" x1="7.84668" y1="12.8437" x2="14.0248" y2="12.8437" gradientUnits="userSpaceOnUse">
<stop stop-color="#F38C05"/>
<stop offset="1" stop-color="#B85A1B"/>
</linearGradient>
<clipPath id="clip0_52_51116">
<rect width="30" height="30" fill="white"/>
</clipPath>
</defs>
</svg>
