<svg width="150" height="58" viewBox="0 0 150 58" fill="none" xmlns="http://www.w3.org/2000/svg">
<g clip-path="url(#clip0_52_33841)">
<path d="M0.0124512 45.3428H6.67519V48.1573H3.153V50.471H6.34126V53.0709H3.153V57.7062H0.0124512V45.3428Z" fill="black"/>
<path d="M14.4908 54.2565L13.3141 50.5355L12.1453 54.2565H14.4908ZM13.2187 45.0098H13.5844L19.293 57.731H15.7868L15.2938 56.4509H11.3184L10.8334 57.723H7.51001L13.2187 45.0098Z" fill="black"/>
<path d="M23.8648 47.8636V50.4714H25.0892C25.2757 50.4945 25.465 50.474 25.6423 50.4116C25.8195 50.3492 25.9799 50.2466 26.1109 50.1118C26.2418 49.977 26.3398 49.8137 26.397 49.6347C26.4543 49.4556 26.4692 49.2658 26.4408 49.08C26.4472 48.9067 26.4155 48.7341 26.3479 48.5744C26.2802 48.4147 26.1784 48.2718 26.0494 48.1558C25.9205 48.0397 25.7677 47.9534 25.6018 47.9029C25.4359 47.8525 25.2609 47.839 25.0892 47.8636H23.8648ZM20.8037 45.3193H25.28C27.8163 45.3193 29.311 46.671 29.311 48.6666C29.3706 49.4423 29.1438 50.213 28.6735 50.8328C28.2032 51.4525 27.522 51.8784 26.7588 52.0298L30.1459 57.6828H26.6396L23.8648 52.2604V57.7066H20.8435L20.8037 45.3193Z" fill="black"/>
<path d="M37.1743 51.767L41.905 45.1758H42.3582L42.7001 57.7062H39.7901L39.6947 52.3156L37.1743 56.45L34.6619 52.3156L34.5585 57.7062H31.6565L31.9904 45.1758H32.4436L37.1743 51.767Z" fill="black"/>
<path d="M51.0166 54.2565L49.8478 50.5355L48.6711 54.2565H51.0166ZM49.7444 45.0098H50.1022L55.8109 57.731H52.3125L51.8275 56.4509H47.8521L47.3672 57.723H44.0278L49.7444 45.0098Z" fill="black"/>
<path d="M57.3296 45.1758H57.9498L63.8731 51.4887V45.3427H66.8387V57.8652H66.2185L60.2952 51.6716V57.7062H57.3296V45.1758Z" fill="black"/>
<path d="M73.0004 48.1891V54.8598H74.0578C75.3776 54.8598 76.3397 53.5798 76.3397 51.5046C76.3397 49.4295 75.3776 48.1891 74.0578 48.1891H73.0004ZM69.8201 45.3428H74.0181C77.1984 45.3428 79.5836 47.9109 79.5836 51.4251C79.5836 54.9393 77.1984 57.7062 74.0181 57.7062H69.8598L69.8201 45.3428Z" fill="black"/>
<path d="M85.4276 57.953C84.4651 58.0389 83.5032 57.7809 82.7128 57.2249C81.9225 56.6689 81.3547 55.8507 81.1104 54.9158L83.4956 53.6516C83.9329 54.7329 84.4735 55.3769 85.3799 55.3769C86.1273 55.3769 86.5487 55.035 86.5487 54.4069C86.5487 53.7788 86.167 53.3654 84.9585 52.777C82.6528 51.6719 81.7146 50.5349 81.7146 48.7062C81.7146 46.6231 83.2571 45.0966 85.5946 45.0966C86.4223 45.0259 87.2478 45.2541 87.9217 45.7399C88.5956 46.2256 89.0732 46.9366 89.2678 47.7442L87.0178 48.9686C86.6838 48.1735 86.2227 47.7998 85.6582 47.7998C85.5394 47.7853 85.419 47.796 85.3046 47.8311C85.1902 47.8663 85.0846 47.9252 84.9946 48.004C84.9045 48.0828 84.8321 48.1797 84.7821 48.2884C84.732 48.397 84.7054 48.515 84.7041 48.6347C84.7041 49.1992 85.1573 49.5967 86.0796 50.0579C88.7431 51.4095 89.6018 52.4431 89.6018 54.2559C89.6018 56.4662 88.1388 57.953 85.4435 57.953" fill="black"/>
<path d="M90.6113 45.3428H98.4746V48.1573H96.0258V57.7062H92.8932V48.1573H90.6113V45.3428Z" fill="black"/>
<path d="M103.508 47.8636V50.4714H104.732C104.919 50.4958 105.109 50.4764 105.288 50.4146C105.466 50.3528 105.627 50.2503 105.759 50.1153C105.891 49.9804 105.99 49.8166 106.048 49.6369C106.105 49.4572 106.12 49.2666 106.092 49.08C106.098 48.906 106.066 48.7325 105.998 48.5722C105.93 48.4118 105.828 48.2684 105.698 48.1523C105.568 48.0361 105.414 47.95 105.247 47.9001C105.08 47.8502 104.904 47.8377 104.732 47.8636H103.508ZM100.494 45.3193H104.963C107.499 45.3193 108.986 46.671 108.986 48.6666C109.046 49.4412 108.82 50.2109 108.351 50.8305C107.882 51.4501 107.203 51.8767 106.441 52.0298L109.828 57.6828H106.322L103.5 52.2365V57.6828H100.486L100.494 45.3193Z" fill="black"/>
<path d="M111.514 45.3428H118.511V47.9983H114.567V50.0576H118.344V52.411H114.567V55.1302H118.511V57.7062H111.514V45.3428Z" fill="black"/>
<path d="M124.498 48.1896V54.8603H125.555C126.883 54.8603 127.837 53.604 127.837 51.5289C127.837 49.4537 126.883 48.2134 125.555 48.2134L124.498 48.1896ZM121.365 45.3193H125.555C128.735 45.3193 131.121 47.8874 131.121 51.4017C131.121 54.9159 128.735 57.6828 125.555 57.6828H121.365V45.3193Z" fill="black"/>
<path d="M133.275 45.3428H140.272V47.9983H136.328V50.0576H140.105V52.411H136.328V55.1302H140.272V57.7062H133.275V45.3428Z" fill="black"/>
<path d="M142.116 45.3428H149.988V48.1573H147.539V57.7062H144.398V48.1573H142.116V45.3428Z" fill="black"/>
<path d="M76.4989 17.2216C75.8699 17.2216 75.255 17.4081 74.732 17.7576C74.209 18.107 73.8014 18.6037 73.5607 19.1849C73.32 19.766 73.257 20.4054 73.3797 21.0224C73.5024 21.6393 73.8053 22.2059 74.2501 22.6507C74.6948 23.0955 75.2615 23.3984 75.8784 23.5211C76.4954 23.6438 77.1348 23.5808 77.7159 23.3401C78.2971 23.0994 78.7938 22.6918 79.1432 22.1688C79.4927 21.6458 79.6792 21.0309 79.6792 20.4019C79.6792 19.5584 79.3441 18.7495 78.7477 18.1531C78.1513 17.5567 77.3424 17.2216 76.4989 17.2216ZM76.4989 26.039C75.3823 26.0186 74.2966 25.6689 73.3781 25.0338C72.4595 24.3986 71.749 23.5063 71.3358 22.4688C70.9225 21.4313 70.8249 20.2949 71.0552 19.2022C71.2854 18.1094 71.8333 17.109 72.6301 16.3265C73.4269 15.544 74.437 15.0142 75.5338 14.8038C76.6305 14.5933 77.765 14.7114 78.7948 15.1433C79.8247 15.5753 80.704 16.3018 81.3225 17.2316C81.9409 18.1615 82.271 19.2533 82.2711 20.3701C82.2649 21.1215 82.1106 21.8643 81.817 22.556C81.5235 23.2477 81.0964 23.8748 80.5603 24.4013C80.0242 24.9278 79.3895 25.3434 78.6926 25.6245C77.9957 25.9055 77.2503 26.0463 76.4989 26.039Z" fill="black"/>
<path d="M58.3233 35.2855H65.9322V9.99411H91.6768V2.52039H58.3233V35.2855ZM68.5003 37.8059H55.7791V0H94.2608V12.5145H68.5003V37.8059Z" fill="black"/>
</g>
<defs>
<clipPath id="clip0_52_33841">
<rect width="149.975" height="57.9531" fill="white" transform="translate(0.0124512)"/>
</clipPath>
</defs>
</svg>
