<svg width="44" height="32" viewBox="0 0 44 32" fill="none" xmlns="http://www.w3.org/2000/svg">
<path d="M1.57143 22.4H3.14286V1.6C3.14286 1.17565 3.30842 0.768688 3.60312 0.468629C3.89782 0.168571 4.29752 0 4.71429 0H39.2857C39.7025 0 40.1022 0.168571 40.3969 0.468629C40.6916 0.768688 40.8571 1.17565 40.8571 1.6V22.4H42.4286C42.8453 22.4 43.245 22.5686 43.5397 22.8686C43.8344 23.1687 44 23.5757 44 24V27.2C44 28.473 43.5033 29.6939 42.6192 30.5941C41.7351 31.4943 40.536 32 39.2857 32H4.71429C3.46398 32 2.26488 31.4943 1.38078 30.5941C0.496681 29.6939 0 28.473 0 27.2V24C0 23.5757 0.165562 23.1687 0.460262 22.8686C0.754959 22.5686 1.15466 22.4 1.57143 22.4ZM6.28571 22.4H14.1429C14.5596 22.4 14.9593 22.5686 15.254 22.8686C15.5487 23.1687 15.7143 23.5757 15.7143 24C15.7143 24.4243 15.8798 24.8313 16.1745 25.1314C16.4692 25.4314 16.8689 25.6 17.2857 25.6H26.7143C27.1311 25.6 27.5308 25.4314 27.8255 25.1314C28.1202 24.8313 28.2857 24.4243 28.2857 24C28.2857 23.5757 28.4513 23.1687 28.746 22.8686C29.0407 22.5686 29.4404 22.4 29.8571 22.4H37.7143V3.2H6.28571V22.4Z" fill="#52B141"/>
<path d="M31.4286 19.2C31.0118 19.2 30.6121 19.0314 30.3174 18.7314C30.0227 18.4313 29.8571 18.0243 29.8571 17.6V12.8C29.8571 12.3757 30.0227 11.9687 30.3174 11.6686C30.6121 11.3686 31.0118 11.2 31.4286 11.2C31.8453 11.2 32.245 11.3686 32.5397 11.6686C32.8344 11.9687 33 12.3757 33 12.8V17.6C33 18.0243 32.8344 18.4313 32.5397 18.7314C32.245 19.0314 31.8453 19.2 31.4286 19.2Z" fill="#52B141"/>
<path d="M25.1429 19.2C24.7261 19.2 24.3264 19.0314 24.0317 18.7314C23.737 18.4313 23.5714 18.0243 23.5714 17.6V8C23.5714 7.57565 23.737 7.16869 24.0317 6.86863C24.3264 6.56857 24.7261 6.4 25.1429 6.4C25.5596 6.4 25.9593 6.56857 26.254 6.86863C26.5487 7.16869 26.7143 7.57565 26.7143 8V17.6C26.7143 18.0243 26.5487 18.4313 26.254 18.7314C25.9593 19.0314 25.5596 19.2 25.1429 19.2Z" fill="#52B141"/>
<path d="M18.8571 19.2C18.4404 19.2 18.0407 19.0314 17.746 18.7314C17.4513 18.4313 17.2857 18.0243 17.2857 17.6V11.2C17.2857 10.7757 17.4513 10.3687 17.746 10.0686C18.0407 9.76857 18.4404 9.6 18.8571 9.6C19.2739 9.6 19.6736 9.76857 19.9683 10.0686C20.263 10.3687 20.4286 10.7757 20.4286 11.2V17.6C20.4286 18.0243 20.263 18.4313 19.9683 18.7314C19.6736 19.0314 19.2739 19.2 18.8571 19.2Z" fill="#52B141"/>
<path d="M12.5714 19.2C12.1547 19.2 11.755 19.0314 11.4603 18.7314C11.1656 18.4313 11 18.0243 11 17.6V14.4C11 13.9757 11.1656 13.5687 11.4603 13.2686C11.755 12.9686 12.1547 12.8 12.5714 12.8C12.9882 12.8 13.3879 12.9686 13.6826 13.2686C13.9773 13.5687 14.1429 13.9757 14.1429 14.4V17.6C14.1429 18.0243 13.9773 18.4313 13.6826 18.7314C13.3879 19.0314 12.9882 19.2 12.5714 19.2Z" fill="#52B141"/>
</svg>
