<svg width="16" height="16" viewBox="0 0 16 16" fill="none" xmlns="http://www.w3.org/2000/svg">
<path fill-rule="evenodd" clip-rule="evenodd" d="M10.0465 0C8.96976 0 8.09262 0.854693 8.05655 1.92266L8.05455 2.07505C8.02336 3.74713 6.92516 5.16203 5.30866 5.68906H2.02521C1.55392 5.68906 1.17188 6.07111 1.17188 6.54239V13.3691C1.17188 13.8403 1.55392 14.2224 2.02521 14.2224H5.43854C5.63718 14.2224 5.81996 14.1545 5.96497 14.0407C6.25136 14.1576 6.55828 14.2222 6.86082 14.2222H11.6964L11.7613 14.221C12.714 14.1844 13.6942 13.3504 13.8616 12.4119L13.8653 12.3879L14.8062 8.01493C14.8107 7.99413 14.8144 7.97313 14.8173 7.95207C14.828 7.87413 14.8302 7.8216 14.8282 7.75053L14.8253 7.68L14.8241 7.61153C14.788 6.54358 13.9109 5.68889 12.8342 5.68889H11.1955L11.2458 5.57963C11.7468 4.46135 12.0376 3.18541 12.0376 1.99111C12.0376 0.891453 11.1462 0 10.0465 0ZM4.58527 7.39613V12.2311C4.58527 12.2343 4.58527 12.2375 4.58529 12.2407V12.5161H2.87863V7.39613H4.58527ZM10.0465 1.70681C10.2036 1.70681 10.3309 1.83415 10.3309 1.99125C10.3309 3.39265 9.81182 4.97894 9.02275 6.03007C8.60055 6.59257 9.00189 7.39567 9.70522 7.39567H12.8341C12.9912 7.39567 13.1186 7.52307 13.1186 7.68013L13.1194 7.73987L12.1922 12.0518C12.1877 12.0726 12.184 12.0936 12.1811 12.1147C12.1628 12.247 11.8468 12.5157 11.6964 12.5157H6.86075L6.81749 12.5136C6.57012 12.4905 6.29189 12.2809 6.29189 12.2313V7.1428C8.33789 6.28638 9.71889 4.35859 9.76102 2.09904L9.76196 1.99919C9.76202 1.83415 9.88936 1.70681 10.0465 1.70681Z" fill="#21201F"/>
</svg>
