<svg width="15" height="13" viewBox="0 0 15 13" fill="none" xmlns="http://www.w3.org/2000/svg">
<path d="M7.85799 12.1123H3.59695C1.46642 12.1123 0.758494 10.6964 0.758494 9.27385V3.59695C0.758494 1.46642 1.46642 0.758494 3.59695 0.758494H7.85799C9.98852 0.758494 10.6964 1.46642 10.6964 3.59695V9.27385C10.6964 11.4044 9.98178 12.1123 7.85799 12.1123Z" stroke="white" stroke-width="1.5" stroke-linecap="round" stroke-linejoin="round"/>
<path d="M12.5703 9.87394L10.6959 8.55921V4.30491L12.5703 2.99019C13.4872 2.34968 14.2423 2.74073 14.2423 3.86667V9.0042C14.2423 10.1301 13.4872 10.5212 12.5703 9.87394Z" stroke="white" stroke-width="1.5" stroke-linecap="round" stroke-linejoin="round"/>
<path d="M7.16223 5.7608C7.72077 5.7608 8.17356 5.30801 8.17356 4.74947C8.17356 4.19093 7.72077 3.73815 7.16223 3.73815C6.60369 3.73815 6.15091 4.19093 6.15091 4.74947C6.15091 5.30801 6.60369 5.7608 7.16223 5.7608Z" stroke="white" stroke-width="1.5" stroke-linecap="round" stroke-linejoin="round"/>
</svg>
