<svg width="15" height="18" viewBox="0 0 15 18" fill="none" xmlns="http://www.w3.org/2000/svg">
<path fill-rule="evenodd" clip-rule="evenodd" d="M12.6162 2.4734C13.8277 3.80495 14.6409 5.44988 14.9635 7.22094C15.2825 8.5671 13.4463 9.54021 11.9851 10.1043V16.705C11.9851 17.3297 11.4787 17.8362 10.854 17.8362C10.2293 17.8362 9.72287 17.3297 9.72287 16.705V11.4754C9.57749 11.4728 9.43341 11.4474 9.29582 11.4004C7.19083 10.5141 5.61297 8.7056 5.02033 6.49986C4.97181 6.34628 4.9485 6.18585 4.95132 6.02481C3.20657 5.92923 1.54511 5.24773 0.235787 4.09059C-0.501297 3.3275 0.658835 2.16637 1.39892 2.92745C2.49204 4.05558 4.42026 4.38962 5.99244 4.45563C6.05734 4.42528 6.12416 4.39922 6.19247 4.37762C8.04781 3.60673 9.77143 2.55089 11.301 1.24826C12.0811 0.559184 13.2173 1.66631 12.5012 2.37339C12.5415 2.40438 12.5799 2.43778 12.6162 2.4734ZM10.5976 8.20185C10.5977 8.20192 10.5979 8.20199 10.598 8.20205H10.597C10.5972 8.20199 10.5974 8.20192 10.5976 8.20185ZM10.2229 8.02804C10.3533 8.07333 10.4788 8.13155 10.5976 8.20185C11.3265 7.97419 12.0088 7.61794 12.6122 7.14993C12.3615 6.00126 11.81 4.93988 11.014 4.07458C10.9111 3.97935 10.8263 3.86616 10.764 3.74055C9.95622 4.29523 9.11111 4.79347 8.2347 5.23172C8.30021 5.34852 8.35414 5.47145 8.39572 5.59876C8.59335 6.16923 8.88102 6.70439 9.24781 7.18394C9.42255 7.40246 9.61817 7.60343 9.83188 7.78401C9.88015 7.82201 9.9253 7.86382 9.9669 7.90902C10.021 7.92807 10.0733 7.95218 10.1229 7.98103C10.2422 8.04127 10.3 8.07128 10.3002 8.07083C10.3004 8.07053 10.2742 8.05629 10.2229 8.02804Z" fill="#00B97D"/>
<path d="M5.49636 3.87044C6.56515 3.87044 7.43158 3.00401 7.43158 1.93522C7.43158 0.866428 6.56515 0 5.49636 0C4.42756 0 3.56114 0.866428 3.56114 1.93522C3.56114 3.00401 4.42756 3.87044 5.49636 3.87044Z" fill="#00B97D"/>
</svg>
