<svg width="24" height="24" viewBox="0 0 24 24" fill="none" xmlns="http://www.w3.org/2000/svg">
<path d="M13 7H7V9H13V7Z" fill="#9A9AB0"/>
<path d="M13 11H7V13H13V11Z" fill="#9A9AB0"/>
<path d="M11 15H7V17H11V15Z" fill="#9A9AB0"/>
<path d="M17 13V3H3V18C3 18.7956 3.31607 19.5587 3.87868 20.1213C4.44129 20.6839 5.20435 21 6 21H18C18.7956 21 19.5587 20.6839 20.1213 20.1213C20.6839 19.5587 21 18.7956 21 18V13H17ZM5 18V5H15V18C15.0033 18.3414 15.0656 18.6797 15.184 19H6C5.73478 19 5.48043 18.8946 5.29289 18.7071C5.10536 18.5196 5 18.2652 5 18ZM19 18C19 18.2652 18.8946 18.5196 18.7071 18.7071C18.5196 18.8946 18.2652 19 18 19C17.7348 19 17.4804 18.8946 17.2929 18.7071C17.1054 18.5196 17 18.2652 17 18V15H19V18Z" fill="#9A9AB0"/>
</svg>
