<svg width="30" height="30" viewBox="0 0 30 30" fill="none" xmlns="http://www.w3.org/2000/svg">
<g clip-path="url(#clip0_52_40383)">
<path d="M7.59369 4.37891C7.59369 4.37891 6.65619 2.50391 5.33431 2.50391C4.01244 2.50391 1.19056 4.21016 1.87494 9.42266C1.87494 9.42266 5.30619 10.5758 7.31244 9.01016C7.34056 9.01016 5.71869 6.29141 7.59369 4.37891Z" fill="#827420"/>
<path d="M6.7035 4.34922C6.7035 4.34922 6.01913 2.74609 5.00663 2.74609C3.99413 2.74609 1.87538 4.19922 2.4285 8.57734C2.4285 8.57734 5.00663 9.51484 6.50663 8.23984C6.50663 8.23984 5.29725 5.95234 6.7035 4.34922Z" fill="#E3D146"/>
<path d="M13.1254 3.27187C14.7966 4.03984 16.2569 5.20105 17.3816 6.65625C18.6941 8.70937 21.1785 11.7938 25.1629 11.0719C25.1629 11.0719 25.6223 0.553125 13.5848 0.375C13.5848 0.375 10.641 2.30625 13.1254 3.27187Z" fill="#998522"/>
<path d="M14.8216 0.478156C14.8216 0.478156 13.4997 3.37503 11.2497 4.04066C8.99972 4.70628 4.68722 6.45941 3.99347 9.05628C3.9466 9.05628 5.13722 -1.03122 14.8216 0.478156Z" fill="#827420"/>
<path d="M6.24414 7.05977C7.74566 7.05977 8.96289 5.81736 8.96289 4.28477C8.96289 2.75218 7.74566 1.50977 6.24414 1.50977C4.74262 1.50977 3.52539 2.75218 3.52539 4.28477C3.52539 5.81736 4.74262 7.05977 6.24414 7.05977Z" fill="#B74F88"/>
<path d="M6.24395 6.23398C7.3209 6.23398 8.19395 5.33995 8.19395 4.23711C8.19395 3.13427 7.3209 2.24023 6.24395 2.24023C5.16699 2.24023 4.29395 3.13427 4.29395 4.23711C4.29395 5.33995 5.16699 6.23398 6.24395 6.23398Z" fill="#ED5A9D"/>
<path d="M19.941 17.0148C20.9623 17.3825 21.8778 17.9954 22.6068 18.7996C23.3359 19.6039 23.8563 20.5749 24.1222 21.6273C24.4151 22.794 24.3905 24.0178 24.0509 25.1718C23.7113 26.3257 23.0691 27.3678 22.191 28.1898C21.072 28.9833 19.7168 29.3733 18.3472 29.2961C15.1597 29.2961 12.0003 28.1711 8.81283 27.018C7.71574 26.6891 6.68009 26.1824 5.74721 25.518C5.23926 25.1414 4.81173 24.6671 4.48973 24.1229C4.16774 23.5788 3.95778 22.9757 3.87221 22.3492C3.81732 21.4672 3.99131 20.5859 4.37732 19.7909C4.76333 18.9959 5.34824 18.3141 6.07533 17.8117C8.17292 16.3263 10.6865 15.542 13.2566 15.5711C15.5456 15.7066 17.8001 16.1935 19.941 17.0148Z" fill="#C98C75"/>
<path d="M19.1348 17.231C20.0386 17.5424 20.8527 18.0698 21.5063 18.7675C22.1598 19.4652 22.633 20.3119 22.8848 21.2341C23.1486 22.2578 23.1245 23.3344 22.8151 24.3452C22.5058 25.356 21.9232 26.2616 21.1317 26.9623C20.109 27.6456 18.8906 27.9749 17.6629 27.8998C14.7754 27.8998 11.916 26.9623 9.02854 25.9216C8.02827 25.6381 7.07907 25.1983 6.21604 24.6185C5.76334 24.2967 5.38044 23.8866 5.09043 23.413C4.80042 22.9393 4.60928 22.4118 4.52854 21.8623C4.47806 21.0766 4.64038 20.2918 4.9984 19.5906C5.35642 18.8894 5.8969 18.2977 6.56292 17.8779C8.50006 16.5742 10.7908 15.8968 13.1254 15.9373C15.1816 16.0681 17.2069 16.5042 19.1348 17.231Z" fill="#FAEACF"/>
<path d="M16.6785 18.0844C13.8099 19.4644 11.4056 21.6504 9.7597 24.375C9.7597 24.375 8.7097 20.3813 9.31908 17.4844C9.31908 17.475 13.3972 19.2938 16.6785 18.0844Z" fill="#FAEACF"/>
<path d="M6.5625 17.5039C6.5625 17.5039 8.12813 21.4414 10.0031 21.807C11.8781 22.1727 15.2063 22.8289 19.4531 18.6852L6.5625 17.5039Z" fill="#E8CCAA"/>
<path opacity="0.28" d="M21.3577 25.1721C22.0318 23.0937 21.4204 21.0333 19.9921 20.5701C18.5638 20.1068 16.8595 21.4162 16.1854 23.4946C15.5113 25.5729 16.1227 27.6333 17.551 28.0966C18.9792 28.5598 20.6836 27.2505 21.3577 25.1721Z" fill="white"/>
<path d="M23.6756 10.7914C23.6956 5.34967 19.3046 0.922152 13.8681 0.902226C8.43154 0.8823 4.00821 5.27751 3.98826 10.7192C3.96832 16.1609 8.35932 20.5884 13.7958 20.6083C19.2323 20.6283 23.6557 16.2331 23.6756 10.7914Z" fill="#A67A65"/>
<path d="M23.2247 10.0852C23.2441 4.80918 18.9911 0.516484 13.7254 0.497184C8.45978 0.477885 4.17545 4.73929 4.15611 10.0153C4.13677 15.2913 8.38975 19.584 13.6554 19.6033C18.9211 19.6226 23.2054 15.3612 23.2247 10.0852Z" fill="#E5A98C"/>
<path d="M23.1054 9.81833C23.1239 4.75461 19.1599 0.635062 14.2515 0.617071C9.34313 0.599081 5.34904 4.68946 5.33048 9.75319C5.31192 14.8169 9.27592 18.9365 14.1843 18.9544C19.0927 18.9724 23.0868 14.8821 23.1054 9.81833Z" fill="#E8CCAA"/>
<path d="M18.2395 11.0702C18.253 7.37853 15.3636 4.37523 11.7859 4.36211C8.20812 4.349 5.29682 7.33105 5.28329 11.0227C5.26976 14.7144 8.15912 17.7177 11.7369 17.7308C15.3146 17.7439 18.2259 14.7618 18.2395 11.0702Z" fill="#FAEACF"/>
<path d="M14.8356 11.7842C14.8377 11.2095 14.4449 10.7421 13.9582 10.7404C13.4715 10.7386 13.0753 11.203 13.0732 11.7777C13.071 12.3525 13.4639 12.8198 13.9506 12.8216C14.4373 12.8234 14.8335 12.3589 14.8356 11.7842Z" fill="#425763"/>
<path d="M14.3113 11.4149C14.3118 11.27 14.2115 11.1521 14.0873 11.1516C13.963 11.1512 13.8618 11.2683 13.8613 11.4133C13.8608 11.5583 13.9611 11.6762 14.0853 11.6766C14.2096 11.6771 14.3108 11.5599 14.3113 11.4149Z" fill="white"/>
<path d="M7.78779 10.2315C7.78989 9.65675 7.39705 9.1894 6.91036 9.18762C6.42366 9.18584 6.0274 9.65029 6.0253 10.225C6.02319 10.7997 6.41603 11.2671 6.90273 11.2689C7.38943 11.2706 7.78568 10.8062 7.78779 10.2315Z" fill="#425763"/>
<path d="M7.27225 9.8622C7.27278 9.71722 7.17248 9.59933 7.04821 9.59887C6.92395 9.59842 6.82278 9.71557 6.82225 9.86055C6.82172 10.0055 6.92202 10.1234 7.04629 10.1239C7.17055 10.1243 7.27172 10.0072 7.27225 9.8622Z" fill="white"/>
<path d="M20.166 11.5217C20.166 11.5217 20.9629 10.903 21.6098 11.1467C22.2566 11.3905 22.1629 13.4436 20.5129 13.6686L20.166 11.5217Z" fill="#FAEACF"/>
<path d="M12.0001 16.2369C11.4466 16.1527 10.9202 15.9408 10.4626 15.6181C10.0773 15.3086 9.58541 15.1637 9.09387 15.215C8.97199 15.215 8.77512 15.0275 8.57824 14.9244C8.38137 14.8212 8.06262 14.8025 8.04387 14.9244C8.02512 15.0462 8.30637 15.5244 8.30637 15.5244C8.33167 15.7298 8.33167 15.9376 8.30637 16.1431C8.28311 16.2546 8.28216 16.3695 8.30355 16.4813C8.32494 16.5932 8.36827 16.6997 8.43102 16.7946C8.49377 16.8896 8.57471 16.9713 8.66916 17.0348C8.76362 17.0984 8.86973 17.1426 8.98137 17.165C9.46637 17.3131 9.98834 17.2832 10.4532 17.0806C10.7626 16.9494 12.0001 16.2369 12.0001 16.2369Z" fill="#B74F88"/>
<path d="M12.5254 3.25234C14.094 4.03899 15.4435 5.20169 16.4535 6.63672C17.6535 8.68984 19.9504 11.7742 23.6348 11.043C23.6348 11.043 24.066 0.533594 12.9473 0.355469C12.9473 0.355469 10.2285 2.28672 12.5254 3.25234Z" fill="#E3D146"/>
<path d="M14.0623 0.497544C14.0623 0.497544 12.8529 3.67567 10.7342 4.34129C8.61543 5.00692 4.6123 6.76004 4.00293 9.37567C4.00293 9.37567 5.09043 -1.01183 14.0623 0.497544Z" fill="#E3D146"/>
<path d="M11.0156 2.46551C11.8362 4.7323 13.2536 6.73545 15.1183 8.26346C16.9829 9.79147 19.2255 10.7876 21.6094 11.1468L23.3344 11.0436L18.2625 2.88738C18.2625 2.88738 14.0625 0.478008 11.0156 2.46551Z" fill="#E3D146"/>
<path d="M19.2656 8.30547C19.2656 8.30547 20.3906 5.93359 22.0781 5.93359C23.625 5.93359 26.625 7.72422 26.475 12.9555C26.4614 13.438 26.2797 13.9007 25.9614 14.2635C25.643 14.6264 25.2079 14.8667 24.7312 14.943C23.2688 15.1773 21.1031 15.243 19.5938 14.0617C19.5938 14.0617 21.5625 10.6773 19.2656 8.30547Z" fill="#827420"/>
<path d="M12.3848 2.30547C12.3848 2.30547 13.9129 9.43984 22.6973 10.4805C22.6973 10.4805 22.6973 1.90234 14.0441 1.10547C13.9973 1.14297 12.3848 1.65859 12.3848 2.30547Z" fill="#FFEF92"/>
<path d="M6.10352 5.16532C6.10352 5.16532 7.91289 1.37782 11.2504 1.21845C14.5879 1.05907 15.0848 1.05907 15.1223 1.62157C15.1598 2.18407 15.5629 2.6247 13.5473 2.55907C11.5316 2.49345 7.63164 3.39345 6.10352 5.16532Z" fill="#FFEF92"/>
<path d="M21.5811 10.6789C23.0826 10.6789 24.2998 9.4365 24.2998 7.90391C24.2998 6.37132 23.0826 5.12891 21.5811 5.12891C20.0795 5.12891 18.8623 6.37132 18.8623 7.90391C18.8623 9.4365 20.0795 10.6789 21.5811 10.6789Z" fill="#ED5A9D"/>
<path d="M20.3721 8.26836C20.3721 8.26836 21.2252 6.27148 22.5002 6.27148C23.7752 6.27148 25.8002 7.70586 25.8096 11.8309C25.8121 12.3489 25.6214 12.8493 25.2746 13.2342C24.9279 13.619 24.4501 13.8608 23.9346 13.9121C23.3584 14.0143 22.7674 13.9972 22.1982 13.8617C21.6289 13.7262 21.0936 13.4754 20.6252 13.1246C20.6252 13.1246 22.1252 10.3121 20.3721 8.26836Z" fill="#E3D146"/>
<path d="M21.5625 8.55859C21.5625 8.55859 22.0969 7.29297 22.9031 7.29297C23.7094 7.29297 25.3125 8.43672 24.9 11.8961C24.9 11.8961 22.8656 12.6648 21.675 11.6336C21.675 11.6336 22.6406 9.82422 21.5625 8.55859Z" fill="#FFEF92"/>
<path d="M4.12475 20.3535C4.12475 20.3535 5.21225 23.4941 11.681 25.041C18.1498 26.5879 21.1029 26.916 22.4904 25.8848C23.0588 25.432 23.664 25.0275 24.2998 24.6754C24.2625 25.3919 24.0726 26.0923 23.7426 26.7294C23.4127 27.3666 22.9504 27.9258 22.3866 28.3697C21.8229 28.8136 21.1708 29.1318 20.474 29.3031C19.7772 29.4744 19.0519 29.4948 18.3466 29.3629C12.7216 28.791 5.456 25.9598 5.456 25.9598C4.58842 25.3485 3.97421 24.4412 3.72902 23.4087C3.48383 22.3761 3.62458 21.2895 4.12475 20.3535Z" fill="#5CD9EA"/>
<path d="M17.6529 26.1465L15.2998 29.0621C16.7941 29.4729 18.3494 29.6157 19.8936 29.484C21.9467 29.184 23.9436 28.0309 24.2998 24.6465C24.2998 24.6371 22.5467 27.4778 17.6529 26.1465Z" fill="#188689"/>
<path d="M11.7939 4.35938C11.7939 4.35938 15.1971 9.79687 20.4752 10.8469L20.6252 12.0094C20.6252 12.0094 15.4689 10.65 11.7939 4.35938Z" fill="#827420"/>
<path d="M4.52854 21.075C4.28028 21.7653 4.2854 22.5214 4.54298 23.2083C4.80056 23.8951 5.29384 24.4681 5.93479 24.825C8.27854 26.0344 17.4942 28.575 17.4942 28.575L16.4067 29.175L5.70041 26.25C5.70041 26.25 2.43791 25.2281 3.96604 20.3906L4.52854 21.075Z" fill="#188689"/>
<path d="M13.2188 1.74414C15.3571 1.80929 17.4152 2.57326 19.0781 3.91914L19.6219 4.51914L18.1969 6.84414C18.1969 6.84414 13.9125 2.58789 13.2188 1.74414Z" fill="#FFF6CA"/>
<path d="M19.1723 18.8625C19.1723 18.8625 21.8535 23.55 18.291 26.2969C19.6023 26.6903 21.0131 26.5799 22.2473 25.9875C22.2473 25.9875 25.2004 21.2344 20.6254 17.8125L19.1723 18.8625Z" fill="#E8CCAA"/>
<path d="M23.9714 24.4597C24.8344 24.511 25.6714 24.7739 26.4088 25.2251C27.1461 25.6764 27.7611 26.3021 28.1995 27.0472C28.3031 27.212 28.372 27.3961 28.4021 27.5884C28.4322 27.7807 28.4228 27.9771 28.3746 28.1657C28.3264 28.3543 28.2402 28.5311 28.1215 28.6853C28.0028 28.8395 27.8539 28.9679 27.6839 29.0628C26.4741 29.7209 25.1189 30.0656 23.7417 30.0656C22.3646 30.0656 21.0093 29.7209 19.7995 29.0628C19.4464 28.842 19.1938 28.4917 19.0956 28.087C18.9975 27.6822 19.0617 27.2552 19.2745 26.8972C19.7749 26.1168 20.4709 25.4812 21.2933 25.0535C22.1158 24.6259 23.0359 24.4211 23.962 24.4597H23.9714Z" fill="#425763"/>
<path d="M23.9341 25.031C24.6574 25.0651 25.3626 25.2686 25.9928 25.6253C26.623 25.9819 27.1606 26.4816 27.5623 27.0841C27.6571 27.2153 27.7215 27.3661 27.7506 27.5254C27.7798 27.6847 27.773 27.8484 27.7308 28.0048C27.6885 28.1611 27.6119 28.306 27.5066 28.429C27.4012 28.5519 27.2697 28.6497 27.1216 28.7154C26.0499 29.2165 24.8779 29.466 23.695 29.4449C22.5121 29.4238 21.3497 29.1326 20.2966 28.5935C20.1555 28.52 20.0319 28.417 19.9343 28.2915C19.8366 28.1659 19.7671 28.0208 19.7307 27.8659C19.6942 27.7111 19.6915 27.5502 19.7229 27.3943C19.7542 27.2383 19.8188 27.091 19.9123 26.9622C20.3611 26.332 20.9613 25.8248 21.6576 25.4873C22.3538 25.1498 23.1238 24.9929 23.8966 25.031H23.9341Z" fill="#A2B6BA"/>
<path d="M23.9158 25.1159C24.5062 25.141 25.0822 25.3052 25.5971 25.5952C26.1119 25.8852 26.5509 26.2928 26.8783 26.7847C26.9488 26.895 26.9954 27.0188 27.0151 27.1483C27.0348 27.2777 27.0272 27.4098 26.9927 27.5361C26.9583 27.6623 26.8978 27.78 26.8151 27.8815C26.7324 27.983 26.6294 28.066 26.5127 28.1253C25.6395 28.5332 24.6846 28.736 23.7211 28.7181C22.7575 28.7002 21.8108 28.4622 20.9533 28.0222C20.841 27.9595 20.7428 27.8744 20.6648 27.7722C20.5868 27.6699 20.5307 27.5527 20.4999 27.4279C20.4691 27.303 20.4644 27.1732 20.4859 27.0464C20.5075 26.9196 20.5549 26.7986 20.6252 26.6909C20.99 26.177 21.4784 25.7632 22.0453 25.488C22.6123 25.2127 23.2395 25.0847 23.8689 25.1159H23.9158Z" fill="#87999B"/>
<path d="M23.5496 27.7594C26.9047 27.7594 29.6246 25.0395 29.6246 21.6844C29.6246 18.3292 26.9047 15.6094 23.5496 15.6094C20.1945 15.6094 17.4746 18.3292 17.4746 21.6844C17.4746 25.0395 20.1945 27.7594 23.5496 27.7594Z" fill="#425763"/>
<path d="M23.5504 26.8879C26.5327 26.8879 28.9504 24.4702 28.9504 21.4879C28.9504 18.5056 26.5327 16.0879 23.5504 16.0879C20.5681 16.0879 18.1504 18.5056 18.1504 21.4879C18.1504 24.4702 20.5681 26.8879 23.5504 26.8879Z" fill="#A2B6BA"/>
<path d="M23.7658 26.0258C26.5203 26.0258 28.7533 23.7928 28.7533 21.0383C28.7533 18.2838 26.5203 16.0508 23.7658 16.0508C21.0113 16.0508 18.7783 18.2838 18.7783 21.0383C18.7783 23.7928 21.0113 26.0258 23.7658 26.0258Z" fill="#CBDEE4"/>
<path d="M26.5027 20.6148C27.1137 20.6148 27.609 20.1196 27.609 19.5086C27.609 18.8976 27.1137 18.4023 26.5027 18.4023C25.8918 18.4023 25.3965 18.8976 25.3965 19.5086C25.3965 20.1196 25.8918 20.6148 26.5027 20.6148Z" fill="#425763"/>
<path d="M26.5504 20.1086C26.918 20.1086 27.216 19.8106 27.216 19.443C27.216 19.0754 26.918 18.7773 26.5504 18.7773C26.1828 18.7773 25.8848 19.0754 25.8848 19.443C25.8848 19.8106 26.1828 20.1086 26.5504 20.1086Z" fill="#4ED154"/>
<path d="M22.5473 19.0781C22.6345 18.5277 22.8333 18.0009 23.1316 17.5302C23.4298 17.0594 23.8212 16.6546 24.2816 16.3406C24.4785 16.2281 24.441 16.1062 24.2254 16.0781H23.9348C23.7004 16.0781 22.0598 16.1531 21.4785 19.1625L22.5473 19.0781Z" fill="#A2B6BA"/>
<path d="M25.3129 22.143C25.3129 20.2479 23.8774 18.7117 22.1066 18.7117C20.3359 18.7117 18.9004 20.2479 18.9004 22.143C18.9004 24.038 20.3359 25.5742 22.1066 25.5742C23.8774 25.5742 25.3129 24.038 25.3129 22.143Z" fill="#425763"/>
<path d="M24.7099 22.084C24.7152 20.6394 23.624 19.4643 22.2727 19.4594C20.9213 19.4544 19.8215 20.6215 19.8162 22.066C19.8109 23.5106 20.9021 24.6857 22.2535 24.6906C23.6049 24.6956 24.7046 23.5285 24.7099 22.084Z" fill="#3587C4"/>
<path d="M24.3062 21.9884C24.3106 20.7872 23.4033 19.81 22.2798 19.8059C21.1563 19.8018 20.2419 20.7722 20.2375 21.9735C20.2331 23.1747 21.1403 24.1518 22.2639 24.1559C23.3874 24.16 24.3018 23.1896 24.3062 21.9884Z" fill="#4DA3EC"/>
<path d="M23.4179 20.9853C23.4191 20.6694 23.1514 20.4124 22.82 20.4112C22.4886 20.41 22.2191 20.665 22.2179 20.9809C22.2168 21.2967 22.4844 21.5537 22.8158 21.5549C23.1472 21.5561 23.4168 21.3011 23.4179 20.9853Z" fill="white"/>
<path d="M23.6904 17.5119C23.9352 17.2469 24.1983 16.9994 24.4779 16.7713C24.5297 16.7294 24.5908 16.7008 24.6561 16.6877C24.7214 16.6746 24.7889 16.6776 24.8529 16.6963C25.3894 16.854 25.9031 17.0809 26.381 17.3713C26.4596 17.421 26.5196 17.4952 26.5517 17.5825C26.5837 17.6698 26.586 17.7653 26.5582 17.854C26.5304 17.9428 26.4741 18.0199 26.3979 18.0733C26.3218 18.1267 26.2301 18.1535 26.1372 18.1494C25.4401 18.1052 24.7404 18.124 24.0466 18.2057C23.9634 18.2126 23.88 18.1946 23.8069 18.1541C23.7339 18.1135 23.6746 18.0522 23.6364 17.9779C23.5983 17.9036 23.583 17.8197 23.5926 17.7367C23.6022 17.6538 23.6362 17.5755 23.6904 17.5119Z" fill="#E1F0F4"/>
</g>
<defs>
<clipPath id="clip0_52_40383">
<rect width="30" height="30" fill="white"/>
</clipPath>
</defs>
</svg>
