<svg width="14" height="16" viewBox="0 0 14 16" fill="none" xmlns="http://www.w3.org/2000/svg">
<path d="M10.8586 10.2875C10.4776 10.2869 10.1004 10.3631 9.74951 10.5115C9.39861 10.66 9.08124 10.8777 8.81635 11.1515L5.52442 9.03784C5.78139 8.37147 5.78139 7.63336 5.52442 6.96699L8.81635 4.8533C9.27946 5.32692 9.89278 5.62485 10.5513 5.69612C11.2099 5.76738 11.8728 5.60754 12.4265 5.24395C12.9802 4.88036 13.3903 4.33563 13.5866 3.70299C13.783 3.07036 13.7533 2.38914 13.5028 1.77595C13.2522 1.16276 12.7963 0.65571 12.2131 0.34159C11.63 0.0274706 10.9557 -0.0741901 10.3058 0.0540079C9.65595 0.182206 9.07083 0.532292 8.65062 1.04435C8.2304 1.5564 8.00122 2.19859 8.0023 2.86099C8.00344 3.21495 8.06877 3.56577 8.1951 3.89642L4.90316 6.01012C4.50683 5.60294 3.99806 5.32323 3.44192 5.20674C2.88577 5.09025 2.30752 5.14228 1.7811 5.35618C1.25468 5.57008 0.804024 5.93613 0.486748 6.40751C0.169473 6.8789 0 7.4342 0 8.00242C0 8.57063 0.169473 9.12594 0.486748 9.59732C0.804024 10.0687 1.25468 10.4348 1.7811 10.6487C2.30752 10.8626 2.88577 10.9146 3.44192 10.7981C3.99806 10.6816 4.50683 10.4019 4.90316 9.99472L8.1951 12.1084C8.06877 12.4391 8.00344 12.7899 8.0023 13.1438C8.0023 13.7088 8.16982 14.261 8.48368 14.7307C8.79754 15.2005 9.24363 15.5666 9.76556 15.7828C10.2875 15.9989 10.8618 16.0555 11.4159 15.9453C11.97 15.8351 12.4789 15.563 12.8784 15.1636C13.2778 14.7641 13.5499 14.2552 13.6601 13.7011C13.7703 13.147 13.7138 12.5727 13.4976 12.0508C13.2814 11.5288 12.9153 11.0827 12.4455 10.7689C11.9758 10.455 11.4236 10.2875 10.8586 10.2875ZM10.8586 1.14719C11.1976 1.14719 11.5289 1.2477 11.8108 1.43602C12.0926 1.62433 12.3123 1.89199 12.442 2.20515C12.5717 2.51831 12.6056 2.8629 12.5395 3.19534C12.4734 3.52779 12.3102 3.83316 12.0705 4.07284C11.8308 4.31252 11.5254 4.47574 11.193 4.54187C10.8605 4.608 10.516 4.57406 10.2028 4.44435C9.88964 4.31463 9.62198 4.09497 9.43366 3.81313C9.24535 3.5313 9.14483 3.19995 9.14483 2.86099C9.14671 2.40704 9.32788 1.97222 9.64887 1.65123C9.96987 1.33023 10.4047 1.14907 10.8586 1.14719ZM2.86087 9.71622C2.52191 9.71622 2.19057 9.61571 1.90873 9.4274C1.6269 9.23908 1.40724 8.97142 1.27752 8.65826C1.14781 8.3451 1.11387 8.00052 1.18 7.66807C1.24612 7.33562 1.40935 7.03025 1.64903 6.79057C1.88871 6.55089 2.19408 6.38767 2.52653 6.32154C2.85897 6.25541 3.20356 6.28935 3.51672 6.41906C3.82988 6.54878 4.09754 6.76844 4.28585 7.05028C4.47417 7.33211 4.57468 7.66346 4.57468 8.00242C4.5728 8.45637 4.39164 8.89119 4.07064 9.21219C3.74965 9.53318 3.31482 9.71434 2.86087 9.71622ZM10.8586 14.8576C10.5197 14.8576 10.1883 14.7571 9.9065 14.5688C9.62467 14.3805 9.405 14.1128 9.27529 13.7997C9.14557 13.4865 9.11164 13.1419 9.17776 12.8095C9.24389 12.477 9.40711 12.1717 9.6468 11.932C9.88648 11.6923 10.1918 11.5291 10.5243 11.463C10.8567 11.3968 11.2013 11.4308 11.5145 11.5605C11.8276 11.6902 12.0953 11.9099 12.2836 12.1917C12.4719 12.4735 12.5724 12.8049 12.5724 13.1438C12.5706 13.5978 12.3894 14.0326 12.0684 14.3536C11.7474 14.6746 11.3126 14.8558 10.8586 14.8576Z" fill="white"/>
</svg>
