<svg width="26" height="19" viewBox="0 0 26 19" fill="none" xmlns="http://www.w3.org/2000/svg">
<path d="M25.3326 2.37512V16.6249C25.3321 17.2544 25.0818 17.8581 24.6367 18.3034C24.1917 18.7487 23.5881 18.9992 22.9585 19H2.37512C1.74519 18.9994 1.14123 18.7489 0.695892 18.3034C0.250557 17.8579 0.000267715 17.2538 0 16.6238V2.37614C0.00026796 1.74603 0.250696 1.1418 0.69625 0.69625C1.1418 0.250696 1.74603 0.00026796 2.37614 0H22.9585C23.5883 0.000803548 24.192 0.251468 24.6371 0.696964C25.0822 1.14246 25.3324 1.74537 25.3326 2.37512ZM2.37614 1.58342C2.272 1.58334 2.16889 1.60396 2.0728 1.64408L12.6673 10.8271L23.2629 1.64509C23.1668 1.60497 23.0637 1.58435 22.9595 1.58443L2.37614 1.58342ZM23.7512 16.6249V3.3185L13.185 12.4722C13.0413 12.5976 12.8571 12.6668 12.6663 12.6668C12.4756 12.6668 12.2913 12.5976 12.1476 12.4722L1.58342 3.31749V16.6238C1.58342 17.0617 1.93832 17.4166 2.37512 17.4166H22.9585C23.3953 17.4166 23.7502 17.0617 23.7512 16.6249Z" fill="#96979F"/>
</svg>
