<svg width="17" height="13" viewBox="0 0 17 13" fill="none" xmlns="http://www.w3.org/2000/svg">
<path d="M16.7368 11.6958L13.9311 9.56728C16.3349 7.24699 16.1331 3.86839 13.3153 1.73105C10.2725 -0.577017 5.32378 -0.577017 2.28181 1.73105C-0.760157 4.03912 -0.761051 7.79278 2.28181 10.1002C3.63115 11.1222 5.42722 11.734 7.33073 11.8201C9.23424 11.9061 11.1134 11.4605 12.6132 10.5672L15.4189 12.6957C15.5946 12.8251 15.8303 12.8969 16.0752 12.8955C16.3201 12.8942 16.5544 12.8198 16.7275 12.6884C16.9007 12.557 16.9987 12.3793 17.0004 12.1935C17.0021 12.0078 16.9074 11.829 16.7368 11.6958ZM3.59964 9.10023C1.28483 7.34373 1.28483 4.48682 3.59964 2.73099C4.7141 1.88761 6.22408 1.41397 7.79834 1.41397C9.3726 1.41397 10.8826 1.88761 11.997 2.73099C14.3119 4.48682 14.3119 7.34373 11.997 9.10023C9.68223 10.8567 5.91356 10.8554 3.59964 9.10023Z" fill="#B0B6C4"/>
</svg>
