<svg width="23" height="23" viewBox="0 0 23 23" fill="none" xmlns="http://www.w3.org/2000/svg">
<path d="M22.9525 7.64126L22.6324 4.62612C22.1687 1.33885 20.6561 0 17.4212 0H14.8156H13.1816H9.82536H8.19136H5.54163C2.29571 0 0.794188 1.33885 0.319444 4.65877L0.0213496 7.65215C-0.0890559 8.81684 0.231121 9.94888 0.926675 10.8306C1.76576 11.9082 3.0575 12.5177 4.49277 12.5177C5.88388 12.5177 7.21979 11.832 8.05887 10.7326C8.80963 11.832 10.0903 12.5177 11.5145 12.5177C12.9388 12.5177 14.1863 11.8646 14.9481 10.7761C15.7983 11.8537 17.1121 12.5177 18.4811 12.5177C19.9495 12.5177 21.2744 11.8755 22.1024 10.7435C22.7648 9.87268 23.0629 8.7733 22.9525 7.64126Z" fill="#15161E"/>
<path d="M10.7971 16.774C9.39495 16.9155 8.33506 18.0911 8.33506 19.4843V22.4668C8.33506 22.7607 8.57795 23.0002 8.87604 23.0002H14.1424C14.4405 23.0002 14.6834 22.7607 14.6834 22.4668V19.8653C14.6944 17.5903 13.3364 16.5127 10.7971 16.774Z" fill="#15161E"/>
<path d="M21.8588 14.3139V17.5576C21.8588 20.5618 19.3858 23.0001 16.3386 23.0001C16.0405 23.0001 15.7976 22.7606 15.7976 22.4667V19.8652C15.7976 18.4719 15.367 17.3834 14.5279 16.6433C13.7882 15.9793 12.7835 15.6527 11.5359 15.6527C11.2599 15.6527 10.9839 15.6636 10.6858 15.6963C8.72058 15.8922 7.2301 17.5249 7.2301 19.4842V22.4667C7.2301 22.7606 6.98721 23.0001 6.68912 23.0001C3.64193 23.0001 1.16884 20.5618 1.16884 17.5576V14.3356C1.16884 13.5737 1.93064 13.0621 2.64828 13.3124C2.94637 13.4104 3.24447 13.4866 3.5536 13.5301C3.68609 13.5519 3.82962 13.5737 3.9621 13.5737C4.13875 13.5955 4.3154 13.6063 4.49205 13.6063C5.77275 13.6063 7.03138 13.1383 8.02502 12.3328C8.97451 13.1383 10.2111 13.6063 11.5138 13.6063C12.8277 13.6063 14.0421 13.1601 14.9916 12.3546C15.9853 13.1492 17.2218 13.6063 18.4804 13.6063C18.6792 13.6063 18.8779 13.5955 19.0656 13.5737C19.1981 13.5628 19.3195 13.5519 19.441 13.5301C19.7832 13.4866 20.0923 13.3886 20.4015 13.2907C21.1191 13.0512 21.8588 13.5737 21.8588 14.3139Z" fill="#15161E"/>
</svg>
