<svg width="21" height="30" viewBox="0 0 21 30" fill="none" xmlns="http://www.w3.org/2000/svg">
<path d="M1.14528 10.4949L9.88981 7.36342C10.2748 7.23048 10.7148 7.23048 11.0815 7.36342L19.826 10.4949C20.596 10.7756 21.311 10.0222 20.7793 9.49047L11.6131 0.465291C10.9898 -0.155097 9.96316 -0.155097 9.33985 0.465291L0.173608 9.49047C-0.339701 10.0222 0.37532 10.7756 1.14528 10.4949Z" fill="white"/>
<path d="M1.14565 19.062L9.90852 22.1934C10.2935 22.3264 10.7335 22.3264 11.1002 22.1934L19.863 19.062C20.633 18.7813 21.348 19.5346 20.8164 20.0664L11.6501 29.0916C11.0268 29.712 10.0002 29.712 9.37692 29.0916L0.210673 20.0664C-0.339301 19.5346 0.35735 18.7813 1.14565 19.062Z" fill="white"/>
<path d="M10.0917 11.0708L2.52039 14.1137C1.84209 14.3795 1.84209 15.1624 2.52039 15.4283L10.0917 18.4711C10.3484 18.5745 10.6599 18.5745 10.9166 18.4711L18.488 15.4283C19.1662 15.1624 19.1662 14.3795 18.488 14.1137L10.9166 11.0708C10.6416 10.9674 10.3484 10.9674 10.0917 11.0708Z" fill="white"/>
</svg>
