<svg width="35" height="20" viewBox="0 0 35 20" fill="none" xmlns="http://www.w3.org/2000/svg">
<path d="M32.1083 0.0122987C31.4744 -0.0423437 30.9995 0.0848068 30.657 0.39949C30.2109 0.809242 29.9953 1.52597 29.9797 2.65246C29.6107 3.07318 29.2429 3.49166 28.8765 3.90793C28.03 4.87023 27.1548 5.86517 26.3052 6.84678C25.4556 7.82839 24.5985 8.83436 23.7697 9.8071C23.4138 10.2244 23.0578 10.6421 22.7012 11.0602C22.6048 11.0581 22.5044 11.0511 22.3991 11.0438C22.0877 11.0028 21.7717 11.0188 21.4662 11.0912C21.0596 11.2146 20.818 11.0993 20.4606 10.8122C18.4931 9.23329 16.6646 8.0065 14.8703 7.06205C14.7294 6.9973 14.6053 6.90064 14.5077 6.77955C14.4101 6.65848 14.3416 6.51627 14.3075 6.36409C14.1652 5.81664 13.8154 5.34738 13.3332 5.05737C12.8512 4.76736 12.2753 4.67978 11.7298 4.81351C11.1751 4.94407 10.6898 5.2808 10.3706 5.75641C10.0515 6.23204 9.92216 6.81154 10.0084 7.37911C10.0307 7.52908 10.0576 7.67906 10.0835 7.82185L10.1042 7.93921L2.89913 14.9234C2.86252 14.9199 2.82602 14.9159 2.78967 14.9121C2.66959 14.899 2.54532 14.886 2.42074 14.8827C1.22909 14.8482 0.496578 15.3736 0.114025 16.5369C-0.172924 17.4093 0.14119 18.188 0.402523 18.6979C0.579579 19.0643 0.849228 19.3772 1.18438 19.6051C1.51953 19.833 1.90833 19.968 2.31166 19.9963C2.35228 19.9985 2.39279 19.9996 2.43326 19.9997C2.8215 19.9938 3.20221 19.8905 3.54101 19.6994C3.87979 19.508 4.16599 19.2348 4.37384 18.9042C4.99482 17.9634 5.09134 17.0817 4.66701 16.212L11.6584 9.49894L13.6061 8.89254L19.3838 12.8879C19.4294 13.7472 19.6417 14.3916 20.0682 14.9693C20.3165 15.3242 20.677 15.5837 21.0907 15.7055C21.5043 15.8272 21.9465 15.8038 22.3454 15.6394C23.4982 15.1978 24.1385 14.2193 24.1082 12.9501L31.1202 4.17161C32.1148 4.36723 32.8869 4.27597 33.4157 3.89907C33.8247 3.60812 34.0736 3.15704 34.1554 2.55831C34.2022 2.25641 34.1872 1.94797 34.1112 1.65215C34.0351 1.35633 33.8996 1.07942 33.7129 0.838578C33.5158 0.597514 33.2717 0.399807 32.9956 0.25768C32.7197 0.115553 32.4177 0.0320372 32.1083 0.0122987Z" fill="white"/>
</svg>
