<svg width="100" height="20" viewBox="0 0 100 20" fill="none" xmlns="http://www.w3.org/2000/svg">
<g clip-path="url(#clip0_52_121401)">
<path d="M12.9954 2.34261C12.4954 2.06544 11.0552 2.23392 9.33236 2.77196C6.31606 4.83174 3.76714 7.87522 3.5878 12.7557C3.55519 12.8698 3.25627 12.7557 3.19649 12.7013C2.26189 10.99 2.08838 8.9651 2.71823 7.11979C2.84866 6.91327 2.43019 6.6524 2.35953 6.72305C1.90686 7.18791 1.50763 7.70198 1.16932 8.25566C-0.828212 11.85 0.466268 16.3831 4.06062 18.3807C7.65497 20.3782 12.1881 19.0837 14.1856 15.4894C16.4954 11.348 14.3487 3.09805 12.9954 2.34261Z" fill="#91B34C"/>
<path fill-rule="evenodd" clip-rule="evenodd" d="M25.8331 4.34725C29.5396 4.34725 32.0667 6.5592 32.5776 10.2875C32.6234 10.595 32.6434 10.9059 32.6374 11.2168C32.6374 12.2222 32.132 12.7114 31.0885 12.7114H21.4798C21.636 15.0698 23.6165 16.8901 25.9798 16.8472C27.3228 16.8646 28.6146 16.3326 29.5559 15.3744C29.8214 15.0874 30.1921 14.9206 30.5831 14.9125C30.9147 14.8974 31.2378 15.0203 31.4757 15.2519C31.7135 15.4836 31.8448 15.8033 31.8385 16.1353C31.8235 16.5325 31.6584 16.9093 31.3765 17.1896C29.9594 18.6303 27.9989 19.4042 25.9798 19.3201C21.5722 19.3201 18.4961 16.2222 18.4961 11.8636C18.4961 7.50485 21.5831 4.34725 25.8331 4.34725ZM25.8331 6.67877V6.66246C23.601 6.62277 21.7109 8.3002 21.4852 10.5212H29.7135C29.6374 8.14616 28.1374 6.67877 25.8331 6.67877ZM41.8113 4.34725C45.7352 4.34725 47.132 7.32551 47.132 10.1244V17.5646C47.1796 18.117 46.9119 18.6491 46.4399 18.94C45.9678 19.2309 45.3722 19.2309 44.9002 18.94C44.4281 18.6491 44.1604 18.117 44.208 17.5646V11.0429C44.208 8.19507 43.2407 6.8092 41.0667 6.8092C38.8928 6.8092 37.3657 8.6842 37.3657 11.3744V17.5429C37.4133 18.0953 37.1456 18.6274 36.6736 18.9183C36.2015 19.2092 35.6059 19.2092 35.1338 18.9183C34.6618 18.6274 34.3941 18.0953 34.4417 17.5429V6.03203C34.3871 5.63226 34.5115 5.22873 34.7818 4.92913C35.052 4.62953 35.4406 4.46435 35.8439 4.47768C36.0722 4.47768 37.2189 4.55377 37.2189 6.03203V6.99942C38.1536 5.34613 39.9122 4.33056 41.8113 4.34725ZM60.3711 4.47768C60.7451 4.46583 61.1078 4.60696 61.3755 4.86848C61.6432 5.13001 61.7927 5.48934 61.7896 5.86355C61.7785 6.13732 61.7158 6.40654 61.6048 6.65703L56.9744 17.5809C56.4254 18.8907 55.5287 19.1679 54.8657 19.1679C54.2026 19.1679 53.295 18.8907 52.7515 17.5809L48.1537 6.71138C48.0339 6.45042 47.9709 6.16699 47.9689 5.87985C47.9867 5.08952 48.6405 4.46251 49.4309 4.47768C50.1352 4.4833 50.747 4.9634 50.92 5.64616L54.8928 15.7168L58.9146 5.64616C59.0794 4.97172 59.677 4.49231 60.3711 4.47768ZM68.8765 4.34725C72.5994 4.34725 74.8222 6.4179 74.8276 9.9179V17.6788C74.8779 18.0571 74.762 18.4387 74.5099 18.7252C74.2578 19.0117 73.894 19.1751 73.5124 19.1733C73.1233 19.1835 72.7488 19.025 72.4853 18.7385C72.2217 18.4521 72.0949 18.0657 72.1374 17.6788V16.9396C71.072 18.492 69.279 19.3823 67.3983 19.2929C64.8276 19.2929 62.2244 17.9288 62.2244 14.8907C62.2244 10.6679 67.1483 10.0755 72.007 10.0755V9.75486C72.007 7.82551 70.7733 6.73855 68.5994 6.73855C67.4265 6.75712 66.2879 7.13666 65.3385 7.82551C65.0849 8.01042 64.7824 8.1163 64.4689 8.12986C64.1629 8.12994 63.8698 8.00655 63.656 7.78762C63.4422 7.56869 63.3257 7.27274 63.333 6.96681C63.3319 6.49315 63.5795 6.05367 63.9852 5.8092C65.4233 4.82373 67.1335 4.31256 68.8765 4.34725ZM71.4037 12.2277V12.2114C68.7407 12.2114 65.2189 12.4994 65.2081 14.8309C65.2081 16.8092 67.3602 16.9614 68.0178 16.9614C70.4472 16.9614 72.0178 15.369 72.0178 12.9016V12.2277H71.4037ZM82.4417 7.13529H79.7841V14.3799C79.7841 15.9288 80.3276 16.657 81.4146 16.657C81.6189 16.6536 81.8218 16.6225 82.0178 16.5646C82.1947 16.5135 82.3773 16.4843 82.5613 16.4777C82.8734 16.467 83.176 16.586 83.3973 16.8063C83.6186 17.0266 83.739 17.3286 83.7298 17.6407C83.707 18.1522 83.3918 18.6049 82.92 18.8038C82.3342 19.0364 81.7077 19.1491 81.0776 19.1353C78.3548 19.1353 76.9146 17.5918 76.9146 14.6733V2.05377C76.8557 1.49962 77.1182 0.960455 77.5906 0.664972C78.0631 0.369489 78.6628 0.369489 79.1353 0.664972C79.6077 0.960455 79.8702 1.49962 79.8113 2.05377V4.71681H82.4417C82.9073 4.66266 83.3626 4.88058 83.6124 5.27713C83.8622 5.67367 83.8622 6.17843 83.6124 6.57498C83.3626 6.97152 82.9073 7.18944 82.4417 7.13529ZM92.1157 4.34725C96.5613 4.34725 99.7841 7.51572 99.7841 11.8038C99.7841 16.0918 96.4635 19.3201 92.1157 19.3201C90.0964 19.3524 88.1451 18.5914 86.6809 17.2005C85.2554 15.7702 84.4709 13.8228 84.507 11.8038C84.507 7.48312 87.6917 4.34725 92.1157 4.34725ZM92.1157 16.8472C94.3439 16.8472 96.7407 15.2494 96.7407 11.8092C96.7407 8.36898 94.3385 6.80377 92.1157 6.80377C89.8928 6.80377 87.4961 8.36898 87.4961 11.8092C87.4961 14.3146 89.0831 16.8472 92.1157 16.8472Z" fill="black"/>
</g>
<defs>
<clipPath id="clip0_52_121401">
<rect width="100" height="19.5652" fill="white"/>
</clipPath>
</defs>
</svg>
