<svg width="80" height="105" viewBox="0 0 80 105" fill="none" xmlns="http://www.w3.org/2000/svg">
<g filter="url(#filter0_dd_12_19186)">
<rect x="20" y="18" width="40" height="40" rx="12" fill="white"/>
</g>
<path fill-rule="evenodd" clip-rule="evenodd" d="M51.2347 30.0391C52.8607 29.0111 55.0207 28.7271 56.8867 29.3251C60.9457 30.6341 62.2057 35.0591 61.0787 38.5801C59.3397 44.1101 51.9127 48.2351 51.5977 48.4081C51.4857 48.4701 51.3617 48.5011 51.2377 48.5011C51.1137 48.5011 50.9907 48.4711 50.8787 48.4101C50.5657 48.2391 43.1927 44.1751 41.3957 38.5811C41.3947 38.5811 41.3947 38.5801 41.3947 38.5801C40.2667 35.0581 41.5227 30.6321 45.5777 29.3251C47.4817 28.7091 49.5567 28.9801 51.2347 30.0391ZM46.0377 30.7531C42.7567 31.8111 41.9327 35.3401 42.8237 38.1231C44.2257 42.4851 49.7647 46.0121 51.2367 46.8851C52.7137 46.0031 58.2927 42.4371 59.6497 38.1271C60.5407 35.3411 59.7137 31.8121 56.4277 30.7531C54.8357 30.2421 52.9787 30.5531 51.6967 31.5451C51.4287 31.7511 51.0567 31.7551 50.7867 31.5511C49.4287 30.5301 47.6547 30.2311 46.0377 30.7531ZM55.4677 32.739C56.8307 33.18 57.7857 34.387 57.9027 35.814C57.9357 36.227 57.6287 36.589 57.2157 36.622C57.1947 36.624 57.1747 36.625 57.1537 36.625C56.7667 36.625 56.4387 36.328 56.4067 35.936C56.3407 35.114 55.7907 34.42 55.0077 34.167C54.6127 34.039 54.3967 33.616 54.5237 33.223C54.6527 32.829 55.0717 32.615 55.4677 32.739Z" fill="#333333"/>
<defs>
<filter id="filter0_dd_12_19186" x="0" y="0" width="80" height="105" filterUnits="userSpaceOnUse" color-interpolation-filters="sRGB">
<feFlood flood-opacity="0" result="BackgroundImageFix"/>
<feColorMatrix in="SourceAlpha" type="matrix" values="0 0 0 0 0 0 0 0 0 0 0 0 0 0 0 0 0 0 127 0" result="hardAlpha"/>
<feOffset dy="2"/>
<feGaussianBlur stdDeviation="10"/>
<feComposite in2="hardAlpha" operator="out"/>
<feColorMatrix type="matrix" values="0 0 0 0 0.091875 0 0 0 0 0.228375 0 0 0 0 0.433125 0 0 0 0.1 0"/>
<feBlend mode="normal" in2="BackgroundImageFix" result="effect1_dropShadow_12_19186"/>
<feColorMatrix in="SourceAlpha" type="matrix" values="0 0 0 0 0 0 0 0 0 0 0 0 0 0 0 0 0 0 127 0" result="hardAlpha"/>
<feOffset dy="29"/>
<feGaussianBlur stdDeviation="9"/>
<feComposite in2="hardAlpha" operator="out"/>
<feColorMatrix type="matrix" values="0 0 0 0 0.07695 0 0 0 0 0.0702604 0 0 0 0 0.40474 0 0 0 0.03 0"/>
<feBlend mode="normal" in2="effect1_dropShadow_12_19186" result="effect2_dropShadow_12_19186"/>
<feBlend mode="normal" in="SourceGraphic" in2="effect2_dropShadow_12_19186" result="shape"/>
</filter>
</defs>
</svg>
