<svg width="24" height="17" viewBox="0 0 24 17" fill="none" xmlns="http://www.w3.org/2000/svg">
<mask id="mask0_0_355" style="mask-type:luminance" maskUnits="userSpaceOnUse" x="-3" y="-7" width="30" height="30">
<rect x="-2.3997" y="-6.00075" width="28.8004" height="28.8004" fill="white"/>
</mask>
<g mask="url(#mask0_0_355)">
<path fill-rule="evenodd" clip-rule="evenodd" d="M15.6002 7.2001H24.0003V9.60013H15.6002V7.2001ZM16.8002 12.0002H24.0003V14.4002H16.8002V12.0002ZM14.4002 2.40004H24.0003V4.80008H14.4002V2.40004ZM2.40003 16.8002H12.0002H13.2002H14.4002V15.6002C14.4002 12.2918 11.7086 9.60014 8.40012 9.60014H6.00008C2.69164 9.60014 0 12.2918 0 15.6002V16.8002H1.20002H2.40003ZM7.2001 8.40012C9.59413 8.40012 11.4002 6.59409 11.4002 4.20006C11.4002 1.80603 9.59413 0 7.2001 0C4.80606 0 3.00004 1.80603 3.00004 4.20006C3.00004 6.59409 4.80606 8.40012 7.2001 8.40012Z" fill="#878A92"/>
</g>
</svg>
