<svg width="26" height="19" viewBox="0 0 26 19" fill="none" xmlns="http://www.w3.org/2000/svg">
<path d="M25.3353 2.37537V16.6266C25.3347 17.2562 25.0844 17.86 24.6393 18.3053C24.1942 18.7506 23.5906 19.0012 22.9609 19.002H2.37537C1.74537 19.0014 1.14135 18.7509 0.695965 18.3053C0.250583 17.8597 0.000267743 17.2556 0 16.6256V2.37638C0.000267988 1.74621 0.250722 1.14192 0.696322 0.696322C1.14192 0.250722 1.74621 0.000267988 2.37638 0H22.9609C23.5907 0.000803631 24.1945 0.251494 24.6397 0.697036C25.0848 1.14258 25.335 1.74555 25.3353 2.37537ZM2.37638 1.58358C2.27224 1.5835 2.16912 1.60412 2.07301 1.64425L12.6686 10.8282L23.2653 1.64527C23.1692 1.60514 23.0661 1.58451 22.9619 1.58459L2.37638 1.58358ZM23.7537 16.6266V3.31885L13.1864 12.4735C13.0427 12.5989 12.8584 12.6681 12.6676 12.6681C12.4769 12.6681 12.2926 12.5989 12.1489 12.4735L1.58358 3.31783V16.6256C1.58358 17.0634 1.93852 17.4184 2.37537 17.4184H22.9609C23.3978 17.4184 23.7527 17.0634 23.7537 16.6266Z" fill="#96979F"/>
</svg>
