<svg width="22" height="22" viewBox="0 0 22 22" fill="none" xmlns="http://www.w3.org/2000/svg">
<path d="M3.8372 9.7209H5.8837V8.18602H3.8372V9.7209ZM5.8837 9.7209C7.02525 9.7209 8.02237 9.43499 8.72868 8.72868C9.43499 8.02237 9.7209 7.02525 9.7209 5.8837H8.18602C8.18602 6.78866 7.9603 7.32642 7.64336 7.64336C7.32642 7.9603 6.78866 8.18602 5.8837 8.18602V9.7209ZM9.7209 5.8837V3.8372H8.18602V5.8837H9.7209ZM9.7209 3.8372C9.7209 2.69565 9.43499 1.69853 8.72868 0.992217C8.02237 0.285907 7.02525 0 5.8837 0V1.53488C6.78866 1.53488 7.32642 1.7606 7.64336 2.07754C7.9603 2.39448 8.18602 2.93224 8.18602 3.8372H9.7209ZM5.8837 0H3.8372V1.53488H5.8837V0ZM3.8372 0C2.69565 0 1.69853 0.285907 0.992217 0.992217C0.285907 1.69853 0 2.69565 0 3.8372H1.53488C1.53488 2.93224 1.7606 2.39448 2.07754 2.07754C2.39448 1.7606 2.93224 1.53488 3.8372 1.53488V0ZM0 3.8372V5.8837H1.53488V3.8372H0ZM0 5.8837C0 7.02525 0.285907 8.02237 0.992217 8.72868C1.69853 9.43499 2.69565 9.7209 3.8372 9.7209V8.18602C2.93224 8.18602 2.39448 7.9603 2.07754 7.64336C1.7606 7.32642 1.53488 6.78866 1.53488 5.8837H0Z" fill="white"/>
<path d="M16.1158 9.7209H18.1623V8.18602H16.1158V9.7209ZM18.1623 9.7209C19.3038 9.7209 20.301 9.43499 21.0073 8.72868C21.7136 8.02237 21.9995 7.02525 21.9995 5.8837H20.4646C20.4646 6.78866 20.2389 7.32642 19.9219 7.64336C19.605 7.9603 19.0672 8.18602 18.1623 8.18602V9.7209ZM21.9995 5.8837V3.8372H20.4646V5.8837H21.9995ZM21.9995 3.8372C21.9995 2.69565 21.7136 1.69853 21.0073 0.992217C20.301 0.285907 19.3038 0 18.1623 0V1.53488C19.0672 1.53488 19.605 1.7606 19.9219 2.07754C20.2389 2.39448 20.4646 2.93224 20.4646 3.8372H21.9995ZM18.1623 0H16.1158V1.53488H18.1623V0ZM16.1158 0C14.9742 0 13.9771 0.285907 13.2708 0.992217C12.5645 1.69853 12.2786 2.69565 12.2786 3.8372H13.8135C13.8135 2.93224 14.0392 2.39448 14.3561 2.07754C14.6731 1.7606 15.2108 1.53488 16.1158 1.53488V0ZM12.2786 3.8372V5.8837H13.8135V3.8372H12.2786ZM12.2786 5.8837C12.2786 7.02525 12.5645 8.02237 13.2708 8.72868C13.9771 9.43499 14.9742 9.7209 16.1158 9.7209V8.18602C15.2108 8.18602 14.6731 7.9603 14.3561 7.64336C14.0392 7.32642 13.8135 6.78866 13.8135 5.8837H12.2786Z" fill="white"/>
<path d="M16.1158 22H18.1623V20.4651H16.1158V22ZM18.1623 22C19.3038 22 20.301 21.7141 21.0073 21.0078C21.7136 20.3015 21.9995 19.3043 21.9995 18.1628H20.4646C20.4646 19.0677 20.2389 19.6055 19.9219 19.9224C19.605 20.2394 19.0672 20.4651 18.1623 20.4651V22ZM21.9995 18.1628V16.1163H20.4646V18.1628H21.9995ZM21.9995 16.1163C21.9995 14.9747 21.7136 13.9776 21.0073 13.2713C20.301 12.565 19.3038 12.2791 18.1623 12.2791V13.814C19.0672 13.814 19.605 14.0397 19.9219 14.3566C20.2389 14.6736 20.4646 15.2113 20.4646 16.1163H21.9995ZM18.1623 12.2791H16.1158V13.814H18.1623V12.2791ZM16.1158 12.2791C14.9742 12.2791 13.9771 12.565 13.2708 13.2713C12.5645 13.9776 12.2786 14.9747 12.2786 16.1163H13.8135C13.8135 15.2113 14.0392 14.6736 14.3561 14.3566C14.6731 14.0397 15.2108 13.814 16.1158 13.814V12.2791ZM12.2786 16.1163V18.1628H13.8135V16.1163H12.2786ZM12.2786 18.1628C12.2786 19.3043 12.5645 20.3015 13.2708 21.0078C13.9771 21.7141 14.9742 22 16.1158 22V20.4651C15.2108 20.4651 14.6731 20.2394 14.3561 19.9224C14.0392 19.6055 13.8135 19.0677 13.8135 18.1628H12.2786Z" fill="white"/>
<path d="M3.8372 22H5.8837V20.4651H3.8372V22ZM5.8837 22C7.02525 22 8.02237 21.7141 8.72868 21.0078C9.43499 20.3015 9.7209 19.3043 9.7209 18.1628H8.18602C8.18602 19.0677 7.9603 19.6055 7.64336 19.9224C7.32642 20.2394 6.78866 20.4651 5.8837 20.4651V22ZM9.7209 18.1628V16.1163H8.18602V18.1628H9.7209ZM9.7209 16.1163C9.7209 14.9747 9.43499 13.9776 8.72868 13.2713C8.02237 12.565 7.02525 12.2791 5.8837 12.2791V13.814C6.78866 13.814 7.32642 14.0397 7.64336 14.3566C7.9603 14.6736 8.18602 15.2113 8.18602 16.1163H9.7209ZM5.8837 12.2791H3.8372V13.814H5.8837V12.2791ZM3.8372 12.2791C2.69565 12.2791 1.69853 12.565 0.992217 13.2713C0.285907 13.9776 0 14.9747 0 16.1163H1.53488C1.53488 15.2113 1.7606 14.6736 2.07754 14.3566C2.39448 14.0397 2.93224 13.814 3.8372 13.814V12.2791ZM0 16.1163V18.1628H1.53488V16.1163H0ZM0 18.1628C0 19.3043 0.285907 20.3015 0.992217 21.0078C1.69853 21.7141 2.69565 22 3.8372 22V20.4651C2.93224 20.4651 2.39448 20.2394 2.07754 19.9224C1.7606 19.6055 1.53488 19.0677 1.53488 18.1628H0Z" fill="white"/>
</svg>
