<svg width="100" height="20" viewBox="0 0 100 20" fill="none" xmlns="http://www.w3.org/2000/svg">
<path d="M10.5838 2.5415L12.3088 7.30817L17.3755 7.47484C17.9088 7.4915 18.1338 8.1665 17.7088 8.49984L13.7088 11.6082L15.1171 16.4748C15.2671 16.9915 14.6921 17.4082 14.2505 17.1082L10.0588 14.2665L5.86715 17.1082C5.42548 17.4082 4.85048 16.9915 5.00048 16.4748L6.40881 11.6082L2.39215 8.49984C1.96714 8.17484 2.19215 7.4915 2.72548 7.47484L7.79215 7.30817L9.51715 2.5415C9.69215 2.0415 10.4005 2.0415 10.5838 2.5415Z" fill="#FFC348"/>
<path d="M30.5838 2.5415L32.3088 7.30817L37.3755 7.47484C37.9088 7.4915 38.1338 8.1665 37.7088 8.49984L33.7088 11.6082L35.1171 16.4748C35.2671 16.9915 34.6921 17.4082 34.2505 17.1082L30.0588 14.2665L25.8671 17.1082C25.4255 17.4082 24.8505 16.9915 25.0005 16.4748L26.4088 11.6082L22.3921 8.49984C21.9671 8.17484 22.1921 7.4915 22.7255 7.47484L27.7921 7.30817L29.5171 2.5415C29.6921 2.0415 30.4005 2.0415 30.5838 2.5415Z" fill="#FFC348"/>
<path d="M50.5838 2.5415L52.3088 7.30817L57.3755 7.47484C57.9088 7.4915 58.1338 8.1665 57.7088 8.49984L53.7088 11.6082L55.1171 16.4748C55.2671 16.9915 54.6921 17.4082 54.2505 17.1082L50.0588 14.2665L45.8671 17.1082C45.4255 17.4082 44.8505 16.9915 45.0005 16.4748L46.4088 11.6082L42.3921 8.49984C41.9671 8.17484 42.1921 7.4915 42.7255 7.47484L47.7921 7.30817L49.5171 2.5415C49.6921 2.0415 50.4005 2.0415 50.5838 2.5415Z" fill="#FFC348"/>
<path d="M70.5838 2.5415L72.3088 7.30817L77.3755 7.47484C77.9088 7.4915 78.1338 8.1665 77.7088 8.49984L73.7088 11.6082L75.1171 16.4748C75.2671 16.9915 74.6921 17.4082 74.2505 17.1082L70.0588 14.2665L65.8671 17.1082C65.4255 17.4082 64.8505 16.9915 65.0005 16.4748L66.4088 11.6082L62.3921 8.49984C61.9671 8.17484 62.1921 7.4915 62.7255 7.47484L67.7921 7.30817L69.5171 2.5415C69.6921 2.0415 70.4005 2.0415 70.5838 2.5415Z" fill="#FFC348"/>
<path d="M90.5838 2.5415L92.3088 7.30817L97.3755 7.47484C97.9088 7.4915 98.1338 8.1665 97.7088 8.49984L93.7088 11.6082L95.1171 16.4748C95.2671 16.9915 94.6921 17.4082 94.2505 17.1082L90.0588 14.2665L85.8671 17.1082C85.4255 17.4082 84.8505 16.9915 85.0005 16.4748L86.4088 11.6082L82.3921 8.49984C81.9671 8.17484 82.1921 7.4915 82.7255 7.47484L87.7921 7.30817L89.5171 2.5415C89.6921 2.0415 90.4005 2.0415 90.5838 2.5415Z" fill="white" stroke="#FFC348" stroke-miterlimit="10" stroke-linecap="round" stroke-linejoin="round"/>
</svg>
