<svg width="11" height="15" viewBox="0 0 11 15" fill="none" xmlns="http://www.w3.org/2000/svg">
<path fill-rule="evenodd" clip-rule="evenodd" d="M5.4028 0.120406C5.38372 0.194958 5.26794 0.670246 5.14548 1.17667C4.96871 1.90772 4.91079 2.09742 4.86423 2.09742C4.83198 2.09742 4.26189 1.95705 3.59733 1.78552C2.93278 1.61402 2.38504 1.47726 2.38014 1.48162C2.36456 1.49553 2.04427 2.85175 2.05459 2.8602C2.06 2.86466 2.18616 2.89729 2.33495 2.93274C3.06879 3.10763 3.34911 3.23634 3.45952 3.4491C3.58215 3.68544 3.58648 3.66238 2.83745 6.76392C2.4051 8.55403 2.0921 9.77945 2.05289 9.83537C2.017 9.88652 1.92622 9.95985 1.85113 9.99831L1.71457 10.0683L1.24028 9.95088C0.979431 9.88633 0.731679 9.82421 0.689804 9.81286C0.636026 9.79824 0.607965 9.81219 0.594475 9.86026C0.58398 9.89772 0.445911 10.2322 0.28768 10.6034L0 11.2785L1.24828 11.6019C1.93484 11.7798 2.50703 11.932 2.5198 11.9402C2.5326 11.9483 2.4254 12.4394 2.28164 13.0315L2.02021 14.1081L2.64488 14.2674C2.98847 14.3551 3.276 14.4191 3.28383 14.4097C3.29165 14.4003 3.40819 13.9322 3.5428 13.3695C3.67744 12.8069 3.79751 12.3355 3.80967 12.3221C3.83192 12.2975 4.74127 12.5281 4.78015 12.5682C4.79162 12.5801 4.6871 13.0589 4.54787 13.6323C4.40865 14.2058 4.30416 14.6809 4.31574 14.6881C4.35275 14.7114 5.5519 15.0119 5.55865 14.9996C5.56222 14.9931 5.67652 14.5191 5.81264 13.9462C5.94876 13.3733 6.06544 12.8944 6.07193 12.8821C6.07843 12.8698 6.27496 12.893 6.50868 12.9339C6.83398 12.9907 7.10702 13.0086 7.67304 13.01C8.32598 13.0117 8.44619 13.0024 8.70098 12.9304C9.19959 12.7894 9.49181 12.6168 9.84091 12.2571C10.1077 11.9821 10.1772 11.8825 10.3365 11.5466C10.579 11.035 10.7015 10.5857 10.7267 10.1144C10.7718 9.2737 10.4626 8.67148 9.72427 8.16211C9.47554 7.9905 9.41459 7.93272 9.46487 7.91632C10.1026 7.7078 10.5172 7.35398 10.7571 6.8134C11.0859 6.07253 11.0805 5.20852 10.7432 4.60853C10.4288 4.04924 9.76239 3.55107 8.82722 3.17615C8.6586 3.10856 8.50711 3.04104 8.49059 3.02612C8.47407 3.0112 8.56612 2.55756 8.69517 2.01806C8.82422 1.47857 8.93513 1.00402 8.94163 0.963507C8.95223 0.897363 8.89084 0.873628 8.3425 0.731815C8.00645 0.644912 7.72483 0.58074 7.71664 0.589184C7.70846 0.597592 7.59145 1.05871 7.45663 1.61379C7.3218 2.16888 7.20577 2.6281 7.19881 2.63424C7.18186 2.64912 6.24066 2.41902 6.21711 2.39421C6.20694 2.3835 6.31027 1.91513 6.44672 1.35334C6.61238 0.671362 6.68196 0.32375 6.65617 0.307307C6.62428 0.286958 6.07716 0.141053 5.55439 0.0134508C5.44251 -0.0138553 5.43602 -0.00927942 5.4028 0.120406ZM6.31406 4.0527C7.95448 4.44001 8.65423 5.02943 8.50196 5.8956C8.44865 6.19886 8.36537 6.36237 8.16908 6.54897C7.73496 6.96169 6.99474 6.99733 5.6917 6.66824C5.41019 6.59711 5.22329 6.53227 5.23165 6.50853C5.23941 6.48658 5.38047 5.90363 5.54512 5.21306C5.70977 4.52252 5.85942 3.9575 5.87767 3.9575C5.89596 3.9575 6.09231 4.00032 6.31406 4.0527ZM5.39493 7.97283C6.95131 8.34477 7.76386 8.78825 8.04566 9.4196C8.16144 9.67908 8.15361 10.1169 8.02813 10.3966C7.85687 10.7784 7.53814 11.0149 7.07409 11.1047C6.76289 11.1649 5.89412 11.124 5.43681 11.0276C5.08006 10.9524 4.24515 10.7392 4.22459 10.7179C4.20966 10.7026 4.90286 7.86368 4.92154 7.86368C4.93077 7.86368 5.14379 7.91279 5.39493 7.97283Z" fill="white"/>
</svg>
