<svg width="19" height="17" viewBox="0 0 19 17" fill="none" xmlns="http://www.w3.org/2000/svg">
<path d="M9.14759 7.65747C11.2963 7.65747 13.0381 6.17079 13.0381 4.33688C13.0381 2.50297 11.2963 1.01629 9.14759 1.01629C6.99894 1.01629 5.25711 2.50297 5.25711 4.33688C5.25711 6.17079 6.99894 7.65747 9.14759 7.65747Z" stroke="#7D8DB5" stroke-width="2" stroke-linecap="round" stroke-linejoin="round"/>
<path d="M15.8236 15.9838C16.8369 15.9838 17.5526 15.108 17.176 14.3041C16.5356 12.9334 15.4282 11.7582 13.997 10.9302C12.5658 10.1023 10.8766 9.6597 9.14761 9.6597C7.41865 9.6597 5.72942 10.1023 4.29823 10.9302C2.86703 11.7582 1.75965 12.9334 1.11918 14.3041C0.742664 15.108 1.45783 15.9838 2.47165 15.9838H15.8236Z" stroke="#7D8DB5" stroke-width="2" stroke-linecap="round" stroke-linejoin="round"/>
</svg>
