<svg width="169" height="50" viewBox="0 0 169 50" fill="none" xmlns="http://www.w3.org/2000/svg">
<rect width="50" height="50" rx="10" fill="#EFF5F5"/>
<path d="M153.518 16.8237C154.315 17.7938 155.792 18.4538 157.498 18.4538C159.205 18.4538 160.681 17.7917 161.479 16.8237H153.518Z" fill="#1B8271"/>
<path d="M167.407 14.5641H165.524V8.32817C165.524 4.97115 161.924 2.24023 157.498 2.24023C153.073 2.24023 149.473 4.97115 149.473 8.32817V14.5641H147.589C147.365 14.5684 147.151 14.6391 146.995 14.7611C146.838 14.8831 146.75 15.0467 146.75 15.2171C146.75 15.3875 146.838 15.5512 146.995 15.6732C147.151 15.7952 147.365 15.8659 147.589 15.8702H167.407C167.632 15.8659 167.845 15.7952 168.002 15.6732C168.159 15.5512 168.247 15.3875 168.247 15.2171C168.247 15.0467 168.159 14.8831 168.002 14.7611C167.845 14.6391 167.632 14.5684 167.407 14.5641Z" fill="#1B8271"/>
</svg>
