<svg width="12" height="14" viewBox="0 0 12 14" fill="none" xmlns="http://www.w3.org/2000/svg">
<path d="M11.9999 1.39535V2.93023C11.9999 3.48837 11.6511 4.18604 11.3023 4.53488L8.30227 7.18604C7.88366 7.53488 7.60459 8.23255 7.60459 8.79069V11.7907C7.60459 12.2093 7.32552 12.7674 6.97668 12.9767L5.99994 13.6046C5.09297 14.1628 3.83715 13.5349 3.83715 12.4186V8.72092C3.83715 8.23255 3.55808 7.60465 3.27901 7.25581L2.95111 6.91395C2.73483 6.68372 2.69297 6.33488 2.86739 6.06279L6.43948 0.327907C6.56506 0.125581 6.78831 0 7.0325 0H10.6046C11.372 0 11.9999 0.627907 11.9999 1.39535Z" fill="#192252"/>
<path d="M4.84883 1.06744L2.37209 5.03721C2.13488 5.42093 1.5907 5.47674 1.27674 5.14883L0.627907 4.46511C0.27907 4.11628 0 3.48837 0 3.06977V1.46512C0 0.627906 0.627907 0 1.39535 0H4.25581C4.8 0 5.13488 0.6 4.84883 1.06744Z" fill="#192252"/>
</svg>
