<svg width="160" height="160" viewBox="0 0 160 160" fill="none" xmlns="http://www.w3.org/2000/svg">
<path d="M120 42.7934V33.3334C120 31.5653 119.298 29.8696 118.047 28.6194C116.797 27.3691 115.102 26.6667 113.333 26.6667H53.3334C51.5653 26.6667 49.8696 27.3691 48.6194 28.6194C47.3692 29.8696 46.6668 31.5653 46.6668 33.3334V42.7934C41.3801 60.5 36.3134 68.4734 36.5868 83.3334C36.8734 98.84 42.4401 106.18 52.7334 135.68C53.2159 136.947 54.0712 138.039 55.1863 138.81C56.3015 139.581 57.6243 139.996 58.9801 140H87.1735C88.7515 140 90.2781 139.439 91.4817 138.419C92.6854 137.398 93.488 135.984 93.7468 134.427L96.6668 116.94L99.8135 135.827C100.008 136.994 100.61 138.055 101.514 138.819C102.418 139.584 103.563 140.002 104.747 140H108.847C109.861 139.998 110.851 139.686 111.685 139.107C112.518 138.529 113.156 137.71 113.513 136.76C124.013 106.76 129.787 98.9601 130.073 83.34C130.353 68.44 125.24 60.34 120 42.7934ZM113.333 33.3334V40H53.3334V33.3334H113.333ZM107.687 133.334H106.153L99.9535 96.12C99.8221 95.3434 99.42 94.6384 98.8183 94.13C98.2167 93.6216 97.4545 93.3425 96.6668 93.3425C95.8791 93.3425 95.1169 93.6216 94.5152 94.13C93.9136 94.6384 93.5115 95.3434 93.3801 96.12L87.1735 133.334H58.9734C48.4268 103.333 43.5401 97.0867 43.2534 83.3334C42.9801 70.1334 47.4468 63.2334 52.4068 46.6667H114.26C119.193 63.1334 123.66 70.1 123.413 83.2134C123.16 97.0734 118.2 103.413 107.687 133.334Z" fill="#393D46"/>
</svg>
