<svg width="132" height="132" viewBox="0 0 132 132" fill="none" xmlns="http://www.w3.org/2000/svg">
<g clip-path="url(#clip0_52_115503)">
<mask id="mask0_52_115503" style="mask-type:luminance" maskUnits="userSpaceOnUse" x="0" y="0" width="132" height="132">
<path d="M132 0H0V132H132V0Z" fill="white"/>
</mask>
<g mask="url(#mask0_52_115503)">
<path d="M127.191 67.5493C130.562 88.4337 115.342 119.435 88.9863 101.155C70.187 85.3926 51.7309 106.621 28.6593 107.429C10.6374 108.058 1.84087 83.3356 7.30087 68.4884C15.4128 46.4291 45.5246 59.2685 50.931 41.3931C59.1099 14.3497 90.7213 19.3104 107.069 31.3227C115.809 37.7453 123.316 43.54 127.191 67.5493Z" fill="#E2F3F7"/>
<path d="M29.8541 49.5585C26.6228 51.9497 22.4544 54.0662 20.5156 60.4803C18.2537 67.8799 17.3651 74.8758 19.9179 81.3218C22.4706 87.7686 26.2835 92.7934 26.2835 93.7467C26.2835 94.6993 26.7844 103.069 27.0429 105.217C27.3014 107.366 30.3549 113.102 30.3549 113.102C30.3549 113.102 30.3549 113.344 33.4085 113.57C35.9074 113.599 38.3981 113.278 40.8081 112.617L41.309 98.5288C44.9281 100.883 49.011 102.431 53.2809 103.069C60.6644 104.264 72.2163 101.921 72.2163 101.921L75.7057 111.615L86.6602 112.326C86.7607 110.403 87.0144 108.49 87.4192 106.607C88.179 102.536 89.9719 95.6204 89.9719 95.6204C93.0732 96.2276 96.2346 96.4666 99.3916 96.3317C103.645 96.0105 107.634 94.1427 110.604 91.0803C112.22 89.4648 116.21 82.0009 117.729 80.8048C118.6 80.1023 119.666 79.685 120.782 79.6095C120.782 79.6095 124.353 73.3894 122.818 72.2099C121.946 71.5151 121.59 71.2405 114.934 70.5942C99.3916 68.9786 99.6497 58.6546 99.6497 58.6546C99.6497 58.6546 101.427 52.6767 100.409 51.9658C99.3916 51.2549 93.7853 52.919 91.4907 55.5526C90.2587 56.949 89.1756 58.4706 88.2596 60.0925C88.2596 60.0925 79.5997 52.0143 75.5282 49.817C67.0083 46.131 57.8138 44.2602 48.5309 44.3238C42.036 44.6147 33.1661 47.1673 29.8541 49.5585Z" fill="#E8C4C0"/>
<g style="mix-blend-mode:multiply">
<path d="M38.7719 50.414C38.7719 50.414 35.9607 52.2074 37.4955 52.4497C39.0304 52.6921 44.879 51.9489 51.2447 51.9489C55.285 51.9211 59.3111 52.4318 63.2166 53.4676C63.9759 53.7261 65.7693 51.6904 64.493 50.6725C63.2166 49.6546 53.0219 48.8953 49.7098 49.0569C46.3978 49.2184 38.7719 50.414 38.7719 50.414Z" fill="#E8C4C0"/>
</g>
<g style="mix-blend-mode:multiply">
<path d="M41.0488 93.9863L41.3073 98.5264C41.3073 98.5264 44.8779 102.356 53.2792 103.066C59.6074 103.341 65.9447 102.799 72.1338 101.451C72.1338 101.451 57.8677 101.225 50.7427 98.3489C44.0862 95.6187 41.0488 93.9863 41.0488 93.9863Z" fill="#E8C4C0"/>
</g>
<g style="mix-blend-mode:multiply">
<path d="M104.382 76.523C104.373 76.966 104.227 77.395 103.963 77.7506C103.823 77.9435 103.638 78.0982 103.424 78.2002C103.209 78.3014 102.972 78.3468 102.734 78.3322C102.334 78.3329 101.94 78.2273 101.594 78.0256C101.247 77.824 100.961 77.5343 100.763 77.1852C100.61 76.9087 100.532 76.5971 100.537 76.2803C100.556 76.1043 100.611 75.9341 100.699 75.7794C100.922 75.3313 101.255 74.9471 101.668 74.6648C101.986 74.4653 102.368 74.3956 102.734 74.4712C103.137 74.5416 103.509 74.7344 103.798 75.0234C104.087 75.3123 104.28 75.6841 104.35 76.0867C104.358 76.2157 104.358 76.3455 104.35 76.4746" fill="#E8C4C0"/>
</g>
<g style="mix-blend-mode:multiply">
<path d="M90.3097 93.7461L89.9863 95.6689C89.9863 95.6689 100.957 97.1876 105.093 94.8608C101.877 95.3697 98.5964 95.3147 95.3991 94.6994C93.73 94.2499 92.0287 93.9309 90.3097 93.7461Z" fill="#E8C4C0"/>
</g>
<g style="mix-blend-mode:multiply">
<g style="mix-blend-mode:multiply">
<path d="M11.0804 72.8381L10.4826 71.8041C11.9025 71.0283 13.0649 69.8547 13.827 68.4273L13.0999 68.1366C11.4363 67.2344 10.1944 65.7139 9.64248 63.9036C9.10656 62.6852 9.06601 61.3061 9.5294 60.0583C9.84569 59.1581 10.4208 58.3713 11.1823 57.7964C11.944 57.2217 12.8584 56.8844 13.8108 56.827C14.3445 56.7752 14.8825 56.8625 15.3724 57.0806C15.8622 57.2986 16.2872 57.6399 16.6059 58.0711C17.963 59.8644 17.8338 63.2573 16.9936 65.6808C16.8482 66.1009 16.6705 66.5209 16.4928 66.9087C18.6121 66.0439 20.6192 64.9264 22.4707 63.5805L23.2947 64.873C19.6594 67.1995 17.543 68.5404 15.5396 68.6212C14.4061 70.3584 12.8782 71.8033 11.0804 72.8381ZM14.1339 57.8773H13.7947C13.0771 57.9331 12.3909 58.1945 11.8179 58.6299C11.2449 59.0654 10.8094 59.6566 10.5634 60.333C10.4614 61.5193 10.6327 62.7131 11.0643 63.8227C11.2779 64.4703 11.6258 65.0655 12.0851 65.5694C12.5445 66.0733 13.105 66.4746 13.7301 66.7471C14.0401 66.8908 14.3652 66.9992 14.6994 67.0702C15.2335 66.3851 15.7245 65.6674 16.1697 64.9214C16.4758 63.9394 16.5621 62.9021 16.4225 61.8829C16.283 60.8638 15.9208 59.8878 15.3618 59.0243C15.0548 58.6043 14.6994 57.8934 14.1339 57.8934V57.8773Z" fill="#E5BBB7"/>
</g>
</g>
<mask id="mask1_52_115503" style="mask-type:alpha" maskUnits="userSpaceOnUse" x="31" y="16" width="36" height="38">
<g style="mix-blend-mode:multiply">
<path d="M31.0312 51.6157C31.0312 51.6157 33.1848 17.8382 35.0234 17.4738C36.8619 17.1092 43.7784 18.6146 51.3496 18.8483C56.1538 19.0449 60.9697 18.3057 65.6704 16.6502C66.5874 16.2292 67.2431 51.446 65.6704 53.1669C63.4348 54.2669 52.4348 51.6157 44.3681 52.4336C34.1014 52.9498 31.0312 51.6157 31.0312 51.6157Z" fill="#E8C4C0"/>
</g>
</mask>
<g mask="url(#mask1_52_115503)">
<path d="M41.3345 70.7344C42.6309 70.629 52.7623 69.6971 55.3531 69.5507C57.9438 69.4044 64.0862 70.4506 63.9873 68.9444C63.744 65.9097 63.6707 62.8638 63.7677 59.821C63.8883 55.913 62.9947 42.9703 62.7649 39.9405L61.5016 22.2179C61.5016 22.2179 50.2019 21.7237 47.6096 21.9185C45.0173 22.1133 36.6641 23.5689 36.6641 23.5689C37.571 27.0824 38.1904 30.664 38.5157 34.2782C38.8896 39.446 38.6941 52.0642 39.1897 55.9104C39.6852 59.7566 40.0548 70.8243 41.3345 70.7344Z" fill="#536B5F"/>
<path d="M40.3063 69.5071C41.6022 69.4178 51.734 68.4697 54.3248 68.3234C56.9155 68.177 63.0585 69.2071 62.9595 67.7008C62.7164 64.6769 62.6427 61.6419 62.7389 58.6098C62.8601 54.6856 61.9664 41.7429 61.7366 38.7131L60.443 20.925C60.443 20.925 49.1433 20.4308 46.5511 20.6255C43.9588 20.8203 35.6055 22.2759 35.6055 22.2759C36.5098 25.8109 37.123 29.4141 37.439 33.0493C37.8124 38.2334 37.6174 50.8353 38.1124 54.6977C38.6074 58.5601 39.0104 69.5964 40.3063 69.5071Z" stroke="#536B5F" stroke-width="0.484693" stroke-miterlimit="10"/>
<path d="M45.2929 66.0733C45.0811 65.6366 44.7599 65.2621 44.3605 64.9863C43.9611 64.7106 43.4972 64.5429 43.0137 64.4997C41.7864 64.4618 41.5037 65.2451 41.5037 65.2451C41.5037 65.2451 40.8925 54.671 40.6259 51.7856C40.3594 48.9001 40.4155 41.3209 40.4599 39.8837C40.5042 38.4465 39.3284 30.4574 39.2894 30.1491C39.2504 29.8407 39.043 27.135 39.043 27.135C39.7214 27.1512 40.3864 26.9447 40.9361 26.5468C41.5487 25.8742 41.9703 25.0502 42.1575 24.1599C44.2375 24.2298 46.3195 24.1047 48.376 23.7861C50.1028 23.6383 51.8369 23.5947 53.5688 23.6554C54.5861 23.6868 57.5453 23.6488 57.5453 23.6488C57.2618 23.9499 57.0793 24.3319 57.0232 24.7416C56.9671 25.1513 57.0402 25.5683 57.2323 25.9345C57.4915 26.3864 57.8667 26.761 58.3191 27.0193C58.7715 27.2777 59.2847 27.4105 59.8056 27.404C59.9703 27.8294 61.0438 42.7981 61.1068 47.5685C61.1697 52.3389 61.7784 62.9936 61.7784 62.9936C60.7256 63.1239 59.7288 63.5404 58.8963 64.1978C58.1391 65.3547 57.8052 66.7378 57.9511 68.1127C56.0025 67.9353 54.0449 67.8748 52.089 67.9318C50.0093 67.9828 47.9283 67.9185 45.8556 67.7394C45.7302 67.1649 45.5415 66.6061 45.2929 66.0733Z" fill="#889990"/>
<path d="M51.1464 51.8988C49.8032 52.031 48.452 51.7466 47.276 51.0843C46.4303 50.579 45.7377 49.8537 45.2717 48.9858C44.7598 48.2629 44.4154 47.435 44.2635 46.5624C43.881 43.7703 44.0854 41.3359 46.8905 39.4828C47.7424 38.8924 48.7237 38.5156 49.7519 38.3842C50.7799 38.2527 51.8246 38.3705 52.7976 38.7276C53.6549 39.0646 54.4357 39.5708 55.0933 40.216C55.751 40.8611 56.2722 41.6319 56.6257 42.4826C57.4506 44.1215 57.5952 46.0196 57.0284 47.7646C56.7465 48.6712 56.2047 49.4751 55.47 50.0764C54.2515 51.1158 52.7412 51.7524 51.1464 51.8988Z" fill="#63796D" fill-opacity="0.8"/>
<path d="M48.9005 28.3116C49.6977 28.2074 50.5075 28.3568 51.215 28.7386C51.6004 28.9356 51.9281 29.2292 52.1663 29.5906C52.4044 29.9521 52.5448 30.3691 52.5738 30.8011C52.6909 31.5195 52.6092 32.2564 52.3376 32.9318C52.0661 33.6072 51.6149 34.1955 51.033 34.6329C50.5648 35.0046 49.9939 35.224 49.3972 35.2613C49.0847 35.2872 48.7705 35.2387 48.4802 35.1198C47.6131 34.8433 46.8361 34.3393 46.23 33.6603C46.0145 33.4019 45.8539 33.1022 45.7582 32.7796C45.6626 32.4571 45.6338 32.1184 45.6736 31.7843C45.688 31.0265 45.9419 30.2928 46.3991 29.6884C46.8562 29.084 47.4931 28.6399 48.2183 28.4198C48.4427 28.3668 48.6708 28.3306 48.9005 28.3116Z" fill="#63796D" fill-opacity="0.8"/>
<path d="M54.1671 44.6549C54.0808 44.4496 53.9611 44.2602 53.8126 44.0943C53.022 43.5203 51.9189 44.6987 51.9673 44.7001L51.4716 45.5738L50.9202 46.1549C50.2596 46.9636 49.3309 47.5084 48.3027 47.6905C47.7909 47.7068 47.2886 47.5488 46.8782 47.2425C46.4678 46.9362 46.1734 46.4997 46.0433 46.0044L45.3489 45.9829C45.3489 45.9829 45.2749 45.2371 45.2598 45.2043C45.5102 45.1411 45.7657 45.1004 46.0232 45.0824C46.0166 44.9477 46.0207 44.8127 46.0357 44.6787C46.1051 44.4088 46.2429 44.1616 46.4361 43.9607C46.6293 43.7599 46.871 43.6125 47.1379 43.5327C47.6117 43.3696 48.129 43.3693 48.111 43.9507C48.1011 44.2737 48.0966 44.419 47.757 44.4247C47.4174 44.4304 46.9587 44.6263 46.9967 44.967L46.9777 45.5806C47.0223 45.7846 47.115 45.9749 47.2482 46.1358C47.3814 46.2967 47.5511 46.4233 47.7431 46.5051C47.9352 46.5871 48.144 46.6217 48.3523 46.6064C48.5606 46.5911 48.7621 46.5262 48.9401 46.4171C48.9401 46.4171 50.1141 45.5643 49.9874 45.4795L50.4913 44.8647C50.9123 44.3794 51.3926 43.949 51.9209 43.5833C52.2038 43.3671 52.5345 43.2216 52.8851 43.1594C53.2358 43.0971 53.5962 43.1197 53.9363 43.2253C54.2857 43.368 54.5788 43.6212 54.7708 43.9461C54.8605 44.097 54.9211 44.2633 54.9497 44.4366C55.1214 44.4524 55.294 44.4578 55.4664 44.4525C55.8378 44.464 56.0962 44.4719 56.1146 44.9251C56.1329 45.3782 56.0976 45.4742 55.6787 45.4289L55.1458 45.4125C55.1562 45.5309 55.1526 45.6502 55.1348 45.7677C55.038 46.1878 54.818 46.5693 54.503 46.8635C54.2521 47.1443 53.9261 47.3475 53.5635 47.4488C53.1568 47.5332 53.1663 47.2264 53.1596 46.919C53.1529 46.6118 53.1736 46.4669 53.3875 46.3442C53.5876 46.2904 53.768 46.1804 53.9075 46.0271C54.0469 45.8738 54.1393 45.6837 54.1739 45.4794L54.1671 44.6549Z" fill="white"/>
<g style="mix-blend-mode:multiply" opacity="0.27">
<path d="M39.1836 48.9494L39.7007 55.2371L63.9953 56.8113L63.7245 49.3513C55.5812 48.3532 47.3552 48.2184 39.1836 48.9494Z" fill="#5BB55F"/>
</g>
</g>
</g>
</g>
<defs>
<clipPath id="clip0_52_115503">
<rect width="132" height="132" fill="white"/>
</clipPath>
</defs>
</svg>
