<svg width="27" height="21" viewBox="0 0 27 21" fill="none" xmlns="http://www.w3.org/2000/svg">
<path d="M25.65 9.21797H21.3705L24.7995 6.61645C24.9247 6.5217 25.0239 6.40915 25.0917 6.28525C25.1594 6.16134 25.1943 6.02852 25.1943 5.89438C25.1943 5.76024 25.1594 5.62742 25.0917 5.50351C25.0239 5.37961 24.9247 5.26706 24.7995 5.17231C24.273 4.77286 23.409 4.77286 22.8825 5.17231L17.55 9.21797H14.85V7.16953L20.1825 3.12387C20.709 2.72442 20.709 2.06892 20.1825 1.66948C20.0576 1.57453 19.9093 1.4992 19.7459 1.4478C19.5826 1.39641 19.4076 1.36995 19.2308 1.36995C19.0539 1.36995 18.8789 1.39641 18.7156 1.4478C18.5522 1.4992 18.4039 1.57453 18.279 1.66948L14.85 4.27099V1.02422C14.85 0.460898 14.2425 0 13.5 0C12.7575 0 12.15 0.460898 12.15 1.02422V4.27099L8.721 1.66948C8.59611 1.57453 8.44776 1.4992 8.28444 1.4478C8.12113 1.39641 7.94606 1.36995 7.76925 1.36995C7.59244 1.36995 7.41737 1.39641 7.25406 1.4478C7.09074 1.4992 6.94239 1.57453 6.8175 1.66948C6.291 2.06892 6.291 2.72442 6.8175 3.12387L12.15 7.16953V9.21797H9.45L4.1175 5.17231C3.591 4.77286 2.727 4.77286 2.2005 5.17231C2.07535 5.26706 1.97606 5.37961 1.90832 5.50351C1.84057 5.62742 1.8057 5.76024 1.8057 5.89438C1.8057 6.02852 1.84057 6.16134 1.90832 6.28525C1.97606 6.40915 2.07535 6.5217 2.2005 6.61645L5.6295 9.21797H1.35C0.6075 9.21797 0 9.67887 0 10.2422C0 10.8055 0.6075 11.2664 1.35 11.2664H5.6295L2.2005 13.8679C2.07535 13.9627 1.97606 14.0752 1.90832 14.1991C1.84057 14.323 1.8057 14.4559 1.8057 14.59C1.8057 14.7241 1.84057 14.857 1.90832 14.9809C1.97606 15.1048 2.07535 15.2173 2.2005 15.3121C2.727 15.7115 3.591 15.7115 4.1175 15.3121L9.45 11.2664H12.15V13.3148L6.8175 17.3605C6.291 17.76 6.291 18.4155 6.8175 18.8149C7.344 19.2143 8.1945 19.2143 8.721 18.8149L12.15 16.2134V19.4602C12.15 20.0235 12.7575 20.4844 13.5 20.4844C14.2425 20.4844 14.85 20.0235 14.85 19.4602V16.2134L18.279 18.8149C18.8055 19.2143 19.656 19.2143 20.1825 18.8149C20.709 18.4155 20.709 17.76 20.1825 17.3605L14.85 13.3148V11.2664H17.55L22.8825 15.3121C23.409 15.7115 24.273 15.7115 24.7995 15.3121C24.9247 15.2173 25.0239 15.1048 25.0917 14.9809C25.1594 14.857 25.1943 14.7241 25.1943 14.59C25.1943 14.4559 25.1594 14.323 25.0917 14.1991C25.0239 14.0752 24.9247 13.9627 24.7995 13.8679L21.3705 11.2664H25.65C26.3925 11.2664 27 10.8055 27 10.2422C27 9.67887 26.3925 9.21797 25.65 9.21797Z" fill="#25396F"/>
</svg>
