<svg width="32" height="24" viewBox="0 0 32 24" fill="none" xmlns="http://www.w3.org/2000/svg">
<path d="M3.62069 3.2498L6.35916 3.6098L7.62702 15.0828C7.7284 16.0198 8.75927 16.7388 9.99685 16.7358H24.3593C25.5403 16.7378 26.5422 16.0778 26.7094 15.1898L27.9588 8.6318C28.0984 7.8988 27.4283 7.2188 26.4645 7.1128C26.3803 7.1038 6.7989 7.0988 6.7989 7.0988" stroke="#AAAAAA" stroke-width="2" stroke-linecap="round" stroke-linejoin="round"/>
<path d="M18.5967 10.7945H22.2475" stroke="#AAAAAA" stroke-width="2" stroke-linecap="round" stroke-linejoin="round"/>
<path fill-rule="evenodd" clip-rule="evenodd" d="M9.41928 20.2021C9.81556 20.2021 10.1355 20.4461 10.1355 20.7461C10.1355 21.0471 9.81556 21.2911 9.41928 21.2911C9.02299 21.2911 8.70306 21.0471 8.70306 20.7461C8.70306 20.4461 9.02299 20.2021 9.41928 20.2021Z" fill="#AAAAAA" stroke="#AAAAAA" stroke-width="2" stroke-linecap="round" stroke-linejoin="round"/>
<path fill-rule="evenodd" clip-rule="evenodd" d="M24.2706 20.2021C24.6669 20.2021 24.9882 20.4461 24.9882 20.7461C24.9882 21.0471 24.6669 21.2911 24.2706 21.2911C23.8743 21.2911 23.5544 21.0471 23.5544 20.7461C23.5544 20.4461 23.8743 20.2021 24.2706 20.2021Z" fill="#AAAAAA" stroke="#AAAAAA" stroke-width="2" stroke-linecap="round" stroke-linejoin="round"/>
</svg>
