<svg width="24" height="21" viewBox="0 0 24 21" fill="none" xmlns="http://www.w3.org/2000/svg">
<path d="M12 5.50293V8.34839" stroke="#292D32" stroke-width="1.5" stroke-miterlimit="10" stroke-linecap="round"/>
<path d="M12.0209 1.70898C8.34087 1.70898 5.36087 4.25537 5.36087 7.3999V9.19434C5.36087 9.77539 5.08087 10.647 4.73087 11.1426L3.46087 12.9541C2.68087 14.0735 3.22087 15.321 4.66087 15.7312C9.44087 17.0898 14.6109 17.0898 19.3909 15.7312C20.7409 15.3467 21.3209 13.9966 20.5909 12.9541L19.3209 11.1426C18.9709 10.647 18.6909 9.76685 18.6909 9.19434V7.3999C18.6809 4.27246 15.6809 1.70898 12.0209 1.70898Z" stroke="#292D32" stroke-width="1.5" stroke-miterlimit="10" stroke-linecap="round"/>
<path d="M15.3299 16.0815C15.3299 17.6453 13.8299 18.927 11.9999 18.927C11.0899 18.927 10.2499 18.6023 9.64992 18.0896C9.04992 17.5769 8.66992 16.8591 8.66992 16.0815" stroke="#292D32" stroke-width="1.5" stroke-miterlimit="10"/>
<circle cx="20" cy="8.65625" r="3.5" fill="#EB5757" stroke="#F8F8F8"/>
</svg>
