<svg width="12" height="3" viewBox="0 0 12 3" fill="none" xmlns="http://www.w3.org/2000/svg">
<mask id="mask0_20_71116" style="mask-type:luminance" maskUnits="userSpaceOnUse" x="-3" y="-8" width="18" height="19">
<rect x="-3" y="-7.5" width="18" height="18" fill="white"/>
</mask>
<g mask="url(#mask0_20_71116)">
<path fill-rule="evenodd" clip-rule="evenodd" d="M6 0C5.175 0 4.5 0.675 4.5 1.5C4.5 2.325 5.175 3 6 3C6.825 3 7.5 2.325 7.5 1.5C7.5 0.675 6.825 0 6 0ZM10.5 0C9.675 0 9 0.675 9 1.5C9 2.325 9.675 3 10.5 3C11.325 3 12 2.325 12 1.5C12 0.675 11.325 0 10.5 0ZM1.5 0C0.675 0 0 0.675 0 1.5C0 2.325 0.675 3 1.5 3C2.325 3 3 2.325 3 1.5C3 0.675 2.325 0 1.5 0Z" fill="white"/>
</g>
</svg>
