<svg width="94" height="43" viewBox="0 0 94 43" fill="none" xmlns="http://www.w3.org/2000/svg">
<path d="M19.5762 26.8989C19.7266 26.8989 19.877 26.8435 19.9958 26.7247C20.2254 26.4951 20.2254 26.1151 19.9958 25.8856L15.6099 21.4997L19.9958 17.1139C20.2254 16.8843 20.2254 16.5043 19.9958 16.2747C19.7662 16.0451 19.3862 16.0451 19.1566 16.2747L14.3512 21.0801C14.1216 21.3097 14.1216 21.6897 14.3512 21.9193L19.1566 26.7247C19.2754 26.8435 19.4258 26.8989 19.5762 26.8989Z" fill="#292929" fill-opacity="0.6"/>
<path d="M14.9048 22.0938H28.2285C28.5531 22.0938 28.8223 21.8246 28.8223 21.5C28.8223 21.1754 28.5531 20.9062 28.2285 20.9062H14.9048C14.5802 20.9062 14.311 21.1754 14.311 21.5C14.311 21.8246 14.5802 22.0938 14.9048 22.0938Z" fill="#292929" fill-opacity="0.6"/>
<rect x="-0.5" y="0.5" width="42" height="42" rx="21" transform="matrix(-1 0 0 1 42 0)" stroke="#292929" stroke-opacity="0.1"/>
<rect x="51.5" y="0.5" width="42" height="42" rx="21" fill="#FBC543"/>
<path d="M74.4238 26.8989C74.2734 26.8989 74.123 26.8435 74.0042 26.7247C73.7746 26.4951 73.7746 26.1151 74.0042 25.8856L78.3901 21.4997L74.0042 17.1139C73.7746 16.8843 73.7746 16.5043 74.0042 16.2747C74.2338 16.0451 74.6138 16.0451 74.8434 16.2747L79.6488 21.0801C79.8784 21.3097 79.8784 21.6897 79.6488 21.9193L74.8434 26.7247C74.7246 26.8435 74.5742 26.8989 74.4238 26.8989Z" fill="#292929"/>
<path d="M79.0952 22.0938H65.7715C65.4469 22.0938 65.1777 21.8246 65.1777 21.5C65.1777 21.1754 65.4469 20.9062 65.7715 20.9062H79.0952C79.4198 20.9062 79.689 21.1754 79.689 21.5C79.689 21.8246 79.4198 22.0938 79.0952 22.0938Z" fill="#292929"/>
<rect x="51.5" y="0.5" width="42" height="42" rx="21" stroke="#FBC543"/>
</svg>
