<svg width="106" height="20" viewBox="0 0 106 20" fill="none" xmlns="http://www.w3.org/2000/svg">
<g clip-path="url(#clip0_52_113293)">
<rect y="0.00195312" width="105.266" height="19.9977" fill="white"/>
<path d="M13.584 2.06487C13.0549 1.77116 11.5384 1.95239 9.71748 2.51621C6.53007 4.69512 3.8401 7.90489 3.65235 13.0597C3.61832 13.1825 3.30377 13.0424 3.24156 13.0044C2.3811 11.3546 2.04031 9.61733 2.75828 7.11137C2.89243 6.88807 2.45498 6.61365 2.37597 6.69198C2.21793 6.85029 1.56023 7.55063 1.12333 8.30804C-1.0417 12.0632 0.374808 16.8765 4.16187 18.9822C7.94893 21.0917 12.7307 19.7307 14.8398 15.943C17.279 11.5707 15.0134 2.86353 13.5837 2.06473L13.584 2.06487Z" fill="#88B227"/>
<path d="M27.1395 4.16368C22.6497 4.16368 19.3906 7.50176 19.3906 12.101C19.3906 16.7379 22.6402 19.9767 27.2958 19.9767C29.6474 19.9767 31.5088 19.2412 32.9896 17.7275C33.4309 17.2498 33.4789 16.7897 33.4789 16.6143C33.4789 15.8641 32.9206 15.3193 32.1533 15.3193C31.7656 15.3193 31.4415 15.466 31.0707 15.8086C30.2322 16.5902 29.1283 17.3876 27.2958 17.3876C24.7472 17.3876 22.6751 15.4753 22.545 13.0186H32.6858C33.7884 13.0186 34.3242 12.5024 34.3242 11.4421C34.3242 11.1306 34.3242 10.9053 34.2614 10.4609C33.7156 6.51757 31.0527 4.1634 27.1392 4.1634L27.1395 4.16368ZM27.1395 6.62589C29.5747 6.62589 31.137 8.17766 31.2334 10.6818H22.5487C22.7765 8.3643 24.7365 6.62589 27.1395 6.62589ZM44.0088 4.16368C41.9691 4.16368 39.9495 5.3366 39.1607 6.96557V5.95902C39.1607 4.39948 37.9522 4.32074 37.7102 4.32074C36.994 4.32074 36.2284 4.75055 36.2284 5.95875V18.118C36.2284 19.7377 37.5152 19.8192 37.7729 19.8192C38.0307 19.8192 39.3172 19.7377 39.3172 18.118V11.5999C39.3172 8.76356 40.9247 6.78268 43.2257 6.78268C45.4551 6.78268 46.5387 8.24529 46.5387 11.2544V18.118C46.5387 19.7378 47.8254 19.8192 48.083 19.8192C48.3408 19.8192 49.6276 19.7378 49.6276 18.118V10.2832C49.6271 7.3247 48.1513 4.16368 44.0088 4.16368ZM63.6051 4.32088C62.8907 4.32088 62.3733 4.7368 62.0653 5.55629L57.8388 16.1852L53.6439 5.55629C53.3155 4.72444 52.802 4.32074 52.0728 4.32074C51.221 4.32074 50.5286 4.98497 50.5286 5.8021C50.5286 6.00416 50.5508 6.26649 50.7223 6.67588L55.5801 18.145C56.1583 19.5287 57.1111 19.8188 57.808 19.8188C58.5037 19.8188 59.4564 19.5288 60.0372 18.1458L64.9255 6.61284C65.093 6.20802 65.1185 5.91097 65.1185 5.77029C65.1183 4.94358 64.4675 4.32046 63.6054 4.32046L63.6051 4.32088ZM72.5874 4.16368C70.6118 4.16368 68.772 4.71417 67.4063 5.71211C66.9436 6.03151 66.7182 6.4298 66.7182 6.93058C66.7182 7.6205 67.245 8.16099 67.9185 8.16099C68.2107 8.16099 68.5361 8.04517 68.8355 7.83575C70.0089 7.05348 71.1122 6.68838 72.3056 6.68838C74.5897 6.68838 75.9008 7.85033 75.9008 9.87579V10.2116C70.7736 10.2171 65.5589 10.8365 65.5589 15.2967C65.5589 18.5074 68.3023 19.9445 71.0208 19.9445C73.1868 19.9445 74.9159 19.087 76.0253 17.4626V18.2437C76.0253 19.4075 76.8062 19.8195 77.4771 19.8195C77.6183 19.8195 78.8638 19.7756 78.8638 18.2439V10.0647C78.8638 6.36953 76.5174 4.16395 72.5877 4.16395L72.5874 4.16368ZM75.251 12.4863H75.9005V13.1978C75.9005 15.8012 74.2433 17.483 71.6788 17.483C70.9833 17.483 68.711 17.3209 68.711 15.2346C68.7108 12.7713 72.4435 12.4866 75.251 12.4866V12.4863ZM86.9082 7.1275C88.2606 7.1275 88.3286 6.07582 88.3286 5.86515C88.3286 5.23966 87.9554 4.57113 86.9082 4.57113H84.1288V1.75979C84.1288 0.50382 83.3141 0.0585938 82.6165 0.0585938C82.3585 0.0585938 81.0723 0.140112 81.0723 1.75979V15.1103C81.0723 18.1911 82.5912 19.8195 85.4672 19.8195C86.2113 19.8195 86.9362 19.6873 87.411 19.4672C87.9544 19.196 88.2657 18.7498 88.2657 18.2437C88.2657 17.5294 87.7483 17.0119 87.0342 17.0119C86.8959 17.0119 86.6998 17.0459 86.4837 17.1077C86.219 17.1744 86.0396 17.1999 85.8435 17.1999C84.6739 17.1999 84.1284 16.4364 84.1284 14.7961V7.12722H86.908L86.9082 7.1275ZM97.124 4.16368C92.4523 4.16368 89.0622 7.47538 89.0622 12.0382C89.0622 14.2597 89.8837 16.2841 91.3734 17.7389C92.853 19.1822 94.8955 19.977 97.1242 19.977C101.738 19.977 105.219 16.5642 105.219 12.0385C105.219 7.47579 101.813 4.16409 97.124 4.16409V4.16368ZM97.124 17.3576C93.9206 17.3576 92.244 14.6815 92.244 12.0382C92.244 8.40596 94.7743 6.75199 97.124 6.75199C99.4747 6.75199 102.004 8.40596 102.004 12.0385C102.004 15.6936 99.4747 17.358 97.124 17.358V17.3576Z" fill="#13110C"/>
</g>
<rect x="0.5" y="0.501953" width="104.266" height="18.9977" stroke="white"/>
<defs>
<clipPath id="clip0_52_113293">
<rect y="0.00195312" width="105.266" height="19.9977" fill="white"/>
</clipPath>
</defs>
</svg>
