<svg width="32" height="16" viewBox="0 0 32 16" fill="none" xmlns="http://www.w3.org/2000/svg">
<g clip-path="url(#clip0_52_42788)">
<path d="M31.5204 0.450219C31.4545 0.387801 31.368 0.353516 31.2787 0.353516C31.26 0.353516 31.2412 0.355274 31.2228 0.358087L28.5239 0.795889C28.3621 0.821911 28.2403 0.956768 28.2294 1.12064L28.0163 4.36442L27.9952 4.82807L27.9037 4.59686L26.6818 1.38015C26.629 1.24213 26.4977 1.15158 26.354 1.15158C26.3356 1.15158 26.3167 1.15334 26.2978 1.15598L23.205 1.65637C23.0432 1.68239 22.9212 1.81725 22.9105 1.9813L22.6869 5.39756L22.6788 5.60538L22.5381 5.25637L21.3768 2.23659C21.324 2.09892 21.1927 2.01101 21.0498 2.01101C21.0313 2.01101 21.0123 2.01242 20.9935 2.01541L18.2371 2.462C18.129 2.47958 18.0356 2.54639 17.9839 2.64345C17.9322 2.7405 17.9283 2.85585 17.9734 2.95589L21.4951 10.7409C21.5528 10.8683 21.6789 10.9476 21.8148 10.9476C21.8332 10.9476 21.8522 10.9462 21.8707 10.9432L24.8127 10.4662C24.9703 10.4405 25.0905 10.3118 25.1064 10.1529L25.3743 7.4329L25.4047 6.69479L25.4992 6.96116C25.5053 6.97839 25.5129 6.99492 25.5215 7.01092L27.0598 9.8642C27.122 9.97919 27.2409 10.0488 27.3683 10.0488C27.387 10.0488 27.4056 10.0471 27.4246 10.0442L30.4168 9.55897C30.5727 9.53365 30.6928 9.4067 30.7097 9.24881L31.6263 0.744197C31.6382 0.634483 31.5985 0.525823 31.5208 0.450219H31.5204ZM9.44465 7.25198C9.2785 6.21461 8.8618 5.43747 8.20632 4.94112C7.70751 4.56363 7.1039 4.37215 6.41292 4.37215C6.19226 4.37215 5.95894 4.39185 5.72615 4.42965C5.17054 4.50877 4.64922 4.70218 4.17415 5.00635C3.87261 5.20204 3.61801 5.45505 3.42215 5.75079L3.14399 5.23492C3.08193 5.11993 2.96289 5.05031 2.83542 5.05031C2.81696 5.05031 2.79815 5.05171 2.77951 5.0547L0.667157 5.3965C0.575201 5.41145 0.493091 5.46244 0.438586 5.53822C0.38408 5.614 0.36175 5.70877 0.37652 5.8009L1.68606 13.9444C1.71419 14.1176 1.86294 14.2408 2.03243 14.2408C2.05107 14.2408 2.06988 14.2394 2.0887 14.2364L4.88782 13.7828C4.9796 13.7678 5.06188 13.7169 5.11639 13.6411C5.17089 13.5653 5.19322 13.4709 5.17845 13.3784L4.60527 9.81444C4.43384 8.74842 4.50259 8.23501 4.5919 7.98763C4.68738 7.71211 4.93617 7.51607 5.22557 7.48829C5.24052 7.48688 5.25547 7.48477 5.27023 7.48125C5.30329 7.47369 5.33705 7.46982 5.37116 7.46982C5.51041 7.46982 5.64456 7.53576 5.73265 7.64916C5.84254 7.78754 5.99393 8.07782 6.0901 8.67316L6.80448 13.115C6.83261 13.2884 6.98136 13.4116 7.15085 13.4116C7.16949 13.4116 7.1883 13.4102 7.20711 13.4072L10.0062 12.9536C10.0982 12.9387 10.1803 12.8877 10.2348 12.8119C10.2893 12.7361 10.3116 12.6417 10.2969 12.5492L9.44483 7.25215L9.44465 7.25198ZM18.7712 6.46393C18.5631 5.16811 18.0279 4.21409 17.1807 3.62824C16.5632 3.20099 15.8098 2.98472 14.9407 2.98472C14.6253 2.98472 14.2888 3.01338 13.9407 3.06982C12.5636 3.29312 11.5473 3.87633 10.92 4.80345C10.297 5.72407 10.1001 6.93145 10.335 8.39202C10.5641 9.8162 11.1568 10.8701 12.0968 11.5235C12.7855 12.0027 13.6233 12.2457 14.5865 12.2457C14.9297 12.2457 15.295 12.2146 15.6688 12.1543C16.2508 12.0674 16.8279 11.9257 17.3901 11.7365C17.8819 11.5598 18.3445 11.3123 18.7651 11.0007C18.8709 10.9225 18.924 10.7915 18.9031 10.6609L18.5778 8.64064C18.5585 8.52108 18.4794 8.4198 18.3686 8.37251C18.3247 8.35387 18.2779 8.34437 18.2315 8.34437C18.1608 8.34437 18.0908 8.36547 18.031 8.40767C17.6565 8.66894 17.2532 8.89119 16.8398 9.06472C16.4337 9.22402 16.0099 9.33848 15.5802 9.40477C15.5728 9.40582 15.5656 9.40723 15.5582 9.40864C15.4439 9.43378 15.3272 9.44661 15.2105 9.44661C14.952 9.44661 14.6941 9.38367 14.4644 9.26429C14.3023 9.16582 14.1719 9.02745 14.0838 8.86464L18.6816 8.11949C18.7737 8.10455 18.856 8.05356 18.9107 7.97778C18.9654 7.902 18.9873 7.80758 18.9726 7.7151L18.7712 6.46393ZM13.7525 6.38938C13.7748 6.21743 13.826 6.07923 13.9055 5.9762C14.0402 5.80266 14.2338 5.69136 14.4505 5.66235C14.4593 5.6613 14.4678 5.65971 14.4764 5.65813C14.5274 5.64723 14.5801 5.64178 14.632 5.64178C14.8011 5.64178 14.9661 5.69945 15.0897 5.79475C15.1996 5.88881 15.288 6.0031 15.3513 6.13022L13.7525 6.38938Z" fill="#FFC81D"/>
<path d="M12.8349 5.09812C13.2995 4.84195 13.681 4.44687 14.0657 4.57065C14.1993 4.61373 14.3295 4.78234 14.4174 4.74647C14.5475 4.69443 14.5809 4.30603 14.4174 4.04318C14.2878 3.83447 13.9439 3.69856 13.3373 3.64124C12.8228 3.59254 12.2924 3.63245 12.1316 3.69153C11.288 4.00274 10.6946 4.94586 10.9009 5.27395C11.0946 5.58234 12.0942 5.50639 12.8349 5.09812ZM17.758 4.219C17.6416 4.13496 17.2895 3.91307 17.0547 4.04318C16.6922 4.24414 16.7942 5.19518 16.8789 5.62559C16.9355 5.91271 17.0129 6.15201 16.8789 6.32889C16.6788 6.59263 16.2169 6.44107 15.6007 6.46832C15.019 6.49417 14.663 6.73153 14.0657 6.85636C13.6131 6.95078 13.1326 7.02516 12.8349 7.03219C12.472 7.04098 11.3651 6.82647 11.2525 7.03219C11.133 7.25144 11.5912 7.80968 12.1316 8.08713C12.58 8.3157 13.0899 8.3514 13.5382 8.26296C13.9971 8.17241 14.455 7.899 15.0257 7.58867C15.3111 7.43307 15.7508 7.20924 15.9998 7.38384C16.2131 7.53364 16.132 7.87439 16.3514 8.08713C16.5273 8.25944 16.7734 8.26243 17.0547 8.26296C17.6863 8.26401 18.1255 8.28054 18.4613 8.08713C18.7644 7.91096 18.9315 7.69504 18.9888 7.55966C19.2038 7.05206 18.7651 6.65065 18.4613 5.80142C18.1923 5.04942 18.2375 4.5645 17.758 4.219ZM18.6371 8.43878C18.282 8.22129 17.7668 8.52142 17.2306 8.79043C16.4362 9.1892 15.7607 9.3165 14.9448 9.66955C14.6064 9.81601 14.3031 9.93997 13.8899 10.0212C13.23 10.1508 12.4877 10.1327 11.78 10.0212C11.4155 9.96388 11.1562 9.89988 11.0767 10.0212C10.9385 10.2322 11.4429 10.8528 11.9558 11.252C12.5385 11.7056 13.1646 11.8709 13.5382 11.9553C14.3224 12.1328 15.2054 12.2971 15.5817 12.2826C16.8669 12.2339 17.7397 11.8506 18.2855 11.252C18.5111 11.0046 18.6934 10.7081 18.813 10.3728C19.0538 9.69768 19.0908 8.71658 18.6371 8.43878ZM21.9328 5.46313C22.1016 5.37979 22.1656 5.09847 22.1536 4.57065C22.1202 3.10428 21.6912 2.32309 21.2745 2.10911C20.9847 1.96019 20.5018 1.86577 20.2196 2.10911C20.0912 2.21988 19.9695 2.58823 20.0437 3.16406C20.1306 3.83975 20.4446 4.44845 20.9229 4.9223C21.3484 5.34392 21.7106 5.57249 21.9328 5.46313ZM24.2635 4.57065C23.8732 4.4205 23.3206 4.5557 23.0327 4.9223C22.8232 5.18955 22.7778 5.56476 22.8569 5.97724C22.9862 6.65065 23.4906 6.89241 23.5602 7.55966C23.5884 7.82779 23.5567 8.28441 23.2478 8.61566C23.0813 8.7943 22.7309 8.98489 22.1536 9.01654C21.8354 9.03412 21.6082 8.98137 21.4503 9.14208C21.3512 9.24195 21.2838 9.49197 21.3603 9.89214C21.416 10.1828 21.5836 10.7361 21.9986 10.9023C22.3261 11.0334 22.5594 10.8383 23.0329 10.7247C23.6592 10.5745 24.3108 10.9058 24.7912 10.5488C25.1031 10.3171 25.2548 9.91096 25.3186 9.14225C25.3992 8.1717 25.2425 7.15896 25.1428 6.68071C24.8884 5.46085 24.7375 4.75298 24.2637 4.57082L24.2635 4.57065ZM27.4284 3.5157C27.5131 2.53021 27.3109 1.77504 26.7251 1.40581C26.0564 0.986473 25.0277 1.11676 24.791 1.58164C24.5248 2.10507 25.7716 3.2001 26.1976 4.219C26.3915 4.68282 26.507 5.09179 26.7251 5.09812C27.0454 5.10762 27.3659 4.24186 27.4284 3.5157ZM31.2965 1.40581C31.0266 1.26304 30.6412 1.41144 30.4174 1.58164C29.9409 1.94348 29.9105 2.61443 29.8899 3.16406C29.8676 3.76221 29.8055 4.52493 29.7317 5.24406C29.6965 5.5957 29.6019 6.14076 29.3624 6.68054C29.1862 7.08212 28.9359 7.44959 28.8079 7.57074C28.4193 7.93821 27.8728 8.11632 27.2525 8.43878C27.0679 8.53496 26.8 8.68494 26.7251 8.96625C26.6407 9.28098 26.8358 9.64529 27.0767 9.84538C27.5734 10.2582 28.3103 9.81636 29.5382 9.66955C29.9168 9.62419 30.1839 9.6379 30.4174 9.49373C31.261 8.97329 31.0742 7.56247 31.1207 5.97724C31.14 5.32318 31.9335 1.74269 31.2965 1.40581ZM8.79099 7.03219C8.70835 6.81364 8.40769 6.12581 8.08769 5.62559C7.66572 4.96907 7.24936 4.54111 7.20857 4.57065C7.16198 4.60406 7.70352 5.24441 7.91187 6.15307C8.10352 6.98823 7.81517 7.44309 7.91187 8.26296C7.96725 8.73241 8.60778 9.96845 8.26352 10.5487C8.164 10.7164 7.75011 11.0164 7.20857 11.252C6.99618 11.3445 6.81297 11.4085 6.6811 11.6036C6.38044 12.0499 6.55838 12.8789 7.03275 13.186C7.37438 13.4076 7.73605 13.2715 8.26352 13.186C8.93974 13.0763 9.81394 13.371 10.1976 13.0102C10.6266 12.6069 10.5359 11.422 9.84594 9.49373C9.52506 8.59667 9.12717 7.92362 8.79099 7.03219ZM3.86791 5.27395C3.67732 5.28344 3.54299 5.34603 3.34044 5.44977C3.00866 5.61944 2.64822 5.80142 2.50264 5.93065C2.09736 6.28599 1.86 6.77373 1.75802 7.20801C1.51363 8.24819 1.99011 9.28854 2.34791 10.5597C2.43231 10.8599 2.57086 11.4114 2.2855 11.7794C2.07802 12.047 1.80778 12.001 1.59873 12.2647C1.22703 12.7333 1.39583 13.7232 1.93385 14.0652C2.24717 14.2644 2.5844 14.1501 3.19046 14.0476C3.92453 13.9234 4.46941 13.9997 4.74703 13.7135C5.19187 13.2553 4.94114 12.3637 4.74703 10.9003C4.68602 10.4404 4.68602 10.0166 4.57121 9.66955C4.39539 9.13909 4.14044 8.7943 4.21956 8.26296C4.24734 8.07658 4.36128 7.57021 4.74703 7.38384C5.15389 7.18744 5.64479 7.55351 5.80198 7.38384C5.98484 7.18691 5.55354 6.46955 5.09868 5.97724C4.60005 5.4357 4.11723 5.26164 3.86791 5.27395Z" fill="#F97700"/>
<path d="M31.7619 0.193407C31.63 0.0685714 31.4567 0 31.2778 0C31.2406 0 31.2031 0.00316484 31.1657 0.00879121L28.4668 0.446945C28.144 0.499341 27.8997 0.768703 27.8783 1.09662L27.7411 3.18101L27.0085 1.25345C26.9033 0.976879 26.6398 0.799824 26.3527 0.799473C26.3157 0.799473 26.2781 0.802637 26.2407 0.808264L23.1462 1.30866C22.823 1.36106 22.5788 1.63042 22.5571 1.95851L22.4235 3.98927L21.7009 2.10971C21.595 1.83455 21.3322 1.65855 21.0463 1.65855C21.0094 1.65855 20.9716 1.66154 20.9338 1.66769L18.1804 2.11464C17.9641 2.1498 17.7767 2.28396 17.6733 2.47754C17.5699 2.67112 17.5622 2.90215 17.6529 3.10224L18.0086 3.88923C17.8204 3.68105 17.6102 3.49714 17.3791 3.33714C16.7022 2.86892 15.8814 2.63138 14.9401 2.63138C14.606 2.63138 14.2509 2.66163 13.8843 2.72106C12.408 2.96018 11.3128 3.5942 10.6292 4.60466C9.99275 5.54532 9.76453 6.74971 9.94985 8.18338L9.79072 7.1949C9.60962 6.06506 9.14756 5.2116 8.41719 4.65899C7.85631 4.23437 7.18167 4.01899 6.41244 4.01899C6.17543 4.01899 5.92541 4.04009 5.66976 4.08123C5.06668 4.16791 4.50053 4.37873 3.98677 4.70752C3.8018 4.82796 3.63283 4.96598 3.48127 5.12035L3.45226 5.06708C3.32831 4.83675 3.08971 4.69749 2.83688 4.69749C2.80171 4.69749 2.7625 4.70048 2.72488 4.70629L0.610944 5.04738C0.427207 5.07727 0.26246 5.1789 0.153449 5.33046C0.0444382 5.48202 -0.000221174 5.67103 0.0294931 5.85547L1.33938 13.9989C1.39494 14.3453 1.69332 14.5918 2.0316 14.5918C2.06888 14.5918 2.1065 14.5883 2.14466 14.5825L4.94343 14.1289C5.12716 14.099 5.29156 13.997 5.40057 13.8476C5.50958 13.6981 5.55424 13.5068 5.52453 13.3224L4.95134 9.75842C4.78343 8.71473 4.85991 8.27903 4.91969 8.1127L4.92286 8.10356C4.97349 7.95798 5.10519 7.85424 5.25815 7.83947C5.28804 7.83666 5.31793 7.83191 5.3473 7.82506C5.35503 7.8233 5.36277 7.82242 5.3705 7.82242C5.40215 7.82242 5.43257 7.83736 5.45209 7.86286C5.45384 7.86532 5.4556 7.86743 5.45736 7.86989C5.52769 7.95604 5.65428 8.18286 5.7429 8.73073L6.4571 13.172C6.51283 13.5184 6.81121 13.7649 7.14949 13.7649C7.18642 13.7649 7.22422 13.7614 7.26202 13.7556L10.0611 13.302C10.2449 13.2724 10.4096 13.1705 10.5186 13.0207C10.6276 12.8709 10.6723 12.6799 10.6426 12.4955L10.032 8.69802C10.3045 10.0965 10.9311 11.1448 11.8964 11.8159C12.6449 12.3369 13.5498 12.6008 14.586 12.6008C14.9482 12.6008 15.3324 12.5683 15.7285 12.5041C16.3224 12.4153 16.9202 12.2706 17.4962 12.0751C17.4997 12.0737 17.5041 12.0724 17.5078 12.071C18.0318 11.8829 18.5246 11.6192 18.9728 11.2874C19.1843 11.1304 19.291 10.868 19.2492 10.6076L18.9239 8.58567C18.9151 8.53152 18.9 8.4793 18.88 8.42971C19.0051 8.38084 19.1149 8.29609 19.1964 8.18532C19.3054 8.03411 19.3499 7.84457 19.3204 7.66031L19.1189 6.40844L19.1006 6.29996L21.1767 10.889C21.2917 11.1436 21.5439 11.3025 21.8159 11.3025C21.8528 11.3025 21.8906 11.2995 21.9284 11.2937L24.8703 10.8167C25.185 10.7657 25.4259 10.5083 25.4572 10.1897L25.6706 8.0262L26.7548 10.0331C26.8789 10.2629 27.1173 10.4019 27.3719 10.4019C27.4088 10.4019 27.4465 10.3989 27.4844 10.3928L30.4764 9.90752C30.7884 9.85653 31.0285 9.60299 31.0626 9.28721L31.9794 0.782593C32.0026 0.563516 31.9231 0.346549 31.764 0.195341L31.7619 0.193407ZM7.15037 13.0579L6.436 8.61556C6.34844 8.07437 6.20532 7.67842 6.00664 7.42822C5.85191 7.22848 5.61595 7.11596 5.3705 7.11596C5.31125 7.11596 5.25094 7.12246 5.19169 7.136C4.76479 7.17644 4.40048 7.46339 4.25982 7.87024C4.11037 8.28273 4.11002 8.9491 4.25806 9.86936L4.83125 13.4333L2.03213 13.8869L0.722768 5.74365L2.83512 5.40202L3.3473 6.352L3.51204 6.32563C3.68681 5.90541 3.98378 5.54884 4.36444 5.3018C4.79222 5.02804 5.27292 4.84958 5.77508 4.77785C5.99732 4.7418 6.20989 4.72369 6.41261 4.72369C7.0287 4.72369 7.556 4.88967 7.99468 5.2218C8.57789 5.66312 8.94554 6.35833 9.09763 7.30708L9.94985 12.6047L7.15072 13.0583L7.15037 13.0579ZM13.6225 8.58145C13.6884 8.99499 13.9337 9.35736 14.2924 9.57134C14.5772 9.72149 14.8923 9.79815 15.2102 9.79815C15.3513 9.79815 15.4915 9.78286 15.6328 9.75244C16.0894 9.68211 16.5366 9.56132 16.9668 9.39235C17.4116 9.20563 17.8354 8.97266 18.231 8.69609L18.5563 10.7158C18.1638 11.0064 17.7308 11.2385 17.2715 11.4015C16.7331 11.5844 16.1791 11.7187 15.6188 11.8024C15.2576 11.8607 14.9141 11.8903 14.5881 11.8903C13.6935 11.8903 12.9301 11.6705 12.2983 11.2309C11.4361 10.6331 10.8977 9.66506 10.6836 8.33301C10.462 6.95807 10.6387 5.84651 11.2123 4.99886C11.7858 4.15121 12.7145 3.62321 13.9985 3.41503C14.3294 3.36141 14.6442 3.33451 14.9424 3.33451C15.7424 3.33451 16.4228 3.52826 16.983 3.9156C17.7519 4.44747 18.2327 5.31464 18.426 6.51745L18.6275 7.76879L13.6242 8.58004L13.6225 8.58145ZM16.4114 8.84519C16.1225 8.93978 15.8262 9.01046 15.5263 9.05688C15.5117 9.05917 15.4969 9.06163 15.4823 9.06514C15.393 9.08448 15.3012 9.09468 15.2098 9.09468C15.1365 9.09468 15.063 9.08835 14.9904 9.07534L16.4114 8.84677V8.84519ZM30.3613 9.2109L27.3694 9.69618L25.8292 6.84484L25.4252 5.70796L25.1305 4.78963L25.0876 4.79666L25.0231 7.41046L24.7562 10.1199L21.8143 10.5969L18.2925 2.81213L21.0487 2.36519L22.2101 5.38497C22.5927 6.42409 22.8575 6.41459 23.0048 7.11824L23.0479 7.11121C22.9916 6.66813 22.9876 6.68958 23.037 5.4131L23.2603 2.00651L26.3548 1.50611L27.5767 4.72281C27.9671 5.74611 28.2378 6.01899 28.3896 6.59921L28.4325 6.59218C28.4026 6.2233 28.3774 6.29029 28.3565 5.73591C28.3345 5.28651 28.3382 4.83675 28.3674 4.38804L28.5802 1.14479L31.2796 0.706989L30.3629 9.21161L30.3613 9.2109ZM15.3162 5.52563C15.1185 5.3709 14.8771 5.28826 14.631 5.28826C14.5554 5.28826 14.4789 5.296 14.4036 5.312C14.0965 5.35244 13.8176 5.51332 13.6272 5.75859C13.4391 6.00299 13.3617 6.35112 13.3951 6.80299L15.8 6.41301C15.7526 6.06752 15.5803 5.75156 15.3162 5.5251V5.52563Z" fill="#323232"/>
</g>
<defs>
<clipPath id="clip0_52_42788">
<rect width="32" height="14.5934" fill="white"/>
</clipPath>
</defs>
</svg>
