<svg width="12" height="11" viewBox="0 0 12 11" fill="none" xmlns="http://www.w3.org/2000/svg">
<path d="M10.546 3.87984C9.49144 3.87984 9.06028 3.13404 9.58467 2.21927C9.88765 1.68906 9.70702 1.01318 9.17681 0.710198L8.16882 0.13337C7.70852 -0.140477 7.11421 0.0226661 6.84036 0.482963L6.77627 0.593667C6.25188 1.50843 5.38955 1.50843 4.85934 0.593667L4.79525 0.482963C4.53305 0.0226661 3.93874 -0.140477 3.47845 0.13337L2.47045 0.710198C1.94024 1.01318 1.75962 1.69488 2.0626 2.2251C2.59281 3.13404 2.16165 3.87984 1.10704 3.87984C0.501083 3.87984 0 4.37509 0 4.98688V6.01235C0 6.61831 0.495256 7.1194 1.10704 7.1194C2.16165 7.1194 2.59281 7.86519 2.0626 8.77996C1.75962 9.31018 1.94024 9.98606 2.47045 10.289L3.47845 10.8659C3.93874 11.1397 4.53305 10.9766 4.8069 10.5163L4.87099 10.4056C5.39538 9.4908 6.25771 9.4908 6.78792 10.4056L6.85202 10.5163C7.12586 10.9766 7.72017 11.1397 8.18047 10.8659L9.18846 10.289C9.71868 9.98606 9.8993 9.30435 9.59632 8.77996C9.0661 7.86519 9.49727 7.1194 10.5519 7.1194C11.1578 7.1194 11.6589 6.62414 11.6589 6.01235V4.98688C11.6531 4.38092 11.1578 3.87984 10.546 3.87984ZM5.82654 7.39324C4.78359 7.39324 3.93292 6.54257 3.93292 5.49962C3.93292 4.45667 4.78359 3.60599 5.82654 3.60599C6.8695 3.60599 7.72017 4.45667 7.72017 5.49962C7.72017 6.54257 6.8695 7.39324 5.82654 7.39324Z" fill="white"/>
</svg>
