<svg width="30" height="32" viewBox="0 0 30 32" fill="none" xmlns="http://www.w3.org/2000/svg">
<path d="M21.6757 22.1861L23.584 19.837L27.0278 18.946L27.4093 16.2022L30.0003 14.2672L28.7684 11.67L30.0003 9.07266L27.4094 7.13769L27.0279 4.39391L23.5841 3.50293L21.6758 1.15381L18.0663 1.48442L15.0001 2.4001e-10L11.934 1.48454L8.32458 1.15394L6.41629 3.50299L2.97251 4.39397L2.59098 7.13775L2.52165e-10 9.07273L1.23188 11.67L3.96543e-10 14.2673L2.5909 16.2023L2.97243 18.9461L6.41621 19.8371L8.3245 22.1861L11.934 21.8556L15.0001 23.3401L18.0663 21.8556L21.6757 22.1861ZM4.45094 11.67C4.45094 7.25739 9.18333 3.6674 15.0001 3.6674C20.817 3.6674 25.5493 7.25739 25.5493 11.67C25.5493 16.0827 20.817 19.6727 15.0001 19.6727C9.18333 19.6727 4.45094 16.0827 4.45094 11.67Z" fill="#FBCD2D" fill-opacity="0.73"/>
<path d="M15 5.52197C10.5323 5.52197 6.89752 8.27929 6.89752 11.6685C6.89752 15.0577 10.5323 17.8151 15 17.8151C19.4677 17.8151 23.1025 15.0577 23.1025 11.6685C23.1025 8.27929 19.4677 5.52197 15 5.52197Z" fill="#FBCD2D" fill-opacity="0.73"/>
<path d="M11.3571 23.777L7.06341 24.1703L4.79487 21.3776L4.02366 21.1781L0.697168 29.0655L6.6858 28.8157L11.3711 31.6562L14.1283 25.1187L11.3571 23.777Z" fill="#FBCD2D" fill-opacity="0.73"/>
<path d="M25.2052 21.3776L22.9365 24.1703L18.6429 23.777L15.8717 25.1187L18.6289 31.6562L23.3142 28.8157L29.3029 29.0655L25.9764 21.1781L25.2052 21.3776Z" fill="#FBCD2D" fill-opacity="0.73"/>
</svg>
