<svg width="20" height="19" viewBox="0 0 20 19" fill="none" xmlns="http://www.w3.org/2000/svg">
<path d="M9.80216 4.61281V7.50089" stroke="#ADA7A7" stroke-width="1.5" stroke-miterlimit="10" stroke-linecap="round"/>
<path d="M9.82337 0.762104C6.08399 0.762104 3.05589 3.34663 3.05589 6.53825V8.35956C3.05589 8.94932 2.77137 9.83396 2.41573 10.337L1.12523 12.1756C0.332642 13.3118 0.881356 14.578 2.3446 14.9943C7.20174 16.3733 12.4552 16.3733 17.3123 14.9943C18.6841 14.6041 19.2735 13.2337 18.5317 12.1756L17.2412 10.337C16.8855 9.83396 16.601 8.94065 16.601 8.35956V6.53825C16.5909 3.36397 13.5424 0.762104 9.82337 0.762104Z" stroke="#ADA7A7" stroke-width="1.5" stroke-miterlimit="10" stroke-linecap="round"/>
<path d="M13.1858 15.3497C13.1858 16.9369 11.6616 18.2378 9.80208 18.2378C8.8774 18.2378 8.02384 17.9082 7.41416 17.3879C6.80447 16.8675 6.41834 16.139 6.41834 15.3497" stroke="#ADA7A7" stroke-width="1.5" stroke-miterlimit="10"/>
</svg>
