<svg width="93" height="27" viewBox="0 0 93 27" fill="none" xmlns="http://www.w3.org/2000/svg">
<g clip-path="url(#clip0_52_33868)">
<path d="M92.9682 0.0323134H66.5194V26.4552H92.9682V0.0323134Z" fill="white"/>
<mask id="mask0_52_33868" style="mask-type:luminance" maskUnits="userSpaceOnUse" x="-5" y="-5" width="103" height="37">
<path d="M97.4011 -4.29083H-4.62131V31.781H97.4011V-4.29083Z" fill="white"/>
</mask>
<g mask="url(#mask0_52_33868)">
<path d="M66.5194 13.7126V16.0553C68.5822 15.8783 70.6044 15.3782 72.512 14.5733C70.4929 14.4641 68.4875 14.1761 66.5194 13.7126Z" fill="black"/>
<path d="M74.5699 14.6248C72.0162 15.8952 69.3108 16.8346 66.5194 17.4204V26.4805H92.9747V10.7937C87.5257 14.2947 78.2974 15.1101 74.5699 14.6248Z" fill="black"/>
<path d="M66.5194 -0.000552485V12.5346C69.053 13.2288 71.6595 13.622 74.2851 13.706C80.3165 10.6773 84.4324 3.5458 84.7883 -0.0264383L66.5194 -0.000552485Z" fill="black"/>
<path d="M89.6806 -0.000979195C88.0898 2.95366 86.0777 5.66118 83.7075 8.03656C81.5216 10.2393 79.0488 12.1374 76.3559 13.6797C81.4166 13.6797 88.3669 11.913 92.9746 7.42177V-0.000979195H89.6806Z" fill="black"/>
<path d="M72.292 22.6495C72.4275 22.6495 72.5576 22.5956 72.6535 22.4997C72.7493 22.4038 72.8032 22.2738 72.8032 22.1382C72.8032 22.0026 72.7493 21.8726 72.6535 21.7767C72.5576 21.6808 72.4275 21.627 72.292 21.627H71.839V22.6495H72.292ZM71.2954 21.627H71.0171V21.161H72.389C72.5177 21.1563 72.646 21.1785 72.7656 21.2262C72.8853 21.2739 72.9936 21.3461 73.0838 21.438C73.1739 21.53 73.2439 21.6398 73.2892 21.7604C73.3345 21.8809 73.3541 22.0096 73.3468 22.1382C73.355 22.2676 73.336 22.3973 73.2912 22.5189C73.2464 22.6406 73.1767 22.7516 73.0866 22.8448C72.9964 22.938 72.8878 23.0113 72.7677 23.0601C72.6476 23.109 72.5186 23.1322 72.389 23.1283H71.8454V24.1832H71.2954V21.627Z" fill="#C3A572"/>
<path d="M74.9775 22.5722C75.0398 22.5755 75.1021 22.5651 75.16 22.5418C75.2179 22.5184 75.2699 22.4826 75.3125 22.437C75.3551 22.3913 75.3871 22.3369 75.4064 22.2775C75.4256 22.2182 75.4317 22.1553 75.424 22.0933C75.4317 22.0331 75.426 21.9719 75.4074 21.9141C75.3888 21.8563 75.3577 21.8033 75.3164 21.7588C75.275 21.7143 75.2243 21.6795 75.168 21.6568C75.1117 21.6341 75.0511 21.6241 74.9904 21.6274H74.5374V22.5722H74.9775ZM73.9873 21.6274H73.6832V21.1615H75.0292C75.1523 21.1512 75.2761 21.1673 75.3925 21.2087C75.5088 21.2502 75.6149 21.316 75.7038 21.4018C75.7926 21.4875 75.8621 21.5913 75.9076 21.7061C75.9531 21.8209 75.9736 21.9441 75.9676 22.0675C75.9799 22.2359 75.9373 22.4038 75.8464 22.5461C75.7554 22.6883 75.6209 22.7974 75.4628 22.857C75.5278 22.8914 75.58 22.9459 75.6117 23.0123L75.9029 23.5882C75.9547 23.6788 76.0258 23.6853 76.1164 23.6853H76.1747V24.1836H75.8835C75.657 24.1836 75.5599 24.1836 75.4628 23.9571L75.0745 23.2C75.0163 23.0835 74.9516 23.0641 74.7898 23.0641H74.5115V24.1836H73.9615L73.9873 21.6274Z" fill="#C3A572"/>
<path d="M78.0257 23.6976C78.1594 23.6934 78.291 23.6627 78.4127 23.6073C78.5345 23.5518 78.644 23.4727 78.7349 23.3746C78.8259 23.2764 78.8964 23.1612 78.9424 23.0356C78.9884 22.9099 79.0089 22.7764 79.0028 22.6427C79.0187 22.5058 79.0054 22.3672 78.9638 22.2358C78.9223 22.1044 78.8534 21.9833 78.7617 21.8804C78.67 21.7775 78.5577 21.6952 78.4319 21.6388C78.3062 21.5824 78.1699 21.5533 78.0321 21.5533C77.8943 21.5533 77.7581 21.5824 77.6323 21.6388C77.5066 21.6952 77.3942 21.7775 77.3025 21.8804C77.2109 21.9833 77.142 22.1044 77.1004 22.2358C77.0589 22.3672 77.0456 22.5058 77.0614 22.6427C77.0553 22.7764 77.0759 22.9099 77.1219 23.0356C77.1679 23.1612 77.2384 23.2764 77.3293 23.3746C77.4202 23.4727 77.5298 23.5518 77.6515 23.6073C77.7733 23.6627 77.9049 23.6934 78.0386 23.6976M78.0386 21.109C78.2423 21.1038 78.4451 21.1397 78.6346 21.2147C78.8241 21.2896 78.9966 21.4021 79.1416 21.5453C79.2866 21.6885 79.4012 21.8595 79.4786 22.0481C79.5559 22.2367 79.5944 22.4389 79.5917 22.6427C79.5917 23.0547 79.4281 23.4497 79.1368 23.741C78.8456 24.0322 78.4505 24.1959 78.0386 24.1959C77.6267 24.1959 77.2316 24.0322 76.9404 23.741C76.6491 23.4497 76.4854 23.0547 76.4854 22.6427C76.4837 22.4392 76.5228 22.2373 76.6004 22.0492C76.6781 21.861 76.7928 21.6904 76.9376 21.5473C77.0824 21.4043 77.2545 21.2918 77.4436 21.2165C77.6328 21.1412 77.8351 21.1047 78.0386 21.109Z" fill="#C3A572"/>
<path d="M80.2517 21.6273H79.9799V21.1614H81.6948C81.8954 21.1614 81.9796 21.2455 81.9796 21.4461V21.9056H81.4813V21.7244C81.4833 21.7117 81.4824 21.6988 81.4787 21.6866C81.4749 21.6743 81.4684 21.6631 81.4597 21.6537C81.451 21.6443 81.4402 21.6371 81.4282 21.6325C81.4163 21.628 81.4034 21.6262 81.3907 21.6273H80.8018V22.4816H81.7595V22.9475H80.8018V24.1835H80.2452L80.2517 21.6273Z" fill="#C3A572"/>
<path d="M82.3486 23.6913H82.6463V21.6269H82.3486V21.1545H83.4746V21.6269H83.1769V23.6913H83.4746V24.1637H82.3486V23.6913Z" fill="#C3A572"/>
<path d="M84.18 21.7244C84.18 21.6597 84.1476 21.6273 84.0894 21.6273H83.9082V21.1614H84.4453C84.6524 21.1614 84.7365 21.2455 84.7365 21.4461V23.6011C84.7355 23.6133 84.7372 23.6255 84.7414 23.6369C84.7456 23.6483 84.7523 23.6587 84.7609 23.6673C84.7695 23.676 84.7799 23.6826 84.7913 23.6868C84.8028 23.691 84.815 23.6927 84.8271 23.6917H85.4743C85.539 23.6917 85.5713 23.6594 85.5713 23.6011V23.4199H86.0761V23.8729C86.0761 24.08 85.9855 24.1641 85.7849 24.1641H84.4582C84.2576 24.1641 84.1735 24.08 84.1735 23.8729L84.18 21.7244Z" fill="#C3A572"/>
<path d="M86.5354 21.6273H86.2636V21.1614H88.0756C88.2763 21.1614 88.3669 21.2455 88.3669 21.4461V21.9056H87.8621V21.7244C87.8641 21.7117 87.8632 21.6988 87.8595 21.6866C87.8557 21.6743 87.8492 21.6631 87.8405 21.6537C87.8318 21.6443 87.821 21.6371 87.809 21.6325C87.7971 21.628 87.7842 21.6262 87.7715 21.6273H87.092V22.4168H88.0627V22.8893H87.092V23.6011C87.091 23.6133 87.0927 23.6255 87.0969 23.6369C87.1011 23.6483 87.1077 23.6587 87.1163 23.6673C87.125 23.676 87.1353 23.6826 87.1468 23.6868C87.1582 23.691 87.1704 23.6927 87.1826 23.6917H87.875C87.9397 23.6917 87.9721 23.6594 87.9721 23.6011V23.4199H88.4769V23.8794C88.4769 24.08 88.3863 24.1641 88.1857 24.1641H86.8266C86.6196 24.1641 86.5354 24.08 86.5354 23.8794V21.6273Z" fill="#C3A572"/>
<path d="M73.0361 18.0228V20.3008C73.0361 20.3719 73.0361 20.4108 72.9261 20.4108H72.5896C72.4925 20.4108 72.4666 20.359 72.4213 20.2813L71.6253 18.9871V20.2813C71.6253 20.3655 71.5865 20.3914 71.5153 20.3914H71.1465C71.1315 20.3935 71.1163 20.3922 71.1019 20.3874C71.0876 20.3827 71.0746 20.3746 71.0639 20.3639C71.0532 20.3533 71.0451 20.3402 71.0404 20.3259C71.0356 20.3115 71.0343 20.2963 71.0364 20.2813V18.0228C71.0364 17.9581 71.0364 17.9193 71.1465 17.9193H71.4959C71.593 17.9193 71.6189 17.971 71.6642 18.0422L72.4602 19.3365V18.0422C72.4602 17.9581 72.499 17.9387 72.5702 17.9387H72.9261C72.9973 17.9387 73.0361 17.9387 73.0361 18.0422" fill="white"/>
<path d="M75.3334 19.9639V20.3004C75.3334 20.3651 75.3334 20.4104 75.2234 20.4104H73.5473C73.4632 20.4104 73.4438 20.3651 73.4438 20.3004V18.0224C73.4438 17.9577 73.4438 17.9124 73.5473 17.9124H75.1587C75.2493 17.9124 75.2687 17.9577 75.2687 18.0224V18.3589C75.2687 18.4301 75.2687 18.469 75.1587 18.469H74.0327V18.8767H75.0357C75.1199 18.8767 75.1458 18.9155 75.1458 18.9867V19.2779C75.1479 19.2928 75.1466 19.3081 75.1418 19.3224C75.1371 19.3368 75.129 19.3498 75.1183 19.3605C75.1077 19.3712 75.0946 19.3792 75.0803 19.384C75.0659 19.3887 75.0507 19.3901 75.0357 19.3879H74.0327V19.8797H75.2234C75.314 19.8797 75.3334 19.9186 75.3334 19.9897" fill="white"/>
<path d="M78.6338 18.0484L77.9414 20.3004C77.9358 20.3221 77.9233 20.3414 77.9058 20.3554C77.8883 20.3695 77.8667 20.3774 77.8443 20.3781H77.5272C77.5012 20.3791 77.4756 20.3714 77.4545 20.3561C77.4333 20.3409 77.418 20.319 77.4107 20.294L77.0354 19.0967L76.66 20.3004C76.6507 20.3254 76.6339 20.3469 76.6119 20.362C76.5899 20.377 76.5638 20.3849 76.5371 20.3846H76.2135C76.19 20.3853 76.1669 20.378 76.1481 20.3639C76.1293 20.3498 76.1158 20.3297 76.11 20.3069L75.4175 18.029C75.4119 18.018 75.4093 18.0058 75.4098 17.9935C75.4103 17.9812 75.414 17.9693 75.4206 17.9589C75.4271 17.9484 75.4362 17.9399 75.447 17.934C75.4578 17.9281 75.4699 17.9252 75.4822 17.9254H75.8964C75.9312 17.9233 75.9655 17.9339 75.993 17.9554C76.0204 17.9769 76.039 18.0076 76.0453 18.0419L76.4141 19.3362L76.7765 18.0419C76.7798 18.0099 76.7948 17.9802 76.8187 17.9586C76.8427 17.9371 76.8738 17.9252 76.906 17.9254H77.1648C77.2489 17.9254 77.2748 17.9901 77.2878 18.0419L77.6502 19.3362L78.0191 18.0419C78.0253 18.0076 78.0439 17.9769 78.0714 17.9554C78.0988 17.9339 78.1331 17.9233 78.1679 17.9254H78.5691C78.5814 17.9252 78.5936 17.9281 78.6044 17.934C78.6152 17.9399 78.6243 17.9484 78.6308 17.9589C78.6373 17.9693 78.641 17.9812 78.6416 17.9935C78.6421 18.0058 78.6394 18.018 78.6338 18.029" fill="white"/>
<path d="M82.4392 18.0617L81.7597 20.3008C81.7541 20.3225 81.7416 20.3418 81.7241 20.3558C81.7066 20.3698 81.685 20.3777 81.6626 20.3784H81.352C81.3259 20.3794 81.3003 20.3717 81.2792 20.3565C81.2581 20.3412 81.2427 20.3193 81.2355 20.2943L80.8666 19.1165L80.4977 20.3008C80.4896 20.3252 80.474 20.3465 80.4531 20.3616C80.4322 20.3767 80.407 20.3849 80.3812 20.3849H80.0577C80.0342 20.3856 80.0111 20.3784 79.9923 20.3642C79.9735 20.3501 79.96 20.33 79.9541 20.3072L79.2746 18.0681C79.2746 18.0228 79.2746 17.9646 79.3393 17.9646H79.747C79.7818 17.9624 79.8162 17.9731 79.8436 17.9946C79.871 18.016 79.8896 18.0468 79.8959 18.0811L80.2583 19.3301L80.6142 18.0811C80.6142 18.0293 80.653 17.9646 80.7372 17.9646H80.996C81.0737 17.9646 81.0996 18.0293 81.119 18.0811L81.4749 19.3301L81.8373 18.0811C81.8436 18.0468 81.8622 18.016 81.8896 17.9946C81.9171 17.9731 81.9514 17.9624 81.9862 17.9646H82.3744C82.4392 17.9646 82.4521 18.0228 82.4392 18.0681" fill="white"/>
<path d="M83.5911 19.4591L83.3193 18.6502L83.041 19.4591H83.5911ZM84.3936 20.3781H84.0376C83.9535 20.3781 83.9276 20.3781 83.8953 20.2681L83.7917 19.9769H82.8922L82.7434 20.3004C82.711 20.3846 82.6851 20.4104 82.601 20.4104H82.2127C82.135 20.4104 82.135 20.3522 82.1545 20.3069L82.9699 18.1001C82.9775 18.0671 82.9967 18.0378 83.024 18.0176C83.0513 17.9975 83.0849 17.9877 83.1187 17.9901H83.4746C83.5588 17.9901 83.5911 17.9901 83.6235 18.1001L84.4583 20.3004C84.4583 20.3457 84.4583 20.404 84.3936 20.404" fill="white"/>
<path d="M86.2574 18.061L85.4679 20.3001C85.429 20.3972 85.4031 20.4101 85.319 20.4101H84.9696C84.8854 20.4101 84.8595 20.4101 84.8142 20.3001L84.0377 18.061C84.0377 18.0157 84.0377 17.9575 84.1024 17.9575H84.5101C84.6072 17.9575 84.633 17.9575 84.6654 18.0739L85.1637 19.5947L85.662 18.0739C85.662 17.9833 85.7138 17.9575 85.8173 17.9575H86.2056C86.2768 17.9575 86.2897 18.0157 86.2703 18.061" fill="white"/>
<path d="M88.367 19.9701V20.3001C88.367 20.3713 88.367 20.4101 88.257 20.4101H86.6262C86.542 20.4101 86.5226 20.3713 86.5226 20.3001V18.061C86.5226 17.9963 86.5226 17.9575 86.6262 17.9575H88.2182C88.3023 17.9575 88.3217 17.9963 88.3217 18.061V18.3587C88.3217 18.4299 88.3217 18.4687 88.2182 18.4687H87.1051V18.8699H88.0887C88.1728 18.8699 88.1987 18.9088 88.1987 18.9735V19.2647C88.1987 19.3294 88.1987 19.3682 88.0887 19.3682H87.1051V19.8536H88.2764C88.2913 19.8514 88.3066 19.8528 88.3209 19.8575C88.3353 19.8623 88.3483 19.8703 88.359 19.881C88.3697 19.8917 88.3777 19.9047 88.3825 19.9191C88.3872 19.9334 88.3886 19.9486 88.3864 19.9636" fill="white"/>
<path d="M0.0252143 9.03993H2.49731C3.99868 9.03993 4.89174 9.53823 4.89174 11.2143C4.89174 12.431 4.39344 12.9875 3.68806 13.214C4.52287 13.4276 5.06647 14.0488 5.06647 15.4467C5.06647 17.3299 4.06987 17.854 2.56849 17.854H0.0252143V9.03993ZM2.49731 12.9746C3.60393 12.9746 4.30931 12.6316 4.30931 11.2726C4.30931 9.91357 3.60393 9.57058 2.49731 9.57058H0.620588V12.9746H2.49731ZM2.58144 17.3169C3.701 17.3169 4.48404 16.9351 4.48404 15.4143C4.48404 13.8935 3.701 13.5246 2.58144 13.5246H0.640002V17.3169H2.58144Z" fill="black"/>
<path d="M6.38019 9.03993H8.85875C10.3537 9.03993 11.2467 9.53823 11.2467 11.2143C11.2467 12.431 10.7484 12.9875 10.043 13.214C10.8778 13.4276 11.4279 14.0488 11.4279 15.4467C11.4279 17.3299 10.4248 17.854 8.92994 17.854H6.38019V9.03993ZM8.84581 12.9746C9.95243 12.9746 10.6513 12.6316 10.6513 11.2726C10.6513 9.91357 9.95243 9.57058 8.84581 9.57058H6.98203V12.9746H8.84581ZM8.96877 17.3169C10.0819 17.3169 10.8714 16.9351 10.8714 15.4143C10.8714 13.8935 10.0495 13.5246 8.96877 13.5246H7.02733V17.3169H8.96877Z" fill="black"/>
<path d="M14.9743 9.03405H19.3684V9.58412H15.5697V13.0075H19.1419V13.5576H15.5697V17.8546H14.9743V9.03405Z" fill="black"/>
<path d="M20.449 9.29843H21.0314V10.418H20.449V9.29843ZM20.449 11.3693H21.0314V17.8537H20.449V11.3693Z" fill="black"/>
<path d="M22.5587 11.3828H23.0117L23.0829 12.3859C23.2191 12.0334 23.47 11.737 23.7952 11.5444C24.1204 11.3519 24.5009 11.2745 24.8755 11.3246V11.8682C23.2123 11.907 23.1411 13.2854 23.1411 14.6638V17.8996H22.5587V11.3828Z" fill="black"/>
<path d="M25.7944 11.3829H26.2604L26.3186 12.3018C26.5322 11.7065 26.9658 11.2793 28.2083 11.2793C29.4508 11.2793 29.7356 11.6806 29.8779 12.3342C30.1109 11.687 30.5768 11.2793 31.8194 11.2793C33.5537 11.2793 33.612 12.2177 33.612 13.6673V17.8802H33.0295V13.7256C33.0295 12.4636 32.9842 11.7841 31.664 11.7841C30.2274 11.7841 29.975 12.606 29.975 14.5474V17.8414H29.4184V13.7256C29.4184 12.4636 29.3667 11.7841 28.0465 11.7841C26.5969 11.7841 26.3445 12.6319 26.3445 14.5474V17.8414H25.7944V11.3829Z" fill="black"/>
<path d="M34.6476 15.9123C34.6476 13.9709 35.8513 13.5696 38.0063 13.5696H38.3169C38.3169 12.4048 38.1227 11.7835 36.932 11.7835C36.3896 11.7806 35.8538 11.9024 35.3659 12.1395L35.1006 11.6541C35.6823 11.3697 36.3234 11.2277 36.9708 11.2399C38.634 11.2399 38.9123 12.0359 38.9123 13.602V16.5918C38.9123 17.1613 38.9576 17.3166 39.4818 17.3166V17.8537C39.4345 17.8601 39.3866 17.8601 39.3394 17.8537C38.5887 17.8537 38.4463 17.6014 38.401 16.9607C38.2122 17.2839 37.934 17.5457 37.5999 17.7145C37.2658 17.8833 36.89 17.9518 36.5178 17.912C35.2235 17.912 34.6735 17.2648 34.6735 15.8994M38.3428 15.291V14.0938H38.0451C36.149 14.0938 35.2494 14.3397 35.2494 15.88C35.2494 17.0901 35.7801 17.4007 36.602 17.4007C37.4238 17.4007 38.3428 16.9866 38.3428 15.304" fill="black"/>
<path d="M41.5395 15.376C41.4393 15.5278 41.3853 15.7054 41.3842 15.8872C41.3842 16.2949 41.6819 16.3985 42.4779 16.3985C44.2251 16.3985 44.8205 16.8385 44.8205 17.984C44.8205 19.1294 44.141 19.8283 42.452 19.8283C40.7629 19.8283 40.0769 19.4465 40.0769 18.2364C40.0346 17.8738 40.1312 17.5086 40.3473 17.2144C40.5635 16.9201 40.8831 16.7188 41.2418 16.6509C41.1102 16.581 41.0024 16.4735 40.9321 16.3421C40.8618 16.2107 40.8322 16.0614 40.8471 15.9131C40.8525 15.642 40.9431 15.3794 41.1059 15.1624C40.8523 14.9459 40.656 14.6703 40.5341 14.3599C40.4122 14.0496 40.3685 13.714 40.407 13.3828C40.407 11.7973 41.19 11.2148 42.439 11.2148C42.656 11.2165 42.8724 11.236 43.0862 11.2731L44.7882 11.1178V11.6161H43.7721C44.0314 11.8253 44.2325 12.0977 44.3561 12.4071C44.4796 12.7165 44.5214 13.0525 44.4775 13.3828C44.4775 14.9618 43.6815 15.5119 42.439 15.5119C42.1335 15.52 41.829 15.474 41.5395 15.376ZM44.2251 18.0099C44.2251 17.2074 43.8822 16.9162 42.439 16.9162C40.9959 16.9162 40.6788 17.3174 40.6788 18.1652C40.6788 19.0129 41.08 19.33 42.4843 19.33C43.8886 19.33 44.2575 18.9223 44.2575 18.0358M43.9145 13.3828C43.9145 12.205 43.3709 11.7649 42.452 11.7649C41.533 11.7649 40.9894 12.205 40.9894 13.3828C40.9894 14.5606 41.5524 14.9877 42.452 14.9877C43.3515 14.9877 43.9145 14.5606 43.9145 13.3828Z" fill="black"/>
<path d="M45.5712 15.9124C45.5712 13.971 46.7685 13.5698 48.9234 13.5698H49.2341C49.2341 12.4049 49.0399 11.7836 47.8557 11.7836C47.3111 11.7802 46.7731 11.902 46.2831 12.1396L46.0242 11.6542C46.6034 11.3689 47.2426 11.2269 47.888 11.24C49.5512 11.24 49.8294 12.036 49.8294 13.6021V16.5919C49.8294 17.1614 49.8747 17.3167 50.3989 17.3167V17.8539C50.3517 17.8606 50.3038 17.8606 50.2566 17.8539C49.5059 17.8539 49.3635 17.6015 49.3182 16.9608C49.1299 17.283 48.8527 17.544 48.5199 17.7127C48.187 17.8814 47.8126 17.9507 47.4415 17.9121C46.1472 17.9121 45.5971 17.265 45.5971 15.8995M49.26 15.2912V14.0939H48.9623C47.0726 14.0939 46.1666 14.3399 46.1666 15.8801C46.1666 17.0902 46.7037 17.4009 47.5191 17.4009C48.3345 17.4009 49.26 16.9867 49.26 15.3041" fill="black"/>
<path d="M50.7548 11.344H51.3502L53.091 17.0647L54.8254 11.344H55.3949L53.3758 17.8995H52.7675L50.7548 11.344Z" fill="black"/>
<path d="M55.9191 14.5792C55.9191 12.6378 56.288 11.2529 58.2618 11.2529C60.3585 11.2529 60.3197 12.6896 60.3197 14.7604H56.4757C56.4757 16.3654 56.7539 17.4137 58.2877 17.4137C58.8438 17.4372 59.3966 17.3169 59.8926 17.0643L60.132 17.5302C59.5644 17.843 58.9223 17.9951 58.2747 17.9703C56.2362 17.9703 55.9191 16.6113 55.9191 14.6116M56.4757 14.2427H59.7632C59.7632 12.8384 59.7632 11.803 58.2488 11.803C56.7345 11.803 56.5274 12.7931 56.4757 14.2427Z" fill="black"/>
<path d="M61.5233 11.3828H61.9763L62.0475 12.3859C62.1837 12.0334 62.4346 11.737 62.7598 11.5444C63.085 11.3519 63.4655 11.2745 63.8401 11.3246V11.8682C62.1769 11.907 62.1057 13.2854 62.1057 14.6638V17.8996H61.5233V11.3828Z" fill="black"/>
<path d="M0.167687 5.90748H63.9827" stroke="black" stroke-width="0.251708" stroke-miterlimit="10"/>
<path d="M0.167687 20.7795H63.9827" stroke="black" stroke-width="0.251708" stroke-miterlimit="10"/>
<path d="M37.2554 23.3489H37.9414C38.3556 23.3489 38.6338 23.4783 38.6338 23.996C38.6542 24.1274 38.6251 24.2617 38.5522 24.3729C38.4793 24.484 38.3677 24.5642 38.2391 24.5979C38.4979 24.6626 38.6856 24.8438 38.6856 25.245C38.6856 25.821 38.3879 25.9634 37.9608 25.9634H37.2554V23.3489ZM37.9414 24.5591C38.2973 24.5591 38.5432 24.449 38.5432 23.996C38.5432 23.543 38.2973 23.433 37.9414 23.433H37.346V24.5591H37.9414ZM37.9414 25.9051C38.3103 25.9051 38.5885 25.7822 38.5885 25.258C38.5885 24.7338 38.3232 24.6108 37.9414 24.6108H37.2942V25.8728L37.9414 25.9051Z" fill="black"/>
<path d="M39.4557 23.342H40.6917V23.4326H39.5398V24.5587H40.6205V24.6493H39.5398V25.9047H40.7047V25.9889H39.4557V23.342Z" fill="black"/>
<path d="M43.1315 24.947L42.3355 23.342H42.4326L43.1703 24.8564L43.921 23.342H44.0051L43.2221 24.9405V25.9889H43.1315V24.947Z" fill="black"/>
<path d="M44.5164 24.6685C44.5164 23.9178 44.5876 23.3225 45.4095 23.3225C46.2313 23.3225 46.309 23.9178 46.309 24.6685C46.309 25.4192 46.2378 26.0146 45.4095 26.0146C44.5811 26.0146 44.5164 25.4192 44.5164 24.6685ZM46.2184 24.6685C46.2184 23.9696 46.1472 23.3742 45.4095 23.3742C44.6717 23.3742 44.607 23.9372 44.607 24.6685C44.607 25.3998 44.6717 25.9628 45.4095 25.9628C46.1472 25.9628 46.2184 25.4063 46.2184 24.6685Z" fill="black"/>
<path d="M47.0403 25.1674V23.3489H47.1503V25.1674C47.1503 25.6463 47.2862 25.931 47.8363 25.931C48.3863 25.931 48.5287 25.6463 48.5287 25.1674V23.3489H48.6128V25.1674C48.6128 25.698 48.464 26.0151 47.8363 26.0151C47.2085 26.0151 47.0597 25.7045 47.0597 25.1674" fill="black"/>
<path d="M50.192 24.8309H49.5448V26.0216H49.4542V23.3489H50.1984C50.6514 23.3489 50.8844 23.5495 50.8844 24.0737C50.8844 24.5979 50.6838 24.7726 50.2826 24.7985L50.8391 25.9893H50.7421L50.192 24.8309ZM50.192 24.7467C50.5932 24.7467 50.7874 24.572 50.7874 24.0996C50.7874 23.6272 50.5932 23.4524 50.192 23.4524H49.5448V24.7467H50.192Z" fill="black"/>
<path d="M52.7353 23.3489H53.4277C53.8354 23.3489 54.1137 23.4783 54.1137 23.996C54.1329 24.1264 54.1041 24.2593 54.0327 24.37C53.9613 24.4807 53.8521 24.5617 53.7254 24.5979C53.9778 24.6626 54.1655 24.8438 54.1655 25.245C54.1655 25.821 53.8742 25.9634 53.4471 25.9634H52.7353V23.3489ZM53.4277 24.5591C53.7836 24.5591 54.0231 24.449 54.0231 23.996C54.0231 23.543 53.7836 23.433 53.4277 23.433H52.8259V24.5591H53.4277ZM53.4277 25.9051C53.7966 25.9051 54.0749 25.7822 54.0749 25.258C54.0749 24.7338 53.8095 24.6108 53.4277 24.6108H52.7806V25.8728L53.4277 25.9051Z" fill="black"/>
<path d="M55.6602 24.8309H55.013V26.0216H54.9159V23.3489H55.6602C56.1132 23.3489 56.3073 23.5495 56.3073 24.0737C56.3073 24.5979 56.1067 24.7726 55.7055 24.7985L56.2685 25.9893H56.2102L55.6602 24.8309ZM55.6602 24.7467C56.0614 24.7467 56.2555 24.572 56.2555 24.0996C56.2555 23.6272 56.0614 23.4524 55.6602 23.4524H55.013V24.7467H55.6602Z" fill="black"/>
<path d="M57.7765 23.3352H57.8477L58.6566 25.9885H58.5725L58.346 25.2507H57.2782L57.0517 25.9885H56.9676L57.7765 23.3352ZM58.3201 25.1731L57.8089 23.484L57.2976 25.1731H58.3201Z" fill="black"/>
<path d="M59.3813 23.342H59.4913L60.8115 25.8206V23.342H60.8956V25.9889H60.8115L59.4654 23.4715V25.9889H59.3813V23.342Z" fill="black"/>
<path d="M61.7757 23.3489H62.4229C63.2512 23.3489 63.3224 23.9184 63.3224 24.6432C63.3224 25.368 63.2512 25.9375 62.3905 25.9375H61.7434L61.7757 23.3489ZM62.4229 25.9051C63.1994 25.9051 63.2642 25.3874 63.2642 24.6691C63.2642 23.9507 63.1994 23.433 62.4552 23.433H61.8857V25.9051H62.4229Z" fill="black"/>
</g>
</g>
<defs>
<clipPath id="clip0_52_33868">
<rect width="92.6996" height="26.3906" fill="white" transform="translate(0.0252143) scale(1.0027)"/>
</clipPath>
</defs>
</svg>
