<svg width="30" height="30" viewBox="0 0 30 30" fill="none" xmlns="http://www.w3.org/2000/svg">
<g clip-path="url(#clip0_52_76223)">
<path d="M0.75 3.46875L24.6562 1.78125L28.3125 25.6875L2.90625 28.3125L0.75 3.46875Z" fill="white"/>
<path d="M24.1875 2.34375L27.6562 25.2187L3.375 27.6562L1.3125 4.03125L24.1875 2.34375ZM25.125 1.125L24.0938 1.21875L1.3125 2.8125L0.09375 2.90625L0.1875 4.125L2.25 27.9375L2.34375 29.0625L3.5625 28.9687L27.75 26.25L28.9688 26.1562L28.7812 24.9375L25.3125 2.15625L25.125 1.125Z" fill="#95A39B"/>
<path d="M25.5 21.8437L4.59375 24L3.1875 5.34375L22.7812 3.9375L25.5 21.8437Z" fill="#96D0EA"/>
<mask id="mask0_52_76223" style="mask-type:luminance" maskUnits="userSpaceOnUse" x="3" y="3" width="23" height="21">
<path d="M25.5 21.8437L4.59375 24L3.1875 5.34375L22.7812 3.9375L25.5 21.8437Z" fill="white"/>
</mask>
<g mask="url(#mask0_52_76223)">
<path d="M17.9072 19.5938C19.2197 20.0625 20.5322 21.0938 20.9072 22.7812C21.3759 24.375 20.7197 26.3438 19.5009 27.2813C18.6572 27.9375 17.7197 28.0312 16.6884 28.0312C14.4384 28.0312 12.0947 27.2812 9.84468 26.5312C9.09468 26.25 8.34468 25.9688 7.68843 25.4063C7.03218 24.9375 6.46968 24.1875 6.37593 23.25C6.18843 22.0312 7.03218 20.7188 7.96968 20.0625C9.65718 18.9375 11.4384 18.5625 13.1259 18.5625C14.5322 18.5625 16.5009 19.125 17.9072 19.5938Z" fill="#B83D68"/>
<path d="M18.1883 17.9063C19.5946 18.4688 20.9071 19.875 21.3758 21.9375C21.8446 24 21.1883 26.5313 19.9696 27.75C19.1258 28.5938 18.0946 28.7813 17.0634 28.7813C14.6259 28.7813 12.1883 27.75 9.75085 26.8125C8.9071 26.4375 8.1571 26.0625 7.4071 25.5C6.6571 24.8438 6.0946 23.9063 6.00085 22.6875C5.81335 21.0938 6.6571 19.4063 7.68835 18.6563C9.4696 17.25 11.3446 16.6875 13.2196 16.6875C14.7196 16.6875 16.5946 17.3438 18.1883 17.9063Z" fill="#B83D68"/>
<path d="M13.4062 21.8437C17.5484 21.8437 20.9062 18.4859 20.9062 14.3438C20.9062 10.2016 17.5484 6.84375 13.4062 6.84375C9.26411 6.84375 5.90625 10.2016 5.90625 14.3438C5.90625 18.4859 9.26411 21.8437 13.4062 21.8437Z" fill="#7F5C4E"/>
<path d="M17.6267 18.5625C18.9392 19.0312 20.0642 20.0625 20.5329 21.75C20.9079 23.3438 20.3454 25.3125 19.2204 26.25C18.4704 26.9063 17.5329 27 16.5954 27C14.4392 27 12.2829 26.25 10.1267 25.5C9.37669 25.2188 8.72044 24.9375 8.06419 24.4688C7.40794 24 6.84544 23.1562 6.84544 22.3125C6.65794 21.0938 7.40794 19.7813 8.25169 19.125C9.75169 18 11.5329 17.625 13.1267 17.625C14.4392 17.625 16.3142 18.0938 17.6267 18.5625Z" fill="#DB8CB1"/>
<path d="M16.688 19.4067C17.7192 19.7817 18.563 20.6254 18.938 21.8442C19.313 23.1567 18.8442 24.6567 17.9067 25.4067C17.2505 25.8754 16.5942 26.0629 15.8442 26.0629C14.1567 26.0629 12.4692 25.4067 10.7817 24.8442C10.2192 24.6567 9.56296 24.3754 9.18796 24.0004C8.62546 23.6254 8.25046 22.9692 8.15671 22.3129C8.06296 21.2817 8.62546 20.3442 9.37546 19.8754C10.5942 19.0317 11.9067 18.6567 13.1255 18.6567C14.2505 18.5629 15.6567 19.0317 16.688 19.4067Z" fill="#E8A7C6"/>
<path d="M17.1562 19.5C17.1562 19.5 15.375 23.25 12 23.625C8.625 24 8.625 18.9375 8.625 18.9375C8.625 18.9375 13.5937 21.75 17.1562 19.5Z" fill="#E8CCAA"/>
<path d="M13.4063 21C17.0824 21 20.0625 18.0199 20.0625 14.3438C20.0625 10.6676 17.0824 7.6875 13.4063 7.6875C9.7301 7.6875 6.75 10.6676 6.75 14.3438C6.75 18.0199 9.7301 21 13.4063 21Z" fill="#A67A65"/>
<path opacity="0.48" d="M19.125 16.2187C19.125 16.2187 16.875 21 12.75 21.5625C8.625 22.125 8.625 15.375 8.625 15.375C8.625 15.375 14.4375 19.125 19.125 16.2187Z" fill="#A67A65"/>
<path d="M13.4062 20.25C16.9788 20.25 19.875 17.3538 19.875 13.7812C19.875 10.2087 16.9788 7.3125 13.4062 7.3125C9.83366 7.3125 6.9375 10.2087 6.9375 13.7812C6.9375 17.3538 9.83366 20.25 13.4062 20.25Z" fill="#E5A98C"/>
<path d="M19.7982 13.6184C19.8107 10.1493 17.0926 7.32724 13.7272 7.31505C10.3617 7.30285 7.62322 10.1052 7.61065 13.5742C7.59808 17.0433 10.3162 19.8654 13.6816 19.8775C17.0471 19.8897 19.7856 17.0874 19.7982 13.6184Z" fill="#E8CCAA"/>
<path d="M16.4284 14.5847C16.4374 12.0994 14.472 10.0775 12.0385 10.0687C9.60496 10.0599 7.62491 12.0675 7.61591 14.5527C7.60691 17.038 9.57235 19.0599 12.0059 19.0687C14.4394 19.0775 16.4194 17.0699 16.4284 14.5847Z" fill="#FAEACF"/>
<path d="M16.0327 9.46888C16.0327 9.46888 15.3764 12.1876 11.3452 12.6564C7.31392 13.1251 5.81392 15.6564 5.81392 15.6564C5.81392 15.6564 5.06392 11.8126 7.50142 10.3126C9.93892 8.81263 13.0327 7.21888 16.0327 9.46888Z" fill="#B29A34"/>
<path d="M12.5638 8.43612C12.5638 8.43612 18.2826 8.90487 18.7513 12.9361C19.2201 16.9674 19.7826 20.6236 23.0638 21.4674C23.0638 21.4674 21.6576 20.0611 22.1263 18.8424C22.6888 17.6236 26.4388 6.46737 18.9388 4.59237C11.4388 2.71737 12.5638 8.43612 12.5638 8.43612Z" fill="#B29A34"/>
<path d="M13.0328 9.094C13.0328 9.094 17.064 10.3128 17.5328 13.969C18.0015 17.719 18.4703 20.9065 21.4703 21.6565C21.4703 21.6565 20.1578 20.344 20.6265 19.3128C21.189 18.1878 24.3765 8.06275 17.6265 6.2815C10.8765 4.50025 13.0328 9.094 13.0328 9.094Z" fill="#B29A34"/>
<path d="M12.563 8.81165C12.563 8.81165 17.7193 9.93665 18.188 13.4992C18.6568 17.1554 19.1255 20.4367 22.1255 21.1867C22.1255 21.1867 20.813 19.9679 21.2818 18.8429C21.8443 17.7179 25.1255 7.5929 18.2818 5.81165C11.438 4.0304 12.563 8.81165 12.563 8.81165Z" fill="#E8E26B"/>
<path d="M14.0634 8.24949C14.0634 8.24949 8.34464 6.74949 7.03214 9.37449C5.71964 11.9995 5.25089 12.187 5.43839 15.6557C5.43839 15.6557 4.12589 12.3745 4.21964 10.7807C4.31339 9.28074 6.00089 4.03074 10.0321 3.93699C14.0634 3.84324 15.5634 5.71824 15.3759 6.18699C15.1884 6.65574 14.0634 8.24949 14.0634 8.24949Z" fill="#B29A34"/>
<path d="M15.0009 9.28074C15.0009 9.28074 9.28214 7.78074 7.96964 10.4057C6.65714 13.0307 6.18839 13.2182 6.37589 16.687C6.37589 16.687 5.06339 13.4057 5.15714 11.812C5.34464 10.2182 6.93839 5.06199 10.9696 4.96824C15.0009 4.87449 16.5009 6.74949 16.3134 7.21824C16.1259 7.59324 15.0009 9.28074 15.0009 9.28074Z" fill="#E8E26B"/>
<path d="M15.8451 7.40587C15.8451 7.40587 20.6263 7.12462 21.0951 10.5934C21.5638 14.0621 20.8138 16.4996 20.8138 16.4996C20.8138 16.4996 21.0013 12.8434 20.0638 11.7184C19.1263 10.4996 16.8763 9.65587 16.2201 8.99962C15.2826 8.24962 15.8451 7.40587 15.8451 7.40587Z" fill="#F7F1A9"/>
<path d="M15.9378 8.62373C15.9378 8.62373 15.2816 11.3425 11.2503 11.8112C7.21907 12.28 5.71907 14.8112 5.71907 14.8112C5.71907 14.8112 4.96907 10.8737 7.50032 9.46748C10.0316 8.06123 12.9378 6.37373 15.9378 8.62373Z" fill="#E8E26B"/>
<path d="M6.84375 11.3439C6.84375 11.3439 7.59375 6.37515 10.7812 6.0939C14.0625 5.7189 15 8.43765 13.7812 9.18765C12.4687 9.93765 7.78125 9.93766 6.84375 11.3439Z" fill="#F7F1A9"/>
<path d="M4.875 13.2188L5.4375 13.5937L6.75 16.4062L6.9375 18C6.9375 18 5.90625 17.3438 4.96875 13.875L4.875 13.2188Z" fill="#B29A34"/>
<path d="M6.65625 13.7812L6.375 13.875L6.09375 15.8437L6.75 16.4062L7.3125 13.6875L6.65625 13.7812Z" fill="#B29A34"/>
<path d="M15.4855 14.7984C15.4872 14.3324 15.1528 13.9534 14.7385 13.9519C14.3243 13.9504 13.9872 14.327 13.9855 14.793C13.9838 15.259 14.3182 15.6379 14.7324 15.6394C15.1466 15.6409 15.4838 15.2644 15.4855 14.7984Z" fill="#425763"/>
<path d="M14.8145 14.7187C14.918 14.7187 15.002 14.6348 15.002 14.5312C15.002 14.4277 14.918 14.3438 14.8145 14.3438C14.7109 14.3438 14.627 14.4277 14.627 14.5312C14.627 14.6348 14.7109 14.7187 14.8145 14.7187Z" fill="white"/>
<path d="M9.94446 13.5777C9.94615 13.1117 9.61173 12.7327 9.19752 12.7312C8.78331 12.7297 8.44615 13.1063 8.44446 13.5723C8.44278 14.0383 8.77719 14.4172 9.19141 14.4187C9.60562 14.4202 9.94278 14.0437 9.94446 13.5777Z" fill="#425763"/>
<path d="M9.18945 13.5C9.29301 13.5 9.37695 13.4161 9.37695 13.3125C9.37695 13.2089 9.29301 13.125 9.18945 13.125C9.0859 13.125 9.00195 13.2089 9.00195 13.3125C9.00195 13.4161 9.0859 13.5 9.18945 13.5Z" fill="white"/>
<path d="M13.2207 18.2813C13.2207 18.2813 12.4707 18.1875 12.002 17.8125C11.4395 17.4375 10.9707 17.4375 10.877 17.4375C10.7832 17.4375 10.5957 17.25 10.4082 17.1562C10.2207 17.0625 10.0332 17.0625 9.93945 17.1562C9.93945 17.25 10.127 17.625 10.127 17.625C10.127 17.625 10.127 17.9063 10.127 18.0938C10.127 18.2812 10.127 18.8438 10.6895 18.9375C11.252 19.0313 11.627 19.0313 11.9082 18.8438C12.1895 18.6563 13.2207 18.2813 13.2207 18.2813Z" fill="#A67A65"/>
</g>
<path d="M18.75 27.9375L18.4688 28.4062L20.0625 29.4375L28.9687 20.625L27.4687 18.75L18.75 27.9375Z" fill="#9A4C18"/>
<path d="M29.157 23.0625C28.8757 26.625 25.5945 29.5312 21.9382 29.5312C18.3757 29.5312 16.032 26.5313 16.6882 23.0625C17.3445 19.875 20.4382 17.3438 23.6257 17.25C26.907 17.3438 29.4382 19.7813 29.157 23.0625Z" fill="#9A4C18"/>
<path d="M30.0004 24.1875C29.7192 27.5625 26.5317 30.375 22.9692 30.375C19.5004 30.375 17.2504 27.4688 17.9067 24.1875C18.5629 21.0937 21.5629 18.75 24.6567 18.6562C27.9379 18.6562 30.2817 21.0937 30.0004 24.1875Z" fill="#9A4C18"/>
<path d="M19.7812 28.125L21.2813 28.9688L28.5938 21.2813L27.375 19.6875L19.7812 28.125Z" fill="#F49937"/>
<path d="M29.3451 24.1875C29.0639 27.0937 26.4389 29.4375 23.4389 29.4375C20.5326 29.4375 18.6576 27 19.1264 24.1875C19.5951 21.5625 22.1264 19.4062 24.8451 19.4062C27.5639 19.4062 29.6264 21.4687 29.3451 24.1875Z" fill="#F49937"/>
<path d="M28.3132 23.0625C28.0319 26.1562 25.2194 28.6875 22.0319 28.6875C18.9382 28.6875 16.8757 26.0625 17.4382 23.0625C18.0007 20.25 20.7194 18 23.5319 18C26.4382 18 28.5944 20.1562 28.3132 23.0625Z" fill="#FFEDC0"/>
<path d="M27.9389 23.3429C27.6576 26.2492 25.0326 28.5929 22.0326 28.5929C19.1264 28.5929 17.2514 26.1554 17.7201 23.3429C18.1889 20.7179 20.7201 18.5617 23.4389 18.5617C26.2514 18.4679 28.2201 20.5304 27.9389 23.3429Z" fill="#FFD766"/>
<path d="M26.8133 23.3436C26.6258 25.5936 24.5633 27.3748 22.2195 27.3748C19.9695 27.3748 18.4695 25.4998 18.8445 23.3436C19.2195 21.2811 21.1883 19.5936 23.3445 19.5936C25.5008 19.4998 27.0008 21.1873 26.8133 23.3436Z" fill="#FFEDC0"/>
<path d="M26.907 22.7813C26.7195 24.9375 24.657 26.8125 22.407 26.8125C20.157 26.8125 18.657 25.0313 19.032 22.875C19.407 20.8125 21.3758 19.125 23.4383 19.125C25.5008 19.0313 27.0945 20.625 26.907 22.7813Z" fill="#F49937"/>
<path d="M26.1579 23.3443C25.9704 25.2193 24.1891 26.7193 22.3141 26.7193C20.4391 26.7193 19.1266 25.1255 19.5016 23.3443C19.7829 21.563 21.4704 20.1568 23.2516 20.1568C25.1266 20.063 26.3454 21.4693 26.1579 23.3443Z" fill="#FFD766"/>
<path d="M23.8125 19.7812L24.2813 21.75L26.5312 22.3125L24.4688 23.7187L24.2813 26.0625L22.5 24.75L20.1563 25.5937L21.1875 23.3437L19.9688 21.6562L22.3125 21.5625L23.8125 19.7812Z" fill="#F49937"/>
</g>
<defs>
<clipPath id="clip0_52_76223">
<rect width="30" height="30" fill="white"/>
</clipPath>
</defs>
</svg>
