<svg width="22" height="22" viewBox="0 0 22 22" fill="none" xmlns="http://www.w3.org/2000/svg">
<path d="M19.9 7.51271C17.91 7.51271 17.0964 6.06859 18.0859 4.29728C18.6577 3.2706 18.3168 1.96186 17.3163 1.37519L15.4143 0.258251C14.5457 -0.272013 13.4243 0.0438896 12.9075 0.935184L12.7866 1.14955C11.7971 2.92085 10.1699 2.92085 9.16941 1.14955L9.04847 0.935184C8.55372 0.0438896 7.43228 -0.272013 6.56371 0.258251L4.66167 1.37519C3.66117 1.96186 3.32034 3.28188 3.89205 4.30856C4.89255 6.06859 4.07896 7.51271 2.08895 7.51271C0.945527 7.51271 0 8.4717 0 9.65633V11.642C0 12.8154 0.934532 13.7856 2.08895 13.7856C4.07896 13.7856 4.89255 15.2297 3.89205 17.0011C3.32034 18.0277 3.66117 19.3365 4.66167 19.9231L6.56371 21.0401C7.43228 21.5704 8.55372 21.2544 9.07046 20.3632L9.1914 20.1488C10.1809 18.3775 11.8081 18.3775 12.8086 20.1488L12.9295 20.3632C13.4463 21.2544 14.5677 21.5704 15.4363 21.0401L17.3383 19.9231C18.3388 19.3365 18.6797 18.0165 18.1079 17.0011C17.1074 15.2297 17.921 13.7856 19.911 13.7856C21.0545 13.7856 22 12.8266 22 11.642V9.65633C21.989 8.48298 21.0545 7.51271 19.9 7.51271ZM10.9945 14.3159C9.02648 14.3159 7.42129 12.6687 7.42129 10.6492C7.42129 8.62965 9.02648 6.98245 10.9945 6.98245C12.9625 6.98245 14.5677 8.62965 14.5677 10.6492C14.5677 12.6687 12.9625 14.3159 10.9945 14.3159Z" fill="#15161E"/>
</svg>
