<svg width="64" height="64" viewBox="0 0 64 64" fill="none" xmlns="http://www.w3.org/2000/svg">
<path d="M20.0259 21.637C19.9099 21.8141 19.845 22.0158 19.8373 22.2225C19.8295 22.4292 19.8788 22.6346 19.9809 22.8188C20.3852 23.5456 20.9622 24.1752 21.6677 24.6583C21.9097 24.8231 22.1662 24.9682 22.4344 25.0921C22.7025 24.9682 22.959 24.8231 23.201 24.6583C23.9066 24.1752 24.4837 23.5455 24.8879 22.8187L24.8902 22.8143C24.9992 22.6337 25.0563 22.4302 25.0563 22.2235C25.0563 22.0168 24.9993 21.8132 24.8904 21.6325L24.8891 21.6304C24.8075 21.4896 24.6871 21.371 24.5392 21.2874C24.3919 21.2042 24.2232 21.1591 24.0505 21.1573C23.8555 21.1623 23.6667 21.2199 23.5066 21.3226C23.3458 21.4256 23.2212 21.5694 23.1463 21.7357L23.1447 21.7392L23.0397 21.9561L20.0259 21.637ZM20.0259 21.637L20.0297 21.6304L20.0259 21.637ZM20.0259 21.637L20.0297 21.6304L20.0259 21.637ZM20.0297 21.6304C20.1112 21.4896 20.2317 21.371 20.3796 21.2874C20.5269 21.2042 20.6956 21.1591 20.8683 21.1573C21.0633 21.1623 21.252 21.2199 21.4122 21.3226C21.5729 21.4256 21.6976 21.5694 21.7725 21.7357M20.0297 21.6304L21.7725 21.7357L20.0297 21.6304ZM21.7725 21.7357L21.7741 21.7392L21.7725 21.7357ZM21.7725 21.7357L21.7741 21.7392L21.7725 21.7357ZM21.7741 21.7392L21.8791 21.9561L21.7741 21.7392ZM21.7741 21.7392L21.8791 21.9561L21.7741 21.7392ZM21.8791 21.9561C21.9309 22.0635 22.0138 22.1533 22.1167 22.2157C22.2195 22.2781 22.3384 22.3109 22.4594 22.3109C22.5804 22.3109 22.6993 22.2781 22.8021 22.2157C22.9049 22.1533 22.9878 22.0634 23.0397 21.9561H21.8791ZM20.9664 25.6622L20.9679 25.6632C21.3601 25.921 21.7819 26.136 22.225 26.3044C22.3753 26.3609 22.543 26.361 22.6933 26.3045L22.6939 26.3043C23.1379 26.1351 23.5609 25.9202 23.9553 25.6635L23.9577 25.6619C24.8259 25.0716 25.5375 24.2983 26.0356 23.4028C26.2473 23.034 26.3545 22.619 26.3461 22.1986C26.3377 21.7781 26.214 21.3674 25.9879 21.0065C25.7913 20.6824 25.5086 20.4135 25.1689 20.2261C24.8289 20.0383 24.4433 19.9384 24.0505 19.9355H24.0491C23.7273 19.9363 23.4093 20.0031 23.1171 20.1314C22.8713 20.2394 22.6485 20.3887 22.4594 20.5723C22.2703 20.3887 22.0474 20.2394 21.8017 20.1314C21.5094 20.0031 21.1914 19.9363 20.8697 19.9355H20.8683C20.4755 19.9384 20.0899 20.0383 19.7499 20.2261C19.4102 20.4135 19.1275 20.6824 18.9308 21.0065C18.7047 21.3674 18.5811 21.7781 18.5727 22.1986C18.5643 22.619 18.6715 23.034 18.8831 23.4028C19.3816 24.2998 20.0953 25.0734 20.9664 25.6622Z" fill="#213A52"/>
<path d="M20.0259 21.637C19.9099 21.8141 19.845 22.0158 19.8373 22.2225C19.8295 22.4292 19.8788 22.6346 19.9809 22.8188C20.3852 23.5456 20.9622 24.1752 21.6677 24.6583C21.9097 24.8231 22.1662 24.9682 22.4344 25.0921C22.7025 24.9682 22.959 24.8231 23.201 24.6583C23.9066 24.1752 24.4837 23.5455 24.8879 22.8187L24.8902 22.8143C24.9992 22.6337 25.0563 22.4302 25.0563 22.2235C25.0563 22.0168 24.9993 21.8132 24.8904 21.6325L24.8891 21.6304C24.8075 21.4896 24.6871 21.371 24.5392 21.2874C24.3919 21.2042 24.2232 21.1591 24.0505 21.1573C23.8555 21.1623 23.6667 21.2199 23.5066 21.3226C23.3458 21.4256 23.2212 21.5694 23.1463 21.7357L23.1447 21.7392L23.0397 21.9561M20.0259 21.637L23.0397 21.9561M20.0259 21.637L20.0297 21.6304M23.0397 21.9561C22.9878 22.0634 22.9049 22.1533 22.8021 22.2157C22.6993 22.2781 22.5804 22.3109 22.4594 22.3109C22.3384 22.3109 22.2195 22.2781 22.1167 22.2157C22.0138 22.1533 21.9309 22.0635 21.8791 21.9561M23.0397 21.9561H21.8791M20.0297 21.6304C20.1112 21.4896 20.2317 21.371 20.3796 21.2874C20.5269 21.2042 20.6956 21.1591 20.8683 21.1573C21.0633 21.1623 21.252 21.2199 21.4122 21.3226C21.5729 21.4256 21.6976 21.5694 21.7725 21.7357M20.0297 21.6304L21.7725 21.7357M21.7725 21.7357L21.7741 21.7392L21.8791 21.9561M20.9664 25.6622L20.9679 25.6632C21.3601 25.921 21.7819 26.136 22.225 26.3044C22.3753 26.3609 22.543 26.361 22.6933 26.3045L22.6939 26.3043C23.1379 26.1351 23.5609 25.9202 23.9553 25.6635L23.9577 25.6619C24.8259 25.0716 25.5375 24.2983 26.0356 23.4028C26.2473 23.034 26.3545 22.619 26.3461 22.1986C26.3377 21.7781 26.214 21.3674 25.9879 21.0065C25.7913 20.6824 25.5086 20.4135 25.1689 20.2261C24.8289 20.0383 24.4433 19.9384 24.0505 19.9355H24.0491C23.7273 19.9363 23.4093 20.0031 23.1171 20.1314C22.8713 20.2394 22.6485 20.3887 22.4594 20.5723C22.2703 20.3887 22.0474 20.2394 21.8017 20.1314C21.5094 20.0031 21.1914 19.9363 20.8697 19.9355H20.8683C20.4755 19.9384 20.0899 20.0383 19.7499 20.2261C19.4102 20.4135 19.1275 20.6824 18.9308 21.0065C18.7047 21.3674 18.5811 21.7781 18.5727 22.1986C18.5643 22.619 18.6715 23.034 18.8831 23.4028C19.3816 24.2998 20.0953 25.0734 20.9664 25.6622Z" stroke="#213A52" stroke-width="0.278261"/>
<path d="M20.0259 30.4964C19.9099 30.6735 19.845 30.8751 19.8373 31.0818C19.8295 31.2885 19.8788 31.494 19.9809 31.6782C20.3852 32.405 20.9622 33.0347 21.6677 33.5177C21.9097 33.6825 22.1662 33.8276 22.4344 33.9515C22.7025 33.8276 22.959 33.6825 23.201 33.5177C23.9066 33.0347 24.4837 32.4049 24.8879 31.678L24.8902 31.6738C24.9992 31.4932 25.0563 31.2895 25.0563 31.0828C25.0563 30.8762 24.9993 30.6726 24.8904 30.4919L24.8891 30.4898C24.8075 30.3491 24.6871 30.2304 24.5392 30.1468C24.3919 30.0636 24.2232 30.0185 24.0505 30.0167C23.8555 30.0217 23.6667 30.0793 23.5066 30.182C23.3458 30.285 23.2212 30.4288 23.1463 30.5951L23.1447 30.5986L23.0397 30.8155L20.0259 30.4964ZM20.0259 30.4964L20.0297 30.4898L20.0259 30.4964ZM20.0259 30.4964L20.0297 30.4898L20.0259 30.4964ZM20.0297 30.4898C20.1112 30.3491 20.2317 30.2304 20.3796 30.1468C20.5269 30.0636 20.6956 30.0185 20.8683 30.0167C21.0633 30.0217 21.252 30.0793 21.4122 30.182C21.5729 30.285 21.6976 30.4288 21.7725 30.5951M20.0297 30.4898L21.7725 30.5951L20.0297 30.4898ZM21.7725 30.5951L21.7741 30.5986L21.7725 30.5951ZM21.7725 30.5951L21.7741 30.5986L21.7725 30.5951ZM21.7741 30.5986L21.8791 30.8155L21.7741 30.5986ZM21.7741 30.5986L21.8791 30.8155L21.7741 30.5986ZM21.8791 30.8155C21.9309 30.9228 22.0138 31.0127 22.1167 31.0751C22.2195 31.1375 22.3384 31.1703 22.4594 31.1703C22.5804 31.1703 22.6993 31.1375 22.8021 31.0751C22.9049 31.0127 22.9878 30.9228 23.0397 30.8155H21.8791ZM20.9664 34.5215L20.9679 34.5225C21.3601 34.7804 21.7819 34.9955 22.225 35.1638C22.3753 35.2202 22.543 35.2204 22.6933 35.1639L22.6939 35.1637C23.1379 34.9945 23.5609 34.7796 23.9553 34.5229L23.9577 34.5213C24.8259 33.931 25.5375 33.1578 26.0356 32.2622C26.2473 31.8934 26.3545 31.4785 26.3461 31.058C26.3377 30.6375 26.214 30.2269 25.9879 29.8659C25.7913 29.5418 25.5086 29.273 25.1689 29.0854C24.8289 28.8977 24.4433 28.7978 24.0505 28.795L24.0491 28.7949C23.7273 28.7958 23.4093 28.8625 23.1171 28.9908C22.8713 29.0987 22.6485 29.2482 22.4594 29.4316C22.2703 29.2482 22.0474 29.0987 21.8017 28.9908C21.5094 28.8625 21.1914 28.7958 20.8697 28.7949L20.8683 28.795C20.4755 28.7978 20.0899 28.8977 19.7499 29.0854C19.4102 29.273 19.1275 29.5418 18.9308 29.8659C18.7047 30.2268 18.5811 30.6375 18.5727 31.058C18.5643 31.4785 18.6715 31.8934 18.8831 32.2622C19.3816 33.1592 20.0953 33.9327 20.9664 34.5215Z" fill="#213A52"/>
<path d="M20.0259 30.4964C19.9099 30.6735 19.845 30.8751 19.8373 31.0818C19.8295 31.2885 19.8788 31.494 19.9809 31.6782C20.3852 32.405 20.9622 33.0347 21.6677 33.5177C21.9097 33.6825 22.1662 33.8276 22.4344 33.9515C22.7025 33.8276 22.959 33.6825 23.201 33.5177C23.9066 33.0347 24.4837 32.4049 24.8879 31.678L24.8902 31.6738C24.9992 31.4932 25.0563 31.2895 25.0563 31.0828C25.0563 30.8762 24.9993 30.6726 24.8904 30.4919L24.8891 30.4898C24.8075 30.3491 24.6871 30.2304 24.5392 30.1468C24.3919 30.0636 24.2232 30.0185 24.0505 30.0167C23.8555 30.0217 23.6667 30.0793 23.5066 30.182C23.3458 30.285 23.2212 30.4288 23.1463 30.5951L23.1447 30.5986L23.0397 30.8155M20.0259 30.4964L23.0397 30.8155M20.0259 30.4964L20.0297 30.4898M23.0397 30.8155C22.9878 30.9228 22.9049 31.0127 22.8021 31.0751C22.6993 31.1375 22.5804 31.1703 22.4594 31.1703C22.3384 31.1703 22.2195 31.1375 22.1167 31.0751C22.0138 31.0127 21.9309 30.9228 21.8791 30.8155M23.0397 30.8155H21.8791M20.0297 30.4898C20.1112 30.3491 20.2317 30.2304 20.3796 30.1468C20.5269 30.0636 20.6956 30.0185 20.8683 30.0167C21.0633 30.0217 21.252 30.0793 21.4122 30.182C21.5729 30.285 21.6976 30.4288 21.7725 30.5951M20.0297 30.4898L21.7725 30.5951M21.7725 30.5951L21.7741 30.5986L21.8791 30.8155M20.9664 34.5215L20.9679 34.5225C21.3601 34.7804 21.7819 34.9955 22.225 35.1638C22.3753 35.2202 22.543 35.2204 22.6933 35.1639L22.6939 35.1637C23.1379 34.9945 23.5609 34.7796 23.9553 34.5229L23.9577 34.5213C24.8259 33.931 25.5375 33.1578 26.0356 32.2622C26.2473 31.8934 26.3545 31.4785 26.3461 31.058C26.3377 30.6375 26.214 30.2269 25.9879 29.8659C25.7913 29.5418 25.5086 29.273 25.1689 29.0854C24.8289 28.8977 24.4433 28.7978 24.0505 28.795L24.0491 28.7949C23.7273 28.7958 23.4093 28.8625 23.1171 28.9908C22.8713 29.0987 22.6485 29.2482 22.4594 29.4316C22.2703 29.2482 22.0474 29.0987 21.8017 28.9908C21.5094 28.8625 21.1914 28.7958 20.8697 28.7949L20.8683 28.795C20.4755 28.7978 20.0899 28.8977 19.7499 29.0854C19.4102 29.273 19.1275 29.5418 18.9308 29.8659C18.7047 30.2268 18.5811 30.6375 18.5727 31.058C18.5643 31.4785 18.6715 31.8934 18.8831 32.2622C19.3816 33.1592 20.0953 33.9327 20.9664 34.5215Z" stroke="#213A52" stroke-width="0.278261"/>
<path d="M20.0259 39.3538C19.9099 39.5309 19.845 39.7326 19.8373 39.9393C19.8295 40.146 19.8788 40.3514 19.9809 40.5356C20.3852 41.2623 20.9622 41.892 21.6677 42.375C21.9097 42.5399 22.1662 42.685 22.4344 42.8089C22.7025 42.685 22.959 42.5399 23.201 42.3751C23.9066 41.892 24.4837 41.2623 24.8879 40.5355L24.8902 40.5311C24.9992 40.3505 25.0563 40.147 25.0563 39.9403C25.0563 39.7336 24.9993 39.53 24.8904 39.3493L24.8891 39.3472C24.8075 39.2064 24.6871 39.0878 24.5392 39.0042C24.3919 38.921 24.2232 38.8759 24.0505 38.8741C23.8555 38.879 23.6667 38.9367 23.5066 39.0394C23.3458 39.1424 23.2212 39.2862 23.1463 39.4525L23.1447 39.456L23.0397 39.6729L20.0259 39.3538ZM20.0259 39.3538L20.0297 39.3472L20.0259 39.3538ZM20.0259 39.3538L20.0297 39.3472L20.0259 39.3538ZM20.0297 39.3472C20.1112 39.2064 20.2317 39.0878 20.3796 39.0042C20.5269 38.921 20.6956 38.8759 20.8683 38.8741C21.0633 38.879 21.252 38.9367 21.4122 39.0394C21.5729 39.1424 21.6976 39.2862 21.7725 39.4525M20.0297 39.3472L21.7725 39.4525L20.0297 39.3472ZM21.7725 39.4525L21.7741 39.456L21.7725 39.4525ZM21.7725 39.4525L21.7741 39.456L21.7725 39.4525ZM21.7741 39.456L21.8791 39.6729L21.7741 39.456ZM21.7741 39.456L21.8791 39.6729L21.7741 39.456ZM21.8791 39.6729C21.9309 39.7803 22.0138 39.87 22.1167 39.9325C22.2195 39.9949 22.3384 40.0277 22.4594 40.0277C22.5804 40.0277 22.6993 39.9949 22.8021 39.9325C22.9049 39.8701 22.9878 39.7802 23.0397 39.6729H21.8791ZM20.9664 43.3789L20.9679 43.38C21.3601 43.6378 21.7819 43.8528 22.225 44.0212C22.3753 44.0777 22.543 44.0778 22.6933 44.0213L22.6939 44.0211C23.1379 43.8519 23.5609 43.637 23.9553 43.3803L23.9577 43.3787C24.8259 42.7884 25.5375 42.0151 26.0356 41.1196C26.2473 40.7508 26.3545 40.3358 26.3461 39.9154C26.3377 39.4949 26.214 39.0842 25.9879 38.7233C25.7913 38.3992 25.5086 38.1303 25.1689 37.9428C24.8289 37.7551 24.4433 37.6551 24.0505 37.6523H24.0491C23.7273 37.6531 23.4093 37.7199 23.1171 37.8482C22.8713 37.9561 22.6485 38.1055 22.4594 38.2891C22.2703 38.1055 22.0474 37.9561 21.8017 37.8482C21.5094 37.7199 21.1914 37.6531 20.8697 37.6523H20.8683C20.4755 37.6551 20.0899 37.7551 19.7499 37.9428C19.4102 38.1303 19.1275 38.3992 18.9308 38.7233C18.7047 39.0842 18.5811 39.4949 18.5727 39.9154C18.5643 40.3358 18.6715 40.7508 18.8831 41.1196C19.3816 42.0166 20.0953 42.7901 20.9664 43.3789Z" fill="#213A52"/>
<path d="M20.0259 39.3538C19.9099 39.5309 19.845 39.7326 19.8373 39.9393C19.8295 40.146 19.8788 40.3514 19.9809 40.5356C20.3852 41.2623 20.9622 41.892 21.6677 42.375C21.9097 42.5399 22.1662 42.685 22.4344 42.8089C22.7025 42.685 22.959 42.5399 23.201 42.3751C23.9066 41.892 24.4837 41.2623 24.8879 40.5355L24.8902 40.5311C24.9992 40.3505 25.0563 40.147 25.0563 39.9403C25.0563 39.7336 24.9993 39.53 24.8904 39.3493L24.8891 39.3472C24.8075 39.2064 24.6871 39.0878 24.5392 39.0042C24.3919 38.921 24.2232 38.8759 24.0505 38.8741C23.8555 38.879 23.6667 38.9367 23.5066 39.0394C23.3458 39.1424 23.2212 39.2862 23.1463 39.4525L23.1447 39.456L23.0397 39.6729M20.0259 39.3538L23.0397 39.6729M20.0259 39.3538L20.0297 39.3472M23.0397 39.6729C22.9878 39.7802 22.9049 39.8701 22.8021 39.9325C22.6993 39.9949 22.5804 40.0277 22.4594 40.0277C22.3384 40.0277 22.2195 39.9949 22.1167 39.9325C22.0138 39.87 21.9309 39.7803 21.8791 39.6729M23.0397 39.6729H21.8791M20.0297 39.3472C20.1112 39.2064 20.2317 39.0878 20.3796 39.0042C20.5269 38.921 20.6956 38.8759 20.8683 38.8741C21.0633 38.879 21.252 38.9367 21.4122 39.0394C21.5729 39.1424 21.6976 39.2862 21.7725 39.4525M20.0297 39.3472L21.7725 39.4525M21.7725 39.4525L21.7741 39.456L21.8791 39.6729M20.9664 43.3789L20.9679 43.38C21.3601 43.6378 21.7819 43.8528 22.225 44.0212C22.3753 44.0777 22.543 44.0778 22.6933 44.0213L22.6939 44.0211C23.1379 43.8519 23.5609 43.637 23.9553 43.3803L23.9577 43.3787C24.8259 42.7884 25.5375 42.0151 26.0356 41.1196C26.2473 40.7508 26.3545 40.3358 26.3461 39.9154C26.3377 39.4949 26.214 39.0842 25.9879 38.7233C25.7913 38.3992 25.5086 38.1303 25.1689 37.9428C24.8289 37.7551 24.4433 37.6551 24.0505 37.6523H24.0491C23.7273 37.6531 23.4093 37.7199 23.1171 37.8482C22.8713 37.9561 22.6485 38.1055 22.4594 38.2891C22.2703 38.1055 22.0474 37.9561 21.8017 37.8482C21.5094 37.7199 21.1914 37.6531 20.8697 37.6523H20.8683C20.4755 37.6551 20.0899 37.7551 19.7499 37.9428C19.4102 38.1303 19.1275 38.3992 18.9308 38.7233C18.7047 39.0842 18.5811 39.4949 18.5727 39.9154C18.5643 40.3358 18.6715 40.7508 18.8831 41.1196C19.3816 42.0166 20.0953 42.7901 20.9664 43.3789Z" stroke="#213A52" stroke-width="0.278261"/>
<path d="M30.6084 23.6523H43.1301" stroke="#213A52" stroke-width="2.22609" stroke-linecap="round" stroke-linejoin="round"/>
<path d="M30.6084 32H43.1301" stroke="#213A52" stroke-width="2.22609" stroke-linecap="round" stroke-linejoin="round"/>
<path d="M30.6084 40.3477H43.1301" stroke="#213A52" stroke-width="2.22609" stroke-linecap="round" stroke-linejoin="round"/>
</svg>
