<svg width="278" height="278" viewBox="0 0 278 278" fill="none" xmlns="http://www.w3.org/2000/svg">
<circle cx="138.042" cy="139" r="73.8367" stroke="#E1E5FF" stroke-width="2"/>
<path d="M138.042 65.1631C157.14 65.1631 175.496 72.5632 189.254 85.8095C203.012 99.0559 211.102 117.118 211.826 136.202C212.549 155.287 205.85 173.91 193.134 188.16C180.419 202.41 162.676 211.179 143.633 212.625" stroke="#56C7CE" stroke-width="10" stroke-linecap="round"/>
<circle cx="138.042" cy="139" r="103.007" stroke="#E1E5FF" stroke-width="2"/>
<path d="M138.042 35.9932C155.399 35.9932 172.474 40.3791 187.683 48.7437C202.891 57.1082 215.739 69.1802 225.034 83.8386C234.329 98.4969 239.769 115.266 240.849 132.59C241.929 149.913 238.615 167.228 231.213 182.928C223.811 198.627 212.562 212.202 198.51 222.391C184.459 232.58 168.06 239.053 150.838 241.209C133.616 243.365 116.128 241.134 99.9979 234.724C83.8682 228.313 69.6199 217.931 58.5762 204.541" stroke="#5856CE" stroke-width="10" stroke-linecap="round"/>
<circle cx="138.042" cy="139" r="134" stroke="#E1E5FF" stroke-width="2"/>
<path d="M138.042 5C163.862 5 189.133 12.4598 210.814 26.482C232.495 40.5042 249.663 60.4917 260.253 84.0403C270.843 107.589 274.404 133.696 270.508 159.22C266.612 184.745 255.424 208.6 238.291 227.917C221.158 247.234 198.808 261.189 173.931 268.104C149.054 275.02 122.709 274.601 98.0649 266.898C73.4205 259.195 51.5265 244.535 35.0163 224.683C18.5061 204.832 8.08288 180.632 5.00049 154.997" stroke="#FF285C" stroke-width="10" stroke-linecap="round"/>
</svg>
