<svg width="15" height="14" viewBox="0 0 15 14" fill="none" xmlns="http://www.w3.org/2000/svg">
<path d="M0.76841 3.80249V10.4484C0.76841 11.7461 1.6905 12.2789 2.81067 11.6369L4.4158 10.7216C4.76414 10.5235 5.34472 10.503 5.70672 10.6874L9.29264 12.4838C9.65464 12.6614 10.2352 12.6477 10.5836 12.4497L13.5411 10.7557C13.9168 10.5372 14.2309 10.0044 14.2309 9.56727V2.92138C14.2309 1.62362 13.3089 1.09086 12.1887 1.73291L10.5836 2.64817C10.2352 2.84625 9.65464 2.86674 9.29264 2.68232L5.70672 0.892779C5.34472 0.715191 4.76414 0.728852 4.4158 0.926931L1.45827 2.62085C1.07577 2.83942 0.76841 3.37218 0.76841 3.80249Z" stroke="white" stroke-width="1.5" stroke-linecap="round" stroke-linejoin="round"/>
<path d="M5.05069 1.22065V10.1001" stroke="white" stroke-width="1.5" stroke-linecap="round" stroke-linejoin="round"/>
<path d="M9.94731 3.00961V12.1486" stroke="white" stroke-width="1.5" stroke-linecap="round" stroke-linejoin="round"/>
</svg>
