<svg width="20" height="18" viewBox="0 0 20 18" fill="none" xmlns="http://www.w3.org/2000/svg">
<path d="M20 7.59629V1.79238C20 0.512109 19.36 0 17.77 0H13.73C12.14 0 11.5 0.512109 11.5 1.79238V7.59629C11.5 8.87656 12.14 9.38867 13.73 9.38867H17.77C19.36 9.38867 20 8.87656 20 7.59629Z" fill="#4580F0"/>
<path d="M20 15.2779V13.7416C20 12.4613 19.36 11.9492 17.77 11.9492H13.73C12.14 11.9492 11.5 12.4613 11.5 13.7416V15.2779C11.5 16.5582 12.14 17.0703 13.73 17.0703H17.77C19.36 17.0703 20 16.5582 20 15.2779Z" fill="#4580F0"/>
<path d="M8.5 9.47402V15.2779C8.5 16.5582 7.86 17.0703 6.27 17.0703H2.23C0.64 17.0703 0 16.5582 0 15.2779V9.47402C0 8.19375 0.64 7.68164 2.23 7.68164H6.27C7.86 7.68164 8.5 8.19375 8.5 9.47402Z" fill="#4580F0"/>
<path d="M8.5 1.79238V3.32871C8.5 4.60898 7.86 5.12109 6.27 5.12109H2.23C0.64 5.12109 0 4.60898 0 3.32871V1.79238C0 0.512109 0.64 0 2.23 0H6.27C7.86 0 8.5 0.512109 8.5 1.79238Z" fill="#4580F0"/>
</svg>
