<svg width="30" height="30" viewBox="0 0 30 30" fill="none" xmlns="http://www.w3.org/2000/svg">
<g clip-path="url(#clip0_52_73334)">
<path d="M26.0593 23.3452C26.9804 19.626 22.186 15.2387 15.3506 13.5459C8.51534 11.853 2.22753 13.4958 1.30645 17.215C0.38536 20.9342 5.17979 25.3215 12.0151 27.0143C18.8504 28.7071 25.1382 27.0644 26.0593 23.3452Z" fill="#3D210F"/>
<path d="M26.0997 23.2002C26.9212 19.883 22.0461 15.8217 15.2108 14.1289C8.37544 12.4361 2.16836 13.7528 1.34685 17.07C0.52534 20.3871 5.40049 24.4485 12.2358 26.1413C19.0711 27.8341 25.2782 26.5173 26.0997 23.2002Z" fill="#80461D"/>
<path d="M25.1589 5.11815C25.5572 3.50984 23.0281 1.49972 19.5099 0.628425C15.9917 -0.242873 12.8168 0.354591 12.4185 1.9629C12.0202 3.57121 14.5493 5.58133 18.0675 6.45263C21.5857 7.32392 24.7606 6.72646 25.1589 5.11815Z" fill="#80461D"/>
<path d="M24.8433 24.0944C25.4058 23.7194 26.1558 23.0632 26.5308 22.0319C26.9996 20.3444 26.2496 18.9382 26.2496 18.9382C25.4996 17.4382 21.1871 15.1882 15.7496 13.5944C10.3121 11.9069 5.43708 11.4382 3.93708 12.2819C3.93708 12.2819 2.53083 13.0319 1.96833 14.7194C1.59333 15.8444 1.96833 16.7819 2.24958 17.3444C2.24958 17.4382 2.34333 17.5319 2.43708 17.6257C2.43708 17.8132 2.53083 17.8132 2.53083 17.8132C3.74958 19.3132 7.78083 21.3757 12.8433 22.8757C17.8121 24.3757 22.3121 24.9382 24.1871 24.3757L24.2808 24.2819C24.5621 24.2819 24.6558 24.1882 24.8433 24.0944ZM24.5621 12.4694C24.9371 12.1882 25.4996 11.7194 25.6871 10.9694C26.0621 9.75065 25.4996 8.81315 25.4996 8.81315C24.9371 7.68815 22.0308 6.18815 18.2808 5.06315C14.5308 3.93815 11.1558 3.56315 10.1246 4.2194C10.1246 4.2194 9.18708 4.7819 8.71833 6.00065C8.43708 6.75065 8.71833 7.50065 8.90583 7.87565C8.90583 7.9694 8.99958 8.06315 8.99958 8.06315L9.09333 8.1569C9.93708 9.18815 12.7496 10.6882 16.2183 11.7194C19.6871 12.7507 22.7808 13.1257 24.0933 12.6569H24.1871C24.3746 12.5632 24.4683 12.4694 24.5621 12.4694Z" fill="#80461D"/>
<path d="M24.8436 18.5625C25.3123 18.2812 25.9686 17.625 26.3436 16.6875C26.8123 15.1875 26.1561 13.9688 26.1561 13.9688C25.4998 12.6562 21.8436 10.6875 17.1561 9.1875C12.4686 7.78125 8.34359 7.40625 6.93734 8.15625C6.93734 8.15625 5.71859 8.8125 5.24984 10.3125C4.96859 11.25 5.24984 12.1875 5.43734 12.75C5.43734 12.8438 5.53109 12.9375 5.62484 13.0312C5.53109 13.125 5.62484 13.2188 5.62484 13.2188C6.65609 14.5312 10.1248 16.3125 14.4373 17.625C18.7498 18.9375 22.6873 19.4062 24.2811 18.8438L24.3748 18.75C24.5623 18.75 24.7498 18.6562 24.8436 18.5625ZM25.3123 6.75C26.9061 4.03125 23.1561 0 23.1561 0C20.9061 2.53125 14.9998 -0.28125 12.8436 1.5C12.2811 1.96875 11.9998 2.4375 11.9998 2.90625C11.8123 3.46875 11.9998 3.9375 12.1873 4.21875V4.3125C12.1873 4.40625 12.2811 4.40625 12.2811 4.40625C12.9373 5.15625 14.9998 6.1875 17.6248 6.9375C20.1561 7.78125 22.4998 8.0625 23.4373 7.78125H23.5311C23.6248 7.78125 24.0936 7.96875 24.1873 7.96875C24.4686 7.78125 24.8436 7.40625 25.3123 6.75Z" fill="#80461D"/>
<path d="M25.7553 22.3058C26.5021 19.2902 21.8108 15.5339 15.2771 13.9158C8.74334 12.2976 2.84126 13.4305 2.09444 16.4461C1.34761 19.4616 6.03884 23.218 12.5726 24.8361C19.1063 26.4543 25.0084 25.3214 25.7553 22.3058Z" fill="#965123"/>
<path d="M23.3429 24.7507C23.8116 24.3757 24.5616 23.7194 24.8429 22.6882C25.3116 21.0007 24.6554 19.5944 24.6554 19.5944C23.9991 18.0944 20.2491 15.9382 15.3741 14.4382C10.4991 12.9382 6.1866 12.5632 4.8741 13.4069C4.8741 13.4069 3.5616 14.1569 3.09285 15.8444C2.71785 16.9694 2.9991 18.0007 3.28035 18.5632C3.28035 18.6569 3.3741 18.7507 3.46785 18.8444C3.5616 18.9382 3.5616 19.0319 3.5616 19.0319C4.59285 20.5319 8.15535 22.5007 12.6554 23.9069C17.1554 25.3132 21.1866 25.6882 22.7804 25.1257L22.8741 25.0319C23.0616 24.9382 23.2491 24.8444 23.3429 24.7507Z" fill="#BF763B"/>
<path d="M18.2812 16.5C18.2812 16.5 23.9062 19.3125 22.5 22.3125C20.4375 26.5312 9.5625 23.0625 4.78125 20.4375C4.78125 20.4375 9 23.7188 16.9688 25.0313C16.9688 25.0313 21 25.7812 22.6875 25.2188C24.375 24.6562 25.0312 23.1562 24.9375 21.9375C24.8438 20.8125 25.5 19.5 18.2812 16.5Z" fill="#965123"/>
<path d="M23.6248 17.7186C23.9998 17.4374 24.6561 16.9686 24.8436 16.2186C25.2186 14.9999 24.6561 13.9686 24.6561 13.9686C24.0936 12.8436 20.9061 11.2499 16.7811 10.0311C12.7498 8.81236 9.18734 8.43736 8.06234 8.99986C8.06234 8.99986 7.03109 9.46861 6.65609 10.6874C6.37484 11.4374 6.65609 12.1874 6.84359 12.6561C6.84359 12.7499 6.93734 12.8436 6.93734 12.9374L7.03109 13.0311C7.96859 14.1561 10.9686 15.6561 14.7186 16.7811C18.4686 17.9061 21.8436 18.2811 23.1561 17.9061H23.2498C23.4373 17.8124 23.5311 17.7186 23.6248 17.7186Z" fill="#BF763B"/>
<path d="M19.4062 10.875C19.4062 10.875 22.4062 12.5625 21.375 15C20.3437 17.4375 12.1875 16.0312 8.25 13.9687C8.25 13.9687 11.8125 16.5937 18.4688 17.7187C18.4688 17.7187 21.8437 18.375 23.25 17.9062C24.6562 17.5312 25.2188 16.2187 25.0312 15.2812C24.8438 14.3437 25.4062 13.3125 19.4062 10.875Z" fill="#965123"/>
<path d="M23.5993 11.2639C23.9976 9.6556 21.1425 7.56476 17.2223 6.59388C13.302 5.62301 9.80115 6.13975 9.40284 7.74806C9.00453 9.35636 11.8596 11.4472 15.7799 12.4181C19.7001 13.389 23.201 12.8722 23.5993 11.2639Z" fill="#965123"/>
<path d="M23.6245 11.7194C23.9058 11.5319 24.3745 11.1569 24.562 10.5944C24.8433 9.65688 24.3745 8.81313 24.3745 8.81313C23.9058 7.96938 21.3745 6.65688 18.0933 5.62563C14.812 4.68813 11.9995 4.31313 11.062 4.78188C11.062 4.78188 10.2183 5.15688 9.93704 6.18813C9.74954 6.84438 9.93704 7.40688 10.1245 7.68813C10.1245 7.78188 10.2183 7.78188 10.2183 7.87563C10.312 7.96938 10.312 8.06313 10.312 8.06313C11.062 8.90688 13.4995 10.1256 16.4995 11.0631C19.4995 12.0006 22.1245 12.2819 23.2495 12.0006H23.3433L23.6245 11.7194Z" fill="#BF763B"/>
<path d="M20.9062 6.46875C20.9062 6.46875 22.9688 7.6875 22.2188 9.65625C21.375 11.625 15.4688 11.25 12.75 9.65625C12.75 9.65625 15.375 11.1562 20.0625 11.9062C20.0625 11.9062 22.4062 12.375 23.4375 12C24.4688 11.625 24.8437 10.5938 24.75 9.84375C24.6562 9.09375 25.125 8.25 20.9062 6.46875Z" fill="#965123"/>
<path d="M24.0947 6.09419C23.7197 7.68794 21.2822 8.25044 17.7197 7.40669C14.1572 6.56294 11.7197 4.59419 12.0947 3.00044C12.4697 1.40669 15.5634 1.21919 19.0322 2.06294C22.5009 2.90669 24.5634 4.50044 24.0947 6.09419Z" fill="#965123"/>
<path d="M20.7188 2.8125C20.7188 2.8125 22.5 3.75 21.9375 4.96875C21.375 6.1875 16.6875 5.34375 14.4375 4.125C14.4375 4.125 16.5 5.53125 20.3438 6.28125C20.3438 6.28125 22.3125 6.65625 23.0625 6.46875C23.9063 6.28125 24.1875 5.625 24.0938 5.15625C23.9063 4.6875 24.1875 4.125 20.7188 2.8125Z" fill="#965123"/>
<path d="M24.2814 6C25.5002 3.9375 22.8752 1.03125 22.8752 1.03125C21.0002 2.90625 15.1877 0.46875 13.4064 1.6875C12.9377 2.0625 12.7502 2.4375 12.7502 2.71875C12.6564 3.09375 12.8439 3.46875 12.9377 3.75L13.1252 3.9375C13.6877 4.5 15.5627 5.34375 17.9064 6.09375C20.2502 6.75 22.2189 7.125 23.0627 6.9375H23.1564C23.2502 6.9375 23.3439 6.84375 23.3439 6.84375C23.5314 6.75 23.9064 6.46875 24.2814 6Z" fill="#BF763B"/>
<path d="M13.032 3.84375C13.032 3.84375 17.3445 6 19.782 5.625C22.2195 5.25 24.3758 3.5625 23.532 1.59375C23.532 1.59375 25.5945 4.21875 24.5633 5.8125C23.532 7.40625 22.5945 7.03125 21.3758 6.84375C19.9695 6.75 14.2508 5.25 13.032 3.84375ZM19.6883 19.9687C19.3133 20.25 18.8445 20.25 18.7508 20.0625C18.5633 19.875 18.7508 19.5 19.1258 19.2187C19.5008 18.9375 19.8758 18.9375 20.0633 19.125C20.2508 19.3125 20.0633 19.6875 19.6883 19.9687ZM14.8133 3.375C14.4383 3.65625 13.9695 3.5625 13.6883 3.1875C13.407 2.90625 13.5008 2.4375 13.8758 2.15625C14.2508 1.875 14.7195 1.96875 15.0008 2.34375C15.282 2.71875 15.1883 3.1875 14.8133 3.375ZM16.9695 2.625C16.5945 2.8125 16.1258 2.71875 16.032 2.53125C15.9383 2.34375 16.2195 2.0625 16.5945 1.875C16.9695 1.6875 17.4383 1.78125 17.532 1.96875C17.6258 2.15625 17.4383 2.53125 16.9695 2.625ZM12.8445 21.6562C12.3758 21.6562 12.0008 21.375 12.0008 21.0937C12.0008 20.8125 12.3758 20.625 12.8445 20.7187C13.3133 20.7187 13.6883 21 13.6883 21.2812C13.6883 21.5625 13.3133 21.75 12.8445 21.6562ZM5.15704 15.5625C4.68829 15.5625 4.31329 15.0937 4.40704 14.7187C4.40704 14.25 4.87579 13.9687 5.25079 13.9687C5.71954 13.9687 6.09454 14.4375 6.00079 14.8125C6.00079 15.2812 5.62579 15.5625 5.15704 15.5625ZM17.0633 20.9062C16.5945 20.9062 16.2195 20.7187 16.2195 20.4375C16.2195 20.1562 16.5945 19.9687 17.0633 19.9687C17.532 19.9687 17.907 20.1562 17.907 20.4375C17.8133 20.7187 17.532 20.9062 17.0633 20.9062Z" fill="#965123"/>
<path d="M22.8756 23.25C22.4068 23.4375 22.0318 23.3438 21.9381 23.0625C21.8443 22.7813 22.1256 22.5 22.5006 22.4062C22.9693 22.2188 23.3443 22.3125 23.4381 22.5938C23.6256 22.7813 23.3443 23.1562 22.8756 23.25ZM24.4693 20.9062C24.3756 21.2812 24.0943 21.5625 23.8131 21.5625C23.5318 21.4688 23.4381 21.0938 23.5318 20.7188C23.6256 20.3438 23.9068 20.0625 24.1881 20.0625C24.3756 20.1562 24.5631 20.5312 24.4693 20.9062Z" fill="#80461D"/>
<path d="M22.9688 12.6563C21.1875 12.2813 19.0312 12.375 16.7812 12.75C16.5 12.8438 16.2188 12.8438 16.0313 12.8438H15C14.7188 12.75 14.4375 12.6562 13.9688 12.5625C13.7812 12.4687 13.5 12.375 13.2188 12.1875C11.1563 11.0625 9.09375 10.4062 7.21875 10.2187C5.34375 10.0312 1.78125 10.0312 1.78125 10.0312L1.59375 12.1875C1.59375 12.1875 2.34375 12.375 2.34375 12.8438C2.34375 13.3125 2.90625 17.9063 2.90625 17.9063C2.90625 17.9063 3.1875 19.5 4.40625 20.1562C5.71875 20.7188 8.34375 21.6562 10.125 20.625C11.9062 19.5938 13.4062 15.5625 13.7812 15.0938C14.0625 14.625 14.1562 14.4375 14.8125 14.5312C15.375 14.625 15.4688 14.9062 15.6563 15.375C15.8438 15.9375 16.4062 20.25 17.9062 21.8437C19.4062 23.4375 22.2188 23.3438 23.5312 23.1563C24.9375 22.9688 25.5 21.4688 25.5 21.4688L27.1875 16.7812C27.2812 16.4062 28.0312 16.4062 28.0312 16.4062C28.125 15.9375 28.3125 14.0625 28.3125 14.0625L22.9688 12.6563Z" fill="#020202"/>
<path opacity="0.48" d="M11.8125 12.5621C11.5313 12.2809 11.0625 12.0934 10.4063 11.8121C8.25 11.0621 6.75 10.7809 5.15625 10.9684C3.5625 11.1559 3.46875 13.6871 3.46875 13.6871L3.75 17.4371C3.9375 18.0934 4.125 19.1246 5.53125 19.6871C5.90625 17.5309 7.40625 13.4059 11.8125 12.5621Z" fill="#9DB0D6"/>
<path opacity="0.48" d="M11.8125 12.5625C7.40625 13.4062 6 17.4375 5.53125 19.6875C5.8125 19.7813 6.1875 19.875 6.5625 19.9687C6.5625 19.9687 9.5625 20.7188 10.7812 19.125C12 17.4375 12.5625 14.4375 12.5625 14.0625C12.4687 13.7813 12.5625 13.2188 11.8125 12.5625ZM25.125 14.25C20.625 15 19.125 19.2188 18.6562 21.4688C19.875 22.2188 21.4688 22.3125 21.4688 22.3125C23.8125 22.6875 24.375 21.4688 24.75 20.7188C25.125 19.9688 25.875 17.25 25.875 17.25C25.875 17.25 26.25 15.0938 25.125 14.25Z" fill="#6276A5"/>
<path opacity="0.48" d="M25.1249 14.2512C25.0312 14.1574 24.9374 14.1574 24.8437 14.0637C23.3437 13.4074 21.8437 13.2199 19.5937 13.3137C17.3437 13.3137 17.1562 14.3449 16.9687 14.7199C16.7812 15.0949 16.6874 18.1887 17.5312 20.1574C17.7187 20.7199 18.1874 21.0949 18.6562 21.3761C19.1249 19.2199 20.5312 15.0012 25.1249 14.2512Z" fill="#9DB0D6"/>
<path opacity="0.27" d="M11.0556 14.5837C11.2546 13.7262 9.98494 12.699 8.21969 12.2893C6.45445 11.8796 4.8621 12.2425 4.66308 13.0999C4.46407 13.9573 5.73375 14.9845 7.499 15.3942C9.26425 15.804 10.8566 15.4411 11.0556 14.5837Z" fill="#9DB0D6"/>
<path opacity="0.27" d="M24.7144 16.0726C24.7955 15.1961 23.3985 14.3503 21.5941 14.1833C19.7897 14.0163 18.2612 14.5914 18.1801 15.4678C18.099 16.3442 19.496 17.1901 21.3003 17.3571C23.1047 17.5241 24.6332 16.949 24.7144 16.0726Z" fill="#9DB0D6"/>
<path d="M17.25 27.2813L16.875 27.75L18.6562 28.9688L28.5 19.2188L26.9063 17.1562L17.25 27.2813Z" fill="#9A4C18"/>
<path d="M28.6882 22.0316C28.4069 25.8753 24.7507 29.2503 20.7194 29.1566C16.7819 29.1566 14.2507 25.8753 15.0007 22.0316C15.7507 18.4691 19.1257 15.7503 22.6882 15.6566C26.2507 15.5628 28.9694 18.3753 28.6882 22.0316Z" fill="#9A4C18"/>
<path d="M29.6258 23.1567C29.3446 26.813 25.7821 30.0005 21.8446 30.0005C18.0008 30.0005 15.4696 26.813 16.2196 23.2505C16.8758 19.8755 20.2508 17.2505 23.7196 17.1567C27.2821 17.063 30.0008 19.688 29.6258 23.1567Z" fill="#9A4C18"/>
<path d="M18.375 27.5625L20.0625 28.4062L28.125 20.0625L26.7188 18.2812L18.375 27.5625Z" fill="#F49937"/>
<path d="M28.8757 23.2508C28.5944 26.4383 25.6882 29.0633 22.4069 29.0633C19.2194 29.0633 17.0632 26.3445 17.7194 23.2508C18.2819 20.3445 21.0944 18.0008 24.0007 18.0008C27.0007 17.907 29.1569 20.2508 28.8757 23.2508Z" fill="#F49937"/>
<path d="M27.8442 21.9375C27.4692 25.3125 24.3754 28.2188 20.9067 28.125C17.4379 28.125 15.1879 25.2188 15.8442 21.9375C16.4067 18.8438 19.4067 16.3125 22.5942 16.3125C25.7817 16.3125 28.1254 18.75 27.8442 21.9375Z" fill="#FFEDC0"/>
<path d="M27.3757 22.2195C27.0944 25.407 24.1882 28.032 20.9069 28.032C17.7194 28.032 15.5632 25.3133 16.2194 22.2195C16.7819 19.3133 19.5944 16.9695 22.5007 16.9695C25.5007 16.8758 27.6569 19.2195 27.3757 22.2195Z" fill="#FFD766"/>
<path d="M26.1565 22.2184C25.8752 24.6559 23.6252 26.7184 21.094 26.7184C18.6565 26.7184 16.969 24.6559 17.4377 22.3121C17.8127 19.9684 20.0627 18.1871 22.3127 18.1871C24.6565 18.0934 26.344 19.8746 26.1565 22.2184Z" fill="#FFEDC0"/>
<path d="M26.1565 21.5625C25.8752 24 23.6252 25.9688 21.1877 25.9688C18.7502 25.9688 17.0627 24 17.5315 21.5625C17.9065 19.3125 20.1565 17.4375 22.4065 17.4375C24.7502 17.5312 26.4377 19.3125 26.1565 21.5625Z" fill="#F49937"/>
<path d="M25.4063 22.2188C25.2188 24.2813 23.25 25.9688 21.1875 25.9688C19.125 25.9688 17.7188 24.2813 18.0938 22.2188C18.4688 20.25 20.25 18.75 22.2188 18.6562C24.1875 18.6562 25.6875 20.25 25.4063 22.2188Z" fill="#FFD766"/>
<path d="M22.7813 18.2812L23.3438 20.5312L25.7813 21.1875L23.5313 22.6875L23.3438 25.2187L21.375 23.8125L18.75 24.6562L19.875 22.2188L18.5625 20.3438H21.1875L22.7813 18.2812Z" fill="#F49937"/>
</g>
<defs>
<clipPath id="clip0_52_73334">
<rect width="30" height="30" fill="white"/>
</clipPath>
</defs>
</svg>
