<svg width="136" height="136" viewBox="0 0 136 136" fill="none" xmlns="http://www.w3.org/2000/svg">
<path d="M31.9998 108.6C32.3998 109.2 65.1998 108.6 65.1998 108.6C65.1998 108.6 67.1998 105.6 67.3998 100.4C67.5998 88.1996 66.3998 65.9996 69.3998 59.3996C63.5998 59.1996 35.7998 58.5996 35.7998 58.5996C35.7998 58.5996 31.3998 64.7996 29.1998 73.3996C26.7998 82.9996 29.3998 104.4 31.9998 108.6Z" fill="#26969C"/>
<path d="M74.3998 97.0004C71.3998 104.6 65.3998 108.8 65.3998 108.8C65.3998 108.8 68.1998 102.4 66.9998 95.4004C65.3998 85.6004 64.5998 77.8004 65.3998 72.8004C65.7998 70.2004 69.5998 59.4004 69.5998 59.4004C69.5998 59.4004 74.7998 71.8004 75.3998 76.6004C75.9998 83.2004 76.9998 90.4004 74.3998 97.0004Z" fill="white"/>
<path d="M35.7996 52.5996L35.5996 59.9996H69.3996C69.3996 59.9996 69.7996 53.7996 68.7996 53.3996C67.7996 52.9996 35.7996 52.5996 35.7996 52.5996Z" fill="#26969C"/>
<path d="M36.5297 57.1484L36.5039 59.3482L37.5038 59.3599L37.5296 57.1601L36.5297 57.1484Z" fill="white"/>
<path d="M38.8362 57.207L38.8105 59.4067L39.8104 59.4185L39.8361 57.2187L38.8362 57.207Z" fill="white"/>
<path d="M41.2836 57.3066L41.2578 59.5064L42.2577 59.5181L42.2835 57.3183L41.2836 57.3066Z" fill="white"/>
<path d="M43.5942 57.4668L43.5684 59.6666L44.5683 59.6783L44.5941 57.4785L43.5942 57.4668Z" fill="white"/>
<path d="M45.9965 57.5195L45.9707 59.7193L46.9706 59.731L46.9964 57.5312L45.9965 57.5195Z" fill="white"/>
<path d="M48.1977 57.5723L48.1719 59.7721L49.1719 59.7838L49.1976 57.584L48.1977 57.5723Z" fill="white"/>
<path d="M50.6 57.4297L50.5742 59.6295L51.5741 59.6412L51.5999 57.4414L50.6 57.4297Z" fill="white"/>
<path d="M52.9086 57.4863L52.8828 59.6861L53.8827 59.6978L53.9085 57.498L52.9086 57.4863Z" fill="white"/>
<path d="M55.2504 57.5781L55.2246 59.7778L56.2245 59.7896L56.2503 57.5898L55.2504 57.5781Z" fill="white"/>
<path d="M57.4926 57.5703L57.4668 59.77L58.4667 59.7818L58.4925 57.582L57.4926 57.5703Z" fill="white"/>
<path d="M62.1586 57.6367L62.1328 59.8365L63.1327 59.8482L63.1585 57.6485L62.1586 57.6367Z" fill="white"/>
<path d="M64.559 57.6895L64.5332 59.8892L65.5331 59.901L65.5589 57.7012L64.559 57.6895Z" fill="white"/>
<path d="M67.1293 57.8184L67.1035 60.0182L68.1034 60.0299L68.1292 57.8301L67.1293 57.8184Z" fill="white"/>
<path d="M59.8558 57.6836L59.8301 59.8833L60.83 59.8951L60.8558 57.6953L59.8558 57.6836Z" fill="white"/>
<path d="M77.2007 105C73.2007 105.4 68.0007 105.6 64.8007 105.2C61.8007 104.8 56.2007 102.4 54.6007 101C53.2007 99.5996 54.8007 99.5996 55.2007 99.7996C56.6007 99.9996 59.0007 101 64.4007 100.4C73.6007 99.3996 77.6007 97.9996 79.2007 94.5996" fill="#C7C6B7"/>
<path d="M104.599 75.6004C105.199 76.4004 110.999 81.4004 111.399 89.2004C111.799 99.0004 103.599 107.4 103.599 107.4H78.5993C78.5993 107.4 67.7993 101.6 68.9993 92.2004C69.7993 85.8004 71.9993 81.0004 75.5993 76.0004C77.9993 72.2004 104.599 75.6004 104.599 75.6004Z" fill="#B5B4A3"/>
<path d="M106.6 64.8009C107.4 67.4009 108.8 74.8008 106.2 83.2008C103.6 91.6008 100.6 101.201 100.8 102.001C101 103.001 103.6 105.201 104 106.201C104.4 107.401 104.4 108.401 103.6 109.001C102.8 109.601 94.5999 110.001 93.7999 109.201C93.1999 108.401 94.1999 84.6008 94.1999 84.6008C94.1999 84.6008 93.7999 80.8009 90.7999 80.8009C87.7999 80.8009 87.3999 85.2008 87.3999 85.2008C87.3999 85.2008 87.9999 108.601 86.9999 109.401C85.9999 110.001 78.3999 110.001 77.5999 109.601C76.9999 109.201 76.5999 106.401 77.9999 105.201C79.1999 104.201 80.3999 102.001 80.3999 100.601C80.5999 97.8008 74.9999 86.6008 74.3999 82.6008C73.9999 78.6008 72.3999 73.0008 73.7999 65.6008C74.7999 60.4008 81.7999 48.8008 81.7999 48.8008L99.1999 49.2009C99.3999 49.2009 105.4 61.4009 106.6 64.8009Z" fill="#C7C6B7"/>
<path d="M91.9991 20.2002C83.3991 19.8002 79.9991 24.0002 79.1991 29.8002C78.3991 35.6002 79.5991 38.2002 79.5991 38.2002C79.5991 38.2002 75.7991 45.2002 79.1991 49.0002C82.5991 52.8002 86.7991 53.2002 90.3991 51.0002C94.1991 53.0002 99.7991 52.8002 102.399 49.2002C104.999 45.8002 101.999 37.6002 101.999 37.6002C101.999 37.6002 107.599 21.0002 91.9991 20.2002Z" fill="#C7C6B7"/>
<path d="M95.3991 20.9992C95.1991 22.1992 98.5991 24.1992 100.999 27.9992C102.999 31.1992 103.199 37.5992 104.399 37.7992C106.799 38.1992 112.399 28.9992 110.199 26.1992C107.399 22.3992 95.5991 19.5992 95.3991 20.9992Z" fill="#C7C6B7"/>
<path d="M86.6009 20.9992C86.8009 22.1992 83.4009 24.1992 81.0009 27.9992C79.0009 31.1992 78.8009 37.5992 77.6009 37.7992C75.2009 38.1992 69.6009 28.9992 71.8009 26.1992C74.4009 22.3992 86.2009 19.5992 86.6009 20.9992Z" fill="#C7C6B7"/>
<path d="M97.0009 36.1997C98.2009 36.3997 98.2009 39.1997 96.8009 38.9997C95.8009 38.7997 95.8009 35.9997 97.0009 36.1997Z" fill="#1D2820"/>
<path d="M84.6 36.1997C85.8 36.3997 85.6 39.1997 84.4 38.9997C83.2 38.7997 83.4 35.9997 84.6 36.1997Z" fill="#1D2820"/>
<path d="M90.5992 51.3996C90.3992 51.3996 90.1992 51.1996 90.1992 50.9996V48.9996C90.1992 48.7996 90.3992 48.5996 90.5992 48.5996C90.7992 48.5996 90.9992 48.7996 90.9992 48.9996V50.9996C90.7992 51.1996 90.7992 51.3996 90.5992 51.3996Z" fill="#84816A"/>
<path d="M90.6003 43.4004C94.6003 43.6004 95.2003 45.0004 95.2003 45.4004C95.2003 46.6004 93.0003 49.4004 90.4003 49.2004C87.8003 49.0004 85.6003 46.2004 86.0003 45.2004C86.6003 44.2004 89.0003 43.4004 90.6003 43.4004Z" fill="#1D2820"/>
<path d="M103 33.4009C102.6 31.6009 102 29.4009 101.2 28.0009C98.8002 24.2009 95.4002 22.2008 95.6002 21.0008C95.6002 21.0008 95.6002 20.8008 95.8002 20.8008C102.8 22.6008 103.4 29.0009 103 33.4009Z" fill="#AFAD9C"/>
<path d="M86.2008 20.8008C86.4008 20.8008 86.4008 21.0008 86.4008 21.0008C86.6008 22.2008 83.2008 24.2009 80.8008 28.0009C79.8008 29.6009 79.2008 32.0009 78.8008 34.0009C78.8008 32.8009 78.8008 31.6009 79.0008 30.0009C79.8008 25.6009 81.8008 22.0008 86.2008 20.8008Z" fill="#AFAD9C"/>
<path d="M90.4009 57.6006C84.2009 57.6006 79.8009 53.8006 79.6009 53.8006C79.2009 53.4006 79.2009 52.8007 79.4009 52.4007C79.8009 52.0007 80.4009 52.0007 80.8009 52.2007C80.8009 52.2007 85.0009 55.8006 90.6009 55.6006C96.4009 55.4006 100.401 52.2007 100.401 52.2007C100.801 51.8007 101.401 51.8007 101.801 52.4007C102.201 52.8007 102.201 53.4006 101.601 53.8006C101.401 54.0006 97.2009 57.6006 90.4009 57.6006Z" fill="#DA260D"/>
<path d="M90.7996 61.4009C90.3996 61.4009 89.9996 61.4009 89.7996 61.2009C88.9996 61.0009 88.5996 60.0008 88.5996 59.0008C88.5996 58.0008 89.1996 57.0008 90.5996 56.8008C91.3996 56.8008 91.9996 57.0009 92.5996 57.4009C93.1996 58.0009 93.3996 58.6009 93.1996 59.4009C93.1996 60.0009 92.7996 60.6008 92.3996 61.0008C91.7996 61.4008 91.1996 61.4009 90.7996 61.4009ZM90.5996 57.4009C89.5996 57.6009 89.1996 58.4008 89.1996 59.0008C89.1996 59.6008 89.3996 60.4008 89.7996 60.6008C90.3996 60.8008 91.1996 60.8009 91.7996 60.4009C92.1996 60.2009 92.3996 59.8009 92.3996 59.4009C92.3996 58.6009 92.1996 58.2008 91.9996 58.0008C91.5996 57.6008 90.9996 57.4009 90.5996 57.4009Z" fill="#84816A"/>
<path d="M52.9992 96.4004C52.9992 96.4004 49.7992 109 49.9992 109.2C51.1992 110 89.7992 109.2 89.7992 109.2L86.5992 96.6004L52.9992 96.4004Z" fill="#FF3008"/>
<path d="M57.9996 93.4009C59.7996 92.4009 61.3996 94.6009 61.3996 94.6009C61.3996 94.6009 62.3996 90.6009 63.7996 89.8009C65.7996 89.4009 67.5996 91.4009 67.5996 91.4009C67.5996 91.4009 68.5996 89.8009 70.3996 89.8009C72.1996 89.8009 72.7996 90.8009 72.9996 91.6009C72.9996 91.8009 73.1996 90.8009 73.9996 90.6009C74.9996 90.2009 75.3996 91.0009 75.5996 91.0009C76.7996 90.6009 77.9996 90.2009 78.5996 90.4009C80.1996 90.8009 80.7996 92.8009 80.9996 93.4009C81.1996 94.0009 83.5996 93.2009 83.9996 93.4009C85.9996 94.0009 85.7996 96.8009 85.7996 96.8009C85.7996 96.8009 78.1996 100.201 68.5996 100.001C60.3996 99.8009 57.7996 99.2009 55.5996 98.2009C54.9996 97.2009 54.7996 95.4009 55.7996 94.8009C56.3996 94.6009 57.1996 94.6009 57.1996 94.6009L57.9996 93.4009Z" fill="#725347"/>
<path d="M89.9992 109.2C89.9992 109.2 79.5992 107 69.5992 107.2C59.5992 107.4 50.1992 109.2 50.1992 109.2C50.1992 109.2 58.7992 110.6 69.3992 110.6C81.3992 110.8 89.9992 109.2 89.9992 109.2Z" fill="#DA260D"/>
<path d="M37.5993 81.201C36.7993 82.201 37.7993 83.201 38.7993 84.001C39.7993 84.801 40.9993 85.001 41.3993 84.401C41.7993 83.801 41.5993 82.401 40.7993 81.801C39.9993 81.001 38.1993 80.601 37.5993 81.201Z" fill="#9CCFD1"/>
<path d="M44.2002 80.1998C45.4002 80.1998 46.4002 78.5998 45.6002 76.9998C44.8002 75.3998 44.0002 74.1998 42.8002 74.7998C41.6002 75.3998 41.2002 77.7998 42.0002 79.1998C43.0002 80.1998 43.8002 80.1998 44.2002 80.1998Z" fill="#9CCFD1"/>
<path d="M49.9997 79.4009C50.9997 80.0009 52.3997 79.8009 53.1997 78.2009C53.9997 76.8009 53.5997 74.8009 52.9997 74.6009C52.3997 74.4009 50.7997 75.2009 49.9997 76.4009C48.9997 77.6009 49.3997 79.0009 49.9997 79.4009Z" fill="#9CCFD1"/>
<path d="M53.2004 82.9994C53.4004 83.5994 55.0004 84.3994 56.2004 83.3994C57.4004 82.3994 57.6004 80.9994 57.0004 80.5994C56.4004 80.1994 55.0004 79.9994 54.4004 80.5994C53.4004 81.3994 53.0004 82.3994 53.2004 82.9994Z" fill="#9CCFD1"/>
<path d="M42.3994 88.9994C42.3994 90.3994 43.5994 90.5994 44.3994 90.3994C45.1994 90.1994 46.3994 88.5994 47.7994 88.7994C48.9994 88.9994 48.9994 89.5994 50.5994 89.9994C51.9994 90.3994 52.5994 90.1994 53.3994 89.1994C54.1994 88.1994 53.5994 85.9994 52.7994 84.7994C51.9994 83.5994 50.9994 81.3994 49.1994 80.7994C47.5994 80.1994 47.1994 79.7994 45.1994 81.5994C43.1994 83.3994 42.7994 84.7994 42.3994 85.5994C42.1994 86.5994 42.3994 88.3994 42.3994 88.9994Z" fill="#9CCFD1"/>
</svg>
