<svg width="22" height="21" viewBox="0 0 22 21" fill="none" xmlns="http://www.w3.org/2000/svg">
<path d="M18.5714 13.8436C17.1225 12.7975 16.2916 11.2685 16.2916 9.64866V7.36664C16.2916 4.48628 13.7865 2.10195 10.5416 1.70251V0.818516C10.5416 0.365877 10.1123 0 9.58329 0C9.05429 0 8.62496 0.365877 8.62496 0.818516V1.70251C5.3791 2.10195 2.87499 4.48628 2.87499 7.36664V9.64866C2.87499 11.2685 2.04411 12.7975 0.586497 13.8501C0.213707 14.1227 0 14.5188 0 14.9379C0 15.7278 0.752288 16.3703 1.67707 16.3703H17.4895C18.4143 16.3703 19.1666 15.7278 19.1666 14.9379C19.1666 14.5188 18.9529 14.1227 18.5714 13.8436Z" fill="#4E4E56"/>
<path d="M9.5834 20.3921C11.3189 20.3921 12.7708 19.3354 13.1043 17.9365H6.0625C6.396 19.3354 7.84787 20.3921 9.5834 20.3921Z" fill="#4E4E56"/>
<circle cx="16" cy="13.3369" r="5" fill="#EE5B5B" stroke="#171721" stroke-width="2"/>
</svg>
