<svg width="18" height="21" viewBox="0 0 18 21" fill="none" xmlns="http://www.w3.org/2000/svg">
<path d="M14.3695 13.1365C14.1898 14.3343 13.6307 15.4429 12.7742 16.2994C11.9177 17.1559 10.8091 17.715 9.61131 17.8947H9.49734C9.30671 17.8933 9.12358 17.8202 8.98429 17.6901C8.84499 17.5599 8.75971 17.3822 8.74536 17.1921C8.73102 17.002 8.78865 16.8135 8.90684 16.6639C9.02502 16.5143 9.19511 16.4146 9.38337 16.3846C10.2565 16.2427 11.0629 15.8297 11.6885 15.2042C12.314 14.5787 12.7269 13.7722 12.8689 12.8991C12.8794 12.7968 12.9106 12.6976 12.9605 12.6077C13.0105 12.5178 13.0782 12.4389 13.1595 12.3759C13.2409 12.313 13.3342 12.2671 13.4337 12.2413C13.5333 12.2154 13.6371 12.2101 13.7388 12.2255C13.8405 12.241 13.938 12.2769 14.0254 12.3312C14.1128 12.3854 14.1883 12.4569 14.2473 12.5412C14.3062 12.6255 14.3475 12.7208 14.3685 12.8216C14.3895 12.9223 14.3898 13.0262 14.3695 13.127V13.1365ZM17.4751 12.2628C17.4751 14.5801 16.5545 16.8025 14.9159 18.4411C13.2773 20.0798 11.0549 21.0003 8.73755 21.0003C6.42021 21.0003 4.19778 20.0798 2.55917 18.4411C0.920561 16.8025 0 14.5801 0 12.2628C0 10.0689 0.940237 7.54259 2.79222 4.75037C2.84776 4.66735 2.91913 4.5961 3.00225 4.54069C3.08536 4.48528 3.17858 4.4468 3.27658 4.42746C3.47412 4.38949 3.67868 4.4304 3.84642 4.54143L6.90456 6.58336L9.83924 0.429082C9.89171 0.319181 9.97015 0.223705 10.0678 0.150899C10.1654 0.0780937 10.2793 0.0301466 10.3996 0.011199C10.519 -0.00953913 10.6417 -0.00139366 10.7574 0.034955C10.873 0.0713037 10.9783 0.1348 11.0644 0.22014C12.4605 1.61625 14.0656 3.31627 15.3002 5.29172C16.7628 7.61857 17.4751 9.89793 17.4751 12.2628ZM15.9555 12.2628C15.9555 8.2169 13.5432 4.96881 10.7415 2.06262L7.90179 8.02695C7.85627 8.1266 7.78922 8.21492 7.70546 8.28554C7.62171 8.35616 7.52333 8.40732 7.41742 8.43534C7.31354 8.46297 7.20506 8.4688 7.09882 8.45245C6.99258 8.4361 6.89087 8.39794 6.80009 8.34036L3.64698 6.23196C2.23187 8.51132 1.51957 10.5342 1.51957 12.2628C1.51957 14.1771 2.28004 16.013 3.63367 17.3666C4.9873 18.7203 6.82322 19.4807 8.73755 19.4807C10.6519 19.4807 12.4878 18.7203 13.8414 17.3666C15.1951 16.013 15.9555 14.1771 15.9555 12.2628Z" fill="#3E4B65"/>
</svg>
