<svg width="18" height="17" viewBox="0 0 18 17" fill="none" xmlns="http://www.w3.org/2000/svg">
<path fill-rule="evenodd" clip-rule="evenodd" d="M3.41841 16.8204C3.58312 16.9395 3.77613 17.0002 3.97048 17.0002C4.13831 17.0002 4.30465 16.955 4.45393 16.8663L8.86971 14.226L13.2855 16.8648C13.6077 17.0585 14.0158 17.0415 14.3218 16.8198C14.6285 16.5981 14.772 16.2158 14.6883 15.8462L13.5471 10.8192L17.4174 7.42572C17.7019 7.17736 17.8099 6.78337 17.6931 6.42416C17.5763 6.06496 17.2585 5.80983 16.8815 5.77586L11.7614 5.31095L9.73673 0.572104C9.58744 0.224808 9.24746 0 8.86971 0C8.49196 0 8.15197 0.224808 8.00269 0.572916L5.97806 5.31095L0.857134 5.77586C0.480874 5.81064 0.163084 6.06496 0.0462808 6.42416C-0.0705221 6.78404 0.03816 7.17736 0.322656 7.42572L4.19299 10.8199L3.05176 15.847C2.96825 16.2158 3.11158 16.5981 3.41841 16.8204ZM9.35316 13.223C9.20374 13.1343 9.03754 13.0892 8.86971 13.0892C8.70188 13.0892 8.53554 13.1343 8.38625 13.223L4.21884 15.7147L5.2951 10.97C5.37266 10.6315 5.25816 10.2796 4.9964 10.0505L1.34208 6.84549L6.17769 6.40643C6.52499 6.37463 6.82437 6.15577 6.9589 5.83717L8.86971 1.36523L10.7782 5.83649C10.9142 6.15726 11.2136 6.37611 11.5617 6.40792L16.3967 6.84698L12.7422 10.052C12.4813 10.2804 12.3666 10.633 12.4435 10.9707L13.5206 15.7155L9.35316 13.223Z" fill="#742996"/>
</svg>
