<svg width="24" height="24" viewBox="0 0 24 24" fill="none" xmlns="http://www.w3.org/2000/svg">
<path d="M9.83363 12.196L13.6314 8.39829L13.6314 8.39822C13.7154 8.31441 13.816 8.2491 13.9267 8.2065C14.0375 8.1639 14.1559 8.14495 14.2744 8.15087C14.3929 8.1568 14.5088 8.18746 14.6147 8.2409C14.7207 8.29433 14.8142 8.36935 14.8894 8.46113L14.8895 8.46119L20.1316 14.8698V11.25C20.1316 11.0246 20.2211 10.8084 20.3805 10.649C20.5399 10.4896 20.7562 10.4 20.9816 10.4C21.207 10.4 21.4232 10.4896 21.5826 10.649C21.742 10.8084 21.8316 11.0246 21.8316 11.25V17.25C21.8316 17.4754 21.742 17.6916 21.5826 17.851C21.4232 18.0104 21.207 18.1 20.9816 18.1H14.9816C14.7562 18.1 14.5399 18.0104 14.3805 17.851C14.2211 17.6916 14.1316 17.4754 14.1316 17.25C14.1316 17.0246 14.2211 16.8084 14.3805 16.649C14.5399 16.4896 14.7562 16.4 14.9816 16.4H19.1881L14.1687 10.2649L10.3333 14.1017L10.3333 14.1017C10.2463 14.1886 10.1416 14.2555 10.0263 14.298C9.91105 14.3405 9.78793 14.3574 9.66545 14.3478C9.54297 14.3381 9.42405 14.3019 9.31688 14.2418C9.20974 14.1818 9.11688 14.0992 9.04471 13.9998L9.83363 12.196ZM9.83363 12.196L4.41846 4.75018L4.41624 4.74714L4.41619 4.74718C4.28023 4.5743 4.08254 4.46084 3.86468 4.43066C3.64682 4.40049 3.42574 4.45593 3.2479 4.58535C3.07006 4.71476 2.94931 4.90808 2.91103 5.12466C2.87274 5.34125 2.9199 5.56424 3.04259 5.74678L3.04466 5.74986L3.04471 5.74982L9.04466 13.9997L9.83363 12.196Z" fill="#FF0000" stroke="#FF0000" stroke-width="0.2"/>
</svg>
