<svg width="20" height="19" viewBox="0 0 20 19" fill="none" xmlns="http://www.w3.org/2000/svg">
<path fill-rule="evenodd" clip-rule="evenodd" d="M13.8751 5.03543H14.0548C16.4162 5.03543 18.3327 6.78649 18.3327 8.93447V13.2304C18.3327 15.3784 16.4162 17.1217 14.0548 17.1217H5.94391C3.58251 17.1217 1.66602 15.3784 1.66602 13.2304V8.93447C1.66602 6.78649 3.58251 5.03543 5.94391 5.03543H6.12358C6.14069 4.10152 6.54281 3.22988 7.27005 2.57615C8.00585 1.91464 8.94699 1.57999 10.0079 1.55664C12.1297 1.55664 13.8495 3.11314 13.8751 5.03543ZM8.16842 3.40888C7.6893 3.8447 7.42407 4.42061 7.40696 5.03543H12.5918C12.5661 3.75909 11.4196 2.72402 10.0079 2.72402C9.34912 2.72402 8.66466 2.96528 8.16842 3.40888ZM13.2505 8.03169C13.6099 8.03169 13.8922 7.76709 13.8922 7.448V6.54523C13.8922 6.22615 13.6099 5.96154 13.2505 5.96154C12.8997 5.96154 12.6088 6.22615 12.6088 6.54523V7.448C12.6088 7.76709 12.8997 8.03169 13.2505 8.03169ZM7.31281 7.448C7.31281 7.76709 7.03047 8.03169 6.67113 8.03169C6.32034 8.03169 6.02944 7.76709 6.02944 7.448V6.54523C6.02944 6.22615 6.32034 5.96154 6.67113 5.96154C7.03047 5.96154 7.31281 6.22615 7.31281 6.54523V7.448Z" fill="white"/>
</svg>
