<svg width="93" height="21" viewBox="0 0 93 21" fill="none" xmlns="http://www.w3.org/2000/svg">
<path d="M9.05618 12.743L2.23156 4.37015H1.08054V15.1775H2.44547V6.85553L9.17841 15.1775H10.4211V4.37015H9.05618V12.743Z" fill="#202020"/>
<path d="M15.5549 7.92462C13.5789 7.92462 12.0509 9.51364 12.0509 11.5508C12.0509 13.7408 13.5177 15.3197 15.5549 15.3197C17.6838 15.3197 19.1404 13.8019 19.1404 11.5508C19.1506 9.44234 17.6431 7.92462 15.5549 7.92462ZM15.5447 14.0566C14.2715 14.0566 13.4057 13.0584 13.4057 11.5508C13.4057 10.1859 14.3021 9.18769 15.5447 9.18769C16.8587 9.18769 17.806 10.1859 17.806 11.561C17.806 13.1093 16.93 14.0566 15.5447 14.0566Z" fill="#202020"/>
<path d="M22.0433 9.6968H22.0127V8.06704H20.6987V15.1769H22.0127V11.4488C22.0127 10.2265 22.7257 9.2588 23.6221 9.2588C23.9277 9.2588 24.4472 9.54401 24.8444 9.95145L25.5371 8.72913C24.987 8.17908 24.4879 7.90406 23.9582 7.90406C23.3369 7.92443 22.7054 8.44392 22.0433 9.6968Z" fill="#202020"/>
<path d="M27.1057 11.6323C27.1057 10.1859 27.9308 9.21824 29.1327 9.21824C29.7133 9.21824 30.2124 9.38122 30.9662 9.91089V8.41355C30.3347 8.10797 29.8152 7.92462 29.041 7.92462C27.0344 7.92462 25.7611 9.41178 25.7611 11.7647C25.7611 13.8529 27.1464 15.3298 29.1327 15.3298C29.8254 15.3298 30.6708 15.1363 31.1088 14.9224V13.5269C30.4467 13.8427 29.917 14.0057 29.3466 14.0057C27.9919 13.9955 27.1057 13.1093 27.1057 11.6323Z" fill="#202020"/>
<path d="M35.662 7.92462C33.6859 7.92462 32.158 9.51364 32.158 11.5508C32.158 13.7408 33.6248 15.3197 35.662 15.3197C37.7908 15.3197 39.2474 13.8019 39.2474 11.5508C39.2474 9.44234 37.7399 7.92462 35.662 7.92462ZM35.6518 14.0566C34.3785 14.0566 33.5127 13.0584 33.5127 11.5508C33.5127 10.1859 34.4091 9.18769 35.6518 9.18769C36.9658 9.18769 37.9131 10.1859 37.9131 11.561C37.9029 13.1093 37.0371 14.0566 35.6518 14.0566Z" fill="#202020"/>
<path d="M44.0045 7.92462C43.2609 7.92462 42.5275 8.32188 42.0284 9.00434H41.9978V8.06723H40.6838V15.1771H41.9978V10.0739C42.6192 9.33029 43.0775 9.04508 43.648 9.04508C44.4425 9.04508 44.9518 9.72755 44.9518 10.7767V15.1771H46.2658V10.7869C46.2658 8.84136 45.2573 7.92462 44.0045 7.92462Z" fill="#202020"/>
<path d="M50.7677 11.2355C49.6065 10.5021 49.1583 10.1252 49.1583 9.80943C49.1583 9.43255 49.4945 9.15752 50.0343 9.15752C50.5233 9.15752 51.2159 9.38162 51.9595 9.9011V8.50562C51.2668 8.10837 50.6251 7.91483 50.014 7.91483C48.6898 7.91483 47.824 8.64822 47.824 9.85017C47.824 11.7651 50.9307 12.2948 50.9307 13.2727C50.9307 13.782 50.4927 14.0468 49.9529 14.0774C49.4232 14.0774 48.6389 13.7718 47.7832 13.1403V14.658C48.6389 15.1367 49.2806 15.3099 50.0853 15.3099C51.3382 15.3099 52.2753 14.4746 52.2753 13.2217C52.2651 12.4985 51.8678 12.0096 50.7677 11.2355Z" fill="#202020"/>
<path d="M58 13.1504C57.5722 13.8023 57.0119 14.1486 56.4211 14.1486C55.5248 14.1486 55.0664 13.5782 55.0664 12.58V8.06759H53.7524V12.4883C53.7524 14.2912 54.6997 15.3302 56.0443 15.3302C56.6962 15.3302 57.4601 14.9228 58.0102 14.281V15.1876H59.3242V8.06759H58.0102V13.1504H58Z" fill="#202020"/>
<path d="M62.5122 4.37015H61.1982V15.1877H62.5122V4.37015Z" fill="#202020"/>
<path d="M65.945 12.9766V9.33002H68.0433V8.06695H65.945V6.58998L63.48 9.16704V9.33002H64.631V13.0887C64.631 14.3721 65.3542 15.3194 66.7904 15.3194C67.2182 15.3194 67.9313 15.1157 68.3896 14.8406V13.5266C67.86 13.873 67.371 14.0461 66.9025 14.0461C66.5052 14.0563 65.945 13.822 65.945 12.9766Z" fill="#202020"/>
<path d="M86.4393 5.08286L81.9778 0.631581L77.5265 5.08286L81.9778 9.53415L86.4393 5.08286Z" fill="#202020"/>
<path d="M76.4987 6.12184L72.0403 10.5802L76.4987 15.0386L80.9571 10.5802L76.4987 6.12184Z" fill="#202020"/>
<path d="M87.4679 6.11213L83.0166 10.5634L87.4679 15.0249L91.9192 10.5634L87.4679 6.11213Z" fill="#202020"/>
<path d="M81.9778 12.5895C80.0628 12.5895 78.5145 14.1378 78.5145 16.0527C78.5145 17.9677 80.0628 19.516 81.9778 19.516C83.8927 19.516 85.441 17.9677 85.441 16.0527C85.441 14.1378 83.8927 12.5895 81.9778 12.5895Z" fill="#202020"/>
</svg>
