<svg width="22" height="20" viewBox="0 0 22 20" fill="none" xmlns="http://www.w3.org/2000/svg">
<path d="M11.6344 18.8893L11.3865 18.163L11.379 18.1657L11.6344 18.8893ZM10.3656 18.8893L10.621 18.1656L10.6135 18.163L10.3656 18.8893ZM11 3.05953L10.3839 3.51709C10.5287 3.71204 10.7572 3.82698 11 3.82698C11.2428 3.82698 11.4713 3.71204 11.6161 3.51709L11 3.05953ZM11.379 18.1657C11.3127 18.189 11.1754 18.214 11 18.214C10.8246 18.214 10.6873 18.189 10.621 18.1657L10.1102 19.6129C10.3918 19.7124 10.7149 19.7488 11 19.7488C11.2851 19.7488 11.6082 19.7124 11.8898 19.6129L11.379 18.1657ZM10.6135 18.163C9.23995 17.6941 6.94466 16.448 5.00293 14.4585C3.07046 12.4785 1.53488 9.81356 1.53488 6.48744H0C0 10.3241 1.77977 13.3536 3.90451 15.5306C6.01999 17.698 8.52377 19.0714 10.1176 19.6156L10.6135 18.163ZM1.53488 6.48744C1.53488 3.74583 3.74277 1.53488 6.45674 1.53488V0C2.88792 0 0 2.90533 0 6.48744H1.53488ZM6.45674 1.53488C8.06476 1.53488 9.48819 2.31102 10.3839 3.51709L11.6161 2.60198C10.4448 1.02479 8.57338 0 6.45674 0V1.53488ZM11.6161 3.51709C12.5113 2.31165 13.9447 1.53488 15.5433 1.53488V0C13.4376 0 11.5556 1.02416 10.3839 2.60198L11.6161 3.51709ZM15.5433 1.53488C18.2572 1.53488 20.4651 3.74583 20.4651 6.48744H22C22 2.90533 19.1121 0 15.5433 0V1.53488ZM20.4651 6.48744C20.4651 9.81356 18.9295 12.4785 16.9971 14.4585C15.0554 16.448 12.7601 17.6941 11.3865 18.163L11.8824 19.6156C13.4762 19.0714 15.98 17.698 18.0955 15.5306C20.2203 13.3536 22 10.3241 22 6.48744H20.4651Z" fill="#93989A"/>
</svg>
