<svg width="22" height="22" viewBox="0 0 22 22" fill="none" xmlns="http://www.w3.org/2000/svg">
<path d="M10.9999 0C4.93896 0 0 4.93896 0 10.9999C0 17.0609 4.93896 21.9998 10.9999 21.9998C17.0609 21.9998 21.9998 17.0609 21.9998 10.9999C21.9998 4.93896 17.0609 0 10.9999 0ZM15.7849 14.9269C15.6309 15.1909 15.3559 15.3339 15.0699 15.3339C14.9269 15.3339 14.7839 15.3009 14.6519 15.2129L11.2419 13.1779C10.3949 12.6719 9.76792 11.5609 9.76792 10.5819V6.07195C9.76792 5.62095 10.1419 5.24696 10.5929 5.24696C11.0439 5.24696 11.4179 5.62095 11.4179 6.07195V10.5819C11.4179 10.9779 11.7479 11.5609 12.0889 11.7589L15.4989 13.7939C15.8949 14.0249 16.0269 14.5309 15.7849 14.9269Z" fill="#15161E"/>
</svg>
