<svg width="21" height="21" viewBox="0 0 21 21" fill="none" xmlns="http://www.w3.org/2000/svg">
<path d="M13.7906 21H13.6577C9.11827 21 6.93034 19.2108 6.55206 15.203C6.51116 14.7838 6.81788 14.4055 7.24729 14.3646C7.65624 14.3237 8.04475 14.6407 8.08565 15.0599C8.38214 18.2702 9.89529 19.4664 13.6679 19.4664H13.8008C17.962 19.4664 19.4342 17.9941 19.4342 13.833V7.16698C19.4342 3.00584 17.962 1.53359 13.8008 1.53359H13.6679C9.87484 1.53359 8.3617 2.75024 8.08565 6.0219C8.03453 6.44108 7.67669 6.75802 7.24729 6.71712C6.81788 6.68645 6.51116 6.30817 6.54184 5.88899C6.88945 1.81986 9.08759 0 13.6577 0H13.7906C18.8106 0 20.9576 2.14703 20.9576 7.16698V13.833C20.9576 18.8529 18.8106 21 13.7906 21Z" fill="#FED32C"/>
<path d="M13.5438 11.2668H1.909C1.48982 11.2668 1.14221 10.9192 1.14221 10.5C1.14221 10.0808 1.48982 9.7332 1.909 9.7332H13.5438C13.963 9.7332 14.3106 10.0808 14.3106 10.5C14.3106 10.9192 13.963 11.2668 13.5438 11.2668Z" fill="#FED32C"/>
<path d="M4.18926 14.6917C3.995 14.6917 3.80075 14.6201 3.64739 14.4667L0.222371 11.0417C-0.0741235 10.7452 -0.0741235 10.2545 0.222371 9.95797L3.64739 6.53295C3.94388 6.23646 4.43463 6.23646 4.73113 6.53295C5.02762 6.82945 5.02762 7.3202 4.73113 7.61669L1.84798 10.4998L4.73113 13.383C5.02762 13.6795 5.02762 14.1702 4.73113 14.4667C4.58799 14.6201 4.38351 14.6917 4.18926 14.6917Z" fill="#FED32C"/>
</svg>
