<svg width="45" height="45" viewBox="0 0 45 45" fill="none" xmlns="http://www.w3.org/2000/svg">
<g clip-path="url(#clip0_52_60190)">
<path d="M26.407 0L22.5 4.159L18.593 0L16.344 5.245L11.25 2.674L10.93 8.369L5.265 7.696L6.912 13.159L1.358 14.464L4.775 19.034L0 22.159L4.775 25.283L1.358 29.853L6.912 31.157L5.265 36.621L10.93 35.947L11.25 41.644L16.344 39.072L18.593 44.316L22.5 40.159L26.407 44.316L28.658 39.072L33.75 41.644L34.07 35.947L39.737 36.621L38.089 31.157L43.643 29.853L40.226 25.283L45 22.159L40.226 19.034L43.643 14.464L38.089 13.159L39.737 7.696L34.07 8.369L33.75 2.674L28.658 5.245L26.407 0Z" fill="#64C4AC"/>
<path d="M20.0976 29.0992H16.8566L12.4446 18.7612H12.3176C12.4796 19.5482 12.5616 20.3952 12.5616 21.2992V29.0992H10.1006V14.8272H13.3616L17.7346 25.0582H17.8426C17.7186 24.3752 17.6576 23.5612 17.6576 22.6172V14.8272H20.0976V29.0992ZM26.0526 20.4602L27.9566 14.8262H30.7386L27.3516 23.3782V29.0992H24.7356V23.4862L21.3576 14.8262H24.1586L26.0526 20.4602ZM31.8226 27.7622C31.8226 27.2552 31.9576 26.8612 32.2276 26.5812C32.4976 26.3012 32.8996 26.1612 33.4336 26.1612C33.9666 26.1612 34.3706 26.2992 34.6446 26.5762C34.9176 26.8532 35.0546 27.2492 35.0546 27.7622C35.0546 28.2702 34.9126 28.6642 34.6296 28.9432C34.3456 29.2232 33.9476 29.3632 33.4336 29.3632C32.9056 29.3632 32.5056 29.2222 32.2326 28.9382C31.9596 28.6552 31.8226 28.2632 31.8226 27.7622ZM34.5176 24.5012H32.3796L31.9016 14.8272H35.0156L34.5176 24.5012Z" fill="white"/>
</g>
<defs>
<clipPath id="clip0_52_60190">
<rect width="45" height="45" fill="white"/>
</clipPath>
</defs>
</svg>
