<svg width="30" height="30" viewBox="0 0 30 30" fill="none" xmlns="http://www.w3.org/2000/svg">
<g clip-path="url(#clip0_52_40739)">
<path d="M19.4062 19.3125C19.4062 19.3125 22.5 18.5625 23.3437 16.9688L20.25 16.0312L19.4062 19.3125Z" fill="#858585"/>
<path d="M14.4375 2.71947C14.4375 2.71947 11.0625 0.938216 8.62496 1.68822C6.28121 2.43822 1.68746 9.56322 6.56246 13.5007L6.65621 13.5945C11.625 17.532 13.5937 7.12572 13.5937 7.12572L14.4375 2.71947Z" fill="#8E8686"/>
<path d="M14.2502 3.65648C14.2502 3.65648 11.719 1.50023 9.37523 2.25023C6.93772 2.90648 2.90647 9.37523 7.68773 13.0315L7.78148 13.1252C12.7502 16.6877 14.719 7.21898 14.719 7.21898L14.2502 3.65648Z" fill="#B8B8B8"/>
<path d="M6.75013 10.4062C6.75013 10.4062 4.31263 11.25 4.59388 13.0312C4.87513 14.8125 5.81263 17.8125 9.65638 17.8125L10.0314 15.4687L6.75013 10.4062Z" fill="#8E8686"/>
<path d="M7.59391 9.65625C7.59391 9.65625 5.06266 10.6875 5.25016 12.375C5.43766 14.0625 6.84391 17.4375 10.6877 17.4375L11.0627 15.0938L7.59391 9.65625Z" fill="#B8B8B8"/>
<path d="M7.87457 27.4675C6.18707 26.53 5.34332 24.3737 6.28082 22.2175C6.56207 21.4675 8.15582 19.5925 8.62457 19.2175C10.1246 18.0925 16.3121 17.2487 21.1871 20.905C22.1246 21.5612 22.7808 22.5925 22.9683 23.905V23.9987C23.6246 27.28 22.4996 29.9987 19.5933 29.9987C16.2183 29.905 10.7808 29.0612 7.87457 27.4675Z" fill="#7B7F79"/>
<path d="M7.31207 27.0934C5.62457 26.0621 4.78082 23.6246 5.71832 21.2809C5.99957 20.4371 7.59332 18.3746 8.06207 17.9996C9.56207 16.7809 15.7496 15.8434 20.6246 19.7809C21.5621 20.5309 22.2183 21.6559 22.4058 23.0621V23.1559C23.0621 26.8121 21.9371 29.7184 19.0308 29.7184C15.6558 29.7184 10.2183 28.7809 7.31207 27.0934Z" fill="#7B7F79"/>
<path d="M8.06207 26.4382C6.37457 25.5007 5.53082 23.3444 6.46832 21.1882C6.74957 20.4382 8.34332 18.5632 8.81207 18.1882C10.3121 17.0632 16.4996 16.2194 21.3746 19.8757C22.3121 20.5319 22.9683 21.5632 23.1558 22.8757V22.9694C23.8121 26.2507 22.6871 28.9694 19.7808 28.9694C16.4058 28.8757 10.9683 28.0319 8.06207 26.4382Z" fill="#C8CEC6"/>
<path d="M8.25042 24.4682C6.65667 23.7182 7.21917 22.0307 8.06292 20.1557C8.34417 19.4995 9.00042 18.937 9.46917 18.6557C10.8754 17.7182 16.4067 16.8745 20.9067 19.8745C21.7504 20.437 22.3129 21.2807 22.5942 22.4057V22.4995C23.1567 25.2182 21.0942 27.7495 18.6567 27.3745C15.5629 26.812 10.8754 25.7807 8.25042 24.4682Z" fill="#D1D1D1"/>
<path d="M8.06235 24.4696C6.74985 23.7196 8.1561 22.8758 8.81235 21.0008C9.0936 20.3446 10.4061 19.0321 10.7811 18.7508C11.9998 17.8133 14.9998 16.8758 18.8436 19.8758C19.5936 20.4383 20.0623 21.2821 20.2498 22.4071V22.5008C20.7186 25.2196 19.4061 27.3758 17.2498 27.0008C14.6248 26.4383 10.4061 25.7821 8.06235 24.4696Z" fill="#EBEBEB"/>
<path d="M17.9062 19.7813C17.9062 19.7813 18.75 22.4063 16.7812 23.4375C16.7812 23.4375 21.6562 24 23.0625 23.25C23.0625 23.25 23.5312 20.4375 19.5937 19.125L17.9062 19.7813ZM9.65625 18.0938C9.65625 18.0938 8.625 18.8438 7.59375 20.5313L8.8125 21.1875L9.09375 21.5625C9.09375 21.5625 9.84375 19.875 11.1562 19.125L9.65625 18.0938Z" fill="#EBEBEB"/>
<path d="M7.68796 20.1562C7.68796 20.1562 9.00046 23.4375 22.8755 23.25L21.563 26.7188C21.563 26.7188 18.0005 27.375 13.1255 26.25C8.53171 25.0312 6.28171 24.5625 7.68796 20.1562Z" fill="#C8CEC6"/>
<path d="M7.12534 21.4681C7.21909 21.1868 7.59409 20.9993 7.87534 21.1868C8.90659 21.9368 11.6253 23.3431 17.4378 23.9056C18.7503 23.9993 20.5316 23.9993 22.7816 23.4368C22.7816 23.4368 22.8753 23.9056 22.7816 24.6556C22.5003 26.2493 21.0003 27.4681 19.4066 27.4681C17.5316 27.4681 15.6566 27.3743 12.9378 26.7181C8.71909 25.6868 6.18784 25.2181 7.12534 21.4681Z" fill="#F4F4F4"/>
<path d="M23.6357 12.2323C23.6524 7.62422 19.9303 3.87505 15.3222 3.85836C10.7141 3.84166 6.9649 7.56375 6.9482 12.1719C6.9315 16.78 10.6536 20.5292 15.2617 20.5459C19.8698 20.5626 23.619 16.8405 23.6357 12.2323Z" fill="#595959"/>
<path d="M23.2796 11.6053C23.2959 7.10073 19.6994 3.43597 15.2466 3.41984C10.7938 3.4037 7.17088 7.0423 7.15455 11.5469C7.13823 16.0514 10.7347 19.7162 15.1875 19.7323C19.6403 19.7485 23.2632 16.1099 23.2796 11.6053Z" fill="#D1D1D1"/>
<path d="M23.1991 11.3519C23.2147 7.05444 19.8275 3.55834 15.6335 3.54314C11.4396 3.52794 8.02717 6.99941 8.01159 11.2969C7.99602 15.5943 11.3832 19.0904 15.5771 19.1056C19.7711 19.1208 23.1835 15.6494 23.1991 11.3519Z" fill="#DBDBDB"/>
<path d="M19.1076 12.4874C19.1191 9.32897 16.6519 6.75963 13.5971 6.74856C10.5423 6.73749 8.05658 9.28889 8.04514 12.4473C8.03369 15.6056 10.5008 18.175 13.5557 18.1861C16.6105 18.1971 19.0962 15.6457 19.1076 12.4874Z" fill="#EBEBEB"/>
<path d="M16.1261 13.0757C16.1278 12.6098 15.7934 12.2308 15.3792 12.2293C14.9649 12.2278 14.6278 12.6043 14.6261 13.0703C14.6244 13.5363 14.9588 13.9153 15.373 13.9168C15.7873 13.9183 16.1244 13.5417 16.1261 13.0757Z" fill="#595959"/>
<path d="M15.7106 12.7826C15.711 12.6791 15.6274 12.5948 15.5238 12.5944C15.4203 12.5941 15.336 12.6777 15.3356 12.7812C15.3353 12.8848 15.4189 12.9691 15.5225 12.9694C15.626 12.9698 15.7103 12.8862 15.7106 12.7826Z" fill="white"/>
<path d="M10.0187 12.0797C10.0204 11.6137 9.68595 11.2347 9.27174 11.2332C8.85753 11.2317 8.52037 11.6082 8.51868 12.0742C8.51699 12.5402 8.85141 12.9192 9.26563 12.9207C9.67984 12.9222 10.017 12.5456 10.0187 12.0797Z" fill="#595959"/>
<path d="M9.60419 11.6928C9.60457 11.5892 9.52093 11.505 9.41737 11.5046C9.31382 11.5042 9.22957 11.5879 9.2292 11.6914C9.22882 11.795 9.31246 11.8792 9.41602 11.8796C9.51957 11.88 9.60382 11.7963 9.60419 11.6928Z" fill="white"/>
<path d="M10.3125 26.3436C10.3125 26.3436 11.3438 26.1561 12 25.3124C12 25.3124 12.2813 26.7186 13.2188 27.0936L10.3125 26.3436ZM19.125 26.0624C19.125 26.0624 19.4062 26.9061 19.125 27.8436H20.4375C20.4375 27.8436 20.1562 26.0624 19.0312 24.6561L19.125 26.0624ZM7.875 23.5311C7.875 23.5311 7.6875 24.2811 7.96875 25.0311L6.9375 25.1249C6.9375 25.1249 7.03125 24.2811 7.40625 23.3436C7.40625 23.1561 7.875 23.2499 7.875 23.5311Z" fill="#C8CEC6"/>
<path d="M12.8437 24.9375C12.8437 24.9375 16.5 24.2812 18.1875 25.3125C18.1875 25.3125 18.6562 26.0625 18.1875 26.25C17.7188 26.4375 14.5312 24.9375 12.9375 25.4062C12.9375 25.5 12.5625 25.125 12.8437 24.9375ZM7.96875 23.1562C7.96875 23.1562 10.5937 23.25 11.625 24.2812C11.625 24.2812 11.8125 24.9375 11.5313 24.9375C11.25 25.0312 9.1875 23.4375 7.96875 23.5312C7.96875 23.5312 7.6875 23.25 7.96875 23.1562Z" fill="white"/>
<path d="M20.3438 13.0312C20.3438 13.0312 21.2812 12.4688 21.6562 12.8438C22.4062 13.5938 21.75 14.7188 20.3438 15V13.0312Z" fill="#DBDBDB"/>
<path d="M13.7812 16.5C13.7812 16.5 13.0312 16.4063 12.4687 15.9375C11.9062 15.4688 11.4375 15.5625 11.3438 15.5625C11.25 15.5625 11.0625 15.375 10.875 15.2812C10.6875 15.1875 10.4062 15.1875 10.4062 15.2812C10.4062 15.375 10.5937 15.75 10.5937 15.75V16.3125C10.5937 16.5 10.5937 17.0625 11.1562 17.1562C11.7187 17.25 12.1875 17.25 12.375 17.0625C12.6562 17.0625 13.7812 16.5 13.7812 16.5Z" fill="#6E6E6E"/>
<path d="M12.4687 21.75C12.4687 21.75 12.2812 23.25 9.18746 23.0625C6.09371 22.875 7.12496 20.9062 7.12496 20.9062L12.4687 21.75Z" fill="#C8CEC6"/>
<path d="M18.1877 23.3437C18.1877 23.3437 17.9064 24.8437 14.2502 24.6562C10.5939 24.4687 11.7189 22.5 11.7189 22.5L18.1877 23.3437ZM20.7189 19.9687C20.7189 19.9687 22.4064 20.625 22.5002 23.4375H23.2502C23.2502 23.4375 23.1564 20.8125 21.0002 19.6875L20.7189 19.9687Z" fill="#C8CEC6"/>
<path d="M17.7184 22.6875C17.7184 22.6875 17.5309 24.1875 14.6246 24C11.7184 23.8125 12.5621 21.8438 12.5621 21.8438L17.7184 22.6875Z" fill="#EBEBEB"/>
<path d="M12.2812 21.2813C12.2812 21.2813 12.6562 22.6875 9.74995 22.4062C6.8437 22.125 7.87495 20.0625 7.87495 20.0625L12.2812 21.2813Z" fill="#EBEBEB"/>
<path d="M11.7188 22.4063C11.7188 22.4063 12.0937 21.4688 12.8437 20.9062C12.8437 20.9062 12.375 21.8438 12.375 22.5938L11.7188 22.4063Z" fill="#C8CEC6"/>
<path d="M10.4063 20.156L10.9688 20.4372C11.1563 20.531 11.2501 20.8122 11.2501 20.9997C11.2501 21.1872 11.0626 21.3747 10.8751 21.5622C10.6876 21.656 10.5001 21.7497 10.2188 21.7497C9.84381 21.7497 9.56256 21.656 9.18756 21.4685C8.81256 21.1872 8.43756 20.6247 8.81256 20.2497C9.18756 19.8747 9.93756 20.0622 10.4063 20.156ZM15.6563 21.5622L16.2188 21.8435C16.4063 21.9372 16.5001 22.2185 16.5001 22.406C16.5001 22.5935 16.3126 22.781 16.1251 22.9685C15.9376 23.0622 15.7501 23.156 15.4688 23.156C15.0938 23.156 14.8126 23.0622 14.4376 22.8747C14.1563 22.6872 13.6876 22.1247 14.0626 21.7497C14.4376 21.281 15.1876 21.4685 15.6563 21.5622Z" fill="white"/>
<path d="M17.5313 7.12428L15.75 6.74928C15.75 6.74928 15.375 2.81178 10.3125 3.46803C10.3125 3.46803 12 1.12428 14.3438 1.68678C16.6875 2.24928 18.375 4.21803 17.8125 5.24928C17.4375 6.37428 17.5313 7.12428 17.5313 7.12428Z" fill="#858585"/>
<path d="M16.125 6.56165C16.125 6.56165 18 4.87415 17.4375 3.74915C16.875 2.62415 14.4375 1.0304 11.9063 2.1554L10.2188 2.99915C10.2188 2.99915 12.0938 0.374153 13.6875 0.0929034C15.2813 -0.188347 20.625 -0.0945965 22.2188 2.06165C23.8125 4.2179 23.3438 7.4054 21.75 8.7179C20.1563 10.0304 16.5 7.0304 16.125 6.56165Z" fill="#858585"/>
<path d="M15.9375 6.84289C15.9375 6.84289 17.625 5.24914 17.1562 4.31164C16.6875 3.37414 14.3437 1.78039 12 2.81164L10.4062 3.56164C10.4062 3.56164 12.1875 1.21789 13.5937 0.842889C15 0.467889 19.9687 0.749139 21.375 2.62414C22.7812 4.49914 22.4062 7.49914 21 8.81164C19.5937 10.1241 16.2187 7.12414 15.9375 6.84289Z" fill="#D4D4D4"/>
<path d="M19.5942 8.71781C19.5942 8.71781 20.8129 5.24906 23.1567 5.62406C25.5004 5.99906 27.6567 10.5928 25.0317 13.6866C25.0317 13.6866 23.0629 15.3741 23.5317 16.5928C23.5317 16.5928 23.9067 16.9678 24.8442 16.6866C24.8442 16.6866 23.7192 17.2491 22.5004 17.2491C21.2817 17.2491 18.2817 15.1866 18.7504 12.5616L19.5942 8.71781Z" fill="#858585"/>
<path d="M18.2813 8.24906C18.2813 8.24906 19.5 4.78031 21.8438 5.15531C24.1875 5.53031 26.3438 10.1241 23.7188 13.2178C23.7188 13.2178 21.75 14.9053 22.2188 16.1241C22.2188 16.1241 22.125 17.0616 22.9688 16.8741C22.9688 16.8741 22.0313 17.1553 20.8125 17.1553C19.5938 17.1553 16.875 14.9991 17.3438 12.2803C17.8125 9.56156 18.2813 8.24906 18.2813 8.24906Z" fill="#D4D4D4"/>
<path d="M17.8125 15.2812C17.8125 15.2812 18.2812 18.4688 21 18.375C23.7187 18.2813 24.8438 16.7813 24.8438 16.7813C24.8438 16.7813 23.7188 17.3438 21.2813 16.875C18.8438 16.4063 17.8125 15.2812 17.8125 15.2812Z" fill="#858585"/>
<path d="M18 6.74936C18 6.74936 19.2188 2.90561 14.7188 1.96811L13.3125 2.06186C13.3125 2.06186 15.9375 0.374362 19.3125 2.53061C22.5938 4.59311 20.9062 6.65561 20.9062 6.65561C20.9062 6.65561 18.8438 7.12436 18 6.74936ZM19.2188 8.90561C19.2188 8.90561 21.0938 7.40561 22.2188 7.87436C23.3438 8.34311 24.2812 9.84311 22.9688 11.3431C21.6562 12.9369 20.7188 14.4369 21.1875 15.7494C21.1875 15.7494 18.8438 13.5931 19.125 12.1869C19.4062 10.7806 19.875 9.56186 19.2188 8.90561Z" fill="#F0F0F0"/>
<path d="M21.3748 20.0625C21.3748 20.0625 20.4373 21.6562 20.4373 23.7187H18.7498C18.7498 23.7187 19.2186 21.75 20.9998 19.7813L21.3748 20.0625ZM9.56234 22.6875C9.56234 22.6875 6.74984 21.2812 9.46859 18.2812H9.09359C9.09359 18.2812 6.93734 20.0625 7.12484 21.5625C7.21859 22.9687 9.56234 22.6875 9.56234 22.6875Z" fill="#C8CEC6"/>
</g>
<defs>
<clipPath id="clip0_52_40739">
<rect width="30" height="30" fill="white"/>
</clipPath>
</defs>
</svg>
