<svg width="30" height="30" viewBox="0 0 30 30" fill="none" xmlns="http://www.w3.org/2000/svg">
<g clip-path="url(#clip0_52_69027)">
<path d="M13.7822 2.34297C13.7822 2.34297 19.7822 1.12422 21.6572 5.15547C23.5322 9.18672 20.6259 10.6867 20.6259 10.6867L18.5634 8.81172C18.5634 8.81172 21.6572 6.18672 18.9384 4.49922C16.2197 2.81172 14.4384 3.37422 14.4384 3.37422L13.7822 2.43672M21.9384 18.7492C21.9384 18.7492 24.4697 26.0617 19.5009 26.343L16.6884 25.1242L16.4072 25.968C16.4072 25.968 18.0947 27.843 20.5322 27.5617C22.9697 27.2805 26.4384 22.593 23.2509 18.5617L21.9384 18.7492ZM3.18842 11.2492C3.18842 11.2492 -1.49908 15.1867 0.563418 19.218C2.62592 23.2492 5.53217 21.843 5.53217 21.843L5.34467 19.0305C5.34467 19.0305 1.40717 19.7805 1.78217 16.6867C2.15717 13.593 3.75092 12.468 3.75092 12.468L3.37592 11.343M11.6259 14.2492C11.6259 14.2492 12.9384 15.5617 13.0322 17.1555L15.3759 16.4055C15.3759 16.4055 13.3134 13.8742 13.4072 12.7492C13.5009 12.7492 12.3759 14.2492 11.6259 14.2492Z" fill="#962C2C"/>
<path d="M13.5937 16.9688C13.5937 16.9688 18.1875 9.75004 29.0625 11.25L29.625 11.5313C29.625 11.5313 30 14.9063 29.9062 16.6875C29.7187 18.375 29.0625 23.4375 24.75 23.9063C20.4375 24.375 17.1562 22.9688 13.4062 16.875" fill="#962C2C"/>
<path d="M15.2812 16.9681C15.2812 16.9681 19.0312 10.9681 28.125 12.1868L28.5938 12.4681C28.5938 12.4681 28.9688 15.2806 28.7813 16.6868C28.5938 18.0931 28.125 22.3118 24.4688 22.6868C20.8125 23.0618 18.1875 21.9368 15 16.8743" fill="#E52E2E"/>
<path d="M12.6557 16.2187C12.6557 16.2187 18.562 11.1562 15.8432 1.40625L15.562 0.9375C15.562 0.9375 12.3745 1.03125 10.8745 1.3125C9.37449 1.59375 4.87449 2.90625 4.96824 6.9375C5.06199 10.9688 6.74949 13.6875 12.7495 16.3125M19.4057 18.5625C19.4057 18.5625 19.5932 23.4375 24.937 23.0625C24.937 23.0625 22.4995 23.7188 19.1245 22.5L19.4057 18.5625Z" fill="#962C2C"/>
<path d="M17.3438 16.7813C17.3438 16.7813 20.0625 12.4688 26.5312 13.3126L26.9062 13.5001C26.9062 13.5001 27.1875 15.5626 27.0937 16.5938C27 17.6251 26.625 20.6251 24 20.9063C21.375 21.1876 19.5 20.3438 17.25 16.7813" fill="#EF5858"/>
<path d="M13.6872 2.34375C13.6872 2.34375 16.8747 6.28125 13.9685 12.0938L13.6872 12.375C13.6872 12.375 11.7185 12 10.781 11.5313C9.84345 11.1563 7.1247 9.75 7.6872 7.21875C8.2497 4.6875 9.65595 3.1875 13.781 2.15625" fill="#E52E2E"/>
<path d="M10.6875 18.375C10.6875 18.375 12.0937 21.0937 10.6875 23.9062L9.28125 22.5938L10.6875 18.375Z" fill="#A3704D"/>
<path d="M14.157 19.9686C14.157 19.9686 14.7195 25.9686 11.532 27.0936C8.3445 28.2186 2.81325 28.3123 3.37575 21.9373C3.93825 15.5623 11.3445 18.0936 11.3445 18.0936L14.157 19.9686Z" fill="#734F36"/>
<path d="M13.5008 20.2491C13.5008 20.2491 13.9696 25.4991 11.1571 26.4366C8.34456 27.3741 3.56331 27.5616 4.03206 21.9366C4.50081 16.3116 11.0633 18.5616 11.0633 18.5616L13.5008 20.2491Z" fill="#A3704D"/>
<path d="M9.56273 6.18821C9.56273 6.18821 11.2502 12.8445 16.594 16.782C18.3752 18.0945 18.7502 20.532 17.4377 22.2195C17.1565 22.5945 16.7815 22.9695 16.3127 23.157C14.0627 24.1882 11.344 23.2507 8.90648 21.0007C6.46898 18.7507 1.78148 15.4695 2.53148 6.65696C2.53148 6.65696 8.81273 4.96946 9.56273 6.18821Z" fill="#734F36"/>
<path d="M16.2195 20.6256C17.4383 21.4693 18.1883 22.9693 18.0008 24.4693C17.8133 26.2506 17.157 28.4068 15.3758 28.9693C12.1883 30.0006 6.657 30.1881 7.2195 23.9068C7.782 17.6256 15.1883 20.0631 15.1883 20.0631L16.2195 20.6256Z" fill="#734F36"/>
<path d="M9.00081 7.0322C9.00081 7.0322 10.5946 13.5009 15.9383 17.0634C16.8758 17.7197 17.4383 18.8447 17.2508 20.0634C17.0633 21.0009 16.6883 21.9384 15.7508 22.4072C13.6883 23.3447 11.2508 22.5009 9.09456 20.4384C6.93831 18.3759 2.62581 15.3759 3.28206 7.4072C3.28206 7.4072 8.25081 6.00095 9.00081 7.0322Z" fill="#A3704D"/>
<path d="M4.78082 2.34375C4.78082 2.34375 2.62457 2.34375 1.68707 3.9375C0.749567 5.53125 0.749567 8.15625 2.53082 9.5625C2.53082 9.5625 3.74957 10.2187 4.12457 9.75C4.49957 9.28125 4.87457 7.78125 4.87457 7.78125L4.78082 2.34375Z" fill="#734F36"/>
<path d="M4.2185 2.8125C4.2185 2.8125 2.81225 2.90625 2.06225 4.3125C1.31225 5.71875 1.2185 7.78125 2.7185 8.90625C2.7185 8.90625 3.74975 9.46875 4.031 9C4.31225 8.625 4.5935 7.40625 4.5935 7.40625L4.2185 2.8125Z" fill="#A3704D"/>
<path d="M3.37562 7.40585C3.37562 7.40585 3.00062 9.46835 6.46937 10.0308C9.93812 10.5933 12.0006 10.0308 12.2819 9.1871C12.5631 8.2496 12.3756 7.78085 10.7819 6.5621C9.18812 5.34335 9.00062 2.4371 6.28187 2.0621C3.56312 1.6871 2.71937 4.59335 3.37562 7.40585Z" fill="#A3704D"/>
<path d="M4.12431 7.21881C4.12431 7.21881 3.84306 8.90631 6.74931 9.46881C9.65556 10.0313 11.3431 9.46881 11.6243 8.71881C11.8118 7.96881 11.6243 7.59381 10.4056 6.56256C9.18681 5.53131 8.81181 3.09381 6.56181 2.71881C4.31181 2.34381 3.56181 4.87506 4.12431 7.21881ZM15.7493 21.0938C16.8743 21.8438 17.4368 23.1563 17.3431 24.4688C17.1556 26.0626 16.5931 27.8438 15.0931 28.4063C12.2806 29.3438 7.49931 29.5313 7.96806 23.9063C8.43681 18.2813 14.9993 20.5313 14.9993 20.5313L15.7493 21.0938Z" fill="#A3704D"/>
<path opacity="0.53" d="M3.84302 5.0625C3.84302 5.0625 3.65552 7.3125 7.21802 8.0625C10.7805 8.8125 12.093 8.71875 12.093 8.71875C12.093 8.71875 11.8118 9.75 10.3118 9.84375C8.81177 9.9375 2.99927 11.1562 3.84302 5.0625Z" fill="#A3704D"/>
<path opacity="0.46" d="M1.78069 4.21875C1.78069 4.21875 1.40569 7.59375 3.74944 7.6875C3.74944 7.6875 4.40569 8.34375 4.31194 8.71875C4.21819 9.09375 4.12444 9.5625 3.65569 9.5625C3.09319 9.65625 0.186944 8.71875 1.78069 4.21875Z" fill="#734F36"/>
<path d="M5.53209 4.12467C5.53209 3.84342 5.71959 3.56217 5.90709 3.37467C6.18834 3.28092 6.46959 3.37467 6.75084 3.56217C7.50084 3.93717 7.96959 4.68717 8.43834 5.34342C8.53209 5.53092 8.62584 5.71842 8.62584 5.90592C8.53209 6.18717 8.15709 6.28092 7.87584 6.28092C6.75084 6.37467 5.43834 5.34342 5.53209 4.12467ZM15.7508 17.4372C14.8133 16.5934 13.6883 16.1247 12.6571 15.3747C11.6258 14.5309 10.6883 13.4059 10.2196 12.1872C10.1258 11.9059 10.0321 11.7184 9.93834 11.5309C9.84459 11.3434 9.56334 11.1559 9.37584 11.0622C8.90709 10.9684 8.43834 11.4372 8.34459 11.9059C8.25084 12.3747 8.53209 12.9372 8.81334 13.3122L10.7821 16.4997C11.7196 17.8122 12.9383 19.1247 14.4383 19.5934C14.8133 19.6872 15.1883 19.7809 15.5633 19.6872C15.9383 19.5934 16.2196 19.3122 16.4071 19.0309C16.5008 18.3747 16.1258 17.8122 15.7508 17.4372Z" fill="#A3704D"/>
<path d="M6 9.84357C6 10.0311 5.90625 10.2186 5.90625 10.3123C5.625 10.9686 5.625 11.6248 5.71875 12.2811C6.09375 14.8123 7.3125 17.2498 8.90625 19.1248C9.09375 19.4061 9.375 19.5936 9.375 19.9686C9.375 20.2498 9.1875 20.6248 8.8125 20.6248C8.71875 20.6248 8.53125 20.5311 8.4375 20.3436L6 17.8123C5.25 17.0623 4.5 16.3123 4.03125 15.3748C3.28125 13.9686 3.1875 12.2811 3.09375 10.6873C3.09375 10.4061 3.09375 10.1248 3.1875 9.84357C3.28125 9.56232 3.46875 9.37482 3.75 9.18732C4.125 8.90607 4.59375 8.90607 4.96875 9.09357C5.25 9.18732 6 9.46857 6 9.84357Z" fill="#734F36"/>
<path d="M7.78125 20.8125C7.5 21.1875 7.125 21.5625 6.75 21.9375C6.09375 22.7813 5.90625 24 6.28125 24.9375C6.65625 25.7813 7.3125 26.3438 8.0625 26.9063C7.21875 27.2813 6.1875 27.2813 5.4375 26.7188C4.78125 26.25 4.3125 25.4063 4.03125 24.6563C3.84375 24.0938 3.65625 23.4375 3.65625 22.7813C3.65625 21.375 4.21875 20.0625 5.15625 19.125C5.4375 18.8438 5.8125 18.5625 6.1875 18.5625C6.84375 18.5625 7.21875 19.125 7.59375 19.5C8.0625 19.7813 8.0625 20.3438 7.78125 20.8125Z" fill="#734F36"/>
<path opacity="0.38" d="M8.9056 24.0005C9.0931 25.0317 9.56185 25.9692 10.4056 26.6255C11.0618 27.0942 11.9056 27.2817 12.7493 27.2817C13.5931 27.2817 14.4368 27.188 15.1868 27.0005C15.5618 26.9067 16.0306 27.0005 16.1243 27.2817C16.2181 27.563 16.0306 27.8442 15.7493 28.0317C14.9993 28.688 13.9681 28.9692 12.9368 29.063C11.9056 29.1567 10.9681 28.9692 9.93685 28.8755C9.4681 28.7817 8.99935 28.688 8.62435 28.5005C8.1556 28.2192 7.9681 27.6567 7.7806 27.188C7.31185 25.688 7.4056 24.0942 7.9681 22.688C8.06185 22.4067 8.62435 20.9067 8.99935 21.563C9.0931 21.7505 8.81185 22.5005 8.81185 22.688C8.81185 23.063 8.81185 23.5317 8.9056 24.0005Z" fill="#734F36"/>
<path d="M8.53125 20.1562C8.53125 20.1562 6.75 21.9375 6.09375 24.6562C5.4375 27.375 4.21875 24.8438 4.21875 24.8438C4.21875 24.8438 4.40625 26.8125 7.96875 27.1875C7.96875 27.1875 7.40625 22.4062 8.4375 20.9062L9 20.7188L8.53125 20.1562Z" fill="#A3704D"/>
<path d="M15.4695 18.6567C15.4695 18.6567 16.2195 24.6567 13.1257 25.8755C9.93823 27.0942 4.50073 27.4692 4.78198 21.0942C5.06323 14.7192 12.657 16.9692 12.657 16.9692L15.4695 18.6567Z" fill="#A3704D"/>
<path d="M14.8124 19.0311C14.8124 19.0311 15.4687 24.2811 12.7499 25.3123C10.0312 26.3436 5.15619 26.7186 5.43744 21.0936C5.71869 15.4686 12.3749 17.4373 12.3749 17.4373L14.8124 19.0311Z" fill="#FCC097"/>
<path d="M10.4072 5.15589C10.4072 5.15589 12.2822 11.7184 17.9072 15.5621C19.6884 16.7809 20.2509 19.2184 19.0322 20.9996C18.7509 21.3746 18.3759 21.7496 17.9072 21.9371C15.6572 23.0621 12.9384 22.2184 10.4072 19.9684C7.87592 17.7184 3.00092 14.6246 3.37592 5.81214C3.37592 5.81214 9.56342 3.93714 10.4072 5.15589Z" fill="#A3704D"/>
<path d="M17.6257 19.313C18.9382 20.1567 19.5945 21.563 19.5007 23.063C19.407 24.8442 18.8445 27.0005 17.0632 27.6567C13.8757 28.8755 8.43823 29.2505 8.71948 22.8755C9.00073 16.5005 16.5945 18.7505 16.5945 18.7505L17.6257 19.313Z" fill="#A3704D"/>
<path d="M9.84281 5.99966C9.84281 5.99966 11.7178 12.4684 17.1553 15.7497C18.1866 16.3122 18.6553 17.5309 18.5616 18.6559C18.4678 19.5934 18.0928 20.5309 17.1553 20.9997C15.0928 22.0309 12.6553 21.1872 10.4053 19.3122C8.15531 17.4372 3.74906 14.5309 4.12406 6.56216C4.12406 6.56216 9.09281 4.96841 9.84281 5.99966Z" fill="#FCC097"/>
<path d="M5.43679 1.40625C5.43679 1.40625 3.28054 1.5 2.43679 3.1875C1.59304 4.875 1.68679 7.40625 3.46804 8.71875C3.46804 8.71875 4.78054 9.375 5.06179 8.8125C5.34304 8.34375 5.71804 6.84375 5.71804 6.84375L5.43679 1.40625Z" fill="#A3704D"/>
<path d="M4.87517 1.96875C4.87517 1.96875 3.46892 2.15625 2.71892 3.5625C1.96892 4.96875 2.06267 7.03125 3.56267 8.0625C3.56267 8.0625 4.59392 8.53125 4.87517 8.15625C5.15642 7.78125 5.43767 6.46875 5.43767 6.46875L4.87517 1.96875Z" fill="#E8AB82"/>
<path d="M4.21828 6.56314C4.21828 6.56314 3.93703 8.62564 7.40578 9.09439C10.8745 9.56314 12.937 8.90689 13.1245 7.96939C13.312 7.03189 13.1245 6.56314 11.5308 5.43814C9.93703 4.31314 9.56203 1.50064 6.84328 1.12564C4.12453 0.750639 3.46828 3.75064 4.21828 6.56314Z" fill="#A3704D"/>
<path d="M4.96904 6.37541C4.96904 6.37541 4.68779 8.06291 7.68779 8.43791C10.6878 8.81291 12.2815 8.25041 12.5628 7.50041C12.7503 6.75041 12.5628 6.37541 11.2503 5.34416C9.93779 4.31291 9.65654 1.96916 7.31279 1.78166C4.96904 1.59416 4.31279 4.03166 4.96904 6.37541Z" fill="#E8AB82"/>
<path d="M17.1562 19.7811C18.2812 20.5311 18.9374 21.7498 18.8437 23.1561C18.7499 24.7498 18.2812 26.6248 16.6874 27.1873C13.9687 28.2186 9.09369 28.5936 9.37494 22.9686C9.65619 17.3436 16.3124 19.3123 16.3124 19.3123L17.1562 19.7811Z" fill="#FCC097"/>
<path opacity="0.53" d="M4.59323 4.125C4.59323 4.125 4.49948 6.375 8.06198 7.03125C11.6245 7.6875 12.937 7.5 12.937 7.5C12.937 7.5 12.6557 8.53125 11.1557 8.625C9.65573 8.8125 3.93698 10.3125 4.59323 4.125Z" fill="#A3704D"/>
<path opacity="0.53" d="M2.53058 3.46875C2.53058 3.46875 2.24933 6.84375 4.59308 6.84375C4.59308 6.84375 5.24933 7.40625 5.15558 7.875C5.06183 8.34375 5.06183 8.71875 4.59308 8.71875C4.03058 8.8125 1.12433 7.96875 2.53058 3.46875Z" fill="#A3704D"/>
<path d="M6.28209 3.18765C6.28209 2.9064 6.37584 2.62515 6.65709 2.43765C6.93834 2.25015 7.21959 2.43765 7.50084 2.5314C8.25084 2.9064 8.71959 3.6564 9.18834 4.31265C9.28209 4.50015 9.37584 4.68765 9.37584 4.87515C9.37584 5.1564 9.00084 5.25015 8.71959 5.3439C7.50084 5.43765 6.18834 4.50015 6.28209 3.18765ZM16.9696 16.1251C16.0321 15.2814 14.8133 14.8126 13.7821 14.1564C12.6571 13.4064 11.8133 12.2814 11.2508 11.0626C11.1571 10.8751 11.0633 10.5939 10.8758 10.4064C10.6883 10.2189 10.5008 10.0314 10.2196 9.93765C9.75084 9.8439 9.28209 10.3126 9.18834 10.8751C9.18834 11.3439 9.37584 11.8126 9.75084 12.2814C9.75084 12.2814 10.9696 14.3439 11.9071 15.3751C12.9383 16.6876 14.1571 17.9064 15.6571 18.2814C16.0321 18.3751 16.4071 18.3751 16.7821 18.2814C17.1571 18.1876 17.4383 17.9064 17.5321 17.5314C17.7196 17.0626 17.3446 16.5001 16.9696 16.1251Z" fill="#FFE8D9"/>
<path opacity="0.3" d="M6.93815 8.90568C6.93815 9.09318 6.8444 9.28068 6.8444 9.37443C6.6569 10.0307 6.75065 10.6869 6.8444 11.3432C7.31315 13.8744 8.5319 16.2182 10.3132 18.0932C10.5007 18.3744 10.7819 18.5619 10.8757 18.9369C10.9694 19.3119 10.5944 19.6869 10.3132 19.5932C10.2194 19.5932 10.0319 19.4994 9.93815 19.4057L7.4069 16.9682C6.6569 16.2182 5.9069 15.5619 5.3444 14.6244C4.50065 13.2182 4.4069 11.5307 4.2194 9.93693C4.2194 9.65568 4.12565 9.37443 4.2194 9.09318C4.2194 8.71818 4.4069 8.53068 4.68815 8.34318C5.06315 8.06193 5.5319 8.06193 5.9069 8.15568C6.18815 8.24943 6.8444 8.53068 6.93815 8.90568Z" fill="#A3704D"/>
<path opacity="0.38" d="M9.09413 19.7812C8.81288 20.25 8.43788 20.5312 8.15663 20.9062C7.50038 21.75 7.31288 22.9687 7.78163 23.9062C8.15663 24.75 8.90663 25.3125 9.56288 25.7812C8.71913 26.25 7.68788 26.1562 6.93788 25.6875C6.18788 25.2187 5.81288 24.4688 5.43788 23.625C5.25038 23.0625 5.06288 22.4062 4.96913 21.75C4.87538 20.3438 5.43788 19.0312 6.37538 18C6.75038 17.8125 7.12538 17.5312 7.50038 17.5312C8.15663 17.5312 8.53163 18.0937 9.00038 18.375C9.37538 18.75 9.37538 19.3125 9.09413 19.7812Z" fill="#A3704D"/>
<path opacity="0.38" d="M10.4062 22.8751C10.5938 23.9064 11.1562 24.8439 12 25.4064C12.6562 25.8751 13.5937 25.9689 14.3437 25.9689C15.1875 25.9689 16.0312 25.7814 16.7812 25.5939C17.1562 25.5001 17.625 25.5001 17.7187 25.8751C17.8125 26.1564 17.625 26.4376 17.4375 26.6251C16.6875 27.2814 15.6562 27.6564 14.7187 27.7501C13.6875 27.8439 12.75 27.7501 11.7187 27.6564C11.25 27.5626 10.7812 27.5626 10.4062 27.2814C9.9375 27.0001 9.65625 26.5314 9.46875 25.9689C8.90625 24.5626 8.90625 22.8751 9.46875 21.4689C9.5625 21.1876 10.125 19.6876 10.5 20.2501C10.5937 20.4376 10.4062 21.1876 10.4062 21.3751C10.3125 22.0314 10.3125 22.5001 10.4062 22.8751Z" fill="#A3704D"/>
<path d="M9.84375 19.125C9.84375 19.125 8.15625 21 7.59375 23.7187C7.03125 26.4375 5.71875 24 5.71875 24C5.71875 24 6 25.9688 9.5625 26.25C9.5625 26.25 8.8125 21.4687 9.75 19.9687L10.3125 19.6875L9.84375 19.125Z" fill="#734F36"/>
<path d="M18.8437 16.5C18.8437 16.5 20.5313 18.2813 19.4063 23.625L17.5312 21.9375L18.8437 16.5Z" fill="#A3704D"/>
<path d="M18.1875 16.7812C18.1875 16.7812 19.875 18.5625 18.75 23.9063L16.875 22.2188L18.1875 16.7812Z" fill="#FCC097"/>
<path d="M14.3431 20.8128C15.0931 20.9066 15.9368 21.2816 16.3118 22.0316C16.7806 22.9691 16.2181 24.0941 15.3743 24.5628C14.5306 25.0316 13.3118 24.8441 12.5618 24.1878C12.0931 23.8128 11.7181 23.2503 11.6243 22.6878C11.1556 21.0003 13.0306 20.7191 14.3431 20.8128Z" fill="#FFE8D9"/>
<path d="M4.40625 25.875C4.40625 25.875 7.5 28.2188 8.4375 22.4062C8.4375 22.4062 8.71875 22.875 8.71875 23.0625C8.71875 23.25 7.3125 26.7188 9.65625 28.7813L7.96875 26.9063L8.15625 27.375C8.15625 27.375 7.5 27.4688 7.3125 27.375C7.03125 27.375 4.875 27.0938 4.40625 25.875Z" fill="#734F36"/>
</g>
<defs>
<clipPath id="clip0_52_69027">
<rect width="30" height="30" fill="white"/>
</clipPath>
</defs>
</svg>
