<svg width="26" height="21" viewBox="0 0 26 21" fill="none" xmlns="http://www.w3.org/2000/svg">
<path d="M21.6437 19.6102H4.35577C3.44584 19.6102 2.57317 19.336 1.92975 18.8478C1.28633 18.3597 0.924862 17.6976 0.924862 17.0072V8.99094C0.924827 8.69511 1.00981 8.40283 1.17389 8.13446C1.33798 7.86609 1.57721 7.6281 1.87493 7.43705L11.2663 1.40663C11.7508 1.09556 12.365 0.924862 12.9997 0.924862C13.6345 0.924862 14.2486 1.09556 14.7332 1.40663L24.1245 7.43705C24.4222 7.6281 24.6615 7.86609 24.8256 8.13446C24.9896 8.40283 25.0746 8.69511 25.0746 8.99094V17.0072C25.0746 17.3491 24.9858 17.6875 24.8134 18.0033C24.641 18.3191 24.3883 18.6061 24.0697 18.8478C23.7511 19.0895 23.3729 19.2812 22.9566 19.4121C22.5404 19.5429 22.0942 19.6102 21.6437 19.6102V19.6102Z" stroke="#5D65FF" stroke-width="1.84423" stroke-linecap="round" stroke-linejoin="round"/>
<path d="M16.3539 19.6099V13.3504C16.3539 13.127 16.2369 12.9128 16.0288 12.7548C15.8206 12.5969 15.5382 12.5082 15.2438 12.5082H10.7555C10.4611 12.5082 10.1787 12.5969 9.97055 12.7548C9.76237 12.9128 9.64541 13.127 9.64541 13.3504V19.6099" stroke="#5D65FF" stroke-width="1.84423" stroke-linecap="round" stroke-linejoin="round"/>
</svg>
