<svg width="20" height="18" viewBox="0 0 20 18" fill="none" xmlns="http://www.w3.org/2000/svg">
<path fill-rule="evenodd" clip-rule="evenodd" d="M4.70464 0.292884C4.51392 0.480414 4.40678 0.73476 4.40678 0.999968V3.66655C4.40678 3.93176 4.51392 4.1861 4.70464 4.37363C4.89535 4.56116 5.15402 4.66652 5.42373 4.66652C5.69344 4.66652 5.95211 4.56116 6.14282 4.37363C6.33354 4.1861 6.44068 3.93176 6.44068 3.66655V0.999968C6.44068 0.73476 6.33354 0.480414 6.14282 0.292884C5.95211 0.105353 5.69344 0 5.42373 0C5.15402 0 4.89535 0.105353 4.70464 0.292884ZM9.49153 3.66655C9.49153 3.93176 9.38438 4.1861 9.19367 4.37363C9.00295 4.56116 8.74429 4.66652 8.47458 4.66652C8.20486 4.66652 7.9462 4.56116 7.75548 4.37363C7.56477 4.1861 7.45763 3.93176 7.45763 3.66655V0.999968C7.45763 0.73476 7.56477 0.480414 7.75548 0.292884C7.9462 0.105353 8.20486 0 8.47458 0C8.74429 0 9.00295 0.105353 9.19367 0.292884C9.38438 0.480414 9.49153 0.73476 9.49153 0.999968V3.66655ZM12.2445 4.37363C12.4352 4.1861 12.5424 3.93176 12.5424 3.66655V0.999968C12.5424 0.73476 12.4352 0.480414 12.2445 0.292884C12.0538 0.105353 11.7951 0 11.5254 0C11.2557 0 10.997 0.105353 10.8063 0.292884C10.6156 0.480414 10.5085 0.73476 10.5085 0.999968V3.66655C10.5085 3.93176 10.6156 4.1861 10.8063 4.37363C10.997 4.56116 11.2557 4.66652 11.5254 4.66652C11.7951 4.66652 12.0538 4.56116 12.2445 4.37363ZM18.9438 12.22C19.6199 11.5361 19.9988 10.6202 20 9.66635V8.99971C19.9989 8.02762 19.6057 7.09566 18.9066 6.40829C18.2076 5.72091 17.2598 5.33426 16.2712 5.33316H1.01695C0.747238 5.33316 0.488573 5.43851 0.297858 5.62604C0.107143 5.81357 0 6.06792 0 6.33313V10.333C0.00316871 12.4347 0.811936 14.4581 2.265 15.9995H1.01695C0.747238 15.9995 0.488573 16.1048 0.297858 16.2924C0.107143 16.4799 0 16.7342 0 16.9994C0 17.2647 0.107143 17.519 0.297858 17.7065C0.488573 17.8941 0.747238 17.9994 1.01695 17.9994H11.5691L11.5766 17.9997L11.5856 18L11.59 17.9998L11.5912 17.9997L11.5968 17.9994H15.9322C16.2019 17.9994 16.4606 17.8941 16.6513 17.7065C16.842 17.519 16.9492 17.2647 16.9492 16.9994C16.9492 16.7342 16.842 16.4799 16.6513 16.2924C16.4606 16.1048 16.2019 15.9995 15.9322 15.9995H14.6842C15.4147 15.2226 15.9893 14.317 16.3776 13.3302C17.3472 13.3021 18.2676 12.9039 18.9438 12.22ZM13.4246 14.3802C13.994 13.706 14.4156 12.9232 14.6628 12.0812L14.6644 12.0751C14.6688 12.0582 14.6733 12.0412 14.6787 12.0248C14.8353 11.474 14.9149 10.9049 14.9153 10.333V7.3331H2.0339V10.333C2.03625 11.509 2.3704 12.6614 2.99917 13.6618C3.62793 14.6622 4.52666 15.4714 5.59534 15.9995H11.3539C12.1502 15.6058 12.8552 15.0545 13.4246 14.3802ZM16.9492 7.47326C17.2511 7.60308 17.5081 7.81656 17.6887 8.08764C17.8693 8.35872 17.9657 8.67564 17.9661 8.99971V9.66635C17.9656 9.99909 17.8639 10.3241 17.6742 10.5996C17.4844 10.875 17.2152 11.0884 16.9011 11.2123C16.933 10.9202 16.949 10.6267 16.9492 10.333V7.47326Z" fill="#BABBC3"/>
</svg>
