<svg width="24" height="18" viewBox="0 0 24 18" fill="none" xmlns="http://www.w3.org/2000/svg">
<path d="M20.3763 0H3.62368C2.66295 0.000816822 1.74188 0.294401 1.06254 0.816341C0.383199 1.33828 0.00107996 2.04595 1.68143e-05 2.78408V16.1285C-0.001338 16.3531 0.0792053 16.5736 0.23253 16.765C0.385854 16.9563 0.605836 17.1109 0.867572 17.2111C1.12931 17.3114 1.42235 17.3533 1.71352 17.3323C2.00468 17.3112 2.28235 17.2279 2.51509 17.0918L5.76454 15.2011H20.3763C21.3369 15.2004 22.2579 14.907 22.9372 14.3853C23.6165 13.8635 23.9988 13.1561 24 12.4181V2.78408C23.9989 2.04595 23.6168 1.33828 22.9375 0.816341C22.2581 0.294401 21.3371 0.000816822 20.3763 0ZM15.9587 9.94257H8.04129C7.81936 9.94257 7.60652 9.87483 7.44959 9.75426C7.29266 9.63369 7.2045 9.47017 7.2045 9.29965C7.2045 9.12914 7.29266 8.96561 7.44959 8.84504C7.60652 8.72447 7.81936 8.65674 8.04129 8.65674H15.9587C16.1807 8.65674 16.3935 8.72447 16.5504 8.84504C16.7074 8.96561 16.7955 9.12914 16.7955 9.29965C16.7955 9.47017 16.7074 9.63369 16.5504 9.75426C16.3935 9.87483 16.1807 9.94257 15.9587 9.94257ZM15.9587 6.41682H10.7605C10.5444 6.41017 10.34 6.33953 10.1901 6.21969C10.0403 6.09985 9.95656 5.9401 9.95656 5.7739C9.95656 5.60771 10.0403 5.44796 10.1901 5.32811C10.34 5.20827 10.5444 5.13763 10.7605 5.13099H15.9587C16.1749 5.13763 16.3793 5.20827 16.5291 5.32811C16.679 5.44796 16.7627 5.60771 16.7627 5.7739C16.7627 5.9401 16.679 6.09985 16.5291 6.21969C16.3793 6.33953 16.1749 6.41017 15.9587 6.41682Z" fill="#25396F"/>
</svg>
