<svg width="17" height="17" viewBox="0 0 17 17" fill="none" xmlns="http://www.w3.org/2000/svg">
<path d="M6.18182 17H10.8182V15.4545H6.18182V17ZM10.8182 17C12.8262 17 14.4329 16.6031 15.518 15.518C16.6031 14.4329 17 12.8262 17 10.8182H15.4545C15.4545 12.6738 15.0787 13.7716 14.4252 14.4252C13.7716 15.0787 12.6738 15.4545 10.8182 15.4545V17ZM17 10.8182V6.18182H15.4545V10.8182H17ZM17 6.18182C17 4.17379 16.6031 2.56714 15.518 1.48201C14.4329 0.396874 12.8262 0 10.8182 0V1.54545C12.6738 1.54545 13.7716 1.92131 14.4252 2.57481C15.0787 3.22831 15.4545 4.32621 15.4545 6.18182H17ZM10.8182 0H6.18182V1.54545H10.8182V0ZM6.18182 0C4.17379 0 2.56714 0.396874 1.48201 1.48201C0.396874 2.56714 0 4.17379 0 6.18182H1.54545C1.54545 4.32621 1.92131 3.22831 2.57481 2.57481C3.22831 1.92131 4.32621 1.54545 6.18182 1.54545V0ZM0 6.18182V10.8182H1.54545V6.18182H0ZM0 10.8182C0 12.8262 0.396874 14.4329 1.48201 15.518C2.56714 16.6031 4.17379 17 6.18182 17V15.4545C4.32621 15.4545 3.22831 15.0787 2.57481 14.4252C1.92131 13.7716 1.54545 12.6738 1.54545 10.8182H0Z" fill="#010101"/>
<path d="M10.4318 8.5C10.4318 9.56691 9.56691 10.4318 8.5 10.4318V11.9773C10.4204 11.9773 11.9773 10.4204 11.9773 8.5H10.4318ZM8.5 10.4318C7.43309 10.4318 6.56818 9.56691 6.56818 8.5H5.02273C5.02273 10.4204 6.57956 11.9773 8.5 11.9773V10.4318ZM6.56818 8.5C6.56818 7.43309 7.43309 6.56818 8.5 6.56818V5.02273C6.57956 5.02273 5.02273 6.57956 5.02273 8.5H6.56818ZM8.5 6.56818C9.56691 6.56818 10.4318 7.43309 10.4318 8.5H11.9773C11.9773 6.57956 10.4204 5.02273 8.5 5.02273V6.56818Z" fill="#010101"/>
<path d="M12.6212 3.47727C12.0522 3.47727 11.5909 3.93855 11.5909 4.50758C11.5909 5.0766 12.0522 5.53788 12.6212 5.53788V3.47727ZM12.6301 5.53788C13.1992 5.53788 13.6604 5.0766 13.6604 4.50758C13.6604 3.93855 13.1992 3.47727 12.6301 3.47727V5.53788ZM12.6212 5.53788H12.6301V3.47727H12.6212V5.53788Z" fill="#010101"/>
</svg>
