<svg width="30" height="30" viewBox="0 0 30 30" fill="none" xmlns="http://www.w3.org/2000/svg">
<g clip-path="url(#clip0_52_52816)">
<path d="M21.6563 17.5313C24.038 17.5313 25.9688 15.6005 25.9688 13.2188C25.9688 10.837 24.038 8.90625 21.6563 8.90625C19.2745 8.90625 17.3438 10.837 17.3438 13.2188C17.3438 15.6005 19.2745 17.5313 21.6563 17.5313Z" fill="#493426"/>
<path d="M17.3438 5.34375L17.4375 5.4375C18 6 20.625 8.90625 20.3438 14.625C20.3438 14.625 20.625 16.4062 22.9688 16.4062C22.9688 16.4062 22.7813 15.1875 23.1563 14.3438C23.5313 13.5 24.4688 9.09375 23.4375 6.75C22.4063 4.40625 19.5938 1.875 16.2188 1.59375" fill="#302119"/>
<path d="M5.7183 26.3428C3.56205 25.1241 2.5308 22.0303 3.6558 19.0303C4.0308 17.9991 6.0933 15.3741 6.6558 14.9053C8.5308 13.4053 16.5933 12.1866 22.8746 17.2491C23.9996 18.1866 24.8433 19.6866 25.2183 21.3741V21.4678C26.0621 26.0616 24.6558 29.8116 20.8121 29.8116C16.4996 29.7178 9.4683 28.5928 5.7183 26.3428Z" fill="#692A2A"/>
<path d="M6.4688 25.2182C4.5938 24.0932 3.56255 21.4682 4.5938 18.9369C4.9688 18.0932 6.75005 15.7494 7.31255 15.3744C9.00005 14.0619 16.125 13.0307 21.75 17.3432C22.7813 18.0932 23.5313 19.4057 23.8125 20.9057V20.9994C24.5625 24.9369 23.25 28.1244 19.9688 28.1244C16.0313 28.1244 9.8438 27.1869 6.4688 25.2182Z" fill="#BD4F53"/>
<path d="M5.99988 22.9691C4.03113 22.0316 4.78113 19.8753 5.81238 17.5316C6.18738 16.7816 7.03113 16.0316 7.59363 15.6566C9.37489 14.5316 16.2186 13.5003 21.8436 17.2503C22.8749 17.9066 23.6249 19.0316 23.9061 20.3441V20.4378C24.6561 23.9066 22.1249 26.9066 19.0311 26.4378C15.0936 25.8753 9.37488 24.5628 5.99988 22.9691Z" fill="#E8A77B"/>
<path d="M5.81249 22.9689C4.12499 22.0314 5.90624 21.0002 6.74999 18.6564C7.03124 17.9064 8.71874 16.2189 9.18749 15.8439C10.6875 14.7189 14.4375 13.4064 19.3125 17.2502C20.1562 17.9064 20.9062 19.0314 21.0937 20.3439V20.4377C21.75 23.9064 20.0625 26.5314 17.3437 26.0627C14.0625 25.4064 8.71874 24.5627 5.81249 22.9689Z" fill="#FFDEC2"/>
<path d="M18.0937 17.0625C18.0937 17.0625 18.9375 21.2812 16.4062 22.5938C16.4062 22.5938 22.7812 22.4062 24.4688 21.375C24.4688 21.375 25.0312 17.8125 20.0625 16.2187L18.0937 17.0625ZM7.78125 15.5625C7.78125 15.5625 6.65625 16.4062 5.625 18.0937L6.84375 18.8438L7.03125 20.7188C7.03125 20.7188 6.75 17.8125 9.1875 16.6875L7.78125 15.5625Z" fill="#BD4F53"/>
<path d="M5.71872 19.5C5.71872 19.5 10.5 24 24.2812 21.375L22.6875 25.6875C22.6875 25.6875 18.1875 26.5313 12.0937 25.0313C6.37497 23.625 3.93747 24.9375 5.71872 19.5Z" fill="#8E4028"/>
<path d="M4.6877 19.2186C4.78145 18.8436 4.96895 19.9686 5.34395 20.1561C6.65645 20.9998 9.46895 22.7811 16.6877 23.5311C18.3752 23.7186 21.3752 22.4061 24.2814 21.7498C24.2814 21.7498 24.3752 22.4061 24.2814 23.2498C24.0002 25.2186 22.1252 26.8123 20.1564 26.8123C17.8127 26.8123 15.4689 26.7186 12.0939 25.8748C6.5627 24.4686 3.46895 23.9061 4.6877 19.2186Z" fill="#E08484"/>
<path d="M8.625 25.3125C8.625 25.3125 9.9375 25.0312 10.7813 24C10.7813 24 11.0625 25.7812 12.2813 26.1562C12.2813 26.25 9 25.5 8.625 25.3125Z" fill="#BD4F53"/>
<path d="M14.9062 23.4375C14.9062 23.4375 20.0625 22.7812 19.5 17.7187C19.5 17.7187 20.9062 16.875 22.0312 17.9062C23.1562 18.9375 24.8438 19.9687 24.1875 23.0625C24.0938 23.0625 15.6562 25.125 14.9062 23.4375ZM7.5 21.5625C7.5 21.5625 6.65625 19.125 7.3125 17.9062C7.96875 16.6875 9.09375 15.9375 9.09375 15.9375L8.15625 15.1875C8.15625 15.1875 5.0625 17.4375 4.59375 19.875L7.5 21.5625Z" fill="#E08484"/>
<path d="M19.5937 24.8432C19.5937 24.8432 19.875 25.8745 19.5937 27.0932H21.1875C21.1875 27.0932 20.9062 24.8432 19.4062 23.062L19.5937 24.8432ZM5.53125 21.7495C5.53125 21.7495 5.34375 22.5932 5.625 23.6245L4.3125 23.7182C4.3125 23.7182 4.40625 22.687 4.875 21.562C4.96875 21.2807 5.53125 21.3745 5.53125 21.7495Z" fill="#BD4F53"/>
<path d="M11.9062 23.625C11.9062 23.625 16.4061 22.7813 18.5624 24.0938C18.5624 24.0938 19.1249 25.0312 18.5624 25.3125C17.9999 25.5 14.0624 23.625 11.9999 24.2812C11.9999 24.1875 11.5312 23.8125 11.9062 23.625ZM5.8124 21.5625C5.8124 21.5625 9.09365 21.6563 10.4062 22.9688C10.4062 22.9688 10.6874 23.7187 10.2187 23.8125C9.7499 23.9062 7.3124 21.9375 5.71865 22.0312C5.8124 22.0312 5.53115 21.6562 5.8124 21.5625Z" fill="#F4ABAB"/>
<path d="M9.9375 2.71875C9.9375 2.71875 13.7812 0.75 16.9688 2.0625C16.9688 2.0625 17.9062 3.28125 15.5625 3.5625C13.2188 3.84375 13.2188 2.53125 9.9375 2.71875Z" fill="white"/>
<path d="M23.1413 10.1048C23.1583 5.39312 19.3526 1.5597 14.6409 1.54263C9.92925 1.52556 6.09584 5.33129 6.07876 10.043C6.06169 14.7546 9.86742 18.5881 14.5791 18.6051C19.2908 18.6222 23.1242 14.8165 23.1413 10.1048Z" fill="#8E4028"/>
<path d="M22.7031 9.55588C22.7198 4.94775 19.0397 1.19875 14.4833 1.18224C9.92697 1.16573 6.21978 4.88797 6.20309 9.49609C6.18639 14.1042 9.8665 17.8532 14.4229 17.8697C18.9792 17.8862 22.6864 14.164 22.7031 9.55588Z" fill="#E8A77B"/>
<path d="M22.6373 9.30766C22.6532 4.90665 19.2243 1.32644 14.9786 1.31106C10.733 1.29567 7.27822 4.85093 7.26227 9.25195C7.24633 13.653 10.6752 17.2332 14.9209 17.2486C19.1666 17.2639 22.6213 13.7087 22.6373 9.30766Z" fill="#E8BD89"/>
<path d="M18.3795 10.4197C18.3911 7.20952 15.8821 4.59805 12.7755 4.58679C9.66892 4.57553 7.14109 7.16875 7.12946 10.3789C7.11783 13.5891 9.6268 16.2005 12.7334 16.2118C15.84 16.223 18.3678 13.6298 18.3795 10.4197Z" fill="#FFDEC2"/>
<path d="M6.75 8.8125C6.75 8.8125 7.03125 7.59375 9.84375 7.59375C12.6562 7.59375 16.6875 7.875 18.375 6.09375L17.8125 5.4375C17.8125 5.4375 16.125 6.375 13.3125 6.375C10.5 6.375 6.84375 7.125 6.65625 7.40625C6.46875 7.6875 6.75 8.8125 6.75 8.8125Z" fill="#E8A77B"/>
<path d="M15.4262 10.9703C15.4281 10.4525 15.0939 10.0316 14.6796 10.0301C14.2654 10.0286 13.9281 10.4471 13.9262 10.9648C13.9244 11.4826 14.2586 11.9036 14.6729 11.9051C15.0871 11.9066 15.4244 11.488 15.4262 10.9703Z" fill="#8E4028"/>
<path d="M15.0212 10.6732C15.0216 10.5697 14.9379 10.4854 14.8344 10.4851C14.7308 10.4847 14.6466 10.5683 14.6462 10.6719C14.6458 10.7754 14.7295 10.8597 14.833 10.8601C14.9366 10.8604 15.0208 10.7768 15.0212 10.6732Z" fill="white"/>
<path d="M9.20066 9.99567C9.20254 9.4779 8.86827 9.05695 8.45406 9.05545C8.03985 9.05395 7.70254 9.47247 7.70066 9.99023C7.69879 10.508 8.03305 10.929 8.44727 10.9305C8.86148 10.932 9.19879 10.5134 9.20066 9.99567Z" fill="#8E4028"/>
<path d="M8.7956 9.60487C8.79598 9.50132 8.71233 9.41707 8.60878 9.4167C8.50523 9.41632 8.42098 9.49996 8.4206 9.60352C8.42023 9.70707 8.50387 9.79132 8.60742 9.7917C8.71098 9.79207 8.79523 9.70843 8.7956 9.60487Z" fill="white"/>
<path d="M19.406 3.65653C19.406 3.65653 17.9997 6.75028 14.0622 6.46903C10.1247 6.09403 7.31221 6.84403 6.09346 8.43778C6.09346 8.43778 5.90596 2.25028 11.7185 1.31278C17.531 0.375282 19.406 2.81278 19.406 3.65653Z" fill="#493426"/>
<path d="M16.875 4.875L16.9687 4.96875C17.5312 5.53125 20.1562 8.4375 19.875 14.1563C19.875 14.1563 20.1562 15.9375 22.5 15.9375C22.5 15.9375 22.3125 14.7188 22.6875 13.875C23.0625 13.0312 24 8.625 22.9687 6.28125C21.9375 3.9375 19.125 1.40625 15.6562 1.125" fill="#493426"/>
<path d="M19.6875 10.9687C19.6875 10.9687 20.625 10.4063 21.0938 10.7813C21.8438 11.5313 21.1875 12.75 19.7813 12.9375L19.6875 10.9687Z" fill="#E8BD89"/>
<path d="M17.5312 6.375C17.5312 6.375 19.4062 8.53125 19.6875 10.9687C19.6875 10.9687 19.5 7.21875 17.7187 5.90625L17.5312 6.375ZM20.3438 12.8437C20.3438 12.8437 20.0625 14.8125 21.375 15.6563C21.375 15.6563 20.7187 15.8438 20.1562 15.0938C19.5937 14.4375 19.7812 12.9375 19.7812 12.9375L20.3438 12.8437Z" fill="#E8A77B"/>
<path d="M12.094 22.2188C12.094 22.2188 11.344 20.8125 12.3752 19.5C12.3752 19.5 11.0627 19.6875 10.969 22.2188C10.8752 22.2188 11.6252 22.6875 12.094 22.2188Z" fill="#A85038"/>
<path d="M13.5 14.4375C13.5 14.4375 12.75 14.3437 12.1875 13.875C11.625 13.4062 11.0625 13.5 10.9688 13.5C10.875 13.5 10.6875 13.3125 10.5 13.2188C10.3125 13.125 10.0312 13.125 10.0312 13.2188C10.0312 13.3125 10.2187 13.7812 10.2187 13.7812V14.3438C10.2187 14.5312 10.2188 15.0938 10.7813 15.1875C11.3438 15.2813 11.8125 15.2813 12.0937 15.0938C12.375 15.0938 13.5 14.4375 13.5 14.4375Z" fill="#A53829"/>
<path d="M19.5938 23.9062C19.5938 23.9062 21.8438 25.875 24 24.9375C26.1563 24 20.5313 27.375 20.5313 27.375L19.5938 23.9062Z" fill="#BD4F53"/>
<path d="M16.5942 4.96875C16.5942 4.96875 15.0942 4.78125 14.6255 3.1875C14.063 1.6875 13.5942 0.1875 10.9692 0.1875C8.34421 0.1875 5.15671 2.15625 6.09421 4.96875C7.03171 7.78125 16.7817 7.78125 16.5942 4.96875Z" fill="#493426"/>
<path d="M15.6563 5.0625C15.6563 5.0625 14.4376 4.875 13.9688 3.65625C13.5001 2.34375 13.1251 1.125 10.8751 1.125C8.62507 1.125 6.18757 2.71875 7.03132 5.0625C7.87507 7.40625 15.8438 7.40625 15.6563 5.0625Z" fill="#604637"/>
<path d="M20.4375 17.3438C20.4375 17.3438 25.5 22.125 22.2188 26.0625C22.2188 26.0625 22.875 27.0937 23.7188 25.5937C24.4688 24.0937 25.9688 19.0312 20.4375 17.3438Z" fill="#BD4F53"/>
<path d="M16.4062 26.8125L16.0312 27.2812L17.7187 28.5L27.4687 18.8438L25.875 16.875L16.4062 26.8125Z" fill="#9A4C18"/>
<path d="M27.6567 21.5625C27.3755 25.4063 23.813 28.6875 19.7817 28.5938C15.8442 28.5938 13.4067 25.3125 14.1567 21.5625C14.813 18.0938 18.188 15.2812 21.7505 15.2812C25.2192 15.2812 27.938 18 27.6567 21.5625Z" fill="#9A4C18"/>
<path d="M28.5944 22.7817C28.3131 26.438 24.8444 29.5317 20.9069 29.5317C17.0631 29.5317 14.6256 26.438 15.3756 22.8755C16.0319 19.5005 19.3131 16.9692 22.7819 16.8755C26.2506 16.7817 28.8756 19.4067 28.5944 22.7817Z" fill="#9A4C18"/>
<path d="M17.4375 27.0937L19.125 27.9375L27 19.6875L25.7812 17.9062L17.4375 27.0937Z" fill="#F49937"/>
<path d="M27.8433 22.875C27.5621 25.9688 24.6558 28.5938 21.4683 28.5938C18.2808 28.5938 16.2183 25.9688 16.7808 22.875C17.3433 19.9688 20.0621 17.7188 22.9683 17.625C25.9683 17.625 28.1246 19.875 27.8433 22.875Z" fill="#F49937"/>
<path d="M26.8121 21.5625C26.5308 24.9375 23.4371 27.75 19.9683 27.6562C16.5933 27.6562 14.3433 24.8438 14.9996 21.5625C15.5621 18.4687 18.5621 16.0312 21.6558 16.0312C24.7496 16.0312 27.0933 18.375 26.8121 21.5625Z" fill="#FFEDC0"/>
<path d="M26.3433 21.8438C26.0621 24.9375 23.1558 27.5625 19.9683 27.5625C16.7808 27.5625 14.7183 24.9375 15.2808 21.8438C15.8433 18.9375 18.5621 16.6875 21.4683 16.5938C24.4683 16.5938 26.6246 18.8438 26.3433 21.8438Z" fill="#FFD766"/>
<path d="M25.1249 21.8437C24.8436 24.2812 22.5936 26.25 20.1561 26.25C17.7186 26.25 16.1249 24.2812 16.4999 21.8437C16.8749 19.5937 19.0311 17.8125 21.3749 17.7188C23.6249 17.7188 25.3124 19.5 25.1249 21.8437Z" fill="#FFEDC0"/>
<path d="M25.2186 21.1875C24.9374 23.5313 22.7811 25.5938 20.2499 25.5C17.8124 25.5 16.2186 23.5313 16.5936 21.1875C16.9686 18.9375 19.1249 17.1562 21.3749 17.1562C23.7186 17.1562 25.4061 18.9375 25.2186 21.1875Z" fill="#F49937"/>
<path d="M24.4688 21.8437C24.2813 23.9062 22.4063 25.5 20.25 25.5C18.1875 25.5 16.7813 23.8125 17.1563 21.8437C17.5313 19.875 19.3125 18.375 21.2813 18.375C23.25 18.375 24.6563 19.875 24.4688 21.8437Z" fill="#FFD766"/>
<path d="M21.8438 18L22.4063 20.1562L24.75 20.8125L22.5938 22.3125L22.4063 24.8437L20.4375 23.3437L17.8125 24.2812L18.9375 21.8437L17.625 19.9687H20.1563L21.8438 18Z" fill="#F49937"/>
</g>
<defs>
<clipPath id="clip0_52_52816">
<rect width="30" height="30" fill="white"/>
</clipPath>
</defs>
</svg>
