<svg width="23" height="23" viewBox="0 0 23 23" fill="none" xmlns="http://www.w3.org/2000/svg">
<path fill-rule="evenodd" clip-rule="evenodd" d="M16.2284 17.2501H5.87833V9.77501C5.87833 6.9 8.17833 4.60001 11.0533 4.60001C13.9283 4.60001 16.2284 6.9 16.2284 9.77501V17.2501ZM18.5283 16.1V9.77501C18.5283 6.2445 16.0673 3.28901 12.7783 2.50701V1.725C12.7783 0.772309 12.006 0 11.0533 0C10.1006 0 9.32831 0.772309 9.32831 1.725V2.50701C6.02781 3.28901 3.5783 6.2445 3.5783 9.77501V16.1L1.2783 18.4V19.55H20.8283V18.4L18.5283 16.1ZM11.0533 23C12.3236 23 13.3533 21.9703 13.3533 20.7H8.75333C8.75333 21.9703 9.78308 23 11.0533 23Z" fill="#D9D9D9"/>
<mask id="mask0_37_37905" style="mask-type:alpha" maskUnits="userSpaceOnUse" x="1" y="0" width="20" height="23">
<path fill-rule="evenodd" clip-rule="evenodd" d="M16.2284 17.2501H5.87833V9.77501C5.87833 6.9 8.17833 4.60001 11.0533 4.60001C13.9283 4.60001 16.2284 6.9 16.2284 9.77501V17.2501ZM18.5283 16.1V9.77501C18.5283 6.2445 16.0673 3.28901 12.7783 2.50701V1.725C12.7783 0.772309 12.006 0 11.0533 0C10.1006 0 9.32831 0.772309 9.32831 1.725V2.50701C6.02781 3.28901 3.5783 6.2445 3.5783 9.77501V16.1L1.2783 18.4V19.55H20.8283V18.4L18.5283 16.1ZM11.0533 23C12.3236 23 13.3533 21.9703 13.3533 20.7H8.75333C8.75333 21.9703 9.78308 23 11.0533 23Z" fill="#D9D9D9"/>
</mask>
<g mask="url(#mask0_37_37905)">
</g>
</svg>
