<svg width="30" height="30" viewBox="0 0 30 30" fill="none" xmlns="http://www.w3.org/2000/svg">
<g clip-path="url(#clip0_52_73835)">
<path d="M22.9775 10.3867L26.24 10.6586C26.24 10.6586 25.8368 15.3461 22.2368 16.4617C18.6368 17.5773 22.9775 10.3867 22.9775 10.3867Z" fill="#999893"/>
<path d="M6.3369 3.52539C5.26115 5.11855 4.39172 6.84166 3.7494 8.65351C3.21503 10.6879 7.9119 7.92227 7.9119 7.92227L6.3369 3.52539Z" fill="#999893"/>
<path d="M7.70619 4.76172C7.70619 4.76172 4.53744 7.06797 4.19057 8.16484C3.84369 9.26172 2.55932 13.8648 6.12182 12.9086C9.68432 11.9523 10.5281 6.25234 10.5281 6.25234L7.70619 4.76172Z" fill="#999893"/>
<path d="M7.49916 5.78516C7.49916 5.78516 4.91166 7.66016 4.63041 8.55078C4.34916 9.44141 3.28978 13.2383 6.20541 12.4133C9.12103 11.5883 9.80541 6.99453 9.80541 6.99453L7.49916 5.78516Z" fill="#BFBDB4"/>
<path d="M15.2153 3.8069C15.4864 4.89365 16.0136 5.89977 16.7528 6.74128C17.7465 7.61315 18.2153 10.0132 19.4153 10.1444C20.6153 10.2757 22.7528 11.9444 24.1028 11.2132C25.4528 10.4819 25.6403 7.95065 25.1059 7.35065C23.9691 6.24818 22.9366 5.04306 22.0215 3.75065C21.2422 2.50231 20.1008 1.52121 18.7496 0.938151C17.2121 0.141276 13.6778 -0.393099 13.4809 0.544401C13.284 1.4819 15.2153 3.8069 15.2153 3.8069Z" fill="#999893"/>
<path d="M22.0031 10.7242C24.2658 10.7242 26.1 8.84382 26.1 6.52422C26.1 4.20462 24.2658 2.32422 22.0031 2.32422C19.7405 2.32422 17.9062 4.20462 17.9062 6.52422C17.9062 8.84382 19.7405 10.7242 22.0031 10.7242Z" fill="#999893"/>
<path d="M21.7414 10.5188C23.7193 10.5188 25.3227 8.87759 25.3227 6.85312C25.3227 4.82866 23.7193 3.1875 21.7414 3.1875C19.7635 3.1875 18.1602 4.82866 18.1602 6.85312C18.1602 8.87759 19.7635 10.5188 21.7414 10.5188Z" fill="#E2E0D7"/>
<path d="M15.468 0.937066C15.468 0.937066 14.1273 3.86207 11.8117 4.53707C9.49609 5.21207 5.13672 6.97457 4.48047 9.59957C4.48047 9.57144 5.68047 -0.619184 15.468 0.937066Z" fill="#827420"/>
<path d="M20.6257 17.6243C21.6604 17.9997 22.5871 18.6235 23.3243 19.4409C24.0615 20.2582 24.5868 21.244 24.8539 22.3118C25.1504 23.4938 25.1251 24.7336 24.7805 25.9024C24.436 27.0713 23.7847 28.1266 22.8945 28.9587C21.7645 29.7595 20.396 30.1529 19.0132 30.0743C15.7976 30.0743 12.6007 28.9399 9.38512 27.7774C8.28062 27.4395 7.23877 26.9233 6.30074 26.2493C5.79239 25.8648 5.36504 25.3835 5.04326 24.8333C4.72149 24.2831 4.51163 23.6747 4.42574 23.0431C4.35082 22.1353 4.5168 21.2239 4.90693 20.4008C5.29706 19.5778 5.89751 18.8722 6.64762 18.3556C8.77121 16.8634 11.3086 16.0734 13.9039 16.0962C16.2095 16.2583 18.4766 16.7737 20.6257 17.6243Z" fill="#614D6D"/>
<path d="M19.8285 17.8123C20.748 18.1243 21.5772 18.6564 22.2439 19.3623C22.9106 20.0682 23.3945 20.9265 23.6535 21.8623C23.9219 22.896 23.8984 23.9839 23.5856 25.0051C23.2727 26.0262 22.6829 26.9407 21.8816 27.6467C20.8485 28.338 19.6156 28.6677 18.3753 28.5842C15.4597 28.5842 12.5722 27.5904 9.65658 26.5873C8.65573 26.2965 7.70669 25.8504 6.84408 25.2654C6.3814 24.9385 5.99051 24.5203 5.69547 24.0366C5.40042 23.5529 5.20746 23.014 5.12846 22.4529C5.07203 21.6604 5.22823 20.8671 5.58093 20.1552C5.93363 19.4432 6.47002 18.8383 7.13471 18.4029C9.07222 17.097 11.3608 16.4104 13.6972 16.4342C15.798 16.5867 17.8645 17.0511 19.8285 17.8123Z" fill="#957DA1"/>
<path d="M17.3436 18.6934C14.4317 20.0834 11.9882 22.2923 10.3123 25.0496C10.3123 25.0496 9.25296 21.0184 9.87171 18.084C9.90921 18.084 14.0623 19.9215 17.3436 18.6934Z" fill="#FAEACF"/>
<path d="M7.08789 18.1133C7.08789 18.1133 8.67227 22.0883 10.5754 22.5008C12.4785 22.9133 15.8254 23.5414 20.1191 19.3602L7.08789 18.1133Z" fill="#E8CCAA"/>
<path d="M24.4184 11.3472C24.4385 5.84855 20.0015 1.37469 14.5081 1.35456C9.0146 1.33442 4.54493 5.77564 4.52477 11.2743C4.50462 16.7729 8.94162 21.2468 14.4351 21.2669C19.9286 21.2871 24.3982 16.8458 24.4184 11.3472Z" fill="#A67A65"/>
<path d="M23.9684 10.6211C23.988 5.29331 19.689 0.958476 14.3664 0.938968C9.04374 0.91946 4.71309 5.22267 4.69356 10.5505C4.67403 15.8782 8.97303 20.2131 14.2956 20.2326C19.6182 20.2521 23.9489 15.9489 23.9684 10.6211Z" fill="#E5A98C"/>
<path d="M23.8381 10.3464C23.8569 5.23086 19.8511 1.06919 14.8909 1.05101C9.93071 1.03283 5.8945 5.16503 5.87575 10.2805C5.857 15.396 9.86281 19.5577 14.823 19.5759C19.7832 19.5941 23.8194 15.4619 23.8381 10.3464Z" fill="#E8CCAA"/>
<path d="M18.9356 11.6067C18.9493 7.87878 16.0264 4.84597 12.4072 4.8327C8.78808 4.81944 5.84309 7.83074 5.82943 11.5586C5.81576 15.2865 8.7386 18.3193 12.3578 18.3326C15.9769 18.3459 18.9219 15.3346 18.9356 11.6067Z" fill="#FAEACF"/>
<path d="M15.4843 12.3397C15.4865 11.7547 15.0895 11.2789 14.5976 11.2771C14.1057 11.2753 13.7052 11.7481 13.7031 12.3332C13.701 12.9183 14.098 13.394 14.5898 13.3958C15.0817 13.3976 15.4822 12.9248 15.4843 12.3397Z" fill="#425763"/>
<path d="M14.8973 11.9156C14.8973 11.7655 14.7965 11.6438 14.6723 11.6438C14.548 11.6438 14.4473 11.7655 14.4473 11.9156C14.4473 12.0658 14.548 12.1875 14.6723 12.1875C14.7965 12.1875 14.8973 12.0658 14.8973 11.9156Z" fill="white"/>
<path d="M16.5102 5.0535C16.7762 6.14028 17.3004 7.14687 18.0383 7.98787C19.0414 8.85975 19.5102 11.2597 20.7102 11.391C21.9102 11.5222 24.0383 13.191 25.3977 12.4597C26.7571 11.7285 26.9071 9.18787 26.3727 8.58787C25.2397 7.48714 24.2132 6.28178 23.3071 4.98787C22.5257 3.74484 21.3891 2.76504 20.0446 2.17537C18.5071 1.38787 15.0008 0.853497 14.7758 1.791C14.5508 2.7285 16.5102 5.0535 16.5102 5.0535Z" fill="#999893"/>
<path d="M8.36129 10.7675C8.36344 10.1824 7.96643 9.70664 7.47456 9.70484C6.98268 9.70304 6.5822 10.1759 6.58005 10.7609C6.57791 11.346 6.97492 11.8218 7.46679 11.8236C7.95867 11.8254 8.35915 11.3525 8.36129 10.7675Z" fill="#425763"/>
<path d="M7.83771 10.3977C7.83826 10.2476 7.73797 10.1255 7.61371 10.125C7.48945 10.1246 7.38827 10.2459 7.38772 10.3961C7.38716 10.5462 7.48745 10.6683 7.61172 10.6688C7.73598 10.6692 7.83716 10.5479 7.83771 10.3977Z" fill="white"/>
<path d="M20.8691 12.0753C20.8691 12.0753 21.6754 11.4472 22.3316 11.691C22.9879 11.9347 22.8848 14.016 21.216 14.241L20.8691 12.0753Z" fill="#FAEACF"/>
<path d="M12.6184 16.8748C12.0588 16.7856 11.5267 16.5709 11.0621 16.2466C10.8697 16.0894 10.648 15.9719 10.4098 15.9011C10.1716 15.8303 9.92168 15.8075 9.67461 15.8341C9.55273 15.8341 9.35586 15.6466 9.15899 15.5435C8.96211 15.4404 8.64336 15.4216 8.61523 15.5435C8.67053 15.7606 8.76247 15.9667 8.88711 16.1529C8.91252 16.3615 8.91252 16.5724 8.88711 16.781C8.86388 16.8937 8.86319 17.0099 8.88506 17.1228C8.90694 17.2358 8.95096 17.3433 9.01457 17.4391C9.07819 17.535 9.16015 17.6173 9.25574 17.6814C9.35132 17.7454 9.45863 17.7899 9.57148 17.8123C10.0635 17.9546 10.5893 17.9248 11.0621 17.7279C11.3715 17.5498 12.6184 16.8748 12.6184 16.8748Z" fill="#A87483"/>
<path d="M4.62109 8.14693C5.55859 7.57506 6.49609 7.05006 7.34922 6.44068C8.02822 5.92125 8.76423 5.48091 9.54297 5.12818C10.111 4.64297 10.7665 4.27068 11.4742 4.03131C13.9492 3.30943 15.3742 0.103181 15.3742 0.103181C7.32109 -0.374944 5.12734 4.46256 4.62109 8.14693Z" fill="#999893"/>
<path d="M13.1249 3.74961C14.7084 4.54626 16.0706 5.72169 17.0906 7.17148C18.3374 9.20586 20.6249 12.3184 24.3749 11.5871C24.3749 11.5871 24.8062 0.937109 13.5749 0.787109C13.5749 0.787109 10.8281 2.73711 13.1249 3.74961Z" fill="#E2E0D7"/>
<path d="M14.6715 0.937204C14.6715 0.937204 13.4527 4.15283 11.3152 4.82783C9.17773 5.50283 5.14648 7.26533 4.53711 9.89033C4.53711 9.88095 5.62461 -0.600296 14.6715 0.937204Z" fill="#E2E0D7"/>
<path d="M18.1684 13.0125C18.1599 13.4052 18.0741 13.7925 17.9158 14.1521C17.7576 14.5116 17.5301 14.8365 17.2463 15.1082C16.9625 15.3798 16.6279 15.5928 16.2617 15.7351C15.8955 15.8774 15.5049 15.9462 15.1122 15.9375C14.1614 15.9398 13.2453 15.581 12.5492 14.9335C11.853 14.2861 11.4287 13.3984 11.3622 12.45C11.3361 11.9889 11.4176 11.528 11.6001 11.1038C11.7827 10.6795 12.0613 10.3035 12.414 10.0053C12.7667 9.70713 13.1839 9.49499 13.6326 9.3856C14.0813 9.27622 14.5493 9.27258 14.9997 9.37498C15.8714 9.5116 16.667 9.95124 17.2466 10.6166C17.8262 11.2819 18.1526 12.1303 18.1684 13.0125Z" stroke="#425763" stroke-width="0.665625" stroke-miterlimit="10"/>
<path d="M10.2476 10.8376C10.2514 11.1842 10.1862 11.5282 10.0558 11.8494C9.92544 12.1706 9.73252 12.4627 9.48827 12.7087C9.24402 12.9547 8.95331 13.1497 8.63303 13.2823C8.31275 13.415 7.9693 13.4826 7.62265 13.4814C6.7987 13.459 6.01335 13.1274 5.42276 12.5524C4.83216 11.9775 4.47959 11.2013 4.43515 10.3782C4.39746 9.97448 4.45417 9.56749 4.60079 9.18941C4.74742 8.81133 4.97994 8.47253 5.27999 8.19975C5.58005 7.92697 5.93942 7.7277 6.32971 7.61766C6.72001 7.50763 7.13055 7.48985 7.5289 7.56573C8.29354 7.70629 8.98457 8.11083 9.48144 8.70878C9.97831 9.30674 10.2495 10.0602 10.2476 10.8376Z" stroke="#425763" stroke-width="0.665625" stroke-miterlimit="10"/>
<path d="M18.2617 12.5066L20.9242 12.0566" stroke="#425763" stroke-width="0.665625" stroke-miterlimit="10" stroke-linecap="round"/>
<path d="M15.8353 5.45616C16.1012 6.55888 16.6285 7.58141 17.3728 8.43741C18.3759 9.29991 18.8353 11.7093 20.0447 11.8405C21.254 11.9718 23.3728 13.6405 24.7322 12.9093C26.0915 12.178 26.2509 9.59054 25.7072 8.99054C24.5742 7.8898 23.5477 6.68444 22.6415 5.39054C21.8613 4.14298 20.7202 3.16211 19.3697 2.57803C17.8134 1.79053 14.3072 1.25616 14.0634 2.18428C13.8197 3.11241 15.8353 5.45616 15.8353 5.45616Z" fill="#E2E0D7"/>
<path d="M22.2656 12.2813C22.2656 12.2813 23.4188 14.55 23.1469 15.1688C22.875 15.7875 25.6875 13.7438 25.7719 11.3438C25.8562 8.94375 23.1469 8.85938 23.1469 8.85938L22.2656 12.2813Z" fill="#E2E0D7"/>
<path d="M12.7031 3.88125C12.7031 3.88125 14.7469 5.25937 15.15 6.28125C15.5531 7.30313 18.9 10.6313 18.9 10.6313C18.0826 9.54637 17.367 8.38833 16.7625 7.17188C16.4292 6.37883 15.9333 5.66452 15.3067 5.07509C14.6802 4.48567 13.9369 4.03425 13.125 3.75L12.7031 3.88125Z" fill="#C4C4C4"/>
<path d="M22.5742 12.7227C22.5742 12.7227 24.393 14.1945 24.4492 15.0852L23.0242 16.1914C23.0242 16.1914 23.2398 13.5664 22.5742 12.7227Z" fill="#999893"/>
<path d="M15.7305 2.00586C15.7305 2.00586 18.168 2.14648 19.3305 3.47773C20.493 4.80898 23.2398 8.16523 24.2148 8.58711C25.1898 9.00898 25.4148 11.3996 24.2617 11.0809C23.1086 10.7621 20.2586 8.43711 20.2586 8.43711C19.4512 7.84302 18.8853 6.97751 18.6648 5.99961C18.0836 4.09648 15.7305 2.00586 15.7305 2.00586Z" fill="#EFEFEF"/>
<path d="M11.635 1.87426C11.9163 1.81801 13.4163 1.48051 13.1913 2.23051C12.9663 2.98051 8.87877 3.74926 8.74752 3.74926C8.61627 3.74926 9.46002 2.32426 11.635 1.87426Z" fill="#EFEFEF"/>
<path d="M20.7086 11.7281C20.7086 11.7281 22.4429 17.3531 20.8398 18.6562C19.2367 19.9594 26.3054 16.2562 26.5773 14.1937C26.6605 12.6455 26.4078 11.0977 25.8367 9.65625L20.7086 11.7281Z" fill="#E2E0D7"/>
<path d="M26.0442 10.0117C25.8844 10.1893 25.7749 10.4063 25.7271 10.6403C25.6793 10.8744 25.6949 11.117 25.7723 11.343C26.0442 12.1492 26.4848 14.4555 25.5942 15.0367C24.7036 15.618 20.4379 18.5898 20.4379 18.5898C20.4379 18.5898 19.8661 18.993 20.7942 18.993C21.5142 18.9944 22.2266 18.8449 22.8854 18.5543C23.5442 18.2636 24.1348 17.8382 24.6192 17.3055C25.6879 15.9742 26.7098 15.8336 26.8879 14.418C26.9059 12.9936 26.742 11.5728 26.4004 10.1898L26.0442 10.0117Z" fill="#999893"/>
<path d="M21.1688 14.3906C21.4522 15.2648 21.4782 16.2021 21.2438 17.0906C20.9732 17.6129 20.7805 18.1719 20.6719 18.75L23.4375 17.5969L21.1688 14.3906Z" fill="#999893"/>
<path opacity="0.39" d="M21.2816 18.9945C21.2816 18.9945 22.7066 23.9727 19.866 25.7539C17.0254 27.5352 12.5254 27.5352 12.5254 27.5352C13.9435 28.2282 15.4338 28.7627 16.9691 29.1289C18.666 29.4008 21.5535 30.0664 23.2879 27.0008C25.0223 23.9352 24.0004 19.4352 22.1254 18.8164L21.2816 18.9945Z" fill="#614D6D"/>
<path d="M8.4379 19.1723C8.35511 19.608 8.36753 20.0564 8.47434 20.4869C8.58114 20.9173 8.77979 21.3196 9.05665 21.666C9.99415 22.6035 8.9254 21.7504 8.9254 21.7504C8.9254 21.7504 6.88165 19.3973 6.92853 18.1504H7.0879L8.4379 19.1723Z" fill="#614D6D"/>
<path d="M15.6379 22.6871L15.2348 28.3777C15.2348 28.3777 11.4848 27.5152 10.266 27.0934C8.99855 26.5842 7.79123 25.9365 6.66602 25.1621L8.43789 20.9902C8.43789 20.9902 12.441 23.3059 15.6379 22.6871Z" fill="#DACCE2"/>
<path d="M8.74648 22.1055L12.3465 23.3523L11.2309 26.5961L7.77148 25.0867L8.74648 22.1055Z" fill="#E8DFEF"/>
<path d="M14.4375 22.9023L14.9719 28.593L15.7219 28.7711L16.2187 22.1055L14.4375 22.9023Z" fill="#614D6D"/>
<path d="M10.209 11.082L11.4559 11.3445" stroke="#425763" stroke-width="0.665625" stroke-miterlimit="10" stroke-linecap="round"/>
<path opacity="0.16" d="M22.368 17.532L21.2148 14.2414C22.262 14.0113 23.2718 13.6358 24.2148 13.1258C24.7773 12.6102 26.0898 11.457 26.0898 11.457L26.418 13.5289C26.418 13.5289 26.8211 15.2164 25.8461 15.7508C24.8711 16.2852 22.368 17.532 22.368 17.532Z" fill="#999893"/>
<path d="M24.1316 24.4597C24.9945 24.511 25.8316 24.7739 26.5689 25.2251C27.3063 25.6764 27.9213 26.3021 28.3597 27.0472C28.4632 27.212 28.5322 27.3961 28.5622 27.5884C28.5923 27.7807 28.583 27.9771 28.5347 28.1657C28.4865 28.3543 28.4004 28.5311 28.2817 28.6853C28.1629 28.8395 28.014 28.9679 27.8441 29.0628C26.6343 29.7209 25.279 30.0656 23.9019 30.0656C22.5247 30.0656 21.1695 29.7209 19.9597 29.0628C19.6066 28.842 19.3539 28.4917 19.2558 28.087C19.1577 27.6822 19.2219 27.2552 19.4347 26.8972C19.935 26.1168 20.6311 25.4812 21.4535 25.0535C22.2759 24.6259 23.196 24.4211 24.1222 24.4597H24.1316Z" fill="#425763"/>
<path d="M24.0943 25.031C24.8176 25.0651 25.5228 25.2686 26.153 25.6253C26.7832 25.9819 27.3208 26.4816 27.7224 27.0841C27.8173 27.2153 27.8816 27.3661 27.9108 27.5254C27.9399 27.6847 27.9332 27.8484 27.8909 28.0048C27.8487 28.1611 27.7721 28.306 27.6667 28.429C27.5613 28.5519 27.4298 28.6497 27.2818 28.7154C26.2101 29.2165 25.0381 29.466 23.8552 29.4449C22.6723 29.4238 21.5099 29.1326 20.4568 28.5935C20.3157 28.52 20.1921 28.417 20.0944 28.2915C19.9967 28.1659 19.9273 28.0208 19.8908 27.8659C19.8543 27.7111 19.8517 27.5502 19.883 27.3943C19.9143 27.2383 19.979 27.091 20.0724 26.9622C20.5213 26.332 21.1214 25.8248 21.8177 25.4873C22.514 25.1498 23.284 24.9929 24.0568 25.031H24.0943Z" fill="#A2B6BA"/>
<path d="M24.0755 25.1152C24.6658 25.1403 25.2419 25.3046 25.7567 25.5946C26.2715 25.8845 26.7105 26.2921 27.038 26.784C27.1084 26.8943 27.155 27.0181 27.1747 27.1476C27.1944 27.277 27.1868 27.4091 27.1524 27.5354C27.1179 27.6616 27.0574 27.7793 26.9747 27.8808C26.8921 27.9823 26.789 28.0653 26.6723 28.1246C25.7992 28.5325 24.8443 28.7353 23.8807 28.7174C22.9171 28.6995 21.9704 28.4615 21.113 28.0215C21.0035 27.9572 20.9083 27.8713 20.833 27.7691C20.7577 27.6669 20.704 27.5504 20.6751 27.4268C20.6461 27.3032 20.6426 27.175 20.6647 27.05C20.6868 26.925 20.734 26.8058 20.8036 26.6996C21.1684 26.1856 21.6568 25.7719 22.2237 25.4966C22.7907 25.2214 23.4179 25.0934 24.0473 25.1246L24.0755 25.1152Z" fill="#87999B"/>
<path d="M23.7098 27.7594C27.0649 27.7594 29.7848 25.0395 29.7848 21.6844C29.7848 18.3292 27.0649 15.6094 23.7098 15.6094C20.3546 15.6094 17.6348 18.3292 17.6348 21.6844C17.6348 25.0395 20.3546 27.7594 23.7098 27.7594Z" fill="#425763"/>
<path d="M23.7086 26.8879C26.6909 26.8879 29.1086 24.4702 29.1086 21.4879C29.1086 18.5056 26.6909 16.0879 23.7086 16.0879C20.7263 16.0879 18.3086 18.5056 18.3086 21.4879C18.3086 24.4702 20.7263 26.8879 23.7086 26.8879Z" fill="#A2B6BA"/>
<path d="M23.925 26.0258C26.6795 26.0258 28.9125 23.7928 28.9125 21.0383C28.9125 18.2838 26.6795 16.0508 23.925 16.0508C21.1705 16.0508 18.9375 18.2838 18.9375 21.0383C18.9375 23.7928 21.1705 26.0258 23.925 26.0258Z" fill="#CBDEE4"/>
<path d="M26.6629 20.6148C27.2739 20.6148 27.7691 20.1196 27.7691 19.5086C27.7691 18.8976 27.2739 18.4023 26.6629 18.4023C26.0519 18.4023 25.5566 18.8976 25.5566 19.5086C25.5566 20.1196 26.0519 20.6148 26.6629 20.6148Z" fill="#425763"/>
<path d="M26.7086 20.1086C27.0762 20.1086 27.3742 19.8106 27.3742 19.443C27.3742 19.0754 27.0762 18.7773 26.7086 18.7773C26.341 18.7773 26.043 19.0754 26.043 19.443C26.043 19.8106 26.341 20.1086 26.7086 20.1086Z" fill="#4ED154"/>
<path d="M22.7055 19.0781C22.7927 18.5277 22.9915 18.0009 23.2898 17.5302C23.588 17.0594 23.9794 16.6546 24.4398 16.3406C24.6367 16.2281 24.5992 16.1062 24.3836 16.0781H24.093C23.8586 16.0781 22.218 16.1531 21.6367 19.1625L22.7055 19.0781Z" fill="#A2B6BA"/>
<path d="M25.4711 22.143C25.4711 20.2479 24.0356 18.7117 22.2648 18.7117C20.4941 18.7117 19.0586 20.2479 19.0586 22.143C19.0586 24.038 20.4941 25.5742 22.2648 25.5742C24.0356 25.5742 25.4711 24.038 25.4711 22.143Z" fill="#425763"/>
<path d="M24.8701 22.0937C24.8754 20.6492 23.7842 19.4741 22.4328 19.4692C21.0815 19.4642 19.9817 20.6312 19.9764 22.0758C19.9711 23.5204 21.0623 24.6954 22.4137 24.7004C23.765 24.7053 24.8648 23.5383 24.8701 22.0937Z" fill="#3587C4"/>
<path d="M24.4673 21.9884C24.4717 20.7872 23.5645 19.81 22.4409 19.8059C21.3174 19.8018 20.403 20.7722 20.3986 21.9735C20.3942 23.1747 21.3014 24.1518 22.425 24.1559C23.5485 24.16 24.4629 23.1896 24.4673 21.9884Z" fill="#4DA3EC"/>
<path d="M23.5771 20.9853C23.5782 20.6694 23.3106 20.4124 22.9792 20.4112C22.6478 20.41 22.3783 20.665 22.3771 20.9809C22.3759 21.2967 22.6436 21.5537 22.975 21.5549C23.3064 21.5561 23.5759 21.3011 23.5771 20.9853Z" fill="white"/>
<path d="M23.8505 17.5119C24.093 17.2446 24.3563 16.9969 24.638 16.7713C24.6898 16.7294 24.751 16.7008 24.8163 16.6877C24.8816 16.6746 24.9491 16.6776 25.013 16.6963C25.5495 16.854 26.0632 17.0809 26.5411 17.3713C26.6198 17.421 26.6798 17.4952 26.7118 17.5825C26.7439 17.6698 26.7462 17.7653 26.7184 17.854C26.6906 17.9428 26.6342 18.0199 26.5581 18.0733C26.482 18.1267 26.3903 18.1535 26.2974 18.1494C25.6002 18.1052 24.9005 18.124 24.2068 18.2057C24.1235 18.2126 24.0401 18.1946 23.9671 18.1541C23.8941 18.1135 23.8347 18.0522 23.7966 17.9779C23.7584 17.9036 23.7432 17.8197 23.7528 17.7367C23.7624 17.6538 23.7964 17.5755 23.8505 17.5119Z" fill="#E1F0F4"/>
</g>
<defs>
<clipPath id="clip0_52_73835">
<rect width="30" height="30" fill="white"/>
</clipPath>
</defs>
</svg>
