<svg width="32" height="32" viewBox="0 0 32 32" fill="none" xmlns="http://www.w3.org/2000/svg">
<path fill-rule="evenodd" clip-rule="evenodd" d="M9.8966 26.4268C10.4593 26.4268 10.9166 26.8841 10.9166 27.4468C10.9166 28.0094 10.4593 28.4654 9.8966 28.4654C9.33393 28.4654 8.87793 28.0094 8.87793 27.4468C8.87793 26.8841 9.33393 26.4268 9.8966 26.4268Z" stroke="#EA4961" stroke-width="2" stroke-linecap="round" stroke-linejoin="round"/>
<path fill-rule="evenodd" clip-rule="evenodd" d="M24.8999 26.4268C25.4626 26.4268 25.9199 26.8841 25.9199 27.4468C25.9199 28.0094 25.4626 28.4654 24.8999 28.4654C24.3372 28.4654 23.8799 28.0094 23.8799 27.4468C23.8799 26.8841 24.3372 26.4268 24.8999 26.4268Z" stroke="#EA4961" stroke-width="2" stroke-linecap="round" stroke-linejoin="round"/>
<path d="M3.66699 4.33301L6.44033 4.81301L7.72433 20.1103C7.82833 21.357 8.86966 22.3143 10.1203 22.3143H24.6697C25.8643 22.3143 26.8777 21.437 27.0497 20.253L28.315 11.509C28.471 10.4303 27.635 9.46501 26.5457 9.46501H6.88566" stroke="white" stroke-width="2" stroke-linecap="round" stroke-linejoin="round"/>
<path d="M18.834 14.3932H22.5313" stroke="#EA4961" stroke-width="2" stroke-linecap="round" stroke-linejoin="round"/>
</svg>
