<svg width="21" height="20" viewBox="0 0 21 20" fill="none" xmlns="http://www.w3.org/2000/svg">
<path d="M7.03906 0C4.41906 0 2.28906 2.13 2.28906 4.75C2.28906 7.32 4.29906 9.4 6.91906 9.49C6.99906 9.48 7.07906 9.48 7.13906 9.49C7.15906 9.49 7.16906 9.49 7.18906 9.49C7.19906 9.49 7.19906 9.49 7.20906 9.49C9.76906 9.4 11.7791 7.32 11.7891 4.75C11.7891 2.13 9.65906 0 7.03906 0Z" fill="white"/>
<path d="M12.12 12.1499C9.33 10.2899 4.78 10.2899 1.97 12.1499C0.7 12.9999 0 14.1499 0 15.3799C0 16.6099 0.7 17.7499 1.96 18.5899C3.36 19.5299 5.2 19.9999 7.04 19.9999C8.88 19.9999 10.72 19.5299 12.12 18.5899C13.38 17.7399 14.08 16.5999 14.08 15.3599C14.07 14.1299 13.38 12.9899 12.12 12.1499Z" fill="white"/>
<path d="M18.0284 5.3401C18.1884 7.2801 16.8084 8.9801 14.8984 9.2101C14.8884 9.2101 14.8884 9.2101 14.8784 9.2101H14.8484C14.7884 9.2101 14.7284 9.2101 14.6784 9.2301C13.7084 9.2801 12.8184 8.9701 12.1484 8.4001C13.1784 7.4801 13.7684 6.1001 13.6484 4.6001C13.5784 3.7901 13.2984 3.0501 12.8784 2.4201C13.2584 2.2301 13.6984 2.1101 14.1484 2.0701C16.1084 1.9001 17.8584 3.3601 18.0284 5.3401Z" fill="white"/>
<path d="M20.0293 14.5904C19.9493 15.5604 19.3293 16.4004 18.2893 16.9704C17.2893 17.5204 16.0293 17.7804 14.7793 17.7504C15.4993 17.1004 15.9193 16.2904 15.9993 15.4304C16.0993 14.1904 15.5093 13.0004 14.3293 12.0504C13.6593 11.5204 12.8793 11.1004 12.0293 10.7904C14.2393 10.1504 17.0193 10.5804 18.7293 11.9604C19.6493 12.7004 20.1193 13.6304 20.0293 14.5904Z" fill="white"/>
</svg>
