<svg width="24" height="24" viewBox="0 0 24 24" fill="none" xmlns="http://www.w3.org/2000/svg">
<path fill-rule="evenodd" clip-rule="evenodd" d="M11.7659 1.77832C6.24937 1.77832 1.77734 6.25035 1.77734 11.7669C1.77734 17.2834 6.24937 21.7554 11.7659 21.7554C14.045 21.7554 16.1458 20.9921 17.8266 19.7073L20.8354 22.7083C21.2264 23.0983 21.8596 23.0974 22.2496 22.7064C22.6396 22.3154 22.6388 21.6822 22.2478 21.2922L19.2875 18.3396C20.8236 16.5831 21.7545 14.2837 21.7545 11.7669C21.7545 6.25035 17.2824 1.77832 11.7659 1.77832ZM3.77734 11.7669C3.77734 7.35492 7.35394 3.77832 11.7659 3.77832C16.1779 3.77832 19.7545 7.35492 19.7545 11.7669C19.7545 16.1788 16.1779 19.7554 11.7659 19.7554C7.35394 19.7554 3.77734 16.1788 3.77734 11.7669Z" fill="#8F8F8F"/>
</svg>
