<svg width="13" height="15" viewBox="0 0 13 15" fill="none" xmlns="http://www.w3.org/2000/svg">
<path d="M6.14921 1.40551C3.92983 1.40551 2.12616 3.20918 2.12616 5.42856V7.36633C2.12616 7.77534 1.95183 8.39891 1.74397 8.74758L0.972885 10.0282C0.496824 10.8194 0.825373 11.6978 1.69703 11.9928C4.58692 12.9584 7.70479 12.9584 10.5947 11.9928C11.406 11.7246 11.7614 10.7658 11.3188 10.0282L10.5477 8.74758C10.3466 8.39891 10.1723 7.77534 10.1723 7.36633V5.42856C10.1723 3.21589 8.36188 1.40551 6.14921 1.40551Z" stroke="white" stroke-width="1.5" stroke-miterlimit="10" stroke-linecap="round"/>
<path d="M7.38986 1.59916C7.18201 1.53882 6.96744 1.49188 6.74618 1.46506C6.10249 1.3846 5.48562 1.43153 4.90898 1.59916C5.10343 1.10299 5.5862 0.754322 6.14942 0.754322C6.71265 0.754322 7.19542 1.10299 7.38986 1.59916Z" stroke="white" stroke-width="1.5" stroke-miterlimit="10" stroke-linecap="round" stroke-linejoin="round"/>
<path d="M8.162 12.2342C8.162 13.3405 7.25681 14.2457 6.15047 14.2457C5.60065 14.2457 5.09107 14.0177 4.72899 13.6556C4.36692 13.2936 4.13895 12.784 4.13895 12.2342" stroke="white" stroke-width="1.5" stroke-miterlimit="10"/>
</svg>
