<svg width="23" height="21" viewBox="0 0 23 21" fill="none" xmlns="http://www.w3.org/2000/svg">
<path d="M0.00250047 0.693712L1.70994 18.0932C1.73557 18.3545 1.9576 18.5773 2.27125 18.6565L11.2558 20.9255C11.4147 20.9656 11.5853 20.9656 11.7442 20.9255L20.7287 18.6565C21.0424 18.5773 21.2644 18.3545 21.2901 18.0932L22.9975 0.693712C23.0342 0.319633 22.6631 -2.89775e-10 22.192 -2.83752e-10L0.808014 0C0.336995 0 -0.0341606 0.319633 0.00250047 0.693712ZM18.6189 6.09219L7.49118 6.09219L7.82701 8.55894L18.3769 8.55894L17.6867 15.5913L11.5 17.1537L5.31333 15.5913L4.95278 11.9173L8.20004 11.9173L8.20004 13.7194L11.5868 14.4435L14.9533 13.7194L15.2145 10.8473L4.84776 10.8473L4.1595 3.83342L18.8405 3.83342L18.6189 6.09219Z" fill="#FBCD2D"/>
</svg>
