<svg width="96" height="40" viewBox="0 0 96 40" fill="none" xmlns="http://www.w3.org/2000/svg">
<rect width="40" height="40" rx="20" fill="white"/>
<path fill-rule="evenodd" clip-rule="evenodd" d="M22.3536 25.3536C22.1583 25.5488 21.8417 25.5488 21.6464 25.3536L16.6464 20.3536C16.4512 20.1583 16.4512 19.8417 16.6464 19.6464L21.6464 14.6464C21.8417 14.4512 22.1583 14.4512 22.3536 14.6464C22.5488 14.8417 22.5488 15.1583 22.3536 15.3536L17.7071 20L22.3536 24.6464C22.5488 24.8417 22.5488 25.1583 22.3536 25.3536Z" fill="#B8C3E1" stroke="#B8C3E1" stroke-linecap="round" stroke-linejoin="round"/>
<rect x="56" width="40" height="40" rx="20" fill="#212633"/>
<path fill-rule="evenodd" clip-rule="evenodd" d="M73.6464 14.6464C73.8417 14.4512 74.1583 14.4512 74.3536 14.6464L79.3536 19.6464C79.5488 19.8417 79.5488 20.1583 79.3536 20.3536L74.3536 25.3536C74.1583 25.5488 73.8417 25.5488 73.6464 25.3536C73.4512 25.1583 73.4512 24.8417 73.6464 24.6464L78.2929 20L73.6464 15.3536C73.4512 15.1583 73.4512 14.8417 73.6464 14.6464Z" fill="white" stroke="white" stroke-linecap="round" stroke-linejoin="round"/>
</svg>
