<svg width="60" height="62" viewBox="0 0 60 62" fill="none" xmlns="http://www.w3.org/2000/svg">
<path d="M33.3184 12.0427L6.04437 26.3187C5.63461 26.5333 5.32687 26.9019 5.18884 27.3433C5.05081 27.7848 5.09381 28.263 5.30837 28.6727L21.3104 59.2427C21.5249 59.6522 21.8933 59.9598 22.3345 60.0978C22.7757 60.2358 23.2537 60.193 23.6634 59.9787L50.9374 45.7027C51.1403 45.5966 51.3204 45.4515 51.4673 45.2757C51.6142 45.1 51.725 44.897 51.7935 44.6784C51.8619 44.4598 51.8866 44.2299 51.8662 44.0017C51.8457 43.7736 51.7806 43.5517 51.6744 43.3487L35.6724 12.7787C35.4578 12.369 35.0893 12.0612 34.6478 11.9232C34.2063 11.7852 33.7281 11.8282 33.3184 12.0427Z" stroke="#213A52" stroke-width="3.6" stroke-miterlimit="10"/>
<path d="M30.4657 19.9909L14.2177 28.4949C13.9849 28.6166 13.7783 28.7831 13.6099 28.9847C13.4414 29.1863 13.3143 29.4191 13.2358 29.6698C13.1574 29.9206 13.1291 30.1843 13.1525 30.446C13.176 30.7077 13.2508 30.9621 13.3727 31.1949L21.2307 46.2069C21.3525 46.4396 21.519 46.6461 21.7207 46.8145C21.9223 46.9828 22.1551 47.1098 22.4059 47.1882C22.6566 47.2666 22.9203 47.2948 23.182 47.2712C23.4436 47.2477 23.698 47.1728 23.9307 47.0509L40.1787 38.5459C40.4114 38.4241 40.6179 38.2576 40.7863 38.0559C40.9546 37.8543 41.0816 37.6215 41.16 37.3707C41.2384 37.12 41.2666 36.8563 41.243 36.5947C41.2195 36.333 41.1446 36.0786 41.0227 35.8459L33.1647 20.8349C33.043 20.6021 32.8765 20.3955 32.6749 20.2271C32.4733 20.0586 32.2405 19.9315 31.9898 19.853C31.739 19.7745 31.4753 19.7462 31.2136 19.7697C30.9519 19.7932 30.6975 19.868 30.4647 19.9899L30.4657 19.9909Z" stroke="#213A52" stroke-width="3.6" stroke-miterlimit="10"/>
<path d="M16.7196 20.843L15.4896 8.23803C15.4581 7.87923 15.5698 7.52254 15.8002 7.24569C16.0306 6.96884 16.361 6.79427 16.7196 6.76003L48.1556 4.00503C48.5144 3.97416 48.8708 4.08632 49.1473 4.31708C49.4238 4.54784 49.5978 4.8785 49.6316 5.23703L52.7016 40.37C52.7325 40.729 52.6202 41.0856 52.3892 41.3621C52.1582 41.6385 51.8273 41.8125 51.4686 41.846L50.1546 41.963" stroke="#213A52" stroke-width="3.6" stroke-miterlimit="10"/>
</svg>
