<svg width="25" height="25" viewBox="0 0 25 25" fill="none" xmlns="http://www.w3.org/2000/svg">
<g clip-path="url(#clip0_52_37539)">
<path d="M22.2141 15.2854C20.6542 20.7254 15.0571 23.7462 9.71427 22.2142C4.3714 20.6821 1.22559 15.1543 2.78549 9.71432C4.34538 4.2743 9.84532 1.22563 15.2853 2.78553C20.7253 4.34543 23.774 9.84536 22.2141 15.2854Z" fill="#2196F3"/>
<path d="M10.9134 16.565C10.3862 16.2036 9.80336 16.0365 9.45693 15.4115C9.41549 15.1893 9.4712 14.995 9.42977 14.7729C9.31905 14.4258 8.98619 14.12 8.50047 13.9808L6.46047 13.3958C6.19689 13.2151 6.11403 12.7708 6.16974 12.5765C6.19759 12.4794 6.12831 12.3544 5.93402 12.2987C5.73973 12.243 5.93402 12.2987 5.73973 12.243C5.47616 12.0623 5.36544 11.7151 5.42115 11.5208C5.47686 11.3265 5.75471 11.0908 6.04614 11.1744C6.43471 11.2858 6.43471 11.2858 6.82329 11.3972C6.92043 11.4251 6.94828 11.3279 7.23971 11.4115C7.53114 11.4951 7.57258 11.7172 7.48901 12.0086L7.37759 12.3972C7.37759 12.3972 7.32188 12.5915 7.51617 12.6472C7.71045 12.7029 7.76616 12.5086 7.76616 12.5086C7.76616 12.5086 7.96115 11.8286 8.12828 11.2458C8.42041 10.5936 9.03183 9.92791 10.1004 10.2343C10.9747 10.485 11.6832 9.84715 11.9339 8.97286C12.1289 8.29286 12.0046 7.62643 11.2275 7.40359C10.8389 7.29217 9.44966 8.47076 8.96394 8.33149C8.57537 8.22006 8.72892 7.31792 8.84034 6.92935C9.00748 6.34649 10.2853 5.55647 10.771 5.69574C11.2567 5.83502 11.7975 6.51572 12.0889 6.59929C12.186 6.62715 12.3803 6.68286 12.5053 6.61357C12.6303 6.54428 12.6303 6.54428 12.6582 6.44714C12.7417 6.15571 11.7432 5.23858 11.4796 5.05788C11.2439 4.78002 10.9524 4.69646 10.661 4.61289C9.78672 4.36219 8.63458 4.34722 7.88459 4.76294C7.78745 4.73509 7.66245 4.80437 7.53745 4.87366C5.85676 5.96869 4.39751 7.758 3.75684 9.99229C3.72898 10.0894 3.77042 10.3116 3.81185 10.5337C3.964 11.103 4.37973 11.853 4.85117 12.4087C5.15617 12.8115 5.71118 13.0758 5.93262 13.7701C6.11263 14.2422 6.02906 14.5337 5.86193 15.1165C5.6948 15.6994 6.01338 16.4215 6.06839 16.9629C6.08197 17.2822 6.16483 17.7265 6.08127 18.0179C6.05341 18.1151 5.98342 18.7258 5.95557 18.8229L5.92771 18.9201C6.32986 19.3508 6.85701 19.7122 7.38416 20.0736C7.4813 20.1015 8.10629 19.755 8.23129 19.6858C8.60629 19.4779 8.93985 19.0479 9.28699 18.9372C9.50913 18.8957 9.73127 18.8543 9.98127 18.7157C10.2313 18.5772 10.4398 18.2164 10.6205 17.9529C10.7734 17.7864 10.9541 17.5229 11.0655 17.1343C11.2462 16.8707 11.0798 16.7179 10.9134 16.565ZM14.9096 3.72853C14.8124 3.70067 14.7153 3.67282 14.6181 3.64496C14.2988 3.65854 14.0767 3.69997 13.9238 3.86641C13.6874 4.32427 14.1039 4.33854 14.4646 4.54711C14.4646 4.54711 14.3389 5.35211 14.311 5.44925C14.2967 5.86568 13.9217 6.07354 13.7825 6.55926C13.6989 6.85069 13.5596 7.3364 13.6982 7.5864L13.7953 7.61426C13.8925 7.64211 14.0175 7.57282 14.2396 7.53139C14.5868 7.42067 14.9618 7.21281 15.3089 7.10209C15.656 6.99137 16.031 6.7835 16.281 6.64493C16.6282 6.53421 16.9339 6.20134 17.1146 5.93777C17.3367 5.89634 17.7396 5.59133 17.726 5.27205C17.6846 5.04991 17.2267 4.81349 17.0603 4.66063C16.5331 4.29921 15.9503 4.13208 15.4924 3.89566C15.3953 3.86781 15.3953 3.86781 15.2981 3.83995C15.201 3.8121 15.0067 3.75639 14.9096 3.72853ZM21.2426 15.0062C22.0226 12.2862 21.4839 9.3984 19.9868 7.287C19.6118 7.49486 19.3196 8.14701 19.1253 8.0913C18.4453 7.89631 17.7504 8.85347 17.7225 8.95061C17.6668 9.1449 18.6104 9.52059 18.5268 9.81202C18.4154 10.2006 16.9018 10.7128 16.3325 10.8649C16.2075 10.9342 15.9854 10.9756 15.874 11.3642C15.7626 11.7528 15.7626 11.7528 15.7626 11.7528L16.8311 12.0592L16.5526 13.0306L12.8026 15.1093C13.1769 15.6371 14.1205 16.0128 14.9948 16.2635C15.3834 16.3749 15.4526 16.4999 15.4941 16.7221C15.5769 17.1663 15.382 17.8463 15.3955 18.1656C15.3813 18.5821 15.4641 19.0263 15.4498 19.4428C15.5049 19.9842 15.4484 20.9142 15.4484 20.9142C18.1699 20.2227 20.3791 18.0177 21.2426 15.0062Z" fill="#247DD4"/>
<path d="M2.42269 11.7129C2.42269 11.7129 2.08913 12.1429 1.81058 13.1143C1.39275 14.5715 1.80707 16.7929 4.72137 17.6286C8.60709 18.7428 11.5249 15.8999 11.5249 15.8999C11.5249 15.8999 9.64992 16.9392 5.76419 15.825C1.97561 14.7386 2.42269 11.7129 2.42269 11.7129Z" fill="#D4DCDF"/>
<path d="M18.5931 12.8799L17.831 11.5049L13.3352 9.58496L12.7102 9.9314L15.581 12.7521L16.3432 14.127L17.214 18.0563L17.839 17.7099L18.5931 12.8799ZM11.1103 13.6779L11.7353 13.3314L13.5389 14.3742L13.8853 14.9992L13.8139 17.0814L13.189 17.4278L12.5661 15.5671L12.2889 15.0671L11.1103 13.6779Z" fill="#BCC8CE"/>
<path d="M20.6493 10.8426C20.4414 10.4676 19.9557 10.3283 19.5807 10.5362C19.2057 10.744 17.0808 11.9219 15.3308 12.892C13.5808 13.862 12.3858 15.0963 12.3858 15.0963L12.663 15.5963C12.663 15.5963 14.218 15.3063 16.0929 14.2669C17.9679 13.2276 20.2179 11.9804 20.3429 11.9112C20.7179 11.7033 20.8572 11.2176 20.6493 10.8426Z" fill="#EEF1F2"/>
</g>
<defs>
<clipPath id="clip0_52_37539">
<rect width="20" height="20" fill="white" transform="translate(5.57102) scale(1.01058) rotate(16)"/>
</clipPath>
</defs>
</svg>
