<svg width="136" height="136" viewBox="0 0 136 136" fill="none" xmlns="http://www.w3.org/2000/svg">
<path opacity="0.54" d="M68.0847 111.276C68.1384 109.916 76.8531 108.556 78.6426 108.7C82.6152 109.04 88.7173 110.865 89.3973 112.35C90.3278 114.336 67.9416 114.515 68.0847 111.276Z" fill="#B1E0E9"/>
<path d="M77.1934 110.828L78.5176 83.7715L81.1839 83.7894L80.325 110.703" fill="#D2EDF3"/>
<path opacity="0.75" d="M68.9626 63.8915C67.4237 60.4915 72.8457 59.3641 74.9036 58.9526C78.6615 58.1831 92.5836 57.6641 93.9615 62.961C94.6057 65.4484 73.8121 74.5389 68.9626 63.8915Z" fill="#B1E0E9"/>
<path opacity="0.68" d="M90.5254 65.8418C85.3717 68.3649 75.7981 70.5481 71.0202 66.5397C71.0023 66.647 71.0023 66.7186 71.0023 66.7186C71.0023 66.7186 69.3381 71.7828 70.716 74.8249C72.0938 77.8671 73.096 79.8355 75.4223 80.766C77.7486 81.6965 79.6454 82.0723 79.6454 82.0723C79.6454 82.0723 82.1507 81.8039 83.797 81.0344C85.4433 80.2649 88.2528 78.7081 89.398 76.8828C90.5433 75.0397 91.2591 72.8386 91.3485 71.4428C91.438 70.047 91.098 66.8618 91.098 66.8618C91.098 66.8618 90.9906 66.4144 90.5254 65.8418Z" fill="#FF3008"/>
<path opacity="0.54" d="M68.7663 61.9747C68.7663 61.9747 67.0663 69.8484 68.7305 74.1073C70.3947 78.3484 71.6115 81.1221 74.4389 82.3926C77.2842 83.6631 79.6105 84.1821 79.6105 84.1821C79.6105 84.1821 82.7062 83.7705 84.7284 82.6789C86.7505 81.5873 90.2399 79.3684 91.6715 76.7736C93.1031 74.1789 93.9978 71.0652 94.141 69.1326C94.2662 67.1821 94.302 62.5652 94.302 62.5652C94.302 62.5652 93.121 58.36 81.561 58.3242C69.9831 58.3242 68.7663 61.9747 68.7663 61.9747Z" fill="#B1E0E9"/>
<path opacity="0.68" d="M71.0391 66.6106C75.6023 70.8695 85.3728 68.4179 90.5265 65.8948C89.5423 64.6601 87.5917 64.499 81.1854 64.4453C72.9181 64.3559 71.1823 65.8232 71.0391 66.6106Z" fill="#FF3008"/>
<path opacity="0.47" d="M53.8069 26.3299C54.6301 27.3856 46.1301 27.9404 46.1838 26.3835C46.2017 25.7572 47.9196 25.2383 50.049 25.2383C52.1964 25.2383 53.3775 25.793 53.8069 26.3299Z" fill="#3B5748"/>
<path opacity="0.37" d="M36.3418 68.3802L55.5428 68.2012L55.507 89.6749L38.3102 90.6591L36.3418 68.3802Z" fill="white"/>
<path d="M40.4405 109.807C40.4226 107.141 40.0468 102.131 39.6531 96.959C39.2774 91.9306 36.9689 74.4474 36.4679 69.9558C35.9847 65.4464 35.5195 57.519 37.0226 54.2621C39.1163 49.6632 43.0531 47.3905 45.0573 46.3705C47.0616 45.3505 46.471 45.6011 46.471 45.6011C46.471 45.6011 46.2742 30.1579 46.2563 28.6547C46.2384 27.1516 46.2205 23.3221 46.2205 23.3221C46.2205 23.3221 48.9584 23 50.7658 23C52.5731 23 53.5394 23.5189 53.5394 23.5189C53.5394 23.5189 54.2015 29.5316 54.2194 31.6968C54.2373 33.8621 54.5237 45.7263 54.5237 46.2274C54.5237 46.7284 61.5026 49.1263 62.8805 51.2916C65.6184 55.5327 64.7594 61.2948 65.0279 66.4664C65.2963 71.6379 64.3478 89.3179 64.3836 93.9885C64.4194 98.659 63.8289 110.004 63.8289 110.004L40.4405 109.807Z" fill="#3B5748"/>
<path opacity="0.47" d="M53.9157 26.1681C54.7567 27.2418 46.1673 27.7966 46.221 26.2218C46.2388 25.5776 47.9746 25.0586 50.122 25.0586C52.2872 25.0765 53.4862 25.6313 53.9157 26.1681Z" fill="#3B5748"/>
<path opacity="0.37" d="M36.2715 68.6125L55.6514 68.4336L55.6157 90.122L38.2399 91.1062L36.2715 68.6125Z" fill="white"/>
<path opacity="0.47" d="M63.8285 109.842C60.6612 112.849 50.7654 116.553 40.6369 109.824C39.0622 108.787 46.1306 106.496 52.4296 106.496C58.7285 106.496 65.1885 108.536 63.8285 109.842Z" fill="#3B5748"/>
</svg>
