<svg width="428" height="47" viewBox="0 0 428 47" fill="none" xmlns="http://www.w3.org/2000/svg">
<path d="M239.273 13.8721H256.728V31.3266H239.273V13.8721Z" fill="white" fill-opacity="0.01"/>
<path fill-rule="evenodd" clip-rule="evenodd" d="M240.612 16.1337C242.373 14.2559 245.213 14.2304 247.004 16.058L247.077 16.1344L248 17.1191L248.924 16.1344C250.661 14.282 253.448 14.2319 255.241 15.9831L255.316 16.058L255.389 16.1344C257.15 18.0129 257.173 21.042 255.46 22.9511L255.389 23.0289L248.462 30.4166C248.407 30.4776 248.339 30.527 248.264 30.5619C248.19 30.5968 248.109 30.6165 248.026 30.6198C247.943 30.6231 247.861 30.61 247.784 30.5812C247.706 30.5525 247.635 30.5086 247.575 30.4522L247.539 30.4166L240.612 23.0289C238.827 21.1257 238.827 18.0384 240.612 16.1344V16.1337ZM241.997 17.6115C240.997 18.6791 240.978 20.397 241.941 21.4893L241.997 21.5519L248 27.954L254.003 21.5519C255.005 20.4842 255.024 18.7664 254.075 17.6893L254.019 17.6275L253.961 17.5679C252.957 16.5424 251.376 16.5402 250.368 17.5511L250.309 17.6122L248 20.074L245.692 17.6115C244.672 16.5235 243.018 16.5235 241.997 17.6115Z" fill="#0E0E0E"/>
<rect x="225.5" y="0.5" width="45" height="43" rx="21.5" stroke="#505050"/>
<rect x="157.5" y="0.5" width="43" height="43" rx="21.5" fill="#0E0E0E"/>
<g clip-path="url(#clip0_52_35280)">
<path d="M172.25 25C171.836 25 171.5 25.3358 171.5 25.75C171.5 26.1642 171.836 26.5 172.25 26.5V25ZM177.867 24.3904C178.104 24.051 178.022 23.5834 177.682 23.3459C177.343 23.1085 176.875 23.1912 176.638 23.5306L177.867 24.3904ZM179.382 19.6115C179.145 19.9513 179.229 20.4188 179.569 20.6556C179.909 20.8924 180.376 20.8088 180.613 20.469L179.382 19.6115ZM180.13 19.8498L179.516 19.4197L179.515 19.421L180.13 19.8498ZM185.75 19C186.164 19 186.5 18.6642 186.5 18.25C186.5 17.8358 186.164 17.5 185.75 17.5V19ZM172.25 26.5H174.048V25H172.25V26.5ZM174.048 26.5C175.516 26.4999 176.892 25.7833 177.734 24.5803L176.505 23.7202C175.944 24.5223 175.027 24.9999 174.048 25V26.5ZM177.734 24.5803L177.867 24.3904L176.638 23.5306L176.505 23.7202L177.734 24.5803ZM180.613 20.469L180.746 20.2785L179.515 19.421L179.382 19.6115L180.613 20.469ZM180.745 20.2798C181.306 19.4778 182.223 19.0001 183.202 19L183.202 17.5C181.734 17.5001 180.358 18.2167 179.516 19.4197L180.745 20.2798ZM183.202 19H185.75V17.5H183.202L183.202 19Z" fill="white"/>
<path d="M183.5 16L185.75 18.25L183.5 20.5" stroke="white" stroke-width="1.5" stroke-linecap="round" stroke-linejoin="round"/>
<path d="M172.25 18.25H174.048C175.271 18.2501 176.418 18.8472 177.12 19.8498L180.13 24.1502C180.832 25.1528 181.979 25.7499 183.202 25.75H185.75" stroke="white" stroke-width="1.5" stroke-linecap="round" stroke-linejoin="round"/>
<path d="M183.5 28L185.75 25.75L183.5 23.5" stroke="white" stroke-width="1.5" stroke-linecap="round" stroke-linejoin="round"/>
</g>
<rect x="157.5" y="0.5" width="43" height="43" rx="21.5" stroke="#505050"/>
<defs>
<clipPath id="clip0_52_35280">
<rect width="18" height="18" fill="white" transform="translate(170 13)"/>
</clipPath>
</defs>
</svg>
