<svg width="20" height="12" viewBox="0 0 20 12" fill="none" xmlns="http://www.w3.org/2000/svg">
<path d="M0.769231 0C0.344396 0 0 0.344396 0 0.769231C0 1.19407 0.344396 1.53846 0.769231 1.53846V0ZM19.2308 1.53846C19.6556 1.53846 20 1.19407 20 0.769231C20 0.344396 19.6556 0 19.2308 0V1.53846ZM0.769231 1.53846H19.2308V0H0.769231V1.53846Z" fill="#010101"/>
<path d="M3.84615 5.12821C3.42132 5.12821 3.07692 5.4726 3.07692 5.89744C3.07692 6.32227 3.42132 6.66667 3.84615 6.66667V5.12821ZM16.1538 6.66667C16.5787 6.66667 16.9231 6.32227 16.9231 5.89744C16.9231 5.4726 16.5787 5.12821 16.1538 5.12821V6.66667ZM3.84615 6.66667H16.1538V5.12821H3.84615V6.66667Z" fill="#010101"/>
<path d="M7.94872 10.2564C7.52388 10.2564 7.17949 10.6008 7.17949 11.0256C7.17949 11.4505 7.52388 11.7949 7.94872 11.7949V10.2564ZM12.0513 11.7949C12.4761 11.7949 12.8205 11.4505 12.8205 11.0256C12.8205 10.6008 12.4761 10.2564 12.0513 10.2564V11.7949ZM7.94872 11.7949H12.0513V10.2564H7.94872V11.7949Z" fill="#010101"/>
</svg>
