<svg width="80" height="30" viewBox="0 0 80 30" fill="none" xmlns="http://www.w3.org/2000/svg">
<rect width="80" height="30" rx="4" fill="#1E1F20"/>
<path d="M29.6506 20H28.358L32.0966 9.81818H33.3693L37.108 20H35.8153L32.7727 11.429H32.6932L29.6506 20ZM30.1278 16.0227H35.3381V17.1165H30.1278V16.0227ZM41.4183 20.1591C40.782 20.1591 40.2202 19.9983 39.733 19.6768C39.2457 19.352 38.8646 18.8946 38.5895 18.3047C38.3144 17.7114 38.1768 17.0104 38.1768 16.2017C38.1768 15.3996 38.3144 14.7036 38.5895 14.1136C38.8646 13.5237 39.2474 13.0679 39.7379 12.7464C40.2285 12.425 40.7952 12.2642 41.4382 12.2642C41.9354 12.2642 42.3281 12.3471 42.6165 12.5128C42.9081 12.6752 43.1302 12.8608 43.2827 13.0696C43.4384 13.2751 43.5594 13.4441 43.6456 13.5767H43.745V9.81818H44.9183V20H43.7848V18.8267H43.6456C43.5594 18.9659 43.4368 19.1416 43.2777 19.3537C43.1186 19.5625 42.8916 19.7498 42.5966 19.9155C42.3016 20.0779 41.9089 20.1591 41.4183 20.1591ZM41.5774 19.1051C42.0481 19.1051 42.4458 18.9825 42.7706 18.7372C43.0954 18.4886 43.3423 18.1456 43.5114 17.7081C43.6804 17.2673 43.7649 16.7585 43.7649 16.1818C43.7649 15.6117 43.6821 15.1129 43.5163 14.6854C43.3506 14.2545 43.1054 13.9197 42.7805 13.6811C42.4557 13.4392 42.0547 13.3182 41.5774 13.3182C41.0803 13.3182 40.666 13.4458 40.3345 13.701C40.0064 13.9529 39.7595 14.2959 39.5938 14.7301C39.4313 15.161 39.3501 15.6449 39.3501 16.1818C39.3501 16.7254 39.433 17.2192 39.5987 17.6634C39.7678 18.1042 40.0163 18.4555 40.3445 18.7173C40.6759 18.9759 41.0869 19.1051 41.5774 19.1051ZM50.1136 20.1591C49.4773 20.1591 48.9155 19.9983 48.4283 19.6768C47.9411 19.352 47.5599 18.8946 47.2848 18.3047C47.0097 17.7114 46.8722 17.0104 46.8722 16.2017C46.8722 15.3996 47.0097 14.7036 47.2848 14.1136C47.5599 13.5237 47.9427 13.0679 48.4332 12.7464C48.9238 12.425 49.4905 12.2642 50.1335 12.2642C50.6307 12.2642 51.0234 12.3471 51.3118 12.5128C51.6035 12.6752 51.8255 12.8608 51.978 13.0696C52.1338 13.2751 52.2547 13.4441 52.3409 13.5767H52.4403V9.81818H53.6136V20H52.4801V18.8267H52.3409C52.2547 18.9659 52.1321 19.1416 51.973 19.3537C51.8139 19.5625 51.5869 19.7498 51.2919 19.9155C50.9969 20.0779 50.6042 20.1591 50.1136 20.1591ZM50.2727 19.1051C50.7434 19.1051 51.1411 18.9825 51.4659 18.7372C51.7907 18.4886 52.0376 18.1456 52.2067 17.7081C52.3757 17.2673 52.4602 16.7585 52.4602 16.1818C52.4602 15.6117 52.3774 15.1129 52.2116 14.6854C52.0459 14.2545 51.8007 13.9197 51.4759 13.6811C51.151 13.4392 50.75 13.3182 50.2727 13.3182C49.7756 13.3182 49.3613 13.4458 49.0298 13.701C48.7017 13.9529 48.4548 14.2959 48.2891 14.7301C48.1267 15.161 48.0455 15.6449 48.0455 16.1818C48.0455 16.7254 48.1283 17.2192 48.294 17.6634C48.4631 18.1042 48.7116 18.4555 49.0398 18.7173C49.3712 18.9759 49.7822 19.1051 50.2727 19.1051ZM59.1271 20.1591C58.3913 20.1591 57.7566 19.9967 57.223 19.6719C56.6927 19.3438 56.2834 18.8864 55.995 18.2997C55.71 17.7098 55.5675 17.0237 55.5675 16.2415C55.5675 15.4593 55.71 14.7699 55.995 14.1733C56.2834 13.5734 56.6844 13.1061 57.1982 12.7713C57.7152 12.4332 58.3184 12.2642 59.0078 12.2642C59.4055 12.2642 59.7983 12.3305 60.1861 12.4631C60.5739 12.5956 60.9268 12.8111 61.245 13.1094C61.5632 13.4044 61.8168 13.7955 62.0057 14.2827C62.1946 14.7699 62.2891 15.3698 62.2891 16.0824V16.5795H56.4027V15.5653H61.0959C61.0959 15.1345 61.0097 14.75 60.8374 14.4119C60.6683 14.0739 60.4264 13.8071 60.1115 13.6115C59.8 13.416 59.4321 13.3182 59.0078 13.3182C58.5405 13.3182 58.1361 13.4342 57.7947 13.6662C57.4567 13.8949 57.1965 14.1932 57.0142 14.5611C56.8319 14.929 56.7408 15.3234 56.7408 15.7443V16.4205C56.7408 16.9972 56.8402 17.486 57.0391 17.8871C57.2412 18.2848 57.5213 18.5881 57.8793 18.7969C58.2372 19.0024 58.6532 19.1051 59.1271 19.1051C59.4354 19.1051 59.7138 19.062 59.9624 18.9759C60.2143 18.8864 60.4313 18.7538 60.6136 18.5781C60.7959 18.3991 60.9368 18.1771 61.0362 17.9119L62.1697 18.2301C62.0504 18.6146 61.8499 18.9527 61.5682 19.2443C61.2865 19.5327 60.9384 19.758 60.5241 19.9205C60.1098 20.0795 59.6442 20.1591 59.1271 20.1591ZM66.9574 20.1591C66.321 20.1591 65.7592 19.9983 65.272 19.6768C64.7848 19.352 64.4036 18.8946 64.1286 18.3047C63.8535 17.7114 63.7159 17.0104 63.7159 16.2017C63.7159 15.3996 63.8535 14.7036 64.1286 14.1136C64.4036 13.5237 64.7865 13.0679 65.277 12.7464C65.7675 12.425 66.3343 12.2642 66.9773 12.2642C67.4744 12.2642 67.8672 12.3471 68.1555 12.5128C68.4472 12.6752 68.6693 12.8608 68.8217 13.0696C68.9775 13.2751 69.0985 13.4441 69.1847 13.5767H69.2841V9.81818H70.4574V20H69.3239V18.8267H69.1847C69.0985 18.9659 68.9759 19.1416 68.8168 19.3537C68.6577 19.5625 68.4306 19.7498 68.1357 19.9155C67.8407 20.0779 67.4479 20.1591 66.9574 20.1591ZM67.1165 19.1051C67.5871 19.1051 67.9848 18.9825 68.3097 18.7372C68.6345 18.4886 68.8814 18.1456 69.0504 17.7081C69.2195 17.2673 69.304 16.7585 69.304 16.1818C69.304 15.6117 69.2211 15.1129 69.0554 14.6854C68.8897 14.2545 68.6444 13.9197 68.3196 13.6811C67.9948 13.4392 67.5938 13.3182 67.1165 13.3182C66.6193 13.3182 66.205 13.4458 65.8736 13.701C65.5455 13.9529 65.2985 14.2959 65.1328 14.7301C64.9704 15.161 64.8892 15.6449 64.8892 16.1818C64.8892 16.7254 64.9721 17.2192 65.1378 17.6634C65.3068 18.1042 65.5554 18.4555 65.8835 18.7173C66.215 18.9759 66.6259 19.1051 67.1165 19.1051Z" fill="white"/>
<path fill-rule="evenodd" clip-rule="evenodd" d="M24 11.1111L14.6667 20.4444L10.3889 16.1666L11.4856 15.07L14.6667 18.2433L22.9033 10.0144L24 11.1111Z" fill="white"/>
<mask id="mask0_4_2254" style="mask-type:alpha" maskUnits="userSpaceOnUse" x="10" y="10" width="14" height="11">
<path fill-rule="evenodd" clip-rule="evenodd" d="M24 11.1111L14.6667 20.4444L10.3889 16.1666L11.4856 15.07L14.6667 18.2433L22.9033 10.0144L24 11.1111Z" fill="white"/>
</mask>
<g mask="url(#mask0_4_2254)">
</g>
</svg>
