<svg width="30" height="30" viewBox="0 0 30 30" fill="none" xmlns="http://www.w3.org/2000/svg">
<g clip-path="url(#clip0_52_45686)">
<path d="M6.9375 6.75L6.75 4.40625L8.625 2.4375L9.65625 4.78125L6.9375 6.75Z" fill="#4E6178"/>
<path d="M14.5315 28.5C5.53152 21.375 5.90652 15.8438 5.90652 15.6563L7.03152 4.875H8.06277C11.344 4.875 16.5003 2.8125 17.2503 2.53125L17.344 2.4375H17.4378L17.5315 2.34375L17.719 2.4375C17.8128 2.4375 23.6253 6.5625 26.9065 6.84375H27.2815L26.0628 17.625C26.0628 17.9062 25.1253 23.3438 14.9065 28.3125H14.8128L14.5315 28.5Z" fill="#4E6178"/>
<path d="M17.4375 2.90625C17.4375 2.90625 23.3437 7.03125 26.7187 7.40625L25.5937 17.8125C25.5937 17.8125 24.75 23.25 14.625 28.125C5.8125 21.1875 6.1875 15.6563 6.1875 15.6563L7.40625 5.25H8.15625C11.625 5.34375 17.3437 3 17.4375 2.90625ZM17.5312 2.0625L17.3437 2.15625H17.25L17.0625 2.25C16.4062 2.53125 11.25 4.59375 8.0625 4.59375H7.40625L6.75 4.5L6.65625 5.15625L5.53125 15.5625C5.53125 15.8438 5.25 21.5625 14.25 28.6875L14.4375 28.7812H14.8125L15 28.6875C25.3125 23.8125 26.3437 18.1875 26.3437 17.9062L27.4687 7.5L27.5625 6.75L26.8125 6.65625C23.625 6.28125 17.9062 2.34375 17.8125 2.25L17.5312 2.0625Z" fill="#4E6178"/>
<path d="M16.4065 26.4375L16.3128 26.3438C7.40652 19.3125 7.68777 13.7813 7.78152 13.5L8.90652 2.8125H9.93777C13.4065 2.8125 18.9378 0.5625 19.1253 0.46875L19.3128 0.375L19.5003 0.46875C19.594 0.46875 25.4065 4.59375 28.6878 4.875H29.0628L27.844 15.6563C27.844 15.9375 26.9065 21.375 16.6878 26.3438H16.4065V26.4375Z" fill="#A4AFB2"/>
<path d="M19.3125 0.84375C19.3125 0.84375 25.2187 4.96875 28.5937 5.34375L27.4687 15.75C27.4687 15.75 26.625 21.1875 16.5 26.0625C7.6875 19.125 8.0625 13.5938 8.0625 13.5938L9.28125 3.1875H10.0312C13.5 3.1875 19.2187 0.9375 19.3125 0.84375ZM19.4062 0L19.2187 0.09375H19.125L18.9375 0.1875C18.1875 0.46875 13.0312 2.53125 9.9375 2.53125H9.28125L8.625 2.34375L8.53125 3.09375L7.40625 13.5C7.40625 13.7812 7.125 19.5 16.125 26.625L16.3125 26.7188H16.6875L16.875 26.625C27.2812 21.6562 28.2187 15.9375 28.2187 15.75L29.3437 5.34375L29.4375 4.6875L28.6875 4.59375C25.5 4.21875 19.7812 0.28125 19.6875 0.1875L19.4062 0Z" fill="#4E6178"/>
<path d="M19.3125 0.84375L16.5 26.0625H16.5938C26.7188 21.1875 27.5625 15.75 27.5625 15.75L28.6875 5.34375C25.3125 4.96875 19.3125 0.84375 19.3125 0.84375Z" fill="#C1D6DB"/>
<path d="M19.1251 2.625C18.9376 2.71875 13.4063 4.96875 10.5001 4.6875L9.5626 13.5938C9.5626 13.5938 9.1876 18.2812 16.7813 24.2812C25.5001 20.0625 26.1563 15.375 26.1563 15.375L27.0938 6.46875C24.1876 6.1875 19.3126 2.71875 19.1251 2.625Z" fill="#FFE9BD"/>
<path d="M19.0309 3.5625C18.9371 3.65625 13.7809 5.71875 11.0621 5.4375L10.1246 13.5937C10.1246 13.5937 9.84338 17.9062 16.7809 23.4375C24.7496 19.5938 25.4059 15.2812 25.4059 15.2812L26.3434 7.125C23.7184 6.75 19.1246 3.5625 19.0309 3.5625Z" fill="url(#paint0_linear_52_45686)"/>
<path opacity="0.67" d="M19.0312 3.09375L16.5938 23.9062C16.5938 23.9062 24.0937 20.4375 25.5937 16.2187L26.0625 13.875L26.7187 6.84375C26.7187 6.84375 22.0312 5.25 18.75 3.09375" fill="#FFE9BD"/>
<path d="M19.5938 5.4375L17.7188 20.8125C17.7188 20.8125 23.5312 18.9375 24.2812 14.8125C25.0312 10.6875 25.125 7.96875 25.125 7.96875L19.5938 5.4375Z" fill="#FFF6E6"/>
<path d="M4.6875 12.9375L5.34375 11.4375L7.3125 13.9687L4.6875 12.9375Z" fill="#4E6178"/>
<path d="M13.7809 22.3129L11.1559 18.7504C11.6246 17.0629 11.2496 15.1879 10.0309 13.8754C8.90587 12.6566 7.21837 12.0004 5.62462 12.1879C5.24962 12.1879 4.96837 12.4691 4.87462 12.8441C4.78087 13.2191 4.78087 13.5941 5.06212 13.7816L6.37462 15.1879C6.46837 15.2816 6.46837 15.4691 6.37462 15.6566L4.59337 17.2504C4.49962 17.3441 4.31212 17.3441 4.12462 17.2504L2.90587 15.8441C2.62462 15.5629 2.24962 15.4691 1.96837 15.5629C1.59337 15.6566 1.40587 15.9379 1.31212 16.3129C0.937123 18.0004 1.49962 19.7816 2.71837 21.0004C3.84337 22.1254 5.53087 22.6879 7.12462 22.4066L10.5934 25.5004C10.4059 26.6254 10.6871 27.8441 11.5309 28.6879C12.9371 30.2816 15.3746 30.3754 16.9684 28.9691C18.5621 27.5629 18.6559 25.1254 17.2496 23.5316C16.2184 22.6879 14.9996 22.2191 13.7809 22.3129Z" fill="#4E6178"/>
<path d="M14.1559 21.1879L11.5309 17.6254C11.9996 15.9379 11.6246 14.0629 10.4059 12.7504C9.28087 11.5316 7.59337 10.8754 5.99962 11.0629C5.62462 11.0629 5.34337 11.3441 5.24962 11.7191C5.15587 12.0941 5.15587 12.4691 5.43712 12.6566L6.65587 14.0629C6.74962 14.1566 6.74962 14.3441 6.65587 14.5316L4.87462 16.1254C4.78087 16.2191 4.59337 16.2191 4.40587 16.1254L3.18712 14.7191C2.90587 14.4379 2.53087 14.3441 2.24962 14.4379C1.87462 14.5316 1.68712 14.8129 1.59337 15.1879C1.21837 16.8754 1.78087 18.6566 2.99962 19.8754C4.12462 21.0004 5.81212 21.5629 7.40587 21.2816L10.8746 24.3754C10.6871 25.5004 10.9684 26.7191 11.8121 27.5629C13.2184 29.1566 15.6559 29.2504 17.2496 27.8441C18.8434 26.4379 18.9371 24.0004 17.5309 22.4066C16.5934 21.4691 15.3746 21.0004 14.1559 21.1879Z" fill="#4E6178"/>
<path d="M13.9684 21.7499L10.9684 17.6249C11.5309 16.1249 11.2497 14.3437 10.0309 13.0312C8.99966 11.9062 7.49966 11.4374 6.09341 11.5312C5.81216 11.5312 5.71841 11.9062 5.90591 12.0937L7.21841 13.4999C7.59341 13.8749 7.49966 14.4374 7.12466 14.8124L5.34341 16.4062C4.96841 16.7812 4.40591 16.6874 4.03091 16.3124L2.81216 15.0937C2.62466 14.9062 2.24966 14.9999 2.24966 15.2812C1.96841 16.6874 2.34341 18.2812 3.46841 19.4062C4.59341 20.5312 6.18716 20.9062 7.59341 20.6249L11.5309 24.0937C11.2497 25.1249 11.4372 26.2499 12.2809 27.0937C13.4997 28.4062 15.4684 28.4999 16.8747 27.2812C18.1872 26.0624 18.2809 24.0937 17.0622 22.6874C16.2184 21.8437 14.9997 21.5624 13.9684 21.7499Z" fill="#C8D8E3"/>
<path opacity="0.3" d="M14.1562 21.8435L10.0312 17.3435C10.5 16.031 10.2187 14.531 9.28125 13.4997C8.4375 12.5622 7.21875 12.0935 6 12.281C5.8125 12.281 5.71875 12.5622 5.8125 12.7497L6.84375 13.9685C7.125 14.2497 7.125 14.8122 6.75 15.0935L5.25 16.4997C4.96875 16.781 4.40625 16.781 4.125 16.406L3.09375 15.281C2.90625 15.0935 2.625 15.1872 2.625 15.3747C2.4375 16.4997 2.8125 17.8122 3.75 18.7497C4.6875 19.6872 6 20.0622 7.21875 19.781L12.0938 23.8122C11.8125 24.656 12 25.6872 12.6562 26.3435C13.6875 27.4685 15.375 27.5622 16.5 26.531C17.625 25.4997 17.7187 23.8122 16.6875 22.6872C16.0312 21.9372 15.0938 21.656 14.1562 21.8435Z" fill="#8293AB"/>
<path d="M14.9062 25.5C15.5276 25.5 16.0313 24.9963 16.0313 24.375C16.0313 23.7537 15.5276 23.25 14.9062 23.25C14.2849 23.25 13.7812 23.7537 13.7812 24.375C13.7812 24.9963 14.2849 25.5 14.9062 25.5Z" fill="#4E6178"/>
<path d="M8.7186 18.75L9.0936 18.375C9.2811 18.1875 9.56235 18.1875 9.74985 18.375L12.7499 21.6563C12.9374 21.8438 12.8436 22.125 12.6561 22.3125C12.4686 22.4062 12.2811 22.4062 12.0936 22.3125L8.7186 19.4063C8.62485 19.2188 8.5311 18.9375 8.7186 18.75Z" fill="#CEDCEA"/>
<path d="M2.4375 15.4688L7.21875 20.0625C7.21875 20.1562 2.8125 21 2.4375 15.4688Z" fill="#C8D8E3"/>
</g>
<defs>
<linearGradient id="paint0_linear_52_45686" x1="15.995" y1="25.5873" x2="19.666" y2="1.17469" gradientUnits="userSpaceOnUse">
<stop stop-color="#FFA750"/>
<stop offset="1" stop-color="#FFDA58"/>
</linearGradient>
<clipPath id="clip0_52_45686">
<rect width="30" height="30" fill="white"/>
</clipPath>
</defs>
</svg>
