<svg width="6" height="10" viewBox="0 0 6 10" fill="none" xmlns="http://www.w3.org/2000/svg">
<path d="M0.159599 4.6098L4.60973 0.159755C4.71265 0.0567475 4.85005 0 4.99655 0C5.14305 0 5.28045 0.0567475 5.38338 0.159755L5.7111 0.487394C5.92435 0.700889 5.92435 1.04788 5.7111 1.26105L1.97422 4.99793L5.71525 8.73895C5.81817 8.84196 5.875 8.97928 5.875 9.1257C5.875 9.27228 5.81817 9.4096 5.71525 9.51269L5.38752 9.84025C5.28452 9.94325 5.1472 10 5.0007 10C4.8542 10 4.7168 9.94325 4.61387 9.84025L0.159599 5.38614C0.0564294 5.2828 -0.000236988 5.14484 8.82149e-05 4.99817C-0.000236988 4.85094 0.0564294 4.71305 0.159599 4.6098Z" fill="white"/>
</svg>
