<svg width="96" height="1240" viewBox="0 0 96 1240" fill="none" xmlns="http://www.w3.org/2000/svg">
<path d="M0 0H64C81.6731 0 96 14.3269 96 32V1208C96 1225.67 81.6731 1240 64 1240H0V0Z" fill="#222325"/>
<g clip-path="url(#clip0_37_44931)">
<path d="M48.063 73.9268C62.4162 73.9268 74.0518 62.2912 74.0518 47.938C74.0518 33.5848 62.4162 21.9492 48.063 21.9492C33.7098 21.9492 22.0742 33.5848 22.0742 47.938C22.0742 62.2912 33.7098 73.9268 48.063 73.9268Z" fill="#F6841B"/>
<path d="M47.9947 69.7482C59.9781 69.7482 69.6926 60.0338 69.6926 48.0504C69.6926 36.067 59.9781 26.3525 47.9947 26.3525C36.0113 26.3525 26.2969 36.067 26.2969 48.0504C26.2969 60.0338 36.0113 69.7482 47.9947 69.7482Z" fill="#222325"/>
<path d="M47.9958 64.4174C57.035 64.4174 64.3627 57.0897 64.3627 48.0505C64.3627 39.0113 57.035 31.6836 47.9958 31.6836C38.9566 31.6836 31.6289 39.0113 31.6289 48.0505C31.6289 57.0897 38.9566 64.4174 47.9958 64.4174Z" fill="#F6841B"/>
<path d="M45.7859 45.982C47.5834 45.982 49.0406 44.5248 49.0406 42.7273C49.0406 40.9298 47.5834 39.4727 45.7859 39.4727C43.9884 39.4727 42.5312 40.9298 42.5312 42.7273C42.5312 44.5248 43.9884 45.982 45.7859 45.982Z" fill="white"/>
<path d="M48.7414 44.0962C48.7414 44.0962 53.3353 42.5118 56.0288 47.0329C56.0288 47.0329 58.3894 52.2198 54.1509 54.9806C54.1509 54.9806 51.3245 57.1747 47.6826 55.4295C47.6826 55.4295 46.4687 54.831 45.4717 51.971C45.4717 51.971 44.9891 50.3418 43.5769 50.2258C43.5769 50.2258 40.8011 49.9097 41.1995 52.9362C41.1995 52.9362 41.7307 55.1639 44.2578 54.2493C44.2578 54.2493 45.3221 53.4842 45.7037 53.95C45.7037 53.95 46.3097 54.9114 45.2379 55.4295C45.2379 55.4295 43.691 56.593 41.7625 55.7288C41.7625 55.7288 40.051 55.1434 39.5516 52.5621C39.5516 52.5621 39.3888 48.5592 43.7415 48.6957C43.7415 48.6957 45.8327 48.6546 46.7848 51.2153C46.7848 51.2153 47.4582 53.559 48.3429 54.008C48.3429 54.008 50.6324 55.4352 53.1801 53.7592C53.1801 53.7592 56.6349 51.6511 54.4277 47.4257C54.4277 47.4257 52.2205 43.7726 47.9819 46.1294C47.9819 46.1294 47.3834 46.5783 47.0224 47.1021C47.0224 47.1021 46.7848 47.7698 46.175 47.854C46.175 47.854 45.539 47.9756 45.352 47.3396C45.352 47.3396 45.1406 46.6045 45.9506 45.8563C45.9487 45.8526 47.2936 43.8979 48.7414 44.0962Z" fill="white"/>
<path d="M41.9332 49.5431C43.1108 49.5431 44.0655 48.5884 44.0655 47.4107C44.0655 46.233 43.1108 45.2783 41.9332 45.2783C40.7555 45.2783 39.8008 46.233 39.8008 47.4107C39.8008 48.5884 40.7555 49.5431 41.9332 49.5431Z" fill="white"/>
</g>
<rect x="24" y="160" width="48" height="48" rx="12" fill="#F6841B"/>
<path d="M56.8593 180.37L49.9293 174.83C48.8593 173.97 47.1293 173.97 46.0693 174.82L39.1393 180.37C38.3593 180.99 37.8593 182.3 38.0293 183.28L39.3593 191.24C39.5993 192.66 40.9593 193.81 42.3993 193.81H53.5993C55.0293 193.81 56.3993 192.65 56.6393 191.24L57.9693 183.28C58.1293 182.3 57.6293 180.99 56.8593 180.37ZM48.7093 189.2C48.5093 189.4 48.2593 189.5 47.9993 189.5C47.7393 189.5 47.4893 189.4 47.2893 189.21C46.8993 188.82 46.8993 188.19 47.2893 187.8C47.6793 187.41 48.3193 187.41 48.7093 187.8C49.0993 188.18 49.0993 188.81 48.7093 189.2ZM50.6593 186.9C50.5093 187.05 50.3193 187.13 50.1193 187.13C49.9293 187.13 49.7493 187.06 49.5993 186.92C48.6293 185.99 47.3693 185.99 46.3893 186.92C46.0893 187.21 45.6193 187.2 45.3293 186.9C45.0393 186.6 45.0493 186.13 45.3493 185.84C46.8993 184.35 49.0693 184.35 50.6293 185.84C50.9393 186.12 50.9493 186.6 50.6593 186.9ZM52.7793 184.78C52.6293 184.93 52.4393 185.01 52.2393 185.01C52.0493 185.01 51.8593 184.94 51.7193 184.8C51.2493 184.34 50.7193 183.97 50.1593 183.7C48.7593 183.03 47.2293 183.03 45.8393 183.7C45.2793 183.97 44.7593 184.34 44.2793 184.8C43.9893 185.09 43.5093 185.09 43.2193 184.79C42.9293 184.49 42.9393 184.02 43.2293 183.73C43.8193 183.15 44.4793 182.69 45.1893 182.35C46.9993 181.48 48.9993 181.48 50.7993 182.35C51.5093 182.69 52.1693 183.15 52.7593 183.73C53.0593 184.01 53.0693 184.49 52.7793 184.78Z" fill="white"/>
<path d="M52.19 246H43.81C40.17 246 38 248.17 38 251.81V260.18C38 263.83 40.17 266 43.81 266H52.18C55.82 266 57.99 263.83 57.99 260.19V251.81C58 248.17 55.83 246 52.19 246ZM45.11 260.9C45.11 261.18 44.89 261.4 44.61 261.4H41.82C41.54 261.4 41.32 261.18 41.32 260.9V256.28C41.32 255.65 41.83 255.14 42.46 255.14H44.61C44.89 255.14 45.11 255.36 45.11 255.64V260.9ZM49.89 260.9C49.89 261.18 49.67 261.4 49.39 261.4H46.6C46.32 261.4 46.1 261.18 46.1 260.9V251.74C46.1 251.11 46.61 250.6 47.24 250.6H48.76C49.39 250.6 49.9 251.11 49.9 251.74V260.9H49.89ZM54.68 260.9C54.68 261.18 54.46 261.4 54.18 261.4H51.39C51.11 261.4 50.89 261.18 50.89 260.9V257.35C50.89 257.07 51.11 256.85 51.39 256.85H53.54C54.17 256.85 54.68 257.36 54.68 257.99V260.9Z" fill="white" fill-opacity="0.4"/>
<path d="M54 332.01C54.55 332.01 55 332.46 55 333.01V334C55 336.2 53.5 338 51 338H45C42.5 338 41 336.2 41 334V333.01C41 332.46 41.45 332.01 42 332.01H54Z" fill="white" fill-opacity="0.4"/>
<path d="M55 322V329.5C55 330.05 54.55 330.5 54 330.5H42C41.45 330.5 41 330.05 41 329.5V322C41 319.8 42.5 318 45 318H51C53.5 318 55 319.8 55 322Z" fill="white" fill-opacity="0.4"/>
<path d="M39 336.75C38.59 336.75 38.25 336.41 38.25 336V320C38.25 319.59 38.59 319.25 39 319.25C39.41 319.25 39.75 319.59 39.75 320V336C39.75 336.41 39.41 336.75 39 336.75Z" fill="white" fill-opacity="0.4"/>
<path d="M57 336.75C56.59 336.75 56.25 336.41 56.25 336V320C56.25 319.59 56.59 319.25 57 319.25C57.41 319.25 57.75 319.59 57.75 320V336C57.75 336.41 57.41 336.75 57 336.75Z" fill="white" fill-opacity="0.4"/>
<path d="M55.0909 400.59C54.9309 400.59 54.7709 400.54 54.6309 400.43C50.6009 397.32 45.3909 397.32 41.3609 400.43C41.0309 400.68 40.5609 400.62 40.3109 400.3C40.0609 399.97 40.1209 399.5 40.4409 399.25C45.0309 395.7 50.9609 395.7 55.5409 399.25C55.8709 399.5 55.9309 399.97 55.6709 400.3C55.5409 400.49 55.3209 400.59 55.0909 400.59Z" fill="white" fill-opacity="0.4"/>
<path d="M57.9981 397.11C57.8381 397.11 57.6781 397.06 57.5381 396.95C51.7381 392.47 44.2481 392.47 38.4581 396.95C38.1281 397.2 37.6581 397.14 37.4081 396.82C37.1481 396.5 37.2081 396.02 37.5381 395.77C43.8881 390.86 52.0981 390.86 58.4581 395.77C58.7881 396.02 58.8481 396.49 58.5881 396.82C58.4481 397.01 58.2181 397.11 57.9981 397.11Z" fill="white" fill-opacity="0.4"/>
<path d="M53.2115 404.24C53.0515 404.24 52.8915 404.19 52.7515 404.08C49.8715 401.85 46.1415 401.85 43.2515 404.08C42.9215 404.33 42.4515 404.27 42.2015 403.95C41.9515 403.62 42.0115 403.15 42.3315 402.9C45.7715 400.24 50.2215 400.24 53.6615 402.9C53.9915 403.15 54.0515 403.62 53.7915 403.95C53.6515 404.14 53.4315 404.24 53.2115 404.24Z" fill="white" fill-opacity="0.4"/>
<path d="M50.5992 407.9C50.4392 407.9 50.2792 407.85 50.1392 407.74C48.8392 406.73 47.1492 406.73 45.8492 407.74C45.5192 407.99 45.0492 407.93 44.7992 407.61C44.5492 407.28 44.6092 406.81 44.9292 406.56C46.7892 405.12 49.1892 405.12 51.0492 406.56C51.3792 406.81 51.4392 407.28 51.1792 407.61C51.0492 407.79 50.8292 407.9 50.5992 407.9Z" fill="white" fill-opacity="0.4"/>
<path d="M48.9297 470.64L51.2597 468.51L48.9297 466.64V470.64Z" fill="white" fill-opacity="0.4"/>
<path d="M52.19 462H43.81C40.17 462 38 464.17 38 467.81V476.18C38 479.83 40.17 482 43.81 482H52.18C55.82 482 57.99 479.83 57.99 476.19V467.81C58 464.17 55.83 462 52.19 462ZM52.27 474.39C52.58 474.68 52.76 475.08 52.75 475.49C52.74 475.9 52.55 476.29 52.22 476.57L49.8 478.59C49.38 478.94 49 479.04 48.71 479.04C48.48 479.04 48.3 478.98 48.2 478.93C47.97 478.82 47.43 478.46 47.43 477.48V474.06L44.51 476.74C44.21 477.02 43.73 477 43.45 476.69C43.17 476.38 43.19 475.91 43.5 475.63L47.43 472.03V471.95L43.49 468.38C43.19 468.1 43.17 467.62 43.45 467.32C43.73 467.02 44.21 466.99 44.51 467.27L47.43 469.95V466.53C47.43 465.55 47.97 465.19 48.2 465.08C48.43 464.97 49.05 464.79 49.8 465.42L52.22 467.44C52.55 467.71 52.74 468.11 52.75 468.52C52.76 468.93 52.59 469.33 52.27 469.62L49.67 472L52.27 474.39Z" fill="white" fill-opacity="0.4"/>
<path d="M48.9297 477.36L51.2597 475.41L48.9297 473.3V477.36Z" fill="white" fill-opacity="0.4"/>
<path d="M48 534C45.38 534 43.25 536.13 43.25 538.75C43.25 541.32 45.26 543.4 47.88 543.49C47.96 543.48 48.04 543.48 48.1 543.49C48.12 543.49 48.13 543.49 48.15 543.49C48.16 543.49 48.16 543.49 48.17 543.49C50.73 543.4 52.74 541.32 52.75 538.75C52.75 536.13 50.62 534 48 534Z" fill="white" fill-opacity="0.4"/>
<path d="M53.0809 546.15C50.2909 544.29 45.7409 544.29 42.9309 546.15C41.6609 547 40.9609 548.15 40.9609 549.38C40.9609 550.61 41.6609 551.75 42.9209 552.59C44.3209 553.53 46.1609 554 48.0009 554C49.8409 554 51.6809 553.53 53.0809 552.59C54.3409 551.74 55.0409 550.6 55.0409 549.36C55.0309 548.13 54.3409 546.99 53.0809 546.15Z" fill="white" fill-opacity="0.4"/>
<path d="M56.1 613.22C54.29 613.22 53.55 611.94 54.45 610.37C54.97 609.46 54.66 608.3 53.75 607.78L52.02 606.79C51.23 606.32 50.21 606.6 49.74 607.39L49.63 607.58C48.73 609.15 47.25 609.15 46.34 607.58L46.23 607.39C45.78 606.6 44.76 606.32 43.97 606.79L42.24 607.78C41.33 608.3 41.02 609.47 41.54 610.38C42.45 611.94 41.71 613.22 39.9 613.22C38.86 613.22 38 614.07 38 615.12V616.88C38 617.92 38.85 618.78 39.9 618.78C41.71 618.78 42.45 620.06 41.54 621.63C41.02 622.54 41.33 623.7 42.24 624.22L43.97 625.21C44.76 625.68 45.78 625.4 46.25 624.61L46.36 624.42C47.26 622.85 48.74 622.85 49.65 624.42L49.76 624.61C50.23 625.4 51.25 625.68 52.04 625.21L53.77 624.22C54.68 623.7 54.99 622.53 54.47 621.63C53.56 620.06 54.3 618.78 56.11 618.78C57.15 618.78 58.01 617.93 58.01 616.88V615.12C58 614.08 57.15 613.22 56.1 613.22ZM48 619.25C46.21 619.25 44.75 617.79 44.75 616C44.75 614.21 46.21 612.75 48 612.75C49.79 612.75 51.25 614.21 51.25 616C51.25 617.79 49.79 619.25 48 619.25Z" fill="white" fill-opacity="0.4"/>
<rect x="20" y="1124" width="56" height="92" rx="12" fill="white" fill-opacity="0.1"/>
<rect x="32" y="1132" width="32" height="32" rx="8" fill="#F6841B"/>
<path d="M48 1155C51.866 1155 55 1151.87 55 1148C55 1144.13 51.866 1141 48 1141C44.134 1141 41 1144.13 41 1148C41 1151.87 44.134 1155 48 1155Z" fill="white"/>
<path d="M48 1158.96C47.45 1158.96 47 1158.55 47 1158V1157.92C47 1157.37 47.45 1156.92 48 1156.92C48.55 1156.92 49 1157.37 49 1157.92C49 1158.47 48.55 1158.96 48 1158.96ZM55.14 1156.14C54.88 1156.14 54.63 1156.04 54.43 1155.85L54.3 1155.72C53.91 1155.33 53.91 1154.7 54.3 1154.31C54.69 1153.92 55.32 1153.92 55.71 1154.31L55.84 1154.44C56.23 1154.83 56.23 1155.46 55.84 1155.85C55.65 1156.04 55.4 1156.14 55.14 1156.14ZM40.86 1156.14C40.6 1156.14 40.35 1156.04 40.15 1155.85C39.76 1155.46 39.76 1154.83 40.15 1154.44L40.28 1154.31C40.67 1153.92 41.3 1153.92 41.69 1154.31C42.08 1154.7 42.08 1155.33 41.69 1155.72L41.56 1155.85C41.37 1156.04 41.11 1156.14 40.86 1156.14ZM58 1149H57.92C57.37 1149 56.92 1148.55 56.92 1148C56.92 1147.45 57.37 1147 57.92 1147C58.47 1147 58.96 1147.45 58.96 1148C58.96 1148.55 58.55 1149 58 1149ZM38.08 1149H38C37.45 1149 37 1148.55 37 1148C37 1147.45 37.45 1147 38 1147C38.55 1147 39.04 1147.45 39.04 1148C39.04 1148.55 38.63 1149 38.08 1149ZM55.01 1141.99C54.75 1141.99 54.5 1141.89 54.3 1141.7C53.91 1141.31 53.91 1140.68 54.3 1140.29L54.43 1140.16C54.82 1139.77 55.45 1139.77 55.84 1140.16C56.23 1140.55 56.23 1141.18 55.84 1141.57L55.71 1141.7C55.52 1141.89 55.27 1141.99 55.01 1141.99ZM40.99 1141.99C40.73 1141.99 40.48 1141.89 40.28 1141.7L40.15 1141.56C39.76 1141.17 39.76 1140.54 40.15 1140.15C40.54 1139.76 41.17 1139.76 41.56 1140.15L41.69 1140.28C42.08 1140.67 42.08 1141.3 41.69 1141.69C41.5 1141.89 41.24 1141.99 40.99 1141.99ZM48 1139.04C47.45 1139.04 47 1138.63 47 1138.08V1138C47 1137.45 47.45 1137 48 1137C48.55 1137 49 1137.45 49 1138C49 1138.55 48.55 1139.04 48 1139.04Z" fill="white"/>
<path d="M57.5287 1195.93C57.3687 1195.66 56.9187 1195.24 55.7987 1195.44C55.1787 1195.55 54.5487 1195.6 53.9187 1195.57C51.5887 1195.47 49.4787 1194.4 48.0087 1192.75C46.7087 1191.3 45.9087 1189.41 45.8987 1187.37C45.8987 1186.23 46.1187 1185.13 46.5687 1184.09C47.0087 1183.08 46.6987 1182.55 46.4787 1182.33C46.2487 1182.1 45.7087 1181.78 44.6487 1182.22C40.5587 1183.94 38.0287 1188.04 38.3287 1192.43C38.6287 1196.56 41.5287 1200.09 45.3687 1201.42C46.2887 1201.74 47.2587 1201.93 48.2587 1201.97C48.4187 1201.98 48.5787 1201.99 48.7387 1201.99C52.0887 1201.99 55.2287 1200.41 57.2087 1197.72C57.8787 1196.79 57.6987 1196.2 57.5287 1195.93Z" fill="white" fill-opacity="0.4"/>
<defs>
<clipPath id="clip0_37_44931">
<rect width="52" height="52" fill="white" transform="translate(22 22)"/>
</clipPath>
</defs>
</svg>
