<svg width="19" height="19" viewBox="0 0 19 19" fill="none" xmlns="http://www.w3.org/2000/svg">
<mask id="mask0_0_137" style="mask-type:luminance" maskUnits="userSpaceOnUse" x="-2" y="-2" width="23" height="23">
<rect x="-1.8997" y="-1.8997" width="22.8004" height="22.8004" fill="white"/>
</mask>
<g mask="url(#mask0_0_137)">
<path fill-rule="evenodd" clip-rule="evenodd" d="M9.50017 0C4.26178 0 0 4.26178 0 9.50017C0 14.7386 4.26178 19.0003 9.50017 19.0003C14.7386 19.0003 19.0003 14.7386 19.0003 9.50017C19.0003 4.26178 14.7386 0 9.50017 0ZM9.50018 17.1003C5.30966 17.1003 1.90004 13.6907 1.90004 9.50015C1.90004 5.30962 5.30965 1.90001 9.50018 1.90001C13.6907 1.90001 17.1003 5.30962 17.1003 9.50015C17.1003 13.6907 13.6907 17.1003 9.50018 17.1003Z" fill="#8F9198"/>
<path fill-rule="evenodd" clip-rule="evenodd" d="M12.1879 12.1873C12.0122 12.3621 11.8231 12.5189 11.6255 12.6519C11.4193 12.7906 11.2027 12.9084 10.9795 13.0024C10.7477 13.1003 10.5083 13.1744 10.2679 13.2238C9.76346 13.3264 9.23525 13.3264 8.7327 13.2238C8.49139 13.1744 8.25199 13.1003 8.02018 13.0024C7.79788 12.9084 7.58032 12.7906 7.37512 12.6519C7.17657 12.5179 6.98751 12.3621 6.81176 12.1873C6.63981 12.0153 6.48306 11.8263 6.34815 11.6249L4.77303 12.688C4.97728 12.9901 5.21193 13.2741 5.47034 13.5325C5.72969 13.7919 6.01375 14.0265 6.313 14.227C6.61986 14.4341 6.94571 14.6108 7.28202 14.7523C7.62878 14.8986 7.98883 15.0107 8.35364 15.0848C8.72984 15.1618 9.1165 15.2007 9.50031 15.2007C9.88412 15.2007 10.2708 15.1618 10.6479 15.0848C11.0118 15.0107 11.3718 14.8986 11.7186 14.7523C12.0549 14.6108 12.3798 14.4341 12.6886 14.227C12.9859 14.0256 13.27 13.7919 13.5303 13.5325C13.7887 13.2751 14.0243 12.9901 14.2276 12.688L12.6525 11.6249C12.5166 11.8263 12.3599 12.0153 12.1879 12.1873Z" fill="#8F9198"/>
<circle cx="6.17578" cy="8.07548" r="1.42503" fill="#8F9198"/>
<circle cx="12.8186" cy="8.06883" r="1.41838" fill="#8F9198"/>
</g>
</svg>
