<svg width="56" height="56" viewBox="0 0 56 56" fill="none" xmlns="http://www.w3.org/2000/svg">
<path d="M36.1666 8.16663H19.6933C19.0987 8.16549 18.5261 8.39136 18.0925 8.79813C17.6588 9.2049 17.3968 9.76187 17.3599 10.3553L15.1713 45.3553C15.1512 45.6738 15.1966 45.9931 15.3048 46.2934C15.4131 46.5937 15.5817 46.8686 15.8004 47.1011C16.0192 47.3335 16.2832 47.5187 16.5764 47.645C16.8695 47.7714 17.1854 47.8362 17.5046 47.8356H22.2763C22.8286 47.8353 23.3629 47.6392 23.7842 47.282C24.2054 46.9248 24.4863 46.4298 24.5769 45.8849L27.9299 25.7646L31.2829 45.8849C31.374 46.4293 31.6551 46.9238 32.0763 47.2806C32.4975 47.6373 33.0316 47.8331 33.5836 47.8333H38.3552C38.6742 47.8339 38.9899 47.7691 39.2829 47.6429C39.5758 47.5167 39.8398 47.3318 40.0585 47.0995C40.2772 46.8673 40.4459 46.5927 40.5543 46.2927C40.6626 45.9927 40.7083 45.6736 40.6886 45.3553L38.4999 10.3553C38.463 9.76187 38.201 9.2049 37.7674 8.79813C37.3337 8.39136 36.7611 8.16549 36.1666 8.16663ZM36.1666 10.5L36.4232 14.609C35.6296 14.2552 34.9558 13.6785 34.4836 12.9491C34.0114 12.2197 33.7611 11.3689 33.7632 10.5H36.1666ZM22.0966 10.5C22.0984 11.3688 21.848 12.2195 21.3759 12.9489C20.9037 13.6782 20.23 14.2549 19.4366 14.609L19.6933 10.5H22.0966ZM33.5836 45.4999L29.0802 18.4753C29.0343 18.2034 28.8935 17.9567 28.6829 17.7787C28.4724 17.6008 28.2056 17.5032 27.9299 17.5032C27.6542 17.5032 27.3874 17.6008 27.1769 17.7787C26.9663 17.9567 26.8255 18.2034 26.7796 18.4753L22.2763 45.4999H17.5046L19.2686 17.3016C20.7163 16.8237 21.9849 15.9176 22.9065 14.7031C23.8281 13.4886 24.3594 12.0229 24.4299 10.5H26.7632V14C26.7632 14.3094 26.8861 14.6061 27.1049 14.8249C27.3237 15.0437 27.6205 15.1666 27.9299 15.1666C28.2393 15.1666 28.5361 15.0437 28.7549 14.8249C28.9737 14.6061 29.0966 14.3094 29.0966 14V10.5H31.4299C31.5005 12.0229 32.0317 13.4886 32.9533 14.7031C33.8749 15.9176 35.1435 16.8237 36.5912 17.3016L38.3552 45.4999H33.5836Z" fill="#393D46"/>
</svg>
