<svg width="24" height="24" viewBox="0 0 24 24" fill="none" xmlns="http://www.w3.org/2000/svg">
<g clip-path="url(#clip0_52_114620)">
<path d="M20.8416 11.5397L12.5916 1.03972C12.5214 0.950076 12.4318 0.877579 12.3295 0.827721C12.2271 0.777864 12.1148 0.751953 12.001 0.751953C11.8871 0.751953 11.7748 0.777864 11.6725 0.827721C11.5701 0.877579 11.4805 0.950076 11.4103 1.03972L3.16035 11.5397C3.05533 11.6698 2.99805 11.8319 2.99805 11.9991C2.99805 12.1663 3.05533 12.3284 3.16035 12.4585L11.4103 22.9585C11.4805 23.0481 11.5701 23.1206 11.6725 23.1705C11.7748 23.2203 11.8871 23.2462 12.001 23.2462C12.1148 23.2462 12.2271 23.2203 12.3295 23.1705C12.4318 23.1206 12.5214 23.0481 12.5916 22.9585L20.8416 12.4585C20.9466 12.3284 21.0039 12.1663 21.0039 11.9991C21.0039 11.8319 20.9466 11.6698 20.8416 11.5397ZM12.751 3.66472L19.0697 11.7085L12.751 14.5866V3.66472ZM11.251 14.5866L4.93222 11.7085L11.251 3.66472V14.5866ZM11.251 16.2366V20.3335L6.24472 13.9585L11.251 16.2366ZM12.751 16.2366L17.7572 13.9585L12.751 20.3335V16.2366Z" fill="#6E9CF7" fill-opacity="0.9"/>
</g>
<defs>
<clipPath id="clip0_52_114620">
<rect width="24" height="24" fill="white"/>
</clipPath>
</defs>
</svg>
