<svg width="114" height="24" viewBox="0 0 114 24" fill="none" xmlns="http://www.w3.org/2000/svg">
<path d="M98 6H111" stroke="white" stroke-width="2" stroke-linecap="round" stroke-linejoin="round"/>
<path d="M98 12H111" stroke="white" stroke-width="2" stroke-linecap="round" stroke-linejoin="round"/>
<path d="M98 18H111" stroke="white" stroke-width="2" stroke-linecap="round" stroke-linejoin="round"/>
<path d="M93 6H93.01" stroke="white" stroke-width="2" stroke-linecap="round" stroke-linejoin="round"/>
<path d="M93 12H93.01" stroke="white" stroke-width="2" stroke-linecap="round" stroke-linejoin="round"/>
<path d="M93 18H93.01" stroke="white" stroke-width="2" stroke-linecap="round" stroke-linejoin="round"/>
<path d="M20.84 4.60987C20.3292 4.09888 19.7228 3.69352 19.0554 3.41696C18.3879 3.14039 17.6725 2.99805 16.95 2.99805C16.2275 2.99805 15.5121 3.14039 14.8446 3.41696C14.1772 3.69352 13.5708 4.09888 13.06 4.60987L12 5.66987L10.94 4.60987C9.9083 3.57818 8.50903 2.99858 7.05 2.99858C5.59096 2.99858 4.19169 3.57818 3.16 4.60987C2.1283 5.64156 1.54871 7.04084 1.54871 8.49987C1.54871 9.95891 2.1283 11.3582 3.16 12.3899L4.22 13.4499L12 21.2299L19.78 13.4499L20.84 12.3899C21.351 11.8791 21.7563 11.2727 22.0329 10.6052C22.3095 9.93777 22.4518 9.22236 22.4518 8.49987C22.4518 7.77738 22.3095 7.06198 22.0329 6.39452C21.7563 5.72706 21.351 5.12063 20.84 4.60987V4.60987Z" stroke="white" stroke-width="2" stroke-linecap="round" stroke-linejoin="round"/>
<path d="M62 8C63.6569 8 65 6.65685 65 5C65 3.34315 63.6569 2 62 2C60.3431 2 59 3.34315 59 5C59 6.65685 60.3431 8 62 8Z" stroke="white" stroke-width="2" stroke-linecap="round" stroke-linejoin="round"/>
<path d="M50 15C51.6569 15 53 13.6569 53 12C53 10.3431 51.6569 9 50 9C48.3431 9 47 10.3431 47 12C47 13.6569 48.3431 15 50 15Z" stroke="white" stroke-width="2" stroke-linecap="round" stroke-linejoin="round"/>
<path d="M62 22C63.6569 22 65 20.6569 65 19C65 17.3431 63.6569 16 62 16C60.3431 16 59 17.3431 59 19C59 20.6569 60.3431 22 62 22Z" stroke="white" stroke-width="2" stroke-linecap="round" stroke-linejoin="round"/>
<path d="M52.59 13.5098L59.42 17.4898" stroke="white" stroke-width="2" stroke-linecap="round" stroke-linejoin="round"/>
<path d="M59.41 6.50977L52.59 10.4898" stroke="white" stroke-width="2" stroke-linecap="round" stroke-linejoin="round"/>
</svg>
