<svg width="20" height="20" viewBox="0 0 20 20" fill="none" xmlns="http://www.w3.org/2000/svg">
<g clip-path="url(#clip0_12_20044)">
<path d="M4.83477 3.72418C5.70737 2.94988 6.73228 2.36285 7.84503 2C8.16321 2.39486 8.56714 2.7136 9.0268 2.93253C9.48646 3.15145 9.99002 3.26492 10.5 3.26451C11.0101 3.26492 11.5136 3.15145 11.9733 2.93253C12.4329 2.7136 12.8369 2.39486 13.1551 2C14.2678 2.36285 15.2927 2.94988 16.1653 3.72418C15.9796 4.19433 15.9032 4.69987 15.9418 5.20327C15.9803 5.70668 16.1328 6.19502 16.388 6.63204C16.6426 7.0699 16.9936 7.44526 17.4149 7.73022C17.8361 8.01517 18.3168 8.20238 18.8212 8.27793C19.0596 9.41354 19.0596 10.5856 18.8212 11.7212C17.8353 11.8711 16.926 12.4453 16.388 13.3671C16.1327 13.8042 15.9801 14.2927 15.9416 14.7963C15.903 15.2999 15.9795 15.8056 16.1653 16.2758C15.2926 17.0498 14.2677 17.6366 13.1551 17.9992C12.8368 17.6044 12.4328 17.2859 11.9732 17.0671C11.5135 16.8483 11.01 16.735 10.5 16.7355C9.99002 16.7351 9.48646 16.8485 9.0268 17.0675C8.56714 17.2864 8.16321 17.6051 7.84503 18C6.73235 17.6374 5.70744 17.0507 4.83477 16.2767C5.0206 15.8064 5.09708 15.3007 5.05853 14.7971C5.01998 14.2936 4.86739 13.8051 4.6121 13.368C4.35739 12.9303 4.00636 12.5551 3.5851 12.2703C3.16385 11.9855 2.68321 11.7984 2.17891 11.7229C1.94036 10.587 1.94036 9.41466 2.17891 8.27877C2.68328 8.20322 3.16397 8.01601 3.58523 7.73106C4.00649 7.4461 4.35748 7.07074 4.6121 6.63289C4.86726 6.19586 5.01978 5.70752 5.05832 5.20412C5.09687 4.70071 5.02046 4.19517 4.83477 3.72502V3.72418ZM11.7749 12.1868C12.0672 12.0222 12.3237 11.8019 12.5297 11.5386C12.7357 11.2754 12.8871 10.9744 12.9752 10.6529C13.0633 10.3315 13.0864 9.99596 13.043 9.66566C12.9997 9.33535 12.8908 9.0168 12.7227 8.72835C12.5546 8.43989 12.3305 8.18723 12.0634 7.9849C11.7963 7.78258 11.4915 7.63458 11.1664 7.54945C10.8413 7.46431 10.5024 7.44371 10.1693 7.48883C9.83615 7.53396 9.5153 7.64391 9.22523 7.81237C8.64441 8.14967 8.22185 8.70085 8.04976 9.34564C7.87767 9.99043 7.97002 10.6765 8.30666 11.2541C8.64331 11.8316 9.19691 12.2539 9.84667 12.4286C10.4964 12.6034 11.1896 12.5164 11.7749 12.1868Z" fill="#9197A4"/>
</g>
<defs>
<clipPath id="clip0_12_20044">
<rect width="20" height="20" fill="white"/>
</clipPath>
</defs>
</svg>
