<svg width="30" height="30" viewBox="0 0 30 30" fill="none" xmlns="http://www.w3.org/2000/svg">
<path d="M12.9064 5.39637C13.4389 3.20137 16.5614 3.20137 17.0939 5.39637C17.1738 5.72612 17.3304 6.03235 17.551 6.29012C17.7716 6.5479 18.05 6.74994 18.3634 6.8798C18.6769 7.00967 19.0166 7.06369 19.3549 7.03746C19.6931 7.01123 20.0204 6.9055 20.3101 6.72887C22.2389 5.55387 24.4476 7.76137 23.2726 9.69137C23.0962 9.98094 22.9907 10.308 22.9645 10.6461C22.9384 10.9841 22.9923 11.3236 23.122 11.6368C23.2517 11.9501 23.4535 12.2283 23.711 12.4489C23.9685 12.6695 24.2744 12.8263 24.6039 12.9064C26.7989 13.4389 26.7989 16.5614 24.6039 17.0939C24.2741 17.1738 23.9679 17.3304 23.7101 17.551C23.4523 17.7716 23.2503 18.05 23.1204 18.3634C22.9906 18.6769 22.9366 19.0166 22.9628 19.3549C22.989 19.6931 23.0947 20.0204 23.2714 20.3101C24.4464 22.2389 22.2389 24.4476 20.3089 23.2726C20.0193 23.0962 19.6922 22.9907 19.3542 22.9645C19.0161 22.9384 18.6767 22.9923 18.3634 23.122C18.0501 23.2517 17.7719 23.4535 17.5513 23.711C17.3307 23.9685 17.174 24.2744 17.0939 24.6039C16.5614 26.7989 13.4389 26.7989 12.9064 24.6039C12.8265 24.2741 12.6698 23.9679 12.4492 23.7101C12.2286 23.4523 11.9503 23.2503 11.6368 23.1204C11.3234 22.9906 10.9837 22.9366 10.6454 22.9628C10.3071 22.989 9.97981 23.0947 9.69012 23.2714C7.76137 24.4464 5.55262 22.2389 6.72762 20.3089C6.904 20.0193 7.00956 19.6922 7.03573 19.3542C7.06189 19.0161 7.00793 18.6767 6.87821 18.3634C6.7485 18.0501 6.5467 17.7719 6.28921 17.5513C6.03173 17.3307 5.72583 17.174 5.39637 17.0939C3.20137 16.5614 3.20137 13.4389 5.39637 12.9064C5.72612 12.8265 6.03235 12.6698 6.29012 12.4492C6.5479 12.2286 6.74994 11.9503 6.8798 11.6368C7.00967 11.3234 7.06369 10.9837 7.03746 10.6454C7.01123 10.3071 6.9055 9.97981 6.72887 9.69012C5.55387 7.76137 7.76137 5.55262 9.69137 6.72762C10.9364 7.48762 12.5614 6.81512 12.9064 5.39637Z" stroke="white" stroke-width="2" stroke-linecap="round" stroke-linejoin="round"/>
<path d="M18.7504 15.0004C18.7504 15.9949 18.3553 16.9488 17.652 17.652C16.9488 18.3553 15.9949 18.7504 15.0004 18.7504C14.0058 18.7504 13.052 18.3553 12.3487 17.652C11.6455 16.9488 11.2504 15.9949 11.2504 15.0004C11.2504 14.0058 11.6455 13.052 12.3487 12.3487C13.052 11.6455 14.0058 11.2504 15.0004 11.2504C15.9949 11.2504 16.9488 11.6455 17.652 12.3487C18.3553 13.052 18.7504 14.0058 18.7504 15.0004V15.0004Z" stroke="white" stroke-width="2" stroke-linecap="round" stroke-linejoin="round"/>
</svg>
