<svg width="12" height="11" viewBox="0 0 12 11" fill="none" xmlns="http://www.w3.org/2000/svg">
<path d="M11.3561 1.70927C11.1161 1.58049 10.6127 1.44585 9.92781 1.92585L9.06732 2.53464C9.00293 0.714147 8.21269 0 6.29269 0H2.78049C0.778537 0 0 0.778537 0 2.78049V7.46342C0 8.80976 0.731708 10.2439 2.78049 10.2439H6.29269C8.21269 10.2439 9.00293 9.52976 9.06732 7.70927L9.92781 8.31805C10.2907 8.57561 10.6068 8.65757 10.8585 8.65757C11.0751 8.65757 11.2449 8.59317 11.3561 8.53464C11.5961 8.41171 12 8.07805 12 7.24098V3.00293C12 2.16585 11.5961 1.8322 11.3561 1.70927ZM5.41464 4.75903C4.81171 4.75903 4.31415 4.26732 4.31415 3.65854C4.31415 3.04976 4.81171 2.55805 5.41464 2.55805C6.01756 2.55805 6.51512 3.04976 6.51512 3.65854C6.51512 4.26732 6.01756 4.75903 5.41464 4.75903Z" fill="white"/>
</svg>
