<svg width="15" height="18" viewBox="0 0 15 18" fill="none" xmlns="http://www.w3.org/2000/svg">
<path d="M14.7894 5.66222C13.902 1.75782 10.4962 0 7.50454 0C7.50454 0 7.50454 0 7.49609 0C4.51286 0 1.09862 1.74937 0.211258 5.65377C-0.777517 10.0145 1.89302 13.7076 4.31003 16.0317C5.20584 16.8937 6.35519 17.3247 7.50454 17.3247C8.65388 17.3247 9.80323 16.8937 10.6906 16.0317C13.1076 13.7076 15.7781 10.023 14.7894 5.66222ZM7.50454 9.89621C6.03405 9.89621 4.84245 8.70461 4.84245 7.23412C4.84245 5.76363 6.03405 4.57203 7.50454 4.57203C8.97502 4.57203 10.1666 5.76363 10.1666 7.23412C10.1666 8.70461 8.97502 9.89621 7.50454 9.89621Z" fill="#777778"/>
</svg>
