<svg width="30" height="30" viewBox="0 0 30 30" fill="none" xmlns="http://www.w3.org/2000/svg">
<g clip-path="url(#clip0_52_50867)">
<path d="M0.75 3.5625L25.5938 1.78125L29.3438 26.625L3 29.3438L0.75 3.5625Z" fill="white"/>
<path d="M25.125 2.34375L28.6875 26.0625L3.46875 28.6875L1.3125 4.125L25.125 2.34375ZM26.0625 1.125L25.0312 1.21875L1.3125 2.90625L0.09375 3L0.1875 4.21875L2.34375 28.875L2.4375 30L3.65625 29.9062L28.7812 27.1875L30 27.0937L29.8125 25.875L26.25 2.15625L26.0625 1.125Z" fill="#95A39B"/>
<path d="M26.4375 22.5937L4.78125 24.8438L3.28125 5.53125L23.625 4.03125L26.4375 22.5937Z" fill="#96D0EA"/>
<mask id="mask0_52_50867" style="mask-type:luminance" maskUnits="userSpaceOnUse" x="3" y="4" width="24" height="21">
<path d="M26.4375 22.5937L4.78125 24.8438L3.28125 5.53125L23.625 4.03125L26.4375 22.5937Z" fill="white"/>
</mask>
<g mask="url(#mask0_52_50867)">
<path d="M18.5624 20.25C19.9686 20.7188 21.2811 21.8438 21.6561 23.5313C22.1249 25.2188 21.4686 27.1875 20.1561 28.2188C19.3124 28.875 18.2811 28.9688 17.2499 28.9688C14.9061 28.9688 12.4686 28.2188 10.1249 27.375C9.37487 27.0938 8.53112 26.8125 7.87487 26.25C7.21862 25.7813 6.56237 24.9375 6.46862 24C6.28112 22.6875 7.12487 21.375 8.15612 20.7188C9.93737 19.5938 11.7186 19.125 13.4999 19.125C15.0936 19.2188 17.0624 19.7813 18.5624 20.25Z" fill="#B83D68"/>
<path d="M18.8435 18.5625C20.3435 19.125 21.656 20.625 22.1248 22.7812C22.5935 24.9375 21.9373 27.5625 20.6248 28.7813C19.781 29.625 18.656 29.8125 17.6248 29.8125C15.0935 29.8125 12.5623 28.7813 10.031 27.75C9.18729 27.375 8.34354 27 7.59354 26.3438C6.84354 25.6875 6.28104 24.6563 6.09354 23.4375C5.90604 21.75 6.74979 20.0625 7.87479 19.2188C9.74979 17.7188 11.6248 17.1562 13.5935 17.1562C15.281 17.25 17.2498 17.9062 18.8435 18.5625Z" fill="#B83D68"/>
<path d="M21.7255 14.824C21.741 10.5265 18.2699 7.0301 13.9724 7.01452C9.67494 6.99895 6.17853 10.4701 6.16296 14.7676C6.14739 19.065 9.61855 22.5615 13.916 22.577C18.2135 22.5926 21.7099 19.1214 21.7255 14.824Z" fill="#7F5C4E"/>
<path d="M18.2809 19.2188C19.5934 19.6875 20.8121 20.8125 21.2809 22.5C21.6559 24.1875 21.0934 26.1563 19.8746 27.1875C19.1246 27.8438 18.0934 27.9375 17.1559 27.9375C14.9059 27.9375 12.6559 27.1875 10.4059 26.3438C9.65588 26.0625 8.90588 25.7813 8.24963 25.3125C7.59338 24.8438 7.03088 24 6.93713 23.0625C6.74963 21.75 7.49963 20.4375 8.43713 19.7813C10.0309 18.6563 11.8121 18.1875 13.4996 18.1875C14.9996 18.1875 16.8746 18.75 18.2809 19.2188Z" fill="#DB8CB1"/>
<path d="M17.3432 20.061C18.3745 20.436 19.312 21.3735 19.687 22.5922C20.062 23.9047 19.5932 25.4985 18.6557 26.2485C17.9995 26.7172 17.2495 26.9047 16.4995 26.9047C14.7182 26.9047 13.0307 26.2485 11.2495 25.686C10.687 25.4985 10.0307 25.2172 9.56198 24.8422C8.99948 24.4672 8.62448 23.811 8.53073 23.061C8.43698 22.0297 8.99948 20.9985 9.74948 20.5297C11.062 19.686 12.3745 19.311 13.687 19.311C14.812 19.2172 16.2182 19.686 17.3432 20.061Z" fill="#E8A7C6"/>
<path d="M17.8125 20.1563C17.8125 20.1563 15.9375 24 12.4688 24.4688C9 24.8438 9 19.5938 9 19.5938C9 19.5938 14.0625 22.5 17.8125 20.1563Z" fill="#E8CCAA"/>
<path d="M20.8816 14.8198C20.8955 10.9883 17.8007 7.87105 13.9692 7.85717C10.1377 7.84329 7.02047 10.9381 7.00658 14.7695C6.9927 18.601 10.0875 21.7183 13.9189 21.7322C17.7504 21.7461 20.8677 18.6513 20.8816 14.8198Z" fill="#A67A65"/>
<path opacity="0.48" d="M19.7813 16.7793C19.7813 16.7793 17.4375 21.748 13.125 22.3105C8.8125 22.873 8.8125 15.9355 8.8125 15.9355C8.8125 15.9355 15 19.7793 19.7813 16.7793Z" fill="#A67A65"/>
<path d="M20.6309 14.3145C20.6444 10.5866 17.6333 7.55359 13.9054 7.54008C10.1774 7.52658 7.14441 10.5377 7.1309 14.2656C7.1174 17.9935 10.1285 21.0266 13.8564 21.0401C17.5844 21.0536 20.6174 18.0425 20.6309 14.3145Z" fill="#E5A98C"/>
<path d="M20.5303 14.1197C20.5432 10.5471 17.7415 7.6408 14.2725 7.62823C10.8034 7.61566 7.98072 10.5016 7.96778 14.0742C7.95483 17.6468 10.7565 20.5532 14.2256 20.5657C17.6946 20.5783 20.5173 17.6923 20.5303 14.1197Z" fill="#E8CCAA"/>
<path d="M17.0658 15.0528C17.0752 12.464 15.0261 10.3579 12.489 10.3487C9.95199 10.3395 7.88769 12.4307 7.87831 15.0195C7.86893 17.6084 9.91802 19.7145 12.4551 19.7237C14.9921 19.7329 17.0564 17.6417 17.0658 15.0528Z" fill="#FAEACF"/>
<path d="M16.5931 9.75111C16.5931 9.75111 15.9368 12.5636 11.7181 13.0324C7.49935 13.5011 5.99935 16.1261 5.99935 16.1261C5.99935 16.1261 5.24935 12.1886 7.7806 10.6886C10.3118 9.18861 13.4993 7.40736 16.5931 9.75111Z" fill="#B29A34"/>
<path d="M13.0302 8.71892C13.0302 8.71892 18.9365 9.18767 19.4052 13.4064C19.874 17.6252 20.4365 21.3752 23.9052 22.2189C23.9052 22.2189 22.4052 20.7189 22.9677 19.5002C23.5302 18.2814 27.4677 6.65642 19.6865 4.68767C11.9052 2.71892 13.0302 8.71892 13.0302 8.71892Z" fill="#B29A34"/>
<path d="M13.4991 9.37532C13.4991 9.37532 17.7179 10.5941 18.1866 14.4378C18.6554 18.2816 19.1241 21.6566 22.3116 22.4066C22.3116 22.4066 20.9054 21.0941 21.4679 19.9691C22.0304 18.8441 25.4054 8.34407 18.3741 6.46907C11.3429 4.59407 13.4991 9.37532 13.4991 9.37532Z" fill="#B29A34"/>
<path d="M13.0306 9.09273C13.0306 9.09273 18.3743 10.2177 18.8431 13.9677C19.3118 17.7177 19.7806 21.1865 22.9681 21.9365C22.9681 21.9365 21.5618 20.624 22.1243 19.499C22.6868 18.374 26.0618 7.87398 19.0306 5.99898C11.9993 4.12398 13.0306 9.09273 13.0306 9.09273Z" fill="#E8E26B"/>
<path d="M14.6246 8.53058C14.6246 8.53058 8.71838 6.93683 7.31213 9.65558C5.90588 12.3743 5.43713 12.5618 5.62463 16.1243C5.62463 16.1243 4.21838 12.7493 4.40588 11.0618C4.49963 9.46808 6.28088 4.03058 10.4059 3.93683C14.5309 3.84308 16.1246 5.81183 15.9371 6.28058C15.7496 6.84308 14.6246 8.53058 14.6246 8.53058Z" fill="#B29A34"/>
<path d="M15.5621 9.56183C15.5621 9.56183 9.65588 7.96808 8.24963 10.6868C6.84338 13.4056 6.37463 13.5931 6.56213 17.1556C6.56213 17.1556 5.15588 13.7806 5.34338 12.0931C5.53088 10.4056 7.21838 5.06183 11.3434 4.96808C15.4684 4.87433 17.0621 6.84308 16.8746 7.31183C16.6871 7.87433 15.5621 9.56183 15.5621 9.56183Z" fill="#E8E26B"/>
<path d="M16.4056 7.59312C16.4056 7.59312 21.3744 7.31187 21.8431 10.8744C22.3119 14.4369 21.5619 16.9681 21.5619 16.9681C21.5619 16.9681 21.7494 13.2181 20.8119 11.9994C19.8744 10.7806 17.5306 9.84312 16.7806 9.18687C15.8431 8.53062 16.4056 7.59312 16.4056 7.59312Z" fill="#F7F1A9"/>
<path d="M16.4996 8.90491C16.4996 8.90491 15.8433 11.7174 11.6246 12.1862C7.40581 12.6549 5.90581 15.2799 5.90581 15.2799C5.90581 15.2799 5.15581 11.2487 7.78081 9.74866C10.4058 8.24866 13.4058 6.56116 16.4996 8.90491Z" fill="#E8E26B"/>
<path d="M7.125 11.7178C7.125 11.7178 7.875 6.56159 11.25 6.28034C14.625 5.90534 15.5625 8.71784 14.25 9.46784C12.9375 10.2178 8.0625 10.3116 7.125 11.7178Z" fill="#F7F1A9"/>
<path d="M5.0625 13.6875L5.625 14.0625L7.03125 16.9687L7.21875 18.6562C7.21875 18.6562 6.1875 18 5.15625 14.3437L5.0625 13.6875Z" fill="#B29A34"/>
<path d="M6.9375 14.25L6.65625 14.3437L6.28125 16.4062L7.03125 16.9688L7.59375 14.1562L6.9375 14.25Z" fill="#B29A34"/>
<path d="M16.0099 15.3043C16.0116 14.8383 15.6772 14.4593 15.2629 14.4578C14.8487 14.4563 14.5116 14.8328 14.5099 15.2988C14.5082 15.7648 14.8426 16.1438 15.2568 16.1453C15.671 16.1468 16.0082 15.7703 16.0099 15.3043Z" fill="#425763"/>
<path d="M15.5817 15.0189C15.5821 14.9154 15.4985 14.8311 15.3949 14.8308C15.2914 14.8304 15.2071 14.914 15.2067 15.0176C15.2064 15.1211 15.29 15.2054 15.3936 15.2058C15.4971 15.2061 15.5814 15.1225 15.5817 15.0189Z" fill="white"/>
<path d="M10.2677 14.0445C10.2694 13.5785 9.93498 13.1995 9.52076 13.198C9.10655 13.1965 8.76939 13.5731 8.76771 14.0391C8.76602 14.5051 9.10044 14.884 9.51465 14.8855C9.92886 14.887 10.266 14.5105 10.2677 14.0445Z" fill="#425763"/>
<path d="M9.7458 13.7592C9.74617 13.6556 9.66253 13.5714 9.55898 13.571C9.45542 13.5706 9.37117 13.6543 9.3708 13.7578C9.37042 13.8614 9.45406 13.9456 9.55762 13.946C9.66117 13.9464 9.74542 13.8627 9.7458 13.7592Z" fill="white"/>
<path d="M13.6875 18.9375C13.6875 18.9375 12.9375 18.8438 12.375 18.4688C11.8125 18.0938 11.3438 18.0937 11.25 18.0937C11.1563 18.0937 10.9688 17.9062 10.7813 17.8125C10.5938 17.7188 10.4063 17.7188 10.3125 17.8125C10.3125 17.9062 10.5 18.2812 10.5 18.2812V18.75C10.5 18.9375 10.5 19.5 11.0625 19.5937C11.625 19.6875 12 19.6875 12.2813 19.5C12.5625 19.3125 13.6875 18.9375 13.6875 18.9375Z" fill="#A67A65"/>
</g>
</g>
<defs>
<clipPath id="clip0_52_50867">
<rect width="30" height="30" fill="white"/>
</clipPath>
</defs>
</svg>
