<svg width="24" height="24" viewBox="0 0 24 24" fill="none" xmlns="http://www.w3.org/2000/svg">
<path fill-rule="evenodd" clip-rule="evenodd" d="M17.1652 4.75172C15.6235 4.25724 13.7985 4.65636 12.8862 6.04015C12.7055 6.31425 12.4017 6.48218 12.0735 6.48947C11.7453 6.49676 11.4344 6.34248 11.2417 6.07668C10.2357 4.68906 8.42965 4.26693 6.92839 4.75139C4.11598 5.65661 2.90612 9.11743 3.87453 12.1414C4.65319 14.5644 6.3602 16.4236 8.1096 17.689C8.98045 18.3188 9.84309 18.7875 10.5705 19.0954C11.3309 19.4171 11.8477 19.5227 12.0513 19.5227C12.2521 19.5227 12.7704 19.4153 13.5369 19.0879C14.2691 18.7752 15.1373 18.3005 16.0119 17.6664C17.7706 16.3912 19.4729 14.533 20.2233 12.1467L20.2249 12.1419C21.192 9.11967 19.978 5.65758 17.1652 4.75172ZM12.0257 3.9829C13.6303 2.49846 15.9593 2.26433 17.7768 2.84754C21.9949 4.20556 23.306 9.0718 22.1305 12.7491C21.2106 15.6716 19.165 17.8506 17.1859 19.2856C16.1914 20.0067 15.193 20.5554 14.3224 20.9272C13.4859 21.2844 12.665 21.5227 12.0513 21.5227C11.4408 21.5227 10.6253 21.2903 9.79103 20.9372C8.92385 20.5702 7.92962 20.0271 6.93747 19.3095C4.961 17.8799 2.91764 15.7014 1.97022 12.7526C0.792838 9.07673 2.09334 4.2068 6.31458 2.84791M12.0257 3.9829C10.4135 2.56305 8.1652 2.25098 6.31458 2.84791L12.0257 3.9829Z" fill="#787878"/>
<path fill-rule="evenodd" clip-rule="evenodd" d="M14.7944 7.46227C14.8508 6.91288 15.3419 6.51326 15.8913 6.5697C16.7468 6.65759 17.4899 7.05185 18.0015 7.69882C18.5067 8.33763 18.7346 9.15546 18.7056 10.02C18.687 10.572 18.2246 11.0044 17.6726 10.9859C17.1206 10.9674 16.6882 10.5049 16.7067 9.95293C16.7227 9.47647 16.5956 9.1453 16.4327 8.93936C16.2763 8.74158 16.0384 8.59534 15.6869 8.55923C15.1375 8.50279 14.7379 8.01166 14.7944 7.46227Z" fill="#787878"/>
</svg>
