<svg width="48" height="48" viewBox="0 0 48 48" fill="none" xmlns="http://www.w3.org/2000/svg">
<g clip-path="url(#clip0_4_3273)">
<path fill-rule="evenodd" clip-rule="evenodd" d="M14.9053 15.158H33.0948C34.3505 15.158 35.3684 16.1759 35.3684 17.4316V31.0738C35.3684 32.3295 34.3505 33.3475 33.0948 33.3475H14.9053C13.6434 33.3475 12.6316 32.3243 12.6316 31.0738V17.4316C12.6316 16.1697 13.6434 15.158 14.9053 15.158ZM24 23.1159L33.0948 17.4316H14.9053L24 23.1159ZM14.9053 31.0738H33.0948V20.126L24 25.7988L14.9053 20.126V31.0738Z" fill="#D9D9D9"/>
<mask id="mask0_4_3273" style="mask-type:alpha" maskUnits="userSpaceOnUse" x="12" y="15" width="24" height="19">
<path fill-rule="evenodd" clip-rule="evenodd" d="M14.9053 15.158H33.0948C34.3505 15.158 35.3684 16.1759 35.3684 17.4316V31.0738C35.3684 32.3295 34.3505 33.3475 33.0948 33.3475H14.9053C13.6434 33.3475 12.6316 32.3243 12.6316 31.0738V17.4316C12.6316 16.1697 13.6434 15.158 14.9053 15.158ZM24 23.1159L33.0948 17.4316H14.9053L24 23.1159ZM14.9053 31.0738H33.0948V20.126L24 25.7988L14.9053 20.126V31.0738Z" fill="#D9D9D9"/>
</mask>
<g mask="url(#mask0_4_3273)">
</g>
</g>
<defs>
<clipPath id="clip0_4_3273">
<rect width="48" height="48" fill="white"/>
</clipPath>
</defs>
</svg>
