<svg width="30" height="30" viewBox="0 0 30 30" fill="none" xmlns="http://www.w3.org/2000/svg">
<g clip-path="url(#clip0_52_50987)">
<path d="M0.75 3.46875L24.6562 1.78125L28.3125 25.6875L2.90625 28.3125L0.75 3.46875Z" fill="white"/>
<path d="M24.1875 2.34375L27.6562 25.2187L3.375 27.6562L1.3125 4.03125L24.1875 2.34375ZM25.125 1.125L24.0938 1.21875L1.3125 2.8125L0.09375 2.90625L0.1875 4.125L2.25 27.9375L2.34375 29.0625L3.5625 28.9687L27.75 26.25L28.9688 26.1562L28.7812 24.9375L25.3125 2.15625L25.125 1.125Z" fill="#95A39B"/>
<path d="M25.5 21.8437L4.59375 24L3.1875 5.34375L22.7812 3.9375L25.5 21.8437Z" fill="#96D0EA"/>
<mask id="mask0_52_50987" style="mask-type:luminance" maskUnits="userSpaceOnUse" x="3" y="3" width="23" height="21">
<path d="M25.5 21.8437L4.59375 24L3.1875 5.34375L22.7812 3.9375L25.5 21.8437Z" fill="white"/>
</mask>
<g mask="url(#mask0_52_50987)">
<path d="M17.9062 19.5938C19.2187 20.0625 20.5312 21.0938 20.9062 22.7812C21.375 24.375 20.7187 26.3438 19.5 27.2813C18.6562 27.9375 17.7187 28.0312 16.6875 28.0312C14.4375 28.0312 12.0937 27.2812 9.8437 26.5312C9.0937 26.25 8.3437 25.9688 7.68745 25.4063C7.0312 24.9375 6.4687 24.1875 6.37495 23.25C6.18745 22.0312 7.0312 20.7188 7.9687 20.0625C9.6562 18.9375 11.4375 18.5625 13.125 18.5625C14.5312 18.5625 16.5 19.125 17.9062 19.5938Z" fill="#B83D68"/>
<path d="M18.1874 17.9063C19.5936 18.4688 20.9061 19.875 21.3749 21.9375C21.8436 24 21.1874 26.5313 19.9686 27.75C19.1249 28.5938 18.0936 28.7813 17.0624 28.7813C14.6249 28.7813 12.1874 27.75 9.74987 26.8125C8.90612 26.4375 8.15612 26.0625 7.40612 25.5C6.65612 24.8438 6.09362 23.9063 5.99987 22.6875C5.81237 21.0938 6.65612 19.4063 7.68737 18.6563C9.46862 17.25 11.3436 16.6875 13.2186 16.6875C14.7186 16.6875 16.5936 17.3438 18.1874 17.9063Z" fill="#B83D68"/>
<path d="M13.4062 21.8437C17.5484 21.8437 20.9062 18.4859 20.9062 14.3438C20.9062 10.2016 17.5484 6.84375 13.4062 6.84375C9.26411 6.84375 5.90625 10.2016 5.90625 14.3438C5.90625 18.4859 9.26411 21.8437 13.4062 21.8437Z" fill="#7F5C4E"/>
<path d="M17.6247 18.5625C18.9372 19.0312 20.0622 20.0625 20.531 21.75C20.906 23.3438 20.3435 25.3125 19.2185 26.25C18.4685 26.9063 17.531 27 16.5935 27C14.4372 27 12.281 26.25 10.1247 25.5C9.37473 25.2188 8.71848 24.9375 8.06223 24.4688C7.40598 24 6.84348 23.1562 6.84348 22.3125C6.65598 21.0938 7.40598 19.7813 8.24973 19.125C9.74973 18 11.531 17.625 13.1247 17.625C14.4372 17.625 16.3122 18.0938 17.6247 18.5625Z" fill="#DB8CB1"/>
<path d="M16.687 19.4067C17.7182 19.7817 18.562 20.6254 18.937 21.8442C19.312 23.1567 18.8432 24.6567 17.9057 25.4067C17.2495 25.8754 16.5932 26.0629 15.8432 26.0629C14.1557 26.0629 12.4682 25.4067 10.7807 24.8442C10.2182 24.6567 9.56198 24.3754 9.18698 24.0004C8.62448 23.6254 8.24948 22.9692 8.15573 22.3129C8.06198 21.2817 8.62448 20.3442 9.37448 19.8754C10.5932 19.0317 11.9057 18.6567 13.1245 18.6567C14.2495 18.5629 15.6557 19.0317 16.687 19.4067Z" fill="#E8A7C6"/>
<path d="M17.1562 19.5C17.1562 19.5 15.375 23.25 12 23.625C8.625 24 8.625 18.9375 8.625 18.9375C8.625 18.9375 13.5937 21.75 17.1562 19.5Z" fill="#E8CCAA"/>
<path d="M13.4063 21C17.0824 21 20.0625 18.0199 20.0625 14.3438C20.0625 10.6676 17.0824 7.6875 13.4063 7.6875C9.7301 7.6875 6.75 10.6676 6.75 14.3438C6.75 18.0199 9.7301 21 13.4063 21Z" fill="#A67A65"/>
<path opacity="0.48" d="M19.125 16.2187C19.125 16.2187 16.875 21 12.75 21.5625C8.625 22.125 8.625 15.375 8.625 15.375C8.625 15.375 14.4375 19.125 19.125 16.2187Z" fill="#A67A65"/>
<path d="M13.4062 20.25C16.9788 20.25 19.875 17.3538 19.875 13.7812C19.875 10.2087 16.9788 7.3125 13.4062 7.3125C9.83366 7.3125 6.9375 10.2087 6.9375 13.7812C6.9375 17.3538 9.83366 20.25 13.4062 20.25Z" fill="#E5A98C"/>
<path d="M19.7982 13.6184C19.8107 10.1493 17.0926 7.32724 13.7272 7.31505C10.3617 7.30285 7.62322 10.1052 7.61065 13.5742C7.59808 17.0433 10.3162 19.8654 13.6816 19.8775C17.0471 19.8897 19.7856 17.0874 19.7982 13.6184Z" fill="#E8CCAA"/>
<path d="M16.4284 14.5847C16.4374 12.0994 14.472 10.0775 12.0385 10.0687C9.60496 10.0599 7.62491 12.0675 7.61591 14.5527C7.60691 17.038 9.57235 19.0599 12.0059 19.0687C14.4394 19.0775 16.4194 17.0699 16.4284 14.5847Z" fill="#FAEACF"/>
<path d="M16.0307 9.46888C16.0307 9.46888 15.3745 12.1876 11.3432 12.6564C7.31197 13.1251 5.81197 15.6564 5.81197 15.6564C5.81197 15.6564 5.06197 11.8126 7.49947 10.3126C9.93697 8.81263 13.0307 7.21888 16.0307 9.46888Z" fill="#B29A34"/>
<path d="M12.5628 8.43612C12.5628 8.43612 18.2816 8.90487 18.7503 12.9361C19.2191 16.9674 19.7816 20.6236 23.0628 21.4674C23.0628 21.4674 21.6566 20.0611 22.1253 18.8424C22.6878 17.6236 26.4378 6.46737 18.9378 4.59237C11.4378 2.71737 12.5628 8.43612 12.5628 8.43612Z" fill="#B29A34"/>
<path d="M13.0308 9.094C13.0308 9.094 17.0621 10.3128 17.5308 13.969C17.9996 17.719 18.4683 20.9065 21.4683 21.6565C21.4683 21.6565 20.1558 20.344 20.6246 19.3128C21.1871 18.1878 24.3746 8.06275 17.6246 6.2815C10.8746 4.50025 13.0308 9.094 13.0308 9.094Z" fill="#B29A34"/>
<path d="M12.562 8.81165C12.562 8.81165 17.7183 9.93665 18.187 13.4992C18.6558 17.1554 19.1245 20.4367 22.1245 21.1867C22.1245 21.1867 20.812 19.9679 21.2808 18.8429C21.8433 17.7179 25.1245 7.5929 18.2808 5.81165C11.437 4.0304 12.562 8.81165 12.562 8.81165Z" fill="#E8E26B"/>
<path d="M14.0624 8.24949C14.0624 8.24949 8.34366 6.74949 7.03116 9.37449C5.71866 11.9995 5.24991 12.187 5.43741 15.6557C5.43741 15.6557 4.12491 12.3745 4.21866 10.7807C4.31241 9.28074 5.99991 4.03074 10.0312 3.93699C14.0624 3.84324 15.5624 5.71824 15.3749 6.18699C15.1874 6.65574 14.0624 8.24949 14.0624 8.24949Z" fill="#B29A34"/>
<path d="M14.9999 9.28074C14.9999 9.28074 9.28116 7.78074 7.96866 10.4057C6.65616 13.0307 6.18741 13.2182 6.37491 16.687C6.37491 16.687 5.06241 13.4057 5.15616 11.812C5.34366 10.2182 6.93741 5.06199 10.9687 4.96824C14.9999 4.87449 16.4999 6.74949 16.3124 7.21824C16.1249 7.59324 14.9999 9.28074 14.9999 9.28074Z" fill="#E8E26B"/>
<path d="M15.8441 7.40587C15.8441 7.40587 20.6254 7.12462 21.0941 10.5934C21.5629 14.0621 20.8129 16.4996 20.8129 16.4996C20.8129 16.4996 21.0004 12.8434 20.0629 11.7184C19.1254 10.4996 16.8754 9.65587 16.2191 8.99962C15.2816 8.24962 15.8441 7.40587 15.8441 7.40587Z" fill="#F7F1A9"/>
<path d="M15.9378 8.62373C15.9378 8.62373 15.2816 11.3425 11.2503 11.8112C7.21907 12.28 5.71907 14.8112 5.71907 14.8112C5.71907 14.8112 4.96907 10.8737 7.50032 9.46748C10.0316 8.06123 12.9378 6.37373 15.9378 8.62373Z" fill="#E8E26B"/>
<path d="M6.84375 11.3439C6.84375 11.3439 7.59375 6.37515 10.7812 6.0939C14.0625 5.7189 15 8.43765 13.7812 9.18765C12.4687 9.93765 7.78125 9.93766 6.84375 11.3439Z" fill="#F7F1A9"/>
<path d="M4.875 13.2188L5.4375 13.5937L6.75 16.4062L6.9375 18C6.9375 18 5.90625 17.3438 4.96875 13.875L4.875 13.2188Z" fill="#B29A34"/>
<path d="M6.65625 13.7812L6.375 13.875L6.09375 15.8437L6.75 16.4062L7.3125 13.6875L6.65625 13.7812Z" fill="#B29A34"/>
<path d="M15.4855 14.7984C15.4872 14.3324 15.1528 13.9534 14.7385 13.9519C14.3243 13.9504 13.9872 14.327 13.9855 14.793C13.9838 15.259 14.3182 15.6379 14.7324 15.6394C15.1466 15.6409 15.4838 15.2644 15.4855 14.7984Z" fill="#425763"/>
<path d="M14.8125 14.7187C14.9161 14.7187 15 14.6348 15 14.5312C15 14.4277 14.9161 14.3438 14.8125 14.3438C14.7089 14.3438 14.625 14.4277 14.625 14.5312C14.625 14.6348 14.7089 14.7187 14.8125 14.7187Z" fill="white"/>
<path d="M9.94349 13.5777C9.94518 13.1117 9.61076 12.7327 9.19654 12.7312C8.78233 12.7297 8.44518 13.1063 8.44349 13.5723C8.4418 14.0383 8.77622 14.4172 9.19043 14.4187C9.60464 14.4202 9.9418 14.0437 9.94349 13.5777Z" fill="#425763"/>
<path d="M9.1875 13.5C9.29105 13.5 9.375 13.4161 9.375 13.3125C9.375 13.2089 9.29105 13.125 9.1875 13.125C9.08395 13.125 9 13.2089 9 13.3125C9 13.4161 9.08395 13.5 9.1875 13.5Z" fill="white"/>
<path d="M13.2188 18.2813C13.2188 18.2813 12.4687 18.1875 12 17.8125C11.4375 17.4375 10.9688 17.4375 10.875 17.4375C10.7812 17.4375 10.5938 17.25 10.4062 17.1562C10.2188 17.0625 10.0312 17.0625 9.9375 17.1562C9.9375 17.25 10.125 17.625 10.125 17.625C10.125 17.625 10.125 17.9063 10.125 18.0938C10.125 18.2812 10.125 18.8438 10.6875 18.9375C11.25 19.0313 11.625 19.0313 11.9062 18.8438C12.1875 18.6563 13.2188 18.2813 13.2188 18.2813Z" fill="#A67A65"/>
</g>
<path d="M18.75 27.9375L18.4688 28.4062L20.0625 29.4375L28.9687 20.625L27.4687 18.75L18.75 27.9375Z" fill="#9A4C18"/>
<path d="M29.156 23.0625C28.8748 26.625 25.5935 29.5312 21.9373 29.5312C18.3748 29.5312 16.031 26.5313 16.6873 23.0625C17.3435 19.875 20.4373 17.3438 23.6248 17.25C26.906 17.3438 29.4373 19.7813 29.156 23.0625Z" fill="#9A4C18"/>
<path d="M29.9994 24.1875C29.7182 27.5625 26.5307 30.375 22.9682 30.375C19.4994 30.375 17.2494 27.4688 17.9057 24.1875C18.5619 21.0937 21.5619 18.75 24.6557 18.6562C27.9369 18.6562 30.2807 21.0937 29.9994 24.1875Z" fill="#9A4C18"/>
<path d="M19.7812 28.125L21.2813 28.9688L28.5938 21.2813L27.375 19.6875L19.7812 28.125Z" fill="#F49937"/>
<path d="M29.3432 24.1875C29.0619 27.0937 26.4369 29.4375 23.4369 29.4375C20.5307 29.4375 18.6557 27 19.1244 24.1875C19.5932 21.5625 22.1244 19.4062 24.8432 19.4062C27.5619 19.4062 29.6244 21.4687 29.3432 24.1875Z" fill="#F49937"/>
<path d="M28.3122 23.0625C28.0309 26.1562 25.2184 28.6875 22.0309 28.6875C18.9372 28.6875 16.8747 26.0625 17.4372 23.0625C17.9997 20.25 20.7184 18 23.5309 18C26.4372 18 28.5934 20.1562 28.3122 23.0625Z" fill="#FFEDC0"/>
<path d="M27.9369 23.3429C27.6557 26.2492 25.0307 28.5929 22.0307 28.5929C19.1244 28.5929 17.2494 26.1554 17.7182 23.3429C18.1869 20.7179 20.7182 18.5617 23.4369 18.5617C26.2494 18.4679 28.2182 20.5304 27.9369 23.3429Z" fill="#FFD766"/>
<path d="M26.8123 23.3436C26.6248 25.5936 24.5623 27.3748 22.2186 27.3748C19.9686 27.3748 18.4686 25.4998 18.8436 23.3436C19.2186 21.2811 21.1873 19.5936 23.3436 19.5936C25.4998 19.4998 26.9998 21.1873 26.8123 23.3436Z" fill="#FFEDC0"/>
<path d="M26.9061 22.7813C26.7186 24.9375 24.6561 26.8125 22.4061 26.8125C20.1561 26.8125 18.6561 25.0313 19.0311 22.875C19.4061 20.8125 21.3748 19.125 23.4373 19.125C25.4998 19.0313 27.0936 20.625 26.9061 22.7813Z" fill="#F49937"/>
<path d="M26.1559 23.3443C25.9684 25.2193 24.1872 26.7193 22.3122 26.7193C20.4372 26.7193 19.1247 25.1255 19.4997 23.3443C19.7809 21.563 21.4684 20.1568 23.2497 20.1568C25.1247 20.063 26.3434 21.4693 26.1559 23.3443Z" fill="#FFD766"/>
<path d="M23.8125 19.7812L24.2813 21.75L26.5312 22.3125L24.4688 23.7187L24.2813 26.0625L22.5 24.75L20.1563 25.5937L21.1875 23.3437L19.9688 21.6562L22.3125 21.5625L23.8125 19.7812Z" fill="#F49937"/>
</g>
<defs>
<clipPath id="clip0_52_50987">
<rect width="30" height="30" fill="white"/>
</clipPath>
</defs>
</svg>
