<svg width="23" height="215" viewBox="0 0 23 215" fill="none" xmlns="http://www.w3.org/2000/svg">
<g opacity="0.5">
<path d="M22.1855 136.156L11.7782 132.638C11.5262 132.552 11.2383 132.552 10.985 132.638L0.578138 136.156C0.238437 136.271 0.0141059 136.523 0.00150801 136.805C-0.0106479 137.087 0.188193 137.35 0.516696 137.483L10.9234 141.69C11.0669 141.748 11.2242 141.777 11.3819 141.777C11.5405 141.777 11.6975 141.748 11.8413 141.69L22.2485 137.483C22.5767 137.35 22.7757 137.087 22.7638 136.805C22.7496 136.523 22.5258 136.271 22.1855 136.156Z" fill="white"/>
<path d="M21.33 139.304L11.381 143.327L1.43358 139.304C0.957368 139.111 0.367698 139.248 0.115298 139.608C-0.13887 139.969 0.0414049 140.415 0.516294 140.608L10.923 144.816C11.0665 144.874 11.2238 144.903 11.3815 144.903C11.54 144.903 11.6971 144.874 11.8409 144.816L22.248 140.608C22.7218 140.415 22.9019 139.969 22.6492 139.608C22.3949 139.248 21.8048 139.111 21.33 139.304Z" fill="white"/>
<path d="M21.33 142.191L11.381 146.213L1.43358 142.191C0.957368 141.998 0.367698 142.135 0.115298 142.494C-0.13887 142.855 0.0414049 143.302 0.516294 143.494L10.923 147.701C11.0665 147.759 11.2238 147.788 11.3815 147.788C11.54 147.788 11.6971 147.76 11.8409 147.701L22.248 143.494C22.7218 143.302 22.9019 142.855 22.6492 142.494C22.3949 142.135 21.8056 141.998 21.33 142.191Z" fill="white"/>
</g>
<g opacity="0.5">
<path d="M19.5214 206.678C19.5214 206.486 19.5105 206.303 19.4886 206.112L21.5249 204.938C21.9628 204.689 22.0833 204.223 21.8096 203.857L19.7623 201.169C19.631 200.992 19.4187 200.859 19.1661 200.795C18.9135 200.73 18.6385 200.739 18.3938 200.819L16.04 201.576C15.6349 201.36 15.208 201.169 14.7591 201.01L14.4416 199.088C14.3759 198.672 13.9052 198.356 13.3578 198.356L9.27417 198.356C8.71583 198.356 8.24507 198.672 8.17938 199.088L7.86189 201.01C7.41302 201.169 6.98605 201.36 6.58098 201.576L4.22717 200.819C3.72357 200.653 3.13238 200.802 2.85868 201.169L0.811415 203.865C0.537717 204.231 0.658144 204.689 1.09606 204.947L3.13238 206.12C3.087 206.494 3.087 206.87 3.13238 207.244L1.09606 208.417C0.658144 208.667 0.537717 209.133 0.811415 209.499L2.85868 212.187C3.13238 212.553 3.72357 212.703 4.22717 212.537L6.58098 211.779C6.98605 211.996 7.41302 212.187 7.86189 212.345L8.17938 214.268C8.24507 214.684 8.71583 215 9.26323 215L13.3468 215C13.8942 215 14.365 214.684 14.4307 214.268L14.7481 212.345C15.197 212.187 15.624 211.996 16.0291 211.779L18.3829 212.537C18.8865 212.703 19.4777 212.553 19.7514 212.187L21.7986 209.499C22.0723 209.133 21.9519 208.675 21.514 208.417L19.4777 207.244C19.5105 207.052 19.5214 206.869 19.5214 206.678ZM11.3543 209.591C9.24133 209.591 7.5225 208.284 7.5225 206.678C7.5225 205.072 9.24133 203.765 11.3543 203.765C13.4672 203.765 15.1861 205.072 15.1861 206.678C15.1861 208.284 13.4672 209.591 11.3543 209.591Z" fill="white"/>
</g>
<path d="M7.98409 15.1313L3.54867 15.1313C2.32893 15.1313 1.33096 14.3747 1.33096 13.45L1.33096 1.68125C1.33096 0.756563 2.32893 0 3.54867 0L7.98409 2.51547e-10C9.20383 2.97664e-10 10.2018 0.756563 10.2018 1.68125L10.2018 13.45C10.2018 14.3747 9.20383 15.1313 7.98409 15.1313ZM14.6372 15.1313L19.0726 15.1313C20.2924 15.1313 21.2904 14.3747 21.2904 13.45L21.2904 9.24688C21.2904 8.32219 20.2924 7.56563 19.0726 7.56563L14.6372 7.56563C13.4175 7.56563 12.4195 8.32219 12.4195 9.24688L12.4195 13.45C12.4195 14.3747 13.4175 15.1313 14.6372 15.1313ZM21.2904 4.20313L21.2904 1.68125C21.2904 0.756563 20.2924 7.1691e-10 19.0726 6.70793e-10L14.6372 5.03095e-10C13.4175 4.56978e-10 12.4195 0.756563 12.4195 1.68125L12.4195 4.20313C12.4195 5.12781 13.4175 5.88438 14.6372 5.88438L19.0726 5.88438C20.2924 5.88438 21.2904 5.12781 21.2904 4.20313Z" fill="#5361FD"/>
<g opacity="0.5">
<path fill-rule="evenodd" clip-rule="evenodd" d="M16.9815 70.1028C16.9815 72.5012 14.4449 74.4244 11.279 74.4244C8.11415 74.4244 5.57645 72.5012 5.57645 70.1028C5.57645 67.7044 8.11415 65.7821 11.279 65.7821C14.4449 65.7821 16.9815 67.7044 16.9815 70.1028ZM11.2788 81.6339C6.60645 81.6339 2.66143 81.0582 2.66143 78.837C2.66143 76.615 6.63123 76.0597 11.2788 76.0597C15.9523 76.0597 19.8962 76.6354 19.8962 78.8566C19.8962 81.0786 15.9264 81.6339 11.2788 81.6339Z" fill="white"/>
</g>
</svg>
