<svg width="25" height="25" viewBox="0 0 25 25" fill="none" xmlns="http://www.w3.org/2000/svg">
<path fill-rule="evenodd" clip-rule="evenodd" d="M10.4261 0C16.1748 0 20.8522 4.67735 20.8522 10.4261C20.8522 12.7226 20.0967 14.841 18.8338 16.5656L24.5302 22.2619C25.1566 22.8882 25.1566 23.9037 24.5302 24.5301C23.9039 25.1564 22.8884 25.1564 22.2621 24.5301L16.5658 18.8338C14.8412 20.0967 12.7226 20.8522 10.4261 20.8522C4.67735 20.8522 0 16.1749 0 10.4261C0 4.67735 4.6773 0 10.4261 0ZM3.20805 10.4261C3.20805 14.4064 6.44582 17.6442 10.4261 17.6442C14.4063 17.6442 17.6442 14.4064 17.6442 10.4261C17.6442 6.44582 14.4064 3.20805 10.4261 3.20805C6.44582 3.20805 3.20805 6.44582 3.20805 10.4261Z" fill="#939496"/>
</svg>
