<svg width="27" height="27" viewBox="0 0 27 27" fill="none" xmlns="http://www.w3.org/2000/svg">
<path fill-rule="evenodd" clip-rule="evenodd" d="M24.2895 9.97462L26.3647 10.4258C26.7355 10.5065 27 10.8346 27 11.2141V15.7859C27 16.1654 26.7355 16.4935 26.3647 16.5742L24.2895 17.0254C24.1091 17.5779 23.8856 18.1167 23.6217 18.6358L24.7705 20.4228C24.9757 20.7421 24.9306 21.1613 24.6624 21.4295L21.4295 24.6624C21.1613 24.9308 20.7421 24.9757 20.4228 24.7705L18.6358 23.6217C18.1167 23.8856 17.5779 24.1091 17.0254 24.2895L16.5742 26.3647C16.4937 26.7355 16.1654 27 15.7859 27H11.2141C10.8346 27 10.5063 26.7355 10.4258 26.3647L9.97462 24.2895C9.42215 24.1091 8.88327 23.8856 8.36417 23.6217L6.57717 24.7705C6.25788 24.9757 5.83868 24.9306 5.57048 24.6624L2.33762 21.4295C2.06941 21.1613 2.0243 20.7421 2.22947 20.4228L3.3783 18.6358C3.11442 18.1167 2.89091 17.5779 2.71046 17.0254L0.635284 16.5742C0.264496 16.4935 0 16.1654 0 15.7859V11.2141C0 10.8346 0.264496 10.5065 0.635284 10.4258L2.71046 9.97462C2.89091 9.42215 3.11442 8.88327 3.3783 8.36417L2.22947 6.57717C2.0243 6.25788 2.06941 5.83868 2.33762 5.57048L5.57048 2.33762C5.83868 2.06941 6.25788 2.0243 6.57717 2.22947L8.36417 3.3783C8.88327 3.11442 9.42215 2.89091 9.97462 2.71046L10.4258 0.635284C10.5063 0.264496 10.8346 0 11.2141 0H15.7859C16.1654 0 16.4937 0.264496 16.5742 0.635284L17.0254 2.71046C17.5779 2.89091 18.1167 3.11442 18.6358 3.3783L20.4228 2.22947C20.7421 2.0243 21.1613 2.06941 21.4295 2.33762L24.6624 5.57048C24.9306 5.83868 24.9757 6.25788 24.7705 6.57717L23.6217 8.36417C23.8856 8.88327 24.1091 9.42215 24.2895 9.97462ZM13.5 18.3406C16.1691 18.3406 18.3406 16.1691 18.3406 13.5C18.3406 10.8309 16.1691 8.65936 13.5 8.65936C10.8309 8.65936 8.65936 10.8309 8.65936 13.5C8.65936 16.1691 10.8309 18.3406 13.5 18.3406Z" fill="#F6E3FF"/>
</svg>
