<svg width="18" height="18" viewBox="0 0 18 18" fill="none" xmlns="http://www.w3.org/2000/svg">
<mask id="mask0_0_198" style="mask-type:luminance" maskUnits="userSpaceOnUse" x="-3" y="-2" width="23" height="23">
<rect x="-2.84189" y="-1.89426" width="22.7351" height="22.7351" fill="white"/>
</mask>
<g mask="url(#mask0_0_198)">
<path fill-rule="evenodd" clip-rule="evenodd" d="M16.1048 8.52473H17.9994C17.9994 3.66509 14.3305 0 9.46423 0V1.8946C13.3122 1.8946 16.1048 4.68249 16.1048 8.52473Z" fill="#4EAC6D"/>
<path fill-rule="evenodd" clip-rule="evenodd" d="M9.47325 5.6843C11.4654 5.6843 12.3151 6.53402 12.3151 8.52619H14.2097C14.2097 5.47115 12.5283 3.7897 9.47325 3.7897V5.6843ZM12.7149 10.8404C12.3369 10.4966 11.7534 10.5146 11.3972 10.8812L9.13032 13.2125C8.58468 13.1083 7.48771 12.7663 6.35853 11.64C5.22935 10.5098 4.88738 9.41002 4.78602 8.86817L7.11542 6.60034C7.48297 6.24415 7.50003 5.66156 7.15616 5.28265L3.65589 1.43378C3.31202 1.05391 2.72754 1.01791 2.3382 1.35136L0.282562 3.11428C0.118679 3.27911 0.0211078 3.49699 0.0078455 3.72908C-0.00636406 3.9659 -0.277291 9.5758 4.0727 13.9277C7.86758 17.7216 12.6211 17.9992 13.9303 17.9992C14.1216 17.9992 14.2391 17.9935 14.2704 17.9916C14.5024 17.9783 14.7203 17.8808 14.8842 17.7159L16.6462 15.6593C16.9806 15.27 16.9427 14.6865 16.5647 14.3417L12.7149 10.8404Z" fill="#4EAC6D"/>
</g>
</svg>
