<svg width="33" height="27" viewBox="0 0 33 27" fill="none" xmlns="http://www.w3.org/2000/svg">
<path d="M24.7327 14.3202C20.2121 14.3202 16.5344 17.1102 16.5344 20.5395C16.5344 23.9688 20.2121 26.7587 24.7327 26.7587C29.2912 26.7587 32.9999 23.9688 32.9999 20.5395C32.9999 17.1102 29.2912 14.3202 24.7327 14.3202ZM27.2489 19.787L24.4931 22.2956C24.2956 22.4755 24.0039 22.5777 23.6994 22.5777C23.6597 22.5777 23.62 22.576 23.5801 22.5725C23.2337 22.542 22.9309 22.381 22.7749 22.1443L21.6726 20.4719C21.4174 20.0847 21.6244 19.6138 22.1348 19.4202C22.6452 19.2265 23.266 19.3835 23.5213 19.7708L23.9169 20.3711L25.6611 18.7833C26.0265 18.4507 26.6782 18.4059 27.1165 18.6829C27.555 18.9601 27.6143 19.4544 27.2489 19.787Z" fill="#FBCD2D" fill-opacity="0.73"/>
<path d="M24.2873 4.46599L20.0943 1.17664C20.0923 1.17507 20.0902 1.17345 20.0882 1.17188C19.1228 0.427141 17.7795 2.84481e-10 16.4028 2.62454e-10L3.1002 0C1.39075 0 0 1.05502 0 2.35181L6.30416e-10 22.6819C6.66459e-10 23.9787 1.39075 25.0337 3.1002 25.0337L16.3546 25.0337C15.1666 23.7631 14.4676 22.212 14.4676 20.5392C14.4676 16.2453 19.0725 12.752 24.7327 12.752C25.0814 12.752 25.4261 12.7653 25.7661 12.7909L25.7661 7.21118C25.7661 6.178 25.2409 5.20325 24.2873 4.46599ZM10.954 17.5079L5.44257 17.5079C4.87186 17.5079 4.40917 17.1569 4.40917 16.724C4.40917 16.2911 4.87186 15.9401 5.44257 15.9401L10.954 15.9401C11.5247 15.9401 11.9874 16.2911 11.9874 16.724C11.9874 17.1569 11.5247 17.5079 10.954 17.5079ZM10.954 13.3269L5.44257 13.3269C4.87186 13.3269 4.40917 12.9759 4.40917 12.543C4.40917 12.1101 4.87186 11.7591 5.44257 11.7591L10.954 11.7591C11.5247 11.7591 11.9874 12.1101 11.9874 12.543C11.9874 12.9759 11.5247 13.3269 10.954 13.3269ZM10.954 9.14593L5.44257 9.14593C4.87186 9.14593 4.40917 8.79494 4.40917 8.362C4.40917 7.92905 4.87186 7.57806 5.44257 7.57806L10.954 7.57806C11.5247 7.57806 11.9874 7.92905 11.9874 8.362C11.9874 8.79494 11.5247 9.14593 10.954 9.14593ZM17.5678 13.3269L16.4655 13.3269C15.8948 13.3269 15.4321 12.9759 15.4321 12.543C15.4321 12.1101 15.8948 11.7591 16.4655 11.7591L17.5678 11.7591C18.1385 11.7591 18.6012 12.1101 18.6012 12.543C18.6012 12.9759 18.1385 13.3269 17.5678 13.3269ZM17.5678 9.14593L16.4655 9.14593C15.8948 9.14593 15.4321 8.79494 15.4321 8.362C15.4321 7.92905 15.8948 7.57806 16.4655 7.57806L17.5678 7.57806C18.1385 7.57806 18.6012 7.92905 18.6012 8.362C18.6012 8.79494 18.1385 9.14593 17.5678 9.14593Z" fill="#FBCD2D" fill-opacity="0.73"/>
</svg>
