<svg width="24" height="24" viewBox="0 0 24 24" fill="none" xmlns="http://www.w3.org/2000/svg">
<path d="M18.3901 9.98961C18.3901 14.1396 14.3401 19.1296 12.6901 20.9896C12.3201 21.3996 11.6801 21.3996 11.3101 20.9896C9.66011 19.1296 5.61011 14.1396 5.61011 9.98961C5.61011 6.45961 8.47011 3.59961 12.0001 3.59961C15.5301 3.59961 18.3901 6.45961 18.3901 9.98961Z" stroke="#636977" stroke-width="1.2" stroke-miterlimit="10" stroke-linecap="round" stroke-linejoin="round"/>
<path d="M11.9902 12.5497C13.404 12.5497 14.5502 11.4035 14.5502 9.98969C14.5502 8.57584 13.404 7.42969 11.9902 7.42969C10.5763 7.42969 9.43018 8.57584 9.43018 9.98969C9.43018 11.4035 10.5763 12.5497 11.9902 12.5497Z" stroke="#636977" stroke-width="1.2" stroke-miterlimit="10" stroke-linecap="round" stroke-linejoin="round"/>
</svg>
