<svg width="30" height="30" viewBox="0 0 30 30" fill="none" xmlns="http://www.w3.org/2000/svg">
<g clip-path="url(#clip0_52_48295)">
<path d="M22.4062 10.3125L25.6875 10.5938C25.6875 10.5938 25.3125 15.2812 21.6562 16.4062C18.0937 17.5312 22.4062 10.3125 22.4062 10.3125ZM5.81248 3.46875C5.81248 3.46875 3.74998 6.5625 3.18748 8.625C2.62498 10.6875 7.31248 7.875 7.31248 7.875L5.81248 3.46875Z" fill="#999893"/>
<path d="M7.12527 4.6875C7.12527 4.6875 3.93777 7.03125 3.65652 8.0625C3.37527 9.09375 2.06277 13.7812 5.62527 12.8438C9.18777 11.9062 10.0315 6.1875 10.0315 6.1875L7.12527 4.6875Z" fill="#999893"/>
<path d="M6.93749 5.71875C6.93749 5.71875 4.31249 7.59375 4.03124 8.53125C3.74999 9.46875 2.71874 13.125 5.62499 12.375C8.53124 11.625 9.18749 6.9375 9.18749 6.9375L6.93749 5.71875Z" fill="#BFBDB4"/>
<path d="M14.6255 3.75076C14.6255 3.75076 15.188 5.81326 16.1255 6.65701C17.1567 7.50076 17.6255 9.93826 18.7505 10.032C19.9692 10.1258 22.1255 11.8133 23.438 11.0633C24.7505 10.3133 24.938 7.78201 24.4692 7.21951C23.9067 6.65701 22.0317 4.78201 21.3755 3.65701C20.7192 2.53201 19.688 1.68826 18.188 0.938256C16.688 0.0945056 13.1255 -0.374244 12.938 0.563256C12.7505 1.50076 14.6255 3.75076 14.6255 3.75076Z" fill="#999893"/>
<path d="M21.4687 10.6875C23.7469 10.6875 25.5937 8.7987 25.5937 6.46875C25.5937 4.1388 23.7469 2.25 21.4687 2.25C19.1906 2.25 17.3438 4.1388 17.3438 6.46875C17.3438 8.7987 19.1906 10.6875 21.4687 10.6875Z" fill="#999893"/>
<path d="M21.1875 10.5C23.155 10.5 24.75 8.86304 24.75 6.84375C24.75 4.82446 23.155 3.1875 21.1875 3.1875C19.22 3.1875 17.625 4.82446 17.625 6.84375C17.625 8.86304 19.22 10.5 21.1875 10.5Z" fill="#E2E0D7"/>
<path d="M14.9062 0.843729C14.9062 0.843729 13.5938 3.74998 11.25 4.40623C8.90625 5.06248 4.59375 6.84373 3.9375 9.46873C3.9375 9.56248 5.15625 -0.656271 14.9062 0.843729Z" fill="#827420"/>
<path d="M20.0621 17.5313C21.9371 18.1875 23.7183 19.875 24.2808 22.2188C24.8433 24.6562 23.9996 27.5625 22.3121 28.875C21.1871 29.7187 19.7808 30 18.4683 30C15.2808 30 12.0933 28.875 8.81207 27.6562C7.78082 27.2812 6.65582 26.9062 5.71832 26.1562C4.78082 25.4062 4.03082 24.2812 3.84332 22.9687C3.65582 21.0937 4.68707 19.2187 6.09332 18.2812C8.43707 16.6875 10.8746 16.0312 13.3121 16.0312C15.4683 16.0312 18.0933 16.875 20.0621 17.5313Z" fill="#614D6D"/>
<path d="M19.312 17.8125C20.9995 18.375 22.5933 19.875 23.1558 21.8437C23.7183 23.9062 22.9683 26.4375 21.3745 27.6562C20.3433 28.4062 19.1245 28.5938 17.9058 28.5938C14.9995 28.5938 12.0933 27.5625 9.18704 26.625C8.24954 26.25 7.21829 25.9688 6.37454 25.3125C5.53079 24.6562 4.78079 23.7187 4.68704 22.5C4.49954 20.9062 5.43704 19.3125 6.65579 18.4688C8.81204 17.0625 10.9683 16.5 13.2183 16.5C15.0933 16.5 17.437 17.1562 19.312 17.8125Z" fill="#957DA1"/>
<path d="M16.7812 18.6558C16.7812 18.6558 12.7499 20.3433 9.74992 25.0308C9.74992 25.0308 8.71867 20.9995 9.28117 18.0933C9.37492 17.9995 13.4999 19.8745 16.7812 18.6558Z" fill="#FAEACF"/>
<path d="M6.5625 18.0938C6.5625 18.0938 8.15625 22.0313 10.0312 22.4063C11.9062 22.7813 15.2812 23.4375 19.5938 19.2188L6.5625 18.0938Z" fill="#E8CCAA"/>
<path d="M23.8456 11.3298C23.8655 5.8415 19.4324 1.37621 13.9441 1.35632C8.45576 1.33643 3.99047 5.76948 3.97058 11.2578C3.95069 16.7461 8.38374 21.2114 13.8721 21.2313C19.3604 21.2512 23.8257 16.8182 23.8456 11.3298Z" fill="#A67A65"/>
<path d="M23.3953 10.5661C23.4147 5.23307 19.1071 0.894157 13.7741 0.874833C8.44108 0.855509 4.10216 5.16309 4.08284 10.4961C4.06352 15.8291 8.3711 20.168 13.7041 20.1873C19.0371 20.2067 23.376 15.8991 23.3953 10.5661Z" fill="#E5A98C"/>
<path d="M23.3471 10.2605C23.3657 5.13464 19.3513 0.964683 14.3807 0.946672C9.41017 0.928661 5.36568 5.06942 5.34711 10.1953C5.32853 15.3212 9.34291 19.4912 14.3135 19.5092C19.284 19.5272 23.3285 15.3864 23.3471 10.2605Z" fill="#E8CCAA"/>
<path d="M18.377 11.5769C18.3905 7.84893 15.4633 4.81621 11.839 4.80308C8.21459 4.78994 5.26551 7.80137 5.252 11.5293C5.23849 15.2572 8.16567 18.2899 11.79 18.3031C15.4144 18.3162 18.3635 15.3048 18.377 11.5769Z" fill="#FAEACF"/>
<path d="M14.8797 12.2561C14.8818 11.6866 14.5057 11.2235 14.0397 11.2218C13.5737 11.2201 13.1943 11.6805 13.1922 12.25C13.1901 12.8195 13.5662 13.2826 14.0322 13.2843C14.4982 13.286 14.8776 12.8257 14.8797 12.2561Z" fill="#425763"/>
<path d="M14.3584 11.9271C14.359 11.7718 14.2755 11.6456 14.172 11.6452C14.0684 11.6448 13.984 11.7705 13.9834 11.9258C13.9829 12.0811 14.0664 12.2073 14.1699 12.2077C14.2735 12.2081 14.3579 12.0825 14.3584 11.9271Z" fill="white"/>
<path d="M15.9374 4.96951C15.9374 4.96951 16.4999 7.032 17.4374 7.87575C18.3749 8.7195 18.9374 11.157 20.0624 11.2508C21.2811 11.3445 23.4374 13.032 24.7499 12.282C26.0624 11.532 26.2499 9.00075 25.7811 8.43825C25.2186 7.87575 23.3436 6.00076 22.6874 4.87576C22.1249 3.75076 20.9999 2.90701 19.4061 2.06326C17.9061 1.21951 14.3436 0.750756 14.1561 1.68826C13.9686 2.62576 15.9374 4.96951 15.9374 4.96951Z" fill="#999893"/>
<path d="M7.73225 10.6995C7.73432 10.1299 7.35823 9.66686 6.89224 9.66517C6.42625 9.66348 6.04682 10.1238 6.04475 10.6934C6.04269 11.2629 6.41878 11.726 6.88477 11.7277C7.35076 11.7294 7.73019 11.269 7.73225 10.6995Z" fill="#425763"/>
<path d="M7.21098 10.3705C7.21154 10.2152 7.12805 10.0889 7.0245 10.0886C6.92095 10.0882 6.83654 10.2138 6.83598 10.3691C6.83542 10.5245 6.91891 10.6507 7.02246 10.6511C7.12601 10.6514 7.21042 10.5258 7.21098 10.3705Z" fill="white"/>
<path d="M20.3438 11.9998C20.3438 11.9998 21.1875 11.3435 21.8437 11.6248C22.5 11.906 22.4062 13.9685 20.7187 14.156L20.3438 11.9998Z" fill="#FAEACF"/>
<path d="M12.0941 16.7812C12.0941 16.7812 11.1566 16.6875 10.5004 16.125C9.84415 15.5625 9.28165 15.6562 9.09415 15.75C9.0004 15.75 8.8129 15.5625 8.53165 15.4688C8.34415 15.375 8.0629 15.375 7.96915 15.4688C7.8754 15.5625 8.2504 16.0313 8.2504 16.0313C8.2504 16.0313 8.34415 16.4062 8.2504 16.6875C8.15665 16.875 8.2504 17.5312 8.90665 17.7187C9.5629 17.9062 10.1254 17.8125 10.4066 17.625C10.7816 17.5312 12.0941 16.7812 12.0941 16.7812Z" fill="#A87483"/>
<path d="M4.03125 8.06178L6.75 6.37428C7.40625 5.90553 8.15625 5.34303 8.90625 5.06178C9.5625 4.49928 10.2188 4.12428 10.875 3.93678C13.3125 3.18678 14.8125 -0.000717297 14.8125 -0.000717297C6.75 -0.375717 4.59375 4.40553 4.03125 8.06178Z" fill="#999893"/>
<path d="M12.5627 3.65625C12.5627 3.65625 15.2815 4.96875 16.5002 7.03125C17.719 9.09375 20.0627 12.1875 23.719 11.5312C23.719 11.5312 24.1877 0.9375 12.9377 0.75C13.0315 0.75 10.3127 2.71875 12.5627 3.65625Z" fill="#E2E0D7"/>
<path d="M14.1564 0.84396C14.1564 0.84396 12.9377 4.03146 10.7814 4.68771C8.62519 5.34396 4.59394 7.12521 4.03144 9.75021C3.93769 9.84396 5.06269 -0.65604 14.1564 0.84396Z" fill="#E2E0D7"/>
<path d="M17.6253 12.9384C17.6253 14.6259 16.3128 15.9384 14.5315 15.9384C12.6565 15.9384 10.8753 14.4384 10.7815 12.4697C10.6878 10.5009 12.3753 9.09468 14.344 9.37593C16.3128 9.65718 17.6253 11.2509 17.6253 12.9384ZM9.65652 10.7822C9.65652 12.2822 8.53152 13.4072 7.03152 13.4072C5.43777 13.4072 3.93777 12.0009 3.84402 10.3134C3.75027 8.53218 5.25027 7.21968 6.93777 7.50093C8.53152 7.78218 9.75027 9.28218 9.65652 10.7822Z" stroke="#425763" stroke-width="0.666844" stroke-miterlimit="10"/>
<path d="M17.7188 12.4688L20.3438 12" stroke="#425763" stroke-width="0.666844" stroke-miterlimit="10" stroke-linecap="round"/>
<path d="M15.2811 5.43826C15.2811 5.43826 15.8436 7.50075 16.7811 8.3445C17.8124 9.18825 18.2811 11.6258 19.4061 11.7195C20.6249 11.8133 22.7811 13.5008 24.0936 12.7508C25.4061 12.0008 25.5936 9.4695 25.1249 8.907C24.5624 8.3445 22.6874 6.46951 22.0311 5.34451C21.3749 4.21951 20.3436 3.37576 18.7499 2.53201C17.2499 1.68826 13.6874 1.21951 13.4999 2.15701C13.3124 3.09451 15.2811 5.43826 15.2811 5.43826Z" fill="#E2E0D7"/>
<path d="M21.75 12.1875C21.75 12.1875 22.875 14.4375 22.5937 15.0938C22.3125 15.75 25.125 13.6875 25.2187 11.25C25.3125 8.8125 22.5937 8.71875 22.5937 8.71875L21.75 12.1875Z" fill="#E2E0D7"/>
<path d="M12.1875 3.84375C12.1875 3.84375 14.25 5.25 14.625 6.28125C15 7.3125 18.375 10.5938 18.375 10.5938C18.375 10.5938 16.6875 8.34375 16.2187 7.125C15.75 5.90625 14.625 4.40625 12.5625 3.65625L12.1875 3.84375Z" fill="#C4C4C4"/>
<path d="M22.0312 12.6562C22.0312 12.6562 23.8125 14.1562 23.9062 15L22.5 16.125C22.5 16.125 22.6875 13.5 22.0312 12.6562Z" fill="#999893"/>
<path d="M15.1876 1.9678C15.1876 1.9678 17.6251 2.06155 18.7501 3.4678C19.8751 4.7803 22.6877 8.1553 23.6252 8.62405C24.5627 8.99905 24.8439 11.4366 23.6252 11.1553C22.5939 10.6866 19.6876 8.3428 19.6876 8.3428C19.6876 8.3428 18.6564 7.7803 18.0939 5.9053C17.5314 4.0303 15.1876 1.9678 15.1876 1.9678ZM11.0626 1.87405C11.3439 1.7803 12.8439 1.49905 12.6564 2.24905C12.4689 2.99905 8.3439 3.6553 8.1564 3.6553C8.06265 3.74905 8.9064 2.24905 11.0626 1.87405Z" fill="#EFEFEF"/>
<path d="M20.1567 11.7187C20.1567 11.7187 21.8442 17.3437 20.2504 18.6562C18.6567 19.9687 25.6879 16.2188 25.9692 14.1562C26.2504 12.0938 25.2192 9.65625 25.2192 9.65625L20.1567 11.7187Z" fill="#E2E0D7"/>
<path d="M25.5004 9.9375C25.5004 9.9375 24.9379 10.5 25.2191 11.25C25.5004 12.0937 25.9691 14.3437 25.0316 14.9062L19.8754 18.4688C19.8754 18.4688 19.3129 18.8438 20.2504 18.8438C21.1879 18.8438 22.9691 18.4687 24.0941 17.1562C25.1254 15.8437 26.1566 15.6562 26.3441 14.25C26.5316 12.8437 25.8754 10.0312 25.8754 10.0312L25.5004 9.9375Z" fill="#999893"/>
<path d="M20.625 14.3438C20.625 14.3438 21.1875 16.125 20.7188 17.0625C20.25 18 20.1562 18.6562 20.1562 18.6562L22.875 17.5313L20.625 14.3438Z" fill="#999893"/>
<path opacity="0.4" d="M20.7188 18.9375C20.7188 18.9375 22.125 23.9062 19.3125 25.6875C16.5 27.4688 12 27.4687 12 27.4687C12 27.4687 14.7187 28.7812 16.4062 29.0625C18.0938 29.3438 21 30 22.6875 26.9063C24.375 23.8125 23.4375 19.3125 21.5625 18.75L20.7188 18.9375Z" fill="#614D6D"/>
<path d="M7.87517 19.125C7.87517 19.125 7.59392 20.625 8.53142 21.6563C9.46892 22.6875 8.43767 21.75 8.43767 21.75C8.43767 21.75 6.37517 19.4062 6.46892 18.1875H6.65642L7.87517 19.125Z" fill="#614D6D"/>
<path d="M15.0936 22.5938L14.7186 28.3125L9.74986 27C8.34361 26.5312 5.99986 25.0313 6.18736 25.0313L7.96861 20.9062C7.87486 20.9062 11.9061 23.25 15.0936 22.5938Z" fill="#DACCE2"/>
<path d="M8.15625 22.0312L11.8125 23.3437L10.6875 26.5312L7.21875 25.0313L8.15625 22.0312Z" fill="#E8DFEF"/>
<path d="M13.875 22.875L14.4375 28.5938L15.1875 28.6875L15.6563 22.0312L13.875 22.875Z" fill="#614D6D"/>
<path d="M9.65625 11.0625L10.875 11.3438" stroke="#425763" stroke-width="0.666844" stroke-miterlimit="10" stroke-linecap="round"/>
<path opacity="0.16" d="M21.8437 17.4375L20.625 14.1562C20.625 14.1562 23.0625 13.5937 23.625 13.0312L25.5 11.3438L25.875 13.4062C25.875 13.4062 26.25 15.0938 25.3125 15.6563C24.375 16.2188 21.8437 17.4375 21.8437 17.4375Z" fill="#999893"/>
</g>
<defs>
<clipPath id="clip0_52_48295">
<rect width="30" height="30" fill="white"/>
</clipPath>
</defs>
</svg>
