<svg width="20" height="19" viewBox="0 0 20 19" fill="none" xmlns="http://www.w3.org/2000/svg">
<path d="M19.2995 4.65H13.7195C13.3295 4.65 13.0195 4.34 13.0195 3.95C13.0195 3.56 13.3295 3.25 13.7195 3.25H19.2995C19.6895 3.25 19.9995 3.56 19.9995 3.95C19.9995 4.34 19.6895 4.65 19.2995 4.65Z" fill="#4580F0"/>
<path d="M4.42 4.65H0.7C0.31 4.65 0 4.34 0 3.95C0 3.56 0.31 3.25 0.7 3.25H4.42C4.81 3.25 5.12 3.56 5.12 3.95C5.12 4.34 4.8 4.65 4.42 4.65Z" fill="#4580F0"/>
<path d="M8.13945 7.9C10.321 7.9 12.0895 6.13153 12.0895 3.95C12.0895 1.76848 10.321 0 8.13945 0C5.95793 0 4.18945 1.76848 4.18945 3.95C4.18945 6.13153 5.95793 7.9 8.13945 7.9Z" fill="#4580F0"/>
<path d="M19.3009 14.88H15.5809C15.1909 14.88 14.8809 14.57 14.8809 14.18C14.8809 13.79 15.1909 13.48 15.5809 13.48H19.3009C19.6909 13.48 20.0009 13.79 20.0009 14.18C20.0009 14.57 19.6909 14.88 19.3009 14.88Z" fill="#4580F0"/>
<path d="M6.28 14.88H0.7C0.31 14.88 0 14.57 0 14.18C0 13.79 0.31 13.48 0.7 13.48H6.28C6.67 13.48 6.98 13.79 6.98 14.18C6.98 14.57 6.66 14.88 6.28 14.88Z" fill="#4580F0"/>
<path d="M11.8602 18.1397C14.0417 18.1397 15.8102 16.3713 15.8102 14.1897C15.8102 12.0082 14.0417 10.2397 11.8602 10.2397C9.67863 10.2397 7.91016 12.0082 7.91016 14.1897C7.91016 16.3713 9.67863 18.1397 11.8602 18.1397Z" fill="#4580F0"/>
</svg>
