<svg width="18" height="8" viewBox="0 0 18 8" fill="none" xmlns="http://www.w3.org/2000/svg">
<path fill-rule="evenodd" clip-rule="evenodd" d="M18 3.41524H16.3636V2.70863H14.7273V3.41524H13.0909V4.12186H14.7273V4.82847H16.3636V4.12186H18M5.72727 3.41524V4.26318H9C8.83636 4.61648 8.01818 5.32309 5.72727 5.32309C3.76364 5.32309 2.20909 4.61649 2.20909 3.76855C2.20909 2.92062 3.76364 2.214 5.72727 2.214C6.87273 2.214 7.60909 2.42599 8.01818 2.60264L9.57273 1.96669C8.59091 1.54272 7.28182 1.29541 5.72727 1.29541C2.53636 1.29541 0 2.39066 0 3.76855C0 5.14644 2.53636 6.24167 5.72727 6.24167C9 6.24167 11.2091 5.25244 11.2091 3.83921C11.2091 3.66256 11.2091 3.55657 11.1273 3.41524H5.72727Z" fill="#D9D9D9"/>
</svg>
