<svg width="12" height="12" viewBox="0 0 12 12" fill="none" xmlns="http://www.w3.org/2000/svg">
<path d="M8.65176 2.64793V3.34367L4.28539 7.71003C3.70961 7.18823 3.34974 6.42052 3.34974 5.59883V2.64793C3.34974 1.41239 4.18943 0.386779 5.329 0.0928889C5.44296 0.0629002 5.55092 0.158864 5.55092 0.272821V1.19648C5.55092 1.44238 5.75484 1.64631 6.00075 1.64631C6.24666 1.64631 6.45058 1.44238 6.45058 1.19648V0.272821C6.45058 0.158864 6.55854 0.0629002 6.6725 0.0928889C7.81207 0.386779 8.65176 1.41239 8.65176 2.64793Z" fill="white"/>
<path d="M10.685 4.68113V5.63477C10.685 8.07585 8.8077 10.0851 6.4206 10.295V11.5725C6.4206 11.8065 6.23467 11.9924 6.00075 11.9924C5.76684 11.9924 5.58091 11.8065 5.58091 11.5725V10.295C4.92716 10.235 4.30939 10.0431 3.75759 9.73723L4.37536 9.11946C4.86718 9.34738 5.41897 9.47933 6.00075 9.47933C8.12396 9.47933 9.85131 7.75198 9.85131 5.63477V4.68113C9.85131 4.45321 10.0372 4.26728 10.2712 4.26728C10.4991 4.26728 10.685 4.45321 10.685 4.68113Z" fill="white"/>
<path d="M8.65176 4.84411V5.71378C8.65176 7.2612 7.32026 8.50274 5.73685 8.35279C5.56892 8.3348 5.40098 8.30481 5.24504 8.25083L8.65176 4.84411Z" fill="white"/>
<path d="M11.8606 0.134949C11.6806 -0.0449831 11.3867 -0.0449831 11.2068 0.134949L3.13982 8.20193C2.52205 7.52418 2.15019 6.62452 2.15019 5.63489V4.68125C2.15019 4.45333 1.96426 4.2674 1.73035 4.2674C1.50244 4.2674 1.31651 4.45333 1.31651 4.68125V5.63489C1.31651 6.85243 1.78433 7.96202 2.54605 8.7957L0.134949 11.2068C-0.0449831 11.3867 -0.0449831 11.6806 0.134949 11.8606C0.230913 11.9445 0.344871 11.9925 0.464826 11.9925C0.584781 11.9925 0.698738 11.9445 0.788704 11.8546L11.8606 0.782707C12.0465 0.602774 12.0465 0.314882 11.8606 0.134949Z" fill="white"/>
</svg>
