<svg width="48" height="48" viewBox="0 0 48 48" fill="none" xmlns="http://www.w3.org/2000/svg">
<g clip-path="url(#clip0_37_35900)">
<path fill-rule="evenodd" clip-rule="evenodd" d="M14.9045 15.158H33.0941C34.3498 15.158 35.3677 16.1759 35.3677 17.4316V31.0738C35.3677 32.3295 34.3498 33.3475 33.0941 33.3475H14.9045C13.6426 33.3475 12.6309 32.3243 12.6309 31.0738V17.4316C12.6309 16.1697 13.6426 15.158 14.9045 15.158ZM23.9993 23.1159L33.0941 17.4316H14.9046L23.9993 23.1159ZM14.9046 31.0738H33.0941V20.126L23.9993 25.7988L14.9046 20.126V31.0738Z" fill="#D9D9D9"/>
<mask id="mask0_37_35900" style="mask-type:alpha" maskUnits="userSpaceOnUse" x="12" y="15" width="24" height="19">
<path fill-rule="evenodd" clip-rule="evenodd" d="M14.9045 15.158H33.0941C34.3498 15.158 35.3677 16.1759 35.3677 17.4316V31.0738C35.3677 32.3295 34.3498 33.3475 33.0941 33.3475H14.9045C13.6426 33.3475 12.6309 32.3243 12.6309 31.0738V17.4316C12.6309 16.1697 13.6426 15.158 14.9045 15.158ZM23.9993 23.1159L33.0941 17.4316H14.9046L23.9993 23.1159ZM14.9046 31.0738H33.0941V20.126L23.9993 25.7988L14.9046 20.126V31.0738Z" fill="#D9D9D9"/>
</mask>
<g mask="url(#mask0_37_35900)">
</g>
</g>
<defs>
<clipPath id="clip0_37_35900">
<rect width="48" height="48" fill="white"/>
</clipPath>
</defs>
</svg>
