<svg width="21" height="19" viewBox="0 0 21 19" fill="none" xmlns="http://www.w3.org/2000/svg">
<path d="M20.1335 0C18.1201 0 15.8514 1.11542 13.4126 3.29901C11.7017 4.83035 10.2365 6.57911 9.22508 7.90249C8.37671 7.64427 7.47967 7.58824 6.60576 7.73888C5.73185 7.88953 4.90535 8.24267 4.1924 8.77003C3.47945 9.29739 2.89985 9.98434 2.50001 10.7759C2.10016 11.5674 1.89117 12.4416 1.88976 13.3284C1.88976 16.2776 0.358413 17.5915 0.282791 17.6577C0.15964 17.7529 0.0702382 17.885 0.0277058 18.0347C-0.0148265 18.1844 -0.00824918 18.3439 0.0464724 18.4896C0.0948189 18.6391 0.189678 18.7693 0.317212 18.8611C0.444746 18.9529 0.598283 19.0016 0.755427 19H7.5614C8.44819 18.9986 9.32234 18.7896 10.1139 18.3898C10.9054 17.9899 11.5924 17.4103 12.1197 16.6974C12.6471 15.9844 13.0002 15.1579 13.1509 14.284C13.3015 13.4101 13.2455 12.513 12.9873 11.6647C14.3106 10.6532 16.0594 9.18806 17.5907 7.47712C19.7743 5.03831 20.8898 2.76965 20.8898 0.756219C20.8898 0.555657 20.8101 0.36331 20.6683 0.221491C20.5264 0.0796728 20.3341 0 20.1335 0ZM7.5614 17.4876H2.32458C2.86339 16.5896 3.40219 15.2189 3.40219 13.3284C3.40219 12.5057 3.64613 11.7016 4.10315 11.0176C4.56016 10.3337 5.20974 9.80056 5.96974 9.48576C6.72973 9.17096 7.56601 9.08859 8.37282 9.24907C9.17962 9.40956 9.92072 9.80568 10.5024 10.3874C11.0841 10.969 11.4802 11.7101 11.6407 12.5169C11.8012 13.3237 11.7188 14.16 11.404 14.92C11.0892 15.68 10.5561 16.3296 9.87213 16.7866C9.18815 17.2436 8.38401 17.4876 7.5614 17.4876ZM10.6241 8.56418C10.8982 8.21443 11.2196 7.81741 11.5883 7.38259C12.3449 7.89343 12.9963 8.54487 13.5072 9.30149C13.0723 9.67015 12.6753 9.99154 12.3256 10.2657C11.888 9.58222 11.3075 9.00172 10.6241 8.56418ZM14.6509 8.29005C14.0854 7.49754 13.3922 6.80438 12.5997 6.23881C14.4524 4.23483 16.948 2.04179 19.2922 1.59751C18.848 3.94179 16.6549 6.43731 14.6509 8.29005Z" fill="#EB9947"/>
</svg>
