<svg width="13" height="13" viewBox="0 0 13 13" fill="none" xmlns="http://www.w3.org/2000/svg">
<path d="M1.78003 11.9198C1.70443 11.9709 1.61627 12.0003 1.52512 12.0049C1.43397 12.0095 1.34331 11.989 1.26295 11.9458C1.18259 11.9025 1.11561 11.8381 1.06927 11.7595C1.02292 11.6808 0.998979 11.591 1.00003 11.4998V2.00977C1.00003 0.909766 1.90003 0.00976563 3.00003 0.00976563H9.00003C9.52874 0.00975902 10.0359 0.219099 10.4107 0.592012C10.7855 0.964925 10.9974 1.47107 11 1.99977V11.4998C11.0011 11.591 10.9771 11.6808 10.9308 11.7595C10.8845 11.8381 10.8175 11.9025 10.7371 11.9458C10.6568 11.989 10.5661 12.0095 10.4749 12.0049C10.3838 12.0003 10.2956 11.9709 10.22 11.9198L6.00003 9.09977L1.78003 11.9198ZM10 1.99977V1.87977C9.97056 1.63586 9.85232 1.41133 9.66788 1.24903C9.48345 1.08672 9.24571 0.997991 9.00003 0.999766L3.00003 1.00977C2.73482 1.00977 2.48046 1.11512 2.29293 1.30266C2.10539 1.4902 2.00003 1.74455 2.00003 2.00977V10.5698L5.72003 8.07977C5.80272 8.02388 5.90023 7.99401 6.00003 7.99401C6.09983 7.99401 6.19735 8.02388 6.28003 8.07977L10 10.5698V1.99977Z" fill="white"/>
</svg>
