<svg width="25" height="17" viewBox="0 0 25 17" fill="none" xmlns="http://www.w3.org/2000/svg">
<path d="M9.97691 11.5824V4.81644L16.7429 8.25675L9.97691 11.5824ZM24.7702 3.66967C24.7702 3.66967 24.5409 2.06419 23.7382 1.26145C22.8207 0.344031 21.674 0.344031 21.2153 0.229354C17.6603 -2.22147e-07 12.4998 0 12.4998 0C12.4998 0 7.22466 -2.22147e-07 3.78434 0.229354C3.32563 0.344031 2.17886 0.344031 1.26145 1.26145C0.458708 1.94951 0.229354 3.66967 0.229354 3.66967C0.229354 3.66967 0 5.61918 0 7.56869V9.40352C0 11.353 0.229354 13.3025 0.229354 13.3025C0.229354 13.3025 0.458708 14.908 1.26145 15.7108C2.17886 16.6282 3.44031 16.6282 4.0137 16.7429C5.96321 16.9722 12.4998 16.9722 12.4998 16.9722C12.4998 16.9722 17.7749 16.9722 21.2153 16.7429C21.674 16.7429 22.8207 16.6282 23.7382 15.7108C24.5409 15.0227 24.7702 13.3025 24.7702 13.3025C24.7702 13.3025 24.9996 11.353 24.9996 9.40352V7.56869C24.9996 5.61918 24.7702 3.66967 24.7702 3.66967Z" fill="white"/>
</svg>
