<svg width="55" height="17" viewBox="0 0 55 17" fill="none" xmlns="http://www.w3.org/2000/svg">
<path d="M46.3945 4.14141C43.9824 4.14141 42.0369 6.08742 42.0369 8.5C42.0369 10.9126 43.9824 12.8586 46.3945 12.8586C48.8065 12.8586 50.7521 10.9126 50.7521 8.5C50.7521 6.08742 48.8065 4.14141 46.3945 4.14141ZM46.3945 11.3336C44.8357 11.3336 43.5615 10.0629 43.5615 8.5C43.5615 6.93713 44.832 5.66635 46.3945 5.66635C47.957 5.66635 49.2275 6.93713 49.2275 8.5C49.2275 10.0629 47.9532 11.3336 46.3945 11.3336ZM51.9467 3.96313C51.9467 4.52834 51.4916 4.97975 50.9303 4.97975C50.3653 4.97975 49.9139 4.52455 49.9139 3.96313C49.9139 3.40171 50.369 2.9465 50.9303 2.9465C51.4916 2.9465 51.9467 3.40171 51.9467 3.96313ZM54.8328 4.99492C54.7684 3.6331 54.4574 2.42681 53.46 1.43295C52.4663 0.439083 51.2603 0.128026 49.8988 0.0597456C48.4955 -0.0199152 44.2896 -0.0199152 42.8864 0.0597456C41.5287 0.124233 40.3226 0.43529 39.3252 1.42915C38.3278 2.42302 38.0206 3.62931 37.9523 4.99113C37.8727 6.39468 37.8727 10.6015 37.9523 12.0051C38.0168 13.3669 38.3278 14.5732 39.3252 15.5671C40.3226 16.5609 41.5249 16.872 42.8864 16.9403C44.2896 17.0199 48.4955 17.0199 49.8988 16.9403C51.2603 16.8758 52.4663 16.5647 53.46 15.5671C54.4536 14.5732 54.7646 13.3669 54.8328 12.0051C54.9125 10.6015 54.9125 6.39847 54.8328 4.99492ZM53.02 13.511C52.7242 14.2545 52.1515 14.8273 51.4044 15.127C50.2856 15.5708 47.6308 15.4684 46.3945 15.4684C45.1581 15.4684 42.4995 15.5671 41.3845 15.127C40.6412 14.8311 40.0685 14.2583 39.7689 13.511C39.3252 12.392 39.4276 9.73664 39.4276 8.5C39.4276 7.26336 39.329 4.60421 39.7689 3.48895C40.0647 2.74545 40.6374 2.17265 41.3845 1.87298C42.5033 1.42915 45.1581 1.53157 46.3945 1.53157C47.6308 1.53157 50.2894 1.43295 51.4044 1.87298C52.1477 2.16886 52.7204 2.74166 53.02 3.48895C53.4637 4.608 53.3613 7.26336 53.3613 8.5C53.3613 9.73664 53.4637 12.3958 53.02 13.511Z" fill="#FF285C"/>
<path d="M7.37607 9.29918L7.78539 6.68025H5.22615V4.98074C5.22615 4.26425 5.58365 3.56585 6.72986 3.56585H7.89333V1.33611C7.89333 1.33611 6.83751 1.15918 5.82803 1.15918C3.72042 1.15918 2.34278 2.41353 2.34278 4.68425V6.68025H0V9.29918H2.34278V15.6303H5.22615V9.29918H7.37607Z" fill="#5856CE"/>
</svg>
