<svg width="22" height="22" viewBox="0 0 22 22" fill="none" xmlns="http://www.w3.org/2000/svg">
<path d="M12.7677 2.23265L14.5681 5.83353C14.8136 6.33479 15.4683 6.81558 16.0207 6.90765L19.284 7.44983C21.3709 7.79764 21.8619 9.31165 20.3581 10.8052L17.8212 13.3422C17.3915 13.7718 17.1562 14.6004 17.2892 15.1938L18.0155 18.3343C18.5884 20.8201 17.2688 21.7817 15.0694 20.4826L12.0107 18.6719C11.4582 18.3445 10.5478 18.3445 9.98516 18.6719L6.92646 20.4826C4.73729 21.7817 3.40742 20.8099 3.98029 18.3343L4.7066 15.1938C4.83959 14.6004 4.6043 13.7718 4.17465 13.3422L1.63767 10.8052C0.144123 9.31165 0.624922 7.79764 2.7118 7.44983L5.97509 6.90765C6.51727 6.81558 7.17197 6.33479 7.41749 5.83353L9.21793 2.23265C10.2 0.278761 11.7958 0.278761 12.7677 2.23265Z" stroke="#8C8FA5" stroke-width="1.5" stroke-linecap="round" stroke-linejoin="round"/>
</svg>
