<svg width="16" height="16" viewBox="0 0 16 16" fill="none" xmlns="http://www.w3.org/2000/svg">
<path d="M6.99327 0.353862C7.54505 -0.117954 8.4487 -0.117954 9.00848 0.353862L10.272 1.44143C10.5119 1.64935 10.9598 1.8173 11.2796 1.8173H12.639C13.4867 1.8173 14.1825 2.51301 14.1825 3.36069V4.72015C14.1825 5.03203 14.3503 5.48785 14.5583 5.72776L15.6458 6.99127C16.1178 7.54306 16.1178 8.44671 15.6458 9.00649L14.5583 10.27C14.3503 10.5099 14.1825 10.9577 14.1825 11.2776V12.6371C14.1825 13.4848 13.4867 14.1805 12.639 14.1805H11.2796C10.9678 14.1805 10.5119 14.3484 10.272 14.5563L9.00848 15.6439C8.4567 16.1157 7.55305 16.1157 6.99327 15.6439L5.72976 14.5563C5.48986 14.3484 5.04203 14.1805 4.72216 14.1805H3.3387C2.49103 14.1805 1.7953 13.4848 1.7953 12.6371V11.2696C1.7953 10.9577 1.62736 10.5099 1.42744 10.27L0.347864 8.99848C-0.115955 8.44671 -0.115955 7.55106 0.347864 6.99927L1.42744 5.72776C1.62736 5.48785 1.7953 5.04003 1.7953 4.72815V3.35269C1.7953 2.50502 2.49103 1.80929 3.3387 1.80929H4.72216C5.03403 1.80929 5.48986 1.64135 5.72976 1.43343L6.99327 0.353862Z" fill="#4297FB"/>
<path d="M5.09801 7.99069L7.02526 9.92594L10.8877 6.05545" fill="#4297FB"/>
<path d="M5.09801 7.99069L7.02526 9.92594L10.8877 6.05545" stroke="white" stroke-width="1.5" stroke-linecap="round" stroke-linejoin="round"/>
</svg>
