<svg width="20" height="17" viewBox="0 0 20 17" fill="none" xmlns="http://www.w3.org/2000/svg">
<g clip-path="url(#clip0_52_32102)">
<path d="M0 14.3598C2.24533 14.5784 4.26 14.0311 6.046 12.6698C5.17333 12.6344 4.38467 12.3691 3.686 11.8498C2.98933 11.3311 2.50867 10.6558 2.228 9.82511C2.54 9.88111 2.84533 9.90711 3.15333 9.89377C3.45667 9.88177 3.758 9.84311 4.06867 9.75444C2.88533 9.47777 1.98 8.84311 1.36 7.82111C0.906667 7.07177 0.774667 6.26977 0.793333 5.69644C1.36667 6.00711 1.97533 6.17844 2.64 6.20244C1.614 5.47577 1.00267 4.51111 0.852 3.27644C0.741333 2.38044 0.924 1.53711 1.37267 0.751774C3.59533 3.35844 6.408 4.79177 9.84267 5.02577C9.82 4.89177 9.796 4.77444 9.78067 4.65711C9.662 3.77644 9.80467 2.93911 10.2287 2.15577C10.6447 1.38644 11.2493 0.807107 12.0353 0.419107C12.6393 0.121107 13.2807 -0.0175594 13.954 0.00177396C14.934 0.029774 15.7953 0.364441 16.54 0.995774C16.6367 1.07777 16.724 1.17044 16.818 1.25577C16.8347 1.27111 16.8667 1.28244 16.888 1.27777C17.7653 1.10444 18.59 0.792441 19.3653 0.350441C19.388 0.337107 19.4107 0.325107 19.4327 0.313107C19.436 0.311107 19.4407 0.313107 19.4533 0.313107C19.1293 1.27311 18.5293 2.01177 17.6573 2.55977C18.4793 2.45777 19.2493 2.24777 19.9893 1.92577L20 1.93911C19.8847 2.09511 19.772 2.25244 19.6533 2.40577C19.18 3.01377 18.63 3.54311 18.0047 3.99577C17.976 4.01711 17.9567 4.03511 17.9587 4.07777C17.9853 4.62577 17.9653 5.17311 17.9073 5.71977C17.8087 6.65977 17.5953 7.57244 17.278 8.46111C16.86 9.62911 16.2807 10.7111 15.53 11.7018C14.4607 13.1131 13.14 14.2244 11.5473 15.0118C10.5773 15.4911 9.55667 15.8164 8.49133 16.0018C7.60867 16.1551 6.72133 16.2151 5.82533 16.1811C4.35333 16.1251 2.94267 15.8011 1.59333 15.2151C1.05333 14.9804 0.534667 14.7044 0.0366667 14.3904L0 14.3598Z" fill="#E50914"/>
</g>
<defs>
<clipPath id="clip0_52_32102">
<rect width="20" height="16.6667" fill="white"/>
</clipPath>
</defs>
</svg>
