<svg width="17" height="22" viewBox="0 0 17 22" fill="none" xmlns="http://www.w3.org/2000/svg">
<path d="M6.15846 21.9996C5.95386 21.9996 5.79017 21.9587 5.66741 21.9076C5.2582 21.7541 4.56254 21.2528 4.56254 19.6671V13.0686H2.16867C0.797818 13.0686 0.306767 12.4241 0.132853 12.0456C-0.0410612 11.6569 -0.194515 10.8691 0.705746 9.83588L8.45003 1.03788C9.49352 -0.148826 10.3426 -0.0669846 10.7518 0.086469C11.161 0.239923 11.8567 0.741204 11.8567 2.32689V8.92539H14.2506C15.6214 8.92539 16.1125 9.5699 16.2864 9.94842C16.4603 10.3372 16.6138 11.1249 15.7135 12.1581L7.96921 20.9561C7.24287 21.7848 6.60859 21.9996 6.15846 21.9996ZM10.1892 1.52893C10.1585 1.56985 9.94365 1.67216 9.60605 2.0609L1.86176 10.8589C1.57532 11.1863 1.53439 11.3909 1.53439 11.4318C1.55486 11.442 1.739 11.5443 2.16867 11.5443H5.32981C5.74925 11.5443 6.09708 11.8922 6.09708 12.3116V19.6774C6.09708 20.1889 6.18915 20.4139 6.23007 20.4753C6.26076 20.4344 6.4756 20.3321 6.8132 19.9434L14.5575 11.1454C14.8439 10.818 14.8849 10.6134 14.8849 10.5725C14.8644 10.5622 14.6802 10.4599 14.2506 10.4599H11.0894C10.67 10.4599 10.3222 10.1121 10.3222 9.69266V2.32689C10.3324 1.81538 10.2301 1.60054 10.1892 1.52893Z" fill="#7A7976"/>
</svg>
