<svg width="26" height="30" viewBox="0 0 26 30" fill="none" xmlns="http://www.w3.org/2000/svg">
<path d="M0.609384 14.1505C0.609384 12.697 0.610678 11.6681 0.715503 10.8884C0.817971 10.1263 1.00921 9.69413 1.32332 9.38001C1.63744 9.06589 2.0696 8.87466 2.83174 8.77219C3.61142 8.66737 4.64028 8.66607 6.09384 8.66607H14.219C15.6725 8.66607 16.7014 8.66737 17.4811 8.77219C18.2432 8.87466 18.6754 9.06589 18.9895 9.38001C19.3036 9.69413 19.4948 10.1263 19.5973 10.8884C19.7021 11.6681 19.7034 12.697 19.7034 14.1505V19.5673C19.7034 22.4549 19.6948 23.7432 19.3387 24.761C18.6853 26.6282 17.2173 28.0962 15.3502 28.7495C14.3324 29.1057 13.044 29.1143 10.1564 29.1143C7.26882 29.1143 5.98044 29.1057 4.96264 28.7495C3.0955 28.0962 1.62749 26.6282 0.974148 24.761C0.618004 23.7432 0.609384 22.4549 0.609384 19.5673V14.1505Z" stroke="#FF9F24" stroke-width="1.2"/>
<path d="M19.2972 21.9374H22.3441C24.0269 21.9374 25.391 20.5733 25.391 18.8905V15.8436C25.391 14.1608 24.0269 12.7967 22.3441 12.7967H19.2972" stroke="#FF9F24" stroke-width="1.2"/>
<path d="M6.69562 0.608988C6.69562 0.608988 8.04958 1.96317 6.69562 3.31736C5.34166 4.67155 6.69562 6.02574 6.69562 6.02574" stroke="#FF9F24" stroke-width="1.2" stroke-linecap="round" stroke-linejoin="round"/>
<path d="M10.7582 0.608988C10.7582 0.608988 12.1121 1.96317 10.7582 3.31736C9.40422 4.67155 10.7582 6.02574 10.7582 6.02574" stroke="#FF9F24" stroke-width="1.2" stroke-linecap="round" stroke-linejoin="round"/>
<path d="M14.8207 0.608988C14.8207 0.608988 16.1747 1.96317 14.8207 3.31736C13.4668 4.67155 14.8207 6.02574 14.8207 6.02574" stroke="#FF9F24" stroke-width="1.2" stroke-linecap="round" stroke-linejoin="round"/>
</svg>
