<svg width="16" height="15" viewBox="0 0 16 15" fill="none" xmlns="http://www.w3.org/2000/svg">
<path d="M7.29021 13.8713H11.4346C12.3905 13.8713 13.3063 13.0958 13.4667 12.1533L14.3557 6.83246C14.4627 6.17738 14.1285 5.30168 13.6137 4.88725L8.98139 1.184C8.26614 0.609133 7.10973 0.609126 6.40117 1.17731L1.76881 4.88725C1.24742 5.30168 0.913187 6.17738 1.02682 6.83246L1.21399 7.95541" stroke="white" stroke-width="1.5" stroke-linecap="round" stroke-linejoin="round"/>
<path d="M1.00659 11.9929C2.18307 12.0197 2.98521 12.8218 3.01195 13.9983" stroke="white" stroke-width="1.5" stroke-linecap="round" stroke-linejoin="round"/>
<path d="M5.0173 13.9983C5.01061 13.4903 4.92372 13.0157 4.76998 12.5812C4.37559 11.4649 3.53333 10.6293 2.42371 10.2349C1.98921 10.0812 1.51462 9.99428 1.00659 9.9876" stroke="white" stroke-width="1.5" stroke-linecap="round" stroke-linejoin="round"/>
<path d="M1.00293 13.9977H1.00895" stroke="white" stroke-width="2" stroke-linecap="round" stroke-linejoin="round"/>
</svg>
