<svg width="18" height="21" viewBox="0 0 18 21" fill="none" xmlns="http://www.w3.org/2000/svg">
<path d="M13.7502 2.31V0.75C13.7502 0.34 13.4102 0 13.0002 0C12.5902 0 12.2502 0.34 12.2502 0.75V2.25H5.75023V0.75C5.75023 0.34 5.41023 0 5.00023 0C4.59023 0 4.25023 0.34 4.25023 0.75V2.31C1.55023 2.56 0.240229 4.17 0.0402292 6.56C0.0202292 6.85 0.260229 7.09 0.540229 7.09H17.4602C17.7502 7.09 17.9902 6.84 17.9602 6.56C17.7602 4.17 16.4502 2.56 13.7502 2.31Z" fill="white" fill-opacity="0.6"/>
<path d="M17 8.58984H1C0.45 8.58984 0 9.03984 0 9.58984V15.7498C0 18.7498 1.5 20.7498 5 20.7498H13C16.5 20.7498 18 18.7498 18 15.7498V9.58984C18 9.03984 17.55 8.58984 17 8.58984ZM6.21 16.9598C6.16 16.9998 6.11 17.0498 6.06 17.0798C6 17.1198 5.94 17.1498 5.88 17.1698C5.82 17.1998 5.76 17.2198 5.7 17.2298C5.63 17.2398 5.57 17.2498 5.5 17.2498C5.37 17.2498 5.24 17.2198 5.12 17.1698C4.99 17.1198 4.89 17.0498 4.79 16.9598C4.61 16.7698 4.5 16.5098 4.5 16.2498C4.5 15.9898 4.61 15.7298 4.79 15.5398C4.89 15.4498 4.99 15.3798 5.12 15.3298C5.3 15.2498 5.5 15.2298 5.7 15.2698C5.76 15.2798 5.82 15.2998 5.88 15.3298C5.94 15.3498 6 15.3798 6.06 15.4198C6.11 15.4598 6.16 15.4998 6.21 15.5398C6.39 15.7298 6.5 15.9898 6.5 16.2498C6.5 16.5098 6.39 16.7698 6.21 16.9598ZM6.21 13.4598C6.02 13.6398 5.76 13.7498 5.5 13.7498C5.24 13.7498 4.98 13.6398 4.79 13.4598C4.61 13.2698 4.5 13.0098 4.5 12.7498C4.5 12.4898 4.61 12.2298 4.79 12.0398C5.07 11.7598 5.51 11.6698 5.88 11.8298C6.01 11.8798 6.12 11.9498 6.21 12.0398C6.39 12.2298 6.5 12.4898 6.5 12.7498C6.5 13.0098 6.39 13.2698 6.21 13.4598ZM9.71 16.9598C9.52 17.1398 9.26 17.2498 9 17.2498C8.74 17.2498 8.48 17.1398 8.29 16.9598C8.11 16.7698 8 16.5098 8 16.2498C8 15.9898 8.11 15.7298 8.29 15.5398C8.66 15.1698 9.34 15.1698 9.71 15.5398C9.89 15.7298 10 15.9898 10 16.2498C10 16.5098 9.89 16.7698 9.71 16.9598ZM9.71 13.4598C9.66 13.4998 9.61 13.5398 9.56 13.5798C9.5 13.6198 9.44 13.6498 9.38 13.6698C9.32 13.6998 9.26 13.7198 9.2 13.7298C9.13 13.7398 9.07 13.7498 9 13.7498C8.74 13.7498 8.48 13.6398 8.29 13.4598C8.11 13.2698 8 13.0098 8 12.7498C8 12.4898 8.11 12.2298 8.29 12.0398C8.38 11.9498 8.49 11.8798 8.62 11.8298C8.99 11.6698 9.43 11.7598 9.71 12.0398C9.89 12.2298 10 12.4898 10 12.7498C10 13.0098 9.89 13.2698 9.71 13.4598ZM13.21 16.9598C13.02 17.1398 12.76 17.2498 12.5 17.2498C12.24 17.2498 11.98 17.1398 11.79 16.9598C11.61 16.7698 11.5 16.5098 11.5 16.2498C11.5 15.9898 11.61 15.7298 11.79 15.5398C12.16 15.1698 12.84 15.1698 13.21 15.5398C13.39 15.7298 13.5 15.9898 13.5 16.2498C13.5 16.5098 13.39 16.7698 13.21 16.9598ZM13.21 13.4598C13.16 13.4998 13.11 13.5398 13.06 13.5798C13 13.6198 12.94 13.6498 12.88 13.6698C12.82 13.6998 12.76 13.7198 12.7 13.7298C12.63 13.7398 12.56 13.7498 12.5 13.7498C12.24 13.7498 11.98 13.6398 11.79 13.4598C11.61 13.2698 11.5 13.0098 11.5 12.7498C11.5 12.4898 11.61 12.2298 11.79 12.0398C11.89 11.9498 11.99 11.8798 12.12 11.8298C12.3 11.7498 12.5 11.7298 12.7 11.7698C12.76 11.7798 12.82 11.7998 12.88 11.8298C12.94 11.8498 13 11.8798 13.06 11.9198C13.11 11.9598 13.16 11.9998 13.21 12.0398C13.39 12.2298 13.5 12.4898 13.5 12.7498C13.5 13.0098 13.39 13.2698 13.21 13.4598Z" fill="white" fill-opacity="0.6"/>
</svg>
