<svg width="24" height="24" viewBox="0 0 24 24" fill="none" xmlns="http://www.w3.org/2000/svg">
<g clip-path="url(#clip0_16_61155)">
<path d="M22.6754 24.0001C23.4068 24.0001 24 23.407 24 22.6755V1.32459C24 0.592969 23.4068 0 22.6754 0H1.32459C0.592875 0 0 0.592969 0 1.32459V22.6755C0 23.407 0.592875 24.0001 1.32459 24.0001H22.6754Z" fill="#395185"/>
<mask id="path-2-inside-1_16_61155" fill="white">
<path d="M16.5596 24.0002V14.7062H19.6793L20.1463 11.0841H16.5596V8.7715C16.5596 7.72281 16.8508 7.00816 18.3547 7.00816L20.2727 7.00731V3.76778C19.9408 3.72362 18.8023 3.625 17.4778 3.625C14.7124 3.625 12.8192 5.31297 12.8192 8.41291V11.0841H9.69153V14.7062H12.8192V24.0002H16.5596Z"/>
</mask>
<path d="M16.5596 24.0002V14.7062H19.6793L20.1463 11.0841H16.5596V8.7715C16.5596 7.72281 16.8508 7.00816 18.3547 7.00816L20.2727 7.00731V3.76778C19.9408 3.72362 18.8023 3.625 17.4778 3.625C14.7124 3.625 12.8192 5.31297 12.8192 8.41291V11.0841H9.69153V14.7062H12.8192V24.0002H16.5596Z" fill="white"/>
<path d="M16.5596 14.7062V13.7062H15.5596V14.7062H16.5596ZM19.6793 14.7062V15.7062H20.5586L20.6711 14.834L19.6793 14.7062ZM20.1463 11.0841L21.1381 11.212L21.2836 10.0841H20.1463V11.0841ZM16.5596 11.0841H15.5596V12.0841H16.5596V11.0841ZM18.3547 7.00816V8.00816L18.3551 8.00816L18.3547 7.00816ZM20.2727 7.00731L20.2732 8.00731L21.2727 8.00687V7.00731H20.2727ZM20.2727 3.76778H21.2727V2.89202L20.4046 2.77652L20.2727 3.76778ZM12.8192 11.0841V12.0841H13.8192V11.0841H12.8192ZM9.69153 11.0841V10.0841H8.69153V11.0841H9.69153ZM9.69153 14.7062H8.69153V15.7062H9.69153V14.7062ZM12.8192 14.7062H13.8192V13.7062H12.8192V14.7062ZM12.8192 24.0002H11.8192V25.0002H12.8192V24.0002ZM17.5596 24.0002V14.7062H15.5596V24.0002H17.5596ZM16.5596 15.7062H19.6793V13.7062H16.5596V15.7062ZM20.6711 14.834L21.1381 11.212L19.1546 10.9562L18.6875 14.5783L20.6711 14.834ZM20.1463 10.0841H16.5596V12.0841H20.1463V10.0841ZM17.5596 11.0841V8.7715H15.5596V11.0841H17.5596ZM17.5596 8.7715C17.5596 8.28999 17.6389 8.16348 17.6581 8.14065C17.6595 8.13909 17.679 8.11187 17.7694 8.0803C17.8708 8.04492 18.0519 8.00816 18.3547 8.00816V6.00816C17.4695 6.00816 16.6631 6.21727 16.1282 6.85249C15.6258 7.44916 15.5596 8.20432 15.5596 8.7715H17.5596ZM18.3551 8.00816L20.2732 8.00731L20.2723 6.00731L18.3542 6.00816L18.3551 8.00816ZM21.2727 7.00731V3.76778H19.2727V7.00731H21.2727ZM20.4046 2.77652C20.0228 2.72572 18.8397 2.625 17.4778 2.625V4.625C18.7649 4.625 19.8589 4.72153 20.1408 4.75905L20.4046 2.77652ZM17.4778 2.625C15.8922 2.625 14.4536 3.11232 13.4085 4.14526C12.3604 5.18125 11.8192 6.65621 11.8192 8.41291H13.8192C13.8192 7.06967 14.2247 6.15067 14.8145 5.56769C15.4074 4.98167 16.2981 4.625 17.4778 4.625V2.625ZM11.8192 8.41291V11.0841H13.8192V8.41291H11.8192ZM12.8192 10.0841H9.69153V12.0841H12.8192V10.0841ZM8.69153 11.0841V14.7062H10.6915V11.0841H8.69153ZM9.69153 15.7062H12.8192V13.7062H9.69153V15.7062ZM11.8192 14.7062V24.0002H13.8192V14.7062H11.8192ZM12.8192 25.0002H16.5596V23.0002H12.8192V25.0002Z" fill="white" mask="url(#path-2-inside-1_16_61155)"/>
</g>
<defs>
<clipPath id="clip0_16_61155">
<rect width="24" height="24" fill="white"/>
</clipPath>
</defs>
</svg>
