<svg width="30" height="30" viewBox="0 0 30 30" fill="none" xmlns="http://www.w3.org/2000/svg">
<g clip-path="url(#clip0_52_63416)">
<path d="M21.8444 28.5L21.7507 29.9063H25.3132C25.3132 29.9063 25.6882 29.4375 25.3132 29.25C24.9382 29.0625 23.2507 28.4062 23.2507 28.4062L21.8444 28.5ZM21.2819 28.5L21.3757 29.9063H17.8132C17.8132 29.9063 17.4382 29.4375 17.8132 29.25C18.1882 29.0625 19.8757 28.4062 19.8757 28.4062L21.2819 28.5Z" fill="#604E46"/>
<path d="M21.8437 18.0938L21.2813 22.6875L21.4687 28.7813H19.5L19.125 22.6875L19.3125 18.375L21.8437 18.0938Z" fill="#3D5E7F"/>
<path d="M21.375 18.0938L21.9375 22.6875L21.8438 28.7813H23.7188L24.0938 22.6875L24 18.375L21.375 18.0938Z" fill="#3D5E7F"/>
<path d="M9.56202 2.06163C9.56202 2.06163 8.90577 1.68663 7.78077 1.96788C6.65577 2.24913 5.06202 3.93663 5.24952 5.99913C5.43702 7.96788 6.74952 10.5929 9.09327 10.5929C11.437 10.5929 12.8433 8.06163 12.8433 7.59288C12.937 7.12413 13.687 1.78038 9.56202 2.06163Z" fill="#7F5F52"/>
<path d="M12.6562 11.6241C12 11.1554 11.25 12.1866 11.25 12.1866C10.9688 12.4679 10.875 13.0304 10.875 13.0304L11.25 13.4054L13.0312 16.2179C13.2188 16.5929 13.875 16.6866 14.3438 16.4991C14.8125 16.3116 14.7188 15.8429 14.7188 15.8429C14.7188 15.8429 13.3125 12.0929 12.6562 11.6241ZM5.4375 11.8116C5.90625 11.2491 6.9375 11.9991 6.9375 11.9991C7.21875 12.1866 7.5 12.7491 7.5 12.7491L7.21875 13.1241L6.28125 16.4054C6.1875 16.7804 5.625 17.0616 5.0625 16.9679C4.5 16.8741 4.5 16.4054 4.5 16.4054C4.5 16.4054 4.875 12.4679 5.4375 11.8116Z" fill="#57934D"/>
<path d="M4.68815 16.4994C5.06315 15.8432 5.25065 16.0307 5.25065 16.0307L6.2819 16.7807C6.2819 16.7807 6.2819 17.4369 6.18815 17.8119C6.00065 18.3744 5.81315 19.6869 5.81315 19.6869C5.81315 19.8744 5.7194 20.1557 5.43815 20.1557C5.25065 20.1557 5.06315 20.2494 4.9694 20.1557C4.87565 20.0619 4.50065 19.8744 4.4069 19.5932C4.4069 19.2182 4.31315 17.1557 4.68815 16.4994Z" fill="#EFBF9E"/>
<path d="M4.96875 19.5C4.96875 19.5 5.625 19.875 5.90625 20.1563C6.1875 20.5313 6.5625 21.0937 6.28125 21.375C6.09375 21.6562 6 21.8438 5.71875 21.6563C5.4375 21.375 5.0625 21.4688 4.875 21C4.6875 20.5313 4.59375 19.6875 4.59375 19.6875L4.96875 19.5Z" fill="#EFBF9E"/>
<path d="M8.15625 8.90625C8.15625 8.90625 8.25 10.5938 7.6875 11.5312L10.875 11.625C10.875 11.625 10.125 10.5938 10.2187 8.71875C10.2187 8.71875 8.8125 9.1875 8.15625 8.90625Z" fill="#E2A881"/>
<path d="M11.6249 3.65625C11.0624 2.625 9.46866 2.71875 9.18741 2.71875C8.90616 2.71875 7.31241 2.53125 6.74991 3.65625C6.09366 4.875 6.18741 9.09375 9.18741 9.46875C12.0937 9.09375 12.2812 4.78125 11.6249 3.65625Z" fill="#EFBF9E"/>
<path d="M11.0628 16.2187C10.8753 15.2812 11.2503 13.875 11.5315 13.4062C11.8128 12.9375 12.5628 11.8125 12.3753 11.5312C12.2815 11.25 10.1253 10.9688 9.56276 10.875H8.43776C7.87526 10.9688 5.71901 11.3437 5.62526 11.5312C5.53151 11.8125 6.28151 13.0312 6.46901 13.4062C6.75026 13.875 7.12526 15.2812 6.93776 16.2187C6.93776 16.2187 6.09401 17.1563 6.00026 17.5313C5.90651 17.9063 5.62526 19.5 8.62526 19.5H9.18776C12.1878 19.5 11.9065 17.9063 11.8128 17.5313C11.9065 17.1563 11.0628 16.2187 11.0628 16.2187Z" fill="#417F38"/>
<path d="M8.62523 18.1878L9.00023 22.6878C9.00023 22.6878 8.71898 24.1878 9.09398 24.2816C9.46898 24.3753 10.7815 24.4691 10.969 23.4378C11.1565 22.4066 12.094 19.1253 12.094 18.9378C12.094 18.7503 12.469 17.2503 11.2502 16.3128C11.1565 16.3128 8.34398 16.0316 8.62523 18.1878Z" fill="#3D5E7F"/>
<path d="M11.0625 29.3441C10.875 28.6878 10.5 27.8441 10.6875 27.4691C10.875 27.0003 11.1563 25.6878 10.9688 25.3128C10.7813 24.9378 10.875 23.8128 10.875 23.8128C10.4063 22.9691 8.90625 23.5316 8.8125 23.8128C8.71875 24.2816 8.625 25.0316 8.625 25.3128C8.625 25.5941 8.625 26.5316 8.90625 26.8128C9.1875 27.0941 8.8125 28.7816 8.8125 28.7816C8.8125 28.7816 8.71875 29.0628 8.625 29.5316C9.1875 29.4378 10.5938 29.3441 11.0625 29.3441Z" fill="#3D5E7F"/>
<path d="M10.8744 28.9687C10.7807 28.9687 10.7807 28.875 10.7807 28.875C10.1244 28.875 9.84315 28.6875 9.1869 28.6875C9.09315 28.7813 8.71815 29.0625 8.6244 29.25C8.53065 29.625 9.1869 30 9.1869 30C9.1869 30 10.1244 30.1875 11.1557 30C12.2807 29.7187 11.3432 29.25 10.8744 28.9687Z" fill="#604E46"/>
<path d="M9.56242 18.2818L8.81242 22.7818C8.81242 22.7818 8.99992 24.2818 8.53117 24.3756C8.15617 24.4693 6.84367 24.4693 6.74992 23.3443C6.65617 22.2193 5.99992 18.9381 5.99992 18.7506C5.99992 18.5631 5.71867 16.9693 7.03117 16.1256C7.03117 16.1256 9.93742 16.0318 9.56242 18.2818Z" fill="#3D5E7F"/>
<path d="M6.1875 29.1574C6.375 28.5011 6.84375 27.6574 6.75 27.2824C6.5625 26.9074 6.375 25.5011 6.5625 25.1261C6.75 24.7511 6.75 23.6261 6.75 23.6261C7.3125 22.8761 8.71875 23.4386 8.8125 23.7199C8.8125 24.1886 8.90625 24.9386 8.90625 25.2199C8.8125 25.5011 8.8125 26.4386 8.4375 26.7199C8.0625 27.0011 8.34375 28.6886 8.34375 28.6886C8.34375 28.6886 8.4375 28.9699 8.53125 29.4386C8.0625 29.3449 6.65625 29.1574 6.1875 29.1574Z" fill="#3D5E7F"/>
<path d="M6.46945 28.7811C6.5632 28.7811 6.5632 28.6874 6.65695 28.6874C7.3132 28.7811 7.59445 28.4999 8.2507 28.5936C8.2507 28.6874 8.71945 29.0624 8.71945 29.1561C8.8132 29.5311 8.0632 29.9061 8.0632 29.9061C8.0632 29.9061 7.1257 30.0936 6.09445 29.9061C4.96945 29.6249 5.90695 29.0624 6.46945 28.7811Z" fill="#604E46"/>
<path d="M14.7188 15.5625C14.0625 15.1875 14.0625 15.375 14.0625 15.375L13.5 16.5C13.5 16.5 13.7813 17.0625 14.0625 17.4375L15.0938 18.9375C15.1875 19.125 15.375 19.3125 15.6563 19.2188C15.8438 19.125 16.0313 19.125 16.0313 19.0312C16.125 18.9375 16.3125 18.5625 16.2187 18.2812C16.2187 17.9062 15.375 15.9375 14.7188 15.5625Z" fill="#EFBF9E"/>
<path d="M14.8125 18.1875C14.8125 18.1875 14.8125 18.9375 15 19.3125C15.0937 19.7812 15.5625 20.3438 15.8437 20.25C16.125 20.1562 16.4062 20.25 16.3125 19.875C16.2187 19.5 16.5 19.2188 16.2187 18.8438C15.9375 18.4688 15.1875 17.9062 15.1875 17.9062L14.8125 18.1875Z" fill="#EFBF9E"/>
<path d="M10.4063 5.8125C10.7169 5.8125 10.9687 5.56066 10.9687 5.25C10.9687 4.93934 10.7169 4.6875 10.4063 4.6875C10.0956 4.6875 9.84375 4.93934 9.84375 5.25C9.84375 5.56066 10.0956 5.8125 10.4063 5.8125Z" fill="#604E46"/>
<path d="M8.0625 5.8125C8.37316 5.8125 8.625 5.56066 8.625 5.25C8.625 4.93934 8.37316 4.6875 8.0625 4.6875C7.75184 4.6875 7.5 4.93934 7.5 5.25C7.5 5.56066 7.75184 5.8125 8.0625 5.8125Z" fill="#604E46"/>
<path d="M11.3438 15L10.875 16.2187C10.875 16.2187 9.28125 15.6562 7.3125 16.2187L7.125 15.0938L7.3125 14.3437C7.3125 14.3437 8.15625 13.7813 11.0625 14.1563L11.3438 15Z" fill="#417F38"/>
<path d="M9.46954 14.1563L10.2195 13.5938C10.5008 13.4062 11.2508 13.125 11.6258 13.125C12.0945 13.2188 12.4695 13.6875 12.3758 14.25C12.282 14.7187 12.3758 15.375 11.6258 15.5625C10.8758 15.75 10.782 15.6563 10.5008 15.5625C10.1258 15.375 9.65704 14.8125 9.46954 14.1563ZM8.71954 14.1563L7.96954 13.5938C7.68829 13.4062 7.03204 13.125 6.56329 13.125C6.09454 13.2188 5.71954 13.6875 5.81329 14.25C5.90704 14.8125 5.81329 15.375 6.56329 15.5625C7.31329 15.75 7.40704 15.6563 7.68829 15.5625C7.96954 15.4688 8.53204 14.8125 8.71954 14.1563Z" fill="#417F38"/>
<path d="M7.96875 7.40625C7.96875 7.40625 9.75 7.40625 10.5 7.03125C10.5 7.03125 10.2187 8.0625 9.09375 8.0625C7.96875 8.15625 7.96875 7.40625 7.96875 7.40625Z" fill="#AF664B"/>
<path d="M9.28047 2.25C9.28047 2.25 8.71797 4.40625 11.9055 6C11.9055 6 12.5617 4.6875 12.2805 4.125C11.9992 3.5625 11.4367 2.25 9.28047 2.25Z" fill="#604E46"/>
<path d="M9.65625 2.7181C9.65625 2.7181 8.90625 4.68685 6.1875 4.87435C6.1875 4.87435 6.375 2.9056 7.78125 2.7181C9.1875 2.5306 9.65625 2.7181 9.65625 2.7181Z" fill="#A37464"/>
<path d="M18.4686 10.0303C19.1248 9.56153 19.8748 10.6865 19.8748 10.6865C20.1561 10.9678 20.2498 11.624 20.2498 11.624L19.8748 11.999L18.0936 15.0928C17.9061 15.4678 17.2498 15.5615 16.7811 15.374C16.3123 15.1865 16.4061 14.624 16.4061 14.624C16.4061 14.624 17.8123 10.499 18.4686 10.0303ZM25.0311 10.4053C24.5623 9.74903 24.0936 10.499 24.0936 10.499C23.8123 10.6865 23.5311 11.249 23.5311 11.249L23.8123 11.7178L24.7498 15.1865C24.8436 15.6553 25.4061 15.9365 25.9686 15.8428C26.5311 15.749 26.5311 15.2803 26.5311 15.2803C26.5311 15.2803 25.5936 11.0615 25.0311 10.4053Z" fill="#EFBF9E"/>
<path d="M26.4375 15.3739C26.0625 14.6239 25.875 14.9052 25.875 14.9052L24.8438 15.6552C24.8438 15.6552 24.8438 16.3114 24.9375 16.7802C25.0313 17.2489 25.2187 18.7489 25.2187 18.7489C25.2187 19.0302 25.3125 19.2177 25.5937 19.3114C25.7812 19.3114 25.9687 19.4052 26.0625 19.3114C26.1562 19.2177 26.5312 19.0302 26.625 18.6552C26.7187 18.2802 26.8125 16.0302 26.4375 15.3739Z" fill="#EFBF9E"/>
<path d="M26.0625 18.6562C26.0625 18.6562 25.4062 19.0313 25.125 19.4063C24.8437 19.7813 24.4688 20.4375 24.75 20.7188C24.9375 21 25.0313 21.2812 25.3125 21C25.5938 20.7188 25.9688 20.8125 26.1562 20.3438C26.3438 19.875 26.4375 18.8438 26.4375 18.8438L26.0625 18.6562Z" fill="#EFBF9E"/>
<path d="M22.5938 7.50095C22.5938 7.50095 22.5 9.18845 23.1563 10.126L19.7812 10.3135C19.7812 10.3135 20.625 9.2822 20.4375 7.4072C20.4375 7.31345 21.8438 7.87595 22.5938 7.50095Z" fill="#E2A881"/>
<path d="M18.9368 2.25C19.593 1.21875 21.1868 1.3125 21.468 1.3125C21.7493 1.3125 23.4368 1.125 23.9993 2.25C24.7493 3.46875 24.5618 7.78125 21.468 8.0625C18.3743 7.78125 18.2805 3.375 18.9368 2.25Z" fill="#EFBF9E"/>
<path d="M24.0946 18.75L24.0008 14.9062C23.8133 13.875 24.1883 12.375 24.4696 11.8125C24.7508 11.3438 24.8446 10.2187 24.7508 9.84375C24.6571 9.5625 23.1571 9.09375 22.5946 9H21.4696C20.9071 9.09375 18.7508 9.46875 18.6571 9.75C18.5633 10.0312 18.8446 11.4375 19.1258 11.9062C19.4071 12.375 19.2196 17.4375 19.0321 18.4688L24.0946 18.75Z" fill="#417F38"/>
<path d="M16.5 14.3445C16.9688 13.782 17.1562 13.9695 17.1562 13.9695L18 15.0007C18 15.0007 17.9062 15.657 17.625 16.1257L16.9688 18.0007C16.9688 18.282 16.7813 18.4695 16.5 18.4695C16.3125 18.4695 16.125 18.4695 16.0313 18.3757C15.9375 18.282 15.6563 18.0007 15.5625 17.6257C15.75 17.157 16.0313 14.907 16.5 14.3445Z" fill="#EFBF9E"/>
<path d="M17.0627 17.8125C17.0627 17.8125 16.7814 18.5625 16.5002 18.9375C16.2189 19.3125 15.6564 19.6875 15.3752 19.5937C15.0939 19.4062 14.8127 19.4063 15.0002 18.9375C15.1877 18.5625 15.0002 18.1875 15.4689 17.9062C15.9377 17.625 16.7814 17.4375 16.7814 17.4375L17.0627 17.8125Z" fill="#EFBF9E"/>
<path d="M20.25 4.40625C20.5607 4.40625 20.8125 4.15441 20.8125 3.84375C20.8125 3.53309 20.5607 3.28125 20.25 3.28125C19.9393 3.28125 19.6875 3.53309 19.6875 3.84375C19.6875 4.15441 19.9393 4.40625 20.25 4.40625Z" fill="#604E46"/>
<path d="M22.6875 4.40625C22.9982 4.40625 23.25 4.15441 23.25 3.84375C23.25 3.53309 22.9982 3.28125 22.6875 3.28125C22.3768 3.28125 22.125 3.53309 22.125 3.84375C22.125 4.15441 22.3768 4.40625 22.6875 4.40625Z" fill="#604E46"/>
<path d="M22.3125 6.1875C22.3125 6.1875 21.0938 6.1875 20.5312 5.8125C20.5312 5.8125 20.7187 6.65625 21.4688 6.75C22.3125 6.75 22.3125 6.1875 22.3125 6.1875Z" fill="#AF664B"/>
<path opacity="0.4" d="M6.65625 13.9681C6.65625 13.9681 6.65625 13.4056 7.6875 13.3118C8.71875 13.2181 11.25 13.2181 11.5313 13.5931C11.8125 14.0618 11.5313 14.5306 10.9688 14.5306C10.4063 14.5306 7.40625 14.6243 7.03125 14.4368C6.75 14.4368 6.65625 13.9681 6.65625 13.9681Z" fill="#57934D"/>
<path d="M23.3441 1.87471L20.0629 1.96846C19.1254 1.87471 18.5629 1.31221 18.6566 0.937213C18.7504 0.562213 19.8754 -0.281537 21.2816 -0.000287127C22.5941 0.374713 24.0941 0.937213 24.1879 1.21846C24.2816 1.49971 23.6254 1.87471 23.3441 1.87471Z" fill="#604E46"/>
<path d="M23.156 1.5C23.156 1.5 23.9997 2.8125 23.9997 3.28125C23.9997 3.75 24.0935 4.96875 24.5622 4.5C25.031 4.03125 25.9685 1.96875 23.9997 1.125C23.9997 1.21875 23.156 1.3125 23.156 1.5ZM19.8747 1.6875C19.8747 1.6875 19.2185 3.5625 18.9372 3.65625C18.7497 3.75 18.0935 2.71875 19.1247 1.40625L19.8747 1.6875Z" fill="#604E46"/>
<path d="M20.8125 11.3435L19.0312 13.2185L17.4375 11.531L18.375 9.93727C18.5625 9.74977 19.875 10.1248 19.875 10.1248L20.8125 11.3435ZM23.0625 11.3435L24.375 13.2185L25.7812 12.3748C25.7812 12.3748 25.6875 10.5935 24.75 10.031C24.4687 9.84352 24 10.1248 24 10.1248L23.0625 11.3435Z" fill="#417F38"/>
<path d="M19.5938 10.1248C19.5938 10.1248 22.125 9.56227 23.3438 10.2185L23.0625 13.781L23.1563 17.8123H19.875L20.25 13.6873L19.5938 10.1248Z" fill="#57934D"/>
<path d="M10.0312 17.4375L11.0625 17.5313L10.875 19.7813L10.4063 25.3125L10.2187 27.6562L9.75 27.4688L9.65625 25.0313L9.75 20.9062L9.5625 17.625L10.0312 17.4375ZM7.40625 17.4375L8.53125 17.5313L8.34375 19.7813L7.875 25.3125L7.6875 27.6562L7.21875 27.4688L7.125 25.0313V20.9062L7.03125 17.625L7.40625 17.4375Z" fill="#426884"/>
<path d="M22.5 15C22.5937 15 22.5938 14.9063 22.5938 14.7188C22.5938 14.0625 22.5 14.0625 22.0312 14.0625H20.7188V15H22.5ZM22.5938 12.375C22.5938 12.0938 22.5 12.0938 21.8437 12.0938H20.7188V13.0313H21.9375C22.5 13.0313 22.5938 13.0313 22.5938 12.375Z" stroke="#417F38" stroke-width="0.301687" stroke-miterlimit="10"/>
<path d="M9.28125 13.2188C9.09375 13.2188 8.90625 13.125 8.8125 13.125C8.4375 13.0313 8.4375 13.0313 8.4375 12.6563C8.4375 12.4688 8.53125 12.2813 9.1875 12.2813C9.75 12.2813 10.4062 12.4687 10.6875 12.5625H10.7812L11.0625 11.625H10.9687C10.5 11.4375 9.65625 11.3438 9.09375 11.3438C7.96875 11.3438 7.3125 11.9063 7.3125 12.75C7.3125 14.0625 7.96875 14.1563 9.5625 14.5312H9.65625C10.125 14.625 10.125 14.625 10.125 15C10.125 15.375 9.9375 15.4688 9.375 15.4688C8.53125 15.4688 7.875 15.2813 7.59375 15.1875L7.5 15.0938V15.1875C7.40625 15.375 7.40625 15.5625 7.3125 15.8438L7.21875 16.0313H7.3125C7.78125 16.2188 8.625 16.4062 9.375 16.4062C10.3125 16.4062 11.3438 16.2188 11.3438 14.9062C11.1563 13.5937 10.2187 13.4063 9.28125 13.2188ZM23.25 12.9375C23.5312 12.75 23.7187 12.4688 23.7187 11.8125C23.7187 10.6875 23.1562 10.5 21.75 10.5H19.6875V15.4688H21.8437C23.1562 15.4688 23.8125 15.2813 23.8125 14.1563C23.8125 13.4063 23.625 13.125 23.25 12.9375ZM20.7188 13.4063H22.0312C22.5 13.4063 22.5938 13.4063 22.5938 14.0625C22.5938 14.25 22.5 14.3438 22.5 14.3438H20.8125V13.4063H20.7188ZM20.7188 12.375V11.4375H21.8437C22.5 11.4375 22.5938 11.5313 22.5938 11.7188C22.5938 12.375 22.5 12.375 22.0312 12.375H20.7188Z" fill="white" stroke="#417F38" stroke-width="0.301687" stroke-miterlimit="10"/>
</g>
<defs>
<clipPath id="clip0_52_63416">
<rect width="30" height="30" fill="white"/>
</clipPath>
</defs>
</svg>
