<svg width="30" height="30" viewBox="0 0 30 30" fill="none" xmlns="http://www.w3.org/2000/svg">
<g clip-path="url(#clip0_52_67940)">
<path d="M22.5938 3.1875L25.6875 6.28125L27.2812 10.125L3.46875 23.8125L0.9375 18.6562L14.0625 6.9375L22.5938 3.1875Z" fill="#14425B"/>
<path d="M27.9375 15.6581C26.5313 23.5331 17.8125 29.1581 10.3125 28.0331C4.12504 27.0956 1.21879 21.8456 2.71879 16.4081C4.12504 11.1581 9.56254 6.37685 15.6563 5.25185C22.9688 3.93935 29.1563 8.3456 27.9375 15.6581Z" fill="#14425B"/>
<path d="M23.3437 3.46875L25.5937 6.1875L27.2812 10.4062L3.84375 23.8125L1.125 19.2187L23.3437 3.46875Z" fill="#14425B"/>
<path d="M27.6563 15.1893C26.3438 23.0643 17.625 28.6893 10.0313 27.5643C3.84379 26.6268 0.937544 21.3768 2.43754 15.9393C3.84379 10.6893 9.28129 5.81435 15.375 4.7831C22.7813 3.4706 28.9688 7.87685 27.6563 15.1893Z" fill="#14425B"/>
<path d="M26.1562 11.7197C24.8437 19.6885 16.125 25.4072 8.43748 24.1885C2.15623 23.251 -0.843767 17.8135 0.656233 12.2822C2.06248 6.93846 7.49998 2.06346 13.6875 0.938456C21.1875 -0.280294 27.4687 4.21971 26.1562 11.7197Z" fill="#14425B"/>
<path d="M26.5318 14.9995C25.313 22.2183 17.438 27.4683 10.5005 26.3433C4.87553 25.4995 2.25053 20.6245 3.65678 15.6558C4.96928 10.8745 9.84428 6.46828 15.3755 5.43703C22.0318 4.21828 27.7505 8.24953 26.5318 14.9995Z" fill="#0B6D84"/>
<path d="M25.5001 13.594C24.2814 21.0002 16.3126 26.2502 9.37511 25.1252C3.65636 24.1877 1.03136 19.3127 2.34386 14.1565C3.65636 9.2815 8.53136 4.7815 14.1564 3.844C20.9064 2.5315 26.6251 6.6565 25.5001 13.594Z" fill="#0B6D84"/>
<path d="M25.1243 11.9059C23.9056 19.3121 15.9368 24.5621 8.9056 23.4371C3.2806 22.4996 0.561849 17.6246 1.87435 12.4684C3.18685 7.5934 8.06185 3.0934 13.6868 2.1559C20.5306 0.937146 26.2493 5.06214 25.1243 11.9059Z" fill="#00ADF2"/>
<path d="M23.1568 11.4382C22.2193 17.6257 15.4693 22.032 9.65684 21.0945C4.96934 20.3445 2.71934 16.2195 3.84434 11.907C4.96934 7.87571 9.00059 4.12571 13.6881 3.28196C19.3131 2.25071 24.0943 5.62571 23.1568 11.4382Z" fill="#43BBEF"/>
<path d="M25.125 5.53125L25.6875 9.84375L26.7188 11.5312L27.1875 10.0312L25.125 5.53125Z" fill="#14425B"/>
<path d="M18.1883 11.6252L18.3758 10.6877C18.7508 8.6252 17.1571 7.1252 14.9071 7.3127H14.5321C12.1883 7.40645 9.93831 9.09395 9.37581 11.0627L9.09456 12.0002C8.81331 12.2814 8.25081 12.7502 8.06331 13.1252L7.68831 14.2502C7.40706 15.5627 7.59456 16.8752 8.43831 17.7189C9.00081 18.2814 9.84456 18.7502 11.2508 18.6564H12.8446C14.2508 18.6564 15.3758 18.0939 16.2196 17.4377C17.5321 16.5002 18.3758 15.0939 18.5633 13.7814L18.7508 12.6564C18.7508 12.2814 18.3758 11.8127 18.1883 11.6252ZM14.1571 8.6252H14.4383C15.9383 8.53145 16.9696 9.5627 16.6883 10.9689L16.5008 11.7189L10.5946 12.0002L10.7821 11.2502C11.1571 9.84395 12.6571 8.71895 14.1571 8.6252ZM13.2196 15.7502L13.0321 16.8752C12.9383 17.1564 12.6571 17.4377 12.3758 17.4377C12.0946 17.4377 11.9071 17.2502 12.0008 16.9689L12.2821 15.8439C11.8133 15.6564 11.5321 15.1877 11.6258 14.6252C11.8133 13.8752 12.5633 13.2189 13.4071 13.2189C14.1571 13.2189 14.7196 13.7814 14.5321 14.5314C14.3446 15.0002 13.8758 15.4689 13.2196 15.7502Z" fill="#0B6D84"/>
<path d="M18.75 11.3439L18.9375 10.4064C19.3125 8.34395 17.7188 6.84395 15.4688 7.03145H15.0938C12.8438 7.1252 10.5938 8.8127 10.0313 10.8752L9.75 11.8127C9.46875 12.0939 8.90625 12.5627 8.71875 12.9377L8.34375 14.0627C7.96875 15.3752 8.15625 16.6877 8.90625 17.5314C9.46875 18.0939 10.3125 18.5627 11.7188 18.4689H13.3125C14.7188 18.4689 15.8438 17.9064 16.6875 17.2502C18 16.3127 18.8438 14.9064 19.0312 13.5939L19.2188 12.4689C19.3125 12.0939 18.9375 11.6252 18.75 11.3439ZM14.7188 8.4377H15C16.5 8.34395 17.5312 9.3752 17.25 10.7814L17.0625 11.5314L11.1562 11.8127L11.3438 11.0627C11.7188 9.65645 13.2188 8.53145 14.7188 8.4377ZM13.7813 15.5627L13.5 16.6877C13.4062 16.9689 13.125 17.2502 12.8438 17.2502C12.5625 17.2502 12.375 17.0627 12.4688 16.7814L12.75 15.6564C12.2813 15.4689 12 15.0002 12.0938 14.4377C12.2812 13.6877 13.0313 13.0314 13.875 13.0314C14.625 13.0314 15.1875 13.5939 15 14.3439C14.9063 14.8127 14.4375 15.2814 13.7813 15.5627Z" fill="#0B6D84"/>
<path d="M17.8125 10.9693L18 10.0318C18.375 8.06302 16.875 6.65677 14.625 6.75052H14.25C12.0938 6.84427 9.9375 8.53177 9.375 10.5005L9.09375 11.438C8.8125 11.7193 8.25 12.188 8.15625 12.563L7.875 13.5943C7.5 14.813 7.6875 16.0318 8.4375 16.8755C9 17.438 9.84375 17.813 11.1562 17.813H12.75C14.0625 17.813 15.1875 17.2505 16.0313 16.688C17.25 15.7505 18.0938 14.438 18.2812 13.2193L18.4688 12.188C18.2813 11.6255 18 11.1568 17.8125 10.9693ZM13.875 8.15677H14.1563C15.5625 8.06302 16.5938 9.00052 16.3125 10.4068L16.2187 11.1568L10.5 11.438L10.6875 10.7818C11.0625 9.37552 12.4688 8.25052 13.875 8.15677ZM13.0312 15.0005L12.75 16.1255C12.6563 16.4068 12.375 16.688 12.0938 16.688C11.8125 16.688 11.625 16.5005 11.7188 16.2193L12 15.0943C11.5313 14.9068 11.25 14.438 11.4375 13.8755C11.625 13.1255 12.375 12.563 13.125 12.563C13.875 12.563 14.3438 13.0318 14.25 13.7818C14.0625 14.2505 13.5938 14.7193 13.0312 15.0005Z" fill="#F6F6F6"/>
<path d="M22.9691 11.1569C23.4378 6.46938 19.7816 3.46938 15.0003 3.75063C10.3128 4.03188 5.43784 7.59438 3.84409 12.0006C2.06284 17.1569 4.96909 21.6569 10.8753 21.5631C16.9691 21.4694 22.5003 16.4069 22.9691 11.1569Z" stroke="#F6F6F6" stroke-width="0.864656" stroke-miterlimit="10"/>
<path d="M25.4062 10.9687L25.0312 7.96875C25.0312 7.96875 26.25 10.0313 26.5312 11.3438L25.2187 14.7188L25.4062 10.9687Z" fill="#0B6D84"/>
<path d="M17.4375 26.7187L17.0625 27.1875L18.75 28.3125L28.5937 18.6562L26.9062 16.5938L17.4375 26.7187Z" fill="#9A4C18"/>
<path d="M28.7819 21.3753C28.5007 25.2191 24.8444 28.5003 20.9069 28.5003C16.9694 28.5003 14.4382 25.2191 15.1882 21.4691C15.9382 17.9066 19.3132 15.1878 22.7819 15.0941C26.3444 15.0003 29.0632 17.8128 28.7819 21.3753Z" fill="#9A4C18"/>
<path d="M29.7194 22.5942C29.4381 26.2505 25.8756 29.438 22.0319 29.3442C18.1881 29.3442 15.7506 26.1567 16.5006 22.5942C17.1569 19.2192 20.5319 16.5942 23.9069 16.5942C27.3756 16.5005 30.0006 19.1255 29.7194 22.5942Z" fill="#9A4C18"/>
<path d="M18.4688 26.9063L20.1562 27.8438L28.125 19.4063L26.8125 17.7188L18.4688 26.9063Z" fill="#F49937"/>
<path d="M28.9693 22.5938C28.688 25.6875 25.7818 28.4063 22.5005 28.3125C19.313 28.3125 17.2505 25.6875 17.813 22.5938C18.3755 19.6875 21.188 17.3438 24.0943 17.3438C27.0943 17.3438 29.2505 19.6875 28.9693 22.5938Z" fill="#F49937"/>
<path d="M27.9366 21.3757C27.6553 24.7507 24.4678 27.5632 20.9991 27.5632C17.5303 27.5632 15.3741 24.7507 15.9366 21.4694C16.4991 18.3757 19.4991 15.9382 22.5928 15.8444C25.8741 15.7507 28.2178 18.1882 27.9366 21.3757Z" fill="#FFEDC0"/>
<path d="M27.4693 21.657C27.188 24.7508 24.2818 27.4695 21.0005 27.3758C17.813 27.3758 15.7505 24.7508 16.313 21.657C16.8755 18.7508 19.688 16.407 22.5943 16.407C25.5943 16.3133 27.7505 18.657 27.4693 21.657Z" fill="#FFD766"/>
<path d="M26.2502 21.6562C25.969 24.0937 23.719 26.0625 21.2815 26.0625C18.844 26.0625 17.1565 24 17.6252 21.6562C18.0002 19.4062 20.2502 17.5312 22.5002 17.5312C24.7502 17.5312 26.4377 19.3125 26.2502 21.6562Z" fill="#FFEDC0"/>
<path d="M26.2499 21C25.9686 23.4375 23.7186 25.4062 21.2811 25.4062C18.8436 25.4062 17.2499 23.4375 17.6249 21C17.9999 18.75 20.1561 16.9687 22.4999 16.875C24.8436 16.9687 26.5311 18.75 26.2499 21Z" fill="#F49937"/>
<path d="M25.5 21.6563C25.3125 23.7188 23.3438 25.4063 21.2813 25.4063C19.2188 25.4063 17.8125 23.7188 18.1875 21.6563C18.5625 19.6875 20.3438 18.1875 22.3125 18.1875C24.2813 18.0938 25.7813 19.6875 25.5 21.6563Z" fill="#FFD766"/>
<path d="M22.875 17.7188L23.4375 19.9687L25.875 20.625L23.625 22.125L23.5313 24.6562L21.4687 23.1563L18.9375 24.0938L20.0625 21.6563L18.75 19.7813L21.2813 19.6875L22.875 17.7188Z" fill="#F49937"/>
</g>
<defs>
<clipPath id="clip0_52_67940">
<rect width="30" height="30" fill="white"/>
</clipPath>
</defs>
</svg>
