<svg width="24" height="24" viewBox="0 0 24 24" fill="none" xmlns="http://www.w3.org/2000/svg">
<g clip-path="url(#clip0_16_61158)">
<path d="M5.26599 9.765C5.73387 8.34945 6.63685 7.11781 7.84611 6.2458C9.05536 5.37378 10.5091 4.90594 12 4.909C13.69 4.909 15.218 5.509 16.418 6.491L19.91 3C17.782 1.145 15.055 0 12 0C7.26999 0 3.19799 2.698 1.23999 6.65L5.26599 9.765Z" fill="#EA4335"/>
<path d="M16.0401 18.0126C14.9501 18.7156 13.5661 19.0906 12.0001 19.0906C10.5151 19.0936 9.06686 18.6295 7.8603 17.7639C6.65373 16.8984 5.75 15.6752 5.27706 14.2676L1.23706 17.3346C2.22831 19.3409 3.76233 21.029 5.66488 22.2071C7.56744 23.3853 9.76227 24.0063 12.0001 23.9996C14.9331 23.9996 17.7351 22.9566 19.8341 20.9996L16.0411 18.0126H16.0401Z" fill="#34A853"/>
<path d="M19.834 21.0004C22.029 18.9524 23.454 15.9044 23.454 12.0004C23.454 11.2904 23.345 10.5274 23.182 9.81836H12V14.4554H18.436C18.119 16.0144 17.266 17.2214 16.041 18.0134L19.834 21.0004Z" fill="#4A90E2"/>
<path d="M5.27699 14.2684C5.03235 13.5373 4.90806 12.7713 4.90899 12.0004C4.90899 11.2184 5.03399 10.4674 5.26599 9.76539L1.23999 6.65039C0.416372 8.31308 -0.00820201 10.1449 -5.61577e-06 12.0004C-5.61577e-06 13.9204 0.444994 15.7304 1.23699 17.3354L5.27699 14.2684Z" fill="#FBBC05"/>
</g>
<defs>
<clipPath id="clip0_16_61158">
<rect width="24" height="24" fill="white"/>
</clipPath>
</defs>
</svg>
