<svg width="20" height="20" viewBox="0 0 20 20" fill="none" xmlns="http://www.w3.org/2000/svg">
<path d="M9.20709 2.43891C9.45709 1.67141 10.5429 1.67141 10.7921 2.43891L12.0579 6.33391C12.1124 6.50098 12.2183 6.64656 12.3605 6.74983C12.5027 6.8531 12.6739 6.90878 12.8496 6.90891H16.9454C17.7529 6.90891 18.0879 7.94224 17.4354 8.41724L14.1221 10.8239C13.9798 10.9274 13.8738 11.0732 13.8195 11.2406C13.7652 11.408 13.7652 11.5882 13.8196 11.7556L15.0846 15.6506C15.3346 16.4189 14.4554 17.0572 13.8029 16.5822L10.4896 14.1756C10.3472 14.0721 10.1756 14.0163 9.99959 14.0163C9.82353 14.0163 9.652 14.0721 9.50959 14.1756L6.19626 16.5822C5.54376 17.0572 4.66459 16.4181 4.91459 15.6506L6.17959 11.7556C6.23399 11.5882 6.23402 11.408 6.17968 11.2406C6.12534 11.0732 6.01942 10.9274 5.87709 10.8239L2.56376 8.41724C1.91042 7.94224 2.24709 6.90891 3.05376 6.90891H7.14876C7.32463 6.90895 7.49601 6.85335 7.63836 6.75007C7.78071 6.64679 7.88674 6.50111 7.94126 6.33391L9.20709 2.43891Z" fill="#FF842C"/>
</svg>
