<svg width="40" height="34" viewBox="0 0 40 34" fill="none" xmlns="http://www.w3.org/2000/svg">
<g clip-path="url(#clip0_52_34952)">
<path d="M39.8584 15.0464C39.8784 14.9864 39.8984 14.9264 39.9184 14.8465C39.9384 14.7865 39.9584 14.7466 39.9584 14.6866C39.9784 14.5667 39.9984 14.4467 39.9984 14.3268C39.9984 14.2069 39.9784 14.087 39.9584 13.967C39.9384 13.9071 39.9184 13.8671 39.9184 13.8071C39.8984 13.7472 39.8784 13.6872 39.8584 13.6272C39.8384 13.5673 39.7984 13.5073 39.7584 13.4473C39.7384 13.4074 39.7184 13.3474 39.6784 13.3074C39.6184 13.2075 39.5384 13.1076 39.4384 13.0276L27.0792 0.615207C26.3393 -0.12434 25.1593 -0.12434 24.4194 0.615207C23.6794 1.35475 23.6794 2.53403 24.4194 3.27358L33.5788 12.428H1.92089C0.88096 12.428 0.0410156 13.2675 0.0410156 14.3068C0.0410156 15.3462 0.88096 16.2057 1.92089 16.2057H33.5788L24.4194 25.36C23.6794 26.0996 23.6794 27.2789 24.4194 28.0184C24.7794 28.3782 25.2593 28.5781 25.7393 28.5781C26.2193 28.5781 26.6992 28.3982 27.0592 28.0184L39.4384 15.646C39.5184 15.566 39.5984 15.4661 39.6784 15.3662C39.7184 15.3262 39.7384 15.2662 39.7584 15.2263C39.7984 15.1663 39.8384 15.1063 39.8584 15.0464Z" fill="#DF8956"/>
</g>
<defs>
<clipPath id="clip0_52_34952">
<rect width="40" height="28.5625" fill="white" transform="translate(0 0.015625)"/>
</clipPath>
</defs>
</svg>
