<svg width="30" height="30" viewBox="0 0 30 30" fill="none" xmlns="http://www.w3.org/2000/svg">
<g clip-path="url(#clip0_52_46625)">
<path d="M6.375 2.34375L26.0625 0.09375L25.875 1.5H26.9062L26.8125 2.8125H27.5625V3.46875H28.6875L25.125 28.4062L0.9375 25.6875L6.375 2.34375Z" fill="#608191"/>
<path d="M24.375 26.9062L1.96875 25.0312L6.84375 3.46875L27.375 4.21875L24.375 26.9062Z" fill="#8FB8CC"/>
<path d="M23.8125 26.25L2.0625 24.4688L7.03125 2.90625L26.9062 3.5625L23.8125 26.25Z" fill="#B7C6CE"/>
<path d="M23.1563 24.8438L2.71875 24.5625L7.59375 3L26.25 2.25L23.1563 24.8438Z" fill="#D6DFE5"/>
<path d="M22.4062 23.625L1.96875 24.4688L6.9375 2.90625L25.4062 1.03125L22.4062 23.625Z" fill="#9EC6DD"/>
<path d="M20.8125 21.6562L4.125 22.3125L8.15625 4.6875L23.25 3.1875L20.8125 21.6562Z" fill="white"/>
<path d="M20.8125 21.6562L4.125 22.3125L8.15625 4.6875L23.25 3.1875L20.8125 21.6562Z" fill="#CFEFFF"/>
<path d="M1.40625 24.9375L22.0312 24.8437L22.4062 23.625L1.59375 24.5625L1.40625 24.9375Z" fill="#608191"/>
<path d="M22.0312 24.8438H23.1563L26.0625 0.09375L25.4063 0.84375L22.0312 24.8438Z" fill="#608191"/>
<path d="M22.875 24.75H1.125L5.15625 2.53125L25.875 0.28125L22.875 24.75Z" fill="#608191"/>
<path d="M12.2813 11.1562L4.78125 11.625L6.1875 3.75L13.5938 3L12.2813 11.1562Z" fill="#CFEFFF"/>
<path d="M23.1562 10.5L13.4062 11.1562L14.625 2.90625L24.2812 1.96875L23.1562 10.5Z" fill="white"/>
<path d="M21.6563 23.1562L2.71875 23.3437L4.6875 12.4687L23.1563 11.3438L21.6563 23.1562Z" fill="#CFEFFF"/>
<mask id="mask0_52_46625" style="mask-type:luminance" maskUnits="userSpaceOnUse" x="2" y="11" width="22" height="13">
<path d="M21.6563 23.1562L2.71875 23.3437L4.6875 12.4687L23.1563 11.3438L21.6563 23.1562Z" fill="white"/>
</mask>
<g mask="url(#mask0_52_46625)">
<path d="M6.09358 24.2804C4.96858 23.7179 4.59358 22.4054 5.43733 20.9992C5.71858 20.5304 7.03108 19.3117 7.40608 19.1242C8.53108 18.3742 13.2186 17.7179 16.6873 19.9679C17.3436 20.3429 17.8123 21.0929 17.9061 21.8429V21.9367C18.0936 24.0929 17.0623 25.8742 14.7186 25.8742C11.9998 25.8742 7.96858 25.3117 6.09358 24.2804Z" fill="#913A3A"/>
<path d="M7.49958 12.375C7.49958 12.375 5.34333 15.375 7.21833 16.5938L7.87458 14.3438L7.49958 12.375ZM21.3746 14.7188C21.2808 15.75 20.1558 16.5938 18.9371 16.5938C17.7183 16.5938 16.8746 15.8437 16.9683 14.9062C17.0621 13.9687 18.1871 13.125 19.4058 13.0312C20.6246 13.0312 21.4683 13.7812 21.3746 14.7188Z" fill="#E8A554"/>
<path d="M19.968 11.8119C19.3117 10.4994 17.4367 9.18693 14.9992 9.09318C14.2492 8.99943 13.1242 8.99943 11.8117 9.28068C6.65546 10.3119 7.03046 14.3432 7.03046 14.3432C8.06171 13.3119 9.93671 12.5619 12.843 12.5619C14.1555 12.5619 15.093 12.1869 15.7492 11.8119C16.4055 12.5619 17.2492 14.1557 16.7805 16.8744C16.7805 16.8744 16.8742 17.9994 18.7492 17.9057C18.7492 17.9057 18.6555 17.0619 19.0305 16.5932C19.593 16.0307 20.718 13.2182 19.968 11.8119Z" fill="#E8A554"/>
<path d="M21.2805 15.1876C21.1868 16.2189 20.0618 17.0626 18.843 17.0626C17.6243 17.0626 16.7805 16.3126 16.8743 15.3751C16.968 14.4376 18.093 13.5938 19.3118 13.5001C20.4368 13.4063 21.3743 14.1564 21.2805 15.1876Z" fill="#E8A554"/>
<path d="M22.2183 18.6551C22.0308 20.4364 20.2496 21.8426 18.2808 21.9364C16.3121 21.9364 14.9996 20.6239 15.2808 18.8426C15.5621 17.1551 17.2496 15.7489 19.1246 15.6551C20.9996 15.5614 22.4058 16.8739 22.2183 18.6551ZM10.3121 18.1864C10.1246 19.4051 8.81206 20.4364 7.49956 20.4364C6.09331 20.4364 5.24956 19.4989 5.43706 18.2801C5.62456 17.0614 6.84331 16.1239 8.24956 16.0301C9.56206 16.0301 10.4996 16.9676 10.3121 18.1864Z" fill="#E8A554"/>
<path d="M21.843 18.5617C21.6555 20.1555 19.8742 21.468 17.9055 21.468C15.9367 21.468 14.6242 20.2492 14.8117 18.7492C14.9992 17.2492 16.6867 15.9367 18.6555 15.843C20.6242 15.7492 22.0305 16.968 21.843 18.5617Z" fill="#FFEFAB"/>
<path d="M20.9059 14.8126C20.8121 15.8438 19.6871 16.6876 18.4684 16.6876C17.2496 16.6876 16.4059 15.9376 16.4996 15.0001C16.5934 14.0626 17.7184 13.2188 18.9371 13.1251C20.1559 13.0313 21.0934 13.7813 20.9059 14.8126ZM10.4059 18.1876C10.2184 19.3126 9.09339 20.1563 7.78089 20.2501C6.46839 20.2501 5.62464 19.4063 5.81214 18.3751C5.99964 17.3438 7.12464 16.4063 8.43714 16.4063C9.65589 16.3126 10.5934 17.1563 10.4059 18.1876Z" fill="#FFEFAB"/>
<path d="M6.28108 23.6253C5.15608 23.0628 4.78108 21.7503 5.62483 20.344C5.90608 19.8753 7.21858 18.6565 7.59358 18.469C8.71858 17.719 13.4061 17.0628 16.8748 19.219C17.5311 19.594 17.9998 20.344 18.0936 21.094V21.1878C18.2811 23.344 17.2498 25.1253 14.9061 25.1253C12.1873 25.219 8.24983 24.6565 6.28108 23.6253Z" fill="#E8A554"/>
<path d="M6.56275 22.4066C5.5315 21.9378 6.094 20.9066 6.844 19.7816C7.12525 19.4066 7.68775 19.0316 7.969 18.8441C9.094 18.2816 13.219 17.6253 16.4065 19.4066C16.969 19.7816 17.4378 20.3441 17.5315 21.0003C17.8128 22.7816 15.9378 24.3753 14.0628 24.1878C11.719 23.9066 8.43775 23.2503 6.56275 22.4066Z" fill="#E8A554"/>
<path d="M6.46824 22.3128C5.62449 21.8441 6.65574 21.2816 7.40574 20.0628C7.59324 19.6878 8.71824 18.7503 8.99949 18.5628C9.93699 17.9066 12.2807 17.2503 14.9057 19.1253C15.3745 19.5003 15.7495 20.0628 15.8432 20.8128V20.9066C16.0307 22.7816 14.7182 24.2816 13.1245 24.0003C11.1557 23.6253 7.96824 23.1566 6.46824 22.3128Z" fill="#FFD097"/>
<path d="M6.37473 19.5938L3.65598 22.4062C3.65598 22.4062 2.53098 23.8125 4.03098 24.375C5.53098 24.9375 7.03098 23.9063 7.03098 23.9063C7.03098 23.9063 6.93723 22.7812 7.49973 22.3125L6.37473 19.5938Z" fill="#E8A554"/>
<path d="M6.0931 20.6247C6.18685 20.4372 6.4681 20.3434 6.6556 20.4372C7.31185 20.8122 9.18685 21.6559 13.4993 22.0309C14.5306 22.1247 15.8431 22.0309 17.7181 21.6559C17.7181 21.6559 17.7181 21.9372 17.6243 22.4059C17.2493 23.4372 16.0306 24.2809 14.7181 24.2809C13.2181 24.2809 11.8118 24.2809 9.8431 23.8122C6.8431 23.1559 5.06185 22.8747 6.0931 20.6247Z" fill="#E8BD89"/>
<path d="M19.3126 14.4376C18.9376 17.3439 15.6563 19.7814 12.0938 19.8751C8.71885 19.9689 6.3751 17.7189 6.84385 15.0001C7.3126 12.2814 10.3126 9.9376 13.5938 9.65635C17.1563 9.46885 19.6876 11.5314 19.3126 14.4376Z" fill="#8E4028"/>
<path d="M6.65641 19.6875L3.93766 22.5C3.93766 22.5 3.09391 23.625 4.59391 24.1875C6.09391 24.75 7.40641 24 7.40641 24C7.40641 24 7.21891 22.875 7.78141 22.4062L6.65641 19.6875Z" fill="#E8BD89"/>
<path d="M19.0305 14.0626C18.6555 16.8751 15.468 19.3126 12.093 19.3126C8.81174 19.4064 6.56174 17.2501 7.03049 14.6251C7.49924 12.0001 10.4055 9.75012 13.593 9.46887C16.968 9.28137 19.4055 11.3439 19.0305 14.0626Z" fill="#E8A554"/>
<path d="M19.0312 13.9682C18.6562 16.6869 15.75 18.9369 12.5625 19.0307C9.46874 19.1244 7.40624 17.0619 7.78124 14.5307C8.15624 12.0932 10.2187 9.84315 13.9687 9.5619C17.0625 9.28065 19.3125 11.2494 19.0312 13.9682Z" fill="#E8BD89"/>
<path d="M15.7498 14.7173C15.4686 16.6861 13.4061 18.2798 11.0623 18.3736C8.81231 18.4673 7.31231 16.9673 7.68731 15.0923C7.96856 13.2173 9.93731 11.6236 12.1873 11.5298C14.3436 11.4361 16.0311 12.8423 15.7498 14.7173Z" fill="#FFD097"/>
<path d="M7.5 14.25C7.5 14.25 7.78125 13.5 9.75 13.4063C11.7187 13.3125 14.625 13.3125 16.0313 12.1875L15.5625 11.9062C15.5625 11.9062 14.25 12.5625 12.1875 12.6563C10.2188 12.75 7.59375 13.3125 7.40625 13.5C7.40625 13.5937 7.5 14.25 7.5 14.25Z" fill="#E8A554"/>
<path d="M13.4998 15.1875C13.4998 15.4688 13.1248 15.75 12.8436 15.75C12.5623 15.75 12.2811 15.5625 12.3748 15.1875C12.3748 14.9063 12.7498 14.625 13.0311 14.625C13.3123 14.7188 13.4998 14.9063 13.4998 15.1875Z" fill="#8E4028"/>
<path d="M13.125 15.0935C13.125 15.1873 13.0313 15.281 12.9375 15.281C12.8438 15.281 12.8438 15.1873 12.8438 15.1873C12.8438 15.0935 12.9375 14.9998 13.0312 14.9998C13.125 14.906 13.2188 14.9998 13.125 15.0935Z" fill="white"/>
<path d="M9.09375 14.8125C9 15.0938 8.8125 15.375 8.4375 15.375C8.15625 15.375 7.96875 15.1875 7.96875 14.9062C8.0625 14.625 8.25 14.3438 8.625 14.3438C9 14.3438 9.1875 14.5312 9.09375 14.8125Z" fill="#8E4028"/>
<path d="M8.8125 14.625C8.8125 14.7188 8.71875 14.7188 8.625 14.8125C8.53125 14.8125 8.53125 14.7187 8.53125 14.7187C8.53125 14.625 8.625 14.625 8.71875 14.5312C8.8125 14.5312 8.8125 14.625 8.8125 14.625Z" fill="white"/>
<path d="M12 22.125C12 22.125 15 22.2188 15 19.5938C15 19.5938 15.9375 19.125 16.5938 19.5938C17.25 20.0625 18.1875 20.625 17.5312 22.2188C17.5312 22.3125 12.2812 22.9688 12 22.125ZM7.40625 21.1875C7.40625 21.1875 7.03125 20.7188 7.5 20.0625C7.96875 19.4062 8.625 19.0312 8.625 19.0312L8.15625 18.6562C8.15625 18.6562 6.46875 19.4063 6.09375 20.7188L7.40625 21.1875Z" fill="#E8BD89"/>
<path d="M10.0306 22.4063C10.0306 22.4063 12.8431 21.9376 14.0618 22.5938C14.0618 22.5938 14.3431 23.0626 13.9681 23.2501C13.5931 23.3438 11.3431 22.4063 10.0306 22.7813C10.0306 22.7813 9.8431 22.5001 10.0306 22.4063Z" fill="white"/>
<path d="M5.8125 21.1875C5.8125 21.1875 7.125 21.0938 7.5 21.6563C7.5 21.6563 7.5 22.0312 7.3125 22.125C7.125 22.2188 6.28125 21.2812 5.71875 21.4687C5.71875 21.375 5.625 21.2813 5.8125 21.1875Z" fill="#FCD6AE"/>
<path d="M16.9688 10.9695C16.9688 10.9695 15.6562 12.8445 12.8438 12.8445C10.0312 12.8445 8.0625 13.3132 7.125 14.3445C7.125 14.3445 7.78125 10.5007 11.9062 9.65697C16.125 8.71947 16.9688 10.407 16.9688 10.9695Z" fill="#FFEFAB"/>
<path d="M15 11.5313C15.4688 11.9063 17.1563 13.5 16.5 16.9688C16.5 16.9688 16.5 18 18.375 18C18.375 18 18.2812 17.25 18.6562 16.6875C19.0312 16.2187 20.0625 13.4062 19.4063 12.0937C18.75 10.7812 16.875 9.375 14.4375 9.375" fill="#FFEFAB"/>
<path d="M16.5938 15.0929C16.5938 15.0929 17.3437 14.7179 17.625 14.9991C18.0937 15.4679 17.5312 16.2179 16.4062 16.4054L16.5938 15.0929Z" fill="#E8BD89"/>
<path d="M15.375 12.375C15.375 12.375 16.5938 13.5938 16.5938 15.0938C16.5938 15.0938 16.7813 12.8438 15.5625 12.0938L15.375 12.375ZM16.9688 16.2187C16.9688 16.2187 16.5938 17.4375 17.5313 17.9063C17.5313 17.9063 17.0625 18 16.6875 17.625C16.3125 17.25 16.5938 16.3125 16.5938 16.3125L16.9688 16.2187Z" fill="#E8A554"/>
<path d="M10.2188 10.5933C10.2188 10.5933 13.125 9.28076 15.2812 9.84326C15.2812 9.84326 15.9375 10.4995 14.1563 10.7808C12.4688 11.062 12.5625 10.312 10.2188 10.5933ZM19.875 16.9683C19.875 16.9683 20.7188 18.6558 18.8438 19.7808C18.5625 19.9683 18.4688 20.1558 18.6563 20.437C18.8438 20.7183 19.3125 20.812 19.6875 20.5308C20.5313 19.687 21.6563 18.187 19.875 16.9683ZM19.2188 13.5933C19.2188 13.5933 20.0625 14.5308 19.2188 15.3745C19.2188 15.3745 19.125 15.7495 19.5 15.7495C19.7812 15.7495 20.25 15.562 20.25 15.2808C20.25 14.9995 20.5313 13.7808 19.2188 13.5933Z" fill="white"/>
<path d="M9.0938 25.0313C9.0938 25.0313 8.25005 24.5625 8.3438 23.1563C8.43755 21.8438 10.0313 21.375 10.0313 21.375C10.0313 21.375 8.25005 21.4688 7.68755 22.875C7.12505 24.375 8.06255 24.75 8.06255 24.75L9.0938 25.0313Z" fill="#8E4028"/>
<path d="M11.625 17.4362C11.625 17.4362 11.0625 17.4362 10.6875 17.1549C10.3125 16.8737 9.9375 16.9674 9.84375 16.9674C9.75 16.9674 9.65625 16.8737 9.5625 16.8737C9.375 16.8737 9.1875 16.7799 9.1875 16.8737C9.1875 16.9674 9.375 17.1549 9.375 17.1549V17.4362C9.375 17.5299 9.375 17.9049 9.75 17.9049C10.125 17.9987 10.5 17.9049 10.6875 17.8112C10.875 17.8112 11.625 17.4362 11.625 17.4362Z" fill="#C6638C"/>
</g>
<mask id="mask1_52_46625" style="mask-type:luminance" maskUnits="userSpaceOnUse" x="13" y="1" width="12" height="11">
<path d="M23.1562 10.5L13.4062 11.1562L14.625 2.90625L24.2812 1.96875L23.1562 10.5Z" fill="white"/>
</mask>
<g mask="url(#mask1_52_46625)">
<path d="M16.7817 2.34375C16.1254 2.53125 15.4692 2.90625 15.0942 3.46875C15.0004 3.65625 14.7192 3.9375 14.5317 4.21875C13.5942 5.15625 14.2504 6.75 15.9379 6.46875C17.6254 6.1875 18.6567 5.53125 19.2192 4.125V4.03125C19.6879 2.90625 18.6567 1.96875 17.2504 2.25L16.7817 2.34375ZM22.5005 1.78125C23.1567 1.78125 23.7192 2.0625 24.0005 2.625C24.0942 2.8125 24.2817 3 24.4692 3.28125C25.2192 4.125 24.0942 6 22.3129 6C20.5317 6 19.6879 5.53125 19.5004 4.125V4.03125C19.3129 2.90625 20.6254 1.78125 22.0317 1.78125H22.5005Z" fill="#A3704D"/>
<path d="M22.7812 6.65568C22.7812 6.18693 22.7813 3.37443 23.0625 1.87443H22.6875C21.375 1.78068 19.9687 1.78068 18.5625 2.06193C17.625 2.24943 16.5 2.53068 15.6563 3.09318C15.4688 4.40568 15.0937 6.37443 14.25 8.15568C14.25 8.15568 12.2812 11.6244 14.25 11.9057C16.2187 12.1869 22.5 12.0932 23.625 10.7807C24.5625 9.46818 22.7812 7.31193 22.7812 6.65568Z" fill="#A3704D"/>
<path d="M22.6872 1.8732C21.6559 1.77945 19.9684 1.59195 18.5622 1.77945C17.3434 1.8732 16.4997 2.15445 16.0309 2.4357C16.0309 3.27945 15.7497 5.71695 14.6247 7.96695C14.6247 7.96695 12.8434 11.0607 14.6247 11.2482C16.4059 11.5294 22.0309 11.3419 22.9684 10.2169C23.9059 9.09195 22.3122 7.1232 22.3122 6.65445C22.3122 6.1857 22.4059 2.90445 22.6872 1.8732Z" fill="#E8BD89"/>
<path d="M16.7811 2.62452C16.2186 2.71827 15.6561 3.09327 15.3748 3.56202C15.1873 3.74952 14.9998 3.93702 14.8123 4.21827C13.9686 5.06202 14.5311 6.46827 16.0311 6.18702C17.5311 5.90577 18.3748 5.43702 18.9373 4.12452V4.03077C19.3123 2.99952 18.4686 2.24952 17.2498 2.43702L16.7811 2.62452Z" fill="#E8AB82"/>
<path d="M16.687 2.81136C16.1245 2.90511 15.6558 3.28011 15.3745 3.65511C15.2808 3.84261 15.0933 4.03011 14.9058 4.21761C14.1558 4.96761 14.6245 6.18637 15.937 5.99887C17.2495 5.81136 17.9995 5.34261 18.4683 4.21761C18.8433 3.28011 18.0933 2.62386 16.9683 2.81136H16.687Z" fill="#FFD097"/>
<path d="M16.2187 4.8735C16.125 5.15475 15.8437 5.436 15.4687 5.436C15.1875 5.436 15 5.2485 15.0937 4.96725C15.1875 4.686 15.4687 4.40475 15.8437 4.40475C16.125 4.311 16.3125 4.4985 16.2187 4.8735Z" fill="#A3704D"/>
<path d="M15.656 4.96875C15.656 5.0625 15.5623 5.15625 15.4685 5.15625C15.3748 5.15625 15.281 5.0625 15.3748 4.96875C15.3748 4.875 15.4685 4.78125 15.5623 4.78125C15.656 4.78125 15.656 4.875 15.656 4.96875ZM22.4998 2.0625C23.0623 2.0625 23.6248 2.34375 23.8123 2.71875C23.906 2.90625 23.9998 3.09375 24.1873 3.28125C24.8435 4.03125 23.8123 5.625 22.3123 5.625C20.8123 5.625 20.0623 5.25 19.8748 4.03125C19.781 3.09375 20.906 2.0625 22.1248 2.0625H22.4998Z" fill="#E8AB82"/>
<path d="M22.4063 2.25C22.9688 2.25 23.3438 2.53125 23.5313 2.90625C23.6251 3.09375 23.7188 3.1875 23.9063 3.375C24.4688 4.03125 23.6251 5.4375 22.2188 5.4375C20.9063 5.4375 20.1563 5.0625 20.0626 4.03125C19.9688 3.1875 21.0001 2.25 22.0313 2.34375L22.4063 2.25Z" fill="#FFD097"/>
<path d="M22.4062 4.21761C22.4062 4.49886 22.6875 4.78011 22.9688 4.68636C23.3438 4.68636 23.5313 4.40511 23.5313 4.12386C23.5313 3.84261 23.25 3.56136 22.9688 3.65511C22.6875 3.65511 22.4062 3.93636 22.4062 4.21761Z" fill="#A3704D"/>
<path d="M13.406 10.3125C13.406 10.3125 14.906 10.0313 16.031 10.3125C17.156 10.5938 21.4685 10.125 23.6247 9.5625C23.6247 9.5625 24.0935 10.0312 23.7185 10.5C23.3435 10.9688 18.7497 13.2187 17.906 13.5C17.0622 13.7812 13.6872 12 13.4997 11.625C13.406 11.1562 13.1247 10.5 13.406 10.3125Z" fill="#5D8993"/>
<path d="M22.9688 4.3125C22.9688 4.40625 23.0625 4.5 23.1563 4.5C23.25 4.5 23.3437 4.40625 23.3437 4.3125C23.3437 4.21875 23.25 4.125 23.1563 4.125C23.0625 4.125 22.9688 4.21875 22.9688 4.3125Z" fill="#E8AB82"/>
<path d="M13.8751 10.0313C13.8751 10.0313 15.2814 9.75 16.3126 10.0313C17.3439 10.3125 21.2814 9.84375 23.2501 9.28125C23.2501 9.28125 23.7189 9.75 23.3439 10.125C22.9689 10.5 18.7501 12.6563 18.0001 12.9375C17.1564 13.2188 14.0626 11.625 13.9689 11.1562C13.8751 10.875 13.6876 10.2188 13.8751 10.0313Z" fill="#CBDEE4"/>
<path d="M20.3434 5.34375C20.3434 5.34375 21.5621 5.90625 22.5934 5.71875L22.6871 5.90625C22.6871 5.90625 21.4684 6.09375 20.3434 5.34375ZM17.5309 5.53125C17.5309 5.53125 16.1246 6.375 15.2809 6.28125L15.1871 6.5625C15.0934 6.46875 16.2184 6.5625 17.5309 5.53125Z" fill="#A3704D"/>
<path d="M14.6247 4.6875C14.6247 4.6875 14.4372 5.71875 15.9372 5.53125C17.4372 5.4375 18.656 4.125 18.656 4.125C18.656 4.125 18.281 5.71875 16.031 6C13.781 6.375 14.6247 4.6875 14.6247 4.6875ZM24.1872 3.75C24.1872 3.75 24.0935 4.78125 22.4997 4.96875C20.906 5.0625 20.0622 4.03125 20.0622 4.03125C20.0622 4.03125 20.0622 5.53125 22.3122 5.53125C24.5622 5.4375 24.1872 3.75 24.1872 3.75Z" fill="#E8BD89"/>
<path d="M18.75 8.15625C18.75 8.25 18.6562 8.34375 18.5625 8.34375C18.4687 8.34375 18.375 8.25 18.375 8.15625C18.375 8.0625 18.4687 7.96875 18.5625 7.96875C18.75 7.96875 18.75 8.0625 18.75 8.15625Z" fill="#A3704D"/>
<path d="M13.5938 10.4063C13.5938 10.4063 14.0625 10.125 14.4375 10.125C14.9062 10.125 17.25 10.5938 19.125 10.2188L23.4375 9.46875L23.25 9.28125L18.375 10.0313C16.6875 10.125 14.9062 9.5625 13.5938 10.2188V10.4063Z" fill="#5D8993"/>
<path d="M20.625 10.3111C20.0625 10.4986 18.75 10.6861 18.2812 10.7798C17.9062 11.3423 17.5312 11.9986 17.4375 12.6548C17.625 12.7486 17.8125 12.7486 17.8125 12.8423C18.2812 12.9361 20.8125 11.5298 21.75 10.9673C22.7813 10.3111 21.2812 10.1236 20.625 10.3111Z" fill="#D5EAEF"/>
<path d="M21.1875 9.84375C21.1875 9.84375 21.0938 10.4062 20.7188 10.9687C20.3438 11.5312 20.1562 12 20.1562 12C20.1562 12 21.2812 11.1562 21.4687 11.1562C21.6562 11.0625 23.5312 10.5937 22.875 10.2187C22.125 9.9375 21.1875 9.84375 21.1875 9.84375Z" fill="#CBDEE4"/>
<path opacity="0.4" d="M19.9687 12.1866C20.0625 12.0929 20.5313 11.6241 20.7188 11.2491C20.9063 10.8741 21.1875 10.5929 21.5625 10.7804C21.8438 10.9679 21.8437 11.4366 21.8437 11.4366L19.9687 12.1866ZM17.8125 13.3116C17.7188 13.2179 17.4375 12.7491 17.3438 12.3741C17.25 11.9991 17.0625 11.8116 16.6875 11.9991C16.3125 12.1866 16.3125 12.6554 16.3125 12.6554L17.8125 13.3116Z" fill="#5D8993"/>
<path d="M19.0306 11.249C19.0306 11.249 19.1244 10.7803 19.4056 10.6865C19.6869 10.5928 20.4369 10.2178 20.5306 10.4053C20.6244 10.5928 20.9994 10.874 20.5306 11.0615C20.0619 11.249 20.1556 11.7178 19.7806 11.8115C19.3119 11.8115 18.8431 11.5303 19.0306 11.249Z" fill="#EEFDFF"/>
<path d="M15.75 2.90528C15.75 2.90528 16.7812 2.34278 17.3437 2.15528C17.9062 2.06153 21.5625 1.78028 22.875 1.96778V1.78028C22.875 1.78028 19.5937 1.21778 17.625 1.68653C15.6562 2.15528 15.6562 2.62403 15.6562 2.62403L15.75 2.90528Z" fill="#A3704D"/>
</g>
<path d="M18.4688 4.125L8.71875 5.0625L9.09375 2.625L18.75 1.59375L18.4688 4.125ZM24.2812 11.9063C24.5625 9.9375 22.3125 8.71875 19.5937 9.28125L16.875 9.75C14.7188 10.125 12.9375 11.7188 12.75 13.3125C12.5625 14.8125 14.0625 16.0313 16.125 15.9375L18.75 15.75C18.75 16.125 18.2812 16.875 17.7187 17.625C17.625 17.7188 17.7188 17.8125 17.9062 17.8125C18.8438 17.5312 20.8125 16.6875 21.6562 15C23.1562 14.25 24.0937 13.125 24.2812 11.9063Z" fill="#4C6980"/>
<path d="M23.8127 11.9054C24.0002 10.1242 22.0314 8.99917 19.5002 9.46792L17.0627 9.93667C15.0939 10.3117 13.4064 11.7179 13.3127 13.2179C13.1252 14.6242 14.5314 15.7492 16.4064 15.6554L18.8439 15.5617H19.3127C19.3127 15.9367 19.2189 16.4054 18.8439 16.9679C18.7502 17.0617 18.8439 17.1554 19.0314 17.1554C19.6877 16.7804 20.9064 16.1242 21.5627 14.9054C22.7814 14.0617 23.7189 13.0304 23.8127 11.9054Z" fill="white"/>
<path d="M14.3438 14.25L14.4375 13.875C14.25 13.875 14.1562 13.875 13.9688 13.7812L14.0625 13.3125C14.1563 13.4062 14.3437 13.4062 14.4375 13.4062C14.5312 13.4062 14.5313 13.4062 14.625 13.3125C14.7188 13.3125 14.7188 13.2188 14.7188 13.2188C14.7188 13.125 14.7188 13.125 14.625 13.125C14.5313 13.125 14.5312 13.0312 14.4375 13.0312C14.3437 13.0312 14.3438 12.9375 14.25 12.8437V12.4687C14.25 12.2812 14.3437 12.1875 14.4375 12.0937C14.5312 12 14.7188 11.9062 14.8125 11.8125L14.9062 11.4375L15.1875 11.3438L15.0938 11.7187H15.4688L15.375 12.1875C15.2812 12.1875 15.0938 12.0937 15 12.1875C14.9063 12.1875 14.9063 12.1875 14.8125 12.2812C14.8125 12.2812 14.7188 12.375 14.7188 12.4687C14.7188 12.5625 14.7188 12.5625 14.8125 12.5625C14.9063 12.5625 15 12.5625 15.0938 12.6562C15.1875 12.6562 15.2812 12.75 15.2812 12.75C15.375 12.8438 15.375 12.9375 15.2812 13.125C15.2812 13.2187 15.1875 13.3125 15.0938 13.4062L14.8125 13.6875C14.7188 13.7812 14.625 13.7812 14.5313 13.7812L14.4375 14.1562L14.3438 14.25ZM16.5938 11.625L16.9688 11.5312L16.7812 12.0937H16.9688L17.1562 11.5312L17.5313 11.4375L17.3438 12.0937H17.5313L17.4375 12.5625H17.1562L17.0625 12.8437H17.25L17.1562 13.3125H16.875L16.6875 13.9687H16.3125L16.5 13.4062H16.3125L16.125 13.9687H15.75L15.9375 13.4062H15.75L15.8437 13.0312H16.0313L16.125 12.75H15.9375L16.0313 12.375H16.2187L16.5938 11.625ZM16.7812 12.4687H16.5938L16.5 12.75H16.6875L16.7812 12.4687Z" fill="#4C6980"/>
<path d="M19.9687 13.0312H20.4375C20.3437 13.125 20.25 13.2188 20.0625 13.3125C19.9687 13.4062 19.875 13.5 19.6875 13.5C19.5938 13.5937 19.4063 13.5938 19.3125 13.5938C19.2188 13.5938 19.0313 13.6875 18.9375 13.6875C18.75 13.6875 18.5625 13.6875 18.375 13.5938C18.1875 13.5 18.0938 13.4062 18 13.3125C17.9063 13.2188 17.8125 13.0313 17.8125 12.9375V12.4688C17.8125 12.2813 17.9063 12.0937 18 11.9062C18.0938 11.7187 18.1875 11.625 18.375 11.4375C18.5625 11.3437 18.6563 11.1563 18.8438 11.0625C19.0313 10.9688 19.2188 10.875 19.4063 10.875H19.9687C20.1562 10.875 20.25 10.9688 20.3438 11.0625C20.4375 11.1563 20.5312 11.25 20.5312 11.4375V11.9062C20.5312 12.0937 20.4375 12.2812 20.25 12.375C20.1563 12.5625 19.9688 12.6563 19.875 12.75C19.6875 12.8438 19.5937 12.9375 19.5 12.9375C19.4062 13.0313 19.2188 13.0312 19.2188 13.0312C19.125 13.0312 19.0312 13.0312 19.0312 12.8438C18.9375 12.9375 18.75 13.0312 18.5625 13.0312C18.4687 13.0312 18.375 13.0313 18.2812 12.9375L18.0937 12.75V12.4688C18.0937 12.375 18.1875 12.2813 18.1875 12.1875C18.2812 12.0938 18.2813 12 18.375 11.9062C18.4688 11.8125 18.5625 11.7188 18.6562 11.7188C18.75 11.625 18.8438 11.625 18.9375 11.625C19.125 11.625 19.3125 11.625 19.3125 11.8125L19.4063 11.625L19.7813 11.5313L19.4063 12.4688C19.4063 12.5625 19.4063 12.5625 19.3125 12.6563C19.3125 12.75 19.3125 12.75 19.4063 12.75C19.5 12.75 19.5938 12.6562 19.6875 12.5625C19.7812 12.4687 19.875 12.2812 19.875 12.0937V11.7188C19.7813 11.625 19.6875 11.5313 19.5937 11.5313H19.125C18.9375 11.5313 18.8437 11.625 18.6562 11.625C18.5625 11.7187 18.375 11.8125 18.2812 11.9062C18.1875 12 18.0938 12.0938 18 12.2813C17.9063 12.375 17.9062 12.5625 17.8125 12.6563V13.125C17.9062 13.2188 17.9062 13.3125 18.0937 13.4063C18.1875 13.5 18.375 13.5 18.5625 13.5C18.75 13.5 18.9375 13.5 19.0312 13.4063C19.6875 13.125 19.875 13.125 19.9687 13.0312ZM19.2188 12.6563C19.3125 12.6563 19.4062 12.6562 19.5 12.5625C19.5937 12.4687 19.5937 12.4688 19.5937 12.375V12.1875C19.5937 12.1875 19.5 12.0938 19.4063 12.1875C19.3125 12.1875 19.2188 12.2813 19.2188 12.2813C19.125 12.375 19.125 12.375 19.125 12.4688V12.6563C19.0312 12.6563 19.125 12.6563 19.2188 12.6563ZM21.75 10.5938L23.0625 10.3125L22.5 12.375L21.5625 12.4688L21.75 10.5938ZM21.375 12.75L22.4062 12.6563L22.2188 13.5L21.1875 13.5938L21.375 12.75Z" fill="#4C6980"/>
<path d="M17.9063 3.84375L9.28125 4.6875L9.5625 2.90625L18.1875 1.96875L17.9063 3.84375Z" fill="#FFEFAB"/>
<mask id="mask2_52_46625" style="mask-type:luminance" maskUnits="userSpaceOnUse" x="4" y="3" width="10" height="9">
<path d="M12.2813 11.1562L4.78125 11.625L6.1875 3.75L13.5938 3L12.2813 11.1562Z" fill="white"/>
</mask>
<g mask="url(#mask2_52_46625)">
<path d="M12.8435 10.8754C14.906 8.43788 12.7497 7.59413 12.7497 7.59413C12.7497 7.59413 11.6247 6.93788 10.1247 7.50038C10.2185 6.28163 9.18722 5.71913 9.18722 5.71913C9.18722 5.71913 7.49972 4.59413 5.34347 6.75038C3.18722 9.00038 5.15597 12.7504 5.15597 13.0316C5.53097 13.0316 10.781 13.3129 12.8435 10.8754Z" fill="#4F1919"/>
<path d="M13.0308 10.5941C14.812 8.53163 12.937 7.31288 12.937 7.31288C12.937 7.31288 11.9058 6.56288 10.312 7.03163C10.4058 5.81288 9.37452 5.25038 9.37452 5.25038C9.37452 5.25038 7.68702 4.12538 5.62452 6.28163C3.46827 8.53163 5.43702 12.2816 5.53077 12.5629C5.81202 12.5629 10.9683 13.0316 13.0308 10.5941Z" fill="#960F0F"/>
<path d="M12.6561 10.2187C13.4998 9.1875 13.4998 8.53125 13.2186 8.0625C12.9373 7.6875 12.4686 7.40625 11.9061 7.3125C11.4373 7.3125 10.6873 7.3125 9.93733 7.5C9.93733 6.9375 9.74983 6.46875 9.56233 6.1875C9.18733 5.71875 8.62483 5.4375 7.96858 5.4375C7.40608 5.53125 6.65608 5.8125 5.81233 6.5625C3.93733 8.4375 5.81233 11.7188 5.90608 12C6.28108 12 10.8748 12.375 12.6561 10.2187Z" fill="#DD4545"/>
<path d="M11.3433 9.5625C11.9995 8.8125 11.9058 8.34375 11.7183 7.96875C11.5308 7.6875 11.1558 7.5 10.7808 7.40625C10.4058 7.40625 9.93701 7.40625 9.37451 7.5C9.37451 7.125 9.18701 6.75 8.99951 6.5625C8.81201 6.1875 8.43701 6 7.87451 6C7.40576 6 6.93701 6.1875 6.28076 6.84375C4.87451 8.25 6.28076 10.6875 6.37451 10.875C6.65576 10.875 10.0308 11.0625 11.3433 9.5625Z" fill="#F96464"/>
<path d="M9.28068 11.0627C8.81193 10.969 8.53068 10.7815 8.43693 10.5002C8.34318 10.219 8.34318 9.84396 8.62443 9.46896C9.28068 8.43771 11.9994 6.65646 12.7494 8.43771C13.4994 10.1252 10.4057 11.1565 9.28068 11.0627Z" fill="#FFB3B3"/>
<path d="M5.25 12.1875C5.25 12.1875 8.90625 12.9375 12.2813 11.1562C12.2813 11.1562 10.2188 12.9375 5.4375 12.6563L5.25 12.1875Z" fill="#DD4545"/>
<path d="M11.5312 9.18748C11.4375 9.18748 11.3438 9.09373 11.3438 9.09373C11.3438 8.99998 11.3437 8.90623 11.4375 8.81248C11.625 8.53123 12.2812 8.06248 12.4687 8.53123C12.5625 8.99998 11.8125 9.28123 11.5312 9.18748Z" fill="white"/>
<path d="M8.15557 7.2198L7.59307 7.50105C7.49932 7.50105 7.31182 7.50105 7.12432 7.4073C6.74932 7.2198 6.56182 6.37605 7.68682 6.18855C8.81182 5.9073 8.53057 6.8448 8.15557 7.2198Z" fill="#FFB3B3"/>
<path opacity="0.28" d="M4.59355 8.25C4.59355 8.25 5.15605 13.3125 11.4373 11.8125C11.4373 11.8125 8.34355 12.8438 5.53105 12.9375C5.53105 12.9375 3.65605 10.3125 4.59355 8.25Z" fill="#4F1919"/>
</g>
<path d="M8.43769 13.125L4.96894 13.3125C4.40644 13.3125 4.12519 12.9375 4.21894 12.4688L4.40644 11.4375C4.50019 10.9687 4.96894 10.5937 5.53144 10.5L8.90644 10.3125C9.46894 10.3125 9.84394 10.5937 9.75019 11.1562L9.56269 12.1875C9.46894 12.6562 9.00019 13.125 8.43769 13.125Z" fill="white" stroke="#608191" stroke-width="0.563344" stroke-miterlimit="10"/>
<path d="M16.9687 27.5625L16.5938 27.9375L18.1875 29.0625L27.1875 20.1562L25.6875 18.2812L16.9687 27.5625Z" fill="#9A4C18"/>
<path d="M27.3751 22.6882C27.0939 26.2507 23.8126 29.2507 20.1564 29.2507C16.5001 29.2507 14.2501 26.2507 14.9064 22.7819C15.5626 19.5007 18.6564 16.9694 21.9376 16.9694C25.1251 16.8757 27.6564 19.3132 27.3751 22.6882Z" fill="#9A4C18"/>
<path d="M28.3128 23.8132C27.9378 27.1882 24.7503 30.0007 21.1878 30.0007C17.6253 30.0007 15.3753 27.0944 16.0315 23.8132C16.6878 20.7194 19.6878 18.2819 22.8753 18.2819C26.1565 18.1882 28.5003 20.6257 28.3128 23.8132Z" fill="#9A4C18"/>
<path d="M17.9062 27.75L19.5 28.5938L26.8125 20.9062L25.5937 19.3125L17.9062 27.75Z" fill="#F49937"/>
<path d="M27.5629 23.8115C27.2816 26.7178 24.6566 29.1553 21.6566 29.1553C18.7504 29.1553 16.7816 26.7178 17.3441 23.9053C17.8129 21.1865 20.4379 19.124 23.0629 19.0303C25.7816 18.9365 27.8441 21.0928 27.5629 23.8115Z" fill="#F49937"/>
<path d="M26.6249 22.5937C26.3437 25.6875 23.4374 28.3125 20.2499 28.3125C17.0624 28.3125 15.0937 25.6875 15.6562 22.6875C16.2187 19.7812 18.9374 17.625 21.8437 17.5312C24.6562 17.5312 26.8124 19.6875 26.6249 22.5937Z" fill="#FFEDC0"/>
<path d="M26.1566 22.874C25.8754 25.7803 23.2504 28.2178 20.2504 28.2178C17.3441 28.2178 15.3754 25.7803 15.9379 22.9678C16.4066 20.249 19.0316 18.1865 21.6566 18.0928C24.3754 17.999 26.4379 20.1553 26.1566 22.874Z" fill="#FFD766"/>
<path d="M25.0311 22.8748C24.7498 25.1248 22.6873 26.9998 20.4373 26.9061C18.1873 26.9061 16.6873 25.0311 17.0623 22.8748C17.4373 20.8123 19.4061 19.1248 21.5623 19.1248C23.7186 19.0311 25.2186 20.7186 25.0311 22.8748Z" fill="#FFEDC0"/>
<path d="M25.1248 22.3125C24.9373 24.4688 22.8748 26.3438 20.5311 26.3438C18.2811 26.3438 16.7811 24.4688 17.1561 22.3125C17.5311 20.25 19.4998 18.5625 21.6561 18.5625C23.7186 18.5625 25.3123 20.1562 25.1248 22.3125Z" fill="#F49937"/>
<path d="M24.3747 22.875C24.1872 24.75 22.4059 26.3438 20.5309 26.25C18.6559 26.25 17.3434 24.6562 17.7184 22.875C17.9997 21.0937 19.6872 19.6875 21.5622 19.6875C23.2497 19.6875 24.5622 21.0937 24.3747 22.875Z" fill="#FFD766"/>
<path d="M22.0313 19.3125L22.5 21.375L24.75 21.9375L22.6875 23.3437L22.5 25.6875L20.7188 24.2812L18.2813 25.125L19.3125 22.9687L18.0938 21.1875L20.4375 21.0937L22.0313 19.3125Z" fill="#F49937"/>
</g>
<defs>
<clipPath id="clip0_52_46625">
<rect width="30" height="30" fill="white"/>
</clipPath>
</defs>
</svg>
