<svg width="64" height="64" viewBox="0 0 64 64" fill="none" xmlns="http://www.w3.org/2000/svg">
<path d="M40.3476 37.4476C40.3385 37.2488 40.2728 37.0567 40.1582 36.894C40.0435 36.7313 39.8848 36.6048 39.7006 36.5294C38.9113 36.1964 38.0633 36.0249 37.2067 36.0249C36.3501 36.0249 35.5021 36.1964 34.7128 36.5294C34.0998 36.8003 33.5357 37.1705 33.0432 37.625V34.6094C34.7476 34.5681 36.3806 33.9164 37.645 32.7728C38.8883 31.5775 39.7567 30.0459 40.144 28.3652C40.5313 26.6845 40.4207 24.9274 39.8258 23.3085C39.7705 23.1358 39.6712 22.9805 39.5376 22.858C39.404 22.7354 39.2409 22.6496 39.0641 22.6094C38.8032 22.6094 38.5319 22.5154 38.2606 22.4841V18.4354C38.2609 18.1675 38.1582 17.9097 37.9737 17.7154C37.7891 17.5212 37.5369 17.4053 37.2693 17.392C34.9694 17.2593 32.6773 17.7611 30.6432 18.8424C29.3822 18.5233 28.0821 18.3863 26.7823 18.4354C26.5056 18.4354 26.2402 18.5454 26.0445 18.7411C25.8488 18.9368 25.7389 19.2022 25.7389 19.4789V22.5154C25.478 22.6094 25.2067 22.6094 24.9458 22.6094C24.7714 22.6478 24.6098 22.7303 24.4764 22.849C24.343 22.9678 24.2424 23.1188 24.1841 23.2876C23.5768 24.9106 23.4649 26.6773 23.8624 28.364C24.2599 30.0506 25.149 31.5814 26.4171 32.7624C27.6738 33.8786 29.2769 34.5272 30.9562 34.5989V37.6354C30.466 37.1753 29.9015 36.8014 29.2867 36.5294C28.4955 36.1967 27.6458 36.0254 26.7876 36.0254C25.9293 36.0254 25.0796 36.1967 24.2884 36.5294C24.1062 36.6063 23.9496 36.7335 23.8369 36.8961C23.7242 37.0587 23.66 37.2499 23.6519 37.4476C23.6287 38.4382 23.8486 39.4194 24.2925 40.3054C24.7364 41.1912 25.3906 41.9549 26.198 42.5293C27.1265 43.1445 28.2147 43.4746 29.3284 43.4789C29.8786 43.4824 30.4265 43.4087 30.9562 43.2598V45.5659C30.9562 45.8426 31.0662 46.108 31.2619 46.3037C31.4576 46.4994 31.723 46.6094 31.9997 46.6094C32.2765 46.6094 32.5419 46.4994 32.7376 46.3037C32.9333 46.108 33.0432 45.8426 33.0432 45.5659V43.2598C33.5594 43.4048 34.0931 43.4786 34.6293 43.4789C35.7433 43.4764 36.8321 43.1462 37.7597 42.5293C38.5702 41.9551 39.2292 41.1926 39.6799 40.3074C40.1307 39.4222 40.3598 38.4408 40.3476 37.4476ZM27.3563 40.7972C26.9379 40.5019 26.5836 40.125 26.3146 39.6892C26.0456 39.2535 25.8675 38.7679 25.7911 38.2615C26.6787 38.0488 27.6111 38.1256 28.4519 38.4806C29.0043 38.7394 29.4967 39.1107 29.8973 39.5707C30.298 40.0307 30.5983 40.5693 30.7789 41.1519C30.2219 41.3724 29.6199 41.4552 29.0241 41.3934C28.4283 41.3316 27.8562 41.1271 27.3563 40.7972ZM36.2467 31.2285C35.9082 31.5314 35.5331 31.7908 35.1302 32.0007C35.3517 29.9802 34.8966 27.9434 33.8362 26.2093C33.7528 26.0737 33.638 25.9485 33.5441 25.8128C34.1759 25.3067 34.9043 24.9346 35.6847 24.7193C36.4651 24.504 37.2812 24.4501 38.0832 24.5606C38.3989 25.7349 38.3951 26.9722 38.0722 28.1445C37.7493 29.3167 37.1191 30.3815 36.2467 31.2285ZM36.1736 19.4789V22.1294C36.1317 22.0375 36.0753 21.953 36.0067 21.8789C35.6031 21.4693 35.1707 21.0892 34.7128 20.7415C34.3018 20.4445 33.8732 20.1727 33.4293 19.9276C34.3206 19.6589 35.2432 19.508 36.1736 19.4789ZM33.4606 22.4215C33.7116 22.6094 33.9488 22.8152 34.1702 23.0372C33.4138 23.3393 32.7096 23.7584 32.0832 24.2789C30.8588 23.2995 29.3833 22.6848 27.8258 22.505V20.5224C29.8533 20.5686 31.8187 21.231 33.4606 22.4215ZM25.9788 24.5711C26.9394 24.4445 27.9162 24.5427 28.8324 24.8578C29.7487 25.1728 30.5793 25.6962 31.2589 26.3867L31.3424 26.512H31.4258C31.6448 26.7627 31.847 27.0276 32.0311 27.305C32.9118 28.7858 33.2407 30.5303 32.9597 32.2302C32.0752 32.5315 31.1269 32.5937 30.2106 32.4105C29.2944 32.2273 28.4429 31.805 27.7423 31.1867C26.8787 30.3458 26.2588 29.2868 25.9483 28.1221C25.6378 26.9573 25.6484 25.7303 25.9788 24.5711ZM36.6328 40.7972C36.1306 41.1228 35.5571 41.3223 34.9611 41.3787C34.3652 41.435 33.7645 41.3464 33.2102 41.1207C33.3931 40.5376 33.6954 39.9989 34.0978 39.539C34.5002 39.0792 34.9939 38.708 35.5476 38.4494C36.388 38.1041 37.3172 38.0383 38.198 38.2615C38.1215 38.7679 37.9434 39.2535 37.6744 39.6892C37.4054 40.125 37.0511 40.5019 36.6328 40.7972Z" fill="#213A52"/>
</svg>
