<svg width="27" height="19" viewBox="0 0 27 19" fill="none" xmlns="http://www.w3.org/2000/svg">
<path d="M23.5 0H3.5C2.57206 0.000755264 1.68241 0.272532 1.02626 0.755703C0.370104 1.23887 0.00102566 1.89398 0 2.57728V12.8864C0.00102566 13.5697 0.370104 14.2248 1.02626 14.708C1.68241 15.1912 2.57206 15.4629 3.5 15.4637H23.5C24.4279 15.4629 25.3176 15.1912 25.9737 14.708C26.6299 14.2248 26.999 13.5697 27 12.8864V2.57728C26.999 1.89398 26.6299 1.23887 25.9737 0.755703C25.3176 0.272532 24.4279 0.000755264 23.5 0ZM24 12.8864C23.9999 12.984 23.9471 13.0776 23.8534 13.1467C23.7597 13.2157 23.6326 13.2545 23.5 13.2546H3.5C3.36743 13.2545 3.24033 13.2157 3.14659 13.1467C3.05285 13.0776 3.00013 12.984 3 12.8864V2.57728C3.00013 2.47966 3.05285 2.38607 3.14659 2.31705C3.24033 2.24802 3.36743 2.2092 3.5 2.2091H23.5C23.6326 2.2092 23.7597 2.24802 23.8534 2.31705C23.9471 2.38607 23.9999 2.47966 24 2.57728V12.8864ZM19 17.6728C19 17.9657 18.842 18.2467 18.5607 18.4538C18.2794 18.661 17.8978 18.7773 17.5 18.7773H9.5C9.10218 18.7773 8.72064 18.661 8.43934 18.4538C8.15804 18.2467 8 17.9657 8 17.6728C8 17.3799 8.15804 17.0989 8.43934 16.8918C8.72064 16.6846 9.10218 16.5682 9.5 16.5682H17.5C17.8978 16.5682 18.2794 16.6846 18.5607 16.8918C18.842 17.0989 19 17.3799 19 17.6728Z" fill="#B0B6C4"/>
</svg>
