<svg width="30" height="30" viewBox="0 0 30 30" fill="none" xmlns="http://www.w3.org/2000/svg">
<path d="M29.3132 14.9939H28.4885V3.9984C28.4885 1.79014 26.6984 0 24.4901 0H22.9908C22.7147 0 22.491 0.223738 22.491 0.499779V3.04875C21.3273 3.28631 20.4916 4.31006 20.4918 5.49774C20.4918 5.77378 20.7155 5.99752 20.9916 5.99752H24.99C25.266 5.99752 25.4898 5.77378 25.4898 5.49774C25.49 4.31006 24.6543 3.28625 23.4906 3.04875V0.999616H24.4902C26.1464 0.999616 27.489 2.34222 27.489 3.9984V14.9939H0.674728C0.302105 14.9939 0 15.296 0 15.6687V16.3184C0 16.691 0.302105 16.9931 0.674728 16.9931H29.3132C29.6858 16.9931 29.9879 16.691 29.9879 16.3184V15.6687C29.9879 15.296 29.6858 14.9939 29.3132 14.9939Z" fill="#899494"/>
<path d="M28.2133 17.9927H1.77402C1.63322 17.9925 1.51901 18.1066 1.51895 18.2474C1.51895 18.2508 1.51901 18.2542 1.51913 18.2576C1.71405 21.8161 3.25842 25.4997 5.51747 26.6342C4.7628 27.4401 4.80444 28.7053 5.61036 29.4599C6.41635 30.2146 7.68146 30.173 8.43614 29.367C9.04146 28.7206 9.14929 27.7529 8.70117 26.989H21.2711C20.9786 27.4772 20.9146 28.069 21.0961 28.6084C21.4482 29.6548 22.582 30.2177 23.6285 29.8655C24.675 29.5134 25.2378 28.3796 24.8857 27.3331C24.7951 27.0639 24.6482 26.8171 24.4548 26.6091C26.7289 25.4746 28.2732 21.7911 28.4532 18.2325C28.4458 18.1032 28.3426 18 28.2133 17.9927Z" fill="#899494"/>
</svg>
