<svg width="162" height="50" viewBox="0 0 162 50" fill="none" xmlns="http://www.w3.org/2000/svg">
<rect width="50" height="50" rx="10" fill="#EFF5F5"/>
<path d="M150.75 11.9518C152.313 11.9518 153.812 11.5314 154.917 10.7831C156.022 10.0349 156.643 9.01996 156.643 7.96166V5.33338C156.626 4.28268 155.998 3.27894 154.894 2.54004C153.791 1.80115 152.302 1.38672 150.75 1.38672C149.199 1.38672 147.709 1.80115 146.606 2.54004C145.503 3.27894 144.875 4.28268 144.857 5.33338V7.96166C144.857 9.01991 145.478 10.0348 146.583 10.7831C147.688 11.5314 149.187 11.9518 150.75 11.9518Z" fill="#1B8271"/>
<path d="M162 8.15299C162 7.86727 161.851 7.59325 161.585 7.39122C161.32 7.18919 160.959 7.07568 160.584 7.07568C160.208 7.07568 159.848 7.18919 159.582 7.39122C159.317 7.59325 159.168 7.86727 159.168 8.15299C159.148 9.84122 158.252 11.4551 156.676 12.6436C155.099 13.832 152.969 14.4988 150.75 14.4988C148.531 14.4988 146.401 13.832 144.824 12.6436C143.248 11.4551 142.352 9.84122 142.332 8.15299C142.332 7.86727 142.183 7.59325 141.918 7.39122C141.652 7.18919 141.292 7.07568 140.916 7.07568C140.541 7.07568 140.18 7.18919 139.915 7.39122C139.649 7.59325 139.5 7.86727 139.5 8.15299C139.5 12.5057 143.798 16.1027 149.333 16.6349V19.0016C149.333 19.2873 149.483 19.5613 149.748 19.7633C150.014 19.9654 150.374 20.0789 150.75 20.0789C151.125 20.0789 151.485 19.9654 151.751 19.7633C152.017 19.5613 152.166 19.2873 152.166 19.0016V16.6354C157.702 16.1027 162 12.5051 162 8.15299Z" fill="#1B8271"/>
</svg>
