<svg width="18" height="20" viewBox="0 0 18 20" fill="none" xmlns="http://www.w3.org/2000/svg">
<path d="M9.84319 18.3577L9.8365 18.3617L9.82993 18.3659L8.42003 19.2723C7.41791 19.8849 6.06204 19.1725 6.06204 17.9826V12.6283C6.06204 12.1884 5.93892 11.7181 5.77335 11.3041C5.60668 10.8875 5.38131 10.4889 5.14314 10.1912L5.12896 10.1734L5.11324 10.157L4.64052 9.6642C4.48 9.49192 4.45623 9.24158 4.57791 9.05177L4.57794 9.05179L4.58141 9.04623L9.75394 0.741885L9.75436 0.741209C9.84384 0.597046 10.0046 0.50513 10.1839 0.50513H15.3564C16.1887 0.50513 16.8718 1.18821 16.8718 2.02052V4.24309C16.8718 4.55188 16.7724 4.93339 16.6014 5.30952C16.4339 5.67793 16.2176 5.9979 16.0198 6.19918L11.6932 10.0226C11.3143 10.3406 11.0223 10.7919 10.8251 11.2565C10.626 11.7259 10.5072 12.2475 10.5072 12.7293V17.0734C10.5072 17.276 10.4358 17.5496 10.299 17.8127C10.1605 18.079 9.98868 18.2704 9.84319 18.3577Z" fill="white" stroke="white"/>
<path d="M3.00522 7.02847C2.83748 7.29982 2.44298 7.34504 2.2143 7.10708C2.21408 7.10685 2.21386 7.10662 2.21364 7.10639L1.27564 6.11796L1.27577 6.11784L1.26642 6.10849C1.06733 5.9094 0.871698 5.61139 0.726129 5.28666C0.578606 4.95757 0.50513 4.65175 0.50513 4.44515V2.12155C0.50513 1.17193 1.20421 0.50513 2.02052 0.50513H6.16259C6.55124 0.50513 6.8001 0.93689 6.59141 1.28047L3.00632 7.0267L3.00632 7.0267L3.00522 7.02847Z" fill="white" stroke="white"/>
</svg>
