<svg width="18" height="20" viewBox="0 0 18 20" fill="none" xmlns="http://www.w3.org/2000/svg">
<path d="M11.0597 0H6.35973C5.31973 0 4.46973 0.84 4.46973 1.88V2.82C4.46973 3.86 5.30973 4.7 6.34973 4.7H11.0597C12.0997 4.7 12.9397 3.86 12.9397 2.82V1.88C12.9497 0.84 12.0997 0 11.0597 0Z" fill="white"/>
<path d="M13.95 2.82047C13.95 4.41047 12.65 5.71047 11.06 5.71047H6.36C4.77 5.71047 3.47 4.41047 3.47 2.82047C3.47 2.26047 2.87 1.91047 2.37 2.17047C0.96 2.92047 0 4.41047 0 6.12047V15.5305C0 17.9905 2.01 20.0005 4.47 20.0005H12.95C15.41 20.0005 17.42 17.9905 17.42 15.5305V6.12047C17.42 4.41047 16.46 2.92047 15.05 2.17047C14.55 1.91047 13.95 2.26047 13.95 2.82047ZM9.09 14.9505H4.71C4.3 14.9505 3.96 14.6105 3.96 14.2005C3.96 13.7905 4.3 13.4505 4.71 13.4505H9.09C9.5 13.4505 9.84 13.7905 9.84 14.2005C9.84 14.6105 9.5 14.9505 9.09 14.9505ZM11.71 10.9505H4.71C4.3 10.9505 3.96 10.6105 3.96 10.2005C3.96 9.79047 4.3 9.45047 4.71 9.45047H11.71C12.12 9.45047 12.46 9.79047 12.46 10.2005C12.46 10.6105 12.12 10.9505 11.71 10.9505Z" fill="white"/>
</svg>
