<svg width="30" height="30" viewBox="0 0 30 30" fill="none" xmlns="http://www.w3.org/2000/svg">
<g clip-path="url(#clip0_52_79079)">
<path d="M23.7656 21.7773L23.4375 24.8242C23.4375 24.8242 20.3906 25.5273 20.0813 25.5273C19.7719 25.5273 16.1719 23.7273 16.1719 23.7273L18.5906 20.1367L19.8469 19.4336L23.7656 21.7773Z" fill="#2F4D0D"/>
<path d="M27.722 8.43839C24.1263 9.23815 20.4227 9.43457 16.7626 9.01964L16.8188 8.81339C15.7404 8.35345 14.5788 8.12049 13.4063 8.12902L13.0501 8.20402H12.9376L12.872 8.12902L12.7688 8.08214H12.1782C10.8845 8.03527 9.53447 7.95089 8.63447 7.14464C8.52577 7.05942 8.45504 6.93479 8.4376 6.79777C6.43856 5.90561 4.63292 4.63179 3.12197 3.04777C2.72822 2.61652 1.96885 2.81339 1.55635 3.46964L0.618849 4.40714C0.309474 4.90402 0.187599 4.84777 0.553224 6.61027C0.834474 8.75714 2.42822 20.279 4.14385 24.4696C4.11221 24.684 4.14109 24.9029 4.22723 25.1016C4.31336 25.3004 4.45334 25.4712 4.63135 25.5946C5.74697 26.2884 8.01572 27.6571 9.42197 28.3134C9.59645 28.3947 9.79171 28.4203 9.98123 28.3867C10.1708 28.3532 10.3454 28.2621 10.4813 28.1259V28.2759C14.6813 26.5884 25.8282 16.0884 28.5751 13.4165C28.9475 13.3327 29.281 13.1264 29.5223 12.8307C29.7637 12.535 29.8989 12.1669 29.9063 11.7853C29.9063 11.1946 29.9063 10.5196 29.8407 9.91027C29.821 9.66432 29.7469 9.42582 29.6239 9.21193C29.5009 8.99804 29.332 8.81408 29.1294 8.67331C28.9268 8.53254 28.6954 8.43846 28.4521 8.39784C28.2087 8.35722 27.9593 8.37107 27.722 8.43839Z" fill="#823A61"/>
<path d="M27.703 9.07436C24.1659 9.80731 20.5304 9.93727 16.9499 9.45874L17.0062 9.25249C15.9472 8.7767 14.8014 8.52456 13.6405 8.51186L13.2843 8.57749H13.1905L13.1249 8.53061H13.0312H12.4405C11.1764 8.58717 9.93336 8.19167 8.9343 7.41499C8.88315 7.37181 8.84107 7.31893 8.8105 7.25939C8.77992 7.19985 8.76146 7.13483 8.75617 7.06811C6.77049 6.13413 4.97712 4.8368 3.46867 3.24311C3.05617 2.78374 2.31555 2.96186 1.9218 3.60874L0.984297 4.54624C0.712422 5.03374 0.590547 4.96811 0.937422 6.73999C1.2468 8.89624 2.96242 20.4837 4.7343 24.7212C4.70542 24.939 4.73641 25.1606 4.82395 25.3621C4.91149 25.5636 5.05227 25.7375 5.23117 25.865C6.3468 26.5775 8.5968 27.9931 9.9843 28.6775C10.1558 28.7681 10.3535 28.7961 10.5434 28.7568C10.7333 28.7174 10.9036 28.6131 11.0249 28.4619V28.6119C15.178 26.99 25.9687 16.6119 28.6312 14.0619C28.9956 13.9786 29.3207 13.7733 29.5525 13.4801C29.7844 13.1868 29.9092 12.8232 29.9062 12.4494C29.9062 11.8587 29.9062 11.1837 29.803 10.5744C29.7834 10.3293 29.7104 10.0916 29.5893 9.87771C29.4682 9.66383 29.3018 9.47899 29.1018 9.33612C28.9018 9.19325 28.673 9.0958 28.4314 9.05059C28.1898 9.00538 27.9412 9.01349 27.703 9.07436Z" fill="#4F213C"/>
<path d="M0.552734 5.40039C0.552734 5.40039 2.32461 19.3316 4.30273 23.6723L6.77773 20.3066L9.20586 12.9285L5.24961 6.90039L0.552734 5.40039Z" fill="#C65C91"/>
<path d="M1.53711 5.15625C1.53711 5.15625 3.62773 19.2187 5.68086 23.6531L7.97773 20.2125L10.4246 12.7125L6.34648 6.66562L1.53711 5.15625Z" fill="#EFA5D1"/>
<path d="M29.0625 11.643C29.0625 11.643 15.2719 25.1523 10.5 27.1023V21.7211L12.7313 13.9211L21.0188 10.4336L29.0625 11.643Z" fill="#C65C91"/>
<path d="M27.6945 10.7242C27.6945 10.7242 14.0633 23.2867 9.44141 25.3117L9.50703 20.8211L11.7102 13.1242L19.8195 9.63672L27.6945 10.7242Z" fill="#EFA5D1"/>
<path d="M1.61345 2.653L0.591572 4.29362C0.414024 4.5304 0.331025 4.82482 0.358757 5.11947C0.386488 5.41412 0.522963 5.68788 0.741572 5.88737C2.71032 7.18112 8.73845 10.153 4.23845 23.2499C4.15828 23.4862 4.15898 23.7425 4.24045 23.9784C4.32192 24.2143 4.47952 24.4165 4.68845 24.553C5.80407 25.228 8.05407 26.5592 9.45095 27.1967C9.57558 27.2513 9.71058 27.278 9.84659 27.2751C9.98259 27.2722 10.1163 27.2398 10.2385 27.18C10.3607 27.1202 10.4685 27.0346 10.5543 26.929C10.6401 26.8235 10.7018 26.7005 10.7353 26.5686C11.8134 23.3717 13.4822 12.8811 28.1916 12.2436C28.6271 12.2271 29.0401 12.0454 29.3465 11.7355C29.653 11.4255 29.83 11.0106 29.8416 10.5749C29.8416 9.99362 29.8416 9.31862 29.7759 8.69987C29.7455 8.4616 29.6634 8.23285 29.5353 8.0296C29.4073 7.82636 29.2364 7.65353 29.0346 7.52318C28.8328 7.39283 28.605 7.30811 28.3671 7.27494C28.1292 7.24176 27.8869 7.26094 27.6572 7.33112C22.7605 8.47412 17.6664 8.47412 12.7697 7.33112C7.3322 6.028 4.41657 3.54362 3.18845 2.2405C2.81345 1.7905 2.01657 1.99675 1.61345 2.653Z" fill="#C65C91"/>
<path d="M2.0622 3.30976L1.45283 4.19101C1.35991 4.29566 1.30859 4.43075 1.30859 4.57069C1.30859 4.71064 1.35991 4.84573 1.45283 4.95038C2.89658 6.07538 10.1903 8.70038 5.3997 22.2004C5.32541 22.4012 5.32209 22.6214 5.39032 22.8244C5.45854 23.0273 5.59419 23.2008 5.7747 23.316C6.74271 23.8828 7.74109 24.3961 8.76533 24.8535C8.86555 24.8903 8.97215 24.9067 9.0788 24.9015C9.18545 24.8964 9.28998 24.8698 9.38618 24.8235C9.48237 24.7771 9.56827 24.7119 9.63877 24.6317C9.70927 24.5515 9.76293 24.458 9.79658 24.3566C10.9216 21.6004 13.4997 10.7254 27.8528 11.2316C27.9385 11.2345 28.0239 11.2193 28.1033 11.187C28.1827 11.1546 28.2543 11.1059 28.3136 11.044C28.3729 10.982 28.4185 10.9083 28.4473 10.8275C28.4761 10.7468 28.4876 10.6609 28.4809 10.5754C28.4403 10.0269 28.3461 9.48367 28.1997 8.95351C28.1503 8.80586 28.0453 8.68322 27.9071 8.61149C27.7689 8.53977 27.6083 8.52458 27.4591 8.56913C22.5008 9.66857 17.354 9.59151 12.431 8.34413C6.5622 6.85351 3.69345 4.14413 2.8122 3.14101C2.60595 2.94413 2.25908 3.01913 2.0622 3.30976Z" fill="#EFA5D1"/>
<path d="M8.93469 9.02907C10.9074 9.99611 13.0268 10.6297 15.2066 10.9041C15.4157 10.9425 15.6095 11.04 15.7652 11.1849C15.9208 11.3299 16.0317 11.5163 16.0849 11.7222C16.1381 11.9281 16.1314 12.1449 16.0654 12.3471C15.9995 12.5493 15.8772 12.7285 15.7128 12.8634C13.2724 15.0444 11.2129 17.6172 9.61907 20.4759C9.57403 20.5963 9.50473 20.7061 9.41549 20.7985C9.32624 20.8909 9.21894 20.964 9.10026 21.0133C8.98158 21.0625 8.85404 21.0868 8.72557 21.0847C8.5971 21.0826 8.47044 21.0541 8.35344 21.0009L7.93157 20.8134C7.70476 20.6913 7.52582 20.4962 7.42373 20.2597C7.32164 20.0232 7.30238 19.7591 7.36907 19.5103C7.77219 17.7384 8.43782 13.7822 7.50032 10.3978C7.31282 9.54469 8.19407 8.67282 8.93469 9.02907Z" fill="#FCD0EC"/>
<g opacity="0.49">
<path d="M1.45395 5.54917C0.938325 6.28042 1.9602 10.3117 1.9602 10.3117C3.3477 6.62729 6.24458 13.1242 6.24458 13.1242C7.14458 9.74917 1.9602 4.80854 1.45395 5.54917Z" fill="#C65C91"/>
<path d="M26.6637 12.6375C26.9262 11.7 19.3887 11.4093 14.9824 16.5281C14.9824 16.5281 22.9043 12.7781 19.7168 18.525C19.6887 18.525 26.4105 13.5375 26.6637 12.6375Z" fill="#C65C91"/>
</g>
<path opacity="0.89" d="M1.45333 5.55078C1.45333 5.55078 9.3752 9.04766 4.77208 22.3227C4.77208 22.3227 1.00333 10.0508 1.45333 5.55078Z" fill="#4F213C"/>
<path opacity="0.89" d="M10.9492 25.4348C10.9492 25.4348 12.0836 13.3598 27.4398 11.7754C27.4398 11.7754 15.993 23.691 10.9492 25.4348Z" fill="#4F213C"/>
<path d="M26.7098 12.1879C22.6821 12.1198 18.7739 13.5573 15.7504 16.2191C13.8313 17.9947 12.4396 20.2656 11.7285 22.7816C11.7285 22.7816 15.666 17.7004 19.4535 15.6004C21.7814 14.279 24.2073 13.1381 26.7098 12.1879Z" fill="#4F213C"/>
<path d="M2.38086 6.83398C2.38086 6.83398 6.01836 8.43711 5.88711 15.2809L5.54023 18.1871C5.54023 18.1871 4.68711 10.2559 2.38086 6.83398Z" fill="#823A61"/>
<path d="M9.46953 19.7914L7.93203 23.7664L6.11328 22.5852L7.36953 19.5195L9.46953 19.7914Z" fill="#FCD0EC"/>
<path d="M8.68998 9.17715L6.56185 6.85215C6.53538 6.8298 6.50428 6.81361 6.4708 6.80472C6.43732 6.79583 6.40228 6.79448 6.36821 6.80075C6.33415 6.80703 6.30189 6.82078 6.27377 6.84101C6.24566 6.86125 6.22237 6.88746 6.2056 6.91777L6.00873 7.2084C5.97878 7.25616 5.96289 7.3114 5.96289 7.36777C5.96289 7.42415 5.97878 7.47939 6.00873 7.52715L8.12748 10.5084C8.15434 10.5465 8.19445 10.5733 8.23998 10.5834L15.365 12.5615H15.5056L20.315 11.249C20.381 11.234 20.4408 11.1989 20.4862 11.1486C20.5315 11.0982 20.5601 11.035 20.5681 10.9678C20.5731 10.923 20.5676 10.8778 20.5521 10.8355C20.5366 10.7932 20.5115 10.7552 20.4788 10.7243C20.4461 10.6934 20.4066 10.6705 20.3636 10.6574C20.3205 10.6444 20.275 10.6415 20.2306 10.649L15.4212 11.3053C15.3843 11.3144 15.3457 11.3144 15.3087 11.3053L8.74623 9.21465L8.68998 9.17715Z" fill="#FCD0EC"/>
<path d="M13.8367 19.9492L11.7742 27.2805H10.1523C10.1523 27.2805 11.6055 22.0961 12.3273 20.9148L13.8367 19.9492Z" fill="#4F213C"/>
<path d="M19.7906 18.2527C19.941 17.4725 20.3227 16.7557 20.8863 16.1955C21.4498 15.6353 22.1689 15.2578 22.95 15.1121L23.0719 13.7809L25.1625 13.584L25.0594 14.9246C26.0755 14.9127 27.0661 15.2429 27.8719 15.8621L26.4469 17.5027C26.135 17.2224 25.7677 17.0107 25.3688 16.8815C24.9699 16.7523 24.5482 16.7084 24.1313 16.7527C22.8281 16.8277 22.0219 16.8559 22.2563 17.5684C22.3688 17.9527 23.3063 18.3371 24.6 18.7684C26.2406 19.3215 28.1063 20.6434 27.9656 23.0527C27.8845 24.091 27.4672 25.0745 26.777 25.8543C26.0868 26.6342 25.1613 27.1679 24.1406 27.3746L24 29.2496L21.6844 29.0621L21.8437 27.309C21.223 27.221 20.6319 26.9874 20.1186 26.6273C19.6054 26.2673 19.1846 25.7909 18.8906 25.2371L20.2781 23.8402C20.6157 24.2823 21.0475 24.6437 21.542 24.8983C22.0366 25.1528 22.5816 25.2942 23.1375 25.3121C24.2719 25.3777 25.0125 24.8715 25.1063 23.8965C25.275 21.5809 20.2125 21.8902 19.8 18.9934C19.7642 18.748 19.7611 18.4989 19.7906 18.2527Z" fill="#2F4D0D"/>
<path d="M17.709 16.9215C17.8642 16.1482 18.2485 15.4396 18.812 14.8878C19.3755 14.3361 20.092 13.9667 20.8684 13.8277L20.9902 12.5152L23.0809 12.3184L22.9777 13.6402C23.9939 13.6283 24.9845 13.9585 25.7902 14.5777L24.3746 16.2277C24.0628 15.9474 23.6955 15.7357 23.2965 15.6065C22.8976 15.4773 22.476 15.4334 22.059 15.4777C20.7559 15.5527 20.0809 16.0777 20.0152 16.8184C19.7809 19.1902 26.0152 18.3184 25.7715 22.5652C25.6684 24.4402 24.1309 25.7434 22.0215 25.9777L21.8809 27.7777L19.6121 27.5527L19.7715 25.8277C19.1527 25.741 18.5631 25.51 18.0501 25.1534C17.5371 24.7967 17.1152 24.3244 16.8184 23.7746L18.2059 22.3965C18.5429 22.8421 18.9737 23.2082 19.4678 23.469C19.9619 23.7298 20.5072 23.879 21.0652 23.9059C22.1996 23.9621 22.9402 23.4652 23.034 22.4996C23.2027 20.034 17.3059 20.6246 17.709 16.9215Z" fill="#2F4D0D"/>
<path d="M17.709 17.859C17.8642 17.0857 18.2485 16.3771 18.812 15.8253C19.3755 15.2736 20.092 14.9042 20.8684 14.7652L20.9902 13.4527L23.0809 13.2559L22.9777 14.5777C23.9932 14.5701 24.9824 14.8999 25.7902 15.5152L24.3746 17.1652C24.0633 16.8845 23.6958 16.6733 23.2965 16.5456C22.8973 16.4179 22.4754 16.3766 22.059 16.4246C20.7559 16.4902 20.0809 17.0152 20.0152 17.7559C19.7809 20.1277 26.0152 19.2559 25.7715 23.5027C25.6684 25.3777 24.1309 26.6809 22.0215 26.9152L21.8809 28.7152L19.6121 28.4902L19.7715 26.7652C19.1527 26.6785 18.5631 26.4475 18.0501 26.0909C17.5371 25.7342 17.1152 25.2619 16.8184 24.7121L18.2059 23.334C18.5429 23.7796 18.9737 24.1457 19.4678 24.4065C19.9619 24.6673 20.5072 24.8165 21.0652 24.8434C22.1996 24.8996 22.9402 24.4027 23.034 23.4371C23.2027 20.9715 17.3059 21.5621 17.709 17.859Z" fill="#2F4D0D"/>
<path d="M18.45 17.5508C18.6004 16.787 18.9781 16.0866 19.5335 15.5412C20.0889 14.9958 20.7962 14.631 21.5625 14.4945L21.675 13.1914L23.7187 13.0039L23.625 14.307C24.6045 14.3087 25.5552 14.6388 26.325 15.2445L24.9187 16.8758C24.6156 16.6 24.2577 16.3915 23.8683 16.2638C23.4789 16.1362 23.0669 16.0923 22.6594 16.1352C21.3844 16.2102 20.7281 16.7352 20.6625 17.457C20.4375 19.8102 26.5219 18.9383 26.2875 23.1383C26.175 25.0133 24.675 26.2883 22.6594 26.5227L22.5 28.2852L20.2875 28.0695L20.4469 26.3633C19.8472 26.2776 19.2757 26.0533 18.7778 25.7083C18.2798 25.3633 17.8691 24.9071 17.5781 24.3758L18.9281 23.0164C19.2561 23.4588 19.6789 23.8223 20.1656 24.0802C20.6522 24.3381 21.1904 24.484 21.7406 24.507C22.8469 24.5633 23.6156 24.0664 23.6156 23.1102C23.8219 20.6258 18.0563 21.1695 18.45 17.5508Z" fill="#B6F967"/>
</g>
<defs>
<clipPath id="clip0_52_79079">
<rect width="30" height="30" fill="white"/>
</clipPath>
</defs>
</svg>
