<svg width="114" height="17" viewBox="0 0 114 17" fill="none" xmlns="http://www.w3.org/2000/svg">
<g filter="url(#filter0_d_12_21488)">
<path fill-rule="evenodd" clip-rule="evenodd" d="M8.5 17C13.1944 17 17 13.1944 17 8.5C17 3.80558 13.1944 0 8.5 0C3.80558 0 0 3.80558 0 8.5C0 13.1944 3.80558 17 8.5 17Z" fill="white"/>
<path d="M8.5 18.5C14.0228 18.5 18.5 14.0228 18.5 8.5C18.5 2.97715 14.0228 -1.5 8.5 -1.5C2.97715 -1.5 -1.5 2.97715 -1.5 8.5C-1.5 14.0228 2.97715 18.5 8.5 18.5Z" stroke="#3347D2" stroke-width="3"/>
</g>
<g filter="url(#filter1_d_12_21488)">
<path fill-rule="evenodd" clip-rule="evenodd" d="M105.5 17C110.194 17 114 13.1944 114 8.5C114 3.80558 110.194 0 105.5 0C100.806 0 97 3.80558 97 8.5C97 13.1944 100.806 17 105.5 17Z" fill="white"/>
<path d="M105.5 18.5C111.023 18.5 115.5 14.0228 115.5 8.5C115.5 2.97715 111.023 -1.5 105.5 -1.5C99.9772 -1.5 95.5 2.97715 95.5 8.5C95.5 14.0228 99.9772 18.5 105.5 18.5Z" stroke="#3347D2" stroke-width="3"/>
</g>
<rect x="17" y="7" width="80" height="3" fill="#3347D2"/>
<defs>
<filter id="filter0_d_12_21488" x="-8" y="-6" width="33" height="33" filterUnits="userSpaceOnUse" color-interpolation-filters="sRGB">
<feFlood flood-opacity="0" result="BackgroundImageFix"/>
<feColorMatrix in="SourceAlpha" type="matrix" values="0 0 0 0 0 0 0 0 0 0 0 0 0 0 0 0 0 0 127 0" result="hardAlpha"/>
<feOffset dy="2"/>
<feGaussianBlur stdDeviation="2.5"/>
<feColorMatrix type="matrix" values="0 0 0 0 0 0 0 0 0 0 0 0 0 0 0 0 0 0 0.1 0"/>
<feBlend mode="normal" in2="BackgroundImageFix" result="effect1_dropShadow_12_21488"/>
<feBlend mode="normal" in="SourceGraphic" in2="effect1_dropShadow_12_21488" result="shape"/>
</filter>
<filter id="filter1_d_12_21488" x="89" y="-6" width="33" height="33" filterUnits="userSpaceOnUse" color-interpolation-filters="sRGB">
<feFlood flood-opacity="0" result="BackgroundImageFix"/>
<feColorMatrix in="SourceAlpha" type="matrix" values="0 0 0 0 0 0 0 0 0 0 0 0 0 0 0 0 0 0 127 0" result="hardAlpha"/>
<feOffset dy="2"/>
<feGaussianBlur stdDeviation="2.5"/>
<feColorMatrix type="matrix" values="0 0 0 0 0 0 0 0 0 0 0 0 0 0 0 0 0 0 0.1 0"/>
<feBlend mode="normal" in2="BackgroundImageFix" result="effect1_dropShadow_12_21488"/>
<feBlend mode="normal" in="SourceGraphic" in2="effect1_dropShadow_12_21488" result="shape"/>
</filter>
</defs>
</svg>
