<svg width="30" height="30" viewBox="0 0 30 30" fill="none" xmlns="http://www.w3.org/2000/svg">
<g clip-path="url(#clip0_52_51343)">
<path d="M12.4504 18.1687C12.745 19.7388 12.8019 21.3443 12.6191 22.9312C12.291 25.3125 12.3098 25.1531 12.3098 25.1531C12.3098 25.1531 15.6473 24.6 16.7816 23.325C17.916 22.05 19.3035 17.4469 19.3035 17.4469L17.9535 15.9375L12.4504 18.1687Z" fill="#8E4028"/>
<path d="M27.1874 15.6657C26.8625 18.5084 25.4238 21.1062 23.1867 22.8899C20.9497 24.6736 18.0966 25.4976 15.253 25.1813C9.37491 24.497 5.99991 19.1251 7.10616 13.2563C8.02491 8.37197 13.0218 3.7501 18.9562 4.41572C24.8905 5.08135 27.8999 9.73134 27.1874 15.6657Z" fill="#8E4028"/>
<path d="M27.1124 15.3467C26.4562 21.0467 20.3624 27.2624 14.8405 26.5967C9.31866 25.9311 6.44991 18.7499 7.09679 13.0499C7.74366 7.34986 11.4374 3.09361 18.2905 3.88111C19.6232 4.05335 20.9088 4.48674 22.0738 5.15648C23.2388 5.82621 24.2602 6.71913 25.0796 7.78413C25.8991 8.84913 26.5004 10.0653 26.8492 11.363C27.198 12.6607 27.2875 14.0144 27.1124 15.3467Z" fill="#8E4028"/>
<path d="M21.4855 16.1487C21.9622 11.9976 19.0835 8.25755 15.0558 7.7951C11.0282 7.33264 7.37675 10.3229 6.90012 14.474C6.42349 18.6251 9.30217 22.3651 13.3298 22.8276C17.3575 23.29 21.0089 20.2998 21.4855 16.1487Z" fill="#8E4028"/>
<path d="M23.9904 14.4461C23.9904 14.4461 24.4966 17.5586 23.4373 18.7493C22.3779 19.9399 26.5685 20.6243 26.5685 20.6243C26.5685 20.6243 28.2373 17.2868 27.881 15.3836C27.5248 13.4805 23.9904 14.4461 23.9904 14.4461Z" fill="#8E4028"/>
<path d="M20.0252 22.407C21.4502 22.5008 18.5346 26.7008 16.8752 27.1883C15.0586 27.6439 13.1518 27.592 11.3627 27.0383C10.1908 26.4945 7.73457 22.1914 7.36895 20.8602C6.9377 19.332 6.73145 18.4414 6.73145 18.4414C6.73145 18.4414 7.0502 18.657 7.84707 19.1445C9.1877 19.9227 12.2814 21.9477 20.0252 22.407Z" fill="#8E4028"/>
<path d="M14.5879 18.8626C14.5879 18.8626 16.9691 18.1126 18.3379 18.8626C18.3379 18.8626 18.9941 19.5845 18.6191 19.8001C18.2441 20.0158 17.7754 20.4283 17.4566 20.0533C16.6427 19.3756 15.6425 18.9605 14.5879 18.8626Z" fill="#8E4028"/>
<path d="M9.19696 17.1094C9.19696 17.1094 8.66258 15.5156 7.53758 15.4219C7.53758 15.4219 6.74071 15.6375 6.75008 15.9656C6.75946 16.2937 6.68446 16.7812 7.09696 16.65C7.83017 16.519 8.5854 16.6842 9.19696 17.1094Z" fill="#8E4028"/>
<path d="M19.491 22.5L22.9035 21.0938L23.5035 22.7625C22.0927 24.5595 20.1555 25.8706 17.9629 26.5125L19.491 22.5Z" fill="#8E4028"/>
<path d="M11.7656 16.707L13.7062 17.1289L14.0156 15.732L11.7844 15.3008L11.7656 16.707Z" fill="#8E4028"/>
<path d="M14.916 14.0634C15.4287 13.73 16.0056 13.5076 16.6095 13.4107C17.2135 13.3139 17.831 13.3446 18.4223 13.5009C20.2973 14.0634 21.7973 15.7884 20.8973 16.1166C19.9973 16.4447 19.5285 15.7134 19.1254 15.0478C18.7223 14.3822 17.2504 13.7822 15.8254 14.9447C15.8254 15.0009 15.0004 14.7103 14.916 14.0634Z" fill="#8E4028"/>
<path d="M22.4152 8.1657C18.0652 6.60945 11.6059 5.4657 8.14648 9.37507C9.74265 10.1138 11.4109 10.6856 13.1246 11.0813L14.3059 10.6126C18.1871 8.8032 22.3309 9.90007 24.8152 10.9313C24.6512 10.3185 24.3499 9.75097 23.9341 9.27181C23.5183 8.79266 22.9989 8.4144 22.4152 8.1657Z" fill="#8E4028"/>
<path d="M26.6817 7.3966L25.6785 11.0435C25.6785 11.0435 19.9692 7.49973 14.8317 9.81535L13.8285 10.1997C13.8285 10.1997 8.65354 9.26223 8.27854 8.24973C7.95911 7.77118 7.75262 7.22629 7.67466 6.65623C7.5967 6.08617 7.64932 5.50584 7.82854 4.9591C8.14189 5.5916 8.39912 6.25038 8.59729 6.92785C8.59729 6.92785 8.67229 3.66535 11.0254 2.66223C11.0254 2.66223 10.6598 3.01848 10.8285 4.44348C10.8285 4.44348 15.0285 1.3216 17.991 1.40598C17.2277 2.12687 16.7598 3.10602 16.6785 4.15285C18.8669 3.34544 21.2142 3.06287 23.5317 3.32785C23.2208 3.99511 22.8063 4.60895 22.3035 5.1466C23.8182 5.78367 25.2819 6.53587 26.6817 7.3966Z" fill="#8E4028"/>
<path d="M22.8848 10.1992L21.0098 12.0742C22.1767 14.0775 22.7338 16.3777 22.6129 18.693L27.6848 16.2836L26.8973 10.4617C26.8973 10.4617 24.8254 10.3117 22.8848 10.1992Z" fill="#8E4028"/>
<path d="M21.8535 17.4648C21.9285 17.4648 24.3566 17.0898 24.3566 17.0898L24.4598 17.7367L21.8723 19.1617L22.1254 17.8117L21.8535 17.4648Z" fill="#8E4028"/>
<path d="M26.5596 11.457L21.8721 12.057C21.8721 12.057 22.1908 11.6914 22.4908 13.0977C22.4908 13.0977 25.4252 13.3602 25.5752 13.3602C25.7252 13.3602 27.1314 13.0039 27.1314 13.0039L26.5596 11.457Z" fill="#8E4028"/>
<path d="M23.1559 3.33789C21.8347 4.21774 20.3535 4.82933 18.7965 5.13789L22.8559 6.49727C21.5307 6.78366 20.1914 6.99958 18.8434 7.14414C18.0165 7.19806 17.1952 7.31718 16.3871 7.50039L22.1527 8.35352C22.1527 8.35352 17.6902 8.40977 15.6934 9.50664C15.6934 9.50664 21.1871 8.34414 25.6777 11.0535L26.409 10.7629L28.0027 8.01602C26.7005 7.15701 25.2876 6.47894 23.8027 6.00039L22.6496 5.50352C22.6496 5.50352 23.2684 3.92852 23.5309 3.33789H23.1559Z" fill="#8E4028"/>
<path d="M28.0125 7.99766L23.25 7.89453L25.6031 9.04766L21.0469 9.24453C21.0469 9.24453 23.3531 9.55391 24.3094 11.1195L25.0594 11.3727L26.7563 10.9695L28.0125 7.99766Z" fill="#8E4028"/>
<path d="M7.79102 7.26562C8.6165 7.90187 9.57986 8.33538 10.6035 8.53125L16.6879 9.02813L13.9691 10.2375C13.9691 10.2375 9.73164 9.62813 8.96289 9.02813C8.43458 8.54481 8.0323 7.93978 7.79102 7.26562Z" fill="#8E4028"/>
<path d="M11.7465 2.89648C11.7465 2.89648 11.0527 5.42773 11.6902 7.06836C10.9872 6.10309 10.6007 4.94363 10.584 3.74961C10.6643 3.50376 10.8196 3.28926 11.0281 3.13624C11.2367 2.98322 11.4879 2.89937 11.7465 2.89648Z" fill="#8E4028"/>
<path d="M15.9375 1.81836C15.9375 1.81836 13.2 2.75586 12.2625 4.15273C11.7349 4.80275 11.4617 5.62242 11.4937 6.45898C11.7871 5.57631 12.3472 4.80649 13.0969 4.25586C14.1321 3.55233 15.0849 2.7347 15.9375 1.81836Z" fill="#8E4028"/>
<path d="M21.1035 3.63738C21.1785 3.63738 18.0191 3.56238 16.0691 5.0155C15.0394 5.80147 13.9485 6.50372 12.8066 7.1155L16.641 5.71863C16.641 5.71863 19.5473 3.74988 21.1035 3.63738Z" fill="#8E4028"/>
<path d="M24.4777 18.9194C24.4777 18.9194 26.1184 17.7757 26.9527 17.9819C27.7871 18.1882 28.5934 22.1163 25.4715 22.4257C22.3496 22.735 24.4777 18.9194 24.4777 18.9194Z" fill="#8E4028"/>
<path d="M24.3752 19.2466C24.3752 19.2466 26.4002 16.9966 27.4033 17.2028C28.4064 17.4091 29.0627 22.6872 25.3596 22.9684C21.6564 23.2497 24.3752 19.2466 24.3752 19.2466Z" fill="#8E4028"/>
<path d="M24.7503 18.693C25.3741 18.2934 26.0916 18.0639 26.8315 18.0273C27.544 18.1773 28.0878 21.7023 25.444 21.8617C22.8003 22.0211 24.7503 18.693 24.7503 18.693Z" fill="#8E4028"/>
<path d="M24.3753 18.9566C25.0011 18.5613 25.7174 18.3322 26.4565 18.291C27.169 18.441 27.7128 21.9754 25.069 22.1254C22.4253 22.2754 24.3753 18.9566 24.3753 18.9566Z" fill="#8E4028"/>
<path d="M14.6441 25.5008C13.4441 26.7758 10.6129 26.007 10.7816 24.8164L14.6441 25.5008Z" fill="#8E4028"/>
<path d="M17.8125 22.8277C17.2587 23.0024 16.6858 23.1094 16.1062 23.1465C13.8458 23.1401 11.5969 22.8247 9.42188 22.209C9.71034 22.4046 10.0263 22.5563 10.3594 22.659C10.6461 23.1142 10.8316 23.6258 10.9031 24.159C10.6781 24.159 10.4719 24.2996 10.1156 24.159C11.5828 24.9502 13.2675 25.243 14.9156 24.9934C16.0895 24.5197 17.1835 23.8683 18.1594 23.0621C18.0362 22.9958 17.92 22.9173 17.8125 22.8277Z" fill="#8E4028"/>
<path d="M18.3004 22.7148C18.2339 22.6701 18.1712 22.6199 18.1129 22.5648H18.1785C18.1088 22.5351 18.0427 22.4973 17.9816 22.4523C17.3885 22.7207 16.7548 22.8886 16.1066 22.9492C13.8321 22.9792 11.5708 22.5981 9.43164 21.8242V22.218C9.73951 22.4273 10.0824 22.5797 10.4441 22.668C10.6899 23.2 10.8178 23.7788 10.8191 24.3648C10.5475 24.3268 10.2804 24.2608 10.0223 24.168C11.5316 25.2836 15.2254 25.7805 16.1441 25.3867C16.8473 25.0773 17.1754 24.1117 18.2816 22.7055L18.3004 22.7148Z" fill="#8E4028"/>
<path d="M10.7812 22.8473C10.9839 23.2468 11.1171 23.678 11.175 24.1223V24.1879C11.3464 24.2601 11.5216 24.3227 11.7 24.3754C12.2921 24.5691 12.901 24.7072 13.5188 24.7879C13.9404 24.863 14.3721 24.863 14.7937 24.7879C15.3596 24.58 15.9004 24.3096 16.4062 23.9816C16.7625 23.7566 17.1 23.5316 17.4375 23.2879C17.0064 23.3833 16.5665 23.4336 16.125 23.4379C14.3306 23.4288 12.5422 23.2277 10.7906 22.8379L10.7812 22.8473Z" fill="#8E4028"/>
<path d="M10.7812 22.8477C10.8393 23.0801 10.9275 23.3038 11.0437 23.5133C11.2248 23.6114 11.4128 23.696 11.6063 23.7664C11.4974 23.7781 11.3958 23.8261 11.3175 23.9026C11.2393 23.9791 11.1891 24.0798 11.175 24.1883C12.0375 24.5258 14.5969 25.0039 15.4594 24.7133C15.7629 24.6363 16.0581 24.5296 16.3406 24.3945C15.9491 24.2866 15.5516 24.202 15.15 24.1414C15.6122 24.1211 16.0652 24.0062 16.4812 23.8039C16.6485 23.6964 16.7818 23.5436 16.8656 23.3633C16.6178 23.4063 16.3671 23.4314 16.1156 23.4383C14.3218 23.4277 12.534 23.2297 10.7812 22.8477Z" fill="#8E4028"/>
<path d="M10.8936 23.1934C10.9342 23.3038 10.9844 23.4104 11.0436 23.5121C11.2246 23.6102 11.4126 23.6948 11.6061 23.7652C11.4973 23.7769 11.3956 23.8249 11.3173 23.9015C11.2391 23.978 11.1889 24.0786 11.1748 24.1871C12.2634 24.6271 13.4328 24.8316 14.6061 24.7871C14.8718 24.4961 15.0391 24.1287 15.0842 23.7371C13.6742 23.677 12.2721 23.4951 10.8936 23.1934Z" fill="#8E4028"/>
<path d="M20.1379 20.335C19.2388 20.2542 18.3347 20.4195 17.5223 20.8131C16.8098 20.8533 16.0957 20.7676 15.4129 20.56C13.8286 19.4162 14.4754 17.7475 15.4129 16.6412C15.6099 16.3977 15.8688 16.2118 16.1624 16.1029C16.4561 15.994 16.7736 15.9662 17.0817 16.0225C18.2638 16.1866 19.4068 16.5612 20.4567 17.1287C20.7567 17.8693 21.0567 20.0537 20.1192 20.3256L20.1379 20.335Z" fill="#8E4028"/>
<path d="M20.1375 20.3349C19.3191 20.3157 18.5074 20.4858 17.7656 20.8318C17.0505 20.8002 16.3463 20.6448 15.6843 20.3724C15.3363 19.8801 15.1761 19.2794 15.2329 18.6792C15.2896 18.079 15.5596 17.5189 15.9937 17.1006C16.9312 16.9224 19.9031 17.4662 20.5031 18.1412C20.682 18.4969 20.743 18.9004 20.6773 19.2931C20.6115 19.6859 20.4225 20.0475 20.1375 20.3256V20.3349Z" fill="#8E4028"/>
<path d="M15.291 18.3555C15.5454 17.6831 15.931 17.0681 16.4254 16.5462C17.3629 16.3587 19.491 16.4243 20.091 17.0899C20.3689 17.7126 20.5795 18.3631 20.7191 19.0305C19.6129 19.968 15.7691 20.0243 15.3285 18.5055C15.3253 18.4556 15.3253 18.4055 15.3285 18.3555H15.291Z" fill="#8E4028"/>
<path d="M20.0811 17.8121C20.248 17.9861 20.3781 18.1921 20.4634 18.4177C20.5488 18.6432 20.5878 18.8837 20.5779 19.1246C20.5509 19.5718 20.3529 19.9914 20.0248 20.2965C19.409 20.3013 18.7979 20.4058 18.2154 20.6059C17.8969 20.4629 17.629 20.2271 17.4467 19.9294C17.2644 19.6316 17.1762 19.2858 17.1936 18.9371C17.2146 18.5375 17.3754 18.158 17.6479 17.865C17.9204 17.572 18.2872 17.384 18.6842 17.334C19.1663 17.4403 19.6349 17.6007 20.0811 17.8121Z" fill="#8E4028"/>
<path d="M18.9377 18.0652C19.1375 18.0712 19.3309 18.1368 19.4932 18.2535C19.6554 18.3703 19.7791 18.5328 19.8484 18.7203C19.9177 18.9078 19.9293 19.1117 19.8819 19.3059C19.8345 19.5001 19.7301 19.6757 19.5822 19.8101C19.4343 19.9446 19.2496 20.0318 19.0518 20.0606C18.854 20.0893 18.6521 20.0584 18.472 19.9716C18.2919 19.8848 18.1419 19.7462 18.0411 19.5736C17.9403 19.401 17.8934 19.2022 17.9064 19.0027C17.921 18.7424 18.0372 18.4983 18.2301 18.3229C18.4231 18.1475 18.6772 18.055 18.9377 18.0652Z" fill="#8E4028"/>
<path d="M10.6222 14.8971C11.0395 16.3468 10.8817 17.9016 10.1815 19.2378C9.60101 19.4386 8.9785 19.4863 8.37415 19.3762C7.76981 19.2662 7.20405 19.0022 6.73154 18.6096C6.38467 17.2128 6.58154 15.2253 7.58467 14.2503C7.80553 14.0378 8.07511 13.8827 8.36981 13.7986C8.6645 13.7145 8.97532 13.7039 9.27507 13.7677C9.57481 13.8315 9.85434 13.9679 10.0892 14.1648C10.324 14.3617 10.507 14.6131 10.6222 14.8971Z" fill="#8E4028"/>
<path d="M10.6308 15.3286C11.0319 16.7404 10.9189 18.2486 10.312 19.5849C9.13005 19.6442 7.96114 19.3149 6.98391 18.6474C6.81971 17.9755 6.81916 17.2741 6.98229 16.602C7.14543 15.9299 7.46748 15.3067 7.92141 14.7849C8.11364 14.5891 8.35164 14.4444 8.61388 14.3638C8.87612 14.2832 9.15432 14.2693 9.4233 14.3233C9.69228 14.3773 9.94356 14.4975 10.1544 14.673C10.3652 14.8485 10.529 15.0739 10.6308 15.3286Z" fill="#8E4028"/>
<path d="M10.6596 15.7134C10.8715 16.2425 10.9394 16.8183 10.8564 17.3822C9.91895 18.554 7.10645 18.3947 7.10645 16.1353C7.25924 15.6151 7.53961 15.1414 7.92207 14.7572C8.7752 13.9228 10.2096 14.5509 10.6596 15.7134Z" fill="#8E4028"/>
<path d="M9.68406 15.3929C10.136 15.4712 10.5397 15.7226 10.8092 16.0937C11.0788 16.4648 11.1931 16.9264 11.1278 17.3804C11.1278 18.2429 10.4716 19.2554 9.46844 19.1991C9.01709 19.1209 8.61428 18.8692 8.34621 18.4977C8.07813 18.1263 7.96609 17.6646 8.03406 17.2116C8.08094 16.3398 8.69031 15.3366 9.68406 15.3929Z" fill="#8E4028"/>
<path d="M9.64734 16.1719C9.90994 16.2222 10.1428 16.3725 10.2967 16.5911C10.4506 16.8097 10.5136 17.0796 10.4723 17.3438C10.4854 17.6087 10.3949 17.8684 10.2199 18.0679C10.0449 18.2673 9.79927 18.3909 9.53484 18.4125C9.27184 18.3666 9.0376 18.2188 8.88309 18.001C8.72859 17.7833 8.66632 17.5134 8.70984 17.25C8.69666 16.984 8.78689 16.7232 8.96164 16.5223C9.13638 16.3213 9.3821 16.1958 9.64734 16.1719Z" fill="#8E4028"/>
<path d="M9.89091 15.1867C10.0029 15.1831 10.1144 15.2028 10.2183 15.2447C10.3222 15.2866 10.4163 15.3496 10.4945 15.4299C10.5727 15.5101 10.6333 15.6058 10.6724 15.7108C10.7116 15.8158 10.7284 15.9277 10.7219 16.0396C10.7153 16.1514 10.6855 16.2607 10.6344 16.3604C10.5833 16.4601 10.512 16.548 10.425 16.6186C10.338 16.6892 10.2372 16.7409 10.1291 16.7704C10.021 16.7998 9.90796 16.8065 9.79716 16.7898C9.68518 16.7934 9.57368 16.7737 9.46976 16.7318C9.36584 16.6899 9.27179 16.6269 9.19361 16.5466C9.11542 16.4664 9.05482 16.3707 9.01567 16.2657C8.97652 16.1607 8.95968 16.0488 8.96622 15.9369C8.97276 15.8251 9.00254 15.7158 9.05366 15.6161C9.10478 15.5164 9.17612 15.4285 9.26312 15.3579C9.35013 15.2873 9.45089 15.2356 9.55898 15.2061C9.66707 15.1767 9.78012 15.17 9.89091 15.1867Z" fill="#8E4028"/>
<path d="M19.6215 17.1554C19.7777 17.1792 19.9236 17.248 20.0415 17.3533C20.1594 17.4585 20.2442 17.5958 20.2855 17.7483C20.3268 17.9009 20.3229 18.0622 20.2743 18.2125C20.2257 18.3629 20.1344 18.4959 20.0116 18.5954C19.8888 18.6949 19.7397 18.7566 19.5825 18.7729C19.4253 18.7892 19.2668 18.7595 19.1261 18.6874C18.9855 18.6153 18.8688 18.5039 18.7903 18.3667C18.7118 18.2296 18.6749 18.0725 18.684 17.9147C18.7122 17.6917 18.8255 17.4882 19.0002 17.3467C19.1749 17.2052 19.3974 17.1367 19.6215 17.1554Z" fill="#8E4028"/>
<path d="M13.5564 15.9378C13.3116 17.2414 13.2203 18.5692 13.2846 19.8941C13.2846 19.8941 17.8408 21.5253 21.6096 20.3628L22.5002 17.8128C22.5002 17.8128 17.8127 15.7503 13.5564 15.9378ZM20.9721 20.5128C17.8127 21.4035 13.8658 19.9128 13.8658 19.9128C13.8089 18.6587 13.8811 17.4021 14.0814 16.1628C17.6533 16.0785 21.8064 18.3941 21.8064 18.3941L20.9721 20.5128Z" fill="#8E4028"/>
<path d="M13.575 15.6375C13.2946 17.0538 13.1751 18.4974 13.2187 19.9406C13.2187 19.9406 17.85 21.6937 21.6562 20.5312L22.8281 17.6062C22.8281 17.6062 17.8125 15.4593 13.575 15.6375ZM20.9906 20.2125C17.8312 21.0937 13.8844 19.6125 13.8844 19.6125C13.8299 18.4507 13.9117 17.2865 14.1281 16.1437C16.8132 16.2487 19.4579 16.8329 21.9375 17.8687L20.9906 20.2125Z" fill="#8E4028"/>
<path d="M15.3379 14.268L14.8691 13.9586C14.8691 13.9586 16.7441 11.6242 18.891 12.918C21.0379 14.2117 21.0848 15.4023 21.0848 15.4023C21.0848 15.4023 18.3848 11.9992 15.3379 14.268Z" fill="#8E4028"/>
<path d="M5.11895 15.5992L6.5627 15.2336V14.8586C6.07574 14.7737 5.57777 14.7737 5.09082 14.8586L5.11895 15.5992Z" fill="#8E4028"/>
<path d="M7.63164 14.6344L5.30664 14.5781L5.62539 17.9437L7.14414 18.5625C7.14414 18.5625 6.85352 15.4125 7.63164 14.6344Z" fill="#B79576"/>
<path d="M12.6754 17.9527C12.9537 19.4331 13.0074 20.947 12.8348 22.4434C12.5254 24.684 12.5442 24.534 12.5442 24.534C12.5442 24.534 15.6848 24.0184 16.7535 22.8184C17.8223 21.6184 19.1348 17.2684 19.1348 17.2684L17.8598 15.834L12.6754 17.9527Z" fill="#FCC097"/>
<path d="M26.5033 16.0228C25.8658 21.6478 20.8783 25.2009 15.3095 24.554C9.74079 23.9072 6.72204 18.7509 7.77204 13.2009C8.27837 10.7159 9.68263 8.50458 11.7165 6.98958C13.7503 5.47458 16.2711 4.76214 18.797 4.98842C24.3752 5.62592 27.1877 10.4259 26.5033 16.0228Z" fill="#E8BD89"/>
<path d="M26.4845 15.2906C25.8751 20.6625 20.1282 26.5406 14.9157 25.9218C9.70324 25.3031 7.01261 18.4968 7.63136 13.125C8.25011 7.75308 11.6251 4.5187 18.0845 5.25933C23.2876 5.84995 27.1032 9.9187 26.4845 15.2906Z" fill="#E8BD89"/>
<path d="M21.184 16.0473C21.6335 12.1328 18.9205 8.60613 15.1243 8.17025C11.3281 7.73437 7.88633 10.5543 7.43687 14.4688C6.98741 18.3833 9.70046 21.91 13.4966 22.3459C17.2928 22.7817 20.7346 19.9618 21.184 16.0473Z" fill="#FFD097"/>
<path d="M23.5409 14.4471C23.5409 14.4471 24.0191 17.3815 23.0534 18.5346C22.0878 19.6878 25.9784 20.2315 25.9784 20.2315C25.9784 20.2315 27.5441 17.0909 27.2066 15.2909C26.8691 13.4909 23.5409 14.4471 23.5409 14.4471Z" fill="#63310F"/>
<path d="M19.809 21.9379C21.1496 22.0223 18.4027 25.9973 16.8652 26.4285C15.1509 26.8512 13.3528 26.7895 11.6715 26.2504C10.5746 25.7348 8.24961 21.6848 7.92148 20.4379C7.7899 19.9018 7.63031 19.3729 7.44336 18.8535C7.44336 18.8535 7.67773 18.8535 8.43711 19.2848C9.64648 20.0629 12.5152 21.5629 19.809 21.9379Z" fill="#D8B18B"/>
<path d="M14.6816 18.6096C14.6816 18.6096 16.9316 17.8971 18.2254 18.6096C18.2254 18.6096 18.8441 19.2846 18.4879 19.4909C18.1316 19.6971 17.691 20.0815 17.4004 19.7253C16.6289 19.0852 15.6804 18.696 14.6816 18.6096Z" fill="#343F3D"/>
<path d="M9.59992 16.9496C9.59992 16.9496 9.10305 15.4496 8.04367 15.3652C8.04367 15.3652 7.29367 15.5715 7.30305 15.8715C7.31242 16.1715 7.23742 16.6402 7.6218 16.5277C7.96302 16.4632 8.31366 16.4673 8.65329 16.5397C8.99291 16.6122 9.31472 16.7515 9.59992 16.9496Z" fill="#343F3D"/>
<path d="M8.1377 10.6781C8.1377 10.6781 8.93457 9.23438 11.7096 10.4719L10.4158 7.5C9.38414 8.26991 8.60167 9.32624 8.16582 10.5375" fill="#E5895B"/>
<path d="M12.0842 12.8711L14.0154 13.4055L13.4061 20.418L10.8936 20.2586L12.0842 12.8711Z" fill="#D8B18B"/>
<path d="M19.3127 22.0035L22.5002 20.6816L23.0627 22.2566C21.7324 23.9476 19.9065 25.1801 17.8408 25.7816L19.3127 22.0035Z" fill="#B79576"/>
<path d="M12.0283 16.5758L13.8471 16.9695L14.1471 15.657L12.0471 15.2539L12.0283 16.5758Z" fill="#343F3D"/>
<path d="M15 14.0621C15.4823 13.7476 16.0251 13.5377 16.5934 13.4456C17.1618 13.3536 17.7431 13.3816 18.3 13.5277C20.1 14.0621 21.4875 15.684 20.6438 15.9933C19.8 16.3027 19.35 15.6183 18.975 14.9902C18.6 14.3621 17.2406 13.7996 15.8531 14.8965C15.8437 14.9246 15.0844 14.6902 15 14.0621Z" fill="#63310F"/>
<path d="M22.0594 8.52238C17.9625 7.05988 11.6063 5.6255 8.34375 9.3755C9.94932 10.1197 11.6068 10.7463 13.3031 11.2505L14.4188 10.8099C18.0656 9.10363 21.9188 10.1349 24.3094 11.1005C24.1525 10.5292 23.8687 10.0006 23.4791 9.55424C23.0895 9.10786 22.6042 8.75514 22.0594 8.52238Z" fill="#63310F"/>
<path d="M26.0809 7.80021L25.1434 11.2408C25.1434 11.2408 19.7621 7.87521 14.9246 10.0783L13.9871 10.444C13.9871 10.444 9.11215 9.50646 8.75589 8.56896C8.45592 8.11888 8.26208 7.60655 8.189 7.07063C8.11592 6.5347 8.16551 5.98918 8.33402 5.47521C8.62796 6.07836 8.86948 6.70567 9.05589 7.35021C9.05589 7.35021 9.1309 4.27521 11.3434 3.33771C11.3434 3.33771 11.0059 3.66584 11.1653 5.00646C11.1653 5.00646 14.184 2.00646 16.9684 2.08146C16.2872 2.84108 15.8725 3.80222 15.7871 4.81896C18.1563 4.04968 20.6542 3.75656 23.1371 3.95646C22.8401 4.58694 22.4445 5.16607 21.9653 5.67209C23.3903 6.27366 24.7663 6.98518 26.0809 7.80021Z" fill="url(#paint0_linear_52_51343)"/>
<path d="M22.5002 10.4434L20.7471 12.1871C21.8479 14.07 22.3726 16.2342 22.2564 18.4121L27.0377 16.1527L26.2502 10.6871C26.2502 10.6871 24.3752 10.509 22.5002 10.4434Z" fill="#63310F"/>
<path d="M21.5625 17.2879C21.6375 17.2879 23.925 16.9316 23.925 16.9316L24.0188 17.5504L21.5625 18.891L21.7969 17.5691L21.5625 17.2879Z" fill="#343F3D"/>
<path d="M25.9688 11.625L21.5625 12.1875C21.5625 12.1875 21.8719 11.85 22.1531 13.1719C22.1531 13.1719 24.9187 13.4156 25.0594 13.4156C25.2 13.4156 26.25 13.125 26.25 13.125L25.9688 11.625Z" fill="url(#paint1_linear_52_51343)"/>
<path d="M22.7533 3.97422C21.5088 4.80303 20.1136 5.37955 18.6471 5.67109L22.5002 6.94609C21.2619 7.21811 20.0102 7.42465 18.7502 7.56484C17.9742 7.61479 17.2031 7.72449 16.4439 7.89297L21.8721 8.69922C21.8721 8.69922 17.6721 8.74609 15.7783 9.77734C15.7783 9.77734 20.9627 8.68047 25.1533 11.2398L25.8471 10.9586L27.0939 8.26797C25.9407 7.4866 24.6766 6.88298 23.3439 6.47734L22.2564 6.00859C22.2564 6.00859 22.8377 4.52734 23.0908 3.96484L22.7533 3.97422Z" fill="#B85A1B"/>
<path d="M27.3379 8.36328L22.8473 8.26953L25.0691 9.37578L20.7754 9.56328C21.9768 9.70896 23.0753 10.3136 23.841 11.2508L24.5535 11.4945L26.1566 11.1102L27.3379 8.36328Z" fill="#63310F"/>
<path d="M8.27832 7.66797C9.05117 8.27323 9.95768 8.6847 10.9221 8.86797L16.6502 9.33672L14.0627 10.4711C14.0627 10.4711 10.0689 9.90859 9.3752 9.33672C8.87987 8.87747 8.50346 8.30481 8.27832 7.66797Z" fill="#B85A1B"/>
<path d="M11.2496 3.33789C10.9116 4.62545 10.9116 5.97846 11.2496 7.26602C10.5808 6.35121 10.2167 5.24919 10.209 4.11602C10.283 3.89605 10.4222 3.70381 10.6081 3.56483C10.7939 3.42584 11.0177 3.34669 11.2496 3.33789Z" fill="#B85A1B"/>
<path d="M15.9377 2.54102C15.9377 2.54102 13.3596 3.42227 12.4783 4.74414C11.9818 5.35758 11.7253 6.13058 11.7564 6.91914C12.0308 6.08525 12.5584 5.3577 13.2658 4.83789C14.2423 4.17825 15.139 3.40746 15.9377 2.54102Z" fill="#FFBA7B"/>
<path d="M20.8221 4.25623C19.1504 4.24113 17.5077 4.6924 16.0783 5.55935C15.1104 6.2877 14.0851 6.93668 13.0127 7.49998L16.6221 6.1781C16.6221 6.1781 19.3596 4.34998 20.8221 4.25623Z" fill="#FFBA7B"/>
<path d="M24.0093 18.6557C24.0093 18.6557 25.5468 17.587 26.3437 17.7182C27.1405 17.8495 27.8905 21.6182 24.9374 21.9088C21.9843 22.1995 24.0093 18.6557 24.0093 18.6557Z" fill="#63310F"/>
<path d="M23.8877 18.966C23.8877 18.966 25.7627 16.8473 26.7002 17.0442C27.6377 17.241 28.3127 22.2098 24.8252 22.4723C21.3377 22.7348 23.8877 18.966 23.8877 18.966Z" fill="#E8BD89"/>
<path d="M24.263 18.4406C24.8591 18.061 25.5444 17.8445 26.2505 17.8125C26.9255 17.9437 27.4317 21.2719 24.9473 21.4219C22.463 21.5719 24.263 18.4406 24.263 18.4406Z" fill="#C18053"/>
<path d="M23.9342 18.6945C24.5219 18.3188 25.1971 18.1023 25.8936 18.0664C26.5686 18.207 27.0749 21.5352 24.5905 21.6852C22.1061 21.8352 23.9342 18.6945 23.9342 18.6945Z" fill="#CE9D67"/>
<path d="M14.7371 24.8523C13.6028 26.0617 10.9403 25.3305 11.0996 24.2148L14.7371 24.8523Z" fill="#FFBC8F"/>
<path d="M17.7465 22.3406C17.2208 22.509 16.6758 22.6098 16.1246 22.6406C13.997 22.6306 11.8807 22.331 9.83398 21.75C10.093 21.9312 10.3773 22.0734 10.6777 22.1719C10.9507 22.6005 11.1267 23.0837 11.1934 23.5875C10.9871 23.5875 10.7902 23.7187 10.4527 23.5875C11.8395 24.3458 13.4386 24.6227 14.9996 24.375C16.111 23.9384 17.1459 23.3276 18.0652 22.5656C17.9498 22.5046 17.8427 22.4289 17.7465 22.3406Z" fill="#9A4C18"/>
<path d="M18.1781 22.2383L18 22.0977H18.0656C17.999 22.0676 17.936 22.0298 17.8781 21.9852C17.3284 22.2411 16.7384 22.3997 16.1344 22.4539C13.9908 22.4822 11.8598 22.1233 9.84375 21.3945V21.7695C10.1293 21.9637 10.4466 22.1065 10.7812 22.1914C11.009 22.6919 11.1273 23.2353 11.1281 23.7852C10.876 23.7504 10.6279 23.6907 10.3875 23.607C11.8031 24.657 15.2812 25.1258 16.1437 24.7508C16.8094 24.4602 17.0813 23.5508 18.1594 22.2289L18.1781 22.2383Z" fill="#63310F"/>
<path d="M11.1004 22.3594C11.2925 22.7345 11.4163 23.1409 11.466 23.5594V23.625L11.9629 23.8031C12.5207 23.9875 13.0954 24.1163 13.6785 24.1875C14.0754 24.258 14.4816 24.258 14.8785 24.1875C15.4141 23.995 15.9267 23.7434 16.4066 23.4375C16.7441 23.2312 17.0629 23.0156 17.3441 22.7906C16.9349 22.8881 16.5175 22.9478 16.0973 22.9687C14.4069 22.9624 12.7222 22.7738 11.0723 22.4062L11.1004 22.3594Z" fill="#792936"/>
<path d="M11.0996 22.3594C11.1543 22.5795 11.2395 22.7909 11.3527 22.9875C11.5212 23.0822 11.6967 23.1636 11.8777 23.2313C11.7747 23.2408 11.6779 23.2849 11.603 23.3564C11.5281 23.4278 11.4796 23.5225 11.4652 23.625C12.7617 24.075 14.139 24.2444 15.5059 24.1219C15.7921 24.0421 16.0712 23.9386 16.3402 23.8125C16.1996 23.7375 15.4027 23.625 15.2152 23.5781C15.6511 23.5572 16.0784 23.4488 16.4715 23.2594C16.6285 23.1602 16.7525 23.0166 16.8277 22.8469C16.5954 22.8869 16.3603 22.9088 16.1246 22.9125C14.4346 22.9093 12.7499 22.7238 11.0996 22.3594Z" fill="url(#paint2_linear_52_51343)"/>
<path d="M11.25 22.6875C11.2867 22.7936 11.3371 22.8945 11.4 22.9875C11.5685 23.0822 11.744 23.1636 11.925 23.2312C11.8219 23.2408 11.7251 23.2849 11.6503 23.3564C11.5754 23.4278 11.5268 23.5225 11.5125 23.625C12.539 24.0382 13.6412 24.2299 14.7469 24.1875C14.9959 23.9143 15.1532 23.5702 15.1969 23.2031C13.869 23.1431 12.5487 22.9706 11.25 22.6875Z" fill="url(#paint3_linear_52_51343)"/>
<path d="M19.9215 19.996C19.074 19.9194 18.2217 20.075 17.4559 20.446C16.7819 20.4776 16.1073 20.3984 15.459 20.2116C13.9684 19.1241 14.6152 17.5491 15.459 16.5085C15.6501 16.2804 15.8984 16.1073 16.1784 16.0068C16.4585 15.9063 16.7602 15.8821 17.0527 15.9366C18.1659 16.0902 19.2424 16.4427 20.2309 16.9772C20.5215 17.6804 20.7934 19.7335 19.9121 19.996H19.9215Z" fill="#343F3D"/>
<path d="M19.9221 19.9963C19.1501 19.9784 18.3841 20.1355 17.6815 20.4556C17.0048 20.4302 16.3381 20.2841 15.7127 20.0244C15.3871 19.5595 15.2376 18.9938 15.2908 18.4287C15.3441 17.8636 15.5966 17.3359 16.0034 16.94C16.9409 16.7713 19.4721 17.2588 20.0346 17.8775C20.2129 18.2161 20.2754 18.6037 20.2128 18.9812C20.1502 19.3586 19.9658 19.7053 19.6877 19.9681L19.9221 19.9963Z" fill="url(#paint4_linear_52_51343)"/>
<path d="M15.3467 18.122C15.5893 17.4895 15.9522 16.9101 16.4154 16.4158C17.3529 16.247 19.3029 16.3033 19.8654 16.9314C20.0809 17.5372 20.2226 18.1667 20.2873 18.8064C19.2561 19.7439 15.7967 19.7439 15.3842 18.2626C15.3788 18.2159 15.3788 18.1687 15.3842 18.122H15.3467Z" fill="white"/>
<path d="M17.6718 17.5867C17.2496 17.3872 16.8062 17.2363 16.3499 17.1367C16.0038 17.1902 15.6842 17.3543 15.4391 17.6044C15.1939 17.8546 15.0363 18.1774 14.9899 18.5246C14.9435 18.8718 15.0107 19.2247 15.1815 19.5305C15.3523 19.8363 15.6175 20.0786 15.9374 20.2211C16.4829 20.0314 17.0568 19.9363 17.6343 19.9398C17.9416 19.6498 18.129 19.2551 18.1593 18.8336C18.1663 18.6036 18.1267 18.3746 18.043 18.1603C17.9592 17.9461 17.8329 17.7509 17.6718 17.5867Z" fill="#343F3D"/>
<path d="M10.9496 14.8685C11.34 16.2336 11.1924 17.6965 10.5371 18.956C9.96635 19.1649 9.35285 19.2297 8.75104 19.1446C8.14922 19.0596 7.57769 18.8274 7.08713 18.4685C6.92399 17.7368 6.92954 16.9775 7.10333 16.2482C7.27713 15.5189 7.61463 14.8387 8.09025 14.2592C8.29244 14.0468 8.54568 13.8898 8.8258 13.8032C9.10592 13.7165 9.40357 13.7031 9.69035 13.7642C9.97712 13.8254 10.2434 13.959 10.4639 14.1523C10.6844 14.3456 10.8516 14.5922 10.9496 14.8685Z" fill="#343F3D"/>
<path d="M10.9593 15.2728C11.3356 16.6046 11.2259 18.0269 10.6499 19.2853C9.52803 19.3407 8.41966 19.0207 7.49992 18.3759C7.34246 17.7448 7.33861 17.0851 7.48868 16.4522C7.63875 15.8193 7.93837 15.2316 8.36242 14.7384C8.54567 14.5471 8.77447 14.4055 9.02738 14.3267C9.2803 14.2479 9.54906 14.2346 9.80853 14.288C10.068 14.3414 10.3097 14.4597 10.5109 14.632C10.7122 14.8042 10.8665 15.0247 10.9593 15.2728Z" fill="url(#paint5_linear_52_51343)"/>
<path d="M10.9783 15.6382C11.1803 16.1337 11.2482 16.6737 11.1752 17.2038C10.2377 18.3101 7.64082 18.1413 7.62207 16.0413C7.76161 15.55 8.02279 15.1018 8.38144 14.7382C9.20644 13.9507 10.5564 14.5413 10.9783 15.6382Z" fill="white"/>
<path d="M10.0692 15.3379C10.4944 15.4138 10.8736 15.6515 11.1271 16.0012C11.3806 16.3509 11.4886 16.7852 11.4285 17.2129C11.4285 18.0285 10.8004 18.9754 9.86292 18.9191C9.43774 18.8433 9.05853 18.6055 8.80502 18.2558C8.55151 17.9062 8.44345 17.4718 8.50354 17.0441C8.49302 16.6124 8.65027 16.1934 8.94223 15.8753C9.2342 15.5571 9.63814 15.3644 10.0692 15.3379Z" fill="#343F3D"/>
<path d="M10.022 16.0684C10.1477 16.0864 10.2684 16.1297 10.3769 16.1958C10.4853 16.2618 10.5792 16.3493 10.6528 16.4527C10.7265 16.5562 10.7783 16.6735 10.8053 16.7976C10.8322 16.9217 10.8336 17.0499 10.8095 17.1746C10.8199 17.3039 10.8033 17.4339 10.7609 17.5564C10.7184 17.679 10.651 17.7914 10.5629 17.8866C10.4748 17.9817 10.3679 18.0576 10.249 18.1093C10.13 18.161 10.0017 18.1875 9.87198 18.1871C9.74628 18.1691 9.62555 18.1258 9.51711 18.0597C9.40866 17.9936 9.31478 17.9062 9.24113 17.8028C9.16749 17.6993 9.11564 17.582 9.08871 17.4579C9.06178 17.3338 9.06034 17.2055 9.08448 17.0809C9.07682 16.8229 9.17078 16.5722 9.34612 16.3828C9.52147 16.1935 9.76418 16.0805 10.022 16.0684Z" fill="#343F3D"/>
<path d="M10.2558 15.1407C10.4033 15.1628 10.5413 15.2274 10.6528 15.3266C10.7642 15.4258 10.8444 15.5552 10.8836 15.6992C10.9228 15.8432 10.9192 15.9954 10.8733 16.1374C10.8274 16.2794 10.7412 16.4049 10.6251 16.4988C10.5091 16.5926 10.3683 16.6506 10.2198 16.6657C10.0714 16.6809 9.92176 16.6525 9.78918 16.5841C9.65659 16.5156 9.54679 16.4101 9.47316 16.2803C9.39953 16.1505 9.36526 16.0021 9.37453 15.8532C9.39815 15.6424 9.5039 15.4494 9.66886 15.316C9.83382 15.1826 10.0447 15.1196 10.2558 15.1407Z" fill="#FFFFFC"/>
<path d="M16.5848 16.9787C16.7297 17.0025 16.8647 17.0679 16.9732 17.1669C17.0817 17.2659 17.1592 17.3942 17.1963 17.5363C17.2334 17.6784 17.2284 17.8283 17.1821 17.9677C17.1357 18.107 17.0499 18.23 16.9351 18.3216C16.8203 18.4132 16.6814 18.4695 16.5352 18.4838C16.389 18.498 16.2418 18.4696 16.1115 18.4019C15.9811 18.3342 15.8732 18.2301 15.8008 18.1023C15.7284 17.9745 15.6946 17.8284 15.7036 17.6818C15.7294 17.4727 15.8362 17.282 16.0009 17.1506C16.1656 17.0192 16.3752 16.9575 16.5848 16.9787Z" fill="#FFFFFC"/>
<path d="M13.7061 15.8438C13.4784 17.0799 13.3934 18.3382 13.453 19.5937C13.453 19.5937 17.7561 21.1313 21.3092 20.0344L22.153 17.6625C19.4819 16.5144 16.613 15.8967 13.7061 15.8438ZM20.6999 20.1562C17.7186 20.9906 14.0061 19.5844 14.0061 19.5844C13.9528 18.4054 14.0219 17.2241 14.2124 16.0594C17.578 15.975 21.4874 18.1687 21.4874 18.1687L20.6999 20.1562Z" fill="white"/>
<path d="M5.12793 14.9446C5.21991 15.9555 5.38599 16.9582 5.6248 17.9446C7.51686 19.1144 9.79128 19.4979 11.9623 19.0134L12.2904 15.7228C12.2904 15.7228 7.4248 14.1759 5.12793 14.9446ZM11.5217 19.1259C8.76543 19.8571 5.89668 18.1884 5.89668 18.1884C5.64874 17.072 5.46718 15.9419 5.35293 14.804C7.36856 14.279 11.7373 16.529 11.7373 16.529L11.5217 19.1259Z" fill="white"/>
<path d="M13.7252 15.5719C13.4638 16.9053 13.3506 18.2636 13.3877 19.6219C13.3877 19.6219 17.7565 21.2719 21.3096 20.1844L22.4159 17.3719C22.4159 17.3719 17.719 15.3938 13.7252 15.5719ZM20.719 19.875C17.7377 20.7094 14.0252 19.3125 14.0252 19.3125C13.9724 18.2169 14.0479 17.1188 14.2502 16.0406C16.7836 16.1373 19.2792 16.6865 21.619 17.6625L20.719 19.875Z" fill="#343F3D"/>
<path d="M5.0625 14.5688C5.14991 15.7442 5.3159 16.9124 5.55937 18.0657C6.49561 18.6841 7.5458 19.1096 8.64848 19.3173C9.75116 19.525 10.8842 19.5106 11.9812 19.275L12.2813 15.3563C12.2813 15.3563 7.37812 13.8 5.0625 14.5688ZM11.5312 18.75C8.71875 19.4813 5.85 17.8125 5.85 17.8125C5.62985 16.8591 5.47945 15.8909 5.4 14.9157C7.43438 14.3813 11.7562 15.7594 11.7562 15.7594L11.5312 18.75Z" fill="#343F3D"/>
<path d="M15.3934 14.2782L14.9434 13.9782C14.9434 13.9782 16.7527 11.7844 18.6934 13.0407C20.634 14.2969 20.7652 15.3844 20.7652 15.3844C20.7652 15.3844 18.2621 12.1875 15.3934 14.2782Z" fill="url(#paint6_linear_52_51343)"/>
<path d="M7.93105 14.2873L7.2373 13.4342C7.2373 13.4342 8.38105 11.1279 10.6686 11.6248C12.5436 12.0279 12.6467 11.5779 13.0967 14.7936C12.4671 14.0593 11.5782 13.5967 10.6156 13.5024C9.65301 13.408 8.69119 13.6893 7.93105 14.2873Z" fill="url(#paint7_linear_52_51343)"/>
<path d="M5.76523 15.5249L7.13398 15.178V14.8405C6.67779 14.7641 6.21206 14.7641 5.75586 14.8405L5.76523 15.5249Z" fill="#E8BD89"/>
<path d="M22.7061 20.2598C22.7061 20.2598 22.8936 22.0504 24.0561 22.4723L24.1029 22.6785L23.3154 22.8941C23.3154 22.8941 22.3404 22.2191 22.7061 20.2598Z" fill="#8E4028"/>
<path d="M7.49969 19.0779C7.45106 19.5593 7.29659 20.0239 7.04735 20.4386C6.7981 20.8532 6.46024 21.2076 6.05797 21.4764C5.6557 21.7452 5.19897 21.9217 4.72049 21.9932C4.24201 22.0648 3.75363 22.0297 3.29031 21.8904C2.29735 21.5762 1.44593 20.9239 0.884122 20.0469C0.322314 19.1699 0.0856589 18.1238 0.215314 17.0904C0.260627 16.6109 0.41064 16.1472 0.654763 15.7321C0.898885 15.3169 1.23117 14.9604 1.62815 14.6877C2.02513 14.415 2.47713 14.2327 2.95224 14.1538C3.42736 14.0749 3.914 14.1013 4.37781 14.231C5.38839 14.5376 6.25713 15.1933 6.82897 16.0811C7.40082 16.9689 7.63853 18.031 7.49969 19.0779Z" fill="#282828"/>
<path d="M11.4846 13.707L13.2096 13.7258L12.5158 16.332L10.9971 16.0508L11.4846 13.707Z" fill="#282828"/>
<path d="M3.38477 14.0617L8.66289 13.4336C8.66289 13.4336 11.7848 16.1336 11.616 16.1055C11.4473 16.0773 5.79414 16.7523 5.79414 16.7523L3.38477 14.0617Z" fill="#282828"/>
<path d="M6.11211 16.3789L5.05273 26.6258L11.3434 23.7852L12.6371 15.7695L6.11211 16.3789Z" fill="#282828"/>
<path d="M3.47779 26.4L1.44342 25.3875C1.00687 25.1738 0.647222 24.8301 0.413884 24.4037C0.180546 23.9773 0.0849721 23.4892 0.140293 23.0063L1.25592 15L7.30279 16.7438L6.05592 25.3125C5.87779 26.5406 4.68717 26.9156 3.47779 26.4Z" fill="#282828"/>
<path d="M8.34375 13.4899L9.525 12.4867C9.60293 12.3977 9.71057 12.3401 9.82787 12.3245C9.94516 12.309 10.0641 12.3367 10.1625 12.4024L12.975 12.9649C13.0697 13.0235 13.1501 13.1024 13.2104 13.196C13.2708 13.2895 13.3096 13.3954 13.3239 13.5058C13.3383 13.6162 13.3279 13.7284 13.2935 13.8343C13.2591 13.9402 13.2015 14.0371 13.125 14.118L10.8469 16.1992L8.34375 13.4899Z" fill="#282828"/>
<path d="M10.8934 14.2027L12.7402 13.584L12.0371 15.5621L10.1621 15.7496L10.8934 14.2027Z" fill="#97A9AF"/>
<path d="M3.75 14.775L8.68125 14.2031C8.68125 14.2031 10.8094 15.9375 10.6594 15.9375C10.5094 15.9375 5.74688 16.875 5.74688 16.875L3.75 14.775Z" fill="#E4E8EA"/>
<path d="M5.74727 16.8937L4.93164 25.5469L10.7441 23.1469L12.0848 15.4219L5.74727 16.8937Z" fill="#7D9093"/>
<path d="M3.98461 25.3121L2.32524 24.8621C1.9378 24.6981 1.61075 24.418 1.38912 24.0603C1.1675 23.7027 1.0622 23.2852 1.08774 22.8652L2.17524 15.1309L7.23774 17.0059L6.97524 24.0184C6.80649 25.1246 5.02524 25.7809 3.98461 25.3121Z" fill="#BACCD3"/>
<path d="M7.16263 19.2008C7.12121 19.6309 6.98501 20.0465 6.76382 20.4177C6.54263 20.7889 6.24194 21.1065 5.88338 21.3476C5.52482 21.5887 5.11728 21.7474 4.69007 21.8123C4.26287 21.8771 3.82659 21.8465 3.41263 21.7227C2.52418 21.4423 1.76242 20.8588 1.26037 20.074C0.758316 19.2892 0.547861 18.353 0.66575 17.4289C0.704949 16.997 0.839384 16.5792 1.05939 16.2055C1.27939 15.8318 1.57948 15.5115 1.93808 15.2676C2.29669 15.0238 2.70488 14.8624 3.1333 14.7952C3.56171 14.728 3.9997 14.7566 4.41575 14.8789C5.31268 15.1551 6.08184 15.7418 6.58524 16.5339C7.08865 17.3259 7.29335 18.2714 7.16263 19.2008Z" fill="#445C7F"/>
<path d="M6.56294 18.8897C6.52851 19.2557 6.41327 19.6095 6.22554 19.9256C6.03781 20.2417 5.78227 20.5122 5.47734 20.7176C5.17242 20.9229 4.82571 21.0581 4.46223 21.1132C4.09876 21.1684 3.72757 21.1422 3.37544 21.0365C2.61869 20.7986 1.96994 20.3017 1.54305 19.6331C1.11617 18.9645 0.938439 18.1669 1.04107 17.3803C1.07544 17.0165 1.18934 16.6647 1.37472 16.3498C1.5601 16.0349 1.81242 15.7645 2.11383 15.5579C2.41524 15.3513 2.75837 15.2135 3.11895 15.1542C3.47952 15.0949 3.84873 15.1155 4.20044 15.2147C4.96599 15.4477 5.62382 15.9452 6.05655 16.6183C6.48929 17.2915 6.66876 18.0965 6.56294 18.8897Z" fill="#668BC6"/>
<path d="M5.86899 18.7504C5.84696 19.0321 5.76155 19.3052 5.61915 19.5492C5.47675 19.7932 5.28105 20.0019 5.04665 20.1597C4.81226 20.3175 4.54524 20.4202 4.26556 20.4603C3.98587 20.5003 3.70074 20.4767 3.43149 20.391C2.8511 20.2068 2.3543 19.8237 2.02849 19.3093C1.70268 18.7949 1.56874 18.182 1.65024 17.5785C1.67296 17.299 1.75809 17.0282 1.89937 16.7859C2.04065 16.5437 2.23446 16.3362 2.46655 16.1788C2.69864 16.0213 2.96308 15.918 3.24041 15.8763C3.51774 15.8346 3.80088 15.8557 4.06899 15.9379C4.65286 16.1186 5.15392 16.5002 5.48339 17.015C5.81286 17.5297 5.94946 18.1445 5.86899 18.7504Z" fill="#70D2F9"/>
<path d="M5.79361 17.6723C5.77944 17.8077 5.73597 17.9383 5.66623 18.0552C5.59648 18.172 5.50212 18.2723 5.38972 18.349C5.27731 18.4257 5.14955 18.4771 5.01531 18.4994C4.88107 18.5218 4.74357 18.5147 4.61236 18.4786C4.33114 18.3904 4.09021 18.2056 3.93232 17.9567C3.77443 17.7079 3.70979 17.4111 3.74986 17.1192C3.76403 16.9838 3.8075 16.8532 3.87725 16.7363C3.947 16.6195 4.04135 16.5192 4.15376 16.4425C4.26616 16.3657 4.39392 16.3144 4.52816 16.292C4.6624 16.2697 4.7999 16.2768 4.93111 16.3129C5.21234 16.401 5.45327 16.5859 5.61115 16.8348C5.76904 17.0836 5.83368 17.3803 5.79361 17.6723Z" fill="white"/>
<path d="M8.61523 14.2027L9.81524 13.2652C9.89407 13.1798 10.0013 13.126 10.1169 13.1139C10.2325 13.1018 10.3486 13.1323 10.4434 13.1996L12.7309 13.5933L10.4715 15.6558L8.61523 14.2027Z" fill="#D5DEE2"/>
<path d="M5.71832 23.9437C5.70364 24.0627 5.66485 24.1774 5.60431 24.2809C5.54377 24.3843 5.46276 24.4744 5.36623 24.5455C5.26969 24.6165 5.15967 24.6672 5.04289 24.6943C4.92612 24.7214 4.80504 24.7244 4.68707 24.7031C4.44575 24.6574 4.23198 24.5189 4.09173 24.3173C3.95148 24.1157 3.89595 23.8671 3.93707 23.6249C3.95055 23.5063 3.98824 23.3918 4.0478 23.2884C4.10736 23.1849 4.18752 23.0948 4.28332 23.0236C4.37912 22.9524 4.48851 22.9017 4.60473 22.8745C4.72094 22.8473 4.8415 22.8443 4.95894 22.8656C5.20198 22.9091 5.41805 23.0467 5.56023 23.2485C5.70241 23.4504 5.75921 23.7002 5.71832 23.9437Z" fill="#474747"/>
<path d="M5.49378 23.9061C5.4825 23.9946 5.45332 24.0797 5.40802 24.1565C5.36273 24.2333 5.30227 24.3 5.23034 24.3527C5.1584 24.4053 5.0765 24.4427 4.98962 24.4627C4.90275 24.4826 4.81272 24.4846 4.72503 24.4686C4.54566 24.4322 4.38719 24.3282 4.28246 24.1781C4.17773 24.028 4.13479 23.8433 4.16253 23.6624C4.17144 23.5735 4.19866 23.4875 4.24246 23.4097C4.28626 23.3318 4.3457 23.2639 4.41703 23.2102C4.48837 23.1565 4.57005 23.1181 4.65694 23.0975C4.74383 23.0769 4.83405 23.0745 4.92191 23.0905C5.10375 23.127 5.26459 23.232 5.37107 23.3839C5.47755 23.5357 5.52149 23.7228 5.49378 23.9061Z" fill="#F91919"/>
<path d="M5.30644 23.5773C5.30299 23.6044 5.29416 23.6307 5.28046 23.6544C5.26675 23.6781 5.24846 23.6989 5.22663 23.7155C5.20481 23.7321 5.17991 23.7441 5.15337 23.751C5.12683 23.7578 5.09919 23.7593 5.07207 23.7554C5.01669 23.742 4.96806 23.709 4.93528 23.6624C4.9025 23.6158 4.8878 23.5589 4.89394 23.5023C4.89584 23.4735 4.90402 23.4456 4.91789 23.4204C4.93176 23.3951 4.95099 23.3733 4.97423 23.3563C4.99747 23.3393 5.02415 23.3276 5.05239 23.3221C5.08064 23.3165 5.10975 23.3172 5.13769 23.3241C5.19357 23.3354 5.24269 23.3684 5.27432 23.4159C5.30594 23.4633 5.31749 23.5213 5.30644 23.5773Z" fill="white"/>
<path d="M8.8499 16.9687C8.83314 17.1057 8.77742 17.2351 8.68935 17.3415C8.60128 17.4478 8.48456 17.5267 8.35303 17.5687C8.12803 17.5687 7.9874 17.3812 8.04365 17.0906C8.05856 16.9542 8.11248 16.8251 8.19895 16.7187C8.28543 16.6123 8.40077 16.5331 8.53115 16.4906C8.75615 16.4531 8.89678 16.6687 8.8499 16.9687Z" fill="#97A9AF"/>
<path d="M10.1249 17.1837C10.1063 17.3215 10.0488 17.4511 9.95912 17.5574C9.86945 17.6637 9.75135 17.7422 9.61865 17.7837C9.39365 17.7837 9.25303 17.6056 9.30928 17.3056C9.32374 17.1677 9.37862 17.0372 9.46703 16.9305C9.55543 16.8237 9.67341 16.7455 9.80615 16.7056C10.0312 16.6681 10.1718 16.8743 10.1249 17.1837Z" fill="#97A9AF"/>
<path d="M11.494 17.4742C11.4777 17.6128 11.421 17.7435 11.331 17.8502C11.241 17.9568 11.1217 18.0347 10.9878 18.0742C10.7628 18.0742 10.6222 17.8867 10.6784 17.5867C10.6929 17.4488 10.7478 17.3183 10.8362 17.2116C10.9246 17.1048 11.0426 17.0266 11.1753 16.9867C11.4003 16.9492 11.5503 17.1648 11.494 17.4742Z" fill="#97A9AF"/>
<path d="M6.35645 16.4812L6.8252 15.7687L9.9002 15.2344L10.4627 15.6563L6.35645 16.4812Z" fill="white"/>
<path d="M7.26582 18.582L7.93145 18.807L7.09707 24.657L6.35645 24.9383L7.26582 18.582Z" fill="#BACCD3"/>
<path d="M11.5592 18.4414L7.93105 18.807L7.09668 24.657L10.7436 23.1477L11.5592 18.4414Z" fill="#97A9AF"/>
<path d="M11.7562 24.7495L8.00619 23.7182C7.69039 23.6319 7.41303 23.4413 7.21904 23.1776C7.02506 22.9138 6.92583 22.5923 6.93744 22.2651C6.95183 21.8953 7.10772 21.5451 7.37291 21.2869C7.6381 21.0287 7.99233 20.8822 8.36244 20.8776L12.6093 20.7933C12.8382 20.7887 13.0649 20.8387 13.2707 20.9391C13.4765 21.0394 13.6554 21.1873 13.7928 21.3705C13.9302 21.5536 14.022 21.7668 14.0608 21.9925C14.0995 22.2181 14.084 22.4498 14.0156 22.6683C13.8675 23.1516 13.6729 23.6194 13.4343 24.0651C13.2735 24.3524 13.0199 24.5766 12.715 24.701C12.4101 24.8253 12.0721 24.8424 11.7562 24.7495Z" fill="#8E4028"/>
<path d="M11.4285 26.6809L7.67848 25.6497C7.35483 25.5708 7.06782 25.3837 6.86495 25.1195C6.66208 24.8552 6.55551 24.5296 6.56286 24.1966C6.57948 23.8275 6.73607 23.4786 7.00079 23.2208C7.2655 22.9631 7.61845 22.8158 7.98786 22.8091L12.2441 22.7247C12.4723 22.7222 12.698 22.7735 12.9027 22.8745C13.1074 22.9755 13.2854 23.1233 13.4223 23.3059C13.5593 23.4885 13.6513 23.7008 13.6909 23.9255C13.7305 24.1503 13.7166 24.3813 13.6504 24.5997C13.4992 25.0834 13.3014 25.5512 13.0597 25.9966C12.9022 26.2754 12.6565 26.494 12.3612 26.6179C12.0659 26.7417 11.7378 26.7639 11.4285 26.6809Z" fill="#8E4028"/>
<path d="M10.7906 29.2132L7.04064 28.1913C6.72398 28.1064 6.44564 27.9163 6.2514 27.6522C6.05716 27.3881 5.95859 27.0657 5.97189 26.7382C5.97837 26.3718 6.12299 26.0215 6.3768 25.7572C6.63061 25.493 6.97487 25.3344 7.34064 25.3132L11.5969 25.2288C11.8258 25.2243 12.0525 25.2743 12.2583 25.3746C12.4641 25.475 12.643 25.6229 12.7804 25.806C12.9178 25.9892 13.0096 26.2024 13.0483 26.428C13.0871 26.6537 13.0716 26.8853 13.0031 27.1038C12.8545 27.5869 12.6598 28.0547 12.4219 28.5007C12.27 28.7858 12.0262 29.0113 11.7302 29.1406C11.4341 29.2699 11.1031 29.2955 10.7906 29.2132Z" fill="#8E4028"/>
<path d="M11.1472 26.3814L8.14718 25.5657C7.89814 25.4982 7.67926 25.3485 7.52608 25.1408C7.3729 24.9332 7.29444 24.6799 7.30343 24.422C7.31537 24.1276 7.43957 23.8489 7.65052 23.6432C7.86148 23.4374 8.14318 23.3203 8.4378 23.3157L11.7941 23.2501C11.9765 23.2476 12.157 23.2884 12.3206 23.3692C12.4842 23.45 12.6264 23.5685 12.7353 23.715C12.8442 23.8614 12.9168 24.0316 12.9471 24.2115C12.9774 24.3915 12.9646 24.5761 12.9097 24.7501C12.7876 25.1324 12.6307 25.5027 12.4409 25.8564C12.3124 26.0733 12.1162 26.2421 11.8825 26.3369C11.6489 26.4317 11.3906 26.4474 11.1472 26.3814Z" fill="#FFD097"/>
<path d="M11.7283 23.9912L8.72831 23.1849C8.47852 23.1155 8.2594 22.964 8.10631 22.7548C7.95322 22.5456 7.8751 22.2909 7.88456 22.0318C7.89638 21.7415 8.01828 21.4665 8.22549 21.2628C8.4327 21.0591 8.70968 20.9418 9.00018 20.9349L12.3658 20.8693C12.5482 20.8662 12.7287 20.9068 12.8922 20.9876C13.0557 21.0684 13.1975 21.1872 13.3058 21.334C13.414 21.4808 13.4856 21.6514 13.5145 21.8315C13.5435 22.0116 13.5289 22.196 13.4721 22.3693C13.3533 22.7394 13.1994 23.0972 13.0127 23.4381C12.8924 23.6617 12.7001 23.838 12.4669 23.9384C12.2337 24.0388 11.9734 24.0574 11.7283 23.9912Z" fill="#FFD097"/>
<path d="M10.4716 28.3971L7.49972 27.994C7.25068 27.9265 7.0318 27.7767 6.87862 27.5691C6.72544 27.3614 6.64698 27.1081 6.65597 26.8502C6.6678 26.5574 6.79069 26.2801 6.99965 26.0746C7.20862 25.8691 7.48798 25.7509 7.78097 25.744L11.1372 25.6784C11.3223 25.6723 11.5062 25.7109 11.6733 25.7909C11.8403 25.8709 11.9856 25.99 12.0969 26.1381C12.2082 26.2861 12.2822 26.4588 12.3126 26.6415C12.343 26.8243 12.3289 27.0116 12.2716 27.1877C12.1495 27.57 11.9926 27.9403 11.8028 28.294C11.5497 28.7252 10.9685 28.5284 10.4716 28.3971Z" fill="#FFD097"/>
<path d="M8.09082 22.5664L13.1439 22.9227C13.1923 22.9805 13.2263 23.0489 13.2432 23.1224C13.2601 23.1958 13.2593 23.2722 13.241 23.3454C13.2228 23.4185 13.1874 23.4863 13.138 23.5431C13.0885 23.6 13.0263 23.6444 12.9564 23.6727C12.4127 24.0008 8.5877 23.232 8.5877 23.232C8.39237 23.034 8.22518 22.81 8.09082 22.5664Z" fill="#D8B18B"/>
<path d="M7.20898 24.9102L12.2621 25.2664C12.3102 25.3248 12.3438 25.3939 12.36 25.4678C12.3763 25.5418 12.3747 25.6185 12.3555 25.6918C12.3363 25.765 12.2999 25.8326 12.2495 25.889C12.199 25.9455 12.1359 25.9891 12.0652 26.0164C11.5215 26.3445 7.70586 25.5852 7.70586 25.5852C7.51125 25.383 7.34418 25.156 7.20898 24.9102Z" fill="#D8B18B"/>
<path d="M6.91895 27.4961L11.9721 27.8523C12.0202 27.9108 12.0538 27.9798 12.07 28.0538C12.0862 28.1277 12.0847 28.2045 12.0655 28.2777C12.0462 28.3509 12.0099 28.4185 11.9594 28.475C11.909 28.5314 11.8458 28.5751 11.7752 28.6023C11.2502 28.9305 7.41582 28.1242 7.41582 28.1242C7.2232 27.9377 7.05612 27.7265 6.91895 27.4961Z" fill="#BF916B"/>
<path d="M16.6031 26.4281L16.1719 26.8875L17.8125 28.3312L29.0906 19.4156L27.6656 17.1094L16.6031 26.4281Z" fill="#9A4C18"/>
<path d="M28.9871 22.2929C28.5231 24.2795 27.3497 26.0284 25.6873 27.2109C24.0249 28.3934 21.9879 28.9282 19.959 28.7148C19.0455 28.6388 18.1619 28.3526 17.3774 27.8785C16.5928 27.4044 15.9286 26.7552 15.4366 25.9818C14.9445 25.2083 14.6381 24.3316 14.5411 23.4201C14.4442 22.5085 14.5594 21.5869 14.8778 20.7273C15.4854 18.9571 16.6644 17.4392 18.2292 16.4124C19.794 15.3857 21.6557 14.9083 23.5215 15.0554C24.3827 15.1054 25.2226 15.342 25.9833 15.7487C26.744 16.1554 27.4073 16.7226 27.9271 17.4109C28.4469 18.0993 28.811 18.8924 28.994 19.7354C29.177 20.5783 29.1747 21.451 28.9871 22.2929Z" fill="#9A4C18"/>
<path d="M29.859 23.6537C29.3881 25.5676 28.2348 27.2437 26.6156 28.3674C24.9965 29.4912 23.0228 29.9852 21.0652 29.7569C20.1843 29.6961 19.3294 29.4317 18.5679 28.9847C17.8064 28.5376 17.159 27.92 16.6765 27.1804C16.1941 26.4408 15.8897 25.5994 15.7875 24.7223C15.6852 23.8452 15.7877 22.9564 16.0871 22.1256C16.7051 20.4244 17.8667 18.9744 19.392 17.9999C20.9172 17.0254 22.7212 16.5808 24.5246 16.735C25.3538 16.7769 26.1641 16.998 26.8996 17.3831C27.6352 17.7681 28.2786 18.308 28.7856 18.9655C29.2925 19.6231 29.651 20.3826 29.8363 21.192C30.0216 22.0013 30.0293 22.8411 29.859 23.6537Z" fill="#9A4C18"/>
<path d="M17.709 26.8215L19.3215 27.9465L28.5934 20.2027L27.4309 18.2246L17.709 26.8215Z" fill="#F49937"/>
<path d="M29.0627 23.5964C28.6723 25.2093 27.7106 26.6262 26.3558 27.5845C25.001 28.5429 23.3448 28.9779 21.6939 28.8089C20.9492 28.7474 20.2286 28.5156 19.5878 28.1314C18.947 27.7472 18.403 27.2207 17.998 26.5928C17.593 25.9649 17.3377 25.2523 17.252 24.51C17.1662 23.7678 17.2522 23.0157 17.5033 22.312C18.0004 20.8514 18.9696 19.5979 20.258 18.7492C21.5464 17.9004 23.0807 17.5047 24.6189 17.6245C25.3255 17.6702 26.0137 17.8691 26.6358 18.2072C27.2579 18.5454 27.7991 19.0147 28.2218 19.5828C28.6445 20.1509 28.9386 20.804 29.0838 21.4971C29.229 22.1901 29.2218 22.9064 29.0627 23.5964Z" fill="#F49937"/>
<path d="M28.1249 22.1535C27.7096 23.8807 26.6813 25.3984 25.2311 26.4244C23.7809 27.4504 22.0075 27.9149 20.2406 27.7317C19.444 27.6651 18.6733 27.4163 17.9883 27.0043C17.3032 26.5924 16.722 26.0284 16.2898 25.3559C15.8575 24.6835 15.5857 23.9207 15.4953 23.1264C15.405 22.3322 15.4985 21.5278 15.7687 20.7754C16.3016 19.218 17.3364 17.8815 18.7107 16.9755C20.0849 16.0695 21.7211 15.6452 23.3624 15.7692C24.1195 15.8149 24.8574 16.0253 25.5247 16.3856C26.192 16.746 26.7727 17.2476 27.2262 17.8555C27.6796 18.4634 27.995 19.1629 28.1502 19.9053C28.3055 20.6476 28.2968 21.4149 28.1249 22.1535Z" fill="#FFEDC0"/>
<path d="M27.6285 22.3584C27.2363 23.9704 26.2742 25.3861 24.9199 26.3441C23.5655 27.3022 21.9103 27.7379 20.2597 27.5709C19.5158 27.5077 18.7963 27.2748 18.1565 26.8901C17.5167 26.5053 16.9735 25.9791 16.5689 25.3517C16.1642 24.7243 15.9087 24.0125 15.8221 23.2709C15.7354 22.5294 15.8199 21.7779 16.0691 21.0741C16.563 19.6134 17.5302 18.3592 18.8173 17.5101C20.1045 16.6611 21.6381 16.2657 23.1753 16.3866C23.8827 16.431 24.572 16.6289 25.1952 16.9665C25.8185 17.3041 26.3608 17.7733 26.7845 18.3415C27.2082 18.9097 27.5032 19.5634 27.6489 20.257C27.7947 20.9507 27.7877 21.6678 27.6285 22.3584Z" fill="#FFD766"/>
<path d="M26.3159 22.2194C26.0073 23.4614 25.2632 24.5514 24.2189 25.2912C23.1746 26.031 21.8994 26.3715 20.6253 26.2506C20.0494 26.2043 19.4917 26.0272 18.9946 25.7327C18.4975 25.4383 18.0742 25.0343 17.7569 24.5515C17.4395 24.0687 17.2365 23.5198 17.1634 22.9467C17.0902 22.3736 17.1488 21.7914 17.3347 21.2444C17.7145 20.0948 18.4683 19.1055 19.4759 18.4343C20.4835 17.7631 21.6869 17.4487 22.8941 17.5412C23.4475 17.5723 23.9871 17.7256 24.4742 17.9902C24.9613 18.2548 25.3836 18.6241 25.7108 19.0714C26.0381 19.5188 26.2621 20.0332 26.3667 20.5775C26.4713 21.1218 26.454 21.6826 26.3159 22.2194Z" fill="#FFEDC0"/>
<path d="M26.447 21.5616C26.1354 22.7842 25.3976 23.8554 24.3664 24.5824C23.3351 25.3094 22.0783 25.6444 20.822 25.5272C20.253 25.4882 19.7003 25.32 19.206 25.0352C18.7118 24.7504 18.289 24.3567 17.9699 23.8839C17.6508 23.4111 17.4437 22.8717 17.3645 22.3068C17.2852 21.7419 17.3359 21.1664 17.5127 20.6241C17.8873 19.4834 18.6346 18.5018 19.6343 17.837C20.6341 17.1722 21.8284 16.8627 23.0252 16.9584C23.5705 16.9917 24.1019 17.1437 24.5824 17.4038C25.0628 17.6639 25.4806 18.0258 25.8065 18.4643C26.1325 18.9027 26.3587 19.4071 26.4693 19.9421C26.5799 20.4771 26.5723 21.0298 26.447 21.5616Z" fill="#F49937"/>
<path d="M25.6033 22.1339C25.3357 23.1749 24.705 24.0861 23.8249 24.7031C22.9448 25.3202 21.8733 25.6027 20.8033 25.4995C20.3162 25.4645 19.8436 25.3186 19.4214 25.0731C18.9993 24.8276 18.6388 24.4889 18.3675 24.0828C18.0962 23.6767 17.9212 23.214 17.8559 22.7301C17.7906 22.2461 17.8368 21.7536 17.9908 21.2901C18.3029 20.3144 18.936 19.4729 19.7871 18.9027C20.6382 18.3324 21.6572 18.067 22.6783 18.1495C23.1504 18.175 23.6109 18.3048 24.0268 18.5297C24.4426 18.7546 24.8034 19.0688 25.0832 19.4499C25.3629 19.831 25.5547 20.2694 25.6446 20.7335C25.7346 21.1976 25.7205 21.6759 25.6033 22.1339Z" fill="#FFD766"/>
<path d="M23.3436 17.8125L23.6717 20.175L26.0998 21.1031L23.6061 22.3969L23.1373 25.0219L21.2342 23.2781L18.4404 23.9156L19.8842 21.5437L18.7498 19.4344L21.4029 19.6687L23.3436 17.8125Z" fill="#F49937"/>
</g>
<defs>
<linearGradient id="paint0_linear_52_51343" x1="8.12777" y1="6.66584" x2="26.0809" y2="6.66584" gradientUnits="userSpaceOnUse">
<stop stop-color="#F38C05"/>
<stop offset="1" stop-color="#B85A1B"/>
</linearGradient>
<linearGradient id="paint1_linear_52_51343" x1="21.525" y1="12.5156" x2="26.2875" y2="12.5156" gradientUnits="userSpaceOnUse">
<stop stop-color="#F38C05"/>
<stop offset="1" stop-color="#B85A1B"/>
</linearGradient>
<linearGradient id="paint2_linear_52_51343" x1="15.6848" y1="25.2439" x2="16.381" y2="25.283" gradientUnits="userSpaceOnUse">
<stop stop-color="#BDD6DE"/>
<stop offset="1" stop-color="white"/>
</linearGradient>
<linearGradient id="paint3_linear_52_51343" x1="15.9262" y1="22.8314" x2="16.8873" y2="22.8854" gradientUnits="userSpaceOnUse">
<stop stop-color="white"/>
<stop offset="1" stop-color="#BDD6DE"/>
</linearGradient>
<linearGradient id="paint4_linear_52_51343" x1="3.68479" y1="-3.17631" x2="3.58767" y2="-2.18481" gradientUnits="userSpaceOnUse">
<stop stop-color="#BDD6DE"/>
<stop offset="1" stop-color="white"/>
</linearGradient>
<linearGradient id="paint5_linear_52_51343" x1="-4.8867" y1="-4.43234" x2="-5.0637" y2="-3.5209" gradientUnits="userSpaceOnUse">
<stop stop-color="#BDD6DE"/>
<stop offset="1" stop-color="white"/>
</linearGradient>
<linearGradient id="paint6_linear_52_51343" x1="14.9434" y1="13.9875" x2="20.8121" y2="13.9875" gradientUnits="userSpaceOnUse">
<stop stop-color="#F38C05"/>
<stop offset="1" stop-color="#B85A1B"/>
</linearGradient>
<linearGradient id="paint7_linear_52_51343" x1="7.2373" y1="13.1717" x2="13.0967" y2="13.1717" gradientUnits="userSpaceOnUse">
<stop stop-color="#F38C05"/>
<stop offset="1" stop-color="#B85A1B"/>
</linearGradient>
<clipPath id="clip0_52_51343">
<rect width="30" height="30" fill="white"/>
</clipPath>
</defs>
</svg>
