<svg width="19" height="16" viewBox="0 0 19 16" fill="none" xmlns="http://www.w3.org/2000/svg">
<path d="M4.47566 6.90236C2.52077 6.90236 0.771665 5.49759 0.771665 3.74162C0.771665 1.98565 2.52077 0.668676 4.47566 0.668676C6.43055 0.668676 8.07677 2.07345 8.07677 3.74162C8.07677 5.49759 6.43055 6.90236 4.47566 6.90236Z" stroke="#8F9CAC" stroke-width="1.3" stroke-miterlimit="10" stroke-linecap="round" stroke-linejoin="round"/>
<path d="M6.12228 15.331H2.72695C1.69807 15.331 0.669179 14.6286 0.669179 13.7506V10.8533C0.669179 9.88752 1.59518 9.18513 2.72695 9.18513H6.12228C7.15117 9.18513 8.07717 9.88752 8.07717 10.8533V13.7506C8.07717 14.5408 7.15117 15.331 6.12228 15.331Z" stroke="#8F9CAC" stroke-width="1.3" stroke-miterlimit="10" stroke-linecap="round" stroke-linejoin="round"/>
<path d="M16.1033 15.331H12.708C11.6791 15.331 10.7531 14.6286 10.7531 13.6628V2.33685C10.7531 1.45886 11.5762 0.668676 12.708 0.668676H16.1033C17.1322 0.668676 18.0582 1.37106 18.0582 2.33685V13.6628C18.0582 14.5408 17.1322 15.331 16.1033 15.331Z" stroke="#8F9CAC" stroke-width="1.3" stroke-miterlimit="10" stroke-linecap="round" stroke-linejoin="round"/>
</svg>
