<svg width="30" height="30" viewBox="0 0 30 30" fill="none" xmlns="http://www.w3.org/2000/svg">
<g clip-path="url(#clip0_52_41521)">
<path d="M19.3125 22.3125H18.9375C16.6875 22.2187 14.5312 21.2812 12.9375 19.5C11.3438 17.8125 10.5 15.6562 10.5 13.4062C10.5937 9.09375 13.9687 5.8125 18.1875 5.8125H18.4688C19.9688 5.90625 21.4687 6.28125 22.7812 7.125L24.1875 6.1875L22.6875 6L22.5 3.46875L29.0625 3.9375L29.4375 10.125L27 10.0312L26.7187 8.0625L25.3125 9.46875C26.25 10.7813 26.8125 12.2812 26.9062 13.875C27.0937 16.125 26.3437 18.1875 24.8437 19.7812C23.5312 21.4688 21.5625 22.3125 19.3125 22.3125ZM18.375 8.4375C15.5625 8.4375 13.3125 10.6875 13.3125 13.5C13.3125 16.5938 15.8438 19.2188 18.9375 19.3125H19.125C20.5312 19.3125 21.9375 18.75 22.875 17.7188C23.8125 16.6875 24.2812 15.375 24.1875 13.875C24 10.9688 21.4687 8.4375 18.5625 8.34375C18.5625 8.4375 18.4688 8.4375 18.375 8.4375Z" fill="#374A54"/>
<path d="M22.9688 3.9375L28.7813 4.3125L29.0625 9L29.1562 9.84375L27.375 9.75L27.0938 7.5L25.0313 9.5625C25.9688 10.7812 26.625 12.375 26.7188 14.0625C27 18.4688 23.7188 22.0312 19.3125 22.0312H19.0312C14.4375 21.8438 10.7813 17.9062 10.875 13.5C10.9688 9.375 14.25 6.1875 18.2812 6.1875H18.5625C20.1562 6.28125 21.5625 6.75 22.875 7.59375L25.2188 6L23.1563 5.8125L22.9688 3.9375ZM19.125 19.6875C22.3125 19.6875 24.6563 17.1562 24.4688 13.9688C24.2813 10.875 21.6562 8.25 18.5625 8.15625H18.375C15.375 8.15625 12.9375 10.5 12.9375 13.5C12.9375 16.6875 15.5625 19.5 18.8438 19.6875H19.125ZM22.3125 3.28125L22.4062 3.9375L22.5 5.8125V6.28125L22.9688 6.375H23.3438L22.7812 6.75C21.4688 6 19.9688 5.53125 18.5625 5.4375H18.2812C13.875 5.4375 10.3125 8.90625 10.2188 13.3125C10.2188 15.6562 11.0625 17.9062 12.75 19.5938C14.4375 21.375 16.5938 22.4062 18.9375 22.5H19.3125C21.5625 22.5 23.7188 21.5625 25.2188 19.9688C26.7188 18.375 27.4688 16.125 27.375 13.875C27.2813 12.2812 26.7188 10.7813 25.875 9.46875L26.4375 8.90625L26.8125 9.75L26.9063 10.2187H27.4688L29.25 10.3125H29.9062L30 9L29.4375 4.21875V3.65625H28.875L23.0625 3.28125H22.3125ZM19.125 19.125H18.9375C16.0313 19.0312 13.5938 16.5 13.5938 13.5938C13.5938 10.9688 15.6563 8.8125 18.375 8.8125H18.5625C21.375 8.90625 23.7188 11.25 23.9062 14.0625C24 15.4688 23.5313 16.6875 22.5938 17.625C21.75 18.5625 20.5312 19.125 19.125 19.125Z" fill="#374A54"/>
<path d="M14.625 28.6875C10.875 28.6875 7.59375 26.25 6.375 22.5938C5.8125 21 5.71875 19.3125 6.09375 17.7187L4.40625 16.5L4.78125 18.0937L2.25 19.0312L0.375 12.4687L6.65625 10.4062L7.5 12.6562L5.625 13.4062L7.6875 14.3437C8.625 13.0312 9.9375 12.0937 11.4375 11.625C12.1875 11.3437 13.125 11.25 14.0625 11.25C17.5312 11.25 20.7188 13.4062 22.125 16.6875C23.0625 18.9375 23.0625 21.4688 22.125 23.625C21.2812 25.6875 19.5938 27.2812 17.5312 28.125C16.6875 28.5 15.6562 28.6875 14.625 28.6875ZM14.1562 13.9687C13.5 13.9687 12.9375 14.0625 12.375 14.25C9.5625 15.2812 8.0625 18.5625 9.09375 21.5625C9.9375 24 12.1875 25.5937 14.625 25.5937C15.2812 25.5937 15.9375 25.5 16.5938 25.2187C18 24.6562 19.0312 23.625 19.5937 22.3125C20.25 20.9062 20.25 19.125 19.5937 17.7187C18.6562 15.4687 16.4062 13.9687 14.1562 13.9687Z" fill="#374A54"/>
<path d="M6.46875 10.7813L7.125 12.4688L4.875 13.4063L7.78125 14.7188C8.71875 13.4062 9.9375 12.4688 11.5312 11.9062C12.375 11.625 13.2188 11.4375 14.1562 11.4375C17.4375 11.4375 20.5312 13.4062 21.9375 16.6875C23.8125 21 21.9375 26.0625 17.625 27.75C16.6875 28.125 15.75 28.3125 14.8125 28.3125C11.3438 28.3125 8.0625 25.9688 6.84375 22.4062C6.28125 20.7188 6.28125 19.0313 6.65625 17.5313L4.125 15.75L4.6875 17.9063L2.71875 18.6562L1.03125 12.75L6.46875 10.7813ZM14.5312 25.875C15.1875 25.875 15.9375 25.7812 16.5938 25.5C19.6875 24.2812 21.0938 20.7188 19.7812 17.5313C18.75 15.0938 16.5 13.5938 14.0625 13.5938C13.4062 13.5938 12.75 13.6875 12.1875 13.9687C9.1875 15 7.59375 18.4688 8.71875 21.6563C9.65625 24.2813 12.0938 25.875 14.5312 25.875ZM6.84375 10.0312L6.28125 10.2187L0.5625 12.0937L0 12.2813L0.1875 12.8438L2.0625 19.4063L2.71875 19.125L4.6875 18.4688L5.15625 18.2812L5.25 17.625L5.8125 17.8125C5.53125 19.4062 5.625 21.0938 6.09375 22.5938C6.75 24.4688 7.875 26.0625 9.46875 27.1875C10.9688 28.3125 12.8438 28.875 14.7188 28.875C15.75 28.875 16.7812 28.6875 17.8125 28.3125C19.9688 27.4688 21.6562 25.875 22.5 23.7187C23.4375 21.4687 23.4375 18.8438 22.5 16.5C21.75 14.8125 20.625 13.4062 19.0312 12.375C17.5312 11.3438 15.8438 10.875 14.0625 10.875C13.125 10.875 12.1875 11.0625 11.25 11.3438C9.75 11.9063 8.53125 12.75 7.5 13.9687L6.28125 13.4063L7.21875 13.0312L7.78125 12.8438L7.59375 12.2813L6.9375 10.5938L6.84375 10.0312ZM14.5312 25.3125C12.1875 25.3125 10.125 23.8125 9.28125 21.4688C8.25 18.6562 9.65625 15.5625 12.375 14.625C12.9375 14.4375 13.5 14.3438 14.0625 14.3438C16.2188 14.3438 18.2812 15.75 19.2188 17.9063C19.7812 19.3125 19.7812 20.9062 19.2188 22.3125C18.6562 23.625 17.625 24.5625 16.4062 25.0312C15.8438 25.2188 15.1875 25.3125 14.5312 25.3125Z" fill="#374A54"/>
<path d="M19.5002 20.7188H19.1252C16.8752 20.625 14.719 19.6875 13.1252 18C11.5315 16.3125 10.6877 14.25 10.7815 12C10.8752 7.78125 14.2502 4.5 18.469 4.5H18.7502C20.2502 4.59375 21.7502 4.96875 22.969 5.8125L24.3752 4.875L23.0627 4.6875L22.8752 2.25L29.2502 2.625L29.6252 8.71875L27.1877 8.625L26.9065 6.75L25.5002 8.15625C26.4377 9.46875 27.0002 10.9687 27.094 12.4687C27.2815 14.625 26.5315 16.6875 25.0315 18.2812C23.719 19.875 21.6565 20.7188 19.5002 20.7188ZM18.6565 7.03125C15.844 7.03125 13.594 9.1875 13.594 12C13.594 15.0937 16.0315 17.625 19.1252 17.7187H19.3127C20.719 17.7187 22.0315 17.1562 23.0627 16.125C24.0002 15.0938 24.469 13.7812 24.3752 12.375C24.1877 9.46875 21.7502 7.03125 18.844 6.9375C18.7502 7.03125 18.6565 7.03125 18.6565 7.03125Z" fill="#374A54"/>
<path d="M23.1563 2.53125L28.9688 2.90625L29.3438 8.4375L27.5625 8.34375L27.1875 6.09375L25.125 8.15625C26.0625 9.375 26.7188 10.875 26.8125 12.5625C27.0938 16.875 23.8125 20.4375 19.4063 20.4375H19.125C14.625 20.25 10.9688 16.4062 11.0625 12C11.1563 7.875 14.4375 4.78125 18.4688 4.78125H18.75C20.3438 4.875 21.75 5.34375 22.9688 6.1875L25.3125 4.6875L23.25 4.5L23.1563 2.53125ZM19.3125 18.0938C22.5 18.0938 24.8438 15.5625 24.6562 12.4688C24.4688 9.375 21.8438 6.84375 18.75 6.75H18.5625C15.5625 6.75 13.2188 9.09375 13.125 12.0938C13.125 15.2812 15.75 18 18.9375 18.1875C19.125 18.0938 19.2188 18.0938 19.3125 18.0938ZM22.5 1.875L22.3125 3.28125L22.6875 4.40625V4.96875L23.25 5.0625H23.625L23.0625 5.4375C21.75 4.6875 20.3438 4.21875 18.8438 4.21875H18.5625C14.1562 4.21875 10.5938 7.6875 10.5 12C10.5 14.25 11.3438 16.5 12.9375 18.1875C14.625 19.875 16.7812 20.9062 19.125 21H19.5C21.75 21 23.9063 20.1562 25.4063 18.4688C26.9063 16.875 27.6563 14.7188 27.5625 12.4688C27.4688 10.9688 27 9.46875 26.0625 8.15625L26.8125 7.40625L26.9063 8.4375L27 9H27.5625L29.3438 9.09375H30V8.4375L29.625 2.8125V2.25H29.0625L23.25 1.875H22.5ZM19.3125 17.5313H19.125C16.2188 17.4375 13.875 15 13.875 12.0938C13.875 9.46875 16.0312 7.40625 18.6562 7.40625H18.8438C21.5625 7.5 24 9.84375 24.0938 12.5625C24.1875 13.875 23.7188 15.1875 22.7812 16.125C21.9375 16.9688 20.7188 17.5313 19.3125 17.5313Z" fill="#374A54"/>
<path d="M15.6562 26.625C12 26.625 8.625 24.1875 7.40625 20.625C6.84375 19.0312 6.75 17.4375 7.125 15.8437L5.53125 14.625L5.90625 16.125L3.375 17.0625L1.5 10.6875L7.6875 8.625L8.4375 10.9687L6.5625 11.7188L8.53125 12.6562C9.46875 11.4375 10.7812 10.5 12.1875 9.9375C13.0312 9.65625 13.9687 9.46875 14.9062 9.46875C18.375 9.46875 21.4688 11.5313 22.9688 14.8125C23.9062 16.9688 24 19.5 23.0625 21.6562C22.2188 23.7188 20.625 25.2187 18.5625 26.0625C17.625 26.4375 16.6875 26.625 15.6562 26.625ZM15.0938 12.1875C14.4375 12.1875 13.875 12.2813 13.3125 12.4688C10.5 13.5 9.09375 16.6875 10.125 19.5937C10.9688 21.9375 13.125 23.5312 15.5625 23.5312C16.2188 23.5312 16.875 23.4375 17.4375 23.1562C18.75 22.6875 19.875 21.6562 20.4375 20.25C21 18.8438 21 17.1562 20.4375 15.75C19.5937 13.5937 17.3438 12.1875 15.0938 12.1875Z" fill="#374A54"/>
<path d="M7.5 9.09375L8.15625 10.7813L5.90625 11.7188L8.8125 13.0312C9.65625 11.8125 10.9688 10.7812 12.4688 10.2187C13.3125 9.9375 14.1562 9.75 15 9.75C18.1875 9.75 21.375 11.7187 22.7812 14.9062C24.6562 19.125 22.7812 24.0937 18.5625 25.6875C17.625 26.0625 16.6875 26.25 15.75 26.25C12.2812 26.25 9 24 7.78125 20.4375C7.21875 18.8437 7.21875 17.1563 7.59375 15.6563L5.0625 13.875L5.625 15.9375L3.65625 16.6875L1.875 10.9688L7.5 9.09375ZM15.5625 23.9062C16.2188 23.9062 16.875 23.8125 17.625 23.5312C20.7188 22.4062 22.0312 18.8437 20.7188 15.75C19.6875 13.4062 17.4375 11.9062 15.0938 11.9062C14.4375 11.9062 13.7812 12 13.2188 12.1875C10.3125 13.2188 8.71875 16.5938 9.84375 19.6875C10.7812 22.2187 13.125 23.9062 15.5625 23.9062ZM7.875 8.34375L1.125 10.5938L0 12.2813L3 16.875L3.1875 17.5313L3.84375 17.3438L5.8125 16.5938L6.375 16.4062L6.28125 15.8437L6.1875 15.375L6.84375 15.9375C6.5625 17.5312 6.65625 19.125 7.21875 20.625C7.875 22.5 9 24 10.5938 25.125C12.0938 26.25 13.875 26.8125 15.75 26.8125C16.7812 26.8125 17.8125 26.625 18.75 26.25C20.9062 25.4062 22.5 23.8125 23.4375 21.6562C24.375 19.4062 24.375 16.875 23.3438 14.5312C22.5938 12.8438 21.4688 11.4375 19.9688 10.5C18.4688 9.5625 16.7812 9 15.0938 9C14.1562 9 13.2188 9.1875 12.2812 9.46875C10.875 9.9375 9.5625 10.875 8.625 12.0937L7.5 11.5313L8.4375 11.1562L9 10.9688L8.8125 10.4063L8.0625 8.90625L7.875 8.34375ZM15.5625 23.25C13.2188 23.25 11.1562 21.75 10.4062 19.5C9.375 16.6875 10.7812 13.6875 13.4062 12.75C13.9688 12.5625 14.5312 12.4688 15.0938 12.4688C17.25 12.4688 19.3125 13.875 20.1562 15.9375C20.7188 17.3438 20.7188 18.8438 20.1562 20.25C19.5938 21.4688 18.6562 22.5 17.3438 22.9687C16.7812 23.1562 16.2188 23.25 15.5625 23.25Z" fill="#374A54"/>
<path d="M23.1561 2.53125L23.2498 4.40625L25.3123 4.59375L22.9686 6.09375C21.7498 5.25 20.2498 4.78125 18.7498 4.6875C14.6248 4.5 11.1561 7.6875 11.0623 11.9063C10.9686 16.3125 14.6248 20.1563 19.1248 20.3438C23.6248 20.5313 27.0936 16.875 26.8123 12.4688C26.7186 10.7813 26.0623 9.28125 25.1248 8.0625L27.1873 6.09375L27.4686 8.34375L29.3436 8.4375L28.9686 2.90625L23.1561 2.53125ZM19.1248 18.0938C15.8436 18 13.2186 15.1875 13.3123 12C13.3123 8.90625 15.8436 6.5625 18.9373 6.65625C22.0311 6.75 24.6561 9.28125 24.8436 12.375C24.8436 15.6563 22.3123 18.1875 19.1248 18.0938Z" fill="#96D0EA"/>
<path d="M3.5625 16.7812L5.53125 16.0313L4.96875 13.9688L7.5 15.75C7.125 17.25 7.125 18.9375 7.6875 20.5312C9.28125 25.0312 14.1563 27.4688 18.4688 25.7812C22.6875 24.1875 24.5625 19.2188 22.6875 15C20.9062 10.9688 16.3125 8.90625 12.375 10.2187C10.875 10.7812 9.5625 11.7187 8.71875 13.0312L5.8125 11.7188L8.0625 10.7813L7.5 9.09375L1.875 10.9688L3.5625 16.7812ZM20.7188 15.6563C22.0312 18.75 20.625 22.3125 17.625 23.4375C14.5312 24.6562 10.9688 22.875 9.84375 19.6875C8.71875 16.5938 10.2188 13.2188 13.2188 12.1875C16.125 11.1563 19.5 12.6563 20.7188 15.6563Z" fill="#96D0EA"/>
<path d="M5.90625 11.7187L6.84375 11.25L6.28125 9.46875L1.875 10.9687L3.5625 16.7812L5.53125 16.0312L4.96875 13.9687L7.5 15.75C7.125 17.25 7.125 18.9375 7.6875 20.5312C8.34375 22.3125 9.46875 23.8125 10.875 24.8438L7.125 12.375L5.90625 11.7187Z" fill="#FF97FE"/>
<path d="M7.5 9.09375L6.375 9.46875L6.84375 11.25H6.9375L8.0625 10.7813L7.5 9.09375ZM16.5938 23.8125C13.7813 24.2813 10.875 22.5938 9.84375 19.7813C9 17.4375 9.65625 15 11.25 13.5C11.625 15.8438 13.125 18 15.1875 19.2188L13.6875 14.3438C13.5 13.9688 13.4062 13.5938 13.3125 13.2188L11.9062 8.625C11.5312 9.28125 11.25 10.0313 11.1562 10.7813C10.125 11.3438 9.28125 12.0937 8.71875 13.0312L7.21875 12.375H7.125L10.875 24.8438C10.875 24.8438 10.9687 24.8438 10.9687 24.9375C12.75 26.1563 15 26.7188 17.1562 26.25L16.5938 23.8125Z" fill="#B9BAFF"/>
<path d="M13.875 14.7188L15.1875 19.2188C16.3125 19.875 17.625 20.3438 19.125 20.3438C19.6875 20.3438 20.25 20.3438 20.8125 20.25L20.1562 18C19.7813 18.0938 19.5 18.0937 19.125 18.0937C16.7812 18 14.9063 16.6875 13.875 14.7188ZM18.6562 13.0312L17.8125 10.3125C16.5 9.84375 15.0938 9.65625 13.6875 9.9375C14.25 8.625 15.375 7.59375 16.7812 7.125L16.2187 5.15625C14.4375 5.71875 12.9375 6.9375 12 8.625V8.71875L13.4063 13.3125C13.4063 13.2188 13.3125 12.75 13.3125 12.5625V12.2813C15.0937 11.5313 17.0625 11.9062 18.6562 13.0312Z" fill="#68FF6A"/>
<path d="M13.875 14.7188C13.7812 14.5312 13.6875 14.4375 13.6875 14.25L15.1875 19.125C15.1875 19.125 15.2812 19.125 15.2812 19.2188L13.875 14.7188ZM20.8125 20.3438C20.25 21.75 19.125 22.9688 17.625 23.5313C17.3437 23.625 16.9688 23.7188 16.5938 23.8125H16.5L17.25 26.1562H17.3437C17.7187 26.0625 18.0938 25.9688 18.4688 25.7812C19.7812 25.2188 20.9062 24.375 21.75 23.3438L20.8125 20.3438Z" fill="#68FF6A"/>
<path d="M21.0937 5.25C20.3437 4.96875 19.5937 4.875 18.75 4.78125C17.9062 4.78125 17.0625 4.875 16.2187 5.0625H16.125L16.6875 7.03125H16.7812C17.3437 6.84375 18 6.75 18.75 6.75C19.875 6.75 20.9063 7.125 21.75 7.6875L21.0937 5.25ZM24.0938 15.1875C23.8125 15.6563 23.5313 16.0312 23.1563 16.4062C23.0625 15.9375 22.875 15.375 22.6875 14.9062C21.75 12.75 19.9688 11.1563 17.9062 10.3125L17.7187 10.2188L18.5625 12.9375C18.5625 12.9375 18.6562 12.9375 18.6562 13.0312C19.5 13.6875 20.25 14.5313 20.7188 15.6563C21 16.3125 21.1875 17.0625 21.1875 17.7188C20.9062 17.8125 20.5312 17.9063 20.1562 18H20.0625L20.7188 20.25L21.6562 23.3438L21.75 23.25C22.5938 22.125 23.1562 20.7188 23.3437 19.2188C23.9062 18.8438 24.4688 18.375 24.9375 17.9063L24.0938 15.1875Z" fill="#D9D900"/>
<path d="M23.1562 2.53125L23.3437 4.40625L25.3125 4.59375L24.75 2.625L23.1562 2.53125Z" fill="#FFB750"/>
<path d="M24.0938 15.1875L24.9375 18V17.9062L24.0938 15.1875Z" fill="#FF9700"/>
<path d="M26.8125 12.5625C26.7188 10.875 26.0625 9.375 25.125 8.15625L26.25 7.03125L25.3125 4.6875L22.9688 6.1875C22.4063 5.8125 21.75 5.53125 21.0938 5.25H21L21.75 7.78125H21.8437C23.4375 8.8125 24.4688 10.5 24.5625 12.4688C24.6563 13.4062 24.375 14.3438 24 15.0938L24.8438 17.9062C26.25 16.5 27 14.625 26.8125 12.5625Z" fill="#FFB750"/>
<path d="M28.9688 3.09375V2.90625L24.8438 2.625H24.75L25.3125 4.59375L26.1562 7.21875V7.125L27.1875 6.09375L27.5625 8.34375L29.3437 8.4375L28.9688 3.09375Z" fill="#FFA7A7"/>
<path d="M23.7188 2.90625L28.5938 3.1875L28.875 7.875H28.0313L27.6563 4.21875L23.9063 3.84375L23.7188 2.90625Z" fill="#FFE3E3"/>
<path d="M26.8125 3.84375C26.8125 3.9375 23.0625 6.75 23.0625 6.75L23.7187 7.5L27.8438 4.03125L26.8125 3.84375Z" fill="#FFE3E3"/>
<path d="M12.0938 10.3132C12.0938 10.3132 15.75 3.00065 23.625 7.4069L23.8125 6.6569C23.8125 6.6569 20.4375 4.31315 16.6875 5.25065C12.9375 6.18815 12.0938 10.3132 12.0938 10.3132Z" fill="white"/>
<path d="M10.7812 11.0625C10.7812 11.0625 12.6562 9.65625 15.4687 9.75L16.125 9.09375C16.125 9.09375 13.5937 8.34375 11.1562 9.84375L10.7812 11.0625ZM10.4062 14.4375C10.4062 14.4375 11.9063 11.7187 15.1875 11.9062L15 13.5938C15 13.5938 12.6562 13.9688 10.9687 15.4688L10.4062 14.4375Z" fill="#374A54"/>
<path opacity="0.77" d="M20.625 17.9063C20.625 17.9063 23.4375 17.5312 24.375 14.5312L23.5313 15.0938C23.5313 15.0938 22.0313 16.5938 19.7813 16.4062L20.625 17.9063ZM19.7813 20.4375C19.7813 20.4375 22.9688 20.25 24.75 18.2812L24.5625 20.1562C24.5625 20.1562 23.625 22.7812 18.6562 21.9375L19.7813 20.4375Z" fill="#374A54"/>
<path d="M12.2812 15.1875L13.3125 14.5312C13.3125 14.5312 13.9688 17.4375 18.375 18.4688C18.375 18.4688 13.6875 18.4688 12.2812 15.1875Z" fill="#7DC0D8"/>
<path d="M2.4375 11.1562L7.125 9.65625L7.59375 10.5938L4.21875 11.8125L4.875 15.5625L3.75 16.0312L2.4375 11.1562Z" fill="#FFDEFF"/>
<path d="M4.125 11.25L9.5625 13.9687L8.71875 15.0938L3.65625 12.0937L4.125 11.25Z" fill="#FFDEFF"/>
<path d="M19.9687 22.4063C19.9687 22.4063 21.4688 22.5 22.125 22.3125C22.125 22.3125 19.5 25.2188 15.5625 24.5625C15.5625 24.5625 18.9375 24.1875 19.9687 22.4063Z" fill="#7DC0D8"/>
<path d="M9.56214 13.9688C9.56214 13.9688 6.56214 22.2188 14.2496 24.5625C14.2496 24.5625 6.09339 24.1875 8.53089 14.25L9.56214 13.9688Z" fill="#FFDEFF"/>
<path d="M9.46875 14.3439C9.46875 14.3439 12.75 7.7814 21 13.4064C21 13.4064 19.125 10.2189 14.8125 10.4064C9.65625 10.5939 8.4375 14.5314 8.4375 14.5314L9.46875 14.3439Z" fill="#D4F4FF"/>
<path d="M22.125 6.65625C22.125 6.65625 27.0938 9.28125 24.4688 17.25C24.4688 17.25 28.0312 13.0312 23.9062 6.75L22.125 6.65625Z" fill="#FFE3E3"/>
</g>
<defs>
<clipPath id="clip0_52_41521">
<rect width="30" height="30" fill="white"/>
</clipPath>
</defs>
</svg>
