<svg width="45" height="45" viewBox="0 0 45 45" fill="none" xmlns="http://www.w3.org/2000/svg">
<g clip-path="url(#clip0_52_57582)">
<path d="M14.3437 28.125C14.3437 28.125 15.1875 32.2031 14.625 36.2812L14.0625 40.0781C14.0625 40.0781 19.8281 39.0937 21.7969 36.9844C23.7656 34.875 26.1563 26.8594 26.1563 26.8594L23.7656 24.1875L14.3437 28.125Z" fill="#5C2E0E"/>
<path d="M39.6561 23.7672C38.5311 34.0328 29.2499 41.3453 19.1249 40.0797C8.85926 38.9547 3.23426 29.814 5.06239 19.689C6.74989 11.2515 15.328 3.23591 25.453 4.50153C35.578 5.76716 40.9218 13.6422 39.6561 23.7672Z" fill="#5C2E0E"/>
<path d="M39.5152 23.2035C38.3902 33.0472 27.8433 43.7347 18.4214 42.6097C8.99954 41.4847 3.93704 29.1097 5.06204 19.266C6.18704 9.70347 12.5152 2.10972 24.3277 3.51597C33.8902 4.64097 40.6402 13.5003 39.5152 23.2035Z" fill="#5C2E0E"/>
<path d="M29.8882 24.6255C30.7124 17.4496 25.7509 10.9859 18.8065 10.1883C11.862 9.39077 5.56439 14.5615 4.74026 21.7374C3.91613 28.9133 8.87761 35.377 15.822 36.1745C22.7665 36.9721 29.0641 31.8014 29.8882 24.6255Z" fill="#5C2E0E"/>
<path d="M34.1716 21.6568C34.1716 21.6568 35.0154 27.0006 33.3279 29.1099C31.4998 31.2193 38.6716 32.2037 38.6716 32.2037C38.6716 32.2037 41.4841 26.4381 40.9216 23.2037C40.2185 19.9693 34.1716 21.6568 34.1716 21.6568ZM27.281 35.4381C29.6716 35.5787 24.7498 42.8912 21.9373 43.5943C19.1248 44.4381 14.4841 44.2974 12.5154 43.3131C10.5466 42.3287 6.18726 35.0162 5.62476 32.6256L4.49976 28.4068C4.49976 28.4068 5.06226 28.8287 6.46851 29.6724C8.71851 31.0787 14.0623 34.5943 27.281 35.4381ZM17.9998 29.2506C17.9998 29.2506 22.0779 27.9849 24.4685 29.2506C24.4685 29.2506 25.5935 30.5162 24.8904 30.7974C24.1873 31.2193 23.4841 31.9224 22.9216 31.2193C22.3591 30.6568 19.6873 29.2506 17.9998 29.2506ZM8.71851 26.2974C8.71851 26.2974 7.87476 23.6256 5.90601 23.3443C5.90601 23.3443 4.49976 23.7662 4.49976 24.3287C4.49976 24.8912 4.35914 25.7349 5.06226 25.4537C5.76539 25.3131 8.01539 25.4537 8.71851 26.2974Z" fill="#5C2E0E"/>
<path d="M26.4375 35.4377L32.3438 33.0471L33.3281 35.8596C33.3281 35.8596 30.0938 40.5002 23.7656 42.3283L26.4375 35.4377ZM13.0781 25.5939L16.4531 26.2971L17.0156 23.9064L13.2187 23.2033L13.0781 25.5939ZM18.5625 21.0939C18.5625 21.0939 21.375 19.1252 24.6094 20.1096C27.8438 21.0939 30.375 24.0471 28.8281 24.6096C27.2812 25.1721 26.4375 23.9064 25.7344 22.7814C25.0312 21.6564 22.6406 20.5314 20.1094 22.6408C20.1094 22.6408 18.7031 22.2189 18.5625 21.0939ZM31.5 10.9689C23.9062 8.15645 12.7969 6.32832 6.89062 12.9377C9.70312 14.4846 15.4688 15.8908 15.4688 15.8908L17.4375 15.0471C24.0469 11.9533 31.2188 13.7814 35.4375 15.6096C34.7344 13.5002 33.4688 11.5314 31.5 10.9689Z" fill="#5C2E0E"/>
<path d="M38.8122 9.56327L37.1247 15.8914C37.1247 15.8914 27.281 9.7039 18.4216 13.782L16.7341 14.4851C16.7341 14.4851 7.87473 12.7977 7.1716 11.1102C7.1716 11.1102 5.4841 8.5789 6.46848 5.48515C6.46848 5.48515 8.8591 6.3289 9.14035 7.87577C9.14035 7.87577 7.1716 3.93827 11.1091 2.25077L11.3904 4.6414C11.3904 4.6414 18.5622 -0.702351 23.7654 -0.561726C23.7654 -0.561726 21.5154 1.54765 21.5154 4.21952C21.5154 4.21952 27.281 1.96952 33.3279 2.81327C33.3279 2.81327 32.6247 4.50077 31.2185 5.90702C31.2185 5.7664 35.156 7.31327 38.8122 9.56327Z" fill="#5C2E0E"/>
<path d="M32.2031 14.3438L28.9688 17.5781C28.9688 17.5781 32.4844 23.2031 31.7812 28.9688L40.5 24.8906L39.0937 14.9063C39.2344 14.9063 35.5781 14.4844 32.2031 14.3438Z" fill="#5C2E0E"/>
<path d="M30.5156 26.8594C30.6563 26.8594 34.875 26.1562 34.875 26.1562L35.0156 27.2812L30.5156 29.6719L30.9375 27.2812L30.5156 26.8594ZM38.5312 16.5938L30.375 17.5781C30.375 17.5781 30.9375 17.0156 31.5 19.4062L36.8438 19.8281C37.125 19.8281 39.5156 19.2656 39.5156 19.2656L38.5312 16.5938ZM32.7656 2.53125C32.7656 2.53125 29.25 4.92188 25.3125 5.625L32.3438 8.01562L25.4531 9.14063C23.4844 9.28125 21.2344 9.70312 21.2344 9.70312L31.0781 11.1094C31.0781 11.1094 23.3438 11.25 19.9688 13.0781C19.9688 13.0781 29.3906 11.1094 37.125 15.75L38.3906 15.1875L41.2031 10.4062C41.2031 10.4062 36.8438 7.59375 34.0313 6.89062L32.0625 6.04688C32.0625 6.04688 33.0469 3.375 33.6094 2.39062L32.7656 2.53125Z" fill="#5C2E0E"/>
<path d="M41.0625 10.5469L32.9062 10.4062L36.9844 12.375L29.1094 12.6562C29.1094 12.6562 33.0469 13.2188 34.7344 15.8906L36 16.3125L38.9531 15.6094L41.0625 10.5469ZM6.32812 9.28125C6.32812 9.28125 8.85938 11.25 11.1094 11.5312L21.5156 12.375L16.875 14.4844C16.875 14.4844 9.5625 13.5 8.29688 12.375C7.03125 11.3906 6.32812 9.28125 6.32812 9.28125ZM13.9219 1.6875C13.9219 1.6875 11.9531 6.1875 12.9375 9C12.9375 9 10.8281 6.32812 11.1094 3.23437C11.1094 3.23437 12.2344 1.82812 13.9219 1.6875Z" fill="#5C2E0E"/>
<path d="M20.25 0C20.25 0 15.6094 1.54688 13.9219 4.07812C12.2344 6.60938 12.6563 8.01562 12.6563 8.01562C12.6563 8.01562 13.6406 5.20312 15.4688 4.21875C17.2969 3.23438 20.25 0 20.25 0ZM29.1094 3.09375C29.25 3.09375 23.7656 2.95313 20.3906 5.48438C17.0156 8.01562 14.7656 9.14062 14.7656 9.14062L21.375 6.75C21.5156 6.75 26.5781 3.23438 29.1094 3.09375ZM35.0156 29.3906C35.0156 29.3906 37.8281 27.4219 39.2344 27.7031C40.6406 27.9844 42.0469 34.875 36.7031 35.2969C31.3594 35.8594 35.0156 29.3906 35.0156 29.3906Z" fill="#5C2E0E"/>
<path d="M34.7344 29.9535C34.7344 29.9535 38.25 26.016 39.9375 26.4379C41.625 26.8598 42.8906 35.8598 36.4219 36.2816C29.9531 36.7035 34.7344 29.9535 34.7344 29.9535Z" fill="#5C2E0E"/>
<path d="M35.4377 28.9688C35.4377 28.9688 37.8283 27.5626 38.9533 27.8438C40.0783 28.1251 41.0627 34.172 36.5627 34.4532C32.0627 34.7345 35.4377 28.9688 35.4377 28.9688Z" fill="#5C2E0E"/>
<path d="M34.875 29.3907C34.875 29.3907 37.2656 27.9845 38.3906 28.2657C39.6562 28.547 40.5 34.5938 36 34.8751C31.5 35.1563 34.875 29.3907 34.875 29.3907ZM18 40.6407C15.8906 42.8907 11.1094 41.4845 11.3906 39.5157L18 40.6407ZM23.625 36.1407C22.7812 36.422 21.6562 36.7032 20.6719 36.7032C16.7344 36.7032 13.2188 36.1407 9.14062 35.0157C9.70312 35.4376 10.125 35.5782 10.6875 35.7188C11.25 36.5626 11.5313 37.547 11.6719 38.2501C11.25 38.2501 10.9688 38.5313 10.2656 38.2501C12.9375 39.797 17.0156 40.2188 18.5625 39.6563C19.6875 39.2345 21.9375 38.1095 24.1875 36.2813C23.9063 36.422 23.7656 36.2813 23.625 36.1407Z" fill="#5C2E0E"/>
<path d="M24.3281 35.8594C24.1875 35.7188 24.0469 35.7187 24.0469 35.5781H24.1875C24.0469 35.5781 23.9062 35.4375 23.9062 35.4375C22.9219 35.8594 21.6562 36.2812 20.6719 36.2812C16.7344 36.2812 13.2188 35.7188 9.14062 34.3125V35.0156C9.70312 35.4375 10.2656 35.5781 10.8281 35.7188C11.3906 36.8438 11.3906 37.6875 11.5312 38.6719C11.1094 38.6719 10.8281 38.5312 10.125 38.3906C12.6562 40.3594 19.125 41.2031 20.6719 40.5C21.9375 40.0781 22.5 38.3906 24.3281 35.8594C24.3281 36 24.3281 36 24.3281 35.8594Z" fill="#5C2E0E"/>
<path d="M11.3906 36.1406C11.6719 36.8438 11.9531 37.6875 12.0938 38.3906V38.5312C12.375 38.6719 12.6562 38.8125 12.9375 38.8125C13.9219 39.0937 15.0469 39.375 16.0312 39.5156C16.5937 39.5156 17.5781 39.6562 18.2812 39.5156C19.2656 39.2344 20.25 38.6719 21.0937 38.1094C21.6562 37.6875 22.2187 37.4062 22.9219 36.9844L20.6719 37.2656C17.4375 37.125 14.4844 36.8438 11.3906 36.1406Z" fill="#5C2E0E"/>
<path d="M11.3906 36.1406L11.8125 37.2656C12.0937 37.4062 12.5156 37.5469 12.7969 37.6875C12.375 37.8281 12.2344 37.9687 12.0938 38.3906C13.6406 38.9531 18 39.7969 19.4062 39.2344C19.9688 39.0937 20.3906 38.9531 20.9531 38.6719C20.6719 38.5312 19.2656 38.3906 18.8437 38.25C19.6875 38.25 20.6719 37.9687 21.0937 37.6875C21.2344 37.5469 21.6562 37.2656 21.7969 36.9844C21.375 37.125 20.9531 37.125 20.5312 37.125C17.4375 37.125 14.4844 36.8438 11.3906 36.1406Z" fill="#5C2E0E"/>
<path d="M11.6719 36.7044C11.8125 36.845 11.8125 37.1263 11.9531 37.2669C12.2344 37.4075 12.6562 37.5481 12.9375 37.6888C12.5156 37.8294 12.375 37.97 12.2344 38.3919C13.6406 38.9544 16.5937 39.6575 18.1406 39.3763C18.5625 38.9544 18.8437 38.2513 18.9844 37.5481C16.4531 37.5481 14.2031 37.4075 11.6719 36.7044ZM27.5625 31.7825C25.875 31.6419 24.3281 32.0638 23.0625 32.6263C21.375 32.6263 20.6719 32.4856 19.4062 32.2044C16.7344 30.2356 17.8594 27.4231 19.4062 25.4544C20.1094 24.6106 21.2344 24.1888 22.3594 24.3294C25.3125 24.8919 27.4219 25.7356 28.125 26.2981C28.6875 27.5638 29.1094 31.3606 27.5625 31.7825Z" fill="#5C2E0E"/>
<path d="M27.5627 31.7829C26.0158 31.7829 24.7502 32.0642 23.4846 32.6267C21.7971 32.486 20.9533 32.3454 19.8283 31.7829C18.5627 30.236 18.8439 27.5642 20.3908 26.1579C22.0783 25.8767 27.1408 26.861 28.1252 27.986C28.8283 29.2517 28.5471 30.9392 27.5627 31.7829Z" fill="#5C2E0E"/>
<path d="M19.125 28.4079C19.2656 27.5641 20.5312 25.8766 21.0937 25.3141C22.7812 25.0329 26.4375 25.1735 27.4219 26.2985C27.7031 26.7204 28.5469 29.111 28.5469 29.6735C26.7187 31.361 20.1094 31.361 19.2656 28.8298C19.2656 28.5485 19.2656 28.5485 19.125 28.4079Z" fill="#5C2E0E"/>
<path d="M27.4219 27.5625C27.9844 28.125 28.2656 29.1094 28.2656 29.8125C28.2656 30.5156 27.8438 31.2188 27.2812 31.7813C26.1562 31.7813 25.1719 31.9219 24.1875 32.3438C22.9219 31.7812 22.3594 30.5156 22.3594 29.5312C22.3594 28.2656 23.3438 27 24.8906 26.7188C26.0156 27 26.8594 27.2813 27.4219 27.5625Z" fill="#5C2E0E"/>
<path d="M25.4527 27.9851C26.4371 27.9851 27.1402 28.8288 26.9996 29.8132C26.9996 30.7976 26.1559 31.5007 25.1715 31.5007C24.1871 31.5007 23.484 30.657 23.6246 29.6726C23.7652 28.5476 24.609 27.8445 25.4527 27.9851ZM11.109 22.5007C11.9527 24.6101 11.5309 27.5632 10.4059 29.9538C8.85898 30.7976 5.76523 30.0945 4.4996 28.8288C3.9371 26.4382 4.21835 23.0632 5.90585 21.3757C7.59335 19.6882 10.2652 20.2507 11.109 22.5007Z" fill="#5C2E0E"/>
<path d="M11.1097 23.2031C11.8128 25.1718 11.5315 28.4062 10.5472 30.5156C9.0003 30.6562 5.76592 29.9531 4.78155 28.8281C4.21905 26.7187 4.78155 23.6249 6.32842 22.2187C8.01592 20.8124 10.4065 21.2343 11.1097 23.2031Z" fill="#5C2E0E"/>
<path d="M11.25 23.9076C11.6719 24.892 11.6719 25.4545 11.6719 26.7201C9.98438 28.6889 5.20312 28.4076 5.20312 24.6107C5.48438 23.6264 5.90625 22.7826 6.60937 22.2201C8.01562 20.8139 10.4062 21.9389 11.25 23.9076Z" fill="#5C2E0E"/>
<path d="M9.5625 23.3436C11.25 23.4842 12.0938 25.3123 12.0938 26.7186C11.9531 28.2655 10.9687 29.953 9.28125 29.8123C7.59375 29.6717 6.75 27.8436 6.75 26.4373C6.75 25.0311 7.875 23.203 9.5625 23.3436Z" fill="#5C2E0E"/>
<path d="M9.4223 24.6094C10.2661 24.6094 10.9692 25.5937 10.8286 26.5781C10.8286 27.7031 9.9848 28.4063 9.14105 28.4063C8.2973 28.4063 7.59418 27.4219 7.7348 26.4375C7.87543 25.4531 8.57855 24.6094 9.4223 24.6094Z" fill="#5C2E0E"/>
<path d="M9.84418 22.9219C10.6879 22.9219 11.3911 23.625 11.2504 24.3281C11.2504 25.0312 10.5473 25.7344 9.70355 25.5938C8.8598 25.5938 8.15668 24.8906 8.2973 24.1875C8.2973 23.4844 9.00043 22.9219 9.84418 22.9219ZM26.5786 26.4375C27.4223 26.4375 28.1254 27.1406 27.9848 27.8438C27.9848 28.5469 27.2817 29.25 26.4379 29.1094C25.5942 28.9688 24.8911 28.4063 25.0317 27.7031C25.0317 26.8594 25.7348 26.2969 26.5786 26.4375Z" fill="#5C2E0E"/>
<path d="M16.1718 24.1873C16.1718 24.1873 15.3281 28.8279 15.75 30.9373C15.75 30.9373 23.625 33.7498 30.0937 31.7811L31.6406 27.4217C31.6406 27.5623 23.4843 23.9061 16.1718 24.1873ZM28.9687 32.0623C23.4843 33.6092 16.7343 31.0779 16.7343 31.0779C16.4531 29.2498 17.1562 24.6092 17.1562 24.6092C23.3437 24.4686 30.5156 28.4061 30.5156 28.4061L28.9687 32.0623Z" fill="#5C2E0E"/>
<path d="M16.1715 23.7659C16.1715 23.7659 15.1871 28.969 15.609 31.219C15.609 31.219 23.6246 34.1722 30.0934 32.2034L32.0621 27.1409C32.0621 27.1409 23.484 23.4847 16.1715 23.7659ZM28.9684 31.6409C23.484 33.1878 16.734 30.6565 16.734 30.6565C16.4528 28.8284 17.1559 24.7503 17.1559 24.7503C23.3434 24.6097 30.6559 27.7034 30.6559 27.7034L28.9684 31.6409ZM19.2653 21.3753L18.4215 20.8128C18.4215 20.8128 21.6559 16.8753 25.3121 18.9847C28.9684 21.094 29.109 23.2034 29.109 23.2034C29.109 23.2034 24.4684 17.4378 19.2653 21.3753Z" fill="#5C2E0E"/>
<path d="M15.0469 27.4219C15.0469 27.4219 15.75 31.0781 15.3281 34.7344L14.9062 38.1094C14.9062 38.1094 20.1094 37.2656 21.7969 35.2969C23.4844 33.3281 25.7344 26.1563 25.7344 26.1563L23.625 23.9062L15.0469 27.4219Z" fill="#FCC097"/>
<path d="M37.6877 24.3285C36.7033 33.4691 28.547 39.3754 19.4064 38.2504C10.2658 37.1254 5.34392 28.6879 7.03142 19.6879C8.43767 12.0941 15.8908 5.20349 25.0314 6.18787C34.172 7.17224 38.8127 15.1879 37.6877 24.3285Z" fill="#E8BD89"/>
<path d="M37.6877 23.0638C36.7033 31.7826 27.2814 41.4857 18.7033 40.5013C10.1252 39.517 5.7658 28.4076 6.75017 19.5482C7.87517 10.9701 13.3595 5.48571 23.9064 6.61071C32.4845 7.59508 38.672 14.3451 37.6877 23.0638Z" fill="#E8BD89"/>
<path d="M28.9697 24.3501C29.7052 17.9458 25.2974 12.1794 19.1246 11.4705C12.9518 10.7616 7.35145 15.3786 6.61594 21.7829C5.88043 28.1872 10.2882 33.9536 16.4611 34.6625C22.6339 35.3715 28.2342 30.7544 28.9697 24.3501Z" fill="#FFD097"/>
<path d="M32.9066 21.657C32.9066 21.657 33.7504 26.4383 32.0629 28.407C30.516 30.2352 36.8441 31.2195 36.8441 31.2195C36.8441 31.2195 39.3754 26.0164 38.8129 23.2039C38.2504 20.3914 32.9066 21.657 32.9066 21.657Z" fill="#63310F"/>
<path d="M26.7188 34.0313C28.9688 34.1719 24.4688 40.6406 21.9375 41.3437C19.4063 42.0469 15.1875 41.9063 13.5 41.0625C11.6719 40.2188 7.875 33.6094 7.3125 31.5L6.46875 28.9688C6.46875 28.9688 6.89063 28.9688 8.15625 29.6719C10.125 30.9375 14.7656 33.3281 26.7188 34.0313Z" fill="#D8B18B"/>
<path d="M7.73438 15.4688C7.73438 15.4688 9 13.0781 13.6406 15.1875L11.3906 10.4062C11.3906 10.4062 8.85938 12.0937 7.73438 15.3281" fill="#E5895B"/>
<path d="M25.875 34.0312L31.0781 31.9219L32.0625 34.4531C32.0625 34.4531 29.25 38.5312 23.4844 40.2187L25.875 34.0312Z" fill="#B79576"/>
<path d="M18.8437 18.9845C18.8437 18.9845 21.9375 16.8751 25.4531 17.8595C29.1094 18.9845 31.7812 22.2188 30.0937 22.7813C28.4062 23.3438 27.5625 22.0782 26.7188 20.8126C25.875 19.547 23.2031 18.422 20.5312 20.672C20.5312 20.672 18.9844 20.2501 18.8437 18.9845ZM4.35938 21.797C4.35938 21.797 6.04688 19.2657 9.14062 18.7032C12.0938 18.1407 14.9062 19.1251 13.9219 20.2501C12.9375 21.3751 11.8125 20.9532 10.8281 20.3907C9.84375 19.8282 6.32813 19.2657 5.20313 21.9376C5.20313 21.797 5.0625 22.5001 4.35938 21.797ZM30.375 11.9532C23.625 9.56259 13.2188 7.17197 7.875 13.2188C10.4062 14.6251 16.0312 16.4532 16.0312 16.4532L17.8594 15.7501C23.7656 12.9376 30.2344 14.6251 34.0312 16.172C33.4688 14.3438 32.2031 12.6563 30.375 11.9532Z" fill="#63310F"/>
<path d="M36.984 10.8272L35.4371 16.4522C35.4371 16.4522 26.5777 10.9678 18.7027 14.4834L17.1559 15.0459C17.1559 15.0459 9.14023 13.4991 8.57774 12.0928C8.57774 12.0928 7.03086 9.8428 8.01523 7.0303C8.01523 7.0303 8.85899 8.7178 9.14024 10.1241C9.14024 10.1241 9.28086 5.06155 12.9371 3.51468C12.9371 3.51468 12.3746 4.07718 12.6559 6.18655C12.6559 6.18655 17.5777 1.26468 22.2184 1.4053C22.2184 1.4053 20.2496 3.51468 20.2496 5.9053C20.2496 5.9053 26.859 3.6553 32.2027 4.49905C32.2027 4.49905 31.4996 6.04593 30.234 7.31155C30.234 7.31155 33.7496 8.85843 36.984 10.8272Z" fill="url(#paint0_linear_52_57582)"/>
<path d="M31.2188 15.1875L28.4062 18C28.4062 18 31.5 23.0625 30.9375 28.125L38.8125 24.4687L37.5469 15.4687C37.4062 15.6094 34.1719 15.1875 31.2188 15.1875Z" fill="#63310F"/>
<path d="M36.8438 17.0156L29.5312 18C29.5312 18 30.0938 17.4375 30.5156 19.5469L35.2969 19.9687C35.5781 19.9687 37.4063 19.4062 37.4063 19.4062L36.8438 17.0156Z" fill="url(#paint1_linear_52_57582)"/>
<path d="M31.6406 4.64062C31.6406 4.64062 28.5469 6.75 24.8906 7.45313L31.0781 9.5625C31.0781 9.5625 26.7188 10.5469 24.8906 10.5469C23.2031 10.5469 21.0938 10.9688 21.0938 10.9688L29.9531 12.2344C29.9531 12.2344 23.0625 12.375 19.9688 14.0625C19.9688 14.0625 28.4063 12.2344 35.2969 16.4531L36.4219 16.0312L38.5312 11.6719C38.5312 11.6719 35.0156 9.28125 32.4844 8.71875L30.6562 8.01562L32.0625 4.64062H31.6406Z" fill="#B85A1B"/>
<path d="M39.0937 11.8125L31.7812 11.6719L35.4375 13.5L28.4062 13.7812C28.4062 13.7812 31.9219 14.2031 33.4687 16.5938L34.5937 17.0156L37.2656 16.4531L39.0937 11.8125Z" fill="#63310F"/>
<path d="M7.875 10.6875C7.875 10.6875 10.125 12.5156 12.2344 12.6562L21.6562 13.3594L17.4375 15.1875C17.4375 15.1875 10.9688 14.2031 9.70313 13.3594C8.57813 12.375 7.875 10.6875 7.875 10.6875ZM12.7969 3.51562C12.7969 3.51562 11.6719 7.45312 12.6562 9.98438C12.6562 9.98438 10.8281 7.59375 10.9688 4.78125C10.9688 4.78125 11.25 3.65625 12.7969 3.51562Z" fill="#B85A1B"/>
<path d="M20.3906 2.25C20.3906 2.25 16.1719 3.65625 14.7656 5.90625C13.3594 8.15625 13.5 9.42188 13.5 9.42188C13.5 9.42188 14.3437 6.89063 16.0312 6.04688C17.7187 5.20313 20.3906 2.25 20.3906 2.25ZM28.4063 5.0625C28.5469 5.0625 23.625 4.92188 20.6719 7.17188C17.7187 9.42188 15.6094 10.4062 15.6094 10.4062L21.5156 8.29688C21.5156 8.29688 26.0156 5.20312 28.4063 5.0625Z" fill="#FFBA7B"/>
<path d="M33.6094 28.547C33.6094 28.547 36.1407 26.7189 37.4063 27.0001C38.6719 27.2814 39.9375 33.3282 35.1563 33.8907C30.375 34.4532 33.6094 28.547 33.6094 28.547Z" fill="#63310F"/>
<path d="M33.4683 29.1094C33.4683 29.1094 36.5621 25.5937 38.1089 26.0156C39.6558 26.2969 40.7808 34.4531 35.0152 34.875C29.2496 35.2969 33.4683 29.1094 33.4683 29.1094Z" fill="#E8BD89"/>
<path d="M34.0314 28.2654C34.0314 28.2654 36.1408 26.9998 37.2658 27.281C38.3908 27.5623 39.2346 32.906 35.1564 33.1873C31.0783 33.4685 34.0314 28.2654 34.0314 28.2654Z" fill="#C18053"/>
<path d="M33.4689 28.6873C33.4689 28.6873 35.5783 27.4216 36.7033 27.7029C37.8283 27.9841 38.6721 33.3279 34.5939 33.6091C30.5158 33.8904 33.4689 28.6873 33.4689 28.6873Z" fill="#CE9D67"/>
<path d="M18.4222 39.2344C16.594 41.2031 12.2347 40.0781 12.5159 38.1094L18.4222 39.2344Z" fill="#FFBC8F"/>
<path d="M23.3438 35.1563C22.5 35.4375 21.5156 35.5781 20.6719 35.5781C17.1562 35.5781 13.9219 35.1563 10.4062 34.1719C10.8281 34.4531 11.25 34.7344 11.8125 34.875C12.2344 35.5781 12.5156 36.5625 12.6562 37.125C12.375 37.125 11.9531 37.4063 11.3906 37.125C13.7813 38.5313 17.4375 38.8125 18.8437 38.3906C19.8281 38.1094 21.9375 36.9844 23.9063 35.4375C23.625 35.4375 23.4844 35.2969 23.3438 35.1563Z" fill="#9A4C18"/>
<path d="M24.0469 35.0156C23.9063 35.0156 23.9062 34.875 23.7656 34.7344H23.9062C23.7656 34.7344 23.625 34.5938 23.625 34.5938C22.7812 35.0156 21.6562 35.2969 20.8125 35.2969C17.2969 35.2969 14.0625 34.875 10.5469 33.6094V34.1719C10.9688 34.5937 11.6719 34.7344 12.0938 34.875C12.5156 35.8594 12.6562 36.5625 12.6562 37.5469C12.375 37.5469 11.9531 37.4063 11.3906 37.2656C13.6406 38.9531 19.4062 39.7969 20.8125 39.0937C21.7969 38.6719 22.3594 37.125 24.0469 35.0156Z" fill="#63310F"/>
<path d="M12.375 35.1562L13.0781 37.125V37.2656C13.3594 37.4062 13.6406 37.4063 13.9219 37.5469C14.7656 37.8281 15.75 38.1094 16.7344 38.1094C17.2969 38.1094 18.1406 38.25 18.7031 38.1094C19.5469 37.8281 20.3906 37.2656 21.2344 36.8438C21.7969 36.5625 22.3594 36.1406 22.7813 35.7187C22.0781 35.8594 21.2344 36 20.8125 36C17.8594 36.1406 15.1875 35.8594 12.375 35.1562Z" fill="#792936"/>
<path d="M13.5 35.5781C13.6406 35.8594 13.6406 36.1406 13.7812 36.4219C13.9219 36.5625 14.3437 36.7031 14.4844 36.7031C14.2031 36.7031 14.0625 36.8438 13.9219 37.2656C14.9062 37.6875 18 38.25 19.125 37.8281C19.5469 37.6875 19.8281 37.6875 20.1094 37.4063C19.9687 37.2656 18.9844 37.125 18.7031 37.125C19.2656 37.125 19.9687 36.9844 20.25 36.7031C20.3906 36.5625 20.6719 36.4219 20.6719 36.1406C20.3906 36.1406 20.1094 36.2813 19.8281 36.2813C17.5781 36.2813 15.6094 36 13.5 35.5781Z" fill="url(#paint2_linear_52_57582)"/>
<path d="M13.6406 36C13.6406 36.1406 13.7813 36.2812 13.7813 36.4219C13.9219 36.5625 14.3438 36.7031 14.4844 36.7031C14.2031 36.7031 14.0625 36.8437 13.9219 37.2656C14.9062 37.6875 16.875 38.25 18 37.9687C18.2813 37.6875 18.5625 37.2656 18.5625 36.7031C17.0156 36.5625 15.3281 36.4219 13.6406 36Z" fill="url(#paint3_linear_52_57582)"/>
<path d="M19.5469 19.4058L18.7031 18.8433C18.7031 18.8433 22.3594 14.4839 26.2969 16.8745C30.2344 19.2651 30.375 21.5151 30.375 21.5151C30.375 21.5151 25.3125 15.0464 19.5469 19.4058Z" fill="url(#paint4_linear_52_57582)"/>
<path d="M6.75 21.3757L6.04688 21.2351C6.04688 21.2351 6.75 17.2976 9.98437 17.5788C13.2187 17.8601 14.0625 19.2663 14.0625 19.2663C14.0625 19.2663 8.85938 16.8757 6.75 21.3757Z" fill="url(#paint5_linear_52_57582)"/>
<path d="M31.5001 31.2188C31.5001 31.2188 31.7814 34.1719 33.7501 34.875V35.1562L32.4845 35.5781C32.4845 35.5781 30.9376 34.4531 31.5001 31.2188Z" fill="#8E4028"/>
<path d="M14.2031 24.1875L17.4375 24.75L17.8594 22.3594L14.0625 21.7969L14.2031 24.1875ZM31.0781 24.6094C31.2188 24.6094 35.1562 23.7656 35.1562 23.7656L35.4375 24.8906L31.2188 27.5625L31.5 25.0312L31.0781 24.6094Z" fill="#181C1B"/>
<path d="M17.0156 22.2191C17.0156 22.2191 16.3125 27.5628 16.875 29.8128C16.875 29.8128 19.6875 36.1409 28.125 32.6253C29.1094 32.2034 29.9531 31.3597 30.5156 30.2347L32.625 24.8909C32.625 24.7503 24.0469 21.5159 17.0156 22.2191ZM29.25 29.5316C24.0469 31.3597 17.8594 29.1097 17.8594 29.1097C17.4375 27.2816 18 23.0628 18 23.0628C23.9062 22.6409 30.2344 25.1722 30.2344 25.1722L29.25 29.5316ZM1.6875 21.2347C1.6875 21.2347 2.25 25.7347 2.95312 27.7034C2.95312 27.7034 7.73438 31.3597 13.7813 29.2503L15.75 22.2191C15.6094 22.2191 5.625 19.5472 1.6875 21.2347ZM13.5 28.4066C8.57813 30.0941 3.375 27.1409 3.375 27.1409C2.8125 25.5941 2.25 21.7972 2.25 21.7972C5.76562 20.6722 13.6406 22.7816 13.6406 22.7816L13.5 28.4066Z" fill="#181C1B"/>
<path d="M1.6875 21.2355L2.53125 28.1261C2.95312 29.2511 4.78125 32.6261 7.45313 32.6261C10.125 32.6261 13.0781 31.5011 13.6406 29.2511C14.2031 27.0011 13.6406 24.4699 14.7656 24.8917C15.8906 25.3136 15.75 26.5792 15.75 27.2824C15.75 27.9855 15.1875 33.3292 20.5312 33.6105C25.875 33.8917 28.5469 32.7667 29.5312 29.2511L30.7969 25.0324L20.8125 22.3605L15.75 22.6417C15.8906 22.6417 5.0625 20.1105 1.6875 21.2355Z" fill="#181C1B"/>
<path d="M2.67188 22.2196C2.67188 22.2196 2.25 30.2352 6.46875 31.2196C10.6875 32.204 13.0781 30.2352 13.5 28.6884C13.9219 27.1415 13.9219 23.4852 13.9219 23.4852C13.9219 23.4852 8.85938 20.954 2.67188 22.2196ZM17.4375 23.7665C17.4375 23.7665 15.8906 32.3446 22.0781 32.9071C27 33.329 29.5312 31.2196 29.9531 29.954C30.375 28.6884 30.5156 25.7352 30.5156 25.7352C30.5156 25.7352 25.4531 23.204 17.4375 23.7665Z" fill="#2D3331"/>
<path d="M8.57812 21.9375L3.65625 28.4063C3.65625 28.4063 4.35938 30.375 5.76562 30.9375L7.03125 31.3594L12.6562 23.0625C12.7969 23.0625 9.84375 22.0781 8.57812 21.9375ZM21.7969 24.0469L18.4219 31.7812C18.4219 31.7812 20.5312 33.1875 24.1875 32.625L27.5625 24.8906C27.5625 25.0313 23.7656 23.9062 21.7969 24.0469Z" fill="#4B5451"/>
<path d="M17.8594 23.7656C17.8594 23.7656 27.5625 25.5938 28.9688 27.4219L29.1094 25.3125C28.9688 25.1719 22.0781 23.4844 17.8594 23.7656ZM3.9375 21.7969C3.9375 21.7969 13.3594 23.3437 13.9219 25.1719L14.0625 23.3438C13.9219 23.4844 11.6719 21.7969 3.9375 21.7969Z" fill="#616D67"/>
</g>
<defs>
<linearGradient id="paint0_linear_52_57582" x1="7.64216" y1="8.96389" x2="37.0235" y2="8.96389" gradientUnits="userSpaceOnUse">
<stop stop-color="#F38C05"/>
<stop offset="1" stop-color="#B85A1B"/>
</linearGradient>
<linearGradient id="paint1_linear_52_57582" x1="29.5696" y1="18.5463" x2="37.3618" y2="18.5463" gradientUnits="userSpaceOnUse">
<stop stop-color="#F38C05"/>
<stop offset="1" stop-color="#B85A1B"/>
</linearGradient>
<linearGradient id="paint2_linear_52_57582" x1="19.0912" y1="36.8516" x2="19.8057" y2="36.7543" gradientUnits="userSpaceOnUse">
<stop stop-color="#BDD6DE"/>
<stop offset="1" stop-color="white"/>
</linearGradient>
<linearGradient id="paint3_linear_52_57582" x1="17.2915" y1="37.1483" x2="18.4912" y2="37.7572" gradientUnits="userSpaceOnUse">
<stop stop-color="white"/>
<stop offset="1" stop-color="#BDD6DE"/>
</linearGradient>
<linearGradient id="paint4_linear_52_57582" x1="18.7227" y1="18.821" x2="30.4767" y2="18.821" gradientUnits="userSpaceOnUse">
<stop stop-color="#F38C05"/>
<stop offset="1" stop-color="#B85A1B"/>
</linearGradient>
<linearGradient id="paint5_linear_52_57582" x1="6.00799" y1="21.3013" x2="13.1062" y2="17.5874" gradientUnits="userSpaceOnUse">
<stop stop-color="#F38C05"/>
<stop offset="1" stop-color="#B85A1B"/>
</linearGradient>
<clipPath id="clip0_52_57582">
<rect width="45" height="45" fill="white"/>
</clipPath>
</defs>
</svg>
