<svg width="40" height="40" viewBox="0 0 40 40" fill="none" xmlns="http://www.w3.org/2000/svg">
<path d="M34.0616 11.8408C33.7738 11.5181 33.454 11.2256 33.107 10.9678C33.2494 9.85129 33.1509 8.71722 32.8181 7.642C32.4853 6.56679 31.9259 5.57541 31.1775 4.73466C29.3709 2.69853 26.2914 1.66663 22.0239 1.66663H11.6674C10.9192 1.66862 10.1961 1.93654 9.62726 2.42253C9.05838 2.90852 8.68081 3.58093 8.56199 4.31963L4.24556 31.6634C4.1845 32.0299 4.20409 32.4053 4.30299 32.7634C4.40188 33.1216 4.57769 33.4539 4.81817 33.7371C5.05865 34.0204 5.35801 34.2478 5.69538 34.4035C6.03274 34.5591 6.40001 34.6394 6.77157 34.6386H11.2117L11.075 35.5061C11.0198 35.8551 11.0408 36.2119 11.1367 36.5519C11.2326 36.892 11.401 37.2072 11.6304 37.4759C11.8598 37.7446 12.1447 37.9604 12.4655 38.1084C12.7863 38.2564 13.1354 38.3331 13.4887 38.3333H18.8793C19.5777 38.3388 20.2551 38.0953 20.79 37.6463C21.3248 37.1974 21.6821 36.5724 21.7977 35.8837L22.8654 29.165L22.8833 29.0738H23.3813C30.1017 29.0738 34.2993 25.7519 35.5233 19.4693C35.8967 18.1724 35.9589 16.8057 35.7049 15.4802C35.451 14.1547 34.888 12.9078 34.0616 11.8408ZM13.0704 22.8401L11.8796 30.3989L11.7358 31.3053H7.67657L11.8286 4.99996H22.0239C25.2498 4.99996 27.5528 5.6738 28.6775 6.94006C29.2084 7.55731 29.5786 8.29608 29.7554 9.09079C29.9321 9.88551 29.9099 10.7116 29.6907 11.4956L29.6597 11.6827C29.6394 11.8101 29.621 11.9347 29.5873 12.093C29.2659 14.4746 28.0757 16.6533 26.2455 18.2106C24.1908 19.6395 21.7144 20.3341 19.2163 20.1823H16.1775C15.4271 20.1797 14.7008 20.4466 14.1306 20.9344C13.5604 21.4222 13.1842 22.0984 13.0704 22.8401ZM32.2517 18.8313C31.3338 23.5449 28.5148 25.7405 23.3813 25.7405H22.5756C21.8766 25.7351 21.1986 25.9793 20.6636 26.4292C20.1286 26.8792 19.7718 27.5053 19.6573 28.1949L18.5749 34.9853L14.5288 34.9999L15.3257 29.9435L16.3442 23.5221H19.2097C19.4711 23.5221 19.7021 23.4828 19.9566 23.4739C20.5547 23.4532 21.151 23.4302 21.7111 23.3607C22.0532 23.3181 22.3671 23.2404 22.695 23.1796C23.1492 23.0956 23.6037 23.0126 24.0301 22.8941C24.3474 22.8058 24.6434 22.6921 24.9452 22.5848C25.344 22.4433 25.7365 22.2948 26.1078 22.1203C26.3878 21.9885 26.6546 21.8419 26.9188 21.6915C27.2704 21.4923 27.6111 21.2744 27.9394 21.0387C28.1765 20.8677 28.4093 20.6922 28.6311 20.5037C28.9455 20.2326 29.2443 19.9438 29.5259 19.6388C29.7143 19.4379 29.9071 19.2429 30.0815 19.0267C30.3708 18.6581 30.6379 18.2726 30.8815 17.8723C31.0089 17.6687 31.1502 17.4803 31.2675 17.2659C31.6051 16.6482 31.8953 16.0056 32.1354 15.3438C32.1499 15.3041 32.1705 15.2705 32.1847 15.2305C32.1913 15.2118 32.2011 15.1962 32.2078 15.1774C32.538 16.3711 32.5532 17.63 32.2517 18.8313Z" fill="#393D46"/>
</svg>
