<svg width="123" height="96" viewBox="0 0 123 96" fill="none" xmlns="http://www.w3.org/2000/svg">
<path d="M23.7949 8.99659e-10L4.23275 1.60035e-10C1.90474 0 0 1.44832 2.10866e-10 3.20886L1.18541e-09 18.039C1.30138e-09 19.8038 1.91046 21.2478 4.23275 21.2478L23.7949 21.2478C26.1229 21.2478 28.0277 19.7995 28.0277 18.039L28.0277 3.20886C28.0277 1.44832 26.1172 9.87462e-10 23.7949 8.99659e-10Z" fill="#9949FF"/>
<path d="M116.278 95.7668L114.566 95.7668C114.374 95.7668 114.215 95.7233 114.089 95.6361C113.967 95.5447 113.882 95.4292 113.834 95.2898L113.272 93.63L109.652 93.63L109.09 95.2898C109.047 95.4118 108.962 95.5229 108.835 95.6231C108.709 95.7189 108.554 95.7668 108.371 95.7668L106.646 95.7668L110.332 86.2458L112.593 86.2458L116.278 95.7668ZM110.162 92.127L112.763 92.127L111.887 89.5197C111.83 89.3541 111.763 89.1603 111.684 88.9381C111.61 88.7116 111.536 88.4676 111.462 88.2062C111.392 88.472 111.321 88.7181 111.247 88.9446C111.172 89.1712 111.103 89.3672 111.037 89.5327L110.162 92.127Z" fill="#282C38"/>
<path d="M119.955 88.8858C120.403 88.8858 120.813 88.9555 121.183 89.0949C121.558 89.2343 121.878 89.4369 122.144 89.7027C122.414 89.9684 122.623 90.2951 122.771 90.6829C122.924 91.0662 123 91.5019 123 91.9898C123 92.1423 122.993 92.2664 122.98 92.3623C122.967 92.4581 122.943 92.5343 122.908 92.591C122.874 92.6476 122.826 92.6868 122.765 92.7086C122.708 92.7304 122.634 92.7413 122.542 92.7413L118.635 92.7413C118.7 93.3076 118.872 93.7193 119.151 93.9763C119.43 94.229 119.789 94.3553 120.229 94.3553C120.464 94.3553 120.667 94.327 120.837 94.2704C121.007 94.2138 121.157 94.1506 121.288 94.0809C121.423 94.0112 121.545 93.948 121.654 93.8914C121.767 93.8347 121.885 93.8064 122.007 93.8064C122.168 93.8064 122.29 93.8652 122.373 93.9829L122.961 94.7082C122.752 94.9478 122.525 95.1439 122.281 95.2963C122.041 95.4445 121.793 95.5621 121.536 95.6492C121.283 95.732 121.029 95.7886 120.772 95.8191C120.519 95.854 120.277 95.8714 120.046 95.8714C119.571 95.8714 119.125 95.7952 118.707 95.6427C118.293 95.4858 117.929 95.255 117.615 94.95C117.306 94.6451 117.06 94.266 116.877 93.813C116.698 93.3599 116.609 92.8328 116.609 92.2316C116.609 91.7785 116.685 91.3494 116.838 90.9442C116.994 90.5391 117.217 90.184 117.504 89.8791C117.796 89.5741 118.147 89.3324 118.556 89.1537C118.97 88.9751 119.436 88.8858 119.955 88.8858ZM119.994 90.2842C119.606 90.2842 119.303 90.3953 119.086 90.6175C118.868 90.8353 118.724 91.1512 118.654 91.565L121.183 91.565C121.183 91.4038 121.161 91.247 121.118 91.0945C121.079 90.9421 121.011 90.807 120.915 90.6894C120.824 90.5674 120.702 90.4694 120.549 90.3953C120.397 90.3213 120.212 90.2842 119.994 90.2842Z" fill="#282C38"/>
</svg>
