<svg width="30" height="30" viewBox="0 0 30 30" fill="none" xmlns="http://www.w3.org/2000/svg">
<g clip-path="url(#clip0_52_117801)">
<path d="M15.0021 0.681995C7.09442 0.681995 0.683949 7.09246 0.683949 15.0002C0.683949 22.9079 7.09442 29.3184 15.0021 29.3184C22.9098 29.3184 29.3203 22.9079 29.3203 15.0002C29.3203 7.09246 22.9098 0.681995 15.0021 0.681995Z" fill="white" stroke="#0E0E0E" stroke-width="1.36364"/>
<path fill-rule="evenodd" clip-rule="evenodd" d="M18.063 14.8381L13.2016 10.1261C13.1641 10.0871 13.1192 10.0559 13.0695 10.0343C13.0199 10.0126 12.9664 10.001 12.9123 10.0001C12.8581 9.99911 12.8043 10.0089 12.7539 10.0287C12.7036 10.0486 12.6576 10.0782 12.6187 10.1159C12.5804 10.153 12.5502 10.1975 12.5297 10.2468C12.5093 10.296 12.4992 10.3489 12.5 10.4022C12.5013 10.4555 12.5134 10.508 12.5357 10.5564C12.558 10.6049 12.5899 10.6482 12.6296 10.6838L17.1991 15.1429L12.5969 19.6293C12.5494 19.706 12.5303 19.797 12.5427 19.8863C12.5552 19.9757 12.5984 20.058 12.665 20.1188C12.8014 20.2463 13.0121 20.2641 13.1696 20.1604L18.0575 15.3959C18.0961 15.3602 18.127 15.3171 18.1485 15.2692C18.1699 15.2213 18.1814 15.1695 18.1823 15.117C18.1821 15.0648 18.1715 15.0132 18.151 14.9652C18.1305 14.9171 18.1006 14.8744 18.063 14.8381Z" fill="#0E0E0E" stroke="#0E0E0E" stroke-width="0.681818"/>
</g>
<defs>
<clipPath id="clip0_52_117801">
<rect width="30" height="30" fill="white"/>
</clipPath>
</defs>
</svg>
