<svg width="17" height="15" viewBox="0 0 17 15" fill="none" xmlns="http://www.w3.org/2000/svg">
<path d="M12.7498 0H4.24992C1.69997 0 0 1.27498 0 4.24992V10.1998C0 13.1747 1.69997 14.4497 4.24992 14.4497H12.7498C15.2997 14.4497 16.9997 13.1747 16.9997 10.1998V4.24992C16.9997 1.27498 15.2997 0 12.7498 0ZM5.0999 12.1123H2.54995C2.20146 12.1123 1.91246 11.8233 1.91246 11.4748C1.91246 11.1263 2.20146 10.8373 2.54995 10.8373H5.0999C5.44839 10.8373 5.73739 11.1263 5.73739 11.4748C5.73739 11.8233 5.44839 12.1123 5.0999 12.1123ZM8.49983 9.77481C7.08886 9.77481 5.94988 8.63583 5.94988 7.22486C5.94988 5.81389 7.08886 4.67491 8.49983 4.67491C9.91081 4.67491 11.0498 5.81389 11.0498 7.22486C11.0498 8.63583 9.91081 9.77481 8.49983 9.77481ZM14.4497 3.61243H11.8998C11.5513 3.61243 11.2623 3.32344 11.2623 2.97494C11.2623 2.62645 11.5513 2.33745 11.8998 2.33745H14.4497C14.7982 2.33745 15.0872 2.62645 15.0872 2.97494C15.0872 3.32344 14.7982 3.61243 14.4497 3.61243Z" fill="#CAC3AA"/>
</svg>
