<svg width="150" height="42" viewBox="0 0 150 42" fill="none" xmlns="http://www.w3.org/2000/svg">
<g clip-path="url(#clip0_52_34622)">
<mask id="mask0_52_34622" style="mask-type:luminance" maskUnits="userSpaceOnUse" x="0" y="0" width="150" height="42">
<path d="M149.997 0H0.00250244V41.0625H149.997V0Z" fill="white"/>
</mask>
<g mask="url(#mask0_52_34622)">
<path d="M75.0564 1.67655C74.6209 2.6871 73.8954 3.5457 72.9716 4.1436L75.9599 6.08076L74.2746 6.94944C74.2419 7.75101 73.9971 8.52955 73.5652 9.20561C73.1333 9.88167 72.5298 10.4311 71.8162 10.7977C71.1289 11.0871 70.3751 11.1811 69.6377 11.0692C68.9004 10.9573 68.2084 10.6439 67.6379 10.1636C66.552 9.10377 64.2848 4.89067 64.2848 4.89067L69.4969 1.31171L72.2593 3.65714C72.5104 3.39907 72.6959 3.08449 72.8002 2.73985C72.9045 2.3952 72.9245 2.03056 72.8587 1.67655C73.6405 1.08585 74.457 0.564642 75.2475 0C75.2509 0.562642 75.1985 1.12423 75.0912 1.67655" fill="white"/>
<path d="M80.7289 29.8564C80.9108 30.2246 80.9995 30.6317 80.9874 31.0421C80.9753 31.4526 80.8627 31.8538 80.6594 32.2105C80.4241 32.5986 80.0789 32.908 79.6676 33.0998C79.2562 33.2915 78.7973 33.3569 78.3488 33.2877C77.9458 33.2249 77.5662 33.0582 77.2473 32.8039C76.9285 32.5497 76.6815 32.2167 76.5306 31.8378C76.3798 31.4589 76.3303 31.0472 76.3871 30.6434C76.444 30.2396 76.6051 29.8576 76.8546 29.535C77.1284 29.1679 77.5043 28.8897 77.9354 28.7352C78.3665 28.5806 78.8336 28.5567 79.2782 28.6663C79.5843 28.7538 79.87 28.9009 80.1189 29.0992C80.3679 29.2975 80.5752 29.543 80.7289 29.8217" fill="white"/>
<path d="M12.8155 15.6364C12.8155 10.737 10.6612 8.55664 5.86609 8.55664H0.00250244V32.1413H4.46752V22.6814C5.07559 22.6814 5.67498 22.6814 6.10064 22.6032L8.92385 32.1587H13.4757L10.0705 21.5695C11.3648 20.9006 12.8155 19.3196 12.8155 15.6016M4.46752 12.2833H5.64023C7.47315 12.2833 8.34183 12.7784 8.34183 15.6016C8.34183 18.4248 7.47315 18.92 5.64023 18.92H4.46752V12.2833Z" fill="white"/>
</g>
<path d="M18.5749 8.52205L14.2141 32.1415H18.5575L19.2611 27.0076H23.1963L23.9173 32.1415H28.2607L23.9173 8.4873L18.5749 8.52205ZM22.5882 23.0898H19.9821L21.2417 14.7679L22.5882 23.0898Z" fill="white"/>
<mask id="mask1_52_34622" style="mask-type:luminance" maskUnits="userSpaceOnUse" x="0" y="0" width="150" height="42">
<path d="M149.997 0H0.00250244V41.0625H149.997V0Z" fill="white"/>
</mask>
<g mask="url(#mask1_52_34622)">
<path d="M35.8876 8.19989C32.1958 8.19989 29.8069 10.6235 29.8069 14.3762V26.3119C29.8069 30.0732 31.9873 32.4969 35.3751 32.4969H36.487C39.8749 32.4969 42.064 30.0732 42.064 26.3119V19.9792H36.0527V23.6103H37.7901V25.6169C37.7901 28.0927 37.0777 28.5791 35.8529 28.5791C34.6281 28.5791 34.2372 27.9016 34.2372 26.3814V14.4457C34.2719 12.1611 35.4186 12.1611 35.7921 12.1611C37.1125 12.1611 37.8248 12.8213 37.8248 16.2786V16.5045H42.0987V14.7671C42.0987 10.7625 39.6577 8.17383 35.8876 8.17383" fill="white"/>
<path d="M53.5131 20.8133L49.0221 8.52148H44.9132V32.1756H48.996V18.7111L53.7129 32.1756H57.5959V8.52148H53.5131V20.8133Z" fill="white"/>
<path d="M96.617 18.5896C94.8797 17.1042 93.3595 15.8185 93.3595 14.1854C93.3595 13.2646 93.6635 12.1527 95.0968 12.1527C95.6094 12.1527 96.8342 12.3785 96.9732 14.4981V14.75L101.256 14.2723V14.0377C100.865 10.4327 98.6497 8.2002 95.4964 8.2002C91.4223 8.2002 89.0856 10.398 89.0856 14.2201C89.0856 18.0423 91.5787 20.0403 93.7764 21.8645C95.6007 23.3847 97.173 24.6964 97.173 26.6683C97.173 27.8584 96.4172 28.5447 95.1055 28.5447C93.7938 28.5447 93.1162 27.3546 92.9773 25.2698V25.0092L88.712 25.6259V25.8431C88.9292 30.4384 91.987 32.4972 94.9231 32.4972C98.9538 32.4972 101.456 30.1257 101.456 26.3209C101.456 22.6898 98.8495 20.5094 96.6257 18.5896" fill="white"/>
<path d="M107.701 21.9078H112.835V17.9553H107.701V12.474H114.373V8.52148H103.236V32.1756H114.825V28.2231H107.701V21.9078Z" fill="white"/>
<path d="M121.018 8.52148H116.553V32.1756H126.3V28.2231H121.018V8.52148Z" fill="white"/>
<path d="M131.781 8.52148H127.316V32.1756H137.063V28.2231H131.781V8.52148Z" fill="white"/>
<path d="M145.168 18.5896C143.43 17.1042 141.91 15.8185 141.91 14.1854C141.91 13.2646 142.214 12.1527 143.647 12.1527C144.151 12.1527 145.385 12.3785 145.524 14.4981V14.75L149.798 14.2723V14.0377C149.415 10.4327 147.192 8.2002 144.038 8.2002C139.973 8.2002 137.636 10.398 137.636 14.2201C137.636 18.0423 140.129 20.0403 142.327 21.8645C144.151 23.3847 145.724 24.6964 145.724 26.6683C145.724 27.8584 144.968 28.5447 143.656 28.5447C142.344 28.5447 141.667 27.3546 141.528 25.2698V25.0092L137.271 25.6259V25.8431C137.48 30.4384 140.538 32.4972 143.482 32.4972C147.513 32.4972 150.015 30.1257 150.015 26.3209C150.015 22.6898 147.452 20.5094 145.185 18.5896" fill="white"/>
<path d="M72.3375 15.1141C72.3904 17.3695 72.1776 19.6234 71.7033 21.829C72.3916 21.8101 73.0761 21.9365 73.7122 22.2C74.3484 22.4634 74.9218 22.8579 75.3952 23.3579C76.4334 24.4534 77.2792 25.7162 77.897 27.0932L74.9435 30.2291C74.1617 28.7003 72.711 26.7979 70.6957 26.8674C70.4025 26.8682 70.1106 26.9061 69.827 26.9803C69.2623 28.7176 68.0375 30.8633 65.944 31.0891C64.9963 31.28 64.0131 31.1825 63.1213 30.8094C62.2294 30.4363 61.4698 29.8045 60.9404 28.9956L60.5321 28.3267C60.9404 27.015 61.2097 25.8944 61.5832 24.5914C61.9133 25.4601 62.4519 26.7197 63.5985 26.8674C63.9726 26.9108 64.3506 26.8315 64.6757 26.6415C64.3057 26.2808 64.0359 25.8301 63.8928 25.3336C63.7496 24.8371 63.738 24.3119 63.8592 23.8096C64.3369 21.9072 67.3339 11.5352 67.3339 11.5352H74.57C75.4386 11.5352 76.8285 11.7871 77.593 14.6798L81.7887 27.8663C81.8006 27.9006 81.8254 27.9289 81.8579 27.9452C81.8903 27.9614 81.9279 27.9643 81.9624 27.9532L86.6967 26.4504L87.0963 27.6926L82.362 29.2041C82.2181 29.2456 82.0688 29.2661 81.919 29.2649C81.6143 29.2636 81.3177 29.1665 81.0714 28.9871C80.825 28.8078 80.6414 28.5555 80.5465 28.2659L76.3421 15.0794L72.3375 15.1141Z" fill="white"/>
<path d="M88.2951 36.1016H61.6266V41.0617H88.2951V36.1016Z" fill="white"/>
</g>
</g>
<defs>
<clipPath id="clip0_52_34622">
<rect width="149.995" height="41.0625" fill="white" transform="translate(0.00250244)"/>
</clipPath>
</defs>
</svg>
