<svg width="30" height="30" viewBox="0 0 30 30" fill="none" xmlns="http://www.w3.org/2000/svg">
<g clip-path="url(#clip0_52_66129)">
<path d="M19.2188 19.2188C19.2188 19.2188 22.2188 18.4688 23.1563 16.875L20.0625 15.9375L19.2188 19.2188Z" fill="#858585"/>
<path d="M14.3441 2.62572C14.3441 2.62572 10.9691 0.844466 8.62532 1.59447C6.28157 2.34447 1.78157 9.37572 6.56282 13.3132L6.65657 13.407C11.6253 17.3445 13.5003 7.03197 13.5003 7.03197L14.3441 2.62572Z" fill="#8E8686"/>
<path d="M14.157 3.65648C14.157 3.65648 11.6258 1.50023 9.28204 2.25023C6.93829 2.90648 2.90704 9.37523 7.59454 12.9377L7.68829 13.0315C12.657 16.594 14.532 7.21898 14.532 7.21898L14.157 3.65648Z" fill="#B8B8B8"/>
<path d="M6.74916 10.3125C6.74916 10.3125 4.31166 11.1562 4.59291 12.8437C4.87416 14.5312 5.81166 17.625 9.65541 17.625L10.0304 15.2812L6.74916 10.3125Z" fill="#8E8686"/>
<path d="M7.50033 9.5625C7.50033 9.5625 4.96908 10.5938 5.25033 12.2813C5.53158 13.9688 6.84408 17.3438 10.6878 17.3438L11.0628 15L7.50033 9.5625Z" fill="#B8B8B8"/>
<path d="M7.87565 27.1861C6.18815 26.2486 5.43815 24.0923 6.2819 21.9361C6.56315 21.1861 8.1569 19.3111 8.62565 18.9361C10.1257 17.8111 16.2194 17.0611 21.0944 20.6236C21.9382 21.2798 22.5944 22.3111 22.8757 23.6236V23.7173C23.5319 26.9986 22.4069 29.6236 19.5007 29.6236C16.1257 29.6236 10.7819 28.7798 7.87565 27.1861Z" fill="#7B7F79"/>
<path d="M7.31315 26.8117C5.62565 25.7804 4.87565 23.4367 5.7194 21.0929C6.00065 20.2492 7.5944 18.1867 8.06315 17.8117C9.56315 16.5929 15.6569 15.7492 20.5319 19.5929C21.3757 20.3429 22.0319 21.4679 22.3132 22.8742V22.9679C22.9694 26.6242 21.8444 29.4367 18.9382 29.4367C15.5632 29.4367 10.2194 28.5929 7.31315 26.8117Z" fill="#7B7F79"/>
<path d="M8.06315 26.2505C6.37565 25.313 5.62565 23.1568 6.4694 21.0005C6.75065 20.2505 8.3444 18.3755 8.81315 18.0005C10.3132 16.8755 16.4069 16.1255 21.2819 19.688C22.1257 20.3443 22.7819 21.3755 23.0632 22.688V22.7818C23.7194 26.063 22.5944 28.688 19.6882 28.688C16.3132 28.5943 10.8757 27.7505 8.06315 26.2505Z" fill="#C8CEC6"/>
<path d="M8.15547 24.2807C6.65547 23.5307 7.12422 21.8432 7.96797 19.9682C8.24922 19.312 8.90547 18.7495 9.37422 18.4682C10.7805 17.5307 16.218 16.687 20.718 19.687C21.5617 20.2495 22.1242 21.0932 22.4055 22.1245V22.2182C22.968 24.937 20.9992 27.3745 18.5617 26.9995C15.468 26.5307 10.7805 25.4995 8.15547 24.2807Z" fill="#D1D1D1"/>
<path d="M8.06235 24.2821C6.74985 23.5321 8.1561 22.6883 8.81235 20.9071C9.0936 20.2508 10.4061 18.9383 10.7811 18.6571C11.9998 17.7196 14.9061 16.7821 18.8436 19.7821C19.5936 20.3446 20.0623 21.1883 20.2498 22.2196V22.3133C20.7186 25.0321 19.4061 27.0946 17.3436 26.7196C14.5311 26.2508 10.3123 25.5008 8.06235 24.2821Z" fill="#EBEBEB"/>
<path d="M17.8125 19.5937C17.8125 19.5937 18.6562 22.2187 16.6875 23.25C16.6875 23.25 21.5625 23.8125 22.875 23.0625C22.875 23.0625 23.3438 20.25 19.4063 18.9375L17.8125 19.5937ZM9.5625 18C9.5625 18 8.53125 18.75 7.5 20.4375L8.625 21.0937L8.90625 21.375C8.90625 21.375 9.65625 19.6875 10.875 19.0312L9.5625 18Z" fill="#EBEBEB"/>
<path d="M7.68797 19.9688C7.68797 19.9688 9.00048 23.1563 22.7817 22.9688L21.4692 26.3438C21.4692 26.3438 17.9067 27 13.1255 25.875C8.53173 24.75 6.18797 24.2812 7.68797 19.9688Z" fill="#C8CEC6"/>
<path d="M7.12504 21.2806C7.21879 20.9993 7.59378 20.8118 7.87503 20.9993C8.90628 21.6556 11.625 23.0618 17.3438 23.7181C18.6563 23.8118 20.4375 23.8118 22.6875 23.2493C22.6875 23.2493 22.7813 23.7181 22.6875 24.3743C22.4063 25.9681 20.9063 27.1868 19.4063 27.1868C17.5313 27.1868 15.6563 27.0931 13.0313 26.4368C8.62503 25.4993 6.18754 25.0306 7.12504 21.2806Z" fill="#F4F4F4"/>
<path d="M23.4596 12.1086C23.4761 7.55227 19.7958 3.84523 15.2395 3.82872C10.6831 3.81221 6.97609 7.49248 6.95958 12.0488C6.94307 16.6052 10.6233 20.3122 15.1797 20.3287C19.736 20.3452 23.4431 16.665 23.4596 12.1086Z" fill="#595959"/>
<path d="M23.0995 11.4881C23.1157 7.03532 19.519 3.41254 15.0662 3.3964C10.6134 3.38027 6.99066 6.97689 6.97453 11.4297C6.95839 15.8825 10.555 19.5053 15.0078 19.5214C19.4606 19.5375 23.0834 15.9409 23.0995 11.4881Z" fill="#D1D1D1"/>
<path d="M23.0122 11.3258C23.0276 7.08015 19.6822 3.62617 15.5401 3.61116C11.398 3.59615 8.02761 7.02579 8.01223 11.2715C7.99685 15.5172 11.3422 18.9712 15.4844 18.9862C19.6265 19.0012 22.9968 15.5715 23.0122 11.3258Z" fill="#DBDBDB"/>
<path d="M18.8583 12.3773C18.8695 9.27069 16.4442 6.74348 13.4412 6.73259C10.4381 6.72171 7.99453 9.23129 7.98327 12.3379C7.97202 15.4445 10.3973 17.9717 13.4004 17.9826C16.4034 17.9935 18.847 15.4839 18.8583 12.3773Z" fill="#EBEBEB"/>
<path d="M16.0519 12.9429C16.0536 12.4769 15.7192 12.098 15.3049 12.0965C14.8907 12.095 14.5536 12.4715 14.5519 12.9375C14.5502 13.4035 14.8846 13.7825 15.2988 13.784C15.713 13.7855 16.0502 13.4089 16.0519 12.9429Z" fill="#595959"/>
<path d="M15.6335 12.6537C15.6339 12.5502 15.5502 12.4659 15.4467 12.4655C15.3431 12.4651 15.2589 12.5488 15.2585 12.6523C15.2581 12.7559 15.3418 12.8401 15.4453 12.8405C15.5489 12.8409 15.6331 12.7573 15.6335 12.6537Z" fill="white"/>
<path d="M9.99329 11.9195C9.99498 11.4535 9.66056 11.0745 9.24635 11.073C8.83214 11.0715 8.49498 11.4481 8.49329 11.9141C8.4916 12.3801 8.82602 12.759 9.24023 12.7605C9.65445 12.762 9.9916 12.3855 9.99329 11.9195Z" fill="#595959"/>
<path d="M9.57295 11.6303C9.57332 11.5267 9.48968 11.4425 9.38612 11.4421C9.28257 11.4417 9.19832 11.5254 9.19795 11.6289C9.19757 11.7325 9.28121 11.8167 9.38477 11.8171C9.48832 11.8175 9.57257 11.7338 9.57295 11.6303Z" fill="white"/>
<path d="M10.2187 26.1567C10.2187 26.1567 11.25 25.9692 11.9062 25.1254C11.9062 25.1254 12.1875 26.5317 13.125 26.8129L10.2187 26.1567ZM18.9375 25.7817C18.9375 25.7817 19.2188 26.6254 18.9375 27.5629H20.1562C20.1562 27.5629 19.875 25.7817 18.75 24.3754L18.9375 25.7817ZM7.78125 23.3442C7.78125 23.3442 7.59375 24.0942 7.875 24.8442L6.84375 24.9379C6.84375 24.9379 6.9375 24.0942 7.3125 23.2504C7.40625 22.8754 7.78125 22.9692 7.78125 23.3442Z" fill="#C8CEC6"/>
<path d="M12.8439 24.75C12.8439 24.75 16.4064 24.0937 18.0939 25.125C18.0939 25.125 18.5626 25.875 18.0939 26.0625C17.6251 26.25 14.4376 24.75 12.8439 25.2187C12.8439 25.2187 12.4689 24.8437 12.8439 24.75ZM7.96886 22.9688C7.96886 22.9688 10.5939 23.0625 11.6251 24.0938C11.6251 24.0938 11.8126 24.75 11.5314 24.75C11.2501 24.8437 9.18761 23.25 7.96886 23.3437C7.87511 23.3437 7.68761 23.0625 7.96886 22.9688Z" fill="white"/>
<path d="M20.1562 12.9365C20.1562 12.9365 21.0937 12.374 21.4687 12.8428C22.2187 13.5928 21.5625 14.7178 20.1562 14.9053V12.9365Z" fill="#DBDBDB"/>
<path d="M13.6875 16.3125C13.6875 16.3125 12.9375 16.2187 12.375 15.75C11.8125 15.375 11.3438 15.375 11.25 15.375C11.1563 15.375 10.9688 15.1875 10.7813 15.0938C10.5938 15 10.3125 15 10.3125 15.0938C10.3125 15.1875 10.5 15.5625 10.5 15.5625V16.125C10.5 16.3125 10.5 16.875 11.0625 16.9688C11.625 17.0625 12 17.0625 12.2813 16.875C12.6563 16.9687 13.6875 16.3125 13.6875 16.3125Z" fill="#6E6E6E"/>
<path d="M12.375 21.5625C12.375 21.5625 12.1875 23.0625 9.18747 22.875C6.18748 22.6875 7.03122 20.625 7.03122 20.625L12.375 21.5625Z" fill="#C8CEC6"/>
<path d="M17.9992 23.0625C17.9992 23.0625 17.718 24.5625 14.0617 24.375C10.4055 24.1875 11.5305 22.2188 11.5305 22.2188L17.9992 23.0625ZM20.5305 19.7813C20.5305 19.7813 22.1242 20.4375 22.3117 23.1563H23.0617C23.0617 23.1563 22.968 20.5312 20.8117 19.5L20.5305 19.7813Z" fill="#C8CEC6"/>
<path d="M17.6256 22.4062C17.6256 22.4062 17.4381 23.9062 14.5318 23.7187C11.6256 23.4375 12.4693 21.5625 12.4693 21.5625L17.6256 22.4062Z" fill="#EBEBEB"/>
<path d="M12.1875 21C12.1875 21 12.5625 22.4062 9.6562 22.125C6.74995 21.8437 7.7812 19.875 7.7812 19.875L12.1875 21Z" fill="#EBEBEB"/>
<path d="M11.625 22.2188C11.625 22.2188 12 21.375 12.75 20.7188C12.75 20.7188 12.2813 21.6562 12.2813 22.3125L11.625 22.2188Z" fill="#C8CEC6"/>
<path d="M10.3134 19.9687L10.8759 20.25C11.0634 20.3438 11.1571 20.625 11.1571 20.8125C11.1571 21 10.9696 21.1875 10.7821 21.375C10.5946 21.4687 10.4071 21.5625 10.1259 21.5625C9.75089 21.5625 9.46964 21.4688 9.09464 21.2813C8.81339 21.0938 8.34464 20.5313 8.71964 20.1563C9.09464 19.6875 9.84464 19.875 10.3134 19.9687Z" fill="white"/>
<path d="M15.5634 21.375L16.1259 21.6563C16.3134 21.75 16.4071 22.0313 16.4071 22.2188C16.4071 22.4063 16.2196 22.5937 16.0321 22.7812C15.8446 22.875 15.6571 22.9688 15.3759 22.9688C15.0009 22.9688 14.7196 22.875 14.3446 22.6875C14.0634 22.5 13.5946 21.9375 13.9696 21.5625C14.3446 21.0938 15.0946 21.2812 15.5634 21.375Z" fill="white"/>
<path d="M17.4375 7.03104L15.6563 6.65604C15.6563 6.65604 15.2812 2.81229 10.3125 3.37479C10.3125 3.37479 12 1.12479 14.3438 1.59354C16.6875 2.06229 18.2812 4.12479 17.8125 5.15604C17.3438 6.18729 17.4375 7.03104 17.4375 7.03104Z" fill="#858585"/>
<path d="M16.0312 6.56204C16.0312 6.56204 17.9062 4.87454 17.3438 3.84329C16.7812 2.81204 14.4375 1.21829 11.8125 2.24954L10.125 3.09329C10.125 3.09329 12 0.56204 13.5937 0.18704C15.1875 -0.18796 20.4375 -0.000460163 22.0312 2.15579C23.625 4.21829 23.1562 7.40579 21.5625 8.71829C19.9688 10.0308 16.4062 6.93704 16.0312 6.56204Z" fill="#858585"/>
<path d="M15.8438 6.74914C15.8438 6.74914 17.5313 5.15539 17.0625 4.21789C16.5938 3.28039 14.3438 1.78039 12 2.81164L10.3125 3.46789C10.3125 3.46789 12.0937 1.12414 13.5 0.749139C14.9062 0.374139 19.7813 0.655389 21.2813 2.53039C22.7813 4.40539 22.3125 7.40539 20.9062 8.62414C19.5 9.84289 16.125 7.12414 15.8438 6.74914Z" fill="#D4D4D4"/>
<path d="M19.4992 8.71934C19.4992 8.71934 20.7179 5.25059 22.9679 5.71934C25.2179 6.18809 27.4679 10.6881 24.8429 13.6881C24.8429 13.6881 22.8742 15.3756 23.3429 16.5943C23.3429 16.5943 23.7179 16.9693 24.6554 16.6881C24.6554 16.6881 23.5304 17.2506 22.3117 17.2506C21.0929 17.2506 18.0929 15.2818 18.6554 12.6568L19.4992 8.71934Z" fill="#858585"/>
<path d="M18.0932 8.25059C18.0932 8.25059 19.312 4.78184 21.562 5.25059C23.812 5.71934 26.062 10.2193 23.437 13.2193C23.437 13.2193 21.4682 14.9068 21.937 16.1256C21.937 16.1256 21.8432 17.0631 22.687 16.8756C22.687 16.8756 21.8432 17.1568 20.6245 17.1568C19.4057 17.1568 16.687 15.0006 17.2495 12.3756L18.0932 8.25059Z" fill="#D4D4D4"/>
<path d="M17.7188 15.0938C17.7188 15.0938 18.1875 18.2812 20.9062 18.1875C23.625 18.0937 24.6562 16.6875 24.6562 16.6875C24.6562 16.6875 23.5313 17.25 21.1875 16.7812C18.75 16.4062 17.7188 15.0938 17.7188 15.0938Z" fill="#858585"/>
<path d="M17.9062 6.65561C17.9062 6.65561 19.125 2.81186 14.625 1.96811L13.2188 2.06186C13.2188 2.06186 15.75 0.374362 19.2187 2.53061C22.4062 4.49936 20.8125 6.56186 20.8125 6.56186C20.8125 6.56186 18.75 7.03061 17.9062 6.65561ZM19.125 8.81186C19.125 8.81186 21 7.31186 22.125 7.78061C23.25 8.24936 24.1875 9.74936 22.875 11.2494C21.5625 12.7494 20.625 14.3431 21.0937 15.5619C21.0937 15.5619 18.8437 13.4056 19.0312 11.9994C19.2187 10.5931 19.7812 9.46811 19.125 8.81186Z" fill="#F0F0F0"/>
<path d="M21.1873 19.875C21.1873 19.875 20.2498 21.4687 20.2498 23.4375H18.5623C18.5623 23.4375 19.0311 21.4687 20.8123 19.5937L21.1873 19.875ZM9.56234 22.4062C9.56234 22.4062 6.74984 21.0937 9.46859 18H9.09359C9.09359 18 6.93734 19.7812 7.12484 21.1875C7.21859 22.7812 9.56234 22.4062 9.56234 22.4062Z" fill="#C8CEC6"/>
<path d="M16.5938 27.4688L16.2188 27.9375L17.8125 29.0625L27 19.9688L25.5 18.0938L16.5938 27.4688Z" fill="#9A4C18"/>
<path d="M27.1881 22.5938C26.9069 26.1563 23.5319 29.25 19.7819 29.25C16.1256 29.25 13.7819 26.1563 14.4381 22.6875C15.0944 19.4063 18.2819 16.7813 21.5631 16.7813C24.9381 16.5938 27.4694 19.125 27.1881 22.5938Z" fill="#9A4C18"/>
<path d="M28.1257 23.7194C27.8445 27.1882 24.5632 30.0944 20.907 30.0007C17.3445 30.0007 15.0007 27.0944 15.657 23.7194C16.3132 20.5319 19.407 18.0944 22.5945 18.0944C25.8757 18.0007 28.407 20.4382 28.1257 23.7194Z" fill="#9A4C18"/>
<path d="M17.625 27.75L19.125 28.5938L26.625 20.7188L25.4063 19.125L17.625 27.75Z" fill="#F49937"/>
<path d="M27.3752 23.7178C27.094 26.624 24.3752 29.1553 21.3752 29.0615C18.3752 29.0615 16.4065 26.5303 16.969 23.7178C17.5315 20.999 20.0627 18.8428 22.7815 18.8428C25.594 18.749 27.6565 20.9053 27.3752 23.7178Z" fill="#F49937"/>
<path d="M26.3443 22.5009C26.063 25.5946 23.1568 28.3134 19.8755 28.3134C16.688 28.3134 14.6255 25.6884 15.188 22.5946C15.7505 19.6884 18.563 17.4384 21.4693 17.3446C24.4693 17.2509 26.6255 19.5009 26.3443 22.5009Z" fill="#FFEDC0"/>
<path d="M25.969 22.7803C25.6877 25.6865 22.969 28.2178 19.969 28.124C16.969 28.124 15.0002 25.5928 15.5627 22.7803C16.1252 20.0615 18.6565 17.9053 21.3752 17.9053C24.1877 17.8115 26.2502 19.9678 25.969 22.7803Z" fill="#FFD766"/>
<path d="M24.8444 22.7812C24.5632 25.0312 22.5007 26.9062 20.1569 26.9062C17.8132 26.9062 16.3132 25.0312 16.6882 22.7812C17.0632 20.625 19.1257 18.9375 21.2819 18.9375C23.4382 18.9375 25.0319 20.5312 24.8444 22.7812Z" fill="#FFEDC0"/>
<path d="M24.8438 22.2186C24.5626 24.4686 22.5001 26.3436 20.1563 26.3436C17.9063 26.3436 16.3126 24.4686 16.7813 22.3123C17.1563 20.1561 19.2188 18.5623 21.2813 18.4686C23.5313 18.3748 25.1251 20.0623 24.8438 22.2186Z" fill="#F49937"/>
<path d="M24.1867 22.7813C23.9992 24.6563 22.2179 26.25 20.2492 26.25C18.2804 26.25 17.0617 24.6563 17.3429 22.7813C17.6242 21 19.4054 19.5 21.1867 19.5C23.0617 19.5 24.3742 20.9063 24.1867 22.7813Z" fill="#FFD766"/>
<path d="M21.75 19.125L22.2188 21.1875L24.4688 21.75L22.4062 23.1563L22.2188 25.5937L20.4375 24.1875L18 25.0313L19.0312 22.7812L17.8125 21H20.1562L21.75 19.125Z" fill="#F49937"/>
</g>
<defs>
<clipPath id="clip0_52_66129">
<rect width="30" height="30" fill="white"/>
</clipPath>
</defs>
</svg>
