<svg width="18" height="17" viewBox="0 0 18 17" fill="none" xmlns="http://www.w3.org/2000/svg">
<mask id="mask0_0_575" style="mask-type:luminance" maskUnits="userSpaceOnUse" x="-3" y="-3" width="23" height="23">
<rect x="-2.83333" y="-2.83333" width="22.6667" height="22.6667" fill="white"/>
</mask>
<g mask="url(#mask0_0_575)">
<path fill-rule="evenodd" clip-rule="evenodd" d="M17.4024 7.64524L1.34689 0.0896878C1.01633 -0.0652011 0.626275 -0.0170343 0.34483 0.215299C0.0624407 0.446688 -0.0593926 0.819743 0.0284407 1.17297L1.17311 5.75258L8.50011 8.49997L1.17311 11.2474L0.0284407 15.827C-0.0603372 16.1802 0.0624407 16.5542 0.34483 16.7856C0.517663 16.9272 0.729219 17 0.944552 17C1.0815 17 1.21844 16.9707 1.34689 16.9102L17.4024 9.35469C17.733 9.19885 17.9446 8.86641 17.9446 8.49997C17.9446 8.13352 17.733 7.80108 17.4024 7.64524Z" fill="white"/>
</g>
</svg>
