<svg width="21" height="22" viewBox="0 0 21 22" fill="none" xmlns="http://www.w3.org/2000/svg">
<path d="M1.45139 10.0631V14.5949C1.45139 19.1268 3.26816 20.9435 7.79999 20.9435H13.2402C17.772 20.9435 19.5888 19.1268 19.5888 14.5949V10.0631" stroke="#AEAEAE" stroke-width="1.5" stroke-linecap="round" stroke-linejoin="round"/>
<path d="M10.5254 10.8502C12.3724 10.8502 13.735 9.34627 13.5533 7.49922L12.8872 0.756988H8.17366L7.49742 7.49922C7.31574 9.34627 8.67832 10.8502 10.5254 10.8502Z" stroke="#AEAEAE" stroke-width="1.5" stroke-linecap="round" stroke-linejoin="round"/>
<path d="M16.894 10.8502C18.9328 10.8502 20.4266 9.19488 20.2247 7.16615L19.9421 4.39053C19.5788 1.7663 18.5694 0.756988 15.925 0.756988H12.8466L13.5531 7.8323C13.7247 9.49767 15.2286 10.8502 16.894 10.8502Z" stroke="#AEAEAE" stroke-width="1.5" stroke-linecap="round" stroke-linejoin="round"/>
<path d="M4.10601 10.8502C5.77138 10.8502 7.27526 9.49767 7.43675 7.8323L7.6588 5.60171L8.14327 0.756988H5.06486C2.42045 0.756988 1.41113 1.7663 1.04778 4.39053L0.775261 7.16615C0.573398 9.19488 2.06719 10.8502 4.10601 10.8502Z" stroke="#AEAEAE" stroke-width="1.5" stroke-linecap="round" stroke-linejoin="round"/>
<path d="M10.5254 15.8967C8.83982 15.8967 8.00209 16.7345 8.00209 18.42V20.9433H13.0487V18.42C13.0487 16.7345 12.2109 15.8967 10.5254 15.8967Z" stroke="#AEAEAE" stroke-width="1.5" stroke-linecap="round" stroke-linejoin="round"/>
</svg>
