<svg width="40" height="40" viewBox="0 0 40 40" fill="none" xmlns="http://www.w3.org/2000/svg">
<path d="M35.7263 4.30298C34.8926 3.44734 33.6588 3.12857 32.5083 3.46412L5.68065 11.2655C4.46682 11.6028 3.60646 12.5708 3.3747 13.8006C3.13794 15.0522 3.96494 16.641 5.04539 17.3054L13.4338 22.461C14.2942 22.9895 15.4046 22.857 16.1166 22.1389L25.7222 12.4735C26.2057 11.9702 27.006 11.9702 27.4896 12.4735C27.9731 12.9601 27.9731 13.7486 27.4896 14.2519L17.8673 23.919C17.1537 24.6354 17.0203 25.751 17.5455 26.6168L22.6709 35.0893C23.2712 36.0959 24.3049 36.6663 25.4387 36.6663C25.5721 36.6663 25.7222 36.6663 25.8556 36.6496C27.1561 36.4818 28.1899 35.5926 28.5734 34.3343L36.5266 7.54099C36.8768 6.40014 36.56 5.15862 35.7263 4.30298Z" fill="white"/>
</svg>
