<svg width="22" height="21" viewBox="0 0 22 21" fill="none" xmlns="http://www.w3.org/2000/svg">
<path d="M14.5106 8.17269C14.5183 8.16748 14.5262 8.16251 14.5334 8.15693C14.6335 8.08053 14.6892 7.97706 14.6882 7.86942L14.6626 4.89096C14.6607 4.66878 14.4227 4.48939 14.1298 4.48939H11.5451V0.404199C11.5451 0.181 11.3066 0 11.0124 0C10.7182 0 10.4796 0.181 10.4796 0.404199V4.48939H7.86932C7.72744 4.48939 7.59138 4.53236 7.49138 4.60871C7.39132 4.68511 7.33559 4.78854 7.33655 4.89622L7.36213 7.87468C7.36309 7.98603 7.42339 8.0866 7.52014 8.15927C5.38967 9.07143 3.94993 10.7937 3.94993 12.7641C3.94993 15.6867 7.11237 18.0644 10.9995 18.0644C14.8867 18.0644 18.0491 15.6867 18.0491 12.7641C18.0492 10.8035 16.6238 9.08828 14.5106 8.17269ZM8.42419 7.46785L8.40555 5.29779H13.6005L13.6192 7.46785H8.42419ZM10.9996 17.256C7.6999 17.256 5.01551 15.2409 5.01551 12.7641C5.01551 10.2894 7.69995 8.27625 10.9996 8.27625C14.2992 8.27625 16.9837 10.2895 16.9837 12.7641C16.9837 15.2409 14.2993 17.256 10.9996 17.256Z" fill="#B0B6C4"/>
<path d="M11.0001 19.0997C10.7059 19.0997 10.4674 19.2807 10.4674 19.5039V20.2907C10.4674 20.5139 10.7059 20.6949 11.0001 20.6949C11.2943 20.6949 11.5329 20.5139 11.5329 20.2907V19.5039C11.5329 19.2807 11.2943 19.0997 11.0001 19.0997Z" fill="#B0B6C4"/>
<path d="M1.58002 12.0226H0.532765C0.238572 12.0226 0 12.2036 0 12.4268C0 12.65 0.238572 12.831 0.532765 12.831H1.58002C1.87422 12.831 2.11279 12.65 2.11279 12.4268C2.11279 12.2036 1.87427 12.0226 1.58002 12.0226Z" fill="#B0B6C4"/>
<path d="M21.4671 12.0226H20.4199C20.1257 12.0226 19.8871 12.2036 19.8871 12.4268C19.8871 12.65 20.1257 12.831 20.4199 12.831H21.4671C21.7613 12.831 21.9999 12.65 21.9999 12.4268C21.9999 12.2036 21.7613 12.0226 21.4671 12.0226Z" fill="#B0B6C4"/>
<path d="M3.96368 17.144L3.22319 17.7004C3.01408 17.8574 3.01248 18.1134 3.21951 18.272C3.32372 18.3519 3.46086 18.3918 3.59804 18.3918C3.73353 18.3918 3.86906 18.3528 3.9729 18.2748L4.71339 17.7184C4.9225 17.5613 4.92409 17.3054 4.71706 17.1468C4.51003 16.9881 4.17274 16.987 3.96368 17.144Z" fill="#B0B6C4"/>
<path d="M18.0358 17.144C17.8268 16.9869 17.4894 16.9882 17.2823 17.1468C17.0753 17.3053 17.077 17.5613 17.286 17.7184L18.0265 18.2748C18.1303 18.3528 18.2659 18.3918 18.4014 18.3918C18.5385 18.3918 18.6757 18.3518 18.7799 18.272C18.9869 18.1134 18.9853 17.8574 18.7762 17.7004L18.0358 17.144Z" fill="#B0B6C4"/>
</svg>
