<svg width="15" height="4" viewBox="0 0 15 4" fill="none" xmlns="http://www.w3.org/2000/svg">
<mask id="mask0_0_630" style="mask-type:luminance" maskUnits="userSpaceOnUse" x="-3" y="-10" width="23" height="24">
<rect x="-2.72755" y="-9.37512" width="22.4995" height="22.4995" fill="white"/>
</mask>
<g mask="url(#mask0_0_630)">
<path fill-rule="evenodd" clip-rule="evenodd" d="M7.49983 0C6.46861 0 5.62488 0.843731 5.62488 1.87496C5.62488 2.90619 6.46861 3.74992 7.49983 3.74992C8.53106 3.74992 9.37479 2.90619 9.37479 1.87496C9.37479 0.843731 8.53106 0 7.49983 0ZM13.1247 0C12.0935 0 11.2498 0.843731 11.2498 1.87496C11.2498 2.90619 12.0935 3.74992 13.1247 3.74992C14.1559 3.74992 14.9997 2.90619 14.9997 1.87496C14.9997 0.843731 14.1559 0 13.1247 0ZM1.87496 0C0.843731 0 0 0.843731 0 1.87496C0 2.90619 0.843731 3.74992 1.87496 3.74992C2.90619 3.74992 3.74992 2.90619 3.74992 1.87496C3.74992 0.843731 2.90619 0 1.87496 0Z" fill="#8F9198"/>
</g>
</svg>
