<svg width="731" height="144" viewBox="0 0 731 144" fill="none" xmlns="http://www.w3.org/2000/svg">
<rect x="1" y="29" width="78" height="78" rx="39" stroke="#A6BDC9" stroke-width="2"/>
<path d="M28 58.1055C28 56.7589 28.3104 55.4255 28.9134 54.1815C29.5165 52.9374 30.4004 51.807 31.5147 50.8549C32.629 49.9027 33.9519 49.1474 35.4078 48.6321C36.8637 48.1168 38.4241 47.8516 40 47.8516C41.5759 47.8516 43.1363 48.1168 44.5922 48.6321C46.0481 49.1474 47.371 49.9027 48.4853 50.8549C49.5996 51.807 50.4835 52.9374 51.0866 54.1815C51.6896 55.4255 52 56.7589 52 58.1055C52 60.825 50.7357 63.4331 48.4853 65.3561C46.2348 67.2791 43.1826 68.3594 40 68.3594C36.8174 68.3594 33.7652 67.2791 31.5147 65.3561C29.2643 63.4331 28 60.825 28 58.1055ZM40 52.9785C39.7348 52.9785 39.4804 53.0685 39.2929 53.2288C39.1054 53.389 39 53.6064 39 53.833V57.251H35C34.7348 57.251 34.4804 57.341 34.2929 57.5013C34.1054 57.6615 34 57.8788 34 58.1055C34 58.3321 34.1054 58.5494 34.2929 58.7097C34.4804 58.8699 34.7348 58.96 35 58.96H39V62.3779C39 62.6046 39.1054 62.8219 39.2929 62.9821C39.4804 63.1424 39.7348 63.2324 40 63.2324C40.2652 63.2324 40.5196 63.1424 40.7071 62.9821C40.8946 62.8219 41 62.6046 41 62.3779V58.96H45C45.2652 58.96 45.5196 58.8699 45.7071 58.7097C45.8946 58.5494 46 58.3321 46 58.1055C46 57.8788 45.8946 57.6615 45.7071 57.5013C45.5196 57.341 45.2652 57.251 45 57.251H41V53.833C41 53.6064 40.8946 53.389 40.7071 53.2288C40.5196 53.0685 40.2652 52.9785 40 52.9785Z" fill="#A6BDC9"/>
<rect x="101" y="36" width="64" height="64" rx="32" fill="#A6C3C9"/>
<rect x="94" y="29" width="78" height="78" rx="39" stroke="#00B3D6" stroke-width="2"/>
<rect x="194" y="36" width="64" height="64" rx="32" fill="#A6C3C9"/>
<rect x="187" y="29" width="78" height="78" rx="39" stroke="#00B3D6" stroke-width="2"/>
<rect x="287" y="36" width="64" height="64" rx="32" fill="#A6C3C9"/>
<rect x="280" y="29" width="78" height="78" rx="39" stroke="#00B3D6" stroke-width="2"/>
<rect x="380" y="36" width="64" height="64" rx="32" fill="#A6C3C9"/>
<rect x="373" y="29" width="78" height="78" rx="39" stroke="#00B3D6" stroke-width="2"/>
<rect x="473" y="36" width="64" height="64" rx="32" fill="#A6C3C9"/>
<rect x="466" y="29" width="78" height="78" rx="39" stroke="#517485" stroke-width="2"/>
<rect x="566" y="36" width="64" height="64" rx="32" fill="#A6C3C9"/>
<rect x="559" y="29" width="78" height="78" rx="39" stroke="#517485" stroke-width="2"/>
<rect x="659" y="36" width="64" height="64" rx="32" fill="#A6C3C9"/>
<rect x="652" y="29" width="78" height="78" rx="39" stroke="#517485" stroke-width="2"/>
<mask id="mask0_37_42413" style="mask-type:alpha" maskUnits="userSpaceOnUse" x="651" y="0" width="80" height="144">
<rect x="651" width="80" height="144" fill="white"/>
</mask>
<g mask="url(#mask0_37_42413)">
<g filter="url(#filter0_d_37_42413)">
<rect x="713" width="18" height="144" fill="#2D3843"/>
</g>
</g>
<defs>
<filter id="filter0_d_37_42413" x="655" y="-42" width="102" height="228" filterUnits="userSpaceOnUse" color-interpolation-filters="sRGB">
<feFlood flood-opacity="0" result="BackgroundImageFix"/>
<feColorMatrix in="SourceAlpha" type="matrix" values="0 0 0 0 0 0 0 0 0 0 0 0 0 0 0 0 0 0 127 0" result="hardAlpha"/>
<feOffset dx="-16"/>
<feGaussianBlur stdDeviation="21"/>
<feComposite in2="hardAlpha" operator="out"/>
<feColorMatrix type="matrix" values="0 0 0 0 0 0 0 0 0 0 0 0 0 0 0 0 0 0 0.08 0"/>
<feBlend mode="normal" in2="BackgroundImageFix" result="effect1_dropShadow_37_42413"/>
<feBlend mode="normal" in="SourceGraphic" in2="effect1_dropShadow_37_42413" result="shape"/>
</filter>
</defs>
</svg>
