<svg width="24" height="24" viewBox="0 0 24 24" fill="none" xmlns="http://www.w3.org/2000/svg">
<path d="M20.4849 4.59988C19.3591 3.47597 17.8333 2.84473 16.2424 2.84473C14.6516 2.84473 13.1258 3.47597 11.9999 4.59988C10.8716 3.4898 9.35038 2.87053 7.76756 2.87698C6.18474 2.88342 4.66858 3.51505 3.54935 4.63429C2.43012 5.75352 1.79849 7.26967 1.79204 8.8525C1.7856 10.4353 2.40486 11.9566 3.51494 13.0849L11.9999 21.5709L20.4849 13.0859C21.6092 11.96 22.2406 10.4339 22.2406 8.84288C22.2406 7.25181 21.6092 5.72577 20.4849 4.59988ZM19.0709 11.6709L11.9999 18.7429L4.92894 11.6719C4.5228 11.2748 4.20589 10.7958 3.9993 10.2666C3.7927 9.73755 3.70116 9.17051 3.73077 8.60328C3.76038 8.03605 3.91045 7.48162 4.17101 6.9769C4.43156 6.47218 4.79662 6.02874 5.24189 5.67609C5.68716 5.32344 6.20243 5.06966 6.75341 4.93165C7.3044 4.79364 7.87846 4.77455 8.43739 4.87566C8.99632 4.97677 9.52731 5.19577 9.99502 5.51807C10.4627 5.84036 10.8564 6.25858 11.1499 6.74488L11.9999 8.11688L12.8499 6.74488C13.0091 6.48054 13.1983 6.23557 13.4139 6.01488C14.1764 5.28828 15.1892 4.88297 16.2424 4.88297C17.2957 4.88297 18.3085 5.28828 19.0709 6.01488C19.4424 6.38631 19.7371 6.82728 19.9381 7.3126C20.1391 7.79791 20.2426 8.31807 20.2426 8.84338C20.2426 9.36868 20.1391 9.88884 19.9381 10.3742C19.7371 10.8595 19.4424 11.3004 19.0709 11.6719V11.6709Z" fill="white"/>
</svg>
