<svg width="172" height="161" viewBox="0 0 172 161" fill="none" xmlns="http://www.w3.org/2000/svg">
<g clip-path="url(#clip0_52_115729)">
<path d="M1.64631 95.7225C5.31204 83.8163 23.6527 63.0293 14.2314 53.0588C-8.55159 28.9471 2.05043 3.6311 37.0073 6.74002C43.3016 7.30001 49.3128 9.57522 54.7429 12.9477C80.9001 29.1915 112.175 -17.2641 136.02 7.35201C159.207 31.2898 127.47 47.5624 152.273 53.8573C187.208 64.2849 168.262 137.991 152.406 149.12C117.681 148.855 82.9976 149.649 54.3566 148.854C43.7105 148.06 -10.0131 133.59 1.64631 95.7225Z" fill="#E2F3F7"/>
<path d="M67.2374 101.787C69.5423 102.223 71.3233 100.428 73.4834 100.168C76.0417 99.859 77.2177 100.093 78.135 99.9971C79.053 99.9009 80.1896 99.6618 80.068 98.9004C79.947 98.139 79.1167 97.934 78.5415 97.9287C77.499 97.9191 75.4051 97.7816 75.3854 97.5456C75.3753 97.4272 79.8356 97.4948 80.586 97.4762C81.3358 97.4565 81.982 97.5677 82.6078 97.4422C83.2337 97.3173 83.6628 96.9145 83.5711 96.5075C83.4793 96.0999 83.335 95.7574 82.5649 95.5405C83.3052 95.403 84.1701 95.372 84.5665 95.271C84.9634 95.1694 85.4451 94.702 85.2907 94.2418C85.1363 93.781 84.5235 93.3693 83.94 93.3107C83.3571 93.2533 81.4223 93.0382 80.6176 93.0047C79.8052 92.9712 78.504 92.6312 78.504 92.6312C78.504 92.6312 82.4755 92.3927 83.1639 92.3204C83.8518 92.2481 84.3429 91.8985 84.2416 91.3732C84.1397 90.8478 83.4024 90.3297 82.131 90.344C80.8596 90.3578 74.1719 90.7546 71.914 91.2973C68.9123 92.0192 68.2375 93.4189 63.9632 95.8626C63.7922 101.963 67.2374 101.787 67.2374 101.787Z" fill="#A98671"/>
<path d="M82.5308 95.6203L82.5236 95.6904C79.6835 95.1097 75.9456 95.3371 75.9072 95.3377L75.8945 95.0235C75.933 95.0224 79.6537 95.0314 82.5308 95.6203Z" fill="#A98671"/>
<path d="M30.4346 107.814C35.2501 106.111 39.6365 104.976 41.7692 104.409C48.0707 102.73 55.2692 101.193 60.8363 97.9427C65.1768 95.4099 67.1337 94.5744 68.1022 93.7968C68.7627 93.2679 71.3317 93.1777 73.2438 95.9698C73.8828 96.9022 74.7 98.1704 73.729 99.4529C72.6239 100.913 69.05 101.591 68.1344 102.081C66.0697 103.186 67.48 102.437 61.0074 106.333C54.4455 110.283 46.3606 115.595 33.9543 119.755C33.0471 120.059 31.1964 119.586 31.1964 119.586C31.1964 119.586 28.6894 117.422 27.6701 115.744C26.18 113.291 25.5195 109.714 25.5195 109.714L30.4346 107.814Z" fill="#A98671"/>
<path d="M38.4395 72.067C39.0564 72.4722 40.9477 75.4723 45.2679 74.8305C50.6199 74.0356 53.9893 70.0607 53.857 65.6221C53.733 61.4727 52.6297 59.8441 53.2473 57.6143C53.8648 55.3839 56.3676 47.3385 56.3676 47.3385C56.3676 47.3385 54.3196 41.4422 52.1386 41.1111C49.9523 40.7788 49.7484 42.4092 49.7484 42.4092L49.5422 45.0448C49.5422 45.0448 52.0122 47.0719 51.6004 50.1127C51.1891 53.1541 49.5422 62.6829 47.6902 63.4939C45.8371 64.3049 40.7093 64.6288 40.7093 64.6288L38.4395 72.067Z" fill="#24372B"/>
<path d="M153.471 149.051L155.631 140.922L119.069 139.225L118.383 148.096L153.471 149.051Z" fill="#9EC8CF"/>
<path d="M142.929 112.397C146.417 114.982 145.514 117.803 143.599 119.979C141.684 122.155 132.549 121.306 132.549 121.306L118.337 114.613C118.337 114.613 112.35 110.2 108.985 108.03C108.02 107.408 102.945 103.777 100.569 102.967C98.1928 102.158 107.597 97.5116 109.785 98.775C112.573 100.385 128.739 104.737 131.999 106.413C135.26 108.089 142.222 111.875 142.929 112.397Z" fill="#846854"/>
<path d="M135.856 55.6858C136.193 55.5256 136.589 55.5866 136.857 55.846C138.976 57.8941 150.247 67.8418 151.125 70.071C153.503 76.1053 156.138 89.144 157.172 94.8132C158.206 100.482 156.311 140.838 156.311 140.838L130.583 141.803C130.583 141.803 116.414 134.522 115.876 134.183C114.193 133.122 116.805 96.1167 116.799 91.3876C116.793 86.6578 119.601 73.9275 120.378 70.5294C121.154 67.1318 125.028 62.521 125.028 62.521L135.856 55.6858Z" fill="white"/>
<path d="M126.283 78.1546L125.074 77.6699C125.159 76.832 125.912 69.407 127.184 67.7581C129.409 64.8751 139.507 59.4856 140.789 58.7559L142.008 60.0695C138.308 61.9239 131.833 65.6341 128.794 68.5488C128.01 69.3 126.51 75.9398 126.283 78.1546Z" fill="#5D7A6C"/>
<path d="M119.513 74.5508L129.172 79.1992L142.405 139.655L143.1 148.525H115.688L115.625 135.914L115.929 100.789L117.335 80.9856C117.335 80.9856 118.952 75.1759 119.513 74.5508Z" fill="#345848"/>
<path d="M125.754 115.645C125.754 115.645 132.788 86.9693 135.414 82.3207C138.038 77.6716 145.054 78.0308 148.468 79.8829C151.883 81.7349 146.735 120.235 139.582 125.509C136.94 127.455 125.754 115.645 125.754 115.645Z" fill="#846854"/>
<path d="M153.149 100.43L126.65 102.069C126.65 102.069 127.835 79.7417 129.094 76.3991C130.352 73.0559 136.768 70.9588 137.452 70.7598L152.068 76.3106L153.149 100.43Z" fill="white"/>
<path d="M154.058 101.817C154.042 101.587 152.512 78.7012 150.562 75.5714C148.681 72.5539 138.518 71.15 137.874 71.064C137.37 71.2193 130.6 73.3726 129.297 76.8366L128.833 79.3162L128.539 79.2606L129.011 76.7559C130.417 73.0147 137.746 70.7896 137.82 70.7681L137.85 70.7598L137.879 70.7634C138.325 70.8201 148.806 72.1929 150.814 75.4136C152.804 78.6062 154.292 100.852 154.354 101.798L154.058 101.817Z" fill="#E1E0D7"/>
<path d="M92.625 94.4786C92.8122 95.2788 94.6945 99.5956 94.8841 99.5418C95.3508 99.4091 97.0007 99.4569 96.9583 99.3487C96.9154 99.2406 96.4064 97.9425 95.8789 97.0263C95.3508 96.1101 95.039 95.4217 94.5032 94.8623C93.8785 94.2091 93.6103 94.0901 93.1483 94.1475C92.7186 94.2007 92.625 94.4786 92.625 94.4786Z" fill="#7A5948"/>
<path d="M89.7958 94.9586C89.6831 95.3154 91.6078 99.3651 91.8301 99.6107C92.053 99.8557 92.4971 99.8055 93.1581 99.8784C93.8186 99.9513 94.2162 99.4613 94.2162 99.4613C94.2162 99.4613 93.8877 98.9455 93.4431 98.0801C92.9054 97.0337 92.5859 96.3774 92.084 95.7427C91.5822 95.108 91.4987 95.0572 90.9563 94.8552C90.4133 94.6526 89.8327 94.8409 89.7958 94.9586Z" fill="#7A5948"/>
<path d="M86.8631 96.5647C87.3298 97.3799 88.6239 99.6592 88.6239 99.6592C88.6239 99.6592 89.3612 100.035 90.0729 100.129C90.784 100.223 91.4975 100.109 91.4492 99.8774C91.4009 99.6473 91.0111 98.7598 91.0111 98.7598L89.4047 96.8121C89.4047 96.8121 88.8259 95.8744 88.4093 95.4561C87.9921 95.0371 87.8401 94.972 87.449 94.8345C87.058 94.6976 86.6444 94.764 86.3493 95.0395C86.1949 95.1835 86.8631 96.5647 86.8631 96.5647Z" fill="#7A5948"/>
<path d="M82.5477 96.439C82.6222 96.6769 86.3458 102.129 88.7556 103.368C92.1126 105.094 104.736 103.445 104.736 103.445L110.356 99.5372C110.356 99.5372 105.477 95.5449 104.236 95.0035C102.996 94.4614 100.097 93.7711 99.546 93.5303C98.994 93.2888 93.5986 90.2612 93.384 90.3455C93.1694 90.4297 92.4506 91.1714 93.1759 92.1456C93.9008 93.1203 97.6762 95.7559 97.8317 96.1527C97.9873 96.5502 96.9519 97.9893 96.496 98.2833C96.0406 98.5773 89.3034 99.1708 88.9499 98.8523C88.5959 98.5331 85.3694 95.8133 84.8032 95.5605C83.2803 94.8815 82.4732 96.2011 82.5477 96.439Z" fill="#846854"/>
<path d="M102.334 102.881L106.113 96.9865C106.113 96.9865 105.572 95.6089 104.333 95.0639C103.093 94.5182 100.196 93.8202 99.645 93.5782C99.0943 93.3355 94.3771 90.3438 93.759 90.3438C92.9185 90.3438 92.577 92.5366 93.4502 93.3798C95.1186 94.9911 97.2192 95.6365 97.3437 96.0441C97.7514 97.3786 96.3149 99.9334 93.3054 100.144L102.334 102.881Z" fill="#846854"/>
<path d="M96.1408 91.0354C96.4063 91.1967 95.6058 91.4935 95.1291 91.433C94.6536 91.3727 93.39 90.765 93.2808 90.5283C93.1703 90.2878 93.0849 89.9856 93.3179 89.7463C93.6024 89.4523 95.4455 90.6133 96.1408 91.0354Z" fill="#937766"/>
<path d="M79.0762 90.1605L79.5393 94.4856L85.457 94.3428L85.9922 90.1605L84.8949 91.6779L83.6468 89.7129L82.7509 91.1831L81.7573 89.7679L80.5681 91.351L79.0762 90.1605Z" fill="#71B269"/>
<path d="M88.8294 91.3941C87.9752 91.9685 87.7213 93.2385 88.0265 93.7721C88.3328 94.3064 88.6493 94.9979 89.9118 95.1479C91.1748 95.2985 93.0983 94.6883 93.2485 94.2813C93.3987 93.8743 93.7152 92.0001 92.5893 91.4503C91.2159 90.7798 89.5989 90.8766 88.8294 91.3941Z" fill="#FAFAF7"/>
<path d="M90.7174 93.6471C90.932 93.9244 91.4315 93.4648 91.528 93.4253C91.624 93.3859 92.1509 92.8857 92.0758 92.759C92.0007 92.6317 91.4446 92.2402 91.4446 92.2402C91.4446 92.2402 91.1269 92.4279 90.7961 92.4177C90.4647 92.4076 89.9342 92.3783 89.8114 92.5193C89.6893 92.6604 90.15 93.0913 90.2668 93.3476C90.3836 93.604 90.6447 93.5526 90.7174 93.6471Z" fill="#C3DEC1"/>
<path d="M89.2649 92.491C89.2649 92.491 88.8656 92.9154 88.8465 93.1156C88.8274 93.3152 89.1469 93.6242 89.1469 93.6242L89.7758 93.6463C89.7758 93.6463 89.8771 93.2094 89.9975 93.0355C90.1173 92.8616 90.5757 92.3339 90.3057 92.2532C90.0357 92.1731 89.2649 92.491 89.2649 92.491Z" fill="#B1D4AC"/>
<path d="M83.8182 93.0469C83.8212 92.9973 83.9476 92.7547 84.1908 92.4188C84.434 92.0835 84.6426 91.3956 85.0735 91.6711C85.5057 91.9461 85.914 91.67 86.2251 92.0883C86.5369 92.506 86.8099 92.622 86.8421 93.023C86.8749 93.4252 87.2623 93.4975 86.8486 93.8734C86.435 94.2488 86.1858 94.6844 85.5105 94.7448C84.8351 94.8052 84.0626 94.6103 83.913 94.3019C83.7628 93.993 83.8099 93.188 83.8182 93.0469Z" fill="#C3D47A"/>
<path d="M96.5677 94.758C97.4236 94.186 97.6817 92.9172 97.3771 92.3823C97.0731 91.8474 96.7578 91.1548 95.496 91.0012C94.2341 90.847 92.3082 91.4512 92.1574 91.8576C92.006 92.2646 91.6842 94.1376 92.8083 94.691C94.1793 95.3658 95.7964 95.2737 96.5677 94.758Z" fill="#FAFAF7"/>
<path d="M94.6258 91.6965C94.4124 91.4186 93.9117 91.8764 93.8151 91.9159C93.7186 91.9553 93.1904 92.4538 93.265 92.5805C93.3401 92.7078 93.8944 93.101 93.8944 93.101C93.8944 93.101 94.2127 92.9145 94.5435 92.9259C94.8749 92.9367 95.406 92.9671 95.5288 92.8273C95.651 92.6862 95.192 92.2541 95.0758 91.9972C94.9596 91.7408 94.6985 91.791 94.6258 91.6965Z" fill="#FF4F2D"/>
<path d="M95.9567 93.3967C95.9567 93.3967 96.3578 92.9735 96.3769 92.7739C96.3965 92.5743 96.0782 92.2641 96.0782 92.2641L95.4488 92.2402C95.4488 92.2402 95.3469 92.6771 95.2259 92.8504C95.1055 93.0237 94.6459 93.5503 94.9154 93.6315C95.1854 93.7128 95.9567 93.3967 95.9567 93.3967Z" fill="#FF6E52"/>
<path d="M74.6793 95.3566C75.6449 95.6991 77.6821 95.1134 78.4033 95.2114C79.1252 95.31 80.7495 95.4971 81.4564 95.2018C82.1632 94.9066 82.0245 94.5193 81.7705 92.8579C81.5166 91.1965 74.8377 91.6907 74.2935 91.6351C73.7488 91.5789 74.156 95.1713 74.6793 95.3566Z" fill="#FAFAF7"/>
<path d="M75.2891 90.9766C74.2907 91.0124 73.9879 91.5664 74.041 92.0487C74.0744 92.3481 74.0475 93.0898 74.3086 93.4072C74.5703 93.7245 75.1717 94.1112 75.6986 93.8536C76.2261 93.5966 77.6876 93.5548 79.3059 93.4484C80.9748 93.339 82.1985 93.8476 82.4423 93.6719C82.6861 93.4962 82.5758 92.0081 81.9542 91.622C80.7543 90.8768 79.4162 91.1134 78.6276 91.0525C77.8384 90.9927 75.2891 90.9766 75.2891 90.9766Z" fill="#FF6E52"/>
<path d="M73.3125 95.161C73.4216 95.4025 73.8924 96.5065 74.2849 96.543C74.6774 96.5801 97.8583 96.6623 98.1793 96.5262C98.4995 96.3912 99.1314 94.916 99.1314 94.916L73.3125 95.161Z" fill="#345848"/>
<path d="M70.8691 94.4024C70.9408 94.8171 71.0488 95.0939 71.2271 95.1635C71.4048 95.2336 101.247 95.3764 101.282 95.0309C101.316 94.6854 101.385 94.1672 101.207 94.1317C101.029 94.0968 70.8691 94.4024 70.8691 94.4024Z" fill="#345848"/>
<g opacity="0.61">
<g opacity="0.61">
<path opacity="0.61" d="M72.547 89.3838C72.2263 89.7287 71.3704 92.9828 71.157 93.0211C70.943 93.0593 70.3636 93.5697 70.3011 93.749C70.1944 94.055 70.3011 94.5146 70.4441 94.5146C70.5866 94.5146 101.779 94.5911 101.957 94.2468C102.136 93.902 102.1 93.4042 101.636 93.2512C101.173 93.0982 100.78 92.5621 100.78 92.5621C100.78 92.5621 100.389 90.1112 100.032 89.4986C99.6759 88.886 72.8677 89.039 72.547 89.3838Z" fill="white"/>
</g>
</g>
<path d="M105.886 32.1973C106.079 35.5465 107.234 38.4056 109.298 40.1543C111.361 41.9041 113.086 40.719 113.086 40.719L116.433 36.7107L121.532 35.3648C121.532 35.3648 124.203 39.3516 123.901 40.6383C123.599 41.9239 132.397 50.8353 132.397 50.8353C132.397 50.8353 138.316 41.2665 136.105 33.7685C134.532 28.4351 129.823 24.9079 127.177 24.8469C124.529 24.7854 120.725 27.4317 121.108 25.6029C121.491 23.7742 115.458 22.8992 113.781 23.6361C112.106 24.3736 112.517 27.4341 111.494 27.6146C110.471 27.7951 107.665 25.8241 107.103 26.6279C106.542 27.4317 105.692 28.8481 105.886 32.1973Z" fill="#24372B"/>
<path d="M135.034 38.2447C133.606 28.2427 130.166 27.3187 126.661 27.813C125.403 27.9899 124.225 28.4465 122.98 28.9306C120.979 29.7075 118.908 30.5107 116.454 30.0774C115.109 29.8402 114.198 29.2575 113.747 28.3449C112.853 26.537 114.078 24.1106 114.131 24.0078L114.378 24.1357C114.365 24.1596 113.164 26.5412 113.996 28.2218C114.406 29.0501 115.249 29.582 116.502 29.8031C118.882 30.2232 120.914 29.4338 122.879 28.6706C124.085 28.2026 125.332 27.7185 126.623 27.5369C131.613 26.8358 134.127 29.9268 135.309 38.2053L135.034 38.2447Z" fill="#345848"/>
<path d="M112.473 39.4585C109.911 38.4132 108.498 36.1691 108.388 32.9681C108.305 30.5698 108.988 28.4512 108.995 28.4297L109.26 28.5169C109.233 28.5994 106.637 36.7775 112.578 39.2003L112.473 39.4585Z" fill="#345848"/>
<path d="M133.122 50.1817C133.214 49.8428 130.906 45.18 130.971 44.5698C131.254 41.884 131.431 40.1939 130.468 39.7044C128.925 38.9197 126.149 40.7025 126.149 40.7025C126.149 40.7025 122.938 35.1421 121.996 34.7799C121.054 34.4177 113.939 37.2619 113.939 37.2619L112.268 40.8184C112.268 40.8184 111.637 50.7638 111.918 51.316C112.199 51.8688 114.137 51.7128 114.137 51.7128C114.137 51.7128 116.643 57.9528 117.194 58.5068C117.746 59.0608 122.243 57.5936 122.839 57.7065C123.434 57.8195 126.026 65.5493 126.026 65.5493L137.919 56.9511L133.122 50.1817Z" fill="#846854"/>
<path d="M130.637 44.9316L129.201 48.7725C129.201 48.7725 131.519 51.7154 132.042 51.9985C132.565 52.2822 134.213 47.9211 134.704 46.2925C135.063 45.1028 130.637 44.9316 130.637 44.9316Z" fill="#24372B"/>
<path d="M63.9649 100.532L62.3164 149.342L106.064 149.004L100.93 100.158L63.9649 100.532Z" fill="#FF3000"/>
<path d="M98.1044 117.915H69.3125L70.8718 101.271L73.5796 101.409L72.1646 115.196H94.8296L92.0538 101.593L94.717 101.086L98.1044 117.915Z" fill="#FF5636"/>
<path d="M54.3672 149.428C53.0909 138.548 51.8685 127.646 51.8685 127.646L34.0742 134.273C34.0742 134.273 34.4762 140.781 34.9866 149.126L54.3672 149.428Z" fill="#70BFC7"/>
<path d="M48.635 148.88C49.3533 141.44 50.9519 123.197 50.9519 123.197L28.4979 125.472C27.9394 128.37 26.2651 131.713 23.4743 135.503C20.9429 138.94 18.9509 144.099 18.5879 149.14L48.635 148.88Z" fill="#A7CDD4"/>
<path d="M50.7683 123.182L51.0387 123.201L49.7058 142.525L49.4355 142.506L50.7683 123.182Z" fill="#DEF4F8"/>
<path d="M43.6093 60.4112C42.0071 62.7957 42.8421 73.1433 42.8421 73.1433L43.437 77.0686L36.301 75.6773L29.6133 71.6677C29.6133 71.6677 32.6419 69.0453 33.2457 66.2136C35.0565 57.723 33.5562 52.5988 33.6301 51.8631C33.7046 51.1274 37.8758 57.8204 37.8758 57.8204L41.7633 60.3669L43.6093 60.4112Z" fill="#B8947D"/>
<path d="M42.7273 38.0731C48.2206 37.2723 49.0264 39.4955 50.7699 41.7277C51.9978 43.2995 54.0077 44.5103 53.9409 47.9551C53.8986 50.1598 53.2155 52.7613 53.6208 55.9706C53.7531 57.0159 54.5525 59.2224 54.2818 59.5481C54.1161 59.7471 53.7859 59.912 53.4223 60.0118C53.1774 60.0788 52.4979 59.9455 52.4979 59.9455C52.4979 59.9455 52.3 61.2041 51.9692 62.2643C51.5728 63.1913 49.5748 66.4126 47.8623 66.6361C46.1469 66.8608 44.3712 66.0402 42.0818 65.2047C40.6233 64.3567 39.334 63.1853 38.5567 61.8006C37.4105 59.7578 33.7806 59.3646 32.3762 53.1486C30.9487 46.8285 32.6016 43.3395 33.7239 41.3631C34.8457 39.3867 36.2268 39.021 42.7273 38.0731Z" fill="#BF9A7F"/>
<path d="M46.5398 72.8987C46.1357 72.5001 43.9136 71.4578 42.774 71.6072C42.8234 72.1535 42.9313 73.4258 42.6256 73.4456C36.5238 73.828 29.2656 70.7598 29.2656 70.7598C25.6511 71.5947 20.5876 81.5627 20.2819 82.5685C19.3186 85.7432 20.0065 130.121 21.9341 131.225C23.8612 132.33 29.7812 132.053 36.1828 131.018C44.0895 129.74 53.5292 129.362 56.2132 123.357C56.8116 122.019 55.5492 108.806 52.9099 94.5769C50.8606 83.5343 49.7609 76.0788 46.5398 72.8987Z" fill="#FF421C"/>
<path d="M64.7158 110.633C67.0208 111.069 68.8018 109.274 70.9619 109.014C73.5202 108.705 74.6962 108.939 75.6135 108.843C76.5314 108.747 77.6681 108.508 77.5465 107.746C77.4255 106.985 76.5952 106.78 76.02 106.774C74.9775 106.765 72.8836 106.627 72.8639 106.391C72.8538 106.273 77.3141 106.341 78.0645 106.322C78.8143 106.302 79.4605 106.413 80.0863 106.288C80.7122 106.163 81.1413 105.76 81.0489 105.353C80.9577 104.946 80.8135 104.603 80.0434 104.386C80.7837 104.249 81.6486 104.218 82.0449 104.117C82.4419 104.015 82.9235 103.548 82.7692 103.088C82.6148 102.627 82.002 102.215 81.4185 102.157C80.8356 102.099 78.9008 101.884 78.0961 101.85C77.2837 101.817 75.9825 101.477 75.9825 101.477C75.9825 101.477 79.954 101.238 80.6424 101.166C81.3303 101.094 81.8214 100.744 81.7201 100.219C81.6182 99.6936 80.8809 99.1754 79.6095 99.1897C78.3381 99.2035 71.6503 99.6003 69.3925 100.143C66.3908 100.865 65.716 102.265 61.4417 104.708C61.2706 110.809 64.7158 110.633 64.7158 110.633Z" fill="#BF9A7F"/>
<path d="M80.0113 104.463L80.0041 104.533C77.1641 103.953 73.4262 104.18 73.3877 104.181L73.375 103.867C73.4135 103.865 77.1343 103.875 80.0113 104.463Z" fill="#BF9A7F"/>
<path d="M22.0527 89.7129C22.2113 94.5048 22.6386 109.754 22.7853 115.313C22.7853 115.313 22.6768 125.123 28.7541 124.925C34.6604 124.732 34.1097 114.753 34.1097 114.753C34.0626 111.018 33.5685 103.109 33.4546 100.595C33.2478 96.0401 33.2478 94.5908 33.305 91.3026L22.0527 89.7129Z" fill="#BF9A7F"/>
<path d="M27.913 116.028C32.7286 114.324 37.1149 113.19 39.2476 112.622C45.5491 110.943 52.7476 109.406 58.3148 106.157C62.6553 103.623 64.6121 102.788 65.5807 102.01C66.2411 101.481 68.8101 101.391 70.7223 104.183C71.3612 105.116 72.1784 106.384 71.2075 107.667C70.1024 109.127 66.5284 109.805 65.6129 110.295C63.5482 111.399 64.9578 110.651 58.4859 114.546C51.9239 118.496 43.839 123.808 31.4327 127.969C30.5255 128.273 28.6748 127.8 28.6748 127.8C28.6748 127.8 26.1678 125.635 25.1485 123.957C23.6584 121.505 22.998 117.927 22.998 117.927L27.913 116.028Z" fill="#BF9A7F"/>
<path d="M133.238 121.273C137.575 121.253 145.286 111.427 144.502 114.22C140.935 126.939 134.195 130.914 134.195 130.914C134.195 130.914 101.615 138.594 100.637 139.193C99.658 139.793 97.765 142.098 95.3778 142.874C92.9912 143.65 96.0424 130.529 98.55 130.229C101.745 129.847 122.258 116.422 125.871 115.81C129.483 115.199 132.36 121.277 133.238 121.273Z" fill="#846854"/>
<path d="M136.45 55.6078C136.277 55.5815 136.096 55.606 135.929 55.6849L125.101 62.5201C125.101 62.5201 124.972 62.6737 124.762 62.9385C125.358 64.5802 125.839 66.0151 125.839 66.0151L137.732 57.4169L136.45 55.6078Z" fill="#E6E6D5"/>
<path d="M76.2441 120.68C76.5577 121.372 76.4319 121.821 76.9737 122.408C77.5149 122.994 77.8398 123.345 78.1748 123.357C78.5103 123.369 80.6418 123.219 81.8715 123.263C83.1017 123.307 84.1073 123.343 84.202 123.913C84.2956 124.483 84.2849 124.823 83.3866 124.905C82.4896 124.986 80.5917 124.805 80.2532 124.906C79.914 125.007 78.688 124.851 79.2292 125.436C79.7704 126.023 80.9673 127.489 81.3201 127.468C81.909 127.432 84.084 127.493 84.8744 127.453C86.1911 127.387 87.379 125.217 87.3289 124.138C87.2789 123.064 86.3031 121.153 85.0764 120.995C83.8504 120.838 80.2729 120.71 79.4896 120.682C78.7076 120.655 76.2441 120.68 76.2441 120.68Z" fill="white"/>
<path d="M102.352 139.284C101.945 139.502 100.932 140.117 100.431 140.587C99.5561 141.407 98.7097 141.833 97.6899 142.711C96.67 143.589 94.1916 145.184 93.0258 145.478C91.8593 145.771 86.2587 147.346 85.016 147.603C83.7738 147.86 83.4424 147.47 83.1074 146.89C82.7718 146.31 83.5711 145.703 83.5711 145.703C83.5711 145.703 81.5612 146.301 80.4311 146.518C79.301 146.734 78.4862 145.88 78.4123 145.142C78.3932 144.955 78.5446 144.78 78.7789 144.624C77.0199 145.194 76.5508 144.385 76.2963 143.676C76.0328 142.942 77.3495 142.063 78.6406 141.47C79.5519 141.051 83.5199 139.539 84.681 139.056C85.8433 138.573 86.5908 138.176 86.6217 137.91C86.6533 137.643 86.1217 137.58 85.3706 137.788C84.6184 137.995 81.8879 138.534 80.0061 138.959C78.1244 139.383 76.5866 139.173 76.3034 138.383C76.0197 137.593 76.8035 137.119 77.6064 136.701C78.4105 136.284 82.6401 135.14 84.2518 134.495C85.8636 133.849 88.5941 133.31 89.2283 132.954C89.8637 132.597 89.8142 132.105 89.6974 131.956C89.58 131.807 87.7113 131.207 86.9466 130.845C86.1813 130.484 84.6345 129.895 83.7124 129.272C82.7891 128.649 82.9429 127.574 83.5097 127.115C84.0516 126.675 85.7509 127.516 86.6814 127.627C87.6112 127.738 88.7789 127.539 91.0391 127.903C92.72 128.173 94.4783 129.338 97.0754 130.377C97.8127 130.671 98.6245 130.825 100.427 130.466C100.427 130.466 101.283 131.159 102.118 134.758C102.954 138.358 102.352 139.284 102.352 139.284Z" fill="#846854"/>
<path d="M45.3691 83.4436C45.505 83.81 45.4574 84.0532 45.6845 84.3598C45.9121 84.6658 46.0486 84.8498 46.1857 84.851C46.3228 84.8522 47.1925 84.7387 47.6956 84.7435C48.1986 84.7482 48.6099 84.7518 48.6552 85.0566C48.6993 85.3608 48.6981 85.5437 48.3321 85.6011C47.9656 85.659 47.1883 85.5909 47.0506 85.6507C46.9135 85.7098 46.4105 85.6447 46.6376 85.9507C46.8652 86.2573 47.3689 87.0258 47.5132 87.0091C47.7534 86.981 48.6433 86.9798 48.9657 86.9463C49.504 86.8908 49.9665 85.708 49.9349 85.1289C49.9033 84.5528 49.4855 83.5422 48.9824 83.4771C48.48 83.4113 47.016 83.3976 46.696 83.3946C46.3753 83.3922 45.3691 83.4436 45.3691 83.4436Z" fill="white"/>
<path d="M47.9959 53.3089C47.8868 53.3089 47.7831 53.346 47.6967 53.4171C47.5953 53.5002 47.5351 53.6179 47.5262 53.7488C47.4356 55.1574 47.4422 58.4492 49.4693 58.5837C49.5206 58.5873 49.5719 58.5891 49.6225 58.5891C51.9871 58.5891 53.0332 54.8938 53.2507 54.0016L48.0609 53.3131C48.0394 53.3101 48.0174 53.3089 47.9959 53.3089ZM49.6279 58.8281C49.5707 58.8281 49.5123 58.8263 49.4527 58.8227C47.2121 58.6733 47.1924 55.2136 47.2884 53.7326C47.3015 53.5354 47.3921 53.3579 47.5453 53.2318C47.6979 53.1069 47.8975 53.0507 48.0925 53.0764L54.5865 53.937C54.9471 53.989 55.443 54.102 55.6016 54.4821C55.7333 54.8365 55.3804 56.7788 54.8625 57.8534C54.6395 58.3141 54.4029 58.5879 54.1585 58.6673L54.0852 58.4396C54.2092 58.3996 54.4071 58.2472 54.6473 57.7494C55.1796 56.6467 55.4698 54.8114 55.3798 54.5705C55.2964 54.3703 55.0335 54.243 54.5537 54.1737L53.4903 54.0326C53.2799 54.9315 52.2184 58.8281 49.6279 58.8281Z" fill="#FF0000"/>
<path d="M47.5669 53.4648L47.5721 53.6888L39.5599 53.9028L39.5547 53.6789L47.5669 53.4648Z" fill="#FF0000"/>
<path d="M39.3384 53.4402C39.3384 53.4402 42.3282 55.7883 44.5914 52.8108C46.8541 49.8334 50.9239 43.6688 53.4345 45.2585C54.114 45.6888 53.3785 41.9792 53.3785 41.9792C53.3785 41.9792 50.5401 35.1303 42.0701 35.3879C33.3487 35.6526 33.8589 41.2585 31.6308 41.88C28.3615 42.7926 23.9668 42.1454 21.4896 42.0456C19.2097 42.9402 15.8354 44.7905 15.1464 48.9352C14.4859 52.9101 18.3031 58.2781 14.6928 61.5728C11.0831 64.8676 8.50631 65.9278 5.99573 70.2338C5.80678 75.444 9.22992 80.6083 14.4192 83.052C19.9029 85.6344 28.7239 84.8079 34.1414 77.7856C41.8436 67.8026 38.0998 58.4107 37.1581 57.017C35.2721 54.2261 36.6979 51.5791 39.3384 53.4402Z" fill="#24372B"/>
<path d="M8.11733 76.5587H7.87891C7.87891 70.0612 9.91265 68.897 12.4864 67.4232C13.5569 66.81 14.7705 66.1156 15.9763 64.946C18.599 62.4012 17.7824 59.9886 16.8364 57.1952C16.3352 55.716 15.7677 54.0391 15.6753 52.1858C15.4214 47.0861 20.4801 46.3092 24.5452 45.6853C24.7968 45.6464 25.0453 45.6082 25.2903 45.5693C28.5585 45.0524 28.9334 44.631 30.5111 42.8572C31.3355 41.9321 32.4638 40.6639 34.4791 38.8423C42.527 31.5643 51.99 40.6083 52.0848 40.6998L51.9179 40.8713C51.8255 40.781 42.524 31.8924 34.6382 39.0192C32.6331 40.8324 31.5095 42.0947 30.6894 43.0162C29.105 44.7966 28.6795 45.2753 25.3272 45.806C25.0829 45.8442 24.8337 45.8825 24.581 45.9213C20.4038 46.5632 15.67 47.2893 15.9138 52.1744C16.0038 53.9936 16.542 55.5822 17.0623 57.1187C18.0339 59.9886 18.8732 62.4676 16.1414 65.1175C14.9148 66.3086 13.6875 67.0108 12.6045 67.6312C9.99967 69.1223 8.11733 70.1998 8.11733 76.5587Z" fill="#345848"/>
<path d="M19.607 84.3275L19.5312 84.1004C19.6362 84.0658 30.2728 79.6128 32.4037 71.3325C33.2632 67.9923 32.3101 64.5684 31.3885 61.2581C30.4664 57.946 29.5957 54.8179 30.9624 52.4877C32.9062 49.1756 35.8078 49.3531 38.3636 49.5073C40.2822 49.6239 41.9382 49.7243 42.7202 48.2523C46.6947 40.7812 50.3336 41.0071 51.7016 41.0884C51.7957 41.0944 51.8773 41.0991 51.9458 41.1003L51.9411 41.3394C51.8701 41.3382 51.785 41.3328 51.6867 41.3268C50.3628 41.2456 46.8342 41.0268 42.9312 48.3646C42.0758 49.9723 40.2656 49.8611 38.3486 49.7458C35.8608 49.5934 33.0373 49.4225 31.1681 52.6091C29.852 54.8514 30.7102 57.9322 31.618 61.1941C32.5049 64.379 33.5099 67.9893 32.6337 71.3917C30.4736 79.7849 19.7131 84.2917 19.607 84.3275Z" fill="#345848"/>
<path d="M12.4941 149.102H168.553V149.412H12.4941V149.102Z" fill="#345848"/>
</g>
<defs>
<clipPath id="clip0_52_115729">
<rect width="172" height="161" fill="white"/>
</clipPath>
</defs>
</svg>
