<svg width="16" height="16" viewBox="0 0 16 16" fill="none" xmlns="http://www.w3.org/2000/svg">
<path d="M8 0C12.4183 0 16 3.58172 16 8C16 11.993 13.0745 15.3027 9.25 15.9028V10.3125H11.1141L11.4687 8H9.25V6.49931C9.25 6.32912 9.2724 6.16009 9.32453 6.00391C9.442 5.65208 9.7102 5.36547 10.2124 5.27773C10.3159 5.25963 10.4295 5.25 10.5537 5.25H11.5625V3.28125C11.5625 3.28125 10.647 3.125 9.77173 3.125C7.94433 3.125 6.75 4.2325 6.75 6.2375V8H4.71875V10.3125H6.75V15.9028C2.9255 15.3027 0 11.993 0 8C0 3.58172 3.58172 0 8 0Z" fill="#C2C8CC"/>
</svg>
