<svg width="31" height="32" viewBox="0 0 31 32" fill="none" xmlns="http://www.w3.org/2000/svg">
<path d="M5.99985 15C5.99985 14.7348 6.10525 14.4804 6.29275 14.2929C6.48025 14.1054 6.73465 14 6.99985 14L20.5899 14L19.2899 12.71C19.1016 12.5217 18.9958 12.2663 18.9958 12C18.9958 11.7337 19.1016 11.4783 19.2899 11.29C19.4782 11.1017 19.7336 10.9959 19.9999 10.9959C20.2662 10.9959 20.5216 11.1017 20.7099 11.29L23.7099 14.29C23.8486 14.4306 23.9426 14.6092 23.98 14.8032C24.0174 14.9972 23.9964 15.1979 23.9199 15.38C23.8448 15.5626 23.7174 15.719 23.5537 15.8293C23.39 15.9396 23.1973 15.999 22.9999 16L6.99985 16C6.73465 16 6.48025 15.8946 6.29275 15.7071C6.10525 15.5196 5.99985 15.2652 5.99985 15Z" fill="#393D46"/>
<path d="M18.9998 18C18.9991 17.8684 19.0243 17.7379 19.074 17.6161C19.1238 17.4943 19.1971 17.3834 19.2898 17.29L22.2898 14.29C22.4781 14.1017 22.7335 13.9959 22.9998 13.9959C23.1317 13.9959 23.2622 14.0219 23.3841 14.0723C23.5059 14.1228 23.6166 14.1968 23.7098 14.29C23.8031 14.3832 23.877 14.4939 23.9275 14.6158C23.9779 14.7376 24.0039 14.8681 24.0039 15C24.0039 15.2663 23.8981 15.5217 23.7098 15.71L20.7098 18.71C20.6169 18.8037 20.5062 18.8781 20.3844 18.9289C20.2625 18.9797 20.1318 19.0058 19.9998 19.0058C19.8678 19.0058 19.7371 18.9797 19.6152 18.9289C19.4934 18.8781 19.3828 18.8037 19.2898 18.71C19.1971 18.6166 19.1238 18.5058 19.074 18.3839C19.0243 18.2621 18.9991 18.1316 18.9998 18Z" fill="#393D46"/>
</svg>
