<svg width="27" height="23" viewBox="0 0 27 23" fill="none" xmlns="http://www.w3.org/2000/svg">
<path d="M1.51735 9.09583L1.47521 9.10505H19.5426L13.8629 3.4128C13.5848 3.1349 13.4322 2.75843 13.4322 2.3633C13.4322 1.96817 13.5848 1.59434 13.8629 1.31577L14.7467 0.431567C15.0246 0.153661 15.3949 0 15.7898 0C16.1849 0 16.5555 0.152563 16.8334 0.430469L26.5695 10.1657C26.8485 10.4448 27.0011 10.8164 27 11.2117C27.0011 11.6093 26.8485 11.9811 26.5695 12.2597L16.8334 21.9959C16.5555 22.2735 16.1851 22.4263 15.7898 22.4263C15.3949 22.4263 15.0246 22.2733 14.7467 21.9959L13.8629 21.1117C13.5848 20.8342 13.4322 20.4636 13.4322 20.0685C13.4322 19.6736 13.5848 19.3226 13.8629 19.0449L19.6067 13.3208H1.49716C0.683413 13.3208 -0.000376192 12.6195 -0.000376192 11.8062V10.5556C-0.000376192 9.7423 0.70361 9.09583 1.51735 9.09583Z" fill="white"/>
</svg>
