<svg width="22" height="22" viewBox="0 0 22 22" fill="none" xmlns="http://www.w3.org/2000/svg">
<path d="M1.91704 13.8753C1.79057 13.4687 1.35843 13.2416 0.951822 13.3681C0.545218 13.4946 0.318127 13.9267 0.444599 14.3333L1.91704 13.8753ZM8.76776 21.8709C9.18499 21.956 9.59219 21.6867 9.67727 21.2695C9.76235 20.8522 9.49309 20.445 9.07586 20.36L8.76776 21.8709ZM0.444599 14.3333C1.62705 18.1349 4.80845 21.0636 8.76776 21.8709L9.07586 20.36C5.67455 19.6664 2.93455 17.1466 1.91704 13.8753L0.444599 14.3333Z" fill="white"/>
<path d="M0.00396059 9.92515C-0.0388255 10.3488 0.269937 10.7269 0.693602 10.7697C1.11727 10.8125 1.4954 10.5038 1.53818 10.0801L0.00396059 9.92515ZM20.4615 10.0802C20.5044 10.5039 20.8826 10.8126 21.3063 10.7697C21.7299 10.7268 22.0386 10.3487 21.9958 9.925L20.4615 10.0802ZM1.53818 10.0801C2.02304 5.27906 6.0739 1.54203 10.9999 1.54203V0C5.27554 0 0.567683 4.34319 0.00396059 9.92515L1.53818 10.0801ZM10.9999 1.54203C15.9252 1.54203 19.9767 5.28876 20.4615 10.0802L21.9958 9.925C21.432 4.35405 16.7248 0 10.9999 0V1.54203Z" fill="white"/>
<path d="M12.9108 20.3701C12.4936 20.4554 12.2245 20.8628 12.3098 21.28C12.3951 21.6972 12.8025 21.9662 13.2197 21.8809L12.9108 20.3701ZM21.541 14.3891C21.67 13.9832 21.4455 13.5497 21.0397 13.4207C20.6339 13.2918 20.2004 13.5162 20.0714 13.922L21.541 14.3891ZM13.2197 21.8809C17.1664 21.0739 20.3368 18.1785 21.541 14.3891L20.0714 13.922C19.0346 17.1848 16.3041 19.6762 12.9108 20.3701L13.2197 21.8809Z" fill="white"/>
</svg>
