<svg width="20" height="13" viewBox="0 0 20 13" fill="none" xmlns="http://www.w3.org/2000/svg">
<path d="M18.6055 5.56804L2.36458 0.111657C2.07481 0.0143941 1.75262 -0.0203777 1.43638 0.011483C1.12014 0.0433436 0.82319 0.140494 0.580893 0.291362C0.338596 0.44223 0.161169 0.640457 0.069743 0.862431C-0.0216829 1.08441 -0.0232531 1.32077 0.0652197 1.54338L1.82051 5.95321H7.6594C7.85937 5.95321 8.05115 6.01086 8.19255 6.11346C8.33395 6.21607 8.41338 6.35523 8.41338 6.50034C8.41338 6.64545 8.33395 6.78461 8.19255 6.88722C8.05115 6.98982 7.85937 7.04747 7.6594 7.04747H1.82051L0.0652197 11.4542C-0.00579267 11.634 -0.0185257 11.8232 0.0280172 12.0071C0.0745602 12.1911 0.179117 12.3647 0.333506 12.5144C0.487895 12.6641 0.687929 12.7858 0.917958 12.8701C1.14799 12.9544 1.40177 12.9989 1.65945 13.0002C1.90315 12.9998 2.1438 12.9608 2.36458 12.886L18.6055 7.4287C18.85 7.34641 19.057 7.21511 19.202 7.05027C19.3471 6.88544 19.4241 6.69394 19.4241 6.49837C19.4241 6.3028 19.3471 6.1113 19.202 5.94647C19.057 5.78163 18.85 5.65033 18.6055 5.56804Z" fill="white"/>
</svg>
