<svg width="30" height="30" viewBox="0 0 30 30" fill="none" xmlns="http://www.w3.org/2000/svg">
<g clip-path="url(#clip0_52_38365)">
<path d="M19.8747 28.5L19.7809 29.9063H23.3434C23.3434 29.9063 23.7184 29.4375 23.3434 29.25C22.9684 29.0625 21.3747 28.4062 21.3747 28.4062L19.8747 28.5ZM19.4059 28.5L19.4997 29.9063H15.9372C15.9372 29.9063 15.5622 29.4375 15.9372 29.25C16.3122 29.0625 17.9059 28.4062 17.9059 28.4062L19.4059 28.5Z" fill="#604E46"/>
<path d="M19.875 18.0938L19.3125 22.6875L19.5 28.7813H17.625L17.1562 22.6875L17.3438 18.375L19.875 18.0938Z" fill="#3D5E7F"/>
<path d="M19.5 18.0938L20.0625 22.6875L19.875 28.7813H21.75L22.2188 22.6875L22.0313 18.375L19.5 18.0938Z" fill="#3D5E7F"/>
<path d="M7.68702 2.15538C7.68702 2.15538 7.03077 1.78038 5.90577 2.06163C4.78077 2.34288 3.18702 4.03038 3.37452 6.09288C3.56202 8.06163 4.87452 10.6866 7.21827 10.6866C9.56202 10.6866 10.8745 8.15538 10.9683 7.68663C11.062 7.21788 11.7183 1.87413 7.68702 2.15538Z" fill="#7F5F52"/>
<path d="M10.7812 11.7179C10.125 11.2491 9.375 12.2804 9.375 12.2804C9.09375 12.5616 9 13.1241 9 13.1241L9.375 13.4991L11.1562 16.3116C11.3438 16.6866 12 16.7804 12.4688 16.5929C12.9375 16.4054 12.8437 15.9366 12.8437 15.9366C12.8437 15.9366 11.3438 12.0929 10.7812 11.7179ZM3.5625 11.9054C4.03125 11.3429 5.0625 12.0929 5.0625 12.0929C5.34375 12.2804 5.625 12.7491 5.625 12.7491L5.34375 13.2179L4.40625 16.4054C4.3125 16.8741 3.75 17.0616 3.28125 17.0616C2.71875 16.9679 2.71875 16.4991 2.71875 16.4991C2.71875 16.4991 3 12.4679 3.5625 11.9054Z" fill="#57934D"/>
<path d="M2.81217 16.5932C3.18717 15.9369 3.37467 16.1244 3.37467 16.1244L4.31217 16.8744C4.31217 16.8744 4.31217 17.4369 4.21842 17.9057L3.93717 19.6869C3.93717 19.8744 3.84342 20.1557 3.56217 20.1557C3.37467 20.1557 3.18717 20.2494 3.09342 20.1557C2.99967 20.0619 2.62467 19.8744 2.53092 19.5932C2.53092 19.3119 2.43717 17.2494 2.81217 16.5932Z" fill="#EFBF9E"/>
<path d="M3.09375 19.5938C3.09375 19.5938 3.75 19.9688 4.03125 20.25C4.3125 20.625 4.6875 21.1875 4.40625 21.4687C4.21875 21.75 4.125 21.9375 3.84375 21.75C3.5625 21.4688 3.1875 21.5625 3 21.0938C2.8125 20.625 2.71875 19.6875 2.71875 19.6875L3.09375 19.5938Z" fill="#EFBF9E"/>
<path d="M6.28125 8.90625C6.28125 8.90625 6.375 10.5938 5.8125 11.5312L9 11.625C9 11.625 8.25 10.5938 8.34375 8.71875C8.25 8.8125 6.9375 9.28125 6.28125 8.90625Z" fill="#E2A881"/>
<path d="M9.65616 3.75027C9.09366 2.71902 7.59366 2.81277 7.21866 2.81277C6.93741 2.81277 5.43741 2.71902 4.78116 3.75027C4.12491 4.96902 4.21866 9.18777 7.21866 9.56277C10.2187 9.18777 10.3124 4.87527 9.65616 3.75027Z" fill="#EFBF9E"/>
<path d="M9.18776 16.2187C9.00026 15.2812 9.37526 13.875 9.65651 13.4062C9.93776 12.9375 10.6878 11.8125 10.5003 11.5312C10.4065 11.25 8.25026 10.9688 7.68776 10.875H6.56276C6.00026 10.9688 3.84401 11.3437 3.75026 11.5312C3.65651 11.8125 4.40651 12.9375 4.59401 13.4062C4.87526 13.875 5.25026 15.1875 5.06276 16.2187C5.06276 16.2187 4.21901 17.1563 4.12526 17.5313C4.03151 17.9063 3.75026 19.5 6.75026 19.5H7.31276C10.3128 19.5 10.0315 17.9063 9.93776 17.5313C10.0315 17.1563 9.18776 16.2187 9.18776 16.2187Z" fill="#417F38"/>
<path d="M6.65589 18.1878L7.03089 22.6878C7.03089 22.6878 6.74964 24.1878 7.12464 24.2816C7.49964 24.3753 8.81214 24.4691 8.99964 23.4378C9.18714 22.3128 10.1246 19.1253 10.1246 18.9378C10.1246 18.7503 10.4996 17.2503 9.28089 16.3128C9.28089 16.3128 6.37464 16.0316 6.65589 18.1878Z" fill="#3D5E7F"/>
<path d="M9.1875 29.3441C9 28.6878 8.625 27.8441 8.8125 27.4691C9 27.0941 9.28125 25.6878 9.09375 25.3128C8.90625 24.9378 9 23.8128 9 23.8128C8.53125 22.9691 7.03125 23.5316 7.03125 23.8128C6.9375 24.2816 6.84375 25.0316 6.84375 25.3128C6.84375 25.5941 6.84375 26.5316 7.125 26.8128C7.40625 27.0941 7.03125 28.7816 7.03125 28.7816C7.03125 28.7816 6.9375 29.0628 6.84375 29.5316C7.3125 29.4378 8.71875 29.3441 9.1875 29.3441Z" fill="#3D5E7F"/>
<path d="M9.00038 28.9687C8.90663 28.9687 8.90663 28.875 8.90663 28.875C8.25038 28.875 7.96913 28.6875 7.31288 28.6875C7.21913 28.7813 6.84413 29.0625 6.75038 29.25C6.65663 29.625 7.31288 30 7.31288 30C7.31288 30 8.25038 30.1875 9.28163 30C10.3129 29.7187 9.46913 29.25 9.00038 28.9687Z" fill="#604E46"/>
<path d="M7.59367 18.2819L6.84367 22.7819C6.84367 22.7819 7.03117 24.2819 6.56242 24.3756C6.09367 24.4694 4.87492 24.4694 4.78117 23.3444C4.68742 22.2194 4.12492 18.9381 4.12492 18.7506C4.12492 18.5631 3.84367 16.9694 5.15617 16.2193C5.15617 16.2193 8.06242 16.1256 7.59367 18.2819Z" fill="#3D5E7F"/>
<path d="M4.3125 29.1574C4.5 28.5011 4.96875 27.7511 4.875 27.2824C4.6875 26.9074 4.5 25.5011 4.6875 25.1261C4.875 24.7511 4.875 23.6261 4.875 23.6261C5.4375 22.8761 6.84375 23.4386 6.84375 23.7199C6.84375 24.1886 6.9375 24.9386 6.9375 25.2199C6.84375 25.5011 6.84375 26.4386 6.46875 26.7199C6.09375 27.0011 6.375 28.6886 6.375 28.6886C6.375 28.6886 6.46875 28.9699 6.5625 29.4386C6.1875 29.3449 4.78125 29.1574 4.3125 29.1574Z" fill="#3D5E7F"/>
<path d="M4.49953 28.7811C4.59328 28.7811 4.59328 28.6874 4.68703 28.6874C5.34328 28.7811 5.62453 28.4999 6.28078 28.5936C6.28078 28.6874 6.74953 29.0624 6.74953 29.1561C6.84328 29.5311 6.09328 29.9061 6.09328 29.9061C6.09328 29.9061 5.15578 30.0936 4.12453 29.9061C3.09328 29.6249 4.03078 29.0624 4.49953 28.7811Z" fill="#604E46"/>
<path d="M12.8438 15.6559C12.1875 15.1872 12.1875 15.4684 12.1875 15.4684L11.625 16.5934C11.625 16.5934 11.9063 17.1559 12.1875 17.5309L13.2188 19.0309C13.3125 19.2184 13.5 19.4059 13.7813 19.3122C13.9688 19.2184 14.1563 19.2184 14.1563 19.1247C14.25 19.0309 14.4375 18.6559 14.3438 18.3747C14.25 17.9059 13.5 16.0309 12.8438 15.6559Z" fill="#EFBF9E"/>
<path d="M12.9375 18.2812C12.9375 18.2812 12.9375 19.0312 13.125 19.4062C13.2187 19.875 13.6875 20.4375 13.9687 20.3438C14.25 20.25 14.5312 20.3437 14.4375 19.9687C14.3437 19.5937 14.625 19.3125 14.3438 18.9375C14.0625 18.5625 13.3125 18 13.3125 18L12.9375 18.2812Z" fill="#EFBF9E"/>
<path d="M8.53125 5.90625C8.84191 5.90625 9.09375 5.65441 9.09375 5.34375C9.09375 5.03309 8.84191 4.78125 8.53125 4.78125C8.22059 4.78125 7.96875 5.03309 7.96875 5.34375C7.96875 5.65441 8.22059 5.90625 8.53125 5.90625Z" fill="#604E46"/>
<path d="M6.1875 5.90625C6.49816 5.90625 6.75 5.65441 6.75 5.34375C6.75 5.03309 6.49816 4.78125 6.1875 4.78125C5.87684 4.78125 5.625 5.03309 5.625 5.34375C5.625 5.65441 5.87684 5.90625 6.1875 5.90625Z" fill="#604E46"/>
<path d="M9.46875 15.0938L9 16.3125C9 16.3125 7.40625 15.75 5.4375 16.3125L5.25 15.1875L5.4375 14.4375C5.4375 14.4375 6.28125 13.875 9.09375 14.25L9.46875 15.0938Z" fill="#417F38"/>
<path d="M7.59416 14.1563L8.34416 13.5938C8.62541 13.4062 9.37541 13.125 9.75041 13.125C10.2192 13.2188 10.5942 13.6875 10.5004 14.25C10.4067 14.7187 10.5004 15.375 9.75041 15.5625C9.00041 15.75 8.90666 15.6563 8.62541 15.5625C8.25041 15.4688 7.78166 14.9063 7.59416 14.1563ZM6.84416 14.1563L6.09416 13.5938C5.81291 13.4062 5.06291 13.125 4.68791 13.125C4.31291 13.125 3.84416 13.6875 3.93791 14.25C4.03166 14.7187 3.93791 15.375 4.68791 15.5625C5.43791 15.75 5.53166 15.6563 5.81291 15.5625C6.18791 15.4688 6.65666 14.9063 6.84416 14.1563Z" fill="#417F38"/>
<path d="M6.09375 7.5C6.09375 7.5 7.875 7.5 8.625 7.125C8.625 7.125 8.34375 8.15625 7.21875 8.15625C6.09375 8.25 6.09375 7.5 6.09375 7.5Z" fill="#AF664B"/>
<path d="M7.40644 2.34375C7.40644 2.34375 6.84394 4.5 10.0314 6.09375C10.0314 6.09375 10.6877 4.78125 10.4064 4.21875C10.0314 3.65625 9.56269 2.34375 7.40644 2.34375Z" fill="#604E46"/>
<path d="M7.78125 2.81185C7.78125 2.81185 7.03125 4.7806 4.3125 4.9681C4.3125 4.9681 4.5 2.99935 5.90625 2.81185C7.21875 2.62435 7.78125 2.81185 7.78125 2.81185Z" fill="#A37464"/>
<path d="M16.4998 10.124C17.1561 9.65528 17.9061 10.7803 17.9061 10.7803C18.1873 11.0615 18.2811 11.624 18.2811 11.624L17.9061 11.999L16.1248 15.0928C15.9373 15.4678 15.2811 15.5615 14.8123 15.374C14.3436 15.1865 14.4373 14.624 14.4373 14.624C14.4373 14.624 15.8436 10.5928 16.4998 10.124ZM23.1561 10.499C22.6873 9.84278 22.2186 10.5928 22.2186 10.5928C21.9373 10.7803 21.6561 11.3428 21.6561 11.3428L21.9373 11.8115L22.8748 15.2803C22.9686 15.749 23.5311 16.0303 23.9998 15.9365C24.5623 15.8428 24.5623 15.374 24.5623 15.374C24.5623 15.374 23.6248 11.1553 23.1561 10.499Z" fill="#EFBF9E"/>
<path d="M24.4688 15.3744C24.0938 14.7182 23.9063 14.9057 23.9063 14.9057L22.875 15.6557C22.875 15.6557 22.875 16.3119 22.9688 16.7807C23.0625 17.2494 23.25 18.7494 23.25 18.7494C23.25 19.0307 23.3438 19.2182 23.625 19.3119C23.8125 19.3119 24 19.4057 24.0938 19.3119C24.1875 19.2182 24.5625 19.0307 24.6562 18.6557C24.75 18.3744 24.8438 16.1244 24.4688 15.3744Z" fill="#EFBF9E"/>
<path d="M24.1875 18.6562C24.1875 18.6562 23.5312 19.0313 23.25 19.4063C22.9687 19.7813 22.5938 20.4375 22.875 20.7188C23.0625 21 23.1563 21.2812 23.4375 21C23.7188 20.7188 24.0938 20.8125 24.2812 20.3438C24.4688 19.875 24.5625 18.8438 24.5625 18.8438L24.1875 18.6562Z" fill="#EFBF9E"/>
<path d="M20.625 7.59375C20.625 7.59375 20.5313 9.28125 21.1875 10.2187L17.8125 10.3125C17.8125 10.3125 18.6563 9.28125 18.4688 7.40625C18.5625 7.40625 19.875 7.875 20.625 7.59375Z" fill="#E2A881"/>
<path d="M17.0621 2.34375C17.7184 1.3125 19.3121 1.40625 19.5934 1.40625C19.8746 1.40625 21.5621 1.21875 22.1246 2.34375C22.7809 3.5625 22.6871 7.875 19.5934 8.15625C16.4996 7.78125 16.3121 3.46875 17.0621 2.34375Z" fill="#EFBF9E"/>
<path d="M22.2186 18.8438L22.1248 15C21.9373 13.9688 22.3123 12.4688 22.5936 12C22.8748 11.5312 22.9686 10.4062 22.8748 10.0312C22.7811 9.75 21.2811 9.28125 20.7186 9.1875H19.5936C19.0311 9.28125 16.8748 9.65625 16.7811 9.9375C16.6873 10.2188 16.9686 11.625 17.2498 12.0937C17.5311 12.5625 17.3436 17.625 17.1561 18.6562L22.2186 18.8438Z" fill="#417F38"/>
<path d="M14.625 14.3445C15.0938 13.782 15.2812 13.9695 15.2812 13.9695L16.125 15.0007C16.125 15.0007 16.0312 15.657 15.75 16.1257C15.5625 16.5945 15.1875 17.907 15.1875 17.907C15.1875 18.1882 15 18.3757 14.7188 18.282C14.5312 18.282 14.3438 18.282 14.25 18.1882C14.1562 18.0945 13.875 17.8132 13.7812 17.4382C13.7812 17.157 14.1563 15.0007 14.625 14.3445Z" fill="#EFBF9E"/>
<path d="M15.1877 17.8125C15.1877 17.8125 14.9064 18.5625 14.6252 18.9375C14.3439 19.3125 13.7814 19.6875 13.5002 19.5937C13.2189 19.4062 12.9377 19.4063 13.1252 18.9375C13.3127 18.5625 13.1252 18.1875 13.5939 17.9062C14.0627 17.625 14.9064 17.4375 14.9064 17.4375L15.1877 17.8125Z" fill="#EFBF9E"/>
<path d="M18.2813 4.5C18.5919 4.5 18.8438 4.24816 18.8438 3.9375C18.8438 3.62684 18.5919 3.375 18.2813 3.375C17.9706 3.375 17.7188 3.62684 17.7188 3.9375C17.7188 4.24816 17.9706 4.5 18.2813 4.5Z" fill="#604E46"/>
<path d="M20.7188 4.5C21.0294 4.5 21.2813 4.24816 21.2813 3.9375C21.2813 3.62684 21.0294 3.375 20.7188 3.375C20.4081 3.375 20.1562 3.62684 20.1562 3.9375C20.1562 4.24816 20.4081 4.5 20.7188 4.5Z" fill="#604E46"/>
<path d="M20.3438 6.1875C20.3438 6.1875 19.125 6.1875 18.5625 5.8125C18.5625 5.8125 18.75 6.65625 19.5 6.75C20.25 6.84375 20.3438 6.1875 20.3438 6.1875Z" fill="#AF664B"/>
<path opacity="0.4" d="M4.78125 14.0618C4.78125 14.0618 4.78125 13.4993 5.8125 13.4056C6.84375 13.3118 9.375 13.3118 9.65625 13.6868C9.9375 14.1556 9.65625 14.6243 9.09375 14.6243C8.53125 14.6243 5.53125 14.7181 5.15625 14.5306C4.875 14.5306 4.78125 14.0618 4.78125 14.0618Z" fill="#57934D"/>
<path d="M21.375 1.96804L18.0937 2.06179C17.25 1.96804 16.6875 1.31179 16.6875 1.03054C16.6875 0.749294 17.9063 -0.188206 19.2188 0.0930438C20.5313 0.374294 22.0313 1.03054 22.125 1.31179C22.2188 1.68679 21.75 1.96804 21.375 1.96804Z" fill="#604E46"/>
<path d="M21.1874 1.59375C21.1874 1.59375 22.0312 2.90625 22.0312 3.375C22.0312 3.84375 22.1249 5.0625 22.5937 4.59375C23.0624 4.125 23.9999 2.0625 22.0312 1.21875C22.1249 1.3125 21.2812 1.40625 21.1874 1.59375ZM17.9062 1.78125C17.9062 1.78125 17.2499 3.65625 16.9687 3.75C16.8749 3.75 16.2187 2.8125 17.2499 1.5L17.9062 1.78125Z" fill="#604E46"/>
<path d="M18.8438 11.3435L17.1562 13.2185L15.5625 11.531L16.5 9.93727C16.6875 9.74977 18 10.1248 18 10.1248L18.8438 11.3435ZM21.0937 11.3435L22.4062 13.2185L23.8125 12.3748C23.8125 12.3748 23.7187 10.5935 22.7812 10.031C22.5 9.84352 22.0312 10.1248 22.0312 10.1248L21.0937 11.3435Z" fill="#417F38"/>
<path d="M17.7188 10.2185C17.7188 10.2185 20.25 9.65602 21.4688 10.3123L21.1875 13.8748L21.2813 17.906L18 17.8123L18.375 13.6873L17.7188 10.2185Z" fill="#57934D"/>
<path d="M8.0625 17.5312H9.1875L9 19.7812L8.4375 25.3125L8.34375 27.6562L7.875 27.4687L7.78125 25.125V21L7.6875 17.625L8.0625 17.5312ZM5.53125 17.5312H6.65625L6.46875 19.7812L5.90625 25.3125L5.8125 27.6562L5.34375 27.4687L5.25 25.125V21L5.15625 17.625L5.53125 17.5312Z" fill="#426884"/>
<path d="M20.5312 15C20.625 15 20.625 15 20.625 14.7187C20.625 14.0625 20.5312 14.0625 20.0625 14.0625H18.75V15H19.875C20.25 15.0938 20.4375 15.0938 20.5312 15ZM20.625 12.4688C20.625 12.1875 20.5313 12.1875 19.875 12.1875H18.75V13.125H19.9687C20.5312 13.125 20.625 13.125 20.625 12.4688Z" stroke="#417F38" stroke-width="0.30075" stroke-miterlimit="10"/>
<path d="M7.40625 13.2188C7.21875 13.2188 7.03125 13.125 6.9375 13.125C6.5625 13.0313 6.5625 13.0313 6.5625 12.6563C6.5625 12.4688 6.65625 12.2813 7.3125 12.2813C7.875 12.2813 8.53125 12.4687 8.8125 12.5625H8.90625L9.1875 11.625H9.09375C8.625 11.4375 7.78125 11.3438 7.21875 11.3438C6.09375 11.3438 5.4375 11.9063 5.4375 12.75C5.4375 14.0625 6.09375 14.1563 7.6875 14.5312H7.78125C8.25 14.625 8.25 14.625 8.25 15C8.25 15.375 8.0625 15.4688 7.5 15.4688L5.625 15H5.53125V15.0938C5.4375 15.2813 5.4375 15.4687 5.34375 15.75L5.15625 15.9375H5.25C5.71875 16.125 6.5625 16.3125 7.3125 16.3125C8.25 16.3125 9.28125 16.125 9.28125 14.8125C9.28125 13.6875 8.34375 13.4063 7.40625 13.2188ZM21.375 12.9375C21.6562 12.75 21.8438 12.4688 21.8438 11.8125C21.8438 10.6875 21.2813 10.5 19.875 10.5H17.7188V15.4688H19.875C21.1875 15.4688 21.8438 15.2813 21.8438 14.1563C21.8438 13.5 21.6562 13.125 21.375 12.9375ZM18.8438 13.5H20.1563C20.625 13.5 20.7188 13.5 20.7188 14.1563C20.7188 14.3438 20.625 14.4375 20.625 14.4375H18.9375V13.5H18.8438ZM18.8438 12.4688V11.5313H19.9688C20.625 11.5313 20.7188 11.625 20.7188 11.8125C20.7188 12.4688 20.625 12.4688 20.1563 12.4688H18.8438Z" fill="white" stroke="#417F38" stroke-width="0.30075" stroke-miterlimit="10"/>
<path d="M17.625 27.4688L17.3438 27.9375L18.9375 28.9688L27.9375 20.0625L26.4375 18.1875L17.625 27.4688Z" fill="#9A4C18"/>
<path d="M28.1251 22.5943C27.8438 26.1568 24.5626 29.1568 20.8126 29.1568C17.1563 29.1568 14.8126 26.0631 15.5626 22.5943C16.2188 19.3131 19.3126 16.7818 22.5938 16.7818C25.8751 16.6881 28.4063 19.2193 28.1251 22.5943Z" fill="#9A4C18"/>
<path d="M29.0628 23.7194C28.7815 27.0944 25.594 30.0007 21.9378 30.0007C18.3753 30.0007 16.1253 27.0944 16.7815 23.8132C17.4378 20.7194 20.4378 18.2819 23.6253 18.1882C26.9065 18.0944 29.344 20.5319 29.0628 23.7194Z" fill="#9A4C18"/>
<path d="M18.6562 27.6562L20.1563 28.5L27.5625 20.8125L26.3438 19.125L18.6562 27.6562Z" fill="#F49937"/>
<path d="M28.3124 23.7187C28.0311 26.625 25.3124 29.0625 22.3124 29.0625C19.3124 29.0625 17.4374 26.625 17.9999 23.7187C18.4686 21 21.0936 18.9375 23.8124 18.8438C26.5311 18.8438 28.5936 21 28.3124 23.7187Z" fill="#F49937"/>
<path d="M27.3747 22.5C27.0934 25.5937 24.1872 28.2188 20.9997 28.2188C17.8122 28.2188 15.7497 25.5937 16.4059 22.5C16.9684 19.5938 19.6872 17.3438 22.5934 17.3438C25.4059 17.3438 27.6559 19.5938 27.3747 22.5Z" fill="#FFEDC0"/>
<path d="M26.9061 22.7812C26.6249 25.6875 23.9061 28.125 20.9061 28.125C17.9061 28.125 16.0311 25.6875 16.5936 22.7812C17.0624 20.0625 19.6874 18 22.4061 17.9062C25.2186 17.9062 27.1874 20.0625 26.9061 22.7812Z" fill="#FFD766"/>
<path d="M25.7811 22.7811C25.4998 25.0311 23.4373 26.9061 21.1873 26.9061C18.9373 26.9061 17.4373 25.0311 17.8123 22.8748C18.1873 20.7186 20.1561 19.1248 22.3123 19.0311C24.4686 18.9373 25.9686 20.6248 25.7811 22.7811Z" fill="#FFEDC0"/>
<path d="M25.8748 22.2188C25.6873 24.4688 23.5311 26.25 21.2811 26.25C19.0311 26.25 17.5311 24.375 17.9061 22.2188C18.2811 20.1562 20.2498 18.4688 22.4061 18.4688C24.4686 18.4688 26.0623 20.0625 25.8748 22.2188Z" fill="#F49937"/>
<path d="M25.1249 22.7813C24.9374 24.6563 23.1561 26.25 21.1874 26.25C19.3124 26.25 17.9999 24.6563 18.2811 22.7813C18.5624 21 20.2499 19.5938 22.1249 19.5C23.9999 19.5 25.3124 21 25.1249 22.7813Z" fill="#FFD766"/>
<path d="M22.6875 19.2188L23.25 21.2813L25.5 21.8437L23.4375 23.25L23.25 25.5937L21.375 24.1875L19.0312 25.0313L20.0625 22.875L18.8438 21.0937L21.1875 21L22.6875 19.2188Z" fill="#F49937"/>
</g>
<defs>
<clipPath id="clip0_52_38365">
<rect width="30" height="30" fill="white"/>
</clipPath>
</defs>
</svg>
