<svg width="87" height="87" viewBox="0 0 87 87" fill="none" xmlns="http://www.w3.org/2000/svg">
<path d="M73.8603 45.9197L59.0512 35.3438L73.8603 24.7651L80.7034 27.0461L82.4216 21.8887L76.125 19.7898V13.5938H70.6875V20.3498L57.0937 30.0612V14.5915L64.0402 9.9615L61.0223 5.4375L54.375 9.86906L47.7277 5.4375L44.7098 9.9615L51.6562 14.5915V30.0612L43.5 24.2349V30.9176L49.6988 35.3438L43.5 39.7699V46.4526L51.6562 40.6263V59.005L61.0223 65.25L64.0402 60.726L57.0937 56.096V40.6263L70.6875 50.3377V57.0938H76.125V50.8977L82.4216 48.7961L80.7034 43.6387L73.8603 45.9197Z" fill="white"/>
<path d="M32.625 62.5312C32.625 64.6944 31.7657 66.769 30.2361 68.2986C28.7065 69.8282 26.6319 70.6875 24.4688 70.6875C22.3056 70.6875 20.231 69.8282 18.7014 68.2986C17.1718 66.769 16.3125 64.6944 16.3125 62.5312H32.625Z" fill="white"/>
<path d="M24.4692 81.5625C20.7227 81.5667 17.0584 80.4639 13.9366 78.3926C10.8147 76.3213 8.37441 73.3738 6.92211 69.9202C5.46981 66.4666 5.07025 62.661 5.77359 58.9811C6.47694 55.3012 8.25184 51.9111 10.8754 49.2366V19.0312C10.8754 15.426 12.3076 11.9683 14.8569 9.41902C17.4063 6.86969 20.8639 5.4375 24.4692 5.4375C28.0744 5.4375 31.5321 6.86969 34.0814 9.41902C36.6307 11.9683 38.0629 15.426 38.0629 19.0312V49.2366C40.6865 51.9111 42.4614 55.3012 43.1647 58.9811C43.8681 62.661 43.4685 66.4666 42.0162 69.9202C40.5639 73.3738 38.1236 76.3213 35.0018 78.3926C31.8799 80.4639 28.2157 81.5667 24.4692 81.5625ZM24.4692 10.875C22.3067 10.8772 20.2333 11.7372 18.7042 13.2663C17.1751 14.7954 16.3151 16.8687 16.3129 19.0312V51.61L15.4103 52.4229C13.3573 54.2579 11.9099 56.673 11.2598 59.3486C10.6096 62.0242 10.7873 64.8342 11.7694 67.4066C12.7514 69.979 14.4915 72.1926 16.7593 73.7543C19.0271 75.3159 21.7157 76.1521 24.4692 76.1521C27.2227 76.1521 29.9112 75.3159 32.179 73.7543C34.4468 72.1926 36.1869 69.979 37.1689 67.4066C38.151 64.8342 38.3287 62.0242 37.6785 59.3486C37.0284 56.673 35.581 54.2579 33.528 52.4229L32.6254 51.61V19.0312C32.6233 16.8687 31.7632 14.7954 30.2341 13.2663C28.705 11.7372 26.6317 10.8772 24.4692 10.875Z" fill="white"/>
</svg>
