<svg width="15" height="12" viewBox="0 0 15 12" fill="none" xmlns="http://www.w3.org/2000/svg">
<path d="M12.8505 1.01565e-06H10.6265C10.3542 1.01565e-06 10.1335 0.220723 10.1335 0.492998C10.1335 0.765273 10.3542 0.985995 10.6265 0.985995H12.3585V2.71798C12.3585 2.99026 12.5792 3.21098 12.8515 3.21098C13.1237 3.21098 13.3445 2.99026 13.3445 2.71798V0.492998C13.3445 0.362074 13.2924 0.236526 13.1997 0.144042C13.107 0.0515588 12.9814 -0.000264551 12.8505 1.01565e-06Z" fill="#00B97D"/>
<path d="M12.8505 8.48091C12.5782 8.48091 12.3575 8.70163 12.3575 8.9739V10.7059H10.6255C10.3532 10.7059 10.1325 10.9266 10.1325 11.1989C10.1325 11.4712 10.3532 11.6919 10.6255 11.6919H12.8495C13.1217 11.6919 13.3425 11.4712 13.3425 11.1989V8.9709C13.3408 8.70019 13.1212 8.48145 12.8505 8.48091V8.48091Z" fill="#00B97D"/>
<path d="M4.37353 0H2.14954C1.87727 0 1.65655 0.220722 1.65655 0.492997V2.71698C1.65655 2.98926 1.87727 3.20998 2.14954 3.20998C2.42182 3.20998 2.64254 2.98926 2.64254 2.71698V0.985994H4.37453C4.6468 0.985994 4.86753 0.765272 4.86753 0.492997C4.86753 0.220722 4.6468 0 4.37453 0H4.37353Z" fill="#00B97D"/>
<path d="M4.37353 10.702H2.64254V8.97C2.64254 8.69772 2.42182 8.477 2.14954 8.477C1.87727 8.477 1.65655 8.69772 1.65655 8.97V11.194C1.65655 11.4663 1.87727 11.687 2.14954 11.687H4.37353C4.6458 11.687 4.86653 11.4663 4.86653 11.194C4.86653 10.9217 4.6458 10.701 4.37353 10.701V10.702Z" fill="#00B97D"/>
<path d="M14.8795 5.52098C14.2013 4.77248 13.4537 4.09008 12.6465 3.48299C11.3167 2.3797 9.70447 1.67093 7.9925 1.437V1.996C9.74267 2.22325 11.1202 3.60081 11.3475 5.35098H12.2145C12.4868 5.35098 12.7075 5.5717 12.7075 5.84398C12.7075 6.11625 12.4868 6.33697 12.2145 6.33697H11.3475C11.1202 8.08714 9.74267 9.4647 7.9925 9.69195V10.2509C9.70447 10.017 11.3167 9.30825 12.6465 8.20496C13.4536 7.59785 14.2013 6.91546 14.8795 6.16697C15.0402 5.98164 15.0402 5.70632 14.8795 5.52098Z" fill="#00B97D"/>
<path d="M2.78553 5.35098H3.65253C3.87978 3.60081 5.25734 2.22325 7.00751 1.996V1.437C5.29589 1.67111 3.68404 2.37987 2.35453 3.48299C1.54702 4.09005 0.798996 4.77244 0.120548 5.52098C-0.0401827 5.70632 -0.0401827 5.98164 0.120548 6.16697C0.798668 6.91548 1.54635 7.59787 2.35353 8.20496C3.68304 9.30808 5.29489 10.0168 7.00651 10.2509V9.69195C5.25634 9.4647 3.87878 8.08714 3.65153 6.33697H2.78553C2.51326 6.33697 2.29253 6.11625 2.29253 5.84398C2.29253 5.5717 2.51326 5.35098 2.78553 5.35098Z" fill="#00B97D"/>
<path d="M7.99351 6.33688V8.69486C9.19801 8.48456 10.1412 7.54137 10.3515 6.33688H7.99351Z" fill="#00B97D"/>
<path d="M4.64951 6.33688C4.85981 7.54137 5.803 8.48456 7.00749 8.69486V6.33688L4.64951 6.33688Z" fill="#00B97D"/>
<path d="M4.64951 5.35113H7.00749V2.99315C5.803 3.20345 4.85981 4.14664 4.64951 5.35113Z" fill="#00B97D"/>
<path d="M7.99351 2.99315V5.35113H10.3515C10.1412 4.14664 9.19801 3.20345 7.99351 2.99315V2.99315Z" fill="#00B97D"/>
</svg>
