<svg width="19" height="22" viewBox="0 0 19 22" fill="none" xmlns="http://www.w3.org/2000/svg">
<path d="M9.4979 13.0859C7.34063 13.0859 5.57834 11.3337 5.57834 9.16633C5.57834 6.99892 7.34063 5.2569 9.4979 5.2569C11.6552 5.2569 13.4175 7.00905 13.4175 9.17646C13.4175 11.3439 11.6552 13.0859 9.4979 13.0859ZM9.4979 6.77611C8.18126 6.77611 7.09755 7.84968 7.09755 9.17646C7.09755 10.5032 8.17113 11.5768 9.4979 11.5768C10.8247 11.5768 11.8983 10.5032 11.8983 9.17646C11.8983 7.84968 10.8146 6.77611 9.4979 6.77611Z" fill="#CBC6B6"/>
<path d="M9.49672 21.7855C7.99776 21.7855 6.48868 21.2183 5.31383 20.0941C2.32605 17.2177 -0.975695 12.6297 0.270056 7.17067C1.39427 2.21804 5.71895 0 9.49672 0C9.49672 0 9.49672 0 9.50685 0C13.2846 0 17.6093 2.21804 18.7335 7.18079C19.9691 12.6398 16.6674 17.2177 13.6796 20.0941C12.5047 21.2183 10.9957 21.7855 9.49672 21.7855ZM9.49672 1.51921C6.54945 1.51921 2.76156 3.08906 1.75888 7.50489C0.66505 12.2752 3.66295 16.3872 6.37727 18.9901C8.12943 20.6815 10.8741 20.6815 12.6263 18.9901C15.3305 16.3872 18.3284 12.2752 17.2548 7.50489C16.242 3.08906 12.444 1.51921 9.49672 1.51921Z" fill="#CBC6B6"/>
</svg>
