<svg width="15" height="17" viewBox="0 0 15 17" fill="none" xmlns="http://www.w3.org/2000/svg">
<path d="M11.4714 0H3.27997C1.47004 0 0 1.47854 0 3.27998V15.2527C0 16.7823 1.09616 17.4281 2.43874 16.6888L6.58544 14.386C7.0273 14.1396 7.74108 14.1396 8.17445 14.386L12.3211 16.6888C13.6637 17.4366 14.7599 16.7908 14.7599 15.2527V3.27998C14.7514 1.47854 13.2813 0 11.4714 0ZM9.50003 7.9875H5.25136C4.90297 7.9875 4.61406 7.69859 4.61406 7.3502C4.61406 7.00181 4.90297 6.7129 5.25136 6.7129H9.50003C9.84842 6.7129 10.1373 7.00181 10.1373 7.3502C10.1373 7.69859 9.84842 7.9875 9.50003 7.9875Z" fill="#FF8742"/>
</svg>
