<svg width="30" height="30" viewBox="0 0 30 30" fill="none" xmlns="http://www.w3.org/2000/svg">
<g clip-path="url(#clip0_52_51564)">
<path d="M7.59375 2.4375C7.125 2.71875 6.75 3.46875 7.125 3.9375C6.5625 3.65625 5.71875 4.03125 5.625 4.6875C5.53125 5.0625 5.625 5.4375 5.4375 5.71875C5.34375 5.90625 5.15625 5.90625 5.0625 6.09375C4.875 6.28125 4.78125 6.65625 4.875 6.9375C4.96875 7.21875 5.25 7.40625 5.53125 7.5C5.0625 7.5 4.6875 7.875 4.59375 8.25C4.5 8.71875 4.6875 9.1875 5.0625 9.375C4.6875 9.5625 4.40625 9.84375 4.40625 10.3125C4.40625 10.7812 4.59375 11.0625 4.875 11.3438C4.6875 11.625 4.78125 12.0937 4.96875 12.375C5.15625 12.75 5.4375 12.9375 5.71875 13.2188C6.09375 13.5 6.375 13.875 6.84375 14.0625C7.21875 14.25 7.78125 14.4375 8.15625 14.25C8.71875 14.0625 9.1875 13.5 9.46875 13.0312C10.2188 12 10.875 10.875 11.25 9.65625C11.7188 8.4375 11.9063 7.21875 11.8125 5.90625C11.7188 5.34375 11.625 4.78125 11.25 4.3125C10.9688 3.9375 10.5938 3.5625 10.3125 3.1875C9.9375 2.8125 9.65625 2.34375 9.09375 2.25C8.71875 2.25 8.0625 2.25 7.59375 2.4375Z" fill="#4A3531"/>
<path d="M20.9059 18.6562C22.7809 19.2187 24.4684 20.8125 25.0309 22.9687C25.5934 25.2187 24.8434 27.8437 23.1559 29.0625C22.0309 29.9062 20.7184 30.0937 19.4059 30.0937C16.3121 30.0937 13.1246 29.0625 10.0309 28.0312C8.99962 27.6562 7.96837 27.2812 7.03087 26.625C6.09337 25.9687 5.34337 24.9375 5.15587 23.7187C4.96837 22.0312 5.99962 20.3437 7.31212 19.5C9.56212 18 11.9996 17.4375 14.3434 17.4375C16.4059 17.25 18.9371 18 20.9059 18.6562Z" fill="#305472"/>
<path d="M20.6255 17.25C22.313 17.8125 24.0005 19.4062 24.4692 21.5625C25.0317 23.8125 24.2817 26.4375 22.688 27.6562C21.6567 28.5 20.3442 28.6875 19.1255 28.6875C16.2192 28.6875 13.2192 27.6562 10.313 26.625C9.37545 26.25 8.3442 25.875 7.50045 25.2188C6.56295 24.4688 5.81295 23.4375 5.7192 22.2188C5.5317 20.5313 6.4692 18.8438 7.7817 18C9.93795 16.5 12.188 15.9375 14.438 15.9375C16.313 15.9375 18.7505 16.5937 20.6255 17.25Z" fill="#997567"/>
<path d="M21.8623 24.8105C22.4853 22.8898 21.9123 20.9831 20.5826 20.5518C19.2528 20.1205 17.6698 21.328 17.0469 23.2487C16.4239 25.1695 16.9969 27.0762 18.3267 27.5075C19.6564 27.9387 21.2394 26.7313 21.8623 24.8105Z" fill="#A88378"/>
<path d="M23.9783 11.5229C23.9965 6.50059 19.9398 2.41443 14.9175 2.39623C9.89513 2.37803 5.80896 6.43469 5.79076 11.457C5.77257 16.4794 9.82922 20.5655 14.8516 20.5837C19.8739 20.6019 23.9601 16.5453 23.9783 11.5229Z" fill="#4A3531"/>
<path d="M23.5729 10.8314C23.5906 5.96443 19.6594 2.00464 14.7924 1.98701C9.92537 1.96937 5.96558 5.90057 5.94795 10.7676C5.93031 15.6346 9.86151 19.5944 14.7285 19.612C19.5955 19.6296 23.5553 15.6985 23.5729 10.8314Z" fill="#7A594F"/>
<path d="M23.5524 10.5969C23.5695 5.88522 19.8897 2.05226 15.3333 2.03575C10.777 2.01924 7.06947 5.82543 7.0524 10.5371C7.03532 15.2488 10.7151 19.0817 15.2715 19.0983C19.8278 19.1148 23.5353 15.3086 23.5524 10.5969Z" fill="#7A594F"/>
<path d="M18.9892 11.7349C19.0016 8.31763 16.3253 5.53765 13.0116 5.52565C9.69793 5.51364 7.0016 8.27415 6.98922 11.6914C6.97683 15.1087 9.65309 17.8886 12.9668 17.9006C16.2805 17.9127 18.9768 15.1522 18.9892 11.7349Z" fill="#997567"/>
<path d="M15.8384 12.4514C15.8402 11.9337 15.464 11.5126 14.998 11.5109C14.532 11.5092 14.1527 11.9275 14.1509 12.4453C14.149 12.9631 14.5252 13.3842 14.9912 13.3859C15.4572 13.3876 15.8365 12.9692 15.8384 12.4514Z" fill="#362826"/>
<path d="M9.34129 10.9631C9.34316 10.4454 8.96692 10.0243 8.50093 10.0226C8.03494 10.0209 7.65566 10.4393 7.65379 10.957C7.65191 11.4748 8.02815 11.8959 8.49414 11.8976C8.96013 11.8993 9.33941 11.4809 9.34129 10.9631Z" fill="#362826"/>
<path d="M8.77739 10.6517C8.77795 10.4964 8.69446 10.3702 8.59091 10.3698C8.48735 10.3694 8.40295 10.4951 8.40239 10.6504C8.40182 10.8057 8.48531 10.9319 8.58887 10.9323C8.69242 10.9327 8.77682 10.8071 8.77739 10.6517Z" fill="white"/>
<path d="M13.2188 16.5C13.2188 16.5 12.375 16.4063 11.8125 15.9375C11.25 15.4688 10.6875 15.5625 10.5 15.5625C10.4062 15.5625 10.2188 15.375 10.0312 15.2812C9.84375 15.1875 9.5625 15.1875 9.5625 15.2812C9.5625 15.375 9.84375 15.8438 9.84375 15.8438C9.84375 15.8438 9.9375 16.2188 9.84375 16.4063C9.75 16.5938 9.84375 17.1563 10.5 17.3438C11.1562 17.5313 11.625 17.4375 11.9062 17.25C12.0938 17.1563 13.2188 16.5 13.2188 16.5Z" fill="#4A3531"/>
<path d="M14.3437 10.7812C14.4375 10.9687 14.7187 10.9687 14.9062 10.9687L17.8125 10.7812C17.9062 10.7812 18.0937 10.7812 18.1875 10.6875C18.2812 10.5937 18.1875 10.4062 18.0937 10.3125C18 10.2187 17.8125 10.2187 17.7187 10.2187C16.9687 10.125 16.3125 10.125 15.5625 10.2187C15.2812 10.125 14.0625 10.125 14.3437 10.7812ZM9.375 9.5625H9.65625C9.75 9.5625 9.84375 9.46875 9.84375 9.28125C9.84375 9.09375 9.65625 9 9.46875 8.90625C9.09375 8.8125 8.53125 8.53125 8.0625 8.34375C7.96875 8.34375 7.78125 8.25 7.6875 8.25C7.5 8.25 7.40625 8.34375 7.40625 8.53125C7.40625 8.71875 7.59375 8.8125 7.78125 8.90625C8.0625 9 8.34375 9.09375 8.625 9.28125C8.8125 9.375 9.09375 9.46875 9.375 9.5625Z" fill="#362826"/>
<path d="M17.8123 9C17.6248 9 17.4373 9.09375 17.3435 9C17.156 9 16.9685 8.90625 16.781 8.8125L14.4373 7.5C14.2498 7.40625 13.9685 7.21875 13.781 7.03125C13.031 7.875 11.531 7.78125 10.8748 6.9375C10.5935 7.21875 10.2185 7.21875 9.84352 7.125C9.46852 7.03125 9.18727 6.75 9.09352 6.375C8.81227 6.46875 8.53102 6.5625 8.15602 6.5625C7.96852 6.09375 8.06227 5.4375 8.43727 5.0625C7.96852 5.25 7.40602 4.96875 7.31227 4.5C7.21852 4.21875 7.31227 3.9375 7.40602 3.65625C7.49977 3.28125 7.68727 2.90625 7.78102 2.53125C7.87477 2.15625 8.06227 1.78125 8.34352 1.59375C8.62477 1.40625 9.09352 1.40625 9.46852 1.3125C10.031 1.21875 10.4998 0.75 10.9685 0.46875C11.531 0.1875 12.281 0 13.031 0C13.4998 0 14.156 0.1875 14.3435 0.5625C14.531 0.1875 14.9998 0 15.4685 0C15.9373 0 16.3123 0.375 16.406 0.75C17.4373 0.46875 18.5623 0.46875 19.5935 0.65625C19.9685 0.75 20.3435 0.84375 20.531 1.125C20.7185 1.40625 20.7185 1.96875 20.3435 2.0625C20.6248 2.15625 20.9998 2.0625 21.281 2.0625C21.5623 2.0625 21.9373 1.96875 22.2185 2.0625C22.4998 2.15625 22.781 2.4375 22.8748 2.71875C22.9685 3 22.5935 3.375 22.3123 3.28125L25.031 4.40625C24.5623 4.96875 23.8123 5.34375 23.0623 5.34375C23.3435 5.4375 23.6248 5.4375 23.8123 5.53125C24.0935 5.625 24.281 5.90625 24.281 6.1875C24.281 6.46875 24.0935 6.75 23.8123 6.75L24.7498 7.3125C24.4685 7.59375 24.281 7.96875 23.9998 8.25C23.8123 8.4375 23.6248 8.71875 23.3435 8.8125C22.9685 9 22.4998 9 22.1248 8.71875C22.031 9 22.031 9.46875 21.656 9.46875C21.3748 9.46875 21.0935 9.09375 20.906 9C19.8748 8.4375 18.9373 8.8125 17.8123 9Z" fill="#4A3531"/>
<path d="M18.9375 7.59375C18.4688 7.5 17.9062 7.78125 17.8125 8.25C17.8125 8.625 18 9 18.375 9.09375C18.75 9.28125 19.125 9.375 19.5 9.375C19.3125 9.46875 19.125 9.65625 18.9375 9.75C19.0313 10.3125 19.5938 10.875 20.1562 10.9687C19.7812 10.9687 19.4063 11.3438 19.3125 11.8125C19.3125 12.1875 19.5937 12.6562 19.9687 12.75C19.7812 12.75 19.5938 12.75 19.4063 12.8437C19.2188 12.9375 19.0312 13.125 19.125 13.3125C19.125 13.6875 19.5937 13.875 19.5937 14.1562C19.5937 14.3438 19.4062 14.5312 19.125 14.625C18.9375 14.7188 18.6562 14.8125 18.6562 15.0938C18.5625 15.2812 18.8437 15.5625 19.0312 15.4688C18.75 15.5625 18.5625 15.8438 18.4688 16.125C18.4688 16.4063 18.6563 16.6875 18.9375 16.7812C18.6563 16.6875 18.375 16.875 18.375 17.1562C18.375 17.3437 18.5625 17.5313 18.8438 17.5313C19.125 17.5313 19.2187 17.5312 19.5 17.4375C19.5 17.625 19.5 17.9062 19.6875 18.0937C19.875 18.4687 20.25 18.6562 20.625 18.5625C21 18.4687 21.2813 18.0937 21.2813 17.7187C21.2813 17.8125 21.375 18 21.375 18.0937C22.2187 18.375 23.25 17.625 23.3437 16.7812C23.9062 16.9687 24.4688 16.7812 24.8438 16.3125C25.125 15.8437 25.125 15.1875 24.8438 14.8125C25.5 14.8125 26.0625 14.25 26.1562 13.6875C26.3438 13.125 26.0625 12.375 25.5 12.0937C25.875 12.0937 26.25 11.7188 26.25 11.3438C26.25 10.9688 26.0625 10.5 25.6875 10.3125C25.4062 10.0312 24.9375 9.9375 24.5625 9.75C25.2188 9.375 25.875 8.8125 25.875 8.0625C25.875 7.40625 25.2188 6.75 24.5625 6.84375L21.9375 5.71875C21.6562 5.625 21.2812 5.4375 21 5.34375C20.5312 5.15625 20.0625 4.96875 19.5 4.96875C19.0312 4.96875 18.4688 5.34375 18.375 5.8125C18.375 6.09375 18.4687 6.375 18.5625 6.75C18.6562 7.03125 18.6563 7.40625 18.4688 7.59375" fill="#4A3531"/>
<path d="M23.1557 4.12582C23.5307 3.75082 24.2807 3.93832 24.4682 4.40707C24.6557 4.87582 24.3744 5.53207 23.8119 5.62582C24.0932 5.43832 24.4682 5.81332 24.6557 6.18832L25.1244 6.93832C25.4057 7.40707 25.6869 7.87582 25.7807 8.34457C25.9682 9.18832 25.7807 10.1258 25.5932 10.9696C25.4994 11.4383 25.3119 12.0008 24.8432 12.1883C24.3744 12.3758 23.9057 12.0008 23.5307 11.6258C22.6869 10.6883 22.4994 9.37582 22.0307 8.25082C21.8432 7.50082 21.5619 6.93832 21.2807 6.37582C20.9057 5.62582 19.5932 3.75082 20.4369 2.90707C21.2807 2.06332 23.2494 2.90707 23.1557 4.12582Z" fill="#4A3531"/>
<path d="M18.1871 1.03125C18.5621 1.03125 18.9371 1.03125 19.3121 1.21875C19.6871 1.40625 19.8746 1.78125 19.6871 2.15625C19.9683 1.6875 20.5308 1.40625 21.0933 1.59375C21.6558 1.6875 22.0308 2.25 22.0308 2.71875C22.4058 2.625 22.7808 2.4375 23.1558 2.4375C23.5308 2.34375 23.9996 2.4375 24.2808 2.8125C24.5621 3.1875 24.4683 3.65625 24.0933 3.84375C24.3746 3.65625 24.7496 3.75 25.0308 3.84375C25.3121 4.03125 25.4996 4.40625 25.4058 4.6875C25.4058 4.875 25.3121 5.0625 25.3121 5.25C25.4058 5.625 25.7808 5.8125 25.9683 6.09375C26.2496 6.28125 26.2496 6.65625 26.3433 7.03125C26.4371 7.5 26.4371 7.96875 26.5308 8.4375C26.6246 9 26.6246 9.5625 26.7183 10.2187C26.7183 10.5937 26.8121 11.0625 26.5308 11.3438C26.4371 11.625 26.4371 12 26.3433 12.2812C26.2496 12.6562 26.1558 13.0312 25.9683 13.4062C25.6871 13.6875 25.3121 13.875 24.9371 13.6875C24.6558 13.5938 24.5621 13.3125 24.4683 13.0312C24.3746 12.75 24.3746 12.4688 24.3746 12.1875C24.2808 11.8125 24.0933 11.4375 23.8121 11.25C23.5308 11.0625 23.0621 10.9687 22.6871 11.1562C22.7808 10.7812 22.8746 10.4062 22.7808 10.0312C22.6871 9.65625 22.4996 9.28125 22.1246 9.1875C21.5621 9.09375 20.9996 9.46875 20.5308 9.1875C20.0621 8.8125 20.5308 8.0625 20.2496 7.59375C19.9683 7.125 19.3121 7.125 18.8433 7.21875C18.2808 7.3125 17.7183 7.40625 17.3433 7.03125C17.0621 6.75 16.9683 6.5625 16.8746 6.375C16.4058 5.25 16.1246 3.9375 16.0308 2.71875C15.9371 1.78125 17.3433 1.125 18.1871 1.03125Z" fill="#4A3531"/>
<path d="M6.28158 19.6875C6.28158 19.6875 7.21908 23.4375 10.2191 24.375C13.2191 25.3125 17.7191 25.875 20.7191 24.75C23.7191 23.625 24.5628 22.5938 24.5628 22.5938C24.5628 22.5938 25.2191 29.9062 17.3441 28.7812C9.46908 27.6562 6.65658 25.0313 6.37533 24.5625C6.09408 24 4.59408 22.4062 6.28158 19.6875Z" fill="#53A9B8"/>
<path d="M12.75 7.78199C12.8437 8.25074 13.125 8.53199 13.5 8.81324C13.875 9.09449 14.25 9.18824 14.7187 9.37574C14.4375 9.28199 14.0625 9.56324 14.0625 9.84449C13.9687 10.1257 14.1562 10.5007 14.3437 10.6882C14.5312 10.8757 14.8125 11.0632 15.1875 11.157C14.9062 11.2507 14.8125 11.532 14.9062 11.8132C15 12.0945 15.1875 12.282 15.375 12.3757C15.8437 12.7507 16.3125 13.032 16.7812 13.3132C17.3437 13.6882 18 13.9695 18.6562 14.2507C19.0312 14.4382 19.5 14.532 19.9687 14.4382C20.5312 14.2507 20.8125 13.782 21 13.3132C21.375 12.3757 21.6562 11.4382 21.6562 10.5007C21.6562 10.032 21.6562 9.65699 21.4687 9.18824C21.2812 8.62574 20.8125 8.15699 20.3437 7.87574C19.6875 7.50074 19.125 7.31324 18.5625 7.12574C17.7187 6.75074 16.7812 6.46949 15.8437 6.37574C14.9062 6.18824 12.4687 6.28199 12.75 7.78199Z" fill="#4A3531"/>
<path d="M6.46875 7.6875C6.46875 7.6875 10.4063 7.3125 14.625 9.375C14.625 9.375 13.5 5.90625 8.15625 4.96875C8.15625 4.96875 6.65625 6.28125 6.46875 7.6875Z" fill="#6A648E"/>
<path d="M10.7812 27.4687C10.7812 27.4687 9.5625 26.0625 9.5625 25.3125C9.5625 25.3125 8.71875 25.875 8.53125 26.5312C8.53125 26.625 10.3125 27.5625 10.7812 27.4687Z" fill="#305472"/>
<path d="M20.7524 23.5408C21.0079 22.7528 20.736 21.9586 20.145 21.7669C19.554 21.5752 18.8677 22.0586 18.6122 22.8466C18.3566 23.6346 18.6285 24.4288 19.2195 24.6205C19.8105 24.8122 20.4968 24.3288 20.7524 23.5408Z" fill="#A88378"/>
<path opacity="0.43" d="M20.9062 24.6562C20.9062 24.6562 21.375 29.25 18.375 29.5313C18.375 29.5313 25.3125 29.25 24.8437 22.4062C24.8437 22.4062 23.5312 23.9062 20.9062 24.6562Z" fill="#305472"/>
<path d="M7.96875 6.84375C7.96875 6.84375 8.15625 6.09375 8.8125 5.71875C8.8125 5.71875 12 6.84375 13.125 7.96875C13.0312 8.0625 10.2188 6.84375 7.96875 6.84375Z" fill="#807CA5"/>
<path d="M15.2812 2.81332C16.8749 3.00082 18.5624 3.28207 20.0624 3.84457C20.4374 4.03207 20.9062 4.21957 21.0937 4.59457C21.2812 4.96957 21.1874 5.53207 20.8124 5.71957C21.2812 6.09457 21.9374 6.28207 22.4999 6.18832C22.4999 6.56332 22.5937 6.84457 22.5937 7.21957C23.2499 8.06332 23.5312 9.18832 23.7187 10.2196C23.8124 10.7821 23.9999 11.4383 23.9062 12.0008C23.8124 12.5633 23.5312 13.2196 22.9687 13.4071C21.9374 13.2196 21.8437 11.5321 20.8124 11.2508C20.0624 11.0633 19.1249 11.9071 18.4687 11.4383C17.9999 11.0633 18.1874 10.2196 18.4687 9.65707C17.9999 9.75082 17.5312 9.37582 17.3437 9.00082C17.1562 8.62582 17.0624 8.06332 16.9687 7.59457C16.8749 7.12582 16.6874 6.65707 16.2187 6.37582C15.8437 6.09457 15.2812 6.18832 14.8124 5.90707C14.3437 5.62582 14.0624 5.15707 13.6874 4.68832C13.4062 4.21957 12.7499 3.84457 12.4687 3.28207C11.9062 2.34457 14.6249 2.71957 15.2812 2.81332Z" fill="#604845"/>
<path d="M22.5 15.75L18.8438 14.8125C18.4688 15.2812 18.5625 16.0312 18.75 16.6875C18.8437 17.1562 18.9375 17.5313 19.2187 17.9063C19.5937 18.375 20.3437 18.4688 20.9062 18.375C21.4687 18.2813 22.0312 17.9062 22.5938 17.625C23.3438 17.1562 24.1875 16.5937 24.6562 15.8437C24 16.0312 23.1562 16.0312 22.5 15.75Z" fill="#362826"/>
</g>
<defs>
<clipPath id="clip0_52_51564">
<rect width="30" height="30" fill="white"/>
</clipPath>
</defs>
</svg>
