<svg width="13" height="11" viewBox="0 0 13 11" fill="none" xmlns="http://www.w3.org/2000/svg">
<path d="M12.7623 5.75223C12.6874 5.69498 12.5983 5.64956 12.5004 5.61857C12.4024 5.58758 12.2973 5.57163 12.1913 5.57163C12.0852 5.57163 11.9802 5.58758 11.8822 5.61857C11.7842 5.64956 11.6952 5.69498 11.6202 5.75223L7.42409 8.96021C7.10897 9.20253 6.73396 9.39473 6.32077 9.52567C5.90759 9.65661 5.46445 9.72369 5.01704 9.72301H5.01394C4.56741 9.72396 4.12507 9.65735 3.7125 9.52703C3.29994 9.3967 2.92534 9.20525 2.61038 8.96376C1.9725 8.47583 1.61429 7.81481 1.61429 7.12566C1.61429 6.43652 1.9725 5.7755 2.61038 5.28757L7.32717 1.68296C7.51312 1.53983 7.73445 1.42628 7.97835 1.34891C8.22224 1.27153 8.48384 1.23186 8.74798 1.2322C9.1456 1.23238 9.53422 1.32252 9.8647 1.49121C10.1952 1.65989 10.4527 1.89956 10.6046 2.1799C10.7566 2.46024 10.7962 2.76866 10.7184 3.06616C10.6406 3.36367 10.4489 3.63689 10.1676 3.85129L5.65515 7.3015C5.60716 7.33842 5.55002 7.36769 5.48705 7.3876C5.42409 7.4075 5.35656 7.41765 5.28841 7.41745C5.15083 7.41729 5.01894 7.37556 4.92158 7.3014C4.82423 7.22723 4.76934 7.12666 4.76893 7.0217C4.76872 6.96939 4.78211 6.91757 4.80832 6.86923C4.83454 6.8209 4.87307 6.77702 4.92167 6.74012L8.81079 3.76788C8.88567 3.71059 8.94504 3.6426 8.98549 3.56781C9.02594 3.49301 9.04669 3.41287 9.04654 3.33196C9.0464 3.25105 9.02537 3.17095 8.98465 3.09624C8.94393 3.02152 8.88433 2.95366 8.80923 2.89653C8.73414 2.83939 8.64504 2.7941 8.547 2.76324C8.44897 2.73237 8.34393 2.71655 8.23787 2.71666C8.13182 2.71677 8.02684 2.73281 7.92891 2.76388C7.83099 2.79494 7.74205 2.84042 7.66716 2.89771L3.77766 5.86936C3.47927 6.09733 3.27619 6.38769 3.19407 6.70372C3.11195 7.01974 3.1545 7.34725 3.31632 7.64483C3.47815 7.94241 3.75198 8.1967 4.10322 8.37555C4.45445 8.55441 4.8673 8.64979 5.28957 8.64964C5.57018 8.6502 5.84813 8.60821 6.10728 8.5261C6.36643 8.444 6.60161 8.32342 6.79916 8.17138L11.3128 4.72205C11.8198 4.33522 12.1652 3.84237 12.3051 3.30582C12.445 2.76927 12.3732 2.21311 12.0988 1.70768C11.8245 1.20225 11.3598 0.770234 10.7637 0.466271C10.1675 0.162308 9.46657 4.65211e-05 8.74953 4.09856e-06H8.74643C8.27004 -0.000623653 7.79821 0.0708662 7.35829 0.210333C6.91836 0.3498 6.51907 0.554473 6.18354 0.812498L1.46598 4.4177C-0.489822 5.91225 -0.488271 8.34292 1.4683 9.836C1.93287 10.1923 2.48544 10.4748 3.09405 10.6671C3.70265 10.8594 4.3552 10.9578 5.01394 10.9564H5.01859C5.67812 10.9573 6.33134 10.8585 6.94047 10.6655C7.5496 10.4726 8.10255 10.1895 8.56733 9.83245L12.765 6.62329C12.916 6.50748 13.0005 6.35067 13 6.18733C12.9995 6.02399 12.914 5.86749 12.7623 5.75223Z" fill="#B0B6C4"/>
</svg>
