<svg width="30" height="30" viewBox="0 0 30 30" fill="none" xmlns="http://www.w3.org/2000/svg">
<g clip-path="url(#clip0_52_73699)">
<path d="M21.3748 9.65625L24.4685 9.9375C24.4685 9.9375 24.0935 14.3438 20.7185 15.375C17.3435 16.4062 21.3748 9.65625 21.3748 9.65625ZM5.81226 3.28125C5.81226 3.28125 3.84351 6.1875 3.37476 8.0625C2.90601 9.9375 7.31226 7.40625 7.31226 7.40625L5.81226 3.28125Z" fill="#999893"/>
<path d="M7.12498 4.40625C7.12498 4.40625 4.12498 6.5625 3.84373 7.59375C3.56248 8.625 2.24998 12.9375 5.62498 12C8.99998 11.0625 9.74998 5.8125 9.74998 5.8125L7.12498 4.40625Z" fill="#999893"/>
<path d="M6.84336 5.34375C6.84336 5.34375 4.40586 7.125 4.12461 7.96875C3.93711 8.8125 2.90586 12.2813 5.62461 11.5313C8.34336 10.7813 8.99961 6.46875 8.99961 6.46875L6.84336 5.34375Z" fill="#BFBDB4"/>
<path d="M14.1558 3.56319C14.1558 3.56319 14.6245 5.53194 15.562 6.28194C16.4995 7.12569 16.9683 9.37569 18.0933 9.46944C19.2183 9.56319 21.187 11.1569 22.4995 10.5007C23.7183 9.84444 23.9058 7.40694 23.437 6.84444C22.9683 6.28194 21.0933 4.50069 20.5308 3.46944C19.9683 2.43819 18.937 1.59444 17.437 0.844437C15.937 0.094437 12.6558 -0.374313 12.4683 0.469437C12.2808 1.31319 14.1558 3.56319 14.1558 3.56319Z" fill="#999893"/>
<path d="M20.4375 10.0312C22.5603 10.0312 24.2812 8.26837 24.2812 6.09375C24.2812 3.91913 22.5603 2.15625 20.4375 2.15625C18.3147 2.15625 16.5938 3.91913 16.5938 6.09375C16.5938 8.26837 18.3147 10.0312 20.4375 10.0312Z" fill="#999893"/>
<path d="M20.25 9.84375C22.114 9.84375 23.625 8.29074 23.625 6.375C23.625 4.45926 22.114 2.90625 20.25 2.90625C18.386 2.90625 16.875 4.45926 16.875 6.375C16.875 8.29074 18.386 9.84375 20.25 9.84375Z" fill="#E2E0D7"/>
<path d="M14.3438 0.843263C14.3438 0.843263 13.125 3.56201 10.9688 4.21826C8.8125 4.87451 4.6875 6.46826 4.125 8.90576C4.125 8.90576 5.25 -0.656737 14.3438 0.843263Z" fill="#827420"/>
<path d="M19.2192 16.4063C21.0005 17.0625 22.5942 18.5625 23.1567 20.7188C23.7192 22.9688 22.9692 25.6875 21.2817 26.9063C20.2505 27.75 18.938 27.9375 17.6255 27.9375C14.6255 27.9375 11.6255 26.9062 8.62545 25.7812C7.5942 25.4062 6.56295 25.0312 5.7192 24.375C4.87545 23.7188 4.12545 22.5937 3.93795 21.375C3.75045 19.5937 4.68795 17.9063 6.00045 17.0625C8.1567 15.5625 10.5005 14.9062 12.7505 14.9062C14.9067 15 17.3442 15.75 19.2192 16.4063Z" fill="#614D6D"/>
<path d="M18.4693 16.5938C20.0631 17.1563 21.5631 18.4688 22.0318 20.3438C22.5006 22.3125 21.8443 24.6562 20.3443 25.7812C19.4068 26.5312 18.1881 26.7188 17.0631 26.7188C14.3443 26.7188 11.6256 25.7812 8.90682 24.8438C7.96932 24.5625 7.12557 24.1875 6.28182 23.625C5.43807 23.0625 4.78182 22.125 4.68807 21C4.50057 19.5 5.43807 18 6.56307 17.25C8.53182 15.9375 10.5943 15.375 12.6568 15.375C14.5318 15.375 16.6881 16.0313 18.4693 16.5938Z" fill="#957DA1"/>
<path d="M16.1247 17.4375C16.1247 17.4375 12.3747 18.9375 9.56224 23.3437C9.56224 23.3437 8.53099 19.5938 9.18724 16.875C9.18724 16.875 13.031 18.5625 16.1247 17.4375Z" fill="#FAEACF"/>
<path d="M6.5625 16.875C6.5625 16.875 8.0625 20.625 9.84375 20.9062C11.625 21.2812 14.7188 21.8438 18.75 18L6.5625 16.875Z" fill="#E8CCAA"/>
<path d="M22.684 10.5731C22.7026 5.44723 18.5623 1.27681 13.4364 1.25824C8.31051 1.23966 4.14009 5.37997 4.12152 10.5059C4.10295 15.6318 8.24325 19.8022 13.3691 19.8207C18.495 19.8393 22.6654 15.699 22.684 10.5731Z" fill="#A67A65"/>
<path d="M22.2904 9.866C22.3084 4.89544 18.2936 0.851405 13.323 0.833395C8.35247 0.815384 4.30843 4.83022 4.29042 9.80078C4.27241 14.7713 8.28725 18.8154 13.2578 18.8334C18.2284 18.8514 22.2724 14.8366 22.2904 9.866Z" fill="#E5A98C"/>
<path d="M22.1895 9.63732C22.2067 4.87386 18.4431 0.99863 13.7832 0.981745C9.12331 0.96486 5.33172 4.81272 5.31446 9.57617C5.2972 14.3396 9.0608 18.2149 13.7207 18.2317C18.3806 18.2486 22.1722 14.4008 22.1895 9.63732Z" fill="#E8CCAA"/>
<path d="M17.5579 10.8469C17.5705 7.37786 14.8524 4.55576 11.4869 4.54357C8.12144 4.53137 5.38299 7.3337 5.37042 10.8027C5.35785 14.2718 8.07592 17.0939 11.4414 17.1061C14.8069 17.1183 17.5453 14.3159 17.5579 10.8469Z" fill="#FAEACF"/>
<path d="M14.3397 11.5217C14.3417 10.9522 13.9657 10.4891 13.4997 10.4874C13.0337 10.4857 12.6542 10.9461 12.6522 11.5156C12.6501 12.0852 13.0262 12.5482 13.4922 12.5499C13.9582 12.5516 14.3376 12.0913 14.3397 11.5217Z" fill="#425763"/>
<path d="M13.8799 11.1146C13.8805 10.9593 13.797 10.8331 13.6934 10.8327C13.5899 10.8323 13.5055 10.958 13.5049 11.1133C13.5044 11.2686 13.5879 11.3948 13.6914 11.3952C13.795 11.3956 13.8794 11.27 13.8799 11.1146Z" fill="white"/>
<path d="M15.2808 4.68819C15.2808 4.68819 15.7495 6.65694 16.687 7.40694C17.6245 8.15694 18.0933 10.5007 19.2183 10.5944C20.3433 10.6882 22.312 12.2819 23.6245 11.6257C24.937 10.9694 25.0308 8.53194 24.562 7.96944C24.0933 7.40694 22.2183 5.62569 21.6558 4.59444C21.0933 3.56319 20.062 2.71944 18.562 1.96944C17.1558 1.21944 13.7808 0.750687 13.5933 1.59444C13.4058 2.43819 15.2808 4.68819 15.2808 4.68819Z" fill="#999893"/>
<path d="M7.74202 10.0628C7.74408 9.49321 7.36799 9.03014 6.902 9.02845C6.43601 9.02676 6.05658 9.4871 6.05452 10.0566C6.05245 10.6262 6.42854 11.0893 6.89453 11.0909C7.36052 11.0926 7.73995 10.6323 7.74202 10.0628Z" fill="#425763"/>
<path d="M7.18852 9.6537C7.18908 9.49837 7.10559 9.37215 7.00204 9.37177C6.89848 9.3714 6.81408 9.49701 6.81352 9.65234C6.81296 9.80767 6.89645 9.9339 7 9.93427C7.10355 9.93465 7.18796 9.80903 7.18852 9.6537Z" fill="white"/>
<path d="M19.4062 11.2492C19.4062 11.2492 20.1562 10.6867 20.8125 10.8742C21.4688 11.0617 21.375 13.0305 19.7812 13.218L19.4062 11.2492Z" fill="#FAEACF"/>
<path d="M11.7188 15.6563C11.7188 15.6563 10.875 15.5625 10.3125 15.0938C9.75 14.625 9.09375 14.7188 9 14.7188C8.90625 14.7188 8.625 14.5312 8.4375 14.4375C8.25 14.3438 7.96875 14.3438 7.96875 14.4375C7.96875 14.5312 8.25 15 8.25 15C8.25 15 8.34375 15.375 8.25 15.5625C8.15625 15.75 8.25 16.4063 8.90625 16.5C9.5625 16.5938 10.0312 16.5938 10.3125 16.4063C10.5938 16.2188 11.7188 15.6563 11.7188 15.6563Z" fill="#A87483"/>
<path d="M4.21875 7.59425L6.75 6.0005C7.3125 5.6255 8.0625 5.063 8.8125 4.78175C9.46875 4.313 10.0312 3.938 10.5938 3.7505C12.9375 3.09425 14.25 0.000498604 14.25 0.000498604C6.75 -0.374501 4.6875 4.1255 4.21875 7.59425Z" fill="#999893"/>
<path d="M12.1883 3.46875C12.1883 3.46875 14.7195 4.6875 15.9383 6.65625C17.157 8.625 19.2195 11.5312 22.6883 10.7812C22.6883 10.7812 23.0633 0.84375 12.5633 0.65625C12.5633 0.65625 10.032 2.53125 12.1883 3.46875Z" fill="#E2E0D7"/>
<path d="M13.5938 0.843783C13.5938 0.843783 12.4687 3.84378 10.5 4.50003C8.53125 5.15628 4.6875 6.75003 4.125 9.18753C4.125 9.18753 5.15625 -0.562467 13.5938 0.843783Z" fill="#E2E0D7"/>
<path d="M16.8755 12.0946C16.8755 13.5946 15.6568 14.8133 14.063 14.8133C12.2818 14.8133 10.688 13.4071 10.5943 11.5321C10.5005 9.65709 12.0943 8.34459 13.9693 8.62584C15.6568 9.00084 16.8755 10.5008 16.8755 12.0946ZM9.46928 10.1258C9.46928 11.5321 8.43803 12.5633 7.03178 12.5633C5.53178 12.5633 4.12553 11.2508 4.03178 9.65709C3.93803 7.96959 5.34428 6.84459 6.93803 7.03209C8.43803 7.31334 9.46928 8.62584 9.46928 10.1258Z" stroke="#425763" stroke-width="0.623438" stroke-miterlimit="10"/>
<path d="M16.9688 11.625L19.5 11.25" stroke="#425763" stroke-width="0.623438" stroke-miterlimit="10" stroke-linecap="round"/>
<path d="M14.7189 5.06319C14.7189 5.06319 15.1877 7.03194 16.1252 7.78194C17.0627 8.62569 17.5314 10.8757 18.6564 10.9694C19.7814 11.0632 21.7502 12.6569 23.0627 12.0007C24.3752 11.3444 24.4689 8.90694 24.0002 8.34444C23.5314 7.78194 21.6564 6.00069 21.0939 4.96944C20.5314 3.93819 19.5002 3.09444 18.0002 2.34444C16.5002 1.59444 13.3127 1.12569 13.1252 1.96944C12.9377 2.81319 14.7189 5.06319 14.7189 5.06319Z" fill="#E2E0D7"/>
<path d="M20.7188 11.4375C20.7188 11.4375 21.8437 13.5938 21.5625 14.1562C21.2812 14.7188 23.9062 12.8438 24 10.5938C24.0938 8.34375 21.5625 8.25 21.5625 8.25L20.7188 11.4375Z" fill="#E2E0D7"/>
<path d="M11.8125 3.5625C11.8125 3.5625 13.6875 4.875 14.0625 5.8125C14.4375 6.75 17.625 9.84375 17.625 9.84375C17.625 9.84375 16.125 7.78125 15.6563 6.5625C15.1875 5.53125 14.0625 4.125 12.1875 3.46875L11.8125 3.5625Z" fill="#C4C4C4"/>
<path d="M21 11.8125C21 11.8125 22.6875 13.2187 22.7812 13.9687L21.4688 15C21.375 15.0937 21.6562 12.6562 21 11.8125Z" fill="#999893"/>
<path d="M14.6249 1.87405C14.6249 1.87405 16.8749 1.9678 17.9999 3.2803C19.1249 4.49905 21.6562 7.68655 22.5937 8.06155C23.5312 8.43655 23.7187 10.6866 22.5937 10.4053C21.4687 10.0303 18.8437 7.87405 18.8437 7.87405C18.8437 7.87405 17.9062 7.31155 17.3437 5.62405C16.7812 3.74905 14.6249 1.87405 14.6249 1.87405ZM10.7812 1.68655C11.0624 1.5928 12.4687 1.31155 12.2812 2.06155C12.0937 2.81155 8.15617 3.37405 8.06242 3.4678C7.96867 3.4678 8.71867 2.1553 10.7812 1.68655Z" fill="#EFEFEF"/>
<path d="M19.218 10.875C19.218 10.875 20.8118 16.2188 19.3118 17.3438C17.8118 18.5625 24.468 15.0938 24.6555 13.125C24.843 11.1563 23.9993 8.90625 23.9993 8.90625L19.218 10.875Z" fill="#E2E0D7"/>
<path d="M24.2806 9.28125C24.2806 9.28125 23.8119 9.75 23.9994 10.5C24.1869 11.25 24.6556 13.4063 23.8119 13.9688L19.0306 17.25C19.0306 17.25 18.4681 17.625 19.4056 17.625C20.3431 17.625 21.9369 17.25 22.9681 16.0313C23.9994 14.8125 24.9369 14.625 25.1244 13.3125C25.3119 12 24.6556 9.375 24.6556 9.375L24.2806 9.28125Z" fill="#999893"/>
<path d="M19.6875 13.4062C19.6875 13.4062 20.1563 15.0937 19.7813 15.9375C19.3125 16.7812 19.2188 17.4375 19.2188 17.4375L21.75 16.4062L19.6875 13.4062Z" fill="#999893"/>
<path opacity="0.4" d="M19.7813 17.7187C19.7813 17.7187 21.0938 22.4062 18.4688 24C15.8438 25.5938 11.625 25.6875 11.625 25.6875C11.625 25.6875 14.1562 26.9062 15.75 27.1875C17.3437 27.4687 20.0625 28.125 21.6563 25.2187C23.25 22.3125 22.3125 18.1875 20.5312 17.5312L19.7813 17.7187Z" fill="#614D6D"/>
<path d="M7.78125 17.9063C7.78125 17.9063 7.5 19.3125 8.34375 20.25C9.1875 21.1875 8.25 20.3438 8.25 20.3438C8.25 20.3438 6.375 18.1875 6.375 16.9688L6.5625 16.875L7.78125 17.9063Z" fill="#614D6D"/>
<path d="M14.5303 21.1875L14.1553 26.5312L9.4678 25.3125C8.1553 24.8438 5.99905 23.4375 6.0928 23.5313L7.7803 19.5938C7.7803 19.5938 11.5303 21.75 14.5303 21.1875Z" fill="#DACCE2"/>
<path d="M8.0625 20.625L11.4375 21.75L10.4063 24.8438L7.125 23.4375L8.0625 20.625Z" fill="#E8DFEF"/>
<path d="M13.4062 21.375L13.875 26.7188L14.625 26.8125L15.0938 20.625L13.4062 21.375Z" fill="#614D6D"/>
<path d="M9.46875 10.3125L10.5937 10.5938" stroke="#425763" stroke-width="0.623438" stroke-miterlimit="10" stroke-linecap="round"/>
<path opacity="0.16" d="M20.8125 16.3125L19.6875 13.2188C19.6875 13.2188 21.9375 12.6562 22.5 12.1875L24.2812 10.5938L24.5625 12.5625C24.5625 12.5625 24.9375 14.1563 24 14.625C23.1563 15.1875 20.8125 16.3125 20.8125 16.3125Z" fill="#999893"/>
<path d="M15.5625 27.4687L15.2812 27.9375L16.875 29.0625L26.25 19.7813L24.75 17.8125L15.5625 27.4687Z" fill="#9A4C18"/>
<path d="M26.4383 22.4062C26.1571 26.0625 22.6883 29.25 18.8446 29.1563C15.0946 29.1563 12.6571 25.9688 13.4071 22.4062C14.0633 19.0312 17.3446 16.4062 20.7196 16.3125C24.1883 16.3125 26.7196 18.9375 26.4383 22.4062Z" fill="#9A4C18"/>
<path d="M27.3756 23.5313C27.0944 27.0938 23.7194 30.0938 19.9694 30C16.3131 30 13.9694 27 14.6256 23.5313C15.2819 20.3438 18.4694 17.8125 21.7506 17.7188C25.1256 17.7188 27.6569 20.25 27.3756 23.5313Z" fill="#9A4C18"/>
<path d="M16.6875 27.6562L18.2813 28.5L25.875 20.5312L24.6562 18.8438L16.6875 27.6562Z" fill="#F49937"/>
<path d="M26.6251 23.5312C26.3438 26.5312 23.5313 29.0625 20.4376 29.0625C17.3438 29.0625 15.3751 26.5312 15.9376 23.5312C16.5001 20.7187 19.1251 18.5625 21.9376 18.4688C24.8438 18.5625 26.9063 20.7187 26.6251 23.5312Z" fill="#F49937"/>
<path d="M25.688 22.3125C25.4067 25.5 22.4067 28.2188 19.1255 28.2188C15.8442 28.2188 13.688 25.5 14.3442 22.3125C14.9067 19.3125 17.7192 16.9688 20.7192 16.9688C23.6255 16.9688 25.9692 19.3125 25.688 22.3125Z" fill="#FFEDC0"/>
<path d="M25.2188 22.5937C24.9376 25.5938 22.1251 28.125 19.0313 28.125C15.9376 28.125 13.9688 25.5938 14.5313 22.5937C15.0938 19.7812 17.7188 17.625 20.5313 17.5312C23.4376 17.5312 25.5001 19.6875 25.2188 22.5937Z" fill="#FFD766"/>
<path d="M23.9999 22.5938C23.7187 24.9375 21.5624 26.8125 19.2187 26.8125C16.8749 26.8125 15.2812 24.8438 15.7499 22.5938C16.1249 20.4375 18.1874 18.6562 20.4374 18.6562C22.5937 18.6562 24.2812 20.3438 23.9999 22.5938Z" fill="#FFEDC0"/>
<path d="M24.0937 22.0313C23.8124 24.2813 21.7499 26.25 19.3124 26.25C16.9687 26.25 15.3749 24.375 15.8437 22.0313C16.2187 19.875 18.2812 18.1875 20.5312 18.0938C22.6874 18.0938 24.2812 19.7813 24.0937 22.0313Z" fill="#F49937"/>
<path d="M23.3445 22.5938C23.157 24.5625 21.282 26.1562 19.3133 26.1562C17.3445 26.1562 16.032 24.5625 16.3133 22.5938C16.5945 20.7188 18.3758 19.2188 20.2508 19.2188C22.2195 19.2188 23.6258 20.7188 23.3445 22.5938Z" fill="#FFD766"/>
<path d="M20.9062 18.8438L21.375 21L23.7187 21.5625L21.5625 23.0625L21.375 25.5L19.5 24.0938L17.0625 24.9375L18.0937 22.5938L16.875 20.8125L19.3125 20.7188L20.9062 18.8438Z" fill="#F49937"/>
</g>
<defs>
<clipPath id="clip0_52_73699">
<rect width="30" height="30" fill="white"/>
</clipPath>
</defs>
</svg>
