<svg width="16" height="16" viewBox="0 0 16 16" fill="none" xmlns="http://www.w3.org/2000/svg">
<path d="M5.03344 14.5005C11.0697 14.5005 14.3722 9.49829 14.3722 5.16173C14.3722 5.0211 14.3691 4.87735 14.3628 4.73673C15.0053 4.27213 15.5597 3.69665 16 3.03735C15.4017 3.30355 14.7664 3.47741 14.1159 3.55298C14.8009 3.14243 15.3137 2.49747 15.5594 1.73767C14.9151 2.11953 14.2104 2.38889 13.4756 2.53423C12.9805 2.00819 12.326 1.6599 11.6131 1.54319C10.9003 1.42648 10.1688 1.54785 9.5318 1.88855C8.89487 2.22925 8.38787 2.77029 8.0892 3.42803C7.7906 4.08577 7.71693 4.82357 7.87967 5.52735C6.57499 5.46188 5.29863 5.12295 4.13332 4.53255C2.96802 3.94215 1.93979 3.11345 1.11531 2.10017C0.696267 2.82265 0.568038 3.67759 0.756687 4.49121C0.945333 5.30485 1.43671 6.01612 2.13094 6.48048C1.60975 6.46393 1.09999 6.32361 0.64375 6.0711V6.11173C0.643283 6.86989 0.9054 7.60489 1.38554 8.19169C1.86568 8.77849 2.53421 9.18089 3.2775 9.33049C2.79471 9.46255 2.28799 9.48182 1.79656 9.38675C2.0063 10.0388 2.41438 10.6091 2.96385 11.018C3.51331 11.427 4.17675 11.6542 4.86156 11.668C3.69895 12.5812 2.26278 13.0766 0.784373 13.0742C0.522191 13.0738 0.260266 13.0578 0 13.0261C1.50191 13.9896 3.24902 14.5014 5.03344 14.5005Z" fill="#C2C8CC"/>
</svg>
