<svg width="22" height="22" viewBox="0 0 22 22" fill="none" xmlns="http://www.w3.org/2000/svg">
<path d="M7.93023 21.2326H14.0698C19.186 21.2326 21.2326 19.186 21.2326 14.0698V7.93023C21.2326 2.81395 19.186 0.767442 14.0698 0.767442H7.93023C2.81395 0.767442 0.767442 2.81395 0.767442 7.93023V14.0698C0.767442 19.186 2.81395 21.2326 7.93023 21.2326Z" stroke="#7C7C7C" stroke-width="1.5" stroke-linecap="round" stroke-linejoin="round"/>
<path d="M16.1163 1.21761V11.4297C16.1163 13.4455 14.6735 14.2334 12.9033 13.1692L11.5526 12.3609C11.2456 12.1767 10.7544 12.1767 10.4474 12.3609L9.09674 13.1692C7.32651 14.2232 5.88372 13.4455 5.88372 11.4297V1.21761" stroke="#7C7C7C" stroke-width="1.5" stroke-linecap="round" stroke-linejoin="round"/>
<path d="M7.93023 21.2326H14.0698C19.186 21.2326 21.2326 19.186 21.2326 14.0698V7.93023C21.2326 2.81395 19.186 0.767442 14.0698 0.767442H7.93023C2.81395 0.767442 0.767442 2.81395 0.767442 7.93023V14.0698C0.767442 19.186 2.81395 21.2326 7.93023 21.2326Z" stroke="#7C7C7C" stroke-width="1.5" stroke-linecap="round" stroke-linejoin="round"/>
<path d="M16.1163 1.21761V11.4297C16.1163 13.4455 14.6735 14.2334 12.9033 13.1692L11.5526 12.3609C11.2456 12.1767 10.7544 12.1767 10.4474 12.3609L9.09674 13.1692C7.32651 14.2232 5.88372 13.4455 5.88372 11.4297V1.21761" stroke="#7C7C7C" stroke-width="1.5" stroke-linecap="round" stroke-linejoin="round"/>
</svg>
