<svg width="20" height="21" viewBox="0 0 20 21" fill="none" xmlns="http://www.w3.org/2000/svg">
<path d="M11.2009 4.00391H4.79468C4.53443 4.00391 4.28418 4.01392 4.04395 4.04395C1.35132 4.27417 0 5.86573 0 8.79859V12.8025C0 16.8064 1.60156 17.5972 4.79468 17.5972H5.19507C5.41529 17.5972 5.70557 17.7473 5.8357 17.9175L7.03687 19.5191C7.56739 20.2298 8.42823 20.2298 8.95875 19.5191L10.1599 17.9175C10.3101 17.7173 10.5503 17.5972 10.8005 17.5972H11.2009C14.1338 17.5972 15.7254 16.2559 15.9556 13.5532C15.9856 13.313 15.9956 13.0628 15.9956 12.8025V8.79859C15.9956 5.60547 14.3941 4.00391 11.2009 4.00391ZM4.5044 12.0117C3.94385 12.0117 3.50342 11.5613 3.50342 11.0108C3.50342 10.4602 3.95386 10.0098 4.5044 10.0098C5.05494 10.0098 5.50538 10.4602 5.50538 11.0108C5.50538 11.5613 5.05494 12.0117 4.5044 12.0117ZM7.99781 12.0117C7.43726 12.0117 6.99683 11.5613 6.99683 11.0108C6.99683 10.4602 7.44727 10.0098 7.99781 10.0098C8.54835 10.0098 8.99879 10.4602 8.99879 11.0108C8.99879 11.5613 8.55836 12.0117 7.99781 12.0117ZM11.5012 12.0117C10.9407 12.0117 10.5003 11.5613 10.5003 11.0108C10.5003 10.4602 10.9507 10.0098 11.5012 10.0098C12.0518 10.0098 12.5022 10.4602 12.5022 11.0108C12.5022 11.5613 12.0518 12.0117 11.5012 12.0117Z" fill="#B0B0B0"/>
<path d="M19.9998 4.79468V8.79859C19.9998 10.8005 19.3792 12.1619 18.138 12.9126C17.8377 13.0928 17.4873 12.8526 17.4873 12.5022L17.4973 8.79859C17.4973 4.79468 15.2051 2.50244 11.2012 2.50244L5.10523 2.51245C4.75489 2.51245 4.51465 2.16211 4.69483 1.86182C5.44556 0.620606 6.80689 0 8.79884 0H15.2051C18.3982 0 19.9998 1.60156 19.9998 4.79468Z" fill="#B0B0B0"/>
</svg>
