<svg width="28" height="30" viewBox="0 0 28 30" fill="none" xmlns="http://www.w3.org/2000/svg">
<g clip-path="url(#clip0_52_37495)">
<path fill-rule="evenodd" clip-rule="evenodd" d="M26.6626 16.9292V23.8786C26.9153 24.1303 27.1159 24.4293 27.253 24.7585C27.39 25.0878 27.4608 25.4408 27.4613 25.7975V29.1985H0.746489V25.8027C0.746976 25.446 0.817766 25.093 0.954808 24.7637C1.09185 24.4345 1.29246 24.1354 1.54515 23.8838V17.1003C1.06578 16.7521 0.676174 16.2947 0.408523 15.7661C0.140873 15.2375 0.0028662 14.6527 0.00590861 14.0602V13.0914C0.00456233 12.5044 0.141359 11.9252 0.405241 11.4008L2.76078 6.68863C3.01182 6.18932 3.39727 5.77001 3.87372 5.4779C4.35018 5.1858 4.89871 5.03251 5.45757 5.03529H22.5397C23.099 5.02997 23.6486 5.18221 24.1255 5.47459C24.6025 5.76698 24.9874 6.1877 25.2365 6.68863L27.5961 11.4008C27.8596 11.9254 27.9963 12.5044 27.9955 13.0914V14.0602C28.0001 14.6073 27.8829 15.1487 27.6524 15.6449C27.4218 16.1411 27.0837 16.5798 26.6626 16.9292Z" fill="#3C3C3C"/>
<path fill-rule="evenodd" clip-rule="evenodd" d="M26.6626 16.9287V19.5322H1.54515V17.0999C1.06578 16.7516 0.676174 16.2943 0.408523 15.7656C0.140873 15.237 0.0028662 14.6523 0.00590861 14.0598V13.091C0.00409085 12.5535 0.120968 12.0223 0.348194 11.5352H27.6698C27.8824 12.0264 27.9925 12.5558 27.9934 13.091V14.0598C27.9983 14.6067 27.8814 15.148 27.6512 15.6442C27.4211 16.1404 27.0834 16.5792 26.6626 16.9287Z" fill="#4B4B4B"/>
<path fill-rule="evenodd" clip-rule="evenodd" d="M3.80566 11.4004H24.4019V25.7069H3.80566V11.4004Z" fill="#E3AE26"/>
<path fill-rule="evenodd" clip-rule="evenodd" d="M24.4019 21.5277V25.7077H3.80566V16.3789L24.4019 21.5277Z" fill="#FDE049"/>
<path fill-rule="evenodd" clip-rule="evenodd" d="M3.80566 24.2266H24.4019V25.7077H3.80566V24.2266Z" fill="#FF9701"/>
<path fill-rule="evenodd" clip-rule="evenodd" d="M5.93359 17.0059V22.4202H14.5032V17.0059H5.93359Z" fill="#C86815"/>
<path fill-rule="evenodd" clip-rule="evenodd" d="M6.33301 17.3848V22.0398H14.1226V17.3848H6.33301Z" fill="#7FB6C9"/>
<path fill-rule="evenodd" clip-rule="evenodd" d="M6.6748 22.0398H14.1221V17.8027H6.6748V22.0398Z" fill="#A2D9EB"/>
<path fill-rule="evenodd" clip-rule="evenodd" d="M8.87891 17.803L11.7479 22.04H9.22016L6.6748 18.2552V17.7988L8.87891 17.803ZM11.7479 17.803H10.0375L12.8878 22.04H14.1221V21.2995L11.7479 17.803Z" fill="#CFF3FF"/>
<path fill-rule="evenodd" clip-rule="evenodd" d="M5.53516 21.9648H14.9013V22.4399C14.9005 22.5957 14.8383 22.7449 14.7282 22.8552C14.6181 22.9655 14.469 23.028 14.3132 23.029H6.12534C5.96952 23.028 5.82041 22.9655 5.71032 22.8552C5.60024 22.7449 5.53805 22.5957 5.53723 22.4399L5.53516 21.9648Z" fill="#FF9701"/>
<path fill-rule="evenodd" clip-rule="evenodd" d="M22.0837 25.3275H16.6113V17.0059H22.0837V25.3275Z" fill="#C86815"/>
<path fill-rule="evenodd" clip-rule="evenodd" d="M21.6845 25.3268V17.3848H17.0107V25.3268H21.6845Z" fill="#7FB6C9"/>
<path fill-rule="evenodd" clip-rule="evenodd" d="M21.685 17.8027H17.3535V25.3268H21.685V17.8027Z" fill="#A2D9EB"/>
<path fill-rule="evenodd" clip-rule="evenodd" d="M21.6841 25.3268V24.2055L17.3516 17.8027V21.5264L19.9208 25.3268H21.6841ZM20.2216 17.8027H18.5122L21.6841 22.5149V19.9882L20.2216 17.8027Z" fill="#CFF3FF"/>
<path fill-rule="evenodd" clip-rule="evenodd" d="M3.50184 25.3086H24.7059C24.8339 25.3173 24.9545 25.3721 25.0453 25.4629C25.136 25.5537 25.1909 25.6742 25.1996 25.8023V26.9433H3.00293V25.8023C3.00908 25.6725 3.06377 25.5497 3.15617 25.4582C3.24857 25.3668 3.37193 25.3134 3.50184 25.3086Z" fill="#BDD6DE"/>
<path fill-rule="evenodd" clip-rule="evenodd" d="M3.50184 25.3088H24.7059C24.8342 25.3068 24.9581 25.3556 25.0505 25.4446C25.143 25.5336 25.1966 25.6555 25.1996 25.7838H3.00293C3.00441 25.7198 3.0185 25.6568 3.04439 25.5982C3.07028 25.5397 3.10746 25.4869 3.15381 25.4428C3.20015 25.3986 3.25475 25.3641 3.31447 25.3411C3.37419 25.3181 3.43786 25.3071 3.50184 25.3088Z" fill="white"/>
<path fill-rule="evenodd" clip-rule="evenodd" d="M25.7287 13.0905V14.0593C25.7287 16.3412 21.1109 16.3588 21.1109 14.0593V12.7296H16.2899V14.0593C16.2899 16.3412 11.7106 16.3588 11.7106 14.0593V12.7296H6.8833V14.0593C6.8833 16.3412 2.2666 16.3588 2.2666 14.0593V13.0905C2.26692 12.8521 2.32568 12.6174 2.43774 12.407L4.77669 7.69487C4.84232 7.57142 4.94102 7.46867 5.06175 7.39814C5.18247 7.32761 5.32045 7.29208 5.46022 7.29554H22.5392C22.6795 7.28978 22.8186 7.32433 22.9399 7.3951C23.0612 7.46586 23.1597 7.56989 23.2238 7.69487L25.5793 12.407C25.6846 12.6191 25.7359 12.8539 25.7287 13.0905Z" fill="#C86815"/>
<path fill-rule="evenodd" clip-rule="evenodd" d="M22.539 7.29554H5.45793C5.3185 7.29247 5.18096 7.32818 5.06064 7.39869C4.94032 7.4692 4.84194 7.57174 4.77647 7.69487L2.40122 12.4661C2.39045 12.4941 2.38653 12.5242 2.38978 12.554C2.39303 12.5837 2.40335 12.6123 2.41989 12.6373C2.43797 12.6663 2.4632 12.6902 2.49316 12.7068C2.52312 12.7233 2.55682 12.7319 2.59103 12.7316H25.4277C25.4619 12.7319 25.4956 12.7233 25.5255 12.7068C25.5555 12.6902 25.5807 12.6663 25.5988 12.6373C25.6169 12.6124 25.6267 12.5824 25.6267 12.5517C25.6267 12.5209 25.6169 12.491 25.5988 12.4661L23.2235 7.69487C23.1595 7.56989 23.061 7.46586 22.9397 7.3951C22.8183 7.32433 22.6793 7.28978 22.539 7.29554Z" fill="#FF9701"/>
<path fill-rule="evenodd" clip-rule="evenodd" d="M16.2903 12.7309V14.0606C16.2903 16.3425 21.1155 16.3602 21.1155 14.0606V12.7309L19.4622 7.29688H15.9086L16.2903 12.7309ZM11.711 12.7309V14.0606C11.711 16.3425 6.88477 16.3602 6.88477 14.0606V12.7309L8.55574 7.29688H12.1093L11.711 12.7309Z" fill="#BDD6DE"/>
<path fill-rule="evenodd" clip-rule="evenodd" d="M8.5558 7.29688H12.1093L11.71 12.7309H6.88379L8.5558 7.29688ZM19.4622 7.29688H15.9087L16.2904 12.7309H21.1156L19.4622 7.29688Z" fill="white"/>
<path fill-rule="evenodd" clip-rule="evenodd" d="M6.46549 3.07904C6.67293 2.09056 6.84615 1.90075 7.85226 1.71094C7.89064 1.69123 7.94768 1.65389 7.94768 1.59684C7.94359 1.56855 7.93279 1.54165 7.91619 1.51837C7.89959 1.4951 7.87767 1.47613 7.85226 1.46304C6.85134 1.27323 6.67501 1.08341 6.46549 0.0959743C6.45992 0.0695813 6.44564 0.045825 6.42495 0.0285196C6.40426 0.0112142 6.37835 0.00136363 6.35139 0.000549462C6.3376 -0.000876009 6.32366 0.000478966 6.3104 0.00453426C6.29714 0.00858955 6.28482 0.0152628 6.27419 0.0241594C6.26355 0.033056 6.2548 0.0439953 6.24847 0.0563304C6.24213 0.0686655 6.23833 0.0821458 6.2373 0.0959743C6.02985 1.08341 5.85767 1.27323 4.85052 1.46304C4.82308 1.47314 4.79935 1.49134 4.78249 1.51524C4.76563 1.53914 4.75644 1.5676 4.75614 1.59684C4.7569 1.62366 4.7666 1.64946 4.7837 1.67013C4.8008 1.6908 4.82432 1.70517 4.85052 1.71094C5.85767 1.90075 6.02881 2.09056 6.2373 3.07904C6.23846 3.09278 6.24236 3.10614 6.24875 3.11836C6.25514 3.13058 6.26391 3.14139 6.27453 3.15018C6.28516 3.15897 6.29742 3.16555 6.31062 3.16954C6.32382 3.17353 6.33768 3.17485 6.35139 3.17343C6.37821 3.17267 6.40401 3.16297 6.42468 3.14586C6.44535 3.12876 6.45971 3.10524 6.46549 3.07904ZM3.17851 7.69574C3.53947 5.93245 3.86308 5.60572 5.62948 5.24477C5.678 5.23615 5.72186 5.21055 5.75322 5.17254C5.78458 5.13453 5.80138 5.08659 5.80062 5.03732C5.79738 4.99112 5.77877 4.94733 5.74776 4.91293C5.71674 4.87853 5.6751 4.8555 5.62948 4.84751C3.8662 4.48656 3.53947 4.16398 3.17851 2.39654C3.17159 2.35045 3.14889 2.30818 3.11427 2.27697C3.07965 2.24575 3.03527 2.22753 2.9887 2.2254C2.93943 2.22464 2.8915 2.24145 2.85349 2.2728C2.81548 2.30416 2.78987 2.34803 2.78126 2.39654C2.4203 4.15983 2.09772 4.48656 0.330289 4.84751C0.284857 4.85571 0.243458 4.87883 0.212647 4.91321C0.181836 4.94759 0.163374 4.99127 0.160184 5.03732C0.159383 5.08644 0.17604 5.13426 0.207191 5.17224C0.238341 5.21023 0.281963 5.23593 0.330289 5.24477C2.09358 5.60572 2.4203 5.9283 2.78126 7.69574C2.78987 7.74425 2.81548 7.78812 2.85349 7.81948C2.8915 7.85083 2.93943 7.86764 2.9887 7.86688C3.03491 7.86364 3.07869 7.84503 3.11309 7.81401C3.14749 7.78299 3.17052 7.74136 3.17851 7.69574Z" fill="#FFFF99"/>
</g>
<defs>
<clipPath id="clip0_52_37495">
<rect width="27.9875" height="29.2031" fill="white" transform="translate(0.00585938)"/>
</clipPath>
</defs>
</svg>
