<svg width="13" height="14" viewBox="0 0 13 14" fill="none" xmlns="http://www.w3.org/2000/svg">
<path d="M9.92771 6.32024C9.85748 6.16553 9.70317 6.06627 9.53327 6.06653H7.80042V0.43347C7.80042 0.194071 7.60634 0 7.36695 0H5.63409C5.39469 0 5.20062 0.194071 5.20062 0.43347V6.06653H3.46674C3.29672 6.06672 3.14252 6.1663 3.07238 6.32118C3.00224 6.47606 3.02912 6.65764 3.14113 6.78555L6.17439 10.2523C6.25652 10.3466 6.37546 10.4007 6.50052 10.4007C6.62558 10.4007 6.74452 10.3466 6.82665 10.2523L9.85991 6.78555C9.97223 6.65736 9.99878 6.47515 9.92771 6.32024Z" fill="white"/>
<path d="M11.2671 9.53327V12.1331H1.73388V9.53327H0V13C0 13.4788 0.388142 13.8669 0.86694 13.8669H12.1331C12.3631 13.8672 12.5837 13.776 12.7464 13.6133C12.909 13.4507 13.0003 13.23 13 13V9.53327H11.2671Z" fill="white"/>
</svg>
