<svg width="22" height="22" viewBox="0 0 22 22" fill="none" xmlns="http://www.w3.org/2000/svg">
<path d="M18.9507 10.2326H14.8167C12.76 10.2326 11.7674 9.32186 11.7674 7.43907V2.79349C11.7674 0.910698 12.7702 0 14.8167 0H18.9507C21.0074 0 22 0.910698 22 2.79349V7.42884C22 9.32186 20.9972 10.2326 18.9507 10.2326ZM14.8167 1.53488C13.4456 1.53488 13.3023 1.92372 13.3023 2.79349V7.42884C13.3023 8.30884 13.4456 8.68744 14.8167 8.68744H18.9507C20.3219 8.68744 20.4651 8.29861 20.4651 7.42884V2.79349C20.4651 1.91349 20.3219 1.53488 18.9507 1.53488H14.8167Z" fill="#7A7976"/>
<path d="M18.9507 22H14.8167C12.76 22 11.7674 20.9972 11.7674 18.9507V14.8167C11.7674 12.76 12.7702 11.7674 14.8167 11.7674H18.9507C21.0074 11.7674 22 12.7702 22 14.8167V18.9507C22 20.9972 20.9972 22 18.9507 22ZM14.8167 13.3023C13.6093 13.3023 13.3023 13.6093 13.3023 14.8167V18.9507C13.3023 20.1581 13.6093 20.4651 14.8167 20.4651H18.9507C20.1581 20.4651 20.4651 20.1581 20.4651 18.9507V14.8167C20.4651 13.6093 20.1581 13.3023 18.9507 13.3023H14.8167Z" fill="#7A7976"/>
<path d="M7.18326 10.2326H3.0493C0.992558 10.2326 0 9.32186 0 7.43907V2.79349C0 0.910698 1.00279 0 3.0493 0H7.18326C9.24 0 10.2326 0.910698 10.2326 2.79349V7.42884C10.2326 9.32186 9.22977 10.2326 7.18326 10.2326ZM3.0493 1.53488C1.67814 1.53488 1.53488 1.92372 1.53488 2.79349V7.42884C1.53488 8.30884 1.67814 8.68744 3.0493 8.68744H7.18326C8.55442 8.68744 8.69767 8.29861 8.69767 7.42884V2.79349C8.69767 1.91349 8.55442 1.53488 7.18326 1.53488H3.0493Z" fill="#7A7976"/>
<path d="M7.18326 22H3.0493C0.992558 22 0 20.9972 0 18.9507V14.8167C0 12.76 1.00279 11.7674 3.0493 11.7674H7.18326C9.24 11.7674 10.2326 12.7702 10.2326 14.8167V18.9507C10.2326 20.9972 9.22977 22 7.18326 22ZM3.0493 13.3023C1.84186 13.3023 1.53488 13.6093 1.53488 14.8167V18.9507C1.53488 20.1581 1.84186 20.4651 3.0493 20.4651H7.18326C8.3907 20.4651 8.69767 20.1581 8.69767 18.9507V14.8167C8.69767 13.6093 8.3907 13.3023 7.18326 13.3023H3.0493Z" fill="#7A7976"/>
</svg>
