<svg width="221" height="33" viewBox="0 0 221 33" fill="none" xmlns="http://www.w3.org/2000/svg">
<g clip-path="url(#clip0_52_34988)">
<path d="M110.184 9.25C109.746 9.25 109.365 9.40522 109.062 9.70861C108.787 9.98378 108.646 10.3506 108.646 10.7881V30.4732C108.646 30.9106 108.78 31.2846 109.069 31.6021C109.372 31.8702 109.746 32.0113 110.184 32.0113C110.621 32.0113 110.988 31.8702 111.263 31.595C111.567 31.2916 111.722 30.9106 111.722 30.4732V10.7881C111.722 10.3436 111.567 9.97672 111.27 9.71567C110.995 9.41227 110.628 9.25 110.184 9.25Z" fill="#2D3340"/>
<path d="M128.94 8.59375C127.36 8.59375 125.786 9.0312 124.262 9.89903C123.006 10.6046 121.983 11.4795 121.207 12.5026V10.7951C121.207 10.3506 121.052 9.9837 120.755 9.7297C120.48 9.41925 120.113 9.26403 119.669 9.26403C119.231 9.26403 118.85 9.41925 118.547 9.72264C118.272 9.99781 118.131 10.3647 118.131 10.8022V30.4873C118.131 30.9247 118.265 31.2987 118.554 31.6162C118.857 31.8843 119.231 32.0254 119.669 32.0254C120.106 32.0254 120.473 31.8843 120.748 31.6091C121.052 31.3057 121.207 30.9247 121.207 30.4873V17.6884C121.207 16.5948 121.546 15.5788 122.223 14.6545C122.9 13.695 123.789 12.9189 124.869 12.3474C125.977 11.7829 127.155 11.4936 128.369 11.4936C130.281 11.4936 131.699 12.0722 132.595 13.2152C133.527 14.3441 133.992 15.8469 133.992 17.6884V30.4732C133.992 30.9106 134.126 31.2845 134.416 31.602C134.719 31.8702 135.093 32.0113 135.53 32.0113C135.933 32.0113 136.292 31.8772 136.61 31.595C136.913 31.2916 137.069 30.9106 137.069 30.4732V17.5544C137.069 14.8803 136.398 12.7001 135.086 11.0915C133.795 9.43337 131.727 8.59375 128.94 8.59375Z" fill="#2D3340"/>
<path d="M160.739 9.03085C160.443 8.79802 160.118 8.67807 159.78 8.67807C159.434 8.64985 159.124 8.73452 158.848 8.93913C158.616 9.10846 158.425 9.34835 158.291 9.64469L150.981 26.9591L143.713 9.64469C143.579 9.3413 143.375 9.10141 143.128 8.95324C142.881 8.74157 142.599 8.63574 142.281 8.63574C141.78 8.63574 141.385 8.79096 141.117 9.09435C140.842 9.36952 140.701 9.71524 140.701 10.1315C140.701 10.2656 140.715 10.4067 140.764 10.5831C140.828 10.703 140.828 10.7453 140.828 10.7453L149.499 31.0372C149.633 31.3759 149.838 31.6299 150.113 31.7992C150.346 31.9403 150.6 32.0179 150.868 32.0179C150.918 32.0179 150.967 32.0179 151.023 32.0109C151.306 32.0109 151.567 31.9262 151.814 31.7498C152.075 31.5523 152.272 31.3194 152.413 31.0443L161.022 10.8441C161.156 10.5831 161.219 10.2938 161.219 9.99747C161.219 9.60235 161.057 9.2778 160.739 9.03085Z" fill="#2D3340"/>
<path d="M178.929 9.84964C177.377 9.01709 175.691 8.59375 173.905 8.59375C172.085 8.59375 170.349 9.0947 168.741 10.0755C167.132 11.028 165.819 12.4461 164.839 14.2947C163.886 16.1009 163.406 18.2529 163.406 20.68C163.406 22.9942 163.9 25.0686 164.888 26.8536C165.869 28.6105 167.259 30.0004 169.016 30.9812C170.773 31.9619 172.819 32.4558 175.098 32.4558C176.707 32.4558 178.252 32.0748 179.677 31.3339C181.131 30.5931 182.351 29.6265 183.29 28.4835C183.621 28.1519 183.791 27.785 183.791 27.404C183.791 27.0512 183.65 26.7337 183.374 26.4585C182.831 25.9152 182.14 25.8447 181.328 26.5291C180.679 27.404 179.804 28.1378 178.725 28.7093C177.645 29.2737 176.41 29.563 175.049 29.563C173.277 29.563 171.718 29.1749 170.42 28.4129C169.143 27.6156 168.134 26.5361 167.428 25.2097C166.772 23.8973 166.426 22.4086 166.398 20.7788H182.782C183.184 20.7788 183.544 20.6447 183.861 20.3625C184.165 20.0591 184.32 19.6922 184.32 19.283C184.292 17.0887 183.777 15.1555 182.796 13.5468C181.808 11.924 180.51 10.6822 178.929 9.84964ZM173.905 11.5783C175.034 11.5783 176.142 11.8394 177.201 12.3474C178.273 12.8271 179.176 13.5609 179.882 14.5205C180.587 15.4518 181.018 16.5666 181.159 17.8154V17.9495H166.659C167.082 15.9386 167.964 14.3723 169.298 13.2857C170.716 12.1569 172.268 11.5783 173.905 11.5783Z" fill="#2D3340"/>
<path d="M201.445 20.4328C200.443 19.9601 199.151 19.5297 197.627 19.1416C195.694 18.6548 194.205 18.0974 193.21 17.4977C192.272 16.9191 191.785 16.1007 191.729 15.0071C191.729 13.7865 192.173 12.8975 193.076 12.2907C194.029 11.6698 195.186 11.3593 196.52 11.3593C197.599 11.3593 198.622 11.5639 199.554 11.9591C200.485 12.3542 201.303 12.9398 201.988 13.7159C202.263 13.9911 202.581 14.1322 202.933 14.1322C203.307 14.1322 203.625 14.0263 203.872 13.8147C204.21 13.5113 204.387 13.1444 204.387 12.7281C204.387 12.2766 204.225 11.9238 203.935 11.7051C203.004 10.6256 201.868 9.83532 200.556 9.36259C199.271 8.85459 197.973 8.60059 196.696 8.60059C195.207 8.60059 193.845 8.87576 192.646 9.41198C191.475 9.95526 190.529 10.7314 189.838 11.7262C189.139 12.6999 188.786 13.8217 188.786 15.0635C188.786 17.032 189.513 18.556 190.945 19.5932C192.335 20.5739 194.283 21.3783 196.731 21.9992C198.432 22.4295 199.765 22.9517 200.711 23.5514C201.621 24.1299 202.058 24.9766 202.058 26.1337C202.058 27.3261 201.572 28.2151 200.577 28.8501C199.589 29.471 198.403 29.7815 197.049 29.7815C194.262 29.7815 192.004 28.6596 190.303 26.416C189.972 26.0843 189.591 25.915 189.181 25.915C188.843 25.915 188.561 26.0138 188.349 26.2184C187.918 26.4583 187.693 26.8252 187.693 27.2767C187.693 27.5872 187.82 27.94 188.074 28.3562L188.088 28.3774C190.233 31.0868 193.161 32.4555 196.788 32.4555C199.081 32.4555 201.028 31.877 202.588 30.741C204.161 29.5627 204.958 27.9611 204.958 25.9926C204.958 24.5462 204.62 23.3609 203.949 22.4789C203.314 21.604 202.475 20.9126 201.445 20.4328Z" fill="#2D3340"/>
<path d="M218.916 12.1072C219.318 12.1072 219.664 11.9872 219.953 11.7332C220.228 11.458 220.37 11.1123 220.37 10.696C220.37 10.315 220.214 9.96928 219.918 9.67295C219.643 9.3625 219.304 9.20728 218.916 9.20728H214.739V4.55059C214.739 4.10609 214.584 3.7392 214.287 3.4852C214.012 3.17475 213.645 3.01953 213.201 3.01953C212.763 3.01953 212.382 3.17475 212.079 3.47814C211.804 3.75331 211.663 4.1202 211.663 4.55764V9.21433H208.678C208.276 9.21433 207.916 9.34839 207.598 9.63061C207.323 9.90578 207.182 10.2515 207.182 10.6678C207.182 11.077 207.323 11.4228 207.605 11.712C207.909 11.9802 208.269 12.1213 208.678 12.1213H211.663V26.7405C211.663 28.3915 211.959 29.6191 212.545 30.3952C213.158 31.1643 213.808 31.63 214.464 31.7923C215.092 31.9404 215.818 32.018 216.623 32.018C217.3 32.018 217.9 31.8769 218.408 31.5876C218.944 31.256 219.212 30.8327 219.212 30.3459C219.212 29.9931 219.085 29.6897 218.86 29.471C218.641 29.1817 218.359 29.0335 218.027 29.0335C217.858 29.0335 217.632 29.0829 217.364 29.1676C217.117 29.224 216.912 29.2522 216.75 29.2522C216.129 29.2522 215.642 29.0829 215.282 28.7442C214.915 28.3773 214.732 27.6647 214.732 26.6135V12.1072H218.916Z" fill="#2D3340"/>
<path d="M110.185 2.44824C109.091 2.44824 108.209 3.33725 108.209 4.42381C108.209 5.51037 109.098 6.39937 110.185 6.39937C111.271 6.39937 112.161 5.51037 112.161 4.42381C112.161 3.33725 111.279 2.44824 110.185 2.44824Z" fill="#2D3340"/>
<path d="M39.5199 10.1668C37.7771 9.15079 35.8297 8.63574 33.7129 8.63574C31.5961 8.63574 29.6346 9.15079 27.8636 10.1668C26.1208 11.1828 24.7237 12.6221 23.7077 14.4495C22.6916 16.2699 22.1836 18.3371 22.1836 20.5879C22.1836 22.8386 22.6987 24.8918 23.7077 26.691C24.7237 28.4901 26.1208 29.9154 27.8565 30.9314L27.8989 30.9525C29.6558 31.9474 31.6103 32.4554 33.7129 32.4554C35.8297 32.4554 37.7771 31.9403 39.5199 30.9243C41.2909 29.9083 42.7021 28.4831 43.7182 26.6839C44.7342 24.8918 45.2422 22.8386 45.2422 20.5808C45.2422 18.3301 44.7272 16.2628 43.7182 14.4425C42.6951 12.6221 41.2839 11.1828 39.5199 10.1668ZM40.5148 20.5879C40.5148 22.0202 40.2043 23.3113 39.5834 24.4402V24.4473C38.9978 25.5691 38.1722 26.4652 37.128 27.1002C36.119 27.714 34.9689 28.0245 33.7129 28.0245C32.457 28.0245 31.2927 27.714 30.2555 27.1072C29.2395 26.4652 28.4139 25.5691 27.8001 24.4473C27.2074 23.3184 26.911 22.0202 26.911 20.5879C26.911 19.1274 27.2074 17.815 27.8001 16.6932C28.4139 15.5431 29.2395 14.6471 30.2555 14.0332C31.2927 13.3912 32.457 13.0666 33.7129 13.0666C34.9689 13.0666 36.1119 13.3912 37.135 14.0332C38.1722 14.6471 38.9978 15.5361 39.5905 16.6932C40.1973 17.8221 40.5148 19.1274 40.5148 20.5879Z" fill="#2D3340"/>
<path d="M52.4396 0C51.7834 0 51.2119 0.232834 50.7533 0.698503C50.2946 1.15712 50.0547 1.72862 50.0547 2.38479V29.6476C50.0547 30.3037 50.2735 30.8682 50.7109 31.3339C51.1696 31.7925 51.7411 32.0324 52.3973 32.0324C53.0535 32.0324 53.625 31.7995 54.0837 31.3339C54.5423 30.8682 54.7822 30.3037 54.7822 29.6476V2.38479C54.7822 1.72862 54.5493 1.15712 54.0907 0.705559C53.6532 0.232834 53.0958 0 52.4396 0Z" fill="#2D3340"/>
<path d="M71.4692 19.3817L78.518 13.1022L78.5321 13.0952C79.1389 12.5801 79.4494 11.9804 79.4494 11.3172C79.4494 10.7739 79.2165 10.2588 78.7579 9.80021C77.8195 8.79832 76.5565 8.82654 75.4699 9.7861L65.6904 18.7679V2.38479C65.6904 1.72862 65.4576 1.15712 64.9989 0.705559C64.5615 0.23989 64.0111 0 63.3478 0C62.6634 0 62.0778 0.232834 61.605 0.705559C61.1746 1.16417 60.9629 1.72862 60.9629 2.38479V29.6476C60.9629 30.3037 61.1817 30.8682 61.6191 31.3339C62.0778 31.7925 62.6634 32.0324 63.3478 32.0324C64.0111 32.0324 64.5685 31.7995 64.9989 31.3339C65.4576 30.8752 65.6904 30.3037 65.6904 29.6476V24.5534L67.8565 22.6061L75.9497 31.1857C76.3871 31.7149 76.9728 31.99 77.6995 31.99C78.264 31.99 78.8002 31.7784 79.2871 31.355C79.8163 30.8894 80.0844 30.3179 80.0844 29.6476C80.0844 29.0267 79.8375 28.4481 79.3577 27.926L71.4692 19.3817Z" fill="#2D3340"/>
<path d="M102.586 21.3146C103.051 20.8842 103.298 20.3621 103.334 19.7412C103.305 17.6598 102.79 15.7477 101.802 14.0615C100.815 12.3822 99.4949 11.0417 97.865 10.0821C96.2351 9.12257 94.4641 8.63574 92.6084 8.63574C90.7174 8.63574 88.9181 9.13668 87.26 10.1244C85.6372 11.1122 84.3036 12.5445 83.2946 14.386L83.2805 14.4072C82.2997 16.2275 81.7988 18.3795 81.7988 20.7995C81.7988 23.0221 82.2856 25.047 83.2382 26.8109C84.226 28.5819 85.623 29.9789 87.4011 30.9666C89.1933 31.9544 91.2889 32.4483 93.6244 32.4483C95.0779 32.4483 96.5173 32.152 97.9073 31.5734C99.2973 30.9949 100.426 30.2752 101.266 29.4356C101.908 28.8853 102.233 28.2573 102.233 27.5659C102.233 27.0226 102.028 26.5357 101.626 26.1406C100.949 25.4068 99.8759 25.2869 98.7541 25.9642L98.7117 25.9995C98.0908 26.5922 97.3711 27.079 96.5597 27.46C95.7624 27.834 94.704 28.0174 93.4057 28.0174C91.5288 28.0174 89.913 27.4247 88.6077 26.2465C87.4082 25.1458 86.6814 23.6923 86.4345 21.9073H100.942C101.57 21.9143 102.12 21.7168 102.586 21.3146ZM98.3519 17.8221H86.6532C87.0272 16.2699 87.7186 15.0986 88.7206 14.3437C89.8072 13.497 91.1196 13.0666 92.6084 13.0666C94.0407 13.0666 95.3319 13.5252 96.4538 14.4284C97.5898 15.3315 98.2107 16.4463 98.3519 17.8221Z" fill="#2D3340"/>
<path fill-rule="evenodd" clip-rule="evenodd" d="M20.8149 5.8209C20.8149 7.47896 19.4743 8.81952 17.8161 8.81952H5.58121C3.23865 8.81952 1.17833 10.0331 0 11.8746V6.17368C0 4.32511 1.5029 2.82227 3.35155 2.82227H3.50678L3.535 2.82933L3.55617 2.82227H17.8161C19.4743 2.82227 20.8149 4.16283 20.8149 5.8209Z" fill="#2D3340"/>
<path fill-rule="evenodd" clip-rule="evenodd" d="M17.9925 17.8366C17.9925 19.4876 16.6519 20.8211 15.0079 20.8211H6.70309V20.8282H3.34449C2.00387 20.8282 0.804371 21.4279 0 22.3733V15.346C0.063503 12.3191 2.54012 9.87793 5.58121 9.87793H6.70309V14.8521H15.0079C16.6519 14.8521 17.9925 16.1856 17.9925 17.8366Z" fill="#7AA668"/>
<path fill-rule="evenodd" clip-rule="evenodd" d="M6.70309 21.8867V29.1046C6.70309 30.9532 5.20019 32.456 3.35155 32.456C1.5029 32.456 0 30.9532 0 29.1046V25.2311C0 24.9912 0.0282236 24.7513 0.0776148 24.5255C0.39513 23.0156 1.73575 21.8867 3.34449 21.8867H6.70309Z" fill="#0D7DC2"/>
</g>
<defs>
<clipPath id="clip0_52_34988">
<rect width="221" height="33" fill="white"/>
</clipPath>
</defs>
</svg>
