<svg width="24" height="21" viewBox="0 0 24 21" fill="none" xmlns="http://www.w3.org/2000/svg">
<mask id="mask0_37_44202" style="mask-type:luminance" maskUnits="userSpaceOnUse" x="4" y="12" width="16" height="7">
<path fill-rule="evenodd" clip-rule="evenodd" d="M4 12.373H19.8399V18.6669H4V12.373Z" fill="white"/>
</mask>
<g mask="url(#mask0_37_44202)">
<path fill-rule="evenodd" clip-rule="evenodd" d="M11.921 13.6533C7.66 13.6533 5.5 14.2781 5.5 15.5114C5.5 16.7559 7.66 17.3866 11.921 17.3866C16.181 17.3866 18.34 16.7618 18.34 15.5285C18.34 14.2841 16.181 13.6533 11.921 13.6533ZM11.921 18.6669C9.962 18.6669 4 18.6669 4 15.5114C4 12.6982 8.521 12.373 11.921 12.373C13.88 12.373 19.84 12.373 19.84 15.5285C19.84 18.3417 15.32 18.6669 11.921 18.6669Z" fill="white"/>
</g>
<mask id="mask1_37_44202" style="mask-type:luminance" maskUnits="userSpaceOnUse" x="6" y="1" width="12" height="10">
<path fill-rule="evenodd" clip-rule="evenodd" d="M6.60938 1.70703H17.2294V10.7702H6.60938V1.70703Z" fill="white"/>
</mask>
<g mask="url(#mask1_37_44202)">
<path fill-rule="evenodd" clip-rule="evenodd" d="M11.9204 2.92585C9.77941 2.92585 8.03741 4.41182 8.03741 6.2392C8.03041 8.0606 9.75941 9.54572 11.8914 9.55255L11.9204 10.162V9.55255C14.0604 9.55255 15.8014 8.06572 15.8014 6.2392C15.8014 4.41182 14.0604 2.92585 11.9204 2.92585ZM11.9204 10.7705H11.8884C8.96641 10.7628 6.59941 8.7289 6.60941 6.23664C6.60941 3.74011 8.99141 1.70703 11.9204 1.70703C14.8484 1.70703 17.2294 3.74011 17.2294 6.2392C17.2294 8.73829 14.8484 10.7705 11.9204 10.7705Z" fill="white"/>
</g>
</svg>
