<svg width="30" height="30" viewBox="0 0 30 30" fill="none" xmlns="http://www.w3.org/2000/svg">
<g clip-path="url(#clip0_52_69173)">
<path d="M13.7822 1.50017C13.7822 1.50017 19.8759 0.281419 21.7509 4.40642C23.6259 8.53142 20.6259 9.84392 20.6259 9.84392L18.5634 7.96892C18.5634 7.96892 21.6572 5.34392 18.9384 3.65642C16.2197 1.96892 14.4384 2.53142 14.4384 2.53142L13.7822 1.50017ZM21.9384 18.0002C21.9384 18.0002 24.4697 25.3127 19.5009 25.6877L16.5947 24.4689L16.4072 25.3127C16.4072 25.3127 18.0947 27.1877 20.5322 26.9064C22.9697 26.6252 26.4384 21.9377 23.2509 17.9064L21.9384 18.0002ZM3.18842 10.5002C3.18842 10.5002 -1.49908 14.5314 0.563418 18.4689C2.62592 22.4064 5.53217 21.0939 5.53217 21.0939L5.34467 18.2814C5.34467 18.2814 1.31342 19.0314 1.68842 15.9377C2.06342 12.8439 3.65717 11.7189 3.65717 11.7189L3.28217 10.5939M11.6259 13.5002C11.6259 13.5002 12.9384 14.8127 13.1259 16.5002L15.4697 15.6564C15.4697 15.6564 13.3134 13.1252 13.5009 12.0002C13.5009 12.0002 12.3759 13.5002 11.6259 13.5002Z" fill="#962C2C"/>
<path d="M13.5938 16.2188C13.5938 16.2188 18.1875 9.00004 29.1563 10.5L29.7188 10.7813C29.7188 10.7813 30.0938 14.1563 30 15.9375C29.8125 17.7188 29.1563 22.6875 24.75 23.1563C20.3438 23.625 17.1563 22.2188 13.3125 16.125" fill="#962C2C"/>
<path d="M15.2812 16.2181C15.2812 16.2181 19.0312 10.2181 28.2188 11.4368L28.6875 11.7181C28.6875 11.7181 29.0625 14.5306 28.875 16.0306C28.7812 17.4368 28.2188 21.6556 24.5625 22.0306C20.9063 22.4056 18.2812 21.2806 15.0938 16.2181" fill="#E52E2E"/>
<path d="M12.656 15.4687C12.656 15.4687 18.656 10.4062 15.9372 0.65625L15.5622 0.1875C15.5622 0.1875 12.3747 0.28125 10.8747 0.5625C9.37472 0.84375 4.78097 2.15625 4.96847 6.1875C5.15597 10.2188 6.74972 12.9375 12.8435 15.6562M19.406 17.8125C19.406 17.8125 19.5935 22.7812 24.9372 22.3125C24.9372 22.3125 22.4997 22.9688 19.1247 21.75L19.406 17.8125Z" fill="#962C2C"/>
<path d="M17.3438 16.0313C17.3438 16.0313 20.0625 11.7188 26.5312 12.5626L26.9062 12.7501C26.9062 12.7501 27.1875 14.8126 27.0937 15.8438C27 16.8751 26.625 19.8751 24 20.1563C21.375 20.4376 19.5 19.5938 17.25 16.0313" fill="#EF5858"/>
<path d="M13.6872 1.5C13.6872 1.5 16.8747 5.4375 13.9685 11.3438L13.6872 11.625C13.6872 11.625 11.7185 11.1563 10.781 10.7813C9.84345 10.4063 7.1247 9 7.6872 6.46875C8.2497 3.9375 9.65595 2.4375 13.781 1.40625" fill="#E52E2E"/>
<path d="M10.5937 17.625C10.5937 17.625 12.0937 20.3438 10.5937 23.1563L9.1875 21.8438L10.5937 17.625Z" fill="#A3704D"/>
<path d="M14.157 19.2186C14.157 19.2186 14.7195 25.2186 11.532 26.3436C8.3445 27.3748 2.81325 27.5623 3.37575 21.1873C3.93825 14.8123 11.4383 17.3436 11.4383 17.3436L14.157 19.2186Z" fill="#734F36"/>
<path d="M13.5002 19.4991C13.5002 19.4991 13.969 24.8429 11.1565 25.7804C8.34399 26.7179 3.46899 26.9054 3.93774 21.2804C4.40649 15.6554 10.969 17.9054 10.969 17.9054L13.5002 19.4991Z" fill="#A3704D"/>
<path d="M9.5633 5.43755C9.5633 5.43755 11.2508 12.0938 16.6883 16.125C18.4695 17.4375 18.8445 19.875 17.532 21.5625C17.2508 21.9375 16.8758 22.3125 16.407 22.5C14.0633 23.5313 11.4383 22.5938 9.0008 20.25C6.5633 17.9063 1.78205 14.625 2.53205 5.81255C2.4383 5.81255 8.71955 4.2188 9.5633 5.43755Z" fill="#734F36"/>
<path d="M16.2195 19.8748C17.4383 20.7186 18.1883 22.2186 18.0008 23.7186C17.8133 25.4998 17.157 27.6561 15.3758 28.2186C12.1883 29.2498 6.657 29.4373 7.2195 23.0623C7.782 16.6873 15.282 19.2186 15.282 19.2186L16.2195 19.8748Z" fill="#734F36"/>
<path d="M9.00078 6.2822C9.00078 6.2822 10.5945 12.8447 16.032 16.3134C17.0633 16.9697 17.532 18.0947 17.3445 19.3134C17.157 20.2509 16.782 21.1884 15.8445 21.6572C13.782 22.5947 11.3445 21.7509 9.09453 19.6884C6.84453 17.6259 2.53203 14.6259 3.18828 6.6572C3.18828 6.6572 8.25078 5.25095 9.00078 6.2822Z" fill="#A3704D"/>
<path d="M4.78082 1.5C4.78082 1.5 2.62457 1.5 1.68707 3.09375C0.749567 4.6875 0.749567 7.3125 2.53082 8.71875C2.53082 8.71875 3.84332 9.375 4.12457 8.90625C4.40582 8.4375 4.78082 6.9375 4.78082 6.9375V1.5Z" fill="#734F36"/>
<path d="M4.12475 1.96875C4.12475 1.96875 2.7185 2.0625 1.9685 3.46875C1.2185 4.875 1.12475 6.9375 2.62475 8.15625C2.62475 8.15625 3.656 8.71875 3.93725 8.25C4.2185 7.78125 4.49975 6.5625 4.49975 6.5625L4.12475 1.96875Z" fill="#A3704D"/>
<path d="M3.37562 6.56237C3.37562 6.56237 3.00062 8.62487 6.46937 9.18737C9.93812 9.74987 12.0006 9.18737 12.2819 8.24987C12.5631 7.31237 12.3756 6.84362 10.7819 5.62487C9.18812 4.40612 9.00062 1.68737 6.28187 1.21862C3.56312 0.749873 2.71937 3.74987 3.37562 6.56237Z" fill="#A3704D"/>
<path d="M4.0311 6.46939C4.0311 6.46939 3.74985 8.15689 6.6561 8.71939C9.56235 9.18814 11.3436 8.71939 11.5311 7.96939C11.7186 7.21939 11.5311 6.84439 10.3124 5.81314C9.0936 4.78189 8.81235 2.43814 6.4686 2.06314C4.12485 1.68814 3.4686 4.03189 4.0311 6.46939ZM15.7498 20.3444C16.8748 21.0944 17.4374 22.4069 17.3436 23.7194C17.1561 25.3131 16.5936 27.1881 15.0936 27.6569C12.2811 28.5944 7.4061 28.7819 7.87485 23.1569C8.3436 17.5319 14.9061 19.7819 14.9061 19.7819L15.7498 20.3444Z" fill="#A3704D"/>
<path opacity="0.53" d="M3.74927 4.21875C3.74927 4.21875 3.56177 6.46875 7.12427 7.3125C10.6868 8.15625 11.9993 7.96875 11.9993 7.96875C11.9993 7.96875 11.718 9 10.218 9.09375C8.71802 9.09375 2.90552 10.3125 3.74927 4.21875Z" fill="#A3704D"/>
<path opacity="0.46" d="M1.68701 3.375C1.68701 3.375 1.31201 6.75 3.65576 6.84375C3.65576 6.84375 4.31201 7.5 4.21826 7.875C4.12451 8.25 4.03076 8.8125 3.56201 8.8125C3.09326 8.8125 0.0932641 7.96875 1.68701 3.375Z" fill="#734F36"/>
<path d="M5.53166 3.28092C5.53166 2.99967 5.71916 2.71842 5.90666 2.53092C6.18791 2.43717 6.56291 2.53092 6.75041 2.71842C7.40666 3.18717 7.87541 3.84342 8.34416 4.59342C8.43791 4.78092 8.53166 4.87467 8.53166 5.06217C8.43791 5.34342 8.15666 5.53092 7.87541 5.53092C6.65666 5.53092 5.34416 4.59342 5.53166 3.28092ZM15.7504 16.6872C14.8129 15.8434 13.6879 15.2809 12.6567 14.5309C11.5317 13.6872 10.6879 12.5622 10.2192 11.3434C10.1254 11.0622 10.0317 10.8747 9.93791 10.6872C9.75041 10.4997 9.56291 10.3122 9.37541 10.2184C8.90666 10.1247 8.43791 10.5934 8.34416 11.0622C8.25041 11.5309 8.53166 12.0934 8.81291 12.4684L10.7817 15.6559C11.7192 16.9684 12.9379 18.2809 14.4379 18.7497C14.8129 18.8434 15.1879 18.9372 15.5629 18.8434C15.9379 18.7497 16.2192 18.4684 16.4067 18.1872C16.5004 17.6247 16.1254 17.0622 15.7504 16.6872Z" fill="#A3704D"/>
<path d="M5.90625 8.99982C5.90625 9.18732 5.8125 9.37482 5.8125 9.46857C5.625 10.1248 5.625 10.7811 5.71875 11.4373C6.09375 13.9686 7.3125 16.4061 9 18.3748C9.1875 18.6561 9.46875 18.8436 9.46875 19.2186C9.46875 19.4998 9.1875 19.9686 8.90625 19.8748C8.8125 19.8748 8.625 19.7811 8.53125 19.5936L6 17.0623C5.25 16.3123 4.5 15.5623 4.03125 14.6248C3.28125 13.2186 3.1875 11.5311 3.09375 9.93732C3.09375 9.65607 3.09375 9.37482 3.1875 9.09357C3.28125 8.81232 3.46875 8.53107 3.65625 8.43732C4.03125 8.15607 4.5 8.15607 4.875 8.34357C5.25 8.43732 5.90625 8.71857 5.90625 8.99982ZM7.6875 20.0623C7.40625 20.4373 7.03125 20.8123 6.65625 21.1873C6 22.0311 5.8125 23.2498 6.1875 24.1873C6.5625 25.0311 7.21875 25.5936 7.96875 26.1561C7.125 26.5311 6.09375 26.5311 5.34375 25.9686C4.6875 25.4998 4.21875 24.6561 3.9375 23.9061C3.75 23.3436 3.5625 22.6873 3.5625 22.0311C3.5625 20.6248 4.125 19.3123 5.0625 18.3748C5.34375 18.0936 5.71875 17.8123 6.09375 17.8123C6.75 17.8123 7.125 18.3748 7.5 18.7498C8.0625 19.0311 7.96875 19.5936 7.6875 20.0623Z" fill="#734F36"/>
<path opacity="0.38" d="M8.9056 23.2505C9.0931 24.2817 9.56185 25.313 10.4056 25.8755C11.0618 26.3442 11.9056 26.5317 12.7493 26.5317C13.5931 26.5317 14.4368 26.438 15.1868 26.2505C15.5618 26.1567 16.0306 26.2505 16.1243 26.5317C16.2181 26.813 16.0306 27.0942 15.7493 27.2817C14.9993 27.938 13.9681 28.2192 12.9368 28.313C11.9056 28.4067 10.9681 28.2192 9.93685 28.1255C9.4681 28.0317 8.99935 27.938 8.62435 27.7505C8.1556 27.4692 7.9681 26.9067 7.7806 26.438C7.31185 24.938 7.4056 23.3442 7.9681 21.938C8.06185 21.6567 8.62435 20.1567 8.99935 20.813C9.0931 21.0005 8.81185 21.7505 8.81185 21.938C8.81185 22.313 8.81185 22.7817 8.9056 23.2505Z" fill="#734F36"/>
<path d="M8.4375 19.4062C8.4375 19.4062 6.65625 21.1875 6 23.9062C5.34375 26.625 4.125 24.0938 4.125 24.0938C4.125 24.0938 4.3125 26.0625 7.96875 26.4375C7.96875 26.4375 7.40625 21.6562 8.4375 20.1562L9 19.9687L8.4375 19.4062Z" fill="#A3704D"/>
<path d="M15.4695 18.0005C15.4695 18.0005 16.2195 24.0005 13.032 25.2192C9.84448 26.438 4.40698 26.7192 4.68823 20.3442C4.96948 13.9692 12.5632 16.2192 12.5632 16.2192L15.4695 18.0005Z" fill="#A3704D"/>
<path d="M14.8127 18.2811C14.8127 18.2811 15.4689 23.5311 12.7502 24.6561C9.93766 25.6873 5.15641 26.0623 5.43766 20.4373C5.71891 14.8123 12.3752 16.7811 12.3752 16.7811L14.8127 18.2811Z" fill="#FCC097"/>
<path d="M10.4068 4.31259C10.4068 4.31259 12.2818 10.9688 17.9068 14.7188C19.6881 15.9376 20.2506 18.3751 19.0318 20.1563C18.7506 20.5313 18.3756 20.9063 17.9068 21.0938C15.6568 22.2188 12.9381 21.3751 10.4068 19.1251C7.87556 16.8751 2.90681 13.8751 3.28181 5.06259C3.28181 5.06259 9.46931 3.18759 10.4068 4.31259Z" fill="#A3704D"/>
<path d="M17.6257 18.563C18.9382 19.4067 19.6882 20.813 19.5007 22.313C19.407 24.0942 18.8445 26.2505 17.0632 26.9067C13.8757 28.1255 8.43823 28.5005 8.71948 22.1255C9.00073 15.7505 16.5945 18.0005 16.5945 18.0005L17.6257 18.563Z" fill="#A3704D"/>
<path d="M9.84432 5.24966C9.84432 5.24966 11.7193 11.7184 17.2506 14.9997C18.2818 15.5622 18.8443 16.7809 18.6568 17.9059C18.5631 18.8434 18.1881 19.7809 17.2506 20.2497C15.1881 21.2809 12.7506 20.4372 10.5006 18.4684C8.25057 16.4997 3.75057 13.7809 4.12557 5.81216C4.12557 5.81216 9.09432 4.21841 9.84432 5.24966Z" fill="#FCC097"/>
<path d="M5.43799 0.65625C5.43799 0.65625 3.28174 0.75 2.43799 2.4375C1.59424 4.125 1.59424 6.75 3.46924 8.0625C3.46924 8.0625 4.78174 8.71875 5.06299 8.15625C5.34424 7.5 5.62549 6 5.62549 6L5.43799 0.65625Z" fill="#A3704D"/>
<path d="M4.78174 1.125C4.78174 1.125 3.37549 1.3125 2.62549 2.71875C1.87549 4.125 1.96924 6.1875 3.56299 7.3125C3.56299 7.3125 4.59424 7.78125 4.87549 7.40625C5.15674 6.9375 5.43799 5.71875 5.43799 5.71875L4.78174 1.125Z" fill="#E8AB82"/>
<path d="M4.21964 5.71939C4.21964 5.71939 3.93839 7.78189 7.40714 8.25064C10.8759 8.71939 12.9384 8.06314 13.2196 7.12564C13.4071 6.18814 13.2196 5.71939 11.6259 4.59439C10.0321 3.46939 9.65714 0.656889 6.93839 0.281889C4.21964 -0.0931106 3.46964 2.90689 4.21964 5.71939Z" fill="#A3704D"/>
<path d="M4.87499 5.53125C4.87499 5.53125 4.59374 7.21875 7.59374 7.6875C10.5 8.0625 12.2812 7.5 12.4687 6.75C12.6562 6 12.4687 5.625 11.1562 4.59375C9.84374 3.5625 9.46874 1.21875 7.21874 0.9375C4.96874 0.65625 4.21874 3.1875 4.87499 5.53125Z" fill="#E8AB82"/>
<path d="M17.1564 19.0311C18.2814 19.7811 18.9377 20.9998 18.8439 22.4061C18.7502 23.9998 18.2814 25.8748 16.6877 26.4373C13.8752 27.4686 9.09391 27.8436 9.37516 22.2186C9.65641 16.5936 16.3127 18.5623 16.3127 18.5623L17.1564 19.0311Z" fill="#FCC097"/>
<path opacity="0.53" d="M4.59468 3.375C4.59468 3.375 4.50093 5.625 8.06343 6.28125C11.6259 6.9375 12.9384 6.75 12.9384 6.75C12.9384 6.75 12.6572 7.78125 11.1572 7.96875C9.65718 8.15625 3.93843 9.5625 4.59468 3.375ZM2.43843 2.625C2.43843 2.625 2.15718 6 4.50093 6.09375C4.50093 6.09375 5.15718 6.65625 5.06343 7.125C5.06343 7.5 4.96968 7.96875 4.50093 7.96875C4.03218 7.96875 1.03218 7.21875 2.43843 2.625Z" fill="#A3704D"/>
<path d="M6.1875 2.3439C6.1875 2.06265 6.28125 1.7814 6.5625 1.5939C6.84375 1.4064 7.21875 1.5939 7.40625 1.68765C8.15625 2.06265 8.625 2.81265 9.09375 3.4689C9.28125 3.75015 9.375 3.8439 9.28125 4.0314C9.28125 4.31265 8.90625 4.4064 8.625 4.50015C7.5 4.5939 6.1875 3.6564 6.1875 2.3439ZM16.9688 15.3751C16.0312 14.5314 14.8125 14.0626 13.7813 13.4064C12.6563 12.6564 11.8125 11.5314 11.25 10.3126C11.1562 10.0314 11.0625 9.8439 10.875 9.6564C10.6875 9.4689 10.5 9.2814 10.2187 9.18765C9.75 9.0939 9.28125 9.56265 9.1875 10.1251C9.1875 10.5939 9.375 11.0626 9.75 11.5314C9.75 11.5314 10.9688 13.5939 11.9062 14.7189C12.9375 16.0314 14.1562 17.2501 15.75 17.6252C16.125 17.7189 16.5 17.7189 16.875 17.6252C17.25 17.5314 17.5312 17.2502 17.625 16.8752C17.7187 16.3127 17.3438 15.7501 16.9688 15.3751Z" fill="#FFE8D9"/>
<path opacity="0.3" d="M6.8444 8.06193C6.8444 8.24943 6.75065 8.43693 6.75065 8.53068C6.56315 9.18693 6.6569 9.84318 6.75065 10.4994C7.2194 13.0307 8.5319 15.3744 10.2194 17.2494C10.4069 17.5307 10.6882 17.7182 10.7819 18.0932C10.8757 18.3744 10.5944 18.8432 10.2194 18.7494C10.0319 18.7494 9.93815 18.6557 9.8444 18.5619L7.2194 16.1244C6.4694 15.3744 5.7194 14.6244 5.1569 13.7807C4.31315 12.3744 4.12565 10.6869 4.0319 9.09318C4.0319 8.81193 3.93815 8.53068 4.0319 8.24943C4.12565 7.96818 4.31315 7.78068 4.50065 7.59318C4.87565 7.31193 5.3444 7.31193 5.7194 7.40568C6.18815 7.49943 6.8444 7.78068 6.8444 8.06193Z" fill="#A3704D"/>
<path opacity="0.38" d="M9.09413 19.0312C8.81288 19.5 8.43788 19.7813 8.15663 20.1563C7.50038 21 7.31288 22.2187 7.78163 23.25C8.15663 24.0937 8.90663 24.6562 9.56288 25.125C8.71913 25.5938 7.68788 25.5 6.84413 25.0313C6.09413 24.5625 5.71913 23.8125 5.34413 22.9688C5.15663 22.4063 4.96913 21.75 4.87538 21.0938C4.78163 19.6875 5.34413 18.2813 6.28163 17.3438C6.56288 17.0625 6.93788 16.7812 7.31288 16.7812C7.96913 16.7812 8.34413 17.3437 8.81288 17.625C9.37538 18 9.37538 18.5625 9.09413 19.0312Z" fill="#A3704D"/>
<path opacity="0.38" d="M10.3125 22.2177C10.5 23.2489 11.0625 24.1864 11.9062 24.7489C12.5625 25.2177 13.5 25.4052 14.25 25.3114C15.0937 25.3114 15.9375 25.1239 16.6875 24.9364C17.0625 24.8427 17.5312 24.8427 17.625 25.2177C17.7187 25.4989 17.5312 25.7802 17.3438 25.9677C16.5938 26.6239 15.5625 26.9989 14.625 27.0927C13.5938 27.1864 12.6562 27.0927 11.625 26.9989C11.1562 26.9052 10.6875 26.9052 10.3125 26.6239C9.84375 26.3427 9.5625 25.8739 9.375 25.3114C8.8125 23.9052 8.8125 22.2177 9.375 20.8114C9.46875 20.5302 10.0313 18.9364 10.4063 19.5927C10.5 19.7802 10.3125 20.5302 10.3125 20.7177C10.2188 21.2802 10.3125 21.7489 10.3125 22.2177Z" fill="#A3704D"/>
<path d="M9.75 18.375C9.75 18.375 8.0625 20.25 7.5 22.9687C6.9375 25.6875 5.625 23.25 5.625 23.25C5.625 23.25 5.90625 25.2188 9.46875 25.5C9.46875 25.5 8.71875 20.7187 9.65625 19.2187L10.2187 18.9375L9.75 18.375Z" fill="#734F36"/>
<path d="M18.8437 15.75C18.8437 15.75 20.5313 17.5313 19.4063 22.9688L17.5312 21.2813L18.8437 15.75Z" fill="#A3704D"/>
<path d="M18.1875 16.0312C18.1875 16.0312 19.875 17.8125 18.75 23.25L16.875 21.5625L18.1875 16.0312Z" fill="#FCC097"/>
<path d="M14.3437 20.1554C15.0937 20.2491 15.9374 20.6241 16.3124 21.3741C16.7812 22.3116 16.2187 23.4366 15.3749 23.9054C14.4374 24.3741 13.3124 24.1866 12.5624 23.5304C12.0937 23.1554 11.7187 22.5929 11.5312 22.0304C11.1562 20.2491 12.9374 19.9679 14.3437 20.1554Z" fill="#FFE8D9"/>
<path d="M4.3125 25.125C4.3125 25.125 7.40625 27.4688 8.34375 21.6562C8.34375 21.6562 8.625 22.125 8.625 22.3125C8.625 22.5 7.21875 25.9687 9.5625 28.125L7.875 26.25L8.0625 26.7187C8.0625 26.7187 7.40625 26.8125 7.21875 26.7187C7.03125 26.7187 4.875 26.3437 4.3125 25.125Z" fill="#734F36"/>
<path d="M16.5938 27.2813L16.2188 27.75L17.8125 28.7813L26.625 20.0625L25.125 18.1875L16.5938 27.2813Z" fill="#9A4C18"/>
<path d="M26.8128 22.5C26.5315 25.9688 23.344 28.9688 19.6878 28.875C16.1253 28.875 13.8753 25.875 14.5315 22.5C15.1878 19.3125 18.1878 16.875 21.3753 16.7812C24.6565 16.7812 27.094 19.2188 26.8128 22.5Z" fill="#9A4C18"/>
<path d="M27.6567 23.6257C27.3754 26.9069 24.1879 29.7194 20.7192 29.7194C17.2504 29.7194 15.0004 26.9069 15.6567 23.6257C16.3129 20.6257 19.2192 18.1882 22.3129 18.1882C25.5942 18.0944 27.9379 20.5319 27.6567 23.6257Z" fill="#9A4C18"/>
<path d="M17.5312 27.4687L19.0312 28.3125L26.25 20.7188L25.0312 19.2188L17.5312 27.4687Z" fill="#F49937"/>
<path d="M27 23.625C26.7188 26.4375 24.0938 28.875 21.1875 28.7812C18.2813 28.7812 16.4063 26.3438 16.9688 23.625C17.4375 21 19.9688 18.9375 22.5938 18.9375C25.2188 18.9375 27.2813 20.9062 27 23.625Z" fill="#F49937"/>
<path d="M26.0626 22.5C25.7813 25.5 22.9688 28.125 19.8751 28.0312C16.7813 28.0312 14.8126 25.5 15.3751 22.5C15.9376 19.6875 18.5626 17.5312 21.3751 17.4375C24.1876 17.4375 26.2501 19.5937 26.0626 22.5Z" fill="#FFEDC0"/>
<path d="M25.6875 22.6875C25.4063 25.5 22.7813 27.9375 19.875 27.8438C16.9688 27.8438 15.0938 25.4062 15.6563 22.6875C16.125 20.0625 18.6563 18 21.2813 18C23.9063 18 25.875 20.0625 25.6875 22.6875Z" fill="#FFD766"/>
<path d="M24.4686 22.6875C24.2811 24.8438 22.2186 26.7188 19.9686 26.7188C17.7186 26.7188 16.3123 24.9375 16.6873 22.7812C17.0623 20.7188 19.0311 19.125 21.0936 19.0312C23.1561 19.0312 24.7498 20.625 24.4686 22.6875Z" fill="#FFEDC0"/>
<path d="M24.5623 22.125C24.3748 24.2812 22.3123 26.0625 20.0623 26.0625C17.8123 26.0625 16.4061 24.2812 16.7811 22.125C17.1561 20.0625 19.1248 18.4688 21.1873 18.4688C23.2498 18.4688 24.7498 20.0625 24.5623 22.125Z" fill="#F49937"/>
<path d="M23.9055 22.6875C23.718 24.5625 22.0305 26.0625 20.1555 26.0625C18.2805 26.0625 17.0618 24.5625 17.343 22.6875C17.6243 20.9063 19.3118 19.5938 21.093 19.5C22.7805 19.5938 24.093 20.9063 23.9055 22.6875Z" fill="#FFD766"/>
<path d="M21.5625 19.2188L22.0313 21.1875L24.1875 21.75L22.2188 23.1563L22.0313 25.4063L20.25 24.0938L17.9063 24.9375L18.9375 22.7812L17.7188 21.0938L20.0625 21L21.5625 19.2188Z" fill="#F49937"/>
</g>
<defs>
<clipPath id="clip0_52_69173">
<rect width="30" height="30" fill="white"/>
</clipPath>
</defs>
</svg>
