<svg width="80" height="30" viewBox="0 0 80 30" fill="none" xmlns="http://www.w3.org/2000/svg">
<rect width="79.0364" height="29.9992" rx="6.92109" fill="#EFF3FA" fill-opacity="0.4"/>
<path d="M18.461 17.7398C18.3687 17.7398 18.2822 17.711 18.2014 17.6533C18.0111 17.5091 17.9707 17.2379 18.1149 17.0475C19.0206 15.8418 19.0206 14.1572 18.1149 12.9515C17.9707 12.7611 18.0111 12.49 18.2014 12.3457C18.3918 12.2015 18.663 12.2419 18.8072 12.4323C19.9379 13.9438 19.9379 16.0553 18.8072 17.5668C18.7207 17.6821 18.5937 17.7398 18.461 17.7398Z" fill="white"/>
<path d="M19.5168 19.1826C19.4245 19.1826 19.3379 19.1537 19.2572 19.0961C19.0668 18.9518 19.0264 18.6807 19.1706 18.4903C20.711 16.4365 20.711 13.5635 19.1706 11.5097C19.0264 11.3193 19.0668 11.0482 19.2572 10.904C19.4476 10.7597 19.7187 10.8001 19.8629 10.9905C21.634 13.3501 21.634 16.65 19.8629 19.0095C19.7822 19.1249 19.6495 19.1826 19.5168 19.1826Z" fill="white"/>
<path d="M16.165 10.256C15.5188 9.89833 14.6938 9.99063 13.8516 10.5156L12.167 11.5714C12.0516 11.6406 11.9189 11.681 11.7862 11.681H11.2497H10.9612C9.56513 11.681 8.79784 12.4483 8.79784 13.8444V16.152C8.79784 17.5481 9.56513 18.3154 10.9612 18.3154H11.2497H11.7862C11.9189 18.3154 12.0516 18.3558 12.167 18.425L13.8516 19.4808C14.3592 19.7981 14.8554 19.9538 15.3169 19.9538C15.6169 19.9538 15.9053 19.8846 16.165 19.7404C16.8053 19.3827 17.163 18.6385 17.163 17.6462V12.3502C17.163 11.3579 16.8053 10.6137 16.165 10.256Z" fill="white"/>
<rect opacity="0.6" x="70.9596" y="14.4237" width="1.15382" height="43.2681" rx="0.576758" transform="rotate(90 70.9596 14.4237)" fill="white"/>
<rect x="53.0755" y="13.8474" width="2.30763" height="25.3839" rx="1.15352" transform="rotate(90 53.0755 13.8474)" fill="#4A74EA"/>
<circle cx="53.0754" cy="15.0004" r="2.30763" transform="rotate(90 53.0754 15.0004)" fill="white"/>
</svg>
