<svg width="20" height="20" viewBox="0 0 20 20" fill="none" xmlns="http://www.w3.org/2000/svg">
<path fill-rule="evenodd" clip-rule="evenodd" d="M8.34076 0C12.9397 0 16.6816 3.74184 16.6816 8.3408C16.6816 10.178 16.0772 11.8726 15.0669 13.2523L19.624 17.8094C20.125 18.3104 20.125 19.1228 19.624 19.6239C19.1229 20.1249 18.3105 20.1249 17.8095 19.6239L13.2525 15.0669C11.8728 16.0772 10.178 16.6816 8.3408 16.6816C3.74184 16.6816 0 12.9398 0 8.3408C0 3.74184 3.7418 0 8.34076 0ZM2.56641 8.3408C2.56641 11.525 5.1566 14.1152 8.3408 14.1152C11.525 14.1152 14.1152 11.525 14.1152 8.3408C14.1152 5.1566 11.525 2.56641 8.3408 2.56641C5.1566 2.56641 2.56641 5.1566 2.56641 8.3408Z" fill="white"/>
</svg>
