<svg width="25" height="22" viewBox="0 0 25 22" fill="none" xmlns="http://www.w3.org/2000/svg">
<path d="M22.2783 5.48289C22.294 5.72351 22.294 5.96418 22.294 6.2048C22.294 13.544 17.1735 22.0004 7.81473 22.0004C4.93146 22.0004 2.25305 21.0894 0 19.5082C0.409658 19.5597 0.803505 19.5769 1.22892 19.5769C3.60797 19.5769 5.79801 18.7004 7.54688 17.205C5.3096 17.1534 3.43468 15.555 2.7887 13.3549C3.10384 13.4065 3.41892 13.4408 3.74982 13.4408C4.20672 13.4408 4.66366 13.3721 5.08903 13.2518C2.75722 12.7361 1.00831 10.5017 1.00831 7.80325V7.73453C1.68577 8.14704 2.47361 8.40485 3.30859 8.43919C1.93786 7.44227 1.03983 5.7407 1.03983 3.81565C1.03983 2.78441 1.29187 1.83908 1.73306 1.01405C4.23819 4.38286 8.00377 6.58287 12.2262 6.82354C12.1474 6.41103 12.1002 5.98137 12.1002 5.55167C12.1002 2.4922 14.369 0 17.1892 0C18.6544 0 19.9779 0.670323 20.9075 1.75316C22.0576 1.51254 23.1605 1.04844 24.1374 0.41251C23.7592 1.70163 22.9557 2.78446 21.9001 3.47192C22.9242 3.35167 23.9168 3.04222 24.8306 2.61257C24.1375 3.71254 23.2709 4.69221 22.2783 5.48289Z" fill="#353751"/>
</svg>
