<svg width="396" height="60" viewBox="0 0 396 60" fill="none" xmlns="http://www.w3.org/2000/svg">
<g clip-path="url(#clip0_52_34289)">
<path d="M137.753 0.922852H133.931H128.342H115.364V15.4892L128.342 7.04494V45.6219H143.341V7.04494L156.308 15.4892V0.922852H143.341H137.753Z" fill="#DF8956"/>
<path d="M166.23 0.922852H160.641V45.6219H175.641V7.04494L188.607 15.4892V0.922852H175.641H166.23Z" fill="#DF8956"/>
<path d="M104.112 31.4667C111.311 24.2682 111.311 12.5971 104.112 5.39856C96.9139 -1.79995 85.2428 -1.79995 78.0443 5.39856C70.8458 12.5971 70.8458 24.2682 78.0443 31.4667C85.2428 38.6652 96.9139 38.6652 104.112 31.4667Z" fill="#DF8956"/>
<path d="M310.405 7.51172C305.395 7.51172 300.591 9.50175 297.048 13.044C293.506 16.5863 291.516 21.3907 291.516 26.4002H329.293C329.293 21.3907 327.303 16.5863 323.761 13.044C320.218 9.50175 315.414 7.51172 310.405 7.51172Z" fill="#DF8956"/>
<path d="M310.405 48.4109V29.5225H291.516C291.516 34.532 293.506 39.3364 297.048 42.8786C300.591 46.4209 305.395 48.4109 310.405 48.4109Z" fill="#DF8956"/>
<path d="M349.026 0.922852H334.026V45.6219H339.615H349.026H361.992V31.0666L349.026 39.4998V0.922852Z" fill="#DF8956"/>
<path d="M241.028 0.922852H235.439V45.6219H250.439V28.9556L261.606 35.3999V19.2225L250.439 25.6668V7.04494L263.406 15.4892V0.922852H250.439H241.028Z" fill="#DF8956"/>
<path d="M381.325 39.4998V0.922852H366.325V45.6219H371.914H381.325H394.291V31.0666L381.325 39.4998Z" fill="#DF8956"/>
<path d="M271.805 44.9993V59.999C275.783 59.999 279.599 58.4187 282.412 55.6057C285.225 52.7927 286.805 48.9775 286.805 44.9993V0.933594H271.805V44.9993Z" fill="#DF8956"/>
<path d="M57.632 0.922852H42.6323V45.6219H48.2211H57.632H70.5984V31.0666L57.632 39.4998V0.922852Z" fill="#DF8956"/>
<path d="M31.9326 5.66733C28.4819 2.13118 23.7678 0.11065 18.8274 0.0502233C13.8869 -0.0102038 9.12486 1.89442 5.58871 5.34511C2.05257 8.7958 0.0320371 13.5099 -0.02839 18.4503C-0.0888171 23.3907 1.81581 28.1528 5.2665 31.689L31.9326 5.66733Z" fill="#DF8956"/>
<path d="M2.22217 39.9997C5.67875 43.5358 10.3985 45.554 15.3431 45.6103C20.2877 45.6665 25.0521 43.7563 28.5883 40.2997C32.1244 36.8431 34.1426 32.1234 34.1989 27.1788C34.2551 22.2342 32.3448 17.4697 28.8883 13.9336L2.22217 39.9997Z" fill="#DF8956"/>
<path d="M226.395 5.66733C222.944 2.13118 218.23 0.11065 213.29 0.0502233C208.349 -0.0102038 203.587 1.89442 200.051 5.34511C196.515 8.7958 194.494 13.5099 194.434 18.4503C194.374 23.3907 196.278 28.1528 199.729 31.689L226.395 5.66733Z" fill="#DF8956"/>
<path d="M196.663 40.0002C198.371 41.7511 200.408 43.1483 202.657 44.1121C204.905 45.0759 207.322 45.5874 209.768 45.6173C212.214 45.6472 214.642 45.195 216.914 44.2865C219.185 43.378 221.256 42.031 223.006 40.3224C224.757 38.6138 226.155 36.577 227.118 34.3284C228.082 32.0798 228.594 29.6634 228.624 27.2172C228.653 24.7709 228.201 22.3427 227.293 20.0712C226.384 17.7997 225.037 15.7294 223.329 13.9785L196.663 40.0002Z" fill="#DF8956"/>
</g>
<defs>
<clipPath id="clip0_52_34289">
<rect width="395.547" height="60" fill="white"/>
</clipPath>
</defs>
</svg>
