<svg width="155" height="24" viewBox="0 0 155 24" fill="none" xmlns="http://www.w3.org/2000/svg">
<g clip-path="url(#clip0_52_60239)">
<path d="M13.6973 1.68359L10.7773 7.6582L4.17383 8.60156C3.00586 8.78125 2.55664 10.2188 3.41016 11.0723L8.12695 15.6992L7.00391 22.2129C6.82422 23.3809 8.08203 24.2793 9.11523 23.7402L15 20.6406L20.8398 23.7402C21.873 24.2793 23.1309 23.3809 22.9512 22.2129L21.8281 15.6992L26.5449 11.0723C27.3984 10.2188 26.9492 8.78125 25.7812 8.60156L19.2227 7.6582L16.2578 1.68359C15.7637 0.650391 14.2363 0.605469 13.6973 1.68359Z" fill="#F5F5F5"/>
<path d="M44.6973 1.68359L41.7773 7.6582L35.1738 8.60156C34.0059 8.78125 33.5566 10.2188 34.4102 11.0723L39.127 15.6992L38.0039 22.2129C37.8242 23.3809 39.082 24.2793 40.1152 23.7402L46 20.6406L51.8398 23.7402C52.873 24.2793 54.1309 23.3809 53.9512 22.2129L52.8281 15.6992L57.5449 11.0723C58.3984 10.2188 57.9492 8.78125 56.7812 8.60156L50.2227 7.6582L47.2578 1.68359C46.7637 0.650391 45.2363 0.605469 44.6973 1.68359Z" fill="#F5F5F5"/>
<path d="M75.6973 1.68359L72.7773 7.6582L66.1738 8.60156C65.0059 8.78125 64.5566 10.2188 65.4102 11.0723L70.127 15.6992L69.0039 22.2129C68.8242 23.3809 70.082 24.2793 71.1152 23.7402L77 20.6406L82.8398 23.7402C83.873 24.2793 85.1309 23.3809 84.9512 22.2129L83.8281 15.6992L88.5449 11.0723C89.3984 10.2188 88.9492 8.78125 87.7812 8.60156L81.2227 7.6582L78.2578 1.68359C77.7637 0.650391 76.2363 0.605469 75.6973 1.68359Z" fill="#F5F5F5"/>
<path d="M106.697 1.68359L103.777 7.6582L97.1738 8.60156C96.0059 8.78125 95.5566 10.2188 96.4102 11.0723L101.127 15.6992L100.004 22.2129C99.8242 23.3809 101.082 24.2793 102.115 23.7402L108 20.6406L113.84 23.7402C114.873 24.2793 116.131 23.3809 115.951 22.2129L114.828 15.6992L119.545 11.0723C120.398 10.2188 119.949 8.78125 118.781 8.60156L112.223 7.6582L109.258 1.68359C108.764 0.650391 107.236 0.605469 106.697 1.68359Z" fill="#F5F5F5"/>
<path d="M137.697 1.68359L134.777 7.6582L128.174 8.60156C127.006 8.78125 126.557 10.2188 127.41 11.0723L132.127 15.6992L131.004 22.2129C130.824 23.3809 132.082 24.2793 133.115 23.7402L139 20.6406L144.84 23.7402C145.873 24.2793 147.131 23.3809 146.951 22.2129L145.828 15.6992L150.545 11.0723C151.398 10.2188 150.949 8.78125 149.781 8.60156L143.223 7.6582L140.258 1.68359C139.764 0.650391 138.236 0.605469 137.697 1.68359Z" fill="#F5F5F5"/>
<g clip-path="url(#clip1_52_60239)">
<path d="M13.6973 1.68359L10.7773 7.6582L4.17383 8.60156C3.00586 8.78125 2.55664 10.2188 3.41016 11.0723L8.12695 15.6992L7.00391 22.2129C6.82422 23.3809 8.08203 24.2793 9.11523 23.7402L15 20.6406L20.8398 23.7402C21.873 24.2793 23.1309 23.3809 22.9512 22.2129L21.8281 15.6992L26.5449 11.0723C27.3984 10.2188 26.9492 8.78125 25.7812 8.60156L19.2227 7.6582L16.2578 1.68359C15.7637 0.650391 14.2363 0.605469 13.6973 1.68359Z" fill="#FFD400"/>
<path d="M44.6973 1.68359L41.7773 7.6582L35.1738 8.60156C34.0059 8.78125 33.5566 10.2188 34.4102 11.0723L39.127 15.6992L38.0039 22.2129C37.8242 23.3809 39.082 24.2793 40.1152 23.7402L46 20.6406L51.8398 23.7402C52.873 24.2793 54.1309 23.3809 53.9512 22.2129L52.8281 15.6992L57.5449 11.0723C58.3984 10.2188 57.9492 8.78125 56.7812 8.60156L50.2227 7.6582L47.2578 1.68359C46.7637 0.650391 45.2363 0.605469 44.6973 1.68359Z" fill="#FFD400"/>
<path d="M76.2973 1.68359L73.3773 7.6582L66.7738 8.60156C65.6059 8.78125 65.1566 10.2188 66.0102 11.0723L70.727 15.6992L69.6039 22.2129C69.4242 23.3809 70.682 24.2793 71.7152 23.7402L77.6 20.6406L83.4398 23.7402C84.473 24.2793 85.7309 23.3809 85.5512 22.2129L84.4281 15.6992L89.1449 11.0723C89.9984 10.2188 89.5492 8.78125 88.3813 8.60156L81.8227 7.6582L78.8578 1.68359C78.3637 0.650391 76.8363 0.605469 76.2973 1.68359Z" fill="#FFD400"/>
</g>
</g>
<defs>
<clipPath id="clip0_52_60239">
<rect width="155" height="24" fill="white"/>
</clipPath>
<clipPath id="clip1_52_60239">
<rect width="86.7969" height="24" fill="white"/>
</clipPath>
</defs>
</svg>
