<svg width="26" height="26" viewBox="0 0 26 26" fill="none" xmlns="http://www.w3.org/2000/svg">
<path d="M21.9375 5.6875V23.5625C21.9378 23.7117 21.897 23.8581 21.8196 23.9857C21.7422 24.1132 21.6312 24.217 21.4987 24.2856C21.3831 24.3449 21.2549 24.3755 21.125 24.375C20.9593 24.3746 20.7977 24.3236 20.6619 24.2288L13 18.8662L5.33813 24.2288C5.21968 24.3089 5.08218 24.3564 4.93952 24.3664C4.79685 24.3763 4.65408 24.3485 4.52563 24.2856C4.3886 24.2204 4.27258 24.118 4.19073 23.9902C4.10887 23.8624 4.06445 23.7143 4.0625 23.5625V5.6875C4.0625 4.61006 4.49051 3.57675 5.25238 2.81488C6.01425 2.05301 7.04756 1.625 8.125 1.625H17.875C18.9524 1.625 19.9858 2.05301 20.7476 2.81488C21.5095 3.57675 21.9375 4.61006 21.9375 5.6875Z" fill="#353751"/>
</svg>
