<svg width="30" height="30" viewBox="0 0 30 30" fill="none" xmlns="http://www.w3.org/2000/svg">
<g clip-path="url(#clip0_52_74165)">
<path d="M26.4375 1.6875L10.125 2.625L14.625 28.6875L29.7188 25.5L26.4375 1.6875Z" fill="#602718"/>
<path d="M15.5625 17.9063C15.5625 17.9063 15.375 20.0625 15.8438 22.2188L16.3125 24.1875C16.3125 24.1875 13.2188 24 12.0938 22.9688C10.9688 21.9375 9.28125 17.9063 9.28125 17.9063L10.4063 16.4062L15.5625 17.9063Z" fill="#8E4028"/>
<path d="M1.96946 17.0632C3.09446 22.3132 8.34446 25.6882 13.5945 24.5632C18.8445 23.4382 21.3757 18.282 19.8757 13.032C18.657 8.71948 13.6882 4.96948 8.43821 6.09448C3.18821 7.21948 0.844455 11.7195 1.96946 17.0632Z" fill="#8E4028"/>
<path d="M2.06317 16.6867C3.18817 21.7492 9.28192 26.8117 14.1569 25.7804C19.0319 24.7492 21.0007 17.9054 19.8757 12.8429C18.7507 7.87419 15.0944 4.21794 8.90692 5.62419C4.03192 6.65544 0.938171 11.6242 2.06317 16.6867Z" fill="#8E4028"/>
<path d="M15.1433 22.1597C18.7341 21.3726 20.9891 17.7416 20.1798 14.0496C19.3706 10.3576 15.8036 8.00268 12.2128 8.78974C8.6219 9.5768 6.36695 13.2078 7.17618 16.8998C7.98542 20.5918 11.5524 22.9468 15.1433 22.1597Z" fill="#8E4028"/>
<path d="M4.78092 15.6563C4.78092 15.6563 4.59342 18.4687 5.62467 19.5C6.65592 20.5312 2.99967 21.375 2.99967 21.375C2.99967 21.375 1.21842 18.5625 1.31217 16.7812C1.49967 15.0937 4.78092 15.6563 4.78092 15.6563ZM9.09342 22.4062C7.78092 22.5937 10.8747 26.1563 12.3747 26.4375C13.8747 26.7188 16.3122 26.3438 17.3434 25.7812C18.3747 25.2188 20.1559 21.0938 20.3434 19.875L20.7184 17.625C20.7184 17.625 20.4372 17.8125 19.7809 18.375C18.6559 19.2188 16.0309 21.2812 9.09342 22.4062ZM13.6872 18.75C13.6872 18.75 11.4372 18.2812 10.3122 19.0312C10.3122 19.0312 9.74967 19.7813 10.1247 19.875C10.4997 20.0625 10.9684 20.3437 11.1559 19.9687C11.4372 19.6875 12.7497 18.8438 13.6872 18.75ZM18.3747 16.6875C18.3747 16.6875 18.7497 15.1875 19.6872 15C19.6872 15 20.4372 15.0937 20.4372 15.375C20.4372 15.6562 20.5309 16.125 20.1559 16.0313C19.8747 16.0313 18.7497 16.2187 18.3747 16.6875Z" fill="#8E4028"/>
<path d="M9.5625 22.5011L6.375 21.5636L6 23.1574C6 23.1574 7.96875 25.4074 11.3438 26.0636L9.5625 22.5011ZM16.0312 16.5949L14.3438 17.0636L13.875 15.8449L15.8438 15.2824L16.0312 16.5949ZM12.9375 14.4386C12.9375 14.4386 11.3437 13.5949 9.75 14.2511C8.15625 14.9074 6.9375 16.5949 7.78125 16.8761C8.625 17.0636 9 16.4074 9.28125 15.7511C9.5625 15.0949 10.7813 14.4386 12.2812 15.3761C12.1875 15.3761 12.9375 15.0949 12.9375 14.4386ZM5.625 9.84488C9.375 8.06363 15.0937 6.37613 18.5625 9.65738C17.1562 10.5949 14.25 11.6261 14.25 11.6261L13.2188 11.2511C9.5625 9.93863 5.90625 11.3449 3.75 12.4699C4.03125 11.3449 4.59375 10.3136 5.625 9.84488Z" fill="#8E4028"/>
<path d="M1.6875 9.56266L2.90625 12.7502C2.90625 12.7502 7.6875 9.00016 12.5625 10.6877L13.5 10.9689C13.5 10.9689 18.0938 9.65641 18.375 8.71891C18.375 8.71891 19.2188 7.31266 18.4688 5.71891C18.4688 5.71891 18.0938 6.75016 18 7.59391C18 7.59391 17.625 4.68766 15.375 3.93766C15.375 3.93766 15.75 4.21891 15.75 5.53141C15.75 5.53141 11.7188 3.09391 9 3.46891C9 3.46891 10.3125 4.40641 10.4062 5.81266C10.4062 5.81266 7.21875 4.87516 4.125 5.71891C4.125 5.71891 4.59375 6.56266 5.4375 7.21891C5.4375 7.12516 3.46875 8.15641 1.6875 9.56266Z" fill="#8E4028"/>
<path d="M5.4375 11.7188L7.3125 13.2188C7.3125 13.2188 5.8125 16.3125 6.46875 19.3125L1.6875 17.625L1.875 12.2813C1.78125 12.2813 3.65625 11.9062 5.4375 11.7188Z" fill="#8E4028"/>
<path d="M7.03125 18.1875C6.9375 18.1875 4.78125 18.0938 4.78125 18.0938V18.6562L7.125 19.6875L6.75 18.4688L7.03125 18.1875ZM2.15625 13.125L6.46875 13.2188C6.46875 13.2188 6.1875 12.9375 6 14.25L3.28125 14.8125C3.1875 14.8125 1.875 14.625 1.875 14.625L2.15625 13.125ZM4.5 5.53125C4.5 5.53125 6.46875 6.65625 8.625 6.75L5.0625 8.34375C5.0625 8.34375 7.6875 8.625 8.71875 8.53125C9.75 8.4375 10.9688 8.625 10.9688 8.625L5.8125 9.9375C5.8125 9.9375 9.84375 9.5625 11.7188 10.4063C11.7188 10.4063 6.65625 9.84375 2.8125 12.75L2.15625 12.5625L0.46875 10.2187C0.46875 10.2187 2.625 8.53125 4.03125 8.0625L5.0625 7.5L4.03125 5.625L4.5 5.53125Z" fill="#8E4028"/>
<path d="M0.5625 10.2181L4.875 9.65562L2.8125 10.8744L6.9375 10.5931C6.9375 10.5931 4.875 11.0619 4.125 12.5619L3.46875 12.8431L1.875 12.6556L0.5625 10.2181ZM18.75 7.68687C18.75 7.68687 17.5312 8.90562 16.3125 9.09312L10.875 10.1244L13.4062 10.9681C13.4062 10.9681 17.1562 10.0306 17.8125 9.46812C18.4688 8.71812 18.75 7.68687 18.75 7.68687ZM14.8125 4.12437C14.8125 4.12437 15.6562 6.37437 15.2812 7.87437C15.2812 7.87437 16.2188 6.37437 15.9375 4.78062C15.8438 4.68687 15.6562 4.03062 14.8125 4.12437Z" fill="#8E4028"/>
<path d="M10.8759 3.46875C10.8759 3.46875 13.4072 4.03125 14.4384 5.25C15.4697 6.46875 15.3759 7.21875 15.3759 7.21875C15.3759 7.21875 14.7197 5.71875 13.6884 5.34375C12.6572 4.96875 10.8759 3.46875 10.8759 3.46875ZM6.37591 5.625C6.28216 5.625 9.18841 5.25 11.0634 6.375C12.9384 7.5 14.1572 7.96875 14.1572 7.96875L10.5947 7.03125C10.5947 7.125 7.78216 5.53125 6.37591 5.625ZM4.78216 19.6875C4.78216 19.6875 3.18841 18.8437 2.43841 19.0312C1.68841 19.2187 1.31341 22.875 4.21966 22.875C7.12591 22.875 4.78216 19.6875 4.78216 19.6875Z" fill="#8E4028"/>
<path d="M4.87403 19.9682C4.87403 19.9682 2.81153 18.0932 1.96778 18.3745C1.12403 18.6557 0.936535 23.5307 4.31153 23.437C7.68653 23.3432 4.87403 19.9682 4.87403 19.9682Z" fill="#8E4028"/>
<path d="M4.50027 19.4992C4.50027 19.4992 3.18777 18.9367 2.53152 19.1242C1.87527 19.3117 1.78152 22.593 4.12527 22.4992C6.46902 22.4055 4.50027 19.4992 4.50027 19.4992Z" fill="#8E4028"/>
<path d="M4.78034 19.7805C4.78034 19.7805 3.46784 19.218 2.81159 19.4055C2.15534 19.593 1.96784 22.8742 4.40534 22.7805C6.84284 22.6867 4.78034 19.7805 4.78034 19.7805ZM14.2491 24.7492C15.4678 25.7805 17.9053 24.843 17.6241 23.8117L14.2491 24.7492Z" fill="#8E4028"/>
<path d="M11.0625 22.5937C11.5312 22.6875 12.1875 22.7813 12.6562 22.6875C14.7187 22.5 16.5937 22.0312 18.5625 21.1875C18.2812 21.375 18.0937 21.5625 17.8125 21.6562C17.625 22.125 17.4375 22.6875 17.4375 23.0625C17.625 23.0625 17.8125 23.1562 18.1875 23.0625C16.875 24 14.8125 24.4687 13.9687 24.2812C13.3125 24.1875 12.0938 23.625 10.875 22.875C10.9688 22.7812 11.0625 22.6875 11.0625 22.5937Z" fill="#8E4028"/>
<path d="M10.6875 22.5938C10.7812 22.5938 10.7813 22.5 10.875 22.4062H10.7813C10.875 22.4062 10.875 22.3125 10.9688 22.3125C11.4375 22.5 12.1875 22.5938 12.6563 22.5938C14.7188 22.4063 16.5937 21.9375 18.5625 21V21.375C18.2812 21.6562 18 21.75 17.7188 21.8437C17.5312 22.4062 17.5313 22.875 17.5313 23.4375C17.7188 23.4375 17.9062 23.3438 18.1875 23.1563C16.9688 24.2813 13.6875 25.125 12.75 24.8438C12.1875 24.5625 11.8125 23.7188 10.6875 22.5938Z" fill="#8E4028"/>
<path d="M17.4375 22.0312C17.3438 22.4063 17.1562 22.875 17.25 23.25V23.3437C17.0625 23.4375 16.9687 23.5313 16.7812 23.5313L15.1875 24.0938C14.9063 24.1875 14.3437 24.2812 14.0625 24.1875C13.5937 24.0937 13.0312 23.8125 12.5625 23.625L11.5312 23.0625C12 23.1563 12.375 23.1563 12.75 23.1563C14.3438 22.875 15.9375 22.5 17.4375 22.0312Z" fill="#8E4028"/>
<path d="M17.4375 22.0312C17.4375 22.3125 17.3437 22.5 17.25 22.6875C17.1562 22.7813 16.875 22.875 16.7812 22.9688C16.9687 22.9688 17.1562 23.0625 17.25 23.3437C16.5 23.7187 14.25 24.375 13.4062 24.1875C13.125 24.0937 12.8437 24.0938 12.5625 24C12.6562 23.9063 13.4062 23.7188 13.5937 23.625C13.125 23.625 12.5625 23.5312 12.375 23.4375C12.2812 23.3438 12.0937 23.25 12 23.0625H12.6562C14.3437 22.875 15.9375 22.5 17.4375 22.0312Z" fill="#8E4028"/>
<path d="M17.4377 22.3118C17.4377 22.4056 17.344 22.4993 17.344 22.5931C17.2502 22.6868 16.969 22.7806 16.8752 22.8743C17.0627 22.8743 17.2502 22.9681 17.344 23.2493C16.6877 23.6243 15.1877 24.1868 14.344 24.0931C14.0627 23.9056 13.8752 23.5306 13.7815 23.1556C14.9065 22.9681 16.0315 22.7806 17.4377 22.3118ZM8.81274 20.6243C9.65649 20.4368 10.594 20.5306 11.2502 20.8118C12.094 20.7181 12.5627 20.6243 13.1252 20.4368C14.4377 19.2181 13.6877 17.8118 12.7502 16.8743C12.3752 16.4993 11.719 16.3118 11.1565 16.4993C9.65649 16.8743 8.62524 17.5306 8.25024 17.8118C7.96899 18.4681 7.96899 20.4368 8.81274 20.6243Z" fill="#8E4028"/>
<path d="M8.81333 20.6252C9.65708 20.5314 10.3133 20.6252 10.9696 20.8127C11.8133 20.6252 12.2821 20.5314 12.8446 20.2502C13.5008 19.4064 13.1258 18.0002 12.2821 17.3439C11.4383 17.2502 8.81333 18.0002 8.34458 18.6564C7.96958 19.3127 8.25083 20.1564 8.81333 20.6252Z" fill="#8E4028"/>
<path d="M13.0312 18.375C12.8438 18 12.1875 17.1563 11.8125 16.875C10.9688 16.7813 9 17.0625 8.53125 17.7187C8.4375 18 8.15625 19.2187 8.15625 19.5C9.28125 20.25 12.75 19.9687 12.9375 18.5625C12.9375 18.4687 13.0312 18.375 13.0312 18.375Z" fill="#8E4028"/>
<path d="M8.625 18.375C8.34375 18.75 8.25 19.2187 8.25 19.5937C8.34375 19.9687 8.53125 20.3438 8.90625 20.625C9.46875 20.625 10.0312 20.625 10.5938 20.7188C11.25 20.3438 11.4375 19.6875 11.3438 19.125C11.25 18.4687 10.6875 17.8125 9.84375 17.8125C9.375 17.9063 8.90625 18.1875 8.625 18.375Z" fill="#8E4028"/>
<path d="M9.65704 18.4682C9.18829 18.5619 8.81329 19.0307 8.90704 19.4994C9.00079 19.9682 9.46954 20.3432 9.93829 20.2494C10.407 20.1557 10.782 19.6869 10.6883 19.2182C10.5945 18.6557 10.1258 18.3744 9.65704 18.4682ZM16.8758 14.8119C16.5945 16.0307 16.9695 17.4369 17.6258 18.6557C18.4695 19.0307 20.0633 18.5619 20.7195 17.8119C20.907 16.4994 20.532 14.7182 19.5008 13.9682C18.5633 13.2182 17.2508 13.5932 16.8758 14.8119Z" fill="#8E4028"/>
<path d="M16.8742 15.1878C16.593 16.2191 16.8742 17.9066 17.5305 19.0316C18.3742 19.0316 19.968 18.4691 20.4367 17.8128C20.6242 16.6878 20.1555 15.0941 19.218 14.4378C18.468 13.7816 17.2492 14.1566 16.8742 15.1878Z" fill="#8E4028"/>
<path d="M16.9688 15.5625C16.7813 16.0312 16.7813 16.4063 16.9688 17.0625C18 18 20.4375 17.625 20.25 15.5625C20.0625 15.0938 19.7813 14.625 19.4063 14.3437C18.4688 13.7812 17.25 14.4375 16.9688 15.5625Z" fill="#8E4028"/>
<path d="M17.812 15.1885C16.8745 15.376 16.5932 16.3135 16.687 17.1573C16.7807 17.9073 17.437 18.751 18.3745 18.6573C19.312 18.4698 19.5932 17.5323 19.4995 16.6885C19.312 15.8448 18.6557 15.001 17.812 15.1885Z" fill="#8E4028"/>
<path d="M17.9066 15.8438C17.4379 15.9375 17.1566 16.4063 17.2504 16.9688C17.3441 17.5313 17.8129 17.9063 18.1879 17.8125C18.6566 17.7188 18.9379 17.25 18.8441 16.6875C18.7504 16.2187 18.3754 15.8438 17.9066 15.8438Z" fill="#8E4028"/>
<path d="M17.5316 15.0006C17.0629 15.0943 16.7816 15.4693 16.8754 15.8443C16.9691 16.2193 17.3441 16.5006 17.8129 16.4068C18.2816 16.3131 18.5629 15.9381 18.4691 15.5631C18.4691 15.1881 18.0004 14.9068 17.5316 15.0006ZM9.00039 17.7193C8.53164 17.8131 8.25038 18.1881 8.34413 18.5631C8.43788 18.9381 8.81288 19.2193 9.28163 19.1256C9.75038 19.0318 10.0316 18.6568 9.93789 18.2818C9.84414 17.9068 9.46914 17.6256 9.00039 17.7193Z" fill="#8E4028"/>
<path d="M6.46875 18.5625L7.5 20.7188C10.9688 21.375 15 19.5 15 19.5C15.0938 18.375 14.4375 15.9375 14.4375 15.9375C10.5 16.2188 6.46875 18.5625 6.46875 18.5625ZM7.125 19.0312C7.125 19.0312 10.6875 16.5937 13.875 16.3125C13.875 16.3125 14.5313 18.75 14.4375 19.6875C14.4375 19.6875 11.0625 21.375 8.0625 20.9062L7.125 19.0312Z" fill="#8E4028"/>
<path d="M6.1875 18.3755L7.5 20.9068C10.9688 21.563 15 19.5943 15 19.5943C15.0938 18.4693 14.25 15.7505 14.25 15.7505C10.5 15.938 6.1875 18.3755 6.1875 18.3755ZM6.9375 18.563C6.9375 18.563 10.5938 16.5005 13.875 16.313C13.875 16.313 14.4375 18.4693 14.4375 19.4068C14.4375 19.4068 11.0625 21.0943 8.0625 20.6255L6.9375 18.563ZM12.5625 14.7193L12.9375 14.438C12.9375 14.438 10.9688 12.4693 9.1875 13.8755C7.40625 15.2818 7.5 16.2193 7.5 16.2193C7.5 16.2193 9.65625 12.938 12.5625 14.7193ZM21.9375 14.9068L20.625 14.7193L20.5312 14.438C20.5312 14.438 21.375 14.1568 21.8437 14.2505L21.9375 14.9068Z" fill="#8E4028"/>
<path d="M19.5938 14.3438L21.6563 14.0625L21.75 17.1562L20.4375 17.8125C20.4375 17.8125 20.3437 14.9063 19.5938 14.3438Z" fill="#B79576"/>
<path d="M15.2812 17.7188C15.2812 17.7188 15.0938 19.7813 15.5625 21.75L16.0312 23.625C16.0312 23.625 13.125 23.5313 12.0937 22.5C11.0625 21.4688 9.46875 17.7188 9.46875 17.7188L10.5 16.3125L15.2812 17.7188Z" fill="#FCC097"/>
<path d="M2.62524 17.2499C3.75024 22.2186 8.53149 25.0311 13.5002 23.9061C18.469 22.7811 20.719 17.9061 19.219 12.9374C18.0002 8.90611 13.5002 5.43736 8.53149 6.56236C3.56274 7.68736 1.59399 12.2811 2.62524 17.2499Z" fill="#E8BD89"/>
<path d="M2.62471 16.5937C3.65596 21.3749 9.37471 26.1562 14.0622 25.1249C18.7497 24.0937 20.531 17.7187 19.4997 12.9374C18.4685 8.24992 15.0935 5.53117 9.37471 6.84367C4.59346 7.78117 1.59346 11.8124 2.62471 16.5937Z" fill="#E8BD89"/>
<path d="M14.9777 21.7867C18.3663 21.044 20.4932 17.6129 19.7283 14.1232C18.9634 10.6335 15.5963 8.4066 12.2078 9.14932C8.81923 9.89205 6.69233 13.3231 7.45722 16.8128C8.22212 20.3025 11.5892 22.5294 14.9777 21.7867Z" fill="#FFD097"/>
<path d="M5.15611 15.5627C5.15611 15.5627 4.96861 18.2814 5.99986 19.2189C7.03111 20.1564 3.56236 21.0002 3.56236 21.0002C3.56236 21.0002 1.87486 18.2814 1.96861 16.6877C2.06236 15.0002 5.15611 15.5627 5.15611 15.5627Z" fill="#63310F"/>
<path d="M9.2819 22.0312C8.06315 22.2187 10.9694 25.5937 12.3757 25.7812C13.7819 25.9687 16.1257 25.6875 17.0632 25.125C18.0007 24.5625 19.6882 20.7187 19.9694 19.5L20.2507 18C20.2507 18 20.0632 18 19.4069 18.4688C18.2819 19.4062 15.7507 21 9.2819 22.0312Z" fill="#D8B18B"/>
<path d="M13.5938 18.5625C13.5938 18.5625 11.5313 18.0938 10.4063 18.8438C10.4063 18.8438 9.93752 19.5 10.2188 19.6875C10.5938 19.875 10.9688 20.1563 11.25 19.7813C11.4375 19.4063 12.75 18.5625 13.5938 18.5625ZM18 16.5938C18 16.5938 18.2813 15.1875 19.2188 15C19.2188 15 19.875 15.0937 19.9688 15.375C19.9688 15.6562 20.0625 16.0313 19.7813 16.0313C19.5 16.0313 18.2813 16.125 18 16.5938Z" fill="#343F3D"/>
<path d="M18.75 10.7813C18.75 10.7813 17.9062 9.5625 15.4688 10.9688L16.4062 8.15625C16.4062 8.15625 17.9062 8.90625 18.75 10.6875" fill="#E5895B"/>
<path d="M9.65625 22.0312L6.65625 21.0938L6.28125 22.5938C6.28125 22.5938 8.0625 24.6562 11.3438 25.3125L9.65625 22.0312Z" fill="#B79576"/>
<path d="M15.75 16.5L14.1563 16.9688L13.7812 15.8438L15.6563 15.2812L15.75 16.5Z" fill="#343F3D"/>
<path d="M12.8438 14.5314C12.8438 14.5314 11.3438 13.6877 9.84375 14.3439C8.25 15.0002 7.125 16.5939 7.96875 16.7814C8.8125 16.9689 9.09375 16.3127 9.375 15.7502C9.65625 15.1877 10.7812 14.5314 12.1875 15.3752C12.1875 15.2814 12.8438 15.0002 12.8438 14.5314ZM20.1562 12.3752C20.1562 12.3752 18.5625 11.7189 16.9688 12.3752C15.375 13.0314 14.4375 14.3439 15.1875 14.5314C15.9375 14.7189 16.4062 14.2502 16.6875 13.5939C16.9687 13.0314 18.4688 11.7189 19.7812 12.5627C19.875 12.5627 20.1562 12.8439 20.1562 12.3752ZM6 10.1252C9.5625 8.43767 15.1875 6.56267 18.4688 9.56267C17.1563 10.5002 14.1562 11.8127 14.1562 11.8127L13.125 11.5314C9.65625 10.3127 6.28125 11.6252 4.21875 12.7502C4.5 11.5314 5.0625 10.5002 6 10.1252Z" fill="#63310F"/>
<path d="M2.25 9.84391L3.46875 12.8439C3.46875 12.8439 7.96875 9.28141 12.5625 10.8752L13.4062 11.1564C13.4062 11.1564 17.7188 9.84391 18 9.00016C18 9.00016 18.75 7.68766 18.0938 6.18766C18.0938 6.18766 17.7188 7.12516 17.625 7.96891C17.625 7.96891 17.25 5.15641 15.1875 4.59391C15.1875 4.59391 15.5625 4.87516 15.4688 6.09391C15.4688 6.09391 12.4688 3.65641 9.9375 4.03141C9.9375 4.03141 11.1563 5.06266 11.25 6.37516C11.25 6.37516 7.40625 5.53141 4.5 6.28141C4.5 6.28141 4.96875 7.03141 5.71875 7.68766C5.8125 7.50016 3.9375 8.53141 2.25 9.84391Z" fill="url(#paint0_linear_52_74165)"/>
<path d="M5.71875 11.9062L7.5 13.3125C7.5 13.3125 6.09375 16.3125 6.75 19.0312L2.25 17.4375L2.4375 12.4688C2.34375 12.4688 4.125 12.0938 5.71875 11.9062Z" fill="#63310F"/>
<path d="M7.3125 18C7.21875 18 5.15625 17.9062 5.15625 17.9062V18.4688L7.5 19.5L7.125 18.375L7.3125 18Z" fill="#343F3D"/>
<path d="M2.71875 13.3125L6.75 13.4063C6.75 13.4063 6.46875 13.125 6.28125 14.3438L3.65625 14.8125C3.5625 14.8125 2.4375 14.625 2.4375 14.625L2.71875 13.3125Z" fill="url(#paint1_linear_52_74165)"/>
<path d="M4.96875 6.09375C4.96875 6.09375 6.75 7.125 8.8125 7.21875L5.4375 8.71875C5.4375 8.71875 7.875 9 8.90625 8.90625C9.84375 8.8125 11.0625 9 11.0625 9L6.28125 10.2187C6.28125 10.2187 10.0312 9.84375 11.9062 10.5938C11.9062 10.5938 7.125 10.0312 3.5625 12.75L2.8125 12.6562L1.40625 10.3125C1.40625 10.3125 3.1875 8.8125 4.59375 8.34375L5.53125 7.78125L4.59375 6L4.96875 6.09375Z" fill="#B85A1B"/>
<path d="M1.21875 10.5L5.25 10.0312L3.375 11.25L7.3125 11.0625C7.3125 11.0625 5.34375 11.5313 4.6875 12.9375L4.03125 13.2188L2.53125 13.0312L1.21875 10.5Z" fill="#63310F"/>
<path d="M18.375 8.0625C18.375 8.0625 17.1563 9.1875 16.125 9.375L10.9688 10.3125L13.4063 11.0625C13.4063 11.0625 16.9688 10.2188 17.5313 9.5625C18.0938 9.09375 18.375 8.0625 18.375 8.0625ZM15.2812 4.40625C15.2812 4.40625 16.125 6.46875 15.6563 7.96875C15.6563 7.96875 16.5 6.5625 16.3125 5.0625C16.3125 5.0625 16.0312 4.40625 15.2812 4.40625Z" fill="#B85A1B"/>
<path d="M10.9692 4.125C10.9692 4.125 13.4067 4.6875 14.2504 5.8125C15.0942 6.9375 15.0942 7.6875 15.0942 7.6875C15.0942 7.6875 14.4379 6.28125 13.5004 5.90625C12.5629 5.53125 10.9692 4.125 10.9692 4.125ZM6.75041 6.1875C6.65666 6.1875 9.37541 5.8125 11.1567 6.9375C12.9379 8.0625 14.0629 8.4375 14.0629 8.4375L10.6879 7.5C10.6879 7.5 8.06291 6.09375 6.75041 6.1875Z" fill="#FFBA7B"/>
<path d="M5.15584 19.4061C5.15584 19.4061 3.65584 18.5623 2.99959 18.7498C2.24959 19.0311 1.96834 22.4998 4.59334 22.4998C7.21834 22.4998 5.15584 19.4061 5.15584 19.4061Z" fill="#63310F"/>
<path d="M5.24987 19.6883C5.24987 19.6883 3.37487 17.9071 2.53112 18.1883C1.68737 18.4696 1.59362 22.9696 4.78112 22.8758C7.96862 22.8758 5.24987 19.6883 5.24987 19.6883Z" fill="#E8BD89"/>
<path d="M4.87566 19.218C4.87566 19.218 3.65691 18.6555 3.09441 18.843C2.53191 19.0305 2.34441 22.1242 4.59441 21.9367C6.84441 21.7492 4.87566 19.218 4.87566 19.218Z" fill="#C18053"/>
<path d="M5.25066 19.4992C5.25066 19.4992 4.03191 18.9367 3.46941 19.1242C2.90691 19.3117 2.71941 22.4055 4.96941 22.218C7.21941 22.0305 5.25066 19.4992 5.25066 19.4992Z" fill="#CE9D67"/>
<path d="M14.0625 24.1875C15.1875 25.125 17.5312 24.2812 17.25 23.25L14.0625 24.1875Z" fill="#FFBC8F"/>
<path d="M11.1562 22.2188C11.625 22.3125 12.1875 22.4062 12.6562 22.3125C14.625 22.125 16.3125 21.6562 18.2812 20.9062C18 21.0938 17.8125 21.2812 17.5313 21.375C17.3438 21.8438 17.1562 22.3125 17.1562 22.6875C17.3437 22.6875 17.5312 22.7813 17.8125 22.6875C16.5937 23.5313 14.625 24 13.7812 23.8125C13.2187 23.7188 12 23.1563 10.875 22.5C10.9688 22.3125 11.0625 22.3125 11.1562 22.2188Z" fill="#9A4C18"/>
<path d="M10.7819 22.125C10.8757 22.125 10.8757 22.0312 10.9694 21.9375H10.8757C10.9694 21.9375 10.9694 21.8437 11.0632 21.8437C11.5319 22.0312 12.1882 22.125 12.6569 22.125C14.6257 21.9375 16.3132 21.4688 18.1882 20.625V21C17.9069 21.2812 17.6257 21.375 17.3444 21.4687C17.1569 22.0312 17.1569 22.5 17.1569 22.9688C17.3444 22.9688 17.5319 22.875 17.8132 22.7812C16.5944 23.9062 13.5007 24.5625 12.7507 24.375C12.1882 24 11.8132 23.25 10.7819 22.125Z" fill="#63310F"/>
<path d="M17.1562 21.5625C17.0625 21.9375 16.9688 22.3125 16.9688 22.6875V22.7812C16.7812 22.875 16.6875 22.9688 16.5 22.9688C16.0312 23.1562 15.4687 23.3438 15 23.4375C14.7187 23.5312 14.25 23.625 13.875 23.5313C13.4062 23.4375 12.8438 23.1562 12.4688 22.9688C12.1875 22.7812 11.8125 22.6875 11.5312 22.5C11.9062 22.5938 12.375 22.5938 12.6562 22.5938C14.25 22.4063 15.6562 22.0312 17.1562 21.5625Z" fill="#792936"/>
<path d="M17.1562 21.5625C17.1562 21.75 17.0625 22.0313 16.9688 22.125C16.875 22.2188 16.5938 22.3125 16.5 22.4062C16.6875 22.4062 16.7813 22.5 16.875 22.6875C16.125 23.0625 14.0625 23.625 13.3125 23.5313C13.0313 23.4375 12.8438 23.4375 12.5625 23.3437C12.6562 23.25 13.4063 23.0625 13.5938 23.0625C13.125 23.0625 12.6563 22.9687 12.4688 22.875C12.375 22.7812 12.1875 22.6875 12.0938 22.5H12.75C14.25 22.4062 15.6562 22.0312 17.1562 21.5625Z" fill="url(#paint2_linear_52_74165)"/>
<path d="M17.0625 21.9375C17.0625 22.0312 16.9688 22.125 16.9688 22.2188C16.875 22.3125 16.5938 22.4063 16.5 22.5C16.6875 22.5 16.7813 22.5937 16.875 22.7812C16.2188 23.1562 14.8125 23.625 13.9687 23.625C13.7812 23.4375 13.5937 23.1562 13.5 22.7812L17.0625 21.9375Z" fill="url(#paint3_linear_52_74165)"/>
<path d="M9.0007 20.2493C9.84445 20.0618 10.6882 20.2493 11.2507 20.4368C12.0944 20.3431 12.4694 20.2493 13.0319 20.0618C14.2507 18.9368 13.5944 17.6243 12.6569 16.6868C12.2819 16.3118 11.7194 16.1243 11.1569 16.3118C9.7507 16.6868 8.71945 17.2493 8.34445 17.5306C8.2507 18.1868 8.15695 20.0618 9.0007 20.2493Z" fill="#343F3D"/>
<path d="M9.00089 20.2492C9.75089 20.1555 10.4071 20.2492 11.0634 20.4367C11.9071 20.2492 12.2821 20.1555 12.7509 19.8742C13.3134 19.0305 13.0321 17.718 12.1884 17.1555C11.3446 17.0617 9.09463 17.718 8.62588 18.3742C8.34463 19.0305 8.62588 19.8742 9.09463 20.2492H9.00089Z" fill="url(#paint4_linear_52_74165)"/>
<path d="M12.9377 18.1877C12.8439 17.8127 12.0939 16.9689 11.8127 16.7814C10.9689 16.6877 9.18766 16.9689 8.71891 17.5314C8.62516 17.8127 8.43766 19.0314 8.53141 19.2189C9.56266 19.9689 12.6564 19.5939 12.9377 18.2814V18.1877Z" fill="white"/>
<path d="M8.8125 18.1875C8.53125 18.5625 8.4375 18.9375 8.53125 19.3125C8.625 19.6875 8.8125 20.0625 9.09375 20.25C9.65625 20.25 10.2187 20.25 10.6875 20.3438C11.25 20.0625 11.5312 19.4063 11.4375 18.8438C11.3437 18.2813 10.7812 17.625 10.0312 17.625C9.46875 17.8125 9.09375 18 8.8125 18.1875Z" fill="#343F3D"/>
<path d="M9.75038 18.1882C9.28163 18.2819 9.00038 18.6569 9.09413 19.1257C9.18788 19.5944 9.56288 19.8757 10.0316 19.8757C10.5004 19.7819 10.7816 19.4069 10.6879 18.9382C10.6879 18.4694 10.2191 18.1882 9.75038 18.1882ZM16.5941 14.8132C16.3129 15.9382 16.6879 17.3444 17.3441 18.4694C18.0941 18.8444 19.7816 18.3757 20.4379 17.7194C20.6254 16.5007 20.0629 14.7194 19.1254 13.9694C18.1879 13.3132 16.8754 13.6882 16.5941 14.8132Z" fill="#343F3D"/>
<path d="M16.593 15.1872C16.3117 16.1247 16.593 17.8122 17.2492 18.7497C17.9992 18.7497 19.593 18.1872 19.968 17.6247C20.1555 16.5934 19.6867 15.0934 18.843 14.4372C18.093 13.8747 16.8742 14.1559 16.593 15.1872Z" fill="url(#paint5_linear_52_74165)"/>
<path d="M16.5946 15.4696C16.5008 15.9384 16.4071 16.2196 16.5946 16.8759C17.5321 17.8134 19.8758 17.4384 19.6883 15.4696C19.5008 15.0009 19.2196 14.6259 18.8446 14.3446C18.0946 13.8759 16.8758 14.5321 16.5946 15.4696Z" fill="white"/>
<path d="M17.4372 15.1866C16.5934 15.2804 16.3121 16.3116 16.4059 16.9679C16.4996 17.7179 17.1559 18.4679 17.9997 18.3741C18.8434 18.2804 19.1246 17.2491 19.0309 16.5929C18.8434 15.8429 18.2809 14.9991 17.4372 15.1866Z" fill="#343F3D"/>
<path d="M17.5318 15.8425C17.1568 15.9362 16.8756 16.405 16.9693 16.8737C17.0631 17.4362 17.4381 17.8112 17.9068 17.7175C18.2818 17.6237 18.5631 17.155 18.4693 16.6862C18.3756 16.1237 17.9068 15.7487 17.5318 15.8425Z" fill="#343F3D"/>
<path d="M17.2509 15.0006C16.8759 15.0943 16.5009 15.4693 16.5946 15.8443C16.6884 16.2193 17.0634 16.5006 17.4384 16.4068C17.8134 16.3131 18.1884 15.9381 18.0946 15.5631C18.0009 15.1881 17.6259 14.9068 17.2509 15.0006ZM9.09465 17.5318C8.71965 17.6256 8.34465 18.0006 8.4384 18.3756C8.53215 18.7506 8.90715 19.0318 9.28215 18.9381C9.65715 18.8443 10.0321 18.4693 9.9384 18.0943C9.9384 17.7193 9.5634 17.4381 9.09465 17.5318Z" fill="#FFFFFC"/>
<path d="M6.75 18.3742L7.6875 20.4367C10.9688 21.0929 14.7188 19.3117 14.7188 19.3117C14.8125 18.1867 14.1563 15.9367 14.1563 15.9367C10.5938 16.1242 6.75 18.3742 6.75 18.3742ZM7.40625 18.7492C7.40625 18.7492 10.7812 16.4054 13.7812 16.2179C13.7812 16.2179 14.3438 18.4679 14.25 19.4054C14.25 19.4054 11.0625 20.9992 8.25 20.5304L7.40625 18.7492ZM15.4688 15.7492L16.0313 18.6554C19.2188 19.1242 21.6563 17.1554 21.6563 17.1554C21.8438 16.2179 21.75 14.4367 21.75 14.4367C19.6875 13.8742 15.4688 15.7492 15.4688 15.7492ZM16.0313 16.4054C16.0313 16.4054 19.7813 13.9679 21.6563 14.2492C21.6563 14.2492 21.6562 16.4992 21.4688 17.3429C21.4688 17.3429 19.0313 19.1242 16.5 18.7492L16.0313 16.4054Z" fill="white"/>
<path d="M6.46875 18.1866L7.6875 20.5303C10.9687 21.1866 14.8125 19.3116 14.8125 19.3116C14.9062 18.1866 14.1563 15.6553 14.1563 15.6553C10.5 15.9366 6.46875 18.1866 6.46875 18.1866ZM7.21875 18.2803C7.21875 18.2803 10.6875 16.4053 13.6875 16.1241C13.6875 16.1241 14.25 18.1866 14.1563 19.0303C14.1563 19.0303 10.9687 20.6241 8.15625 20.1553L7.21875 18.2803ZM15.4688 15.3741L16.125 18.8428C19.3125 19.3116 21.8438 17.1553 21.8438 17.1553C22.0312 16.2178 21.9375 13.9678 21.9375 13.9678C19.6875 13.4991 15.4688 15.3741 15.4688 15.3741ZM15.9375 15.6553C15.9375 15.6553 19.6875 14.0616 21.5625 14.3428C21.5625 14.3428 21.5625 16.2178 21.375 16.9678C21.375 16.9678 18.9375 18.7491 16.3125 18.3741L15.9375 15.6553Z" fill="#343F3D"/>
<path d="M12.5625 14.7194L12.9375 14.4381C12.9375 14.4381 11.0625 12.6569 9.46875 13.8756C7.875 15.0944 7.78125 16.2194 7.78125 16.2194C7.78125 16.2194 9.75 13.0319 12.5625 14.7194Z" fill="url(#paint6_linear_52_74165)"/>
<path d="M19.7813 12.6569L20.1562 12.3756C20.1562 12.3756 18.2812 10.5944 16.6875 11.8131C15.0937 13.0319 15 14.1569 15 14.1569C15 14.1569 16.9688 10.9694 19.7813 12.6569Z" fill="url(#paint7_linear_52_74165)"/>
<path d="M21.2812 14.9062L19.9687 14.7188L19.875 14.4375C19.875 14.4375 20.625 14.25 21.0937 14.25L21.2812 14.9062Z" fill="#E8BD89"/>
<path d="M6.46875 20.7188C6.46875 20.7188 6.46875 22.3125 5.4375 22.875V23.0625L6.1875 23.1563C6.1875 23.1563 7.03125 22.5 6.46875 20.7188Z" fill="#8E4028"/>
<path d="M26.5312 1.6875L12.375 3.28125L16.0313 27.5625L29.7188 25.3125L26.5312 1.6875Z" fill="#8F672F"/>
<path d="M20.625 15.0938L15.4688 15.6563L16.875 24.4688L21.75 23.625L20.625 15.0938Z" fill="#9E7544"/>
<path d="M19.2187 14.4375L16.6875 14.7188C16.3125 14.7188 16.125 15.0938 16.125 15.375L16.7812 19.9687C16.875 20.25 17.1562 20.5312 17.4375 20.4375L19.9687 20.0625C20.25 19.9688 20.5312 19.6875 20.4375 19.4063L19.875 15C19.875 14.625 19.5 14.4375 19.2187 14.4375Z" fill="#C9D1CD"/>
<path d="M26.7188 14.25L21.6562 14.8125L22.9688 23.625L27.9375 22.7812L26.7188 14.25ZM19.3125 5.4375L14.1562 6L15.2812 13.7812L20.25 12.9375L19.3125 5.4375ZM25.4062 4.59375L20.25 5.15625L21.5625 13.875L26.5312 13.125L25.4062 4.59375Z" fill="#9E7544"/>
<path d="M14.343 23.6242L17.1555 23.1555C17.6242 23.0617 17.9992 22.6867 17.9992 22.218C17.9992 21.6555 17.6242 21.1867 17.0617 21.093L14.0617 20.718C13.3117 20.6242 12.7492 21.2805 12.9367 21.9367L13.218 22.968C13.4992 23.4367 13.8742 23.718 14.343 23.6242Z" fill="#8E4028"/>
<path d="M14.5305 25.3117L17.343 24.843C17.8117 24.7492 18.1867 24.3742 18.1867 23.9055C18.1867 23.343 17.8117 22.8742 17.2492 22.7805L14.2492 22.4055C13.4992 22.3117 12.9367 22.968 13.1242 23.6242L13.4055 24.6555C13.593 25.1242 14.0617 25.4055 14.5305 25.3117Z" fill="#8E4028"/>
<path d="M14.8117 27.1867L17.6242 26.718C18.093 26.6242 18.468 26.2492 18.468 25.7805C18.468 25.218 18.093 24.7492 17.5305 24.6555L14.5305 24.2805C13.7805 24.1867 13.218 24.843 13.4055 25.4992L13.6867 26.5305C13.8742 26.9992 14.343 27.2805 14.8117 27.1867Z" fill="#8E4028"/>
<path d="M14.5315 23.3443L16.6878 22.9693C17.0628 22.8756 17.344 22.5943 17.344 22.2193C17.344 21.7506 17.0628 21.3756 16.594 21.3756L14.2503 21.0943C13.6878 21.0006 13.219 21.5631 13.3128 22.0318C13.4065 22.3131 13.4065 22.5943 13.594 22.8756C13.7815 23.2506 14.1565 23.4381 14.5315 23.3443Z" fill="#FFD097"/>
<path d="M14.8128 25.1256L16.969 24.7506C17.344 24.6568 17.6253 24.3756 17.6253 24.0006C17.6253 23.5318 17.344 23.1568 16.8753 23.1568L14.5315 22.8756C13.969 22.7818 13.5003 23.3443 13.594 23.8131C13.6878 24.0943 13.6878 24.3756 13.8753 24.6568C14.0628 25.0318 14.4378 25.2193 14.8128 25.1256Z" fill="#FFD097"/>
<path d="M15.0003 26.9068L17.1565 26.5318C17.5315 26.4381 17.8128 26.1568 17.8128 25.7818C17.8128 25.3131 17.5315 24.9381 17.0628 24.9381L14.719 24.6568C14.1565 24.5631 13.6878 25.1256 13.7815 25.5943C13.8753 25.8756 13.8753 26.1568 14.0628 26.4381C14.344 26.7193 14.6253 27.0006 15.0003 26.9068Z" fill="#FFD097"/>
<path d="M17.2497 22.6875L13.5934 22.5C13.5934 22.5 13.3122 22.7813 13.6872 23.0625C14.0622 23.3438 16.7809 23.0625 16.7809 23.0625C16.7809 23.0625 17.1559 22.875 17.2497 22.6875ZM17.7184 24.375L14.0622 24.2812C14.0622 24.2812 13.7809 24.5625 14.1559 24.8438C14.5309 25.125 17.2497 24.8438 17.2497 24.8438C17.2497 24.8438 17.6247 24.5625 17.7184 24.375ZM17.7184 26.25L14.0622 26.0625C14.0622 26.0625 13.7809 26.3437 14.1559 26.625C14.5309 26.9062 17.2497 26.625 17.2497 26.625C17.2497 26.625 17.6247 26.4375 17.7184 26.25Z" fill="#D8B18B"/>
<path d="M13.7822 7.49922L16.9697 7.12422C17.5322 7.03047 17.9072 6.65547 18.001 6.18672C18.001 5.62422 17.626 5.15547 16.9697 5.06172L13.501 4.59297C12.6572 4.49922 12.001 5.15547 12.1885 5.81172C12.2822 6.18672 12.376 6.56172 12.5635 6.84297C12.751 7.31172 13.2197 7.49922 13.7822 7.49922Z" fill="#8E4028"/>
<path d="M14.1572 9.74922L17.3447 9.37422C17.9072 9.28047 18.2822 8.90547 18.376 8.43672C18.376 7.87422 18.001 7.40547 17.3447 7.31172L13.876 6.84297C13.0322 6.74922 12.376 7.40547 12.5635 8.06172C12.6572 8.43672 12.751 8.81172 12.9385 9.09297C13.126 9.56172 13.6885 9.84297 14.1572 9.74922Z" fill="#8E4028"/>
<path d="M14.5322 12.093L17.7197 11.718C18.2822 11.6242 18.6572 11.2492 18.751 10.7805C18.751 10.218 18.376 9.74922 17.7197 9.65547L14.251 9.18672C13.4072 9.09297 12.751 9.74922 12.9385 10.4055C13.0322 10.7805 13.126 11.1555 13.3135 11.4367C13.501 11.9055 14.0635 12.1867 14.5322 12.093Z" fill="#8E4028"/>
<path d="M13.9684 7.59428L16.3122 7.21928C16.6872 7.12553 17.0622 6.84428 17.0622 6.46928C17.0622 6.00053 16.7809 5.62553 16.3122 5.53178L13.7809 5.15678C13.2184 5.06303 12.6559 5.62553 12.8434 6.18803L13.1247 7.03178C13.2184 7.40678 13.5934 7.59428 13.9684 7.59428Z" fill="#FFD097"/>
<path d="M14.2497 9.46928L16.5934 9.09428C16.9684 9.00053 17.3434 8.71928 17.3434 8.34428C17.3434 7.87553 17.0622 7.50053 16.5934 7.40678L14.0622 7.03178C13.4997 6.93803 12.9372 7.50053 13.1247 8.06303L13.4059 8.90678C13.4997 9.28178 13.8747 9.56303 14.2497 9.46928Z" fill="#FFD097"/>
<path d="M14.5309 11.3443L16.8747 10.9693C17.2497 10.8755 17.6247 10.5943 17.6247 10.2193C17.6247 9.75053 17.3434 9.37553 16.8747 9.28178L14.3434 8.90678C13.7809 8.81303 13.2184 9.37553 13.4059 9.93803L13.6872 10.7818C13.7809 11.1568 14.1559 11.438 14.5309 11.3443Z" fill="#FFD097"/>
<path d="M17.6247 10.6875L13.7809 10.5C13.7809 10.5 13.4997 10.7812 13.8747 11.0625C14.2497 11.3438 17.1559 11.0625 17.1559 11.0625C17.1559 11.0625 17.4372 10.875 17.6247 10.6875ZM17.2497 8.8125L13.4059 8.625C13.4059 8.625 13.1247 8.90625 13.4997 9.1875C13.8747 9.46875 16.7809 9.1875 16.7809 9.1875C16.7809 9.1875 17.1559 9 17.2497 8.8125ZM16.8747 7.03125L13.0309 6.84375C13.0309 6.84375 12.7497 7.125 13.1247 7.40625C13.4997 7.6875 16.4059 7.40625 16.4059 7.40625C16.4059 7.40625 16.7809 7.21875 16.8747 7.03125Z" fill="#D8B18B"/>
<path d="M16.969 16.8752C16.8752 16.219 17.344 15.5627 18.0002 15.469C18.6565 15.3752 19.3127 15.844 19.4065 16.5002C19.5002 16.8752 18.9377 17.344 18.6565 17.6252L19.219 19.0315L17.8127 19.3127L17.9065 17.719C17.5315 17.5315 17.0627 17.344 16.969 16.8752Z" fill="#343F3D"/>
<path d="M12.8438 11.25L14.625 20.8125L15.2812 20.9062L13.9687 11.9062L12.8438 11.25Z" fill="#602718"/>
<path d="M26.5312 1.6875L26.7188 2.625L12.4688 4.21875L12.375 3.28125L26.5312 1.6875Z" fill="#9E7544"/>
</g>
<defs>
<linearGradient id="paint0_linear_52_74165" x1="18.9778" y1="6.90903" x2="2.77722" y2="8.55856" gradientUnits="userSpaceOnUse">
<stop stop-color="#F38C05"/>
<stop offset="1" stop-color="#B85A1B"/>
</linearGradient>
<linearGradient id="paint1_linear_52_74165" x1="7.425" y1="13.4232" x2="3.12843" y2="13.8607" gradientUnits="userSpaceOnUse">
<stop stop-color="#F38C05"/>
<stop offset="1" stop-color="#B85A1B"/>
</linearGradient>
<linearGradient id="paint2_linear_52_74165" x1="13.2359" y1="22.9179" x2="12.7246" y2="22.8847" gradientUnits="userSpaceOnUse">
<stop stop-color="#BDD6DE"/>
<stop offset="1" stop-color="white"/>
</linearGradient>
<linearGradient id="paint3_linear_52_74165" x1="14.5217" y1="23.0102" x2="13.722" y2="23.5356" gradientUnits="userSpaceOnUse">
<stop stop-color="white"/>
<stop offset="1" stop-color="#BDD6DE"/>
</linearGradient>
<linearGradient id="paint4_linear_52_74165" x1="11.138" y1="18.285" x2="11.3094" y2="19.1649" gradientUnits="userSpaceOnUse">
<stop stop-color="#BDD6DE"/>
<stop offset="1" stop-color="white"/>
</linearGradient>
<linearGradient id="paint5_linear_52_74165" x1="18.7378" y1="16.3956" x2="18.9799" y2="17.1954" gradientUnits="userSpaceOnUse">
<stop stop-color="#BDD6DE"/>
<stop offset="1" stop-color="white"/>
</linearGradient>
<linearGradient id="paint6_linear_52_74165" x1="13.4982" y1="14.1478" x2="8.21057" y2="14.6862" gradientUnits="userSpaceOnUse">
<stop stop-color="#F38C05"/>
<stop offset="1" stop-color="#B85A1B"/>
</linearGradient>
<linearGradient id="paint7_linear_52_74165" x1="20.7529" y1="12.1324" x2="15.4645" y2="12.6709" gradientUnits="userSpaceOnUse">
<stop stop-color="#F38C05"/>
<stop offset="1" stop-color="#B85A1B"/>
</linearGradient>
<clipPath id="clip0_52_74165">
<rect width="30" height="30" fill="white"/>
</clipPath>
</defs>
</svg>
