<svg width="20" height="20" viewBox="0 0 20 20" fill="none" xmlns="http://www.w3.org/2000/svg">
<path d="M20 19.2402C20 19.6502 19.66 19.9902 19.25 19.9902H0.75C0.34 19.9902 0 19.6502 0 19.2402C0 18.8302 0.34 18.4902 0.75 18.4902H19.25C19.66 18.4902 20 18.8302 20 19.2402Z" fill="white" fill-opacity="0.6"/>
<path d="M13.3895 2.51L2.64945 13.25C2.23945 13.66 1.57945 13.66 1.17945 13.25H1.16945C-0.220547 11.85 -0.220547 9.59 1.16945 8.2L8.31945 1.05C9.71945 -0.35 11.9795 -0.35 13.3795 1.05C13.7895 1.44 13.7895 2.11 13.3895 2.51Z" fill="white" fill-opacity="0.6"/>
<path d="M18.8195 6.48055L15.7695 3.43055C15.3595 3.02055 14.6995 3.02055 14.2995 3.43055L3.55945 14.1705C3.14945 14.5705 3.14945 15.2305 3.55945 15.6405L6.60945 18.7005C8.00945 20.0905 10.2695 20.0905 11.6695 18.7005L18.8095 11.5505C20.2295 10.1505 20.2295 7.88055 18.8195 6.48055ZM10.7595 15.5105L9.54945 16.7305C9.29945 16.9805 8.88945 16.9805 8.62945 16.7305C8.37945 16.4805 8.37945 16.0705 8.62945 15.8105L9.84945 14.5905C10.0895 14.3505 10.5095 14.3505 10.7595 14.5905C11.0095 14.8405 11.0095 15.2705 10.7595 15.5105ZM14.7295 11.5405L12.2895 13.9905C12.0395 14.2305 11.6295 14.2305 11.3695 13.9905C11.1195 13.7405 11.1195 13.3305 11.3695 13.0705L13.8195 10.6205C14.0595 10.3805 14.4795 10.3805 14.7295 10.6205C14.9795 10.8805 14.9795 11.2905 14.7295 11.5405Z" fill="white" fill-opacity="0.6"/>
</svg>
