<svg width="30" height="30" viewBox="0 0 30 30" fill="none" xmlns="http://www.w3.org/2000/svg">
<g clip-path="url(#clip0_52_64330)">
<path d="M5.25 10.7813C5.25 10.7813 6.375 17.1563 5.34375 20.25L8.90625 18L8.4375 12.6563L5.25 10.7813ZM23.25 22.0312C23.25 22.0312 27 12.9375 22.7812 5.8125L19.125 12L19.5937 19.7813L23.25 22.0312Z" fill="#77315B"/>
<path d="M19.6881 17.9062C21.4693 18.4688 23.1568 19.9688 23.7193 22.125C24.2818 24.2812 23.5318 26.9062 21.8443 28.125C20.7193 28.9688 19.4068 29.1562 18.1881 29.1562C15.0943 29.1562 12.0943 28.125 9.0006 27.0937C7.96935 26.7187 6.9381 26.4375 6.0006 25.6875C5.0631 25.0312 4.3131 24 4.21935 22.7812C4.03185 21.0937 5.0631 19.4062 6.3756 18.5625C8.6256 17.1562 10.9693 16.5 13.3131 16.5C15.2818 16.5 17.7193 17.25 19.6881 17.9062Z" fill="#77315B"/>
<path d="M21.9375 6.1875C21.9375 6.1875 26.5312 13.9688 21.4688 18.9375L17.7188 16.9688L21.9375 6.1875Z" fill="#425763"/>
<path d="M19.8756 16.7812C21.6568 17.3438 23.3443 18.8438 23.9068 21C24.4693 23.1562 23.7193 25.7812 22.0318 27C20.9068 27.8438 19.5943 28.0312 18.3756 28.0312C15.2818 28.0312 12.2818 27 9.1881 25.9688C8.15685 25.5938 7.1256 25.3125 6.1881 24.5625C5.2506 23.9063 4.5006 22.875 4.40685 21.6563C4.21935 19.9688 5.2506 18.2813 6.5631 17.4375C8.8131 16.0313 11.1568 15.375 13.5006 15.375C15.4693 15.4688 18.0006 16.125 19.8756 16.7812Z" fill="#B74F88"/>
<path d="M19.5943 15.4688C21.2818 16.0312 21.938 18.1875 22.5005 20.25C23.063 22.4062 23.2505 24.4687 21.6568 25.5937C20.6255 26.4375 19.4068 26.625 18.188 26.625C15.2818 26.625 12.3755 25.5938 9.56301 24.5625C8.62551 24.1875 7.59426 23.9063 6.75051 23.1563C5.81301 22.5 5.06301 21.5625 4.96926 20.3438C4.78176 18.6563 5.71926 16.9688 6.93801 16.125C9.00051 14.7188 11.2505 14.0625 13.5005 14.0625C15.3755 14.1562 17.7193 14.8125 19.5943 15.4688Z" fill="#D19780"/>
<path opacity="0.28" d="M20.8162 22.8926C21.4232 21.0211 20.8772 19.1673 19.5967 18.752C18.3162 18.3367 16.7861 19.5172 16.1791 21.3887C15.5721 23.2602 16.1181 25.114 17.3986 25.5293C18.6791 25.9446 20.2092 24.7641 20.8162 22.8926Z" fill="white"/>
<path d="M9.93685 16.9688C9.93685 16.9688 10.4056 23.8125 14.1556 26.25C14.1556 26.25 8.9056 25.4063 7.87435 24.0938C6.8431 22.7813 5.24935 22.2187 5.62435 19.125C5.62435 19.125 5.99935 16.3125 8.5306 15.5625L9.93685 16.9688Z" fill="#5077B5"/>
<path d="M8.43685 16.4062C8.43685 16.4062 7.49935 24.4688 13.4056 26.25C13.4056 26.25 8.1556 25.4063 7.12435 24.0938C6.0931 22.7813 4.49935 22.2187 4.87435 19.125C4.87435 19.125 5.24935 16.3125 7.7806 15.5625L8.43685 16.4062Z" fill="#B74F88"/>
<path d="M10.9688 22.7812C10.9688 22.7812 15.6562 24.9375 19.125 24.1875C22.5938 23.4375 23.25 19.3125 23.25 19.3125C23.25 19.3125 24.375 24.2812 21.4688 25.875C18.5625 27.5625 13.125 25.9688 13.125 25.9688L10.9688 22.7812Z" fill="#5077B5"/>
<path d="M6.375 16.4062C6.375 16.4062 7.03125 23.4375 9.75 26.0625C9.75 26.0625 6.84375 25.6875 6.1875 24.5625L4.78125 19.5C4.78125 19.4062 4.875 17.9062 6.375 16.4062Z" fill="#CEB46B"/>
<path d="M17.4378 16.9688C17.4378 16.9688 18.1878 20.4375 15.6566 21.75C13.1253 22.9688 16.3128 28.5938 16.3128 28.5938C16.3128 28.5938 16.1253 24.9375 17.0628 24.2812C18.0003 23.625 24.8441 20.4375 21.0003 14.8125C21.0003 14.8125 17.5316 16.2188 17.4378 16.9688Z" fill="#425763"/>
<path d="M22.8799 9.85361C22.8978 4.93482 18.9247 0.932907 14.0059 0.915084C9.08716 0.897261 5.08525 4.87028 5.06743 9.78906C5.0496 14.7078 9.02262 18.7098 13.9414 18.7276C18.8602 18.7454 22.8621 14.7724 22.8799 9.85361Z" fill="#A67A65"/>
<path d="M22.4632 9.17774C22.4807 4.36251 18.6333 0.444997 13.8698 0.427737C9.10637 0.410477 5.23068 4.3 5.21323 9.11523C5.19578 13.9305 9.04318 17.848 13.8066 17.8652C18.5701 17.8825 22.4458 13.993 22.4632 9.17774Z" fill="#E5A98C"/>
<path d="M22.4287 8.93929C22.4454 4.33116 18.8492 0.582457 14.3964 0.566322C9.94361 0.550187 6.32037 4.27273 6.30367 8.88086C6.28697 13.489 9.88314 17.2377 14.3359 17.2538C18.7887 17.27 22.412 13.5474 22.4287 8.93929Z" fill="#E5A98C"/>
<path d="M18.026 10.0975C18.0382 6.732 15.4037 3.99416 12.1418 3.98234C8.87989 3.97052 6.22568 6.6892 6.21349 10.0547C6.20129 13.4202 8.83572 16.158 12.0977 16.1698C15.3596 16.1817 18.0138 13.463 18.026 10.0975Z" fill="#E8CCAA"/>
<path d="M14.9429 10.6682C14.9447 10.1505 14.5685 9.72936 14.1025 9.72767C13.6365 9.72598 13.2572 10.1443 13.2554 10.6621C13.2535 11.1799 13.6297 11.601 14.0957 11.6027C14.5617 11.6044 14.941 11.186 14.9429 10.6682Z" fill="#425763"/>
<path d="M14.4639 10.3627C14.4645 10.2074 14.381 10.0811 14.2774 10.0808C14.1739 10.0804 14.0895 10.206 14.0889 10.3613C14.0883 10.5167 14.1718 10.6429 14.2754 10.6433C14.3789 10.6436 14.4633 10.518 14.4639 10.3627Z" fill="white"/>
<path d="M8.54246 9.33424C8.54434 8.81647 8.1681 8.39537 7.70211 8.39368C7.23612 8.39199 6.85684 8.81036 6.85496 9.32812C6.85308 9.84589 7.22932 10.267 7.69531 10.2687C8.1613 10.2704 8.54058 9.85201 8.54246 9.33424Z" fill="#425763"/>
<path d="M11.9207 7.68835C11.9222 7.27414 11.6296 6.93729 11.2672 6.93597C10.9047 6.93466 10.6097 7.26938 10.6082 7.68359C10.6067 8.09781 10.8993 8.43466 11.2617 8.43597C11.6242 8.43728 11.9192 8.10256 11.9207 7.68835Z" fill="#B74F88"/>
<path d="M8.06547 8.93495C8.06604 8.77962 7.98255 8.6534 7.87899 8.65302C7.77544 8.65265 7.69104 8.77826 7.69047 8.93359C7.68991 9.08892 7.7734 9.21515 7.87695 9.21552C7.98051 9.2159 8.06491 9.09028 8.06547 8.93495Z" fill="white"/>
<path d="M12.375 14.7188C12.375 14.7188 11.5313 14.625 10.9688 14.1563C10.4063 13.6875 9.84375 13.7813 9.75 13.7813C9.65625 13.7813 9.46875 13.5938 9.28125 13.5C9.09375 13.4063 8.8125 13.4063 8.8125 13.5C8.8125 13.5938 9.09375 14.0625 9.09375 14.0625V14.625C9.09375 14.8125 9.09375 15.375 9.75 15.5625C10.4062 15.75 10.7813 15.6563 11.0625 15.4688C11.25 15.375 12.375 14.7188 12.375 14.7188Z" fill="#A67A65"/>
<path d="M12.8444 3.75047C12.8444 3.75047 11.6257 6.84422 13.5007 8.15672C15.3757 9.46922 22.0319 12.3755 20.7194 15.8442C20.7194 15.8442 26.7194 8.90672 21.6569 3.75047C15.2819 -2.90578 12.9382 3.37547 12.8444 3.75047Z" fill="#425763"/>
<path d="M5.25006 10.3133C5.25006 10.3133 5.62506 6.65706 6.75006 6.28206C7.87506 5.90706 10.9688 7.03206 12.6563 5.90706C12.6563 5.90706 16.5938 1.59456 15.7501 0.750814C15.0001 0.000813723 11.6251 0.188314 9.46881 1.40706C7.31256 2.62581 4.59381 5.71956 5.25006 10.3133Z" fill="#425763"/>
<path d="M15.6563 3.37435C15.6563 3.37435 13.9688 5.3431 15.5625 6.93685C17.1563 8.5306 21 9.6556 22.0312 11.6243C21.9375 11.6243 22.5938 4.12435 15.6563 3.37435ZM13.6875 2.1556C13.6875 2.1556 13.125 4.68685 11.8125 4.9681C10.5 5.24935 6.75 5.5306 6.75 5.5306C6.75 5.5306 10.3125 1.4056 13.6875 2.1556Z" fill="#5E6D72"/>
<path d="M7.875 2.34398C7.875 2.34398 21.2812 0.750235 23.8125 8.90648C23.8125 8.90648 24.0938 1.96898 16.0313 0.281484C11.1563 -0.843516 7.875 2.34398 7.875 2.34398Z" fill="#B74F88"/>
<path d="M14.4375 27.5625L14.0625 27.9375L15.6563 29.0625L24.2812 20.4375L22.875 18.6562L14.4375 27.5625Z" fill="#9A4C18"/>
<path d="M24.4692 22.8757C24.1879 26.2507 21.0004 29.1569 17.5317 29.1569C14.0629 29.1569 11.8129 26.2507 12.4692 22.9694C13.1254 19.8757 16.0317 17.4382 19.2192 17.3444C22.3129 17.2507 24.6567 19.6882 24.4692 22.8757Z" fill="#9A4C18"/>
<path d="M25.3128 23.907C25.0316 27.1883 21.9378 29.907 18.4691 29.907C15.0941 29.907 12.9378 27.0945 13.5941 24.0008C14.1566 21.0008 17.0628 18.7508 20.1566 18.657C23.2503 18.5633 25.5941 20.907 25.3128 23.907Z" fill="#9A4C18"/>
<path d="M15.375 27.75L16.875 28.5938L23.9062 21.1875L22.7812 19.5938L15.375 27.75Z" fill="#F49937"/>
<path d="M24.6564 23.9992C24.3752 26.8117 21.8439 29.0617 18.9377 29.0617C16.1252 29.0617 14.2502 26.7179 14.8127 23.9992C15.2814 21.4679 17.7189 19.4054 20.3439 19.4054C22.8752 19.3117 24.8439 21.3742 24.6564 23.9992Z" fill="#F49937"/>
<path d="M23.719 22.875C23.4377 25.875 20.719 28.3125 17.6252 28.3125C14.6252 28.3125 12.6565 25.7812 13.219 22.875C13.7815 20.1562 16.4065 18 19.1252 17.9062C21.844 17.9062 23.9065 20.0625 23.719 22.875Z" fill="#FFEDC0"/>
<path d="M23.2502 23.0625C22.9689 25.875 20.4377 28.125 17.5314 28.125C14.7189 28.125 12.8439 25.7812 13.4064 23.0625C13.8752 20.5312 16.3127 18.4688 18.9377 18.4688C21.5627 18.4688 23.5314 20.4375 23.2502 23.0625Z" fill="#FFD766"/>
<path d="M22.2189 23.0625C22.0314 25.2188 19.9689 27 17.8126 27C15.6564 27 14.1564 25.2188 14.6251 23.1563C15.0001 21.0938 16.8751 19.5 18.9376 19.5C20.9064 19.4063 22.4064 21 22.2189 23.0625Z" fill="#FFEDC0"/>
<path d="M22.2187 22.5C22.0312 24.6562 20.0624 26.3437 17.8124 26.3437C15.6562 26.3437 14.2499 24.5625 14.6249 22.5C14.9999 20.5312 16.8749 18.9375 18.9374 18.9375C20.9999 18.9375 22.4062 20.5312 22.2187 22.5Z" fill="#F49937"/>
<path d="M21.5624 23.0625C21.3749 24.8438 19.6874 26.3438 17.8124 26.3438C15.9374 26.3438 14.8124 24.8438 15.0936 23.0625C15.3749 21.375 16.9686 19.9688 18.7499 19.9688C20.5311 19.9688 21.7499 21.375 21.5624 23.0625Z" fill="#FFD766"/>
<path d="M19.3125 19.6875L19.7812 21.6563L21.9375 22.125L19.9687 23.5313L19.7812 25.6875L18 24.4688L15.75 25.2187L16.6875 23.1563L15.5625 21.4687L17.8125 21.375L19.3125 19.6875Z" fill="#F49937"/>
</g>
<defs>
<clipPath id="clip0_52_64330">
<rect width="30" height="30" fill="white"/>
</clipPath>
</defs>
</svg>
