<svg width="22" height="22" viewBox="0 0 22 22" fill="none" xmlns="http://www.w3.org/2000/svg">
<path d="M5.76395 0H3.67397C1.26499 0 0 1.26499 0 3.66297V5.75295C0 8.15093 1.26499 9.41592 3.66297 9.41592H5.75295C8.15093 9.41592 9.41592 8.15093 9.41592 5.75295V3.66297C9.42692 1.26499 8.16193 0 5.76395 0Z" fill="#15161E"/>
<path d="M18.3373 0H16.2473C13.8494 0 12.5844 1.26499 12.5844 3.66297V5.75295C12.5844 8.15093 13.8494 9.41592 16.2473 9.41592H18.3373C20.7353 9.41592 22.0003 8.15093 22.0003 5.75295V3.66297C22.0003 1.26499 20.7353 0 18.3373 0Z" fill="#15161E"/>
<path d="M18.3373 12.5726H16.2473C13.8494 12.5726 12.5844 13.8375 12.5844 16.2355V18.3255C12.5844 20.7235 13.8494 21.9885 16.2473 21.9885H18.3373C20.7353 21.9885 22.0003 20.7235 22.0003 18.3255V16.2355C22.0003 13.8375 20.7353 12.5726 18.3373 12.5726Z" fill="#15161E"/>
<path d="M5.76395 12.5726H3.67397C1.26499 12.5726 0 13.8375 0 16.2355V18.3255C0 20.7345 1.26499 21.9995 3.66297 21.9995H5.75295C8.15093 21.9995 9.41592 20.7345 9.41592 18.3365V16.2465C9.42692 13.8375 8.16193 12.5726 5.76395 12.5726Z" fill="#15161E"/>
</svg>
