<svg width="22" height="22" viewBox="0 0 22 22" fill="none" xmlns="http://www.w3.org/2000/svg">
<path d="M2.2748 10.2022C2.2748 9.77831 1.92568 9.43472 1.49502 9.43472C1.06437 9.43472 0.715248 9.77831 0.715248 10.2022H2.2748ZM20.9582 10.2022C20.9582 9.77831 20.6091 9.43472 20.1785 9.43472C19.7478 9.43472 19.3987 9.77831 19.3987 10.2022H20.9582ZM0.715248 10.2022V14.7965H2.2748V10.2022H0.715248ZM0.715248 14.7965C0.715248 17.1698 1.1939 19.0312 2.4629 20.2802C3.73191 21.529 5.62328 22.0001 8.03474 22.0001V20.4653C5.77795 20.4653 4.39946 20.0154 3.56567 19.1948C2.73188 18.3743 2.2748 17.0176 2.2748 14.7965H0.715248ZM8.03474 22.0001H13.6387V20.4653H8.03474V22.0001ZM13.6387 22.0001C16.0502 22.0001 17.9415 21.529 19.2106 20.2802C20.4796 19.0312 20.9582 17.1698 20.9582 14.7965H19.3987C19.3987 17.0176 18.9416 18.3743 18.1078 19.1948C17.274 20.0154 15.8955 20.4653 13.6387 20.4653V22.0001ZM20.9582 14.7965V10.2022H19.3987V14.7965H20.9582Z" fill="#93989A"/>
<path d="M13.9612 7.6027L14.7373 7.52757L14.7372 7.52724L13.9612 7.6027ZM13.275 0.767432L14.051 0.691976C14.0116 0.29927 13.676 0 13.275 0V0.767432ZM8.41963 0.767432V0C8.01911 0 7.68372 0.298629 7.64375 0.690844L8.41963 0.767432ZM7.72303 7.6027L6.94715 7.52611L6.947 7.52757L7.72303 7.6027ZM10.8421 11.7673C13.2074 11.7673 14.9694 9.84972 14.7373 7.52757L13.1852 7.67782C13.3274 9.10074 12.2822 10.2324 10.8421 10.2324V11.7673ZM14.7372 7.52724L14.051 0.691976L12.499 0.842889L13.1852 7.67815L14.7372 7.52724ZM13.275 0H8.41963V1.53486H13.275V0ZM7.64375 0.690844L6.94715 7.52611L8.49892 7.67929L9.19552 0.844021L7.64375 0.690844ZM6.947 7.52757C6.71492 9.84972 8.47687 11.7673 10.8421 11.7673V10.2324C9.40209 10.2324 8.35685 9.10074 8.49906 7.67782L6.947 7.52757Z" fill="#93989A"/>
<path d="M20.8337 7.26503L21.6097 7.18904L21.6095 7.18729L20.8337 7.26503ZM20.5426 4.45111L21.3184 4.37337C21.3174 4.36418 21.3163 4.355 21.315 4.34586L20.5426 4.45111ZM13.2335 0.767432V0C13.0132 0 12.8032 0.091702 12.6554 0.252441C12.5076 0.413179 12.4357 0.627957 12.4576 0.843687L13.2335 0.767432ZM13.9613 7.94037L13.1854 8.01662L13.1856 8.01902L13.9613 7.94037ZM17.4027 11.7673C19.9657 11.7673 21.8631 9.69587 21.6097 7.18904L20.0578 7.34101C20.2202 8.94763 19.0402 10.2324 17.4027 10.2324V11.7673ZM21.6095 7.18729L21.3184 4.37337L19.7668 4.52884L20.058 7.34276L21.6095 7.18729ZM21.315 4.34586C21.1199 2.9593 20.7321 1.81895 19.8838 1.04787C19.0254 0.267449 17.8465 0 16.4046 0V1.53486C17.6867 1.53486 18.3897 1.77904 18.8257 2.17534C19.2719 2.581 19.591 3.28248 19.7702 4.55636L21.315 4.34586ZM16.4046 0H13.2335V1.53486H16.4046V0ZM12.4576 0.843687L13.1854 8.01662L14.7372 7.86411L14.0094 0.691178L12.4576 0.843687ZM13.1856 8.01902C13.4034 10.0988 15.2876 11.7673 17.4027 11.7673V10.2324C16.0868 10.2324 14.8727 9.15861 14.737 7.86171L13.1856 8.01902Z" fill="#93989A"/>
<path d="M7.66068 7.94037L6.88474 7.86435L6.88455 7.86629L7.66068 7.94037ZM7.88942 5.679L7.11351 5.60263L7.11347 5.60298L7.88942 5.679ZM8.38848 0.767432L9.16438 0.843795C9.1863 0.628049 9.11447 0.413244 8.96665 0.252481C8.81881 0.0917184 8.60878 0 8.38848 0V0.767432ZM1.07937 4.45111L0.306968 4.34586C0.305552 4.35592 0.304339 4.366 0.30333 4.37612L1.07937 4.45111ZM0.798656 7.26503L1.5746 7.34101L1.5747 7.34001L0.798656 7.26503ZM4.22967 11.7673C6.34378 11.7673 8.23143 10.0989 8.43682 8.01444L6.88455 7.86629C6.75723 9.15851 5.54657 10.2324 4.22967 10.2324V11.7673ZM8.43663 8.01638L8.66536 5.75502L7.11347 5.60298L6.88474 7.86435L8.43663 8.01638ZM8.66532 5.75536L9.16438 0.843795L7.61257 0.69107L7.11351 5.60263L8.66532 5.75536ZM8.38848 0H5.21739V1.53486H8.38848V0ZM5.21739 0C3.7755 0 2.59662 0.267449 1.73814 1.04787C0.88993 1.81895 0.502039 2.9593 0.306968 4.34586L1.85178 4.55636C2.031 3.28248 2.35011 2.581 2.79633 2.17534C3.23228 1.77904 3.93525 1.53486 5.21739 1.53486V0ZM0.30333 4.37612L0.022611 7.19004L1.5747 7.34001L1.85542 4.52609L0.30333 4.37612ZM0.0227118 7.18904C-0.230736 9.69587 1.66672 11.7673 4.22967 11.7673V10.2324C2.59222 10.2324 1.41217 8.94763 1.5746 7.34101L0.0227118 7.18904Z" fill="#93989A"/>
<path d="M8.24341 21.2321H7.46363C7.46363 21.656 7.81275 21.9996 8.24341 21.9996V21.2321ZM13.4419 21.2321V21.9996C13.8726 21.9996 14.2217 21.656 14.2217 21.2321H13.4419ZM10.8427 15.3485C9.85549 15.3485 8.97171 15.5903 8.34054 16.2115C7.70936 16.8327 7.46363 17.7025 7.46363 18.674H9.02318C9.02318 17.9367 9.20893 17.5275 9.4433 17.2968C9.67767 17.0662 10.0935 16.8833 10.8427 16.8833V15.3485ZM7.46363 18.674V21.2321H9.02318V18.674H7.46363ZM8.24341 21.9996H13.4419V20.4647H8.24341V21.9996ZM14.2217 21.2321V18.674H12.6621V21.2321H14.2217ZM14.2217 18.674C14.2217 17.7025 13.976 16.8327 13.3448 16.2115C12.7136 15.5903 11.8298 15.3485 10.8427 15.3485V16.8833C11.5918 16.8833 12.0076 17.0662 12.242 17.2968C12.4764 17.5275 12.6621 17.9367 12.6621 18.674H14.2217Z" fill="#93989A"/>
</svg>
