<svg width="30" height="30" viewBox="0 0 30 30" fill="none" xmlns="http://www.w3.org/2000/svg">
<g clip-path="url(#clip0_52_68253)">
<path d="M22.5 18.75C22.5 18.75 24.4688 14.0625 23.9063 9.375L18.6562 16.4062L22.5 18.75Z" fill="#807CA5"/>
<path d="M21.2803 18C23.249 18.6562 25.0303 20.25 25.5928 22.5C26.249 24.8437 25.3115 27.5625 23.624 28.875C22.499 29.8125 21.0928 30 19.6865 30C16.4053 30 13.124 28.875 9.84278 27.75C8.71778 27.375 7.59278 27 6.65528 26.25C5.71778 25.5 4.87403 24.4688 4.68653 23.1562C4.49903 21.4688 5.62404 19.6875 6.93654 18.75C9.37403 17.1562 11.8115 16.5938 14.3428 16.5938C16.5928 16.5938 19.2178 17.3438 21.2803 18Z" fill="#8EA8AF"/>
<path d="M21.0006 16.5938C22.7818 17.25 24.4693 18.8437 25.0318 21.0937C25.5943 23.4375 24.8443 26.1562 23.1568 27.4687C22.0318 28.3125 20.7193 28.5 19.4068 28.5938C16.3131 28.5938 13.2193 27.4688 10.1256 26.3438C9.09435 25.9688 8.0631 25.5938 7.1256 24.8438C6.1881 24.0938 5.4381 23.0625 5.34435 21.75C5.15685 19.9688 6.1881 18.1875 7.5006 17.25C9.7506 15.6562 12.0943 15.0938 14.5318 15.0938C16.5006 15.1875 19.0318 15.9375 21.0006 16.5938Z" fill="#D3DEE2"/>
<path d="M17.8122 17.625C17.8122 17.625 13.8747 19.2187 11.0622 23.7187C11.0622 23.7187 10.031 19.875 10.6872 17.0625C10.5935 17.0625 14.6247 18.8437 17.8122 17.625Z" fill="white"/>
<path d="M12 27L13.9687 21.0937L15.4688 20.8125L12.9375 27.2812L12 27ZM7.96875 25.5L9.09375 19.125L10.6875 18.8438L8.71875 25.9688L7.96875 25.5Z" fill="#BDD1D6"/>
<path d="M14.1562 20.9062L12.2812 27.0937C12.2812 27.0937 9.65625 26.4375 8.53125 25.6875L9.46875 19.4062C9.5625 19.4062 12.8438 21.0937 14.1562 20.9062Z" fill="#FCFCFC"/>
<path d="M15.6562 20.7187C15.6562 20.7187 20.8125 20.7187 23.4375 21.4687C23.4375 21.4687 25.125 21.1875 24.6562 20.0625C24.1875 18.9375 23.1562 17.4375 21.2812 16.5938C21.375 16.5938 17.5312 20.5312 15.6562 20.7187Z" fill="#807CA5"/>
<path d="M23.6243 7.5C23.6243 7.5 25.593 15.5625 18.1868 20.0625C18.1868 20.0625 15.093 21.5625 12.2805 21.0938C9.46801 20.625 7.87426 18.2812 8.71801 16.3125L13.0305 9.9375L23.6243 7.5Z" fill="#6A648E"/>
<path d="M9.28085 18.4688C9.28085 18.4688 4.96835 15.8438 5.6246 9.1875L10.8746 10.2187L9.28085 18.4688Z" fill="#6A648E"/>
<path opacity="0.28" d="M22.0482 25.3442C22.5593 23.7682 21.8558 22.128 20.4768 21.6807C19.0978 21.2335 17.5655 22.1485 17.0544 23.7245C16.5433 25.3005 17.2468 26.9407 18.6258 27.3879C20.0048 27.8352 21.5371 26.9202 22.0482 25.3442Z" fill="white"/>
<path d="M24 9.9375C24 15.0938 19.9687 19.2188 14.8125 19.2188C9.65625 19.2188 5.625 15 5.625 9.84375C5.625 4.6875 9.84375 0.5625 14.9062 0.5625C19.9687 0.5625 24.0938 4.78125 24 9.9375Z" fill="#E5A98C"/>
<path d="M23.9795 9.64649C23.9974 4.7277 20.1503 0.726247 15.3868 0.708987C10.6234 0.691727 6.74736 4.6652 6.72954 9.58398C6.71171 14.5028 10.5588 18.5042 15.3223 18.5215C20.0857 18.5387 23.9617 14.5653 23.9795 9.64649Z" fill="#E8CCAA"/>
<path d="M19.2461 10.8209C19.259 7.24832 16.4573 4.34197 12.9883 4.3294C9.51925 4.31683 6.69654 7.2028 6.6836 10.7754C6.67065 14.348 9.47237 17.2543 12.9414 17.2669C16.4104 17.2795 19.2332 14.3935 19.2461 10.8209Z" fill="#FAEACF"/>
<path d="M15.9744 11.5784C15.9765 11.0088 15.6004 10.5458 15.1344 10.5441C14.6684 10.5424 14.289 11.0027 14.2869 11.5723C14.2849 12.1418 14.661 12.6049 15.127 12.6066C15.5929 12.6083 15.9724 12.1479 15.9744 11.5784Z" fill="#425763"/>
<path d="M15.4346 11.1635C15.4352 11.0081 15.3517 10.8819 15.2481 10.8815C15.1446 10.8812 15.0602 11.0068 15.0596 11.1621C15.0591 11.3174 15.1425 11.4437 15.2461 11.444C15.3496 11.4444 15.4341 11.3188 15.4346 11.1635Z" fill="white"/>
<path d="M9.12874 10.0667C9.1308 9.49712 8.75471 9.03404 8.28872 9.03235C7.82273 9.03067 7.4433 9.491 7.44124 10.0605C7.43917 10.6301 7.81526 11.0932 8.28125 11.0949C8.74724 11.0965 9.12667 10.6362 9.12874 10.0667Z" fill="#425763"/>
<path d="M8.58891 9.65175C8.58947 9.49642 8.50598 9.37019 8.40243 9.36982C8.29888 9.36944 8.21447 9.49506 8.21391 9.65039C8.21335 9.80572 8.29684 9.93194 8.40039 9.93232C8.50394 9.9327 8.58835 9.80708 8.58891 9.65175Z" fill="white"/>
<path d="M13.2182 15.8437C13.2182 15.8437 12.3744 15.75 11.7182 15.2812C11.0619 14.8125 10.4994 14.9062 10.4057 14.9062C10.3119 14.9062 10.1244 14.7188 9.93692 14.625C9.74942 14.5313 9.46817 14.5313 9.37442 14.625C9.28067 14.7188 9.65567 15.1875 9.65567 15.1875C9.65567 15.1875 9.74942 15.5625 9.65567 15.75C9.56192 15.9375 9.65567 16.5937 10.3119 16.7812C10.9682 16.9687 11.4369 16.875 11.7182 16.6875C11.9994 16.5937 13.2182 15.8437 13.2182 15.8437Z" fill="#A67A65"/>
<path d="M22.2188 13.4058C22.2188 13.4058 19.125 9.37456 11.25 7.96831C11.25 7.96831 7.03125 7.31206 5.625 10.2183C5.625 10.2183 6 -0.750439 16.6875 1.87456C25.2188 3.93706 25.0312 12.1871 22.3125 14.7183C22.2188 14.6246 22.7812 14.8121 22.2188 13.4058Z" fill="#D3DEE2"/>
<path d="M21.6563 11.2491C21.6563 11.2491 18.375 6.18658 12.0938 6.18658C12.0938 6.18658 7.21875 5.90533 5.71875 8.81158C5.71875 8.81158 6.84375 -1.59467 17.1562 0.467827C25.875 2.24908 24.9375 12.8428 22.0312 15.4678C22.125 15.4678 22.2188 12.6553 21.6563 11.2491Z" fill="#6A648E"/>
<path d="M17.2507 2.0619C19.6882 2.9994 23.0632 5.2494 23.0632 10.4056C23.0632 10.4056 20.7195 6.5619 18.0945 5.8119C17.3445 5.6244 16.6882 5.34315 16.032 5.0619C14.0632 4.21815 15.282 1.3119 17.2507 2.0619Z" fill="#807CA5"/>
<path d="M20.7188 10.0317C20.7188 10.0317 23.3437 16.7817 15.4688 19.9692C15.4688 19.9692 22.875 18.8442 23.9062 11.2505C24 11.2505 22.6875 9.4692 20.7188 10.0317ZM7.40625 16.5942C7.40625 16.5942 8.90625 23.438 11.4375 23.7192C13.9687 24.0005 17.3438 21.3755 20.8125 17.813C20.8125 17.813 15.8438 20.9067 13.2188 20.438C10.5938 19.9692 7.40625 16.5942 7.40625 16.5942Z" fill="#6A648E"/>
</g>
<defs>
<clipPath id="clip0_52_68253">
<rect width="30" height="30" fill="white"/>
</clipPath>
</defs>
</svg>
