<svg width="132" height="42" viewBox="0 0 132 42" fill="none" xmlns="http://www.w3.org/2000/svg">
<path fill-rule="evenodd" clip-rule="evenodd" d="M0.764644 30C1.18698 30 1.52935 29.6576 1.52935 29.2353L1.52935 22.2544L12.0708 28.4159C12.1649 28.4709 12.2716 28.4999 12.3803 28.5C12.489 28.5001 12.5958 28.4713 12.69 28.4165C12.7842 28.3617 12.8625 28.2828 12.9169 28.1878C12.9713 28.0928 13 27.985 13 27.8752L13 14.125C13 13.9592 12.9348 13.8002 12.8187 13.683C12.7026 13.5658 12.5451 13.5 12.3809 13.5C12.272 13.5 12.165 13.5291 12.0708 13.5844L1.52935 19.7459L1.52935 12.7647C1.52935 12.3424 1.18698 12 0.764642 12C0.342306 12 -6.44862e-05 12.3424 -6.44493e-05 12.7647L-6.30094e-05 29.2353C-6.29724e-05 29.6576 0.342308 30 0.764644 30Z" fill="#EBB000" fill-opacity="0.5"/>
<rect x="45" width="42" height="42" rx="21" fill="#EBB000"/>
<rect x="57" y="12" width="6" height="18" rx="1.71429" fill="white"/>
<rect x="69" y="12" width="6" height="18" rx="1.71429" fill="white"/>
<path fill-rule="evenodd" clip-rule="evenodd" d="M131.235 12C130.813 12 130.471 12.3424 130.471 12.7647L130.471 19.7457L119.929 13.5841C119.835 13.5291 119.728 13.5001 119.62 13.5C119.511 13.4999 119.404 13.5287 119.31 13.5835C119.216 13.6383 119.138 13.7172 119.083 13.8122C119.029 13.9072 119 14.015 119 14.1248L119 27.875C119 28.0408 119.065 28.1998 119.181 28.317C119.297 28.4342 119.455 28.5 119.619 28.5C119.728 28.5 119.835 28.4709 119.929 28.4157L130.471 22.2541L130.471 29.2353C130.471 29.6576 130.813 30 131.235 30C131.658 30 132 29.6576 132 29.2353L132 12.7647C132 12.3424 131.658 12 131.235 12Z" fill="#EBB000" fill-opacity="0.5"/>
</svg>
