<svg width="16" height="16" viewBox="0 0 16 16" fill="none" xmlns="http://www.w3.org/2000/svg">
<path d="M9.59378 1.59435C9.90977 1.27836 10.2849 1.0277 10.6978 0.856688C11.1106 0.685675 11.5531 0.597656 12 0.597656C12.4469 0.597656 12.8894 0.685675 13.3022 0.856687C13.7151 1.0277 14.0902 1.27836 14.4062 1.59435C14.7222 1.91034 14.9729 2.28547 15.1439 2.69833C15.3149 3.11119 15.4029 3.55369 15.4029 4.00057C15.4029 4.44745 15.3149 4.88995 15.1439 5.30281C14.9729 5.71567 14.7222 6.0908 14.4062 6.40679L5.07289 15.7401C4.90623 15.9068 4.68017 16.0005 4.44444 16.0006H0.888889C0.653141 16.0006 0.427049 15.9069 0.26035 15.7402C0.0936505 15.5735 0 15.3474 0 15.1117V11.5561C5.03444e-05 11.3204 0.0937339 11.0943 0.260444 10.9277L9.59378 1.59435ZM1.77778 14.2228H4.07644L13.1493 5.1499C13.4434 4.8429 13.6056 4.43291 13.601 4.0078C13.5964 3.58269 13.4255 3.17628 13.1249 2.87566C12.8243 2.57504 12.4179 2.40414 11.9928 2.39957C11.5677 2.39501 11.1577 2.55714 10.8507 2.85124L1.77778 11.9241V14.2228Z" fill="white"/>
<path d="M8.70459 2.48291C8.87128 2.31627 9.09733 2.22266 9.33303 2.22266C9.56874 2.22266 9.79479 2.31627 9.96148 2.48291L13.517 6.03847C13.679 6.20611 13.7685 6.43065 13.7665 6.66371C13.7645 6.89678 13.671 7.11972 13.5062 7.28453C13.3414 7.44933 13.1185 7.54282 12.8854 7.54484C12.6523 7.54687 12.4278 7.45727 12.2601 7.29536L8.70459 3.7398C8.53795 3.57311 8.44434 3.34706 8.44434 3.11136C8.44434 2.87565 8.53795 2.6496 8.70459 2.48291Z" fill="white"/>
</svg>
