<svg width="49" height="49" viewBox="0 0 49 49" fill="none" xmlns="http://www.w3.org/2000/svg">
<mask id="mask0_52_35763" style="mask-type:luminance" maskUnits="userSpaceOnUse" x="-1" y="-1" width="51" height="51">
<path d="M49.5779 -0.576966H-0.575987V49.577H49.5779V-0.576966Z" fill="white"/>
</mask>
<g mask="url(#mask0_52_35763)">
<path d="M48.3735 24.5002C48.3735 37.685 37.685 48.3735 24.5002 48.3735C11.3153 48.3735 0.626924 37.685 0.626924 24.5002C0.626924 11.3154 11.3153 0.626924 24.5002 0.626924C37.685 0.626924 48.3735 11.3154 48.3735 24.5002Z" stroke="black" stroke-width="1.25"/>
<path d="M7.35902 13.7471L8.14845 12.6698C8.47294 12.227 8.95191 11.9998 9.39527 12.3242C9.64404 12.5068 9.72679 12.7631 9.6631 13.066L9.67212 13.0725C9.86772 12.9457 10.0558 12.9431 10.2524 13.0314C10.5553 13.1648 10.8327 13.4427 10.9114 13.3795L10.945 13.4041L10.4871 14.029C10.4004 14.0586 10.1511 13.8389 9.92339 13.7416C9.72779 13.6588 9.58937 13.6694 9.45345 13.8544L9.23779 14.1488L9.99311 14.7025L9.52818 15.3365L7.35852 13.7466L7.35902 13.7471ZM8.7854 13.8178L9.03467 13.4778C9.16808 13.2957 9.16256 13.1377 9.01109 13.0264C8.86866 12.9221 8.71067 12.9462 8.57726 13.1282L8.32148 13.4773L8.7854 13.8178Z" fill="black"/>
<path d="M9.95684 10.5336L11.5041 9.12077L11.9354 9.59322L10.9684 10.4759L11.2147 10.7453L12.0232 10.0075L12.4214 10.4438L11.6129 11.1816L11.8968 11.4925L12.8913 10.5848L13.3452 11.0823L11.7699 12.5202L9.95684 10.5336Z" fill="black"/>
<path d="M12.8147 8.11111L13.5068 7.69282L14.4763 8.58356C14.6529 8.74505 14.8595 8.96272 14.8595 8.96272L14.866 8.95871C14.866 8.95871 14.7722 8.67283 14.708 8.44312L14.363 7.17473L15.0456 6.76196L15.6971 9.5114L14.9438 9.9668L12.8147 8.11111Z" fill="black"/>
<path d="M16.5116 6.11156L17.2409 5.81766L18.2464 8.31232L17.5172 8.60622L16.5116 6.11156Z" fill="black"/>
<path d="M18.9155 5.23655L20.9567 4.7656L21.1007 5.38851L19.8253 5.68292L19.9075 6.03853L20.9743 5.79227L21.1072 6.36754L20.0404 6.61379L20.1352 7.02405L21.4472 6.72112L21.5987 7.37714L19.5203 7.85661L18.916 5.23605L18.9155 5.23655Z" fill="black"/>
<path d="M22.6599 4.48351H23.4458L23.6414 5.40484C23.7056 5.69821 23.7733 6.15311 23.7733 6.15311H23.7808C23.7808 6.15311 23.852 5.75037 23.9198 5.44195L24.1264 4.48301H24.8371L25.0442 5.43443C25.1119 5.74636 25.1796 6.15311 25.1796 6.15311H25.1871C25.1871 6.15311 25.2584 5.69771 25.3226 5.39681L25.5182 4.48251H26.3231L25.6165 7.17174H24.8225L24.5818 6.03224C24.5331 5.79902 24.4875 5.50966 24.4875 5.50966H24.48C24.48 5.50966 24.4348 5.79902 24.3862 6.03224L24.153 7.17224H23.348L22.6594 4.48301L22.6599 4.48351Z" fill="black"/>
<path d="M28.046 4.76952L30.0878 5.23946L29.9443 5.86237L28.6689 5.56898L28.5871 5.92456L29.6539 6.16981L29.5215 6.74558L28.4548 6.50033L28.3605 6.91109L29.6729 7.21301L29.522 7.86903L27.4436 7.39106L28.0465 4.77002L28.046 4.76952Z" fill="black"/>
<path d="M31.8366 5.81228L32.967 6.32486C33.6727 6.64484 33.9576 7.31941 33.6045 8.0968C33.2504 8.87769 32.5854 9.10489 31.825 8.75983L30.7252 8.2613L31.8361 5.81178L31.8366 5.81228ZM32.0357 8.14143C32.3647 8.29039 32.6902 8.18256 32.8783 7.76779C33.0618 7.36355 32.9515 7.03253 32.6089 6.87755L32.2834 6.7301L31.7102 7.99448L32.0357 8.14143Z" fill="black"/>
<path d="M37.2131 8.88371L38.2538 9.80805C38.4504 9.98309 38.5542 10.1606 38.5888 10.3372C38.6274 10.5373 38.5753 10.7379 38.4278 10.9034C38.2578 11.0945 38.0687 11.1431 37.8355 11.0664L37.828 11.0749C37.9849 11.3403 37.9463 11.6382 37.7442 11.8659C37.5516 12.0825 37.3199 12.1683 37.0862 12.1417C36.8901 12.1186 36.6955 12.0208 36.4873 11.8363L35.4271 10.8944L37.2131 8.88371ZM36.8324 11.3177C36.9588 11.43 37.1138 11.4315 37.2211 11.3107C37.336 11.1813 37.2978 11.0318 37.177 10.924L36.7607 10.5543L36.4136 10.945L36.8329 11.3172L36.8324 11.3177ZM37.4608 10.5027C37.5732 10.6025 37.6966 10.6165 37.7918 10.5097C37.8841 10.4059 37.8606 10.274 37.7482 10.1737L37.3856 9.85118L37.0957 10.1777L37.4613 10.5022L37.4608 10.5027Z" fill="black"/>
<path d="M39.1329 13.2994L39.9674 11.5109L40.483 12.1915L40.179 12.7808C40.0762 12.9814 39.9433 13.1861 39.9433 13.1861L39.9479 13.1921C39.9479 13.1921 40.183 13.1224 40.4037 13.0777L41.0532 12.9443L41.5573 13.6099L39.6073 13.9263L38.8545 14.4966L38.3795 13.8697L39.1329 13.2994Z" fill="black"/>
<path d="M30.4426 21.2004C30.2099 21.0063 29.921 20.8568 29.577 20.753C29.2329 20.6492 28.8412 20.596 28.4019 20.5945C27.9826 20.593 27.6009 20.6376 27.2558 20.7289C26.9108 20.8202 26.6114 20.9531 26.3571 21.1271C26.1028 21.3017 25.8992 21.5123 25.7472 21.7596C25.5952 22.0068 25.5045 22.2837 25.4749 22.5896L27.0948 22.5956C27.1681 22.3945 27.3075 22.2421 27.5136 22.1377C27.7198 22.0339 27.9816 21.9823 28.3 21.9838C28.6667 21.9853 28.9455 22.062 29.1361 22.2135C29.3267 22.3649 29.4215 22.5801 29.4205 22.8584L29.4185 23.4026L27.8045 23.493C26.97 23.5381 26.331 23.7301 25.8866 24.0687C25.4418 24.4077 25.2186 24.8812 25.2161 25.4895C25.2151 25.796 25.2672 26.0718 25.3731 26.3181C25.4789 26.5643 25.6278 26.7755 25.8209 26.9515C26.0135 27.1275 26.2427 27.2635 26.5085 27.3593C26.7739 27.4551 27.0678 27.5037 27.3903 27.5047C27.8251 27.5062 28.2133 27.4219 28.5548 27.2524C28.8959 27.0824 29.1537 26.8447 29.3282 26.5392H29.437L29.4335 27.41L31.1378 27.4165L31.1553 22.8655C31.1568 22.5109 31.0961 22.1935 30.9748 21.9131C30.8529 21.6327 30.6753 21.395 30.4426 21.2004ZM29.4125 24.9925C29.412 25.1615 29.3753 25.3186 29.3021 25.4635C29.2289 25.6084 29.1281 25.7348 28.9987 25.8432C28.8693 25.9515 28.7178 26.0352 28.5443 26.0949C28.3708 26.1546 28.1817 26.1842 27.9761 26.1836C27.6696 26.1826 27.4203 26.1109 27.2278 25.969C27.0347 25.8276 26.9389 25.6315 26.9399 25.3818C26.9419 24.8983 27.3175 24.632 28.0673 24.5823L29.4155 24.503L29.4135 24.9925H29.4125Z" fill="black"/>
<path d="M36.1824 20.6243C35.6869 20.6223 35.2727 20.7287 34.9392 20.9428C34.6062 21.1575 34.3619 21.4534 34.2074 21.8316H34.0986L34.1026 20.7613L32.3984 20.7547L32.3728 27.4207L34.1317 27.4272L34.1462 23.5834C34.1472 23.3658 34.1783 23.1677 34.239 22.9886C34.3002 22.8096 34.388 22.6566 34.5038 22.5302C34.6192 22.4038 34.7576 22.3065 34.9186 22.2388C35.0801 22.1711 35.2637 22.1375 35.4688 22.1385C35.8881 22.14 36.1965 22.2594 36.3951 22.4956C36.5938 22.7318 36.6921 23.0819 36.69 23.5453L36.6749 27.4373L38.4339 27.4438L38.4504 23.1346C38.4535 22.3366 38.2614 21.7197 37.8742 21.2829C37.487 20.846 36.9228 20.6264 36.1815 20.6238" fill="black"/>
<path d="M41.4809 20.4148L41.4854 19.2071L39.7265 19.2005L39.7019 25.6493C39.7009 25.9758 39.7411 26.2537 39.8228 26.4839C39.9046 26.7136 40.036 26.9027 40.2165 27.0506C40.3971 27.1986 40.6308 27.3069 40.9167 27.3766C41.2026 27.4463 41.5486 27.4819 41.9559 27.4835C42.1254 27.484 42.2874 27.4764 42.4424 27.4609C42.5973 27.4453 42.7297 27.4278 42.8386 27.4082L42.8436 26.0666C42.7588 26.0746 42.6801 26.0801 42.6079 26.0837C42.5351 26.0877 42.4404 26.0892 42.324 26.0887C42.0221 26.0877 41.8024 26.0185 41.666 25.8805C41.5296 25.7431 41.4619 25.5295 41.4629 25.2391L41.4744 22.2414L42.8586 22.2469L42.8642 20.8626L41.9223 20.8591C41.678 20.8581 41.4809 20.6595 41.4819 20.4153" fill="black"/>
<path d="M21.8886 25.7666H21.7798L20.3971 20.7081H20.2872L19.5219 23.2138C19.4612 23.4129 19.4647 23.6265 19.5324 23.8237L20.7702 27.4182L20.709 27.6594C20.6353 27.9132 20.5029 28.0958 20.3108 28.2076C20.1192 28.3194 19.8579 28.3751 19.5274 28.3741H19.4431L19.3253 28.3731C19.2826 28.3731 19.2435 28.3716 19.2074 28.3696C19.1713 28.3671 19.1447 28.3641 19.1287 28.3601L19.1231 29.7744C19.1392 29.7784 19.1808 29.7819 19.247 29.7839C19.3132 29.7859 19.3849 29.7885 19.4617 29.791C19.5384 29.7935 19.6086 29.7945 19.6733 29.7945H19.7942C20.209 29.7965 20.5751 29.7574 20.8916 29.6781C21.208 29.5989 21.4879 29.468 21.7301 29.2854C21.9729 29.1029 22.184 28.8651 22.3646 28.5717C22.5451 28.2783 22.7066 27.9162 22.8496 27.4859L25.1722 20.7256L23.311 20.7186L21.8896 25.7656L21.8886 25.7666Z" fill="black"/>
<path d="M16.7983 16.4383L14.9055 16.4313L11.8953 26.3517H11.809L11.8225 22.7913C11.824 22.4367 11.7634 22.1192 11.642 21.8389C11.5201 21.5585 11.3426 21.3213 11.1098 21.1267C10.8766 20.9326 10.5882 20.7831 10.2442 20.6793C9.90013 20.5755 9.50843 20.5223 9.06908 20.5208C8.6498 20.5193 8.26813 20.564 7.92307 20.6553C7.57801 20.7465 7.27859 20.8794 7.02381 21.0535C6.76953 21.228 6.5659 21.4387 6.41393 21.6859C6.26197 21.9332 6.17119 22.21 6.1416 22.516L7.76157 22.522C7.8348 22.3209 7.97422 22.1684 8.18036 22.0641C8.38649 21.9603 8.64829 21.9086 8.96677 21.9101C9.33339 21.9116 9.61225 21.9883 9.80284 22.1398C9.99342 22.2913 10.0882 22.5064 10.0872 22.7848L10.0852 23.329L8.47125 23.4192C7.63719 23.4644 6.99773 23.6565 6.55336 23.995C6.109 24.334 5.88531 24.8075 5.88331 25.4159C5.8823 25.7223 5.93446 25.9982 6.04029 26.2444C6.14611 26.4907 6.29507 26.7018 6.48816 26.8779C6.68125 27.0539 6.90996 27.1898 7.17577 27.2856C7.44109 27.3814 7.73499 27.43 8.05748 27.4311C8.49281 27.4326 8.8805 27.3483 9.22205 27.1788C9.5631 27.0088 9.82089 26.771 9.99543 26.4656H10.1043L10.1007 27.3363L11.805 27.3428L13.4871 27.3493L16.7978 16.4388L16.7983 16.4383ZM10.0802 24.9178C10.0797 25.0869 10.0426 25.2438 9.96985 25.3888C9.89662 25.5337 9.79531 25.6601 9.66642 25.7684C9.53702 25.8768 9.38555 25.9605 9.21202 26.0202C9.03849 26.0799 8.84941 26.1095 8.64378 26.109C8.33734 26.108 8.08807 26.0363 7.89548 25.8943C7.70239 25.7529 7.60659 25.5568 7.6076 25.307C7.6096 24.8235 7.98526 24.5572 8.73456 24.5076L10.0827 24.4283L10.0802 24.9178Z" fill="black"/>
<path d="M18.4705 16.445L15.1598 27.3555L17.0526 27.3625L20.3628 16.4525L18.4705 16.445Z" fill="black"/>
<path d="M8.40621 30.7379L9.26635 32.6237L8.664 32.8985L8.13036 31.7279L7.72963 31.9105L8.17149 32.879L7.61729 33.1317L7.17543 32.1633L6.2857 32.569L5.9597 31.8538L8.40621 30.7379Z" fill="black"/>
<path d="M8.3066 33.7223C8.97465 33.2734 9.76507 33.3773 10.2305 34.0704C10.6959 34.7635 10.4973 35.5404 9.82877 35.9893C9.16072 36.4382 8.36929 36.3258 7.90386 35.6327C7.43843 34.9396 7.63804 34.1707 8.3066 33.7223ZM9.3844 35.3272C9.75003 35.082 9.92055 34.7359 9.71091 34.424C9.50126 34.1115 9.11658 34.1391 8.75096 34.3843C8.38534 34.6296 8.21782 34.9737 8.42747 35.2856C8.63711 35.5981 9.01878 35.5725 9.3844 35.3272Z" fill="black"/>
<path d="M11.3023 35.6348L12.2251 36.6002C12.6048 36.9974 12.7452 37.5085 12.348 37.8882C12.1253 38.1013 11.858 38.1379 11.5706 38.0226L11.5626 38.0306C11.6533 38.2458 11.6228 38.4308 11.5019 38.6094C11.3173 38.8847 10.9958 39.1089 11.0445 39.1977L11.0149 39.2263L10.4792 38.6661C10.4652 38.5753 10.7255 38.3681 10.8604 38.161C10.9763 37.9825 10.9898 37.8445 10.8313 37.679L10.579 37.4152L9.90197 38.0627L9.3588 37.4945L11.3028 35.6353L11.3023 35.6348ZM10.9838 37.027L11.2752 37.3315C11.4312 37.4945 11.5876 37.5165 11.7236 37.3866C11.8515 37.2643 11.855 37.1048 11.699 36.9418L11.4001 36.6293L10.9838 37.027Z" fill="black"/>
<path d="M14.8043 38.7733L15.4753 39.2111L14.8404 42.0082L14.1412 41.5518L14.2466 41.1491L13.4842 40.6516L13.1582 40.9104L12.5032 40.483L14.8043 38.7733ZM13.9281 40.295L14.3945 40.5994L14.5405 40.0658C14.5776 39.9329 14.6443 39.7202 14.6443 39.7202L14.6383 39.7162C14.6383 39.7162 14.4738 39.8647 14.3639 39.9504L13.9281 40.295Z" fill="black"/>
<path d="M15.9206 41.0692C16.2431 40.332 16.9894 40.0055 17.7302 40.3295C17.999 40.4468 18.2101 40.6214 18.335 40.824C18.5131 41.1114 18.5407 41.4519 18.4343 41.7789L17.7141 41.4639C17.7813 41.2633 17.6946 41.0201 17.4603 40.9178C17.1193 40.7683 16.8274 40.9855 16.6509 41.3887C16.4743 41.792 16.541 42.1656 16.8615 42.306C17.1133 42.4159 17.337 42.3171 17.4578 42.1069L18.1851 42.4249C18.0451 42.6882 17.8159 42.8748 17.5662 42.9671C17.2672 43.0784 16.9658 43.0533 16.6077 42.8963C15.8564 42.5678 15.5986 41.806 15.9211 41.0687L15.9206 41.0692Z" fill="black"/>
<path d="M18.918 42.3186C19.1085 41.5367 19.7876 41.0864 20.573 41.278C20.8579 41.3472 21.0961 41.4831 21.2541 41.6606C21.4793 41.9129 21.5651 42.2434 21.5169 42.584L20.753 42.3979C20.7846 42.1887 20.6573 41.9641 20.409 41.9039C20.0474 41.8156 19.7972 42.0799 19.6928 42.5072C19.5885 42.935 19.7184 43.2916 20.0585 43.3744C20.3253 43.4396 20.5289 43.3032 20.6112 43.0755L21.3825 43.2635C21.2902 43.5469 21.0961 43.7706 20.8664 43.904C20.5911 44.0655 20.2902 44.0926 19.91 43.9998C19.1136 43.8057 18.7279 43.1 18.9185 42.3176L18.918 42.3186Z" fill="black"/>
<path d="M22.2924 41.6816L24.3813 41.8391L24.3332 42.4766L23.0277 42.3783L23.0001 42.7419L24.0914 42.8241L24.0468 43.413L22.9554 43.3307L22.9238 43.751L24.2665 43.8523L24.2158 44.5239L22.0893 44.3634L22.2924 41.6816Z" fill="black"/>
<path d="M25.0221 43.675L25.8246 43.6088C25.8687 43.8205 26.0417 43.9077 26.3005 43.8867C26.454 43.8741 26.6366 43.7984 26.6235 43.6374C26.61 43.4764 26.4269 43.4498 26.0899 43.3947C25.6305 43.3194 25.0743 43.2106 25.0271 42.6408C24.9765 42.026 25.4595 41.7521 26.0628 41.702C26.6175 41.6558 27.1466 41.8464 27.2063 42.4302L26.4304 42.4944C26.3958 42.3499 26.283 42.2652 26.0693 42.2827C25.8968 42.2973 25.7834 42.3856 25.7925 42.4944C25.8055 42.6519 26.0362 42.6554 26.445 42.7196C26.9039 42.7913 27.3683 42.9302 27.4155 43.5C27.4636 44.0848 26.9686 44.4389 26.3351 44.4915C25.638 44.5492 25.0843 44.2924 25.0221 43.675Z" fill="black"/>
<path d="M28.1356 43.3603L28.9165 43.1647C28.9943 43.3664 29.1793 43.4245 29.4311 43.3613C29.5806 43.3237 29.7486 43.2199 29.7095 43.0629C29.6703 42.9059 29.4848 42.91 29.1437 42.91C28.6783 42.91 28.1121 42.8929 27.9731 42.3387C27.8232 41.7404 28.2555 41.3918 28.8428 41.2443C29.383 41.1089 29.9357 41.2112 30.0891 41.7775L29.3338 41.9666C29.2761 41.8296 29.1512 41.7639 28.9431 41.8161C28.7751 41.8582 28.6778 41.9641 28.7044 42.0699C28.743 42.2234 28.9707 42.1892 29.385 42.1862C29.8494 42.1822 30.3304 42.2444 30.4688 42.7991C30.6112 43.3684 30.1799 43.7982 29.5635 43.9527C28.8849 44.1227 28.2971 43.9597 28.1356 43.3603Z" fill="black"/>
<path d="M30.5488 40.7798L31.2816 40.4954L32.2541 43.0031L31.5213 43.2875L30.5488 40.7798Z" fill="black"/>
<path d="M31.9163 40.2533L33.1396 39.5893C33.3708 39.4634 33.5734 39.4263 33.7509 39.4539C33.9521 39.4855 34.1231 39.6028 34.2289 39.7979C34.3508 40.0226 34.3322 40.2167 34.1808 40.4103L34.1863 40.4204C34.4892 40.3632 34.756 40.5006 34.9015 40.7679C35.0399 41.0227 35.0414 41.27 34.9376 41.4801C34.8493 41.6561 34.6908 41.8066 34.4466 41.9395L33.2003 42.6161L31.9168 40.2528L31.9163 40.2533ZM33.5227 40.5708C33.6552 40.4991 33.7103 40.3878 33.6421 40.2624C33.5759 40.14 33.4435 40.1174 33.3116 40.1896L32.8853 40.4214L33.0934 40.8045L33.5232 40.5713L33.5227 40.5708ZM34.0754 41.439C34.2244 41.3582 34.2781 41.2133 34.2008 41.0713C34.1181 40.9194 33.9646 40.9043 33.8227 40.9816L33.3337 41.2474L33.5829 41.7068L34.0754 41.439Z" fill="black"/>
<path d="M34.4495 38.7753L35.0874 38.3158L36.6588 40.4985L36.0208 40.958L34.4495 38.7753Z" fill="black"/>
<path d="M35.6431 37.9026L36.2254 37.3745L37.58 38.8681L38.4327 38.0947L38.8851 38.5932L37.4502 39.8952L35.6426 37.9031L35.6431 37.9026Z" fill="black"/>
<path d="M37.4568 36.1653L37.9748 35.574L39.9976 37.347L39.4795 37.9383L37.4568 36.1653Z" fill="black"/>
<path d="M38.3663 35.1453L39.6678 33.228L40.222 33.6041L39.7887 34.2421L41.4598 35.3766L41.0179 36.027L39.3468 34.8926L38.92 35.5215L38.3663 35.1453Z" fill="black"/>
<path d="M41.8566 32.7549L39.8861 32.8678L40.2407 32.0909L40.9032 32.0794C41.1284 32.0748 41.3717 32.0949 41.3717 32.0949L41.3747 32.0879C41.3747 32.0879 41.2021 31.9139 41.0577 31.7403L40.6324 31.2318L40.9794 30.4724L42.1826 32.0392L43.0413 32.4314L42.7148 33.1466L41.8561 32.7544L41.8566 32.7549Z" fill="black"/>
</g>
</svg>
