<svg width="21" height="21" viewBox="0 0 21 21" fill="none" xmlns="http://www.w3.org/2000/svg">
<path d="M18.2169 5.56627C19.7539 5.56627 21 4.32021 21 2.78313C21 1.24605 19.7539 0 18.2169 0C16.6798 0 15.4337 1.24605 15.4337 2.78313C15.4337 4.32021 16.6798 5.56627 18.2169 5.56627Z" fill="#82BD39"/>
<path d="M17.2453 6.98313C15.6564 6.63904 14.361 5.34361 14.0169 3.7547C13.8853 3.13735 13.8752 2.54024 13.9865 1.97349C14.1181 1.34602 13.6525 0.759036 13.0048 0.759036H5.06024C2.26699 0.759036 0 3.02602 0 5.81928V12.853C0 15.6463 2.26699 17.9133 5.06024 17.9133H6.57831C6.86169 17.9133 7.22602 18.0954 7.38795 18.3181L8.90602 20.332C9.57398 21.2226 10.667 21.2226 11.3349 20.332L12.853 18.3181C13.0453 18.0651 13.3388 17.9133 13.6627 17.9133H15.1908C17.9841 17.9133 20.241 15.6564 20.241 12.8631V7.99518C20.241 7.35759 19.654 6.89205 19.0265 7.01349C18.4598 7.1147 17.8627 7.1147 17.2453 6.98313ZM6.07229 10.8795C5.50554 10.8795 5.06024 10.4241 5.06024 9.86747C5.06024 9.31084 5.50554 8.85542 6.07229 8.85542C6.62892 8.85542 7.08434 9.31084 7.08434 9.86747C7.08434 10.4241 6.63904 10.8795 6.07229 10.8795ZM10.1205 10.8795C9.55373 10.8795 9.10843 10.4241 9.10843 9.86747C9.10843 9.31084 9.55373 8.85542 10.1205 8.85542C10.6771 8.85542 11.1325 9.31084 11.1325 9.86747C11.1325 10.4241 10.6872 10.8795 10.1205 10.8795ZM14.1687 10.8795C13.6019 10.8795 13.1566 10.4241 13.1566 9.86747C13.1566 9.31084 13.6019 8.85542 14.1687 8.85542C14.7253 8.85542 15.1807 9.31084 15.1807 9.86747C15.1807 10.4241 14.7354 10.8795 14.1687 10.8795Z" fill="white" fill-opacity="0.6"/>
</svg>
