<svg width="30" height="30" viewBox="0 0 30 30" fill="none" xmlns="http://www.w3.org/2000/svg">
<g clip-path="url(#clip0_52_39606)">
<path d="M16.2188 22.5928L8.90626 26.9053C8.90626 26.9053 15.375 28.6866 18.6563 27.7491C20.625 27.1866 22.125 24.2803 22.125 24.2803L16.2188 22.5928ZM12.6563 23.0616L6.84376 14.9991C6.84376 14.9991 3.18751 5.53035 2.71876 5.34285C2.25001 5.15535 1.78126 5.0616 0.37501 6.09285C-1.03124 7.1241 2.34376 15.9366 2.34376 15.9366L6.84376 23.9991C6.75001 24.1866 11.9063 23.9991 12.6563 23.0616Z" fill="#C48051"/>
<path d="M13.4063 21.8432L7.59376 13.7807L4.59376 5.81191C4.12501 5.62441 2.53126 4.68691 1.12501 5.81191C-0.28124 6.93691 3.09376 14.9057 3.09376 14.9057L7.50001 22.9682C7.50001 22.9682 12.6563 22.6869 13.4063 21.8432Z" fill="#C48051"/>
<path d="M13.6875 22.4072L7.87501 14.3447L4.87501 6.37596C4.40626 6.18846 2.81251 5.34471 1.40626 6.37596C1.04904e-05 7.40721 3.37501 15.4697 3.37501 15.4697L7.78126 23.626C7.78126 23.5322 12.9375 23.3447 13.6875 22.4072Z" fill="#FCC097"/>
<path d="M3.37469 9.5625C3.37469 9.5625 2.24969 6.28125 2.34344 5.8125C2.43719 5.34375 4.03094 4.59375 4.59344 4.96875C5.15594 5.34375 6.18719 7.96875 6.37469 9.09375C6.37469 9.09375 4.59344 9.9375 3.37469 9.5625Z" fill="#DD4568"/>
<path d="M6.75 24.0938L8.90625 26.9063L16.2187 24.5625L12.1875 23.25L6.75 24.0938Z" fill="#C48051"/>
<path d="M5.90625 9.75L9.28125 18.2812C9.9375 20.1562 12.8437 21.4688 15.2812 21.1875C17.7187 20.9063 21 21 21.9375 19.5938C22.875 18.2812 26.3438 10.5 28.4062 9.09375C28.4062 9.09375 26.25 10.9688 24.1875 12.2813C22.125 13.5938 19.4062 17.3438 16.2187 17.25C13.0312 17.1562 10.5938 16.5938 9.1875 14.0625C7.78125 11.5313 6.84375 9.375 6.84375 9.375L5.90625 9.75Z" fill="#4C2537"/>
<path d="M6.09375 8.81234C6.09375 8.81234 7.78125 15.6561 15.1875 15.2811C22.5938 14.9061 27.375 9.37484 27.375 9.37484C27.375 9.37484 20.0625 6.93734 18.0937 6.46859C16.125 5.99984 10.9687 6.09359 10.9687 6.09359L6.09375 8.81234Z" fill="#4C2537"/>
<path d="M8.625 7.21875C8.625 7.21875 13.2188 10.6875 21.6563 8.15625L19.2188 7.03125L9.5625 6.09375L8.625 7.21875Z" fill="white"/>
<path d="M5.625 8.90676C5.625 8.90676 7.40625 6.56301 7.78125 5.34426C8.15625 4.12551 9.5625 2.62551 11.4375 3.56301C13.3125 4.50051 14.625 4.50051 15.4688 4.03176C16.3125 3.65676 18 2.71926 19.5938 3.37551C21.0938 4.03176 25.5 7.59426 28.6875 8.25051C28.7813 8.25051 28.7813 8.43801 28.6875 8.43801C28.3125 8.53176 27.8438 8.62551 27.2813 8.62551C26.3438 8.62551 19.875 5.81301 18.9375 5.43801C18 5.06301 14.625 6.09426 12.8438 5.81301C11.1562 5.62551 9.09375 6.46926 9.09375 6.46926C9.09375 6.46926 6.65625 9.28176 5.625 8.90676Z" fill="#960F4E" stroke="#960F4E" stroke-width="0.364875" stroke-miterlimit="10"/>
<path d="M5.8125 8.90646C5.8125 8.90646 7.96875 7.03146 8.90625 5.25021C9.84375 3.46896 12.4688 4.96896 13.3125 5.25021C14.0625 5.62521 15.5625 5.15646 16.5938 4.78146C17.625 4.31271 19.125 3.93771 20.625 4.96896C22.125 6.00021 26.5312 8.25021 28.5938 8.62521C28.5938 8.62521 26.9063 9.93771 23.5313 9.00021C20.1563 8.06271 19.4062 7.50021 17.4375 7.68771C15.4688 7.87521 12.5625 7.87521 10.6875 7.03146C10.6875 7.03146 10.125 6.65646 9.09375 7.40646C8.0625 8.15646 6 8.90646 5.8125 8.90646Z" fill="#960F0F"/>
<path d="M5.8125 9.00021C5.8125 9.00021 7.96875 6.65646 8.90625 4.87521C9.84375 3.09396 12.4688 4.59396 13.3125 4.87521C14.1562 5.15646 15.6562 4.78146 16.6875 4.31271C17.7187 3.84396 19.2188 3.46896 20.7188 4.50021C22.2188 5.53146 26.4375 8.25021 28.5938 8.62521C28.5938 8.62521 27.0937 9.46896 23.7187 8.53146C20.3437 7.59396 19.5 7.12521 17.625 7.31271C15.5625 7.50021 12.5625 7.50021 10.6875 6.75021C10.6875 6.75021 10.125 6.37521 9.09375 7.12521C8.0625 7.87521 6 9.00021 5.8125 9.00021Z" fill="#DD4568"/>
<path d="M5.34375 9L8.71875 17.5313C9.375 19.4063 12.2812 20.7187 14.7188 20.4375C17.1562 20.1562 20.25 20.0625 21.1875 18.75C22.125 17.4375 26.7187 10.125 28.875 8.8125C28.875 8.8125 25.6875 10.3125 23.7187 11.625C21.75 12.9375 18.9375 16.6875 15.75 16.5938C12.5625 16.5 10.125 15.9375 8.71875 13.4062C7.3125 10.875 6.375 8.71875 6.375 8.71875L5.34375 9Z" fill="#960F4E"/>
<path d="M6.09375 8.90625C6.28125 9.46875 8.34375 14.5313 9 16.0313C9.65625 17.625 12.375 18.8438 14.5312 18.5625C16.6875 18.2812 19.5938 18.2813 20.5312 17.0625C21.375 15.9375 25.5938 10.875 27.6562 9.28125C27.75 9.28125 27.6562 9.1875 27.5625 9.1875C26.625 9.5625 24.2812 10.5 22.875 11.3438C21 12.4688 18.375 15.2813 15.4688 15.1875C12.5625 15.0938 10.3125 14.625 8.90625 12.375C7.6875 10.4063 6.75 9 6.5625 8.8125H6.46875L6.09375 8.90625Z" fill="#DD4568"/>
<path d="M20.437 5.24913C19.5933 4.78038 18.6558 4.40538 17.6245 4.59288C17.1558 4.68663 16.687 4.87413 16.5933 5.34288C16.4995 5.71788 16.7808 6.18663 17.062 6.37413C17.5308 6.56163 17.9058 6.56163 18.2808 6.65538L20.2495 6.93663C20.812 7.03038 21.562 7.21788 22.1245 7.21788C22.8745 7.21788 22.0308 6.56163 21.8433 6.37413C21.3745 5.90538 20.9995 5.43663 20.437 5.24913ZM19.9683 16.5929C20.437 16.3116 20.7183 15.9366 20.812 15.4679C20.812 15.2804 20.812 14.9991 20.5308 14.9054C20.3433 14.8116 20.062 14.8116 19.8745 14.9054C19.687 14.9991 19.5933 15.1866 19.4995 15.3741C19.312 15.6554 19.1245 15.9366 19.0308 16.2179L18.562 16.9679C18.4683 17.3429 18.937 17.0616 19.1245 16.9679C19.4058 16.8741 19.687 16.7804 19.9683 16.5929ZM11.7183 5.06163C11.2495 4.68663 10.5933 4.40538 10.0308 4.59288C9.74955 4.68663 9.4683 4.78038 9.37455 5.15538C9.2808 5.43663 9.4683 5.71788 9.6558 5.90538C9.8433 6.09288 10.1245 6.09288 10.312 6.18663C10.687 6.28038 11.1558 6.28038 11.5308 6.37413C11.9058 6.46788 12.3745 6.56163 12.7495 6.56163C13.2183 6.56163 12.7495 6.09288 12.562 5.90538C12.2808 5.53038 11.9995 5.24913 11.7183 5.06163Z" fill="#F964A0"/>
<path d="M25.7812 9.09375C25.7812 9.09375 26.9062 9.5625 26.7187 10.125L26.9062 10.2187L28.875 8.71875C28.9687 8.53125 28.875 8.34375 28.875 8.34375H28.5937C28.5937 8.4375 27.375 9 25.7812 9.09375ZM7.59375 8.15625C7.59375 8.15625 6.46875 8.53125 5.90625 8.53125L5.53125 9L6.09375 9.75C6.09375 9.75 6.46875 9.1875 6.84375 9.28125C6.84375 9.28125 7.125 8.53125 7.59375 8.34375V8.15625Z" fill="#960F0F"/>
<path d="M10.6876 5.34375C10.7814 5.34375 10.9689 5.4375 11.0626 5.4375C11.1564 5.4375 11.3439 5.34375 11.3439 5.25C11.3439 5.15625 11.2501 5.0625 11.0626 4.96875C10.8751 4.875 10.6876 4.875 10.5001 4.78125H10.1251C9.46887 5.0625 10.5001 5.25 10.6876 5.34375ZM19.0314 5.34375C19.1251 5.34375 19.3126 5.4375 19.4064 5.4375C19.5001 5.4375 19.6876 5.34375 19.6876 5.25C19.6876 5.15625 19.5939 5.0625 19.4064 4.96875C19.2189 4.875 19.0314 4.875 18.8439 4.78125H18.4689C17.9064 5.0625 18.8439 5.25 19.0314 5.34375Z" fill="#FFA1CA"/>
<path d="M14.8125 22.5946L21.2813 15.0009L24.9375 7.21964C25.4062 7.12589 27.0937 6.18839 28.5 7.40714C29.8125 8.53214 25.7812 16.3134 25.7812 16.3134L21.0938 24.0009C21 24.0009 15.4688 23.5321 14.8125 22.5946Z" fill="#C48051"/>
<path d="M16.0312 23.1573L22.2188 15.8448L25.6875 8.43856C26.1562 8.34481 27.75 7.50106 29.0625 8.62606C30.375 9.75106 26.4375 17.1573 26.4375 17.1573L21.9375 24.5636C21.9375 24.5636 16.6875 24.0948 16.0312 23.1573Z" fill="#C48051"/>
<path d="M15.9375 21.4679L22.125 14.1554L25.5937 6.74911C26.0625 6.65536 27.6562 5.81161 28.9688 6.93661C30.2812 8.06161 26.3438 15.4679 26.3438 15.4679L21.8437 22.8741C21.8437 22.7804 16.5938 22.4054 15.9375 21.4679Z" fill="#FCC097"/>
<path d="M15.8437 21.8438L9.65625 26.4375C9.65625 26.4375 14.25 27.5625 16.2187 27.375C20.1562 26.9063 22.0312 22.5 22.0312 22.5L15.8437 21.8438Z" fill="#FCC097"/>
<path d="M3.75041 12.9382C4.03166 13.1257 4.50041 13.1257 4.68791 12.8445C5.06291 12.4695 4.96916 11.8132 4.50041 11.4382C4.12541 11.157 3.28166 10.8757 3.00041 11.3445C2.90666 11.8132 3.37541 12.7507 3.75041 12.9382Z" fill="#FFD9C0"/>
<path d="M18.7502 18L16.8752 21.75C16.4065 22.7812 12.9377 25.9687 10.0315 25.5937C7.12521 25.2187 8.90646 23.1562 8.90646 23.1562L18.7502 18Z" fill="#C48051"/>
<path d="M21.5621 12.374C21.5621 12.374 20.0621 11.0615 15.0933 12.8428C15.0933 12.8428 10.7808 11.3428 6.46833 13.9678C2.15583 16.5928 4.21833 22.3115 6.84333 23.4365C9.46833 24.5615 13.8746 25.2178 15.7496 22.4053C17.6246 19.5928 17.9058 15.4678 21.5621 12.374Z" fill="#4C2537"/>
<path d="M21.9375 12.1875C21.9375 12.1875 19.6875 10.4062 14.7188 12.1875C14.7188 12.1875 12 9.84373 7.78129 12.375C3.56254 14.9062 3.84379 21.6562 6.46879 22.6875C9.09379 23.7187 13.5 24.4687 15.375 21.6562C17.25 18.8437 15.75 15.8437 21.9375 12.1875Z" fill="#960F0F"/>
<path d="M15.6563 15.4681C15.2813 15.0931 14.7188 14.8118 14.3438 14.4368C13.875 14.0618 13.5938 13.6868 13.3125 13.2181C13.0313 12.6556 12.8438 12.0931 12.4688 11.6243C12.0938 11.1556 11.7188 10.8743 11.25 10.4993C10.125 10.4056 8.71879 10.6868 7.12504 11.7181C2.90629 14.2493 3.18754 20.9993 5.81254 22.0306C8.43754 23.1556 12.8438 23.8118 14.7188 20.9993C15.375 19.9681 15.9375 18.4681 16.5 16.9681C16.3125 16.4056 16.125 15.8431 15.6563 15.4681Z" fill="#960F0F"/>
<path d="M22.3128 12.3744C22.3128 12.3744 19.3128 9.84316 14.7191 11.5307C14.7191 11.5307 12.1878 9.28066 8.25033 11.7182C4.31283 14.1557 4.59408 20.3432 7.03158 21.3744C9.46908 22.4057 13.0316 23.2494 14.7191 20.6244C16.4066 17.9994 16.8753 11.5307 22.3128 12.3744Z" fill="#DD4545"/>
<path d="M13.875 10.7812C13.875 10.7812 10.3125 12.4687 9.375 17.7187C9.375 17.7187 9.5625 18.0937 9.75 18.0937C9.9375 18.0937 11.1562 13.9687 13.0312 12.6562C14.9062 11.3438 16.3125 10.875 17.625 10.875L14.9062 10.9687C14.3437 11.1562 13.875 10.7812 13.875 10.7812Z" fill="#960F0F"/>
<path d="M17.3434 11.625C17.6246 11.625 17.9059 11.625 18.0934 11.8125C18.2809 12.0938 18.0934 12.375 17.9059 12.6562L15.4684 16.0312C15.1871 16.4062 14.9996 16.7812 14.5309 16.9688C14.0621 17.1562 13.5934 17.3438 13.2184 17.0625C12.6559 16.7813 12.6559 16.0312 12.8434 15.4687C13.0309 14.625 13.4996 13.5 14.1559 12.8437C15.0934 12.1875 16.2184 11.7187 17.3434 11.625ZM10.5934 11.3438C10.8746 11.3438 11.0621 11.3437 11.2496 11.5312C11.4371 11.7187 11.2496 12.0938 11.1559 12.2812L9.09335 15.2812C8.90585 15.5625 8.6246 15.9375 8.34335 16.125C7.96835 16.3125 7.4996 16.4062 7.1246 16.2187C6.5621 15.9375 6.5621 15.2812 6.65585 14.8125C6.84335 14.0625 7.21835 13.125 7.8746 12.5625C8.53085 11.9062 9.5621 11.4375 10.5934 11.3438Z" fill="#F96464"/>
<path d="M19.2188 13.0321C19.2188 13.0321 20.9063 12.0009 20.3438 11.3446C20.3438 11.3446 21.6563 11.1571 22.5938 11.2509C22.7813 11.2509 22.875 11.5321 22.6875 11.6259L21.375 12.6571L19.2188 13.0321Z" fill="#960F4E"/>
<path d="M24.6562 7.78125C24.6562 7.78125 26.3438 6.75 27.75 6.84375L27.9375 5.8125C27.9375 5.8125 25.125 6.28125 24.75 7.3125L24.6562 7.78125Z" fill="#C48051"/>
<path d="M26.25 9.75039C26.25 9.75039 27.1875 6.37539 27.5625 6.09414C27.9375 5.71914 29.7188 5.81289 30 6.37539C30.2812 6.93789 29.625 9.65664 29.1563 10.7816C29.0625 10.5941 27 10.5941 26.25 9.75039Z" fill="#DD4568"/>
<path d="M25.9683 11.0633C26.2495 11.157 26.5308 11.532 26.437 11.907C26.437 12.0945 26.3433 12.1883 26.2495 12.3758L25.4058 13.8758L24.562 15.4695C24.4683 15.7508 24.2808 15.9383 23.9995 15.9383C23.812 15.9383 23.6245 15.8445 23.5308 15.657C23.437 15.4695 23.437 15.282 23.437 15.0945C23.3433 14.0633 24.0933 10.3133 25.9683 11.0633ZM20.7183 19.8758C20.9995 19.9695 21.2808 20.3445 21.187 20.7195C21.187 20.907 21.0933 21.0008 20.9995 21.1883L20.1558 22.6883L19.312 24.282C19.2183 24.5633 19.0308 24.7508 18.7495 24.7508C18.562 24.7508 18.3745 24.657 18.2808 24.4695C18.187 24.282 18.187 24.0945 18.187 24.0008C17.9995 22.782 18.7495 19.032 20.7183 19.8758Z" fill="#FFD9C0"/>
<path d="M24.4685 17.9063C23.9998 17.8125 23.6248 17.625 23.2498 17.4375C23.0623 17.3438 22.8748 17.3438 22.6873 17.3438C22.4998 17.3438 22.3123 17.4375 22.3123 17.625C22.3123 17.8125 22.5935 17.9063 22.8748 18L24.7498 18.5625C24.0935 18.5625 23.4373 18.4688 22.6873 18.4688C22.4998 18.4688 22.3123 18.4687 22.2185 18.5625C22.1248 18.6562 22.2185 18.75 22.3123 18.8438C22.406 18.9375 22.5935 18.9375 22.6873 19.0312C23.2498 19.2187 23.906 19.3125 24.3748 19.125C24.9373 18.9375 25.2185 18.5625 25.4998 18.1875L25.8748 17.9063C25.406 18.0938 24.8435 18.0938 24.4685 17.9063Z" fill="#C48051"/>
<path d="M5.06217 7.6875C5.06217 7.875 5.15592 7.96875 5.06217 8.15625C5.06217 8.34375 4.87467 8.4375 4.68717 8.53125C4.49967 8.53125 4.40592 8.625 4.21842 8.625C4.03092 8.53125 3.93717 8.34375 3.84342 8.15625L2.99967 6C2.99967 5.90625 2.90592 5.71875 2.99967 5.71875C3.09342 5.625 3.18717 5.625 3.18717 5.625C3.46842 5.625 3.84342 5.625 4.12467 5.53125C4.40592 5.53125 4.40592 5.625 4.49967 5.90625C4.68717 6.1875 4.78092 6.5625 4.87467 6.84375C4.87467 7.03125 4.96842 7.125 4.96842 7.3125C4.96842 7.40625 5.06217 7.59375 5.06217 7.6875ZM27.7497 8.90625C27.7497 9.09375 27.6559 9.28125 27.8434 9.46875C27.9372 9.65625 28.1247 9.65625 28.3122 9.65625C28.4997 9.65625 28.5934 9.46875 28.7809 9.375C29.1559 9 29.2497 8.4375 29.3434 7.875C29.3434 7.59375 29.4372 7.3125 29.3434 7.125C29.2497 6.9375 29.0622 6.84375 28.8747 6.75C28.1247 6.5625 28.1247 6.75 28.0309 7.3125L27.7497 8.90625Z" fill="#F964A0"/>
<path opacity="0.6" d="M17.25 20.3438L16.9688 21.5625C16.9688 21.5625 15.75 28.125 12 27.2812L9.1875 26.7187L8.71875 25.125L12.375 24.2812C12.375 24.2812 13.3125 25.0312 14.625 23.8125C15.9375 22.5937 17.25 20.3438 17.25 20.3438Z" fill="#C48051"/>
<path d="M11.4375 24.1875L10.3125 27L9.375 26.7188L10.125 23.9062L11.4375 24.1875Z" fill="#4C2537"/>
<path d="M17.9063 26.8125L17.625 27.2813L19.0312 28.2188L27.0938 20.25L25.7812 18.5625L17.9063 26.8125Z" fill="#9A4C18"/>
<path d="M27.2817 22.5C27.0005 25.6875 24.0942 28.4062 20.813 28.3125C17.5317 28.3125 15.4692 25.5938 16.1255 22.5C16.688 19.5938 19.5005 17.3437 22.4067 17.25C25.2192 17.25 27.4692 19.5 27.2817 22.5Z" fill="#9A4C18"/>
<path d="M28.0322 23.5303C27.7509 26.5303 24.9384 29.1553 21.6572 29.0615C18.4697 29.0615 16.5009 26.4365 17.0634 23.5303C17.6259 20.7178 20.3447 18.5615 23.1572 18.5615C26.1572 18.4678 28.3134 20.624 28.0322 23.5303Z" fill="#9A4C18"/>
<path d="M18.8438 27.0937L20.1562 27.75L26.7187 20.9062L25.6875 19.4062L18.8438 27.0937Z" fill="#F49937"/>
<path d="M27.3749 23.5307C27.0937 26.1557 24.7499 28.312 22.0312 28.312C19.4062 28.312 17.7187 26.1557 18.1874 23.6245C18.6562 21.187 20.9062 19.312 23.3437 19.312C25.8749 19.2182 27.6562 21.0932 27.3749 23.5307Z" fill="#F49937"/>
<path d="M26.5314 22.4992C26.2502 25.2179 23.7189 27.5617 20.8127 27.5617C18.0002 27.5617 16.1252 25.2179 16.6877 22.4992C17.1564 19.9679 19.5939 17.9054 22.2189 17.9054C24.8439 17.8117 26.8127 19.8742 26.5314 22.4992Z" fill="#FFEDC0"/>
<path d="M26.1562 22.687C25.8749 25.312 23.5312 27.4682 20.8124 27.4682C18.1874 27.4682 16.4999 25.312 16.9687 22.7807C17.4374 20.3432 19.6874 18.4682 22.1249 18.4682C24.5624 18.3745 26.4374 20.2495 26.1562 22.687Z" fill="#FFD766"/>
<path d="M25.1254 22.6875C24.9379 24.6563 23.0629 26.3438 21.0004 26.3438C18.9379 26.3438 17.6254 24.6563 18.0004 22.6875C18.3754 20.8125 20.1566 19.3125 22.0316 19.3125C23.9066 19.3125 25.3129 20.7188 25.1254 22.6875Z" fill="#FFEDC0"/>
<path d="M25.2191 22.2193C25.0316 24.188 23.1566 25.8755 21.0941 25.8755C19.0316 25.8755 17.7191 24.188 18.0941 22.313C18.4691 20.438 20.2504 18.938 22.1254 18.938C24.0004 18.8443 25.4066 20.2505 25.2191 22.2193Z" fill="#F49937"/>
<path d="M24.5626 22.6875C24.3751 24.375 22.7814 25.7812 21.0939 25.7812C19.4064 25.7812 18.2814 24.375 18.5626 22.6875C18.8439 21.0938 20.3439 19.7812 21.9376 19.7812C23.6251 19.7812 24.7501 21.0938 24.5626 22.6875Z" fill="#FFD766"/>
<path d="M22.4062 19.5L22.875 21.2813L24.8437 21.8438L23.0625 23.0625L22.875 25.125L21.2812 24L19.125 24.75L20.0625 22.6875L18.9375 21.1875L21.0937 21.0938L22.4062 19.5Z" fill="#F49937"/>
</g>
<defs>
<clipPath id="clip0_52_39606">
<rect width="30" height="30" fill="white"/>
</clipPath>
</defs>
</svg>
