<svg width="20" height="20" viewBox="0 0 20 20" fill="none" xmlns="http://www.w3.org/2000/svg">
<path d="M14.7975 0H12.1975C8.9975 0 6.9975 2 6.9975 5.2V9.25H13.2475C13.6575 9.25 13.9975 9.59 13.9975 10C13.9975 10.41 13.6575 10.75 13.2475 10.75H6.9975V14.8C6.9975 18 8.9975 20 12.1975 20H14.7875C17.9875 20 19.9875 18 19.9875 14.8V5.2C19.9975 2 17.9975 0 14.7975 0Z" fill="#FF4332"/>
<path d="M2.5575 9.24984L4.6275 7.17984C4.7775 7.02984 4.8475 6.83984 4.8475 6.64984C4.8475 6.45984 4.7775 6.25984 4.6275 6.11984C4.3375 5.82984 3.8575 5.82984 3.5675 6.11984L0.2175 9.46984C-0.0725 9.75984 -0.0725 10.2398 0.2175 10.5298L3.5675 13.8798C3.8575 14.1698 4.3375 14.1698 4.6275 13.8798C4.9175 13.5898 4.9175 13.1098 4.6275 12.8198L2.5575 10.7498H6.9975V9.24984H2.5575Z" fill="#FF4332"/>
</svg>
