<svg width="36" height="36" viewBox="0 0 36 36" fill="none" xmlns="http://www.w3.org/2000/svg">
<rect width="36" height="36" rx="18" fill="white"/>
<path d="M21.1381 13.9329L20.5505 13.3909L20.55 13.3915L21.1381 13.9329ZM13.7569 21.5446L13.1688 21.0032L13.1672 21.0049L13.7569 21.5446ZM13.1546 22.7972L12.3524 22.693L12.3506 22.7077L13.1546 22.7972ZM12.8219 25.6352L12.018 25.5457L12.0177 25.548L12.8219 25.6352ZM14.5031 27.1856L14.3669 26.4085L14.3657 26.4087L14.5031 27.1856ZM17.3981 26.7037L17.5343 27.4808L17.5397 27.48L17.3981 26.7037ZM18.6478 26.0468L18.0595 25.5054L18.0498 25.5157L18.6478 26.0468ZM26.029 18.4351L25.4414 17.8931L25.4409 17.8937L26.029 18.4351ZM25.8941 13.7927L26.4501 13.22L26.4486 13.2186L25.8941 13.7927ZM20.55 13.3915L13.1688 21.0032L14.3451 22.086L21.7263 14.4743L20.55 13.3915ZM13.1672 21.0049C12.9491 21.231 12.7687 21.5256 12.6381 21.7983C12.5071 22.0721 12.3937 22.3922 12.3525 22.693L13.9566 22.9014C13.9694 22.808 14.0179 22.6463 14.1048 22.4647C14.1923 22.2819 14.2861 22.1472 14.3467 22.0844L13.1672 21.0049ZM12.3506 22.7077L12.018 25.5457L13.6258 25.7246L13.9585 22.8866L12.3506 22.7077ZM12.0177 25.548C11.9354 26.2701 12.1573 26.9579 12.6708 27.4324C13.1852 27.9076 13.9028 28.0863 14.6406 27.9624L14.3657 26.4087C14.0606 26.4599 13.8792 26.3759 13.7844 26.2883C13.6888 26.2 13.5916 26.0249 13.6261 25.7222L12.0177 25.548ZM14.6394 27.9626L17.5343 27.4808L17.2619 25.9266L14.3669 26.4085L14.6394 27.9626ZM17.5397 27.48C17.8497 27.4263 18.1744 27.3003 18.4516 27.1559C18.7271 27.0124 19.0234 26.8155 19.2457 26.578L18.0498 25.5157C17.9934 25.576 17.8672 25.6725 17.6886 25.7655C17.5119 25.8576 17.3511 25.9112 17.2565 25.9276L17.5397 27.48ZM19.2359 26.5882L26.6171 18.9765L25.4409 17.8937L18.0596 25.5055L19.2359 26.5882ZM26.6166 18.9771C27.2995 18.2742 27.9178 17.4038 27.9926 16.3627C28.0703 15.2802 27.5497 14.2331 26.4501 13.22L25.3382 14.3655C26.2254 15.183 26.4107 15.8002 26.3782 16.2527C26.3428 16.7467 26.0351 17.2821 25.4414 17.8931L26.6166 18.9771ZM26.4486 13.2186C25.3524 12.2137 24.2528 11.7709 23.1505 11.9082C22.0906 12.0403 21.2337 12.6879 20.5505 13.3909L21.7258 14.4748C22.3193 13.864 22.8514 13.535 23.3558 13.4721C23.8178 13.4146 24.4579 13.5586 25.3397 14.3669L26.4486 13.2186Z" fill="#010101"/>
<path d="M20.7074 15.0831C20.6386 14.6529 20.2249 14.3585 19.7833 14.4255C19.3418 14.4925 19.0396 14.8956 19.1084 15.3258L20.7074 15.0831ZM24.7266 20.4998C25.1713 20.5434 25.568 20.2276 25.6128 19.7944C25.6576 19.3613 25.3334 18.9747 24.8888 18.9311L24.7266 20.4998ZM19.1084 15.3258C19.552 18.1001 21.8631 20.2188 24.7266 20.4998L24.8888 18.9311C22.7536 18.7216 21.0369 17.1439 20.7074 15.0831L19.1084 15.3258Z" fill="#010101"/>
</svg>
