<svg width="24" height="24" viewBox="0 0 24 24" fill="none" xmlns="http://www.w3.org/2000/svg">
<path d="M12.1341 12.8709L12.0157 13.6997C12.0643 13.7066 12.1135 13.7093 12.1626 13.7076L12.1341 12.8709ZM11.8662 12.8709L11.8377 13.7076C11.8819 13.7091 11.9261 13.7071 11.97 13.7016L11.8662 12.8709ZM15.6615 9.22065L16.4987 9.22539V9.22065H15.6615ZM12.2525 12.0421C12.0912 12.019 11.9153 12.021 11.7623 12.0401L11.97 13.7016C11.9779 13.7006 11.9906 13.6997 12.0043 13.6997C12.0107 13.6997 12.0155 13.6999 12.0183 13.7001C12.0214 13.7003 12.0205 13.7004 12.0157 13.6997L12.2525 12.0421ZM11.8947 12.0342C10.3797 11.9825 9.17595 10.7439 9.17595 9.22065H7.50153C7.50153 11.6491 9.42332 13.6253 11.8377 13.7076L11.8947 12.0342ZM9.17595 9.22065C9.17595 7.6609 10.4325 6.39647 12.0001 6.39647V4.72206C9.50447 4.72206 7.50153 6.73948 7.50153 9.22065H9.17595ZM12.0001 6.39647C13.5582 6.39647 14.8243 7.66257 14.8243 9.22065H16.4987C16.4987 6.73782 14.483 4.72206 12.0001 4.72206V6.39647ZM14.8243 9.21592C14.8157 10.7471 13.6163 11.9827 12.1056 12.0342L12.1626 13.7076C14.5812 13.6251 16.485 11.6459 16.4987 9.22539L14.8243 9.21592Z" fill="#93989A"/>
<path d="M19.524 20.238L20.0894 20.8554C20.2855 20.6759 20.3846 20.4138 20.3565 20.1494L19.524 20.238ZM4.47656 20.238L3.64405 20.1494C3.61592 20.4138 3.71506 20.6759 3.91115 20.8554L4.47656 20.238ZM6.45237 17.358L5.98914 16.6606L5.98497 16.6634L6.45237 17.358ZM17.5482 17.358L18.0155 16.6634L18.0138 16.6622L17.5482 17.358ZM18.9586 19.6205C17.1197 21.3044 14.685 22.3254 12.0003 22.3254V23.9998C15.1201 23.9998 17.9543 22.8106 20.0894 20.8554L18.9586 19.6205ZM12.0003 22.3254C9.3155 22.3254 6.88075 21.3044 5.04197 19.6205L3.91115 20.8554C6.04631 22.8106 8.8804 23.9998 12.0003 23.9998V22.3254ZM5.30907 20.3266C5.38802 19.5845 5.87344 18.7567 6.91977 18.0526L5.98497 16.6634C4.64247 17.5668 3.78836 18.7929 3.64405 20.1494L5.30907 20.3266ZM6.91559 18.0554C8.27906 17.1497 10.1234 16.6715 12.0086 16.6715C13.8942 16.6715 15.7315 17.1498 17.0826 18.0538L18.0138 16.6622C16.3285 15.5345 14.1473 14.9971 12.0086 14.9971C9.86974 14.9971 7.68428 15.5346 5.98915 16.6606L6.91559 18.0554ZM17.0808 18.0526C18.1271 18.7567 18.6125 19.5845 18.6915 20.3266L20.3565 20.1494C20.2122 18.7929 19.3581 17.5668 18.0155 16.6634L17.0808 18.0526Z" fill="#93989A"/>
<path d="M22.3255 12C22.3255 17.7026 17.7026 22.3255 12 22.3255V24C18.6274 24 24 18.6274 24 12H22.3255ZM12 22.3255C6.29733 22.3255 1.67442 17.7026 1.67442 12H0C0 18.6274 5.37257 24 12 24V22.3255ZM1.67442 12C1.67442 6.29733 6.29733 1.67442 12 1.67442V0C5.37257 0 0 5.37257 0 12H1.67442ZM12 1.67442C17.7026 1.67442 22.3255 6.29733 22.3255 12H24C24 5.37257 18.6274 0 12 0V1.67442Z" fill="#93989A"/>
</svg>
