<svg width="32" height="32" viewBox="0 0 32 32" fill="none" xmlns="http://www.w3.org/2000/svg">
<path d="M8.00002 22.3906C8.04152 23.8739 8.46148 25.3219 9.22002 26.5973C9.33086 26.8185 9.50106 27.0045 9.71157 27.1344C9.92209 27.2644 10.1646 27.3333 10.412 27.3333H16.1454C16.443 27.3335 16.7322 27.2341 16.9668 27.0509C17.2014 26.8678 17.368 26.6114 17.44 26.3226L18 24.0826L18.56 26.3226C18.6321 26.6114 18.7986 26.8678 19.0333 27.0509C19.2679 27.2341 19.557 27.3335 19.8547 27.3333H21.588C21.8359 27.3333 22.0789 27.2641 22.2897 27.1336C22.5005 27.0032 22.6708 26.8165 22.7814 26.5946C23.5403 25.3205 23.9599 23.8731 24 22.3906C24 18.4679 21.3334 17.2413 21.3334 15.7373C21.3334 13.8706 24 13.552 24 10.9293C24 8.09063 21.3334 8.37863 21.3334 6.61463V5.99996C21.3334 5.64634 21.1929 5.3072 20.9428 5.05715C20.6928 4.8071 20.3536 4.66663 20 4.66663H18.6667C18.3131 4.66663 17.9739 4.8071 17.7239 5.05715C17.4738 5.3072 17.3334 5.64634 17.3334 5.99996V6.79996C17.3336 7.05984 17.2696 7.31574 17.147 7.54488C17.0244 7.77402 16.847 7.96929 16.6307 8.1133C16.3939 8.2709 16.1815 8.46226 16 8.6813C15.8186 8.46226 15.6061 8.2709 15.3694 8.1133C15.153 7.96929 14.9757 7.77402 14.8531 7.54488C14.7305 7.31574 14.6665 7.05984 14.6667 6.79996V5.99996C14.6667 5.64634 14.5262 5.3072 14.2762 5.05715C14.0261 4.8071 13.687 4.66663 13.3334 4.66663H12C11.6464 4.66663 11.3073 4.8071 11.0572 5.05715C10.8072 5.3072 10.6667 5.64634 10.6667 5.99996V6.61463C10.6676 6.90723 10.5866 7.19425 10.433 7.44329C10.2794 7.69232 10.0592 7.89345 9.79736 8.02396C9.25577 8.29242 8.80028 8.70732 8.48259 9.22157C8.16489 9.73582 7.99771 10.3288 8.00002 10.9333C8.00002 13.5253 10.6667 13.9013 10.6667 15.7639C10.6667 17.1879 8.00002 18.4986 8.00002 22.3906ZM9.33336 10.924C9.33336 8.8253 12 9.38263 12 6.6093V5.99996H13.3334V6.79996C13.3326 7.27953 13.4508 7.75179 13.6771 8.17456C13.9035 8.59732 14.2311 8.95741 14.6307 9.22263C14.8466 9.36639 15.0238 9.56123 15.1463 9.78987C15.2689 10.0185 15.3332 10.2739 15.3334 10.5333C15.3334 10.7101 15.4036 10.8797 15.5286 11.0047C15.6536 11.1297 15.8232 11.2 16 11.2C16.1768 11.2 16.3464 11.1297 16.4714 11.0047C16.5964 10.8797 16.6667 10.7101 16.6667 10.5333C16.6664 10.2734 16.7305 10.0175 16.8531 9.78838C16.9757 9.55924 17.153 9.36397 17.3694 9.21996C17.7685 8.95499 18.0959 8.59533 18.3223 8.17307C18.5486 7.7508 18.667 7.27907 18.6667 6.79996V5.99996H20V6.61463C20 9.41463 22.6667 8.81196 22.6667 10.9293C22.6667 12.812 20 13.1133 20 15.7599C20 18.0999 22.6667 18.7213 22.6667 22.3906C22.6211 23.6659 22.2503 24.9083 21.5894 25.9999H19.856L18.648 21.1719C18.5981 21.0409 18.5095 20.9281 18.394 20.8485C18.2786 20.7689 18.1416 20.7263 18.0014 20.7263C17.8611 20.7263 17.7242 20.7689 17.6087 20.8485C17.4932 20.9281 17.4046 21.0409 17.3547 21.1719L16.1454 25.9999H10.412C9.75093 24.9083 9.37964 23.6659 9.33336 22.3906C9.33336 18.7586 12 18.1119 12 15.7373C12 13.092 9.33336 12.8333 9.33336 10.9333V10.924Z" fill="#9F9F9F"/>
</svg>
