<svg width="84" height="28" viewBox="0 0 84 28" fill="none" xmlns="http://www.w3.org/2000/svg">
<path d="M35.9469 14.7347C35.9469 18.7632 32.8348 21.7316 29.0155 21.7316C25.1961 21.7316 22.084 18.7632 22.084 14.7347C22.084 10.6779 25.1961 7.73779 29.0155 7.73779C32.8348 7.73779 35.9469 10.6779 35.9469 14.7347ZM32.9127 14.7347C32.9127 12.2173 31.1089 10.4949 29.0155 10.4949C26.922 10.4949 25.1183 12.2173 25.1183 14.7347C25.1183 17.2269 26.922 18.9745 29.0155 18.9745C31.1089 18.9745 32.9127 17.2237 32.9127 14.7347Z" fill="#EA4335"/>
<path d="M50.9 14.7347C50.9 18.7632 47.7879 21.7316 43.9686 21.7316C40.1493 21.7316 37.0371 18.7632 37.0371 14.7347C37.0371 10.681 40.1493 7.73779 43.9686 7.73779C47.7879 7.73779 50.9 10.6779 50.9 14.7347ZM47.8658 14.7347C47.8658 12.2173 46.062 10.4949 43.9686 10.4949C41.8751 10.4949 40.0714 12.2173 40.0714 14.7347C40.0714 17.2269 41.8751 18.9745 43.9686 18.9745C46.062 18.9745 47.8658 17.2237 47.8658 14.7347Z" fill="#FBBC05"/>
<path d="M65.2295 8.16051V20.7222C65.2295 25.8894 62.2202 27.9999 58.6625 27.9999C55.3136 27.9999 53.298 25.7317 52.5379 23.8768L55.1797 22.7632C55.6501 23.902 56.8027 25.2459 58.6594 25.2459C60.9367 25.2459 62.3479 23.8232 62.3479 21.1449V20.1386H62.242C61.5628 20.9872 60.2544 21.7285 58.6033 21.7285C55.1485 21.7285 51.9834 18.6811 51.9834 14.76C51.9834 10.8104 55.1485 7.73779 58.6033 7.73779C60.2513 7.73779 61.5597 8.47913 62.242 9.30248H62.3479V8.16366H65.2295V8.16051ZM62.5628 14.76C62.5628 12.2962 60.9398 10.4949 58.8744 10.4949C56.7809 10.4949 55.027 12.2962 55.027 14.76C55.027 17.1985 56.7809 18.9745 58.8744 18.9745C60.9398 18.9745 62.5628 17.1985 62.5628 14.76Z" fill="#4285F4"/>
<path d="M69.981 0.797852V21.3029H67.0215V0.797852H69.981Z" fill="#34A853"/>
<path d="M81.5145 17.0373L83.8696 18.6273C83.1095 19.7661 81.2777 21.7282 78.1126 21.7282C74.1873 21.7282 71.2559 18.6557 71.2559 14.7313C71.2559 10.5704 74.2122 7.73438 77.773 7.73438C81.3587 7.73438 83.1126 10.624 83.6858 12.1855L84.0005 12.9805L74.7636 16.8544C75.4708 18.2582 76.5705 18.9743 78.1126 18.9743C79.6577 18.9743 80.7294 18.2045 81.5145 17.0373ZM74.2652 14.5199L80.4397 11.9237C80.1001 11.0499 79.0783 10.441 77.8758 10.441C76.3337 10.441 74.1873 11.8196 74.2652 14.5199Z" fill="#EA4335"/>
<path d="M10.8816 12.915V9.94648H20.7601C20.8567 10.4638 20.9065 11.0758 20.9065 11.7383C20.9065 13.9655 20.3053 16.7194 18.3676 18.6816C16.4829 20.669 14.0748 21.729 10.8847 21.729C4.97196 21.729 0 16.8519 0 10.8645C0 4.87703 4.97196 0 10.8847 0C14.1558 0 16.486 1.2997 18.2368 2.99372L16.1682 5.08839C14.9128 3.89594 13.2118 2.96849 10.8816 2.96849C6.56387 2.96849 3.18692 6.49219 3.18692 10.8645C3.18692 15.2368 6.56387 18.7605 10.8816 18.7605C13.6822 18.7605 15.2773 17.6217 16.2991 16.5869C17.1277 15.7478 17.6729 14.5491 17.8879 12.9118L10.8816 12.915Z" fill="#4285F4"/>
</svg>
