<svg width="40" height="40" viewBox="0 0 40 40" fill="none" xmlns="http://www.w3.org/2000/svg">
<path d="M39.0849 19.9923H37.9853V5.33129C37.9853 2.38689 35.5984 0 32.6541 0H30.6548C30.2868 0 29.9885 0.298322 29.9885 0.666382V4.06507C28.4369 4.38182 27.3225 5.74684 27.3228 7.33044C27.3228 7.6985 27.6212 7.99682 27.9892 7.99682H33.3205C33.6886 7.99682 33.9869 7.6985 33.9869 7.33044C33.9872 5.74684 32.8729 4.38174 31.3213 4.06507V1.33284H32.6541C34.8624 1.33284 36.6526 3.12301 36.6526 5.33129V19.9923H0.899651C0.402813 19.9923 0 20.3951 0 20.8919V21.7582C0 22.255 0.402813 22.6579 0.899651 22.6579H39.0849C39.5817 22.6579 39.9845 22.255 39.9845 21.7582V20.8919C39.9845 20.3951 39.5818 19.9923 39.0849 19.9923Z" fill="#78797A"/>
<path d="M37.6187 23.9906H2.36573C2.17799 23.9905 2.0257 24.1425 2.02563 24.3302C2.02563 24.3348 2.0257 24.3393 2.02586 24.3438C2.28576 29.0886 4.34496 34.0001 7.35708 35.5128C6.35082 36.5874 6.40635 38.2743 7.48093 39.2805C8.55559 40.2868 10.2424 40.2313 11.2487 39.1567C12.0558 38.2948 12.1996 37.0045 11.6021 35.986H28.3622C27.9722 36.6369 27.8869 37.4259 28.1289 38.1451C28.5985 39.5404 30.1102 40.2909 31.5055 39.8213C32.9008 39.3518 33.6513 37.8401 33.1818 36.4448C33.0609 36.0858 32.8651 35.7568 32.6072 35.4794C35.6394 33.9667 37.6986 29.0553 37.9385 24.3104C37.9287 24.1381 37.7911 24.0005 37.6187 23.9906Z" fill="#78797A"/>
</svg>
