<svg width="20" height="20" viewBox="0 0 20 20" fill="none" xmlns="http://www.w3.org/2000/svg">
<path d="M10 20C15.5 20 20 15.5 20 10C20 4.5 15.5 0 10 0C4.5 0 0 4.5 0 10C0 15.5 4.5 20 10 20Z" fill="#42A846"/>
<path d="M7.03033 10.2196C6.73744 9.9267 6.26256 9.9267 5.96967 10.2196C5.67678 10.5125 5.67678 10.9874 5.96967 11.2803L7.03033 10.2196ZM9.33 13.5799L8.79967 14.1103C9.09238 14.403 9.56689 14.4032 9.85986 14.1107L9.33 13.5799ZM15.5299 8.45072C15.823 8.15808 15.8234 7.68321 15.5308 7.39006C15.2382 7.09691 14.7633 7.09649 14.4701 7.38912L15.5299 8.45072ZM5.96967 11.2803L8.79967 14.1103L9.86033 13.0496L7.03033 10.2196L5.96967 11.2803ZM9.85986 14.1107L15.5299 8.45072L14.4701 7.38912L8.80014 13.0491L9.85986 14.1107Z" fill="white"/>
</svg>
