<svg width="16" height="16" viewBox="0 0 16 16" fill="none" xmlns="http://www.w3.org/2000/svg">
<path fill-rule="evenodd" clip-rule="evenodd" d="M12.2283 8.81714C12.3377 8.70726 12.4242 8.5768 12.4829 8.4333C12.5416 8.28979 12.5712 8.13608 12.5702 7.98105C12.5691 7.82601 12.5374 7.67272 12.4767 7.53003C12.4161 7.38734 12.3278 7.25808 12.2169 7.14971L5.45232 0.364571C5.34377 0.249831 5.21303 0.158349 5.06805 0.0956783C4.92306 0.0330076 4.76685 0.000455856 4.6089 0C4.37861 0.00103188 4.1537 0.0697231 3.96213 0.197533C3.77056 0.325343 3.62077 0.506637 3.5314 0.718878C3.44202 0.931119 3.41699 1.16495 3.45942 1.3913C3.50185 1.61765 3.60986 1.82654 3.77004 1.992L3.76547 1.99543L9.6969 7.968L3.77118 13.984L3.77575 13.9886C3.60978 14.1522 3.49623 14.3616 3.44957 14.5899C3.4029 14.8183 3.42522 15.0554 3.51369 15.271C3.60215 15.4867 3.75277 15.6712 3.94637 15.801C4.13997 15.9308 4.36781 16.0001 4.6009 16C4.94147 16 5.24204 15.8514 5.45575 15.6194L12.2329 8.81943L12.2283 8.81714Z" fill="#0E0E0E"/>
</svg>
