<svg width="22" height="22" viewBox="0 0 22 22" fill="none" xmlns="http://www.w3.org/2000/svg">
<path d="M18.3369 0H16.247C13.849 0 12.584 1.26498 12.584 3.66294V5.75291C12.584 8.15088 13.849 9.41586 16.247 9.41586H18.3369C20.7349 9.41586 21.9999 8.15088 21.9999 5.75291V3.66294C21.9999 1.26498 20.7349 0 18.3369 0Z" fill="#1B1BDD"/>
<path d="M5.76391 12.5731H3.67395C1.26498 12.5731 0 13.8381 0 16.2361V18.326C0 20.735 1.26498 22 3.66295 22H5.75291C8.15088 22 9.41586 20.735 9.41586 18.337V16.2471C9.42686 13.8381 8.16188 12.5731 5.76391 12.5731Z" fill="#1B1BDD"/>
<path d="M4.71893 9.43786C7.32512 9.43786 9.43786 7.32512 9.43786 4.71893C9.43786 2.11274 7.32512 0 4.71893 0C2.11274 0 0 2.11274 0 4.71893C0 7.32512 2.11274 9.43786 4.71893 9.43786Z" fill="#7777EE"/>
<path d="M17.2811 22.0001C19.8873 22.0001 22.0001 19.8873 22.0001 17.2811C22.0001 14.675 19.8873 12.5622 17.2811 12.5622C14.675 12.5622 12.5622 14.675 12.5622 17.2811C12.5622 19.8873 14.675 22.0001 17.2811 22.0001Z" fill="#7777EE"/>
</svg>
