<svg width="439" height="65" viewBox="0 0 439 65" fill="none" xmlns="http://www.w3.org/2000/svg">
<g clip-path="url(#clip0_52_37212)">
<path fill-rule="evenodd" clip-rule="evenodd" d="M373.901 49.1883C368.628 55.0391 357.042 54.4926 350.848 50.2394C349.921 51.42 348.673 52.3072 347.253 52.794C345.833 53.2807 344.303 53.3462 342.846 52.9826C339.077 52.1067 336.813 48.9466 336.813 45.1243C336.813 40.9376 339.616 37.5288 343.726 37.0663C343.459 32.242 344.805 27.4738 348.119 23.8477C351.581 20.0534 356.443 18.3052 361.516 18.3052C366.211 18.3052 370.731 18.8412 373.912 22.5094C377.296 19.5769 381.437 18.3052 385.929 18.3052C390.508 18.3052 394.729 19.6505 398.121 22.702C398.513 21.9927 399.032 21.3611 399.652 20.8382C401.374 19.4714 403.567 18.8417 405.751 19.0865C408.056 19.2736 410.196 20.3595 411.707 22.11L413.97 24.8006L416.213 22.124C417.02 21.1463 418.039 20.364 419.191 19.8355C420.344 19.3071 421.601 19.0462 422.869 19.0724C427.424 19.0724 430.728 21.7771 430.728 26.4788V45.7479C430.728 50.4496 427.41 53.1543 422.869 53.1543C418.448 53.1543 415.197 50.6107 415.014 46.1473L414.759 46.4416C414.665 46.5546 414.547 46.6449 414.414 46.7056C414.28 46.7663 414.135 46.7958 413.988 46.7919C413.841 46.7951 413.696 46.7652 413.563 46.7046C413.429 46.6439 413.311 46.554 413.217 46.4416L412.961 46.1473C412.776 50.5967 409.514 53.1543 405.107 53.1543C402.017 53.1543 399.193 51.8755 397.925 49.1183C394.526 52.0507 390.403 53.382 385.873 53.382C381.343 53.382 377.272 52.0752 373.905 49.1568L373.901 49.1883Z" fill="#7F3E13"/>
<path fill-rule="evenodd" clip-rule="evenodd" d="M374.304 47.4012C369.049 53.252 357.446 52.716 351.265 48.4522C350.335 49.6324 349.084 50.5199 347.663 51.0088C346.241 51.4976 344.709 51.5673 343.249 51.2095C339.494 50.3336 337.23 47.1595 337.23 43.3512C337.23 39.147 340.033 35.7556 344.143 35.2932C343.863 30.4584 345.218 25.7007 348.522 22.064C351.984 18.2803 356.86 16.5215 361.919 16.5215C366.632 16.5215 371.134 17.0541 374.329 20.7257C377.713 17.8073 381.854 16.5215 386.328 16.5215C390.918 16.5215 395.143 17.8809 398.52 20.9184C398.909 20.2093 399.428 19.5804 400.051 19.0651C401.778 17.6964 403.976 17.0667 406.165 17.3133C408.47 17.4922 410.611 18.5753 412.121 20.3263L414.37 23.031L416.623 20.3333C417.43 19.3566 418.449 18.5759 419.602 18.0497C420.755 17.5236 422.012 17.2658 423.279 17.2958C427.834 17.2958 431.152 20.0005 431.152 24.7057V43.9748C431.152 48.6695 427.823 51.3671 423.279 51.3671C418.872 51.3671 415.607 48.8201 415.425 44.3602L415.179 44.6545C415.085 44.766 414.966 44.8552 414.833 44.9157C414.7 44.9763 414.555 45.0067 414.409 45.0048C414.262 45.0106 414.115 44.9819 413.982 44.9211C413.848 44.8602 413.73 44.7689 413.638 44.6545L413.372 44.3497C413.196 48.8096 409.938 51.3566 405.513 51.3566C402.437 51.3566 399.613 50.0778 398.331 47.3206C394.95 50.2635 390.823 51.5949 386.279 51.5949C381.802 51.5949 377.675 50.2916 374.308 47.3556L374.304 47.4012Z" fill="url(#paint0_linear_52_37212)"/>
<path d="M113.698 55.3721C112.584 60.6518 108.379 63.2759 102.669 63.2759H91.5977L89.7304 58.4236V55.7259C83.9847 61.3665 76.5117 63.847 68.3592 63.6683C58.3042 63.4861 49.2477 58.8896 44.1081 50.0853C42.8889 48.0008 41.5225 45.8812 40.517 43.6915C37.0311 46.7465 32.9355 48.183 28.1918 48.183H26.1072L26.1423 51.3081C26.1665 52.6068 26.0821 53.9052 25.89 55.1899C24.839 60.7955 20.1793 63.2724 14.791 63.2724H3.88117L0.0273503 58.5673V3.45757H26.899C33.906 3.45757 39.6517 7.47956 42.7803 13.6177C42.8153 13.6527 42.8153 13.7228 42.8503 13.7578C48.4209 5.78388 57.3652 1.93706 67.0664 1.93706C75.9407 1.93706 84.0232 5.06216 89.6988 11.7468V3.31393H116.571C121.745 3.31393 126.03 5.35996 129.323 8.98956V3.34896L140.815 3.27889C144.802 3.24386 148.501 4.61022 150.87 7.98406L157.267 15.6006V13.989C157.267 6.98207 162.081 3.2824 168.793 3.2824H180.327V3.63275L200.854 1.75138H200.889C207.43 1.89152 213.07 4.15827 217.45 8.75833L217.415 7.18177L218.494 1.14528L230.027 0.794929C234.732 0.65479 238.576 2.30142 240.538 5.6998L241.939 0.416554L253.437 0.066206C256.632 -0.0388983 259.975 0.710846 262.343 2.93906L287.099 3.76588L287.386 3.80091C293.167 4.66277 298.128 7.14323 301.827 11.5086L302.223 6.98207L305.205 1.05068L343.498 4.24936L342.667 14.4865C342.38 17.7938 341.266 19.5175 339.654 21.8894L340.66 21.9594L339.798 32.3052C339.511 35.7561 338.327 37.5149 336.564 39.9603L340.551 40.2826L339.689 50.5933C339.514 52.8216 338.828 55.0428 337.391 56.8085C336.708 57.6704 336.06 58.5603 335.38 59.4361C334.71 60.3904 333.938 61.269 333.078 62.0567C330.997 63.854 328.265 64.3935 325.57 64.2114L297.693 61.878L298.016 58.0698C294.242 61.9481 289.502 64.1028 283.932 64.6773L283.248 64.7474L257.491 63.9206L257.701 57.1659C253.252 60.1508 247.429 61.6223 242.181 61.8395C235.461 62.1198 227.816 60.4381 222.957 55.4422C222.036 54.4963 221.241 53.4367 220.589 52.289C217.281 57.5676 212.514 60.945 206.288 62.4211L205.569 62.5612L179.882 65.0137L179.202 57.7615C178.611 59.0207 177.722 60.1172 176.613 60.9566C172.234 64.369 164.796 63.9766 160.7 60.3085L160.665 60.2734L159.516 59.0893L152.86 51.1854C152.86 55.1023 152.572 58.6934 148.838 61.2754C146.718 62.7469 144.094 63.2899 141.543 63.2899H130.357L130.182 62.4631C125.294 64.87 120.407 63.325 116.672 59.2645C115.88 58.368 115.149 57.42 114.482 56.4266L113.726 55.3756H113.691L113.698 55.3721Z" fill="url(#paint1_linear_52_37212)"/>
<path d="M241.312 11.4349L241.172 6.54751L242.573 1.19419L253.494 0.843846C257.05 0.738742 260.07 1.7092 262.042 3.7167L287.043 4.55403L287.253 4.58906C293.91 5.59456 298.965 8.68813 302.451 13.5685L302.991 7.17463L305.689 1.85985L342.692 4.94291L341.901 14.4654C341.62 18.0389 340.289 19.5804 338.236 22.6039L339.777 22.7441L338.989 32.3016C338.663 36.0012 337.262 37.6198 335.072 40.6749L339.669 41.0673L338.881 50.5897C338.698 52.9616 337.945 54.899 336.722 56.3704C335.826 57.5196 333.639 60.5746 332.518 61.5065C330.612 63.1602 328.062 63.6612 325.581 63.4825L298.492 61.2193L298.958 55.8309C295.08 60.6797 289.976 63.3389 283.834 63.9485L283.224 64.0185L258.29 63.2268L258.542 55.6487C248.382 63.7067 226.422 63.5876 220.6 50.6913C217.405 56.5118 212.566 60.1752 206.085 61.6817L205.44 61.8219L180.615 64.1937L179.5 52.3029C179.395 55.4981 178.891 58.2588 176.158 60.3854C172.28 63.4054 165.273 63.3634 161.251 59.7758L160.13 58.6267L152.072 49.0692C152.072 53.5607 152.503 57.8279 148.372 60.6727C146.396 62.0741 143.916 62.5401 141.54 62.5401H131.058L130.806 61.3209C125.883 64.2638 121.031 62.8624 117.335 58.8054C116.343 57.7263 114.241 54.7063 113.271 53.375C112.92 59.6287 108.744 62.484 102.743 62.5751H92.2323L90.6137 58.3709V53.8444C84.9381 60.2383 77.2164 63.1497 68.4857 62.9535C58.676 62.7713 49.9173 58.3184 44.9178 49.7664C43.6216 47.5732 41.8628 44.7389 40.8888 42.4371C37.4414 45.8145 33.2723 47.4331 28.3114 47.4681H25.428C25.428 49.2199 25.5681 53.1788 25.2108 55.1197C24.2438 60.3749 19.8575 62.5226 14.865 62.5576H4.35459L0.938702 58.3534V4.35433H27.0046C33.8293 4.35433 39.2667 8.34829 42.1641 14.094C42.3813 14.5249 42.6336 14.9944 42.8648 15.4253C48.2181 6.98194 57.2291 2.84783 67.1894 2.84783C76.5998 2.84783 85.0782 6.47393 90.6102 14.1641V4.20368H116.694C122.404 4.20368 126.896 6.78925 130.238 11.3157V4.28426L140.98 4.21419C144.753 4.17916 148.197 5.46844 150.394 8.59354L158.171 17.8953V14.129C158.171 7.553 162.628 4.20368 168.913 4.20368H179.655V4.63811L200.991 2.66215C208.394 2.80229 214.248 5.78725 218.417 11.0705L218.312 7.35681L219.247 2.03853L230.168 1.68818C236.562 1.47798 241.197 4.74322 241.379 11.4278C241.379 11.4629 241.414 11.4979 241.414 11.533L241.312 11.4349Z" fill="#7F3E13"/>
<path d="M130.111 11.2541V4.20511L140.853 4.13504C144.626 4.1 148.077 5.39629 150.267 8.51438L158.062 17.8196V14.0569C158.062 7.48086 162.518 4.14205 168.804 4.14205H179.545V4.57297L200.888 2.59701C209.006 2.77219 215.218 6.3107 219.492 12.617L219.169 1.9804L230.093 1.63005C236.487 1.41284 241.122 4.67808 241.304 11.3697C241.557 12.193 242.454 12.158 242.916 11.4048L242.594 1.24467L253.514 0.894323C257.077 0.764694 260.097 1.75267 262.087 3.74966L287.091 4.57648L287.309 4.61151C295.318 5.79569 301.032 10.0699 304.441 16.8246L305.702 1.84376L342.706 4.93383L341.914 14.4528C341.591 18.3697 339.759 21.2075 336.813 22.4652L339.833 22.7175L339.041 32.275C338.691 36.4091 336.708 39.317 333.47 40.5011L339.721 41.0407L338.915 50.5596C338.414 56.3754 334.641 59.7562 328.79 59.2903L301.112 56.992L301.592 51.5055C297.784 56.3894 292.396 59.3008 285.497 59.8789L260.062 59.052L260.314 51.3269C255.858 54.995 249.243 56.7573 243.568 56.9324C235.457 57.1777 224.947 54.3749 221.618 46.2538C218.49 52.1397 213.315 56.0986 206.133 57.6051L180.803 60.012L179.612 47.5817V48.4085C179.612 54.981 175.162 58.3233 168.87 58.3233C165.314 58.3233 162.154 57.027 159.887 54.3013L151.696 44.5266V48.3804C151.696 54.9179 147.247 58.2953 140.954 58.2953H130.216V56.8939C124.936 60.1977 119.797 58.6456 115.852 54.0561L112.079 48.9165C111.826 55.1316 107.444 58.2953 101.337 58.2953H90.5919V47.3644C85.0564 55.016 76.4729 58.7157 67.0591 58.7157C59.3514 58.7157 52.3655 56.3824 46.7599 51.0081C42.7615 47.1815 40.104 42.1674 39.1819 36.7104C35.5523 40.9145 30.8436 42.9255 25.3081 42.9255H22.3652V48.419C22.3652 54.96 17.9088 58.3338 11.62 58.3338H0.888886V4.28569H26.9688C34.298 4.28569 40.1523 8.95582 42.7694 15.4162C48.0842 6.90278 57.1337 2.76868 67.1256 2.76868C76.5395 2.76868 85.0179 6.39828 90.5499 14.0849V4.14205H116.633C122.344 4.14205 126.835 6.72761 130.178 11.2541H130.111Z" fill="url(#paint2_linear_52_37212)"/>
<path d="M219.464 11.6492L219.141 1.9446H219.176L219.499 11.7193L219.464 11.6843V11.6492ZM242.888 10.5106L242.601 1.20537H242.636L242.923 10.4756L242.888 10.5106ZM342.618 4.94007H342.688L341.896 14.4625C341.616 17.7208 340.32 20.2363 338.162 21.7217L336.76 21.6166C339.703 20.3554 341.539 17.5176 341.861 13.6042L342.562 4.98562L342.618 4.94007ZM339.71 22.7237H339.78L338.992 32.2812C338.701 35.6936 337.265 38.3177 334.963 39.7541L333.421 39.614C336.655 38.4298 338.677 35.4799 338.992 31.3878L339.71 22.7237ZM339.605 41.0469H339.675L338.887 50.5693C338.382 56.3851 334.613 59.766 328.755 59.293L301.077 56.9947L301.147 56.1329L328.737 58.4312C334.588 58.9357 338.365 55.5233 338.869 49.7005L339.57 41.0819V41.0469H339.605ZM301.487 51.5749C297.679 56.3886 292.326 59.2615 285.501 59.836L260.066 59.0127L260.101 58.1123L285.536 58.9392C292.438 58.3646 297.798 55.4532 301.631 50.5659L301.561 51.5713L301.487 51.5749ZM260.279 51.3226C255.83 54.9522 249.25 56.7109 243.575 56.8931C235.454 57.1454 224.964 54.3426 221.622 46.225C218.497 52.1179 213.326 56.0698 206.137 57.5763L180.806 59.9727L179.622 47.5423V48.3692C179.622 54.9452 175.173 58.284 168.881 58.284C165.325 58.284 162.161 56.9877 159.898 54.262L151.707 44.4943V43.5939L159.898 53.3686C162.199 56.1013 165.363 57.3906 168.881 57.3906C175.187 57.3906 179.622 54.0483 179.622 47.4758V46.649L180.806 59.0688L206.137 56.6619C213.319 55.1554 218.458 51.1965 221.622 45.3106C224.999 53.4282 235.454 56.231 243.575 55.9787C249.25 55.8035 255.861 54.0378 260.321 50.3732L260.286 51.2736V51.3086L260.279 51.3226ZM151.672 47.5494V48.4497C151.672 54.9872 147.215 58.3646 140.93 58.3646H130.192V57.4572H140.933C147.219 57.4572 151.675 54.0798 151.675 47.5423L151.672 47.5494ZM130.181 56.9317C124.898 60.2354 119.762 58.6834 115.817 54.0938L112.044 48.9542C111.798 55.1694 107.409 58.3331 101.302 58.3331H90.5569V57.4327H101.299C107.405 57.4327 111.791 54.2795 112.04 48.0574L115.813 53.1935C119.765 57.748 124.901 59.3386 130.178 56.0313L130.181 56.9317ZM90.5569 47.4022C85.0214 55.0538 76.4379 58.7535 67.0275 58.7535C59.3024 58.7535 52.3304 56.4167 46.7284 51.0283C42.7285 47.2024 40.0697 42.1882 39.1469 36.7306C35.5173 40.9348 30.8086 42.9458 25.2801 42.9458H22.3372V42.0419H25.2801C30.8156 42.0419 35.5173 40.0309 39.1469 35.8267C40.0694 41.2854 42.7283 46.3008 46.7284 50.1279C52.3339 55.5163 59.3059 57.8356 67.0275 57.8356C76.4379 57.8356 85.0249 54.1359 90.5569 46.4843V47.4022ZM22.3687 47.5423V48.4427C22.3687 54.9802 17.9193 58.3576 11.627 58.3576H0.888886V57.4572H11.6305C17.9193 57.4572 22.3722 54.0798 22.3722 47.5423H22.3687Z" fill="#FF9701"/>
<path d="M327.778 55.9851C331.372 56.2724 333.313 54.5837 333.636 50.8841L334.101 45.3135L318.868 44.0523L319.443 37.0453L327.921 37.746C331.516 38.0333 333.457 36.3446 333.779 32.6099L334.245 27.0044L320.413 25.8552L320.988 19.0655L330.833 19.8888C334.424 20.1796 336.368 18.4874 336.684 14.7877L337.153 9.2172L308.05 6.76477L304.098 54.0021L327.816 55.9781L327.778 55.9851ZM203.975 54.3735L183.032 56.3495L178.575 9.17866L199.526 7.2027C207.321 7.37788 213.035 11.1161 216.658 18.4839C218.402 21.7745 219.49 25.3727 219.86 29.0784C220.207 32.7818 219.816 36.5172 218.711 40.0688C216.518 47.9692 211.634 52.7514 203.979 54.363L203.975 54.3735ZM206.995 29.8702C206.131 20.9947 202.406 16.7555 195.819 17.1526L193.304 17.4048L195.966 45.3556L198.478 45.1804C205.018 43.8491 207.856 38.7457 206.992 29.8702H206.995ZM260.381 39.785C260.521 44.2415 258.725 47.6188 254.993 49.9171C251.255 52.1803 246.981 53.403 242.135 53.5817C237.29 53.7604 232.935 52.7899 229.092 50.7439C225.248 48.6979 223.241 45.4256 223.094 40.9692L222.015 6.44245L228.952 6.23224C233.587 6.0921 235.959 8.06456 236.099 12.1181L236.926 38.4887C236.996 41.1514 238.649 42.4407 241.809 42.3426C244.97 42.2445 246.553 40.8711 246.444 38.1734L245.393 5.69621L252.33 5.47899C256.965 5.33885 259.337 7.31131 259.477 11.3718L260.381 39.785ZM283.876 56.5317L262.82 55.831L264.361 8.48147L285.417 9.16465C293.144 10.3255 298.329 14.7866 300.973 22.5479C302.278 26.0368 302.899 29.7445 302.801 33.4683C302.687 37.1833 301.827 40.8374 300.272 44.2134C297.119 51.7914 291.618 55.887 283.855 56.5352L283.876 56.5317ZM289.986 32.5819C290.238 23.6714 287.077 18.9884 280.502 18.5329L277.986 18.4629L277.054 46.5257L279.57 46.6659C286.226 46.1614 289.695 41.4947 289.951 32.5819H289.986Z" fill="#9A4C18"/>
<path d="M329.256 54.0804C332.847 54.3677 334.791 52.679 335.106 48.9759L335.572 43.4053L320.339 42.1441L320.917 35.1371L329.396 35.8378C332.987 36.1286 334.931 34.4364 335.247 30.7017L335.713 25.0962L321.881 23.94L322.462 17.1678L332.307 17.9946C335.902 18.2819 337.843 16.5932 338.158 12.8935L338.627 7.32302L309.528 4.87059L305.576 52.0975L329.287 54.0734H329.252L329.256 54.0804ZM205.453 52.4618L184.502 54.4378L180.053 7.26697L200.997 5.29101C208.796 5.46618 214.506 9.20789 218.136 16.5722C219.881 19.8631 220.966 23.4632 221.331 27.1702C221.68 30.8748 221.289 34.6117 220.182 38.1641C217.992 46.068 213.105 50.8467 205.453 52.4583V52.4618ZM208.484 27.9585C207.62 19.083 203.894 14.8438 197.308 15.2409L194.792 15.4931L197.437 43.4439L199.953 43.2687C206.493 41.942 209.335 36.841 208.48 27.9655L208.484 27.9585ZM261.87 37.8733C262.015 42.3274 260.218 45.7024 256.481 47.9984C252.747 50.2651 248.469 51.4843 243.624 51.6665C238.778 51.8487 234.409 50.8817 230.556 48.8357C226.702 46.7897 224.698 43.5174 224.554 39.061L223.489 4.55528L230.426 4.33806C235.061 4.19792 237.433 6.17038 237.573 10.2309L238.4 36.6016C238.47 39.2642 240.127 40.5535 243.305 40.4554C246.482 40.3573 248.045 38.9839 247.94 36.2863L246.889 3.80903L253.826 3.59182C258.461 3.45168 260.833 5.42414 260.973 9.48467L261.87 37.8733ZM285.368 54.613L264.301 53.9473L265.843 6.5943L286.899 7.27748C294.62 8.42662 299.805 12.8819 302.454 20.6432C303.761 24.1318 304.383 27.8395 304.286 31.5636C304.161 35.2784 303.294 38.9307 301.736 42.3052C298.583 49.8868 293.082 53.9823 285.319 54.627L285.368 54.613ZM291.464 30.6842C291.716 21.776 288.555 17.093 281.98 16.6353L279.464 16.5652L278.529 44.628L281.044 44.7682C287.701 44.2637 291.176 39.5935 291.429 30.6842H291.464Z" fill="url(#paint3_linear_52_37212)"/>
<path d="M334.14 44.6351L318.907 43.3739L319.698 33.7393L329.473 34.5662C332.416 34.8184 333.677 33.5151 333.888 30.6142L334.238 26.34L320.406 25.1909L321.212 15.7665L332.388 16.7019C335.331 16.9542 336.592 15.6964 336.802 12.785L337.153 8.54584L310.684 6.33164L306.932 50.9169L329.354 52.7842C332.297 53.0365 333.558 51.7787 333.775 48.8709L334.14 44.6351ZM205.236 51.1726C212.566 49.5961 216.913 45.0275 218.9 37.8594V37.8244C219.97 34.4254 220.349 30.8465 220.014 27.2987C219.679 23.751 218.636 20.3063 216.948 17.1679V17.1329C213.645 10.4517 208.54 6.75206 201.032 6.56988L181.455 8.44073L185.659 52.9874L205.236 51.1516V51.1867V51.1726ZM209.763 27.857C210.52 35.5647 208.687 42.8379 200.209 44.5616H200.139L196.26 44.8138L193.388 14.2775L197.241 13.9272H197.276C199.578 13.7263 201.885 14.2401 203.884 15.3986C208.053 17.9912 209.42 23.2674 209.84 27.829L209.763 27.857ZM248.207 5.0844L249.173 36.2653C249.279 40.0036 246.767 41.6537 243.246 41.7658C239.725 41.8779 237.104 40.3994 236.995 36.6647L236.162 10.2836C236.056 6.62243 233.828 5.54336 230.381 5.65196L224.74 5.82714L225.791 39.0226C225.896 42.9745 227.589 45.8123 231.106 47.6762C234.96 49.7257 239.192 50.514 243.501 50.3738C247.811 50.2337 251.98 49.1897 255.718 46.9264C259.095 44.8769 260.602 41.8954 260.458 37.9435L259.561 9.53031C259.456 5.86568 257.224 4.78661 253.781 4.89521L248.14 5.07039L248.207 5.0844ZM285.28 53.2887C292.753 52.6406 297.641 48.6536 300.513 41.7903V41.7553C301.991 38.5224 302.809 35.0275 302.92 31.4748C303.032 27.922 302.434 24.3828 301.162 21.0638V21.0217C298.755 13.9797 294.12 9.67045 286.717 8.5143L267.062 7.86616L265.591 52.6056L285.245 53.2537L285.28 53.2887ZM292.718 30.7263C292.466 38.4865 289.74 45.4585 281.111 46.1066H281.041L277.152 45.8544L278.168 15.2094L282.022 15.3496H282.057C290.718 15.9627 292.981 23.1098 292.764 30.7649L292.718 30.7263Z" fill="url(#paint4_linear_52_37212)"/>
<path d="M334.14 44.6347L318.906 43.3734L319.446 36.9411C319.516 35.9706 318.693 35.9356 318.584 36.871L317.827 45.8959L333.057 47.1572L332.847 49.5641C333.134 50.6782 333.709 49.6341 333.782 48.9194L334.133 44.6802V44.6452L334.14 44.6347ZM333.887 30.6208L334.238 26.3465L320.406 25.1974L320.91 19.3466C320.981 18.5898 320.154 18.3376 320.045 19.3116L319.379 27.6849L333.208 28.8235L332.955 31.6613C332.85 32.9226 333.852 31.339 333.926 30.6103H333.891L333.887 30.6208ZM335.639 15.8571C336.287 15.209 336.645 14.2035 336.753 12.8021L337.104 8.56289L312.422 6.51686C310.484 6.34168 310.554 8.92374 312.099 9.06739L336.063 11.0784L335.66 15.9237V15.8536L335.639 15.8571ZM219.825 33.3535C220.102 31.358 220.15 29.3374 219.968 27.331C219.618 23.5578 218.567 20.5413 216.913 17.199C213.609 10.5178 208.505 6.81815 200.997 6.63948L182.779 8.36319C181.272 8.50333 181.518 10.8787 183.129 10.6965L199.946 9.11994C207.454 9.29511 212.558 12.9983 215.862 19.6829C218.161 24.318 219.24 28.8095 219.015 33.4411C218.959 34.902 219.695 34.6147 219.821 33.357L219.825 33.3535ZM204.444 42.9075C203.117 43.7124 201.657 44.2725 200.132 44.5611L196.145 44.8484L193.594 17.8716C193.489 16.7575 192.228 17.0448 192.298 18.0118L195.066 47.3639L199.06 47.0766C201.68 46.5371 203.691 45.465 205.166 44.0216C206.063 43.1247 204.991 42.5851 204.409 42.9705L204.444 42.9075ZM249.709 7.45228L252.729 7.34718C256.177 7.24207 258.405 8.2791 258.51 11.9788L259.333 37.9921C259.368 39.2113 260.525 39.6037 260.49 37.922L259.589 9.50882C259.484 5.84419 257.256 4.76512 253.808 4.87372L249.639 5.01386C248.273 5.0489 248.378 7.49433 249.709 7.45579V7.45228ZM245.33 41.401C241.953 42.4065 237.104 41.5411 236.957 36.6222L236.13 10.2516C236.025 6.58692 233.797 5.51136 230.349 5.61646L226.215 5.7566C224.463 5.82667 224.919 8.23706 226.285 8.20903L229.263 8.10393C232.71 7.99883 234.939 9.03586 235.044 12.739L235.871 39.1097C235.976 42.8444 238.638 44.3649 242.121 44.2108C243.732 44.1757 245.134 43.7798 246.185 43.0196C247.236 42.2593 246.43 41.0366 245.319 41.3975L245.33 41.401ZM302.727 33.7809C303.228 29.6468 302.692 25.5127 301.151 21.0633C298.744 14.0213 294.109 9.71203 286.706 8.55588L268.6 7.94627C267.129 7.91124 267.521 10.4232 268.53 10.4618L285.662 11.0363C293.058 12.1575 297.696 16.4667 300.1 23.5438C301.332 26.8762 301.926 30.4108 301.852 33.9631C301.817 35.6167 302.531 35.3294 302.748 33.7879L302.727 33.7809ZM288.118 43.2999C286.394 44.8414 284.096 45.8504 281.041 46.0676L277.054 45.8504L277.951 18.9192C277.986 17.8401 277.019 17.5528 276.984 18.8841L276.013 48.3834L280 48.6006C284.099 48.3133 286.902 46.5511 288.689 44.0006C289.158 43.3559 288.654 42.8864 288.153 43.3559L288.118 43.2999Z" fill="white"/>
<path d="M25.6797 38.3075C30.0591 38.3075 33.5836 36.766 36.3478 33.6724C39.0528 30.6994 40.5628 26.831 40.587 22.8117C40.6921 18.6776 39.4729 15.104 36.8873 12.105C34.3018 9.10607 31.1381 7.6276 27.2948 7.6276H5.16335V53.7193H11.9391C16.4691 53.7193 18.7358 51.7434 18.7358 47.7634V38.304H25.6832L25.6797 38.3075ZM162.448 28.1054V13.4469C162.448 9.45992 164.712 7.49097 169.238 7.49097H176.028V47.7809C176.028 51.7329 173.765 53.7369 169.238 53.7369C166.726 53.7369 164.747 52.875 163.282 51.1513L148.077 33.0628V47.7774C148.077 51.7294 145.814 53.7334 141.28 53.7334H134.491V7.55403L141.28 7.519C144.188 7.48396 146.241 8.41589 147.496 10.3218L162.441 28.1405L162.448 28.1054ZM123.29 34.0613L129.47 42.4697C131.159 44.4456 131.947 46.2429 131.877 47.858C131.807 49.4731 130.977 50.9131 129.425 52.1673C127.873 53.4215 126.229 54.0732 124.467 53.9996C122.705 53.926 120.953 52.903 119.145 50.8009L108.439 36.1424V47.7039C108.439 51.6558 106.176 53.6598 101.649 53.6598H94.8734V7.41389H117.001C120.775 7.41389 123.938 8.88535 126.461 11.7932C128.983 14.7011 130.223 17.8683 130.223 21.2071C130.223 27.17 127.925 31.4442 123.287 34.0648L123.29 34.0613ZM108.418 16.7892V27.3487H112.331C116.185 27.3487 118.077 25.5969 118.077 22.0689C118.077 18.5409 116.175 16.7892 112.331 16.7892H108.418ZM22.6597 16.7892C26.5135 16.7892 28.4054 18.5409 28.4054 22.0689C28.4054 25.5969 26.503 27.3487 22.6597 27.3487H18.7463V16.7892H22.6597Z" fill="#B85A1B"/>
<path d="M25.2524 38.9524C29.6318 38.9524 33.1563 37.4108 35.9205 34.3208C38.6236 31.3465 40.1332 27.4789 40.1597 23.46C40.2648 19.3259 39.0456 15.7523 36.4601 12.7534C33.8745 9.75439 30.7074 8.26892 26.864 8.26892H4.73258V54.3642H11.5188C16.0453 54.3642 18.3086 52.3882 18.3086 48.4082V38.9489H25.2524V38.9524ZM162.018 28.7502V14.0917C162.018 10.1047 164.281 8.13578 168.807 8.13578H175.597V48.4258C175.597 52.3777 173.334 54.3817 168.807 54.3817C166.295 54.3817 164.316 53.5198 162.851 51.7891L147.646 33.7042V48.4363C147.646 52.3882 145.383 54.3922 140.857 54.3922H134.07V8.19885L140.867 8.16381C143.775 8.12878 145.828 9.06421 147.082 10.9666L162.028 28.7888L162.018 28.7502ZM122.859 34.7062L129.001 43.1145C130.69 45.0905 131.481 46.8877 131.408 48.5028C131.334 50.1179 130.511 51.5579 128.955 52.8121C127.4 54.0664 125.757 54.7145 123.998 54.6444C122.239 54.5744 120.477 53.5303 118.68 51.4458L107.987 36.7872V48.3487C107.987 52.3006 105.724 54.3046 101.19 54.3046H94.4006V8.09374H116.532C120.305 8.09374 123.469 9.5652 125.991 12.4731C128.514 15.381 129.765 18.5096 129.765 21.8484C129.765 27.8043 127.463 32.0891 122.828 34.7062H122.859ZM107.987 17.434V27.9935H111.9C115.754 27.9935 117.646 26.2418 117.646 22.7102C117.646 19.1787 115.744 17.4305 111.9 17.4305L107.987 17.434ZM22.2289 17.434C26.0828 17.434 27.9746 19.1858 27.9746 22.7138C27.9746 26.2418 26.0723 27.9935 22.2289 27.9935H18.3156V17.434H22.2289Z" fill="#B2B2B2"/>
<path d="M34.5153 10.8261C32.3643 9.11384 29.6863 8.20012 26.9373 8.24052H4.80584V53.9013H11.056C15.5825 53.9013 17.8458 51.9254 17.8458 47.9454V38.486H24.7476C29.127 38.486 32.6515 36.9445 35.4192 33.8509C38.1217 30.8763 39.6312 27.009 39.6584 22.9902C39.7635 18.8561 38.5443 15.2825 35.9553 12.2835C35.4934 11.753 35.0022 11.2489 34.4838 10.7735L34.5153 10.8261ZM161.537 28.2839V28.1087L162.056 28.7324V14.0563C162.056 10.0693 164.316 8.10038 168.842 8.10038H175.096V47.9699C175.096 51.9219 172.833 53.9259 168.306 53.9259C166.594 53.979 164.912 53.46 163.527 52.4509C163.28 52.2373 163.051 52.0029 162.844 51.7502L147.646 33.7073V33.8825L147.145 33.2834V47.998C147.145 51.9569 144.882 53.9539 140.355 53.9539H134.105V8.19848L140.895 8.16345C142.906 8.16345 144.486 8.59788 145.709 9.49477C146.045 9.82076 146.345 10.1813 146.606 10.5703L161.537 28.3785V28.2734V28.2839ZM122.379 34.2398L128.521 42.6482C130.209 44.6241 131.001 46.4179 130.927 48.0365C130.854 49.6551 130.031 51.0915 128.475 52.3458C126.92 53.6 125.276 54.2517 123.518 54.1816C122.369 54.1466 121.216 53.6771 120.032 52.7452C119.562 52.3176 119.119 51.8625 118.704 51.3823L107.997 36.7238V37.0111L107.493 36.2929V47.8543C107.493 51.8063 105.229 53.8102 100.703 53.8102H94.4808V8.02331H116.612C119.357 7.97499 122.034 8.87595 124.19 10.5738C124.674 11.013 125.13 11.481 125.557 11.9752C128.072 14.8831 129.33 18.0082 129.33 21.3505C129.33 27.3134 127.018 31.5994 122.393 34.2083V34.2433L122.379 34.2398ZM107.517 16.9677V27.5272H108.022V27.9616H111.939C115.792 27.9616 117.684 26.2099 117.684 22.6784C117.684 20.7024 117.075 19.266 115.852 18.4041C114.882 17.4687 113.4 16.9677 111.438 16.9677H107.517ZM21.7522 16.9677C23.7281 16.9677 25.1996 17.4336 26.1665 18.4041C27.3928 19.266 27.9989 20.7024 27.9989 22.6784C27.9989 26.1818 26.0965 27.9616 22.2532 27.9616H18.3503V27.5272H17.8458V16.9677H21.7522Z" fill="url(#paint5_linear_52_37212)"/>
<path d="M67.031 6.97824C80.3933 6.97824 91.24 17.6849 91.24 30.872C91.24 44.059 80.3793 54.7657 67.031 54.7657C53.6828 54.7657 42.815 44.0625 42.815 30.872C42.815 17.6814 53.6652 6.97824 67.031 6.97824Z" fill="#B85A1B"/>
<path d="M67.0315 8.23245C79.7141 8.23245 89.9513 18.3645 89.9513 30.8649C89.9513 43.3653 79.6756 53.4974 67.0315 53.4974C54.3875 53.4974 44.1083 43.3653 44.1083 30.8649C44.1083 18.3645 54.384 8.23245 67.0315 8.23245Z" fill="url(#paint6_radial_52_37212)"/>
<path d="M67.0309 10.3908C78.4873 10.3908 87.796 19.5524 87.796 30.8686C87.796 42.1848 78.5048 51.3464 67.0309 51.3464C55.5571 51.3464 46.2728 42.1813 46.2728 30.8651C46.2728 19.5489 55.5676 10.3873 67.0309 10.3873V10.3908Z" fill="white"/>
<path d="M55.0318 43.5137C53.9808 40.2064 52.625 35.7535 52.625 32.3025C52.625 18.7231 81.4025 18.1135 81.4025 32.3025C81.4025 35.7535 80.0362 40.2064 78.9956 43.5137L78.7083 43.9446C72.6018 49.368 61.4292 49.368 55.2841 43.9446L54.9968 43.5137H55.0318Z" fill="#9A4C18"/>
<path d="M56.2165 43.048C55.2811 40.1051 53.9182 35.6487 53.9182 32.3799C53.9182 20.3455 80.1943 19.7324 80.1943 32.3799C80.1943 35.6487 78.828 40.0876 77.8925 43.048C72.2519 48.044 61.8711 48.044 56.2656 43.048H56.2165Z" fill="#E5895B"/>
<path d="M53.9807 31.0869C55.7045 20.7026 78.3019 20.2016 80.0291 31.0519C79.9632 32.2454 79.8193 33.4332 79.5982 34.6079C76.0452 34.6184 72.495 34.8101 68.9616 35.1825C68.4221 35.2525 68.2434 35.757 67.0943 35.757C65.9451 35.757 65.5878 35.2525 65.0833 35.1825C61.5513 34.7919 58.0002 34.6001 54.4467 34.6079C54.2075 33.4538 54.0633 32.2821 54.0158 31.1044L53.9807 31.0869ZM75.1768 43.1214C70.328 45.7139 63.7204 45.7139 58.8681 43.1214C59.9044 43.2629 60.9477 43.3471 61.9932 43.3736C63.0442 43.3736 64.5788 43.2335 65.1183 42.2595C66.7299 39.3166 67.3815 39.3866 68.9721 42.2595C69.5117 43.23 71.0217 43.3736 72.0972 43.3736C73.1428 43.3471 74.1861 43.2629 75.2223 43.1214H75.1768Z" fill="#FAD395"/>
<path d="M52.7687 34.3906L55.8167 34.4607C55.7252 32.9865 55.7615 31.5072 55.9254 30.0393C56.4782 29.6204 57.1153 29.3263 57.7927 29.1775C57.0655 28.8529 56.4256 28.3606 55.9254 27.741C56.562 27.4601 57.2423 27.2906 57.9363 27.24C60.2872 27.6066 62.5736 28.3074 64.7261 29.3211L61.5309 29.5033C63.5419 30.0393 65.122 30.3266 67.0314 30.6524C70.6925 30.183 74.718 28.4242 77.6294 26.5884C77.818 26.9868 77.9853 27.3949 78.1304 27.8111C77.6678 28.4366 77.0301 28.9108 76.2981 29.174C76.9587 29.3612 77.5855 29.6521 78.1549 30.0358C78.3227 31.5034 78.359 32.9831 78.2635 34.4572L81.4622 34.3871C81.3242 32.4843 81.3605 30.5727 81.5708 28.6765C81.9548 28.1362 82.1893 27.5041 82.2505 26.8442C81.7134 27.0622 81.1413 27.1809 80.5618 27.1945C81.1339 26.8935 81.6172 26.4478 81.9632 25.9017C82.1535 24.653 82.2496 23.3916 82.2505 22.1285C81.3448 23.0457 80.2561 23.762 79.0553 24.2306C79.2305 23.7296 79.3776 23.0814 79.6649 22.0759C79.1639 20.6745 78.2285 19.6235 77.5628 18.4849C77.5221 19.4373 77.3536 20.38 77.0618 21.2876C76.4323 19.9872 75.7208 18.7281 74.9317 17.5179C73.4785 16.3505 71.9143 15.3284 70.2616 14.4664C71.3757 15.9378 72.6334 17.7001 73.3516 19.4588C72.4224 18.2887 71.427 17.1728 70.3702 16.1165C66.5969 15.2161 62.8973 15.0374 58.623 15.0024C60.7777 16.9048 62.109 18.0154 63.5804 20.0684C62.7887 19.5289 62.109 19.3677 60.4273 18.8772C58.63 19.0594 57.2286 19.4168 54.4714 20.2786C56.4123 21.179 57.6 21.9673 58.5354 22.8292C56.1588 23.2137 53.8564 23.9654 51.7107 25.0574C52.3857 25.2509 53.0188 25.5681 53.578 25.9928C53.1821 26.0278 52.7512 26.0629 52.3518 26.0629C52.7112 28.8266 52.8914 31.6107 52.8913 34.3976L52.7687 34.3906Z" fill="#7F3E13"/>
<path d="M55.7851 29.0366C55.2474 28.5298 54.8194 27.9181 54.5274 27.2394V27.2043L57.225 26.2339C60.5301 26.5683 63.7329 27.5707 66.6389 29.1803L66.779 28.4796C66.1309 26.903 65.3075 25.9676 63.8011 24.1003C65.7385 25.6838 66.779 26.868 67.6549 28.3745C67.627 28.6532 67.579 28.9295 67.5112 29.2013C68.0172 28.6678 68.4411 28.0621 68.769 27.404C68.6639 25.5717 68.4432 24.5312 67.8686 21.9036C68.8708 23.6307 69.4842 25.5556 69.6659 27.5442C69.4573 27.9645 69.2233 28.3716 68.9652 28.7634C69.5735 28.3925 70.1501 27.9718 70.6889 27.5056C70.9411 25.859 70.9411 25.0532 70.9061 22.7654C71.3852 24.4445 71.5549 26.1967 71.4071 27.9366C71.0848 28.2624 70.7064 28.5111 70.4016 28.8019C72.7614 28.1165 75.0121 27.0997 77.0862 25.7819C77.4255 25.3753 77.7148 24.9295 77.9481 24.4541L78.6663 22.1173C78.5262 21.7669 78.316 21.4166 78.1268 21.0382L77.2999 23.841C76.3295 21.865 75.5482 20.0713 74.287 18.0252C73.8757 17.6356 73.4301 17.2838 72.9556 16.9742C73.7124 18.4807 73.9611 19.4266 74.3921 20.4216C74.9555 21.2361 75.3586 22.1504 75.5797 23.1158C73.6038 20.6388 72.346 19.0167 69.8691 16.9356C66.977 16.309 64.0275 15.985 61.0683 15.9687C63.6189 18.302 64.8766 20.313 66.8841 23.1158C64.8791 21.6279 62.625 20.5092 60.2275 19.812C59.7265 19.7419 57.5649 20.313 56.8887 20.4952C58.1287 21.2704 59.2842 22.1734 60.3361 23.1893C59.1038 23.353 57.8889 23.6286 56.7065 24.0127C55.7156 24.2674 54.7439 24.5917 53.7986 24.9831L54.6605 25.7399C55.8447 25.5227 56.0969 25.4141 56.7626 25.344C56.4011 25.6484 56.0169 25.9248 55.6134 26.1708C54.8567 26.4581 54.177 26.6718 53.3116 26.9241C53.5639 29.1172 53.662 31.2684 53.7075 33.4615L54.8567 33.4966C54.8032 32.1625 54.8759 30.8265 55.0739 29.5061L55.7851 29.0366ZM81.3955 27.6773C80.656 27.9326 79.8796 28.0652 79.0972 28.0697C78.9036 28.4549 78.62 28.7878 78.2704 29.0402C78.5227 29.2153 78.7364 29.4711 78.9711 29.6533C79.1303 31.2081 79.1736 32.7726 79.1007 34.3339L80.5722 34.439C80.5021 33.1427 80.5021 31.2859 80.6072 29.1593C80.2106 29.3316 79.7819 29.4176 79.3495 29.4115C80.4636 28.7634 81.0382 28.3605 81.3955 27.7228V27.6773ZM78.9186 27.327C79.7965 26.9729 80.5474 26.3624 81.0732 25.5752C81.1647 25.1018 81.2128 24.621 81.2168 24.1388C80.385 24.6131 79.5054 24.9983 78.5927 25.2879C78.4876 25.4281 78.3475 25.6838 78.2424 25.8275C78.5024 26.2969 78.7182 26.7895 78.887 27.2989L78.9186 27.327Z" fill="#B85A1B"/>
<path d="M66.6354 29.2184L66.7756 28.5177C66.1274 26.9412 65.3041 26.0022 63.7976 24.1384C65.735 25.7149 66.7756 26.9061 67.6514 28.4126C67.6236 28.6913 67.5756 28.9677 67.5078 29.2394C68.0138 28.706 68.4376 28.1003 68.7655 27.4422C68.6604 25.6098 68.4397 24.6043 67.8651 21.9417C68.8674 23.6688 69.4807 25.5937 69.6624 27.5823C69.453 28.0032 69.2191 28.4115 68.9617 28.805C69.5693 28.433 70.1458 28.0123 70.6854 27.5473C70.9377 25.8936 70.9377 25.0948 70.9027 22.8035C71.3818 24.4838 71.5515 26.2372 71.4037 27.9782C71.0813 28.3005 70.703 28.5492 70.3982 28.84C72.217 28.2977 73.9774 27.576 75.6534 26.6854C76.0405 25.8745 76.3638 25.0346 76.6203 24.1734C76.2058 24.6663 75.7624 25.1343 75.2925 25.5748C75.4376 24.7925 75.5103 23.9986 75.5097 23.2029C73.5338 20.7225 72.276 19.1039 69.7991 17.0228C66.9031 16.399 63.9501 16.0785 60.9878 16.0664C63.5384 18.4032 64.7961 20.4107 66.8036 23.2135C64.7996 21.723 62.5453 20.603 60.147 19.9062C59.6425 19.8361 57.4843 20.4107 56.8047 20.6069C59.4853 21.6189 61.8692 23.2873 63.7381 25.4592C62.6239 25.2069 61.657 24.9547 60.3257 25.1369C62.9883 25.9602 64.9257 27.4702 66.5759 29.306L66.6354 29.2184Z" fill="#FF9701"/>
<path d="M71.1476 19.3398C71.9439 20.169 72.6101 21.114 73.1236 22.1426C73.0185 24.3358 72.4229 25.8458 71.547 27.643C72.05 24.8817 71.9024 22.0412 71.1161 19.3468L71.1476 19.3398ZM61.3028 21.8518C63.6652 22.4405 65.8826 23.5051 67.8193 24.9804C68.0658 25.9406 68.151 26.9351 68.0715 27.9233C65.987 24.9103 64.7292 24.045 61.3168 21.8518H61.3028ZM67.0485 19.2312C68.4149 19.9319 69.3118 20.4924 70.1386 20.9549C70.6396 23.6876 70.4259 24.9419 70.1386 27.4574C69.564 23.8277 69.1681 22.6436 67.0135 19.2312H67.0485Z" fill="#FDE049"/>
<path d="M67.1016 34.9291C65.9875 34.9291 65.5952 34.2809 65.0907 34.2284C59.9896 33.5277 53.9146 33.2229 49.7454 33.7624C49.1008 33.8325 49.1358 35.6298 49.9206 36.0607L50.6773 36.4916C50.8501 37.8 51.1326 39.0914 51.5217 40.3525C51.809 41.4315 52.31 42.1497 53.1333 42.5807C55.2179 43.6948 59.7443 44.4866 61.9726 44.5216C63.0236 44.5216 64.5581 44.3464 65.0977 43.1202C65.6746 41.6341 66.0368 40.0734 66.1732 38.4851C66.2783 37.5882 67.7918 37.5497 67.8619 38.5552C67.9798 40.1207 68.344 41.6577 68.941 43.1097C69.4805 44.2939 70.9905 44.5111 72.0661 44.5111C74.2943 44.476 78.8208 43.7193 80.9053 42.5702C81.7322 42.1392 82.2367 41.421 82.5169 40.3419C82.9011 39.0747 83.1777 37.7773 83.3438 36.4636L84.097 36.0327C84.8888 35.6017 84.9238 33.8395 84.2792 33.7344C80.1101 33.1949 74.0385 33.5172 68.934 34.2004C68.3944 34.2704 68.2158 34.901 67.0666 34.901L67.1016 34.9291Z" fill="#232323"/>
<path d="M50.1274 34.4641C50.0574 34.6743 50.1274 35.0737 50.2676 35.0386C52.6744 34.7128 56.1534 34.6077 64.7089 34.8985C60.0738 34.2854 54.759 33.8895 50.159 34.4676L50.1274 34.4641ZM83.971 34.4641C84.0411 34.6743 83.971 35.0737 83.8309 35.0386C81.424 34.7128 77.945 34.6077 69.3895 34.8985C74.0246 34.2854 79.3394 33.8895 83.9395 34.4676L83.971 34.4641Z" fill="#3C3C3C"/>
<path d="M51.7243 36.2614C51.8995 37.5927 52.1202 38.2759 52.4075 39.6037C52.6948 40.9316 53.1082 41.5797 53.9491 41.9756C56.4646 43.0512 59.3374 43.412 62.0071 43.4821C62.7077 43.5171 63.8744 43.3419 64.1967 42.6167C64.7748 41.2854 65.1322 38.9521 65.2478 37.4806C65.2828 36.871 65.0656 36.5837 64.491 36.4751C61.3379 35.7744 55.5817 35.4661 52.2288 35.7744C51.9416 35.8095 51.7243 35.9846 51.7594 36.2789L51.7243 36.2614ZM82.3342 36.2614C82.159 37.5927 81.9383 38.2759 81.6335 39.6037C81.3287 40.9316 80.9504 41.5797 80.092 41.9756C77.5765 43.0512 74.7037 43.412 72.034 43.4821C71.3508 43.5171 70.1666 43.3419 69.8443 42.6167C69.2698 41.2854 68.9089 38.9521 68.7933 37.4806C68.7583 36.871 68.9755 36.5837 69.55 36.4751C72.7032 35.7744 78.4594 35.4661 81.8122 35.7744C82.0995 35.8095 82.3167 35.9846 82.2817 36.2789L82.3342 36.2614Z" fill="#CCCCCC"/>
<path d="M51.7242 36.2615C51.8994 37.5928 52.1201 38.276 52.4074 39.6038C52.6176 40.6093 52.9119 41.2575 53.4584 41.6499C56.9729 39.4254 60.7837 37.7081 64.7782 36.5488L64.4523 36.4437C61.2992 35.722 55.543 35.4347 52.1902 35.743C51.9029 35.7956 51.6892 35.9742 51.7242 36.2615ZM69.8302 42.4767C73.5622 39.6002 77.7692 37.3994 82.2605 35.9742C82.2116 35.9032 82.1476 35.8437 82.0731 35.8002C81.9987 35.7566 81.9155 35.7299 81.8296 35.722C78.4908 35.3716 72.7416 35.687 69.5674 36.4227C69.4489 36.4332 69.334 36.4685 69.23 36.5264C69.1261 36.5843 69.0355 36.6633 68.9641 36.7585C68.8927 36.8537 68.8422 36.9628 68.8158 37.0788C68.7893 37.1947 68.7876 37.315 68.8107 37.4317C68.9167 39.1423 69.2428 40.832 69.7811 42.4592L69.8302 42.4767Z" fill="white"/>
<path fill-rule="evenodd" clip-rule="evenodd" d="M374.234 46.4322C369.35 52.7034 357.067 52.0973 351.111 47.5253C347.478 53.2009 337.903 51.1619 337.903 43.3701C337.903 39.2921 340.751 36.0689 344.867 35.9498C343.921 25.2782 351.153 17.2307 361.929 17.2307C366.722 17.2307 371.224 17.7772 374.262 21.7502C377.604 18.5971 381.773 17.2307 386.342 17.2307C391.082 17.2307 395.395 18.7092 398.765 22.0935C400.562 17.1536 408.074 16.5756 411.616 20.7867L414.383 24.1045L417.151 20.8007C417.893 19.9006 418.83 19.1806 419.891 18.6951C420.952 18.2096 422.109 17.9712 423.275 17.998C427.458 17.998 430.468 20.3978 430.468 24.7246V43.9938C430.468 48.31 427.444 50.7099 423.275 50.7099C419.106 50.7099 416.086 48.31 416.086 43.9938V42.5573L415.168 43.6364C415.076 43.7488 414.96 43.8388 414.829 43.8995C414.697 43.9602 414.553 43.9901 414.408 43.9868C414.261 43.9904 414.116 43.9607 413.982 43.9001C413.849 43.8394 413.731 43.7492 413.637 43.6364L412.702 42.5573V43.9833C412.702 48.2995 409.682 50.6994 405.513 50.6994C402.114 50.6994 399.48 49.1018 398.628 46.1694C395.23 49.4627 390.998 50.9342 386.286 50.9342C381.731 50.9342 377.576 49.5328 374.244 46.4042L374.234 46.4322Z" fill="url(#paint7_linear_52_37212)"/>
<path fill-rule="evenodd" clip-rule="evenodd" d="M347.257 41.2917C346.912 40.9075 346.485 40.6053 346.008 40.407C345.531 40.2088 345.016 40.1197 344.5 40.1461C343.983 40.1235 343.467 40.2144 342.989 40.4123C342.511 40.6102 342.082 40.9104 341.732 41.2917C341.021 42.0826 340.644 43.1189 340.681 44.1821C340.643 45.2413 341.02 46.2736 341.732 47.0585C342.087 47.4313 342.518 47.7241 342.995 47.9175C343.473 48.1108 343.986 48.2001 344.5 48.1796C345.018 48.2008 345.534 48.109 346.012 47.9106C346.491 47.7121 346.921 47.4118 347.271 47.0304C347.975 46.2404 348.351 45.2117 348.322 44.1541C348.354 43.1002 347.977 42.0748 347.271 41.2917H347.257ZM413.788 30.1927L419.128 23.7709C419.555 23.2517 420.098 22.8394 420.713 22.5663C421.328 22.2933 421.998 22.1671 422.67 22.1978C425.199 22.1978 426.478 23.3049 426.478 25.5436V44.8127C426.478 47.0374 425.199 48.1586 422.67 48.1586C420.14 48.1586 418.861 47.0374 418.861 44.8127V34.1937L413.788 40.1496L408.722 34.2287V44.8197C408.722 47.0444 407.444 48.1656 404.914 48.1656C402.384 48.1656 401.106 47.0444 401.106 44.8197V25.5506C401.106 23.2839 402.367 22.1663 404.914 22.2048C405.579 22.1857 406.239 22.3172 406.846 22.5897C407.453 22.8621 407.99 23.2683 408.417 23.7779L413.788 30.1927ZM399.459 34.9364C399.459 38.9444 398.158 42.191 395.556 44.6761C392.954 47.1589 389.661 48.3968 385.676 48.3898C381.696 48.3898 378.407 47.1531 375.832 44.6761C373.257 42.1991 371.978 38.9479 371.978 34.9364C371.978 30.925 373.257 27.6597 375.832 25.1687C378.407 22.6778 381.689 21.427 385.736 21.427C389.782 21.427 393.093 22.6778 395.633 25.1687C398.173 27.6597 399.466 30.9144 399.466 34.9364H399.459ZM390.35 30.1016C389.194 28.8404 387.652 28.1957 385.725 28.1957C383.799 28.1957 382.264 28.8369 381.094 30.1156C379.911 31.4384 379.283 33.1663 379.342 34.9399C379.28 36.7057 379.908 38.4263 381.094 39.7362C382.262 40.9974 383.806 41.6281 385.725 41.6281C387.645 41.6281 389.176 40.9869 390.336 39.7222C391.519 38.4049 392.146 36.6813 392.088 34.9119C392.137 33.144 391.511 31.4236 390.336 30.1016H390.35ZM371.67 43.5059C371.67 44.4379 370.934 45.4784 369.462 46.6591C367.991 47.8397 365.258 48.4108 361.271 48.4108C357.284 48.4108 354.001 47.1741 351.426 44.6971C348.851 42.2202 347.573 38.9689 347.573 34.9575C347.573 30.946 348.851 27.6807 351.426 25.1898C354.001 22.6988 357.284 21.448 361.331 21.448C365.377 21.448 368.11 22.0331 369.536 23.1998C370.962 24.3664 371.68 25.407 371.68 26.3529C371.682 27.2621 371.356 28.1416 370.762 28.8299C370.131 29.5516 369.466 29.9089 368.737 29.9089C368.008 29.9089 366.831 29.6287 365.234 29.0681C363.636 28.5076 362.452 28.2133 361.653 28.2133C357.351 28.2133 355.197 30.452 355.193 34.9294C355.188 39.4069 357.341 41.6456 361.653 41.6456C362.452 41.6456 363.65 41.3653 365.234 40.7907C366.817 40.2162 368.001 39.9499 368.737 39.9499C369.473 39.9499 370.138 40.3003 370.762 41.029C371.359 41.7212 371.685 42.606 371.68 43.52L371.67 43.5059Z" fill="#9A4C18"/>
<path fill-rule="evenodd" clip-rule="evenodd" d="M347.853 40.465C347.503 40.0871 347.075 39.7899 346.599 39.5939C346.123 39.3978 345.61 39.3078 345.095 39.3299C344.579 39.3086 344.065 39.399 343.587 39.5949C343.11 39.7908 342.68 40.0876 342.328 40.465C341.619 41.2633 341.243 42.3025 341.277 43.3694C341.243 44.4278 341.62 45.4582 342.328 46.2458C342.683 46.6186 343.113 46.9115 343.591 47.1048C344.068 47.2981 344.581 47.3874 345.095 47.3669C345.61 47.3865 346.124 47.2943 346.6 47.0965C347.076 46.8987 347.503 46.6001 347.853 46.2212C348.525 45.4128 348.893 44.3945 348.893 43.3431C348.893 42.2917 348.525 41.2735 347.853 40.465ZM414.384 29.38L419.744 22.9582C420.166 22.4412 420.702 22.0289 421.309 21.7536C421.917 21.4782 422.58 21.3473 423.247 21.3711C425.777 21.3711 427.056 22.4782 427.056 24.7169V43.986C427.056 46.2107 425.777 47.3143 423.247 47.3143C420.718 47.3143 419.439 46.2072 419.439 43.986V33.3775L414.366 39.3334L409.293 33.4055V43.9965C409.293 46.2212 408.032 47.3248 405.485 47.3248C402.938 47.3248 401.69 46.2177 401.69 43.9965V24.7274C401.69 22.4502 402.952 21.3431 405.485 21.3816C406.15 21.3619 406.81 21.4933 407.417 21.7657C408.024 22.0382 408.561 22.4447 408.988 22.9547L414.384 29.38ZM400.054 34.1097C400.054 38.1317 398.765 41.3689 396.155 43.8599C393.545 46.3509 390.269 47.5736 386.275 47.5736C382.281 47.5736 379.016 46.3369 376.43 43.8599C373.845 41.3829 372.577 38.1317 372.577 34.1097C372.577 30.0877 373.855 26.847 376.43 24.356C379.005 21.8651 382.302 20.6143 386.338 20.6143C390.374 20.6143 393.674 21.8651 396.232 24.356C398.79 26.847 400.065 30.1017 400.065 34.1097H400.054ZM390.945 29.2854C389.8 28.0242 388.255 27.3795 386.335 27.3795C384.415 27.3795 382.859 28.0207 381.703 29.2994C380.547 30.5782 379.951 32.1723 379.951 34.1237C379.951 36.0752 380.522 37.6622 381.703 38.9235C382.884 40.1848 384.401 40.8154 386.328 40.8154C387.19 40.8485 388.049 40.6953 388.846 40.3664C389.644 40.0375 390.361 39.5406 390.949 38.9095C392.123 37.5882 392.742 35.8655 392.68 34.0992C392.742 32.333 392.122 30.6104 390.949 29.2889L390.945 29.2854ZM372.261 42.6897C372.261 43.6076 371.526 44.6622 370.054 45.8429C368.583 47.0235 365.85 47.5946 361.866 47.5946C357.883 47.5946 354.607 46.3579 352.022 43.8809C349.436 41.404 348.168 38.1527 348.168 34.1307C348.168 30.1088 349.447 26.868 352.022 24.3771C354.597 21.8861 357.893 20.6354 361.929 20.6354C365.965 20.6354 368.705 21.2204 370.145 22.3871C371.585 23.5537 372.275 24.6118 372.275 25.5402C372.282 26.4544 371.956 27.3398 371.357 28.0312C371.122 28.3514 370.818 28.6146 370.468 28.8014C370.117 28.9882 369.729 29.0937 369.332 29.1103C368.586 29.1103 367.426 28.83 365.829 28.2589C364.231 27.6879 363.026 27.4181 362.248 27.4181C357.946 27.4181 355.793 29.6568 355.788 34.1342C355.783 38.6117 357.937 40.8504 362.248 40.8504C363.033 40.8504 364.231 40.5561 365.829 39.9956C367.426 39.435 368.586 39.1442 369.332 39.1442C370.079 39.1442 370.734 39.5156 371.357 40.2373C371.957 40.9275 372.284 41.8137 372.275 42.7283L372.261 42.6897Z" fill="white"/>
<path d="M433.347 9.59996C432.387 9.59996 431.448 9.88475 430.65 10.4183C429.851 10.9519 429.229 11.7103 428.861 12.5975C428.494 13.4848 428.398 14.4612 428.585 15.4031C428.772 16.345 429.235 17.2103 429.914 17.8894C430.593 18.5685 431.458 19.0309 432.4 19.2183C433.342 19.4057 434.318 19.3095 435.206 18.942C436.093 18.5745 436.851 17.9521 437.385 17.1535C437.919 16.355 438.203 15.4162 438.203 14.4558C438.201 13.1685 437.689 11.9345 436.779 11.0242C435.869 10.114 434.635 9.60182 433.347 9.59996ZM433.347 10.3497C434.161 10.349 434.956 10.5895 435.632 11.0408C436.308 11.4921 436.836 12.1339 437.147 12.885C437.459 13.6361 437.54 14.4627 437.382 15.2602C437.223 16.0577 436.832 16.7902 436.257 17.3652C435.682 17.9401 434.949 18.3316 434.152 18.4901C433.354 18.6485 432.528 18.5668 431.777 18.2554C431.026 17.9439 430.384 17.4166 429.933 16.7403C429.481 16.0639 429.241 15.2689 429.241 14.4558C429.241 13.9164 429.347 13.3823 429.553 12.8839C429.759 12.3855 430.062 11.9327 430.443 11.5513C430.824 11.1699 431.277 10.8675 431.776 10.6613C432.274 10.4551 432.808 10.3492 433.347 10.3497ZM431.484 11.8422V17.0694H432.23V15.5769H433.162L434.265 17.0694H435.194L433.996 15.4578C434.406 15.3061 434.75 15.0148 434.967 14.635C435.185 14.2552 435.261 13.811 435.184 13.3804C435.107 12.9497 434.88 12.5599 434.545 12.2793C434.209 11.9988 433.785 11.8452 433.347 11.8457L431.484 11.8422ZM432.23 12.5884H433.351C433.498 12.5884 433.644 12.6174 433.78 12.6738C433.916 12.7301 434.04 12.8127 434.144 12.9168C434.248 13.0209 434.33 13.1445 434.387 13.2805C434.443 13.4165 434.472 13.5623 434.472 13.7095C434.472 13.8568 434.443 14.0026 434.387 14.1386C434.33 14.2746 434.248 14.3982 434.144 14.5023C434.04 14.6064 433.916 14.689 433.78 14.7453C433.644 14.8017 433.498 14.8307 433.351 14.8307H432.23V12.5884Z" fill="#767676"/>
</g>
<defs>
<linearGradient id="paint0_linear_52_37212" x1="103321" y1="2225.01" x2="103321" y2="3565.8" gradientUnits="userSpaceOnUse">
<stop stop-color="#B85A1B"/>
<stop offset="1" stop-color="#7F3E13"/>
</linearGradient>
<linearGradient id="paint1_linear_52_37212" x1="164290" y1="3675.53" x2="164290" y2="7428.35" gradientUnits="userSpaceOnUse">
<stop stop-color="#B85A1B"/>
<stop offset="1" stop-color="#7F3E13"/>
</linearGradient>
<linearGradient id="paint2_linear_52_37212" x1="163518" y1="4746.37" x2="163518" y2="1510.72" gradientUnits="userSpaceOnUse">
<stop stop-color="#B85A1B"/>
<stop offset="1" stop-color="#FF9701"/>
</linearGradient>
<linearGradient id="paint3_linear_52_37212" x1="117755" y1="1877.62" x2="117755" y2="6526.22" gradientUnits="userSpaceOnUse">
<stop stop-color="#FF9701"/>
<stop offset="1" stop-color="#FDE049"/>
</linearGradient>
<linearGradient id="paint4_linear_52_37212" x1="115249" y1="5610.67" x2="115249" y2="2418.15" gradientUnits="userSpaceOnUse">
<stop stop-color="#FF9701"/>
<stop offset="1" stop-color="#FDE049"/>
</linearGradient>
<linearGradient id="paint5_linear_52_37212" x1="43713.1" y1="7148.86" x2="43713.1" y2="4862.76" gradientUnits="userSpaceOnUse">
<stop stop-color="#D0D0D0"/>
<stop offset="1" stop-color="white"/>
</linearGradient>
<radialGradient id="paint6_radial_52_37212" cx="0" cy="0" r="1" gradientUnits="userSpaceOnUse" gradientTransform="translate(851689 -933677) scale(1179.25 1149.8)">
<stop stop-color="white"/>
<stop offset="1" stop-color="#D0D0D0"/>
</radialGradient>
<linearGradient id="paint7_linear_52_37212" x1="101833" y1="4010.26" x2="101833" y2="1385.78" gradientUnits="userSpaceOnUse">
<stop stop-color="#B85A1B"/>
<stop offset="1" stop-color="#FF9701"/>
</linearGradient>
<clipPath id="clip0_52_37212">
<rect width="438.071" height="64.9844" fill="white" transform="translate(0.0273503)"/>
</clipPath>
</defs>
</svg>
