<svg width="20" height="22" viewBox="0 0 20 22" fill="none" xmlns="http://www.w3.org/2000/svg">
<g opacity="0.5">
<path d="M15.2733 9.724C15.1653 9.48533 14.9279 9.33333 14.6666 9.33333H11.9999V0.666667C11.9999 0.298667 11.7013 0 11.3333 0H8.66659C8.29859 0 7.99992 0.298667 7.99992 0.666667V9.33333H5.33325C5.07192 9.33333 4.83459 9.48667 4.72659 9.724C4.61725 9.96267 4.65992 10.2413 4.83192 10.4387L9.49859 15.772C9.62525 15.9173 9.80792 16 9.99992 16C10.1919 16 10.3746 15.916 10.5013 15.772L15.1679 10.4387C15.3413 10.2427 15.3813 9.96267 15.2733 9.724Z" fill="#10102D"/>
<path d="M17.3333 14.6667V18.6667H2.66667V14.6667H0V20.0001C0 20.7374 0.597333 21.3334 1.33333 21.3334H18.6667C19.404 21.3334 20 20.7374 20 20.0001V14.6667H17.3333Z" fill="#10102D"/>
</g>
</svg>
