<svg width="40" height="97" viewBox="0 0 40 97" fill="none" xmlns="http://www.w3.org/2000/svg">
<path d="M23.7761 -3.03943e-10L4.22941 0C1.90323 0 0 1.44939 0 3.21122L-4.00424e-10 18.0522C-4.396e-10 19.8184 1.90895 21.2635 4.22941 21.2635L23.7761 21.2635C26.1023 21.2635 28.0055 19.8141 28.0055 18.0522L28.0055 3.21122C28.0055 1.44939 26.0966 -3.33607e-10 23.7761 -3.03943e-10Z" fill="#6255FC"/>
<path d="M28.7515 93.7155L28.7515 96.8954L26.5446 96.8954L26.5446 87.3819L29.9007 87.3819C30.5711 87.3819 31.1457 87.4624 31.6245 87.6235C32.1077 87.7802 32.5038 87.9979 32.8129 88.2765C33.1263 88.555 33.357 88.8837 33.505 89.2624C33.653 89.6411 33.727 90.0503 33.727 90.49C33.727 90.9644 33.6509 91.3997 33.4985 91.7959C33.3461 92.192 33.1133 92.5315 32.7998 92.8145C32.4864 93.0974 32.0881 93.3194 31.6049 93.4805C31.1261 93.6372 30.558 93.7155 29.9007 93.7155L28.7515 93.7155ZM28.7515 92.0505L29.9007 92.0505C30.4753 92.0505 30.8889 91.9134 31.1413 91.6392C31.3938 91.3649 31.5201 90.9819 31.5201 90.49C31.5201 90.2723 31.4874 90.0743 31.4221 89.8958C31.3568 89.7173 31.2567 89.5649 31.1218 89.4387C30.9912 89.3081 30.8236 89.208 30.619 89.1384C30.4187 89.0687 30.1793 89.0339 29.9007 89.0339L28.7515 89.0339L28.7515 92.0505Z" fill="#282C38"/>
<path d="M39.012 91.6065C38.9597 91.6892 38.9031 91.748 38.8422 91.7828C38.7856 91.8176 38.7116 91.835 38.6202 91.835C38.5244 91.835 38.4287 91.8155 38.3329 91.7763C38.2371 91.7327 38.1327 91.687 38.0195 91.6392C37.9107 91.5913 37.7866 91.5477 37.6473 91.5086C37.508 91.465 37.3491 91.4433 37.1706 91.4433C36.9138 91.4433 36.7158 91.4933 36.5765 91.5935C36.4415 91.6892 36.374 91.8242 36.374 91.9983C36.374 92.1245 36.4176 92.229 36.5046 92.3117C36.596 92.3944 36.7158 92.4684 36.8638 92.5337C37.0118 92.5946 37.1793 92.6534 37.3665 92.71C37.5537 92.7666 37.7452 92.8297 37.9411 92.8994C38.137 92.969 38.3285 93.0517 38.5157 93.1475C38.7029 93.2389 38.8705 93.3542 39.0185 93.4935C39.1665 93.6285 39.284 93.7939 39.3711 93.9898C39.4625 94.1857 39.5082 94.4207 39.5082 94.695C39.5082 95.0302 39.4473 95.3392 39.3254 95.6222C39.2035 95.9051 39.0207 96.1489 38.7769 96.3535C38.5375 96.5581 38.2393 96.717 37.8824 96.8301C37.5298 96.9433 37.1228 96.9999 36.6613 96.9999C36.4306 96.9999 36.1999 96.9781 35.9692 96.9346C35.7385 96.8911 35.5143 96.8323 35.2967 96.7583C35.0834 96.6843 34.8853 96.5972 34.7025 96.4971C34.5197 96.3927 34.3629 96.2816 34.2324 96.1641L34.7025 95.4198C34.7591 95.3327 34.8265 95.2652 34.9049 95.2173C34.9833 95.1651 35.0855 95.139 35.2118 95.139C35.3293 95.139 35.4338 95.1651 35.5252 95.2173C35.621 95.2696 35.7233 95.3262 35.8321 95.3871C35.9409 95.448 36.0672 95.5046 36.2108 95.5569C36.3588 95.6091 36.5438 95.6352 36.7658 95.6352C36.9225 95.6352 37.0553 95.62 37.1641 95.5895C37.2729 95.5547 37.36 95.509 37.4253 95.4524C37.4906 95.3958 37.5385 95.3327 37.5689 95.263C37.5994 95.1934 37.6147 95.1216 37.6147 95.0476C37.6147 94.9126 37.5689 94.8016 37.4775 94.7146C37.3861 94.6275 37.2664 94.5535 37.1184 94.4926C36.9704 94.4273 36.8006 94.3685 36.6091 94.3163C36.4219 94.2597 36.2304 94.1966 36.0345 94.1269C35.8386 94.0573 35.6449 93.9746 35.4534 93.8788C35.2662 93.7787 35.0986 93.6546 34.9506 93.5066C34.8026 93.3542 34.6829 93.1692 34.5915 92.9516C34.5001 92.7339 34.4544 92.4706 34.4544 92.1615C34.4544 91.8742 34.5088 91.6022 34.6176 91.3453C34.7308 91.0841 34.8984 90.8556 35.1204 90.6597C35.3424 90.4638 35.621 90.3093 35.9562 90.1961C36.2913 90.0786 36.6831 90.0198 37.1315 90.0198C37.3752 90.0198 37.6103 90.0416 37.8367 90.0851C38.0674 90.1287 38.2828 90.1896 38.4831 90.268C38.6833 90.3463 38.8661 90.4399 39.0316 90.5487C39.197 90.6532 39.3428 90.7686 39.469 90.8948L39.012 91.6065Z" fill="#282C38"/>
</svg>
