<svg width="30" height="30" viewBox="0 0 30 30" fill="none" xmlns="http://www.w3.org/2000/svg">
<g clip-path="url(#clip0_52_71332)">
<path d="M19.1258 17.0625C20.6258 17.7188 22.032 19.2187 22.5008 21.375C22.9695 23.625 22.3133 26.25 20.907 27.4687C19.9695 28.3125 18.8445 28.5 17.8133 28.5C15.1883 28.5 12.657 27.4688 10.032 26.3438C9.18827 25.9688 8.25077 25.5938 7.50077 24.9375C6.75077 24.2812 6.09452 23.25 6.00077 22.0312C5.81327 20.3437 6.65702 18.6562 7.78202 17.7187C9.65702 16.2187 11.6258 15.6562 13.5945 15.6562C15.3758 15.6562 17.4383 16.4062 19.1258 17.0625Z" fill="#3E2470"/>
<path d="M18.8446 17.5313C20.2508 18.0938 21.5634 19.3125 22.0321 21.1875C22.5009 23.0625 21.8446 25.3125 20.5321 26.3438C19.6883 27 18.6571 27.1875 17.6258 27.1875C15.1883 27.1875 12.7508 26.25 10.3133 25.4063C9.4696 25.125 8.7196 24.75 7.9696 24.1875C7.2196 23.625 6.6571 22.6875 6.56335 21.6563C6.37585 20.1563 7.2196 18.75 8.25085 18C10.0321 16.7813 11.9071 16.2188 13.7821 16.2188C15.2821 16.4062 17.3446 16.9688 18.8446 17.5313Z" fill="#8980F9"/>
<path d="M17.0625 18.2805C18 18.843 18.8438 19.8743 18.9375 21.093C19.0313 22.4055 18.2812 23.718 17.1562 24.2805C16.4062 24.6555 15.6562 24.5618 14.9062 24.468C13.125 24.093 11.4375 23.2493 9.75 22.3118C9.1875 22.0305 8.625 21.6555 8.15625 21.1868C7.6875 20.718 7.40625 20.0618 7.40625 19.3118C7.5 18.3743 8.25 17.5305 9.09375 17.1555C10.5937 16.593 12 16.4993 13.3125 16.7805C14.625 17.0618 16.0313 17.718 17.0625 18.2805Z" fill="#E5A98C"/>
<path d="M16.5006 18.375C17.3443 18.8438 18.0006 19.6875 18.0943 20.7188C18.1881 21.75 17.5318 22.9688 16.6881 23.3438C16.1256 23.625 15.4693 23.625 14.8131 23.4375C13.3131 23.1563 11.9068 22.4063 10.5943 21.6563C10.1256 21.375 9.65684 21.0938 9.28184 20.7188C8.90684 20.3438 8.62559 19.7813 8.71934 19.2188C8.81309 18.375 9.37559 17.7188 10.1256 17.4375C11.3443 16.9688 12.4693 16.875 13.6881 17.1562C14.4381 17.3437 15.5631 17.9063 16.5006 18.375Z" fill="#FAEACF"/>
<path opacity="0.6" d="M8.53125 17.3438C8.53125 17.3438 9.75 20.625 11.1562 21C12.5625 21.2812 15.1875 21.8438 18.375 18.375L8.53125 17.3438Z" fill="#3E2470"/>
<path opacity="0.28" d="M19.9232 23.5995C20.3709 21.8435 19.8392 20.1918 18.7354 19.9103C17.6316 19.6289 16.3738 20.8242 15.926 22.5802C15.4782 24.3362 16.01 25.9879 17.1138 26.2694C18.2176 26.5509 19.4754 25.3555 19.9232 23.5995Z" fill="white"/>
<path d="M23.0625 11.5313C25.03 11.5313 26.625 9.93626 26.625 7.96875C26.625 6.00124 25.03 4.40625 23.0625 4.40625C21.095 4.40625 19.5 6.00124 19.5 7.96875C19.5 9.93626 21.095 11.5313 23.0625 11.5313Z" fill="#3E2470"/>
<path d="M22.5938 10.9688C24.1988 10.9688 25.5 9.66758 25.5 8.0625C25.5 6.45742 24.1988 5.15625 22.5938 5.15625C20.9887 5.15625 19.6875 6.45742 19.6875 8.0625C19.6875 9.66758 20.9887 10.9688 22.5938 10.9688Z" fill="#5D44CC"/>
<path d="M9.09375 7.59375C11.0613 7.59375 12.6562 5.99876 12.6562 4.03125C12.6562 2.06374 11.0613 0.46875 9.09375 0.46875C7.12624 0.46875 5.53125 2.06374 5.53125 4.03125C5.53125 5.99876 7.12624 7.59375 9.09375 7.59375Z" fill="#3E2470"/>
<path d="M9.1875 9C10.7926 9 12.0938 7.69883 12.0938 6.09375C12.0938 4.48867 10.7926 3.1875 9.1875 3.1875C7.58242 3.1875 6.28125 4.48867 6.28125 6.09375C6.28125 7.69883 7.58242 9 9.1875 9Z" fill="#5D44CC"/>
<path d="M17.1562 0.375C17.1562 0.375 22.125 0.46875 24.1875 5.53125L21.5625 5.15625L17.1562 0.375Z" fill="#3E2470"/>
<path d="M10.0312 1.78125C10.0312 1.78125 4.12491 5.15625 7.59366 11.9062C11.0624 18.6562 21.7499 14.0625 22.5937 12.8438C23.4374 11.625 26.0624 6.84375 23.2499 4.6875C20.4374 2.53125 10.0312 1.78125 10.0312 1.78125Z" fill="#5D44CC"/>
<path d="M7.49922 6.93709C7.49922 6.93709 6.09297 16.6871 10.1242 19.2183C14.1555 21.7496 18.843 21.6558 23.343 11.0621C23.343 11.0621 23.6242 5.43708 17.6242 4.40583C11.9992 3.56208 7.59297 5.81209 7.49922 6.93709Z" fill="#BC7458"/>
<path d="M7.87571 7.21925C7.87571 7.21925 6.56321 16.313 10.2195 18.6567C13.9695 21.0005 18.3757 20.9067 22.5007 11.063C22.5007 11.063 22.6882 5.90675 17.2507 4.96925C12.0945 4.1255 7.96946 6.28175 7.87571 7.21925Z" fill="#E5A98C"/>
<path d="M7.9693 7.7809C7.9693 7.7809 6.75055 15.9371 10.2193 18.0934C13.7818 20.2496 17.813 20.0622 21.4693 11.3434C21.4693 11.3434 21.563 6.74965 16.5943 5.9059C11.813 4.9684 8.06305 6.8434 7.9693 7.7809Z" fill="#E8CCAA"/>
<path d="M8.06177 8.34419C8.06177 8.34419 6.93677 15.9379 10.1243 17.9067C13.3118 19.8754 17.0618 19.6879 20.4368 11.5317C20.4368 11.5317 20.5305 7.31294 15.9368 6.46919C11.5305 5.71919 8.15552 7.50044 8.06177 8.34419Z" fill="#FAEACF"/>
<path d="M19.7804 9.84462C19.4054 9.56337 18.9367 9.28212 18.3742 9.18837C17.1554 8.90712 16.0304 9.56337 15.8429 10.5946L15.5617 12.3759C15.4679 13.2196 16.1242 13.9696 16.9679 14.3446C17.9054 14.7196 19.0304 14.3446 19.4992 13.5946C19.7804 13.1259 20.0617 12.5634 20.3429 11.9071C20.6242 11.0634 20.4367 10.3134 19.7804 9.84462Z" fill="#3C505B"/>
<path d="M19.5004 10.3132C19.2192 10.032 18.7504 9.75072 18.1879 9.65697C17.0629 9.37572 15.9379 10.1257 15.6567 11.2507L15.3754 13.1257C15.2817 14.0632 15.8442 14.907 16.6879 15.1882C17.6254 15.4695 18.6567 15.0945 19.1254 14.2507C19.4067 13.782 19.7817 13.1257 19.9692 12.3757C20.3442 11.7195 20.1567 10.8757 19.5004 10.3132Z" fill="white"/>
<path d="M16.4068 11.2504C17.0631 10.2192 18.0943 9.7504 18.7506 10.3129C19.5006 10.8754 19.5943 12.3754 19.0318 13.5942C18.3756 15.0004 17.1568 15.4692 16.4068 14.7192C15.6568 13.9692 15.7506 12.4692 16.4068 11.2504Z" fill="#A075D1"/>
<path d="M16.5944 11.2494C17.0632 10.4994 17.8132 10.2181 18.3757 10.5931C18.9382 11.0619 19.0319 12.0931 18.6569 13.0306C18.1882 14.0619 17.2507 14.4369 16.6882 13.8744C16.0319 13.2181 16.0319 12.0931 16.5944 11.2494Z" fill="#3C505B"/>
<path d="M17.3436 11.8124C17.5311 11.5311 17.9999 11.4374 18.2811 11.6249C18.5624 11.8124 18.7499 12.2811 18.4686 12.6561C18.2811 13.1249 17.7186 13.2186 17.4374 12.9374C17.1561 12.6561 17.0624 12.1874 17.3436 11.8124Z" fill="white"/>
<path d="M11.9069 8.43683C11.5319 8.24933 11.0631 8.06183 10.5006 8.06183C9.37561 7.96808 8.43811 8.81183 8.53186 9.74933C8.53186 10.2181 8.62561 10.7806 8.62561 11.3431C8.71936 12.0931 9.37561 12.7493 10.3131 12.8431C11.2506 13.0306 12.0944 12.5618 12.3756 11.7181C12.5631 11.2493 12.6569 10.6868 12.7506 10.0306C12.9381 9.46808 12.5631 8.81183 11.9069 8.43683Z" fill="#3C505B"/>
<path d="M11.9062 9C11.5312 8.8125 11.0625 8.625 10.5 8.53125C9.375 8.53125 8.53125 9.375 8.53125 10.5L8.625 12.375C8.71875 13.2187 9.375 13.9688 10.2187 14.1562C11.1562 14.3438 12 13.7812 12.2812 12.8437C12.4688 12.2812 12.6562 11.625 12.6562 10.875C12.9375 10.2188 12.5625 9.375 11.9062 9Z" fill="white"/>
<path d="M9.09432 10.313C9.46932 9.18796 10.3131 8.62546 11.0631 9.00046C11.8131 9.37546 12.2818 10.7817 12.0006 12.0942C11.7193 13.5005 10.5943 14.2505 9.75057 13.5942C8.90682 13.0317 8.71932 11.5317 9.09432 10.313Z" fill="#A075D1"/>
<path d="M9.28086 10.4068C9.56211 9.56304 10.2184 9.18804 10.7809 9.46929C11.3434 9.75054 11.7184 10.7818 11.5309 11.7193C11.2496 12.7505 10.4996 13.313 9.84336 12.8443C9.18711 12.3755 8.99961 11.2505 9.28086 10.4068Z" fill="#3C505B"/>
<path d="M10.2194 10.7819C10.4069 10.4069 10.6882 10.3131 11.0632 10.4069C11.4382 10.5006 11.6257 10.9694 11.5319 11.3444C11.4382 11.8131 10.9694 12.0006 10.5944 11.8131C10.1257 11.6256 10.0319 11.1569 10.2194 10.7819Z" fill="white"/>
<path d="M9.09463 7.3125C9.09463 7.3125 12.9384 7.875 13.1259 7.59375C13.3134 7.40625 13.5946 6.65625 13.1259 6.46875C12.5634 6.28125 9.18838 6.28125 9.18838 6.28125C9.18838 6.28125 8.71963 6.65625 9.09463 7.3125ZM16.6884 8.0625C16.6884 8.0625 20.2509 9.65625 20.5321 9.46875C20.8134 9.28125 21.2821 8.71875 20.8134 8.34375C20.3446 7.96875 16.9696 7.03125 16.9696 7.03125C16.9696 7.03125 16.4071 7.3125 16.6884 8.0625Z" fill="#A67A65"/>
<path d="M10.0312 18.1875L7.6875 11.9062C7.78125 11.9062 7.59375 16.4062 10.0312 18.1875Z" fill="#E5A98C"/>
<path d="M15.1875 19.0312L19.5 13.875C19.5 13.875 18.0938 18.1875 15.1875 19.0312Z" fill="#E8CCAA"/>
<path d="M21.6562 12.2814C21.6562 12.2814 22.5937 11.6251 23.3437 12.3751C24.0937 13.1251 22.9688 16.4064 20.3438 15.9376L21.6562 12.2814Z" fill="#BC7458"/>
<path d="M17.4378 0.375C17.4378 0.375 21.844 1.78125 23.344 5.34375C24.9378 9.1875 21.6565 13.875 21.6565 13.875C21.6565 13.875 20.6253 8.0625 19.594 7.21875C18.469 6.375 15.844 4.6875 17.4378 0.375Z" fill="#5D44CC"/>
<path d="M18.2821 2.53125C18.2821 2.53125 17.5321 5.71875 15.3758 6C13.2196 6.28125 8.43832 6.28125 7.40707 9.09375C7.40707 9.09375 6.75082 6.46875 7.87582 3.65625C9.00082 0.84375 14.5321 -0.9375 17.8133 0.5625C21.0946 2.0625 18.0946 2.53125 18.0946 2.53125" fill="#5D44CC"/>
<path d="M21.4687 12.4683C21.4687 12.4683 22.125 11.9995 22.6875 12.562C23.25 13.1245 22.4062 15.4683 20.5312 15.187L21.4687 12.4683Z" fill="#E5A98C"/>
<path d="M7.96811 6.9375C7.96811 6.9375 6.18686 6.65625 6.28061 4.6875C6.28061 4.6875 5.90561 7.875 7.78061 10.0312C7.68686 10.0312 7.78061 8.15625 7.96811 6.9375ZM22.6869 4.3125C22.6869 4.3125 24.1869 6.375 23.3431 8.8125C22.4994 11.25 21.3744 12.1875 21.3744 12.1875C21.3744 12.1875 22.2181 12.75 22.0306 13.5C22.0306 13.5 24.0931 11.3438 24.4681 8.8125C24.8431 6.28125 24.1869 5.0625 22.7806 4.40625" fill="#3E2470"/>
<path d="M16.0312 1.31175C16.0312 1.31175 11.25 0.467999 8.4375 4.49925C8.4375 4.49925 7.6875 4.968 7.59375 6.6555C7.59375 6.6555 8.0625 5.24925 8.8125 4.968C9.5625 4.7805 13.9688 3.74925 15.0938 2.99925C16.2188 2.24925 16.5938 1.87425 16.0312 1.31175ZM19.125 2.5305C19.125 2.5305 19.2188 4.49925 21.0938 6.093C22.9688 7.68675 22.4062 4.968 19.125 2.5305Z" fill="#8980F9"/>
<path d="M15.0932 17.25C15.0932 17.25 12.937 16.5938 10.9682 15.75C10.9682 15.75 10.7807 18 12.0932 18.6563C13.4995 19.2188 15.0932 17.25 15.0932 17.25Z" fill="#BC7458"/>
<path d="M17.625 18.6562L16.5938 21L25.5 25.7813L26.4375 23.625L17.625 18.6562Z" fill="#AA5D18"/>
<path d="M18.0934 26.5318L17.6247 19.1255C17.5309 18.2818 18.6559 17.9068 19.2184 18.188L25.8747 21.563C26.8122 22.0318 26.9997 23.6255 25.9684 24.188L19.2184 27.563C18.7497 27.8443 18.0934 27.2818 18.0934 26.5318Z" fill="#AA5D18"/>
<path d="M16.8742 29.0621L16.4055 21.7496C16.3117 20.9059 16.968 20.1559 17.5305 20.4371L24.843 24.0934C25.8742 24.5621 25.7805 25.9684 24.7492 26.5309L18.3742 29.8121C17.9055 30.1871 16.968 29.8121 16.8742 29.0621Z" fill="#AA5D18"/>
<path d="M17.438 28.3126L17.063 21.9376C16.9693 21.1876 17.5318 20.5313 18.0943 20.8126L24.4693 24.0001C25.313 24.3751 25.313 25.5938 24.3755 26.0626L18.4693 29.1563C18.0005 29.3438 17.438 28.8751 17.438 28.3126Z" fill="#D98521"/>
<path d="M24.5625 23.3437H25.9688L24.9375 25.5937L17.0625 21.375L18 19.3125L24.5625 23.3437Z" fill="#D98521"/>
<path d="M18.3755 26.3439L18.0005 19.9689C17.9067 19.2189 18.4692 18.4689 19.2192 18.8439L25.5005 22.0314C26.3442 22.5001 26.3442 23.7189 25.4067 24.1876L19.4067 27.1876C18.938 27.3751 18.3755 26.9064 18.3755 26.3439Z" fill="#FFE9BD"/>
<path d="M18.5625 25.968L18.1875 19.8742C18.1875 19.1242 18.6562 18.5617 19.125 18.7492L25.2188 21.843C26.0625 22.218 25.9687 23.4367 25.125 23.9055L19.5 26.8117C19.125 26.9992 18.6562 26.5305 18.5625 25.968Z" fill="url(#paint0_linear_52_71332)"/>
<path d="M23.9062 21.1875L24.1875 24.5625L25.4063 23.9063L25.125 21.8437L23.9062 21.1875ZM21.5625 20.0625L22.125 25.6875L23.25 25.0313L22.875 20.7188L21.5625 20.0625Z" fill="#FFE9BD"/>
<path d="M16.7812 21.0938L17.0625 24L18.1875 23.0625L18 19.875C18 19.875 18 19.5 18.1875 19.2188L16.7812 21.0938Z" fill="url(#paint1_linear_52_71332)"/>
<path d="M22.875 25.4063L22.2188 27.5625L24.9375 26.0625L26.0625 23.3438C26.0625 23.3438 25.7812 23.7188 25.5 24C25.5 24 25.2187 24.1875 24.9375 24.2812L22.875 25.4063Z" fill="url(#paint2_linear_52_71332)"/>
<path opacity="0.2" d="M18.9375 27.0938L18.0938 29.1563C18.0938 29.1563 17.8125 29.0625 17.625 28.7813L18.6563 26.625L18.9375 27.0938Z" fill="#FFE9BD"/>
</g>
<defs>
<linearGradient id="paint0_linear_52_71332" x1="18.6631" y1="27.2988" x2="22.6312" y2="20.1175" gradientUnits="userSpaceOnUse">
<stop stop-color="#FFB554"/>
<stop offset="1" stop-color="#FFEA61"/>
</linearGradient>
<linearGradient id="paint1_linear_52_71332" x1="17.3558" y1="20.4057" x2="17.6518" y2="22.8487" gradientUnits="userSpaceOnUse">
<stop stop-color="#AA5D18"/>
<stop offset="1" stop-color="#AA5D18" stop-opacity="0"/>
</linearGradient>
<linearGradient id="paint2_linear_52_71332" x1="26.0016" y1="24.3161" x2="23.3617" y2="25.9838" gradientUnits="userSpaceOnUse">
<stop stop-color="#AA5D18"/>
<stop offset="1" stop-color="#AA5D18" stop-opacity="0"/>
</linearGradient>
<clipPath id="clip0_52_71332">
<rect width="30" height="30" fill="white"/>
</clipPath>
</defs>
</svg>
