<svg width="15" height="15" viewBox="0 0 15 15" fill="none" xmlns="http://www.w3.org/2000/svg">
<path d="M5.47729 14.2409H9.52205C12.8927 14.2409 14.2409 12.8927 14.2409 9.52205V5.47729C14.2409 2.10665 12.8927 0.758394 9.52205 0.758394H5.47729C2.10665 0.758394 0.758394 2.10665 0.758394 5.47729V9.52205C0.758394 12.8927 2.10665 14.2409 5.47729 14.2409Z" stroke="white" stroke-width="1.5" stroke-linecap="round" stroke-linejoin="round"/>
<path d="M5.54378 7.49999V6.50229C5.54378 5.2147 6.45385 4.69562 7.56616 5.33604L8.42905 5.8349L9.29193 6.33375C10.4042 6.97417 10.4042 8.02581 9.29193 8.66623L8.42905 9.16509L7.56616 9.66394C6.45385 10.3044 5.54378 9.77854 5.54378 8.4977V7.49999Z" stroke="white" stroke-width="1.5" stroke-miterlimit="10" stroke-linecap="round" stroke-linejoin="round"/>
</svg>
