<svg width="13" height="14" viewBox="0 0 13 14" fill="none" xmlns="http://www.w3.org/2000/svg">
<path d="M7.63702 5.27292L6.10491 4.24285C6.03665 4.19527 5.95605 4.16852 5.87289 4.16584C5.73088 4.16584 5.58587 4.27185 5.58587 4.50987V6.67503C5.58587 6.91205 5.72988 7.01905 5.87189 7.01905C5.95517 7.01619 6.03581 6.98908 6.10391 6.94105L7.63402 5.91297C7.75284 5.85117 7.82739 5.72838 7.82739 5.59445C7.82739 5.46052 7.75284 5.33772 7.63402 5.27592L7.63702 5.27292Z" fill="#636363"/>
<path fill-rule="evenodd" clip-rule="evenodd" d="M6.80501 0.524539H12.6955V0.525539C12.8636 0.525539 13 0.661879 13 0.830062C13 0.998246 12.8636 1.13459 12.6955 1.13459V1.74863C12.6911 1.91496 12.5556 2.04752 12.3897 2.04865H12.3914V9.75823C12.3914 9.92625 12.1804 10.0723 12.0124 10.0723H6.80501V12.4054H9.44621C9.61439 12.4054 9.75073 12.5418 9.75073 12.71C9.75073 12.8781 9.61439 13.0145 9.44621 13.0145H3.55977C3.39158 13.0145 3.25524 12.8781 3.25524 12.71C3.25524 12.5418 3.39158 12.4054 3.55977 12.4054H6.19497V10.0723H0.993575C0.914516 10.069 0.840202 10.0336 0.78775 9.9744C0.735299 9.91515 0.709232 9.83711 0.715554 9.75823V2.04465H0.615546C0.447556 2.04581 0.309412 1.91255 0.304523 1.74463V1.13359C0.13634 1.13359 0 0.997246 0 0.829062C0 0.660879 0.13634 0.524539 0.304523 0.524539H6.19597V0.304523C6.19597 0.13634 6.3323 0 6.50049 0C6.66867 0 6.80501 0.13634 6.80501 0.304523V0.524539ZM3.65477 5.58992C3.65477 7.15853 4.92638 8.43013 6.49499 8.43013L6.49399 8.43113C7.24761 8.4314 7.97043 8.13214 8.50332 7.59925C9.03621 7.06637 9.33547 6.34354 9.3352 5.58992C9.3352 4.02131 8.06359 2.74971 6.49499 2.74971C4.92638 2.74971 3.65477 4.02131 3.65477 5.58992Z" fill="#636363"/>
</svg>
