<svg width="253" height="24" viewBox="0 0 253 24" fill="none" xmlns="http://www.w3.org/2000/svg">
<g opacity="0.75" clip-path="url(#clip0_52_115716)">
<path d="M141.102 20C148.649 20 152.777 13.8438 152.777 8.50515C152.777 8.3303 152.777 8.15623 152.765 7.98295C153.568 7.41105 154.262 6.70293 154.812 5.89176C154.064 6.21847 153.269 6.43273 152.456 6.52739C153.312 6.02249 153.953 5.22838 154.26 4.29285C153.454 4.76343 152.573 5.09507 151.654 5.27346C151.035 4.62577 150.217 4.19689 149.326 4.05318C148.435 3.90947 147.52 4.05894 146.724 4.47848C145.928 4.89801 145.294 5.56421 144.922 6.37398C144.549 7.18376 144.457 8.09196 144.661 8.95805C143.03 8.87753 141.434 8.46013 139.977 7.73294C138.52 7.00576 137.235 5.98505 136.204 4.73708C135.68 5.62645 135.519 6.67929 135.755 7.68123C135.991 8.68317 136.606 9.55888 137.475 10.1301C136.822 10.111 136.183 9.93757 135.612 9.62439C135.612 9.64093 135.612 9.65826 135.612 9.67559C135.613 10.6083 135.941 11.5123 136.541 12.2341C137.141 12.9559 137.976 13.4512 138.905 13.6359C138.3 13.7981 137.667 13.8218 137.052 13.7052C137.314 14.5079 137.824 15.2099 138.512 15.7129C139.199 16.216 140.029 16.4949 140.885 16.5107C139.432 17.6351 137.637 18.2454 135.789 18.2436C135.463 18.2429 135.137 18.2235 134.812 18.1853C136.689 19.3709 138.872 19.9998 141.102 19.9968" fill="#191919"/>
</g>
<g opacity="0.75" clip-path="url(#clip1_52_115716)">
<path d="M185.812 12C185.812 7.02943 181.783 3 176.812 3C171.842 3 167.812 7.02943 167.812 12C167.812 16.4922 171.104 20.2155 175.406 20.8907V14.6016H173.121V12H175.406V10.0172C175.406 7.76156 176.75 6.51562 178.806 6.51562C179.79 6.51562 180.82 6.69141 180.82 6.69141V8.90625H179.685C178.567 8.90625 178.219 9.60001 178.219 10.3117V12H180.715L180.316 14.6016H178.219V20.8907C182.521 20.2155 185.812 16.4922 185.812 12Z" fill="#191919"/>
</g>
<g opacity="0.75" clip-path="url(#clip2_52_115716)">
<path fill-rule="evenodd" clip-rule="evenodd" d="M208.813 3C206.369 3 206.062 3.01069 205.102 3.05438C204.144 3.09825 203.49 3.24994 202.918 3.4725C202.326 3.70238 201.824 4.00989 201.324 4.51033C200.823 5.01058 200.515 5.51271 200.285 6.10447C200.062 6.67691 199.91 7.33111 199.867 8.28887C199.824 9.24888 199.812 9.55582 199.812 12.0001C199.812 14.4444 199.823 14.7502 199.867 15.7102C199.911 16.6683 200.063 17.3223 200.285 17.8946C200.515 18.4865 200.823 18.9887 201.323 19.4889C201.823 19.9895 202.325 20.2978 202.917 20.5277C203.489 20.7502 204.144 20.9019 205.102 20.9458C206.062 20.9895 206.368 21.0002 208.812 21.0002C211.257 21.0002 211.562 20.9895 212.523 20.9458C213.481 20.9019 214.135 20.7502 214.708 20.5277C215.3 20.2978 215.801 19.9895 216.301 19.4889C216.802 18.9887 217.109 18.4865 217.34 17.8948C217.561 17.3223 217.713 16.6681 217.758 15.7104C217.801 14.7504 217.812 14.4444 217.812 12.0001C217.812 9.55582 217.801 9.24906 217.758 8.28905C217.713 7.33092 217.561 6.67691 217.34 6.10466C217.109 5.51271 216.802 5.01058 216.301 4.51033C215.801 4.0097 215.3 3.70219 214.708 3.4725C214.134 3.24994 213.479 3.09825 212.521 3.05438C211.561 3.01069 211.256 3 208.811 3H208.813ZM208.513 4.6218L208.813 4.62189C211.216 4.62189 211.501 4.63052 212.45 4.67364C213.328 4.71377 213.804 4.86039 214.121 4.98358C214.541 5.14671 214.841 5.34171 215.155 5.65671C215.47 5.97172 215.665 6.27172 215.829 6.69173C215.952 7.0086 216.099 7.48486 216.139 8.36237C216.182 9.31113 216.191 9.59613 216.191 11.998C216.191 14.3999 216.182 14.6849 216.139 15.6337C216.099 16.5112 215.952 16.9875 215.829 17.3043C215.666 17.7243 215.47 18.0234 215.155 18.3382C214.84 18.6532 214.541 18.8482 214.121 19.0114C213.804 19.1351 213.328 19.2814 212.45 19.3215C211.501 19.3646 211.216 19.374 208.813 19.374C206.41 19.374 206.125 19.3646 205.177 19.3215C204.299 19.281 203.823 19.1344 203.505 19.0112C203.085 18.848 202.785 18.653 202.47 18.338C202.155 18.023 201.96 17.7238 201.797 17.3036C201.674 16.9867 201.527 16.5105 201.487 15.6329C201.444 14.6842 201.435 14.3992 201.435 11.9958C201.435 9.59238 201.444 9.30888 201.487 8.36012C201.527 7.48261 201.674 7.00635 201.797 6.6891C201.96 6.2691 202.155 5.96909 202.47 5.65409C202.785 5.33909 203.085 5.14408 203.505 4.98058C203.823 4.85683 204.299 4.71058 205.177 4.67027C206.007 4.63277 206.329 4.62152 208.006 4.61964V4.62189C208.163 4.62165 208.331 4.62172 208.513 4.6218ZM212.538 7.19592C212.538 6.59947 213.021 6.11628 213.618 6.11628C214.214 6.11628 214.698 6.59966 214.698 7.19592C214.698 7.79217 214.214 8.27593 213.618 8.27593C213.021 8.27593 212.538 7.79217 212.538 7.19592ZM208.813 7.37817C206.261 7.37827 204.191 9.44769 204.191 12.0001C204.191 14.5526 206.261 16.6211 208.813 16.6211C211.366 16.6211 213.434 14.5526 213.434 12.0001C213.434 9.44763 211.366 7.37817 208.813 7.37817ZM211.813 12.0001C211.813 10.3431 210.47 9.00006 208.813 9.00006C207.156 9.00006 205.813 10.3431 205.813 12.0001C205.813 13.6569 207.156 15.0001 208.813 15.0001C210.47 15.0001 211.813 13.6569 211.813 12.0001Z" fill="#191919"/>
</g>
<g opacity="0.75" clip-path="url(#clip3_52_115716)">
<path fill-rule="evenodd" clip-rule="evenodd" d="M248.48 3C249.214 3 249.812 3.581 249.812 4.297V19.7014C249.812 20.4181 249.214 21 248.48 21H233.141C232.408 21 231.812 20.4181 231.812 19.7014V4.297C231.812 3.581 232.408 3 233.141 3H248.48ZM235.817 5.47825C234.961 5.47825 234.268 6.17188 234.268 7.02563C234.268 7.88025 234.961 8.57387 235.817 8.57387C236.67 8.57387 237.364 7.88025 237.364 7.02563C237.364 6.17188 236.67 5.47825 235.817 5.47825ZM234.481 18.3384H237.151V9.74813H234.481V18.3384ZM238.826 9.74813V18.3384H241.493V14.0887C241.493 12.9685 241.706 11.8834 243.095 11.8834C244.464 11.8834 244.483 13.1648 244.483 14.1609V18.3384H247.151V13.6264C247.151 11.3139 246.651 9.53463 243.948 9.53463C242.649 9.53463 241.778 10.2466 241.422 10.922H241.386V9.74813H238.826Z" fill="#191919"/>
</g>
<defs>
<clipPath id="clip0_52_115716">
<rect width="24" height="24" fill="white" transform="translate(132.812)"/>
</clipPath>
<clipPath id="clip1_52_115716">
<rect width="24" height="24" fill="white" transform="translate(164.812)"/>
</clipPath>
<clipPath id="clip2_52_115716">
<rect width="24" height="24" fill="white" transform="translate(196.812)"/>
</clipPath>
<clipPath id="clip3_52_115716">
<rect width="24" height="24" fill="white" transform="translate(228.812)"/>
</clipPath>
</defs>
</svg>
