<svg width="64" height="64" viewBox="0 0 64 64" fill="none" xmlns="http://www.w3.org/2000/svg">
<path d="M45.5651 27.8267C45.5651 27.5499 45.4552 27.2845 45.2594 27.0888C45.0638 26.8931 44.7983 26.7832 44.5216 26.7832C44.2448 26.7832 43.9794 26.8931 43.7838 27.0888C43.588 27.2845 43.4781 27.5499 43.4781 27.8267C43.4781 30.8709 42.2688 33.7904 40.1162 35.943C37.9636 38.0956 35.0441 39.3049 31.9998 39.3049C28.9556 39.3049 26.0361 38.0956 23.8835 35.943C21.7309 33.7904 20.5216 30.8709 20.5216 27.8267C20.5216 27.5499 20.4117 27.2845 20.2159 27.0888C20.0203 26.8931 19.7549 26.7832 19.4781 26.7832C19.2013 26.7832 18.9359 26.8931 18.7403 27.0888C18.5445 27.2845 18.4346 27.5499 18.4346 27.8267C18.4245 31.2507 19.7096 34.5519 22.032 37.0679C24.3545 39.5839 27.5425 41.1286 30.9564 41.3919V44.5223H23.652C23.3753 44.5223 23.1099 44.6322 22.9142 44.828C22.7185 45.0236 22.6085 45.2891 22.6085 45.5658C22.6085 45.8426 22.7185 46.108 22.9142 46.3036C23.1099 46.4994 23.3753 46.6093 23.652 46.6093H40.3477C40.6244 46.6093 40.8898 46.4994 41.0855 46.3036C41.2812 46.108 41.3912 45.8426 41.3912 45.5658C41.3912 45.2891 41.2812 45.0236 41.0855 44.828C40.8898 44.6322 40.6244 44.5223 40.3477 44.5223H33.0433V41.3919C36.4572 41.1286 39.6452 39.5839 41.9677 37.0679C44.2901 34.5519 45.5752 31.2507 45.5651 27.8267Z" fill="#213A52"/>
<path d="M20.3755 24.6965C20.929 24.7776 21.465 24.9504 21.9616 25.2078C21.8995 25.304 21.8537 25.4098 21.826 25.5208C21.6508 26.277 21.5632 27.0508 21.5651 27.827C21.5494 30.1397 22.2972 32.3931 23.6925 34.2375C25.0879 36.0821 27.0528 37.4147 29.2826 38.0288C31.5124 38.6429 33.8825 38.5042 36.0255 37.6342C38.1684 36.7641 39.9644 35.2114 41.1351 33.2167C42.3057 31.222 42.7856 28.8968 42.5002 26.6017C42.2149 24.3065 41.1802 22.1696 39.5568 20.5223C37.9333 18.875 35.8118 17.8094 33.5211 17.4906C31.2303 17.1718 28.8984 17.6177 26.8868 18.7591C26.8868 18.6026 26.7929 18.4565 26.7721 18.2896C26.7721 18.0128 26.6621 17.7474 26.4664 17.5517C26.2707 17.356 26.0053 17.2461 25.7286 17.2461C25.4518 17.2461 25.1864 17.356 24.9907 17.5517C24.795 17.7474 24.6851 18.0128 24.6851 18.2896C24.5286 19.3786 24.0319 20.3902 23.266 21.18C22.4776 21.9498 21.4658 22.4502 20.3755 22.6096C20.0988 22.6096 19.8333 22.7195 19.6377 22.9152C19.4419 23.1109 19.332 23.3763 19.332 23.6531C19.332 23.9298 19.4419 24.1952 19.6377 24.3909C19.8333 24.5866 20.0988 24.6965 20.3755 24.6965ZM31.9999 19.4791C33.6509 19.4791 35.2649 19.9687 36.6377 20.886C38.0105 21.8033 39.0804 23.107 39.7122 24.6324C40.3441 26.1577 40.5094 27.8362 40.1873 29.4555C39.8652 31.0749 39.0701 32.5623 37.9027 33.7298C36.7352 34.8972 35.2478 35.6923 33.6285 36.0144C32.0091 36.3365 30.3306 36.1712 28.8053 35.5394C27.2799 34.9075 25.9762 33.8376 25.0589 32.4647C24.1416 31.092 23.652 29.478 23.652 27.827C23.6535 27.4498 23.6814 27.0732 23.7355 26.7C24.246 27.3787 24.5762 28.1757 24.6955 29.0165C24.6955 29.2933 24.8054 29.5587 25.0012 29.7544C25.1968 29.95 25.4622 30.06 25.739 30.06C26.0157 30.06 26.2812 29.95 26.4768 29.7544C26.6726 29.5587 26.7825 29.2933 26.7825 29.0165C26.9368 27.9254 27.4416 26.914 28.2208 26.1349C29 25.3557 30.0114 24.8509 31.1025 24.6965C31.3792 24.6965 31.6446 24.5866 31.8403 24.3909C32.036 24.1952 32.1459 23.9298 32.1459 23.6531C32.1459 23.3763 32.036 23.1109 31.8403 22.9152C31.6446 22.7195 31.3792 22.6096 31.1025 22.6096C30.011 22.4473 28.999 21.9431 28.2121 21.1696C28.0572 21.0032 27.9109 20.8291 27.7738 20.6478C29.0505 19.8824 30.5113 19.4785 31.9999 19.4791ZM24.6955 22.6096C25.0929 22.2322 25.4432 21.8082 25.739 21.3469C26.0384 21.8056 26.3884 22.2291 26.7825 22.6096C27.1598 23.0069 27.5838 23.3573 28.0451 23.6531C27.5864 23.9524 27.1629 24.3025 26.7825 24.6965C26.3851 25.0739 26.0348 25.4978 25.739 25.9591C25.4396 25.5005 25.0896 25.0769 24.6955 24.6965C24.3311 24.3018 23.9213 23.9515 23.4747 23.6531C23.9187 23.3511 24.3282 23.0012 24.6955 22.6096Z" fill="#213A52"/>
</svg>
