<svg width="17" height="16" viewBox="0 0 17 16" fill="none" xmlns="http://www.w3.org/2000/svg">
<path d="M8.95972 15.1193L8.71059 14.3546L8.70309 14.3574L8.95972 15.1193ZM8.0036 15.1193L8.26024 14.3573L8.25271 14.3546L8.0036 15.1193ZM8.48166 2.61821L7.86263 3.1C8.0081 3.30528 8.23769 3.4263 8.48166 3.4263C8.72564 3.4263 8.95523 3.30528 9.10069 3.1L8.48166 2.61821ZM8.70309 14.3574C8.6802 14.3658 8.60002 14.384 8.48166 14.384C8.3633 14.384 8.28312 14.3658 8.26023 14.3574L7.74699 15.8813C7.98625 15.9699 8.25305 16.0002 8.48166 16.0002C8.71028 16.0002 8.97707 15.9699 9.21634 15.8813L8.70309 14.3574ZM8.25271 14.3546C7.24534 13.9942 5.54195 13.0268 4.10061 11.4791C2.66857 9.94141 1.54212 7.88481 1.54212 5.32531H0C0 8.42242 1.37179 10.8628 2.997 12.608C4.61291 14.3431 6.52579 15.4445 7.7545 15.8841L8.25271 14.3546ZM1.54212 5.32531C1.54212 3.27082 3.12044 1.61618 5.05815 1.61618V0C2.26156 0 0 2.3858 0 5.32531H1.54212ZM5.05815 1.61618C6.20598 1.61618 7.22231 2.19639 7.86263 3.1L9.10069 2.13641C8.18347 0.842033 6.71699 0 5.05815 0V1.61618ZM9.10069 3.1C9.74054 2.19704 10.7643 1.61618 11.9052 1.61618V0C10.2548 0 8.78033 0.841369 7.86263 2.13641L9.10069 3.1ZM11.9052 1.61618C13.8429 1.61618 15.4212 3.27082 15.4212 5.32531H16.9633C16.9633 2.3858 14.7018 0 11.9052 0V1.61618ZM15.4212 5.32531C15.4212 7.88481 14.2947 9.94141 12.8627 11.4791C11.4214 13.0268 9.71798 13.9942 8.71062 14.3546L9.20882 15.8841C10.4375 15.4445 12.3504 14.3431 13.9664 12.608C15.5916 10.8628 16.9633 8.42242 16.9633 5.32531H15.4212Z" fill="white"/>
</svg>
