<svg width="18" height="21" viewBox="0 0 18 21" fill="none" xmlns="http://www.w3.org/2000/svg">
<path d="M17.7918 14.3905C17.2328 13.4242 16.5602 11.5863 16.5602 8.33684V7.66421C16.5602 3.46737 13.197 0.0284211 9.05702 0H9.00017C8.00614 0.00124332 7.02208 0.198265 6.10418 0.579816C5.18629 0.961367 4.35253 1.51997 3.65052 2.22374C2.94851 2.92752 2.39199 3.76267 2.01274 4.68151C1.63348 5.60036 1.43893 6.58491 1.44017 7.57895V8.33684C1.44017 11.5863 0.76754 13.4242 0.208593 14.3905C0.0734136 14.6208 0.00146283 14.8827 2.20712e-05 15.1497C-0.00141869 15.4167 0.0677018 15.6794 0.200388 15.9111C0.333075 16.1428 0.524618 16.3354 0.755634 16.4693C0.98665 16.6032 1.24894 16.6737 1.51596 16.6737H5.2107C5.2107 17.6787 5.60995 18.6426 6.32061 19.3532C7.03127 20.0639 7.99514 20.4632 9.00017 20.4632C10.0052 20.4632 10.9691 20.0639 11.6797 19.3532C12.3904 18.6426 12.7896 17.6787 12.7896 16.6737H16.4844C16.7514 16.6754 17.014 16.6061 17.2454 16.4729C17.4768 16.3398 17.6686 16.1475 17.8012 15.9158C17.9327 15.6828 18.001 15.4194 17.9994 15.1519C17.9977 14.8843 17.9261 14.6219 17.7918 14.3905ZM9.00017 18.9474C8.39792 18.9449 7.82105 18.7045 7.39519 18.2787C6.96933 17.8528 6.72898 17.2759 6.72649 16.6737H11.2739C11.2714 17.2759 11.031 17.8528 10.6052 18.2787C10.1793 18.7045 9.60242 18.9449 9.00017 18.9474ZM1.51596 15.1579C2.16965 14.0211 2.95596 11.9274 2.95596 8.33684V7.57895C2.95347 6.78362 3.10797 5.99562 3.4106 5.26011C3.71323 4.5246 4.15805 3.85606 4.71956 3.29279C5.28106 2.72953 5.94821 2.28262 6.68277 1.97768C7.41732 1.67275 8.20484 1.51579 9.00017 1.51579H9.04754C12.3539 1.53474 15.0444 4.30105 15.0444 7.66421V8.33684C15.0444 11.9274 15.8307 14.0211 16.4844 15.1579H1.51596Z" fill="#AFB5C0"/>
</svg>
