<svg width="30" height="30" viewBox="0 0 30 30" fill="none" xmlns="http://www.w3.org/2000/svg">
<g clip-path="url(#clip0_52_38719)">
<path d="M30 16.5938C30 13.5938 27.75 11.1562 25.0312 11.1562C24.9375 6.84375 21.6562 3.375 17.625 3.375C14.4375 3.375 11.8125 5.53125 10.7812 8.625C10.2188 7.6875 9.1875 7.125 8.0625 7.125C6.1875 7.125 4.78125 8.71875 4.78125 10.7812V11.1562C2.15625 11.4375 0.1875 13.875 0.1875 16.6875C0.1875 19.7812 2.53125 22.2188 5.34375 22.2188L25.0312 21.9375C27.75 22.0312 30 19.5938 30 16.5938Z" fill="#589AA5"/>
<path d="M30 15C30 12.4688 28.4062 10.3125 26.1562 9.75C25.5 9.5625 24.9375 9 24.8438 8.34375C24.1875 4.59375 21.1875 1.875 17.625 1.875C15.1875 1.875 13.0312 3.1875 11.625 5.25C11.1562 6 10.2188 6.28125 9.375 5.90625C9 5.71875 8.53125 5.625 8.0625 5.625C6.1875 5.625 4.6875 7.21875 4.6875 9.1875V9.5625C2.0625 9.84375 0.09375 12.2812 0.09375 15.0938C0.09375 18.1875 2.4375 20.625 5.25 20.625L24.9375 20.3438C27.75 20.4375 30 18 30 15Z" fill="#7BC9DB"/>
<path d="M28.6875 15.094C28.6875 12.5628 26.625 10.594 24.0938 10.594C24 6.93775 21 4.0315 17.3438 4.12525C14.4375 4.12525 12 6.00025 11.0625 8.5315C10.5 7.7815 9.5625 7.219 8.625 7.219C7.03125 7.219 5.625 8.5315 5.625 10.219V10.594C3.28125 10.8753 1.40625 12.844 1.40625 15.2815C1.40625 17.8128 3.5625 19.969 6.09375 19.969L24 19.7815C26.625 19.6878 28.6875 17.6253 28.6875 15.094Z" fill="#BAF2FF"/>
<path d="M26.9062 14.6257C26.9062 12.5632 25.125 10.8757 22.9688 10.8757C22.875 7.87566 20.25 5.43816 17.1562 5.53191C14.625 5.53191 12.5625 7.03191 11.7188 9.18816C11.25 8.53191 10.4062 8.15691 9.5625 8.15691C8.15625 8.15691 6.9375 9.28191 6.9375 10.6882V10.9694C4.875 11.1569 3.28125 12.8444 3.28125 14.8132C3.28125 16.9694 5.15625 18.6569 7.3125 18.6569L22.875 18.5632C25.125 18.3757 26.9062 16.6882 26.9062 14.6257Z" fill="#EBFCFF"/>
<path d="M21.2814 15.1875L22.8752 17.4375C22.8752 17.4375 25.2189 19.3125 25.3127 22.3125L21.4689 19.125L21.2814 15.1875ZM7.59391 23.3437C7.59391 23.3437 5.62516 23.5312 5.06266 21C4.50016 18.4687 7.68766 18.75 7.68766 18.75C7.68766 18.75 5.53141 19.7812 6.09391 21C6.75016 22.2187 7.59391 23.3437 7.59391 23.3437Z" fill="#996C42"/>
<path d="M7.21869 20.2503C7.21869 20.2503 4.87494 20.1565 5.06244 17.6253C5.15619 15.0003 7.96869 15.844 7.96869 15.844C7.96869 15.844 5.62494 16.594 6.09369 17.8128C6.56244 19.0315 7.21869 20.2503 7.21869 20.2503Z" fill="#996C42"/>
<path d="M7.59369 16.6878C7.59369 16.6878 5.24994 16.594 5.43744 14.0628C5.53119 11.4378 8.34369 12.2815 8.34369 12.2815C8.34369 12.2815 5.99994 13.0315 6.46869 14.2503C6.84369 15.469 7.59369 16.6878 7.59369 16.6878Z" fill="#996C42"/>
<path d="M8.81242 13.4058C8.81242 13.4058 6.18742 14.1558 6.74992 10.3121C7.21867 7.68706 9.74992 8.43706 9.74992 8.43706C9.74992 8.43706 7.40617 9.18706 7.87492 10.4058L8.81242 13.4058ZM9.74992 22.6871C9.74992 22.6871 12.3749 24.8433 15.9374 25.7808C15.9374 25.7808 21.1874 26.4371 23.3437 24.5621C23.3437 24.5621 22.4999 27.7496 20.0624 27.8433C18.4687 27.9371 14.5312 27.2808 11.9062 26.7183C9.74992 26.3433 7.87492 24.9371 7.03117 22.8746C7.03117 22.7808 6.93742 22.7808 6.93742 22.6871H9.74992Z" fill="#996C42"/>
<path d="M6.28125 21.75C6.28125 21.75 7.96875 24.6562 8.71875 25.0312C9.375 25.4062 15.9375 28.0312 19.125 27.1875C22.3125 26.3437 24.1875 19.5937 24 19.3125C23.7188 19.0312 20.9062 16.5938 20.9062 16.5938C20.9062 16.5938 6.65625 20.0625 6.28125 21.75Z" fill="#996C42"/>
<path d="M5.8125 21.0938C5.8125 21.0938 6.28125 22.875 6.65625 22.9688C7.03125 23.0625 9.84375 23.25 9.84375 23.25C9.84375 23.25 12.0938 22.6875 12.6562 21.75C13.2188 20.8125 13.9688 20.625 14.0625 20.5312C14.1562 20.4375 15.4688 18 15.4688 18L15 12.8437L10.4063 12.2812L5.8125 21.0938Z" fill="#996C42"/>
<path d="M7.96875 22.6875C7.96875 22.6875 10.5 22.9688 11.0625 22.6875C11.625 22.4063 11.9062 21.9375 11.9062 21.4687C11.9062 21 11.9062 20.25 10.5 20.25C9.09375 20.25 6.5625 19.6875 6.5625 19.6875C6.5625 19.6875 5.625 20.1563 5.625 20.8125C5.625 21.4688 5.71875 23.0625 7.96875 22.6875Z" fill="#996C42"/>
<path d="M7.96875 22.4062C7.96875 22.4062 10.5 22.6875 11.0625 22.4062C11.625 22.2187 11.9062 21.6562 11.9062 21.1875C11.9062 20.7187 11.9062 19.9687 10.5 19.9687C9.09375 19.9687 6.5625 19.4062 6.5625 19.4062C6.5625 19.4062 5.625 19.875 5.625 20.5312C5.625 21.1875 5.71875 22.7812 7.96875 22.4062Z" fill="#996C42"/>
<path d="M8.06236 19.5937C8.06236 19.5937 11.0624 20.25 11.8124 20.0625C12.5624 19.875 12.9374 19.3125 13.0311 18.8438C13.1249 18.375 13.3124 17.5312 11.5311 17.25C9.84361 16.9687 6.84361 15.9375 6.84361 15.9375C6.84361 15.9375 5.62486 16.4062 5.53111 17.1562C5.43736 17.9062 5.24986 19.6875 8.06236 19.5937Z" fill="#996C42"/>
<path d="M8.15611 19.2187C8.15611 19.2187 11.1561 19.875 11.9061 19.6875C12.5624 19.5 13.0311 18.9375 13.1249 18.4688C13.2186 18 13.4061 17.1562 11.6249 16.875C9.93736 16.5937 6.93736 15.5625 6.93736 15.5625C6.93736 15.5625 5.71861 16.0312 5.62486 16.7812C5.53111 17.5312 5.34361 19.3125 8.15611 19.2187Z" fill="#996C42"/>
<path d="M8.43802 16.4063C8.43802 16.4063 11.6255 17.4375 12.3755 17.3438C13.1255 17.25 13.688 16.5938 13.688 16.0313C13.7818 15.4688 14.063 14.5313 12.2818 14.0625C10.5005 13.5938 7.40677 12.1875 7.40677 12.1875C7.40677 12.1875 6.09427 12.5625 5.90677 13.4063C5.71927 14.25 5.53177 16.3125 8.43802 16.4063Z" fill="#996C42"/>
<path d="M8.62554 16.0313C8.62554 16.0313 11.813 17.0625 12.563 16.9688C13.313 16.875 13.8755 16.2188 13.8755 15.6563C13.9693 15.0938 14.2505 14.1563 12.4693 13.6875C10.688 13.2188 7.59429 11.8125 7.59429 11.8125C7.59429 11.8125 6.28179 12.1875 6.09429 13.0312C5.90679 13.7812 5.62554 15.8438 8.62554 16.0313Z" fill="#996C42"/>
<path d="M12.2816 7.875C12.2816 7.875 8.43785 7.96875 7.87535 8.53125C7.31285 9.09375 6.6566 11.0625 8.43785 12.1875C10.2191 13.3125 13.7816 13.7813 14.9066 13.5938C14.9066 13.5938 16.3128 12.4688 15.4691 11.5313C14.6253 10.6875 12.2816 7.875 12.2816 7.875Z" fill="#996C42"/>
<path d="M12.9377 7.12527L8.43772 11.344C8.43772 11.344 8.06272 12.6565 8.71897 12.9378C9.37522 13.219 11.8127 15.0003 14.4377 11.2503L16.4065 8.81277C16.4065 8.81277 13.6877 6.65652 12.9377 7.12527Z" fill="#996C42"/>
<path d="M12.9375 10.3125C12.9375 10.3125 14.0625 11.25 13.9687 12.375C13.875 13.5 13.9688 18.0938 14.8125 18.8438C15.6563 19.5938 16.7812 20.7187 18.6562 20.4375C20.5312 20.1562 21.9375 19.4062 21.8438 18.6562C21.75 17.9062 20.3438 13.7812 20.3438 13.7812C20.3438 13.7812 19.4063 10.6875 18.2812 9.9375L14.9062 7.78125L12.9375 10.3125Z" fill="#996C42"/>
<path d="M13.7815 25.6878L17.719 27.7503C20.2502 29.0628 23.344 28.1253 24.7502 25.7815C26.4377 22.969 25.219 19.4065 22.3127 18.094L18.844 16.594L13.7815 25.6878ZM12.469 6.28152L7.96897 10.5003C7.96897 10.5003 7.59397 11.8128 8.25022 12.094C8.90647 12.3753 11.344 14.1565 13.969 10.4065L15.9377 7.96902C16.0315 7.96902 13.219 5.81277 12.469 6.28152Z" fill="#996C42"/>
<path d="M12.9377 6.46937L8.43772 10.7819C8.43772 10.7819 8.06272 12.0944 8.71897 12.3756C9.37522 12.6569 11.8127 14.4381 14.4377 10.6881L16.5002 8.06312C16.5002 8.06312 13.6877 6.09437 12.9377 6.46937Z" fill="#996C42"/>
<path d="M13.7812 10.0312C13.7812 10.0312 14.9063 10.9687 14.8125 12.0937C14.7188 13.2187 14.8125 17.8125 15.6563 18.5625C16.5 19.3125 17.625 20.4375 19.5 20.1562C21.375 19.7812 22.7812 19.125 22.6875 18.375C22.5938 17.625 21.1875 13.5 21.1875 13.5C21.1875 13.5 20.25 10.4063 19.125 9.65625L15.6563 7.5L13.7812 10.0312Z" fill="#996C42"/>
<path d="M12.8438 25.125L16.7812 27.1875C19.3125 28.5 22.4062 27.5625 23.8125 25.2187C25.5 22.4062 24.2812 18.8438 21.375 17.5313L17.9063 16.0312L12.8438 25.125Z" fill="#996C42"/>
<path d="M5.90625 21.2812C5.90625 21.2812 7.40625 23.9062 8.0625 24.1875C8.71875 24.5625 14.625 26.9062 17.5313 26.1562C20.4375 25.4062 22.125 19.3125 21.9375 19.0312C21.75 18.75 19.125 16.5938 19.125 16.5938C19.125 16.5938 6.28125 19.6875 5.90625 21.2812Z" fill="#996C42"/>
<path d="M5.53125 20.625C5.53125 20.625 6 22.2187 6.28125 22.3125C6.5625 22.4062 9.1875 22.5938 9.1875 22.5938C9.1875 22.5938 11.1563 22.125 11.7188 21.2812C12.2813 20.4375 12.8438 20.25 13.0312 20.25C13.125 20.1562 14.3438 17.9062 14.3438 17.9062L13.9688 13.2188L9.84375 12.6562L5.53125 20.625Z" fill="#996C42"/>
<path d="M7.40625 22.125C7.40625 22.125 9.75 22.3125 10.2188 22.125C10.6875 21.9375 10.9688 21.4687 10.9688 21.0937C10.9688 20.7187 10.9688 20.0625 9.75 19.9687C8.4375 19.9687 6.1875 19.4062 6.1875 19.4062C6.1875 19.4062 5.34375 19.875 5.34375 20.4375C5.34375 21 5.4375 22.4062 7.40625 22.125Z" fill="#996C42"/>
<path d="M7.50009 21.75C7.50009 21.75 9.84384 21.9375 10.3126 21.75C10.7813 21.5625 11.0626 21.0938 11.0626 20.7188C11.0626 20.3438 11.0626 19.6875 9.84384 19.5938C8.53134 19.5938 6.28134 19.0312 6.28134 19.0312C6.28134 19.0312 5.43759 19.5 5.43759 20.0625C5.34384 20.7188 5.43759 22.125 7.50009 21.75Z" fill="#996C42"/>
<path d="M7.49981 19.3125C7.49981 19.3125 10.2186 19.875 10.8748 19.7812C11.5311 19.6875 11.9061 19.125 11.9061 18.6562C11.9061 18.1875 12.0936 17.4375 10.5936 17.25C9.09356 17.0625 6.37481 16.125 6.37481 16.125C6.37481 16.125 5.34356 16.5 5.15606 17.1562C4.96856 17.8125 5.06231 19.4062 7.49981 19.3125Z" fill="#996C42"/>
<path d="M7.5937 18.9375C7.5937 18.9375 10.3125 19.5 10.9687 19.4062C11.625 19.2188 12 18.75 12 18.2812C12 17.8125 12.1875 17.0625 10.6875 16.875C9.18745 16.6875 6.56245 15.6562 6.56245 15.6562C6.56245 15.6562 5.5312 16.0312 5.3437 16.6875C5.24995 17.3437 5.1562 19.0312 7.5937 18.9375Z" fill="#996C42"/>
<path d="M7.87514 16.4063C7.87514 16.4063 10.7814 17.3438 11.4376 17.25C12.0939 17.1563 12.5626 16.5938 12.6564 16.0313C12.7501 15.5625 13.0314 14.7188 11.3439 14.25C9.6564 13.875 6.93764 12.5625 6.93764 12.5625C6.93764 12.5625 5.81264 12.9375 5.62514 13.6875C5.43764 14.4375 5.25014 16.3125 7.87514 16.4063Z" fill="#996C42"/>
<path d="M7.96928 16.0313C7.96928 16.0313 10.8755 16.9688 11.5318 16.875C12.188 16.7813 12.6568 16.2188 12.7505 15.6563C12.8443 15.1875 13.1255 14.3438 11.438 13.875C9.75053 13.5 7.03178 12.1875 7.03178 12.1875C7.03178 12.1875 5.81303 12.5625 5.71928 13.3125C5.62553 14.0625 5.34428 15.9375 7.96928 16.0313Z" fill="#996C42"/>
<path d="M11.3441 8.71875C11.3441 8.71875 7.87538 8.8125 7.31288 9.28125C6.75038 9.84375 6.18788 11.5312 7.78163 12.5625C9.37538 13.5937 12.6566 13.9687 13.5941 13.875C13.5941 13.875 14.8129 12.8437 14.0629 12L11.3441 8.71875Z" fill="#996C42"/>
<path d="M11.9065 7.96943L7.78147 11.8132C7.78147 11.8132 7.40647 13.0319 8.06272 13.2194C8.71897 13.4069 10.8752 15.0944 13.219 11.7194L15.0002 9.46943C15.094 9.56318 12.6565 7.59443 11.9065 7.96943Z" fill="#996C42"/>
<path d="M11.9062 10.875C11.9062 10.875 12.9375 11.7188 12.8438 12.75C12.75 13.7812 12.8438 17.9062 13.5938 18.6562C14.3438 19.3125 15.375 20.3437 17.0625 20.0625C18.75 19.7812 19.9688 19.125 19.875 18.4688C19.7813 17.8125 18.5625 14.0625 18.5625 14.0625C18.5625 14.0625 17.7187 11.25 16.6875 10.5938L13.6875 8.625L11.9062 10.875Z" fill="#996C42"/>
<path d="M11.5319 7.21943L7.12564 11.0632C7.12564 11.0632 6.37564 12.6569 7.03189 12.8444C7.68814 13.0319 10.5006 14.3444 12.9381 10.9694L14.7194 8.71943C14.7194 8.81318 12.2819 6.84443 11.5319 7.21943Z" fill="#996C42"/>
<path d="M12.0002 7.50076L7.87522 11.3445C7.87522 11.3445 7.50022 12.5633 8.15647 12.7508C8.81272 12.9383 10.969 14.6258 13.3127 11.2508L15.094 9.00076C15.094 9.00076 12.6565 7.12576 12.0002 7.50076Z" fill="#996C42"/>
<path d="M12.5625 10.7812C12.5625 10.7812 13.5938 11.625 13.5 12.6562C13.4062 13.6875 13.5 17.8125 14.25 18.5625C15 19.2187 16.0312 20.25 17.7188 19.9687C19.4062 19.6875 20.625 19.0312 20.5312 18.375C20.4375 17.7188 19.2188 13.9687 19.2188 13.9687C19.2188 13.9687 18.375 11.1562 17.3438 10.5L14.25 8.4375L12.5625 10.7812Z" fill="#996C42"/>
<path d="M12.75 24.6562L16.3125 26.5312C18.5625 27.75 21.375 26.9062 22.6875 24.75C24.1875 22.2187 23.1562 19.0312 20.4375 17.8125L17.3437 16.5L12.75 24.6562Z" fill="#996C42"/>
<path d="M7.125 21.2812C7.125 21.2812 8.625 23.9062 9.28125 24.1875C9.9375 24.5625 15.8438 26.9062 18.75 26.1562C21.6562 25.4062 23.3438 19.3125 23.1562 19.0312C22.9688 18.75 20.3438 16.5938 20.3438 16.5938C20.3438 16.5938 7.59375 19.6875 7.125 21.2812Z" fill="#F4BBA2"/>
<path d="M6.84375 20.625C6.84375 20.625 7.3125 22.2187 7.59375 22.3125C7.875 22.4062 10.5 22.5938 10.5 22.5938C10.5 22.5938 12.4688 22.125 13.0312 21.2812C13.5938 20.4375 14.1563 20.25 14.3438 20.25C14.4375 20.1562 15.6563 17.9062 15.6563 17.9062L15.2812 13.2188L11.1562 12.6562L6.84375 20.625Z" fill="#996C42"/>
<path d="M8.71875 22.125C8.71875 22.125 11.0625 22.3125 11.5312 22.125C12 21.9375 12.2813 21.4687 12.2813 21.0937C12.2813 20.7187 12.2812 20.0625 11.0625 19.9687C9.75 19.9687 7.5 19.4062 7.5 19.4062C7.5 19.4062 6.5625 19.875 6.5625 20.4375C6.5625 21 6.65625 22.4062 8.71875 22.125Z" fill="#996C42"/>
<path d="M8.71875 21.75C8.71875 21.75 11.0625 21.9375 11.5312 21.75C12 21.5625 12.2813 21.0938 12.2813 20.7188C12.2813 20.3438 12.2812 19.6875 11.0625 19.5938C9.75 19.5938 7.5 19.0312 7.5 19.0312C7.5 19.0312 6.5625 19.5938 6.5625 20.1563C6.5625 20.7188 6.65625 22.125 8.71875 21.75Z" fill="#F4BBA2"/>
<path d="M8.81214 19.3125C8.81214 19.3125 11.5309 19.875 12.1871 19.7812C12.8434 19.6875 13.2184 19.125 13.2184 18.6562C13.2184 18.1875 13.4059 17.4375 11.9059 17.25C10.4059 17.0625 7.68714 16.125 7.68714 16.125C7.68714 16.125 6.65589 16.4062 6.56214 17.0625C6.46839 17.7188 6.28089 19.4062 8.81214 19.3125Z" fill="#996C42"/>
<path d="M8.90644 18.9375C8.90644 18.9375 11.6252 19.5 12.2814 19.4063C12.9377 19.2188 13.3127 18.75 13.3127 18.2813C13.3127 17.8125 13.5002 17.0625 12.0002 16.875C10.5002 16.6875 7.78144 15.75 7.78144 15.75C7.78144 15.75 6.75019 16.125 6.56269 16.7813C6.56269 17.3438 6.37519 19.0313 8.90644 18.9375Z" fill="#F4BBA2"/>
<path d="M9.18781 16.4063C9.18781 16.4063 12.0941 17.3438 12.7503 17.25C13.4066 17.1563 13.8753 16.5938 13.9691 16.0313C14.0628 15.5625 14.3441 14.7188 12.6566 14.25C10.9691 13.875 8.25031 12.5625 8.25031 12.5625C8.25031 12.5625 7.03156 12.9375 6.93781 13.6875C6.75031 14.4375 6.46906 16.3125 9.18781 16.4063Z" fill="#996C42"/>
<path d="M9.28156 16.0313C9.28156 16.0313 12.1878 16.9688 12.8441 16.875C13.5003 16.7813 13.9691 16.2188 14.0628 15.6563C14.1566 15.1875 14.4378 14.3438 12.7503 13.875C11.0628 13.5 8.34406 12.1875 8.34406 12.1875C8.34406 12.1875 7.12531 12.5625 7.03156 13.3125C6.84406 14.0625 6.56281 15.9375 9.28156 16.0313Z" fill="#F4BBA2"/>
<path d="M12.6566 8.71875C12.6566 8.71875 9.18788 8.8125 8.62538 9.28125C8.06288 9.84375 7.50038 11.5312 9.09413 12.5625C10.6879 13.5937 13.9691 13.9687 14.9066 13.875C14.9066 13.875 16.1254 12.8437 15.3754 12L12.6566 8.71875Z" fill="#F4BBA2"/>
<path d="M13.219 7.96943L9.09397 11.8132C9.09397 11.8132 8.71897 13.0319 9.37522 13.2194C10.0315 13.4069 12.1877 15.0944 14.5315 11.7194L16.3127 9.46943C16.3127 9.56318 13.8752 7.59443 13.219 7.96943Z" fill="#996C42"/>
<path d="M13.2188 10.875C13.2188 10.875 14.25 11.7188 14.1562 12.75C14.0625 13.7812 14.1562 17.9062 14.9062 18.6562C15.6562 19.3125 16.6875 20.3437 18.375 20.0625C20.0625 19.7812 21.2812 19.125 21.1875 18.4688C21.0938 17.8125 19.875 14.0625 19.875 14.0625C19.875 14.0625 19.0313 11.25 18 10.5938L15 8.625L13.2188 10.875Z" fill="#996C42"/>
<path d="M13.9688 24.75L17.5312 26.625C19.7812 27.8438 22.5938 27 23.9062 24.8438C25.4062 22.3125 24.375 19.125 21.6562 17.9062L18.5625 16.5938L13.9688 24.75Z" fill="#996C42"/>
<path d="M12.844 7.21937L8.71897 11.0631C8.71897 11.0631 8.34397 12.2819 9.00022 12.4694C9.65647 12.6569 11.8127 14.3444 14.1565 10.9694L15.9377 8.81312C15.9377 8.81312 13.5002 6.84437 12.844 7.21937Z" fill="#996C42"/>
<path d="M13.219 7.50076L9.09397 11.3445C9.09397 11.3445 8.71897 12.5633 9.37522 12.7508C10.0315 12.9383 12.1877 14.6258 14.5315 11.2508L16.3127 9.00076C16.4065 9.00076 13.8752 7.12576 13.219 7.50076Z" fill="#F4BBA2"/>
<path d="M13.7812 10.7812C13.7812 10.7812 14.8125 11.625 14.7188 12.6562C14.625 13.6875 14.7188 17.8125 15.4688 18.5625C16.2188 19.2187 17.25 20.25 18.9375 19.9687C20.625 19.6875 21.8438 19.0312 21.75 18.375C21.6563 17.7188 20.4375 13.9687 20.4375 13.9687C20.4375 13.9687 19.5937 11.1562 18.5625 10.5L15.4688 8.4375L13.7812 10.7812Z" fill="#F4BBA2"/>
<path d="M13.6875 24.375L17.25 26.25C19.5 27.4688 22.3125 26.625 23.625 24.4688C25.125 21.9375 24.0937 18.75 21.375 17.5312L18.2812 16.2188L13.6875 24.375Z" fill="#F4BBA2"/>
<path d="M9.9375 22.2188C9.9375 22.2188 12.5625 24.375 16.125 25.3125C16.125 25.3125 21.5625 25.9687 23.7187 24.1875C23.7187 24.1875 22.6875 27.2812 20.25 27.4687C18.6562 27.5625 14.7187 26.9062 12.0937 26.3437C9.9375 25.9687 8.0625 24.5625 7.21875 22.5C7.21875 22.4062 7.125 22.4062 7.125 22.3125L9.9375 22.2188Z" fill="#E2AF81"/>
<path d="M13.0312 8.43803L10.3125 10.9693C10.3125 10.9693 10.125 11.813 10.5 11.9068C10.875 12.0005 12.375 13.1255 13.9687 10.8755L15.1875 9.37553C15.1875 9.46928 13.5 8.15678 13.0312 8.43803ZM9.65625 15.4693C9.65625 15.4693 11.3437 16.0318 11.7187 15.938C12.0937 15.8443 12.375 15.563 12.4688 15.2818C12.4688 15.0005 12.6562 14.5318 11.7187 14.2505C10.7812 13.9693 9.1875 13.313 9.1875 13.313C9.1875 13.313 8.4375 13.5005 8.34375 13.8755C8.25 14.2505 8.15625 15.3755 9.65625 15.4693ZM9.28125 18.6568C9.28125 18.6568 10.875 18.8443 11.25 18.7505C11.625 18.6568 11.8125 18.2818 11.8125 18.0005C11.8125 17.7193 11.9062 17.2505 10.9687 17.1568C10.0312 17.063 8.4375 16.688 8.4375 16.688C8.4375 16.688 7.875 16.9693 7.78125 17.3443C7.78125 17.813 7.875 18.8443 9.28125 18.6568ZM9 21.188C9 21.188 10.5 21.3755 10.875 21.2818C11.25 21.188 11.3438 20.813 11.3438 20.6255C11.3438 20.438 11.4375 19.9693 10.5 19.8755C9.5625 19.7818 8.15625 19.4068 8.15625 19.4068C8.15625 19.4068 7.59375 19.688 7.59375 20.063C7.59375 20.438 7.59375 21.3755 9 21.188ZM15.75 12.0005C15.75 12.0005 15.75 16.5943 16.4062 17.6255C17.0625 18.6568 19.9688 18.2818 20.3438 17.7193C20.625 17.1568 18.8438 12.3755 18.8438 12.3755C18.8438 12.3755 17.7187 11.1568 15.75 12.0005Z" fill="#FFE1CA"/>
<path d="M8.0625 22.125C8.0625 22.125 9.9375 25.5937 13.875 26.0625C17.8125 26.5312 21.1875 27.375 22.9688 25.6875L23.1562 25.7812C23.1562 25.7812 22.0313 28.0313 19.3125 27.8438C16.5938 27.6563 11.25 26.7187 11.25 26.7187C11.25 26.7187 7.3125 24.75 6.75 22.125H8.0625Z" fill="#996C42"/>
<path d="M6.84375 22.875C6.84375 22.875 8.71875 24 11.9062 22.0312H6.84375V22.875ZM13.6875 12.4688L13.5 13.9687L14.625 14.25L14.3438 12.0938L13.6875 12.4688ZM13.6875 19.5937C13.6875 19.5937 15.375 20.3438 17.3438 20.1562C17.3438 20.1562 15.1875 18.4688 14.5312 16.9688L13.6875 19.5937Z" fill="#996C42"/>
<path d="M14.4379 19.5C14.4379 19.5 14.9067 23.25 9.18791 24.375L8.53166 22.875C8.53166 22.875 11.2504 23.0625 12.5629 21.375L14.4379 19.5ZM8.71916 11.0625C8.71916 11.0625 7.68791 13.5937 9.65666 14.25C11.5317 14.9062 13.1254 13.7812 13.9692 13.0312L13.6879 12.75C13.6879 12.75 12.0942 13.875 10.1254 13.3125C8.15666 12.75 9.18791 11.0625 9.18791 11.0625H8.71916Z" fill="#996C42"/>
</g>
<defs>
<clipPath id="clip0_52_38719">
<rect width="30" height="30" fill="white"/>
</clipPath>
</defs>
</svg>
