<svg width="24" height="30" viewBox="0 0 24 30" fill="none" xmlns="http://www.w3.org/2000/svg">
<path d="M21.7504 8.96017C21.0332 9.26954 20.2527 9.4922 19.4488 9.57892C20.2835 9.08306 20.9085 8.2997 21.2066 7.37579C20.4234 7.8417 19.5654 8.16841 18.6707 8.34142C18.2967 7.94163 17.8445 7.62315 17.342 7.40581C16.8396 7.18847 16.2978 7.07693 15.7504 7.07813C13.5355 7.07813 11.7543 8.87345 11.7543 11.0766C11.7543 11.386 11.7918 11.6953 11.8527 11.993C8.53633 11.8195 5.57852 10.2352 3.61211 7.80938C3.25381 8.42137 3.06605 9.1182 3.06836 9.82735C3.06836 11.2149 3.77383 12.4383 4.84961 13.1578C4.21564 13.1329 3.59651 12.9586 3.04258 12.6492V12.6985C3.04258 14.6414 4.41602 16.2516 6.24648 16.6219C5.90279 16.7112 5.54924 16.7568 5.19414 16.7578C4.93398 16.7578 4.68789 16.732 4.43945 16.6969C4.9457 18.2813 6.41992 19.432 8.17539 19.4695C6.80195 20.5453 5.08164 21.1781 3.21367 21.1781C2.87852 21.1781 2.56914 21.1664 2.24805 21.1289C4.01992 22.2656 6.12227 22.9219 8.38633 22.9219C15.7363 22.9219 19.7582 16.8328 19.7582 11.5477C19.7582 11.3742 19.7582 11.2008 19.7465 11.0274C20.5246 10.4578 21.2066 9.75235 21.7504 8.96017Z" fill="#9499A8"/>
</svg>
