<svg width="48" height="48" viewBox="0 0 48 48" fill="none" xmlns="http://www.w3.org/2000/svg">
<path d="M33.2986 33.9996C33.1186 33.9996 32.9386 33.9296 32.8086 33.7996L30.9486 31.9396C30.6786 31.6696 30.6786 31.2296 30.9486 30.9496C31.2186 30.6796 31.6586 30.6796 31.9386 30.9496L33.7986 32.8096C34.0686 33.0796 34.0686 33.5196 33.7986 33.7996C33.6586 33.9296 33.4786 33.9996 33.2986 33.9996Z" fill="white"/>
<path d="M14.75 23.5C14.75 18.6742 18.6742 14.75 23.5 14.75C28.3258 14.75 32.25 18.6742 32.25 23.5C32.25 28.3258 28.3258 32.25 23.5 32.25C18.6742 32.25 14.75 28.3258 14.75 23.5Z" stroke="white" stroke-width="1.5"/>
<rect x="0.5" y="0.5" width="47" height="47" rx="11.5" stroke="white" stroke-opacity="0.1"/>
</svg>
