<svg width="32" height="32" viewBox="0 0 32 32" fill="none" xmlns="http://www.w3.org/2000/svg">
<path d="M9.33333 4H12C12.3536 4 12.6928 4.14048 12.9428 4.39052C13.1929 4.64057 13.3333 4.97971 13.3333 5.33333V26.6667C13.3333 27.0203 13.1929 27.3594 12.9428 27.6095C12.6928 27.8595 12.3536 28 12 28H9.33333C8.97971 28 8.64057 27.8595 8.39052 27.6095C8.14048 27.3594 8 27.0203 8 26.6667V5.33333C8 4.97971 8.14048 4.64057 8.39052 4.39052C8.64057 4.14048 8.97971 4 9.33333 4ZM20 28H22.6667C23.0203 28 23.3594 27.8595 23.6095 27.6095C23.8595 27.3594 24 27.0203 24 26.6667V5.33333C24 4.97971 23.8595 4.64057 23.6095 4.39052C23.3594 4.14048 23.0203 4 22.6667 4H20C19.6464 4 19.3072 4.14048 19.0572 4.39052C18.8071 4.64057 18.6667 4.97971 18.6667 5.33333V26.6667C18.6667 27.0203 18.8071 27.3594 19.0572 27.6095C19.3072 27.8595 19.6464 28 20 28Z" fill="white"/>
</svg>
