<svg width="24" height="24" viewBox="0 0 24 24" fill="none" xmlns="http://www.w3.org/2000/svg">
<path d="M22.3255 12C22.3255 17.7026 17.7026 22.3255 12 22.3255V24C18.6274 24 24 18.6274 24 12H22.3255ZM12 22.3255C6.29733 22.3255 1.67442 17.7026 1.67442 12H0C0 18.6274 5.37257 24 12 24V22.3255ZM1.67442 12C1.67442 6.29733 6.29733 1.67442 12 1.67442V0C5.37257 0 0 5.37257 0 12H1.67442ZM12 1.67442C17.7026 1.67442 22.3255 6.29733 22.3255 12H24C24 5.37257 18.6274 0 12 0V1.67442Z" fill="#010101"/>
<path d="M7.94477 13.2343C7.73987 12.8879 7.29691 12.7756 6.9554 12.9834C6.61389 13.1912 6.50315 13.6404 6.70806 13.9868L7.94477 13.2343ZM14.3742 14.4199L14.8827 14.9384L14.8841 14.937L14.3742 14.4199ZM16.3571 11.9208C16.414 11.521 16.1406 11.1502 15.7464 11.0925C15.3522 11.0348 14.9865 11.3121 14.9296 11.7119L16.3571 11.9208ZM6.70806 13.9868C6.91238 14.3321 7.16068 14.6522 7.44147 14.937L8.46129 13.9027C8.26134 13.7 8.0866 13.474 7.94477 13.2343L6.70806 13.9868ZM7.44147 14.937C9.49301 17.0175 12.8234 17.0155 14.8827 14.9384L13.8657 13.9013C12.3674 15.4125 9.94807 15.4105 8.46129 13.9027L7.44147 14.937ZM14.8841 14.937C15.7252 14.084 16.2023 13.0083 16.3571 11.9208L14.9296 11.7119C14.8152 12.5161 14.4654 13.2931 13.8643 13.9027L14.8841 14.937Z" fill="#010101"/>
<path d="M5.96824 10.4058C5.91192 10.8056 6.18587 11.1761 6.58014 11.2332C6.9744 11.2903 7.33967 11.0125 7.39599 10.6126L5.96824 10.4058ZM14.3741 7.90569L14.884 7.38857L14.8826 7.38717L14.3741 7.90569ZM14.3864 9.1007C14.5964 9.44386 15.041 9.54938 15.3794 9.33639C15.7177 9.12339 15.8218 8.67253 15.6118 8.32936L14.3864 9.1007ZM7.39599 10.6126C7.51033 9.80099 7.85905 9.03348 8.46122 8.42281L7.44139 7.38857C6.60131 8.24052 6.12313 9.30627 5.96824 10.4058L7.39599 10.6126ZM8.46122 8.42281C9.94799 6.91501 12.3673 6.913 13.8656 8.42421L14.8826 7.38717C12.8233 5.31005 9.49292 5.30804 7.44139 7.38857L8.46122 8.42281ZM13.8642 8.42281C14.0677 8.62919 14.2364 8.85571 14.3864 9.1007L15.6118 8.32936C15.4156 8.00879 15.1805 7.68923 14.884 7.38857L13.8642 8.42281Z" fill="#010101"/>
<path d="M6.42244 16.2134C6.42244 16.6173 6.7453 16.9447 7.14357 16.9447C7.54183 16.9447 7.86469 16.6173 7.86469 16.2134H6.42244ZM7.14357 13.6099V12.8786C6.7453 12.8786 6.42244 13.206 6.42244 13.6099H7.14357ZM9.71074 14.3412C10.109 14.3412 10.4319 14.0138 10.4319 13.6099C10.4319 13.206 10.109 12.8786 9.71074 12.8786V14.3412ZM7.86469 16.2134V13.6099H6.42244V16.2134H7.86469ZM7.14357 14.3412H9.71074V12.8786H7.14357V14.3412Z" fill="#010101"/>
<path d="M15.9029 6.11139C15.9029 5.7075 15.58 5.38008 15.1818 5.38008C14.7835 5.38008 14.4606 5.7075 14.4606 6.11139H15.9029ZM15.1818 8.71486V9.44618C15.58 9.44618 15.9029 9.11876 15.9029 8.71486H15.1818ZM12.6146 7.98354C12.2163 7.98354 11.8935 8.31097 11.8935 8.71486C11.8935 9.11876 12.2163 9.44618 12.6146 9.44618V7.98354ZM14.4606 6.11139V8.71486H15.9029V6.11139H14.4606ZM15.1818 7.98354H12.6146V9.44618H15.1818V7.98354Z" fill="#101010"/>
</svg>
