<svg width="15" height="15" viewBox="0 0 15 15" fill="none" xmlns="http://www.w3.org/2000/svg">
<path d="M12.2172 10.1965V3.7923C12.2172 3.05076 11.6105 2.44404 10.869 2.44404H7.16129" stroke="white" stroke-width="1.5" stroke-linecap="round" stroke-linejoin="round"/>
<path d="M8.84793 0.758394L6.82554 2.44371L8.84793 4.12903" stroke="white" stroke-width="1.5" stroke-linecap="round" stroke-linejoin="round"/>
<path d="M12.2172 14.2416C13.3342 14.2416 14.2396 13.3362 14.2396 12.2192C14.2396 11.1023 13.3342 10.1968 12.2172 10.1968C11.1003 10.1968 10.1949 11.1023 10.1949 12.2192C10.1949 13.3362 11.1003 14.2416 12.2172 14.2416Z" stroke="white" stroke-width="1.5" stroke-linecap="round" stroke-linejoin="round"/>
<path d="M2.78078 4.80316V11.2074C2.78078 11.9489 3.38749 12.5556 4.12903 12.5556H7.83673" stroke="white" stroke-width="1.5" stroke-linecap="round" stroke-linejoin="round"/>
<path d="M6.1501 14.2409L8.17248 12.5556L6.1501 10.8703" stroke="white" stroke-width="1.5" stroke-linecap="round" stroke-linejoin="round"/>
<path d="M2.78078 4.80316C3.89771 4.80316 4.80316 3.89771 4.80316 2.78078C4.80316 1.66385 3.89771 0.758394 2.78078 0.758394C1.66385 0.758394 0.758394 1.66385 0.758394 2.78078C0.758394 3.89771 1.66385 4.80316 2.78078 4.80316Z" stroke="white" stroke-width="1.5" stroke-linecap="round" stroke-linejoin="round"/>
</svg>
