<svg width="133" height="20" viewBox="0 0 133 20" fill="none" xmlns="http://www.w3.org/2000/svg">
<g clip-path="url(#clip0_52_125203)">
<path d="M38.99 4.00045V16.0004H36.9V6.60045H36.87L33.14 16.0004H31.76L27.95 6.60045H27.92V16.0004H26V4.00045H28.99L32.43 12.9004H32.48L36.13 4.00045H38.99ZM40.73 4.91045C40.73 4.58045 40.85 4.30045 41.09 4.07045C41.34 3.84045 41.62 3.73045 41.96 3.73045C42.32 3.73045 42.61 3.85045 42.85 4.08045C43.08 4.31045 43.2 4.58045 43.2 4.91045C43.2 5.24045 43.08 5.51045 42.84 5.74045C42.6 5.96045 42.31 6.07045 41.96 6.07045C41.61 6.07045 41.32 5.97045 41.08 5.74045C40.9664 5.63464 40.8765 5.50597 40.8161 5.36292C40.7558 5.21986 40.7265 5.06566 40.73 4.91045ZM42.96 16.0004H40.94V7.40045H42.96V16.0004ZM49.11 14.5304C49.41 14.5304 49.74 14.4604 50.11 14.3204C50.47 14.1804 50.8 14.0004 51.11 13.7704V15.6504C50.78 15.8304 50.41 15.9704 50.01 16.0704C49.6 16.1704 49.15 16.2104 48.66 16.2104C47.39 16.2104 46.36 15.8104 45.56 15.0104C45.1659 14.6051 44.8582 14.1241 44.6554 13.5964C44.4525 13.0687 44.3589 12.5054 44.38 11.9404C44.38 10.5604 44.78 9.42045 45.59 8.53045C46.0312 8.06944 46.5674 7.70992 47.1614 7.4768C47.7554 7.24369 48.393 7.14257 49.03 7.18045C49.7518 7.18191 50.4635 7.34957 51.11 7.67045V9.60045C50.79 9.37045 50.48 9.20045 50.15 9.07045C49.8318 8.94291 49.4928 8.87511 49.15 8.87045C48.35 8.87045 47.71 9.14045 47.21 9.66045C46.72 10.1804 46.48 10.8804 46.48 11.7604C46.48 12.6304 46.71 13.3004 47.18 13.7904C47.66 14.2704 48.3 14.5204 49.11 14.5204V14.5304ZM56.87 7.26045C57.1307 7.25799 57.3904 7.29508 57.64 7.37045V9.42045C57.2779 9.20226 56.8627 9.08808 56.44 9.09045C55.94 9.09045 55.51 9.30045 55.17 9.72045C54.83 10.1405 54.66 10.7904 54.66 11.6604V16.0004H52.63V7.40045H54.66V8.75045H54.69C54.847 8.30132 55.1429 7.91383 55.5348 7.64413C55.9268 7.37444 56.3944 7.23655 56.87 7.25045V7.26045ZM57.74 11.8204C57.74 10.4004 58.14 9.28045 58.94 8.44045C59.3832 8.01177 59.9109 7.68012 60.4894 7.46663C61.0679 7.25314 61.6845 7.16249 62.3 7.20045C63.65 7.20045 64.7 7.60045 65.45 8.40045C66.21 9.20045 66.59 10.2804 66.59 11.6404C66.59 13.0404 66.19 14.1404 65.39 14.9704C64.58 15.8004 63.49 16.2104 62.1 16.2104C61.52 16.2396 60.9401 16.151 60.3953 15.9499C59.8504 15.7488 59.352 15.4394 58.93 15.0404C58.5266 14.6129 58.2141 14.108 58.0113 13.5563C57.8085 13.0046 57.7196 12.4175 57.75 11.8304L57.74 11.8204ZM59.85 11.7604C59.85 12.6604 60.05 13.3404 60.46 13.8104C60.87 14.2904 61.46 14.5204 62.21 14.5204C62.95 14.5204 63.51 14.2904 63.89 13.8204C64.29 13.3404 64.47 12.6404 64.47 11.7104C64.47 10.7804 64.27 10.0804 63.87 9.61045C63.47 9.14045 62.92 8.90045 62.2 8.90045C61.46 8.90045 60.88 9.15045 60.47 9.64045C60.0183 10.2511 59.7985 11.0026 59.85 11.7604ZM69.59 9.66045C69.59 9.95045 69.69 10.1704 69.87 10.3404C70.05 10.5004 70.46 10.7104 71.09 10.9604C71.89 11.2905 72.47 11.6504 72.79 12.0604C73.12 12.4604 73.28 12.9504 73.28 13.5204C73.28 14.3305 72.97 14.9804 72.35 15.4704C71.72 15.9704 70.88 16.2104 69.83 16.2104C69.0436 16.2121 68.2648 16.0556 67.54 15.7504V13.7504C67.91 14.0104 68.31 14.2204 68.74 14.3704C69.16 14.5204 69.54 14.5904 69.89 14.5904C70.34 14.5904 70.68 14.5304 70.89 14.4004C71.11 14.2704 71.22 14.0604 71.22 13.7604C71.222 13.6249 71.1934 13.4906 71.1363 13.3677C71.0791 13.2447 70.9949 13.1363 70.89 13.0504C70.66 12.8504 70.23 12.6304 69.6 12.3804C68.9914 12.1622 68.4455 11.7983 68.01 11.3204C67.71 10.9304 67.54 10.4404 67.54 9.84045C67.54 9.06045 67.85 8.42045 68.47 7.92045C69.09 7.42045 69.89 7.17045 70.87 7.17045C71.5357 7.1788 72.1952 7.30055 72.82 7.53045V9.46045C72.5265 9.26959 72.2108 9.11512 71.88 9.00045C71.52 8.87045 71.17 8.80045 70.82 8.80045C70.43 8.80045 70.13 8.88045 69.92 9.03045C69.8165 9.0993 69.732 9.1931 69.6744 9.30321C69.6167 9.41331 69.5877 9.53617 69.59 9.66045ZM74.15 11.8204C74.15 10.4004 74.55 9.28045 75.35 8.44045C75.7932 8.01177 76.3209 7.68012 76.8994 7.46663C77.4779 7.25314 78.0945 7.16249 78.71 7.20045C80.05 7.20045 81.1 7.60045 81.86 8.40045C82.61 9.20045 82.99 10.2804 82.99 11.6404C82.99 13.0404 82.59 14.1404 81.79 14.9704C80.99 15.8004 79.89 16.2104 78.5 16.2104C77.92 16.2396 77.3401 16.151 76.7953 15.9499C76.2504 15.7488 75.752 15.4394 75.33 15.0404C74.9266 14.6129 74.6141 14.108 74.4113 13.5563C74.2085 13.0046 74.1196 12.4175 74.15 11.8304V11.8204ZM76.26 11.7604C76.26 12.6604 76.46 13.3404 76.87 13.8104C77.28 14.2904 77.87 14.5204 78.62 14.5204C79.36 14.5204 79.92 14.2904 80.31 13.8204C80.69 13.3404 80.88 12.6404 80.88 11.7104C80.88 10.7804 80.68 10.0804 80.28 9.61045C79.88 9.14045 79.33 8.90045 78.61 8.90045C77.87 8.90045 77.29 9.15045 76.88 9.64045C76.4283 10.2511 76.2085 11.0026 76.26 11.7604ZM89.71 9.06045H86.69V16.0004H84.64V9.05045H83.2V7.40045H84.64V6.20045C84.624 5.78523 84.695 5.37125 84.8484 4.98508C85.0018 4.59892 85.2343 4.24911 85.531 3.95813C85.8276 3.66714 86.1818 3.44141 86.5708 3.29543C86.9599 3.14944 87.3752 3.08644 87.79 3.11045C88.1778 3.11594 88.5637 3.16628 88.94 3.26045V5.01045C88.6519 4.86415 88.3331 4.78873 88.01 4.79045C87.59 4.79045 87.26 4.92045 87.03 5.19045C86.81 5.45045 86.69 5.84045 86.69 6.36045V7.40045H89.71V5.47045L91.74 4.85045V7.40045H93.79V9.06045H91.74V13.0804C91.74 13.6104 91.84 13.9804 92.04 14.2004C92.22 14.4204 92.52 14.5304 92.94 14.5304C93.2408 14.5025 93.5315 14.4068 93.79 14.2504V15.9204C93.302 16.1111 92.7838 16.2128 92.26 16.2204C91.41 16.2204 90.77 15.9904 90.35 15.5304C89.92 15.0804 89.71 14.3904 89.71 13.4804V9.05045V9.06045Z" fill="#737373"/>
<path d="M9.5 0H0V9.5H9.5V0Z" fill="#F25022"/>
<path d="M20 0H10.5V9.5H20V0Z" fill="#7FBA00"/>
<path d="M9.5 10.5H0V20H9.5V10.5Z" fill="#00A4EF"/>
<path d="M20 10.5H10.5V20H20V10.5Z" fill="#FFB900"/>
<path d="M100.739 7.03989C100.739 7.47989 100.899 7.84989 101.209 8.14989C101.509 8.44989 102.059 8.80989 102.859 9.21989C103.722 9.62084 104.499 10.1845 105.149 10.8799C105.609 11.4399 105.849 12.0799 105.849 12.7999C105.869 13.279 105.775 13.756 105.573 14.191C105.371 14.626 105.068 15.0062 104.689 15.2999C103.919 15.8999 102.929 16.1999 101.729 16.1999C101.049 16.1999 100.419 16.1399 99.8486 15.9999C99.2786 15.8599 98.8486 15.6999 98.5586 15.5099V13.2299C98.9286 13.5699 99.3986 13.8499 99.9786 14.0699C100.559 14.2899 101.119 14.4099 101.679 14.4099C102.289 14.4099 102.779 14.2899 103.129 14.0599C103.489 13.8199 103.669 13.4599 103.669 12.9999C103.669 12.5899 103.489 12.2099 103.149 11.8699C102.573 11.3801 101.934 10.9697 101.249 10.6499C100.482 10.2808 99.7984 9.76036 99.2386 9.11989C98.7941 8.57211 98.5569 7.88522 98.5686 7.17989C98.5686 6.18989 98.9586 5.37989 99.7186 4.74989C100.561 4.09165 101.61 3.75488 102.679 3.79989C103.578 3.80502 104.47 3.9605 105.319 4.25989V6.43989C104.962 6.16391 104.559 5.95394 104.129 5.81989C103.67 5.67263 103.191 5.59839 102.709 5.59989C102.129 5.59989 101.649 5.72989 101.289 5.99989C100.919 6.24989 100.739 6.59989 100.739 7.03989ZM110.829 14.5299C111.13 14.5023 111.42 14.4066 111.679 14.2499V15.9199C111.194 16.1092 110.679 16.2108 110.159 16.2199C109.299 16.2199 108.659 15.9799 108.239 15.5199C107.809 15.0699 107.599 14.3899 107.599 13.4699V9.04989H106.189V7.39989H107.599V5.45989L109.629 4.83989V7.39989H111.679V9.05989H109.629V13.0899C109.629 13.6199 109.729 13.9899 109.929 14.2099C110.109 14.4299 110.409 14.5399 110.829 14.5399V14.5299ZM119.799 10.6099V13.9599C119.799 14.7799 119.849 15.4599 119.929 15.9999H117.909L117.809 15.0799H117.779C117.519 15.4299 117.179 15.6899 116.769 15.8799C116.349 16.0599 115.829 16.1499 115.199 16.1499C114.439 16.1499 113.799 15.9199 113.299 15.4499C113.042 15.215 112.84 14.9267 112.707 14.6053C112.574 14.284 112.513 13.9374 112.529 13.5899C112.529 12.7599 112.859 12.0899 113.509 11.5899C114.169 11.0699 115.199 10.7399 116.599 10.5599L117.829 10.4099C117.829 9.83989 117.689 9.43989 117.429 9.19989C117.159 8.95989 116.749 8.83989 116.219 8.82989C115.639 8.82989 115.089 8.91989 114.569 9.08989C114.049 9.26989 113.649 9.47989 113.369 9.71989V7.86989C114.354 7.40796 115.43 7.1722 116.519 7.17989C117.589 7.17989 118.399 7.47989 118.959 8.06989C119.519 8.65989 119.789 9.50989 119.789 10.6099H119.799ZM116.919 11.8899C116.029 11.9899 115.399 12.1699 115.039 12.4099C114.669 12.6499 114.489 12.9799 114.489 13.3999C114.489 13.7599 114.589 14.0399 114.809 14.2499C115.029 14.4599 115.349 14.5699 115.789 14.5699C116.419 14.5699 116.919 14.3699 117.289 13.9899C117.649 13.5899 117.839 13.1099 117.839 12.5299V11.7799L116.919 11.8899ZM125.829 7.25989C126.089 7.25774 126.349 7.29482 126.599 7.36989V9.41989C126.237 9.2017 125.821 9.08752 125.399 9.08989C124.899 9.08989 124.479 9.29989 124.129 9.71989C123.789 10.1399 123.619 10.7899 123.619 11.6599V15.9999H121.589V7.39989H123.619V8.74989H123.649C123.806 8.30076 124.101 7.91327 124.493 7.64358C124.885 7.37388 125.353 7.23599 125.829 7.24989V7.25989ZM131.899 14.5299C132.199 14.5013 132.49 14.4056 132.749 14.2499V15.9199C132.264 16.1092 131.749 16.2108 131.229 16.2199C130.379 16.2199 129.729 15.9799 129.309 15.5199C128.879 15.0699 128.669 14.3899 128.669 13.4699V9.04989H127.259V7.39989H128.669V5.45989L130.709 4.83989V7.39989H132.749V9.05989H130.709V13.0899C130.709 13.6199 130.809 13.9899 130.989 14.2099C131.189 14.4299 131.489 14.5399 131.899 14.5399V14.5299Z" fill="#737373"/>
</g>
<defs>
<clipPath id="clip0_52_125203">
<rect width="133" height="20" fill="white"/>
</clipPath>
</defs>
</svg>
