<svg width="13" height="13" viewBox="0 0 13 13" fill="none" xmlns="http://www.w3.org/2000/svg">
<path fill-rule="evenodd" clip-rule="evenodd" d="M0.380986 3.26355H12.6185C12.8289 3.26355 12.9995 3.43412 12.9995 3.64453V12.6192C12.9995 12.8296 12.8289 13.0002 12.6185 13.0002H0.380986C0.170573 13.0002 0 12.8296 0 12.6192V3.64453C0 3.43412 0.170573 3.26355 0.380986 3.26355ZM5.58879 10.4883L8.64868 8.44835L8.65168 8.44935C8.75766 8.37869 8.82131 8.25974 8.82131 8.13237C8.82131 8.00499 8.75766 7.88604 8.65168 7.81538L5.59179 5.77546C5.4749 5.69771 5.32471 5.69054 5.20095 5.75682C5.07719 5.82309 4.9999 5.95205 4.99981 6.09244V10.1713C5.00062 10.3107 5.07749 10.4385 5.20023 10.5046C5.32298 10.5706 5.472 10.5644 5.58879 10.4883Z" fill="#636363"/>
<path d="M11.3947 1.63163H1.60506C1.39465 1.63163 1.22408 1.80221 1.22408 2.01262C1.22408 2.22303 1.39465 2.39361 1.60506 2.39361H11.3957C11.6061 2.39361 11.7767 2.22303 11.7767 2.01262C11.7767 1.80221 11.6061 1.63163 11.3957 1.63163H11.3947Z" fill="#636363"/>
<path d="M10.1716 -0.000140617H2.82889C2.61848 -0.000140617 2.44791 0.170432 2.44791 0.380845C2.44791 0.591258 2.61848 0.761831 2.82889 0.761831H10.1716C10.382 0.761831 10.5526 0.591258 10.5526 0.380845C10.5526 0.170432 10.382 -0.000140617 10.1716 -0.000140617Z" fill="#636363"/>
</svg>
