<svg width="24" height="24" viewBox="0 0 24 24" fill="none" xmlns="http://www.w3.org/2000/svg">
<path fill-rule="evenodd" clip-rule="evenodd" d="M17.7771 2.84754C15.9596 2.26433 13.6306 2.49846 12.0259 3.9829C10.4138 2.56305 8.16544 2.25098 6.31483 2.84791C2.09359 4.2068 0.793082 9.07673 1.97046 12.7526C2.91788 15.7014 4.96125 17.8799 6.93772 19.3095C7.92986 20.0271 8.9241 20.5702 9.79128 20.9372C10.6256 21.2903 11.4411 21.5227 12.0515 21.5227C12.6653 21.5227 13.4862 21.2844 14.3226 20.9272C15.1933 20.5554 16.1916 20.0067 17.1862 19.2856C19.1652 17.8506 21.2108 15.6716 22.1307 12.7491C23.3062 9.0718 21.9951 4.20556 17.7771 2.84754ZM15.8913 6.56969C15.3419 6.51325 14.8507 6.91286 14.7943 7.46226C14.7379 8.01165 15.1375 8.50278 15.6869 8.55922C16.0384 8.59533 16.2763 8.74157 16.4327 8.93935C16.5955 9.14529 16.7226 9.47646 16.7066 9.95292C16.6881 10.5049 17.1206 10.9674 17.6725 10.9859C18.2245 11.0044 18.687 10.572 18.7055 10.02C18.7345 9.15545 18.5066 8.33762 18.0015 7.69881C17.4898 7.05184 16.7467 6.65758 15.8913 6.56969Z" fill="#787878"/>
</svg>
