<svg width="30" height="30" viewBox="0 0 30 30" fill="none" xmlns="http://www.w3.org/2000/svg">
<g clip-path="url(#clip0_52_70519)">
<path d="M23.4375 2.43584C23.4375 2.43584 20.5313 3.46709 21.1875 5.06084C21.8438 6.65459 21.5625 6.74834 21.2813 7.12334C21 7.49834 19.9687 8.24834 20.4375 8.52959C20.9062 8.81084 22.125 9.27959 22.3125 10.2171C22.5 11.1546 21.9375 11.3421 21.5625 11.8108C21.1875 12.2796 20.0625 12.3733 20.5312 13.6858C21 14.9983 22.125 15.1858 22.125 15.1858C22.125 15.1858 21.1875 13.8733 21.5625 13.4983C21.9375 13.1233 22.6875 12.5608 23.0625 12.7483C23.4375 12.9358 24.5625 12.3733 24.6562 11.7171C24.75 11.0608 24.6563 11.3421 25.4063 11.0608C26.1563 10.7796 26.8125 9.46709 26.5312 8.81084C26.25 8.15459 26.9063 6.46709 26.8125 6.18584C26.7188 5.90459 25.9688 5.15459 25.3125 4.49834C24.8438 3.84209 24.375 2.34209 23.4375 2.43584ZM16.5938 11.1546C16.5938 11.1546 15.5625 13.2171 14.25 13.8733L17.9063 16.1233C17.9063 16.1233 17.7187 14.4358 19.125 12.2796C19.0312 12.3733 17.1563 11.9983 16.5938 11.1546Z" fill="#D67D56"/>
<path d="M24.0933 7.40595C24.0933 5.8122 22.2183 4.8747 21.8433 4.6872C21.4683 4.40595 19.7808 3.28095 18.3746 4.03095C16.7808 4.96845 13.9683 10.031 17.2495 12.4685H17.3433C21.0933 14.156 24.0933 9.1872 24.0933 7.40595Z" fill="#D67D56"/>
<path d="M23.25 2.24917C23.25 2.24917 23.8125 5.24917 22.0312 5.53042C20.3437 5.81167 20.3437 5.99917 20.1562 6.46792C19.9687 6.93667 19.7812 8.15542 19.3125 7.87417C18.75 7.68667 17.8125 6.74917 16.9688 7.03042C16.0312 7.31167 16.2187 7.87417 15.9375 8.43667C15.6562 8.99917 16.2187 9.93667 14.8125 10.2179C13.4062 10.4992 12.75 9.56167 12.75 9.56167C12.75 9.56167 14.3437 9.74917 14.4375 9.18667C14.5312 8.71792 14.7187 7.78042 14.3437 7.49917C13.9687 7.21792 13.9687 5.99917 14.4375 5.62417C15 5.24917 14.7188 5.43667 14.625 4.59292C14.5312 3.74917 15.2812 2.53042 16.0312 2.53042C16.7812 2.53042 17.8125 1.03042 18.1875 1.03042C18.5625 0.936674 19.5 1.31167 20.4375 1.49917C21.2812 1.78042 22.7812 1.40542 23.25 2.24917Z" fill="#D67D56"/>
<path d="M21.6563 9.28125C22.0705 9.28125 22.4063 8.94546 22.4063 8.53125C22.4063 8.11704 22.0705 7.78125 21.6563 7.78125C21.242 7.78125 20.9062 8.11704 20.9062 8.53125C20.9062 8.94546 21.242 9.28125 21.6563 9.28125Z" fill="#D67D56"/>
<path d="M18.5625 11.5313C19.1838 11.5313 19.6875 11.0276 19.6875 10.4063C19.6875 9.78493 19.1838 9.28125 18.5625 9.28125C17.9412 9.28125 17.4375 9.78493 17.4375 10.4063C17.4375 11.0276 17.9412 11.5313 18.5625 11.5313Z" fill="#D67D56"/>
<path d="M21.6568 2.53125C21.6568 2.53125 22.0318 4.125 21.4693 4.3125C20.9068 4.5 19.3131 5.15625 19.3131 5.15625L18.8443 6.5625C18.8443 6.5625 16.7818 5.4375 16.2193 6.09375C15.6568 6.75 16.2193 4.59375 16.3131 4.3125C16.5006 4.125 18.5631 2.53125 18.5631 2.53125H21.6568Z" fill="#D67D56"/>
<path d="M23.0627 1.40625C23.0627 1.40625 20.1564 2.4375 20.8127 4.03125C21.4689 5.625 21.1877 5.71875 20.9064 6.09375C20.6252 6.46875 19.6877 7.21875 20.1564 7.59375C20.6252 7.96875 21.8439 8.34375 22.0314 9.28125C22.2189 10.2188 21.6564 10.4062 21.2814 10.875C20.9064 11.3438 19.7814 11.4375 20.2502 12.75C20.7189 14.0625 21.8439 14.25 21.8439 14.25C21.8439 14.25 20.9064 12.9375 21.2814 12.5625C21.6564 12.1875 22.4064 11.625 22.7814 11.8125C23.1564 12 24.2814 11.4375 24.3752 10.7812C24.4689 10.125 24.3752 10.4062 25.1252 10.125C25.8752 9.84375 26.5314 8.53125 26.2502 7.875C25.9689 7.21875 26.6252 5.53125 26.5314 5.25C26.4377 4.96875 25.6877 4.21875 25.0314 3.5625C24.4689 2.8125 24.0939 1.40625 23.0627 1.40625Z" fill="#D67D56"/>
<path d="M16.2187 10.125C16.2187 10.125 15.1875 12.1875 13.875 12.8437L17.5313 15.0938C17.5313 15.0938 17.3438 13.4062 18.75 11.25C18.6562 11.3437 16.7812 11.0625 16.2187 10.125Z" fill="#E2A881"/>
<path d="M23.812 6.3747C23.812 4.78095 21.937 3.84345 21.562 3.65595C21.187 3.3747 19.4995 2.2497 18.0933 2.9997C16.4995 3.9372 13.6871 8.9997 16.9683 11.4372H17.0621C20.7183 13.1247 23.7183 8.2497 23.812 6.3747Z" fill="#EFBF9E"/>
<path d="M22.875 1.31167C22.875 1.31167 23.4375 4.31167 21.6563 4.59292C19.9688 4.87417 19.9688 5.06167 19.7813 5.53042C19.5938 5.99917 19.4063 7.21792 18.9375 6.93667C18.375 6.65542 17.4375 5.81167 16.5938 6.09292C15.75 6.37417 15.75 6.93667 15.5625 7.49917C15.375 8.06167 15.8437 8.99917 14.4375 9.28042C13.0312 9.56167 12.375 8.62417 12.375 8.62417C12.375 8.62417 13.9688 8.81167 14.0625 8.24917C14.1563 7.78042 14.3437 6.84292 13.9687 6.56167C13.5937 6.28042 13.5938 5.06167 14.0625 4.68667C14.625 4.31167 14.3438 4.49917 14.25 3.65542C14.1562 2.81167 14.9063 1.59292 15.6563 1.59292C16.3125 1.49917 17.4375 0.0929242 17.8125 0.0929242C18.1875 -0.00082577 19.125 0.374174 20.0625 0.561674C21 0.749174 22.4062 0.374174 22.875 1.31167Z" fill="#D67D56"/>
<path d="M21.2818 1.59375C21.2818 1.59375 21.6568 3.1875 21.0943 3.375C20.5318 3.5625 18.9381 4.21875 18.9381 4.21875L18.4693 5.625C18.4693 5.625 16.4068 4.5 15.8443 5.15625C15.2818 5.8125 15.8443 3.65625 15.9381 3.375C16.1256 3.1875 18.1881 1.59375 18.1881 1.59375H21.2818Z" fill="#FCA377"/>
<path d="M15.8443 18.9375C16.1255 17.9063 17.2505 16.7813 17.813 16.5C18.2818 16.2188 19.5943 15.5625 19.688 15.1875C19.688 14.9063 17.9068 13.4062 17.438 13.0312H17.3443L17.2505 12.9375L16.8755 12.75L16.5943 12.5625H16.4068L13.4068 11.625C13.1255 11.8125 13.2193 13.3125 13.2193 13.875C13.2193 14.4375 12.8443 15.9375 12.0943 16.7812C12.0943 16.7812 10.7818 17.1563 10.5005 17.5313C10.2193 17.8125 9.09425 19.125 11.9068 20.8125C12.0005 20.9063 12.0943 20.9062 12.188 21C12.2818 21.0938 12.3755 21.0938 12.4693 21.1875C15.2818 22.7813 15.8443 21.1875 16.0318 20.8125C16.2193 20.3438 15.8443 18.9375 15.8443 18.9375Z" fill="#D67D56"/>
<path d="M12.1884 20.5316L12.0009 24.1878C12.0009 24.1878 11.5321 25.3128 11.9071 25.5003C12.2821 25.6878 13.6884 25.8753 14.0634 24.9378C14.3446 24.0941 15.8446 21.6566 15.8446 21.4691C15.8446 21.2816 16.5009 20.1566 15.2821 19.3128C15.1884 19.3128 12.1884 18.7503 12.1884 20.5316Z" fill="#D67D56"/>
<path d="M13.4062 29.5312C13.3125 28.9688 13.0312 28.3125 13.2188 28.0312C13.4062 27.75 13.9687 26.625 13.875 26.3438C13.6875 26.0625 13.9687 25.125 13.9687 25.125C13.5937 24.4687 11.9062 24.6563 11.8125 24.9375C11.7188 25.3125 11.4375 25.875 11.4375 26.0625C11.4375 26.25 11.25 27 11.625 27.2813C12 27.5625 11.25 28.7813 11.25 28.7813L10.875 29.3437C11.3438 29.4375 12.9375 29.5312 13.4062 29.5312Z" fill="#D67D56"/>
<path d="M13.2192 29.25C13.1255 29.25 13.1255 29.1562 13.1255 29.1562C12.3755 29.0625 12.188 28.875 11.438 28.7812C11.3442 28.875 10.8755 29.0625 10.7817 29.1562C10.5942 29.4375 11.2505 30 11.2505 30H13.4067C14.6255 30 13.688 29.5312 13.2192 29.25Z" fill="#D67D56"/>
<path d="M11.9071 20.0628L11.7196 23.719C11.7196 23.719 11.2509 24.844 11.6259 25.0315C12.0009 25.219 13.4071 25.4065 13.7821 24.469C14.0634 23.6253 15.5634 21.1878 15.5634 21.0003C15.5634 20.8128 16.2196 19.6878 15.0009 18.844C15.0009 18.7503 11.9071 18.2815 11.9071 20.0628Z" fill="#EFBF9E"/>
<path d="M13.125 29.0625C13.0313 28.5 12.75 27.8437 12.9375 27.5625C13.125 27.2812 13.6875 26.1563 13.5938 25.875C13.4063 25.5938 13.6875 24.6562 13.6875 24.6562C13.3125 24 11.625 24.1875 11.5313 24.4688C11.4375 24.8438 11.1562 25.4062 11.1562 25.5937C11.1562 25.7812 10.9688 26.5313 11.3438 26.8125C11.7188 27.0938 11.0625 28.3125 11.0625 28.3125L10.6875 28.875C11.1562 28.9687 12.6563 28.9688 13.125 29.0625Z" fill="#EFBF9E"/>
<path d="M12.938 28.6875C12.8442 28.6875 12.8442 28.5937 12.8442 28.5937C12.0942 28.5 11.9067 28.3125 11.1567 28.2188C11.063 28.3125 10.5942 28.5 10.5005 28.5937C10.313 28.875 10.9692 29.4375 10.9692 29.4375H13.1255C14.3442 29.4375 13.4067 29.0625 12.938 28.6875Z" fill="#EFBF9E"/>
<path d="M12.4688 27.4688C12.4688 27.5625 12.4688 27.5625 12.375 27.5625C12.2812 27.5625 12.1875 27.5625 12.1875 27.4688C12.1875 27.375 12.0937 27.375 12.0937 27.2813C12 26.625 11.9062 26.0625 11.9062 25.4063C11.9062 25.0313 12 24.6563 12.0937 24.2813C12.2812 23.7188 12.375 23.1563 12.5625 22.5C12.6562 22.0313 12.8438 21.5625 13.4063 21.375C13.5938 21.2813 13.9688 21.2813 14.1563 21.375C14.3438 21.5625 14.3438 21.75 14.25 21.9375L12.8438 26.4375C12.75 26.7188 12.5625 27.0938 12.4688 27.4688Z" fill="#FFE2CF"/>
<path d="M10.9697 21.468L7.68848 22.6867C7.68848 22.6867 6.75098 23.4367 6.56348 23.1555C6.28223 22.7805 5.71973 21.5617 6.37598 21.093C7.03223 20.5305 8.90723 18.468 9.00098 18.468C9.09473 18.3742 10.0322 17.4367 11.1572 18.3742C11.251 18.2805 12.6572 20.9055 10.9697 21.468Z" fill="#D67D56"/>
<path d="M2.4375 22.9687C2.90625 22.875 3.65625 22.9688 3.84375 22.6875C4.03125 22.4063 4.875 21.5625 5.15625 21.6562C5.53125 21.6562 6.1875 21.1875 6.1875 21.1875C6.9375 21.375 7.21875 22.9687 7.03125 23.0625C6.75 23.25 6.28125 23.7187 6.09375 23.7187C5.90625 23.8125 5.25 24.0937 4.96875 23.9062C4.6875 23.8125 3.75 24.75 3.75 24.75C3.75 24.75 3.5625 25.0312 3.375 25.2187C3.09375 24.8437 2.625 23.4375 2.4375 22.9687Z" fill="#D67D56"/>
<path d="M2.71939 23.0609C2.81314 23.0609 2.81314 23.1547 2.90689 23.1547C3.18814 23.8109 3.46939 23.9047 3.75064 24.5609C3.75064 24.6547 3.65689 25.2172 3.65689 25.3109C3.46939 25.5922 2.71939 25.1234 2.71939 25.1234L2.06314 23.1547C1.68814 22.0297 2.34439 22.7797 2.71939 23.0609Z" fill="#D67D56"/>
<path d="M10.9678 20.9054L7.68653 22.1241C7.68653 22.1241 6.74903 22.8741 6.56153 22.5929C6.28028 22.2179 5.71778 20.9991 6.37403 20.5304C7.03028 20.0616 8.90528 17.9054 8.99903 17.9054C9.09278 17.9054 10.0303 16.8741 11.1553 17.8116C11.1553 17.7179 12.5615 20.3429 10.9678 20.9054Z" fill="#EFBF9E"/>
<path d="M2.34375 22.5C2.8125 22.4062 3.5625 22.5 3.75 22.2188C3.9375 21.9375 4.78125 21.0938 5.0625 21.1875C5.4375 21.1875 6.09375 20.7188 6.09375 20.7188C6.84375 20.9062 7.125 22.5 6.9375 22.5938C6.65625 22.7812 6.1875 23.25 6 23.25C5.8125 23.25 5.15625 23.625 4.875 23.4375C4.5 23.25 3.5625 24.1875 3.5625 24.1875C3.5625 24.1875 3.375 24.4687 3.1875 24.6562C3.09375 24.2812 2.53125 22.875 2.34375 22.5Z" fill="#EFBF9E"/>
<path d="M2.7179 22.5935C2.81165 22.5935 2.81165 22.6873 2.9054 22.6873C3.18665 23.3435 3.4679 23.4373 3.74915 24.0935C3.74915 24.1873 3.6554 24.7498 3.6554 24.8435C3.4679 25.1248 2.7179 24.656 2.7179 24.656L2.06165 22.6873C1.5929 21.4685 2.24915 22.2185 2.7179 22.5935Z" fill="#EFBF9E"/>
<path d="M4.03125 22.5935C4.03125 22.5935 3.9375 22.6873 3.9375 22.781C3.9375 22.8748 4.03125 22.9685 4.03125 22.9685H4.21875C4.875 22.8748 5.4375 22.781 6 22.5935L7.03125 22.031L8.53125 21.0935C8.90625 20.906 9.28125 20.531 9.375 19.9685C9.375 19.781 9.28125 19.4998 9.1875 19.3123C9 19.2185 8.8125 19.3123 8.625 19.406C7.40625 20.2498 6.28125 21.281 4.96875 21.9373L4.03125 22.5935Z" fill="#FFE2CF"/>
<path d="M16.6875 18.3757L15.5625 19.2195C15.5625 19.2195 14.4375 17.8132 12.1875 17.2507L12.6562 16.1257L13.2188 15.5632C13.2188 15.5632 14.25 15.4695 16.7812 17.4382L16.6875 18.3757Z" fill="#D67D56"/>
<path d="M15.4686 16.5L16.4061 16.4062C16.7811 16.4062 17.6248 16.5 17.9998 16.7812C18.3748 17.0625 18.4686 17.8125 18.0936 18.1875C17.7186 18.5625 17.5311 19.2187 16.6873 19.0312C15.8436 18.75 15.8436 18.6563 15.6561 18.375C15.4686 18.0938 15.1873 17.25 15.4686 16.5Z" fill="#D67D56"/>
<path d="M16.6875 10.1258C17.1563 10.8758 18.1875 11.2508 19.125 11.1571C20.0625 10.9696 20.8125 10.4071 21.375 9.65706C21.9375 8.90706 22.2188 7.96956 22.3125 7.12581C22.4063 6.75081 22.4063 6.46956 22.3125 6.09456C22.2188 5.71956 21.9375 5.43831 21.6563 5.34456C21.2813 5.25081 20.9063 5.53206 20.7188 5.81331C20.4375 6.09456 20.3438 6.37581 20.0625 6.65706C19.3125 7.68831 18.1875 7.59456 17.1563 7.31331C15.9375 7.12581 16.2188 9.56331 16.6875 10.1258Z" fill="#FFE2CF"/>
<path d="M14.719 16.0313C14.719 16.0313 14.5315 15.4688 14.344 15.0938C14.1565 14.8125 13.6877 14.0625 13.219 13.9687C12.7502 13.875 12.094 14.0625 11.9065 14.5313C11.719 15 11.344 15.5625 11.9065 16.2187C12.5627 16.7812 12.6565 16.7812 13.0315 16.7812C13.4065 16.875 14.2502 16.6875 14.719 16.0313Z" fill="#D67D56"/>
<path d="M15 12.375C15 12.375 14.625 13.5937 13.6875 14.7187L13.3125 14.5312C13.3125 14.5312 14.4375 13.2187 14.5313 12.2812L15 12.375ZM18.375 14.3437C18.375 14.3437 17.5313 15.2813 16.9688 16.5938L17.3438 16.7812C17.3438 16.7812 17.9062 15.0937 18.75 14.625L18.375 14.3437Z" fill="#D67D56"/>
<path d="M15.6568 18.2812C15.938 17.25 17.063 16.125 17.6255 15.8438C18.0943 15.5625 19.4068 14.9063 19.5005 14.5313C19.5005 14.25 17.7193 12.75 17.2505 12.375H17.1568L17.063 12.2813L16.688 12.0937L16.4068 11.9062H16.2193L13.2193 10.9688C12.938 11.1562 13.0318 12.6563 13.0318 13.2188C13.0318 13.7813 12.6568 15.2813 11.9068 16.125C11.9068 16.125 10.5943 16.5 10.313 16.875C10.0318 17.1562 8.90675 18.4688 11.7193 20.1562C11.813 20.25 11.9068 20.25 12.0005 20.3438C12.0943 20.4375 12.188 20.4375 12.2818 20.5312C15.0943 22.125 15.6568 20.5312 15.8443 20.1562C15.938 19.5938 15.6568 18.2812 15.6568 18.2812Z" fill="#EFBF9E"/>
<path d="M15.6563 19.5937C15.6563 19.5937 14.4375 19.6875 12.75 18.75C11.1563 17.625 10.5937 16.5938 10.5937 16.5938C10.125 16.6875 9.46875 17.4375 9.46875 17.4375C9.46875 17.4375 9.9375 17.625 10.6875 18.4687C11.4375 19.2187 11.25 20.4375 11.25 20.7187C11.25 20.9062 11.3437 21 11.4375 21C11.5312 21 11.625 21.0937 11.8125 21C12.0938 20.8125 13.0312 20.1562 14.0625 20.4375C15.0938 20.7187 15.5625 21 15.5625 21C15.5625 21 15.8438 20.0625 15.6563 19.5937Z" fill="#F75455"/>
<path d="M16.5 17.6257L15.375 18.4695C15.375 18.4695 14.1562 16.8757 12 16.2195L12.5625 15.282L13.125 14.7195C13.125 14.7195 14.1562 14.6257 16.6875 16.5945L16.5 17.6257Z" fill="#C6474E"/>
<path d="M14.8125 11.625C14.8125 11.625 14.4375 12.8437 13.5 13.9687L13.125 13.7812C13.125 13.7812 14.25 12.4687 14.3438 11.5312L14.8125 11.625ZM18.0937 13.5937C18.0937 13.5937 17.25 14.5312 16.6875 15.8437L17.0625 16.0312C17.0625 16.0312 17.625 14.3437 18.4688 13.875L18.0937 13.5937Z" fill="#F75455"/>
<path d="M15.0001 13.0321C15.2814 12.8446 15.7501 12.9383 16.0314 13.0321C16.4064 13.1258 16.8751 13.4071 16.9689 13.7821C17.0626 14.0633 16.9689 14.3446 16.7814 14.5321C16.5939 14.7196 16.3126 14.8133 16.0314 14.8133C15.7501 14.8133 15.3751 14.6258 15.1876 14.4383C14.8126 14.1571 14.3439 13.4071 15.0001 13.0321Z" fill="#FFE2CF"/>
<path d="M19.0312 15.1875C18.375 15.1875 17.9063 16.4062 17.9063 16.4062C17.7188 16.7812 17.7188 17.25 17.7188 17.25L18.0937 17.3437L20.1563 18.75C20.3438 18.9375 20.9062 18.75 21.375 18.2812C21.75 17.9062 21.5625 17.5312 21.5625 17.5312C21.5625 17.5312 19.6875 15.1875 19.0312 15.1875Z" fill="#D67D56"/>
<path d="M21.5625 17.7187C21 17.5312 20.9062 17.8125 20.9062 17.8125L20.3438 19.0312C20.3438 19.0312 20.625 19.4063 20.9062 19.6875C21.1875 19.875 21.8437 20.4375 21.8437 20.4375L22.3125 20.7188C22.4062 20.9063 23.0625 21 23.25 20.8125C23.4375 20.7188 23.5312 20.625 23.625 20.5312C23.7188 20.4375 22.9687 19.875 22.875 19.5937C22.7812 19.3125 22.125 17.8125 21.5625 17.7187Z" fill="#D67D56"/>
<path d="M22.3125 19.2188C22.3125 19.2188 22.3125 19.875 22.5 20.25C22.6875 20.625 23.0625 21.0938 23.4375 21.0938C23.7188 21 24 21.0938 23.9063 20.7188C23.8125 20.3438 24.0938 20.1563 23.7188 19.7813C23.3438 19.4063 22.5938 19.0312 22.5938 19.0312L22.3125 19.2188Z" fill="#D67D56"/>
<path d="M19.125 14.5312C18.4687 14.5312 18 15.75 18 15.75C17.8125 16.125 17.8125 16.5938 17.8125 16.5938L18.1875 16.6875L20.25 18.0937C20.4375 18.2812 21 18.0937 21.4687 17.625C21.8437 17.25 21.6563 16.875 21.6563 16.875C21.6563 16.875 19.7812 14.5312 19.125 14.5312Z" fill="#EFBF9E"/>
<path d="M21.6563 17.0625C21.0938 16.875 21 17.1562 21 17.1562L20.4375 18.375C20.4375 18.375 20.7188 18.75 21 19.0312C21.2813 19.2187 21.9375 20.0625 21.9375 20.0625C22.0313 20.25 22.2188 20.25 22.4063 20.1562C22.5938 20.0625 22.6875 19.9688 22.7812 19.875C22.875 19.7813 23.0625 19.4062 22.9688 19.125C22.875 18.8437 22.2188 17.1563 21.6563 17.0625Z" fill="#EFBF9E"/>
<path d="M22.2188 18.8438C22.2188 18.8438 22.2187 19.5 22.4062 19.875C22.5937 20.25 22.9687 20.7188 23.3437 20.7188C23.625 20.625 23.9062 20.7188 23.8125 20.3438C23.7187 19.9688 24 19.7813 23.625 19.4063C23.25 19.0313 22.5 18.6562 22.5 18.6562L22.2188 18.8438Z" fill="#EFBF9E"/>
<path d="M19.5 15.8444L21.8437 18.0944C22.125 18.3756 22.4062 18.5631 22.4062 19.0319C22.125 18.8444 21.9375 18.6569 21.6563 18.4694C21 17.9069 20.3438 17.4381 19.5938 16.9694C19.3125 16.7819 18.75 16.5944 18.6562 16.2194C18.6562 16.0319 18.6563 15.8444 18.8438 15.7506C19.2188 15.5631 19.4062 15.6569 19.5 15.8444Z" fill="#FFE2CF"/>
<path d="M13.4062 12C13.6875 12.5625 12.75 13.5 12.75 13.5C12.4688 13.7812 12 13.9687 12 13.9687L11.8125 13.5937L9.65625 12.1875C9.375 12.0937 9.375 11.4375 9.65625 10.875C9.84375 10.3125 10.2187 10.4063 10.2187 10.4063C10.2187 10.4063 13.125 11.4375 13.4062 12Z" fill="#D67D56"/>
<path d="M10.1242 10.5944C10.4992 11.0632 10.3117 11.2507 10.3117 11.2507L9.37417 12.1882C9.37417 12.1882 8.90542 12.0944 8.62417 11.9069C8.34292 11.7194 7.59292 11.3444 7.59292 11.3444L7.12417 10.9694C6.93667 10.9694 6.56167 10.4069 6.65542 10.1257C6.65542 9.93818 6.74917 9.75068 6.74917 9.65693C6.84292 9.56318 7.59292 10.0319 7.87417 10.0319C8.15542 10.0319 9.74917 10.1257 10.1242 10.5944Z" fill="#D67D56"/>
<path d="M8.43737 10.5006C8.43737 10.5006 7.87487 10.6881 7.40612 10.6881C7.03112 10.6881 6.37487 10.5006 6.28112 10.1256C6.18737 9.84432 6.09362 9.56307 6.46862 9.46932C6.84362 9.37557 6.93737 9.09432 7.40612 9.28182C7.87487 9.46932 8.53112 10.0318 8.53112 10.0318L8.43737 10.5006Z" fill="#D67D56"/>
<path d="M13.9688 11.7187C14.25 12.2812 13.3125 13.2188 13.3125 13.2188C13.0312 13.5 12.5625 13.6875 12.5625 13.6875L12.375 13.3125L10.2188 11.9062C9.9375 11.8125 9.9375 11.1562 10.2188 10.5938C10.4062 10.0312 10.7813 10.125 10.7813 10.125C10.7813 10.125 13.6875 11.0625 13.9688 11.7187Z" fill="#EFBF9E"/>
<path d="M10.6875 10.3125C11.0625 10.7813 10.875 10.875 10.875 10.875L9.9375 11.8125C9.9375 11.8125 9.46875 11.7188 9.1875 11.5313C8.90625 11.3438 7.875 11.0625 7.875 11.0625C7.6875 11.0625 7.59375 10.875 7.59375 10.6875C7.59375 10.5 7.6875 10.3125 7.6875 10.2188C7.78125 10.125 8.0625 9.75 8.34375 9.75C8.625 9.75 10.3125 9.84375 10.6875 10.3125Z" fill="#EFBF9E"/>
<path d="M8.81237 10.5006C8.81237 10.5006 8.24987 10.6881 7.78112 10.6881C7.40612 10.6881 6.74987 10.5006 6.65612 10.1256C6.56237 9.84432 6.46862 9.56307 6.84362 9.46932C7.21862 9.37557 7.31237 9.09432 7.78112 9.28182C8.24987 9.46932 8.90612 10.0318 8.90612 10.0318L8.81237 10.5006Z" fill="#EFBF9E"/>
<path d="M12.6562 11.8122L9.65625 10.4997C9.375 10.3122 9 10.2184 8.625 10.3122C8.90625 10.4997 9.1875 10.5934 9.375 10.7809C10.125 11.1559 10.875 11.6247 11.5313 12.0934C11.8125 12.2809 12.1875 12.7497 12.5625 12.6559C12.75 12.6559 12.8438 12.4684 12.9375 12.2809C13.0313 11.9997 12.8438 11.9059 12.6562 11.8122ZM13.6875 18.7497C13.7813 18.7497 13.875 18.7497 13.9688 18.6559C14.0625 18.5622 13.9688 18.3747 13.9688 18.2809C13.6875 17.9059 12.5625 17.0622 12.1875 17.8122C11.9063 18.4684 13.3125 18.7497 13.6875 18.7497Z" fill="#FFE2CF"/>
<path d="M21.2813 8.25C21.6955 8.25 22.0313 7.91421 22.0313 7.5C22.0313 7.08579 21.6955 6.75 21.2813 6.75C20.867 6.75 20.5312 7.08579 20.5312 7.5C20.5312 7.91421 20.867 8.25 21.2813 8.25Z" fill="#604E46"/>
<path d="M21.2813 7.59375C21.3848 7.59375 21.4687 7.5098 21.4687 7.40625C21.4687 7.3027 21.3848 7.21875 21.2813 7.21875C21.1777 7.21875 21.0938 7.3027 21.0938 7.40625C21.0938 7.5098 21.1777 7.59375 21.2813 7.59375Z" fill="#8E8582"/>
<path d="M18.1875 10.5938C18.8088 10.5938 19.3125 10.0901 19.3125 9.46875C19.3125 8.84743 18.8088 8.34375 18.1875 8.34375C17.5662 8.34375 17.0625 8.84743 17.0625 9.46875C17.0625 10.0901 17.5662 10.5938 18.1875 10.5938Z" fill="#F75455"/>
<path d="M18.0938 10.3125C18.6115 10.3125 19.0312 9.97671 19.0312 9.5625C19.0312 9.14829 18.6115 8.8125 18.0938 8.8125C17.576 8.8125 17.1562 9.14829 17.1562 9.5625C17.1562 9.97671 17.576 10.3125 18.0938 10.3125Z" fill="#AA3F4A"/>
<path d="M15.1877 15.8437L16.1252 15.75C16.5002 15.75 17.344 15.8438 17.719 16.125C18.094 16.4063 18.1877 17.1563 17.8127 17.5313C17.4377 17.9063 17.2502 18.5625 16.4065 18.375C15.5627 18.0938 15.5627 18 15.3752 17.7188C15.094 17.3438 14.9065 16.5 15.1877 15.8437ZM14.4377 15.375C14.4377 15.375 14.2502 14.8125 14.0627 14.4375C13.8752 14.1562 13.4065 13.4062 12.9377 13.3125C12.469 13.2187 11.8127 13.4063 11.6252 13.875C11.4377 14.3438 11.0627 14.9063 11.6252 15.5625C12.2815 16.125 12.3752 16.125 12.7502 16.125C13.219 16.125 13.969 15.9375 14.4377 15.375Z" fill="#F75455"/>
</g>
<defs>
<clipPath id="clip0_52_70519">
<rect width="30" height="30" fill="white"/>
</clipPath>
</defs>
</svg>
