<svg width="30" height="30" viewBox="0 0 30 30" fill="none" xmlns="http://www.w3.org/2000/svg">
<g clip-path="url(#clip0_52_74817)">
<path d="M9.65625 4.6875L13.7812 4.5L13.875 5.71875L9.46875 6.1875L9.65625 4.6875Z" fill="#6D9FA8"/>
<path d="M26.4375 18.1865C26.5313 14.624 24.2813 11.8115 21.2813 11.5303C20.9063 8.62401 18.75 6.74901 16.2188 7.03026C15.4688 7.12401 14.8125 7.40526 14.1563 7.78026C13.2188 5.62401 11.25 4.40526 9.09377 4.68651C6.09377 5.15526 3.65627 8.43651 3.46877 12.1865V12.9365C1.59377 13.6865 0.18752 16.0303 2.03303e-05 18.6553C-0.0937297 21.6553 1.50002 24.2803 3.84377 24.4678H4.40627L19.6875 25.0303H20.25C23.625 25.0303 26.3438 22.0303 26.4375 18.1865Z" fill="#6D9FA8"/>
<path d="M29.9063 18.2803C30 14.7178 27.75 11.9991 24.8438 11.7178C24.4688 8.90534 22.3125 6.93659 19.7813 7.21784C19.0313 7.31159 18.375 7.59284 17.8125 7.96784C16.875 5.90534 15 4.68659 12.8438 4.96784C9.84377 5.34284 7.40627 8.71784 7.21877 12.3741V13.1241C5.34377 13.8741 3.93752 16.1241 3.84377 18.7491C3.75002 21.7491 5.34377 24.2803 7.59377 24.5616H8.06252L23.1563 25.2178H23.7188C27 25.0303 29.8125 22.0303 29.9063 18.2803Z" fill="#6D9FA8"/>
<path d="M30.0003 17.3429C30.094 13.9679 27.9378 11.2492 25.1253 10.9679C24.7503 8.24918 22.6878 6.37418 20.344 6.65543C19.6878 6.74918 19.0315 6.93668 18.3753 7.31168C17.4378 5.34293 15.6565 4.12418 13.6878 4.40543C10.7815 4.87418 8.43775 8.06168 8.344 11.6242V12.2804C6.56275 13.0304 5.25025 15.1867 5.1565 17.6242C5.06275 20.5304 6.56275 22.9679 8.719 23.1554H9.094L23.5315 23.8117H24.094C27.2815 23.8117 29.9065 20.9992 30.0003 17.3429Z" fill="#6D9FA8"/>
<path d="M9.5625 5.625L13.6875 5.4375L13.7812 6.65625L9.375 7.21875L9.5625 5.625Z" fill="#9BC3CC"/>
<path d="M16.5 6.84375L20.5312 6.75L20.625 7.875L16.3125 8.4375L16.5 6.84375Z" fill="#6D9FA8"/>
<path d="M15.5625 7.78125L19.5938 7.59375L19.6875 8.8125L15.375 9.28125L15.5625 7.78125Z" fill="#9BC3CC"/>
<path d="M28.688 17.8124C28.7818 14.5311 26.7193 11.9999 24.0005 11.8124C23.6255 9.1874 21.6568 7.4999 19.4068 7.6874C18.7505 7.78115 18.0943 7.96865 17.5318 8.34365C16.688 6.46865 14.9068 5.34365 13.0318 5.6249C10.313 5.90615 8.15676 8.90615 7.96926 12.2811V12.9374C6.28176 13.5936 4.96926 15.6561 4.87551 18.0936C4.78176 20.8124 6.18801 23.1561 8.34426 23.4374H8.71926L22.5005 23.9999H23.063C26.063 23.9999 28.5943 21.1874 28.688 17.8124Z" fill="#9BC3CC"/>
<path d="M25.4065 17.9061C25.5003 14.6249 23.344 12.0936 20.6253 11.8124C20.2503 9.1874 18.2815 7.40615 15.9378 7.6874C15.2815 7.78115 14.6253 7.96865 14.0628 8.34365C13.219 6.46865 11.4378 5.34365 9.46901 5.6249C6.65651 5.9999 4.40651 8.9999 4.31276 12.4686V13.1249C2.62526 13.8749 1.31276 15.9374 1.21901 18.2811C1.12526 20.9999 2.62526 23.3436 4.68776 23.6249H5.06276L19.0315 24.1874H19.594C22.7815 24.1874 25.3128 21.4686 25.4065 17.9061Z" fill="#B9DAE4"/>
<path d="M23.6258 18.093C23.7196 15.2805 21.8446 13.0305 19.5008 12.843C19.2196 10.593 17.5321 9.09304 15.4696 9.28054C14.9071 9.37429 14.3446 9.56179 13.8758 9.84304C13.1258 8.24929 11.6258 7.21804 9.93832 7.49929C7.59457 7.87429 5.62582 10.4055 5.53207 13.3118V13.8743C4.03207 14.4368 2.90707 16.3118 2.81332 18.2805C2.71957 20.6243 4.03207 22.6868 5.81332 22.8743H6.18832L18.1883 23.4368H18.7508C21.2821 23.4368 23.5321 21.093 23.6258 18.093Z" fill="white"/>
<path d="M23.6258 18.093C23.7196 15.2805 21.8446 13.0305 19.5008 12.843C19.2196 10.593 17.5321 9.09304 15.4696 9.28054C14.9071 9.37429 14.3446 9.56179 13.8758 9.84304C13.1258 8.24929 11.6258 7.21804 9.93832 7.49929C7.59457 7.87429 5.62582 10.4055 5.53207 13.3118V13.8743C4.03207 14.4368 2.90707 16.3118 2.81332 18.2805C2.71957 20.6243 4.03207 22.6868 5.81332 22.8743H6.18832L18.1883 23.4368H18.7508C21.2821 23.4368 23.5321 21.093 23.6258 18.093Z" fill="white"/>
<path d="M22.3125 25.0313H21.75L17.5313 24.8438H16.9688C16.2188 24.8438 15.5625 24.1875 15.5625 23.3438V21.5625C15.5625 20.8125 16.2188 20.1563 16.9688 20.1563H17.1562C17.3437 20.1563 17.4375 20.0625 17.4375 19.875V13.9688C17.4375 13.7813 17.3437 13.6875 17.1562 13.6875H16.9688C16.125 13.6875 15.4688 13.0313 15.4688 12.2813V10.5C15.4688 9.75 16.125 9.09375 16.875 9L22.7812 8.8125C23.625 8.8125 24.2812 9.46875 24.2812 10.2188V12C24.2812 12.8438 23.625 13.5 22.7812 13.5H22.5938C22.4063 13.5 22.2188 13.6875 22.2188 13.875V19.875C22.2188 20.0625 22.4063 20.25 22.5938 20.25H22.7812C23.625 20.25 24.2812 20.9063 24.2812 21.75V23.5313C24.2812 23.9063 24.0938 24.2813 23.8125 24.5625C23.5312 24.8438 23.1562 24.9375 22.7812 24.9375L22.3125 25.0313Z" fill="#295163"/>
<path d="M22.875 9.46875C23.3438 9.46875 23.8125 9.84375 23.8125 10.3125V12.0937C23.8125 12.5625 23.3438 13.0312 22.875 13.0312H22.6875C22.125 13.0312 21.75 13.4062 21.75 13.9687V19.9687C21.75 20.4375 22.125 20.9062 22.6875 20.9062H22.875C23.4375 20.9062 23.8125 21.2812 23.8125 21.8437V23.625C23.8125 24.0938 23.4375 24.4688 22.875 24.4688H21.75L18.0937 24.375H16.9688C16.5 24.375 16.125 24 16.125 23.4375V21.5625C16.125 21.0938 16.5 20.7188 16.9688 20.7188H17.1562C17.625 20.7188 18 20.3438 18 19.875V13.9687C18 13.5 17.625 13.125 17.1562 13.125H16.9688C16.5 13.125 16.125 12.75 16.125 12.2812V10.5C16.125 10.0312 16.5 9.65625 16.9688 9.5625L22.875 9.46875ZM22.875 8.25L16.875 8.53125C15.75 8.53125 14.9062 9.46875 14.9062 10.5938V12.375C14.9062 13.5 15.75 14.3438 16.875 14.3438V19.6875C16.3125 19.6875 15.8438 19.875 15.4688 20.25C15.0938 20.625 14.9062 21.0938 14.9062 21.6562V23.4375C14.9062 24.5625 15.75 25.4063 16.875 25.5L18 25.5938L21.6563 25.6875H22.875C24 25.6875 24.9375 24.75 24.9375 23.7188V21.9375C24.9375 20.8125 24 19.875 22.875 19.875V14.3438C24 14.3438 24.9375 13.4062 24.9375 12.2812V10.3125C24.9375 9.1875 24 8.25 22.875 8.25Z" fill="#295163"/>
<path d="M20.8125 25.0313H20.25L15.9375 24.8438H15.375C14.625 24.8438 13.9687 24.1875 13.9687 23.3438V21.5625C13.9687 20.8125 14.625 20.1563 15.375 20.1563H15.5625C15.75 20.1563 15.8437 20.0625 15.8437 19.875V13.9688C15.8437 13.7813 15.75 13.6875 15.5625 13.6875H15.375C14.5312 13.6875 13.875 13.0313 13.875 12.2813V10.5C13.875 9.75 14.5312 9.09375 15.2812 9L21.1875 8.8125C22.0313 8.8125 22.6875 9.46875 22.6875 10.2188V12C22.6875 12.8438 22.0313 13.5 21.1875 13.5H21C20.8125 13.5 20.625 13.6875 20.625 13.875V19.875C20.625 20.0625 20.8125 20.25 21 20.25H21.1875C22.0313 20.25 22.6875 20.9063 22.6875 21.75V23.5313C22.6875 23.9063 22.5 24.2813 22.2188 24.5625C21.9375 24.8438 21.5625 24.9375 21.1875 24.9375L20.8125 25.0313Z" fill="#B9DAE4"/>
<path d="M21.375 9.46875C21.8437 9.46875 22.3125 9.84375 22.3125 10.3125V12.0937C22.3125 12.5625 21.8437 13.0312 21.375 13.0312H21.1875C20.625 13.0312 20.25 13.4062 20.25 13.9687V19.9687C20.25 20.4375 20.625 20.9062 21.1875 20.9062H21.375C21.9375 20.9062 22.3125 21.2812 22.3125 21.8437V23.625C22.3125 24.0938 21.9375 24.4688 21.375 24.4688H20.25L16.5938 24.375H15.4687C15 24.375 14.625 24 14.625 23.4375V21.5625C14.625 21.0938 15 20.7188 15.4687 20.7188H15.6563C16.125 20.7188 16.5 20.3438 16.5 19.875V13.9687C16.5 13.5 16.125 13.125 15.6563 13.125H15.4687C15 13.125 14.625 12.75 14.625 12.2812V10.5C14.625 10.0312 15 9.65625 15.4687 9.5625L21.375 9.46875ZM21.375 8.25L15.375 8.4375C14.25 8.4375 13.4062 9.375 13.4062 10.5V12.2812C13.4062 13.4062 14.25 14.25 15.375 14.25V19.5937C14.8125 19.5937 14.3437 19.7812 13.9687 20.1562C13.5937 20.5312 13.4062 21 13.4062 21.5625V23.3437C13.4062 24.4687 14.25 25.3125 15.375 25.4062L16.5 25.5L20.1562 25.5938H21.375C22.5 25.5938 23.4375 24.6563 23.4375 23.625V21.8437C23.4375 20.7187 22.5 19.7812 21.375 19.7812V14.25C22.5 14.25 23.4375 13.3125 23.4375 12.1875V10.3125C23.4375 9.1875 22.5 8.25 21.375 8.25Z" fill="#295163"/>
<path d="M21.0938 12V10.6875C21.0938 10.3125 20.8125 10.0312 20.4375 10.0312L16.125 10.2187C15.75 10.2187 15.4688 10.5 15.4688 10.875V12.1875C15.4688 12.5625 15.75 12.8438 16.125 12.8438H16.3125C16.6875 12.8438 16.9688 13.125 16.9688 13.5V20.1562C16.9688 20.5312 16.6875 20.8125 16.3125 20.8125H16.125C15.75 20.8125 15.4688 21.0938 15.4688 21.4688V22.7812C15.4688 23.1562 15.75 23.4375 16.125 23.4375H16.9688L19.6875 23.5313H20.5312C20.9062 23.5313 21.1875 23.25 21.1875 22.875V21.5625C21.1875 21.1875 20.9062 20.9062 20.5312 20.9062H20.3438C19.9688 20.9062 19.6875 20.625 19.6875 20.25V13.5C19.6875 13.125 19.9688 12.8438 20.3438 12.8438H20.5312C20.8125 12.6562 21.0938 12.375 21.0938 12Z" fill="white"/>
<path d="M7.59357 22.7812C6.93732 22.7812 6.28107 22.125 6.28107 21.4688V17.9063H5.34357C4.87482 17.9063 4.49982 17.625 4.31232 17.25C4.12482 16.875 4.12482 16.3125 4.40607 16.0313L8.34357 10.6875C8.53107 10.4062 8.90607 10.2188 9.28107 10.2188C9.65607 10.2188 10.0311 10.4062 10.2186 10.6875L14.3436 16.0313C14.6248 16.4063 14.7186 16.875 14.4373 17.3438C14.2498 17.8125 13.7811 18 13.3123 18H12.2811V21.75C12.2811 22.125 12.1873 22.4063 11.9061 22.6875C11.6248 22.9688 11.3436 23.0625 10.9686 23.0625L7.59357 22.7812Z" fill="#295163"/>
<path d="M9.37447 10.6875C9.56197 10.6875 9.74947 10.7812 9.84322 10.9688L13.9682 16.3125C14.3432 16.7812 13.9682 17.3438 13.4057 17.3438H11.812V21.6563C11.812 22.0313 11.5307 22.4062 11.062 22.4062L7.59322 22.3125C7.21822 22.3125 6.84322 21.9375 6.84322 21.5625V17.4375H5.34322C4.87447 17.4375 4.59322 16.875 4.87447 16.4062L8.81197 11.0625C8.99947 10.7813 9.18697 10.6875 9.37447 10.6875ZM9.37447 9.5625C8.81197 9.5625 8.24947 9.84375 7.96822 10.3125L4.03072 15.6563C3.65572 16.2188 3.56197 16.875 3.84322 17.5313C4.12447 18.0938 4.78072 18.4688 5.43697 18.4688H5.81197V21.4688C5.81197 22.5 6.65572 23.3438 7.59322 23.3438L11.062 23.4375C12.0932 23.4375 12.937 22.5938 12.937 21.5625V18.4688H13.4057C14.062 18.4688 14.7182 18.0938 14.9995 17.4375C15.2807 16.7813 15.187 16.125 14.812 15.5625L10.687 10.2187C10.4057 9.84375 9.93697 9.5625 9.37447 9.5625Z" fill="#295163"/>
<path d="M6.46857 22.125C5.81232 22.125 5.15607 21.4688 5.15607 20.8125V17.25H4.21857C3.74982 17.25 3.37482 16.9688 3.18732 16.5938C2.99982 16.2188 2.99982 15.6562 3.28107 15.375L7.21857 10.0312C7.49982 9.5625 7.87482 9.375 8.24982 9.375C8.62482 9.375 8.99982 9.5625 9.18732 9.84375L13.3123 15.1875C13.5936 15.5625 13.6873 16.0313 13.4061 16.5C13.2186 16.9688 12.7498 17.1562 12.2811 17.1562H11.2498V20.9062C11.2498 21.2812 11.1561 21.5625 10.8748 21.8437C10.5936 22.125 10.3123 22.2188 9.93732 22.2188L6.46857 22.125Z" fill="#67A567"/>
<path d="M8.24947 9.9375C8.43697 9.9375 8.62447 10.0312 8.71822 10.2188L12.8432 15.5625C13.2182 16.0313 12.8432 16.5938 12.2807 16.5938H10.687V20.9062C10.687 21.2812 10.4057 21.6563 9.93697 21.6563L6.46822 21.5625C6.09322 21.5625 5.71822 21.1875 5.71822 20.8125V16.6875H4.21822C3.74947 16.6875 3.46822 16.125 3.74947 15.6563L7.68697 10.3125C7.87447 10.0313 8.06197 9.9375 8.24947 9.9375ZM8.24947 8.8125C7.68697 8.8125 7.12447 9.09375 6.84322 9.5625L2.90572 14.9062C2.53072 15.4688 2.43697 16.125 2.71822 16.7812C2.99947 17.3438 3.65572 17.7188 4.31197 17.7188H4.68697V20.7188C4.68697 21.75 5.53072 22.5938 6.46822 22.5938L9.93697 22.6875C10.9682 22.6875 11.812 21.8438 11.812 20.8125V17.7188H12.2807C12.937 17.7188 13.5932 17.3438 13.8745 16.6875C14.1557 16.0312 14.062 15.375 13.687 14.8125L9.56197 9.46875C9.28072 9.09375 8.81197 8.8125 8.24947 8.8125Z" fill="#295163"/>
<path opacity="0.47" d="M11.1562 15.8437L8.4375 11.8125L5.34375 15.75H7.21875V21.0938H9.1875L9.09375 15.75L11.1562 15.8437Z" fill="#97DD97"/>
</g>
<defs>
<clipPath id="clip0_52_74817">
<rect width="30" height="30" fill="white"/>
</clipPath>
</defs>
</svg>
