<svg width="19" height="19" viewBox="0 0 19 19" fill="none" xmlns="http://www.w3.org/2000/svg">
<path d="M19.0002 6.24908V2.72798H17.4314V6.24908H19.0002ZM19.0002 2.72798C19.0002 1.95653 18.8496 1.21311 18.3183 0.681868C17.7871 0.150628 17.0437 0 16.2722 0V1.56881C16.8865 1.56881 17.1149 1.69708 17.209 1.79118C17.3031 1.88529 17.4314 2.11365 17.4314 2.72798H19.0002ZM16.2722 0H12.7511V1.56881H16.2722V0ZM12.7511 0C11.9797 0 11.2362 0.150628 10.705 0.681868C10.1738 1.21311 10.0231 1.95653 10.0231 2.72798H11.5919C11.5919 2.11365 11.7202 1.88529 11.8143 1.79118C11.9084 1.69708 12.1368 1.56881 12.7511 1.56881V0ZM10.0231 2.72798V6.24908H11.5919V2.72798H10.0231ZM10.0231 6.24908C10.0231 7.02054 10.1738 7.76395 10.705 8.29519C11.2362 8.82643 11.9797 8.97706 12.7511 8.97706V7.40825C12.1368 7.40825 11.9084 7.27999 11.8143 7.18588C11.7202 7.09178 11.5919 6.8634 11.5919 6.24908H10.0231ZM12.7511 8.97706H16.2722V7.40825H12.7511V8.97706ZM16.2722 8.97706C17.0437 8.97706 17.7871 8.82643 18.3183 8.29519C18.8496 7.76395 19.0002 7.02054 19.0002 6.24908H17.4314C17.4314 6.8634 17.3031 7.09178 17.209 7.18588C17.1149 7.27999 16.8865 7.40825 16.2722 7.40825V8.97706Z" fill="white"/>
<path d="M6.24908 8.18394L6.25402 7.39954H6.24908V8.18394ZM8.97706 6.46697V2.51009H7.40825V6.46697H8.97706ZM8.97706 2.51009C8.97706 1.79469 8.81585 1.09253 8.26154 0.600027C7.73089 0.128542 7.00321 0 6.24908 0V1.56881C6.88073 1.56881 7.12484 1.68866 7.21953 1.77279C7.29057 1.83591 7.40825 1.9966 7.40825 2.51009H8.97706ZM6.24908 0H2.72798V1.56881H6.24908V0ZM2.72798 0C1.97385 0 1.24618 0.128542 0.715522 0.600027C0.161216 1.09253 0 1.79469 0 2.51009H1.56881C1.56881 1.9966 1.68649 1.83591 1.75753 1.77279C1.85222 1.68866 2.09632 1.56881 2.72798 1.56881V0ZM0 2.51009V6.45826H1.56881V2.51009H0ZM0 6.45826C0 7.17639 0.16046 7.88035 0.716667 8.37261C1.24821 8.84302 1.97665 8.96835 2.72798 8.96835V7.39954C2.09353 7.39954 1.85019 7.28082 1.75638 7.1978C1.68725 7.13662 1.56881 6.97774 1.56881 6.45826H0ZM2.72798 8.96835H6.24908V7.39954H2.72798V8.96835ZM6.24414 8.96834C6.99871 8.97307 7.72804 8.84811 8.2604 8.37696C8.8161 7.88515 8.97706 7.18179 8.97706 6.46697H7.40825C7.40825 6.98104 7.29032 7.14053 7.22068 7.20216C7.1277 7.28445 6.88523 7.40352 6.25402 7.39955L6.24414 8.96834Z" fill="white"/>
<path d="M8.97706 16.2722V12.7511H7.40825V16.2722H8.97706ZM8.97706 12.7511C8.97706 11.9797 8.82643 11.2362 8.29519 10.705C7.76395 10.1738 7.02054 10.0231 6.24908 10.0231V11.5919C6.8634 11.5919 7.09178 11.7202 7.18588 11.8143C7.27999 11.9084 7.40825 12.1368 7.40825 12.7511H8.97706ZM6.24908 10.0231H2.72798V11.5919H6.24908V10.0231ZM2.72798 10.0231C1.95653 10.0231 1.21311 10.1738 0.681868 10.705C0.150628 11.2362 0 11.9797 0 12.7511H1.56881C1.56881 12.1368 1.69708 11.9084 1.79118 11.8143C1.88529 11.7202 2.11365 11.5919 2.72798 11.5919V10.0231ZM0 12.7511V16.2722H1.56881V12.7511H0ZM0 16.2722C0 17.0437 0.150628 17.7871 0.681868 18.3183C1.21311 18.8496 1.95653 19.0002 2.72798 19.0002V17.4314C2.11365 17.4314 1.88529 17.3031 1.79118 17.209C1.69708 17.1149 1.56881 16.8865 1.56881 16.2722H0ZM2.72798 19.0002H6.24908V17.4314H2.72798V19.0002ZM6.24908 19.0002C7.02054 19.0002 7.76395 18.8496 8.29519 18.3183C8.82643 17.7871 8.97706 17.0437 8.97706 16.2722H7.40825C7.40825 16.8865 7.27999 17.1149 7.18588 17.209C7.09178 17.3031 6.8634 17.4314 6.24908 17.4314V19.0002Z" fill="white"/>
<path d="M11.6791 13.5083C11.2459 13.5083 10.8947 13.8595 10.8947 14.2927C10.8947 14.726 11.2459 15.0771 11.6791 15.0771V13.5083ZM16.9085 15.0771C17.3417 15.0771 17.6929 14.726 17.6929 14.2927C17.6929 13.8595 17.3417 13.5083 16.9085 13.5083V15.0771ZM11.6791 15.0771H16.9085V13.5083H11.6791V15.0771Z" fill="white"/>
<path d="M13.5094 16.9079C13.5094 17.3412 13.8605 17.6923 14.2938 17.6923C14.727 17.6923 15.0782 17.3412 15.0782 16.9079H13.5094ZM15.0782 11.6786C15.0782 11.2454 14.727 10.8942 14.2938 10.8942C13.8605 10.8942 13.5094 11.2454 13.5094 11.6786H15.0782ZM15.0782 16.9079V11.6786H13.5094V16.9079H15.0782Z" fill="white"/>
</svg>
