<svg width="24" height="24" viewBox="0 0 24 24" fill="none" xmlns="http://www.w3.org/2000/svg">
<path d="M9 8.00024H6.275C7.12474 6.77721 8.34303 5.85768 9.75216 5.37579C11.1613 4.89389 12.6875 4.87485 14.1082 5.32144C15.529 5.76803 16.7698 6.65689 17.6498 7.85834C18.5298 9.0598 19.0028 10.511 19 12.0002H21C21.0009 10.1387 20.4245 8.32276 19.3503 6.80248C18.2761 5.2822 16.7569 4.13241 15.002 3.5115C13.2471 2.8906 11.3428 2.82913 9.55151 3.33556C7.76022 3.84199 6.17003 4.8914 5 6.33924V4.00024H3V10.0002H9V8.00024Z" fill="#9A9AB0"/>
<path d="M15 16H17.725C16.8753 17.223 15.657 18.1426 14.2478 18.6245C12.8387 19.1063 11.3125 19.1254 9.89176 18.6788C8.47105 18.2322 7.2302 17.3434 6.35021 16.1419C5.47023 14.9404 4.99716 13.4892 5 12H3C2.99914 13.8615 3.57552 15.6775 4.64974 17.1978C5.72395 18.718 7.24315 19.8678 8.99805 20.4887C10.7529 21.1096 12.6572 21.1711 14.4485 20.6647C16.2398 20.1583 17.83 19.1088 19 17.661V20H21V14H15V16Z" fill="#9A9AB0"/>
</svg>
