<svg width="22" height="19" viewBox="0 0 22 19" fill="none" xmlns="http://www.w3.org/2000/svg">
<path d="M17.0915 8.43072V11.9186C17.0915 12.1453 17.0813 12.3633 17.0506 12.5725C16.8157 14.9268 15.1913 16.0952 12.198 16.0952H11.7894C11.534 16.0952 11.2888 16.1999 11.1355 16.3742L9.9096 17.7694C9.36815 18.3885 8.48956 18.3885 7.9481 17.7694L6.72216 16.3742C6.58935 16.226 6.2931 16.0952 6.06835 16.0952H5.65971C2.40079 16.0952 0.766205 15.4064 0.766205 11.9186V8.43072C0.766205 5.87589 2.14538 4.48947 4.89351 4.28892C5.13869 4.26276 5.3941 4.25404 5.65971 4.25404H12.198C15.4569 4.25404 17.0915 5.64918 17.0915 8.43072Z" stroke="#292D32" stroke-width="1.5" stroke-miterlimit="10" stroke-linecap="round" stroke-linejoin="round"/>
<path d="M21.177 4.94289V8.43072C21.177 10.9943 19.7978 12.372 17.0497 12.5725C17.0803 12.3633 17.0905 12.1453 17.0905 11.9186V8.43072C17.0905 5.64918 15.456 4.25404 12.197 4.25404H5.65875C5.39313 4.25404 5.13773 4.26276 4.89254 4.28892C5.12751 1.94336 6.75187 0.766205 9.74518 0.766205H16.2835C19.5424 0.766205 21.177 2.16135 21.177 4.94289Z" stroke="#292D32" stroke-width="1.5" stroke-miterlimit="10" stroke-linecap="round" stroke-linejoin="round"/>
<path d="M12.5101 10.5757H12.5193" stroke="#292D32" stroke-width="2" stroke-linecap="round" stroke-linejoin="round"/>
<path d="M8.93447 10.5757H8.94366" stroke="#292D32" stroke-width="2" stroke-linecap="round" stroke-linejoin="round"/>
<path d="M5.35884 10.5757H5.36804" stroke="#292D32" stroke-width="2" stroke-linecap="round" stroke-linejoin="round"/>
</svg>
