<svg width="48" height="48" viewBox="0 0 48 48" fill="none" xmlns="http://www.w3.org/2000/svg">
<path d="M38.0002 8.92211C37.9772 8.6578 37.8514 8.41307 37.6498 8.24063C37.4482 8.06818 37.1869 7.98181 36.9222 8.00011C36.7907 8.00996 36.6625 8.04571 36.5449 8.1053C36.4273 8.16489 36.3227 8.24715 36.237 8.34734C36.1513 8.44752 36.0863 8.56367 36.0456 8.68908C36.005 8.8145 35.9895 8.94671 36.0002 9.07811L37.1742 24.0521C34.5077 24.2525 31.9516 25.1997 29.7986 26.7854C27.6455 28.3711 25.9826 30.5312 25.0002 33.0181C24.0175 30.5306 22.354 28.3702 20.2002 26.7844C18.0463 25.1987 15.4894 24.2517 12.8222 24.0521L14.0002 9.07811C14.0209 8.81289 13.9354 8.55032 13.7625 8.34816C13.5896 8.14599 13.3435 8.0208 13.0782 8.00011C12.813 7.97942 12.5504 8.06494 12.3483 8.23785C12.1461 8.41076 12.0209 8.65689 12.0002 8.92211L10.7702 24.6161C8.97865 26.5438 7.99033 29.0826 8.00704 31.7142C8.02376 34.3458 9.04425 36.8719 10.8602 38.7766C12.6761 40.6814 15.1506 41.8212 17.7784 41.9635C20.4062 42.1058 22.9892 41.2397 25.0002 39.5421C27.0112 41.2386 29.5938 42.1036 32.2208 41.9607C34.8479 41.8178 37.3214 40.6776 39.1364 38.773C40.9515 36.8684 41.9712 34.3429 41.9875 31.712C42.0038 29.0811 41.0155 26.5431 39.2242 24.6161L38.0002 8.92211ZM12.4522 37.5481C10.9302 36.0284 10.0517 33.9811 9.9988 31.831C9.94592 29.6808 10.7228 27.5928 12.1682 26.0001C15.2747 26.1007 18.2264 27.3798 20.424 29.5777C22.6216 31.7757 23.9002 34.7276 24.0002 37.8341C22.4073 39.2793 20.3191 40.0559 18.169 40.0026C16.0188 39.9493 13.9717 39.0704 12.4522 37.5481ZM37.5462 37.5481C36.0257 39.0656 33.9804 39.9411 31.8329 39.994C29.6854 40.0468 27.5996 39.2729 26.0062 37.8321C26.1066 34.727 27.3846 31.7764 29.5809 29.579C31.7771 27.3816 34.7271 26.1021 37.8322 26.0001C39.2779 27.5929 40.0547 29.6811 40.0014 31.8314C39.9482 33.9817 39.0689 36.0289 37.5462 37.5481Z" fill="#CDCFD1"/>
</svg>
