<svg width="24" height="24" viewBox="0 0 24 24" fill="none" xmlns="http://www.w3.org/2000/svg">
<path d="M21.515 5.14262C20.1085 4.228 18.4791 3.71457 16.8024 3.65765C15.1257 3.60073 13.4652 4.00249 12 4.81962C10.5346 4.00302 8.87421 3.60157 7.1976 3.65849C5.52099 3.7154 3.89166 4.22853 2.485 5.14262L2 5.43362V19.7656L3.515 18.8566C4.68087 18.08 6.04819 17.6609 7.44899 17.6508C8.84978 17.6407 10.223 18.04 11.4 18.7996L12 19.2416L12.6 18.8026C13.7773 18.0422 15.1511 17.6422 16.5526 17.6518C17.9541 17.6614 19.3222 18.0801 20.489 18.8566L22 19.7656V5.43362L21.515 5.14262ZM7.559 15.6556C6.33675 15.6601 5.12736 15.9054 4 16.3776V6.58462C5.06746 5.98382 6.27055 5.66529 7.49546 5.65916C8.72037 5.65304 9.92658 5.95952 11 6.54962V16.3416C9.90847 15.8916 8.73968 15.6585 7.559 15.6556ZM20 16.3776C18.8941 15.9072 17.7056 15.6615 16.5038 15.655C15.302 15.6485 14.111 15.8812 13 16.3396V6.54962C14.0734 5.95952 15.2796 5.65304 16.5045 5.65916C17.7294 5.66529 18.9325 5.98382 20 6.58462V16.3776Z" fill="#9A9AB0"/>
</svg>
