<svg width="14" height="9" viewBox="0 0 14 9" fill="none" xmlns="http://www.w3.org/2000/svg">
<path d="M7.54628 8.00156L13.7763 1.77138C13.9206 1.62729 14 1.43493 14 1.22983C14 1.02472 13.9206 0.832367 13.7763 0.688271L13.3176 0.229462C13.0188 -0.0690889 12.533 -0.0690889 12.2345 0.229462L7.0029 5.46109L1.76547 0.223657C1.62126 0.0795603 1.42901 0 1.22402 0C1.0188 0 0.826563 0.0795603 0.682239 0.223657L0.223657 0.682466C0.0794468 0.826676 0 1.01892 0 1.22402C0 1.42913 0.0794468 1.62148 0.223657 1.76558L6.45941 8.00156C6.60408 8.146 6.79723 8.22533 7.00256 8.22488C7.20869 8.22533 7.40173 8.146 7.54628 8.00156Z" fill="white"/>
</svg>
