<svg width="30" height="30" viewBox="0 0 30 30" fill="none" xmlns="http://www.w3.org/2000/svg">
<g clip-path="url(#clip0_52_53913)">
<path d="M11.1562 10.4063C10.9687 10.4063 10.7812 10.3125 10.5937 10.125C10.4062 9.9375 10.4062 9.75 10.4062 9.46875L10.9687 4.78125C11.0625 4.3125 11.4375 3.9375 11.9062 3.9375H28.875C29.1562 3.9375 29.3438 4.03125 29.5312 4.21875C29.7188 4.40625 29.8125 4.59375 29.7188 4.875L29.3437 9.84375C29.3437 10.3125 28.875 10.6875 28.4062 10.6875C28.4062 10.7812 11.1562 10.4063 11.1562 10.4063Z" fill="#365670"/>
<path d="M11.9062 4.125H28.875C29.25 4.125 29.5312 4.40625 29.4375 4.78125L29.0625 9.84375C29.0625 10.2188 28.6875 10.5 28.4062 10.5L11.25 10.125C10.9688 10.125 10.6875 9.84375 10.7812 9.46875L11.3438 4.78125C11.3438 4.40625 11.625 4.21875 11.9062 4.125ZM11.9062 3.65625C11.3438 3.65625 10.875 4.125 10.7812 4.6875L10.2187 9.375C10.2187 9.65625 10.3125 10.0312 10.5 10.2187C10.6875 10.4062 10.9688 10.5938 11.25 10.5938L28.4062 10.9687C29.0625 10.9687 29.5312 10.5 29.625 9.84375L30 4.875C30 4.59375 29.9062 4.21875 29.7188 4.03125C29.5312 3.84375 29.25 3.75 28.875 3.75L11.9062 3.65625ZM4.03125 10.3125C3.84375 10.3125 3.65625 10.2187 3.46875 10.0312C3.28125 9.84375 3.28125 9.65625 3.28125 9.375L3.9375 4.78125C4.03125 4.3125 4.40625 3.9375 4.78125 3.9375H8.90625C9.09375 3.9375 9.28125 4.03125 9.46875 4.21875C9.65625 4.40625 9.65625 4.59375 9.65625 4.875L9.09375 9.5625C9.09375 9.9375 8.71875 10.3125 8.25 10.3125H4.03125Z" fill="#365670"/>
<path d="M9 4.21875C9.28125 4.21875 9.5625 4.5 9.46875 4.875L8.90625 9.5625C8.90625 9.9375 8.53125 10.2187 8.25 10.2187L4.03125 10.125C3.75 10.125 3.5625 9.84375 3.5625 9.46875L4.21875 4.875C4.3125 4.5 4.59375 4.3125 4.875 4.3125L9 4.21875ZM9 3.65625L4.875 3.75C4.3125 3.75 3.84375 4.125 3.75 4.78125L3.09375 9.28125C3.09375 9.5625 3.09375 9.9375 3.28125 10.125C3.46875 10.3125 3.75 10.5 4.03125 10.5L8.25 10.5938C8.8125 10.5938 9.28125 10.125 9.375 9.5625L9.9375 4.875C9.9375 4.59375 9.84375 4.21875 9.65625 4.03125C9.5625 3.84375 9.28125 3.65625 9 3.65625Z" fill="#365670"/>
<path d="M10.2187 18.5625C10.0312 18.5625 9.84375 18.4688 9.65625 18.2812C9.46875 18.0938 9.46875 17.8125 9.46875 17.625L10.0312 12.75C10.125 12.2813 10.5 11.9062 10.9687 11.9062L28.2188 12.375C28.5 12.375 28.6875 12.4688 28.875 12.6563C29.0625 12.8438 29.1562 13.125 29.0625 13.3125L28.5938 18.5625C28.5938 19.0312 28.125 19.5 27.6562 19.5L10.2187 18.5625Z" fill="#365670"/>
<path d="M10.9688 12.0937L28.2188 12.5625C28.5938 12.5625 28.875 12.8438 28.7813 13.2188L28.3125 18.4688C28.3125 18.8438 27.9375 19.125 27.6562 19.125L10.2188 18.2812C9.9375 18.2812 9.65625 18 9.75 17.625L10.3125 12.75C10.3125 12.375 10.5938 12.0937 10.9688 12.0937ZM10.9688 11.625C10.4063 11.625 9.9375 12.0938 9.84375 12.6563L9.28125 17.5313C9.28125 17.8125 9.375 18.1875 9.5625 18.375C9.75 18.5625 10.0313 18.75 10.3125 18.75L27.6562 19.6875C28.3125 19.6875 28.7812 19.2187 28.875 18.5625L29.3438 13.3125C29.3438 13.0313 29.25 12.6563 29.0625 12.4688C28.875 12.2813 28.5938 12.0937 28.3125 12.0937L10.9688 11.625Z" fill="#365670"/>
<path d="M2.90625 18.2813C2.71875 18.2813 2.53125 18.1875 2.34375 18C2.15625 17.8125 2.15625 17.5313 2.15625 17.3438L2.8125 12.5625C2.90625 12.0937 3.28125 11.7188 3.65625 11.7188L7.875 11.8125C8.0625 11.8125 8.25 11.9062 8.4375 12.0937C8.625 12.2812 8.625 12.5625 8.625 12.75L7.96875 17.625C7.875 18.0937 7.5 18.4688 7.125 18.4688L2.90625 18.2813Z" fill="#365670"/>
<path d="M3.75 11.9063L7.96875 12C8.25 12 8.53125 12.2813 8.4375 12.6563L7.78125 17.5313C7.78125 17.9063 7.40625 18.1875 7.125 18.1875L2.8125 18C2.53125 18 2.25 17.7188 2.34375 17.3438L3 12.5625C3.1875 12.1875 3.46875 11.9063 3.75 11.9063ZM3.75 11.4375C3.1875 11.4375 2.71875 11.9063 2.625 12.4688L1.96875 17.25C1.96875 17.5312 1.96875 17.9062 2.15625 18.0938C2.34375 18.2812 2.625 18.4688 2.8125 18.4688L7.125 18.6563C7.6875 18.6563 8.15625 18.1875 8.25 17.625L8.90625 12.75C8.90625 12.4688 8.8125 12.0938 8.625 11.9063C8.4375 11.7188 8.15625 11.5313 7.875 11.5313L3.75 11.4375ZM9.09375 27.0938C8.90625 27.0938 8.71875 27 8.53125 26.8125C8.34375 26.625 8.34375 26.3438 8.34375 26.0625L9 21C9.09375 20.5312 9.46875 20.1563 9.9375 20.1563L27.4687 21.1875C27.75 21.1875 27.9375 21.2812 28.125 21.4688C28.3125 21.6562 28.4062 21.9375 28.3125 22.2188L27.8438 27.6562C27.8438 28.125 27.375 28.5938 26.9062 28.5938L9.09375 27.0938Z" fill="#365670"/>
<path d="M9.9375 20.4375L27.4687 21.4687C27.8437 21.4687 28.125 21.8438 28.125 22.2188L27.6562 27.6562C27.6562 28.0312 27.2812 28.3125 27 28.3125H26.9062L9.1875 26.9063C8.8125 26.9063 8.625 26.5312 8.71875 26.1562L9.375 21.0937C9.28125 20.7187 9.5625 20.4375 9.9375 20.4375ZM9.9375 19.875C9.375 19.875 8.90625 20.3437 8.8125 20.9062L8.15625 25.9688C8.15625 26.3438 8.25 26.625 8.4375 26.9063C8.625 27.0938 8.90625 27.2812 9.1875 27.2812L26.9062 28.6875H27C27.5625 28.6875 28.125 28.2187 28.2188 27.5625L28.6875 22.125C28.6875 21.75 28.5937 21.4688 28.4062 21.1875C28.2187 21 27.9375 20.8125 27.6562 20.8125L9.9375 19.875ZM1.6875 26.5312C1.5 26.5312 1.3125 26.4375 1.21875 26.25C1.03125 26.0625 1.03125 25.7813 1.03125 25.5L1.78125 20.625C1.875 20.1562 2.25 19.7812 2.625 19.7812L6.9375 20.0625C7.125 20.0625 7.3125 20.1563 7.5 20.3438C7.6875 20.5313 7.6875 20.8125 7.6875 21L7.03125 26.0625C6.9375 26.5312 6.5625 26.9063 6.1875 26.9063L1.6875 26.5312Z" fill="#365670"/>
<path d="M2.62467 19.9688L6.93717 20.25C7.21842 20.25 7.49967 20.625 7.40592 20.9062L6.74967 25.9688C6.74967 26.3438 6.37467 26.625 6.09342 26.625L1.78092 26.25C1.49967 26.25 1.21842 25.875 1.31217 25.5L1.96842 20.625C2.06217 20.25 2.34342 19.9688 2.62467 19.9688ZM2.62467 19.5C2.06217 19.5 1.59342 19.9688 1.49967 20.5313L0.749669 25.5C0.655919 25.875 0.749669 26.1563 0.937169 26.4375C1.12467 26.625 1.31217 26.8125 1.59342 26.8125L5.90592 27.1875H5.99967C6.56217 27.1875 7.03092 26.7188 7.12467 26.1563L7.78092 21.0938C7.78092 20.8125 7.68717 20.4375 7.49967 20.25C7.31217 20.0625 7.03092 19.875 6.74967 19.875L2.62467 19.5Z" fill="#365670"/>
<path d="M10.4063 9.09375C10.2188 9.09375 10.0312 9 9.84375 8.8125C9.65625 8.625 9.65625 8.4375 9.65625 8.15625L10.2187 3.46875C10.3125 3 10.6875 2.625 11.1562 2.625H28.125C28.4062 2.625 28.5938 2.71875 28.7813 2.90625C28.9688 3.09375 29.0625 3.28125 28.9687 3.5625L28.5938 8.53125C28.5938 9 28.125 9.375 27.6562 9.375L10.4063 9.09375Z" fill="#64BCED"/>
<path d="M11.1562 2.90625H28.125C28.5 2.90625 28.7812 3.1875 28.6875 3.5625L28.3125 8.53125C28.3125 8.90625 27.9375 9.1875 27.6562 9.1875L10.4062 8.8125C10.125 8.8125 9.84375 8.53125 9.9375 8.15625L10.5 3.46875C10.5937 3.1875 10.875 2.90625 11.1562 2.90625ZM11.1562 2.34375C10.5937 2.34375 10.125 2.8125 10.0312 3.375L9.46875 8.0625C9.46875 8.34375 9.5625 8.71875 9.75 8.90625C9.9375 9.09375 10.2187 9.28125 10.5 9.28125L27.6562 9.65625C28.3125 9.65625 28.7812 9.1875 28.875 8.53125L29.25 3.5625C29.25 3.28125 29.1562 2.90625 28.9688 2.71875C28.7812 2.53125 28.5 2.34375 28.2188 2.34375H11.1562Z" fill="#365670"/>
<path d="M3.28125 9C3.09375 9 2.90625 8.90625 2.71875 8.71875C2.625 8.53125 2.53125 8.34375 2.53125 8.0625L3.1875 3.46875C3.28125 3 3.65625 2.625 4.03125 2.625H8.15625C8.34375 2.625 8.53125 2.71875 8.71875 2.90625C8.90625 3.09375 8.90625 3.28125 8.90625 3.5625L8.34375 8.25C8.34375 8.625 7.875 9 7.5 9H3.28125Z" fill="#64BCED"/>
<path d="M8.25 2.90625C8.53125 2.90625 8.8125 3.1875 8.71875 3.5625L8.15625 8.25C8.15625 8.625 7.78125 8.90625 7.5 8.90625L3.28125 8.71875C3 8.71875 2.71875 8.4375 2.8125 8.0625L3.46875 3.46875C3.46875 3.1875 3.75 2.90625 4.03125 2.90625H8.25ZM8.25 2.34375H4.125C3.5625 2.4375 3 2.8125 3 3.46875L2.34375 8.0625C2.34375 8.34375 2.34375 8.71875 2.53125 8.90625C2.71875 9.09375 3 9.28125 3.28125 9.28125H7.5C8.0625 9.28125 8.53125 8.8125 8.625 8.25L9.1875 3.5625C9.1875 3.28125 9.09375 2.90625 8.90625 2.71875C8.8125 2.53125 8.53125 2.34375 8.25 2.34375Z" fill="#365670"/>
<path d="M9.375 17.25C9.1875 17.25 9 17.1562 8.8125 16.9688C8.625 16.7812 8.625 16.5 8.625 16.3125L9.1875 11.4375C9.28125 10.9688 9.65625 10.5938 10.125 10.5938L27.375 11.0625C27.6562 11.0625 27.8437 11.1563 28.0312 11.3438C28.2187 11.5313 28.3125 11.8125 28.2188 12L27.75 17.25C27.75 17.7187 27.2812 18.1875 26.8125 18.1875L9.375 17.25Z" fill="#64BCED"/>
<path d="M10.125 10.7812L27.375 11.25C27.75 11.25 28.0312 11.5312 27.9375 11.9062L27.4688 17.1562C27.4688 17.5312 27.0938 17.8125 26.8125 17.8125L9.375 17.0625C9.09375 17.0625 8.8125 16.7812 8.90625 16.4062L9.46875 11.5313C9.5625 11.0625 9.84375 10.7812 10.125 10.7812ZM10.125 10.3125C9.5625 10.3125 9.09375 10.7813 9 11.3438L8.4375 16.3125C8.4375 16.5937 8.53125 16.9687 8.71875 17.1562C8.90625 17.3437 9.1875 17.5313 9.46875 17.5313L26.9062 18.375C27.5625 18.375 28.0312 17.9062 28.125 17.25L28.5938 12C28.5938 11.7188 28.5 11.3437 28.3125 11.1562C28.125 10.9687 27.8438 10.7812 27.5625 10.7812L10.125 10.3125Z" fill="#365670"/>
<path d="M2.15625 16.9688C1.96875 16.9688 1.78125 16.875 1.59375 16.6875C1.40625 16.5 1.40625 16.2188 1.40625 16.0313L2.0625 11.25C2.15625 10.7812 2.53125 10.4062 2.90625 10.4062L7.125 10.5C7.3125 10.5 7.5 10.5937 7.6875 10.7812C7.875 10.9687 7.875 11.25 7.875 11.4375L7.21875 16.3125C7.125 16.7812 6.75 17.1563 6.375 17.1563L2.15625 16.9688Z" fill="#64BCED"/>
<path d="M3 10.5938L7.21875 10.6875C7.5 10.6875 7.78125 10.9688 7.6875 11.3438L7.03125 16.2187C7.03125 16.5937 6.65625 16.875 6.375 16.875L2.0625 16.6875C1.78125 16.6875 1.5 16.4062 1.59375 16.0312L2.34375 11.25C2.4375 10.875 2.71875 10.5938 3 10.5938ZM3 10.125C2.4375 10.125 1.96875 10.5937 1.875 11.1562L1.21875 15.9375C1.21875 16.2188 1.21875 16.5937 1.40625 16.7812C1.59375 16.9687 1.875 17.1562 2.0625 17.1562L6.375 17.3438C6.9375 17.3438 7.40625 16.875 7.5 16.3125L8.15625 11.4375C8.15625 11.1562 8.0625 10.7812 7.875 10.5938C7.6875 10.4062 7.40625 10.2187 7.125 10.2187L3 10.125Z" fill="#365670"/>
<path d="M8.34375 25.7812C8.15625 25.7812 7.96875 25.6875 7.78125 25.5C7.59375 25.3125 7.59375 25.0312 7.59375 24.75L8.25 19.6875C8.34375 19.2187 8.71875 18.8438 9.09375 18.8438L26.625 19.875C26.9062 19.875 27.0938 19.9687 27.2812 20.1562C27.4688 20.3437 27.5625 20.625 27.4687 20.9062L27 26.3438C27 26.8125 26.5312 27.2812 26.0625 27.2812L8.34375 25.7812Z" fill="#64BCED"/>
<path d="M9.09375 19.125L26.625 20.1563C27 20.1563 27.2812 20.5313 27.2812 20.9063L26.8125 26.25C26.8125 26.625 26.4375 26.9063 26.1562 26.9063H26.0625L8.34375 25.5938C7.96875 25.5938 7.78125 25.2188 7.875 24.8438L8.53125 19.6875C8.53125 19.4063 8.8125 19.125 9.09375 19.125ZM9.09375 18.5625C8.53125 18.5625 8.0625 19.0313 7.96875 19.5938L7.3125 24.6563C7.3125 25.0313 7.40625 25.3125 7.59375 25.5938C7.78125 25.7813 8.0625 25.9688 8.34375 25.9688L26.0625 27.375H26.1562C26.7187 27.375 27.2813 26.9063 27.375 26.25L27.8438 20.8125C27.8438 20.4375 27.75 20.1563 27.5625 19.875C27.375 19.6875 27.0938 19.5 26.8125 19.5L9.09375 18.5625Z" fill="#365670"/>
<path d="M0.9375 25.2187C0.75 25.2187 0.5625 25.125 0.46875 24.9375C0.28125 24.75 0.28125 24.4687 0.28125 24.1875L0.9375 19.3125C1.03125 18.8437 1.40625 18.4688 1.78125 18.4688L6.09375 18.75C6.28125 18.75 6.46875 18.8437 6.65625 19.0312C6.84375 19.2187 6.84375 19.5 6.84375 19.6875L6.1875 24.75C6.09375 25.2187 5.71875 25.5937 5.34375 25.5937L0.9375 25.2187Z" fill="#64BCED"/>
<path d="M1.87467 18.6562L6.18717 18.9375C6.46842 18.9375 6.74967 19.3125 6.65592 19.5938L5.99967 24.6562C5.90592 25.0312 5.62467 25.3125 5.34342 25.3125L0.937169 24.9375C0.655919 24.9375 0.374669 24.5625 0.468419 24.1875L1.21842 19.2188C1.21842 18.9375 1.49967 18.6562 1.87467 18.6562ZM1.87467 18.1875C1.31217 18.1875 0.843419 18.6563 0.749669 19.2188L-0.000330795 24.1875C-0.0940808 24.5625 -0.000330798 24.8437 0.187169 25.125C0.374669 25.3125 0.655919 25.4063 0.937169 25.5L5.24967 25.875H5.34342C5.90592 25.875 6.37467 25.4063 6.46842 24.8438L7.12467 19.6875C7.12467 19.4063 7.03092 19.0313 6.84342 18.8438C6.65592 18.6563 6.37467 18.4688 6.09342 18.4688L1.87467 18.1875Z" fill="#365670"/>
<path d="M26.9063 3.84375H11.9062C11.7188 3.84375 11.5312 4.03125 11.4375 4.21875L11.0625 7.40625C11.0625 7.59375 11.1562 7.875 11.4375 7.875L26.625 8.15625C26.9062 8.15625 27.0938 7.96875 27.0938 7.6875L27.375 4.3125C27.2813 4.03125 27.0938 3.84375 26.9063 3.84375ZM4.03125 7.59375L6.84375 7.6875C7.03125 7.6875 7.21875 7.5 7.3125 7.3125L7.6875 4.21875C7.6875 4.03125 7.59375 3.84375 7.40625 3.84375H4.59375C4.40625 3.84375 4.21875 4.03125 4.21875 4.21875L3.75 7.125C3.65625 7.40625 3.84375 7.59375 4.03125 7.59375ZM26.1562 12.375L11.25 11.9062C11.0625 11.9062 10.875 12.0938 10.7812 12.2812L10.4062 15.5625C10.4062 15.8438 10.5 16.0312 10.7812 16.0312L25.875 16.6875C26.1563 16.6875 26.3438 16.5 26.3438 16.2187L26.625 12.75C26.5312 12.5625 26.3438 12.375 26.1562 12.375ZM6.28125 11.9062L3.46875 11.8125C3.28125 11.8125 3.09375 12 3 12.1875L2.53125 15.375C2.53125 15.6562 2.625 15.8437 2.8125 15.8437L5.71875 15.9375C5.90625 15.9375 6.09375 15.75 6.1875 15.5625L6.5625 12.375C6.65625 12.0938 6.46875 11.9062 6.28125 11.9062ZM25.3125 21.375L9.75 20.25C9.5625 20.25 9.28125 20.4375 9.28125 20.7188L8.8125 24.0938C8.8125 24.375 8.90625 24.5625 9.1875 24.5625L24.8438 25.9688C25.125 25.9688 25.3125 25.7812 25.3125 25.5L25.5938 21.8437C25.6875 21.5625 25.5 21.375 25.3125 21.375ZM5.0625 19.875L2.15625 19.6875C1.96875 19.6875 1.78125 19.875 1.6875 20.0625L1.21875 23.3438C1.21875 23.625 1.3125 23.8125 1.5 23.8125L4.40625 24C4.59375 24 4.78125 23.8125 4.875 23.5312L5.34375 20.1562C5.4375 20.1562 5.25 19.9688 5.0625 19.875Z" fill="#A6DFFF"/>
<path d="M4.3125 4.6875V4.96875C4.3125 5.15625 4.40625 5.34375 4.59375 5.34375H6.9375C7.125 5.34375 7.21875 5.25 7.21875 5.0625V4.78125C7.21875 4.59375 7.125 4.5 6.9375 4.5L4.6875 4.40625C4.5 4.40625 4.40625 4.5 4.3125 4.6875ZM3.28125 12.5625V12.8438C3.28125 13.0312 3.375 13.2188 3.5625 13.2188H5.90625C6.09375 13.2188 6.1875 13.125 6.1875 12.9375V12.6562C6.1875 12.4688 6.09375 12.375 5.90625 12.375H3.5625C3.375 12.2813 3.28125 12.375 3.28125 12.5625ZM2.15625 20.3438V20.625C2.15625 20.8125 2.25 21 2.4375 21H4.78125C4.96875 21 5.0625 20.9062 5.0625 20.7188V20.4375C5.0625 20.25 4.96875 20.1562 4.78125 20.1562H2.4375C2.34375 20.1562 2.15625 20.25 2.15625 20.3438ZM11.9062 4.59375V4.96875C11.9062 5.15625 12 5.25 12.1875 5.25L26.5313 5.34375C26.7188 5.34375 26.8125 5.25 26.8125 5.0625V4.78125C26.8125 4.59375 26.7188 4.5 26.5313 4.5L12.1875 4.3125C12 4.3125 11.9062 4.5 11.9062 4.59375ZM11.0625 12.6562V13.0312C11.0625 13.2187 11.1563 13.3125 11.3438 13.3125L25.6875 13.6875C25.875 13.6875 25.9688 13.5938 25.9688 13.4063V13.125C25.9688 12.9375 25.875 12.8438 25.6875 12.8438L11.4375 12.375C11.25 12.375 11.0625 12.4688 11.0625 12.6562ZM10.0312 21.0938V21.4688C10.0312 21.6562 10.125 21.75 10.3125 21.8437L24.375 22.9688C24.5625 22.9688 24.6563 22.875 24.6563 22.6875V22.4062C24.6563 22.2188 24.5625 22.125 24.375 22.125L10.3125 20.9062C10.125 20.8125 10.0312 20.9062 10.0312 21.0938Z" fill="#DCF4FF"/>
</g>
<defs>
<clipPath id="clip0_52_53913">
<rect width="30" height="30" fill="white"/>
</clipPath>
</defs>
</svg>
