<svg width="16" height="16" viewBox="0 0 16 16" fill="none" xmlns="http://www.w3.org/2000/svg">
<path d="M7.96044 16C12.3569 16 15.9209 12.4183 15.9209 8C15.9209 3.58172 12.3569 0 7.96044 0C3.56401 0 0 3.58172 0 8C0 12.4183 3.56401 16 7.96044 16Z" fill="#3749E9"/>
<path d="M11.2075 8.73579C11.1934 8.7349 8.00238 10.6353 7.96058 10.6516C7.95119 10.6461 4.73211 8.73146 4.7168 8.7334C4.72459 8.7449 7.95843 13.3335 7.96058 13.3335C7.9628 13.3335 11.2075 8.73579 11.2075 8.73579Z" fill="white"/>
<path d="M7.9614 2.66699L4.72656 8.1041L7.9614 10.0298L11.1963 8.1041L7.9614 2.66699Z" fill="white"/>
</svg>
