<svg width="38" height="30" viewBox="0 0 38 30" fill="none" xmlns="http://www.w3.org/2000/svg">
<path fill-rule="evenodd" clip-rule="evenodd" d="M0 15C0 6.59172 8.51243 0 18.75 0C28.9876 0 37.5 6.59172 37.5 15C37.5 23.4083 28.9876 30 18.75 30H18.7427C18.0016 29.9956 17.2624 29.9572 16.5271 29.8828C16.2495 29.8549 15.9988 29.7048 15.843 29.4733C15.6873 29.2419 15.6427 28.953 15.7214 28.6854C16.1558 27.2059 16.1842 25.7072 15.8093 24.2945C14.4907 19.3717 8.60322 16.5192 2.51587 18.1495C2.19476 18.2387 1.88048 18.3409 1.56738 18.4535C1.31648 18.5442 1.03882 18.5237 0.80394 18.3972C0.569058 18.2706 0.399203 18.05 0.336916 17.7906C0.116844 16.8737 0.00397093 15.9393 0 15.0037V15ZM35.625 15C35.625 7.87527 28.1876 1.875 18.75 1.875C9.31403 1.875 1.87752 7.8732 1.875 14.9963C1.87637 15.3187 1.92847 15.6381 1.98063 15.9578C2.00141 16.0852 2.0222 16.2126 2.0398 16.3403C8.95298 14.4925 15.9905 17.7337 17.6184 23.811C17.9841 25.1894 17.7941 26.6345 17.5452 28.0591C17.6528 28.0658 17.7604 28.0734 17.868 28.0811L17.8682 28.0811L17.8684 28.0811L17.8686 28.0811L17.8688 28.0811L17.8689 28.0812L17.8691 28.0812L17.8693 28.0812L17.8695 28.0812L17.8697 28.0812L17.8699 28.0812L17.87 28.0812C18.1654 28.1022 18.4608 28.1232 18.7573 28.125C28.1913 28.1218 35.625 22.1228 35.625 15ZM17.8125 3.75C16.2703 3.75 15 5.0203 15 6.5625C15 8.1047 16.2703 9.375 17.8125 9.375C19.3547 9.375 20.625 8.1047 20.625 6.5625C20.625 5.0203 19.3547 3.75 17.8125 3.75ZM7.5 8.4375C7.5 6.8953 8.7703 5.625 10.3125 5.625C11.8547 5.625 13.125 6.8953 13.125 8.4375C13.125 9.9797 11.8547 11.25 10.3125 11.25C8.7703 11.25 7.5 9.9797 7.5 8.4375ZM17.8125 5.625C18.3414 5.625 18.75 6.03363 18.75 6.5625C18.75 7.09137 18.3414 7.5 17.8125 7.5C17.2836 7.5 16.875 7.09137 16.875 6.5625C16.875 6.03363 17.2836 5.625 17.8125 5.625ZM22.5 8.4375C22.5 6.8953 23.7703 5.625 25.3125 5.625C26.8547 5.625 28.125 6.8953 28.125 8.4375C28.125 9.9797 26.8547 11.25 25.3125 11.25C23.7703 11.25 22.5 9.9797 22.5 8.4375ZM10.3125 7.5C10.8414 7.5 11.25 7.90863 11.25 8.4375C11.25 8.96637 10.8414 9.375 10.3125 9.375C9.78363 9.375 9.375 8.96637 9.375 8.4375C9.375 7.90863 9.78363 7.5 10.3125 7.5ZM26.25 8.4375C26.25 7.90863 25.8414 7.5 25.3125 7.5C24.7836 7.5 24.375 7.90863 24.375 8.4375C24.375 8.96637 24.7836 9.375 25.3125 9.375C25.8414 9.375 26.25 8.96637 26.25 8.4375ZM30.9375 11.25C29.3953 11.25 28.125 12.5203 28.125 14.0625C28.125 15.6047 29.3953 16.875 30.9375 16.875C32.4797 16.875 33.75 15.6047 33.75 14.0625C33.75 12.5203 32.4797 11.25 30.9375 11.25ZM31.875 14.0625C31.875 13.5336 31.4664 13.125 30.9375 13.125C30.4086 13.125 30 13.5336 30 14.0625C30 14.5914 30.4086 15 30.9375 15C31.4664 15 31.875 14.5914 31.875 14.0625ZM25.3125 18.75C23.7703 18.75 22.5 20.0203 22.5 21.5625C22.5 23.1047 23.7703 24.375 25.3125 24.375C26.8547 24.375 28.125 23.1047 28.125 21.5625C28.125 20.0203 26.8547 18.75 25.3125 18.75ZM26.25 21.5625C26.25 21.0336 25.8414 20.625 25.3125 20.625C24.7836 20.625 24.375 21.0336 24.375 21.5625C24.375 22.0914 24.7836 22.5 25.3125 22.5C25.8414 22.5 26.25 22.0914 26.25 21.5625Z" fill="white"/>
</svg>
