<svg width="101" height="42" viewBox="0 0 101 42" fill="none" xmlns="http://www.w3.org/2000/svg">
<rect x="0.966812" width="100.033" height="0.500166" fill="#E3E7FE"/>
<rect x="0.966812" y="20.0066" width="100.033" height="0.500166" fill="#E3E7FE"/>
<rect x="0.966812" y="10.0033" width="100.033" height="0.500166" fill="#E3E7FE"/>
<rect x="0.966812" y="30.01" width="100.033" height="0.500166" fill="#E3E7FE"/>
<rect x="0.966812" y="40.0133" width="100.033" height="0.500166" fill="#E3E7FE"/>
<path d="M0.966812 20.1428C0.966812 20.1428 2.98848 12.5052 8.82942 12.9544C14.6704 13.4035 14.2212 17.6719 18.9388 16.6606C23.6563 15.6493 24.2885 2.53391 33.6527 2.61994C43.0168 2.70597 44.0981 4.52958 51.1745 15.4242C53.8704 19.0184 55.6249 21.5152 68.8093 16.6596C81.9937 11.804 77.7953 37.8886 81.0524 39.6852C84.3095 41.4818 92.6212 38.7849 95.8783 11.83" stroke="#00B97D" stroke-width="2"/>
</svg>
