<svg width="165" height="1024" viewBox="0 0 165 1024" fill="none" xmlns="http://www.w3.org/2000/svg">
<rect width="165" height="1024" fill="#666AEC"/>
<g clip-path="url(#clip0_37_36576)">
<rect x="60" y="917" width="46" height="46" rx="11" stroke="white" stroke-opacity="0.2" stroke-width="2"/>
<path fill-rule="evenodd" clip-rule="evenodd" d="M85.08 943.59L87.67 941H78V939H87.67L85.08 936.41L86.5 935L91.5 940L86.5 945L85.08 943.59ZM90 931C91.1046 931 92 931.895 92 933V937.67L90 935.67V933H76V947H90V944.33L92 942.33V947C92 948.105 91.1046 949 90 949H76C74.89 949 74 948.1 74 947V933C74 931.89 74.89 931 76 931H90Z" fill="#D9D9D9"/>
<mask id="mask0_37_36576" style="mask-type:alpha" maskUnits="userSpaceOnUse" x="74" y="931" width="18" height="18">
<path fill-rule="evenodd" clip-rule="evenodd" d="M85.08 943.59L87.67 941H78V939H87.67L85.08 936.41L86.5 935L91.5 940L86.5 945L85.08 943.59ZM90 931C91.1046 931 92 931.895 92 933V937.67L90 935.67V933H76V947H90V944.33L92 942.33V947C92 948.105 91.1046 949 90 949H76C74.89 949 74 948.1 74 947V933C74 931.89 74.89 931 76 931H90Z" fill="#D9D9D9"/>
</mask>
<g mask="url(#mask0_37_36576)">
</g>
</g>
<g clip-path="url(#clip1_37_36576)">
<rect x="59" y="194" width="48" height="48" rx="12" fill="white" fill-opacity="0.2"/>
<path fill-rule="evenodd" clip-rule="evenodd" d="M79.3994 226.4V219.2H81.7994H84.1994H86.5994V226.4H90.1994V216.692L82.9994 209.492L75.7994 216.692V226.4H79.3994ZM82.9994 206.108L94.8914 218H92.5994V228.8H84.1994V221.6H81.7994V228.8H73.3994V218H71.1074L82.9994 206.108Z" fill="#D9D9D9"/>
<mask id="mask1_37_36576" style="mask-type:alpha" maskUnits="userSpaceOnUse" x="71" y="206" width="24" height="23">
<path fill-rule="evenodd" clip-rule="evenodd" d="M79.3994 226.4V219.2H81.7994H84.1994H86.5994V226.4H90.1994V216.692L82.9994 209.492L75.7994 216.692V226.4H79.3994ZM82.9994 206.108L94.8914 218H92.5994V228.8H84.1994V221.6H81.7994V228.8H73.3994V218H71.1074L82.9994 206.108Z" fill="#D9D9D9"/>
</mask>
<g mask="url(#mask1_37_36576)">
</g>
</g>
<g clip-path="url(#clip2_37_36576)">
<rect x="59" y="282" width="48" height="48" rx="12" fill="white"/>
<path fill-rule="evenodd" clip-rule="evenodd" d="M79.534 304.8V307.2H77.134V304.8H79.534ZM84.334 304.8V307.2H81.934V304.8H84.334ZM89.134 304.8V307.2H86.734V304.8H89.134ZM91.534 296.4C92.8595 296.4 93.934 297.475 93.934 298.8V315.6C93.934 316.926 92.8595 318 91.534 318H74.734C73.402 318 72.334 316.92 72.334 315.6V298.8C72.334 297.475 73.4085 296.4 74.734 296.4H75.934V294H78.334V296.4H87.934V294H90.334V296.4H91.534ZM91.534 315.6V302.4H74.734V315.6H91.534ZM79.534 309.6V312H77.134V309.6H79.534ZM84.334 309.6V312H81.934V309.6H84.334ZM89.134 309.6V312H86.734V309.6H89.134Z" fill="#D9D9D9"/>
</g>
<g clip-path="url(#clip3_37_36576)">
<rect x="59" y="370" width="48" height="48" rx="12" fill="white" fill-opacity="0.2"/>
<path fill-rule="evenodd" clip-rule="evenodd" d="M73.4 384.667H92.6C93.9255 384.667 95 385.741 95 387.067V401.467C95 402.792 93.9255 403.867 92.6 403.867H73.4C72.068 403.867 71 402.787 71 401.467V387.067C71 385.735 72.068 384.667 73.4 384.667ZM83 393.067L92.6 387.067H73.4L83 393.067ZM73.4 401.467H92.6V389.911L83 395.899L73.4 389.911V401.467Z" fill="#D9D9D9"/>
<mask id="mask2_37_36576" style="mask-type:alpha" maskUnits="userSpaceOnUse" x="71" y="384" width="24" height="20">
<path fill-rule="evenodd" clip-rule="evenodd" d="M73.4 384.667H92.6C93.9255 384.667 95 385.741 95 387.067V401.467C95 402.792 93.9255 403.867 92.6 403.867H73.4C72.068 403.867 71 402.787 71 401.467V387.067C71 385.735 72.068 384.667 73.4 384.667ZM83 393.067L92.6 387.067H73.4L83 393.067ZM73.4 401.467H92.6V389.911L83 395.899L73.4 389.911V401.467Z" fill="#D9D9D9"/>
</mask>
<g mask="url(#mask2_37_36576)">
</g>
</g>
<g clip-path="url(#clip4_37_36576)">
<rect x="59" y="458" width="48" height="48" rx="12" fill="white" fill-opacity="0.2"/>
<path fill-rule="evenodd" clip-rule="evenodd" d="M83.0006 471.333C85.9462 471.333 88.334 473.721 88.334 476.667C88.334 479.612 85.9462 482 83.0006 482C80.0551 482 77.6673 479.612 77.6673 476.667C77.6673 473.721 80.0551 471.333 83.0006 471.333ZM83.0007 474C81.5279 474 80.334 475.194 80.334 476.667C80.334 478.139 81.5279 479.333 83.0007 479.333C84.4734 479.333 85.6673 478.139 85.6673 476.667C85.6673 475.194 84.4734 474 83.0007 474ZM83.0007 483.333C86.5607 483.333 93.6673 485.107 93.6673 488.667V492.667H72.334V488.667C72.334 485.107 79.4407 483.333 83.0007 483.333ZM83.0006 485.867C79.0406 485.867 74.8673 487.813 74.8673 488.667V490.133H91.134V488.667C91.134 487.813 86.9606 485.867 83.0006 485.867Z" fill="#D9D9D9"/>
<mask id="mask3_37_36576" style="mask-type:alpha" maskUnits="userSpaceOnUse" x="72" y="471" width="22" height="22">
<path fill-rule="evenodd" clip-rule="evenodd" d="M83.0006 471.333C85.9462 471.333 88.334 473.721 88.334 476.667C88.334 479.612 85.9462 482 83.0006 482C80.0551 482 77.6673 479.612 77.6673 476.667C77.6673 473.721 80.0551 471.333 83.0006 471.333ZM83.0007 474C81.5279 474 80.334 475.194 80.334 476.667C80.334 478.139 81.5279 479.333 83.0007 479.333C84.4734 479.333 85.6673 478.139 85.6673 476.667C85.6673 475.194 84.4734 474 83.0007 474ZM83.0007 483.333C86.5607 483.333 93.6673 485.107 93.6673 488.667V492.667H72.334V488.667C72.334 485.107 79.4407 483.333 83.0007 483.333ZM83.0006 485.867C79.0406 485.867 74.8673 487.813 74.8673 488.667V490.133H91.134V488.667C91.134 487.813 86.9606 485.867 83.0006 485.867Z" fill="#D9D9D9"/>
</mask>
<g mask="url(#mask3_37_36576)">
</g>
</g>
<g clip-path="url(#clip5_37_36576)">
<rect x="59" y="546" width="48" height="48" rx="12" fill="white" fill-opacity="0.2"/>
<path fill-rule="evenodd" clip-rule="evenodd" d="M82.9994 565.2C85.6504 565.2 87.7994 567.349 87.7994 570C87.7994 572.651 85.6504 574.8 82.9994 574.8C80.3485 574.8 78.1994 572.651 78.1994 570C78.1994 567.349 80.3485 565.2 82.9994 565.2ZM82.9994 567.6C81.6739 567.6 80.5994 568.675 80.5994 570C80.5994 571.325 81.6739 572.4 82.9994 572.4C84.3249 572.4 85.3994 571.325 85.3994 570C85.3994 568.675 84.3249 567.6 82.9994 567.6ZM80.5994 582C80.2994 582 80.0474 581.784 79.9994 581.496L79.5554 578.316C78.7994 578.016 78.1514 577.608 77.5274 577.128L74.5394 578.34C74.2754 578.436 73.9514 578.34 73.8074 578.076L71.4074 573.924C71.2514 573.66 71.3234 573.336 71.5514 573.156L74.0834 571.164L73.9994 570L74.0834 568.8L71.5514 566.844C71.3234 566.664 71.2514 566.34 71.4074 566.076L73.8074 561.924C73.9514 561.66 74.2754 561.552 74.5394 561.66L77.5274 562.86C78.1514 562.392 78.7994 561.984 79.5554 561.684L79.9994 558.504C80.0474 558.216 80.2994 558 80.5994 558H85.3994C85.6994 558 85.9514 558.216 85.9994 558.504L86.4434 561.684C87.1994 561.984 87.8474 562.392 88.4714 562.86L91.4594 561.66C91.7234 561.552 92.0474 561.66 92.1914 561.924L94.5914 566.076C94.7474 566.34 94.6754 566.664 94.4474 566.844L91.9154 568.8L91.9994 570L91.9154 571.2L94.4474 573.156C94.6754 573.336 94.7474 573.66 94.5914 573.924L92.1914 578.076C92.0474 578.34 91.7234 578.448 91.4594 578.34L88.4714 577.14C87.8474 577.608 87.1994 578.016 86.4434 578.316L85.9994 581.496C85.9514 581.784 85.6994 582 85.3994 582H80.5994ZM82.0994 560.4L81.6554 563.532C80.2154 563.832 78.9434 564.6 78.0194 565.668L75.1274 564.42L74.2274 565.98L76.7594 567.84C76.2794 569.244 76.2794 570.768 76.7594 572.16L74.2154 574.032L75.1154 575.592L78.0314 574.344C78.9554 575.4 80.2154 576.168 81.6434 576.456L82.0874 579.6H83.9114L84.3554 576.468C85.7834 576.168 87.0434 575.4 87.9674 574.344L90.8834 575.592L91.7834 574.032L89.2394 572.172C89.7194 570.768 89.7194 569.244 89.2394 567.84L91.7714 565.98L90.8714 564.42L87.9794 565.668C87.0554 564.6 85.7834 563.832 84.3434 563.544L83.8994 560.4H82.0994Z" fill="#D9D9D9"/>
<mask id="mask4_37_36576" style="mask-type:alpha" maskUnits="userSpaceOnUse" x="71" y="558" width="24" height="24">
<path fill-rule="evenodd" clip-rule="evenodd" d="M82.9994 565.2C85.6504 565.2 87.7994 567.349 87.7994 570C87.7994 572.651 85.6504 574.8 82.9994 574.8C80.3485 574.8 78.1994 572.651 78.1994 570C78.1994 567.349 80.3485 565.2 82.9994 565.2ZM82.9994 567.6C81.6739 567.6 80.5994 568.675 80.5994 570C80.5994 571.325 81.6739 572.4 82.9994 572.4C84.3249 572.4 85.3994 571.325 85.3994 570C85.3994 568.675 84.3249 567.6 82.9994 567.6ZM80.5994 582C80.2994 582 80.0474 581.784 79.9994 581.496L79.5554 578.316C78.7994 578.016 78.1514 577.608 77.5274 577.128L74.5394 578.34C74.2754 578.436 73.9514 578.34 73.8074 578.076L71.4074 573.924C71.2514 573.66 71.3234 573.336 71.5514 573.156L74.0834 571.164L73.9994 570L74.0834 568.8L71.5514 566.844C71.3234 566.664 71.2514 566.34 71.4074 566.076L73.8074 561.924C73.9514 561.66 74.2754 561.552 74.5394 561.66L77.5274 562.86C78.1514 562.392 78.7994 561.984 79.5554 561.684L79.9994 558.504C80.0474 558.216 80.2994 558 80.5994 558H85.3994C85.6994 558 85.9514 558.216 85.9994 558.504L86.4434 561.684C87.1994 561.984 87.8474 562.392 88.4714 562.86L91.4594 561.66C91.7234 561.552 92.0474 561.66 92.1914 561.924L94.5914 566.076C94.7474 566.34 94.6754 566.664 94.4474 566.844L91.9154 568.8L91.9994 570L91.9154 571.2L94.4474 573.156C94.6754 573.336 94.7474 573.66 94.5914 573.924L92.1914 578.076C92.0474 578.34 91.7234 578.448 91.4594 578.34L88.4714 577.14C87.8474 577.608 87.1994 578.016 86.4434 578.316L85.9994 581.496C85.9514 581.784 85.6994 582 85.3994 582H80.5994ZM82.0994 560.4L81.6554 563.532C80.2154 563.832 78.9434 564.6 78.0194 565.668L75.1274 564.42L74.2274 565.98L76.7594 567.84C76.2794 569.244 76.2794 570.768 76.7594 572.16L74.2154 574.032L75.1154 575.592L78.0314 574.344C78.9554 575.4 80.2154 576.168 81.6434 576.456L82.0874 579.6H83.9114L84.3554 576.468C85.7834 576.168 87.0434 575.4 87.9674 574.344L90.8834 575.592L91.7834 574.032L89.2394 572.172C89.7194 570.768 89.7194 569.244 89.2394 567.84L91.7714 565.98L90.8714 564.42L87.9794 565.668C87.0554 564.6 85.7834 563.832 84.3434 563.544L83.8994 560.4H82.0994Z" fill="#D9D9D9"/>
</mask>
<g mask="url(#mask4_37_36576)">
</g>
</g>
<path d="M70.2294 75.7732C69.7204 75.2042 69.4204 74.4788 69.3791 73.7164V64.2098C69.4203 63.4474 69.7203 62.7218 70.2294 62.153L70.9019 61.4803C71.1274 61.2543 71.254 60.948 71.254 60.6286C71.254 60.3093 71.1274 60.003 70.9019 59.777L63.7689 52.6404C63.5427 52.4151 63.2365 52.2886 62.9172 52.2886C62.598 52.2886 62.2918 52.4151 62.0656 52.6404L59.3504 55.3566C59.1259 55.5832 59 55.8893 59 56.2083C59 56.5273 59.1259 56.8333 59.3504 57.0599L64.4413 62.1528C64.9514 62.7211 65.2518 63.4469 65.2926 64.2096V73.7162C65.2519 74.4785 64.9515 75.2038 64.4413 75.7716L59.3504 80.8664C59.1259 81.093 59 81.3992 59 81.7179C59 82.037 59.1259 82.3431 59.3504 82.5697L62.0656 85.2858C62.2918 85.5111 62.598 85.6376 62.9172 85.6376C63.2364 85.6376 63.5427 85.5111 63.7689 85.2858L70.9019 78.1487C71.1274 77.9225 71.254 77.6164 71.254 77.2972C71.254 76.9777 71.1274 76.6716 70.9019 76.4456L70.2294 75.7732Z" fill="white"/>
<path d="M89.8323 81.7659C89.2637 82.2751 88.5388 82.5756 87.7766 82.6177H78.2763C77.5137 82.5756 76.7881 82.2753 76.2188 81.7659L75.548 81.0914C75.321 80.8668 75.0147 80.7409 74.6955 80.7409C74.3763 80.7409 74.07 80.8668 73.8431 81.0914L66.711 88.228C66.4858 88.4547 66.3594 88.7612 66.3594 89.0807C66.3594 89.4002 66.4858 89.7067 66.711 89.9332L69.4261 92.6495C69.6528 92.8741 69.959 93 70.278 93C70.5971 93 70.9032 92.8741 71.1299 92.6495L76.2197 87.554C76.7888 87.045 77.5142 86.7448 78.2765 86.7027H87.7796C88.5417 86.7445 89.2667 87.0448 89.8352 87.554L94.9273 92.6495C95.1539 92.8741 95.4598 93 95.7788 93C96.0976 93 96.4037 92.8741 96.6301 92.6495L99.3453 89.9332C99.5706 89.7067 99.6969 89.4002 99.6969 89.0807C99.6969 88.7612 99.5706 88.4547 99.3453 88.228L92.208 81.091C91.9816 80.8664 91.6757 80.7405 91.3569 80.7405C91.0381 80.7405 90.732 80.8664 90.5056 81.091L89.8323 81.7659Z" fill="white"/>
<path d="M95.9943 62.2262C96.5047 62.7957 96.8056 63.5224 96.847 64.2861V73.789C96.8053 74.5523 96.5044 75.2784 95.9943 75.8472L95.3216 76.5214C95.0968 76.7478 94.9707 77.054 94.9707 77.3732C94.9707 77.6922 95.0968 77.9983 95.3216 78.2247L102.457 85.3604C102.683 85.5857 102.989 85.7121 103.308 85.7121C103.627 85.7121 103.934 85.5857 104.16 85.3604L106.875 82.6428C107.1 82.4166 107.227 82.1103 107.227 81.791C107.227 81.4718 107.1 81.1654 106.875 80.9392L101.785 75.8463C101.275 75.2775 100.974 74.5514 100.932 73.7881L100.933 64.2852C100.974 63.5215 101.275 62.7948 101.785 62.2253L106.875 57.1325C107.1 56.9067 107.227 56.6007 107.227 56.2818C107.227 55.9628 107.1 55.6568 106.875 55.431L104.16 52.7132C104.048 52.6014 103.915 52.5126 103.769 52.4521C103.623 52.3915 103.466 52.3604 103.308 52.3604C103.15 52.3604 102.993 52.3915 102.847 52.4521C102.701 52.5126 102.569 52.6014 102.457 52.7132L95.3216 59.8487C95.0968 60.0751 94.9707 60.3813 94.9707 60.7004C94.9707 61.0196 95.0968 61.3258 95.3216 61.5522L95.9943 62.2262Z" fill="white"/>
<path d="M76.3904 56.2338C76.9588 55.7239 77.6842 55.4234 78.4465 55.382H87.9477C88.7098 55.4241 89.4348 55.7245 90.0035 56.2338L90.6776 56.9078C90.7892 57.0197 90.9219 57.1084 91.0679 57.169C91.2139 57.2295 91.3704 57.2606 91.5284 57.2606C91.6865 57.2606 91.8431 57.2295 91.989 57.169C92.135 57.1084 92.2677 57.0197 92.3795 56.9078L99.5134 49.7708C99.7385 49.5443 99.8648 49.2378 99.8648 48.9183C99.8648 48.5988 99.7385 48.2923 99.5134 48.0657L96.7982 45.3527C96.5723 45.1269 96.2659 45 95.9465 45C95.627 45 95.3207 45.1269 95.0947 45.3527L90.0037 50.4456C89.435 50.9549 88.71 51.2553 87.9479 51.2973H78.4465C77.6842 51.256 76.9588 50.9555 76.3904 50.4456L71.2995 45.3527C71.0728 45.1282 70.7667 45.0023 70.4477 45.0023C70.1287 45.0023 69.8226 45.1282 69.5959 45.3527L66.8808 48.0689C66.6557 48.2955 66.5293 48.6019 66.5293 48.9214C66.5293 49.2408 66.6557 49.5472 66.8808 49.7738L74.0131 56.9076C74.239 57.1335 74.5454 57.2604 74.8649 57.2604C75.1843 57.2604 75.4907 57.1335 75.7166 56.9076L76.3904 56.2338Z" fill="white"/>
<defs>
<clipPath id="clip0_37_36576">
<rect width="48" height="48" fill="white" transform="translate(59 916)"/>
</clipPath>
<clipPath id="clip1_37_36576">
<rect width="48" height="48" fill="white" transform="translate(59 194)"/>
</clipPath>
<clipPath id="clip2_37_36576">
<rect width="48" height="48" fill="white" transform="translate(59 282)"/>
</clipPath>
<clipPath id="clip3_37_36576">
<rect width="48" height="48" fill="white" transform="translate(59 370)"/>
</clipPath>
<clipPath id="clip4_37_36576">
<rect width="48" height="48" fill="white" transform="translate(59 458)"/>
</clipPath>
<clipPath id="clip5_37_36576">
<rect width="48" height="48" fill="white" transform="translate(59 546)"/>
</clipPath>
</defs>
</svg>
