<svg width="20" height="14" viewBox="0 0 20 14" fill="none" xmlns="http://www.w3.org/2000/svg">
<path d="M15.8987 5.02132C16.9918 3.81871 16.7354 2.08763 15.3261 1.15485C13.9168 0.222067 11.8882 0.440811 10.7951 1.64343C9.702 2.84604 9.95835 4.57712 11.3677 5.5099C12.777 6.44269 14.8056 6.22394 15.8987 5.02132Z" stroke="#8F9CAC" stroke-width="1.2" stroke-miterlimit="10" stroke-linecap="round" stroke-linejoin="round"/>
<path d="M7.0824 13.3347C7.0824 10.4012 9.79084 8.09003 13.2285 8.09003C16.6661 8.09003 19.3746 10.4012 19.3746 13.3347" stroke="#8F9CAC" stroke-width="1.2" stroke-miterlimit="10" stroke-linecap="round" stroke-linejoin="round"/>
<path d="M6.84697 5.07715C7.41771 4.16845 7.01713 3.03699 5.95225 2.54995C4.88737 2.06292 3.56143 2.40475 2.99069 3.31345C2.41995 4.22215 2.82053 5.35362 3.88541 5.84065C4.9503 6.32768 6.27623 5.98585 6.84697 5.07715Z" stroke="#8F9CAC" stroke-width="1.2" stroke-miterlimit="10" stroke-linecap="round" stroke-linejoin="round"/>
<path d="M0.624619 11.112C0.624619 9.06751 2.49969 7.46745 4.89563 7.46745C6.66653 7.46745 8.12492 8.35637 8.85412 9.68976" stroke="#8F9CAC" stroke-width="1.2" stroke-miterlimit="10" stroke-linecap="round" stroke-linejoin="round"/>
</svg>
