<svg width="24" height="24" viewBox="0 0 24 24" fill="none" xmlns="http://www.w3.org/2000/svg">
<path d="M14.9999 12.0003C15.0007 12.1319 14.9755 12.2623 14.9257 12.3842C14.8759 12.506 14.8026 12.6168 14.7099 12.7103L10.7099 16.7103C10.5216 16.8986 10.2662 17.0044 9.99994 17.0044C9.73364 17.0044 9.47824 16.8986 9.28994 16.7103C9.10164 16.522 8.99585 16.2666 8.99585 16.0003C8.99585 15.734 9.10164 15.4786 9.28994 15.2903L12.5899 12.0003L9.29994 8.71027C9.13611 8.51897 9.05051 8.27289 9.06023 8.02122C9.06995 7.76954 9.17428 7.5308 9.35238 7.3527C9.53047 7.17461 9.76921 7.07028 10.0209 7.06056C10.2726 7.05084 10.5186 7.13644 10.7099 7.30027L14.7099 11.3003C14.8947 11.4865 14.9988 11.7379 14.9999 12.0003Z" fill="#9F9F9F"/>
</svg>
