<svg width="32" height="32" viewBox="0 0 32 32" fill="none" xmlns="http://www.w3.org/2000/svg">
<path fill-rule="evenodd" clip-rule="evenodd" d="M4.66809 18.3832V18.0912C4.71093 17.2273 4.98779 16.3903 5.47013 15.6665C6.27299 14.7969 6.8226 13.7314 7.06128 12.5816C7.06128 11.693 7.06128 10.7917 7.13889 9.90303C7.53991 5.62488 11.77 2.66699 15.9484 2.66699H16.0519C20.2303 2.66699 24.4604 5.62488 24.8743 9.90303C24.9519 10.7917 24.8743 11.693 24.939 12.5816C25.1809 13.7341 25.73 14.8029 26.5302 15.6792C27.0161 16.3966 27.2934 17.2305 27.3322 18.0912V18.3705C27.3611 19.5311 26.9614 20.6628 26.2068 21.5569C25.2096 22.6023 23.8565 23.2527 22.4035 23.3849C18.143 23.8419 13.8444 23.8419 9.58382 23.3849C8.13252 23.247 6.78134 22.5975 5.7806 21.5569C5.03766 20.6621 4.64331 19.5371 4.66809 18.3832Z" stroke="white" stroke-width="2" stroke-linecap="round" stroke-linejoin="round"/>
<path d="M12.7402 27.8027C13.4059 28.6383 14.3835 29.1791 15.4566 29.3053C16.5297 29.4316 17.6099 29.133 18.458 28.4756C18.7189 28.2811 18.9536 28.055 19.1566 27.8027" stroke="#EA4961" stroke-width="2" stroke-linecap="round" stroke-linejoin="round"/>
</svg>
