<svg width="24" height="24" viewBox="0 0 24 24" fill="none" xmlns="http://www.w3.org/2000/svg">
<path d="M14.444 12.773V14.182C14.444 15.186 13.648 16 12.667 16H4.777C3.797 16 3 15.186 3 14.182V7.818C3.003 6.815 3.797 6.003 4.778 6H12.667C13.647 6.003 14.441 6.815 14.444 7.818V9.228L18 7.817V14.181L14.444 12.771V12.773ZM8 3C8 3.53043 7.78929 4.03914 7.41421 4.41421C7.03914 4.78929 6.53043 5 6 5C5.46957 5 4.96086 4.78929 4.58579 4.41421C4.21071 4.03914 4 3.53043 4 3C4 2.46957 4.21071 1.96086 4.58579 1.58579C4.96086 1.21071 5.46957 1 6 1C6.53043 1 7.03914 1.21071 7.41421 1.58579C7.78929 1.96086 8 2.46957 8 3ZM10.5 2C10.697 2 10.892 2.0388 11.074 2.11418C11.256 2.18956 11.4214 2.30005 11.5607 2.43934C11.6999 2.57863 11.8104 2.74399 11.8858 2.92597C11.9612 3.10796 12 3.30302 12 3.5C12 3.69698 11.9612 3.89204 11.8858 4.07403C11.8104 4.25601 11.6999 4.42137 11.5607 4.56066C11.4214 4.69995 11.256 4.81044 11.074 4.88582C10.892 4.9612 10.697 5 10.5 5C10.1022 5 9.72064 4.84196 9.43934 4.56066C9.15804 4.27936 9 3.89782 9 3.5C9 3.10218 9.15804 2.72064 9.43934 2.43934C9.72064 2.15804 10.1022 2 10.5 2Z" fill="#F4BB2E"/>
<path fill-rule="evenodd" clip-rule="evenodd" d="M10 10H12V12H10V14H8V12H6V10H8V8H10V10Z" fill="#303030"/>
</svg>
