<svg width="10" height="6" viewBox="0 0 10 6" fill="none" xmlns="http://www.w3.org/2000/svg">
<mask id="mask0_20_70299" style="mask-type:luminance" maskUnits="userSpaceOnUse" x="-2" y="-4" width="14" height="13">
<rect x="11.1537" y="8.84527" width="12.3065" height="12.3065" transform="rotate(-180 11.1537 8.84527)" fill="white"/>
</mask>
<g mask="url(#mask0_20_70299)">
<path fill-rule="evenodd" clip-rule="evenodd" d="M9.88702 5.27209C9.81487 5.34443 9.7169 5.38508 9.61474 5.38508C9.51257 5.38508 9.41461 5.34443 9.34246 5.27209L4.99981 0.928682L0.657172 5.27209C0.506814 5.42245 0.263042 5.42247 0.112658 5.27214C-0.0377265 5.12181 -0.0377901 4.87804 0.112516 4.72763L4.72753 0.11261C4.79968 0.0402772 4.89765 -0.000373607 4.99981 -0.000373607C5.10198 -0.000373607 5.19994 0.0402772 5.27209 0.11261L9.88702 4.72753C9.95935 4.79968 10 4.89765 10 4.99981C10 5.10198 9.95935 5.19994 9.88702 5.27209H9.88702Z" fill="white"/>
</g>
</svg>
