<svg width="132" height="132" viewBox="0 0 132 132" fill="none" xmlns="http://www.w3.org/2000/svg">
<path d="M123.768 79.1659C133.147 52.9243 125.999 6.10974 94.611 20.5203C63.2229 34.9303 59.6711 -2.89541 30.2589 17.792C12.9169 34.824 41.9054 47.7998 13.6775 63.2584C-11.0351 76.7921 19.5698 120.533 42.6952 120.319C67.1727 120.092 69.9361 120.546 91.2553 120.546C99.2501 120.546 114.123 106.153 123.768 79.1659Z" fill="#E2F3F7"/>
<path d="M96.7059 44.4961L29.3398 73.1595L33.4157 80.8573L101.204 52.3136L96.8922 44.7989L96.7059 44.4961Z" fill="#8EBBBC"/>
<path d="M91.4492 42.1335L109.545 42.084L100.74 56.6502L91.4492 42.1335Z" fill="#8EBBBC"/>
<path d="M48.762 101.308C49.2724 101.346 49.8662 101.606 49.8662 102.202C49.8662 102.797 50.079 117.412 49.9085 117.822C49.7382 118.231 49.919 118.747 49.666 118.747C49.0685 118.747 39.2092 118.789 39.2092 118.789C39.2092 118.789 37.1282 118.752 36.6609 118.64C36.1943 118.529 36.0835 103.235 36.2115 102.714C36.3387 102.193 36.1564 101.45 36.7926 101.339C37.4302 101.227 48.2523 101.271 48.762 101.308Z" fill="#FF0000"/>
<path d="M59.7642 85.2745L63.628 85.419C63.628 85.419 68.5097 85.2745 68.9978 85.3479C69.4858 85.419 70.0558 85.9243 70.0558 87.0785C70.0558 88.2328 70.2589 116.331 70.0967 117.125C69.9338 117.919 70.244 118.623 69.9285 118.623C69.3497 118.623 63.6726 118.536 63.6726 118.536H59.8171C59.8171 118.536 56.7844 118.58 56.7844 118.448C56.7844 118.404 56.6326 117.774 56.7129 115.681C56.7948 113.589 56.852 89.082 56.9733 88.0715C57.0954 87.0617 56.9212 85.6221 57.5306 85.4058C58.1407 85.1887 59.7642 85.2745 59.7642 85.2745Z" fill="#FF0000"/>
<path d="M87.6468 118.333L83.9406 118.273C83.9406 118.273 78.4244 118.467 77.9368 118.391C77.4484 118.313 77.4337 118.054 77.4337 116.823C77.4337 115.591 77.2306 80.1796 77.3934 79.3333C77.5554 78.4863 76.8023 77.5227 78.1428 77.5227C80.4844 77.5227 83.9978 77.332 83.9978 77.332H87.6439C87.6439 77.332 89.6378 77.4083 90.0844 77.64C90.5318 77.871 90.8566 78.6403 90.776 80.8733C90.6946 83.1048 90.6381 114.686 90.5156 115.763C90.3932 116.841 90.4489 118.077 90.1328 118.194C89.5205 118.422 87.6468 118.333 87.6468 118.333Z" fill="#FF0000"/>
<path d="M108.101 118.318L104.395 118.244C104.395 118.244 98.8798 118.481 98.3921 118.387C97.9037 118.293 97.8891 117.978 97.8891 116.476C97.8891 114.974 97.6859 67.5488 97.8487 66.516C98.0108 65.4839 97.2569 64.3082 98.5982 64.3082C100.94 64.3082 104.453 64.0762 104.453 64.0762H108.099C108.099 64.0762 110.092 64.1703 110.539 64.4518C110.987 64.7327 111.312 69.9193 111.231 72.6414C111.15 75.3636 111.093 113.869 110.97 115.184C110.849 116.498 110.904 118.005 110.588 118.148C109.975 118.426 108.101 118.318 108.101 118.318Z" fill="#FF0000"/>
<path d="M30.6658 119.058L30.6523 118.705C35.8584 118.54 47.4529 118.456 58.6655 118.374C69.8478 118.294 81.4116 118.211 86.7591 118.046C97.366 117.72 114.457 118.043 114.629 118.046L114.621 118.399C114.449 118.396 97.369 118.074 86.7701 118.399C81.419 118.564 69.853 118.648 58.6685 118.728C47.4573 118.809 35.8651 118.893 30.6658 119.058Z" fill="#2D656F"/>
<path d="M48.0977 72.1443L85.2267 72.517L84.665 60.5486L48.4703 60.3262L48.0977 72.1443Z" fill="#2D656F"/>
<path d="M84.6809 61.6631L48.4861 61.4275C48.4861 61.4275 48.3071 44.3408 48.6818 44.1638C49.0549 43.9862 84.0429 44.1058 84.0429 44.1058L84.6809 61.6631Z" fill="#3D8E90"/>
<path d="M65.8915 47.2727C64.2925 47.318 62.8484 47.9192 61.8238 48.9655C60.7546 50.0584 60.2055 51.5688 60.2792 53.2178C60.425 56.4958 63.0448 58.8034 66.4681 58.7072C69.6809 58.616 71.861 56.0714 71.7724 52.5188C71.7337 50.9335 71.1623 49.6 70.1222 48.662C69.0596 47.7049 67.5886 47.2154 65.8915 47.2727ZM66.2576 59.0638C62.7145 59.0638 60.059 56.6423 59.9072 53.2326C59.8298 51.4889 60.4139 49.888 61.5515 48.725C62.6445 47.6087 64.181 46.9671 65.8796 46.9189C67.6973 46.8723 69.2419 47.3823 70.3774 48.4059C71.4912 49.4098 72.1028 50.8288 72.1444 52.5103C72.2382 56.2702 69.9086 58.9633 66.4801 59.0609C66.4049 59.063 66.3313 59.0638 66.2576 59.0638Z" fill="#072726"/>
<path d="M50.3603 56.8955C50.8141 56.8955 51.8365 56.9903 52.7122 57.7543C53.6266 58.5515 53.7962 59.706 53.8275 60.151C54.9853 60.1319 61.3364 60.0342 63.8944 60.0703C66.9658 60.1135 77.9038 60.042 79.523 60.0307C79.4959 59.5659 79.501 58.3705 80.1273 57.3497C80.7044 56.4088 81.9797 56.1732 82.449 56.1174V49.982C82.0024 49.8483 80.6157 49.3602 80.0305 48.3267C79.3874 47.192 79.0977 46.2066 79.006 45.8494L53.9778 45.7418C53.928 46.1882 53.7286 47.4064 53.0001 48.0996C52.1333 48.9237 50.8886 49.0914 50.4228 49.1253L50.3335 56.8955H50.3603ZM53.4599 60.5103L53.4622 60.3285C53.4622 60.3144 53.4651 58.8911 52.4607 58.0153C51.4496 57.1324 50.1794 57.2556 50.1661 57.257L49.957 57.2789L50.0552 48.7815L50.2375 48.7801C50.2524 48.7801 51.7843 48.7554 52.7367 47.8499C53.521 47.1043 53.6207 45.5699 53.6214 45.5544L53.6311 45.3867L79.306 45.4971L79.336 45.6378C79.3382 45.6498 79.5934 46.81 80.3568 48.159C80.9699 49.2392 82.6661 49.6743 82.6822 49.6786L82.8216 49.7132V56.4449L82.6456 56.4541C82.6302 56.4555 81.0469 56.5524 80.4478 57.5279C79.7313 58.6972 79.908 60.1701 79.9095 60.1849L79.9337 60.3816L79.7262 60.383C79.6015 60.3837 67.1957 60.4715 63.8892 60.424C61.0909 60.3851 53.7256 60.5061 53.6512 60.5068L53.4599 60.5103Z" fill="#072726"/>
<path d="M48.2988 63.2246H84.4143V63.5784H48.2988V63.2246Z" fill="#072726"/>
<path d="M48.498 65.2012H84.6139V65.5549H48.498V65.2012Z" fill="#072726"/>
<path d="M48.2988 67.3594H84.4143V67.713H48.2988V67.3594Z" fill="#072726"/>
<path d="M48.2988 69.3301H84.4143V69.6838H48.2988V69.3301Z" fill="#072726"/>
<path d="M48.498 71.3066H84.6139V71.6604H48.498V71.3066Z" fill="#072726"/>
<path d="M84.6809 61.6631L48.4861 61.4275C48.4861 61.4275 48.3071 44.3408 48.6818 44.1638C49.0549 43.9862 84.0429 44.1058 84.0429 44.1058L84.6809 61.6631Z" fill="#3D8E90"/>
<path d="M48.4785 60.5582C48.483 61.1213 48.4867 61.4566 48.4867 61.4566L84.6676 61.6632L84.6265 60.5051L48.4867 60.3262L48.4785 60.5582Z" fill="#66A4A6"/>
<path d="M65.8915 47.2727C64.2925 47.318 62.8484 47.9192 61.8238 48.9655C60.7546 50.0584 60.2055 51.5688 60.2792 53.2178C60.425 56.4958 63.0448 58.8034 66.4681 58.7072C69.6809 58.616 71.861 56.0714 71.7724 52.5188C71.7337 50.9335 71.1623 49.6 70.1222 48.662C69.0596 47.7049 67.5886 47.2154 65.8915 47.2727ZM66.2576 59.0638C62.7145 59.0638 60.059 56.6423 59.9072 53.2326C59.8298 51.4889 60.4139 49.888 61.5515 48.725C62.6445 47.6087 64.181 46.9671 65.8796 46.9189C67.6973 46.8723 69.2419 47.3823 70.3774 48.4059C71.4912 49.4098 72.1028 50.8288 72.1444 52.5103C72.2382 56.2702 69.9086 58.9633 66.4801 59.0609C66.4049 59.063 66.3313 59.0638 66.2576 59.0638Z" fill="#072726"/>
<path d="M50.3603 56.8955C50.8141 56.8955 51.8365 56.9903 52.7122 57.7543C53.6266 58.5515 53.7962 59.706 53.8275 60.151C54.9853 60.1319 61.3364 60.0342 63.8944 60.0703C66.9658 60.1135 77.9038 60.042 79.523 60.0307C79.4959 59.5659 79.501 58.3705 80.1273 57.3497C80.7044 56.4088 81.9797 56.1732 82.449 56.1174V49.982C82.0024 49.8483 80.6157 49.3602 80.0305 48.3267C79.3874 47.192 79.0977 46.2066 79.006 45.8494L53.9778 45.7418C53.928 46.1882 53.7286 47.4064 53.0001 48.0996C52.1333 48.9237 50.8886 49.0914 50.4228 49.1253L50.3335 56.8955H50.3603ZM53.4599 60.5103L53.4622 60.3285C53.4622 60.3144 53.4651 58.8911 52.4607 58.0153C51.4496 57.1324 50.1794 57.2556 50.1661 57.257L49.957 57.2789L50.0552 48.7815L50.2375 48.7801C50.2524 48.7801 51.7843 48.7554 52.7367 47.8499C53.521 47.1043 53.6207 45.5699 53.6214 45.5544L53.6311 45.3867L79.306 45.4971L79.336 45.6378C79.3382 45.6498 79.5934 46.81 80.3568 48.159C80.9699 49.2392 82.6661 49.6743 82.6822 49.6786L82.8216 49.7132V56.4449L82.6456 56.4541C82.6302 56.4555 81.0469 56.5524 80.4478 57.5279C79.7313 58.6972 79.908 60.1701 79.9095 60.1849L79.9337 60.3816L79.7262 60.383C79.6015 60.3837 67.1957 60.4715 63.8892 60.424C61.0909 60.3851 53.7256 60.5061 53.6512 60.5068L53.4599 60.5103Z" fill="#072726"/>
<path d="M98.6528 53.3875L101.203 52.3137L96.8921 44.7989L96.7058 44.4961L93.7637 45.7482L98.6528 53.3875Z" fill="#599B9A"/>
</svg>
