<svg width="42" height="35" viewBox="0 0 42 35" fill="none" xmlns="http://www.w3.org/2000/svg">
<path d="M9.5934 22.4388C9.15851 22.0239 8.90226 21.4949 8.86698 20.939V14.0072C8.90216 13.4512 9.15842 12.9222 9.5934 12.5074L10.1679 12.0169C10.3605 11.8521 10.4688 11.6288 10.4688 11.3959C10.4688 11.1631 10.3605 10.9397 10.1679 10.7749L4.07411 5.57118C3.88087 5.40687 3.61927 5.31461 3.34653 5.31461C3.07379 5.31461 2.81218 5.40687 2.61895 5.57118L0.299342 7.55174C0.107582 7.71695 0 7.94012 0 8.17273C0 8.40532 0.107582 8.6285 0.299342 8.79371L4.64859 12.5072C5.08435 12.9217 5.34095 13.4509 5.37579 14.007V20.9389C5.34104 21.4948 5.08441 22.0236 4.64859 22.4376L0.299342 26.1526C0.107582 26.3179 0 26.5411 0 26.7735C0 27.0062 0.107582 27.2293 0.299342 27.3946L2.61895 29.3751C2.8122 29.5393 3.07381 29.6316 3.34653 29.6316C3.61925 29.6316 3.88085 29.5393 4.07411 29.3751L10.1679 24.171C10.3605 24.0061 10.4688 23.7828 10.4688 23.55C10.4688 23.3171 10.3605 23.0938 10.1679 22.9291L9.5934 22.4388Z" fill="#666AEC"/>
<path d="M26.3412 26.8085C25.8555 27.1798 25.2362 27.3989 24.5851 27.4296H16.4689C15.8174 27.3989 15.1975 27.1799 14.7112 26.8085L14.1381 26.3167C13.9441 26.1529 13.6825 26.0611 13.4098 26.0611C13.1371 26.0611 12.8755 26.1529 12.6815 26.3167L6.58852 31.5204C6.39615 31.6857 6.28816 31.9092 6.28816 32.1422C6.28816 32.3751 6.39615 32.5987 6.58852 32.7638L8.90811 34.7444C9.10179 34.9082 9.36333 34.9999 9.63589 34.9999C9.90845 34.9999 10.17 34.9082 10.3637 34.7444L14.712 31.0289C15.1981 30.6578 15.8178 30.4389 16.4691 30.4082H24.5876C25.2387 30.4387 25.858 30.6576 26.3437 31.0289L30.6939 34.7444C30.8876 34.9082 31.1489 34.9999 31.4215 34.9999C31.6938 34.9999 31.9554 34.9082 32.1488 34.7444L34.4684 32.7638C34.6608 32.5987 34.7687 32.3751 34.7687 32.1422C34.7687 31.9092 34.6608 31.6857 34.4684 31.5204L28.3709 26.3163C28.1774 26.1525 27.9162 26.0608 27.6438 26.0608C27.3715 26.0608 27.1099 26.1525 26.9165 26.3163L26.3412 26.8085Z" fill="#666AEC"/>
<path d="M31.6042 12.561C32.0402 12.9762 32.2973 13.506 32.3327 14.0629V20.9921C32.2971 21.5487 32.04 22.0782 31.6042 22.4929L31.0296 22.9845C30.8375 23.1496 30.7298 23.3728 30.7298 23.6056C30.7298 23.8382 30.8375 24.0615 31.0296 24.2266L37.1251 29.4296C37.3183 29.5939 37.58 29.686 37.8526 29.686C38.1253 29.686 38.3868 29.5939 38.58 29.4296L40.8997 27.448C41.0921 27.2831 41.2002 27.0597 41.2002 26.8269C41.2002 26.5942 41.0921 26.3708 40.8997 26.2059L36.5514 22.4922C36.1154 22.0775 35.8581 21.548 35.8225 20.9915L35.8237 14.0622C35.8587 13.5054 36.1154 12.9755 36.5514 12.5603L40.8997 8.84678C41.0921 8.68217 41.2002 8.45906 41.2002 8.22646C41.2002 7.99386 41.0921 7.77075 40.8997 7.60614L38.58 5.62443C38.4845 5.54285 38.3712 5.47814 38.2464 5.43399C38.1214 5.38984 37.9878 5.36711 37.8526 5.36711C37.7176 5.36711 37.5837 5.38984 37.4589 5.43399C37.334 5.47814 37.2206 5.54285 37.1251 5.62443L31.0296 10.8273C30.8375 10.9924 30.7298 11.2157 30.7298 11.4484C30.7298 11.6811 30.8375 11.9044 31.0296 12.0695L31.6042 12.561Z" fill="#666AEC"/>
<path d="M14.8572 8.19131C15.3427 7.81948 15.9624 7.60037 16.6137 7.57024H24.7307C25.3817 7.60089 26.0011 7.81994 26.487 8.19131L27.0628 8.68282C27.1582 8.76434 27.2715 8.82905 27.3963 8.87318C27.521 8.91732 27.6547 8.94002 27.7897 8.94002C27.9247 8.94002 28.0585 8.91732 28.1832 8.87318C28.3079 8.82905 28.4213 8.76434 28.5168 8.68282L34.6113 3.47874C34.8037 3.31353 34.9116 3.09004 34.9116 2.85709C34.9116 2.62415 34.8037 2.40067 34.6113 2.23544L32.2917 0.257207C32.0987 0.0925127 31.837 0 31.5641 0C31.2912 0 31.0294 0.0925127 30.8364 0.257207L26.4872 3.97075C26.0013 4.3421 25.3819 4.56114 24.7309 4.5918H16.6137C15.9624 4.56167 15.3427 4.34256 14.8572 3.97075L10.5079 0.257207C10.3143 0.0935149 10.0528 0.00169237 9.78025 0.00169237C9.50775 0.00169237 9.24625 0.0935149 9.05258 0.257207L6.73298 2.23776C6.54067 2.40295 6.43272 2.6264 6.43272 2.85932C6.43272 3.09223 6.54067 3.31569 6.73298 3.48088L12.8262 8.68265C13.0192 8.84732 13.281 8.93985 13.5539 8.93985C13.8268 8.93985 14.0885 8.84732 14.2816 8.68265L14.8572 8.19131Z" fill="#666AEC"/>
</svg>
