<svg width="32" height="32" viewBox="0 0 32 32" fill="none" xmlns="http://www.w3.org/2000/svg">
<path fill-rule="evenodd" clip-rule="evenodd" d="M16.0761 2.6671C11.3961 2.64819 7.04775 5.07638 4.61433 9.06745C2.1809 13.0585 2.01755 18.0301 4.18375 22.1718L4.45085 22.6925C4.66978 23.1022 4.71558 23.5822 4.57804 24.0258C4.19689 25.0381 3.87831 26.0729 3.62411 27.1242C3.62411 27.6575 3.77674 27.9623 4.3491 27.9496C5.36286 27.7257 6.36123 27.4373 7.33808 27.0861C7.75881 26.9702 8.20615 26.997 8.60999 27.1623C8.97884 27.3401 9.72927 27.7972 9.7547 27.7972C14.6557 30.3742 20.6414 29.6633 24.8 26.0102C28.9586 22.3571 30.4268 16.5203 28.4905 11.339C26.5541 6.15778 21.6151 2.7077 16.0761 2.6671V2.6671Z" stroke="white" stroke-width="2" stroke-linecap="round" stroke-linejoin="round"/>
<ellipse cx="9.71701" cy="16.0002" rx="0.635954" ry="0.63492" fill="#EA4961" stroke="#EA4961" stroke-width="2" stroke-linecap="round" stroke-linejoin="round"/>
<ellipse cx="16.0764" cy="16.0002" rx="0.635954" ry="0.63492" fill="#EA4961" stroke="#EA4961" stroke-width="2" stroke-linecap="round" stroke-linejoin="round"/>
<ellipse cx="22.4358" cy="16.0002" rx="0.635953" ry="0.63492" fill="#EA4961" stroke="#EA4961" stroke-width="2" stroke-linecap="round" stroke-linejoin="round"/>
</svg>
