<svg width="30" height="30" viewBox="0 0 30 30" fill="none" xmlns="http://www.w3.org/2000/svg">
<path fill-rule="evenodd" clip-rule="evenodd" d="M12.5113 0C19.4099 0 25.0228 5.61285 25.0228 12.5114C25.0228 15.2672 24.1163 17.8093 22.6008 19.8788L29.4365 26.7145C30.1881 27.4661 30.1881 28.6847 29.4365 29.4363C28.6849 30.1879 27.4663 30.1879 26.7147 29.4363L19.8791 22.6007C17.8095 24.1162 15.2672 25.0228 12.5114 25.0228C5.61285 25.0228 0 19.41 0 12.5114C0 5.61285 5.61279 0 12.5113 0ZM3.84969 12.5114C3.84969 17.2878 7.73504 21.1731 12.5114 21.1731C17.2877 21.1731 21.1731 17.2878 21.1731 12.5114C21.1731 7.73504 17.2878 3.84969 12.5114 3.84969C7.73504 3.84969 3.84969 7.73504 3.84969 12.5114Z" fill="#10102D"/>
</svg>
