<svg width="30" height="30" viewBox="0 0 30 30" fill="none" xmlns="http://www.w3.org/2000/svg">
<g clip-path="url(#clip0_52_78173)">
<path d="M21.5809 17.859C23.9522 17.859 25.8746 15.9366 25.8746 13.5652C25.8746 11.1939 23.9522 9.27148 21.5809 9.27148C19.2095 9.27148 17.2871 11.1939 17.2871 13.5652C17.2871 15.9366 19.2095 17.859 21.5809 17.859Z" fill="#493426"/>
<path d="M17.2883 5.625L17.4008 5.71875C17.9727 6.28125 20.5883 9.15938 20.3352 14.8969C20.3352 14.8969 20.5789 16.65 22.9602 16.65C22.8469 15.9584 22.9081 15.2495 23.1383 14.5875C23.5227 13.7812 24.432 9.3375 23.382 7.02187C22.6908 5.62649 21.6629 4.42526 20.3911 3.52667C19.1194 2.62808 17.6438 2.06044 16.0977 1.875" fill="#302119"/>
<path d="M5.62485 26.6899C3.47797 25.4243 2.39985 22.3587 3.5436 19.3493C4.34645 17.8251 5.36297 16.4234 6.56235 15.1868C8.43735 13.6399 16.4998 12.4962 22.7998 17.4837C24.0492 18.546 24.88 20.0181 25.1436 21.6368C25.1391 21.6742 25.1391 21.7119 25.1436 21.7493C25.978 26.3618 24.5623 30.0649 20.7655 30.0649C16.3686 30.0649 9.37485 28.893 5.62485 26.6899Z" fill="#692A2A"/>
<path d="M6.41297 25.5743C5.39896 24.9171 4.65291 23.9195 4.30917 22.761C3.96542 21.6026 4.04656 20.3595 4.53797 19.2556C5.25601 17.9423 6.15547 16.7367 7.20985 15.6743C8.90672 14.3431 16.0411 13.3587 21.638 17.6525C22.7372 18.5539 23.4731 19.8226 23.7098 21.2243V21.3275C24.4505 25.2931 23.1942 28.4806 19.8286 28.4806C15.938 28.4806 9.73172 27.4681 6.41297 25.5743Z" fill="#BD4F53"/>
<path d="M5.90596 23.2878C3.97471 22.3503 4.64033 20.2128 5.70908 17.8972C6.13258 17.1361 6.73814 16.4919 7.47158 16.0222C9.20596 14.869 16.0872 13.819 21.731 17.5784C22.788 18.2913 23.5326 19.3813 23.8122 20.6253V20.7097C24.5528 24.1503 22.0028 27.2065 18.9372 26.7472C15.0466 26.194 9.24346 24.8909 5.90596 23.2878Z" fill="#E8A77B"/>
<path d="M5.71821 23.287C4.05883 22.3495 5.78383 21.3276 6.70258 19.012C7.35723 17.9513 8.17691 17.0019 9.13071 16.1995C10.6307 15.037 14.3526 13.7995 19.2276 17.5589C20.1758 18.3318 20.8147 19.4198 21.0276 20.6245V20.7089C21.6651 24.1495 19.9588 26.7558 17.2776 26.3339C13.9495 25.7433 8.60571 24.8901 5.71821 23.287Z" fill="#FFDEC2"/>
<path d="M18.0004 17.3723C18.0004 17.3723 18.7973 21.591 16.2754 22.8941C16.2754 22.8941 22.6691 22.6785 24.366 21.6941C24.366 21.6941 24.9098 18.141 19.9785 16.5098L18.0004 17.3723Z" fill="#BD4F53"/>
<path d="M7.73437 15.9375C6.88693 16.6424 6.17253 17.4933 5.625 18.45L6.83437 19.1625L7.03125 21.0375C6.94864 20.2227 7.11271 19.4018 7.5022 18.6813C7.89168 17.9609 8.48862 17.374 9.21562 16.9969L7.73437 15.9375Z" fill="#BD4F53"/>
<path d="M5.6252 19.8281C5.6252 19.8281 10.3783 24.3469 24.1971 21.7031C24.1971 21.7031 23.2596 24.4594 22.5846 26.0063C19.0553 26.4977 15.4635 26.281 12.019 25.3687C6.31895 23.9625 3.8252 25.3125 5.6252 19.8281Z" fill="#8E4028"/>
<path d="M4.56517 19.5464C4.65892 19.1432 4.84642 20.287 5.19329 20.4839C6.48704 21.3557 9.31829 23.062 16.5558 23.812C18.2339 23.9901 21.2433 22.6964 24.1214 21.9932C24.1704 22.4838 24.1546 22.9787 24.0745 23.4651C23.887 24.4402 23.3722 25.3221 22.6152 25.9648C21.8583 26.6075 20.9047 26.9725 19.912 26.9995C17.2072 27.0463 14.5083 26.731 11.887 26.062C6.50579 24.8057 3.38392 24.2245 4.56517 19.5464Z" fill="#E08484"/>
<path d="M8.52148 25.6219C9.34706 25.4338 10.0959 24.9989 10.6684 24.375C10.6684 24.375 10.9871 26.1375 12.2059 26.55C12.1871 26.5219 8.87773 25.7906 8.52148 25.6219Z" fill="#BD4F53"/>
<path d="M14.8398 23.7463C14.8398 23.7463 20.0148 23.0994 19.4055 18.0088C19.7949 17.779 20.2443 17.6714 20.6956 17.6998C21.1468 17.7282 21.5792 17.8913 21.9367 18.1681C23.0523 19.1619 24.7492 20.2213 24.0461 23.3525C24.0461 23.3525 15.5523 25.4056 14.8398 23.7463Z" fill="#E08484"/>
<path d="M7.41523 21.9187C7.41523 21.9187 6.54336 19.5094 7.22773 18.2531C7.66278 17.4699 8.26057 16.789 8.98086 16.2563L8.04336 15.5156C8.04336 15.5156 4.92148 17.7656 4.44336 20.2031L7.41523 21.9187Z" fill="#E08484"/>
<path d="M19.491 25.2C19.6653 25.9367 19.6653 26.7039 19.491 27.4406H21.0754C20.8145 25.9868 20.2138 24.6151 19.3223 23.4375L19.491 25.2Z" fill="#BD4F53"/>
<path d="M5.45625 22.0964C5.34787 22.7206 5.3799 23.3611 5.55 23.9714L4.21875 24.0933C4.30044 23.3449 4.4899 22.6123 4.78125 21.9182C4.80698 21.835 4.8631 21.7645 4.93845 21.7207C5.01379 21.677 5.10284 21.6632 5.1879 21.6821C5.27295 21.701 5.34778 21.7512 5.3975 21.8228C5.44722 21.8943 5.46819 21.9819 5.45625 22.0683V22.0964Z" fill="#BD4F53"/>
<path d="M11.8305 23.9147C11.8305 23.9147 16.3586 23.0615 18.4867 24.4209C18.4867 24.4209 19.0398 25.4053 18.4867 25.6209C17.9336 25.8365 13.9492 23.9709 11.9242 24.5522C11.9148 24.5522 11.4648 24.1022 11.8305 23.9147Z" fill="#F4ABAB"/>
<path d="M5.75662 21.918C5.75662 21.918 9.06599 22.0211 10.3504 23.3148C10.3504 23.3148 10.5847 24.093 10.1816 24.1586C9.77849 24.2242 7.24724 22.2836 5.71912 22.3773C5.71912 22.3773 5.47537 21.993 5.75662 21.918Z" fill="#F4ABAB"/>
<path d="M9.82422 3.04682C9.82422 3.04682 13.6773 1.07807 16.9023 2.4187C16.9023 2.4187 17.8398 3.6562 15.4773 3.8812C13.1148 4.1062 13.1242 2.81245 9.82422 3.04682Z" fill="white"/>
<path d="M23.068 10.4569C23.0854 5.72458 19.2673 1.8742 14.5401 1.85688C9.81292 1.83955 5.96672 5.66184 5.94937 10.3942C5.93203 15.1266 9.75011 18.9769 14.4773 18.9943C19.2045 19.0116 23.0507 15.1893 23.068 10.4569Z" fill="#8E4028"/>
<path d="M22.6846 9.84447C22.7014 5.25708 19.0005 1.52466 14.4183 1.50787C9.83605 1.49107 6.1078 5.19627 6.09099 9.78365C6.07418 14.371 9.77516 18.1035 14.3574 18.1203C18.9396 18.137 22.6678 14.4319 22.6846 9.84447Z" fill="#E8A77B"/>
<path d="M22.5818 9.60753C22.598 5.20654 19.1483 1.62614 14.8767 1.61049C10.6052 1.59483 7.12932 5.14985 7.11319 9.55083C7.09706 13.9518 10.5468 17.5322 14.8183 17.5479C19.0899 17.5635 22.5657 14.0085 22.5818 9.60753Z" fill="#E8BD89"/>
<path d="M18.3466 10.6917C18.3584 7.4816 15.8453 4.87003 12.7336 4.85862C9.62183 4.84721 7.08971 7.4403 7.07794 10.6504C7.06618 13.8606 9.57922 16.4721 12.691 16.4835C15.8027 16.4949 18.3349 13.9019 18.3466 10.6917Z" fill="#FFDEC2"/>
<path d="M6.65645 9.12109C6.65645 9.12109 6.9377 7.87422 9.76895 7.87422C12.6002 7.87422 16.5846 8.19297 18.3377 6.37422L17.6908 5.79297C16.2823 6.44569 14.7428 6.76642 13.1908 6.73047C10.3783 6.73047 6.75957 7.43359 6.55332 7.72422C6.34707 8.01484 6.65645 9.12109 6.65645 9.12109Z" fill="#E8A77B"/>
<path d="M15.3807 11.3131C15.3825 10.8108 15.0398 10.4024 14.6153 10.4009C14.1907 10.3993 13.845 10.8052 13.8432 11.3074C13.8413 11.8097 14.184 12.2181 14.6086 12.2196C15.0332 12.2212 15.3788 11.8153 15.3807 11.3131Z" fill="#8E4028"/>
<path d="M14.9317 10.9819C14.9322 10.8525 14.8444 10.7472 14.7357 10.7468C14.627 10.7464 14.5384 10.851 14.538 10.9805C14.5375 11.1099 14.6253 11.2152 14.734 11.2156C14.8427 11.216 14.9312 11.1114 14.9317 10.9819Z" fill="white"/>
<path d="M9.15215 10.2779C9.15399 9.77568 8.8113 9.36728 8.38674 9.36572C7.96217 9.36416 7.6165 9.77004 7.61466 10.2723C7.61282 10.7745 7.95551 11.1829 8.38007 11.1845C8.80464 11.186 9.15031 10.7801 9.15215 10.2779Z" fill="#8E4028"/>
<path d="M8.7032 9.95652C8.70367 9.82708 8.61592 9.72183 8.50719 9.72143C8.39846 9.72103 8.30993 9.82564 8.30945 9.95508C8.30898 10.0845 8.39674 10.1898 8.50547 10.1902C8.6142 10.1906 8.70273 10.086 8.7032 9.95652Z" fill="white"/>
<path d="M19.2851 3.97452C18.7976 4.93242 18.0264 5.71655 17.0767 6.2199C16.127 6.72325 15.0452 6.9213 13.9788 6.78702C10.0319 6.47765 7.20069 7.16202 6.04756 8.7839C6.04756 8.7839 5.86006 2.62452 11.6726 1.67765C17.4851 0.730772 19.2851 3.0839 19.2851 3.97452Z" fill="#493426"/>
<path d="M16.7902 5.18359C16.8311 5.21061 16.8688 5.24205 16.9027 5.27734C17.4746 5.83984 20.0902 8.71797 19.8371 14.4555C19.8371 14.4555 20.0809 16.2086 22.4621 16.2086C22.3489 15.517 22.4101 14.808 22.6402 14.1461C23.0246 13.3398 23.934 8.89609 22.884 6.58047C22.1928 5.18509 21.1649 3.98386 19.8931 3.08527C18.6213 2.18668 17.1457 1.61903 15.5996 1.43359" fill="#493426"/>
<path d="M19.6309 11.3346C19.6309 11.3346 20.5684 10.7534 20.9996 11.1846C21.7215 11.9534 21.1121 13.1534 19.6777 13.3503L19.6309 11.3346Z" fill="#E8BD89"/>
<path d="M17.4945 6.72266C18.6062 8.04164 19.3443 9.63433 19.632 11.3352C19.632 11.3352 19.4352 7.58516 17.6914 6.25391L17.457 6.64766" fill="#E8A77B"/>
<path d="M20.2969 13.125C20.2969 13.125 20.0344 15.1219 21.3094 15.9375C21.0843 15.9711 20.8543 15.9396 20.6466 15.8465C20.4389 15.7535 20.2623 15.6029 20.1375 15.4125C19.7996 14.7404 19.6598 13.9861 19.7344 13.2375L20.2969 13.125Z" fill="#E8A77B"/>
<path d="M11.9633 22.5656C11.7563 22.13 11.6681 21.6473 11.7076 21.1666C11.7471 20.6859 11.9129 20.2241 12.1883 19.8281C12.1883 19.8281 10.8289 19.9781 10.8008 22.5656C10.8195 22.5656 11.5133 22.9688 11.9633 22.5656Z" fill="#A85038"/>
<path d="M13.4163 14.7838C12.9355 14.7064 12.4778 14.524 12.0756 14.2494C11.9103 14.1146 11.7201 14.0138 11.5158 13.9527C11.3115 13.8916 11.0971 13.8713 10.885 13.8931C10.7725 13.8931 10.6038 13.7338 10.435 13.64C10.2663 13.5463 9.99439 13.5275 9.97564 13.64C9.95689 13.7525 10.2006 14.165 10.2006 14.165C10.2262 14.3422 10.2262 14.5222 10.2006 14.6994C10.1744 14.7999 10.169 14.9047 10.1849 15.0073C10.2008 15.1099 10.2375 15.2082 10.2929 15.2961C10.3482 15.3839 10.421 15.4595 10.5067 15.5181C10.5925 15.5768 10.6893 15.6172 10.7913 15.6369C11.2148 15.7641 11.6698 15.7376 12.0756 15.5619C12.3381 15.4025 13.4163 14.7838 13.4163 14.7838Z" fill="#A53829"/>
<path d="M19.5195 24.1973C19.5195 24.1973 21.7977 26.1566 23.9633 25.2098C26.1289 24.2629 20.5133 27.6379 20.5133 27.6379L19.5195 24.1973Z" fill="#BD4F53"/>
<path d="M16.5101 5.24141C16.0536 5.15139 15.6288 4.94289 15.2783 4.63682C14.9278 4.33076 14.664 3.9379 14.5133 3.49766C13.9883 1.96016 13.4539 0.488281 10.8195 0.488281C8.18515 0.488281 5.03515 2.42891 6.04765 5.24141C7.06015 8.05391 16.7164 8.10078 16.5101 5.24141Z" fill="#493426"/>
<path d="M15.6103 5.38047C15.23 5.30636 14.8761 5.13286 14.5847 4.87762C14.2932 4.62238 14.0745 4.29451 13.9509 3.92734C13.5103 2.65234 13.0696 1.43359 10.8759 1.43359C8.68215 1.43359 6.06652 3.04609 6.91027 5.38047C7.75402 7.71484 15.7884 7.76172 15.6103 5.38047Z" fill="#604637"/>
<path d="M20.3438 17.6816C20.3438 17.6816 25.3687 22.4441 22.0969 26.3816C22.0969 26.3816 22.7062 27.4504 23.5687 25.9129C24.4312 24.3754 25.8563 19.3129 20.3438 17.6816Z" fill="#BD4F53"/>
<path d="M23.8976 24.4597C24.7605 24.511 25.5976 24.7739 26.3349 25.2251C27.0723 25.6764 27.6873 26.3021 28.1257 27.0472C28.2292 27.212 28.2982 27.3961 28.3283 27.5884C28.3584 27.7807 28.349 27.9771 28.3008 28.1657C28.2525 28.3543 28.1664 28.5311 28.0477 28.6853C27.9289 28.8395 27.78 28.9679 27.6101 29.0628C26.3957 29.7275 25.0335 30.0758 23.6491 30.0758C22.2647 30.0758 20.9026 29.7275 19.6882 29.0628C19.3351 28.842 19.0824 28.4917 18.9843 28.087C18.8862 27.6822 18.9504 27.2552 19.1632 26.8972C19.6636 26.1168 20.3596 25.4812 21.182 25.0535C22.0044 24.6259 22.9245 24.4211 23.8507 24.4597H23.8976Z" fill="#425763"/>
<path d="M23.8599 25.031C24.5832 25.0651 25.2884 25.2686 25.9186 25.6253C26.5488 25.9819 27.0864 26.4816 27.488 27.0841C27.5829 27.2153 27.6473 27.3661 27.6764 27.5254C27.7056 27.6847 27.6988 27.8484 27.6565 28.0048C27.6143 28.1611 27.5377 28.306 27.4323 28.429C27.327 28.5519 27.1954 28.6497 27.0474 28.7154C25.9757 29.2165 24.8037 29.466 23.6208 29.4449C22.4379 29.4238 21.2755 29.1326 20.2224 28.5935C20.0813 28.52 19.9577 28.417 19.86 28.2915C19.7624 28.1659 19.6929 28.0208 19.6564 27.8659C19.62 27.7111 19.6173 27.5502 19.6486 27.3943C19.68 27.2383 19.7446 27.091 19.838 26.9622C20.2869 26.332 20.8871 25.8248 21.5833 25.4873C22.2796 25.1498 23.0496 24.9929 23.8224 25.031H23.8599Z" fill="#A2B6BA"/>
<path d="M23.8411 25.1152C24.4314 25.1403 25.0075 25.3046 25.5223 25.5946C26.0372 25.8845 26.4762 26.2921 26.8036 26.784C26.8741 26.8943 26.9206 27.0181 26.9403 27.1476C26.96 27.277 26.9524 27.4091 26.918 27.5354C26.8836 27.6616 26.823 27.7793 26.7404 27.8808C26.6577 27.9823 26.5547 28.0653 26.438 28.1246C25.5648 28.5325 24.6099 28.7353 23.6463 28.7174C22.6827 28.6995 21.736 28.4615 20.8786 28.0215C20.7691 27.9572 20.6739 27.8713 20.5986 27.7691C20.5233 27.6669 20.4696 27.5504 20.4407 27.4268C20.4118 27.3032 20.4082 27.175 20.4303 27.05C20.4524 26.925 20.4997 26.8058 20.5692 26.6996C20.934 26.1856 21.4224 25.7719 21.9893 25.4966C22.5563 25.2214 23.1835 25.0934 23.813 25.1246L23.8411 25.1152Z" fill="#87999B"/>
<path d="M23.4754 27.7594C26.8305 27.7594 29.5504 25.0395 29.5504 21.6844C29.5504 18.3292 26.8305 15.6094 23.4754 15.6094C20.1203 15.6094 17.4004 18.3292 17.4004 21.6844C17.4004 25.0395 20.1203 27.7594 23.4754 27.7594Z" fill="#425763"/>
<path d="M23.4742 26.8879C26.4566 26.8879 28.8742 24.4702 28.8742 21.4879C28.8742 18.5056 26.4566 16.0879 23.4742 16.0879C20.4919 16.0879 18.0742 18.5056 18.0742 21.4879C18.0742 24.4702 20.4919 26.8879 23.4742 26.8879Z" fill="#A2B6BA"/>
<path d="M23.6906 26.0258C26.4451 26.0258 28.6781 23.7928 28.6781 21.0383C28.6781 18.2838 26.4451 16.0508 23.6906 16.0508C20.9361 16.0508 18.7031 18.2838 18.7031 21.0383C18.7031 23.7928 20.9361 26.0258 23.6906 26.0258Z" fill="#CBDEE4"/>
<path d="M26.4285 20.6148C27.0395 20.6148 27.5348 20.1196 27.5348 19.5086C27.5348 18.8976 27.0395 18.4023 26.4285 18.4023C25.8176 18.4023 25.3223 18.8976 25.3223 19.5086C25.3223 20.1196 25.8176 20.6148 26.4285 20.6148Z" fill="#425763"/>
<path d="M26.4742 20.1086C26.8418 20.1086 27.1398 19.8106 27.1398 19.443C27.1398 19.0754 26.8418 18.7773 26.4742 18.7773C26.1066 18.7773 25.8086 19.0754 25.8086 19.443C25.8086 19.8106 26.1066 20.1086 26.4742 20.1086Z" fill="#4ED154"/>
<path d="M22.5004 19.0781C22.5876 18.5277 22.7864 18.0009 23.0847 17.5302C23.383 17.0594 23.7743 16.6546 24.2348 16.3406C24.4316 16.2281 24.3941 16.1062 24.1785 16.0781H23.8879C23.6535 16.0781 22.0129 16.1531 21.4316 19.1625L22.5004 19.0781Z" fill="#A2B6BA"/>
<path d="M25.2367 22.143C25.2367 20.2479 23.8012 18.7117 22.0305 18.7117C20.2597 18.7117 18.8242 20.2479 18.8242 22.143C18.8242 24.038 20.2597 25.5742 22.0305 25.5742C23.8012 25.5742 25.2367 24.038 25.2367 22.143Z" fill="#425763"/>
<path d="M24.6338 22.0937C24.6391 20.6492 23.5479 19.4741 22.1965 19.4692C20.8451 19.4642 19.7454 20.6312 19.7401 22.0758C19.7348 23.5204 20.826 24.6954 22.1773 24.7004C23.5287 24.7053 24.6285 23.5383 24.6338 22.0937Z" fill="#3587C4"/>
<path d="M24.231 21.9884C24.2354 20.7872 23.3281 19.81 22.2046 19.8059C21.0811 19.8018 20.1667 20.7722 20.1623 21.9735C20.1579 23.1747 21.0651 24.1518 22.1887 24.1559C23.3122 24.16 24.2266 23.1896 24.231 21.9884Z" fill="#4DA3EC"/>
<path d="M23.3427 20.9853C23.3439 20.6694 23.0762 20.4124 22.7448 20.4112C22.4134 20.41 22.1439 20.665 22.1427 20.9809C22.1416 21.2967 22.4093 21.5537 22.7406 21.5549C23.072 21.5561 23.3416 21.3011 23.3427 20.9853Z" fill="white"/>
<path d="M23.6161 17.5119C23.8586 17.2446 24.122 16.9969 24.4036 16.7713C24.4554 16.7294 24.5166 16.7008 24.5819 16.6877C24.6472 16.6746 24.7147 16.6776 24.7786 16.6963C25.3152 16.854 25.8289 17.0809 26.3068 17.3713C26.3854 17.421 26.4454 17.4952 26.4775 17.5825C26.5095 17.6698 26.5118 17.7653 26.484 17.854C26.4562 17.9428 26.3999 18.0199 26.3237 18.0733C26.2476 18.1267 26.1559 18.1535 26.063 18.1494C25.3659 18.1052 24.6661 18.124 23.9724 18.2057C23.8892 18.2126 23.8057 18.1946 23.7327 18.1541C23.6597 18.1135 23.6004 18.0522 23.5622 17.9779C23.5241 17.9036 23.5088 17.8197 23.5184 17.7367C23.528 17.6538 23.562 17.5755 23.6161 17.5119Z" fill="#E1F0F4"/>
</g>
<defs>
<clipPath id="clip0_52_78173">
<rect width="30" height="30" fill="white"/>
</clipPath>
</defs>
</svg>
