<svg width="22" height="20" viewBox="0 0 22 20" fill="none" xmlns="http://www.w3.org/2000/svg">
<path d="M21.2326 5.11628H15.093C14.6735 5.11628 14.3256 4.76837 14.3256 4.34884C14.3256 3.9293 14.6735 3.5814 15.093 3.5814H21.2326C21.6521 3.5814 22 3.9293 22 4.34884C22 4.76837 21.6521 5.11628 21.2326 5.11628Z" fill="#CBC6B6"/>
<path d="M4.86047 5.11628H0.767442C0.347907 5.11628 0 4.76837 0 4.34884C0 3.9293 0.347907 3.5814 0.767442 3.5814H4.86047C5.28 3.5814 5.62791 3.9293 5.62791 4.34884C5.62791 4.76837 5.28 5.11628 4.86047 5.11628Z" fill="#CBC6B6"/>
<path d="M8.95349 8.69767C6.55907 8.69767 4.60465 6.74326 4.60465 4.34884C4.60465 1.95442 6.55907 0 8.95349 0C11.3479 0 13.3023 1.95442 13.3023 4.34884C13.3023 6.74326 11.3479 8.69767 8.95349 8.69767ZM8.95349 1.53488C7.39814 1.53488 6.13953 2.79349 6.13953 4.34884C6.13953 5.90419 7.39814 7.16279 8.95349 7.16279C10.5088 7.16279 11.7674 5.90419 11.7674 4.34884C11.7674 2.79349 10.5088 1.53488 8.95349 1.53488Z" fill="#CBC6B6"/>
<path d="M21.2326 16.3721H17.1395C16.72 16.3721 16.3721 16.0242 16.3721 15.6047C16.3721 15.1851 16.72 14.8372 17.1395 14.8372H21.2326C21.6521 14.8372 22 15.1851 22 15.6047C22 16.0242 21.6521 16.3721 21.2326 16.3721Z" fill="#CBC6B6"/>
<path d="M6.90698 16.3721H0.767442C0.347907 16.3721 0 16.0242 0 15.6047C0 15.1851 0.347907 14.8372 0.767442 14.8372H6.90698C7.32651 14.8372 7.67442 15.1851 7.67442 15.6047C7.67442 16.0242 7.32651 16.3721 6.90698 16.3721Z" fill="#CBC6B6"/>
<path d="M13.0465 19.9535C10.6521 19.9535 8.69767 17.9991 8.69767 15.6047C8.69767 13.2102 10.6521 11.2558 13.0465 11.2558C15.4409 11.2558 17.3953 13.2102 17.3953 15.6047C17.3953 17.9991 15.4409 19.9535 13.0465 19.9535ZM13.0465 12.7907C11.4912 12.7907 10.2326 14.0493 10.2326 15.6047C10.2326 17.16 11.4912 18.4186 13.0465 18.4186C14.6019 18.4186 15.8605 17.16 15.8605 15.6047C15.8605 14.0493 14.6019 12.7907 13.0465 12.7907Z" fill="#CBC6B6"/>
</svg>
