<svg width="28" height="28" viewBox="0 0 28 28" fill="none" xmlns="http://www.w3.org/2000/svg">
<g clip-path="url(#clip0_6_12211)">
<path d="M14.0001 18.3127C16.3808 18.3127 18.3108 16.3828 18.3108 14.0021C18.3108 11.6214 16.3808 9.69141 14.0001 9.69141C11.6194 9.69141 9.68945 11.6214 9.68945 14.0021C9.68945 16.3828 11.6194 18.3127 14.0001 18.3127Z" fill="#46A985"/>
<path d="M27.5705 12.8085C24.257 8.80446 19.2413 4.9502 14.0001 4.9502C8.75776 4.9502 3.74086 8.80715 0.429583 12.8085C-0.143194 13.5004 -0.143194 14.5048 0.429583 15.1966C1.26208 16.2026 3.00735 18.1446 5.33834 19.8413C11.2089 24.1149 16.7783 24.1244 22.6618 19.8413C24.9928 18.1446 26.738 16.2026 27.5705 15.1966C28.1416 14.5061 28.1446 13.5026 27.5705 12.8085ZM14.0001 7.96765C17.3279 7.96765 20.035 10.6747 20.035 14.0026C20.035 17.3304 17.3279 20.0375 14.0001 20.0375C10.6722 20.0375 7.96514 17.3304 7.96514 14.0026C7.96514 10.6747 10.6722 7.96765 14.0001 7.96765Z" fill="#46A985"/>
</g>
<defs>
<clipPath id="clip0_6_12211">
<rect width="28" height="28" fill="white"/>
</clipPath>
</defs>
</svg>
