<svg width="24" height="24" viewBox="0 0 24 24" fill="none" xmlns="http://www.w3.org/2000/svg">
<path d="M5.9998 10.7992H17.9998C18.3181 10.7992 18.6233 10.9256 18.8483 11.1507C19.0734 11.3757 19.1998 11.681 19.1998 11.9992V20.3992C19.1998 20.7175 19.0734 21.0227 18.8483 21.2477C18.6233 21.4728 18.3181 21.5992 17.9998 21.5992H5.9998C5.68154 21.5992 5.37632 21.4728 5.15128 21.2477C4.92623 21.0227 4.7998 20.7175 4.7998 20.3992V11.9992C4.7998 11.681 4.92623 11.3757 5.15128 11.1507C5.37632 10.9256 5.68154 10.7992 5.9998 10.7992ZM14.3998 7.19922L14.8138 2.10322L17.9998 1.19922L17.5838 6.29522L14.3998 7.19922ZM9.5998 8.39922L10.0138 3.30322L13.1998 2.39922L12.7848 7.49522L9.5998 8.39922ZM4.7998 9.59922L5.2138 4.50322L8.3998 3.59922L7.9838 8.69522L4.7998 9.59922Z" fill="#F4BB2E"/>
</svg>
