<svg width="24" height="24" viewBox="0 0 24 24" fill="none" xmlns="http://www.w3.org/2000/svg">
<path d="M12 16.5C14.4853 16.5 16.5 14.4853 16.5 12C16.5 9.51472 14.4853 7.5 12 7.5C9.51472 7.5 7.5 9.51472 7.5 12C7.5 14.4853 9.51472 16.5 12 16.5Z" stroke="white" stroke-opacity="0.5" stroke-width="2" stroke-linecap="round" stroke-linejoin="round"/>
<path d="M17.2191 6.10177C17.4593 6.31443 17.6863 6.54148 17.899 6.78166L20.4605 7.14743C20.8758 7.87075 21.1961 8.64467 21.4133 9.45001L19.8613 11.5192C19.8613 11.5192 19.8808 12.1604 19.8614 12.4806L21.414 14.5505C21.1962 15.3557 20.8755 16.1294 20.4596 16.8524L17.899 17.2182C17.899 17.2182 17.4594 17.6854 17.2192 17.898L16.8535 20.4595C16.1301 20.8749 15.3562 21.1951 14.5509 21.4123L12.4818 19.8604C12.1616 19.8799 11.8405 19.8799 11.5203 19.8604L9.45041 21.413C8.64522 21.1953 7.87152 20.8745 7.14847 20.4586L6.78278 17.8981C6.54259 17.6855 6.31554 17.4584 6.10288 17.2183L3.54141 16.8525C3.12603 16.1292 2.80576 15.3552 2.58856 14.5499L4.14055 12.4807C4.14055 12.4807 4.12102 11.8395 4.14048 11.5193L2.58789 9.44944C2.80563 8.64425 3.12642 7.87054 3.5423 7.1475L6.10275 6.7818C6.31541 6.54161 6.54245 6.31457 6.78263 6.10191L7.1484 3.54044C7.87173 3.12505 8.64565 2.80479 9.45098 2.58759L11.5201 4.13951C11.8403 4.12005 12.1614 4.12005 12.4816 4.13951L14.5515 2.58691C15.3567 2.80466 16.1304 3.12545 16.8534 3.54132L17.2191 6.10177Z" stroke="white" stroke-opacity="0.5" stroke-width="2" stroke-linecap="round" stroke-linejoin="round"/>
</svg>
