<svg width="28" height="28" viewBox="0 0 28 28" fill="none" xmlns="http://www.w3.org/2000/svg">
<path fill-rule="evenodd" clip-rule="evenodd" d="M8.16732 6.99902C4.94566 6.99902 2.33398 9.6107 2.33398 12.8324V19.8324C2.33398 23.054 4.94566 25.6657 8.16732 25.6657H19.834C22.9999 25.6657 25.5768 23.1436 25.665 19.999H20.4173C18.3923 19.999 16.7507 18.3574 16.7507 16.3324C16.7507 14.3073 18.3923 12.6657 20.4173 12.6657H25.665C25.5768 9.5211 22.9999 6.99902 19.834 6.99902H8.16732ZM20.4173 14.1657H25.6673V18.499H20.4173C19.2207 18.499 18.2507 17.529 18.2507 16.3324C18.2507 15.1357 19.2207 14.1657 20.4173 14.1657ZM7.00065 19.6657C6.58644 19.6657 6.25065 20.0015 6.25065 20.4157C6.25065 20.8299 6.58644 21.1657 7.00065 21.1657H14.0007C14.4149 21.1657 14.7507 20.8299 14.7507 20.4157C14.7507 20.0015 14.4149 19.6657 14.0007 19.6657H7.00065ZM20.4173 15.5824C20.0031 15.5824 19.6673 15.9181 19.6673 16.3324C19.6673 16.7466 20.0031 17.0824 20.4173 17.0824H20.6507C21.0649 17.0824 21.4007 16.7466 21.4007 16.3324C21.4007 15.9181 21.0649 15.5824 20.6507 15.5824H20.4173Z" fill="white"/>
<path d="M22.7363 5.82462C21.8951 3.50135 19.4379 2.00143 16.8488 2.53448L6.81466 4.60034C4.71887 5.03182 3.02092 6.41342 2.13281 8.23965C3.51819 6.42228 5.70583 5.24943 8.16741 5.24943H19.8341C20.8621 5.24943 21.8423 5.45399 22.7363 5.82462Z" fill="white"/>
</svg>
