<svg width="30" height="30" viewBox="0 0 30 30" fill="none" xmlns="http://www.w3.org/2000/svg">
<g clip-path="url(#clip0_52_42577)">
<path d="M20.3441 1.3125L29.5316 8.34375C30.0941 8.71875 30.1878 9.46875 29.7191 10.0312L16.7816 28.2188C16.5941 28.5 16.2191 28.6875 15.9378 28.6875L11.5316 29.0625C11.2503 29.0625 10.9691 28.9687 10.6878 28.875L0.469076 20.25C-0.0934244 19.875 -0.187174 19.0312 0.281576 18.5625L13.9691 1.5C14.1566 1.21875 14.5316 1.03125 14.9066 1.03125H19.5941C19.8753 1.125 20.1566 1.125 20.3441 1.3125Z" fill="#3A3259"/>
<path d="M14.9062 1.78125L19.4063 2.15625C19.6875 2.15625 19.9688 2.25 20.25 2.4375L29.25 9.28125L25.0313 10.4063L14.9062 1.78125Z" fill="#B4B2C1"/>
<path d="M11.9062 27.1875L16.0313 26.9062L29.1563 9.375H25.5L11.9062 27.1875Z" fill="#93909E"/>
<path d="M3.5625 21.4688L17.5313 3.46875L14.9063 1.78125L0.84375 19.5L3.5625 21.4688Z" fill="#645F75"/>
<path d="M4.875 22.4062L18.8438 4.40625L15.8438 2.4375L2.34375 20.5312L4.875 22.4062Z" fill="#645F75"/>
<path d="M12.4688 26.9062L25.5 9.65625C25.7812 9.28125 25.6875 8.71875 25.2188 8.4375L17.9062 3.75L3.9375 21.75L11.0625 27.0938C11.5312 27.4688 12.0938 27.375 12.4688 26.9062Z" fill="#645F75"/>
<path d="M14.625 8.34375L16.9687 5.34375C18 5.4375 19.125 5.8125 20.25 6.5625C21.5625 7.40625 22.4062 8.53125 22.7812 9.5625L20.625 12.375L14.625 8.34375ZM5.25 20.3438L7.6875 17.25L13.5937 21.4688L11.3438 24.375C10.125 24.4688 8.71875 24 7.5 22.9688C6.375 22.2188 5.625 21.2812 5.25 20.3438Z" fill="#9991B8"/>
<path d="M14.0625 9.18794L14.8125 8.15669C15.9375 6.75044 18.0938 6.46919 19.6875 7.50044C21.2812 8.53169 21.75 10.5942 20.625 12.0004L19.875 13.0317L14.0625 9.18794Z" fill="#292526"/>
<path d="M15.8437 9.46903C16.4062 8.71903 17.5313 8.62528 18.2813 9.18778C19.125 9.75028 19.3125 10.7815 18.75 11.5315L18.2813 12.1878L15.375 10.219L15.8437 9.46903Z" fill="white"/>
<path d="M8.53153 17.1562L7.87528 18C6.93778 19.2188 7.21903 21 8.53153 22.0313C9.84403 22.9688 11.719 22.7813 12.7503 21.5625L13.4065 20.625L8.53153 17.1562Z" fill="#292526"/>
<path d="M8.99991 18.75C8.43741 19.4063 8.62491 20.3438 9.37491 20.9062C10.1249 21.4688 11.0624 21.2813 11.6249 20.625L12.0937 19.9688L9.46866 18.0938L8.99991 18.75Z" fill="white"/>
<path d="M13.6875 22.0312L20.9062 12.4688L14.4375 8.0625L7.125 17.3438L13.6875 22.0312Z" fill="#645F75"/>
<path d="M9.56255 17.4379C9.00005 16.9691 8.81255 16.2191 9.2813 15.6566L13.5938 10.1254C13.9688 9.56289 14.8125 9.46914 15.4688 9.84414L15.9375 10.1254L10.0313 17.8129L9.56255 17.4379Z" fill="#F1493C"/>
<path d="M15.8438 10.2188L18.0938 11.8125C18.6562 12.1875 18.8438 13.0313 18.4688 13.5938L14.1563 19.2188C13.6875 19.7812 12.8438 19.875 12.2813 19.4063L10.0312 17.8125L15.8438 10.2188Z" fill="white"/>
</g>
<defs>
<clipPath id="clip0_52_42577">
<rect width="30" height="30" fill="white"/>
</clipPath>
</defs>
</svg>
