<svg width="24" height="23" viewBox="0 0 24 23" fill="none" xmlns="http://www.w3.org/2000/svg">
<path d="M10.9583 1.33685C11.4265 0.558759 12.5546 0.558759 13.0229 1.33685L15.9685 6.23153C16.1367 6.51106 16.4111 6.71042 16.729 6.78403L22.2943 8.07298C23.1791 8.27788 23.5276 9.35073 22.9323 10.0365L19.1875 14.3505C18.9736 14.5969 18.8688 14.9195 18.897 15.2445L19.3909 20.9358C19.4695 21.8405 18.5568 22.5036 17.7207 22.1493L12.4605 19.9209C12.1601 19.7936 11.821 19.7936 11.5206 19.9209L6.26047 22.1493C5.42429 22.5036 4.51167 21.8405 4.59019 20.9358L5.08412 15.2445C5.11233 14.9195 5.00752 14.5969 4.79365 14.3505L1.04879 10.0365C0.453488 9.35073 0.802077 8.27788 1.68678 8.07298L7.25216 6.78403C7.56999 6.71042 7.84439 6.51106 8.01261 6.23153L10.9583 1.33685Z" fill="white" stroke="white" stroke-width="1.5"/>
</svg>
