<svg width="30" height="30" viewBox="0 0 30 30" fill="none" xmlns="http://www.w3.org/2000/svg">
<g clip-path="url(#clip0_52_45471)">
<path d="M17.1566 23.8125C17.1566 23.8125 16.6878 25.9687 18.0003 27.1875C19.2191 28.4062 22.4066 31.7812 24.6566 27.8438L25.8753 24.4688C25.8753 24.4688 25.9691 23.0625 24.7503 22.7812C23.5316 22.5 22.1253 21.9375 22.1253 21.9375L20.3441 21.6562L19.4066 21.9375L17.1566 23.8125Z" fill="#9A4C18"/>
<path d="M25.5 25.8759L23.1563 24.2822C22.5938 23.9072 21.8437 24.0009 21.375 24.4697L21.0938 24.7509C20.625 25.2197 20.7187 26.0634 21.375 26.4384L24 27.7509C24.5625 28.1259 25.4063 27.9384 25.7813 27.4697C26.1563 26.9072 25.9688 26.2509 25.5 25.8759Z" fill="#4A4A4A"/>
<path d="M18 3.65625L18.375 1.59375L17.8125 0.65625L20.4375 1.6875L22.7812 6.09375L17.625 5.71875L18 3.65625ZM7.6875 8.4375C7.6875 8.4375 6.5625 10.6875 7.6875 13.7812L8.90625 10.9688L7.78125 8.25L7.6875 8.4375ZM9.84375 4.40625C9.84375 4.40625 9.5625 3.1875 8.25 2.15625C8.25 2.15625 10.125 1.78125 12.1875 2.4375L12.4688 3.28125L11.625 5.15625L9.84375 4.40625Z" fill="#9A4C18"/>
<path d="M19.5628 22.1183C24.5318 20.6629 27.4037 15.5354 25.9774 10.6658C24.551 5.79613 19.3666 3.02839 14.3976 4.48383C9.42857 5.93927 6.55666 11.0668 7.983 15.9364C9.40933 20.806 14.5938 23.5738 19.5628 22.1183Z" fill="#9A4C18"/>
<path d="M18.9173 21.4885C23.4888 20.1495 26.0739 15.2373 24.6912 10.5167C23.3085 5.79615 18.4817 3.05486 13.9102 4.39387C9.33874 5.73288 6.75369 10.6451 8.13636 15.3657C9.51903 20.0862 14.3458 22.8275 18.9173 21.4885Z" fill="#E5895B"/>
<path d="M18.278 20.5572C22.5514 19.3055 24.9655 14.7058 23.6702 10.2834C22.3749 5.86093 17.8605 3.29054 13.5872 4.54222C9.31384 5.79391 6.89969 10.3937 8.19504 14.8161C9.49038 19.2385 14.0047 21.8089 18.278 20.5572Z" fill="#FAD395"/>
<path d="M20.1562 8.625C20.1562 8.625 22.3125 8.25 22.9687 7.78125C23.5312 7.3125 24.4687 7.125 24.375 6.46875C24.2812 5.8125 22.5 2.4375 17.9062 2.25L20.9062 4.875L20.1562 8.625Z" fill="#9A4C18"/>
<path d="M8.25 9.84375C8.25 9.84375 7.21875 8.8125 7.5 7.21875C7.875 5.71875 6.5625 3.75 6.5625 3.75L10.5938 4.03125C10.5938 4.03125 12.9375 4.3125 12.9375 5.4375C12.9375 6.5625 12.375 8.34375 12.375 8.53125C12.2812 8.71875 11.8125 9.84375 11.8125 9.84375H8.25Z" fill="#9A4C18"/>
<path d="M8.8125 10.0312C8.8125 10.0312 8.15625 8.34375 8.625 7.6875C9.09375 7.03125 7.96875 4.78125 7.96875 4.78125L12 5.0625C12 5.0625 14.3438 5.34375 14.3438 6.46875C14.3438 7.59375 13.7812 9.375 13.7812 9.5625L13.3125 10.4063L8.8125 10.0312Z" fill="#DB7D1F"/>
<path d="M18.75 8.625C18.75 8.625 20.9062 8.25 21.5625 7.78125C22.125 7.3125 23.0625 7.125 22.9687 6.46875C22.875 5.8125 21.0938 2.4375 16.5 2.25L19.5 4.875L18.75 8.625Z" fill="#DB7D1F"/>
<path d="M11.0625 9.65667C11.0625 9.65667 9.9375 9.65667 10.125 7.59417C10.3125 5.62542 11.8125 2.62542 11.8125 2.62542L8.53125 0.28167C8.53125 0.28167 12.375 -1.12458 16.125 1.21917C16.125 1.21917 20.1562 2.53167 20.5312 3.84417C20.9062 5.15667 22.875 7.50042 21.6562 8.43792C20.4375 9.37542 11.625 10.0317 11.0625 9.65667Z" fill="#9A4C18"/>
<path d="M11.7187 9.84405C11.7187 9.84405 11.1563 8.4378 11.3438 6.9378C11.4375 5.4378 12.75 2.8128 12.75 2.8128L11.0625 0.750303C11.0625 0.750303 13.0312 0.187803 15.9375 1.96905C15.9375 1.96905 19.0312 3.0003 19.3125 4.03155C19.5938 5.0628 19.9687 8.34405 19.0312 9.09405C18.0937 9.84405 12.0937 10.1253 11.7187 9.84405Z" fill="#F49937"/>
<path d="M13.5 8.8125L13.9687 5.25L13.0312 1.59375L15.9375 4.875L16.125 8.90625C16.125 8.8125 14.25 9.375 13.5 8.8125Z" fill="#FDE049"/>
<path d="M22.0312 4.5L22.2188 7.03125L20.1562 6.375L21.375 7.96875L24 6.9375L22.0312 4.5Z" fill="#9A4C18"/>
<path d="M18.8438 7.21875L20.625 7.5L22.125 6L22.2188 7.5L21.2812 8.15625L18.4688 9.28125L18.8438 7.21875ZM10.2187 6.84375L10.6875 8.625L12.375 9.9375H12L9.9375 9.75L9 8.34375L10.2187 6.84375Z" fill="#DB7D1F"/>
<path d="M17.0625 9.84375L18 6.28125L16.875 3.09375L15.6562 1.875C15.6562 1.875 17.9062 2.625 18.375 3C18.8437 3.375 19.6875 4.40625 19.6875 4.78125L19.5 8.625L18.9375 9.1875C19.0312 9.1875 17.7187 9.84375 17.0625 9.84375Z" fill="#DB7D1F"/>
<path d="M10.7813 7.03125L11.25 6.84375C11.25 6.84375 11.0625 8.53125 11.7188 9.5625C11.7188 9.5625 10.3125 9.375 10.2188 7.3125L10.7813 7.03125Z" fill="#9A4C18"/>
<path d="M20.0625 7.78125C20.0625 7.78125 21.8438 6.65625 21.2813 5.15625C21.2813 5.15625 22.0312 6.1875 21.9375 6.9375C21.8438 7.6875 20.5312 7.78125 20.5312 7.78125H20.0625Z" fill="#DB7D1F"/>
<path d="M12 10.4063L13.4063 11.25L18 9L17.7188 7.3125L16.3125 9.5625L12.9375 9.75L11.625 9.28125L12 10.4063Z" fill="#F49937"/>
<path d="M18.7501 9.1875C18.7501 9.1875 19.4063 9.65625 19.7813 10.0312L19.1251 11.3438C19.1251 11.3438 21.2813 10.7812 21.7501 11.625C22.2188 12.4687 22.1251 13.7812 22.1251 13.7812L25.5938 12.4688C25.5938 12.4688 24.4688 8.53125 22.8751 7.21875L21.4688 6.5625L20.3438 7.875L18.7501 9.1875ZM9.65634 9.75L7.78134 13.2188C7.78134 13.2188 7.31259 11.5312 7.96884 9.28125L9.65634 9.75Z" fill="#DB7D1F"/>
<path d="M25.5937 13.4063L22.125 13.7813L21.9375 13.3125L25.6875 11.625L25.5937 13.4063Z" fill="#9A4C18"/>
<path d="M22.875 13.1259L22.0312 11.1571C22.0312 11.1571 20.4375 10.9696 19.4063 11.0634L18.8438 11.2509L20.4375 11.5321L22.0312 13.6884L22.875 13.1259Z" fill="#9A4C18"/>
<path d="M19.9688 11.1562L20.3438 9.75L18.4688 8.71875L16.6875 10.125L18.9375 9.46875V11.25L19.9688 11.1562Z" fill="#9A4C18"/>
<path d="M18.2812 9.28125L13.4062 11.8125L11.8125 10.125L13.5937 10.875L18.375 8.71875L18.2812 9.28125Z" fill="#9A4C18"/>
<path d="M13.5 11.7187L10.875 11.8125L13.0312 10.9687L13.5 11.7187ZM12.5625 10.6875L9.84375 10.875L7.6875 13.3125L9.09375 9.9375L11.8125 10.0312L12.375 10.5937" fill="#9A4C18"/>
<path d="M18.375 8.90625L22.2188 7.875L23.5312 9.46875L21.9375 11.8125L21.1875 11.625L18.375 8.90625ZM9 11.1562L12 11.625L13.2188 10.9688L12.5625 10.5H10.2187L9 11.1562Z" fill="#9A4C18"/>
<path d="M18.4688 9.75L21.8437 8.25L22.7812 9.46875L20.3438 12L18.375 11.7187L18.4688 9.75Z" fill="#FAD395"/>
<path d="M14.7188 20.0625C14.7188 20.0625 19.5938 19.4062 21.6563 17.0625C21.6563 17.0625 21.8438 18.6562 21 19.7812C21 19.6875 18 20.625 14.7188 20.0625Z" fill="white" stroke="#9A4C18" stroke-width="0.389812" stroke-miterlimit="10"/>
<path d="M22.5003 11.7189C22.5003 11.7189 18.0003 11.5314 14.8128 12.3752C14.8128 12.3752 14.4378 12.7502 13.9691 12.8439C13.5003 12.8439 12.9378 12.4689 12.9378 12.4689C9.46908 11.9064 5.34408 12.5627 5.34408 12.5627C5.34408 12.5627 4.87533 12.5627 5.06283 13.2189C5.25033 13.9689 5.81283 13.8752 5.81283 13.8752C5.81283 13.8752 6.37533 16.6877 7.50033 17.3439C8.71908 18.0002 11.5316 18.3752 12.5628 18.3752C13.5941 18.3752 13.9691 18.0002 14.0628 17.2502C14.1566 16.5939 14.0628 15.4689 14.0628 14.8127C14.0628 14.4377 14.1566 14.3439 14.3441 14.3439H14.5316C14.6253 14.3439 14.9066 14.4377 15.0003 14.8127C15.2816 15.4689 15.6566 16.5002 16.1253 17.2502C16.5941 17.9064 17.1566 18.2814 18.1878 18.1877C19.2191 18.0939 21.8441 17.5314 22.7816 16.7814C23.4378 15.9377 22.5941 13.1252 22.5941 13.1252C22.5941 13.1252 23.1566 13.1252 22.9691 12.3752C22.8753 11.6252 22.5003 11.7189 22.5003 11.7189Z" fill="#4A4A4A"/>
<path d="M15.1875 12.6569C15.1875 12.6569 19.7812 11.7194 22.5937 12.0944L22.6875 12.3757C22.6875 12.4694 17.7188 12.3757 15.1875 12.6569Z" fill="#6F6F6F"/>
<path d="M21.6559 12.9382C20.6247 12.8444 17.9059 12.7507 15.3747 13.5944C15.1872 13.6882 15.0934 13.8757 15.1872 14.1569C15.3747 14.8132 15.8434 15.9382 16.4997 16.9694C16.5934 17.1569 16.7809 17.3444 16.9684 17.4382C17.6247 16.5944 19.7809 14.1569 21.8434 13.0319C21.7497 12.9382 21.6559 12.9382 21.6559 12.9382Z" fill="white"/>
<path d="M21.75 12.9375C19.6875 14.1562 17.5312 16.5 16.875 17.3438C17.1562 17.5312 17.3437 17.625 17.625 17.625C18.75 17.5312 21 17.25 22.125 16.2187C22.2188 16.125 22.2188 16.125 22.2188 16.0313C22.3125 15.75 22.4063 14.9062 22.125 13.3125C22.0313 13.125 21.9375 13.0312 21.75 12.9375Z" fill="#CCCCCC"/>
<path d="M6.46875 13.5941C6.28125 13.5941 6.1875 13.7816 6.1875 14.0629C6.5625 15.6566 7.125 16.4066 7.3125 16.6879L7.5 16.8754C7.78125 17.0629 7.96875 17.1566 8.25 17.2504C9.09375 16.3129 10.7813 14.7191 12.4688 13.6879C9.75 13.1254 7.3125 13.5004 6.46875 13.5941Z" fill="white"/>
<path d="M12.75 13.6875C12.6562 13.6875 12.5625 13.6875 12.4688 13.5938C10.7812 14.625 9.1875 16.2187 8.25 17.1562C9.65625 17.7187 11.4375 17.8125 12.375 17.8125C12.8437 17.8125 13.125 17.5313 13.2188 17.0625C13.3125 16.0313 13.2188 14.8125 13.125 14.25C13.2188 13.9687 13.0312 13.6875 12.75 13.6875Z" fill="#CCCCCC"/>
<path d="M17.8122 25.875C17.8122 25.875 17.7184 26.7188 19.7809 27.75L19.4997 25.7812L17.8122 25.875Z" fill="#9A4C18"/>
<path d="M20.0617 23.4375C20.0617 23.4375 18.9367 25.875 19.218 27C19.4055 27.6562 20.718 28.5 21.6555 28.9687C22.4055 29.3437 23.1555 28.9687 23.718 28.4062C24.1867 27.9375 24.3742 26.9062 24.468 26.625L22.7805 24.6562L20.0617 23.4375Z" fill="#9A4C18"/>
<path d="M20.3435 23.25C20.3435 23.25 19.3123 25.4062 19.5935 26.5312C19.781 27.0938 20.8123 27.8438 21.656 28.2188C22.406 28.5938 23.3435 28.5 23.906 27.8438C24.3748 27.375 24.4685 26.7188 24.5623 26.4375L22.781 24.2813L20.3435 23.25Z" fill="#E5895B"/>
<path d="M20.5311 23.625C20.5311 23.625 19.5937 25.5 19.8749 26.4375C20.0624 26.9062 20.8124 27.375 21.4686 27.8438C22.2186 28.2188 23.1561 28.125 23.8124 27.4687C24.0936 27.1875 24.3749 26.8125 24.4686 26.625L22.6874 24.5625L20.5311 23.625Z" fill="#FAD395"/>
<path d="M19.5938 26.0633C19.5001 26.2508 18.9376 26.3446 18.4688 26.4383C18.1876 26.4383 18.0001 26.4383 17.9063 26.2508L17.2501 23.8133C17.1563 23.6258 17.1563 23.4383 17.3438 23.3446C17.6251 22.9696 17.7188 22.6883 18.1876 22.5946C18.6563 22.5008 19.0313 22.7821 19.1251 23.0633C19.4063 24.0946 19.6876 25.8758 19.5938 26.0633Z" fill="#9A4C18"/>
<path d="M19.4998 25.9697C19.4998 26.1572 18.9373 26.2509 18.5623 26.2509C18.3748 26.2509 18.1873 26.2509 18.0935 26.0634L17.7185 23.9072C17.6248 23.8135 17.7185 23.626 17.8123 23.4385C17.9998 23.1572 17.906 22.9697 18.3748 22.8759C18.7498 22.7822 19.1248 22.9697 19.2185 23.2509L19.4998 25.9697Z" fill="#E5895B"/>
<path d="M19.4063 25.9688C19.4063 26.0625 18.9375 26.1563 18.5625 26.25C18.375 26.25 18.1875 26.25 18.1875 26.1562L17.9062 24.375V24.0938C18.0938 23.9063 18 24 18.2812 23.9063C18.5625 23.8125 18.8438 23.9062 18.9375 24.1875C19.2188 24.6562 19.4063 25.7813 19.4063 25.9688Z" fill="#FAD395"/>
<path d="M18.0937 25.875L18 26.0625C18 26.0625 18.4687 26.8125 19.0312 27.0937L20.5312 27.5625L19.6875 26.5312L19.5937 25.7812L19.2187 26.1562C19.125 26.25 18.4688 26.25 18.4688 26.25H18.2812C18.1875 26.1562 18.0937 25.875 18.0937 25.875Z" fill="#E5895B"/>
<path d="M19.4063 25.6875L19.6875 25.7813L19.5937 26.0625H19.5C19.4062 25.9687 19.4063 25.6875 19.4063 25.6875Z" fill="#E5895B"/>
<path d="M18.6562 25.7812L18.2812 26.1562C18.2812 26.1562 18.5625 26.7188 19.4063 26.9063C20.25 27.0938 20.8125 27.375 20.8125 27.375L20.1562 26.1562L19.875 26.0625C19.875 26.0625 19.875 26.25 19.6875 26.25C19.5 26.25 19.3125 25.7812 19.3125 25.7812H18.6562Z" fill="#FAD395"/>
<path d="M18 25.3125C18 25.3125 18.0937 26.25 19.125 26.9062H18.9375C18.9375 26.9062 18 26.3437 18 25.4062V25.3125ZM19.0312 25.0312C19.0312 25.0312 19.125 26.25 20.1562 26.625L20.5312 26.3437C20.5312 26.3437 20.8125 27 21 27.1875C21.2812 27.375 22.125 27.5625 22.2188 27.5625C22.3125 27.5625 22.5 27.4687 22.5 27.4687C22.5 27.4687 23.0625 28.125 23.1562 28.125C23.25 28.125 23.7187 27.8438 23.7187 27.8438L22.5 27.0937L22.3125 27.1875L21.6562 26.9062L21 26.5312L20.7187 25.875L20.1562 25.7812L19.0312 25.0312Z" fill="#E5895B"/>
<path d="M22.5 27.1866C22.3125 27.3741 21.5625 26.9053 21.0937 26.6241C20.8125 26.4366 20.625 26.1553 20.7187 25.8741L21.4687 22.5928C21.4687 22.4053 21.6562 22.3116 21.8437 22.3116C22.2187 22.2178 22.7812 22.4991 23.1562 22.6866C23.5312 22.8741 23.7187 23.3428 23.7187 23.6241L22.5 27.1866Z" fill="#9A4C18"/>
<path d="M15.375 21.375L17.4375 22.6875L16.5 23.9063L14.5312 22.5938L15.375 21.375Z" fill="#4A4A4A"/>
<path d="M22.4063 26.812C22.2188 26.9995 21.6563 26.6245 21.1875 26.2495C20.9063 26.062 20.8125 25.7808 20.9062 25.5933L21.5625 22.7808C21.5625 22.5933 21.6562 22.4995 21.8437 22.4995C22.2187 22.4058 22.6875 22.5933 23.0625 22.7808C23.3438 22.9683 23.625 23.3433 23.5313 23.6245C23.3438 24.562 22.5938 26.6245 22.4063 26.812Z" fill="#E5895B"/>
<path d="M15.75 21L17.7187 22.2188L16.7812 23.4375L14.8125 22.125L15.75 21Z" fill="#838889"/>
<path d="M22.3125 26.7183C22.2187 26.812 21.6563 26.5308 21.2813 26.2495C21.0938 26.062 21 25.8745 21 25.687L21.4687 23.437C21.4687 23.3433 21.5625 23.2495 21.6563 23.2495C21.9375 23.1558 22.3125 23.3433 22.6875 23.5308C22.9688 23.7183 23.1563 23.9995 23.1563 24.187C22.9688 24.937 22.5 26.5308 22.3125 26.7183Z" fill="#FAD395"/>
<path d="M24.1875 27.8428C24 28.0303 23.25 27.5616 22.7812 27.2803C22.5 27.0928 22.3125 26.8116 22.4062 26.5303L23.1562 23.2491C23.1562 23.0616 23.3437 22.9678 23.5312 22.9678C23.9062 22.8741 24.4687 23.1553 24.8437 23.3428C25.2187 23.5303 25.4062 23.9991 25.4062 24.2803L24.1875 27.8428Z" fill="#9A4C18"/>
<path d="M24.0938 27.562C23.9063 27.7495 23.3437 27.3745 22.875 26.9995C22.5937 26.812 22.5 26.5308 22.5938 26.3433L23.25 23.5308C23.25 23.3433 23.3438 23.2495 23.5313 23.2495C23.9063 23.1558 24.375 23.3433 24.75 23.5308C25.0312 23.7183 25.3125 24.0933 25.2187 24.3745C25.0312 25.2183 24.2813 27.2808 24.0938 27.562Z" fill="#E5895B"/>
<path d="M24 27.4683C23.9062 27.562 23.3437 27.2808 22.9687 26.9995C22.7812 26.812 22.6875 26.6245 22.6875 26.437L23.1562 24.187C23.1562 24.0933 23.25 23.9995 23.3437 23.9995C23.625 23.9058 24 24.0933 24.375 24.2808C24.6562 24.4683 24.8437 24.7495 24.8437 24.937L24 27.4683Z" fill="#FAD395"/>
<path d="M20.8125 23.5322L18.4688 21.9384C17.9063 21.5634 17.1562 21.6572 16.6875 22.1259L16.4063 22.4072C15.9375 22.8759 16.0312 23.7197 16.6875 24.0947L19.3125 25.4072C19.875 25.7822 20.7188 25.5947 21.0938 25.1259C21.4688 24.5634 21.375 23.9072 20.8125 23.5322Z" fill="#4A4A4A"/>
<path d="M9.75 25.125C13.685 25.125 16.875 21.935 16.875 18C16.875 14.065 13.685 10.875 9.75 10.875C5.81497 10.875 2.625 14.065 2.625 18C2.625 21.935 5.81497 25.125 9.75 25.125Z" fill="#4A4A4A"/>
<path d="M9.75 24.9375C13.4779 24.9375 16.5 21.9154 16.5 18.1875C16.5 14.4596 13.4779 11.4375 9.75 11.4375C6.02208 11.4375 3 14.4596 3 18.1875C3 21.9154 6.02208 24.9375 9.75 24.9375Z" fill="#D0DBDD"/>
<path d="M9.5625 25.0313C13.1869 25.0313 16.125 22.0931 16.125 18.4688C16.125 14.8444 13.1869 11.9062 9.5625 11.9062C5.93813 11.9062 3 14.8444 3 18.4688C3 22.0931 5.93813 25.0313 9.5625 25.0313Z" fill="#4A4A4A"/>
<path d="M9.5625 24.2812C12.7727 24.2812 15.375 21.6789 15.375 18.4688C15.375 15.2586 12.7727 12.6562 9.5625 12.6562C6.35234 12.6562 3.75 15.2586 3.75 18.4688C3.75 21.6789 6.35234 24.2812 9.5625 24.2812Z" fill="#BCECF7"/>
<path d="M9.65625 23.4375C12.4522 23.4375 14.7187 21.1709 14.7187 18.375C14.7187 15.5791 12.4522 13.3125 9.65625 13.3125C6.86031 13.3125 4.59375 15.5791 4.59375 18.375C4.59375 21.1709 6.86031 23.4375 9.65625 23.4375Z" fill="white"/>
<path d="M10.4063 23.4375C12.5809 23.4375 14.3437 21.6746 14.3437 19.5C14.3437 17.3254 12.5809 15.5625 10.4063 15.5625C8.23163 15.5625 6.46875 17.3254 6.46875 19.5C6.46875 21.6746 8.23163 23.4375 10.4063 23.4375Z" fill="#BCECF7"/>
<path d="M10.5 22.6875C12.2086 22.6875 13.5938 21.3024 13.5938 19.5937C13.5938 17.8851 12.2086 16.5 10.5 16.5C8.79137 16.5 7.40625 17.8851 7.40625 19.5937C7.40625 21.3024 8.79137 22.6875 10.5 22.6875Z" fill="white"/>
<path d="M20.625 25.9678C20.4375 26.1553 19.7812 25.6866 19.3125 25.4053C19.0312 25.2178 18.8437 24.9366 18.9375 24.6553L19.5 22.1241C19.5 21.9366 19.5937 21.8428 19.7812 21.8428C20.1562 21.7491 20.7187 22.0303 21.0937 22.2178C21.4687 22.4053 21.6562 22.7803 21.6562 23.0616C21.4687 24.0928 20.8125 25.7803 20.625 25.9678Z" fill="#9A4C18"/>
<path d="M20.6245 25.312C20.5308 25.4995 19.9683 25.1245 19.5933 24.8433C19.4058 24.6558 19.2183 24.4683 19.312 24.2808L19.687 22.312C19.687 22.2183 19.7808 22.1245 19.9683 22.0308C20.2495 21.937 20.7183 22.1245 20.9995 22.312C21.2808 22.4995 21.4683 22.7808 21.3745 22.9683C21.187 23.812 20.812 25.1245 20.6245 25.312Z" fill="#E5895B"/>
<path d="M20.6245 25.4058C20.5308 25.5933 19.9683 25.2183 19.5933 24.937C19.4058 24.7495 19.2183 24.562 19.312 24.3745L19.687 22.7808C19.687 22.687 19.7808 22.5933 19.9683 22.4995C20.2495 22.4058 20.7183 22.5933 20.9995 22.7808C21.2808 22.9683 21.4683 23.2495 21.3745 23.437C21.187 24.2808 20.812 25.2183 20.6245 25.4058Z" fill="#FAD395"/>
<g opacity="0.5">
<mask id="mask0_52_45471" style="mask-type:luminance" maskUnits="userSpaceOnUse" x="3" y="12" width="13" height="13">
<path d="M9.5625 24.8438C13.0833 24.8438 15.9375 21.9896 15.9375 18.4688C15.9375 14.9479 13.0833 12.0938 9.5625 12.0938C6.04168 12.0938 3.1875 14.9479 3.1875 18.4688C3.1875 21.9896 6.04168 24.8438 9.5625 24.8438Z" fill="white"/>
</mask>
<g mask="url(#mask0_52_45471)">
<path d="M20.625 -3.1875L21.1875 -6.46875L20.25 -8.0625L24.5625 -6.28125L28.3125 0.75L19.9687 0.1875L20.625 -3.1875ZM3.8437 4.59375C3.8437 4.59375 2.06245 8.25 3.93745 13.2188L5.90621 8.625L4.12495 4.21875L3.8437 4.59375Z" fill="#9A4C18"/>
<path d="M23.0025 26.5945C31.0026 24.2512 35.6238 15.9871 33.3242 8.1361C31.0246 0.285064 22.675 -4.17987 14.6749 -1.8366C6.67482 0.50666 2.05365 8.77077 4.35325 16.6218C6.65285 24.4728 15.0024 28.9378 23.0025 26.5945Z" fill="#9A4C18"/>
<path d="M22.0568 25.6793C29.4606 23.5106 33.6456 15.5492 31.4042 7.89697C29.1628 0.244695 21.3438 -4.20069 13.94 -2.03208C6.53617 0.136525 2.35118 8.09793 4.59256 15.7502C6.83394 23.4025 14.6529 27.8479 22.0568 25.6793Z" fill="#E5895B"/>
<path d="M20.9455 24.2127C27.9021 22.1751 31.8426 14.7227 29.7467 7.56731C27.6509 0.411935 20.3124 -3.73682 13.3558 -1.6992C6.39921 0.338417 2.45878 7.79081 4.55462 14.9462C6.65045 22.1016 13.9889 26.2503 20.9455 24.2127Z" fill="#FAD395"/>
<path d="M21.8435 5.71875C21.8435 5.71875 22.8748 6.46875 23.4373 7.03125L22.406 9.1875C22.406 9.1875 25.8748 8.25 26.7185 9.65625C27.5623 11.0625 27.3748 13.125 27.3748 13.125L32.9998 10.9688C32.9998 10.9688 31.2185 4.59375 28.5935 2.4375L26.2498 1.59375L24.3748 3.75L21.8435 5.71875ZM7.03103 6.75L3.93728 12.2813C3.93728 12.2813 3.18728 9.5625 4.31228 5.90625L7.03103 6.75Z" fill="#DB7D1F"/>
<path d="M13.3125 9.84375L9.09375 10.0312L12.4688 8.625L13.3125 9.84375ZM11.7187 8.25L7.3125 8.53125L3.84375 12.5625L6.09375 7.03125L10.5938 7.21875L11.5312 8.15625" fill="#9A4C18"/>
<path d="M15.2812 23.3437C15.2812 23.3437 23.1563 22.2188 26.4375 18.4688C26.4375 18.4688 26.7188 21.0937 25.4063 22.7812C25.4063 22.7812 20.625 24.2812 15.2812 23.3437Z" fill="white" stroke="#9A4C18" stroke-width="0.630937" stroke-miterlimit="10"/>
<path d="M27.7496 9.93795C27.7496 9.93795 20.5309 9.56295 15.3746 10.9692C15.3746 10.9692 14.8121 11.5317 13.9684 11.7192C13.1246 11.6254 12.2809 11.1567 12.2809 11.1567C6.65588 10.2192 -0.000370622 11.1567 -0.000370622 11.1567C-0.000370622 11.1567 -0.750371 11.1567 -0.469121 12.1879C-0.187871 13.3129 0.655879 13.3129 0.655879 13.3129C0.655879 13.3129 1.49963 17.9067 3.37463 18.9379C5.24963 19.9692 9.84338 20.5317 11.5309 20.6254C13.2184 20.6254 13.8746 20.0629 14.0621 18.8442C14.2496 17.7192 14.0621 15.9379 14.0621 14.9067C14.0621 14.3442 14.2496 14.1567 14.5309 14.0629H14.7184C14.9059 14.0629 15.2809 14.2504 15.5621 14.8129C16.0309 15.8442 16.6871 17.6254 17.3434 18.6567C18.0934 19.7817 19.0309 20.3442 20.6246 20.1567C22.2184 19.9692 26.5309 19.0317 28.0309 17.8129C29.4371 16.5942 28.1246 12.0004 28.1246 12.0004C28.1246 12.0004 29.0621 12.0004 28.7809 10.7817C28.4996 9.75045 27.7496 9.93795 27.7496 9.93795Z" fill="#4A4A4A"/>
<path d="M26.4371 11.8128C24.8434 11.7191 20.3434 11.5316 16.3121 12.8441C15.9371 12.9378 15.8434 13.3128 15.9371 13.6878C16.3121 14.7191 16.9684 16.5941 17.9996 18.2816C18.1871 18.5628 18.4684 18.8441 18.7496 19.0316C19.8746 17.7191 23.2496 13.7816 26.7184 11.8128H26.4371Z" fill="white"/>
<path d="M1.96872 12.9378C1.68747 13.0316 1.49997 13.3128 1.59372 13.6878C2.24997 16.2191 3.09372 17.5316 3.37497 18.0003L3.65622 18.2816C4.03122 18.4691 4.49997 18.7503 4.96872 18.8441C6.37497 17.3441 9.09372 14.7191 11.7187 13.0316C7.31247 12.1878 3.37497 12.7503 1.96872 12.9378Z" fill="white"/>
<path d="M12.0937 13.0312C11.9062 13.0312 11.8125 12.9375 11.625 12.9375C8.90625 14.625 6.28125 17.25 4.875 18.75C7.21875 19.5938 10.0312 19.7812 11.625 19.7812C12.375 19.7812 12.9375 19.2188 13.0312 18.4688C13.2187 16.7813 13.0312 14.8125 12.9375 13.875C12.8438 13.5 12.5625 13.125 12.0937 13.0312Z" fill="#CCCCCC"/>
</g>
</g>
</g>
<defs>
<clipPath id="clip0_52_45471">
<rect width="30" height="30" fill="white"/>
</clipPath>
</defs>
</svg>
