<svg width="61" height="475" viewBox="0 0 61 475" fill="none" xmlns="http://www.w3.org/2000/svg">
<path d="M31 106.174C35.3386 106.174 39 106.879 39 109.599C39 112.32 35.3146 113 31 113C26.6624 113 23 112.295 23 109.575C23 106.854 26.6854 106.174 31 106.174ZM31 93C33.9391 93 36.294 95.354 36.294 98.2911C36.294 101.228 33.9391 103.583 31 103.583C28.0619 103.583 25.706 101.228 25.706 98.2911C25.706 95.354 28.0619 93 31 93Z" fill="#E0E0E0"/>
<path d="M40.8099 175.815C40.8819 175.856 40.8963 175.942 40.8992 175.974L40.9 175.987L40.8199 181.152C40.8199 183.212 39.2237 184.892 37.2138 184.995L37.018 185H24.972C22.9366 185 21.2768 183.384 21.175 181.35L21.1701 181.152L21.1001 175.987C21.1001 175.987 21.1001 175.866 21.1901 175.815C21.2701 175.765 21.3702 175.825 21.3802 175.835C23.4012 177.192 25.8324 178.094 28.3837 178.468C28.7439 178.519 29.1041 178.286 29.2041 177.922C29.4105 177.143 30.0477 176.614 30.8273 176.551L30.985 176.544H31.015C31.8654 176.544 32.5758 177.091 32.7959 177.922C32.8959 178.286 33.2561 178.519 33.6163 178.468C36.1676 178.094 38.5988 177.192 40.6198 175.835C40.6198 175.835 40.6398 175.825 40.6598 175.815C40.6999 175.795 40.7599 175.785 40.8099 175.815ZM30.995 177.992C30.619 177.992 30.3018 178.282 30.2516 178.65L30.2446 178.752V180.058C30.2446 180.484 30.5848 180.818 30.995 180.818C31.3802 180.818 31.6897 180.537 31.7386 180.163L31.7454 180.058V178.752C31.7454 178.337 31.4152 177.992 30.995 177.992ZM32.2856 165C33.7864 165 35.017 166.144 35.2071 167.613H37.1881C39.2891 167.613 41 169.344 41 171.471C41 171.471 40.94 172.371 40.92 173.625C40.918 173.724 40.8699 173.821 40.7909 173.88C40.3097 174.235 39.8694 174.529 39.8294 174.549C38.1686 175.663 36.2386 176.447 34.1826 176.837C34.0485 176.863 33.9165 176.793 33.8484 176.674C33.2721 175.675 32.1956 175.025 30.995 175.025C29.8024 175.025 28.7159 175.668 28.1226 176.668C28.0535 176.785 27.9235 176.853 27.7904 176.828C25.7514 176.437 23.8214 175.654 22.1706 174.559L21.2101 173.891C21.1301 173.84 21.08 173.749 21.08 173.648C21.05 173.132 21 171.471 21 171.471C21 169.344 22.7109 167.613 24.8119 167.613H26.7829C26.973 166.144 28.2036 165 29.7044 165H32.2856ZM32.2856 166.519H29.7044C29.034 166.519 28.4637 166.985 28.3037 167.613H33.6863C33.5263 166.985 32.956 166.519 32.2856 166.519Z" fill="#E0E0E0"/>
<path d="M31.7171 237C32.4734 237 33.1581 237.42 33.5362 238.04C33.7202 238.34 33.8428 238.71 33.8121 239.1C33.7917 239.4 33.8837 239.7 34.0472 239.98C34.5684 240.83 35.7232 241.15 36.6225 240.67C37.6343 240.09 38.9117 240.44 39.4942 241.43L40.1789 242.61C40.7717 243.6 40.4447 244.87 39.4227 245.44C38.554 245.95 38.2474 247.08 38.7686 247.94C38.9322 248.21 39.1161 248.44 39.4023 248.58C39.7599 248.77 40.0359 249.07 40.23 249.37C40.6082 249.99 40.5775 250.75 40.2096 251.42L39.4942 252.62C39.1161 253.26 38.411 253.66 37.6854 253.66C37.3277 253.66 36.9291 253.56 36.6021 253.36C36.3364 253.19 36.0298 253.13 35.7028 253.13C34.691 253.13 33.8428 253.96 33.8121 254.95C33.8121 256.1 32.8719 257 31.6967 257H30.3068C29.1214 257 28.1812 256.1 28.1812 254.95C28.1607 253.96 27.3125 253.13 26.3008 253.13C25.9635 253.13 25.6569 253.19 25.4014 253.36C25.0744 253.56 24.6656 253.66 24.3182 253.66C23.5824 253.66 22.8772 253.26 22.4991 252.62L21.7939 251.42C21.4158 250.77 21.3954 249.99 21.7735 249.37C21.937 249.07 22.2436 248.77 22.5911 248.58C22.8772 248.44 23.0612 248.21 23.2349 247.94C23.7459 247.08 23.4393 245.95 22.5706 245.44C21.5589 244.87 21.2319 243.6 21.8144 242.61L22.4991 241.43C23.0918 240.44 24.359 240.09 25.381 240.67C26.2701 241.15 27.4249 240.83 27.9461 239.98C28.1096 239.7 28.2016 239.4 28.1812 239.1C28.1607 238.71 28.2731 238.34 28.4673 238.04C28.8454 237.42 29.5301 237.02 30.2762 237H31.7171ZM31.012 244.18C29.4075 244.18 28.1096 245.44 28.1096 247.01C28.1096 248.58 29.4075 249.83 31.012 249.83C32.6165 249.83 33.8837 248.58 33.8837 247.01C33.8837 245.44 32.6165 244.18 31.012 244.18Z" fill="#E0E0E0"/>
<path d="M35.9394 310C37.2804 310 38.5704 310.53 39.5194 311.481C40.4694 312.43 41.0004 313.71 41.0004 315.05V322.95C41.0004 325.74 38.7304 328 35.9394 328H26.0604C23.2694 328 21.0004 325.74 21.0004 322.95V315.05C21.0004 312.26 23.2594 310 26.0604 310H35.9394ZM37.0704 315.2C36.8604 315.189 36.6604 315.26 36.5094 315.4L32.0004 319C31.4204 319.481 30.5894 319.481 30.0004 319L25.5004 315.4C25.1894 315.17 24.7594 315.2 24.5004 315.47C24.2304 315.74 24.2004 316.17 24.4294 316.47L24.5604 316.6L29.1104 320.15C29.6704 320.59 30.3494 320.83 31.0604 320.83C31.7694 320.83 32.4604 320.59 33.0194 320.15L37.5304 316.54L37.6104 316.46C37.8494 316.17 37.8494 315.75 37.5994 315.46C37.4604 315.311 37.2694 315.22 37.0704 315.2Z" fill="#E0E0E0"/>
<path d="M29.9561 383.96C30.4462 383.868 30.9376 384.112 31.1515 384.555C31.2047 384.635 31.2473 384.722 31.2782 384.812C31.4141 386.909 31.559 388.971 31.6948 391.032C31.6917 391.246 31.7254 391.459 31.7944 391.663C31.9569 392.063 32.3614 392.317 32.7997 392.294L39.4558 391.867L39.5011 391.885L39.6226 391.894C39.8632 391.924 40.0875 392.034 40.2579 392.207C40.4566 392.409 40.5655 392.679 40.5608 392.96C40.2984 396.782 37.4962 399.976 33.6828 400.798C29.8694 401.621 25.9602 399.875 24.0878 396.514C23.5372 395.546 23.1893 394.479 23.0645 393.378C23.016 393.051 22.9948 392.721 23.0011 392.391C23.0137 388.327 25.9073 384.819 29.9561 383.96ZM33.9135 381.001C38.4843 381.138 42.3044 384.456 42.9967 388.891C43.0011 388.917 43.0011 388.944 42.9967 388.971L42.9955 389.096C42.9804 389.261 42.9125 389.419 42.7996 389.546C42.6586 389.704 42.459 389.801 42.2451 389.815L34.5656 390.321L34.4391 390.324C34.2294 390.313 34.0284 390.232 33.8718 390.091C33.6839 389.922 33.5774 389.683 33.5785 389.433L33.0623 381.889V381.765C33.0717 381.553 33.1667 381.353 33.3264 381.21C33.4861 381.066 33.6973 380.991 33.9135 381.001Z" fill="#E0E0E0"/>
<path d="M31.02 453C36.7 453 41 457.657 41 462.985C41 469.164 35.96 473 31 473C29.36 473 27.54 472.559 26.08 471.698C25.57 471.388 25.14 471.157 24.59 471.338L22.57 471.938C22.06 472.099 21.6 471.698 21.75 471.157L22.42 468.914C22.53 468.603 22.51 468.273 22.35 468.013C21.49 466.43 21 464.698 21 463.015C21 457.747 25.21 453 31.02 453ZM35.59 461.743C34.88 461.743 34.31 462.314 34.31 463.025C34.31 463.726 34.88 464.307 35.59 464.307C36.3 464.307 36.87 463.726 36.87 463.025C36.87 462.314 36.3 461.743 35.59 461.743ZM30.98 461.743C30.28 461.733 29.7 462.314 29.7 463.015C29.7 463.726 30.27 464.297 30.98 464.307C31.69 464.307 32.26 463.726 32.26 463.025C32.26 462.314 31.69 461.743 30.98 461.743ZM26.37 461.743C25.66 461.743 25.09 462.314 25.09 463.025C25.09 463.726 25.67 464.307 26.37 464.307C27.08 464.297 27.65 463.726 27.65 463.025C27.65 462.314 27.08 461.743 26.37 461.743Z" fill="#E0E0E0"/>
<circle cx="30.5" cy="30.5" r="30.5" fill="#4F4F4F"/>
<path d="M26.9199 32.4697C28.3299 32.4697 29.4599 33.6107 29.4599 35.0307V38.4397C29.4599 39.8497 28.3299 40.9997 26.9199 40.9997H23.5399C22.1399 40.9997 20.9999 39.8497 20.9999 38.4397V35.0307C20.9999 33.6107 22.1399 32.4697 23.5399 32.4697H26.9199ZM38.46 32.4697C39.86 32.4697 41 33.6107 41 35.0307V38.4397C41 39.8497 39.86 40.9997 38.46 40.9997H35.08C33.67 40.9997 32.54 39.8497 32.54 38.4397V35.0307C32.54 33.6107 33.67 32.4697 35.08 32.4697H38.46ZM26.9199 21C28.3299 21 29.4599 22.15 29.4599 23.561V26.97C29.4599 28.39 28.3299 29.53 26.9199 29.53H23.5399C22.1399 29.53 20.9999 28.39 20.9999 26.97V23.561C20.9999 22.15 22.1399 21 23.5399 21H26.9199ZM38.46 21C39.86 21 41 22.15 41 23.561V26.97C41 28.39 39.86 29.53 38.46 29.53H35.08C33.67 29.53 32.54 28.39 32.54 26.97V23.561C32.54 22.15 33.67 21 35.08 21H38.46Z" fill="white"/>
</svg>
