<svg width="350" height="78" viewBox="0 0 350 78" fill="none" xmlns="http://www.w3.org/2000/svg">
<g clip-path="url(#clip0_52_33747)">
<mask id="mask0_52_33747" style="mask-type:luminance" maskUnits="userSpaceOnUse" x="0" y="0" width="350" height="83">
<path d="M349.999 0H0.00146484V82.9891H349.999V0Z" fill="white"/>
</mask>
<g mask="url(#mask0_52_33747)">
<path d="M40.0708 24.4293C40.0473 21.311 39.1011 18.2695 37.3516 15.6882C35.6021 13.1068 33.1275 11.1012 30.2399 9.92419C27.3522 8.74714 24.1807 8.45133 21.1252 9.07405C18.0697 9.69678 15.2669 11.2102 13.0702 13.4234C10.8735 15.6367 9.38117 18.4508 8.78141 21.5109C8.18164 24.571 8.50126 27.7402 9.69996 30.6189C10.8987 33.4977 12.9228 35.9571 15.5172 37.6872C18.1116 39.4173 21.1601 40.3405 24.2784 40.3406C28.4768 40.3284 32.4986 38.6497 35.4598 35.6736C38.4211 32.6974 40.0796 28.6673 40.0708 24.4689M74.6843 25.0575C74.6777 23.8268 74.3068 22.6257 73.6184 21.6056C72.9299 20.5855 71.9547 19.7921 70.8158 19.3257C69.6769 18.8593 68.4254 18.7406 67.2192 18.9847C66.0129 19.2288 64.906 19.8247 64.0381 20.6972C63.1701 21.5698 62.5801 22.6798 62.3424 23.8873C62.1047 25.0949 62.23 26.3457 62.7024 27.4821C63.1749 28.6185 63.9734 29.5895 64.9971 30.2726C66.0208 30.9556 67.224 31.3202 68.4546 31.3202C70.111 31.315 71.6975 30.6524 72.8656 29.4781C74.0336 28.3038 74.6878 26.7138 74.6843 25.0575ZM89.6896 39.6066C91.2966 39.3288 93.2475 33.6216 90.1989 33.9126C68.7126 35.4402 68.1306 35.3939 46.7567 33.9126C43.7014 33.6216 45.6523 39.3288 47.2593 39.6066C56.8485 41.5178 59.2755 41.9609 59.2755 44.6061C58.9779 49.0304 58.8787 53.0578 52.8607 70.477C51.4389 73.7373 57.5825 72.7519 58.3166 71.0854C62.1721 63.6323 64.5991 57.7267 67.1452 54.8302C67.3109 54.6428 67.5145 54.4928 67.7425 54.3901C67.9705 54.2873 68.2178 54.2342 68.4679 54.2342C68.718 54.2342 68.9652 54.2873 69.1932 54.3901C69.4212 54.4928 69.6248 54.6428 69.7905 54.8302C72.33 57.7267 74.757 63.6323 78.6125 71.0854C79.3598 72.7519 85.4969 73.7307 84.075 70.477C78.0636 53.0578 77.9578 49.0304 77.6536 44.6061C77.6536 41.9609 80.0807 41.5178 89.6698 39.6066M106.507 31.3863V66.3834C106.507 71.879 102.691 77.2291 95.8399 77.2291H34.2578C27.056 77.2291 24.2388 70.8804 24.2388 66.3834V53.653C24.2489 52.3573 23.7832 51.1028 22.9299 50.1277C22.0766 49.1525 20.8951 48.5244 19.6095 48.3624C13.7096 47.1408 8.46906 43.7826 4.89423 38.9327C1.31939 34.0828 -0.33766 28.0832 0.241307 22.0861C0.820273 16.0889 3.59444 10.5171 8.03103 6.44064C12.4676 2.36418 18.2538 0.0704886 24.2784 7.51886e-05C27.9076 -0.00899736 31.4918 0.803088 34.7627 2.37552C38.0335 3.94796 40.9062 6.23999 43.1657 9.08C45.3878 11.8642 47.795 11.7253 49.8319 10.5878C55.4068 7.42009 59.8575 4.88723 60.4923 4.51028C63.4154 2.82391 66.2062 2.2684 69.8037 4.38463C71.4769 5.37 98.3265 20.9176 102.804 23.5629C106.408 25.6858 106.527 27.9739 106.527 31.307" fill="#004F9F"/>
<path d="M349.079 35.0831L338.783 38.1318C337.89 33.853 334.815 30.6655 329.16 30.6655C324.531 30.6655 321.152 33.5422 321.152 36.7232C321.152 39.3684 322.831 41.65 326.832 42.4105L334.471 43.8125C344.629 45.6907 349.999 52.1915 349.999 59.962C349.999 68.4467 342.817 77.0373 329.848 77.0373C316.708 77.0373 309.592 70.3645 307.839 60.0281L318.454 57.5349C319.346 63.4868 324.2 66.8331 330.225 66.8331C335.463 66.8331 338.472 64.0291 338.472 60.6431C338.472 57.9119 336.078 55.6502 332.242 54.8963L324.472 53.3554C315.616 51.583 309.863 45.9287 309.863 37.5763C309.863 27.7755 318.758 20.501 329.26 20.501C341.924 20.501 348.12 28.0665 349.099 35.1162" fill="#004F9F"/>
<path d="M290.731 48.7323C290.776 46.4866 290.372 44.2546 289.543 42.1669C288.714 40.0791 287.477 38.1777 285.905 36.5738C284.333 34.9698 282.456 33.6957 280.385 32.8259C278.314 31.956 276.09 31.508 273.844 31.508C271.598 31.508 269.375 31.956 267.304 32.8259C265.233 33.6957 263.356 34.9698 261.784 36.5738C260.211 38.1777 258.974 40.0791 258.146 42.1669C257.317 44.2546 256.913 46.4866 256.957 48.7323C256.957 58.2157 264.377 66.0523 273.861 66.0523C283.344 66.0523 290.731 58.1958 290.731 48.7323ZM273.967 20.5006C289.772 20.5006 302.337 32.821 302.337 48.6001C302.342 52.3523 301.604 56.0683 300.165 59.5339C298.727 62.9995 296.617 66.1463 293.957 68.7927C291.297 71.4392 288.14 73.533 284.667 74.9536C281.194 76.3742 277.474 77.0935 273.722 77.0699C257.916 77.0368 245.351 64.6834 245.351 48.8381C245.364 45.0971 246.115 41.3953 247.561 37.945C249.007 34.4946 251.12 31.3635 253.778 28.7311C256.437 26.0987 259.588 24.0166 263.052 22.6043C266.517 21.1919 270.226 20.477 273.967 20.5006Z" fill="#004F9F"/>
<path d="M225.75 37.6164C225.75 33.0666 221.603 31.7968 217.774 31.7968H207.656V43.6014H217.027C221.068 43.6014 225.756 42.5433 225.756 37.6164M219.56 65.6763C223.633 65.6763 228.157 64.519 228.157 59.5855C228.157 54.5198 223.402 53.4551 219.189 53.4551H207.656V65.6763H219.56ZM229.175 47.6751C235.683 50.1419 239.234 53.8056 239.234 61.0536C239.234 72.2167 229.387 76.2177 219.699 76.2177H196.592V21.3281H219.348C228.177 21.3281 236.866 26.0235 236.866 35.8441C236.866 41.3132 233.924 45.1026 229.169 47.5825L229.175 47.6751Z" fill="#004F9F"/>
<path d="M175.582 48.7328C175.626 46.487 175.222 44.255 174.394 42.1673C173.565 40.0796 172.328 38.1781 170.756 36.5742C169.183 34.9703 167.307 33.6961 165.236 32.8263C163.165 31.9565 160.941 31.5084 158.695 31.5084C156.449 31.5084 154.225 31.9565 152.154 32.8263C150.083 33.6961 148.207 34.9703 146.634 36.5742C145.062 38.1781 143.825 40.0796 142.996 42.1673C142.168 44.255 141.764 46.487 141.808 48.7328C141.808 58.2161 149.228 66.0527 158.705 66.0527C168.182 66.0527 175.582 58.1963 175.582 48.7328ZM158.817 20.501C174.623 20.501 187.155 32.7883 187.155 48.5674C187.159 52.3191 186.421 56.0346 184.984 59.4998C183.546 62.9649 181.436 66.1114 178.777 68.7577C176.118 71.4041 172.961 73.4981 169.489 74.9191C166.017 76.3401 162.298 77.06 158.546 77.0373C142.741 77.0373 130.143 64.6838 130.143 48.8386C130.156 45.0924 130.909 41.3858 132.358 37.9315C133.808 34.4773 135.926 31.3436 138.591 28.7103C141.255 26.0771 144.414 23.9963 147.885 22.5875C151.356 21.1787 155.071 20.4696 158.817 20.501Z" fill="#004F9F"/>
<path d="M90.1988 33.8462C93.2475 33.5486 91.2966 39.2558 89.6962 39.5336C80.1004 41.4448 77.6734 41.8879 77.6734 44.5331C77.9776 48.9574 78.0834 52.9848 84.0948 70.404C85.5166 73.6643 79.3796 72.6789 78.6323 71.0124C74.7768 63.5593 72.3498 57.6537 69.8103 54.7572C69.6446 54.5698 69.441 54.4198 69.213 54.3171C68.985 54.2143 68.7377 54.1612 68.4876 54.1612C68.2375 54.1612 67.9903 54.2143 67.7623 54.3171C67.5343 54.4198 67.3307 54.5698 67.165 54.7572C64.6057 57.6537 62.1654 63.5593 58.3165 71.0124C57.5825 72.6789 51.4388 73.6577 52.8606 70.404C58.8588 52.9848 58.9779 48.9375 59.2754 44.5331C59.2754 41.8879 56.8484 41.4448 47.2593 39.5336C45.6589 39.2558 43.7014 33.5486 46.7567 33.8462C68.1305 35.3209 68.7125 35.3672 90.1988 33.8462Z" fill="white"/>
<path d="M68.4548 18.755C69.6948 18.7484 70.9089 19.1102 71.9431 19.7943C72.9773 20.4785 73.7852 21.4543 74.2643 22.598C74.7433 23.7418 74.8721 25.0021 74.6342 26.2191C74.3963 27.4361 73.8024 28.5551 72.9279 29.4343C72.0534 30.3134 70.9376 30.9132 69.7218 31.1575C68.5061 31.4019 67.2452 31.2798 66.0989 30.8068C64.9526 30.3337 63.9725 29.5311 63.2829 28.5005C62.5933 27.4699 62.2251 26.2577 62.2251 25.0177C62.2216 23.3614 62.8758 21.7714 64.0438 20.5971C65.2119 19.4228 66.7984 18.7602 68.4548 18.755Z" fill="white"/>
<path d="M24.2785 8.53731C27.4209 8.5216 30.4973 9.43908 33.1178 11.1735C35.7383 12.9079 37.785 15.3812 38.9984 18.28C40.2119 21.1787 40.5376 24.3725 39.9341 27.4565C39.3307 30.5405 37.8254 33.376 35.6089 35.6036C33.3924 37.8313 30.5645 39.3508 27.4835 39.9697C24.4026 40.5885 21.2072 40.2789 18.3024 39.08C15.3976 37.881 12.9141 35.8468 11.1666 33.235C9.41905 30.6233 8.48616 27.5515 8.48612 24.409C8.47734 20.2106 10.1358 16.1805 13.0971 13.2044C16.0583 10.2282 20.0801 8.54957 24.2785 8.53731Z" fill="#30A879"/>
</g>
</g>
<defs>
<clipPath id="clip0_52_33747">
<rect width="349.997" height="77.1562" fill="white" transform="translate(0.00146484)"/>
</clipPath>
</defs>
</svg>
