<svg width="15" height="17" viewBox="0 0 15 17" fill="none" xmlns="http://www.w3.org/2000/svg">
<path d="M13.7833 3.78333L11.225 1.225C10.4417 0.441667 9.38333 0 8.275 0H4.16667C1.66667 0 0 1.66667 0 4.16667V12.5C0 15 1.66667 16.6667 4.16667 16.6667H10.8333C13.3333 16.6667 15 15 15 12.5V6.725C15 5.61667 14.5583 4.55833 13.7833 3.78333ZM7.08333 13.25C7.08333 13.5261 6.85948 13.75 6.58333 13.75H5.83333C4.45833 13.75 3.33333 12.625 3.33333 11.25V10.9167C3.33333 10.6405 3.55719 10.4167 3.83333 10.4167H6.875C6.99167 10.4167 7.08333 10.5083 7.08333 10.625V13.25ZM7.08333 9.375C7.08333 9.49167 6.99167 9.58333 6.875 9.58333H3.83333C3.55719 9.58333 3.33333 9.35948 3.33333 9.08333V8.75C3.33333 7.375 4.45833 6.25 5.83333 6.25H6.58333C6.85948 6.25 7.08333 6.47386 7.08333 6.75V9.375ZM11.6667 11.25C11.6667 12.625 10.5417 13.75 9.16667 13.75H8.41667C8.14052 13.75 7.91667 13.5261 7.91667 13.25V10.625C7.91667 10.5083 8.00833 10.4167 8.125 10.4167H11.1667C11.4428 10.4167 11.6667 10.6405 11.6667 10.9167V11.25ZM11.6667 9.08333C11.6667 9.35948 11.4428 9.58333 11.1667 9.58333H8.125C8.00833 9.58333 7.91667 9.49167 7.91667 9.375V6.75C7.91667 6.47386 8.14052 6.25 8.41667 6.25H9.16667C10.5417 6.25 11.6667 7.375 11.6667 8.75V9.08333Z" fill="#777778"/>
</svg>
