<svg width="16" height="16" viewBox="0 0 16 16" fill="none" xmlns="http://www.w3.org/2000/svg">
<path fill-rule="evenodd" clip-rule="evenodd" d="M8 13.3327C8.38087 13.3327 8.74353 13.1698 8.99653 12.8851L8.99833 12.8832L9.00107 12.88L9.00947 12.8706L9.03727 12.8386C9.06053 12.8118 9.09313 12.7739 9.13373 12.7258C9.21473 12.6297 9.32807 12.4926 9.46293 12.3219C9.73153 11.9819 10.0912 11.5015 10.4532 10.9413C11.1295 9.89462 12 8.29355 12 6.74555C12 4.5297 10.2458 2.66602 8 2.66602C5.75419 2.66602 4 4.5297 4 6.74555C4 8.29355 4.87049 9.89462 5.54679 10.9413C5.90881 11.5015 6.2685 11.9819 6.53708 12.3219C6.67193 12.4926 6.78527 12.6297 6.86627 12.7258C6.90687 12.7739 6.93947 12.8118 6.96273 12.8386L6.99053 12.8706L6.99893 12.88L7.00167 12.8832L7.00347 12.8851C7.25647 13.1698 7.61913 13.3327 8 13.3327ZM8 7.99935C8.7364 7.99935 9.33333 7.40242 9.33333 6.66602C9.33333 5.92964 8.7364 5.33268 8 5.33268C7.2636 5.33268 6.66667 5.92964 6.66667 6.66602C6.66667 7.40242 7.2636 7.99935 8 7.99935Z" fill="#494949"/>
</svg>
