<svg width="20" height="20" viewBox="0 0 20 20" fill="none" xmlns="http://www.w3.org/2000/svg">
<path d="M7.50039 3.12588C7.66605 3.12813 7.82488 3.19222 7.9457 3.30557L14.1957 9.55557C14.3131 9.67406 14.3789 9.8341 14.3789 10.0009C14.3789 10.1677 14.3131 10.3277 14.1957 10.4462L7.9457 16.6962C7.82427 16.7959 7.6701 16.8468 7.5132 16.8391C7.35629 16.8314 7.20786 16.7656 7.09677 16.6545C6.98569 16.5434 6.91989 16.395 6.91219 16.2381C6.90448 16.0812 6.95541 15.927 7.05508 15.8056L12.8676 10.0009L7.05508 4.19619C6.93771 4.07769 6.87187 3.91766 6.87187 3.75088C6.87187 3.5841 6.93771 3.42406 7.05508 3.30557C7.1759 3.19222 7.33474 3.12813 7.50039 3.12588Z" fill="white"/>
</svg>
