<svg width="14" height="14" viewBox="0 0 14 14" fill="none" xmlns="http://www.w3.org/2000/svg">
<path d="M2.0999 4.19979C0.937954 4.19979 0 5.13775 0 6.29969V11.8994C0 13.0614 0.937954 13.9993 2.0999 13.9993H3.14985C3.91981 13.9993 4.54978 13.3693 4.54978 12.5994V5.59973C4.54978 4.82976 3.91981 4.19979 3.14985 4.19979H2.0999ZM2.79986 10.4995C2.79986 10.7865 2.56187 11.0245 2.27489 11.0245C1.9879 11.0245 1.74991 10.7865 1.74991 10.4995V7.69962C1.74991 7.41264 1.9879 7.17465 2.27489 7.17465C2.56187 7.17465 2.79986 7.41264 2.79986 7.69962V10.4995Z" fill="#192252"/>
<path d="M11.8996 0H7.69979C6.53785 0 5.5999 0.937954 5.5999 2.0999V11.8994C5.5999 13.0614 6.53785 13.9993 7.69979 13.9993H8.04978C8.24577 13.9993 8.39976 13.8453 8.39976 13.6493V11.1995C8.39976 10.8145 8.71475 10.4995 9.09973 10.4995H10.4997C10.8846 10.4995 11.1996 10.8145 11.1996 11.1995V13.6493C11.1996 13.8453 11.3536 13.9993 11.5496 13.9993H11.8996C13.0615 13.9993 13.9995 13.0614 13.9995 11.8994V2.0999C13.9995 0.937954 13.0615 0 11.8996 0ZM8.92474 7.69962C8.92474 7.98661 8.68675 8.2246 8.39976 8.2246C8.11277 8.2246 7.87479 7.98661 7.87479 7.69962V4.19979C7.87479 3.91281 8.11277 3.67482 8.39976 3.67482C8.68675 3.67482 8.92474 3.91281 8.92474 4.19979V7.69962ZM11.7246 7.69962C11.7246 7.98661 11.4866 8.2246 11.1996 8.2246C10.9126 8.2246 10.6746 7.98661 10.6746 7.69962V4.19979C10.6746 3.91281 10.9126 3.67482 11.1996 3.67482C11.4866 3.67482 11.7246 3.91281 11.7246 4.19979V7.69962Z" fill="#192252"/>
</svg>
