<svg width="8" height="5" viewBox="0 0 8 5" fill="none" xmlns="http://www.w3.org/2000/svg">
<path d="M0.415048 0.190369C0.187548 0.430994 0.202548 0.882244 0.415048 1.12787L0.810048 1.58474L2.52255 3.56724L3.59567 4.80912C3.81505 5.06349 4.18567 5.06349 4.40505 4.80912L4.80067 4.35162L6.51317 2.36912L7.5863 1.12724C7.81317 0.866619 7.7963 0.455369 7.5863 0.190369C7.37817 -0.0721309 6.98817 -0.054631 6.7763 0.190369L6.3813 0.647869L4.6688 2.63037C4.3113 3.04287 3.95255 3.45912 3.59567 3.87224H4.40505L4.01005 3.41474L2.29755 1.43224L1.22442 0.190369C0.999423 -0.070256 0.643798 -0.052756 0.415048 0.190369Z" fill="white"/>
</svg>
