<svg width="25" height="22" viewBox="0 0 25 22" fill="none" xmlns="http://www.w3.org/2000/svg">
<path fill-rule="evenodd" clip-rule="evenodd" d="M5.02778 9.24509C7.02778 12.6038 10.25 15.3571 14.1806 17.0661L17.2361 14.4552C17.625 14.1229 18.1667 14.0279 18.6528 14.1584C20.2083 14.5975 21.875 14.8349 23.6111 14.8349C24.3782 14.8349 25 15.3662 25 16.0217V20.1755C25 20.831 24.3782 21.3623 23.6111 21.3623C10.5711 21.3623 0 12.3294 0 1.1868C0 0.872035 0.146329 0.570171 0.406796 0.347604C0.667263 0.125037 1.02053 0 1.38889 0H6.25C7.01706 0 7.63889 0.531346 7.63889 1.1868C7.63889 2.67029 7.91667 4.09444 8.43056 5.42365C8.58333 5.83903 8.47222 6.30188 8.08333 6.63418L5.02778 9.24509Z" fill="#8F92A1"/>
<mask id="mask0_4_4833" style="mask-type:alpha" maskUnits="userSpaceOnUse" x="0" y="0" width="25" height="22">
<path fill-rule="evenodd" clip-rule="evenodd" d="M5.02778 9.24509C7.02778 12.6038 10.25 15.3571 14.1806 17.0661L17.2361 14.4552C17.625 14.1229 18.1667 14.0279 18.6528 14.1584C20.2083 14.5975 21.875 14.8349 23.6111 14.8349C24.3782 14.8349 25 15.3662 25 16.0217V20.1755C25 20.831 24.3782 21.3623 23.6111 21.3623C10.5711 21.3623 0 12.3294 0 1.1868C0 0.872035 0.146329 0.570171 0.406796 0.347604C0.667263 0.125037 1.02053 0 1.38889 0H6.25C7.01706 0 7.63889 0.531346 7.63889 1.1868C7.63889 2.67029 7.91667 4.09444 8.43056 5.42365C8.58333 5.83903 8.47222 6.30188 8.08333 6.63418L5.02778 9.24509Z" fill="#8F92A1"/>
</mask>
<g mask="url(#mask0_4_4833)">
</g>
</svg>
