<svg width="27" height="26" viewBox="0 0 27 26" fill="none" xmlns="http://www.w3.org/2000/svg">
<path d="M26.9294 9.77643C26.7517 9.22971 26.2667 8.84264 25.6953 8.79094L17.9012 8.08334L14.8209 0.871781C14.5935 0.341956 14.076 0 13.5001 0C12.9241 0 12.4064 0.341956 12.1804 0.871781L9.10016 8.08334L1.3048 8.79094C0.733367 8.84367 0.249479 9.23074 0.0706734 9.77643C-0.107102 10.3231 0.0570776 10.9228 0.48926 11.3018L6.38099 16.468L4.64382 24.1192C4.51671 24.6818 4.73507 25.2635 5.20186 25.6009C5.45277 25.7832 5.74755 25.8743 6.04336 25.8743C6.29756 25.8743 6.55197 25.8067 6.77918 25.6708L13.5001 21.6522L20.2197 25.6708C20.7126 25.9654 21.3325 25.9384 21.7982 25.6009C22.265 25.2635 22.4834 24.6818 22.3563 24.1192L20.6191 16.468L26.5108 11.3018C26.9428 10.9228 27.1072 10.3244 26.9294 9.77643Z" fill="#F6E3FF"/>
</svg>
