<svg width="30" height="30" viewBox="0 0 30 30" fill="none" xmlns="http://www.w3.org/2000/svg">
<g clip-path="url(#clip0_52_78829)">
<path d="M16.8754 4.96875L17.6254 7.3125L18.7504 7.96875C18.7504 7.96875 18.5629 5.25 17.0629 4.59375L16.8754 4.96875ZM7.59414 5.15625C7.59414 5.15625 5.62539 9.5625 7.87539 11.3438L8.34414 8.0625L7.59414 5.15625Z" fill="#663021"/>
<path d="M22.5943 4.5007C21.563 2.43819 19.0318 0.375695 15.938 0.188195C15.0005 0.000694878 13.688 0.0944449 12.0943 0.563195C6.37551 2.06319 7.31302 7.96945 7.31302 7.96945C8.34427 6.46945 10.4068 5.43819 13.8755 5.53194C15.3755 5.53194 16.5943 5.0632 17.3443 4.5007C18.2818 5.71944 19.5943 8.15695 19.4068 12.2819C19.4068 12.2819 19.5943 13.9694 22.1255 14.0632C22.1255 14.0632 21.938 12.8444 22.313 12.0007C22.7818 11.1569 23.7193 6.65694 22.5943 4.5007Z" fill="#663021"/>
<path d="M24.843 9.75C24.843 11.3437 23.5305 12.5625 21.9367 12.5625C20.343 12.5625 19.1242 11.3438 19.218 9.84375C19.218 8.34375 20.4367 7.125 22.0305 7.03125C23.5305 7.03125 24.843 8.25 24.843 9.75Z" fill="#663021"/>
<path d="M26.625 15.3759C26.625 18.1884 24.4687 20.3446 21.9375 20.1571C19.5 19.9696 17.625 17.8134 17.625 15.1884C17.625 12.5634 19.5938 10.5009 22.0312 10.5009C24.4688 10.4071 26.625 12.6571 26.625 15.3759ZM11.625 13.8759C11.625 15.6571 10.2187 17.1571 8.625 17.0634C7.125 16.9696 5.90625 15.5634 5.90625 13.7821C6 12.0946 7.21875 10.6884 8.71875 10.5946C10.4062 10.5946 11.7187 12.0946 11.625 13.8759Z" fill="#663021"/>
<path d="M24.2813 9.1875C24.2813 10.7812 22.9688 12 21.375 12C19.875 12 18.6563 10.7812 18.6563 9.28125C18.6563 7.78125 19.875 6.5625 21.4688 6.46875C23.0625 6.46875 24.375 7.59375 24.2813 9.1875ZM11.8125 13.9687C11.8125 15.5625 10.5 16.875 9 16.7812C7.59375 16.6875 6.46875 15.375 6.46875 13.875C6.46875 12.375 7.6875 11.0625 9.09375 11.0625C10.5938 11.0625 11.8125 12.375 11.8125 13.9687Z" fill="#663021"/>
<path d="M22.1253 8.62489C22.1253 13.2186 18.3753 16.7811 14.0628 16.5936C10.0315 16.4061 7.12525 13.0311 7.219 8.99989C7.31275 4.96864 10.4065 1.49989 14.344 1.21864C18.5628 0.843637 22.219 4.12489 22.1253 8.62489Z" fill="#663021"/>
<path d="M21.7503 8.06331C21.6565 12.4696 18.094 15.9383 13.969 15.8446C10.1253 15.7508 7.219 12.4696 7.31275 8.53206C7.4065 4.68831 10.4065 1.31331 14.2503 0.938314C18.3753 0.469564 21.844 3.65706 21.7503 8.06331Z" fill="#663021"/>
<path d="M21.6556 7.78275C21.6556 12.0015 18.2806 15.3765 14.3431 15.2828C10.6869 15.189 7.96812 12.0015 8.15562 8.2515C8.24937 4.59525 10.3119 1.314 14.7181 0.939005C18.4681 0.564005 21.7494 3.65775 21.6556 7.78275Z" fill="#663021"/>
<path d="M17.625 9.00032C17.5312 12.0003 15.2812 14.3441 12.5625 14.3441C9.9375 14.2503 8.0625 12.0003 8.0625 9.28156C8.15625 6.56281 10.2188 4.21906 12.75 4.03156C15.4688 3.75031 17.7187 6.00032 17.625 9.00032Z" fill="#663021"/>
<path d="M7.7806 7.875C7.7806 7.875 8.06185 6.84375 10.3118 6.65625C12.6556 6.5625 16.1243 6.65625 17.7181 4.875L17.1556 4.40625C17.1556 4.40625 15.6556 5.34375 13.2181 5.4375C10.8743 5.53125 7.9681 6.375 7.7806 6.5625C7.5931 6.9375 7.7806 7.875 7.7806 7.875ZM17.5306 10.3125C17.5306 10.7812 17.2493 11.1562 16.8743 11.1562C16.4993 11.1562 16.2181 10.7812 16.2181 10.3125C16.2181 9.84375 16.4993 9.46875 16.8743 9.46875C17.2493 9.46875 17.6243 9.84375 17.5306 10.3125Z" fill="#663021"/>
<path d="M17.1562 10.032C17.1562 10.1258 17.0625 10.2195 16.9688 10.2195C16.875 10.2195 16.7812 10.1258 16.7812 10.032C16.7812 9.93829 16.875 9.84454 16.9688 9.84454C17.0625 9.84454 17.1562 9.93829 17.1562 10.032ZM12.0937 10.032C12.0937 10.5008 11.8125 10.782 11.4375 10.8758C11.0625 10.8758 10.875 10.5008 10.875 10.1258C10.875 9.65704 11.1562 9.37579 11.5312 9.28204C11.8125 9.18829 12.0937 9.56329 12.0937 10.032Z" fill="#663021"/>
<path d="M11.7188 9.75108C11.7188 9.84483 11.625 9.93858 11.5312 9.93858C11.4375 9.93858 11.3438 9.84483 11.3438 9.75108C11.3438 9.65733 11.4375 9.56358 11.5312 9.56358C11.7188 9.56358 11.7188 9.65733 11.7188 9.75108ZM18.5625 3.09483C18.5625 3.09483 17.25 6.00108 13.7812 5.90733C10.5 5.81358 8.25 6.56358 7.3125 7.96983C7.3125 7.96983 7.5 2.34483 12.1875 1.12608C17.25 -0.280166 18.5625 2.25108 18.5625 3.09483Z" fill="#663021"/>
<path d="M16.3125 4.03125L16.4063 4.125C16.875 4.59375 19.3125 7.125 19.0312 12.4688C19.0312 12.4688 19.2188 14.1562 21.5625 14.1562C21.5625 14.1562 21.375 12.9375 21.75 12.1875C22.125 11.4375 23.0625 7.125 22.0313 4.96875C21 2.90625 18.4688 0.75 15.375 0.75" fill="#663021"/>
<path d="M18.8438 9.5625C18.8438 9.5625 19.7812 9 20.1562 9.375C20.8125 10.125 20.25 11.25 18.8438 11.4375V9.5625Z" fill="#663021"/>
<path d="M16.9688 5.34489C16.9688 5.34489 18.6563 7.21989 18.8438 9.56364C18.8438 9.56364 18.6562 6.09489 17.1562 4.96989L16.9688 5.34489ZM10.5 2.53239C10.5 2.53239 13.6875 0.563644 16.5 1.50114C16.5 1.50114 17.3438 2.53239 15.1875 2.90739C13.125 3.28239 13.2188 2.15739 10.5 2.53239ZM21.9375 7.31364C21.9375 7.31364 23.1562 8.71989 22.3125 10.1261C22.3125 10.1261 22.3125 10.6886 22.6875 10.7824C23.0625 10.7824 23.625 10.5011 23.5313 10.0324C23.4375 9.56364 23.625 7.59489 21.9375 7.31364Z" fill="#663021"/>
<path d="M6.46875 18.1871L14.0625 13.9684C14.0625 13.9684 20.3438 12.0934 21.75 13.5934C23.1563 15.0934 23.8125 21.1871 23.8125 21.1871C23.8125 21.1871 7.3125 20.9059 6.46875 18.1871Z" fill="#FFBC8F"/>
<path d="M6.9375 19.4065L12.0937 14.2503C12.0937 14.2503 18.1875 13.3128 19.4063 14.8128C20.625 16.3128 21.0938 22.4065 21.0938 22.4065C21.0938 22.4065 7.6875 22.1253 6.9375 19.4065Z" fill="#FFBC8F"/>
<path d="M12.2808 25.2188C12.2808 25.2188 15.2808 20.7188 17.4371 19.7813C19.5933 18.8438 21.2808 18.6562 21.2808 18.6562C21.2808 18.6562 23.8121 20.7188 24.2808 23.8125C24.7496 26.9062 23.4371 28.875 20.4371 29.4375C17.4371 30 12.7496 30.1875 12.2808 25.2188ZM11.9058 26.3438C11.9058 26.3438 8.34332 20.1562 4.59332 19.5C4.59332 19.5 0.374574 29.625 10.8746 28.4062C10.7808 28.3125 11.9996 28.0313 11.9058 26.3438Z" fill="#96172C"/>
<path d="M11.4375 24.8438H12.4688C12.4688 24.8438 12.75 28.0313 13.6875 28.6875C13.6875 28.6875 12.375 28.125 10.6875 28.4062C10.7812 28.3125 11.625 25.7812 11.4375 24.8438Z" fill="#96172C"/>
<path d="M10.4992 17.2497C10.4992 17.2497 6.09295 18.1872 5.2492 19.4997C4.40545 20.8122 1.59295 29.3435 12.1867 26.9997C22.7804 24.656 12.2804 16.9685 10.4992 17.2497Z" fill="#8E4028"/>
<path d="M15.0922 17.9062C15.0922 17.9062 11.9984 19.0312 11.4359 21.5625C10.9672 24.1875 11.4359 27.5625 15.0922 28.0312C18.7484 28.5 24.1859 28.875 23.7172 24.2812C23.2484 19.6875 20.5297 18.1875 20.5297 18.1875L15.0922 17.9062Z" fill="#8E4028"/>
<path d="M15.9373 17.9062C15.9373 17.9062 12.8436 19.0312 12.2811 21.5625C11.7186 24.0937 12.2811 27.5625 15.9373 28.0312C19.5936 28.5 25.0311 28.875 24.5623 24.2812C24.0936 19.6875 21.3748 18.1875 21.3748 18.1875L15.9373 17.9062Z" fill="#8E4028"/>
<path d="M12.5621 24.4688C12.5621 24.4688 15.5621 19.9687 17.7183 19.0312C19.8746 18.0937 21.5621 17.9062 21.5621 17.9062C21.5621 17.9062 24.0933 19.9688 24.5621 23.0625C24.9371 26.1562 23.7183 28.125 20.7183 28.6875C17.6246 29.25 13.0308 29.5312 12.5621 24.4688ZM12.1871 25.5937C12.1871 25.5937 8.62457 19.4062 4.87457 18.75C4.87457 18.75 0.655823 28.875 11.1558 27.6562C11.0621 27.6562 12.2808 27.2812 12.1871 25.5937Z" fill="#96172C"/>
<path d="M11.7188 24.0938H12.75C12.75 24.0938 13.0312 27.2812 13.9687 27.9375C13.9687 27.9375 12.6562 27.375 10.9688 27.6563C11.0625 27.6563 11.9063 25.0313 11.7188 24.0938ZM11.625 17.625C11.625 17.625 12.75 18.8438 12.5625 19.6875L13.4063 18.8438L11.625 17.625Z" fill="#8E4028"/>
<path d="M12.75 24.0938C12.75 24.0938 17.3438 20.1563 19.4063 19.875C21.4688 19.5938 24.1875 21.9375 24.1875 21.9375L21.5625 17.9062C21.5625 17.9062 16.3125 18.0938 12.75 24.0938Z" fill="#8E4028"/>
<path d="M11.625 24.75C11.625 24.75 10.0313 19.5938 4.59375 18.75L4.40625 20.5312C4.40625 20.5312 9.375 20.8125 11.625 24.75Z" fill="#96172C"/>
<path d="M16.7812 5.4375L17.4375 7.5L18.375 8.0625C18.375 8.0625 18.1875 5.625 16.9688 4.96875L16.7812 5.4375Z" fill="#D3674F"/>
<path d="M8.62512 5.53125C8.62512 5.53125 6.93762 9.5625 8.81262 11.1562L9.18762 8.15625L8.62512 5.53125Z" fill="#8E4028"/>
<path d="M21.374 9.56291C21.374 13.6879 18.0928 16.9692 14.3428 16.8754C10.874 16.7817 8.71778 13.5942 8.81153 9.93791C8.90528 6.28166 11.1553 3.18791 14.624 2.90666C18.2803 2.53166 21.4678 5.53166 21.374 9.56291Z" fill="#E07D69"/>
<path d="M21.8437 4.96875C20.9062 3.09375 18.6562 1.21875 16.0312 1.125C15.0938 0.9375 14.0625 1.03125 12.6562 1.40625C7.59375 2.8125 8.4375 8.15625 8.4375 8.15625C9.28125 6.84375 11.1563 5.8125 14.1563 5.90625C15.4688 5.90625 16.5 5.4375 17.25 4.96875C18.0937 6.09375 19.2187 8.34375 19.0312 12.0937C19.0312 12.0937 19.2187 13.6875 21.375 13.6875C21.375 13.6875 21.1875 12.5625 21.5625 11.8125C21.9375 10.9688 22.7812 6.9375 21.8437 4.96875Z" fill="#8E4028"/>
<path d="M23.7187 9.75006C23.7187 11.1563 22.5938 12.3751 21.1875 12.3751C19.7813 12.3751 18.75 11.2501 18.75 9.93756C18.75 8.62506 19.875 7.40631 21.1875 7.40631C22.5938 7.31256 23.7187 8.3438 23.7187 9.75006Z" fill="#8E4028"/>
<path d="M25.3125 14.9062C25.3125 17.4375 23.4375 19.4062 21.1875 19.2187C19.0313 19.125 17.4375 17.0625 17.4375 14.7187C17.4375 12.375 19.125 10.5 21.2813 10.4062C23.4375 10.4062 25.3125 12.375 25.3125 14.9062ZM12.1875 13.5C12.1875 15.1875 10.9688 16.4062 9.5625 16.4062C8.25 16.3125 7.21875 15 7.21875 13.5C7.21875 11.9062 8.34375 10.6875 9.75 10.5937C11.1562 10.5937 12.2813 11.9062 12.1875 13.5Z" fill="#8E4028"/>
<path d="M23.3438 9.28175C23.3438 10.688 22.2188 11.813 20.8126 11.9068C19.5001 11.9068 18.3751 10.7818 18.3751 9.46925C18.3751 8.15675 19.5001 6.938 20.8126 6.938C22.1251 6.7505 23.3438 7.78175 23.3438 9.28175ZM12.2813 13.5943C12.2813 15.0943 11.1563 16.2193 9.84382 16.2193C8.62507 16.1255 7.59382 15.0005 7.68757 13.5943C7.68757 12.188 8.71882 11.063 10.0313 11.063C11.3438 10.9693 12.3751 12.0943 12.2813 13.5943Z" fill="#8E4028"/>
<path d="M21.3755 8.71915C21.3755 12.8441 18.0942 16.1254 14.3442 16.0316C10.8755 15.9379 8.25048 12.7504 8.34423 9.09415C8.43798 5.4379 11.1567 2.34415 14.6255 1.96915C18.2817 1.59415 21.4692 4.59415 21.3755 8.71915Z" fill="#8E4028"/>
<path d="M21.0943 8.15657C21.0943 12.1878 17.9068 15.3753 14.2506 15.1878C10.8756 15.0941 8.34432 12.1878 8.43807 8.62532C8.53182 5.15657 11.1568 2.06282 14.5318 1.78157C18.0943 1.40657 21.0943 4.21907 21.0943 8.15657Z" fill="#FFBC8F"/>
<path d="M21.0008 7.9686C21.0008 11.8124 18.0008 14.8124 14.6258 14.7186C11.4383 14.6249 9.09451 11.7186 9.18826 8.3436C9.28201 5.06235 11.0633 2.06235 14.907 1.68735C18.1883 1.4061 21.0008 4.2186 21.0008 7.9686Z" fill="#FFBC8F"/>
<path d="M17.4375 9.00012C17.4375 11.7189 15.375 13.8751 12.9375 13.8751C10.6875 13.8751 9 11.7189 9 9.28137C9.09375 6.84387 10.875 4.68763 13.125 4.50013C15.5625 4.31263 17.5312 6.37513 17.4375 9.00012Z" fill="#FFDEC7"/>
<path d="M8.81185 8.0625C8.81185 8.0625 8.99935 7.125 10.9681 7.03125C13.0306 6.9375 16.0306 7.03125 17.4368 5.4375L16.9681 4.96875C16.9681 4.96875 15.6556 5.8125 13.4993 5.90625C11.4368 6 8.9056 6.75 8.81185 6.9375C8.62435 7.21875 8.81185 8.0625 8.81185 8.0625Z" fill="#FFBC8F"/>
<path d="M17.625 10.2187C17.625 10.7812 17.25 11.1562 16.875 11.1562C16.5 11.1562 16.125 10.7812 16.125 10.2187C16.125 9.75 16.5 9.28125 16.875 9.28125C17.25 9.28125 17.625 9.65625 17.625 10.2187ZM11.5313 9.84375C11.5313 10.3125 11.25 10.7812 10.875 10.7812C10.5 10.7812 10.2188 10.4062 10.2188 9.9375C10.2188 9.46875 10.5 9 10.875 9C11.25 9 11.5313 9.375 11.5313 9.84375Z" fill="#663021"/>
<path d="M18.2812 3.65694C18.2812 3.65694 17.1562 6.28194 14.1563 6.18819C11.25 6.18819 9.28125 6.84444 8.4375 8.06319C8.4375 8.06319 8.625 2.90694 12.6562 1.78194C17.0625 0.656936 18.2812 2.90694 18.2812 3.65694Z" fill="#8E4028"/>
<path d="M16.3125 4.5C16.875 4.96875 18.9375 7.3125 18.6562 12.1875C18.6562 12.1875 18.8438 13.6875 20.8125 13.6875C20.8125 13.6875 20.625 12.5625 21 11.9062C21.375 11.1562 22.125 7.3125 21.2813 5.34375C20.4375 3.46875 18.0938 1.5 15.4688 1.5" fill="#8E4028"/>
<path d="M18.4688 9.5625C18.4688 9.5625 19.2187 9 19.5937 9.375C20.1562 10.0312 19.6875 11.0625 18.4688 11.25V9.5625ZM16.875 5.71875C16.875 5.71875 18.375 7.5 18.5625 9.46875C18.5625 9.46875 18.4688 6.375 17.0625 5.25L16.875 5.71875Z" fill="#FFBC8F"/>
<path d="M11.1562 3.28157C11.1562 3.28157 13.9688 1.50032 16.4063 2.34407C16.4063 2.34407 17.1562 3.28157 15.2812 3.65657C13.5 3.84407 13.5938 2.81282 11.1562 3.28157Z" fill="#A55038"/>
<path d="M21.1875 7.5C21.1875 7.5 22.2187 8.8125 21.4687 10.125C21.4687 10.125 21.4687 10.6875 21.8437 10.6875C22.2187 10.6875 22.6875 10.4062 22.5938 10.0312C22.5938 9.5625 22.6875 7.78125 21.1875 7.5Z" fill="#8E4028"/>
<path d="M12.375 25.125C12.375 25.125 15.1875 21 17.25 20.1563C19.3125 19.3125 20.9062 19.125 20.9062 19.125C20.9062 19.125 23.3437 21 23.7187 23.9062C24.0937 26.8125 22.9688 28.5938 20.0625 29.0625C17.1562 29.5312 12.8438 29.7187 12.375 25.125Z" fill="#96172C"/>
<path d="M12.0002 26.1562C12.0002 26.1562 8.62519 20.5312 5.06269 19.875C5.06269 19.875 1.03144 29.1562 10.9689 28.0312C10.9689 28.0312 12.0939 27.6562 12.0002 26.1562Z" fill="#96172C"/>
<path d="M11.625 24.75H12.6563C12.6563 24.75 12.9375 27.6563 13.7812 28.3125C13.7812 28.3125 12.5625 27.75 10.9688 28.0312C10.9688 28.0312 11.8125 25.5937 11.625 24.75Z" fill="#96172C"/>
<path d="M10.5007 16.4995C10.5007 16.4995 6.18818 17.812 5.43818 19.2183C4.68818 20.6245 2.25068 28.9683 12.2819 26.437C22.3132 23.9058 12.1882 16.312 10.5007 16.4995Z" fill="#FFDEC7"/>
<path d="M14.625 17.5312C14.625 17.5312 11.625 18.6562 11.1562 21.4687C10.6875 24.2812 11.1562 27.8438 14.625 28.3125C18.0937 28.7812 23.25 29.25 22.875 24.2812C22.4062 19.3125 19.7812 17.7187 19.7812 17.7187L14.625 17.5312Z" fill="#AF1E30"/>
<path d="M15.4684 16.875C15.4684 16.875 12.6559 18 12.1872 20.8125C11.7184 23.625 12.1872 27.1875 15.4684 27.6562C18.7497 28.125 23.7184 28.5938 23.2497 23.625C22.8747 18.6563 19.2184 17.0625 19.2184 17.0625L15.4684 16.875Z" fill="#FFBC8F"/>
<path d="M16.2184 16.875C16.2184 16.875 13.4059 18 12.9372 20.8125C12.4684 23.5313 12.9372 27.1875 16.2184 27.6562C19.4997 28.125 24.4684 28.5938 23.9997 23.625C23.6247 18.6563 19.4059 16.9688 19.4059 16.9688L16.2184 16.875Z" fill="#FFDEC7"/>
<path d="M12.6562 24.4687C12.6562 24.4687 15.4687 20.3438 17.5312 19.5C19.5938 18.6563 21.1875 18.4688 21.1875 18.4688C21.1875 18.4688 23.625 20.3438 24 23.25C24.375 26.1562 23.25 27.9375 20.3438 28.4062C17.4375 28.875 13.125 29.0625 12.6562 24.4687Z" fill="#DB2031"/>
<path d="M12.2814 25.5C12.2814 25.5 8.90644 19.875 5.34394 19.2188C5.34394 19.2188 1.31269 28.5 11.2502 27.375C11.2502 27.375 12.3752 27 12.2814 25.5Z" fill="#DB2031"/>
<path d="M11.8125 24.0938H12.8438C12.8438 24.0938 13.125 27 13.9688 27.6562C13.9688 27.6562 12.75 27.0938 11.1562 27.375C11.25 27.375 12 25.0312 11.8125 24.0938Z" fill="#AF1E30"/>
<path d="M11.7188 16.5938C11.7188 16.5938 12.75 17.9062 12.5625 18.75L13.4063 17.8125L11.7188 16.5938Z" fill="#FFBC8F"/>
<path d="M8.15547 17.5317C8.15547 17.5317 9.09297 16.8755 10.1242 17.063C11.1555 17.2505 12.1867 18.188 11.6242 18.4692C11.0617 18.8442 9.37422 19.5005 8.43672 19.0317C7.40547 18.6567 7.31172 17.9067 8.15547 17.5317Z" fill="#FFEDDE"/>
<path d="M6.37513 22.4057C6.37513 22.4057 7.87513 22.4057 8.90638 23.3432C9.93763 24.2807 10.3126 26.062 9.46888 26.062C8.62513 26.062 6.28138 25.4057 5.53138 24.2807C4.87513 23.062 5.34388 22.2182 6.37513 22.4057ZM16.3126 23.7182C16.3126 23.7182 17.1564 22.4057 18.4689 22.1245C19.7814 21.8432 21.4689 22.4057 21.0001 23.1557C20.5314 23.812 18.7501 25.4995 17.3439 25.4995C15.9376 25.4995 15.5626 24.562 16.3126 23.7182Z" fill="#F4374E"/>
<path d="M15.5633 17.718C15.5633 17.718 16.407 17.1555 17.2508 17.343C18.0945 17.4367 18.9383 18.2805 18.4695 18.5617C18.0008 18.843 16.5945 19.4055 15.8445 19.0305C14.907 18.6555 14.907 17.9992 15.5633 17.718Z" fill="#FFEDDE"/>
<path d="M12.8437 24.0929C12.8437 24.0929 17.1562 20.4367 19.2187 20.2492C21.2812 20.0617 23.8125 22.2179 23.8125 22.2179L21.1875 18.4679C21.1875 18.3742 16.125 18.5617 12.8437 24.0929ZM11.7187 24.7492C11.7187 24.7492 10.2188 20.0617 5.0625 19.2179L4.875 20.8117C4.875 20.8117 9.65625 21.0929 11.7187 24.7492Z" fill="#F4374E"/>
<path d="M26.0623 21.8431C26.0623 21.8431 21.9373 19.1244 21.7498 20.0619C21.5623 20.9056 23.4373 21.4681 23.4373 21.4681C23.4373 21.4681 22.7811 22.8744 21.2811 23.8119C21.2811 23.8119 20.4373 24.7494 20.6248 24.8431C20.9061 25.0306 22.9686 24.0931 22.9686 24.0931C22.9686 24.0931 20.6248 25.5931 21.0936 25.8744C21.5623 26.1556 23.6248 25.4056 23.6248 25.4056C23.6248 25.4056 22.2186 26.5306 22.5936 26.9056C22.9686 27.3744 27.7498 25.7806 26.0623 21.8431Z" fill="#AF1E30"/>
<path d="M26.6248 21.1869C26.6248 21.1869 22.4998 18.4681 22.3123 19.4056C22.1248 20.2494 23.9998 20.9056 23.9998 20.9056C23.9998 20.9056 23.3436 22.3119 21.8436 23.2494C21.8436 23.2494 20.9998 24.1869 21.1873 24.2806C21.4686 24.4681 23.5311 23.5306 23.5311 23.5306C23.5311 23.5306 21.1873 25.0306 21.6561 25.3119C22.1248 25.5931 24.1873 24.8431 24.1873 24.8431C24.1873 24.8431 22.7811 25.9681 23.1561 26.3431C23.5311 26.7181 28.2186 25.1244 26.6248 21.1869Z" fill="#FFBC8F"/>
<path d="M1.40623 20.2507C1.40623 20.2507 5.81248 17.3445 6.09373 18.282C6.37498 19.2195 4.21873 19.8757 4.21873 19.8757C4.21873 19.8757 4.96873 21.4695 6.56248 22.5007C6.56248 22.5007 7.49997 23.532 7.21872 23.6257C6.93748 23.8132 4.68748 22.782 4.68748 22.782C4.68748 22.782 7.21872 24.4695 6.74998 24.7507C6.28123 25.032 4.03123 24.282 4.03123 24.282C4.03123 24.282 5.53123 25.5007 5.15623 25.8757C4.78123 26.2507 -0.375024 24.4695 1.40623 20.2507Z" fill="#AF1E30"/>
<path d="M1.96882 19.8744C1.96882 19.8744 6.09382 17.1556 6.28132 18.0931C6.46882 18.9369 4.59382 19.5931 4.59382 19.5931C4.59382 19.5931 5.25007 20.9994 6.75007 21.9369C6.75007 21.9369 7.59382 22.8744 7.40632 22.9681C7.21882 23.0619 5.06257 22.2181 5.06257 22.2181C5.06257 22.2181 7.40632 23.7181 6.93757 23.9994C6.46882 24.2806 4.40632 23.5306 4.40632 23.5306C4.40632 23.5306 5.81257 24.6556 5.43757 25.0306C5.06257 25.4994 0.281324 23.8119 1.96882 19.8744Z" fill="#FFBC8F"/>
<path d="M3.56218 19.6875C3.56218 19.6875 3.56218 20.9063 4.21843 21.1875C4.87468 21.4688 4.21843 21.9375 4.21843 21.9375C4.21843 21.9375 4.49968 21.8437 4.40593 22.3125C4.31218 22.7812 3.74968 22.7812 3.56218 22.875C3.46843 22.875 2.99968 23.1563 2.71843 22.5938C2.43718 22.0313 1.78093 20.625 3.56218 19.6875ZM24.4684 21.5625C24.4684 21.5625 24.4684 22.7813 23.8122 23.0625C23.1559 23.3438 23.8122 23.8125 23.8122 23.8125C23.8122 23.8125 23.5309 23.7187 23.6247 24.1875C23.8122 24.6562 24.3747 24.75 24.4684 24.75C24.5622 24.75 25.0309 25.0313 25.3122 24.4688C25.5934 23.9063 26.2497 22.5 24.4684 21.5625Z" fill="#FFDEC7"/>
<path d="M16.9688 27.2812L16.6875 27.75L18.2813 28.875L27.4688 19.7813L25.9688 17.8125L16.9688 27.2812Z" fill="#9A4C18"/>
<path d="M27.6571 22.3125C27.3759 25.9688 24.0009 29.0625 20.2509 28.9688C16.5009 28.9688 14.1571 25.875 14.9071 22.3125C15.5634 18.9375 18.7509 16.4062 22.1259 16.3125C25.4071 16.4062 27.9384 18.9375 27.6571 22.3125Z" fill="#9A4C18"/>
<path d="M28.5939 23.5313C28.3126 27 25.0314 29.9062 21.2814 29.9062C17.6251 29.9062 15.3751 26.9062 16.0314 23.5313C16.6876 20.3438 19.7814 17.9062 23.0626 17.8125C26.4376 17.8125 28.8751 20.25 28.5939 23.5313Z" fill="#9A4C18"/>
<path d="M18 27.5625L19.5937 28.4062L27.0937 20.5312L25.875 18.8438L18 27.5625Z" fill="#F49937"/>
<path d="M27.844 23.5313C27.5627 26.5313 24.844 28.9688 21.7502 28.9688C18.7502 28.9688 16.7815 26.4375 17.344 23.5313C17.9065 20.8125 20.5315 18.6562 23.2502 18.5625C26.0627 18.5625 28.1252 20.7188 27.844 23.5313Z" fill="#F49937"/>
<path d="M26.9067 22.3125C26.6255 25.5 23.7192 28.125 20.438 28.125C17.1567 28.125 15.0942 25.4062 15.7505 22.3125C16.313 19.4062 19.1255 17.0625 22.0317 17.0625C24.938 17.0625 27.188 19.3125 26.9067 22.3125Z" fill="#FFEDC0"/>
<path d="M26.4377 22.5938C26.1565 25.5938 23.4377 28.0312 20.344 28.0312C17.344 28.0312 15.3752 25.5 15.9377 22.5938C16.5002 19.875 19.1252 17.7187 21.844 17.625C24.6565 17.625 26.719 19.7813 26.4377 22.5938Z" fill="#FFD766"/>
<path d="M25.3132 22.5943C25.0319 24.8443 22.9694 26.8131 20.6257 26.8131C18.2819 26.8131 16.7819 24.9381 17.1569 22.6881C17.5319 20.5318 19.5944 18.8443 21.7507 18.8443C23.9069 18.6568 25.5007 20.3443 25.3132 22.5943Z" fill="#FFEDC0"/>
<path d="M25.3132 22.0313C25.0319 24.2813 22.9694 26.1562 20.6257 26.1562C18.2819 26.1562 16.7819 24.2813 17.1569 22.0313C17.5319 19.875 19.5944 18.1875 21.7507 18.1875C24.0007 18.1875 25.5944 19.7813 25.3132 22.0313Z" fill="#F49937"/>
<path d="M24.6558 22.594C24.4683 24.469 22.687 26.1565 20.7183 26.0628C18.7495 26.0628 17.437 24.469 17.812 22.594C18.0933 20.719 19.8745 19.3128 21.7495 19.3128C23.5308 19.219 24.8433 20.719 24.6558 22.594Z" fill="#FFD766"/>
<path d="M22.125 18.9375L22.6875 21L24.9375 21.5625L22.875 22.9687L22.6875 25.4062L20.8125 24L18.375 24.8437L19.4063 22.5937L18.1875 20.8125H20.625L22.125 18.9375Z" fill="#F49937"/>
</g>
<defs>
<clipPath id="clip0_52_78829">
<rect width="30" height="30" fill="white"/>
</clipPath>
</defs>
</svg>
