<svg width="35" height="35" viewBox="0 0 35 35" fill="none" xmlns="http://www.w3.org/2000/svg">
<g clip-path="url(#clip0_52_57810)">
<path d="M33.1402 10.6094L33.687 13.2344L31.937 13.3438L33.1402 10.6094ZM29.312 3.71875C28.437 2.84375 27.1245 1.53125 26.5777 1.3125C26.0308 1.09375 25.2652 1.09375 24.8277 1.09375H24.3902L5.90579 3.28125C4.81204 3.39062 3.71829 4.48437 3.39017 5.6875L0.218292 20.3438C0.218292 20.3438 0.108917 21.2188 0.874542 22.2031L2.29642 23.9531C2.40579 24.1719 2.62454 24.2812 2.84329 24.3906L1.20267 31.6094H3.28079L11.0464 24.8281H23.4058C24.8277 24.8281 26.2495 23.625 26.5777 22.2031L29.2027 8.75V8.85938L29.8589 5.46875C29.9683 4.8125 29.7495 4.15625 29.312 3.71875Z" fill="#5C2E0E"/>
<path d="M34.125 9.18742C33.3594 8.4218 32.1562 7.32805 31.7188 7.1093C31.0625 6.78117 29.9688 6.89055 29.9688 6.89055L24.9375 7.32805L30.1875 12.578L15.75 14.328C14.7656 14.4374 13.7812 15.4218 13.5625 16.5155L11.7031 25.0468L8.53125 22.8593L7.76562 23.1874L7.21875 25.8124C7.21875 25.8124 7.10938 26.578 7.76562 27.453C8.09375 27.8905 8.64063 28.5468 9.07813 28.9843C9.40625 29.4218 9.95312 29.6405 10.6094 29.6405H12.4687L20.6719 29.9687L24.1719 34.6718H27.3438L28.3281 29.6405H28.4375C29.75 29.6405 30.9531 28.5468 31.1719 27.3437L33.9062 14.2187V13.9999L34.5625 10.7187C34.7812 10.1718 34.5625 9.62492 34.125 9.18742Z" fill="#5C2E0E"/>
<path d="M20.6719 27.453L24.5 33.0312L26.7969 33.3593L26.3594 26.0312L20.6719 27.453ZM28.875 7.65617C28.875 7.65617 29.9688 7.5468 30.625 7.87492C31.0625 8.09367 32.2656 9.18742 32.9219 9.95305C33.3594 10.3905 33.4688 10.9374 33.4688 11.4843L32.8125 14.4374L28.875 7.65617ZM8.96875 21.4374L8.09375 21.8749L7.65625 24.4999C7.65625 24.4999 7.54688 25.2655 8.20312 26.0312C8.53125 26.4687 9.07812 27.1249 9.51562 27.5624C9.84375 27.9999 10.3906 28.2187 10.9375 28.2187H12.7969L13.2344 24.3905L8.96875 21.4374Z" fill="#158427"/>
<path d="M11.9219 21L8.42188 24.2812L10.7188 27.6719L15.9688 26.6875L11.9219 21Z" fill="#158427"/>
<path d="M31.2813 11.1565L15.0938 13.1253C14.1094 13.2347 13.125 14.219 12.9063 15.2034L10.5 26.3597C10.2813 27.4534 10.8282 28.3284 11.8125 28.3284H23.1875L26.6875 33.3597L27.6719 28.4378H27.7813C29.0938 28.4378 30.2969 27.4534 30.5156 26.1409L33.1406 13.1253C33.3594 11.8128 32.4844 10.9378 31.2813 11.1565Z" fill="#158427"/>
<path d="M28.6563 7.65571L12.5782 9.62446C11.5938 9.73384 10.6094 10.7182 10.3907 11.7026L7.87503 22.8588C7.65628 23.9526 8.20315 24.8276 9.18753 24.8276H20.5625L24.0625 29.8588L25.0469 24.937H25.1563C26.4688 24.937 27.6719 23.9526 27.8907 22.6401L30.4063 9.62446C30.7344 8.42134 29.8594 7.54634 28.6563 7.65571Z" fill="#158427"/>
<path d="M29.4219 8.53071L13.3438 10.4995C12.3594 10.6088 11.375 11.5932 11.1563 12.5776L8.75003 23.7338C8.53128 24.8276 9.07815 25.7026 10.0625 25.7026H21.4375L24.9375 30.7338L25.9219 25.812H26.0313C27.3438 25.812 28.5469 24.8276 28.7656 23.5151L31.2813 10.4995C31.6094 9.29634 30.7344 8.42134 29.4219 8.53071Z" fill="#78ED74"/>
<path d="M16.0778 18.1569C15.859 19.0319 15.0934 19.6882 14.4372 19.6882C13.6715 19.6882 13.234 19.1413 13.4528 18.2663C13.6715 17.5007 14.3278 16.7351 15.0934 16.7351C15.7497 16.7351 16.1872 17.3913 16.0778 18.1569ZM20.8903 17.9382C20.6715 18.8132 19.9059 19.5788 19.0309 19.5788C18.2653 19.5788 17.7184 18.9226 17.9372 18.1569C18.1559 17.2819 18.9215 16.6257 19.6872 16.5163C20.5622 16.4069 20.9997 17.0632 20.8903 17.9382ZM26.1403 17.6101C25.9215 18.4851 25.0465 19.2507 24.1715 19.3601C23.2965 19.3601 22.7497 18.7038 22.9684 17.8288C23.1872 16.9538 23.9528 16.1882 24.8278 16.0788C25.7028 15.9694 26.2497 16.7351 26.1403 17.6101Z" fill="#73D7EF"/>
<path d="M15.6406 17.7188C15.4219 18.5938 14.6562 19.25 14 19.25C13.2344 19.25 12.7969 18.7031 13.0156 17.8281C13.2344 17.0625 13.8906 16.2969 14.6562 16.2969C15.3125 16.2969 15.8594 16.8438 15.6406 17.7188ZM20.4531 17.3906C20.2344 18.2656 19.4688 19.0312 18.5938 19.0312C17.8281 19.0312 17.2812 18.375 17.5 17.6094C17.7188 16.7344 18.4844 16.0781 19.25 15.9688C20.125 15.8594 20.6719 16.5156 20.4531 17.3906ZM25.7031 17.0625C25.4844 17.9375 24.6094 18.7031 23.7344 18.8125C22.8594 18.8125 22.3125 18.1563 22.5312 17.2813C22.75 16.4063 23.5156 15.6406 24.3906 15.5312C25.2656 15.5312 25.9219 16.1875 25.7031 17.0625ZM12.5781 22.6406L3.39062 29.9688H2.625L4.26562 26.9063L11.0469 21.3281L12.5781 22.6406Z" fill="#0F5B70"/>
<path d="M15.2027 23.2968L21.3277 21.8749L15.2027 23.2968ZM24.062 1.96867C24.062 1.96867 25.2652 1.8593 25.9214 2.18742C26.3589 2.40617 27.6714 3.6093 28.437 4.4843C28.8745 4.9218 29.0933 5.57805 28.9839 6.2343L28.437 9.40617L24.062 1.96867ZM2.62454 16.953L1.74954 17.3905L1.20267 20.2343C1.20267 20.2343 1.09329 20.9999 1.85892 21.9843C2.18704 22.3124 2.73392 22.9687 3.17142 23.5155C3.60892 23.953 4.15579 24.2812 4.70267 24.2812H6.67142L7.10892 20.1249L2.62454 16.953Z" fill="#0F5B70"/>
<path d="M5.79688 16.4062L2.07812 19.9063L4.59375 23.625L10.1719 22.5313L5.79688 16.4062Z" fill="#0F5B70"/>
<path d="M26.6872 5.79606L9.29656 7.98356C8.20281 8.09293 7.21843 9.18668 6.99968 10.2804L4.37468 22.3117C4.15593 23.5148 4.70281 24.3898 5.79656 24.4992H22.9684C24.2809 24.4992 25.7028 23.4054 25.9216 21.9836L28.6559 7.98356C28.8747 6.56168 27.9997 5.57731 26.6872 5.79606Z" fill="#0F5B70"/>
<path d="M23.8434 2.0774L6.45281 4.2649C5.46843 4.2649 4.37468 5.35865 4.15593 6.4524L1.53093 18.4836C1.31218 19.6868 1.85906 20.5618 2.95281 20.6711H20.1247C21.4372 20.6711 22.8591 19.5774 23.0778 18.1555L25.8122 4.15552C26.1403 2.84302 25.1559 1.85865 23.8434 2.0774Z" fill="#0F5B70"/>
<path d="M24.7184 2.95255L7.32781 5.14005C6.23406 5.24943 5.24968 6.34318 5.03093 7.43693L2.40593 19.4682C2.18718 20.6713 2.73406 21.5463 3.82781 21.6557H20.9997C22.3122 21.6557 23.7341 20.5619 23.9528 19.1401L26.6872 5.14005C27.0153 3.71818 26.1403 2.84318 24.7184 2.95255Z" fill="#73D7EF"/>
<path d="M23.7348 3.93804L7.98476 5.79742C7.00038 5.90679 6.12538 6.89117 5.90663 7.87554L3.50038 18.7037C3.28163 19.7974 3.82851 20.6724 4.70351 20.6724H20.3441C21.5473 20.6724 22.7504 19.688 23.0785 18.3755L25.5941 5.68804C25.8129 4.59429 24.9379 3.71929 23.7348 3.93804Z" fill="#E9F9FF"/>
<path d="M10.281 13.3444C10.0623 14.2194 9.29665 14.985 8.42165 14.985C7.65603 14.985 7.10915 14.3288 7.3279 13.4538C7.54665 12.5788 8.31228 11.8132 9.0779 11.8132C9.9529 11.8132 10.4998 12.4694 10.281 13.3444ZM15.4217 13.1257C15.2029 14.11 14.3279 14.8757 13.4529 14.8757C12.5779 14.8757 12.031 14.2194 12.2498 13.3444C12.4685 12.4694 13.3435 11.7038 14.1092 11.5944C15.0935 11.485 15.6404 12.1413 15.4217 13.1257ZM21.1092 12.7975C20.8904 13.7819 20.0154 14.5475 19.031 14.6569C18.0467 14.6569 17.4998 14.0007 17.7185 13.0163C17.9373 12.0319 18.8123 11.2663 19.7967 11.1569C20.6717 11.0475 21.3279 11.8132 21.1092 12.7975Z" fill="#73D7EF"/>
<path d="M9.84353 12.9069C9.62478 13.7819 8.85915 14.5475 7.98415 14.5475C7.21853 14.5475 6.67165 13.8913 6.8904 13.0163C7.10915 12.1413 7.87478 11.3757 8.6404 11.3757C9.5154 11.2663 10.0623 11.9225 9.84353 12.9069ZM14.9842 12.5788C14.7654 13.5632 13.8904 14.3288 13.0154 14.3288C12.1404 14.3288 11.5935 13.6725 11.8123 12.7975C12.031 11.9225 12.906 11.1569 13.6717 11.0475C14.656 10.9382 15.2029 11.5944 14.9842 12.5788ZM20.6717 12.2507C20.4529 13.235 19.5779 14.0007 18.5935 14.11C17.6092 14.11 17.0623 13.4538 17.281 12.4694C17.4998 11.485 18.3748 10.7194 19.3592 10.61C20.2342 10.5007 20.8904 11.2663 20.6717 12.2507Z" fill="#0F5B70"/>
<path d="M5.14062 20.6719L4.26562 26.9063L11.9219 20.6719H5.14062Z" fill="#73D7EF"/>
<path d="M6.01562 19.7969L4.8125 25.4844L11.7031 19.7969H6.01562Z" fill="#E9F9FF"/>
<path d="M4.15625 21.875L2.625 29.9687L4.15625 28.7656L5.03125 21.5469L4.15625 21.875Z" fill="#0F5B70"/>
</g>
<defs>
<clipPath id="clip0_52_57810">
<rect width="35" height="35" fill="white"/>
</clipPath>
</defs>
</svg>
