<svg width="13" height="13" viewBox="0 0 13 13" fill="none" xmlns="http://www.w3.org/2000/svg">
<path d="M9.246 3.38912L6.4 0.139115C6.32308 0.0507376 6.21166 0 6.0945 0C5.97734 0 5.86592 0.0507376 5.789 0.139115L2.946 3.38912C2.84074 3.5089 2.81534 3.67922 2.88109 3.8245C2.94683 3.96978 3.09153 4.06312 3.251 4.06312H4.876V9.34412C4.876 9.56834 5.05777 9.75012 5.282 9.75012H6.907C7.13123 9.75012 7.313 9.56834 7.313 9.34412V4.06212H8.938C9.09764 4.06252 9.24271 3.96932 9.3087 3.82396C9.3747 3.67859 9.34938 3.50804 9.244 3.38812L9.246 3.38912Z" fill="#636363"/>
<path d="M10.562 8.93701V11.375H1.625V8.93701H6.17415e-07V12.187C-0.00026519 12.4027 0.0853046 12.6097 0.237829 12.7622C0.390354 12.9147 0.597298 13.0003 0.813001 13H11.375C11.5905 13.0003 11.7973 12.9148 11.9498 12.7625C12.1023 12.6102 12.188 12.4035 12.188 12.188V8.93701H10.562Z" fill="#636363"/>
</svg>
