<svg width="21" height="18" viewBox="0 0 21 18" fill="none" xmlns="http://www.w3.org/2000/svg">
<path d="M0.108471 6.04905L9.14301 17.2652L5.04543 6.04905H0.108471ZM5.84934 6.04905L10.2166 17.9991L14.6669 6.04905H5.84934ZM11.1888 17.5541L20.4565 6.04905H15.4749L11.1888 17.5541ZM16.9225 0H11.0772L15.0846 4.93189L16.9225 0ZM14.4034 5.29279L10.2825 0.223025L6.16259 5.29177H14.4034V5.29279ZM9.48768 0H3.63835L5.45296 4.96535L9.4887 0H9.48768ZM3.00881 0.47849L0 5.2938H4.76868L3.00881 0.477476V0.47849ZM20.5639 5.29279L17.5531 0.473421L15.7567 5.29279H20.5639Z" fill="white"/>
</svg>
