<svg width="30" height="30" viewBox="0 0 30 30" fill="none" xmlns="http://www.w3.org/2000/svg">
<g clip-path="url(#clip0_52_66271)">
<path d="M25.5929 2.34424L1.78044 5.06299C1.03044 5.15674 0.374191 5.81299 0.467941 6.46924L1.03044 27.7505C1.03044 28.5942 1.78044 29.1567 2.62419 29.063L28.6867 26.1567C29.5304 26.063 30.0929 25.313 29.9992 24.4692L27.1867 3.46924C26.9992 2.81299 26.3429 2.25049 25.5929 2.34424Z" fill="#6F7677"/>
<path d="M25.4054 0.562957L1.78044 3.18796C1.03044 3.28171 0.374191 3.93796 0.467941 4.59421L0.936691 26.063C0.936691 26.9067 1.68669 27.4692 2.53044 27.4692L28.4992 24.6567C29.3429 24.563 29.9054 23.813 29.8117 22.9692L26.9992 1.78171C26.9054 1.03171 26.1554 0.469207 25.4054 0.562957Z" fill="#A1AEB2"/>
<path d="M3.09375 26.9062C2.25 26.9062 1.5 26.25 1.5 25.3125L1.03125 5.53125C1.03125 4.6875 1.6875 4.03125 2.53125 3.9375L24.4688 1.5H24.6562C25.5 1.5 26.1562 2.0625 26.25 2.8125L28.7812 22.4062C28.875 22.875 28.6875 23.3438 28.4062 23.625C28.125 24 27.75 24.1875 27.2812 24.2812L3.28125 26.9062H3.09375Z" fill="#F2F2F2"/>
<path d="M24.6562 1.78125C25.3125 1.78125 25.875 2.25 25.9688 2.8125L28.5 22.4062C28.5938 23.1562 28.0313 23.9063 27.2813 24L3.28125 26.625H3.09375C2.34375 26.625 1.78125 26.0625 1.78125 25.3125L1.3125 5.53125C1.3125 4.875 1.875 4.3125 2.53125 4.21875L24.4688 1.78125H24.6562ZM24.6562 1.21875H24.4688L2.53125 3.5625C1.5 3.65625 0.75 4.5 0.75 5.4375L1.21875 25.3125C1.21875 26.3438 2.0625 27.1875 3.09375 27.1875H3.28125L27.375 24.5625C27.9375 24.4688 28.4063 24.2812 28.6875 23.8125C28.9688 23.4375 29.1562 22.875 29.0625 22.3125L26.5312 2.71875C26.4375 1.875 25.5938 1.21875 24.6562 1.21875Z" fill="#A1AEB2"/>
<path d="M10.0312 16.2187L3.75 16.875L3.5625 12.0937L4.40625 10.5938L9.75 11.3438L10.0312 16.2187ZM24.4688 7.21875L3.46875 9.5625L3.375 6.75L4.125 5.71875L24.0938 4.5L24.4688 7.21875Z" fill="#347BB7"/>
<path d="M24.375 6.28125L4.21875 8.53125L4.125 5.71875L24 3.5625L24.375 6.28125Z" fill="#64BCED"/>
<path d="M17.7188 15.375L11.4375 16.0313L11.1562 11.25L12.0938 9.84375L17.25 10.5L17.7188 15.375Z" fill="#C1A57C"/>
<path d="M25.4063 14.4375L19.125 15.1875L18.6562 10.4062L19.5938 9L24.75 9.75L25.4063 14.4375Z" fill="#C98C71"/>
<path d="M10.4063 24L4.03125 24.75L3.84375 19.5938L4.78125 18.1875L10.125 18.9375L10.4063 24Z" fill="#C17C59"/>
<path d="M18.2812 23.1562L11.9062 23.8125L11.5312 18.75L12.5625 17.4375L17.8125 18.0937L18.2812 23.1562Z" fill="#347BB7"/>
<path d="M26.25 22.2188L19.7812 22.9687L19.3125 17.9062L20.4375 16.5L25.5937 17.25L26.25 22.2188Z" fill="#C1A57C"/>
<path d="M9.9375 14.9062L4.59375 15.4688L4.40625 10.5938L9.65625 10.0312L9.9375 14.9062Z" fill="#64BCED"/>
<path d="M17.625 14.0625L12.4688 14.625L12.0938 9.84375L17.25 9.1875L17.625 14.0625Z" fill="#EFCF9C"/>
<path d="M25.2188 13.2188L20.0625 13.7812L19.5938 9L24.6562 8.34375L25.2188 13.2188Z" fill="#EFAC8B"/>
<path d="M10.4063 22.7812L4.875 23.3438L4.78125 18.1875L10.0312 17.625L10.4063 22.7812Z" fill="#EA9565"/>
<path d="M18.2813 21.8437L12.9375 22.5L12.5625 17.4375L17.8125 16.7812L18.2813 21.8437Z" fill="#64BCED"/>
<path d="M26.1562 21L20.9062 21.5625L20.3438 16.5L25.5937 15.9375L26.1562 21Z" fill="#EFCF9C"/>
</g>
<defs>
<clipPath id="clip0_52_66271">
<rect width="30" height="30" fill="white"/>
</clipPath>
</defs>
</svg>
