<svg width="27" height="26" viewBox="0 0 27 26" fill="none" xmlns="http://www.w3.org/2000/svg">
<path fill-rule="evenodd" clip-rule="evenodd" d="M0.98429 26.0001H6.8815C7.42511 26.0001 7.86579 25.5594 7.86579 25.0158V17.0102C7.86579 16.4666 7.42511 16.0259 6.8815 16.0259H0.98429C0.440682 16.0259 0 16.4666 0 17.0102V25.0158C0 25.5594 0.440682 26.0001 0.98429 26.0001ZM5.89721 24.0315H1.96858V17.9945H5.89721V24.0315Z" fill="white"/>
<path fill-rule="evenodd" clip-rule="evenodd" d="M10.2407 26H16.1379C16.6815 26 17.1222 25.5594 17.1222 25.0157V13.5396C17.1222 12.996 16.6815 12.5553 16.1379 12.5553H10.2407C9.69704 12.5553 9.25636 12.996 9.25636 13.5396V25.0157C9.25636 25.5594 9.69704 26 10.2407 26ZM15.1536 24.0315H11.2249V14.5239H15.1536V24.0315Z" fill="white"/>
<path fill-rule="evenodd" clip-rule="evenodd" d="M19.499 26.0001H25.3955C25.9391 26.0001 26.3798 25.5594 26.3798 25.0158V9.57822C26.3798 9.03462 25.9391 8.59393 25.3955 8.59393H19.499C18.9554 8.59393 18.5147 9.03462 18.5147 9.57822V25.0158C18.5147 25.5594 18.9554 26.0001 19.499 26.0001ZM24.4112 24.0315H20.4833V10.5625H24.4112V24.0315Z" fill="white"/>
<path d="M19.617 6.57157C19.2745 6.57134 18.9567 6.39311 18.778 6.10097C18.5993 5.80883 18.5852 5.44479 18.7409 5.13975L19.8473 2.96775L17.6759 1.86207C17.362 1.70278 17.157 1.38793 17.1384 1.03636C17.1197 0.684796 17.2903 0.350052 17.5857 0.158481C17.8811 -0.0330902 18.2563 -0.052315 18.5697 0.108063L21.6183 1.66127C22.1024 1.90819 22.2948 2.50063 22.0481 2.98482L20.4949 6.03349C20.3269 6.36384 19.9876 6.57181 19.617 6.57157Z" fill="white"/>
<path d="M2.93595 9.4476C2.45152 9.44784 2.03894 9.09557 1.96325 8.61709C1.88757 8.13862 2.17128 7.6762 2.63213 7.52692L20.5554 1.7032C21.0702 1.54209 21.6188 1.82537 21.7855 2.3384C21.9522 2.85144 21.6749 3.40306 21.1637 3.57532L3.24042 9.39838C3.14215 9.43069 3.0394 9.44729 2.93595 9.4476Z" fill="white"/>
</svg>
