<svg width="22" height="22" viewBox="0 0 22 22" fill="none" xmlns="http://www.w3.org/2000/svg">
<path d="M21.9992 14.0513V7.91982H20.4644V14.0513H21.9992ZM21.9992 7.91982C21.9992 5.28945 21.4772 3.2488 20.1117 1.88509C18.7463 0.52138 16.703 0 14.0693 0V1.53287C16.5516 1.53287 18.0896 2.0334 19.0265 2.96899C19.9632 3.90458 20.4644 5.44063 20.4644 7.91982H21.9992ZM14.0693 0H7.92995V1.53287H14.0693V0ZM7.92995 0C5.29621 0 3.25296 0.52138 1.8875 1.88509C0.522048 3.2488 0 5.28945 0 7.91982H1.53483C1.53483 5.44063 2.036 3.90458 2.97279 2.96899C3.90958 2.0334 5.44759 1.53287 7.92995 1.53287V0ZM0 7.91982V14.0513H1.53483V7.91982H0ZM0 14.0513C0 16.6817 0.522048 18.7223 1.8875 20.086C3.25296 21.4497 5.29621 21.9711 7.92995 21.9711V20.4382C5.44759 20.4382 3.90958 19.9377 2.97279 19.0021C2.036 18.0665 1.53483 16.5304 1.53483 14.0513H0ZM7.92995 21.9711H14.0693V20.4382H7.92995V21.9711ZM14.0693 21.9711C16.703 21.9711 18.7463 21.4497 20.1117 20.086C21.4772 18.7223 21.9992 16.6817 21.9992 14.0513H20.4644C20.4644 16.5304 19.9632 18.0665 19.0265 19.0021C18.0896 19.9377 16.5516 20.4382 14.0693 20.4382V21.9711Z" fill="#93989A"/>
<path d="M7.67536 0.766434C7.67536 0.343144 7.33178 0 6.90795 0C6.48412 0 6.14053 0.343144 6.14053 0.766434H7.67536ZM6.14053 21.2047C6.14053 21.6279 6.48412 21.9711 6.90795 21.9711C7.33178 21.9711 7.67536 21.6279 7.67536 21.2047H6.14053ZM6.14053 0.766434V21.2047H7.67536V0.766434H6.14053Z" fill="#93989A"/>
<path d="M14.6119 8.91125C14.9116 8.61194 14.9116 8.12666 14.6119 7.82735C14.3122 7.52804 13.8263 7.52804 13.5266 7.82735L14.6119 8.91125ZM11.4498 10.9854L10.9072 10.4434C10.6075 10.7428 10.6075 11.228 10.9072 11.5273L11.4498 10.9854ZM13.5266 14.1434C13.8263 14.4427 14.3122 14.4427 14.6119 14.1434C14.9116 13.8441 14.9116 13.3588 14.6119 13.0595L13.5266 14.1434ZM13.5266 7.82735L10.9072 10.4434L11.9925 11.5273L14.6119 8.91125L13.5266 7.82735ZM10.9072 11.5273L13.5266 14.1434L14.6119 13.0595L11.9925 10.4434L10.9072 11.5273Z" fill="#93989A"/>
</svg>
