<svg width="20" height="19" viewBox="0 0 20 19" fill="none" xmlns="http://www.w3.org/2000/svg">
<path d="M8.42901 18.9546C8.17225 18.952 7.91982 18.8881 7.69281 18.7681C7.44067 18.6355 7.22962 18.4364 7.08254 18.1925C6.93547 17.9485 6.85797 17.6689 6.85845 17.3841V9.72761L0.399559 2.63068C0.197758 2.40381 0.0655819 2.12362 0.0188397 1.82361C-0.0279024 1.5236 0.0127685 1.21647 0.135988 0.938969C0.259208 0.661466 0.459759 0.425333 0.713654 0.258815C0.967548 0.0922965 1.26404 0.00244223 1.56766 0H18.4315C18.7351 0.00244223 19.0316 0.0922965 19.2855 0.258815C19.5394 0.425333 19.7399 0.661466 19.8631 0.938969C19.9864 1.21647 20.027 1.5236 19.9803 1.82361C19.9335 2.12362 19.8014 2.40381 19.5996 2.63068L13.1407 9.72761V15.2834C13.1416 15.5417 13.0784 15.7962 12.9568 16.0241C12.8351 16.2519 12.6589 16.446 12.4437 16.589L9.30263 18.6896C9.04409 18.8625 8.74003 18.9547 8.42901 18.9546ZM1.56766 1.57055L8.01674 8.66749C8.28097 8.95744 8.42792 9.33531 8.42901 9.72761V17.3841L11.5701 15.2834V9.72761C11.5712 9.33531 11.7181 8.95744 11.9824 8.66749L18.4315 1.57055H1.56766Z" fill="#3E4B65"/>
</svg>
