<svg width="18" height="18" viewBox="0 0 18 18" fill="none" xmlns="http://www.w3.org/2000/svg">
<path d="M2.8127 6.74926C2.81473 6.60017 2.87241 6.45722 2.97442 6.34848C3.08107 6.24285 3.2251 6.18359 3.3752 6.18359C3.52531 6.18359 3.66934 6.24285 3.77599 6.34848L9.0002 11.5797L14.2244 6.34848C14.3337 6.25878 14.4725 6.21294 14.6137 6.21988C14.7549 6.22681 14.8885 6.28603 14.9885 6.386C15.0884 6.48598 15.1477 6.61957 15.1546 6.76078C15.1615 6.902 15.1157 7.04075 15.026 7.15004L9.40099 12.775C9.29434 12.8807 9.15031 12.9399 9.0002 12.9399C8.8501 12.9399 8.70607 12.8807 8.59942 12.775L2.97442 7.15004C2.87241 7.0413 2.81473 6.89835 2.8127 6.74926Z" fill="#E2E7E9"/>
</svg>
