<svg width="18" height="21" viewBox="0 0 18 21" fill="none" xmlns="http://www.w3.org/2000/svg">
<path d="M17.7922 14.3909C17.2333 13.4246 16.5606 11.5866 16.5606 8.33707V7.66442C16.5606 3.46746 13.1974 0.0284218 9.05726 0H9.00042C8.00636 0.00124336 7.02227 0.19827 6.10435 0.579832C5.18643 0.961393 4.35265 1.52002 3.65062 2.22381C2.94859 2.9276 2.39205 3.76277 2.01279 4.68164C1.63353 5.60051 1.43897 6.58509 1.44021 7.57916V8.33707C1.44021 11.5866 0.767561 13.4246 0.208599 14.3909C0.0734157 14.6212 0.00146287 14.8831 2.20719e-05 15.1501C-0.00141873 15.4172 0.0677036 15.6798 0.200394 15.9115C0.333084 16.1433 0.524632 16.3358 0.755655 16.4698C0.986677 16.6037 1.24897 16.6742 1.516 16.6741H5.21084C5.21084 17.6792 5.6101 18.6431 6.32078 19.3538C7.03147 20.0645 7.99536 20.4637 9.00042 20.4637C10.0055 20.4637 10.9694 20.0645 11.6801 19.3538C12.3907 18.6431 12.79 17.6792 12.79 16.6741H16.4848C16.7518 16.6758 17.0144 16.6066 17.2458 16.4734C17.4772 16.3402 17.6691 16.1479 17.8017 15.9162C17.9332 15.6832 18.0015 15.4199 17.9999 15.1523C17.9982 14.8848 17.9266 14.6223 17.7922 14.3909ZM9.00042 18.9479C8.39815 18.9454 7.82126 18.705 7.39539 18.2792C6.96952 17.8533 6.72917 17.2764 6.72667 16.6741H11.2742C11.2717 17.2764 11.0313 17.8533 10.6054 18.2792C10.1796 18.705 9.60269 18.9454 9.00042 18.9479ZM1.516 15.1583C2.16971 14.0214 2.95604 11.9277 2.95604 8.33707V7.57916C2.95355 6.7838 3.10805 5.99578 3.41069 5.26025C3.71334 4.52473 4.15817 3.85616 4.71969 3.29288C5.28121 2.7296 5.94838 2.28268 6.68295 1.97774C7.41753 1.6728 8.20506 1.51583 9.00042 1.51583H9.04779C12.3542 1.53478 15.0448 4.30117 15.0448 7.66442V8.33707C15.0448 11.9277 15.8311 14.0214 16.4848 15.1583H1.516Z" fill="white"/>
</svg>
