<svg width="68" height="24" viewBox="0 0 68 24" fill="none" xmlns="http://www.w3.org/2000/svg">
<path d="M61.2069 6.29599L51.4008 1.40428C44.8139 -1.88734 42.1104 0.809955 45.4096 7.38177L46.4062 9.37045C46.6926 9.95334 46.6926 10.6277 46.4062 11.2106L45.4096 13.1879C42.1104 19.7597 44.8024 22.457 51.4008 19.1653L61.2069 14.2736C65.6058 12.0792 65.6058 8.4904 61.2069 6.29599ZM57.5067 11.142H51.3207C50.851 11.142 50.4615 10.7534 50.4615 10.2848C50.4615 9.81619 50.851 9.4276 51.3207 9.4276H57.5067C57.9764 9.4276 58.3659 9.81619 58.3659 10.2848C58.3659 10.7534 57.9764 11.142 57.5067 11.142Z" fill="#15161E"/>
<path d="M9.95786 23.9999H16.0855V22.468H9.95786V23.9999ZM16.0855 23.9999C18.7143 23.9999 20.7537 23.4789 22.1165 22.116C23.4794 20.7532 24.0004 18.7138 24.0004 16.085H22.4685C22.4685 18.5627 21.9683 20.0977 21.0333 21.0328C20.0982 21.9678 18.5631 22.468 16.0855 22.468V23.9999ZM24.0004 16.085V9.95737H22.4685V16.085H24.0004ZM24.0004 9.95737C24.0004 7.32864 23.4794 5.28926 22.1165 3.9264C20.7537 2.56354 18.7143 2.04248 16.0855 2.04248V3.5744C18.5631 3.5744 20.0982 4.07462 21.0333 5.00963C21.9683 5.94464 22.4685 7.47973 22.4685 9.95737H24.0004ZM16.0855 2.04248H9.95786V3.5744H16.0855V2.04248ZM9.95786 2.04248C7.32913 2.04248 5.28975 2.56354 3.92689 3.9264C2.56403 5.28926 2.04297 7.32864 2.04297 9.95737H3.57488C3.57488 7.47973 4.0751 5.94464 5.01011 5.00963C5.94512 4.07462 7.48021 3.5744 9.95786 3.5744V2.04248ZM2.04297 9.95737V16.085H3.57488V9.95737H2.04297ZM2.04297 16.085C2.04297 18.7138 2.56403 20.7532 3.92689 22.116C5.28975 23.4789 7.32913 23.9999 9.95786 23.9999V22.468C7.48021 22.468 5.94512 21.9678 5.01011 21.0328C4.0751 20.0977 3.57488 18.5627 3.57488 16.085H2.04297Z" fill="#93989A"/>
<path d="M17.3627 9.19143C17.3627 9.61445 17.0197 9.95738 16.5967 9.95738V11.4893C17.8658 11.4893 18.8946 10.4605 18.8946 9.19143H17.3627ZM16.5967 9.95738C16.1737 9.95738 15.8307 9.61445 15.8307 9.19143H14.2988C14.2988 10.4605 15.3276 11.4893 16.5967 11.4893V9.95738ZM15.8307 9.19143C15.8307 8.7684 16.1737 8.42547 16.5967 8.42547V6.89355C15.3276 6.89355 14.2988 7.92235 14.2988 9.19143H15.8307ZM16.5967 8.42547C17.0197 8.42547 17.3627 8.7684 17.3627 9.19143H18.8946C18.8946 7.92235 17.8658 6.89355 16.5967 6.89355V8.42547Z" fill="#93989A"/>
<path d="M10.2123 9.19143C10.2123 9.61445 9.86933 9.95738 9.44631 9.95738V11.4893C10.7154 11.4893 11.7442 10.4605 11.7442 9.19143H10.2123ZM9.44631 9.95738C9.02329 9.95738 8.68035 9.61445 8.68035 9.19143H7.14844C7.14844 10.4605 8.17723 11.4893 9.44631 11.4893V9.95738ZM8.68035 9.19143C8.68035 8.7684 9.02329 8.42547 9.44631 8.42547V6.89355C8.17723 6.89355 7.14844 7.92235 7.14844 9.19143H8.68035ZM9.44631 8.42547C9.86933 8.42547 10.2123 8.7684 10.2123 9.19143H11.7442C11.7442 7.92235 10.7154 6.89355 9.44631 6.89355V8.42547Z" fill="#93989A"/>
<path d="M9.34526 15.1149H16.6985V13.583H9.34526V15.1149ZM16.6985 15.1149C16.7861 15.1149 16.8516 15.1805 16.8516 15.2681H18.3836C18.3836 14.3344 17.6321 13.583 16.6985 13.583V15.1149ZM16.8516 15.2681C16.8516 17.3881 15.1418 19.0979 13.0219 19.0979V20.6298C15.9879 20.6298 18.3836 18.2341 18.3836 15.2681H16.8516ZM13.0219 19.0979C10.9019 19.0979 9.19207 17.3881 9.19207 15.2681H7.66016C7.66016 18.2341 10.0559 20.6298 13.0219 20.6298V19.0979ZM9.19207 15.2681C9.19207 15.1805 9.25765 15.1149 9.34526 15.1149V13.583C8.4116 13.583 7.66016 14.3344 7.66016 15.2681H9.19207Z" fill="#93989A"/>
</svg>
