<svg width="56" height="14" viewBox="0 0 56 14" fill="none" xmlns="http://www.w3.org/2000/svg">
<path d="M5.19399 14C4.42596 14 3.68721 13.8779 2.97776 13.6336C2.2683 13.3893 1.64997 13.039 1.12276 12.5826C0.60206 12.1263 0.227807 11.5895 0 10.9725L2.75321 9.9697C2.81829 10.1625 2.96474 10.3457 3.19255 10.5193C3.42686 10.6928 3.7165 10.8343 4.06147 10.9435C4.41294 11.0528 4.79045 11.1074 5.19399 11.1074C5.58452 11.1074 5.95226 11.0528 6.29723 10.9435C6.6487 10.8278 6.92858 10.6703 7.13686 10.4711C7.35165 10.2654 7.45904 10.034 7.45904 9.77686C7.45904 9.40404 7.241 9.11157 6.80491 8.89945C6.37533 8.68733 5.83836 8.53627 5.19399 8.44628C3.57982 8.21488 2.31061 7.76492 1.38637 7.09642C0.462122 6.42792 0 5.47016 0 4.22314C0 3.4068 0.23757 2.67723 0.712709 2.03444C1.18785 1.39164 1.82245 0.893481 2.61652 0.539945C3.4171 0.179982 4.27626 0 5.19399 0C5.96853 0 6.71053 0.122131 7.41999 0.366392C8.12944 0.610653 8.74452 0.964188 9.26522 1.427C9.79243 1.88338 10.1667 2.42332 10.388 3.04683L7.63478 4.0303C7.56969 3.83747 7.41999 3.65748 7.18567 3.49036C6.95136 3.3168 6.65521 3.1786 6.29723 3.07576C5.93924 2.96648 5.55197 2.91185 5.13541 2.91185C4.76441 2.91185 4.40969 2.9697 4.07123 3.0854C3.73277 3.2011 3.45615 3.3618 3.24136 3.56749C3.03308 3.76676 2.92894 3.98531 2.92894 4.22314C2.92894 4.55096 3.02332 4.80165 3.21207 4.97521C3.40734 5.14233 3.64816 5.26125 3.93455 5.33196C4.22093 5.40266 4.64075 5.47658 5.19399 5.55372C6.17681 5.69513 7.0555 5.94261 7.83004 6.29614C8.61109 6.64968 9.23268 7.11892 9.6948 7.70386C10.1569 8.2888 10.388 8.9798 10.388 9.77686C10.388 10.5932 10.1504 11.3228 9.67527 11.9656C9.20664 12.6084 8.57529 13.1097 7.78122 13.4697C6.98715 13.8232 6.12474 14 5.19399 14Z" fill="#4A74EA"/>
<path d="M12.9232 0.250689H21.6319V3.14325H15.8521V5.07163H20.3041V7.96419H15.8521V10.8567H21.6319V13.7493H12.9232V0.250689Z" fill="#4A74EA"/>
<path d="M23.9685 0.250689H26.9951L29.1039 8.427L31.2128 0.250689H33.9074L36.0162 8.427L38.1251 0.250689H41.1516L37.676 13.7493H34.376L32.5601 6.74931L30.7637 13.7493H27.4637L23.9685 0.250689Z" fill="#4A74EA"/>
<path d="M49.2634 14C48.0463 14 46.9203 13.685 45.8854 13.0551C44.857 12.4252 44.0402 11.5767 43.4348 10.5096C42.8295 9.43618 42.5269 8.2663 42.5269 7C42.5269 5.7337 42.8295 4.56703 43.4348 3.5C44.0402 2.42654 44.857 1.57484 45.8854 0.944904C46.9203 0.314968 48.0463 0 49.2634 0C50.4806 0 51.6033 0.314968 52.6317 0.944904C53.6666 1.57484 54.4867 2.42654 55.092 3.5C55.6973 4.56703 56 5.7337 56 7C56 8.2663 55.6973 9.43618 55.092 10.5096C54.4867 11.5767 53.6666 12.4252 52.6317 13.0551C51.6033 13.685 50.4806 14 49.2634 14ZM49.2634 11.1074C49.9469 11.1074 50.5815 10.9242 51.1672 10.5579C51.753 10.185 52.2152 9.68365 52.5536 9.05372C52.8986 8.42378 53.0711 7.73921 53.0711 7C53.0711 6.26079 52.8986 5.57622 52.5536 4.94628C52.2152 4.31635 51.753 3.81818 51.1672 3.45179C50.5815 3.07897 49.9469 2.89256 49.2634 2.89256C48.58 2.89256 47.9454 3.07897 47.3596 3.45179C46.7738 3.81818 46.3085 4.31635 45.9635 4.94628C45.625 5.57622 45.4558 6.26079 45.4558 7C45.4558 7.73921 45.625 8.42378 45.9635 9.05372C46.3085 9.68365 46.7738 10.185 47.3596 10.5579C47.9454 10.9242 48.58 11.1074 49.2634 11.1074Z" fill="#4A74EA"/>
</svg>
