<svg width="47" height="33" viewBox="0 0 47 33" fill="none" xmlns="http://www.w3.org/2000/svg">
<g clip-path="url(#clip0_52_37076)">
<path d="M13.3271 12.3874L13.2801 13.7604H11.2641L11.2461 12.3874C11.2461 9.82039 13.3401 7.73839 15.9241 7.73839C16.8041 7.73839 17.6271 7.98039 18.3301 8.39939L20.5581 6.30839H20.0441C19.9184 6.30879 19.7939 6.28442 19.6776 6.23669C19.5614 6.18896 19.4557 6.1188 19.3665 6.03021C19.2774 5.94163 19.2065 5.83635 19.1581 5.72039C19.1096 5.60443 19.0845 5.48007 19.0841 5.35439C19.0841 4.82739 19.5141 4.40039 20.0441 4.40039H22.9231C23.1767 4.40039 23.4199 4.5007 23.5998 4.67944C23.7797 4.85818 23.8815 5.10082 23.8831 5.35439V8.21539C23.8831 8.74239 23.4531 9.16939 22.9231 9.16939C22.7974 9.16979 22.6729 9.14542 22.5566 9.09769C22.4404 9.04996 22.3347 8.9798 22.2455 8.89121C22.1564 8.80263 22.0855 8.69735 22.0371 8.58139C21.9886 8.46543 21.9635 8.34107 21.9631 8.21539V7.60839L19.7401 9.69839C20.3015 10.4829 20.6026 11.4237 20.6011 12.3884C20.6011 14.9524 18.5111 17.0324 15.9261 17.0364C15.6528 17.0361 15.3908 16.9274 15.1977 16.7341C15.0046 16.5407 14.8961 16.2787 14.8961 16.0054C14.8961 15.4374 15.3561 14.9754 15.9241 14.9704C16.2643 14.9714 16.6014 14.9055 16.9161 14.7762C17.2308 14.647 17.5169 14.457 17.7582 14.2171C17.9995 13.9772 18.1911 13.6922 18.3222 13.3782C18.4532 13.0643 18.5212 12.7276 18.5221 12.3874C18.5212 12.0472 18.4532 11.7105 18.3222 11.3965C18.1911 11.0826 17.9995 10.7975 17.7582 10.5577C17.5169 10.3178 17.2308 10.1278 16.9161 9.99857C16.6014 9.86932 16.2643 9.80334 15.9241 9.80439C15.5839 9.80334 15.2469 9.86933 14.9323 9.99859C14.6176 10.1279 14.3315 10.3179 14.0903 10.5577C13.8492 10.7976 13.6576 11.0827 13.5267 11.3966C13.3957 11.7106 13.3279 12.0472 13.3271 12.3874Z" fill="#2D87D4"/>
<path fill-rule="evenodd" clip-rule="evenodd" d="M8.20619 8.7207L8.2402 8.7217C8.3749 8.7249 8.5076 8.75503 8.63049 8.8103C8.75337 8.86556 8.86396 8.94486 8.95573 9.04352C9.0475 9.14218 9.1186 9.2582 9.16485 9.38476C9.21109 9.51132 9.23155 9.64585 9.22501 9.78043C9.21847 9.91502 9.18507 10.0469 9.12677 10.1684C9.06847 10.2899 8.98646 10.3985 8.88556 10.4878C8.78465 10.5771 8.6669 10.6453 8.53924 10.6884C8.41157 10.7315 8.27658 10.7486 8.1422 10.7387C7.54862 10.7579 6.97384 10.9516 6.48959 11.2954C6.00533 11.6392 5.63303 12.118 5.41913 12.672C5.20524 13.226 5.15922 13.8308 5.28681 14.4108C5.41441 14.9908 5.70997 15.5204 6.13663 15.9336C6.56328 16.3467 7.10214 16.625 7.68597 16.7339C8.26981 16.8427 8.87277 16.7773 9.41962 16.5456C9.96648 16.314 10.433 15.9265 10.7611 15.4314C11.0891 14.9363 11.2641 14.3556 11.2642 13.7617H13.2802C13.28 14.9234 12.8786 16.0495 12.144 16.9494C11.4093 17.8494 10.3864 18.468 9.2482 18.7007V19.8097H10.2562C10.5235 19.8097 10.7799 19.9159 10.969 20.1049C11.158 20.294 11.2642 20.5504 11.2642 20.8177C11.2642 21.085 11.158 21.3414 10.969 21.5305C10.7799 21.7195 10.5235 21.8257 10.2562 21.8257H9.2482V22.8337C9.2482 23.101 9.142 23.3574 8.95296 23.5465C8.76392 23.7355 8.50753 23.8417 8.2402 23.8417C7.97286 23.8417 7.71647 23.7355 7.52743 23.5465C7.33839 23.3574 7.23219 23.101 7.23219 22.8337V21.8257H6.2242C5.95686 21.8257 5.70047 21.7195 5.51143 21.5305C5.3224 21.3414 5.2162 21.085 5.2162 20.8177C5.2162 20.5504 5.3224 20.294 5.51143 20.1049C5.70047 19.9159 5.95686 19.8097 6.2242 19.8097H7.23219V18.6997C6.09434 18.4671 5.07169 17.8487 4.33705 16.9492C3.60241 16.0497 3.20084 14.9241 3.2002 13.7627C3.2002 10.9997 5.42319 8.7557 8.20619 8.7227V8.7207Z" fill="#E34449"/>
</g>
<g clip-path="url(#clip1_52_37076)">
<g clip-path="url(#clip2_52_37076)">
<path d="M35 11.5L40 16.5L45 11.5H35Z" fill="white"/>
</g>
</g>
<defs>
<clipPath id="clip0_52_37076">
<rect width="24" height="24" fill="white" transform="translate(2 2)"/>
</clipPath>
<clipPath id="clip1_52_37076">
<rect width="10" height="10" fill="white" transform="translate(35 11.5)"/>
</clipPath>
<clipPath id="clip2_52_37076">
<rect width="10" height="5" fill="white" transform="translate(35 11.5)"/>
</clipPath>
</defs>
</svg>
