<svg width="17" height="17" viewBox="0 0 17 17" fill="none" xmlns="http://www.w3.org/2000/svg">
<path d="M9.96882 1.21753L11.4647 4.2093C11.6687 4.62576 12.2126 5.02523 12.6716 5.10173L15.3829 5.55219C17.1168 5.84117 17.5247 7.09907 16.2753 8.33997L14.1675 10.4478C13.8105 10.8048 13.615 11.4932 13.7255 11.9862L14.329 14.5955C14.8049 16.6608 13.7085 17.4598 11.8812 16.3803L9.33986 14.876C8.8809 14.604 8.12446 14.604 7.657 14.876L5.11569 16.3803C3.29684 17.4598 2.19192 16.6523 2.66788 14.5955L3.27134 11.9862C3.38183 11.4932 3.18634 10.8048 2.82937 10.4478L0.721536 8.33997C-0.519367 7.09907 -0.119898 5.84117 1.61397 5.55219L4.32526 5.10173C4.77572 5.02523 5.31968 4.62576 5.52366 4.2093L7.01955 1.21753C7.83548 -0.405843 9.16138 -0.405843 9.96882 1.21753Z" fill="#EFDF4F"/>
</svg>
