<svg width="15" height="19" viewBox="0 0 15 19" fill="none" xmlns="http://www.w3.org/2000/svg">
<mask id="mask0_0_578" style="mask-type:luminance" maskUnits="userSpaceOnUse" x="-4" y="-2" width="23" height="23">
<rect x="-3.75025" y="-1.85565" width="22.4995" height="22.4995" fill="white"/>
</mask>
<g mask="url(#mask0_0_578)">
<path fill-rule="evenodd" clip-rule="evenodd" d="M11.2491 9.39448V3.7696C11.2491 1.69121 9.57568 0 7.51885 0C7.45417 0 7.38761 0.00843726 7.32292 0.0234371C5.3364 0.117185 3.74925 1.76059 3.74925 3.7696V9.39448C3.74925 11.4626 5.43109 13.1444 7.49917 13.1444C9.56725 13.1444 11.2491 11.4626 11.2491 9.39448ZM5.62425 9.39439V3.76951C5.62425 2.73547 6.46517 1.89456 7.49921 1.89456C7.55077 1.89456 7.60139 1.88987 7.65202 1.88049C8.61293 1.9508 9.37417 2.7711 9.37417 3.76951V9.39439C9.37417 10.4284 8.53325 11.2693 7.49921 11.2693C6.46517 11.2693 5.62425 10.4284 5.62425 9.39439Z" fill="#8F9198"/>
<path fill-rule="evenodd" clip-rule="evenodd" d="M1.87496 9.3941H0C0 13.2115 2.86962 16.3652 6.56235 16.8292V18.7689H8.43731V16.8292C12.13 16.3652 14.9997 13.2125 14.9997 9.3941H13.1247C13.1247 12.4962 10.602 15.019 7.49983 15.019C4.39771 15.019 1.87496 12.4962 1.87496 9.3941Z" fill="#8F9198"/>
</g>
</svg>
