<svg width="18" height="18" viewBox="0 0 18 18" fill="none" xmlns="http://www.w3.org/2000/svg">
<path fill-rule="evenodd" clip-rule="evenodd" d="M13.5007 5.62472C13.1857 5.62472 12.9044 5.74847 12.7019 5.95097L9.0007 9.66347L5.29945 5.95097C5.19455 5.84608 5.07003 5.76287 4.93298 5.7061C4.79593 5.64934 4.64904 5.62012 4.5007 5.62012C4.20111 5.62012 3.91379 5.73913 3.70195 5.95097C3.59705 6.05586 3.51385 6.18039 3.45708 6.31744C3.40031 6.45449 3.37109 6.60138 3.37109 6.74972C3.37109 7.04931 3.49011 7.33663 3.70195 7.54847L8.20195 12.0485C8.40445 12.251 8.6857 12.3747 9.0007 12.3747C9.3157 12.3747 9.59695 12.251 9.79945 12.0485L14.2994 7.54847C14.4564 7.39048 14.5632 7.18956 14.6062 6.97103C14.6492 6.75249 14.6266 6.52611 14.5412 6.3204C14.4558 6.1147 14.3114 5.93887 14.1262 5.81507C13.9411 5.69127 13.7234 5.62504 13.5007 5.62472Z" fill="#2D3340"/>
</svg>
