<svg width="24" height="24" viewBox="0 0 24 24" fill="none" xmlns="http://www.w3.org/2000/svg">
<path fill-rule="evenodd" clip-rule="evenodd" d="M6.25 17.9126C7.75 20.0376 9.667 21.3916 12 21.9746C14.333 21.3916 16.25 20.0366 17.75 17.9116C19.25 15.7876 20 13.4576 20 10.9246V4.97461L12 1.97461L4 4.97461V10.9246C4 13.4576 4.75 15.7866 6.25 17.9126ZM16.688 16.8366C15.479 18.5956 13.917 19.7916 12 20.4246C10.083 19.7916 8.52 18.5946 7.312 16.8366C6.104 15.0796 5.5 13.1076 5.5 10.9246V6.02461L12 3.57461L18.5 6.02461V10.9246C18.5 13.1076 17.897 15.0786 16.688 16.8366Z" fill="#F4BB2E"/>
<path fill-rule="evenodd" clip-rule="evenodd" d="M12 20.4242C13.917 19.7912 15.48 18.5942 16.688 16.8362C17.896 15.0782 18.5 13.1072 18.5 10.9242V6.02422L12 3.57422L5.5 6.02422V10.9242C5.5 13.1072 6.104 15.0782 7.313 16.8362C8.521 18.5952 10.083 19.7912 12 20.4242ZM16.6 9.62422L10.9 15.3242L7.35 11.7492L8.45 10.6492L10.975 13.1742L15.55 8.59922L16.6 9.62422Z" fill="#F4BB2E"/>
</svg>
