<svg width="1" height="24" viewBox="0 0 1 24" fill="none" xmlns="http://www.w3.org/2000/svg">
<mask id="path-1-inside-1_4_8506" fill="white">
<ellipse cx="0.0850794" cy="12" rx="0.0850794" ry="12"/>
</mask>
<ellipse cx="0.0850794" cy="12" rx="0.0850794" ry="12" fill="white"/>
<path d="M-0.829841 12C-0.829841 15.3121 -0.83936 18.3097 -0.854735 20.4782C-0.862426 21.5629 -0.871566 22.4378 -0.881663 23.0402C-0.886728 23.3424 -0.891955 23.5709 -0.897174 23.7216C-0.899851 23.7988 -0.902197 23.8455 -0.903794 23.8684C-0.904852 23.8836 -0.904413 23.871 -0.900902 23.8459C-0.90006 23.8398 -0.893531 23.7902 -0.875727 23.7266C-0.868995 23.7025 -0.844078 23.6136 -0.786425 23.5106C-0.757935 23.4597 -0.694428 23.3557 -0.580557 23.254C-0.460806 23.147 -0.233911 23 0.0850794 23V25C0.404437 25 0.631698 24.8528 0.751816 24.7455C0.866053 24.6435 0.929927 24.539 0.958783 24.4874C1.01717 24.3831 1.04282 24.2922 1.05028 24.2656C1.06954 24.1967 1.07753 24.1393 1.07982 24.1229C1.08623 24.0771 1.08955 24.0335 1.09135 24.0077C1.09547 23.9486 1.09876 23.8734 1.10163 23.7908C1.10748 23.6218 1.11294 23.3788 1.11806 23.0737C1.12832 22.4617 1.13751 21.5792 1.14521 20.4924C1.16063 18.3178 1.17016 15.3153 1.17016 12H-0.829841ZM0.0850794 23C0.40407 23 0.630964 23.147 0.750716 23.254C0.864586 23.3557 0.928094 23.4597 0.956584 23.5106C1.01424 23.6136 1.03915 23.7025 1.04589 23.7266C1.06369 23.7902 1.07022 23.8398 1.07106 23.8459C1.07457 23.871 1.07501 23.8836 1.07395 23.8684C1.07236 23.8455 1.07001 23.7988 1.06733 23.7216C1.06211 23.5709 1.05689 23.3424 1.05182 23.0402C1.04172 22.4378 1.03258 21.5629 1.02489 20.4782C1.00952 18.3097 1 15.3121 1 12H-1C-1 15.3153 -0.990474 18.3178 -0.975056 20.4924C-0.96735 21.5792 -0.958157 22.4617 -0.947897 23.0737C-0.942783 23.3788 -0.937324 23.6218 -0.931467 23.7908C-0.928605 23.8734 -0.925315 23.9486 -0.921191 24.0077C-0.919389 24.0335 -0.91607 24.0771 -0.909658 24.1229C-0.907366 24.1393 -0.899383 24.1967 -0.880119 24.2656C-0.872657 24.2922 -0.847009 24.3831 -0.788624 24.4874C-0.759768 24.539 -0.695895 24.6435 -0.581657 24.7455C-0.46154 24.8528 -0.234278 25 0.0850794 25V23ZM1 12C1 8.68787 1.00952 5.69035 1.02489 3.52181C1.03258 2.43705 1.04172 1.56216 1.05182 0.95978C1.05689 0.657615 1.06211 0.429078 1.06733 0.278424C1.07001 0.201174 1.07236 0.154467 1.07395 0.131599C1.07501 0.116443 1.07457 0.12903 1.07106 0.154135C1.07022 0.160155 1.06369 0.209791 1.04589 0.273412C1.03915 0.297468 1.01424 0.38641 0.956584 0.48941C0.928094 0.540309 0.864586 0.644314 0.750716 0.746031C0.630964 0.853001 0.40407 1 0.0850794 1V-1C-0.234278 -1 -0.46154 -0.852837 -0.581657 -0.74554C-0.695895 -0.643495 -0.759768 -0.539 -0.788624 -0.487446C-0.847009 -0.383139 -0.872657 -0.292237 -0.880119 -0.265573C-0.899383 -0.196737 -0.907366 -0.139294 -0.909658 -0.122906C-0.91607 -0.0770661 -0.919389 -0.0335018 -0.921191 -0.00768941C-0.925315 0.0513784 -0.928605 0.12657 -0.931467 0.20917C-0.937324 0.378219 -0.942783 0.621191 -0.947897 0.926259C-0.958157 1.53834 -0.96735 2.42081 -0.975056 3.50763C-0.990474 5.68224 -1 8.68471 -1 12H1ZM0.0850794 1C-0.233911 1 -0.460806 0.853001 -0.580557 0.746031C-0.694428 0.644314 -0.757935 0.540309 -0.786425 0.48941C-0.844078 0.38641 -0.868995 0.297468 -0.875727 0.273412C-0.893531 0.209791 -0.90006 0.160155 -0.900902 0.154135C-0.904413 0.12903 -0.904852 0.116443 -0.903794 0.131599C-0.902197 0.154467 -0.899851 0.201174 -0.897174 0.278424C-0.891955 0.429078 -0.886728 0.657615 -0.881663 0.95978C-0.871566 1.56216 -0.862426 2.43705 -0.854735 3.52181C-0.83936 5.69035 -0.829841 8.68787 -0.829841 12H1.17016C1.17016 8.68471 1.16063 5.68224 1.14521 3.50763C1.13751 2.42081 1.12832 1.53834 1.11806 0.926259C1.11294 0.621191 1.10748 0.378219 1.10163 0.20917C1.09876 0.12657 1.09547 0.0513784 1.09135 -0.00768941C1.08955 -0.0335018 1.08623 -0.0770661 1.07982 -0.122906C1.07753 -0.139294 1.06954 -0.196737 1.05028 -0.265573C1.04282 -0.292237 1.01717 -0.383139 0.958783 -0.487446C0.929927 -0.539 0.866053 -0.643495 0.751816 -0.74554C0.631698 -0.852837 0.404437 -1 0.0850794 -1V1Z" fill="#393D46" mask="url(#path-1-inside-1_4_8506)"/>
<mask id="path-3-inside-2_4_8506" fill="white">
<ellipse cx="0.191525" cy="12" rx="0.0850794" ry="12"/>
</mask>
<ellipse cx="0.191525" cy="12" rx="0.0850794" ry="12" fill="white"/>
<path d="M-3.7234 12C-3.7234 15.3074 -3.7329 18.2975 -3.74821 20.4569C-3.75588 21.5386 -3.76494 22.4021 -3.7748 22.9899C-3.77979 23.2877 -3.78467 23.4946 -3.78893 23.6177C-3.79133 23.6869 -3.79226 23.6909 -3.79006 23.6595C-3.79001 23.6586 -3.78393 23.5618 -3.76554 23.4303C-3.75999 23.3907 -3.73169 23.1804 -3.65829 22.9181C-3.63027 22.818 -3.5295 22.4593 -3.29779 22.0453C-3.18328 21.8407 -2.9287 21.424 -2.47267 21.0166C-1.99312 20.5882 -1.08499 20 0.191525 20V28C1.4684 28 2.3769 27.4116 2.85682 26.9829C3.31322 26.5752 3.56816 26.158 3.68304 25.9527C3.91548 25.5375 4.01698 25.1768 4.04573 25.0741C4.1206 24.8065 4.15035 24.5885 4.15734 24.5385C4.17864 24.3862 4.18759 24.2584 4.19051 24.2166C4.19843 24.1033 4.20313 23.9853 4.20627 23.8947C4.21309 23.6981 4.21889 23.4334 4.22408 23.124C4.23458 22.4974 4.24386 21.6036 4.25158 20.5136C4.26707 18.3299 4.2766 15.32 4.2766 12H-3.7234ZM0.191525 20C1.46804 20 2.37617 20.5882 2.85572 21.0166C3.31175 21.424 3.56633 21.8407 3.68084 22.0453C3.91255 22.4593 4.01332 22.818 4.04134 22.9181C4.11474 23.1804 4.14304 23.3907 4.14858 23.4303C4.16698 23.5618 4.17306 23.6586 4.17311 23.6595C4.17531 23.6909 4.17438 23.6869 4.17198 23.6177C4.16772 23.4946 4.16284 23.2877 4.15785 22.9899C4.14799 22.4021 4.13893 21.5386 4.13126 20.4569C4.11595 18.2975 4.10645 15.3074 4.10645 12H-3.89355C-3.89355 15.32 -3.88402 18.3299 -3.86854 20.5136C-3.86081 21.6036 -3.85153 22.4974 -3.84103 23.124C-3.83584 23.4334 -3.83004 23.6981 -3.82322 23.8947C-3.82008 23.9853 -3.81538 24.1033 -3.80746 24.2166C-3.80454 24.2584 -3.79559 24.3862 -3.77429 24.5385C-3.7673 24.5885 -3.73755 24.8065 -3.66268 25.0741C-3.63393 25.1768 -3.53243 25.5375 -3.29999 25.9527C-3.18512 26.158 -2.93017 26.5752 -2.47377 26.9829C-1.99385 27.4116 -1.08535 28 0.191525 28V20ZM4.10645 12C4.10645 8.69261 4.11595 5.70251 4.13126 3.54308C4.13893 2.46142 4.14799 1.5979 4.15785 1.01006C4.16284 0.712251 4.16772 0.505366 4.17198 0.382305C4.17438 0.313081 4.17531 0.3091 4.17311 0.340531C4.17306 0.341361 4.16698 0.438174 4.14858 0.569695C4.14304 0.609327 4.11474 0.819582 4.04134 1.08189C4.01332 1.18203 3.91255 1.54073 3.68084 1.95469C3.56633 2.15927 3.31175 2.57603 2.85572 2.98339C2.37617 3.41176 1.46804 4 0.191525 4V-4C-1.08535 -4 -1.99385 -3.41159 -2.47377 -2.9829C-2.93017 -2.57521 -3.18512 -2.15796 -3.29999 -1.95273C-3.53243 -1.53746 -3.63393 -1.1768 -3.66268 -1.07405C-3.73755 -0.806528 -3.7673 -0.588466 -3.77429 -0.538466C-3.79559 -0.38621 -3.80454 -0.258419 -3.80746 -0.216622C-3.81538 -0.103254 -3.82008 0.0146631 -3.82322 0.10529C-3.83004 0.30193 -3.83584 0.566555 -3.84103 0.875979C-3.85153 1.50261 -3.86081 2.39644 -3.86854 3.48636C-3.88402 5.67007 -3.89355 8.67998 -3.89355 12H4.10645ZM0.191525 4C-1.08499 4 -1.99312 3.41176 -2.47267 2.98339C-2.9287 2.57603 -3.18328 2.15927 -3.29779 1.95469C-3.5295 1.54073 -3.63027 1.18203 -3.65829 1.08189C-3.73169 0.819582 -3.75999 0.609327 -3.76554 0.569695C-3.78393 0.438174 -3.79001 0.341361 -3.79006 0.340531C-3.79226 0.3091 -3.79133 0.313081 -3.78893 0.382305C-3.78467 0.505366 -3.77979 0.712251 -3.7748 1.01006C-3.76494 1.5979 -3.75588 2.46142 -3.74821 3.54308C-3.7329 5.70251 -3.7234 8.69261 -3.7234 12H4.2766C4.2766 8.67998 4.26707 5.67007 4.25158 3.48636C4.24386 2.39644 4.23458 1.50261 4.22408 0.875979C4.21889 0.566555 4.21309 0.30193 4.20627 0.10529C4.20313 0.0146631 4.19843 -0.103254 4.19051 -0.216622C4.18759 -0.258419 4.17864 -0.38621 4.15734 -0.538466C4.15035 -0.588466 4.1206 -0.806528 4.04573 -1.07405C4.01698 -1.1768 3.91548 -1.53746 3.68304 -1.95273C3.56816 -2.15796 3.31322 -2.57521 2.85682 -2.9829C2.3769 -3.41159 1.4684 -4 0.191525 -4V4Z" fill="#393D46" mask="url(#path-3-inside-2_4_8506)"/>
</svg>
