<svg width="20" height="16" viewBox="0 0 20 16" fill="none" xmlns="http://www.w3.org/2000/svg">
<path d="M10.227 12.8541H2.57536C1.46789 12.8541 0.662462 12.0809 0.662462 11.2217V3.57551C0.561783 2.63047 1.46789 1.85725 2.57536 1.85725H14.4555C15.563 1.85725 16.3684 2.63047 16.3684 3.4896V7.52749" stroke="#8F9CAC" stroke-width="1.3" stroke-miterlimit="10" stroke-linecap="round" stroke-linejoin="round"/>
<path d="M4.58955 3.05987V0.654315" stroke="#8F9CAC" stroke-width="1.3" stroke-miterlimit="10" stroke-linecap="round" stroke-linejoin="round"/>
<path d="M12.4433 3.05987V0.654315" stroke="#8F9CAC" stroke-width="1.3" stroke-miterlimit="10" stroke-linecap="round" stroke-linejoin="round"/>
<path d="M14.556 15.3455C17.1693 15.3455 19.2879 13.5377 19.2879 11.3076C19.2879 9.07756 17.1693 7.26973 14.556 7.26973C11.9426 7.26973 9.82407 9.07756 9.82407 11.3076C9.82407 13.5377 11.9426 15.3455 14.556 15.3455Z" stroke="#8F9CAC" stroke-width="1.3" stroke-miterlimit="10" stroke-linecap="round" stroke-linejoin="round"/>
<path d="M14.5572 9.15992V11.3077L15.6646 12.1669" stroke="#8F9CAC" stroke-width="1.3" stroke-miterlimit="10" stroke-linecap="round" stroke-linejoin="round"/>
</svg>
