<svg width="30" height="30" viewBox="0 0 30 30" fill="none" xmlns="http://www.w3.org/2000/svg">
<g clip-path="url(#clip0_52_41219)">
<path d="M19.4064 22.2188C19.0314 21 18.2814 19.9688 17.3439 19.0312C16.5939 20.5312 15.2814 21.8438 13.8752 22.4063C11.0627 23.4375 8.25019 21.75 5.53144 20.3438C5.25019 20.7188 5.06269 21 4.96894 21.2813C4.03144 23.5313 4.59394 25.6875 6.37519 26.625C9.37519 28.3125 15.0939 28.5938 18.5627 29.1563C19.8752 29.3438 21.1877 28.7813 22.0314 27.6563C21.0002 25.9688 19.9689 24.1875 19.4064 22.2188Z" fill="#94AAAF"/>
<path d="M8.15609 15.8437C8.15609 15.8437 7.78109 17.0625 5.43734 17.0625C5.43734 17.0625 1.40609 8.71875 8.43734 2.90625L8.15609 15.8437ZM17.5311 4.78125C17.5311 4.78125 20.8123 10.5 18.3748 19.2188C18.3748 19.2188 22.0311 19.2187 24.4686 16.2187C25.9686 14.4375 24.8436 9.46875 23.9061 6.28125C23.3436 4.3125 21.4686 3.5625 19.4998 4.125L17.5311 4.78125Z" fill="#6A8189"/>
<path d="M8.25026 15.1875C8.25026 15.1875 7.87526 16.4062 5.71901 16.4062C5.71901 16.4062 1.96901 8.4375 8.53151 3L8.25026 15.1875Z" fill="#425763"/>
<path d="M14.25 20.8125C15.75 20.25 16.9687 18.9375 17.7187 17.4375C17.3437 16.9688 16.875 16.5938 16.4062 16.125C12.5625 15.1875 8.8125 15.75 7.6875 16.5938C7.3125 16.875 6.46875 17.9063 5.90625 18.8438C8.53125 20.1563 11.4375 21.8438 14.25 20.8125Z" fill="#A67A65"/>
<path d="M19.7814 20.625C19.4064 19.4062 18.6564 18.375 17.7189 17.4375C16.9689 18.9375 15.6564 20.25 14.2502 20.8125C11.4377 21.8438 8.6252 20.1562 5.90645 18.75C5.6252 19.125 5.43769 19.4062 5.34394 19.6875C4.40644 21.9375 4.96894 24.0938 6.75019 25.0312C9.75019 26.7188 15.4689 27 18.9377 27.5625C20.2502 27.75 21.5627 27.1875 22.4064 26.0625C21.3752 24.375 20.4377 22.5937 19.7814 20.625Z" fill="#B0C6CC"/>
<path d="M19.7813 20.625C20.4375 22.5937 21.375 24.375 22.4062 26.1562C23.25 25.0312 23.7187 23.3437 23.3437 21.6562V21.5625C23.0625 20.25 22.4062 19.125 21.4687 18.4688C19.875 17.3438 18.1875 16.5938 16.4062 16.125C17.8125 17.4375 19.125 18.8437 19.7813 20.625Z" fill="#A67A65"/>
<path d="M6.84417 23.437C5.25042 22.687 5.81292 20.9058 6.65667 18.937C6.93792 18.2808 7.68792 17.6245 8.15667 17.3433C9.56292 16.4058 16.2192 15.7495 20.9067 18.8433C21.7504 19.4058 22.4067 20.3433 22.6879 21.4683V21.562C23.3442 24.4683 21.1879 26.9995 18.6567 26.6245C15.3754 26.1558 9.65667 24.8433 6.84417 23.437Z" fill="#E5A98C"/>
<path d="M6.74957 23.437C5.34332 22.687 5.53082 21.187 6.28082 19.2182C6.56207 18.562 8.15582 17.2495 8.53082 16.9682C9.74957 16.0307 14.8121 15.7495 18.8433 18.8432C19.5933 19.4057 20.1558 20.3432 20.3433 21.4682V21.562C20.9058 24.4682 19.0308 26.9995 16.8746 26.6245C14.0621 26.1557 9.09332 24.8432 6.74957 23.437Z" fill="#FAEACF"/>
<path d="M6.37549 19.0303C7.12549 19.6866 10.688 22.4053 21.2817 22.5928C21.2817 22.5928 22.7817 24.7491 22.313 26.0616C22.313 26.0616 17.063 26.5303 12.0005 25.3116C7.31299 24.1866 4.87549 23.5303 6.18799 19.1241C6.18799 18.9366 6.28174 18.9366 6.37549 19.0303Z" fill="#B0C6CC"/>
<path d="M6.09393 19.5C6.09393 19.5 9.00018 22.9688 21.1877 23.1563C21.1877 23.1563 22.6877 25.3125 22.2189 26.625C22.2189 26.625 16.9689 27.0938 11.9064 25.875C7.12518 24.6563 4.59393 24.0938 6.09393 19.5Z" fill="white"/>
<path d="M7.3125 4.12415C7.3125 4.12415 7.875 6.18665 10.6875 6.4679C13.5 6.6554 23.3437 5.1554 23.3437 5.1554C23.3437 5.1554 20.8125 0.2804 14.8125 -0.000850063C10.125 -0.18835 7.6875 3.4679 7.3125 4.12415Z" fill="#6A8189"/>
<path d="M19.3125 4.68673L20.3438 8.99923C20.3438 8.99923 14.9062 10.8742 6.5625 6.93673C6.5625 6.93673 6.5625 4.03048 9.1875 2.24923C11.8125 0.467975 19.3125 4.68673 19.3125 4.68673Z" fill="#6A8189"/>
<path d="M22.9466 10.7175C22.9641 5.90225 19.0747 1.98459 14.2595 1.96714C9.44424 1.94969 5.52658 5.83906 5.50913 10.6543C5.49168 15.4695 9.38106 19.3872 14.1963 19.4046C19.0115 19.4221 22.9292 15.5327 22.9466 10.7175Z" fill="#A67A65"/>
<path d="M22.5159 10.0631C22.5328 5.4032 18.7689 1.61191 14.109 1.59503C9.4491 1.57814 5.65781 5.34205 5.64092 10.002C5.62404 14.6619 9.38795 18.4531 14.0479 18.47C18.7078 18.4869 22.499 14.723 22.5159 10.0631Z" fill="#E5A98C"/>
<path d="M22.4609 9.91059C22.477 5.45779 18.9643 1.83531 14.6151 1.81955C10.2658 1.80379 6.72699 5.40072 6.71086 9.85352C6.69472 14.3063 10.2074 17.9288 14.5566 17.9446C18.9059 17.9603 22.4447 14.3634 22.4609 9.91059Z" fill="#E8CCAA"/>
<path d="M18.1542 11.0082C18.166 7.74631 15.6152 5.09271 12.4569 5.08127C9.29849 5.06982 6.72853 7.70487 6.71671 10.9668C6.70489 14.2287 9.25568 16.8823 12.4141 16.8938C15.5724 16.9052 18.1424 14.2702 18.1542 11.0082Z" fill="#FAEACF"/>
<path d="M7.40625 4.12516C7.40625 4.12516 7.875 6.09391 10.5938 6.28141C13.3125 6.46891 22.5938 5.06266 22.5938 5.06266C22.5938 5.06266 20.25 0.468907 14.5312 0.187657C10.125 -0.093593 7.78125 3.46891 7.40625 4.12516Z" fill="#425763"/>
<path d="M15.1264 11.5972C15.1283 11.0795 14.7941 10.6585 14.3798 10.657C13.9656 10.6555 13.6283 11.074 13.6264 11.5918C13.6246 12.1096 13.9588 12.5305 14.373 12.532C14.7873 12.5335 15.1246 12.115 15.1264 11.5972Z" fill="#425763"/>
<path d="M14.6348 11.2963C14.6354 11.141 14.5519 11.0147 14.4483 11.0144C14.3448 11.014 14.2604 11.1396 14.2598 11.2949C14.2592 11.4503 14.3427 11.5765 14.4463 11.5769C14.5498 11.5772 14.6342 11.4516 14.6348 11.2963Z" fill="white"/>
<path d="M8.87058 10.2027C8.87246 9.68493 8.53819 9.26398 8.12398 9.26248C7.70977 9.26098 7.37246 9.6795 7.37058 10.1973C7.36871 10.715 7.70297 11.136 8.11719 11.1375C8.5314 11.139 8.86871 10.7205 8.87058 10.2027Z" fill="#425763"/>
<path d="M8.4727 9.9037C8.47326 9.74837 8.38977 9.62215 8.28622 9.62177C8.18267 9.6214 8.09826 9.74701 8.0977 9.90234C8.09714 10.0577 8.18063 10.1839 8.28418 10.1843C8.38773 10.1846 8.47214 10.059 8.4727 9.9037Z" fill="white"/>
<path d="M19.7812 11.343C19.7812 11.343 20.5312 10.7805 21.0937 10.968C21.6562 11.1555 21.5625 13.0305 20.1562 13.218L19.7812 11.343Z" fill="#FAEACF"/>
<path d="M17.1562 4.68885C17.1562 4.68885 20.25 10.1264 17.9063 18.3764C17.9063 18.3764 21.375 18.3764 23.7188 15.5639C25.125 13.8764 24.0938 9.18885 23.1563 6.0951C22.5938 4.2201 20.9062 3.56385 19.0312 4.12635L17.1562 4.68885Z" fill="#425763"/>
<path d="M18.8438 4.59447L19.7813 8.62572C19.7813 8.62572 14.25 10.6882 6.28125 6.93822C6.28125 6.93822 6.75 3.93822 9.1875 2.25072C11.625 0.563217 18.8438 4.59447 18.8438 4.59447Z" fill="#425763"/>
<path d="M18.375 22.7812C18.375 22.7812 18.375 26.8125 14.8125 26.4375C14.8125 26.4375 18.75 26.9063 20.4375 26.8125C20.4375 26.8125 19.5 23.3438 18.375 22.7812Z" fill="#B0C6CC"/>
<path d="M10.5 21.375C10.5 21.375 10.875 20.4375 11.7188 19.875C11.7188 19.875 11.25 20.9062 11.25 21.5625L10.5 21.375Z" fill="#A67A65"/>
<path d="M9.09375 25.4063C9.09375 25.4063 10.125 25.2188 10.875 24.375C10.875 24.375 11.1563 25.875 12.1875 26.1562C12.0938 26.1562 9.375 25.5938 9.09375 25.4063Z" fill="#B0C6CC"/>
<path d="M6.9375 6.18767C6.9375 6.18767 7.6875 5.15642 8.53125 5.25017C9.375 5.34392 13.125 7.78142 18.9375 6.93767C18.9375 6.93767 17.8125 8.15642 16.4063 8.25017C15.1875 8.34392 10.125 7.87517 6.9375 6.18767ZM19.125 16.3127C19.125 16.3127 21.75 15.6564 22.2188 14.4377C22.6875 13.2189 21.9375 5.90642 21.9375 5.90642C21.9375 5.90642 23.4375 9.75017 23.3438 14.4377C23.3438 14.4377 21.75 16.7814 19.125 17.1564V16.3127Z" fill="#6A8189"/>
<path d="M21.3755 24.3755C21.563 24.3755 23.9067 24.3755 25.5942 27.0005C26.063 27.7505 25.7817 28.688 25.0317 29.063C23.438 29.813 20.438 30.8443 17.1567 29.063C16.5005 28.688 16.1255 27.563 16.5942 26.9068C17.438 25.688 18.8442 24.2818 21.3755 24.3755Z" fill="#425763"/>
<path d="M21.3748 24.9371C21.5623 24.9371 23.531 24.9371 25.031 26.9996C25.406 27.5621 25.2185 28.3121 24.5623 28.5934C23.156 29.2496 20.6248 29.9059 17.7185 28.4996C17.156 28.2184 16.9685 27.3746 17.3435 26.9059C17.9998 25.9684 19.2185 24.8434 21.3748 24.9371C21.281 24.9371 21.281 24.9371 21.3748 24.9371Z" fill="#A2B6BA"/>
<path d="M21.2815 25.0319C21.469 25.0319 23.0628 25.0319 24.2815 26.7194C24.5628 27.1882 24.469 27.8444 23.9065 28.0319C22.7815 28.5007 20.719 29.1569 18.3753 27.9382C17.9065 27.6569 17.719 27.0944 18.094 26.6257C18.5628 25.8757 19.594 24.9382 21.2815 25.0319Z" fill="#87999B"/>
<path d="M20.9062 27.6562C24.2717 27.6562 27 24.928 27 21.5625C27 18.197 24.2717 15.4688 20.9062 15.4688C17.5408 15.4688 14.8125 18.197 14.8125 21.5625C14.8125 24.928 17.5408 27.6562 20.9062 27.6562Z" fill="#425763"/>
<path d="M20.9062 26.8125C23.9093 26.8125 26.3438 24.378 26.3438 21.375C26.3438 18.372 23.9093 15.9375 20.9062 15.9375C17.9032 15.9375 15.4688 18.372 15.4688 21.375C15.4688 24.378 17.9032 26.8125 20.9062 26.8125Z" fill="#A2B6BA"/>
<path d="M21.1875 25.875C23.9317 25.875 26.1562 23.6504 26.1562 20.9062C26.1562 18.1621 23.9317 15.9375 21.1875 15.9375C18.4433 15.9375 16.2188 18.1621 16.2188 20.9062C16.2188 23.6504 18.4433 25.875 21.1875 25.875Z" fill="#CBDEE4"/>
<path d="M23.9063 20.5312C24.5276 20.5312 25.0313 20.0276 25.0313 19.4063C25.0313 18.7849 24.5276 18.2812 23.9063 18.2812C23.2849 18.2812 22.7812 18.7849 22.7812 19.4063C22.7812 20.0276 23.2849 20.5312 23.9063 20.5312Z" fill="#425763"/>
<path d="M23.9063 19.9687C24.2687 19.9687 24.5625 19.6749 24.5625 19.3125C24.5625 18.9501 24.2687 18.6562 23.9063 18.6562C23.5438 18.6562 23.25 18.9501 23.25 19.3125C23.25 19.6749 23.5438 19.9687 23.9063 19.9687Z" fill="#4ED154"/>
<path d="M19.9687 18.9375C19.9687 18.9375 20.25 16.9687 21.75 16.2187C21.9375 16.125 21.9375 15.9375 21.6562 15.9375H21.375C21.1875 15.9375 19.5 16.0312 18.9375 19.0312L19.9687 18.9375Z" fill="#A2B6BA"/>
<path d="M22.7694 22.1344C22.7763 20.2187 21.3549 18.6605 19.5945 18.6541C17.8341 18.6477 16.4013 20.1956 16.3944 22.1113C16.3875 24.0271 17.8089 25.5852 19.5693 25.5916C21.3297 25.598 22.7625 24.0502 22.7694 22.1344Z" fill="#425763"/>
<path d="M22.1511 21.9766C22.1564 20.5269 21.0693 19.3477 19.7231 19.3428C18.3769 19.3379 17.2814 20.5092 17.2761 21.959C17.2709 23.4087 18.3579 24.5879 19.7041 24.5928C21.0503 24.5977 22.1459 23.4264 22.1511 21.9766Z" fill="#3587C4"/>
<path d="M21.6875 21.8763C21.6918 20.6854 20.7719 19.7167 19.6328 19.7126C18.4937 19.7084 17.5668 20.6705 17.5625 21.8613C17.5582 23.0522 18.4781 24.0209 19.6172 24.0251C20.7563 24.0292 21.6832 23.0671 21.6875 21.8763Z" fill="#4DA3EC"/>
<path d="M20.7901 20.8556C20.7912 20.545 20.5403 20.2922 20.2297 20.2911C19.919 20.29 19.6662 20.5409 19.6651 20.8516C19.664 21.1622 19.9149 21.415 20.2256 21.4161C20.5362 21.4172 20.789 21.1663 20.7901 20.8556Z" fill="white"/>
<path d="M21.094 17.4375L21.844 16.6875C21.9378 16.5937 22.1253 16.5938 22.219 16.5938C22.5003 16.6875 23.0628 16.875 23.719 17.25C24.094 17.4375 23.9065 18.0938 23.4378 18L21.3753 18.0937C21.094 18.1875 20.8128 17.7187 21.094 17.4375Z" fill="#E1F0F4"/>
</g>
<defs>
<clipPath id="clip0_52_41219">
<rect width="30" height="30" fill="white"/>
</clipPath>
</defs>
</svg>
