<svg width="480" height="68" viewBox="0 0 480 68" fill="none" xmlns="http://www.w3.org/2000/svg">
<g clip-path="url(#clip0_52_120582)">
<path d="M211.362 16.0002H90.6445C90.2045 16.0002 89.7697 16.0002 89.3309 16.0026C88.9635 16.005 88.599 16.0119 88.2281 16.0178C87.4224 16.0273 86.6185 16.0982 85.8235 16.2298C85.0296 16.3644 84.2606 16.618 83.5425 16.9822C82.8253 17.3495 82.1699 17.8267 81.6002 18.3966C81.0275 18.9649 80.5501 19.6217 80.1863 20.3419C79.8216 21.0606 79.5687 21.8308 79.4363 22.6258C79.3027 23.4198 79.2308 24.223 79.2213 25.0282C79.2102 25.3961 79.209 25.7652 79.2031 26.1332V53.8697C79.209 54.2423 79.2102 54.6033 79.2213 54.976C79.2308 55.7811 79.3027 56.5842 79.4363 57.3782C79.5683 58.1737 79.8212 58.9443 80.1863 59.6633C80.5499 60.3811 81.0274 61.0353 81.6002 61.6004C82.1677 62.1728 82.8235 62.6504 83.5425 63.0148C84.2606 63.38 85.0295 63.6352 85.8235 63.7718C86.6186 63.9024 87.4224 63.9733 88.2281 63.984C88.599 63.9921 88.9635 63.9968 89.3309 63.9968C89.7697 63.9992 90.2045 63.9992 90.6445 63.9992H211.362C211.793 63.9992 212.232 63.9992 212.663 63.9968C213.029 63.9968 213.404 63.9921 213.769 63.984C214.573 63.9739 215.376 63.903 216.169 63.7718C216.966 63.6342 217.737 63.3791 218.459 63.0148C219.177 62.6502 219.832 62.1726 220.4 61.6004C220.971 61.0331 221.449 60.3794 221.817 59.6633C222.18 58.9438 222.43 58.1732 222.56 57.3782C222.694 56.5841 222.769 55.7811 222.783 54.976C222.788 54.6033 222.788 54.2423 222.788 53.8697C222.797 53.4338 222.797 53.0002 222.797 52.5572V27.4433C222.797 27.0038 222.797 26.5679 222.788 26.1332C222.788 25.7652 222.788 25.3961 222.783 25.0281C222.769 24.2229 222.694 23.4199 222.56 22.6258C222.43 21.8312 222.179 21.0611 221.817 20.3418C221.077 18.8983 219.902 17.7234 218.459 16.9821C217.737 16.6188 216.966 16.3652 216.169 16.2297C215.376 16.0975 214.573 16.0266 213.769 16.0176C213.404 16.0118 213.029 16.0047 212.663 16.0024C212.232 16 211.793 16.0002 211.362 16.0002Z" fill="#A6A6A6"/>
<path d="M89.336 62.9499C88.9704 62.9499 88.6136 62.9452 88.2509 62.937C87.4994 62.9272 86.7497 62.8618 86.008 62.7413C85.3163 62.6222 84.6462 62.4006 84.0199 62.0838C83.3993 61.7697 82.8333 61.3578 82.3435 60.8639C81.8467 60.3759 81.433 59.8098 81.119 59.1882C80.8014 58.5625 80.5817 57.8918 80.4674 57.1996C80.3439 56.4557 80.2771 55.7036 80.2676 54.9496C80.26 54.6965 80.25 53.8539 80.25 53.8539V26.1338C80.25 26.1338 80.2606 25.3041 80.2676 25.0604C80.2768 24.3076 80.3432 23.5566 80.4663 22.8139C80.5808 22.1198 80.8007 21.4472 81.1184 20.8195C81.4313 20.1983 81.8427 19.6318 82.3365 19.142C82.8299 18.6475 83.3977 18.2335 84.0193 17.915C84.6442 17.5993 85.313 17.3793 86.0033 17.2623C86.7475 17.1406 87.4998 17.0748 88.2538 17.0654L89.3366 17.0508H212.656L213.752 17.066C214.499 17.0749 215.245 17.1401 215.982 17.2611C216.679 17.3795 217.355 17.6011 217.987 17.9185C219.232 18.5603 220.246 19.5757 220.885 20.8224C221.198 21.4458 221.414 22.1129 221.527 22.8011C221.652 23.5498 221.722 24.3067 221.736 25.0657C221.739 25.4055 221.739 25.7705 221.739 26.1338C221.749 26.5838 221.749 27.0121 221.749 27.4439V52.5578C221.749 52.9938 221.749 53.4192 221.739 53.848C221.739 54.2383 221.739 54.5957 221.735 54.9637C221.721 55.7091 221.652 56.4524 221.53 57.1878C221.418 57.8851 221.199 58.561 220.882 59.1918C220.565 59.8067 220.154 60.3678 219.663 60.8546C219.173 61.3511 218.606 61.7654 217.984 62.0816C217.353 62.4007 216.679 62.6231 215.982 62.7413C215.24 62.8624 214.491 62.9279 213.739 62.937C213.388 62.9452 213.02 62.9499 212.662 62.9499L211.361 62.9523L89.336 62.9499Z" fill="black"/>
<path d="M108.924 40.3606C108.937 39.3591 109.203 38.377 109.698 37.5059C110.192 36.6348 110.899 35.9029 111.752 35.3783C111.21 34.6041 110.495 33.967 109.664 33.5175C108.832 33.0681 107.908 32.8187 106.963 32.7891C104.948 32.5776 102.994 33.9949 101.968 33.9949C100.921 33.9949 99.3399 32.8101 97.6374 32.8451C96.5362 32.8807 95.463 33.2009 94.5224 33.7746C93.5818 34.3482 92.8058 35.1558 92.27 36.1185C89.9493 40.1365 91.6803 46.0417 93.9034 49.2895C95.0157 50.8799 96.3156 52.6564 98.0165 52.5934C99.6809 52.5244 100.303 51.5321 102.312 51.5321C104.302 51.5321 104.885 52.5934 106.621 52.5534C108.407 52.5244 109.532 50.9559 110.605 49.3505C111.404 48.2173 112.019 46.9648 112.427 45.6395C111.39 45.2007 110.504 44.4661 109.881 43.5273C109.258 42.5886 108.926 41.4873 108.924 40.3606Z" fill="white"/>
<path d="M105.646 30.6535C106.62 29.4845 107.099 27.9819 106.983 26.4648C105.495 26.6211 104.121 27.3322 103.134 28.4563C102.652 29.0055 102.282 29.6444 102.047 30.3365C101.811 31.0287 101.714 31.7604 101.762 32.4899C102.506 32.4976 103.242 32.3363 103.915 32.0182C104.588 31.7001 105.179 31.2335 105.646 30.6535Z" fill="white"/>
<path d="M129.965 48.567H124.285L122.921 52.5947H120.516L125.896 37.6934H128.395L133.775 52.5947H131.328L129.965 48.567ZM124.874 46.7084H129.376L127.157 40.1719H127.094L124.874 46.7084Z" fill="white"/>
<path d="M145.394 47.1636C145.394 50.5397 143.587 52.7088 140.86 52.7088C140.169 52.745 139.482 52.5858 138.878 52.2497C138.273 51.9135 137.776 51.4139 137.442 50.8081H137.39V56.1892H135.16V41.7309H137.319V43.5379H137.36C137.709 42.935 138.215 42.4379 138.824 42.0997C139.433 41.7615 140.123 41.5948 140.819 41.6172C143.576 41.6172 145.394 43.7969 145.394 47.1636ZM143.102 47.1636C143.102 44.9641 141.965 43.518 140.231 43.518C138.527 43.518 137.381 44.9945 137.381 47.1636C137.381 49.3526 138.527 50.8186 140.231 50.8186C141.965 50.8186 143.102 49.3831 143.102 47.1636Z" fill="white"/>
<path d="M157.351 47.1636C157.351 50.5397 155.544 52.7088 152.817 52.7088C152.126 52.7449 151.439 52.5858 150.835 52.2497C150.23 51.9135 149.733 51.4139 149.399 50.808H149.347V56.1892H147.117V41.7309H149.276V43.5379H149.317C149.666 42.9349 150.172 42.4379 150.781 42.0997C151.39 41.7615 152.08 41.5948 152.776 41.6172C155.533 41.6172 157.351 43.7969 157.351 47.1636ZM155.059 47.1636C155.059 44.9641 153.922 43.518 152.188 43.518C150.484 43.518 149.338 44.9945 149.338 47.1636C149.338 49.3526 150.484 50.8186 152.188 50.8186C153.922 50.8186 155.059 49.3831 155.059 47.1636Z" fill="white"/>
<path d="M165.255 48.4432C165.421 49.9209 166.856 50.8911 168.818 50.8911C170.698 50.8911 172.05 49.9209 172.05 48.5885C172.05 47.4318 171.234 46.7393 169.303 46.2647L167.372 45.7994C164.636 45.1385 163.365 43.8589 163.365 41.7823C163.365 39.2113 165.606 37.4453 168.787 37.4453C171.936 37.4453 174.095 39.2113 174.167 41.7823H171.916C171.781 40.2953 170.552 39.3976 168.756 39.3976C166.959 39.3976 165.73 40.3058 165.73 41.6277C165.73 42.6812 166.515 43.3011 168.436 43.7756L170.078 44.1787C173.135 44.9018 174.405 46.1299 174.405 48.3095C174.405 51.0973 172.185 52.8434 168.653 52.8434C165.348 52.8434 163.117 51.1384 162.973 48.4431L165.255 48.4432Z" fill="white"/>
<path d="M179.219 39.1602V41.7312H181.285V43.4972H179.219V49.4865C179.219 50.417 179.632 50.8505 180.541 50.8505C180.786 50.8463 181.031 50.829 181.274 50.7989V52.5544C180.866 52.6307 180.451 52.6652 180.035 52.6575C177.836 52.6575 176.978 51.8313 176.978 49.7244V43.4972H175.398V41.7312H176.978V39.1602H179.219Z" fill="white"/>
<path d="M182.48 47.1639C182.48 43.7457 184.494 41.5977 187.633 41.5977C190.783 41.5977 192.787 43.7456 192.787 47.1639C192.787 50.5916 190.794 52.7302 187.633 52.7302C184.474 52.7302 182.48 50.5916 182.48 47.1639ZM190.515 47.1639C190.515 44.8191 189.44 43.4351 187.633 43.4351C185.826 43.4351 184.753 44.8296 184.753 47.1639C184.753 49.5182 185.826 50.8916 187.633 50.8916C189.44 50.8916 190.515 49.5182 190.515 47.1639Z" fill="white"/>
<path d="M194.625 41.7308H196.752V43.58H196.804C196.947 43.0024 197.286 42.4921 197.762 42.1346C198.238 41.7771 198.822 41.5944 199.417 41.6171C199.674 41.6162 199.93 41.6441 200.181 41.7003V43.7862C199.856 43.6871 199.518 43.6416 199.179 43.6515C198.855 43.6383 198.532 43.6954 198.232 43.8189C197.932 43.9424 197.663 44.1292 197.442 44.3667C197.221 44.6042 197.054 44.8866 196.953 45.1946C196.852 45.5026 196.818 45.8289 196.855 46.151V52.595H194.625L194.625 41.7308Z" fill="white"/>
<path d="M210.46 49.4045C210.16 51.3768 208.24 52.7302 205.782 52.7302C202.622 52.7302 200.66 50.6127 200.66 47.2155C200.66 43.8078 202.632 41.5977 205.689 41.5977C208.694 41.5977 210.585 43.6625 210.585 46.9565V47.7206H202.911V47.8553C202.876 48.2552 202.926 48.658 203.058 49.037C203.19 49.416 203.402 49.7625 203.678 50.0535C203.955 50.3446 204.29 50.5735 204.661 50.7251C205.033 50.8766 205.433 50.9474 205.834 50.9326C206.361 50.982 206.89 50.8599 207.342 50.5846C207.794 50.3093 208.145 49.8954 208.343 49.4045L210.46 49.4045ZM202.922 46.162H208.353C208.373 45.8025 208.319 45.4427 208.193 45.1053C208.068 44.7679 207.874 44.46 207.623 44.2011C207.373 43.9422 207.072 43.7378 206.739 43.6007C206.406 43.4637 206.049 43.3969 205.689 43.4047C205.325 43.4025 204.965 43.4723 204.629 43.6099C204.293 43.7476 203.988 43.9505 203.731 44.2069C203.473 44.4632 203.27 44.768 203.131 45.1036C202.992 45.4391 202.921 45.7989 202.922 46.162Z" fill="white"/>
<path d="M124.594 26.4769C125.062 26.4433 125.531 26.514 125.968 26.6837C126.405 26.8534 126.798 27.118 127.121 27.4583C127.443 27.7986 127.686 28.2063 127.831 28.6518C127.977 29.0973 128.022 29.5696 127.963 30.0346C127.963 32.3221 126.727 33.6369 124.594 33.6369H122.008V26.4769H124.594ZM123.12 32.6244H124.47C124.804 32.6443 125.138 32.5895 125.449 32.464C125.759 32.3385 126.037 32.1453 126.263 31.8987C126.489 31.652 126.658 31.358 126.756 31.0381C126.854 30.7181 126.88 30.3803 126.831 30.0492C126.876 29.7194 126.848 29.3837 126.748 29.0661C126.649 28.7485 126.48 28.4569 126.254 28.2122C126.029 27.9675 125.752 27.7757 125.443 27.6506C125.135 27.5256 124.802 27.4703 124.47 27.4887H123.12V32.6244Z" fill="white"/>
<path d="M129.219 30.9345C129.185 30.5794 129.226 30.2211 129.338 29.8826C129.451 29.5441 129.633 29.2329 129.873 28.969C130.113 28.705 130.405 28.4941 130.732 28.3497C131.058 28.2054 131.411 28.1309 131.767 28.1309C132.124 28.1309 132.477 28.2054 132.803 28.3497C133.129 28.4941 133.422 28.705 133.662 28.969C133.901 29.2329 134.084 29.5441 134.196 29.8826C134.309 30.2211 134.349 30.5794 134.315 30.9345C134.35 31.2899 134.31 31.6487 134.198 31.9877C134.085 32.3267 133.903 32.6385 133.663 32.903C133.423 33.1675 133.131 33.3788 132.804 33.5235C132.478 33.6681 132.124 33.7428 131.767 33.7428C131.41 33.7428 131.057 33.6681 130.73 33.5235C130.404 33.3788 130.111 33.1675 129.871 32.903C129.631 32.6385 129.449 32.3267 129.337 31.9877C129.225 31.6487 129.184 31.2899 129.219 30.9345ZM133.219 30.9345C133.219 29.7632 132.692 29.0783 131.769 29.0783C130.842 29.0783 130.321 29.7632 130.321 30.9345C130.321 32.1151 130.842 32.7948 131.769 32.7948C132.692 32.7948 133.219 32.1104 133.219 30.9345Z" fill="white"/>
<path d="M141.09 33.6378H139.984L138.868 29.6582H138.783L137.671 33.6378H136.575L135.086 28.2344H136.168L137.136 32.3575H137.215L138.326 28.2344H139.349L140.46 32.3575H140.544L141.508 28.2344H142.574L141.09 33.6378Z" fill="white"/>
<path d="M143.828 28.2346H144.855V29.093H144.934C145.07 28.7847 145.298 28.5263 145.587 28.3537C145.876 28.1811 146.211 28.103 146.547 28.1303C146.81 28.1106 147.074 28.1502 147.319 28.2463C147.565 28.3424 147.785 28.4925 147.965 28.6856C148.145 28.8786 148.279 29.1095 148.357 29.3613C148.435 29.6131 148.456 29.8792 148.417 30.14V33.638H147.351V30.4078C147.351 29.5395 146.973 29.1077 146.185 29.1077C146.006 29.0993 145.828 29.1297 145.662 29.1967C145.497 29.2637 145.347 29.3657 145.225 29.4958C145.102 29.6259 145.009 29.7809 144.952 29.9502C144.895 30.1196 144.876 30.2993 144.895 30.477V33.638H143.828L143.828 28.2346Z" fill="white"/>
<path d="M150.113 26.125H151.18V33.6377H150.113V26.125Z" fill="white"/>
<path d="M152.664 30.9346C152.63 30.5794 152.671 30.2211 152.784 29.8827C152.896 29.5442 153.078 29.233 153.318 28.969C153.558 28.705 153.851 28.4941 154.177 28.3497C154.503 28.2054 154.856 28.1309 155.213 28.1309C155.57 28.1309 155.922 28.2054 156.249 28.3497C156.575 28.4941 156.867 28.705 157.107 28.969C157.347 29.233 157.529 29.5442 157.642 29.8827C157.755 30.2211 157.795 30.5794 157.761 30.9346C157.796 31.29 157.756 31.6488 157.643 31.9878C157.531 32.3268 157.349 32.6386 157.109 32.9031C156.869 33.1676 156.576 33.3789 156.25 33.5236C155.923 33.6682 155.57 33.7429 155.213 33.7429C154.856 33.7429 154.503 33.6682 154.176 33.5236C153.849 33.3789 153.557 33.1676 153.317 32.9031C153.077 32.6386 152.895 32.3268 152.782 31.9878C152.67 31.6488 152.63 31.29 152.664 30.9346ZM156.664 30.9346C156.664 29.7633 156.138 29.0784 155.214 29.0784C154.287 29.0784 153.766 29.7633 153.766 30.9346C153.766 32.1152 154.287 32.7949 155.214 32.7949C156.138 32.7949 156.664 32.1105 156.664 30.9346Z" fill="white"/>
<path d="M158.883 32.1105C158.883 31.1378 159.607 30.5771 160.893 30.4974L162.356 30.413V29.9466C162.356 29.3759 161.979 29.0537 161.25 29.0537C160.655 29.0537 160.242 29.2722 160.124 29.6543H159.091C159.2 28.7262 160.073 28.1309 161.299 28.1309C162.654 28.1309 163.418 28.8052 163.418 29.9466V33.6386H162.391V32.8792H162.307C162.136 33.1516 161.895 33.3736 161.61 33.5227C161.325 33.6717 161.005 33.7424 160.684 33.7276C160.457 33.7512 160.228 33.727 160.011 33.6565C159.794 33.5861 159.594 33.471 159.425 33.3186C159.255 33.1663 159.119 32.98 159.026 32.772C158.932 32.5639 158.884 32.3385 158.883 32.1105ZM162.356 31.6487V31.197L161.037 31.2814C160.293 31.3312 159.955 31.5843 159.955 32.0606C159.955 32.547 160.377 32.83 160.957 32.83C161.127 32.8472 161.299 32.83 161.462 32.7795C161.625 32.729 161.776 32.6462 161.907 32.536C162.038 32.4258 162.145 32.2904 162.222 32.138C162.299 31.9856 162.345 31.8192 162.356 31.6487Z" fill="white"/>
<path d="M164.82 30.9337C164.82 29.2263 165.698 28.1447 167.063 28.1447C167.401 28.1291 167.736 28.21 168.03 28.3779C168.323 28.5458 168.563 28.7937 168.72 29.0927H168.8V26.125H169.866V33.6377H168.844V32.784H168.76C168.59 33.081 168.342 33.3259 168.043 33.492C167.744 33.6582 167.405 33.7394 167.063 33.7268C165.689 33.7268 164.82 32.6452 164.82 30.9337ZM165.922 30.9337C165.922 32.0798 166.462 32.7694 167.366 32.7694C168.264 32.7694 168.82 32.0698 168.82 30.9384C168.82 29.8122 168.259 29.1027 167.366 29.1027C166.468 29.1027 165.922 29.797 165.922 30.9337Z" fill="white"/>
<path d="M174.278 30.9345C174.244 30.5794 174.284 30.2211 174.397 29.8826C174.51 29.5441 174.692 29.2329 174.932 28.969C175.171 28.705 175.464 28.4941 175.79 28.3497C176.116 28.2054 176.469 28.1309 176.826 28.1309C177.183 28.1309 177.535 28.2054 177.862 28.3497C178.188 28.4941 178.48 28.705 178.72 28.969C178.96 29.2329 179.142 29.5441 179.255 29.8826C179.367 30.2211 179.408 30.5794 179.374 30.9345C179.409 31.2899 179.369 31.6487 179.256 31.9877C179.144 32.3267 178.962 32.6385 178.722 32.903C178.482 33.1675 178.189 33.3788 177.863 33.5235C177.536 33.6681 177.183 33.7428 176.826 33.7428C176.469 33.7428 176.116 33.6681 175.789 33.5235C175.462 33.3788 175.17 33.1675 174.93 32.903C174.69 32.6385 174.508 32.3267 174.396 31.9877C174.283 31.6487 174.243 31.2899 174.278 30.9345ZM178.277 30.9345C178.277 29.7632 177.751 29.0783 176.828 29.0783C175.901 29.0783 175.379 29.7632 175.379 30.9345C175.379 32.1151 175.901 32.7948 176.828 32.7948C177.751 32.7948 178.277 32.1104 178.277 30.9345Z" fill="white"/>
<path d="M180.805 28.2346H181.831V29.093H181.911C182.046 28.7847 182.274 28.5263 182.563 28.3537C182.852 28.1811 183.188 28.103 183.523 28.1303C183.786 28.1106 184.05 28.1502 184.296 28.2463C184.541 28.3424 184.762 28.4925 184.942 28.6856C185.121 28.8786 185.255 29.1095 185.333 29.3613C185.412 29.6131 185.432 29.8792 185.394 30.14V33.638H184.327V30.4078C184.327 29.5395 183.95 29.1077 183.161 29.1077C182.983 29.0993 182.805 29.1297 182.639 29.1967C182.473 29.2637 182.324 29.3657 182.201 29.4958C182.079 29.6259 181.986 29.7809 181.929 29.9502C181.872 30.1196 181.852 30.2993 181.871 30.477V33.638H180.805V28.2346Z" fill="white"/>
<path d="M191.421 26.8887V28.2586H192.592V29.1568H191.421V31.9353C191.421 32.5013 191.655 32.7491 192.185 32.7491C192.321 32.7487 192.457 32.7404 192.592 32.7245V33.6127C192.401 33.647 192.207 33.6652 192.012 33.6672C190.826 33.6672 190.354 33.2501 190.354 32.2083V29.1567H189.496V28.2585H190.354V26.8887H191.421Z" fill="white"/>
<path d="M194.047 26.125H195.104V29.1027H195.188C195.33 28.7915 195.564 28.5316 195.859 28.3584C196.154 28.1852 196.495 28.1071 196.836 28.1347C197.097 28.1205 197.359 28.1642 197.602 28.2626C197.844 28.3611 198.062 28.5119 198.24 28.7043C198.418 28.8967 198.551 29.1259 198.63 29.3757C198.709 29.6254 198.732 29.8895 198.697 30.1491V33.6377H197.629V30.4122C197.629 29.5491 197.227 29.112 196.474 29.112C196.291 29.097 196.106 29.1222 195.934 29.1859C195.761 29.2495 195.605 29.3501 195.475 29.4806C195.345 29.6111 195.246 29.7683 195.183 29.9413C195.121 30.1142 195.097 30.2988 195.113 30.4819V33.6377H194.047L194.047 26.125Z" fill="white"/>
<path d="M204.915 32.1797C204.77 32.6735 204.456 33.1007 204.028 33.3865C203.6 33.6722 203.085 33.7984 202.574 33.7429C202.218 33.7523 201.864 33.6842 201.537 33.5431C201.21 33.4021 200.918 33.1916 200.68 32.9262C200.443 32.6609 200.266 32.347 200.162 32.0064C200.058 31.6658 200.029 31.3067 200.078 30.9539C200.03 30.6001 200.059 30.2402 200.163 29.8986C200.267 29.557 200.443 29.2417 200.679 28.974C200.916 28.7063 201.206 28.4925 201.533 28.347C201.859 28.2016 202.212 28.1279 202.569 28.1309C204.073 28.1309 204.98 29.1581 204.98 30.8549V31.227H201.164V31.2868C201.147 31.485 201.172 31.6846 201.237 31.8727C201.302 32.0608 201.406 32.2333 201.541 32.379C201.677 32.5248 201.841 32.6406 202.024 32.7191C202.207 32.7975 202.404 32.8369 202.603 32.8347C202.858 32.8653 203.117 32.8194 203.345 32.7028C203.574 32.5861 203.763 32.404 203.889 32.1797L204.915 32.1797ZM201.164 30.4383H203.893C203.907 30.257 203.882 30.0748 203.821 29.9036C203.76 29.7323 203.663 29.5757 203.538 29.4439C203.413 29.3121 203.261 29.2079 203.094 29.1381C202.926 29.0683 202.745 29.0344 202.563 29.0386C202.379 29.0362 202.196 29.0709 202.025 29.1404C201.854 29.2099 201.699 29.313 201.568 29.4434C201.438 29.5739 201.335 29.7291 201.266 29.9C201.196 30.0708 201.162 30.2539 201.164 30.4383Z" fill="white"/>
</g>
<g clip-path="url(#clip1_52_120582)">
<path d="M394.797 16H244.797C241.483 16 238.797 18.6863 238.797 22V58C238.797 61.3137 241.483 64 244.797 64H394.797C398.11 64 400.797 61.3137 400.797 58V22C400.797 18.6863 398.11 16 394.797 16Z" fill="black"/>
<path d="M394.797 16.96C397.581 16.96 399.837 19.216 399.837 22V58C399.837 60.784 397.581 63.04 394.797 63.04H244.797C242.013 63.04 239.757 60.784 239.757 58V22C239.757 19.216 242.013 16.96 244.797 16.96H394.797ZM394.797 16H244.797C241.497 16 238.797 18.7 238.797 22V58C238.797 61.3 241.497 64 244.797 64H394.797C398.097 64 400.797 61.3 400.797 58V22C400.797 18.7 398.097 16 394.797 16Z" fill="#A6A6A6"/>
<path d="M295.702 28.2884C295.702 29.2964 295.402 30.1004 294.802 30.6884C294.13 31.3964 293.254 31.7564 292.162 31.7564C291.07 31.7564 290.23 31.3964 289.51 30.6764C288.79 29.9564 288.43 29.0564 288.43 28.0004C288.43 26.9444 288.79 26.0444 289.51 25.3244C290.23 24.6044 291.118 24.2324 292.162 24.2324C292.69 24.2324 293.194 24.3284 293.662 24.5084C294.13 24.7004 294.514 24.9644 294.814 25.3004L294.154 25.9604C293.938 25.6964 293.65 25.4804 293.29 25.3364C292.942 25.1804 292.558 25.1084 292.162 25.1084C291.382 25.1084 290.71 25.3844 290.17 25.9244C289.63 26.4764 289.366 27.1604 289.366 27.9884C289.366 28.8164 289.63 29.5004 290.17 30.0524C290.71 30.5924 291.37 30.8684 292.162 30.8684C292.882 30.8684 293.47 30.6644 293.95 30.2684C294.43 29.8724 294.706 29.3084 294.778 28.6124H292.162V27.7484H295.654C295.69 27.9404 295.702 28.1204 295.702 28.2884Z" fill="white" stroke="white" stroke-width="0.24" stroke-miterlimit="10"/>
<path d="M301.231 24.4004V25.2884H297.955V27.5684H300.907V28.4324H297.955V30.7124H301.231V31.6004H297.031V24.4004H301.231Z" fill="white" stroke="white" stroke-width="0.24" stroke-miterlimit="10"/>
<path d="M305.131 25.2884V31.6004H304.207V25.2884H302.191V24.4004H307.135V25.2884H305.119H305.131Z" fill="white" stroke="white" stroke-width="0.24" stroke-miterlimit="10"/>
<path d="M311.651 31.6004H310.727V24.4004H311.651V31.6004Z" fill="white" stroke="white" stroke-width="0.24" stroke-miterlimit="10"/>
<path d="M315.753 25.2884V31.6004H314.829V25.2884H312.812V24.4004H317.756V25.2884H315.74H315.753Z" fill="white" stroke="white" stroke-width="0.24" stroke-miterlimit="10"/>
<path d="M328.186 28.0004C328.186 29.0684 327.826 29.9564 327.118 30.6764C326.398 31.3964 325.522 31.7564 324.478 31.7564C323.434 31.7564 322.558 31.3964 321.838 30.6764C321.13 29.9564 320.77 29.0684 320.77 28.0004C320.77 26.9324 321.13 26.0444 321.838 25.3244C322.546 24.6044 323.422 24.2324 324.478 24.2324C325.534 24.2324 326.398 24.5924 327.118 25.3244C327.826 26.0444 328.186 26.9324 328.186 27.9884V28.0004ZM321.73 28.0004C321.73 28.8284 321.994 29.5244 322.51 30.0644C323.038 30.6044 323.698 30.8804 324.478 30.8804C325.258 30.8804 325.918 30.6044 326.434 30.0644C326.962 29.5244 327.226 28.8404 327.226 28.0004C327.226 27.1604 326.962 26.4764 326.434 25.9364C325.906 25.3964 325.258 25.1204 324.478 25.1204C323.698 25.1204 323.038 25.3964 322.51 25.9364C321.982 26.4764 321.73 27.1724 321.73 28.0004Z" fill="white" stroke="white" stroke-width="0.24" stroke-miterlimit="10"/>
<path d="M330.404 31.6004H329.48V24.4004H330.608L334.112 30.0044H334.148L334.112 28.6124V24.4004H335.036V31.6004H334.076L330.416 25.7324H330.38L330.416 27.1244V31.6124L330.404 31.6004Z" fill="white" stroke="white" stroke-width="0.24" stroke-miterlimit="10"/>
<path d="M320.563 42.0993C317.743 42.0993 315.439 44.2473 315.439 47.1993C315.439 50.1513 317.743 52.2993 320.563 52.2993C323.383 52.2993 325.687 50.1393 325.687 47.1993C325.687 44.2593 323.383 42.0993 320.563 42.0993ZM320.563 50.2953C319.015 50.2953 317.683 49.0233 317.683 47.1993C317.683 45.3753 319.015 44.1033 320.563 44.1033C322.111 44.1033 323.443 45.3633 323.443 47.1993C323.443 49.0353 322.111 50.2953 320.563 50.2953ZM309.391 42.0993C306.571 42.0993 304.267 44.2473 304.267 47.1993C304.267 50.1513 306.571 52.2993 309.391 52.2993C312.211 52.2993 314.515 50.1393 314.515 47.1993C314.515 44.2593 312.211 42.0993 309.391 42.0993ZM309.391 50.2953C307.843 50.2953 306.511 49.0233 306.511 47.1993C306.511 45.3753 307.843 44.1033 309.391 44.1033C310.939 44.1033 312.271 45.3633 312.271 47.1993C312.271 49.0353 310.939 50.2953 309.391 50.2953ZM296.095 43.6593V45.8193H301.279C301.123 47.0313 300.715 47.9313 300.103 48.5433C299.347 49.2993 298.171 50.1273 296.107 50.1273C292.915 50.1273 290.419 47.5593 290.419 44.3673C290.419 41.1753 292.915 38.6073 296.107 38.6073C297.823 38.6073 299.083 39.2793 300.007 40.1553L301.531 38.6313C300.235 37.3953 298.519 36.4473 296.095 36.4473C291.727 36.4473 288.055 39.9993 288.055 44.3793C288.055 48.7593 291.727 52.3113 296.095 52.3113C298.459 52.3113 300.235 51.5433 301.627 50.0913C303.055 48.6633 303.499 46.6473 303.499 45.0273C303.499 44.5233 303.463 44.0553 303.379 43.6713H296.095V43.6593ZM350.467 45.3393C350.047 44.1993 348.751 42.0873 346.099 42.0873C343.447 42.0873 341.287 44.1513 341.287 47.1873C341.287 50.0433 343.447 52.2873 346.351 52.2873C348.691 52.2873 350.047 50.8593 350.599 50.0313L348.859 48.8673C348.283 49.7193 347.491 50.2833 346.351 50.2833C345.211 50.2833 344.395 49.7673 343.879 48.7353L350.707 45.9153L350.479 45.3393H350.467ZM343.507 47.0433C343.447 45.0753 345.031 44.0673 346.171 44.0673C347.059 44.0673 347.815 44.5113 348.067 45.1473L343.507 47.0433ZM337.963 51.9873H340.207V36.9873H337.963V51.9873ZM334.291 43.2273H334.219C333.715 42.6273 332.755 42.0873 331.531 42.0873C328.975 42.0873 326.635 44.3313 326.635 47.2113C326.635 50.0913 328.975 52.2993 331.531 52.2993C332.743 52.2993 333.715 51.7593 334.219 51.1353H334.291V51.8673C334.291 53.8233 333.247 54.8673 331.567 54.8673C330.199 54.8673 329.347 53.8833 328.999 53.0553L327.043 53.8713C327.607 55.2273 329.095 56.8833 331.567 56.8833C334.195 56.8833 336.415 55.3353 336.415 51.5673V42.3993H334.291V43.2273ZM331.723 50.2833C330.175 50.2833 328.879 48.9873 328.879 47.2113C328.879 45.4353 330.175 44.1033 331.723 44.1033C333.271 44.1033 334.447 45.4233 334.447 47.2113C334.447 48.9993 333.247 50.2833 331.723 50.2833ZM360.979 36.9873H355.615V51.9873H357.859V46.2993H360.991C363.475 46.2993 365.911 44.4993 365.911 41.6433C365.911 38.7873 363.475 36.9873 360.991 36.9873H360.979ZM361.039 44.2233H357.859V39.0753H361.039C362.719 39.0753 363.667 40.4673 363.667 41.6433C363.667 42.8193 362.719 44.2113 361.039 44.2113V44.2233ZM374.875 42.0633C373.255 42.0633 371.575 42.7833 370.879 44.3553L372.871 45.1833C373.291 44.3553 374.083 44.0793 374.911 44.0793C376.063 44.0793 377.251 44.7753 377.263 46.0113V46.1673C376.855 45.9393 375.991 45.5913 374.923 45.5913C372.775 45.5913 370.603 46.7673 370.603 48.9633C370.603 50.9673 372.355 52.2633 374.323 52.2633C375.823 52.2633 376.663 51.5913 377.179 50.7993H377.251V51.9513H379.411V46.2033C379.411 43.5393 377.419 42.0513 374.851 42.0513L374.875 42.0633ZM374.599 50.2833C373.867 50.2833 372.847 49.9113 372.847 49.0113C372.847 47.8593 374.119 47.4153 375.223 47.4153C376.207 47.4153 376.675 47.6313 377.263 47.9193C377.095 49.3113 375.895 50.2953 374.599 50.2953V50.2833ZM387.295 42.3873L384.727 48.8913H384.655L381.991 42.3873H379.579L383.575 51.4833L381.295 56.5353H383.635L389.791 42.3873H387.307H387.295ZM367.123 51.9873H369.367V36.9873H367.123V51.9873Z" fill="white"/>
<path d="M263.663 39.3047L250.883 52.8647C251.279 54.3407 252.623 55.4327 254.219 55.4327C254.855 55.4327 255.455 55.2647 255.971 54.9527L256.007 54.9287L270.383 46.6367L263.651 39.3047H263.663Z" fill="#EA4335"/>
<path d="M276.583 37.0007H276.571L270.367 33.3887L263.371 39.6167L270.391 46.6367L276.571 43.0727C277.651 42.4847 278.383 41.3447 278.383 40.0367C278.383 38.7287 277.663 37.5887 276.583 37.0127V37.0007Z" fill="#FBBC04"/>
<path d="M250.882 27.1367C250.81 27.4247 250.762 27.7127 250.762 28.0247V51.9767C250.762 52.2887 250.798 52.5767 250.882 52.8647L264.094 39.6527L250.882 27.1367Z" fill="#4285F4"/>
<path d="M263.759 40.0004L270.371 33.3884L256.007 25.0604C255.491 24.7484 254.879 24.5684 254.219 24.5684C252.623 24.5684 251.279 25.6604 250.883 27.1244L263.759 40.0004Z" fill="#34A853"/>
</g>
<defs>
<clipPath id="clip0_52_120582">
<rect width="143.594" height="48" fill="white" transform="translate(79.2031 16)"/>
</clipPath>
<clipPath id="clip1_52_120582">
<rect width="162" height="48" fill="white" transform="translate(238.797 16)"/>
</clipPath>
</defs>
</svg>
