<svg width="56" height="56" viewBox="0 0 56 56" fill="none" xmlns="http://www.w3.org/2000/svg">
<rect width="56" height="56" rx="8" fill="#5541D7"/>
<path fill-rule="evenodd" clip-rule="evenodd" d="M35.4298 28.98C35.4698 28.66 35.4998 28.34 35.4998 28C35.4998 27.66 35.4698 27.34 35.4298 27.02L37.5398 25.37C37.7298 25.22 37.7798 24.95 37.6598 24.73L35.6598 21.27C35.5698 21.11 35.3998 21.02 35.2198 21.02C35.1598 21.02 35.0998 21.03 35.0498 21.05L32.5598 22.05C32.0398 21.65 31.4798 21.32 30.8698 21.07L30.4898 18.42C30.4598 18.18 30.2498 18 29.9998 18H25.9998C25.7498 18 25.5398 18.18 25.5098 18.42L25.1298 21.07C24.5198 21.32 23.9598 21.66 23.4398 22.05L20.9498 21.05C20.8898 21.03 20.8298 21.02 20.7698 21.02C20.5998 21.02 20.4298 21.11 20.3398 21.27L18.3398 24.73C18.2098 24.95 18.2698 25.22 18.4598 25.37L20.5698 27.02C20.5298 27.34 20.4998 27.67 20.4998 28C20.4998 28.33 20.5298 28.66 20.5698 28.98L18.4598 30.63C18.2698 30.78 18.2198 31.05 18.3398 31.27L20.3398 34.73C20.4298 34.89 20.5998 34.98 20.7798 34.98C20.8398 34.98 20.8998 34.97 20.9498 34.95L23.4398 33.95C23.9598 34.35 24.5198 34.68 25.1298 34.93L25.5098 37.58C25.5398 37.82 25.7498 38 25.9998 38H29.9998C30.2498 38 30.4598 37.82 30.4898 37.58L30.8698 34.93C31.4798 34.68 32.0398 34.34 32.5598 33.95L35.0498 34.95C35.1098 34.97 35.1698 34.98 35.2298 34.98C35.3998 34.98 35.5698 34.89 35.6598 34.73L37.6598 31.27C37.7798 31.05 37.7298 30.78 37.5398 30.63L35.4298 28.98ZM33.4498 27.27C33.4898 27.58 33.4998 27.79 33.4998 28C33.4998 28.21 33.4798 28.43 33.4498 28.73L33.3098 29.86L34.1998 30.56L35.2798 31.4L34.5798 32.61L33.3098 32.1L32.2698 31.68L31.3698 32.36C30.9398 32.68 30.5298 32.92 30.1198 33.09L29.0598 33.52L28.8998 34.65L28.6998 36H27.2998L27.1098 34.65L26.9498 33.52L25.8898 33.09C25.4598 32.91 25.0598 32.68 24.6598 32.38L23.7498 31.68L22.6898 32.11L21.4198 32.62L20.7198 31.41L21.7998 30.57L22.6898 29.87L22.5498 28.74C22.5198 28.43 22.4998 28.2 22.4998 28C22.4998 27.8 22.5198 27.57 22.5498 27.27L22.6898 26.14L21.7998 25.44L20.7198 24.6L21.4198 23.39L22.6898 23.9L23.7298 24.32L24.6298 23.64C25.0598 23.32 25.4698 23.08 25.8798 22.91L26.9398 22.48L27.0998 21.35L27.2998 20H28.6898L28.8798 21.35L29.0398 22.48L30.0998 22.91C30.5298 23.09 30.9298 23.32 31.3298 23.62L32.2398 24.32L33.2998 23.89L34.5698 23.38L35.2698 24.59L34.1998 25.44L33.3098 26.14L33.4498 27.27ZM27.9998 24C25.7898 24 23.9998 25.79 23.9998 28C23.9998 30.21 25.7898 32 27.9998 32C30.2098 32 31.9998 30.21 31.9998 28C31.9998 25.79 30.2098 24 27.9998 24ZM27.9998 30C26.8998 30 25.9998 29.1 25.9998 28C25.9998 26.9 26.8998 26 27.9998 26C29.0998 26 29.9998 26.9 29.9998 28C29.9998 29.1 29.0998 30 27.9998 30Z" fill="white"/>
</svg>
