<svg width="30" height="30" viewBox="0 0 30 30" fill="none" xmlns="http://www.w3.org/2000/svg">
<g clip-path="url(#clip0_52_66980)">
<path d="M1.78125 21.4688L0.65625 23.25L4.21875 27.0938L8.25 26.7188L1.78125 21.4688Z" fill="#2D2D2D"/>
<path d="M28.875 9.09375L26.3438 3.9375L25.2188 7.125L28.5 9.75L28.875 9.09375Z" fill="#2D2D2D"/>
<path d="M25.8752 7.5L11.5315 6.09375C9.3752 6.1875 7.5002 7.78125 7.03145 9.84375L3.9377 24.5625C3.3752 26.25 4.40645 28.0312 6.09395 28.5938C6.3752 28.6875 6.65645 28.6875 7.03145 28.7812L22.5002 29.0625C24.9377 28.9688 26.9065 27.2812 27.2815 24.9375L29.1565 11.25C29.4377 9.5625 28.3127 7.875 26.6252 7.5C26.344 7.5 26.0627 7.5 25.8752 7.5Z" fill="#2D2D2D"/>
<path d="M23.4368 2.34375L8.24932 2.625C5.99932 2.71875 4.12432 4.21875 3.56182 6.375L0.374324 20.9062C-0.0944256 22.5938 0.843074 24.375 2.53057 24.9375C2.81182 25.0312 3.18682 25.0312 3.56182 25.0312L19.5931 25.3125C22.0306 25.3125 24.0931 23.5312 24.5618 21.1875L26.9056 6.09375C27.1868 4.3125 25.9681 2.71875 24.2806 2.4375C23.9993 2.34375 23.7181 2.34375 23.4368 2.34375Z" fill="#2D2D2D"/>
<path d="M21.4688 22.875C22.3125 22.125 22.875 21.0937 23.25 19.9687C23.4375 19.3125 25.5937 5.15625 25.5937 5.15625L27.9375 9.9375L26.25 22.5938C26.25 22.5938 25.7812 25.5938 24.6562 26.4375L21.4688 22.875Z" fill="url(#paint0_linear_52_66980)"/>
<path d="M21.5625 23.25C20.9062 23.7188 20.1562 24 19.4062 24.2813C18.8438 24.2813 2.8125 23.7188 2.8125 23.7188L6.375 27.5625L20.5312 27.6563C20.5312 27.6563 23.4375 27.5625 24.2812 26.7188L21.4688 23.625" fill="#3F3F3F"/>
<path d="M22.0312 22.875L24.9375 26.25C24.75 26.625 24.375 27 23.9062 27.0938L20.8125 23.1563L22.0312 22.875Z" fill="#2D2D2D"/>
<path d="M22.4995 2.53125L8.71821 2.8125C6.65571 2.90625 4.96821 4.40625 4.49946 6.375L1.49946 20.25C1.03071 21.8438 1.87446 23.5313 3.56196 24C3.84321 24.0938 4.12446 24.0938 4.40571 24.0938L19.0307 24.375C21.2807 24.375 23.1557 22.6875 23.5307 20.4375L25.687 6.09375C25.9682 4.5 24.937 2.90625 23.2495 2.625C23.062 2.53125 22.7807 2.53125 22.4995 2.53125Z" fill="#2D2D2D"/>
<path d="M21.8444 3.4694L9.09441 3.6569C7.21941 3.75065 5.62566 5.06315 5.25066 6.93815L2.43816 19.6882C1.96941 21.1882 2.81316 22.7819 4.31316 23.1569C4.59441 23.2507 4.78191 23.2506 5.06316 23.2506L18.5632 23.5319C20.6257 23.5319 22.4069 21.9382 22.6882 19.8757L24.6569 6.6569C25.0319 5.1569 24.0007 3.75065 22.5007 3.4694C22.3132 3.4694 22.0319 3.37565 21.8444 3.4694Z" fill="url(#paint1_linear_52_66980)"/>
<path d="M21.6568 7.21875C20.5318 6.65625 19.8755 5.4375 19.9693 4.21875C19.9693 4.125 19.9693 3.9375 19.9693 3.84375L20.063 3.375L16.5005 3.75L14.1568 16.875C13.7818 18.4688 12.4693 19.5938 10.8755 19.6875C10.5005 19.6875 10.0318 19.5938 9.65676 19.4062C8.81301 18.9375 8.34426 18 8.62551 17.0625C9.00051 15.5625 10.313 14.3438 11.9068 14.25C12.188 14.25 12.4693 14.25 12.7505 14.3438L13.313 11.0625C13.0318 11.0625 12.7505 11.0625 12.4693 11.0625C9.00051 11.3438 6.18801 13.875 5.43801 17.25C5.06301 19.0312 5.71926 20.9062 7.12551 22.0312C8.06301 22.6875 9.18801 22.9688 10.313 22.9688C13.8755 22.7812 16.8755 20.25 17.6255 16.7812L18.8443 9.9375C20.2505 10.875 21.938 11.25 23.6255 11.0625L24.2818 7.6875C23.3443 7.78125 22.4068 7.59375 21.6568 7.21875Z" fill="#23239E"/>
<path d="M20.063 5.8125C19.0318 5.25 18.7505 4.875 18.7505 3.46875C18.7505 3.375 19.0318 3.28125 19.0318 3.1875L19.4068 3.28125L14.6255 3.5625L12.563 15.4688C12.188 17.0625 10.8755 18.1875 9.28176 18.2812C8.90676 18.2812 8.43801 18.1875 8.06301 18C7.21926 17.5313 6.75051 16.5938 6.93801 15.6563C7.31301 14.0625 8.62551 12.9375 10.2193 12.8437C10.5005 12.8437 10.7818 12.8438 11.063 12.9375L11.6255 9.5625C11.3443 9.5625 11.063 9.5625 10.7818 9.5625C7.31301 9.84375 4.50051 12.375 3.75051 15.75C3.37551 17.5312 4.03176 19.4062 5.43801 20.5312C6.37551 21.1875 7.50051 21.4688 8.62551 21.4688C12.188 21.2812 15.188 18.75 16.0318 15.2812L17.2505 8.4375C18.6568 9.375 20.3443 9.75 22.0318 9.65625L22.688 7.59375C21.7505 7.78125 20.813 6.1875 20.063 5.8125Z" fill="#B942BC"/>
<path d="M20.9068 6.46875C19.7818 5.90625 19.1255 4.6875 19.2193 3.46875C19.2193 3.375 18.938 3.375 19.0318 3.28125H18.2818L16.5943 3.46875L14.3443 16.125C13.9693 17.7188 11.5318 19.5 9.93801 19.5938C9.56301 19.5938 9.09426 19.5 8.71926 19.3125C7.87551 18.8438 7.50051 17.25 7.78176 16.3125C8.15676 14.8125 9.46926 13.5938 11.063 13.5C11.3443 13.5 11.6255 13.5 11.9068 13.5938L12.4693 10.2187C12.188 10.2187 11.9068 10.2187 11.6255 10.2187C8.15676 10.5 5.34426 13.0312 4.59426 16.4062C4.21926 18.1875 4.87551 20.0625 6.28176 21.1875C7.21926 21.8438 8.34426 22.125 9.46926 22.125C13.0318 21.9375 16.0318 19.4062 16.7818 15.9375L18.0005 9.09375C19.4068 10.0312 21.0943 10.4062 22.7818 10.2187L23.438 6.75C22.5943 7.03125 21.7505 6.9375 20.9068 6.46875Z" fill="white"/>
</g>
<defs>
<linearGradient id="paint0_linear_52_66980" x1="27.5888" y1="6.60178" x2="23.1076" y2="26.0737" gradientUnits="userSpaceOnUse">
<stop stop-color="#767D82"/>
<stop offset="1" stop-color="#522448"/>
</linearGradient>
<linearGradient id="paint1_linear_52_66980" x1="6.99845" y1="6.21253" x2="22.6262" y2="23.2005" gradientUnits="userSpaceOnUse">
<stop stop-color="#767D82"/>
<stop offset="1" stop-color="#522448"/>
</linearGradient>
<clipPath id="clip0_52_66980">
<rect width="30" height="30" fill="white"/>
</clipPath>
</defs>
</svg>
