<svg width="24" height="23" viewBox="0 0 24 23" fill="none" xmlns="http://www.w3.org/2000/svg">
<path d="M22.3772 9.74771L21.5772 9.55565L22.3772 9.74771ZM21.3035 14.4372L20.5035 14.2452L20.5031 14.2466L21.3035 14.4372ZM15.1461 19.7887L15.2247 18.9511L15.2116 18.95L15.1461 19.7887ZM13.3711 19.4858L13.5639 18.6679L13.5615 18.6673L13.3711 19.4858ZM11.5305 19.037L11.7208 18.2185L11.7203 18.2184L11.5305 19.037ZM6.62203 10.9257L7.42207 11.1178L7.42216 11.1173L6.62203 10.9257ZM7.69575 6.22493L6.89587 6.03221L6.89562 6.03331L7.69575 6.22493ZM8.50652 3.75674L9.24392 4.12809L9.24632 4.12299L8.50652 3.75674ZM15.6281 1.1988L15.439 2.01764L15.4413 2.01818L15.6281 1.1988ZM17.4578 1.63635L17.6449 0.81703L17.6447 0.816965L17.4578 1.63635ZM21.5772 9.55565L20.5035 14.2452L22.1035 14.6293L23.1772 9.93978L21.5772 9.55565ZM20.5031 14.2466C20.0596 16.1984 19.4304 17.415 18.6273 18.1188C17.8519 18.7982 16.7908 19.1054 15.2247 18.9512L15.0674 20.6263C16.9196 20.8088 18.4772 20.4652 19.6959 19.3973C20.8867 18.3537 21.627 16.7261 22.1038 14.628L20.5031 14.2466ZM15.2116 18.95C14.7138 18.9093 14.1652 18.8165 13.5639 18.6679L13.1783 20.3038C13.848 20.4693 14.4827 20.5785 15.0805 20.6276L15.2116 18.95ZM13.5615 18.6673L11.7208 18.2185L11.3401 19.8556L13.1808 20.3043L13.5615 18.6673ZM11.7203 18.2184C9.5143 17.6821 8.27811 16.9013 7.65835 15.8796C7.03918 14.8587 6.90397 13.3806 7.42207 11.1178L5.822 10.7337C5.26638 13.1604 5.30099 15.1826 6.26227 16.7674C7.22297 18.3513 8.97785 19.2814 11.3407 19.8558L11.7203 18.2184ZM7.42216 11.1173L8.49588 6.41657L6.89562 6.03331L5.8219 10.7341L7.42216 11.1173ZM8.49563 6.41765C8.70676 5.49885 8.95235 4.73511 9.24389 4.12808L7.76915 3.3854C7.40332 4.1471 7.123 5.04379 6.89587 6.03221L8.49563 6.41765ZM9.24632 4.12299C9.8142 2.92023 10.5314 2.24511 11.4438 1.92268C12.3945 1.58673 13.6761 1.59066 15.439 2.01764L15.8173 0.379969C13.9208 -0.0793557 12.2825 -0.153965 10.9077 0.331889C9.49462 0.831248 8.48073 1.87825 7.76672 3.3905L9.24632 4.12299ZM15.4413 2.01818L17.271 2.45573L17.6447 0.816965L15.815 0.379423L15.4413 2.01818ZM17.2707 2.45566C19.4869 2.98644 20.7243 3.76756 21.3435 4.78936C21.9625 5.81114 22.0955 7.29181 21.5772 9.55565L23.1772 9.93978C23.7326 7.51407 23.7013 5.48877 22.74 3.90214C21.7785 2.3155 20.0195 1.38572 17.6449 0.81703L17.2707 2.45566Z" fill="#010101"/>
<path d="M15.1461 19.7888L15.6069 20.4854C15.8958 20.285 16.0296 19.9197 15.9406 19.5743C15.8517 19.2288 15.5595 18.9785 15.2116 18.95L15.1461 19.7888ZM12.5713 21.0004L12.3164 20.2005L12.3144 20.2012L12.5713 21.0004ZM10.8403 21.5838L11.0924 22.3846L11.0971 22.3831L10.8403 21.5838ZM2.78735 17.3655L2.00565 17.6248L2.00584 17.6255L2.78735 17.3655ZM1.38494 12.9339L0.60286 13.1921L0.603235 13.1933L1.38494 12.9339ZM5.49356 4.68793L5.74572 5.48878L5.75045 5.48719L5.49356 4.68793ZM7.22466 4.10454L6.97629 3.30242L6.96778 3.30529L7.22466 4.10454ZM8.50655 3.75675L9.24393 4.12809C9.38133 3.84202 9.34904 3.50101 9.16055 3.2473C8.97204 2.99358 8.6597 2.87073 8.3538 2.92999L8.50655 3.75675ZM7.69578 6.22494L6.89591 6.03222L6.89565 6.03331L7.69578 6.22494ZM6.62206 10.9257L7.42209 11.1178L7.42219 11.1174L6.62206 10.9257ZM11.5305 19.0371L11.7208 18.2186L11.7203 18.2184L11.5305 19.0371ZM13.3712 19.4859L13.564 18.6679L13.5615 18.6673L13.3712 19.4859ZM14.6853 19.0922C14.0917 19.5038 13.3152 19.8667 12.3165 20.2005L12.8263 21.8003C13.9092 21.4385 14.8418 21.0161 15.6069 20.4854L14.6853 19.0922ZM12.3144 20.2012L10.5834 20.7846L11.0971 22.3831L12.8283 21.7997L12.3144 20.2012ZM10.5881 20.783C8.4896 21.4758 7.0907 21.4602 6.08698 20.9343C5.08298 20.4083 4.25087 19.2546 3.56885 17.1054L2.00584 17.6255C2.73719 19.9301 3.75671 21.6038 5.3384 22.4324C6.92038 23.2613 8.84125 23.1279 11.0924 22.3846L10.5881 20.783ZM3.56906 17.1061L2.16665 12.6745L0.603235 13.1933L2.00565 17.6248L3.56906 17.1061ZM2.16702 12.6757C1.49019 10.5262 1.50286 9.09029 2.01454 8.0609C2.52557 7.03284 3.64839 6.1812 5.74572 5.48877L5.24141 3.8871C2.98908 4.63071 1.35638 5.67509 0.549906 7.29753C-0.255908 8.91864 -0.122717 10.8877 0.602861 13.1921L2.16702 12.6757ZM5.75045 5.48719L7.48155 4.9038L6.96778 3.30529L5.23668 3.88868L5.75045 5.48719ZM7.47303 4.90662C7.90981 4.7648 8.30119 4.65289 8.6593 4.58352L8.3538 2.92999C7.90115 3.01768 7.43793 3.15259 6.9763 3.30247L7.47303 4.90662ZM7.76918 3.38541C7.40335 4.14711 7.12303 5.0438 6.89591 6.03222L8.49567 6.41767C8.7068 5.49886 8.95239 4.73512 9.24393 4.12809L7.76918 3.38541ZM6.89565 6.03331L5.82193 10.7341L7.42219 11.1174L8.49591 6.41658L6.89565 6.03331ZM5.82203 10.7337C5.26641 13.1604 5.30101 15.1826 6.2623 16.7675C7.22301 18.3513 8.97788 19.2813 11.3407 19.8557L11.7203 18.2184C9.51434 17.6822 8.27813 16.9013 7.65839 15.8795C7.03921 14.8587 6.904 13.3806 7.42209 11.1178L5.82203 10.7337ZM11.3402 19.8556L13.1808 20.3044L13.5615 18.6673L11.7208 18.2186L11.3402 19.8556ZM13.1783 20.3038C13.8481 20.4693 14.4827 20.5786 15.0806 20.6275L15.2116 18.95C14.7138 18.9092 14.1652 18.8165 13.564 18.6679L13.1783 20.3038Z" fill="#010101"/>
<path d="M12.6968 6.78946C12.2569 6.67522 11.8099 6.94777 11.6983 7.39822C11.5868 7.84867 11.8529 8.30644 12.2928 8.42067L12.6968 6.78946ZM17.6067 9.80062C18.0465 9.91485 18.4936 9.6423 18.6052 9.19185C18.7167 8.74141 18.4506 8.28364 18.0107 8.1694L17.6067 9.80062ZM12.2928 8.42067L17.6067 9.80062L18.0107 8.1694L12.6968 6.78946L12.2928 8.42067Z" fill="#010101"/>
<path d="M11.6243 11.1316C11.1846 11.0167 10.7372 11.2885 10.625 11.7388C10.5127 12.1891 10.7783 12.6473 11.218 12.7622L11.6243 11.1316ZM14.3953 13.5924C14.8351 13.7073 15.2825 13.4354 15.3947 12.9851C15.5069 12.5348 15.2414 12.0767 14.8017 11.9618L14.3953 13.5924ZM11.218 12.7622L14.3953 13.5924L14.8017 11.9618L11.6243 11.1316L11.218 12.7622Z" fill="#010101"/>
</svg>
