<svg width="330" height="1007" viewBox="0 0 330 1007" fill="none" xmlns="http://www.w3.org/2000/svg">
<g filter="url(#filter0_d_37_41016)">
<rect x="54" y="54" width="222" height="899" fill="#FE335C"/>
</g>
<circle cx="106" cy="118" r="24" fill="white"/>
<path d="M112.389 115.99C112.389 120.14 108.339 125.13 106.689 126.99C106.319 127.4 105.679 127.4 105.309 126.99C103.659 125.13 99.6094 120.14 99.6094 115.99C99.6094 112.46 102.469 109.6 105.999 109.6C109.529 109.6 112.389 112.46 112.389 115.99Z" fill="#FE335C"/>
<path d="M105.99 118.55C107.404 118.55 108.55 117.404 108.55 115.99C108.55 114.576 107.404 113.43 105.99 113.43C104.576 113.43 103.43 114.576 103.43 115.99C103.43 117.404 104.576 118.55 105.99 118.55Z" fill="white"/>
<rect x="107" y="224" width="9" height="9" rx="2" fill="white"/>
<rect x="96" y="224" width="9" height="9" rx="2" fill="white"/>
<rect x="107" y="235" width="9" height="9" rx="2" fill="white"/>
<rect x="96" y="235" width="9" height="9" rx="2" fill="white"/>
<path d="M110.793 433H101.207C100.539 433 100 432.439 100 431.743V419.257C100 418.561 100.539 418 101.207 418H110.793C111.461 418 112 418.561 112 419.257V431.743C112 432.439 111.461 433 110.793 433Z" fill="#FE335C" stroke="white" stroke-opacity="0.8" stroke-width="1.2" stroke-miterlimit="10" stroke-linecap="round" stroke-linejoin="round"/>
<path d="M103 424H107.026" stroke="white" stroke-opacity="0.8" stroke-width="1.2" stroke-miterlimit="10" stroke-linecap="round" stroke-linejoin="round"/>
<path d="M103 427H109" stroke="white" stroke-opacity="0.8" stroke-width="1.2" stroke-miterlimit="10" stroke-linecap="round" stroke-linejoin="round"/>
<path d="M114.072 498H98.928C97.8676 498 97 497.159 97 496.132V485.868C97 484.841 97.8676 484 98.928 484H114.072C115.132 484 116 484.841 116 485.868V496.132C116 497.159 115.142 498 114.072 498Z" fill="#FE335C" stroke="white" stroke-opacity="0.8" stroke-width="1.2" stroke-miterlimit="10" stroke-linecap="round" stroke-linejoin="round"/>
<path d="M97 487C97 486.448 97.4477 486 98 486H115C115.552 486 116 486.448 116 487H97Z" fill="white" fill-opacity="0.8"/>
<path d="M97 490C97 489.448 97.4477 489 98 489H115C115.552 489 116 489.448 116 490H97Z" fill="white" fill-opacity="0.8"/>
<path d="M102 485V482" stroke="white" stroke-opacity="0.8" stroke-width="1.2" stroke-miterlimit="10" stroke-linecap="round" stroke-linejoin="round"/>
<path d="M111 485V482" stroke="white" stroke-opacity="0.8" stroke-width="1.2" stroke-miterlimit="10" stroke-linecap="round" stroke-linejoin="round"/>
<path d="M112.071 560H99.9289C98.868 560 98 559.15 98 558.112V548.944C98 548.425 98.434 548 98.9644 548H113.036C113.566 548 114 548.425 114 548.944V558.112C114 559.15 113.132 560 112.071 560Z" fill="#FE335C" stroke="white" stroke-opacity="0.8" stroke-miterlimit="10" stroke-linecap="round" stroke-linejoin="round"/>
<path d="M99 548L105.511 552.838C105.802 553.054 106.198 553.054 106.489 552.838L113 548" fill="#FE335C"/>
<path d="M99 548L105.511 552.838C105.802 553.054 106.198 553.054 106.489 552.838L113 548H99Z" stroke="white" stroke-opacity="0.8" stroke-miterlimit="10" stroke-linecap="round" stroke-linejoin="round"/>
<path d="M113.786 614.763C113.804 614.744 113.822 614.723 113.837 614.701C113.944 614.546 113.958 614.345 113.866 614.181C113.475 613.488 113.021 612.9 112.462 612.374C112.267 612.191 111.979 612.157 111.738 612.272C110.256 613.124 108.378 612.272 108.081 610.568C108.021 610.337 107.833 610.159 107.598 610.118C107.226 610.052 106.841 610 106.401 610C105.948 610 105.61 610.055 105.255 610.124C105.06 610.161 104.919 610.333 104.919 610.532C104.919 610.556 104.917 610.58 104.912 610.604C104.596 612.284 102.734 613.118 101.262 612.272C101.021 612.157 100.733 612.191 100.541 612.376C99.9853 612.914 99.5342 613.544 99.1452 614.185C99.0479 614.346 99.0569 614.548 99.1641 614.702C99.1787 614.723 99.1953 614.743 99.2127 614.762C100.365 615.995 99.8659 617.957 98.2965 618.521C98.1234 618.576 98.0117 618.744 98.0324 618.925C98.1275 619.753 98.2916 620.569 98.5746 621.278C98.6417 621.446 98.8076 621.55 98.9884 621.55C100.662 621.456 102.042 622.959 101.564 624.561C101.56 624.573 101.555 624.586 101.549 624.597C101.498 624.695 101.53 624.815 101.624 624.872C102.438 625.374 103.333 625.79 104.309 625.979C104.381 625.993 104.456 625.97 104.509 625.919C104.519 625.91 104.527 625.9 104.535 625.89C105.524 624.585 107.576 624.585 108.565 625.891C108.572 625.9 108.58 625.909 108.588 625.918C108.642 625.969 108.718 625.989 108.79 625.969C109.793 625.699 110.707 625.342 111.455 624.745C111.501 624.708 111.503 624.639 111.461 624.598C111.448 624.586 111.439 624.571 111.434 624.555C110.961 622.955 112.242 621.456 114.012 621.55C114.191 621.55 114.354 621.443 114.42 621.276C114.72 620.515 114.945 619.748 114.991 618.927C115.002 618.741 114.88 618.577 114.703 618.521C113.135 617.863 112.636 615.994 113.786 614.763Z" fill="#FE335C" stroke="white" stroke-opacity="0.8" stroke-width="1.3" stroke-miterlimit="10" stroke-linecap="round" stroke-linejoin="round"/>
<path d="M106.717 621.164C108.405 621.05 109.676 619.646 109.557 618.03C109.438 616.413 107.973 615.195 106.285 615.309C104.597 615.423 103.325 616.826 103.444 618.443C103.564 620.06 105.029 621.278 106.717 621.164Z" fill="#FE335C" stroke="white" stroke-opacity="0.8" stroke-miterlimit="10" stroke-linecap="round" stroke-linejoin="round"/>
<path d="M103.837 290.377C99.503 290.377 96 293.878 96 298.188C96 302.508 99.5129 306 103.837 306C108.172 306 111.675 302.499 111.675 298.188H103.837V290.377Z" fill="#FE335C" stroke="white" stroke-opacity="0.8" stroke-width="1.2" stroke-miterlimit="10" stroke-linecap="round" stroke-linejoin="round"/>
<path d="M106.162 288C110.496 288 113.999 291.501 113.999 295.812H106.162V288Z" fill="#FE335C" stroke="white" stroke-opacity="0.8" stroke-width="1.2" stroke-miterlimit="10" stroke-linecap="round" stroke-linejoin="round"/>
<path d="M111.017 354C109.03 354 107.311 355.208 106.505 356.942C105.698 355.208 103.989 354 101.992 354C99.237 354 97 356.308 97 359.151C97 363.222 102.741 368.442 105.295 370.562C106.006 371.146 107.004 371.146 107.705 370.562C110.268 368.432 116 363.212 116 359.151C116.01 356.308 113.773 354 111.017 354Z" fill="#FE335C" stroke="white" stroke-opacity="0.8" stroke-width="1.2" stroke-miterlimit="10" stroke-linecap="round" stroke-linejoin="round"/>
<rect x="156" y="214" width="2" height="40" rx="1" fill="white"/>
<defs>
<filter id="filter0_d_37_41016" x="0" y="0" width="330" height="1007" filterUnits="userSpaceOnUse" color-interpolation-filters="sRGB">
<feFlood flood-opacity="0" result="BackgroundImageFix"/>
<feColorMatrix in="SourceAlpha" type="matrix" values="0 0 0 0 0 0 0 0 0 0 0 0 0 0 0 0 0 0 127 0" result="hardAlpha"/>
<feOffset/>
<feGaussianBlur stdDeviation="27"/>
<feComposite in2="hardAlpha" operator="out"/>
<feColorMatrix type="matrix" values="0 0 0 0 0 0 0 0 0 0 0 0 0 0 0 0 0 0 0.06 0"/>
<feBlend mode="normal" in2="BackgroundImageFix" result="effect1_dropShadow_37_41016"/>
<feBlend mode="normal" in="SourceGraphic" in2="effect1_dropShadow_37_41016" result="shape"/>
</filter>
</defs>
</svg>
