<svg width="64" height="64" viewBox="0 0 64 64" fill="none" xmlns="http://www.w3.org/2000/svg">
<path d="M22.2611 25.0431H23.6524C25.1892 25.0431 26.435 23.7972 26.435 22.2604C26.435 21.4921 27.058 20.8691 27.8263 20.8691H36.1742C36.9426 20.8691 37.5655 21.4921 37.5655 22.2604C37.5655 23.7972 38.8113 25.0431 40.3481 25.0431H41.7394C43.2762 25.0431 44.522 26.2889 44.522 27.8257V40.3474C44.522 41.8842 43.2762 43.13 41.7394 43.13H22.2611C20.7243 43.13 19.4785 41.8842 19.4785 40.3474V27.8257C19.4785 26.2889 20.7243 25.0431 22.2611 25.0431Z" stroke="#213A52" stroke-width="2.22609" stroke-linecap="round" stroke-linejoin="round"/>
<path d="M32.0001 37.5646C34.3053 37.5646 36.174 35.6959 36.174 33.3907C36.174 31.0855 34.3053 29.2168 32.0001 29.2168C29.6949 29.2168 27.8262 31.0855 27.8262 33.3907C27.8262 35.6959 29.6949 37.5646 32.0001 37.5646Z" stroke="#213A52" stroke-width="2.22609" stroke-linecap="round" stroke-linejoin="round"/>
</svg>
