<svg width="9" height="13" viewBox="0 0 9 13" fill="none" xmlns="http://www.w3.org/2000/svg">
<mask id="mask0_0_586" style="mask-type:luminance" maskUnits="userSpaceOnUse" x="-4" y="-2" width="17" height="17">
<rect x="-3.21429" y="-1.28571" width="15.4286" height="15.4286" fill="white"/>
</mask>
<g mask="url(#mask0_0_586)">
<path fill-rule="evenodd" clip-rule="evenodd" d="M4.5 12.8571L5.14286 11.5714V9.64286H8.35714C8.71264 9.64286 9 9.3555 9 9V7.98043C9 7.64229 8.86243 7.31057 8.62329 7.07143L7.71429 6.16243V3.85714C8.06979 3.85714 8.35714 3.56979 8.35714 3.21429V1.28571C8.35714 0.576643 7.7805 0 7.07143 0H1.92857C1.2195 0 0.642857 0.576643 0.642857 1.28571V3.21429C0.642857 3.56979 0.930857 3.85714 1.28571 3.85714V6.16243L0.376714 7.07143C0.136928 7.31057 0 7.64229 0 7.98043V9C0 9.3555 0.288 9.64286 0.642857 9.64286H3.85714V11.5714L4.5 12.8571ZM1.92857 1.28571H7.07143V2.57143H1.92857V1.28571ZM1.28571 7.98043L2.38307 6.88307C2.50393 6.76286 2.57143 6.59957 2.57143 6.42857V3.85714H6.42857V6.42857C6.42857 6.59957 6.49607 6.76286 6.61693 6.88307L7.71429 7.98043V8.35714H1.28571V7.98043Z" fill="#4EAC6D"/>
</g>
</svg>
