<svg width="30" height="30" viewBox="0 0 30 30" fill="none" xmlns="http://www.w3.org/2000/svg">
<g clip-path="url(#clip0_52_52663)">
<path d="M22.0313 17.5313C24.413 17.5313 26.3438 15.6005 26.3438 13.2188C26.3438 10.837 24.413 8.90625 22.0313 8.90625C19.6495 8.90625 17.7188 10.837 17.7188 13.2188C17.7188 15.6005 19.6495 17.5313 22.0313 17.5313Z" fill="#493426"/>
<path d="M17.7187 5.34375L17.8125 5.4375C18.375 6 21 8.90625 20.7188 14.625C20.7188 14.625 21 16.4062 23.3437 16.4062C23.3437 16.4062 23.1562 15.1875 23.5312 14.3438C23.9062 13.5 24.8437 9.09375 23.8125 6.75C22.7812 4.40625 19.9688 1.875 16.5 1.59375" fill="#302119"/>
<path d="M6.0933 26.3428C3.93705 25.1241 2.9058 22.0303 4.0308 19.0303C4.4058 17.9991 6.4683 15.3741 7.0308 14.9053C8.9058 13.4053 16.9683 12.1866 23.2496 17.2491C24.3746 18.1866 25.2183 19.6866 25.5933 21.3741V21.4678C26.4371 26.0616 25.0308 29.8116 21.1871 29.8116C16.7808 29.7178 9.74955 28.5928 6.0933 26.3428Z" fill="#692A2A"/>
<path d="M6.8438 25.2182C4.9688 24.0932 3.93755 21.4682 4.9688 18.9369C5.3438 18.0932 7.12505 15.7494 7.68755 15.3744C9.37505 14.0619 16.5 13.0307 22.125 17.3432C23.1563 18.0932 23.9063 19.4057 24.1875 20.9057V20.9994C24.9375 24.9369 23.625 28.1244 20.3438 28.1244C16.4063 28.1244 10.125 27.1869 6.8438 25.2182Z" fill="#BD4F53"/>
<path d="M6.37488 22.9691C4.40613 22.0316 5.15613 19.8753 6.18738 17.5316C6.56238 16.7816 7.40613 16.0316 7.96863 15.6566C9.74988 14.5316 16.5936 13.5003 22.2186 17.2503C23.2499 17.9066 23.9999 19.0316 24.2811 20.3441V20.4378C25.0311 23.9066 22.4999 26.9066 19.4061 26.4378C15.4686 25.8753 9.65613 24.5628 6.37488 22.9691Z" fill="#E8A77B"/>
<path d="M6.18749 22.9689C4.49999 22.0314 6.28124 21.0002 7.12499 18.6564C7.40624 17.9064 9.09374 16.2189 9.56249 15.8439C11.0625 14.7189 14.8125 13.4064 19.6875 17.2502C20.5312 17.9064 21.2812 19.0314 21.4687 20.3439V20.4377C22.125 23.9064 20.4375 26.5314 17.7187 26.0627C14.3437 25.4064 8.99999 24.5627 6.18749 22.9689Z" fill="#FFDEC2"/>
<path d="M18.4688 17.0625C18.4688 17.0625 19.3125 21.2812 16.7812 22.5938C16.7812 22.5938 23.1562 22.4062 24.8438 21.375C24.8438 21.375 25.4062 17.8125 20.4375 16.2187L18.4688 17.0625ZM8.15625 15.5625C8.15625 15.5625 7.03125 16.4062 6 18.0937L7.21875 18.8438L7.40625 20.7188C7.40625 20.7188 7.125 17.8125 9.5625 16.6875L8.15625 15.5625Z" fill="#BD4F53"/>
<path d="M6.09409 19.5C6.09409 19.5 10.8753 24 24.6566 21.375L23.0628 25.6875C23.0628 25.6875 18.5628 26.5313 12.4691 25.0313C6.75034 23.625 4.21909 24.9375 6.09409 19.5Z" fill="#8E4028"/>
<path d="M4.96891 19.2186C5.06266 18.8436 5.25016 19.9686 5.62516 20.1561C6.93766 20.9998 9.75016 22.7811 16.9689 23.5311C18.6564 23.7186 21.6564 22.4061 24.5627 21.7498C24.5627 21.7498 24.6564 22.4061 24.5627 23.2498C24.2814 25.2186 22.4064 26.8123 20.4377 26.8123C18.0939 26.8123 15.7502 26.7186 12.3752 25.8748C6.93766 24.4686 3.84391 23.9061 4.96891 19.2186Z" fill="#E08484"/>
<path d="M8.90625 25.3125C8.90625 25.3125 10.2188 25.0312 11.0625 24C11.0625 24 11.3437 25.7812 12.5625 26.1562C12.6562 26.25 9.28125 25.5 8.90625 25.3125Z" fill="#BD4F53"/>
<path d="M15.2812 23.4375C15.2812 23.4375 20.4375 22.7812 19.875 17.7187C19.875 17.7187 21.2812 16.875 22.4062 17.9062C23.5312 18.9375 25.2188 19.9687 24.5625 23.0625C24.4688 23.0625 15.9375 25.125 15.2812 23.4375ZM7.875 21.5625C7.875 21.5625 7.03125 19.125 7.6875 17.9062C8.34375 16.6875 9.375 15.9375 9.375 15.9375L8.4375 15.1875C8.4375 15.1875 5.34375 17.4375 4.875 19.875L7.875 21.5625Z" fill="#E08484"/>
<path d="M19.875 24.8442C19.875 24.8442 20.1563 25.8754 19.875 27.0942H21.4688C21.4688 27.0942 21.1875 24.8442 19.6875 23.0629L19.875 24.8442ZM5.90625 21.7504C5.90625 21.7504 5.71875 22.5942 6 23.6254L4.6875 23.8129C4.6875 23.8129 4.78125 22.7817 5.25 21.6567C5.34375 21.2817 5.90625 21.3754 5.90625 21.7504Z" fill="#BD4F53"/>
<path d="M12.2812 23.625C12.2812 23.625 16.7812 22.7813 18.9374 24.0938C18.9374 24.0938 19.4999 25.0312 18.9374 25.3125C18.3749 25.5 14.4374 23.625 12.3749 24.2812C12.3749 24.1875 11.9062 23.8125 12.2812 23.625ZM6.1874 21.5625C6.1874 21.5625 9.46865 21.6563 10.7812 22.9688C10.7812 22.9688 11.0624 23.7187 10.5937 23.8125C10.1249 23.9062 7.6874 21.9375 6.09365 22.0312C6.1874 22.0312 5.90615 21.6562 6.1874 21.5625Z" fill="#F4ABAB"/>
<path d="M10.2188 2.71875C10.2188 2.71875 14.0625 0.75 17.25 2.0625C17.25 2.0625 18.1875 3.28125 15.8438 3.5625C13.5 3.84375 13.5938 2.53125 10.2188 2.71875Z" fill="white"/>
<path d="M23.487 10.1712C23.504 5.45952 19.6983 1.62611 14.9866 1.60904C10.275 1.59197 6.44154 5.3977 6.42447 10.1094C6.40739 14.8211 10.2131 18.6545 14.9248 18.6715C19.6365 18.6886 23.4699 14.8829 23.487 10.1712Z" fill="#8E4028"/>
<path d="M23.0488 9.52658C23.0655 4.91846 19.3854 1.16945 14.829 1.15294C10.2727 1.13643 6.56549 4.85867 6.54879 9.4668C6.53209 14.0749 10.2122 17.8239 14.7686 17.8404C19.3249 17.857 23.0321 14.1347 23.0488 9.52658Z" fill="#E8A77B"/>
<path d="M22.984 9.27837C22.9999 4.87735 19.571 1.29715 15.3253 1.28176C11.0796 1.26638 7.6249 4.82164 7.60895 9.22266C7.59301 13.6237 11.0219 17.2039 15.2676 17.2193C19.5133 17.2346 22.968 13.6794 22.984 9.27837Z" fill="#E8BD89"/>
<path d="M18.7252 10.3904C18.7368 7.18022 16.2278 4.56875 13.1212 4.55749C10.0146 4.54623 7.4868 7.13945 7.47516 10.3496C7.46353 13.5598 9.9725 16.1712 13.0791 16.1825C16.1857 16.1937 18.7135 13.6005 18.7252 10.3904Z" fill="#FFDEC2"/>
<path d="M7.12477 8.8125C7.12477 8.8125 7.40602 7.59375 10.2185 7.59375C13.031 7.59375 17.0623 7.875 18.7498 6.09375L18.0935 5.53125C18.0935 5.53125 16.406 6.46875 13.5935 6.46875C10.781 6.46875 7.21852 7.125 6.93727 7.40625C6.74977 7.6875 7.12477 8.8125 7.12477 8.8125Z" fill="#E8A77B"/>
<path d="M15.772 11.0347C15.7738 10.517 15.4396 10.096 15.0253 10.0945C14.6111 10.093 14.2738 10.5115 14.272 11.0293C14.2701 11.5471 14.6043 11.968 15.0186 11.9695C15.4328 11.971 15.7701 11.5525 15.772 11.0347Z" fill="#8E4028"/>
<path d="M15.3679 10.6459C15.3682 10.5423 15.2846 10.4581 15.181 10.4577C15.0775 10.4573 14.9932 10.541 14.9929 10.6445C14.9925 10.7481 15.0761 10.8323 15.1797 10.8327C15.2832 10.8331 15.3675 10.7494 15.3679 10.6459Z" fill="white"/>
<path d="M9.54637 9.96637C9.54824 9.44861 9.21398 9.02766 8.79976 9.02616C8.38555 9.02465 8.04824 9.44317 8.04637 9.96094C8.04449 10.4787 8.37876 10.8997 8.79297 10.9012C9.20718 10.9027 9.54449 10.4841 9.54637 9.96637Z" fill="#8E4028"/>
<path d="M9.1413 9.67128C9.14168 9.56773 9.05804 9.48348 8.95448 9.4831C8.85093 9.48273 8.76668 9.56637 8.7663 9.66992C8.76593 9.77348 8.84957 9.85773 8.95312 9.8581C9.05668 9.85848 9.14093 9.77483 9.1413 9.67128Z" fill="white"/>
<path d="M19.6872 3.65653C19.6872 3.65653 18.281 6.75028 14.3435 6.46903C10.4997 6.09403 7.59346 6.84403 6.46846 8.43778C6.46846 8.43778 6.28096 2.25028 12.0935 1.31278C17.906 0.375282 19.6872 2.81278 19.6872 3.65653Z" fill="#493426"/>
<path d="M17.25 4.875L17.3437 4.96875C17.9062 5.53125 20.5312 8.4375 20.25 14.1563C20.25 14.1563 20.5312 15.9375 22.875 15.9375C22.875 15.9375 22.6875 14.7188 23.0625 13.875C23.4375 13.0312 24.375 8.625 23.3437 6.28125C22.3125 3.9375 19.5 1.40625 16.0312 1.125" fill="#493426"/>
<path d="M20.0625 10.9687C20.0625 10.9687 21 10.4063 21.4688 10.7813C22.2188 11.5313 21.5625 12.75 20.1563 12.9375L20.0625 10.9687Z" fill="#E8BD89"/>
<path d="M17.9062 6.375C17.9062 6.375 19.7812 8.53125 20.0625 10.9687C20.0625 10.9687 19.875 7.21875 18.0937 5.90625L17.9062 6.375ZM20.7188 12.8437C20.7188 12.8437 20.4375 14.8125 21.75 15.6563C21.75 15.6563 21.0937 15.8438 20.5312 15.0938C19.9687 14.4375 20.1562 12.9375 20.1562 12.9375L20.7188 12.8437Z" fill="#E8A77B"/>
<path d="M12.375 22.2188C12.375 22.2188 11.625 20.8125 12.6562 19.5C12.6562 19.5 11.3438 19.6875 11.25 22.2188C11.25 22.2188 11.9062 22.6875 12.375 22.2188Z" fill="#A85038"/>
<path d="M13.875 14.4375C13.875 14.4375 13.125 14.3437 12.5625 13.875C12 13.4062 11.4375 13.5 11.3438 13.5C11.25 13.5 11.0625 13.3125 10.875 13.2188C10.6875 13.125 10.4062 13.125 10.4062 13.2188C10.4062 13.3125 10.5937 13.7812 10.5937 13.7812V14.3438C10.5937 14.5312 10.5937 15.0938 11.1562 15.1875C11.7187 15.2813 12.1875 15.2813 12.4687 15.0938C12.75 15.0938 13.875 14.4375 13.875 14.4375Z" fill="#A53829"/>
<path d="M19.9688 23.9062C19.9688 23.9062 22.2188 25.875 24.375 24.9375C26.5313 24 20.9063 27.375 20.9063 27.375L19.9688 23.9062Z" fill="#BD4F53"/>
<path d="M16.9684 4.96875C16.9684 4.96875 15.4684 4.78125 14.9996 3.1875C14.5309 1.59375 13.8746 0.1875 11.2496 0.1875C8.62463 0.1875 5.43713 2.15625 6.46838 4.96875C7.49963 7.78125 17.1559 7.78125 16.9684 4.96875Z" fill="#493426"/>
<path d="M16.0314 5.0625C16.0314 5.0625 14.8127 4.875 14.3439 3.65625C13.8752 2.34375 13.5002 1.125 11.2502 1.125C9.00017 1.125 6.46892 2.71875 7.31267 5.0625C8.15642 7.40625 16.2189 7.40625 16.0314 5.0625Z" fill="#604637"/>
<path d="M20.8125 17.3438C20.8125 17.3438 25.875 22.125 22.5937 26.0625C22.5937 26.0625 23.25 27.0937 24.0938 25.5937C24.8438 24.0937 26.25 19.0312 20.8125 17.3438Z" fill="#BD4F53"/>
</g>
<defs>
<clipPath id="clip0_52_52663">
<rect width="30" height="30" fill="white"/>
</clipPath>
</defs>
</svg>
