<svg width="28" height="28" viewBox="0 0 28 28" fill="none" xmlns="http://www.w3.org/2000/svg">
<g clip-path="url(#clip0_6_12198)">
<path d="M14.001 0.875C6.7577 0.875 0.875983 6.75685 0.875983 14.0009C0.880359 16.319 1.51022 18.5877 2.67725 20.5873L0.8982 25.9244C0.78417 26.2666 1.10987 26.5921 1.45191 26.4782L6.55665 24.7769C8.74457 26.2915 11.3349 27.121 14.0001 27.125C21.2438 27.1248 27.1251 21.2435 27.1251 14C27.1251 6.75632 21.2442 0.875166 14.001 0.875ZM9.61488 12.6875C10.3345 12.6875 10.9274 13.2804 10.9274 14C10.9274 14.7198 10.3345 15.3125 9.61488 15.3125C8.89522 15.3125 8.30324 14.7198 8.30323 14C8.30323 13.2804 8.89521 12.6875 9.61488 12.6875ZM14.001 12.6875C14.7207 12.6875 15.3135 13.2804 15.3135 14C15.3135 14.7198 14.7206 15.3125 14.001 15.3125C13.2813 15.3125 12.6885 14.7198 12.6885 14C12.6885 13.2804 13.2813 12.6875 14.001 12.6875ZM18.3649 12.6875C19.0845 12.6875 19.6774 13.2804 19.6774 14C19.6774 14.7198 19.0845 15.3125 18.3649 15.3125C17.6452 15.3125 17.0524 14.7198 17.0524 14C17.0524 13.2804 17.6452 12.6875 18.3649 12.6875Z" fill="#FF8E26"/>
</g>
<defs>
<clipPath id="clip0_6_12198">
<rect width="28" height="28" fill="white"/>
</clipPath>
</defs>
</svg>
