<svg width="13" height="13" viewBox="0 0 13 13" fill="none" xmlns="http://www.w3.org/2000/svg">
<path d="M7.04478 2.48691C7.04478 1.11343 5.93135 0 4.55787 0C3.18439 0 2.07097 1.11343 2.07097 2.48691C2.07097 3.86039 3.18439 4.97381 4.55787 4.97381C5.93067 4.97216 7.04313 3.8597 7.04478 2.48691Z" fill="#636363"/>
<path d="M9.05956 7.12952C8.91109 6.97093 8.68799 6.90586 8.47754 6.95978C8.2671 7.0137 8.10277 7.17803 8.04885 7.38847C7.99493 7.59892 8.06 7.82202 8.21859 7.97049L8.98756 8.73946L8.21859 9.50843C8.06 9.6569 7.99493 9.88 8.04885 10.0904C8.10277 10.3009 8.2671 10.4652 8.47754 10.5191C8.68799 10.5731 8.91109 10.508 9.05956 10.3494L10.2485 9.16044C10.3602 9.04901 10.423 8.89773 10.423 8.73996C10.423 8.58219 10.3602 8.43091 10.2485 8.31948L9.05956 7.12952Z" fill="#636363"/>
<path fill-rule="evenodd" clip-rule="evenodd" d="M5.49979 6.26089C6.2833 5.20318 7.52138 4.57895 8.83767 4.57795C10.7818 4.57751 12.4671 5.9234 12.8966 7.8195C13.3262 9.71559 12.3854 11.6564 10.6309 12.4938C8.87641 13.3313 6.77584 12.8421 5.57179 11.3157H0.594978C0.267513 11.313 0.00271771 11.0482 1.79114e-08 10.7207C-0.000121664 9.34656 0.61975 8.04568 1.68709 7.18017C2.75443 6.31465 4.1553 5.97689 5.49979 6.26089ZM5.86478 8.7388C5.86478 10.3807 7.19579 11.7117 8.83767 11.7117C10.4789 11.71 11.8089 10.38 11.8106 8.7388C11.8106 7.09692 10.4795 5.76591 8.83767 5.76591C7.19579 5.76591 5.86478 7.09692 5.86478 8.7388Z" fill="#636363"/>
</svg>
