<svg width="20" height="20" viewBox="0 0 20 20" fill="none" xmlns="http://www.w3.org/2000/svg">
<path d="M10.9001 2.90005C10.8182 2.73098 10.6904 2.58839 10.5312 2.48862C10.372 2.38885 10.188 2.33594 10.0001 2.33594C9.81225 2.33594 9.62819 2.38885 9.46901 2.48862C9.30984 2.58839 9.18199 2.73098 9.1001 2.90005L7.1701 6.80005L2.8601 7.43005C2.67613 7.45678 2.50325 7.53427 2.36088 7.65381C2.21851 7.77335 2.11228 7.93021 2.05411 8.10678C1.99595 8.28335 1.98815 8.47264 2.03161 8.65339C2.07506 8.83415 2.16804 8.99921 2.3001 9.13005L5.4301 12.18L4.6901 16.48C4.65962 16.6635 4.6809 16.8518 4.75155 17.0239C4.82221 17.1959 4.93944 17.3448 5.09007 17.4539C5.2407 17.563 5.41876 17.6279 5.60425 17.6413C5.78974 17.6548 5.97531 17.6163 6.1401 17.53L9.5701 15.73C9.7301 15.33 9.9701 14.97 10.2701 14.66L10.3701 14.57C10.2363 14.5184 10.0929 14.4961 9.94966 14.5047C9.80644 14.5133 9.66676 14.5527 9.5401 14.62L5.6701 16.65L6.4101 12.35C6.43804 12.1893 6.42622 12.0242 6.37567 11.869C6.32512 11.7139 6.23738 11.5735 6.1201 11.46L3.0001 8.43005L7.3201 7.80005C7.48032 7.77598 7.63229 7.71335 7.76293 7.61755C7.89358 7.52174 7.99899 7.39562 8.0701 7.25005L10.0001 3.35005L11.9301 7.25005C12.0801 7.55005 12.3601 7.75005 12.6801 7.80005L17.0001 8.43005L16.2801 9.13005C16.7601 8.98005 17.2801 8.96005 17.7701 9.07005C17.8841 8.93308 17.9594 8.76814 17.9882 8.59229C18.0171 8.41645 17.9984 8.23609 17.9342 8.06988C17.87 7.90366 17.7625 7.75764 17.6229 7.6469C17.4832 7.53617 17.3166 7.46476 17.1401 7.44005L12.8301 6.81005L10.9001 2.90005ZM15.8001 10.55L10.9801 15.38C10.698 15.6613 10.4975 16.0138 10.4001 16.4L10.0301 17.9C9.99473 18.0486 9.99817 18.2037 10.0401 18.3506C10.082 18.4974 10.161 18.631 10.2695 18.7385C10.378 18.8459 10.5123 18.9237 10.6595 18.9642C10.8067 19.0048 10.9619 19.0068 11.1101 18.97L12.6101 18.6C12.9901 18.5 13.3401 18.3 13.6201 18.02L18.4501 13.19C18.7669 12.8336 18.9355 12.3695 18.9215 11.8928C18.9075 11.4161 18.7118 10.9628 18.3746 10.6255C18.0374 10.2883 17.5841 10.0927 17.1073 10.0786C16.6306 10.0646 16.1666 10.2332 15.8101 10.55H15.8001Z" fill="#2B2B2B"/>
</svg>
