<svg width="16" height="16" viewBox="0 0 16 16" fill="none" xmlns="http://www.w3.org/2000/svg">
<path d="M11.3333 14H10.6666C10.4898 14 10.3202 13.9298 10.1952 13.8047C10.0702 13.6797 9.99996 13.5101 9.99996 13.3333V8.66667C9.99996 8.48986 10.0702 8.32029 10.1952 8.19526C10.3202 8.07024 10.4898 8 10.6666 8H11.3333C11.8637 8 12.3724 8.21071 12.7475 8.58579C13.1226 8.96086 13.3333 9.46957 13.3333 10V12C13.3333 12.5304 13.1226 13.0391 12.7475 13.4142C12.3724 13.7893 11.8637 14 11.3333 14ZM4.66663 14H5.33329C5.5101 14 5.67967 13.9298 5.8047 13.8047C5.92972 13.6797 5.99996 13.5101 5.99996 13.3333V8.66667C5.99996 8.48986 5.92972 8.32029 5.8047 8.19526C5.67967 8.07024 5.5101 8 5.33329 8H4.66663C4.13619 8 3.62749 8.21071 3.25241 8.58579C2.87734 8.96086 2.66663 9.46957 2.66663 10V12C2.66663 12.5304 2.87734 13.0391 3.25241 13.4142C3.62749 13.7893 4.13619 14 4.66663 14V14Z" stroke="#333333" stroke-linecap="round" stroke-linejoin="round"/>
<path d="M2.66669 11.3333L2.42669 8C2.36982 7.23346 2.47174 6.46343 2.72608 5.73809C2.98042 5.01274 3.3817 4.34768 3.90482 3.78451C4.42794 3.22135 5.06165 2.77219 5.7663 2.46513C6.47095 2.15807 7.23138 1.99973 8.00002 2V2C8.76867 1.99973 9.5291 2.15807 10.2337 2.46513C10.9384 2.77219 11.5721 3.22135 12.0952 3.78451C12.6183 4.34768 13.0196 5.01274 13.274 5.73809C13.5283 6.46343 13.6302 7.23346 13.5734 8L13.3334 11.3333" stroke="#333333" stroke-linecap="round" stroke-linejoin="round"/>
</svg>
