<svg width="35" height="35" viewBox="0 0 35 35" fill="none" xmlns="http://www.w3.org/2000/svg">
<g clip-path="url(#clip0_52_57776)">
<path d="M31.2812 4.48438C31.2812 4.48438 31.2812 6.78125 29.8594 7.32812L31.3906 7C31.3906 7 32.8125 11.0469 31.5 13.0156L33.5781 10.5L32.4844 7.65625L31.2812 4.48438ZM0.546875 27.2344L4.04688 32.2656L8.20312 30.9531L5.25 29.75L0.546875 27.2344Z" fill="#5C2E0E"/>
<path d="M27.0156 6.78125L31.3906 2.1875L32.2656 4.59375L31.8281 6.01562L33.0313 6.45312L34.4531 10.1719L19.1406 24.6094L27.0156 6.78125Z" fill="#5C2E0E"/>
<path d="M34.4531 10.1719C33.0312 11.1563 30.9531 11.375 30.9531 11.375C33.0312 10.0625 33.25 7.76562 33.25 7.76562C32.1562 9.07812 30.625 9.29688 29.3125 9.625C28.1094 8.20313 26.1406 7.54688 23.4062 8.3125C16.8438 9.95312 17.6094 16.9531 17.6094 16.9531C10.8281 17.3906 6.125 11.375 6.125 11.375C3.39062 16.1875 7.4375 19.25 7.4375 19.25C6.01563 19.3594 5.03125 18.4844 5.03125 18.4844C4.26562 23.2969 9.29688 24.2812 9.29688 24.2812C8.20312 25.1562 6.78125 24.7188 6.78125 24.7188C7.54687 28.9844 12.0312 28.875 12.0312 28.875C8.09375 32.375 3.71875 31.3906 3.71875 31.3906C3.71875 31.3906 4.15625 34.0156 11.7031 34.4531C20.5625 35 27.7812 28.6562 29.9688 21.6562C30.7344 19.1406 31.1719 16.4062 30.9531 14.1094C32.8125 13.125 34.4531 10.1719 34.4531 10.1719Z" fill="#5C2E0E"/>
<path d="M32.4844 6.45312C31.0625 7.54688 28.7656 7.65625 28.7656 7.65625C30.8438 6.34375 31.2812 2.1875 31.2812 2.1875C30.1875 3.5 28 5.25 26.6875 5.57812C25.4844 4.04687 23.8438 3.71875 20.8906 4.26562C12.4688 5.79688 13.6719 11.4844 13.6719 11.4844C6.67188 12.0312 3.5 6.34375 3.5 6.34375C0 12.3594 2.625 14.3281 2.625 14.3281C1.96875 14.3281 1.53125 14 1.53125 14C0.765625 18.9219 4.375 20.4531 4.375 20.4531C3.5 20.6719 2.51562 20.7812 2.51562 20.7812C3.39062 25.1562 6.01562 26.3594 6.01562 26.3594C3.71875 27.4531 0.546875 27.2344 0.546875 27.2344C0.546875 27.2344 1.09375 31.2812 8.85938 31.7188C18.0469 32.2656 25.4844 25.7031 27.6719 18.375C28.4375 15.75 28.875 12.9062 28.6562 10.5C30.8438 9.40625 32.4844 6.45312 32.4844 6.45312Z" fill="#5C2E0E"/>
<path d="M1.42188 27.7812L4.70313 31.2812L8.53125 30.0781L5.79688 28.9844L1.42188 27.7812ZM26.0312 7.65625L30.2969 4.48438L30.625 5.35938L30.2969 6.5625L31.2813 6.89063L32.7031 10.3906L18.7031 24.1719L26.0312 7.65625ZM16.9531 16.9531C10.7188 17.2812 6.5625 11.8125 6.5625 11.8125C4.04687 16.2969 7.65625 19.1406 7.65625 19.1406C6.34375 19.25 5.46875 18.375 5.46875 18.375C4.8125 22.8594 9.40625 23.7344 9.40625 23.7344C8.42188 24.5 7 24.1719 7 24.1719C7.54688 27.0156 9.84375 27.7812 11.0469 28C14.7656 25.5938 18.0469 21 16.9531 16.9531Z" fill="#1B5E80"/>
<path d="M32.7031 10.3906C31.3906 11.375 29.6406 11.9219 29.6406 11.9219C31.5 10.7187 31.7188 8.53125 31.7188 8.53125C30.7344 9.73438 29.3125 9.95312 28.1094 10.1719C27.0156 8.85937 25.2656 8.3125 22.6406 8.96875C16.5156 10.5 17.2812 16.9531 17.2812 16.9531H17.0625C18.1563 21 14.875 25.5938 11.1562 28C11.5937 28.1094 11.9219 28.1094 11.9219 28.1094C8.20312 31.2813 4.26562 30.5156 4.26562 30.5156C4.26562 30.5156 4.70312 32.9219 11.7031 33.3594C19.9062 33.7969 26.5781 28 28.6563 21.4375C29.4219 19.1406 29.75 15.8594 29.5312 13.6719C31.3906 12.7969 32.7031 10.3906 32.7031 10.3906Z" fill="#1B5E80"/>
<path d="M31.0625 7.21875C29.75 8.20312 27.6719 8.3125 27.6719 8.3125C29.6406 7.10937 30.2969 4.375 30.2969 4.375C29.2031 5.57812 27.3438 6.23438 26.1406 6.5625C24.9375 5.14063 23.0781 4.59375 20.4531 5.25C14.1094 6.78125 14.9844 13.5625 14.9844 13.5625C8.42188 14 3.82812 8.20312 3.82812 8.20312C1.20312 12.7969 5.14062 15.8594 5.14062 15.8594C3.71875 15.9688 2.84375 15.0938 2.84375 15.0938C2.1875 19.6875 7 20.7812 7 20.7812C5.90625 21.6562 4.59375 21.2188 4.59375 21.2188C5.35937 25.2656 9.625 25.2656 9.625 25.2656C5.79688 28.5469 1.64062 27.6719 1.64062 27.6719C1.64062 27.6719 2.07813 30.1875 9.40625 30.625C17.9375 31.0625 24.8281 25.0469 26.9062 18.1562C27.6719 15.75 28 13.125 27.8906 10.8281C29.6406 10.0625 31.0625 7.21875 31.0625 7.21875Z" fill="#1DA1F2"/>
<path d="M14.9844 14.6558V14.8745C9.84375 15.6402 5.79688 11.2652 5.79688 11.2652C4.04688 15.0933 7.21875 17.2808 7.21875 17.2808C6.125 17.3902 5.35938 16.8433 5.35938 16.8433C5.14063 20.562 8.96875 21.1089 8.96875 21.1089C8.20312 21.8745 7 21.5464 7 21.5464C7.875 24.7183 11.2656 24.4995 11.2656 24.4995C11.2656 24.4995 11.1562 24.4995 11.1562 24.6089C15.2031 24.4995 19.1406 23.8433 22.75 22.2027C23.5156 20.8902 24.1719 19.4683 24.5 18.0464L24.8281 16.2964C22.2031 18.3745 17.3906 16.6245 14.9844 14.6558ZM28.7656 8.96829C27.7812 9.84329 25.8125 9.62454 25.8125 9.62454C27.3438 8.53079 27.7812 6.67142 27.7812 6.67142C27.0156 7.76517 25.375 7.65579 24.3906 7.43704C23.4062 6.45267 21.875 6.01517 19.7969 6.67142C15.4219 8.09329 15.75 12.3589 15.8594 13.3433C18.2656 15.2027 23.0781 16.9527 25.8125 14.7652C26.0312 13.3433 25.9219 12.4683 25.7031 11.2652C27.3438 10.4995 28.7656 8.96829 28.7656 8.96829ZM3.9375 28.5464C3.9375 28.5464 5.46875 29.7495 11.2656 29.7495C16.2969 29.6402 20.3437 26.7964 22.75 23.0777C19.1406 24.7183 15.0938 25.4839 11.1562 25.4839C8.3125 28.2183 3.9375 28.5464 3.9375 28.5464Z" fill="#73D7EF"/>
<path d="M13.6719 16.1875L14.7656 14.875L15.8594 13.4531L25.7031 14.3281C25.7031 14.3281 25.7031 22.4219 19.7969 26.3594C13.8906 30.2969 9.40625 27.0156 9.40625 27.0156C9.40625 27.0156 11.1562 25.8125 11.4844 23.7344C11.9219 21.4375 13.6719 16.1875 13.6719 16.1875Z" fill="#73D7EF"/>
<path d="M16.0783 16.5159V16.6253C12.2501 17.5003 9.07826 14.4378 9.07826 14.4378C7.98451 17.3909 10.5001 18.8128 10.5001 18.8128C9.73451 19.0315 9.07826 18.594 9.07826 18.594C9.07826 21.3284 12.0314 21.5472 12.0314 21.5472C11.4845 22.094 10.6095 21.9847 10.6095 21.9847C11.4845 24.2815 13.8908 23.9534 13.8908 23.9534L13.7814 24.0628C16.7345 23.7347 19.6876 22.969 22.2033 21.5472C22.7501 20.5628 23.0783 19.469 23.1876 18.3753C23.297 17.9378 23.297 17.5003 23.297 17.0628C21.6564 18.8128 18.047 17.8284 16.0783 16.5159ZM24.6095 10.8284C25.5939 9.84404 23.6251 9.07842 22.9689 8.96904C22.2033 8.31279 20.7814 8.64092 19.2501 9.29717C16.1876 10.6097 16.6251 13.7815 16.7345 14.4378C18.5939 15.7503 22.3126 16.7347 24.172 14.8753C24.172 13.7815 24.172 13.1253 23.9533 12.2503C24.9376 11.594 24.6095 10.8284 24.6095 10.8284Z" fill="#BBF5FF"/>
<path d="M8.96875 28.2187C8.96875 28.2187 10.2812 28.875 14.4375 27.7812C18.0469 26.7969 20.4531 24.0625 21.4375 20.8906C19.1406 22.6406 16.4062 23.9531 13.5625 24.7188C11.9219 27.2344 8.96875 28.2187 8.96875 28.2187Z" fill="#BBF5FF"/>
<path d="M15.2031 17.7188L15.9688 16.625L16.8437 13.5625L24.0625 14.2188C24.0625 14.2188 24.5 21.4375 20.4531 24.7188C16.4063 28 12.9062 25.8125 12.9062 25.8125C12.9062 25.8125 14.1094 24.8281 14.2187 23.1875C14.3281 21.7656 15.2031 17.7188 15.2031 17.7188Z" fill="#BBF5FF"/>
</g>
<defs>
<clipPath id="clip0_52_57776">
<rect width="35" height="35" fill="white"/>
</clipPath>
</defs>
</svg>
