<svg width="22" height="24" viewBox="0 0 22 24" fill="none" xmlns="http://www.w3.org/2000/svg">
<mask id="mask0_0_333" style="mask-type:luminance" maskUnits="userSpaceOnUse" x="-4" y="-3" width="30" height="29">
<rect x="-3.00857" y="-2.33435" width="28.0162" height="28.0162" fill="white"/>
</mask>
<g mask="url(#mask0_0_333)">
<path fill-rule="evenodd" clip-rule="evenodd" d="M10.9992 16.3428C13.5743 16.3428 15.6685 14.2486 15.6685 11.6734C15.6685 9.09825 13.5743 7.00404 10.9992 7.00404C8.42403 7.00404 6.32982 9.09825 6.32982 11.6734C6.32982 14.2486 8.42403 16.3428 10.9992 16.3428ZM10.9992 9.33873C12.2646 9.33873 13.3339 10.408 13.3339 11.6734C13.3339 12.9388 12.2646 14.0081 10.9992 14.0081C9.73379 14.0081 8.66451 12.9388 8.66451 11.6734C8.66451 10.408 9.73379 9.33873 10.9992 9.33873Z" fill="#878A92"/>
<path fill-rule="evenodd" clip-rule="evenodd" d="M0.312938 16.5015L1.48028 18.521C2.10014 19.5915 3.592 19.993 4.66712 19.3732L5.28464 19.016C5.96403 19.5494 6.70996 19.9872 7.49792 20.3141V21.0121C7.49792 22.2997 8.54502 23.3468 9.8326 23.3468H12.1673C13.4549 23.3468 14.502 22.2997 14.502 21.0121V20.3141C15.2899 19.9872 16.0358 19.5494 16.7152 19.0171L17.3328 19.3743C18.4102 19.993 19.8986 19.5938 20.5208 18.521L21.6869 16.5027C22.3313 15.3879 21.9484 13.9567 20.8336 13.3135L20.2441 12.9727C20.3071 12.5396 20.3387 12.1065 20.3387 11.6734C20.3387 11.2403 20.3071 10.8061 20.2441 10.3765L20.8336 10.0356C21.9484 9.39125 22.3313 7.96126 21.6869 6.84645L20.5208 4.82812C19.9009 3.75417 18.4102 3.35143 17.3328 3.97363L16.7152 4.33083C16.0358 3.79736 15.2899 3.3596 14.502 3.03275V2.33468C14.502 1.0471 13.4549 0 12.1673 0H9.8326C8.54502 0 7.49792 1.0471 7.49792 2.33468V3.03275C6.70996 3.35961 5.96403 3.79736 5.28464 4.32967L4.66712 3.97246C3.58849 3.3526 2.09897 3.75417 1.47911 4.82695L0.312938 6.84528C-0.331434 7.96009 0.0514535 9.39125 1.16626 10.0345L1.75577 10.3753C1.69273 10.8061 1.66122 11.2403 1.66122 11.6734C1.66122 12.1065 1.69273 12.5396 1.75577 12.9703L1.16626 13.3112C0.0514535 13.9556 -0.331434 15.3867 0.312938 16.5015ZM4.19551 13.282C4.06361 12.7532 3.9959 12.2116 3.9959 11.6734C3.9959 11.1341 4.06361 10.5925 4.19435 10.0648C4.32042 9.55936 4.09746 9.03172 3.6457 8.7714L2.33477 8.01263L3.49978 5.9943L4.83638 6.76708C5.28464 7.02506 5.84847 6.95969 6.22318 6.60132C7.02048 5.84605 7.98237 5.28106 9.00612 4.96821C9.49757 4.81879 9.8326 4.3647 9.8326 3.85223V2.33469H12.1673V3.85223C12.1673 4.3647 12.5023 4.81879 12.9938 4.96821C14.0175 5.28222 14.9794 5.84605 15.7767 6.60132C16.1514 6.95969 16.7176 7.0239 17.1635 6.76708L18.4989 5.99547L19.6663 8.0138L18.3542 8.7714C17.9024 9.03289 17.6795 9.56053 17.8055 10.0648C17.9363 10.5925 18.004 11.1341 18.004 11.6734C18.004 12.2116 17.9363 12.7532 17.8044 13.282C17.6795 13.7875 17.9024 14.3151 18.3542 14.5754L19.6651 15.333L18.5001 17.3514L17.1635 16.5797C16.7164 16.3218 16.1514 16.386 15.7767 16.7455C14.9794 17.5008 14.0175 18.0658 12.9938 18.3786C12.5023 18.528 12.1673 18.9821 12.1673 19.4946L12.1696 21.0121H9.8326V19.4946C9.8326 18.9821 9.49757 18.528 9.00612 18.3786C7.98237 18.0646 7.02048 17.5008 6.22318 16.7455C6.00139 16.5331 5.71189 16.4245 5.42005 16.4245C5.21927 16.4245 5.01849 16.4759 4.83638 16.5809L3.50095 17.3537L2.33361 15.3354L3.6457 14.5754C4.09746 14.3151 4.32042 13.7875 4.19551 13.282Z" fill="#878A92"/>
</g>
</svg>
