<svg width="32" height="32" viewBox="0 0 32 32" fill="none" xmlns="http://www.w3.org/2000/svg">
<path d="M19.5122 0C21.3874 0 23.1162 0.626483 24.5008 1.68156L24.5126 1.6733L24.6037 1.76124C25.0453 2.1088 25.4504 2.50053 25.8125 2.92978L27.9887 5.03351C29.7148 7.00525 30.7257 8.43354 31.0214 9.31838C31.4284 10.2939 31.6531 11.3646 31.6531 12.4878V23.7615C31.6531 28.3115 27.9646 32 23.4146 32H12.1409C9.6971 32 7.50181 30.9359 5.99307 29.2458L3.59796 26.9736C2.59845 25.8291 1.82196 24.8066 1.2685 23.9063C1.15894 23.733 1.05567 23.5552 0.959014 23.3734C0.645458 22.7969 0.434176 22.2764 0.325286 21.8121C0.113535 21.0822 0 20.3105 0 19.5122V8.23848C0 3.68849 3.68849 0 8.23848 0L19.5122 0Z" fill="black"/>
</svg>
