<svg width="15" height="18" viewBox="0 0 15 18" fill="none" xmlns="http://www.w3.org/2000/svg">
<path d="M14.7884 5.66185C13.9011 1.75771 10.4955 0 7.50404 0C7.50404 0 7.50404 0 7.49559 0C4.51256 0 1.09855 1.74926 0.211244 5.6534C-0.777466 10.0139 1.8929 13.7067 4.30975 16.0306C5.2055 16.8926 6.35477 17.3236 7.50404 17.3236C8.65331 17.3236 9.80258 16.8926 10.6899 16.0306C13.1067 13.7067 15.7771 10.0223 14.7884 5.66185ZM7.50404 9.89556C6.03365 9.89556 4.84213 8.70403 4.84213 7.23364C4.84213 5.76325 6.03365 4.57173 7.50404 4.57173C8.97443 4.57173 10.166 5.76325 10.166 7.23364C10.166 8.70403 8.97443 9.89556 7.50404 9.89556Z" fill="#CAC3AA"/>
</svg>
