<svg width="14" height="14" viewBox="0 0 14 14" fill="none" xmlns="http://www.w3.org/2000/svg">
<path d="M6.33562 9.06589L5.04049 10.361C4.76747 10.634 4.33342 10.634 4.0534 10.368C3.97639 10.291 3.89938 10.221 3.82237 10.144C3.1013 9.41592 2.45024 8.65285 1.86918 7.85477C1.29513 7.05669 0.833081 6.25861 0.497049 5.46753C0.168016 4.66946 0 3.90638 0 3.17831C0 2.70226 0.0840081 2.24722 0.252025 1.82718C0.420041 1.40014 0.686067 1.0081 1.0571 0.658064C1.50515 0.217021 1.99519 0 2.51325 0C2.70926 0 2.90528 0.0420042 3.0803 0.126012C3.26232 0.210021 3.42333 0.336033 3.54935 0.518051L5.17351 2.80727C5.29952 2.98229 5.39053 3.14331 5.45353 3.29732C5.51654 3.44434 5.55154 3.59135 5.55154 3.72436C5.55154 3.89238 5.50254 4.0604 5.40453 4.22141C5.31352 4.38243 5.18051 4.55044 5.01249 4.71846L4.48044 5.27151C4.40343 5.34852 4.36843 5.43953 4.36843 5.55154C4.36843 5.60755 4.37543 5.65655 4.38943 5.71256C4.41043 5.76856 4.43143 5.81057 4.44543 5.85257C4.57145 6.08359 4.78847 6.38462 5.0965 6.74866C5.41153 7.11269 5.74756 7.48373 6.1116 7.85477C6.1816 7.92477 6.25861 7.99478 6.32862 8.06479C6.60865 8.33781 6.61565 8.78586 6.33562 9.06589Z" fill="white"/>
<path d="M13.9803 11.4308C13.9803 11.6268 13.9453 11.8298 13.8753 12.0258C13.8543 12.0818 13.8333 12.1378 13.8053 12.1939C13.6863 12.4459 13.5323 12.6839 13.3293 12.9079C12.9863 13.286 12.6082 13.559 12.1812 13.734C12.1742 13.734 12.1672 13.741 12.1602 13.741C11.7471 13.909 11.2991 14 10.816 14C10.102 14 9.33889 13.832 8.53382 13.489C7.72874 13.1459 6.92366 12.6839 6.12558 12.1028C5.85255 11.8998 5.57953 11.6968 5.3205 11.4798L7.60973 9.19056C7.80574 9.33757 7.98076 9.44958 8.12778 9.52659C8.16278 9.54059 8.20478 9.56159 8.25379 9.5826C8.30979 9.6036 8.3658 9.6106 8.42881 9.6106C8.54782 9.6106 8.63883 9.5686 8.71583 9.49159L9.24789 8.96654C9.4229 8.79152 9.59092 8.65851 9.75194 8.5745C9.91295 8.47649 10.074 8.42748 10.249 8.42748C10.382 8.42748 10.522 8.45549 10.676 8.51849C10.83 8.5815 10.9911 8.67251 11.1661 8.79152L13.4833 10.4367C13.6653 10.5627 13.7913 10.7097 13.8683 10.8847C13.9383 11.0597 13.9803 11.2348 13.9803 11.4308Z" fill="white"/>
</svg>
