<svg width="13" height="14" viewBox="0 0 13 14" fill="none" xmlns="http://www.w3.org/2000/svg">
<path d="M9.92691 6.321C9.85693 6.16624 9.70276 6.06685 9.53291 6.067H7.79991V0.433001C7.79991 0.317989 7.75416 0.207702 7.67274 0.12647C7.59132 0.0452378 7.48093 -0.000264461 7.36591 1.15639e-06H5.63491C5.39577 1.15639e-06 5.20191 0.193862 5.20191 0.433001V6.067H3.46891C3.29904 6.06699 3.14486 6.16632 3.07463 6.32099C3.0044 6.47566 3.03111 6.65711 3.14291 6.785L6.17591 10.252C6.25796 10.3464 6.37687 10.4005 6.50191 10.4005C6.62696 10.4005 6.74587 10.3464 6.82791 10.252L9.86091 6.785C9.97219 6.65675 9.99801 6.4752 9.92691 6.321Z" fill="#636363"/>
<path d="M11.267 9.5332V12.1332H1.733V9.5332H5.78871e-07V13.0002C-0.000265192 13.2302 0.0909939 13.4509 0.253646 13.6136C0.416297 13.7762 0.636976 13.8675 0.867001 13.8672H12.133C12.363 13.8675 12.5837 13.7762 12.7464 13.6136C12.909 13.4509 13.0003 13.2302 13 13.0002V9.5332H11.267Z" fill="#636363"/>
</svg>
