<svg width="17" height="23" viewBox="0 0 17 23" fill="none" xmlns="http://www.w3.org/2000/svg">
<path fill-rule="evenodd" clip-rule="evenodd" d="M4.75718 3.71147C4.00102 3.71147 4.00102 2.56192 4.75718 2.56192H6.4552V0.574915C6.4552 0.257528 6.71272 0 7.03011 0H9.57004C9.88742 0 10.1447 0.257528 10.1447 0.574915V2.56192H11.8427C12.5989 2.56192 12.5989 3.71147 11.8427 3.71147H4.75718ZM7.60475 2.56192H8.99512V1.14955H7.60475V2.56192ZM4.32119 11.3452C3.56503 11.3452 3.56503 12.4947 4.32119 12.4947H12.2787C13.0348 12.4947 13.0348 11.3452 12.2787 11.3452H4.32119ZM4.32119 20.5096C3.56503 20.5096 3.56503 19.36 4.32119 19.36H12.2787C13.0348 19.36 13.0348 20.5096 12.2787 20.5096H4.32119ZM4.32119 14.0168C3.56503 14.0168 3.56503 15.1663 4.32119 15.1663H12.2787C13.0348 15.1663 13.0348 14.0168 12.2787 14.0168H4.32119ZM4.32119 17.838C3.56503 17.838 3.56503 16.6884 4.32119 16.6884H12.2787C13.0348 16.6884 13.0348 17.838 12.2787 17.838H4.32119ZM11.0102 8.12871C11.0102 6.63199 9.79666 5.4184 8.29993 5.4184C6.80321 5.4184 5.58962 6.63199 5.58962 8.12871C5.58962 9.62544 6.80321 10.839 8.29993 10.839C9.79666 10.839 11.0102 9.62544 11.0102 8.12871ZM8.29993 6.56795C7.43798 6.56795 6.73917 7.26676 6.73917 8.12871C6.73917 8.99067 7.43798 9.68947 8.29993 9.68947C9.16189 9.68947 9.8607 8.99067 9.8607 8.12871C9.8607 7.26676 9.16189 6.56795 8.29993 6.56795ZM13.9586 2.56192C13.2024 2.56192 13.2024 3.71147 13.9586 3.71147H15.4503V21.8504H1.14955V3.71147H2.64127C3.39743 3.71147 3.39743 2.56192 2.64127 2.56192H0.574637C0.25725 2.56192 0 2.81917 0 3.13656V22.425C0 22.7427 0.25725 22.9999 0.574637 22.9999H16.0252C16.3426 22.9999 16.5999 22.7427 16.5999 22.425V3.13656C16.5999 2.81917 16.3426 2.56192 16.0252 2.56192H13.9586Z" fill="white"/>
</svg>
