<svg width="21" height="32" viewBox="0 0 21 32" fill="none" xmlns="http://www.w3.org/2000/svg">
<path fill-rule="evenodd" clip-rule="evenodd" d="M7 8H11C14.866 8 18 11.134 18 15V25C18 28.866 14.866 32 11 32H7C3.13401 32 0 28.866 0 25V15C0 11.134 3.13401 8 7 8ZM7 10C4.23858 10 2 12.2386 2 15V16H8V10H7ZM16 25C16 27.7614 13.7614 30 11 30H7C4.23858 30 2 27.7614 2 25V18H16V25ZM10 16H16V15C16 12.2386 13.7614 10 11 10H10V16Z" fill="white"/>
<path d="M17 4V2C17 0.89543 16.1046 0 15 0H10C8.89543 0 8 0.89543 8 2V6H10V2H15V4C15 5.10457 15.8954 6 17 6H21V4H17Z" fill="white"/>
</svg>
