<svg width="30" height="30" viewBox="0 0 30 30" fill="none" xmlns="http://www.w3.org/2000/svg">
<g clip-path="url(#clip0_52_63170)">
<path d="M21.8438 8.4375C24.1737 8.4375 26.0625 6.5487 26.0625 4.21875C26.0625 1.8888 24.1737 0 21.8438 0C19.5138 0 17.625 1.8888 17.625 4.21875C17.625 6.5487 19.5138 8.4375 21.8438 8.4375Z" fill="#6A8189"/>
<path d="M21.1875 8.34375C23.3621 8.34375 25.125 6.58087 25.125 4.40625C25.125 2.23163 23.3621 0.46875 21.1875 0.46875C19.0129 0.46875 17.25 2.23163 17.25 4.40625C17.25 6.58087 19.0129 8.34375 21.1875 8.34375Z" fill="#425763"/>
<path d="M23.625 4.125C23.625 4.125 28.2188 9.65625 25.0313 16.875L22.4062 6.84375L23.8125 5.34375" fill="#6A8189"/>
<path d="M20.9068 18.5625C22.7818 19.2188 24.4693 20.7188 25.0318 22.875C25.5943 25.125 24.8443 27.75 23.0631 29.0625C21.9381 29.9063 20.6256 30.0937 19.2193 30.0937C16.0318 30.0937 12.9381 29.0625 9.7506 27.9375C8.71935 27.5625 7.59435 27.1875 6.7506 26.5312C5.8131 25.875 5.0631 24.8438 4.8756 23.5313C4.6881 21.8438 5.71935 20.0625 7.03185 19.2188C9.3756 17.7188 11.7193 17.1562 14.1568 17.1562C16.4068 17.1562 18.9381 17.9062 20.9068 18.5625Z" fill="#B74F88"/>
<path d="M20.6255 17.1562C22.4067 17.8125 24.0005 19.3125 24.563 21.4688C25.1255 23.7188 24.3755 26.3438 22.7817 27.6563C21.7505 28.5 20.438 28.6875 19.2192 28.6875C16.2192 28.6875 13.313 27.6562 10.313 26.5312C9.2817 26.1562 8.3442 25.7812 7.4067 25.125C6.4692 24.4688 5.7192 23.4375 5.62545 22.125C5.43795 20.4375 6.37545 18.75 7.68795 17.8125C9.8442 16.3125 12.0942 15.75 14.438 15.75C16.313 15.75 18.7505 16.5 20.6255 17.1562Z" fill="#F29EDE"/>
<path d="M19.4053 18.1875C19.4053 18.1875 14.3428 20.25 10.7803 26.0625C10.7803 26.0625 9.46781 21.0938 10.2178 17.4375C10.2178 17.4375 15.2803 19.6875 19.4053 18.1875Z" fill="#B74F88"/>
<path d="M17.5313 18.1875C17.5313 18.1875 13.7813 19.6875 11.0625 24.0938C11.0625 24.0938 10.125 20.3438 10.6875 17.625C10.6875 17.625 14.5313 19.3125 17.5313 18.1875Z" fill="#FAEACF"/>
<path opacity="0.6" d="M8.0625 17.625C8.0625 17.625 9.5625 21.2813 11.25 21.6563C12.9375 22.0313 16.125 22.5938 20.0625 18.75L8.0625 17.625Z" fill="#B74F88"/>
<path opacity="0.28" d="M21.9141 24.7851C22.5371 22.8644 21.9641 20.9577 20.6343 20.5264C19.3046 20.0951 17.7216 21.3026 17.0987 23.2233C16.4757 25.1441 17.0487 27.0508 18.3784 27.4821C19.7082 27.9133 21.2912 26.7059 21.9141 24.7851Z" fill="white"/>
<path d="M8.53116 16.0312C8.53116 16.0312 8.43741 16.2188 8.24991 16.5C7.31241 17.4375 5.62491 17.0625 5.24991 15.75C4.49991 13.0312 3.65616 7.40625 8.81241 3.09375L8.53116 16.0312Z" fill="#425763"/>
<path d="M7.59375 4.40702C7.59375 4.40702 8.15625 6.65702 11.1562 6.84452C14.1562 7.03202 24.5625 5.43827 24.5625 5.43827C24.5625 5.43827 21.9375 0.282024 15.4687 0.00077382C10.5937 -0.186726 7.96875 3.65702 7.59375 4.40702Z" fill="#6A8189"/>
<path d="M20.3438 4.969L21.375 9.469C21.375 9.469 15.6562 11.4377 6.75 7.31275C6.75 7.31275 6.75 4.31275 9.5625 2.344C12.375 0.37525 20.3438 4.969 20.3438 4.969Z" fill="#6A8189"/>
<path d="M24.1017 11.342C24.12 6.26786 20.0216 2.13957 14.9474 2.12118C9.87332 2.1028 5.74504 6.20127 5.72665 11.2754C5.70826 16.3495 9.80674 20.4778 14.8809 20.4962C19.955 20.5146 24.0833 16.4161 24.1017 11.342Z" fill="#A67A65"/>
<path d="M23.7002 10.7364C23.7181 5.81763 19.745 1.81572 14.8263 1.7979C9.90748 1.78007 5.90556 5.75309 5.88774 10.6719C5.86992 15.5907 9.84293 19.5926 14.7617 19.6104C19.6805 19.6282 23.6824 15.6552 23.7002 10.7364Z" fill="#E5A98C"/>
<path d="M23.5915 10.4101C23.6085 5.6984 19.8868 1.86529 15.2786 1.84859C10.6705 1.8319 6.92103 5.63793 6.90396 10.3496C6.88689 15.0613 10.6087 18.8944 15.2168 18.9111C19.8249 18.9278 23.5744 15.1218 23.5915 10.4101Z" fill="#E8CCAA"/>
<path d="M19.095 11.634C19.1076 8.16497 16.3895 5.34287 13.024 5.33067C9.65855 5.31848 6.9201 8.1208 6.90753 11.5898C6.89496 15.0589 9.61303 17.881 12.9785 17.8932C16.344 17.9054 19.0825 15.103 19.095 11.634Z" fill="#FAEACF"/>
<path d="M7.6875 4.31191C7.6875 4.31191 8.25 6.37441 11.0625 6.65566C13.875 6.93691 23.8125 5.34316 23.8125 5.34316C23.8125 5.34316 21.2812 0.468159 15.2812 0.186909C10.5937 -0.0943411 8.0625 3.65566 7.6875 4.31191Z" fill="#425763"/>
<path d="M15.8589 12.2776C15.8607 11.7598 15.4845 11.3387 15.0185 11.337C14.5525 11.3354 14.1732 11.7537 14.1714 12.2715C14.1695 12.7893 14.5457 13.2104 15.0117 13.212C15.4777 13.2137 15.857 12.7954 15.8589 12.2776Z" fill="#425763"/>
<path d="M15.2998 11.9662C15.3004 11.8109 15.2169 11.6846 15.1134 11.6843C15.0098 11.6839 14.9254 11.8095 14.9248 11.9648C14.9243 12.1202 15.0078 12.2464 15.1113 12.2468C15.2149 12.2471 15.2993 12.1215 15.2998 11.9662Z" fill="white"/>
<path d="M9.22801 10.8167C9.22988 10.2989 8.85364 9.87779 8.38765 9.8761C7.92166 9.87442 7.54238 10.2928 7.54051 10.8105C7.53863 11.3283 7.91487 11.7494 8.38086 11.7511C8.84685 11.7528 9.22613 11.3344 9.22801 10.8167Z" fill="#425763"/>
<path d="M8.76078 10.5053C8.76135 10.3499 8.67786 10.2237 8.5743 10.2233C8.47075 10.223 8.38635 10.3486 8.38578 10.5039C8.38522 10.6592 8.46871 10.7855 8.57227 10.7858C8.67582 10.7862 8.76022 10.6606 8.76078 10.5053Z" fill="white"/>
<path d="M20.8125 11.9992C20.8125 11.9992 21.5625 11.4367 22.125 11.6242C22.6875 11.8117 22.5937 13.7805 21.0937 13.968L20.8125 11.9992Z" fill="#FAEACF"/>
<path d="M18 5.53135C18 5.53135 20.0625 9.1876 19.6875 15.0938C19.5 17.9063 22.9687 19.3126 24.8437 17.1563L24.9375 17.0626C26.4375 15.2813 25.3125 10.3126 24.375 7.03135C23.8125 5.0626 21.9375 4.3126 19.9687 4.8751L18 5.53135Z" fill="#425763"/>
<path d="M19.7813 4.78093L20.8125 9.09343C20.8125 9.09343 14.9062 11.2497 6.46875 7.31218C6.46875 7.31218 6.9375 4.21843 9.5625 2.34343C12.1875 0.468431 19.7813 4.78093 19.7813 4.78093Z" fill="#425763"/>
<path d="M7.21875 6.5625C7.21875 6.5625 7.96875 5.53125 8.90625 5.53125C9.84375 5.53125 13.7812 8.15625 19.9687 7.3125C19.9687 7.3125 18.75 8.53125 17.3438 8.71875C15.8438 8.8125 10.5 8.34375 7.21875 6.5625Z" fill="#6A8189"/>
<path d="M13.2188 16.4062C13.2188 16.4062 12.375 16.3125 11.8125 15.8437C11.25 15.375 10.6875 15.4687 10.5 15.4687C10.4062 15.4687 10.2188 15.2813 10.0312 15.1875C9.84375 15.0938 9.5625 15.0938 9.5625 15.1875C9.5625 15.2813 9.84375 15.75 9.84375 15.75C9.84375 15.75 9.9375 16.125 9.84375 16.3125C9.75 16.5 9.84375 17.1562 10.5 17.25C11.1562 17.4375 11.625 17.3437 11.9062 17.1562C12 17.0625 13.2188 16.4062 13.2188 16.4062Z" fill="#A67A65"/>
<path d="M25.6875 8.625C25.6875 8.625 20.7188 4.96875 14.1562 4.40625C7.59375 3.84375 6.84375 5.34375 6.84375 5.34375L9 2.4375C9 2.4375 16.9688 2.4375 20.8125 4.125C24.6562 5.8125 25.3125 6.84375 25.3125 6.84375L25.6875 8.625Z" fill="#F29EDE"/>
<path opacity="0.28" d="M8.625 3.93758L9.65625 2.90633C9.65625 2.90633 15.375 2.43758 19.4063 4.59383C19.4063 4.68758 13.125 3.37508 8.625 3.93758Z" fill="white"/>
</g>
<defs>
<clipPath id="clip0_52_63170">
<rect width="30" height="30" fill="white"/>
</clipPath>
</defs>
</svg>
