<svg width="110" height="40" viewBox="0 0 110 40" fill="none" xmlns="http://www.w3.org/2000/svg">
<g clip-path="url(#clip0_52_32947)">
<path d="M104.116 19.2867L109.999 34.8645C108.265 34.6165 106.532 34.3063 104.766 34.0276L101.452 25.419L98.0458 33.3161C96.3739 33.0374 94.7316 32.9436 93.0597 32.7272L99.0369 19.101L93.617 5.13477H98.6347L101.669 12.938L104.921 5.13477H109.999L104.116 19.2867ZM89.6536 5.13477H85.1013V32.1392C86.5875 32.2321 88.1359 32.2934 89.6536 32.4792V5.13477ZM81.1676 31.829C77.0185 31.5504 72.8683 31.3033 68.6263 31.2095V5.13477H73.2705V26.8123C75.9345 26.8745 78.5975 27.0909 81.1676 27.2145V31.829ZM63.6709 15.6949V20.3401H57.3231V30.9002H52.7392V5.13477H65.7459V9.77995H57.3231V15.6949H63.6709ZM44.935 9.77995V31.1482C43.3866 31.1482 41.8076 31.1482 40.2898 31.2095V9.77995H35.4895V5.13477H49.766V9.77995H44.935ZM30.4728 20.5871C28.4293 20.5871 26.0134 20.5871 24.2792 20.6809V27.5869C27.0045 27.4002 29.7297 27.1838 32.4856 27.0909V31.5504L19.634 32.573V5.13477H32.4856V9.77995H24.2792V16.0348C26.0756 16.0348 28.8315 15.9419 30.4728 15.9419V20.5871ZM4.73807 17.9863V34.2134C3.06614 34.4001 1.57905 34.6165 0 34.8645V5.13477H4.42876L10.4672 22.0129V5.13477H15.1124V32.9436C13.4711 33.2232 11.7992 33.3161 10.0334 33.5632L4.73807 17.9863Z" fill="#E50914"/>
</g>
<defs>
<clipPath id="clip0_52_32947">
<rect width="110" height="40" fill="white"/>
</clipPath>
</defs>
</svg>
