<svg width="20" height="20" viewBox="0 0 20 20" fill="none" xmlns="http://www.w3.org/2000/svg">
<path d="M17.9173 9.08366V3.41699C17.9173 2.16699 17.384 1.66699 16.059 1.66699H12.6923C11.3673 1.66699 10.834 2.16699 10.834 3.41699V9.08366C10.834 10.3337 11.3673 10.8337 12.6923 10.8337H16.059C17.384 10.8337 17.9173 10.3337 17.9173 9.08366Z" fill="#35C1BE"/>
<path d="M9.16732 10.917V16.5837C9.16732 17.8337 8.63399 18.3337 7.30899 18.3337H3.94232C2.61732 18.3337 2.08398 17.8337 2.08398 16.5837V10.917C2.08398 9.66699 2.61732 9.16699 3.94232 9.16699H7.30899C8.63399 9.16699 9.16732 9.66699 9.16732 10.917Z" fill="#35C1BE"/>
<path d="M17.9173 16.5833V14.25C17.9173 13 17.384 12.5 16.059 12.5H12.6923C11.3673 12.5 10.834 13 10.834 14.25V16.5833C10.834 17.8333 11.3673 18.3333 12.6923 18.3333H16.059C17.384 18.3333 17.9173 17.8333 17.9173 16.5833Z" fill="#35C1BE"/>
<path d="M9.16732 5.75033V3.41699C9.16732 2.16699 8.63399 1.66699 7.30899 1.66699H3.94232C2.61732 1.66699 2.08398 2.16699 2.08398 3.41699V5.75033C2.08398 7.00033 2.61732 7.50033 3.94232 7.50033H7.30899C8.63399 7.50033 9.16732 7.00033 9.16732 5.75033Z" fill="#35C1BE"/>
</svg>
