<svg width="43" height="29" viewBox="0 0 43 29" fill="none" xmlns="http://www.w3.org/2000/svg">
<path d="M43.0003 10.5546V0H30.3532V10.5546H35.4121V26.8662H32.8826V28.7852H40.4709V26.8662H37.9415V10.5546H43.0003Z" fill="#25396F"/>
<path d="M24.0294 19.1898V23.9873H6.32353C6.32353 21.9293 6.32353 21.4387 6.32353 19.1898C6.32353 16.5402 3.49244 14.3923 0 14.3923V26.8659H2.52941V28.7849H5.05882V26.8659H25.2941V28.7849H27.8235V26.8659H30.3529V14.3923C26.8605 14.3923 24.0294 16.5402 24.0294 19.1898Z" fill="#25396F"/>
<path d="M21.4996 22.069C21.5057 19.1879 21.4854 19.1483 21.5186 18.754C20.7701 18.4221 19.8997 18.231 18.9702 18.231C16.7426 18.231 13.7482 18.231 11.382 18.231C10.4525 18.231 9.58212 18.4221 8.83358 18.754C8.8668 19.1482 8.84623 19.1198 8.85256 22.069H21.4996Z" fill="#25396F"/>
<path d="M11.3827 16.3112H18.9709C20.0754 16.3112 21.125 16.4917 22.0724 16.815C22.5098 15.9398 23.1817 15.1515 24.0298 14.4943V8.63517H6.32388V14.4943C7.1719 15.1515 7.84372 15.9398 8.28122 16.8151C9.22857 16.4917 10.2782 16.3112 11.3827 16.3112ZM16.4415 11.5137H18.9709V13.4327H16.4415V11.5137ZM11.3827 11.5137H13.9121V13.4327H11.3827V11.5137Z" fill="#25396F"/>
</svg>
