<svg width="48" height="60" viewBox="0 0 48 60" fill="none" xmlns="http://www.w3.org/2000/svg">
<g filter="url(#filter0_d_12_21353)">
<path fill-rule="evenodd" clip-rule="evenodd" d="M5 21.75C5 11.4116 13.4106 3 23.75 3C34.0894 3 42.5 11.4116 42.5 21.75C42.5 35.5826 25.2006 52.0234 24.4642 52.7172C24.2627 52.9054 24.0063 53 23.75 53C23.4937 53 23.2373 52.9054 23.0359 52.7172C22.2994 52.0234 5 35.5826 5 21.75ZM13.3333 21.75C13.3333 27.4935 18.0065 32.1667 23.75 32.1667C29.4935 32.1667 34.1667 27.4934 34.1667 21.75C34.1667 16.0066 29.4934 11.3333 23.75 11.3333C18.0066 11.3333 13.3333 16.0065 13.3333 21.75Z" fill="#3347D2"/>
</g>
<defs>
<filter id="filter0_d_12_21353" x="0" y="0" width="47.5" height="60" filterUnits="userSpaceOnUse" color-interpolation-filters="sRGB">
<feFlood flood-opacity="0" result="BackgroundImageFix"/>
<feColorMatrix in="SourceAlpha" type="matrix" values="0 0 0 0 0 0 0 0 0 0 0 0 0 0 0 0 0 0 127 0" result="hardAlpha"/>
<feOffset dy="2"/>
<feGaussianBlur stdDeviation="2.5"/>
<feColorMatrix type="matrix" values="0 0 0 0 0.2 0 0 0 0 0.278431 0 0 0 0 0.823529 0 0 0 0.5 0"/>
<feBlend mode="normal" in2="BackgroundImageFix" result="effect1_dropShadow_12_21353"/>
<feBlend mode="normal" in="SourceGraphic" in2="effect1_dropShadow_12_21353" result="shape"/>
</filter>
</defs>
</svg>
