<svg width="24" height="24" viewBox="0 0 24 24" fill="none" xmlns="http://www.w3.org/2000/svg">
<path fill-rule="evenodd" clip-rule="evenodd" d="M10.798 4.84375V11.7994L8.80531 9.58232L7.18477 11.3913L12.0584 16.8207L13.679 15.0117L13.655 14.9745L16.788 11.4861L15.2395 9.77078L13.1988 12.0455V5.05858C14.9581 5.56181 16.4656 6.76906 17.3309 8.43913C17.3781 8.43535 17.4234 8.42861 17.4691 8.42181C17.5396 8.41132 17.6109 8.40072 17.691 8.40072C20.5574 8.56066 22.7997 10.9316 22.7997 13.8025C22.7997 16.6734 20.5574 19.0443 17.691 19.2043H5.18281C3.03972 19.0892 1.32648 17.38 1.20639 15.2372C1.0863 13.0944 2.59784 11.2045 4.71465 10.8507C5.12604 7.66406 7.65993 5.20614 10.798 4.84375ZM12.1545 13.2015H12.0584L12.1064 13.2579L12.1545 13.2015Z" fill="#F4BB2E"/>
</svg>
