<svg width="36" height="31" viewBox="0 0 36 31" fill="none" xmlns="http://www.w3.org/2000/svg">
<path d="M18.8657 30.0578L21.8019 27.1217C22.0316 26.892 22.1606 26.5804 22.1606 26.2556L22.1606 1.6979C22.1606 1.02141 21.6122 0.473016 20.9357 0.473016L15.0635 0.473016C14.387 0.473016 13.8386 1.02141 13.8386 1.6979L13.8386 26.2556C13.8386 26.5804 13.9677 26.892 14.1974 27.1217L17.1335 30.0578C17.6118 30.5362 18.3874 30.5362 18.8657 30.0578Z" fill="#5D65FF" stroke="#5D65FF" stroke-width="0.944444"/>
<path d="M35.0484 22.3708L29.1762 26.8864C28.3707 27.5059 27.2046 26.9316 27.2046 25.9154L27.2046 1.76135C27.2046 1.08487 27.753 0.53647 28.4295 0.53647L34.3017 0.536471C34.9782 0.536471 35.5266 1.08487 35.5266 1.76135L35.5266 21.3998C35.5266 21.7802 35.3499 22.1389 35.0484 22.3708Z" fill="#5D65FF" stroke="#5D65FF" stroke-width="0.944444"/>
<path d="M0.951585 22.3708L6.82381 26.8864C7.62934 27.5059 8.79536 26.9316 8.79536 25.9154L8.79537 1.76135C8.79537 1.08487 8.24697 0.536472 7.57048 0.536472L1.69826 0.536471C1.02178 0.536471 0.473378 1.08487 0.473378 1.76135L0.473376 21.3998C0.473376 21.7802 0.650071 22.1389 0.951585 22.3708Z" fill="#5D65FF" stroke="#5D65FF" stroke-width="0.944444"/>
</svg>
