<svg width="11" height="15" viewBox="0 0 11 15" fill="none" xmlns="http://www.w3.org/2000/svg">
<path d="M0.581224 5.32619L5.01901 3.73694C5.21439 3.66948 5.43769 3.66948 5.62377 3.73694L10.0616 5.32619C10.4524 5.46861 10.8152 5.08629 10.5454 4.81642L5.89356 0.236136C5.57723 -0.0787121 5.05623 -0.0787121 4.73992 0.236136L0.0881048 4.81642C-0.172396 5.08629 0.190472 5.46861 0.581224 5.32619Z" fill="#15161E"/>
<path d="M0.581408 9.67357L5.0285 11.2628C5.22388 11.3303 5.44719 11.3303 5.63326 11.2628L10.0804 9.67357C10.4711 9.53114 10.834 9.91346 10.5642 10.1833L5.91236 14.7636C5.59604 15.0785 5.07504 15.0785 4.75872 14.7636L0.106915 10.1833C-0.172193 9.91346 0.181354 9.53114 0.581408 9.67357Z" fill="#15161E"/>
<path d="M5.12149 5.61811L1.27908 7.16236C0.93485 7.29729 0.93485 7.69461 1.27908 7.82954L5.12149 9.3738C5.25173 9.42627 5.40985 9.42627 5.54009 9.3738L9.3825 7.82954C9.72674 7.69461 9.72674 7.29729 9.3825 7.16236L5.54009 5.61811C5.40054 5.56563 5.25173 5.56563 5.12149 5.61811Z" fill="#15161E"/>
</svg>
