<svg width="192" height="179" viewBox="0 0 192 179" fill="none" xmlns="http://www.w3.org/2000/svg">
<circle cx="102.5" cy="89.4854" r="74.5" fill="white"/>
<mask id="path-2-inside-1_6_11763" fill="white">
<path d="M102.5 1.61847C102.5 0.716525 103.231 -0.0162057 104.133 0.000247176C120.507 0.298977 136.496 5.08532 150.353 13.8525C164.67 22.9109 176.122 35.8469 183.377 51.1567C190.633 66.4665 193.394 83.5212 191.34 100.338C189.285 117.155 182.5 133.044 171.772 146.157C161.044 159.27 146.815 169.068 130.739 174.414C114.662 179.759 97.3982 180.432 80.9544 176.353C64.5107 172.275 49.5622 163.613 37.8469 151.374C26.5083 139.529 18.6489 124.805 15.1122 108.815C14.9174 107.934 15.4907 107.072 16.3748 106.893C17.2589 106.715 18.1189 107.287 18.3143 108.168C21.7281 123.551 29.2953 137.717 40.2064 149.116C51.4942 160.908 65.8971 169.253 81.7407 173.183C97.5844 177.113 114.218 176.465 129.708 171.314C145.198 166.164 158.908 156.723 169.244 144.088C179.58 131.454 186.118 116.145 188.097 99.9422C190.077 83.7389 187.417 67.3066 180.426 52.5555C173.435 37.8044 162.401 25.3405 148.607 16.6126C135.273 8.17609 119.888 3.5654 104.133 3.26706C103.231 3.24998 102.5 2.52042 102.5 1.61847Z"/>
</mask>
<path d="M102.5 1.61847C102.5 0.716525 103.231 -0.0162057 104.133 0.000247176C120.507 0.298977 136.496 5.08532 150.353 13.8525C164.67 22.9109 176.122 35.8469 183.377 51.1567C190.633 66.4665 193.394 83.5212 191.34 100.338C189.285 117.155 182.5 133.044 171.772 146.157C161.044 159.27 146.815 169.068 130.739 174.414C114.662 179.759 97.3982 180.432 80.9544 176.353C64.5107 172.275 49.5622 163.613 37.8469 151.374C26.5083 139.529 18.6489 124.805 15.1122 108.815C14.9174 107.934 15.4907 107.072 16.3748 106.893C17.2589 106.715 18.1189 107.287 18.3143 108.168C21.7281 123.551 29.2953 137.717 40.2064 149.116C51.4942 160.908 65.8971 169.253 81.7407 173.183C97.5844 177.113 114.218 176.465 129.708 171.314C145.198 166.164 158.908 156.723 169.244 144.088C179.58 131.454 186.118 116.145 188.097 99.9422C190.077 83.7389 187.417 67.3066 180.426 52.5555C173.435 37.8044 162.401 25.3405 148.607 16.6126C135.273 8.17609 119.888 3.5654 104.133 3.26706C103.231 3.24998 102.5 2.52042 102.5 1.61847Z" stroke="#52B141" stroke-width="8" mask="url(#path-2-inside-1_6_11763)"/>
<circle cx="6.5" cy="106.485" r="6.5" fill="#52B141"/>
<rect x="32" y="18.9854" width="141" height="141" rx="70.5" fill="#C4C4C4"/>
</svg>
