<svg width="29" height="29" viewBox="0 0 29 29" fill="none" xmlns="http://www.w3.org/2000/svg">
<path d="M14.5003 28.9603C13.6505 28.9603 12.8547 28.6366 12.2612 28.0296L10.2109 25.9793C10.0491 25.8175 9.61743 25.6421 9.40161 25.6421H6.48805C4.73452 25.6421 3.3182 24.2257 3.3182 22.4721V19.5587C3.3182 19.3429 3.14285 18.9113 2.98099 18.7494L0.930722 16.6991C0.33722 16.1056 0 15.3097 0 14.4599C0 13.6102 0.323732 12.8143 0.930722 12.2208L2.98099 10.1705C3.14285 10.0086 3.3182 9.577 3.3182 9.36118V6.44775C3.3182 4.69422 4.73452 3.27778 6.48805 3.27778H9.40161C9.61743 3.27778 10.0491 3.10242 10.2109 2.94056L12.2612 0.890253C13.4482 -0.296751 15.5525 -0.296751 16.7395 0.890253L18.7897 2.94056C18.9516 3.10242 19.3832 3.27778 19.599 3.27778H22.5126C24.2661 3.27778 25.6825 4.69422 25.6825 6.44775V9.36118C25.6825 9.577 25.8578 10.0086 26.0197 10.1705L28.0699 12.2208C28.6634 12.8143 29.0007 13.6102 29.0007 14.4599C29.0007 15.3097 28.6769 16.1056 28.0699 16.6991L26.0197 18.7494C25.8578 18.9113 25.6825 19.3429 25.6825 19.5587V22.4721C25.6825 24.2257 24.2661 25.6421 22.5126 25.6421H19.599C19.3832 25.6421 18.9516 25.8175 18.7897 25.9793L16.7395 28.0296C16.146 28.6366 15.3501 28.9603 14.5003 28.9603ZM4.41078 17.3195C4.95033 17.8591 5.3415 18.8033 5.3415 19.5587V22.4721C5.3415 23.1061 5.85408 23.6188 6.48805 23.6188H9.40161C10.157 23.6188 11.1012 24.0099 11.6407 24.5494L13.691 26.5998C14.1226 27.0314 14.878 27.0314 15.3097 26.5998L17.3599 24.5494C17.8995 24.0099 18.8437 23.6188 19.599 23.6188H22.5126C23.1466 23.6188 23.6592 23.1061 23.6592 22.4721V19.5587C23.6592 18.8033 24.0503 17.8591 24.5899 17.3195L26.6401 15.2692C26.856 15.0534 26.9774 14.7702 26.9774 14.4599C26.9774 14.1497 26.856 13.8665 26.6401 13.6507L24.5899 11.6003C24.0503 11.0608 23.6592 10.1165 23.6592 9.36118V6.44775C23.6592 5.81378 23.1466 5.30108 22.5126 5.30108H19.599C18.8437 5.30108 17.8995 4.90998 17.3599 4.37044L15.3097 2.32013C14.878 1.88849 14.1226 1.88849 13.691 2.32013L11.6407 4.37044C11.1012 4.90998 10.157 5.30108 9.40161 5.30108H6.48805C5.85408 5.30108 5.3415 5.81378 5.3415 6.44775V9.36118C5.3415 10.1165 4.95033 11.0608 4.41078 11.6003L2.36052 13.6507C2.1447 13.8665 2.0233 14.1497 2.0233 14.4599C2.0233 14.7702 2.1447 15.0534 2.36052 15.2692L4.41078 17.3195Z" fill="white"/>
<path d="M18.5486 19.8553C17.7932 19.8553 17.1862 19.2483 17.1862 18.5064C17.1862 17.7646 17.7932 17.1576 18.5351 17.1576C19.277 17.1576 19.8839 17.7646 19.8839 18.5064C19.8839 19.2483 19.2905 19.8553 18.5486 19.8553Z" fill="white"/>
<path d="M10.4672 11.7621C9.71186 11.7621 9.10486 11.1551 9.10486 10.4132C9.10486 9.67134 9.71185 9.06435 10.4537 9.06435C11.1956 9.06435 11.8026 9.67134 11.8026 10.4132C11.8026 11.1551 11.2091 11.7621 10.4672 11.7621Z" fill="white"/>
<path d="M10.455 19.5174C10.1987 19.5174 9.94239 19.423 9.74006 19.2207C9.34889 18.8295 9.34889 18.182 9.74006 17.7908L17.8333 9.69758C18.2244 9.30641 18.8719 9.30641 19.2631 9.69758C19.6542 10.0888 19.6542 10.7363 19.2631 11.1275L11.1699 19.2207C10.9675 19.423 10.7112 19.5174 10.455 19.5174Z" fill="white"/>
</svg>
