<svg width="13" height="12" viewBox="0 0 13 12" fill="none" xmlns="http://www.w3.org/2000/svg">
<mask id="mask0_0_78" style="mask-type:luminance" maskUnits="userSpaceOnUse" x="-2" y="-2" width="17" height="17">
<rect x="-1.3" y="-1.3" width="15.6" height="15.6" fill="white"/>
</mask>
<g mask="url(#mask0_0_78)">
<path fill-rule="evenodd" clip-rule="evenodd" d="M6.5 4.55C5.4431 4.55 4.55 5.4431 4.55 6.5C4.55 7.5569 5.4431 8.45 6.5 8.45C7.5569 8.45 8.45 7.5569 8.45 6.5C8.45 5.4431 7.5569 4.55 6.5 4.55Z" fill="#8F9198"/>
<path fill-rule="evenodd" clip-rule="evenodd" d="M11.7 1.95H10.0191L8.25955 0.19045C8.138 0.06825 7.9729 0 7.8 0H5.2C5.0271 0 4.862 0.06825 4.74045 0.19045L2.9809 1.95H1.3C0.58305 1.95 0 2.53305 0 3.25V10.4C0 11.1169 0.58305 11.7 1.3 11.7H11.7C12.417 11.7 13 11.1169 13 10.4V3.25C13 2.53305 12.417 1.95 11.7 1.95ZM6.5 9.75C4.7385 9.75 3.25 8.2615 3.25 6.5C3.25 4.7385 4.7385 3.25 6.5 3.25C8.2615 3.25 9.75 4.7385 9.75 6.5C9.75 8.2615 8.2615 9.75 6.5 9.75Z" fill="#8F9198"/>
</g>
</svg>
