<svg width="8" height="7" viewBox="0 0 8 7" fill="none" xmlns="http://www.w3.org/2000/svg">
<path d="M3.39925 6.83021C3.54316 6.93892 3.738 6.99996 3.94111 6.99996C4.14421 6.99996 4.33905 6.93892 4.48296 6.83021L7.65002 4.42766C7.72103 4.37379 7.77737 4.30985 7.8158 4.23947C7.85423 4.16909 7.87401 4.09366 7.87401 4.01748C7.87401 3.94131 7.85423 3.86588 7.8158 3.7955C7.77737 3.72512 7.72103 3.66117 7.65002 3.60731C7.57901 3.55344 7.4947 3.51072 7.40192 3.48156C7.30914 3.45241 7.20969 3.43741 7.10926 3.43741C7.00884 3.43741 6.90939 3.45241 6.81661 3.48156C6.72383 3.51072 6.63952 3.55344 6.56851 3.60731L4.70588 5.01987V0.580233C4.70588 0.426346 4.62528 0.278761 4.48183 0.169946C4.33837 0.0611316 4.1438 0 3.94092 0C3.73804 0 3.54347 0.0611316 3.40002 0.169946C3.25656 0.278761 3.17597 0.426346 3.17597 0.580233V5.01987L1.3137 3.60731C1.24307 3.55214 1.15868 3.50818 1.06544 3.47797C0.972209 3.44776 0.871988 3.43191 0.770606 3.43134C0.669225 3.43077 0.568705 3.4455 0.474892 3.47466C0.381079 3.50382 0.295844 3.54683 0.224142 3.6012C0.152441 3.65557 0.0957026 3.72021 0.0572267 3.79136C0.0187509 3.86251 -0.000695421 3.93875 1.89933e-05 4.01565C0.000733408 4.09255 0.021594 4.16857 0.061388 4.23931C0.101182 4.31004 0.159116 4.37406 0.23182 4.42766L3.39925 6.83021Z" fill="#B0B6C4"/>
</svg>
