<svg width="20" height="20" viewBox="0 0 20 20" fill="none" xmlns="http://www.w3.org/2000/svg">
<g clip-path="url(#clip0_52_32107)">
<path d="M0 10.3561V9.64275C0.004 9.61609 0.00866667 9.59075 0.0113333 9.56475C0.0413333 9.24142 0.0593333 8.91609 0.102 8.59475C0.242 7.54609 0.550667 6.54742 1.01933 5.59875C1.846 3.92609 3.04467 2.58209 4.614 1.57475C5.97333 0.701419 7.46267 0.193419 9.07333 0.0447522C10.128 -0.0532478 11.1727 0.00808555 12.204 0.244752C14.332 0.734752 16.1213 1.80142 17.5507 3.44942C19.0507 5.17942 19.8553 7.20009 19.984 9.48609C20.0367 10.4061 19.9593 11.3181 19.7507 12.2168C19.234 14.4321 18.1007 16.2714 16.3493 17.7201C14.8013 19.0001 13.018 19.7361 11.0207 19.9468C10.0887 20.0441 9.16 20.0074 8.23733 19.8434C7.39067 19.6928 6.57667 19.4388 5.79733 19.0748C4.264 18.3588 2.986 17.3248 1.97733 15.9668C0.812 14.4001 0.162667 12.6374 0.0253333 10.6881L0 10.3561ZM8.38467 16.4534H10.968V9.99075H12.766L12.96 7.82742H10.964V7.74075C10.964 7.42075 10.9627 7.10075 10.9647 6.78075C10.966 6.63742 10.9673 6.49409 10.978 6.35209C11.0007 6.04809 11.154 5.90275 11.458 5.88742C11.506 5.88542 11.5547 5.88542 11.6033 5.88542H12.9527V3.64009C12.928 3.63809 12.91 3.63542 12.8907 3.63542C12.272 3.63675 11.6533 3.63342 11.0347 3.64009C10.574 3.64475 10.1213 3.70475 9.68867 3.87542C9.18867 4.07409 8.81467 4.40675 8.59867 4.90609C8.45133 5.24609 8.39 5.60609 8.38667 5.97542C8.38133 6.56209 8.38467 7.15009 8.384 7.73675V7.83009H7.04533V10.0234H8.38467V16.4534Z" fill="#E50914"/>
</g>
<defs>
<clipPath id="clip0_52_32107">
<rect width="20" height="20" fill="white"/>
</clipPath>
</defs>
</svg>
