<svg width="24" height="18" viewBox="0 0 24 18" fill="none" xmlns="http://www.w3.org/2000/svg">
<path d="M0.857143 12.6H1.71428V0.9C1.71428 0.661305 1.80459 0.432387 1.96534 0.263604C2.12608 0.0948213 2.3441 0 2.57143 0H21.4286C21.6559 0 21.8739 0.0948213 22.0347 0.263604C22.1954 0.432387 22.2857 0.661305 22.2857 0.9V12.6H23.1429C23.3702 12.6 23.5882 12.6948 23.7489 12.8636C23.9097 13.0324 24 13.2613 24 13.5V15.3C24 16.0161 23.7291 16.7028 23.2468 17.2092C22.7646 17.7155 22.1106 18 21.4286 18H2.57143C1.88944 18 1.23539 17.7155 0.753153 17.2092C0.270918 16.7028 0 16.0161 0 15.3V13.5C0 13.2613 0.0903053 13.0324 0.251051 12.8636C0.411797 12.6948 0.629814 12.6 0.857143 12.6ZM3.42857 12.6H7.71428C7.94161 12.6 8.15963 12.6948 8.32038 12.8636C8.48112 13.0324 8.57143 13.2613 8.57143 13.5C8.57143 13.7387 8.66173 13.9676 8.82248 14.1364C8.98322 14.3052 9.20124 14.4 9.42857 14.4H14.5714C14.7988 14.4 15.0168 14.3052 15.1775 14.1364C15.3383 13.9676 15.4286 13.7387 15.4286 13.5C15.4286 13.2613 15.5189 13.0324 15.6796 12.8636C15.8404 12.6948 16.0584 12.6 16.2857 12.6H20.5714V1.8H3.42857V12.6Z" fill="white"/>
<path d="M17.1429 10.8C16.9155 10.8 16.6975 10.7052 16.5368 10.5364C16.376 10.3676 16.2857 10.1387 16.2857 9.9V7.2C16.2857 6.96131 16.376 6.73239 16.5368 6.5636C16.6975 6.39482 16.9155 6.3 17.1429 6.3C17.3702 6.3 17.5882 6.39482 17.7489 6.5636C17.9097 6.73239 18 6.96131 18 7.2V9.9C18 10.1387 17.9097 10.3676 17.7489 10.5364C17.5882 10.7052 17.3702 10.8 17.1429 10.8Z" fill="white"/>
<path d="M13.7143 10.8C13.487 10.8 13.2689 10.7052 13.1082 10.5364C12.9474 10.3676 12.8571 10.1387 12.8571 9.9V4.5C12.8571 4.2613 12.9474 4.03239 13.1082 3.8636C13.2689 3.69482 13.487 3.6 13.7143 3.6C13.9416 3.6 14.1596 3.69482 14.3204 3.8636C14.4811 4.03239 14.5714 4.2613 14.5714 4.5V9.9C14.5714 10.1387 14.4811 10.3676 14.3204 10.5364C14.1596 10.7052 13.9416 10.8 13.7143 10.8Z" fill="white"/>
<path d="M10.2857 10.8C10.0584 10.8 9.84037 10.7052 9.67962 10.5364C9.51888 10.3676 9.42857 10.1387 9.42857 9.9V6.3C9.42857 6.06131 9.51888 5.83239 9.67962 5.6636C9.84037 5.49482 10.0584 5.4 10.2857 5.4C10.513 5.4 10.7311 5.49482 10.8918 5.6636C11.0526 5.83239 11.1429 6.06131 11.1429 6.3V9.9C11.1429 10.1387 11.0526 10.3676 10.8918 10.5364C10.7311 10.7052 10.513 10.8 10.2857 10.8Z" fill="white"/>
<path d="M6.85714 10.8C6.62981 10.8 6.4118 10.7052 6.25105 10.5364C6.09031 10.3676 6 10.1387 6 9.9V8.1C6 7.8613 6.09031 7.63239 6.25105 7.4636C6.4118 7.29482 6.62981 7.2 6.85714 7.2C7.08447 7.2 7.30249 7.29482 7.46323 7.4636C7.62398 7.63239 7.71428 7.8613 7.71428 8.1V9.9C7.71428 10.1387 7.62398 10.3676 7.46323 10.5364C7.30249 10.7052 7.08447 10.8 6.85714 10.8Z" fill="white"/>
</svg>
