<svg width="18" height="14" viewBox="0 0 18 14" fill="none" xmlns="http://www.w3.org/2000/svg">
<path d="M7.875 11.0009C5.68138 10.7201 3.87013 9.3459 3.5 7.68164L6.88454e-07 7.68164C0.412125 10.813 3.74762 13.3436 7.875 13.6562L7.875 11.0009Z" fill="white"/>
<path d="M3.6092 6.12611C4.0405 4.18676 6.29987 2.73823 8.97699 2.73823C11.9627 2.73823 14.3908 4.58038 14.3908 6.84558C14.3908 8.87666 12.4815 10.5908 9.92531 10.918L9.92531 13.6562C14.4783 13.3112 18 10.3889 18 6.84558C18 3.07093 13.9523 -2.68469e-07 8.97699 -5.9846e-07C4.30668 -9.08222e-07 0.454761 2.67183 8.67698e-07 6.12611L3.6092 6.12611Z" fill="white"/>
</svg>
