<svg width="30" height="30" viewBox="0 0 30 30" fill="none" xmlns="http://www.w3.org/2000/svg">
<g clip-path="url(#clip0_52_46997)">
<path d="M14.231 18.666C14.681 18.666 19.2185 18.7316 22.5185 23.7191C22.7343 24.0458 22.8795 24.4138 22.9449 24.7998C23.0103 25.1857 22.9943 25.5811 22.8981 25.9605C22.802 26.34 22.6276 26.6952 22.3863 27.0034C22.145 27.3116 21.842 27.566 21.4966 27.7504C18.3373 29.2785 12.581 31.2754 6.07477 27.6754C5.38571 27.2417 4.89265 26.5568 4.70014 25.7657C4.50762 24.9746 4.63079 24.1397 5.04352 23.4379C6.01226 21.9177 7.36256 20.678 8.9598 19.8424C10.557 19.0067 12.3454 18.6044 14.1466 18.6754L14.231 18.666Z" fill="#4A6370"/>
<path d="M14.1652 19.7812C15.5819 19.8484 16.9631 20.2473 18.1974 20.9458C19.4317 21.6444 20.4847 22.6231 21.2715 23.8031C21.4543 24.0618 21.5776 24.3576 21.6326 24.6695C21.6876 24.9814 21.6729 25.3017 21.5896 25.6072C21.5063 25.9128 21.3563 26.1961 21.1506 26.4369C20.9449 26.6777 20.6884 26.87 20.3996 27C18.3012 27.9792 16.0069 28.4663 13.6917 28.4241C11.3765 28.3818 9.10149 27.8114 7.04024 26.7562C6.76277 26.6145 6.51949 26.414 6.32728 26.1688C6.13508 25.9236 5.99855 25.6395 5.92719 25.3362C5.85582 25.0329 5.85133 24.7177 5.91403 24.4125C5.97672 24.1073 6.10509 23.8194 6.29024 23.5687C7.17289 22.3411 8.34945 21.3545 9.71216 20.6994C11.0749 20.0442 12.5802 19.7414 14.0902 19.8187L14.1652 19.7812Z" fill="#A2B6BA"/>
<path d="M14.1282 19.9402C15.2814 19.9937 16.4059 20.3177 17.4107 20.8861C18.4156 21.4545 19.2726 22.2513 19.9126 23.2121C20.063 23.4221 20.1649 23.6629 20.2109 23.917C20.2569 24.1712 20.2459 24.4325 20.1786 24.6819C20.1113 24.9312 19.9895 25.1626 19.8219 25.3591C19.6543 25.5557 19.4451 25.7125 19.2094 25.8184C17.4995 26.6147 15.6305 27.0109 13.7445 26.9768C11.8585 26.9427 10.0051 26.4792 8.32507 25.6215C8.09966 25.5053 7.90213 25.3416 7.74611 25.1417C7.59009 24.9418 7.47929 24.7105 7.42136 24.4636C7.36343 24.2167 7.35975 23.9602 7.41056 23.7118C7.46137 23.4634 7.56548 23.2289 7.71569 23.0246C8.42993 22.0193 9.38562 21.2099 10.4948 20.6709C11.6039 20.1319 12.8308 19.8806 14.0626 19.9402H14.1282Z" fill="#87999B"/>
<path d="M13.4154 25.1336C19.9859 25.1336 25.3123 19.8072 25.3123 13.2367C25.3123 6.66626 19.9859 1.33984 13.4154 1.33984C6.84497 1.33984 1.51855 6.66626 1.51855 13.2367C1.51855 19.8072 6.84497 25.1336 13.4154 25.1336Z" fill="#4A6370"/>
<path d="M13.4158 23.4195C19.2562 23.4195 23.9908 18.6849 23.9908 12.8445C23.9908 7.00412 19.2562 2.26953 13.4158 2.26953C7.57541 2.26953 2.84082 7.00412 2.84082 12.8445C2.84082 18.6849 7.57541 23.4195 13.4158 23.4195Z" fill="#A2B6BA"/>
<path d="M13.8375 21.7219C19.2275 21.7219 23.5969 17.3525 23.5969 11.9625C23.5969 6.57255 19.2275 2.20312 13.8375 2.20312C8.44755 2.20312 4.07812 6.57255 4.07812 11.9625C4.07812 17.3525 8.44755 21.7219 13.8375 21.7219Z" fill="#CBDEE4"/>
<path d="M19.191 11.1379C20.3871 11.1379 21.3566 10.1683 21.3566 8.97227C21.3566 7.77622 20.3871 6.80664 19.191 6.80664C17.995 6.80664 17.0254 7.77622 17.0254 8.97227C17.0254 10.1683 17.995 11.1379 19.191 11.1379Z" fill="#4A6370"/>
<path d="M19.2842 10.1621C20.0091 10.1621 20.5967 9.57448 20.5967 8.84961C20.5967 8.12474 20.0091 7.53711 19.2842 7.53711C18.5593 7.53711 17.9717 8.12474 17.9717 8.84961C17.9717 9.57448 18.5593 10.1621 19.2842 10.1621Z" fill="#4ED154"/>
<path d="M11.4467 8.11875C11.4467 8.11875 12.0092 4.3125 14.8498 2.8125C15.2248 2.60625 15.1592 2.35312 14.7279 2.29688H14.1561C13.7061 2.29688 10.4717 2.4375 9.34668 8.325L11.4467 8.11875Z" fill="#A2B6BA"/>
<path d="M17.0078 14.3163C17.0214 10.604 14.2244 7.58421 10.7606 7.57152C7.29672 7.55882 4.4777 10.558 4.46409 14.2704C4.45048 17.9827 7.24745 21.0025 10.7113 21.0152C14.1751 21.0279 16.9941 18.0287 17.0078 14.3163Z" fill="#4A6370"/>
<path d="M15.6769 14.0277C15.6873 11.2007 13.555 8.9011 10.9144 8.89142C8.27385 8.88174 6.12483 11.1656 6.11446 13.9926C6.1041 16.8196 8.23633 19.1192 10.8769 19.1289C13.5175 19.1385 15.6665 16.8546 15.6769 14.0277Z" fill="#3587C4"/>
<path d="M14.8896 13.8378C14.8982 11.482 13.1214 9.56569 10.9209 9.55763C8.7204 9.54956 6.92954 11.4528 6.92091 13.8086C6.91227 16.1644 8.68913 18.0808 10.8896 18.0888C13.0901 18.0969 14.881 16.1937 14.8896 13.8378Z" fill="#4DA3EC"/>
<path d="M13.1408 11.8699C13.1431 11.2486 12.6203 10.743 11.9731 10.7406C11.3259 10.7383 10.7994 11.24 10.7971 11.8613C10.7948 12.4827 11.3176 12.9883 11.9648 12.9906C12.612 12.993 13.1385 12.4912 13.1408 11.8699Z" fill="white"/>
<path d="M13.6877 5.07184C14.16 4.54654 14.6741 4.06055 15.2252 3.61871C15.3239 3.53957 15.4398 3.48476 15.5636 3.4587C15.6874 3.43264 15.8155 3.43607 15.9377 3.46871C16.9841 3.78383 17.9859 4.2312 18.919 4.79996C19.0733 4.89485 19.1917 5.03843 19.2554 5.20804C19.3191 5.37766 19.3245 5.56365 19.2707 5.73667C19.217 5.9097 19.1072 6.05991 18.9586 6.1636C18.81 6.2673 18.6312 6.31857 18.4502 6.30934C17.087 6.23008 15.7195 6.26771 14.3627 6.42184C14.2014 6.4339 14.0401 6.39768 13.8993 6.3178C13.7586 6.23792 13.6448 6.11798 13.5724 5.97324C13.5001 5.8285 13.4724 5.66551 13.4929 5.50499C13.5135 5.34448 13.5813 5.1937 13.6877 5.07184Z" fill="#E1F0F4"/>
<path d="M16.8092 27.75L16.4248 28.2656L18.2342 29.5219L28.5279 19.3031L26.8404 17.1562L16.8092 27.75Z" fill="#9A4C18"/>
<path d="M28.7441 22.1997C28.5151 24.2488 27.5437 26.1431 26.0134 27.5249C24.483 28.9067 22.4997 29.6803 20.4379 29.6996C19.5141 29.7257 18.5968 29.5384 17.7572 29.1523C16.9176 28.7662 16.1784 28.1916 15.597 27.4733C15.0156 26.7549 14.6077 25.9122 14.4051 25.0105C14.2024 24.1089 14.2104 23.1727 14.4285 22.2747C14.8391 20.4191 15.8549 18.7526 17.3161 17.5375C18.7773 16.3224 20.601 15.6275 22.5004 15.5622C23.3643 15.5252 24.2261 15.6748 25.0271 16.0008C25.828 16.3268 26.5493 16.8216 27.1418 17.4515C27.7343 18.0814 28.1841 18.8315 28.4606 19.6509C28.7371 20.4702 28.8338 21.3396 28.7441 22.1997Z" fill="#225E22"/>
<path d="M29.775 23.4378C29.5215 25.4079 28.5579 27.2178 27.0648 28.5279C25.5718 29.838 23.6519 30.5582 21.6656 30.5534C20.7754 30.5918 19.8884 30.4234 19.0743 30.0614C18.2602 29.6993 17.541 29.1536 16.9733 28.4668C16.4056 27.7801 16.0047 26.9712 15.8022 26.1035C15.5997 25.2358 15.6011 24.333 15.8062 23.4659C16.2332 21.6945 17.2308 20.1126 18.6454 18.964C20.06 17.8154 21.813 17.1638 23.6343 17.1097C24.4709 17.0557 25.3093 17.184 26.0915 17.4856C26.8737 17.7872 27.5811 18.255 28.165 18.8567C28.7488 19.4583 29.1951 20.1795 29.473 20.9704C29.751 21.7613 29.854 22.6032 29.775 23.4378Z" fill="#225E22"/>
<path d="M17.9629 28.0227L19.7066 28.9602L28.116 20.1477L26.7285 18.3008L17.9629 28.0227Z" fill="#949494"/>
<path d="M28.9591 23.5032C28.7529 25.1618 27.9524 26.6893 26.7061 27.8029C25.4599 28.9164 23.8522 29.5405 22.181 29.5595C21.4277 29.5832 20.6791 29.4335 19.9928 29.1222C19.3065 28.8108 18.7009 28.3459 18.2226 27.7635C17.7443 27.1811 17.4062 26.4966 17.2343 25.7628C17.0623 25.0291 17.0612 24.2656 17.231 23.5314C17.5607 22.0142 18.3833 20.6489 19.5704 19.6483C20.7575 18.6477 22.2424 18.0682 23.7935 18.0001C24.512 17.9593 25.2306 18.0765 25.8989 18.3435C26.5671 18.6106 27.1687 19.0209 27.6612 19.5456C28.1537 20.0702 28.5252 20.6965 28.7494 21.3803C28.9737 22.0641 29.0453 22.7888 28.9591 23.5032Z" fill="#358761"/>
<path d="M27.8442 22.1528C27.6272 23.9244 26.777 25.5578 25.4504 26.7518C24.1237 27.9459 22.41 28.6199 20.6254 28.6496C19.8195 28.6739 19.0189 28.5125 18.2853 28.178C17.5517 27.8435 16.9049 27.3448 16.3947 26.7205C15.8846 26.0962 15.5248 25.3629 15.3432 24.5774C15.1616 23.7919 15.163 22.9752 15.3473 22.1903C15.705 20.5695 16.5903 19.1132 17.8643 18.0495C19.1384 16.9858 20.7294 16.3748 22.3879 16.3121C23.1471 16.2774 23.9048 16.4078 24.6087 16.6945C25.3125 16.9813 25.9457 17.4174 26.4645 17.9727C26.9833 18.5281 27.3754 19.1895 27.6136 19.9112C27.8518 20.6329 27.9305 21.3977 27.8442 22.1528Z" fill="#75EF75"/>
<path d="M22.2558 16.9209C20.7046 16.9837 19.2183 17.5602 18.0304 18.5597C16.8425 19.5593 16.0204 20.9252 15.6933 22.4428C15.4871 23.3776 15.5542 24.352 15.8867 25.2496C16.2191 26.1473 16.8029 26.9304 17.5683 27.5053C19.3201 23.8786 21.3349 20.3849 23.5964 17.0522C23.1562 16.9567 22.7063 16.9126 22.2558 16.9209Z" fill="#75EF75"/>
<path d="M17.5215 27.507C18.4261 28.1347 19.5049 28.4626 20.6059 28.4445C21.9213 28.4433 23.2068 28.0518 24.2996 27.3195C23.5496 25.2383 22.0402 23.4664 20.6434 21.6289C19.5023 23.5333 18.4603 25.4953 17.5215 27.507Z" fill="#4ED154"/>
<path d="M23.55 17.0527C22.5563 18.5715 21.5625 20.0996 20.625 21.6652C22.0219 23.5402 23.5312 25.2746 24.2812 27.3559C25.1291 26.8133 25.8462 26.0898 26.3811 25.2372C26.916 24.3845 27.2554 23.424 27.375 22.4246C27.5261 21.2129 27.2169 19.9885 26.5086 18.9938C25.8003 17.9991 24.7445 17.3064 23.55 17.0527Z" fill="#75EF75"/>
<path d="M23.8965 18.375C22.1534 20.9349 20.6022 23.6203 19.2559 26.4094C19.9471 26.9043 20.7776 27.167 21.6277 27.1594C22.918 27.1454 24.1589 26.6617 25.1183 25.799C26.0777 24.9362 26.6899 23.7534 26.8402 22.4719C26.947 21.5452 26.7046 20.612 26.1602 19.8544C25.6159 19.0969 24.8088 18.5694 23.8965 18.375Z" fill="#4ED154"/>
<path d="M26.0622 22.4249C25.8955 23.708 25.2721 24.8881 24.3062 25.749C23.3403 26.6098 22.0965 27.0939 20.8028 27.1124C20.2215 27.1301 19.6439 27.0151 19.1137 26.776C18.5836 26.5369 18.115 26.18 17.7435 25.7326C17.372 25.2852 17.1074 24.759 16.9699 24.1939C16.8323 23.6289 16.8254 23.0399 16.9497 22.4718C17.1966 21.2776 17.837 20.2008 18.7685 19.4138C19.6999 18.6268 20.8686 18.1752 22.0872 18.1312C22.6439 18.105 23.1997 18.2009 23.7155 18.412C24.2313 18.6231 24.6948 18.9445 25.0734 19.3535C25.452 19.7625 25.7367 20.2493 25.9075 20.7798C26.0783 21.3104 26.1311 21.8718 26.0622 22.4249Z" fill="#75EF75"/>
<path d="M26.1281 21.7872C25.9533 23.056 25.3293 24.22 24.3694 25.0681C23.4096 25.9161 22.1775 26.3919 20.8969 26.4091C20.3179 26.4382 19.74 26.3328 19.2086 26.101C18.6773 25.8692 18.2069 25.5174 17.8344 25.0732C17.462 24.6289 17.1975 24.1044 17.062 23.5407C16.9264 22.9771 16.9234 22.3897 17.0531 21.8247C17.302 20.6382 17.9416 19.5694 18.8695 18.7893C19.7975 18.0092 20.9602 17.5628 22.1718 17.5216C22.7279 17.4855 23.285 17.5737 23.8026 17.7799C24.3202 17.9861 24.7854 18.3051 25.1643 18.7136C25.5432 19.1221 25.8263 19.61 25.993 20.1416C26.1597 20.6733 26.2059 21.2354 26.1281 21.7872Z" fill="#358761"/>
<path d="M21.9936 18.7502C20.959 18.7831 19.9661 19.1651 19.1763 19.834C18.3864 20.503 17.8463 21.4196 17.6436 22.4346C17.5479 22.9167 17.5605 23.4141 17.6805 23.8907C17.8004 24.3674 18.0248 24.8114 18.3373 25.1908C19.8561 23.0814 21.5248 21.1314 22.8654 18.8439C22.5795 18.7787 22.2869 18.7472 21.9936 18.7502Z" fill="#C0FFC0"/>
<path d="M22.866 18.8535C21.5254 21.141 19.8566 23.091 18.3379 25.2004C18.6575 25.566 19.0528 25.8576 19.4963 26.0551C19.9399 26.2526 20.4211 26.3512 20.9066 26.3441C21.9864 26.3192 23.0222 25.9114 23.8292 25.1937C24.6362 24.4759 25.1621 23.4948 25.3129 22.4254C25.4274 21.6316 25.2394 20.8238 24.7862 20.1622C24.3329 19.5006 23.6476 19.0334 22.866 18.8535Z" fill="#75EF75"/>
<path d="M22.5934 18.3184L23.1934 20.6715L25.7621 21.3277L23.3902 22.9309L23.2121 25.6309L21.0934 24.084L18.3371 25.059L19.5184 22.4902L18.1309 20.4934L20.8402 20.4184L22.5934 18.3184Z" fill="#358761"/>
<path d="M22.3598 19.4258L21.1504 20.8602L19.2754 20.9164L20.2129 22.2945L19.3973 24.057L21.1785 23.4289C21.5535 22.1539 21.9848 20.8883 22.3785 19.6227L22.3598 19.4258Z" fill="#75EF75"/>
<path d="M22.7717 21.0367L22.4061 19.6211C22.0123 20.8867 21.5811 22.1523 21.2061 23.4273H21.3186L22.7811 24.4961L22.9029 22.6211L24.5342 21.5242L22.7717 21.0367Z" fill="#4ED154"/>
</g>
<defs>
<clipPath id="clip0_52_46997">
<rect width="30" height="30" fill="white"/>
</clipPath>
</defs>
</svg>
