<svg width="12" height="12" viewBox="0 0 12 12" fill="none" xmlns="http://www.w3.org/2000/svg">
<path d="M11.0315 5.09221H6.90682V0.968544C6.91799 0.626333 6.74181 0.305224 6.44717 0.13081C6.15253 -0.0436034 5.78626 -0.0436034 5.49162 0.13081C5.19698 0.305224 5.02079 0.626333 5.03197 0.968544V5.09221H0.907303C0.401492 5.10873 0 5.52355 0 6.02963C0 6.53571 0.401492 6.95053 0.907303 6.96706H5.03197V11.0917C5.04849 11.5975 5.46331 11.999 5.96939 11.999C6.47547 11.999 6.89029 11.5975 6.90682 11.0917V6.96806H11.0315C11.3737 6.97923 11.6948 6.80305 11.8692 6.50841C12.0436 6.21377 12.0436 5.8475 11.8692 5.55286C11.6948 5.25822 11.3737 5.08203 11.0315 5.09321V5.09221Z" fill="#00B97D"/>
</svg>
