<svg width="22" height="21" viewBox="0 0 22 21" fill="none" xmlns="http://www.w3.org/2000/svg">
<path d="M10.995 13.4901C12.6896 13.4901 14.0634 12.1163 14.0634 10.4217C14.0634 8.72707 12.6896 7.35331 10.995 7.35331C9.30039 7.35331 7.92663 8.72707 7.92663 10.4217C7.92663 12.1163 9.30039 13.4901 10.995 13.4901Z" stroke="#AEAEAE" stroke-width="1.5" stroke-miterlimit="10" stroke-linecap="round" stroke-linejoin="round"/>
<path d="M0.767093 11.3217V9.52156C0.767093 8.45786 1.63647 7.57826 2.7104 7.57826C4.56165 7.57826 5.31851 6.26909 4.38777 4.6633C3.85592 3.74279 4.17299 2.54613 5.10373 2.01427L6.87316 1.00171C7.68116 0.520999 8.72441 0.807381 9.20512 1.61539L9.31763 1.80972C10.2381 3.4155 11.7519 3.4155 12.6826 1.80972L12.7951 1.61539C13.2758 0.807381 14.3191 0.520999 15.1271 1.00171L16.8965 2.01427C17.8273 2.54613 18.1443 3.74279 17.6125 4.6633C16.6817 6.26909 17.4386 7.57826 19.2898 7.57826C20.3535 7.57826 21.2331 8.44763 21.2331 9.52156V11.3217C21.2331 12.3854 20.3638 13.265 19.2898 13.265C17.4386 13.265 16.6817 14.5741 17.6125 16.1799C18.1443 17.1107 17.8273 18.2971 16.8965 18.829L15.1271 19.8415C14.3191 20.3222 13.2758 20.0359 12.7951 19.2279L12.6826 19.0335C11.7621 17.4277 10.2484 17.4277 9.31763 19.0335L9.20512 19.2279C8.72441 20.0359 7.68116 20.3222 6.87316 19.8415L5.10373 18.829C4.17299 18.2971 3.85592 17.1004 4.38777 16.1799C5.31851 14.5741 4.56165 13.265 2.7104 13.265C1.63647 13.265 0.767093 12.3854 0.767093 11.3217Z" stroke="#AEAEAE" stroke-width="1.5" stroke-miterlimit="10" stroke-linecap="round" stroke-linejoin="round"/>
</svg>
