<svg width="8" height="5" viewBox="0 0 8 5" fill="none" xmlns="http://www.w3.org/2000/svg">
<path fill-rule="evenodd" clip-rule="evenodd" d="M3.59143 4.61514C3.64637 4.66983 3.7116 4.71309 3.78335 4.74243C3.8551 4.77177 3.93196 4.7866 4.00948 4.78607C4.08699 4.78554 4.16364 4.76965 4.23498 4.73934C4.30633 4.70902 4.37096 4.66486 4.42514 4.60942L7.81771 1.22714C7.87508 1.17286 7.92083 1.10749 7.95216 1.035C7.9835 0.962506 7.99977 0.8844 8 0.805424C7.99948 0.690279 7.96514 0.577825 7.90123 0.48204C7.83733 0.386255 7.74668 0.311364 7.64056 0.266675C7.53444 0.221986 7.41753 0.209471 7.30435 0.230685C7.19118 0.2519 7.08673 0.305908 7.004 0.385996L7.00229 0.38371L4.016 3.34942L1.008 0.386567L1.00571 0.388853C0.923886 0.305865 0.819222 0.249094 0.705036 0.225761C0.590851 0.202428 0.472305 0.213587 0.36448 0.25782C0.256655 0.302053 0.164424 0.377359 0.0995206 0.47416C0.0346171 0.57096 -2.54305e-05 0.684879 1.40065e-08 0.801424C1.40065e-08 0.97171 0.0742857 1.122 0.190286 1.22885L3.59029 4.61742L3.59143 4.61514Z" fill="#0E0E0E"/>
</svg>
