<svg width="188" height="40" viewBox="0 0 188 40" fill="none" xmlns="http://www.w3.org/2000/svg">
<rect width="188" height="40" rx="20" fill="#F9325B"/>
<path d="M76.982 24.468L76.4882 25.3376L76.4945 25.3412L76.5009 25.3447L76.982 24.468ZM75.176 22.69L74.3084 23.1873L74.312 23.1936L74.3157 23.1998L75.176 22.69ZM75.176 17.552L74.3157 17.0422L74.3111 17.0501L75.176 17.552ZM76.982 15.788L77.4676 16.6622L77.4713 16.6601L76.982 15.788ZM81.994 15.788L81.5002 16.6576L81.5065 16.6612L81.5129 16.6647L81.994 15.788ZM83.8 17.552L82.9351 18.0539L83.8 17.552ZM83.8 22.69L84.665 23.1919L84.6676 23.1873L83.8 22.69ZM81.994 24.468L82.4796 25.3422L82.4833 25.3401L81.994 24.468ZM81.21 23.278L81.7079 24.1453L81.7198 24.1383L81.21 23.278ZM82.386 22.018L81.5007 21.5529L81.4978 21.5586L82.386 22.018ZM82.386 18.224L81.4977 18.6835L81.5041 18.6954L82.386 18.224ZM81.21 16.978L80.7121 17.8453H80.7121L81.21 16.978ZM77.766 16.978L78.2639 17.8453L78.2639 17.8453L77.766 16.978ZM76.576 18.224L75.694 17.7526L75.6878 17.7646L76.576 18.224ZM76.576 22.018L75.6846 22.4712L75.6892 22.4804L75.6941 22.4894L76.576 22.018ZM77.766 23.278L77.2561 24.1384L77.2681 24.1453L77.766 23.278ZM79.488 24.098C78.7444 24.098 78.0754 23.9274 77.4631 23.5913L76.5009 25.3447C77.4193 25.8486 78.421 26.098 79.488 26.098V24.098ZM77.4758 23.5984C76.8729 23.256 76.3965 22.7881 76.0363 22.1802L74.3157 23.1998C74.8515 24.1039 75.5791 24.8213 76.4882 25.3376L77.4758 23.5984ZM76.0436 22.1927C75.6985 21.5907 75.518 20.9058 75.518 20.114H73.518C73.518 21.2262 73.7762 22.2587 74.3084 23.1873L76.0436 22.1927ZM75.518 20.114C75.518 19.3221 75.6985 18.644 76.0409 18.0539L74.3111 17.0501C73.7761 17.972 73.518 19.0019 73.518 20.114H75.518ZM76.0363 18.0618C76.3954 17.4557 76.8692 16.9946 77.4676 16.6622L76.4964 14.9138C75.5828 15.4214 74.8526 16.1363 74.3157 17.0422L76.0363 18.0618ZM77.4713 16.6601C78.0823 16.3174 78.7484 16.144 79.488 16.144V14.144C78.417 14.144 77.4124 14.4 76.4927 14.9159L77.4713 16.6601ZM79.488 16.144C80.2389 16.144 80.9027 16.3182 81.5002 16.6576L82.4878 14.9184C81.5733 14.3991 80.5664 14.144 79.488 14.144V16.144ZM81.5129 16.6647C82.1183 16.9969 82.5877 17.4552 82.9351 18.0539L84.6649 17.0501C84.135 16.1368 83.4003 15.4191 82.4751 14.9113L81.5129 16.6647ZM82.9351 18.0539C83.2775 18.644 83.458 19.3221 83.458 20.114H85.458C85.458 19.0019 85.1999 17.972 84.6649 17.0501L82.9351 18.0539ZM83.458 20.114C83.458 20.9058 83.2775 21.5907 82.9324 22.1927L84.6676 23.1873C85.1998 22.2587 85.458 21.2262 85.458 20.114H83.458ZM82.9351 22.1881C82.5866 22.7887 82.1146 23.2537 81.5047 23.5959L82.4833 25.3401C83.404 24.8236 84.1361 24.1033 84.6649 23.1919L82.9351 22.1881ZM81.5084 23.5938C80.9095 23.9265 80.2429 24.098 79.488 24.098V26.098C80.5625 26.098 81.5665 25.8495 82.4796 25.3422L81.5084 23.5938ZM79.488 24.712C80.2873 24.712 81.0364 24.5307 81.7079 24.1453L80.7121 22.4107C80.3756 22.6039 79.9767 22.712 79.488 22.712V24.712ZM81.7198 24.1383C82.3917 23.7401 82.9118 23.1781 83.2742 22.4774L81.4978 21.5586C81.3002 21.9405 81.0363 22.2185 80.7002 22.4177L81.7198 24.1383ZM83.2712 22.4831C83.6469 21.7682 83.82 20.9694 83.82 20.114H81.82C81.82 20.6959 81.7038 21.1665 81.5008 21.5529L83.2712 22.4831ZM83.82 20.114C83.82 19.259 83.647 18.4619 83.2679 17.7526L81.5041 18.6954C81.7036 19.0687 81.82 19.5316 81.82 20.114H83.82ZM83.2742 17.7646C82.9105 17.0614 82.3868 16.5005 81.7079 16.1107L80.7121 17.8453C81.0412 18.0342 81.3015 18.304 81.4978 18.6834L83.2742 17.7646ZM81.7079 16.1107C81.0364 15.7253 80.2873 15.544 79.488 15.544V17.544C79.9767 17.544 80.3756 17.6521 80.7121 17.8453L81.7079 16.1107ZM79.488 15.544C78.6887 15.544 77.9396 15.7253 77.2681 16.1107L78.2639 17.8453C78.6004 17.6521 78.9993 17.544 79.488 17.544V15.544ZM77.2681 16.1107C76.5922 16.4988 76.0666 17.0557 75.6941 17.7526L77.4579 18.6954C77.6641 18.3097 77.9318 18.0359 78.2639 17.8453L77.2681 16.1107ZM75.6878 17.7646C75.3222 18.4713 75.156 19.264 75.156 20.114H77.156C77.156 19.5266 77.2698 19.0594 77.4642 18.6834L75.6878 17.7646ZM75.156 20.114C75.156 20.9645 75.3224 21.7589 75.6846 22.4712L77.4674 21.5648C77.2696 21.1758 77.156 20.7009 77.156 20.114H75.156ZM75.6941 22.4894C76.0653 23.1839 76.5873 23.7419 77.2562 24.1383L78.2758 22.4177C77.9367 22.2168 77.6654 21.9348 77.4579 21.5466L75.6941 22.4894ZM77.2681 24.1453C77.9396 24.5307 78.6887 24.712 79.488 24.712V22.712C78.9993 22.712 78.6004 22.6039 78.2639 22.4107L77.2681 24.1453ZM87.6245 18.406H86.6245V22.0411L88.4838 18.9175L87.6245 18.406ZM88.5485 17.496L89.0378 18.3682L89.0447 18.3642L88.5485 17.496ZM89.9345 17.16H90.9345V16.16H89.9345V17.16ZM89.9345 18.812V19.812H90.9345V18.812H89.9345ZM88.1005 19.288L87.4037 18.5707L87.3985 18.5758L87.3934 18.5809L88.1005 19.288ZM87.6245 25V26H88.6245V25H87.6245ZM86.0285 25H85.0285V26H86.0285V25ZM86.0285 17.286V16.286H85.0285V17.286H86.0285ZM87.6245 17.286H88.6245V16.286H87.6245V17.286ZM88.4838 18.9175C88.6312 18.6698 88.8141 18.4936 89.0378 18.3681L88.0593 16.6239C87.5176 16.9277 87.0845 17.3582 86.7652 17.8945L88.4838 18.9175ZM89.0447 18.3642C89.2606 18.2409 89.5453 18.16 89.9345 18.16V16.16C89.2597 16.16 88.6204 16.3031 88.0524 16.6278L89.0447 18.3642ZM88.9345 17.16V18.812H90.9345V17.16H88.9345ZM89.9345 17.812H89.5285V19.812H89.9345V17.812ZM89.5285 17.812C88.7418 17.812 87.9776 18.0133 87.4037 18.5707L88.7973 20.0053C88.8768 19.9281 89.0646 19.812 89.5285 19.812V17.812ZM87.3934 18.5809C86.7898 19.1845 86.6245 20.0742 86.6245 20.94H88.6245C88.6245 20.2378 88.7766 20.0262 88.8076 19.9951L87.3934 18.5809ZM86.6245 20.94V25H88.6245V20.94H86.6245ZM87.6245 24H86.0285V26H87.6245V24ZM87.0285 25V17.286H85.0285V25H87.0285ZM86.0285 18.286H87.6245V16.286H86.0285V18.286ZM86.6245 17.286V18.406H88.6245V17.286H86.6245ZM91.3456 19.05L90.4681 18.5702L90.4624 18.5808L91.3456 19.05ZM92.6616 17.664L93.1718 18.5241L93.1761 18.5215L92.6616 17.664ZM96.0076 17.496L95.5885 18.404L95.5989 18.4088L95.6095 18.4133L96.0076 17.496ZM97.1836 18.364L96.4007 18.9862L98.1836 21.2291V18.364H97.1836ZM97.1836 14.64V13.64H96.1836V14.64H97.1836ZM98.7936 14.64H99.7936V13.64H98.7936V14.64ZM98.7936 25V26H99.7936V25H98.7936ZM97.1836 25H96.1836V26H97.1836V25ZM97.1836 23.838H98.1836V20.6656L96.3643 23.2645L97.1836 23.838ZM96.0916 24.762L95.6302 23.8748L95.6228 23.8787L96.0916 24.762ZM92.6616 24.622L92.1303 25.4692L92.1386 25.4744L92.1471 25.4795L92.6616 24.622ZM91.3456 23.194L90.4566 23.652L90.4608 23.6601L90.4651 23.6681L91.3456 23.194ZM96.8476 19.75L95.9705 20.2303L95.9748 20.2383L95.9793 20.2461L96.8476 19.75ZM95.9936 18.854L95.4925 19.7194L95.9936 18.854ZM93.6976 18.854L94.1812 19.7292L94.19 19.7244L94.1986 19.7194L93.6976 18.854ZM92.8296 19.736L91.9613 19.2398L91.9574 19.2467L92.8296 19.736ZM92.8296 22.508L91.9478 22.9797L91.952 22.9875L91.9564 22.9954L92.8296 22.508ZM93.6976 23.432L93.1798 24.2875L93.1929 24.2954L93.2062 24.303L93.6976 23.432ZM95.9936 23.432L96.4946 24.2974L95.9936 23.432ZM96.8476 22.536L95.9743 22.0486L95.9705 22.0557L96.8476 22.536ZM91.8696 21.108C91.8696 20.473 91.9986 19.9522 92.2287 19.5192L90.4624 18.5808C90.0579 19.3424 89.8696 20.1937 89.8696 21.108H91.8696ZM92.2229 19.5298C92.4692 19.0795 92.7852 18.7534 93.1718 18.5241L92.1514 16.8039C91.4366 17.228 90.8753 17.8258 90.4682 18.5702L92.2229 19.5298ZM93.1761 18.5215C93.5738 18.2829 94.0153 18.16 94.5236 18.16V16.16C93.6692 16.16 92.8694 16.3731 92.1471 16.8065L93.1761 18.5215ZM94.5236 18.16C94.8742 18.16 95.2264 18.2368 95.5885 18.404L96.4266 16.588C95.818 16.3072 95.1809 16.16 94.5236 16.16V18.16ZM95.6095 18.4133C95.9778 18.5732 96.2287 18.7698 96.4007 18.9862L97.9664 17.7418C97.5597 17.2302 97.0267 16.8482 96.4057 16.5787L95.6095 18.4133ZM98.1836 18.364V14.64H96.1836V18.364H98.1836ZM97.1836 15.64H98.7936V13.64H97.1836V15.64ZM97.7936 14.64V25H99.7936V14.64H97.7936ZM98.7936 24H97.1836V26H98.7936V24ZM98.1836 25V23.838H96.1836V25H98.1836ZM96.3643 23.2645C96.2086 23.487 95.9762 23.6949 95.6302 23.8748L96.5529 25.6492C97.1403 25.3438 97.6358 24.9357 98.0028 24.4115L96.3643 23.2645ZM95.6228 23.8787C95.3307 24.0337 94.9688 24.126 94.5096 24.126V26.126C95.245 26.126 95.9378 25.9756 96.5603 25.6453L95.6228 23.8787ZM94.5096 24.126C94.0133 24.126 93.576 24.0045 93.1761 23.7645L92.1471 25.4795C92.8671 25.9115 93.6618 26.126 94.5096 26.126V24.126ZM93.1929 23.7748C92.7978 23.5271 92.4757 23.1836 92.226 22.7199L90.4651 23.6681C90.8688 24.4178 91.424 25.0263 92.1303 25.4692L93.1929 23.7748ZM92.2345 22.736C91.9984 22.2777 91.8696 21.7424 91.8696 21.108H89.8696C89.8696 22.0229 90.058 22.8783 90.4566 23.652L92.2345 22.736ZM98.1836 21.136C98.1836 20.4612 98.0404 19.8219 97.7158 19.2539L95.9793 20.2461C96.1027 20.4621 96.1836 20.7468 96.1836 21.136H98.1836ZM97.7247 19.2697C97.4304 18.7324 97.0216 18.2937 96.4946 17.9886L95.4925 19.7194C95.6748 19.825 95.8354 19.9836 95.9705 20.2303L97.7247 19.2697ZM96.4946 17.9886C95.9873 17.6949 95.4318 17.546 94.8456 17.546V19.546C95.0807 19.546 95.2905 19.6024 95.4925 19.7194L96.4946 17.9886ZM94.8456 17.546C94.2593 17.546 93.7038 17.6949 93.1965 17.9886L94.1986 19.7194C94.4007 19.6024 94.6105 19.546 94.8456 19.546V17.546ZM93.2139 17.9788C92.6808 18.2733 92.2656 18.7073 91.9613 19.2399L93.6978 20.2321C93.8415 19.9807 94.005 19.8267 94.1812 19.7292L93.2139 17.9788ZM91.9574 19.2467C91.6428 19.8076 91.5076 20.4409 91.5076 21.108H93.5076C93.5076 20.7111 93.587 20.4298 93.7017 20.2253L91.9574 19.2467ZM91.5076 21.108C91.5076 21.7767 91.6433 22.4105 91.9478 22.9797L93.7113 22.0363C93.5864 21.8028 93.5076 21.5033 93.5076 21.108H91.5076ZM91.9564 22.9954C92.2555 23.5313 92.661 23.9735 93.1798 24.2875L94.2154 22.5765C94.0248 22.4611 93.8516 22.2874 93.7028 22.0206L91.9564 22.9954ZM93.2062 24.303C93.7137 24.5893 94.2648 24.74 94.8456 24.74V22.74C94.6236 22.74 94.4094 22.6854 94.1889 22.561L93.2062 24.303ZM94.8456 24.74C95.4318 24.74 95.9873 24.5911 96.4946 24.2974L95.4925 22.5666C95.2905 22.6836 95.0807 22.74 94.8456 22.74V24.74ZM96.4946 24.2974C97.0216 23.9923 97.4304 23.5536 97.7247 23.0163L95.9705 22.0557C95.8354 22.3024 95.6748 22.461 95.4925 22.5666L96.4946 24.2974ZM97.7208 23.0234C98.0402 22.451 98.1836 21.8115 98.1836 21.136H96.1836C96.1836 21.5245 96.1029 21.8183 95.9744 22.0486L97.7208 23.0234ZM107.904 21.738V22.738H108.757L108.891 21.896L107.904 21.738ZM102.01 21.738V20.738H100.931L101.013 21.8135L102.01 21.738ZM102.696 23.222L102.023 23.9619L102.696 23.222ZM106.028 22.704V21.704H105.406L105.131 22.2615L106.028 22.704ZM107.75 22.704L108.7 23.0165L109.132 21.704H107.75V22.704ZM106.476 24.454L107.07 25.2584L107.072 25.2569L106.476 24.454ZM102.22 24.636L101.718 25.5008L101.726 25.5056L101.734 25.5102L102.22 24.636ZM100.848 23.236L99.9674 23.7101L99.9717 23.7182L99.9763 23.7263L100.848 23.236ZM100.834 19.05L99.9534 18.5759L99.9507 18.5808L100.834 19.05ZM102.192 17.65L101.706 16.7758L101.7 16.7792L102.192 17.65ZM106.154 17.636L106.641 16.7625V16.7625L106.154 17.636ZM107.484 18.98L106.607 19.4608L106.61 19.4669L107.484 18.98ZM106.294 20.45V21.45H107.31L107.294 20.4341L106.294 20.45ZM105.664 19.036L106.317 18.2792L105.664 19.036ZM102.724 19.036L103.385 19.7864L103.395 19.7775L102.724 19.036ZM102.024 20.45L101.032 20.326L100.891 21.45H102.024V20.45ZM106.96 20.954C106.96 21.2017 106.944 21.409 106.916 21.58L108.891 21.896C108.939 21.6004 108.96 21.285 108.96 20.954H106.96ZM107.904 20.738H102.01V22.738H107.904V20.738ZM101.013 21.8135C101.076 22.653 101.401 23.3967 102.023 23.9619L103.369 22.4821C103.169 22.3006 103.037 22.055 103.007 21.6625L101.013 21.8135ZM102.023 23.9619C102.633 24.516 103.382 24.782 104.208 24.782V22.782C103.839 22.782 103.58 22.6747 103.369 22.4821L102.023 23.9619ZM104.208 24.782C104.777 24.782 105.328 24.662 105.816 24.3729C106.309 24.0814 106.674 23.6553 106.925 23.1465L105.131 22.2615C105.028 22.4714 104.912 22.5843 104.797 22.6521C104.679 22.7224 104.497 22.782 104.208 22.782V24.782ZM106.028 23.704H107.75V21.704H106.028V23.704ZM106.8 22.3915C106.633 22.8991 106.335 23.3132 105.88 23.6511L107.072 25.2569C107.849 24.6801 108.4 23.9276 108.7 23.0165L106.8 22.3915ZM105.882 23.6496C105.479 23.9467 104.943 24.126 104.208 24.126V26.126C105.283 26.126 106.259 25.8573 107.07 25.2584L105.882 23.6496ZM104.208 24.126C103.624 24.126 103.131 23.9982 102.705 23.7618L101.734 25.5102C102.485 25.9271 103.317 26.126 104.208 26.126V24.126ZM102.722 23.7712C102.302 23.5271 101.97 23.1914 101.719 22.7457L99.9763 23.7263C100.398 24.4752 100.981 25.0729 101.718 25.5008L102.722 23.7712ZM101.728 22.7619C101.491 22.3217 101.358 21.7891 101.358 21.136H99.3578C99.3578 22.0696 99.5511 22.937 99.9674 23.7101L101.728 22.7619ZM101.358 21.136C101.358 20.4779 101.489 19.9489 101.717 19.5192L99.9507 18.5808C99.5444 19.3457 99.3578 20.2074 99.3578 21.136H101.358ZM101.714 19.5241C101.955 19.0773 102.276 18.7511 102.683 18.5208L101.7 16.7792C100.951 17.2022 100.366 17.8094 99.9534 18.5759L101.714 19.5241ZM102.677 18.5242C103.099 18.2898 103.6 18.16 104.208 18.16V16.16C103.303 16.16 102.46 16.3568 101.706 16.7758L102.677 18.5242ZM104.208 18.16C104.786 18.16 105.263 18.2845 105.667 18.5095L106.641 16.7625C105.906 16.3529 105.086 16.16 104.208 16.16V18.16ZM105.667 18.5095C106.07 18.734 106.379 19.0449 106.607 19.4608L108.361 18.4992C107.954 17.7577 107.377 17.1727 106.641 16.7625L105.667 18.5095ZM106.61 19.4669C106.833 19.8668 106.96 20.3526 106.96 20.954H108.96C108.96 20.062 108.769 19.2318 108.357 18.4931L106.61 19.4669ZM107.294 20.4341C107.28 19.5879 106.963 18.837 106.317 18.2792L105.01 19.7928C105.186 19.9443 105.289 20.1361 105.294 20.4659L107.294 20.4341ZM106.317 18.2792C105.703 17.7489 104.954 17.504 104.138 17.504V19.504C104.535 19.504 104.803 19.6138 105.01 19.7928L106.317 18.2792ZM104.138 17.504C103.351 17.504 102.637 17.766 102.053 18.2945L103.395 19.7775C103.595 19.5967 103.824 19.504 104.138 19.504V17.504ZM102.063 18.2856C101.46 18.8167 101.132 19.5257 101.032 20.326L103.016 20.574C103.065 20.1797 103.204 19.946 103.385 19.7864L102.063 18.2856ZM102.024 21.45H106.294V19.45H102.024V21.45ZM111.126 18.406H110.126V22.0411L111.986 18.9175L111.126 18.406ZM112.05 17.496L112.54 18.3682L112.547 18.3642L112.05 17.496ZM113.436 17.16H114.436V16.16H113.436V17.16ZM113.436 18.812V19.812H114.436V18.812H113.436ZM111.602 19.288L110.906 18.5707L110.9 18.5758L110.895 18.5809L111.602 19.288ZM111.126 25V26H112.126V25H111.126ZM109.53 25H108.53V26H109.53V25ZM109.53 17.286V16.286H108.53V17.286H109.53ZM111.126 17.286H112.126V16.286H111.126V17.286ZM111.986 18.9175C112.133 18.6698 112.316 18.4936 112.54 18.3681L111.561 16.6239C111.02 16.9277 110.586 17.3582 110.267 17.8945L111.986 18.9175ZM112.547 18.3642C112.763 18.2409 113.047 18.16 113.436 18.16V16.16C112.762 16.16 112.122 16.3031 111.554 16.6278L112.547 18.3642ZM112.436 17.16V18.812H114.436V17.16H112.436ZM113.436 17.812H113.03V19.812H113.436V17.812ZM113.03 17.812C112.244 17.812 111.48 18.0133 110.906 18.5707L112.299 20.0053C112.379 19.9281 112.567 19.812 113.03 19.812V17.812ZM110.895 18.5809C110.292 19.1845 110.126 20.0742 110.126 20.94H112.126C112.126 20.2378 112.279 20.0262 112.31 19.9951L110.895 18.5809ZM110.126 20.94V25H112.126V20.94H110.126ZM111.126 24H109.53V26H111.126V24ZM110.53 25V17.286H108.53V25H110.53ZM109.53 18.286H111.126V16.286H109.53V18.286ZM110.126 17.286V18.406H112.126V17.286H110.126Z" fill="white"/>
</svg>
