<svg width="21" height="20" viewBox="0 0 21 20" fill="none" xmlns="http://www.w3.org/2000/svg">
<path d="M0.672989 11.1678C0.942743 10.9911 1.26337 10.9085 1.58495 10.9329C1.90653 10.9573 2.21101 11.0874 2.45099 11.3028C3.04099 11.8268 5.16499 13.5358 7.66199 13.5548C8.03057 13.5582 8.39841 13.5213 8.75899 13.4448C9.90864 13.1995 10.9628 12.627 11.7946 11.7963C12.6264 10.9656 13.2002 9.91216 13.447 8.76283C13.5213 8.41274 13.5578 8.0557 13.556 7.69783C13.549 6.03083 12.689 4.07983 11.256 2.48183C10.805 1.97783 10.746 1.25783 11.11 0.687826C11.2829 0.412628 11.5422 0.202508 11.8473 0.0903286C12.1523 -0.0218512 12.486 -0.0297646 12.796 0.0678259C14.832 0.688334 16.6212 1.93383 17.91 3.62783C19.2329 5.34955 19.9658 7.45179 20 9.62283C20.0275 11.0158 19.7657 12.3993 19.231 13.6858C18.7167 14.9283 17.9615 16.0567 17.009 17.0058C16.05 17.9648 14.932 18.7128 13.687 19.2298C12.3987 19.7645 11.0135 20.026 9.61899 19.9978C7.93199 19.9723 6.27867 19.5218 4.81199 18.6878C4.72269 18.6374 4.6442 18.5699 4.58099 18.4891C4.51779 18.4084 4.47111 18.3159 4.44363 18.2171C4.41614 18.1183 4.40838 18.0151 4.4208 17.9133C4.43322 17.8115 4.46556 17.7131 4.51599 17.6238C4.56642 17.5345 4.63394 17.456 4.7147 17.3928C4.79546 17.3296 4.88788 17.283 4.98668 17.2555C5.08549 17.228 5.18873 17.2202 5.29053 17.2326C5.39233 17.2451 5.49069 17.2774 5.57999 17.3278C6.82087 18.0334 8.2197 18.4145 9.64699 18.4358C10.8072 18.4596 11.9602 18.2472 13.0358 17.8116C14.1114 17.376 15.0872 16.7262 15.904 15.9018C16.7278 15.0861 17.3771 14.1115 17.8126 13.037C18.248 11.9626 18.4604 10.8109 18.437 9.65183C18.4084 7.87835 17.8323 6.15706 16.7876 4.72369C15.7429 3.29031 14.2806 2.21494 12.601 1.64483C13.478 2.67283 15.108 4.95283 15.119 7.69083C15.121 8.16583 15.073 8.63483 14.976 9.08783C14.6661 10.5318 13.9435 11.8547 12.896 12.8958C11.8533 13.9415 10.5299 14.6626 9.08599 14.9718C8.62299 15.0708 8.13999 15.1188 7.65199 15.1158C6.51699 15.1078 5.33999 14.8238 4.15199 14.2708C3.26028 13.8519 2.42584 13.3206 1.66899 12.6898C1.93868 13.4508 2.31438 14.1699 2.78499 14.8258C2.90566 14.9942 2.95449 15.2037 2.92073 15.4081C2.88698 15.6125 2.7734 15.7952 2.60499 15.9158C2.43657 16.0365 2.22712 16.0853 2.02271 16.0516C1.81829 16.0178 1.63566 15.9042 1.51499 15.7358C0.880346 14.8513 0.392111 13.8704 0.0689888 12.8308C-0.02812 12.5256 -0.0214291 12.1968 0.0880203 11.8958C0.19747 11.5947 0.403515 11.3384 0.673988 11.1668L0.672989 11.1678Z" fill="white"/>
</svg>
