<svg width="25" height="21" viewBox="0 0 25 21" fill="none" xmlns="http://www.w3.org/2000/svg">
<path d="M22.8886 18.0853H2.15881C1.78224 18.0881 1.41127 18.0136 1.08269 17.8692C0.754119 17.7249 0.479348 17.5157 0.285629 17.2623C0.0984268 17.004 0 16.712 0 16.4149C0 16.1177 0.0984268 15.8257 0.285629 15.5674L2.471 12.1973C2.48224 12.1586 2.48224 12.1184 2.471 12.0797V7.8376C2.471 5.75894 3.52355 3.76541 5.39709 2.29558C7.27063 0.825744 9.81169 0 12.4613 0C15.1109 0 17.6519 0.825744 19.5255 2.29558C21.399 3.76541 22.4516 5.75894 22.4516 7.8376V12.0993C22.4403 12.138 22.4403 12.1782 22.4516 12.2169L24.7368 15.587C24.917 15.8475 25.0075 16.1402 24.9995 16.4365C24.9915 16.7327 24.8851 17.0222 24.691 17.2764C24.4968 17.5306 24.2216 17.7407 23.8924 17.886C23.5632 18.0312 23.1914 18.1067 22.8137 18.1048L22.8886 18.0853ZM12.5237 1.43036C11.4552 1.43163 10.3975 1.59865 9.41157 1.92182C8.42563 2.24499 7.53087 2.71792 6.77879 3.31341C6.02671 3.9089 5.43215 4.61518 5.02933 5.39162C4.6265 6.16806 4.42336 6.99933 4.43159 7.8376V12.0993C4.43357 12.3803 4.34325 12.657 4.16935 12.9026L1.88407 16.263C1.85505 16.298 1.83961 16.3388 1.83961 16.3806C1.83961 16.4223 1.85505 16.4632 1.88407 16.4981C1.90837 16.5357 1.94615 16.5668 1.99276 16.5877C2.03936 16.6086 2.09275 16.6183 2.14632 16.6157H22.8761C22.9297 16.6183 22.9831 16.6086 23.0297 16.5877C23.0763 16.5668 23.1141 16.5357 23.1384 16.4981C23.1674 16.4632 23.1829 16.4223 23.1829 16.3806C23.1829 16.3388 23.1674 16.298 23.1384 16.263L20.8531 12.883C20.6792 12.6374 20.5889 12.3607 20.5909 12.0797V7.8376C20.5942 6.15467 19.7469 4.53935 18.2348 3.34567C16.7226 2.15199 14.6689 1.47733 12.5237 1.46955V1.43036Z" fill="#25396F"/>
<path d="M12.494 20.6913C11.289 20.6889 10.1344 20.3245 9.28339 19.678C8.43242 19.0316 7.95454 18.1558 7.95455 17.2427H9.75591C9.73105 17.5273 9.78357 17.8128 9.91022 18.0814C10.0369 18.35 10.235 18.596 10.4922 18.8043C10.7495 19.0125 11.0604 19.1785 11.4057 19.292C11.7511 19.4055 12.1236 19.464 12.5 19.464C12.8764 19.464 13.2489 19.4055 13.5943 19.292C13.9396 19.1785 14.2505 19.0125 14.5078 18.8043C14.765 18.596 14.9631 18.35 15.0898 18.0814C15.2164 17.8128 15.2689 17.5273 15.2441 17.2427H17.0455C17.0455 18.1574 16.5659 19.0345 15.7124 19.6812C14.8588 20.328 13.7011 20.6913 12.494 20.6913Z" fill="#25396F"/>
</svg>
