<svg width="64" height="15" viewBox="0 0 64 15" fill="none" xmlns="http://www.w3.org/2000/svg">
<path d="M62.2526 3.73827C62.2634 3.90232 62.2634 4.06641 62.2634 4.23047C62.2634 9.23435 58.7577 15 52.3503 15C50.3763 15 48.5425 14.3789 47 13.3008C47.2805 13.3359 47.5501 13.3477 47.8414 13.3477C49.4702 13.3477 50.9695 12.75 52.1669 11.7305C50.6352 11.6953 49.3515 10.6055 48.9093 9.10547C49.125 9.1406 49.3407 9.16405 49.5673 9.16405C49.8801 9.16405 50.1929 9.11715 50.4842 9.03516C48.8877 8.68357 47.6903 7.16015 47.6903 5.32031V5.27345C48.1541 5.5547 48.6935 5.73048 49.2652 5.75389C48.3267 5.07419 47.7119 3.91405 47.7119 2.60154C47.7119 1.89842 47.8845 1.25389 48.1865 0.691389C49.9016 2.98826 52.4797 4.48824 55.3705 4.65233C55.3166 4.37108 55.2842 4.07814 55.2842 3.78516C55.2842 1.6992 56.8376 0 58.7684 0C59.7716 0 60.6776 0.45703 61.3141 1.19531C62.1015 1.03126 62.8566 0.714835 63.5254 0.281252C63.2665 1.16018 62.7164 1.89846 61.9937 2.36718C62.6948 2.28519 63.3744 2.0742 64 1.78126C63.5255 2.53123 62.9322 3.19917 62.2526 3.73827Z" fill="#56C7CE"/>
<path d="M7.37607 8.29918L7.78539 5.68025H5.22615V3.98074C5.22615 3.26425 5.58365 2.56585 6.72986 2.56585H7.89333V0.336112C7.89333 0.336112 6.83751 0.15918 5.82803 0.15918C3.72042 0.15918 2.34278 1.41353 2.34278 3.68425V5.68025H0V8.29918H2.34278V14.6303H5.22615V8.29918H7.37607Z" fill="#5856CE"/>
</svg>
