<svg width="19" height="20" viewBox="0 0 19 20" fill="none" xmlns="http://www.w3.org/2000/svg">
<path d="M16.59 3.85L10.65 0.42C9.68 -0.14 8.48 -0.14 7.5 0.42L1.57 3.85C0.6 4.41 0 5.45 0 6.58V13.42C0 14.54 0.6 15.58 1.57 16.15L7.51 19.58C8.48 20.14 9.68 20.14 10.66 19.58L16.6 16.15C17.57 15.59 18.17 14.55 18.17 13.42V6.58C18.16 5.45 17.56 4.42 16.59 3.85ZM9.08 5.34C10.37 5.34 11.41 6.38 11.41 7.67C11.41 8.96 10.37 10 9.08 10C7.79 10 6.75 8.96 6.75 7.67C6.75 6.39 7.79 5.34 9.08 5.34ZM11.76 14.66H6.4C5.59 14.66 5.12 13.76 5.57 13.09C6.25 12.08 7.57 11.4 9.08 11.4C10.59 11.4 11.91 12.08 12.59 13.09C13.04 13.75 12.56 14.66 11.76 14.66Z" fill="#B0B0B0"/>
</svg>
