<svg width="10" height="13" viewBox="0 0 10 13" fill="none" xmlns="http://www.w3.org/2000/svg">
<mask id="mask0_0_70" style="mask-type:luminance" maskUnits="userSpaceOnUse" x="-3" y="-2" width="16" height="16">
<rect x="-2.5" y="-1.25" width="15" height="15" fill="white"/>
</mask>
<g mask="url(#mask0_0_70)">
<path fill-rule="evenodd" clip-rule="evenodd" d="M4.63755 12.3844C4.7463 12.4612 4.87318 12.5 5.00005 12.5C5.12693 12.5 5.2538 12.4612 5.36255 12.3844C5.55256 12.2487 10.0182 9.025 10.0001 5C10.0001 2.24313 7.75693 0 5.00005 0C2.24318 0 5.50237e-05 2.24313 5.50237e-05 4.9975C-0.01807 9.025 4.44756 12.2487 4.63755 12.3844ZM5.00005 1.25C7.06818 1.25 8.75005 2.93187 8.75005 5.0025C8.76318 7.77625 6.00755 10.2669 5.00005 11.0844C3.99318 10.2669 1.23693 7.77625 1.25005 5C1.25005 2.93187 2.93193 1.25 5.00005 1.25Z" fill="#8F9198"/>
<path fill-rule="evenodd" clip-rule="evenodd" d="M4.375 7.5H5.625V5.625H7.5V4.375H5.625V2.5H4.375V4.375H2.5V5.625H4.375V7.5Z" fill="#8F9198"/>
</g>
</svg>
