<svg width="16" height="16" viewBox="0 0 16 16" fill="none" xmlns="http://www.w3.org/2000/svg">
<path d="M8.24047 8.77563L8.00441 8.77665C7.02332 8.77665 6.12888 8.71919 5.5458 8.63265L5.18322 8.55683C4.99119 8.51465 4.77254 8.45919 4.66091 8.40138C4.25262 8.18974 4 7.77593 4 7.33303V7.29448C4.00955 7.00576 4.2629 6.39922 4.27171 6.39922C4.68122 5.42323 5.91715 3.54031 6.79826 2.67066L7.06279 2.41795C7.13449 2.35178 7.21934 2.27743 7.28548 2.23127C7.48963 2.07709 7.74224 2 7.99486 2C8.27685 2 8.53901 2.08654 8.75344 2.25018L9.03365 2.50982L9.09345 2.56799C9.94896 3.35707 11.3479 5.41741 11.776 6.49522L11.8384 6.65794C11.9086 6.85376 11.9923 7.12812 12 7.29448C12 7.50612 11.9508 7.70829 11.8539 7.90102C11.718 8.14174 11.5036 8.33374 11.251 8.43992C11.0762 8.50756 10.5511 8.61374 10.5416 8.61374C10.0122 8.71108 9.17679 8.76752 8.24047 8.77563ZM7.99971 14C7.44087 14 6.98777 13.5513 6.98777 12.9978L7.20587 10.5317C7.20587 10.0975 7.5613 9.74551 7.99971 9.74551C8.43885 9.74551 8.79354 10.0975 8.79354 10.5317L9.01164 12.9978C9.01164 13.5513 8.55855 14 7.99971 14Z" fill="white"/>
</svg>
