<svg width="20" height="20" viewBox="0 0 20 20" fill="none" xmlns="http://www.w3.org/2000/svg">
<g clip-path="url(#clip0_12_19591)">
<path d="M9.65 9.65V6.25H11.35V9.65H14.75V11.35H11.35V14.75H9.65V11.35H6.25V9.65H9.65ZM10.5 19C5.80545 19 2 15.1946 2 10.5C2 5.80545 5.80545 2 10.5 2C15.1946 2 19 5.80545 19 10.5C19 15.1946 15.1946 19 10.5 19ZM10.5 17.3C12.3035 17.3 14.0331 16.5836 15.3083 15.3083C16.5836 14.0331 17.3 12.3035 17.3 10.5C17.3 8.69653 16.5836 6.96692 15.3083 5.69167C14.0331 4.41643 12.3035 3.7 10.5 3.7C8.69653 3.7 6.96692 4.41643 5.69167 5.69167C4.41643 6.96692 3.7 8.69653 3.7 10.5C3.7 12.3035 4.41643 14.0331 5.69167 15.3083C6.96692 16.5836 8.69653 17.3 10.5 17.3Z" fill="#9197A4"/>
</g>
<defs>
<clipPath id="clip0_12_19591">
<rect width="20" height="20" fill="white"/>
</clipPath>
</defs>
</svg>
