<svg width="15" height="14" viewBox="0 0 15 14" fill="none" xmlns="http://www.w3.org/2000/svg">
<path fill-rule="evenodd" clip-rule="evenodd" d="M3.5286 0.21967C3.38556 0.360323 3.3052 0.551089 3.3052 0.750002V2.75001C3.3052 2.94892 3.38556 3.13969 3.5286 3.28034C3.67164 3.42099 3.86565 3.50001 4.06794 3.50001C4.27023 3.50001 4.46424 3.42099 4.60728 3.28034C4.75032 3.13969 4.83068 2.94892 4.83068 2.75001V0.750002C4.83068 0.551089 4.75032 0.360323 4.60728 0.21967C4.46424 0.0790178 4.27023 0 4.06794 0C3.86565 0 3.67164 0.0790178 3.5286 0.21967ZM7.11889 2.75001C7.11889 2.94892 7.03853 3.13969 6.89549 3.28034C6.75245 3.42099 6.55844 3.50001 6.35615 3.50001C6.15386 3.50001 5.95986 3.42099 5.81682 3.28034C5.67378 3.13969 5.59342 2.94892 5.59342 2.75001V0.750002C5.59342 0.551089 5.67378 0.360323 5.81682 0.21967C5.95986 0.0790178 6.15386 0 6.35615 0C6.55844 0 6.75245 0.0790178 6.89549 0.21967C7.03853 0.360323 7.11889 0.551089 7.11889 0.750002V2.75001ZM9.18371 3.28034C9.32675 3.13969 9.40711 2.94892 9.40711 2.75001V0.750002C9.40711 0.551089 9.32675 0.360323 9.18371 0.21967C9.04067 0.0790178 8.84666 0 8.64437 0C8.44208 0 8.24807 0.0790178 8.10503 0.21967C7.96199 0.360323 7.88163 0.551089 7.88163 0.750002V2.75001C7.88163 2.94892 7.96199 3.13969 8.10503 3.28034C8.24807 3.42099 8.44208 3.50001 8.64437 3.50001C8.84666 3.50001 9.04067 3.42099 9.18371 3.28034ZM14.2083 9.16531C14.7155 8.65236 14.9996 7.96542 15.0005 7.25002V6.75002C14.9997 6.02092 14.7048 5.32193 14.1805 4.80638C13.6562 4.29083 12.9453 4.00084 12.2038 4.00001H0.762739C0.560448 4.00001 0.366442 4.07903 0.223401 4.21968C0.0803597 4.36033 0 4.5511 0 4.75001V7.75002C0.00237661 9.32639 0.608973 10.8439 1.69881 12H0.762739C0.560448 12 0.366442 12.079 0.223401 12.2197C0.0803597 12.3604 0 12.5511 0 12.75C0 12.9489 0.0803597 13.1397 0.223401 13.2804C0.366442 13.421 0.560448 13.5 0.762739 13.5H8.6771L8.68274 13.5002L8.6895 13.5005L8.69189 13.5004C8.69249 13.5003 8.69308 13.5003 8.69368 13.5003C8.69508 13.5001 8.69649 13.5 8.69789 13.5H11.9496C12.1519 13.5 12.3459 13.421 12.4889 13.2804C12.6319 13.1397 12.7123 12.9489 12.7123 12.75C12.7123 12.5511 12.6319 12.3604 12.4889 12.2197C12.3459 12.079 12.1519 12 11.9496 12H11.0135C11.5614 11.4174 11.9924 10.7381 12.2836 9.99802C13.0109 9.97693 13.7012 9.67826 14.2083 9.16531ZM10.0688 10.7856C10.4959 10.2798 10.8121 9.69277 10.9975 9.06121L10.9987 9.0567C11.002 9.04396 11.0053 9.03125 11.0094 9.0189C11.1269 8.60582 11.1866 8.17894 11.1868 7.75002V5.50001H1.52548V7.75002C1.52724 8.63208 1.77786 9.49636 2.24945 10.2467C2.72105 10.997 3.39511 11.604 4.19665 12H8.51572C9.11299 11.7048 9.64176 11.2913 10.0688 10.7856ZM12.7123 5.60514C12.9388 5.70251 13.1315 5.86263 13.267 6.06594C13.4024 6.26926 13.4747 6.50696 13.475 6.75002V7.25002C13.4747 7.49958 13.3984 7.74333 13.2561 7.94995C13.1137 8.15657 12.9118 8.31661 12.6763 8.40952C12.7002 8.19047 12.7122 7.97033 12.7123 7.75002V5.60514Z" fill="#BABBC3"/>
</svg>
