<svg width="120" height="1024" viewBox="0 0 120 1024" fill="none" xmlns="http://www.w3.org/2000/svg">
<g filter="url(#filter0_d_37_42441)">
<rect width="120" height="1024" fill="#2D3843"/>
</g>
<rect x="24" y="36" width="72" height="72" rx="36" fill="#00B3D6"/>
<path d="M74.4135 80.6906C75.2776 79.0778 75.7353 77.2785 75.7468 75.4488C75.7584 73.6191 75.3235 71.8142 74.4798 70.1905C73.6361 68.5669 72.4091 67.1736 70.9052 66.1313C69.4014 65.0891 67.6659 64.4294 65.8495 64.2094C65.2514 62.8145 64.3772 61.5549 63.2796 60.5067C62.182 59.4585 60.8836 58.6432 59.4626 58.1099C58.0416 57.5766 56.5274 57.3364 55.0111 57.4036C53.4949 57.4709 52.0079 57.8443 50.6397 58.5013C49.2715 59.1584 48.0505 60.0854 47.05 61.2268C46.0495 62.3681 45.2903 63.7001 44.8181 65.1425C44.3459 66.5849 44.1704 68.108 44.3023 69.62C44.4342 71.132 44.8706 72.6017 45.5854 73.9407L44.7135 76.9781C44.6125 77.316 44.6047 77.675 44.6911 78.0169C44.7774 78.3588 44.9547 78.671 45.2041 78.9204C45.4535 79.1698 45.7657 79.347 46.1076 79.4334C46.4495 79.5198 46.8085 79.512 47.1463 79.411L50.1838 78.5391C51.4175 79.1967 52.7619 79.621 54.1495 79.7906C54.7624 81.2271 55.6677 82.5202 56.8077 83.5876C57.9477 84.655 59.2975 85.4734 60.7711 85.9906C62.2447 86.5079 63.8099 86.7126 65.3669 86.5918C66.924 86.471 68.4389 86.0274 69.8151 85.2891L72.8526 86.161C73.1905 86.262 73.5494 86.2698 73.8913 86.1834C74.2333 86.097 74.5455 85.9198 74.7949 85.6704C75.0442 85.421 75.2215 85.1088 75.3079 84.7669C75.3942 84.425 75.3865 84.066 75.2854 83.7281L74.4135 80.6906ZM72.2479 79.9735C72.1661 80.1014 72.1124 80.2454 72.0906 80.3958C72.0688 80.5461 72.0793 80.6994 72.1213 80.8453L72.9932 83.8688L69.9838 82.9969C69.8357 82.9536 69.68 82.9425 69.5272 82.9644C69.3744 82.9862 69.228 83.0404 69.0979 83.1235C68.067 83.7317 66.9254 84.1289 65.7396 84.292C64.5538 84.455 63.3474 84.3806 62.1906 84.073C61.0338 83.7655 59.9497 83.231 59.0014 82.5007C58.053 81.7703 57.2594 80.8587 56.6667 79.8188C59.4316 79.5241 61.9902 78.2184 63.8512 76.1523C65.7122 74.0863 66.7443 71.4056 66.7495 68.625C66.7457 67.9507 66.6845 67.278 66.5667 66.6141C68.5402 67.0798 70.2987 68.1984 71.557 69.7886C72.8154 71.3787 73.4998 73.3472 73.4995 75.375C73.4976 76.9917 73.0656 78.5788 72.2479 79.9735Z" fill="white"/>
<rect x="32" y="254" width="56" height="56" rx="28" fill="#00B3D6"/>
<path d="M72 280.437V292C71.9991 292.361 71.9012 292.715 71.7165 293.025C71.5317 293.335 71.267 293.59 70.95 293.762C70.6593 293.923 70.3319 294.005 70 294H64C63.7348 294 63.4805 293.895 63.2929 293.707C63.1054 293.52 63 293.265 63 293V287C63 286.735 62.8947 286.48 62.7071 286.293C62.5196 286.105 62.2652 286 62 286H58C57.7348 286 57.4805 286.105 57.2929 286.293C57.1054 286.48 57 286.735 57 287V293C57 293.265 56.8947 293.52 56.7071 293.707C56.5196 293.895 56.2652 294 56 294H50C49.7163 294.001 49.4356 293.941 49.1769 293.825C48.9182 293.708 48.6874 293.538 48.5 293.325C48.1749 292.941 47.9976 292.453 48 291.95V280.437C48.0001 280.16 48.0579 279.886 48.1699 279.632C48.2818 279.378 48.4453 279.15 48.65 278.962L58.65 269.875C59.0187 269.538 59.5003 269.351 60 269.351C60.4997 269.351 60.9813 269.538 61.35 269.875L71.35 278.962C71.5548 279.15 71.7183 279.378 71.8302 279.632C71.9421 279.886 71.9999 280.16 72 280.437Z" fill="white"/>
<path d="M72.9876 396.5C71.1217 393.286 68.135 390.873 64.6001 389.725C66.2944 388.717 67.6111 387.181 68.3479 385.353C69.0846 383.525 69.2007 381.505 68.6782 379.604C68.1558 377.703 67.0237 376.026 65.4559 374.831C63.8881 373.636 61.9714 372.989 60.0001 372.989C58.0288 372.989 56.112 373.636 54.5443 374.831C52.9765 376.026 51.8444 377.703 51.3219 379.604C50.7995 381.505 50.9155 383.525 51.6523 385.353C52.389 387.181 53.7057 388.717 55.4001 389.725C51.8652 390.873 48.8785 393.286 47.0126 396.5C46.9343 396.613 46.8804 396.742 46.8542 396.877C46.828 397.013 46.83 397.152 46.8603 397.287C46.8905 397.421 46.9482 397.548 47.0298 397.659C47.1114 397.77 47.2151 397.863 47.3344 397.933C47.4537 398.002 47.586 398.045 47.723 398.061C47.8601 398.077 47.9988 398.064 48.1306 398.023C48.2624 397.982 48.3843 397.915 48.4888 397.825C48.5932 397.735 48.678 397.624 48.7376 397.5C49.8806 395.525 51.5228 393.885 53.4996 392.745C55.4764 391.605 57.7182 391.005 60.0001 391.005C62.282 391.005 64.5238 391.605 66.5006 392.745C68.4774 393.885 70.1196 395.525 71.2626 397.5C71.3222 397.624 71.4069 397.735 71.5114 397.825C71.6158 397.915 71.7378 397.982 71.8696 398.023C72.0014 398.064 72.1401 398.077 72.2771 398.061C72.4141 398.045 72.5465 398.002 72.6658 397.933C72.7851 397.863 72.8888 397.77 72.9704 397.659C73.052 397.548 73.1097 397.421 73.1399 397.287C73.1701 397.152 73.1722 397.013 73.146 396.877C73.1198 396.742 73.0658 396.613 72.9876 396.5ZM53.0001 382C53.0001 380.615 53.4106 379.262 54.1798 378.111C54.949 376.96 56.0422 376.063 57.3213 375.533C58.6004 375.003 60.0079 374.864 61.3657 375.134C62.7236 375.404 63.9709 376.071 64.9498 377.05C65.9288 378.029 66.5955 379.276 66.8656 380.634C67.1357 381.992 66.9971 383.4 66.4672 384.679C65.9374 385.958 65.0402 387.051 63.8891 387.82C62.7379 388.589 61.3846 389 60.0001 389C58.1436 389 56.3631 388.262 55.0503 386.95C53.7376 385.637 53.0001 383.856 53.0001 382Z" fill="#ADB0C3"/>
<path d="M60.0117 465C57.4406 465 54.9271 465.762 52.7893 467.191C50.6515 468.619 48.9852 470.65 48.0013 473.025C47.0174 475.401 46.7599 478.014 47.2615 480.536C47.7631 483.058 49.0013 485.374 50.8193 487.192C52.6374 489.01 54.9538 490.249 57.4755 490.75C59.9973 491.252 62.6112 490.994 64.9866 490.01C67.362 489.026 69.3924 487.36 70.8208 485.222C72.2493 483.085 73.0117 480.571 73.0117 478C73.0051 474.554 71.6334 471.251 69.1968 468.815C66.7603 466.378 63.4575 465.007 60.0117 465ZM60.0117 489C57.8361 489 55.7094 488.355 53.9005 487.146C52.0915 485.937 50.6816 484.22 49.849 482.21C49.0165 480.2 48.7986 477.988 49.2231 475.854C49.6475 473.72 50.6952 471.76 52.2335 470.222C53.7719 468.683 55.7319 467.636 57.8657 467.211C59.9995 466.787 62.2113 467.005 64.2212 467.837C66.2312 468.67 67.9492 470.08 69.1579 471.889C70.3666 473.698 71.0117 475.824 71.0117 478C71.0084 480.916 69.8484 483.712 67.7862 485.775C65.7241 487.837 62.9281 488.997 60.0117 489ZM65.2367 471.438L57.4742 474.962C57.2492 475.071 57.0714 475.257 56.9742 475.488L53.7867 482.913C53.7083 483.096 53.6866 483.299 53.7245 483.495C53.7623 483.691 53.858 483.871 53.9992 484.013C54.1912 484.196 54.4462 484.299 54.7117 484.3C54.8444 484.299 54.9759 484.274 55.0992 484.225L62.5242 481.038C62.7543 480.94 62.941 480.763 63.0492 480.538L66.5617 472.762C66.6393 472.577 66.66 472.373 66.6212 472.176C66.5824 471.979 66.4858 471.798 66.3437 471.655C66.2017 471.513 66.0205 471.417 65.8234 471.378C65.6263 471.339 65.422 471.36 65.2367 471.438ZM61.3867 479.35L56.6117 481.4L58.6617 476.625L63.6367 474.363L61.3867 479.35Z" fill="#ADB0C3"/>
<path d="M67.4121 583C67.0259 582.998 66.6484 582.886 66.3246 582.675L60.0121 578.688H59.9871L54.1246 582.4C53.7458 582.639 53.3044 582.76 52.8569 582.746C52.4093 582.733 51.9758 582.586 51.6121 582.325C51.2386 582.051 50.9557 581.671 50.7998 581.234C50.6439 580.798 50.622 580.324 50.7371 579.875L52.4246 573.238C52.4299 573.22 52.4303 573.202 52.4259 573.184C52.4215 573.167 52.4124 573.151 52.3996 573.138L46.7496 568.438C46.4276 568.169 46.1936 567.809 46.0777 567.406C45.9619 567.003 45.9695 566.574 46.0996 566.175C46.2247 565.781 46.4659 565.435 46.7916 565.18C47.1173 564.926 47.5122 564.776 47.9246 564.75L55.2996 564.275C55.3104 564.274 55.3208 564.27 55.3296 564.263C55.3384 564.257 55.3452 564.248 55.3496 564.238L58.0996 557.3C58.248 556.917 58.5089 556.587 58.848 556.355C59.1871 556.123 59.5885 555.999 59.9996 555.999C60.4106 555.999 60.812 556.123 61.1511 556.355C61.4902 556.587 61.7511 556.917 61.8996 557.3L64.6496 564.238C64.6539 564.248 64.6608 564.257 64.6695 564.263C64.6783 564.27 64.6887 564.274 64.6996 564.275L72.0746 564.75C72.4869 564.776 72.8818 564.926 73.2075 565.18C73.5332 565.435 73.7744 565.781 73.8996 566.175C74.0296 566.574 74.0372 567.003 73.9214 567.406C73.8055 567.809 73.5715 568.169 73.2496 568.438L67.5996 573.138C67.5867 573.151 67.5776 573.167 67.5732 573.184C67.5688 573.202 67.5693 573.22 67.5746 573.238L69.3871 580.4C69.4947 580.805 69.477 581.234 69.3364 581.629C69.1959 582.024 68.939 582.367 68.5996 582.613C68.2522 582.859 67.838 582.995 67.4121 583ZM59.9996 576.688C60.3846 576.685 60.7622 576.794 61.0871 577L67.3871 580.988H67.4121C67.4281 580.979 67.4412 580.966 67.4496 580.95C67.4621 580.938 67.4621 580.925 67.4496 580.875L65.6371 573.713C65.5387 573.331 65.5499 572.929 65.6692 572.553C65.7886 572.177 66.0114 571.843 66.3121 571.588L71.9746 566.888C71.9871 566.875 72.0121 566.85 71.9871 566.788C71.9621 566.725 71.9621 566.738 71.9496 566.738L64.5621 566.263C64.1754 566.235 63.8046 566.098 63.4927 565.868C63.1807 565.638 62.9404 565.324 62.7996 564.963L60.0371 558.038C60.0246 558 60.0121 558 59.9996 558C59.9871 558 59.9746 558 59.9621 558.038L57.1996 564.975C57.0587 565.336 56.8184 565.65 56.5065 565.88C56.1945 566.11 55.8237 566.247 55.4371 566.275L48.0496 566.75C48.0371 566.75 48.0246 566.75 48.0121 566.8C47.9996 566.85 48.0121 566.888 48.0246 566.9L53.6871 571.6C53.9877 571.855 54.2105 572.19 54.3299 572.566C54.4492 572.942 54.4604 573.343 54.3621 573.725L52.6746 580.375C52.6595 580.434 52.6621 580.497 52.6821 580.555C52.7021 580.612 52.7386 580.663 52.7871 580.7C52.8219 580.734 52.8677 580.753 52.916 580.756C52.9642 580.758 53.0117 580.743 53.0496 580.713L58.9121 577C59.2369 576.794 59.6145 576.685 59.9996 576.688Z" fill="#ADB0C3"/>
<path d="M60.9995 656V661.425L65.6995 664.138C65.8884 664.248 66.0357 664.418 66.1187 664.621C66.2018 664.823 66.216 665.048 66.1592 665.259C66.1025 665.471 65.9778 665.658 65.8044 665.792C65.631 665.925 65.4185 665.999 65.1995 666C65.0228 666.005 64.8487 665.957 64.6995 665.863L59.4995 662.863H59.4745L59.4245 662.825L59.387 662.8L59.3495 662.775L59.312 662.738L59.287 662.713C59.262 662.7 59.2495 662.675 59.237 662.663L59.212 662.638L59.187 662.588L59.162 662.55L59.137 662.513C59.1292 662.507 59.1229 662.499 59.1186 662.49C59.1142 662.482 59.112 662.472 59.112 662.463L59.087 662.425C59.087 662.413 59.0745 662.4 59.0745 662.375C59.0699 662.37 59.0665 662.364 59.0644 662.358C59.0622 662.351 59.0614 662.344 59.062 662.338L59.037 662.288C59.0375 662.281 59.0367 662.274 59.0346 662.267C59.0324 662.261 59.029 662.255 59.0245 662.25C59.0245 662.225 59.0245 662.213 59.012 662.2V662.15C59.012 662.125 58.9995 662.113 58.9995 662.1V656C58.9995 655.735 59.1048 655.48 59.2924 655.293C59.4799 655.105 59.7342 655 59.9995 655C60.2647 655 60.519 655.105 60.7066 655.293C60.8941 655.48 60.9995 655.735 60.9995 656ZM72.8495 659.025C72.862 659 72.8745 658.988 72.8745 658.975L72.8995 658.938C72.912 658.925 72.912 658.9 72.9245 658.888L72.9495 658.85C72.9476 658.832 72.952 658.815 72.962 658.8C72.962 658.788 72.9745 658.775 72.9745 658.75C72.979 658.745 72.9824 658.739 72.9846 658.733C72.9867 658.726 72.9875 658.719 72.987 658.713C72.987 658.688 72.9995 658.675 72.9995 658.663C72.9995 658.65 73.012 658.625 73.012 658.613V658.563C73.0223 658.53 73.0265 658.496 73.0245 658.463V653.463C73.0245 653.197 72.9191 652.943 72.7316 652.755C72.544 652.568 72.2897 652.463 72.0245 652.463C71.7592 652.463 71.5049 652.568 71.3174 652.755C71.1298 652.943 71.0245 653.197 71.0245 653.463V656.05L68.487 653.513C66.8085 651.835 64.6703 650.693 62.3427 650.23C60.0151 649.768 57.6026 650.006 55.4103 650.914C53.2179 651.822 51.3441 653.361 50.0258 655.334C48.7075 657.307 48.0039 659.627 48.0039 662C48.0039 664.373 48.7075 666.693 50.0258 668.666C51.3441 670.639 53.2179 672.178 55.4103 673.086C57.6026 673.994 60.0151 674.232 62.3427 673.77C64.6703 673.307 66.8085 672.165 68.487 670.488C68.674 670.3 68.779 670.046 68.779 669.781C68.779 669.516 68.674 669.262 68.487 669.075C68.395 668.981 68.2851 668.906 68.1639 668.855C68.0426 668.804 67.9123 668.778 67.7807 668.778C67.6491 668.778 67.5189 668.804 67.3976 668.855C67.2763 668.906 67.1664 668.981 67.0745 669.075C65.6755 670.472 63.8936 671.424 61.9541 671.809C60.0146 672.194 58.0045 671.995 56.1779 671.238C54.3513 670.481 52.7902 669.199 51.6919 667.555C50.5935 665.91 50.0073 663.977 50.0073 662C50.0073 660.023 50.5935 658.09 51.6919 656.445C52.7902 654.801 54.3513 653.519 56.1779 652.762C58.0045 652.005 60.0146 651.806 61.9541 652.191C63.8936 652.576 65.6755 653.528 67.0745 654.925L69.612 657.463H67.0245C66.7592 657.463 66.5049 657.568 66.3174 657.755C66.1298 657.943 66.0245 658.197 66.0245 658.463C66.0245 658.728 66.1298 658.982 66.3174 659.17C66.5049 659.357 66.7592 659.463 67.0245 659.463H72.312L72.362 659.438H72.3995L72.4495 659.413H72.487L72.537 659.388L72.5745 659.363L72.6245 659.325L72.6495 659.3L72.7995 659.163L72.8245 659.125L72.8495 659.025Z" fill="#ADB0C3"/>
<path d="M71 744H66V743C65.9967 742.205 65.6796 741.444 65.1177 740.882C64.5558 740.32 63.7946 740.003 63 740H57C56.2054 740.003 55.4442 740.32 54.8823 740.882C54.3204 741.444 54.0033 742.205 54 743V744H49C48.7348 744 48.4804 744.105 48.2929 744.293C48.1054 744.48 48 744.735 48 745C48 745.265 48.1054 745.52 48.2929 745.707C48.4804 745.895 48.7348 746 49 746H50V764C50 764.53 50.2107 765.039 50.5858 765.414C50.9609 765.789 51.4696 766 52 766H68C68.5304 766 69.0391 765.789 69.4142 765.414C69.7893 765.039 70 764.53 70 764V746H71C71.2652 746 71.5196 745.895 71.7071 745.707C71.8946 745.52 72 745.265 72 745C72 744.735 71.8946 744.48 71.7071 744.293C71.5196 744.105 71.2652 744 71 744ZM56 743C56 742.735 56.1054 742.48 56.2929 742.293C56.4804 742.105 56.7348 742 57 742H63C63.2652 742 63.5196 742.105 63.7071 742.293C63.8946 742.48 64 742.735 64 743V744H56V743ZM68 764H52V746H68V764ZM58 751V759C58 759.265 57.8946 759.52 57.7071 759.707C57.5196 759.895 57.2652 760 57 760C56.7348 760 56.4804 759.895 56.2929 759.707C56.1054 759.52 56 759.265 56 759V751C56 750.735 56.1054 750.48 56.2929 750.293C56.4804 750.105 56.7348 750 57 750C57.2652 750 57.5196 750.105 57.7071 750.293C57.8946 750.48 58 750.735 58 751ZM64 751V759C64 759.265 63.8946 759.52 63.7071 759.707C63.5196 759.895 63.2652 760 63 760C62.7348 760 62.4804 759.895 62.2929 759.707C62.1054 759.52 62 759.265 62 759V751C62 750.735 62.1054 750.48 62.2929 750.293C62.4804 750.105 62.7348 750 63 750C63.2652 750 63.5196 750.105 63.7071 750.293C63.8946 750.48 64 750.735 64 751Z" fill="#ADB0C3"/>
<path d="M71.7125 966.712L66.4625 971.962C66.2705 972.146 66.0155 972.249 65.75 972.25C65.5517 972.25 65.358 972.19 65.1935 972.08C65.0289 971.969 64.901 971.812 64.826 971.628C64.751 971.445 64.7322 971.243 64.7721 971.049C64.812 970.855 64.9087 970.677 65.05 970.538L68.5875 967H57C56.7348 967 56.4804 966.895 56.2929 966.707C56.1054 966.52 56 966.265 56 966C56 965.735 56.1054 965.48 56.2929 965.293C56.4804 965.105 56.7348 965 57 965H68.5875L65.05 961.462C64.861 961.275 64.7542 961.02 64.753 960.754C64.7519 960.488 64.8564 960.233 65.0438 960.044C65.2311 959.855 65.4858 959.748 65.7518 959.747C66.0179 959.746 66.2735 959.85 66.4625 960.038L71.7125 965.288C71.9003 965.477 72.0056 965.733 72.0056 966C72.0056 966.267 71.9003 966.523 71.7125 966.712ZM57 976H50V956H57C57.2652 956 57.5196 955.895 57.7071 955.707C57.8946 955.52 58 955.265 58 955C58 954.735 57.8946 954.48 57.7071 954.293C57.5196 954.105 57.2652 954 57 954H50C49.4696 954 48.9609 954.211 48.5858 954.586C48.2107 954.961 48 955.47 48 956V976C48 976.53 48.2107 977.039 48.5858 977.414C48.9609 977.789 49.4696 978 50 978H57C57.2652 978 57.5196 977.895 57.7071 977.707C57.8946 977.52 58 977.265 58 977C58 976.735 57.8946 976.48 57.7071 976.293C57.5196 976.105 57.2652 976 57 976Z" fill="#ADB0C3"/>
<defs>
<filter id="filter0_d_37_42441" x="-30" y="-42" width="204" height="1108" filterUnits="userSpaceOnUse" color-interpolation-filters="sRGB">
<feFlood flood-opacity="0" result="BackgroundImageFix"/>
<feColorMatrix in="SourceAlpha" type="matrix" values="0 0 0 0 0 0 0 0 0 0 0 0 0 0 0 0 0 0 127 0" result="hardAlpha"/>
<feOffset dx="12"/>
<feGaussianBlur stdDeviation="21"/>
<feComposite in2="hardAlpha" operator="out"/>
<feColorMatrix type="matrix" values="0 0 0 0 0.1344 0 0 0 0 0.142933 0 0 0 0 0.1856 0 0 0 0.04 0"/>
<feBlend mode="normal" in2="BackgroundImageFix" result="effect1_dropShadow_37_42441"/>
<feBlend mode="normal" in="SourceGraphic" in2="effect1_dropShadow_37_42441" result="shape"/>
</filter>
</defs>
</svg>
