<svg width="20" height="15" viewBox="0 0 20 15" fill="none" xmlns="http://www.w3.org/2000/svg">
<path d="M17.7976 7.49991C17.7976 5.90863 16.9643 4.38253 15.4808 3.25732C13.9974 2.13212 11.9855 1.49998 9.88758 1.49998C7.7897 1.49998 5.77775 2.13212 4.29432 3.25732C2.8109 4.38253 1.97752 5.90863 1.97752 7.49991C1.97752 9.09119 2.8109 10.6173 4.29432 11.7425C5.77775 12.8677 7.7897 13.4998 9.88758 13.4998C11.9855 13.4998 13.9974 12.8677 15.4808 11.7425C16.9643 10.6173 17.7976 9.09119 17.7976 7.49991ZM19.7752 7.49991C19.7752 9.48901 18.7334 11.3966 16.8792 12.8032C15.0249 14.2097 12.5099 14.9998 9.88758 14.9998C8.58912 14.9998 7.30338 14.8058 6.10377 14.4289C4.90415 14.052 3.81415 13.4996 2.89601 12.8032C1.04172 11.3966 0 9.48901 0 7.49991C0 5.51081 1.04172 3.60318 2.89601 2.19667C4.75029 0.790167 7.26523 0 9.88758 0C11.186 0 12.4718 0.193991 13.6714 0.570897C14.871 0.947803 15.961 1.50024 16.8792 2.19667C17.7973 2.8931 18.5256 3.71989 19.0225 4.62982C19.5194 5.53975 19.7752 6.51501 19.7752 7.49991ZM7.91006 5.62493C7.91006 6.22493 7.21793 6.74992 6.42693 6.74992C5.63592 6.74992 4.94379 6.22493 4.94379 5.62493C4.94379 5.02494 5.63592 4.49995 6.42693 4.49995C7.21793 4.49995 7.91006 5.02494 7.91006 5.62493ZM14.8314 5.62493C14.8314 6.22493 14.1392 6.74992 13.3482 6.74992C12.5572 6.74992 11.8651 6.22493 11.8651 5.62493C11.8651 5.02494 12.5572 4.49995 13.3482 4.49995C14.1392 4.49995 14.8314 5.02494 14.8314 5.62493ZM9.88758 11.4224C8.15725 11.4224 6.63457 10.8749 5.74468 10.0649L7.14872 8.9999C7.59366 9.53989 8.65163 9.92238 9.88758 9.92238C11.1235 9.92238 12.1815 9.53989 12.6264 8.9999L14.0305 10.0649C13.1406 10.8749 11.6179 11.4224 9.88758 11.4224Z" fill="#B0B6C4"/>
</svg>
