<svg width="60" height="60" viewBox="0 0 60 60" fill="none" xmlns="http://www.w3.org/2000/svg">
<g clip-path="url(#clip0_37_39661)">
<path d="M46.7725 51.5625L45.4132 26.8406C45.2946 24.7289 44.5023 22.7108 43.1524 21.0826C41.8026 19.4543 39.9663 18.3016 37.9132 17.7937L40.7257 7.04063C40.799 6.76267 40.8074 6.47158 40.7502 6.18985C40.6931 5.90812 40.572 5.6433 40.3962 5.41586C40.2204 5.18841 39.9946 5.00444 39.7364 4.87814C39.4782 4.75185 39.1944 4.68662 38.9069 4.6875H37.9694V1.875C37.9694 1.37772 37.7719 0.900806 37.4202 0.549175C37.0686 0.197544 36.5917 0 36.0944 0L28.5944 0C27.1825 0.00165506 25.8087 0.458639 24.6772 1.30309C23.5456 2.14754 22.7166 3.33443 22.3132 4.6875H21.0944C20.8077 4.68806 20.525 4.75434 20.268 4.88125C20.0109 5.00816 19.7864 5.19232 19.6117 5.41957C19.4369 5.64683 19.3166 5.91113 19.26 6.19215C19.2034 6.47317 19.2119 6.76343 19.285 7.04063L22.0975 17.7937C20.0444 18.3016 18.2081 19.4543 16.8583 21.0826C15.5084 22.7108 14.7161 24.7289 14.5975 26.8406L13.2288 51.5625C12.1099 51.6122 11.0566 52.1044 10.3006 52.9307C9.54458 53.7571 9.1478 54.8499 9.19753 55.9688C9.24726 57.0876 9.73942 58.1409 10.5658 58.8969C11.3921 59.6529 12.4849 60.0497 13.6038 60H46.4163C47.5352 60.0497 48.628 59.6529 49.4543 58.8969C50.2806 58.1409 50.7728 57.0876 50.8225 55.9688C50.8723 54.8499 50.4755 53.7571 49.7195 52.9307C48.9635 52.1044 47.9102 51.6122 46.7913 51.5625H46.7725ZM28.5944 3.75H34.2194V4.6875H33.2819C32.7846 4.6875 32.3077 4.88504 31.9561 5.23667C31.6044 5.58831 31.4069 6.06522 31.4069 6.5625C31.4069 7.05978 31.6044 7.53669 31.9561 7.88832C32.3077 8.23996 32.7846 8.4375 33.2819 8.4375H36.4788L34.0975 17.5031H25.9038L23.5225 8.4375H26.7194C27.2167 8.4375 27.6936 8.23996 28.0452 7.88832C28.3969 7.53669 28.5944 7.05978 28.5944 6.5625C28.5944 6.06522 28.3969 5.58831 28.0452 5.23667C27.6936 4.88504 27.2167 4.6875 26.7194 4.6875H26.5132C26.7753 4.39444 27.0959 4.15959 27.4544 3.99811C27.8129 3.83663 28.2012 3.75211 28.5944 3.75ZM46.4069 56.25H13.5944C13.5333 56.2512 13.4725 56.2403 13.4157 56.2178C13.3589 56.1952 13.3072 56.1616 13.2635 56.1188C13.2198 56.076 13.1852 56.025 13.1615 55.9686C13.1378 55.9123 13.1256 55.8517 13.1257 55.7906C13.1257 55.6663 13.175 55.5471 13.2629 55.4592C13.3509 55.3713 13.4701 55.3219 13.5944 55.3219H15.0007C15.47 55.3238 15.9231 55.1496 16.2702 54.8336C16.6174 54.5177 16.8334 54.0831 16.8757 53.6156C16.879 53.5563 16.879 53.4968 16.8757 53.4375L18.3288 27.0844C18.4128 25.5199 19.0933 24.0472 20.2304 22.9694C21.3675 21.8916 22.8746 21.2908 24.4413 21.2906H35.5507C37.1174 21.2908 38.6244 21.8916 39.7615 22.9694C40.8986 24.0472 41.5792 25.5199 41.6632 27.0844L43.1257 53.4375C43.1212 53.5062 43.1212 53.5751 43.1257 53.6438C43.1766 54.1045 43.3965 54.53 43.7427 54.8382C44.089 55.1463 44.5371 55.3153 45.0007 55.3125H46.4069C46.5312 55.3125 46.6505 55.3619 46.7384 55.4498C46.8263 55.5377 46.8757 55.6569 46.8757 55.7812C46.877 55.844 46.8655 55.9063 46.8418 55.9644C46.8181 56.0225 46.7828 56.0751 46.738 56.119C46.6932 56.163 46.6399 56.1972 46.5813 56.2198C46.5228 56.2423 46.4602 56.2526 46.3975 56.25H46.4069Z" fill="#52B141"/>
<path d="M31.3021 36.9469H31.0958L29.9989 37.0406C29.5753 37.0424 29.1574 36.9428 28.7802 36.75C28.3578 36.5375 27.9979 36.219 27.7358 35.8255C27.4736 35.4321 27.3182 34.9772 27.2848 34.5056C27.2514 34.034 27.3411 33.5619 27.5452 33.1354C27.7493 32.7089 28.0606 32.3428 28.4488 32.0729C28.837 31.803 29.2887 31.6386 29.7595 31.5959C30.2304 31.5532 30.7042 31.6335 31.1347 31.8291C31.5651 32.0247 31.9373 32.3287 32.2148 32.7115C32.4924 33.0943 32.6656 33.5426 32.7177 34.0125C32.7724 34.5098 33.0224 34.965 33.4127 35.2779C33.803 35.5909 34.3016 35.736 34.7989 35.6813C35.2962 35.6266 35.7514 35.3765 36.0643 34.9862C36.3773 34.5959 36.5224 34.0973 36.4677 33.6C36.3598 32.6948 36.0618 31.8226 35.5933 31.0407C35.1248 30.2587 34.4962 29.5846 33.7489 29.0625C33.1809 28.647 32.5471 28.3301 31.8739 28.125C31.8739 27.6277 31.6764 27.1508 31.3248 26.7992C30.9731 26.4475 30.4962 26.25 29.9989 26.25C29.5016 26.25 29.0247 26.4475 28.6731 26.7992C28.3215 27.1508 28.1239 27.6277 28.1239 28.125C26.6267 28.5649 25.339 29.5311 24.4981 30.8456C23.6572 32.1602 23.3198 33.7344 23.5482 35.2781C23.7765 36.8218 24.5552 38.2309 25.7407 39.2456C26.9261 40.2604 28.4385 40.8125 29.9989 40.8C30.0833 40.8 30.2052 40.8 31.3489 40.6969C31.5656 40.6929 31.7795 40.7463 31.9688 40.8517C32.1582 40.957 32.3163 41.1106 32.4271 41.2969C32.7053 41.8431 32.7975 42.4653 32.6896 43.0687C32.5713 43.6711 32.2541 44.2162 31.7888 44.6165C31.3235 45.0169 30.7371 45.2492 30.1239 45.2763C29.5107 45.3033 28.9062 45.1235 28.4074 44.7656C27.9087 44.4078 27.5447 43.8927 27.3739 43.3031C27.2176 42.8491 26.893 42.4724 26.4671 42.2506C26.0412 42.0289 25.5464 41.979 25.0848 42.1112C24.6232 42.2434 24.2299 42.5477 23.986 42.9614C23.7421 43.375 23.6662 43.8664 23.7739 44.3344C24.0627 45.3801 24.6139 46.3346 25.3752 47.1074C26.1365 47.8802 27.0827 48.4456 28.1239 48.75C28.1239 49.2473 28.3215 49.7242 28.6731 50.0758C29.0247 50.4275 29.5016 50.625 29.9989 50.625C30.4962 50.625 30.9731 50.4275 31.3248 50.0758C31.6764 49.7242 31.8739 49.2473 31.8739 48.75C32.7866 48.479 33.6282 48.0101 34.339 47.3768C35.0499 46.7435 35.6124 45.9613 35.9865 45.0859C36.3607 44.2105 36.5373 43.2634 36.5038 42.312C36.4703 41.3605 36.2275 40.4282 35.7927 39.5813C35.3619 38.7691 34.7138 38.0926 33.9208 37.6274C33.1279 37.1622 32.2212 36.9266 31.3021 36.9469Z" fill="#52B141"/>
</g>
<defs>
<clipPath id="clip0_37_39661">
<rect width="60" height="60" fill="white"/>
</clipPath>
</defs>
</svg>
