<svg width="23" height="18" viewBox="0 0 23 18" fill="none" xmlns="http://www.w3.org/2000/svg">
<path d="M22.6222 15.7869L18.2791 12.5016C19.6804 11.1472 20.4407 9.47468 20.4379 7.75291C20.4379 6.21953 19.8385 4.72058 18.7157 3.44562C17.5928 2.17067 15.9968 1.17696 14.1295 0.590158C12.2623 0.00335919 10.2076 -0.150174 8.22532 0.148973C6.24304 0.448121 4.4222 1.18651 2.99306 2.27078C1.56392 3.35504 0.590658 4.73647 0.196358 6.24039C-0.197941 7.74431 0.00442767 9.30315 0.777874 10.7198C1.55132 12.1365 2.86111 13.3473 4.5416 14.1992C6.22209 15.0511 8.19782 15.5058 10.2189 15.5058C12.4884 15.5079 14.6928 14.9311 16.478 13.868L20.8083 17.163C20.927 17.2538 21.0683 17.3259 21.224 17.3751C21.3796 17.4243 21.5466 17.4497 21.7152 17.4497C21.8839 17.4497 22.0508 17.4243 22.2065 17.3751C22.3621 17.3259 22.5034 17.2538 22.6222 17.163C22.7419 17.0729 22.8369 16.9657 22.9018 16.8476C22.9666 16.7295 23 16.6029 23 16.4749C23 16.347 22.9666 16.2203 22.9018 16.1022C22.8369 15.9841 22.7419 15.8769 22.6222 15.7869ZM2.55474 7.75291C2.55474 6.60287 3.00423 5.47866 3.84639 4.52244C4.68854 3.56623 5.88552 2.82094 7.28597 2.38084C8.68642 1.94075 10.2274 1.8256 11.7141 2.04996C13.2009 2.27432 14.5665 2.82811 15.6383 3.64131C16.7102 4.45451 17.4401 5.49058 17.7359 6.61852C18.0316 7.74646 17.8798 8.91559 17.2997 9.97809C16.7196 11.0406 15.7373 11.9487 14.4769 12.5876C13.2166 13.2266 11.7348 13.5676 10.2189 13.5676C8.18626 13.5676 6.23684 12.955 4.79953 11.8645C3.36221 10.774 2.55474 9.29505 2.55474 7.75291Z" fill="#B0B6C4"/>
</svg>
