<svg width="284" height="30" viewBox="0 0 284 30" fill="none" xmlns="http://www.w3.org/2000/svg">
<g clip-path="url(#clip0_52_121369)">
<path d="M24.0125 12.0063C24.0125 5.37538 18.6371 0 12.0063 0C5.37538 0 0 5.37538 0 12.0063C0 17.9989 4.39049 22.966 10.1303 23.8666V15.4769H7.08181V12.0063H10.1303V9.36113C10.1303 6.35206 11.9228 4.68994 14.6652 4.68994C15.9784 4.68994 17.3528 4.92444 17.3528 4.92444V7.8791H15.8388C14.3475 7.8791 13.8822 8.80467 13.8822 9.75508V12.0063H17.2121L16.6798 15.4769H13.8822V23.8666C19.622 22.966 24.0125 17.9989 24.0125 12.0063Z" fill="#8E59CF"/>
</g>
<g clip-path="url(#clip1_52_121369)">
<mask id="mask0_52_121369" style="mask-type:luminance" maskUnits="userSpaceOnUse" x="47" y="0" width="25" height="25">
<path d="M71.9281 0H47.9156V24.0125H71.9281V0Z" fill="white"/>
</mask>
<g mask="url(#mask0_52_121369)">
<path d="M55.4697 21.762C64.5287 21.762 69.4851 14.2548 69.4851 7.74664C69.4851 7.53559 69.4804 7.31984 69.471 7.1088C70.4352 6.41154 71.2672 5.54788 71.9281 4.5584C71.0301 4.95791 70.0767 5.21884 69.1005 5.33225C70.1285 4.7161 70.8981 3.74816 71.2668 2.60786C70.2998 3.18095 69.2423 3.58522 68.1395 3.80332C67.3965 3.01386 66.4142 2.49115 65.3444 2.31599C64.2745 2.14084 63.1767 2.32299 62.2207 2.83431C61.2648 3.34562 60.5039 4.15761 60.0557 5.14473C59.6076 6.13184 59.497 7.23912 59.7412 8.29535C57.7832 8.1971 55.8677 7.68845 54.1188 6.80237C52.3699 5.91631 50.8268 4.6726 49.5894 3.15189C48.9605 4.23619 48.7681 5.51926 49.0512 6.74034C49.3343 7.96142 50.0718 9.02888 51.1137 9.72579C50.3315 9.70095 49.5664 9.49036 48.8817 9.11141V9.17238C48.881 10.3103 49.2744 11.4132 49.995 12.2939C50.7156 13.1746 51.7189 13.7785 52.8344 14.003C52.1098 14.2013 51.3493 14.2301 50.6118 14.0874C50.9266 15.066 51.539 15.9219 52.3637 16.5357C53.1883 17.1494 54.184 17.4904 55.2117 17.5111C53.4669 18.8817 51.3115 19.6251 49.0928 19.6216C48.6993 19.621 48.3062 19.5969 47.9156 19.5494C50.1696 20.9954 52.7917 21.7634 55.4697 21.762Z" fill="#8E59CF"/>
</g>
</g>
<g clip-path="url(#clip2_52_121369)">
<path d="M107.837 2.16207C111.045 2.16207 111.425 2.17613 112.687 2.23241C113.859 2.284 114.492 2.48098 114.915 2.64513C115.473 2.86087 115.876 3.12351 116.293 3.5409C116.715 3.963 116.973 4.36165 117.189 4.91975C117.353 5.34184 117.55 5.97967 117.602 7.14747C117.658 8.41375 117.672 8.79364 117.672 11.9968C117.672 15.2048 117.658 15.5847 117.602 16.8463C117.55 18.0188 117.353 18.6519 117.189 19.074C116.973 19.6321 116.711 20.0354 116.293 20.4529C115.871 20.875 115.473 21.1329 114.915 21.3486C114.492 21.5128 113.855 21.7097 112.687 21.7613C111.421 21.8177 111.041 21.8317 107.837 21.8317C104.629 21.8317 104.25 21.8177 102.988 21.7613C101.816 21.7097 101.182 21.5128 100.76 21.3486C100.202 21.1329 99.7989 20.8703 99.3815 20.4529C98.9594 20.0307 98.7014 19.6321 98.4857 19.074C98.3215 18.6519 98.1245 18.0141 98.073 16.8463C98.0167 15.58 98.0026 15.2001 98.0026 11.9968C98.0026 8.78896 98.0167 8.40907 98.073 7.14747C98.1245 5.97498 98.3215 5.34184 98.4857 4.91975C98.7014 4.36165 98.964 3.95831 99.3815 3.5409C99.8035 3.11881 100.202 2.86087 100.76 2.64513C101.182 2.48098 101.82 2.284 102.988 2.23241C104.25 2.17613 104.629 2.16207 107.837 2.16207ZM107.837 0C104.578 0 104.17 0.0140698 102.89 0.0703491C101.614 0.126629 100.737 0.332985 99.9771 0.628452C99.1845 0.937989 98.5138 1.34601 97.8478 2.01667C97.1772 2.68265 96.7692 3.35331 96.4596 4.14122C96.1641 4.90569 95.9578 5.77801 95.9015 7.05367C95.8452 8.33871 95.8312 8.74675 95.8312 12.0063C95.8312 15.2658 95.8452 15.6738 95.9015 16.9541C95.9578 18.2298 96.1641 19.1069 96.4596 19.8666C96.7692 20.6592 97.1772 21.3299 97.8478 21.9959C98.5138 22.6618 99.1845 23.0745 99.9724 23.3794C100.737 23.6748 101.609 23.8811 102.885 23.9375C104.165 23.9937 104.573 24.0078 107.833 24.0078C111.092 24.0078 111.5 23.9937 112.781 23.9375C114.056 23.8811 114.933 23.6748 115.693 23.3794C116.481 23.0745 117.152 22.6618 117.818 21.9959C118.484 21.3299 118.896 20.6592 119.201 19.8713C119.497 19.1069 119.703 18.2345 119.759 16.9588C119.816 15.6785 119.83 15.2705 119.83 12.011C119.83 8.75144 119.816 8.34341 119.759 7.06306C119.703 5.78739 119.497 4.91037 119.201 4.1506C118.906 3.35331 118.498 2.68265 117.827 2.01667C117.161 1.3507 116.49 0.937989 115.702 0.633142C114.938 0.337676 114.066 0.131318 112.79 0.0750391C111.505 0.0140698 111.097 0 107.837 0Z" fill="#8E59CF"/>
<path d="M107.837 5.83898C104.433 5.83898 101.67 8.60136 101.67 12.0063C101.67 15.4111 104.433 18.1736 107.837 18.1736C111.242 18.1736 114.005 15.4111 114.005 12.0063C114.005 8.60136 111.242 5.83898 107.837 5.83898ZM107.837 16.0067C105.628 16.0067 103.837 14.2152 103.837 12.0063C103.837 9.79729 105.628 8.00573 107.837 8.00573C110.046 8.00573 111.838 9.79729 111.838 12.0063C111.838 14.2152 110.046 16.0067 107.837 16.0067Z" fill="#8E59CF"/>
<path d="M115.688 5.59432C115.688 6.39161 115.041 7.03414 114.249 7.03414C113.451 7.03414 112.809 6.38692 112.809 5.59432C112.809 4.79703 113.456 4.15451 114.249 4.15451C115.041 4.15451 115.688 4.80172 115.688 5.59432Z" fill="#8E59CF"/>
</g>
<g clip-path="url(#clip3_52_121369)">
<path d="M160.828 0H156.781V16.3563C156.781 18.3052 155.225 19.9061 153.288 19.9061C151.351 19.9061 149.795 18.3052 149.795 16.3563C149.795 14.4423 151.316 12.8762 153.184 12.8067V8.7002C149.068 8.76977 145.748 12.1454 145.748 16.3563C145.748 20.602 149.137 24.0125 153.323 24.0125C157.508 24.0125 160.897 20.5672 160.897 16.3563V7.96935C162.419 9.083 164.287 9.74421 166.258 9.77902V5.67252C163.215 5.56812 160.828 3.06246 160.828 0Z" fill="#8E59CF"/>
</g>
<g clip-path="url(#clip4_52_121369)">
<path d="M215.436 7.20454C215.436 7.20454 215.201 5.54898 214.479 4.82205C213.564 3.8653 212.542 3.8606 212.073 3.80433C208.715 3.56045 203.673 3.56045 203.673 3.56045H203.664C203.664 3.56045 198.622 3.56045 195.264 3.80433C194.795 3.8606 193.773 3.8653 192.858 4.82205C192.136 5.54898 191.906 7.20454 191.906 7.20454C191.906 7.20454 191.662 9.15086 191.662 11.0925V12.9122C191.662 14.8539 191.902 16.8002 191.902 16.8002C191.902 16.8002 192.136 18.4557 192.854 19.1826C193.768 20.1394 194.969 20.1066 195.503 20.2098C197.426 20.3927 203.669 20.4489 203.669 20.4489C203.669 20.4489 208.715 20.4396 212.073 20.2004C212.542 20.1441 213.564 20.1394 214.479 19.1826C215.201 18.4557 215.436 16.8002 215.436 16.8002C215.436 16.8002 215.675 14.8585 215.675 12.9122V11.0925C215.675 9.15086 215.436 7.20454 215.436 7.20454ZM201.188 15.1211V8.37232L207.674 11.7585L201.188 15.1211Z" fill="#8E59CF"/>
</g>
<g clip-path="url(#clip5_52_121369)">
<path d="M251.584 0C244.953 0 239.578 5.37468 239.578 12.0063C239.578 17.0948 242.744 21.4378 247.208 23.1871C247.105 22.235 247.007 20.7811 247.251 19.7447C247.471 18.8067 248.658 13.7791 248.658 13.7791C248.658 13.7791 248.297 13.0615 248.297 11.9968C248.297 10.3273 249.263 9.07973 250.468 9.07973C251.49 9.07973 251.987 9.84888 251.987 10.7728C251.987 11.8045 251.331 13.3428 250.993 14.7686C250.712 15.9645 251.594 16.9401 252.771 16.9401C254.905 16.9401 256.546 14.6889 256.546 11.4435C256.546 8.56852 254.483 6.55655 251.533 6.55655C248.118 6.55655 246.111 9.11725 246.111 11.767C246.111 12.7989 246.51 13.9056 247.007 14.506C247.105 14.6232 247.119 14.7311 247.091 14.8483C247.002 15.2282 246.796 16.0443 246.758 16.2084C246.707 16.4289 246.585 16.4758 246.355 16.3679C244.854 15.6691 243.916 13.4789 243.916 11.7155C243.916 7.92601 246.669 4.45076 251.847 4.45076C256.011 4.45076 259.248 7.41949 259.248 11.3872C259.248 15.5237 256.64 18.8536 253.019 18.8536C251.805 18.8536 250.66 18.2204 250.266 17.4747C250.266 17.4747 249.666 19.7681 249.521 20.3309C249.249 21.372 248.517 22.6806 248.029 23.4778C249.155 23.8249 250.346 24.0125 251.584 24.0125C258.216 24.0125 263.59 18.6378 263.59 12.0063C263.59 5.37468 258.216 0 251.584 0Z" fill="#8E59CF"/>
</g>
<defs>
<clipPath id="clip0_52_121369">
<rect width="24" height="24" fill="white" transform="scale(1.00052)"/>
</clipPath>
<clipPath id="clip1_52_121369">
<rect width="24" height="24" fill="white" transform="translate(47.9156) scale(1.00052)"/>
</clipPath>
<clipPath id="clip2_52_121369">
<rect width="24" height="24" fill="white" transform="translate(95.8312) scale(1.00052)"/>
</clipPath>
<clipPath id="clip3_52_121369">
<rect width="24" height="24" fill="white" transform="translate(143.747) scale(1.00052)"/>
</clipPath>
<clipPath id="clip4_52_121369">
<rect width="24" height="24" fill="white" transform="translate(191.662) scale(1.00052)"/>
</clipPath>
<clipPath id="clip5_52_121369">
<rect width="24" height="24" fill="white" transform="translate(239.578) scale(1.00052)"/>
</clipPath>
</defs>
</svg>
