<svg width="30" height="30" viewBox="0 0 30 30" fill="none" xmlns="http://www.w3.org/2000/svg">
<g clip-path="url(#clip0_52_74577)">
<path d="M3.56227 16.875C3.56227 16.875 2.34352 25.7812 4.03102 27.1875L6.65602 26.25L9.28102 14.8125L3.56227 16.875Z" fill="#9A4C18"/>
<path d="M4.40602 16.3125C4.40602 16.3125 3.18727 25.2187 4.87477 26.625L7.40602 25.5937L10.031 14.1562L4.40602 16.3125Z" fill="#E5895B"/>
<path d="M8.81285 27.6562C9.00035 27.9375 7.9691 28.5937 7.2191 28.9687C6.8441 29.1562 6.37535 29.1562 6.00035 28.9687L3.4691 27.5625C3.2816 27.4687 3.0941 27.1875 3.0941 27C3.00035 26.4375 3.4691 25.7812 3.93785 25.3125C4.4066 24.8437 5.06285 24.75 5.5316 25.0313C7.12535 25.9688 8.62535 27.2812 8.81285 27.6562Z" fill="#9A4C18"/>
<path d="M8.2509 27.6561C8.4384 27.9374 7.59465 28.4061 7.03215 28.6874C6.7509 28.8749 6.3759 28.8749 6.09465 28.6874L4.03215 27.4686C3.84465 27.3749 3.7509 27.1874 3.7509 26.9061C3.65715 26.4374 4.03215 25.8749 4.40715 25.4999C4.6884 25.2186 5.2509 25.1249 5.6259 25.3124C6.84465 26.1561 8.0634 27.2811 8.2509 27.6561Z" fill="#E5895B"/>
<path d="M7.40625 27.1874C7.5 27.3749 6.84375 27.8436 6.375 28.0311C6.1875 28.1249 5.8125 28.1249 5.625 28.0311L4.21875 27.3749C4.125 27.2811 4.03125 27.1874 3.9375 26.9999C3.9375 26.6249 4.21875 26.1561 4.5 25.8749C4.78125 25.5936 5.25 25.4999 5.53125 25.6874C6.5625 26.3436 7.3125 26.9061 7.40625 27.1874Z" fill="#FAD395"/>
<path d="M21.2816 5.34375L22.1253 2.90625L21.5628 1.5L24.6566 3.375L26.8128 9.28125L20.3441 7.96875L21.2816 5.34375ZM7.31282 9.46875C7.31282 9.46875 5.53157 12.0937 6.37532 16.2187L8.43782 12.8437L7.50032 9.28125L7.31282 9.46875ZM10.7816 4.78125C10.7816 4.78125 10.5941 3.1875 9.18782 1.6875C9.18782 1.6875 11.6253 1.59375 14.0628 2.71875L14.2503 3.84375L12.8441 6.09375L10.7816 4.78125Z" fill="#9A4C18"/>
<path d="M19.7263 28.9478C26.2382 28.0338 30.7878 22.097 29.8882 15.6877C28.9885 9.27841 22.9803 4.8236 16.4685 5.73761C9.95664 6.65162 5.40702 12.5883 6.30664 18.9977C7.20626 25.407 13.2144 29.8618 19.7263 28.9478Z" fill="#9A4C18"/>
<path d="M19.1077 28.0111C25.1068 27.1691 29.2641 21.457 28.3933 15.2528C27.5225 9.04855 21.9533 4.70166 15.9542 5.5437C9.95504 6.38575 5.79775 12.0979 6.66858 18.3021C7.53941 24.5063 13.1086 28.8532 19.1077 28.0111Z" fill="#E5895B"/>
<path d="M18.3431 26.7126C23.9833 25.9209 27.8963 20.5822 27.083 14.7882C26.2698 8.99416 21.0382 4.93896 15.398 5.73063C9.75782 6.52229 5.84482 11.861 6.65808 17.6551C7.47133 23.4491 12.7029 27.5043 18.3431 26.7126Z" fill="#FAD395"/>
<path d="M23.0625 12C23.0625 12 25.875 12 26.7188 11.5313C27.5625 11.0625 28.6875 10.9688 28.6875 10.125C28.6875 9.28125 27 4.6875 21.375 3.65625L24.6562 7.59375L23.0625 12ZM7.78125 11.4375C7.78125 11.4375 6.65625 9.9375 7.3125 7.96875C7.96875 6.09375 6.65625 3.375 6.65625 3.375L11.7188 4.40625C11.7188 4.40625 14.625 5.15625 14.4375 6.65625C14.25 8.0625 13.2188 10.3125 13.125 10.5C13.0312 10.6875 12.1875 12.0937 12.1875 12.0937L7.78125 11.4375Z" fill="#9A4C18"/>
<path d="M8.43688 11.7188C8.43688 11.7188 7.87437 9.46875 8.62437 8.8125C9.37437 8.15625 8.34312 4.96875 8.34312 4.96875L13.4056 6C13.4056 6 16.3119 6.75 16.1244 8.25C15.9369 9.75 14.9056 11.9062 14.8119 12.0938C14.7181 12.2812 13.9681 13.125 13.9681 13.125L8.43688 11.7188ZM21.2806 11.8125C21.2806 11.8125 24.0931 11.8125 24.9369 11.3438C25.7806 10.875 26.9056 10.7813 26.9056 9.9375C26.9056 9.09375 25.2181 4.5 19.5931 3.46875L22.8744 7.40625L21.2806 11.8125Z" fill="#DB7D1F"/>
<path d="M11.4375 11.8124C11.4375 11.8124 10.0312 11.5312 10.6875 9.18744C11.3437 6.84369 13.7812 3.46869 13.7812 3.46869L10.0312 0.093685C10.0312 0.093685 15.1875 -0.937565 19.4063 2.43743C19.4063 2.43743 24.2813 4.78119 24.4688 6.37494C24.6563 7.96869 26.7188 11.0624 25.0312 12.0937C23.3438 13.1249 12 12.3749 11.4375 11.8124Z" fill="#9A4C18"/>
<path d="M12.0933 12.0947C12.0933 12.0947 11.6245 10.4072 12.187 8.5322C12.7495 6.75095 14.812 3.8447 14.812 3.8447L13.0308 1.0322C13.0308 1.0322 15.6558 0.750946 18.937 3.37595C18.937 3.37595 22.687 5.1572 22.8745 6.37595C23.062 7.5947 22.8745 11.6259 21.562 12.3759C20.2495 13.1259 12.562 12.4697 12.0933 12.0947Z" fill="#F49937"/>
<path d="M14.5312 11.0625L15.75 6.65625L15.1875 1.875L18.375 6.5625L17.9063 11.625C17.9063 11.625 15.375 11.9062 14.5312 11.0625Z" fill="#FDE049"/>
<path d="M26.1562 7.21875L25.875 10.4063L23.4375 9.1875L24.6562 11.4375L28.125 10.6875L26.1562 7.21875Z" fill="#9A4C18"/>
<path d="M21.6562 10.0312L23.8125 10.7812L25.9688 9.1875L25.7812 10.9687L24.5625 11.7188L20.7188 12.5625L21.6562 10.0312ZM10.7812 7.96875L11.0625 10.3125L12.9375 12.2813L12.4687 12.1875L9.9375 11.625L9 9.65625L10.7812 7.96875Z" fill="#DB7D1F"/>
<path d="M18.8438 13.0312L20.7188 9L19.875 5.15625L18.75 3.46875C18.75 3.46875 21.375 4.6875 21.9375 5.15625C22.5 5.625 23.3437 7.03125 23.25 7.5C23.0625 7.96875 22.3125 12 22.3125 12L21.4687 12.5625C21.4687 12.5625 19.7813 13.2188 18.8438 13.0312Z" fill="#DB7D1F"/>
<path d="M11.4383 8.25L12.1883 8.15625C12.1883 8.15625 11.6258 10.2187 12.2821 11.625C12.2821 11.625 10.5008 11.1563 10.7821 8.4375L11.4383 8.25Z" fill="#9A4C18"/>
<path d="M23.1562 10.9687C23.1562 10.9687 25.5937 9.84375 25.2187 7.96875C25.2187 7.96875 25.9687 9.375 25.6875 10.4063C25.4062 11.4375 23.8125 11.25 23.8125 11.25L23.1562 10.9687Z" fill="#DB7D1F"/>
<path d="M12.4688 12.75L14.0625 14.1563L20.1562 12.0937L20.25 10.0312L18 12.4688L13.6875 12.0937L12.0938 11.3438L12.4688 12.75Z" fill="#F49937"/>
<path d="M21.1874 12.4688L22.3124 13.6875L21.1874 15.2812C21.1874 15.2812 23.9999 15 24.4687 16.125C24.9374 17.25 24.5624 18.9375 24.5624 18.9375L29.1562 17.9063C29.1562 17.9063 28.4999 12.75 26.7187 10.6875L24.9374 9.75L23.2499 11.1562L21.1874 12.4688ZM9.56242 11.625L6.56242 15.5625C6.56242 15.5625 6.28117 13.4062 7.59367 10.6875L9.56242 11.625Z" fill="#DB7D1F"/>
<path d="M28.9687 19.125L24.5625 18.9375L24.4688 18.375L29.4375 16.875L28.9687 19.125Z" fill="#9A4C18"/>
<path d="M25.5937 18.1875L24.8437 15.4688C24.8437 15.4688 22.875 14.9062 21.5625 14.9062L20.8125 15L22.7812 15.6563L24.375 18.6562L25.5937 18.1875Z" fill="#9A4C18"/>
<path d="M22.3125 15.1875L22.9688 13.5L20.8125 11.8125L18.2812 13.3125L21.375 12.9375L21 15.0938L22.3125 15.1875Z" fill="#9A4C18"/>
<path d="M20.625 12.5625L13.9687 14.9062L12.1875 12.4687L14.3438 13.6875L20.7188 11.8125L20.625 12.5625Z" fill="#9A4C18"/>
<path d="M14.0625 14.7188L10.6875 14.3438L13.5 13.6875L14.0625 14.7188ZM13.0312 13.3125L9.5625 12.9375L6.375 15.75L8.8125 11.625L12.2812 12.375L12.8437 13.125" fill="#9A4C18"/>
<path d="M20.8125 12.0937L25.7812 11.4375L27.0938 13.7812L24.6562 16.4062L23.8125 16.0313L20.8125 12.0937ZM8.4375 13.2188L12.1875 14.3438L13.7812 13.7812L13.0312 13.0312L10.125 12.6563L8.4375 13.2188Z" fill="#9A4C18"/>
<path d="M20.7188 13.2188L25.2187 11.9062L26.1562 13.5938L22.5938 16.4062L20.1562 15.6563L20.7188 13.2188Z" fill="#FAD395"/>
<path d="M14.0625 25.4063C14.0625 25.4063 20.3438 25.4062 23.3438 22.875C23.3438 22.875 23.25 24.9375 22.0313 26.1562C22.0313 26.1562 18.0938 26.8125 14.0625 25.4063Z" fill="white" stroke="#9A4C18" stroke-width="0.497438" stroke-miterlimit="10"/>
<path d="M28.125 20.25C28.125 20.25 27.9375 26.7188 26.0625 27.5625L23.7187 26.5312L22.875 18.0938L28.125 20.25Z" fill="#9A4C18"/>
<path d="M27.4687 19.6875C27.4687 19.6875 27.2812 26.1562 25.4062 27L23.0625 25.9687L22.2188 17.5312L27.4687 19.6875Z" fill="#E5895B"/>
<path d="M19.6867 28.3118C19.4992 28.6868 20.6242 29.3431 21.468 29.8118C21.9367 30.0931 22.4055 30.0931 22.7805 29.8118L25.593 28.2181C25.8742 28.0306 25.968 27.8431 26.0617 27.5618C26.1555 26.9056 25.593 26.1556 25.1242 25.6868C24.6555 25.2181 23.9055 25.0306 23.343 25.3118C21.5617 26.4368 19.8742 27.8431 19.6867 28.3118Z" fill="#9A4C18"/>
<path d="M20.2509 28.312C20.0634 28.5932 21.0009 29.1557 21.5634 29.5307C21.9384 29.7182 22.3134 29.7182 22.5947 29.5307L24.9384 28.1245C25.1259 28.0307 25.3134 27.8432 25.3134 27.562C25.4072 26.9995 25.0322 26.437 24.6572 26.062C24.2822 25.687 23.7197 25.5932 23.2509 25.8745C21.8447 26.7182 20.4384 27.937 20.2509 28.312Z" fill="#E5895B"/>
<path d="M21.1877 27.7505C21.094 27.938 21.844 28.4067 22.3127 28.688C22.594 28.8755 22.969 28.8755 23.1565 28.688L24.6565 27.938C24.844 27.8442 24.9377 27.6567 24.9377 27.4692C24.9377 27.0005 24.6565 26.6255 24.2815 26.2505C24.0002 25.9692 23.4377 25.7817 23.1565 26.063C22.1252 26.813 21.3752 27.4692 21.1877 27.7505Z" fill="#FAD395"/>
<path d="M11.1562 25.3125L4.21875 19.6875L6.5625 17.25L13.6875 18.1875L11.1562 25.3125Z" fill="#404C5C"/>
<path d="M13.5941 18.3743C12.9378 20.2493 10.3128 21.6555 7.96907 21.1868C5.81282 20.8118 5.25032 18.9368 6.46907 17.343C7.50032 16.0305 9.56282 15.1868 11.2503 15.2805C13.0316 15.5618 14.1566 16.7805 13.5941 18.3743ZM23.8128 23.6243L14.5316 23.4368L16.3128 16.968L23.5316 16.7805L23.8128 23.6243Z" fill="#404C5C"/>
<path d="M23.5308 16.9688C23.8121 18.5625 22.1246 20.25 19.6871 20.3438C17.2496 20.4375 15.7496 18.8437 16.2183 17.1562C16.5933 15.75 18.2808 14.8125 20.0621 14.7188C21.7496 14.7188 23.3433 15.5625 23.5308 16.9688Z" fill="#404C5C"/>
<path d="M11.7188 16.5L19.5 15.6562L19.0312 23.625L8.625 24.2812L11.7188 16.5Z" fill="#404C5C"/>
<path d="M15.9375 16.125L14.8125 20.3438L13.125 20.4375L14.0625 16.4062L15.9375 16.125Z" fill="#34393F"/>
<path d="M17.9062 19.219L18.375 15.6565C18.375 15.6565 18.9375 15.1878 19.9687 15.094C21 15.0003 22.0312 15.7503 22.0312 15.7503L22.4062 19.219C22.4062 19.219 20.5312 17.9065 17.9062 19.219ZM7.125 19.6878L8.90625 16.5003C8.90625 16.5003 9.84375 16.0315 10.875 16.0315C11.9063 16.1253 12.6562 16.6878 12.6562 16.6878L11.3438 20.344C11.3438 20.344 10.125 18.7503 7.125 19.6878Z" fill="#626E7A"/>
<path d="M9.75 18.9375L10.9688 16.5L11.625 16.5938L10.5938 19.0312L9.75 18.9375ZM20.625 18.1875L20.8125 15.75L21.5625 15.8438V18.1875H20.625Z" fill="#7C8A96"/>
<path d="M20.8125 23.6253C20.9062 24.1878 20.5312 24.7503 19.9687 24.7503C19.4062 24.7503 18.9375 24.2815 18.9375 23.719C18.9375 23.1565 19.3125 22.6878 19.7812 22.6878C20.3437 22.594 20.8125 23.0628 20.8125 23.6253Z" fill="white"/>
<path d="M25.0305 22.2188C25.8742 25.5938 23.718 29.0625 20.0617 29.1563C16.4055 29.25 13.8742 25.875 14.343 22.4062C14.718 19.6875 16.968 17.8125 19.4055 17.7188C21.9367 17.7188 24.3742 19.5 25.0305 22.2188Z" fill="#404C5C"/>
<path d="M24.3744 22.2186C25.0306 25.1248 23.1556 27.9373 20.0619 28.0311C16.9681 28.1248 14.8119 25.3123 15.1869 22.4061C15.4681 19.9686 17.4369 18.2811 19.5931 18.2811C21.7494 18.1873 23.8119 19.8748 24.3744 22.2186Z" fill="#CCE2EA"/>
<path d="M23.5311 22.2193C23.9999 24.563 22.4061 26.813 19.9686 26.9068C17.5311 27.0005 15.7499 24.7505 15.9374 22.4068C16.1249 20.438 17.7186 18.938 19.5936 18.938C21.3749 18.8443 23.1561 20.2505 23.5311 22.2193Z" fill="#FFD4E1"/>
<path d="M12.4679 21.375C13.2179 24.5625 11.2492 27.9375 7.68669 28.0312C4.31169 28.0312 1.87419 24.8437 2.34294 21.5625C2.71794 18.9375 4.87419 17.1562 7.21794 17.0625C9.56169 17.0625 11.9054 18.75 12.4679 21.375Z" fill="#404C5C"/>
<path d="M11.8128 21.375C12.3753 24.0938 10.594 26.8125 7.68776 26.9063C4.78151 27 2.71901 24.2813 3.00026 21.5625C3.28151 19.3125 5.15651 17.625 7.21901 17.625C9.28151 17.5313 11.344 19.125 11.8128 21.375Z" fill="#CCE2EA"/>
<path d="M11.063 21.375C11.5318 23.625 10.0318 25.7813 7.68805 25.7813C5.3443 25.875 3.6568 23.7188 3.8443 21.5625C4.0318 19.6875 5.5318 18.2812 7.31305 18.1875C9.00055 18.1875 10.688 19.5 11.063 21.375Z" fill="#FFD4E1"/>
<path d="M23.3446 20.8121C23.1571 21.0933 24.0946 21.7496 24.8446 22.2183C25.2196 22.4996 25.6883 22.4996 25.9696 22.3121L28.1258 21.3746C28.3133 21.2808 28.5008 21.0933 28.5008 20.8121C28.5946 20.2496 28.1258 19.5933 27.7508 19.1246C27.3758 18.6558 26.7196 18.4683 26.2508 18.6558C24.7508 19.4996 23.6258 20.4371 23.3446 20.8121Z" fill="#9A4C18"/>
<path d="M23.9055 20.7181C23.718 20.9993 24.5617 21.5618 25.218 21.9368C25.593 22.1243 25.968 22.2181 26.2492 22.0306L27.9367 21.2806C28.1242 21.1868 28.218 20.9993 28.3117 20.8118C28.4055 20.3431 28.0305 19.7806 27.6555 19.3118C27.2805 18.9368 26.718 18.7493 26.343 18.9368C24.9367 19.6868 24.093 20.3431 23.9055 20.7181Z" fill="#E5895B"/>
<path d="M24.2805 20.5319C24.1868 20.7194 24.843 21.1881 25.3118 21.5631C25.593 21.7506 25.8743 21.7506 26.1555 21.6569L27.5618 21.1881C27.7493 21.0944 27.843 21.0006 27.843 20.8131C27.843 20.4381 27.5618 19.9694 27.2805 19.5944C26.9993 19.2194 26.5305 19.1256 26.2493 19.2194C25.218 19.7819 24.468 20.3444 24.2805 20.5319Z" fill="#FAD395"/>
<path d="M20.2493 16.3128C20.0618 16.6878 21.1868 17.4378 21.9368 18.0003C22.4055 18.2816 22.8743 18.3753 23.2493 18.1878L25.7805 17.0628C26.0618 16.9691 26.2493 16.6878 26.2493 16.4066C26.343 15.7503 25.8743 15.0003 25.4055 14.4378C24.9368 13.8753 24.1868 13.6878 23.6243 13.9691C21.9368 14.8128 20.5305 15.9378 20.2493 16.3128Z" fill="#9A4C18"/>
<path d="M20.9072 16.1246C20.7197 16.4058 21.7509 17.1558 22.4072 17.5308C22.7822 17.8121 23.2509 17.8121 23.5322 17.6246L25.5009 16.7808C25.6884 16.6871 25.8759 16.4996 25.8759 16.2183C25.9697 15.6558 25.5009 14.9996 25.1259 14.4371C24.7509 13.9683 24.0947 13.7808 23.6259 13.9683C22.0322 14.9996 21.0947 15.7496 20.9072 16.1246Z" fill="#E5895B"/>
<path d="M21.2814 16.0306C21.1877 16.2181 21.9377 16.8743 22.5002 17.2493C22.7814 17.4368 23.1564 17.5306 23.4377 17.3431L25.1252 16.7806C25.3127 16.6868 25.4064 16.5931 25.4064 16.4056C25.4064 15.9368 25.1252 15.3743 24.7502 14.9993C24.3752 14.6243 23.9064 14.4368 23.5314 14.6243C22.4064 15.0931 21.4689 15.7493 21.2814 16.0306Z" fill="#FAD395"/>
<path d="M22.5008 18.3746C22.3133 18.6558 23.2508 19.3121 24.0008 19.7808C24.3758 20.0621 24.8446 20.0621 25.1258 19.8746L27.2821 18.9371C27.4696 18.8433 27.6571 18.6558 27.6571 18.3746C27.7508 17.8121 27.2821 17.1558 26.9071 16.6871C26.5321 16.2183 25.8758 16.0308 25.4071 16.2183C23.9071 17.0621 22.6883 17.9996 22.5008 18.3746Z" fill="#9A4C18"/>
<path d="M22.968 18.1868C22.7805 18.4681 23.6242 19.0306 24.2805 19.4056C24.6555 19.5931 25.0305 19.6868 25.3117 19.4993L26.9992 18.7493C27.1867 18.6556 27.2805 18.4681 27.3742 18.2806C27.468 17.8118 27.093 17.2493 26.718 16.7806C26.343 16.4056 25.7805 16.2181 25.4055 16.4056C23.9992 17.1556 23.1555 17.9056 22.968 18.1868Z" fill="#E5895B"/>
<path d="M23.343 18.0931C23.2493 18.2806 23.9055 18.7493 24.3743 19.1243C24.6555 19.3118 24.9368 19.3118 25.218 19.2181L26.6243 18.7493C26.8118 18.6556 26.9055 18.5618 26.9055 18.3743C26.9055 17.9993 26.6243 17.5306 26.343 17.1556C26.0618 16.8743 25.593 16.6868 25.3118 16.8743C24.2805 17.3431 23.5305 17.8118 23.343 18.0931Z" fill="#FAD395"/>
<path d="M4.96783 19.7819C4.96783 20.1569 3.84283 20.3444 3.09283 20.4382C2.62408 20.5319 2.24908 20.3444 2.06158 20.0632L0.56158 18.2819C0.37408 18.0944 0.37408 17.9069 0.46783 17.6257C0.65533 17.0632 1.31158 16.6882 1.87408 16.4069C2.43658 16.1257 3.09283 16.3132 3.37408 16.6882C4.31158 18.0007 4.96783 19.3132 4.96783 19.7819Z" fill="#9A4C18"/>
<path d="M4.59352 19.4061C4.59352 19.6874 3.65602 19.8749 2.90602 19.9686C2.53102 19.9686 2.15602 19.8749 1.96852 19.5936L0.74977 18.2811C0.65602 18.0936 0.56227 17.9061 0.65602 17.7186C0.84352 17.2499 1.40602 16.8749 1.87477 16.6874C2.34352 16.4999 2.90602 16.5936 3.18727 16.8749C4.12477 18.0936 4.59352 19.0311 4.59352 19.4061Z" fill="#E5895B"/>
<path d="M4.31227 19.1249C4.31227 19.3124 3.46852 19.4999 2.90602 19.5936C2.62477 19.5936 2.24977 19.4999 2.15602 19.3124L1.12477 18.2811C1.03102 18.1874 0.93727 17.9999 1.03102 17.8124C1.12477 17.4374 1.59352 17.1561 2.06227 16.9686C2.43727 16.7811 2.90602 16.8749 3.18727 17.1561C3.84352 18.0936 4.31227 18.8436 4.31227 19.1249Z" fill="#FAD395"/>
<path d="M9.65625 17.0625C9.65625 17.4375 8.34375 17.7187 7.40625 17.8125C6.9375 17.9062 6.375 17.7187 6.1875 17.3437L4.40625 15.2812C4.21875 15.0937 4.21875 14.8125 4.21875 14.5312C4.40625 13.875 5.15625 13.4062 5.8125 13.125C6.46875 12.8437 7.21875 12.9375 7.59375 13.4063C8.8125 15 9.65625 16.5938 9.65625 17.0625Z" fill="#9A4C18"/>
<path d="M9.18815 16.6881C9.18815 17.0631 8.06315 17.2507 7.2194 17.3444C6.75065 17.4382 6.37565 17.2507 6.0944 16.9694L4.68815 15.3757C4.68815 15.0944 4.5944 14.9069 4.68815 14.6257C4.87565 14.0632 5.5319 13.6882 6.0944 13.4069C6.6569 13.1257 7.31315 13.3132 7.5944 13.6882C8.62565 15.0944 9.18815 16.2194 9.18815 16.6881Z" fill="#E5895B"/>
<path d="M8.90602 16.3124C8.90602 16.5936 7.96852 16.7811 7.31227 16.7811C6.93727 16.7811 6.56227 16.6874 6.37477 16.4999L5.15602 15.2811C5.06227 15.0936 4.96852 14.9999 5.06227 14.8124C5.24977 14.4374 5.81227 14.0624 6.28102 13.8749C6.65602 13.6874 7.21852 13.7811 7.49977 14.0624C8.34352 15.0936 8.81227 16.0311 8.90602 16.3124Z" fill="#FAD395"/>
<path d="M6.84283 17.9069C6.84283 18.2819 5.71783 18.4694 4.96783 18.5631C4.49908 18.6569 4.12408 18.4694 3.93658 18.1882L2.43658 16.4069C2.24908 16.2194 2.24908 16.0319 2.34283 15.7507C2.53033 15.1882 3.18658 14.8132 3.74908 14.5319C4.31158 14.2507 4.96783 14.4382 5.24908 14.8132C6.18658 16.1257 6.84283 17.5319 6.84283 17.9069Z" fill="#9A4C18"/>
<path d="M6.46852 17.5311C6.46852 17.8124 5.53102 17.9999 4.78102 18.0936C4.40602 18.0936 4.03102 17.9999 3.84352 17.7186L2.62477 16.4061C2.53102 16.2186 2.43727 16.0311 2.53102 15.8436C2.71852 15.3749 3.28102 14.9999 3.74977 14.8124C4.21852 14.6249 4.78102 14.7186 5.06227 14.9999C5.99977 16.2186 6.37477 17.2499 6.46852 17.5311Z" fill="#E5895B"/>
<path d="M7.3125 17.1562C7.3125 17.3437 6.46875 17.3437 5.90625 17.25C5.625 17.25 5.34375 17.0625 5.25 16.875L4.5 15.5625C4.40625 15.375 4.40625 15.2813 4.5 15.0938C4.6875 14.8125 5.25 14.625 5.71875 14.5312C6 14.5312 6.46875 14.7188 6.5625 15C7.125 16.0313 7.3125 16.875 7.3125 17.1562Z" fill="#FAD395"/>
<path d="M10.4062 26.7187L15.6563 26.625L14.5312 23.0625L12.4687 23.4375L10.4062 26.7187Z" fill="#404C5C"/>
<path d="M23.25 23.2492C23.3438 21.3742 21.6562 21.3742 21.6562 21.3742C21.6562 21.3742 20.7188 21.2805 19.9688 21.9367C19.3125 21.093 18.2812 20.9992 18.2812 20.9992C18.2812 20.9992 16.4062 20.6242 16.4062 22.6867C16.4062 24.6555 19.6875 26.6242 19.875 26.718C20.0625 26.5305 23.1562 25.0305 23.25 23.2492ZM10.5938 22.3117C10.6875 20.5305 9.09375 20.4367 9.09375 20.4367C9.09375 20.4367 8.15625 20.343 7.5 20.9992C6.84375 20.1555 5.90625 20.0617 5.90625 20.0617C5.90625 20.0617 4.125 19.6867 4.125 21.6555C4.125 23.5305 7.3125 25.4055 7.40625 25.4992C7.5 25.4992 10.5 24.093 10.5938 22.3117Z" fill="#DD4545"/>
<path d="M9.75 22.4057C9.84375 20.9994 8.53125 20.9994 8.53125 20.9994C8.53125 20.9994 7.78125 20.9057 7.3125 21.4682C6.84375 20.9057 6.09375 20.8119 6.09375 20.8119C6.09375 20.8119 4.6875 20.5307 4.6875 22.0307C4.6875 23.4369 7.125 24.8432 7.21875 24.9369C7.5 24.8432 9.75 23.7182 9.75 22.4057ZM22.4062 23.2494C22.5 21.8432 21.1875 21.8432 21.1875 21.8432C21.1875 21.8432 20.4375 21.7494 19.9687 22.3119C19.5 21.7494 18.75 21.6557 18.75 21.6557C18.75 21.6557 17.3438 21.3744 17.3438 22.8744C17.3438 24.2807 19.7813 25.6869 19.875 25.7807C20.0625 25.6869 22.4062 24.5619 22.4062 23.2494Z" fill="#FF6C6C"/>
<path d="M9.7056 19.8291C9.71965 19.467 9.31165 19.1571 8.7943 19.137C8.27695 19.1169 7.84615 19.3942 7.8321 19.7564C7.81804 20.1185 8.22604 20.4284 8.74339 20.4485C9.26074 20.4686 9.69154 20.1913 9.7056 19.8291Z" fill="white"/>
<path d="M21.7642 20.3311C21.7782 19.9689 21.3702 19.6591 20.8529 19.639C20.3355 19.6189 19.9047 19.8962 19.8907 20.2583C19.8766 20.6205 20.2846 20.9303 20.802 20.9504C21.3193 20.9705 21.7501 20.6932 21.7642 20.3311Z" fill="white"/>
</g>
<defs>
<clipPath id="clip0_52_74577">
<rect width="30" height="30" fill="white"/>
</clipPath>
</defs>
</svg>
