<svg width="6" height="9" viewBox="0 0 6 9" fill="none" xmlns="http://www.w3.org/2000/svg">
<path d="M0.184565 4.94508L4.05499 8.8155C4.21416 8.97468 4.44617 9.03685 4.66362 8.97858C4.88106 8.92032 5.0509 8.75048 5.10916 8.53304C5.16743 8.31559 5.10526 8.08359 4.94608 7.92441L1.52171 4.50003L4.94608 1.07566C5.10526 0.916484 5.16743 0.684476 5.10916 0.467033C5.0509 0.24959 4.88106 0.0797481 4.66362 0.0214845C4.44617 -0.0367791 4.21416 0.0253874 4.05499 0.184567L0.184565 4.05499C0.0663908 4.17315 0 4.33342 0 4.50054C0 4.66765 0.0663908 4.82792 0.184565 4.94608V4.94508Z" fill="white"/>
</svg>
