<svg width="20" height="21" viewBox="0 0 20 21" fill="none" xmlns="http://www.w3.org/2000/svg">
<g clip-path="url(#clip0_52_32104)">
<path fill-rule="evenodd" clip-rule="evenodd" d="M19.99 5.63294C19.9846 3.68259 19.1884 2.12404 17.5992 0.991282C16.6623 0.323619 15.5968 0.0137753 14.4468 0.013109C13.6398 0.0124426 12.8329 0.00911099 12.0253 0.00644567C9.86573 -0.000217636 7.70615 -0.00887993 5.54658 0.0217713C3.16978 0.0550878 1.45864 1.20584 0.462474 3.36209C0.311217 3.69259 0.233256 4.05774 0.155295 4.42222C0.120646 4.58747 0.0853308 4.75272 0.0426856 4.9153C0.031358 4.96061 0.0240284 5.00726 0.0166987 5.0539C0.0133671 5.07722 0.0100354 5.10054 0.00537109 5.12387V14.8809C0.0220294 14.9756 0.0366886 15.0702 0.0506816 15.1655C0.0819991 15.372 0.113317 15.5786 0.168622 15.7772C0.789642 18.0147 2.24224 19.3847 4.50643 19.8938C4.64237 19.9244 4.7803 19.9444 4.91889 19.9637L5.11879 19.9937H14.8785C14.9725 19.977 15.0671 19.9624 15.1611 19.9484C15.369 19.9164 15.5762 19.8851 15.7768 19.8291C18.0103 19.2081 19.3876 17.7615 19.8867 15.498C19.9666 15.1335 19.9866 14.7497 19.988 14.3745C19.996 11.4613 19.9973 8.54681 19.99 5.63294ZM18.2169 14.4019C18.2115 16.1103 17.2507 17.479 15.6648 18.0127C15.2543 18.1506 14.7986 18.2113 14.3641 18.2133C11.4503 18.2306 8.5364 18.2266 5.62187 18.2199C3.90674 18.2173 2.5261 17.2624 1.9897 15.6719C1.85111 15.2614 1.78847 14.807 1.78647 14.3719C1.76915 11.4587 1.77315 8.54481 1.77848 5.63161C1.78181 3.91314 2.73733 2.55183 4.3192 1.98545C4.75364 1.82953 5.20475 1.78288 5.66252 1.78288C6.75064 1.78155 7.83809 1.78155 8.92554 1.78222H11.251C12.2832 1.78222 13.3147 1.78288 14.3455 1.78155C15.1737 1.77955 15.9433 1.97679 16.621 2.46654C17.6871 3.23748 18.2155 4.29362 18.2182 5.60229C18.2242 8.53614 18.2268 11.4687 18.2169 14.4019ZM10.005 4.85333C7.18575 4.84467 4.87425 7.14151 4.8476 9.98142C4.81961 12.7967 7.13777 15.1315 9.98101 15.1535C12.7996 15.1741 15.1331 12.854 15.1484 10.0161C15.1637 7.19482 12.8402 4.86266 10.005 4.85333ZM9.99567 13.3757C8.13327 13.373 6.6207 11.8591 6.62403 10.0007C6.62736 8.13901 8.14127 6.62711 10.0003 6.63044C11.8627 6.6331 13.3753 8.14767 13.372 10.0054C13.3686 11.8671 11.8541 13.3797 9.99567 13.3764V13.3757ZM14.0643 4.65077C14.0643 3.94446 14.644 3.36475 15.355 3.35742C16.0706 3.35076 16.665 3.93713 16.665 4.65144C16.665 5.35508 16.0799 5.94212 15.3743 5.94678C14.6593 5.95211 14.0629 5.36241 14.0643 4.65077Z" fill="#E50914"/>
</g>
<defs>
<clipPath id="clip0_52_32104">
<rect width="19.9899" height="20.6562" fill="white" transform="translate(0.00488281)"/>
</clipPath>
</defs>
</svg>
