<svg width="23" height="215" viewBox="0 0 23 215" fill="none" xmlns="http://www.w3.org/2000/svg">
<path d="M22.1517 136.156L11.7602 132.637C11.5086 132.551 11.2211 132.551 10.9682 132.637L0.577256 136.156C0.238073 136.27 0.0140844 136.523 0.00150571 136.805C-0.0106316 137.086 0.187906 137.35 0.515908 137.482L10.9067 141.689C11.05 141.748 11.2071 141.776 11.3645 141.776C11.5228 141.776 11.6797 141.748 11.8232 141.689L22.2145 137.482C22.5422 137.35 22.741 137.086 22.7291 136.805C22.7149 136.523 22.4914 136.27 22.1517 136.156Z" fill="#5361FD"/>
<path d="M21.2975 139.304L11.3636 143.328L1.4314 139.304C0.955907 139.111 0.367137 139.248 0.115122 139.608C-0.138658 139.969 0.0413418 140.415 0.515507 140.608L10.9063 144.816C11.0496 144.874 11.2066 144.903 11.3641 144.903C11.5224 144.903 11.6793 144.875 11.8228 144.816L22.2141 140.608C22.6872 140.415 22.8669 139.969 22.6146 139.608C22.3607 139.248 21.7715 139.111 21.2975 139.304Z" fill="#5361FD"/>
<path d="M21.2975 142.19L11.3636 146.212L1.4314 142.19C0.955907 141.997 0.367137 142.134 0.115122 142.494C-0.138658 142.854 0.0413418 143.302 0.515507 143.493L10.9063 147.701C11.0496 147.759 11.2066 147.788 11.3641 147.788C11.5224 147.788 11.6793 147.759 11.8228 147.701L22.2141 143.493C22.6872 143.302 22.8669 142.854 22.6146 142.494C22.3607 142.134 21.7723 141.997 21.2975 142.19Z" fill="#5361FD"/>
<g opacity="0.5">
<path d="M19.4921 206.678C19.4921 206.486 19.4812 206.303 19.4594 206.112L21.4926 204.938C21.9298 204.689 22.0501 204.223 21.7768 203.857L19.7326 201.168C19.6016 200.992 19.3896 200.859 19.1374 200.794C18.8851 200.73 18.6105 200.739 18.3662 200.819L16.016 201.576C15.6116 201.36 15.1852 201.168 14.7371 201.01L14.4201 199.088C14.3545 198.672 13.8844 198.356 13.3379 198.356L9.26051 198.356C8.70302 198.356 8.23298 198.672 8.16739 199.088L7.85038 201.01C7.4022 201.168 6.97588 201.36 6.57143 201.576L4.22121 200.819C3.71838 200.652 3.12809 200.802 2.85481 201.168L0.810667 203.865C0.537386 204.231 0.657629 204.689 1.09488 204.947L3.12809 206.12C3.08277 206.494 3.08277 206.87 3.12809 207.244L1.09488 208.417C0.657629 208.667 0.537386 209.133 0.810667 209.499L2.85481 212.187C3.12809 212.553 3.71838 212.703 4.22121 212.537L6.57143 211.779C6.97588 211.996 7.4022 212.187 7.85038 212.345L8.16739 214.268C8.23298 214.684 8.70302 215 9.24958 215L13.3269 215C13.8735 215 14.3435 214.684 14.4091 214.268L14.7261 212.345C15.1743 212.187 15.6006 211.996 16.0051 211.779L18.3553 212.537C18.8581 212.703 19.4484 212.553 19.7217 212.187L21.7658 209.499C22.0391 209.133 21.9189 208.675 21.4816 208.417L19.4484 207.244C19.4812 207.052 19.4921 206.869 19.4921 206.678ZM11.3374 209.59C9.22772 209.59 7.51151 208.284 7.51151 206.678C7.51151 205.072 9.22772 203.765 11.3374 203.765C13.4472 203.765 15.1634 205.072 15.1634 206.678C15.1634 208.284 13.4472 209.59 11.3374 209.59Z" fill="white"/>
</g>
<g opacity="0.5">
<path d="M7.97191 15.1312L3.54326 15.1312C2.32538 15.1312 1.32893 14.3747 1.32893 13.45L1.32893 1.68125C1.32893 0.756561 2.32538 0 3.54326 0L7.97191 0C9.18979 -1.0049e-10 10.1862 0.756561 10.1862 1.68125L10.1862 13.45C10.1862 14.3747 9.18979 15.1312 7.97191 15.1312ZM14.6149 15.1312L19.0435 15.1312C20.2614 15.1312 21.2579 14.3747 21.2579 13.45L21.2579 9.24686C21.2579 8.32218 20.2614 7.56562 19.0435 7.56562L14.6149 7.56562C13.397 7.56562 12.4006 8.32218 12.4006 9.24686L12.4006 13.45C12.4006 14.3747 13.397 15.1312 14.6149 15.1312ZM21.2579 4.20312L21.2579 1.68125C21.2579 0.756561 20.2614 -2.42024e-10 19.0435 -2.26456e-10L14.6149 -1.69842e-10C13.397 -1.54273e-10 12.4006 0.756561 12.4006 1.68125L12.4006 4.20312C12.4006 5.12781 13.397 5.88437 14.6149 5.88437L19.0435 5.88437C20.2614 5.88437 21.2579 5.12781 21.2579 4.20312Z" fill="white"/>
</g>
<g opacity="0.5">
<path fill-rule="evenodd" clip-rule="evenodd" d="M16.9551 70.1033C16.9551 72.5017 14.4224 74.4248 11.2613 74.4248C8.10128 74.4248 5.56745 72.5017 5.56745 70.1033C5.56745 67.7049 8.10128 65.7826 11.2613 65.7826C14.4224 65.7826 16.9551 67.7049 16.9551 70.1033ZM11.2611 81.6344C6.59588 81.6344 2.65688 81.0586 2.65688 78.8374C2.65688 76.6154 6.62062 76.0601 11.2611 76.0601C15.9274 76.0601 19.8654 76.6359 19.8654 78.857C19.8654 81.0791 15.9016 81.6344 11.2611 81.6344Z" fill="white"/>
</g>
</svg>
