<svg width="760" height="46" viewBox="0 0 760 46" fill="none" xmlns="http://www.w3.org/2000/svg">
<g filter="url(#filter0_dd_52_125211)">
<rect width="760" height="46" rx="22" fill="white" shape-rendering="crispEdges"/>
<path d="M690 0H738C750.15 0 760 9.84974 760 22V24C760 36.1503 750.15 46 738 46H690V0Z" fill="#0078D4"/>
<path d="M723.002 13.75C724.372 13.7497 725.714 14.1377 726.873 14.8691C728.032 15.6004 728.96 16.6452 729.549 17.8823C730.138 19.1194 730.365 20.4982 730.202 21.8588C730.04 23.2195 729.496 24.5062 728.632 25.57L733.532 30.47C733.665 30.6043 733.742 30.784 733.749 30.9731C733.755 31.1621 733.69 31.3466 733.566 31.4895C733.442 31.6324 733.269 31.7232 733.08 31.7437C732.892 31.7642 732.704 31.7128 732.552 31.6L732.472 31.53L727.572 26.63C726.671 27.3611 725.607 27.8652 724.471 28.1C723.335 28.3348 722.158 28.2934 721.041 27.9793C719.924 27.6652 718.899 27.0876 718.052 26.295C717.204 25.5024 716.559 24.5179 716.171 23.4243C715.783 22.3307 715.663 21.16 715.822 20.0105C715.98 18.861 716.412 17.7663 717.081 16.8184C717.751 15.8705 718.638 15.0971 719.668 14.5631C720.698 14.0292 721.841 13.7503 723.002 13.75ZM723.002 15.25C722.247 15.25 721.499 15.3987 720.801 15.6877C720.104 15.9767 719.47 16.4002 718.936 16.9341C718.402 17.4681 717.978 18.1019 717.689 18.7996C717.401 19.4972 717.252 20.2449 717.252 21C717.252 21.7551 717.401 22.5028 717.689 23.2004C717.978 23.8981 718.402 24.5319 718.936 25.0659C719.47 25.5998 720.104 26.0233 720.801 26.3123C721.499 26.6013 722.247 26.75 723.002 26.75C724.527 26.75 725.989 26.1442 727.068 25.0659C728.146 23.9875 728.752 22.525 728.752 21C728.752 19.475 728.146 18.0125 727.068 16.9341C725.989 15.8558 724.527 15.25 723.002 15.25Z" fill="white"/>
<g clip-path="url(#clip0_52_125211)">
<path d="M668.252 20.333C668.632 20.333 668.952 20.6597 668.992 21.0913L669.002 21.208V21.7913C669.001 23.7786 668.357 25.6923 667.198 27.1485C666.039 28.6047 664.45 29.4958 662.752 29.643V32.2913C662.765 32.5234 662.699 32.7521 662.567 32.9271C662.436 33.1022 662.251 33.2092 662.052 33.2247C661.853 33.2401 661.657 33.1628 661.507 33.0096C661.357 32.8565 661.265 32.6401 661.252 32.408V29.643C659.592 29.5003 658.036 28.6472 656.882 27.2475C655.728 25.8478 655.059 24.0003 655.002 22.0597V21.208C654.988 20.9759 655.055 20.7472 655.186 20.5722C655.317 20.3972 655.503 20.2901 655.702 20.2747C655.901 20.2592 656.097 20.3366 656.247 20.4897C656.397 20.6429 656.488 20.8593 656.502 21.0913V21.7913C656.5 23.3723 657.023 24.8925 657.961 26.0341C658.898 27.1757 660.178 27.8501 661.532 27.9163H662.252C663.607 27.9177 664.91 27.3078 665.888 26.214C666.867 25.1203 667.445 23.6276 667.502 22.048V21.208C667.502 20.7297 667.842 20.333 668.252 20.333ZM662.002 9.83301C663.063 9.83301 664.08 10.3247 664.83 11.1998C665.58 12.075 666.002 13.262 666.002 14.4997V21.4997C666.002 22.7374 665.58 23.9243 664.83 24.7995C664.08 25.6747 663.063 26.1663 662.002 26.1663C660.941 26.1663 659.923 25.6747 659.173 24.7995C658.423 23.9243 658.002 22.7374 658.002 21.4997V14.4997C658.002 13.262 658.423 12.075 659.173 11.1998C659.923 10.3247 660.941 9.83301 662.002 9.83301ZM662.002 11.583C661.339 11.583 660.703 11.8903 660.234 12.4373C659.765 12.9843 659.502 13.7261 659.502 14.4997V21.4997C659.502 22.2732 659.765 23.0151 660.234 23.5621C660.703 24.109 661.339 24.4163 662.002 24.4163C662.665 24.4163 663.301 24.109 663.769 23.5621C664.238 23.0151 664.502 22.2732 664.502 21.4997V14.4997C664.502 13.7261 664.238 12.9843 663.769 12.4373C663.301 11.8903 662.665 11.583 662.002 11.583Z" fill="#0078D4"/>
</g>
</g>
<defs>
<filter id="filter0_dd_52_125211" x="-3.6" y="-2.9" width="767.2" height="54.1" filterUnits="userSpaceOnUse" color-interpolation-filters="sRGB">
<feFlood flood-opacity="0" result="BackgroundImageFix"/>
<feColorMatrix in="SourceAlpha" type="matrix" values="0 0 0 0 0 0 0 0 0 0 0 0 0 0 0 0 0 0 127 0" result="hardAlpha"/>
<feOffset dy="1.6"/>
<feGaussianBlur stdDeviation="1.8"/>
<feComposite in2="hardAlpha" operator="out"/>
<feColorMatrix type="matrix" values="0 0 0 0 0 0 0 0 0 0 0 0 0 0 0 0 0 0 0.13 0"/>
<feBlend mode="normal" in2="BackgroundImageFix" result="effect1_dropShadow_52_125211"/>
<feColorMatrix in="SourceAlpha" type="matrix" values="0 0 0 0 0 0 0 0 0 0 0 0 0 0 0 0 0 0 127 0" result="hardAlpha"/>
<feOffset/>
<feGaussianBlur stdDeviation="1.45"/>
<feComposite in2="hardAlpha" operator="out"/>
<feColorMatrix type="matrix" values="0 0 0 0 0 0 0 0 0 0 0 0 0 0 0 0 0 0 0.11 0"/>
<feBlend mode="normal" in2="effect1_dropShadow_52_125211" result="effect2_dropShadow_52_125211"/>
<feBlend mode="normal" in="SourceGraphic" in2="effect2_dropShadow_52_125211" result="shape"/>
</filter>
<clipPath id="clip0_52_125211">
<rect width="24" height="28" fill="white" transform="translate(650 7.5)"/>
</clipPath>
</defs>
</svg>
