<svg width="204" height="1108" viewBox="0 0 204 1108" fill="none" xmlns="http://www.w3.org/2000/svg">
<g filter="url(#filter0_d_37_42187)">
<rect x="42" y="38" width="120" height="1024" fill="#16181D"/>
</g>
<rect x="42" y="38" width="120" height="120" fill="#EBB000"/>
<rect x="57" y="53" width="90" height="90" rx="45" fill="white" fill-opacity="0.2"/>
<path d="M126.727 99.8751V113C126.72 114.49 126.126 115.917 125.072 116.971C124.019 118.024 122.592 118.619 121.102 118.625H117.352C115.86 118.625 114.429 118.032 113.374 116.978C112.319 115.923 111.727 114.492 111.727 113V103.625C111.727 102.133 112.319 100.702 113.374 99.6476C114.429 98.5927 115.86 98.0001 117.352 98.0001H122.883C122.413 92.849 120.024 88.0626 116.191 84.5897C112.358 81.1169 107.36 79.211 102.188 79.2501H102.164C96.9887 79.2001 91.9846 81.1022 88.1491 84.5772C84.3135 88.0522 81.9283 92.8449 81.4688 98.0001H87C88.4899 98.0062 89.9171 98.6008 90.9707 99.6544C92.0242 100.708 92.6188 102.135 92.625 103.625V113C92.6188 114.49 92.0242 115.917 90.9707 116.971C89.9171 118.024 88.4899 118.619 87 118.625H83.25C81.7601 118.619 80.3329 118.024 79.2793 116.971C78.2258 115.917 77.6312 114.49 77.625 113V99.8751C77.6249 96.6602 78.2608 93.4772 79.496 90.5091C80.7312 87.541 82.5413 84.8467 84.8222 82.5811C87.103 80.3155 89.8095 78.5235 92.7858 77.3082C95.762 76.0929 98.9493 75.4784 102.164 75.5001H102.352C108.814 75.5063 115.011 78.0763 119.58 82.6462C124.15 87.216 126.72 93.4123 126.727 99.8751Z" fill="white"/>
<rect x="70" y="238" width="64" height="64" rx="16" fill="#EBB000"/>
<path d="M114 268.437V280C113.999 280.361 113.901 280.715 113.716 281.025C113.532 281.335 113.267 281.59 112.95 281.762C112.659 281.923 112.332 282.005 112 282H106C105.735 282 105.48 281.895 105.293 281.707C105.105 281.52 105 281.265 105 281V275C105 274.735 104.895 274.48 104.707 274.293C104.52 274.105 104.265 274 104 274H100C99.7348 274 99.4805 274.105 99.2929 274.293C99.1054 274.48 99 274.735 99 275V281C99 281.265 98.8947 281.52 98.7071 281.707C98.5196 281.895 98.2652 282 98 282H92C91.7163 282.001 91.4356 281.941 91.1769 281.825C90.9182 281.708 90.6874 281.538 90.5 281.325C90.1749 280.941 89.9976 280.453 90 279.95V268.437C90.0001 268.16 90.0579 267.886 90.1699 267.632C90.2818 267.378 90.4453 267.15 90.65 266.962L100.65 257.875C101.019 257.538 101.5 257.351 102 257.351C102.5 257.351 102.981 257.538 103.35 257.875L113.35 266.962C113.555 267.15 113.718 267.378 113.83 267.632C113.942 267.886 114 268.16 114 268.437Z" fill="white"/>
<path d="M113 366V383.5C113.002 384.507 112.668 385.485 112.05 386.28C111.432 387.075 110.566 387.641 109.59 387.887C108.614 388.133 107.583 388.045 106.662 387.638C105.742 387.231 104.983 386.528 104.508 385.64C104.033 384.752 103.869 383.731 104.041 382.739C104.213 381.748 104.712 380.842 105.458 380.166C106.205 379.49 107.155 379.083 108.16 379.01C109.164 378.937 110.163 379.202 111 379.763V372.275L96.9996 375.775V387.5C97.002 388.507 96.6677 389.485 96.0499 390.28C95.432 391.075 94.5661 391.641 93.5899 391.887C92.6136 392.133 91.5832 392.045 90.6624 391.638C89.7416 391.231 88.9834 390.528 88.5084 389.64C88.0335 388.752 87.8689 387.731 88.0411 386.739C88.2132 385.748 88.7121 384.842 89.4584 384.166C90.2046 383.49 91.1555 383.083 92.1596 383.01C93.1636 382.937 94.1633 383.202 94.9996 383.763V370C94.9988 369.776 95.0736 369.557 95.2119 369.38C95.3502 369.204 95.544 369.078 95.7621 369.025L111.762 365.025C111.909 364.99 112.061 364.989 112.209 365.022C112.356 365.054 112.494 365.119 112.612 365.213C112.734 365.304 112.832 365.424 112.899 365.56C112.967 365.697 113.001 365.848 113 366Z" fill="#8999A9"/>
<path d="M102.012 457C99.4406 457 96.9271 457.762 94.7893 459.191C92.6515 460.619 90.9852 462.65 90.0013 465.025C89.0174 467.401 88.7599 470.014 89.2615 472.536C89.7631 475.058 91.0013 477.374 92.8193 479.192C94.6374 481.01 96.9538 482.249 99.4755 482.75C101.997 483.252 104.611 482.994 106.987 482.01C109.362 481.026 111.392 479.36 112.821 477.222C114.249 475.085 115.012 472.571 115.012 470C115.005 466.554 113.633 463.251 111.197 460.815C108.76 458.378 105.458 457.007 102.012 457ZM108.562 464.762L105.049 472.538C104.941 472.763 104.754 472.94 104.524 473.038L97.0992 476.225C96.9759 476.274 96.8444 476.299 96.7117 476.3C96.4462 476.299 96.1912 476.196 95.9992 476.013C95.858 475.871 95.7623 475.691 95.7245 475.495C95.6866 475.299 95.7083 475.096 95.7867 474.913L98.9742 467.488C99.0714 467.257 99.2492 467.071 99.4742 466.962L107.237 463.438C107.422 463.36 107.626 463.339 107.823 463.378C108.021 463.417 108.202 463.513 108.344 463.655C108.486 463.798 108.582 463.979 108.621 464.176C108.66 464.373 108.639 464.577 108.562 464.762Z" fill="#8999A9"/>
<path d="M112 549H95C93.9401 549.003 92.9246 549.426 92.1752 550.175C91.4258 550.925 91.0033 551.94 91 553V574C91 574.265 91.1054 574.52 91.2929 574.707C91.4804 574.895 91.7348 575 92 575H110C110.265 575 110.52 574.895 110.707 574.707C110.895 574.52 111 574.265 111 574C111 573.735 110.895 573.48 110.707 573.293C110.52 573.105 110.265 573 110 573H93C93 572.47 93.2107 571.961 93.5858 571.586C93.9609 571.211 94.4696 571 95 571H112C112.265 571 112.52 570.895 112.707 570.707C112.895 570.52 113 570.265 113 570V550C113 549.735 112.895 549.48 112.707 549.293C112.52 549.105 112.265 549 112 549ZM109 561L105.8 558.6C105.714 558.533 105.609 558.497 105.5 558.497C105.391 558.497 105.286 558.533 105.2 558.6L102 561V551H109V561Z" fill="#8999A9"/>
<path d="M114.988 665.5C114.903 665.653 114.777 665.78 114.626 665.868C114.474 665.956 114.301 666.002 114.126 666H89.8756C89.7002 666.002 89.5274 665.956 89.3756 665.868C89.2238 665.78 89.0986 665.653 89.0131 665.5C88.9215 665.349 88.873 665.176 88.873 665C88.873 664.824 88.9215 664.651 89.0131 664.5C90.879 661.286 93.8657 658.873 97.4006 657.725C95.7063 656.717 94.3896 655.181 93.6528 653.353C92.9161 651.525 92.8 649.505 93.3225 647.604C93.8449 645.703 94.977 644.026 96.5448 642.831C98.1126 641.636 100.029 640.989 102.001 640.989C103.972 640.989 105.889 641.636 107.456 642.831C109.024 644.026 110.156 645.703 110.679 647.604C111.201 649.505 111.085 651.525 110.348 653.353C109.612 655.181 108.295 656.717 106.601 657.725C110.135 658.873 113.122 661.286 114.988 664.5C115.08 664.651 115.128 664.824 115.128 665C115.128 665.176 115.08 665.349 114.988 665.5Z" fill="#8999A9"/>
<path d="M115.5 741.5C115.5 745.325 113.287 749.25 108.925 753.175C106.944 754.956 104.787 756.531 102.487 757.875C102.338 757.957 102.17 758 102 758C101.83 758 101.662 757.957 101.512 757.875C100.975 757.575 88.5 750.487 88.5 741.5C88.5 739.926 88.9953 738.392 89.9157 737.115C90.8361 735.838 92.135 734.883 93.6283 734.385C95.1216 733.887 96.7337 733.872 98.2363 734.341C99.7388 734.81 101.056 735.741 102 737C102.944 735.741 104.261 734.81 105.764 734.341C107.266 733.872 108.878 733.887 110.372 734.385C111.865 734.883 113.164 735.838 114.084 737.115C115.005 738.392 115.5 739.926 115.5 741.5Z" fill="#8999A9"/>
<path d="M102 825C99.4288 825 96.9154 825.762 94.7776 827.191C92.6398 828.619 90.9735 830.65 89.9896 833.025C89.0056 835.401 88.7482 838.014 89.2498 840.536C89.7514 843.058 90.9895 845.374 92.8076 847.192C94.6257 849.01 96.9421 850.249 99.4638 850.75C101.986 851.252 104.599 850.994 106.975 850.01C109.35 849.026 111.381 847.36 112.809 845.222C114.238 843.085 115 840.571 115 838C114.993 834.554 113.622 831.251 111.185 828.815C108.749 826.378 105.446 825.007 102 825ZM109 839H102C101.735 839 101.48 838.895 101.293 838.707C101.105 838.52 101 838.265 101 838V831C101 830.735 101.105 830.48 101.293 830.293C101.48 830.105 101.735 830 102 830C102.265 830 102.52 830.105 102.707 830.293C102.895 830.48 103 830.735 103 831V837H109C109.265 837 109.52 837.105 109.707 837.293C109.895 837.48 110 837.735 110 838C110 838.265 109.895 838.52 109.707 838.707C109.52 838.895 109.265 839 109 839Z" fill="#8999A9"/>
<defs>
<filter id="filter0_d_37_42187" x="0" y="0" width="204" height="1108" filterUnits="userSpaceOnUse" color-interpolation-filters="sRGB">
<feFlood flood-opacity="0" result="BackgroundImageFix"/>
<feColorMatrix in="SourceAlpha" type="matrix" values="0 0 0 0 0 0 0 0 0 0 0 0 0 0 0 0 0 0 127 0" result="hardAlpha"/>
<feOffset dy="4"/>
<feGaussianBlur stdDeviation="21"/>
<feComposite in2="hardAlpha" operator="out"/>
<feColorMatrix type="matrix" values="0 0 0 0 0.1344 0 0 0 0 0.151467 0 0 0 0 0.1856 0 0 0 0.04 0"/>
<feBlend mode="normal" in2="BackgroundImageFix" result="effect1_dropShadow_37_42187"/>
<feBlend mode="normal" in="SourceGraphic" in2="effect1_dropShadow_37_42187" result="shape"/>
</filter>
</defs>
</svg>
