<svg width="19" height="16" viewBox="0 0 19 16" fill="none" xmlns="http://www.w3.org/2000/svg">
<path d="M16.9016 5.03282C16.9186 5.01666 16.9349 4.99915 16.9493 4.98067V4.98067C17.0592 4.84001 17.0731 4.64586 16.9774 4.49515C16.5775 3.86506 16.114 3.32889 15.5432 2.84941C15.3333 2.67302 15.0407 2.64068 14.7884 2.74831V2.74831C13.2604 3.53066 11.3249 2.74831 11.0193 1.18361V1.18361C10.957 0.970855 10.779 0.811185 10.5601 0.77623C10.1652 0.71318 9.75631 0.662045 9.28753 0.662045C8.80345 0.662045 8.44717 0.716572 8.06686 0.78244C7.88933 0.813188 7.75951 0.967668 7.75951 1.14785V1.14785C7.75951 1.17163 7.75726 1.19561 7.75231 1.21888C7.42473 2.76002 5.50688 3.52476 3.99038 2.74831V2.74831C3.73813 2.64068 3.44523 2.67275 3.23788 2.85223C2.67115 3.34277 2.21012 3.91637 1.81213 4.50024C1.71196 4.64718 1.72093 4.84176 1.83041 4.98189V4.98189C1.84421 4.99956 1.85975 5.01628 1.87599 5.03172C3.06654 6.16341 2.55307 7.96754 0.934324 8.48554V8.48554C0.757726 8.53577 0.642244 8.70593 0.666194 8.88797C0.763525 9.62776 0.928841 10.356 1.20963 10.9918C1.28551 11.1636 1.4596 11.2672 1.6474 11.2672V11.2672C3.37242 11.1806 4.79421 12.5603 4.30184 14.0317C4.29804 14.043 4.29293 14.0541 4.28688 14.0644V14.0644C4.23584 14.1516 4.26577 14.2637 4.35423 14.3124C5.19816 14.7767 6.12622 15.1609 7.13842 15.3346C7.20926 15.3467 7.28161 15.326 7.33628 15.2793V15.2793C7.34676 15.2704 7.3565 15.2605 7.36544 15.25C8.38524 14.0538 10.4972 14.0542 11.5163 15.2513C11.5245 15.2609 11.5335 15.27 11.5432 15.2783V15.2783C11.5981 15.3252 11.672 15.3433 11.7423 15.3264C12.7787 15.0782 13.7239 14.7496 14.4958 14.2006C14.5417 14.1679 14.5439 14.101 14.501 14.0645V14.0645C14.4891 14.0543 14.48 14.0409 14.4751 14.026C13.9872 12.5568 15.3073 11.1807 17.1314 11.2672V11.2672C17.3179 11.2672 17.4884 11.1597 17.5636 10.9891C17.8633 10.3089 18.0875 9.623 18.1389 8.88998C18.1521 8.70242 18.0253 8.53698 17.8445 8.48554V8.48554C16.2263 7.8814 15.7126 6.16335 16.9016 5.03282Z" stroke="#8F9CAC" stroke-width="1.3" stroke-miterlimit="10" stroke-linecap="round" stroke-linejoin="round"/>
<path d="M9.61162 10.9123C11.3513 10.8074 12.662 9.51896 12.5391 8.03441C12.4163 6.54986 10.9063 5.43139 9.16663 5.53625C7.42691 5.64111 6.11622 6.92959 6.2391 8.41414C6.36198 9.89869 7.87191 11.0172 9.61162 10.9123Z" stroke="#8F9CAC" stroke-width="1.3" stroke-miterlimit="10" stroke-linecap="round" stroke-linejoin="round"/>
</svg>
