<svg width="12" height="12" viewBox="0 0 12 12" fill="none" xmlns="http://www.w3.org/2000/svg">
<mask id="mask0_0_45" style="mask-type:luminance" maskUnits="userSpaceOnUse" x="-2" y="-2" width="17" height="17">
<rect x="-1.28278" y="-1.28278" width="15.3934" height="15.3934" fill="white"/>
</mask>
<g mask="url(#mask0_0_45)">
<path fill-rule="evenodd" clip-rule="evenodd" d="M5.13112 10.2622C6.31512 10.2622 7.40356 9.85495 8.272 9.17957L11.0916 11.9991L11.9985 11.0922L9.17893 8.27264C9.85495 7.40356 10.2622 6.31512 10.2622 5.13112C10.2622 2.30195 7.96029 0 5.13112 0C2.30195 0 0 2.30195 0 5.13112C0 7.96029 2.30195 10.2622 5.13112 10.2622ZM5.13112 1.28278C7.25348 1.28278 8.97946 3.00876 8.97946 5.13112C8.97946 7.25348 7.25348 8.97946 5.13112 8.97946C3.00876 8.97946 1.28278 7.25348 1.28278 5.13112C1.28278 3.00876 3.00876 1.28278 5.13112 1.28278Z" fill="#ADB5BD"/>
</g>
</svg>
