<svg width="20" height="20" viewBox="0 0 20 20" fill="none" xmlns="http://www.w3.org/2000/svg">
<path d="M16.116 11.6167V14.0583C16.116 15.2083 15.1827 16.1417 14.0327 16.1417H4.37435C3.22435 16.1417 2.29102 15.2083 2.29102 14.0583V5.20833C2.29102 4.05833 3.22435 3.125 4.37435 3.125H14.0327C15.1827 3.125 16.116 4.05833 16.116 5.20833V7.65" fill="white"/>
<path d="M12.0417 11.6166H16.1667C16.625 11.6166 17 11.2416 17 10.7832V8.48324C17 8.0249 16.625 7.6499 16.1667 7.6499H12.0417C11.125 7.6499 10.375 8.3999 10.375 9.31657V9.9499C10.375 10.8749 11.1167 11.6166 12.0417 11.6166Z" fill="#F73C51" stroke="#FFD6DB" stroke-width="1.2" stroke-miterlimit="10" stroke-linecap="round" stroke-linejoin="round"/>
<path d="M12.6152 9.6333H13.2319" stroke="white" stroke-width="1.2" stroke-miterlimit="10" stroke-linecap="round" stroke-linejoin="round"/>
</svg>
