<svg width="84" height="20" viewBox="0 0 84 20" fill="none" xmlns="http://www.w3.org/2000/svg">
<rect x="5" y="2" width="2" height="16" rx="1" fill="#9197A4"/>
<rect x="13" y="3" width="2" height="13" rx="1" fill="#9197A4"/>
<rect x="4" y="6" width="4" height="8" rx="1" fill="#0B071B" stroke="#9197A4" stroke-width="2"/>
<rect x="12" y="7" width="3" height="6" rx="1" fill="#0B071B" stroke="#9197A4" stroke-width="2"/>
<g clip-path="url(#clip0_12_19894)">
<path d="M36.7106 3V16.3333H50.3953V18H35V3H36.7106ZM49.7906 5.74417L51 6.9225L46.1188 11.6783L43.5529 9.17917L39.8812 12.7558L38.6718 11.5775L43.5529 6.82167L46.1188 9.32083L49.7906 5.74417Z" fill="#9197A4"/>
</g>
<g clip-path="url(#clip1_12_19894)">
<path d="M66.8118 14.7492C66.4609 14.128 66.1881 13.4638 66 12.7725C66.4095 12.5593 66.7533 12.2342 66.9936 11.8333C67.2338 11.4324 67.3611 10.9713 67.3613 10.5009C67.3614 10.0306 67.2345 9.56937 66.9946 9.16829C66.7546 8.7672 66.411 8.4419 66.0017 8.22835C66.3769 6.83926 67.0913 5.57083 68.0776 4.54256C68.4628 4.79898 68.9098 4.94127 69.3691 4.9537C69.8285 4.96612 70.2822 4.84819 70.6801 4.61295C71.078 4.37772 71.4046 4.03435 71.6237 3.62085C71.8428 3.20735 71.9459 2.73984 71.9216 2.27006C73.2846 1.9094 74.7149 1.90999 76.0776 2.27176C76.0535 2.74153 76.1568 3.20897 76.3761 3.62235C76.5954 4.03573 76.9221 4.37894 77.32 4.614C77.718 4.84905 78.1718 4.96679 78.6311 4.95418C79.0904 4.94158 79.5373 4.79911 79.9224 4.54256C80.403 5.04397 80.8296 5.61422 81.1882 6.25075C81.5476 6.88729 81.8166 7.55102 82 8.2275C81.5905 8.44073 81.2467 8.76578 81.0064 9.16668C80.7662 9.56758 80.6389 10.0287 80.6387 10.4991C80.6386 10.9694 80.7655 11.4306 81.0054 11.8317C81.2454 12.2328 81.589 12.5581 81.9983 12.7716C81.6231 14.1607 80.9087 15.4292 79.9224 16.4574C79.5372 16.201 79.0902 16.0587 78.6309 16.0463C78.1715 16.0339 77.7178 16.1518 77.3199 16.387C76.922 16.6223 76.5954 16.9657 76.3763 17.3792C76.1572 17.7927 76.0541 18.2602 76.0784 18.7299C74.7154 19.0906 73.2851 19.09 71.9224 18.7282C71.9465 18.2585 71.8432 17.791 71.6239 17.3777C71.4046 16.9643 71.0779 16.6211 70.68 16.386C70.282 16.1509 69.8282 16.0332 69.3689 16.0458C68.9096 16.0584 68.4627 16.2009 68.0776 16.4574C67.587 15.9449 67.1617 15.371 66.8118 14.7492ZM71.5099 14.9158C72.3944 15.4382 73.0594 16.2764 73.3775 17.2699C73.7917 17.3098 74.2075 17.3107 74.6217 17.2707C74.9399 16.2771 75.6053 15.4388 76.4901 14.9167C77.3743 14.3929 78.4163 14.2219 79.4161 14.4365C79.6568 14.0898 79.8643 13.7201 80.0369 13.3334C79.3558 12.5545 78.9796 11.5455 78.9803 10.5C78.9803 9.42919 79.3704 8.42892 80.0369 7.6666C79.8631 7.28005 79.6547 6.91078 79.4144 6.5635C78.4153 6.77792 77.374 6.60725 76.4901 6.08418C75.6056 5.56184 74.9406 4.72356 74.6225 3.7301C74.2083 3.69016 73.7925 3.68931 73.3783 3.72925C73.0601 4.72285 72.3947 5.56115 71.5099 6.08333C70.6257 6.60711 69.5837 6.7781 68.5839 6.5635C68.3437 6.91048 68.1358 7.27981 67.9631 7.6666C68.6442 8.44554 69.0204 9.45451 69.0197 10.5C69.0197 11.5708 68.6296 12.5711 67.9631 13.3334C68.1369 13.72 68.3453 14.0892 68.5856 14.4365C69.5847 14.2221 70.626 14.3928 71.5099 14.9158ZM74 13.0495C73.3396 13.0495 72.7062 12.7809 72.2392 12.3028C71.7722 11.8247 71.5099 11.1762 71.5099 10.5C71.5099 9.82382 71.7722 9.17533 72.2392 8.6972C72.7062 8.21907 73.3396 7.95045 74 7.95045C74.6604 7.95045 75.2938 8.21907 75.7608 8.6972C76.2278 9.17533 76.4901 9.82382 76.4901 10.5C76.4901 11.1762 76.2278 11.8247 75.7608 12.3028C75.2938 12.7809 74.6604 13.0495 74 13.0495ZM74 11.3498C74.2201 11.3498 74.4313 11.2603 74.5869 11.1009C74.7426 10.9416 74.83 10.7254 74.83 10.5C74.83 10.2746 74.7426 10.0584 74.5869 9.89907C74.4313 9.73969 74.2201 9.65015 74 9.65015C73.7799 9.65015 73.5687 9.73969 73.4131 9.89907C73.2574 10.0584 73.17 10.2746 73.17 10.5C73.17 10.7254 73.2574 10.9416 73.4131 11.1009C73.5687 11.2603 73.7799 11.3498 74 11.3498Z" fill="#9197A4"/>
</g>
<defs>
<clipPath id="clip0_12_19894">
<rect width="20" height="20" fill="white" transform="translate(32)"/>
</clipPath>
<clipPath id="clip1_12_19894">
<rect width="20" height="20" fill="white" transform="translate(64)"/>
</clipPath>
</defs>
</svg>
