<svg width="19" height="19" viewBox="0 0 19 19" fill="none" xmlns="http://www.w3.org/2000/svg">
<path d="M9.50207 4.62861C6.80627 4.62861 4.63182 6.80354 4.63182 9.49995C4.63182 12.1964 6.80627 14.3713 9.50207 14.3713C12.1979 14.3713 14.3723 12.1964 14.3723 9.49995C14.3723 6.80354 12.1979 4.62861 9.50207 4.62861ZM9.50207 12.667C7.75997 12.667 6.33577 11.2467 6.33577 9.49995C6.33577 7.75322 7.75573 6.33295 9.50207 6.33295C11.2484 6.33295 12.6684 7.75322 12.6684 9.49995C12.6684 11.2467 11.2442 12.667 9.50207 12.667ZM15.7075 4.42935C15.7075 5.06106 15.1989 5.56557 14.5715 5.56557C13.94 5.56557 13.4356 5.05682 13.4356 4.42935C13.4356 3.80189 13.9442 3.29313 14.5715 3.29313C15.1989 3.29313 15.7075 3.80189 15.7075 4.42935ZM18.9331 5.58253C18.8611 4.0605 18.5135 2.7123 17.3987 1.60152C16.2882 0.490737 14.9403 0.143087 13.4186 0.0667742C11.8503 -0.0222581 7.1496 -0.0222581 5.58129 0.0667742C4.06384 0.138848 2.71594 0.486497 1.60116 1.59728C0.486389 2.70806 0.143056 4.05626 0.0667592 5.57829C-0.0222531 7.14695 -0.0222531 11.8487 0.0667592 13.4174C0.138817 14.9394 0.486389 16.2876 1.60116 17.3984C2.71594 18.5092 4.0596 18.8568 5.58129 18.9331C7.1496 19.0222 11.8503 19.0222 13.4186 18.9331C14.9403 18.861 16.2882 18.5134 17.3987 17.3984C18.5093 16.2876 18.8568 14.9394 18.9331 13.4174C19.0221 11.8487 19.0221 7.15119 18.9331 5.58253ZM16.907 15.1005C16.5764 15.9315 15.9364 16.5716 15.1014 16.9066C13.851 17.4026 10.8839 17.2881 9.50207 17.2881C8.12026 17.2881 5.14894 17.3984 3.90277 16.9066C3.07199 16.5759 2.43194 15.9357 2.09709 15.1005C1.60116 13.8498 1.71561 10.8821 1.71561 9.49995C1.71561 8.11783 1.6054 5.14585 2.09709 3.8994C2.42771 3.06843 3.06775 2.42825 3.90277 2.09332C5.15318 1.59728 8.12026 1.71175 9.50207 1.71175C10.8839 1.71175 13.8552 1.60152 15.1014 2.09332C15.9321 2.42401 16.5722 3.06419 16.907 3.8994C17.403 5.15009 17.2885 8.11783 17.2885 9.49995C17.2885 10.8821 17.403 13.854 16.907 15.1005Z" fill="#FF285C"/>
</svg>
