<svg width="24" height="23" viewBox="0 0 24 23" fill="none" xmlns="http://www.w3.org/2000/svg">
<path d="M13.1161 11.3861C13.5785 11.3861 13.9533 10.9964 13.9533 10.5156C13.9533 10.0349 13.5785 9.64517 13.1161 9.64517V11.3861ZM6.41827 9.64517C5.95588 9.64517 5.58105 10.0349 5.58105 10.5156C5.58105 10.9964 5.95588 11.3861 6.41827 11.3861V9.64517ZM13.1161 9.64517H6.41827V11.3861H13.1161V9.64517Z" fill="#93989A"/>
<path d="M0 10.5151C0 10.9958 0.374838 11.3855 0.837225 11.3855C1.29961 11.3855 1.67445 10.9958 1.67445 10.5151H0ZM14.5119 4.71206C14.5119 5.19279 14.8868 5.58251 15.3491 5.58251C15.8115 5.58251 16.1864 5.19279 16.1864 4.71206H14.5119ZM1.67445 10.5151V5.15309H0V10.5151H1.67445ZM1.67445 5.15309C1.67445 3.2662 3.14151 1.74091 4.95637 1.74091V0C2.21674 0 0 2.30472 0 5.15309H1.67445ZM4.95637 1.74091H11.23V0H4.95637V1.74091ZM11.23 1.74091C12.1995 1.74091 13.027 2.05454 13.5984 2.56412C14.158 3.06308 14.5119 3.78208 14.5119 4.71206H16.1864C16.1864 3.27439 15.6193 2.0726 14.6886 1.24267C13.7698 0.423358 12.5376 0 11.23 0V1.74091Z" fill="#93989A"/>
<path d="M18.1176 11.7344L18.6974 12.3623C18.7042 12.3555 18.7108 12.3486 18.7173 12.3416L18.1176 11.7344ZM17.5147 14.0324L16.7051 14.2539L16.7062 14.2583L17.5147 14.0324ZM20.9306 15.7965H21.7679C21.7679 15.3158 21.393 14.9261 20.9306 14.9261V15.7965ZM20.9306 11.038V11.9084C21.393 11.9084 21.7679 11.5187 21.7679 11.038H20.9306ZM19.725 11.038V11.9084V11.038ZM17.5377 11.1065C16.765 11.8776 16.4028 13.0598 16.7051 14.2539L18.3244 13.8108C18.1802 13.2408 18.3536 12.7053 18.6974 12.3623L17.5377 11.1065ZM16.7062 14.2583C17.1009 15.7847 18.5131 16.667 19.8925 16.667V14.9261C19.1286 14.9261 18.4868 14.4387 18.3233 13.8064L16.7062 14.2583ZM19.8925 16.667H20.9306V14.9261H19.8925V16.667ZM20.0934 15.7965V17.4794H21.7679V15.7965H20.0934ZM20.0934 17.4794C20.0934 19.5636 18.4701 21.2514 16.4654 21.2514V22.9923C19.3948 22.9923 21.7679 20.5251 21.7679 17.4794H20.0934ZM16.4654 21.2514H5.30243V22.9923H16.4654V21.2514ZM5.30243 21.2514C3.29779 21.2514 1.67445 19.5636 1.67445 17.4794H0C0 20.5251 2.37302 22.9923 5.30243 22.9923V21.2514ZM1.67445 17.4794V9.35516H0V17.4794H1.67445ZM1.67445 9.35516C1.67445 7.27095 3.29779 5.58319 5.30243 5.58319V3.84228C2.37302 3.84228 0 6.30948 0 9.35516H1.67445ZM5.30243 5.58319H16.4654V3.84228H5.30243V5.58319ZM16.4654 5.58319C18.4589 5.58319 20.0934 7.28256 20.0934 9.35516H21.7679C21.7679 6.32109 19.3837 3.84228 16.4654 3.84228V5.58319ZM20.0934 9.35516V11.038H21.7679V9.35516H20.0934ZM20.9306 10.1675H19.725V11.9084H20.9306V10.1675ZM19.725 10.1675C18.8755 10.1675 18.0894 10.5167 17.5177 11.1271L18.7173 12.3416C18.9717 12.07 19.3243 11.9084 19.725 11.9084V10.1675Z" fill="#93989A"/>
<path d="M17.4477 13.6255L18.2821 13.5532L18.2811 13.5429L17.4477 13.6255ZM18.1174 11.7337L18.7023 12.3565C18.7073 12.3514 18.7124 12.3462 18.7173 12.3409L18.1174 11.7337ZM22.0133 11.0373V10.1668V11.0373ZM22.3259 12.2211V14.6119H24.0004V12.2211H22.3259ZM22.3259 14.6119C22.3259 14.7756 22.1926 14.9253 22.0133 14.9253V16.6662C23.1067 16.6662 24.0004 15.7481 24.0004 14.6119H22.3259ZM22.0133 14.9253H19.8589V16.6662H22.0133V14.9253ZM19.8589 14.9253C19.0227 14.9253 18.3411 14.2901 18.282 13.5532L16.6134 13.6977C16.7552 15.4677 18.2839 16.6662 19.8589 16.6662V14.9253ZM18.2811 13.5429C18.2394 13.0871 18.4053 12.658 18.7023 12.3565L17.5326 11.1108C16.8919 11.7611 16.522 12.7014 16.6142 13.708L18.2811 13.5429ZM18.7173 12.3409C18.9716 12.0693 19.3242 11.9077 19.7249 11.9077V10.1668C18.8754 10.1668 18.0893 10.516 17.5176 11.1264L18.7173 12.3409ZM19.7249 11.9077H22.0133V10.1668H19.7249V11.9077ZM22.0133 11.9077C22.1926 11.9077 22.3259 12.0574 22.3259 12.2211H24.0004C24.0004 11.0849 23.1067 10.1668 22.0133 10.1668V11.9077Z" fill="#93989A"/>
</svg>
