<svg width="21" height="18" viewBox="0 0 21 18" fill="none" xmlns="http://www.w3.org/2000/svg">
<path d="M20.25 5.625C20.25 8.49375 18.5906 11.4375 15.3187 14.3812C13.833 15.7169 12.2153 16.898 10.4906 17.9062C10.3786 17.9678 10.2528 18.0001 10.125 18.0001C9.99717 18.0001 9.87141 17.9678 9.75937 17.9062C9.35625 17.6812 0 12.3656 0 5.625C0 4.44441 0.37146 3.29375 1.06176 2.336C1.75207 1.37826 2.72621 0.661992 3.84622 0.288657C4.96622 -0.0846785 6.1753 -0.096152 7.30219 0.255861C8.42908 0.607875 9.41665 1.30553 10.125 2.25C10.8334 1.30553 11.8209 0.607875 12.9478 0.255861C14.0747 -0.096152 15.2838 -0.0846785 16.4038 0.288657C17.5238 0.661992 18.4979 1.37826 19.1882 2.336C19.8785 3.29375 20.25 4.44441 20.25 5.625Z" fill="white"/>
</svg>
