<svg width="21" height="16" viewBox="0 0 21 16" fill="none" xmlns="http://www.w3.org/2000/svg">
<path fill-rule="evenodd" clip-rule="evenodd" d="M9.98022 16C9.42773 16 8.97985 15.5521 8.97985 14.9996C8.97985 14.4471 9.42773 13.9993 9.98022 13.9993C10.5327 13.9993 10.9806 14.4471 10.9806 14.9996C10.9806 15.5521 10.5327 16 9.98022 16Z" fill="#BABBC3"/>
<path fill-rule="evenodd" clip-rule="evenodd" d="M3.50831 7.74704C4.34736 6.87766 5.35282 6.18606 6.46478 5.71343C7.57674 5.24081 8.77245 4.99683 9.98068 4.99603C11.1956 4.99144 12.399 5.23281 13.5182 5.70559C14.6374 6.17838 15.6493 6.8728 16.4931 7.74704C16.628 7.88854 16.7184 8.06646 16.7533 8.25882C16.7882 8.45118 16.7659 8.64954 16.6893 8.82939C16.6127 9.00925 16.4851 9.1627 16.3222 9.27081C16.1593 9.37891 15.9683 9.43692 15.7728 9.43766C15.6404 9.43711 15.5095 9.4103 15.3876 9.35879C15.2657 9.30727 15.1552 9.23207 15.0625 9.13755C14.4093 8.45983 13.6262 7.92076 12.7599 7.55256C11.8936 7.18436 10.962 6.99458 10.0207 6.99458C9.07941 6.99458 8.14779 7.18436 7.28151 7.55256C6.41523 7.92076 5.63208 8.45983 4.97885 9.13755C4.88755 9.23411 4.77812 9.31174 4.65682 9.366C4.53552 9.42027 4.40471 9.45011 4.27188 9.45383C4.0036 9.46133 3.74333 9.36196 3.54833 9.17757C3.45177 9.08626 3.37414 8.97684 3.31987 8.85553C3.26561 8.73423 3.23576 8.60343 3.23205 8.47059C3.22833 8.33776 3.25082 8.20549 3.29822 8.08134C3.34562 7.95719 3.41701 7.8436 3.50831 7.74704ZM6.20374 12.101C6.20843 11.8355 6.31838 11.5828 6.50941 11.3984C7.44163 10.4999 8.68594 9.99783 9.98068 9.99787C11.2754 9.99783 12.5197 10.4999 13.452 11.3984C13.643 11.5828 13.7529 11.8355 13.7576 12.101C13.7623 12.3664 13.6614 12.6229 13.477 12.8139C13.2926 13.0049 13.0398 13.1149 12.7744 13.1196C12.5089 13.1243 12.2525 13.0233 12.0614 12.8389C11.4933 12.3187 10.751 12.0302 9.98068 12.0302C9.21039 12.0302 8.46803 12.3187 7.89992 12.8389C7.70889 13.0233 7.45244 13.1243 7.18698 13.1196C6.92152 13.1149 6.66879 13.0049 6.4844 12.8139C6.30001 12.6229 6.19905 12.3664 6.20374 12.101Z" fill="#BABBC3"/>
<path d="M9.98011 0C6.35286 0 2.86708 1.4073 0.25655 3.92564C0.087726 4.11337 -0.00387374 4.35798 0.000125655 4.61042C0.00412505 4.86286 0.103428 5.10445 0.278114 5.28674C0.4528 5.46902 0.689949 5.57851 0.94199 5.59324C1.19403 5.60797 1.44232 5.52686 1.63706 5.36617C3.87547 3.2025 6.86691 1.99305 9.98011 1.99305C13.0933 1.99305 16.0847 3.2025 18.3232 5.36617C18.5086 5.54492 18.7559 5.64525 19.0134 5.64627C19.1482 5.64576 19.2814 5.61803 19.4052 5.56474C19.529 5.51145 19.6407 5.4337 19.7337 5.33616C19.9161 5.14479 20.0153 4.88901 20.0097 4.62471C20.004 4.36041 19.894 4.10908 19.7037 3.92564C17.0931 1.4073 13.6074 0 9.98011 0Z" fill="#BABBC3"/>
</svg>
