<svg width="16" height="16" viewBox="0 0 16 16" fill="none" xmlns="http://www.w3.org/2000/svg">
<path d="M7.75953 7.22437L7.99559 7.22335C8.97668 7.22335 9.87112 7.28081 10.4542 7.36735L10.8168 7.44317C11.0088 7.48535 11.2275 7.54081 11.3391 7.59862C11.7474 7.81026 12 8.22407 12 8.66697V8.70552C11.9905 8.99424 11.7371 9.60078 11.7283 9.60078C11.3188 10.5768 10.0829 12.4597 9.20174 13.3293L8.93721 13.582C8.86551 13.6482 8.78066 13.7226 8.71452 13.7687C8.51037 13.9229 8.25776 14 8.00514 14C7.72315 14 7.46099 13.9135 7.24656 13.7498L6.96635 13.4902L6.90655 13.432C6.05104 12.6429 4.6521 10.5826 4.22398 9.50478L4.16161 9.34206C4.09143 9.14624 4.00771 8.87188 4 8.70552C4 8.49388 4.0492 8.29171 4.14614 8.09898C4.28199 7.85826 4.49642 7.66626 4.74904 7.56008C4.92381 7.49244 5.44887 7.38626 5.45842 7.38626C5.98783 7.28892 6.82321 7.23248 7.75953 7.22437ZM8.00029 2C8.55913 2 9.01223 2.44872 9.01223 3.00217L8.79413 5.46832C8.79413 5.9025 8.4387 6.25449 8.00029 6.25449C7.56115 6.25449 7.20646 5.9025 7.20646 5.46832L6.98836 3.00217C6.98836 2.44872 7.44145 2 8.00029 2Z" fill="white"/>
</svg>
