<svg width="21" height="19" viewBox="0 0 21 19" fill="none" xmlns="http://www.w3.org/2000/svg">
<path d="M18.8414 4.73514C18.8548 4.94294 18.8548 5.15079 18.8548 5.35859C18.8548 11.6968 14.5242 19 6.60916 19C4.17069 19 1.90547 18.2132 0 16.8477C0.34646 16.8922 0.67955 16.907 1.03934 16.907C3.05137 16.907 4.90356 16.15 6.38263 14.8586C4.49049 14.8141 2.90482 13.4336 2.35849 11.5336C2.62501 11.5781 2.89149 11.6078 3.17134 11.6078C3.55775 11.6078 3.9442 11.5484 4.30395 11.4445C2.33187 10.9992 0.852759 9.06952 0.852759 6.73905V6.6797C1.42571 7.03595 2.09201 7.25861 2.79818 7.28826C1.63891 6.4273 0.879419 4.95779 0.879419 3.29528C0.879419 2.40467 1.09258 1.58826 1.4657 0.875759C3.58437 3.78513 6.76904 5.6851 10.3401 5.89295C10.2735 5.5367 10.2335 5.16564 10.2335 4.79454C10.2335 2.15232 12.1523 0 14.5374 0C15.7766 0 16.8959 0.578905 17.6821 1.51406C18.6548 1.30626 19.5875 0.905458 20.4137 0.356253C20.0939 1.46956 19.4143 2.40472 18.5216 2.99842C19.3877 2.89457 20.2272 2.62732 21 2.25627C20.4138 3.20623 19.6809 4.05229 18.8414 4.73514Z" fill="#56C7CE"/>
</svg>
