<svg width="28" height="28" viewBox="0 0 28 28" fill="none" xmlns="http://www.w3.org/2000/svg">
<path d="M22.4604 3.84863H5.31682C4.64742 3.84937 4.00565 4.11561 3.53231 4.58895C3.05897 5.06229 2.79273 5.70406 2.79199 6.37346V18.156C2.79273 18.8254 3.05897 19.4672 3.53231 19.9405C4.00565 20.4138 4.64742 20.6801 5.31682 20.6808C5.53999 20.6809 5.75398 20.7697 5.91178 20.9275C6.06958 21.0853 6.15829 21.2993 6.15843 21.5224V23.3166C6.15843 23.6212 6.24112 23.9202 6.39768 24.1815C6.55423 24.4429 6.77879 24.6569 7.04741 24.8006C7.31602 24.9444 7.61861 25.0125 7.92292 24.9978C8.22723 24.9831 8.52183 24.8861 8.77533 24.7171L14.6173 20.8222C14.7554 20.7297 14.9179 20.6805 15.0841 20.6808H19.187C19.7383 20.6798 20.2742 20.4991 20.7136 20.1662C21.1531 19.8332 21.472 19.3661 21.6222 18.8357L24.8965 7.04986C24.9998 6.67457 25.0152 6.2805 24.9413 5.89831C24.8674 5.51613 24.7064 5.15615 24.4707 4.84638C24.2349 4.53662 23.9309 4.28544 23.5822 4.11238C23.2336 3.93933 22.8497 3.84907 22.4604 3.84863ZM23.2732 6.6028L20.0005 18.3845C19.9499 18.5612 19.8432 18.7166 19.6964 18.8272C19.5496 18.9378 19.3708 18.9976 19.187 18.9976H15.0841C14.5855 18.997 14.098 19.1446 13.6836 19.4217L7.84165 23.3166V21.5224C7.84091 20.853 7.57467 20.2113 7.10133 19.7379C6.62799 19.2646 5.98622 18.9983 5.31682 18.9976C5.09365 18.9975 4.87966 18.9088 4.72186 18.7509C4.56406 18.5931 4.47534 18.3792 4.47521 18.156V6.37346C4.47534 6.15029 4.56406 5.9363 4.72186 5.7785C4.87966 5.6207 5.09365 5.53198 5.31682 5.53185H22.4604C22.5905 5.53218 22.7187 5.56252 22.8352 5.62052C22.9516 5.67851 23.0531 5.76259 23.1318 5.86621C23.2104 5.96984 23.2641 6.09021 23.2886 6.21797C23.3132 6.34572 23.3079 6.47742 23.2732 6.6028Z" fill="#111425"/>
<path d="M7.84161 11.4235H12.0497C12.2729 11.4235 12.4869 11.3348 12.6448 11.177C12.8026 11.0191 12.8913 10.8051 12.8913 10.5818C12.8913 10.3586 12.8026 10.1446 12.6448 9.98674C12.4869 9.8289 12.2729 9.74023 12.0497 9.74023H7.84161C7.6184 9.74023 7.40433 9.8289 7.2465 9.98674C7.08867 10.1446 7 10.3586 7 10.5818C7 10.8051 7.08867 11.0191 7.2465 11.177C7.40433 11.3348 7.6184 11.4235 7.84161 11.4235Z" fill="#111425"/>
<path d="M15.4161 13.1064H7.84161C7.6184 13.1064 7.40433 13.1951 7.2465 13.3529C7.08867 13.5108 7 13.7248 7 13.9481C7 14.1713 7.08867 14.3853 7.2465 14.5432C7.40433 14.701 7.6184 14.7897 7.84161 14.7897H15.4161C15.6393 14.7897 15.8534 14.701 16.0112 14.5432C16.169 14.3853 16.2577 14.1713 16.2577 13.9481C16.2577 13.7248 16.169 13.5108 16.0112 13.3529C15.8534 13.1951 15.6393 13.1064 15.4161 13.1064Z" fill="#111425"/>
</svg>
