<svg width="30" height="30" viewBox="0 0 30 30" fill="none" xmlns="http://www.w3.org/2000/svg">
<g clip-path="url(#clip0_52_41580)">
<path d="M23.9062 3L26.4375 5.0625L28.5938 10.0312L3.9375 24.4688L1.21875 19.125L14.9062 6.9375L23.9062 3Z" fill="#14425B"/>
<path d="M29.3436 16.0309C27.9374 24.1871 18.9374 30.0934 10.9686 28.8746C4.49987 27.9371 1.49987 22.4059 3.09362 16.7809C4.59362 11.3434 10.2186 6.2809 16.5936 5.1559C24.1874 3.8434 30.6561 8.3434 29.3436 16.0309Z" fill="#14425B"/>
<path d="M24.5625 3.28125L27 6.09375L28.9688 10.9687L4.3125 24.5625L1.5 19.6875L24.5625 3.28125Z" fill="#14425B"/>
<path d="M29.1561 15.5626C27.7499 23.7189 18.7499 29.6251 10.7811 28.4064C4.31237 27.4689 1.31237 21.9376 2.90612 16.3126C4.40612 10.8751 9.93737 5.81263 16.3124 4.68763C23.9999 3.28138 30.4686 7.87513 29.1561 15.5626Z" fill="#14425B"/>
<path d="M27.562 11.9063C26.1558 20.25 17.062 26.1563 8.99952 24.9375C2.43702 23.9063 -0.656734 18.375 0.937016 12.5625C2.43702 6.9375 8.15577 1.875 14.5308 0.750002C22.312 -0.656248 28.8745 4.03125 27.562 11.9063Z" fill="#14425B"/>
<path d="M27.9371 15.2813C26.7183 22.7813 18.4683 28.2188 11.2496 27.0938C5.4371 26.2501 2.71835 21.1876 4.1246 16.0313C5.53085 11.0626 10.5933 6.46882 16.3121 5.43757C23.2496 4.12507 29.1558 8.25007 27.9371 15.2813Z" fill="#0B6D84"/>
<path d="M26.9058 13.7809C25.687 21.4684 17.3433 26.9059 10.1245 25.7809C4.21828 24.8434 1.40578 19.6871 2.81203 14.4371C4.12453 9.3746 9.28078 4.6871 15.0933 3.65585C22.1245 2.4371 28.0308 6.65585 26.9058 13.7809Z" fill="#0B6D84"/>
<path d="M26.437 12.0934C25.2183 19.7809 16.8745 25.2184 9.65578 24.0934C3.74953 23.1559 0.937031 17.9996 2.34328 12.7496C3.65578 7.6871 8.81203 2.9996 14.6245 1.96835C21.6558 0.749602 27.562 4.96835 26.437 12.0934Z" fill="#00ADF2"/>
<path d="M24.4689 11.6245C23.4376 17.9995 16.5001 22.5933 10.4064 21.6558C5.43765 20.9058 3.18765 16.5933 4.4064 12.0933C5.5314 7.87454 9.8439 4.03079 14.6251 3.18704C20.4376 2.06204 25.4064 5.62453 24.4689 11.6245Z" fill="#43BBEF"/>
<path d="M26.5312 5.4375L27 10.0312L28.125 11.7188L28.5938 10.125L26.5312 5.4375Z" fill="#14425B"/>
<path d="M19.2183 11.8128L19.4058 10.7815C19.7808 8.62525 18.1871 7.12525 15.7496 7.219H15.3746C13.0308 7.4065 10.6871 9.094 10.1246 11.2503L9.84334 12.1878C9.56209 12.469 8.90584 12.9378 8.81209 13.4065L8.43709 14.5315C8.06209 15.844 8.24959 17.2503 9.09334 18.094C9.65584 18.6565 10.5933 19.1253 11.9996 19.1253H13.5933C15.0933 19.1253 16.2183 18.5628 17.1558 17.9065C18.4683 16.8753 19.3121 15.469 19.5933 14.1565L19.7808 13.0315C19.8746 12.5628 19.4996 12.0003 19.2183 11.8128ZM15.0933 8.719H15.3746C16.9683 8.62525 17.9996 9.6565 17.7183 11.1565L17.5308 11.9065L11.3433 12.1878L11.5308 11.4378C11.9996 10.0315 13.4996 8.81275 15.0933 8.719ZM14.0621 16.1253L13.7808 17.344C13.6871 17.6253 13.4058 17.9065 13.1246 17.9065C12.8433 17.9065 12.6558 17.719 12.6558 17.344L12.9371 16.1253C12.3746 15.9378 12.1871 15.469 12.2808 14.8128C12.4683 14.0628 13.3121 13.4065 14.1558 13.3128C14.9996 13.3128 15.5621 13.8753 15.3746 14.6253C15.2808 15.2815 14.7183 15.844 14.0621 16.1253Z" fill="#0B6D84"/>
<path d="M19.8746 11.5306L20.0621 10.4994C20.3433 8.43687 18.7496 6.84312 16.4058 7.03062H16.0308C13.6871 7.21812 11.3433 8.90562 10.7808 11.0619L10.4996 11.9994C10.2183 12.2806 9.5621 12.7494 9.46835 13.2181L9.09334 14.3431C8.71834 15.6556 8.90584 17.0619 9.74959 17.9056C10.3121 18.4681 11.2496 18.9369 12.6558 18.9369H14.2496C15.7496 18.9369 16.8746 18.3744 17.8121 17.7181C19.1246 16.6869 19.9683 15.2806 20.2496 13.9681L20.4371 12.8431C20.4371 12.2806 20.0621 11.8119 19.8746 11.5306ZM15.6558 8.53063H15.9371C17.5308 8.43688 18.5621 9.46812 18.2808 10.9681L18.0933 11.7181L11.9058 11.9994L12.1871 11.2494C12.5621 9.74937 14.0621 8.62438 15.6558 8.53063ZM14.7183 15.8431L14.4371 17.0619C14.3433 17.3431 14.0621 17.6244 13.7808 17.6244C13.4996 17.6244 13.3121 17.4369 13.3121 17.0619L13.5933 15.8431C13.0308 15.6556 12.8433 15.1869 12.9371 14.5306C13.1246 13.7806 13.9683 13.1244 14.8121 13.0306C15.6558 13.0306 16.2183 13.5931 16.0308 14.3431C15.8433 15.0931 15.2808 15.6556 14.7183 15.8431Z" fill="#0B6D84"/>
<path d="M18.8438 11.1564L19.0312 10.2189C19.4062 8.15645 17.8125 6.65645 15.5625 6.84395H15.1875C12.9375 6.9377 10.6875 8.6252 10.125 10.6877L9.84375 11.6252C9.5625 11.9064 9 12.3752 8.90625 12.7502L8.4375 13.7814C8.0625 15.0939 8.25 16.4064 9 17.2502C9.5625 17.8127 10.4063 18.2814 11.8125 18.1877H13.4063C14.8125 18.1877 15.9375 17.6252 16.7812 16.9689C18.0938 16.0314 18.9375 14.6252 19.125 13.3127L19.3125 12.1877C19.4063 11.8127 19.0313 11.3439 18.8438 11.1564ZM14.8125 8.2502H15.0938C16.5938 8.15645 17.625 9.1877 17.3438 10.5002L17.1562 11.2502L11.25 11.5314L11.4375 10.7814C11.8125 9.46895 13.3125 8.34395 14.8125 8.2502ZM13.875 15.2814L13.5938 16.4064C13.5 16.6877 13.2188 16.9689 12.9375 16.9689C12.6563 16.9689 12.4687 16.7814 12.5625 16.5002L12.8438 15.3752C12.375 15.1877 12.0938 14.7189 12.2813 14.1564C12.4688 13.4064 13.2188 12.7502 14.0625 12.7502C14.8125 12.7502 15.375 13.3127 15.1875 14.0627C15 14.5314 14.4375 15.0939 13.875 15.2814Z" fill="#F6F6F6"/>
<path d="M24.2808 11.2497C24.7496 6.4684 20.9996 3.2809 15.9371 3.56215C11.0621 3.93715 5.99957 7.5934 4.40581 12.2809C2.53081 17.5309 5.53081 22.3122 11.6246 22.2184C17.9058 22.0309 23.7183 16.7809 24.2808 11.2497Z" stroke="#F6F6F6" stroke-width="0.899156" stroke-miterlimit="10"/>
<path d="M26.7187 11.1562L26.3438 8.0625C26.3438 8.0625 27.6562 10.2187 27.9375 11.5312L26.5312 15L26.7187 11.1562Z" fill="#0B6D84"/>
</g>
<defs>
<clipPath id="clip0_52_41580">
<rect width="30" height="30" fill="white"/>
</clipPath>
</defs>
</svg>
