<svg width="127" height="32" viewBox="0 0 127 32" fill="none" xmlns="http://www.w3.org/2000/svg">
<rect x="10" y="10" width="4" height="12" rx="1.71429" fill="white"/>
<rect x="10" y="10" width="4" height="12" rx="1.71429" fill="white"/>
<rect x="18" y="10" width="4" height="12" rx="1.71429" fill="white"/>
<rect x="18" y="10" width="4" height="12" rx="1.71429" fill="white"/>
<rect x="0.5" y="0.5" width="31" height="31" rx="15.5" stroke="white"/>
<rect x="0.5" y="0.5" width="31" height="31" rx="15.5" stroke="white"/>
<path d="M69.7097 12.2542C69.5235 11.8131 69.255 11.4134 68.9193 11.0774C68.5833 10.7404 68.1872 10.4726 67.7525 10.2885C67.3017 10.0969 66.8182 9.99886 66.3301 10C65.6453 10 64.9772 10.1919 64.3966 10.5543C64.2577 10.641 64.1257 10.7363 64.0007 10.84C63.8757 10.7363 63.7437 10.641 63.6048 10.5543C63.0242 10.1919 62.3561 10 61.6713 10C61.1781 10 60.7003 10.0967 60.2489 10.2885C59.8127 10.4733 59.4196 10.7391 59.0821 11.0774C58.7459 11.413 58.4774 11.8128 58.2917 12.2542C58.0986 12.7133 58 13.2008 58 13.7026C58 14.1759 58.0945 14.6691 58.282 15.1708C58.4389 15.5901 58.664 16.025 58.9515 16.4642C59.4071 17.1592 60.0336 17.8841 60.8114 18.6189C62.1005 19.837 63.377 20.6784 63.4312 20.7125L63.7604 20.9286C63.9062 21.0238 64.0938 21.0238 64.2396 20.9286L64.5688 20.7125C64.623 20.677 65.8981 19.837 67.1886 18.6189C67.9664 17.8841 68.5929 17.1592 69.0485 16.4642C69.336 16.025 69.5624 15.5901 69.718 15.1708C69.9055 14.6691 70 14.1759 70 13.7026C70.0014 13.2008 69.9028 12.7133 69.7097 12.2542Z" fill="white"/>
<path d="M69.7097 12.2542C69.5235 11.8131 69.255 11.4134 68.9193 11.0774C68.5833 10.7404 68.1872 10.4726 67.7525 10.2885C67.3017 10.0969 66.8182 9.99886 66.3301 10C65.6453 10 64.9772 10.1919 64.3966 10.5543C64.2577 10.641 64.1257 10.7363 64.0007 10.84C63.8757 10.7363 63.7437 10.641 63.6048 10.5543C63.0242 10.1919 62.3561 10 61.6713 10C61.1781 10 60.7003 10.0967 60.2489 10.2885C59.8127 10.4733 59.4196 10.7391 59.0821 11.0774C58.7459 11.413 58.4774 11.8128 58.2917 12.2542C58.0986 12.7133 58 13.2008 58 13.7026C58 14.1759 58.0945 14.6691 58.282 15.1708C58.4389 15.5901 58.664 16.025 58.9515 16.4642C59.4071 17.1592 60.0336 17.8841 60.8114 18.6189C62.1005 19.837 63.377 20.6784 63.4312 20.7125L63.7604 20.9286C63.9062 21.0238 64.0938 21.0238 64.2396 20.9286L64.5688 20.7125C64.623 20.677 65.8981 19.837 67.1886 18.6189C67.9664 17.8841 68.5929 17.1592 69.0485 16.4642C69.336 16.025 69.5624 15.5901 69.718 15.1708C69.9055 14.6691 70 14.1759 70 13.7026C70.0014 13.2008 69.9028 12.7133 69.7097 12.2542Z" fill="white"/>
<rect x="48.5" y="0.5" width="31" height="30" rx="15" stroke="white"/>
<rect x="48.5" y="0.5" width="31" height="30" rx="15" stroke="white"/>
<path d="M114.643 17.5C114.088 17.5 113.578 17.6833 113.175 17.9897L110.658 16.4885C110.733 16.1667 110.733 15.8333 110.658 15.5115L113.175 14.0103C113.578 14.3167 114.088 14.5 114.643 14.5C115.945 14.5 117 13.4926 117 12.25C117 11.0074 115.945 10 114.643 10C113.341 10 112.286 11.0074 112.286 12.25C112.286 12.4178 112.305 12.5812 112.342 12.7385L109.825 14.2397C109.422 13.9333 108.912 13.75 108.357 13.75C107.055 13.75 106 14.7574 106 16C106 17.2426 107.055 18.25 108.357 18.25C108.912 18.25 109.422 18.0667 109.825 17.7603L112.342 19.2615C112.304 19.4219 112.286 19.5857 112.286 19.75C112.286 20.9926 113.341 22 114.643 22C115.945 22 117 20.9926 117 19.75C117 18.5074 115.945 17.5 114.643 17.5Z" fill="white"/>
<path d="M114.643 17.5C114.088 17.5 113.578 17.6833 113.175 17.9897L110.658 16.4885C110.733 16.1667 110.733 15.8333 110.658 15.5115L113.175 14.0103C113.578 14.3167 114.088 14.5 114.643 14.5C115.945 14.5 117 13.4926 117 12.25C117 11.0074 115.945 10 114.643 10C113.341 10 112.286 11.0074 112.286 12.25C112.286 12.4178 112.305 12.5812 112.342 12.7385L109.825 14.2397C109.422 13.9333 108.912 13.75 108.357 13.75C107.055 13.75 106 14.7574 106 16C106 17.2426 107.055 18.25 108.357 18.25C108.912 18.25 109.422 18.0667 109.825 17.7603L112.342 19.2615C112.304 19.4219 112.286 19.5857 112.286 19.75C112.286 20.9926 113.341 22 114.643 22C115.945 22 117 20.9926 117 19.75C117 18.5074 115.945 17.5 114.643 17.5Z" fill="white"/>
<rect x="96.5" y="0.5" width="30" height="31" rx="15" stroke="white"/>
<rect x="96.5" y="0.5" width="30" height="31" rx="15" stroke="white"/>
</svg>
