<svg width="24" height="24" viewBox="0 0 24 24" fill="none" xmlns="http://www.w3.org/2000/svg">
<path d="M11.9994 11.7499C11.8681 11.7501 11.738 11.7242 11.6167 11.674C11.4954 11.6237 11.3852 11.5499 11.2924 11.4569L8.29243 8.45692C8.11027 8.26832 8.00948 8.01571 8.01176 7.75352C8.01403 7.49132 8.1192 7.24051 8.30461 7.0551C8.49002 6.86969 8.74083 6.76452 9.00303 6.76224C9.26523 6.75997 9.51783 6.86076 9.70643 7.04292L11.9994 9.33592L14.2924 7.04292C14.481 6.86076 14.7336 6.75997 14.9958 6.76224C15.258 6.76452 15.5088 6.86969 15.6942 7.0551C15.8797 7.24051 15.9848 7.49132 15.9871 7.75352C15.9894 8.01571 15.8886 8.26832 15.7064 8.45692L12.7064 11.4569C12.6137 11.5499 12.5035 11.6237 12.3822 11.674C12.2608 11.7242 12.1308 11.7501 11.9994 11.7499ZM11.9994 17.2499C11.8681 17.2501 11.738 17.2242 11.6167 17.174C11.4954 17.1237 11.3852 17.0499 11.2924 16.9569L8.29243 13.9569C8.11027 13.7683 8.00948 13.5157 8.01176 13.2535C8.01403 12.9913 8.1192 12.7405 8.30461 12.5551C8.49002 12.3697 8.74083 12.2645 9.00303 12.2622C9.26523 12.26 9.51783 12.3608 9.70643 12.5429L11.9994 14.8359L14.2924 12.5429C14.481 12.3608 14.7336 12.26 14.9958 12.2622C15.258 12.2645 15.5088 12.3697 15.6942 12.5551C15.8797 12.7405 15.9848 12.9913 15.9871 13.2535C15.9894 13.5157 15.8886 13.7683 15.7064 13.9569L12.7064 16.9569C12.6137 17.0499 12.5035 17.1237 12.3822 17.174C12.2608 17.2242 12.1308 17.2501 11.9994 17.2499Z" fill="white"/>
</svg>
