<svg width="40" height="40" viewBox="0 0 40 40" fill="none" xmlns="http://www.w3.org/2000/svg">
<path d="M39.3649 18.0808L20.8649 0.347672C20.3818 -0.115891 19.6182 -0.115891 19.1351 0.347672L0.61676 18.0991C0.224915 18.491 0 19.0308 0 19.5826C0 20.731 0.935059 21.666 2.08344 21.666H5V37.4992C5 38.8792 6.12 39.9992 7.5 39.9992H14.5834C15.2734 39.9992 15.8334 39.4392 15.8334 38.7492V27.916C15.8334 27.6875 16.0199 27.4992 16.25 27.4992H23.75C23.9783 27.4992 24.1666 27.6875 24.1666 27.916V38.7492C24.1666 39.4392 24.7266 39.9992 25.4166 39.9992H32.5C33.88 39.9992 35 38.8792 35 37.4992V21.666H37.9166C39.0649 21.666 40 20.731 40 19.5826C40 19.0308 39.7751 18.491 39.3649 18.0808Z" fill="white"/>
</svg>
