<svg width="64" height="64" viewBox="0 0 64 64" fill="none" xmlns="http://www.w3.org/2000/svg">
<path d="M45.3354 41.3286L41.8189 40.0765L40.838 36.1739L42.6328 34.0034C43.2633 33.2395 43.6098 32.2809 43.6136 31.2904C43.6135 30.8209 43.5323 30.3549 43.3737 29.913L40.6815 22.2121C40.4672 21.6108 40.0358 21.1114 39.4719 20.8121C38.9081 20.5128 38.2527 20.4353 37.6345 20.5948L34.2745 21.44C33.6531 21.5917 33.1106 21.97 32.7535 22.5008C32.3964 23.0317 32.2504 23.6767 32.3441 24.3095L33.5858 32.3235C33.7023 33.0448 34.0012 33.7244 34.4541 34.2979C34.907 34.8713 35.4989 35.3195 36.1737 35.6L38.7928 36.6435L39.7841 40.5878L37.6971 43.5513C37.4836 43.8414 37.3559 44.1858 37.3287 44.5451C37.3016 44.9044 37.3761 45.264 37.5437 45.5829C37.7113 45.9018 37.9653 46.1672 38.2767 46.3485C38.5879 46.53 38.944 46.6201 39.3041 46.6086C39.4875 46.6101 39.6702 46.5855 39.8467 46.5356L45.2519 45.0017C45.6365 44.8772 45.9731 44.637 46.2159 44.3138C46.4588 43.9907 46.5959 43.6005 46.6084 43.1965C46.6244 42.7898 46.5093 42.3888 46.28 42.0526C46.0509 41.7163 45.7197 41.4625 45.3354 41.3286ZM38.1354 22.6086H38.2606C38.3564 22.6057 38.4506 22.6335 38.5295 22.6879C38.6083 22.7424 38.6677 22.8206 38.6989 22.9113L39.878 26.2504C38.8408 26.3124 37.8052 26.1058 36.8711 25.6506C35.9371 25.1955 35.1362 24.5072 34.5458 23.6521C34.6115 23.5882 34.6896 23.5385 34.7754 23.506L38.1354 22.6086ZM35.6519 31.9999L34.8484 26.8348C35.5458 27.3402 36.3213 27.728 37.1441 27.9826C37.9316 28.2256 38.7513 28.3488 39.5754 28.3478C39.9246 28.342 40.2732 28.3142 40.6189 28.2643L41.4328 30.5599C41.5118 30.7881 41.5506 31.0282 41.5476 31.2695C41.5471 31.7732 41.3699 32.2606 41.0467 32.6469L39.398 34.64L37.0084 33.6695C36.6556 33.5349 36.3445 33.3097 36.1063 33.0167C35.8682 32.7235 35.7115 32.3729 35.6519 31.9999ZM39.6484 44.4069L41.2971 42.1008L44.1562 43.1443L39.6484 44.4069Z" fill="#213A52"/>
<path d="M29.7146 18.3092L26.3442 17.464C25.726 17.302 25.0695 17.3785 24.505 17.678C23.9406 17.9777 23.5094 18.4786 23.2972 19.0814L20.6051 26.7823C20.4419 27.2338 20.3607 27.7109 20.365 28.1909C20.3706 29.1812 20.717 30.1392 21.3459 30.904L23.1511 33.0431L22.1598 36.9666L18.6433 38.1979C18.261 38.3325 17.9325 38.5871 17.7068 38.9237C17.4811 39.2604 17.3704 39.661 17.3911 40.0657C17.4032 40.4762 17.5464 40.872 17.8 41.1951C18.0535 41.5181 18.404 41.7513 18.7998 41.8605L24.205 43.4049C24.3648 43.4499 24.5296 43.4744 24.6955 43.4779C25.0039 43.4787 25.3077 43.404 25.5806 43.2603C25.8534 43.1166 26.0869 42.9083 26.2607 42.6536C26.4963 42.3329 26.6234 41.9454 26.6234 41.5475C26.6234 41.1496 26.4963 40.762 26.2607 40.4414L24.1737 37.4779L25.2172 33.5336L27.8259 32.4901C28.5046 32.2125 29.1007 31.7655 29.5574 31.1919C30.0141 30.6183 30.3161 29.9371 30.4346 29.2136L31.6763 21.1996C31.7771 20.5589 31.6304 19.9038 31.2662 19.3671C30.9019 18.8304 30.3473 18.4523 29.7146 18.3092ZM25.739 19.4779H25.8642L29.2242 20.3231C29.3122 20.3452 29.3919 20.3924 29.4537 20.4588C28.6729 21.5857 27.5439 22.4252 26.2398 22.8483C25.5637 23.0514 24.8582 23.1396 24.1529 23.1092L25.2694 19.7701C25.3067 19.6779 25.3722 19.6 25.4566 19.5475C25.541 19.495 25.6398 19.4706 25.739 19.4779ZM19.8224 39.9927L22.6815 38.9492L24.3302 41.2553L19.8224 39.9927ZM27.0015 30.5283L24.6015 31.4988L22.9528 29.5162C22.6297 29.1299 22.4524 28.6424 22.452 28.1388C22.4661 27.8921 22.5189 27.6491 22.6085 27.4188L23.4224 25.1336C23.7682 25.1829 24.1167 25.2108 24.4659 25.2171C25.2901 25.218 26.1097 25.0949 26.8972 24.8518C27.72 24.5973 28.4955 24.2095 29.1928 23.704L28.3268 28.8692C28.2746 29.239 28.1241 29.5881 27.891 29.8799C27.6579 30.1718 27.3507 30.3957 27.0015 30.5283Z" fill="#213A52"/>
</svg>
