<svg width="85" height="85" viewBox="0 0 85 85" fill="none" xmlns="http://www.w3.org/2000/svg">
<g clip-path="url(#clip0_52_123849)">
<path d="M24.7923 26.6688V58.4376C24.7925 59.0472 24.95 59.6464 25.2497 60.1773C25.5493 60.7082 25.9809 61.1527 26.5027 61.4679C27.0245 61.7831 27.6188 61.9583 28.2281 61.9765C28.8375 61.9948 29.4412 61.8554 29.9809 61.5719L60.2444 45.6876C60.8155 45.3871 61.2937 44.9363 61.6272 44.3839C61.9608 43.8315 62.1371 43.1985 62.1371 42.5532C62.1371 41.9079 61.9608 41.2748 61.6272 40.7224C61.2937 40.17 60.8155 39.7193 60.2444 39.4188L29.9809 23.5521C29.4425 23.2694 28.8404 23.13 28.2325 23.1474C27.6247 23.1648 27.0315 23.3384 26.5102 23.6515C25.9889 23.9647 25.5571 24.4068 25.2562 24.9352C24.9553 25.4637 24.7955 26.0607 24.7923 26.6688Z" fill="white"/>
</g>
<defs>
<clipPath id="clip0_52_123849">
<rect width="84.5" height="84.5" fill="white" transform="scale(1.00592)"/>
</clipPath>
</defs>
</svg>
