<svg width="30" height="30" viewBox="0 0 30 30" fill="none" xmlns="http://www.w3.org/2000/svg">
<g clip-path="url(#clip0_52_74064)">
<path d="M14.625 3.46822C14.625 3.46822 9.65625 -2.25053 0.5625 1.12447C0.5625 1.12447 0.9375 10.1245 14.625 3.46822Z" fill="#1D3A0A"/>
<path d="M13.3123 3.56271C13.3123 3.56271 9.28109 -0.656042 1.96859 1.87521C1.87484 1.87521 2.24984 8.53146 13.3123 3.56271Z" fill="#2A6900"/>
<path d="M12 3.93697C12 3.93697 16.9687 -1.78178 26.0625 1.59322C26.0625 1.68697 25.6875 10.5932 12 3.93697Z" fill="#1D3A0A"/>
<path d="M13.4062 4.03146C13.4062 4.03146 17.4375 -0.187292 24.75 2.34396C24.75 2.34396 24.375 9.00021 13.4062 4.03146Z" fill="#2A6900"/>
<path d="M13.6881 26.9066C13.6881 26.9066 18.7506 25.3128 21.6569 22.6878C24.5631 20.0628 28.1256 16.0316 26.2506 9.84408C24.3756 3.65658 19.5006 2.34408 13.5944 3.65658C13.5944 3.65658 3.37562 0.375333 0.563118 9.46908C-2.24938 18.5628 5.53187 24.1878 13.6881 26.9066Z" fill="#7E1406"/>
<path d="M13.6868 24.9378C13.6868 24.9378 18.3743 23.5315 20.9993 21.1878C23.6243 18.844 26.9056 15.3753 25.2181 9.84401C23.5306 4.31276 19.0306 3.18776 13.5931 4.40651C13.5931 4.40651 4.12433 1.50026 1.59308 9.56276C-0.938171 17.6253 6.18683 22.594 13.6868 24.9378Z" fill="#CC5037"/>
<path d="M13.688 22.9687C13.688 22.9687 17.7193 21.75 20.063 19.7812C22.4068 17.8125 25.2193 14.8124 23.7193 10.1249C22.2193 5.43745 18.2818 4.49995 13.5943 5.43745C13.5943 5.43745 5.43801 2.99995 3.18801 9.8437C0.938008 16.6875 7.12551 21 13.688 22.9687Z" fill="#EA5A42"/>
<path d="M13.6875 5.625C13.6875 5.625 19.875 14.4375 13.875 24.375C13.875 24.2812 23.1562 15.6562 13.6875 5.625Z" fill="#7E1406"/>
<path d="M6.56167 5.53193C6.56167 5.53193 9.65542 4.12568 11.8117 5.25068C13.9679 6.37568 15.7492 12.4694 14.8117 15.8444C13.8742 19.2194 6.74917 19.6882 4.40542 16.2194C2.06167 12.7507 2.15542 8.53193 6.56167 5.53193ZM16.7804 6.09443C16.7804 6.09443 18.8429 4.68818 20.9992 5.81318C23.1554 6.93818 25.2179 11.0632 24.8429 13.5007C24.5617 15.9382 21.9367 17.6257 20.5304 17.1569C19.1242 16.5944 20.9054 9.46943 16.7804 6.09443Z" fill="#E5775A"/>
<path d="M6.84426 6.75059C6.84426 6.75059 9.56301 5.81309 11.063 6.65684C12.563 7.50059 13.0318 9.93809 12.4693 11.3443C11.9068 12.7506 11.2505 14.8131 8.62551 13.8756C6.00051 12.9381 4.59426 11.0631 4.59426 11.0631C4.59426 11.0631 4.50051 7.50059 6.84426 6.75059ZM20.1568 7.03184C20.1568 7.03184 21.0005 6.00059 21.7505 6.46934C22.5005 6.93809 23.1568 8.53184 23.2505 9.56309C23.3443 10.5943 23.5318 12.0943 22.313 11.8131C21.0943 11.5318 20.1568 10.3131 20.1568 10.3131C20.1568 10.3131 19.4068 7.87559 20.1568 7.03184Z" fill="#F99987"/>
<path d="M8.90664 26.0625C4.40664 30.9375 -7.12461 23.625 6.56289 11.3438C6.56289 11.3438 13.4066 21.1875 8.90664 26.0625Z" fill="#636363"/>
<path d="M7.87475 25.2187C4.2185 29.7188 -4.50025 23.625 6.56225 12.2812C6.56225 12.2812 11.531 20.7187 7.87475 25.2187Z" fill="#AAAAAA"/>
<path d="M6.56299 13.6875C6.56299 13.6875 9.75049 20.3438 7.03174 24.0938C4.31299 27.8438 -1.49951 23.1562 6.56299 13.6875Z" fill="#E8E8E8"/>
<path d="M4.78154 20.063C4.78154 20.063 5.43779 19.4068 6.28154 19.7818C7.12529 20.1568 7.96904 20.063 7.59404 21.3755C7.21904 22.688 7.03154 24.8443 5.81279 23.6255C4.59404 22.5005 4.12529 21.0943 4.78154 20.063Z" fill="#F7F7F7"/>
<path d="M14.9062 26.5312L14.5312 27.0938L16.5 28.4062L27.6562 17.3438L25.875 15L14.9062 26.5312Z" fill="#9A4C18"/>
<path d="M27.9366 20.4376C27.5616 24.8439 23.4366 28.5939 18.9366 28.5939C14.4366 28.5939 11.5304 24.8439 12.3741 20.5314C13.2179 16.5001 17.0616 13.3126 21.0929 13.3126C25.1241 13.2189 28.2179 16.3126 27.9366 20.4376Z" fill="#9A4C18"/>
<path d="M29.0615 21.8439C28.6865 26.0627 24.749 29.6252 20.249 29.6252C15.8427 29.6252 13.0302 26.0627 13.874 21.9377C14.624 18.0939 18.4677 15.0939 22.4052 15.0002C26.3427 14.9064 29.3427 17.9064 29.0615 21.8439Z" fill="#9A4C18"/>
<path d="M16.2188 26.8125L18.0938 27.8438L27.1875 18.1875L25.6875 16.2188L16.2188 26.8125Z" fill="#F49937"/>
<path d="M28.1256 21.8437C27.7506 25.4062 24.4694 28.5 20.7194 28.4062C17.0631 28.4062 14.7194 25.4062 15.3756 21.8437C16.0319 18.4687 19.2194 15.8438 22.5944 15.8438C25.9694 15.8438 28.5006 18.4687 28.1256 21.8437Z" fill="#F49937"/>
<path d="M26.9069 20.4378C26.5319 24.2816 22.9694 27.5628 19.0319 27.4691C15.0944 27.4691 12.5632 24.1878 13.3132 20.4378C13.9694 16.8753 17.4382 14.0628 21.0007 14.0628C24.5632 13.9691 27.2819 16.7816 26.9069 20.4378Z" fill="#FFEDC0"/>
<path d="M26.4381 20.7192C26.0631 24.2817 22.7819 27.3755 19.0319 27.2817C15.3756 27.2817 13.0319 24.2817 13.6881 20.7192C14.3444 17.3442 17.5319 14.7192 20.9069 14.7192C24.2819 14.6255 26.7194 17.2505 26.4381 20.7192Z" fill="#FFD766"/>
<path d="M25.0308 20.7179C24.7495 23.5304 22.1245 25.7804 19.312 25.7804C16.4995 25.7804 14.6245 23.4367 15.0933 20.7179C15.562 18.0929 18.0933 16.0304 20.7183 16.0304C23.3433 15.9367 25.312 17.9992 25.0308 20.7179Z" fill="#FFEDC0"/>
<path d="M25.0308 19.9687C24.7495 22.6875 22.2183 25.0313 19.312 25.0313C16.4995 25.0313 14.6245 22.7812 15.0933 20.0625C15.562 17.4375 17.9995 15.375 20.6245 15.375C23.437 15.375 25.312 17.3437 25.0308 19.9687Z" fill="#F49937"/>
<path d="M24.1875 20.7188C23.9062 23.0625 21.75 25.0313 19.4062 24.9375C17.0625 24.9375 15.4687 22.9688 15.8437 20.7188C16.2187 18.4688 18.375 16.6875 20.5312 16.6875C22.7812 16.6875 24.4687 18.4688 24.1875 20.7188Z" fill="#FFD766"/>
<path d="M21.1875 16.3125L21.8437 18.8438L24.6562 19.5L22.0312 21.2813L21.8437 24.1875L19.5937 22.5L16.5938 23.5313L17.9063 20.7188L16.4062 18.5625H19.3125L21.1875 16.3125Z" fill="#F49937"/>
</g>
<defs>
<clipPath id="clip0_52_74064">
<rect width="30" height="30" fill="white"/>
</clipPath>
</defs>
</svg>
