<svg width="22" height="19" viewBox="0 0 22 19" fill="none" xmlns="http://www.w3.org/2000/svg">
<path d="M16.1163 17.3953H5.88372V18.9302H16.1163V17.3953ZM5.88372 17.3953C4.46648 17.3953 3.40268 17.0409 2.69663 16.3853C2.00085 15.7392 1.53488 14.6909 1.53488 13.0465H0C0 14.9835 0.55728 16.4933 1.65221 17.5101C2.73685 18.5172 4.23119 18.9302 5.88372 18.9302V17.3953ZM1.53488 13.0465V5.88372H0V13.0465H1.53488ZM1.53488 5.88372C1.53488 4.2393 2.00085 3.191 2.69663 2.54494C3.40268 1.88931 4.46648 1.53488 5.88372 1.53488V0C4.23119 0 2.73685 0.413021 1.65221 1.42018C0.55728 2.4369 0 3.94675 0 5.88372H1.53488ZM5.88372 1.53488H16.1163V0H5.88372V1.53488ZM16.1163 1.53488C17.5335 1.53488 18.5973 1.88931 19.3034 2.54494C19.9991 3.191 20.4651 4.2393 20.4651 5.88372H22C22 3.94675 21.4427 2.4369 20.3477 1.42018C19.2632 0.413021 17.7688 0 16.1163 0V1.53488ZM20.4651 5.88372V13.0465H22V5.88372H20.4651ZM20.4651 13.0465C20.4651 14.6909 19.9991 15.7392 19.3034 16.3853C18.5973 17.0409 17.5335 17.3953 16.1163 17.3953V18.9302C17.7688 18.9302 19.2632 18.5172 20.3477 17.5101C21.4427 16.4933 22 14.9835 22 13.0465H20.4651Z" fill="#93989A"/>
<path d="M16.5953 6.99502C16.9264 6.73051 16.9804 6.2476 16.7159 5.91643C16.4514 5.58525 15.9685 5.53122 15.6374 5.79573L16.5953 6.99502ZM12.9135 8.95352L13.3915 9.55392L13.3925 9.55317L12.9135 8.95352ZM9.07631 8.95352L8.59641 9.55242L8.5983 9.55392L9.07631 8.95352ZM6.36363 5.79648C6.03287 5.53145 5.54989 5.58473 5.28485 5.91549C5.01982 6.24625 5.0731 6.72924 5.40386 6.99427L6.36363 5.79648ZM15.6374 5.79573L12.4346 8.35387L13.3925 9.55317L16.5953 6.99502L15.6374 5.79573ZM12.4355 8.35311C11.6613 8.96947 10.3285 8.96947 9.5543 8.35311L8.5983 9.55392C9.93201 10.6157 12.0578 10.6157 13.3915 9.55392L12.4355 8.35311ZM9.55618 8.35462L6.36363 5.79648L5.40386 6.99427L8.59642 9.55241L9.55618 8.35462Z" fill="#93989A"/>
</svg>
