<svg width="314" height="155" viewBox="0 0 314 155" fill="none" xmlns="http://www.w3.org/2000/svg">
<rect width="8" height="155" rx="4" fill="#F0F0F0"/>
<rect y="112.007" width="8" height="42.9927" rx="4" fill="#FF285C"/>
<rect y="48.6494" width="8" height="58.8321" rx="4" fill="#5856CE"/>
<rect y="18.1025" width="8" height="26.0219" rx="4" fill="#56C7CE"/>
<rect x="46" width="8" height="155" rx="4" fill="#F0F0F0"/>
<rect x="46" y="79.1973" width="8" height="75.8029" rx="4" fill="#FF285C"/>
<rect x="46" y="56.5693" width="8" height="18.1022" rx="4" fill="#5856CE"/>
<rect x="46" y="9.05078" width="8" height="42.9927" rx="4" fill="#56C7CE"/>
<rect x="92" width="8" height="155" rx="4" fill="#F0F0F0"/>
<rect x="92" y="123.321" width="8" height="31.6788" rx="4" fill="#FF285C"/>
<rect x="92" y="65.6201" width="8" height="53.1752" rx="4" fill="#5856CE"/>
<rect x="92" y="35.0732" width="8" height="26.0219" rx="4" fill="#56C7CE"/>
<rect x="158" width="8" height="155" rx="4" fill="#F0F0F0"/>
<rect x="158" y="46.3867" width="8" height="108.613" rx="4" fill="#FF285C"/>
<rect x="158" y="24.8906" width="8" height="16.9708" rx="4" fill="#5856CE"/>
<rect x="158" width="8" height="20" rx="4" fill="#56C7CE"/>
<rect x="204" width="8" height="155" rx="4" fill="#F0F0F0"/>
<rect x="204" y="97.2988" width="8" height="56.5693" rx="4" fill="#FF285C"/>
<rect x="204" y="36.2041" width="8" height="56.5693" rx="4" fill="#5856CE"/>
<rect x="204" y="11.3135" width="8" height="20.365" rx="4" fill="#56C7CE"/>
<rect x="250" width="8" height="155" rx="4" fill="#F0F0F0"/>
<rect x="250" y="125" width="8" height="30" rx="4" fill="#FF285C"/>
<rect x="250" y="59.2852" width="8" height="59.9635" rx="4" fill="#5856CE"/>
<rect x="250" y="20" width="8" height="35" rx="4" fill="#56C7CE"/>
<rect x="306" width="8" height="155" rx="4" fill="#F0F0F0"/>
<rect x="306" y="97" width="8" height="58" rx="4" fill="#FF285C"/>
<rect x="306" y="39" width="8" height="54" rx="4" fill="#5856CE"/>
<rect x="306" y="7" width="8" height="28" rx="4" fill="#56C7CE"/>
</svg>
