<svg width="93" height="96" viewBox="0 0 93 96" fill="none" xmlns="http://www.w3.org/2000/svg">
<path d="M23.8324 9.01076e-10L4.23942 1.60288e-10C1.90774 0 0 1.4506 2.11198e-10 3.21391L1.18727e-09 18.0674C1.30343e-09 19.835 1.91347 21.2813 4.23942 21.2813L23.8324 21.2813C26.1641 21.2813 28.0718 19.8307 28.0718 18.0674L28.0718 3.21391C28.0718 1.4506 26.1584 9.89018e-10 23.8324 9.01076e-10Z" fill="#FF621F"/>
<path d="M89.8937 95.917L88.179 95.917C87.987 95.917 87.8277 95.8734 87.7012 95.7861C87.579 95.6945 87.4939 95.5789 87.4459 95.4393L86.883 93.7768L83.2571 93.7768L82.6943 95.4393C82.6506 95.5614 82.5655 95.6727 82.439 95.7731C82.3125 95.869 82.1576 95.917 81.9743 95.917L80.2464 95.917L83.9378 86.381L86.2024 86.381L89.8937 95.917ZM83.7676 92.2715L86.3725 92.2715L85.4955 89.66C85.4388 89.4942 85.3712 89.3001 85.2926 89.0775C85.2184 88.8506 85.1443 88.6063 85.0701 88.3445C85.0003 88.6107 84.9283 88.8572 84.8541 89.0841C84.7799 89.311 84.7101 89.5073 84.6447 89.6731L83.7676 92.2715Z" fill="#282C38"/>
<path d="M92.7644 89.1299L92.7644 95.917L90.7355 95.917L90.7355 89.1299L92.7644 89.1299ZM93 87.2711C93 87.4326 92.9673 87.5853 92.9019 87.7293C92.8364 87.8689 92.747 87.9933 92.6335 88.1023C92.5201 88.2071 92.387 88.2921 92.2343 88.3576C92.0859 88.4187 91.9267 88.4492 91.7565 88.4492C91.5907 88.4492 91.4358 88.4187 91.2918 88.3576C91.1478 88.2921 91.0191 88.2071 90.9057 88.1023C90.7966 87.9933 90.7093 87.8689 90.6439 87.7293C90.5828 87.5853 90.5522 87.4326 90.5522 87.2711C90.5522 87.1053 90.5828 86.9504 90.6439 86.8064C90.7093 86.6624 90.7966 86.5359 90.9057 86.4268C91.0191 86.3177 91.1478 86.2327 91.2918 86.1716C91.4358 86.1105 91.5907 86.0799 91.7565 86.0799C91.9267 86.0799 92.0859 86.1105 92.2343 86.1716C92.387 86.2327 92.5201 86.3177 92.6335 86.4268C92.747 86.5359 92.8364 86.6624 92.9019 86.8064C92.9673 86.9504 93 87.1053 93 87.2711Z" fill="#282C38"/>
</svg>
