<svg width="24" height="24" viewBox="0 0 24 24" fill="none" xmlns="http://www.w3.org/2000/svg">
<mask id="mask0_0_320" style="mask-type:luminance" maskUnits="userSpaceOnUse" x="-3" y="-3" width="30" height="30">
<rect x="-2.39769" y="-2.3997" width="28.8004" height="28.8004" fill="white"/>
</mask>
<g mask="url(#mask0_0_320)">
<path fill-rule="evenodd" clip-rule="evenodd" d="M5.99408 12.0002C5.99408 15.3134 8.68932 18.0087 12.0026 18.0087C15.3158 18.0087 18.0111 15.3134 18.0111 12.0002C18.0111 8.68695 15.3158 5.99171 12.0026 5.99171C8.68932 5.99171 5.99408 8.68695 5.99408 12.0002ZM12.0026 8.39173C13.9922 8.39173 15.611 10.0105 15.611 12.0002C15.611 13.9898 13.9922 15.6086 12.0026 15.6086C10.0129 15.6086 8.39412 13.9898 8.39412 12.0002C8.39412 10.0105 10.0129 8.39173 12.0026 8.39173ZM10.8002 20.4003H13.2002V24.0003H10.8002V20.4003ZM10.8002 0H13.2002V3.60005H10.8002V0ZM0 10.8002H3.60005V13.2002H0V10.8002ZM20.4003 10.8002H24.0003V13.2002H20.4003V10.8002Z" fill="#878A92"/>
<path fill-rule="evenodd" clip-rule="evenodd" d="M2.66488 19.6366L5.20975 17.0902L6.90733 18.7868L4.36246 21.3331L2.66488 19.6366Z" fill="#878A92"/>
<path fill-rule="evenodd" clip-rule="evenodd" d="M17.0912 5.2124L19.6376 2.66589L21.3347 4.36294L18.7883 6.90945L17.0912 5.2124Z" fill="#878A92"/>
<path fill-rule="evenodd" clip-rule="evenodd" d="M5.21276 6.91084L2.66789 4.36447L4.36548 2.66789L6.91034 5.21427L5.21276 6.91084Z" fill="#878A92"/>
<path fill-rule="evenodd" clip-rule="evenodd" d="M21.3338 19.6366L19.6367 21.3337L17.0902 18.7873L18.7872 17.0902L21.3338 19.6366Z" fill="#878A92"/>
</g>
</svg>
