<svg width="20" height="20" viewBox="0 0 20 20" fill="none" xmlns="http://www.w3.org/2000/svg">
<g clip-path="url(#clip0_12_19670)">
<path d="M19.1429 6.33333H20V14.6667H19.1429V17.1667C19.1429 17.3877 19.0526 17.5996 18.8918 17.7559C18.7311 17.9122 18.513 18 18.2857 18H2.85714C2.62981 18 2.4118 17.9122 2.25105 17.7559C2.09031 17.5996 2 17.3877 2 17.1667V3.83333C2 3.61232 2.09031 3.40036 2.25105 3.24408C2.4118 3.0878 2.62981 3 2.85714 3H18.2857C18.513 3 18.7311 3.0878 18.8918 3.24408C19.0526 3.40036 19.1429 3.61232 19.1429 3.83333V6.33333ZM17.4286 14.6667H12.2857C11.1491 14.6667 10.059 14.2277 9.25526 13.4463C8.45153 12.6649 8 11.6051 8 10.5C8 9.39493 8.45153 8.33512 9.25526 7.55372C10.059 6.77232 11.1491 6.33333 12.2857 6.33333H17.4286V4.66667H3.71429V16.3333H17.4286V14.6667ZM18.2857 13V8H12.2857C11.6037 8 10.9497 8.26339 10.4674 8.73223C9.9852 9.20107 9.71429 9.83696 9.71429 10.5C9.71429 11.163 9.9852 11.7989 10.4674 12.2678C10.9497 12.7366 11.6037 13 12.2857 13H18.2857ZM12.2857 9.66667H14.8571V11.3333H12.2857V9.66667Z" fill="#9197A4"/>
</g>
<defs>
<clipPath id="clip0_12_19670">
<rect width="20" height="20" fill="white"/>
</clipPath>
</defs>
</svg>
