<svg width="22" height="22" viewBox="0 0 22 22" fill="none" xmlns="http://www.w3.org/2000/svg">
<path d="M8.36192 13.384C8.36192 12.9602 8.01832 12.6166 7.59448 12.6166C7.17063 12.6166 6.82703 12.9602 6.82703 13.384H8.36192ZM13.0689 11.7161L13.3253 10.9927L13.3207 10.9912L13.0689 11.7161ZM8.94517 10.2836L8.68879 11.0069L8.69333 11.0085L8.94517 10.2836ZM13.6522 8.61565C13.6522 9.0395 13.9958 9.3831 14.4196 9.3831C14.8434 9.3831 15.187 9.0395 15.187 8.61565H13.6522ZM6.82703 13.384C6.82703 15.0923 8.1489 16.5357 9.8661 16.5357V15.0008C9.06609 15.0008 8.36192 14.3158 8.36192 13.384H6.82703ZM9.8661 16.5357H12.4345V15.0008H9.8661V16.5357ZM12.4345 16.5357C13.9855 16.5357 15.187 15.2278 15.187 13.691H13.6522C13.6522 14.4463 13.0732 15.0008 12.4345 15.0008V16.5357ZM15.187 13.691C15.187 12.957 15.0266 12.3481 14.6514 11.8694C14.2833 11.3998 13.7849 11.1557 13.3253 10.9928L12.8125 12.4395C13.1613 12.5631 13.3383 12.6822 13.4434 12.8163C13.5414 12.9414 13.6522 13.1766 13.6522 13.691H15.187ZM13.3207 10.9912L9.19702 9.55862L8.69333 11.0085L12.8171 12.4411L13.3207 10.9912ZM9.20155 9.56021C8.85276 9.43659 8.67581 9.31747 8.57067 9.18336C8.47265 9.05831 8.36192 8.82305 8.36192 8.30868H6.82703C6.82703 9.04268 6.98746 9.6516 7.3627 10.1303C7.73082 10.5999 8.22921 10.844 8.6888 11.0069L9.20155 9.56021ZM8.36192 8.30868C8.36192 7.5534 8.9409 6.99891 9.57959 6.99891V5.46403C8.02852 5.46403 6.82703 6.77186 6.82703 8.30868H8.36192ZM9.57959 6.99891H12.148V5.46403H9.57959V6.99891ZM12.148 6.99891C12.948 6.99891 13.6522 7.6839 13.6522 8.61565H15.187C15.187 6.90741 13.8652 5.46403 12.148 5.46403V6.99891Z" fill="white"/>
<path d="M11.7674 4.86047C11.7674 4.43662 11.4238 4.09302 11 4.09302C10.5762 4.09302 10.2326 4.43662 10.2326 4.86047H11.7674ZM10.2326 17.1395C10.2326 17.5634 10.5762 17.907 11 17.907C11.4238 17.907 11.7674 17.5634 11.7674 17.1395H10.2326ZM10.2326 4.86047V17.1395H11.7674V4.86047H10.2326Z" fill="white"/>
<path d="M20.4651 11C20.4651 16.2274 16.2274 20.4651 11 20.4651V22C17.0752 22 22 17.0752 22 11H20.4651ZM11 20.4651C5.77256 20.4651 1.53488 16.2274 1.53488 11H0C0 17.0752 4.92487 22 11 22V20.4651ZM1.53488 11C1.53488 5.77256 5.77256 1.53488 11 1.53488V0C4.92487 0 0 4.92487 0 11H1.53488ZM11 1.53488C16.2274 1.53488 20.4651 5.77256 20.4651 11H22C22 4.92487 17.0752 0 11 0V1.53488Z" fill="white"/>
</svg>
