<svg width="18" height="17" viewBox="0 0 18 17" fill="none" xmlns="http://www.w3.org/2000/svg">
<path d="M17.6933 6.42334C17.5765 6.06414 17.2579 5.80983 16.8824 5.77585L11.7615 5.31094L9.73769 0.572781C9.58827 0.224673 9.24828 0 8.86985 0C8.49143 0 8.15131 0.224673 8.00283 0.572781L5.97902 5.31094L0.857287 5.77585C0.481839 5.8105 0.163914 6.06482 0.0464341 6.42334C-0.0703687 6.78255 0.0375013 7.17654 0.321455 7.42558L4.19246 10.8199L3.0511 15.8469C2.96759 16.2165 3.11105 16.5987 3.41775 16.8204C3.5826 16.9402 3.77628 17 3.97063 17C4.13765 17 4.3048 16.9556 4.45408 16.8663L8.86985 14.226L13.2848 16.8663C13.6087 17.0598 14.0159 17.0421 14.322 16.8204C14.6287 16.5987 14.7721 16.2165 14.6886 15.8469L13.5472 10.8199L17.4183 7.42558C17.7021 7.17654 17.8101 6.78336 17.6933 6.42334Z" fill="#742996"/>
</svg>
