<svg width="32" height="32" viewBox="0 0 32 32" fill="none" xmlns="http://www.w3.org/2000/svg">
<path d="M24 8.5587V6.6667C24 6.31309 23.8595 5.97395 23.6095 5.7239C23.3594 5.47385 23.0203 5.33337 22.6666 5.33337H10.6666C10.313 5.33337 9.97388 5.47385 9.72383 5.7239C9.47378 5.97395 9.33331 6.31309 9.33331 6.6667V8.5587C8.27597 12.1 7.26263 13.6947 7.3173 16.6667C7.37464 19.7681 8.48797 21.2361 10.5466 27.1361C10.6431 27.3895 10.8142 27.6077 11.0372 27.762C11.2602 27.9162 11.5248 27.9992 11.796 28.0001H17.4346C17.7503 27.9999 18.0556 27.8878 18.2963 27.6837C18.537 27.4796 18.6976 27.1967 18.7493 26.8854L19.3333 23.3881L19.9626 27.1654C20.0015 27.3989 20.1221 27.611 20.3028 27.7638C20.4835 27.9167 20.7126 28.0004 20.9493 28.0001H21.7693C21.9723 27.9995 22.1702 27.9372 22.337 27.8215C22.5037 27.7058 22.6312 27.542 22.7027 27.3521C24.8026 21.3521 25.9573 19.7921 26.0146 16.6681C26.0706 13.688 25.048 12.068 24 8.5587ZM22.6666 6.6667V8.00004H10.6666V6.6667H22.6666ZM21.5373 26.6667H21.2307L19.9906 19.2241C19.9644 19.0687 19.884 18.9277 19.7636 18.826C19.6433 18.7244 19.4909 18.6686 19.3333 18.6686C19.1758 18.6686 19.0233 18.7244 18.903 18.826C18.7827 18.9277 18.7023 19.0687 18.676 19.2241L17.4346 26.6667H11.7946C9.68531 20.6667 8.70797 19.4174 8.65064 16.6667C8.59597 14.0267 9.48931 12.6467 10.4813 9.33337H22.852C23.8386 12.6267 24.732 14.02 24.6826 16.6427C24.632 19.4147 23.64 20.6827 21.5373 26.6667Z" fill="#9F9F9F"/>
</svg>
