<svg width="20" height="20" viewBox="0 0 20 20" fill="none" xmlns="http://www.w3.org/2000/svg">
<g opacity="0.3">
<path d="M16.7493 7.68287C15.241 7.68287 14.6244 6.61621 15.3744 5.30787C15.8077 4.54954 15.5493 3.58287 14.791 3.14954L13.3493 2.32454C12.691 1.93287 11.841 2.16621 11.4493 2.82454L11.3577 2.98287C10.6077 4.29121 9.37435 4.29121 8.61602 2.98287L8.52435 2.82454C8.14935 2.16621 7.29935 1.93287 6.64102 2.32454L5.19935 3.14954C4.44102 3.58287 4.18268 4.55787 4.61602 5.31621C5.37435 6.61621 4.75768 7.68287 3.24935 7.68287C2.38268 7.68287 1.66602 8.39121 1.66602 9.26621V10.7329C1.66602 11.5995 2.37435 12.3162 3.24935 12.3162C4.75768 12.3162 5.37435 13.3829 4.61602 14.6912C4.18268 15.4495 4.44102 16.4162 5.19935 16.8495L6.64102 17.6745C7.29935 18.0662 8.14935 17.8329 8.54102 17.1745L8.63268 17.0162C9.38268 15.7079 10.616 15.7079 11.3743 17.0162L11.466 17.1745C11.8577 17.8329 12.7077 18.0662 13.366 17.6745L14.8077 16.8495C15.566 16.4162 15.8243 15.4412 15.391 14.6912C14.6327 13.3829 15.2494 12.3162 16.7577 12.3162C17.6244 12.3162 18.341 11.6079 18.341 10.7329V9.26621C18.3327 8.39954 17.6243 7.68287 16.7493 7.68287ZM9.99935 12.7079C8.50768 12.7079 7.29102 11.4912 7.29102 9.99954C7.29102 8.50787 8.50768 7.29121 9.99935 7.29121C11.491 7.29121 12.7077 8.50787 12.7077 9.99954C12.7077 11.4912 11.491 12.7079 9.99935 12.7079Z" fill="#292D32"/>
</g>
</svg>
