<svg width="30" height="30" viewBox="0 0 30 30" fill="none" xmlns="http://www.w3.org/2000/svg">
<g clip-path="url(#clip0_52_63743)">
<path d="M1.40625 22.4062L0.75 22.9688L3.75 26.3438L5.4375 25.5L2.90625 22.9688L1.40625 22.4062ZM27.6562 2.4375L29.25 6H27.5625L26.5312 2.8125L27.6562 2.4375Z" fill="#1C364F"/>
<path d="M24.0945 0.1875L6.28203 0.46875C4.40703 0.46875 2.62579 2.15625 2.34454 4.125L0.282035 20.3437C0.000785351 22.5 1.31329 24.375 3.28204 24.5625L21.9383 26.25C24.282 26.4375 26.4383 24.6562 26.6258 22.2187L27.9383 4.125C28.032 1.96875 26.3445 0.1875 24.0945 0.1875Z" fill="#1C364F"/>
<path d="M26.1571 4.40607L9.00086 4.68732C7.12586 4.68732 5.53211 6.28107 5.25086 8.15607L3.18836 23.7186C2.90711 25.7811 4.21961 27.6561 6.09461 27.7498L24.0009 29.3436C26.2509 29.5311 28.3134 27.8436 28.5009 25.4998L29.8134 8.06232C29.9071 5.99982 28.3134 4.31232 26.1571 4.40607Z" fill="#1C364F"/>
<path d="M4.125 3.46875L4.875 2.34375L24.1875 1.6875L25.2188 3.1875C25.3125 3.375 24.75 5.0625 24.75 5.0625L4.96875 4.96875L4.125 3.46875ZM2.15625 21.2812L3 20.25L22.3125 20.625L23.25 22.125C23.3438 22.3125 22.6875 23.9062 22.6875 23.9062L3 22.7812L2.15625 21.2812Z" fill="#5E636B"/>
<path d="M23.3447 1.125L6.75093 1.40625C4.96968 1.40625 3.37593 2.90625 3.09468 4.78125L1.21968 19.875C0.938426 21.8438 2.25093 23.625 4.03218 23.8125L21.3759 25.4062C23.6259 25.5938 25.5009 23.9062 25.6884 21.6562L26.9072 4.78125C27.0947 2.71875 25.5009 1.125 23.3447 1.125ZM4.78218 22.3125L3.93843 22.2188C3.46968 22.2188 3.09468 21.75 3.18843 21.2812V21.0938C3.28218 20.625 3.65718 20.3438 4.12593 20.3438L4.96968 20.4375C5.43843 20.4375 5.81343 20.9062 5.71968 21.375L5.62593 21.5625C5.62593 22.0312 5.15718 22.3125 4.78218 22.3125ZM6.93843 4.3125H6.18843C5.71968 4.3125 5.25093 3.84375 5.34468 3.375C5.43843 3 5.71968 2.625 6.18843 2.625H6.93843C7.40718 2.625 7.87593 3.09375 7.78218 3.5625C7.78218 4.03125 7.40718 4.3125 6.93843 4.3125ZM8.81343 22.5938L7.87593 22.5C7.40718 22.5 7.03218 22.0312 7.12593 21.5625V21.375C7.21968 20.9062 7.59468 20.625 8.06343 20.625L9.00093 20.7188C9.46968 20.7188 9.84468 21.1875 9.75093 21.6562V21.8437C9.65718 22.3125 9.28218 22.6875 8.81343 22.5938ZM10.8759 4.3125H10.0322C9.56343 4.3125 9.09468 3.84375 9.18843 3.375C9.28218 2.90625 9.56343 2.625 10.0322 2.625H10.8759C11.3447 2.625 11.8134 3.09375 11.7197 3.5625C11.7197 4.03125 11.3447 4.3125 10.8759 4.3125ZM13.0322 22.9688L12.0009 22.875C11.5322 22.875 11.1572 22.4062 11.2509 21.9375V21.75C11.3447 21.2812 11.7197 21 12.1884 21L13.2197 21.0938C13.6884 21.0938 14.0634 21.5625 13.9697 22.0312V22.3125C13.8759 22.6875 13.5009 23.0625 13.0322 22.9688ZM15.0009 4.3125H14.0634C13.5947 4.3125 13.1259 3.84375 13.2197 3.375V3.28125C13.2197 2.8125 13.5947 2.53125 14.0634 2.53125H15.0009C15.4697 2.53125 15.9384 3 15.8447 3.46875V3.5625C15.7509 4.03125 15.3759 4.3125 15.0009 4.3125ZM17.4384 23.3437L16.3134 23.25C15.8447 23.25 15.4697 22.7812 15.5634 22.3125V22.0312C15.5634 21.5625 16.0322 21.1875 16.5009 21.2812L17.6259 21.375C18.0947 21.375 18.4697 21.8437 18.3759 22.3125V22.5938C18.2822 23.0625 17.9072 23.3437 17.4384 23.3437ZM19.2197 4.3125H18.1884C17.7197 4.3125 17.2509 3.84375 17.3447 3.375V3.28125C17.3447 2.8125 17.7197 2.53125 18.1884 2.53125H19.2197C19.6884 2.53125 20.1572 3 20.0634 3.46875V3.5625C20.0634 4.03125 19.6884 4.3125 19.2197 4.3125ZM22.0322 23.7187L20.8134 23.625C20.3447 23.625 19.9697 23.1562 20.0634 22.6875V22.4062C20.0634 21.9375 20.5322 21.5625 21.0009 21.6562L22.2197 21.75C22.6884 21.75 23.0634 22.2188 22.9697 22.6875V22.9688C22.8759 23.4375 22.5009 23.8125 22.0322 23.7187ZM23.6259 4.3125H22.5009C22.0322 4.3125 21.6572 3.84375 21.6572 3.375V3.28125C21.6572 2.8125 22.0322 2.53125 22.5009 2.53125H23.6259C24.0947 2.53125 24.5634 2.90625 24.4697 3.46875V3.5625C24.4697 3.9375 24.0947 4.3125 23.6259 4.3125Z" fill="#295472"/>
<path d="M2.43667 10.125L1.21792 19.5L1.12417 20.0625C1.03042 21.6562 1.87417 23.625 4.03042 23.9062L21.8429 25.5H21.9367C23.7179 25.6875 25.5929 23.9062 25.6867 22.125L25.7804 21.375L26.5304 10.7812L2.43667 10.125Z" fill="url(#paint0_linear_52_63743)"/>
<path opacity="0.4" d="M27.5635 7.59448L26.3447 24.3757C26.3447 24.5632 26.3447 24.657 26.4385 24.7507C26.8135 25.2195 27.4697 25.032 27.5635 24.4695L28.876 7.87573C28.876 7.68823 28.876 7.59448 28.7822 7.50073L28.6885 7.40698C28.3135 6.75073 27.5635 7.03198 27.5635 7.59448ZM5.43847 26.532C5.53222 26.6257 5.71972 26.7195 5.90722 26.7195L22.6885 28.3132C23.3447 28.407 23.8135 27.5632 23.3447 27.0945L23.251 26.907C23.1572 26.7195 22.9697 26.6257 22.7822 26.6257L6.00097 25.2195C5.34472 25.1257 4.87597 25.9695 5.43847 26.532Z" fill="#406D96"/>
<path d="M10.313 13.3131L9.28178 22.5006C9.18803 23.0631 9.75053 23.5318 10.313 23.2506L18.938 19.3131C19.5005 19.0318 19.5943 18.1881 19.1255 17.9068L11.5318 12.7506C11.063 12.3756 10.4068 12.7506 10.313 13.3131Z" fill="#1C364F"/>
<path d="M9.46928 12.0943L8.43803 21.2818C8.34428 21.8443 8.90678 22.3131 9.46928 22.0318L18.0943 18.0943C18.6568 17.8131 18.7505 16.9693 18.2818 16.6881L10.688 11.5318C10.2193 11.1568 9.56303 11.5318 9.46928 12.0943Z" fill="white"/>
<path opacity="0.35" d="M10.1254 13.4072L9.37541 19.9697C9.28166 20.4385 9.75041 20.7197 10.1254 20.5322L16.3129 17.7197C16.7817 17.5322 16.7817 16.9697 16.4067 16.6885L10.9692 13.0322C10.6879 12.751 10.1254 13.0322 10.1254 13.4072Z" fill="#97CBE8"/>
<path d="M23.2492 10.5938L22.3117 25.4062C23.9992 25.3125 25.593 23.625 25.6867 22.0312L25.7805 21.2813L26.5305 10.6875L23.2492 10.5938ZM5.53046 10.2187L2.43671 10.125L1.21796 19.5L1.12421 20.0625C1.03046 21.5625 1.87421 23.4375 3.74921 23.8125L5.53046 10.2187Z" fill="#2F5877"/>
<path d="M3.7509 13.5H3.46965C3.09465 13.5 2.71965 13.125 2.8134 12.75L2.90715 12.375C2.90715 12 3.28215 11.8125 3.5634 11.8125H3.84465C4.21965 11.8125 4.59465 12.1875 4.5009 12.5625L4.40715 12.9375C4.40715 13.2187 4.03215 13.5 3.7509 13.5ZM3.28215 16.5938H3.09465C2.71965 16.5938 2.34465 16.2187 2.4384 15.8437L2.53215 15.4687C2.53215 15.0937 2.90715 14.9062 3.1884 14.9062H3.3759C3.7509 14.9062 4.1259 15.2813 4.03215 15.6563L3.9384 16.0312C3.9384 16.3125 3.65715 16.5938 3.28215 16.5938ZM2.8134 19.7812H2.6259C2.2509 19.7812 1.8759 19.4062 1.96965 19.0312L2.0634 18.6562C2.0634 18.2812 2.4384 18 2.8134 18.0937H3.0009C3.3759 18.0937 3.7509 18.4688 3.65715 18.8438L3.5634 19.2187C3.46965 19.5 3.1884 19.7812 2.8134 19.7812ZM24.9384 14.7187H24.6571C24.2821 14.7187 23.9072 14.3437 23.9072 13.9687V13.5937C23.9072 13.2187 24.1884 13.0312 24.5634 13.0312H24.8447C25.2197 13.0312 25.5946 13.4062 25.5946 13.7812V14.1562C25.5009 14.4375 25.2197 14.7187 24.9384 14.7187ZM24.6571 17.8125H24.3759C24.0009 17.8125 23.6259 17.4375 23.6259 17.0625V16.6875C23.6259 16.3125 23.9071 16.125 24.2821 16.125H24.4697C24.8447 16.125 25.2196 16.5 25.2196 16.875V17.25C25.3134 17.625 25.0321 17.8125 24.6571 17.8125ZM24.3759 21H24.1884C23.8134 21 23.4384 20.625 23.4384 20.25V19.875C23.4384 19.5 23.7197 19.2188 24.0947 19.3125H24.2821C24.6571 19.3125 25.0322 19.6875 25.0322 20.0625V20.4375C25.0322 20.7187 24.7509 21 24.3759 21Z" fill="#5E92B9"/>
<path d="M5.4375 2.25C5.34375 2.25 4.6875 4.78125 4.6875 4.78125L21.6563 6.46875L25.125 4.5V1.96875L5.4375 2.25Z" fill="#295472"/>
<path d="M6.375 3.28125H9.09375L9 4.03125H7.125L6.84375 5.53125H8.53125L8.4375 6.375H6.75L6.375 8.4375H5.53125L6.375 3.28125ZM9.9375 8.4375L10.6875 3.1875H12.1875C13.5938 3.1875 13.875 3.84375 13.7812 4.78125C13.6875 5.71875 13.0312 6.1875 12.5625 6.28125L13.875 8.53125H12.75L11.625 6.46875H10.9687L10.875 8.4375H9.9375ZM11.5312 4.03125L11.25 5.625H11.8125C12.2813 5.625 12.8437 5.34375 12.8437 4.78125C12.9375 4.40625 12.75 4.03125 12 4.03125H11.5312ZM16.125 3.09375H19.125L19.0312 4.03125H16.875L16.6875 5.34375H18.5625L18.4688 6.28125H16.5938L16.4062 7.6875H18.6562L18.5625 8.625H15.375L16.125 3.09375ZM21.0938 3H24.375L24.2812 3.9375H22.0312L21.8438 5.34375H23.8125L23.7188 6.28125H21.75L21.5625 7.6875H23.9062L23.8125 8.625L20.5312 8.53125L21.0938 3Z" fill="#1C364F"/>
<path d="M6.1875 2.8125H8.90625L8.8125 3.65625H6.9375L6.65625 5.0625H8.34375L8.25 6H6.5625L6.1875 7.96875H5.34375L6.1875 2.8125ZM9.84375 8.0625L10.5938 2.8125H12.0938C13.5 2.8125 13.7813 3.46875 13.6875 4.40625C13.5938 5.34375 12.9375 5.8125 12.4688 5.90625L13.7812 8.15625H12.6562L11.5313 6.09375H10.875L10.5938 8.0625H9.84375ZM11.3438 3.65625L11.1562 5.25H11.7188C12.1875 5.25 12.75 4.96875 12.75 4.40625C12.8438 4.03125 12.6562 3.65625 11.9062 3.65625C11.8125 3.5625 11.5313 3.5625 11.3438 3.65625ZM16.0313 2.71875H19.0312L18.9375 3.65625H16.7812L16.5938 4.96875H18.4688L18.375 5.90625H16.5L16.3125 7.3125H18.5625L18.4688 8.25H15.2812L16.0313 2.71875ZM21 2.625L24.1875 2.53125L24.0938 3.46875H21.8437L21.6563 4.875H23.625L23.5313 5.8125H21.5625L21.375 7.3125H23.7187L23.625 8.25L20.3438 8.15625L21 2.625Z" fill="white"/>
</g>
<defs>
<linearGradient id="paint0_linear_52_63743" x1="33.7132" y1="15.7352" x2="-4.48733" y2="19.3873" gradientUnits="userSpaceOnUse">
<stop stop-color="#2E5882"/>
<stop offset="1" stop-color="#75ADD3"/>
</linearGradient>
<clipPath id="clip0_52_63743">
<rect width="30" height="30" fill="white"/>
</clipPath>
</defs>
</svg>
