<svg width="22" height="21" viewBox="0 0 22 21" fill="none" xmlns="http://www.w3.org/2000/svg">
<path d="M21.724 8.17453C21.6996 8.06487 21.652 7.96173 21.5844 7.87207C21.5167 7.78241 21.4306 7.70833 21.3318 7.65484L18.9981 6.36052C18.873 6.10685 18.7322 5.86123 18.5764 5.62511L18.6255 2.95803C18.6264 2.84616 18.6042 2.73531 18.5603 2.6324C18.5165 2.52948 18.4519 2.43672 18.3705 2.3599C17.2086 1.30637 15.8344 0.51396 14.3405 0.0360053C14.2332 0.00255386 14.1201 -0.00775108 14.0085 0.00577122C13.8969 0.0192935 13.7895 0.0563353 13.6933 0.114449L11.4087 1.48721C11.1243 1.47741 10.8498 1.47741 10.5654 1.48721L8.28073 0.114449C8.18454 0.0563353 8.07712 0.0192935 7.96557 0.00577122C7.85401 -0.00775108 7.74085 0.00255386 7.63357 0.0360053C6.13771 0.514323 4.76296 1.31041 3.60353 2.3697C3.5215 2.44388 3.4563 2.53477 3.41233 2.63625C3.36835 2.73773 3.34662 2.84745 3.34858 2.95803L3.39761 5.62511C3.24072 5.86044 3.10345 6.10558 2.96617 6.36052L0.632475 7.65484C0.535128 7.70889 0.450577 7.78329 0.384585 7.87297C0.318593 7.96265 0.272709 8.06551 0.250063 8.17453C-0.0833542 9.70585 -0.0833542 11.291 0.250063 12.8223C0.274419 12.932 0.322041 13.0351 0.389708 13.1248C0.457375 13.2144 0.543508 13.2885 0.642281 13.342L2.97598 14.6363C3.10108 14.89 3.2419 15.1356 3.39761 15.3717L3.34858 18.0388C3.34769 18.1507 3.36986 18.2615 3.41373 18.3644C3.45759 18.4674 3.5222 18.5601 3.60353 18.6369C4.76551 19.6905 6.13968 20.4829 7.63357 20.9608C7.74085 20.9943 7.85401 21.0046 7.96557 20.9911C8.07712 20.9775 8.18454 20.9405 8.28073 20.8824L10.5654 19.5096H11.4087L13.7031 20.8824C13.8224 20.9608 13.9624 21.0018 14.1052 21.0001C14.1849 20.9966 14.2639 20.9834 14.3405 20.9608C15.8364 20.4825 17.2111 19.6864 18.3705 18.6271C18.4526 18.553 18.5178 18.4621 18.5617 18.3606C18.6057 18.2591 18.6274 18.1494 18.6255 18.0388L18.5764 15.3717C18.7333 15.1364 18.8706 14.8913 19.0079 14.6363L21.3416 13.342C21.4389 13.2879 21.5235 13.2135 21.5895 13.1239C21.6555 13.0342 21.7014 12.9313 21.724 12.8223C22.0574 11.291 22.0574 9.70585 21.724 8.17453ZM20.2532 12.1457L18.0273 13.3812C17.8861 13.4633 17.7733 13.5864 17.7038 13.7342C17.5424 14.0684 17.3556 14.3897 17.1449 14.6952C17.0553 14.8322 17.0076 14.9923 17.0076 15.156L17.0468 17.6956C16.2026 18.4144 15.2361 18.9757 14.1934 19.3527L12.0068 18.0388C11.8848 17.9678 11.746 17.9305 11.6048 17.9309H11.5459C11.1739 17.9604 10.8001 17.9604 10.4281 17.9309C10.2674 17.9222 10.1074 17.9596 9.96726 18.0388L7.78065 19.3527C6.7392 18.9775 5.77296 18.4197 4.92726 17.7054L4.96648 15.156C4.96642 14.9923 4.91873 14.8322 4.82921 14.6952C4.62207 14.3874 4.43536 14.0664 4.2703 13.7342C4.1979 13.5884 4.08572 13.466 3.94672 13.3812L1.72088 12.1457C1.52471 11.0563 1.52471 9.94055 1.72088 8.8511L3.94672 7.61562C4.08793 7.53355 4.20079 7.41042 4.2703 7.26262C4.43162 6.92842 4.61847 6.60715 4.82921 6.30169C4.91873 6.16465 4.96642 6.00452 4.96648 5.84083L4.92726 3.30122C5.77147 2.58241 6.73795 2.02112 7.78065 1.6441L9.96726 2.95803C10.107 3.0383 10.2673 3.0758 10.4281 3.06589C10.8001 3.03647 11.1739 3.03647 11.5459 3.06589C11.7067 3.07467 11.8666 3.03724 12.0068 2.95803L14.1934 1.6441C15.2349 2.0193 16.2011 2.57713 17.0468 3.29141L17.0076 5.84083C17.0076 6.00452 17.0553 6.16465 17.1449 6.30169C17.352 6.60942 17.5387 6.93042 17.7038 7.26262C17.7762 7.40846 17.8883 7.53084 18.0273 7.61562L20.2532 8.8511C20.4494 9.94055 20.4494 11.0563 20.2532 12.1457ZM10.987 5.00737C9.901 5.00737 8.83936 5.32941 7.93637 5.93278C7.03337 6.53614 6.32957 7.39373 5.91396 8.39708C5.49836 9.40044 5.38961 10.5045 5.60149 11.5697C5.81336 12.6348 6.33633 13.6132 7.10427 14.3812C7.87221 15.1491 8.85062 15.6721 9.91578 15.884C10.9809 16.0958 12.085 15.9871 13.0884 15.5715C14.0917 15.1559 14.9493 14.4521 15.5527 13.5491C16.156 12.6461 16.4781 11.5844 16.4781 10.4984C16.4781 9.0421 15.8996 7.64543 14.8698 6.61566C13.84 5.58589 12.4433 5.00737 10.987 5.00737ZM10.987 14.4206C10.2113 14.4206 9.45298 14.1906 8.80798 13.7596C8.16299 13.3286 7.66027 12.7161 7.36341 11.9994C7.06655 11.2827 6.98888 10.4941 7.14021 9.73324C7.29155 8.97241 7.6651 8.27355 8.21363 7.72502C8.76216 7.17649 9.46102 6.80294 10.2219 6.6516C10.9827 6.50026 11.7713 6.57794 12.488 6.8748C13.2047 7.17166 13.8172 7.67437 14.2482 8.31937C14.6792 8.96437 14.9092 9.72269 14.9092 10.4984C14.9092 11.5386 14.496 12.5363 13.7604 13.2718C13.0249 14.0074 12.0273 14.4206 10.987 14.4206Z" fill="#00B3D6"/>
</svg>
