<svg width="64" height="64" viewBox="0 0 64 64" fill="none" xmlns="http://www.w3.org/2000/svg">
<path d="M54.9869 22.5337C52.1869 10.2137 41.4403 4.66699 32.0003 4.66699C32.0003 4.66699 32.0003 4.66699 31.9736 4.66699C22.5603 4.66699 11.7869 10.187 8.98692 22.507C5.86692 36.267 14.2936 47.9203 21.9203 55.2537C24.7469 57.9737 28.3736 59.3337 32.0003 59.3337C35.6269 59.3337 39.2536 57.9737 42.0536 55.2537C49.6803 47.9203 58.1069 36.2937 54.9869 22.5337ZM32.0003 35.8937C27.3603 35.8937 23.6003 32.1337 23.6003 27.4937C23.6003 22.8537 27.3603 19.0937 32.0003 19.0937C36.6403 19.0937 40.4003 22.8537 40.4003 27.4937C40.4003 32.1337 36.6403 35.8937 32.0003 35.8937Z" fill="#35C1BE"/>
</svg>
