<svg width="15" height="16" viewBox="0 0 15 16" fill="none" xmlns="http://www.w3.org/2000/svg">
<path fill-rule="evenodd" clip-rule="evenodd" d="M10.0589 4.75132L5.29882 9.51227C5.08004 9.72358 4.99229 10.0365 5.06931 10.3307C5.14633 10.625 5.37613 10.8548 5.67038 10.9318C5.96462 11.0088 6.27753 10.9211 6.48884 10.7023L11.2498 5.94219C12.2359 4.95611 12.2359 3.35736 11.2498 2.37127C10.2637 1.38519 8.66497 1.38518 7.67888 2.37126L2.91792 7.13222C1.83245 8.19066 1.40026 9.75117 1.78656 11.2172C2.17286 12.6833 3.31792 13.8282 4.78402 14.2143C6.25012 14.6004 7.81058 14.168 8.86887 13.0824L13.6298 8.32225L14.8199 9.51227L10.0589 14.2732C8.57071 15.7624 6.40097 16.3442 4.36733 15.7995C2.3337 15.2548 0.745289 13.6663 0.200673 11.6327C-0.343943 9.59901 0.238019 7.42929 1.72725 5.94115L6.48884 1.18124C8.13998 -0.413482 10.7645 -0.390674 12.3877 1.2325C14.0109 2.85568 14.0337 5.48025 12.439 7.13139L7.67887 11.894C6.69267 12.88 5.09397 12.8799 4.10783 11.8939C3.1217 10.9079 3.12148 9.30917 4.10733 8.32286L8.8689 3.5613L10.0589 4.75132Z" fill="#4EAC6D"/>
</svg>
