<svg width="30" height="30" viewBox="0 0 30 30" fill="none" xmlns="http://www.w3.org/2000/svg">
<g clip-path="url(#clip0_52_65102)">
<path d="M18.8443 19.3117C20.5318 19.8742 22.0318 21.2805 22.5943 23.1555C23.1568 25.1242 22.4068 27.5617 20.9068 28.6867C19.8755 29.4367 18.6568 29.6242 17.5318 29.6242C14.7193 29.6242 11.9068 28.6867 9.09426 27.7492C8.15676 27.468 7.21926 27.093 6.37551 26.5305C5.53176 25.8742 4.87551 25.0305 4.68801 23.9055C4.50051 22.4055 5.43801 20.8117 6.65676 20.0617C8.71926 18.7492 10.8755 18.1867 13.0318 18.1867C14.813 18.093 17.063 18.7492 18.8443 19.3117Z" fill="#1D282C"/>
<path d="M18.8443 18.093C20.5318 18.6555 22.0318 20.0617 22.5943 21.9367C23.1568 23.9055 22.4068 26.343 20.9068 27.468C19.8755 28.218 18.6568 28.4055 17.5318 28.4055C14.7193 28.4055 11.9068 27.468 9.09426 26.5305C8.15676 26.2492 7.21926 25.8742 6.37551 25.3117C5.53176 24.6555 4.87551 23.8117 4.68801 22.6867C4.50051 21.1867 5.43801 19.593 6.65676 18.843C8.71926 17.5305 10.8755 16.968 13.0318 16.968C14.813 16.8742 17.063 17.5305 18.8443 18.093Z" fill="#3B3B3B"/>
<path d="M15.8429 19.0316C15.8429 19.0316 12.4679 20.4378 10.0304 24.2816C10.0304 24.2816 9.1867 20.9066 9.65545 18.5628C9.65545 18.4691 13.0304 19.9691 15.8429 19.0316Z" fill="#E5A98C"/>
<path d="M7.68776 17.3431C7.68776 17.3431 7.31276 18.3744 5.15651 18.3744C5.15651 18.3744 1.40651 11.6244 7.96901 7.03065L7.68776 17.3431ZM16.5003 6.65565C16.5003 6.65565 19.594 12.0931 17.2503 20.3431C17.2503 20.3431 20.719 20.3431 23.0628 17.5306C24.469 15.8431 23.4378 11.1556 22.5003 8.0619C21.9378 6.1869 20.2503 5.53065 18.3753 6.09315L16.5003 6.65565Z" fill="#8F8A78"/>
<path d="M7.6879 16.6875C7.6879 16.6875 7.3129 17.625 5.2504 17.625C5.2504 17.625 1.6879 11.3438 7.96915 6.9375L7.6879 16.6875Z" fill="#F4EACD"/>
<path d="M6.84375 6.09326C6.84375 6.09326 7.3125 8.06201 10.0312 8.24951C12.75 8.43701 22.0313 7.03076 22.0313 7.03076C22.0313 7.03076 19.6875 2.34326 13.9687 2.06201C9.5625 1.87451 7.125 5.34326 6.84375 6.09326Z" fill="#8F8A78"/>
<path d="M18.2812 6.46947L19.2188 10.5007C19.2188 10.5007 14.0625 12.282 6.09375 8.53197C6.09375 8.53197 6.09375 5.81322 8.625 4.12572C11.1562 2.43822 18.2812 6.46947 18.2812 6.46947Z" fill="#6A8189"/>
<path d="M21.6686 12.2571C21.6851 7.7007 18.0048 3.99367 13.4485 3.97716C8.89211 3.96065 5.18508 7.64092 5.16857 12.1973C5.15206 16.7536 8.83232 20.4606 13.3887 20.4772C17.945 20.4937 21.6521 16.8134 21.6686 12.2571Z" fill="#A67A65"/>
<path d="M21.2105 11.6398C21.2265 7.23876 17.6717 3.6581 13.2706 3.64216C8.86962 3.62621 5.28896 7.18101 5.27302 11.582C5.25707 15.9831 8.81187 19.5637 13.2129 19.5797C17.6139 19.5956 21.1946 16.0408 21.2105 11.6398Z" fill="#E5A98C"/>
<path d="M21.1197 11.4775C21.135 7.23181 17.8316 3.77799 13.7413 3.76316C9.6509 3.74834 6.32254 7.17814 6.30715 11.4238C6.29177 15.6695 9.59519 19.1233 13.6855 19.1382C17.7759 19.153 21.1043 15.7232 21.1197 11.4775Z" fill="#E8CCAA"/>
<path d="M17.0751 12.5355C17.0863 9.4289 14.661 6.90168 11.658 6.8908C8.6549 6.87991 6.21133 9.38949 6.20007 12.4961C6.18881 15.6027 8.61414 18.1299 11.6172 18.1408C14.6202 18.1517 17.0638 15.6421 17.0751 12.5355Z" fill="#FAEACF"/>
<path d="M6.9375 5.99991C6.9375 5.99991 7.40625 7.87491 9.9375 8.06241C12.4688 8.24991 21.375 6.93741 21.375 6.93741C21.375 6.93741 19.125 2.53116 13.6875 2.24991C9.46875 2.06241 7.21875 5.34366 6.9375 5.99991Z" fill="#F4EACD"/>
<path d="M14.2628 13.0855C14.2645 12.6195 13.9301 12.2405 13.5159 12.239C13.1017 12.2375 12.7645 12.6141 12.7628 13.0801C12.7611 13.5461 13.0956 13.925 13.5098 13.9265C13.924 13.928 14.2611 13.5515 14.2628 13.0855Z" fill="#3C505B"/>
<path d="M13.7487 12.7963C13.7491 12.6927 13.6655 12.6085 13.5619 12.6081C13.4584 12.6077 13.3741 12.6914 13.3737 12.7949C13.3734 12.8985 13.457 12.9827 13.5605 12.9831C13.6641 12.9835 13.7484 12.8998 13.7487 12.7963Z" fill="white"/>
<path d="M8.3097 11.2105C8.31139 10.7445 7.97697 10.3655 7.56276 10.364C7.14854 10.3625 6.81139 10.7391 6.8097 11.2051C6.80801 11.6711 7.14243 12.05 7.55664 12.0515C7.97085 12.053 8.30801 11.6765 8.3097 11.2105Z" fill="#3C505B"/>
<path d="M7.88935 10.9213C7.88973 10.8177 7.80608 10.7335 7.70253 10.7331C7.59898 10.7327 7.51473 10.8164 7.51435 10.9199C7.51398 11.0235 7.59762 11.1077 7.70117 11.1081C7.80473 11.1085 7.88898 11.0248 7.88935 10.9213Z" fill="white"/>
<path d="M18.6562 12.8431C18.6562 12.8431 19.3125 12.3743 19.875 12.5618C20.4375 12.7493 20.3438 14.5306 18.9375 14.7181L18.6562 12.8431Z" fill="#FAEACF"/>
<path d="M16.125 6.46932C16.125 6.46932 19.125 11.6256 16.875 19.5006C16.875 19.5006 20.1562 19.5006 22.3125 16.8756C23.7187 15.2818 22.5938 10.7818 21.75 7.87557C21.1875 6.09432 19.5937 5.43807 17.8125 6.00057L16.125 6.46932Z" fill="#F4EACD"/>
<path d="M17.7187 6.37497L18.5625 10.2187C18.5625 10.2187 13.3125 12.1875 5.71875 8.62497C5.71875 8.62497 6.09375 5.81247 8.53125 4.21872C10.9688 2.62497 17.7187 6.37497 17.7187 6.37497Z" fill="#F4EACD"/>
<path d="M6.46875 7.96875C6.46875 7.96875 7.125 7.03125 8.0625 7.03125C9 7.03125 12.375 9.46875 18 8.625C18 8.625 16.875 9.75 15.5625 9.84375C14.25 10.0312 9.46875 9.5625 6.46875 7.96875ZM18 17.625C18 17.625 20.5312 17.0625 20.9062 15.8438C21.2812 14.625 20.625 7.6875 20.625 7.6875C20.625 7.6875 22.0312 11.3437 21.9375 15.8438C21.9375 15.8438 20.4375 18.0938 18 18.4688V17.625Z" fill="white"/>
<path d="M11.0625 9.28174C10.125 9.84424 8.90625 9.65674 8.25 8.81299C8.0625 8.62549 7.875 8.34424 7.875 8.15674C7.875 7.50049 11.7188 5.90674 12.9375 6.93799C13.5938 7.50049 12.2813 8.53174 11.0625 9.28174Z" fill="#BF6922"/>
<path d="M19.0312 11.7188C21.6719 11.7188 23.8125 10.7114 23.8125 9.46875C23.8125 8.22611 21.6719 7.21875 19.0312 7.21875C16.3906 7.21875 14.25 8.22611 14.25 9.46875C14.25 10.7114 16.3906 11.7188 19.0312 11.7188Z" fill="#CCCDD1"/>
<path d="M18.9375 11.1562C21.5781 11.1562 23.7187 10.1489 23.7187 8.90625C23.7187 7.66361 21.5781 6.65625 18.9375 6.65625C16.2969 6.65625 14.1562 7.66361 14.1562 8.90625C14.1562 10.1489 16.2969 11.1562 18.9375 11.1562Z" fill="#1D282C"/>
<path d="M5.90648 8.15625C5.90648 8.15625 3.75023 9.75 4.50023 10.9688C5.25023 12.1875 8.25023 15.1875 16.4065 11.4375L5.90648 8.15625Z" fill="#3B3B3B"/>
<path d="M6.46875 5.625L5.71875 8.8125C5.71875 8.8125 8.25 13.0312 19.3125 11.625L19.7812 10.4063L6.46875 5.625Z" fill="#CCCDD1"/>
<path d="M6.65625 4.96875L5.8125 8.15625C5.8125 8.15625 8.25 12.2812 19.7813 11.1562C20.1563 11.1562 20.625 10.7812 20.7188 10.4062L21 9.75L6.65625 4.96875Z" fill="#1D282C"/>
<path d="M5.8125 0.9375H4.875C4.875 0.9375 5.0625 5.53125 7.96875 7.03125C10.875 8.53125 13.4062 9.28125 15.75 9.5625C18.0937 9.84375 21.4688 10.2187 23.5313 9.09375L5.8125 0.9375Z" fill="#3B3B3B"/>
<path d="M9.84284 3.65676C9.84284 3.65676 8.90534 2.25051 7.40534 1.96926C5.90534 1.68801 3.65534 1.12551 5.62409 0.375514C7.59284 -0.374486 11.8116 0.0942644 15.3741 1.40676C18.9366 2.71926 21.1866 4.50051 22.9678 6.37551C24.7491 8.25051 23.7178 9.37551 22.9678 9.37551C22.3116 9.37551 20.2491 8.71926 16.7803 6.56301C13.3116 4.40676 9.84284 3.65676 9.84284 3.65676Z" fill="#3B3B3B"/>
<path d="M9.27516 9.14968C9.88374 9.02454 10.208 8.10084 9.99947 7.08654C9.79091 6.07223 9.12849 5.35142 8.51991 5.47655C7.91132 5.60168 7.58704 6.52538 7.79559 7.53969C8.00415 8.55399 8.66657 9.27481 9.27516 9.14968Z" fill="#CCCDD1"/>
<path d="M10.8741 3.46842C10.8741 3.46842 9.74912 2.81217 8.53037 2.53092C7.31162 2.24967 5.34287 1.87467 6.93662 1.31217C8.53037 0.749666 12.1866 1.03092 15.1866 2.06217C18.1866 3.09342 20.0616 4.49967 21.4679 5.99967C22.8741 7.49967 22.7804 8.15592 22.2179 8.15592C21.6554 8.15592 19.3116 7.87467 16.3116 6.18717L10.8741 3.46842Z" fill="#898989"/>
<path d="M6.1875 9.65625L6.375 8.625L5.8125 8.15625L5.15625 9.28125L6.1875 9.65625ZM22.5 9.9375L22.125 11.25C22.125 11.4375 22.125 11.625 22.2188 11.7188C22.5 12.0938 22.9688 12.0938 23.25 11.7188C23.7188 11.0625 24.1875 9.84375 23.9062 8.34375L22.875 8.8125L22.5 9.9375Z" fill="#3B3B3B"/>
<path d="M17.0626 18.4688C17.0626 18.4688 16.9688 19.4062 17.6251 19.4062V20.3438C17.6251 20.3438 16.2188 20.4375 16.5001 19.5937C16.6876 18.75 17.0626 18.4688 17.0626 18.4688Z" fill="#8F8A78"/>
<path d="M16.0313 20.0625L15.9375 22.4062L13.6875 22.875L13.2188 25.7812L10.125 26.3438C10.2188 26.3438 11.4375 21.1875 16.0313 20.0625ZM8.90625 18.8438L7.125 20.5312L8.53125 21.2813L6.9375 22.6875L9.46875 24.4688C9.46875 24.375 8.53125 20.1562 8.90625 18.8438Z" fill="#898989"/>
<path opacity="0.28" d="M20.9001 24.4878C21.4591 22.7641 20.9542 21.0559 19.7722 20.6726C18.5902 20.2892 17.1787 21.3758 16.6197 23.0996C16.0606 24.8233 16.5656 26.5315 17.7476 26.9148C18.9296 27.2982 20.341 26.2116 20.9001 24.4878Z" fill="#898989"/>
<path d="M11.7188 16.9688C11.7188 16.9688 10.9688 16.875 10.4063 16.4063C9.84375 16.0313 9.375 16.0313 9.28125 16.0313C9.1875 16.0313 9 15.9375 8.8125 15.8438C8.625 15.75 8.34375 15.75 8.34375 15.8438C8.34375 15.9375 8.53125 16.3125 8.53125 16.3125V16.875C8.53125 17.0625 8.53125 17.625 9.09375 17.7188C9.65625 17.8125 10.0313 17.8125 10.3125 17.625C10.6875 17.5312 11.7188 16.9688 11.7188 16.9688Z" fill="#ED949A"/>
<path d="M15.1875 27.5625L14.8125 28.0312L16.5 29.1563L25.9688 19.7813L24.4688 17.7188L15.1875 27.5625Z" fill="#9A4C18"/>
<path d="M26.2506 22.4067C25.9694 26.1567 22.5006 29.3441 18.5631 29.3441C14.7194 29.3441 12.2819 26.1567 13.0319 22.5004C13.6881 19.0317 16.9694 16.4067 20.4381 16.3129C23.9069 16.2192 26.5319 18.9379 26.2506 22.4067Z" fill="#9A4C18"/>
<path d="M27.188 23.625C26.9067 27.1875 23.5317 30.2813 19.688 30.1875C15.938 30.1875 13.5942 27.0938 14.2505 23.625C14.9067 20.3438 18.0942 17.8125 21.4692 17.7188C24.8442 17.7188 27.4692 20.25 27.188 23.625Z" fill="#9A4C18"/>
<path d="M16.2188 27.8438L17.8125 28.6875L25.5938 20.5312L24.375 18.8438L16.2188 27.8438Z" fill="#F49937"/>
<path d="M26.4382 23.625C26.1569 26.7188 23.3444 29.25 20.1569 29.25C17.0632 29.25 15.0007 26.625 15.5632 23.625C16.1257 20.8125 18.8444 18.5625 21.6569 18.4688C24.5632 18.4688 26.7194 20.7188 26.4382 23.625Z" fill="#F49937"/>
<path d="M25.4066 22.4062C25.1253 25.6875 22.0316 28.4062 18.6566 28.4062C15.2816 28.4062 13.1253 25.5937 13.7816 22.4062C14.3441 19.4062 17.2503 16.9688 20.2503 16.9688C23.3441 16.9688 25.6878 19.3125 25.4066 22.4062Z" fill="#FFEDC0"/>
<path d="M24.9382 22.5938C24.6569 25.6875 21.8444 28.2188 18.6569 28.2188C15.5632 28.2188 13.5007 25.5938 14.0632 22.5938C14.6257 19.7812 17.3444 17.5312 20.1569 17.4375C23.0632 17.5312 25.2194 19.6875 24.9382 22.5938Z" fill="#FFD766"/>
<path d="M23.7193 22.5938C23.4381 24.9375 21.2818 26.9063 18.8443 26.9063C16.4068 26.9063 14.9068 24.9375 15.2818 22.5938C15.6568 20.3438 17.8131 18.5625 20.0631 18.5625C22.3131 18.6563 24.0006 20.3438 23.7193 22.5938Z" fill="#FFEDC0"/>
<path d="M23.8125 22.0311C23.5312 24.3748 21.375 26.3436 18.9375 26.3436C16.5937 26.3436 15 24.3748 15.375 22.1248C15.75 19.8748 17.9062 18.1873 20.0625 18.1873C22.4062 18.0936 24 19.7811 23.8125 22.0311Z" fill="#F49937"/>
<path d="M23.0619 22.594C22.8744 24.5628 20.9994 26.2503 18.9369 26.2503C16.8744 26.2503 15.5619 24.5628 15.9369 22.6878C16.2181 20.8128 18.0931 19.3128 19.9681 19.3128C21.8431 19.219 23.2494 20.719 23.0619 22.594Z" fill="#FFD766"/>
<path d="M20.5312 18.8438L21.0938 21L23.4375 21.6562L21.2813 23.0625L21.0938 25.5937L19.125 24.1875L16.5938 25.0313L17.7187 22.6875L16.4062 20.9062L18.9375 20.8125L20.5312 18.8438Z" fill="#F49937"/>
</g>
<defs>
<clipPath id="clip0_52_65102">
<rect width="30" height="30" fill="white"/>
</clipPath>
</defs>
</svg>
