<svg width="63" height="24" viewBox="0 0 63 24" fill="none" xmlns="http://www.w3.org/2000/svg">
<path d="M10.4341 6.17141L-7.44094e-07 16.6728L5.55696 22.2656L15.991 11.7642L10.4341 6.17141Z" fill="#769AF2"/>
<path d="M62.3106 16.7563L51.8765 6.25486L46.3195 11.8477L56.7536 22.3491L62.3106 16.7563Z" fill="#769AF2"/>
<path d="M50.0488 20.3569C47.8724 22.6091 44.9792 23.8496 41.9017 23.8496C38.8243 23.8496 35.931 22.6091 33.755 20.3572C33.755 20.3569 23.0032 9.22351 23.0032 9.22351C21.5641 7.7343 19.2228 7.7343 17.784 9.22351C17.0869 9.94472 16.7031 10.9041 16.7031 11.9243C16.7031 12.9446 17.0869 13.904 17.784 14.6252C18.5036 15.37 19.4485 15.7422 20.3934 15.7422C21.3384 15.7422 22.2836 15.3696 23.0029 14.6252L23.7659 13.8354L29.3023 19.5684L28.5405 20.3569C26.3645 22.6091 23.4712 23.8496 20.3934 23.8496C17.316 23.8496 14.4224 22.6091 12.2463 20.3569C10.0703 18.1042 8.8718 15.1096 8.8718 11.9243C8.8718 8.73907 10.0703 5.74412 12.2463 3.49184C14.4224 1.23956 17.316 -0.000921249 20.3934 -0.000921249C23.4709 -0.000921249 26.3641 1.2392 28.5402 3.49149L36.6832 11.9236L39.2845 14.6174L39.292 14.6252C40.7311 16.1144 43.0723 16.1144 44.5112 14.6252C45.2083 13.904 45.592 12.9446 45.592 11.9243C45.592 10.9041 45.2083 9.94472 44.5112 9.22351C43.0723 7.7343 40.7311 7.7343 39.292 9.22351L38.5289 10.0133L32.9926 4.28024L33.7546 3.49184C35.9307 1.23956 38.8239 -0.000921249 41.9014 -0.000921249C44.9789 -0.000921249 47.8724 1.23956 50.0485 3.49184C52.2249 5.74412 53.4234 8.73907 53.4234 11.9243C53.4234 15.1096 52.2249 18.1042 50.0488 20.3569Z" fill="#4A74EA"/>
</svg>
