<svg width="28" height="28" viewBox="0 0 28 28" fill="none" xmlns="http://www.w3.org/2000/svg">
<path d="M7.0002 7.7002H2.8002C1.6452 7.7002 0.700195 8.62667 0.700195 9.75902V23.1414C0.700195 24.2737 1.6452 25.2002 2.8002 25.2002H7.0002C8.11109 25.2002 9.10019 24.2295 9.10019 23.1414C9.10019 23.1414 9.10019 9.76314 9.10019 9.75902C9.10019 8.66578 8.12159 7.7002 7.0002 7.7002Z" fill="#A949D7"/>
<path d="M27.3002 12.0895V14.8198C27.3002 15.2024 27.2298 15.5644 27.0989 15.916L24.7141 22.4831C24.2513 23.7138 23.1444 24.4998 21.8765 24.4998H11.2002V7.93202C11.8643 6.76339 13.3536 4.09517 13.3536 4.09517C14.1787 2.63695 16.1912 2.34738 17.3584 3.54704C17.9119 4.11585 18.2439 4.91218 18.2439 5.73953V8.9869H24.2814C25.9418 8.9869 27.3002 10.3831 27.3002 12.0895Z" fill="#A949D7"/>
</svg>
