<svg width="190" height="127" viewBox="0 0 190 127" fill="none" xmlns="http://www.w3.org/2000/svg">
<path opacity="0.3" d="M181.322 112.418H131.488" stroke="white" stroke-width="2.11094" stroke-miterlimit="10" stroke-linecap="round"/>
<path opacity="0.3" d="M114.47 112.418H108.137" stroke="white" stroke-width="2.11094" stroke-miterlimit="10" stroke-linecap="round"/>
<path opacity="0.3" d="M101.585 112.418H65.4141" stroke="white" stroke-width="2.11094" stroke-miterlimit="10" stroke-linecap="round"/>
<path opacity="0.3" d="M77.3598 118.365H39.8906" stroke="white" stroke-width="2.11094" stroke-miterlimit="10" stroke-linecap="round"/>
<path opacity="0.3" d="M119.402 34.1707C119.402 36.9154 120.493 39.5477 122.433 41.4885C124.374 43.4293 127.007 44.5196 129.751 44.5196H165.479C167.998 44.5234 170.432 43.6076 172.324 41.944C174.216 40.2805 175.436 37.9836 175.755 35.4845C176.073 32.9854 175.469 30.4559 174.055 28.3708C172.641 26.2857 170.515 24.7883 168.075 24.1596C168.612 21.2715 168.17 18.2869 166.819 15.6786C165.467 13.0703 163.284 10.9877 160.615 9.76067C157.946 8.53369 154.944 8.23257 152.084 8.90504C149.224 9.5775 146.671 11.1851 144.829 13.473C142.952 12.4248 140.833 11.8857 138.684 11.909C136.534 11.9324 134.428 12.5175 132.574 13.6062C130.721 14.6949 129.184 16.2494 128.117 18.1155C127.049 19.9816 126.488 22.0943 126.49 24.2441C126.49 24.281 126.49 24.3127 126.49 24.3496C125.765 24.5903 125.07 24.9107 124.416 25.3048" stroke="white" stroke-width="2.11094" stroke-miterlimit="10" stroke-linecap="round"/>
<path opacity="0.3" d="M45.6303 85.5765C45.6303 87.5458 44.848 89.4344 43.4555 90.8269C42.063 92.2194 40.1744 93.0017 38.2051 93.0017H12.573C10.7676 93.0019 9.02411 92.3438 7.66909 91.1508C6.31406 89.9578 5.44049 88.3116 5.21202 86.5208C4.98355 84.7299 5.41585 82.9171 6.42795 81.4221C7.44005 79.9271 8.96251 78.8524 10.7101 78.3993C10.3069 76.3222 10.6123 74.1699 11.5775 72.2869C12.5426 70.404 14.1116 68.8993 16.0333 68.0139C17.955 67.1284 20.1183 66.9134 22.1767 67.4032C24.2351 67.8931 26.0696 69.0594 27.3865 70.7155C28.9969 69.816 30.8483 69.4427 32.6813 69.6481C34.5144 69.8535 36.2373 70.6271 37.6087 71.8607" stroke="white" stroke-width="2.11094" stroke-miterlimit="10" stroke-linecap="round"/>
<path opacity="0.3" d="M140.268 48.5195C146.542 59.661 148.414 72.749 145.514 85.2023C145.412 85.6316 145.306 86.059 145.197 86.4847C143.635 92.4632 140.993 98.1058 137.402 103.135" stroke="white" stroke-width="2.11094" stroke-miterlimit="10" stroke-linecap="round" stroke-dasharray="1.06 4.22"/>
<path opacity="0.3" d="M48.707 54.3565C49.2066 53.1286 49.7537 51.9254 50.3483 50.7468C53.0456 45.3771 56.6685 40.5251 61.0507 36.4135C62.268 35.2736 63.5381 34.1935 64.861 33.1732C65.7265 32.5083 66.606 31.8697 67.4997 31.2576C68.5551 30.5539 69.6546 29.8749 70.798 29.2205C81.2266 23.3242 93.3989 21.2895 105.178 23.4734C116.958 25.6573 127.591 31.9203 135.213 41.1631" stroke="white" stroke-width="2.11094" stroke-miterlimit="10" stroke-linecap="round" stroke-dasharray="1.06 4.22"/>
<path opacity="0.3" d="M25.6545 32.7986H24.0713V31.2154C24.0713 31.0055 23.9879 30.8041 23.8394 30.6557C23.691 30.5072 23.4896 30.4238 23.2797 30.4238C23.0697 30.4238 22.8684 30.5072 22.7199 30.6557C22.5715 30.8041 22.4881 31.0055 22.4881 31.2154V32.7986H20.9049C20.6949 32.7986 20.4936 32.882 20.3451 33.0305C20.1967 33.1789 20.1133 33.3803 20.1133 33.5902C20.1133 33.8002 20.1967 34.0015 20.3451 34.15C20.4936 34.2984 20.6949 34.3818 20.9049 34.3818H22.4881V35.965C22.4881 36.175 22.5715 36.3763 22.7199 36.5248C22.8684 36.6732 23.0697 36.7566 23.2797 36.7566C23.4896 36.7566 23.691 36.6732 23.8394 36.5248C23.9879 36.3763 24.0713 36.175 24.0713 35.965V34.3818H25.6545C25.8644 34.3818 26.0658 34.2984 26.2142 34.15C26.3627 34.0015 26.4461 33.8002 26.4461 33.5902C26.4461 33.3803 26.3627 33.1789 26.2142 33.0305C26.0658 32.882 25.8644 32.7986 25.6545 32.7986Z" fill="white"/>
<path opacity="0.3" d="M162.338 98.2479H160.755V96.6646C160.755 96.4547 160.671 96.2534 160.523 96.1049C160.375 95.9565 160.173 95.873 159.963 95.873C159.753 95.873 159.552 95.9565 159.404 96.1049C159.255 96.2534 159.172 96.4547 159.172 96.6646V98.2479H157.588C157.379 98.2479 157.177 98.3313 157.029 98.4797C156.88 98.6282 156.797 98.8295 156.797 99.0395C156.797 99.2494 156.88 99.4508 157.029 99.5992C157.177 99.7477 157.379 99.8311 157.588 99.8311H159.172V101.414C159.172 101.624 159.255 101.826 159.404 101.974C159.552 102.122 159.753 102.206 159.963 102.206C160.173 102.206 160.375 102.122 160.523 101.974C160.671 101.826 160.755 101.624 160.755 101.414V99.8311H162.338C162.548 99.8311 162.749 99.7477 162.898 99.5992C163.046 99.4508 163.13 99.2494 163.13 99.0395C163.13 98.8295 163.046 98.6282 162.898 98.4797C162.749 98.3313 162.548 98.2479 162.338 98.2479Z" fill="white"/>
<path opacity="0.3" d="M119.396 20.1164C120.562 20.1164 121.507 19.1713 121.507 18.0055C121.507 16.8396 120.562 15.8945 119.396 15.8945C118.23 15.8945 117.285 16.8396 117.285 18.0055C117.285 19.1713 118.23 20.1164 119.396 20.1164Z" stroke="white" stroke-width="1.05547" stroke-miterlimit="10"/>
<path opacity="0.7" d="M59.0596 113.647C59.9836 113.647 60.7326 112.898 60.7326 111.974C60.7326 111.05 59.9836 110.301 59.0596 110.301C58.1357 110.301 57.3867 111.05 57.3867 111.974C57.3867 112.898 58.1357 113.647 59.0596 113.647Z" stroke="white" stroke-width="1.05547" stroke-miterlimit="10"/>
<path d="M123.012 72.6855H137.403" stroke="#E5E6E8" stroke-width="1.5832" stroke-miterlimit="10" stroke-linecap="round"/>
<path d="M57.3867 72.6855H71.778" stroke="#E5E6E8" stroke-width="1.5832" stroke-miterlimit="10" stroke-linecap="round"/>
<path d="M96.6133 36.541V45.9294" stroke="#E5E6E8" stroke-width="1.5832" stroke-miterlimit="10" stroke-linecap="round"/>
<path opacity="0.22" d="M109.089 47.861C107.807 47.2224 104.128 47.5391 99.6479 48.9798C91.9641 54.2571 85.3991 62.1045 84.9242 74.5855C84.7658 74.9074 84.122 74.5855 83.9637 74.4271C81.8844 70.4269 81.0823 66.2631 82.8449 60.0253C83.1668 59.545 82.0427 58.7429 81.8844 59.0648C80.7326 60.287 79.7136 61.6279 78.8447 63.065C73.5673 72.1895 77.082 83.8683 86.2066 88.9926C90.6234 91.4437 95.8313 92.0451 100.69 90.6654C105.55 89.2857 109.664 86.0371 112.134 81.6307C118.055 70.9072 112.451 49.7819 109.089 47.861Z" fill="#81B441"/>
<path d="M110.706 50.0036C109.424 49.365 105.746 49.6817 101.265 51.1224C93.5813 56.3997 87.0163 64.2471 86.5414 76.728C86.383 77.05 85.7392 76.728 85.5809 76.5697C83.5016 72.5695 82.6994 68.4057 84.4621 62.1679C84.784 61.6876 83.6599 60.8855 83.5016 61.2074C82.3498 62.4295 81.3308 63.7705 80.4618 65.2076C75.1845 74.3321 78.6992 86.0109 87.8237 91.1352C92.2405 93.5862 97.4485 94.1877 102.308 92.808C107.167 91.4283 111.282 88.1797 113.751 83.7733C119.667 73.0445 114.068 51.9192 110.706 50.0036Z" stroke="#81B441" stroke-width="2.11094" stroke-miterlimit="10" stroke-linecap="round"/>
<path d="M135.832 86.7655C135.657 86.7646 135.484 86.7238 135.328 86.6463C135.171 86.5687 135.034 86.4565 134.927 86.3182C134.82 86.1798 134.747 86.0189 134.711 85.8477C134.676 85.6765 134.68 85.4995 134.723 85.3301C135.179 83.6379 135.531 81.9196 135.779 80.1847C135.832 78.8495 137.283 77.9893 137.362 77.9524C139.372 76.7394 141.457 75.6553 143.605 74.7068C143.225 74.1142 142.936 73.4686 142.745 72.7911C142.175 72.7278 141.563 72.2634 141.368 70.638C141.308 70.4304 141.293 70.2124 141.324 69.9986C141.355 69.7848 141.431 69.58 141.547 69.3978C141.665 69.2434 141.827 69.1277 142.011 69.0653C141.972 68.9462 141.94 68.8245 141.916 68.7012C141.695 67.5648 141.713 66.3947 141.969 65.2656C142.214 64.3361 142.709 63.4912 143.399 62.8222C143.331 62.7153 143.293 62.5921 143.289 62.4654C143.285 62.3388 143.315 62.2133 143.376 62.1022C143.437 61.991 143.526 61.8983 143.635 61.8338C143.744 61.7692 143.869 61.7351 143.996 61.7351C144.281 61.7351 144.523 61.7826 144.793 61.8195C145.021 61.6915 145.257 61.577 145.5 61.4765C145.64 61.4193 145.795 61.4083 145.942 61.4454C146.09 61.4824 146.221 61.5654 146.318 61.6823L146.376 61.7615C146.845 61.6296 147.329 61.5639 147.816 61.5662C148.8 61.5869 149.771 61.7947 150.677 62.1784C150.804 62.2286 150.912 62.318 150.985 62.4338C151.058 62.5496 151.093 62.6857 151.083 62.8222C151.083 62.8222 151.083 62.8645 151.083 62.8856C151.363 63.0816 151.613 63.3161 151.827 63.5822C151.928 63.7133 152.015 63.8549 152.086 64.0044L152.207 64.2418C152.642 65.0976 152.873 66.0422 152.883 67.0019C152.896 67.7227 152.77 68.4393 152.513 69.1128C152.673 69.1774 152.813 69.2829 152.92 69.4189C153.035 69.6013 153.111 69.8061 153.142 70.0198C153.173 70.2335 153.158 70.4514 153.099 70.6591C152.899 72.3426 152.26 72.77 151.722 72.8175C151.552 73.4385 151.294 74.032 150.956 74.5802C152.941 75.3137 156.719 77.4827 157.653 78.0421C157.706 78.0738 159.163 78.934 159.237 80.2691C159.502 81.9364 159.854 83.5887 160.292 85.2193C160.337 85.4025 160.339 85.5935 160.3 85.7778C160.26 85.9621 160.179 86.135 160.062 86.2834C159.946 86.4318 159.797 86.5518 159.628 86.6344C159.458 86.717 159.272 86.7601 159.084 86.7603L135.89 86.7867L135.832 86.7655Z" fill="white"/>
<path d="M145.767 61.9291C145.794 61.9293 145.821 61.9356 145.845 61.9474C145.87 61.9593 145.892 61.9764 145.909 61.9976C145.926 62.0188 145.938 62.0435 145.945 62.07C145.951 62.0965 145.952 62.124 145.946 62.1507C145.941 62.1768 145.943 62.2036 145.949 62.2292C145.956 62.2547 145.969 62.2785 145.986 62.2986C146.003 62.3188 146.025 62.335 146.049 62.3459C146.073 62.3568 146.099 62.3623 146.126 62.3618H146.189C146.708 62.1743 147.257 62.0796 147.809 62.0821C148.726 62.1034 149.63 62.2986 150.474 62.6574C150.498 62.6647 150.518 62.6795 150.533 62.6994C150.548 62.7194 150.556 62.7434 150.556 62.7682C150.556 62.7929 150.548 62.817 150.533 62.837C150.518 62.8569 150.498 62.8716 150.474 62.879C150.451 62.8845 150.43 62.8969 150.414 62.9146C150.398 62.9323 150.388 62.9544 150.385 62.978C150.382 63.0016 150.387 63.0255 150.398 63.0465C150.409 63.0675 150.427 63.0846 150.448 63.0954C150.818 63.299 151.145 63.5713 151.413 63.8975C151.49 64.0011 151.556 64.1126 151.609 64.23L151.73 64.4675C152.129 65.251 152.34 66.1163 152.348 66.9953C152.373 67.7801 152.201 68.5587 151.846 69.2593C151.782 69.3752 151.694 69.476 151.588 69.5549H151.772C151.864 69.5347 151.958 69.5241 152.052 69.5232C152.833 69.5232 152.611 70.4415 152.58 70.5259C152.416 71.9772 151.952 72.2516 151.625 72.2516H151.519C151.452 72.2533 151.388 72.2786 151.338 72.323C151.287 72.3674 151.254 72.4281 151.245 72.4943C151.032 73.308 150.674 74.0767 150.189 74.7636C150.183 74.7729 150.179 74.7836 150.178 74.7947C150.176 74.8059 150.178 74.8172 150.182 74.8276C150.186 74.838 150.193 74.8472 150.202 74.8545C150.21 74.8617 150.22 74.8668 150.231 74.8691C151.72 75.2333 155.825 77.5078 157.372 78.4577C157.372 78.4577 158.633 79.1913 158.675 80.252C158.93 81.9561 159.282 83.6442 159.731 85.3077C159.756 85.4132 159.757 85.5231 159.734 85.6292C159.711 85.7352 159.664 85.8347 159.597 85.92C159.53 86.0054 159.445 86.0744 159.347 86.1219C159.25 86.1694 159.142 86.1942 159.034 86.1943L135.84 86.2207C135.745 86.2204 135.652 86.1985 135.567 86.1568C135.482 86.115 135.408 86.0544 135.35 85.9796C135.292 85.9048 135.252 85.8178 135.232 85.7252C135.213 85.6325 135.215 85.5367 135.238 85.4449C135.713 83.7102 136.08 81.9477 136.336 80.1676C136.378 79.1121 137.64 78.3733 137.64 78.3733C139.223 77.4181 142.917 75.3705 144.342 74.98C144.352 74.9777 144.362 74.9729 144.37 74.9659C144.378 74.9589 144.384 74.95 144.388 74.94C144.391 74.93 144.393 74.9192 144.391 74.9087C144.389 74.8981 144.385 74.8882 144.379 74.8797C143.867 74.1654 143.485 73.367 143.249 72.5207C143.234 72.4411 143.191 72.3692 143.128 72.3173C143.066 72.2654 142.988 72.2366 142.906 72.2358H142.859C142.532 72.2358 142.067 71.9613 141.904 70.5153C141.904 70.4256 141.661 69.5126 142.431 69.5126C142.525 69.5136 142.619 69.5242 142.711 69.5443H142.864C142.653 69.2624 142.511 68.9354 142.447 68.5891C142.239 67.5264 142.253 66.432 142.489 65.3752C142.753 64.3933 143.32 63.5198 144.11 62.879C144.117 62.8726 144.124 62.8645 144.128 62.8554C144.132 62.8463 144.134 62.8363 144.134 62.8262C144.134 62.8162 144.132 62.8062 144.128 62.7971C144.124 62.788 144.117 62.7799 144.11 62.7735C144.012 62.6882 143.92 62.5965 143.835 62.4991C143.818 62.4722 143.809 62.4414 143.808 62.4098C143.807 62.3781 143.814 62.3468 143.829 62.3189C143.844 62.2911 143.866 62.2677 143.893 62.2511C143.92 62.2345 143.951 62.2254 143.983 62.2246C144.273 62.2246 144.558 62.2827 144.843 62.3302H144.88C145.133 62.182 145.396 62.0515 145.666 61.9397H145.735M145.735 60.8842C145.572 60.8842 145.411 60.9165 145.26 60.9792C145.06 61.0636 144.854 61.1586 144.658 61.2642C144.447 61.2378 144.247 61.2167 144.046 61.2008H143.962C143.776 61.2014 143.592 61.244 143.425 61.3254C143.258 61.4069 143.111 61.5251 142.996 61.6713C142.88 61.8174 142.8 61.9877 142.76 62.1695C142.719 62.3512 142.721 62.5396 142.764 62.7207C142.134 63.4072 141.681 64.2368 141.445 65.1377C141.165 66.3511 141.143 67.6096 141.381 68.8319C141.278 68.9111 141.186 69.0033 141.107 69.1063C140.944 69.345 140.834 69.6163 140.786 69.9015C140.737 70.1867 140.752 70.4789 140.827 70.7581C141.038 72.4732 141.714 73.0801 142.305 73.2754C142.445 73.6913 142.621 74.094 142.832 74.4786C140.858 75.3968 138.933 76.4167 137.064 77.5342C136.895 77.6292 135.312 78.5897 135.249 80.1729C134.998 81.8707 134.646 83.5519 134.193 85.2075C134.127 85.4559 134.119 85.7163 134.169 85.9685C134.219 86.2207 134.327 86.458 134.484 86.662C134.64 86.866 134.842 87.0313 135.072 87.1451C135.303 87.2589 135.556 87.3182 135.814 87.3184L159.034 87.292C159.303 87.2917 159.568 87.2304 159.809 87.1127C160.051 86.995 160.262 86.824 160.428 86.6126C160.594 86.4011 160.709 86.1548 160.766 85.8922C160.822 85.6296 160.818 85.3575 160.754 85.0966C160.305 83.5045 159.953 81.8867 159.699 80.252C159.636 78.6688 158.052 77.6925 157.868 77.587C155.861 76.3826 153.789 75.2903 151.661 74.315C151.836 73.9757 151.982 73.6227 152.1 73.2596C152.691 73.0643 153.366 72.4574 153.577 70.7423C153.653 70.4631 153.667 70.1708 153.619 69.8857C153.57 69.6005 153.461 69.3292 153.297 69.0905C153.241 69.0161 153.177 68.9472 153.107 68.8846C153.289 68.2697 153.378 67.6312 153.371 66.9901C153.361 65.9478 153.11 64.922 152.638 63.9925L152.516 63.7551C152.431 63.5681 152.324 63.3911 152.2 63.2273C152.014 62.9955 151.804 62.7849 151.572 62.5993C151.544 62.3924 151.461 62.1967 151.332 62.0324C151.203 61.8682 151.033 61.7414 150.838 61.6652C149.87 61.2566 148.833 61.0363 147.783 61.0161C147.357 61.0153 146.932 61.0613 146.516 61.1533C146.296 60.9759 146.023 60.879 145.74 60.8789L145.735 60.8842Z" fill="white"/>
<path d="M84.9722 32.1065C84.7974 32.1055 84.6251 32.0647 84.4684 31.9872C84.3117 31.9097 84.1748 31.7975 84.068 31.6591C83.9611 31.5207 83.8872 31.3598 83.8519 31.1886C83.8165 31.0174 83.8207 30.8404 83.864 30.671C84.3194 28.9788 84.6719 27.2605 84.9195 25.5256C84.9722 24.1904 86.4235 23.3302 86.5027 23.2933C88.5128 22.0818 90.5981 20.9996 92.7458 20.053C92.366 19.4604 92.0761 18.8149 91.8856 18.1373C91.3156 18.074 90.7034 17.6096 90.5082 15.9842C90.4485 15.7765 90.4337 15.5586 90.4646 15.3448C90.4956 15.131 90.5716 14.9262 90.6876 14.744C90.8062 14.5898 90.9678 14.4741 91.152 14.4115C91.1142 14.2922 91.0842 14.1706 91.0623 14.0474C90.8413 12.9109 90.8593 11.741 91.1151 10.6118C91.3603 9.68231 91.8548 8.83743 92.5452 8.16842C92.4774 8.06191 92.4393 7.93916 92.4349 7.81293C92.4305 7.68671 92.46 7.56161 92.5203 7.45065C92.5807 7.33969 92.6696 7.24691 92.7779 7.18196C92.8863 7.117 93.01 7.08224 93.1363 7.08129C93.4213 7.08129 93.664 7.12879 93.9332 7.16573C94.162 7.0377 94.3981 6.92317 94.6403 6.8227C94.7802 6.764 94.9351 6.75181 95.0824 6.78792C95.2297 6.82403 95.3615 6.90653 95.4583 7.02324L95.5164 7.1024C95.9852 6.97055 96.4701 6.90483 96.9571 6.90714C97.9407 6.92772 98.9115 7.13548 99.8174 7.51931C99.9448 7.56948 100.053 7.65895 100.126 7.77473C100.199 7.89051 100.233 8.02657 100.224 8.16315C100.225 8.186 100.225 8.2089 100.224 8.23175C100.503 8.42781 100.754 8.66232 100.968 8.92836C101.069 9.05943 101.156 9.20097 101.226 9.35055L101.348 9.58803C101.782 10.4438 102.013 11.3883 102.023 12.3481C102.036 13.0689 101.911 13.7854 101.654 14.459C101.815 14.525 101.955 14.6325 102.06 14.7704C102.176 14.9519 102.251 15.1558 102.282 15.3686C102.313 15.5815 102.299 15.7984 102.24 16.0053C102.039 17.6888 101.401 18.1162 100.862 18.169C100.69 18.7892 100.433 19.3825 100.097 19.9316C102.087 20.6652 105.865 22.8342 106.794 23.3936C106.847 23.4252 108.303 24.2854 108.377 25.6206C108.643 27.2879 108.995 28.9401 109.433 30.5707C109.477 30.7539 109.48 30.9449 109.44 31.1292C109.4 31.3136 109.319 31.4865 109.203 31.6349C109.086 31.7833 108.938 31.9033 108.768 31.9859C108.599 32.0685 108.413 32.1115 108.224 32.1117L85.0039 32.1381L84.9722 32.1065Z" fill="white"/>
<path d="M94.9064 7.26661C94.9336 7.26684 94.9605 7.2731 94.985 7.28494C95.0096 7.29678 95.0312 7.31391 95.0484 7.3351C95.0655 7.35628 95.0778 7.38101 95.0842 7.40749C95.0907 7.43397 95.0912 7.46155 95.0858 7.48826C95.0811 7.51433 95.0823 7.54111 95.0892 7.56668C95.0961 7.59225 95.1085 7.61598 95.1257 7.63616C95.1428 7.65633 95.1642 7.67247 95.1884 7.68339C95.2125 7.69432 95.2387 7.69977 95.2652 7.69936H95.3285C95.848 7.51181 96.3964 7.41713 96.9487 7.41966C97.8655 7.44091 98.7698 7.63611 99.6138 7.99489C99.6374 8.00226 99.658 8.01699 99.6727 8.03693C99.6873 8.05687 99.6952 8.08096 99.6952 8.10571C99.6952 8.13046 99.6873 8.15456 99.6727 8.17449C99.658 8.19443 99.6374 8.20916 99.6138 8.21654C99.5906 8.22197 99.5697 8.23437 99.5538 8.25207C99.538 8.26977 99.5279 8.29192 99.525 8.31551C99.5221 8.33911 99.5266 8.36302 99.5377 8.38401C99.5489 8.40501 99.5662 8.42207 99.5874 8.43291C99.9573 8.63653 100.285 8.90877 100.553 9.23506C100.63 9.33866 100.695 9.45011 100.748 9.56753L100.87 9.80502C101.268 10.5885 101.48 11.4538 101.487 12.3329C101.513 13.1176 101.34 13.8962 100.986 14.5968C100.922 14.7128 100.834 14.8135 100.727 14.8924H100.912C101.004 14.8723 101.098 14.8616 101.192 14.8607C101.973 14.8607 101.751 15.779 101.719 15.8634C101.556 17.3147 101.091 17.5891 100.764 17.5891H100.659C100.592 17.5908 100.527 17.6161 100.477 17.6605C100.427 17.7049 100.394 17.7656 100.384 17.8319C100.172 18.6456 99.8141 19.4143 99.3288 20.1011C99.3225 20.1104 99.3185 20.1211 99.3173 20.1322C99.3161 20.1434 99.3177 20.1547 99.3219 20.1651C99.326 20.1755 99.3327 20.1848 99.3412 20.192C99.3498 20.1992 99.36 20.2043 99.371 20.2067C100.859 20.5708 104.965 22.8453 106.511 23.7953C106.511 23.7953 107.773 24.5288 107.815 25.5896C108.069 27.2937 108.422 28.9817 108.87 30.6452C108.896 30.7507 108.897 30.8606 108.874 30.9667C108.851 31.0728 108.804 31.1722 108.737 31.2575C108.67 31.3429 108.584 31.4119 108.487 31.4594C108.389 31.5069 108.282 31.5317 108.174 31.5318L84.9744 31.5793C84.8798 31.579 84.7864 31.5572 84.7015 31.5154C84.6166 31.4736 84.5423 31.413 84.4843 31.3382C84.4263 31.2634 84.3861 31.1764 84.3668 31.0838C84.3475 30.9911 84.3495 30.8953 84.3728 30.8036C84.8474 29.0688 85.214 27.3063 85.4705 25.5262C85.5127 24.4708 86.774 23.7319 86.774 23.7319C88.3572 22.7767 92.0513 20.7291 93.4762 20.3386C93.4866 20.3363 93.4963 20.3315 93.5043 20.3245C93.5124 20.3175 93.5185 20.3086 93.5222 20.2986C93.5259 20.2886 93.527 20.2778 93.5254 20.2673C93.5238 20.2568 93.5196 20.2468 93.5131 20.2383C92.996 19.5303 92.6066 18.7373 92.3627 17.8952C92.3469 17.8155 92.3042 17.7437 92.2418 17.6918C92.1793 17.6399 92.1009 17.6111 92.0197 17.6102H91.9722C91.645 17.6102 91.1805 17.3358 91.017 15.8898C91.017 15.8001 90.7742 14.8871 91.5447 14.8871C91.6388 14.888 91.7325 14.8986 91.8244 14.9188H91.9774C91.7666 14.6368 91.6239 14.3099 91.5605 13.9636C91.3521 12.9009 91.3665 11.8065 91.6027 10.7497C91.8665 9.76779 92.4335 8.89423 93.2229 8.25348C93.2306 8.24704 93.2369 8.23897 93.2411 8.22985C93.2454 8.22073 93.2477 8.21078 93.2477 8.2007C93.2477 8.19063 93.2454 8.18068 93.2411 8.17155C93.2369 8.16243 93.2306 8.15437 93.2229 8.14793C93.1254 8.06266 93.0337 7.97098 92.9485 7.87351C92.9317 7.84666 92.9223 7.81586 92.9213 7.78423C92.9203 7.7526 92.9277 7.72126 92.9427 7.69339C92.9577 7.66553 92.9798 7.64213 93.0067 7.62556C93.0337 7.609 93.0646 7.59987 93.0962 7.59909C93.3865 7.59909 93.6715 7.65714 93.9564 7.70463H93.9934C94.2461 7.55642 94.5089 7.42594 94.7797 7.31411H94.8483M94.8483 6.25864C94.6853 6.25864 94.5238 6.29093 94.3733 6.35363C94.1728 6.43807 93.967 6.53306 93.7717 6.63861C93.5606 6.61222 93.3601 6.59111 93.1596 6.57528H93.0751C92.889 6.57583 92.7055 6.61842 92.5381 6.69989C92.3708 6.78136 92.2241 6.89959 92.1089 7.04574C91.9937 7.1919 91.913 7.3622 91.8729 7.54392C91.8327 7.72564 91.8342 7.91408 91.8772 8.09516C91.2473 8.78151 90.7944 9.61118 90.5578 10.5122C90.2782 11.7255 90.2566 12.9841 90.4945 14.2063C90.3916 14.2856 90.2993 14.3778 90.2201 14.4807C90.0568 14.7195 89.9472 14.9908 89.8989 15.276C89.8507 15.5611 89.8648 15.8534 89.9404 16.1326C90.1515 17.8477 90.827 18.4546 91.418 18.6498C91.5579 19.0658 91.7345 19.4685 91.9458 19.8531C89.9716 20.7713 88.0463 21.7912 86.1776 22.9087C86.0088 23.0037 84.4256 23.9641 84.3622 25.5473C84.1116 27.2452 83.7592 28.9264 83.3068 30.5819C83.2404 30.8304 83.2321 31.0908 83.2824 31.343C83.3327 31.5952 83.4403 31.8324 83.5969 32.0364C83.7535 32.2404 83.9548 32.4057 84.1855 32.5195C84.4161 32.6334 84.6697 32.6927 84.9269 32.6929L108.147 32.6665C108.416 32.6662 108.681 32.6049 108.922 32.4872C109.164 32.3695 109.375 32.1985 109.541 31.987C109.707 31.7756 109.822 31.5293 109.879 31.2666C109.935 31.004 109.932 30.732 109.868 30.4711C109.419 28.879 109.066 27.2611 108.812 25.6265C108.749 24.0433 107.166 23.067 106.981 22.9614C104.986 21.7365 102.925 20.623 100.806 19.6262C100.981 19.2868 101.127 18.9338 101.244 18.5707C101.836 18.3754 102.511 17.7685 102.722 16.0534C102.798 15.7742 102.812 15.482 102.764 15.1968C102.715 14.9116 102.606 14.6403 102.442 14.4016C102.386 14.3272 102.322 14.2583 102.252 14.1958C102.434 13.5809 102.523 12.9423 102.516 12.3012C102.506 11.2589 102.255 10.2331 101.783 9.30367L101.661 9.06619C101.576 8.87918 101.469 8.70221 101.345 8.53845C101.165 8.30966 100.962 8.10088 100.738 7.91573C100.71 7.70878 100.627 7.51307 100.498 7.34884C100.369 7.18461 100.199 7.05783 100.004 6.98164C99.0363 6.57299 97.9992 6.35268 96.9487 6.33252C96.5227 6.33166 96.098 6.37767 95.6821 6.46973C95.4625 6.29226 95.1887 6.19541 94.9064 6.19531L94.8483 6.25864Z" fill="white"/>
<path d="M35.148 86.7652C34.9732 86.7642 34.8009 86.7234 34.6442 86.6459C34.4875 86.5684 34.3506 86.4562 34.2437 86.3178C34.1369 86.1794 34.063 86.0185 34.0277 85.8473C33.9923 85.6761 33.9965 85.4991 34.0398 85.3297C34.4952 83.6375 34.8476 81.9192 35.0952 80.1843C35.148 78.8492 36.5993 77.989 36.6784 77.9573C38.6885 76.7441 40.7738 75.6601 42.9215 74.7117C42.5418 74.1191 42.2519 73.4736 42.0613 72.796C41.4914 72.7327 40.8792 72.2683 40.6839 70.6429C40.6247 70.4352 40.61 70.2173 40.6409 70.0036C40.6718 69.7898 40.7477 69.5851 40.8634 69.4027C40.982 69.2485 41.1436 69.1329 41.3278 69.0702C41.2881 68.9511 41.2563 68.8295 41.2328 68.7061C41.0117 67.5697 41.0297 66.3997 41.2856 65.2706C41.5294 64.3304 42.0279 63.4758 42.7263 62.8008C42.6598 62.6969 42.6216 62.5774 42.6156 62.4542C42.6096 62.331 42.6358 62.2083 42.6919 62.0984C42.7479 61.9885 42.8317 61.8952 42.9349 61.8277C43.0382 61.7602 43.1573 61.7209 43.2804 61.7136C43.5654 61.7136 43.8081 61.7611 44.0773 61.7981C44.3061 61.67 44.5422 61.5555 44.7844 61.455C44.9249 61.3978 45.08 61.3869 45.2272 61.4239C45.3743 61.4609 45.5058 61.5439 45.6024 61.6608L45.6605 61.74C46.1293 61.6081 46.6142 61.5424 47.1012 61.5447C48.0848 61.5655 49.0556 61.7732 49.9615 62.1569C50.0889 62.2071 50.197 62.2966 50.2701 62.4123C50.3431 62.5281 50.3774 62.6642 50.3679 62.8008C50.3679 62.8008 50.3679 62.843 50.3679 62.8641C50.6474 63.0601 50.8979 63.2947 51.112 63.5607C51.2111 63.692 51.296 63.8336 51.3653 63.9829L51.4867 64.2204C51.9212 65.0762 52.1523 66.0207 52.1622 66.9804C52.1753 67.7012 52.0499 68.4178 51.7927 69.0913C51.9534 69.1574 52.0936 69.2648 52.1991 69.4027C52.314 69.5835 52.3893 69.7864 52.4202 69.9984C52.4511 70.2103 52.4369 70.4263 52.3785 70.6323C52.1833 72.3211 51.5394 72.7433 51.0011 72.796C50.831 73.4169 50.5734 74.0104 50.2359 74.5587C52.2202 75.2922 55.9988 77.4612 56.9329 78.0206C56.9857 78.0523 58.4422 78.9125 58.5161 80.2477C58.7801 81.9152 59.1324 83.5676 59.5716 85.1978C59.6163 85.381 59.6189 85.572 59.5791 85.7563C59.5392 85.9406 59.4581 86.1135 59.3417 86.2619C59.2253 86.4103 59.0768 86.5303 58.9072 86.6129C58.7377 86.6956 58.5516 86.7386 58.363 86.7388L35.1691 86.7652H35.148Z" fill="white"/>
<path d="M45.0799 61.9295C45.1072 61.9297 45.1341 61.936 45.1586 61.9478C45.1832 61.9597 45.2048 61.9768 45.222 61.998C45.2391 62.0192 45.2514 62.0439 45.2578 62.0704C45.2643 62.0969 45.2648 62.1244 45.2594 62.1512C45.2547 62.1772 45.2558 62.204 45.2627 62.2296C45.2696 62.2551 45.2821 62.2789 45.2993 62.2991C45.3164 62.3192 45.3378 62.3354 45.3619 62.3463C45.3861 62.3572 45.4123 62.3627 45.4388 62.3623H45.5021C46.0216 62.1747 46.57 62.08 47.1223 62.0826C48.039 62.1038 48.9434 62.299 49.7873 62.6578C49.8109 62.6652 49.8316 62.6799 49.8463 62.6998C49.8609 62.7198 49.8688 62.7439 49.8688 62.7686C49.8688 62.7934 49.8609 62.8175 49.8463 62.8374C49.8316 62.8573 49.8109 62.8721 49.7873 62.8794C49.7642 62.8849 49.7433 62.8973 49.7274 62.915C49.7115 62.9327 49.7015 62.9548 49.6986 62.9784C49.6957 63.002 49.7002 63.0259 49.7113 63.0469C49.7225 63.0679 49.7398 63.085 49.7609 63.0958C50.1309 63.2994 50.4586 63.5717 50.7267 63.898C50.8034 64.0016 50.8688 64.113 50.922 64.2304L51.0433 64.4679C51.4419 65.2514 51.6532 66.1167 51.6608 66.9958C51.6862 67.7805 51.5138 68.5591 51.1594 69.2597C51.0954 69.3757 51.0072 69.4764 50.9008 69.5553H51.0856C51.1775 69.5352 51.2712 69.5245 51.3653 69.5236C52.1463 69.5236 51.9247 70.4419 51.893 70.5263C51.7294 71.9776 51.265 72.252 50.9378 72.252H50.8322C50.7653 72.2537 50.701 72.279 50.6508 72.3234C50.6007 72.3678 50.5677 72.4285 50.5578 72.4948C50.3452 73.3084 49.9877 74.0772 49.5024 74.764C49.4961 74.7733 49.4921 74.784 49.4909 74.7951C49.4897 74.8063 49.4913 74.8176 49.4954 74.828C49.4996 74.8384 49.5063 74.8477 49.5148 74.8549C49.5234 74.8621 49.5336 74.8672 49.5446 74.8696C51.0328 75.2337 55.1386 77.5082 56.6848 78.4582C56.6848 78.4582 57.9461 79.1917 57.9883 80.2525C58.2428 81.9566 58.5952 83.6446 59.0438 85.3081C59.0693 85.4136 59.0706 85.5235 59.0475 85.6296C59.0245 85.7357 58.9776 85.8351 58.9106 85.9204C58.8435 86.0058 58.758 86.0748 58.6604 86.1223C58.5628 86.1698 58.4557 86.1946 58.3472 86.1947L35.1533 86.2211C35.0586 86.2208 34.9653 86.199 34.8804 86.1572C34.7955 86.1154 34.7212 86.0548 34.6632 85.98C34.6052 85.9052 34.565 85.8182 34.5457 85.7256C34.5263 85.6329 34.5284 85.5371 34.5516 85.4454C35.0262 83.7106 35.3928 81.9481 35.6493 80.168C35.6915 79.1125 36.9528 78.3737 36.9528 78.3737C38.536 77.4185 42.2302 75.3709 43.6551 74.9804C43.6655 74.9781 43.6751 74.9733 43.6832 74.9663C43.6912 74.9593 43.6974 74.9504 43.701 74.9404C43.7047 74.9304 43.7058 74.9196 43.7043 74.9091C43.7027 74.8985 43.6985 74.8886 43.692 74.8801C43.1807 74.1658 42.7984 73.3674 42.5626 72.5211C42.5469 72.4415 42.5042 72.3697 42.4417 72.3178C42.3793 72.2659 42.3008 72.237 42.2196 72.2362H42.1721C41.8449 72.2362 41.3805 71.9617 41.2169 70.5157C41.2169 70.426 40.9742 69.5131 41.7447 69.5131C41.8387 69.514 41.9325 69.5246 42.0244 69.5447H42.1774C41.9665 69.2628 41.8238 68.9358 41.7605 68.5895C41.5521 67.5268 41.5664 66.4325 41.8027 65.3756C42.0665 64.3937 42.6335 63.5202 43.4228 62.8794C43.4306 62.873 43.4368 62.8649 43.4411 62.8558C43.4454 62.8467 43.4476 62.8367 43.4476 62.8267C43.4476 62.8166 43.4454 62.8066 43.4411 62.7975C43.4368 62.7884 43.4306 62.7803 43.4228 62.7739C43.3254 62.6886 43.2337 62.5969 43.1484 62.4995C43.1317 62.4726 43.1223 62.4418 43.1213 62.4102C43.1203 62.3786 43.1276 62.3472 43.1426 62.3193C43.1576 62.2915 43.1797 62.2681 43.2067 62.2515C43.2337 62.235 43.2646 62.2258 43.2962 62.225C43.5864 62.225 43.8714 62.2831 44.1564 62.3306H44.1933C44.4461 62.1824 44.7088 62.0519 44.9797 61.9401H45.0483M45.0483 60.8846C44.8852 60.8846 44.7238 60.9169 44.5733 60.9796C44.3728 61.064 44.167 61.159 43.9717 61.2646C43.7606 61.2382 43.5601 61.2171 43.3595 61.2012H43.2804C43.0943 61.2018 42.9107 61.2444 42.7434 61.3258C42.5761 61.4073 42.4293 61.5255 42.3141 61.6717C42.1989 61.8179 42.1182 61.9882 42.0781 62.1699C42.038 62.3516 42.0395 62.54 42.0824 62.7211C41.4527 63.4076 40.9999 64.2372 40.7631 65.1381C40.4834 66.3515 40.4618 67.6101 40.6997 68.8323C40.5968 68.9115 40.5046 69.0038 40.4253 69.1067C40.262 69.3454 40.1525 69.6167 40.1042 69.9019C40.0559 70.1871 40.07 70.4793 40.1456 70.7585C40.3567 72.4736 41.0322 73.0805 41.6233 73.2758C41.7631 73.6918 41.9397 74.0944 42.151 74.479C40.19 75.388 38.2771 76.3974 36.4198 77.503C36.2509 77.5979 34.6677 78.5584 34.6044 80.1416C34.3538 81.8395 34.0014 83.5207 33.5489 85.1762C33.4826 85.4247 33.4743 85.6851 33.5246 85.9373C33.5749 86.1895 33.6825 86.4267 33.8391 86.6307C33.9957 86.8347 34.197 87 34.4276 87.1138C34.6582 87.2277 34.9119 87.2869 35.1691 87.2871L58.3894 87.2608C58.658 87.2605 58.9231 87.1992 59.1646 87.0815C59.406 86.9638 59.6176 86.7928 59.7833 86.5813C59.949 86.3699 60.0645 86.1235 60.1211 85.8609C60.1776 85.5983 60.1738 85.3263 60.1098 85.0654C59.6607 83.4732 59.3083 81.8554 59.0543 80.2208C58.991 78.6376 57.4078 77.6613 57.2231 77.5557C55.2164 76.3513 53.1445 75.259 51.017 74.2838C51.1914 73.9444 51.3378 73.5914 51.455 73.2283C52.046 73.033 52.7215 72.4262 52.9326 70.711C53.0082 70.4318 53.0223 70.1396 52.9741 69.8544C52.9258 69.5692 52.8162 69.2979 52.6529 69.0592C52.5961 68.9849 52.5325 68.916 52.4629 68.8534C52.6445 68.2385 52.7334 67.5999 52.7268 66.9588C52.7161 65.9165 52.4651 64.8907 51.9933 63.9613L51.8719 63.7238C51.786 63.5368 51.6798 63.3598 51.5552 63.1961C51.3696 62.9643 51.159 62.7537 50.9272 62.5681C50.8993 62.3611 50.8166 62.1654 50.6876 62.0012C50.5586 61.837 50.3881 61.7102 50.1937 61.634C49.2257 61.2253 48.1886 61.005 47.1381 60.9849C46.7122 60.984 46.2874 61.03 45.8715 61.1221C45.6519 60.9446 45.3781 60.8478 45.0958 60.8477L45.0483 60.8846Z" fill="white"/>
</svg>
