<svg width="24" height="24" viewBox="0 0 24 24" fill="none" xmlns="http://www.w3.org/2000/svg">
<g clip-path="url(#clip0_52_123340)">
<path d="M23.2732 0.214844H0.416016V23.072H23.2732V0.214844Z" fill="white" fill-opacity="0.01"/>
<path fill-rule="evenodd" clip-rule="evenodd" d="M11.8444 22.435C17.8056 22.435 22.638 17.6025 22.638 11.6413C22.638 5.68014 17.8056 0.847656 11.8444 0.847656C5.88327 0.847656 1.05078 5.68014 1.05078 11.6413C1.05078 17.6025 5.88327 22.435 11.8444 22.435Z" fill="#D9D9D9"/>
<path d="M16.5645 6.93597C16.8011 7.17265 16.812 7.5497 16.5968 7.79914L16.5645 7.83389L12.6999 11.6981L16.4675 15.4661C16.7155 15.7141 16.7155 16.1161 16.4675 16.364C16.2309 16.6007 15.8538 16.6115 15.6045 16.3964L15.5697 16.364L11.8019 12.5959L8.03433 16.364C7.78637 16.612 7.38437 16.612 7.13642 16.364C6.89973 16.1273 6.88898 15.7503 7.10414 15.5008L7.13642 15.4661L10.9041 11.6981L7.03948 7.83389C6.79153 7.58593 6.79153 7.18392 7.03948 6.93597C7.27617 6.69929 7.65322 6.68853 7.90266 6.90369L7.93739 6.93597L11.8019 10.8001L15.6666 6.93597C15.9145 6.68801 16.3166 6.68801 16.5645 6.93597Z" fill="white"/>
</g>
<defs>
<clipPath id="clip0_52_123340">
<rect width="24" height="24" fill="white"/>
</clipPath>
</defs>
</svg>
