<svg width="30" height="30" viewBox="0 0 30 30" fill="none" xmlns="http://www.w3.org/2000/svg">
<g clip-path="url(#clip0_52_69702)">
<path d="M20.2683 17.3721C21.3043 17.7469 22.2324 18.3704 22.9713 19.1877C23.7101 20.005 24.237 20.9911 24.5058 22.0596C24.8031 23.2429 24.7782 24.4843 24.4336 25.6548C24.0891 26.8253 23.4375 27.8823 22.5464 28.7158C21.415 29.5146 20.0484 29.9108 18.6652 29.8408C15.4402 29.8408 12.2339 28.6971 9.0183 27.5346C7.90606 27.1898 6.85552 26.6709 5.9058 25.9971C5.39632 25.6136 4.96818 25.1327 4.64629 24.5823C4.3244 24.0318 4.11518 23.4229 4.0308 22.7908C3.95684 21.8832 4.12326 20.9721 4.51331 20.1492C4.90335 19.3263 5.50327 18.6207 6.25268 18.1033C8.37634 16.6031 10.9183 15.8094 13.5183 15.8346C15.8333 16.0014 18.1094 16.5198 20.2683 17.3721Z" fill="#293338"/>
<path d="M19.4523 17.588C20.375 17.8989 21.2072 18.4316 21.8758 19.1394C22.5444 19.8472 23.0289 20.7085 23.2866 21.6474C23.5595 22.6769 23.5428 23.7618 23.2385 24.7825C22.9341 25.8031 22.3538 26.7199 21.5616 27.4318C20.5242 28.1212 19.289 28.4506 18.046 28.3693C15.1304 28.3693 12.2335 27.3849 9.31788 26.3724C8.31805 26.0789 7.36942 25.633 6.50538 25.0505C6.04597 24.7211 5.65797 24.3021 5.36474 23.8187C5.07151 23.3354 4.87912 22.7977 4.79913 22.238C4.74071 21.4452 4.89603 20.6513 5.2489 19.9389C5.60178 19.2266 6.13928 18.6219 6.80538 18.188C8.7434 16.8832 11.0316 16.1967 13.3679 16.2193C15.453 16.3688 17.504 16.8302 19.4523 17.588Z" fill="#425763"/>
<path d="M12.3465 20.2789L13.6496 22.3227C13.6909 22.3922 13.7126 22.4715 13.7126 22.5523C13.7126 22.6332 13.6909 22.7125 13.6496 22.782L10.9121 27.1883C10.9121 27.1883 8.09961 26.7195 7.58398 25.9227L8.11836 20.6258L9.37461 19.1445L12.3465 20.2789Z" fill="#E8CCAA"/>
<path d="M24.361 12.0238C24.3812 6.51483 19.9401 2.03256 14.4414 2.01241C8.94276 1.99225 4.46886 6.44185 4.44867 11.9508C4.42848 17.4599 8.86964 21.9421 14.3683 21.9623C19.8669 21.9824 24.3408 17.5328 24.361 12.0238Z" fill="#293338"/>
<path d="M7.91211 2.67245C7.91211 2.67245 8.89648 0.000572443 15.5996 0.338072C17.934 0.441197 26.3152 5.22245 24.8809 14.0631C24.8809 14.0631 23.4746 18.4693 21.0746 18.3381C21.0746 18.3381 21.8246 17.7099 20.9246 15.4224C20.0246 13.1349 18.984 11.8412 17.5496 11.2037C16.1152 10.5662 7.91211 2.67245 7.91211 2.67245Z" fill="#72402A"/>
<path d="M20.8023 8.85859C23.1634 8.85859 25.0773 6.94461 25.0773 4.58359C25.0773 2.22258 23.1634 0.308594 20.8023 0.308594C18.4413 0.308594 16.5273 2.22258 16.5273 4.58359C16.5273 6.94461 18.4413 8.85859 20.8023 8.85859Z" fill="#72402A"/>
<path d="M20.493 8.12852C22.3984 8.12852 23.943 6.5839 23.943 4.67852C23.943 2.77313 22.3984 1.22852 20.493 1.22852C18.5876 1.22852 17.043 2.77313 17.043 4.67852C17.043 6.5839 18.5876 8.12852 20.493 8.12852Z" fill="#89563A"/>
<path d="M24.0427 11.0824C24.0629 5.57342 19.6217 1.09115 14.1231 1.071C8.62441 1.05085 4.1505 5.50044 4.13031 11.0094C4.11012 16.5184 8.55128 21.0007 14.0499 21.0209C19.5486 21.041 24.0225 16.5914 24.0427 11.0824Z" fill="#A67A65"/>
<path d="M23.6054 10.3587C23.6424 11.6515 23.4194 12.9385 22.9495 14.1435C22.4796 15.3484 21.7725 16.4467 20.87 17.3731C19.9676 18.2995 18.8882 19.0352 17.696 19.5365C16.5038 20.0378 15.223 20.2945 13.9297 20.2914C12.6364 20.2882 11.3568 20.0253 10.1671 19.5182C8.97732 19.0111 7.90154 18.2702 7.0036 17.3394C6.10565 16.4086 5.40384 15.3069 4.93981 14.0997C4.47577 12.8925 4.25898 11.6044 4.30229 10.3118C4.30229 4.97741 8.66167 1.18054 13.996 1.19929C19.3304 1.21804 23.6242 5.02429 23.6054 10.3587Z" fill="#E5A98C"/>
<path d="M23.4812 10.0914C23.4999 4.96557 19.4858 0.79547 14.5152 0.777252C9.54471 0.759034 5.50007 4.89959 5.48128 10.0255C5.4625 15.1513 9.47667 19.3214 14.4472 19.3396C19.4177 19.3578 23.4624 15.2173 23.4812 10.0914Z" fill="#E8CCAA"/>
<path d="M18.5509 11.3629C18.5645 7.62985 15.6417 4.59284 12.0226 4.57958C8.40339 4.56631 5.45838 7.58181 5.4447 11.3149C5.43101 15.048 8.35384 18.085 11.973 18.0982C15.5922 18.1115 18.5372 15.096 18.5509 11.3629Z" fill="#FAEACF"/>
<path d="M15.1074 12.0761C15.1095 11.491 14.7125 11.0152 14.2207 11.0134C13.7288 11.0116 13.3283 11.4845 13.3261 12.0695C13.324 12.6546 13.721 13.1304 14.2129 13.1322C14.7048 13.134 15.1052 12.6611 15.1074 12.0761Z" fill="#425763"/>
<path d="M14.574 11.7063C14.5746 11.5562 14.4743 11.4341 14.35 11.4336C14.2258 11.4332 14.1246 11.5545 14.124 11.7047C14.1235 11.8548 14.2238 11.9769 14.348 11.9774C14.4723 11.9778 14.5735 11.8565 14.574 11.7063Z" fill="white"/>
<path d="M7.97653 10.5136C7.97867 9.92849 7.58167 9.45274 7.08979 9.45093C6.59792 9.44913 6.19743 9.92197 6.19529 10.507C6.19314 11.0921 6.59015 11.5679 7.08203 11.5697C7.5739 11.5715 7.97438 11.0986 7.97653 10.5136Z" fill="#425763"/>
<path d="M7.45099 10.1341C7.45154 9.98392 7.35126 9.86183 7.22699 9.86138C7.10273 9.86092 7.00155 9.98227 7.001 10.1324C7.00045 10.2826 7.10074 10.4047 7.225 10.4051C7.34926 10.4056 7.45044 10.2842 7.45099 10.1341Z" fill="white"/>
<path d="M20.5039 11.8127C20.5039 11.8127 21.3102 11.194 21.9664 11.4377C22.6227 11.6815 22.5195 13.7627 20.8508 13.9877L20.5039 11.8127Z" fill="#FAEACF"/>
<path d="M12.2336 16.5847C11.6725 16.4899 11.1403 16.2687 10.6773 15.9378C10.4849 15.7805 10.2632 15.6631 10.025 15.5923C9.78681 15.5215 9.53691 15.4987 9.28984 15.5253C9.16797 15.5253 8.97109 15.3378 8.77422 15.2347C8.57734 15.1316 8.25859 15.1034 8.23047 15.2347C8.28742 15.4483 8.37928 15.651 8.50234 15.8347C8.52757 16.0433 8.52757 16.2542 8.50234 16.4628C8.47912 16.5755 8.47842 16.6917 8.5003 16.8046C8.52217 16.9176 8.56619 17.0251 8.62981 17.1209C8.69343 17.2168 8.77539 17.2991 8.87097 17.3632C8.96655 17.4272 9.07386 17.4717 9.18672 17.4941C9.67774 17.6386 10.2033 17.6122 10.6773 17.4191C10.9867 17.3066 12.2336 16.5847 12.2336 16.5847Z" fill="#931655"/>
<path d="M14.5129 0.937802C14.5129 0.937802 13.2941 4.15343 11.1566 4.82843C9.01914 5.50343 4.97852 7.30343 4.36914 9.92843C4.36914 9.92843 5.46602 -0.562198 14.5129 0.937802Z" fill="#89563A"/>
<path d="M11.457 2.96245C12.2883 5.25565 13.7238 7.28164 15.6116 8.82626C17.4995 10.3709 19.7696 11.3767 22.182 11.7374L23.9352 11.6343L18.7977 3.38432C18.7977 3.38432 14.5133 0.937447 11.457 2.96245Z" fill="#89563A"/>
<path d="M10.8555 11.1289L17.9898 13.1727C17.9898 13.1727 16.4992 15.2914 14.4555 15.132C12.4117 14.9727 11.3242 13.1727 10.8555 11.1289Z" stroke="#425763" stroke-width="0.665625" stroke-miterlimit="10"/>
<path d="M4.17188 9.21484L10.5094 11.0242C10.5094 11.0242 9.1875 12.8992 7.37813 12.768C5.56875 12.6367 4.58437 11.0242 4.17188 9.21484Z" stroke="#425763" stroke-width="0.665625" stroke-miterlimit="10"/>
<path d="M12.1875 1.37727C13.1546 0.714519 14.3183 0.400441 15.4875 0.486645C17.5781 0.580395 25.2375 4.49914 23.925 12.421C23.925 12.421 23.2125 15.7116 22.1438 17.1085C21.3267 16.2762 20.7026 15.2744 20.3156 14.1741C19.5188 12.1304 18.5813 10.9679 17.2875 10.4241C15.9938 9.88039 12.1875 1.37727 12.1875 1.37727Z" fill="#89563A"/>
<path d="M12.8438 2.81259C12.8438 2.81259 14.3906 10.0313 23.2406 11.0907C23.2406 11.0907 23.2406 2.40946 14.475 1.63134C14.475 1.61259 12.8438 2.14696 12.8438 2.81259Z" fill="#B57555"/>
<path d="M17.9336 13.1805L19.9398 12.7773" stroke="#425763" stroke-width="0.665625" stroke-miterlimit="10"/>
<path d="M14.3258 3.15924C14.3258 3.15924 10.3695 2.36237 8.36328 3.83424C8.36328 3.83424 10.4539 -0.356384 15.3945 1.82799L14.3258 3.15924Z" fill="#B57555"/>
<path d="M10.3223 27.6285L11.8598 25.4254L14.2316 21.6848L12.7879 21.4785L14.6629 21.6848L15.5254 23.7566L12.1223 27.9566L10.3223 27.6285Z" fill="#293338"/>
<path d="M7.84766 26.325L9.58203 25.2188L9.85391 26.8219C9.17075 26.7211 8.4989 26.5547 7.84766 26.325Z" fill="#A67A65"/>
<path opacity="0.49" d="M19.6875 19.9496C19.6875 19.9496 21.2906 22.9496 20.2219 24.7496C19.1531 26.5496 17.8125 28.8934 17.8125 28.8934C17.8125 28.8934 20.6813 30.3652 22.2844 28.0215C23.8875 25.6777 25.6219 21.084 21.75 18.6465L19.6875 19.9496Z" fill="#293338"/>
<path d="M20.334 13.0692L22.1621 17.1379C23.091 15.9822 23.8083 14.6714 24.2809 13.266C24.8152 11.3348 20.334 13.0692 20.334 13.0692Z" fill="#72402A"/>
<path d="M15.7305 2.8125C15.7305 2.8125 19.1336 3.00937 20.3336 5.2875C21.0274 6.45982 21.4473 7.77381 21.5617 9.13125L18.093 6.12188L15.7305 2.8125Z" fill="#D69274"/>
<path d="M23.9913 24.4585C24.8559 24.5083 25.6949 24.7705 26.434 25.2218C27.1731 25.6731 27.7896 26.2997 28.2288 27.046C28.332 27.2114 28.4004 27.3961 28.4298 27.5887C28.4592 27.7814 28.449 27.9781 28.3999 28.1667C28.3508 28.3554 28.2637 28.532 28.144 28.6859C28.0244 28.8397 27.8746 28.9676 27.7038 29.0616C26.4958 29.7197 25.142 30.0645 23.7663 30.0645C22.3906 30.0645 21.0369 29.7197 19.8288 29.0616C19.4757 28.8408 19.2231 28.4906 19.1249 28.0858C19.0268 27.6811 19.091 27.254 19.3038 26.896C19.798 26.1207 20.4862 25.488 21.3002 25.0604C22.1141 24.6329 23.0256 24.4254 23.9445 24.4585H23.9913Z" fill="#425763"/>
<path d="M23.9624 25.0316C24.6858 25.0657 25.3909 25.2692 26.0211 25.6259C26.6513 25.9825 27.1889 26.4822 27.5906 27.0847C27.685 27.2141 27.7499 27.3626 27.7807 27.5197C27.8116 27.6768 27.8077 27.8388 27.7693 27.9943C27.7309 28.1498 27.6589 28.2949 27.5583 28.4196C27.4578 28.5443 27.3312 28.6454 27.1874 28.716C26.1176 29.2176 24.947 29.4675 23.7655 29.4464C22.584 29.4252 21.4231 29.1337 20.3718 28.5941C20.23 28.5215 20.1055 28.4191 20.0068 28.2939C19.9082 28.1688 19.8378 28.0238 19.8004 27.8689C19.763 27.7139 19.7595 27.5528 19.7902 27.3964C19.8209 27.24 19.885 27.0921 19.9781 26.9628C20.4325 26.3362 21.0351 25.8318 21.732 25.4948C22.4289 25.1579 23.1984 24.9987 23.9718 25.0316H23.9624Z" fill="#A2B6BA"/>
<path d="M23.9445 25.1159C24.5332 25.1425 25.1074 25.3074 25.6205 25.5973C26.1336 25.8873 26.5711 26.294 26.8976 26.7847C26.9681 26.895 27.0147 27.0188 27.0344 27.1483C27.0541 27.2777 27.0465 27.4098 27.012 27.5361C26.9776 27.6623 26.9171 27.78 26.8344 27.8815C26.7517 27.983 26.6487 28.066 26.532 28.1253C25.6605 28.5331 24.7071 28.7358 23.745 28.7179C22.783 28.7001 21.8378 28.4621 20.982 28.0222C20.8674 27.962 20.7665 27.8787 20.6856 27.7775C20.6048 27.6764 20.5458 27.5596 20.5123 27.4346C20.4789 27.3095 20.4717 27.1789 20.4912 27.0509C20.5107 26.9229 20.5565 26.8003 20.6257 26.6909C20.9905 26.177 21.4789 25.7632 22.0459 25.488C22.6128 25.2127 23.24 25.0847 23.8695 25.1159H23.9445Z" fill="#87999B"/>
<path d="M23.5789 27.7594C26.934 27.7594 29.6539 25.0395 29.6539 21.6844C29.6539 18.3292 26.934 15.6094 23.5789 15.6094C20.2238 15.6094 17.5039 18.3292 17.5039 21.6844C17.5039 25.0395 20.2238 27.7594 23.5789 27.7594Z" fill="#425763"/>
<path d="M23.5777 26.8879C26.5601 26.8879 28.9777 24.4702 28.9777 21.4879C28.9777 18.5056 26.5601 16.0879 23.5777 16.0879C20.5954 16.0879 18.1777 18.5056 18.1777 21.4879C18.1777 24.4702 20.5954 26.8879 23.5777 26.8879Z" fill="#A2B6BA"/>
<path d="M23.7941 26.0258C26.5487 26.0258 28.7816 23.7928 28.7816 21.0383C28.7816 18.2838 26.5487 16.0508 23.7941 16.0508C21.0396 16.0508 18.8066 18.2838 18.8066 21.0383C18.8066 23.7928 21.0396 26.0258 23.7941 26.0258Z" fill="#CBDEE4"/>
<path d="M26.532 20.6148C27.143 20.6148 27.6383 20.1196 27.6383 19.5086C27.6383 18.8976 27.143 18.4023 26.532 18.4023C25.9211 18.4023 25.4258 18.8976 25.4258 19.5086C25.4258 20.1196 25.9211 20.6148 26.532 20.6148Z" fill="#425763"/>
<path d="M26.5777 20.1086C26.9453 20.1086 27.2434 19.8106 27.2434 19.443C27.2434 19.0754 26.9453 18.7773 26.5777 18.7773C26.2101 18.7773 25.9121 19.0754 25.9121 19.443C25.9121 19.8106 26.2101 20.1086 26.5777 20.1086Z" fill="#4ED154"/>
<path d="M22.5742 19.0781C22.6593 18.527 22.8572 17.9994 23.1557 17.5283C23.4541 17.0573 23.8466 16.6529 24.3086 16.3406C24.4961 16.2281 24.468 16.1062 24.2523 16.0781H23.9523C23.7273 16.0781 22.0773 16.1531 21.4961 19.1625L22.5742 19.0781Z" fill="#A2B6BA"/>
<path d="M25.3402 22.143C25.3402 20.2479 23.9047 18.7117 22.134 18.7117C20.3632 18.7117 18.9277 20.2479 18.9277 22.143C18.9277 24.038 20.3632 25.5742 22.134 25.5742C23.9047 25.5742 25.3402 24.038 25.3402 22.143Z" fill="#425763"/>
<path d="M24.7373 22.0937C24.7426 20.6492 23.6514 19.4741 22.3 19.4692C20.9487 19.4642 19.8489 20.6312 19.8436 22.0758C19.8383 23.5204 20.9295 24.6954 22.2808 24.7004C23.6322 24.7053 24.732 23.5383 24.7373 22.0937Z" fill="#3587C4"/>
<path d="M24.3345 21.9884C24.3389 20.7872 23.4317 19.81 22.3081 19.8059C21.1846 19.8018 20.2702 20.7722 20.2658 21.9735C20.2614 23.1747 21.1686 24.1518 22.2922 24.1559C23.4157 24.16 24.3301 23.1896 24.3345 21.9884Z" fill="#4DA3EC"/>
<path d="M23.4462 20.995C23.4474 20.6792 23.1797 20.4222 22.8483 20.421C22.517 20.4197 22.2474 20.6748 22.2462 20.9906C22.2451 21.3065 22.5128 21.5635 22.8441 21.5647C23.1755 21.5659 23.4451 21.3109 23.4462 20.995Z" fill="white"/>
<path d="M23.7182 17.513C23.9572 17.2456 24.2175 16.9979 24.4963 16.7723C24.5503 16.7311 24.613 16.7028 24.6797 16.6898C24.7464 16.6768 24.8152 16.6794 24.8807 16.6973C25.4135 16.8571 25.9238 17.0839 26.3994 17.3723C26.4772 17.4217 26.5368 17.4951 26.5689 17.5814C26.6011 17.6677 26.6041 17.7622 26.5776 17.8504C26.551 17.9385 26.4963 18.0156 26.4218 18.0698C26.3473 18.124 26.2572 18.1523 26.1651 18.1505C25.4679 18.1061 24.7682 18.1249 24.0744 18.2067C23.9895 18.2189 23.9028 18.2042 23.8266 18.1648C23.7503 18.1254 23.6883 18.0632 23.6491 17.9868C23.6099 17.9105 23.5954 17.8238 23.6078 17.7388C23.6202 17.6539 23.6588 17.5749 23.7182 17.513Z" fill="#E1F0F4"/>
</g>
<defs>
<clipPath id="clip0_52_69702">
<rect width="30" height="30" fill="white"/>
</clipPath>
</defs>
</svg>
