<svg width="16" height="18" viewBox="0 0 16 18" fill="none" xmlns="http://www.w3.org/2000/svg">
<path d="M9.99597 8.49719H5.81C5.46675 8.49719 5.1821 8.21255 5.1821 7.8693C5.1821 7.52605 5.46675 7.2414 5.81 7.2414H9.99597C10.3392 7.2414 10.6239 7.52605 10.6239 7.8693C10.6239 8.21255 10.3392 8.49719 9.99597 8.49719Z" fill="#C0BDBD"/>
<path d="M1.98415 17.9997C1.63253 17.9997 1.30602 17.916 1.013 17.7485C0.368365 17.3718 0 16.6099 0 15.6639V3.85947C0 1.73299 1.73299 0 3.85946 0H11.9384C14.0649 0 15.7979 1.73299 15.7979 3.85947V15.6555C15.7979 16.6016 15.4295 17.3634 14.7848 17.7401C14.1402 18.1169 13.2946 18.075 12.4658 17.6146L8.38031 15.3458C8.13753 15.2118 7.66033 15.2118 7.41754 15.3458L3.33203 17.6146C2.87995 17.8657 2.41949 17.9997 1.98415 17.9997ZM3.86784 1.25579C2.43623 1.25579 1.26416 2.42786 1.26416 3.85947V15.6555C1.26416 16.1495 1.40649 16.5178 1.65764 16.6602C1.9088 16.8109 2.30228 16.7606 2.72925 16.5178L6.81476 14.249C7.43428 13.9058 8.37194 13.9058 8.99146 14.249L13.077 16.5178C13.5039 16.7606 13.8974 16.8109 14.1486 16.6602C14.3997 16.5095 14.5421 16.1411 14.5421 15.6555V3.85947C14.5421 2.42786 13.37 1.25579 11.9384 1.25579H3.86784Z" fill="#C0BDBD"/>
</svg>
