<svg width="15" height="13" viewBox="0 0 15 13" fill="none" xmlns="http://www.w3.org/2000/svg">
<path d="M9.96096 6.46477C9.96096 7.82589 8.86106 8.92578 7.49995 8.92578C6.13883 8.92578 5.03894 7.82589 5.03894 6.46477C5.03894 5.10365 6.13883 4.00376 7.49995 4.00376C8.86106 4.00376 9.96096 5.10365 9.96096 6.46477Z" stroke="white" stroke-width="1.5" stroke-linecap="round" stroke-linejoin="round"/>
<path d="M7.49989 12.1504C9.92653 12.1504 12.1882 10.7205 13.7624 8.24576C14.3811 7.27648 14.3811 5.64726 13.7624 4.67798C12.1882 2.20322 9.92653 0.773362 7.49989 0.773362C5.07325 0.773362 2.8116 2.20322 1.23738 4.67798C0.61869 5.64726 0.61869 7.27648 1.23738 8.24576C2.8116 10.7205 5.07325 12.1504 7.49989 12.1504Z" stroke="white" stroke-width="1.5" stroke-linecap="round" stroke-linejoin="round"/>
</svg>
