<svg width="12" height="3" viewBox="0 0 12 3" fill="none" xmlns="http://www.w3.org/2000/svg">
<path d="M11.2499 2.62687e-07C11.1513 -7.16113e-05 11.0536 0.0146064 10.9625 0.0431941C10.8713 0.0717819 10.7885 0.113719 10.7187 0.166606C10.649 0.219494 10.5936 0.282293 10.5559 0.351413C10.5182 0.420534 10.4988 0.49462 10.4988 0.569432V0.760791C10.4985 0.987222 10.3798 1.20432 10.1687 1.36443C9.95766 1.52454 9.67146 1.61458 9.37294 1.6148H2.62768C2.32913 1.61458 2.04288 1.52455 1.83174 1.36444C1.6206 1.20434 1.50181 0.987247 1.50143 0.760791V0.569432C1.50143 0.418409 1.42234 0.273572 1.28155 0.166783C1.14076 0.0599942 0.949816 2.62687e-07 0.750714 2.62687e-07C0.551613 2.62687e-07 0.360665 0.0599942 0.219879 0.166783C0.079093 0.273572 0 0.418409 0 0.569432V0.760791C0.000953689 1.28916 0.278116 1.79567 0.770705 2.16926C1.26329 2.54285 1.9311 2.75301 2.62768 2.75366H9.37258C10.0692 2.75301 10.737 2.54285 11.2296 2.16926C11.7221 1.79567 11.9993 1.28916 12.0003 0.760791V0.569432C12.0003 0.494666 11.9809 0.420625 11.9432 0.35154C11.9056 0.282455 11.8503 0.219679 11.7806 0.166799C11.7109 0.113919 11.6282 0.0719709 11.5371 0.043351C11.4461 0.014731 11.3485 2.54063e-07 11.2499 2.62687e-07Z" fill="#B0B6C4"/>
</svg>
