<svg width="30" height="30" viewBox="0 0 30 30" fill="none" xmlns="http://www.w3.org/2000/svg">
<g clip-path="url(#clip0_52_50783)">
<path d="M29.0625 27.75L1.3125 30L1.59375 2.53125L20.4375 0L26.9063 5.53125L29.0625 27.75Z" fill="#395259"/>
<path d="M27.375 25.4063L2.71875 27.375L2.90625 3.46875L19.6875 1.3125L25.7813 6.5625L27.375 25.4063Z" fill="#8EC0D4"/>
<path d="M2.71875 17.9062L26.9063 20.4375L27.4688 25.2187L2.71875 27.375V17.9062Z" fill="#78A2B3"/>
<path d="M24.375 14.25L4.40625 16.3125V4.78125L20.0625 2.8125L23.7188 6L24.375 14.25Z" fill="white"/>
<path d="M7.40625 25.125C6.84375 24.8438 6.46875 24.4688 6.1875 23.9063C5.90625 23.3438 5.71875 22.7813 5.71875 22.125C5.71875 21.4688 5.90625 20.9063 6.1875 20.3438C6.46875 19.7813 6.84375 19.3125 7.40625 18.9375C7.875 18.5625 8.4375 18.375 9.09375 18.2813C9.9375 18.1875 10.6875 18.4688 11.4375 19.0313L10.6875 19.9688C10.2187 19.5938 9.75 19.4063 9.1875 19.5C8.8125 19.5 8.4375 19.6875 8.0625 19.875C7.6875 20.1563 7.5 20.4375 7.3125 20.8125C7.125 21.1875 7.03125 21.5625 7.03125 22.0313C7.03125 22.5 7.125 22.875 7.3125 23.1563C7.5 23.5313 7.78125 23.8125 8.15625 24C8.53125 24.1875 8.90625 24.2813 9.28125 24.1875C9.75 24.1875 10.2188 23.9063 10.5938 23.625V22.3125L9.28125 22.4063V21.1875L11.625 21L11.7188 24.0938V24.1875C11.0625 24.9375 10.3125 25.3125 9.375 25.4063C8.53125 25.5 7.96875 25.4063 7.40625 25.125ZM14.25 17.9063L15.375 17.8125L15.6562 24.8438L14.5312 24.9375L14.25 17.9063ZM18.375 17.5313L22.5 17.1562L22.5938 18.375L19.5 18.6563L19.5937 20.3438L22.3125 20.0625L22.4062 21.2813L19.6875 21.5625L19.875 24.5625H18.75L18.375 17.5313Z" fill="#395259" stroke="#395259" stroke-width="0.704156" stroke-miterlimit="10"/>
<path d="M7.96875 24.375C7.5 24.0937 7.03125 23.7187 6.75 23.25C6.46875 22.7812 6.28125 22.2187 6.28125 21.5625C6.28125 20.9062 6.375 20.3437 6.65625 19.7812C6.9375 19.2187 7.3125 18.75 7.78125 18.4688C8.25 18.0938 8.8125 17.9062 9.375 17.8125C10.2188 17.7187 10.9688 18 11.625 18.5625L10.875 19.4062C10.5 19.0312 9.9375 18.8438 9.375 18.9375C9 18.9375 8.625 19.125 8.34375 19.3125C8.0625 19.5 7.78125 19.875 7.59375 20.25C7.40625 20.625 7.3125 21 7.3125 21.4687C7.3125 21.8437 7.40625 22.3125 7.59375 22.5937C7.78125 22.9687 8.0625 23.1562 8.34375 23.3437C8.71875 23.5312 9 23.625 9.46875 23.5312C9.9375 23.5312 10.4062 23.3437 10.7812 22.9687V21.6562L9.46875 21.75V20.625L11.7188 20.4375L11.8125 23.4375V23.5312C11.1563 24.2812 10.4062 24.6562 9.5625 24.75C9 24.75 8.4375 24.6562 7.96875 24.375ZM14.5312 17.3437L15.5625 17.25L15.8438 24.0938L14.7188 24.1875L14.5312 17.3437ZM18.5625 16.9687L22.5938 16.5938L22.6875 17.7187L19.6875 18L19.7813 19.6875L22.4062 19.4062L22.5 20.5312L19.875 20.8125L20.0625 23.7187L18.9375 23.8125L18.5625 16.9687Z" fill="white"/>
<path d="M9.5625 10.5L11.25 13.0312L10.2187 13.125L9 11.25L7.78125 13.4063L6.75 13.5L8.34375 10.5938L6.65625 8.0625L7.6875 7.96875L8.90625 9.84375L10.125 7.6875L11.1562 7.5L9.5625 10.5ZM15 9.84375L16.7812 12.4688L15.6562 12.5625L14.3438 10.6875L13.125 12.8438L12 12.9375L13.5938 10.0312L11.8125 7.5L12.8438 7.40625L14.1562 9.28125L15.375 7.125L16.5 7.03125L15 9.84375ZM20.5312 9.1875L22.5 11.8125L21.375 11.9062L19.9687 9.9375L18.75 12.1875L17.625 12.2813L19.2188 9.28125L17.3438 6.75L18.4688 6.65625L19.875 8.53125L21 6.28125L22.125 6.1875L20.5312 9.1875Z" fill="#AA3549" stroke="#AA3549" stroke-width="0.352031" stroke-miterlimit="10"/>
<path d="M25.7812 6.5625L20.4375 7.21875L19.6875 1.3125L25.7812 6.5625Z" fill="#78A2B3"/>
<path d="M25.875 7.875L19.2188 8.625V1.40625L19.6875 1.3125L20.5312 7.125L25.7812 6.5625L25.875 7.875Z" fill="#395259"/>
<path opacity="0.25" d="M20.7188 3.46875L21.1875 6.1875H24.0938L20.7188 3.46875Z" fill="white"/>
</g>
<defs>
<clipPath id="clip0_52_50783">
<rect width="30" height="30" fill="white"/>
</clipPath>
</defs>
</svg>
