<svg width="23" height="17" viewBox="0 0 23 17" fill="none" xmlns="http://www.w3.org/2000/svg">
<path d="M16.8623 6.54513H13.7958C13.5925 6.54513 13.3975 6.46436 13.2537 6.32059C13.1099 6.17682 13.0292 5.98183 13.0292 5.7785C13.0292 5.57518 13.1099 5.38018 13.2537 5.23641C13.3975 5.09264 13.5925 5.01187 13.7958 5.01187H16.8623C17.0656 5.01187 17.2606 5.09264 17.4044 5.23641C17.5482 5.38018 17.629 5.57518 17.629 5.7785C17.629 5.98183 17.5482 6.17682 17.4044 6.32059C17.2606 6.46436 17.0656 6.54513 16.8623 6.54513ZM9.19598 5.01187H8.42935V4.24523C8.42935 4.04191 8.34858 3.84691 8.20481 3.70314C8.06103 3.55937 7.86604 3.4786 7.66271 3.4786C7.45939 3.4786 7.26439 3.55937 7.12062 3.70314C6.97685 3.84691 6.89608 4.04191 6.89608 4.24523V5.01187H6.12945C5.92612 5.01187 5.73113 5.09264 5.58736 5.23641C5.44358 5.38018 5.36281 5.57518 5.36281 5.7785C5.36281 5.98183 5.44358 6.17682 5.58736 6.32059C5.73113 6.46436 5.92612 6.54513 6.12945 6.54513H6.89608V7.31177C6.89608 7.51509 6.97685 7.71009 7.12062 7.85386C7.26439 7.99763 7.45939 8.0784 7.66271 8.0784C7.86604 8.0784 8.06103 7.99763 8.20481 7.85386C8.34858 7.71009 8.42935 7.51509 8.42935 7.31177V6.54513H9.19598C9.39931 6.54513 9.5943 6.46436 9.73807 6.32059C9.88185 6.17682 9.96262 5.98183 9.96262 5.7785C9.96262 5.57518 9.88185 5.38018 9.73807 5.23641C9.5943 5.09264 9.39931 5.01187 9.19598 5.01187ZM20.1493 16.8372C19.9503 16.8753 19.7481 16.8946 19.5455 16.8947C18.633 16.8944 17.7578 16.5326 17.1115 15.8885L17.0636 15.8406L13.1729 11.5091L9.82845 11.5283L5.92821 15.8406L5.88987 15.8885C5.23882 16.5314 4.36122 16.8928 3.44623 16.8947C3.24678 16.895 3.04778 16.8758 2.85209 16.8372C2.40542 16.7597 1.97847 16.5947 1.59579 16.3516C1.21311 16.1085 0.882244 15.7922 0.622208 15.4209C0.362172 15.0495 0.178097 14.6305 0.0805626 14.1877C-0.0169715 13.745 -0.0260406 13.2874 0.0538766 12.8411L1.61589 4.80104V4.78188C1.8485 3.44928 2.54427 2.24165 3.58045 1.37202C4.61664 0.502401 5.92665 0.0266667 7.2794 0.0287487L15.7124 0C17.0588 0.000857469 18.3623 0.474223 19.3955 1.33758C20.4287 2.20093 21.1262 3.39951 21.3663 4.72438C21.3759 4.73396 21.3759 4.73396 21.3759 4.74355L22.9379 12.8315H22.9475C23.1064 13.7336 22.9011 14.6619 22.3765 15.4129C21.8519 16.1638 21.051 16.676 20.1493 16.8372ZM15.7124 9.96624C16.8306 9.96624 17.9031 9.522 18.6939 8.73126C19.4846 7.94051 19.9289 6.86803 19.9289 5.74975C19.9289 4.63147 19.4846 3.55899 18.6939 2.76825C17.9031 1.9775 16.8306 1.53327 15.7124 1.53327L7.2794 1.56202C6.29306 1.5594 5.33715 1.90343 4.5787 2.53401C3.82025 3.16459 3.30749 4.04162 3.12999 5.01187C3.13149 5.02843 3.12816 5.04507 3.12041 5.05978L1.55839 13.119C1.48928 13.5184 1.54858 13.9295 1.72778 14.2931C1.90698 14.6567 2.19685 14.9541 2.55572 15.1426C2.9146 15.3311 3.32399 15.4009 3.72506 15.3421C4.12612 15.2833 4.49821 15.0988 4.78784 14.8152L8.91808 10.2441C8.99093 10.167 9.07849 10.1052 9.17559 10.0624C9.27269 10.0196 9.37737 9.9967 9.48347 9.99499L15.7124 9.96624ZM21.4334 13.119L20.5997 8.78754C20.0829 9.61793 19.3629 10.3028 18.5077 10.7773C17.6525 11.2519 16.6904 11.5004 15.7124 11.4995H15.2236L18.2039 14.8152C18.4936 15.0988 18.8656 15.2833 19.2667 15.3421C19.6678 15.4009 20.0772 15.3311 20.436 15.1426C20.7949 14.9541 21.0848 14.6567 21.264 14.2931C21.4432 13.9295 21.5025 13.5184 21.4334 13.119Z" fill="#3E4B65"/>
</svg>
