<svg width="30" height="30" viewBox="0 0 30 30" fill="none" xmlns="http://www.w3.org/2000/svg">
<g clip-path="url(#clip0_52_53045)">
<path d="M7.40625 12.5625C7.40625 12.5625 6.75 12.4687 6.375 12.0937C5.90625 11.7187 5.53125 11.7187 5.4375 11.7187C5.34375 11.7187 5.25 11.5312 5.0625 11.5312C4.96875 11.4375 4.6875 11.4375 4.6875 11.5312C4.6875 11.625 4.875 12 4.875 12V12.4688C4.875 12.6562 4.875 13.125 5.34375 13.2188C5.8125 13.4063 6.1875 13.3125 6.375 13.2188C6.5625 13.0313 7.40625 12.5625 7.40625 12.5625Z" fill="#BC4D3F"/>
<path d="M3.18708 21.8437C1.87458 21 1.40583 19.7812 2.06208 18C2.24958 17.4375 4.12458 15.0937 4.49958 14.8125C5.62458 13.9687 10.2183 11.625 14.1558 15C14.9058 15.6562 14.9996 18.4687 15.1871 19.5937V19.6875C15.7496 22.5937 14.8121 24.8437 12.4683 24.6562C9.65583 24.375 5.43708 23.3437 3.18708 21.8437Z" fill="#2E561D"/>
<path d="M16.0317 5.15692C15.0942 3.09442 12.8442 0.938166 10.0317 0.469416C9.09417 0.281916 7.87543 0.000666291 6.37543 0.469416C-1.31207 2.43817 2.06292 11.4382 2.06292 11.4382C3.00042 10.0319 4.87543 5.25067 8.25043 5.53192C9.65668 5.71942 10.6879 5.25067 11.4379 4.78192C12.2817 6.00067 13.5004 8.43817 13.4067 12.2819C13.4067 12.2819 13.5942 13.8757 15.7504 13.9694C15.7504 13.9694 15.5629 12.8444 15.9379 12.0944C16.1254 11.3444 16.9692 7.31317 16.0317 5.15692Z" fill="#8E4028"/>
<path d="M6.375 13.5943C6.375 15.2818 5.15625 16.688 3.65625 16.5943C2.15625 16.5005 0.9375 15.0943 0.9375 13.4068C0.9375 11.7193 2.0625 10.313 3.65625 10.4068C5.0625 10.313 6.28125 11.813 6.375 13.5943Z" fill="#8E4028"/>
<path d="M6.46875 13.5937C6.46875 15.1875 5.34375 16.3125 3.9375 16.2187C2.53125 16.125 1.40625 14.8125 1.40625 13.3125C1.40625 11.8125 2.53125 10.5938 3.9375 10.5938C5.25 10.7812 6.375 12.0937 6.46875 13.5937Z" fill="#FFEFAB"/>
<path d="M3.65577 21.4696C2.43702 20.7196 1.78077 19.8758 2.43702 18.2821C2.62452 17.7196 4.49952 15.4696 4.87452 15.1883C5.99952 14.4383 9.93702 14.1571 13.8745 17.0633C14.6245 17.6258 15.0933 18.4696 15.3745 19.4071V19.5008C15.937 22.0321 14.9995 24.0008 12.6558 23.9071C9.93702 23.7196 5.81202 22.7821 3.65577 21.4696Z" fill="#71AF5D"/>
<path d="M3.74997 20.0616C2.62497 19.4053 2.99997 18.1866 3.56247 16.8741C3.74997 16.4053 4.21872 15.9366 4.59372 15.7491C5.62497 15.0928 9.84372 14.6241 13.4062 17.0616C14.0625 17.5303 14.5312 18.1866 14.7187 19.0303V19.1241C15.1875 21.2803 13.5937 23.0616 11.625 22.5928C9.28122 22.1241 5.71872 21.0928 3.74997 20.0616Z" fill="#E8A554"/>
<path d="M3.65666 19.9678C2.62541 19.4053 3.65666 18.8428 4.21916 17.4365C4.31291 17.0615 5.34416 16.124 5.62541 15.9365C6.56291 15.2803 8.81291 14.624 11.9067 17.0615C12.4692 17.5303 12.9379 18.1865 13.0317 19.0303V19.124C13.4067 21.2803 12.3754 22.7803 10.6879 22.4053C8.62541 21.749 5.34416 21.0928 3.65666 19.9678Z" fill="#FFD097"/>
<path d="M5.43731 13.9688C5.43731 13.9688 4.59356 14.625 3.84356 16.0313L4.31231 16.5938L4.21856 16.6875C4.21856 16.6875 5.62481 15.4688 6.56231 15L5.43731 13.9688ZM3.56231 16.9688C3.56231 16.9688 4.21856 19.3125 14.9998 19.7813C14.9998 19.7813 14.4373 21.4687 13.9686 22.3125C13.9686 22.3125 11.1561 22.6875 7.40606 21.4688C3.93731 20.4375 2.53106 20.1563 3.56231 16.9688Z" fill="#71AF5D"/>
<path d="M2.90653 17.8122C3.00028 17.6247 3.28153 17.5309 3.46903 17.6247C4.21903 18.1872 6.28153 19.3122 10.7815 20.0622C11.8128 20.2497 13.219 20.2497 15.0003 19.9684C15.0003 19.9684 15.094 20.3434 15.0003 20.9059C14.8128 22.1247 13.594 22.9684 12.3753 22.8747C10.8753 22.7809 9.46904 22.5934 7.40653 22.0309C4.12528 20.9059 2.25028 20.4372 2.90653 17.8122Z" fill="#A0E58C"/>
<path d="M14.8123 6.37465C14.8123 10.4059 11.8123 15.5621 8.06231 15.1871C4.59356 14.8121 2.15606 12.3746 1.78106 8.90589C1.49981 5.24964 4.03106 1.96839 7.78106 1.78089C11.9998 1.59339 14.8123 2.1559 14.8123 6.37465Z" fill="#8E4028"/>
<path d="M14.6247 6.74969C14.6247 10.6872 11.0622 14.9059 7.40592 14.5309C4.03092 14.2497 2.15592 11.9059 1.87467 8.43719C1.49967 4.87469 4.03092 1.68719 7.68717 1.49969C11.7184 1.31219 14.6247 2.62469 14.6247 6.74969Z" fill="#E8A554"/>
<path d="M11.4371 9.46962C11.5308 12.0946 9.46832 14.0634 7.12457 13.8759C4.78082 13.5946 2.81207 11.5321 2.62457 9.18837C2.43707 6.65712 4.12457 4.59462 6.46832 4.50087C9.09332 4.40712 11.3433 6.65712 11.4371 9.46962Z" fill="#FFD097"/>
<path d="M2.34375 7.5C2.34375 7.5 2.53125 6.46875 4.78125 6.46875C7.03125 6.5625 10.2187 6.84375 11.625 5.25L11.0625 4.6875C11.0625 4.6875 9.65625 5.4375 7.40625 5.4375C5.15625 5.4375 2.34375 5.90625 2.15625 6.1875C2.15625 6.5625 2.34375 7.5 2.34375 7.5Z" fill="#E8A554"/>
<path d="M9.375 9.09375C9.375 9.5625 9.09375 9.9375 8.71875 9.84375C8.34375 9.84375 8.0625 9.46875 8.0625 9C8.0625 8.53125 8.34375 8.15625 8.71875 8.25C9.09375 8.25 9.375 8.625 9.375 9.09375ZM4.3125 8.53125C4.3125 9 4.03125 9.28125 3.75 9.28125C3.375 9.28125 3.1875 8.90625 3.1875 8.53125C3.1875 8.0625 3.46875 7.78125 3.75 7.78125C4.03125 7.78125 4.3125 8.15625 4.3125 8.53125Z" fill="#8E4028"/>
<path d="M4.03125 8.25C4.03125 8.34375 3.9375 8.4375 3.84375 8.4375C3.75 8.4375 3.65625 8.34375 3.65625 8.25C3.65625 8.15625 3.75 8.0625 3.84375 8.0625C3.9375 8.0625 4.03125 8.15625 4.03125 8.25Z" fill="white"/>
<path d="M6.28125 18.6563C6.28125 18.6563 6.5625 18 7.125 17.625C7.125 17.625 6.84375 18.375 6.84375 18.8438L6.28125 18.6563Z" fill="#8E4028"/>
<path d="M5.34375 21.4687C5.34375 21.4687 6.09375 21.375 6.65625 20.8125C6.65625 20.8125 6.84375 21.8437 7.59375 22.125C7.5 22.125 5.53125 21.5625 5.34375 21.4687Z" fill="#71AF5D"/>
<path d="M7.6875 14.9062L8.90625 15.4688L11.4375 15.9375L11.5313 13.7812C11.5313 13.7812 8.4375 14.8125 7.6875 14.9062Z" fill="#8E4028"/>
<path d="M4.40625 18.5625C4.40625 18.5625 3.9375 17.9062 4.3125 17.1562C4.6875 16.4062 6 15.2812 6 15.2812L4.6875 15.5625C4.6875 15.5625 3.09375 16.4063 2.90625 17.9063L4.40625 18.5625Z" fill="#A0E58C"/>
<path d="M3.46875 19.3124C3.46875 19.3124 3.375 19.7811 3.5625 20.4374H2.8125C2.8125 20.4374 2.8125 19.8749 3.09375 19.2186C3.09375 18.9374 3.46875 19.0311 3.46875 19.3124Z" fill="#71AF5D"/>
<path d="M7.3125 20.25C7.3125 20.25 10.125 19.875 11.4375 20.8125C11.4375 20.8125 11.8125 21.4688 11.4375 21.5625C11.0625 21.6562 8.625 20.4375 7.3125 20.625C7.3125 20.625 7.03125 20.3438 7.3125 20.25ZM3.65625 18.75C3.65625 18.75 5.625 18.9375 6.375 19.6875C6.375 19.6875 6.5625 20.1562 6.28125 20.1562C6 20.1562 4.5 18.9375 3.5625 18.9375C3.5625 19.0313 3.46875 18.75 3.65625 18.75Z" fill="#E0F9D7"/>
<path d="M13.5938 3.56342C13.5938 3.56342 12.375 6.28217 8.8125 5.90717C5.34375 5.53217 2.90625 6.09467 1.875 7.50092C1.875 7.50092 1.875 1.78217 6.9375 0.938422C12.1875 0.0946715 13.5938 2.71967 13.5938 3.56342Z" fill="#FFEFAB"/>
<path d="M3.46875 11.625C3.46875 11.625 4.5 13.5 4.875 13.7813C5.25 13.9688 8.34375 13.9688 9 13.6875C9.65625 13.4063 9.46875 11.625 9.46875 11.625H3.46875Z" fill="#FFD097"/>
<path d="M7.6875 12.4688C7.6875 12.4688 7.03125 12.375 6.65625 12.0937C6.1875 11.8125 5.8125 11.9062 5.71875 11.9062C5.625 11.9062 5.53125 11.8125 5.34375 11.7188C5.25 11.625 4.96875 11.625 4.96875 11.7188C4.96875 11.8125 5.15625 12.0937 5.15625 12.0937V12.4688C5.15625 12.5625 5.15625 13.0312 5.625 13.0312C6.09375 13.0312 6.375 13.0313 6.65625 12.9375C6.9375 12.8438 7.6875 12.4688 7.6875 12.4688Z" fill="#B23D3D"/>
<path d="M19.2188 9.09375C19.2188 10.5938 18 11.7188 16.5 11.625C15 11.5312 13.7812 10.3125 13.7812 8.90625C13.7812 7.40625 15 6.28125 16.5 6.28125C17.9063 6.46875 19.2188 7.6875 19.2188 9.09375Z" fill="#E8A554"/>
<path d="M19.125 9.74922C19.125 11.2492 17.9062 12.3742 16.4062 12.2805C14.9062 12.1867 13.6875 10.968 13.6875 9.56172C13.6875 8.15547 14.9062 6.93672 16.4062 7.03047C17.8125 7.03047 19.125 8.24922 19.125 9.74922Z" fill="#E8A554"/>
<path d="M20.7188 14.9993C20.7188 17.5306 18.75 19.4056 16.4062 19.3118C14.0625 19.2181 12.1875 17.0618 12.1875 14.6243C12.1875 12.1868 14.0625 10.2181 16.4062 10.3118C18.75 10.3118 20.7188 12.4681 20.7188 14.9993Z" fill="#E8A554"/>
<path d="M20.3438 14.8121C20.3438 17.0621 18.375 18.8434 16.0312 18.7496C13.6875 18.6559 11.8125 16.6871 11.8125 14.4371C11.8125 12.1871 13.6875 10.4059 16.0312 10.4996C18.375 10.5934 20.3438 12.5621 20.3438 14.8121Z" fill="#FFEFAB"/>
<path d="M18.6562 9.18672C18.6562 10.6867 17.4375 11.8117 15.9375 11.718C14.4375 11.6242 13.2188 10.4055 13.2188 8.99922C13.2188 7.59297 14.4375 6.37422 15.9375 6.46797C17.3437 6.46797 18.6562 7.68672 18.6562 9.18672Z" fill="#FFEFAB"/>
<path d="M11.0625 15.2812C11.0625 15.2812 11.9062 17.7187 10.0312 18.5625C10.0312 18.5625 14.625 19.3125 15.9375 18.6562C15.9375 18.6562 16.3125 16.0312 12.5625 14.625L11.0625 15.2812Z" fill="#71AF5D"/>
<path d="M9 8.71875C9 8.8125 8.90625 8.90625 8.8125 8.90625C8.71875 8.90625 8.625 8.8125 8.625 8.71875C8.625 8.625 8.71875 8.53125 8.8125 8.53125C8.90625 8.53125 9 8.625 9 8.71875Z" fill="white"/>
<path d="M8.90625 19.1244C8.90625 19.1244 12.6562 19.4994 12.1875 15.7494C12.1875 15.7494 13.2188 15.1869 14.1563 15.9369C15 16.6869 16.3125 17.5306 15.8437 19.8744C15.75 19.8744 9.46875 20.3431 8.90625 19.1244Z" fill="#A0E58C"/>
<path d="M12.2813 21.0937C12.2813 21.0937 12.4688 21.8438 12.2813 22.6875L13.5 22.7812C13.5 22.7812 13.2188 21.1875 12.0938 19.7812L12.2813 21.0937Z" fill="#71AF5D"/>
<path d="M13.3125 9.18838C13.3125 9.18838 14.1563 8.71963 14.625 9.09463C15.2813 9.84463 14.7188 10.8759 13.4063 11.0634L13.3125 9.18838Z" fill="#E8BD89"/>
<path d="M13.9686 10.875C13.9686 10.875 13.6873 12.6562 14.9061 13.5C14.9061 13.5 14.3436 13.5937 13.7811 12.9375C13.3123 12.2812 13.4061 10.9687 13.4061 10.9687L13.9686 10.875Z" fill="#E8A554"/>
<path d="M4.78125 2.34446C4.78125 2.34446 7.78125 0.656964 10.5 1.87571C10.5 1.87571 11.3438 3.00071 9.375 3.18821C7.40625 3.28196 7.40625 2.15696 4.78125 2.34446ZM17.7187 12.282C17.7187 12.282 19.0312 14.8132 16.875 16.407C16.5938 16.5945 16.5 16.9695 16.6875 17.2507C16.9687 17.7195 17.5312 17.8132 17.9062 17.4382C18.8438 16.407 20.0625 14.3445 17.7187 12.282Z" fill="white"/>
<path d="M16.3125 7.21875C16.3125 7.21875 17.5312 8.71875 16.6875 9.9375C16.6875 9.9375 16.6875 10.5 17.0625 10.5C17.4375 10.5 17.9063 10.3125 17.9063 9.84375C17.8125 9.46875 17.9062 7.59375 16.3125 7.21875Z" fill="white"/>
<path d="M26.4375 15C26.4375 15 28.5 15.9375 28.3125 16.5938C28.125 17.25 26.9063 18.1875 26.9063 18.1875L20.0625 16.5938L20.9062 14.625L26.4375 15Z" fill="#3B0909"/>
<path d="M25.3125 15.2812C25.3125 15.2812 27.375 16.2188 27.1875 16.875C27 17.5313 25.7813 18.4688 25.7813 18.4688L19.0312 16.875L19.875 14.9062L25.3125 15.2812Z" fill="#B23D3D"/>
<path d="M25.1245 16.7812C26.9057 17.4375 28.5932 18.9375 29.062 21.1875C29.6245 23.4375 28.8745 26.1562 27.187 27.4688C26.1557 28.3125 24.8432 28.5 23.5307 28.5C20.5307 28.5 17.5307 27.4688 14.437 26.3438C13.4057 25.9688 12.3745 25.5938 11.5307 24.9375C10.687 24.2813 9.93698 23.1562 9.74948 21.9375C9.56198 20.1562 10.4995 18.4688 11.812 17.5313C14.062 16.0313 16.312 15.375 18.6557 15.375C20.7182 15.375 23.1557 16.125 25.1245 16.7812Z" fill="#3B0909"/>
<path d="M25.5933 18.2812C27.4683 18.9375 29.2496 20.4375 29.8121 22.6875C30.3746 24.9375 29.5308 27.6562 27.8433 28.9688C26.7183 29.8125 25.3121 30 23.9058 30C20.7183 30 17.5308 28.9688 14.2496 27.8438C13.2183 27.4688 12.0933 27.0938 11.1558 26.4375C10.2183 25.7813 9.46832 24.6562 9.28082 23.4375C9.09332 21.6562 10.1246 19.9687 11.5308 19.0312C13.8746 17.5312 16.3121 16.875 18.7496 16.875C20.9058 16.875 23.5308 17.625 25.5933 18.2812Z" fill="#3B0909"/>
<path d="M25.1255 17.4375C26.9067 18.0938 28.5942 19.5938 29.063 21.8438C29.6255 24.0938 28.8755 26.8125 27.188 28.125C26.1567 28.9688 24.8442 29.1562 23.5317 29.1562C20.5317 29.1562 17.5317 28.125 14.438 27C13.4067 26.625 12.3755 26.25 11.5317 25.5938C10.688 24.9375 9.93795 23.8125 9.75045 22.5938C9.56295 20.8125 10.5005 19.125 11.813 18.1875C14.063 16.6875 16.313 16.0312 18.6567 16.0312C20.7192 16.0312 23.1567 16.7812 25.1255 17.4375Z" fill="#B23D3D"/>
<path d="M16.7812 27.6562L19.0312 20.3438L20.3438 19.2188L21.375 19.5L18.75 28.3125C18.75 28.3125 17.25 28.0312 16.7812 27.6562Z" fill="#C68383"/>
<path opacity="0.1" d="M26.0242 25.1228C26.5193 23.596 25.8028 21.9958 24.4238 21.5485C23.0448 21.1013 21.5255 21.9764 21.0304 23.5032C20.5352 25.0299 21.2517 26.6301 22.6307 27.0774C24.0097 27.5246 25.529 26.6495 26.0242 25.1228Z" fill="white"/>
<path d="M20.3434 19.3125C20.3434 19.3125 18.1872 23.7187 17.4372 27.9375L12.6559 26.0625C12.6559 26.0625 12.2809 22.3125 13.7809 18L16.2184 18.9375L20.3434 19.3125Z" fill="#997567"/>
<path d="M26.9065 17.9062C26.9065 17.9062 30.1877 20.4375 29.1565 24.75L30.0002 24.5625C30.0002 24.5625 30.3752 20.0625 26.9065 17.9062ZM11.5315 18.2812C11.5315 18.2812 9.28147 20.8125 10.219 24.1875L9.46897 23.8125C9.46897 23.8125 9.09397 20.3438 11.0627 18.375L11.5315 18.2812ZM11.5315 26.3438L12.2815 25.875L18.0002 28.125L17.4377 28.5938C17.4377 28.5938 12.2815 27 11.5315 26.3438Z" fill="#3B0909"/>
<path d="M13.7816 17.7188C13.7816 17.7188 13.5941 20.8125 15.2816 21C16.8753 21.0938 19.2191 21.8438 23.4378 18.375L13.7816 17.7188Z" fill="#997567"/>
<path d="M24.75 17.1559C24.6562 17.0622 23.8125 18.1872 23.8125 18.1872C23.8125 18.1872 26.9063 19.4997 27.375 20.6247C27.9375 21.7497 26.9062 26.8122 26.3438 27.4684C25.7812 28.1247 24.2812 29.0622 23.5312 29.1559C23.5312 29.1559 27.6562 29.6247 28.6875 26.3434C29.7188 23.0622 29.4375 19.4059 24.75 17.1559Z" fill="#932F2F"/>
<path d="M27.8438 10.6875C27.8438 15.4687 24 19.4062 19.2188 19.4062C14.4375 19.4062 10.5 15.4687 10.5 10.6875C10.5 5.90625 14.4375 1.875 19.2188 1.875C24.0938 1.875 27.8438 5.8125 27.8438 10.6875Z" fill="#4A3531"/>
<path d="M13.7814 18.4688C13.7814 18.4688 12.9377 24.2812 13.1252 26.25L12.1877 25.875C12.1877 25.875 11.6252 23.4375 11.8127 21.4687C12.0002 19.5 12.7502 18.1875 12.7502 18.1875L13.4064 17.7188L13.7814 18.4688Z" fill="#997567"/>
<path d="M27.5625 10.0312C27.5625 14.8125 23.7188 18.75 18.9375 18.75C14.1563 18.75 10.2188 14.8125 10.2188 10.0312C10.2188 5.25 14.1563 1.3125 18.9375 1.3125C23.7188 1.3125 27.5625 5.15625 27.5625 10.0312Z" fill="#7A594F"/>
<path d="M27.5859 9.75833C27.6026 5.1502 23.9645 1.40135 19.4599 1.38502C14.9553 1.3687 11.2901 5.09109 11.2734 9.69922C11.2567 14.3073 14.8948 18.0562 19.3994 18.0725C23.904 18.0888 27.5692 14.3665 27.5859 9.75833Z" fill="#7A594F"/>
<path d="M23.6178 11.289C23.6306 7.76817 20.8707 4.90394 17.4534 4.89156C14.0362 4.87918 11.2556 7.72333 11.2428 11.2441C11.2301 14.765 13.99 17.6292 17.4072 17.6416C20.8245 17.6539 23.6051 14.8098 23.6178 11.289Z" fill="#997567"/>
<path d="M17.7187 15.5625C17.7187 15.5625 17.0625 15.4688 16.5 15.1875C16.0313 14.9063 15.5625 14.9062 15.4688 15C15.375 15 15.1875 14.9062 15.0938 14.8125C14.9063 14.7188 14.7188 14.7188 14.7188 14.8125C14.7188 14.9062 14.9062 15.1875 14.9062 15.1875V15.5625C14.9062 15.75 14.9062 16.125 15.375 16.2187C15.9375 16.3125 16.3125 16.2188 16.5 16.125L17.7187 15.5625Z" fill="#362826"/>
<path d="M25.2188 12.2812C25.2188 12.2812 25.7812 17.25 19.5938 18.0937C19.5938 18.0937 24.0937 18.5625 27 13.125C27 13.125 27.5625 12.0938 27.0938 10.875C27.0938 10.875 25.9688 12.2812 25.2188 12.2812Z" fill="#7A594F"/>
<path d="M18 8.62549C18 8.62549 18.375 7.96924 19.0312 7.96924C19.6875 7.96924 21.5625 7.87549 21.8438 8.34424C22.125 8.81299 21.4688 9.18799 21.4688 9.18799L18 8.62549ZM15 8.15674C15 8.15674 15.1875 7.40674 14.625 7.21924C14.1563 7.03174 12.6562 6.37549 12.0937 6.75049C11.5312 7.12549 11.8125 7.68799 11.8125 7.68799L15 8.15674ZM25.6875 9.93799C25.6875 9.93799 27 9.37549 27.4688 9.84424C27.9375 10.2192 28.4063 12.8442 26.3438 13.313C24.1875 13.688 25.6875 9.93799 25.6875 9.93799Z" fill="#362826"/>
<path d="M25.6871 9.84463C25.6871 9.84463 26.7184 9.37588 27.1871 9.75088C27.5621 10.1259 28.0309 12.2821 26.2496 12.6571C24.4684 13.0321 25.6871 9.84463 25.6871 9.84463Z" fill="#7A594F"/>
<path d="M20.8826 11.8108C20.8847 11.2413 20.5086 10.7782 20.0426 10.7765C19.5766 10.7748 19.1972 11.2351 19.1951 11.8047C19.1931 12.3742 19.5692 12.8373 20.0352 12.839C20.5011 12.8407 20.8806 12.3803 20.8826 11.8108Z" fill="#362826"/>
<path d="M14.16 10.303C14.162 9.73345 13.786 9.27037 13.32 9.26868C12.854 9.26699 12.4746 9.72733 12.4725 10.2969C12.4704 10.8664 12.8465 11.3295 13.3125 11.3312C13.7785 11.3329 14.1579 10.8725 14.16 10.303Z" fill="#362826"/>
<path d="M13.6084 9.98573C13.609 9.8304 13.5255 9.70418 13.422 9.7038C13.3184 9.70343 13.234 9.82904 13.2334 9.98437C13.2329 10.1397 13.3164 10.2659 13.4199 10.2663C13.5235 10.2667 13.6079 10.1411 13.6084 9.98573Z" fill="white"/>
<path d="M20.2393 11.3471C20.2399 11.1917 20.1564 11.0655 20.0528 11.0651C19.9493 11.0648 19.8649 11.1904 19.8643 11.3457C19.8637 11.501 19.9472 11.6273 20.0508 11.6276C20.1543 11.628 20.2387 11.5024 20.2393 11.3471Z" fill="white"/>
<path d="M13.0312 3.56284C13.0312 3.56284 18 2.06284 23.3438 4.87533C23.3438 4.87533 24.75 7.12533 25.2188 10.7816L27.75 9.37533C27.75 9.37533 27.9375 3.37534 21.9375 1.50034C15.9375 -0.374665 13.0312 3.56284 13.0312 3.56284Z" fill="#362826"/>
<path d="M24.75 9.75L26.5312 9.09375L26.1562 8.25L24.2812 8.8125L24.75 9.75ZM24.1875 7.96875L25.9688 7.3125L25.5937 6.46875L23.8125 7.03125L24.1875 7.96875Z" fill="#7A594F"/>
<path d="M12.8438 13.9691C12.8438 13.9691 16.3125 13.8754 19.4063 15.6566L19.6875 14.9066C19.6875 14.9066 16.875 13.2191 12.9375 13.5004L12.8438 13.9691Z" fill="#4A3531"/>
<path d="M18.4688 14.9062L17.4375 19.0312H18.75L19.5937 14.7188L18.4688 14.9062ZM13.5937 13.6875L13.3125 17.0625L12.4688 16.0313L12.6562 13.5L13.5937 13.6875Z" fill="#4A3531"/>
<path d="M18.75 14.25C18.75 14.25 19.6875 14.8125 19.4063 16.2187L20.0625 15.375L20.1562 13.6875L18.75 14.25ZM12.4688 14.3437C12.4688 14.3437 12.8438 13.4062 13.6875 13.4062L12.6562 13.2188L12.4688 14.3437Z" fill="#997567"/>
<path d="M12.9377 15.9384C12.9377 15.9384 13.8752 16.9696 14.9064 17.3446C15.9377 17.7196 18.4689 17.4384 18.4689 17.4384C18.4689 17.4384 18.8439 18.5634 18.6564 18.7509C18.4689 18.9384 14.8127 20.1571 14.8127 20.1571L12.5627 16.4071C12.3752 15.6571 12.9377 15.9384 12.9377 15.9384Z" fill="#4A3531"/>
<path d="M14.8125 20.1563C14.8125 20.1563 18 19.875 19.5937 19.2188L19.2188 15.75L18.0937 18.5625L15.5625 19.2188L14.8125 20.1563Z" fill="#4A3531"/>
<path d="M13.0309 26.25C13.0309 26.25 12.6559 22.7812 12.7496 21.0937C12.8434 19.4062 13.4996 18 13.4996 18L12.6559 18.1875C12.6559 18.1875 10.8746 20.5312 12.0934 25.875L13.0309 26.25Z" fill="#C68383"/>
<path d="M13.4062 24.5625C13.4062 24.5625 14.625 24.9375 15.0938 24.8437C15.5625 24.75 15.75 24.9375 15.75 24.9375L17.1562 25.6875H15.2812L14.8125 26.625V25.3125L13.4062 24.5625Z" fill="#7A594F"/>
<path d="M9.1875 14.8125L10.9687 14.3438L10.7812 15.2812L9.1875 14.8125Z" fill="#E8A554"/>
<path d="M2.71875 17.0625L5.0625 14.25L5.4375 14.4375L2.25 18.75L2.71875 17.0625Z" fill="#2E561D"/>
</g>
<defs>
<clipPath id="clip0_52_53045">
<rect width="30" height="30" fill="white"/>
</clipPath>
</defs>
</svg>
