<svg width="30" height="30" viewBox="0 0 30 30" fill="none" xmlns="http://www.w3.org/2000/svg">
<g clip-path="url(#clip0_52_50007)">
<path d="M7.96875 18.9375L2.71875 22.125L6.1875 22.875L4.3125 27L10.5937 22.3125L7.96875 18.9375Z" fill="#AA5D18"/>
<path d="M10.7812 21.8438L6.28125 27.375L11.4375 26.1563L12.0937 29.8125L14.8125 23.3438L10.7812 21.8438Z" fill="#AA5D18"/>
<path d="M6.75 18.4688L1.5 21.6562L4.96875 22.4062L4.6875 26.1562L9.375 21.8437L6.75 18.4688Z" fill="#FFA750" stroke="#AA5D18" stroke-width="0.765188" stroke-miterlimit="10"/>
<path d="M9.5625 21.375L6.9375 26.9063L10.2187 25.6875L12 28.9688L13.5938 22.875L9.5625 21.375Z" fill="#FFA750" stroke="#AA5D18" stroke-width="0.765188" stroke-miterlimit="10"/>
<path opacity="0.62" d="M6.09375 18.9375L3.46875 20.4375L6.28125 21.4687L7.03125 23.9062L8.71875 22.3125L8.0625 22.125L7.78125 20.1562H6.5625L6.09375 18.9375ZM9.5625 21.75L7.78125 25.0312L10.6875 24.5625L12.5625 26.3437L13.2188 24.1875L12.6563 23.625L12.0938 22.6875L10.5938 22.875L9.5625 21.75Z" fill="#AA5D18"/>
<path d="M27.8438 13.9688L28.875 13.0312L27.75 11.7188L28.7813 10.4062L26.7188 9L27 8.0625L25.7812 7.59375L25.875 5.8125L24.2812 5.25L24.0938 3.9375H22.5L22.125 2.71875L20.4375 3L19.6875 1.6875L18.2812 2.625L17.3438 1.40625L16.125 2.625L14.8125 1.6875L13.9687 3.09375L12.4688 2.4375L11.8125 3.9375L10.3125 3.65625L9.9375 5.25L8.34375 5.34375V6.9375L6.65625 7.3125L7.03125 8.90625L5.4375 9.65625L6.1875 11.0625L4.6875 12.0938L5.71875 13.4062L4.5 14.8125L5.71875 15.75L4.875 18L6.375 18.0938L6 20.625L7.40625 20.25L7.3125 23.7188L9 22.0312L9.5625 24.4688L11.1562 23.8125L11.5312 25.3125L13.2188 24.375L14.1562 26.0625L15.6563 24.75L16.9688 26.0625L18.1875 24.4688L19.7812 25.5L20.625 23.625L22.4062 24.2812L22.7812 22.3125L24.6562 22.5V20.5312L26.5312 20.25L26.1562 18.375L27.8438 17.7188L27.0937 15.6563L28.5938 15.0938L27.8438 13.9688Z" fill="#AA5D18"/>
<path d="M16.4062 0.65625L17.4375 1.6875L18.8438 0.84375L19.5938 2.15625L21.0938 1.59375L21.5625 3L23.1562 2.71875L23.25 4.21875L24.9375 4.3125L24.6562 5.8125L26.3438 6.28125L25.7812 7.78125L27.2812 8.53125L26.3438 9.9375L27.6562 10.9688L26.4375 12.1875L27.5625 13.5938L26.0625 14.5312L26.8125 16.125L25.125 16.7812L25.5 18.4688L23.7188 18.75V20.625L21.8438 20.4375L21.375 22.3125L19.6875 21.75L18.8438 23.4375L17.25 22.5L16.125 24L14.8125 22.7812L13.3125 24L12.375 22.4062L10.6875 23.25L10.125 21.5625L8.34375 22.0312L8.25 20.1562L6.46875 20.25L6.65625 18.4688L4.96875 18.1875L5.625 16.5L4.125 15.8437L5.0625 14.25L3.75 13.3125L4.96875 12L4.03125 10.7812L5.4375 9.75L4.78125 8.4375L6.28125 7.6875L6 6.1875L7.59375 5.8125V4.3125L9.1875 4.21875L9.5625 2.71875L11.0625 3L11.7188 1.59375L13.125 2.15625L14.0625 0.9375L15.2812 1.6875L16.4062 0.65625Z" fill="#FFA750" stroke="#AA5D18" stroke-width="0.91875" stroke-miterlimit="10"/>
<path d="M24.5625 11.625C24.4688 16.5938 20.0625 20.7188 14.8125 20.625C9.65626 20.5312 6.00001 16.3125 6.65626 11.4375C7.21876 6.84375 11.4375 3.375 16.125 3.28125C20.9063 3.375 24.6563 7.03125 24.5625 11.625Z" fill="#FFB22E" stroke="white" stroke-width="0.765188" stroke-miterlimit="10"/>
<path d="M23.1563 11.625C23.0626 15.75 19.3126 19.3125 14.9063 19.2188C10.5938 19.125 7.50007 15.6562 7.96882 11.5312C8.43757 7.59375 12.0001 4.59375 16.0313 4.59375C20.1563 4.59375 23.3438 7.6875 23.1563 11.625Z" fill="#FFE092"/>
<path d="M13.875 8.71875L10.6875 12.2813V12.5625H12.1875L12.2813 11.5312H14.1563L13.875 15.1875H11.9062L12 13.875H8.71875L8.90625 12L11.8125 8.71875H13.875ZM17.3438 8.71875L17.1562 11.1562H18.0938L19.6875 8.71875H21.75L19.5938 11.7187L21.5625 15.375H19.2188L17.9063 12.4688H16.9688L16.7812 15.2812H14.8125L15.2812 8.71875H17.3438Z" fill="#AA5D18"/>
<path opacity="0.47" d="M22.8751 7.40625C22.8751 8.25 22.1251 9 21.1876 9C20.3439 9 19.5939 8.25 19.6876 7.40625C19.6876 6.5625 20.4376 5.90625 21.3751 5.90625C22.1251 5.90625 22.8751 6.5625 22.8751 7.40625Z" fill="white"/>
<path opacity="0.4" d="M13.0312 19.7812C16.1379 19.7812 18.6562 17.2629 18.6562 14.1562C18.6562 11.0496 16.1379 8.53125 13.0312 8.53125C9.92465 8.53125 7.40625 11.0496 7.40625 14.1562C7.40625 17.2629 9.92465 19.7812 13.0312 19.7812Z" fill="#F49937"/>
</g>
<defs>
<clipPath id="clip0_52_50007">
<rect width="30" height="30" fill="white"/>
</clipPath>
</defs>
</svg>
