<svg width="16" height="16" viewBox="0 0 16 16" fill="none" xmlns="http://www.w3.org/2000/svg">
<path d="M10.5814 10.0004L10.6314 10.4504C10.734 11.3412 10.7272 12.2412 10.6114 13.1304C10.5414 13.5704 10.4114 14.0104 10.1714 14.3604C9.92137 14.7404 9.53137 15.0004 9.00137 15.0004C8.48137 15.0004 8.17137 14.6304 7.98137 14.3004C7.78137 13.9904 7.62137 13.5504 7.44137 13.1004L7.43137 13.0704C6.88137 11.6704 6.13137 9.76041 4.13137 8.42041C3.82137 8.22041 3.53137 8.06041 3.27137 7.96041C2.57137 7.66041 1.95137 6.90041 2.11137 6.02041L2.34137 4.82041C2.41167 4.45449 2.58281 4.11549 2.83547 3.84162C3.08813 3.56775 3.41228 3.36991 3.77137 3.27041L8.72137 1.89041C9.18827 1.76175 9.6768 1.73139 10.156 1.80125C10.6353 1.87111 11.0948 2.03968 11.5056 2.29627C11.9163 2.55287 12.2693 2.89192 12.5423 3.29198C12.8153 3.69203 13.0022 4.14438 13.0914 4.62041L13.5514 7.04041C13.619 7.40164 13.6061 7.77334 13.5137 8.12903C13.4213 8.48473 13.2516 8.81568 13.0167 9.09832C12.7818 9.38096 12.4875 9.60833 12.1547 9.76425C11.8219 9.92017 11.4589 10.0008 11.0914 10.0004H10.5814ZM12.1114 4.80041C12.0466 4.46034 11.912 4.13741 11.716 3.85208C11.5199 3.56676 11.2668 3.32526 10.9725 3.14288C10.6783 2.96051 10.3493 2.84123 10.0066 2.7926C9.66384 2.74398 9.31473 2.76707 8.98137 2.86041L4.03137 4.23041C3.85209 4.28135 3.69062 4.38137 3.56517 4.51919C3.43971 4.65702 3.35527 4.82715 3.32137 5.01041L3.10137 6.21041C3.04137 6.49041 3.26137 6.87041 3.65137 7.03041C3.96137 7.16041 4.31137 7.34041 4.68137 7.58041C6.96137 9.11041 7.81137 11.2804 8.35137 12.6904L8.36137 12.7104C8.56137 13.2104 8.69137 13.5604 8.83137 13.7904C8.87447 13.8704 8.93213 13.9416 9.00137 14.0004C9.14137 14.0004 9.25137 13.9504 9.35137 13.8004C9.47137 13.6204 9.57137 13.3404 9.63137 12.9704C9.76717 11.9326 9.74018 10.8799 9.55137 9.85041L9.52137 9.65041L9.51137 9.60041C9.49654 9.52776 9.49805 9.45272 9.5158 9.38072C9.53355 9.30873 9.56709 9.24158 9.614 9.18415C9.6609 9.12671 9.71999 9.08043 9.78699 9.04865C9.85399 9.01688 9.92721 9.0004 10.0014 9.00041H11.0914C11.3118 8.99988 11.5293 8.95078 11.7286 8.85661C11.9279 8.76244 12.104 8.62551 12.2443 8.45557C12.3847 8.28563 12.4858 8.08684 12.5406 7.87336C12.5954 7.65988 12.6025 7.43694 12.5614 7.22041L12.1114 4.80041Z" fill="#2B2B2B"/>
</svg>
