<svg width="17" height="17" viewBox="0 0 17 17" fill="none" xmlns="http://www.w3.org/2000/svg">
<path d="M11.9493 9.26502V12.835C11.9493 15.81 10.7544 17 7.76706 17H4.18226C1.19493 17 0 15.81 0 12.835V9.26502C0 6.29004 1.19493 5.10005 4.18226 5.10005H7.76706C10.7544 5.10005 11.9493 6.29004 11.9493 9.26502Z" fill="#B7BABC"/>
<path d="M12.8109 0H9.2261C6.70829 0 5.4697 0.851363 5.14218 2.89416C5.04226 3.51742 5.57017 4.03747 6.20395 4.03747H7.68976C11.2746 4.03747 12.9389 5.69495 12.9389 9.26493V10.7446C12.9389 11.3757 13.4611 11.9015 14.087 11.802C16.1383 11.4758 16.9932 10.2423 16.9932 7.73494V4.16497C16.9932 1.18999 15.7982 0 12.8109 0Z" fill="#B7BABC"/>
</svg>
