<svg width="107" height="152" viewBox="0 0 107 152" fill="none" xmlns="http://www.w3.org/2000/svg">
<g clip-path="url(#clip0_52_124884)">
<path fill-rule="evenodd" clip-rule="evenodd" d="M105.663 16.008C105.663 24.4248 98.8572 31.2299 90.44 31.2299H28.3319C16.4404 31.2299 5.98158 37.3904 0 46.7383V17.7988C0 8.41492 7.62921 0.786035 17.0135 0.786035H17.8015L17.9448 0.821851L18.0522 0.786035H90.44C98.8572 0.786035 105.663 7.59113 105.663 16.008Z" fill="white"/>
<path fill-rule="evenodd" clip-rule="evenodd" d="M91.3356 77.0032C91.3356 85.3843 84.5302 92.1535 76.1846 92.1535H34.0269V92.1892H16.9776C10.1722 92.1892 4.08324 95.2337 0 100.033V64.3599C0.322361 48.9948 12.8944 36.6024 28.332 36.6024H34.0269V61.8529H76.1846C84.5302 61.8529 91.3356 68.6221 91.3356 77.0032Z" fill="#7AA668"/>
<path fill-rule="evenodd" clip-rule="evenodd" d="M34.0269 97.5622V134.202C34.0269 143.586 26.3978 151.215 17.0135 151.215C7.6292 151.215 0 143.586 0 134.202V114.539C0 113.322 0.143219 112.104 0.393943 110.958C2.00575 103.293 8.81116 97.5622 16.9776 97.5622H34.0269Z" fill="#0D7DC2"/>
</g>
<defs>
<clipPath id="clip0_52_124884">
<rect width="106.636" height="150.26" fill="white" transform="translate(0 0.786035) scale(1.00112)"/>
</clipPath>
</defs>
</svg>
