<svg width="64" height="64" viewBox="0 0 64 64" fill="none" xmlns="http://www.w3.org/2000/svg">
<path d="M41.7397 19.4783H42.8528C42.8528 19.0329 42.5873 18.6304 42.1778 18.4551C41.7683 18.2798 41.2938 18.3655 40.9715 18.6729L41.7397 19.4783ZM41.7397 36.174V37.287C42.3545 37.287 42.8528 36.7887 42.8528 36.174H41.7397ZM34.7832 36.174L33.6702 36.1809C33.674 36.7929 34.1712 37.287 34.7832 37.287V36.174ZM42.8528 36.174C42.8528 35.5592 42.3545 35.0609 41.7397 35.0609C41.125 35.0609 40.6267 35.5592 40.6267 36.174H42.8528ZM41.7397 44.5218V45.6348C42.3545 45.6348 42.8528 45.1365 42.8528 44.5218H41.7397ZM40.3484 44.5218H39.2354C39.2354 45.1365 39.7337 45.6348 40.3484 45.6348V44.5218ZM41.4615 40.3479C41.4615 39.7331 40.9632 39.2348 40.3484 39.2348C39.7337 39.2348 39.2354 39.7331 39.2354 40.3479H41.4615ZM27.5484 20.8696C27.5484 20.2549 27.0501 19.7566 26.4354 19.7566C25.8207 19.7566 25.3224 20.2549 25.3224 20.8696H27.5484ZM25.3224 44.5218C25.3224 45.1365 25.8207 45.6348 26.4354 45.6348C27.0501 45.6348 27.5484 45.1365 27.5484 44.5218H25.3224ZM23.3745 20.8696C23.3745 20.2549 22.8762 19.7566 22.2615 19.7566C21.6467 19.7566 21.1484 20.2549 21.1484 20.8696H23.3745ZM31.7224 20.8696C31.7224 20.2549 31.224 19.7566 30.6093 19.7566C29.9946 19.7566 29.4963 20.2549 29.4963 20.8696H31.7224ZM40.6267 19.4783V36.174H42.8528V19.4783H40.6267ZM41.7397 35.0609H34.7832V37.287H41.7397V35.0609ZM35.8963 36.167C35.8803 33.6216 35.949 31.2024 36.7934 28.6523C37.6324 26.1186 39.2667 23.3755 42.508 20.2837L40.9715 18.6729C37.5122 21.9728 35.6523 25.0168 34.6802 27.9526C33.7134 30.8721 33.6541 33.6049 33.6702 36.1809L35.8963 36.167ZM40.6267 36.174V44.5218H42.8528V36.174H40.6267ZM41.7397 43.4087H40.3484V45.6348H41.7397V43.4087ZM41.4615 44.5218V40.3479H39.2354V44.5218H41.4615ZM25.3224 20.8696V44.5218H27.5484V20.8696H25.3224ZM21.1484 20.8696V25.0435H23.3745V20.8696H21.1484ZM21.1484 25.0435C21.1484 27.9634 23.5155 30.3305 26.4354 30.3305V28.1044C24.7449 28.1044 23.3745 26.734 23.3745 25.0435H21.1484ZM26.4354 30.3305C29.3553 30.3305 31.7224 27.9634 31.7224 25.0435H29.4963C29.4963 26.734 28.1259 28.1044 26.4354 28.1044V30.3305ZM31.7224 25.0435V20.8696H29.4963V25.0435H31.7224Z" fill="#213A52"/>
</svg>
