<svg width="16" height="16" viewBox="0 0 16 16" fill="none" xmlns="http://www.w3.org/2000/svg">
<path d="M12.2602 6.6599C12.2602 9.42657 9.56023 12.7532 8.46023 13.9932C8.21357 14.2666 7.7869 14.2666 7.54023 13.9932C6.44023 12.7532 3.74023 9.42657 3.74023 6.6599C3.74023 4.30657 5.6469 2.3999 8.00023 2.3999C10.3536 2.3999 12.2602 4.30657 12.2602 6.6599Z" stroke="black" stroke-width="1.2" stroke-miterlimit="10" stroke-linecap="round" stroke-linejoin="round"/>
<path d="M7.99378 8.36646C8.93634 8.36646 9.70044 7.60236 9.70044 6.65979C9.70044 5.71723 8.93634 4.95312 7.99378 4.95312C7.05121 4.95312 6.28711 5.71723 6.28711 6.65979C6.28711 7.60236 7.05121 8.36646 7.99378 8.36646Z" stroke="black" stroke-width="1.2" stroke-miterlimit="10" stroke-linecap="round" stroke-linejoin="round"/>
</svg>
