<svg width="30" height="30" viewBox="0 0 30 30" fill="none" xmlns="http://www.w3.org/2000/svg">
<g clip-path="url(#clip0_52_40489)">
<path d="M0.28125 11.7188L5.0625 24.5625C5.90625 26.9063 9.5625 28.5938 12.5625 28.2188C15.5625 27.8438 19.6875 27.9375 20.9062 26.25C22.125 24.5625 26.4375 12.375 29.1563 10.6875C29.1563 10.6875 26.3438 15.4688 23.8125 17.0625C21.2812 18.75 17.8125 23.4375 13.875 23.3438C9.9375 23.25 6.84375 22.5938 4.96875 19.4063C3.09375 16.2188 2.0625 13.5 2.0625 13.5L0.28125 11.7188Z" fill="#4C2537"/>
<path d="M1.21875 9.37488C1.21875 9.37488 3.28125 24.0936 12.6562 23.2499C21.9375 22.4061 27.9375 10.5936 27.9375 10.5936C27.9375 10.5936 18.75 5.24988 16.2187 4.21863C13.6875 3.18738 7.21875 3.46863 7.21875 3.46863L1.21875 9.37488Z" fill="#4C2537"/>
<path d="M4.40625 7.78125C4.40625 7.78125 10.2188 12.1875 20.8125 8.90625L17.7188 7.5L5.625 6.28125L4.40625 7.78125Z" fill="white"/>
<path d="M0.5625 9.84407C0.5625 9.84407 2.8125 6.84407 3.28125 5.43782C3.75 4.03157 5.625 2.06282 7.96875 3.18782C10.3125 4.31282 12 4.31282 13.0312 3.84407C14.0625 3.37532 16.2187 2.25032 18.1875 3.09407C20.0625 3.93782 25.5938 8.43782 29.625 9.28157C29.7188 9.28157 29.8125 9.46907 29.625 9.46907C29.25 9.56282 28.5 9.75032 27.8438 9.75032C26.7188 9.75032 18.5625 6.28157 17.3438 5.81282C16.125 5.34407 12 6.56282 9.75 6.18782C7.59375 5.71907 4.96875 6.84407 4.96875 6.84407C4.96875 6.84407 1.875 10.3128 0.5625 9.84407Z" fill="#960F4E" stroke="#960F4E" stroke-width="0.45825" stroke-miterlimit="10"/>
<path d="M0.84375 9.84346C0.84375 9.84346 3.5625 7.49971 4.78125 5.24971C6 2.9997 9.28125 4.96845 10.3125 5.34345C11.3438 5.71845 13.2188 5.15596 14.5312 4.68721C15.8438 4.21846 17.7188 3.65596 19.5938 4.8747C21.4688 6.09345 27 8.99971 29.625 9.46846C29.625 9.46846 27.4688 11.0622 23.25 9.93721C19.0312 8.81221 18 8.15596 15.5625 8.43721C13.125 8.62471 9.375 8.62471 6.9375 7.59346C6.9375 7.59346 6.28125 7.12471 4.96875 8.06221C3.65625 8.99971 1.125 9.84346 0.84375 9.84346Z" fill="#960F0F"/>
<path d="M0.84375 9.93766C0.84375 9.93766 3.5625 7.03141 4.78125 4.78141C6 2.53141 9.28125 4.50016 10.3125 4.87516C11.25 5.15641 13.125 4.68766 14.4375 4.12516C15.75 3.56266 17.625 3.09391 19.5 4.31266C21.375 5.53141 26.7188 9.09391 29.3438 9.46891C29.3438 9.46891 27.375 10.5002 23.1563 9.28141C18.9375 8.06266 17.9062 7.50016 15.4688 7.78141C13.125 8.15641 9.375 8.15641 6.9375 7.12516C6.9375 7.12516 6.28125 6.65641 4.96875 7.59391C3.65625 8.53141 1.125 9.93766 0.84375 9.93766Z" fill="#DD4568"/>
<path d="M0.1875 9.84375L4.40625 23.625C5.25 25.9688 8.90625 27.6563 11.9062 27.2813C14.9062 26.9063 18.8437 26.8125 19.9687 25.125C21.1875 23.4375 26.9062 11.5313 29.625 9.84375C29.625 9.84375 25.5938 14.5313 23.0625 16.125C20.625 17.8125 17.1562 22.5 13.2188 22.4063C9.28125 22.3125 6.1875 21.6563 4.3125 18.4688C2.4375 15.2813 1.40625 9.5625 1.40625 9.5625L0.1875 9.84375Z" fill="#960F4E"/>
<path d="M1.125 12.75L0.65625 9.9375C0.9375 10.5938 3.9375 19.7813 4.6875 21.75C5.4375 23.8125 8.90625 25.3125 11.7188 24.9375C14.5312 24.5625 18.0938 24.5625 19.2188 23.0625C20.25 21.6562 22.9687 17.1562 25.6875 15.0938C25.7812 15 29.4375 9.65625 29.3437 9.65625C28.125 10.125 28.5938 9.75 26.8125 10.7812C24.4688 12.1875 16.5 20.7188 12.8438 20.625C9.1875 20.5312 6.28125 19.9687 4.59375 17.1562C3.09375 14.625 1.40625 10.0312 1.21875 9.65625H1.125V12.75Z" fill="#DD4568"/>
<path d="M19.2187 5.24944C18.1875 4.59319 16.9687 4.21819 15.75 4.40569C15.1875 4.49944 14.625 4.78069 14.4375 5.34319C14.3437 5.81194 14.625 6.37444 15 6.65569C15.375 6.93694 15.9375 7.03069 16.4062 7.03069L18.8437 7.40569C19.6875 7.40569 20.625 7.68694 21.375 7.68694C22.3125 7.59319 21.2812 6.84319 21 6.56194C20.4375 6.09319 19.875 5.53069 19.2187 5.24944ZM18.4687 22.4057C19.0312 22.0307 19.5 21.5619 19.5937 20.9994C19.5937 20.7182 19.5937 20.4369 19.3125 20.2494C19.0312 20.0619 18.6562 20.1557 18.4687 20.2494C18.2812 20.3432 18.0937 20.6244 18 20.8119C17.8125 21.1869 17.625 21.4682 17.3437 21.8432C17.1562 22.1244 16.875 22.4994 16.6875 22.8744C16.5937 23.2494 17.1562 22.9682 17.4375 22.8744C17.8125 22.7807 18.1875 22.5932 18.4687 22.4057ZM8.24997 5.34319C7.59372 4.87444 6.84372 4.59319 6.09372 4.68694C5.71872 4.78069 5.34372 4.96819 5.34372 5.43694C5.24997 5.81194 5.43747 6.18694 5.71872 6.37444C5.90622 6.56194 6.28122 6.56194 6.56247 6.65569L8.06247 6.93694C8.53122 7.03069 9.09372 7.21819 9.56247 7.21819C10.125 7.21819 9.46872 6.56194 9.28122 6.37444C8.99997 5.99944 8.62497 5.53069 8.24997 5.34319Z" fill="#F964A0"/>
<path d="M25.9688 10.125C25.9688 10.125 27.375 10.6875 27.0937 11.4375L27.375 11.5312L29.8125 9.65625C29.9062 9.46875 29.9062 9.1875 29.9062 9.1875H29.5312C29.5312 9.28125 27.9375 10.0312 25.9688 10.125Z" fill="#960F0F"/>
<path d="M6.93755 5.71875C7.12505 5.8125 7.2188 5.8125 7.4063 5.8125C7.5938 5.8125 7.68755 5.71875 7.68755 5.53125C7.68755 5.34375 7.50005 5.25 7.4063 5.15625C7.12505 5.15625 6.8438 5.0625 6.56255 5.0625H6.0938C5.43755 5.34375 6.6563 5.625 6.93755 5.71875ZM17.4375 5.34375C17.625 5.4375 17.7188 5.4375 17.9063 5.4375C18.0938 5.4375 18.1875 5.34375 18.1875 5.15625C18.1875 4.96875 18 4.875 17.9063 4.78125C17.7188 4.78125 17.4375 4.6875 17.1563 4.6875H16.6875C16.0313 4.96875 17.25 5.25 17.4375 5.34375Z" fill="#FFA1CA"/>
<path d="M27.2812 10.3125L21.6562 22.4062L21.9375 24.0938L29.8125 9.65625L27.2812 10.3125Z" fill="#4C2537"/>
<path d="M0.75 9.09375L3.9375 19.7813L3.75 21.75L0 11.25L0.1875 9.84375L0.75 9.09375Z" fill="#960F4E"/>
<path d="M19.125 17.4375L10.9687 17.7187C8.24997 17.9062 4.49997 17.5312 5.06247 18.6562C5.62497 19.7812 8.43747 22.2187 11.5312 21.8437C14.625 21.4687 19.0312 19.0312 19.125 17.4375Z" fill="#960F0F"/>
<path d="M18.6562 17.25L12.9375 17.3438L11.0625 17.4375C8.53122 17.625 5.06247 17.3437 5.53122 18.0937C5.99997 18.8437 8.62497 20.625 11.5312 20.4375C14.4375 20.25 18.5625 18.375 18.6562 17.25Z" fill="#DD4545"/>
<path d="M12.1875 18.7506C11.625 18.7506 10.0312 18.3756 9.84375 17.9068L9.65625 17.4381H12.9375C12.9375 17.3443 12.75 18.7506 12.1875 18.7506Z" fill="#960F0F"/>
<path d="M3.65625 8.625C3.65625 8.625 2.25 11.0625 2.90625 13.3125L2.15625 12.6562L1.40625 9.46875L3.5625 6.84375L3.65625 8.625ZM23.0625 9.09375C23.0625 9.09375 23.8125 12.375 23.0625 14.3437C22.3125 16.3125 24.4688 15.75 24.4688 15.75L27.4688 9.75L23.625 7.96875L23.0625 9.09375Z" fill="#DD4568"/>
<path d="M23.7191 11.4375C23.7191 11.4375 24.0941 15 22.7816 16.5C21.4691 18 21.0003 19.875 21.0003 22.6875C21.0003 25.5 19.6878 29.8125 18.6566 26.7187C17.6253 23.625 18.6566 18.9375 18.6566 18.9375C18.6566 18.9375 23.8128 12.8437 23.7191 11.4375Z" fill="#D3C2C2"/>
<path d="M12.3754 17.6255C12.3754 17.6255 10.5941 16.688 13.1254 16.4067C15.6566 16.1255 20.3441 14.438 21.5629 13.7817C22.6879 13.1255 22.4066 14.2505 22.4066 14.2505C22.4066 14.2505 20.4379 15.8442 20.1566 16.7817C19.8754 17.7192 19.3129 18.3755 19.3129 18.3755L12.3754 17.6255Z" fill="#D3C2C2"/>
<path d="M22.2188 14.0625C22.2188 14.0625 21.8438 15.1875 21.2813 16.0313C20.7188 16.875 20.625 20.25 20.25 19.6875L18.6562 17.3438L16.4062 16.5938L22.2188 14.0625Z" fill="white"/>
</g>
<defs>
<clipPath id="clip0_52_40489">
<rect width="30" height="30" fill="white"/>
</clipPath>
</defs>
</svg>
