<svg width="10" height="16" viewBox="0 0 10 16" fill="none" xmlns="http://www.w3.org/2000/svg">
<path d="M3.83363 1.25692L1.01711 4.76627C0.376996 5.56453 0.60292 6.58872 1.51415 7.04057L4.32313 8.44883C4.69214 8.62957 5.29461 8.62957 5.66362 8.44883L8.4726 7.04057C9.38383 6.58119 9.60975 5.557 8.96964 4.76627L6.16065 1.25692C5.52806 0.451122 4.47375 0.451122 3.83363 1.25692Z" stroke="#3772FF" stroke-width="1.3" stroke-miterlimit="10" stroke-linecap="round" stroke-linejoin="round"/>
<path d="M5.00092 0.692284V4.65348" stroke="#3772FF" stroke-width="1.3" stroke-miterlimit="10" stroke-linecap="round" stroke-linejoin="round"/>
<path d="M1.83808 7.02551L5.00102 4.65331L8.16395 7.02551" stroke="#3772FF" stroke-width="1.3" stroke-miterlimit="10" stroke-linecap="round" stroke-linejoin="round"/>
<path d="M2.56856 9.82714L3.78101 10.3694C4.55669 10.7158 5.44532 10.7158 6.22852 10.3694L7.44098 9.82714C8.52542 9.34517 9.52701 10.6555 8.77393 11.5743L6.16828 14.7598C5.52816 15.543 4.48138 15.543 3.83373 14.7598L1.2356 11.5743C0.474994 10.6555 1.47659 9.34517 2.56856 9.82714Z" stroke="#3772FF" stroke-width="1.3" stroke-miterlimit="10" stroke-linecap="round" stroke-linejoin="round"/>
</svg>
