<svg width="20" height="20" viewBox="0 0 20 20" fill="none" xmlns="http://www.w3.org/2000/svg">
<path d="M14.798 0H12.198C8.99805 0 6.99805 2 6.99805 5.2V9.25H13.248C13.658 9.25 13.998 9.59 13.998 10C13.998 10.41 13.658 10.75 13.248 10.75H6.99805V14.8C6.99805 18 8.99805 20 12.198 20H14.788C17.988 20 19.988 18 19.988 14.8V5.2C19.998 2 17.998 0 14.798 0Z" fill="#292D32"/>
<path d="M2.5575 9.24984L4.6275 7.17984C4.7775 7.02984 4.8475 6.83984 4.8475 6.64984C4.8475 6.45984 4.7775 6.25984 4.6275 6.11984C4.3375 5.82984 3.8575 5.82984 3.5675 6.11984L0.2175 9.46984C-0.0725 9.75984 -0.0725 10.2398 0.2175 10.5298L3.5675 13.8798C3.8575 14.1698 4.3375 14.1698 4.6275 13.8798C4.9175 13.5898 4.9175 13.1098 4.6275 12.8198L2.5575 10.7498H6.9975V9.24984H2.5575Z" fill="#292D32"/>
</svg>
