<svg width="48" height="48" viewBox="0 0 48 48" fill="none" xmlns="http://www.w3.org/2000/svg">
<rect width="48" height="48" rx="24" fill="#F7F9FA"/>
<path d="M20.0738 26.3442C20.4429 26.5322 20.8945 26.3854 21.0826 26.0164C21.2706 25.6473 21.1238 25.1957 20.7547 25.0076L20.0738 26.3442ZM18.8376 25.3001V24.5501C18.82 24.5501 18.8024 24.5507 18.7849 24.5519L18.8376 25.3001ZM18.8376 32.1476L18.7849 32.8957C18.8024 32.897 18.82 32.8976 18.8376 32.8976V32.1476ZM29.0034 32.1476L29.009 31.3976H29.0034V32.1476ZM32.3401 30.8643L31.8471 30.2991C31.8422 30.3033 31.8373 30.3077 31.8325 30.3121L32.3401 30.8643ZM29.7734 22.4401L29.0336 22.5632C29.088 22.89 29.3503 23.1424 29.6789 23.1841L29.7734 22.4401ZM18.1777 25.5538C18.3178 25.9436 18.7474 26.146 19.1372 26.0059C19.5269 25.8657 19.7294 25.4362 19.5892 25.0464L18.1777 25.5538ZM20.7547 25.0076C20.1618 24.7056 19.5041 24.5501 18.8376 24.5501V26.0501C19.2712 26.0501 19.6951 26.1513 20.0738 26.3442L20.7547 25.0076ZM18.7849 24.5519C13.5652 24.92 13.5652 32.5277 18.7849 32.8957L18.8904 31.3994C15.53 31.1625 15.53 26.2852 18.8904 26.0482L18.7849 24.5519ZM18.8376 32.8976H29.0034V31.3976H18.8376V32.8976ZM28.9979 32.8976C30.4244 32.9081 31.7997 32.3797 32.8477 31.4164L31.8325 30.3121C31.0655 31.0172 30.0574 31.4054 29.009 31.3976L28.9979 32.8976ZM32.8331 31.4294C34.6002 29.8879 34.9872 27.5834 34.3936 25.636C33.8 23.6887 32.1934 21.9914 29.8679 21.6961L29.6789 23.1841C31.3226 23.3929 32.5073 24.5923 32.9587 26.0733C33.4101 27.5543 33.0958 29.2097 31.8471 30.2991L32.8331 31.4294ZM30.5132 22.3169C30.1233 19.9746 28.9643 18.364 27.4346 17.4656C25.9226 16.5775 24.1207 16.4275 22.4981 16.8541C20.8754 17.2807 19.3788 18.2978 18.4946 19.8142C17.6002 21.3482 17.375 23.321 18.1777 25.5538L19.5892 25.0464C18.9206 23.1863 19.1423 21.6814 19.7905 20.5697C20.4489 19.4404 21.5906 18.6436 22.8794 18.3048C24.1684 17.966 25.5513 18.099 26.675 18.759C27.781 19.4086 28.7086 20.6109 29.0336 22.5632L30.5132 22.3169Z" fill="#93989A"/>
<path d="M27.9441 22.1728C27.5736 22.358 27.4234 22.8085 27.6086 23.179C27.7939 23.5495 28.2444 23.6997 28.6149 23.5144L27.9441 22.1728ZM29.8232 23.2177C30.2374 23.2105 30.5673 22.869 30.5602 22.4548C30.553 22.0407 30.2115 21.7107 29.7974 21.7179L29.8232 23.2177ZM28.6149 23.5144C28.9916 23.3261 29.4039 23.2249 29.8232 23.2177L29.7974 21.7179C29.1533 21.729 28.5207 21.8845 27.9441 22.1728L28.6149 23.5144Z" fill="#93989A"/>
</svg>
