<svg width="24" height="24" viewBox="0 0 24 24" fill="none" xmlns="http://www.w3.org/2000/svg">
<path d="M21.5348 20.466L17.4754 16.416C18.9081 14.7103 19.627 12.5174 19.4821 10.2945C19.3372 8.07167 18.3398 5.99057 16.6979 4.48525C15.0559 2.97992 12.8962 2.16661 10.6692 2.21493C8.44212 2.26324 6.31971 3.16947 4.74459 4.74459C3.16947 6.31971 2.26324 8.44212 2.21493 10.6692C2.16661 12.8962 2.97992 15.0559 4.48525 16.6979C5.99057 18.3398 8.07167 19.3372 10.2945 19.4821C12.5174 19.627 14.7103 18.9081 16.416 17.4754L20.466 21.5348C20.6094 21.6734 20.801 21.7509 21.0004 21.7509C21.1998 21.7509 21.3914 21.6734 21.5348 21.5348C21.6756 21.3926 21.7546 21.2005 21.7546 21.0004C21.7546 20.8003 21.6756 20.6082 21.5348 20.466ZM3.75039 10.8754C3.75039 9.4662 4.16826 8.08865 4.95117 6.91695C5.73407 5.74525 6.84685 4.83202 8.14877 4.29275C9.45069 3.75347 10.8833 3.61237 12.2654 3.88729C13.6475 4.16221 14.9171 4.8408 15.9135 5.83725C16.91 6.8337 17.5886 8.10326 17.8635 9.48537C18.1384 10.8675 17.9973 12.3001 17.458 13.602C16.9188 14.9039 16.0055 16.0167 14.8338 16.7996C13.6621 17.5825 12.2846 18.0004 10.8754 18.0004C8.98648 17.9979 7.17565 17.2464 5.83999 15.9108C4.50433 14.5751 3.75287 12.7643 3.75039 10.8754Z" fill="white"/>
</svg>
