<svg width="44" height="35" viewBox="0 0 44 35" fill="none" xmlns="http://www.w3.org/2000/svg">
<path fill-rule="evenodd" clip-rule="evenodd" d="M38.4705 15.8312L43.2397 23.3818H0.0868377L4.8561 15.8311V1.94139L6.79749 0H36.5291L38.4705 1.94139V15.8312ZM34.5877 13.5744V3.88277H8.73887V13.5744C11.2408 12.9272 15.563 12.1291 21.6633 12.1291C27.7636 12.1291 32.0857 12.9272 34.5877 13.5744Z" fill="#78797A"/>
<path d="M0 25.7707V29.6534H4.52376V35.0002H8.40653V29.6534H34.9203V35.0002H38.8031V29.6534H43.3269V25.7707H0Z" fill="#78797A"/>
<path d="M30.1357 10.1095C30.1357 10.1095 18.1395 5.41632 15.736 5.41632C13.3325 5.41632 11.3841 6.50505 11.3841 7.8476V11.2427C11.3841 11.2427 13.9511 10.5964 15.7156 10.4293C17.3041 10.2788 30.1357 10.1095 30.1357 10.1095Z" fill="#78797A"/>
<path d="M31.9432 11.2427V7.8476C31.9432 6.50505 29.9947 5.41632 27.5912 5.41632C25.1876 5.41632 13.1915 10.1095 13.1915 10.1095C13.1915 10.1095 26.0232 10.2787 27.6117 10.4293C29.3762 10.5964 31.9432 11.2427 31.9432 11.2427Z" fill="#78797A"/>
</svg>
