<svg width="32" height="32" viewBox="0 0 32 32" fill="none" xmlns="http://www.w3.org/2000/svg">
<path d="M5.33301 7.99967C5.33301 7.29243 5.61396 6.61415 6.11406 6.11406C6.61415 5.61396 7.29243 5.33301 7.99967 5.33301H10.6663C11.3736 5.33301 12.0519 5.61396 12.552 6.11406C13.0521 6.61415 13.333 7.29243 13.333 7.99967V10.6663C13.333 11.3736 13.0521 12.0519 12.552 12.552C12.0519 13.0521 11.3736 13.333 10.6663 13.333H7.99967C7.29243 13.333 6.61415 13.0521 6.11406 12.552C5.61396 12.0519 5.33301 11.3736 5.33301 10.6663V7.99967ZM18.6663 7.99967C18.6663 7.29243 18.9473 6.61415 19.4474 6.11406C19.9475 5.61396 20.6258 5.33301 21.333 5.33301H23.9997C24.7069 5.33301 25.3852 5.61396 25.8853 6.11406C26.3854 6.61415 26.6663 7.29243 26.6663 7.99967V10.6663C26.6663 11.3736 26.3854 12.0519 25.8853 12.552C25.3852 13.0521 24.7069 13.333 23.9997 13.333H21.333C20.6258 13.333 19.9475 13.0521 19.4474 12.552C18.9473 12.0519 18.6663 11.3736 18.6663 10.6663V7.99967ZM5.33301 21.333C5.33301 20.6258 5.61396 19.9475 6.11406 19.4474C6.61415 18.9473 7.29243 18.6663 7.99967 18.6663H10.6663C11.3736 18.6663 12.0519 18.9473 12.552 19.4474C13.0521 19.9475 13.333 20.6258 13.333 21.333V23.9997C13.333 24.7069 13.0521 25.3852 12.552 25.8853C12.0519 26.3854 11.3736 26.6663 10.6663 26.6663H7.99967C7.29243 26.6663 6.61415 26.3854 6.11406 25.8853C5.61396 25.3852 5.33301 24.7069 5.33301 23.9997V21.333ZM18.6663 21.333C18.6663 20.6258 18.9473 19.9475 19.4474 19.4474C19.9475 18.9473 20.6258 18.6663 21.333 18.6663H23.9997C24.7069 18.6663 25.3852 18.9473 25.8853 19.4474C26.3854 19.9475 26.6663 20.6258 26.6663 21.333V23.9997C26.6663 24.7069 26.3854 25.3852 25.8853 25.8853C25.3852 26.3854 24.7069 26.6663 23.9997 26.6663H21.333C20.6258 26.6663 19.9475 26.3854 19.4474 25.8853C18.9473 25.3852 18.6663 24.7069 18.6663 23.9997V21.333Z" stroke="white" stroke-width="2" stroke-linecap="round" stroke-linejoin="round"/>
</svg>
