<svg width="24" height="20" viewBox="0 0 24 20" fill="none" xmlns="http://www.w3.org/2000/svg">
<path d="M21.5581 4.83757C22.4975 4.13307 23.3429 3.28767 24.0004 2.30137C23.155 2.6771 22.1687 2.9589 21.1824 3.05284C22.2157 2.44227 22.9671 1.50294 23.3429 0.328767C22.4035 0.892368 21.3233 1.31507 20.2431 1.5499C19.3037 0.563601 18.0356 0 16.6266 0C13.9025 0 11.6951 2.20744 11.6951 4.93151C11.6951 5.30724 11.7421 5.68297 11.836 6.05871C7.7499 5.82387 4.0865 3.85127 1.64423 0.892368C1.22153 1.59687 0.986693 2.44227 0.986693 3.3816C0.986693 5.07241 1.83209 6.57534 3.19413 7.46771C2.3957 7.42074 1.59726 7.23288 0.939726 6.85714V6.90411C0.939726 9.29941 2.63053 11.272 4.88493 11.7417C4.5092 11.8356 4.03953 11.9295 3.61683 11.9295C3.28806 11.9295 3.00626 11.8826 2.6775 11.8356C3.28806 13.8082 5.11977 15.2172 7.28024 15.2642C5.58943 16.5793 3.47593 17.3777 1.17456 17.3777C0.751859 17.3777 0.376126 17.3307 0.000391772 17.2838C2.16086 18.6928 4.74403 19.4912 7.56204 19.4912C16.6266 19.4912 21.5581 12.0235 21.5581 5.49511C21.5581 5.26027 21.5581 5.07241 21.5581 4.83757Z" fill="#1DA1F2"/>
</svg>
