<svg width="19" height="21" viewBox="0 0 19 21" fill="none" xmlns="http://www.w3.org/2000/svg">
<path d="M18.7055 0.163066C18.6155 0.0921636 18.5107 0.0425182 18.3988 0.0178419C18.287 -0.00683437 18.171 -0.00590302 18.0595 0.0205662L5.8995 3.06057C5.73375 3.10109 5.58645 3.19622 5.48133 3.33063C5.37621 3.46505 5.31939 3.63093 5.32 3.80157V14.2611C4.75972 13.8805 4.09732 13.6784 3.42 13.6816C2.74359 13.6816 2.08237 13.8821 1.51995 14.2579C0.957535 14.6337 0.519185 15.1679 0.260334 15.7928C0.00148182 16.4177 -0.0662456 17.1054 0.0657159 17.7688C0.197677 18.4322 0.523401 19.0416 1.0017 19.5199C1.47999 19.9982 2.08938 20.3239 2.75279 20.4558C3.41621 20.5878 4.10386 20.5201 4.72878 20.2612C5.3537 20.0024 5.88783 19.564 6.26363 19.0016C6.63942 18.4392 6.84 17.778 6.84 17.1016V8.95057L17.48 6.29057V11.2211C16.9197 10.8405 16.2573 10.6384 15.58 10.6416C14.9036 10.6416 14.2424 10.8421 13.68 11.2179C13.1175 11.5937 12.6792 12.1279 12.4203 12.7528C12.1615 13.3777 12.0938 14.0654 12.2257 14.7288C12.3577 15.3922 12.6834 16.0016 13.1617 16.4799C13.64 16.9582 14.2494 17.2839 14.9128 17.4159C15.5762 17.5478 16.2639 17.4801 16.8888 17.2212C17.5137 16.9624 18.0478 16.524 18.4236 15.9616C18.7994 15.3992 19 14.738 19 14.0616V0.761566C19.0011 0.645729 18.975 0.531245 18.9239 0.427305C18.8728 0.323365 18.798 0.232863 18.7055 0.163066ZM3.42 19.0016C3.04422 19.0016 2.67687 18.8901 2.36442 18.6814C2.05196 18.4726 1.80844 18.1758 1.66463 17.8287C1.52082 17.4815 1.4832 17.0995 1.55651 16.7309C1.62982 16.3623 1.81078 16.0238 2.0765 15.7581C2.34222 15.4923 2.68077 15.3114 3.04933 15.2381C3.41789 15.1648 3.79992 15.2024 4.1471 15.3462C4.49428 15.49 4.79102 15.7335 4.99979 16.046C5.20857 16.3584 5.32 16.7258 5.32 17.1016C5.3175 17.6047 5.11652 18.0865 4.76075 18.4423C4.40497 18.7981 3.92314 18.9991 3.42 19.0016ZM6.84 7.39257V4.39057L17.48 1.73057V4.73257L6.84 7.39257ZM15.58 15.9616C15.2042 15.9616 14.8369 15.8501 14.5244 15.6414C14.212 15.4326 13.9684 15.1358 13.8246 14.7887C13.6808 14.4415 13.6432 14.0595 13.7165 13.6909C13.7898 13.3223 13.9708 12.9838 14.2365 12.7181C14.5022 12.4523 14.8408 12.2714 15.2093 12.1981C15.5779 12.1248 15.9599 12.1624 16.3071 12.3062C16.6543 12.45 16.951 12.6935 17.1598 13.006C17.3686 13.3184 17.48 13.6858 17.48 14.0616C17.4775 14.5647 17.2765 15.0465 16.9207 15.4023C16.565 15.7581 16.0831 15.9591 15.58 15.9616Z" fill="white"/>
</svg>
