<svg width="20" height="20" viewBox="0 0 20 20" fill="none" xmlns="http://www.w3.org/2000/svg">
<path d="M10.75 14.0199H11.4C12.05 14.0199 12.59 13.4399 12.59 12.7399C12.59 11.8699 12.28 11.6999 11.77 11.5199L10.76 11.1699V14.0199H10.75Z" fill="white" fill-opacity="0.6"/>
<path d="M9.97007 1.67833e-05C4.45007 0.0200168 -0.0199331 4.51002 6.68532e-05 10.03C0.0200669 15.55 4.51007 20.02 10.0301 20C15.5501 19.98 20.0201 15.49 20.0001 9.97002C19.9801 4.45002 15.4901 -0.00998322 9.97007 1.67833e-05ZM12.2601 10.1C13.0401 10.37 14.0901 10.95 14.0901 12.74C14.0901 14.28 12.8801 15.52 11.4001 15.52H10.7501V16.1C10.7501 16.51 10.4101 16.85 10.0001 16.85C9.59007 16.85 9.25007 16.51 9.25007 16.1V15.52H8.89007C7.25007 15.52 5.92007 14.14 5.92007 12.44C5.92007 12.03 6.26007 11.69 6.67007 11.69C7.08007 11.69 7.42007 12.03 7.42007 12.44C7.42007 13.31 8.08007 14.02 8.89007 14.02H9.25007V10.64L7.74007 10.1C6.96007 9.83002 5.91007 9.25002 5.91007 7.46002C5.91007 5.92002 7.12007 4.68002 8.60007 4.68002H9.25007V4.10002C9.25007 3.69002 9.59007 3.35002 10.0001 3.35002C10.4101 3.35002 10.7501 3.69002 10.7501 4.10002V4.68002H11.1101C12.7501 4.68002 14.0801 6.06002 14.0801 7.76002C14.0801 8.17002 13.7401 8.51002 13.3301 8.51002C12.9201 8.51002 12.5801 8.17002 12.5801 7.76002C12.5801 6.89002 11.9201 6.18002 11.1101 6.18002H10.7501V9.56002L12.2601 10.1Z" fill="white" fill-opacity="0.6"/>
<path d="M7.41992 7.46969C7.41992 8.33969 7.72992 8.50969 8.23992 8.68969L9.24992 9.03969V6.17969H8.59992C7.94992 6.17969 7.41992 6.75969 7.41992 7.46969Z" fill="white" fill-opacity="0.6"/>
</svg>
