<svg width="190" height="127" viewBox="0 0 190 127" fill="none" xmlns="http://www.w3.org/2000/svg">
<path d="M82.7098 35.4004H143.964C145.009 35.4032 146.01 35.8194 146.748 36.5581C147.487 37.2968 147.903 38.2979 147.906 39.3426V92.6754C147.903 93.7201 147.487 94.7212 146.748 95.4599C146.01 96.1986 145.009 96.6148 143.964 96.6176H48.407C47.3623 96.6148 46.3613 96.1986 45.6226 95.4599C44.8839 94.7212 44.4676 93.7201 44.4648 92.6754V39.3426C44.4676 38.2979 44.8839 37.2968 45.6226 36.5581C46.3613 35.8194 47.3623 35.4032 48.407 35.4004H58.1859" stroke="white" stroke-width="2.11094" stroke-linecap="round" stroke-linejoin="round"/>
<path opacity="0.3" d="M173.312 111.283H132.613" stroke="white" stroke-width="2.11094" stroke-miterlimit="10" stroke-linecap="round"/>
<path opacity="0.3" d="M107.512 111.283H101.18" stroke="white" stroke-width="2.11094" stroke-miterlimit="10" stroke-linecap="round"/>
<path opacity="0.3" d="M93.5751 111.283H62.3438" stroke="white" stroke-width="2.11094" stroke-miterlimit="10" stroke-linecap="round"/>
<path opacity="0.3" d="M39.7158 111.283H18.4375" stroke="white" stroke-width="2.11094" stroke-miterlimit="10" stroke-linecap="round"/>
<path opacity="0.3" d="M24.8164 92.7177L60.4015 67.9775L84.6773 79.6246L108.953 55.5177L139.857 66.009L165.774 45.1055" stroke="white" stroke-width="2.11094" stroke-miterlimit="10" stroke-linecap="round" stroke-dasharray="1.06 4.22"/>
<path d="M108.394 58.2311C110.07 58.2311 111.428 56.8725 111.428 55.1966C111.428 53.5207 110.07 52.1621 108.394 52.1621C106.718 52.1621 105.359 53.5207 105.359 55.1966C105.359 56.8725 106.718 58.2311 108.394 58.2311Z" fill="white" stroke="#81B441" stroke-width="1.5832" stroke-miterlimit="10" stroke-linecap="round"/>
<path d="M165.773 48.1451C167.449 48.1451 168.807 46.7865 168.807 45.1106C168.807 43.4348 167.449 42.0762 165.773 42.0762C164.097 42.0762 162.738 43.4348 162.738 45.1106C162.738 46.7865 164.097 48.1451 165.773 48.1451Z" fill="white" stroke="#81B441" stroke-width="1.5832" stroke-miterlimit="10" stroke-linecap="round"/>
<path d="M60.722 70.6275C62.3979 70.6275 63.7564 69.269 63.7564 67.5931C63.7564 65.9172 62.3979 64.5586 60.722 64.5586C59.0461 64.5586 57.6875 65.9172 57.6875 67.5931C57.6875 69.269 59.0461 70.6275 60.722 70.6275Z" fill="white" stroke="#81B441" stroke-width="1.5832" stroke-miterlimit="10" stroke-linecap="round"/>
<path d="M84.3235 81.9205C85.9994 81.9205 87.358 80.5619 87.358 78.886C87.358 77.2101 85.9994 75.8516 84.3235 75.8516C82.6476 75.8516 81.2891 77.2101 81.2891 78.886C81.2891 80.5619 82.6476 81.9205 84.3235 81.9205Z" fill="white" stroke="#81B441" stroke-width="1.5832" stroke-miterlimit="10" stroke-linecap="round"/>
<path d="M26.1347 95.4346L24.8101 94.073L26.1664 92.7537C26.3333 92.5777 26.4256 92.344 26.4241 92.1014C26.4226 91.8588 26.3273 91.6263 26.1582 91.4524C25.9891 91.2785 25.7592 91.1768 25.5168 91.1685C25.2744 91.1602 25.0382 91.246 24.8576 91.408L23.5013 92.7273L22.1714 91.371C21.9954 91.2041 21.7617 91.1118 21.5191 91.1133C21.2766 91.1148 21.044 91.2101 20.8701 91.3792C20.6962 91.5484 20.5945 91.7782 20.5862 92.0206C20.5779 92.263 20.6637 92.4992 20.8257 92.6798L22.145 94.0361L20.7888 95.3554C20.6945 95.4399 20.6184 95.5426 20.5648 95.6573C20.5113 95.7719 20.4814 95.8962 20.4771 96.0227C20.4728 96.1492 20.4941 96.2752 20.5397 96.3933C20.5853 96.5113 20.6543 96.619 20.7425 96.7097C20.8308 96.8004 20.9364 96.8724 21.0531 96.9213C21.1699 96.9701 21.2953 96.9949 21.4218 96.9941C21.5484 96.9933 21.6735 96.967 21.7896 96.9166C21.9057 96.8663 22.0105 96.793 22.0975 96.7012L23.4538 95.3818L24.7731 96.7381C24.9492 96.905 25.1829 96.9974 25.4255 96.9958C25.668 96.9943 25.9006 96.899 26.0745 96.7299C26.2484 96.5608 26.3501 96.331 26.3584 96.0885C26.3666 95.8461 26.2808 95.6099 26.1189 95.4293L26.1347 95.4346Z" fill="#81B441"/>
<path opacity="0.3" d="M68.322 52.8262H51.5664" stroke="white" stroke-width="2.11094" stroke-miterlimit="10" stroke-linecap="round"/>
<path opacity="0.3" d="M84.8242 57.666H51.5664" stroke="white" stroke-width="2.11094" stroke-miterlimit="10" stroke-linecap="round"/>
<path opacity="0.3" d="M73.9476 43.1367H51.5664" stroke="white" stroke-width="2.11094" stroke-miterlimit="10" stroke-linecap="round"/>
<path opacity="0.3" d="M81.8156 43.1367H78.3906" stroke="white" stroke-width="2.11094" stroke-miterlimit="10" stroke-linecap="round"/>
<path opacity="0.3" d="M94.3497 43.1367H88.418" stroke="white" stroke-width="2.11094" stroke-miterlimit="10" stroke-linecap="round"/>
<path d="M146.202 104.676C153.708 104.676 159.792 98.5923 159.792 91.0872C159.792 83.5821 153.708 77.498 146.202 77.498C138.697 77.498 132.613 83.5821 132.613 91.0872C132.613 98.5923 138.697 104.676 146.202 104.676Z" fill="white"/>
<path d="M146.792 102.185C152.793 102.185 157.658 97.3203 157.658 91.3192C157.658 85.318 152.793 80.4531 146.792 80.4531C140.791 80.4531 135.926 85.318 135.926 91.3192C135.926 97.3203 140.791 102.185 146.792 102.185Z" stroke="#81B441" stroke-width="2.11094" stroke-miterlimit="10" stroke-linecap="round"/>
<path opacity="0.22" d="M148.291 104.466C154.549 104.466 159.622 99.3928 159.622 93.1351C159.622 86.8775 154.549 81.8047 148.291 81.8047C142.034 81.8047 136.961 86.8775 136.961 93.1351C136.961 99.3928 142.034 104.466 148.291 104.466Z" fill="#81B441"/>
<path d="M142.344 92.2318L144.703 94.5908L151.247 88.0469" stroke="#81B441" stroke-width="2.11094" stroke-linecap="round" stroke-linejoin="round"/>
<path opacity="0.3" d="M73.9469 29.7902C75.1127 29.7902 76.0578 28.8451 76.0578 27.6793C76.0578 26.5135 75.1127 25.5684 73.9469 25.5684C72.781 25.5684 71.8359 26.5135 71.8359 27.6793C71.8359 28.8451 72.781 29.7902 73.9469 29.7902Z" stroke="white" stroke-width="1.05547" stroke-miterlimit="10"/>
<path opacity="0.3" d="M148.592 19.5694H147.009V17.9439C147.009 17.734 146.925 17.5327 146.777 17.3842C146.628 17.2357 146.427 17.1523 146.217 17.1523C146.007 17.1523 145.806 17.2357 145.657 17.3842C145.509 17.5327 145.426 17.734 145.426 17.9439V19.5271H143.842C143.632 19.5271 143.431 19.6105 143.283 19.759C143.134 19.9075 143.051 20.1088 143.051 20.3187C143.051 20.5287 143.134 20.73 143.283 20.8785C143.431 21.027 143.632 21.1104 143.842 21.1104H145.426V22.6936C145.426 22.9035 145.509 23.1048 145.657 23.2533C145.806 23.4018 146.007 23.4852 146.217 23.4852C146.427 23.4852 146.628 23.4018 146.777 23.2533C146.925 23.1048 147.009 22.9035 147.009 22.6936V21.1104H148.592C148.802 21.1104 149.003 21.027 149.152 20.8785C149.3 20.73 149.384 20.5287 149.384 20.3187C149.384 20.1088 149.3 19.9075 149.152 19.759C149.003 19.6105 148.802 19.5271 148.592 19.5271V19.5694Z" fill="white"/>
<path opacity="0.3" d="M118.28 87.9941H95.8984" stroke="white" stroke-width="2.11094" stroke-miterlimit="10" stroke-linecap="round"/>
<path opacity="0.3" d="M126.148 87.9941H122.723" stroke="white" stroke-width="2.11094" stroke-miterlimit="10" stroke-linecap="round"/>
</svg>
