<svg width="21" height="18" viewBox="0 0 21 18" fill="none" xmlns="http://www.w3.org/2000/svg">
<path d="M10.125 18C9.99702 18.0013 9.87095 17.969 9.75937 17.9063C9.35625 17.6813 0 12.3656 0 5.625C0 4.44441 0.37146 3.29375 1.06176 2.336C1.75207 1.37826 2.72621 0.661992 3.84622 0.288657C4.96622 -0.0846785 6.1753 -0.096152 7.30219 0.255861C8.42908 0.607875 9.41665 1.30553 10.125 2.25C10.8334 1.30553 11.8209 0.607875 12.9478 0.255861C14.0747 -0.096152 15.2838 -0.0846785 16.4038 0.288657C17.5238 0.661992 18.4979 1.37826 19.1882 2.336C19.8785 3.29375 20.25 4.44441 20.25 5.625C20.25 8.49375 18.5906 11.4375 15.3187 14.3813C13.833 15.7169 12.2153 16.898 10.4906 17.9063C10.3791 17.969 10.253 18.0013 10.125 18ZM5.625 1.5C4.53098 1.5 3.48177 1.9346 2.70818 2.70818C1.9346 3.48177 1.5 4.53098 1.5 5.625C1.5 10.8 8.4375 15.3469 10.125 16.3781C11.8125 15.3469 18.75 10.8 18.75 5.625C18.7509 4.6714 18.4213 3.74695 17.8174 3.00894C17.2135 2.27093 16.3726 1.76495 15.4377 1.57708C14.5027 1.38922 13.5316 1.53107 12.6895 1.97851C11.8474 2.42595 11.1863 3.15134 10.8187 4.03125C10.7622 4.16881 10.6661 4.28646 10.5426 4.36926C10.4191 4.45207 10.2737 4.49628 10.125 4.49628C9.97629 4.49628 9.83093 4.45207 9.70741 4.36926C9.58388 4.28646 9.48775 4.16881 9.43125 4.03125C9.11908 3.27962 8.5906 2.63772 7.9129 2.18703C7.23521 1.73635 6.43887 1.49721 5.625 1.5Z" fill="white"/>
</svg>
