<svg width="14" height="22" viewBox="0 0 14 22" fill="none" xmlns="http://www.w3.org/2000/svg">
<path d="M5.20778 1.62545L1.29205 6.5044C0.402116 7.61421 0.716211 9.03811 1.98306 9.6663L5.88832 11.6242C6.40135 11.8754 7.23894 11.8754 7.75196 11.6242L11.6572 9.6663C12.9241 9.02764 13.2382 7.60374 12.3482 6.5044L8.44297 1.62545C7.5635 0.505171 6.09772 0.505171 5.20778 1.62545Z" stroke="white" stroke-width="1.5" stroke-miterlimit="10" stroke-linecap="round" stroke-linejoin="round"/>
<path d="M6.83046 0.840452V6.3476" stroke="white" stroke-width="1.5" stroke-miterlimit="10" stroke-linecap="round" stroke-linejoin="round"/>
<path d="M2.43342 9.64536L6.83077 6.34735L11.2281 9.64536" stroke="white" stroke-width="1.5" stroke-miterlimit="10" stroke-linecap="round" stroke-linejoin="round"/>
<path d="M3.44881 13.5402L5.13446 14.2941C6.21285 14.7757 7.4483 14.7757 8.53716 14.2941L10.2228 13.5402C11.7305 12.8702 13.123 14.6919 12.076 15.9692L8.4534 20.398C7.56347 21.4869 6.10816 21.4869 5.20775 20.398L1.59565 15.9692C0.538189 14.6919 1.93068 12.8702 3.44881 13.5402Z" stroke="white" stroke-width="1.5" stroke-miterlimit="10" stroke-linecap="round" stroke-linejoin="round"/>
</svg>
