<svg width="23" height="23" viewBox="0 0 23 23" fill="none" xmlns="http://www.w3.org/2000/svg">
<path d="M22.4251 1.85278H21.1473V0.575C21.1473 0.255556 20.8918 0 20.5723 0C20.2529 0 19.9973 0.255556 19.9973 0.575V1.85278H18.7195C18.4001 1.85278 18.1445 2.10833 18.1445 2.42778C18.1445 2.74722 18.4001 3.00278 18.7195 3.00278H19.9973V4.28056C19.9973 4.6 20.2529 4.85556 20.5723 4.85556C20.8918 4.85556 21.1473 4.6 21.1473 4.28056V2.99H22.4251C22.7445 2.99 23.0001 2.73444 23.0001 2.415C23.0001 2.09556 22.7445 1.84 22.4251 1.84V1.85278Z" fill="white"/>
<path fill-rule="evenodd" clip-rule="evenodd" d="M17.8378 5.27687C19.2944 7.14242 18.9622 9.83854 17.0967 11.2952C19.1156 11.9596 20.4956 13.8316 20.5211 15.9591V20.3994C20.5211 20.7188 20.2656 20.9744 19.9461 20.9744H14.49V22.0094C14.49 22.3288 14.2344 22.5844 13.915 22.5844H0.575C0.255556 22.5844 0 22.3288 0 22.0094V16.8983C0 14.3938 1.83361 12.2727 4.36361 11.5316C3.62889 11.0588 3.02833 10.4008 2.61306 9.63409C1.25861 7.12326 2.19778 3.9927 4.715 2.63826C7.23222 1.28381 10.3628 2.22298 11.7172 4.7402C12.4839 4.02465 13.4933 3.62854 14.5411 3.62854C15.8317 3.65409 17.0456 4.25465 17.8378 5.27687ZM17.7356 7.81326C17.6972 6.08187 16.2725 4.71465 14.5411 4.74659H14.5731C13.6722 4.75298 12.8225 5.16187 12.2539 5.86465V5.93492C12.2986 6.09465 12.3306 6.26076 12.3561 6.42687C12.3944 6.6952 12.3944 6.95715 12.3944 7.23187C12.3944 7.65354 12.3369 8.06881 12.2283 8.4777L12.226 8.48833L12.226 8.48836C12.223 8.5016 12.2213 8.50959 12.2193 8.51752C12.2162 8.52958 12.2126 8.5415 12.2035 8.57151L12.2035 8.57157L12.1836 8.63742C12.1744 8.66818 12.1652 8.70004 12.1558 8.73221L12.1558 8.73231L12.1558 8.73233C12.1264 8.83379 12.0962 8.93832 12.0622 9.02076C12.0175 9.12937 11.9728 9.23798 11.9217 9.34659L11.8897 9.43604C12.4583 10.4263 13.5253 11.0333 14.6689 11.0077C16.4003 10.9694 17.7675 9.54465 17.7356 7.81326ZM11.1231 11.9341C10.7908 11.7808 10.4522 11.653 10.1008 11.5571C10.5353 11.2696 10.925 10.9183 11.2508 10.5094C11.5 10.8352 11.8003 11.1163 12.1389 11.3527C11.7939 11.506 11.4744 11.7105 11.1869 11.9469L11.1231 11.9341ZM7.20667 3.20687C4.98972 3.21326 3.18806 5.01492 3.19444 7.23187C3.19444 9.35298 4.84917 11.1099 6.96389 11.2441H7.43667C9.07222 11.2441 10.5225 10.0046 11.0272 8.50965C11.1678 8.10076 11.2381 7.66631 11.2444 7.23187C11.2444 6.78465 11.1678 6.34381 11.0144 5.92215C10.4586 4.29298 8.92528 3.20687 7.20667 3.20687ZM13.34 21.4599H1.15V16.8983C1.15 15.9655 1.495 15.0583 2.08278 14.3363C2.7025 13.576 3.55861 13.0266 4.49139 12.7199C5.06 12.5346 5.66056 12.458 6.25472 12.4324C6.32753 12.4294 6.40062 12.4262 6.47391 12.423H6.47392C7.01797 12.399 7.57337 12.3746 8.11389 12.4196C8.43333 12.4452 8.75278 12.5091 9.06583 12.573C9.39806 12.6433 9.72389 12.7263 10.0433 12.8221C10.1449 12.8506 10.2439 12.8842 10.3436 12.918L10.3436 12.918L10.3436 12.918C10.4007 12.9374 10.458 12.9569 10.5161 12.9755C10.9761 13.1352 11.385 13.3716 11.7747 13.6655C11.9477 13.7975 12.0882 13.9457 12.231 14.0963C12.2886 14.1571 12.3466 14.2182 12.4072 14.2788C12.5797 14.4513 12.7139 14.7069 12.8161 14.9241C12.9698 15.2373 13.0469 15.5779 13.1233 15.9154L13.1419 15.9974C13.2825 16.6299 13.3464 17.2688 13.3464 17.9205V19.2238V21.4216V21.4855L13.34 21.4599ZM14.49 19.8244H19.3711V15.9591C19.3136 13.8124 17.5311 12.113 15.3844 12.1577H13.9661C13.3783 12.1258 12.8033 12.2727 12.2986 12.573C12.5733 12.7583 12.8289 12.9819 13.0525 13.2246L13.0844 13.263C13.2122 13.4035 13.3336 13.5569 13.4486 13.7102C13.469 13.7428 13.492 13.7729 13.5143 13.8019C13.5269 13.8184 13.5393 13.8346 13.5508 13.8508C14.1003 14.6877 14.4261 15.6588 14.49 16.6619V16.8408V16.8983V19.8244Z" fill="white"/>
</svg>
