<svg width="20" height="21" viewBox="0 0 20 21" fill="none" xmlns="http://www.w3.org/2000/svg">
<path d="M18.2963 14.0257C18.0125 13.8698 17.6561 13.9734 17.5002 14.2572C17.3443 14.541 17.448 14.8974 17.7317 15.0533C18.4297 15.4371 18.8305 15.8617 18.8305 16.2195C18.8305 16.6574 18.2104 17.3354 16.4699 17.9236C14.3741 18.5625 12.1909 18.8683 10.0002 18.8298C7.80951 18.8683 5.62634 18.5625 3.53049 17.9236C1.79007 17.3309 1.16992 16.6537 1.16992 16.2195C1.16992 15.8617 1.57001 15.4364 2.2687 15.0533C2.55248 14.8974 2.65615 14.541 2.50024 14.2572C2.34433 13.9734 1.9879 13.8698 1.70412 14.0257C0.925411 14.4532 0 15.1808 0 16.2195C0 17.0153 0.547541 18.1504 3.15559 19.035C5.37145 19.715 7.68046 20.0423 9.998 20.0049C12.3169 20.0432 14.6275 19.7164 16.8449 19.0365C19.4529 18.1474 20.0004 17.0153 20.0004 16.221C20.0004 15.1808 19.0728 14.4532 18.2963 14.0257Z" fill="#00B97C"/>
<path d="M5.57336 17.0798C8.48229 17.7748 11.514 17.7748 14.4229 17.0798C15.8788 16.6686 16.6168 16.0736 16.6168 15.3112C16.6168 14.5488 15.8759 13.9531 14.4229 13.5419C14.0999 13.4507 13.7487 13.3707 13.3745 13.3026C13.1715 13.6533 12.9589 14.0141 12.7366 14.3851C13.15 14.4473 13.5383 14.5229 13.891 14.6133C14.4616 14.6925 14.9973 14.9348 15.4335 15.3112C14.9973 15.6875 14.4616 15.9298 13.891 16.0092C12.6804 16.2899 11.4416 16.4304 10.1989 16.4278C10.1323 16.433 10.0656 16.4352 9.99815 16.4352C9.93072 16.4352 9.8633 16.4352 9.79662 16.4278C8.55396 16.4304 7.31512 16.29 6.10461 16.0092C5.53369 15.9299 4.99779 15.6876 4.56127 15.3112C4.99774 14.9347 5.53367 14.6924 6.10461 14.6133C6.45728 14.5236 6.84553 14.4473 7.25896 14.3851C7.03668 14.0141 6.82404 13.6533 6.62103 13.3026C6.25057 13.3707 5.89567 13.4507 5.57262 13.5419C4.11671 13.9531 3.37875 14.5481 3.37875 15.3112C3.37875 16.0744 4.11745 16.6708 5.57336 17.0798Z" fill="#00B97C"/>
<path fill-rule="evenodd" clip-rule="evenodd" d="M8.73022 14.5517C8.99854 14.995 9.47977 15.265 9.99794 15.263C10.5161 15.265 10.9973 14.995 11.2657 14.5517C13.1728 11.4317 15.4459 7.31956 15.4459 5.448C15.4459 2.43915 13.0068 0 9.99794 0C6.98909 0 4.54994 2.43915 4.54994 5.448C4.54994 7.31956 6.82309 11.4317 8.73022 14.5517ZM7.97175 4.23604C8.3112 3.41652 9.1109 2.88219 9.99794 2.88219C11.2087 2.88341 12.1898 3.86459 12.1911 5.07531C12.1911 5.96235 11.6567 6.76204 10.8372 7.1015C10.0177 7.44095 9.07439 7.25332 8.44716 6.62609C7.81993 5.99886 7.6323 5.05556 7.97175 4.23604Z" fill="#00B97C"/>
</svg>
