<svg width="16" height="16" viewBox="0 0 16 16" fill="none" xmlns="http://www.w3.org/2000/svg">
<path fill-rule="evenodd" clip-rule="evenodd" d="M3.77168 7.18286C3.6623 7.29274 3.57577 7.4232 3.51709 7.5667C3.45842 7.71021 3.42875 7.86392 3.42982 8.01895C3.43088 8.17399 3.46265 8.32728 3.52328 8.46997C3.58392 8.61266 3.67223 8.74192 3.7831 8.85029L10.5477 15.6354C10.6562 15.7502 10.787 15.8417 10.932 15.9043C11.0769 15.967 11.2332 15.9995 11.3911 16C11.6214 15.999 11.8463 15.9303 12.0379 15.8025C12.2294 15.6747 12.3792 15.4934 12.4686 15.2811C12.558 15.0689 12.583 14.8351 12.5406 14.6087C12.4982 14.3824 12.3901 14.1735 12.23 14.008L12.2345 14.0046L6.3031 8.032L12.2288 2.016L12.2242 2.01143C12.3902 1.84777 12.5038 1.63844 12.5504 1.41007C12.5971 1.1817 12.5748 0.94461 12.4863 0.72896C12.3978 0.51331 12.2472 0.328848 12.0536 0.199041C11.86 0.0692342 11.6322 -5.08611e-05 11.3991 2.8013e-08C11.0585 2.8013e-08 10.758 0.148571 10.5442 0.380571L3.7671 7.18057L3.77168 7.18286Z" fill="#D9D9D9"/>
</svg>
