<svg width="30" height="30" viewBox="0 0 30 30" fill="none" xmlns="http://www.w3.org/2000/svg">
<g clip-path="url(#clip0_52_53974)">
<path d="M5.4375 2.15603C5.4375 2.15603 10.4062 1.40603 11.4375 2.62478C12.4688 3.84353 13.3125 12.3748 21.0938 16.031L25.875 18.3748C26.4375 18.5623 33.6562 23.3435 27.8438 25.781C25.875 26.6248 15.5625 22.781 12.2813 19.406C9 16.031 3.1875 4.78103 3.1875 4.78103C3.1875 4.78103 2.4375 3.28103 3.375 2.71853C4.3125 2.15603 5.4375 2.15603 5.4375 2.15603ZM1.3125 8.53103L0.1875 8.71853C0.1875 8.71853 1.875 13.5935 1.875 16.2185L1.78125 25.031L3.9375 25.406L4.125 12.656L1.3125 8.53103Z" fill="#750F0F"/>
<path d="M22.7812 21.9375L24.4688 20.8125C24.4688 20.8125 26.625 22.5938 27.8438 24.0938C28.4062 24.75 28.3125 25.6875 27.4687 26.25L26.25 27.0938C26.25 27.0938 23.3438 28.875 17.9062 28.875C16.5 28.875 15.2813 28.7812 14.1563 28.5C11.5313 28.0312 9.46875 26.25 9 24.1875C8.15625 20.4375 6.28125 13.875 2.90625 11.8125C2.90625 11.8125 1.125 11.1562 1.125 9.28125C1.125 7.40625 1.5 5.8125 4.21875 4.875C4.21875 4.875 4.96875 8.15625 7.78125 10.9688C10.5938 13.7812 22.7812 21.9375 22.7812 21.9375Z" fill="#750F0F"/>
<path d="M21.5625 22.125L23.25 21C23.25 21 25.4062 22.7812 26.625 24.2812C27.1875 24.9375 27.0938 25.875 26.25 26.4375L25.0313 27.1875C25.0313 27.1875 22.125 28.9688 16.6875 28.9688C15.2812 28.9688 14.0625 28.875 12.9375 28.5938C10.3125 28.125 8.25 26.3438 7.78125 24.2812C6.9375 20.5312 5.0625 13.9688 1.6875 11.9062C1.6875 11.9062 -0.09375 9.28125 -0.09375 7.40625C-0.09375 5.53125 0.5625 3.75 3.1875 2.8125C3.1875 2.8125 3.75 8.15625 6.5625 10.9688C9.375 13.7812 21.5625 22.125 21.5625 22.125Z" fill="#750F0F"/>
<path d="M2.4375 7.5L1.21875 8.25C1.21875 8.25 2.90625 12.5625 2.90625 15.2812L2.8125 24.0938L5.0625 24.375L5.25 11.625L2.4375 7.5Z" fill="#C22123"/>
<path d="M3.46875 7.78125L1.78125 6.5625C1.78125 6.5625 4.03125 12.8438 4.03125 15.4688L3.9375 24.1875L6.09375 24.4688L6.28125 11.9062L3.46875 7.78125Z" fill="#750F0F"/>
<path d="M22.7812 20.25L24.4688 19.125C24.4688 19.125 26.625 20.9062 27.8438 22.4062C28.4062 23.0625 28.3125 24 27.4687 24.5625L26.25 25.4062C26.25 25.4062 23.3438 27.1875 17.9062 27.1875C16.5 27.1875 15.2813 27.0938 14.1563 26.8125C11.5313 26.3438 9.46875 24.5625 9 22.5C8.15625 18.75 6.28125 12.1875 2.90625 10.125C2.90625 10.125 1.125 9.46875 1.125 7.59375C1.125 5.71875 1.5 4.125 4.21875 3.1875C4.21875 3.1875 4.96875 6.46875 7.78125 9.28125C10.5938 12.0938 22.7812 20.25 22.7812 20.25Z" fill="#C22123"/>
<path d="M5.53092 2.81228C5.53092 2.81228 10.1247 2.06228 11.0622 3.28103C11.9997 4.49978 12.8434 13.031 19.9684 16.6873L24.2809 19.031C24.8434 19.2185 28.6872 22.781 26.7184 23.3435C24.7497 23.906 14.7184 23.531 11.7184 20.156C8.71842 16.781 3.46842 5.43728 3.46842 5.43728C3.46842 5.43728 2.81217 3.93728 3.74967 3.37478C4.68717 2.81228 5.53092 2.81228 5.53092 2.81228Z" fill="#FF4F47"/>
<path d="M5.4375 7.31164C5.4375 7.31164 4.3125 4.49914 5.25 3.93664C6.1875 3.37414 10.0312 3.28039 10.6875 4.78039C11.3437 6.28039 14.25 14.1554 17.4375 16.1241C19.2188 17.2491 20.3438 18.2804 20.8125 18.5616C21 18.6554 21 18.8429 20.8125 18.9366C20.25 19.2179 19.0312 19.6866 17.8125 19.6866C16.0312 19.7804 14.7187 20.1554 12.4687 17.3429C10.2187 14.5304 5.4375 7.31164 5.4375 7.31164ZM2.8125 23.9991L6.1875 24.1866L6 25.5929L2.71875 25.2179L2.8125 23.9991Z" fill="#750F0F"/>
<path d="M17.0625 20.8125C17.0625 20.8125 20.5312 21.0937 21.75 20.9062C22.9688 20.8125 26.8125 22.3125 24.75 22.6875C22.6875 23.0625 19.5938 22.5938 17.0625 20.8125Z" fill="#FF6666"/>
<path d="M13.6876 23.3434C15.0938 23.9997 17.2501 25.0309 19.5938 25.3122C20.0626 25.4059 20.0626 25.8747 19.5938 25.9684C18.8438 26.0622 18.0001 26.1559 17.1563 26.0622C15.4688 25.8747 14.1563 25.0309 13.1251 23.8122C12.9376 23.5309 13.3126 23.1559 13.6876 23.3434Z" fill="#FF4F47"/>
</g>
<defs>
<clipPath id="clip0_52_53974">
<rect width="30" height="30" fill="white"/>
</clipPath>
</defs>
</svg>
