<svg width="180" height="40" viewBox="0 0 180 40" fill="none" xmlns="http://www.w3.org/2000/svg">
<g clip-path="url(#clip0_52_123436)">
<mask id="mask0_52_123436" style="mask-type:luminance" maskUnits="userSpaceOnUse" x="46" y="27" width="134" height="13">
<path d="M179.993 27.793H46.3262V39.7039H179.993V27.793Z" fill="white"/>
</mask>
<g mask="url(#mask0_52_123436)">
<path d="M47.6504 38.3808H49.1062V34.5428H53.0765V33.1532H49.1062V30.5063H54.1352V29.1167H47.6504V38.3808ZM61.4733 38.5131C64.2525 38.5131 66.37 36.3956 66.37 33.7488C66.37 31.1019 64.2525 28.9844 61.4733 28.9844C58.6941 28.9844 56.5766 31.1019 56.5766 33.7488C56.5766 36.3956 58.6941 38.5131 61.4733 38.5131ZM61.4733 37.1897C59.5543 37.1897 58.0324 35.6677 58.0324 33.7488C58.0324 31.8298 59.5543 30.3078 61.4733 30.3078C63.3923 30.3078 64.9142 31.8298 64.9142 33.7488C64.9142 35.6677 63.3923 37.1897 61.4733 37.1897ZM69.9249 38.3808H71.3807V34.9398H73.5644L75.4833 38.3808H77.1376L75.0334 34.6752C75.0334 34.6752 76.8068 34.0796 76.8068 32.0283C76.8068 30.374 75.5495 29.1167 73.7629 29.1167H69.9249V38.3808ZM71.3807 33.6164V30.4402H73.7629C74.6893 30.4402 75.351 31.1019 75.351 32.0283C75.351 32.9547 74.6893 33.6164 73.7629 33.6164H71.3807ZM84.8584 38.3808H86.3142V31.5651L89.689 35.8663L93.0638 31.5651V38.3808H94.5195V29.1167H93.1961L89.689 33.6164L86.1819 29.1167H84.8584V38.3808ZM98.671 38.3808H105.354V36.9912H100.127V34.2781H104.163V32.8885H100.127V30.5063H105.222V29.1167H98.671V38.3808ZM108.787 38.3808H110.243V34.9398H112.427L114.346 38.3808H116L113.896 34.6752C113.896 34.6752 115.669 34.0796 115.669 32.0283C115.669 30.374 114.412 29.1167 112.625 29.1167H108.787V38.3808ZM110.243 33.6164V30.4402H112.625C113.552 30.4402 114.213 31.1019 114.213 32.0283C114.213 32.9547 113.552 33.6164 112.625 33.6164H110.243ZM123.735 38.5131C126.249 38.5131 127.573 36.6603 127.573 36.6603L126.646 35.7339C126.646 35.7339 125.654 37.1897 123.735 37.1897C121.816 37.1897 120.294 35.6677 120.294 33.7488C120.294 31.8298 121.816 30.3078 123.735 30.3078C125.654 30.3078 126.58 31.6974 126.58 31.6974L127.506 30.771C127.506 30.771 126.249 28.9844 123.735 28.9844C120.955 28.9844 118.838 31.1019 118.838 33.7488C118.838 36.3956 120.955 38.5131 123.735 38.5131ZM130.803 38.3808H132.259V34.3443H136.825V38.3808H138.281V29.1167H136.825V33.0209H132.259V29.1167H130.803V38.3808ZM141.24 38.3808H142.762L143.688 35.9986H147.791L148.717 38.3808H150.239L146.534 29.1167H144.946L141.24 38.3808ZM144.218 34.6752L145.74 30.8372L147.262 34.6752H144.218ZM153.206 38.3808H154.662V31.5651L159.757 38.3808H161.081V29.1167H159.625V35.9324L154.53 29.1167H153.206V38.3808ZM166.957 38.3808H168.413V30.5063H171.192V29.1167H164.178V30.5063H166.957V38.3808ZM176.675 38.5131C178.726 38.5131 179.984 37.2559 179.984 35.8001C179.984 32.3591 175.087 33.6164 175.087 31.5651C175.087 30.9034 175.682 30.3078 176.807 30.3078C178.065 30.3078 178.726 31.168 178.726 31.168L179.719 30.1755C179.719 30.1755 178.726 28.9844 176.807 28.9844C174.822 28.9844 173.631 30.1755 173.631 31.5651C173.631 35.006 178.528 33.7487 178.528 35.8001C178.528 36.528 177.866 37.1897 176.675 37.1897C175.087 37.1897 174.359 36.1309 174.359 36.1309L173.366 37.1235C173.366 37.1235 174.425 38.5131 176.675 38.5131Z" fill="white"/>
</g>
<mask id="mask1_52_123436" style="mask-type:luminance" maskUnits="userSpaceOnUse" x="47" y="2" width="133" height="17">
<path d="M179.994 2.64648H47.6504V18.5277H179.994V2.64648Z" fill="white"/>
</mask>
<g mask="url(#mask1_52_123436)">
<path d="M50.8138 5.84773V14.8968H53.1313C55.5959 14.86 57.5823 12.8369 57.5455 10.3722C57.6191 7.94445 55.7062 5.9213 53.2784 5.84773C53.2417 5.84773 53.1681 5.84773 53.1313 5.84773H50.8138ZM53.1313 2.97852C57.4351 2.97852 60.7089 6.25236 60.7089 10.3722C60.7089 14.4921 57.4351 17.7661 53.1313 17.7661H48.0182C47.7976 17.7661 47.6504 17.6189 47.6504 17.3981V3.38316C47.6504 3.16245 47.7976 3.01531 48.0182 3.01531L53.1313 2.97852Z" fill="white"/>
<path d="M71.8922 15.2292C74.5774 15.2292 76.7477 13.0588 76.7477 10.3736C76.7477 7.68827 74.5774 5.51797 71.8922 5.51797C69.2068 5.51797 67.0365 7.68827 67.0365 10.3736C67.0365 13.0588 69.2068 15.2292 71.8922 15.2292ZM71.8922 2.68555C76.4166 2.68555 79.9111 6.1801 79.9111 10.3736C79.9111 14.5671 76.4166 18.0616 71.8922 18.0616C67.3676 18.0616 63.873 14.5671 63.873 10.3736C63.873 6.1801 67.3676 2.68555 71.8922 2.68555Z" fill="white"/>
<path d="M90.9467 15.2292C93.6321 15.2292 95.8024 13.0588 95.8024 10.3736C95.8024 7.68827 93.6321 5.51797 90.9467 5.51797C88.2615 5.51797 86.0911 7.68827 86.0911 10.3736C86.0911 13.0588 88.2615 15.2292 90.9467 15.2292ZM90.9467 2.68555C95.4713 2.68555 98.9658 6.1801 98.9658 10.3736C98.9658 14.5671 95.4713 18.0616 90.9467 18.0616C86.4223 18.0616 82.9277 14.5671 82.9277 10.3736C82.9277 6.1801 86.3855 2.68555 90.9467 2.68555Z" fill="white"/>
<path d="M109.558 5.84805H106.285V9.74722H109.558C110.625 9.78401 111.508 8.97475 111.545 7.90799C111.545 7.87121 111.545 7.87121 111.545 7.83442C111.581 6.76768 110.736 5.88484 109.669 5.84805C109.632 5.84805 109.595 5.84805 109.558 5.84805ZM103.121 3.38347C103.121 3.16276 103.268 3.01562 103.489 3.01562H109.632C112.575 3.01562 114.708 5.14914 114.708 7.87121C114.745 9.71045 113.715 11.3658 112.06 12.175L114.892 17.1778C115.003 17.3616 114.966 17.5824 114.782 17.6927C114.708 17.7295 114.635 17.7663 114.561 17.7663H112.06C111.913 17.7663 111.802 17.6927 111.729 17.5824L109.007 12.6164H106.285V17.3984C106.285 17.6192 106.137 17.7663 105.917 17.7663H103.526C103.305 17.7663 103.158 17.6192 103.158 17.3984L103.121 3.38347Z" fill="white"/>
<path d="M122.949 5.88516V14.9342H125.266C127.731 14.8974 129.717 12.8743 129.68 10.4097C129.754 7.98189 127.841 5.95873 125.413 5.88516C125.376 5.88516 125.303 5.88516 125.266 5.88516H122.949ZM125.266 3.05273C129.57 3.05273 132.844 6.32657 132.844 10.4465C132.844 14.5664 129.57 17.8402 125.266 17.8402H120.153C119.932 17.8402 119.785 17.6931 119.785 17.4723V3.45738C119.785 3.23667 119.932 3.08953 120.153 3.08953L125.266 3.05273Z" fill="white"/>
<path d="M142.482 6.65698L140.68 11.5125H144.248L142.482 6.65698ZM139.65 14.2347L138.472 17.4717C138.436 17.6189 138.288 17.7293 138.104 17.7293H135.567C135.383 17.7661 135.199 17.6189 135.162 17.3981C135.162 17.3246 135.162 17.251 135.199 17.2142L140.717 3.23602C140.754 3.08888 140.938 2.97852 141.084 2.97852H143.917C144.064 2.97852 144.248 3.05209 144.285 3.23602L149.802 17.2142C149.876 17.3981 149.802 17.6189 149.618 17.6925C149.545 17.7293 149.508 17.7293 149.434 17.7293H146.896C146.749 17.7293 146.565 17.6189 146.528 17.4717L145.351 14.2347H139.65Z" fill="white"/>
<path d="M152.745 6.95182C152.745 4.63439 154.731 2.64802 157.894 2.64802C159.587 2.61124 161.241 3.23658 162.492 4.41368C162.64 4.56082 162.64 4.81832 162.492 4.96546L161.057 6.40006C160.91 6.5472 160.689 6.5472 160.542 6.43685C159.881 5.81151 158.998 5.48044 158.078 5.48044C156.828 5.48044 155.871 6.21614 155.871 7.06219C155.871 9.82104 163.339 8.23929 163.339 13.4996C163.339 16.1481 161.352 18.1344 157.747 18.1344C155.761 18.1712 153.849 17.3987 152.414 16.0009C152.266 15.8537 152.266 15.633 152.414 15.4859L153.774 14.1249C153.921 13.9778 154.142 13.9778 154.289 14.1249C155.172 14.9709 156.313 15.4124 157.526 15.4492C159.108 15.4492 160.137 14.6031 160.137 13.5363C160.212 10.7038 152.745 12.2856 152.745 6.95182Z" fill="white"/>
<path d="M176.949 3.34637V8.86407H170.621V3.34637C170.621 3.16245 170.475 2.97852 170.291 2.97852C170.291 2.97852 170.291 2.97852 170.254 2.97852H167.862C167.642 2.97852 167.494 3.12566 167.494 3.34637C167.494 3.34637 167.494 3.34636 167.494 3.38316V17.3613C167.494 17.5453 167.642 17.7293 167.826 17.7293C167.826 17.7293 167.826 17.7293 167.862 17.7293H170.254C170.475 17.7293 170.621 17.5821 170.621 17.3613C170.621 17.3613 170.621 17.3613 170.621 17.3246V11.7333H176.949V17.3246C176.949 17.5085 177.096 17.6925 177.28 17.6925H177.317H179.707C179.891 17.6925 180.075 17.5453 180.075 17.3613V17.3246V3.34637C180.075 3.16245 179.928 2.97852 179.744 2.97852H179.707H177.317C177.133 2.97852 176.949 3.12566 176.949 3.30959C176.949 3.34637 176.949 3.34637 176.949 3.34637Z" fill="white"/>
</g>
<path d="M35.643 4.98454C33.9995 1.91137 30.7869 0 27.3127 0H0.902393C0.416771 0 0.00585938 0.412252 0.00585938 0.936945C0.00585938 1.16181 0.117926 1.38668 0.267349 1.57407L6.0201 7.38313C6.54309 7.9078 7.2155 8.17016 7.92524 8.17016H26.5283C27.8358 8.17016 28.9565 9.21953 28.9565 10.5687C28.9565 11.9179 27.9104 13.0048 26.5657 13.0048H13.7527C13.2671 13.0048 12.8562 13.417 12.8562 13.9418C12.8562 14.1666 12.9683 14.3915 13.1177 14.5789L18.8704 20.388C19.3934 20.9126 20.0659 21.175 20.7756 21.175H26.5657C34.149 21.1375 39.827 13.0423 35.643 4.98454Z" fill="white"/>
</g>
<defs>
<clipPath id="clip0_52_123436">
<rect width="179.988" height="39.7031" fill="white" transform="translate(0.00585938)"/>
</clipPath>
</defs>
</svg>
