<svg width="30" height="30" viewBox="0 0 30 30" fill="none" xmlns="http://www.w3.org/2000/svg">
<g clip-path="url(#clip0_52_64970)">
<path d="M19.9687 19.5937C21.6562 20.1562 23.25 21.5625 23.7187 23.5312C24.2812 25.5938 23.5312 27.9375 21.9375 29.1562C20.9062 29.9062 19.6875 30.0937 18.4688 30.0937C15.5625 30.0937 12.75 29.1562 9.84375 28.125C8.90625 27.8437 7.875 27.4688 7.03125 26.8125C6.1875 26.1562 5.53125 25.2188 5.34375 24.0938C5.34375 22.5 6.28125 21 7.5 20.1562C9.5625 18.8438 11.8125 18.2812 13.9687 18.2812C15.8437 18.2812 18.1875 18.9375 19.9687 19.5937Z" fill="#1D282C"/>
<path d="M19.9693 18.375C21.6568 18.9375 23.2505 20.3437 23.7193 22.3125C24.2818 24.375 23.5318 26.7187 21.938 27.9375C20.9068 28.6875 19.688 28.875 18.4693 28.875C15.563 28.875 12.7505 27.9375 9.84426 26.9062C8.90676 26.625 7.87551 26.25 7.03176 25.5937C6.18801 24.9375 5.53176 24 5.34426 22.875C5.15676 21.2812 6.09426 19.7812 7.31301 18.9375C9.37551 17.625 11.6255 17.0625 13.7818 17.0625C15.8443 17.0625 18.188 17.7187 19.9693 18.375Z" fill="#3B3B3B"/>
<path d="M16.875 19.2188C16.875 19.2188 13.5 20.625 10.9688 24.5625C10.9688 24.5625 10.0313 21.1875 10.5938 18.75C10.6875 18.75 14.1563 20.25 16.875 19.2188Z" fill="#E5A98C"/>
<path d="M8.62494 17.5303C8.62494 17.5303 8.24994 18.5616 5.99994 18.5616C5.99994 18.5616 2.15619 11.7178 8.90619 7.03035L8.62494 17.5303ZM17.6249 6.65535C17.6249 6.65535 20.8124 12.1866 18.3749 20.5303C18.3749 20.5303 21.8437 20.5303 24.1874 17.7178C25.6874 15.9366 24.5624 11.2491 23.6249 8.15535C23.0624 6.28035 21.2812 5.53035 19.4062 6.09285L17.6249 6.65535Z" fill="#8F8A78"/>
<path d="M8.71935 16.875C8.71935 16.875 8.34435 17.8125 6.28185 17.8125C6.28185 17.8125 2.6256 11.4375 9.0006 7.03125L8.71935 16.875Z" fill="#F4EACD"/>
<path d="M7.78125 6.09391C7.78125 6.09391 8.25 8.15641 10.9687 8.34391C13.6875 8.53141 23.1563 7.12516 23.1563 7.12516C23.1563 7.12516 20.7187 2.43766 14.9062 2.15641C10.5 1.87516 8.15625 5.43766 7.78125 6.09391Z" fill="#8F8A78"/>
<path d="M19.4063 6.5616L20.3438 10.6866C20.3438 10.6866 15.0938 12.4678 7.03125 8.71785C7.03125 8.71785 7.03125 5.9991 9.5625 4.21785C12.0938 2.4366 19.4063 6.5616 19.4063 6.5616Z" fill="#6A8189"/>
<path d="M22.7548 12.4511C22.7715 7.84297 19.0495 4.09381 14.4413 4.07711C9.8332 4.06041 6.08404 7.7825 6.06734 12.3906C6.05065 16.9988 9.77273 20.7479 14.3809 20.7646C18.989 20.7813 22.7381 17.0592 22.7548 12.4511Z" fill="#A67A65"/>
<path d="M22.3984 11.826C22.4145 7.37321 18.8179 3.75043 14.3651 3.73429C9.91227 3.71816 6.28949 7.31478 6.27336 11.7676C6.25722 16.2204 9.85384 19.8432 14.3066 19.8593C18.7594 19.8754 22.3822 16.2788 22.3984 11.826Z" fill="#E5A98C"/>
<path d="M22.3153 11.5719C22.3309 7.27446 18.9856 3.77851 14.8435 3.7635C10.7014 3.7485 7.33088 7.22011 7.3153 11.5176C7.29973 15.815 10.645 19.311 14.7871 19.326C18.9292 19.341 22.2997 15.8694 22.3153 11.5719Z" fill="#E8CCAA"/>
<path d="M18.2294 12.7081C18.2406 9.60145 15.7733 7.07408 12.7185 7.06301C9.66367 7.05194 7.17812 9.56137 7.16687 12.668C7.15561 15.7746 9.62291 18.3019 12.6777 18.313C15.7326 18.3241 18.2181 15.8147 18.2294 12.7081Z" fill="#FAEACF"/>
<path d="M7.875 6.09278C7.875 6.09278 8.34375 7.96778 10.9688 8.15528C13.5938 8.34278 22.5 7.03028 22.5 7.03028C22.5 7.03028 20.25 2.62403 14.7188 2.34278C10.5 2.06153 8.25 5.43653 7.875 6.09278Z" fill="#F4EACD"/>
<path d="M15.3409 13.2925C15.3426 12.8266 15.0082 12.4476 14.594 12.4461C14.1798 12.4446 13.8426 12.8211 13.8409 13.2871C13.8393 13.7531 14.1737 14.1321 14.5879 14.1336C15.0021 14.1351 15.3393 13.7585 15.3409 13.2925Z" fill="#3C505B"/>
<path d="M14.8308 13.0014C14.8311 12.8978 14.7475 12.8136 14.6439 12.8132C14.5404 12.8128 14.4561 12.8964 14.4558 13C14.4554 13.1036 14.539 13.1878 14.6426 13.1882C14.7461 13.1886 14.8304 13.1049 14.8308 13.0014Z" fill="white"/>
<path d="M9.33314 11.4078C9.33482 10.9418 9.00041 10.5628 8.58619 10.5613C8.17198 10.5598 7.83482 10.9364 7.83314 11.4023C7.83145 11.8683 8.16586 12.2473 8.58008 12.2488C8.99429 12.2503 9.33145 11.8738 9.33314 11.4078Z" fill="#3C505B"/>
<path d="M8.82294 11.1166C8.82332 11.013 8.73968 10.9288 8.63612 10.9284C8.53257 10.928 8.44832 11.0117 8.44795 11.1152C8.44757 11.2188 8.53121 11.303 8.63477 11.3034C8.73832 11.3038 8.82257 11.2201 8.82294 11.1166Z" fill="white"/>
<path d="M19.7812 13.0319C19.7812 13.0319 20.4375 12.4694 21 12.7506C21.5625 12.9381 21.4687 14.7194 20.0625 14.9069L19.7812 13.0319Z" fill="#FAEACF"/>
<path d="M17.25 6.5625C17.25 6.5625 20.25 11.8125 18 19.7813C18 19.7813 21.2813 19.7813 23.5313 17.0625C24.9375 15.375 23.9063 10.875 22.9688 7.96875C22.4063 6.1875 20.8125 5.53125 18.9375 6L17.25 6.5625Z" fill="#F4EACD"/>
<path d="M18.8438 6.46924L19.7813 10.4067C19.7813 10.4067 14.4375 12.3755 6.75 8.71924C6.75 8.71924 7.125 5.90674 9.5625 4.21924C12 2.53174 18.8438 6.46924 18.8438 6.46924Z" fill="#F4EACD"/>
<path d="M7.5 8.0625C7.5 8.0625 8.15625 7.125 9.09375 7.125C9.9375 7.125 13.5 9.5625 19.125 8.71875C19.125 8.71875 18 9.84375 16.6875 9.9375C15.2812 10.125 10.5 9.65625 7.5 8.0625ZM19.125 17.8125C19.125 17.8125 21.6562 17.1562 22.0312 16.0312C22.4062 14.8125 21.75 7.78125 21.75 7.78125C21.75 7.78125 23.1562 11.4375 23.0625 16.0312C23.0625 16.0312 21.5625 18.2812 19.0312 18.6562V17.8125H19.125Z" fill="white"/>
<path d="M12.0937 9.46787C11.1562 10.0304 9.84375 9.84287 9.1875 8.99912C9 8.71787 8.90625 8.43661 8.90625 8.24911C8.90625 7.59286 12.8437 5.99911 13.9687 6.93661C14.7187 7.59286 13.3125 8.71787 12.0937 9.46787Z" fill="#BF6922"/>
<path d="M20.1563 11.8125C22.8486 11.8125 25.0313 10.8051 25.0313 9.5625C25.0313 8.31986 22.8486 7.3125 20.1563 7.3125C17.4639 7.3125 15.2812 8.31986 15.2812 9.5625C15.2812 10.8051 17.4639 11.8125 20.1563 11.8125Z" fill="#CCCDD1"/>
<path d="M20.0625 11.25C22.7549 11.25 24.9375 10.2426 24.9375 9C24.9375 7.75736 22.7549 6.75 20.0625 6.75C17.3701 6.75 15.1875 7.75736 15.1875 9C15.1875 10.2426 17.3701 11.25 20.0625 11.25Z" fill="#1D282C"/>
<path d="M6.84361 8.25C6.84361 8.25 4.59361 9.9375 5.43736 11.1562C6.28111 12.375 9.28111 15.4687 17.5311 11.625L6.84361 8.25Z" fill="#3B3B3B"/>
<path d="M7.40625 5.71875L6.65625 9C6.65625 9 9.1875 13.2188 20.4375 11.9062L20.9062 10.6875L7.40625 5.71875Z" fill="#CCCDD1"/>
<path d="M7.59375 4.96875L6.84375 8.25C6.84375 8.25 9.375 12.4688 21 11.25C21.375 11.25 21.8438 10.875 22.0313 10.5L22.3125 9.84375L7.59375 4.96875Z" fill="#1D282C"/>
<path d="M6.84375 0.9375L5.8125 1.03125C5.8125 1.03125 6 5.71875 8.90625 7.21875C11.8125 8.71875 14.3438 9.46875 16.7812 9.75C19.2188 10.0312 22.5937 10.4062 24.6562 9.28125L6.84375 0.9375Z" fill="#3B3B3B"/>
<path d="M10.7808 3.65676C10.7808 3.65676 9.84328 2.25051 8.24953 1.96926C6.65577 1.68801 4.49952 1.03176 6.46827 0.281764C8.43702 -0.468236 12.7495 0.000514276 16.312 1.31301C19.8745 2.62551 22.2183 4.50051 23.9995 6.37551C25.7808 8.25051 24.7495 9.46926 23.9995 9.46926C23.2495 9.46926 21.2808 8.81301 17.7183 6.65676C14.1558 4.50051 10.7808 3.65676 10.7808 3.65676Z" fill="#3B3B3B"/>
<path d="M10.3422 9.42187C11.0015 9.28631 11.3585 8.31305 11.1395 7.24802C10.9205 6.183 10.2085 5.42953 9.54923 5.56509C8.88994 5.70065 8.53299 6.67392 8.75197 7.73894C8.97096 8.80396 9.68295 9.55743 10.3422 9.42187Z" fill="#CCCDD1"/>
<path d="M11.9066 3.46875C11.9066 3.46875 10.7816 2.8125 9.46906 2.53125C8.15656 2.25 6.28156 1.875 7.96906 1.3125C9.65656 0.75 13.3128 1.03125 16.3128 2.15625C19.3128 3.28125 21.1878 4.59375 22.6878 6.09375C24.1878 7.59375 24.0003 8.34375 23.4378 8.25C22.8753 8.25 20.4378 7.96875 17.5316 6.28125C14.6253 4.59375 11.9066 3.46875 11.9066 3.46875Z" fill="#898989"/>
<path d="M7.21875 9.75L7.40625 8.71875L6.84375 8.25L6.1875 9.375L7.21875 9.75ZM23.625 10.0312L23.25 11.3438C23.25 11.5313 23.25 11.7188 23.3437 11.8125C23.625 12.1875 24.0937 12.1875 24.375 11.8125C24.8437 11.1563 25.3125 9.9375 25.0312 8.34375L24 8.8125L23.625 10.0312Z" fill="#3B3B3B"/>
<path d="M18.1876 18.6562C18.1876 18.6562 18.0938 19.5938 18.7501 19.5938V20.5312C18.7501 20.5312 17.3438 20.625 17.6251 19.7813C17.8126 19.0313 18.1876 18.6562 18.1876 18.6562Z" fill="#8F8A78"/>
<path d="M17.0625 20.3438L16.9688 22.7812L14.7188 23.25L14.25 26.25L11.1562 26.8125C11.1562 26.7188 12.4688 21.4688 17.0625 20.3438ZM9.9375 19.0312L8.15625 20.7188L9.65625 21.4688L7.96875 22.875L10.5 24.6562C10.5 24.75 9.46875 20.3438 9.9375 19.0312Z" fill="#898989"/>
<path opacity="0.28" d="M22.0878 24.8315C22.6629 23.0585 22.1309 21.2975 20.8996 20.8982C19.6684 20.4988 18.2041 21.6124 17.6291 23.3854C17.054 25.1584 17.586 26.9194 18.8173 27.3187C20.0485 27.7181 21.5128 26.6045 22.0878 24.8315Z" fill="#898989"/>
<path d="M12.75 17.1562C12.75 17.1562 12 17.0625 11.4375 16.5938C10.875 16.2188 10.4063 16.2187 10.3125 16.2187C10.2188 16.2187 10.0313 16.0312 9.84375 15.9375C9.65625 15.9375 9.375 15.9375 9.375 16.0313C9.375 16.125 9.5625 16.5 9.5625 16.5V17.0625C9.5625 17.25 9.5625 17.8125 10.125 17.9063C10.6875 18 11.1563 18 11.3438 17.8125C11.7188 17.8125 12.75 17.1562 12.75 17.1562Z" fill="#ED949A"/>
</g>
<defs>
<clipPath id="clip0_52_64970">
<rect width="30" height="30" fill="white"/>
</clipPath>
</defs>
</svg>
