<svg width="47" height="26" viewBox="0 0 47 26" fill="none" xmlns="http://www.w3.org/2000/svg">
<path d="M38.4545 0H8.54545C3.82409 0 0 3.27384 0 7.31585V16.4607C0 20.5027 3.82409 23.7765 8.54545 23.7765H12.8182V25.6055H34.1818V23.7765H38.4545C43.1759 23.7765 47 20.5027 47 16.4607V7.31585C47 3.27384 43.1759 0 38.4545 0ZM42.7273 16.4607C42.7273 18.4725 40.8045 20.1186 38.4545 20.1186H8.54545C6.19545 20.1186 4.27273 18.4725 4.27273 16.4607V7.31585C4.27273 5.30399 6.19545 3.65792 8.54545 3.65792H38.4545C40.8045 3.65792 42.7273 5.30399 42.7273 7.31585V16.4607Z" fill="white"/>
</svg>
