<svg width="150" height="89" viewBox="0 0 150 89" fill="none" xmlns="http://www.w3.org/2000/svg">
<g clip-path="url(#clip0_52_33795)">
<path d="M149.996 0H0.00366211V88.8438H149.996V0Z" fill="#FEC800"/>
<path fill-rule="evenodd" clip-rule="evenodd" d="M11.1226 17.21L22.0755 28.7291V36.9487L11.1226 25.4393V17.21Z" fill="#12100D"/>
<path fill-rule="evenodd" clip-rule="evenodd" d="M11.1226 50.3135L22.0755 61.6276V69.8374L11.1226 58.5135V50.3135Z" fill="#12100D"/>
<path fill-rule="evenodd" clip-rule="evenodd" d="M11.1421 34.0889L22.095 45.4128V53.6519L11.1421 42.328V34.0889Z" fill="#12100D"/>
<path fill-rule="evenodd" clip-rule="evenodd" d="M11.1226 74.62V66.4199L20.4745 76.0745H12.538L11.1226 74.62Z" fill="#12100D"/>
<path fill-rule="evenodd" clip-rule="evenodd" d="M22.1147 12.7686V20.3536L14.7834 12.7686H22.1147Z" fill="#12100D"/>
<mask id="mask0_52_33795" style="mask-type:luminance" maskUnits="userSpaceOnUse" x="-1" y="-1" width="152" height="91">
<path d="M150.368 -0.371094H-0.367188V89.2146H150.368V-0.371094Z" fill="white"/>
</mask>
<g mask="url(#mask0_52_33795)">
<path fill-rule="evenodd" clip-rule="evenodd" d="M51.1858 65.0347L50.0925 68.2561L51.2541 68.6954C51.4155 68.3385 51.5947 67.9899 51.791 67.6509C51.9285 67.4505 52.089 67.267 52.2694 67.1042C52.4155 66.9551 52.5928 66.8401 52.7886 66.7675C52.9843 66.6949 53.1938 66.6666 53.4018 66.6844C53.4239 66.6912 53.4438 66.7038 53.4593 66.721C53.4748 66.7382 53.4853 66.7593 53.4896 66.7821C53.4943 66.8601 53.4943 66.9383 53.4896 67.0163C53.4896 68.8906 53.4896 70.7552 53.4896 72.6295C53.4896 72.8052 53.4896 72.9907 53.3042 73.1761C53.0268 73.2636 52.7344 73.2935 52.4451 73.264V74.5233H56.7501V73.225C56.4934 73.2447 56.2356 73.2447 55.9789 73.225C55.9106 73.225 55.8227 73.225 55.7642 73.059C55.7033 72.9108 55.6798 72.7499 55.6958 72.5904C55.6958 70.638 55.6958 68.754 55.6958 66.8309C55.708 66.7886 55.7319 66.7506 55.7647 66.7212C55.7975 66.6919 55.8379 66.6724 55.8813 66.6649C56.2808 66.6844 56.6578 66.8555 56.9356 67.1433C57.3596 67.5916 57.6913 68.119 57.9118 68.6954L59.0832 68.2561L58.0485 65.0347H57.2285L57.1211 65.3568H52.1132L52.0253 65.0347H51.1858ZM127.895 65.3568V66.6259C128.177 66.6019 128.46 66.6217 128.735 66.6844C128.798 66.7354 128.854 66.7945 128.901 66.8602C128.92 67.0419 128.92 67.2251 128.901 67.4068C128.901 69.2323 128.901 71.0578 128.901 72.8833C128.901 73.0102 128.735 73.2054 128.589 73.225C128.348 73.2492 128.106 73.2492 127.866 73.225V74.4843H135.5L136.652 71.0871L135.5 70.6771C135.395 71.0179 135.251 71.3454 135.07 71.6533C134.987 71.7944 134.893 71.9283 134.787 72.0535C134.618 72.2552 134.424 72.4355 134.211 72.5904C133.989 72.7396 133.745 72.8548 133.489 72.9321C132.801 73.064 132.098 73.1034 131.4 73.0492C131.312 73.0492 131.195 73.0492 131.127 72.8735C131.112 72.7536 131.112 72.6323 131.127 72.5123V70.3549C131.499 70.3244 131.874 70.3474 132.239 70.4233C132.323 70.4661 132.395 70.5284 132.449 70.6048C132.504 70.6813 132.539 70.7697 132.552 70.8626C132.567 71.1259 132.567 71.3899 132.552 71.6533H133.684V67.7485H132.552C132.573 68.0751 132.554 68.403 132.493 68.7247C132.45 68.8515 132.359 68.9565 132.239 69.0176C131.866 69.0843 131.486 69.1072 131.107 69.0859V66.7821H132.474C132.839 66.776 133.203 66.8187 133.557 66.909C133.776 66.9828 133.979 67.0989 134.153 67.2506C134.334 67.3951 134.492 67.5663 134.621 67.7583C134.805 68.0359 134.968 68.3262 135.11 68.6271L136.242 68.2171L135.266 65.2885L127.895 65.3568ZM111.3 65.3568V66.6259C111.579 66.5918 111.861 66.5918 112.14 66.6259C112.384 66.8113 112.345 67.0066 112.364 67.2018C112.364 69.0371 112.364 70.8723 112.364 72.7076C112.369 72.7838 112.359 72.8603 112.334 72.9324C112.309 73.0046 112.269 73.0709 112.218 73.1273C111.923 73.2276 111.609 73.2609 111.3 73.225V74.4843H115.625V73.225C115.378 73.2491 115.129 73.2491 114.883 73.225C114.831 73.2162 114.782 73.1969 114.739 73.1683C114.695 73.1398 114.658 73.1026 114.629 73.059C114.574 72.9434 114.551 72.8155 114.561 72.6881C114.561 70.8723 114.561 69.0664 114.561 67.2604C114.534 67.1682 114.534 67.0705 114.559 66.978C114.584 66.8855 114.634 66.8016 114.703 66.7353C114.773 66.6691 114.859 66.6229 114.952 66.6019C115.046 66.5809 115.143 66.5858 115.234 66.6161H115.634V65.347L111.3 65.3568ZM90.6632 65.3568V66.6259C90.9551 66.589 91.2515 66.6156 91.5321 66.704C91.7371 66.8406 91.7078 67.0359 91.7273 67.2116C91.7273 69.0176 91.7273 70.8333 91.7273 72.6392C91.7273 72.8052 91.7273 72.9711 91.5711 73.1469C91.3707 73.243 91.1482 73.2834 90.9268 73.264H90.6632V74.5233H98.2971L99.4685 71.1261L98.2971 70.7161C98.1575 71.1909 97.9289 71.6348 97.6235 72.0242C96.5595 73.264 95.4271 73.0004 94.3142 73.0004C94.2166 73.0004 94.119 73.0004 94.0116 72.9419C93.9792 72.9166 93.9533 72.8839 93.9363 72.8465C93.9193 72.8091 93.9117 72.7681 93.914 72.7271C93.914 71.9364 93.914 71.1359 93.914 70.3452C94.2831 70.3146 94.6546 70.3376 95.0171 70.4135C95.098 70.466 95.1656 70.5365 95.2148 70.6195C95.2639 70.7024 95.2931 70.7957 95.3002 70.8918C95.3294 71.1546 95.3294 71.4198 95.3002 71.6826H96.413V67.7778H95.3002C95.3322 68.1296 95.2958 68.4843 95.1928 68.8223C95.1468 68.8908 95.0862 68.9483 95.0153 68.9905C94.9444 69.0327 94.865 69.0586 94.7828 69.0664C94.4704 69.0664 94.1678 69.0664 93.8066 69.0664V66.7821C94.3826 66.7821 94.9683 66.7821 95.5442 66.7821C95.841 66.7814 96.1345 66.8438 96.4055 66.9649C96.6764 67.0861 96.9185 67.2633 97.1159 67.4849C97.401 67.8229 97.6286 68.2055 97.7895 68.6173L98.9414 68.2073L97.9652 65.2787L90.6632 65.3568ZM71.0514 65.3568V66.6259C71.3197 66.5821 71.5934 66.5821 71.8617 66.6259C71.9282 66.6661 71.9842 66.7216 72.025 66.7878C72.0657 66.854 72.0901 66.929 72.096 67.0066C72.106 67.1105 72.106 67.2151 72.096 67.319C72.096 69.0859 72.096 70.8528 72.096 72.6295C72.096 72.7661 72.096 72.9028 71.9495 73.059C71.8098 73.173 71.6315 73.2289 71.4517 73.2152H71.0319V74.4745H77.7872L78.9391 71.0773L77.7872 70.6673C77.6107 71.2184 77.3325 71.7317 76.9672 72.1804C76.6621 72.4979 76.2867 72.7392 75.8713 72.885C75.4559 73.0308 75.012 73.0771 74.5755 73.02C74.5209 73.017 74.4678 73.0013 74.4204 72.9742C74.3729 72.9471 74.3324 72.9093 74.3022 72.8638C74.3022 72.7369 74.3022 72.61 74.3022 72.4733C74.3022 70.6966 74.3022 68.9102 74.3022 67.1335C74.2936 67.0425 74.3069 66.9507 74.3408 66.8659C74.3748 66.781 74.4285 66.7054 74.4974 66.6454C74.5673 66.6004 74.6486 66.5767 74.7317 66.5771H75.3662V65.308L71.0514 65.3568ZM29.3678 65.3568V66.6259C29.6564 66.5875 29.9499 66.6142 30.2268 66.704C30.2618 66.7219 30.2928 66.7467 30.3179 66.7769C30.3431 66.8071 30.3619 66.8421 30.3733 66.8797C30.4244 67.0872 30.4474 67.3006 30.4416 67.5142C30.4416 68.8223 30.4416 70.1304 30.4416 71.419C30.3975 72.1144 30.594 72.8037 30.998 73.3714C31.1714 73.5907 31.3714 73.7874 31.5935 73.9571C31.8529 74.1529 32.1308 74.323 32.4233 74.4647C32.8962 74.6185 33.3903 74.6975 33.8876 74.699C34.3265 74.7025 34.7637 74.6433 35.1859 74.5233C35.3428 74.4716 35.496 74.4097 35.6447 74.3378C35.7855 74.2672 35.9224 74.1889 36.0547 74.1035C36.1817 74.0143 36.3024 73.9165 36.4159 73.8107C36.5275 73.7004 36.6319 73.583 36.7283 73.4592C37.2101 72.7644 37.4533 71.932 37.4214 71.0871C37.4214 69.8083 37.4214 68.5294 37.4214 67.2506C37.4214 67.1042 37.4214 66.9578 37.5288 66.8113C37.5972 66.7336 37.6903 66.6819 37.7924 66.6649C38.0232 66.6501 38.2547 66.6501 38.4855 66.6649V65.3959H34.8247V66.6649C35.1059 66.6407 35.3892 66.6604 35.6643 66.7235C35.7307 66.7623 35.7875 66.8157 35.8302 66.8797C35.8451 66.9898 35.8451 67.1015 35.8302 67.2116C35.8302 68.5392 35.8302 69.8766 35.8302 71.214C35.8227 71.5457 35.7668 71.8746 35.6643 72.1902C35.5591 72.4268 35.3943 72.632 35.1859 72.7857C34.9692 72.947 34.7174 73.055 34.4511 73.1008C34.1848 73.1466 33.9115 73.1289 33.6533 73.0492C33.394 72.9812 33.1621 72.8346 32.9895 72.6295C32.7316 72.2734 32.5855 71.8486 32.5697 71.4092C32.5697 71.2075 32.5697 71.0025 32.5697 70.7942V67.2702C32.5567 67.1619 32.5684 67.052 32.6039 66.9489C32.6394 66.8458 32.6978 66.752 32.7747 66.6747C32.9114 66.5988 33.0686 66.5681 33.2238 66.5868H33.6631V65.3178L29.3678 65.3568ZM138.8 76.095H27.7083V63.7266H138.78L138.8 76.095Z" fill="#12100D"/>
<path d="M138.878 12.7686H27.7083V16.7222H138.878V12.7686Z" fill="#12100D"/>
<path fill-rule="evenodd" clip-rule="evenodd" d="M101.831 22.3545H118.28V27.2355C117.499 27.2355 116.718 27.2355 115.937 27.2355C115.633 27.2617 115.334 27.3308 115.049 27.4405C114.854 27.5589 114.685 27.7148 114.551 27.8993C114.426 28.0914 114.343 28.3076 114.307 28.5338C114.23 29.1261 114.198 29.7232 114.209 30.3203V36.4313H126.48V29.8907C126.485 29.4207 126.455 28.9509 126.392 28.485C126.332 28.1661 126.187 27.8694 125.972 27.626C125.854 27.5141 125.71 27.4336 125.553 27.3917C125.233 27.3076 124.906 27.2585 124.576 27.2452C123.854 27.2452 123.122 27.2452 122.399 27.2452V22.3643H138.917V27.2452C138.106 27.2452 137.306 27.2452 136.486 27.2452C136.272 27.262 136.059 27.2979 135.851 27.3526C135.625 27.4225 135.424 27.5585 135.275 27.7431C135.101 27.9391 134.991 28.1848 134.963 28.446C134.884 29.0675 134.848 29.6938 134.856 30.3203V49.3268C134.848 49.9803 134.893 50.6333 134.992 51.2792C135.044 51.5692 135.18 51.8375 135.383 52.0504C135.626 52.2643 135.93 52.3974 136.252 52.4311C137.137 52.514 138.027 52.5434 138.917 52.519V57.4H122.36V52.519C123.093 52.519 123.825 52.519 124.567 52.4702L125.133 52.3921C125.446 52.3354 125.739 52.1974 125.982 51.9919C126.23 51.725 126.375 51.3792 126.392 51.0157C126.455 50.4517 126.485 49.8845 126.48 49.3171V41.898H114.209V49.3171C114.209 49.9614 114.209 50.5959 114.277 51.2695C114.301 51.4294 114.35 51.5844 114.424 51.7283C114.517 51.9065 114.647 52.0629 114.805 52.1871C115.055 52.3428 115.34 52.4334 115.634 52.4507H116.054C116.796 52.4507 117.538 52.4507 118.28 52.4507V57.3317H101.831V52.4507C102.58 52.4749 103.33 52.4554 104.076 52.3921L104.72 52.275C105.028 52.1927 105.301 52.0149 105.501 51.7673C105.687 51.4962 105.792 51.178 105.804 50.8497C105.848 50.4184 105.867 49.9849 105.863 49.5514V30.5838C105.876 29.9313 105.84 29.2786 105.755 28.6314C105.706 28.2186 105.504 27.8392 105.189 27.5674C105.103 27.4993 105.008 27.4434 104.906 27.4014C104.39 27.2474 103.852 27.1846 103.315 27.216H101.831V22.3545ZM75.62 27.9872C75.62 35.3672 75.62 42.757 75.62 50.1371C75.606 50.4667 75.6455 50.7964 75.7372 51.1133C75.8375 51.311 75.9982 51.4717 76.196 51.5721C76.3953 51.6517 76.6064 51.6978 76.8208 51.7088H77.2015C77.797 51.7088 78.3924 51.7088 78.9782 51.7088C79.5639 51.7088 80.1691 51.6209 80.7548 51.5623C81.1746 51.494 81.5846 51.4257 81.9946 51.328C82.4046 51.2304 82.7951 51.0938 83.1953 50.9571C83.5829 50.8114 83.9583 50.6351 84.318 50.4299C84.6586 50.2211 84.9847 49.9896 85.2942 49.7368C85.6144 49.4766 85.9146 49.1927 86.1923 48.8875C86.407 48.6435 86.6218 48.3994 86.817 48.1359C87.0123 47.8723 87.1782 47.599 87.3539 47.3256C87.6077 46.8668 87.8616 46.408 88.0763 45.9297C88.2782 45.4514 88.4541 44.9626 88.6035 44.4654C88.8071 43.7376 88.9637 42.9974 89.072 42.2494C89.1501 41.4001 89.238 40.5508 89.238 39.7015C89.2261 38.8532 89.1707 38.0061 89.072 37.1634C88.9939 36.6265 88.9158 36.0798 88.7889 35.5527C88.662 35.0255 88.4961 34.5082 88.3204 33.9908C88.1446 33.4734 87.9397 33.0146 87.7151 32.585C87.4906 32.1555 87.2075 31.6967 86.9342 31.2672C86.7793 31.0291 86.6098 30.8008 86.4265 30.5838C86.2508 30.3691 86.0556 30.1738 85.8506 29.9688C85.6258 29.7487 85.3843 29.5463 85.1282 29.3636C84.8734 29.1769 84.6022 29.0135 84.318 28.8755C84.0356 28.731 83.7417 28.6102 83.4394 28.5143C82.6805 28.2737 81.8986 28.1134 81.1063 28.036C80.501 27.9774 79.8958 27.9481 79.2905 27.9481L75.62 27.9872ZM63.3102 22.3545H80.9598C82.2882 22.3645 83.6149 22.4525 84.933 22.6181C85.5772 22.7157 86.2313 22.8231 86.8854 22.9793C87.5394 23.1354 88.1349 23.3307 88.7597 23.5357C89.3817 23.7664 89.9854 24.0437 90.5656 24.3655C91.148 24.6887 91.7059 25.0542 92.2349 25.4588C92.7634 25.862 93.2595 26.3059 93.7187 26.7864C94.1873 27.3136 94.6949 27.8407 95.0757 28.4069C95.4848 28.9851 95.8628 29.5847 96.208 30.2031C96.5476 30.8609 96.8538 31.5353 97.1257 32.2238C97.3892 32.9169 97.5747 33.6296 97.77 34.3422C97.954 35.1602 98.0909 35.9881 98.18 36.8217C98.2385 37.4856 98.2971 38.1396 98.3166 38.7741C98.3362 39.4087 98.3166 40.092 98.3166 40.7265C98.3166 41.3611 98.1995 42.2592 98.0823 43.0206C97.9652 43.782 97.77 44.5337 97.5747 45.2756C97.137 46.8041 96.4793 48.2609 95.6223 49.6002C94.7672 50.9418 93.7215 52.1519 92.518 53.1926C92.0397 53.5831 91.5418 53.9735 91.0732 54.3152C90.6047 54.6569 90.0385 54.9497 89.5016 55.2914C88.8247 55.5986 88.1266 55.8563 87.4125 56.0626C86.368 56.3555 85.3039 56.5897 84.2496 56.7752C82.6869 57.0526 81.1092 57.2384 79.5248 57.3317H63.3102V52.4507C64.0521 52.4507 64.7842 52.4507 65.5261 52.4019C65.7507 52.4019 65.9654 52.3433 66.1802 52.2945C66.4174 52.2299 66.6288 52.0935 66.7854 51.904C66.9573 51.7137 67.09 51.4915 67.1759 51.2499C67.313 50.6087 67.3687 49.9527 67.3419 49.2975V30.2129C67.3467 29.6779 67.3173 29.1432 67.254 28.6119C67.2201 28.2408 67.0538 27.8943 66.7854 27.6357C66.5961 27.4703 66.3676 27.356 66.1216 27.3038C65.5727 27.2192 65.0174 27.1832 64.4621 27.1964H63.3102V22.3545ZM27.7083 22.3545H55.8423L59.6885 33.4441L55.2761 35.0548C55.0418 34.4984 54.7977 33.9322 54.5146 33.3953C54.2315 32.8584 53.9094 32.341 53.5384 31.8236C53.3147 31.4835 53.0702 31.1575 52.8063 30.8474C52.5432 30.5419 52.2595 30.2549 51.957 29.9884C51.6471 29.7213 51.321 29.4736 50.9808 29.2464C50.3019 28.793 49.5485 28.4626 48.7551 28.2702C48.1596 28.1629 47.5641 28.0555 46.9686 27.9872C46.3732 27.9188 45.8362 27.9383 45.231 27.9383H40.0864V36.7241C41.3344 36.766 42.5837 36.7204 43.8253 36.5875C44.3161 36.5195 44.7645 36.2726 45.0846 35.8944C45.3537 35.4993 45.5028 35.0348 45.5141 34.557C45.589 33.6185 45.6151 32.6769 45.5922 31.7358H49.8972V46.5349H45.5922C45.5922 45.793 45.5922 45.0511 45.5922 44.3092C45.5922 44.0749 45.5336 43.8308 45.5043 43.5966C45.4279 43.0801 45.2003 42.5978 44.8503 42.2104C44.4295 41.8235 43.8795 41.6077 43.3079 41.6051C42.2341 41.5075 41.1603 41.5465 40.0864 41.5368V50.1468C40.0811 50.4744 40.1105 50.8017 40.1743 51.123C40.2626 51.2917 40.3984 51.4308 40.5648 51.5233C40.8964 51.6624 41.25 51.7418 41.6093 51.7576H44.9674C45.475 51.7576 45.9436 51.7576 46.4903 51.699C47.037 51.6404 47.4665 51.5721 48.0034 51.494C48.5403 51.4159 48.7941 51.328 49.1748 51.2207C49.5556 51.1133 49.946 50.9473 50.317 50.8009C50.7268 50.618 51.1246 50.4093 51.508 50.1761C51.9022 49.9433 52.2835 49.6891 52.6501 49.4147C52.9943 49.126 53.3204 48.8163 53.6263 48.4873C54.1337 47.9141 54.6064 47.311 55.0418 46.6813C55.4477 46.0529 55.8161 45.4009 56.1449 44.7289C56.4137 44.1198 56.6516 43.4975 56.8575 42.8644L61.2895 44.4458L56.8575 57.3512H27.7083V52.4702C28.67 52.5295 29.6353 52.487 30.588 52.3433C30.8711 52.2838 31.1289 52.1385 31.3263 51.9271C31.5237 51.7157 31.6511 51.4485 31.6911 51.1621C31.7482 50.5358 31.771 49.9068 31.7595 49.278V30.1934C31.7723 29.5884 31.7265 28.9836 31.6228 28.3874C31.5586 28.1021 31.4087 27.8432 31.1933 27.6455C31.0412 27.4978 30.8525 27.3933 30.6466 27.3429C30.0017 27.2352 29.3473 27.1959 28.6942 27.2257H27.718L27.7083 22.3545Z" fill="#12100D"/>
</g>
</g>
<defs>
<clipPath id="clip0_52_33795">
<rect width="149.993" height="88.8438" fill="white" transform="translate(0.00366211)"/>
</clipPath>
</defs>
</svg>
