<svg width="22" height="19" viewBox="0 0 22 19" fill="none" xmlns="http://www.w3.org/2000/svg">
<path d="M18.1501 6.86789C18.1501 8.13186 17.711 9.29124 16.9552 10.2588C15.8522 11.6535 14.1058 12.6386 12.0734 12.8914C11.7261 12.9437 11.3687 12.9698 11.001 12.9698C10.6333 12.9698 10.2759 12.9437 9.92862 12.8914C7.89622 12.6386 6.14979 11.6535 5.04677 10.2588C4.29101 9.29124 3.85185 8.13186 3.85185 6.86789C3.85185 3.49441 7.04854 0.765981 11.001 0.765981C14.9535 0.765981 18.1501 3.49441 18.1501 6.86789Z" stroke="#292D32" stroke-width="1.5" stroke-linecap="round" stroke-linejoin="round"/>
<path d="M20.4472 15.1228L18.762 15.4628C18.3841 15.5412 18.088 15.7853 18.0062 16.1078L17.6488 17.3892C17.4547 18.0866 16.413 18.2958 15.8717 17.7466L11.0001 12.9697L6.12844 17.7553C5.58715 18.3045 4.54542 18.0953 4.35137 17.3979L3.99391 16.1165C3.90199 15.794 3.60581 15.5412 3.23814 15.4715L1.55299 15.1315C0.776793 14.9746 0.50104 14.1465 1.06276 13.6671L5.04586 10.2674C6.14887 11.6622 7.89531 12.6472 9.92771 12.9C10.275 12.9523 10.6324 12.9784 11.0001 12.9784C11.3678 12.9784 11.7252 12.9523 12.0725 12.9C14.1049 12.6472 15.8513 11.6622 16.9543 10.2674L20.9374 13.6671C21.4991 14.1378 21.2234 14.9659 20.4472 15.1228Z" stroke="#292D32" stroke-width="1.5" stroke-linecap="round" stroke-linejoin="round"/>
<path d="M11.5933 4.23535L12.1959 5.26396C12.2776 5.40343 12.4921 5.54291 12.6861 5.56906L13.7789 5.72596C14.4734 5.82184 14.6368 6.2577 14.1364 6.68483L13.2887 7.40833C13.1457 7.53037 13.064 7.76575 13.1151 7.94009L13.3602 8.83794C13.5542 9.54402 13.1151 9.82295 12.3797 9.44811L11.3584 8.93381C11.1746 8.83793 10.8682 8.83793 10.6844 8.93381L9.66306 9.44811C8.92772 9.81423 8.48855 9.54402 8.6826 8.83794L8.92772 7.94009C8.96857 7.77446 8.89708 7.53037 8.75409 7.40833L7.90641 6.68483C7.40597 6.2577 7.56938 5.83056 8.26387 5.72596L9.35667 5.56906C9.5405 5.54291 9.75497 5.40343 9.83668 5.26396L10.4393 4.23535C10.7354 3.67746 11.2665 3.67746 11.5933 4.23535Z" stroke="#292D32" stroke-width="1.5" stroke-linecap="round" stroke-linejoin="round"/>
</svg>
