<svg width="92" height="20" viewBox="0 0 92 20" fill="none" xmlns="http://www.w3.org/2000/svg">
<path d="M16.383 9.55464C16.5004 9.67313 16.5662 9.83317 16.5662 9.99995C16.5662 10.1667 16.5004 10.3268 16.383 10.4453L9.96897 16.8437C9.14846 17.6642 8.0356 18.1252 6.87522 18.1252C5.71484 18.1252 4.60199 17.6642 3.78147 16.8437C2.96096 16.0232 2.5 14.9103 2.5 13.7499C2.5 12.5896 2.96096 11.4767 3.78147 10.6562L11.5393 2.79682C11.8263 2.49418 12.171 2.25206 12.5531 2.08473C12.9352 1.91741 13.3469 1.82826 13.764 1.82256C14.181 1.81685 14.595 1.8947 14.9815 2.05151C15.3681 2.20832 15.7193 2.44092 16.0145 2.7356C16.3097 3.03028 16.5429 3.38108 16.7004 3.76732C16.8579 4.15355 16.9365 4.5674 16.9315 4.98449C16.9265 5.40157 16.8381 5.81343 16.6715 6.19581C16.5048 6.57818 16.2633 6.92332 15.9612 7.21089L8.20335 15.0703C8.02994 15.2463 7.82317 15.3861 7.59513 15.4813C7.36709 15.5766 7.12235 15.6254 6.87522 15.6249C6.50371 15.6259 6.14031 15.5164 5.83112 15.3104C5.52193 15.1045 5.28089 14.8113 5.1386 14.4681C4.9963 14.1249 4.95917 13.7472 5.03189 13.3829C5.10462 13.0186 5.28394 12.6841 5.5471 12.4218L12.0549 5.81245C12.1112 5.74928 12.1798 5.69821 12.2564 5.66233C12.3331 5.62645 12.4162 5.6065 12.5008 5.60371C12.5853 5.60091 12.6696 5.61532 12.7485 5.64605C12.8273 5.67679 12.8991 5.72322 12.9594 5.78253C13.0198 5.84184 13.0675 5.91278 13.0996 5.99107C13.1318 6.06936 13.1477 6.15335 13.1464 6.23797C13.1451 6.32258 13.1266 6.40605 13.0921 6.48331C13.0575 6.56058 13.0077 6.63003 12.9455 6.68745L6.43772 13.3046C6.37848 13.3627 6.33139 13.432 6.2992 13.5084C6.26701 13.5849 6.25036 13.667 6.25022 13.7499C6.24929 13.9162 6.31383 14.0762 6.42991 14.1953C6.54988 14.3099 6.70926 14.3742 6.87522 14.3749C7.0415 14.3759 7.20147 14.3113 7.32054 14.1953L15.0705 6.32807C15.2466 6.15467 15.3864 5.9479 15.4816 5.71986C15.5768 5.49182 15.6257 5.24708 15.6252 4.99995C15.6261 4.62844 15.5167 4.26503 15.3107 3.95584C15.1047 3.64665 14.8116 3.40562 14.4684 3.26332C14.1252 3.12103 13.7475 3.08389 13.3832 3.15662C13.0188 3.22935 12.6843 3.40867 12.4221 3.67182L4.6721 11.539C4.36945 11.826 4.12733 12.1708 3.96001 12.5528C3.79268 12.9349 3.70354 13.3466 3.69783 13.7637C3.69213 14.1808 3.76997 14.5948 3.92678 14.9813C4.0836 15.3678 4.3162 15.719 4.61088 16.0142C4.90556 16.3094 5.25636 16.5426 5.64259 16.7001C6.02882 16.8576 6.44268 16.9362 6.85976 16.9312C7.27684 16.9262 7.68871 16.8378 8.07108 16.6712C8.45345 16.5045 8.79859 16.263 9.08616 15.9609L15.4924 9.55464C15.6109 9.43727 15.7709 9.37143 15.9377 9.37143C16.1045 9.37143 16.2645 9.43727 16.383 9.55464Z" fill="#8D95A5"/>
<path d="M44.9081 11.9219C44.8226 11.793 44.7065 11.6872 44.5702 11.6141C44.4338 11.5409 44.2815 11.5026 44.1268 11.5026C43.9721 11.5026 43.8198 11.5409 43.6835 11.6141C43.5472 11.6872 43.4311 11.793 43.3456 11.9219L41.9784 13.9766L41.4784 13.1953C41.3935 13.0631 41.2768 12.9543 41.1389 12.8789C41.0011 12.8036 40.8465 12.7641 40.6893 12.7641C40.5322 12.7641 40.3776 12.8036 40.2397 12.8789C40.1018 12.9543 39.9851 13.0631 39.9003 13.1953L37.3534 17.1641C37.2927 17.2576 37.2585 17.3658 37.2543 17.4772C37.2502 17.5887 37.2763 17.6991 37.33 17.7969C37.3833 17.8956 37.4622 17.9782 37.5584 18.0359C37.6546 18.0937 37.7646 18.1244 37.8768 18.125H47.8768C47.9904 18.1259 48.102 18.0958 48.1997 18.038C48.2975 17.9801 48.3776 17.8968 48.4315 17.7969C48.4823 17.6966 48.5061 17.5848 48.5006 17.4724C48.4952 17.3601 48.4606 17.2512 48.4003 17.1563L44.9081 11.9219ZM39.0253 16.875L40.6893 14.2813L41.1815 15.0469C41.2654 15.1787 41.3807 15.2877 41.5171 15.364C41.6534 15.4403 41.8065 15.4817 41.9628 15.4844C42.119 15.4854 42.2731 15.4473 42.4109 15.3737C42.5487 15.3 42.6659 15.193 42.7518 15.0625L44.1268 13L46.7128 16.875H39.0253ZM52.8768 6.87501C52.8776 6.79192 52.8613 6.70956 52.8291 6.63298C52.7969 6.5564 52.7493 6.48722 52.6893 6.4297L48.3221 2.0547C48.2031 1.93862 48.0431 1.87407 47.8768 1.87501H40.3768C40.0453 1.87501 39.7274 2.00671 39.4929 2.24113C39.2585 2.47555 39.1268 2.79349 39.1268 3.12501V10.625C39.1268 10.7908 39.1927 10.9497 39.3099 11.067C39.4271 11.1842 39.5861 11.25 39.7518 11.25C39.9176 11.25 40.0766 11.1842 40.1938 11.067C40.311 10.9497 40.3768 10.7908 40.3768 10.625V3.12501H47.2518V6.87501C47.2518 7.04077 47.3177 7.19974 47.4349 7.31695C47.5521 7.43416 47.7111 7.50001 47.8768 7.50001H51.6268V16.875H51.0018C50.8361 16.875 50.6771 16.9409 50.5599 17.0581C50.4427 17.1753 50.3768 17.3342 50.3768 17.5C50.3768 17.6658 50.4427 17.8247 50.5599 17.942C50.6771 18.0592 50.8361 18.125 51.0018 18.125H51.6268C51.9584 18.125 52.2763 17.9933 52.5107 17.7589C52.7451 17.5245 52.8768 17.2065 52.8768 16.875V6.87501ZM48.5018 4.00782L50.744 6.25001H48.5018V4.00782Z" fill="#8D95A5"/>
<path d="M82.0001 13.75C82.9946 13.75 83.9485 13.3549 84.6517 12.6517C85.355 11.9484 85.7501 10.9946 85.7501 10V5C85.7501 4.00544 85.355 3.05161 84.6517 2.34835C83.9485 1.64509 82.9946 1.25 82.0001 1.25C81.0055 1.25 80.0517 1.64509 79.3484 2.34835C78.6451 3.05161 78.2501 4.00544 78.2501 5V10C78.2501 10.9946 78.6451 11.9484 79.3484 12.6517C80.0517 13.3549 81.0055 13.75 82.0001 13.75ZM79.5001 5C79.5001 4.33696 79.7635 3.70107 80.2323 3.23223C80.7011 2.76339 81.337 2.5 82.0001 2.5C82.6631 2.5 83.299 2.76339 83.7678 3.23223C84.2367 3.70107 84.5001 4.33696 84.5001 5V10C84.5001 10.663 84.2367 11.2989 83.7678 11.7678C83.299 12.2366 82.6631 12.5 82.0001 12.5C81.337 12.5 80.7011 12.2366 80.2323 11.7678C79.7635 11.2989 79.5001 10.663 79.5001 10V5ZM88.211 10.6953C88.0534 12.1165 87.4126 13.4405 86.3958 14.4459C85.3791 15.4513 84.0479 16.0771 82.6251 16.2188V18.125C82.6251 18.2908 82.5592 18.4497 82.442 18.5669C82.3248 18.6842 82.1658 18.75 82.0001 18.75C81.8343 18.75 81.6753 18.6842 81.5581 18.5669C81.4409 18.4497 81.3751 18.2908 81.3751 18.125V16.2188C79.9522 16.0771 78.6211 15.4513 77.6043 14.4459C76.5875 13.4405 75.9467 12.1165 75.7891 10.6953C75.7799 10.6137 75.7868 10.5312 75.8095 10.4523C75.8322 10.3734 75.8702 10.2997 75.9213 10.2355C75.9725 10.1713 76.0358 10.1178 76.1076 10.0781C76.1794 10.0383 76.2583 10.0131 76.3399 10.0039C76.4215 9.99467 76.5041 10.0016 76.5829 10.0243C76.6618 10.047 76.7355 10.085 76.7997 10.1361C76.8639 10.1872 76.9174 10.2505 76.9571 10.3224C76.9969 10.3942 77.0221 10.4731 77.0313 10.5547C77.1686 11.7764 77.7511 12.9048 78.6677 13.7242C79.5843 14.5436 80.7706 14.9965 82.0001 14.9965C83.2295 14.9965 84.4158 14.5436 85.3324 13.7242C86.249 12.9048 86.8316 11.7764 86.9688 10.5547C86.9875 10.39 87.0708 10.2394 87.2004 10.1361C87.2646 10.085 87.3383 10.047 87.4172 10.0243C87.4961 10.0016 87.5787 9.99467 87.6602 10.0039C87.7418 10.0131 87.8207 10.0383 87.8925 10.0781C87.9644 10.1178 88.0277 10.1713 88.0788 10.2355C88.1299 10.2997 88.1679 10.3734 88.1906 10.4523C88.2133 10.5312 88.2202 10.6137 88.211 10.6953Z" fill="#8D95A5"/>
</svg>
