<svg width="22" height="20" viewBox="0 0 22 20" fill="none" xmlns="http://www.w3.org/2000/svg">
<path d="M1.03567 3.8435H4.11968C4.53395 4.85616 5.52359 5.59264 6.69735 5.59264C7.87112 5.59264 8.86076 4.87917 9.27503 3.8435H20.8285C21.4039 3.8435 21.8642 3.3832 21.8642 2.80783C21.8642 2.23245 21.4039 1.77215 20.8285 1.77215H9.27503C8.86076 0.713464 7.87112 0 6.69735 0C5.52359 0 4.53395 0.713464 4.11968 1.74914H1.03567C0.460299 1.74914 0 2.20944 0 2.78481C0 3.36018 0.460299 3.8435 1.03567 3.8435Z" fill="#00B97C"/>
<path d="M20.8285 8.9757H17.7445C17.3303 7.96304 16.3406 7.22656 15.1669 7.22656C13.9931 7.22656 13.0035 7.94003 12.5892 8.9757H1.03567C0.460299 8.9757 0 9.436 0 10.0114C0 10.5867 0.460299 11.047 1.03567 11.047H12.5892C13.0035 12.0597 13.9931 12.7962 15.1669 12.7962C16.3406 12.7962 17.3303 12.0827 17.7445 11.047H20.8285C21.4039 11.047 21.8642 10.5867 21.8642 10.0114C21.8642 9.436 21.4039 8.9757 20.8285 8.9757Z" fill="#00B97C"/>
<path d="M20.8285 16.1795H9.27503C8.86076 15.1669 7.87112 14.4304 6.69735 14.4304C5.52359 14.4304 4.53395 15.1438 4.11968 16.1795H1.03567C0.460299 16.1795 0 16.6398 0 17.2152C0 17.7906 0.460299 18.2509 1.03567 18.2509H4.11968C4.53395 19.2635 5.52359 20 6.69735 20C7.87112 20 8.86076 19.2865 9.27503 18.2509H20.8285C21.4039 18.2509 21.8642 17.7906 21.8642 17.2152C21.8642 16.6628 21.4039 16.1795 20.8285 16.1795Z" fill="#00B97C"/>
</svg>
