<svg width="30" height="30" viewBox="0 0 30 30" fill="none" xmlns="http://www.w3.org/2000/svg">
<g clip-path="url(#clip0_52_44346)">
<path d="M19.9684 16.875C21.8434 17.5313 23.5309 19.2188 24.1871 21.4688C24.7496 23.8125 23.9996 26.7188 22.2184 28.0312C21.0934 28.875 19.6871 29.1563 18.3746 29.1563C15.1871 29.1563 11.9996 28.0313 8.81212 26.9063C7.78087 26.5313 6.65587 26.1563 5.71837 25.4063C4.78087 24.6563 4.03087 23.5313 3.84337 22.2188C3.65587 20.3438 4.68712 18.5625 5.99962 17.625C8.34337 16.0312 10.6871 15.375 13.2184 15.375C15.4684 15.375 17.9996 16.125 19.9684 16.875Z" fill="#293338"/>
<path d="M19.2183 17.0625C20.9058 17.625 22.4995 19.0313 22.9683 21.0938C23.5308 23.1563 22.7808 25.6875 21.187 26.8125C20.1558 27.5625 18.937 27.75 17.7183 27.75C14.812 27.75 11.9995 26.8125 9.09329 25.7813C8.15579 25.4063 7.12454 25.125 6.28079 24.4688C5.43704 23.8125 4.68704 22.875 4.59329 21.75C4.40579 20.1563 5.34329 18.5625 6.56204 17.7188C8.62454 16.3125 10.8745 15.75 13.0308 15.75C15.0933 15.75 17.3433 16.4063 19.2183 17.0625Z" fill="#425763"/>
<path d="M12.1875 19.6875L13.5 21.75C13.5937 21.8438 13.5937 22.0313 13.5 22.2188L10.7812 26.5312C10.7812 26.5312 7.96875 26.0625 7.5 25.3125L8.0625 20.0625L9.28125 18.6562L12.1875 19.6875Z" fill="#E8CCAA"/>
<path d="M24.0523 11.5948C24.072 6.15822 19.6807 1.73506 14.2442 1.71536C8.80764 1.69566 4.38447 6.08688 4.36477 11.5234C4.34507 16.96 8.7363 21.3832 14.1729 21.4029C19.6094 21.4226 24.0326 17.0313 24.0523 11.5948Z" fill="#293338"/>
<path d="M7.78125 2.34335C7.78125 2.34335 8.71875 -0.281647 15.375 -0.000396684C17.7187 0.0933533 25.9688 4.78085 24.5625 13.5934C24.5625 13.5934 23.1563 17.9059 20.8125 17.8121C20.8125 17.8121 21.5625 17.1559 20.625 14.9059C19.6875 12.6559 18.75 11.3434 17.25 10.6871C15.8437 10.1246 7.78125 2.34335 7.78125 2.34335Z" fill="#72402A"/>
<path d="M20.5312 8.4375C22.8612 8.4375 24.75 6.5487 24.75 4.21875C24.75 1.8888 22.8612 0 20.5312 0C18.2013 0 16.3125 1.8888 16.3125 4.21875C16.3125 6.5487 18.2013 8.4375 20.5312 8.4375Z" fill="#72402A"/>
<path d="M20.25 7.6875C22.114 7.6875 23.625 6.17646 23.625 4.3125C23.625 2.44854 22.114 0.9375 20.25 0.9375C18.386 0.9375 16.875 2.44854 16.875 4.3125C16.875 6.17646 18.386 7.6875 20.25 7.6875Z" fill="#89563A"/>
<path d="M23.73 10.6456C23.7497 5.209 19.3585 0.785837 13.9219 0.766138C8.48537 0.746438 4.0622 5.13767 4.0425 10.5742C4.02281 16.0108 8.41403 20.4339 13.8506 20.4536C19.2871 20.4733 23.7103 16.0821 23.73 10.6456Z" fill="#A67A65"/>
<path d="M23.25 9.9375C23.25 15.1875 18.9375 19.5 13.6875 19.4063C8.4375 19.4063 4.21875 15.0938 4.21875 9.84375C4.21875 4.59375 8.53125 0.84375 13.7812 0.84375C19.0312 0.84375 23.3438 4.6875 23.25 9.9375Z" fill="#E5A98C"/>
<path d="M23.2149 9.67783C23.2333 4.60371 19.2608 0.475876 14.342 0.458053C9.42319 0.44023 5.42082 4.53917 5.40243 9.61328C5.38405 14.6874 9.3566 18.8152 14.2754 18.8331C19.1942 18.8509 23.1965 14.7519 23.2149 9.67783Z" fill="#E8CCAA"/>
<path d="M18.2888 10.9141C18.3021 7.23792 15.4167 4.24732 11.8441 4.23438C8.27154 4.22143 5.36459 7.19104 5.35127 10.8672C5.33795 14.5433 8.22331 17.5339 11.7959 17.5469C15.3685 17.5598 18.2754 14.5902 18.2888 10.9141Z" fill="#FAEACF"/>
<path d="M14.868 11.6546C14.8701 11.085 14.494 10.6219 14.028 10.6202C13.562 10.6186 13.1826 11.0789 13.1805 11.6484C13.1784 12.218 13.5545 12.6811 14.0205 12.6827C14.4865 12.6844 14.8659 12.2241 14.868 11.6546Z" fill="#425763"/>
<path d="M14.3409 11.2338C14.3414 11.0785 14.2579 10.9522 14.1544 10.9519C14.0508 10.9515 13.9664 11.0771 13.9659 11.2324C13.9653 11.3878 14.0488 11.514 14.1523 11.5144C14.2559 11.5147 14.3403 11.3891 14.3409 11.2338Z" fill="white"/>
<path d="M7.78499 10.1038C7.78705 9.53423 7.41096 9.07115 6.94497 9.06946C6.47898 9.06778 6.09955 9.52811 6.09749 10.0977C6.09542 10.6672 6.47151 11.1303 6.9375 11.132C7.40349 11.1337 7.78292 10.6733 7.78499 10.1038Z" fill="#425763"/>
<path d="M7.25785 9.683C7.25842 9.52767 7.17493 9.40145 7.07137 9.40107C6.96782 9.40069 6.88342 9.52631 6.88286 9.68164C6.88229 9.83697 6.96578 9.96319 7.06934 9.96357C7.17289 9.96395 7.25729 9.83833 7.25785 9.683Z" fill="white"/>
<path d="M20.25 11.3435C20.25 11.3435 21 10.6873 21.6562 10.9685C22.3125 11.2498 22.2187 13.2185 20.5312 13.4998L20.25 11.3435Z" fill="#FAEACF"/>
<path d="M12.0937 16.0313C12.0937 16.0313 11.1563 15.9375 10.5938 15.375C9.9375 15 9.28125 15 9.1875 15C9.09375 15 8.90625 14.8125 8.71875 14.7188C8.53125 14.625 8.25 14.625 8.15625 14.7188C8.15625 14.8125 8.4375 15.2812 8.4375 15.2812C8.4375 15.2812 8.53125 15.6563 8.4375 15.9375C8.34375 16.125 8.4375 16.7813 9.09375 16.9688C9.75 17.1563 10.2188 17.0625 10.5938 16.875L12.0937 16.0313Z" fill="#931655"/>
<path d="M14.3433 0.656908C14.3433 0.656908 13.1246 3.84441 11.0621 4.50066C8.99958 5.15691 4.96833 6.93816 4.40583 9.46941C4.31208 9.46941 5.34333 -0.843092 14.3433 0.656908Z" fill="#89563A"/>
<path d="M11.25 2.62523C11.25 2.62523 13.4062 9.84398 21.8437 11.2502L23.5312 11.1565L18.4688 3.00023C18.5625 3.00023 14.3438 0.656484 11.25 2.62523Z" fill="#89563A"/>
<path d="M10.6875 10.6875L17.7188 12.6563C17.7188 12.6563 16.2188 14.7188 14.25 14.625C12.2813 14.4375 11.1562 12.6562 10.6875 10.6875Z" stroke="#425763" stroke-width="0.659156" stroke-miterlimit="10"/>
<path d="M4.125 8.8125L10.4063 10.5938C10.4063 10.5938 9.09375 12.4688 7.3125 12.2813C5.53125 12.0938 4.5 10.5938 4.125 8.8125Z" stroke="#425763" stroke-width="0.659156" stroke-miterlimit="10"/>
<path d="M12 1.03198C12 1.03198 13.2187 0.0944808 15.2812 0.188231C17.3437 0.281981 24.9375 4.12573 23.625 12.0007C23.625 12.0007 22.9687 15.282 21.8437 16.6882C21.8437 16.6882 20.8125 15.8445 20.0625 13.782C19.3125 11.7195 18.375 10.5945 17.0625 10.032C15.75 9.37573 12 1.03198 12 1.03198Z" fill="#89563A"/>
<path d="M12.6562 2.4375C12.6562 2.4375 14.1562 9.5625 22.875 10.5938C22.875 10.5938 22.875 2.0625 14.25 1.21875C14.25 1.3125 12.6562 1.78125 12.6562 2.4375Z" fill="#B57555"/>
<path d="M17.7188 12.6562L19.6875 12.2812" stroke="#425763" stroke-width="0.659156" stroke-miterlimit="10"/>
<path d="M14.1562 2.81335C14.1562 2.81335 10.2187 2.06335 8.25 3.4696C8.25 3.4696 10.3125 -0.6554 15.1875 1.50085L14.1562 2.81335Z" fill="#B57555"/>
<path d="M10.125 27L11.7187 24.75L14.0625 21.0938L12.5625 20.9062L14.4375 21.0938L15.2812 23.1563L11.9062 27.2813L10.125 27Z" fill="#293338"/>
<path d="M7.6875 25.6875L9.375 24.5625L9.65625 26.1562C9.75 26.1562 8.8125 26.0625 7.6875 25.6875Z" fill="#A67A65"/>
<path opacity="0.5" d="M19.4063 19.4063C19.4063 19.4063 21 22.4062 19.9688 24.1875L17.625 28.3125C17.625 28.3125 20.4375 29.7187 22.0313 27.4687C23.625 25.2187 25.3125 20.625 21.4688 18.1875L19.4063 19.4063Z" fill="#293338"/>
<path d="M20.0625 12.5626L21.8437 16.5939C21.8437 16.5939 23.4375 14.7189 23.9063 12.7501C24.4688 10.8751 20.0625 12.5626 20.0625 12.5626Z" fill="#72402A"/>
<path d="M15.4688 2.53125C15.4688 2.53125 18.8438 2.71875 20.0625 4.96875C21.2812 7.21875 21.2813 8.71875 21.2813 8.71875L17.8125 5.71875L15.4688 2.53125Z" fill="#D69274"/>
<path d="M15.1875 27.2812L14.8125 27.75L16.5938 28.9687L26.4375 19.125L24.8438 17.0625L15.1875 27.2812Z" fill="#9A4C18"/>
<path d="M26.7183 21.9366C26.3433 25.8741 22.7808 29.1553 18.7495 29.1553C14.7183 29.1553 12.187 25.7803 12.937 22.0303C13.687 18.4678 17.062 15.6553 20.6245 15.6553C24.2808 15.4678 26.9995 18.2803 26.7183 21.9366Z" fill="#9A4C18"/>
<path d="M27.6557 23.1562C27.3745 26.9062 23.812 30 19.8745 30C15.937 30 13.4995 26.8125 14.2495 23.1562C14.9057 19.7812 18.2807 17.0625 21.7495 17.0625C25.312 17.0625 27.937 19.6875 27.6557 23.1562Z" fill="#9A4C18"/>
<path d="M16.3125 27.5625L18 28.4062L26.0625 19.9687L24.75 18.1875L16.3125 27.5625Z" fill="#F49937"/>
<path d="M26.9067 23.1563C26.6254 26.3438 23.6254 28.9688 20.3442 28.9688C17.0629 28.9688 15.0004 26.25 15.5629 23.1563C16.1254 20.1563 18.9379 17.9063 21.9379 17.8125C24.9379 17.9063 27.1879 20.1563 26.9067 23.1563Z" fill="#F49937"/>
<path d="M25.7817 21.9382C25.5004 25.3132 22.3129 28.1257 18.8442 28.1257C15.3754 28.1257 13.1254 25.2194 13.7817 21.9382C14.3442 18.7507 17.4379 16.3132 20.5317 16.3132C23.7192 16.2194 26.0629 18.6569 25.7817 21.9382Z" fill="#FFEDC0"/>
<path d="M25.4067 22.125C25.1254 25.3125 22.1254 27.9375 18.8442 27.9375C15.5629 27.9375 13.5004 25.2188 14.0629 22.125C14.6254 19.125 17.4379 16.875 20.4379 16.7812C23.4379 16.7812 25.6879 19.125 25.4067 22.125Z" fill="#FFD766"/>
<path d="M24.0936 22.125C23.8123 24.5625 21.5623 26.625 19.0311 26.625C16.4998 26.625 14.9061 24.5625 15.2811 22.125C15.6561 19.7812 17.9061 18 20.2498 17.9062C22.5936 18 24.3748 19.7812 24.0936 22.125Z" fill="#FFEDC0"/>
<path d="M24.1871 21.5625C23.9059 24 21.6559 26.0625 19.1246 25.9688C16.5934 25.9688 14.9996 23.9062 15.4684 21.5625C15.8434 19.3125 18.0934 17.4375 20.3434 17.4375C22.6871 17.4375 24.3746 19.2187 24.1871 21.5625Z" fill="#F49937"/>
<path d="M23.4371 22.125C23.2496 24.1875 21.2809 25.875 19.2184 25.875C17.1559 25.875 15.7496 24.1875 16.0309 22.125C16.4059 20.1563 18.2809 18.5625 20.2496 18.5625C22.2184 18.5625 23.6246 20.1563 23.4371 22.125Z" fill="#FFD766"/>
<path d="M20.7187 18.2812L21.2812 20.4375L23.8125 21.0938L21.4687 22.5938L21.375 25.2187L19.3125 23.7187L16.6875 24.6562L17.8125 22.2188L16.5 20.3438L19.125 20.25L20.7187 18.2812Z" fill="#F49937"/>
</g>
<defs>
<clipPath id="clip0_52_44346">
<rect width="30" height="30" fill="white"/>
</clipPath>
</defs>
</svg>
