<svg width="190" height="127" viewBox="0 0 190 127" fill="none" xmlns="http://www.w3.org/2000/svg">
<path opacity="0.3" d="M172.418 111.299H131.73C131.149 111.299 130.674 110.824 130.674 110.243C130.674 109.663 131.149 109.188 131.73 109.188H172.418C172.999 109.188 173.474 109.663 173.474 110.243C173.474 110.824 172.999 111.299 172.418 111.299ZM106.662 111.299H100.33C99.7491 111.299 99.2741 110.824 99.2741 110.243C99.2741 109.663 99.7491 109.188 100.33 109.188H106.662C107.243 109.188 107.718 109.663 107.718 110.243C107.718 110.824 107.243 111.299 106.662 111.299ZM92.6775 111.299H61.4356C60.8551 111.299 60.3801 110.824 60.3801 110.243C60.3801 109.663 60.8551 109.188 61.4356 109.188H92.6775C93.258 109.188 93.7329 109.663 93.7329 110.243C93.7329 110.824 93.258 111.299 92.6775 111.299ZM38.8486 111.299H17.5809C17.0004 111.299 16.5254 110.824 16.5254 110.243C16.5254 109.663 17.0004 109.188 17.5809 109.188H38.8486C39.4291 109.188 39.904 109.663 39.904 110.243C39.904 110.824 39.4291 111.299 38.8486 111.299ZM24.2303 68.9215H22.6471V67.3383C22.6471 66.9161 22.2777 66.5467 21.8555 66.5467C21.4333 66.5467 21.0639 66.9161 21.0639 67.3383V68.9215H19.4807C19.0585 68.9215 18.6891 69.2909 18.6891 69.7131C18.6891 70.1353 19.0585 70.5047 19.4807 70.5047H21.0639V72.0879C21.0639 72.5101 21.4333 72.8795 21.8555 72.8795C22.2777 72.8795 22.6471 72.5101 22.6471 72.0879V70.5047H24.2303C24.6525 70.5047 25.0219 70.1353 25.0219 69.7131C25.0219 69.2909 24.6525 68.9215 24.2303 68.9215ZM153.472 97.1025H151.889V95.5193C151.889 95.0972 151.52 94.7277 151.098 94.7277C150.675 94.7277 150.306 95.0972 150.306 95.5193V97.1025H148.723C148.301 97.1025 147.931 97.472 147.931 97.8941C147.931 98.3163 148.301 98.6857 148.723 98.6857H150.306V100.269C150.306 100.691 150.675 101.061 151.098 101.061C151.52 101.061 151.889 100.691 151.889 100.269V98.6857H153.472C153.895 98.6857 154.264 98.3163 154.264 97.8941C154.264 97.472 153.895 97.1025 153.472 97.1025ZM134.157 32.4551C132.68 32.4551 131.519 31.2941 131.519 29.8164C131.519 28.3388 132.68 27.1777 134.157 27.1777C135.635 27.1777 136.796 28.3388 136.796 29.8164C136.796 31.2941 135.635 32.4551 134.157 32.4551ZM134.157 28.2332C133.26 28.2332 132.574 28.9193 132.574 29.8164C132.574 30.7136 133.26 31.3996 134.157 31.3996C135.055 31.3996 135.741 30.7136 135.741 29.8164C135.741 28.9193 135.055 28.2332 134.157 28.2332Z" fill="white"/>
<path opacity="0.7" d="M47.0817 77.683C45.8679 77.683 44.8652 76.6803 44.8652 75.4665C44.8652 74.2527 45.8679 73.25 47.0817 73.25C48.2955 73.25 49.2982 74.2527 49.2982 75.4665C49.2982 76.6803 48.2955 77.683 47.0817 77.683ZM47.0817 74.3582C46.4484 74.3582 45.9207 74.886 45.9207 75.5193C45.9207 76.1525 46.4484 76.6803 47.0817 76.6803C47.715 76.6803 48.2427 76.1525 48.2427 75.5193C48.2427 74.886 47.715 74.3582 47.0817 74.3582Z" fill="white"/>
<path d="M84.7625 124.334C84.3931 124.334 84.0237 124.334 83.6543 124.281C82.9155 124.229 82.335 123.648 82.3877 122.909C82.4405 122.17 83.021 121.643 83.7598 121.643C84.0765 121.643 84.4459 121.643 84.7625 121.696C85.5014 121.696 86.0819 122.329 86.0291 123.068C86.0291 123.754 85.4486 124.334 84.7625 124.334ZM88.9844 124.229C88.2984 124.229 87.7179 123.701 87.6651 123.015C87.6123 122.276 88.1928 121.643 88.8789 121.643L89.8816 121.59C90.6204 121.537 91.2537 122.065 91.3064 122.804C91.3592 123.543 90.8315 124.176 90.0927 124.229C89.7232 124.281 89.3538 124.281 89.0372 124.281C89.0372 124.229 88.9844 124.229 88.9844 124.229ZM79.4852 123.965H79.3269C78.9575 123.912 78.588 123.859 78.2714 123.806C77.5326 123.701 77.0576 123.015 77.1632 122.329C77.2687 121.59 77.9548 121.115 78.6408 121.221L79.6435 121.379C80.3823 121.484 80.8573 122.118 80.8045 122.857C80.699 123.437 80.1185 123.965 79.4852 123.965ZM94.209 123.648C93.5757 123.648 92.9952 123.173 92.8896 122.54C92.7841 121.801 93.2591 121.168 93.9979 121.009L95.0006 120.851C95.7394 120.746 96.4255 121.221 96.531 121.907C96.6366 122.593 96.1616 123.331 95.4755 123.437L94.4201 123.595C94.3673 123.648 94.2618 123.648 94.209 123.648ZM74.2606 123.068C74.1551 123.068 74.0495 123.068 73.9968 123.015C73.6273 122.962 73.3107 122.857 72.9413 122.751C72.2552 122.593 71.7803 121.854 71.9914 121.168C72.1497 120.482 72.8885 120.007 73.5746 120.218C73.8912 120.323 74.2606 120.376 74.5773 120.429C75.2633 120.587 75.7383 121.273 75.58 122.012C75.4216 122.645 74.8939 123.068 74.2606 123.068ZM99.3808 122.593C98.8003 122.593 98.2725 122.223 98.1142 121.59C97.9031 120.904 98.3253 120.165 99.0641 119.954L100.067 119.69C100.753 119.479 101.492 119.901 101.703 120.587C101.914 121.273 101.492 122.012 100.806 122.223C100.436 122.329 100.12 122.434 99.7502 122.487C99.5919 122.54 99.4863 122.593 99.3808 122.593ZM69.1944 121.643C69.0361 121.643 68.9305 121.643 68.7722 121.59C68.4555 121.484 68.0861 121.379 67.7695 121.221C67.0834 120.957 66.714 120.218 66.9779 119.532C67.2418 118.846 67.9806 118.476 68.6666 118.74L69.6166 119.057C70.3026 119.268 70.672 120.06 70.4609 120.746C70.2498 121.273 69.7749 121.643 69.1944 121.643ZM104.394 120.957C103.867 120.957 103.339 120.64 103.18 120.112C102.917 119.426 103.286 118.687 103.972 118.424L104.922 118.054C105.608 117.79 106.347 118.107 106.611 118.793C106.875 119.479 106.558 120.218 105.872 120.482C105.555 120.64 105.186 120.746 104.869 120.851C104.711 120.957 104.553 120.957 104.394 120.957ZM64.2864 119.743C64.1281 119.743 63.917 119.69 63.7587 119.637C63.4421 119.479 63.1254 119.321 62.756 119.162C62.1227 118.846 61.8061 118.054 62.1227 117.421C62.4394 116.788 63.231 116.471 63.8643 116.788L64.8142 117.21C65.5002 117.526 65.7641 118.265 65.5002 118.951C65.2891 119.426 64.7614 119.743 64.2864 119.743ZM109.249 118.846C108.774 118.846 108.299 118.582 108.088 118.107C107.772 117.474 108.036 116.682 108.669 116.365C108.986 116.207 109.302 116.049 109.566 115.89C110.199 115.574 110.991 115.785 111.36 116.471C111.677 117.104 111.466 117.896 110.78 118.265L109.83 118.74C109.619 118.793 109.408 118.846 109.249 118.846ZM59.5896 117.315C59.3785 117.315 59.1146 117.263 58.9563 117.157L58.0064 116.629C57.3731 116.26 57.162 115.468 57.5314 114.835C57.9009 114.202 58.6925 113.991 59.3257 114.36L60.2229 114.888C60.8562 115.257 61.0673 116.049 60.6978 116.682C60.4868 117.104 60.0646 117.315 59.5896 117.315ZM113.841 116.313C113.419 116.313 112.996 116.102 112.732 115.679C112.363 115.046 112.521 114.254 113.155 113.885C113.471 113.727 113.735 113.516 113.999 113.305C114.632 112.882 115.424 113.093 115.846 113.674C116.268 114.254 116.057 115.099 115.477 115.521L114.58 116.102C114.316 116.207 114.105 116.313 113.841 116.313ZM55.1566 114.466C54.8928 114.466 54.6289 114.36 54.365 114.202C54.0484 113.991 53.7845 113.78 53.5207 113.568C52.9402 113.146 52.8346 112.302 53.2568 111.721C53.679 111.141 54.5234 111.035 55.1039 111.457C55.3677 111.669 55.6316 111.88 55.9482 112.038C56.5287 112.46 56.6871 113.305 56.2649 113.885C55.9482 114.307 55.5788 114.466 55.1566 114.466ZM118.168 113.252C117.799 113.252 117.377 113.093 117.113 112.724C116.69 112.144 116.796 111.299 117.324 110.877L118.115 110.244C118.696 109.769 119.487 109.874 119.962 110.455C120.437 111.035 120.332 111.827 119.751 112.302L118.907 112.988C118.749 113.199 118.432 113.252 118.168 113.252ZM122.179 109.822C121.809 109.822 121.493 109.663 121.229 109.399C120.701 108.872 120.754 108.027 121.282 107.552C121.546 107.341 121.757 107.077 122.021 106.813C122.548 106.286 123.393 106.286 123.868 106.813C124.395 107.341 124.395 108.186 123.868 108.66C123.604 108.924 123.34 109.188 123.076 109.399C122.812 109.716 122.496 109.822 122.179 109.822ZM125.82 106.022C125.504 106.022 125.187 105.916 124.976 105.705C124.448 105.23 124.343 104.386 124.818 103.858C125.029 103.594 125.24 103.33 125.504 103.066C125.979 102.486 126.823 102.433 127.351 102.908C127.931 103.383 127.984 104.228 127.509 104.755C127.298 105.019 127.034 105.283 126.823 105.6C126.559 105.863 126.19 106.022 125.82 106.022ZM129.039 101.853C128.776 101.853 128.512 101.8 128.301 101.589C127.72 101.167 127.562 100.322 127.984 99.7418L128.564 98.8974C128.987 98.3169 129.778 98.1058 130.412 98.528C130.992 98.9502 131.203 99.7418 130.781 100.375L130.148 101.272C129.884 101.694 129.462 101.853 129.039 101.853ZM131.836 97.4197C131.625 97.4197 131.414 97.367 131.203 97.2614C130.57 96.892 130.359 96.1004 130.675 95.4671L131.15 94.57C131.52 93.9367 132.311 93.6728 132.945 94.0422C133.578 94.4117 133.842 95.2033 133.472 95.8365C133.314 96.1532 133.156 96.4698 132.945 96.7865C132.734 97.1559 132.311 97.4197 131.836 97.4197ZM134.211 92.6701C134.053 92.6701 133.842 92.6174 133.684 92.5646C132.997 92.2479 132.734 91.5091 132.997 90.8231L133.42 89.8731C133.684 89.1871 134.475 88.8704 135.161 89.1343C135.847 89.3982 136.164 90.1898 135.9 90.8758L135.478 91.8785C135.214 92.4063 134.686 92.6701 134.211 92.6701ZM136.058 87.7622C135.9 87.7622 135.794 87.7622 135.636 87.7094C134.95 87.4983 134.581 86.7595 134.792 86.0735C134.897 85.7568 135.003 85.4402 135.108 85.0708C135.319 84.3847 136.058 83.9625 136.744 84.1736C137.43 84.3847 137.853 85.1235 137.642 85.8096L137.325 86.8651C137.114 87.3928 136.639 87.7622 136.058 87.7622ZM137.43 82.6432C137.325 82.6432 137.219 82.6432 137.167 82.5904C136.428 82.4321 136.006 81.746 136.164 81.0072L136.375 80.0045C136.533 79.2657 137.219 78.8435 137.905 78.949C138.644 79.1074 139.066 79.7934 138.961 80.4795L138.75 81.5349C138.591 82.221 138.011 82.6432 137.43 82.6432ZM138.275 77.4714H138.116C137.378 77.3658 136.85 76.7326 136.955 75.9937L137.061 74.991C137.114 74.2522 137.747 73.7245 138.486 73.7772C139.225 73.83 139.752 74.4633 139.7 75.2021C139.647 75.5715 139.647 75.941 139.594 76.2576C139.541 76.9436 138.961 77.4714 138.275 77.4714ZM138.591 72.194C137.853 72.194 137.272 71.5608 137.272 70.8747V69.8192C137.272 69.0804 137.853 68.4999 138.591 68.4999C139.33 68.4999 139.911 69.0804 139.911 69.8192V70.8747C139.911 71.6135 139.33 72.194 138.591 72.194ZM138.433 66.9167C137.747 66.9167 137.167 66.389 137.114 65.7029L137.008 64.7002C136.955 63.9614 137.43 63.3281 138.169 63.2226C138.908 63.1698 139.541 63.6447 139.647 64.3836C139.7 64.753 139.7 65.1224 139.752 65.439C139.805 66.1779 139.277 66.8111 138.539 66.8639C138.486 66.9167 138.433 66.9167 138.433 66.9167ZM137.694 61.6921C137.061 61.6921 136.533 61.2699 136.375 60.6367C136.322 60.32 136.269 59.9506 136.164 59.634C136.006 58.8951 136.481 58.2091 137.167 58.0508C137.853 57.8924 138.591 58.3674 138.75 59.0535L138.961 60.1089C139.119 60.8478 138.644 61.5338 137.905 61.6394C137.853 61.6921 137.747 61.6921 137.694 61.6921ZM136.428 56.5731C135.847 56.5731 135.319 56.2037 135.161 55.6232C135.056 55.3065 134.95 54.9899 134.845 54.6205C134.633 53.9344 135.003 53.1956 135.689 52.9845C136.375 52.7734 137.114 53.1428 137.325 53.8289L137.642 54.8844C137.853 55.5704 137.43 56.3092 136.744 56.5203C136.692 56.5203 136.586 56.5731 136.428 56.5731ZM134.686 51.6124C134.158 51.6124 133.684 51.2958 133.472 50.768C133.367 50.4514 133.209 50.1347 133.05 49.8181C132.786 49.132 133.05 48.3932 133.736 48.0766C134.422 47.8127 135.161 48.0766 135.478 48.7626L135.9 49.7653C136.164 50.4514 135.847 51.1902 135.161 51.5069C135.003 51.5596 134.845 51.6124 134.686 51.6124ZM132.47 46.81C131.995 46.81 131.52 46.5462 131.309 46.124L130.834 45.2268C130.464 44.5935 130.728 43.8019 131.361 43.4325C131.995 43.0631 132.786 43.327 133.156 43.9603L133.684 44.9102C134 45.5435 133.789 46.3351 133.156 46.7045C132.892 46.7572 132.681 46.81 132.47 46.81Z" fill="#E5E6E8"/>
<path d="M41.1186 97.2096C40.9603 97.2096 40.8019 97.1569 40.6436 97.1041L33.1498 94.2016C32.4637 93.9377 32.1471 93.1461 32.411 92.5128C32.6748 91.8268 33.4664 91.5101 34.0997 91.774L40.327 94.2016L42.8073 87.816C43.0712 87.1299 43.8628 86.8133 44.4961 87.0771C45.1821 87.341 45.4988 88.1326 45.2349 88.7659L42.2796 96.3653C42.1213 96.893 41.6463 97.2096 41.1186 97.2096ZM40.9603 96.7347C40.4853 96.7347 40.0103 96.4708 39.7992 96.0486C33.0442 83.2247 31.6721 68.6064 35.894 54.7798C40.1159 40.9532 49.5096 29.6596 62.2807 22.9046C81.5958 12.6666 105.027 15.0414 121.915 28.9208C122.495 29.3958 122.548 30.2401 122.073 30.7679C121.598 31.3484 120.754 31.4012 120.226 30.9262C104.13 17.7328 81.9124 15.5164 63.4945 25.2267C51.3566 31.665 42.4379 42.4308 38.3744 55.5714C34.3108 68.712 35.6301 82.6442 42.0685 94.7821C42.3851 95.4153 42.174 96.2069 41.5408 96.5764C41.3824 96.6819 41.1713 96.7347 40.9603 96.7347Z" fill="white"/>
<path d="M128.985 53.3535C128.827 53.3535 128.616 53.3007 128.457 53.248C127.613 52.9313 127.191 52.0342 127.507 51.2426L130.304 43.5904C130.463 43.221 130.727 42.8516 131.149 42.6933C131.518 42.535 131.94 42.4822 132.363 42.6405L139.909 45.3847C140.754 45.7014 141.176 46.5985 140.859 47.3901C140.543 48.2345 139.645 48.6567 138.854 48.34L132.785 46.1236L130.516 52.2981C130.252 52.9313 129.618 53.3535 128.985 53.3535Z" fill="#E5E6E8"/>
<path d="M106.927 41.9551H66.7133C63.4941 41.9551 60.9082 44.541 60.9082 47.7602V79.3187C60.9082 82.5378 63.4941 85.1237 66.7133 85.1237H70.8824V94.5702C70.8824 94.9924 71.2518 95.3618 71.674 95.3618C71.8851 95.3618 72.0962 95.2562 72.2545 95.1507L82.2814 85.1237H106.927C110.146 85.1237 112.732 82.5378 112.732 79.3187V47.7602C112.784 44.541 110.146 41.9551 106.927 41.9551Z" fill="white"/>
<path d="M71.7275 96.4161C71.2525 96.4161 70.7776 96.205 70.4082 95.8884C70.0387 95.5189 69.8804 95.0968 69.8804 94.569V86.1781H66.7668C63.0199 86.1781 59.9062 83.0644 59.9062 79.3175V47.759C59.9062 44.0121 63.0199 40.8984 66.7668 40.8984H106.98C110.78 40.8984 113.841 44.0121 113.841 47.759V79.3175C113.841 83.0644 110.727 86.1781 106.98 86.1781H82.7572L73.0468 95.8884C72.7302 96.2578 72.2552 96.4161 71.7275 96.4161ZM70.9359 84.0671H71.9914V93.9357L81.9128 84.0143H106.98C109.566 84.0143 111.73 81.8506 111.73 79.2647V47.759C111.73 45.1203 109.566 43.0094 106.98 43.0094H66.7668C64.1809 43.0094 62.0172 45.1731 62.0172 47.759V79.3175C62.0172 81.9034 64.1809 84.0671 66.7668 84.0671H70.9359Z" fill="#81B441"/>
<path opacity="0.22" d="M110.356 45.1211H70.1957C66.9765 45.1211 64.3906 47.707 64.3906 50.9262V82.4847C64.3906 85.7039 66.9765 88.2898 70.1957 88.2898H74.3648V97.7362C74.3648 98.1584 74.7342 98.5278 75.1564 98.5278C75.3675 98.5278 75.5786 98.4223 75.7369 98.3167L85.7639 88.2898H110.409C113.628 88.2898 116.214 85.7039 116.214 82.4847V50.9262C116.214 47.707 113.575 45.1211 110.356 45.1211Z" fill="#81B441"/>
<path opacity="0.8" d="M85.0263 56.15H69.0887C68.5082 56.15 68.0332 55.675 68.0332 55.0945C68.0332 54.514 68.5082 54.0391 69.0887 54.0391H85.0263C85.6068 54.0391 86.0818 54.514 86.0818 55.0945C86.0818 55.675 85.6068 56.15 85.0263 56.15ZM100.225 59.9497H69.0359C68.4554 59.9497 67.9805 59.4747 67.9805 58.8942C67.9805 58.3137 68.4554 57.8387 69.0359 57.8387H100.225C100.806 57.8387 101.281 58.3137 101.281 58.8942C101.281 59.4747 100.806 59.9497 100.225 59.9497ZM100.225 77.8927H69.0359C68.4554 77.8927 67.9805 77.4177 67.9805 76.8372C67.9805 76.2567 68.4554 75.7817 69.0359 75.7817H100.225C100.806 75.7817 101.281 76.2567 101.281 76.8372C101.281 77.4177 100.806 77.8927 100.225 77.8927ZM92.5201 64.7521H69.0359C68.4554 64.7521 67.9805 64.2771 67.9805 63.6966C67.9805 63.1161 68.4554 62.6411 69.0359 62.6411H92.5201C93.1006 62.6411 93.5756 63.1161 93.5756 63.6966C93.5756 64.3299 93.1006 64.7521 92.5201 64.7521ZM75.3687 69.6072H69.0359C68.4554 69.6072 67.9805 69.1323 67.9805 68.5518C67.9805 67.9712 68.4554 67.4963 69.0359 67.4963H75.3687C75.9493 67.4963 76.4242 67.9712 76.4242 68.5518C76.4242 69.1323 75.9493 69.6072 75.3687 69.6072ZM93.47 69.6072H86.8206C86.2401 69.6072 85.7651 69.1323 85.7651 68.5518C85.7651 67.9712 86.2401 67.4963 86.8206 67.4963H93.47C94.0505 67.4963 94.5255 67.9712 94.5255 68.5518C94.5255 69.1323 94.1033 69.6072 93.47 69.6072ZM101.808 69.6072H98.4835C97.903 69.6072 97.428 69.1323 97.428 68.5518C97.428 67.9712 97.903 67.4963 98.4835 67.4963H101.808C102.389 67.4963 102.864 67.9712 102.864 68.5518C102.864 69.1323 102.389 69.6072 101.808 69.6072Z" fill="white"/>
</svg>
