<svg width="20" height="20" viewBox="0 0 20 20" fill="none" xmlns="http://www.w3.org/2000/svg">
<path d="M19.6676 19.6801C19.4537 19.8805 19.1731 19.9946 18.8801 20.0001C18.7342 20.0027 18.5892 19.9757 18.4541 19.9207C18.3189 19.8657 18.1964 19.7839 18.0938 19.6801L14.5288 16.0688C12.9539 17.313 11.0046 17.9883 8.99756 17.9851C7.81516 17.9893 6.64365 17.7591 5.55072 17.3079C4.45779 16.8567 3.46511 16.1934 2.63006 15.3563C1.79266 14.5222 1.12904 13.5302 0.677598 12.4379C0.226157 11.3455 -0.00413394 10.1745 5.61665e-05 8.99255C5.61665e-05 6.58505 0.933806 4.3238 2.63006 2.63005C3.46501 1.79271 4.45764 1.12916 5.55057 0.677741C6.64351 0.226321 7.81507 -0.00401258 8.99756 5.28932e-05C11.4076 5.28932e-05 13.6688 0.933803 15.3651 2.6288C18.5863 5.84755 18.8801 10.9588 16.0776 14.5451L19.6676 18.1088C19.7725 18.211 19.856 18.3331 19.9129 18.468C19.9699 18.603 19.9992 18.748 19.9992 18.8944C19.9992 19.0409 19.9699 19.1859 19.9129 19.3208C19.856 19.4557 19.7725 19.5779 19.6676 19.6801ZM13.7926 4.2013C13.1648 3.56881 12.4176 3.06722 11.5945 2.72563C10.7714 2.38403 9.88872 2.20921 8.99756 2.2113C7.20256 2.2113 5.48256 2.9238 4.20381 4.2013C3.57131 4.82839 3.06961 5.57481 2.72779 6.39728C2.38597 7.21974 2.21084 8.10189 2.21256 8.99255C2.21256 10.7863 2.92506 12.5051 4.20381 13.7838C4.83304 14.4138 5.5803 14.9137 6.40285 15.2547C7.2254 15.5957 8.10711 15.7713 8.99756 15.7713C9.888 15.7713 10.7697 15.5957 11.5923 15.2547C12.4148 14.9137 13.1621 14.4138 13.7913 13.7838C14.424 13.1568 14.9258 12.4104 15.2676 11.5879C15.6094 10.7655 15.7845 9.88325 15.7826 8.99255C15.7826 7.17505 15.0701 5.48005 13.7913 4.2013H13.7926Z" fill="#FF9701"/>
</svg>
