<svg width="8" height="14" viewBox="0 0 8 14" fill="none" xmlns="http://www.w3.org/2000/svg">
<path d="M0.642381 0.000896596C0.81148 0.00319406 0.973613 0.0686164 1.09695 0.18432L7.4769 6.56427C7.5967 6.68523 7.66391 6.84859 7.66391 7.01884C7.66391 7.18909 7.5967 7.35245 7.4769 7.47341L1.09695 13.8534C0.972992 13.9551 0.815623 14.0071 0.655452 13.9992C0.495282 13.9914 0.343764 13.9242 0.23037 13.8108C0.116976 13.6974 0.0498137 13.5459 0.0419473 13.3857C0.0340804 13.2255 0.0860727 13.0682 0.18781 12.9442L6.12116 7.01884L0.18781 1.09346C0.068006 0.972503 0.000797299 0.809139 0.000797299 0.638891C0.000797299 0.468644 0.068006 0.30528 0.18781 0.18432C0.311148 0.0686164 0.473282 0.00319406 0.642381 0.000896596Z" fill="#2D3139"/>
</svg>
