<svg width="64" height="64" viewBox="0 0 64 64" fill="none" xmlns="http://www.w3.org/2000/svg">
<path d="M42.4345 38.2608V33.0434C42.4323 32.6792 42.3349 32.3219 42.1518 32.007C41.9687 31.6922 41.7065 31.4307 41.3911 31.2486V25.9477C41.3883 25.3397 41.1456 24.7574 40.7157 24.3275C40.2857 23.8976 39.7034 23.6549 39.0954 23.6521H34.5563C34.6711 23.5165 34.7963 23.3912 34.9111 23.2451C35.3908 22.6459 35.8135 22.003 36.1737 21.3252C36.4629 20.7661 36.5488 20.124 36.4166 19.5086C36.2845 18.8932 35.9425 18.3429 35.4492 17.952C34.9559 17.5611 34.342 17.3538 33.7127 17.3657C33.0835 17.3776 32.4779 17.608 31.9997 18.0173C31.5216 17.608 30.916 17.3776 30.2868 17.3657C29.6575 17.3538 29.0436 17.5611 28.5503 17.952C28.057 18.3429 27.715 18.8932 27.5829 19.5086C27.4507 20.124 27.5366 20.7661 27.8258 21.3252C28.1793 22.0022 28.5951 22.645 29.0675 23.2451C29.1824 23.3912 29.3076 23.5165 29.4224 23.6521H24.9041C24.2961 23.6549 23.7138 23.8976 23.2838 24.3275C22.8539 24.7574 22.6112 25.3397 22.6084 25.9477V31.2486C22.293 31.4307 22.0308 31.6922 21.8477 32.007C21.6646 32.3219 21.5672 32.6792 21.565 33.0434V38.2608C21.2882 38.2608 21.0228 38.3707 20.8271 38.5664C20.6314 38.7621 20.5215 39.0275 20.5215 39.3043C20.5215 39.581 20.6314 39.8464 20.8271 40.0421C21.0228 40.2378 21.2882 40.3477 21.565 40.3477H29.1824C29.4415 41.2338 29.3673 42.184 28.9737 43.019C28.6564 43.6504 28.1589 44.1734 27.5441 44.5216H25.7389C25.4621 44.5216 25.1967 44.6316 25.001 44.8273C24.8053 45.023 24.6954 45.2884 24.6954 45.5651C24.6954 45.8419 24.8053 46.1073 25.001 46.303C25.1967 46.4987 25.4621 46.6086 25.7389 46.6086H38.2606C38.5374 46.6086 38.8028 46.4987 38.9985 46.303C39.1942 46.1073 39.3041 45.8419 39.3041 45.5651C39.3041 45.2884 39.1942 45.023 38.9985 44.8273C38.8028 44.6316 38.5374 44.5216 38.2606 44.5216H36.4554C35.8406 44.1734 35.3431 43.6504 35.0258 43.019C34.6322 42.184 34.558 41.2338 34.8171 40.3477H42.4345C42.7113 40.3477 42.9767 40.2378 43.1724 40.0421C43.3681 39.8464 43.478 39.581 43.478 39.3043C43.478 39.0275 43.3681 38.7621 43.1724 38.5664C42.9767 38.3707 42.7113 38.2608 42.4345 38.2608ZM29.725 19.7912C29.7725 19.7083 29.8385 19.6374 29.9177 19.584C29.997 19.5305 30.0874 19.4959 30.1821 19.4828C30.2768 19.4697 30.3733 19.4785 30.464 19.5084C30.5548 19.5384 30.6375 19.5887 30.7058 19.6556L31.2589 20.2191C31.3559 20.3168 31.4713 20.3945 31.5984 20.4475C31.7256 20.5004 31.862 20.5277 31.9997 20.5277C32.1375 20.5277 32.2739 20.5004 32.4011 20.4475C32.5282 20.3945 32.6436 20.3168 32.7406 20.2191L33.2937 19.6556C33.3637 19.5924 33.4467 19.5453 33.5369 19.5175C33.6271 19.4898 33.7222 19.4821 33.8157 19.4951C33.9091 19.508 33.9986 19.5412 34.0779 19.5924C34.1572 19.6435 34.2243 19.7114 34.2745 19.7912C34.324 19.8769 34.35 19.974 34.35 20.073C34.35 20.1719 34.324 20.269 34.2745 20.3547C33.9687 20.9198 33.6198 21.4606 33.2311 21.9721C32.8588 22.4576 32.447 22.9113 31.9997 23.3286C31.5416 22.9126 31.1193 22.4588 30.7372 21.9721C30.3483 21.4606 29.9995 20.9198 29.6937 20.3547C29.6489 20.2663 29.6282 20.1677 29.6337 20.0687C29.6392 19.9699 29.6706 19.8741 29.725 19.7912ZM23.6519 33.0434H40.1493C40.0173 33.1187 39.9034 33.222 39.8154 33.346C39.4899 33.838 39.0606 34.2528 38.5576 34.561C38.0546 34.8693 37.4902 35.0636 36.9041 35.1303C36.3432 35.1893 35.7762 35.1215 35.245 34.9321C33.0419 34.1446 30.6341 34.1446 28.4311 34.9321C28.1341 35.0372 27.8259 35.1073 27.5128 35.1408C26.7449 35.2027 25.9751 35.0466 25.2921 34.6903C24.609 34.334 24.0405 33.7921 23.6519 33.1269V33.0434ZM24.6954 28.5982C25.7626 29.2548 26.9456 29.7011 28.1806 29.9129C28.4565 29.9111 28.732 29.8902 29.0049 29.8503C29.3086 29.7971 29.6084 29.7239 29.9023 29.6312C31.4886 29.089 33.21 29.089 34.7963 29.6312C35.0899 29.7251 35.3898 29.7983 35.6937 29.8503C35.9667 29.8896 36.2421 29.9105 36.518 29.9129C37.5214 29.7709 38.4765 29.3918 39.3041 28.8069V30.9564H24.6954V28.5982ZM24.9041 25.739H39.0954C39.1508 25.739 39.2038 25.761 39.243 25.8002C39.2821 25.8393 39.3041 25.8924 39.3041 25.9477V26.2712C38.4871 26.9626 37.5448 27.4905 36.5284 27.826C36.3619 27.8419 36.1941 27.8419 36.0276 27.826C35.8396 27.7968 35.6546 27.7514 35.4745 27.6904C33.4455 26.9947 31.2427 26.9947 29.2136 27.6904C29.0335 27.7514 28.8486 27.7968 28.6606 27.826C28.4973 27.8358 28.3335 27.8358 28.1702 27.826C26.9388 27.4554 25.7683 26.907 24.6954 26.1982V25.9477C24.6954 25.8924 24.7174 25.8393 24.7565 25.8002C24.7957 25.761 24.8487 25.739 24.9041 25.739ZM33.1476 43.9373C33.2481 44.138 33.3596 44.3332 33.4815 44.5216H30.518C30.6399 44.3332 30.7514 44.138 30.8519 43.9373C31.3925 42.8229 31.5537 41.5623 31.3111 40.3477H32.6884C32.4458 41.5623 32.607 42.8229 33.1476 43.9373ZM34.0867 38.2608H23.6519V36.1008C24.8399 36.9242 26.2838 37.2945 27.7215 37.1443C28.2066 37.0987 28.6837 36.99 29.1406 36.8208C30.8952 36.195 32.8122 36.195 34.5667 36.8208C35.1941 37.0395 35.8535 37.1524 36.518 37.1547C36.7162 37.1651 36.9147 37.1651 37.1128 37.1547C38.3 37.0414 39.4263 36.5764 40.3476 35.819V38.2608H34.0867Z" fill="#213A52"/>
</svg>
