<svg width="30" height="30" viewBox="0 0 30 30" fill="none" xmlns="http://www.w3.org/2000/svg">
<path d="M29.9993 10.0003C29.9994 7.98584 29.3912 6.01833 28.2541 4.35547C27.1171 2.69261 25.5043 1.41192 23.6271 0.681168C21.7499 -0.0495962 19.6957 -0.196354 17.7337 0.260104C15.7716 0.716562 13.9932 1.75496 12.6313 3.23928H8.097C3.62515 3.23928 0 6.86443 0 11.3363V29.8986H17.5603C22.5912 29.8986 26.6695 25.8203 26.6695 20.7895V17.4394C27.7162 16.5032 28.5538 15.3567 29.1276 14.0749C29.7014 12.793 29.9984 11.4047 29.9993 10.0003ZM24.8679 10.0003C24.8699 10.9655 24.5855 11.9097 24.0507 12.7134C23.5158 13.5169 22.7547 14.1438 21.8634 14.5146C20.9721 14.8854 19.991 14.9835 19.0439 14.7963C18.097 14.6093 17.2267 14.1454 16.5435 13.4636C15.8602 12.7817 15.3946 11.9125 15.2055 10.9658C15.0165 10.0193 15.1125 9.03784 15.4814 8.14586C15.8504 7.25383 16.4756 6.49133 17.2781 5.95483C18.0806 5.41834 19.0242 5.13196 19.9894 5.13195C21.2815 5.13195 22.5209 5.64454 23.4354 6.55724C24.3501 7.46993 24.8652 8.70819 24.8679 10.0003ZM21.538 19.8786C21.538 22.5785 19.3493 24.7672 16.6494 24.7672H5.13147V13.3706C5.13147 10.6093 7.36999 8.37075 10.1313 8.37075C10.0348 8.9087 9.98398 9.45383 9.97953 10.0003C9.98226 12.6543 11.0377 15.1987 12.9144 17.0754C14.791 18.952 17.3354 20.0076 19.9894 20.0102C20.5084 20.0074 21.0262 19.9634 21.538 19.8786Z" fill="#3A6FF8"/>
</svg>
