<svg width="27" height="21" viewBox="0 0 27 21" fill="none" xmlns="http://www.w3.org/2000/svg">
<path d="M0.563783 1.64299C4.26943 4.78127 10.7717 10.3025 12.6828 12.024C12.9393 12.2563 13.2145 12.3744 13.5002 12.3744C13.7852 12.3744 14.0599 12.2574 14.3159 12.0262C16.2286 10.303 22.7309 4.78127 26.4366 1.64299C26.6673 1.44798 26.7025 1.10521 26.5157 0.866795C26.0839 0.315879 25.4401 0 24.7501 0H2.25018C1.56025 0 0.916417 0.315879 0.484681 0.866848C0.297896 1.10521 0.33307 1.44798 0.563783 1.64299Z" fill="#F6E3FF"/>
<path d="M26.6737 3.34346C26.4743 3.25064 26.2398 3.28302 26.0739 3.42477C21.9644 6.90851 16.7195 11.374 15.0694 12.8609C14.1432 13.697 12.8578 13.697 11.9295 12.8598C10.1706 11.275 4.28077 6.268 0.926121 3.42472C0.759111 3.28297 0.524022 3.2517 0.326268 3.3434C0.127459 3.43574 0 3.6346 0 3.85377V17.9998C0 19.2407 1.00907 20.2498 2.25002 20.2498H24.75C25.9909 20.2498 27 19.2407 27 17.9998V3.85377C27 3.6346 26.8725 3.43521 26.6737 3.34346Z" fill="#F6E3FF"/>
</svg>
