<svg width="20" height="17" viewBox="0 0 20 17" fill="none" xmlns="http://www.w3.org/2000/svg">
<path d="M5 0.5H15C16.4234 0.5 17.5331 0.855911 18.2848 1.5539C19.0297 2.24565 19.5 3.3453 19.5 5V12C19.5 13.6547 19.0297 14.7543 18.2848 15.4461C17.5331 16.1441 16.4234 16.5 15 16.5H5C3.57665 16.5 2.4669 16.1441 1.71523 15.4461C0.970257 14.7543 0.5 13.6547 0.5 12V5C0.5 3.3453 0.970257 2.24565 1.71523 1.5539C2.4669 0.855911 3.57665 0.5 5 0.5ZM3 14.75H6C6.68614 14.75 7.25 14.1861 7.25 13.5C7.25 12.8139 6.68614 12.25 6 12.25H3C2.31386 12.25 1.75 12.8139 1.75 13.5C1.75 14.1861 2.31386 14.75 3 14.75ZM6.5 8.5C6.5 10.4361 8.06386 12 10 12C11.9361 12 13.5 10.4361 13.5 8.5C13.5 6.56386 11.9361 5 10 5C8.06386 5 6.5 6.56386 6.5 8.5ZM14 4.75H17C17.6861 4.75 18.25 4.18614 18.25 3.5C18.25 2.81386 17.6861 2.25 17 2.25H14C13.3139 2.25 12.75 2.81386 12.75 3.5C12.75 4.18614 13.3139 4.75 14 4.75Z" fill="#7C7C7C" stroke="#7C7C7C"/>
</svg>
