<svg width="40" height="52" viewBox="0 0 40 52" fill="none" xmlns="http://www.w3.org/2000/svg">
<rect y="5.59375" width="40" height="40" rx="20" fill="white"/>
<g clip-path="url(#clip0_52_57842)">
<path fill-rule="evenodd" clip-rule="evenodd" d="M20.8801 48.7964C20.2027 49.3762 19.547 49.5984 18.6854 49.8423C16.6046 50.059 14.7784 49.891 13.1365 49.4467C13.0064 48.6068 13.169 47.6964 13.6838 46.9973C14.773 46.6885 16.572 45.8756 18.0081 44.7052L22.6575 44.5859C23.324 45.8811 23.4161 46.5259 23.4866 47.9673C22.6412 48.3033 21.7742 48.5797 20.8801 48.7964Z" fill="#3C3C3C"/>
<path fill-rule="evenodd" clip-rule="evenodd" d="M18.1008 44.9834C16.7515 45.91 15.4781 46.7337 13.8849 47.2105C13.5598 47.6657 13.3918 48.2781 13.3701 48.7874C15.0771 49.2155 16.8165 49.3402 18.5343 49.1505C19.862 48.9663 20.7832 48.1155 20.8482 48.0938C21.26 47.9909 21.6502 47.8771 22.0403 47.7579C22.4251 47.6386 22.799 47.514 23.1837 47.3785C23.1079 46.3977 22.9507 45.7529 22.4955 44.875L18.1008 44.9834Z" fill="url(#paint0_linear_52_57842)"/>
<path fill-rule="evenodd" clip-rule="evenodd" d="M13.3701 48.9191C13.3701 49.0275 13.3755 49.1305 13.3918 49.2226C15.1096 49.6615 16.3939 49.7536 18.6102 49.5802C19.6344 49.2876 20.1492 49.0708 20.7344 48.5561C21.6231 48.3393 22.4739 48.0629 23.2 47.7703L23.1837 47.5156L22.0729 47.8841C21.6881 48.0033 21.298 48.1117 20.8915 48.2201C20.5881 48.4694 20.1979 48.7186 19.7644 48.9191C19.3959 49.0871 18.957 49.2334 18.5452 49.2822C16.9412 49.4881 14.9849 49.3255 13.3701 48.9191Z" fill="#4B4B4B"/>
<path fill-rule="evenodd" clip-rule="evenodd" d="M13.3701 48.918C13.3701 49.0263 13.3755 49.1293 13.3918 49.2214C15.0933 49.6604 16.3722 49.7525 18.556 49.5791L18.5506 49.2756C16.9412 49.487 14.9849 49.3244 13.3701 48.918Z" fill="#666666"/>
<path fill-rule="evenodd" clip-rule="evenodd" d="M17.3258 45.506C16.2474 46.2105 15.1745 46.8228 13.8848 47.2076C15.3208 47.5381 16.4587 47.549 18.3174 47.4948C19.049 47.2509 19.8618 46.7524 20.5879 46.2376C20.3224 45.9829 20.0569 45.7716 19.7155 45.5765C19.4175 45.5386 19.114 45.5006 18.816 45.4844C19.1086 45.5548 19.3741 45.6686 19.5638 45.8095C19.6667 45.8908 19.4825 46.1617 19.2657 46.0263C18.5938 45.609 17.8731 45.5331 17.1361 45.8095C17.2553 45.6524 17.4341 45.5494 17.6346 45.4844C17.5317 45.4898 17.4233 45.5006 17.3258 45.506ZM18.9081 46.3514C19.011 46.4327 18.8268 46.7036 18.6155 46.5682C17.9489 46.1509 17.2174 46.1075 16.475 46.3351C17.1198 45.7011 18.3174 45.9179 18.9081 46.3514Z" fill="url(#paint1_linear_52_57842)"/>
<path fill-rule="evenodd" clip-rule="evenodd" d="M20.6098 48.2973L20.8645 48.1239C21.3035 48.0101 21.7315 47.88 22.1596 47.7391C21.5473 46.4494 20.9458 46.0213 20.1438 45.707C19.732 45.978 19.2443 46.3627 18.8975 46.7041C19.6073 46.9642 20.2522 47.6036 20.6098 48.2973Z" fill="#3C3C3C"/>
<path fill-rule="evenodd" clip-rule="evenodd" d="M20.0354 45.7773C19.6453 46.0429 19.2118 46.3897 18.8975 46.6986C19.0709 46.7636 19.2389 46.8449 19.396 46.9532C19.797 46.7527 20.198 46.5089 20.5827 46.2379C20.4093 46.07 20.2359 45.9182 20.0354 45.7773Z" fill="#666666"/>
<path fill-rule="evenodd" clip-rule="evenodd" d="M20.7615 48.1661C20.7994 48.1444 20.8265 48.1227 20.8536 48.101L21.1679 48.0198C20.8103 47.2069 20.2575 46.6271 19.3309 46.3128C19.2225 46.4049 19.1141 46.497 19.0166 46.5892C19.8294 46.8601 20.3659 47.4779 20.7615 48.1661ZM21.4118 47.9439C21.5852 47.8951 21.764 47.8409 21.9374 47.7813C21.5472 46.8764 20.897 46.1719 19.9432 45.8359C19.8186 45.9226 19.6831 46.0202 19.5585 46.1231C20.4851 46.4754 21.0433 47.0985 21.4118 47.9439Z" fill="#CC6633"/>
<path fill-rule="evenodd" clip-rule="evenodd" d="M20.3221 46.0063C20.2029 45.9413 20.0783 45.8871 19.9428 45.8438L19.5581 46.131C19.8073 46.2231 20.0295 46.3423 20.2354 46.4778C20.3546 46.4019 20.4684 46.3206 20.5822 46.2393C20.5009 46.158 20.4142 46.0768 20.3221 46.0063ZM19.325 46.3152C19.2167 46.4073 19.1083 46.4994 19.0107 46.5916C19.2167 46.6566 19.4063 46.7487 19.5797 46.8571L19.9916 46.6241C19.7965 46.5049 19.5743 46.4019 19.325 46.3152Z" fill="#FF9701"/>
<path fill-rule="evenodd" clip-rule="evenodd" d="M18.1015 44.9812C17.5921 45.2847 17.0936 45.5719 16.6547 45.935C16.4054 46.1355 16.1724 46.3468 15.9502 46.569L16.0206 46.6394C16.4433 46.2167 16.9202 45.8266 17.4404 45.4635C17.6788 45.2955 17.9335 45.133 18.1936 44.9812H18.1015ZM21.5425 44.8945L21.3257 44.8999C20.8868 45.1438 20.475 45.3931 20.0848 45.664C19.5592 46.0271 19.0769 46.4227 18.6542 46.8508L18.7193 46.9158C19.1419 46.4931 19.6188 46.1029 20.139 45.7399C20.5779 45.4418 21.0494 45.1601 21.5425 44.8945ZM20.8001 44.9162L20.5237 44.9216C20.1715 45.1221 19.8355 45.3335 19.5212 45.5556C18.9956 45.9241 18.5133 46.3143 18.0852 46.7424L18.1774 46.8345C18.6 46.4118 19.0715 46.0217 19.5917 45.6586C19.9764 45.3931 20.3774 45.1492 20.8001 44.9162ZM18.7247 44.965L18.4591 44.9704C18.2261 45.1113 17.9931 45.2576 17.7764 45.4093C17.2507 45.7724 16.7684 46.168 16.3458 46.5961L16.4379 46.6882C16.8606 46.2655 17.3374 45.8754 17.8522 45.5123C18.1232 45.328 18.4158 45.1384 18.7247 44.965Z" fill="#4B4B4B"/>
<path fill-rule="evenodd" clip-rule="evenodd" d="M15.6463 46.4992C15.4729 46.548 15.332 46.6184 15.2236 46.6997C16.47 46.6509 17.7759 46.7051 18.9735 47.0844C19.2824 47.6101 19.4612 48.2224 19.6238 48.8347C19.6942 48.8293 19.7538 48.8022 19.8026 48.7535C19.6617 48.2224 19.4612 47.4909 19.0819 46.9219C17.971 46.5642 16.8059 46.4775 15.6463 46.4992Z" fill="#4B4B4B"/>
<path d="M19.661 45.7059C19.7586 45.7872 19.5743 46.0582 19.363 45.9227C18.6911 45.5054 17.9649 45.4296 17.2334 45.7059C17.7157 45.0828 19.0595 45.267 19.661 45.7059ZM19.0053 46.2532C19.1029 46.3345 18.9132 46.6163 18.7073 46.47C18.0516 46.0148 17.3147 45.9877 16.5723 46.237C17.228 45.5705 18.4309 45.7764 19.0053 46.2532Z" fill="#3C3C3C"/>
<path fill-rule="evenodd" clip-rule="evenodd" d="M26.6185 46.325C26.7594 47.3058 26.2013 48.3733 26.1146 48.8339C26.0008 49.4517 26.0658 49.8689 26.0821 50.5842C27.4585 51.4404 31.0945 51.4784 32.5522 50.2537C32.5576 49.7064 32.6064 48.9098 32.3734 48.4329C31.9453 47.7014 31.6147 46.8235 31.3763 45.8156L29.8319 43.6914L27.2905 44.0924L26.185 45.4255L26.6185 46.325Z" fill="#3C3C3C"/>
<path fill-rule="evenodd" clip-rule="evenodd" d="M32 48.3427C31.5882 47.584 31.3118 46.7549 31.1167 45.9259L29.7024 43.9805L27.4373 44.3381L26.5052 45.4598L26.8954 46.2456C26.9171 46.6249 26.9333 46.8904 26.8629 47.2697C26.787 47.7032 26.6353 48.1097 26.4944 48.5323C26.4619 48.6353 26.4185 48.7599 26.3969 48.8683C26.321 49.2801 26.3264 49.6866 26.3481 50.093C28.1851 50.7107 30.1847 50.6999 31.9187 49.9304C32.0759 49.7462 32.1084 49.0796 32 48.3427Z" fill="url(#paint2_linear_52_57842)"/>
<path fill-rule="evenodd" clip-rule="evenodd" d="M31.1707 47.541C30.9702 47.0154 30.6884 46.4626 30.5637 45.9099C29.61 45.3463 28.0765 45.4927 27.1227 46.0725C27.1715 46.3814 27.1823 46.8474 27.1065 47.2701C27.0902 47.373 27.074 47.4706 27.0469 47.5681C27.074 48.0991 27.0144 48.343 27.1932 48.7169C28.0494 49.2534 30.6288 49.0041 31.1544 48.4405C31.317 48.2726 31.2032 47.8878 31.1707 47.541Z" fill="url(#paint3_linear_52_57842)"/>
<path fill-rule="evenodd" clip-rule="evenodd" d="M26.3582 50.5096C27.7346 51.252 30.9481 51.2033 32.2757 50.2116C32.2757 49.7022 32.3786 49.0194 32.1294 48.5859C32.1294 48.5859 32.2594 49.7293 31.9831 50.0436L31.9451 50.0761C30.184 50.8565 28.1682 50.8565 26.3528 50.2604C26.3474 50.3417 26.3528 50.4284 26.3582 50.5096Z" fill="#4B4B4B"/>
<path fill-rule="evenodd" clip-rule="evenodd" d="M26.3585 50.5091C27.594 51.1756 30.2926 51.2081 31.7991 50.4929L31.7882 50.1406C30.065 50.8559 28.1142 50.8342 26.3477 50.2598C26.3477 50.3411 26.3531 50.4278 26.3585 50.5091Z" fill="#666666"/>
<path fill-rule="evenodd" clip-rule="evenodd" d="M26.7217 47.8282C26.9493 47.606 27.2311 47.4326 27.5345 47.308C27.502 46.907 27.437 46.5168 27.3394 46.1321C27.166 46.2513 27.0197 46.3813 26.9005 46.5385C26.8192 47.0154 26.7488 47.3838 26.7217 47.8282ZM30.2006 47.0966C30.84 47.2213 31.3928 47.4543 31.7125 47.7577C31.6637 47.3351 31.5391 46.9016 31.2573 46.4843C31.0189 46.2188 30.7046 46.0183 30.3578 45.8828C30.2873 46.2946 30.2331 46.7011 30.2006 47.0966Z" fill="#3C3C3C"/>
<path fill-rule="evenodd" clip-rule="evenodd" d="M27.041 47.4543C27.1873 47.3513 27.3553 47.2646 27.5233 47.1942C27.4908 46.8365 27.4312 46.4843 27.3391 46.1375C27.2686 46.1863 27.2036 46.235 27.144 46.2838C27.1602 46.5493 27.1494 46.8636 27.0952 47.1563L27.041 47.4543ZM30.2111 46.9828C30.5308 47.0479 30.8288 47.14 31.0889 47.2538C30.9209 46.842 30.7259 46.4139 30.6066 45.9912C30.5254 45.9478 30.4441 45.9153 30.3628 45.8828C30.2978 46.2567 30.2436 46.6198 30.2111 46.9828Z" fill="#666666"/>
<path fill-rule="evenodd" clip-rule="evenodd" d="M27.5126 47.1309L27.4747 46.8058C27.2309 46.9304 26.9924 47.0876 26.7757 47.2718L26.7432 47.5482C26.9708 47.3802 27.2363 47.2393 27.5126 47.1309ZM27.453 46.6757C27.4314 46.5619 27.4151 46.4535 27.388 46.3397C27.2092 46.459 27.0358 46.589 26.8678 46.7407C26.8461 46.8491 26.8299 46.9575 26.8136 47.055C27.0087 46.9033 27.22 46.7787 27.453 46.6757ZM30.3305 46.0742C30.6881 46.2097 31.0349 46.4048 31.3655 46.654C31.4251 46.757 31.4739 46.8545 31.5172 46.9575C31.1487 46.7136 30.726 46.5402 30.2763 46.4373C30.2871 46.3127 30.3088 46.1934 30.3305 46.0742ZM30.26 46.5402C30.7206 46.6649 31.1704 46.8762 31.5931 47.1634C31.6256 47.2555 31.6473 47.3368 31.6689 47.4289C31.2463 47.1797 30.7423 47.0063 30.2221 46.9087L30.26 46.5402Z" fill="#CC6633"/>
<path fill-rule="evenodd" clip-rule="evenodd" d="M27.5123 47.1309L27.4743 46.8058L27.1167 47.0171L27.095 47.1526C27.0896 47.2176 27.0733 47.2772 27.0625 47.3422C27.2088 47.261 27.3605 47.1905 27.5123 47.1309ZM27.4527 46.6757L27.3876 46.3397L27.1492 46.5077L27.1384 46.8383C27.2359 46.7733 27.3443 46.7191 27.4527 46.6757ZM30.3301 46.0742L30.6823 46.2314L30.8232 46.6107C30.6498 46.5402 30.4656 46.4861 30.2759 46.4373C30.2867 46.3127 30.3084 46.1934 30.3301 46.0742ZM30.2596 46.5402C30.4764 46.5999 30.6823 46.6703 30.8882 46.7678C30.937 46.8925 30.9912 47.0117 31.0454 47.1363C30.7799 47.0334 30.5035 46.9629 30.2163 46.9087C30.2326 46.7895 30.2434 46.6649 30.2596 46.5402Z" fill="#FF9701"/>
<path fill-rule="evenodd" clip-rule="evenodd" d="M27.7622 47.0192C28.472 46.7591 29.2415 46.7645 29.9297 46.9271C30.114 46.9704 30.076 47.2956 29.8918 47.2685C29.1602 47.1655 28.5317 47.1763 27.8001 47.3606C27.6213 47.4094 27.6267 47.0734 27.7622 47.0192ZM27.6213 46.2551C28.3853 45.9192 29.2578 45.8704 30.0002 46.0926C30.1953 46.1522 30.1627 46.5369 29.9677 46.4936C29.1657 46.331 28.4612 46.3852 27.6917 46.6399C27.4912 46.7049 27.475 46.3147 27.6213 46.2551Z" fill="url(#paint4_linear_52_57842)"/>
<path d="M26.6078 48.1852C26.8083 47.9143 27.063 47.7192 27.3123 47.6759C27.3882 47.665 27.4315 47.6542 27.5074 47.6434C27.4152 46.7438 27.2635 45.7576 26.9275 44.9448L27.0088 44.8472C27.3665 45.6763 27.529 46.6951 27.6212 47.6271C27.7133 47.6108 27.8325 47.5946 27.9246 47.5837C27.8542 46.6246 27.632 45.5354 27.3719 44.6575L27.5128 44.6196C27.7729 45.5029 27.9951 46.5921 28.0709 47.5567C28.6182 47.4916 29.0843 47.47 29.6207 47.4754C29.6262 46.5813 29.6803 45.1398 29.8646 44.2891L29.9892 44.3974C29.8158 45.2482 29.7616 46.6246 29.7562 47.47C29.87 47.47 29.9946 47.4754 30.1084 47.4754C30.1409 46.7655 30.2439 45.8064 30.4336 45.0044L30.5257 45.129C30.3523 45.9039 30.2547 46.8088 30.2277 47.4862C30.4444 47.497 30.6449 47.5187 30.8725 47.5404C31.2627 47.5783 31.6853 47.9577 31.9996 48.3641C32.0538 48.4833 32.0647 48.5862 32.0376 48.6784C31.7504 48.2286 31.2681 47.7246 30.8508 47.6813C29.6262 47.5512 28.5857 47.6054 27.334 47.8113C26.9817 47.871 26.6187 48.3587 26.4073 48.7813C26.3911 48.5862 26.4724 48.3749 26.6078 48.1852Z" fill="#4B4B4B"/>
<path d="M27.7627 46.884C28.4672 46.6239 29.2366 46.6293 29.9248 46.7919C30.1091 46.8352 30.0712 47.1604 29.8869 47.1333C29.1554 47.0303 28.5268 47.0411 27.7952 47.2254C27.6164 47.2742 27.6272 46.9382 27.7627 46.884ZM27.6164 46.1145C28.3805 45.7785 29.2529 45.7298 29.9953 45.9519C30.1904 46.0116 30.1579 46.3909 29.9628 46.3529C29.1608 46.1904 28.4563 46.2446 27.6868 46.4993C27.4863 46.5697 27.4701 46.1795 27.6164 46.1145Z" fill="#3C3C3C"/>
<path fill-rule="evenodd" clip-rule="evenodd" d="M18.2519 39.0662C18.3006 38.7519 18.1272 37.8577 18.1868 37.1316C18.2952 35.8311 18.6258 34.3571 18.8967 32.9699L24.0067 32.8398C23.0096 36.6385 22.8525 37.7385 22.5165 39.7869C22.7333 40.2421 22.8254 40.643 22.7875 41.0007C22.7441 41.4125 22.7441 43.0545 22.7658 43.9052C23.1072 44.4796 23.1668 44.8915 23.2752 45.5851C22.5057 46.0023 22.1101 46.1541 21.2431 46.3221L21.1401 46.2137C20.7933 45.8452 20.4899 45.5742 20.0184 45.4063C19.1677 45.1082 17.8942 44.9402 17.0543 45.4008C17.0326 45.3737 17.0109 45.3196 16.9893 45.2274C17.0597 44.523 17.141 44.1599 17.2602 43.7318C17.3903 43.5638 17.5257 43.3091 17.6233 43.1249C17.7967 42.7022 18.0351 40.5889 18.2519 39.0662Z" fill="#232323"/>
<path fill-rule="evenodd" clip-rule="evenodd" d="M23.644 33.1328L19.1247 33.2466C18.8808 34.455 18.4202 36.5359 18.4527 37.6468C18.5611 38.2049 18.702 39.8577 18.5719 40.2641C18.4961 40.1828 18.4473 40.0202 18.4419 39.668L18.1059 42.1228C18.0734 42.3449 17.9596 43.0927 17.862 43.2716C17.7537 43.4721 17.6453 43.6834 17.5044 43.8622C17.4014 44.247 17.331 44.61 17.2822 45.0002C18.1601 44.7076 19.2818 44.8593 20.1055 45.1465C20.6257 45.3307 20.9617 45.6288 21.3356 46.0189C22.0021 45.8835 22.3706 45.748 22.9666 45.4337C22.8908 44.9568 22.6849 44.312 22.4844 44.0085C22.4681 43.4287 22.4464 41.5104 22.506 40.9631C22.5331 40.703 22.4681 40.4266 22.3922 40.2099C22.273 40.8385 22.1159 41.1636 21.8233 41.6351C22.3868 38.7739 22.9016 35.9723 23.644 33.1328Z" fill="#3C3C3C"/>
<path fill-rule="evenodd" clip-rule="evenodd" d="M18.9507 34.1055C18.7123 35.2868 18.4305 36.7661 18.4576 37.644C18.4901 37.8174 18.528 38.0992 18.5605 38.4135C19.0482 38.8687 19.9153 38.8958 20.6631 38.8307C21.1237 38.5706 21.3567 38.1046 21.5789 37.6874L21.9582 34.9562C20.8582 34.8695 19.7635 34.6365 18.9507 34.1055ZM18.6256 39.8983C18.6202 40.0554 18.6039 40.18 18.5768 40.2559C18.5009 40.1746 18.4522 40.0121 18.4468 39.6598L18.1108 42.1146C18.0783 42.3368 17.9645 43.0846 17.8669 43.2634C17.7586 43.4639 17.6502 43.6752 17.5093 43.8541C17.4063 44.2388 17.3359 44.6019 17.2871 44.992C18.165 44.6994 19.2867 44.8511 20.1104 45.1383C20.5384 45.2846 20.8419 45.5177 21.1454 45.8157C21.0424 45.2359 21.0045 44.9433 20.8744 44.6019C20.8907 43.892 20.972 43.2309 21.0641 42.4993C21.205 42.185 21.2917 41.9737 21.3892 41.7136C21.4651 41.1013 21.4109 40.348 21.3621 39.5731C20.9936 40.1421 20.701 40.6948 20.3921 40.8628C19.8828 40.9875 19.2542 40.8899 18.7827 40.6732L18.6256 39.8983Z" fill="url(#paint5_linear_52_57842)"/>
<path fill-rule="evenodd" clip-rule="evenodd" d="M20.9668 35.5086C21.0318 35.7037 21.2594 35.9421 21.3841 35.9963C21.6225 36.1047 21.7959 36.186 21.9747 36.3106C22.4678 37.3565 22.9393 38.7004 23.4595 39.5295C23.7738 39.8817 23.9526 40.0659 24.191 40.3694C24.8847 42.0059 25.4699 43.1655 25.8438 44.6557C25.9142 44.9375 25.9684 45.5769 25.9847 45.9888C26.0985 46.2109 26.3911 46.4169 26.6187 46.4927C26.7921 46.1784 27.0522 45.8533 27.1823 45.7612C28.0926 45.1055 30.504 45.0025 31.306 46.1026C31.4849 45.9183 31.5932 45.1597 31.4578 44.9158C31.3115 44.7695 30.9105 44.5365 30.6883 43.935C30.4011 42.8783 29.9188 40.9438 29.2089 39.4427C28.9272 39.0743 28.6291 38.9063 28.1414 38.4673L25.9251 34.414L25.2911 32.3711L22.7875 32.4957L20.9668 35.5086Z" fill="#232323"/>
<path fill-rule="evenodd" clip-rule="evenodd" d="M31.2137 45.5927C31.2462 45.403 31.2624 45.1808 31.2299 45.0779C31.2299 45.0779 30.5905 44.601 30.4279 43.9995C30.0215 42.5147 29.6368 40.9541 28.9811 39.6861C28.8023 39.3935 28.0111 38.7757 27.9136 38.5915L25.6918 34.5381L25.1012 32.6523L20.9395 32.8583L20.972 35.5027C21.5897 35.817 22.2562 36.1042 22.9173 36.3589C22.7169 36.3643 22.5272 36.3643 22.2996 36.3209L22.977 37.8816C23.3183 38.6944 23.4647 38.9762 23.7139 39.3176C24.4075 40.1033 24.8194 40.4718 25.2908 41.0137C25.0253 40.8728 24.9115 40.8457 24.6568 40.6561C25.2583 42.0541 25.7514 43.0837 26.1253 44.5793C26.1904 44.834 26.2175 45.1429 26.2337 45.403C26.25 45.5656 26.2608 45.7336 26.2662 45.8961C26.3204 45.9774 26.4125 46.0587 26.5101 46.1237C26.6564 45.8961 26.8515 45.6414 27.0195 45.5222C28.0057 44.8178 30.1841 44.7636 31.2137 45.5927Z" fill="#3C3C3C"/>
<path fill-rule="evenodd" clip-rule="evenodd" d="M24.9549 40.6569L25.2854 41.0199C25.0199 40.8791 24.9061 40.852 24.6514 40.6623C25.2529 42.0604 25.746 43.09 26.1199 44.5856C26.185 44.8403 26.2121 45.1491 26.2283 45.4092C26.2446 45.5718 26.2554 45.7398 26.2608 45.9024C26.315 45.9836 26.4071 46.0649 26.5047 46.13C26.651 45.9024 26.8461 45.6477 27.0141 45.5285C27.7185 45.0245 29.019 44.8511 30.0866 45.0895C29.9132 44.8999 29.7343 44.7156 29.5609 44.5097C29.3713 43.9299 29.122 43.2688 28.9865 42.6781C28.8619 42.1254 28.8456 41.1392 28.6722 40.7111C28.488 40.2505 27.8269 39.5731 27.3338 39.0637C27.2037 39.5297 27.052 39.9795 26.7756 40.3968C26.3367 40.646 25.849 40.8194 25.2583 40.8791L24.9549 40.6569ZM20.7715 34.7936C20.7769 34.8532 20.7769 34.9129 20.7769 34.967C20.7823 35.1404 20.869 35.3951 20.9666 35.5035C21.5843 35.8178 22.2508 36.105 22.9119 36.3597C22.7114 36.3651 22.5218 36.3651 22.2942 36.3218L22.9716 37.8824C23.1124 38.213 23.2154 38.4568 23.3129 38.6519C23.6706 38.8795 24.0933 39.0312 24.375 39.0475C24.9332 38.9824 25.2963 38.9174 25.8978 38.511C26.0224 38.2942 26.1579 37.9366 26.1958 37.5681C26.0116 36.7499 25.5889 35.6173 25.0578 34.4414C24.4834 34.6853 23.9524 34.8099 23.1937 34.9779C22.3972 34.9941 21.5572 34.9508 20.7715 34.7936Z" fill="url(#paint6_linear_52_57842)"/>
<path fill-rule="evenodd" clip-rule="evenodd" d="M24.7384 33.1562L25.0635 34.8198C24.3753 35.8115 24.0122 35.9199 23.6112 37.0308C23.5841 37.4263 23.1398 38.0712 22.8797 38.082C22.2457 38.1145 21.4653 38.0874 20.918 37.9086C19.0865 37.0362 19.4278 34.0612 20.6742 33.4543L24.7384 33.1562Z" fill="#232323"/>
<path fill-rule="evenodd" clip-rule="evenodd" d="M20.6144 32.9453L24.5865 33.3409L25.1609 34.9503C24.6677 35.503 24.1042 36.2725 23.6652 37.1179C23.546 37.3509 23.2263 37.7248 22.9337 37.7573C22.1751 37.8332 21.476 37.8061 20.9612 37.6381C19.2109 36.9715 19.303 34.1591 20.6144 32.9453Z" fill="#3C3C3C"/>
<path fill-rule="evenodd" clip-rule="evenodd" d="M23.3072 37.5683C23.188 37.6713 23.0633 37.7471 22.9387 37.758C22.1801 37.8338 21.481 37.8067 20.9662 37.6387C20.3322 37.3949 19.9366 36.8747 19.7578 36.2461C20.1371 36.8801 20.3647 37.2052 20.8524 37.3841C21.4214 37.59 22.4835 37.7146 23.3072 37.5683Z" fill="#666666"/>
<path fill-rule="evenodd" clip-rule="evenodd" d="M25.053 34.6485L25.2426 35.1849C24.316 35.5697 23.8174 36.2633 23.4164 36.8485C21.5144 37.2278 20.474 37.049 20.0242 36.3391C19.6286 35.678 19.5961 35.147 19.6341 34.4805C20.7233 34.9194 22.078 35.0603 23.2647 35.0765C23.9367 34.9465 24.4948 34.8273 25.053 34.6485Z" fill="url(#paint7_linear_52_57842)"/>
<path fill-rule="evenodd" clip-rule="evenodd" d="M20.1436 35.0117C20.615 35.2556 21.3574 35.4452 22.8097 35.6566C21.9426 35.7704 21.2002 35.7324 20.8805 35.6349C20.6638 35.5644 20.382 35.3531 20.1436 35.0117Z" fill="#7F7F7F"/>
<path fill-rule="evenodd" clip-rule="evenodd" d="M20.209 36.3789C20.5504 36.6282 21.0652 36.7745 22.046 36.8612C21.4878 37.1159 20.9947 37.1592 20.7725 37.0779C20.6154 37.0129 20.4041 36.7853 20.209 36.3789Z" fill="#3C3C3C"/>
<path fill-rule="evenodd" clip-rule="evenodd" d="M19.3693 36.3242C19.1146 36.8119 19.4885 37.5435 20.4477 37.9607C19.8299 37.6031 19.5319 36.9907 19.3693 36.3242ZM19.0713 37.1858C19.0171 37.641 19.5373 37.8903 19.9492 37.9228C19.5752 37.8036 19.2339 37.5218 19.0713 37.1858Z" fill="#B2B2B2"/>
<path fill-rule="evenodd" clip-rule="evenodd" d="M23.7634 35.332C23.8555 35.332 23.9368 35.4079 23.9476 35.4946C23.953 35.5867 23.888 35.6626 23.7959 35.6626C23.7038 35.6626 23.6225 35.5867 23.6116 35.4946C23.6062 35.4025 23.6713 35.332 23.7634 35.332Z" fill="#323232"/>
<path fill-rule="evenodd" clip-rule="evenodd" d="M23.7202 35.3594C23.8123 35.3594 23.8936 35.4352 23.9045 35.5274C23.9153 35.6195 23.8448 35.6953 23.7527 35.6953C23.6606 35.6953 23.5793 35.6195 23.5685 35.5274C23.5576 35.4298 23.6281 35.3594 23.7202 35.3594Z" fill="#232323"/>
<path fill-rule="evenodd" clip-rule="evenodd" d="M23.726 35.4102C23.7585 35.4102 23.8018 35.4318 23.8235 35.4589C23.8018 35.4481 23.7802 35.4373 23.7585 35.4373C23.6935 35.4373 23.6447 35.4914 23.6555 35.5565C23.6555 35.5836 23.6664 35.6052 23.6826 35.6269C23.6501 35.6052 23.623 35.5673 23.6176 35.5294C23.6122 35.4589 23.6609 35.4102 23.726 35.4102Z" fill="#3C3C3C"/>
<path fill-rule="evenodd" clip-rule="evenodd" d="M23.1785 36.7955C23.2706 36.8117 23.3248 36.9038 23.3031 37.0014C23.2814 37.0989 23.1893 37.1639 23.0972 37.1477C23.005 37.1314 22.9509 37.0393 22.9725 36.9418C22.9996 36.8442 23.0918 36.7792 23.1785 36.7955Z" fill="#323232"/>
<path fill-rule="evenodd" clip-rule="evenodd" d="M23.1242 36.8189C23.2163 36.8406 23.2705 36.9273 23.2488 37.0248C23.2272 37.1224 23.135 37.1874 23.0483 37.1711C22.9562 37.1495 22.902 37.0573 22.9237 36.9598C22.9454 36.8677 23.0375 36.8026 23.1242 36.8189Z" fill="#232323"/>
<path fill-rule="evenodd" clip-rule="evenodd" d="M23.1134 36.8727C23.1513 36.8782 23.1784 36.9053 23.1946 36.9378C23.1784 36.9215 23.1621 36.9107 23.135 36.9053C23.07 36.8944 23.005 36.9378 22.9887 37.0082C22.9833 37.0353 22.9833 37.0624 22.9941 37.0841C22.967 37.057 22.9562 37.0191 22.967 36.9757C22.9833 36.9053 23.0537 36.8619 23.1134 36.8727Z" fill="#3C3C3C"/>
<path fill-rule="evenodd" clip-rule="evenodd" d="M20.3283 36.5195C20.4042 36.5195 20.48 36.5954 20.4963 36.6875C20.518 36.7796 20.4638 36.8555 20.3933 36.8555C20.3175 36.8555 20.2416 36.7796 20.2199 36.6875C20.2037 36.5954 20.2524 36.5195 20.3283 36.5195Z" fill="#323232"/>
<path fill-rule="evenodd" clip-rule="evenodd" d="M20.2956 36.5508C20.3715 36.5508 20.4474 36.6266 20.4636 36.7188C20.4853 36.8109 20.4311 36.8813 20.3607 36.8813C20.2848 36.8813 20.2089 36.8055 20.1927 36.7188C20.171 36.6266 20.2198 36.5508 20.2956 36.5508Z" fill="#232323"/>
<path fill-rule="evenodd" clip-rule="evenodd" d="M20.3068 36.6016C20.3393 36.6016 20.3718 36.6178 20.3935 36.6503C20.3718 36.6395 20.3555 36.6287 20.3339 36.6287C20.2851 36.6287 20.2472 36.6774 20.258 36.7479C20.2634 36.7695 20.2743 36.7966 20.2905 36.8129C20.258 36.7912 20.2363 36.7587 20.2255 36.7208C20.2146 36.6557 20.2526 36.6016 20.3068 36.6016Z" fill="#3C3C3C"/>
<path fill-rule="evenodd" clip-rule="evenodd" d="M20.2192 35.0195C20.3114 35.0195 20.3926 35.0954 20.4035 35.1875C20.4089 35.2796 20.3439 35.3555 20.2518 35.3555C20.1596 35.3555 20.0783 35.2796 20.0675 35.1875C20.0567 35.0954 20.1271 35.0195 20.2192 35.0195Z" fill="#323232"/>
<path fill-rule="evenodd" clip-rule="evenodd" d="M20.1709 35.0469C20.263 35.0469 20.3443 35.1227 20.3605 35.2149C20.3659 35.307 20.2955 35.3828 20.2088 35.3828C20.1167 35.3828 20.0354 35.307 20.0245 35.2149C20.0137 35.1227 20.0841 35.0469 20.1709 35.0469Z" fill="#232323"/>
<path fill-rule="evenodd" clip-rule="evenodd" d="M20.1816 35.0938C20.2196 35.0938 20.2575 35.1154 20.2792 35.1425C20.2575 35.1317 20.2358 35.1208 20.2141 35.1208C20.1491 35.1208 20.1003 35.1696 20.1112 35.2401C20.1166 35.2617 20.122 35.2888 20.1383 35.3051C20.1058 35.2834 20.0841 35.2509 20.0787 35.2075C20.0678 35.1479 20.1166 35.0938 20.1816 35.0938Z" fill="#3C3C3C"/>
<path fill-rule="evenodd" clip-rule="evenodd" d="M17.0658 25.1882C17.4397 24.63 18.4639 23.7251 19.2497 23.7305C19.8295 23.8118 20.4093 24.0014 20.9458 24.2561L20.9566 24.6734L20.4527 28.3257C19.3201 28.6183 18.1876 29.0302 17.0604 29.5829C14.4594 29.9514 13.3973 26.3261 15.0609 25.3941L15.1963 25.3616C15.8141 25.3507 16.4643 25.3345 17.0658 25.1882Z" fill="#7F3E13"/>
<path fill-rule="evenodd" clip-rule="evenodd" d="M20.7449 24.6054C20.2627 24.4916 19.5311 24.1502 19.2006 24.0039C18.6587 24.0852 17.732 24.7463 17.369 25.2557C17.5803 25.3315 17.7049 25.4291 17.8892 25.6458C17.5911 25.5266 17.4557 25.4724 17.2064 25.4453C16.5616 25.6133 15.8408 25.635 15.196 25.6404C14.9576 25.7705 14.7842 25.9818 14.6758 26.2202C15.7433 24.5946 17.7646 27.9055 17.033 29.2657C18.1276 28.7129 19.168 28.3065 20.2572 27.9705L20.7449 24.6054Z" fill="url(#paint8_linear_52_57842)"/>
<path fill-rule="evenodd" clip-rule="evenodd" d="M20.7443 24.6054C20.3866 24.4103 19.796 24.096 19.1999 24.0039C18.658 24.0852 17.7314 24.7463 17.3683 25.2557C17.5796 25.3315 17.7043 25.4291 17.8885 25.6458C17.5905 25.5266 17.455 25.4724 17.2057 25.4453C16.5609 25.6133 15.8402 25.635 15.1953 25.6404C16.019 25.6621 16.2683 26.4858 16.7993 27.0818C18.2407 26.7838 18.6742 26.4803 20.1373 26.3015L20.7443 24.6054Z" fill="url(#paint9_linear_52_57842)"/>
<path fill-rule="evenodd" clip-rule="evenodd" d="M16.1168 25.6133L15.8838 25.6241C16.9405 25.9547 17.8454 28.0301 17.439 29.0705L17.6016 28.9947C17.8834 27.7754 17.0868 26.0901 16.1168 25.6133Z" fill="#B85A1B"/>
<path fill-rule="evenodd" clip-rule="evenodd" d="M17.6229 24.9648C17.5199 25.0678 17.4332 25.1653 17.3682 25.2629C17.5795 25.3387 17.6825 25.653 17.8721 25.8752C18.4357 25.9457 18.8909 25.8698 19.6224 25.3767C18.647 25.6476 18.078 25.2954 17.6229 24.9648Z" fill="#DE7721"/>
<path fill-rule="evenodd" clip-rule="evenodd" d="M16.9837 28.9305C15.6398 29.5103 14.4802 30.9788 13.2393 31.1956L13.2555 27.0772C14.0033 26.6925 14.762 26.3023 15.5911 25.9609C16.3822 26.3674 17.1463 27.9172 16.9837 28.9305Z" fill="#9A4C18"/>
<path fill-rule="evenodd" clip-rule="evenodd" d="M17.0058 28.5897C15.5265 29.24 14.4752 30.4213 13.3535 30.8277L13.4565 27.2892C14.188 26.8665 14.9629 26.4601 15.8137 26.1133C16.4369 26.5956 16.9842 27.7064 17.0058 28.5897Z" fill="#E5895B"/>
<path fill-rule="evenodd" clip-rule="evenodd" d="M14.5236 25.1592C14.6591 26.1129 14.9896 26.2213 15.2606 27.0504C15.7537 28.5623 14.9625 29.1638 14.0142 29.3372L13.2393 31.1959C12.757 31.2988 12.1013 31.2717 11.5757 31.0983C9.85792 30.5348 9.1643 28.5894 9.87959 26.9854C10.1939 26.2863 10.4703 25.8854 10.7304 25.0888C10.7629 24.9967 10.7412 25.0237 10.8225 24.9641C11.8196 24.1567 13.3802 24.2976 14.4044 24.9641L14.5073 25.0346L14.5236 25.1592Z" fill="#9A4C18"/>
<path fill-rule="evenodd" clip-rule="evenodd" d="M11.056 25.1423C10.7904 25.9606 10.4382 26.5296 10.1998 27.0769C9.55492 28.5454 10.2214 30.2632 11.7658 30.7888C12.2698 30.9568 12.8279 30.9893 13.3481 30.8213C14.6324 30.2632 15.5591 28.8109 14.963 27.2503C14.7245 26.7626 14.4428 26.3291 14.2748 25.164C13.3915 24.5733 11.9609 24.3945 11.056 25.1423Z" fill="#E5895B"/>
<path fill-rule="evenodd" clip-rule="evenodd" d="M11.056 25.1436C10.7904 25.9618 10.4382 26.5308 10.1998 27.0781C9.55492 28.5466 10.2214 30.2644 11.7658 30.7901C12.2698 30.958 12.8279 30.9906 13.3481 30.8226C11.8959 29.7659 11.755 27.387 12.0151 24.6992C11.6683 24.7697 11.3377 24.9106 11.056 25.1436Z" fill="url(#paint10_linear_52_57842)"/>
<path fill-rule="evenodd" clip-rule="evenodd" d="M8.22725 20.8694C8.52529 20.4792 8.81791 20.0728 9.08885 19.661C9.30561 19.3358 9.6199 18.8319 9.72286 18.458C9.73912 18.4038 9.7608 18.3496 9.79331 18.3008C9.96671 18.0299 10.3081 17.9432 10.6061 17.9811C10.9475 18.019 11.2564 18.1979 11.4623 18.4742C11.7658 18.8861 11.782 19.4009 11.6628 19.8831C11.4732 20.6689 10.9313 21.4492 10.4273 22.0615L10.281 22.2404L7.9834 21.162L8.22725 20.8694Z" fill="#9A4C18"/>
<path fill-rule="evenodd" clip-rule="evenodd" d="M8.45996 21.0467C8.85554 20.5428 9.83094 19.2368 10.026 18.5324C10.2265 17.8008 13.0389 18.4673 10.2265 21.8704L8.45996 21.0467Z" fill="#E5895B"/>
<path fill-rule="evenodd" clip-rule="evenodd" d="M10.0859 18.4183C10.3731 18.0877 11.3865 18.2665 11.4623 19.2257C10.9204 19.3449 10.151 19.074 10.0859 18.4183Z" fill="url(#paint11_linear_52_57842)"/>
<path fill-rule="evenodd" clip-rule="evenodd" d="M11.3105 20.6731L15.5806 21.2258C16.1767 21.3017 16.621 21.8057 16.621 22.4017V26.6881C16.621 27.2408 16.2471 27.7068 15.7107 27.8423L10.5194 29.1591C10.4814 29.1699 10.4381 29.1808 10.3947 29.1916H10.3893C10.2701 29.2187 10.1563 29.2404 10.0317 29.2512C9.54396 29.2946 9.03458 29.2079 8.60107 28.9694C7.88036 28.5576 7.5498 27.8206 7.5498 26.997V21.8328C7.5498 21.215 8.07544 20.7544 8.67693 20.7273L10.8878 20.6243C11.0287 20.6135 11.175 20.6298 11.3105 20.6731Z" fill="#4B4B4B"/>
<path fill-rule="evenodd" clip-rule="evenodd" d="M10.9044 20.8945L15.5484 21.4852C16.009 21.5502 16.3504 21.935 16.3504 22.3956V26.6819C16.3504 27.11 16.0632 27.4676 15.6459 27.5706L10.3408 28.9145L10.796 26.8011V22.0704L10.9044 20.8945Z" fill="#4B4B4B"/>
<path fill-rule="evenodd" clip-rule="evenodd" d="M13.44 28.1293L10.335 28.915L10.9581 27.5874L14.307 27.1484C14.2095 27.6145 14.0415 27.945 13.44 28.1293Z" fill="#3C3C3C"/>
<path fill-rule="evenodd" clip-rule="evenodd" d="M16.3447 26.0764V26.6833C16.3447 26.7537 16.3393 26.8187 16.323 26.8838L14.3072 27.1493C14.3234 27.0843 14.3343 27.0138 14.3451 26.938C14.3993 26.6345 14.5944 26.3744 14.9195 26.3202L16.3447 26.0764ZM8.69319 20.9989L10.9041 20.8959C11.4297 20.8688 11.8687 21.2481 11.8687 21.7304V27.1872C11.8687 29.4307 7.82617 29.7937 7.82617 26.9976V21.8334C7.82617 21.389 8.20549 21.0205 8.69319 20.9989Z" fill="#666666"/>
<path fill-rule="evenodd" clip-rule="evenodd" d="M11.9987 24.3633C11.8362 25.1382 11.3268 25.9456 10.4868 26.0431L8.01583 26.3303V26.3141H7.9779C6.29805 26.3141 5.00293 24.8943 5.00293 23.2416C5.00293 21.6755 6.16257 20.3154 7.71238 20.1745C8.12421 20.142 8.33013 20.1907 8.76906 20.2503L13.9387 20.841C15.7919 21.0794 15.6131 23.7618 14.1013 24.0815L11.9987 24.3633Z" fill="#3C3C3C"/>
<path fill-rule="evenodd" clip-rule="evenodd" d="M15.2396 22.332C15.7327 22.3916 15.7923 22.9498 15.7923 23.069V25.6321C15.7923 25.8435 15.6623 25.9519 15.4889 25.9735L13.24 26.2391C12.6006 26.3149 12.4326 25.9789 12.4326 25.6592V22.332H15.2396Z" fill="#3C3C3C"/>
<path fill-rule="evenodd" clip-rule="evenodd" d="M13.8846 21.2187C15.5482 21.4409 15.2989 23.6355 14.058 23.8035L11.9338 24.0961C11.8254 24.9144 11.3269 25.6676 10.6333 25.7489L8.2869 26.0198L8.2002 20.4492L13.8846 21.2187Z" fill="#3C3C3C"/>
<path fill-rule="evenodd" clip-rule="evenodd" d="M14.5081 21.719C14.8495 21.7461 14.9904 22.1905 15.0013 22.4885H8.23847L8.2168 21.2422L14.5081 21.719Z" fill="#4B4B4B"/>
<path fill-rule="evenodd" clip-rule="evenodd" d="M7.97791 20.4414C9.46268 20.4414 10.6711 21.6932 10.6711 23.243C10.6711 24.7874 9.4681 26.0445 7.97791 26.0445C6.48771 26.0445 5.2793 24.7874 5.2793 23.243C5.2793 21.6932 6.48771 20.4414 7.97791 20.4414Z" fill="#B2B2B2"/>
<path fill-rule="evenodd" clip-rule="evenodd" d="M7.97803 20.8242C9.25688 20.8242 10.2973 21.9026 10.2973 23.241C10.2973 24.5741 9.25688 25.6579 7.97803 25.6579C6.69375 25.6579 5.65332 24.5795 5.65332 23.241C5.65332 21.908 6.69375 20.8242 7.97803 20.8242Z" fill="#4B4B4B"/>
<path fill-rule="evenodd" clip-rule="evenodd" d="M8.99617 21.0728C9.76566 21.4684 10.2967 22.2921 10.2967 23.2404C10.2967 24.1941 9.76566 25.0178 8.99617 25.408C8.83361 25.4513 8.65478 25.473 8.47596 25.473C7.28922 25.473 6.33008 24.4759 6.33008 23.2404C6.33008 22.0049 7.28922 21.0078 8.47596 21.0078C8.6602 21.0078 8.83361 21.0349 8.99617 21.0728Z" fill="#6EA6B8"/>
<path fill-rule="evenodd" clip-rule="evenodd" d="M9.7881 22.9055C9.7881 23.8484 9.16493 24.645 8.31958 24.8618C7.81562 24.9918 7.12742 24.7696 6.84564 24.3253C6.64514 24.011 6.52051 23.6263 6.52051 23.2198C6.52051 22.1144 7.38753 21.2148 8.44963 21.2148C9.36001 21.2148 9.7881 22.1035 9.7881 22.9055Z" fill="#9FD4E6"/>
<path fill-rule="evenodd" clip-rule="evenodd" d="M9.39804 23.6365C9.59312 23.7123 9.66899 23.9616 9.56603 24.2C9.46307 24.4439 9.21922 24.574 9.01872 24.5035C8.81822 24.4276 8.74778 24.1784 8.85073 23.9399C8.95369 23.7015 9.20296 23.5715 9.39804 23.6365ZM7.9512 21.7128C8.29801 21.8428 8.43348 22.2818 8.24924 22.7044C8.06499 23.1271 7.64232 23.3655 7.29551 23.2355C6.9487 23.1108 6.81323 22.6665 6.99747 22.2438C7.18172 21.8266 7.60439 21.5881 7.9512 21.7128Z" fill="#EAF4F7"/>
<path fill-rule="evenodd" clip-rule="evenodd" d="M10.0751 20.7014C10.5303 20.7664 11.0613 21.4763 11.2347 21.9152C11.3919 22.3162 11.4786 22.766 11.4786 23.2428C11.4786 23.8118 11.354 24.3483 11.1318 24.8035C10.9367 25.2153 10.4056 25.7789 10.0534 25.8222L9.80957 25.8493C10.1022 25.7138 10.3623 25.4917 10.5845 25.2207C10.9801 24.7113 11.2347 24.0177 11.2347 23.2428C11.2347 22.4679 10.9855 21.7743 10.5845 21.2649C10.3894 21.0211 10.1564 20.8152 9.89627 20.6797L10.0751 20.7014Z" fill="#666666"/>
<path fill-rule="evenodd" clip-rule="evenodd" d="M11.3975 22.481H11.2295C11.1374 22.0854 10.9857 21.7277 10.7852 21.4297L10.9748 21.4459C11.0886 21.6085 11.1753 21.7765 11.2349 21.912C11.3054 22.0908 11.3596 22.2859 11.3975 22.481Z" fill="#999999"/>
<path fill-rule="evenodd" clip-rule="evenodd" d="M8.17871 26.8883V27.1593C8.17871 27.6958 8.35753 28.178 8.83982 28.449C9.70684 28.9313 11.2133 28.4923 11.2133 27.3544V26.845C11.2133 26.7149 11.1103 26.612 10.9857 26.6174L8.41172 26.6607C8.28167 26.6607 8.17871 26.7637 8.17871 26.8883Z" fill="#3C3C3C"/>
<path fill-rule="evenodd" clip-rule="evenodd" d="M8.41211 26.9374V27.1596C8.41211 27.6093 8.54758 28.0212 8.95942 28.2488C9.67471 28.6443 10.9861 28.3138 10.9861 27.3492L10.9915 26.8832C10.9915 26.8669 10.9861 26.8615 10.9752 26.8507C10.9698 26.8453 10.9536 26.8398 10.9427 26.8398L8.45546 26.8886C8.42837 26.8886 8.41211 26.9103 8.41211 26.9374Z" fill="#3C3C3C"/>
<path fill-rule="evenodd" clip-rule="evenodd" d="M8.4707 26.9676V27.1844C8.4707 27.5474 8.57908 27.878 8.90963 28.0622C9.48404 28.382 10.5461 28.111 10.5461 27.3415L10.5516 26.973C10.5516 26.9568 10.5461 26.9459 10.5353 26.9405C10.5299 26.9351 10.5136 26.9297 10.5028 26.9297L8.4707 26.9676C8.4707 26.9622 8.4707 26.9622 8.4707 26.9676Z" fill="#4B4B4B"/>
<path fill-rule="evenodd" clip-rule="evenodd" d="M17.3801 21.6484L17.819 21.7622C18.0195 21.811 18.1604 21.9898 18.1604 22.2445V25.1761C18.1604 25.4308 18.0195 25.6042 17.819 25.6584L17.3584 25.7776L17.3801 21.6484Z" fill="#666666"/>
<path fill-rule="evenodd" clip-rule="evenodd" d="M18.1598 22.2453V22.8414H17.374L17.3794 22.1641L18.1598 22.2453Z" fill="#7F7F7F"/>
<path fill-rule="evenodd" clip-rule="evenodd" d="M13.2182 21.8144L17.2227 21.641C17.537 21.6301 17.7484 21.8848 17.7484 22.1503V25.2662C17.7484 25.5317 17.5316 25.7864 17.2227 25.7756L13.2182 25.6076C12.9472 25.5968 12.7305 25.3692 12.7305 25.0982V22.3183C12.7305 22.0474 12.9472 21.8198 13.2182 21.8144Z" fill="#666666"/>
<path fill-rule="evenodd" clip-rule="evenodd" d="M13.2232 21.9689C13.0336 21.9743 12.8818 22.1315 12.8818 22.3265V25.1064C12.8818 25.2961 13.0281 25.4532 13.2232 25.4641L17.2278 25.6321C17.4337 25.6375 17.5963 25.4803 17.5963 25.2744V22.1586C17.5963 21.9581 17.4337 21.7955 17.2278 21.8009L13.2232 21.9689Z" fill="#B2B2B2"/>
<path fill-rule="evenodd" clip-rule="evenodd" d="M13.2232 21.9665C13.0336 21.9719 12.8818 22.1291 12.8818 22.3242V23.9661H17.5963V22.1507C17.5963 21.9502 17.4337 21.7877 17.2278 21.7931L13.2232 21.9665Z" fill="#CCCCCC"/>
<path fill-rule="evenodd" clip-rule="evenodd" d="M12.752 22.6503V24.7636C12.7736 24.7691 12.7953 24.7691 12.817 24.7691L15.6944 24.8612C16.9733 24.9045 16.8432 22.5094 15.6944 22.5473L12.817 22.6394C12.7953 22.6449 12.7736 22.6503 12.752 22.6503Z" fill="#A35A15"/>
<path fill-rule="evenodd" clip-rule="evenodd" d="M12.6759 22.6433L15.5371 22.5512C16.6805 22.5133 16.8105 24.9084 15.5371 24.8651L12.6759 24.773C12.4808 24.7676 12.3291 24.6429 12.3291 24.4858V22.9305C12.3291 22.7734 12.4808 22.6488 12.6759 22.6433Z" fill="#CD6C13"/>
<path fill-rule="evenodd" clip-rule="evenodd" d="M12.5788 22.7489C12.4867 22.7544 12.335 22.814 12.335 22.9332V23.9845H15.9494C16.0306 23.9845 16.1553 23.9357 16.1553 23.784C16.1607 23.2258 15.8843 22.6352 15.3695 22.6568L12.5788 22.7489Z" fill="#FF9701"/>
<path fill-rule="evenodd" clip-rule="evenodd" d="M13.9173 23.0239L14.9468 23.6417C14.9739 23.6579 14.9902 23.685 14.9902 23.7175C14.9902 23.75 14.9739 23.7771 14.9468 23.7934L13.9173 24.4708C13.8847 24.4924 13.8522 24.4924 13.8251 24.4762C13.7926 24.4599 13.7764 24.4274 13.7764 24.4003V23.1052C13.7764 23.0727 13.798 23.0402 13.8251 23.0239C13.8522 23.0077 13.8847 23.0077 13.9173 23.0239Z" fill="#CD6C13"/>
<path fill-rule="evenodd" clip-rule="evenodd" d="M13.7981 23.0084L14.8277 23.6262C14.8548 23.6425 14.8711 23.6695 14.8711 23.7021C14.8711 23.7346 14.8548 23.7671 14.8277 23.7833L13.7981 24.4553C13.7656 24.477 13.7331 24.477 13.706 24.4607C13.6735 24.4445 13.6572 24.4119 13.6572 24.3794V23.0897C13.6572 23.0572 13.6735 23.0247 13.706 23.0084C13.7331 22.9868 13.7656 22.9868 13.7981 23.0084Z" fill="#D3E8EF"/>
<path fill-rule="evenodd" clip-rule="evenodd" d="M13.7598 23.1016V23.9361H14.3829L14.7514 23.6976L13.7598 23.1016Z" fill="white"/>
<path fill-rule="evenodd" clip-rule="evenodd" d="M12.3291 23.1641L12.9469 23.2833C13.0336 23.2995 13.0986 23.3862 13.0986 23.4838V24.0202C13.0986 24.1232 13.0336 24.2045 12.9469 24.2207L12.3291 24.34V23.1641Z" fill="#CD6C13"/>
<path fill-rule="evenodd" clip-rule="evenodd" d="M12.2096 23.1226L12.7894 23.2201C12.8924 23.2364 12.9682 23.3231 12.9682 23.4206V23.9571C12.9682 24.0601 12.8924 24.1468 12.7894 24.1576L12.2042 24.2335C12.1391 24.2389 12.085 24.1955 12.085 24.1359V23.2256C12.0904 23.1605 12.1446 23.1118 12.2096 23.1226Z" fill="#4B4B4B"/>
<path fill-rule="evenodd" clip-rule="evenodd" d="M12.1885 23.2188V23.6848H12.8171C12.8442 23.6848 12.8658 23.6631 12.8658 23.636V23.4192C12.8658 23.3705 12.8225 23.3271 12.7737 23.3217L12.1885 23.2188Z" fill="#666666"/>
<path fill-rule="evenodd" clip-rule="evenodd" d="M12.8003 19.9155C13.0387 19.6716 13.8245 19.5795 14.1279 19.715C14.3555 19.8179 14.5397 20.013 14.659 20.2244C14.8215 20.5116 14.9299 20.8259 14.7457 21.1347C14.5127 21.5195 13.5427 21.4003 13.1525 21.254C13.0062 21.1998 12.7894 20.7933 12.7461 20.5874C12.8491 20.2948 12.8057 20.2569 12.8003 19.9155Z" fill="#9A4C18"/>
<path fill-rule="evenodd" clip-rule="evenodd" d="M12.9033 20.5574C12.9738 20.6983 13.055 20.9692 13.2447 21.0505C13.6728 21.251 14.4206 21.1589 14.5182 21.0234C14.7186 20.7362 14.4802 20.1239 14.025 19.918C13.7812 19.8096 13.0984 19.9234 12.9575 20.0697C12.9629 20.2973 12.9521 20.4057 12.9033 20.5574Z" fill="#E5895B"/>
<path fill-rule="evenodd" clip-rule="evenodd" d="M14.562 20.5574C14.4861 20.3027 14.2965 20.0372 14.0255 19.918C13.7817 19.8096 13.0989 19.9234 12.958 20.0697C13.3211 20.5303 13.7004 20.6116 14.562 20.5574Z" fill="#FAD395"/>
<path fill-rule="evenodd" clip-rule="evenodd" d="M11.6087 19.5738C11.95 19.4437 12.6274 19.4058 12.8713 19.525C13.1314 19.6496 13.3264 19.8826 13.4619 20.1319C13.6353 20.4733 13.7437 20.8364 13.5215 21.1723C13.2343 21.6113 11.9121 21.53 11.7062 21.2374C11.5816 21.0585 11.3106 20.5492 11.3919 20.1536L11.6087 19.5738Z" fill="#9A4C18"/>
<path fill-rule="evenodd" clip-rule="evenodd" d="M11.95 21.0969C12.4322 21.3516 13.153 21.1999 13.2668 21.0481C13.5106 20.7284 13.2613 20.0077 12.7465 19.7585C12.5244 19.6501 11.9771 19.6934 11.6844 19.7964C11.679 19.8181 11.6736 19.8452 11.6682 19.8668C11.6357 19.9969 11.5923 20.1269 11.5436 20.257C11.5327 20.3816 11.6736 20.9506 11.95 21.0969Z" fill="#E5895B"/>
<path fill-rule="evenodd" clip-rule="evenodd" d="M13.332 20.5156C13.2615 20.223 13.0502 19.9087 12.7467 19.7624C12.5245 19.654 11.9772 19.6973 11.6846 19.8003C11.6792 19.822 11.6738 19.8491 11.6684 19.8707C11.6575 19.9195 11.6413 19.9737 11.625 20.0225C11.9935 20.4506 12.4324 20.5373 13.332 20.5156Z" fill="url(#paint12_linear_52_57842)"/>
<path fill-rule="evenodd" clip-rule="evenodd" d="M22.1916 23.4734L20.3763 19.3822L29.3121 17.1875L29.2633 18.2008L28.1958 19.7615C27.7406 20.3305 27.4263 20.8561 27.3938 21.0891L27.1608 22.7473L27.9898 24.1074L25.4321 27.6135L20.8369 27.5755L20.2842 25.7602L22.1916 23.4734Z" fill="#9A4C18"/>
<path fill-rule="evenodd" clip-rule="evenodd" d="M20.6045 25.8246L21.0434 27.2823L25.281 27.3148L27.6382 24.0852L26.8525 22.7847L27.1126 20.9206C27.1614 20.5737 28.2397 19.1161 29.226 17.8047L20.7833 19.5821L22.5282 23.5108L20.6045 25.8246Z" fill="#E5895B"/>
<path fill-rule="evenodd" clip-rule="evenodd" d="M20.6035 25.8264L20.9883 27.1107L22.1858 27.2949L24.0283 27.3112L25.3234 25.6205C25.6106 24.7318 25.7948 23.8485 25.7731 22.8948C25.9357 22.51 26.1254 22.1957 26.2879 21.8164C25.3071 22.8297 24.2071 23.6372 23.1396 23.9785C22.8849 23.8756 22.706 23.6805 22.5272 23.5179L20.6035 25.8264Z" fill="url(#paint13_linear_52_57842)"/>
<path fill-rule="evenodd" clip-rule="evenodd" d="M20.479 24.0319L21.5303 23.7501L22.1914 23.4683C22.2944 23.9127 22.5762 24.6009 23.0259 24.8447C24.2614 24.6605 26.1689 23.7013 27.1551 22.7422L29.198 23.7393C29.4365 23.7176 29.8321 23.7718 30.1789 23.9235L30.103 28.5079C28.8567 29.6404 28.0709 30.101 27.0522 30.9735C26.727 31.8568 26.5807 32.5341 26.5536 33.0598C26.6837 33.3524 26.7541 33.5366 26.7975 33.8347C25.6541 34.4795 24.7979 34.6692 23.5732 34.9076C21.682 34.8805 19.3519 34.5337 18.3711 33.1736C18.6204 32.4149 18.8263 31.976 18.978 31.2824C18.9726 30.2257 18.7775 29.2069 18.409 27.4079C18.4524 26.8009 18.6529 26.0965 19.3465 25.7822L20.2135 24.3191C20.246 24.1674 20.2948 24.0807 20.479 24.0319Z" fill="#4B4B4B"/>
<path fill-rule="evenodd" clip-rule="evenodd" d="M20.2142 24.3254C19.125 25.2791 18.7673 25.951 18.6318 27.1865C18.7619 27.9452 19.0057 28.8393 19.0979 29.6034C19.1304 29.896 19.2713 31.229 19.2225 31.4458C19.0762 32.0852 18.9136 32.5296 18.7077 33.1419C19.7265 34.372 22.0512 34.5996 23.5468 34.6213C24.0561 34.5237 24.5601 34.4207 25.0586 34.2744C25.5572 34.1281 26.0232 33.933 26.4784 33.6838C26.435 33.4995 26.2616 33.1202 26.2616 33.1202C26.2942 32.4591 26.4459 31.8576 26.6572 31.2344C26.473 31.3482 26.3267 31.4458 26.1912 31.5162C26.2887 31.2724 26.6247 30.9418 26.8686 30.7576C27.5568 30.2374 28.2016 29.7605 28.8464 29.2024L29.7893 28.4058L28.9006 23.9189L27.2099 23.0898C26.1858 24.0002 24.3596 24.9431 23.0645 25.1328C22.9453 25.149 22.9886 25.1544 22.8911 25.1003C22.463 24.8727 22.1704 24.347 22.0078 23.8647L21.6176 24.0273L20.2142 24.3254Z" fill="url(#paint14_linear_52_57842)"/>
<path fill-rule="evenodd" clip-rule="evenodd" d="M20.2142 24.3254C19.125 25.2791 18.7673 25.951 18.6318 27.1865C18.7185 27.6959 19.0328 28.4762 19.358 28.991C21.157 28.5413 22.3546 28.7905 24.1429 29.3866C25.3296 29.1536 26.5759 28.6442 27.2099 28.2215C27.275 26.7368 27.676 25.951 28.543 25.0081L29.3125 26.0052L28.8952 23.9189L27.2045 23.0898C26.1804 24.0002 24.3542 24.9431 23.0591 25.1328C22.9399 25.149 22.9832 25.1544 22.8857 25.1003C22.4576 24.8727 22.165 24.347 22.0024 23.8647L21.6122 24.0273L20.2142 24.3254Z" fill="white"/>
<path fill-rule="evenodd" clip-rule="evenodd" d="M28.8521 29.2039C29.1772 28.9438 29.4915 28.6837 29.7949 28.4074L29.0905 24.8634L28.4131 24.793C26.5544 26.2236 26.8579 28.4995 27.2047 29.6754C27.286 29.9788 28.6407 29.3665 28.8521 29.2039Z" fill="#CCCCCC"/>
<path fill-rule="evenodd" clip-rule="evenodd" d="M19.8563 29.9734C21.0918 29.7675 22.5332 29.8379 23.7633 30.6345C24.4515 30.4773 25.0584 30.1955 25.6491 29.8487C25.6328 30.2877 25.6599 30.602 25.6491 31.0409L25.1614 31.6316L25.1397 33.0459C24.8146 33.7287 24.2673 34.2977 23.5194 34.6282C22.0238 34.6011 19.7208 34.3681 18.7129 33.1488C18.9188 32.5365 19.0814 32.0922 19.2277 31.4527C19.2765 31.236 19.1356 29.9029 19.1031 29.6103C19.0814 29.4477 19.0543 29.2852 19.0272 29.1172C19.2331 29.3827 19.4878 29.6374 19.8563 29.9734Z" fill="url(#paint15_linear_52_57842)"/>
<path fill-rule="evenodd" clip-rule="evenodd" d="M26.3912 33.4254C25.5946 33.8101 24.5054 34.2111 23.698 34.2761C21.6659 34.2707 20.0619 33.9835 18.7885 32.9323C18.783 32.8997 18.7939 32.8618 18.821 32.8293C20.2028 33.8806 21.7363 34.1678 23.7034 34.1515C24.6138 34.0485 25.4374 33.7613 26.3532 33.317C26.3858 33.3441 26.3966 33.382 26.3912 33.4254ZM21.6442 24.0182C21.9423 24.6955 22.262 25.2483 22.9177 25.5788C24.2345 25.3621 26.5158 24.2187 27.5725 23.2704C27.6104 23.2649 27.6429 23.2866 27.6646 23.3191C26.5754 24.2945 24.2724 25.465 22.9177 25.6818L22.8851 25.6763C22.2024 25.335 21.861 24.7714 21.5521 24.0398C21.5792 24.029 21.6117 24.0236 21.6442 24.0182Z" fill="#999999"/>
<path fill-rule="evenodd" clip-rule="evenodd" d="M31.3874 25.45C31.8534 25.9106 32.2002 26.2033 32.7313 26.588L32.7963 26.653C33.8151 28.0619 31.4307 31.8497 28.9977 30.5871L28.8893 30.4896C28.4504 29.8502 28.0656 29.3245 27.5617 28.8477C27.372 28.6743 27.2365 28.4196 27.2148 28.1812L27.5291 26.3929C27.2311 24.7293 28.5154 23.4992 30.1844 23.8948C30.7534 24.1712 31.2357 24.8269 31.3874 25.45Z" fill="#7F3E13"/>
<path fill-rule="evenodd" clip-rule="evenodd" d="M30.2284 24.2833C28.4997 23.568 26.5002 24.8793 27.2154 28.1849C27.9904 28.781 28.5973 29.5396 29.1337 30.3308C29.4209 30.4771 29.7081 30.5475 29.9845 30.5529C29.5889 30.4391 29.3397 30.282 29.2313 30.0598C28.5431 28.6726 32.3038 25.7518 32.7427 27.5671C32.7536 27.2799 32.6994 27.0198 32.5639 26.8302C32.1521 26.5321 31.7023 26.169 31.3121 25.7897C31.2959 26.0607 31.2092 26.2395 31.09 26.4996C31.2688 25.4429 30.884 24.7981 30.2284 24.2833Z" fill="url(#paint16_linear_52_57842)"/>
<path fill-rule="evenodd" clip-rule="evenodd" d="M30.2278 24.2823C28.1578 23.5724 27.0848 25.5232 28.0277 27.3386C28.5534 27.8317 28.8622 28.1677 29.3499 28.6174C30.0273 27.5499 31.8806 26.2548 32.6555 27.0026C32.6338 26.943 32.6013 26.8888 32.5633 26.8292C32.1515 26.5312 31.7017 26.1681 31.3116 25.7888C31.2953 26.0597 31.2086 26.2385 31.0894 26.4986C31.2682 25.442 30.8835 24.7971 30.2278 24.2823Z" fill="url(#paint17_linear_52_57842)"/>
<path fill-rule="evenodd" clip-rule="evenodd" d="M28.3906 25.6636C29.2902 26.2326 30.1789 26.6336 31.0892 26.4927C31.1705 26.07 31.1597 25.734 31.0676 25.4414C30.8725 26.0917 29.9242 25.967 28.3906 25.6636Z" fill="#DE7721"/>
<path fill-rule="evenodd" clip-rule="evenodd" d="M28.6459 29.6589C28.6784 29.7348 28.7218 29.7781 28.7651 29.8215C28.4779 28.3367 31.1711 26.1095 32.3524 26.6785C32.2928 26.6135 32.2224 26.5485 32.1248 26.5051C30.8351 26.2883 28.5809 28.2121 28.6459 29.6589Z" fill="#B85A1B"/>
<path fill-rule="evenodd" clip-rule="evenodd" d="M32.3953 27.2502C32.8613 27.5211 33.2948 28.1605 33.6308 28.6807C33.9017 29.098 34.0914 29.396 34.3515 29.6887L33.3327 32.7341C33.1322 32.7395 32.8234 32.669 32.4495 32.5173C31.4795 31.9646 30.2548 30.6966 29.377 29.7212C29.3824 29.6941 29.3824 29.667 29.3824 29.6399C29.5016 28.4477 31.4795 26.9142 32.3953 27.2502Z" fill="#9A4C18"/>
<path fill-rule="evenodd" clip-rule="evenodd" d="M31.8917 27.2188C33.1489 28.0858 33.4578 29.0829 34.1135 29.8686L33.2356 32.4642C33.008 32.4426 32.8671 32.3884 32.6016 32.2908C31.7833 31.8302 30.6887 30.7519 29.4424 29.3592C29.7458 28.4163 30.9922 27.3759 31.8917 27.2188Z" fill="#E5895B"/>
<path fill-rule="evenodd" clip-rule="evenodd" d="M32.1681 27.4297C33.1923 28.2425 33.5066 29.1529 34.1135 29.8736L33.0839 30.8978C31.9893 29.9603 30.9922 29.1962 30.6562 28.6544C30.9435 28.0583 31.3878 27.7223 32.1681 27.4297Z" fill="url(#paint18_linear_52_57842)"/>
<path fill-rule="evenodd" clip-rule="evenodd" d="M33.3492 30.3282L33.6472 30.6696L34.1133 29.873L34.3192 29.6562C34.5847 29.9164 34.7906 30.1169 34.9044 30.4745C35.0074 30.7996 35.0995 32.1327 34.6931 32.6421C34.3409 33.0756 33.7448 33.6391 32.9157 33.9643C31.4743 34.5278 29.7565 35.2594 28.5372 35.85L27.8057 32.382C29.6156 31.6829 29.8378 31.179 30.4284 30.3824C31.1274 29.4395 32.6393 29.4558 33.3492 30.3282Z" fill="#9A4C18"/>
<path fill-rule="evenodd" clip-rule="evenodd" d="M34.1132 29.8672L33.3491 30.2248C32.0865 29.5529 31.0732 30.0243 30.6939 30.4958C30.2983 30.9889 30.0165 31.8288 28.0332 32.4249L28.3963 35.4974L32.9644 33.6225C33.6418 33.3461 34.2541 32.75 34.46 32.4791C34.7201 32.154 34.7906 31.1027 34.6334 30.5987C34.5576 30.3549 34.4275 30.1706 34.1132 29.8672Z" fill="#E5895B"/>
<path fill-rule="evenodd" clip-rule="evenodd" d="M34.1132 29.8672C33.7881 29.8726 33.5388 29.9972 33.3491 30.2248C32.0865 29.5529 31.0732 30.0243 30.6939 30.4958C30.2983 30.9889 30.0165 31.8288 28.0332 32.4249L28.2066 34.159C30.5909 33.5845 32.7693 32.6471 34.7201 31.2815C34.7201 31.0214 34.693 30.7721 34.6388 30.5933C34.5576 30.3549 34.4275 30.1706 34.1132 29.8672Z" fill="url(#paint19_linear_52_57842)"/>
<path fill-rule="evenodd" clip-rule="evenodd" d="M29.4746 32.4807C28.9327 31.2669 28.6617 30.6763 28.7267 29.2728C28.7322 29.1264 28.5696 28.8338 28.3799 28.7634C28.0169 28.6333 27.3395 28.6713 26.9819 28.8122C26.7543 28.9043 26.6621 29.0831 26.5809 29.3053C26.4454 29.6792 26.3912 30.1885 26.4346 30.3511C26.608 31.0122 26.8356 31.5975 26.8897 32.3019C27.4967 32.5729 28.342 32.7734 28.9435 33.0497L29.4746 32.4807Z" fill="#944A26"/>
<path fill-rule="evenodd" clip-rule="evenodd" d="M29.1877 32.4312C28.9601 31.9381 28.7054 31.4612 28.5971 30.9193C28.4778 30.3395 28.4453 29.8789 28.4778 29.2882C28.4833 29.1744 28.3532 29.0065 28.234 28.9685C27.9522 28.8764 27.4428 28.9035 27.1556 28.9794C26.9822 29.0281 26.9335 29.0444 26.8576 29.2015C26.7004 29.505 26.6246 30.0469 26.6408 30.2311C26.6896 30.7134 27.0527 31.2445 27.1231 32.1277C27.6704 32.3608 28.3424 32.5179 28.8897 32.7509L29.1877 32.4312Z" fill="#E5895B"/>
<path fill-rule="evenodd" clip-rule="evenodd" d="M28.2237 29.212C28.2562 29.0602 28.0286 28.9248 27.9256 28.9248C27.6601 28.9031 27.3512 28.9356 27.1507 28.9898C26.9773 29.0386 26.9286 29.0548 26.8527 29.212C26.6956 29.5154 26.6197 30.0573 26.6359 30.2415C26.7281 30.6696 28.1424 30.4962 28.1478 30.2903C28.1695 29.8785 28.1587 29.5859 28.2237 29.212Z" fill="url(#paint20_linear_52_57842)"/>
<path fill-rule="evenodd" clip-rule="evenodd" d="M24.7986 33.3376C24.7011 33.2346 24.5927 33.0938 24.5439 32.9854C24.4789 32.8391 24.3814 32.1834 24.3705 31.907C24.3651 31.7824 24.4139 31.6632 24.4952 31.571C25.1454 30.8558 26.343 30.4764 27.2751 30.4927C27.9687 30.6011 28.8682 31.2188 29.3342 31.5765C29.4264 31.6469 29.4264 32.0804 29.4589 32.2105L29.15 32.5194L29.1229 34.714L29.849 34.3184C29.9141 34.9199 29.6485 35.283 29.5076 35.3968C29.1121 35.7111 28.1746 36.1717 27.5568 36.3993C27.0366 36.4968 25.7957 36.3343 25.3188 36.1717C25.0912 35.9278 24.8962 35.4401 24.8311 35.115C24.8528 35.012 24.8799 34.8549 24.9503 34.7574C24.9233 34.6327 24.7932 33.4351 24.7986 33.3376Z" fill="#944A26"/>
<path fill-rule="evenodd" clip-rule="evenodd" d="M29.5075 31.918C30.2066 32.6767 30.0982 34.5028 29.5075 35.1206C28.9223 35.5649 28.2341 35.8901 27.5242 36.1231C26.9335 36.2044 26.099 36.1177 25.4704 35.9768C25.2808 35.7871 25.102 35.2561 25.0749 34.996C25.0911 34.9038 25.1291 34.8063 25.2049 34.6708C25.1291 34.4324 25.0315 33.4245 25.0532 33.1915C24.9448 33.0885 24.831 32.991 24.7714 32.8717C24.6684 32.6604 24.6251 32.0481 24.6143 31.8476C24.6143 31.8096 24.6305 31.7663 24.6522 31.7392C25.2483 31.0781 26.3754 30.7421 27.3129 30.7584C28.3587 31.1485 28.7543 31.4791 29.5075 31.918Z" fill="url(#paint21_linear_52_57842)"/>
<path fill-rule="evenodd" clip-rule="evenodd" d="M27.5242 36.1227C27.1557 36.1715 26.6951 36.1552 26.2508 36.1065C26.0123 34.9631 25.9527 33.6626 26.0123 33.0177C26.2562 32.9147 26.5542 32.828 27.0203 32.8172C26.6138 32.6167 26.1478 32.633 25.736 32.6655C25.671 32.2103 25.6493 31.7822 25.6059 31.3162C25.6005 31.262 25.6439 31.1319 25.698 31.0561C26.2183 30.8501 26.8035 30.7526 27.3237 30.758C27.405 30.9531 27.4917 31.1482 27.5784 31.3433C27.7356 31.7172 27.8006 32.1182 27.8223 32.5192C27.7952 32.6926 27.7301 32.8606 27.6597 33.0177C27.6868 33.8685 27.6434 34.6596 27.5838 35.4562C27.5567 35.6838 27.5405 35.906 27.5242 36.1227Z" fill="url(#paint22_linear_52_57842)"/>
<path fill-rule="evenodd" clip-rule="evenodd" d="M25.1235 34.5801C25.8117 34.6126 26.5379 34.5801 27.2152 34.515C27.1123 34.6072 26.9985 34.683 26.9009 34.7047C26.2832 34.7752 25.66 34.786 25.0368 34.7589C25.0639 34.6993 25.091 34.6397 25.1235 34.5801ZM24.9014 33.1712C25.6383 32.9436 26.3699 32.7864 26.9985 32.7539C27.1827 32.8027 27.2532 32.8244 27.3941 32.8894C26.5812 32.9381 25.8117 33.1224 24.9285 33.3771C24.923 33.3121 24.9068 33.2416 24.9014 33.1712Z" fill="#944A26"/>
<path fill-rule="evenodd" clip-rule="evenodd" d="M27.5732 31.3438C27.6654 31.7014 27.6979 32.1187 27.7087 32.5142C27.6816 32.731 27.6058 32.8827 27.5732 32.9965C27.6166 33.8744 27.5678 34.6276 27.5787 35.4567C27.7087 35.1586 27.7412 33.3596 27.7412 33.0073C27.79 32.8665 27.8333 32.731 27.8604 32.5522C27.855 32.2595 27.8279 31.9452 27.7846 31.631C27.7196 31.528 27.6816 31.4521 27.5732 31.3438Z" fill="#D1794D"/>
<path fill-rule="evenodd" clip-rule="evenodd" d="M14.2045 9.46706C13.9877 9.28824 13.8089 9.08774 13.6246 8.8764C13.2995 7.94977 13.2291 7.16945 13.3483 6.22656C14.1069 7.0123 14.8222 7.66799 15.9493 7.95519L16.242 8.03105L15.5213 10.4045C14.5079 10.3341 14.4212 10.2691 13.6138 9.67298L14.1503 9.49957C14.1665 9.48332 14.1882 9.4779 14.2045 9.46706Z" fill="#7F3E13"/>
<path fill-rule="evenodd" clip-rule="evenodd" d="M15.8791 8.24169C15.1638 8.05203 14.4756 7.70522 13.6086 6.91406C13.6032 7.56433 13.717 8.23627 13.8904 8.73481C14.1505 9.03827 14.4648 9.33631 14.7736 9.53681C14.5677 9.65602 14.4593 9.69937 14.2372 9.7644C14.6165 10.0462 14.92 10.0679 15.3101 10.0895L15.8791 8.24169Z" fill="#B85A1B"/>
<path fill-rule="evenodd" clip-rule="evenodd" d="M15.8789 8.24169C15.1636 8.05203 14.4754 7.70522 13.6084 6.91406C13.8143 7.47763 14.134 8.03577 14.6055 8.43135C14.4321 8.42052 14.3454 8.40426 14.1395 8.36091C14.4917 8.789 14.9414 9.13581 15.5158 9.41217L15.8789 8.24169Z" fill="#FF9626"/>
<path fill-rule="evenodd" clip-rule="evenodd" d="M31.0247 14.7782C30.9867 15.6073 30.9596 16.8862 30.6508 17.6069C30.4015 18.1921 28.597 19.8828 27.5186 20.7498L27.394 20.0996L26.9388 20.4193C26.294 21.4434 25.3077 22.5164 24.3269 22.9607C23.3732 23.3888 20.4524 23.6273 19.6504 22.977C19.1302 22.5489 18.5992 21.709 18.2523 21.1237C17.6292 20.0996 16.838 19.5089 16.1823 18.0729C15.7813 17.1842 15.6675 16.0787 15.8843 15.125C15.7217 14.2038 15.3207 13.3747 14.936 12.5294L14.9143 12.4535C14.5729 10.3022 14.7626 7.5494 16.3286 5.86955C17.7213 4.38477 19.9268 3.534 21.8993 3.22513C24.0126 2.89999 26.2723 3.21971 28.2068 4.14634C29.865 4.9375 31.339 6.27054 31.8267 8.09671C32.2873 9.81992 32.1247 11.6082 31.5286 13.2718L31.0247 14.7782Z" fill="#9A4C18"/>
<path fill-rule="evenodd" clip-rule="evenodd" d="M21.9264 3.59401C26.3753 2.90581 30.6779 4.95415 31.545 8.18381C31.9622 9.74987 31.8647 11.4677 31.2469 13.1855L30.7375 14.7244C30.6996 15.6673 30.6617 16.8486 30.3853 17.4881C30.0927 18.1763 26.4295 21.6877 24.2078 22.6956C23.3733 23.0749 20.5446 23.3242 19.8401 22.7498C19.412 22.3976 19.0869 21.8232 18.5613 20.9561C18.0736 20.1542 17.147 19.2492 16.5455 17.927C16.2366 17.2496 16.0198 16.1821 16.2745 15.1092C16.1119 14.1392 15.7218 13.3155 15.2937 12.3835C14.9523 10.2213 15.104 7.69611 16.5563 6.13547C17.7484 4.86745 19.7155 3.9354 21.9264 3.59401Z" fill="#E5895B"/>
<path fill-rule="evenodd" clip-rule="evenodd" d="M21.926 3.59375C21.2053 4.74797 20.8585 6.34655 21.2757 7.79339C24.2778 7.33821 25.0527 7.41949 26.6079 7.88551C26.2503 8.67667 26.0877 9.61956 26.1419 10.6708C25.329 10.9634 24.565 11.2506 23.9689 11.5162L23.0314 12.6379C24.863 12.5891 25.3832 12.3778 26.1419 12.4916C26.57 13.3369 26.9222 14.5182 26.765 15.6941C27.8705 15.2769 28.472 15.7158 28.4937 16.5612C27.8055 17.8346 27.2473 18.6149 26.299 19.7529C26.6946 19.4223 26.933 19.2923 27.3665 18.9726C26.5049 20.3923 25.535 21.4598 24.2019 22.7008C23.3674 23.0801 20.5387 23.3294 19.8343 22.755C19.4062 22.4027 19.0811 21.8283 18.5554 20.9613C18.0677 20.1593 17.1411 19.2544 16.5396 17.9321C16.2307 17.2548 16.014 16.1873 16.2687 15.1143C16.1061 14.1443 15.7159 13.3207 15.2878 12.3886C14.9464 10.2265 15.0982 7.70127 16.5504 6.14063C17.748 4.86719 19.7151 3.93514 21.926 3.59375Z" fill="url(#paint23_linear_52_57842)"/>
<path fill-rule="evenodd" clip-rule="evenodd" d="M23.5034 12.0752L23.0374 12.6388C24.869 12.59 25.3892 12.3787 26.1478 12.4925C26.4079 12.9964 26.4242 13.4841 26.5326 14.1453C24.0995 14.4921 23.3029 14.6492 21.5851 15.099C21.0757 15.3591 20.7452 15.5867 20.4797 15.8251C20.2792 15.4566 20.187 15.0773 20.0461 14.66C19.9161 14.2753 19.5259 14.3728 19.4934 14.6926C19.4446 15.2453 19.32 15.7059 19.1412 16.1177C18.6643 15.7926 18.0628 15.6354 17.4234 15.5271L16.7027 15.5921C16.5455 15.4566 16.3992 15.3049 16.2692 15.1152C16.1066 14.1453 15.7164 13.3216 15.2884 12.3895C15.2179 11.9343 15.1691 11.4629 15.1475 10.9915C15.3588 10.8777 15.5918 10.791 15.8519 10.7422C16.9574 11.2245 17.8786 12.0698 18.7564 13.0073C19.1791 13.1428 19.5422 13.0506 19.9161 12.9477C19.6397 12.5792 19.4392 12.1999 19.3634 11.8639C19.7481 12.3028 20.2466 12.5792 20.7343 12.6767L23.5034 12.0752Z" fill="url(#paint24_linear_52_57842)"/>
<path fill-rule="evenodd" clip-rule="evenodd" d="M19.8351 22.7539C19.407 22.4017 19.0819 21.8273 18.5562 20.9603C18.0685 20.1583 17.1419 19.2533 16.5404 17.9311C16.2315 17.2537 16.0148 16.1862 16.2695 15.1133C16.2803 16.3054 16.5133 17.4813 16.9577 18.24C17.4508 19.0799 18.1878 20.0987 18.5833 20.711C19.2661 21.7677 19.4449 22.1849 19.8351 22.7539Z" fill="#FBFAC4"/>
<path fill-rule="evenodd" clip-rule="evenodd" d="M31.713 11.3086C31.686 11.5091 31.6426 11.6771 31.5992 11.883L29.5943 12.8259L29.2204 13.5195L27.3779 14.5979L27.4701 12.9343L31.713 11.3086Z" fill="#B26036"/>
<path fill-rule="evenodd" clip-rule="evenodd" d="M15.4072 11.0723C15.4506 9.55504 15.4126 8.47126 16.5073 7.30078C15.8191 8.74763 15.9545 9.52253 16.0846 11.0777L15.4072 11.0723Z" fill="#FBFAC4"/>
<path fill-rule="evenodd" clip-rule="evenodd" d="M30.9703 15.869L30.9161 16.4325C30.8674 16.8715 30.7861 17.2941 30.6506 17.6084C30.3417 18.3346 28.2175 19.7868 27.4589 20.4588C27.1554 20.7297 26.5106 21.2283 26.1204 21.5209C26.0717 21.5696 25.9253 21.7376 25.8766 21.7918C25.3943 22.3012 24.8578 22.7293 24.3214 22.9677C23.3676 23.3958 20.4468 23.6342 19.6449 22.984C19.1246 22.5559 18.5936 21.716 18.2468 21.1307C17.6236 20.1065 16.8324 19.5159 16.1768 18.0799C17.0058 18.6164 17.6615 18.7356 19.2926 18.1991C19.8291 18.2641 20.2193 18.1937 20.9291 17.8577C22.7607 17.9282 25.1017 17.2941 26.1313 16.6926C26.4564 16.5192 27.0633 15.8473 27.4318 15.7172C27.7732 15.7281 27.9683 15.7823 28.2555 15.8744C28.0496 15.8961 27.9412 15.9123 27.8165 15.9448C28.1037 16.037 28.3368 16.1508 28.5589 16.6601C28.7052 16.1778 28.7323 15.6089 28.7215 15.1483L29.8053 13.1758C29.4747 15.1157 29.9624 16.6872 30.9703 15.869ZM27.2801 16.3838C27.1717 17.5055 26.9495 18.4375 26.5702 19.2341C26.451 19.4942 26.6948 18.0745 26.5648 18.2966C26.0283 19.9331 24.8199 21.3962 24.3268 21.5371C23.3785 21.8189 23.1346 21.7051 22.6036 21.3962C22.3218 21.4288 21.7257 21.4938 21.303 21.445C21.5794 21.7593 21.4385 21.7701 21.9641 22.1495C21.4222 22.2199 20.8045 22.2362 20.3818 21.9327C20.0621 21.5751 19.4823 20.7406 18.9729 20.0849C19.0921 20.3558 19.1517 20.5617 19.3414 20.8977C18.7453 20.2366 17.9812 19.2612 17.7049 18.9577C20.3276 19.1366 25.6381 18.4971 27.2801 16.3838Z" fill="#A86D54" fill-opacity="0.502"/>
<path fill-rule="evenodd" clip-rule="evenodd" d="M29.1069 7.96675C27.6167 7.67955 26.6304 7.2352 24.9723 7.2352C22.653 7.24062 20.6046 8.14558 18.54 9.03969L23.2165 3.18187C25.5142 2.68333 26.9556 2.91092 29.1611 3.61538C30.7596 4.12476 31.0902 4.23313 32.6888 4.44989C32.3799 4.67748 32.0114 4.9701 31.6809 5.15435L33.0247 5.34943C32.7321 5.54451 32.3474 5.81545 32.0439 5.96176C32.0385 7.55492 32.1469 8.69288 32.2553 10.2427C30.868 11.8033 29.9143 13.4073 28.7221 15.1414C28.9118 13.4561 28.6788 12.2477 28.294 10.6274C28.0339 10.1451 27.7738 10.0097 27.2699 9.78208C28.1369 9.45153 28.6192 9.14807 29.3128 8.47071C29.1502 8.30814 28.9172 8.22686 28.6083 8.17809C28.8197 8.11848 28.9335 8.05887 29.1069 7.96675Z" fill="#663010"/>
<path fill-rule="evenodd" clip-rule="evenodd" d="M19.5801 8.20641C25.7576 5.5349 27.2803 7.69704 30.3528 7.82709C30.0169 7.9734 29.7459 8.0601 29.372 8.18474C29.5237 8.27144 29.6213 8.3744 29.7513 8.50445C29.2203 8.91629 28.7976 9.49069 27.9306 9.80499C28.2503 9.99465 28.3858 10.1735 28.5754 10.5257C28.8789 11.7991 29.1444 13.2351 28.9981 14.2431C29.9193 12.9046 30.8026 11.4469 31.9622 10.141C31.8539 8.56948 31.7509 7.74581 31.7563 6.00634C31.6696 5.97925 31.5558 5.94132 31.442 5.87629C31.7401 5.77875 32.0598 5.6487 32.2278 5.5349C31.6913 5.45904 31.1928 5.38317 30.6888 5.2477C31.209 5.10139 31.6154 4.89005 31.9514 4.64078C29.0306 4.2452 27.3345 2.63579 23.3733 3.50281L19.5801 8.20641Z" fill="#7F3E13"/>
<path fill-rule="evenodd" clip-rule="evenodd" d="M19.5801 8.20339C24.9773 5.86785 27.1069 6.89743 29.5508 7.25508C29.9356 7.17922 30.2336 7.09251 30.6184 6.95704C30.0385 6.94079 29.8001 6.86492 29.372 6.73487C30.3583 6.55063 31.0194 6.35555 31.7617 6.01416C31.675 5.98706 31.5613 5.94913 31.4475 5.8841C31.7455 5.78656 32.0652 5.65651 32.2332 5.54271C31.6967 5.46685 31.1982 5.39098 30.6942 5.25551C31.2144 5.1092 31.6209 4.89786 31.9568 4.64859C29.036 4.25302 27.3399 2.6436 23.3787 3.51063L19.5801 8.20339ZM29.7459 8.50685C29.2149 8.91868 28.7922 9.49308 27.9252 9.80738C29.0957 9.93743 29.7026 9.86699 30.342 9.65565C30.5154 9.46057 30.6129 9.31426 30.7918 9.09209C30.3528 9.30884 30.1469 9.39555 29.6321 9.5256C30.4775 9.14628 31.2686 8.12752 31.5233 7.65066C31.1115 7.96496 30.445 8.26842 29.7459 8.50685Z" fill="#B85A1B"/>
<path fill-rule="evenodd" clip-rule="evenodd" d="M31.94 4.65058C30.0488 4.39048 28.6724 3.62641 26.8625 3.35547C24.9659 4.14121 23.4432 5.47426 22.1914 6.81814C24.1422 6.06492 25.9738 5.8319 28.2768 6.14078C27.5507 5.72894 27.296 5.66392 26.261 5.46884C27.8271 5.39297 28.8187 5.66934 30.1789 5.59889C29.6857 5.27376 29.3823 5.02449 28.7591 4.63433C30.0217 4.84566 30.8183 4.91069 31.94 4.65058Z" fill="url(#paint25_linear_52_57842)"/>
<path fill-rule="evenodd" clip-rule="evenodd" d="M28.25 9.7257C28.6727 9.72028 29.155 9.64984 29.556 9.50895C30.0274 9.1242 30.2604 8.85868 30.8402 8.27344C29.8594 8.96706 29.1766 9.38973 28.25 9.7257Z" fill="#FF9701"/>
<path fill-rule="evenodd" clip-rule="evenodd" d="M15.6945 6.05832C15.624 4.93119 15.7216 3.80406 16.0575 2.69861C16.5561 1.86952 17.2497 1.21383 17.927 0.666524C17.6724 1.2626 17.5423 1.9779 17.4556 2.5252C18.832 1.10004 20.3114 0.444349 22.0346 0C21.4168 0.921212 21.2759 1.30053 20.9508 2.12421C22.9178 1.39807 25.0637 1.40891 27.0633 1.62567C26.0825 2.51437 25.1667 3.40307 24.2563 4.45975L23.01 5.90659L23.5735 6.34011L24.1371 6.22089L26.1204 6.38346C24.1534 6.52977 22.105 7.24506 20.3981 8.30175C20.9074 8.38845 21.2813 8.4318 21.769 8.43722C20.4306 8.89782 19.5039 9.21754 17.9162 9.47223C16.7674 9.28798 15.5861 8.41554 14.6757 7.33176C14.4319 6.06916 14.6378 5.01248 14.9846 4.06417C15.1092 4.88242 15.2826 5.38096 15.6945 6.05832Z" fill="#7F3E13"/>
<path fill-rule="evenodd" clip-rule="evenodd" d="M14.9087 7.16474C14.7732 6.53073 14.7623 5.76667 14.9303 4.99718C15.0821 5.64745 15.3259 6.13515 15.6565 6.47654C15.819 7.05636 16.0412 7.53864 16.2634 8.01551C15.7703 5.76667 15.9382 4.08681 16.3392 2.78086C16.724 2.19562 17.0166 1.83797 17.4339 1.43697C17.2713 2.02763 17.1087 2.56952 17.022 3.04096C16.8215 3.39861 16.7023 3.73458 16.5939 4.11932C17.6777 2.29316 19.428 1.11184 21.3788 0.445312C20.3546 2.06014 20.0349 3.58827 20.0674 4.73166C20.295 3.74 20.4305 3.18185 20.7882 2.52075C22.2133 1.98428 24.5272 1.73501 26.2938 1.86506C24.9119 3.12225 23.6385 4.66121 23.0045 5.90756C24.0991 5.82086 25.1233 6.05387 26.1149 6.38442C24.1045 6.2652 21.7852 7.02385 19.5527 8.48153C19.8453 8.52488 20.1162 8.57365 20.4197 8.60075C19.7694 8.77415 18.9241 9.03426 17.9161 9.19141C16.8269 8.90963 16.0737 8.50863 14.9087 7.16474Z" fill="#B85A1B"/>
<path fill-rule="evenodd" clip-rule="evenodd" d="M26.2991 1.86897C24.9173 3.12615 23.6439 4.66512 23.0099 5.91146C24.1045 5.82476 25.1287 6.05777 26.1203 6.38833C24.2074 6.25827 22.1699 6.46419 19.8561 7.75931C19.9428 6.3233 20.7014 4.29663 21.4492 3.51631C21.1458 4.35082 21.0699 4.75724 21.0916 5.25036C21.5684 4.16658 22.0887 3.4838 22.804 2.77934C24.0395 2.3079 25.2154 2.02612 26.2991 1.86897ZM16.0303 6.56715C15.8623 5.02276 16.0303 3.79268 16.3446 2.78476C16.7294 2.19952 17.022 1.84187 17.4392 1.44088C16.7185 2.34041 16.6264 3.27246 16.5993 4.12323C17.6831 2.29706 19.4334 1.11574 21.3842 0.449219C19.6122 1.59802 18.9999 3.48922 18.756 4.73014C19.157 4.19367 19.4442 3.87938 19.8507 3.51631C19.8019 5.16908 19.6122 7.07653 19.3196 7.84059C19.2437 6.91938 19.2166 6.42626 19.0866 5.64052C19.0378 6.68095 18.458 8.44751 17.9215 9.20073C17.4284 8.23617 16.8757 7.27161 16.5776 5.78141C16.6264 7.01692 16.7077 7.75931 16.9624 8.65342C16.7185 8.46376 16.2525 7.21742 16.0303 6.56715ZM14.9303 4.99567C15.082 5.64594 15.3259 6.13364 15.6564 6.47503C15.7431 6.77307 15.8407 7.05485 15.9491 7.30954C15.7377 7.13613 15.5101 6.93563 15.3367 6.65927C15.2879 6.83268 15.2663 6.91938 15.2609 7.06569C15.0441 6.54005 14.8978 6.009 14.9303 4.99567Z" fill="url(#paint26_linear_52_57842)"/>
<path fill-rule="evenodd" clip-rule="evenodd" d="M16.1986 6.67988C15.9819 5.03254 16.0957 4.05172 16.5617 2.68615C16.3504 3.95418 16.139 5.30348 16.1986 6.67988ZM21.3249 6.6582C21.65 6.42519 21.9914 6.20302 22.4358 6.07296C23.124 5.95917 23.758 5.99168 24.392 6.02419C23.3624 6.12173 22.3328 6.26804 21.3249 6.6582ZM20.9727 6.62027C21.2165 4.98377 22.0348 3.87831 22.8747 2.96252C21.9968 4.38227 21.5254 5.22762 20.9727 6.62027ZM19.515 6.12173C19.4283 5.35225 19.4879 4.52858 19.7805 3.69949C19.7263 4.55025 19.6992 5.38476 19.515 6.12173ZM18.5504 6.19218C18.4366 5.83453 18.312 5.42811 18.2524 5.02712C18.3066 4.07339 18.7076 3.51525 19.1953 2.86498C18.6696 3.91624 18.442 5.03254 18.5504 6.19218ZM16.9302 6.72865C16.7839 6.28972 16.6159 5.55275 16.5454 5.04337C16.773 4.1059 17.4287 3.16844 18.2957 2.28516C17.3637 3.76993 16.8272 4.69656 16.9302 6.72865Z" fill="#FDE049"/>
<path fill-rule="evenodd" clip-rule="evenodd" d="M18.3499 12.5857C18.8701 13.2305 19.0381 14.2439 18.9297 15.1976C18.5071 15.6528 17.3041 15.8804 16.7026 15.5932C16.2311 14.8508 16.0686 13.5502 16.4641 12.7916C16.8489 12.0546 17.808 11.9137 18.3499 12.5857Z" fill="#232323"/>
<path fill-rule="evenodd" clip-rule="evenodd" d="M18.4418 12.839C18.9078 13.4026 19.1733 14.546 19.065 15.3805C18.5556 15.5972 17.4014 15.7002 16.9408 15.4564C16.5181 14.8061 16.3772 13.6952 16.7403 13.0287C17.0925 12.3838 17.9541 12.2538 18.4418 12.839Z" fill="url(#paint27_linear_52_57842)"/>
<path fill-rule="evenodd" clip-rule="evenodd" d="M18.4415 12.839C18.6691 13.1154 18.8533 13.5327 18.9617 13.9878C18.6149 14.8603 16.9784 15.2938 16.5286 13.9824C16.5232 13.6302 16.5882 13.2942 16.7346 13.0287C17.0922 12.3838 17.9538 12.2538 18.4415 12.839Z" fill="white"/>
<path fill-rule="evenodd" clip-rule="evenodd" d="M17.9047 13.0611C18.5008 12.8985 18.9885 13.4296 19.124 13.9444C19.2594 14.4537 19.1023 15.1582 18.5062 15.3153C17.9155 15.4779 17.4224 14.9469 17.2869 14.4321C17.1515 13.9227 17.314 13.2182 17.9047 13.0611Z" fill="#022740"/>
<path fill-rule="evenodd" clip-rule="evenodd" d="M19.0436 14.598C18.9678 14.9068 18.7673 15.1453 18.4909 15.2211C18.2091 15.297 17.9165 15.1886 17.6943 14.961C17.7702 14.6521 17.9707 14.4137 18.2525 14.3433C18.5288 14.262 18.8215 14.3704 19.0436 14.598Z" fill="url(#paint28_radial_52_57842)"/>
<path fill-rule="evenodd" clip-rule="evenodd" d="M18.0296 13.526C18.3222 13.4502 18.6365 13.6832 18.734 14.0463C18.8316 14.4093 18.6744 14.7724 18.3818 14.8483C18.0892 14.9241 17.7749 14.6911 17.6774 14.328C17.5798 13.9596 17.737 13.6019 18.0296 13.526Z" fill="#151720"/>
<path fill-rule="evenodd" clip-rule="evenodd" d="M17.3903 13.5099C17.6559 13.4394 17.9214 13.5857 17.9918 13.8404C18.0569 14.0951 17.8997 14.3552 17.6342 14.4256C17.3741 14.4961 17.1086 14.3498 17.0381 14.0951C16.9731 13.8458 17.1302 13.5803 17.3903 13.5099Z" fill="white"/>
<path fill-rule="evenodd" clip-rule="evenodd" d="M14.2042 11.5038C14.3668 11.1949 15.0442 10.4634 15.8299 10.1328C16.9625 10.5555 17.6236 11.0161 18.198 11.5309C18.6044 12.1486 18.9729 13.059 18.9945 13.5792C17.9758 12.9019 16.762 11.623 15.6457 11.4225C15.1417 11.6176 14.7136 11.8343 14.2042 12.2408C14.1663 11.9915 14.0959 11.8289 14.2042 11.5038Z" fill="#7F3E13"/>
<path fill-rule="evenodd" clip-rule="evenodd" d="M18.5452 12.6522C18.3988 12.2837 18.2092 11.9152 18.052 11.6605C17.3367 11.0807 16.7352 10.6906 15.8357 10.3438C15.4618 10.5172 14.9416 10.8694 14.6436 11.2108C15.0391 11.0157 15.3697 10.8694 15.6406 10.7881C16.3234 10.9344 17.1742 11.4384 17.4451 11.6389C17.2717 11.6118 17.1742 11.5793 17.0008 11.563C17.5806 11.9532 18.09 12.3216 18.5452 12.6522Z" fill="url(#paint29_linear_52_57842)"/>
<path fill-rule="evenodd" clip-rule="evenodd" d="M26.5492 14.2506C25.8394 14.4078 25.2216 14.7979 24.8043 15.2043C24.1161 15.4482 23.7856 15.4915 23.2491 15.5186C22.2846 15.0526 21.9974 13.5462 22.5718 12.6412C24.1866 12.289 26.0669 12.2077 26.5113 12.3215C26.9069 12.7821 27.1507 13.8334 26.5492 14.2506Z" fill="#232323"/>
<path fill-rule="evenodd" clip-rule="evenodd" d="M26.5483 14.2522C25.9035 14.4744 25.3995 14.7507 24.9823 15.1572C24.2616 15.3251 23.9039 15.3631 23.3945 15.3197C22.6413 14.8645 22.4408 13.7103 22.8526 12.93C23.4867 12.5778 25.7138 12.2797 26.2936 12.6157C26.7217 13.0275 26.8572 13.7591 26.5483 14.2522Z" fill="url(#paint30_linear_52_57842)"/>
<path fill-rule="evenodd" clip-rule="evenodd" d="M22.6466 13.9813C22.6195 13.6182 22.6845 13.2443 22.8471 12.93C23.4811 12.5778 25.7083 12.2797 26.2881 12.6157C26.4506 12.7783 26.5753 12.9788 26.6457 13.2009C26.0876 14.1276 23.3781 15.0542 22.7008 14.0842C22.6791 14.0517 22.6628 14.0138 22.6466 13.9813Z" fill="white"/>
<path fill-rule="evenodd" clip-rule="evenodd" d="M25.9253 12.5077C26.2667 12.6811 26.5051 13.0008 26.5864 13.3205C26.6677 13.6185 26.6352 13.9816 26.4618 14.2851C25.9903 14.453 25.5893 14.6535 25.248 14.9245C24.6735 14.8757 24.2509 14.4314 24.1317 13.9762C23.9962 13.4722 24.1913 12.7786 24.8144 12.4914C25.2263 12.4589 25.6273 12.4589 25.9253 12.5077Z" fill="#022740"/>
<path fill-rule="evenodd" clip-rule="evenodd" d="M26.4344 14.0508C26.3964 14.1592 26.3423 14.2622 26.2772 14.3489C25.9358 14.4789 25.6432 14.6361 25.3777 14.8203C25.1176 14.8257 24.8575 14.7336 24.6299 14.5331C24.7491 14.1863 25.0255 13.9099 25.3994 13.807C25.7733 13.7149 26.158 13.8178 26.4344 14.0508Z" fill="url(#paint31_radial_52_57842)"/>
<path fill-rule="evenodd" clip-rule="evenodd" d="M25.1662 12.9263C25.5564 12.8233 25.9574 13.0618 26.0657 13.4628C26.1741 13.8583 25.9465 14.2702 25.5564 14.3731C25.1716 14.4761 24.7652 14.2377 24.6568 13.8367C24.543 13.4411 24.776 13.0292 25.1662 12.9263Z" fill="#151720"/>
<path fill-rule="evenodd" clip-rule="evenodd" d="M24.2238 12.7476C24.5435 12.6609 24.8741 12.8505 24.9608 13.1702C25.0475 13.4954 24.8578 13.8205 24.5381 13.9072C24.2184 13.9939 23.8878 13.8043 23.8066 13.4845C23.7199 13.1594 23.9041 12.8288 24.2238 12.7476Z" fill="white"/>
<path fill-rule="evenodd" clip-rule="evenodd" d="M19.2383 11.6405C19.5688 13.0278 19.9319 13.2337 20.4521 13.3475C19.9861 12.8814 19.661 12.4534 19.2383 11.6405ZM19.5092 11.375C19.8506 12.2203 20.257 12.9302 20.8314 13.2608C23.0532 12.9952 24.6301 11.9711 27.3341 11.8193C27.074 11.5376 26.673 11.4346 26.2287 11.2558C24.4242 11.0553 22.7931 11.7272 20.9398 11.879C20.4304 11.9169 19.9482 11.6568 19.5092 11.375Z" fill="#7F3E13"/>
<path fill-rule="evenodd" clip-rule="evenodd" d="M26.1802 11.4436C24.4299 11.254 22.7175 11.9259 20.9563 12.0668C20.5933 12.0993 20.2465 11.9909 19.9268 11.8392C20.3115 12.3594 20.4361 12.5382 20.8155 12.8038C21.4603 12.6954 22.2298 12.6033 22.7717 12.4136C22.582 12.3974 22.4303 12.3486 22.2948 12.2456C23.655 11.9638 24.6141 11.5628 26.1802 11.4436Z" fill="url(#paint32_linear_52_57842)"/>
<path fill-rule="evenodd" clip-rule="evenodd" d="M27.4752 12.6678L32.6394 10.6953L32.1679 11.3781L29.5615 12.6515L29.2309 13.253L27.4102 14.1634L27.4752 12.6678Z" fill="#232323"/>
<path fill-rule="evenodd" clip-rule="evenodd" d="M27.4531 12.9702L27.4856 13.5609L29.2088 12.7752L29.3768 12.5151L29.7345 12.3471C29.8645 12.2604 30.1572 12.1303 30.2709 11.8594L27.4531 12.9702Z" fill="#3C3C3C"/>
<path fill-rule="evenodd" clip-rule="evenodd" d="M20.2947 13.968C20.2839 13.7242 20.4139 13.5725 20.647 13.5129C22.5165 13.0468 24.9929 12.7217 26.9112 12.7705C27.0629 12.7759 27.2038 12.8788 27.258 13.0143C23.8387 14.1089 21.877 15.7346 21.0209 16.5908C21.0046 16.5799 20.9883 16.5691 20.9775 16.5583C20.5332 16.141 20.3272 14.5804 20.2947 13.968ZM14.9463 16.5474C14.93 16.5203 14.9138 16.4932 14.9029 16.4661C14.7024 15.9405 14.5615 14.9109 14.5073 14.3365C14.4911 14.1685 14.6103 14.0222 14.7729 13.9897C16.0246 13.7296 17.3035 13.6104 18.5769 13.7567C18.8208 13.7784 18.8804 13.9572 18.9183 14.1685C18.9346 14.2661 18.9454 14.3636 18.9617 14.4612C17 15.0193 15.8512 15.8213 14.9463 16.5474Z" fill="url(#paint33_linear_52_57842)"/>
<path fill-rule="evenodd" clip-rule="evenodd" d="M18.1219 17.3541C17.2819 17.4733 16.1494 17.5058 15.3962 17.2349C15.0656 17.1157 14.8164 16.9585 14.7134 16.7418C14.4099 16.1186 14.2582 14.9156 14.2257 14.4117C14.2203 14.3575 14.1065 14.2979 14.036 14.2437C13.9331 14.1624 13.8735 13.7722 13.9277 13.6476C15.6129 13.1924 17.1465 13.019 18.6692 13.2087C18.8643 13.2358 19.0485 13.3116 19.2273 13.3821C19.4278 13.4579 19.7475 13.4254 19.9318 13.2628C20.2027 13.0353 20.3653 13.0136 20.6796 12.9323C22.923 12.3471 25.8926 12.0382 28.0005 12.1845C28.0547 12.385 28.1035 12.6776 28.0005 12.8835C27.9572 12.9756 27.6158 13.0894 27.6212 13.1978C27.6266 13.8264 27.6212 14.4008 27.4966 14.8777C27.269 15.7393 26.4941 16.0698 25.6921 16.3191C23.9255 16.8718 21.2106 17.2241 20.75 16.796C20.3057 16.3841 20.0618 15.1649 19.9751 14.1841C19.7042 14.0161 19.4549 14.0215 19.2436 14.2328C19.3032 14.6826 19.3682 15.2245 19.3465 15.7393C19.3195 16.6659 19.0973 17.2132 18.1219 17.3541ZM20.3924 13.9565C20.4412 14.7585 20.6688 16.1349 21.0481 16.4871C21.4599 16.8718 25.3073 16.2161 26.5754 15.5171C27.2798 15.1269 27.2527 14.0865 27.1931 13.1274C27.1823 12.9865 27.0522 12.8673 26.9167 12.8619C25.031 12.8131 22.5491 13.1328 20.6742 13.5988C20.4845 13.653 20.3816 13.7668 20.3924 13.9565ZM18.9293 15.0457C18.9076 14.7422 18.8643 14.4387 18.8263 14.1732C18.7938 13.9836 18.7451 13.8589 18.5662 13.8427C17.3145 13.7072 16.0573 13.821 14.7947 14.0757C14.6917 14.0974 14.5942 14.1895 14.605 14.3195C14.6592 14.8831 14.8055 15.9235 15.0006 16.4275C15.0602 16.5846 15.2228 16.7093 15.4558 16.8014C16.2361 17.1211 17.7209 17.0507 18.4849 16.861C18.7342 16.796 18.8588 16.5521 18.9185 16.2541C18.9997 15.8368 18.9564 15.3166 18.9293 15.0457Z" fill="#232323"/>
<path fill-rule="evenodd" clip-rule="evenodd" d="M14.4099 14.3388C14.3882 14.122 14.5562 13.9703 14.7513 13.889C15.4395 13.6072 17.1735 13.2984 18.6475 13.4067C17.1085 13.2171 15.5858 13.3959 14.1064 13.8023C14.1227 14.2738 14.3178 14.0841 14.4099 14.3388ZM19.9372 13.9269C20.0835 13.7373 20.2352 13.5476 20.5874 13.423C22.2402 12.8323 25.0797 12.5397 26.3369 12.3555C24.462 12.388 22.3648 12.6806 20.7283 13.1304C20.4845 13.1954 20.3219 13.1954 20.1593 13.3471C19.9751 13.5043 19.948 13.7048 19.9372 13.9269ZM14.838 16.5226C15.2119 17.4384 17.3686 17.2487 18.0785 17.1024C18.2411 17.0699 18.382 17.0374 18.5012 16.994C17.6721 17.2 15.3149 17.3571 14.838 16.5226ZM22.1156 16.7394C23.2319 16.6852 25.9305 16.2462 26.7487 15.596C25.8817 16.0999 23.2806 16.6472 22.1156 16.7394Z" fill="#3C3C3C"/>
<path fill-rule="evenodd" clip-rule="evenodd" d="M30.9758 14.6358L30.19 13.3461C29.8541 12.1377 31.1221 9.52576 32.6502 9.47699C33.9833 9.43906 34.0374 11.9101 33.9291 12.7988C33.7828 14.0722 32.6394 15.6979 31.3605 16.0555C30.8132 16.2127 30.2876 16.0555 30.125 15.5245L30.9758 14.6358Z" fill="#9A4C18"/>
<path fill-rule="evenodd" clip-rule="evenodd" d="M30.1192 15.5261C30.0542 14.7512 30.0921 14.0846 30.1897 13.3477C30.3143 12.4048 31.2518 9.87959 32.6607 9.83623C33.5711 9.80914 33.7391 11.6407 33.6036 12.7624C33.3706 14.697 31.0784 16.5936 30.1192 15.5261Z" fill="url(#paint34_linear_52_57842)"/>
<path fill-rule="evenodd" clip-rule="evenodd" d="M30.4822 12.0936C30.8778 11.0098 31.6473 9.68757 32.6606 9.66048C33.3597 9.6388 33.6198 10.7117 33.6414 11.7197C33.0887 12.8576 32.0104 13.7897 31.1162 13.7897C30.2655 13.7843 30.2438 12.7384 30.4822 12.0936Z" fill="url(#paint35_linear_52_57842)"/>
<path fill-rule="evenodd" clip-rule="evenodd" d="M31.1381 14.4302C31.642 14.0834 31.6312 13.108 30.8184 13.4386C30.9105 12.3657 31.5878 10.8429 32.4874 10.805C33.2189 10.7725 33.5603 13.211 31.7775 14.1268L31.1381 14.4302Z" fill="#9A4C18"/>
<path fill-rule="evenodd" clip-rule="evenodd" d="M31.122 14.4413C32.0432 13.959 31.588 13.0215 31.0732 13.1949C31.2304 12.3983 31.7343 11.0436 32.5255 11.0274C33.0566 11.0219 33.0674 12.4579 32.9211 13.0323C32.6339 14.1378 31.6585 14.7935 31.122 14.4413Z" fill="url(#paint36_linear_52_57842)"/>
<path fill-rule="evenodd" clip-rule="evenodd" d="M18.3936 17.3732C18.7729 16.9614 19.499 16.2028 19.499 14.8047C19.6399 15.6934 19.3256 17.1186 18.6862 17.6496C18.529 17.6063 18.4423 17.5196 18.3936 17.3732Z" fill="url(#paint37_linear_52_57842)"/>
<path fill-rule="evenodd" clip-rule="evenodd" d="M18.3933 17.3739C18.6155 17.6015 18.9081 17.5581 19.179 17.4877C19.4446 17.4172 19.6884 17.2709 19.9485 17.168C20.2032 17.2222 20.3712 17.3847 20.5121 17.6232C20.0461 17.8562 19.5313 18.0621 19.0327 18.1C18.6371 18.0512 18.3012 17.6719 18.3933 17.3739Z" fill="#E5895B"/>
<path d="M18.0078 17.2339C18.7719 16.6649 19.395 15.4835 19.3842 14.4106C19.3842 14.2209 19.4547 14.4648 19.4601 14.5352C19.6552 15.787 19.0157 16.8762 18.3871 17.3802C18.3384 17.6078 18.7339 18.0196 19.0266 18.1009C18.5551 18.1225 18.1487 17.8299 18.0078 17.2339Z" fill="#9A4C18"/>
<path fill-rule="evenodd" clip-rule="evenodd" d="M25.9082 16.5997C26.2333 15.9115 27.1762 15.0824 27.9565 15.3967C27.2575 15.5701 26.4176 16.1228 25.9082 16.5997Z" fill="#9A4C18"/>
<path fill-rule="evenodd" clip-rule="evenodd" d="M25.9082 16.5975C26.5476 15.8985 27.1708 15.4325 27.9565 15.3945C27.2575 15.6655 26.4772 16.2724 25.9082 16.5975Z" fill="url(#paint38_linear_52_57842)"/>
<path fill-rule="evenodd" clip-rule="evenodd" d="M24.2397 20.8672C23.5406 22.4062 20.6957 22.4712 20.4844 21.2953L24.2397 20.8672Z" fill="#BD7447"/>
<path fill-rule="evenodd" clip-rule="evenodd" d="M25.763 18.6445C25.026 20.0263 24.4733 20.9042 24.0506 21.2077C23.3082 21.7496 19.3958 22.1506 19.5421 20.7687L20.6638 20.8446L25.763 18.6445Z" fill="url(#paint39_linear_52_57842)"/>
<path fill-rule="evenodd" clip-rule="evenodd" d="M18.3174 18.6952C20.5012 18.7603 22.3653 18.4297 24.3594 17.9203C25.0693 17.7361 25.9797 17.3134 26.2886 16.8799C26.229 16.8582 26.1856 16.8474 26.0718 16.842C26.3157 16.5819 26.5378 16.5223 26.8359 16.5277C26.5487 16.6035 26.424 16.6848 26.397 16.7228C26.3699 16.7715 26.5595 16.7769 26.4999 16.8528C26.229 17.2538 25.7955 17.6765 25.5028 18.1262C24.7388 19.3184 24.1319 20.3913 23.7146 20.749C23.151 21.2367 20.6909 21.551 19.6179 20.684C19.7642 20.6677 19.9051 20.6785 20.0514 20.6894C19.9647 20.451 19.8726 19.8549 19.6721 19.4701C19.5583 19.2534 19.3361 19.042 19.1952 18.9066C18.8972 18.8849 18.6425 18.8036 18.3174 18.6952Z" fill="#9A4C18"/>
<path fill-rule="evenodd" clip-rule="evenodd" d="M19.6123 18.9551C19.8724 19.2694 20.1379 20.3857 20.268 20.7488C20.9074 21.269 23.0208 20.9439 23.5193 20.6242C24.0558 20.1202 24.9608 18.4024 25.5026 17.7305C23.8932 18.4945 21.4114 18.8142 19.6123 18.9551Z" fill="#792936"/>
<path fill-rule="evenodd" clip-rule="evenodd" d="M24.3915 19.4327C23.7141 19.1943 20.9396 19.4977 20.6416 20.9337C21.5032 21.1776 23.0909 20.9012 23.519 20.6303C23.7575 20.4027 24.0718 19.9366 24.3915 19.4327Z" fill="#C93853"/>
<path fill-rule="evenodd" clip-rule="evenodd" d="M21.8125 19.75C21.2327 19.9993 20.7613 20.3841 20.6475 20.9314C21.5091 21.1752 23.0968 20.8988 23.5249 20.6279C23.4707 19.5875 22.3436 19.4737 21.8125 19.75Z" fill="#F25E79"/>
<path fill-rule="evenodd" clip-rule="evenodd" d="M20.403 20.8415C21.1617 21.2371 23.0529 20.9336 23.5189 20.6302C23.6381 20.5218 23.7628 20.3592 23.9091 20.1641C23.8169 20.1587 23.5514 20.1966 23.4539 20.2617C23.3997 20.2942 23.2913 20.3375 23.0583 20.4134C22.3105 20.6681 20.8745 20.6247 20.6252 20.4947C20.4735 20.4188 20.5873 20.3213 20.7444 20.2508C20.4572 20.3159 20.3489 20.3863 20.338 20.5001C20.3272 20.6139 20.3922 20.7277 20.403 20.8415ZM19.7148 18.9503C19.9045 19.1725 20.1375 19.4163 20.2622 19.4326C21.2809 19.606 23.042 19.3134 23.8061 18.8257C23.8766 18.7335 24.0445 18.4626 24.1963 18.2188C22.7603 18.6306 21.0587 18.8419 19.7148 18.9503Z" fill="url(#paint40_linear_52_57842)"/>
<path fill-rule="evenodd" clip-rule="evenodd" d="M23.4868 20.6517C23.4543 20.5325 23.411 20.4024 23.3676 20.294L23.0587 20.4078C22.3109 20.6625 20.8749 20.6192 20.6256 20.4891C20.4739 20.4132 20.5877 20.3157 20.7449 20.2452C20.4577 20.3103 20.3493 20.3807 20.3384 20.4945C20.333 20.6137 20.398 20.7221 20.4035 20.8359C21.1459 21.2206 22.9558 20.9389 23.4868 20.6517ZM19.8887 19.1398C20.035 19.2915 20.1759 19.4162 20.2626 19.4324C21.1025 19.5787 22.441 19.3999 23.3134 19.0639C23.3893 18.9447 23.4489 18.7605 23.4326 18.625C22.2947 18.9393 20.9941 19.0964 19.8887 19.1398Z" fill="url(#paint41_linear_52_57842)"/>
</g>
<defs>
<linearGradient id="paint0_linear_52_57842" x1="18.3079" y1="47.0542" x2="14.7531" y2="47.0542" gradientUnits="userSpaceOnUse">
<stop stop-color="#B2B2B2"/>
<stop offset="1" stop-color="white"/>
</linearGradient>
<linearGradient id="paint1_linear_52_57842" x1="18.9831" y1="48.224" x2="17.2988" y2="46.772" gradientUnits="userSpaceOnUse">
<stop stop-color="#B2B2B2"/>
<stop offset="1" stop-color="white"/>
</linearGradient>
<linearGradient id="paint2_linear_52_57842" x1="28.0069" y1="47.2602" x2="26.4965" y2="47.2602" gradientUnits="userSpaceOnUse">
<stop stop-color="#B2B2B2"/>
<stop offset="1" stop-color="white"/>
</linearGradient>
<linearGradient id="paint3_linear_52_57842" x1="31.6656" y1="47.2869" x2="29.8062" y2="47.2869" gradientUnits="userSpaceOnUse">
<stop stop-color="#B2B2B2"/>
<stop offset="1" stop-color="white"/>
</linearGradient>
<linearGradient id="paint4_linear_52_57842" x1="29.2702" y1="46.661" x2="28.3845" y2="46.661" gradientUnits="userSpaceOnUse">
<stop stop-color="#B2B2B2"/>
<stop offset="1" stop-color="white"/>
</linearGradient>
<linearGradient id="paint5_linear_52_57842" x1="22.0212" y1="40.1425" x2="19.1462" y2="39.8812" gradientUnits="userSpaceOnUse">
<stop stop-color="#3C3C3C"/>
<stop offset="1" stop-color="#666666"/>
</linearGradient>
<linearGradient id="paint6_linear_52_57842" x1="27.8496" y1="38.6173" x2="25.4103" y2="39.9531" gradientUnits="userSpaceOnUse">
<stop stop-color="#3C3C3C"/>
<stop offset="1" stop-color="#666666"/>
</linearGradient>
<linearGradient id="paint7_linear_52_57842" x1="22.4311" y1="37.3527" x2="22.4311" y2="35.7532" gradientUnits="userSpaceOnUse">
<stop stop-color="#3C3C3C"/>
<stop offset="1" stop-color="#666666"/>
</linearGradient>
<linearGradient id="paint8_linear_52_57842" x1="18.322" y1="27.7052" x2="18.653" y2="28.9526" gradientUnits="userSpaceOnUse">
<stop stop-color="#CC6633"/>
<stop offset="1" stop-color="#FF9701"/>
</linearGradient>
<linearGradient id="paint9_linear_52_57842" x1="18.2466" y1="25.8762" x2="18.6539" y2="26.9963" gradientUnits="userSpaceOnUse">
<stop stop-color="#FF9701"/>
<stop offset="1" stop-color="#CC6633"/>
</linearGradient>
<linearGradient id="paint10_linear_52_57842" x1="10.9555" y1="32.8386" x2="12.3883" y2="23.0148" gradientUnits="userSpaceOnUse">
<stop stop-color="#FAD395"/>
<stop offset="1" stop-color="#E5895B"/>
</linearGradient>
<linearGradient id="paint11_linear_52_57842" x1="10.8471" y1="18.7576" x2="10.3778" y2="19.17" gradientUnits="userSpaceOnUse">
<stop stop-color="#FAD395"/>
<stop offset="1" stop-color="#E5895B"/>
</linearGradient>
<linearGradient id="paint12_linear_52_57842" x1="12.6722" y1="19.873" x2="12.2649" y2="20.5858" gradientUnits="userSpaceOnUse">
<stop stop-color="#FAD395"/>
<stop offset="1" stop-color="#E5895B"/>
</linearGradient>
<linearGradient id="paint13_linear_52_57842" x1="26.3891" y1="24.5644" x2="23.5355" y2="24.5644" gradientUnits="userSpaceOnUse">
<stop stop-color="#E5895B"/>
<stop offset="1" stop-color="#FAD395"/>
</linearGradient>
<linearGradient id="paint14_linear_52_57842" x1="26.0338" y1="29.2515" x2="27.621" y2="29.6861" gradientUnits="userSpaceOnUse">
<stop stop-color="#CCCCCC"/>
<stop offset="1" stop-color="white"/>
</linearGradient>
<linearGradient id="paint15_linear_52_57842" x1="22.2522" y1="31.9958" x2="25.9935" y2="32.3737" gradientUnits="userSpaceOnUse">
<stop stop-color="white"/>
<stop offset="1" stop-color="#CCCCCC"/>
</linearGradient>
<linearGradient id="paint16_linear_52_57842" x1="28.6474" y1="28.1463" x2="28.0683" y2="28.8627" gradientUnits="userSpaceOnUse">
<stop stop-color="#CC6633"/>
<stop offset="1" stop-color="#FF9701"/>
</linearGradient>
<linearGradient id="paint17_linear_52_57842" x1="28.4651" y1="28.1313" x2="29.6625" y2="26.7081" gradientUnits="userSpaceOnUse">
<stop stop-color="#CC6633"/>
<stop offset="1" stop-color="#FF9701"/>
</linearGradient>
<linearGradient id="paint18_linear_52_57842" x1="31.4202" y1="30.046" x2="32.5984" y2="29.0237" gradientUnits="userSpaceOnUse">
<stop stop-color="#E5895B"/>
<stop offset="1" stop-color="#FAD395"/>
</linearGradient>
<linearGradient id="paint19_linear_52_57842" x1="31.7966" y1="33.1816" x2="31.1035" y2="31.6914" gradientUnits="userSpaceOnUse">
<stop stop-color="#E5895B"/>
<stop offset="1" stop-color="#FAD395"/>
</linearGradient>
<linearGradient id="paint20_linear_52_57842" x1="27.4306" y1="30.6344" x2="27.4306" y2="29.506" gradientUnits="userSpaceOnUse">
<stop stop-color="#E5895B"/>
<stop offset="1" stop-color="#FAD395"/>
</linearGradient>
<linearGradient id="paint21_linear_52_57842" x1="27.2274" y1="33.2586" x2="27.574" y2="31.3179" gradientUnits="userSpaceOnUse">
<stop stop-color="#E5895B"/>
<stop offset="1" stop-color="#FAD395"/>
</linearGradient>
<linearGradient id="paint22_linear_52_57842" x1="25.4088" y1="34.1036" x2="27.0722" y2="33.3932" gradientUnits="userSpaceOnUse">
<stop stop-color="#E5895B"/>
<stop offset="1" stop-color="#FAD395"/>
</linearGradient>
<linearGradient id="paint23_linear_52_57842" x1="24.191" y1="12.8746" x2="27.9082" y2="11.9789" gradientUnits="userSpaceOnUse">
<stop stop-color="#FAD395"/>
<stop offset="1" stop-color="#E5895B"/>
</linearGradient>
<linearGradient id="paint24_linear_52_57842" x1="20.8385" y1="13.8545" x2="20.8385" y2="15.6082" gradientUnits="userSpaceOnUse">
<stop stop-color="#E5895B"/>
<stop offset="1" stop-color="#FAD395"/>
</linearGradient>
<linearGradient id="paint25_linear_52_57842" x1="27.1501" y1="6.61375" x2="26.8602" y2="3.56811" gradientUnits="userSpaceOnUse">
<stop stop-color="#B85A1B"/>
<stop offset="1" stop-color="#FF9701"/>
</linearGradient>
<linearGradient id="paint26_linear_52_57842" x1="20.6126" y1="4.40347" x2="20.6126" y2="9.0312" gradientUnits="userSpaceOnUse">
<stop stop-color="#FF9701"/>
<stop offset="1" stop-color="#B85A1B"/>
</linearGradient>
<linearGradient id="paint27_linear_52_57842" x1="17.8507" y1="14.8279" x2="17.9428" y2="15.6874" gradientUnits="userSpaceOnUse">
<stop stop-color="#BDD6DE"/>
<stop offset="1" stop-color="white"/>
</linearGradient>
<radialGradient id="paint28_radial_52_57842" cx="0" cy="0" r="1" gradientUnits="userSpaceOnUse" gradientTransform="translate(18.4902 15.0085) rotate(-53.8599) scale(0.850426)">
<stop stop-color="#33B4FF"/>
<stop offset="1" stop-color="#022740"/>
</radialGradient>
<linearGradient id="paint29_linear_52_57842" x1="16.6935" y1="10.4725" x2="16.552" y2="12.5265" gradientUnits="userSpaceOnUse">
<stop stop-color="#B85A1B"/>
<stop offset="1" stop-color="#7F3E13"/>
</linearGradient>
<linearGradient id="paint30_linear_52_57842" x1="24.778" y1="14.3505" x2="24.9161" y2="15.1639" gradientUnits="userSpaceOnUse">
<stop stop-color="#BDD6DE"/>
<stop offset="1" stop-color="white"/>
</linearGradient>
<radialGradient id="paint31_radial_52_57842" cx="0" cy="0" r="1" gradientUnits="userSpaceOnUse" gradientTransform="translate(25.6757 14.5201) rotate(-48.4364) scale(1.03248)">
<stop stop-color="#33B4FF"/>
<stop offset="1" stop-color="#022740"/>
</radialGradient>
<linearGradient id="paint32_linear_52_57842" x1="23.0423" y1="11.469" x2="23.1284" y2="12.736" gradientUnits="userSpaceOnUse">
<stop stop-color="#B85A1B"/>
<stop offset="1" stop-color="#7F3E13"/>
</linearGradient>
<linearGradient id="paint33_linear_52_57842" x1="20.7829" y1="13.0235" x2="21.1987" y2="15.9692" gradientUnits="userSpaceOnUse">
<stop stop-color="white"/>
<stop offset="1" stop-color="white" stop-opacity="0"/>
</linearGradient>
<linearGradient id="paint34_linear_52_57842" x1="32.0102" y1="13.2035" x2="33.4222" y2="14.7587" gradientUnits="userSpaceOnUse">
<stop stop-color="#E5895B"/>
<stop offset="1" stop-color="#FAD395"/>
</linearGradient>
<linearGradient id="paint35_linear_52_57842" x1="31.6991" y1="11.3718" x2="32.5654" y2="13.1045" gradientUnits="userSpaceOnUse">
<stop stop-color="#FAD395"/>
<stop offset="1" stop-color="#E5895B"/>
</linearGradient>
<linearGradient id="paint36_linear_52_57842" x1="31.073" y1="11.6762" x2="32.9206" y2="13.9887" gradientUnits="userSpaceOnUse">
<stop stop-color="#C76636"/>
<stop offset="1" stop-color="#E5895B"/>
</linearGradient>
<linearGradient id="paint37_linear_52_57842" x1="18.9623" y1="17.1851" x2="18.9623" y2="15.4795" gradientUnits="userSpaceOnUse">
<stop stop-color="#FBFAC4"/>
<stop offset="1" stop-color="#FAD395"/>
</linearGradient>
<linearGradient id="paint38_linear_52_57842" x1="26.935" y1="15.2941" x2="26.935" y2="15.952" gradientUnits="userSpaceOnUse">
<stop stop-color="#FBFAC4"/>
<stop offset="1" stop-color="#FAD395"/>
</linearGradient>
<linearGradient id="paint39_linear_52_57842" x1="22.6477" y1="21.7611" x2="22.6477" y2="20.7986" gradientUnits="userSpaceOnUse">
<stop stop-color="#FBFAC4"/>
<stop offset="1" stop-color="#FAD395"/>
</linearGradient>
<linearGradient id="paint40_linear_52_57842" x1="23.5608" y1="19.5726" x2="24.0152" y2="19.5367" gradientUnits="userSpaceOnUse">
<stop stop-color="#BDD6DE"/>
<stop offset="1" stop-color="white"/>
</linearGradient>
<linearGradient id="paint41_linear_52_57842" x1="23.6763" y1="19.7593" x2="22.6718" y2="19.8191" gradientUnits="userSpaceOnUse">
<stop stop-color="#BDD6DE"/>
<stop offset="1" stop-color="white"/>
</linearGradient>
<clipPath id="clip0_52_57842">
<rect width="29.9936" height="51.2031" fill="white" transform="translate(5.00293)"/>
</clipPath>
</defs>
</svg>
