<svg width="90" height="835" viewBox="0 0 90 835" fill="none" xmlns="http://www.w3.org/2000/svg">
<rect width="90" height="835" rx="30" fill="#1C797C"/>
<path d="M66.3862 121.225L56.0345 114.496C55.467 114.124 54.7457 113.92 54 113.92C53.2543 113.92 52.533 114.124 51.9655 114.496L41.6138 121.225C41.2646 121.452 40.9839 121.734 40.7916 122.053C40.5992 122.372 40.4997 122.719 40.5 123.071V132.022C40.5012 132.831 40.92 133.606 41.6645 134.178C42.409 134.75 43.4185 135.072 44.4714 135.073H50.3025V127.938C50.3027 127.689 50.4317 127.45 50.6612 127.274C50.8907 127.097 51.202 126.998 51.5264 126.998H56.4736C56.6342 126.998 56.7933 127.023 56.9417 127.07C57.0901 127.117 57.2249 127.186 57.3385 127.274C57.4521 127.361 57.5422 127.465 57.6037 127.579C57.6651 127.693 57.6968 127.815 57.6968 127.938V135.073H63.5286C64.5815 135.072 65.591 134.75 66.3355 134.178C67.08 133.606 67.4988 132.831 67.5 132.022V123.071C67.5004 122.719 67.4009 122.372 67.2085 122.053C67.0162 121.735 66.7355 121.452 66.3862 121.225Z" fill="white"/>
<path d="M47.781 177.74H44.7107C42.3852 177.74 40.5 179.188 40.5 180.975V183.334C40.5 185.121 42.3852 186.57 44.7107 186.57H47.781C50.1065 186.57 51.9917 185.121 51.9917 183.334V180.975C51.9917 179.188 50.1065 177.74 47.781 177.74Z" fill="#69A6A8"/>
<path d="M47.781 189.857H44.7107C42.3852 189.857 40.5 191.305 40.5 193.092V195.451C40.5 197.238 42.3852 198.687 44.7107 198.687H47.781C50.1065 198.687 51.9917 197.238 51.9917 195.451V193.092C51.9917 191.305 50.1065 189.857 47.781 189.857Z" fill="#69A6A8"/>
<path d="M63.2898 177.74H60.2195C57.894 177.74 56.0088 179.188 56.0088 180.975V183.334C56.0088 185.121 57.894 186.57 60.2195 186.57H63.2898C65.6153 186.57 67.5005 185.121 67.5005 183.334V180.975C67.5005 179.188 65.6153 177.74 63.2898 177.74Z" fill="#69A6A8"/>
<path d="M63.2898 189.857H60.2195C57.894 189.857 56.0088 191.305 56.0088 193.092V195.451C56.0088 197.238 57.894 198.687 60.2195 198.687H63.2898C65.6153 198.687 67.5005 197.238 67.5005 195.451V193.092C67.5005 191.305 65.6153 189.857 63.2898 189.857Z" fill="#69A6A8"/>
<path d="M66.6818 380.913C66.0635 380.322 65.7257 379.594 65.7217 378.844C65.7178 378.093 66.0479 377.363 66.6599 376.769C67.5373 375.919 67.7092 374.829 67.1107 373.93C66.9788 373.733 66.838 373.538 66.6883 373.344C66.5609 373.179 66.4255 373.017 66.2877 372.859C65.904 372.424 65.3619 372.082 64.7259 371.871C64.0899 371.661 63.3866 371.592 62.6995 371.672C61.7074 371.777 60.6967 371.632 59.8266 371.26C58.9566 370.888 58.2767 370.309 57.8942 369.616C57.3404 368.611 56.1175 367.955 54.7058 367.902C54.2128 367.883 53.7116 367.884 53.2081 367.902C51.785 367.958 50.5605 368.623 50.0132 369.637C49.6388 370.332 48.9662 370.914 48.1013 371.291C47.2364 371.668 46.2284 371.819 45.2363 371.72C43.7815 371.577 42.4087 372.047 41.6432 372.946C41.3498 373.29 41.0823 373.646 40.8421 374.012C40.2509 374.91 40.4366 375.994 41.3164 376.84C41.9356 377.43 42.2744 378.158 42.2794 378.909C42.2844 379.659 41.9553 380.39 41.344 380.985C40.4626 381.835 40.2899 382.924 40.8891 383.821C41.0213 384.021 41.1616 384.216 41.3116 384.409C41.4389 384.574 41.5743 384.736 41.717 384.894C42.4955 385.779 43.8707 386.23 45.3044 386.083C46.2964 385.977 47.307 386.122 48.177 386.494C49.047 386.866 49.7269 387.445 50.1097 388.138C50.6635 389.142 51.8863 389.799 53.2981 389.853C53.5414 389.861 53.7846 389.865 54.0206 389.865C54.2809 389.865 54.5404 389.86 54.7958 389.85C56.2173 389.796 57.4417 389.131 57.9923 388.115C58.367 387.421 59.0394 386.84 59.9035 386.463C60.7677 386.086 61.7746 385.935 62.766 386.033C64.2378 386.179 65.5936 385.706 66.359 384.808C66.6523 384.464 66.92 384.108 67.161 383.742C67.7473 382.842 67.564 381.759 66.6818 380.913ZM55.9619 381.399C55.2957 381.689 54.5294 381.826 53.7599 381.79C52.9905 381.754 52.2523 381.549 51.6389 381.199C51.0254 380.85 50.5642 380.372 50.3135 379.826C50.0629 379.28 50.0341 378.69 50.2307 378.132C50.4274 377.574 50.8407 377.072 51.4183 376.69C51.996 376.307 52.7121 376.062 53.4761 375.984C54.24 375.907 55.0175 376.001 55.7103 376.254C56.403 376.507 56.9799 376.909 57.3679 377.408C57.8882 378.077 58.0324 378.873 57.7687 379.621C57.505 380.37 56.8551 381.009 55.9619 381.399Z" fill="#69A6A8"/>
<path d="M54.0009 316.16C55.3358 316.16 56.6408 315.859 57.7507 315.297C58.8605 314.734 59.7256 313.934 60.2364 312.999C60.7471 312.063 60.8807 311.034 60.6203 310.041C60.3598 309.048 59.7169 308.136 58.773 307.42C57.829 306.704 56.6264 306.216 55.3171 306.018C54.0078 305.821 52.6507 305.922 51.4173 306.31C50.1839 306.697 49.1297 307.353 48.388 308.195C47.6462 309.037 47.2502 310.027 47.25 311.039C47.2517 312.397 47.9634 313.699 49.2291 314.659C50.4948 315.619 52.211 316.159 54.0009 316.16Z" fill="#69A6A8"/>
<path d="M67.3205 325.471C66.2581 323.479 64.4211 321.771 62.047 320.567C59.6729 319.364 56.8707 318.72 54.0026 318.72C51.1345 318.72 48.3323 319.364 45.9582 320.567C43.584 321.771 41.7471 323.479 40.6847 325.471C40.5278 325.76 40.4695 326.074 40.515 326.384C40.5606 326.694 40.7086 326.991 40.9456 327.247C41.1835 327.512 41.5045 327.728 41.8803 327.878C42.2561 328.028 42.6753 328.106 43.1011 328.107H64.8997C65.3254 328.107 65.7446 328.028 66.1204 327.879C66.4963 327.729 66.8172 327.513 67.0552 327.249C67.2907 326.991 67.438 326.695 67.4843 326.385C67.5305 326.075 67.4743 325.761 67.3205 325.471Z" fill="#69A6A8"/>
<path d="M64.9414 249.109C65.0743 249.022 65.1703 248.908 65.2173 248.781C65.2644 248.653 65.2605 248.518 65.2062 248.393C65.1519 248.267 65.0495 248.156 64.9118 248.074C64.774 247.991 64.607 247.941 64.4313 247.929L56.1603 247.366C56.0934 247.362 56.0294 247.343 55.9751 247.314C55.9207 247.284 55.8782 247.244 55.8519 247.198L52.5804 241.482C52.5119 241.359 52.3964 241.254 52.2484 241.18C52.1004 241.106 51.9265 241.067 51.7486 241.067C51.5707 241.067 51.3968 241.106 51.2488 241.18C51.1008 241.254 50.9853 241.359 50.9169 241.482L47.6488 247.198C47.6225 247.244 47.5799 247.284 47.5256 247.314C47.4713 247.343 47.4073 247.362 47.3404 247.366L39.0687 247.929C38.893 247.941 38.726 247.991 38.5882 248.074C38.4505 248.156 38.3481 248.267 38.2938 248.393C38.2395 248.518 38.2356 248.653 38.2827 248.781C38.3297 248.908 38.4257 249.022 38.5586 249.109L44.807 253.205C44.8582 253.238 44.8963 253.281 44.9172 253.329C44.9381 253.377 44.941 253.429 44.9256 253.478L43.0832 259.542C43.0434 259.671 43.0552 259.806 43.1172 259.93C43.1792 260.054 43.2887 260.162 43.432 260.24C43.5753 260.318 43.746 260.362 43.9229 260.368C44.0998 260.374 44.2749 260.34 44.4265 260.272L51.558 257.086C51.616 257.061 51.682 257.047 51.7493 257.047C51.8166 257.047 51.8826 257.061 51.9406 257.086L59.0749 260.272C59.2261 260.34 59.4012 260.374 59.578 260.368C59.7548 260.362 59.9252 260.317 60.0674 260.238C60.2107 260.161 60.3201 260.053 60.3818 259.929C60.4435 259.805 60.4547 259.671 60.414 259.542L58.5758 253.478C58.5605 253.429 58.5633 253.377 58.5839 253.329C58.6045 253.281 58.6422 253.239 58.693 253.205L64.9414 249.109Z" fill="#69A6A8"/>
<path d="M53.4375 656.64C53.6592 656.64 53.8788 656.606 54.0836 656.541C54.2884 656.476 54.4745 656.38 54.6313 656.26C54.788 656.139 54.9123 655.996 54.997 655.838C55.0817 655.68 55.1252 655.511 55.125 655.341V647.699C55.125 647.354 54.9472 647.024 54.6307 646.78C54.3143 646.537 53.8851 646.4 53.4375 646.4C52.9899 646.4 52.5607 646.537 52.2443 646.78C51.9278 647.024 51.75 647.354 51.75 647.699V655.341C51.7498 655.511 51.7933 655.68 51.878 655.838C51.9627 655.996 52.087 656.139 52.2437 656.26C52.4005 656.38 52.5866 656.476 52.7914 656.541C52.9962 656.606 53.2158 656.64 53.4375 656.64Z" fill="#69A6A8"/>
<path d="M60.0673 649.96C59.6793 649.806 59.2244 649.772 58.8025 649.866C58.3807 649.959 58.0265 650.173 57.8179 650.459C57.6093 650.746 57.5634 651.082 57.6903 651.393C57.8172 651.704 58.1064 651.966 58.4944 652.12C62.0022 653.51 64.1787 656.169 64.1787 659.058C64.1787 663.431 59.3602 666.988 53.4375 666.988C47.5148 666.988 42.6963 663.431 42.6963 659.058C42.6963 656.169 44.8744 653.51 48.3806 652.12C48.7686 651.966 49.0578 651.704 49.1846 651.393C49.3114 651.081 49.2654 650.745 49.0567 650.459C48.848 650.172 48.4937 649.959 48.0718 649.865C47.6499 649.772 47.1949 649.806 46.8069 649.96C42.2227 651.777 39.375 655.264 39.375 659.058C39.375 664.783 45.6836 669.44 53.4375 669.44C61.1914 669.44 67.5 664.785 67.5 659.058C67.5 655.264 64.6523 651.777 60.0673 649.96Z" fill="#69A6A8"/>
</svg>
