<svg width="30" height="30" viewBox="0 0 30 30" fill="none" xmlns="http://www.w3.org/2000/svg">
<g clip-path="url(#clip0_52_77580)">
<path d="M23.3438 0.563305L9.28128 8.81331C6.75003 10.3133 5.81253 13.1258 6.84378 15.7508C7.50003 17.3446 8.71878 19.1258 11.0625 20.7196C13.5 22.4071 15.9375 23.0633 18.0938 23.1571C21.9375 23.4383 25.125 21.4696 25.6875 18.2821L28.4063 2.81331C28.7813 0.469555 25.6875 -0.842945 23.3438 0.563305Z" fill="#853E96"/>
<path d="M19.2433 28.9006C20.7155 26.8344 18.2173 22.5288 13.6632 19.2839C9.10921 16.0389 4.22395 15.0833 2.75169 17.1495C1.27944 19.2157 3.77771 23.5212 8.33174 26.7662C12.8858 30.0111 17.771 30.9667 19.2433 28.9006Z" fill="#853E96"/>
<path d="M22.4065 1.96814L9.844 9.37439C7.594 10.6869 6.75025 13.2181 7.68775 15.6556C8.25025 17.1556 9.37525 18.6556 11.4377 20.1556C13.594 21.6556 15.844 22.2181 17.8127 22.3119C21.2815 22.4994 24.094 20.8119 24.6565 17.9994L27.0002 4.03064C27.2815 1.87439 24.5627 0.749391 22.4065 1.96814Z" fill="#581F66"/>
<path d="M18.9968 27.6887C20.1686 26.0442 17.7344 22.2997 13.5599 19.3251C9.38538 16.3506 5.05133 15.2724 3.87953 16.9169C2.70774 18.5614 5.14194 22.3059 9.31646 25.2804C13.491 28.255 17.825 29.3332 18.9968 27.6887Z" fill="#581F66"/>
<path d="M18.0805 27.0379C18.8317 25.9837 16.4667 23.01 12.7982 20.396C9.12963 17.782 5.54678 16.5175 4.79562 17.5717C4.04447 18.6259 6.40947 21.5995 10.078 24.2135C13.7465 26.8275 17.3294 28.092 18.0805 27.0379Z" fill="#A94DBC"/>
<path d="M14.5318 22.1247L9.93804 19.2185C8.43804 18.281 6.93804 17.8122 6.00054 17.9997C5.25054 18.1872 5.62554 19.2185 6.56304 19.8747L15.4693 25.8747C16.7818 26.7185 18.0943 26.7185 17.813 25.8747C17.5318 24.656 16.313 23.2497 14.5318 22.1247Z" fill="#A94DBC"/>
<path d="M15 23.25L8.4375 19.0312L10.9687 14.625L18.375 18.8438L15 23.25Z" fill="#581F66"/>
<path d="M21.9378 3.18723L11.344 9.74973C9.46904 10.9685 8.71904 13.1247 9.46904 15.0935C9.93779 16.3122 10.7815 17.6247 12.5628 18.8435C14.344 20.0622 16.1253 20.531 17.719 20.6247C20.5315 20.7185 22.969 19.2185 23.4378 16.781L25.6878 4.87473C25.969 2.99973 23.719 2.06223 21.9378 3.18723Z" fill="#A94DBC"/>
<path d="M14.8994 23.5918C15.3802 22.9172 14.3 21.3229 12.4868 20.0309C10.6737 18.7389 8.81408 18.2385 8.33334 18.9132C7.8526 19.5878 8.93276 21.1821 10.7459 22.4741C12.5591 23.7661 14.4187 24.2665 14.8994 23.5918Z" fill="#581F66"/>
<path d="M12.8437 19.4063C12.8437 19.4063 17.7188 21.375 19.875 16.9688C22.0313 12.5625 24.6562 2.71875 24.6562 2.71875L25.9688 3L25.6875 10.125L23.4375 19.875C23.4375 19.875 18.1875 24.75 12.8437 19.4063ZM12.1875 25.875C12.1875 25.875 14.5312 27.2813 15.9375 26.4375C17.3438 25.5938 16.0313 22.7812 16.0313 22.7812C16.0313 22.7812 18.5625 25.4062 18.75 26.25C18.9375 27.0938 17.625 29.625 12.1875 25.875Z" fill="#581F66"/>
<path d="M10.9682 11.8125L21.6557 4.125C21.8432 3.9375 22.2182 3.9375 22.4057 4.125C22.7807 4.3125 22.8745 4.875 22.5932 5.15625L13.8745 15.0938C13.1245 15.9375 11.9057 15.9375 11.2495 15.0938C10.687 14.25 10.312 13.125 10.9682 11.8125ZM8.90574 22.2188C8.90574 22.2188 7.03074 19.4062 7.96824 18.6562C7.96824 18.6562 6.84324 17.5312 5.81199 17.9062C4.78074 18.2812 8.90574 22.2188 8.90574 22.2188Z" fill="#E08CF5"/>
</g>
<defs>
<clipPath id="clip0_52_77580">
<rect width="30" height="30" fill="white"/>
</clipPath>
</defs>
</svg>
