<svg width="24" height="24" viewBox="0 0 24 24" fill="none" xmlns="http://www.w3.org/2000/svg">
<path d="M12.0007 2.25C10.3074 2.24987 8.64328 2.69074 7.17214 3.52921C5.70099 4.36768 4.47358 5.57483 3.61074 7.03182C2.7479 8.4888 2.27939 10.1454 2.25134 11.8385C2.22328 13.5315 2.63665 15.2027 3.45074 16.6875L2.65387 19.5C2.57953 19.7563 2.57535 20.0278 2.64177 20.2863C2.70818 20.5447 2.84276 20.7806 3.03145 20.9693C3.22014 21.158 3.45602 21.2926 3.71447 21.359C3.97292 21.4254 4.24446 21.4212 4.50074 21.3469L7.31324 20.55C8.61663 21.2644 10.0661 21.6713 11.5508 21.7397C13.0356 21.8081 14.5163 21.5361 15.8799 20.9445C17.2434 20.353 18.4536 19.4575 19.4181 18.3266C20.3825 17.1956 21.0756 15.8592 21.4445 14.4193C21.8133 12.9795 21.848 11.4744 21.546 10.0191C21.2441 8.56374 20.6133 7.19672 19.7021 6.02249C18.7909 4.84826 17.6232 3.8979 16.2885 3.24406C14.9537 2.59022 13.4871 2.25021 12.0007 2.25ZM12.0007 20.25C10.5198 20.2486 9.06626 19.8504 7.79137 19.0969C7.67372 19.0313 7.54166 18.9959 7.40699 18.9938C7.33729 18.9938 7.26792 19.0033 7.20074 19.0219L4.08824 19.9125L4.97887 16.8C5.00626 16.7015 5.01374 16.5985 5.00086 16.4971C4.98799 16.3957 4.95501 16.2979 4.90387 16.2094C3.97514 14.6439 3.5902 12.8152 3.80902 11.0082C4.02784 9.20119 4.83813 7.51726 6.11367 6.21872C7.38922 4.92018 9.0584 4.07993 10.8612 3.82886C12.6641 3.57779 14.4993 3.92998 16.0811 4.83059C17.6629 5.7312 18.9025 7.12965 19.6067 8.80813C20.311 10.4866 20.4403 12.3509 19.9747 14.1105C19.509 15.8702 18.4745 17.4264 17.0322 18.5369C15.59 19.6474 13.821 20.2497 12.0007 20.25ZM13.1257 12C13.1257 12.2225 13.0598 12.44 12.9361 12.625C12.8125 12.81 12.6368 12.9542 12.4313 13.0394C12.2257 13.1245 11.9995 13.1468 11.7813 13.1034C11.563 13.06 11.3626 12.9528 11.2052 12.7955C11.0479 12.6382 10.9408 12.4377 10.8974 12.2195C10.8539 12.0012 10.8762 11.775 10.9614 11.5695C11.0465 11.3639 11.1907 11.1882 11.3757 11.0646C11.5607 10.941 11.7782 10.875 12.0007 10.875C12.2991 10.875 12.5853 10.9935 12.7962 11.2045C13.0072 11.4155 13.1257 11.7016 13.1257 12ZM8.62574 12C8.62574 12.2225 8.55976 12.44 8.43614 12.625C8.31253 12.81 8.13683 12.9542 7.93126 13.0394C7.72569 13.1245 7.49949 13.1468 7.28126 13.1034C7.06303 13.06 6.86258 12.9528 6.70525 12.7955C6.54791 12.6382 6.44077 12.4377 6.39736 12.2195C6.35395 12.0012 6.37623 11.775 6.46138 11.5695C6.54652 11.3639 6.69072 11.1882 6.87572 11.0646C7.06073 10.941 7.27824 10.875 7.50074 10.875C7.79911 10.875 8.08526 10.9935 8.29624 11.2045C8.50721 11.4155 8.62574 11.7016 8.62574 12ZM17.6257 12C17.6257 12.2225 17.5598 12.44 17.4361 12.625C17.3125 12.81 17.1368 12.9542 16.9313 13.0394C16.7257 13.1245 16.4995 13.1468 16.2813 13.1034C16.063 13.06 15.8626 12.9528 15.7052 12.7955C15.5479 12.6382 15.4408 12.4377 15.3974 12.2195C15.3539 12.0012 15.3762 11.775 15.4614 11.5695C15.5465 11.3639 15.6907 11.1882 15.8757 11.0646C16.0607 10.941 16.2782 10.875 16.5007 10.875C16.7991 10.875 17.0853 10.9935 17.2962 11.2045C17.5072 11.4155 17.6257 11.7016 17.6257 12Z" fill="#E2E7E9"/>
</svg>
