<svg width="15" height="12" viewBox="0 0 15 12" fill="none" xmlns="http://www.w3.org/2000/svg">
<path fill-rule="evenodd" clip-rule="evenodd" d="M13.907 1.559H9.936L9.136 0.212001C9.05741 0.080364 8.91532 -0.00017822 8.762 2.96134e-07H6.239C6.08569 -0.00017822 5.9436 0.080364 5.865 0.212001L5.065 1.559H3.765V1.259C3.765 1.14363 3.71917 1.03299 3.63759 0.951409C3.55601 0.869831 3.44537 0.824001 3.33 0.824001H1.717C1.47676 0.824001 1.282 1.01876 1.282 1.259V1.559H1.093C0.802946 1.559 0.524786 1.67429 0.31978 1.87949C0.114774 2.08468 -0.000264005 2.36295 4.54968e-07 2.653V10.569C4.54968e-07 11.1726 0.489354 11.662 1.093 11.662H13.907C14.1971 11.662 14.4752 11.5467 14.6802 11.3415C14.8852 11.1363 15.0003 10.8581 15 10.568V2.653C15.0003 2.36295 14.8852 2.08468 14.6802 1.87949C14.4752 1.67429 14.1971 1.559 13.907 1.559ZM7.5 9.722C5.78129 9.722 4.388 8.32871 4.388 6.61C4.388 4.89129 5.78129 3.498 7.5 3.498C9.21871 3.498 10.612 4.89129 10.612 6.61C10.612 8.32871 9.21871 9.722 7.5 9.722ZM11.862 3.813H13.224C13.3794 3.813 13.523 3.73009 13.6007 3.5955C13.6784 3.46091 13.6784 3.29509 13.6007 3.1605C13.523 3.02591 13.3794 2.943 13.224 2.943H11.862C11.6218 2.943 11.427 3.13776 11.427 3.378C11.427 3.61824 11.6218 3.813 11.862 3.813Z" fill="#00B97D"/>
<path d="M7.49999 8.78404C8.70066 8.78404 9.67399 7.8107 9.67399 6.61004C9.67399 5.40937 8.70066 4.43604 7.49999 4.43604C6.29932 4.43604 5.32599 5.40937 5.32599 6.61004C5.32599 7.8107 6.29932 8.78404 7.49999 8.78404Z" fill="#00B97D"/>
</svg>
