<svg width="30" height="30" viewBox="0 0 30 30" fill="none" xmlns="http://www.w3.org/2000/svg">
<g clip-path="url(#clip0_52_43017)">
<path d="M22.5 18.75C22.5 18.75 24.4688 14.0625 23.9063 9.375L18.6562 16.4062L22.5 18.75Z" fill="#807CA5"/>
<path d="M21.2813 18C23.25 18.6562 25.0313 20.25 25.5938 22.5C26.25 24.8437 25.3125 27.5625 23.625 28.875C22.5 29.8125 21.0938 30 19.6875 30C16.4063 30 13.125 28.875 9.84376 27.75C8.71876 27.375 7.59376 27 6.65626 26.25C5.71876 25.5 4.87501 24.4688 4.68751 23.1562C4.50001 21.4688 5.62501 19.6875 6.93751 18.75C9.37501 17.1562 11.8125 16.5938 14.3438 16.5938C16.5938 16.5938 19.2188 17.3438 21.2813 18Z" fill="#8EA8AF"/>
<path d="M20.9996 16.5938C22.7809 17.25 24.4684 18.8437 25.0309 21.0937C25.5934 23.4375 24.8434 26.1562 23.1559 27.4687C22.0309 28.3125 20.7184 28.5 19.4059 28.5938C16.3121 28.5938 13.2184 27.4688 10.1246 26.3438C9.09337 25.9688 8.06212 25.5938 7.12462 24.8438C6.18712 24.0938 5.43712 23.0625 5.34337 21.75C5.15587 19.9688 6.18712 18.1875 7.49962 17.25C9.74962 15.6562 12.0934 15.0938 14.5309 15.0938C16.4996 15.1875 19.0309 15.9375 20.9996 16.5938Z" fill="#D3DEE2"/>
<path d="M17.8122 17.625C17.8122 17.625 13.8747 19.2187 11.0622 23.7187C11.0622 23.7187 10.031 19.875 10.6872 17.0625C10.5935 17.0625 14.6247 18.8437 17.8122 17.625Z" fill="white"/>
<path d="M12 27L13.9687 21.0937L15.4688 20.8125L12.9375 27.2812L12 27ZM7.96875 25.5L9.09375 19.125L10.6875 18.8438L8.71875 25.9688L7.96875 25.5Z" fill="#BDD1D6"/>
<path d="M14.1562 20.9062L12.2812 27.0937C12.2812 27.0937 9.65625 26.4375 8.53125 25.6875L9.46875 19.4062C9.5625 19.4062 12.8438 21.0937 14.1562 20.9062Z" fill="#FCFCFC"/>
<path d="M15.6562 20.7187C15.6562 20.7187 20.8125 20.7187 23.4375 21.4687C23.4375 21.4687 25.125 21.1875 24.6562 20.0625C24.1875 18.9375 23.1562 17.4375 21.2812 16.5938C21.375 16.5938 17.5312 20.5312 15.6562 20.7187Z" fill="#807CA5"/>
<path d="M23.6243 7.5C23.6243 7.5 25.593 15.5625 18.1868 20.0625C18.1868 20.0625 15.093 21.5625 12.2805 21.0938C9.46801 20.625 7.87426 18.2812 8.71801 16.3125L13.0305 9.9375L23.6243 7.5Z" fill="#6A648E"/>
<path d="M9.28085 18.4688C9.28085 18.4688 4.96835 15.8438 5.6246 9.1875L10.8746 10.2187L9.28085 18.4688Z" fill="#6A648E"/>
<path opacity="0.28" d="M22.0472 25.3442C22.5584 23.7682 21.8548 22.128 20.4758 21.6807C19.0968 21.2335 17.5646 22.1485 17.0534 23.7245C16.5423 25.3005 17.2458 26.9407 18.6248 27.3879C20.0038 27.8352 21.5361 26.9202 22.0472 25.3442Z" fill="white"/>
<path d="M24 9.9375C24 15.0938 19.9687 19.2188 14.8125 19.2188C9.65625 19.2188 5.625 15 5.625 9.84375C5.625 4.6875 9.84375 0.5625 14.9062 0.5625C19.9687 0.5625 24.0938 4.78125 24 9.9375Z" fill="#E5A98C"/>
<path d="M23.9805 9.64649C23.9983 4.7277 20.1512 0.726247 15.3878 0.708987C10.6243 0.691727 6.74834 4.6652 6.73051 9.58398C6.71269 14.5028 10.5598 18.5042 15.3232 18.5215C20.0867 18.5387 23.9627 14.5653 23.9805 9.64649Z" fill="#E8CCAA"/>
<path d="M19.2461 10.8209C19.259 7.24832 16.4573 4.34197 12.9883 4.3294C9.51925 4.31683 6.69654 7.2028 6.6836 10.7754C6.67065 14.348 9.47237 17.2543 12.9414 17.2669C16.4104 17.2795 19.2332 14.3935 19.2461 10.8209Z" fill="#FAEACF"/>
<path d="M15.9735 11.5784C15.9755 11.0088 15.5994 10.5458 15.1335 10.5441C14.6675 10.5424 14.288 11.0027 14.286 11.5723C14.2839 12.1418 14.66 12.6049 15.126 12.6066C15.592 12.6083 15.9714 12.1479 15.9735 11.5784Z" fill="#425763"/>
<path d="M15.4336 11.1635C15.4342 11.0081 15.3507 10.8819 15.2472 10.8815C15.1436 10.8812 15.0592 11.0068 15.0586 11.1621C15.0581 11.3174 15.1416 11.4437 15.2451 11.444C15.3487 11.4444 15.4331 11.3188 15.4336 11.1635Z" fill="white"/>
<path d="M9.12874 10.0667C9.1308 9.49712 8.75471 9.03404 8.28872 9.03235C7.82273 9.03067 7.4433 9.491 7.44124 10.0605C7.43917 10.6301 7.81526 11.0932 8.28125 11.0949C8.74724 11.0965 9.12667 10.6362 9.12874 10.0667Z" fill="#425763"/>
<path d="M8.58891 9.65175C8.58947 9.49642 8.50598 9.37019 8.40243 9.36982C8.29888 9.36944 8.21447 9.49506 8.21391 9.65039C8.21335 9.80572 8.29684 9.93194 8.40039 9.93232C8.50394 9.9327 8.58835 9.80708 8.58891 9.65175Z" fill="white"/>
<path d="M13.2191 15.8437C13.2191 15.8437 12.3754 15.75 11.7191 15.2812C11.0629 14.8125 10.5004 14.9062 10.4066 14.9062C10.3129 14.9062 10.1254 14.7188 9.9379 14.625C9.7504 14.5313 9.46915 14.5313 9.3754 14.625C9.28165 14.7188 9.65665 15.1875 9.65665 15.1875C9.65665 15.1875 9.7504 15.5625 9.65665 15.75C9.5629 15.9375 9.65665 16.5937 10.3129 16.7812C10.9691 16.9687 11.4379 16.875 11.7191 16.6875C12.0004 16.5937 13.2191 15.8437 13.2191 15.8437Z" fill="#A67A65"/>
<path d="M22.2188 13.4058C22.2188 13.4058 19.125 9.37456 11.25 7.96831C11.25 7.96831 7.03125 7.31206 5.625 10.2183C5.625 10.2183 6 -0.750439 16.6875 1.87456C25.2188 3.93706 25.0312 12.1871 22.3125 14.7183C22.2188 14.6246 22.7812 14.8121 22.2188 13.4058Z" fill="#D3DEE2"/>
<path d="M21.6563 11.2491C21.6563 11.2491 18.375 6.18658 12.0938 6.18658C12.0938 6.18658 7.21875 5.90533 5.71875 8.81158C5.71875 8.81158 6.84375 -1.59467 17.1562 0.467827C25.875 2.24908 24.9375 12.8428 22.0312 15.4678C22.125 15.4678 22.2188 12.6553 21.6563 11.2491Z" fill="#6A648E"/>
<path d="M17.2497 2.0619C19.6872 2.9994 23.0622 5.2494 23.0622 10.4056C23.0622 10.4056 20.7185 6.5619 18.0935 5.8119C17.3435 5.6244 16.6872 5.34315 16.031 5.0619C14.0622 4.21815 15.281 1.3119 17.2497 2.0619Z" fill="#807CA5"/>
<path d="M20.7188 10.0317C20.7188 10.0317 23.3437 16.7817 15.4688 19.9692C15.4688 19.9692 22.875 18.8442 23.9062 11.2505C24 11.2505 22.6875 9.4692 20.7188 10.0317ZM7.40625 16.5942C7.40625 16.5942 8.90625 23.438 11.4375 23.7192C13.9687 24.0005 17.3438 21.3755 20.8125 17.813C20.8125 17.813 15.8438 20.9067 13.2188 20.438C10.5938 19.9692 7.40625 16.5942 7.40625 16.5942Z" fill="#6A648E"/>
</g>
<defs>
<clipPath id="clip0_52_43017">
<rect width="30" height="30" fill="white"/>
</clipPath>
</defs>
</svg>
