<svg width="24" height="24" viewBox="0 0 24 24" fill="none" xmlns="http://www.w3.org/2000/svg">
<path d="M4 4H16C16.7956 4 17.5587 4.31607 18.1213 4.87868C18.6839 5.44129 19 6.20435 19 7V13C19 13.7956 18.6839 14.5587 18.1213 15.1213C17.5587 15.6839 16.7956 16 16 16H4C3.20435 16 2.44129 15.6839 1.87868 15.1213C1.31607 14.5587 1 13.7956 1 13V7C1 6.20435 1.31607 5.44129 1.87868 4.87868C2.44129 4.31607 3.20435 4 4 4Z" fill="#F4BB2E"/>
<path fill-rule="evenodd" clip-rule="evenodd" d="M8.387 10.853H9.23L9.004 11.889H8.16L7.842 13.324H6.62L6.937 11.889H4L4.236 10.747L7.943 7.124H9.194L8.387 10.853ZM7.164 10.853L7.68 8.47H7.662L5.278 10.853H7.164ZM10.672 7H12.095L11.533 9.648H11.551L14.488 7H16.373L13.264 9.604L15.249 13.324H13.645L12.167 10.481L11.179 11.322L10.753 13.324H9.33L10.672 7Z" fill="#303030"/>
</svg>
