<svg width="24" height="24" viewBox="0 0 24 24" fill="none" xmlns="http://www.w3.org/2000/svg">
<path d="M9.00006 11.9997C8.9993 11.8681 9.02452 11.7377 9.07429 11.6158C9.12405 11.494 9.19738 11.3832 9.29006 11.2897L13.2901 7.28973C13.4784 7.10142 13.7338 6.99564 14.0001 6.99564C14.2664 6.99564 14.5218 7.10142 14.7101 7.28973C14.8984 7.47803 15.0042 7.73343 15.0042 7.99973C15.0042 8.26603 14.8984 8.52143 14.7101 8.70973L11.4101 11.9997L14.7001 15.2897C14.8639 15.481 14.9495 15.7271 14.9398 15.9788C14.93 16.2305 14.8257 16.4692 14.6476 16.6473C14.4695 16.8254 14.2308 16.9297 13.9791 16.9394C13.7274 16.9492 13.4814 16.8636 13.2901 16.6997L9.29006 12.6997C9.10531 12.5135 9.00116 12.2621 9.00006 11.9997Z" fill="#9F9F9F"/>
</svg>
