<svg width="24" height="21" viewBox="0 0 24 21" fill="none" xmlns="http://www.w3.org/2000/svg">
<mask id="mask0_37_44199" style="mask-type:luminance" maskUnits="userSpaceOnUse" x="3" y="1" width="18" height="18">
<path fill-rule="evenodd" clip-rule="evenodd" d="M3 1.7168H20.0527V18.6621H3V1.7168Z" fill="white"/>
</mask>
<g mask="url(#mask0_37_44199)">
<path fill-rule="evenodd" clip-rule="evenodd" d="M7.5731 2.99707C5.9161 2.99707 4.5401 4.14249 4.5011 5.55506V14.6834C4.4641 16.1455 5.8141 17.3498 7.5101 17.3822H15.5741C17.2431 17.3233 18.5651 16.1395 18.5531 14.6885V7.11784L13.9181 2.99707H7.5851H7.5731ZM7.5851 18.6625H7.4761C4.9541 18.6138 2.9461 16.8232 3.0011 14.6697V5.53969C3.0591 3.42212 5.1081 1.7168 7.5711 1.7168H7.5881H14.2381C14.4421 1.7168 14.6371 1.78764 14.7791 1.91311L19.8441 6.41711C19.9781 6.53575 20.0531 6.69535 20.0531 6.86008V14.6834C20.0711 16.8249 18.1171 18.5746 15.6041 18.6616L7.5851 18.6625Z" fill="white"/>
</g>
<path fill-rule="evenodd" clip-rule="evenodd" d="M19.2976 7.66798H16.5426C14.7126 7.66372 13.2246 6.39027 13.2246 4.83004V2.34717C13.2246 1.99381 13.5606 1.70703 13.9746 1.70703C14.3886 1.70703 14.7246 1.99381 14.7246 2.34717V4.83004C14.7246 5.68697 15.5416 6.38515 16.5446 6.38771H19.2976C19.7116 6.38771 20.0476 6.67449 20.0476 7.02785C20.0476 7.3812 19.7116 7.66798 19.2976 7.66798Z" fill="white"/>
<path fill-rule="evenodd" clip-rule="evenodd" d="M13.7887 13.748H8.38867C7.97467 13.748 7.63867 13.4613 7.63867 13.1079C7.63867 12.7546 7.97467 12.4678 8.38867 12.4678H13.7887C14.2027 12.4678 14.5387 12.7546 14.5387 13.1079C14.5387 13.4613 14.2027 13.748 13.7887 13.748Z" fill="white"/>
<path fill-rule="evenodd" clip-rule="evenodd" d="M11.7427 10.5459H8.38672C7.97272 10.5459 7.63672 10.2591 7.63672 9.90576C7.63672 9.55241 7.97272 9.26562 8.38672 9.26562H11.7427C12.1567 9.26562 12.4927 9.55241 12.4927 9.90576C12.4927 10.2591 12.1567 10.5459 11.7427 10.5459Z" fill="white"/>
</svg>
