<svg width="34" height="34" viewBox="0 0 34 34" fill="none" xmlns="http://www.w3.org/2000/svg">
<path fill-rule="evenodd" clip-rule="evenodd" d="M23.3065 15.7922L13.1068 5.5925C12.9483 5.434 12.7601 5.30827 12.5531 5.22249C12.346 5.13671 12.124 5.09256 11.8999 5.09256C11.6757 5.09256 11.4537 5.13671 11.2467 5.22249C11.0396 5.30827 10.8514 5.434 10.6929 5.5925C10.3728 5.91261 10.193 6.34676 10.193 6.79946C10.193 7.02362 10.2371 7.24557 10.3229 7.45266C10.4087 7.65976 10.5344 7.84792 10.6929 8.00642L19.7026 16.9991L10.7099 25.9918C10.3869 26.2978 10.1999 26.7228 10.1999 27.1988C10.2004 27.5354 10.3005 27.8642 10.4875 28.144C10.6746 28.4238 10.9403 28.642 11.2511 28.771C11.562 28.9001 11.904 28.9343 12.2343 28.8693C12.5645 28.8043 12.8681 28.643 13.1068 28.4058L23.3065 18.2061C23.6125 17.9001 23.7995 17.4751 23.7995 16.9991C23.7995 16.5231 23.6125 16.0982 23.3065 15.7922Z" fill="#2D3340"/>
</svg>
