<svg width="19" height="15" viewBox="0 0 19 15" fill="none" xmlns="http://www.w3.org/2000/svg">
<path d="M1.52552 0.818984L2.55449 0.287893C3.52004 -0.210283 4.8219 -0.0482331 5.59718 0.665163L7.14022 2.08626C7.81201 2.70471 7.91716 3.58711 7.40059 4.26633L5.96187 6.15648C6.42253 6.99078 7.13521 7.75418 8.1016 8.44542C9.0255 9.11633 10.1175 9.63981 11.3129 9.98489L13.4801 8.83726C14.3005 8.40238 15.3962 8.44353 16.1973 8.94107L18.0667 10.0995C18.9989 10.6774 19.2726 11.7029 18.7059 12.4973L18.0992 13.3499C17.495 14.1982 16.3592 14.7115 15.1183 14.697C12.1891 14.6653 8.98536 13.3354 5.51206 10.7072C2.03374 8.07512 0.198618 5.59184 0.00751085 3.25542C-0.0734384 2.27236 0.504889 1.34628 1.52552 0.818984Z" fill="#25396F"/>
</svg>
