<svg width="20" height="20" viewBox="0 0 20 20" fill="none" xmlns="http://www.w3.org/2000/svg">
<path fill-rule="evenodd" clip-rule="evenodd" d="M1.04102 5.83366C1.04102 3.18729 3.18632 1.04199 5.83268 1.04199H14.166C16.8124 1.04199 18.9577 3.18729 18.9577 5.83366V14.167C18.9577 16.8134 16.8124 18.9587 14.166 18.9587H5.83268C3.18632 18.9587 1.04102 16.8134 1.04102 14.167V5.83366ZM7.38569 10.114L9.05235 11.7807C9.34524 12.0735 9.82012 12.0735 10.113 11.7807L13.4463 8.44732C13.7392 8.15443 13.7392 7.67956 13.4463 7.38666C13.1535 7.09377 12.6786 7.09377 12.3857 7.38666L9.58268 10.1897L8.44635 9.05333C8.15345 8.76044 7.67858 8.76044 7.38569 9.05333C7.09279 9.34622 7.09279 9.8211 7.38569 10.114Z" fill="#48BC65"/>
</svg>
