<svg width="27" height="23" viewBox="0 0 27 23" fill="none" xmlns="http://www.w3.org/2000/svg">
<path d="M24.5891 19.2815V0L23.8534 0.0616804C20.9028 0.305577 18.0088 1.0109 15.277 2.15222L13.9819 2.68992V21.8951L14.925 21.5031C17.752 20.327 20.7451 19.5993 23.7964 19.346L24.5891 19.2815Z" fill="#F6E3FF"/>
<path d="M26.9999 2.85059H25.5535V19.7256C25.5544 19.977 25.3616 20.187 25.1109 20.2077L23.8761 20.309C23.5197 20.3384 23.1642 20.3749 22.8101 20.4184C22.6952 20.4323 22.581 20.4507 22.4669 20.4667C22.2281 20.4985 21.9899 20.5307 21.7524 20.5684C21.6139 20.5905 21.4764 20.6164 21.3385 20.6407C21.1259 20.6779 20.9128 20.7148 20.7007 20.7567C20.5559 20.7857 20.4114 20.8182 20.2638 20.8495C20.0618 20.8923 19.8598 20.9361 19.6592 20.9839C19.5088 21.0197 19.3588 21.0576 19.2093 21.0957C19.0142 21.144 18.8199 21.196 18.626 21.2502C18.4751 21.2916 18.3241 21.3354 18.1737 21.3797C17.9809 21.4366 17.7909 21.4945 17.6005 21.5553C17.4514 21.6035 17.3022 21.6518 17.1536 21.6998C16.9629 21.7641 16.7732 21.8305 16.5842 21.899C16.4396 21.9515 16.2948 22.0042 16.147 22.0596C16.0808 22.0847 16.0151 22.1116 15.9492 22.1372H26.9999V2.85059Z" fill="#F6E3FF"/>
<path d="M3.14634 0.0616804L2.41064 0V19.2829L3.2664 19.3556C6.31581 19.6106 9.30637 20.3428 12.1286 21.5253L13.0178 21.8951V2.68992L11.7241 2.15269C8.99208 1.01113 6.09758 0.305577 3.14634 0.0616804Z" fill="#F6E3FF"/>
<path d="M0 2.85059V22.1363H11.0584C10.9991 22.113 10.9398 22.088 10.88 22.0659C10.742 22.0134 10.6029 21.9633 10.464 21.9126C10.2681 21.8416 10.0725 21.7723 9.87522 21.7062C9.73255 21.6579 9.58942 21.6111 9.44604 21.5654C9.25041 21.5011 9.05407 21.4406 8.85749 21.3841C8.71271 21.3418 8.56816 21.2991 8.42361 21.2586C8.22538 21.2038 8.02669 21.1518 7.82752 21.1007C7.68297 21.0635 7.53819 21.0263 7.39035 20.9917C7.18835 20.9434 6.98519 20.8992 6.78225 20.8556C6.6377 20.8243 6.49292 20.7925 6.34837 20.7636C6.13814 20.7221 5.92697 20.6849 5.71579 20.648C5.57737 20.6237 5.43894 20.5997 5.30028 20.575C5.06721 20.538 4.83344 20.5067 4.59966 20.4752C4.48148 20.4594 4.36424 20.4406 4.24629 20.4271C3.89269 20.3843 3.53909 20.3478 3.18549 20.3177L1.88761 20.2077C1.63736 20.1863 1.44549 19.9765 1.44643 19.7256V2.85059L0 2.85059Z" fill="#F6E3FF"/>
</svg>
