<svg width="20" height="20" viewBox="0 0 20 20" fill="none" xmlns="http://www.w3.org/2000/svg">
<path d="M10.0008 2.8824e-08C8.26403 -0.000131816 6.55721 0.452046 5.04835 1.31201C3.53948 2.17198 2.2806 3.41008 1.39563 4.90443C0.510672 6.39877 0.0301479 8.09783 0.00137298 9.83431C-0.0274019 11.5708 0.396564 13.2848 1.23153 14.8077L0.414221 17.6923C0.337977 17.9552 0.333691 18.2337 0.401811 18.4987C0.469931 18.7638 0.60796 19.0057 0.801487 19.1993C0.995014 19.3928 1.23694 19.5308 1.50202 19.5989C1.7671 19.6671 2.0456 19.6628 2.30845 19.5865L5.19307 18.7692C6.52988 19.5019 8.01651 19.9193 9.53934 19.9894C11.0622 20.0595 12.5809 19.7806 13.9794 19.1739C15.3779 18.5671 16.6191 17.6487 17.6083 16.4888C18.5975 15.3289 19.3084 13.9581 19.6866 12.4814C20.0649 11.0046 20.1005 9.46091 19.7908 7.96827C19.4811 6.47563 18.8342 5.07356 17.8996 3.86922C16.965 2.66488 15.7674 1.69016 14.3984 1.01955C13.0294 0.348947 11.5252 0.000211162 10.0008 2.8824e-08ZM10.0008 18.4615C8.48184 18.4601 6.99103 18.0517 5.68345 17.2788C5.56279 17.2116 5.42735 17.1752 5.28922 17.1731C5.21774 17.1732 5.14659 17.1829 5.07768 17.2019L1.88538 18.1154L2.79884 14.9231C2.82694 14.8221 2.83461 14.7165 2.8214 14.6124C2.80819 14.5084 2.77437 14.4081 2.72191 14.3173C1.76937 12.7117 1.37457 10.8361 1.599 8.98279C1.82343 7.12943 2.65449 5.40232 3.96274 4.07048C5.27099 2.73865 6.98298 1.87685 8.83203 1.61934C10.6811 1.36183 12.5634 1.72306 14.1858 2.64676C15.8081 3.57046 17.0795 5.00477 17.8018 6.72629C18.5241 8.4478 18.6567 10.3599 18.1792 12.1646C17.7016 13.9694 16.6405 15.5656 15.1613 16.7045C13.682 17.8434 11.8677 18.4612 10.0008 18.4615ZM11.1546 10C11.1546 10.2282 11.0869 10.4513 10.9601 10.641C10.8334 10.8308 10.6532 10.9787 10.4423 11.066C10.2315 11.1533 9.99948 11.1762 9.77566 11.1317C9.55183 11.0872 9.34624 10.9773 9.18487 10.8159C9.0235 10.6545 8.91361 10.4489 8.86909 10.2251C8.82456 10.0013 8.84741 9.76928 8.93475 9.55844C9.02208 9.3476 9.16997 9.1674 9.35972 9.04061C9.54947 8.91383 9.77255 8.84615 10.0008 8.84615C10.3068 8.84615 10.6003 8.96772 10.8167 9.18411C11.033 9.4005 11.1546 9.69398 11.1546 10ZM6.53922 10C6.53922 10.2282 6.47155 10.4513 6.34476 10.641C6.21798 10.8308 6.03777 10.9787 5.82693 11.066C5.6161 11.1533 5.3841 11.1762 5.16027 11.1317C4.93645 11.0872 4.73085 10.9773 4.56948 10.8159C4.40811 10.6545 4.29822 10.4489 4.2537 10.2251C4.20918 10.0013 4.23203 9.76928 4.31936 9.55844C4.40669 9.3476 4.55458 9.1674 4.74433 9.04061C4.93408 8.91383 5.15717 8.84615 5.38538 8.84615C5.6914 8.84615 5.98488 8.96772 6.20127 9.18411C6.41766 9.4005 6.53922 9.69398 6.53922 10ZM15.77 10C15.77 10.2282 15.7023 10.4513 15.5755 10.641C15.4487 10.8308 15.2685 10.9787 15.0577 11.066C14.8469 11.1533 14.6149 11.1762 14.391 11.1317C14.1672 11.0872 13.9616 10.9773 13.8003 10.8159C13.6389 10.6545 13.529 10.4489 13.4845 10.2251C13.44 10.0013 13.4628 9.76928 13.5501 9.55844C13.6375 9.3476 13.7854 9.1674 13.9751 9.04061C14.1649 8.91383 14.3879 8.84615 14.6161 8.84615C14.9222 8.84615 15.2157 8.96772 15.432 9.18411C15.6484 9.4005 15.77 9.69398 15.77 10Z" fill="#AFB5C0"/>
</svg>
