<svg width="104" height="46" viewBox="0 0 104 46" fill="none" xmlns="http://www.w3.org/2000/svg">
<path d="M25.2507 16.8127C25.3998 16.8147 25.5428 16.8724 25.6515 16.9744C25.7571 17.0811 25.8164 17.2251 25.8164 17.3752C25.8164 17.5253 25.7571 17.6693 25.6515 17.776L20.4203 23.0002L25.6515 28.2244C25.7412 28.3337 25.7871 28.4725 25.7801 28.6137C25.7732 28.7549 25.714 28.8885 25.614 28.9885C25.514 29.0884 25.3804 29.1477 25.2392 29.1546C25.098 29.1615 24.9593 29.1157 24.85 29.026L19.225 23.401C19.1193 23.2943 19.0601 23.1503 19.0601 23.0002C19.0601 22.8501 19.1193 22.7061 19.225 22.5994L24.85 16.9744C24.9587 16.8724 25.1017 16.8147 25.2507 16.8127Z" fill="#EBB000"/>
<rect x="0.5" y="0.5" width="45" height="45" rx="22.5" stroke="#EBB000"/>
<rect x="58" width="46" height="46" rx="23" fill="#EBB000" fill-opacity="0.5"/>
<path d="M78.7493 29.1873C78.6002 29.1853 78.4572 29.1276 78.3485 29.0256C78.2429 28.9189 78.1836 28.7749 78.1836 28.6248C78.1836 28.4747 78.2429 28.3307 78.3485 28.224L83.5797 22.9998L78.3485 17.7756C78.2588 17.6663 78.2129 17.5275 78.2199 17.3863C78.2268 17.2451 78.286 17.1115 78.386 17.0115C78.486 16.9116 78.6196 16.8523 78.7608 16.8454C78.902 16.8385 79.0407 16.8843 79.15 16.974L84.775 22.599C84.8807 22.7057 84.9399 22.8497 84.9399 22.9998C84.9399 23.1499 84.8807 23.2939 84.775 23.4006L79.15 29.0256C79.0413 29.1276 78.8983 29.1853 78.7493 29.1873Z" fill="black"/>
</svg>
