<svg width="22" height="22" viewBox="0 0 22 22" fill="none" xmlns="http://www.w3.org/2000/svg">
<path d="M3.83721 9.72093H5.88372V8.18605H3.83721V9.72093ZM5.88372 9.72093C7.02528 9.72093 8.0224 9.43502 8.72871 8.72871C9.43502 8.0224 9.72093 7.02528 9.72093 5.88372H8.18605C8.18605 6.78868 7.96033 7.32644 7.64338 7.64338C7.32644 7.96033 6.78868 8.18605 5.88372 8.18605V9.72093ZM9.72093 5.88372V3.83721H8.18605V5.88372H9.72093ZM9.72093 3.83721C9.72093 2.69565 9.43502 1.69853 8.72871 0.99222C8.0224 0.285908 7.02528 0 5.88372 0V1.53488C6.78868 1.53488 7.32644 1.7606 7.64338 2.07755C7.96033 2.39449 8.18605 2.93225 8.18605 3.83721H9.72093ZM5.88372 0H3.83721V1.53488H5.88372V0ZM3.83721 0C2.69565 0 1.69853 0.285908 0.99222 0.99222C0.285908 1.69853 0 2.69565 0 3.83721H1.53488C1.53488 2.93225 1.7606 2.39449 2.07755 2.07755C2.39449 1.7606 2.93225 1.53488 3.83721 1.53488V0ZM0 3.83721V5.88372H1.53488V3.83721H0ZM0 5.88372C0 7.02528 0.285908 8.0224 0.99222 8.72871C1.69853 9.43502 2.69565 9.72093 3.83721 9.72093V8.18605C2.93225 8.18605 2.39449 7.96033 2.07755 7.64338C1.7606 7.32644 1.53488 6.78868 1.53488 5.88372H0Z" fill="#93989A"/>
<path d="M16.1163 9.72093H18.1628V8.18605H16.1163V9.72093ZM18.1628 9.72093C19.3043 9.72093 20.3015 9.43502 21.0078 8.72871C21.7141 8.0224 22 7.02528 22 5.88372H20.4651C20.4651 6.78868 20.2394 7.32644 19.9225 7.64338C19.6055 7.96033 19.0677 8.18605 18.1628 8.18605V9.72093ZM22 5.88372V3.83721H20.4651V5.88372H22ZM22 3.83721C22 2.69565 21.7141 1.69853 21.0078 0.99222C20.3015 0.285908 19.3043 0 18.1628 0V1.53488C19.0677 1.53488 19.6055 1.7606 19.9225 2.07755C20.2394 2.39449 20.4651 2.93225 20.4651 3.83721H22ZM18.1628 0H16.1163V1.53488H18.1628V0ZM16.1163 0C14.9747 0 13.9776 0.285908 13.2713 0.99222C12.565 1.69853 12.2791 2.69565 12.2791 3.83721H13.814C13.814 2.93225 14.0397 2.39449 14.3566 2.07755C14.6736 1.7606 15.2113 1.53488 16.1163 1.53488V0ZM12.2791 3.83721V5.88372H13.814V3.83721H12.2791ZM12.2791 5.88372C12.2791 7.02528 12.565 8.0224 13.2713 8.72871C13.9776 9.43502 14.9747 9.72093 16.1163 9.72093V8.18605C15.2113 8.18605 14.6736 7.96033 14.3566 7.64338C14.0397 7.32644 13.814 6.78868 13.814 5.88372H12.2791Z" fill="#93989A"/>
<path d="M16.1163 22H18.1628V20.4651H16.1163V22ZM18.1628 22C19.3043 22 20.3015 21.7141 21.0078 21.0078C21.7141 20.3015 22 19.3043 22 18.1628H20.4651C20.4651 19.0677 20.2394 19.6055 19.9225 19.9225C19.6055 20.2394 19.0677 20.4651 18.1628 20.4651V22ZM22 18.1628V16.1163H20.4651V18.1628H22ZM22 16.1163C22 14.9747 21.7141 13.9776 21.0078 13.2713C20.3015 12.565 19.3043 12.2791 18.1628 12.2791V13.814C19.0677 13.814 19.6055 14.0397 19.9225 14.3566C20.2394 14.6736 20.4651 15.2113 20.4651 16.1163H22ZM18.1628 12.2791H16.1163V13.814H18.1628V12.2791ZM16.1163 12.2791C14.9747 12.2791 13.9776 12.565 13.2713 13.2713C12.565 13.9776 12.2791 14.9747 12.2791 16.1163H13.814C13.814 15.2113 14.0397 14.6736 14.3566 14.3566C14.6736 14.0397 15.2113 13.814 16.1163 13.814V12.2791ZM12.2791 16.1163V18.1628H13.814V16.1163H12.2791ZM12.2791 18.1628C12.2791 19.3043 12.565 20.3015 13.2713 21.0078C13.9776 21.7141 14.9747 22 16.1163 22V20.4651C15.2113 20.4651 14.6736 20.2394 14.3566 19.9225C14.0397 19.6055 13.814 19.0677 13.814 18.1628H12.2791Z" fill="#93989A"/>
<path d="M3.83721 22H5.88372V20.4651H3.83721V22ZM5.88372 22C7.02528 22 8.0224 21.7141 8.72871 21.0078C9.43502 20.3015 9.72093 19.3043 9.72093 18.1628H8.18605C8.18605 19.0677 7.96033 19.6055 7.64338 19.9225C7.32644 20.2394 6.78868 20.4651 5.88372 20.4651V22ZM9.72093 18.1628V16.1163H8.18605V18.1628H9.72093ZM9.72093 16.1163C9.72093 14.9747 9.43502 13.9776 8.72871 13.2713C8.0224 12.565 7.02528 12.2791 5.88372 12.2791V13.814C6.78868 13.814 7.32644 14.0397 7.64338 14.3566C7.96033 14.6736 8.18605 15.2113 8.18605 16.1163H9.72093ZM5.88372 12.2791H3.83721V13.814H5.88372V12.2791ZM3.83721 12.2791C2.69565 12.2791 1.69853 12.565 0.99222 13.2713C0.285908 13.9776 0 14.9747 0 16.1163H1.53488C1.53488 15.2113 1.7606 14.6736 2.07755 14.3566C2.39449 14.0397 2.93225 13.814 3.83721 13.814V12.2791ZM0 16.1163V18.1628H1.53488V16.1163H0ZM0 18.1628C0 19.3043 0.285908 20.3015 0.99222 21.0078C1.69853 21.7141 2.69565 22 3.83721 22V20.4651C2.93225 20.4651 2.39449 20.2394 2.07755 19.9225C1.7606 19.6055 1.53488 19.0677 1.53488 18.1628H0Z" fill="#93989A"/>
</svg>
