<svg width="150" height="77" viewBox="0 0 150 77" fill="none" xmlns="http://www.w3.org/2000/svg">
<g clip-path="url(#clip0_52_34610)">
<path d="M0.00317383 6.49707L12.802 16.7582V26.7496L0.00317383 16.4885V6.49707Z" fill="white"/>
<path d="M0.00317383 47.5293L12.802 57.7904V67.7818L0.00317383 57.5207V47.5293Z" fill="white"/>
<path d="M0.00317383 26.9824L12.802 37.2435V47.2349L0.00317383 36.9738V26.9824Z" fill="white"/>
<path d="M0.00317383 76.2658V68.0029L10.3011 76.2658H0.00317383Z" fill="white"/>
<path d="M12.8019 0V6.24003L5.01721 0H12.8019Z" fill="white"/>
<path d="M149.997 76.266H21.739V61.9961H149.997V76.266ZM23.9702 63.835V65.2939C24.3035 65.2493 24.6425 65.2786 24.9632 65.3797C25.0456 65.4239 25.1073 65.4988 25.1349 65.5881C25.2018 65.8272 25.2266 66.0761 25.2084 66.3237C25.2084 67.8316 25.2084 69.3395 25.2084 70.8474C25.1708 71.6389 25.3995 72.4201 25.8582 73.0663C26.0586 73.3219 26.2891 73.5524 26.5447 73.7528C26.8431 73.9768 27.1635 74.1699 27.5009 74.329C28.051 74.509 28.6262 74.6 29.205 74.5987C29.694 74.6017 30.181 74.5357 30.6516 74.4026C30.8363 74.3418 31.0166 74.268 31.191 74.1819C31.3554 74.1087 31.5115 74.0183 31.6569 73.9122C31.8272 73.8148 31.9838 73.6953 32.1227 73.5567C32.2579 73.4338 32.381 73.2983 32.4905 73.1521C33.046 72.347 33.3256 71.3835 33.2874 70.406C33.2874 68.9349 33.2874 67.4515 33.2874 65.9804C33.2874 65.8088 33.2874 65.6371 33.4222 65.4655C33.4979 65.3787 33.6024 65.3221 33.7164 65.3061C33.9858 65.2878 34.2562 65.2878 34.5256 65.3061V63.835H30.3083V65.2939C30.6324 65.2657 30.9589 65.2864 31.2768 65.3552C31.3497 65.4037 31.4122 65.4662 31.4607 65.5391C31.4786 65.6651 31.4786 65.7931 31.4607 65.9191C31.4607 67.4638 31.4607 69.0085 31.4607 70.5531C31.4581 70.9685 31.3961 71.3813 31.2768 71.7791C31.1497 72.0517 30.9608 72.2909 30.7251 72.4779C30.4718 72.6658 30.1777 72.7915 29.8668 72.8447C29.5558 72.8979 29.2367 72.8773 28.9353 72.7844C28.6399 72.6977 28.3759 72.5274 28.1752 72.294C27.8748 71.8835 27.704 71.3925 27.6848 70.8841C27.6848 70.6512 27.6848 70.406 27.6848 70.1731V66.0785C27.671 65.9529 27.6859 65.8259 27.7284 65.707C27.7709 65.5881 27.8398 65.4803 27.93 65.3919C28.0825 65.3057 28.2589 65.2713 28.4326 65.2939H28.9475V63.835H23.9702ZM72.1496 63.835V65.2939C72.4587 65.2511 72.7722 65.2511 73.0813 65.2939C73.1605 65.3391 73.2275 65.403 73.2766 65.4798C73.3257 65.5567 73.3555 65.6443 73.3633 65.7352C73.3633 65.8578 73.3633 65.9804 73.3633 66.103V72.2327C73.3702 72.3237 73.3585 72.4152 73.329 72.5016C73.2995 72.588 73.2528 72.6675 73.1916 72.7353C73.0268 72.8707 72.8158 72.9366 72.6032 72.9192H72.1251V74.3781H79.9343L81.2583 70.4551L79.9343 69.977C79.7314 70.6112 79.4112 71.2017 78.9903 71.7178C78.6393 72.0886 78.2046 72.37 77.7226 72.5384C77.2406 72.7069 76.7253 72.7576 76.2197 72.6863C76.1565 72.6864 76.0942 72.6708 76.0386 72.6409C75.9829 72.6109 75.9356 72.5675 75.901 72.5146C75.901 72.3675 75.901 72.2082 75.901 72.061C75.901 70.0015 75.901 67.9419 75.901 65.9314C75.8891 65.8283 75.9031 65.7239 75.9416 65.6276C75.9801 65.5313 76.042 65.4461 76.1216 65.3797C76.1977 65.3185 76.2939 65.2879 76.3913 65.2939H77.1269V63.835H72.1496ZM94.8172 63.835V65.2939C95.1545 65.2495 95.4975 65.2788 95.8225 65.3797C96.0677 65.5391 96.0186 65.772 96.0431 65.9681C96.0431 68.0645 96.0431 70.1486 96.0431 72.2449C96.0431 72.4411 96.0431 72.625 95.8715 72.8211C95.6411 72.9398 95.3818 72.9908 95.1237 72.9682H94.8172V74.4271H103.644L105.005 70.5041L103.644 70.026C103.558 70.2953 103.451 70.5576 103.325 70.8106C103.189 71.0633 103.033 71.3051 102.859 71.5339C101.633 72.9682 100.322 72.674 99.0344 72.7598C98.9241 72.7598 98.8015 72.7598 98.6912 72.6985C98.6538 72.6701 98.6242 72.6328 98.6049 72.5899C98.5856 72.5471 98.5774 72.5002 98.5808 72.4533C98.5808 71.5339 98.5808 70.6144 98.5808 69.695C98.9915 69.6681 99.4039 69.697 99.8068 69.7808C99.8971 69.8346 99.9746 69.9074 100.034 69.9943C100.093 70.0811 100.133 70.1797 100.15 70.2834C100.181 70.5892 100.181 70.8972 100.15 71.2029H101.376V66.6547H100.15C100.185 67.0674 100.143 67.483 100.027 67.8806C99.9757 67.961 99.9051 68.0276 99.8218 68.0746C99.7384 68.1216 99.6449 68.1476 99.5493 68.1503C99.1899 68.1689 98.8299 68.1689 98.4705 68.1503V65.5145C99.1448 65.5145 99.819 65.5145 100.493 65.5145C100.894 65.528 101.287 65.6284 101.646 65.8088C101.894 65.9464 102.118 66.1246 102.308 66.3359C102.64 66.7248 102.901 67.1688 103.08 67.6477L104.416 67.1696L103.19 63.8227L94.8172 63.835ZM118.674 63.835V65.2939C118.995 65.2512 119.321 65.2512 119.642 65.2939C119.924 65.5023 119.875 65.7352 119.9 65.9559C119.9 68.0727 119.9 70.1935 119.9 72.3185C119.905 72.4056 119.892 72.4929 119.863 72.575C119.833 72.6572 119.788 72.7325 119.728 72.7966C119.392 72.9222 119.03 72.9642 118.674 72.9192V74.3781H123.664V72.9682C123.382 72.9926 123.099 72.9926 122.818 72.9682C122.756 72.9585 122.697 72.936 122.644 72.9022C122.591 72.8685 122.546 72.8242 122.511 72.7721C122.45 72.6378 122.425 72.49 122.438 72.343C122.438 70.2589 122.438 68.1626 122.438 66.0785C122.415 65.8521 122.476 65.6254 122.609 65.441C122.792 65.3387 123.003 65.2998 123.21 65.3306H123.664V63.835H118.674ZM137.872 63.835V65.2939C138.197 65.2634 138.524 65.2883 138.841 65.3674C138.918 65.42 138.984 65.4865 139.037 65.5636C139.062 65.7753 139.062 65.9893 139.037 66.2011C139.037 68.3097 139.037 70.4183 139.037 72.5269C139.037 72.674 138.841 72.8947 138.669 72.9192C138.392 72.944 138.113 72.944 137.835 72.9192V74.3781H146.662L147.998 70.4551L146.662 69.977C146.533 70.3492 146.364 70.7067 146.16 71.0435C146.065 71.2063 145.958 71.362 145.841 71.5094C145.641 71.7433 145.415 71.9531 145.166 72.1346C144.909 72.3012 144.628 72.4293 144.333 72.5146C143.526 72.6712 142.701 72.7207 141.881 72.6618C141.783 72.6618 141.648 72.6618 141.562 72.4533C141.544 72.315 141.544 72.1749 141.562 72.0365V69.5847C141.972 69.5592 142.384 69.5839 142.788 69.6582C142.882 69.7126 142.962 69.787 143.023 69.876C143.085 69.965 143.126 70.0664 143.144 70.1731C143.162 70.4793 143.162 70.7864 143.144 71.0926H144.455V66.6547H143.144C143.174 67.02 143.149 67.3877 143.07 67.7457C143.017 67.8923 142.913 68.0144 142.776 68.089C142.346 68.1562 141.911 68.1809 141.476 68.1626V65.5145H143.046C143.459 65.5117 143.871 65.5612 144.272 65.6617C144.52 65.7544 144.752 65.8869 144.958 66.054C145.163 66.2253 145.345 66.4232 145.497 66.6424C145.711 66.9666 145.9 67.3068 146.061 67.6599L147.373 67.1818L146.209 63.835H137.872ZM49.2123 63.455L47.9864 67.1328L49.3226 67.6354C49.5188 67.2308 49.7149 66.8263 49.9479 66.4095C50.111 66.1836 50.2958 65.9742 50.4995 65.7842C50.6705 65.6136 50.876 65.4815 51.1023 65.397C51.3285 65.3124 51.5703 65.2772 51.8113 65.2939C51.8368 65.3041 51.8593 65.3208 51.8765 65.3423C51.8936 65.3637 51.905 65.3893 51.9094 65.4165C51.9161 65.5062 51.9161 65.5964 51.9094 65.6862C51.9094 67.8438 51.9094 70.0137 51.9094 72.1714C51.9094 72.3798 51.9094 72.5882 51.6887 72.7966C51.3741 72.9061 51.039 72.9438 50.7079 72.9069V74.3658H55.6117V72.9682C55.3177 72.9866 55.023 72.9866 54.729 72.9682C54.6432 72.9682 54.5451 72.9682 54.4716 72.7721C54.4043 72.6007 54.3791 72.4158 54.398 72.2327C54.398 70.0137 54.398 67.7948 54.398 65.5758C54.4108 65.5259 54.439 65.4812 54.4786 65.4482C54.5182 65.4152 54.5672 65.3955 54.6187 65.3919C55.0823 65.4145 55.5202 65.6116 55.8446 65.9436C56.342 66.4592 56.7336 67.0673 56.997 67.7335L58.3578 67.2309L57.1319 63.553H56.1634L56.0408 63.9331H50.2666L50.1685 63.553L49.2123 63.455Z" fill="white"/>
<path d="M149.984 0H21.739V7.26981H149.984V0Z" fill="white"/>
<path d="M21.739 13.9385H54.2019L58.6398 26.725L53.5766 28.5884C53.2947 27.951 53.025 27.3012 52.694 26.676C52.363 26.0507 51.9952 25.45 51.6151 24.8738C51.1006 24.0945 50.4866 23.3856 49.7885 22.7652C49.4374 22.4621 49.069 22.1797 48.6851 21.9193C47.9063 21.4022 47.0371 21.0363 46.1229 20.8405C45.4364 20.7057 44.7499 20.5831 44.0511 20.5095C43.3523 20.4359 42.6658 20.4237 41.967 20.4114H36.0212V30.4764C37.4613 30.5313 38.9035 30.4821 40.3365 30.3293C40.9068 30.2512 41.4272 29.9626 41.7954 29.5202C42.0997 29.0748 42.2699 28.5514 42.2857 28.0123C42.3757 26.9318 42.4044 25.8472 42.3716 24.7635H47.3489V41.8286H42.3716C42.3716 40.9827 42.3716 40.1245 42.3716 39.2664C42.3716 38.9967 42.3716 38.7147 42.2735 38.445C42.1919 37.8501 41.9311 37.2942 41.5257 36.8513C41.0384 36.4215 40.41 36.1859 39.7603 36.1893C38.5344 36.0789 37.3084 36.128 36.0825 36.1157C36.0825 39.3849 36.0825 42.6949 36.0825 46.0458C36.0725 46.4202 36.1054 46.7945 36.1806 47.1614C36.275 47.3603 36.4352 47.5205 36.6342 47.615C37.0244 47.7708 37.4399 47.8539 37.8601 47.8602H41.685C42.2735 47.8602 42.911 47.8602 43.4381 47.7866C43.9653 47.7131 44.6641 47.6518 45.1912 47.5537C45.6621 47.4761 46.1286 47.3738 46.5888 47.2472C47.0301 47.1124 47.4715 46.9407 47.9005 46.7691C48.3743 46.5599 48.8331 46.3182 49.2736 46.0458C49.7041 45.7741 50.1139 45.4709 50.4995 45.1386C50.9019 44.8076 51.2789 44.447 51.6274 44.0598C52.2128 43.4001 52.7613 42.7084 53.2702 41.9879C53.7483 41.2524 54.1406 40.4555 54.4961 39.6709C54.8052 38.9713 55.0753 38.255 55.3052 37.5255L60.4296 39.3399L55.3665 54.3209H21.739V48.7306C22.8543 48.7753 23.9712 48.7096 25.0736 48.5345C25.4023 48.4608 25.7013 48.2899 25.9317 48.0441C26.1563 47.8048 26.2981 47.4996 26.3363 47.1737C26.4076 46.4527 26.4363 45.7281 26.4221 45.0038V22.9369C26.4357 22.2427 26.3823 21.5489 26.2627 20.865C26.1886 20.5336 26.0129 20.2336 25.7601 20.0069C25.5856 19.8367 25.3703 19.7143 25.1349 19.6514C24.3897 19.5717 23.6388 19.5594 22.8914 19.6146H21.739V13.9385ZM62.808 13.9385H83.183C84.7161 13.949 86.2472 14.0514 87.7681 14.245C88.5159 14.3553 89.2514 14.4779 89.987 14.6495C90.7226 14.8212 91.4336 15.0663 92.1569 15.2993C92.8746 15.5654 93.5712 15.8851 94.241 16.2555C94.9097 16.62 95.5527 17.0296 96.1657 17.4814C96.7747 17.9494 97.3483 18.4616 97.882 19.0139C98.4215 19.6146 98.9609 20.2398 99.4513 20.8895C99.9416 21.5393 100.334 22.2503 100.751 22.9491C101.127 23.724 101.462 24.5178 101.756 25.3274C102.05 26.1306 102.299 26.9491 102.504 27.7793C102.712 28.7267 102.872 29.6842 102.982 30.648C102.982 31.4081 103.117 32.1682 103.141 32.9283C103.166 33.6883 103.141 34.4484 103.141 35.2085C103.141 35.9686 103.006 36.9861 102.859 37.8565C102.712 38.7269 102.504 39.5974 102.283 40.4678C102.025 41.3471 101.705 42.2074 101.327 43.0423C100.956 43.8911 100.522 44.7107 100.027 45.4941C99.5286 46.2609 98.9798 46.9939 98.3847 47.6886C97.7878 48.3853 97.1359 49.033 96.4354 49.6255C95.906 50.0863 95.3536 50.52 94.7804 50.925C94.192 51.3173 93.5545 51.6606 92.966 52.0039C92.1706 52.3557 91.3513 52.6507 90.5142 52.8865C89.3038 53.2261 88.0761 53.5003 86.8363 53.7079C85.0364 54.0298 83.2187 54.2427 81.3932 54.3454H80.6576H62.808V48.7306C63.6661 48.7306 64.5243 48.7306 65.3824 48.7306C65.6343 48.7077 65.8842 48.6667 66.1302 48.608C66.4032 48.53 66.6466 48.372 66.829 48.1544C67.0289 47.9381 67.1831 47.6838 67.2826 47.4066C67.4282 46.6393 67.4776 45.8568 67.4297 45.0773V23.0104C67.4728 22.3941 67.4728 21.7756 67.4297 21.1593C67.3883 20.7395 67.1915 20.3504 66.8781 20.0682C66.6668 19.8707 66.4028 19.7387 66.118 19.6881C65.4636 19.6047 64.803 19.58 64.1442 19.6146H62.808V13.9385ZM77.0166 20.436C77.0166 29.0175 77.0166 37.4765 77.0166 45.9968C77.0069 46.3732 77.0523 46.7491 77.1514 47.1124C77.2639 47.3416 77.4493 47.5271 77.6786 47.6395C77.927 47.7456 78.1932 47.8038 78.4632 47.8112H78.9045C79.591 47.8112 80.2776 47.8112 80.9641 47.8112C81.6506 47.8112 82.3249 47.7131 83.0114 47.6395C83.4895 47.566 83.9677 47.4802 84.4335 47.3698C84.8994 47.2595 85.3652 47.1001 85.8188 46.9407C86.2413 46.7843 86.6511 46.5958 87.0448 46.3768C87.8674 45.8961 88.615 45.2971 89.2637 44.5992C89.5089 44.305 89.7541 44.023 89.9747 43.7288C90.1954 43.4346 90.4038 43.1036 90.6 42.7848C90.8942 42.2577 91.1884 41.7305 91.4336 41.1911C91.6788 40.6517 91.8504 40.0632 92.0466 39.487C92.2821 38.6505 92.4583 37.7984 92.5737 36.9371C92.6718 35.9563 92.7699 34.9756 92.7699 34.0071C92.7699 33.0386 92.6841 32.0456 92.586 31.0648C92.4879 30.4519 92.4021 29.8389 92.255 29.2137C92.1079 28.5884 91.9117 27.9877 91.7156 27.3993C91.5194 26.8108 91.2865 26.3082 91.0168 25.781C90.7471 25.2539 90.4283 24.7635 90.1219 24.2609C89.9257 23.9912 89.7418 23.7337 89.5334 23.4763C89.325 23.2188 89.1043 22.9982 88.8714 22.7652C88.6137 22.5093 88.3348 22.2755 88.0378 22.0664C87.4391 21.6466 86.7825 21.3162 86.0885 21.0857C85.2085 20.8186 84.3056 20.6339 83.3915 20.534C82.6927 20.4727 81.9939 20.436 81.2951 20.436H77.0166ZM107.248 13.9385H126.275V19.6146C125.368 19.6146 124.473 19.6146 123.565 19.6146C123.213 19.6495 122.866 19.732 122.536 19.8598C122.311 19.992 122.119 20.172 121.972 20.3869C121.824 20.6033 121.727 20.8507 121.69 21.1102C121.594 21.7965 121.553 22.4893 121.567 23.1821V30.2312H135.727V22.6304C135.737 22.0892 135.704 21.5481 135.629 21.0121C135.56 20.6422 135.39 20.2984 135.138 20.0191C134.999 19.8974 134.836 19.8056 134.66 19.7494C134.259 19.6468 133.848 19.5892 133.434 19.5778C132.601 19.5778 131.767 19.5778 130.982 19.5778V13.9385H150.046V19.6146C149.114 19.6146 148.182 19.6146 147.238 19.6146C146.991 19.6385 146.745 19.6795 146.503 19.7372C146.237 19.8286 146.002 19.9913 145.822 20.2075C145.643 20.4237 145.526 20.6851 145.485 20.9631C145.389 21.6823 145.348 22.4077 145.363 23.133V45.0528C145.349 45.8039 145.402 46.5547 145.522 47.2963C145.58 47.6273 145.733 47.9343 145.963 48.1789C146.243 48.4308 146.595 48.5893 146.969 48.6325C147.998 48.7429 149.016 48.7184 150.046 48.7306V54.3086H130.933V48.7306C131.783 48.7736 132.634 48.7736 133.483 48.7306L134.145 48.6448C134.503 48.5747 134.836 48.4143 135.114 48.1789C135.402 47.8815 135.572 47.4893 135.592 47.0756C135.668 46.4246 135.7 45.7694 135.69 45.1141V36.5325H121.53V45.1141C121.53 45.8497 121.53 46.5852 121.616 47.333C121.678 47.7471 121.892 48.1231 122.217 48.3873C122.508 48.5731 122.841 48.6827 123.185 48.7061H123.664C124.481 48.7061 125.339 48.7061 126.238 48.7061V54.2964H107.248V48.7306C108.115 48.7551 108.983 48.7306 109.847 48.6571C110.092 48.6571 110.338 48.5712 110.583 48.5222C110.938 48.4291 111.255 48.2277 111.49 47.946C111.702 47.6289 111.825 47.2605 111.845 46.8794C111.845 46.3768 111.845 45.8742 111.845 45.3838V23.4272C111.859 22.6815 111.818 21.9358 111.723 21.196C111.669 20.7201 111.437 20.2822 111.073 19.9701C110.971 19.8914 110.86 19.8255 110.742 19.7739C110.166 19.6249 109.57 19.5711 108.977 19.6146H107.248V13.9385Z" fill="white"/>
</g>
<defs>
<clipPath id="clip0_52_34610">
<rect width="149.994" height="76.2656" fill="white" transform="translate(0.00317383)"/>
</clipPath>
</defs>
</svg>
