<svg width="30" height="30" viewBox="0 0 30 30" fill="none" xmlns="http://www.w3.org/2000/svg">
<g clip-path="url(#clip0_52_49496)">
<path d="M15 0.374648C10.6875 -0.937852 6.1875 1.31215 4.96875 5.3434L3 11.8121C8.25 13.1246 13.5 14.9059 18.75 16.5934L20.7188 10.1246C21.9375 5.99965 19.4063 1.68715 15 0.374648Z" fill="#4F1C21"/>
<path d="M3.00045 11.9062L1.0317 18.375C-0.187054 22.4063 2.3442 26.8125 6.6567 28.125C10.9692 29.4375 15.5629 27.1875 16.7817 23.1563L18.7504 16.6875C13.5004 14.9062 8.25045 13.125 3.00045 11.9062Z" fill="#4F1C21"/>
<path d="M18.7597 16.6212C19.312 14.7868 16.2231 12.235 11.8604 10.9214C7.49769 9.60777 3.51329 10.0299 2.96098 11.8642C2.40867 13.6985 5.49761 16.2504 9.86031 17.564C14.223 18.8776 18.2074 18.4555 18.7597 16.6212Z" fill="#4F1C21"/>
<path d="M14.5312 1.7818C10.875 0.656799 7.125 2.7193 6 6.37555L4.21875 12.188C8.625 13.2193 12.9375 14.7193 17.25 16.1255L19.0312 10.313C20.1562 6.75055 18.0938 2.9068 14.5312 1.7818Z" fill="#DD575E"/>
<path d="M4.21832 12.1875L2.53082 17.9063C1.40582 21.5625 3.46832 25.3125 7.12457 26.4375C10.7808 27.5625 14.5308 25.5 15.6558 21.8437L17.3433 16.125C12.9371 14.7188 8.62457 13.2188 4.21832 12.1875Z" fill="#D8D8D8"/>
<path d="M5.62457 11.5312L3.93707 17.25C2.81207 20.9062 4.87457 24.6562 8.53082 25.7812C12.1871 26.9062 15.9371 24.8438 17.0621 21.1875L18.7496 15.4687C14.3433 14.0625 10.0308 12.5625 5.62457 11.5312Z" fill="#F9F9F9"/>
<path d="M17.3571 16.1225C17.8497 14.4865 15.3152 12.2769 11.6961 11.1872C8.07706 10.0975 4.7439 10.5404 4.2513 12.1764C3.7587 13.8124 6.2932 16.022 9.91227 17.1117C13.5313 18.2014 16.8645 17.7585 17.3571 16.1225Z" fill="#DD575E"/>
<path d="M5.4375 12.4695C5.4375 12.4695 6.65625 15.1882 9.75 15.0007L12.375 5.43824C12.375 5.43824 13.125 3.56324 15.2812 3.65699C15.2812 3.65699 9.28125 1.50074 7.21875 6.00074L5.4375 12.4695Z" fill="#F97D89"/>
<path d="M18.4688 4.96875L17.3437 10.5L16.125 14.25L18.4688 12.8438L19.4062 9.09375C19.4062 9.09375 19.5 6.375 18.4688 4.96875Z" fill="#C14C57"/>
<path d="M12.0937 20.0625L8.90625 22.5938L9.46875 25.5938L29.8125 20.0625L29.1563 16.7812L12.0937 20.0625Z" fill="#18303F"/>
<path d="M14.813 17.4377L10.1255 22.6877C8.53172 24.4689 9.37547 27.2814 11.7192 27.8439L18.563 29.5314C20.7192 30.0939 22.9692 29.3439 24.3755 27.7502L29.063 22.5002C30.6567 20.7189 29.813 17.9064 27.4692 17.3439L20.6255 15.6564C18.4692 15.0939 16.2192 15.8439 14.813 17.4377Z" fill="#18303F"/>
<path d="M14.3442 14.8127L9.65672 20.0627C8.06297 21.8439 8.90672 24.6564 11.2505 25.2189L18.0942 26.9064C20.2505 27.4689 22.5005 26.7189 23.9067 25.1252L28.5942 19.8752C30.188 18.0939 29.3442 15.2814 27.0005 14.7189L20.1567 13.0314C18.0942 12.4689 15.8442 13.2189 14.3442 14.8127Z" fill="#18303F"/>
<path d="M13.2188 20.0625L10.5938 22.2188L11.0625 24.75L28.125 20.0625L27.5625 17.3438L13.2188 20.0625Z" fill="#36648E"/>
<path d="M15.5628 17.9062L11.6253 22.3125C10.3128 23.8125 11.0628 26.1562 12.9378 26.625L18.6566 28.125C20.4378 28.5937 22.3128 28.0312 23.5316 26.625L27.4691 22.2187C28.7816 20.7187 28.0316 18.375 26.1566 17.9062L20.4378 16.4062C18.6566 15.9375 16.7816 16.5 15.5628 17.9062Z" fill="#36648E"/>
<path d="M15.1878 15.75L11.2503 20.1562C9.93781 21.6562 10.6878 24 12.5628 24.4687L18.2816 25.9687C20.0628 26.4375 21.9378 25.875 23.1566 24.4687L27.0941 20.0625C28.4066 18.5625 27.6566 16.2187 25.7816 15.75L20.0628 14.25C18.2816 13.7812 16.4066 14.3437 15.1878 15.75Z" fill="#4A7DB4"/>
<path d="M15.7503 16.7818L12.844 20.0631C11.9065 21.1881 12.3753 22.8756 13.8753 23.2506L18.094 24.2818C19.4065 24.6568 20.8128 24.1881 21.7503 23.1568L24.6565 19.8756C25.594 18.7506 25.1253 17.0631 23.6253 16.6881L19.4065 15.6568C18.094 15.3756 16.6878 15.7506 15.7503 16.7818Z" fill="#72AADD"/>
</g>
<defs>
<clipPath id="clip0_52_49496">
<rect width="30" height="30" fill="white"/>
</clipPath>
</defs>
</svg>
