<svg width="30" height="30" viewBox="0 0 30 30" fill="none" xmlns="http://www.w3.org/2000/svg">
<g clip-path="url(#clip0_52_63871)">
<path d="M28.9694 4.96857L28.4069 4.31232C28.1257 3.93732 27.8444 3.56232 27.4694 3.18732C26.6257 2.24982 25.6882 1.49982 24.8444 1.49982L9.37565 1.03107H8.9069L7.7819 0.937319C5.43815 0.843569 3.2819 2.53107 2.9069 4.68732L0.469401 19.1248C0.469401 19.4061 0.375651 19.5936 0.375651 19.8748L0.188151 20.7186C0.188151 20.9998 0.094401 21.2811 0.188151 21.5623C0.188151 21.9373 0.281901 22.3123 0.375651 22.5936C0.938151 25.2186 3.0944 28.4998 5.1569 28.4998L23.7194 29.1561C26.0632 29.2498 27.4694 27.6561 27.9382 25.5936V25.6873L28.0319 25.0311C28.0319 24.9373 28.0319 24.7498 28.1257 24.6561L28.8757 17.1561L29.7194 9.09357L29.8132 8.62482V7.96857C29.9069 6.74982 29.3444 5.43732 28.9694 4.96857Z" fill="#2E2966"/>
<path d="M25.218 3.65607L9.09303 3.09357C6.74928 2.99982 4.59303 4.68732 4.21803 6.84357L1.31178 20.2498C0.936785 22.5936 3.37428 27.4686 5.90553 27.5623L23.0618 28.2186C25.593 28.3123 26.9055 26.3436 27.1868 23.9998L28.6868 9.37482C28.8743 7.21857 27.5618 3.74982 25.218 3.65607Z" fill="#16666E"/>
<path d="M24.3757 3.18753L9.18819 2.62503C6.93819 2.53128 4.87569 4.12503 4.59444 6.18753L2.06319 20.8125C1.68819 23.0625 3.18819 24 5.53194 24.0938L20.9069 25.125C23.2507 25.2188 26.5319 21.8438 26.7194 19.5938L27.9382 7.03128C28.2194 5.06253 26.5319 3.28128 24.3757 3.18753Z" fill="#44BAFF"/>
<path d="M24.1875 2.53128L9.84374 2.06253C7.68749 1.96878 5.62499 3.56253 5.24999 5.53128L2.90624 18.5625C2.53124 20.8125 4.12499 22.7813 6.46874 22.875L21.8437 23.625C24.1875 23.7188 26.3437 21.9375 26.5312 19.6875L28.6875 9.00003C28.9687 6.93753 26.4375 2.53128 24.1875 2.53128Z" fill="#1D9FBF"/>
<path d="M23.0632 3.28125L8.25069 2.71875C6.09444 2.71875 4.12569 4.21875 3.75069 6.1875L1.31319 20.3438C0.938186 22.5 2.43819 24.375 4.78194 24.4688L20.6257 25.2188C22.8757 25.3125 24.9382 23.625 25.1257 21.375L26.5319 7.03125C26.7194 5.0625 25.2194 3.375 23.0632 3.28125Z" fill="#23B4CC"/>
<path d="M23.1569 2.53128L8.34443 1.96878C6.18818 1.87503 4.21944 3.46878 3.84444 5.43753L1.59444 18.75C1.21944 20.9063 2.71944 22.7813 5.06319 22.875L20.9069 23.625C23.1569 23.7188 25.2194 22.0313 25.4069 19.7813L26.7194 6.28128C26.8132 4.31253 25.2194 2.62503 23.1569 2.53128Z" fill="#1D9FBF"/>
<path d="M27.0938 4.59375L28.125 5.625C28.4063 6 28.9688 7.21875 28.7813 8.34375L27.0938 24.9375L25.2188 21.1875L27.0938 4.59375Z" fill="#1A8496"/>
<path d="M12.8441 11.625L5.62538 11.25C5.15663 11.25 4.87538 10.7813 4.96913 10.4063L6.00038 5.25C6.09413 4.875 6.37538 4.6875 6.75038 4.6875L13.6879 4.96875C14.1566 4.96875 14.4379 5.34375 14.3441 5.8125L13.5941 11.0625C13.5004 11.3438 13.2191 11.625 12.8441 11.625Z" fill="white"/>
<path d="M7.78125 7.96875L8.25 5.25L12.1875 8.25L7.3125 10.875L7.78125 7.96875Z" fill="#16666E"/>
<path d="M11.5316 20.7188L3.93788 20.25C3.46913 20.25 3.18788 19.7813 3.28163 19.4063L4.40663 13.5938C4.50038 13.2188 4.78163 13.0312 5.15663 13.0312L12.4691 13.4063C12.9379 13.4063 13.2191 13.7813 13.1254 14.25L12.2816 20.1563C12.1879 20.4375 11.9066 20.7188 11.5316 20.7188Z" fill="#7BFFDC"/>
<path d="M6.28125 16.6875L6.75 13.5938L10.875 16.9688L8.34375 18.375L5.71875 19.7813L6.28125 16.6875Z" fill="#16666E"/>
<path d="M23.1571 12.1881L15.6571 11.8131C15.2821 11.8131 14.9071 11.4381 15.0009 10.9693L15.7509 5.62559C15.8446 5.25059 16.1259 4.96934 16.5009 5.06309L23.7196 5.34434C24.0946 5.34434 24.4696 5.71934 24.3759 6.09434L23.9071 11.4381C23.9071 11.9068 23.5321 12.1881 23.1571 12.1881Z" fill="#83FFBB"/>
<path d="M17.8125 8.53125L18.1875 5.71875L20.25 7.21875L22.4062 8.71875L19.9687 10.0312L17.4375 11.4375L17.8125 8.53125Z" fill="#16666E"/>
<path d="M22.4071 21.3756L14.5321 20.9068C14.1571 20.9068 13.7821 20.5318 13.8759 20.0631L14.7196 14.0631C14.8134 13.6881 15.0946 13.4068 15.4696 13.5006L23.0634 13.9693C23.4384 13.9693 23.7196 14.3443 23.7196 14.7193L23.2509 20.8131C23.0634 21.0943 22.7821 21.3756 22.4071 21.3756Z" fill="#FDFF97"/>
<path d="M16.7812 17.25L17.1562 14.1562L19.3125 15.8437L21.5625 17.5313L18.9375 19.0312L16.4062 20.4375L16.7812 17.25Z" fill="#16666E"/>
</g>
<defs>
<clipPath id="clip0_52_63871">
<rect width="30" height="30" fill="white"/>
</clipPath>
</defs>
</svg>
