<svg width="30" height="30" viewBox="0 0 30 30" fill="none" xmlns="http://www.w3.org/2000/svg">
<g clip-path="url(#clip0_52_79421)">
<path d="M29.3436 13.5005C29.0624 13.2192 27.9374 12.8442 27.8436 14.1567C27.8436 14.5317 27.6561 15.0005 27.5624 15.3755C27.5624 13.9692 27.5624 12.563 27.3749 11.813C27.0936 10.2192 26.0624 9.18798 25.7811 9.18798C25.4999 9.18798 25.4061 10.0317 25.3124 10.313C25.2186 10.5942 25.3124 11.813 25.4061 12.0942C25.4999 12.3755 25.6874 14.063 25.6874 14.438C25.7811 14.813 25.5936 15.563 25.4999 15.6567C25.4061 15.7505 25.2186 15.7505 25.1249 15.563C25.0311 15.4692 24.7499 12.3755 24.7499 12.3755C24.7499 12.3755 24.5624 10.313 24.0936 8.90673C23.6249 7.40673 22.7811 7.78173 22.4061 8.06298C22.0311 8.34423 22.4061 10.2192 22.4999 10.5005C22.4999 10.7817 22.9686 13.2192 23.0624 14.063C23.1561 14.9067 22.9686 15.4692 22.8749 15.6567C22.8749 15.938 22.6874 15.938 22.6874 15.938C22.6874 15.938 22.5936 15.0005 22.4999 14.813C22.4999 14.5317 21.8436 10.8755 21.6561 10.313C21.4686 9.75048 21.0936 8.81298 20.4374 8.90673C19.7811 9.00048 19.9686 10.9692 20.0624 11.3442C20.0624 11.7192 20.4374 14.063 20.4374 14.7192C20.5311 15.2817 20.7186 17.3442 20.6249 17.5317C20.5311 17.7192 20.4374 17.7192 20.3436 17.6255L19.4061 15.7505C18.7499 14.2505 17.8124 14.063 17.4374 14.438C17.0624 14.7192 17.6249 15.938 17.9061 16.688C18.1874 17.438 18.6561 20.438 18.8436 21.2817C19.0311 22.2192 19.3124 22.5005 20.4374 23.813C21.4686 25.2192 23.9999 24.563 23.9999 24.563C25.3124 24.7505 26.1561 23.7192 26.7186 22.5005C28.6874 20.1567 29.6249 13.8755 29.3436 13.5005Z" fill="#7C563C"/>
<path d="M28.9694 13.5005C28.6881 13.2192 27.5631 12.8442 27.3756 14.1567C27.3756 14.5317 27.1881 15.0005 27.0944 15.4692C27.0944 14.063 27.0006 12.563 26.9069 11.813C26.6256 10.2192 25.5944 9.09423 25.2194 9.09423C24.9381 9.09423 24.8444 9.93798 24.7506 10.2192C24.6569 10.5005 24.7506 11.813 24.8444 12.0942C24.9381 12.3755 25.1256 14.1567 25.2194 14.5317C25.3131 14.9067 25.1256 15.6567 25.0319 15.7505C24.9381 15.8442 24.7506 15.8442 24.6569 15.6567C24.5631 15.563 24.2819 12.4692 24.2819 12.4692C24.2819 12.4692 24.0006 10.4067 23.5319 8.90673C23.0631 7.40673 22.2194 7.78173 21.8444 8.06298C21.4694 8.34423 21.8444 10.2192 21.9381 10.5942C21.9381 10.8755 22.5006 13.4067 22.5944 14.2505C22.6881 15.0942 22.5006 15.7505 22.4069 15.8442C22.3131 15.938 22.2194 15.938 22.2194 15.938L22.0319 14.813C22.0319 14.5317 21.2819 10.7817 21.0944 10.2192C20.9069 9.65673 20.5319 8.71923 19.8756 8.81298C19.2194 8.90673 19.4069 10.8755 19.5006 11.2505C19.5006 11.6255 19.8756 14.063 19.9694 14.7192C20.0631 15.2817 20.2506 17.438 20.1569 17.6255C20.0631 17.813 19.9694 17.813 19.8756 17.7192L18.9381 15.7505C18.2819 14.3442 17.2506 14.1567 16.8756 14.5317C16.5006 14.813 17.0631 16.1255 17.4381 16.8755C17.7194 17.6255 18.2819 20.7192 18.4694 21.6567C18.6569 22.5942 19.0319 22.8755 20.0631 24.2817C21.1881 25.688 23.7194 25.0317 23.7194 25.0317C25.0319 25.2192 25.8756 24.188 26.5319 22.8755C28.4069 20.2505 29.2506 13.7817 28.9694 13.5005Z" fill="#7C563C"/>
<path d="M28.8749 12.6567C28.5936 12.3755 27.4686 12.0005 27.3749 13.313C27.3749 13.688 27.1874 14.1567 27.0936 14.5317C27.0936 13.1255 27.0936 11.7192 26.9061 10.9692C26.6249 9.37548 25.5936 8.34423 25.3124 8.34423C25.0311 8.34423 24.9374 9.18798 24.8436 9.46923C24.7499 9.75048 24.8436 10.9692 24.9374 11.2505C25.0311 11.5317 25.2186 13.2192 25.2186 13.5942C25.3124 13.9692 25.1249 14.7192 25.0311 14.813C24.9374 14.9067 24.7499 14.9067 24.6561 14.7192C24.5624 14.6255 24.2811 11.5317 24.2811 11.5317C24.2811 11.5317 24.0936 9.46923 23.6249 8.06298C23.1561 6.56298 22.3124 6.93798 21.9374 7.21923C21.5624 7.50048 21.9374 9.37548 22.0311 9.65673C22.0311 9.93798 22.4999 12.3755 22.5936 13.2192C22.6874 14.063 22.4999 14.6255 22.4061 14.813C22.3124 15.0005 22.2186 14.9067 22.2186 14.9067C22.2186 14.9067 22.0311 14.063 22.0311 13.7817C22.0311 13.5005 21.3749 9.84423 21.1874 9.28173C20.9999 8.71923 20.6249 7.78173 19.9686 7.87548C19.3124 7.96923 19.4999 9.93798 19.5936 10.313C19.5936 10.688 19.9686 13.0317 19.9686 13.688C20.0624 14.2505 20.2499 16.313 20.1561 16.5005C20.0624 16.688 19.9686 16.688 19.8749 16.5942L18.9374 14.7192C18.2811 13.313 17.3436 13.2192 16.9686 13.5005C16.5936 13.7817 17.1561 15.0005 17.4374 15.7505C17.7186 16.5005 18.1874 19.5005 18.3749 20.3442C18.5624 21.2817 18.8436 21.563 19.9686 22.8755C20.9999 24.2817 23.5311 23.6255 23.5311 23.6255C24.8436 23.813 25.6874 22.7817 26.2499 21.563C28.3124 19.2192 29.1561 12.938 28.8749 12.6567Z" fill="#7C563C" stroke="#7C563C" stroke-width="0.4695" stroke-miterlimit="10"/>
<path d="M16.875 14.0632C16.875 14.0632 18.75 13.1257 20.0625 15.7507L20.3438 17.3444L19.875 17.7194L16.875 14.0632Z" fill="#A3704D"/>
<path d="M28.4061 13.7816C28.1249 13.4066 27.1874 13.1254 26.9999 14.3441C26.9999 14.7191 26.9061 15.0941 26.7186 15.4691C26.7186 14.1566 26.6249 12.8441 26.5311 12.1879C26.2499 10.6879 25.3124 9.75036 25.0311 9.65661C24.7499 9.65661 24.6561 10.4066 24.5624 10.6879C24.4686 10.9691 24.5624 12.0941 24.6561 12.3754C24.7499 12.6566 24.8436 14.2504 24.9374 14.6254C25.0311 15.0004 24.8436 15.6566 24.7499 15.7504C24.6561 15.8441 24.4686 15.8441 24.4686 15.6566C24.3749 15.5629 24.0936 12.7504 24.0936 12.7504C24.0936 12.7504 23.9061 10.7816 23.4374 9.46911C22.9686 8.06286 22.2186 8.43786 21.9374 8.71911C21.5624 9.00036 21.9374 10.6879 22.0311 10.9691C22.0311 11.2504 22.4999 13.5004 22.5936 14.2504C22.6874 15.0004 22.4999 15.5629 22.4999 15.7504C22.4061 15.9379 22.3124 15.9379 22.3124 15.9379L22.1249 14.9066C22.1249 14.7191 21.4686 11.2504 21.2811 10.6879C21.0936 10.1254 20.8124 9.28161 20.1561 9.37536C19.4999 9.46911 19.7811 11.2504 19.7811 11.6254C19.7811 11.9066 20.1561 14.2504 20.1561 14.7191C20.2499 15.2816 20.4374 17.1566 20.3436 17.3441C20.2499 17.5316 20.1561 17.5316 20.0624 17.4379C19.9686 17.2504 19.7811 16.9691 19.2186 15.6566C18.6561 14.3441 17.7186 14.2504 17.3436 14.5316C16.9686 14.8129 17.5311 15.9379 17.8124 16.6879C18.0936 17.3441 18.5624 20.1566 18.7499 21.0004C18.9374 21.8441 19.2186 22.1254 20.2499 23.4379C21.2811 24.7504 23.6249 24.0941 23.6249 24.0941C24.8436 24.2816 25.5936 23.2504 26.1561 22.1254C27.8436 19.9691 28.6874 14.0629 28.4061 13.7816Z" fill="#A3704D"/>
<path d="M28.2186 14.7187C27.9374 14.4375 27.0936 14.1562 26.9061 15.2812C26.9061 15.6562 26.7186 16.0312 26.6249 16.3125L26.5311 13.2187C26.3436 11.8125 25.4999 10.875 25.2186 10.7812C24.9374 10.7812 24.8436 11.5312 24.7499 11.8125C24.6561 12.0937 24.7499 13.125 24.8436 13.4062C24.9374 13.6875 25.0311 15.1875 25.1249 15.4687C25.2186 15.8437 25.0311 16.4062 24.9374 16.5C24.8436 16.5937 24.7499 16.5937 24.6561 16.4062C24.5624 16.3125 24.3749 13.5937 24.3749 13.5937C24.3749 13.5937 24.1874 11.7187 23.8124 10.4062C23.4374 9.09371 22.6874 9.37496 22.4061 9.56246C22.0311 9.74996 22.4061 11.5312 22.4999 11.7187C22.4999 12 22.8749 14.1562 22.9686 14.9062C23.0624 15.6562 22.8749 16.125 22.7811 16.3125C22.7811 16.4062 22.5936 16.4062 22.5936 16.4062C22.5936 16.4062 22.4999 15.6562 22.4061 15.375C22.4061 15.1875 21.8436 11.8125 21.6561 11.3437C21.4686 10.7812 21.1874 9.93746 20.6249 10.0312C20.0624 10.125 20.2499 11.9062 20.2499 12.1875C20.2499 12.4687 20.5311 14.625 20.6249 15.1875C20.7186 15.6562 20.8124 17.5312 20.8124 17.7187C20.7186 17.9062 20.6249 17.9062 20.5311 17.8125C20.4374 17.7187 20.2499 17.3437 19.6874 16.125C19.1249 14.9062 18.2811 14.7187 17.9061 15C17.5311 15.2812 18.0936 16.4062 18.3749 17.0625C18.6561 17.7187 19.0311 20.3437 19.2186 21.1875C19.4061 21.9375 19.6874 22.2187 20.6249 23.4375C21.5624 24.6562 23.7186 24 23.7186 24C24.7499 24.0937 25.5936 23.25 26.0624 22.2187C27.5624 20.4375 28.4061 15 28.2186 14.7187Z" fill="#A3704D"/>
<path opacity="0.34" d="M26.345 18.1875C26.345 18.1875 24.095 17.9062 22.595 19.0312C21.095 20.1562 21.2825 21.2813 22.1262 21.4688C22.97 21.6563 23.9075 21.2813 24.2825 20.5313C24.6575 19.7813 24.845 19.4063 25.595 19.2188C26.345 19.2188 26.8137 18.4688 26.345 18.1875Z" fill="#A3704D"/>
<path d="M27 13.5937V14.4375L26.9063 16.875C26.9063 16.875 26.7188 17.0625 26.625 16.9688C26.4375 16.875 26.7188 12.9375 26.7188 12.9375L27.1875 13.6875M24.5625 12.75L24.9375 16.125C24.9375 16.125 24.75 16.3125 24.6562 16.2187C24.4687 16.125 24.1875 12.1875 24.1875 12.1875L24.75 12.8437M22.2188 12.5625L22.5938 15.9375C22.5938 15.9375 22.4062 16.125 22.3125 16.0312C22.125 15.9375 21.8437 12 21.8437 12L22.4062 12.6562M22.5938 23.3437C22.5938 23.3437 24.0938 23.8125 25.3125 22.3125C26.625 20.8125 28.3125 14.7187 28.3125 14.7187C28.3125 14.7187 28.2188 19.3125 26.3438 22.0312C24.4688 24.75 23.0625 24.375 23.0625 24.375L22.5938 23.3437ZM16.4062 13.125C16.4062 13.125 18.2812 12.1875 19.5937 14.8125L19.875 16.4062L19.4063 16.7812L16.4062 13.125Z" fill="#A3704D"/>
<path d="M28.5944 12.563C28.3131 12.2817 27.1881 11.9067 27.0006 13.2192C27.0006 13.5942 26.8131 14.063 26.7194 14.5317C26.7194 13.1255 26.6256 11.6255 26.5319 10.8755C26.2506 9.28173 25.2194 8.15673 24.8444 8.15673C24.5631 8.15673 24.4694 9.00048 24.3756 9.28173C24.2819 9.56298 24.3756 10.8755 24.4694 11.1567C24.5631 11.438 24.7506 13.2192 24.8444 13.5942C24.9381 13.9692 24.7506 14.7192 24.6569 14.813C24.5631 14.9067 24.3756 14.9067 24.2819 14.7192C24.1881 14.6255 23.9069 11.5317 23.9069 11.5317C23.9069 11.5317 23.6256 9.46923 23.1569 7.96923C22.6881 6.46923 21.8444 6.84423 21.4694 7.12548C21.0944 7.40673 21.4694 9.28173 21.5631 9.65673C21.5631 9.93798 22.1256 12.4692 22.2194 13.313C22.3131 14.1567 22.1256 14.813 22.0319 14.9067C21.9381 15.0005 21.8444 15.0005 21.8444 15.0005L21.6569 13.8755C21.6569 13.5942 20.9069 9.84423 20.7194 9.28173C20.5319 8.71923 20.1569 7.78173 19.5006 7.87548C18.8444 7.96923 19.0319 9.93798 19.1256 10.313C19.1256 10.688 19.5006 13.1255 19.5944 13.7817C19.6881 14.3442 19.8756 16.5005 19.7819 16.688C19.6881 16.8755 19.5944 16.8755 19.5006 16.7817L18.5631 14.813C17.9069 13.4067 16.8756 13.2192 16.5006 13.5942C16.1256 13.9692 16.6881 15.188 17.0631 15.938C17.3444 16.688 17.9069 19.7817 18.0944 20.7192C18.2819 21.6567 18.6569 21.938 19.6881 23.3442C20.8131 24.7505 23.3444 24.0942 23.3444 24.0942C24.6569 24.2817 25.5006 23.2505 26.1569 21.938C27.9381 19.4067 28.8756 12.8442 28.5944 12.563Z" fill="#A3704D" stroke="#A3704D" stroke-width="0.479719" stroke-miterlimit="10"/>
<path d="M28.0311 12.8441C27.7499 12.5629 26.7186 12.2816 26.6249 13.5004C26.6249 13.8754 26.5311 14.2504 26.3436 14.6254C26.3436 13.3129 26.2499 12.0004 26.1561 11.3441C25.8749 9.84411 24.9374 8.90661 24.6561 8.81286C24.3749 8.81286 24.2811 9.56286 24.1874 9.84411C24.0936 10.1254 24.1874 11.2504 24.2811 11.5316C24.3749 11.8129 24.4686 13.4066 24.5624 13.7816C24.6561 14.1566 24.4686 14.8129 24.3749 14.9066C24.2811 15.0004 24.0936 15.0004 24.0936 14.8129C23.9999 14.7191 23.7186 11.9066 23.7186 11.9066C23.7186 11.9066 23.5311 9.93786 23.0624 8.62536C22.5936 7.21911 21.8436 7.59411 21.5624 7.87536C21.1874 8.15661 21.5624 9.84411 21.6561 10.1254C21.6561 10.4066 22.1249 12.6566 22.2186 13.4066C22.3124 14.1566 22.1249 14.7191 22.1249 14.9066C22.0311 15.0004 21.9374 15.0004 21.9374 15.0004L21.7499 13.9691C21.7499 13.7816 21.0936 10.3129 20.9061 9.75036C20.7186 9.18786 20.3436 8.34411 19.6874 8.43786C19.0311 8.53161 19.3124 10.3129 19.3124 10.6879C19.3124 10.9691 19.6874 13.3129 19.6874 13.7816C19.7811 14.3441 19.9686 16.2191 19.8749 16.4066C19.7811 16.5941 19.6874 16.5941 19.5936 16.5004C19.4999 16.3129 19.3124 16.0316 18.7499 14.7191C18.1874 13.4066 17.2499 13.3129 16.8749 13.5941C16.4999 13.8754 17.0624 15.0004 17.3436 15.7504C17.6249 16.4066 18.0936 19.2191 18.2811 20.0629C18.4686 20.9066 18.7499 21.1879 19.7811 22.5004C20.8124 23.8129 23.1561 23.1566 23.1561 23.1566C24.3749 23.3441 25.1249 22.3129 25.6874 21.1879C27.4686 19.0316 28.2186 13.1254 28.0311 12.8441Z" fill="#E8AB82"/>
<path opacity="0.34" d="M27.7499 13.7812C27.4686 13.5 26.6249 13.2187 26.4374 14.3437C26.4374 14.7187 26.2499 15.0937 26.1561 15.375L26.0624 12.2812C25.8749 10.875 25.0311 9.93746 24.7499 9.84371C24.4686 9.84371 24.3749 10.5937 24.2811 10.875C24.1874 11.1562 24.2811 12.1875 24.3749 12.4687C24.4686 12.75 24.5624 14.25 24.6561 14.5312C24.7499 14.9062 24.5624 15.4687 24.4686 15.5625C24.3749 15.6562 24.2811 15.6562 24.1874 15.4687C24.0936 15.375 23.9061 12.6562 23.9061 12.6562C23.9061 12.6562 23.7186 10.7812 23.3436 9.46871C22.9686 8.15621 22.2186 8.43746 21.9374 8.62496C21.5624 8.81246 21.9374 10.5937 22.0311 10.7812C22.0311 11.0625 22.4061 13.2187 22.4999 13.9687C22.5936 14.7187 22.4061 15.1875 22.3124 15.375C22.3124 15.4687 22.1249 15.4687 22.1249 15.4687C22.1249 15.4687 22.0311 14.7187 21.9374 14.4375C21.9374 14.25 21.3749 10.875 21.1874 10.4062C20.9999 9.84371 20.7186 8.99996 20.1561 9.09371C19.5936 9.18746 19.7811 10.9687 19.7811 11.25C19.7811 11.5312 20.0624 13.6875 20.1561 14.25C20.2499 14.7187 20.3436 16.5937 20.3436 16.7812C20.2499 16.9687 20.1561 16.9687 20.0624 16.875C19.9686 16.7812 19.7811 16.4062 19.2186 15.1875C18.6561 13.9687 17.8124 13.7812 17.4374 14.0625C17.0624 14.3437 17.6249 15.4687 17.9061 16.125C18.1874 16.7812 18.5624 19.4062 18.7499 20.25C18.9374 21 19.2186 21.2812 20.1561 22.5C21.0936 23.7187 23.2499 23.0625 23.2499 23.0625C24.2811 23.1562 25.1249 22.3125 25.5936 21.2812C27.0936 19.5 28.0311 14.0625 27.7499 13.7812Z" fill="#E5895B"/>
<path opacity="0.34" d="M25.968 17.3438C25.968 17.3438 23.718 17.0625 22.218 18.1875C20.718 19.3125 20.9055 20.4375 21.7493 20.625C22.593 20.8125 23.5305 20.4375 23.9055 19.6875C24.2805 18.9375 24.468 18.5625 25.218 18.375C25.8743 18.2813 26.4368 17.625 25.968 17.3438Z" fill="#E5895B"/>
<path d="M26.625 12.6562V13.5L26.4375 15.9375C26.4375 15.9375 26.25 16.125 26.1562 16.0312C25.9688 15.9375 26.25 12 26.25 12L26.7188 12.75M24.0938 11.8125L24.4688 15.1875C24.4688 15.1875 24.2812 15.375 24.1875 15.2812C24.0937 15.1875 23.7187 11.25 23.7187 11.25L24.2812 11.9062M21.8437 11.625L22.2188 15C22.2188 15 22.0312 15.1875 21.9375 15.0938C21.75 15 21.4688 11.0625 21.4688 11.0625L22.0313 11.7187" fill="#A3704D"/>
<path d="M22.125 22.4062C22.125 22.4062 23.625 22.875 24.8437 21.375C25.5 20.625 26.1562 18.8438 26.8125 17.25L27.9375 13.7812C27.9375 13.7812 27.8438 18.375 25.9688 21.0938C24.0938 23.8125 22.5938 23.4375 22.5938 23.4375L22.125 22.4062Z" fill="#E8AB82"/>
<path d="M18.8429 19.7814C18.8429 19.7814 18.8429 26.1564 15.3741 27.0001C11.9054 27.8439 6.09287 27.4689 7.31162 20.8126C8.53037 14.1564 16.1241 17.5314 16.1241 17.5314L18.8429 19.7814Z" fill="#A3704D"/>
<path d="M18.0933 20.0625C18.0933 20.0625 18.0933 25.6875 14.9995 26.4375C11.9058 27.1875 6.84327 26.8125 7.87452 21C8.90577 15.1875 15.6558 18.0937 15.6558 18.0937L18.0933 20.0625Z" fill="#FCC097"/>
<path d="M15.2807 4.78168C15.2807 4.78168 15.4682 14.3442 20.812 19.0317C22.4995 20.5317 22.7807 23.1567 21.187 24.8442C20.812 25.2192 20.437 25.5004 19.8745 25.6879C17.3432 26.5317 15.562 22.9692 13.2182 20.3442C10.8745 17.7192 6.18699 13.7817 7.78074 4.50043C7.78074 4.59418 14.5307 3.46918 15.2807 4.78168Z" fill="#7C563C" stroke="#7C563C" stroke-width="0.508969" stroke-miterlimit="10"/>
<path d="M20.9991 20.7189C22.2179 21.7501 22.7804 23.3439 22.4991 24.9376C22.1241 26.8126 21.2804 28.9689 19.3116 29.4376C15.8429 30.2814 10.0304 29.9064 11.2491 23.2501C12.4679 16.5939 20.0616 19.9689 20.0616 19.9689L20.9991 20.7189Z" fill="#7C563C" stroke="#7C563C" stroke-width="0.508969" stroke-miterlimit="10"/>
<path d="M14.6257 5.71935C14.6257 5.71935 14.5319 15.2819 19.8757 19.5006C20.8132 20.2506 21.2819 21.5631 20.9069 22.7819C20.6257 23.7194 20.1569 24.7506 19.1257 25.0319C16.8757 25.7819 15.5632 22.1256 13.5007 19.7819C11.4382 17.4381 7.03192 13.7819 8.53192 5.4381C8.53192 5.4381 13.9694 4.5006 14.6257 5.71935Z" fill="#FCC097"/>
<path d="M10.594 0.282193C10.594 0.282193 8.34403 0.0946932 7.21903 1.68844C6.09403 3.28219 5.81278 6.09469 7.59403 7.68844C7.59403 7.68844 8.90653 8.53219 9.28153 7.96969C9.65653 7.40719 10.219 5.90719 10.219 5.90719L10.594 0.282193Z" fill="#A3704D"/>
<path d="M9.9375 0.65625C9.9375 0.65625 8.4375 0.65625 7.5 1.96875C6.5625 3.28125 6.28125 5.625 7.78125 7.03125C7.78125 7.03125 8.8125 7.6875 9.09375 7.3125C9.375 6.84375 9.84375 5.625 9.84375 5.625L9.9375 0.65625Z" fill="#F4A082"/>
<path d="M8.62471 5.43794C8.62471 5.43794 8.06221 7.59419 11.6247 8.53169C15.1872 9.46919 17.4372 9.09419 17.8122 8.15669C18.1872 7.21919 17.9997 6.75044 16.4997 5.25044C14.9997 3.75044 15.0935 0.844186 12.1872 0.0941863C9.28096 -0.655814 8.24971 2.43794 8.62471 5.43794Z" fill="#A3704D"/>
<path d="M9.37457 5.34288C9.37457 5.34288 8.90582 7.12413 11.9058 7.96788C14.9058 8.81163 16.8746 8.43663 17.1558 7.59288C17.4371 6.84288 17.3433 6.37413 16.0308 5.15538C14.7183 3.93663 14.7183 1.40538 12.3746 0.842875C10.0308 0.280375 9.09332 2.81163 9.37457 5.34288Z" fill="#F4A082"/>
<path d="M20.437 21.0938C21.562 22.0313 22.0308 23.4375 21.7495 24.8438C21.3745 26.4375 20.6245 28.4063 18.937 28.7813C15.8433 29.5312 10.7808 29.1562 11.812 23.3438C12.8433 17.5313 19.5933 20.4375 19.5933 20.4375L20.437 21.0938Z" fill="#FCC097"/>
<path opacity="0.53" d="M9.37516 3C9.37516 3 9.00016 5.4375 12.6564 6.5625C16.3127 7.6875 17.7189 7.6875 17.7189 7.6875C17.7189 7.6875 17.3439 8.71875 15.6564 8.71875C14.0627 8.625 7.87516 9.375 9.37516 3ZM7.21891 1.96875C7.21891 1.96875 6.46891 5.4375 9.00016 5.8125C9.00016 5.8125 9.65641 6.5625 9.46891 7.03125C9.28141 7.5 9.18766 7.875 8.62516 7.875C8.06266 7.875 5.06266 6.5625 7.21891 1.96875Z" fill="#A3704D"/>
<path d="M11.2498 2.1558C11.2498 1.87455 11.4373 1.5933 11.7185 1.49955C11.9998 1.4058 12.3748 1.5933 12.656 1.7808C13.3123 2.3433 13.781 3.0933 14.156 3.8433C14.2498 4.0308 14.3435 4.2183 14.2498 4.4058C14.156 4.68705 13.781 4.7808 13.4998 4.7808C12.1873 4.68705 10.9685 3.56205 11.2498 2.1558Z" fill="#FCC097"/>
<path opacity="0.3" d="M11.062 8.25C11.062 8.4375 10.9682 8.625 10.8745 8.71875C10.5932 9.375 10.5932 10.125 10.5932 10.875C10.7807 13.5938 11.7182 16.2188 13.312 18.4688C13.4995 18.75 13.7807 19.0312 13.7807 19.4062C13.7807 19.7812 13.4995 20.1562 13.1245 20.0625C12.937 19.9687 12.8432 19.875 12.7495 19.7812L10.4057 16.875C9.74945 16.0312 8.99945 15.0938 8.5307 14.1563C7.87445 12.5625 7.87445 10.7812 7.9682 9.09375C7.9682 8.8125 7.9682 8.4375 8.1557 8.15625C8.24945 7.875 8.43695 7.6875 8.7182 7.5C9.0932 7.3125 9.6557 7.3125 10.0307 7.5C10.4057 7.5 11.1557 7.875 11.062 8.25Z" fill="#A3704D"/>
<path opacity="0.38" d="M11.9997 20.0625C11.7184 20.4375 11.2497 20.7187 10.8747 21.0937C10.0309 21.9375 9.74967 23.1562 10.1247 24.2812C10.4059 25.2187 11.1559 25.875 11.8122 26.5312C10.8747 26.9062 9.74967 26.7187 8.99967 26.0625C8.34342 25.5 7.96842 24.5625 7.78092 23.7187C7.59342 23.0625 7.49967 22.4062 7.59342 21.6562C7.68717 20.25 8.43717 18.8438 9.56217 17.9062C9.93717 17.625 10.3122 17.4375 10.6872 17.4375C11.3434 17.5312 11.7184 18.1875 12.0934 18.5625C12.3747 19.0312 12.2809 19.5937 11.9997 20.0625Z" fill="#A3704D"/>
<path opacity="0.38" d="M12.8437 23.5308C12.9375 24.6558 13.3125 25.6871 14.1562 26.4371C14.8125 26.9996 15.75 27.2808 16.5937 27.3746C17.4375 27.4683 18.375 27.3746 19.2187 27.3746C19.5937 27.3746 20.0625 27.3746 20.1562 27.7496C20.25 28.0308 19.9687 28.3121 19.6875 28.4996C18.8437 29.0621 17.7187 29.3433 16.6875 29.2496C15.6562 29.1558 14.625 28.9683 13.5937 28.6871C13.125 28.5933 12.5625 28.4058 12.1875 28.1246C11.7187 27.7496 11.5312 27.1871 11.4375 26.6246C11.0625 25.0308 11.3437 23.3433 12 21.8433C12.0937 21.5621 12.9375 19.9683 13.2187 20.7183C13.3125 20.9058 12.9375 21.6558 12.9375 21.9371C12.9375 22.5933 12.8437 23.0621 12.8437 23.5308Z" fill="#A3704D"/>
<path d="M12.8438 19.4062C12.8438 19.4062 10.7813 21.0937 9.84375 24C8.90625 26.9062 7.875 24.0938 7.875 24.0938C7.875 24.0938 7.96875 26.25 11.625 27C11.625 27 11.5313 21.8437 12.75 20.4375L13.4063 20.25L12.8438 19.4062Z" fill="#A3704D"/>
<path d="M17.1549 23.6242L14.5299 21.0929C14.2487 20.9054 13.7799 20.3429 13.2174 19.8742C13.4049 19.9679 13.6862 20.1554 14.0612 20.2492C15.5612 20.9992 16.4049 20.4367 16.4987 19.9679V19.8742C16.8737 19.7804 17.0612 19.4992 17.0612 19.3117C17.1549 18.8429 15.8424 18.1867 15.0924 17.7179C14.3424 17.3429 11.8112 15.0929 11.0612 14.5304C10.4049 14.0617 10.0299 13.8742 8.90495 13.6867C8.34245 13.4992 7.6862 13.3117 7.02995 13.4054C5.15495 13.0304 3.5612 15.2804 3.5612 15.2804C2.4362 16.0304 2.34245 17.5304 2.71745 18.8429C2.71745 22.0304 6.46745 27.9367 6.84245 28.0304H7.02995C7.21745 28.3117 7.40495 28.4992 7.4987 28.4992C7.77995 28.4992 8.4362 28.3117 8.52995 27.8429C8.71745 27.7492 8.90495 27.6554 8.9987 27.4679C9.27995 27.7492 9.46745 27.9367 9.65495 28.0304C9.65495 28.0304 9.7487 28.0304 9.7487 28.1242L10.2174 28.5929C11.5299 29.7179 13.1237 29.9054 13.4049 29.7179C13.4987 29.6242 13.4987 29.4367 13.4049 29.1554C13.6862 29.1554 13.9674 29.1554 13.9674 29.0617C14.2487 28.8742 13.6862 28.1242 13.5924 27.7492L14.8112 28.6867C16.0299 29.5304 16.4987 28.8742 16.6862 28.4054C17.0612 28.3117 17.2487 27.9367 17.3424 27.6554C17.4362 27.3742 16.9674 26.9992 16.5924 26.5304C17.0612 26.7179 17.6237 26.8117 17.9049 26.5304C17.9987 26.4367 17.9987 26.2492 17.9987 26.1554C18.1862 26.1554 18.3737 26.0617 18.5612 25.9679C19.0299 25.3117 17.4362 23.8117 17.1549 23.6242Z" fill="#7C563C" stroke="#7C563C" stroke-width="0.508969" stroke-miterlimit="10"/>
<path d="M14.7179 19.4054C14.6242 19.9679 13.6867 20.4367 12.1867 19.7804L10.1242 18.8429C9.93665 18.7492 9.8429 18.9367 9.93665 19.1242C10.0304 19.3117 11.6242 20.9054 12.0929 21.2804L14.8117 23.8117C15.0929 24.0929 16.6867 25.4992 16.1242 26.0617C15.6554 26.6242 14.7179 26.1554 14.1554 25.7804C13.5929 25.4054 10.4992 22.7804 10.3117 22.5929C10.1242 22.4054 9.37415 21.7492 9.37415 21.7492C9.37415 21.7492 9.18665 21.7492 9.2804 21.9367C9.37415 22.1242 9.56165 22.6867 10.2179 23.3429C10.8742 23.9992 12.9367 25.6867 13.2179 25.8742C13.4992 26.0617 15.0929 27.3742 14.9992 27.8429C14.9054 28.3117 14.4367 29.1554 13.0304 28.3117C11.6242 27.4679 10.0304 25.8742 10.0304 25.8742L7.49915 23.5304C7.31165 23.4367 7.12415 23.5304 7.12415 23.7179C7.12415 23.9054 7.49915 24.6554 7.7804 24.8429C8.1554 25.1242 9.4679 26.4367 9.74915 26.6242C10.0304 26.8117 10.9679 27.7492 11.0617 28.0304C11.1554 28.3117 11.7179 29.0617 11.4367 29.3429C11.1554 29.5304 9.56165 29.3429 8.24915 28.2179C7.5929 27.7492 6.56165 26.5304 5.62415 25.4054C5.81165 25.8742 5.99915 26.2492 6.2804 26.6242C7.0304 27.8429 5.9054 28.3117 5.43665 28.2179C4.9679 28.1242 1.31165 22.3117 1.31165 19.0304C0.936652 17.6242 0.936652 16.2179 2.1554 15.4679C2.1554 15.4679 3.74915 13.2179 5.62415 13.5929C7.49915 13.9679 7.9679 14.0617 8.7179 14.6242L12.7492 17.8117C13.4992 18.2804 14.8117 18.9367 14.7179 19.4054Z" fill="#7C563C"/>
<path d="M14.9997 20.156C14.9059 20.6248 14.0622 21.1873 12.5622 20.4373L10.4997 19.4998C10.3122 19.406 10.2184 19.5935 10.3122 19.781C10.4059 19.9685 11.9997 21.5623 12.4684 21.9373L15.0934 24.4685C15.3747 24.7498 16.9684 26.156 16.4997 26.7185C16.0309 27.281 15.0934 26.7185 14.5309 26.3435C13.9684 25.9685 10.8747 23.3435 10.6872 23.156C10.4997 22.9685 9.74967 22.3123 9.74967 22.3123C9.74967 22.3123 9.65592 22.3123 9.65592 22.4998C9.74967 22.6873 9.93717 23.2498 10.5934 23.906C11.2497 24.5623 13.3122 26.2498 13.5934 26.4373C13.8747 26.6248 15.4684 27.9373 15.3747 28.406C15.2809 28.8748 14.9059 29.7185 13.4997 28.781C12.0934 27.8435 10.4997 26.3435 10.4997 26.3435L7.96842 23.9998C7.78092 23.906 7.59342 23.9998 7.68717 24.1873C7.68717 24.3748 8.06217 25.1248 8.43717 25.3123C8.81217 25.5935 10.1247 26.906 10.4059 27.0935C10.6872 27.281 11.6247 28.2185 11.7184 28.4998C11.8122 28.781 12.3747 29.531 12.0934 29.8123C11.8122 29.9998 10.2184 29.8123 8.90592 28.6873C8.24967 28.1248 7.21842 26.9998 6.28092 25.8748C6.37467 26.4373 6.56217 26.8123 6.84342 27.1873C7.59342 28.406 6.56217 28.8748 6.09342 28.781C5.62467 28.6873 1.87467 22.8748 1.78092 19.6873C1.40592 18.281 1.40592 16.8748 2.53092 16.1248C2.53092 16.1248 4.12467 13.8748 5.90592 14.3435C7.68717 14.8123 8.15592 14.8123 8.99967 15.4685L13.0309 18.656C13.0309 18.656 15.0934 19.6873 14.9997 20.156Z" fill="#7C563C"/>
<path d="M13.5008 18.6557C13.4071 19.1245 12.6571 19.4995 11.4383 19.0307L9.75083 18.2807C9.56333 18.2807 9.46958 18.3745 9.56333 18.4682C9.65708 18.6557 10.9696 19.8745 11.3446 20.2495L13.5008 22.2182C13.6883 22.4057 15.0008 23.6245 14.5321 24.0932C14.1571 24.562 13.3133 24.187 12.9383 23.9057C12.4696 23.6245 9.93833 21.4682 9.75083 21.3745C9.56333 21.187 9.00083 20.7182 9.00083 20.7182C9.00083 20.7182 8.90708 20.7182 8.90708 20.9057C9.00083 20.9995 9.18833 21.562 9.65708 22.0307L12.0946 24.0932C12.2821 24.2807 13.5946 25.312 13.5008 25.687C13.4071 26.062 13.0321 26.812 11.9071 26.062C10.6883 25.312 9.37583 24.0932 9.37583 24.0932L7.31333 22.2182C7.21958 22.2182 7.03208 22.2182 7.03208 22.4057C7.03208 22.4995 7.31333 23.1557 7.59458 23.3432C7.87583 23.5307 8.90708 24.562 9.18833 24.7495L10.3133 25.8745C10.4071 26.1557 10.8758 26.7182 10.5946 26.9057C10.4071 27.0932 9.09458 26.9057 7.96958 26.062C7.50083 25.687 6.65708 24.7495 5.81333 23.812C6.00083 24.187 6.09458 24.562 6.28208 24.8432C6.93833 25.7807 6.00083 26.2495 5.62583 26.1557C5.25083 26.1557 2.34458 21.3745 2.34458 18.6557C2.06333 17.5307 2.15708 16.312 3.09458 15.6557C3.09458 15.6557 4.50083 13.7807 6.00083 14.062C7.50083 14.3432 7.87583 14.3432 8.53208 14.9057L11.8133 17.437C12.4696 17.7182 13.5946 18.187 13.5008 18.6557Z" fill="#A3704D"/>
<path d="M2.90664 21.5619C2.90664 21.5619 2.06289 17.4369 3.18789 16.4057C4.31289 15.3744 6.28164 13.8744 9.46914 15.4682C9.46914 15.4682 6.56289 11.9994 3.18789 14.7182C-0.187115 17.4369 2.90664 21.5619 2.90664 21.5619Z" fill="#A3704D"/>
<path opacity="0.34" d="M4.87567 21.9377C4.87567 21.9377 7.03192 20.8127 7.68817 18.9377C8.34442 17.0627 7.50067 16.2189 6.56317 16.5002C5.62567 16.7814 5.06317 17.7189 5.25067 18.6564C5.34442 19.5939 5.43817 19.9689 4.87567 20.5314C4.31317 21.0939 4.21942 21.9377 4.87567 21.9377Z" fill="#A3704D"/>
<path d="M5.25064 22.9686C6.00064 24.4686 7.68814 26.4373 7.68814 26.4373L7.31314 26.0623V26.3436L6.56314 25.9686L4.68814 23.1561C4.50064 22.8748 4.40689 22.4998 4.59439 22.3123C4.68814 22.1248 5.25064 22.9686 5.25064 22.9686Z" fill="#A3704D"/>
<path d="M3.09375 22.3125C3.09375 22.3125 3.9375 23.7188 4.5 24.0938C5.0625 24.4688 6.1875 25.2187 6.28125 25.5937C6.375 25.9687 5.71875 26.5313 5.53125 26.4375C5.34375 26.3438 3.65625 23.25 3.09375 22.3125Z" fill="#A3704D"/>
<path d="M15.1867 19.4992C15.0929 20.0617 14.1554 20.5304 12.6554 19.8742L10.5929 18.9367C10.4054 18.8429 10.3117 19.0304 10.4054 19.2179C10.4992 19.4054 12.0929 20.9992 12.5617 21.3742C13.0304 21.7492 14.9992 23.6242 15.2804 23.9054C15.5617 24.1867 17.1554 25.5929 16.5929 26.1554C16.1242 26.7179 15.1867 26.2492 14.6242 25.8742C14.0617 25.4992 10.9679 22.8742 10.7804 22.6867C10.5929 22.4992 9.8429 21.8429 9.8429 21.8429C9.8429 21.8429 9.6554 21.8429 9.74915 22.0304C9.8429 22.2179 10.0304 22.7804 10.6867 23.4367C11.3429 24.0929 13.4054 25.7804 13.6867 25.9679C13.9679 26.1554 15.5617 27.4679 15.4679 27.9367C15.3742 28.4054 14.9054 29.2492 13.4992 28.4054C12.0929 27.5617 10.4992 25.9679 10.4992 25.9679L7.9679 23.6242C7.7804 23.5304 7.5929 23.6242 7.5929 23.8117C7.5929 23.9992 7.9679 24.7492 8.24915 24.9367C8.5304 25.1242 9.93665 26.5304 10.2179 26.7179C10.4992 26.9054 11.4367 27.8429 11.5304 28.1242C11.6242 28.4054 12.1867 29.1554 11.9054 29.4367C11.6242 29.6242 10.0304 29.4367 8.7179 28.3117C8.06165 27.8429 7.0304 26.6242 6.0929 25.4992C6.2804 25.9679 6.4679 26.3429 6.74915 26.7179C7.49915 27.9367 6.37415 28.4054 5.9054 28.3117C5.43665 28.2179 1.7804 22.4054 1.7804 19.1242C1.4054 17.7179 1.4054 16.3117 2.62415 15.5617C2.62415 15.5617 4.2179 13.3117 6.0929 13.6867C7.9679 14.0617 8.43665 14.1554 9.18665 14.7179L13.2179 17.9054C13.9679 18.3742 15.2804 19.0304 15.1867 19.4992Z" fill="#7C563C" stroke="#7C563C" stroke-width="0.508969" stroke-miterlimit="10"/>
<path d="M15.6559 19.5935C15.5622 20.0623 14.7184 20.6248 13.2184 19.8748L11.1559 18.9373C10.9684 18.8435 10.8747 19.031 10.9684 19.2185C11.0622 19.406 12.6559 20.9998 13.1247 21.3748L15.7497 23.906C16.0309 24.1873 17.6247 25.5935 17.1559 26.156C16.6872 26.7185 15.7497 26.156 15.1872 25.781C14.6247 25.406 11.5309 22.781 11.3434 22.5935C11.1559 22.406 10.4059 21.7498 10.4059 21.7498C10.4059 21.7498 10.3122 21.7498 10.3122 21.9373C10.4059 22.1248 10.5934 22.6873 11.2497 23.3435C11.9059 23.9998 13.9684 25.6873 14.2497 25.8748C14.5309 26.0623 16.1247 27.3748 16.0309 27.8435C15.9372 28.3123 15.5622 29.156 14.1559 28.2185C12.7497 27.281 11.1559 25.781 11.1559 25.781L8.62467 23.4373C8.43717 23.3435 8.24967 23.4373 8.34342 23.6248C8.34342 23.8123 8.71842 24.5623 9.09342 24.7498C9.46842 25.031 10.7809 26.3435 11.0622 26.531C11.3434 26.7185 12.2809 27.656 12.3747 27.9373C12.4684 28.2185 13.0309 28.9685 12.7497 29.2498C12.4684 29.4373 10.8747 29.2498 9.56217 28.1248C8.90592 27.5623 7.87467 26.4373 6.93717 25.3123C7.12467 25.781 7.31217 26.156 7.59342 26.531C8.34342 27.7498 7.31217 28.2185 6.84342 28.1248C6.37467 28.031 2.71842 22.2185 2.62467 19.031C2.24967 17.6248 2.24967 16.2185 3.37467 15.4685C3.37467 15.4685 4.96842 13.2185 6.74967 13.6873C8.53092 14.156 8.99967 14.156 9.84342 14.8123L13.8747 17.9998C14.4372 18.4685 15.7497 19.031 15.6559 19.5935Z" fill="#A3704D" stroke="#A3704D" stroke-width="0.500063" stroke-miterlimit="10"/>
<path d="M14.9066 19.219C14.8128 19.6878 13.9691 20.1565 12.5628 19.5003L10.5941 18.6565C10.4066 18.6565 10.3128 18.7503 10.4066 18.9378C10.5003 19.1253 12.0003 20.5315 12.3753 21.0003C12.7503 21.469 14.6253 23.0628 14.8128 23.344C15.0941 23.6253 16.5003 24.9378 16.0316 25.4065C15.5628 25.969 14.7191 25.4065 14.1566 25.1253L10.5941 22.219C10.4066 22.0315 9.75035 21.469 9.75035 21.469C9.75035 21.469 9.6566 21.469 9.6566 21.6565C9.75035 21.844 9.93785 22.4065 10.5941 22.969L13.3128 25.3128C13.5003 25.5003 15.0941 26.719 14.9066 27.094C14.8128 27.5628 14.4378 28.3128 13.1253 27.469C11.8128 26.6253 10.3128 25.219 10.3128 25.219L7.9691 23.0628C7.7816 22.969 7.68785 23.0628 7.68785 23.2503C7.68785 23.4378 7.9691 24.094 8.3441 24.2815C8.62535 24.5628 9.8441 25.6878 10.1253 25.8753C10.4066 26.0628 11.2503 26.9065 11.3441 27.1878C11.4378 27.469 11.9066 28.219 11.7191 28.4065C11.4378 28.594 10.0316 28.4065 8.7191 27.3753C8.1566 26.9065 7.2191 25.7815 6.2816 24.7503L6.8441 25.8753C7.5941 27.0003 6.56285 27.3753 6.0941 27.3753C5.7191 27.3753 2.25035 21.9378 2.25035 18.9378C1.87535 17.6253 1.9691 16.3128 3.00035 15.6565C3.00035 15.6565 4.50035 13.5003 6.18785 13.969C7.87535 14.344 8.3441 14.344 9.0941 14.9065L12.8441 17.8128C13.6878 18.1878 15.0003 18.7503 14.9066 19.219Z" fill="#E8AB82"/>
<path d="M14.3446 19.312C14.2508 19.7807 13.5008 20.1557 12.2821 19.687L10.5946 18.937C10.4071 18.937 10.3133 19.0307 10.4071 19.1245L12.1883 20.9057L14.3446 22.8745C14.5321 23.062 15.8446 24.2807 15.3758 24.7495C15.0008 25.2182 14.1571 24.8432 13.7821 24.562C13.3133 24.2807 10.7821 22.1245 10.5946 22.0307C10.4071 21.8432 9.84458 21.3745 9.84458 21.3745C9.84458 21.3745 9.75083 21.3745 9.75083 21.562C9.84458 21.6557 10.0321 22.2182 10.5008 22.687L12.9383 24.7495C13.1258 24.937 14.4383 25.9682 14.3446 26.3432C14.2508 26.7182 13.8758 27.4682 12.7508 26.7182C11.6258 25.9682 10.3133 24.7495 10.3133 24.7495L8.25083 22.8745C8.15708 22.8745 7.96958 22.8745 7.96958 23.062C7.96958 23.1557 8.25083 23.812 8.53208 23.9995C8.81333 24.187 9.84458 25.2182 10.1258 25.4057L11.2508 26.5307C11.3446 26.812 11.8133 27.3745 11.5321 27.562C11.3446 27.7495 10.0321 27.562 8.90708 26.7182C8.43833 26.3432 7.59458 25.4057 6.75083 24.4682C6.93833 24.8432 7.03208 25.2182 7.21958 25.4995C7.87583 26.437 6.93833 26.9057 6.56333 26.812C6.18833 26.812 3.28208 22.0307 3.28208 19.312C3.00083 18.187 3.09458 16.9682 4.03208 16.312C4.03208 16.312 5.43833 14.437 6.93833 14.7182C8.43833 14.9995 8.81333 14.9995 9.46958 15.562L12.7508 18.0932C13.3133 18.3745 14.4383 18.937 14.3446 19.312Z" fill="#FCD6BE"/>
<path d="M3.75039 22.2182C3.75039 22.2182 2.90664 18.0932 4.03164 17.0619C5.15664 16.0307 7.12538 14.5307 10.3129 16.1244C10.3129 16.1244 7.40664 12.6557 4.03164 15.3744C0.656635 18.0932 3.75039 22.2182 3.75039 22.2182Z" fill="#E8AB82"/>
<path d="M6.09283 23.6248C6.84283 25.1248 8.53033 27.0936 8.53033 27.0936L8.15533 26.7186V26.9998L7.40533 26.6248L5.53033 23.8123C5.34283 23.5311 5.34283 23.1561 5.43658 22.9686C5.53033 22.7811 6.09283 23.6248 6.09283 23.6248Z" fill="#A3704D"/>
<path d="M3.9375 22.9688C3.9375 22.9688 4.78125 24.375 5.34375 24.75C5.90625 25.125 7.03125 25.875 7.125 26.25C7.21875 26.625 6.5625 27.1875 6.375 27.0938C6.1875 27.0938 4.40625 23.9063 3.9375 22.9688Z" fill="#E8AB82"/>
<path d="M14.625 23.1562C14.625 23.1562 16.7812 24.8437 16.7812 25.125C16.7812 25.4062 16.7813 25.9687 16.5938 26.1562C16.4063 26.3437 16.125 26.4375 15.6563 26.25C15.1875 26.0625 12.9375 23.9062 12.9375 23.9062L14.625 23.1562ZM6 24.5625L7.875 27C7.875 27.1875 7.875 27.8437 7.6875 28.0312C7.5 28.2187 7.21875 28.3125 6.75 28.125C6.28125 27.9375 4.6875 25.0312 4.6875 25.0312L6 24.5625Z" fill="#FCD6BE"/>
<path d="M14.0625 24.4688L15 23.7188C15 23.7188 16.125 24.6563 16.2187 25.0313C16.2187 25.4063 16.125 25.7813 15.8437 25.6875C15.5625 25.5938 14.7188 25.125 14.0625 24.4688Z" fill="#CC4858"/>
<path d="M10.875 26.25C10.875 26.25 12.2813 27.75 12.2813 28.0312C12.2813 28.3125 12.2812 28.875 12.0937 29.0625C11.9062 29.25 11.625 29.3438 11.1562 29.1562C10.6875 28.9688 8.625 26.625 8.625 26.625L10.875 26.25ZM13.7812 25.4062C13.7812 25.4062 15.1875 26.9062 15.1875 27.1875C15.1875 27.375 15.1875 28.0312 15 28.2188C14.8125 28.4062 14.5312 28.5 14.0625 28.3125C13.5938 28.125 11.5313 25.7812 11.5313 25.7812L13.7812 25.4062Z" fill="#FCD6BE"/>
<path d="M12.5625 26.3438L13.5 25.5938C13.5 25.5938 14.625 26.5313 14.7188 26.9063C14.7188 27.2813 14.625 27.6563 14.3438 27.5625C13.9688 27.5625 13.2187 27 12.5625 26.3438ZM9.9375 27.4688L10.875 26.7188C10.875 26.7188 12 27.6563 12.0937 28.0313C12.0937 28.4063 12 28.7813 11.7187 28.6875C11.4375 28.6875 10.5938 28.125 9.9375 27.4688ZM5.71875 25.9688L6.5625 25.875C6.5625 25.875 7.59375 27 7.40625 27.375C7.21875 27.75 7.03125 27.9375 6.75 27.8438C6.5625 27.6563 6 26.9063 5.71875 25.9688Z" fill="#CC4858"/>
<path d="M13.5932 10.032C13.5932 10.032 14.8119 14.907 17.4369 18.282C17.4369 18.282 16.8744 18.5632 16.4057 18.3757C15.9369 18.1882 13.7807 16.2195 13.4057 15.0007C13.0307 13.782 11.6244 8.6257 13.5932 10.032Z" fill="#FCD6BE"/>
<path opacity="0.46" d="M16.5938 13.4998C16.5938 13.4998 17.3437 13.1248 17.9062 13.3123C18.5625 13.4998 19.6875 15.5623 19.6875 15.5623C19.6875 15.5623 22.5 18.9373 23.0625 20.156C23.625 21.3748 24.1875 23.7185 24.1875 23.7185H22.5L21.75 21.8435L21.375 20.4373L20.25 19.2185L18.4688 17.3435L16.5938 13.4998Z" fill="#7C563C"/>
</g>
<defs>
<clipPath id="clip0_52_79421">
<rect width="30" height="30" fill="white"/>
</clipPath>
</defs>
</svg>
