<svg width="35" height="20" viewBox="0 0 35 20" fill="none" xmlns="http://www.w3.org/2000/svg">
<path d="M34.3626 19.4034C34.4507 18.6973 34.496 17.9779 34.496 17.248C34.496 7.72219 26.7738 0 17.248 0C7.72219 0 0 7.72219 0 17.248C0 18.1848 0.0746838 19.1041 0.218429 20.0004C1.01066 18.9159 2.24714 18.1417 3.58271 17.9062C5.02773 17.6514 6.34103 18.0018 7.45144 18.6569C7.38584 18.1967 7.3519 17.7263 7.3519 17.248C7.3519 11.7826 11.7826 7.3519 17.248 7.3519C22.7134 7.3519 27.1441 11.7826 27.1441 17.248C27.1441 17.6084 27.1248 17.9642 27.0873 18.3146C28.1742 17.6209 29.4747 17.2245 30.9281 17.4289C32.2706 17.6176 33.533 18.3477 34.3626 19.4034Z" fill="white"/>
</svg>
