<svg width="22" height="21" viewBox="0 0 22 21" fill="none" xmlns="http://www.w3.org/2000/svg">
<path d="M12.3813 19.5238C12.8575 19.0476 12.8099 18.3333 12.3813 17.8571L6.61944 12.381H20.3337C20.9528 12.381 21.4766 11.9048 21.4766 11.2381V9.71429C21.4766 9.09524 20.9528 8.57143 20.3337 8.57143H6.61944L12.3813 3.14286C12.8099 2.66667 12.8575 1.95238 12.3813 1.47619L11.3337 0.428571C10.9052 0 10.1433 0 9.71468 0.428571L0.476588 9.71429C0.000397213 10.1429 0.000397213 10.8571 0.476588 11.2857L9.71468 20.5714C10.1433 21 10.8575 21 11.3337 20.5714L12.3813 19.5238Z" fill="white"/>
</svg>
