<svg width="30" height="30" viewBox="0 0 30 30" fill="none" xmlns="http://www.w3.org/2000/svg">
<g clip-path="url(#clip0_52_117806)">
<path d="M15.0021 0.681995C7.09442 0.681995 0.683949 7.09246 0.683949 15.0002C0.683949 22.9079 7.09442 29.3184 15.0021 29.3184C22.9098 29.3184 29.3203 22.9079 29.3203 15.0002C29.3203 7.09246 22.9098 0.681995 15.0021 0.681995Z" fill="white" stroke="#D9D9D9" stroke-width="1.36364"/>
<path fill-rule="evenodd" clip-rule="evenodd" d="M11.256 14.8381L16.1174 10.1261C16.155 10.0871 16.1999 10.0559 16.2495 10.0343C16.2992 10.0126 16.3526 10.001 16.4068 10.0001C16.4609 9.99911 16.5147 10.0089 16.5651 10.0287C16.6155 10.0486 16.6614 10.0782 16.7004 10.1159C16.7386 10.153 16.7689 10.1975 16.7893 10.2468C16.8097 10.296 16.8198 10.3489 16.819 10.4022C16.8178 10.4555 16.8056 10.508 16.7833 10.5564C16.7611 10.6049 16.7291 10.6482 16.6894 10.6838L12.1199 15.1429L16.7222 19.6293C16.7696 19.706 16.7888 19.797 16.7763 19.8863C16.7639 19.9757 16.7206 20.058 16.654 20.1188C16.5865 20.1808 16.5002 20.2186 16.4088 20.2261C16.3175 20.2337 16.2262 20.2105 16.1494 20.1604L11.2615 15.3959C11.2229 15.3602 11.192 15.3171 11.1706 15.2692C11.1491 15.2213 11.1376 15.1695 11.1367 15.117C11.1367 15.0127 11.1797 14.9131 11.256 14.8381Z" fill="#0075AE" stroke="#D9D9D9" stroke-width="0.681818"/>
</g>
<defs>
<clipPath id="clip0_52_117806">
<rect width="30" height="30" fill="white"/>
</clipPath>
</defs>
</svg>
