<svg width="48" height="48" viewBox="0 0 48 48" fill="none" xmlns="http://www.w3.org/2000/svg">
<path d="M27.2814 12.2718C27.2814 12.975 27.2814 13.6781 27.2814 14.3812C27.2814 16.0687 27.2814 17.7562 27.2814 19.4484C27.2814 21.4828 27.2814 23.5172 27.2814 25.5516C27.2814 27.3141 27.2814 29.0813 27.2814 30.8438C27.2814 31.6969 27.2627 32.5547 27.2814 33.4078C27.2814 33.4219 27.2814 33.4313 27.2814 33.4453C27.9049 32.8219 28.533 32.1938 29.1564 31.5703C27.5814 31.5703 26.0064 31.5703 24.4314 31.5703C21.9142 31.5703 19.3924 31.5703 16.8752 31.5703C16.2986 31.5703 15.722 31.5703 15.1502 31.5703C15.7736 32.1938 16.4017 32.8219 17.0252 33.4453C17.0158 32.3438 16.7017 31.1813 16.0549 30.2813C15.633 29.6953 15.2111 29.2688 14.6392 28.8375C14.1939 28.5 13.6924 28.2703 13.1674 28.0781C11.0908 27.3094 8.50801 28.0172 7.0877 29.7094C6.19707 30.7733 5.68613 32.0484 5.67207 33.45C6.29551 32.8266 6.92363 32.1984 7.54707 31.575C6.97051 31.575 6.39863 31.575 5.82207 31.575C5.23613 31.575 4.62676 31.6266 4.04082 31.5609C4.20488 31.5844 4.37363 31.6077 4.53769 31.6266C4.41113 31.6077 4.28926 31.575 4.17207 31.5328C4.32207 31.5938 4.47207 31.6594 4.62207 31.7203C4.48613 31.6641 4.36426 31.5938 4.24707 31.5047C4.37363 31.6031 4.50019 31.7016 4.62676 31.8C4.52832 31.7203 4.44394 31.6359 4.36894 31.5422C4.46738 31.6688 4.56582 31.7952 4.66426 31.9219C4.57519 31.8046 4.50488 31.6828 4.44863 31.5469C4.50957 31.6968 4.5752 31.8469 4.63613 31.9969C4.58926 31.875 4.56113 31.7577 4.54238 31.6313C4.56582 31.7952 4.58926 31.9641 4.60801 32.1281C4.58457 31.9031 4.59394 31.6734 4.59394 31.4484C4.59394 30.9797 4.59394 30.5063 4.59394 30.0375C4.59394 28.4625 4.59394 26.8828 4.59394 25.3078C4.59394 23.4 4.59394 21.4922 4.59394 19.5844C4.59394 17.939 4.59394 16.2937 4.59394 14.6484C4.59394 13.8656 4.58457 13.0828 4.59394 12.3047C4.59394 12.2297 4.59863 12.1593 4.60801 12.0843C4.58457 12.2484 4.56113 12.4172 4.54238 12.5812C4.56113 12.4547 4.59395 12.3328 4.63613 12.2156C4.5752 12.3656 4.50957 12.5156 4.44863 12.6656C4.50488 12.5297 4.57519 12.4078 4.66426 12.2906C4.56582 12.4172 4.46738 12.5437 4.36894 12.6703C4.44863 12.5718 4.53301 12.4875 4.62676 12.4125C4.50019 12.5109 4.37363 12.6093 4.24707 12.7078C4.36426 12.6187 4.48613 12.5484 4.62207 12.4922C4.47207 12.5531 4.32207 12.6187 4.17207 12.6797C4.29394 12.6328 4.41113 12.6047 4.53769 12.5859C4.37363 12.6093 4.20488 12.6328 4.04082 12.6515C4.29863 12.6234 4.56582 12.6375 4.82832 12.6375C5.39082 12.6375 5.95332 12.6375 6.51582 12.6375C8.39082 12.6375 10.2611 12.6375 12.1361 12.6375C14.4002 12.6375 16.6642 12.6375 18.933 12.6375C20.8924 12.6375 22.8517 12.6375 24.8111 12.6375C25.7439 12.6375 26.6767 12.6234 27.6096 12.6375C27.6846 12.6375 27.7596 12.6422 27.8346 12.6515C27.6705 12.6281 27.5017 12.6047 27.3377 12.5859C27.4642 12.6047 27.5861 12.6375 27.7033 12.6797C27.5533 12.6187 27.4033 12.5531 27.2533 12.4922C27.3892 12.5484 27.5111 12.6187 27.6283 12.7078C27.5017 12.6093 27.3752 12.5109 27.2486 12.4125C27.3471 12.4922 27.4314 12.5765 27.5064 12.6703C27.408 12.5437 27.3096 12.4172 27.2111 12.2906C27.3002 12.4078 27.3705 12.5297 27.4267 12.6656C27.3658 12.5156 27.3002 12.3656 27.2392 12.2156C27.2861 12.3375 27.3142 12.4547 27.333 12.5812C27.3096 12.4172 27.2861 12.2484 27.2674 12.0843C27.2767 12.1406 27.2814 12.2062 27.2814 12.2718C27.2908 12.7593 27.483 13.2515 27.8299 13.5984C28.1533 13.9218 28.6877 14.1703 29.1564 14.1468C30.1549 14.1 31.0549 13.3218 31.0314 12.2718C31.0127 11.3953 30.6939 10.6172 30.1221 9.9609C29.6861 9.46402 28.9877 9.0609 28.3314 8.95777C28.0502 8.9109 27.7736 8.87808 27.4877 8.87808C27.0517 8.87808 26.6111 8.87808 26.1752 8.87808C24.3236 8.87808 22.4721 8.87808 20.6205 8.87808C18.197 8.87808 15.7783 8.87808 13.3549 8.87808C11.2408 8.87808 9.12676 8.87808 7.01738 8.87808C6.09395 8.87808 5.16582 8.85933 4.24238 8.87808C2.73301 8.90621 1.42051 9.88121 0.979883 11.3297C0.87207 11.6765 0.848633 12.0468 0.848633 12.4125C0.848633 12.8953 0.848633 13.3781 0.848633 13.8609C0.848633 15.8812 0.848633 17.8968 0.848633 19.9172C0.848633 22.3031 0.848633 24.6938 0.848633 27.0797C0.848633 28.5984 0.848633 30.1124 0.848633 31.6313C0.848633 31.7297 0.848633 31.8281 0.848633 31.9219C0.858008 32.5125 1.00332 33.0234 1.26113 33.5531C1.55176 34.1438 2.13301 34.6968 2.73301 34.9594C3.24863 35.1891 3.73144 35.3203 4.30332 35.325C4.47207 35.325 4.64551 35.325 4.81426 35.325C5.40488 35.325 5.99082 35.325 6.58145 35.325C6.90488 35.325 7.22832 35.325 7.55176 35.325C8.57363 35.325 9.41739 34.4672 9.42676 33.45C9.42676 33.2766 9.44082 33.1031 9.46426 32.9297C9.44082 33.0938 9.41739 33.2625 9.39863 33.4266C9.44551 33.0891 9.53926 32.7656 9.66582 32.4563C9.60489 32.6063 9.53926 32.7563 9.47832 32.9063C9.60957 32.6016 9.77832 32.3203 9.97989 32.0578C9.88145 32.1844 9.78301 32.3109 9.68457 32.4375C9.87676 32.1938 10.0924 31.9781 10.3361 31.7859C10.2096 31.8843 10.083 31.9828 9.95645 32.0813C10.219 31.8797 10.5002 31.7109 10.8049 31.5797C10.6549 31.6406 10.5049 31.7063 10.3549 31.7672C10.669 31.6359 10.9924 31.5469 11.3252 31.5C11.1611 31.5233 10.9924 31.5469 10.8283 31.5656C11.1752 31.5188 11.522 31.5188 11.8689 31.5656C11.7049 31.5422 11.5361 31.5188 11.372 31.5C11.7095 31.5469 12.033 31.6406 12.3424 31.7672C12.1924 31.7063 12.0424 31.6406 11.8924 31.5797C12.197 31.7109 12.4783 31.8797 12.7408 32.0813C12.6142 31.9828 12.4877 31.8843 12.3611 31.7859C12.6049 31.9781 12.8205 32.1938 13.0127 32.4375C12.9142 32.3109 12.8158 32.1844 12.7174 32.0578C12.9189 32.3203 13.0877 32.6016 13.2189 32.9063C13.158 32.7563 13.0924 32.6063 13.0314 32.4563C13.1627 32.7703 13.2517 33.0938 13.2986 33.4266C13.2752 33.2625 13.2517 33.0938 13.233 32.9297C13.2564 33.1031 13.2658 33.2766 13.2705 33.45C13.2799 34.4625 14.1236 35.325 15.1455 35.325C16.7205 35.325 18.2955 35.325 19.8705 35.325C22.3877 35.325 24.9096 35.325 27.4267 35.325C28.0033 35.325 28.5799 35.325 29.1517 35.325C30.1642 35.325 31.0267 34.4672 31.0267 33.45C31.0267 32.7469 31.0267 32.0438 31.0267 31.3406C31.0267 29.6531 31.0267 27.9656 31.0267 26.2734C31.0267 24.2391 31.0267 22.2047 31.0267 20.1703C31.0267 18.4078 31.0267 16.6406 31.0267 14.8781C31.0267 14.025 31.0408 13.1672 31.0267 12.314C31.0267 12.3 31.0267 12.2906 31.0267 12.2765C31.0267 11.2968 30.1642 10.3547 29.1517 10.4015C28.1392 10.4437 27.2814 11.2218 27.2814 12.2718Z" fill="#393D46"/>
<path d="M43.4016 25.7765C43.4016 27.5999 43.4016 29.4186 43.4016 31.2421C43.4016 31.5327 43.4203 31.8327 43.3875 32.128C43.411 31.964 43.4344 31.7952 43.4532 31.6311C43.4344 31.7577 43.4016 31.8796 43.3594 31.9968C43.4203 31.8468 43.486 31.6968 43.5469 31.5468C43.4907 31.6827 43.4203 31.8046 43.3313 31.9218C43.4297 31.7952 43.5282 31.6686 43.6266 31.5421C43.5469 31.6405 43.4625 31.7249 43.3688 31.7999C43.4953 31.7015 43.6219 31.603 43.7485 31.5046C43.6313 31.5936 43.5094 31.664 43.3735 31.7202C43.5235 31.6593 43.6735 31.5936 43.8235 31.5327C43.7016 31.5796 43.5844 31.6077 43.4578 31.6265C43.6219 31.603 43.7907 31.5796 43.9547 31.5608C43.4719 31.6124 42.9703 31.5749 42.4828 31.5749C42.0094 31.5749 41.5407 31.5749 41.0672 31.5749C41.6907 32.1983 42.3188 32.8264 42.9422 33.4499C42.9328 32.3483 42.6188 31.1858 41.9719 30.2858C41.55 29.6999 41.1282 29.2733 40.5563 28.8421C40.111 28.5046 39.6094 28.2749 39.0844 28.0827C37.0032 27.3139 34.425 28.0218 33.0047 29.714C32.1141 30.778 31.6032 32.053 31.5891 33.4546C32.2125 32.8311 32.8407 32.203 33.4641 31.5796C32.2079 31.5796 30.9563 31.5796 29.7 31.5796C29.5172 31.5796 29.3344 31.5796 29.1516 31.5796C29.775 32.203 30.4032 32.8311 31.0266 33.4546C31.0266 32.9015 31.0266 32.353 31.0266 31.7999C31.0266 30.478 31.0266 29.1515 31.0266 27.8296C31.0266 26.2265 31.0266 24.628 31.0266 23.0249C31.0266 21.6421 31.0266 20.2546 31.0266 18.8717C31.0266 18.1967 31.0407 17.5217 31.0266 16.8467C31.0266 16.8374 31.0266 16.828 31.0266 16.8186C30.4032 17.442 29.775 18.0702 29.1516 18.6936C30.1079 18.6936 31.0641 18.6936 32.0203 18.6936C33.5157 18.6936 35.011 18.6936 36.5063 18.6936C36.9047 18.6936 37.3219 18.6655 37.7157 18.7124C37.5516 18.6889 37.3828 18.6655 37.2188 18.6467C37.3875 18.6749 37.5422 18.717 37.7016 18.778C37.5516 18.717 37.4016 18.6514 37.2516 18.5905C37.4297 18.6655 37.5938 18.7592 37.7438 18.8764C37.6172 18.778 37.4907 18.6795 37.3641 18.5811C37.6735 18.8295 37.9172 19.1717 38.1703 19.4717C38.625 20.0155 39.0797 20.5592 39.5391 21.103C40.6032 22.3733 41.6672 23.6483 42.736 24.9186C42.9938 25.228 43.2563 25.5327 43.5094 25.8421C43.411 25.7155 43.3125 25.589 43.2141 25.4624C43.3219 25.6077 43.4063 25.753 43.4813 25.9171C43.4203 25.7671 43.3547 25.6171 43.2938 25.4671C43.3594 25.6311 43.4063 25.7952 43.4344 25.9733C43.411 25.8093 43.3875 25.6405 43.3688 25.4764C43.3922 25.5749 43.4016 25.6733 43.4016 25.7765C43.411 26.264 43.6032 26.7561 43.95 27.103C44.2735 27.4265 44.8078 27.6749 45.2766 27.6515C46.275 27.6046 47.1703 26.8265 47.1516 25.7765C47.1375 25.1015 46.9735 24.4827 46.6641 23.8827C46.5188 23.6014 46.3078 23.353 46.1063 23.1092C46.0219 23.0108 45.9422 22.9124 45.8578 22.8139C45.45 22.3264 45.0375 21.8342 44.6297 21.3467C43.5235 20.0249 42.4125 18.6983 41.3063 17.3764C41.0016 17.0108 40.6969 16.6452 40.3922 16.2842C39.6469 15.3983 38.5078 14.9389 37.3641 14.9389C36.0094 14.9342 34.65 14.9389 33.2953 14.9389C31.9407 14.9389 30.5813 14.9249 29.2266 14.9389C29.2032 14.9389 29.1797 14.9389 29.1563 14.9389C28.1438 14.9389 27.2813 15.7967 27.2813 16.8139C27.2813 17.3671 27.2813 17.9155 27.2813 18.4686C27.2813 19.7905 27.2813 21.1171 27.2813 22.4389C27.2813 24.0421 27.2813 25.6405 27.2813 27.2436C27.2813 28.6265 27.2813 30.014 27.2813 31.3968C27.2813 32.0718 27.2719 32.7468 27.2813 33.4218C27.2813 33.4311 27.2813 33.4405 27.2813 33.4499C27.2813 34.4624 28.1391 35.3249 29.1563 35.3249C30.4125 35.3249 31.6641 35.3249 32.9203 35.3249C33.1032 35.3249 33.286 35.3249 33.4688 35.3249C34.4907 35.3249 35.3344 34.4671 35.3438 33.4499C35.3438 33.2765 35.3578 33.103 35.3813 32.9296C35.3578 33.0936 35.3344 33.2624 35.3157 33.4264C35.3625 33.0889 35.4563 32.7655 35.5828 32.4561C35.5219 32.6061 35.4563 32.7561 35.3953 32.9061C35.5266 32.6015 35.6953 32.3202 35.8969 32.0577C35.7985 32.1843 35.7 32.3108 35.6016 32.4374C35.7938 32.1936 36.0094 31.978 36.2532 31.7858C36.1266 31.8843 36 31.9827 35.8735 32.0811C36.136 31.8796 36.4172 31.7108 36.7219 31.5796C36.5719 31.6405 36.4219 31.7061 36.2719 31.7671C36.586 31.6358 36.9094 31.5468 37.2422 31.4999C37.0782 31.5233 36.9094 31.5468 36.7453 31.5655C37.0922 31.5186 37.4391 31.5186 37.786 31.5655C37.6219 31.5421 37.4532 31.5186 37.2891 31.4999C37.6266 31.5468 37.95 31.6405 38.2594 31.7671C38.1094 31.7061 37.9594 31.6405 37.8094 31.5796C38.1141 31.7108 38.3953 31.8796 38.6579 32.0811C38.5313 31.9827 38.4047 31.8843 38.2782 31.7858C38.5219 31.978 38.7375 32.1936 38.9297 32.4374C38.8313 32.3108 38.7328 32.1843 38.6344 32.0577C38.836 32.3202 39.0047 32.6015 39.136 32.9061C39.075 32.7561 39.0094 32.6061 38.9485 32.4561C39.0797 32.7702 39.1688 33.0936 39.2157 33.4264C39.1922 33.2624 39.1688 33.0936 39.15 32.9296C39.1735 33.103 39.1828 33.2765 39.1875 33.4499C39.1969 34.4624 40.0407 35.3249 41.0625 35.3249C41.8032 35.3249 42.5485 35.3249 43.2891 35.3249C43.7813 35.3249 44.2828 35.3343 44.7563 35.1702C45.3282 34.978 45.886 34.6593 46.275 34.1905C46.4719 33.9515 46.6594 33.7171 46.7813 33.4358C46.9875 32.9718 47.0813 32.6296 47.1328 32.1233C47.1844 31.5983 47.1469 31.0499 47.1469 30.5249C47.1469 29.564 47.1469 28.603 47.1469 27.6421C47.1469 27.0186 47.1469 26.3999 47.1469 25.7765C47.1469 24.7967 46.2844 23.8546 45.2719 23.9014C44.2641 23.9483 43.4016 24.7264 43.4016 25.7765ZM13.2703 33.4452C13.2703 33.6186 13.2562 33.7921 13.2328 33.9655C13.2562 33.8014 13.2797 33.6327 13.2984 33.4686C13.2516 33.8061 13.1578 34.1296 13.0312 34.439C13.0922 34.289 13.1578 34.1389 13.2187 33.9889C13.0875 34.2936 12.9187 34.5749 12.7172 34.8374C12.8156 34.7108 12.9141 34.5843 13.0125 34.4577C12.8203 34.7014 12.6047 34.9171 12.3609 35.1093C12.4875 35.0108 12.6141 34.9124 12.7406 34.814C12.4781 35.0155 12.1969 35.1843 11.8922 35.3155C12.0422 35.2546 12.1922 35.189 12.3422 35.128C12.0281 35.2593 11.7047 35.3483 11.3719 35.3952C11.5359 35.3718 11.7047 35.3483 11.8687 35.3296C11.5219 35.3765 11.175 35.3765 10.8281 35.3296C10.9922 35.353 11.1609 35.3765 11.325 35.3952C10.9875 35.3483 10.6641 35.2546 10.3547 35.128C10.5047 35.189 10.6547 35.2546 10.8047 35.3155C10.5 35.1843 10.2187 35.0155 9.95625 34.814C10.0828 34.9124 10.2094 35.0108 10.3359 35.1093C10.0922 34.9171 9.87657 34.7014 9.68438 34.4577C9.78282 34.5843 9.88125 34.7108 9.97969 34.8374C9.77813 34.5749 9.60938 34.2936 9.47813 33.9889C9.53907 34.1389 9.60469 34.289 9.66563 34.439C9.53438 34.1249 9.44532 33.8015 9.39844 33.4686C9.42188 33.6327 9.44532 33.8014 9.46407 33.9655C9.41719 33.6186 9.41719 33.2718 9.46407 32.9249C9.44063 33.089 9.41719 33.2577 9.39844 33.4218C9.44532 33.0843 9.53907 32.7608 9.66563 32.4514C9.60469 32.6015 9.53907 32.7515 9.47813 32.9015C9.60938 32.5968 9.77813 32.3155 9.97969 32.053C9.88125 32.1796 9.78282 32.3061 9.68438 32.4327C9.87657 32.189 10.0922 31.9733 10.3359 31.7811C10.2094 31.8796 10.0828 31.978 9.95625 32.0764C10.2187 31.8749 10.5 31.7061 10.8047 31.5749C10.6547 31.6358 10.5047 31.7014 10.3547 31.7624C10.6687 31.6311 10.9922 31.5421 11.325 31.4952C11.1609 31.5186 10.9922 31.5421 10.8281 31.5608C11.175 31.5139 11.5219 31.5139 11.8687 31.5608C11.7047 31.5374 11.5359 31.514 11.3719 31.4952C11.7094 31.5421 12.0328 31.6358 12.3422 31.7624C12.1922 31.7014 12.0422 31.6358 11.8922 31.5749C12.1969 31.7061 12.4781 31.8749 12.7406 32.0764C12.6141 31.978 12.4875 31.8796 12.3609 31.7811C12.6047 31.9733 12.8203 32.189 13.0125 32.4327C12.9141 32.3061 12.8156 32.1796 12.7172 32.053C12.9187 32.3155 13.0875 32.5968 13.2187 32.9015C13.1578 32.7515 13.0922 32.6015 13.0312 32.4514C13.1625 32.7655 13.2516 33.0889 13.2984 33.4218C13.275 33.2577 13.2516 33.089 13.2328 32.9249C13.2609 33.0983 13.2703 33.2718 13.2703 33.4452C13.275 33.928 13.4766 34.4296 13.8187 34.7718C14.1422 35.0952 14.6766 35.3436 15.1453 35.3202C16.1532 35.2733 17.0297 34.4952 17.0204 33.4452C17.011 32.3343 16.6922 31.1577 16.0313 30.253C15.6094 29.6811 15.1969 29.2593 14.6344 28.8327C14.1891 28.4905 13.6875 28.2655 13.1625 28.0733C12.6328 27.8765 12.0422 27.7921 11.475 27.7733C10.9172 27.7546 10.3312 27.8296 9.79219 27.9843C8.75625 28.2796 7.74844 28.8936 7.05938 29.728C6.6 30.2858 6.29531 30.8108 6.02344 31.4811C5.8125 32.0061 5.72813 32.5546 5.67656 33.1171C5.58281 34.2186 5.89688 35.4093 6.46406 36.3515C7.01719 37.2702 7.86094 38.0858 8.84063 38.5311C9.525 38.8405 10.1344 39.0093 10.8797 39.089C11.4375 39.1499 11.9953 39.089 12.5437 38.9811C13.6922 38.7655 14.8453 38.0765 15.5953 37.1811C16.486 36.1171 16.9969 34.8421 17.011 33.4405C17.0204 32.4608 16.1438 31.5186 15.1359 31.5655C14.1234 31.6171 13.2797 32.3952 13.2703 33.4452Z" fill="#393D46"/>
<path d="M39.1922 33.4453C39.1922 33.6188 39.1781 33.7922 39.1547 33.9656C39.1781 33.8016 39.2016 33.6328 39.2203 33.4688C39.1734 33.8063 39.0797 34.1297 38.9531 34.4391C39.0141 34.2891 39.0797 34.1391 39.1406 33.9891C39.0094 34.2938 38.8406 34.575 38.6391 34.8375C38.7375 34.7109 38.8359 34.5844 38.9344 34.4578C38.7422 34.7016 38.5266 34.9172 38.2828 35.1094C38.4094 35.0109 38.5359 34.9125 38.6625 34.8141C38.4 35.0156 38.1187 35.1844 37.8141 35.3156C37.9641 35.2547 38.1141 35.1891 38.2641 35.1281C37.95 35.2594 37.6266 35.3484 37.2937 35.3953C37.4578 35.3719 37.6266 35.3485 37.7906 35.3297C37.4437 35.3766 37.0969 35.3766 36.75 35.3297C36.9141 35.3531 37.0828 35.3766 37.2469 35.3953C36.9094 35.3484 36.5859 35.2547 36.2766 35.1281C36.4266 35.1891 36.5766 35.2547 36.7266 35.3156C36.4219 35.1844 36.1406 35.0156 35.8781 34.8141C36.0047 34.9125 36.1312 35.0109 36.2578 35.1094C36.0141 34.9172 35.7984 34.7016 35.6062 34.4578C35.7047 34.5844 35.8031 34.7109 35.9016 34.8375C35.7 34.575 35.5312 34.2938 35.4 33.9891C35.4609 34.1391 35.5266 34.2891 35.5875 34.4391C35.4562 34.125 35.3672 33.8016 35.3203 33.4688C35.3437 33.6328 35.3672 33.8016 35.3859 33.9656C35.3391 33.6188 35.3391 33.2719 35.3859 32.925C35.3625 33.0891 35.3391 33.2578 35.3203 33.4219C35.3672 33.0844 35.4609 32.761 35.5875 32.4516C35.5266 32.6016 35.4609 32.7516 35.4 32.9016C35.5312 32.5969 35.7 32.3156 35.9016 32.0531C35.8031 32.1797 35.7047 32.3063 35.6062 32.4328C35.7984 32.1891 36.0141 31.9735 36.2578 31.7813C36.1312 31.8797 36.0047 31.9781 35.8781 32.0766C36.1406 31.875 36.4219 31.7063 36.7266 31.575C36.5766 31.6359 36.4266 31.7016 36.2766 31.7625C36.5906 31.6313 36.9141 31.5422 37.2469 31.4953C37.0828 31.5188 36.9141 31.5422 36.75 31.5609C37.0969 31.5141 37.4437 31.5141 37.7906 31.5609C37.6266 31.5375 37.4578 31.5141 37.2937 31.4953C37.6312 31.5422 37.9547 31.6359 38.2641 31.7625C38.1141 31.7016 37.9641 31.6359 37.8141 31.575C38.1187 31.7063 38.4 31.875 38.6625 32.0766C38.5359 31.9781 38.4094 31.8797 38.2828 31.7813C38.5266 31.9735 38.7422 32.1891 38.9344 32.4328C38.8359 32.3063 38.7375 32.1797 38.6391 32.0531C38.8406 32.3156 39.0094 32.5969 39.1406 32.9016C39.0797 32.7516 39.0141 32.6016 38.9531 32.4516C39.0844 32.7656 39.1734 33.0891 39.2203 33.4219C39.1969 33.2578 39.1734 33.0891 39.1547 32.925C39.1781 33.0984 39.1922 33.2719 39.1922 33.4453C39.1969 33.9281 39.3984 34.4297 39.7406 34.7719C40.0641 35.0953 40.5984 35.3438 41.0672 35.3203C42.0749 35.2734 42.9515 34.4953 42.9421 33.4453C42.9328 32.3344 42.614 31.1578 41.9531 30.2531C41.5312 29.6813 41.1187 29.2594 40.5562 28.8328C40.1109 28.4906 39.6094 28.2656 39.0844 28.0735C38.5547 27.8766 37.9641 27.7922 37.3969 27.7735C36.8391 27.7547 36.2531 27.8297 35.7141 27.9844C34.6781 28.2797 33.6703 28.8938 32.9813 29.7281C32.5219 30.2859 32.2172 30.8109 31.9453 31.4813C31.7344 32.0063 31.65 32.5547 31.5984 33.1172C31.5047 34.2188 31.8188 35.4094 32.3859 36.3516C32.9391 37.2703 33.7828 38.0859 34.7625 38.5312C35.4469 38.8406 36.0562 39.0094 36.8016 39.089C37.3594 39.15 37.9172 39.089 38.4656 38.9812C39.6141 38.7656 40.7672 38.0765 41.5172 37.1813C42.4078 36.1172 42.9187 34.8422 42.9328 33.4406C42.9421 32.4609 42.0656 31.5188 41.0578 31.5656C40.0453 31.6172 39.2016 32.3953 39.1922 33.4453Z" fill="#393D46"/>
</svg>
