<svg width="190" height="127" viewBox="0 0 190 127" fill="none" xmlns="http://www.w3.org/2000/svg">
<path opacity="0.22" d="M128.591 32.1914H148.703C149.763 32.1942 150.778 32.6165 151.528 33.3661C152.278 34.1157 152.7 35.1316 152.703 36.1916V90.353C152.7 91.4131 152.278 92.4289 151.528 93.1785C150.778 93.9281 149.763 94.3504 148.703 94.3532H51.6838C50.6238 94.3504 49.6079 93.9281 48.8583 93.1785C48.1087 92.4289 47.6864 91.4131 47.6836 90.353V36.2022C47.6836 35.1403 48.1047 34.1217 48.8546 33.3699C49.6045 32.618 50.6219 32.1942 51.6838 32.1914H61.6158" fill="#81B441"/>
<path opacity="0.3" d="M178.504 109.854H157.453" stroke="white" stroke-width="2.11094" stroke-miterlimit="10" stroke-linecap="round"/>
<path opacity="0.3" d="M36.0731 109.854H30.7852" stroke="white" stroke-width="2.11094" stroke-miterlimit="10" stroke-linecap="round"/>
<path opacity="0.3" d="M62.4014 115.801H8.30859" stroke="white" stroke-width="2.11094" stroke-miterlimit="10" stroke-linecap="round"/>
<path d="M124.676 28.9883H144.482C145.527 28.9911 146.528 29.4073 147.266 30.146C148.005 30.8847 148.421 31.8858 148.424 32.9305V86.2633C148.421 87.308 148.005 88.309 147.266 89.0477C146.528 89.7864 145.527 90.2027 144.482 90.2055H48.9305C47.8858 90.2027 46.8847 89.7864 46.146 89.0477C45.4073 88.309 44.9911 87.308 44.9883 86.2633V32.9305C44.9911 31.8858 45.4073 30.8847 46.146 30.146C46.8847 29.4073 47.8858 28.9911 48.9305 28.9883H69.2641" stroke="#81B441" stroke-width="2.11094" stroke-miterlimit="10" stroke-linecap="round"/>
<path opacity="0.8" d="M56.9178 62.4098C58.2293 62.4098 59.2926 61.3465 59.2926 60.035C59.2926 58.7234 58.2293 57.6602 56.9178 57.6602C55.6062 57.6602 54.543 58.7234 54.543 60.035C54.543 61.3465 55.6062 62.4098 56.9178 62.4098Z" stroke="white" stroke-width="2.11094" stroke-miterlimit="10" stroke-linecap="round"/>
<path opacity="0.8" d="M140.334 61.586L139.205 60.4567L140.334 59.3273C140.474 59.1773 140.55 58.9788 140.547 58.7737C140.543 58.5687 140.46 58.373 140.315 58.2279C140.17 58.0829 139.974 57.9998 139.769 57.9962C139.564 57.9926 139.365 58.0687 139.215 58.2086L138.086 59.3379L136.957 58.2086C136.807 58.0687 136.608 57.9926 136.403 57.9962C136.198 57.9998 136.002 58.0829 135.857 58.2279C135.712 58.373 135.629 58.5687 135.626 58.7737C135.622 58.9788 135.698 59.1773 135.838 59.3273L136.967 60.4567L135.838 61.586C135.76 61.6585 135.698 61.7459 135.654 61.843C135.611 61.9401 135.588 62.0449 135.586 62.1512C135.584 62.2575 135.604 62.3631 135.644 62.4617C135.683 62.5602 135.743 62.6498 135.818 62.7249C135.893 62.8001 135.982 62.8594 136.081 62.8992C136.18 62.939 136.285 62.9585 136.391 62.9567C136.498 62.9548 136.603 62.9315 136.7 62.8883C136.797 62.845 136.884 62.7826 136.957 62.7048L138.086 61.5755L139.215 62.7048C139.288 62.7826 139.375 62.845 139.472 62.8883C139.569 62.9315 139.674 62.9548 139.781 62.9567C139.887 62.9585 139.992 62.939 140.091 62.8992C140.19 62.8594 140.279 62.8001 140.354 62.7249C140.429 62.6498 140.489 62.5602 140.529 62.4617C140.568 62.3631 140.588 62.2575 140.586 62.1512C140.584 62.0449 140.561 61.9401 140.518 61.843C140.474 61.7459 140.412 61.6585 140.334 61.586Z" fill="white"/>
<path opacity="0.7" d="M68.7945 117.821C69.9604 117.821 70.9055 116.876 70.9055 115.711C70.9055 114.545 69.9604 113.6 68.7945 113.6C67.6287 113.6 66.6836 114.545 66.6836 115.711C66.6836 116.876 67.6287 117.821 68.7945 117.821Z" stroke="white" stroke-width="1.05547" stroke-miterlimit="10"/>
<path d="M150.761 109.854H47.1562" stroke="#E4E6E7" stroke-width="2.11094" stroke-miterlimit="10" stroke-linecap="round"/>
<path d="M138.853 109.416C138.874 105.411 138.341 101.422 137.27 97.5628C136.336 94.3542 133.127 81.2611 132.995 77.7886C132.863 74.3161 128.721 71.9097 128.721 71.9097C116.583 64.6217 101.278 62.363 95.7267 61.9355C95.7267 61.7191 80.5121 61.8458 64.0626 71.7144C64.0626 71.7144 59.9199 74.1209 59.788 77.5934C59.656 81.0659 56.4474 94.159 55.5133 97.3676C54.5332 101.317 53.9916 105.363 53.8984 109.432" fill="white"/>
<path d="M138.853 109.416C138.874 105.411 138.341 101.422 137.27 97.5628C136.336 94.3542 133.127 81.2611 132.995 77.7886C132.863 74.3161 128.721 71.9097 128.721 71.9097C116.583 64.6217 101.278 62.363 95.7267 61.9355C95.7267 61.7191 80.5121 61.8458 64.0626 71.7144C64.0626 71.7144 59.9199 74.1209 59.788 77.5934C59.656 81.0659 56.4474 94.159 55.5133 97.3676C54.5332 101.317 53.9916 105.363 53.8984 109.432" stroke="#E4E6E7" stroke-width="2.11094" stroke-linecap="round" stroke-linejoin="round"/>
<path d="M80.6949 42.7104C77.043 41.9399 77.9348 45.5918 78.0193 45.8768C78.0204 45.8926 78.0204 45.9085 78.0193 45.9243C78.5998 51.0169 80.3043 51.6872 81.3756 51.5658C81.6123 51.541 81.8495 51.6075 82.0387 51.7517C82.228 51.8959 82.3551 52.1068 82.3942 52.3415C82.9747 55.6716 85.8456 59.8459 86.4525 60.7009C86.4876 60.7506 86.5343 60.7909 86.5886 60.8185C86.6428 60.8461 86.703 60.8601 86.7638 60.8592H104.211C104.272 60.8601 104.332 60.8461 104.386 60.8185C104.44 60.7909 104.487 60.7506 104.522 60.7009C105.145 59.8248 108.127 55.4868 108.617 52.1252C108.632 52.0312 108.665 51.941 108.716 51.8602C108.766 51.7794 108.832 51.7096 108.91 51.6549C108.987 51.6002 109.076 51.5618 109.169 51.5419C109.262 51.5221 109.358 51.5212 109.451 51.5394C110.507 51.7399 112.348 51.265 112.955 45.9243C112.954 45.9085 112.954 45.8926 112.955 45.8768C113.034 45.5707 113.926 41.9241 110.28 42.7104" fill="white"/>
<path d="M80.6949 42.7104C77.043 41.9399 77.9348 45.5918 78.0193 45.8768C78.0204 45.8926 78.0204 45.9085 78.0193 45.9243C78.5998 51.0169 80.3043 51.6872 81.3756 51.5658C81.6123 51.541 81.8495 51.6075 82.0387 51.7517C82.228 51.8959 82.3551 52.1068 82.3942 52.3415C82.9747 55.6716 85.8456 59.8459 86.4525 60.7009C86.4876 60.7506 86.5343 60.7909 86.5886 60.8185C86.6428 60.8461 86.703 60.8601 86.7638 60.8592H104.211C104.272 60.8601 104.332 60.8461 104.386 60.8185C104.44 60.7909 104.487 60.7506 104.522 60.7009C105.145 59.8248 108.127 55.4868 108.617 52.1252C108.632 52.0312 108.665 51.941 108.716 51.8602C108.766 51.7794 108.832 51.7096 108.91 51.6549C108.987 51.6002 109.076 51.5618 109.169 51.5419C109.262 51.5221 109.358 51.5212 109.451 51.5394C110.507 51.7399 112.348 51.265 112.955 45.9243C112.954 45.9085 112.954 45.8926 112.955 45.8768C113.034 45.5707 113.926 41.9241 110.28 42.7104" stroke="#E4E6E7" stroke-width="1.5832" stroke-miterlimit="10" stroke-linecap="round"/>
<path d="M111.212 66.4937C111.278 66.5029 111.346 66.4967 111.409 66.4756C111.472 66.4546 111.529 66.4192 111.577 66.3724L112.996 64.9528C113.065 64.8849 113.108 64.7958 113.12 64.6999C113.131 64.6041 113.11 64.5072 113.06 64.425C112.273 63.1479 108.426 59.2691 96.172 59.1055H96.1351C83.7122 59.7018 79.8703 63.1849 79.0576 64.4145C79.0064 64.4961 78.9842 64.5927 78.9948 64.6884C79.0053 64.7842 79.0479 64.8737 79.1156 64.9422L80.5247 66.3513C80.572 66.3981 80.6294 66.4335 80.6926 66.4545C80.7557 66.4756 80.8229 66.4818 80.8888 66.4726" fill="white"/>
<path d="M111.212 66.4937C111.278 66.5029 111.346 66.4967 111.409 66.4756C111.472 66.4546 111.529 66.4192 111.577 66.3724L112.996 64.9528C113.065 64.8849 113.108 64.7958 113.12 64.6999C113.131 64.6041 113.11 64.5072 113.06 64.425C112.273 63.1479 108.426 59.2691 96.172 59.1055H96.1351C83.7122 59.7018 79.8703 63.1849 79.0576 64.4145C79.0064 64.4961 78.9842 64.5927 78.9948 64.6884C79.0053 64.7842 79.0479 64.8737 79.1156 64.9422L80.5247 66.3513C80.572 66.3981 80.6294 66.4335 80.6926 66.4545C80.7557 66.4756 80.8229 66.4818 80.8888 66.4726" stroke="#E4E6E7" stroke-width="1.05547" stroke-miterlimit="10" stroke-linecap="round"/>
<path d="M110.234 26.0283L109.812 25.1892C109.635 24.8066 109.417 24.444 109.163 24.1073C108.285 23.0345 107.21 22.1389 105.997 21.4687C105.93 21.4306 105.877 21.3736 105.843 21.3049C105.809 21.2362 105.796 21.159 105.807 21.0832C105.817 21.0073 105.849 20.9361 105.9 20.8788C105.951 20.8216 106.018 20.7807 106.092 20.7615C106.171 20.7414 106.242 20.6965 106.294 20.6333C106.346 20.5701 106.377 20.492 106.382 20.4102C106.386 20.3284 106.365 20.2473 106.32 20.1785C106.276 20.1098 106.211 20.0571 106.134 20.028C99.2998 17.3207 94.8932 17.9803 91.7426 19.1889C91.6807 19.2158 91.6128 19.2257 91.5457 19.2176C91.4787 19.2095 91.4151 19.1837 91.3613 19.1429C91.3076 19.102 91.2657 19.0476 91.2399 18.9852C91.2142 18.9228 91.2056 18.8546 91.2149 18.7878C91.2432 18.533 91.2908 18.2807 91.3574 18.0331C91.382 17.9619 91.3848 17.885 91.3655 17.8121C91.3463 17.7393 91.3058 17.6738 91.2492 17.624C91.1926 17.5742 91.1225 17.5424 91.0478 17.5326C90.9731 17.5227 90.8972 17.5353 90.8297 17.5687C89.7731 17.9808 88.7528 18.4804 87.7794 19.0622C86.8242 18.8986 85.8584 18.7772 84.8821 18.7086C84.7732 18.7013 84.6643 18.7246 84.5679 18.7758C84.4715 18.8271 84.3914 18.9043 84.3365 18.9987C84.2816 19.0931 84.2542 19.2009 84.2574 19.31C84.2605 19.4192 84.2941 19.5253 84.3544 19.6163C84.6982 19.9904 85.0648 20.3428 85.4521 20.6718C82.7732 22.7941 80.8503 25.7238 79.9689 29.0258C79.1885 32.4958 79.1382 36.0901 79.8211 39.5805C80.0945 41.0924 80.8324 42.4814 81.9321 43.5544C82.8671 44.4626 83.6257 45.5362 84.1697 46.7208C85.255 49.047 86.0866 51.4833 86.65 53.9877C86.6848 54.1506 86.7534 54.3045 86.8513 54.4393C86.9492 54.5742 87.0743 54.687 87.2185 54.7705C87.3627 54.854 87.5228 54.9064 87.6885 54.9243C87.8542 54.9422 88.0218 54.9251 88.1804 54.8743C89.4206 54.4679 91.6899 53.9929 95.4368 54.0404H95.2521C99.0043 53.9929 101.268 54.4679 102.508 54.8743C102.667 54.9251 102.835 54.9422 103 54.9243C103.166 54.9064 103.326 54.854 103.47 54.7705C103.615 54.687 103.74 54.5742 103.838 54.4393C103.935 54.3045 104.004 54.1506 104.039 53.9877C104.602 51.4833 105.434 49.047 106.519 46.7208C107.251 45.1156 108.37 43.7175 109.775 42.6519C110.115 42.3935 110.395 42.0662 110.599 41.6914C111.211 40.5727 112.25 38.1081 112.235 34.2082C112.207 31.3639 111.522 28.5645 110.234 26.0283Z" fill="white" stroke="#E4E6E7" stroke-width="1.05547" stroke-miterlimit="10"/>
<path opacity="0.1" d="M62.1484 109.241V89.7676C62.154 86.9579 63.2719 84.2647 65.2577 82.2769C67.2435 80.2891 69.9356 79.1685 72.7453 79.1602H120.468C123.276 79.1685 125.967 80.2876 127.952 82.2731C129.938 84.2586 131.057 86.9492 131.065 89.7571V109.769" fill="white"/>
<path d="M114.18 78.8223H119.943C122.75 78.8306 125.441 79.9498 127.426 81.9353C129.412 83.9207 130.531 86.6113 130.539 89.4192V109.404" stroke="white" stroke-width="2.11094" stroke-linecap="round" stroke-linejoin="round"/>
<path d="M61.6211 108.919V89.4192C61.6294 86.6113 62.7486 83.9207 64.7341 81.9353C66.7196 79.9498 69.4101 78.8306 72.218 78.8223H96.2352" stroke="white" stroke-width="2.11094" stroke-linecap="round" stroke-linejoin="round"/>
<path d="M109.43 78.8223H110.227" stroke="white" stroke-width="2.11094" stroke-linecap="round" stroke-linejoin="round"/>
<path d="M28.3155 17.3633H57.304C57.9726 17.3647 58.6134 17.6309 59.0862 18.1037C59.5589 18.5764 59.8252 19.2173 59.8266 19.8859V33.5383C59.8252 34.2069 59.5589 34.8478 59.0862 35.3205C58.6134 35.7933 57.9726 36.0595 57.304 36.0609H55.4939V40.1509C55.4925 40.2187 55.4713 40.2847 55.433 40.3407C55.3946 40.3967 55.3407 40.4403 55.278 40.4661C55.2152 40.4919 55.1462 40.4988 55.0795 40.4859C55.0129 40.473 54.9515 40.4409 54.9028 40.3936L50.5648 36.0556H28.3155C27.6469 36.0542 27.0061 35.788 26.5334 35.3152C26.0606 34.8425 25.7944 34.2017 25.793 33.5331V19.8806C25.7958 19.2129 26.0626 18.5734 26.5352 18.1018C27.0078 17.6302 27.6479 17.3647 28.3155 17.3633Z" fill="white" stroke="white" stroke-width="6.33281" stroke-miterlimit="10" stroke-linecap="round"/>
<path opacity="0.3" d="M28.3155 17.4883H57.304C57.9726 17.4897 58.6134 17.7559 59.0862 18.2287C59.5589 18.7014 59.8252 19.3423 59.8266 20.0109V33.6633C59.8252 34.3319 59.5589 34.9728 59.0862 35.4455C58.6134 35.9183 57.9726 36.1845 57.304 36.1859H55.4939V40.2759C55.4925 40.3437 55.4713 40.4097 55.433 40.4657C55.3946 40.5217 55.3407 40.5653 55.278 40.5911C55.2152 40.6169 55.1462 40.6238 55.0795 40.6109C55.0129 40.598 54.9515 40.5659 54.9028 40.5186L50.5648 36.1806H28.3155C27.6469 36.1792 27.0061 35.913 26.5334 35.4402C26.0606 34.9675 25.7944 34.3267 25.793 33.6581V20.0056C25.7958 19.3379 26.0626 18.6984 26.5352 18.2268C27.0078 17.7552 27.6479 17.4897 28.3155 17.4883Z" stroke="white" stroke-width="2.11094" stroke-miterlimit="10" stroke-linecap="round"/>
<path opacity="0.3" d="M52.7937 28.9252C54.0324 28.9252 55.0365 27.921 55.0365 26.6823C55.0365 25.4436 54.0324 24.4395 52.7937 24.4395C51.5549 24.4395 50.5508 25.4436 50.5508 26.6823C50.5508 27.921 51.5549 28.9252 52.7937 28.9252Z" fill="white"/>
<path opacity="0.3" d="M43.6022 28.9252C44.8409 28.9252 45.8451 27.921 45.8451 26.6823C45.8451 25.4436 44.8409 24.4395 43.6022 24.4395C42.3635 24.4395 41.3594 25.4436 41.3594 26.6823C41.3594 27.921 42.3635 28.9252 43.6022 28.9252Z" fill="white"/>
<path opacity="0.3" d="M31.7871 27.8111L32.9165 26.6817L31.7871 25.5524C31.7093 25.4799 31.6469 25.3925 31.6037 25.2954C31.5604 25.1983 31.5372 25.0935 31.5353 24.9872C31.5334 24.8809 31.553 24.7753 31.5928 24.6768C31.6326 24.5782 31.6918 24.4887 31.767 24.4135C31.8422 24.3383 31.9317 24.2791 32.0303 24.2393C32.1289 24.1994 32.2344 24.1799 32.3407 24.1818C32.447 24.1836 32.5518 24.2069 32.6489 24.2502C32.746 24.2934 32.8334 24.3558 32.9059 24.4336L34.0353 25.5629L35.1646 24.4336C35.3147 24.2938 35.5131 24.2176 35.7182 24.2213C35.9233 24.2249 36.119 24.308 36.264 24.453C36.409 24.598 36.4921 24.7937 36.4957 24.9988C36.4994 25.2038 36.4232 25.4023 36.2834 25.5524L35.1541 26.6817L36.2834 27.8111C36.4232 27.9612 36.4994 28.1596 36.4957 28.3647C36.4921 28.5698 36.409 28.7655 36.264 28.9105C36.119 29.0555 35.9233 29.1386 35.7182 29.1422C35.5131 29.1458 35.3147 29.0697 35.1646 28.9299L34.0353 27.8005L32.9059 28.9299C32.7558 29.0697 32.5574 29.1458 32.3523 29.1422C32.1472 29.1386 31.9515 29.0555 31.8065 28.9105C31.6615 28.7655 31.5784 28.5698 31.5748 28.3647C31.5712 28.1596 31.6473 27.9612 31.7871 27.8111Z" fill="white"/>
</svg>
