<svg width="24" height="21" viewBox="0 0 24 21" fill="none" xmlns="http://www.w3.org/2000/svg">
<path fill-rule="evenodd" clip-rule="evenodd" d="M12.25 7.25488C11.285 7.25488 10.5 7.92489 10.5 8.74939C10.5 9.57303 11.285 10.2422 12.25 10.2422C13.215 10.2422 14 9.57303 14 8.74939C14 7.92489 13.215 7.25488 12.25 7.25488ZM12.25 11.5225C10.458 11.5225 9 10.2789 9 8.74939C9 7.21904 10.458 5.97461 12.25 5.97461C14.042 5.97461 15.5 7.21904 15.5 8.74939C15.5 10.2789 14.042 11.5225 12.25 11.5225Z" fill="white"/>
<mask id="mask0_37_44196" style="mask-type:luminance" maskUnits="userSpaceOnUse" x="4" y="1" width="17" height="18">
<path fill-rule="evenodd" clip-rule="evenodd" d="M4 1.70703H20.4995V18.3506H4V1.70703Z" fill="white"/>
</mask>
<g mask="url(#mask0_37_44196)">
<path fill-rule="evenodd" clip-rule="evenodd" d="M12.25 2.9873C8.528 2.9873 5.5 5.5965 5.5 8.80231C5.5 12.8813 11.124 16.8552 12.25 17.0669C13.376 16.8544 19 12.8804 19 8.80231C19 5.5965 15.972 2.9873 12.25 2.9873ZM12.25 18.3506C10.456 18.3506 4 13.6119 4 8.80231C4 4.88979 7.701 1.70703 12.25 1.70703C16.799 1.70703 20.5 4.88979 20.5 8.80231C20.5 13.6119 14.044 18.3506 12.25 18.3506Z" fill="white"/>
</g>
</svg>
