<svg width="17" height="17" viewBox="0 0 17 17" fill="none" xmlns="http://www.w3.org/2000/svg">
<path d="M7.30986 1.82746C7.30986 1.98896 7.17386 2.12496 7.01236 2.12496H6.05188C4.21592 2.12496 2.71995 3.62093 2.71995 5.45689V13.3022C2.71995 13.4637 2.58395 13.5997 2.42245 13.5997H1.82746C0.815984 13.5997 0 12.7838 0 11.7723V1.82746C0 0.815984 0.815984 0 1.82746 0H5.48239C6.49387 0 7.30986 0.815984 7.30986 1.82746Z" fill="#CAC3AA"/>
<path d="M16.9997 1.82746V11.7723C16.9997 12.7838 16.1837 13.5997 15.1722 13.5997H14.6367C14.4752 13.5997 14.3392 13.4637 14.3392 13.3022V5.45689C14.3392 3.62093 12.8432 2.12496 11.0073 2.12496H9.98731C9.82581 2.12496 9.68981 1.98896 9.68981 1.82746C9.68981 0.815984 10.5058 0 11.5173 0H15.1722C16.1837 0 16.9997 0.815984 16.9997 1.82746Z" fill="#CAC3AA"/>
<path d="M11.0066 3.3996H6.05122C4.91224 3.3996 3.99426 4.31758 3.99426 5.45656V14.9424C3.99426 16.0814 4.91224 16.9993 6.05122 16.9993H7.43669C7.67469 16.9993 7.86168 16.8123 7.86168 16.5743V14.4494C7.86168 14.1009 8.15068 13.8119 8.49917 13.8119C8.84766 13.8119 9.13666 14.1009 9.13666 14.4494V16.5743C9.13666 16.8123 9.32365 16.9993 9.56165 16.9993H11.0151C12.1456 16.9993 13.0636 16.0814 13.0636 14.9509V5.45656C13.0636 4.31758 12.1456 3.3996 11.0066 3.3996ZM10.1991 10.837H6.7992C6.45071 10.837 6.16172 10.548 6.16172 10.1995C6.16172 9.85098 6.45071 9.56198 6.7992 9.56198H10.1991C10.5476 9.56198 10.8366 9.85098 10.8366 10.1995C10.8366 10.548 10.5476 10.837 10.1991 10.837ZM10.1991 8.28701H6.7992C6.45071 8.28701 6.16172 7.99801 6.16172 7.64952C6.16172 7.30103 6.45071 7.01203 6.7992 7.01203H10.1991C10.5476 7.01203 10.8366 7.30103 10.8366 7.64952C10.8366 7.99801 10.5476 8.28701 10.1991 8.28701Z" fill="#CAC3AA"/>
</svg>
