<svg width="30" height="30" viewBox="0 0 30 30" fill="none" xmlns="http://www.w3.org/2000/svg">
<g clip-path="url(#clip0_52_52580)">
<path d="M22.3964 1.27408L8.33393 9.49596C7.14079 10.1518 6.23595 11.2299 5.79709 12.5188C5.35823 13.8076 5.41707 15.2139 5.96206 16.4616C6.82291 18.5178 8.29586 20.2591 10.1808 21.4491C12.2668 22.8931 14.708 23.7393 17.2402 23.896C21.0558 24.1303 24.2902 22.1897 24.8246 19.0303L27.4496 3.51471C27.8433 1.18033 24.7871 -0.113418 22.3964 1.27408Z" fill="#853E96"/>
<path d="M18.261 29.5884C19.7482 27.5011 17.262 23.1785 12.7079 19.9337C8.15372 16.6888 3.25624 15.7505 1.76902 17.8378C0.2818 19.9251 2.76803 24.2476 7.32217 27.4925C11.8763 30.7373 16.7738 31.6757 18.261 29.5884Z" fill="#853E96"/>
<path d="M21.5063 2.69123L8.86881 10.06C7.80031 10.6513 6.99036 11.6194 6.59691 12.7755C6.20346 13.9316 6.25472 15.1928 6.74069 16.3131C7.50736 18.1501 8.81541 19.7099 10.4907 20.785C12.3768 22.0889 14.5858 22.848 16.8751 22.9787C20.2969 23.1944 23.2032 21.4506 23.6813 18.6194L26.0344 4.6881C26.3907 2.60685 23.6438 1.44435 21.5063 2.69123Z" fill="#581F66"/>
<path d="M18.0415 28.3923C19.2012 26.7646 16.764 23.0387 12.5978 20.0703C8.43161 17.1019 4.1141 16.015 2.95437 17.6427C1.79464 19.2703 4.23186 22.9962 8.39805 25.9647C12.5642 28.9331 16.8818 30.02 18.0415 28.3923Z" fill="#581F66"/>
<path d="M17.1474 27.7555C17.9015 26.6971 15.5354 23.7177 11.8626 21.1008C8.18979 18.4839 4.60103 17.2205 3.84691 18.2789C3.09278 19.3373 5.45886 22.3167 9.13169 24.9336C12.8045 27.5505 16.3933 28.8139 17.1474 27.7555Z" fill="#A94DBC"/>
<path d="M13.5746 22.8385L9.0184 19.9603C7.87082 19.1213 6.47323 18.6951 5.05277 18.751C4.30277 18.8728 4.64965 19.8666 5.65277 20.5416L14.6059 26.5228C15.8996 27.3947 17.259 27.4041 16.9684 26.5228C16.2543 24.9673 15.0664 23.6777 13.5746 22.8385Z" fill="#A94DBC"/>
<path d="M14.0717 23.916L7.51855 19.7254L10.0498 15.291L17.4467 19.5754L14.0717 23.916Z" fill="#581F66"/>
<path d="M20.9717 3.90963L10.3685 10.4721C9.47217 11.0045 8.79254 11.8363 8.44951 12.8208C8.10648 13.8053 8.12208 14.8793 8.49354 15.8534C9.09193 17.3941 10.1615 18.7064 11.5498 19.6034C13.0773 20.6734 14.8801 21.2819 16.7435 21.3565C19.556 21.469 22.0123 19.9315 22.4623 17.5034L24.6842 5.5315C25.0217 3.75025 22.7623 2.81275 20.9717 3.90963Z" fill="#A94DBC"/>
<path d="M13.91 24.2949C14.4028 23.6033 13.346 22.0052 11.5496 20.7252C9.75328 19.4453 7.89761 18.9684 7.40487 19.6599C6.91214 20.3515 7.96893 21.9497 9.76528 23.2296C11.5616 24.5095 13.4173 24.9865 13.91 24.2949Z" fill="#581F66"/>
<path d="M11.8691 20.1461C11.8691 20.1461 16.6973 22.1148 18.9191 17.7461C21.141 13.3773 23.7191 3.44922 23.7191 3.44922L24.9941 3.74922L24.7223 10.893L22.5004 20.6242C22.5004 20.6242 17.2879 25.443 11.8691 20.1461Z" fill="#581F66"/>
<path d="M11.25 26.5781C11.25 26.5781 13.6219 27.9844 15 27.1031C16.3781 26.2219 15 23.4375 15 23.4375C15 23.4375 17.5406 26.0719 17.8125 26.9063C18.0844 27.7406 16.65 30.3094 11.25 26.5781Z" fill="#581F66"/>
<path d="M10.0309 12.5154L20.6903 4.84669C20.8041 4.7709 20.9379 4.73047 21.0747 4.73047C21.2114 4.73047 21.3452 4.7709 21.459 4.84669C21.5463 4.89962 21.621 4.97093 21.678 5.05565C21.7349 5.14037 21.7727 5.23647 21.7888 5.33728C21.8049 5.43809 21.7988 5.54119 21.771 5.63941C21.7432 5.73764 21.6943 5.82863 21.6278 5.90606L12.8809 15.8436C12.7203 16.0314 12.5194 16.1806 12.293 16.28C12.0667 16.3793 11.8209 16.4262 11.5739 16.4172C11.3269 16.4082 11.0851 16.3435 10.8666 16.2279C10.6482 16.1123 10.4586 15.9489 10.3122 15.7498C9.94526 15.3016 9.72213 14.7531 9.67195 14.1761C9.62178 13.599 9.74688 13.0202 10.0309 12.5154Z" fill="#E08CF5"/>
<path d="M7.92153 22.9411C7.92153 22.9411 6.04653 20.1286 6.98403 19.3599C6.98403 19.3599 5.8309 18.2724 4.8559 18.6099C3.8809 18.9474 7.92153 22.9411 7.92153 22.9411Z" fill="#E08CF5"/>
<path d="M22.8747 24.4603C23.7393 24.5102 24.5783 24.7723 25.3174 25.2237C26.0565 25.675 26.673 26.3015 27.1122 27.0478C27.2141 27.2136 27.2814 27.3982 27.3101 27.5906C27.3388 27.783 27.3283 27.9793 27.2792 28.1675C27.2302 28.3558 27.1436 28.5322 27.0247 28.6861C26.9058 28.8401 26.757 28.9685 26.5872 29.0635C25.3838 29.715 24.0369 30.0561 22.6685 30.0561C21.3 30.0561 19.9532 29.715 18.7497 29.0635C18.3966 28.8427 18.144 28.4924 18.0458 28.0877C17.9477 27.6829 18.0119 27.2558 18.2247 26.8978C18.723 26.1155 19.4186 25.4783 20.2415 25.0504C21.0645 24.6224 21.9856 24.4189 22.9122 24.4603H22.8747Z" fill="#425763"/>
<path d="M22.8375 25.031C23.5624 25.0636 24.2694 25.2665 24.9014 25.6232C25.5333 25.9799 26.0724 26.4804 26.475 27.0841C26.5678 27.2165 26.6303 27.3678 26.6579 27.5271C26.6854 27.6864 26.6774 27.8499 26.6344 28.0058C26.5914 28.1617 26.5145 28.3061 26.4091 28.4288C26.3038 28.5515 26.1726 28.6493 26.025 28.7154C24.9535 29.2172 23.7813 29.4671 22.5983 29.446C21.4153 29.4248 20.2529 29.1332 19.2 28.5935C19.0589 28.52 18.9353 28.417 18.8376 28.2915C18.7399 28.1659 18.6705 28.0208 18.634 27.8659C18.5975 27.7111 18.5948 27.5502 18.6262 27.3943C18.6575 27.2383 18.7221 27.091 18.8156 26.9622C19.2644 26.332 19.8646 25.8248 20.5609 25.4873C21.2572 25.1498 22.0271 24.9929 22.8 25.031H22.8375Z" fill="#A2B6BA"/>
<path d="M22.8283 25.1152C23.4171 25.1418 23.9913 25.3067 24.5044 25.5966C25.0175 25.8866 25.455 26.2933 25.7815 26.784C25.8519 26.8943 25.8985 27.0181 25.9182 27.1476C25.9379 27.277 25.9303 27.4091 25.8959 27.5354C25.8614 27.6616 25.8009 27.7793 25.7183 27.8808C25.6356 27.9823 25.5326 28.0653 25.4158 28.1246C24.5443 28.5324 23.5909 28.7351 22.6289 28.7173C21.6668 28.6994 20.7216 28.4614 19.8658 28.0215C19.7556 27.958 19.6595 27.8727 19.5833 27.7708C19.5071 27.669 19.4524 27.5527 19.4226 27.429C19.3928 27.3053 19.3884 27.1769 19.4098 27.0515C19.4313 26.9261 19.4779 26.8064 19.5471 26.6996C19.9119 26.1856 20.4003 25.7719 20.9672 25.4966C21.5342 25.2214 22.1614 25.0934 22.7908 25.1246L22.8283 25.1152Z" fill="#87999B"/>
<path d="M22.4627 27.7594C25.8178 27.7594 28.5377 25.0395 28.5377 21.6844C28.5377 18.3292 25.8178 15.6094 22.4627 15.6094C19.1076 15.6094 16.3877 18.3292 16.3877 21.6844C16.3877 25.0395 19.1076 27.7594 22.4627 27.7594Z" fill="#425763"/>
<path d="M22.4625 26.8879C25.4448 26.8879 27.8625 24.4702 27.8625 21.4879C27.8625 18.5056 25.4448 16.0879 22.4625 16.0879C19.4802 16.0879 17.0625 18.5056 17.0625 21.4879C17.0625 24.4702 19.4802 26.8879 22.4625 26.8879Z" fill="#A2B6BA"/>
<path d="M22.6779 26.0258C25.4324 26.0258 27.6654 23.7928 27.6654 21.0383C27.6654 18.2838 25.4324 16.0508 22.6779 16.0508C19.9234 16.0508 17.6904 18.2838 17.6904 21.0383C17.6904 23.7928 19.9234 26.0258 22.6779 26.0258Z" fill="#CBDEE4"/>
<path d="M25.4158 20.6148C26.0268 20.6148 26.5221 20.1196 26.5221 19.5086C26.5221 18.8976 26.0268 18.4023 25.4158 18.4023C24.8049 18.4023 24.3096 18.8976 24.3096 19.5086C24.3096 20.1196 24.8049 20.6148 25.4158 20.6148Z" fill="#425763"/>
<path d="M25.4625 20.1086C25.8301 20.1086 26.1281 19.8106 26.1281 19.443C26.1281 19.0754 25.8301 18.7773 25.4625 18.7773C25.0949 18.7773 24.7969 19.0754 24.7969 19.443C24.7969 19.8106 25.0949 20.1086 25.4625 20.1086Z" fill="#4ED154"/>
<path d="M21.459 19.0781C21.544 18.527 21.742 17.9994 22.0404 17.5283C22.3389 17.0573 22.7314 16.6529 23.1934 16.3406C23.3809 16.2281 23.3527 16.1062 23.1277 16.0781H22.8371C22.6121 16.0781 20.9621 16.1531 20.3809 19.1625L21.459 19.0781Z" fill="#A2B6BA"/>
<path d="M24.225 22.143C24.225 20.2479 22.7895 18.7117 21.0187 18.7117C19.248 18.7117 17.8125 20.2479 17.8125 22.143C17.8125 24.038 19.248 25.5742 21.0187 25.5742C22.7895 25.5742 24.225 24.038 24.225 22.143Z" fill="#425763"/>
<path d="M23.6181 22.0937C23.6234 20.6492 22.5322 19.4741 21.1809 19.4692C19.8295 19.4642 18.7297 20.6312 18.7244 22.0758C18.7191 23.5204 19.8103 24.6954 21.1617 24.7004C22.5131 24.7053 23.6129 23.5383 23.6181 22.0937Z" fill="#3587C4"/>
<path d="M23.2154 21.9884C23.2198 20.7872 22.3125 19.81 21.189 19.8059C20.0654 19.8018 19.151 20.7722 19.1466 21.9735C19.1422 23.1747 20.0495 24.1518 21.173 24.1559C22.2966 24.16 23.211 23.1896 23.2154 21.9884Z" fill="#4DA3EC"/>
<path d="M22.3261 20.9853C22.3273 20.6694 22.0596 20.4124 21.7282 20.4112C21.3968 20.41 21.1273 20.665 21.1261 20.9809C21.125 21.2967 21.3927 21.5537 21.724 21.5549C22.0554 21.5561 22.325 21.3011 22.3261 20.9853Z" fill="white"/>
<path d="M22.5935 17.5119C22.8383 17.2469 23.1015 16.9994 23.381 16.7713C23.4346 16.7294 23.4974 16.7007 23.5642 16.6877C23.631 16.6746 23.7 16.6776 23.7654 16.6963C24.2982 16.856 24.8086 17.0829 25.2842 17.3713C25.362 17.4206 25.4215 17.494 25.4536 17.5804C25.4858 17.6667 25.4888 17.7611 25.4623 17.8493C25.4357 17.9375 25.381 18.0146 25.3065 18.0688C25.232 18.123 25.1419 18.1513 25.0498 18.1494C24.3526 18.1051 23.6529 18.1239 22.9592 18.2057C22.8751 18.2147 22.7903 18.1983 22.7158 18.1586C22.6412 18.1189 22.5802 18.0577 22.5408 17.9829C22.5015 17.9082 22.4854 17.8233 22.4948 17.7393C22.5042 17.6554 22.5386 17.5761 22.5935 17.5119Z" fill="#E1F0F4"/>
</g>
<defs>
<clipPath id="clip0_52_52580">
<rect width="30" height="30" fill="white"/>
</clipPath>
</defs>
</svg>
