<svg width="20" height="20" viewBox="0 0 20 20" fill="none" xmlns="http://www.w3.org/2000/svg">
<path d="M16.0703 10.8047C16.1877 10.9232 16.2535 11.0832 16.2535 11.25C16.2535 11.4168 16.1877 11.5768 16.0703 11.6953C15.9508 11.8108 15.7912 11.8754 15.625 11.8754C15.4588 11.8754 15.2992 11.8108 15.1797 11.6953L10.625 7.13281V17.5C10.625 17.6658 10.5592 17.8247 10.4419 17.9419C10.3247 18.0592 10.1658 18.125 10 18.125C9.83424 18.125 9.67527 18.0592 9.55806 17.9419C9.44085 17.8247 9.375 17.6658 9.375 17.5V7.13281L4.82031 11.6953C4.69888 11.795 4.54471 11.8459 4.38781 11.8382C4.2309 11.8305 4.08247 11.7647 3.97138 11.6536C3.8603 11.5425 3.7945 11.3941 3.7868 11.2372C3.77909 11.0803 3.83002 10.9261 3.92969 10.8047L9.55469 5.17969C9.67318 5.06232 9.83322 4.99648 10 4.99648C10.1668 4.99648 10.3268 5.06232 10.4453 5.17969L16.0703 10.8047ZM16.875 2.5H3.125C2.95924 2.5 2.80027 2.56585 2.68306 2.68306C2.56585 2.80027 2.5 2.95924 2.5 3.125C2.5 3.29076 2.56585 3.44973 2.68306 3.56694C2.80027 3.68415 2.95924 3.75 3.125 3.75H16.875C17.0408 3.75 17.1997 3.68415 17.3169 3.56694C17.4342 3.44973 17.5 3.29076 17.5 3.125C17.5 2.95924 17.4342 2.80027 17.3169 2.68306C17.1997 2.56585 17.0408 2.5 16.875 2.5Z" fill="#6E9CF7"/>
</svg>
