<svg width="14" height="13" viewBox="0 0 14 13" fill="none" xmlns="http://www.w3.org/2000/svg">
<path d="M6.50914 6.01871e-06C3.77592 -0.00369832 1.33238 1.70284 0.394757 4.2702C-0.542863 6.83756 0.225771 9.71721 2.31808 11.4758C4.41038 13.2344 7.37933 13.4963 9.74714 12.131L9.36514 11.472C8.49719 11.9745 7.51203 12.239 6.50914 12.239C3.9171 12.2355 1.6501 10.4927 0.980452 7.98861C0.310802 5.48457 1.40523 2.84278 3.6495 1.54591C5.89378 0.249039 8.72913 0.619971 10.5643 2.45053C12.3994 4.28108 12.7774 7.1155 11.4861 9.36301V8.43001H10.7241V10.715H13.0091V9.95301H12.0181C13.2745 7.94934 13.3434 5.42141 12.1981 3.35226C11.0529 1.2831 8.8741 -0.000730258 6.50914 6.01871e-06Z" fill="#636363"/>
<path fill-rule="evenodd" clip-rule="evenodd" d="M2.29419 6.50016C2.29419 4.17228 4.18131 2.28516 6.50919 2.28516C8.83184 2.29773 10.7116 4.1775 10.7242 6.50016C10.7242 8.82804 8.83707 10.7152 6.50919 10.7152C4.18131 10.7152 2.29419 8.82804 2.29419 6.50016ZM6.12819 6.88516H9.17519L9.17919 6.11916H6.89419V3.80816H6.12819V6.88516Z" fill="#636363"/>
</svg>
