<svg width="120" height="24" viewBox="0 0 120 24" fill="none" xmlns="http://www.w3.org/2000/svg">
<path d="M13.7299 3.51063L15.4899 7.03063C15.7299 7.52063 16.3699 7.99062 16.9099 8.08063L20.0999 8.61062C22.1399 8.95062 22.6199 10.4306 21.1499 11.8906L18.6699 14.3706C18.2499 14.7906 18.0199 15.6006 18.1499 16.1806L18.8599 19.2506C19.4199 21.6806 18.1299 22.6206 15.9799 21.3506L12.9899 19.5806C12.4499 19.2606 11.5599 19.2606 11.0099 19.5806L8.01991 21.3506C5.87991 22.6206 4.57991 21.6706 5.13991 19.2506L5.84991 16.1806C5.97991 15.6006 5.74991 14.7906 5.32991 14.3706L2.84991 11.8906C1.38991 10.4306 1.85991 8.95062 3.89991 8.61062L7.08991 8.08063C7.61991 7.99062 8.25991 7.52063 8.49991 7.03063L10.2599 3.51063C11.2199 1.60063 12.7799 1.60063 13.7299 3.51063Z" fill="#F2C94C"/>
<path d="M45.7299 3.51063L47.4899 7.03063C47.7299 7.52063 48.3699 7.99062 48.9099 8.08063L52.0999 8.61062C54.1399 8.95062 54.6199 10.4306 53.1499 11.8906L50.6699 14.3706C50.2499 14.7906 50.0199 15.6006 50.1499 16.1806L50.8599 19.2506C51.4199 21.6806 50.1299 22.6206 47.9799 21.3506L44.9899 19.5806C44.4499 19.2606 43.5599 19.2606 43.0099 19.5806L40.0199 21.3506C37.8799 22.6206 36.5799 21.6706 37.1399 19.2506L37.8499 16.1806C37.9799 15.6006 37.7499 14.7906 37.3299 14.3706L34.8499 11.8906C33.3899 10.4306 33.8599 8.95062 35.8999 8.61062L39.0899 8.08063C39.6199 7.99062 40.2599 7.52063 40.4999 7.03063L42.2599 3.51063C43.2199 1.60063 44.7799 1.60063 45.7299 3.51063Z" fill="#F2C94C"/>
<path d="M77.7299 3.51063L79.4899 7.03063C79.7299 7.52063 80.3699 7.99062 80.9099 8.08063L84.0999 8.61062C86.1399 8.95062 86.6199 10.4306 85.1499 11.8906L82.6699 14.3706C82.2499 14.7906 82.0199 15.6006 82.1499 16.1806L82.8599 19.2506C83.4199 21.6806 82.1299 22.6206 79.9799 21.3506L76.9899 19.5806C76.4499 19.2606 75.5599 19.2606 75.0099 19.5806L72.0199 21.3506C69.8799 22.6206 68.5799 21.6706 69.1399 19.2506L69.8499 16.1806C69.9799 15.6006 69.7499 14.7906 69.3299 14.3706L66.8499 11.8906C65.3899 10.4306 65.8599 8.95062 67.8999 8.61062L71.0899 8.08063C71.6199 7.99062 72.2599 7.52063 72.4999 7.03063L74.2599 3.51063C75.2199 1.60063 76.7799 1.60063 77.7299 3.51063Z" fill="#F2C94C"/>
<path d="M109.73 3.51063L111.49 7.03063C111.73 7.52063 112.37 7.99062 112.91 8.08063L116.1 8.61062C118.14 8.95062 118.62 10.4306 117.15 11.8906L114.67 14.3706C114.25 14.7906 114.02 15.6006 114.15 16.1806L114.86 19.2506C115.42 21.6806 114.13 22.6206 111.98 21.3506L108.99 19.5806C108.45 19.2606 107.56 19.2606 107.01 19.5806L104.02 21.3506C101.88 22.6206 100.58 21.6706 101.14 19.2506L101.85 16.1806C101.98 15.6006 101.75 14.7906 101.33 14.3706L98.8499 11.8906C97.3899 10.4306 97.8599 8.95062 99.8999 8.61062L103.09 8.08063C103.62 7.99062 104.26 7.52063 104.5 7.03063L106.26 3.51063C107.22 1.60063 108.78 1.60063 109.73 3.51063Z" fill="#F2C94C"/>
</svg>
