<svg width="2" height="24" viewBox="0 0 2 24" fill="none" xmlns="http://www.w3.org/2000/svg">
<mask id="path-1-inside-1_4_8620" fill="white">
<ellipse cx="0.483975" cy="12" rx="0.483975" ry="12"/>
</mask>
<ellipse cx="0.483975" cy="12" rx="0.483975" ry="12" fill="white"/>
<path d="M-0.032049 12C-0.032049 15.3047 -0.0861027 18.2906 -0.17299 20.445C-0.216542 21.5249 -0.267825 22.3821 -0.323124 22.9621C-0.351259 23.2571 -0.37797 23.453 -0.399612 23.5628C-0.411969 23.6255 -0.414062 23.6146 -0.395933 23.569C-0.388935 23.5513 -0.35411 23.4629 -0.273648 23.3618C-0.206619 23.2775 0.0419364 23 0.483975 23V25C0.94272 25 1.20788 24.712 1.29141 24.607C1.38837 24.4851 1.43958 24.3657 1.46285 24.3071C1.51352 24.1796 1.54349 24.0467 1.56264 23.9496C1.60401 23.7397 1.63808 23.4641 1.66785 23.1519C1.72835 22.5174 1.78136 21.6173 1.82539 20.5256C1.91366 18.3368 1.96795 15.3227 1.96795 12H-0.032049ZM0.483975 23C0.926015 23 1.17457 23.2775 1.2416 23.3618C1.32206 23.4629 1.35689 23.5513 1.36388 23.569C1.38201 23.6146 1.37992 23.6255 1.36756 23.5628C1.34592 23.453 1.31921 23.2571 1.29107 22.9621C1.23578 22.3821 1.18449 21.5249 1.14094 20.445C1.05405 18.2906 1 15.3047 1 12H-1C-1 15.3227 -0.945712 18.3368 -0.857435 20.5256C-0.813405 21.6173 -0.760399 22.5174 -0.699894 23.1519C-0.670127 23.4641 -0.636057 23.7397 -0.594688 23.9496C-0.575539 24.0467 -0.545569 24.1796 -0.4949 24.3071C-0.471633 24.3657 -0.420419 24.4851 -0.323459 24.607C-0.239932 24.712 0.0252306 25 0.483975 25V23ZM1 12C1 8.69528 1.05405 5.70935 1.14094 3.55502C1.18449 2.47515 1.23578 1.61788 1.29107 1.03794C1.31921 0.742888 1.34592 0.546978 1.36756 0.437171C1.37992 0.374474 1.38201 0.385399 1.36388 0.431049C1.35689 0.448669 1.32206 0.537101 1.2416 0.638229C1.17457 0.722474 0.926015 1 0.483975 1V-1C0.0252306 -1 -0.239932 -0.711981 -0.323459 -0.607C-0.420419 -0.485137 -0.471633 -0.365728 -0.4949 -0.30714C-0.545569 -0.179553 -0.575539 -0.0467303 -0.594688 0.0504234C-0.636057 0.260318 -0.670127 0.535918 -0.699894 0.848096C-0.760399 1.48263 -0.813405 2.38272 -0.857435 3.47442C-0.945712 5.66323 -1 8.6773 -1 12H1ZM0.483975 1C0.0419364 1 -0.206619 0.722474 -0.273648 0.638229C-0.35411 0.537101 -0.388935 0.448669 -0.395933 0.431049C-0.414062 0.385399 -0.411969 0.374474 -0.399612 0.437171C-0.37797 0.546978 -0.351259 0.742888 -0.323124 1.03794C-0.267825 1.61788 -0.216542 2.47515 -0.17299 3.55502C-0.0861027 5.70935 -0.032049 8.69528 -0.032049 12H1.96795C1.96795 8.6773 1.91366 5.66323 1.82539 3.47442C1.78136 2.38272 1.72835 1.48263 1.66785 0.848096C1.63808 0.535918 1.60401 0.260318 1.56264 0.0504234C1.54349 -0.0467303 1.51352 -0.179553 1.46285 -0.30714C1.43958 -0.365728 1.38837 -0.485137 1.29141 -0.607C1.20788 -0.711981 0.94272 -1 0.483975 -1V1Z" fill="#393D46" mask="url(#path-1-inside-1_4_8620)"/>
<mask id="path-3-inside-2_4_8620" fill="white">
<ellipse cx="1.08894" cy="12" rx="0.483975" ry="12"/>
</mask>
<ellipse cx="1.08894" cy="12" rx="0.483975" ry="12" fill="white"/>
<path d="M-2.42708 12C-2.42708 15.2778 -2.48079 18.2215 -2.56559 20.3241C-2.60842 21.3862 -2.65712 22.1792 -2.70461 22.6773C-2.7303 22.9467 -2.74597 23.023 -2.73802 22.9827C-2.73424 22.9635 -2.72391 22.9129 -2.70489 22.8409C-2.68815 22.7774 -2.64948 22.6388 -2.57914 22.4617C-2.52675 22.3297 -2.36286 21.9295 -2.01627 21.4939C-1.72341 21.1258 -0.704275 20 1.08894 20V28C2.89886 28 3.9346 26.8637 4.24396 26.4748C4.60705 26.0185 4.78733 25.5873 4.85599 25.4144C5.00986 25.027 5.08164 24.6785 5.11098 24.5297C5.18194 24.1697 5.22705 23.7745 5.25926 23.4367C5.32758 22.7202 5.38317 21.7559 5.42791 20.6465C5.51828 18.406 5.57292 15.3497 5.57292 12H-2.42708ZM1.08894 20C2.88216 20 3.90129 21.1258 4.19415 21.4939C4.54075 21.9295 4.70463 22.3297 4.75702 22.4617C4.82736 22.6388 4.86603 22.7774 4.88278 22.8409C4.90179 22.9129 4.91212 22.9635 4.9159 22.9827C4.92385 23.023 4.90818 22.9467 4.88249 22.6773C4.835 22.1792 4.78631 21.3862 4.74347 20.3241C4.65867 18.2215 4.60497 15.2778 4.60497 12H-3.39503C-3.39503 15.3497 -3.3404 18.406 -3.25003 20.6465C-3.20529 21.7559 -3.1497 22.7202 -3.08138 23.4367C-3.04917 23.7745 -3.00406 24.1697 -2.9331 24.5297C-2.90376 24.6785 -2.83198 25.027 -2.67811 25.4144C-2.60945 25.5873 -2.42917 26.0185 -2.06608 26.4748C-1.75672 26.8637 -0.72098 28 1.08894 28V20ZM4.60497 12C4.60497 8.72225 4.65867 5.77854 4.74347 3.67591C4.78631 2.61379 4.835 1.82075 4.88249 1.32271C4.90818 1.05334 4.92385 0.976966 4.9159 1.01729C4.91212 1.03651 4.90179 1.08709 4.88278 1.15912C4.86603 1.22255 4.82736 1.36123 4.75702 1.53833C4.70463 1.67026 4.54075 2.07046 4.19415 2.50607C3.90129 2.87416 2.88216 4 1.08894 4V-4C-0.72098 -4 -1.75672 -2.86366 -2.06608 -2.47484C-2.42917 -2.01849 -2.60945 -1.58732 -2.67811 -1.41442C-2.83198 -1.02698 -2.90376 -0.678537 -2.9331 -0.529699C-3.00406 -0.16967 -3.04917 0.225464 -3.08138 0.563326C-3.1497 1.27975 -3.20529 2.24408 -3.25003 3.35352C-3.3404 5.59404 -3.39503 8.65034 -3.39503 12H4.60497ZM1.08894 4C-0.704275 4 -1.72341 2.87416 -2.01627 2.50607C-2.36286 2.07046 -2.52675 1.67026 -2.57914 1.53833C-2.64948 1.36123 -2.68815 1.22255 -2.70489 1.15912C-2.72391 1.08709 -2.73424 1.03651 -2.73802 1.01729C-2.74597 0.976966 -2.7303 1.05334 -2.70461 1.32271C-2.65712 1.82075 -2.60842 2.61379 -2.56559 3.67591C-2.48079 5.77854 -2.42708 8.72225 -2.42708 12H5.57292C5.57292 8.65034 5.51828 5.59404 5.42791 3.35352C5.38317 2.24408 5.32758 1.27975 5.25926 0.563326C5.22705 0.225464 5.18194 -0.16967 5.11098 -0.529699C5.08164 -0.678537 5.00986 -1.02698 4.85599 -1.41442C4.78733 -1.58732 4.60705 -2.01849 4.24396 -2.47484C3.9346 -2.86366 2.89886 -4 1.08894 -4V4Z" fill="#393D46" mask="url(#path-3-inside-2_4_8620)"/>
</svg>
