<svg width="30" height="30" viewBox="0 0 30 30" fill="none" xmlns="http://www.w3.org/2000/svg">
<g clip-path="url(#clip0_52_41126)">
<path d="M7.59399 22.9694C8.15649 27.2819 19.3127 23.8132 17.344 25.5944C14.6252 28.1257 11.2502 29.7194 11.2502 29.7194C10.8752 29.9069 9.37524 29.0632 8.25024 27.9382C6.84399 26.5319 5.53149 25.0319 5.81274 24.6569C5.81274 24.6569 7.50024 22.5944 7.59399 22.9694Z" fill="#72143F"/>
<path d="M14.0625 15.1875C14.0625 15.1875 10.4062 15.4688 8.8125 13.2188C8.4375 12.5625 7.78125 11.9062 7.78125 11.1562C7.875 10.875 7.96875 10.5 7.875 10.0312C7.6875 8.8125 6.09375 8.15625 5.0625 8.0625C4.3125 8.15625 3.75 8.625 3.65625 9.28125C3.5625 9.375 3.5625 9.5625 3.5625 9.84375V10.3125C3.9375 12.9375 5.0625 17.25 8.4375 20.1562C14.625 25.2188 14.0625 15.1875 14.0625 15.1875Z" fill="#962050"/>
<path d="M12.4688 16.125C12.4688 16.125 9.1875 15.5625 7.5 13.9688C7.125 13.5938 6.75 12.2813 6.75 11.8125C6.84375 11.625 6.84375 11.3438 6.84375 11.0625C6.75 10.3125 6.09375 9.5625 5.34375 9.5625C4.875 9.5625 4.5 9.84375 4.40625 10.3125C4.3125 10.4063 4.3125 10.5 4.40625 10.6875V11.0625C4.6875 12.8438 5.71875 17.7188 10.9687 21C15.5625 23.7188 12.4688 16.125 12.4688 16.125Z" fill="#DB529D"/>
<path d="M6.9375 23.4377C6.9375 23.4377 11.3438 18.7502 12.6562 7.594C13.0312 4.0315 17.4375 -0.562251 22.3125 1.68775C27.5625 4.12525 28.5 11.8127 26.1562 15.094C21 22.4065 15.8438 28.6877 11.625 28.219L6.9375 23.4377Z" fill="#72143F"/>
<path d="M7.21875 24.5622C7.21875 24.5622 12.4688 18.7497 13.7812 7.49971C14.1562 4.78096 17.8125 0.937205 21.5625 2.62471C25.5 4.49971 26.8125 11.0622 25.0312 13.6872C21.1875 19.5935 14.25 28.8747 11.0625 28.4997L7.21875 24.5622Z" fill="#F45BA7"/>
<path d="M7.87456 23.8129C10.0308 27.5629 13.4058 27.6567 13.4058 27.6567L11.0621 28.7817C10.7808 28.9692 9.37456 28.3129 8.43706 27.3754C7.31206 26.2504 6.65581 25.2192 6.84331 24.8442C6.93706 24.8442 7.68706 23.5317 7.87456 23.8129Z" fill="#D6D6D6"/>
<path d="M21.0937 10.4072C21.0937 10.4072 22.4062 5.43843 23.8124 6.18843C25.3124 6.93843 26.6249 10.5009 25.4999 13.1259C24.3749 15.6572 15.9374 27.1884 12.4687 28.0322C12.4687 28.0322 11.8124 27.7509 13.5937 25.6884C15.5624 23.4384 20.9062 14.1572 21.0937 10.4072Z" fill="#D15298"/>
<path d="M23.9998 15.4687C23.9998 15.4687 20.7186 14.625 20.4373 15.1875C20.1561 15.75 21.1873 16.7812 21.2811 17.4375C21.2811 18 20.6248 19.6875 20.6248 19.6875L23.9998 15.4687ZM19.6873 20.9062C19.6873 20.9062 14.3436 16.5937 18.6561 22.0312L19.6873 20.9062ZM18.0936 22.5938C18.0936 22.5938 12.8436 18.375 17.1561 23.7187L18.0936 22.5938ZM16.5936 24.2812C16.5936 24.2812 11.5311 20.1562 15.7498 25.3125L16.5936 24.2812ZM15.0936 25.875C15.0936 25.875 10.1248 21.8438 14.2498 26.9062L15.0936 25.875Z" fill="#C44B8E"/>
<path d="M6.65644 11.438C6.75019 12.188 6.37519 12.6567 5.90644 12.6567C5.34394 12.6567 4.87519 12.0005 4.78144 11.3442C4.68769 10.5942 4.96894 10.0317 5.53144 10.1255C6.00019 10.1255 6.56269 10.688 6.65644 11.438Z" fill="#F45BA7"/>
<path d="M23.4796 9.29342C24.1527 8.12762 23.2081 6.32209 21.3697 5.26067C19.5313 4.19925 17.4954 4.28387 16.8223 5.44967C16.1492 6.61548 17.0938 8.421 18.9322 9.48242C20.7706 10.5438 22.8065 10.4592 23.4796 9.29342Z" fill="#FF7BCA"/>
<path d="M24.3296 10.0885C25.5463 7.98107 24.4608 5.07643 21.905 3.6008C19.3492 2.12516 16.291 2.63732 15.0742 4.74473C13.8575 6.85215 14.943 9.75679 17.4988 11.2324C20.0546 12.7081 23.1128 12.1959 24.3296 10.0885Z" fill="#FF7BCA"/>
<path d="M23.0014 7.38597C23.3379 6.80307 22.484 5.67994 21.094 4.87741C19.704 4.07487 18.3043 3.89682 17.9678 4.47972C17.6312 5.06262 18.4852 6.18574 19.8752 6.98828C21.2652 7.79082 22.6648 7.96887 23.0014 7.38597Z" fill="#FFAEE2"/>
<path d="M5.53125 14.8125C5.53125 14.8125 6.9375 17.0625 9.1875 17.625L8.71875 19.2188C8.71875 19.2188 6.1875 16.7812 5.53125 14.8125Z" fill="#C44B8E"/>
<path d="M10.4998 27.8438L11.6248 27.375L13.2186 27.8438L11.1561 28.875C11.1561 28.875 9.46856 28.5938 10.4998 27.8438Z" fill="#AFA1A7"/>
<path d="M4.6875 14.3438C4.6875 14.3438 7.40625 19.125 9.84375 19.875L9.09375 20.8125C9.09375 20.8125 5.625 18.6562 4.6875 14.3438Z" fill="#72143F"/>
<path d="M8.24961 18.0937L10.1246 15.4688L10.7809 15.6563C10.7809 15.6563 9.65586 19.0312 9.18711 19.6875C9.28086 19.6875 7.59337 19.125 8.24961 18.0937Z" fill="#C44B8E"/>
</g>
<defs>
<clipPath id="clip0_52_41126">
<rect width="30" height="30" fill="white"/>
</clipPath>
</defs>
</svg>
