<svg width="13" height="13" viewBox="0 0 13 13" fill="none" xmlns="http://www.w3.org/2000/svg">
<mask id="mask0_0_89" style="mask-type:luminance" maskUnits="userSpaceOnUse" x="-2" y="-2" width="17" height="17">
<rect x="-1.3" y="-1.3" width="15.6" height="15.6" fill="white"/>
</mask>
<g mask="url(#mask0_0_89)">
<circle cx="4.875" cy="4.875" r="0.975" fill="#8F9198"/>
<circle cx="8.125" cy="4.875" r="0.975" fill="#8F9198"/>
<path fill-rule="evenodd" clip-rule="evenodd" d="M6.5 0C2.9159 0 0 2.33285 0 5.2C0 7.0902 1.23305 8.78475 3.25 9.7071V13L6.721 10.3974C10.2031 10.3038 13 8.008 13 5.2C13 2.33285 10.0841 0 6.5 0ZM6.5 9.1H6.28355L4.55 10.4V8.82895L4.13335 8.6684C2.38615 7.99565 1.3 6.6664 1.3 5.2C1.3 3.04915 3.63285 1.3 6.5 1.3C9.36715 1.3 11.7 3.04915 11.7 5.2C11.7 7.35085 9.36715 9.1 6.5 9.1Z" fill="#8F9198"/>
</g>
</svg>
