<svg width="20" height="20" viewBox="0 0 20 20" fill="none" xmlns="http://www.w3.org/2000/svg">
<path d="M9.78566 7.17949C9.36514 7.17949 9.01643 6.83077 9.01643 6.41026V0.769231C9.01643 0.348718 9.36514 0 9.78566 0C10.2062 0 10.5549 0.348718 10.5549 0.769231V6.41026C10.5549 6.83077 10.2062 7.17949 9.78566 7.17949Z" fill="#7A7976"/>
<path d="M9.78566 20C9.36514 20 9.01643 19.6513 9.01643 19.2308V13.5897C9.01643 13.1692 9.36514 12.8205 9.78566 12.8205C10.2062 12.8205 10.5549 13.1692 10.5549 13.5897V19.2308C10.5549 19.6513 10.2062 20 9.78566 20Z" fill="#7A7976"/>
<path d="M11.8369 1.53846H7.73438C7.31386 1.53846 6.96514 1.18974 6.96514 0.769231C6.96514 0.348718 7.31386 0 7.73438 0H11.8369C12.2575 0 12.6062 0.348718 12.6062 0.769231C12.6062 1.18974 12.2575 1.53846 11.8369 1.53846Z" fill="#7A7976"/>
<path d="M11.8369 20H7.73438C7.31386 20 6.96514 19.6513 6.96514 19.2308C6.96514 18.8103 7.31386 18.4615 7.73438 18.4615H11.8369C12.2575 18.4615 12.6062 18.8103 12.6062 19.2308C12.6062 19.6513 12.2575 20 11.8369 20Z" fill="#7A7976"/>
<path d="M6.6781 8.97453C6.54477 8.97453 6.41143 8.94376 6.29861 8.87196L1.41656 6.05145C1.04733 5.83606 0.924252 5.36428 1.13964 5.00531C1.35502 4.63607 1.82682 4.51299 2.18579 4.72838L7.06784 7.54889C7.43707 7.76428 7.56015 8.23607 7.34476 8.59505C7.20118 8.8412 6.94476 8.97453 6.6781 8.97453Z" fill="#7A7976"/>
<path d="M17.7759 15.3848C17.6425 15.3848 17.5092 15.354 17.3964 15.2822L12.5143 12.4617C12.1451 12.2463 12.022 11.7745 12.2374 11.4156C12.4528 11.0463 12.9246 10.9232 13.2835 11.1386L18.1656 13.9591C18.5348 14.1745 18.6579 14.6463 18.4425 15.0053C18.2989 15.2515 18.0425 15.3848 17.7759 15.3848Z" fill="#7A7976"/>
<path d="M0.770406 7.92789C0.637073 7.92789 0.503739 7.89713 0.390919 7.82534C0.021688 7.60995 -0.101389 7.13815 0.113996 6.77918L2.16528 3.23045C2.38066 2.86122 2.85246 2.73816 3.21143 2.95354C3.58066 3.16893 3.70374 3.64071 3.48835 3.99968L1.43707 7.54841C1.29348 7.79456 1.02682 7.92789 0.770406 7.92789Z" fill="#7A7976"/>
<path d="M16.75 17.1587C16.6166 17.1587 16.4833 17.1279 16.3705 17.0561C16.0013 16.8407 15.8782 16.3689 16.0936 16.0099L18.1448 12.4612C18.3602 12.092 18.832 11.9689 19.191 12.1843C19.5602 12.3997 19.6833 12.8715 19.4679 13.2305L17.4166 16.7792C17.2833 17.0253 17.0166 17.1587 16.75 17.1587Z" fill="#7A7976"/>
<path d="M9.78566 14.3587C8.23694 14.3587 6.79078 13.528 6.0113 12.1844C5.62155 11.5075 5.42668 10.7793 5.42668 9.99977C5.42668 9.22028 5.62155 8.49208 6.0113 7.82541C6.79078 6.48182 8.23694 5.65104 9.78566 5.65104C11.3344 5.65104 12.7805 6.48182 13.56 7.82541C13.9498 8.50233 14.1446 9.23053 14.1446 10.01C14.1446 10.7895 13.9498 11.5177 13.56 12.1844C12.7805 13.528 11.3344 14.3587 9.78566 14.3587ZM9.78566 7.17925C8.78053 7.17925 7.8472 7.72285 7.34463 8.59464C7.09848 9.02541 6.96514 9.50746 6.96514 9.99977C6.96514 10.4921 7.08822 10.9741 7.34463 11.4152C7.8472 12.2869 8.78053 12.8305 9.78566 12.8305C10.7908 12.8305 11.7241 12.2869 12.2267 11.4152C12.4728 10.9844 12.6062 10.5023 12.6062 10.01C12.6062 9.51771 12.4831 9.03567 12.2267 8.59464C11.7241 7.72285 10.7908 7.17925 9.78566 7.17925Z" fill="#7A7976"/>
<path d="M12.8938 8.97452C12.6271 8.97452 12.3707 8.84118 12.2271 8.58477C12.0117 8.21554 12.1451 7.74376 12.5041 7.53863L17.3861 4.71812C17.7553 4.50273 18.2271 4.63606 18.4323 4.99503C18.6476 5.36426 18.5143 5.83606 18.1553 6.04119L13.2733 8.8617C13.1605 8.94375 13.0271 8.97452 12.8938 8.97452Z" fill="#7A7976"/>
<path d="M1.79604 15.3848C1.52937 15.3848 1.27296 15.2514 1.12937 14.995C0.913989 14.6258 1.04732 14.154 1.4063 13.9489L6.28835 11.1284C6.65758 10.913 7.12937 11.0463 7.3345 11.4053C7.54989 11.7745 7.41655 12.2463 7.05758 12.4514L2.17553 15.272C2.06271 15.354 1.92937 15.3848 1.79604 15.3848Z" fill="#7A7976"/>
<path d="M18.8012 7.92789C18.5346 7.92789 18.2782 7.79457 18.1346 7.53816L16.0833 3.98943C15.8679 3.6202 16.0012 3.1484 16.3602 2.94327C16.7295 2.72789 17.2012 2.86123 17.4064 3.2202L19.4577 6.76893C19.673 7.13816 19.5397 7.60994 19.1807 7.81507C19.0679 7.89712 18.9346 7.92789 18.8012 7.92789Z" fill="#7A7976"/>
<path d="M2.82168 17.1587C2.55501 17.1587 2.2986 17.0253 2.15501 16.7689L0.103732 13.2202C-0.111652 12.851 0.0216809 12.3792 0.380655 12.174C0.749886 11.9587 1.22168 12.092 1.42681 12.451L3.47809 15.9997C3.69348 16.3689 3.56014 16.8407 3.20117 17.0458C3.07809 17.1279 2.94476 17.1587 2.82168 17.1587Z" fill="#7A7976"/>
</svg>
