<svg width="30" height="30" viewBox="0 0 30 30" fill="none" xmlns="http://www.w3.org/2000/svg">
<g clip-path="url(#clip0_52_52937)">
<path d="M21.5809 17.859C23.9522 17.859 25.8746 15.9366 25.8746 13.5652C25.8746 11.1939 23.9522 9.27148 21.5809 9.27148C19.2095 9.27148 17.2871 11.1939 17.2871 13.5652C17.2871 15.9366 19.2095 17.859 21.5809 17.859Z" fill="#493426"/>
<path d="M17.2873 5.625L17.3998 5.71875C17.9717 6.28125 20.5873 9.15938 20.3342 14.8969C20.3342 14.8969 20.5779 16.65 22.9592 16.65C22.8459 15.9584 22.9072 15.2495 23.1373 14.5875C23.5217 13.7812 24.4311 9.3375 23.3811 7.02187C22.6898 5.62649 21.6619 4.42526 20.3902 3.52667C19.1184 2.62808 17.6428 2.06044 16.0967 1.875" fill="#302119"/>
<path d="M5.62485 26.6899C3.47797 25.4243 2.39985 22.3587 3.5436 19.3493C4.34645 17.8251 5.36297 16.4234 6.56235 15.1868C8.43735 13.6399 16.4998 12.4962 22.7998 17.4837C24.0492 18.546 24.88 20.0181 25.1436 21.6368C25.1391 21.6742 25.1391 21.7119 25.1436 21.7493C25.978 26.3618 24.5623 30.0649 20.7655 30.0649C16.3686 30.0649 9.37485 28.893 5.62485 26.6899Z" fill="#692A2A"/>
<path d="M6.41297 25.5743C5.39896 24.9171 4.65291 23.9195 4.30917 22.761C3.96542 21.6026 4.04656 20.3595 4.53797 19.2556C5.25601 17.9423 6.15547 16.7367 7.20985 15.6743C8.90672 14.3431 16.0411 13.3587 21.638 17.6525C22.7372 18.5539 23.4731 19.8226 23.7098 21.2243V21.3275C24.4505 25.2931 23.1942 28.4806 19.8286 28.4806C15.938 28.4806 9.73172 27.4681 6.41297 25.5743Z" fill="#BD4F53"/>
<path d="M5.90596 23.2878C3.97471 22.3503 4.64033 20.2128 5.70908 17.8972C6.13258 17.1361 6.73814 16.4919 7.47158 16.0222C9.20596 14.869 16.0872 13.819 21.731 17.5784C22.788 18.2913 23.5326 19.3813 23.8122 20.6253V20.7097C24.5528 24.1503 22.0028 27.2065 18.9372 26.7472C15.0466 26.194 9.24346 24.8909 5.90596 23.2878Z" fill="#E8A77B"/>
<path d="M5.71918 23.287C4.05981 22.3495 5.78481 21.3276 6.70356 19.012C7.35821 17.9513 8.17789 17.0019 9.13168 16.1995C10.6317 15.037 14.3536 13.7995 19.2286 17.5589C20.1768 18.3318 20.8157 19.4198 21.0286 20.6245V20.7089C21.6661 24.1495 19.9598 26.7558 17.2786 26.3339C13.9504 25.7433 8.60668 24.8901 5.71918 23.287Z" fill="#FFDEC2"/>
<path d="M18.0004 17.3723C18.0004 17.3723 18.7973 21.591 16.2754 22.8941C16.2754 22.8941 22.6691 22.6785 24.366 21.6941C24.366 21.6941 24.9098 18.141 19.9785 16.5098L18.0004 17.3723Z" fill="#BD4F53"/>
<path d="M7.73437 15.9375C6.88693 16.6424 6.17253 17.4933 5.625 18.45L6.83437 19.1625L7.03125 21.0375C6.94864 20.2227 7.11271 19.4018 7.5022 18.6813C7.89168 17.9609 8.48862 17.374 9.21562 16.9969L7.73437 15.9375Z" fill="#BD4F53"/>
<path d="M5.6252 19.8281C5.6252 19.8281 10.3783 24.3469 24.1971 21.7031C24.1971 21.7031 23.2596 24.4594 22.5846 26.0063C19.0553 26.4977 15.4635 26.281 12.019 25.3687C6.31895 23.9625 3.8252 25.3125 5.6252 19.8281Z" fill="#8E4028"/>
<path d="M4.56517 19.5464C4.65892 19.1432 4.84642 20.287 5.19329 20.4839C6.48704 21.3557 9.31829 23.062 16.5558 23.812C18.2339 23.9901 21.2433 22.6964 24.1214 21.9932C24.1704 22.4838 24.1546 22.9787 24.0745 23.4651C23.887 24.4402 23.3722 25.3221 22.6152 25.9648C21.8583 26.6075 20.9047 26.9725 19.912 26.9995C17.2072 27.0463 14.5083 26.731 11.887 26.062C6.50579 24.8057 3.38392 24.2245 4.56517 19.5464Z" fill="#E08484"/>
<path d="M8.52148 25.6219C9.34706 25.4338 10.0959 24.9989 10.6684 24.375C10.6684 24.375 10.9871 26.1375 12.2059 26.55C12.1871 26.5219 8.87773 25.7906 8.52148 25.6219Z" fill="#BD4F53"/>
<path d="M14.8408 23.7463C14.8408 23.7463 20.0158 23.0994 19.4064 18.0088C19.7959 17.779 20.2453 17.6714 20.6965 17.6998C21.1478 17.7282 21.5802 17.8913 21.9377 18.1681C23.0533 19.1619 24.7502 20.2213 24.0471 23.3525C24.0471 23.3525 15.5533 25.4056 14.8408 23.7463Z" fill="#E08484"/>
<path d="M7.41523 21.9187C7.41523 21.9187 6.54336 19.5094 7.22773 18.2531C7.66278 17.4699 8.26057 16.789 8.98086 16.2563L8.04336 15.5156C8.04336 15.5156 4.92148 17.7656 4.44336 20.2031L7.41523 21.9187Z" fill="#E08484"/>
<path d="M19.491 25.2C19.6653 25.9367 19.6653 26.7039 19.491 27.4406H21.0754C20.8145 25.9868 20.2138 24.6151 19.3223 23.4375L19.491 25.2Z" fill="#BD4F53"/>
<path d="M5.45625 22.0964C5.34787 22.7206 5.3799 23.3611 5.55 23.9714L4.21875 24.0933C4.30044 23.3449 4.4899 22.6123 4.78125 21.9182C4.80698 21.835 4.8631 21.7645 4.93845 21.7207C5.01379 21.677 5.10284 21.6632 5.1879 21.6821C5.27295 21.701 5.34778 21.7512 5.3975 21.8228C5.44722 21.8943 5.46819 21.9819 5.45625 22.0683V22.0964Z" fill="#BD4F53"/>
<path d="M11.8314 23.9147C11.8314 23.9147 16.3596 23.0615 18.4877 24.4209C18.4877 24.4209 19.0408 25.4053 18.4877 25.6209C17.9346 25.8365 13.9502 23.9709 11.9252 24.5522C11.9158 24.5522 11.4658 24.1022 11.8314 23.9147Z" fill="#F4ABAB"/>
<path d="M5.75662 21.918C5.75662 21.918 9.06599 22.0211 10.3504 23.3148C10.3504 23.3148 10.5847 24.093 10.1816 24.1586C9.77849 24.2242 7.24724 22.2836 5.71912 22.3773C5.71912 22.3773 5.47537 21.993 5.75662 21.918Z" fill="#F4ABAB"/>
<path d="M9.8252 3.04682C9.8252 3.04682 13.6783 1.07807 16.9033 2.4187C16.9033 2.4187 17.8408 3.6562 15.4783 3.8812C13.1158 4.1062 13.1252 2.81245 9.8252 3.04682Z" fill="white"/>
<path d="M23.069 10.4569C23.0863 5.72458 19.2683 1.8742 14.5411 1.85688C9.81389 1.83955 5.9677 5.66184 5.95035 10.3942C5.93301 15.1266 9.75108 18.9769 14.4783 18.9943C19.2054 19.0116 23.0516 15.1893 23.069 10.4569Z" fill="#8E4028"/>
<path d="M22.6837 9.84447C22.7005 5.25708 18.9995 1.52466 14.4173 1.50787C9.83507 1.49107 6.10683 5.19627 6.09001 9.78365C6.0732 14.371 9.77418 18.1035 14.3564 18.1203C18.9386 18.137 22.6668 14.4319 22.6837 9.84447Z" fill="#E8A77B"/>
<path d="M22.5828 9.60753C22.5989 5.20654 19.1492 1.62614 14.8777 1.61049C10.6061 1.59483 7.1303 5.14985 7.11417 9.55083C7.09804 13.9518 10.5477 17.5322 14.8193 17.5479C19.0908 17.5635 22.5667 14.0085 22.5828 9.60753Z" fill="#E8BD89"/>
<path d="M18.3466 10.6917C18.3584 7.4816 15.8453 4.87003 12.7336 4.85862C9.62183 4.84721 7.08971 7.4403 7.07794 10.6504C7.06618 13.8606 9.57922 16.4721 12.691 16.4835C15.8027 16.4949 18.3349 13.9019 18.3466 10.6917Z" fill="#FFDEC2"/>
<path d="M6.65645 9.12109C6.65645 9.12109 6.9377 7.87422 9.76895 7.87422C12.6002 7.87422 16.5846 8.19297 18.3377 6.37422L17.6908 5.79297C16.2823 6.44569 14.7428 6.76642 13.1908 6.73047C10.3783 6.73047 6.75957 7.43359 6.55332 7.72422C6.34707 8.01484 6.65645 9.12109 6.65645 9.12109Z" fill="#E8A77B"/>
<path d="M15.3816 11.3131C15.3835 10.8108 15.0408 10.4024 14.6162 10.4009C14.1917 10.3993 13.846 10.8052 13.8442 11.3074C13.8423 11.8097 14.185 12.2181 14.6096 12.2196C15.0341 12.2212 15.3798 11.8153 15.3816 11.3131Z" fill="#8E4028"/>
<path d="M14.9317 10.9819C14.9322 10.8525 14.8444 10.7472 14.7357 10.7468C14.627 10.7464 14.5384 10.851 14.538 10.9805C14.5375 11.1099 14.6253 11.2152 14.734 11.2156C14.8427 11.216 14.9312 11.1114 14.9317 10.9819Z" fill="white"/>
<path d="M9.15215 10.2779C9.15399 9.77568 8.8113 9.36728 8.38674 9.36572C7.96217 9.36416 7.6165 9.77004 7.61466 10.2723C7.61282 10.7745 7.95551 11.1829 8.38007 11.1845C8.80464 11.186 9.15031 10.7801 9.15215 10.2779Z" fill="#8E4028"/>
<path d="M8.7032 9.95652C8.70367 9.82708 8.61592 9.72183 8.50719 9.72143C8.39846 9.72103 8.30993 9.82564 8.30945 9.95508C8.30898 10.0845 8.39674 10.1898 8.50547 10.1902C8.6142 10.1906 8.70273 10.086 8.7032 9.95652Z" fill="white"/>
<path d="M19.2841 3.97452C18.7966 4.93242 18.0254 5.71655 17.0757 6.2199C16.1261 6.72325 15.0442 6.9213 13.9778 6.78702C10.031 6.47765 7.19971 7.16202 6.04659 8.7839C6.04659 8.7839 5.85909 2.62452 11.6716 1.67765C17.4841 0.730772 19.2841 3.0839 19.2841 3.97452Z" fill="#493426"/>
<path d="M16.7902 5.18359C16.8311 5.21061 16.8688 5.24205 16.9027 5.27734C17.4746 5.83984 20.0902 8.71797 19.8371 14.4555C19.8371 14.4555 20.0809 16.2086 22.4621 16.2086C22.3489 15.517 22.4101 14.808 22.6402 14.1461C23.0246 13.3398 23.934 8.89609 22.884 6.58047C22.1928 5.18509 21.1649 3.98386 19.8931 3.08527C18.6213 2.18668 17.1457 1.61903 15.5996 1.43359" fill="#493426"/>
<path d="M19.6309 11.3346C19.6309 11.3346 20.5684 10.7534 20.9996 11.1846C21.7215 11.9534 21.1121 13.1534 19.6777 13.3503L19.6309 11.3346Z" fill="#E8BD89"/>
<path d="M17.4936 6.72266C18.6053 8.04164 19.3433 9.63433 19.6311 11.3352C19.6311 11.3352 19.4342 7.58516 17.6904 6.25391L17.4561 6.64766" fill="#E8A77B"/>
<path d="M20.2969 13.125C20.2969 13.125 20.0344 15.1219 21.3094 15.9375C21.0843 15.9711 20.8543 15.9396 20.6466 15.8465C20.4389 15.7535 20.2623 15.6029 20.1375 15.4125C19.7996 14.7404 19.6598 13.9861 19.7344 13.2375L20.2969 13.125Z" fill="#E8A77B"/>
<path d="M11.9623 22.5656C11.7553 22.13 11.6671 21.6473 11.7066 21.1666C11.7461 20.6859 11.912 20.2241 12.1873 19.8281C12.1873 19.8281 10.8279 19.9781 10.7998 22.5656C10.8186 22.5656 11.5123 22.9688 11.9623 22.5656Z" fill="#A85038"/>
<path d="M13.4153 14.7838C12.9345 14.7064 12.4768 14.524 12.0747 14.2494C11.9094 14.1146 11.7191 14.0138 11.5148 13.9527C11.3105 13.8916 11.0962 13.8713 10.884 13.8931C10.7715 13.8931 10.6028 13.7338 10.434 13.64C10.2653 13.5463 9.99341 13.5275 9.97466 13.64C9.95591 13.7525 10.1997 14.165 10.1997 14.165C10.2252 14.3422 10.2252 14.5222 10.1997 14.6994C10.1734 14.7999 10.1681 14.9047 10.1839 15.0073C10.1998 15.1099 10.2365 15.2082 10.2919 15.2961C10.3472 15.3839 10.42 15.4595 10.5058 15.5181C10.5915 15.5768 10.6883 15.6172 10.7903 15.6369C11.2139 15.7641 11.6688 15.7376 12.0747 15.5619C12.3372 15.4025 13.4153 14.7838 13.4153 14.7838Z" fill="#A53829"/>
<path d="M19.5186 24.1973C19.5186 24.1973 21.7967 26.1566 23.9623 25.2098C26.1279 24.2629 20.5123 27.6379 20.5123 27.6379L19.5186 24.1973Z" fill="#BD4F53"/>
<path d="M16.5092 5.24141C16.0526 5.15139 15.6278 4.94289 15.2773 4.63682C14.9268 4.33076 14.663 3.9379 14.5123 3.49766C13.9873 1.96016 13.4529 0.488281 10.8185 0.488281C8.18417 0.488281 5.03417 2.42891 6.04667 5.24141C7.05917 8.05391 16.7154 8.10078 16.5092 5.24141Z" fill="#493426"/>
<path d="M15.6093 5.38047C15.229 5.30636 14.8752 5.13286 14.5837 4.87762C14.2922 4.62238 14.0736 4.29451 13.9499 3.92734C13.5093 2.65234 13.0687 1.43359 10.8749 1.43359C8.68117 1.43359 6.06554 3.04609 6.90929 5.38047C7.75304 7.71484 15.7874 7.76172 15.6093 5.38047Z" fill="#604637"/>
<path d="M20.3438 17.6816C20.3438 17.6816 25.3687 22.4441 22.0969 26.3816C22.0969 26.3816 22.7062 27.4504 23.5687 25.9129C24.4312 24.3754 25.8563 19.3129 20.3438 17.6816Z" fill="#BD4F53"/>
<path d="M23.8966 24.4597C24.7596 24.511 25.5966 24.7739 26.334 25.2251C27.0713 25.6764 27.6863 26.3021 28.1247 27.0472C28.2283 27.212 28.2972 27.3961 28.3273 27.5884C28.3574 27.7807 28.348 27.9771 28.2998 28.1657C28.2515 28.3543 28.1654 28.5311 28.0467 28.6853C27.928 28.8395 27.7791 28.9679 27.6091 29.0628C26.3947 29.7275 25.0326 30.0758 23.6482 30.0758C22.2638 30.0758 20.9016 29.7275 19.6872 29.0628C19.3341 28.842 19.0815 28.4917 18.9833 28.087C18.8852 27.6822 18.9494 27.2552 19.1622 26.8972C19.6626 26.1168 20.3586 25.4812 21.181 25.0535C22.0035 24.6259 22.9236 24.4211 23.8497 24.4597H23.8966Z" fill="#425763"/>
<path d="M23.8589 25.031C24.5822 25.0651 25.2874 25.2686 25.9176 25.6253C26.5478 25.9819 27.0854 26.4816 27.4871 27.0841C27.5819 27.2153 27.6463 27.3661 27.6754 27.5254C27.7046 27.6847 27.6978 27.8484 27.6556 28.0048C27.6133 28.1611 27.5367 28.306 27.4314 28.429C27.326 28.5519 27.1945 28.6497 27.0464 28.7154C25.9748 29.2165 24.8027 29.466 23.6198 29.4449C22.437 29.4238 21.2746 29.1326 20.2214 28.5935C20.0803 28.52 19.9567 28.417 19.8591 28.2915C19.7614 28.1659 19.6919 28.0208 19.6555 27.8659C19.619 27.7111 19.6163 27.5502 19.6477 27.3943C19.679 27.2383 19.7436 27.091 19.8371 26.9622C20.2859 26.332 20.8861 25.8248 21.5824 25.4873C22.2786 25.1498 23.0486 24.9929 23.8214 25.031H23.8589Z" fill="#A2B6BA"/>
<path d="M23.8411 25.1152C24.4314 25.1403 25.0075 25.3046 25.5223 25.5946C26.0372 25.8845 26.4762 26.2921 26.8036 26.784C26.8741 26.8943 26.9206 27.0181 26.9403 27.1476C26.96 27.277 26.9524 27.4091 26.918 27.5354C26.8836 27.6616 26.823 27.7793 26.7404 27.8808C26.6577 27.9823 26.5547 28.0653 26.438 28.1246C25.5648 28.5325 24.6099 28.7353 23.6463 28.7174C22.6827 28.6995 21.736 28.4615 20.8786 28.0215C20.7691 27.9572 20.6739 27.8713 20.5986 27.7691C20.5233 27.6669 20.4696 27.5504 20.4407 27.4268C20.4118 27.3032 20.4082 27.175 20.4303 27.05C20.4524 26.925 20.4997 26.8058 20.5692 26.6996C20.934 26.1856 21.4224 25.7719 21.9893 25.4966C22.5563 25.2214 23.1835 25.0934 23.813 25.1246L23.8411 25.1152Z" fill="#87999B"/>
<path d="M23.4754 27.7594C26.8305 27.7594 29.5504 25.0395 29.5504 21.6844C29.5504 18.3292 26.8305 15.6094 23.4754 15.6094C20.1203 15.6094 17.4004 18.3292 17.4004 21.6844C17.4004 25.0395 20.1203 27.7594 23.4754 27.7594Z" fill="#425763"/>
<path d="M23.4752 26.8879C26.4575 26.8879 28.8752 24.4702 28.8752 21.4879C28.8752 18.5056 26.4575 16.0879 23.4752 16.0879C20.4929 16.0879 18.0752 18.5056 18.0752 21.4879C18.0752 24.4702 20.4929 26.8879 23.4752 26.8879Z" fill="#A2B6BA"/>
<path d="M23.6906 26.0258C26.4451 26.0258 28.6781 23.7928 28.6781 21.0383C28.6781 18.2838 26.4451 16.0508 23.6906 16.0508C20.9361 16.0508 18.7031 18.2838 18.7031 21.0383C18.7031 23.7928 20.9361 26.0258 23.6906 26.0258Z" fill="#CBDEE4"/>
<path d="M26.4285 20.6148C27.0395 20.6148 27.5348 20.1196 27.5348 19.5086C27.5348 18.8976 27.0395 18.4023 26.4285 18.4023C25.8176 18.4023 25.3223 18.8976 25.3223 19.5086C25.3223 20.1196 25.8176 20.6148 26.4285 20.6148Z" fill="#425763"/>
<path d="M26.4752 20.1086C26.8428 20.1086 27.1408 19.8106 27.1408 19.443C27.1408 19.0754 26.8428 18.7773 26.4752 18.7773C26.1076 18.7773 25.8096 19.0754 25.8096 19.443C25.8096 19.8106 26.1076 20.1086 26.4752 20.1086Z" fill="#4ED154"/>
<path d="M22.5004 19.0781C22.5876 18.5277 22.7864 18.0009 23.0847 17.5302C23.383 17.0594 23.7743 16.6546 24.2348 16.3406C24.4316 16.2281 24.3941 16.1062 24.1785 16.0781H23.8879C23.6535 16.0781 22.0129 16.1531 21.4316 19.1625L22.5004 19.0781Z" fill="#A2B6BA"/>
<path d="M25.2377 22.143C25.2377 20.2479 23.8022 18.7117 22.0314 18.7117C20.2607 18.7117 18.8252 20.2479 18.8252 22.143C18.8252 24.038 20.2607 25.5742 22.0314 25.5742C23.8022 25.5742 25.2377 24.038 25.2377 22.143Z" fill="#425763"/>
<path d="M24.6347 22.0937C24.64 20.6492 23.5488 19.4741 22.1975 19.4692C20.8461 19.4642 19.7463 20.6312 19.741 22.0758C19.7357 23.5204 20.8269 24.6954 22.1783 24.7004C23.5297 24.7053 24.6295 23.5383 24.6347 22.0937Z" fill="#3587C4"/>
<path d="M24.231 21.9884C24.2354 20.7872 23.3281 19.81 22.2046 19.8059C21.0811 19.8018 20.1667 20.7722 20.1623 21.9735C20.1579 23.1747 21.0651 24.1518 22.1887 24.1559C23.3122 24.16 24.2266 23.1896 24.231 21.9884Z" fill="#4DA3EC"/>
<path d="M23.3427 20.9853C23.3439 20.6694 23.0762 20.4124 22.7448 20.4112C22.4134 20.41 22.1439 20.665 22.1427 20.9809C22.1416 21.2967 22.4093 21.5537 22.7406 21.5549C23.072 21.5561 23.3416 21.3011 23.3427 20.9853Z" fill="white"/>
<path d="M23.6152 17.5119C23.8577 17.2446 24.121 16.9969 24.4027 16.7713C24.4545 16.7294 24.5156 16.7008 24.5809 16.6877C24.6462 16.6746 24.7137 16.6776 24.7777 16.6963C25.3142 16.854 25.8279 17.0809 26.3058 17.3713C26.3844 17.421 26.4444 17.4952 26.4765 17.5825C26.5085 17.6698 26.5108 17.7653 26.483 17.854C26.4552 17.9428 26.3989 18.0199 26.3227 18.0733C26.2466 18.1267 26.155 18.1535 26.062 18.1494C25.3649 18.1052 24.6652 18.124 23.9714 18.2057C23.8882 18.2126 23.8048 18.1946 23.7318 18.1541C23.6587 18.1135 23.5994 18.0522 23.5612 17.9779C23.5231 17.9036 23.5078 17.8197 23.5174 17.7367C23.527 17.6538 23.5611 17.5755 23.6152 17.5119Z" fill="#E1F0F4"/>
</g>
<defs>
<clipPath id="clip0_52_52937">
<rect width="30" height="30" fill="white"/>
</clipPath>
</defs>
</svg>
