<svg width="22" height="22" viewBox="0 0 22 22" fill="none" xmlns="http://www.w3.org/2000/svg">
<path d="M21.1734 6.88774V11.9898C21.1734 16.0714 19.1326 18.1122 15.051 18.1122H14.5408C14.2245 18.1122 13.9183 18.2653 13.7245 18.5204L12.1938 20.5612C11.5204 21.4591 10.4183 21.4591 9.74487 20.5612L8.21426 18.5204C8.051 18.2959 7.67345 18.1122 7.39794 18.1122H6.88774C2.80611 18.1122 0.765304 17.0918 0.765304 11.9898V6.88774C0.765304 2.80611 2.80611 0.765304 6.88774 0.765304H10.9694" stroke="#AEAEAE" stroke-width="1.5" stroke-miterlimit="10" stroke-linecap="round" stroke-linejoin="round"/>
<path d="M14.2349 3.43885C13.8982 2.42865 14.2961 1.18375 15.3981 0.836814C15.9696 0.663345 16.6839 0.806202 17.092 1.34702C17.4798 0.785794 18.2145 0.663345 18.7859 0.836814C19.8879 1.17355 20.2859 2.42865 19.9492 3.43885C19.4287 5.04088 17.6022 5.86741 17.092 5.86741C16.5818 5.86741 14.7757 5.05109 14.2349 3.43885Z" stroke="#AEAEAE" stroke-width="1.5" stroke-linecap="round" stroke-linejoin="round"/>
<path d="M15.0474 9.94895H15.0565" stroke="#AEAEAE" stroke-width="2" stroke-linecap="round" stroke-linejoin="round"/>
<path d="M10.9647 9.94895H10.9739" stroke="#AEAEAE" stroke-width="2" stroke-linecap="round" stroke-linejoin="round"/>
<path d="M6.88213 9.94895H6.8913" stroke="#AEAEAE" stroke-width="2" stroke-linecap="round" stroke-linejoin="round"/>
</svg>
