<svg width="25" height="20" viewBox="0 0 25 20" fill="none" xmlns="http://www.w3.org/2000/svg">
<path d="M24.9992 2.26237C24.0943 2.60173 23.0762 2.94108 22.0581 3.0542C23.0762 2.48861 23.9811 1.47054 24.3205 0.339356C23.3024 0.904949 22.2844 1.35742 21.0401 1.58366C20.1351 0.678711 18.7777 0 17.3072 0C14.4792 0 12.2168 2.14925 12.2168 4.8641C12.2168 5.20346 12.2168 5.65593 12.3299 5.99529C8.03142 5.76905 4.29851 3.84603 1.8099 0.904949C1.35742 1.58366 1.13119 2.48861 1.13119 3.39356C1.13119 5.09034 2.03613 6.56088 3.39356 7.46583C2.60173 7.46583 1.8099 7.23959 1.01807 6.90024V7.01335C1.01807 9.38884 2.82796 11.425 5.09034 11.7643C4.63786 11.8775 4.18539 11.9906 3.73291 11.9906C3.39356 11.9906 3.0542 11.9906 2.71485 11.8775C3.39356 13.8005 5.31657 15.271 7.46583 15.271C5.88217 16.4022 3.6198 17.194 1.2443 17.194C0.79183 17.194 0.452474 17.194 0 17.0809C2.26237 18.4383 4.97722 19.2302 7.9183 19.2302C17.3071 19.2302 22.5106 11.7643 22.5106 5.31657V4.63786C23.5287 4.07227 24.3205 3.16732 24.9992 2.26237Z" fill="white"/>
</svg>
