<svg width="30" height="30" viewBox="0 0 30 30" fill="none" xmlns="http://www.w3.org/2000/svg">
<g clip-path="url(#clip0_52_46819)">
<path d="M15.6562 25.3125L7.78125 24.6562V22.4062L15.6562 22.875V25.3125ZM22.3125 0.65625L24.1875 0.75L26.625 1.5C27.2812 1.6875 27.6562 2.25 27.6562 3V21.9375C27.6562 22.6875 27.1875 23.25 26.5312 23.5312L24 24.375L22.5937 24.4688L22.3125 0.65625Z" fill="#09212F"/>
<path d="M17.4375 27.6562L6.46875 26.4375C6.09375 26.4375 5.71875 25.9688 5.71875 25.5V24.8437C5.71875 24.375 6.09375 24 6.46875 24L17.3438 24.8437C17.9062 24.8437 18.2812 25.3125 18.2812 25.875V26.625C18.375 27.2812 17.9062 27.6562 17.4375 27.6562Z" fill="#09212F"/>
<path d="M14.8125 25.2188L8.34375 24.75V22.4062L14.8125 22.7812V25.2188Z" fill="#19485B"/>
<path d="M24.6562 2.24945L2.15625 4.87445C1.59375 4.9682 1.21875 5.43695 1.21875 5.99945V20.6244C1.21875 21.1869 1.6875 21.6557 2.15625 21.6557L24.6562 22.8744C25.5 22.9682 26.25 22.4057 26.25 21.6557V3.2807C26.25 2.62445 25.5938 2.06195 24.6562 2.24945Z" fill="#2A4B5C"/>
<path d="M22.3125 0.65667L1.125 3.56292C0.65625 3.65667 0.1875 4.21917 0.1875 4.87542V21.6567C0.1875 22.3129 0.5625 22.8754 1.125 22.8754L22.3125 24.4692C23.1562 24.5629 23.8125 23.9067 23.8125 23.0629V1.96917C23.8125 1.12542 23.1562 0.56292 22.3125 0.65667Z" fill="#09212F"/>
<path d="M22.4062 1.59421L1.875 4.12546C1.3125 4.21921 0.9375 4.78171 0.9375 5.34421V21.188C0.9375 21.7505 1.3125 22.313 1.875 22.313L22.4062 23.6255C23.1562 23.7192 23.8125 23.063 23.8125 22.313V2.81296C23.8125 2.06296 23.1562 1.50046 22.4062 1.59421Z" fill="#3383AB"/>
<path d="M20.9062 3.28125L2.8125 5.34375C2.4375 5.34375 2.15625 5.71875 2.15625 6.1875V20.3438C2.15625 20.8125 2.4375 21.0938 2.8125 21.1875L21 22.0312C21.5625 22.0312 21.9375 21.6562 21.9375 21.0938V4.21875C21.9375 3.65625 21.4688 3.28125 20.9062 3.28125Z" fill="url(#paint0_linear_52_46819)"/>
<path d="M6.84375 6.65625V19.6875L17.4375 12.75L6.84375 6.65625Z" fill="#FAFDFF"/>
<path d="M6.46875 24.4688V25.5937L17.0625 26.5312V25.4063L6.46875 24.4688Z" fill="#3383AB"/>
<mask id="mask0_52_46819" style="mask-type:luminance" maskUnits="userSpaceOnUse" x="2" y="3" width="20" height="20">
<path d="M20.9062 3.28125L2.8125 5.34375C2.4375 5.34375 2.15625 5.71875 2.15625 6.1875V20.3438C2.15625 20.8125 2.4375 21.0938 2.8125 21.1875L21 22.0312C21.5625 22.0312 21.9375 21.6562 21.9375 21.0938V4.21875C21.9375 3.65625 21.4688 3.28125 20.9062 3.28125Z" fill="white"/>
</mask>
<g mask="url(#mask0_52_46819)">
<path d="M4.68702 25.7802C3.46827 25.0302 2.81202 23.3427 3.46827 21.5614C3.65577 20.9989 4.87452 19.4052 5.15577 19.0302C6.28077 18.0927 11.2495 17.0614 15.2808 19.8739C16.0308 20.4364 16.5933 21.2802 16.8745 22.4052V22.4989C17.437 25.4052 16.4995 27.6552 13.9683 27.6552C11.2495 27.7489 6.93702 26.9989 4.68702 25.7802Z" fill="#913A3A"/>
<path d="M3.75018 9.75C3.75018 9.75 1.96893 14.1562 4.21893 15.75L4.59393 12.5625L3.75018 9.75ZM20.2502 12.5625C20.2502 14.0625 19.0314 15.2812 17.6252 15.375C16.2189 15.4688 15.0002 14.4375 15.0002 13.0312C15.0002 11.625 16.1252 10.3125 17.5314 10.2188C19.1252 10.0312 20.2502 11.0625 20.2502 12.5625Z" fill="#8E4028"/>
<path d="M18.1879 8.24947C17.2504 6.37447 14.813 4.49947 11.813 4.40572C10.8755 4.31197 9.6567 4.40572 8.06295 4.87447C2.3442 6.65572 3.56295 12.4682 3.56295 12.4682C4.50045 10.9682 6.4692 9.84322 9.93795 9.65572C11.438 9.56197 12.4692 9.09322 13.2192 8.43697C14.1567 9.56197 15.3754 11.812 15.2817 15.7495C15.2817 15.7495 15.4692 17.3432 17.813 17.1557C17.813 17.1557 17.6255 16.0307 18.0005 15.187C18.2817 14.5307 19.2192 10.312 18.1879 8.24947Z" fill="#8E4028"/>
<path d="M19.7812 13.1236C19.7812 14.5299 18.6562 15.7486 17.25 15.8424C15.8437 15.9361 14.8125 14.9049 14.8125 13.5924C14.8125 12.2799 15.9375 11.0611 17.25 10.8736C18.6562 10.7799 19.7812 11.7174 19.7812 13.1236Z" fill="#E8A554"/>
<path d="M21.2813 17.9979C21.2813 20.4354 19.5 22.4042 17.3438 22.4979C15.1875 22.5917 13.5 20.8104 13.5 18.4667C13.5 16.2167 15.1875 14.1542 17.25 13.9667C19.5 13.7792 21.2813 15.5604 21.2813 17.9979Z" fill="#E8A554"/>
<path d="M7.96875 17.9051C7.96875 19.5926 6.75 21.0926 5.15625 21.1864C3.65625 21.2801 2.4375 19.9676 2.4375 18.2801C2.4375 16.5926 3.65625 15.1864 5.15625 14.9989C6.75 14.9051 7.96875 16.2176 7.96875 17.9051Z" fill="#8E4028"/>
<path d="M20.9062 17.8106C20.9062 19.9668 19.125 21.8418 16.9688 21.9356C14.8125 22.0293 13.2188 20.4356 13.2188 18.2793C13.2188 16.2168 14.9062 14.3418 16.9688 14.1543C19.125 14.0606 20.9062 15.6543 20.9062 17.8106Z" fill="#FFEFAB"/>
<path d="M19.4062 12.6548C19.4062 14.0611 18.2812 15.2798 16.875 15.3736C15.5625 15.4673 14.4375 14.4361 14.4375 13.1236C14.4375 11.8111 15.5625 10.5923 16.875 10.4048C18.1875 10.2173 19.4062 11.2486 19.4062 12.6548ZM8.25 17.7173C8.25 19.2173 7.125 20.4361 5.8125 20.5298C4.5 20.6236 3.375 19.4986 3.375 18.0923C3.375 16.6861 4.40625 15.4673 5.71875 15.2798C7.125 15.1861 8.25 16.2173 8.25 17.7173Z" fill="#FFEFAB"/>
<path d="M4.78077 24.937C3.56202 24.187 2.90577 22.4995 3.56202 20.7183C3.74952 20.1558 4.96827 18.4683 5.24952 18.187C6.37452 17.2495 11.3433 16.1245 15.3745 18.937C16.1245 19.4995 16.687 20.3433 16.9683 21.4683V21.562C17.5308 24.4683 16.5933 26.812 14.062 26.812C11.3433 26.9058 7.03077 26.2495 4.78077 24.937Z" fill="#BD5E8F"/>
<path d="M4.87497 23.3439C3.74997 22.7814 4.12497 21.3751 4.68747 19.8751C4.87497 19.3126 5.43747 18.8439 5.71872 18.5626C6.74997 17.7189 11.1562 16.7814 15 19.1251C15.75 19.5939 16.2187 20.3439 16.4062 21.1876V21.2814C16.9687 23.6251 15.1875 25.7814 13.0312 25.5001C10.5937 25.1251 6.93747 24.3751 4.87497 23.3439Z" fill="#E8A554"/>
<path d="M4.78166 23.3439C3.75041 22.7814 4.78166 22.0314 5.34416 20.5314C5.53166 19.9689 6.56291 18.8439 6.84416 18.5626C7.78166 17.7189 10.1254 16.7814 13.4067 19.1251C13.9692 19.5939 14.4379 20.3439 14.6254 21.1876V21.2814C15.0942 23.6251 13.8754 25.4064 12.0942 25.1251C9.93791 24.8439 6.56291 24.3751 4.78166 23.3439Z" fill="#FFD097"/>
<path d="M12.5625 19.125C12.5625 19.125 13.3125 21.375 11.625 22.3125C11.625 22.3125 15.75 22.6875 16.9688 21.9375C16.9688 21.9375 17.3438 19.4063 13.9688 18.4688L12.5625 19.125ZM6 18.1875C6 18.1875 5.15625 18.8438 4.40625 20.25L5.25 20.8125L5.4375 21C5.4375 21 6 19.5938 6.9375 18.9375L6 18.1875Z" fill="#BD5E8F"/>
<path d="M4.78111 19.9688C4.78111 19.9688 5.43736 22.4062 16.7811 21.8438L15.6561 24.8438C15.6561 24.8438 12.6561 25.5 8.71861 24.5625C5.15611 23.8125 3.74986 23.5312 4.78111 19.9688Z" fill="#8E4028"/>
<path d="M4.12509 21C4.21884 20.7187 4.50009 20.625 4.68759 20.7188C5.43759 21.2813 7.59384 22.3125 12.1876 22.6875C13.3126 22.7813 14.8126 22.6875 16.7813 22.125C16.7813 22.125 16.8751 22.5938 16.7813 23.1563C16.5938 24.5625 15.2813 25.5937 13.8751 25.6875C12.2813 25.6875 10.7813 25.6875 8.62509 25.125C5.25009 24.375 3.37509 24 4.12509 21Z" fill="#E090A1"/>
<path d="M17.4375 12.2814C17.4375 16.3127 14.1563 19.7814 10.4063 19.9689C6.75 20.1564 3.9375 17.2502 3.9375 13.5002C3.9375 9.75018 6.75 6.37518 10.4063 5.81268C14.25 5.34393 17.4375 8.15643 17.4375 12.2814Z" fill="#8E4028"/>
<path d="M17.1562 11.7182C17.1562 15.6557 13.9688 19.0307 10.3125 19.2182C6.75 19.4057 4.03125 16.5932 4.03125 13.0307C4.03125 9.37446 6.75 6.09321 10.3125 5.62446C13.9688 5.06196 17.1562 7.78071 17.1562 11.7182Z" fill="#E8A554"/>
<path d="M17.0625 11.5298C17.0625 15.2798 14.1562 18.4673 10.6875 18.6548C7.40625 18.8423 4.78125 16.1235 4.78125 12.6548C4.78125 9.27977 6.5625 6.09227 10.6875 5.52977C14.1562 5.15477 17.0625 7.77977 17.0625 11.5298Z" fill="#E8BD89"/>
<path d="M13.5 12.8432C13.5 15.5619 11.4375 17.8119 9 17.9994C6.5625 18.0932 4.6875 16.1244 4.6875 13.5932C4.6875 11.0619 6.5625 8.71815 8.90625 8.4369C11.4375 8.15565 13.5 10.1244 13.5 12.8432Z" fill="#FFD097"/>
<path d="M4.40625 12.4688C4.40625 12.4688 4.59375 11.4375 6.75 11.25C8.90625 10.9688 12.0938 10.9687 13.5 9.28125L12.9375 8.90625C12.9375 8.90625 11.5313 9.84375 9.375 10.125C7.21875 10.4063 4.5 11.25 4.40625 11.5313C4.125 11.625 4.40625 12.4688 4.40625 12.4688Z" fill="#E8A554"/>
<path d="M11.0625 13.5941C11.0625 13.9691 10.7812 14.3441 10.5 14.4379C10.125 14.4379 9.9375 14.1566 9.9375 13.7816C9.9375 13.4066 10.2187 13.0316 10.5 12.9379C10.7812 12.8441 11.0625 13.1254 11.0625 13.5941Z" fill="#8E4028"/>
<path d="M10.6875 13.3125C10.6875 13.4062 10.5937 13.5 10.5 13.5C10.4062 13.5 10.3125 13.4062 10.3125 13.3125C10.3125 13.2187 10.4062 13.125 10.5 13.125C10.6875 13.125 10.6875 13.2187 10.6875 13.3125Z" fill="white"/>
<path d="M6.28125 13.2191C6.28125 13.5941 6 13.9691 5.71875 13.9691C5.4375 13.9691 5.15625 13.6879 5.15625 13.3129C5.15625 12.9379 5.4375 12.5629 5.71875 12.5629C6 12.4691 6.28125 12.7504 6.28125 13.2191Z" fill="#8E4028"/>
<path d="M5.90625 12.9375C5.90625 13.0312 5.8125 13.125 5.71875 13.125C5.71875 13.125 5.625 13.125 5.625 12.9375C5.625 12.8437 5.71875 12.75 5.8125 12.75C5.8125 12.75 5.90625 12.8437 5.90625 12.9375Z" fill="white"/>
<path d="M7.59375 21.5625C7.59375 21.5625 7.875 20.8125 8.53125 20.3438C8.53125 20.3438 8.15625 21.1875 8.15625 21.75L7.59375 21.5625Z" fill="#8E4028"/>
<path d="M10.5938 22.875C10.5938 22.875 13.875 22.9687 13.5 19.5C13.5 19.5 14.4375 18.8437 15.1875 19.5C15.9375 20.1562 17.1562 20.8125 16.6875 23.0625C16.6875 23.0625 11.0625 24 10.5938 22.875ZM5.625 21.75C5.625 21.75 5.15625 21.0938 5.53125 20.25C5.90625 19.4062 6.5625 18.8438 6.5625 18.8438L6 18.375C6 18.375 4.40625 19.4062 4.125 21.0937L5.625 21.75Z" fill="#E090A1"/>
<path d="M8.53093 23.3438C8.53093 23.3438 11.4372 22.6875 12.8434 23.5313C12.8434 23.5313 13.2184 24.1875 12.8434 24.375C12.4684 24.5625 9.84342 23.3437 8.53093 23.7187C8.62468 23.7187 8.34343 23.4375 8.53093 23.3438ZM4.78092 21.9375C4.78092 21.9375 6.84343 21.9375 7.59343 22.7812C7.59343 22.7812 7.78092 23.25 7.49967 23.3438C7.21842 23.4375 5.71842 22.2187 4.78092 22.3125C4.78092 22.2187 4.68717 22.0312 4.78092 21.9375Z" fill="#E8A2A2"/>
<path d="M14.25 7.40533C14.25 7.40533 13.125 10.1241 9.9375 10.2178C6.9375 10.3116 4.78125 11.0616 3.9375 12.4678C3.9375 12.4678 3.9375 7.12408 8.34375 5.81158C12.9375 4.31158 14.25 6.65533 14.25 7.40533Z" fill="#FFEFAB"/>
<path d="M12.1875 8.34339C12.75 8.81214 14.9062 10.9684 14.7188 15.8434C14.7188 15.8434 14.9063 17.3434 16.9688 17.1559C16.9688 17.1559 16.7812 16.1246 17.1562 15.3746C17.5312 14.6246 18.2813 10.7809 17.3438 8.90589C16.4063 7.03089 14.0625 5.24964 11.25 5.34339" fill="#FFEFAB"/>
<path d="M14.5312 13.3125C14.5312 13.3125 15.2813 12.75 15.6563 13.125C16.3125 13.6875 15.75 14.8125 14.5312 15.0938V13.3125Z" fill="#E8BD89"/>
<path d="M12.75 9.5625C12.75 9.5625 14.3437 11.25 14.5312 13.2188C14.5312 13.2188 14.3437 10.125 12.9375 9.09375L12.75 9.5625ZM15.0937 14.7188C15.0937 14.7188 14.9062 16.4063 15.9375 17.0625C15.9375 17.0625 15.375 17.25 14.9062 16.6875C14.4375 16.125 14.5312 14.9062 14.5312 14.9062L15.0937 14.7188Z" fill="#E8A554"/>
<path d="M6.75 7.31103C6.75 7.31103 9.75 5.34227 12.2813 6.09227C12.2813 6.09227 13.125 7.02977 11.1562 7.49852C9.28125 7.87352 9.28125 6.74853 6.75 7.31103ZM18.5625 15.7485C18.5625 15.7485 19.7812 17.9985 17.8125 19.686C17.5312 19.8735 17.5312 20.2485 17.625 20.5298C17.8125 20.9048 18.4688 20.9985 18.75 20.6235C19.5938 19.4985 20.7187 17.436 18.5625 15.7485ZM17.25 11.1548C17.25 11.1548 18.375 12.3735 17.5313 13.686C17.5313 13.686 17.5313 14.2485 17.9063 14.2485C18.2813 14.2485 18.75 13.9673 18.6562 13.4985C18.6562 13.0298 18.75 11.2485 17.25 11.1548Z" fill="white"/>
<path d="M9.5625 16.6873C9.5625 16.6873 8.90625 16.6873 8.34375 16.406C7.78125 16.1248 7.3125 16.2185 7.21875 16.2185C7.125 16.2185 6.9375 16.1248 6.84375 16.031C6.65625 15.9373 6.46875 16.031 6.46875 16.1248C6.46875 16.2185 6.75 16.5935 6.75 16.5935C6.75 16.5935 6.84375 16.8748 6.84375 17.0623C6.84375 17.2498 6.9375 17.7185 7.5 17.7185C8.0625 17.8123 8.4375 17.6248 8.625 17.531C8.8125 17.4373 9.5625 16.6873 9.5625 16.6873Z" fill="#BD5E8F"/>
</g>
<path d="M21.844 22.0316C22.1252 22.0316 25.3127 22.3128 27.3752 25.8753C27.9377 26.9066 27.5627 28.2191 26.5315 28.5941C24.2815 29.5316 20.2502 30.6566 15.844 27.8441C14.9065 27.2816 14.6252 25.7816 15.2815 24.8441C16.4065 23.5316 18.469 21.7503 21.844 22.0316Z" fill="#09212F"/>
<path d="M21.7499 22.7817C22.0312 22.7817 24.6562 22.9692 26.5312 25.8754C26.9999 26.6254 26.6249 27.7504 25.7812 28.0317C23.9062 28.7817 20.3437 29.5317 16.5937 27.2817C15.8437 26.8129 15.6562 25.7817 16.2187 25.0317C17.0624 23.9067 18.8437 22.5942 21.7499 22.7817Z" fill="#A2B6BA"/>
<path d="M21.7496 22.8742C21.9371 22.8742 24.1871 23.0617 25.5934 25.4054C25.9684 26.0617 25.6871 26.9054 25.0309 27.1867C23.4371 27.7492 20.5309 28.4054 17.5309 26.6242C16.8746 26.2492 16.6871 25.3117 17.1559 24.7492C17.9059 23.8117 19.4059 22.6867 21.7496 22.8742Z" fill="#87999B"/>
<path d="M21.5625 26.5312C26.1188 26.5312 29.8125 22.8376 29.8125 18.2812C29.8125 13.7249 26.1188 10.0312 21.5625 10.0312C17.0062 10.0312 13.3125 13.7249 13.3125 18.2812C13.3125 22.8376 17.0062 26.5312 21.5625 26.5312Z" fill="#09212F"/>
<path d="M21.5625 25.3125C25.6011 25.3125 28.875 22.0386 28.875 18C28.875 13.9614 25.6011 10.6875 21.5625 10.6875C17.5239 10.6875 14.25 13.9614 14.25 18C14.25 22.0386 17.5239 25.3125 21.5625 25.3125Z" fill="#A2B6BA"/>
<path d="M21.8437 24.1875C25.5717 24.1875 28.5938 21.1654 28.5938 17.4375C28.5938 13.7096 25.5717 10.6875 21.8437 10.6875C18.1158 10.6875 15.0938 13.7096 15.0938 17.4375C15.0938 21.1654 18.1158 24.1875 21.8437 24.1875Z" fill="#CBDEE4"/>
<path d="M25.6875 17.0625C26.5159 17.0625 27.1875 16.3909 27.1875 15.5625C27.1875 14.7341 26.5159 14.0625 25.6875 14.0625C24.8591 14.0625 24.1875 14.7341 24.1875 15.5625C24.1875 16.3909 24.8591 17.0625 25.6875 17.0625Z" fill="#4A6370"/>
<path d="M25.7812 16.4062C26.299 16.4062 26.7188 15.9865 26.7188 15.4688C26.7188 14.951 26.299 14.5312 25.7812 14.5312C25.2635 14.5312 24.8438 14.951 24.8438 15.4688C24.8438 15.9865 25.2635 16.4062 25.7812 16.4062Z" fill="#4ED154"/>
<path d="M20.3438 14.6252C20.3438 14.6252 20.9062 12.0002 22.875 11.0627C23.1562 10.9689 23.0625 10.7814 22.7812 10.6877H22.4062C22.125 10.6877 19.875 10.5939 18.8438 14.6252H20.3438Z" fill="#A2B6BA"/>
<path d="M23.9082 19.1805C24.0778 16.5971 22.2886 14.3763 19.9119 14.2202C17.5351 14.0642 15.4709 16.0319 15.3013 18.6153C15.1317 21.1987 16.9209 23.4195 19.2976 23.5755C21.6743 23.7316 23.7385 21.7639 23.9082 19.1805Z" fill="#4A6370"/>
<path d="M23.0068 18.8613C23.1357 16.8979 21.7742 15.21 19.9658 15.0913C18.1574 14.9725 16.587 16.4679 16.458 18.4313C16.3291 20.3947 17.6906 22.0826 19.499 22.2013C21.3073 22.3201 22.8778 20.8247 23.0068 18.8613Z" fill="#3587C4"/>
<path d="M22.4935 18.7022C22.5986 17.1005 21.4692 15.7223 19.9709 15.6239C18.4725 15.5256 17.1726 16.7442 17.0674 18.3459C16.9622 19.9477 18.0916 21.3259 19.59 21.4242C21.0884 21.5226 22.3883 20.3039 22.4935 18.7022Z" fill="#4DA3EC"/>
<path d="M21.4313 17.2528C21.4585 16.8394 21.1035 16.4796 20.6385 16.4491C20.1735 16.4185 19.7745 16.7289 19.7474 17.1422C19.7202 17.5555 20.0752 17.9154 20.5402 17.9459C21.0052 17.9764 21.4042 17.6661 21.4313 17.2528Z" fill="white"/>
<path d="M22.0311 12.6563C22.3124 12.375 22.6874 12 23.1561 11.7188C23.3436 11.625 23.5311 11.625 23.7186 11.625C24.0936 11.8125 24.8436 12.0938 25.6874 12.6563C26.1561 13.0313 25.8749 13.7813 25.3124 13.6875C24.5624 13.5938 23.5311 13.5 22.4999 13.5938C21.9374 13.5938 21.6561 12.9375 22.0311 12.6563Z" fill="#E1F0F4"/>
</g>
<defs>
<linearGradient id="paint0_linear_52_46819" x1="6.57806" y1="18.7292" x2="25.3495" y2="1.07128" gradientUnits="userSpaceOnUse">
<stop stop-color="#57BAC9"/>
<stop offset="1" stop-color="#ABEFFF"/>
</linearGradient>
<clipPath id="clip0_52_46819">
<rect width="30" height="30" fill="white"/>
</clipPath>
</defs>
</svg>
