<svg width="23" height="22" viewBox="0 0 23 22" fill="none" xmlns="http://www.w3.org/2000/svg">
<path d="M0 0L4.98124 -2.5852e-08C6.46258 -3.35399e-08 7.66345 1.20086 7.66345 2.68221L7.66345 21.0745L2.68221 21.0745C1.20086 21.0745 1.03141e-07 19.8736 9.54534e-08 18.3923L0 0Z" fill="white"/>
<path d="M15.3364 0L20.3177 -2.5852e-08C21.799 -3.35399e-08 22.9999 1.20086 22.9999 2.68221L22.9999 21.0745L18.0186 21.0745C16.5373 21.0745 15.3364 19.8736 15.3364 18.3923L15.3364 0Z" fill="white"/>
<path d="M2.26944 6.87579C1.52125 6.1276 1.52125 4.91455 2.26944 4.16636L3.93194 2.50386C4.68014 1.75566 5.89319 1.75566 6.64138 2.50385L21.2965 17.159L19.634 18.8215C18.1376 20.3179 15.7115 20.3179 14.2152 18.8215L2.26944 6.87579Z" fill="white"/>
</svg>
