<svg width="20" height="21" viewBox="0 0 20 21" fill="none" xmlns="http://www.w3.org/2000/svg">
<path d="M15.5562 5.7779C15.4861 5.76789 15.416 5.76789 15.3459 5.7779C13.7938 5.72783 12.5621 4.45609 12.5621 2.89396C12.5621 1.30178 13.8539 0 15.4561 0C17.0482 0 18.35 1.29177 18.35 2.89396C18.34 4.45609 17.1083 5.72783 15.5562 5.7779Z" fill="white" fill-opacity="0.6"/>
<path d="M18.8212 12.7178C17.6997 13.4688 16.1275 13.7492 14.6755 13.5589C15.0561 12.7378 15.2563 11.8266 15.2663 10.8653C15.2663 9.86389 15.046 8.91259 14.6255 8.08145C16.1075 7.88118 17.6796 8.16156 18.8112 8.91259C20.3934 9.95401 20.3934 11.6664 18.8212 12.7178Z" fill="white" fill-opacity="0.6"/>
<path d="M4.4521 5.7779C4.5222 5.76789 4.59229 5.76789 4.66239 5.7779C6.21451 5.72783 7.4462 4.45609 7.4462 2.89396C7.4462 1.29177 6.15443 0 4.55224 0C2.96006 0 1.6683 1.29177 1.6683 2.89396C1.6683 4.45609 2.89998 5.72783 4.4521 5.7779Z" fill="white" fill-opacity="0.6"/>
<path d="M4.56124 10.8645C4.56124 11.8358 4.77152 12.7571 5.15204 13.5882C3.74011 13.7384 2.2681 13.438 1.18662 12.727C-0.395541 11.6756 -0.395541 9.96324 1.18662 8.9118C2.25809 8.19081 3.77015 7.90042 5.1921 8.06064C4.78154 8.90179 4.56124 9.85309 4.56124 10.8645Z" fill="white" fill-opacity="0.6"/>
<path d="M10.1405 13.889C10.0604 13.879 9.97027 13.879 9.88015 13.889C8.03763 13.8289 6.56562 12.3168 6.56562 10.4543C6.57563 8.55169 8.10773 7.00958 10.0203 7.00958C11.9229 7.00958 13.465 8.55169 13.465 10.4543C13.455 12.3168 11.993 13.8289 10.1405 13.889Z" fill="white" fill-opacity="0.6"/>
<path d="M6.88606 15.9615C5.37399 16.9729 5.37399 18.6351 6.88606 19.6365C8.60841 20.7881 11.4323 20.7881 13.1546 19.6365C14.6667 18.6251 14.6667 16.9628 13.1546 15.9615C11.4423 14.8099 8.61842 14.8099 6.88606 15.9615Z" fill="white" fill-opacity="0.6"/>
</svg>
