<svg width="190" height="127" viewBox="0 0 190 127" fill="none" xmlns="http://www.w3.org/2000/svg">
<path opacity="0.3" d="M63.3359 110.375H29.3867" stroke="white" stroke-width="2.11094" stroke-miterlimit="10" stroke-linecap="round"/>
<path opacity="0.3" d="M171.522 110.375H146.17" stroke="white" stroke-width="2.11094" stroke-miterlimit="10" stroke-linecap="round"/>
<path opacity="0.3" d="M76.5553 116.328H57.293" stroke="white" stroke-width="2.11094" stroke-miterlimit="10" stroke-linecap="round"/>
<path opacity="0.4" d="M57.9258 35.8864V31.4271C57.9313 29.9927 58.5025 28.6184 59.5153 27.6026C60.5281 26.5869 61.9007 26.0117 63.3351 26.002H120.33C121.769 26.0061 123.148 26.5796 124.166 27.5971C125.183 28.6146 125.757 29.9934 125.761 31.4323V35.8864" fill="#E4E6E7"/>
<path opacity="0.3" d="M80.6872 80.4434H63.9316" stroke="white" stroke-width="2.11094" stroke-miterlimit="10" stroke-linecap="round"/>
<path opacity="0.3" d="M97.1947 85.2871H63.9316" stroke="white" stroke-width="2.11094" stroke-miterlimit="10" stroke-linecap="round"/>
<path opacity="0.3" d="M117.25 85.6719H104.568" stroke="white" stroke-width="2.11094" stroke-miterlimit="10" stroke-linecap="round"/>
<path opacity="0.3" d="M108.277 90.1309H63.9316" stroke="white" stroke-width="2.11094" stroke-miterlimit="10" stroke-linecap="round"/>
<path opacity="0.3" d="M119.887 70.7578H63.9316" stroke="white" stroke-width="2.11094" stroke-miterlimit="10" stroke-linecap="round"/>
<path opacity="0.3" d="M106.066 75.5977H63.9316" stroke="white" stroke-width="2.11094" stroke-miterlimit="10" stroke-linecap="round"/>
<path opacity="0.3" d="M70.5758 94.9766H63.9316" stroke="white" stroke-width="2.11094" stroke-miterlimit="10" stroke-linecap="round"/>
<path opacity="0.3" d="M116.193 94.9766H109.549" stroke="white" stroke-width="2.11094" stroke-miterlimit="10" stroke-linecap="round"/>
<path opacity="0.3" d="M52.633 26.6658H51.0498V25.0826C51.0498 24.8727 50.9664 24.6713 50.818 24.5229C50.6695 24.3744 50.4681 24.291 50.2582 24.291C50.0483 24.291 49.8469 24.3744 49.6985 24.5229C49.55 24.6713 49.4666 24.8727 49.4666 25.0826V26.6658H47.8834C47.6735 26.6658 47.4721 26.7492 47.3237 26.8977C47.1752 27.0461 47.0918 27.2475 47.0918 27.4574C47.0918 27.6674 47.1752 27.8687 47.3237 28.0172C47.4721 28.1656 47.6735 28.249 47.8834 28.249H49.4666V29.8322C49.4666 29.9362 49.4871 30.0391 49.5269 30.1352C49.5666 30.2312 49.6249 30.3185 49.6985 30.392C49.772 30.4655 49.8592 30.5238 49.9553 30.5636C50.0513 30.6034 50.1542 30.6238 50.2582 30.6238C50.3622 30.6238 50.4651 30.6034 50.5611 30.5636C50.6572 30.5238 50.7444 30.4655 50.818 30.392C50.8915 30.3185 50.9498 30.2312 50.9895 30.1352C51.0293 30.0391 51.0498 29.9362 51.0498 29.8322V28.249H52.633C52.843 28.249 53.0443 28.1656 53.1928 28.0172C53.3412 27.8687 53.4246 27.6674 53.4246 27.4574C53.4246 27.2475 53.3412 27.0461 53.1928 26.8977C53.0443 26.7492 52.843 26.6658 52.633 26.6658Z" fill="white"/>
<g opacity="0.3">
<path d="M138.201 38.0547L138.507 38.4822" stroke="white" stroke-width="2.11094" stroke-miterlimit="10" stroke-linecap="round"/>
<path d="M140.781 42.0078C145.052 49.2857 147.451 57.509 147.764 65.9415C148.077 74.374 146.295 82.7526 142.576 90.3272" stroke="white" stroke-width="2.11094" stroke-miterlimit="10" stroke-linecap="round" stroke-dasharray="1.05 4.2"/>
<path d="M141.611 92.1953L141.357 92.6544" stroke="white" stroke-width="2.11094" stroke-miterlimit="10" stroke-linecap="round"/>
</g>
<path opacity="0.7" d="M134.421 35.8918C135.587 35.8918 136.532 34.9467 136.532 33.7809C136.532 32.615 135.587 31.6699 134.421 31.6699C133.256 31.6699 132.311 32.615 132.311 33.7809C132.311 34.9467 133.256 35.8918 134.421 35.8918Z" stroke="white" stroke-width="1.05547" stroke-miterlimit="10"/>
<path opacity="0.3" d="M164.218 104.982C165.384 104.982 166.329 104.037 166.329 102.871C166.329 101.705 165.384 100.76 164.218 100.76C163.053 100.76 162.107 101.705 162.107 102.871C162.107 104.037 163.053 104.982 164.218 104.982Z" stroke="white" stroke-width="1.05547" stroke-miterlimit="10"/>
<path opacity="0.3" d="M23.0803 109.453H21.4971V107.87C21.4971 107.66 21.4137 107.458 21.2652 107.31C21.1168 107.162 20.9154 107.078 20.7055 107.078C20.4955 107.078 20.2942 107.162 20.1457 107.31C19.9973 107.458 19.9139 107.66 19.9139 107.87V109.453H18.3307C18.1207 109.453 17.9194 109.536 17.7709 109.685C17.6225 109.833 17.5391 110.035 17.5391 110.245C17.5391 110.454 17.6225 110.656 17.7709 110.804C17.9194 110.953 18.1207 111.036 18.3307 111.036H19.9139V112.619C19.9139 112.829 19.9973 113.031 20.1457 113.179C20.2942 113.328 20.4955 113.411 20.7055 113.411C20.9154 113.411 21.1168 113.328 21.2652 113.179C21.4137 113.031 21.4971 112.829 21.4971 112.619V111.036H23.0803C23.2902 111.036 23.4916 110.953 23.64 110.804C23.7885 110.656 23.8719 110.454 23.8719 110.245C23.8719 110.035 23.7885 109.833 23.64 109.685C23.4916 109.536 23.2902 109.453 23.0803 109.453Z" fill="white"/>
<path opacity="0.4" d="M126.479 100.412V104.871C126.473 106.309 125.899 107.686 124.882 108.703C123.864 109.719 122.486 110.292 121.048 110.296H64.1003C62.6614 110.292 61.2826 109.718 60.2651 108.701C59.2476 107.683 58.6741 106.305 58.6699 104.866V100.406" fill="#E4E6E7"/>
<path d="M58.4121 43.8657V31.2898C58.4163 29.8472 58.9927 28.4652 60.0147 27.4471C61.0368 26.429 62.421 25.858 63.8636 25.8594H120.79C122.229 25.8636 123.608 26.437 124.626 27.4545C125.643 28.472 126.217 29.8508 126.221 31.2898V104.761" stroke="white" stroke-width="2.11094" stroke-linecap="round" stroke-linejoin="round"/>
<path opacity="0.3" d="M93.3796 107.13C94.4813 107.13 95.3744 106.237 95.3744 105.135C95.3744 104.034 94.4813 103.141 93.3796 103.141C92.2779 103.141 91.3848 104.034 91.3848 105.135C91.3848 106.237 92.2779 107.13 93.3796 107.13Z" fill="white"/>
<path d="M95.3909 31.6641H88.752" stroke="white" stroke-width="1.5832" stroke-linecap="round" stroke-linejoin="round"/>
<path d="M58.4121 68.8379V104.814C58.4163 106.256 58.9927 107.638 60.0147 108.656C61.0368 109.674 62.421 110.245 63.8636 110.244H120.79C122.229 110.24 123.608 109.666 124.626 108.649C125.643 107.631 126.217 106.252 126.221 104.814" stroke="white" stroke-width="2.11094" stroke-linecap="round" stroke-linejoin="round"/>
<path d="M129.656 118.006C137.161 118.006 143.245 111.922 143.245 104.417C143.245 96.9122 137.161 90.8281 129.656 90.8281C122.15 90.8281 116.066 96.9122 116.066 104.417C116.066 111.922 122.15 118.006 129.656 118.006Z" fill="white"/>
<path d="M130.247 115.515C136.248 115.515 141.113 110.65 141.113 104.649C141.113 98.6481 136.248 93.7832 130.247 93.7832C124.246 93.7832 119.381 98.6481 119.381 104.649C119.381 110.65 124.246 115.515 130.247 115.515Z" stroke="#81B441" stroke-width="2.11094" stroke-miterlimit="10" stroke-linecap="round"/>
<path opacity="0.22" d="M131.746 117.796C138.004 117.796 143.077 112.723 143.077 106.465C143.077 100.208 138.004 95.1348 131.746 95.1348C125.489 95.1348 120.416 100.208 120.416 106.465C120.416 112.723 125.489 117.796 131.746 117.796Z" fill="#81B441"/>
<path opacity="0.3" d="M100.467 59.2481C100.059 57.8021 99.7418 56.3322 99.5168 54.8468C99.4851 54.071 98.5669 53.538 98.5669 53.538C97.447 52.8859 96.2481 52.3804 94.9994 52.034L95.0469 51.9865C95.0597 51.9698 95.0667 51.9494 95.0667 51.9284C95.0667 51.9074 95.0597 51.887 95.0469 51.8704C94.9255 51.6698 94.4611 51.1843 93.2473 50.8993C93.629 50.3675 93.9049 49.7673 94.06 49.1314C94.0632 49.1105 94.0705 49.0904 94.0816 49.0724C94.0927 49.0544 94.1073 49.0387 94.1245 49.0264C94.1417 49.0141 94.1612 49.0054 94.1819 49.0008C94.2025 48.9962 94.2239 48.9957 94.2447 48.9995C94.4822 49.0417 94.8886 48.9362 95.0258 47.7488C95.0258 47.6801 95.2421 46.8674 94.4294 47.0416H94.2922C94.3686 46.9835 94.4315 46.9097 94.4769 46.8252C94.7371 46.309 94.8624 45.7353 94.8411 45.1576C94.8344 44.5265 94.6828 43.9053 94.3978 43.3422L94.3028 43.1575C94.265 43.0712 94.2172 42.9897 94.1603 42.9147C93.1048 41.6692 90.9939 41.5531 90.2814 41.8223C89.7998 41.8412 89.3265 41.9541 88.8882 42.1548C88.2889 42.6253 87.8576 43.2769 87.6586 44.0124C87.4854 44.7845 87.4746 45.5843 87.6269 46.3608C87.6737 46.6136 87.7785 46.852 87.933 47.0574H87.8222C87.0095 46.8885 87.21 47.7013 87.2259 47.7646C87.3578 48.8992 87.7536 49.047 87.9752 49.0206C88.0283 49.0145 88.0816 49.0293 88.1239 49.0618C88.1662 49.0943 88.1943 49.142 88.2022 49.1947C88.3787 49.8481 88.6738 50.4635 89.0729 51.0101C88.0175 51.3004 87.5794 51.7015 87.4633 51.8809C87.4529 51.8965 87.4473 51.9149 87.4473 51.9337C87.4473 51.9525 87.4529 51.9708 87.4633 51.9865C86.2919 52.3633 85.1675 52.8732 84.1122 53.5063C84.1122 53.5063 83.1887 54.0341 83.1623 54.8151C82.9373 56.3005 82.62 57.7704 82.2124 59.2164C81.9944 60.0959 81.8741 60.9967 81.8535 61.9026H100.804C100.815 61.0064 100.702 60.113 100.467 59.2481Z" fill="#81B441"/>
<path d="M101.523 60.3047C101.116 58.8588 100.798 57.3888 100.573 55.9034C100.542 55.1276 99.6235 54.5946 99.6235 54.5946C98.5037 53.9425 97.3047 53.437 96.056 53.0906L96.1035 53.0431C96.1164 53.0265 96.1233 53.0061 96.1233 52.985C96.1233 52.964 96.1164 52.9436 96.1035 52.927C95.9821 52.7265 95.5177 52.2409 94.3039 51.956C94.6856 51.4242 94.9615 50.824 95.1167 50.1881C95.1198 50.1671 95.1272 50.1471 95.1383 50.129C95.1493 50.111 95.1639 50.0954 95.1811 50.0831C95.1984 50.0708 95.2179 50.0621 95.2385 50.0574C95.2592 50.0528 95.2805 50.0524 95.3014 50.0561C95.5388 50.0983 95.9452 49.9928 96.0824 48.8054C96.0824 48.7368 96.2988 47.9241 95.4861 48.0982H95.3489C95.4252 48.0402 95.4882 47.9664 95.5336 47.8819C95.7937 47.3656 95.919 46.7919 95.8977 46.2142C95.8911 45.5831 95.7394 44.962 95.4544 44.3988L95.3594 44.2141C95.3216 44.1279 95.2738 44.0464 95.2169 43.9713C94.1615 42.7259 92.0505 42.6098 91.3381 42.8789C90.8564 42.8978 90.3831 43.0107 89.9449 43.2114C89.3455 43.6819 88.9142 44.3335 88.7152 45.069C88.5421 45.8412 88.5313 46.6409 88.6836 47.4174C88.7304 47.6702 88.8351 47.9086 88.9897 48.1141H88.8788C88.0661 47.9452 88.2667 48.7579 88.2825 48.8212C88.4144 49.9559 88.8102 50.1036 89.0319 50.0772C89.0849 50.0712 89.1382 50.0859 89.1805 50.1184C89.2229 50.1509 89.2509 50.1986 89.2588 50.2514C89.4353 50.9048 89.7305 51.5202 90.1296 52.0668C89.0741 52.357 88.6361 52.7581 88.52 52.9375C88.5095 52.9532 88.504 52.9715 88.504 52.9903C88.504 53.0091 88.5095 53.0275 88.52 53.0431C87.3485 53.4199 86.2241 53.9299 85.1689 54.563C85.1689 54.563 84.2453 55.0907 84.2189 55.8718C83.9939 57.3571 83.6767 58.8271 83.269 60.2731C83.051 61.1525 82.9307 62.0534 82.9102 62.9592H101.861C101.872 62.063 101.758 61.1697 101.523 60.3047Z" stroke="#81B441" stroke-width="1.05547" stroke-linecap="round" stroke-linejoin="round"/>
<path d="M58.4121 48.7148V51.4854" stroke="white" stroke-width="2.11094" stroke-linecap="round" stroke-linejoin="round"/>
<path d="M125.799 106.053L128.153 108.407L134.696 101.863" stroke="#81B441" stroke-width="2.11094" stroke-linecap="round" stroke-linejoin="round"/>
</svg>
