<svg width="24" height="24" viewBox="0 0 24 24" fill="none" xmlns="http://www.w3.org/2000/svg">
<path fill-rule="evenodd" clip-rule="evenodd" d="M14.2686 4.6219C13.0722 3.23931 10.9279 3.23931 9.73146 4.6219L9.19879 5.23748L8.38686 5.17886C6.56324 5.0472 5.04695 6.56348 5.17861 8.3871L5.23723 9.19903L4.62166 9.7317C3.23907 10.9281 3.23907 13.0724 4.62166 14.2688L5.23723 14.8015L5.17861 15.6134C5.04695 17.4371 6.56324 18.9534 8.38686 18.8217L9.19879 18.7631L9.73146 19.3786C10.9279 20.7612 13.0722 20.7612 14.2686 19.3786L14.8013 18.7631L15.6132 18.8217C17.4368 18.9534 18.9531 17.4371 18.8214 15.6134L18.7628 14.8015L19.3784 14.2688C20.761 13.0724 20.761 10.9281 19.3784 9.7317L18.7628 9.19903L18.8214 8.3871C18.9531 6.56348 17.4368 5.0472 15.6132 5.17886L14.8013 5.23748L14.2686 4.6219ZM15.6962 10.7182C16.0927 10.3337 16.1024 9.70061 15.7179 9.30413C15.3335 8.90764 14.7004 8.8979 14.3039 9.28237L10.875 12.6073L9.69618 11.4642C9.29969 11.0797 8.6666 11.0895 8.28213 11.4859C7.89766 11.8824 7.9074 12.5155 8.30388 12.9L10.1789 14.7182C10.5668 15.0943 11.1833 15.0943 11.5712 14.7182L15.6962 10.7182Z" fill="white"/>
</svg>
