<svg width="30" height="30" viewBox="0 0 30 30" fill="none" xmlns="http://www.w3.org/2000/svg">
<path fill-rule="evenodd" clip-rule="evenodd" d="M15.0013 9.63417C13.6337 9.63417 12.5085 10.757 12.5085 12.1242C12.5085 12.7019 12.7186 13.2298 13.0535 13.6539C11.4292 14.3704 10.258 15.9423 10.1507 17.8138L10.1075 18.5449H19.895L19.8519 17.8138C19.7444 15.9412 18.5726 14.3727 16.9491 13.6566C17.2847 13.2323 17.494 12.7026 17.494 12.1242C17.494 10.757 16.3688 9.63417 15.0013 9.63417ZM15.0013 11.0181C15.6231 11.0181 16.11 11.5043 16.11 12.1242C16.11 12.7433 15.6245 13.2342 15.0019 13.235C14.3794 13.2357 13.8924 12.7442 13.8924 12.1242C13.8924 11.5043 14.3794 11.0181 15.0012 11.0181H15.0013ZM11.71 17.1637H18.2898C17.8749 15.6971 16.5911 14.6175 14.9925 14.6247C13.394 14.6319 12.1216 15.7074 11.71 17.1637Z" fill="white"/>
<path d="M12.5085 12.1242L12.1033 12.1242V12.1242L12.5085 12.1242ZM13.0535 13.6539L13.217 14.0246L13.6957 13.8134L13.3714 13.4028L13.0535 13.6539ZM10.1507 17.8138L10.5551 17.8377L10.5552 17.837L10.1507 17.8138ZM10.1075 18.5449L9.70303 18.521L9.67769 18.9501H10.1075V18.5449ZM19.895 18.5449V18.9501H20.3248L20.2995 18.521L19.895 18.5449ZM19.8519 17.8138L19.4474 17.837L19.4474 17.8377L19.8519 17.8138ZM16.9491 13.6566L16.6313 13.4052L16.3064 13.8159L16.7855 14.0273L16.9491 13.6566ZM15.0019 13.235L15.0024 13.6401L15.0019 13.235ZM18.2898 17.1637V17.5688H18.8256L18.6797 17.0534L18.2898 17.1637ZM11.71 17.1637L11.3201 17.0535L11.1744 17.5688H11.71V17.1637ZM14.9925 14.6247L14.9944 15.0299H14.9944L14.9925 14.6247ZM12.9137 12.1242C12.9137 10.9813 13.857 10.0393 15.0013 10.0393V9.229C13.4105 9.229 12.1033 10.5327 12.1033 12.1242L12.9137 12.1242ZM13.3714 13.4028C13.0867 13.0422 12.9137 12.601 12.9137 12.1242L12.1033 12.1242C12.1033 12.8027 12.3505 13.4175 12.7355 13.905L13.3714 13.4028ZM10.5552 17.837C10.6534 16.1247 11.7252 14.6827 13.217 14.0246L12.8899 13.2832C11.1333 14.0581 9.86261 15.76 9.74615 17.7906L10.5552 17.837ZM10.512 18.5688L10.5551 17.8377L9.74619 17.7899L9.70303 18.521L10.512 18.5688ZM19.895 18.1398H10.1075V18.9501H19.895V18.1398ZM19.4474 17.8377L19.4906 18.5688L20.2995 18.521L20.2563 17.7899L19.4474 17.8377ZM16.7855 14.0273C18.277 14.6851 19.349 16.1239 19.4474 17.837L20.2564 17.7906C20.1398 15.7585 18.8683 14.0602 17.1126 13.2858L16.7855 14.0273ZM17.0888 12.1242C17.0888 12.6024 16.9161 13.0451 16.6313 13.4052L17.2668 13.9079C17.6532 13.4194 17.8992 12.8028 17.8992 12.1242H17.0888ZM15.0013 10.0393C16.1455 10.0393 17.0888 10.9813 17.0888 12.1242H17.8992C17.8992 10.5327 16.592 9.229 15.0013 9.229V10.0393ZM16.5152 12.1242C16.5152 11.2796 15.846 10.613 15.0013 10.613V11.4233C15.4002 11.4233 15.7049 11.7289 15.7049 12.1242H16.5152ZM15.0024 13.6401C15.85 13.6392 16.5152 12.9654 16.5152 12.1242H15.7049C15.7049 12.5211 15.3989 12.8293 15.0014 12.8298L15.0024 13.6401ZM13.4872 12.1242C13.4872 12.9663 14.1541 13.6411 15.0024 13.6401L15.0014 12.8298C14.6047 12.8303 14.2976 12.5221 14.2976 12.1242H13.4872ZM15.0012 10.613C14.1564 10.613 13.4872 11.2796 13.4872 12.1242H14.2976C14.2976 11.7289 14.6023 11.4233 15.0012 11.4233V10.613ZM15.0013 10.613H15.0012V11.4233H15.0013V10.613ZM18.2898 16.7585H11.71V17.5688H18.2898V16.7585ZM14.9944 15.0299C16.3955 15.0236 17.5302 15.9671 17.9 17.274L18.6797 17.0534C18.2196 15.4272 16.7868 14.2115 14.9907 14.2195L14.9944 15.0299ZM12.0999 17.2739C12.4662 15.9777 13.5903 15.0362 14.9944 15.0299L14.9907 14.2195C13.1976 14.2276 11.7769 15.4371 11.3201 17.0535L12.0999 17.2739Z" fill="white"/>
<path fill-rule="evenodd" clip-rule="evenodd" d="M12.7452 2.66041C12.7452 1.4234 13.7635 0.405071 15.0005 0.405071C16.2376 0.405071 17.2559 1.4234 17.2559 2.66041C17.2559 3.65547 16.5928 4.49651 15.6912 4.79166V6.42381C17.4799 6.57232 19.1063 7.28891 20.3934 8.39589L22.7486 6.04073C22.4515 5.54861 22.271 4.97832 22.271 4.36541C22.271 2.56738 23.7454 1.0957 25.5435 1.0957C27.3415 1.0957 28.8132 2.56738 28.8132 4.36541C28.8132 6.16343 27.3415 7.63781 25.5435 7.63781C24.8555 7.63781 24.2188 7.4196 23.6901 7.05239L21.3673 9.37518C22.4931 10.7248 23.1868 12.439 23.2692 14.3094H25.2089C25.5041 13.4078 26.3451 12.7447 27.3402 12.7447C28.5772 12.7447 29.5955 13.763 29.5955 15C29.5955 16.2371 28.5772 17.2554 27.3402 17.2554C26.3455 17.2554 25.5044 16.5918 25.2089 15.6907H23.218C23.0042 17.4307 22.2499 19.0006 21.1272 20.2364L23.6901 22.7993C24.2188 22.4321 24.8555 22.2139 25.5435 22.2139C27.3415 22.2139 28.8132 23.6883 28.8132 25.4863C28.8132 27.2843 27.3415 28.756 25.5435 28.756C23.7454 28.756 22.271 27.2843 22.271 25.4863C22.271 24.8734 22.4515 24.3031 22.7486 23.811L20.1182 21.1807C18.8772 22.1594 17.3553 22.7907 15.6912 22.9288V25.2084C16.5928 25.5036 17.2559 26.3446 17.2559 27.3397C17.2559 28.5767 16.2376 29.595 15.0005 29.595C13.7635 29.595 12.7452 28.5767 12.7452 27.3397C12.7452 26.3446 13.4083 25.5036 14.3099 25.2084V22.9288C12.6369 22.7899 11.1058 22.1549 9.86127 21.1672L7.21745 23.811C7.51451 24.3031 7.69496 24.8734 7.69496 25.4863C7.69496 27.2843 6.22058 28.756 4.42256 28.756C2.62453 28.756 1.15285 27.2843 1.15285 25.4863C1.15285 23.6883 2.62453 22.2139 4.42256 22.2139C5.10982 22.2139 5.7475 22.4328 6.27593 22.7993L8.8577 20.2175C7.74418 18.9845 6.99578 17.4221 6.78311 15.6907H4.79215C4.49668 16.5918 3.65558 17.2554 2.66091 17.2554C1.42389 17.2554 0.405566 16.2371 0.405566 15C0.405566 13.763 1.42389 12.7447 2.66091 12.7447C3.65597 12.7447 4.497 13.4078 4.79215 14.3094H6.73185C6.81269 12.4752 7.4837 10.7933 8.57174 9.45611L6.16802 7.05239C5.6396 7.41892 5.00188 7.63781 4.31464 7.63781C2.51662 7.63781 1.04494 6.16343 1.04494 4.36541C1.04494 2.56738 2.51662 1.0957 4.31464 1.0957C6.11267 1.0957 7.58705 2.56738 7.58705 4.36541C7.58705 4.97832 7.4066 5.54861 7.10954 6.04073L9.53215 8.46333C10.8309 7.3187 12.4856 6.57527 14.3099 6.42381V4.79166C13.4083 4.49651 12.7452 3.65547 12.7452 2.66041ZM15.8746 2.66041C15.8746 2.16989 15.4911 1.78633 15.0005 1.78633C14.51 1.78633 14.1265 2.16989 14.1265 2.66041C14.1265 3.15094 14.51 3.53179 15.0005 3.53179C15.4911 3.53179 15.8746 3.15094 15.8746 2.66041ZM4.31464 2.47696C5.36618 2.47696 6.20579 3.31387 6.20579 4.36541C6.20579 5.41694 5.36618 6.25655 4.31464 6.25655C3.26311 6.25655 2.4262 5.41694 2.4262 4.36541C2.4262 3.31387 3.26311 2.47696 4.31464 2.47696ZM27.4319 4.36541C27.4319 3.31387 26.595 2.47696 25.5434 2.47696C24.4919 2.47696 23.6523 3.31387 23.6523 4.36541C23.6523 5.41694 24.4919 6.25655 25.5434 6.25655C26.595 6.25655 27.4319 5.41694 27.4319 4.36541ZM15.0005 7.77C16.7133 7.77 18.2575 8.41257 19.4627 9.43993L20.2369 10.2142C21.2643 11.4194 21.9068 12.9635 21.9068 14.6763C21.9068 18.4987 18.823 21.5826 15.0005 21.5826C11.1781 21.5826 8.09423 18.4987 8.09423 14.6763C8.09423 10.8539 11.1781 7.77 15.0005 7.77ZM3.53229 15C3.53229 14.5095 3.15143 14.126 2.66091 14.126C2.17038 14.126 1.78683 14.5095 1.78683 15C1.78683 15.4906 2.17038 15.8741 2.66091 15.8741C3.15143 15.8741 3.53229 15.4906 3.53229 15ZM27.3402 14.126C27.8307 14.126 28.2143 14.5095 28.2143 15C28.2143 15.4906 27.8307 15.8741 27.3402 15.8741C26.8496 15.8741 26.4688 15.4906 26.4688 15C26.4688 14.5095 26.8496 14.126 27.3402 14.126ZM6.3137 25.4863C6.3137 24.4348 5.47409 23.5952 4.42256 23.5952C3.37102 23.5952 2.53411 24.4348 2.53411 25.4863C2.53411 26.5378 3.37102 27.3747 4.42256 27.3747C5.47409 27.3747 6.3137 26.5378 6.3137 25.4863ZM25.5434 23.5952C26.595 23.5952 27.4319 24.4348 27.4319 25.4863C27.4319 26.5378 26.595 27.3747 25.5434 27.3747C24.4919 27.3747 23.6523 26.5378 23.6523 25.4863C23.6523 24.4348 24.4919 23.5952 25.5434 23.5952ZM15.8746 27.3397C15.8746 26.8492 15.4911 26.4683 15.0005 26.4683C14.51 26.4683 14.1265 26.8492 14.1265 27.3397C14.1265 27.8302 14.51 28.2138 15.0005 28.2138C15.4911 28.2138 15.8746 27.8302 15.8746 27.3397Z" fill="white"/>
<path d="M12.7452 2.66041H13.1504V2.66041L12.7452 2.66041ZM17.2559 2.66041L16.8507 2.66041V2.66041L17.2559 2.66041ZM15.6912 4.79166L15.5651 4.40659L15.286 4.49796V4.79166H15.6912ZM15.6912 6.42381H15.286V6.79674L15.6576 6.82759L15.6912 6.42381ZM20.3934 8.39589L20.1292 8.70307L20.4141 8.94814L20.6799 8.68239L20.3934 8.39589ZM22.7486 6.04073L23.0351 6.32723L23.2594 6.10292L23.0954 5.83134L22.7486 6.04073ZM23.6901 7.05239L23.9212 6.71961L23.643 6.52643L23.4036 6.7659L23.6901 7.05239ZM21.3673 9.37518L21.0808 9.08868L20.819 9.35045L21.0562 9.63472L21.3673 9.37518ZM23.2692 14.3094L22.8644 14.3273L22.8815 14.7146H23.2692V14.3094ZM25.2089 14.3094V14.7146H25.5026L25.594 14.4355L25.2089 14.3094ZM27.3402 12.7447V13.1499V12.7447ZM27.3402 17.2554V16.8502V17.2554ZM25.2089 15.6907L25.5939 15.5644L25.5025 15.2855H25.2089V15.6907ZM23.218 15.6907V15.2855H22.8595L22.8158 15.6413L23.218 15.6907ZM21.1272 20.2364L20.8273 19.964L20.5676 20.2498L20.8407 20.5229L21.1272 20.2364ZM23.6901 22.7993L23.4036 23.0858L23.6431 23.3253L23.9212 23.1321L23.6901 22.7993ZM22.7486 23.811L23.0954 24.0204L23.2594 23.7488L23.0351 23.5245L22.7486 23.811ZM20.1182 21.1807L20.4047 20.8942L20.1501 20.6395L19.8673 20.8625L20.1182 21.1807ZM15.6912 22.9288L15.6576 22.525L15.286 22.5559V22.9288H15.6912ZM15.6912 25.2084H15.286V25.5021L15.5651 25.5935L15.6912 25.2084ZM17.2559 27.3397H16.8507H17.2559ZM15.0005 29.595L15.0005 29.1898H15.0005L15.0005 29.595ZM12.7452 27.3397H13.1504H12.7452ZM14.3099 25.2084L14.436 25.5935L14.7151 25.5021V25.2084H14.3099ZM14.3099 22.9288H14.7151V22.5559L14.3434 22.525L14.3099 22.9288ZM9.86127 21.1672L10.1131 20.8498L9.8302 20.6252L9.57478 20.8807L9.86127 21.1672ZM7.21745 23.811L6.93095 23.5245L6.70664 23.7488L6.87058 24.0204L7.21745 23.811ZM6.27593 22.7993L6.04499 23.1322L6.3231 23.3251L6.56243 23.0858L6.27593 22.7993ZM8.8577 20.2175L9.1442 20.504L9.41648 20.2318L9.1584 19.946L8.8577 20.2175ZM6.78311 15.6907L7.18526 15.6413L7.14156 15.2855H6.78311V15.6907ZM4.79215 15.6907V15.2855H4.49861L4.40715 15.5644L4.79215 15.6907ZM2.66091 17.2554V16.8502H2.66091L2.66091 17.2554ZM2.66091 12.7447L2.66091 13.1499H2.66091V12.7447ZM4.79215 14.3094L4.40709 14.4355L4.49846 14.7146H4.79215V14.3094ZM6.73185 14.3094V14.7146H7.11956L7.13663 14.3273L6.73185 14.3094ZM8.57174 9.45611L8.88601 9.71184L9.11681 9.42819L8.85823 9.16961L8.57174 9.45611ZM6.16802 7.05239L6.45452 6.7659L6.21519 6.52657L5.93709 6.71947L6.16802 7.05239ZM7.10954 6.04073L6.76267 5.83134L6.59873 6.10292L6.82304 6.32723L7.10954 6.04073ZM9.53215 8.46333L9.24565 8.74983L9.51465 9.01883L9.80004 8.76729L9.53215 8.46333ZM14.3099 6.42381L14.3434 6.82759L14.7151 6.79674V6.42381H14.3099ZM14.3099 4.79166H14.7151V4.49796L14.436 4.40659L14.3099 4.79166ZM15.8746 2.66041L15.4694 2.66041V2.66041H15.8746ZM14.1265 2.66041L14.5316 2.66041V2.66041L14.1265 2.66041ZM6.20579 4.36541L5.80062 4.36541V4.36541H6.20579ZM19.4627 9.43993L19.7492 9.15343L19.7378 9.14204L19.7255 9.13158L19.4627 9.43993ZM20.2369 10.2142L20.5453 9.95135L20.5348 9.93908L20.5234 9.92769L20.2369 10.2142ZM2.66091 14.126L2.66091 14.5311H2.66091V14.126ZM2.66091 15.8741V15.469H2.6609L2.66091 15.8741ZM27.3402 14.126V14.5311V14.126ZM27.3402 15.8741L27.3402 15.469H27.3402V15.8741ZM4.42256 23.5952L4.42256 23.19H4.42256V23.5952ZM6.3137 25.4863H6.71887H6.3137ZM25.5434 23.5952V23.19V23.5952ZM15.8746 27.3397H15.4694V27.3397L15.8746 27.3397ZM14.1265 27.3397H14.5316H14.1265ZM15.0005 -9.89245e-05C13.5398 -9.89245e-05 12.34 1.19963 12.34 2.66041L13.1504 2.66041C13.1504 1.64717 13.9873 0.810241 15.0005 0.810241V-9.89245e-05ZM17.6611 2.66041C17.6611 1.19963 16.4613 -9.89245e-05 15.0005 -9.89245e-05V0.810241C16.0138 0.810241 16.8507 1.64717 16.8507 2.66041L17.6611 2.66041ZM15.8172 5.17672C16.8751 4.83042 17.6611 3.84122 17.6611 2.66041L16.8507 2.66041C16.8507 3.46973 16.3105 4.1626 15.5651 4.40659L15.8172 5.17672ZM16.0963 6.42381V4.79166H15.286V6.42381H16.0963ZM20.6576 8.0887C19.308 6.92794 17.6015 6.17585 15.7247 6.02003L15.6576 6.82759C17.3583 6.96879 18.9046 7.64988 20.1292 8.70307L20.6576 8.0887ZM22.4621 5.75423L20.1069 8.10939L20.6799 8.68239L23.0351 6.32723L22.4621 5.75423ZM21.8659 4.36541C21.8659 5.05949 22.0705 5.70144 22.4017 6.25011L23.0954 5.83134C22.8325 5.39579 22.6762 4.89714 22.6762 4.36541H21.8659ZM25.5435 0.690532C23.5221 0.690532 21.8659 2.34318 21.8659 4.36541H22.6762C22.6762 2.79159 23.9688 1.50087 25.5435 1.50087V0.690532ZM29.2183 4.36541C29.2183 2.34361 27.5652 0.690532 25.5435 0.690532V1.50087C27.1177 1.50087 28.408 2.79115 28.408 4.36541H29.2183ZM25.5435 8.04298C27.5657 8.04298 29.2183 6.38677 29.2183 4.36541H28.408C28.408 5.9401 27.1173 7.23264 25.5435 7.23264V8.04298ZM23.459 7.38518C24.0515 7.79667 24.7681 8.04298 25.5435 8.04298V7.23264C24.943 7.23264 24.3862 7.04252 23.9212 6.71961L23.459 7.38518ZM21.6538 9.66168L23.9766 7.33889L23.4036 6.7659L21.0808 9.08868L21.6538 9.66168ZM23.674 14.2916C23.5876 12.3311 22.8601 10.5322 21.6784 9.11564L21.0562 9.63472C22.1261 10.9173 22.786 12.547 22.8644 14.3273L23.674 14.2916ZM25.2089 13.9042H23.2692V14.7146H25.2089V13.9042ZM27.3402 12.3395C26.1594 12.3395 25.1702 13.1255 24.8239 14.1834L25.594 14.4355C25.838 13.6901 26.5309 13.1499 27.3402 13.1499V12.3395ZM30.0007 15C30.0007 13.5393 28.801 12.3395 27.3402 12.3395V13.1499C28.3534 13.1499 29.1903 13.9868 29.1903 15H30.0007ZM27.3402 17.6606C28.801 17.6606 30.0007 16.4608 30.0007 15H29.1903C29.1903 16.0133 28.3534 16.8502 27.3402 16.8502V17.6606ZM24.8239 15.8169C25.1705 16.874 26.1596 17.6606 27.3402 17.6606V16.8502C26.5314 16.8502 25.8383 16.3096 25.5939 15.5644L24.8239 15.8169ZM23.218 16.0958H25.2089V15.2855H23.218V16.0958ZM21.4271 20.5089C22.604 19.2134 23.3958 17.5664 23.6201 15.7401L22.8158 15.6413C22.6127 17.2951 21.8959 18.7878 20.8273 19.964L21.4271 20.5089ZM23.9766 22.5128L21.4137 19.9499L20.8407 20.5229L23.4036 23.0858L23.9766 22.5128ZM25.5435 21.8087C24.768 21.8087 24.0515 22.055 23.4589 22.4665L23.9212 23.1321C24.3862 22.8092 24.9429 22.6191 25.5435 22.6191V21.8087ZM29.2183 25.4863C29.2183 23.4649 27.5657 21.8087 25.5435 21.8087V22.6191C27.1173 22.6191 28.408 23.9116 28.408 25.4863H29.2183ZM25.5435 29.1612C27.5652 29.1612 29.2183 27.5081 29.2183 25.4863H28.408C28.408 27.0606 27.1177 28.3508 25.5435 28.3508V29.1612ZM21.8659 25.4863C21.8659 27.5085 23.5221 29.1612 25.5435 29.1612V28.3508C23.9688 28.3508 22.6762 27.0601 22.6762 25.4863H21.8659ZM22.4017 23.6016C22.0705 24.1503 21.8659 24.7922 21.8659 25.4863H22.6762C22.6762 24.9546 22.8325 24.4559 23.0954 24.0204L22.4017 23.6016ZM19.8317 21.4672L22.4621 24.0975L23.0351 23.5245L20.4047 20.8942L19.8317 21.4672ZM15.7247 23.3326C17.471 23.1876 19.068 22.525 20.3691 21.4988L19.8673 20.8625C18.6865 21.7938 17.2396 22.3937 15.6576 22.525L15.7247 23.3326ZM16.0963 25.2084V22.9288H15.286V25.2084H16.0963ZM17.6611 27.3397C17.6611 26.1589 16.8751 25.1697 15.8172 24.8234L15.5651 25.5935C16.3105 25.8375 16.8507 26.5304 16.8507 27.3397H17.6611ZM15.0005 30.0002C16.4613 30.0002 17.6611 28.8005 17.6611 27.3397H16.8507C16.8507 28.3529 16.0138 29.1898 15.0005 29.1898L15.0005 30.0002ZM12.34 27.3397C12.34 28.8005 13.5398 30.0002 15.0005 30.0002L15.0005 29.1898C13.9873 29.1898 13.1504 28.3529 13.1504 27.3397H12.34ZM14.1839 24.8234C13.126 25.1697 12.34 26.1589 12.34 27.3397H13.1504C13.1504 26.5304 13.6906 25.8375 14.436 25.5935L14.1839 24.8234ZM13.9047 22.9288V25.2084H14.7151V22.9288H13.9047ZM9.6094 21.4845C10.9147 22.5204 12.5212 23.1869 14.2764 23.3326L14.3434 22.525C12.7526 22.393 11.297 21.7893 10.1131 20.8498L9.6094 21.4845ZM7.50395 24.0975L10.1478 21.4537L9.57478 20.8807L6.93095 23.5245L7.50395 24.0975ZM8.10013 25.4863C8.10013 24.7922 7.89553 24.1503 7.56432 23.6016L6.87058 24.0204C7.1335 24.4559 7.28979 24.9546 7.28979 25.4863H8.10013ZM4.42256 29.1612C6.44392 29.1612 8.10013 27.5085 8.10013 25.4863H7.28979C7.28979 27.0601 5.99725 28.3508 4.42256 28.3508V29.1612ZM0.747679 25.4863C0.747679 27.5081 2.40076 29.1612 4.42256 29.1612V28.3508C2.8483 28.3508 1.55802 27.0606 1.55802 25.4863H0.747679ZM4.42256 21.8087C2.40033 21.8087 0.747679 23.4649 0.747679 25.4863H1.55802C1.55802 23.9116 2.84873 22.6191 4.42256 22.6191V21.8087ZM6.50686 22.4664C5.91489 22.0558 5.19742 21.8087 4.42256 21.8087V22.6191C5.02222 22.6191 5.5801 22.8098 6.04499 23.1322L6.50686 22.4664ZM8.5712 19.931L5.98943 22.5128L6.56243 23.0858L9.1442 20.504L8.5712 19.931ZM6.38096 15.7401C6.60419 17.5574 7.38982 19.1966 8.557 20.4891L9.1584 19.946C8.09854 18.7724 7.38737 17.2868 7.18526 15.6413L6.38096 15.7401ZM4.79215 16.0958H6.78311V15.2855H4.79215V16.0958ZM2.66091 17.6606C3.84148 17.6606 4.83055 16.874 5.17715 15.8169L4.40715 15.5644C4.16281 16.3096 3.46968 16.8502 2.66091 16.8502V17.6606ZM0.000395668 15C0.000395668 16.4608 1.20012 17.6606 2.66091 17.6606L2.66091 16.8502C1.64766 16.8502 0.810736 16.0133 0.810736 15H0.000395668ZM2.66091 12.3395C1.20012 12.3395 0.000395668 13.5393 0.000395668 15H0.810736C0.810736 13.9868 1.64766 13.1499 2.66091 13.1499L2.66091 12.3395ZM5.17721 14.1834C4.83091 13.1255 3.84171 12.3395 2.66091 12.3395V13.1499C3.47022 13.1499 4.16309 13.6901 4.40709 14.4355L5.17721 14.1834ZM6.73185 13.9042H4.79215V14.7146H6.73185V13.9042ZM8.25746 9.20039C7.11568 10.6036 6.41183 12.3685 6.32708 14.2916L7.13663 14.3273C7.21355 12.5818 7.85173 10.9829 8.88601 9.71184L8.25746 9.20039ZM5.88152 7.33889L8.28524 9.74261L8.85823 9.16961L6.45452 6.7659L5.88152 7.33889ZM4.31464 8.04298C5.08948 8.04298 5.80699 7.79591 6.39894 7.38532L5.93709 6.71947C5.47221 7.04193 4.91427 7.23264 4.31464 7.23264V8.04298ZM0.639768 4.36541C0.639768 6.38677 2.29242 8.04298 4.31464 8.04298V7.23264C2.74082 7.23264 1.45011 5.9401 1.45011 4.36541H0.639768ZM4.31464 0.690532C2.29285 0.690532 0.639768 2.34361 0.639768 4.36541H1.45011C1.45011 2.79115 2.74039 1.50087 4.31464 1.50087V0.690532ZM7.99222 4.36541C7.99222 2.34318 6.33601 0.690532 4.31464 0.690532V1.50087C5.88934 1.50087 7.18188 2.79159 7.18188 4.36541H7.99222ZM7.45641 6.25011C7.78762 5.70144 7.99222 5.05949 7.99222 4.36541H7.18188C7.18188 4.89714 7.02559 5.39579 6.76267 5.83134L7.45641 6.25011ZM9.81864 8.17683L7.39604 5.75423L6.82304 6.32723L9.24565 8.74983L9.81864 8.17683ZM14.2764 6.02003C12.3621 6.17897 10.6259 6.95929 9.26425 8.15937L9.80004 8.76729C11.0359 7.6781 12.6092 6.97158 14.3434 6.82759L14.2764 6.02003ZM13.9047 4.79166V6.42381H14.7151V4.79166H13.9047ZM12.34 2.66041C12.34 3.84122 13.126 4.83042 14.1839 5.17672L14.436 4.40659C13.6906 4.1626 13.1504 3.46973 13.1504 2.66041H12.34ZM15.0005 2.1915C15.2673 2.1915 15.4694 2.39366 15.4694 2.66041L16.2798 2.66041C16.2798 1.94612 15.7148 1.38116 15.0005 1.38116V2.1915ZM14.5316 2.66041C14.5316 2.39366 14.7338 2.1915 15.0005 2.1915V1.38116C14.2862 1.38116 13.7213 1.94612 13.7213 2.66041L14.5316 2.66041ZM15.0005 3.12662C14.7321 3.12662 14.5316 2.92553 14.5316 2.66041L13.7213 2.66041C13.7213 3.37635 14.2879 3.93697 15.0005 3.93697V3.12662ZM15.4694 2.66041C15.4694 2.92553 15.2689 3.12662 15.0005 3.12662V3.93697C15.7132 3.93697 16.2798 3.37635 16.2798 2.66041H15.4694ZM6.61096 4.36541C6.61096 3.08935 5.58919 2.07179 4.31464 2.07179V2.88213C5.14317 2.88213 5.80062 3.5384 5.80062 4.36541L6.61096 4.36541ZM4.31464 6.66172C5.58995 6.66172 6.61096 5.64071 6.61096 4.36541H5.80062C5.80062 5.19317 5.14241 5.85138 4.31464 5.85138V6.66172ZM2.02103 4.36541C2.02103 5.63996 3.03858 6.66172 4.31464 6.66172V5.85138C3.48763 5.85138 2.83137 5.19393 2.83137 4.36541H2.02103ZM4.31464 2.07179C3.03934 2.07179 2.02103 3.0901 2.02103 4.36541H2.83137C2.83137 3.53764 3.48688 2.88213 4.31464 2.88213V2.07179ZM25.5434 2.88213C26.3712 2.88213 27.0267 3.53764 27.0267 4.36541H27.8371C27.8371 3.0901 26.8188 2.07179 25.5434 2.07179V2.88213ZM24.0575 4.36541C24.0575 3.5384 24.7149 2.88213 25.5434 2.88213V2.07179C24.2689 2.07179 23.2471 3.08935 23.2471 4.36541H24.0575ZM25.5434 5.85138C24.7157 5.85138 24.0575 5.19317 24.0575 4.36541H23.2471C23.2471 5.64071 24.2681 6.66172 25.5434 6.66172V5.85138ZM27.0267 4.36541C27.0267 5.19393 26.3705 5.85138 25.5434 5.85138V6.66172C26.8195 6.66172 27.8371 5.63996 27.8371 4.36541H27.0267ZM19.7255 9.13158C18.4535 8.04728 16.8179 7.36483 15.0005 7.36483V8.17517C16.6087 8.17517 18.0614 8.77787 19.1998 9.74827L19.7255 9.13158ZM20.5234 9.92769L19.7492 9.15343L19.1762 9.72643L19.9504 10.5007L20.5234 9.92769ZM22.312 14.6763C22.312 12.859 21.6296 11.2234 20.5453 9.95135L19.9286 10.477C20.899 11.6154 21.5017 13.0681 21.5017 14.6763H22.312ZM15.0005 21.9878C19.0467 21.9878 22.312 18.7225 22.312 14.6763H21.5017C21.5017 18.275 18.5992 21.1775 15.0005 21.1775V21.9878ZM7.68906 14.6763C7.68906 18.7225 10.9543 21.9878 15.0005 21.9878V21.1775C11.4019 21.1775 8.4994 18.275 8.4994 14.6763H7.68906ZM15.0005 7.36483C10.9543 7.36483 7.68906 10.6301 7.68906 14.6763H8.4994C8.4994 11.0777 11.4019 8.17517 15.0005 8.17517V7.36483ZM2.66091 14.5311C2.92602 14.5311 3.12712 14.7316 3.12712 15H3.93746C3.93746 14.2874 3.37684 13.7208 2.66091 13.7208V14.5311ZM2.192 15C2.192 14.7333 2.39415 14.5311 2.66091 14.5311L2.66091 13.7208C1.94661 13.7208 1.38166 14.2858 1.38166 15H2.192ZM2.6609 15.469C2.39415 15.469 2.192 15.2668 2.192 15H1.38166C1.38166 15.7143 1.94661 16.2793 2.66091 16.2793L2.6609 15.469ZM3.12712 15C3.12712 15.2684 2.92602 15.469 2.66091 15.469V16.2793C3.37684 16.2793 3.93746 15.7127 3.93746 15H3.12712ZM28.6194 15C28.6194 14.2858 28.0545 13.7208 27.3402 13.7208V14.5311C27.6069 14.5311 27.8091 14.7333 27.8091 15H28.6194ZM27.3402 16.2793C28.0545 16.2793 28.6194 15.7143 28.6194 15H27.8091C27.8091 15.2668 27.6069 15.469 27.3402 15.469L27.3402 16.2793ZM26.0636 15C26.0636 15.7127 26.6242 16.2793 27.3402 16.2793V15.469C27.0751 15.469 26.874 15.2684 26.874 15H26.0636ZM27.3402 13.7208C26.6242 13.7208 26.0636 14.2874 26.0636 15H26.874C26.874 14.7316 27.0751 14.5311 27.3402 14.5311V13.7208ZM4.42255 24.0003C5.25032 24.0003 5.90853 24.6585 5.90853 25.4863H6.71887C6.71887 24.211 5.69786 23.19 4.42256 23.19L4.42255 24.0003ZM2.93928 25.4863C2.93928 24.6578 3.59554 24.0003 4.42256 24.0003V23.19C3.14649 23.19 2.12894 24.2118 2.12894 25.4863H2.93928ZM4.42256 26.9696C3.59479 26.9696 2.93928 26.3141 2.93928 25.4863H2.12894C2.12894 26.7616 3.14725 27.7799 4.42256 27.7799V26.9696ZM5.90853 25.4863C5.90853 26.3133 5.25108 26.9696 4.42256 26.9696V27.7799C5.69711 27.7799 6.71887 26.7624 6.71887 25.4863H5.90853ZM27.8371 25.4863C27.8371 24.2118 26.8195 23.19 25.5434 23.19V24.0003C26.3705 24.0003 27.0267 24.6578 27.0267 25.4863H27.8371ZM25.5434 27.7799C26.8188 27.7799 27.8371 26.7616 27.8371 25.4863H27.0267C27.0267 26.3141 26.3712 26.9696 25.5434 26.9696V27.7799ZM23.2471 25.4863C23.2471 26.7624 24.2689 27.7799 25.5434 27.7799V26.9696C24.7149 26.9696 24.0575 26.3133 24.0575 25.4863H23.2471ZM25.5434 23.19C24.2681 23.19 23.2471 24.211 23.2471 25.4863H24.0575C24.0575 24.6585 24.7157 24.0003 25.5434 24.0003V23.19ZM15.0005 26.8735C15.2689 26.8735 15.4694 27.0746 15.4694 27.3397H16.2798C16.2798 26.6237 15.7132 26.0631 15.0005 26.0631V26.8735ZM14.5316 27.3397C14.5316 27.0746 14.7321 26.8735 15.0005 26.8735V26.0631C14.2879 26.0631 13.7213 26.6237 13.7213 27.3397H14.5316ZM15.0005 27.8086C14.7338 27.8086 14.5316 27.6064 14.5316 27.3397H13.7213C13.7213 28.054 14.2862 28.6189 15.0005 28.6189V27.8086ZM15.4694 27.3397C15.4694 27.6064 15.2673 27.8086 15.0005 27.8086V28.6189C15.7148 28.6189 16.2798 28.054 16.2798 27.3397L15.4694 27.3397Z" fill="white"/>
</svg>
