<svg width="20" height="20" viewBox="0 0 20 20" fill="none" xmlns="http://www.w3.org/2000/svg">
<path d="M0.580781 17.0098L0.560781 17.0298C0.290781 16.4398 0.120781 15.7698 0.0507812 15.0298C0.120781 15.7598 0.310781 16.4198 0.580781 17.0098Z" fill="white"/>
<path d="M6.99914 8.38012C8.31358 8.38012 9.37914 7.31456 9.37914 6.00012C9.37914 4.68568 8.31358 3.62012 6.99914 3.62012C5.6847 3.62012 4.61914 4.68568 4.61914 6.00012C4.61914 7.31456 5.6847 8.38012 6.99914 8.38012Z" fill="white"/>
<path d="M14.19 0H5.81C2.17 0 0 2.17 0 5.81V14.19C0 15.28 0.19 16.23 0.56 17.03C1.42 18.93 3.26 20 5.81 20H14.19C17.83 20 20 17.83 20 14.19V11.9V5.81C20 2.17 17.83 0 14.19 0ZM18.37 10.5C17.59 9.83 16.33 9.83 15.55 10.5L11.39 14.07C10.61 14.74 9.35 14.74 8.57 14.07L8.23 13.79C7.52 13.17 6.39 13.11 5.59 13.65L1.85 16.16C1.63 15.6 1.5 14.95 1.5 14.19V5.81C1.5 2.99 2.99 1.5 5.81 1.5H14.19C17.01 1.5 18.5 2.99 18.5 5.81V10.61L18.37 10.5Z" fill="white"/>
</svg>
