<svg width="13" height="19" viewBox="0 0 13 19" fill="none" xmlns="http://www.w3.org/2000/svg">
<path fill-rule="evenodd" clip-rule="evenodd" d="M9.91803 4.67355C10.158 4.60668 10.4131 4.70791 10.542 4.92113C12.0281 7.16038 12.8777 9.7614 13 12.4461C13 16.036 10.0899 18.9461 6.5 18.9461C2.91015 18.9461 0 16.036 0 12.4461C0.0286976 10.8744 0.356188 9.32246 0.965 7.87313C1.5286 6.50101 2.23233 5.19074 3.065 3.96313C3.96313 2.6079 4.98122 1.33612 6.107 0.16313C6.26575 0.00393057 6.50486 -0.0437712 6.71254 0.0423255C6.92022 0.128422 7.05545 0.331308 7.055 0.55613V5.20813C7.055 5.88661 7.60502 6.43663 8.2835 6.43663C8.96198 6.43663 9.512 5.88661 9.512 5.20813C9.51202 4.959 9.67805 4.74042 9.91803 4.67355ZM9.645 12.8561C9.95152 12.8561 10.2 12.6076 10.2 12.3011H10.203V9.92413C10.203 9.61761 9.95452 9.36913 9.648 9.36913H7.27C6.96348 9.36913 6.715 9.61761 6.715 9.92413C6.715 10.2306 6.96348 10.4791 7.27 10.4791H8.308L5.937 12.8501L4.648 11.5611C4.54391 11.457 4.40272 11.3985 4.2555 11.3985C4.10828 11.3985 3.96709 11.457 3.863 11.5611L2.602 12.8221C2.38523 13.0389 2.38523 13.3904 2.602 13.6071C2.81877 13.8239 3.17023 13.8239 3.387 13.6071L4.256 12.7381L5.545 14.0271C5.64909 14.1312 5.79028 14.1897 5.9375 14.1897C6.08472 14.1897 6.22591 14.1312 6.33 14.0271L9.09 11.2641V12.3011C9.09 12.6076 9.33848 12.8561 9.645 12.8561Z" fill="#636363"/>
</svg>
