<svg width="20" height="20" viewBox="0 0 20 20" fill="none" xmlns="http://www.w3.org/2000/svg">
<path fill-rule="evenodd" clip-rule="evenodd" d="M6.9489 2.24231C7.88831 1.87268 8.98934 2.91651 9.99886 2.91651C11.0084 2.91651 12.1094 1.87267 13.0488 2.24231C13.1427 2.27926 13.2358 2.31787 13.328 2.3581C14.253 2.76161 14.294 4.27725 15.0075 4.9908C15.7211 5.70438 17.2368 5.74531 17.6404 6.67025C17.6807 6.76261 17.7194 6.85583 17.7564 6.94989C18.126 7.88931 17.0822 8.99032 17.0822 9.99984C17.0822 11.0094 18.126 12.1104 17.7564 13.0498C17.7195 13.1436 17.6809 13.2366 17.6408 13.3287C17.2372 14.2537 15.7212 14.2947 15.0075 15.0083C14.2939 15.722 14.253 17.2381 13.328 17.6416C13.2358 17.6818 13.1427 17.7204 13.0488 17.7574C12.1094 18.127 11.0084 17.0832 9.99888 17.0832C8.98936 17.0832 7.88834 18.127 6.94892 17.7574C6.85501 17.7204 6.76194 17.6818 6.66974 17.6416C5.74472 17.2381 5.70381 15.7221 4.99019 15.0085C4.27657 14.2949 2.76065 14.254 2.3571 13.329C2.31688 13.2368 2.27828 13.1437 2.24133 13.0498C1.87169 12.1104 2.91554 11.0094 2.91554 9.99984C2.91554 8.99032 1.8717 7.8893 2.24134 6.94988C2.27831 6.8559 2.31695 6.76276 2.3572 6.67049C2.76077 5.74551 4.27659 5.70458 4.99019 4.99098C5.70378 4.2774 5.74475 2.76162 6.66972 2.35809C6.76192 2.31787 6.85499 2.27926 6.9489 2.24231Z" fill="#3749E9"/>
<path fill-rule="evenodd" clip-rule="evenodd" d="M14.009 7.6464C14.1095 7.74017 14.166 7.86733 14.166 7.99991C14.166 8.1325 14.1095 8.25966 14.009 8.35343L9.71948 12.3536C9.61893 12.4473 9.48257 12.5 9.34039 12.5C9.19821 12.5 9.06186 12.4473 8.9613 12.3536L6.81653 10.3535C6.71886 10.2592 6.66481 10.1329 6.66604 10.0018C6.66726 9.8707 6.72365 9.74528 6.82306 9.65258C6.92248 9.55987 7.05696 9.50728 7.19755 9.50614C7.33814 9.505 7.47358 9.5554 7.57471 9.64649L9.34039 11.2931L13.2508 7.6464C13.3514 7.55266 13.4878 7.5 13.6299 7.5C13.7721 7.5 13.9085 7.55266 14.009 7.6464Z" fill="white"/>
</svg>
