<svg width="28" height="28" viewBox="0 0 28 28" fill="none" xmlns="http://www.w3.org/2000/svg">
<path fill-rule="evenodd" clip-rule="evenodd" d="M1.45898 8.16634C1.45898 4.46143 4.46241 1.45801 8.16732 1.45801H19.834C23.5389 1.45801 26.5423 4.46143 26.5423 8.16634V19.833C26.5423 23.5379 23.5389 26.5413 19.834 26.5413H8.16732C4.46241 26.5413 1.45898 23.5379 1.45898 19.833V8.16634ZM8.16732 3.20801C5.42891 3.20801 3.20898 5.42793 3.20898 8.16634V19.833C3.20898 22.5714 5.42891 24.7913 8.16732 24.7913H19.834C22.5724 24.7913 24.7923 22.5714 24.7923 19.833V8.16634C24.7923 5.42793 22.5724 3.20801 19.834 3.20801H8.16732Z" fill="white"/>
<path fill-rule="evenodd" clip-rule="evenodd" d="M2.33398 8.16634C2.33398 4.94468 4.94566 2.33301 8.16732 2.33301H19.834C23.0556 2.33301 25.6673 4.94468 25.6673 8.16634V19.833C25.6673 20.6816 25.4861 21.4878 25.1603 22.2151L25.5884 19.2187C25.6375 18.8754 25.5051 18.5311 25.2386 18.3091L19.9301 13.8853C19.2149 13.2893 18.1633 13.337 17.505 13.9953L11.3492 20.1511C10.8805 20.6198 10.1208 20.6198 9.65212 20.1511L8.07887 18.5779C7.45668 17.9557 6.47586 17.8745 5.75985 18.386L3.33608 20.1172C3.07328 20.3049 2.91732 20.608 2.91732 20.931V22.269C2.91732 22.3115 2.92001 22.3535 2.92529 22.3951C2.54658 21.6217 2.33398 20.7522 2.33398 19.833V8.16634ZM22.4053 24.8926L24.692 23.0632C23.6466 24.6324 21.861 25.6663 19.834 25.6663H8.16732C6.14029 25.6663 4.35475 24.6324 3.30926 23.0632L5.58715 24.8855C5.74779 25.0141 5.94415 25.0899 6.14947 25.1027L15.0946 25.6618C15.143 25.6648 15.1916 25.6643 15.24 25.6603L21.8636 25.1083C22.0616 25.0918 22.2502 25.0167 22.4053 24.8926ZM9.33398 11.6663C8.04532 11.6663 7.00065 10.6217 7.00065 9.33301C7.00065 8.04434 8.04532 6.99967 9.33398 6.99967C10.6226 6.99967 11.6673 8.04434 11.6673 9.33301C11.6673 10.6217 10.6226 11.6663 9.33398 11.6663Z" fill="white"/>
</svg>
