<svg width="157" height="24" viewBox="0 0 157 24" fill="none" xmlns="http://www.w3.org/2000/svg">
<g clip-path="url(#clip0_52_35072)">
<path d="M20.2961 20.0943C20.3449 20.1433 20.3834 20.2016 20.4094 20.2657C20.4354 20.3298 20.4484 20.3984 20.4477 20.4676V22.9286C20.4469 23.0666 20.3889 23.1975 20.285 23.2967C20.1803 23.3979 20.0168 23.4309 19.8953 23.4519L1.27743 23.4388C1.1373 23.4376 1.0034 23.3808 0.90512 23.2809C0.806844 23.181 0.752233 23.0461 0.75328 22.906V20.1134C0.75328 20.0142 0.81522 19.8833 0.91518 19.7723L14.8366 4.25539H0.524911C0.229732 4.253 0.000422977 4.02565 0.00196081 3.73842L0.0205857 1.21876C0.0209472 1.14961 0.0350196 1.08122 0.0619884 1.01754C0.0889572 0.953866 0.128287 0.896172 0.177701 0.847798C0.276684 0.750144 0.410388 0.695784 0.549431 0.696663H0.553788L19.1733 0.720072C19.4637 0.722464 19.6978 0.960487 19.6954 1.25404V3.91014C19.6954 4.10613 19.6542 4.23625 19.5558 4.34578L5.65898 19.9379H19.9256C19.9946 19.9381 20.063 19.952 20.1266 19.9788C20.1902 20.0057 20.2478 20.0449 20.2961 20.0943ZM45.7866 3.80079C47.9862 6.03279 49.1843 8.9833 49.1612 12.108C49.139 15.2319 47.8973 18.1642 45.6652 20.3636C43.4332 22.5632 40.4688 23.7926 37.3584 23.7391C34.2329 23.7165 31.3011 22.4747 29.1016 20.2427C26.9021 18.0107 25.7031 15.0605 25.7262 11.9359C25.7492 8.8108 26.991 5.87849 29.223 3.67904C31.4336 1.50018 34.3496 0.30366 37.4417 0.30366C37.4711 0.30366 37.5013 0.30366 37.5307 0.304087C40.6554 0.326727 43.5864 1.56887 45.7867 3.80087L45.7866 3.80079ZM45.4145 12.0802C45.4462 7.68519 41.8971 4.08366 37.5028 4.05197C33.1173 4.02813 29.5062 7.56857 29.4737 11.9632C29.4419 16.3574 32.991 19.9594 37.3861 19.9919C37.4059 19.9919 37.425 19.9923 37.4449 19.9923C41.8113 19.9919 45.3811 16.4551 45.4145 12.0802ZM98.9138 23.069C98.9669 23.19 98.9162 23.2884 98.8916 23.3253C98.8677 23.3615 98.7979 23.4455 98.6686 23.4455H95.2717C95.1654 23.4448 95.0693 23.3813 95.0281 23.2869L92.8937 18.2829H81.3146L79.0691 23.2872C79.0477 23.3346 79.013 23.3748 78.9692 23.4029C78.9254 23.431 78.8744 23.4458 78.8223 23.4455H75.3835C75.2517 23.4448 75.1827 23.3587 75.159 23.3214C75.1351 23.2845 75.086 23.1857 75.1399 23.0667L85.2566 0.891882C85.3089 0.780389 85.3899 0.708196 85.4644 0.708196H89.0104C89.1065 0.708196 89.1874 0.870865 89.208 0.917684L98.9137 23.0689L98.9138 23.069ZM91.3298 14.7249L87.199 5.31L82.9301 14.7249H91.3298ZM68.9136 19.8752H68.9128L59.2329 19.8761V0.917684C59.2336 0.890062 59.2289 0.862567 59.2189 0.836813C59.2088 0.811059 59.1938 0.787567 59.1746 0.767716C59.1553 0.747865 59.1323 0.732057 59.1069 0.721219C59.0815 0.710382 59.0542 0.704734 59.0265 0.704608L57.3647 0.707342L55.7027 0.704608C55.675 0.704746 55.6477 0.710401 55.6223 0.721243C55.5969 0.732084 55.5739 0.747893 55.5547 0.767742C55.5355 0.78759 55.5204 0.811078 55.5104 0.836826C55.5004 0.862575 55.4956 0.890065 55.4963 0.917684V23.2261C55.4956 23.3042 55.5328 23.3534 55.5559 23.3764C55.5751 23.3961 55.5981 23.4117 55.6234 23.4224C55.6487 23.4331 55.6759 23.4386 55.7034 23.4387L68.7009 23.4485H68.9135C68.9729 23.4493 69.025 23.4279 69.0646 23.389C69.1042 23.35 69.1261 23.2977 69.1265 23.2422V20.0814C69.1264 20.0537 69.1208 20.0264 69.1099 20.001C69.0991 19.9756 69.0833 19.9526 69.0634 19.9334C69.0436 19.9142 69.0201 19.8991 68.9943 19.8891C68.9686 19.8791 68.9411 19.8743 68.9135 19.875L68.9136 19.8752ZM155.661 12.8805C153.442 17.6049 147.06 21.2914 143.452 23.068C142.67 23.4549 142.02 23.7465 141.791 23.8409C141.788 23.8422 141.508 23.9784 141.153 23.9989L141.087 23.9999L141.07 23.9989C140.716 23.9784 140.435 23.8422 140.429 23.8395C140.203 23.7465 139.553 23.4546 138.772 23.068C136.372 21.8864 132.746 19.86 129.933 17.2454C127.12 19.86 123.493 21.8864 121.094 23.068C120.312 23.4549 119.662 23.7465 119.433 23.8409C119.431 23.8422 119.15 23.9784 118.795 23.9989L118.729 23.9999L118.712 23.9989C118.358 23.9784 118.077 23.8422 118.071 23.8395C117.845 23.7465 117.195 23.4546 116.414 23.068C112.806 21.2914 106.423 17.6053 104.205 12.8805C103.199 10.7404 103.094 8.32545 103.909 6.0808C104.751 3.76798 106.461 1.91762 108.722 0.870353C111.822 -0.565389 115.43 -0.205791 118.136 1.80826C118.339 1.96001 118.535 2.11991 118.725 2.28755L118.754 2.31319L118.783 2.28755C118.972 2.11982 119.168 1.95992 119.371 1.80826C122.078 -0.205791 125.685 -0.565218 128.786 0.870353C129.182 1.05393 129.565 1.26457 129.933 1.50078C130.3 1.2646 130.684 1.05396 131.08 0.870353C134.18 -0.565389 137.788 -0.205791 140.494 1.80826C140.697 1.95999 140.893 2.11989 141.083 2.28755L141.112 2.31319L141.141 2.28755C141.33 2.11984 141.526 1.95995 141.729 1.80826C144.436 -0.205791 148.043 -0.565218 151.144 0.870353C153.405 1.91745 155.114 3.76781 155.957 6.08063C156.772 8.32502 156.667 10.7399 155.661 12.8805ZM129.933 12.1629C130.068 11.9394 130.192 11.7091 130.304 11.4728C130.932 10.1333 130.995 8.6208 130.483 7.21333C130.34 6.82142 130.155 6.44593 129.933 6.09327C129.71 6.44592 129.525 6.82142 129.382 7.21333C128.87 8.62105 128.933 10.1335 129.562 11.4728C129.673 11.7091 129.797 11.9394 129.933 12.1629ZM127.715 14.794C127.262 14.1779 126.872 13.5393 126.562 12.8805C125.557 10.7404 125.452 8.32545 126.267 6.0808C126.55 5.30184 126.937 4.56485 127.418 3.88998C127.41 3.88614 127.402 3.88187 127.394 3.87802C126.586 3.50373 125.729 3.31381 124.849 3.31381C123.572 3.31381 122.363 3.71236 121.352 4.46624C120.803 4.87437 120.19 5.43397 119.421 6.75403C119.212 7.14063 118.891 7.72859 118.863 7.76909C118.84 7.80369 118.796 7.86794 118.754 7.86794C118.711 7.86794 118.668 7.80446 118.64 7.76311C118.616 7.72851 118.296 7.1408 118.086 6.75284C117.317 5.43303 116.703 4.87386 116.155 4.46624C115.144 3.71236 113.935 3.31381 112.659 3.31381C111.778 3.31381 110.922 3.50356 110.113 3.87802C108.659 4.55082 107.562 5.73539 107.024 7.21342C106.512 8.62114 106.576 10.1336 107.204 11.4729C109.059 15.4232 115.287 18.8192 117.878 20.096C118.162 20.2364 118.448 20.3733 118.735 20.5066L118.754 20.5151L118.772 20.5066C119.059 20.3732 119.345 20.2363 119.629 20.096C121.453 19.1971 125.08 17.2477 127.715 14.7941L127.715 14.794ZM152.841 7.21333C152.303 5.73539 151.206 4.55074 149.752 3.87794C148.944 3.50364 148.087 3.31372 147.207 3.31372C145.93 3.31372 144.721 3.71228 143.71 4.46616C143.161 4.87428 142.548 5.43388 141.779 6.75395C141.57 7.14054 141.249 7.72851 141.221 7.769C141.198 7.80361 141.155 7.86785 141.112 7.86785C141.069 7.86785 141.026 7.80437 140.998 7.76302C140.974 7.72842 140.654 7.14071 140.444 6.75275C139.675 5.43294 139.061 4.87377 138.513 4.46616C137.502 3.71228 136.293 3.31372 135.017 3.31372C134.136 3.31372 133.28 3.50347 132.471 3.87794C132.463 3.88169 132.455 3.88605 132.447 3.8899C132.928 4.56473 133.315 5.30165 133.599 6.08054C134.414 8.32493 134.309 10.7398 133.303 12.8804C132.994 13.5393 132.603 14.1779 132.151 14.794C134.785 17.2476 138.412 19.197 140.236 20.0959C140.52 20.2363 140.806 20.3732 141.093 20.5065L141.112 20.515L141.13 20.5065C141.417 20.3731 141.703 20.2362 141.987 20.0959C144.578 18.819 150.806 15.4232 152.662 11.4728C153.29 10.1333 153.353 8.6208 152.841 7.21333Z" fill="#0E0E0E"/>
</g>
<defs>
<clipPath id="clip0_52_35072">
<rect width="156.5" height="24" fill="white"/>
</clipPath>
</defs>
</svg>
