<svg width="33" height="16" viewBox="0 0 33 16" fill="none" xmlns="http://www.w3.org/2000/svg">
<path d="M2.85755 0.509924C0.830591 0.867345 -0.558781 2.82535 0.219303 4.7309C1.3056 7.39115 3.03865 9.76137 5.28543 11.6135C8.49815 14.2618 12.5503 15.6769 16.7132 15.6043C20.8762 15.5316 24.8766 13.9759 27.995 11.2171C30.1756 9.28772 31.8249 6.8584 32.8178 4.16189C33.5289 2.23035 32.072 0.322004 30.0338 0.0355773C27.9957 -0.250849 26.1657 1.23269 25.1589 3.02796C24.6132 4.00102 23.9048 4.88384 23.0561 5.63471C21.2669 7.21769 18.9717 8.11019 16.5833 8.15192C14.1947 8.19354 11.8697 7.38171 10.0265 5.86215C9.15202 5.14136 8.41328 4.28383 7.83392 3.33036C6.76517 1.57134 4.88451 0.152503 2.85755 0.509924Z" fill="#51A3EE"/>
</svg>
