<svg width="22" height="22" viewBox="0 0 22 22" fill="none" xmlns="http://www.w3.org/2000/svg">
<path d="M11 22C17.0517 22 22 17.0517 22 11H20.4651C20.4651 16.2041 16.2041 20.4651 11 20.4651V22ZM22 11C22 4.94825 17.0517 0 11 0V1.53488C16.2041 1.53488 20.4651 5.79594 20.4651 11H22ZM11 0C4.94825 0 0 4.94825 0 11H1.53488C1.53488 5.79594 5.79594 1.53488 11 1.53488V0ZM0 11C0 17.0517 4.94825 22 11 22V20.4651C5.79594 20.4651 1.53488 16.2041 1.53488 11H0Z" fill="#93989A"/>
<path d="M12.5349 6.13985C9.00967 6.13985 6.13954 9.02203 6.13954 12.5352H7.67442C7.67442 9.86791 9.85917 7.67473 12.5349 7.67473V6.13985ZM6.13954 12.5352C6.13954 13.156 6.1384 13.6866 6.1842 14.0989C6.22938 14.5055 6.33401 14.9662 6.68408 15.3162C7.03416 15.6663 7.49487 15.7709 7.90145 15.8161C8.31368 15.8619 8.84434 15.8608 9.46512 15.8608V14.3259C8.80683 14.3259 8.37819 14.3248 8.07094 14.2906C7.75804 14.2559 7.7391 14.2006 7.76941 14.2309C7.79972 14.2612 7.74447 14.2423 7.7097 13.9294C7.67556 13.6221 7.67442 13.1935 7.67442 12.5352H6.13954ZM9.46512 15.8608C12.9792 15.8608 15.8605 12.9795 15.8605 9.46543H14.3256C14.3256 12.1318 12.1315 14.3259 9.46512 14.3259V15.8608ZM15.8605 9.46543C15.8605 8.82547 15.8616 8.28534 15.8159 7.8699C15.7711 7.46256 15.667 6.99562 15.3075 6.64706C14.9506 6.30099 14.4835 6.2098 14.0858 6.17231C13.6798 6.13403 13.1499 6.13985 12.5349 6.13985V7.67473C13.1989 7.67473 13.6283 7.67086 13.9418 7.70042C14.2636 7.73076 14.2761 7.78493 14.239 7.74894C14.1993 7.71047 14.2551 7.71833 14.2902 8.03773C14.3245 8.34904 14.3256 8.78757 14.3256 9.46543H15.8605Z" fill="#93989A"/>
</svg>
