<svg width="24" height="24" viewBox="0 0 24 24" fill="none" xmlns="http://www.w3.org/2000/svg">
<path d="M12.7506 7.5V11.5688L16.2756 13.6031C16.4173 13.6863 16.5277 13.8136 16.59 13.9656C16.6523 14.1176 16.663 14.2858 16.6204 14.4445C16.5778 14.6031 16.4843 14.7434 16.3543 14.8438C16.2242 14.9441 16.0648 14.999 15.9006 15C15.7681 15.0037 15.6375 14.9678 15.5256 14.8969L11.6256 12.6469H11.6068L11.5693 12.6188L11.5412 12.6L11.5131 12.5813L11.485 12.5531L11.4662 12.5344C11.4475 12.525 11.4381 12.5063 11.4287 12.4969L11.41 12.4781L11.3912 12.4406L11.3725 12.4125L11.3537 12.3844C11.3479 12.38 11.3432 12.3744 11.3399 12.3678C11.3366 12.3613 11.335 12.3542 11.335 12.3469L11.3162 12.3188C11.3162 12.3094 11.3068 12.3 11.3068 12.2813C11.3034 12.2775 11.3009 12.273 11.2992 12.2682C11.2976 12.2633 11.297 12.2582 11.2975 12.2531L11.2787 12.2156C11.2791 12.2106 11.2785 12.2054 11.2769 12.2006C11.2753 12.1958 11.2727 12.1913 11.2693 12.1875C11.2693 12.1688 11.2693 12.1594 11.26 12.15V12.1125C11.26 12.0938 11.2506 12.0844 11.2506 12.075V7.5C11.2506 7.30109 11.3296 7.11033 11.4702 6.96967C11.6109 6.82902 11.8017 6.75 12.0006 6.75C12.1995 6.75 12.3903 6.82902 12.5309 6.96967C12.6716 7.11033 12.7506 7.30109 12.7506 7.5ZM21.6381 9.76875C21.6475 9.75 21.6568 9.74063 21.6568 9.73126L21.6756 9.70313C21.685 9.69375 21.685 9.675 21.6943 9.66563L21.7131 9.63751C21.7117 9.62429 21.715 9.61101 21.7225 9.60001C21.7225 9.59063 21.7318 9.58125 21.7318 9.5625C21.7352 9.5587 21.7378 9.55424 21.7394 9.54941C21.741 9.54457 21.7416 9.53946 21.7412 9.53438C21.7412 9.51563 21.7506 9.50626 21.7506 9.49688C21.7506 9.4875 21.76 9.46875 21.76 9.45938V9.42188C21.7677 9.39767 21.7708 9.37224 21.7693 9.34688V5.59688C21.7693 5.39797 21.6903 5.2072 21.5497 5.06655C21.409 4.9259 21.2182 4.84688 21.0193 4.84688C20.8204 4.84688 20.6297 4.9259 20.489 5.06655C20.3483 5.2072 20.2693 5.39797 20.2693 5.59688V7.5375L18.3662 5.63438C17.1073 4.37618 15.5037 3.51948 13.758 3.17259C12.0123 2.82571 10.2029 3.00421 8.55867 3.68554C6.91441 4.36687 5.50908 5.52042 4.52035 7.00036C3.53163 8.4803 3.00391 10.2202 3.00391 12C3.00391 13.7798 3.53163 15.5197 4.52035 16.9996C5.50908 18.4796 6.91441 19.6331 8.55867 20.3145C10.2029 20.9958 12.0123 21.1743 13.758 20.8274C15.5037 20.4805 17.1073 19.6238 18.3662 18.3656C18.5065 18.225 18.5852 18.0345 18.5852 17.8359C18.5852 17.6373 18.5065 17.4469 18.3662 17.3063C18.2972 17.2357 18.2148 17.1796 18.1239 17.1413C18.0329 17.103 17.9352 17.0833 17.8365 17.0833C17.7378 17.0833 17.6401 17.103 17.5492 17.1413C17.4582 17.1796 17.3758 17.2357 17.3068 17.3063C16.2576 18.3543 14.9212 19.0678 13.4666 19.3565C12.012 19.6452 10.5044 19.4962 9.13442 18.9283C7.76446 18.3604 6.59362 17.3991 5.76988 16.1659C4.94613 14.9327 4.50648 13.483 4.50648 12C4.50648 10.517 4.94613 9.06728 5.76988 7.83409C6.59362 6.60091 7.76446 5.63961 9.13442 5.07171C10.5044 4.5038 12.012 4.35479 13.4666 4.6435C14.9212 4.93222 16.2576 5.6457 17.3068 6.69375L19.21 8.59688H17.2693C17.0704 8.59688 16.8797 8.6759 16.739 8.81655C16.5983 8.9572 16.5193 9.14797 16.5193 9.34688C16.5193 9.54579 16.5983 9.73656 16.739 9.87721C16.8797 10.0179 17.0704 10.0969 17.2693 10.0969H21.235L21.2725 10.0781H21.3006L21.3381 10.0594H21.3662L21.4037 10.0406L21.4318 10.0219L21.4693 9.99375L21.4881 9.97501L21.6006 9.87188L21.6193 9.84375L21.6381 9.76875Z" fill="#E2E7E9"/>
</svg>
