<svg width="22" height="22" viewBox="0 0 22 22" fill="none" xmlns="http://www.w3.org/2000/svg">
<path d="M21.2436 11.7288C21.7478 11.1513 21.9999 10.4685 21.9999 9.68006C21.9999 8.96509 21.7383 8.34644 21.2169 7.82367C20.6944 7.30095 20.0758 7.03973 19.3608 7.03973H15.5523C15.5889 6.91144 15.6256 6.80144 15.6622 6.70979C15.6984 6.61815 15.7494 6.5172 15.8133 6.40721C15.8773 6.29716 15.9232 6.21462 15.9507 6.15972C16.1156 5.84822 16.2419 5.59139 16.329 5.38989C16.4161 5.18801 16.5027 4.91311 16.5901 4.56478C16.6773 4.21663 16.7206 3.86815 16.7206 3.51982C16.7206 3.29992 16.718 3.12101 16.7136 2.98361C16.7094 2.84612 16.686 2.6398 16.6451 2.36477C16.6036 2.08987 16.5485 1.86068 16.4799 1.67744C16.4111 1.49414 16.301 1.28773 16.15 1.05873C15.9987 0.829303 15.8154 0.643938 15.5998 0.501772C15.3843 0.359702 15.1094 0.240556 14.7748 0.144382C14.4399 0.0481111 14.062 0 13.6401 0C13.4018 0 13.1957 0.0871201 13.0214 0.261312C12.8381 0.444607 12.682 0.673748 12.5538 0.948642C12.4254 1.22368 12.336 1.46202 12.2855 1.66376C12.2351 1.8654 12.1777 2.14506 12.1138 2.50245C12.031 2.88763 11.9694 3.16474 11.9279 3.33431C11.8867 3.50388 11.8063 3.72613 11.6873 4.00107C11.568 4.27621 11.426 4.49605 11.261 4.66114C10.9586 4.96358 10.4957 5.51361 9.87223 6.31103C9.42295 6.89761 8.96009 7.45217 8.48346 7.9747C8.00673 8.49732 7.65844 8.76769 7.4385 8.78604C7.2095 8.80434 7.01239 8.89829 6.84734 9.06796C6.6823 9.23753 6.5998 9.43696 6.5998 9.66605V18.4797C6.5998 18.718 6.68683 18.9219 6.86102 19.0914C7.03512 19.2612 7.24138 19.3505 7.47972 19.3597C7.80051 19.3689 8.52468 19.5704 9.65224 19.9649C10.358 20.2029 10.9102 20.3842 11.3089 20.5078C11.7076 20.6313 12.2648 20.7644 12.9793 20.9066C13.6944 21.0486 14.3543 21.1199 14.9591 21.1199H15.1929H16.238H16.7329C17.9523 21.1016 18.8548 20.7439 19.4417 20.0475C19.9732 19.4149 20.1976 18.5853 20.1154 17.5586C20.4729 17.2195 20.7205 16.7889 20.8578 16.2662C21.0134 15.7074 21.0134 15.1711 20.8578 14.6579C21.2794 14.0987 21.4765 13.4708 21.4489 12.7741C21.45 12.4805 21.3814 12.1322 21.2436 11.7288Z" fill="#742996"/>
<path d="M4.84001 8.80015H0.880159C0.641674 8.80015 0.435408 8.88727 0.261264 9.06146C0.0871202 9.23555 0 9.44182 0 9.68016V18.4804C0 18.7184 0.0871201 18.9248 0.261312 19.0991C0.435601 19.273 0.641867 19.3602 0.880207 19.3602H4.84001C5.0783 19.3602 5.28447 19.273 5.45871 19.0991C5.63285 18.9248 5.71993 18.7185 5.71993 18.4804V9.68016C5.71993 9.44182 5.63281 9.2356 5.45871 9.06146C5.28452 8.88722 5.07835 8.80015 4.84001 8.80015Z" fill="#742996"/>
</svg>
