<svg width="190" height="127" viewBox="0 0 190 127" fill="none" xmlns="http://www.w3.org/2000/svg">
<path opacity="0.3" d="M134.107 111.727H36.7188" stroke="white" stroke-width="2.11094" stroke-miterlimit="10" stroke-linecap="round"/>
<path opacity="0.3" d="M173.152 111.727H147.805" stroke="white" stroke-width="2.11094" stroke-miterlimit="10" stroke-linecap="round"/>
<path opacity="0.3" d="M77.7975 117.674H58.5352" stroke="white" stroke-width="2.11094" stroke-miterlimit="10" stroke-linecap="round"/>
<path d="M111.941 38.4082H54.9929C51.9938 38.4082 49.5625 40.8395 49.5625 43.8386V106.343C49.5625 109.343 51.9938 111.774 54.9929 111.774H111.941C114.94 111.774 117.371 109.343 117.371 106.343V43.8386C117.371 40.8395 114.94 38.4082 111.941 38.4082Z" fill="white"/>
<path opacity="0.4" d="M49.5312 48.6671V44.2077C49.5354 42.7688 50.1089 41.39 51.1264 40.3725C52.1439 39.355 53.5227 38.7815 54.9616 38.7773H111.888C113.327 38.7815 114.706 39.355 115.724 40.3725C116.741 41.39 117.315 42.7688 117.319 44.2077V48.6671" fill="#E4E6E7"/>
<path opacity="0.3" d="M56.27 45.5811C57.226 45.5811 58.001 44.8061 58.001 43.8501C58.001 42.8941 57.226 42.1191 56.27 42.1191C55.314 42.1191 54.5391 42.8941 54.5391 43.8501C54.5391 44.8061 55.314 45.5811 56.27 45.5811Z" fill="white"/>
<path opacity="0.3" d="M62.3013 45.5811C63.2573 45.5811 64.0322 44.8061 64.0322 43.8501C64.0322 42.8941 63.2573 42.1191 62.3013 42.1191C61.3453 42.1191 60.5703 42.8941 60.5703 43.8501C60.5703 44.8061 61.3453 45.5811 62.3013 45.5811Z" fill="white"/>
<path opacity="0.1" d="M111.192 52.2773H56.7247C55.3752 52.2773 54.2812 53.3713 54.2812 54.7208V67.6661C54.2812 69.0155 55.3752 70.1095 56.7247 70.1095H111.192C112.542 70.1095 113.636 69.0155 113.636 67.6661V54.7208C113.636 53.3713 112.542 52.2773 111.192 52.2773Z" fill="white"/>
<path opacity="0.1" d="M72.4775 74.8906H56.7247C55.3752 74.8906 54.2812 75.9846 54.2812 77.334V83.5296C54.2812 84.8791 55.3752 85.973 56.7247 85.973H72.4775C73.827 85.973 74.9209 84.8791 74.9209 83.5296V77.334C74.9209 75.9846 73.827 74.8906 72.4775 74.8906Z" fill="white"/>
<path opacity="0.1" d="M110.786 92.7012H95.0333C93.6838 92.7012 92.5898 93.7951 92.5898 95.1446V101.34C92.5898 102.69 93.6838 103.784 95.0333 103.784H110.786C112.136 103.784 113.23 102.69 113.23 101.34V95.1446C113.23 93.7951 112.136 92.7012 110.786 92.7012Z" fill="white"/>
<path opacity="0.3" d="M94.9938 75.7617H78.2383" stroke="white" stroke-width="2.11094" stroke-miterlimit="10" stroke-linecap="round"/>
<path opacity="0.3" d="M111 80.6055H78.2383" stroke="white" stroke-width="2.11094" stroke-miterlimit="10" stroke-linecap="round"/>
<path opacity="0.3" d="M102.91 85.4551H78.2383" stroke="white" stroke-width="2.11094" stroke-miterlimit="10" stroke-linecap="round"/>
<path opacity="0.3" d="M71.2985 93.3926H54.543" stroke="white" stroke-width="2.11094" stroke-miterlimit="10" stroke-linecap="round"/>
<path opacity="0.3" d="M87.3047 98.2422H54.543" stroke="white" stroke-width="2.11094" stroke-miterlimit="10" stroke-linecap="round"/>
<path opacity="0.3" d="M79.2145 103.088H54.543" stroke="white" stroke-width="2.11094" stroke-miterlimit="10" stroke-linecap="round"/>
<path d="M117.823 52.959V106.107C117.819 107.542 117.249 108.918 116.236 109.935C115.223 110.952 113.849 111.528 112.414 111.538H55.4187C53.9797 111.533 52.6009 110.96 51.5834 109.942C50.5659 108.925 49.9925 107.546 49.9883 106.107V43.6023C49.9925 42.1633 50.5659 40.7845 51.5834 39.767C52.6009 38.7495 53.9797 38.1761 55.4187 38.1719H111.359" stroke="white" stroke-width="2.11094" stroke-linecap="round" stroke-linejoin="round"/>
<path opacity="0.3" d="M165.849 106.327C167.015 106.327 167.96 105.382 167.96 104.216C167.96 103.051 167.015 102.105 165.849 102.105C164.683 102.105 163.738 103.051 163.738 104.216C163.738 105.382 164.683 106.327 165.849 106.327Z" stroke="white" stroke-width="1.05547" stroke-miterlimit="10"/>
<path opacity="0.3" d="M129.119 17.0408H127.536V15.4576C127.536 15.2477 127.453 15.0463 127.304 14.8979C127.156 14.7494 126.954 14.666 126.745 14.666C126.535 14.666 126.333 14.7494 126.185 14.8979C126.036 15.0463 125.953 15.2477 125.953 15.4576V17.0408H124.37C124.16 17.0408 123.958 17.1242 123.81 17.2727C123.662 17.4211 123.578 17.6225 123.578 17.8324C123.578 18.0424 123.662 18.2437 123.81 18.3922C123.958 18.5406 124.16 18.624 124.37 18.624H125.953V20.2072C125.953 20.4172 126.036 20.6185 126.185 20.767C126.333 20.9154 126.535 20.9988 126.745 20.9988C126.954 20.9988 127.156 20.9154 127.304 20.767C127.453 20.6185 127.536 20.4172 127.536 20.2072V18.624H129.119C129.329 18.624 129.531 18.5406 129.679 18.3922C129.828 18.2437 129.911 18.0424 129.911 17.8324C129.911 17.6225 129.828 17.4211 129.679 17.2727C129.531 17.1242 129.329 17.0408 129.119 17.0408Z" fill="white"/>
<path opacity="0.3" d="M132.307 94.0057H130.724V92.4225C130.724 92.2125 130.64 92.0112 130.492 91.8627C130.343 91.7143 130.142 91.6309 129.932 91.6309C129.722 91.6309 129.521 91.7143 129.372 91.8627C129.224 92.0112 129.14 92.2125 129.14 92.4225V94.0057H127.557C127.347 94.0057 127.146 94.0891 126.997 94.2375C126.849 94.386 126.766 94.5873 126.766 94.7973C126.766 95.0072 126.849 95.2086 126.997 95.357C127.146 95.5055 127.347 95.5889 127.557 95.5889H129.14V97.1721C129.14 97.382 129.224 97.5834 129.372 97.7318C129.521 97.8803 129.722 97.9637 129.932 97.9637C130.142 97.9637 130.343 97.8803 130.492 97.7318C130.64 97.5834 130.724 97.382 130.724 97.1721V95.5889H132.307C132.517 95.5889 132.718 95.5055 132.867 95.357C133.015 95.2086 133.098 95.0072 133.098 94.7973C133.098 94.5873 133.015 94.386 132.867 94.2375C132.718 94.0891 132.517 94.0057 132.307 94.0057Z" fill="white"/>
<path d="M50.0156 56.1782V43.6023C50.0198 42.1679 50.5896 40.793 51.6014 39.7763C52.6132 38.7595 53.9853 38.183 55.4196 38.1719H112.415C113.854 38.1761 115.233 38.7495 116.25 39.767C117.268 40.7845 117.841 42.1633 117.845 43.6023V64.242" stroke="white" stroke-width="2.11094" stroke-linecap="round" stroke-linejoin="round"/>
<path opacity="0.3" d="M75.5331 62.99C75.0054 63.4438 75.1532 63.7499 75.8339 63.676L77.0741 63.5441L77.5649 64.6893C77.8341 65.3173 78.1718 65.2856 78.3143 64.6154C78.3829 64.2777 78.5729 63.3963 78.5729 63.3963L79.8131 63.2802C80.4938 63.2169 80.5677 62.8897 79.9714 62.5467L78.9159 61.924L79.1692 60.6891C79.3223 60.0188 79.0267 59.85 78.5201 60.3091L77.586 61.164L76.5305 60.5307C75.9395 60.1824 75.6862 60.4041 75.9712 61.0321L76.4989 62.172L75.5331 62.99Z" fill="white"/>
<path opacity="0.3" d="M81.8847 56.6836C81.3569 56.9475 81.3569 57.2483 81.9797 57.3486L83.0773 57.5333L83.2251 58.6362C83.3095 59.2431 83.6051 59.2959 83.8848 58.7523L84.4125 57.7655L85.5049 57.966C86.1065 58.0768 86.249 57.8077 85.8163 57.375L85.0352 56.5833L85.563 55.6018C85.8532 55.074 85.6421 54.8471 85.0933 55.1215L84.0959 55.6176L83.3307 54.8154C82.9085 54.3721 82.6393 54.5094 82.729 55.111L82.8926 56.2139L81.8847 56.6836Z" fill="white"/>
<path opacity="0.3" d="M88.3199 63.7352L88.7368 62.4212C88.9638 61.6982 89.3384 61.6982 89.5706 62.4212L89.9823 63.7299H91.3649C92.1249 63.7299 92.241 64.0782 91.6235 64.5215L90.4995 65.3237L90.9375 66.6325C91.175 67.3555 90.8741 67.5718 90.262 67.1233L89.1537 66.3053L88.0402 67.1233C87.428 67.5718 87.1272 67.3502 87.3647 66.6325L87.8027 65.3237L86.6787 64.5215C86.0612 64.0835 86.1509 63.7247 86.9372 63.7299L88.3199 63.7352Z" fill="white"/>
<path opacity="0.3" d="M133.525 88.0569C136.427 81.3383 137.9 74.0894 137.851 66.7709C137.801 59.4524 136.23 52.2242 133.237 45.5456C130.243 38.867 125.894 32.884 120.464 27.9767C115.034 23.0693 108.643 19.345 101.697 17.0404C94.7508 14.7357 87.401 13.901 80.1148 14.5894C72.8285 15.2778 65.7651 17.4742 59.3733 21.0391C52.9815 24.6039 47.4011 29.4593 42.9865 35.2966C38.572 41.134 35.4199 47.8258 33.7305 54.9468" stroke="white" stroke-width="2.11094" stroke-miterlimit="10" stroke-linecap="round" stroke-dasharray="1.06 4.22"/>
<path opacity="0.7" d="M102.912 31.1789C104.078 31.1789 105.023 30.2338 105.023 29.068C105.023 27.9021 104.078 26.957 102.912 26.957C101.746 26.957 100.801 27.9021 100.801 29.068C100.801 30.2338 101.746 31.1789 102.912 31.1789Z" stroke="white" stroke-width="1.05547" stroke-miterlimit="10"/>
<path d="M43.1826 93.039C54.0832 93.039 62.9198 84.2023 62.9198 73.3017C62.9198 62.4011 54.0832 53.5645 43.1826 53.5645C32.282 53.5645 23.4453 62.4011 23.4453 73.3017C23.4453 84.2023 32.282 93.039 43.1826 93.039Z" fill="white"/>
<path d="M44.6244 87.8894C53.3419 87.8894 60.4089 80.8224 60.4089 72.1049C60.4089 63.3873 53.3419 56.3203 44.6244 56.3203C35.9068 56.3203 28.8398 63.3873 28.8398 72.1049C28.8398 80.8224 35.9068 87.8894 44.6244 87.8894Z" stroke="#81B441" stroke-width="2.11094" stroke-miterlimit="10" stroke-linecap="round"/>
<path opacity="0.22" d="M42.4469 91.1986C51.5347 91.1986 58.9017 83.8315 58.9017 74.7438C58.9017 65.6561 51.5347 58.2891 42.4469 58.2891C33.3592 58.2891 25.9922 65.6561 25.9922 74.7438C25.9922 83.8315 33.3592 91.1986 42.4469 91.1986Z" fill="#81B441"/>
<path d="M32.4855 83.7363L20.1523 96.0748" stroke="#81B441" stroke-width="3.69414" stroke-miterlimit="10" stroke-linecap="round"/>
<path d="M42.827 70.189L43.7242 67.3551C44.215 65.7983 45.0224 65.7983 45.5185 67.3551C45.7665 68.1256 46.4103 70.1732 46.4103 70.1732H49.3868C51.0227 70.1732 51.2655 70.9279 49.9409 71.8725L47.5027 73.6193L48.4421 76.4321C48.9698 77.9837 48.3049 78.4534 46.9961 77.4876L44.6108 75.725L42.2254 77.4929C40.9113 78.4586 40.2622 77.989 40.7794 76.4374L41.6977 73.6193L39.2806 71.8884C37.9507 70.9384 38.2252 70.1732 39.8348 70.189H42.827Z" fill="white"/>
<path opacity="0.3" d="M36.0998 102.297H34.5166V100.713C34.5166 100.504 34.4332 100.302 34.2847 100.154C34.1363 100.005 33.9349 99.9219 33.725 99.9219C33.5151 99.9219 33.3137 100.005 33.1653 100.154C33.0168 100.302 32.9334 100.504 32.9334 100.713V102.297H31.3502C31.1402 102.297 30.9389 102.38 30.7904 102.529C30.642 102.677 30.5586 102.878 30.5586 103.088C30.5586 103.298 30.642 103.5 30.7904 103.648C30.9389 103.796 31.1402 103.88 31.3502 103.88H32.9334V105.463C32.9334 105.673 33.0168 105.874 33.1653 106.023C33.3137 106.171 33.5151 106.255 33.725 106.255C33.9349 106.255 34.1363 106.171 34.2847 106.023C34.4332 105.874 34.5166 105.673 34.5166 105.463V103.88H36.0998C36.3098 103.88 36.5111 103.796 36.6596 103.648C36.808 103.5 36.8914 103.298 36.8914 103.088C36.8914 102.878 36.808 102.677 36.6596 102.529C36.5111 102.38 36.3098 102.297 36.0998 102.297Z" fill="white"/>
</svg>
