<svg width="18" height="19" viewBox="0 0 18 19" fill="none" xmlns="http://www.w3.org/2000/svg">
<path d="M7.5 8.625C7.5 8.8475 7.43402 9.06501 7.3104 9.25002C7.18679 9.43502 7.01109 9.57922 6.80552 9.66437C6.59995 9.74951 6.37375 9.77179 6.15552 9.72838C5.93729 9.68498 5.73684 9.57783 5.5795 9.4205C5.42217 9.26316 5.31503 9.06271 5.27162 8.84448C5.22821 8.62625 5.25049 8.40005 5.33564 8.19448C5.42078 7.98891 5.56498 7.81321 5.74998 7.6896C5.93499 7.56598 6.1525 7.5 6.375 7.5C6.67337 7.5 6.95952 7.61853 7.1705 7.82951C7.38147 8.04048 7.5 8.32663 7.5 8.625ZM11.625 7.5C11.4025 7.5 11.185 7.56598 11 7.6896C10.815 7.81321 10.6708 7.98891 10.5856 8.19448C10.5005 8.40005 10.4782 8.62625 10.5216 8.84448C10.565 9.06271 10.6722 9.26316 10.8295 9.4205C10.9868 9.57783 11.1873 9.68498 11.4055 9.72838C11.6238 9.77179 11.85 9.74951 12.0555 9.66437C12.2611 9.57922 12.4368 9.43502 12.5604 9.25002C12.684 9.06501 12.75 8.8475 12.75 8.625C12.75 8.32663 12.6315 8.04048 12.4205 7.82951C12.2095 7.61853 11.9234 7.5 11.625 7.5ZM18 9V18C18.0004 18.142 17.96 18.2812 17.8835 18.4008C17.807 18.5205 17.6978 18.6157 17.5688 18.675C17.441 18.7376 17.2978 18.762 17.1565 18.7454C17.0152 18.7288 16.8817 18.6718 16.7719 18.5813L14.5031 16.7156L12.225 18.5813C12.0912 18.6901 11.924 18.7496 11.7516 18.7496C11.5791 18.7496 11.4119 18.6901 11.2781 18.5813L9 16.7156L6.72188 18.5813C6.58811 18.6901 6.42091 18.7496 6.24844 18.7496C6.07597 18.7496 5.90877 18.6901 5.775 18.5813L3.49688 16.7156L1.22812 18.5813C1.11715 18.6684 0.984103 18.7229 0.843898 18.7386C0.703693 18.7543 0.561877 18.7307 0.434353 18.6703C0.306829 18.61 0.19864 18.5153 0.12192 18.3969C0.0451997 18.2785 0.00298156 18.1411 0 18V9C3.55683e-08 6.61305 0.948212 4.32387 2.63604 2.63604C4.32387 0.948211 6.61305 0 9 0C11.3869 0 13.6761 0.948211 15.364 2.63604C17.0518 4.32387 18 6.61305 18 9ZM16.5 9C16.5 7.01088 15.7098 5.10322 14.3033 3.6967C12.8968 2.29018 10.9891 1.5 9 1.5C7.01088 1.5 5.10322 2.29018 3.6967 3.6967C2.29018 5.10322 1.5 7.01088 1.5 9V16.4156L3.02813 15.1688C3.16189 15.0599 3.32909 15.0004 3.50156 15.0004C3.67403 15.0004 3.84124 15.0599 3.975 15.1688L6.25313 17.0344L8.52188 15.1688C8.65712 15.0591 8.82592 14.9993 9 14.9993C9.17408 14.9993 9.34288 15.0591 9.47813 15.1688L11.7469 17.0344L14.025 15.1688C14.1588 15.0599 14.326 15.0004 14.4984 15.0004C14.6709 15.0004 14.8381 15.0599 14.9719 15.1688L16.5 16.4156V9Z" fill="#EB9947"/>
</svg>
