<svg width="7" height="21" viewBox="0 0 7 21" fill="none" xmlns="http://www.w3.org/2000/svg">
<path d="M6.99834 2.33335C6.99834 1.05001 5.42333 -6.88459e-08 3.49831 -1.52991e-07C1.5733 -2.37136e-07 -0.00170911 1.05001 -0.00170917 2.33335C-0.00170922 3.61669 1.5733 4.6667 3.49831 4.6667C5.42333 4.6667 6.99834 3.61669 6.99834 2.33335Z" fill="#93989A"/>
<path d="M6.99834 18.6668C6.99834 17.3835 5.42333 16.3334 3.49831 16.3334C1.5733 16.3334 -0.00170911 17.3835 -0.00170917 18.6668C-0.00170922 19.9501 1.5733 21.0001 3.49831 21.0001C5.42333 21.0001 6.99834 19.9501 6.99834 18.6668Z" fill="#93989A"/>
<path d="M6.99834 10.5001C6.99834 9.21673 5.42333 8.16672 3.49831 8.16672C1.5733 8.16672 -0.00170911 9.21673 -0.00170917 10.5001C-0.00170922 11.7834 1.5733 12.8334 3.49831 12.8334C5.42333 12.8334 6.99834 11.7834 6.99834 10.5001Z" fill="#93989A"/>
</svg>
