<svg width="30" height="30" viewBox="0 0 30 30" fill="none" xmlns="http://www.w3.org/2000/svg">
<g clip-path="url(#clip0_52_38507)">
<path d="M1.40625 22.4062L0.75 22.9688L3.75 26.3438L5.4375 25.5L2.90625 22.9688L1.40625 22.4062ZM27.6562 2.4375L29.25 6H27.5625L26.5312 2.8125L27.6562 2.4375Z" fill="#1C364F"/>
<path d="M24.0936 0.1875L6.28106 0.46875C4.40606 0.46875 2.62481 2.15625 2.34356 4.125L0.281059 20.3437C-0.000191212 22.5 1.31231 24.375 3.28106 24.5625L21.9373 26.25C24.2811 26.4375 26.4373 24.6562 26.6248 22.2187L27.9373 4.125C28.0311 1.96875 26.3436 0.1875 24.0936 0.1875Z" fill="#1C364F"/>
<path d="M26.1561 4.40607L8.99988 4.68732C7.12488 4.68732 5.53113 6.28107 5.24988 8.15607L3.18738 23.7186C2.90613 25.7811 4.21863 27.6561 6.09363 27.7498L23.9999 29.3436C26.2499 29.5311 28.3124 27.8436 28.4999 25.4998L29.8124 8.06232C29.9061 5.99982 28.3124 4.31232 26.1561 4.40607Z" fill="#1C364F"/>
<path d="M4.125 3.46875L4.875 2.34375L24.1875 1.6875L25.2188 3.1875C25.3125 3.375 24.75 5.0625 24.75 5.0625L4.96875 4.96875L4.125 3.46875ZM2.15625 21.2812L3 20.25L22.3125 20.625L23.25 22.125C23.3438 22.3125 22.6875 23.9062 22.6875 23.9062L3 22.7812L2.15625 21.2812Z" fill="#5E636B"/>
<path d="M23.3437 1.125L6.74995 1.40625C4.9687 1.40625 3.37495 2.90625 3.0937 4.78125L1.2187 19.875C0.93745 21.8438 2.24995 23.625 4.0312 23.8125L21.375 25.4062C23.625 25.5938 25.5 23.9062 25.6875 21.6562L26.9062 4.78125C27.0937 2.71875 25.5 1.125 23.3437 1.125ZM4.7812 22.3125L3.93745 22.2188C3.4687 22.2188 3.0937 21.75 3.18745 21.2812V21.0938C3.2812 20.625 3.6562 20.3438 4.12495 20.3438L4.9687 20.4375C5.43745 20.4375 5.81245 20.9062 5.7187 21.375L5.62495 21.5625C5.62495 22.0312 5.1562 22.3125 4.7812 22.3125ZM6.93745 4.3125H6.18745C5.7187 4.3125 5.24995 3.84375 5.3437 3.375C5.43745 3 5.7187 2.625 6.18745 2.625H6.93745C7.4062 2.625 7.87495 3.09375 7.7812 3.5625C7.7812 4.03125 7.4062 4.3125 6.93745 4.3125ZM8.81245 22.5938L7.87495 22.5C7.4062 22.5 7.0312 22.0312 7.12495 21.5625V21.375C7.2187 20.9062 7.5937 20.625 8.06245 20.625L8.99995 20.7188C9.4687 20.7188 9.8437 21.1875 9.74995 21.6562V21.8437C9.6562 22.3125 9.2812 22.6875 8.81245 22.5938ZM10.875 4.3125H10.0312C9.56245 4.3125 9.0937 3.84375 9.18745 3.375C9.2812 2.90625 9.56245 2.625 10.0312 2.625H10.875C11.3437 2.625 11.8125 3.09375 11.7187 3.5625C11.7187 4.03125 11.3437 4.3125 10.875 4.3125ZM13.0312 22.9688L12 22.875C11.5312 22.875 11.1562 22.4062 11.25 21.9375V21.75C11.3437 21.2812 11.7187 21 12.1875 21L13.2187 21.0938C13.6875 21.0938 14.0624 21.5625 13.9687 22.0312V22.3125C13.8749 22.6875 13.4999 23.0625 13.0312 22.9688ZM15 4.3125H14.0625C13.5937 4.3125 13.125 3.84375 13.2187 3.375V3.28125C13.2187 2.8125 13.5937 2.53125 14.0625 2.53125H15C15.4687 2.53125 15.9375 3 15.8437 3.46875V3.5625C15.75 4.03125 15.375 4.3125 15 4.3125ZM17.4375 23.3437L16.3125 23.25C15.8437 23.25 15.4687 22.7812 15.5625 22.3125V22.0312C15.5625 21.5625 16.0312 21.1875 16.5 21.2812L17.625 21.375C18.0937 21.375 18.4687 21.8437 18.375 22.3125V22.5938C18.2812 23.0625 17.9062 23.3437 17.4375 23.3437ZM19.2187 4.3125H18.1875C17.7187 4.3125 17.25 3.84375 17.3437 3.375V3.28125C17.3437 2.8125 17.7187 2.53125 18.1875 2.53125H19.2187C19.6875 2.53125 20.1562 3 20.0625 3.46875V3.5625C20.0625 4.03125 19.6875 4.3125 19.2187 4.3125ZM22.0312 23.7187L20.8125 23.625C20.3437 23.625 19.9687 23.1562 20.0625 22.6875V22.4062C20.0625 21.9375 20.5312 21.5625 21 21.6562L22.2187 21.75C22.6875 21.75 23.0625 22.2188 22.9687 22.6875V22.9688C22.875 23.4375 22.5 23.8125 22.0312 23.7187ZM23.625 4.3125H22.5C22.0312 4.3125 21.6562 3.84375 21.6562 3.375V3.28125C21.6562 2.8125 22.0312 2.53125 22.5 2.53125H23.625C24.0937 2.53125 24.5625 2.90625 24.4687 3.46875V3.5625C24.4687 3.9375 24.0937 4.3125 23.625 4.3125Z" fill="#295472"/>
<path d="M2.43765 10.125L1.2189 19.5L1.12515 20.0625C1.0314 21.6562 1.87515 23.625 4.0314 23.9062L21.8439 25.5H21.9376C23.7189 25.6875 25.5939 23.9062 25.6876 22.125L25.7814 21.375L26.5314 10.7812L2.43765 10.125Z" fill="url(#paint0_linear_52_38507)"/>
<path opacity="0.4" d="M27.5625 7.59448L26.3437 24.3757C26.3437 24.5632 26.3437 24.657 26.4375 24.7507C26.8125 25.2195 27.4687 25.032 27.5625 24.4695L28.875 7.87573C28.875 7.68823 28.875 7.59448 28.7812 7.50073L28.6875 7.40698C28.3125 6.75073 27.5625 7.03198 27.5625 7.59448ZM5.43749 26.532C5.53124 26.6257 5.71874 26.7195 5.90624 26.7195L22.6875 28.3132C23.3437 28.407 23.8125 27.5632 23.3437 27.0945L23.25 26.907C23.1562 26.7195 22.9687 26.6257 22.7812 26.6257L5.99999 25.2195C5.34374 25.1257 4.87499 25.9695 5.43749 26.532Z" fill="#406D96"/>
<path d="M10.3121 13.3131L9.28081 22.5006C9.18706 23.0631 9.74956 23.5318 10.3121 23.2506L18.9371 19.3131C19.4996 19.0318 19.5933 18.1881 19.1246 17.9068L11.5308 12.7506C11.0621 12.3756 10.4058 12.7506 10.3121 13.3131Z" fill="#1C364F"/>
<path d="M9.46831 12.0943L8.43706 21.2818C8.34331 21.8443 8.90581 22.3131 9.46831 22.0318L18.0933 18.0943C18.6558 17.8131 18.7496 16.9693 18.2808 16.6881L10.6871 11.5318C10.2183 11.1568 9.56206 11.5318 9.46831 12.0943Z" fill="white"/>
<path opacity="0.35" d="M10.1254 13.4072L9.37541 19.9697C9.28166 20.4385 9.75041 20.7197 10.1254 20.5322L16.3129 17.7197C16.7817 17.5322 16.7817 16.9697 16.4067 16.6885L10.9692 13.0322C10.6879 12.751 10.1254 13.0322 10.1254 13.4072Z" fill="#97CBE8"/>
<path d="M23.2502 10.5938L22.3127 25.4062C24.0002 25.3125 25.5939 23.625 25.6877 22.0312L25.7814 21.2813L26.5314 10.6875L23.2502 10.5938ZM5.53143 10.2187L2.43768 10.125L1.21893 19.5L1.12518 20.0625C1.03143 21.5625 1.87518 23.4375 3.75018 23.8125L5.53143 10.2187Z" fill="#2F5877"/>
<path d="M3.74992 13.5H3.46867C3.09367 13.5 2.71867 13.125 2.81242 12.75L2.90617 12.375C2.90617 12 3.28117 11.8125 3.56242 11.8125H3.84367C4.21867 11.8125 4.59367 12.1875 4.49992 12.5625L4.40617 12.9375C4.40617 13.2187 4.03117 13.5 3.74992 13.5ZM3.28117 16.5938H3.09367C2.71867 16.5938 2.34367 16.2187 2.43742 15.8437L2.53117 15.4687C2.53117 15.0937 2.90617 14.9062 3.18742 14.9062H3.37492C3.74992 14.9062 4.12492 15.2813 4.03117 15.6563L3.93742 16.0312C3.93742 16.3125 3.65617 16.5938 3.28117 16.5938ZM2.81242 19.7812H2.62492C2.24992 19.7812 1.87492 19.4062 1.96867 19.0312L2.06242 18.6562C2.06242 18.2812 2.43742 18 2.81242 18.0937H2.99992C3.37492 18.0937 3.74992 18.4688 3.65617 18.8438L3.56242 19.2187C3.46867 19.5 3.18742 19.7812 2.81242 19.7812ZM24.9374 14.7187H24.6562C24.2812 14.7187 23.9062 14.3437 23.9062 13.9687V13.5937C23.9062 13.2187 24.1874 13.0312 24.5624 13.0312H24.8437C25.2187 13.0312 25.5937 13.4062 25.5937 13.7812V14.1562C25.4999 14.4375 25.2187 14.7187 24.9374 14.7187ZM24.6562 17.8125H24.3749C23.9999 17.8125 23.6249 17.4375 23.6249 17.0625V16.6875C23.6249 16.3125 23.9062 16.125 24.2812 16.125H24.4687C24.8437 16.125 25.2187 16.5 25.2187 16.875V17.25C25.3124 17.625 25.0312 17.8125 24.6562 17.8125ZM24.3749 21H24.1874C23.8124 21 23.4374 20.625 23.4374 20.25V19.875C23.4374 19.5 23.7187 19.2188 24.0937 19.3125H24.2812C24.6562 19.3125 25.0312 19.6875 25.0312 20.0625V20.4375C25.0312 20.7187 24.7499 21 24.3749 21Z" fill="#5E92B9"/>
<path d="M5.4375 2.25C5.34375 2.25 4.6875 4.78125 4.6875 4.78125L21.6563 6.46875L25.125 4.5V1.96875L5.4375 2.25Z" fill="#295472"/>
<path d="M6.375 3.28125H9.09375L9 4.03125H7.125L6.84375 5.53125H8.53125L8.4375 6.375H6.75L6.375 8.4375H5.53125L6.375 3.28125ZM9.9375 8.4375L10.6875 3.1875H12.1875C13.5938 3.1875 13.875 3.84375 13.7812 4.78125C13.6875 5.71875 13.0312 6.1875 12.5625 6.28125L13.875 8.53125H12.75L11.625 6.46875H10.9687L10.875 8.4375H9.9375ZM11.5312 4.03125L11.25 5.625H11.8125C12.2813 5.625 12.8437 5.34375 12.8437 4.78125C12.9375 4.40625 12.75 4.03125 12 4.03125H11.5312ZM16.125 3.09375H19.125L19.0312 4.03125H16.875L16.6875 5.34375H18.5625L18.4688 6.28125H16.5938L16.4062 7.6875H18.6562L18.5625 8.625H15.375L16.125 3.09375ZM21.0938 3H24.375L24.2812 3.9375H22.0312L21.8438 5.34375H23.8125L23.7188 6.28125H21.75L21.5625 7.6875H23.9062L23.8125 8.625L20.5312 8.53125L21.0938 3Z" fill="#1C364F"/>
<path d="M6.1875 2.8125H8.90625L8.8125 3.65625H6.9375L6.65625 5.0625H8.34375L8.25 6H6.5625L6.1875 7.96875H5.34375L6.1875 2.8125ZM9.84375 8.0625L10.5938 2.8125H12.0938C13.5 2.8125 13.7813 3.46875 13.6875 4.40625C13.5938 5.34375 12.9375 5.8125 12.4688 5.90625L13.7812 8.15625H12.6562L11.5313 6.09375H10.875L10.5938 8.0625H9.84375ZM11.3438 3.65625L11.1562 5.25H11.7188C12.1875 5.25 12.75 4.96875 12.75 4.40625C12.8438 4.03125 12.6562 3.65625 11.9062 3.65625C11.8125 3.5625 11.5313 3.5625 11.3438 3.65625ZM16.0313 2.71875H19.0312L18.9375 3.65625H16.7812L16.5938 4.96875H18.4688L18.375 5.90625H16.5L16.3125 7.3125H18.5625L18.4688 8.25H15.2812L16.0313 2.71875ZM21 2.625L24.1875 2.53125L24.0938 3.46875H21.8437L21.6563 4.875H23.625L23.5313 5.8125H21.5625L21.375 7.3125H23.7187L23.625 8.25L20.3438 8.15625L21 2.625Z" fill="white"/>
</g>
<defs>
<linearGradient id="paint0_linear_52_38507" x1="33.7141" y1="15.7352" x2="-4.48635" y2="19.3873" gradientUnits="userSpaceOnUse">
<stop stop-color="#2E5882"/>
<stop offset="1" stop-color="#75ADD3"/>
</linearGradient>
<clipPath id="clip0_52_38507">
<rect width="30" height="30" fill="white"/>
</clipPath>
</defs>
</svg>
