<svg width="21" height="27" viewBox="0 0 21 27" fill="none" xmlns="http://www.w3.org/2000/svg">
<path d="M13.7812 6.75H6.46875C5.38312 6.75 4.5 5.86688 4.5 4.78125V3.09375C4.5 2.628 4.878 2.25 5.34375 2.25H7.14825C7.51725 0.952875 8.71088 0 10.125 0C11.5391 0 12.7327 0.952875 13.1018 2.25H14.9062C15.372 2.25 15.75 2.628 15.75 3.09375V4.78125C15.75 5.86688 14.8669 6.75 13.7812 6.75Z" fill="#F6E3FF"/>
<path fill-rule="evenodd" clip-rule="evenodd" d="M17.1562 3.375H16.875V4.78125C16.875 6.48787 15.4879 7.875 13.7812 7.875H6.46875C4.76213 7.875 3.375 6.48787 3.375 4.78125V3.375H3.09375C1.38713 3.375 0 4.76213 0 6.46875V23.9062C0 25.6129 1.38713 27 3.09375 27H17.1562C18.8629 27 20.25 25.6129 20.25 23.9062V6.46875C20.25 4.76213 18.8629 3.375 17.1562 3.375ZM16.0312 23.625H4.21875C3.753 23.625 3.375 23.247 3.375 22.7812C3.375 22.3155 3.753 21.9375 4.21875 21.9375H16.0312C16.497 21.9375 16.875 22.3155 16.875 22.7812C16.875 23.247 16.497 23.625 16.0312 23.625ZM4.21875 20.25H16.0312C16.497 20.25 16.875 19.872 16.875 19.4062C16.875 18.9405 16.497 18.5625 16.0312 18.5625H4.21875C3.753 18.5625 3.375 18.9405 3.375 19.4062C3.375 19.872 3.753 20.25 4.21875 20.25ZM16.0312 16.875H4.21875C3.753 16.875 3.375 16.497 3.375 16.0312C3.375 15.5655 3.753 15.1875 4.21875 15.1875H16.0312C16.497 15.1875 16.875 15.5655 16.875 16.0312C16.875 16.497 16.497 16.875 16.0312 16.875ZM5.96875 13.5H14.2812C14.609 13.5 14.875 13.122 14.875 12.6562C14.875 12.1905 14.609 11.8125 14.2812 11.8125H5.96875C5.641 11.8125 5.375 12.1905 5.375 12.6562C5.375 13.122 5.641 13.5 5.96875 13.5Z" fill="#F6E3FF"/>
</svg>
