<svg width="30" height="30" viewBox="0 0 30 30" fill="none" xmlns="http://www.w3.org/2000/svg">
<path d="M25.2188 25.8746C25.3125 25.7808 25.3125 25.5933 25.3125 25.4058L25.5 22.7808C26.0625 22.2183 25.4062 20.3433 24.9375 19.4996L22.7812 14.6246L22.5 13.9683L17.5312 3.74955C16.7812 2.3433 14.7188 2.1558 13.6875 3.37455L7.96875 9.93705L3.46875 14.9996H3.5625L1.125 19.3121L0.46875 20.9996C0.46875 21.9371 2.0625 23.9996 3.1875 24.1871L22.5 27.2808C23.625 27.4683 25.5938 26.5308 26.0625 25.7808L25.125 26.1558L25.2188 25.8746Z" fill="#704413"/>
<path d="M13.781 1.78061L0.749774 18.4681C-0.375226 19.8744 0.374774 22.0306 2.06227 22.4056L24.1873 26.2494C26.2498 26.6244 27.7498 24.5619 26.906 22.6869L17.8123 2.24936C17.0623 0.561865 14.906 0.374364 13.781 1.78061Z" fill="#AA671D"/>
<path d="M13.6871 4.12541L2.71833 18.0942C1.78083 19.2192 2.43708 21.0942 3.84333 21.3754L22.3121 24.6567C23.9996 24.9379 25.3121 23.2504 24.6558 21.7504L17.0621 4.50042C16.4058 3.18792 14.6246 3.00041 13.6871 4.12541Z" fill="url(#paint0_linear_52_39378)"/>
<path d="M13.7808 3.28201L2.06201 18.1883C1.03076 19.407 1.68701 21.3758 3.28076 21.657L23.062 25.1258C24.8433 25.407 26.3433 23.6258 25.4995 21.9383L17.437 3.65701C16.687 2.15701 14.812 1.96951 13.7808 3.28201Z" fill="white"/>
<path d="M13.9689 4.875L4.03142 17.625C3.18767 18.6562 3.75017 20.3437 5.06267 20.625L21.9377 23.625C23.5314 23.9062 24.6564 22.4062 24.0002 20.9062L17.0627 5.15625C16.5002 3.9375 14.9064 3.84375 13.9689 4.875Z" fill="url(#paint1_linear_52_39378)"/>
<path d="M15.1876 19.9689C15.0001 20.9064 14.1564 21.6564 13.2189 21.4689C12.2814 21.2814 11.6251 20.4376 11.7189 19.4064C11.8126 18.4689 12.7501 17.8126 13.6876 17.9064C14.6251 18.0001 15.2814 18.9376 15.1876 19.9689ZM16.6876 8.71887C16.8751 7.68762 16.1251 6.84387 15.1876 6.65637C14.2501 6.56262 13.3126 7.31262 13.2189 8.25012C13.1251 8.43762 13.1251 8.43762 13.1251 8.53137L12.5626 14.9064C12.4689 15.6564 12.9376 16.4064 13.6876 16.5001C14.4376 16.5939 15.0939 16.1251 15.2814 15.2814L16.5939 8.90637C16.6876 8.90637 16.6876 8.81262 16.6876 8.71887Z" fill="#493E3A"/>
<path d="M16.6875 26.4375L16.3125 27L18.0937 28.2188L28.5 17.9063L26.8125 15.75L16.6875 26.4375Z" fill="#9A4C18"/>
<path d="M28.7809 20.8128C28.4059 24.9378 24.6559 28.4065 20.3434 28.4065C16.1246 28.4065 13.4996 24.9378 14.2496 20.9065C14.9996 17.1565 18.5621 14.2503 22.4059 14.1565C26.1559 14.0628 29.0621 16.969 28.7809 20.8128Z" fill="#9A4C18"/>
<path d="M29.812 22.1253C29.437 26.0628 25.7807 29.3441 21.562 29.3441C17.437 29.3441 14.812 25.9691 15.6557 22.2191C16.4057 18.6566 19.8745 15.8441 23.5307 15.7503C27.2807 15.6566 30.0932 18.4691 29.812 22.1253Z" fill="#9A4C18"/>
<path d="M17.8125 26.7188L19.5937 27.6562L28.125 18.75L26.7188 16.875L17.8125 26.7188Z" fill="#F49937"/>
<path d="M28.9683 22.125C28.6871 25.5 25.5933 28.3125 22.1246 28.2188C18.7496 28.2188 16.4996 25.4062 17.1558 22.125C17.7183 19.0312 20.7183 16.5938 23.8121 16.5C26.9058 16.5 29.2496 18.9375 28.9683 22.125Z" fill="#F49937"/>
<path d="M27.8434 20.813C27.5621 24.3755 24.1871 27.3755 20.5309 27.3755C16.8746 27.3755 14.5309 24.3755 15.1871 20.813C15.8434 17.5317 19.0309 14.9067 22.3121 14.9067C25.5934 14.813 28.1246 17.438 27.8434 20.813Z" fill="#FFEDC0"/>
<path d="M27.3746 21C27.0933 24.375 23.9996 27.1875 20.5308 27.1875C17.1558 27.1875 14.9058 24.375 15.5621 21.0938C16.1246 18 19.1246 15.5625 22.2183 15.4688C25.3121 15.4688 27.6558 17.9062 27.3746 21Z" fill="#FFD766"/>
<path d="M26.0628 21C25.7815 23.5312 23.4378 25.6875 20.719 25.6875C18.094 25.6875 16.4065 23.5312 16.7815 21C17.2503 18.5625 19.5003 16.5938 21.9378 16.5938C24.469 16.6875 26.344 18.5625 26.0628 21Z" fill="#FFEDC0"/>
<path d="M26.0624 20.4382C25.7812 22.9694 23.4374 25.1257 20.8124 25.1257C18.1874 25.1257 16.4999 22.9694 16.9687 20.5319C17.4374 18.0944 19.6874 16.2194 22.1249 16.2194C24.5624 16.0319 26.3437 18.0007 26.0624 20.4382Z" fill="#F49937"/>
<path d="M25.3123 21C25.0311 23.1562 23.0623 24.9375 20.8123 24.9375C18.5623 24.9375 17.1561 23.1562 17.5311 21C17.9061 18.9375 19.8748 17.25 21.9373 17.25C23.9998 17.3438 25.4998 18.9375 25.3123 21Z" fill="#FFD766"/>
<path d="M22.5 16.9688L23.1563 19.3125L25.6875 19.9687L23.3438 21.5625L23.1563 24.2812L21 22.6875L18.2813 23.7187L19.4063 21.0937L18.0938 19.125L20.8125 19.0312L22.5 16.9688Z" fill="#F49937"/>
<defs>
<linearGradient id="paint0_linear_52_39378" x1="2.29524" y1="14.0154" x2="24.8417" y2="14.0154" gradientUnits="userSpaceOnUse">
<stop stop-color="#FFC982"/>
<stop offset="1" stop-color="#FFEA61"/>
</linearGradient>
<linearGradient id="paint1_linear_52_39378" x1="3.63673" y1="13.8906" x2="24.232" y2="13.8906" gradientUnits="userSpaceOnUse">
<stop stop-color="#FFC982"/>
<stop offset="1" stop-color="#FFEA61"/>
</linearGradient>
</defs>
</svg>
