<svg width="10" height="12" viewBox="0 0 10 12" fill="none" xmlns="http://www.w3.org/2000/svg">
<mask id="mask0_0_557" style="mask-type:luminance" maskUnits="userSpaceOnUse" x="-3" y="-2" width="15" height="16">
<rect x="-2.3996" y="-1.2003" width="14.3996" height="14.3996" fill="white"/>
</mask>
<g mask="url(#mask0_0_557)">
<path fill-rule="evenodd" clip-rule="evenodd" d="M4.79987 0C3.14571 0 1.79995 1.34576 1.79995 2.99992V4.79987H1.19997C0.537585 4.79987 0 5.33745 0 5.99983V10.7997C0 11.4621 0.537585 11.9997 1.19997 11.9997H2.39993H4.19988H5.39985H6.59982H8.39976C9.06215 11.9997 9.59973 11.4621 9.59973 10.7997V5.99983C9.59973 5.33745 9.06215 4.79987 8.39976 4.79987H7.79978V2.99992C7.79978 1.34576 6.45402 0 4.79987 0ZM2.99991 2.99994C2.99991 2.00756 3.80749 1.19999 4.79986 1.19999C5.79224 1.19999 6.59981 2.00756 6.59981 2.99994V4.79989H2.99991V2.99994ZM5.39985 9.43355V10.7997H4.19988V9.43355C3.76369 9.18036 3.4985 8.66677 3.6365 8.09919C3.74209 7.6672 4.10448 7.31801 4.54007 7.22741C5.31645 7.06422 5.99983 7.6516 5.99983 8.39978C5.99983 8.84317 5.75744 9.22596 5.39985 9.43355Z" fill="#8F9198"/>
</g>
</svg>
