<svg width="23" height="19" viewBox="0 0 23 19" fill="none" xmlns="http://www.w3.org/2000/svg">
<path d="M22.2333 17.3645H20.7V8.49993C20.6999 8.28718 20.6556 8.07677 20.5698 7.88209C20.484 7.6874 20.3586 7.5127 20.2017 7.3691L12.535 0.402013C12.2523 0.143415 11.8831 0 11.5 0C11.1169 0 10.7477 0.143415 10.465 0.402013L2.79833 7.3691C2.64136 7.5127 2.51599 7.6874 2.4302 7.88209C2.34441 8.07677 2.30007 8.28718 2.3 8.49993V17.3645H0.766667C0.563334 17.3645 0.368329 17.4453 0.224551 17.5891C0.0807735 17.7328 0 17.9278 0 18.1312C0 18.3345 0.0807735 18.5295 0.224551 18.6733C0.368329 18.8171 0.563334 18.8978 0.766667 18.8978H22.2333C22.4367 18.8978 22.6317 18.8171 22.7754 18.6733C22.9192 18.5295 23 18.3345 23 18.1312C23 17.9278 22.9192 17.7328 22.7754 17.5891C22.6317 17.4453 22.4367 17.3645 22.2333 17.3645ZM3.83333 8.49993L11.5 1.53285L19.1667 8.49993V17.3645H14.5667V12.7645C14.5667 12.3578 14.4051 11.9678 14.1176 11.6803C13.83 11.3927 13.44 11.2312 13.0333 11.2312H9.96667C9.56 11.2312 9.16999 11.3927 8.88244 11.6803C8.59488 11.9678 8.43333 12.3578 8.43333 12.7645V17.3645H3.83333V8.49993ZM13.0333 17.3645H9.96667V12.7645H13.0333V17.3645Z" fill="#3E4B65"/>
</svg>
