<svg width="30" height="30" viewBox="0 0 30 30" fill="none" xmlns="http://www.w3.org/2000/svg">
<g clip-path="url(#clip0_52_45182)">
<path d="M25.2188 25.3125L18.0938 2.0625L0 3.9375L3.9375 29.0625L25.2188 25.3125Z" fill="#524666"/>
<path d="M24.2812 24.375L18.5625 1.125L0 3.84375L4.6875 28.0312L24.2812 24.375Z" fill="#A2B2BC"/>
<path d="M22.9688 23.7187L17.7188 2.0625L1.40625 4.40625L5.71875 26.9062L22.9688 23.7187Z" fill="#EDF3F7"/>
<path d="M4.40625 6.75L4.59375 8.71875L16.9688 6.75L16.6875 4.96875L4.40625 6.75ZM5.25 10.7812L5.4375 12.6562L17.8125 10.6875L17.4375 9L5.25 10.7812ZM5.8125 14.3437L6 16.3125L18.375 14.3437L18 12.5625L5.8125 14.3437Z" fill="#A2B2BC"/>
<path d="M29.7187 9.65536C28.9687 10.4991 26.7187 8.81161 24.4687 6.74911C22.2187 4.68661 20.3437 2.34286 21.0937 1.49911C21.8437 0.655364 24.8437 1.78036 27.0937 3.84286C29.3437 5.90536 30.4687 8.90536 29.7187 9.65536Z" fill="#7D4545"/>
<path d="M13.5 15.2812L9.75 11.9062L20.0625 2.34375L23.1563 5.25L13.5 15.2812Z" fill="#AD7741"/>
<path d="M17.3438 18.1875L13.9688 15.1875L19.7813 9L22.7812 11.8125L17.3438 18.1875Z" fill="#524666"/>
<path d="M20.8125 21.75L17.25 18.5625L26.0625 8.0625L28.9688 10.875L20.8125 21.75Z" fill="#AD7741"/>
<path d="M26.1562 14.6241L16.2188 5.99908L20.9062 1.59283C21.4688 1.03033 22.5 1.21783 23.1563 1.87408L29.25 7.78033C29.9063 8.43658 30.0938 9.37408 29.625 10.0303L26.1562 14.6241Z" fill="#7D4545"/>
<path d="M20.8125 21.75L9.65625 11.9062L8.90625 19.7813L8.34375 23.625C8.34375 23.8125 8.4375 24.0938 8.625 24.375C8.8125 24.5625 9.09375 24.6563 9.375 24.5625L13.4063 23.3438L20.8125 21.75Z" fill="#A2B2BC"/>
<path d="M14.25 15.0938L11.1562 12.375L17.0625 6.75L19.7813 9.28125L14.25 15.0938Z" fill="#FFCB00"/>
<path d="M10.7812 22.7812L9.9375 22.125L11.0625 12.5625L19.9687 20.625L10.7812 22.7812Z" fill="#FFEFCD"/>
<path d="M17.3438 17.8125L14.25 15.0938L19.7813 9.28125L22.5 11.8125L17.3438 17.8125Z" fill="#FFB100"/>
<path d="M20.25 20.5312L17.3438 17.8125L22.5 11.8125L25.2187 14.0625L20.25 20.5312Z" fill="#FF9A00"/>
<path d="M25.125 14.2503L17.0625 6.75028L20.8125 3.09403C21.375 2.53153 22.4062 2.62528 23.0625 3.37528L27.8437 7.96903C28.5 8.62528 28.875 9.18778 28.4062 9.84403L25.125 14.2503Z" fill="#DC7D79"/>
<path d="M10.3125 19.4062L13.5 22.125L10.5938 23.0625C10.4063 23.1562 10.2188 23.0625 10.0313 22.875C9.84375 22.6875 9.75 22.5 9.75 22.3125L10.3125 19.4062Z" fill="#524666"/>
<path d="M28.6881 9.34596C29.1344 8.84215 27.8625 6.98644 25.8473 5.20111C23.832 3.41579 21.8365 2.37692 21.3902 2.88073C20.9439 3.38455 22.2157 5.24026 24.231 7.02558C26.2462 8.8109 28.2417 9.84977 28.6881 9.34596Z" fill="#DC7D79"/>
<path d="M25.4062 12.9375L25.875 13.4062L25.3125 13.9687L24.9375 13.4062L25.4062 12.9375ZM17.625 6.09375L18 6.65625L17.4375 7.21875L16.9688 6.65625L17.625 6.09375Z" fill="#E2E2E2"/>
<path d="M18.1875 5.4375L18.5625 6L18 6.5625L17.625 6.09375L18.1875 5.4375ZM25.9688 12.2812L26.4375 12.8437L25.875 13.4062L25.4063 12.9375L25.9688 12.2812Z" fill="#7D4545"/>
<path d="M20.2264 20.5428C20.7757 19.9227 19.1789 17.6109 16.6598 15.3793C14.1408 13.1476 11.6534 11.8412 11.104 12.4612C10.5547 13.0813 12.1515 15.3931 14.6705 17.6248C17.1896 19.8564 19.677 21.1628 20.2264 20.5428Z" fill="#FFEFCD"/>
<path d="M20.3438 8.81261L18.6562 7.21886L21.6563 4.31261C22.0313 3.93761 22.5 3.93761 22.9688 4.12511C23.625 4.50011 23.7187 5.34386 23.25 5.81261L20.3438 8.81261Z" fill="#E7A3A2"/>
<path d="M24.5625 12.751L22.875 11.251L25.5 8.06346C25.9688 7.50096 26.7188 7.59471 27.1875 8.15721C27.4688 8.53221 27.4688 9.09471 27.1875 9.37596L24.5625 12.751Z" fill="#BF6262"/>
<path d="M26.3104 12.8728C26.8254 12.2915 25.3893 10.1781 23.1028 8.15246C20.8162 6.1268 18.5451 4.95594 18.0301 5.53727C17.5151 6.11859 18.9513 8.23196 21.2378 10.2576C23.5243 12.2833 25.7954 13.4541 26.3104 12.8728Z" fill="#7D4545"/>
<path d="M25.911 13.4744C26.426 12.893 24.9899 10.7797 22.7034 8.75402C20.4168 6.72837 18.1457 5.55751 17.6307 6.13883C17.1157 6.72015 18.5518 8.83352 20.8384 10.8592C23.1249 12.8848 25.396 14.0557 25.911 13.4744Z" fill="#E2E2E2"/>
<path d="M12.2813 19.5938L14.5312 14.625C14.5312 14.625 13.2188 13.5938 12 13.3125L11.0625 18.9375L12.2813 19.5938Z" fill="#FFF7E9"/>
<path d="M23.4375 10.6875L21.75 12.6563C23.4375 13.875 24.8437 14.4375 25.2187 14.0625C25.6875 13.5938 24.9375 12.2812 23.4375 10.6875Z" fill="#FF9A00"/>
<path d="M16.9691 6.75063C16.5941 7.21938 17.3441 8.62563 18.9379 10.2194L20.7191 8.25064C18.9379 6.93814 17.4379 6.28188 16.9691 6.75063Z" fill="#FFCB00"/>
<path d="M22.0312 9.375L20.7187 8.25L18.9375 10.2187L20.25 11.4375C20.8125 11.9062 21.2812 12.375 21.8437 12.6562L23.5312 10.6875L22.0312 9.375Z" fill="#FFB100"/>
<path opacity="0.18" d="M13.5 20.9062L18.75 19.125C18.75 19.125 19.5937 19.5938 19.9687 20.7188L19.6875 21.0938L13.875 22.5L13.5 20.9062Z" fill="#87785C"/>
<path opacity="0.45" d="M10.2188 23.5312L11.9063 26.3437L23.4375 24L22.2188 19.875L20.8125 21.75L10.2188 23.5312Z" fill="#A2B2BC"/>
<path d="M23.0625 18.8438L20.8125 21.75L10.3125 24.1875L21.375 22.5938L23.625 21L23.0625 18.8438Z" fill="#524666"/>
<path d="M25.3125 11.1562L28.4062 7.21875L29.25 9.28125L26.4375 12.8438L25.3125 11.1562Z" fill="#7D4545"/>
</g>
<defs>
<clipPath id="clip0_52_45182">
<rect width="30" height="30" fill="white"/>
</clipPath>
</defs>
</svg>
