<svg width="32" height="6" viewBox="0 0 32 6" fill="none" xmlns="http://www.w3.org/2000/svg">
<g opacity="0.8">
<path d="M2.51259 5.41822L2.4003 3.18636L0.5334 4.39353L0 3.34077L2.07745 2.5547L0.364958 1.19313L1.19313 0.364959L2.58278 2.06342L3.36884 0L4.43564 0.5334L3.21444 2.38626L5.46033 2.49856L5.27785 3.64958L3.10214 3.07407L3.69169 5.23574L2.51259 5.41822ZM11.3591 5.41822L11.2468 3.18636L9.3799 4.39353L8.8465 3.34077L10.924 2.5547L9.21146 1.19313L10.0396 0.364959L11.4293 2.06342L12.2154 0L13.2822 0.5334L12.061 2.38626L14.3068 2.49856L14.1244 3.64958L11.9487 3.07407L12.5382 5.23574L11.3591 5.41822ZM20.2056 5.41822L20.0933 3.18636L18.2264 4.39353L17.693 3.34077L19.7705 2.5547L18.058 1.19313L18.8862 0.364959L20.2758 2.06342L21.0619 0L22.1287 0.5334L20.9075 2.38626L23.1534 2.49856L22.9709 3.64958L20.7952 3.07407L21.3847 5.23574L20.2056 5.41822ZM29.052 5.41822L28.9398 3.18636L27.0729 4.39353L26.5395 3.34077L28.6169 2.5547L26.9044 1.19313L27.7326 0.364959L29.1222 2.06342L29.9083 0L30.9751 0.5334L29.7539 2.38626L31.9998 2.49856L31.8173 3.64958L29.6416 3.07407L30.2311 5.23574L29.052 5.41822Z" fill="white"/>
<path d="M2.51259 5.41822L2.4003 3.18636L0.5334 4.39353L0 3.34077L2.07745 2.5547L0.364958 1.19313L1.19313 0.364959L2.58278 2.06342L3.36884 0L4.43564 0.5334L3.21444 2.38626L5.46033 2.49856L5.27785 3.64958L3.10214 3.07407L3.69169 5.23574L2.51259 5.41822ZM11.3591 5.41822L11.2468 3.18636L9.3799 4.39353L8.8465 3.34077L10.924 2.5547L9.21146 1.19313L10.0396 0.364959L11.4293 2.06342L12.2154 0L13.2822 0.5334L12.061 2.38626L14.3068 2.49856L14.1244 3.64958L11.9487 3.07407L12.5382 5.23574L11.3591 5.41822ZM20.2056 5.41822L20.0933 3.18636L18.2264 4.39353L17.693 3.34077L19.7705 2.5547L18.058 1.19313L18.8862 0.364959L20.2758 2.06342L21.0619 0L22.1287 0.5334L20.9075 2.38626L23.1534 2.49856L22.9709 3.64958L20.7952 3.07407L21.3847 5.23574L20.2056 5.41822ZM29.052 5.41822L28.9398 3.18636L27.0729 4.39353L26.5395 3.34077L28.6169 2.5547L26.9044 1.19313L27.7326 0.364959L29.1222 2.06342L29.9083 0L30.9751 0.5334L29.7539 2.38626L31.9998 2.49856L31.8173 3.64958L29.6416 3.07407L30.2311 5.23574L29.052 5.41822Z" fill="white"/>
<path d="M2.51259 5.41822L2.4003 3.18636L0.5334 4.39353L0 3.34077L2.07745 2.5547L0.364958 1.19313L1.19313 0.364959L2.58278 2.06342L3.36884 0L4.43564 0.5334L3.21444 2.38626L5.46033 2.49856L5.27785 3.64958L3.10214 3.07407L3.69169 5.23574L2.51259 5.41822ZM11.3591 5.41822L11.2468 3.18636L9.3799 4.39353L8.8465 3.34077L10.924 2.5547L9.21146 1.19313L10.0396 0.364959L11.4293 2.06342L12.2154 0L13.2822 0.5334L12.061 2.38626L14.3068 2.49856L14.1244 3.64958L11.9487 3.07407L12.5382 5.23574L11.3591 5.41822ZM20.2056 5.41822L20.0933 3.18636L18.2264 4.39353L17.693 3.34077L19.7705 2.5547L18.058 1.19313L18.8862 0.364959L20.2758 2.06342L21.0619 0L22.1287 0.5334L20.9075 2.38626L23.1534 2.49856L22.9709 3.64958L20.7952 3.07407L21.3847 5.23574L20.2056 5.41822ZM29.052 5.41822L28.9398 3.18636L27.0729 4.39353L26.5395 3.34077L28.6169 2.5547L26.9044 1.19313L27.7326 0.364959L29.1222 2.06342L29.9083 0L30.9751 0.5334L29.7539 2.38626L31.9998 2.49856L31.8173 3.64958L29.6416 3.07407L30.2311 5.23574L29.052 5.41822Z" fill="white"/>
<path d="M2.51259 5.41822L2.4003 3.18636L0.5334 4.39353L0 3.34077L2.07745 2.5547L0.364958 1.19313L1.19313 0.364959L2.58278 2.06342L3.36884 0L4.43564 0.5334L3.21444 2.38626L5.46033 2.49856L5.27785 3.64958L3.10214 3.07407L3.69169 5.23574L2.51259 5.41822ZM11.3591 5.41822L11.2468 3.18636L9.3799 4.39353L8.8465 3.34077L10.924 2.5547L9.21146 1.19313L10.0396 0.364959L11.4293 2.06342L12.2154 0L13.2822 0.5334L12.061 2.38626L14.3068 2.49856L14.1244 3.64958L11.9487 3.07407L12.5382 5.23574L11.3591 5.41822ZM20.2056 5.41822L20.0933 3.18636L18.2264 4.39353L17.693 3.34077L19.7705 2.5547L18.058 1.19313L18.8862 0.364959L20.2758 2.06342L21.0619 0L22.1287 0.5334L20.9075 2.38626L23.1534 2.49856L22.9709 3.64958L20.7952 3.07407L21.3847 5.23574L20.2056 5.41822ZM29.052 5.41822L28.9398 3.18636L27.0729 4.39353L26.5395 3.34077L28.6169 2.5547L26.9044 1.19313L27.7326 0.364959L29.1222 2.06342L29.9083 0L30.9751 0.5334L29.7539 2.38626L31.9998 2.49856L31.8173 3.64958L29.6416 3.07407L30.2311 5.23574L29.052 5.41822Z" fill="white"/>
</g>
</svg>
