<svg width="32" height="32" viewBox="0 0 32 32" fill="none" xmlns="http://www.w3.org/2000/svg">
<path fill-rule="evenodd" clip-rule="evenodd" d="M16.733 18.307H19.0168C19.5581 18.307 20.0069 17.867 20.0069 17.3203C20.0069 16.7603 19.5581 16.3203 19.0168 16.3203H16.733V14.0137C16.733 13.467 16.2974 13.027 15.7561 13.027C15.2148 13.027 14.766 13.467 14.766 14.0137V16.3203H12.4954C11.9541 16.3203 11.5053 16.7603 11.5053 17.3203C11.5053 17.867 11.9541 18.307 12.4954 18.307H14.766V20.6137C14.766 21.1603 15.2148 21.6003 15.7561 21.6003C16.2974 21.6003 16.733 21.1603 16.733 20.6137V18.307ZM25.7844 12.0345C26.0947 12.0309 26.4326 12.027 26.7396 12.027C27.0696 12.027 27.3337 12.2937 27.3337 12.627V23.347C27.3337 26.6537 24.6802 29.3337 21.3931 29.3337H10.898C7.46567 29.3337 4.66699 26.5203 4.66699 23.0537V8.68033C4.66699 5.37366 7.33366 2.66699 10.6208 2.66699H17.6703C18.0135 2.66699 18.2776 2.94699 18.2776 3.28033V7.57366C18.2776 10.0137 20.271 12.0137 22.6868 12.027C23.2511 12.027 23.7486 12.0312 24.1839 12.0349C24.5226 12.0378 24.8237 12.0403 25.0894 12.0403C25.2774 12.0403 25.5209 12.0375 25.7844 12.0345ZM26.147 10.0886C25.0618 10.0926 23.7826 10.0886 22.8625 10.0793C21.4024 10.0793 20.1998 8.86459 20.1998 7.38993V3.87526C20.1998 3.30059 20.8902 3.01526 21.2849 3.42993C21.9993 4.18014 22.981 5.21135 23.9582 6.23788C24.9331 7.262 25.9036 8.28145 26.5998 9.01259C26.9853 9.41659 26.7028 10.0873 26.147 10.0886Z" fill="white"/>
</svg>
