<svg width="22" height="22" viewBox="0 0 22 22" fill="none" xmlns="http://www.w3.org/2000/svg">
<path d="M7.39794 18.1122H6.88774C2.80611 18.1122 0.765304 17.0918 0.765304 11.9898V6.88774C0.765304 2.80611 2.80611 0.765304 6.88774 0.765304H15.051C19.1326 0.765304 21.1734 2.80611 21.1734 6.88774V11.9898C21.1734 16.0714 19.1326 18.1122 15.051 18.1122H14.5408C14.2245 18.1122 13.9183 18.2653 13.7245 18.5204L12.1938 20.5612C11.5204 21.4591 10.4183 21.4591 9.74487 20.5612L8.21426 18.5204C8.051 18.2959 7.67345 18.1122 7.39794 18.1122Z" stroke="white" stroke-width="1.5" stroke-miterlimit="10" stroke-linecap="round" stroke-linejoin="round"/>
<path d="M15.0474 9.94895H15.0565" stroke="white" stroke-width="2" stroke-linecap="round" stroke-linejoin="round"/>
<path d="M10.9638 9.94895H10.9729" stroke="white" stroke-width="2" stroke-linecap="round" stroke-linejoin="round"/>
<path d="M6.88213 9.94895H6.8913" stroke="white" stroke-width="2" stroke-linecap="round" stroke-linejoin="round"/>
</svg>
