<svg width="20" height="19" viewBox="0 0 20 19" fill="none" xmlns="http://www.w3.org/2000/svg">
<path d="M6.92308 10.0647C6.92308 10.2929 6.85541 10.516 6.72862 10.7057C6.60183 10.8955 6.42163 11.0434 6.21079 11.1307C5.99995 11.218 5.76795 11.2409 5.54413 11.1963C5.3203 11.1518 5.11471 11.0419 4.95334 10.8806C4.79197 10.7192 4.68208 10.5136 4.63756 10.2898C4.59303 10.066 4.61588 9.83395 4.70322 9.62311C4.79055 9.41228 4.93844 9.23207 5.12819 9.10529C5.31794 8.9785 5.54102 8.91083 5.76923 8.91083C6.07525 8.91083 6.36874 9.03239 6.58512 9.24878C6.80151 9.46517 6.92308 9.75865 6.92308 10.0647ZM14.2308 8.91083C14.0026 8.91083 13.7795 8.9785 13.5897 9.10529C13.4 9.23207 13.2521 9.41228 13.1648 9.62311C13.0774 9.83395 13.0546 10.066 13.0991 10.2898C13.1436 10.5136 13.2535 10.7192 13.4149 10.8806C13.5762 11.0419 13.7818 11.1518 14.0057 11.1963C14.2295 11.2409 14.4615 11.218 14.6723 11.1307C14.8832 11.0434 15.0634 10.8955 15.1902 10.7057C15.3169 10.516 15.3846 10.2929 15.3846 10.0647C15.3846 9.75865 15.263 9.46517 15.0467 9.24878C14.8303 9.03239 14.5368 8.91083 14.2308 8.91083ZM20 1.53583V9.68006C20 14.7666 15.5096 18.9108 10 18.9108C4.49038 18.9108 0 14.7666 0 9.68006V1.53583C0.000519987 1.23193 0.0910309 0.934999 0.260114 0.682484C0.429198 0.429969 0.66928 0.233187 0.950072 0.116961C1.23087 0.000735578 1.53979 -0.0297262 1.83788 0.0294183C2.13596 0.0885627 2.40985 0.234664 2.625 0.449291L4.27885 2.10314C5.00771 1.63706 5.79284 1.26549 6.61538 0.997368L6.76923 0.949291C8.87153 0.282915 11.1285 0.282915 13.2308 0.949291L13.3846 0.997368C14.2072 1.26549 14.9923 1.63706 15.7212 2.10314L17.375 0.449291C17.5901 0.234664 17.864 0.0885627 18.1621 0.0294183C18.4602 -0.0297262 18.7691 0.000735578 19.0499 0.116961C19.3307 0.233187 19.5708 0.429969 19.7399 0.682484C19.909 0.934999 19.9995 1.23193 20 1.53583ZM18.4615 1.53583L16.3558 3.65121C16.2231 3.78082 16.0485 3.85881 15.8634 3.87115C15.6783 3.88349 15.4949 3.82937 15.3462 3.71852C14.8795 3.37051 14.3765 3.07392 13.8462 2.83391V5.06467C13.8462 5.26869 13.7651 5.46434 13.6209 5.6086C13.4766 5.75286 13.2809 5.8339 13.0769 5.8339C12.8729 5.8339 12.6773 5.75286 12.533 5.6086C12.3887 5.46434 12.3077 5.26869 12.3077 5.06467V2.28583C11.8034 2.15265 11.2888 2.06258 10.7692 2.0166V5.06467C10.7692 5.26869 10.6882 5.46434 10.5439 5.6086C10.3997 5.75286 10.204 5.8339 10 5.8339C9.79599 5.8339 9.60033 5.75286 9.45607 5.6086C9.31181 5.46434 9.23077 5.26869 9.23077 5.06467V2.0166C8.71125 2.06258 8.19657 2.15265 7.69231 2.28583V5.06467C7.69231 5.26869 7.61126 5.46434 7.467 5.6086C7.32275 5.75286 7.12709 5.8339 6.92308 5.8339C6.71906 5.8339 6.52341 5.75286 6.37915 5.6086C6.23489 5.46434 6.15385 5.26869 6.15385 5.06467V2.83391C5.62346 3.07392 5.12055 3.37051 4.65385 3.71852C4.50511 3.82937 4.3217 3.88349 4.13662 3.87115C3.95154 3.85881 3.77693 3.78082 3.64423 3.65121L1.53846 1.53583V9.68006C1.53846 13.6897 4.92308 16.9877 9.23077 17.3435V15.382L7.91346 14.0743C7.7908 13.9248 7.72811 13.7351 7.7376 13.542C7.74708 13.3489 7.82806 13.1662 7.96478 13.0294C8.1015 12.8927 8.28418 12.8118 8.4773 12.8023C8.67042 12.7928 8.86016 12.8555 9.00961 12.9781L10 13.9781L10.9904 12.9781C11.1398 12.8555 11.3296 12.7928 11.5227 12.8023C11.7158 12.8118 11.8985 12.8927 12.0352 13.0294C12.1719 13.1662 12.2529 13.3489 12.2624 13.542C12.2719 13.7351 12.2092 13.9248 12.0865 14.0743L10.7692 15.382V17.3435C15.0769 16.9877 18.4615 13.6897 18.4615 9.68006V1.53583Z" fill="#EB9947"/>
</svg>
