<svg width="22" height="22" viewBox="0 0 22 22" fill="none" xmlns="http://www.w3.org/2000/svg">
<path d="M20.5557 18.773C20.886 19.0888 21.4214 19.0888 21.7517 18.773C22.0819 18.4573 22.0819 17.9454 21.7517 17.6297L20.5557 18.773ZM16.1702 12.2938C15.8399 11.978 15.3045 11.978 14.9742 12.2938C14.644 12.6095 14.644 13.1214 14.9742 13.4371L16.1702 12.2938ZM21.7517 17.6297L16.1702 12.2938L14.9742 13.4371L20.5557 18.773L21.7517 17.6297Z" fill="#93989A"/>
<path d="M15.5729 12.8654L14.9749 12.2938L15.5729 12.8654ZM11.5813 16.6814L12.1793 17.2531L11.5813 16.6814ZM8.39028 16.6814L7.79229 17.2531H7.7923L8.39028 16.6814ZM3.60938 12.1109L4.20736 11.5392V11.5392L3.60938 12.1109ZM14.7723 1.43907L15.3703 0.867401V0.867399L14.7723 1.43907ZM19.5532 6.00964L18.9553 6.58132L19.5532 6.00964ZM14.9749 12.2938L10.9833 16.1098L12.1793 17.2531L16.1708 13.4371L14.9749 12.2938ZM10.9833 16.1098C10.4341 16.6348 9.5375 16.6348 8.98827 16.1098L7.7923 17.2531C9.00206 18.4096 10.9695 18.4096 12.1793 17.2531L10.9833 16.1098ZM8.98827 16.1098L4.20736 11.5392L3.01139 12.6825L7.79229 17.2531L8.98827 16.1098ZM4.20736 11.5392C3.65811 11.0141 3.65811 10.157 4.20736 9.63193L3.01139 8.48858C1.80163 9.64511 1.80163 11.526 3.01139 12.6825L4.20736 11.5392ZM4.20736 9.63193L12.1793 2.01075L10.9833 0.867399L3.01139 8.48858L4.20736 9.63193ZM12.1793 2.01075C12.7285 1.48567 13.6251 1.48567 14.1743 2.01075L15.3703 0.867399C14.1606 -0.289133 12.1931 -0.289133 10.9833 0.867399L12.1793 2.01075ZM14.1743 2.01075L18.9553 6.58132L20.1512 5.43797L15.3703 0.867401L14.1743 2.01075ZM18.9553 6.58132C19.5045 7.1064 19.5045 7.9635 18.9553 8.48858L20.1512 9.63193C21.3609 8.47539 21.3609 6.5945 20.1512 5.43797L18.9553 6.58132ZM18.9553 8.48858L14.9749 12.2938L16.1708 13.4371L20.1512 9.63193L18.9553 8.48858Z" fill="#93989A"/>
<path d="M0.845677 20.0775C0.378622 20.0775 0 20.4395 0 20.886C0 21.3325 0.378622 21.6945 0.845677 21.6945V20.0775ZM7.61109 21.6945C8.07814 21.6945 8.45677 21.3325 8.45677 20.886C8.45677 20.4395 8.07814 20.0775 7.61109 20.0775V21.6945ZM0.845677 21.6945H7.61109V20.0775H0.845677V21.6945Z" fill="#93989A"/>
<path d="M6.58739 6.21445C6.25713 5.89873 5.72168 5.89873 5.39142 6.21446C5.06116 6.53018 5.06116 7.04208 5.39142 7.3578L6.58739 6.21445ZM13.3633 14.979C13.6936 15.2947 14.2291 15.2947 14.5593 14.979C14.8896 14.6632 14.8896 14.1513 14.5593 13.8356L13.3633 14.979ZM5.39142 7.3578L13.3633 14.979L14.5593 13.8356L6.58739 6.21445L5.39142 7.3578Z" fill="#93989A"/>
</svg>
