<svg width="30" height="30" viewBox="0 0 30 30" fill="none" xmlns="http://www.w3.org/2000/svg">
<g clip-path="url(#clip0_52_46096)">
<path d="M19.1248 17.0625C20.6248 17.7188 22.031 19.2187 22.4998 21.375C22.9685 23.625 22.3123 26.25 20.906 27.4687C19.9685 28.3125 18.8435 28.5 17.8123 28.5C15.1873 28.5 12.656 27.4688 10.031 26.3438C9.18729 25.9688 8.24979 25.5938 7.49979 24.9375C6.74979 24.2812 6.09354 23.25 5.99979 22.0312C5.81229 20.3437 6.65604 18.6562 7.78104 17.7187C9.65604 16.2187 11.6248 15.6562 13.5935 15.6562C15.3748 15.6562 17.4373 16.4062 19.1248 17.0625Z" fill="#3E2470"/>
<path d="M18.8436 17.5313C20.2499 18.0938 21.5624 19.3125 22.0311 21.1875C22.4999 23.0625 21.8436 25.3125 20.5311 26.3438C19.6874 27 18.6561 27.1875 17.6249 27.1875C15.1874 27.1875 12.7499 26.25 10.3124 25.4063C9.46862 25.125 8.71862 24.75 7.96862 24.1875C7.21862 23.625 6.65612 22.6875 6.56237 21.6563C6.37487 20.1563 7.21862 18.75 8.24987 18C10.0311 16.7813 11.9061 16.2188 13.7811 16.2188C15.2811 16.4062 17.3436 16.9688 18.8436 17.5313Z" fill="#8980F9"/>
<path d="M17.0625 18.2805C18 18.843 18.8438 19.8743 18.9375 21.093C19.0313 22.4055 18.2812 23.718 17.1562 24.2805C16.4062 24.6555 15.6562 24.5618 14.9062 24.468C13.125 24.093 11.4375 23.2493 9.75 22.3118C9.1875 22.0305 8.625 21.6555 8.15625 21.1868C7.6875 20.718 7.40625 20.0618 7.40625 19.3118C7.5 18.3743 8.25 17.5305 9.09375 17.1555C10.5937 16.593 12 16.4993 13.3125 16.7805C14.625 17.0618 16.0313 17.718 17.0625 18.2805Z" fill="#E5A98C"/>
<path d="M16.4996 18.375C17.3434 18.8438 17.9996 19.6875 18.0934 20.7188C18.1871 21.75 17.5309 22.9688 16.6871 23.3438C16.1246 23.625 15.4684 23.625 14.8121 23.4375C13.3121 23.1563 11.9059 22.4063 10.5934 21.6563C10.1246 21.375 9.65587 21.0938 9.28087 20.7188C8.90586 20.3438 8.62462 19.7813 8.71837 19.2188C8.81212 18.375 9.37462 17.7188 10.1246 17.4375C11.3434 16.9688 12.4684 16.875 13.6871 17.1562C14.4371 17.3437 15.5621 17.9063 16.4996 18.375Z" fill="#FAEACF"/>
<path opacity="0.6" d="M8.53125 17.3438C8.53125 17.3438 9.75 20.625 11.1562 21C12.5625 21.2812 15.1875 21.8438 18.375 18.375L8.53125 17.3438Z" fill="#3E2470"/>
<path opacity="0.28" d="M19.9241 23.5995C20.3719 21.8435 19.8401 20.1918 18.7364 19.9103C17.6326 19.6289 16.3748 20.8242 15.927 22.5802C15.4792 24.3362 16.011 25.9879 17.1148 26.2694C18.2185 26.5509 19.4763 25.3555 19.9241 23.5995Z" fill="white"/>
<path d="M23.0625 11.5313C25.03 11.5313 26.625 9.93626 26.625 7.96875C26.625 6.00124 25.03 4.40625 23.0625 4.40625C21.095 4.40625 19.5 6.00124 19.5 7.96875C19.5 9.93626 21.095 11.5313 23.0625 11.5313Z" fill="#3E2470"/>
<path d="M22.5938 10.9688C24.1988 10.9688 25.5 9.66758 25.5 8.0625C25.5 6.45742 24.1988 5.15625 22.5938 5.15625C20.9887 5.15625 19.6875 6.45742 19.6875 8.0625C19.6875 9.66758 20.9887 10.9688 22.5938 10.9688Z" fill="#5D44CC"/>
<path d="M9.09375 7.59375C11.0613 7.59375 12.6562 5.99876 12.6562 4.03125C12.6562 2.06374 11.0613 0.46875 9.09375 0.46875C7.12624 0.46875 5.53125 2.06374 5.53125 4.03125C5.53125 5.99876 7.12624 7.59375 9.09375 7.59375Z" fill="#3E2470"/>
<path d="M9.1875 9C10.7926 9 12.0938 7.69883 12.0938 6.09375C12.0938 4.48867 10.7926 3.1875 9.1875 3.1875C7.58242 3.1875 6.28125 4.48867 6.28125 6.09375C6.28125 7.69883 7.58242 9 9.1875 9Z" fill="#5D44CC"/>
<path d="M17.1562 0.375C17.1562 0.375 22.125 0.46875 24.1875 5.53125L21.5625 5.15625L17.1562 0.375Z" fill="#3E2470"/>
<path d="M10.0312 1.78125C10.0312 1.78125 4.12491 5.15625 7.59366 11.9062C11.0624 18.6562 21.7499 14.0625 22.5937 12.8438C23.4374 11.625 26.0624 6.84375 23.2499 4.6875C20.4374 2.53125 10.0312 1.78125 10.0312 1.78125Z" fill="#5D44CC"/>
<path d="M7.50019 6.93709C7.50019 6.93709 6.09394 16.6871 10.1252 19.2183C14.1564 21.7496 18.8439 21.6558 23.3439 11.0621C23.3439 11.0621 23.6252 5.43708 17.6252 4.40583C12.0002 3.56208 7.59394 5.81209 7.50019 6.93709Z" fill="#BC7458"/>
<path d="M7.87473 7.21925C7.87473 7.21925 6.56223 16.313 10.2185 18.6567C13.9685 21.0005 18.3747 20.9067 22.4997 11.063C22.4997 11.063 22.6872 5.90675 17.2497 4.96925C12.0935 4.1255 7.96848 6.28175 7.87473 7.21925Z" fill="#E5A98C"/>
<path d="M7.96832 7.7809C7.96832 7.7809 6.74957 15.9371 10.2183 18.0934C13.7808 20.2496 17.8121 20.0622 21.4683 11.3434C21.4683 11.3434 21.5621 6.74965 16.5933 5.9059C11.8121 4.9684 8.06207 6.8434 7.96832 7.7809Z" fill="#E8CCAA"/>
<path d="M8.06275 8.34419C8.06275 8.34419 6.93774 15.9379 10.1252 17.9067C13.3127 19.8754 17.0627 19.6879 20.4377 11.5317C20.4377 11.5317 20.5315 7.31294 15.9377 6.46919C11.5315 5.71919 8.1565 7.50044 8.06275 8.34419Z" fill="#FAEACF"/>
<path d="M19.7814 9.84462C19.4064 9.56337 18.9376 9.28212 18.3751 9.18837C17.1564 8.90712 16.0314 9.56337 15.8439 10.5946L15.5626 12.3759C15.4689 13.2196 16.1251 13.9696 16.9689 14.3446C17.9064 14.7196 19.0314 14.3446 19.5001 13.5946C19.7814 13.1259 20.0626 12.5634 20.3439 11.9071C20.6251 11.0634 20.4376 10.3134 19.7814 9.84462Z" fill="#3C505B"/>
<path d="M19.5004 10.3132C19.2192 10.032 18.7504 9.75072 18.1879 9.65697C17.0629 9.37572 15.9379 10.1257 15.6567 11.2507L15.3754 13.1257C15.2817 14.0632 15.8442 14.907 16.6879 15.1882C17.6254 15.4695 18.6567 15.0945 19.1254 14.2507C19.4067 13.782 19.7817 13.1257 19.9692 12.3757C20.3442 11.7195 20.1567 10.8757 19.5004 10.3132Z" fill="white"/>
<path d="M16.4059 11.2504C17.0621 10.2192 18.0934 9.7504 18.7496 10.3129C19.4996 10.8754 19.5934 12.3754 19.0309 13.5942C18.3746 15.0004 17.1559 15.4692 16.4059 14.7192C15.6559 13.9692 15.7496 12.4692 16.4059 11.2504Z" fill="#A075D1"/>
<path d="M16.5935 11.2494C17.0622 10.4994 17.8122 10.2181 18.3747 10.5931C18.9372 11.0619 19.0309 12.0931 18.6559 13.0306C18.1872 14.0619 17.2497 14.4369 16.6872 13.8744C16.0309 13.2181 16.031 12.0931 16.5935 11.2494Z" fill="#3C505B"/>
<path d="M17.3436 11.8124C17.5311 11.5311 17.9999 11.4374 18.2811 11.6249C18.5624 11.8124 18.7499 12.2811 18.4686 12.6561C18.2811 13.1249 17.7186 13.2186 17.4374 12.9374C17.1561 12.6561 17.0624 12.1874 17.3436 11.8124Z" fill="white"/>
<path d="M11.9059 8.43683C11.5309 8.24933 11.0621 8.06183 10.4996 8.06183C9.37464 7.96808 8.43714 8.81183 8.53089 9.74933C8.53089 10.2181 8.62464 10.7806 8.62464 11.3431C8.71839 12.0931 9.37464 12.7493 10.3121 12.8431C11.2496 13.0306 12.0934 12.5618 12.3746 11.7181C12.5621 11.2493 12.6559 10.6868 12.7496 10.0306C12.9371 9.46808 12.5621 8.81183 11.9059 8.43683Z" fill="#3C505B"/>
<path d="M11.9062 9C11.5312 8.8125 11.0625 8.625 10.5 8.53125C9.375 8.53125 8.53125 9.375 8.53125 10.5L8.625 12.375C8.71875 13.2187 9.375 13.9688 10.2187 14.1562C11.1562 14.3438 12 13.7812 12.2812 12.8437C12.4688 12.2812 12.6562 11.625 12.6562 10.875C12.9375 10.2188 12.5625 9.375 11.9062 9Z" fill="white"/>
<path d="M9.09334 10.313C9.46834 9.18796 10.3121 8.62546 11.0621 9.00046C11.8121 9.37546 12.2808 10.7817 11.9996 12.0942C11.7183 13.5005 10.5933 14.2505 9.74959 13.5942C8.90584 13.0317 8.71834 11.5317 9.09334 10.313Z" fill="#A075D1"/>
<path d="M9.28086 10.4068C9.56211 9.56304 10.2184 9.18804 10.7809 9.46929C11.3434 9.75054 11.7184 10.7818 11.5309 11.7193C11.2496 12.7505 10.4996 13.313 9.84336 12.8443C9.18711 12.3755 8.99961 11.2505 9.28086 10.4068Z" fill="#3C505B"/>
<path d="M10.2185 10.7819C10.406 10.4069 10.6872 10.3131 11.0622 10.4069C11.4372 10.5006 11.6247 10.9694 11.531 11.3444C11.4372 11.8131 10.9685 12.0006 10.5935 11.8131C10.1247 11.6256 10.031 11.1569 10.2185 10.7819Z" fill="white"/>
<path d="M9.09365 7.3125C9.09365 7.3125 12.9374 7.875 13.1249 7.59375C13.3124 7.40625 13.5936 6.65625 13.1249 6.46875C12.5624 6.28125 9.1874 6.28125 9.1874 6.28125C9.1874 6.28125 8.71865 6.65625 9.09365 7.3125ZM16.6874 8.0625C16.6874 8.0625 20.2499 9.65625 20.5311 9.46875C20.8124 9.28125 21.2811 8.71875 20.8124 8.34375C20.3436 7.96875 16.9686 7.03125 16.9686 7.03125C16.9686 7.03125 16.4061 7.3125 16.6874 8.0625Z" fill="#A67A65"/>
<path d="M10.0312 18.1875L7.6875 11.9062C7.78125 11.9062 7.59375 16.4062 10.0312 18.1875Z" fill="#E5A98C"/>
<path d="M15.1875 19.0312L19.5 13.875C19.5 13.875 18.0938 18.1875 15.1875 19.0312Z" fill="#E8CCAA"/>
<path d="M21.6562 12.2814C21.6562 12.2814 22.5937 11.6251 23.3437 12.3751C24.0937 13.1251 22.9688 16.4064 20.3438 15.9376L21.6562 12.2814Z" fill="#BC7458"/>
<path d="M17.4378 0.375C17.4378 0.375 21.844 1.78125 23.344 5.34375C24.9378 9.1875 21.6565 13.875 21.6565 13.875C21.6565 13.875 20.6253 8.0625 19.594 7.21875C18.469 6.375 15.844 4.6875 17.4378 0.375Z" fill="#5D44CC"/>
<path d="M18.2811 2.53125C18.2811 2.53125 17.5311 5.71875 15.3748 6C13.2186 6.28125 8.43734 6.28125 7.40609 9.09375C7.40609 9.09375 6.74984 6.46875 7.87484 3.65625C8.99984 0.84375 14.5311 -0.9375 17.8123 0.5625C21.0936 2.0625 18.0936 2.53125 18.0936 2.53125" fill="#5D44CC"/>
<path d="M21.4687 12.4683C21.4687 12.4683 22.125 11.9995 22.6875 12.562C23.25 13.1245 22.4062 15.4683 20.5312 15.187L21.4687 12.4683Z" fill="#E5A98C"/>
<path d="M7.96909 6.9375C7.96909 6.9375 6.18784 6.65625 6.28159 4.6875C6.28159 4.6875 5.90659 7.875 7.78159 10.0312C7.68784 10.0312 7.78159 8.15625 7.96909 6.9375ZM22.6878 4.3125C22.6878 4.3125 24.1878 6.375 23.3441 8.8125C22.5003 11.25 21.3753 12.1875 21.3753 12.1875C21.3753 12.1875 22.2191 12.75 22.0316 13.5C22.0316 13.5 24.0941 11.3438 24.4691 8.8125C24.8441 6.28125 24.1878 5.0625 22.7816 4.40625" fill="#3E2470"/>
<path d="M16.0312 1.31175C16.0312 1.31175 11.25 0.467999 8.4375 4.49925C8.4375 4.49925 7.6875 4.968 7.59375 6.6555C7.59375 6.6555 8.0625 5.24925 8.8125 4.968C9.5625 4.7805 13.9688 3.74925 15.0938 2.99925C16.2188 2.24925 16.5938 1.87425 16.0312 1.31175ZM19.125 2.5305C19.125 2.5305 19.2188 4.49925 21.0938 6.093C22.9688 7.68675 22.4062 4.968 19.125 2.5305Z" fill="#8980F9"/>
<path d="M15.0942 17.25C15.0942 17.25 12.938 16.5938 10.9692 15.75C10.9692 15.75 10.7817 18 12.0942 18.6563C13.5005 19.2188 15.0942 17.25 15.0942 17.25Z" fill="#BC7458"/>
<path d="M17.625 18.6562L16.5938 21L25.5 25.7813L26.4375 23.625L17.625 18.6562Z" fill="#AA5D18"/>
<path d="M18.0944 26.5318L17.6256 19.1255C17.5319 18.2818 18.6569 17.9068 19.2194 18.188L25.8756 21.563C26.8131 22.0318 27.0006 23.6255 25.9694 24.188L19.2194 27.563C18.7506 27.8443 18.0944 27.2818 18.0944 26.5318Z" fill="#AA5D18"/>
<path d="M16.8752 29.0621L16.4065 21.7496C16.3127 20.9059 16.969 20.1559 17.5315 20.4371L24.844 24.0934C25.8752 24.5621 25.7815 25.9684 24.7502 26.5309L18.3752 29.8121C17.9065 30.1871 16.969 29.8121 16.8752 29.0621Z" fill="#AA5D18"/>
<path d="M17.4371 28.3126L17.0621 21.9376C16.9683 21.1876 17.5308 20.5313 18.0933 20.8126L24.4683 24.0001C25.3121 24.3751 25.3121 25.5938 24.3746 26.0626L18.4683 29.1563C17.9996 29.3438 17.4371 28.8751 17.4371 28.3126Z" fill="#D98521"/>
<path d="M24.5625 23.3437H25.9688L24.9375 25.5937L17.0625 21.375L18 19.3125L24.5625 23.3437Z" fill="#D98521"/>
<path d="M18.3755 26.3439L18.0005 19.9689C17.9067 19.2189 18.4692 18.4689 19.2192 18.8439L25.5005 22.0314C26.3442 22.5001 26.3442 23.7189 25.4067 24.1876L19.4067 27.1876C18.938 27.3751 18.3755 26.9064 18.3755 26.3439Z" fill="#FFE9BD"/>
<path d="M18.5625 25.968L18.1875 19.8742C18.1875 19.1242 18.6562 18.5617 19.125 18.7492L25.2188 21.843C26.0625 22.218 25.9687 23.4367 25.125 23.9055L19.5 26.8117C19.125 26.9992 18.6562 26.5305 18.5625 25.968Z" fill="url(#paint0_linear_52_46096)"/>
<path d="M23.9062 21.1875L24.1875 24.5625L25.4063 23.9063L25.125 21.8437L23.9062 21.1875ZM21.5625 20.0625L22.125 25.6875L23.25 25.0313L22.875 20.7188L21.5625 20.0625Z" fill="#FFE9BD"/>
<path d="M16.7812 21.0938L17.0625 24L18.1875 23.0625L18 19.875C18 19.875 18 19.5 18.1875 19.2188L16.7812 21.0938Z" fill="url(#paint1_linear_52_46096)"/>
<path d="M22.875 25.4063L22.2188 27.5625L24.9375 26.0625L26.0625 23.3438C26.0625 23.3438 25.7812 23.7188 25.5 24C25.5 24 25.2187 24.1875 24.9375 24.2812L22.875 25.4063Z" fill="url(#paint2_linear_52_46096)"/>
<path opacity="0.2" d="M18.9375 27.0938L18.0938 29.1563C18.0938 29.1563 17.8125 29.0625 17.625 28.7813L18.6563 26.625L18.9375 27.0938Z" fill="#FFE9BD"/>
</g>
<defs>
<linearGradient id="paint0_linear_52_46096" x1="18.6631" y1="27.2988" x2="22.6312" y2="20.1175" gradientUnits="userSpaceOnUse">
<stop stop-color="#FFB554"/>
<stop offset="1" stop-color="#FFEA61"/>
</linearGradient>
<linearGradient id="paint1_linear_52_46096" x1="17.3558" y1="20.4057" x2="17.6518" y2="22.8487" gradientUnits="userSpaceOnUse">
<stop stop-color="#AA5D18"/>
<stop offset="1" stop-color="#AA5D18" stop-opacity="0"/>
</linearGradient>
<linearGradient id="paint2_linear_52_46096" x1="26.0016" y1="24.3161" x2="23.3617" y2="25.9838" gradientUnits="userSpaceOnUse">
<stop stop-color="#AA5D18"/>
<stop offset="1" stop-color="#AA5D18" stop-opacity="0"/>
</linearGradient>
<clipPath id="clip0_52_46096">
<rect width="30" height="30" fill="white"/>
</clipPath>
</defs>
</svg>
