<svg width="312" height="121" viewBox="0 0 312 121" fill="none" xmlns="http://www.w3.org/2000/svg">
<rect y="53.71" width="312" height="67" fill="white"/>
<rect y="53.71" width="4" height="67" fill="#214EB4"/>
<rect x="6" y="53.71" width="6" height="67" fill="#214EB4"/>
<rect x="14" y="53.71" width="2" height="67" fill="#214EB4"/>
<rect x="18" y="53.71" width="2" height="67" fill="#214EB4"/>
<rect x="22" y="53.71" width="3" height="67" fill="#214EB4"/>
<rect x="27" y="53.71" width="7" height="67" fill="#214EB4"/>
<rect width="4" height="67" transform="matrix(-1 0 0 1 73 53.71)" fill="#214EB4"/>
<rect width="6" height="67" transform="matrix(-1 0 0 1 67 53.71)" fill="#214EB4"/>
<rect width="2" height="67" transform="matrix(-1 0 0 1 59 53.71)" fill="#214EB4"/>
<rect width="2" height="67" transform="matrix(-1 0 0 1 55 53.71)" fill="#214EB4"/>
<rect width="5" height="67" transform="matrix(-1 0 0 1 53 53.71)" fill="#214EB4"/>
<rect width="2" height="67" transform="matrix(-1 0 0 1 38 53.71)" fill="#214EB4"/>
<rect width="2" height="67" transform="matrix(-1 0 0 1 42 53.71)" fill="#214EB4"/>
<rect width="2" height="67" transform="matrix(-1 0 0 1 46 53.71)" fill="#214EB4"/>
<path fill-rule="evenodd" clip-rule="evenodd" d="M117 0H119V57.2478H117V0ZM121 0H125V57.2478H121V0ZM129 0H131V57.2478H129V0ZM133 0H139V57.2478H133V0ZM141 0H143V57.2478H141V0ZM147 0H149V57.2478H147V0ZM151 0H153V57.2478H151V0ZM155 0H157V57.2478H155V0Z" fill="#214EB4"/>
<path d="M75 0H79V57.2478H75V0ZM83 0H85V57.2478H83V0ZM87 0H91V57.2478H87V0ZM93 0H97V57.2478H93V0ZM99 0H103V57.2478H99V0ZM105 0H107V57.2478H105V0ZM109 0H115V57.2478H109V0Z" fill="#214EB4"/>
<path fill-rule="evenodd" clip-rule="evenodd" d="M178.512 0H179.536V57.2478H178.512V0ZM180.56 0H182.609V57.2478H180.56V0ZM184.658 0H185.682V57.2478H184.658V0ZM186.707 0H189.78V57.2478H186.707V0ZM190.804 0H191.829V57.2478H190.804V0ZM193.878 0H194.902V57.2478H193.878V0ZM195.926 0H196.951V57.2478H195.926V0ZM197.975 0H199V57.2478H197.975V0Z" fill="#214EB4"/>
<path d="M157 0H159.049V57.2478H157V0ZM161.098 0H162.122V57.2478H161.098V0ZM163.146 0H165.195V57.2478H163.146V0ZM166.22 0H168.268V57.2478H166.22V0ZM169.293 0H171.341V57.2478H169.293V0ZM172.366 0H173.39V57.2478H172.366V0ZM174.415 0H177.488V57.2478H174.415V0Z" fill="#214EB4"/>
<path fill-rule="evenodd" clip-rule="evenodd" d="M236.951 0H238.854V57.2478H236.951V0ZM240.756 0H244.561V57.2478H240.756V0ZM248.366 0H250.268V57.2478H248.366V0ZM252.171 0H257.878V57.2478H252.171V0ZM259.78 0H261.683V57.2478H259.78V0ZM265.488 0H267.39V57.2478H265.488V0ZM269.293 0H271.195V57.2478H269.293V0ZM273.098 0H275V57.2478H273.098V0Z" fill="#214EB4"/>
<path d="M197 0H200.805V57.2478H197V0ZM204.61 0H206.512V57.2478H204.61V0ZM208.415 0H212.22V57.2478H208.415V0ZM214.122 0H217.927V57.2478H214.122V0ZM219.829 0H223.634V57.2478H219.829V0ZM225.537 0H227.439V57.2478H225.537V0ZM229.341 0H235.049V57.2478H229.341V0Z" fill="#214EB4"/>
<path fill-rule="evenodd" clip-rule="evenodd" d="M293 0H293.95V57.2478H293V0ZM294.9 0H296.8V57.2478H294.9V0ZM298.7 0H299.65V57.2478H298.7V0ZM300.6 0H303.45V57.2478H300.6V0ZM304.4 0H305.35V57.2478H304.4V0ZM307.25 0H308.2V57.2478H307.25V0ZM309.15 0H310.1V57.2478H309.15V0ZM311.05 0H312V57.2478H311.05V0Z" fill="#214EB4"/>
<path d="M275 0H276.5V57.2478H275V0ZM278 0H278.75V57.2478H278V0ZM279.5 0H281V57.2478H279.5V0ZM281.75 0H283.25V57.2478H281.75V0ZM284 0H285.5V57.2478H284V0ZM286.25 0H287V57.2478H286.25V0ZM287.75 0H290V57.2478H287.75V0Z" fill="#214EB4"/>
</svg>
