<svg width="120" height="24" viewBox="0 0 120 24" fill="none" xmlns="http://www.w3.org/2000/svg">
<path d="M12 21.6496C11.69 21.6496 11.39 21.6096 11.14 21.5196C7.32 20.2096 1.25 15.5596 1.25 8.68961C1.25 5.18961 4.08 2.34961 7.56 2.34961C9.25 2.34961 10.83 3.00961 12 4.18961C13.17 3.00961 14.75 2.34961 16.44 2.34961C19.92 2.34961 22.75 5.19961 22.75 8.68961C22.75 15.5696 16.68 20.2096 12.86 21.5196C12.61 21.6096 12.31 21.6496 12 21.6496ZM7.56 3.84961C4.91 3.84961 2.75 6.01961 2.75 8.68961C2.75 15.5196 9.32 19.3196 11.63 20.1096C11.81 20.1696 12.2 20.1696 12.38 20.1096C14.68 19.3196 21.26 15.5296 21.26 8.68961C21.26 6.01961 19.1 3.84961 16.45 3.84961C14.93 3.84961 13.52 4.55961 12.61 5.78961C12.33 6.16961 11.69 6.16961 11.41 5.78961C10.48 4.54961 9.08 3.84961 7.56 3.84961Z" fill="white"/>
<path d="M64.5 8.6303C64.09 8.6303 63.75 8.2903 63.75 7.8803V6.5003C63.75 5.4503 63.3 4.4303 62.52 3.7203C61.73 3.0003 60.71 2.6703 59.63 2.7703C57.83 2.9403 56.25 4.7803 56.25 6.7003V7.6703C56.25 8.0803 55.91 8.4203 55.5 8.4203C55.09 8.4203 54.75 8.0803 54.75 7.6703V6.6903C54.75 4.0003 56.92 1.5203 59.49 1.2703C60.99 1.1303 62.43 1.6003 63.53 2.6103C64.62 3.6003 65.25 5.0203 65.25 6.5003V7.8803C65.25 8.2903 64.91 8.6303 64.5 8.6303Z" fill="white"/>
<path d="M62.9998 22.75H56.9998C52.3798 22.75 51.5198 20.6 51.2998 18.51L50.5498 12.52C50.4398 11.44 50.3998 9.89 51.4498 8.73C52.3498 7.73 53.8398 7.25 55.9998 7.25H63.9998C66.1698 7.25 67.6598 7.74 68.5498 8.73C69.5898 9.89 69.5598 11.44 69.4498 12.5L68.6998 18.51C68.4798 20.6 67.6198 22.75 62.9998 22.75ZM55.9998 8.75C54.3098 8.75 53.1498 9.08 52.5598 9.74C52.0698 10.28 51.9098 11.11 52.0398 12.35L52.7898 18.34C52.9598 19.94 53.3998 21.26 56.9998 21.26H62.9998C66.5998 21.26 67.0398 19.95 67.2098 18.36L67.9598 12.35C68.0898 11.13 67.9298 10.3 67.4398 9.75C66.8498 9.08 65.6898 8.75 63.9998 8.75H55.9998Z" fill="white"/>
<path d="M63.4202 13.1504C62.8602 13.1504 62.4102 12.7004 62.4102 12.1504C62.4102 11.6004 62.8602 11.1504 63.4102 11.1504C63.9602 11.1504 64.4102 11.6004 64.4102 12.1504C64.4102 12.7004 63.9702 13.1504 63.4202 13.1504Z" fill="white"/>
<path d="M56.4202 13.1504C55.8602 13.1504 55.4102 12.7004 55.4102 12.1504C55.4102 11.6004 55.8602 11.1504 56.4102 11.1504C56.9602 11.1504 57.4102 11.6004 57.4102 12.1504C57.4102 12.7004 56.9702 13.1504 56.4202 13.1504Z" fill="white"/>
<path d="M108.161 11.62C108.131 11.62 108.111 11.62 108.081 11.62C108.031 11.61 107.961 11.61 107.901 11.62C105.001 11.53 102.811 9.25 102.811 6.44C102.811 3.58 105.141 1.25 108.001 1.25C110.861 1.25 113.191 3.58 113.191 6.44C113.181 9.25 110.981 11.53 108.191 11.62C108.181 11.62 108.171 11.62 108.161 11.62ZM108.001 2.75C105.971 2.75 104.311 4.41 104.311 6.44C104.311 8.44 105.871 10.05 107.861 10.12C107.911 10.11 108.051 10.11 108.181 10.12C110.141 10.03 111.681 8.42 111.691 6.44C111.691 4.41 110.031 2.75 108.001 2.75Z" fill="white"/>
<path d="M108.17 22.55C106.21 22.55 104.24 22.05 102.75 21.05C101.36 20.13 100.6 18.87 100.6 17.5C100.6 16.13 101.36 14.86 102.75 13.93C105.75 11.94 110.61 11.94 113.59 13.93C114.97 14.85 115.74 16.11 115.74 17.48C115.74 18.85 114.98 20.12 113.59 21.05C112.09 22.05 110.13 22.55 108.17 22.55ZM103.58 15.19C102.62 15.83 102.1 16.65 102.1 17.51C102.1 18.36 102.63 19.18 103.58 19.81C106.07 21.48 110.27 21.48 112.76 19.81C113.72 19.17 114.24 18.35 114.24 17.49C114.24 16.64 113.71 15.82 112.76 15.19C110.27 13.53 106.07 13.53 103.58 15.19Z" fill="white"/>
</svg>
