<svg width="105" height="597" viewBox="0 0 105 597" fill="none" xmlns="http://www.w3.org/2000/svg">
<rect y="492" width="105" height="105" rx="12" fill="white"/>
<g clip-path="url(#clip0_37_40357)">
<path d="M62.6224 557.656L61.7615 541.999C61.6864 540.662 61.1846 539.384 60.3297 538.352C59.4748 537.321 58.3118 536.591 57.0115 536.269L58.7927 529.459C58.8391 529.283 58.8445 529.099 58.8083 528.92C58.7721 528.742 58.6954 528.574 58.584 528.43C58.4727 528.286 58.3297 528.169 58.1662 528.089C58.0027 528.01 57.8229 527.968 57.6408 527.969H57.0471V526.188C57.0471 525.873 56.922 525.571 56.6993 525.348C56.4766 525.125 56.1745 525 55.8596 525H51.1096C50.2154 525.001 49.3453 525.29 48.6287 525.825C47.912 526.36 47.387 527.112 47.1315 527.969H46.3596C46.178 527.969 45.999 528.011 45.8362 528.091C45.6734 528.172 45.5312 528.288 45.4205 528.432C45.3098 528.576 45.2337 528.744 45.1978 528.922C45.1619 529.1 45.1674 529.284 45.2137 529.459L46.9949 536.269C45.6946 536.591 44.5316 537.321 43.6767 538.352C42.8218 539.384 42.32 540.662 42.2449 541.999L41.378 557.656C40.6694 557.688 40.0023 557.999 39.5235 558.523C39.0447 559.046 38.7934 559.738 38.8249 560.447C38.8564 561.156 39.1681 561.823 39.6914 562.301C40.2148 562.78 40.9069 563.031 41.6155 563H62.3968C63.1054 563.031 63.7975 562.78 64.3209 562.301C64.8442 561.823 65.1559 561.156 65.1874 560.447C65.2189 559.738 64.9676 559.046 64.4888 558.523C64.01 557.999 63.3429 557.688 62.6343 557.656H62.6224ZM51.1096 527.375H54.6721V527.969H54.0783C53.7634 527.969 53.4614 528.094 53.2387 528.317C53.016 528.539 52.8908 528.841 52.8908 529.156C52.8908 529.471 53.016 529.773 53.2387 529.996C53.4614 530.219 53.7634 530.344 54.0783 530.344H56.103L54.5949 536.085H49.4055L47.8974 530.344H49.9221C50.237 530.344 50.5391 530.219 50.7618 529.996C50.9845 529.773 51.1096 529.471 51.1096 529.156C51.1096 528.841 50.9845 528.539 50.7618 528.317C50.5391 528.094 50.237 527.969 49.9221 527.969H49.7915C49.9575 527.783 50.1605 527.634 50.3876 527.532C50.6146 527.43 50.8606 527.376 51.1096 527.375ZM62.3908 560.625H41.6096C41.5709 560.626 41.5324 560.619 41.4964 560.605C41.4604 560.59 41.4277 560.569 41.4 560.542C41.3724 560.515 41.3504 560.482 41.3354 560.447C41.3204 560.411 41.3127 560.373 41.3127 560.334C41.3127 560.255 41.344 560.18 41.3997 560.124C41.4553 560.068 41.5309 560.037 41.6096 560.037H42.5002C42.7975 560.038 43.0844 559.928 43.3043 559.728C43.5241 559.528 43.661 559.253 43.6877 558.957C43.6898 558.919 43.6898 558.881 43.6877 558.844L44.608 542.153C44.6612 541.163 45.0923 540.23 45.8124 539.547C46.5326 538.865 47.487 538.484 48.4793 538.484H55.5152C56.5075 538.484 57.4619 538.865 58.1821 539.547C58.9022 540.23 59.3333 541.163 59.3865 542.153L60.3127 558.844C60.3099 558.887 60.3099 558.931 60.3127 558.974C60.345 559.266 60.4842 559.536 60.7035 559.731C60.9228 559.926 61.2067 560.033 61.5002 560.031H62.3908C62.4696 560.031 62.5451 560.063 62.6008 560.118C62.6564 560.174 62.6877 560.249 62.6877 560.328C62.6886 560.368 62.6813 560.407 62.6663 560.444C62.6513 560.481 62.6289 560.514 62.6005 560.542C62.5722 560.57 62.5384 560.592 62.5013 560.606C62.4642 560.62 62.4246 560.627 62.3849 560.625H62.3908Z" fill="#ACACAC"/>
<path d="M52.826 548.4H52.6954L52.0007 548.459C51.7324 548.46 51.4677 548.397 51.2288 548.275C50.9613 548.14 50.7334 547.939 50.5674 547.689C50.4013 547.44 50.3029 547.152 50.2818 546.854C50.2606 546.555 50.3174 546.256 50.4467 545.986C50.5759 545.716 50.7731 545.484 51.019 545.313C51.2648 545.142 51.5509 545.038 51.8491 545.011C52.1473 544.984 52.4474 545.035 52.72 545.158C52.9926 545.282 53.2283 545.475 53.4041 545.717C53.5799 545.96 53.6896 546.244 53.7226 546.541C53.7572 546.856 53.9155 547.144 54.1627 547.343C54.4099 547.541 54.7257 547.633 55.0407 547.598C55.3556 547.563 55.6439 547.405 55.8421 547.158C56.0403 546.911 56.1322 546.595 56.0976 546.28C56.0292 545.707 55.8405 545.154 55.5438 544.659C55.247 544.164 54.849 543.737 54.3757 543.406C54.016 543.143 53.6145 542.942 53.1882 542.812C53.1882 542.498 53.0631 542.196 52.8404 541.973C52.6177 541.75 52.3156 541.625 52.0007 541.625C51.6857 541.625 51.3837 541.75 51.161 541.973C50.9383 542.196 50.8132 542.498 50.8132 542.812C49.865 543.091 49.0494 543.703 48.5168 544.536C47.9842 545.368 47.7706 546.365 47.9152 547.343C48.0598 548.32 48.553 549.213 49.3038 549.856C50.0546 550.498 51.0124 550.848 52.0007 550.84C52.0541 550.84 52.1313 550.84 52.8557 550.775C52.9929 550.772 53.1284 550.806 53.2483 550.873C53.3682 550.939 53.4683 551.037 53.5385 551.155C53.7147 551.501 53.7731 551.895 53.7047 552.277C53.6299 552.658 53.4289 553.004 53.1343 553.257C52.8396 553.511 52.4682 553.658 52.0798 553.675C51.6915 553.692 51.3086 553.578 50.9927 553.352C50.6769 553.125 50.4464 552.799 50.3382 552.425C50.2392 552.138 50.0336 551.899 49.7638 551.759C49.4941 551.618 49.1808 551.587 48.8884 551.67C48.596 551.754 48.347 551.947 48.1925 552.209C48.038 552.471 47.99 552.782 48.0582 553.078C48.2411 553.741 48.5901 554.345 49.0723 554.835C49.5545 555.324 50.1537 555.682 50.8132 555.875C50.8132 556.19 50.9383 556.492 51.161 556.715C51.3837 556.937 51.6857 557.062 52.0007 557.062C52.3156 557.062 52.6177 556.937 52.8404 556.715C53.0631 556.492 53.1882 556.19 53.1882 555.875C53.7662 555.703 54.2992 555.406 54.7494 555.005C55.1996 554.604 55.5559 554.109 55.7928 553.554C56.0298 553 56.1416 552.4 56.1204 551.798C56.0992 551.195 55.9454 550.605 55.6701 550.068C55.3972 549.554 54.9868 549.125 54.4846 548.831C53.9823 548.536 53.4081 548.387 52.826 548.4Z" fill="#ACACAC"/>
</g>
<rect y="369" width="105" height="105" rx="12" fill="white"/>
<g clip-path="url(#clip1_37_40357)">
<path d="M37.75 417.438H40.7188C40.7883 418.814 41.0769 420.171 41.5737 421.457L43.4619 426.848C44.2689 429.154 44.6804 431.579 44.6791 434.021V438.812C44.6791 439.127 44.8042 439.429 45.0269 439.652C45.2496 439.875 45.5516 440 45.8666 440H58.745C59.0599 440 59.362 439.875 59.5847 439.652C59.8074 439.429 59.9325 439.127 59.9325 438.812V432.923H63.0616C64.0784 432.921 65.053 432.516 65.772 431.797C66.491 431.078 66.8956 430.104 66.8972 429.087V425.958H69.4622C69.672 425.961 69.8789 425.908 70.0618 425.805C70.2446 425.702 70.3969 425.552 70.5031 425.371C70.6093 425.19 70.6656 424.984 70.6663 424.774C70.6671 424.565 70.6121 424.358 70.5072 424.177L66.8972 417.503V417.307C66.894 414.281 65.6907 411.38 63.5513 409.241C61.4118 407.101 58.511 405.898 55.4853 405.895H53.7041C53.504 404.802 52.9268 403.813 52.073 403.101C51.2192 402.39 50.1428 402 49.0312 402H37.75C36.4902 402 35.282 402.5 34.3912 403.391C33.5004 404.282 33 405.49 33 406.75V412.688C33 413.947 33.5004 415.155 34.3912 416.046C35.282 416.937 36.4902 417.438 37.75 417.438ZM64.5222 417.307V417.8C64.5222 417.997 64.5712 418.19 64.6647 418.364L67.4731 423.583H65.6919C65.3769 423.583 65.0749 423.708 64.8522 423.931C64.6295 424.153 64.5044 424.455 64.5044 424.77V429.087C64.5044 429.474 64.3505 429.846 64.0766 430.12C63.8026 430.394 63.4311 430.548 63.0437 430.548H58.745C58.4301 430.548 58.128 430.673 57.9053 430.895C57.6826 431.118 57.5575 431.42 57.5575 431.735V437.625H47.0659V434.021C47.0688 431.312 46.6131 428.622 45.7181 426.065L43.8181 420.644C43.4111 419.619 43.1667 418.537 43.0938 417.438H43.7706L48.1762 421.837C48.2881 421.95 48.4214 422.039 48.5683 422.099C48.7151 422.159 48.8726 422.189 49.0312 422.188C49.1879 422.187 49.3431 422.157 49.4884 422.098C49.7051 422.008 49.8901 421.855 50.0201 421.66C50.1501 421.464 50.2192 421.235 50.2188 421V417.289C51.2388 417.026 52.1423 416.431 52.7872 415.598C53.4321 414.765 53.7818 413.741 53.7812 412.688V408.27H55.4853C57.8811 408.273 60.1778 409.226 61.8719 410.92C63.5659 412.614 64.519 414.911 64.5222 417.307ZM35.375 406.75C35.375 406.12 35.6252 405.516 36.0706 405.071C36.516 404.625 37.1201 404.375 37.75 404.375H49.0312C49.6611 404.375 50.2652 404.625 50.7106 405.071C51.156 405.516 51.4062 406.12 51.4062 406.75V412.688C51.4062 413.317 51.156 413.921 50.7106 414.367C50.2652 414.812 49.6611 415.062 49.0312 415.062C48.7163 415.062 48.4143 415.188 48.1916 415.41C47.9689 415.633 47.8438 415.935 47.8438 416.25V418.132L45.1184 415.413C44.8968 415.19 44.5957 415.064 44.2812 415.062H37.75C37.1201 415.062 36.516 414.812 36.0706 414.367C35.6252 413.921 35.375 413.317 35.375 412.688V406.75Z" fill="#ACACAC"/>
<path d="M38.0469 411.019C38.7027 411.019 39.2344 410.487 39.2344 409.831C39.2344 409.175 38.7027 408.644 38.0469 408.644C37.391 408.644 36.8594 409.175 36.8594 409.831C36.8594 410.487 37.391 411.019 38.0469 411.019Z" fill="#ACACAC"/>
<path d="M41.6094 411.019C42.2652 411.019 42.7969 410.487 42.7969 409.831C42.7969 409.175 42.2652 408.644 41.6094 408.644C40.9535 408.644 40.4219 409.175 40.4219 409.831C40.4219 410.487 40.9535 411.019 41.6094 411.019Z" fill="#ACACAC"/>
<path d="M45.1719 411.019C45.8277 411.019 46.3594 410.487 46.3594 409.831C46.3594 409.175 45.8277 408.644 45.1719 408.644C44.516 408.644 43.9844 409.175 43.9844 409.831C43.9844 410.487 44.516 411.019 45.1719 411.019Z" fill="#ACACAC"/>
<path d="M48.7344 411.019C49.3902 411.019 49.9219 410.487 49.9219 409.831C49.9219 409.175 49.3902 408.644 48.7344 408.644C48.0785 408.644 47.5469 409.175 47.5469 409.831C47.5469 410.487 48.0785 411.019 48.7344 411.019Z" fill="#ACACAC"/>
</g>
<rect y="246" width="105" height="105" rx="12" fill="white"/>
<g clip-path="url(#clip2_37_40357)">
<path d="M52 279C48.2422 279 44.5687 280.114 41.4442 282.202C38.3196 284.29 35.8844 287.257 34.4463 290.729C33.0082 294.201 32.632 298.021 33.3651 301.707C34.0982 305.392 35.9078 308.778 38.565 311.435C41.2222 314.092 44.6077 315.902 48.2933 316.635C51.9789 317.368 55.7992 316.992 59.271 315.554C62.7428 314.116 65.7102 311.68 67.7979 308.556C69.8857 305.431 71 301.758 71 298C71 292.961 68.9982 288.128 65.435 284.565C61.8718 281.002 57.0391 279 52 279V279ZM66.4222 289.747L53.1875 296.112V281.422C55.907 281.618 58.5365 282.48 60.8445 283.932C63.1524 285.383 65.0679 287.38 66.4222 289.747ZM35.375 298C35.3763 293.797 36.9693 289.751 39.8335 286.675C42.6977 283.599 46.6205 281.723 50.8125 281.422V297.573L40.5169 310.006C38.8915 308.457 37.5977 306.594 36.7138 304.531C35.83 302.467 35.3745 300.245 35.375 298ZM52 314.625C48.5357 314.629 45.158 313.543 42.3456 311.52L52.7481 298.956L67.4375 291.884C68.4343 294.404 68.8001 297.129 68.503 299.822C68.206 302.516 67.2551 305.096 65.7332 307.338C64.2113 309.579 62.1645 311.415 59.7709 312.686C57.3774 313.956 54.7097 314.621 52 314.625Z" fill="#ACACAC"/>
</g>
<rect y="123" width="105" height="105" rx="12" fill="#52B141" fill-opacity="0.05"/>
<g clip-path="url(#clip3_37_40357)">
<path d="M45.2729 192.997C45.3897 193.101 45.5259 193.181 45.6736 193.232C45.8214 193.283 45.9779 193.305 46.134 193.295C46.2901 193.286 46.4429 193.246 46.5835 193.177C46.724 193.109 46.8497 193.013 46.9532 192.896L52.0001 187.208L57.0469 192.896C57.1504 193.013 57.2761 193.109 57.4166 193.177C57.5572 193.246 57.71 193.286 57.8661 193.295C58.0222 193.305 58.1787 193.283 58.3265 193.232C58.4743 193.181 58.6105 193.101 58.7272 192.997C58.8445 192.893 58.9402 192.768 59.0088 192.627C59.0774 192.486 59.1175 192.334 59.1269 192.177C59.1363 192.021 59.1147 191.865 59.0634 191.717C59.0122 191.569 58.9322 191.433 58.8282 191.316L54.4463 186.388C54.7612 186.379 55.0595 186.245 55.2756 186.015C55.4916 185.786 55.6076 185.48 55.5982 185.165C55.5887 184.85 55.4546 184.552 55.2252 184.336C54.9958 184.12 54.69 184.004 54.3751 184.013H49.6251C49.3101 184.004 49.0043 184.12 48.7749 184.336C48.5455 184.552 48.4114 184.85 48.4019 185.165C48.3925 185.48 48.5085 185.786 48.7245 186.015C48.9406 186.245 49.2389 186.379 49.5538 186.388L45.1719 191.316C45.0679 191.433 44.9879 191.569 44.9367 191.717C44.8854 191.865 44.8639 192.021 44.8732 192.177C44.8826 192.334 44.9227 192.486 44.9913 192.627C45.0599 192.768 45.1556 192.893 45.2729 192.997Z" fill="#52B141"/>
<path d="M69.8125 156.707H34.1875C33.8726 156.707 33.5705 156.832 33.3478 157.055C33.1251 157.278 33 157.58 33 157.895C33 158.209 33.1251 158.512 33.3478 158.734C33.5705 158.957 33.8726 159.082 34.1875 159.082V179.863C34.1875 180.808 34.5628 181.714 35.2309 182.382C35.899 183.05 36.8052 183.426 37.75 183.426H66.25C67.1948 183.426 68.101 183.05 68.7691 182.382C69.4372 181.714 69.8125 180.808 69.8125 179.863V159.082C70.1274 159.082 70.4295 158.957 70.6522 158.734C70.8749 158.512 71 158.209 71 157.895C71 157.58 70.8749 157.278 70.6522 157.055C70.4295 156.832 70.1274 156.707 69.8125 156.707ZM67.4375 179.863C67.4375 180.178 67.3124 180.48 67.0897 180.703C66.867 180.926 66.5649 181.051 66.25 181.051H37.75C37.4351 181.051 37.133 180.926 36.9103 180.703C36.6876 180.48 36.5625 180.178 36.5625 179.863V159.082H67.4375V179.863Z" fill="#52B141"/>
<path d="M41.3549 177.969C41.9487 177.97 42.5331 177.821 43.0536 177.536C43.5742 177.25 44.0138 176.837 44.3316 176.335C44.6494 175.834 44.835 175.26 44.8709 174.667C44.9069 174.074 44.7922 173.482 44.5374 172.946L46.9777 170.506C47.4478 170.727 47.9605 170.842 48.4799 170.844C49.2205 170.845 49.942 170.61 50.5402 170.173L52.9152 171.776C52.8363 172.067 52.7964 172.366 52.7965 172.667C52.7881 173.223 52.9117 173.774 53.1572 174.273C53.4026 174.773 53.763 175.207 54.2086 175.54C54.6543 175.873 55.1726 176.096 55.721 176.19C56.2694 176.284 56.8324 176.247 57.3637 176.082C57.895 175.916 58.3795 175.627 58.7775 175.239C59.1756 174.85 59.4758 174.372 59.6535 173.845C59.8313 173.317 59.8815 172.755 59.8001 172.205C59.7187 171.655 59.508 171.131 59.1852 170.678L61.7502 167.115C62.0686 167.208 62.3983 167.256 62.7299 167.258C63.5182 167.259 64.2842 166.996 64.9055 166.511C65.5269 166.026 65.9677 165.346 66.1578 164.581C66.3478 163.816 66.276 163.009 65.9539 162.29C65.6318 161.57 65.0779 160.98 64.3807 160.612C63.6834 160.244 62.8831 160.12 62.1073 160.26C61.3316 160.401 60.6252 160.797 60.101 161.386C59.5767 161.974 59.2648 162.722 59.215 163.508C59.1653 164.295 59.3806 165.076 59.8265 165.726L57.2615 169.288C56.7492 169.137 56.2089 169.106 55.6826 169.197C55.1563 169.289 54.6583 169.501 54.2274 169.817L51.8821 168.214C51.961 167.924 52.001 167.624 52.0009 167.323C52.0009 166.389 51.6299 165.494 50.9696 164.833C50.3093 164.173 49.4137 163.802 48.4799 163.802C47.5461 163.802 46.6505 164.173 45.9902 164.833C45.3299 165.494 44.959 166.389 44.959 167.323C44.9588 167.843 45.0766 168.357 45.3034 168.825L42.8571 171.272C42.3888 171.045 41.8752 170.927 41.3549 170.927C40.4211 170.927 39.5255 171.298 38.8652 171.958C38.2049 172.619 37.834 173.514 37.834 174.448C37.834 175.382 38.2049 176.278 38.8652 176.938C39.5255 177.598 40.4211 177.969 41.3549 177.969ZM62.7299 162.615C62.9566 162.615 63.1781 162.682 63.3666 162.808C63.555 162.934 63.7019 163.113 63.7886 163.322C63.8754 163.532 63.8981 163.762 63.8538 163.984C63.8096 164.207 63.7005 164.411 63.5402 164.571C63.38 164.731 63.1758 164.84 62.9535 164.885C62.7312 164.929 62.5008 164.906 62.2914 164.819C62.082 164.733 61.903 164.586 61.7771 164.397C61.6512 164.209 61.584 163.987 61.584 163.761C61.5855 163.457 61.7068 163.167 61.9213 162.952C62.1359 162.738 62.4265 162.616 62.7299 162.615ZM56.9468 171.741C57.1659 171.901 57.3206 172.134 57.3833 172.398C57.4459 172.662 57.4122 172.94 57.2884 173.181C57.1646 173.423 56.9587 173.612 56.7077 173.715C56.4567 173.819 56.1772 173.829 55.9193 173.744C55.6614 173.66 55.4421 173.486 55.3008 173.255C55.1595 173.023 55.1054 172.748 55.1484 172.48C55.1914 172.213 55.3285 171.969 55.5352 171.793C55.7419 171.617 56.0045 171.521 56.2759 171.521C56.5174 171.52 56.7528 171.597 56.9468 171.741ZM48.4799 166.177C48.7834 166.179 49.0739 166.3 49.2885 166.515C49.5031 166.729 49.6243 167.02 49.6259 167.323C49.6267 167.552 49.5584 167.775 49.4299 167.964C49.3199 168.13 49.1689 168.263 48.9916 168.353C48.8144 168.442 48.617 168.484 48.4188 168.474C48.2206 168.464 48.0284 168.402 47.8609 168.296C47.6935 168.189 47.5567 168.041 47.4637 167.866C47.3708 167.69 47.325 167.494 47.3308 167.296C47.3366 167.097 47.3938 166.904 47.4969 166.734C47.5999 166.564 47.7452 166.425 47.9186 166.328C48.0919 166.231 48.2874 166.182 48.4859 166.183L48.4799 166.177ZM41.3549 173.302C41.5816 173.302 41.8031 173.369 41.9916 173.495C42.18 173.621 42.3269 173.8 42.4136 174.01C42.5004 174.219 42.5231 174.449 42.4788 174.672C42.4346 174.894 42.3255 175.098 42.1652 175.258C42.005 175.419 41.8008 175.528 41.5785 175.572C41.3562 175.616 41.1258 175.594 40.9164 175.507C40.707 175.42 40.528 175.273 40.4021 175.085C40.2762 174.896 40.209 174.675 40.209 174.448C40.2105 174.145 40.3318 173.854 40.5463 173.64C40.7609 173.425 41.0515 173.304 41.3549 173.302Z" fill="#52B141"/>
</g>
<rect width="105" height="105" rx="12" fill="white"/>
<g clip-path="url(#clip4_37_40357)">
<path d="M68.4375 36.6719H37.5625C36.6177 36.6719 35.7115 37.0472 35.0434 37.7153C34.3753 38.3834 34 39.2895 34 40.2344V61.0156C34 61.9605 34.3753 62.8666 35.0434 63.5347C35.7115 64.2028 36.6177 64.5781 37.5625 64.5781H47.0625V66.9531H45.5781C45.2632 66.9531 44.9611 67.0782 44.7384 67.3009C44.5157 67.5236 44.3906 67.8257 44.3906 68.1406C44.3906 68.4556 44.5157 68.7576 44.7384 68.9803C44.9611 69.203 45.2632 69.3281 45.5781 69.3281H60.4219C60.7368 69.3281 61.0389 69.203 61.2616 68.9803C61.4843 68.7576 61.6094 68.4556 61.6094 68.1406C61.6094 67.8257 61.4843 67.5236 61.2616 67.3009C61.0389 67.0782 60.7368 66.9531 60.4219 66.9531H58.9375V64.5781H68.4375C69.3823 64.5781 70.2885 64.2028 70.9566 63.5347C71.6247 62.8666 72 61.9605 72 61.0156V40.2344C72 39.2895 71.6247 38.3834 70.9566 37.7153C70.2885 37.0472 69.3823 36.6719 68.4375 36.6719ZM56.5625 66.9531H49.4375V64.5781H56.5625V66.9531ZM69.625 61.0156C69.625 61.3306 69.4999 61.6326 69.2772 61.8553C69.0545 62.078 68.7524 62.2031 68.4375 62.2031H37.5625C37.2476 62.2031 36.9455 62.078 36.7228 61.8553C36.5001 61.6326 36.375 61.3306 36.375 61.0156V40.2344C36.375 39.9194 36.5001 39.6174 36.7228 39.3947C36.9455 39.172 37.2476 39.0469 37.5625 39.0469H68.4375C68.7524 39.0469 69.0545 39.172 69.2772 39.3947C69.4999 39.6174 69.625 39.9194 69.625 40.2344V61.0156Z" fill="#ACACAC"/>
<path d="M47.0625 41.125C45.1836 41.125 43.3469 41.6822 41.7846 42.726C40.2223 43.7699 39.0047 45.2536 38.2856 46.9895C37.5666 48.7254 37.3785 50.6355 37.745 52.4784C38.1116 54.3212 39.0164 56.0139 40.345 57.3425C41.6736 58.6711 43.3663 59.5759 45.2091 59.9425C47.052 60.309 48.9621 60.1209 50.698 59.4019C52.4339 58.6828 53.9176 57.4652 54.9615 55.9029C56.0053 54.3406 56.5625 52.5039 56.5625 50.625C56.5625 48.1054 55.5616 45.6891 53.78 43.9075C51.9984 42.1259 49.5821 41.125 47.0625 41.125ZM39.9375 50.625C39.9392 48.9425 40.5363 47.3148 41.623 46.0303C42.7098 44.7458 44.216 43.8873 45.875 43.6069V50.1381L41.2616 54.7516C40.3985 53.5489 39.9353 52.1053 39.9375 50.625ZM47.0625 57.75C45.5842 57.751 44.1429 57.2878 42.9419 56.4259L47.8997 51.4622C48.1227 51.2405 48.2487 50.9394 48.25 50.625V43.6069C50.0027 43.9137 51.5771 44.8653 52.6637 46.2744C53.7502 47.6835 54.2701 49.4481 54.1213 51.2213C53.9724 52.9944 53.1654 54.6476 51.8592 55.8558C50.5529 57.064 48.8418 57.7397 47.0625 57.75Z" fill="#ACACAC"/>
<path d="M63.735 49.1169C63.302 49.1074 62.8698 49.0737 62.4406 49.016C62.2253 48.8971 62.0511 48.7159 61.9408 48.4962C61.8306 48.2764 61.7895 48.0284 61.8229 47.7849C61.8563 47.5413 61.9627 47.3135 62.1281 47.1316C62.2934 46.9497 62.51 46.8221 62.7493 46.7656C62.932 46.7228 63.122 46.7219 63.3051 46.763C63.4881 46.8041 63.6595 46.8862 63.8062 47.0031C63.9537 47.1138 64.0734 47.2572 64.1558 47.4221C64.2383 47.587 64.2812 47.7688 64.2812 47.9531C64.2812 48.2681 64.4063 48.5701 64.629 48.7928C64.8517 49.0155 65.1538 49.1406 65.4687 49.1406C65.7837 49.1406 66.0857 49.0155 66.3084 48.7928C66.5311 48.5701 66.6562 48.2681 66.6562 47.9531C66.6587 47.415 66.5393 46.8833 66.3069 46.3979C66.0745 45.9125 65.7352 45.4861 65.3143 45.1506C64.9811 44.8871 64.6029 44.686 64.1981 44.5569C64.1245 44.3126 63.9742 44.0985 63.7694 43.9463C63.5646 43.7941 63.3162 43.7119 63.0611 43.7119C62.8059 43.7119 62.5575 43.7941 62.3527 43.9463C62.1479 44.0985 61.9976 44.3126 61.924 44.5569C61.2391 44.7692 60.6341 45.1832 60.1883 45.7448C59.7424 46.3064 59.4765 46.9896 59.4252 47.7048C59.3738 48.42 59.5396 49.1341 59.9006 49.7537C60.2617 50.3732 60.8014 50.8693 61.449 51.1772C61.6034 51.2544 62.0428 51.4622 63.735 51.5038C63.8149 51.4991 63.8946 51.5153 63.9664 51.5507C64.0382 51.5861 64.0996 51.6395 64.1446 51.7056C64.2653 51.9523 64.3048 52.2308 64.2575 52.5013C64.2134 52.7318 64.1037 52.9447 63.9415 53.1143C63.7792 53.2839 63.5714 53.403 63.3431 53.4572C63.1701 53.497 62.9907 53.4995 62.8167 53.4647C62.6427 53.4299 62.4781 53.3585 62.3337 53.2553C62.1943 53.157 62.077 53.0307 61.989 52.8845C61.9011 52.7384 61.8446 52.5755 61.8231 52.4063C61.7908 52.0913 61.6347 51.8021 61.3892 51.6022C61.1437 51.4024 60.8288 51.3082 60.5139 51.3405C60.1989 51.3728 59.9097 51.5288 59.7098 51.7744C59.5099 52.0199 59.4158 52.3348 59.4481 52.6497C59.5255 53.3352 59.7984 53.984 60.2343 54.5188C60.6701 55.0535 61.2504 55.4517 61.9062 55.6659C61.9781 55.9126 62.1282 56.1293 62.3337 56.2834C62.5393 56.4376 62.7893 56.5209 63.0462 56.5209C63.3029 56.5193 63.5521 56.4345 63.7566 56.2793C63.961 56.1241 64.1097 55.9068 64.1803 55.66C64.7871 55.4565 65.328 55.0933 65.7459 54.6085C66.1638 54.1237 66.4434 53.5352 66.5553 52.905C66.6975 52.1303 66.585 51.3304 66.2346 50.625C65.9952 50.1695 65.6357 49.7882 65.1951 49.5224C64.7545 49.2565 64.2496 49.1163 63.735 49.1169Z" fill="#ACACAC"/>
</g>
<defs>
<clipPath id="clip0_37_40357">
<rect width="38" height="38" fill="white" transform="translate(33 525)"/>
</clipPath>
<clipPath id="clip1_37_40357">
<rect width="38" height="38" fill="white" transform="translate(33 402)"/>
</clipPath>
<clipPath id="clip2_37_40357">
<rect width="38" height="38" fill="white" transform="translate(33 279)"/>
</clipPath>
<clipPath id="clip3_37_40357">
<rect width="38" height="38" fill="white" transform="translate(33 156)"/>
</clipPath>
<clipPath id="clip4_37_40357">
<rect width="38" height="38" fill="white" transform="translate(34 34)"/>
</clipPath>
</defs>
</svg>
