<svg width="25" height="25" viewBox="0 0 25 25" fill="none" xmlns="http://www.w3.org/2000/svg">
<path d="M12.5027 6.09028C8.95561 6.09028 6.0945 8.95203 6.0945 12.4999C6.0945 16.0478 8.95561 18.9096 12.5027 18.9096C16.0498 18.9096 18.9109 16.0478 18.9109 12.4999C18.9109 8.95203 16.0498 6.09028 12.5027 6.09028ZM12.5027 16.667C10.2105 16.667 8.33654 14.7983 8.33654 12.4999C8.33654 10.2016 10.2049 8.33282 12.5027 8.33282C14.8005 8.33282 16.6689 10.2016 16.6689 12.4999C16.6689 14.7983 14.795 16.667 12.5027 16.667ZM20.6678 5.82809C20.6678 6.65928 19.9985 7.32312 19.1731 7.32312C18.3421 7.32312 17.6784 6.65371 17.6784 5.82809C17.6784 5.00248 18.3476 4.33307 19.1731 4.33307C19.9985 4.33307 20.6678 5.00248 20.6678 5.82809ZM24.912 7.34544C24.8172 5.34277 24.3599 3.56882 22.8931 2.10726C21.4318 0.645706 19.6583 0.188273 17.6561 0.0878607C15.5925 -0.0292869 9.40737 -0.0292869 7.3438 0.0878607C5.34715 0.182695 3.5736 0.640128 2.10679 2.10168C0.639985 3.56324 0.188231 5.33719 0.0878411 7.33986C-0.0292804 9.40389 -0.0292804 15.5904 0.0878411 17.6544C0.182654 19.6571 0.639985 21.431 2.10679 22.8926C3.5736 24.3542 5.34158 24.8116 7.3438 24.912C9.40737 25.0291 15.5925 25.0291 17.6561 24.912C19.6583 24.8172 21.4318 24.3597 22.8931 22.8926C24.3543 21.431 24.8116 19.6571 24.912 17.6544C25.0291 15.5904 25.0291 9.40947 24.912 7.34544ZM22.2461 19.8691C21.8111 20.9625 20.9689 21.8048 19.8702 22.2455C18.2249 22.8982 14.3209 22.7476 12.5027 22.7476C10.6845 22.7476 6.77492 22.8926 5.13522 22.2455C4.04209 21.8104 3.19993 20.968 2.75933 19.8691C2.10679 18.2234 2.25738 14.3185 2.25738 12.4999C2.25738 10.6814 2.11237 6.77085 2.75933 5.13079C3.19435 4.03741 4.03651 3.19506 5.13522 2.75436C6.7805 2.10168 10.6845 2.2523 12.5027 2.2523C14.3209 2.2523 18.2305 2.10726 19.8702 2.75436C20.9634 3.18948 21.8055 4.03183 22.2461 5.13079C22.8986 6.77643 22.7481 10.6814 22.7481 12.4999C22.7481 14.3185 22.8986 18.229 22.2461 19.8691Z" fill="white"/>
</svg>
