<svg width="97" height="16" viewBox="0 0 97 16" fill="none" xmlns="http://www.w3.org/2000/svg">
<path d="M16.6537 6.04545C16.5442 5.70797 16.244 5.46834 15.8906 5.4364L11.0702 4.99836L9.17 0.538948C9.03023 0.212041 8.70896 0 8.35342 0C7.99789 0 7.67662 0.212041 7.53685 0.538948L5.63668 4.99836L0.816234 5.4364C0.461179 5.4656 0.157839 5.70393 0.0454434 6.04199C-0.0669526 6.38004 0.0332999 6.75255 0.300187 6.98854L3.94552 10.1838L2.87142 14.9153C2.79219 15.2616 2.92729 15.6219 3.21477 15.8307C3.50224 16.0396 3.8866 16.0568 4.19154 15.8744L8.34792 13.3891L12.5013 15.8744C12.8064 16.0564 13.1906 16.0391 13.4781 15.8304C13.7656 15.6217 13.901 15.2617 13.8224 14.9153L12.7513 10.1838L16.3947 6.98854C16.6619 6.75431 16.7638 6.38332 16.6537 6.04545Z" fill="#FCD000"/>
<path d="M36.6555 6.04545C36.546 5.70797 36.2458 5.46834 35.8924 5.4364L31.072 4.99836L29.1718 0.538948C29.0321 0.212041 28.7108 0 28.3553 0C27.9997 0 27.6785 0.212041 27.5387 0.538948L25.6385 4.99836L20.8181 5.4364C20.463 5.4656 20.1597 5.70393 20.0473 6.04199C19.9349 6.38004 20.0351 6.75255 20.302 6.98854L23.9474 10.1838L22.8733 14.9153C22.794 15.2616 22.9291 15.6219 23.2166 15.8307C23.5041 16.0396 23.8884 16.0568 24.1934 15.8744L28.3498 13.3891L32.5031 15.8744C32.8082 16.0564 33.1924 16.0391 33.4799 15.8304C33.7674 15.6217 33.9028 15.2617 33.8243 14.9153L32.7532 10.1838L36.3965 6.98854C36.6637 6.75431 36.7656 6.38332 36.6555 6.04545Z" fill="#FCD000"/>
<path d="M56.6573 6.04545C56.5479 5.70797 56.2476 5.46834 55.8943 5.4364L51.0738 4.99836L49.1737 0.538948C49.0339 0.212041 48.7126 0 48.3571 0C48.0016 0 47.6803 0.212041 47.5405 0.538948L45.6403 4.99836L40.8199 5.4364C40.4648 5.4656 40.1615 5.70393 40.0491 6.04199C39.9367 6.38004 40.037 6.75255 40.3038 6.98854L43.9492 10.1838L42.8751 14.9153C42.7959 15.2616 42.931 15.6219 43.2184 15.8307C43.5059 16.0396 43.8903 16.0568 44.1952 15.8744L48.3516 13.3891L52.505 15.8744C52.81 16.0564 53.1942 16.0391 53.4817 15.8304C53.7692 15.6217 53.9047 15.2617 53.8261 14.9153L52.755 10.1838L56.3983 6.98854C56.6656 6.75431 56.7675 6.38332 56.6573 6.04545Z" fill="#FCD000"/>
<path d="M76.6592 6.04545C76.5497 5.70797 76.2495 5.46834 75.8961 5.4364L71.0757 4.99836L69.1755 0.538948C69.0357 0.212041 68.7145 0 68.3589 0C68.0034 0 67.6821 0.212041 67.5423 0.538948L65.6422 4.99836L60.8217 5.4364C60.4667 5.4656 60.1633 5.70393 60.0509 6.04199C59.9385 6.38004 60.0388 6.75255 60.3057 6.98854L63.951 10.1838L62.8769 14.9153C62.7977 15.2616 62.9328 15.6219 63.2203 15.8307C63.5077 16.0396 63.8921 16.0568 64.197 15.8744L68.3534 13.3891L72.5068 15.8744C72.8119 16.0564 73.1961 16.0391 73.4836 15.8304C73.7711 15.6217 73.9065 15.2617 73.8279 14.9153L72.7568 10.1838L76.4002 6.98854C76.6674 6.75431 76.7693 6.38332 76.6592 6.04545Z" fill="#FCD000"/>
<path d="M96.661 6.04545C96.5515 5.70797 96.2513 5.46834 95.8979 5.4364L91.0775 4.99836L89.1773 0.538948C89.0376 0.212041 88.7163 0 88.3607 0C88.0052 0 87.6839 0.212041 87.5442 0.538948L85.644 4.99836L80.8236 5.4364C80.4685 5.4656 80.1652 5.70393 80.0528 6.04199C79.9404 6.38004 80.0406 6.75255 80.3075 6.98854L83.9528 10.1838L82.8787 14.9153C82.7995 15.2616 82.9346 15.6219 83.2221 15.8307C83.5096 16.0396 83.8939 16.0568 84.1989 15.8744L88.3552 13.3891L92.5086 15.8744C92.8137 16.0564 93.1979 16.0391 93.4854 15.8304C93.7729 15.6217 93.9083 15.2617 93.8297 14.9153L92.7587 10.1838L96.402 6.98854C96.6692 6.75431 96.7711 6.38332 96.661 6.04545Z" fill="#FCD000"/>
</svg>
