<svg width="7" height="13" viewBox="0 0 7 13" fill="none" xmlns="http://www.w3.org/2000/svg">
<path d="M0.586106 12.7886C0.431629 12.7865 0.283516 12.7267 0.170842 12.621C0.0613977 12.5105 0 12.3613 0 12.2058C0 12.0502 0.0613977 11.901 0.170842 11.7905L5.59114 6.3775L0.170842 0.964489C0.0779025 0.851248 0.0304065 0.707486 0.0375928 0.561166C0.0447792 0.414845 0.106134 0.276429 0.209723 0.17284C0.313311 0.0692518 0.451728 0.00789727 0.598048 0.000710961C0.744368 -0.00647535 0.88813 0.0410204 1.00137 0.13396L6.82965 5.96223C6.93909 6.07273 7.00049 6.22197 7.00049 6.3775C7.00049 6.53302 6.93909 6.68226 6.82965 6.79276L1.00137 12.621C0.888697 12.7267 0.740584 12.7865 0.586106 12.7886Z" fill="white"/>
</svg>
