<svg width="18" height="17" viewBox="0 0 18 17" fill="none" xmlns="http://www.w3.org/2000/svg">
<path d="M17.3718 15.6702H16.5346V6.235C16.5346 5.71594 16.3002 5.23037 15.8899 4.91224L14.8602 4.10853L14.8435 2.0574C14.8435 1.59695 14.4667 1.22858 14.0063 1.22858H11.1514L10.0296 0.3579C9.42681 -0.1193 8.57287 -0.1193 7.97009 0.3579L2.10973 4.91224C1.6995 5.23037 1.46509 5.71594 1.46509 6.22663L1.42323 15.6702H0.627896C0.284646 15.6702 0 15.9548 0 16.2981C0 16.6413 0.284646 16.926 0.627896 16.926H17.3718C17.715 16.926 17.9997 16.6413 17.9997 16.2981C17.9997 15.9548 17.715 15.6702 17.3718 15.6702ZM4.39527 8.55403V7.29824C4.39527 6.83778 4.77201 6.46105 5.23246 6.46105H6.90685C7.36731 6.46105 7.74405 6.83778 7.74405 7.29824V8.55403C7.74405 9.01449 7.36731 9.39122 6.90685 9.39122H5.23246C4.77201 9.39122 4.39527 9.01449 4.39527 8.55403ZM11.0928 15.6702H6.90685V13.3679C6.90685 12.673 7.46777 12.1121 8.16264 12.1121H9.83703C10.5319 12.1121 11.0928 12.673 11.0928 13.3679V15.6702ZM13.6044 8.55403C13.6044 9.01449 13.2277 9.39122 12.7672 9.39122H11.0928C10.6324 9.39122 10.2556 9.01449 10.2556 8.55403V7.29824C10.2556 6.83778 10.6324 6.46105 11.0928 6.46105H12.7672C13.2277 6.46105 13.6044 6.83778 13.6044 7.29824V8.55403Z" fill="#CAC3AA"/>
</svg>
