<svg width="53" height="48" viewBox="0 0 53 48" fill="none" xmlns="http://www.w3.org/2000/svg">
<ellipse cx="21.6367" cy="23.9814" rx="21.6367" ry="23.9814" fill="#7AA3B8"/>
<rect x="32.9683" y="25.1238" width="20.0317" height="20.0317" rx="10" fill="#26DC43"/>
<path d="M41.8572 38.1443C41.7577 38.1429 41.6622 38.1044 41.5896 38.0363L38.9604 35.4071C38.9005 35.3342 38.8699 35.2415 38.8746 35.1472C38.8792 35.0529 38.9187 34.9637 38.9855 34.897C39.0522 34.8302 39.1414 34.7907 39.2357 34.786C39.33 34.7814 39.4227 34.812 39.4957 34.8719L41.8572 37.2382L46.8479 32.2428C46.9209 32.1829 47.0135 32.1523 47.1078 32.1569C47.2021 32.1615 47.2913 32.2011 47.3581 32.2678C47.4249 32.3346 47.4644 32.4238 47.469 32.5181C47.4737 32.6124 47.443 32.705 47.3832 32.778L42.1248 38.0363C42.0522 38.1044 41.9568 38.1429 41.8572 38.1443Z" fill="#E2E7E9"/>
</svg>
