<svg width="360" height="366" viewBox="0 0 360 366" fill="none" xmlns="http://www.w3.org/2000/svg">
<mask id="path-1-inside-1_37_40571" fill="white">
<path fill-rule="evenodd" clip-rule="evenodd" d="M0 16C0 7.16344 7.16344 0 16 0H344C352.837 0 360 7.16344 360 16V235.031C359.669 235.01 359.336 235 359 235C350.163 235 343 242.163 343 251C343 259.837 350.163 267 359 267C359.336 267 359.669 266.99 360 266.969V350C360 358.837 352.837 366 344 366H16C7.16344 366 0 358.837 0 350V267C8.83656 267 16 259.837 16 251C16 242.163 8.83656 235 0 235V16Z"/>
</mask>
<path fill-rule="evenodd" clip-rule="evenodd" d="M0 16C0 7.16344 7.16344 0 16 0H344C352.837 0 360 7.16344 360 16V235.031C359.669 235.01 359.336 235 359 235C350.163 235 343 242.163 343 251C343 259.837 350.163 267 359 267C359.336 267 359.669 266.99 360 266.969V350C360 358.837 352.837 366 344 366H16C7.16344 366 0 358.837 0 350V267C8.83656 267 16 259.837 16 251C16 242.163 8.83656 235 0 235V16Z" fill="white"/>
<path d="M360 235.031L359.938 236.029L361 236.094V235.031H360ZM360 266.969H361V265.906L359.938 265.971L360 266.969ZM0 267V266H-1V267H0ZM0 235H-1V236H0V235ZM16 -1C6.61116 -1 -1 6.61115 -1 16H1C1 7.71572 7.71573 1 16 1V-1ZM344 -1H16V1H344V-1ZM361 16C361 6.61116 353.389 -1 344 -1V1C352.284 1 359 7.71573 359 16H361ZM361 235.031V16H359V235.031H361ZM359 236C359.315 236 359.628 236.01 359.938 236.029L360.062 234.033C359.71 234.011 359.356 234 359 234V236ZM344 251C344 242.716 350.716 236 359 236V234C349.611 234 342 241.611 342 251H344ZM359 266C350.716 266 344 259.284 344 251H342C342 260.389 349.611 268 359 268V266ZM359.938 265.971C359.628 265.99 359.315 266 359 266V268C359.356 268 359.71 267.989 360.062 267.967L359.938 265.971ZM361 350V266.969H359V350H361ZM344 367C353.389 367 361 359.389 361 350H359C359 358.284 352.284 365 344 365V367ZM16 367H344V365H16V367ZM-1 350C-1 359.389 6.61116 367 16 367V365C7.71573 365 1 358.284 1 350H-1ZM-1 267V350H1V267H-1ZM15 251C15 259.284 8.28427 266 0 266V268C9.38884 268 17 260.389 17 251H15ZM0 236C8.28427 236 15 242.716 15 251H17C17 241.611 9.38884 234 0 234V236ZM-1 16V235H1V16H-1Z" fill="black" fill-opacity="0.1" mask="url(#path-1-inside-1_37_40571)"/>
</svg>
