<svg width="30" height="30" viewBox="0 0 30 30" fill="none" xmlns="http://www.w3.org/2000/svg">
<g clip-path="url(#clip0_52_47168)">
<path d="M14.25 8.24942C14.625 12.0932 20.625 15.4682 20.9062 15.8432C21.2812 15.6557 24.8438 14.6244 27.375 12.5619C26.5313 6.93692 19.125 5.15567 14.25 8.24942Z" fill="#560B0B"/>
<path d="M26.25 4.40542C24.8438 4.12417 23.4375 4.59292 22.2188 5.43667C21.375 4.40542 20.1563 3.65542 18.8438 3.56167C18.8438 3.56167 15.0938 2.81167 14.25 7.12417C14.1563 7.49917 14.1563 7.87417 14.25 8.15542C19.0312 5.15542 26.4375 7.03042 27.375 12.4679C28.5938 11.5304 29.625 10.2179 29.7188 8.71792C30.1875 4.96792 26.25 4.40542 26.25 4.40542Z" fill="#6B0C0C"/>
<path d="M28.4995 8.5306C28.7808 7.31185 28.1245 6.0931 27.0933 5.5306C26.2495 5.06185 25.4995 4.9681 24.562 5.24935C23.6245 5.5306 22.7808 5.99935 21.937 6.4681C21.3745 5.81185 20.812 5.3431 19.9683 4.87435C19.0308 4.31185 17.9058 4.2181 16.9683 4.68685C15.937 5.24935 15.187 6.18685 15.0933 7.4056C14.3433 10.9681 20.5308 14.1556 20.9058 14.4368C21.4683 14.1556 28.1245 12.1868 28.4995 8.5306Z" fill="#DD4545"/>
<path d="M25.9686 8.43794C26.1561 7.50044 25.6873 6.65669 24.9373 6.09419C24.3748 5.81294 23.7186 5.71919 23.0623 5.90669C22.3123 6.09419 21.7498 6.37544 21.1873 6.84419C20.8123 6.37544 20.2498 5.90669 19.7811 5.71919C19.0311 5.34419 18.2811 5.25044 17.5311 5.62544C16.6873 6.00044 16.3123 6.65669 16.1248 7.59419C15.5623 10.2192 20.1561 12.5629 20.4373 12.8442C20.8123 12.5629 25.6873 10.9692 25.9686 8.43794Z" fill="#F96464"/>
<path d="M24.6567 11.3431C24.0004 11.5306 23.4379 11.4368 22.8754 11.0618C22.4067 10.6868 22.0317 10.1243 22.0317 9.56182C21.9379 7.96807 23.8129 4.21807 26.7192 6.09307C29.6254 7.96807 26.4379 10.8743 24.6567 11.3431Z" fill="#FFB3B3"/>
<path d="M25.875 7.8747C25.6875 7.8747 25.5938 7.8747 25.4063 7.78095C25.3125 7.6872 25.2188 7.4997 25.2188 7.40595C25.2188 6.9372 25.6875 6.09345 26.3438 6.46845C27 6.84345 26.3438 7.78095 25.875 7.8747Z" fill="white"/>
<path d="M19.2188 6.93784C19.1251 7.21909 18.9376 7.40659 18.7501 7.59409C18.4688 7.78159 18.1876 7.78159 17.9063 7.78159C17.1563 7.68784 16.0313 6.75034 17.4376 5.81284C18.9376 4.87534 19.4063 6.37534 19.2188 6.93784Z" fill="#FFB3B3"/>
<path d="M11.9062 21.75L17.8125 25.0313L26.4375 24.4688L27 22.875C20.25 22.5938 13.6875 20.5313 8.53125 16.6875L11.9062 21.75Z" fill="#10325C"/>
<path d="M25.875 19.0312C24.1875 18 22.3125 17.3438 20.3438 17.0625C19.4062 16.9688 18.4688 17.25 17.8125 17.8125L16.0312 19.5C11.4375 17.8125 9.5625 12.4688 9.5625 12.4688L11.7188 11.1562C12.6562 9.09375 12.1875 5.625 11.9062 3.84375C11.7188 3.09375 11.1562 2.4375 10.4062 2.15625C7.3125 1.03125 3 2.15625 3 2.15625L2.4375 3.09375L7.03125 14.4375L8.4375 16.5938C13.5938 20.5312 20.0625 22.5 26.9062 22.7812L27 22.5C27.5625 21.1875 27 19.7812 25.875 19.0312Z" fill="#084D70"/>
<path d="M10.6875 18.0944C9.1875 16.5944 7.78125 14.6257 7.3125 12.2819L9.84375 10.3132L10.5 2.25066C10.5 2.25066 4.5 -1.49934 1.5 3.56316C1.125 4.31316 0.75 5.15691 0.46875 6.09441C2.625 11.3444 6.1875 15.3757 10.6875 18.0944Z" fill="#084D70"/>
<path d="M16.3125 21.9375C16.3125 21.9375 13.3125 20.625 10.6875 18.0937C6.18751 15.375 2.62502 11.3438 0.468765 6.09375C-0.468735 9.75 0.375016 15.0938 6.56252 21.1875C14.25 28.9688 20.9063 29.0625 23.7188 28.0312C26.5313 27 26.8125 22.7812 26.8125 22.7812L26.7188 22.6875C23.4375 22.5 20.1563 21.9375 17.1563 20.9062L16.3125 21.9375Z" fill="#10325C"/>
<path d="M17.0625 21.0937C20.0625 22.125 23.3437 22.6875 26.625 22.875L18.6562 19.2188L17.0625 21.0937Z" fill="#10325C"/>
<path d="M9.43617 10.8423C10.4122 10.7186 10.9659 8.74447 10.6731 6.43293C10.3802 4.12138 9.35156 2.34775 8.37558 2.47141C7.39959 2.59507 6.84582 4.56919 7.1387 6.88073C7.43157 9.19228 8.46018 10.9659 9.43617 10.8423Z" fill="#10325C"/>
<path d="M26.8403 23.1175C27.2058 22.2042 25.5147 20.6685 23.0632 19.6876C20.6116 18.7066 18.328 18.6517 17.9625 19.565C17.597 20.4784 19.2881 22.014 21.7397 22.995C24.1912 23.976 26.4749 24.0308 26.8403 23.1175Z" fill="#10325C"/>
<path d="M8.25042 11.7184L10.5942 9.93714L8.90667 2.62464C8.90667 2.62464 4.78167 0.562141 2.90667 3.65589C1.03167 6.74964 0.375417 12.8434 7.50042 20.0621C14.6254 27.2809 21.0004 27.4684 23.5317 26.5309C26.0629 25.5934 26.3442 21.6559 26.3442 21.6559L18.8442 18.1871L16.6879 20.8121C16.6879 20.8121 9.46917 17.6246 8.25042 11.7184Z" fill="#0F7BDB"/>
<path d="M11.4373 6.28127C11.7186 8.43752 11.1561 10.3125 10.3123 10.4063C9.46859 10.5 8.43734 8.81252 8.15609 6.75002C7.87484 4.68752 8.06234 2.71877 8.90609 2.62502C9.74984 2.53127 11.1561 4.12502 11.4373 6.28127Z" fill="#4A9BE5"/>
<path d="M26.5216 21.845C26.8486 21.0278 25.2822 19.6325 23.023 18.7284C20.7637 17.8244 18.6671 17.754 18.3401 18.5711C18.0131 19.3883 19.5795 20.7837 21.8388 21.6877C24.0981 22.5918 26.1947 22.6622 26.5216 21.845Z" fill="#4A9BE5"/>
<path d="M7.03133 2.8125L7.87508 10.0312C7.87508 10.0312 3.28133 13.125 5.15633 15.5625C5.15633 15.5625 -1.31242 3.09375 7.03133 2.8125Z" fill="#1286DD"/>
<path d="M24.375 23.8125L17.9063 20.5312C17.9063 20.5312 13.4062 23.7188 11.7188 21.1875C11.8125 21.0938 21.1875 31.5 24.375 23.8125Z" fill="#1286DD"/>
<path d="M6.9375 12.9383C7.6875 16.8758 10.5 20.0633 14.3438 21.282C14.3438 21.282 15.4688 21.5633 15.2812 21.0008C15.0938 20.4383 9.46875 18.0008 7.96875 12.9383C7.96875 12.8445 6.9375 12.0008 6.9375 12.9383Z" fill="#1279C6"/>
<path d="M7.78125 4.03083C7.59375 4.12458 7.40625 4.03083 7.21875 3.93708C7.125 3.84333 7.03125 3.65583 6.9375 3.46833C6.9375 2.90583 7.5 1.68708 8.4375 2.34333C9.375 2.99958 8.34375 3.84333 7.78125 4.03083Z" fill="#28A1EA"/>
<path d="M17.9062 21.2822C17.7187 21.376 17.5312 21.2822 17.3437 21.1885C17.1562 21.0947 17.0625 20.9072 17.0625 20.7197C17.0625 20.1572 17.625 19.0322 18.5625 19.5947C19.5 20.1572 18.4687 21.0947 17.9062 21.2822Z" fill="#28A1EA"/>
</g>
<defs>
<clipPath id="clip0_52_47168">
<rect width="30" height="30" fill="white"/>
</clipPath>
</defs>
</svg>
