<svg width="13" height="14" viewBox="0 0 13 14" fill="none" xmlns="http://www.w3.org/2000/svg">
<path fill-rule="evenodd" clip-rule="evenodd" d="M9.59727 8.92573L12.797 12.2585H12.802C12.9776 12.441 13.0425 12.7034 12.9722 12.9467C12.9019 13.19 12.7071 13.3774 12.4612 13.4382C12.2153 13.499 11.9557 13.424 11.7801 13.2414L8.55135 9.88366C7.64022 10.5267 6.55174 10.8705 5.43658 10.8676C2.88872 10.8687 0.682233 9.09937 0.1298 6.61212C-0.422634 4.12487 0.827367 1.5878 3.13615 0.510253C5.44493 -0.56729 8.19238 0.104116 9.74398 2.12504C11.2956 4.14596 11.2346 6.9736 9.59727 8.92573ZM9.44728 5.43166C9.4482 3.21326 7.65097 1.41395 5.43258 1.41229C3.21325 1.4134 1.41409 3.21166 1.41188 5.43099C1.41243 7.64938 3.21085 9.44751 5.42925 9.44769C7.64764 9.44787 9.44636 7.65005 9.44728 5.43166Z" fill="#B7B8BA"/>
</svg>
