<svg width="8" height="10" viewBox="0 0 8 10" fill="none" xmlns="http://www.w3.org/2000/svg">
<path d="M0.176051 2.53704C-0.0666156 2.79371 -0.0506156 3.27504 0.176051 3.53704L0.597385 4.02438L2.42405 6.13904L3.56872 7.46371C3.80272 7.73504 4.19805 7.73504 4.43205 7.46371L4.85405 6.97571L6.68072 4.86104L7.82539 3.53638C8.06738 3.25838 8.04939 2.81971 7.82539 2.53704C7.60338 2.25704 7.18739 2.27571 6.96139 2.53704L6.54005 3.02504L4.71339 5.13971C4.33205 5.57971 3.94939 6.02371 3.56872 6.46438H4.43205L4.01072 5.97638L2.18405 3.86171L1.03938 2.53704C0.799385 2.25904 0.420051 2.27771 0.176051 2.53704Z" fill="#2E3133"/>
</svg>
