<svg width="64" height="64" viewBox="0 0 64 64" fill="none" xmlns="http://www.w3.org/2000/svg">
<path d="M37.7012 32.2773H20.8201C20.1541 32.2773 19.6143 32.7994 19.6143 33.4434V42.7718C19.6143 43.4157 20.1541 43.9378 20.8201 43.9378H37.7012C38.3672 43.9378 38.907 43.4157 38.907 42.7718V33.4434C38.907 32.7994 38.3672 32.2773 37.7012 32.2773Z" stroke="#213A52" stroke-width="1.94783" stroke-miterlimit="10"/>
<path d="M23.2314 35.7773H35.2894" stroke="#213A52" stroke-width="1.94783" stroke-miterlimit="10" stroke-linecap="round"/>
<path d="M23.2392 29.9475C25.903 29.9475 28.0624 27.8593 28.0624 25.2833C28.0624 22.7074 25.903 20.6191 23.2392 20.6191C20.5754 20.6191 18.416 22.7074 18.416 25.2833C18.416 27.8593 20.5754 29.9475 23.2392 29.9475Z" stroke="#213A52" stroke-width="1.94783" stroke-miterlimit="10" stroke-linecap="round"/>
<path d="M33.4842 29.9455C35.1491 29.9455 36.4987 28.6403 36.4987 27.0303C36.4987 25.4204 35.1491 24.1152 33.4842 24.1152C31.8193 24.1152 30.4697 25.4204 30.4697 27.0303C30.4697 28.6403 31.8193 29.9455 33.4842 29.9455Z" stroke="#213A52" stroke-width="1.94783" stroke-miterlimit="10" stroke-linecap="round"/>
<path d="M38.9121 39.857L45.0316 42.3233C45.6465 42.5681 46.1469 42.2475 46.1469 41.6061V34.6099C46.1469 33.9685 45.6465 33.6479 45.0316 33.8927L38.9121 36.3589" stroke="#213A52" stroke-width="1.94783" stroke-linecap="round" stroke-linejoin="round"/>
</svg>
