<svg width="278" height="136" viewBox="0 0 278 136" fill="none" xmlns="http://www.w3.org/2000/svg">
<circle cx="21.0082" cy="21.0082" r="20.5082" stroke="#EEEFF8"/>
<path d="M275.641 130.69C276.942 130.69 278 131.779 278 133.117C278 134.456 276.942 135.547 275.641 135.547C274.339 135.547 273.281 134.456 273.281 133.117C273.281 131.779 274.339 130.69 275.641 130.69Z" fill="#AEAEAE"/>
<path d="M266.203 130.69C267.505 130.69 268.563 131.779 268.563 133.117C268.563 134.456 267.505 135.547 266.203 135.547C264.902 135.547 263.844 134.456 263.844 133.117C263.844 131.779 264.902 130.69 266.203 130.69Z" fill="#AEAEAE"/>
<path d="M256.767 130.69C258.069 130.69 259.126 131.779 259.126 133.117C259.126 134.456 258.069 135.547 256.767 135.547C255.465 135.547 254.408 134.456 254.408 133.117C254.408 131.779 255.465 130.69 256.767 130.69Z" fill="#AEAEAE"/>
</svg>
