<svg width="30" height="30" viewBox="0 0 30 30" fill="none" xmlns="http://www.w3.org/2000/svg">
<path d="M25.2188 25.8746C25.3125 25.7808 25.3125 25.5933 25.3125 25.4058L25.5 22.7808C26.0625 22.2183 25.4062 20.3433 24.9375 19.4996L22.7812 14.6246L22.5 13.9683L17.5312 3.74955C16.7812 2.3433 14.7188 2.1558 13.6875 3.37455L7.96875 9.93705L3.46875 14.9996H3.5625L1.125 19.3121L0.46875 20.9996C0.46875 21.9371 2.0625 23.9996 3.1875 24.1871L22.5 27.2808C23.625 27.4683 25.5938 26.5308 26.0625 25.7808L25.125 26.1558L25.2188 25.8746Z" fill="#704413"/>
<path d="M13.781 1.78061L0.749774 18.4681C-0.375226 19.8744 0.374774 22.0306 2.06227 22.4056L24.1873 26.2494C26.2498 26.6244 27.7498 24.5619 26.906 22.6869L17.8123 2.24936C17.0623 0.561865 14.906 0.374364 13.781 1.78061Z" fill="#AA671D"/>
<path d="M13.6881 4.12541L2.71931 18.0942C1.78181 19.2192 2.43806 21.0942 3.84431 21.3754L22.3131 24.6567C24.0006 24.9379 25.3131 23.2504 24.6568 21.7504L17.0631 4.50042C16.4068 3.18792 14.6256 3.00041 13.6881 4.12541Z" fill="url(#paint0_linear_52_64614)"/>
<path d="M13.7817 3.28201L2.06299 18.1883C1.03174 19.407 1.68799 21.3758 3.28174 21.657L23.063 25.1258C24.8442 25.407 26.3442 23.6258 25.5005 21.9383L17.438 3.65701C16.688 2.15701 14.813 1.96951 13.7817 3.28201Z" fill="white"/>
<path d="M13.9679 4.875L4.03044 17.625C3.18669 18.6562 3.74919 20.3437 5.06169 20.625L21.9367 23.625C23.5304 23.9062 24.6554 22.4062 23.9992 20.9062L17.0617 5.15625C16.4992 3.9375 14.9054 3.84375 13.9679 4.875Z" fill="url(#paint1_linear_52_64614)"/>
<path d="M15.1866 19.9689C14.9991 20.9064 14.1554 21.6564 13.2179 21.4689C12.2804 21.2814 11.6241 20.4376 11.7179 19.4064C11.8116 18.4689 12.7491 17.8126 13.6866 17.9064C14.6241 18.0001 15.2804 18.9376 15.1866 19.9689ZM16.6866 8.71887C16.8741 7.68762 16.1241 6.84387 15.1866 6.65637C14.2491 6.56262 13.3116 7.31262 13.2179 8.25012C13.1241 8.43762 13.1241 8.43762 13.1241 8.53137L12.5616 14.9064C12.4679 15.6564 12.9366 16.4064 13.6866 16.5001C14.4366 16.5939 15.0929 16.1251 15.2804 15.2814L16.5929 8.90637C16.6866 8.90637 16.6866 8.81262 16.6866 8.71887Z" fill="#493E3A"/>
<path d="M16.6875 26.4375L16.3125 27L18.0937 28.2188L28.5 17.9063L26.8125 15.75L16.6875 26.4375Z" fill="#9A4C18"/>
<path d="M28.7819 20.8128C28.4069 24.9378 24.6569 28.4065 20.3444 28.4065C16.1256 28.4065 13.5006 24.9378 14.2506 20.9065C15.0006 17.1565 18.5631 14.2503 22.4069 14.1565C26.1569 14.0628 29.0631 16.969 28.7819 20.8128Z" fill="#9A4C18"/>
<path d="M29.8139 22.1253C29.4389 26.0628 25.7827 29.3441 21.5639 29.3441C17.4389 29.3441 14.8139 25.9691 15.6577 22.2191C16.4077 18.6566 19.8764 15.8441 23.5327 15.7503C27.2827 15.6566 30.0952 18.4691 29.8139 22.1253Z" fill="#9A4C18"/>
<path d="M17.8125 26.7188L19.5937 27.6562L28.125 18.75L26.7188 16.875L17.8125 26.7188Z" fill="#F49937"/>
<path d="M28.9693 22.125C28.6881 25.5 25.5943 28.3125 22.1256 28.2188C18.7506 28.2188 16.5006 25.4062 17.1568 22.125C17.7193 19.0312 20.7193 16.5938 23.8131 16.5C26.9068 16.5 29.2506 18.9375 28.9693 22.125Z" fill="#F49937"/>
<path d="M27.8444 20.813C27.5631 24.3755 24.1881 27.3755 20.5319 27.3755C16.8756 27.3755 14.5319 24.3755 15.1881 20.813C15.8444 17.5317 19.0319 14.9067 22.3131 14.9067C25.5944 14.813 28.1256 17.438 27.8444 20.813Z" fill="#FFEDC0"/>
<path d="M27.3756 21C27.0943 24.375 24.0006 27.1875 20.5318 27.1875C17.1568 27.1875 14.9068 24.375 15.5631 21.0938C16.1256 18 19.1256 15.5625 22.2193 15.4688C25.3131 15.4688 27.6568 17.9062 27.3756 21Z" fill="#FFD766"/>
<path d="M26.0618 21C25.7805 23.5312 23.4368 25.6875 20.718 25.6875C18.093 25.6875 16.4055 23.5312 16.7805 21C17.2493 18.5625 19.4993 16.5938 21.9368 16.5938C24.468 16.6875 26.343 18.5625 26.0618 21Z" fill="#FFEDC0"/>
<path d="M26.0624 20.4382C25.7812 22.9694 23.4374 25.1257 20.8124 25.1257C18.1874 25.1257 16.4999 22.9694 16.9687 20.5319C17.4374 18.0944 19.6874 16.2194 22.1249 16.2194C24.5624 16.0319 26.3437 18.0007 26.0624 20.4382Z" fill="#F49937"/>
<path d="M25.3123 21C25.0311 23.1562 23.0623 24.9375 20.8123 24.9375C18.5623 24.9375 17.1561 23.1562 17.5311 21C17.9061 18.9375 19.8748 17.25 21.9373 17.25C23.9998 17.3438 25.4998 18.9375 25.3123 21Z" fill="#FFD766"/>
<path d="M22.5 16.9688L23.1563 19.3125L25.6875 19.9687L23.3438 21.5625L23.1563 24.2812L21 22.6875L18.2813 23.7187L19.4063 21.0937L18.0938 19.125L20.8125 19.0312L22.5 16.9688Z" fill="#F49937"/>
<defs>
<linearGradient id="paint0_linear_52_64614" x1="2.29621" y1="14.0154" x2="24.8427" y2="14.0154" gradientUnits="userSpaceOnUse">
<stop stop-color="#FFC982"/>
<stop offset="1" stop-color="#FFEA61"/>
</linearGradient>
<linearGradient id="paint1_linear_52_64614" x1="3.63575" y1="13.8906" x2="24.231" y2="13.8906" gradientUnits="userSpaceOnUse">
<stop stop-color="#FFC982"/>
<stop offset="1" stop-color="#FFEA61"/>
</linearGradient>
</defs>
</svg>
