<svg width="30" height="30" viewBox="0 0 30 30" fill="none" xmlns="http://www.w3.org/2000/svg">
<g clip-path="url(#clip0_52_71505)">
<path d="M1.21923 18.375C1.21923 18.375 1.40673 10.875 6.09423 6.84375C10.7817 2.8125 15.0005 2.8125 19.8755 6.84375C24.7505 10.875 26.438 15.1875 24.6567 19.125C22.8755 23.1562 18.938 30.9375 6.28173 27.0937C6.28173 27.0937 0.656728 23.1562 1.21923 18.375Z" fill="#50544E"/>
<path d="M2.25062 15C2.25062 15 -4.31188 24.1875 6.09437 25.6875C16.5006 27.1875 2.25062 15 2.25062 15Z" fill="#50544E"/>
<path d="M3.00062 14.625C3.00062 14.625 -3.56188 23.8125 6.84437 25.3125C17.2506 26.8125 3.00062 14.625 3.00062 14.625Z" fill="#CECECE"/>
<path d="M22.688 17.1562C22.688 17.1562 22.5942 19.5938 23.9067 20.9062C25.2192 22.125 26.5317 23.8125 26.5317 23.8125L23.1567 24.5625L24.7505 26.1562C24.7505 26.1562 20.5317 27.1875 17.6255 27.4688C14.7192 27.75 13.5942 26.8125 13.5942 26.8125C13.5942 26.8125 24.8442 25.5938 22.688 17.1562ZM9.00049 5.625C9.00049 5.625 6.56298 4.78125 5.25048 3.375C3.93798 1.96875 1.21923 2.90625 0.375485 6.1875C-0.468265 9.46875 1.96923 18.4688 6.00048 13.7812C10.0317 9.09375 9.00049 5.625 9.00049 5.625Z" fill="#50544E"/>
<path d="M13.5938 5.90624C13.5938 5.90624 16.6876 5.81249 19.5001 4.12499C22.3126 2.43749 28.0313 3.56249 29.7188 7.78124C31.4063 12 26.4376 23.4375 17.9063 17.4375C9.3751 11.4375 13.5938 5.90624 13.5938 5.90624Z" fill="#50544E"/>
<path d="M14.8116 6.84464C14.8116 6.84464 17.4366 6.75089 19.8741 5.34464C22.3116 3.93839 27.1866 4.87589 28.5928 8.34464C29.9991 11.7196 25.7803 21.2821 18.5616 16.3134C11.3428 11.3446 14.8116 6.84464 14.8116 6.84464Z" fill="#E8E8E8"/>
<path d="M16.3126 7.68661C16.3126 7.68661 18.4689 7.59286 20.3439 6.37411C22.2189 5.15536 26.1564 5.99911 27.3751 8.90536C28.5001 11.9054 25.1251 20.0616 19.2189 15.7491C13.3126 11.4366 16.3126 7.68661 16.3126 7.68661Z" fill="#CECECE"/>
<path d="M14.2501 7.96786C14.2501 7.96786 16.4064 7.87411 18.2814 6.65536C20.1564 5.43661 24.0939 6.28036 25.3126 9.18661C26.4376 12.1866 23.0626 20.3429 17.1564 16.0304C11.2501 11.7179 14.2501 7.96786 14.2501 7.96786Z" fill="#D1A599"/>
<path d="M8.62574 6.56185C8.62574 6.56185 6.84449 5.99934 5.71949 4.87434C4.59449 3.74934 2.43824 4.49935 1.78199 7.31185C1.12574 10.1243 3.09449 18.0931 6.37574 13.8743C9.65699 9.65559 8.62574 6.56185 8.62574 6.56185Z" fill="#E8E8E8"/>
<path d="M8.90699 7.4056C8.90699 7.4056 7.68824 7.31185 6.56324 6.18685C5.43824 5.06185 3.28199 5.81184 2.62574 8.62434C1.96949 11.4368 3.93824 19.4056 7.21949 15.1868C10.5007 10.9681 8.90699 7.4056 8.90699 7.4056Z" fill="#D1A599"/>
<path d="M5.06238 12.9375C5.06238 12.9375 3.28113 15.9375 2.81238 17.5313C2.34363 19.125 3.65613 24.0938 7.12488 24.8438C10.5936 25.6875 5.06238 12.9375 5.06238 12.9375Z" fill="#E8E8E8"/>
<path d="M2.43803 18.6571C2.43803 18.6571 1.78178 11.4383 5.81303 7.87582C9.84428 4.31332 13.4068 3.00082 17.6255 6.56332C21.8443 10.1258 24.563 15.4696 23.063 19.0321C21.563 22.5946 18.188 29.7196 7.21928 26.3446C7.21928 26.3446 1.96928 22.8758 2.43803 18.6571Z" fill="#CECECE"/>
<path d="M2.53154 18.094C2.53154 18.094 3.09404 11.8127 6.75029 8.71896C10.4065 5.62521 12.5628 4.59396 16.219 7.78146C19.8753 10.969 22.219 15.3752 20.9065 18.5627C19.594 21.7502 16.594 28.0315 6.75029 24.9377C6.75029 24.9377 2.15654 21.844 2.53154 18.094Z" fill="#E8E8E8"/>
<path d="M15.9366 12C15.9366 12 15.2803 11.1562 13.8741 11.7187C12.4678 12.2812 9.6553 17.625 12.1866 18.2812C14.7178 18.9375 17.4366 14.25 15.9366 12Z" fill="white"/>
<path d="M15.1883 13.0321C15.1883 13.0321 14.8133 12.3758 13.7821 12.8446C12.7508 13.3133 10.9696 17.0633 12.6571 17.5321C14.3446 18.0008 16.2196 14.6258 15.1883 13.0321Z" fill="#F6F6F6"/>
<path d="M4.68681 20.5312C4.68681 20.5312 3.93681 25.4063 8.90556 25.9688C11.2493 26.25 14.4368 19.7812 14.4368 19.7812C14.4368 19.7812 7.40556 22.5 4.68681 20.5312Z" fill="#913A40"/>
<path d="M5.99931 22.7804C5.99931 23.0617 6.28056 23.3429 6.56181 23.4367L8.15556 24.1867C8.62431 24.3742 9.09306 24.2804 9.37431 23.9054L9.46806 23.8117C9.84306 23.3429 9.65556 22.5929 9.09306 22.3117C8.53056 22.0304 7.78056 21.7492 7.12431 21.5617C6.46806 21.3742 5.81181 22.0304 5.99931 22.7804Z" fill="#230506"/>
<path d="M5.34292 22.0315C5.43667 22.3127 5.62417 22.594 5.90542 22.7815L7.49917 23.5315C7.96792 23.719 8.43667 23.6252 8.71792 23.2502L8.81167 23.1565C9.18667 22.6877 8.99917 21.9377 8.43667 21.6565C7.87417 21.3752 7.12417 21.094 6.46792 20.9065C5.81167 20.719 5.15542 21.2815 5.34292 22.0315ZM8.53042 11.6252C8.53042 11.6252 7.96792 10.8752 6.74917 11.4377C5.53042 12.0002 3.09292 16.3127 5.34292 16.8752C7.59292 17.344 9.84292 13.4065 8.53042 11.6252Z" fill="white"/>
<path d="M7.87437 12.375C7.87437 12.375 7.49937 11.9063 6.65562 12.1875C5.81187 12.5625 4.21812 15.5625 5.71812 15.9375C7.21812 16.4063 8.71812 13.6875 7.87437 12.375Z" fill="#F6F6F6"/>
<path d="M11.4375 12.7491C11.4375 12.7491 13.125 10.5929 14.8125 10.3116C16.5 10.0304 18.6562 11.6241 19.0312 13.1241C19.0312 13.1241 18.4687 12.9366 17.625 12.1866C16.7812 11.4366 13.5 10.4991 11.4375 12.7491ZM5.8125 11.2491C5.8125 11.2491 6.75 9.65536 7.78125 9.46786C8.8125 9.28036 10.0312 10.4054 10.2188 11.5304C10.2188 11.5304 9.9375 11.4366 9.375 10.8741C8.90625 10.2179 7.03125 9.56161 5.8125 11.2491Z" fill="#131313"/>
<path d="M22.9683 11.5312C22.9683 11.5312 24.9371 16.0312 23.8121 20.5312L22.2183 20.7188C22.3121 20.7188 23.9058 17.1562 22.9683 11.5312ZM11.0621 17.625C11.0621 17.625 6.09333 15.8438 3.65583 17.5313C1.21833 19.2188 2.34333 22.125 3.74958 22.2188C5.24958 22.3125 7.03083 21.375 7.03083 21.375C7.03083 21.375 8.15583 24.375 12.2808 24.1875C14.1558 24.0937 14.9058 19.5937 14.9058 19.5937C14.9058 19.5937 12.1871 17.8125 11.0621 17.625Z" fill="#50544E"/>
<path d="M12.0001 17.9058C12.0001 17.9058 6.5626 16.0308 4.03135 17.437C1.5001 18.8433 3.09385 21.7495 4.59385 21.8433C6.09385 21.937 7.03135 21.4683 7.03135 21.4683C7.03135 21.4683 10.1251 23.812 12.0001 23.5308C13.8751 23.2495 14.9063 19.4058 14.9063 19.4058C14.9063 19.4058 13.1251 17.9995 12.0001 17.9058Z" fill="#CECECE"/>
<path d="M9.8445 17.2504C9.8445 17.2504 7.2195 16.1254 6.00075 16.5004C4.782 16.8754 5.532 18.8441 6.37575 19.1254C7.2195 19.4066 11.2508 18.5629 9.8445 17.2504Z" fill="#230506"/>
<path d="M6.84375 16.4062C7.51685 16.4062 8.0625 15.7347 8.0625 14.9062C8.0625 14.0778 7.51685 13.4062 6.84375 13.4062C6.17065 13.4062 5.625 14.0778 5.625 14.9062C5.625 15.7347 6.17065 16.4062 6.84375 16.4062Z" fill="#230506"/>
<path d="M14.0625 17.9063C14.8909 17.9063 15.5625 17.1507 15.5625 16.2187C15.5625 15.2868 14.8909 14.5312 14.0625 14.5312C13.2341 14.5312 12.5625 15.2868 12.5625 16.2187C12.5625 17.1507 13.2341 17.9063 14.0625 17.9063Z" fill="#230506"/>
<path d="M14.5312 16.5938C14.8937 16.5938 15.1875 16.2999 15.1875 15.9375C15.1875 15.5751 14.8937 15.2812 14.5312 15.2812C14.1688 15.2812 13.875 15.5751 13.875 15.9375C13.875 16.2999 14.1688 16.5938 14.5312 16.5938Z" fill="#E8E8E8"/>
<path d="M7.21875 15.0938C7.47763 15.0938 7.6875 14.8839 7.6875 14.625C7.6875 14.3661 7.47763 14.1562 7.21875 14.1562C6.95987 14.1562 6.75 14.3661 6.75 14.625C6.75 14.8839 6.95987 15.0938 7.21875 15.0938Z" fill="#E8E8E8"/>
<path d="M2.8125 19.5938C2.8125 19.5938 4.21875 22.0312 6.84375 20.9062C6.84375 20.9062 9.375 23.0625 10.6875 22.6875C12 22.3125 14.1562 21 14.1562 21C14.1562 21 13.125 23.8125 11.25 23.625C9.375 23.4375 6.84375 21.6563 6.84375 21.6563C6.84375 21.6563 3.09375 23.1562 2.8125 19.5938Z" fill="#B2B2B2"/>
<path d="M21.2813 17.4375C21.2813 17.4375 21.1875 19.7812 22.5 21L25.5 23.5312L22.0312 24L23.5312 25.6875C23.5312 25.6875 20.9062 26.5312 17.9063 26.8125C14.9063 27.0938 12.1875 27 12.1875 27C12.1875 27 23.4375 25.7812 21.2813 17.4375Z" fill="#CECECE"/>
<path d="M23.5312 23.8125L18.8438 22.5938L23.1563 25.3125L22.7812 24.4687L23.5312 23.8125Z" fill="#50544E"/>
<path d="M10.2193 17.3438C10.2193 17.3438 11.1568 18.9375 10.4068 19.3125C9.65679 19.7813 10.2193 20.9063 12.563 20.625C14.9068 20.3438 15.4693 19.4063 15.4693 19.4063C15.4693 19.4063 11.5318 17.0625 10.2193 17.3438ZM5.15679 17.25C5.15679 17.25 4.96929 18.6562 5.62554 19.125C6.28179 19.5938 1.21929 18.9375 5.15679 17.25ZM16.9693 23.25L20.1568 25.0313L14.9068 24.8438L16.9693 23.25Z" fill="#E8E8E8"/>
<path d="M13.4062 27.1875L15.9375 25.3125C15.9375 25.3125 17.625 26.5312 19.6875 26.5312L13.4062 27.1875Z" fill="#B2B2B2"/>
</g>
<defs>
<clipPath id="clip0_52_71505">
<rect width="30" height="30" fill="white"/>
</clipPath>
</defs>
</svg>
