<svg width="24" height="24" viewBox="0 0 24 24" fill="none" xmlns="http://www.w3.org/2000/svg">
<mask id="mask0_0_363" style="mask-type:luminance" maskUnits="userSpaceOnUse" x="-3" y="-3" width="30" height="30">
<rect x="-2.3996" y="-2.4006" width="28.7992" height="28.7992" fill="white"/>
</mask>
<g mask="url(#mask0_0_363)">
<path fill-rule="evenodd" clip-rule="evenodd" d="M16.7995 14.3996H17.3995C18.3919 14.3996 19.1995 13.592 19.1995 12.5996V1.79995C19.1995 0.807577 18.3919 0 17.3995 0H1.79995C0.807577 0 0 0.807577 0 1.79995V13.1996V14.3996V19.1995L6.39942 14.3996H13.1996H16.7995ZM5.60024 11.9997L2.39993 14.3996V13.1996V2.39993H16.7995V11.9997H13.1996H5.60024Z" fill="#878A92"/>
<path fill-rule="evenodd" clip-rule="evenodd" d="M22.1994 7.1998H21.5994V9.59973V12.7028V14.4008C21.5994 15.7208 20.5278 16.7923 19.2115 16.7995H18.3991H16.7995H10.7997H9.59973H7.1998V17.3995C7.1998 18.3919 8.00738 19.1995 8.99975 19.1995H9.59973H10.7997H16.7995H17.5999L23.9993 23.9993V19.1995V17.9995V15.6008V13.1984V8.99975C23.9993 8.00738 23.1918 7.1998 22.1994 7.1998Z" fill="#878A92"/>
</g>
</svg>
