<svg width="644" height="234" viewBox="0 0 644 234" fill="none" xmlns="http://www.w3.org/2000/svg">
<path d="M574.532 93.9821L587.436 146.42C589.541 154.974 601.366 155.83 604.682 147.668L605.874 144.734C608.596 138.033 618.153 138.234 620.591 145.044L623.704 153.738C625.362 158.371 632.007 158.087 633.265 153.33C634.756 147.693 643.044 148.716 643.12 154.546L644 222.266C644.079 228.398 639.131 233.411 632.998 233.411H11.0025C4.92597 233.411 0 228.485 0 222.409V106.402C0 93.6516 18.0599 91.1109 21.5779 103.367L28.9132 128.921C29.3051 130.286 29.9577 131.563 30.8349 132.68L43.9894 149.434C48.5081 155.188 57.2808 155.012 61.5637 149.079L68.4212 139.581C73.366 132.732 83.865 133.779 87.359 141.47L97.6799 164.187C101.967 173.625 115.735 172.439 118.345 162.407L132.867 106.596C135.46 96.6317 149.095 95.3692 153.473 104.688L160.568 119.789C164.89 128.989 178.309 127.909 181.105 118.137L194.467 71.4233C197.469 60.9317 212.267 60.7384 215.541 71.1481L235.442 134.418C238.635 144.571 252.948 144.726 256.359 134.644L260.901 121.222C264.19 111.502 277.819 111.178 281.566 120.731L293.849 152.047C298.04 162.734 313.745 160.665 315.025 149.257L326.078 50.794C327.389 39.112 343.646 37.3508 347.429 48.481L365.856 102.702C369.48 113.363 384.881 112.343 387.067 101.297L392.7 72.834C394.21 65.2041 404.813 64.4189 407.431 71.7431C410.035 79.0293 420.568 78.3022 422.146 70.7272L435.056 8.76208C437.193 -1.49537 451.1 -3.24266 455.708 6.16742L462.197 19.4178C464.941 25.0226 472.588 25.8575 476.478 20.9769C480.939 15.379 489.898 17.4644 491.428 24.4568L513.771 126.548C514.989 132.114 522.872 132.264 524.301 126.749C525.63 121.622 532.771 121.256 534.617 126.22L535.236 127.883C537.337 133.534 545.536 132.866 546.695 126.949L553.051 94.4966C555.315 82.9326 571.716 82.5397 574.532 93.9821Z" fill="#52B141"/>
</svg>
