<svg width="18" height="20" viewBox="0 0 18 20" fill="none" xmlns="http://www.w3.org/2000/svg">
<path d="M16.7916 12.04L15.6588 10.1553C15.4081 9.74427 15.1876 8.95229 15.1876 8.47109V6.59643C15.1876 2.95736 12.2302 0 8.60119 0C4.96213 0.010025 2.00477 2.95736 2.00477 6.59643V8.46107C2.00477 8.94227 1.78422 9.73424 1.54362 10.1453L0.410796 12.03C-0.0202775 12.7618 -0.120527 13.5939 0.150147 14.3156C0.420821 15.0475 1.03234 15.6289 1.83434 15.8896C2.91704 16.2505 4.00976 16.5111 5.12253 16.7016C5.2328 16.7216 5.34308 16.7317 5.45335 16.7517C5.5937 16.7718 5.74408 16.7918 5.89445 16.8119C6.1551 16.852 6.41575 16.882 6.68642 16.9021C7.318 16.9622 7.9596 16.9923 8.60119 16.9923C9.23277 16.9923 9.86434 16.9622 10.4859 16.9021C10.7165 16.882 10.947 16.862 11.1676 16.8319C11.348 16.8119 11.5285 16.7918 11.7089 16.7617C11.8192 16.7517 11.9295 16.7317 12.0398 16.7116C13.1626 16.5312 14.2753 16.2505 15.358 15.8896C16.1299 15.6289 16.7214 15.0475 17.0021 14.3056C17.2828 13.5538 17.2026 12.7317 16.7916 12.04ZM9.33301 7.96985C9.33301 8.3909 8.99217 8.73174 8.57112 8.73174C8.15007 8.73174 7.80922 8.3909 7.80922 7.96985V4.86211C7.80922 4.44106 8.15007 4.10021 8.57112 4.10021C8.99217 4.10021 9.33301 4.44106 9.33301 4.86211V7.96985Z" fill="#E0DED8"/>
<path d="M11.4187 18.005C10.9976 19.1679 9.88485 20 8.5816 20C7.78963 20 7.00768 19.6792 6.45631 19.1078C6.13551 18.807 5.89491 18.406 5.75456 17.995C5.88489 18.0151 6.01521 18.0251 6.15556 18.0451C6.38614 18.0752 6.62674 18.1053 6.86734 18.1253C7.43876 18.1755 8.02021 18.2055 8.60165 18.2055C9.17308 18.2055 9.7445 18.1755 10.3059 18.1253C10.5164 18.1053 10.7269 18.0953 10.9274 18.0652C11.0878 18.0451 11.2482 18.0251 11.4187 18.005Z" fill="#E0DED8"/>
</svg>
