<svg width="25" height="30" viewBox="0 0 25 30" fill="none" xmlns="http://www.w3.org/2000/svg">
<path d="M24.9104 25.3038L22.7641 21.7263C21.7729 20.075 21.2491 18.1838 21.2491 16.2588V13.125C21.2491 9.16875 18.6091 5.82252 14.9991 4.74375V2.50002C14.9991 1.12125 13.8779 0 12.4991 0C11.1203 0 9.99907 1.12125 9.99907 2.50002V4.74375C6.38911 5.82252 3.74911 9.16875 3.74911 13.125V16.2588C3.74911 18.1838 3.22534 20.0737 2.23534 21.725L0.0891112 25.3025C-0.0271388 25.4963 -0.0296583 25.7363 0.0816112 25.9325C0.192881 26.1288 0.399131 26.2501 0.624131 26.2501H24.3741C24.5991 26.2501 24.8066 26.1288 24.9179 25.9338C25.0291 25.7388 25.0254 25.4963 24.9104 25.3038Z" fill="#702492"/>
<path d="M8.5625 27.5C9.2675 28.9725 10.76 30 12.4987 30C14.2374 30 15.73 28.9725 16.435 27.5H8.5625V27.5Z" fill="#702492"/>
<path d="M23.46 8C23.46 10.4853 21.4452 12.5 18.96 12.5C16.4747 12.5 14.46 10.4853 14.46 8C14.46 5.51472 16.4747 3.5 18.96 3.5C21.4452 3.5 23.46 5.51472 23.46 8Z" fill="#FC7100" stroke="#F6F5FA"/>
</svg>
