<svg width="22" height="14" viewBox="0 0 22 14" fill="none" xmlns="http://www.w3.org/2000/svg">
<path d="M5.17744 8.01438C5.53217 7.77193 5.99234 7.64053 6.46704 7.64615C6.94174 7.65176 7.39644 7.79398 7.74128 8.0447L10.3274 9.90702L15.5769 6.0923C15.9257 5.84173 16.3836 5.70016 16.8611 5.69528C17.3385 5.69041 17.8012 5.82257 18.1585 6.06593L22 8.71352V2.40326C21.9991 1.76617 21.6693 1.15536 21.0831 0.704824C20.4968 0.254289 19.702 0.000814167 18.8728 0H3.12717C2.29812 0.000813932 1.50332 0.254229 0.917096 0.704668C0.330868 1.15511 0.0010593 1.7658 0 2.40282V11.1475C0.00428083 11.2628 0.0193802 11.3776 0.0451804 11.4912L5.17744 8.01438ZM9.52391 1.93878C10.0172 1.93869 10.4994 2.051 10.9096 2.2615C11.3198 2.472 11.6396 2.77124 11.8285 3.12138C12.0174 3.47151 12.0669 3.85682 11.9707 4.22858C11.8746 4.60033 11.6372 4.94184 11.2885 5.20991C10.9397 5.47798 10.4954 5.66058 10.0116 5.7346C9.52783 5.80863 9.02634 5.77077 8.57057 5.62581C8.11479 5.48084 7.7252 5.23528 7.45105 4.92019C7.17691 4.60509 7.03052 4.23461 7.03041 3.85558C7.03086 3.34778 7.29336 2.86083 7.76036 2.50151C8.22735 2.14219 8.86073 1.93982 9.52162 1.93878H9.52391Z" fill="#B0B6C4"/>
<path d="M9.52194 4.67303C9.73244 4.67295 9.93818 4.6249 10.1131 4.53497C10.2881 4.44503 10.4244 4.31726 10.5049 4.16779C10.5853 4.01833 10.6063 3.85389 10.5651 3.69528C10.5239 3.53666 10.4225 3.39098 10.2735 3.27668C10.1246 3.16237 9.93492 3.08456 9.72844 3.05309C9.52196 3.02162 9.30798 3.03791 9.11354 3.09988C8.91911 3.16186 8.75296 3.26674 8.63611 3.40128C8.51925 3.53581 8.45694 3.69395 8.45705 3.85569C8.45751 4.07251 8.56988 4.28033 8.76952 4.43356C8.96916 4.58679 9.23976 4.67292 9.52194 4.67303Z" fill="#B0B6C4"/>
<path d="M21.3739 9.75517L17.2047 6.88259C17.1153 6.82185 16.9996 6.78888 16.8802 6.7901C16.7609 6.79132 16.6464 6.82664 16.5591 6.88918L10.8211 11.0598C10.6889 11.1562 10.5136 11.2099 10.3313 11.2099C10.1491 11.2099 9.97375 11.1562 9.84148 11.0598L6.76407 8.84554C6.67741 8.78324 6.56365 8.74801 6.445 8.74671C6.32634 8.74541 6.21132 8.77814 6.12239 8.83851L0.98956 12.3184C0.859239 12.4069 0.691117 12.4555 0.517168 12.455H0.508589C0.791111 12.7915 1.17874 13.0683 1.63615 13.2602C2.09356 13.4521 2.60619 13.553 3.12733 13.5536H18.873C19.702 13.5528 20.4968 13.2994 21.083 12.849C21.6693 12.3985 21.9991 11.7878 22.0001 11.1508V9.87645C21.8908 9.89658 21.7767 9.89606 21.6676 9.87494C21.5586 9.85382 21.4578 9.81272 21.3739 9.75517Z" fill="#B0B6C4"/>
</svg>
