<svg width="24" height="24" viewBox="0 0 24 24" fill="none" xmlns="http://www.w3.org/2000/svg">
<path d="M20.2501 4.5H3.75013C3.3523 4.5 2.97077 4.65804 2.68947 4.93934C2.40816 5.22064 2.25013 5.60218 2.25013 6V20.8875C2.24634 21.1734 2.32589 21.4542 2.47905 21.6956C2.63222 21.937 2.85238 22.1285 3.11263 22.2469C3.31048 22.346 3.52883 22.3974 3.75013 22.3969C4.10395 22.3957 4.44597 22.2695 4.71575 22.0406L7.7345 19.5H20.2501C20.648 19.5 21.0295 19.342 21.3108 19.0607C21.5921 18.7794 21.7501 18.3978 21.7501 18V6C21.7501 5.60218 21.5921 5.22064 21.3108 4.93934C21.0295 4.65804 20.648 4.5 20.2501 4.5ZM20.2501 18H7.7345C7.3801 17.9978 7.03696 18.1244 6.76888 18.3563L3.75013 20.8875V6H20.2501V18ZM10.8751 12C10.8751 11.7775 10.9411 11.56 11.0647 11.375C11.1883 11.19 11.364 11.0458 11.5696 10.9606C11.7752 10.8755 12.0014 10.8532 12.2196 10.8966C12.4378 10.94 12.6383 11.0472 12.7956 11.2045C12.953 11.3618 13.0601 11.5623 13.1035 11.7805C13.1469 11.9988 13.1246 12.225 13.0395 12.4305C12.9543 12.6361 12.8102 12.8118 12.6251 12.9354C12.4401 13.059 12.2226 13.125 12.0001 13.125C11.7018 13.125 11.4156 13.0065 11.2046 12.7955C10.9937 12.5845 10.8751 12.2984 10.8751 12ZM6.37513 12C6.37513 11.7775 6.44111 11.56 6.56473 11.375C6.68834 11.19 6.86404 11.0458 7.06961 10.9606C7.27518 10.8755 7.50138 10.8532 7.71961 10.8966C7.93784 10.94 8.13829 11.0472 8.29563 11.2045C8.45296 11.3618 8.56011 11.5623 8.60351 11.7805C8.64692 11.9988 8.62464 12.225 8.53949 12.4305C8.45435 12.6361 8.31015 12.8118 8.12515 12.9354C7.94014 13.059 7.72263 13.125 7.50013 13.125C7.20176 13.125 6.91561 13.0065 6.70463 12.7955C6.49366 12.5845 6.37513 12.2984 6.37513 12ZM15.3751 12C15.3751 11.7775 15.4411 11.56 15.5647 11.375C15.6883 11.19 15.864 11.0458 16.0696 10.9606C16.2752 10.8755 16.5014 10.8532 16.7196 10.8966C16.9378 10.94 17.1383 11.0472 17.2956 11.2045C17.453 11.3618 17.5601 11.5623 17.6035 11.7805C17.6469 11.9988 17.6246 12.225 17.5395 12.4305C17.4543 12.6361 17.3102 12.8118 17.1251 12.9354C16.9401 13.059 16.7226 13.125 16.5001 13.125C16.2018 13.125 15.9156 13.0065 15.7046 12.7955C15.4937 12.5845 15.3751 12.2984 15.3751 12Z" fill="white"/>
</svg>
