<svg width="102" height="172" viewBox="0 0 102 172" fill="none" xmlns="http://www.w3.org/2000/svg">
<rect width="33.0571" height="33.0571" rx="2" fill="#F4F5FB"/>
<path d="M94.3528 151.034C92.589 151.034 91.0103 151.917 90.0261 153.271C89.0419 151.917 87.4632 151.034 85.6993 151.034C82.7076 151.034 80.2811 153.542 80.2811 156.642C80.2811 157.836 80.4663 158.939 80.7879 159.962C82.3276 164.978 87.0734 167.978 89.4219 168.8C89.7532 168.921 90.2989 168.921 90.6303 168.8C92.9788 167.978 97.7246 164.978 99.2643 159.962C99.5859 158.939 99.771 157.836 99.771 156.642C99.771 153.542 97.3445 151.034 94.3528 151.034Z" fill="#F62525"/>
</svg>
