<svg width="45" height="24" viewBox="0 0 45 24" fill="none" xmlns="http://www.w3.org/2000/svg">
<path d="M24.7975 16.4177C22.8628 15.1771 21.7534 13.3638 21.7534 11.4428L21.7534 8.73641C21.7534 5.32048 18.4085 2.49279 14.0757 2.01908L14.0757 0.970713C14.0757 0.433909 13.5024 2.16058e-10 12.7961 2.04756e-10C12.0897 1.93453e-10 11.5165 0.433909 11.5165 0.970713L11.5165 2.01908C7.18244 2.49279 3.83883 5.32048 3.83883 8.73641L3.83883 11.4428C3.83883 13.3638 2.72941 15.1771 0.783121 16.4254C0.285353 16.7487 4.78552e-10 17.2185 4.92365e-10 17.7155C5.184e-10 18.6522 1.00449 19.4143 2.23932 19.4143L23.3529 19.4143C24.5877 19.4143 25.5922 18.6522 25.5922 17.7155C25.5922 17.2185 25.3068 16.7487 24.7975 16.4177Z" fill="#828797"/>
<path d="M12.7965 23.2971C15.1138 23.2971 17.0524 22.0439 17.4978 20.385L8.09519 20.385C8.54049 22.0439 10.4791 23.2971 12.7965 23.2971Z" fill="#828797"/>
<circle cx="41.2119" cy="12.9004" r="3.78815" fill="#5361FD"/>
</svg>
