<svg width="111" height="100" viewBox="0 0 111 100" fill="none" xmlns="http://www.w3.org/2000/svg">
<path d="M44.2229 45.0359C44.2229 49.0284 40.9848 52.2631 36.9966 52.2631C33.0058 52.2631 29.7695 49.0284 29.7695 45.0359C29.7695 41.046 33.0058 37.8096 36.9966 37.8096C40.9848 37.8096 44.2229 41.046 44.2229 45.0359Z" fill="#742996" stroke="#742996" stroke-width="2" stroke-linecap="round" stroke-linejoin="round"/>
<path d="M22.5467 72.4972V59.4894C22.5467 56.3485 25.0936 53.7989 28.2354 53.7989C33.0752 58.6326 40.9207 58.6361 45.7622 53.7981L45.7656 53.7989C48.9066 53.7989 51.4535 56.3476 51.4535 59.4894V72.4972H22.5467Z" fill="#742996" stroke="#742996" stroke-width="2" stroke-linecap="round" stroke-linejoin="round"/>
<path d="M109.266 82.0358H102.328V32.0857C102.328 26.0154 97.9923 20.8123 92.2688 19.5982V23.2404C96.0845 24.4545 98.8595 28.0967 98.8595 32.2592V82.2092H70.4157C69.8954 82.2092 69.5485 82.3827 69.2016 82.7295C65.7329 86.1983 64.8657 87.0655 64.1719 87.7592H46.8282L41.7985 82.7295C41.4516 82.3827 41.1047 82.2092 40.5844 82.2092H12.1406V32.0857C12.1406 26.8826 16.3031 22.7201 21.5063 22.7201H38.5032V19.2513H21.5063C14.3953 19.2513 8.67188 24.9748 8.67188 32.0857V82.0358H1.73438C0.867188 82.0358 0 82.7295 0 83.7702V90.0139C0 90.5342 0.173438 91.0545 0.693751 91.4014L10.4063 99.3795C10.7531 99.553 11.1 99.7264 11.4469 99.7264H99.5532C100.074 99.7264 100.42 99.553 100.767 99.2061C102.502 97.4717 103.889 96.4311 105.45 95.3905C107.011 94.3498 108.572 93.3092 110.48 91.228C110.827 90.8811 111 90.5342 111 90.0139V83.7702C111 82.7295 110.306 82.0358 109.266 82.0358Z" fill="#742996"/>
<path d="M90.8815 69.7221H65.0392C63.9986 69.7221 63.3049 70.4159 63.3049 71.4565C63.3049 72.4971 63.9986 73.1909 65.0392 73.1909H90.8815C91.9221 73.1909 92.6158 72.4971 92.6158 71.4565C92.6158 70.4159 91.7486 69.7221 90.8815 69.7221Z" fill="#742996"/>
<path d="M90.8815 60.3563H65.0392C63.9986 60.3563 63.3049 61.0501 63.3049 62.0907C63.3049 63.1313 63.9986 63.8251 65.0392 63.8251H90.8815C91.9221 63.8251 92.6158 63.1313 92.6158 62.0907C92.6158 61.0501 91.7486 60.3563 90.8815 60.3563Z" fill="#742996"/>
<path d="M63.3049 52.7248C63.3049 53.7655 63.9986 54.4592 65.0392 54.4592H90.8815C91.9221 54.4592 92.6158 53.7655 92.6158 52.7248C92.6158 51.6842 91.9221 50.9905 90.8815 50.9905H65.0392C63.9986 50.9905 63.3049 51.6842 63.3049 52.7248Z" fill="#742996"/>
<path fill-rule="evenodd" clip-rule="evenodd" d="M43.7064 29.6578H67.4674V36.7688C67.4674 37.4625 67.8143 38.1563 68.508 38.3297C69.2018 38.6766 69.8955 38.5032 70.4158 37.9828L79.7815 29.4844H87.2393C88.2799 29.4844 88.9737 28.6172 88.9737 27.75V1.73438C88.9737 0.867188 88.2799 0 87.2393 0H43.8799C43.0127 0 42.1455 0.867188 42.1455 1.73438V27.75C41.9721 28.9641 42.8393 29.6578 43.7064 29.6578ZM51.5111 8.15157H79.2612C80.3018 8.15157 80.9955 8.84532 80.9955 9.88595C80.9955 10.9266 80.3018 11.6203 79.2612 11.6203H51.5111C50.4705 11.6203 49.7768 10.9266 49.7768 9.88595C49.7768 8.84532 50.6439 8.15157 51.5111 8.15157ZM79.2612 16.9969H51.5111C50.6439 16.9969 49.7768 17.6906 49.7768 18.7313C49.7768 19.7719 50.4705 20.4656 51.5111 20.4656H79.2612C80.3018 20.4656 80.9955 19.7719 80.9955 18.7313C80.9955 17.6906 80.3018 16.9969 79.2612 16.9969Z" fill="#742996"/>
</svg>
