<svg width="22" height="22" viewBox="0 0 22 22" fill="none" xmlns="http://www.w3.org/2000/svg">
<path d="M13.7245 18.5204L13.1152 18.0573L13.1122 18.0612L13.7245 18.5204ZM12.1938 20.5612L12.8061 21.0204L12.1938 20.5612ZM9.74487 20.5612L9.13263 21.0204L9.74487 20.5612ZM8.21426 18.5204L7.59526 18.9706L7.60202 18.9795L8.21426 18.5204ZM7.39794 17.3469H6.88774V18.8775H7.39794V17.3469ZM6.88774 17.3469C4.86046 17.3469 3.59066 17.0803 2.79987 16.3883C2.03435 15.7184 1.53061 14.4748 1.53061 11.9898H0C0 14.6068 0.516665 16.4243 1.79195 17.5402C3.04197 18.6339 4.8334 18.8775 6.88774 18.8775V17.3469ZM1.53061 11.9898V6.88774H0V11.9898H1.53061ZM1.53061 6.88774C1.53061 4.96489 2.0108 3.66333 2.83706 2.83706C3.66333 2.0108 4.96489 1.53061 6.88774 1.53061V0C4.72896 0 2.96931 0.540213 1.75476 1.75476C0.540213 2.96931 0 4.72896 0 6.88774H1.53061ZM6.88774 1.53061H15.051V0H6.88774V1.53061ZM15.051 1.53061C16.9738 1.53061 18.2754 2.0108 19.1017 2.83706C19.9279 3.66333 20.4081 4.96489 20.4081 6.88774H21.9387C21.9387 4.72896 21.3985 2.96931 20.1839 1.75476C18.9694 0.540213 17.2097 0 15.051 0V1.53061ZM20.4081 6.88774V11.9898H21.9387V6.88774H20.4081ZM20.4081 11.9898C20.4081 13.9126 19.9279 15.2141 19.1017 16.0405C18.2754 16.8667 16.9738 17.3469 15.051 17.3469V18.8775C17.2097 18.8775 18.9694 18.3373 20.1839 17.1227C21.3985 15.9082 21.9387 14.1485 21.9387 11.9898H20.4081ZM15.051 17.3469H14.5408V18.8775H15.051V17.3469ZM14.5408 17.3469C13.9817 17.3469 13.4515 17.6146 13.1152 18.0573L14.3337 18.9834C14.3852 18.9159 14.4672 18.8775 14.5408 18.8775V17.3469ZM13.1122 18.0612L11.5816 20.102L12.8061 21.0204L14.3367 18.9795L13.1122 18.0612ZM11.5816 20.102C11.3681 20.3866 11.1391 20.4693 10.9694 20.4693C10.7997 20.4693 10.5705 20.3866 10.3571 20.102L9.13263 21.0204C9.59267 21.6337 10.2513 21.9999 10.9694 21.9999C11.6874 21.9999 12.3461 21.6337 12.8061 21.0204L11.5816 20.102ZM10.3571 20.102L8.82651 18.0612L7.60202 18.9795L9.13263 21.0204L10.3571 20.102ZM8.83319 18.0703C8.65646 17.8272 8.40777 17.6554 8.1881 17.5464C7.96728 17.437 7.68653 17.3469 7.39794 17.3469V18.8775C7.38527 18.8775 7.39229 18.876 7.41908 18.8832C7.44418 18.8899 7.47547 18.9015 7.50829 18.9178C7.54117 18.934 7.56796 18.9514 7.58641 18.9658C7.60629 18.9812 7.60582 18.9849 7.59534 18.9705L8.83319 18.0703Z" fill="#93989A"/>
<path d="M14.7979 8.67345C14.2343 8.67345 13.7775 9.1303 13.7775 9.69385C13.7775 10.2574 14.2343 10.7143 14.7979 10.7143V8.67345ZM14.807 10.7143C15.3706 10.7143 15.8274 10.2574 15.8274 9.69385C15.8274 9.1303 15.3706 8.67345 14.807 8.67345V10.7143ZM14.7979 10.7143H14.807V8.67345H14.7979V10.7143Z" fill="#93989A"/>
<path d="M10.7153 8.67345C10.1517 8.67345 9.69485 9.1303 9.69485 9.69385C9.69485 10.2574 10.1517 10.7143 10.7153 10.7143V8.67345ZM10.7244 10.7143C11.288 10.7143 11.7448 10.2574 11.7448 9.69385C11.7448 9.1303 11.288 8.67345 10.7244 8.67345V10.7143ZM10.7153 10.7143H10.7244V8.67345H10.7153V10.7143Z" fill="#93989A"/>
<path d="M6.63264 8.67345C6.06908 8.67345 5.61223 9.1303 5.61223 9.69385C5.61223 10.2574 6.06908 10.7143 6.63264 10.7143V8.67345ZM6.6418 10.7143C7.20535 10.7143 7.66221 10.2574 7.66221 9.69385C7.66221 9.1303 7.20535 8.67345 6.6418 8.67345V10.7143ZM6.63264 10.7143H6.6418V8.67345H6.63264V10.7143Z" fill="#93989A"/>
</svg>
