<svg width="45" height="45" viewBox="0 0 45 45" fill="none" xmlns="http://www.w3.org/2000/svg">
<g clip-path="url(#clip0_52_57670)">
<path d="M26.8594 5.90625L21.5156 0.421875L1.125 35.8594L7.59375 38.5312L21.9375 35.2969L31.2188 15.6094L26.8594 5.90625Z" fill="#5C2E0E"/>
<path d="M34.1719 44.5781L28.9687 43.1719L24.8906 22.5L41.4844 15.0469L44.8594 20.25L33.0469 28.4063L34.1719 44.5781Z" fill="#5C2E0E"/>
<path d="M24.0469 4.35938L16.4531 14.2031L4.35938 14.9063L10.5469 24.3281L4.78125 36.1406L18.8437 33.3281L32.4844 43.5938L31.2188 27.2812L42.3281 19.125L28.4062 15.1875L24.0469 4.35938Z" fill="#5C2E0E"/>
<path d="M21.5156 0.421875L13.2187 11.1094L0.140625 11.9531L6.75 22.0781L1.125 35.8594L15.75 31.9219L28.9688 43.1719L29.1094 25.1719L41.4844 15.0469L26.2969 11.9531L21.5156 0.421875Z" fill="#5C2E0E"/>
<path d="M25.3125 8.29688L18.8438 16.5938L8.57812 17.0156L14.0625 25.0312L9.42187 36.2812L21.0938 32.625L32.3438 41.625L31.2188 27.5625L41.9062 20.1094L28.9688 17.2969L25.3125 8.29688Z" fill="#CF7902"/>
<path d="M21.375 3.51562L14.2031 12.6562L3.09375 13.2187L8.85938 21.9375L3.51562 34.4531L16.4531 30.2344L28.8281 40.2188L27.7031 24.6094L39.6562 16.3125L25.3125 13.3594L21.375 3.51562Z" fill="#FDE049"/>
<path d="M20.3906 6.1875L14.625 13.6406L5.48438 14.0625L10.2656 21.0938L6.04688 31.2188L16.3125 27.8438L26.1563 35.7188L25.4531 23.2031L34.875 16.5938L23.4844 14.2031L20.3906 6.1875Z" fill="url(#paint0_linear_52_57670)"/>
<path d="M13.6406 13.3594L18 29.3906L15.0469 29.1094L9.5625 13.6406L13.6406 13.3594ZM9 24.1875L10.8281 30.375L5.20312 32.3438L9 24.1875Z" fill="#FDE049"/>
<path d="M27.5625 15.3281L28.2656 21.2344L25.5938 23.4844L24.0469 14.3438L27.5625 15.3281Z" fill="white"/>
<path d="M25.3125 8.29688L21.375 3.51562L24.0469 9.84375L25.3125 8.29688Z" fill="#CF7902"/>
<path d="M9.42187 36.2812L3.51562 34.4531L16.5938 30.2344L19.8281 33.0469L9.42187 36.2812Z" fill="#B26810"/>
<path d="M39.6562 16.3125L41.9062 20.1094L27.7031 24.6094L39.6562 16.3125ZM32.3437 41.625L28.8281 40.2188L28.5469 37.2656L32.3437 41.625Z" fill="#CF7902"/>
</g>
<defs>
<linearGradient id="paint0_linear_52_57670" x1="7.43161" y1="9.72886" x2="27.7508" y2="31.8541" gradientUnits="userSpaceOnUse">
<stop stop-color="white"/>
<stop offset="1" stop-color="#FDE049"/>
</linearGradient>
<clipPath id="clip0_52_57670">
<rect width="45" height="45" fill="white"/>
</clipPath>
</defs>
</svg>
