<svg width="29" height="26" viewBox="0 0 29 26" fill="none" xmlns="http://www.w3.org/2000/svg">
<path d="M16.3191 14.625C13.5992 13.0508 12.2393 11.1634 12.2393 8.96289C12.2393 8.11654 12.4199 7.29557 12.7811 6.5L12.2074 6.04297L3.69729 12.8223L10.2632 22.75H18.3589C18.9114 22.75 19.3895 22.9108 19.7932 23.2324C20.197 23.554 20.3988 23.9391 20.3988 24.3877C20.3988 24.8363 20.197 25.2171 19.7932 25.5303C19.3895 25.8434 18.9114 26 18.3589 26H2.03988C1.48741 26 1.00932 25.8434 0.60559 25.5303C0.201863 25.2171 0 24.8363 0 24.3877C0 23.9391 0.201863 23.554 0.60559 23.2324C1.00932 22.9108 1.48741 22.75 2.03988 22.75H7.96829L2.16738 14.041L1.75302 14.3711C1.56178 14.5404 1.32274 14.625 1.03588 14.625C0.749019 14.625 0.504658 14.5446 0.302795 14.3838C0.100932 14.223 0 14.0283 0 13.7998C0 13.5713 0.0956195 13.3809 0.286858 13.2285L1.17931 12.5176L0.159366 10.9688C0.0106244 10.7826 -0.026561 10.5794 0.0478097 10.3594C0.12218 10.1393 0.281546 9.97005 0.525907 9.85156C0.770268 9.73307 1.02525 9.70345 1.29086 9.7627C1.55647 9.82194 1.76365 9.95313 1.91239 10.1563L2.67735 11.3242L10.8369 4.84961C10.3269 4.24023 10.1144 3.56315 10.1994 2.81836C10.2844 2.07357 10.6563 1.4388 11.315 0.914063C12.0799 0.304688 13.0042 0 14.0879 0C15.1716 0 16.0959 0.304688 16.8609 0.914063L18.3271 2.08203C19.347 1.79427 20.3776 1.65039 21.4188 1.65039C24.2024 1.65039 26.5822 2.73372 28.5584 4.90039L16.3191 14.625Z" fill="#25396F"/>
</svg>
