<svg width="30" height="28" viewBox="0 0 30 28" fill="none" xmlns="http://www.w3.org/2000/svg">
<path d="M27.979 3.1472L26.9073 3.1472L26.9073 23.1211C26.9073 24.448 25.4834 25.5281 23.7343 25.5281L12.8754 25.5281L4.24043 25.5281L4.24043 26.2685C4.24043 27.1164 5.14757 27.8045 6.26522 27.8045L17.1202 27.8045L27.9752 27.8045C29.0928 27.8045 29.9999 27.1164 29.9999 26.2685L29.9999 4.6832C30 3.83536 29.0967 3.1472 27.979 3.1472Z" fill="#FBCD2D" fill-opacity="0.73"/>
<path d="M12.8759 24.6573L23.7309 24.6573C24.8486 24.6573 25.7557 23.9692 25.7557 23.1213L25.7557 3.1475L25.7557 1.536C25.7557 0.688152 24.8486 3.9759e-10 23.7309 3.79707e-10L12.8759 2.06022e-10L9.26654 1.4827e-10L9.26654 0.508129C9.27416 0.560394 9.27802 0.615562 9.27802 0.67073L9.27802 4.01857L9.27802 4.87804C9.27802 6.07141 7.99962 7.04121 6.42649 7.04121L5.29353 7.04121L0.880341 7.04121C0.822927 7.04121 0.761686 7.03831 0.704273 7.03541L1.9554e-10 7.03541L6.42629e-10 23.1213C6.66193e-10 23.9692 0.907134 24.6573 2.02478 24.6573L4.24477 24.6573L12.8759 24.6573ZM13.2855 19.4367L6.20832 19.4367C5.68011 19.4367 5.25142 19.1114 5.25142 18.7108C5.25142 18.31 5.68011 17.9849 6.20832 17.9849L13.2893 17.9849C13.8175 17.9849 14.2462 18.31 14.2462 18.7108C14.2462 19.1114 13.8137 19.4367 13.2855 19.4367ZM20.3665 15.7317L6.20832 15.7317C5.68011 15.7317 5.25142 15.4065 5.25142 15.0058C5.25142 14.6051 5.68011 14.2799 6.20832 14.2799L20.3665 14.2799C20.8947 14.2799 21.3234 14.6051 21.3234 15.0058C21.3234 15.4065 20.8947 15.7317 20.3665 15.7317ZM6.20832 10.3455L20.3665 10.3455C20.8947 10.3455 21.3234 10.6707 21.3234 11.0714C21.3234 11.4721 20.8947 11.7973 20.3665 11.7973L6.20832 11.7973C5.68011 11.7973 5.25142 11.4721 5.25142 11.0714C5.25142 10.6707 5.68011 10.3455 6.20832 10.3455Z" fill="#FBCD2D" fill-opacity="0.73"/>
<path d="M0.880149 6.17046L6.4263 6.17046C6.43012 6.17046 6.43778 6.17046 6.44161 6.17046C7.36788 6.16465 8.11808 5.59555 8.12574 4.89288C8.12574 4.88998 8.12574 4.88417 8.12574 4.88126L8.12574 0.671054C8.12574 0.281972 7.7047 0.0235526 7.2684 0.0235526C7.05788 0.0235526 6.84737 0.0816244 6.6713 0.21519L0.275394 5.06709C-0.260466 5.4736 0.118463 6.17046 0.880149 6.17046Z" fill="#FBCD2D" fill-opacity="0.73"/>
</svg>
