<svg width="24" height="21" viewBox="0 0 24 21" fill="none" xmlns="http://www.w3.org/2000/svg">
<path d="M12 12.8174C13.6569 12.8174 15 11.6697 15 10.2539C15 8.83814 13.6569 7.69043 12 7.69043C10.3431 7.69043 9 8.83814 9 10.2539C9 11.6697 10.3431 12.8174 12 12.8174Z" stroke="#292D32" stroke-width="1.5" stroke-miterlimit="10" stroke-linecap="round" stroke-linejoin="round"/>
<path d="M2 11.0059V9.50199C2 8.61332 2.85 7.87846 3.9 7.87846C5.71 7.87846 6.45 6.78471 5.54 5.44315C5.02 4.67411 5.33 3.67435 6.24 3.23002L7.97 2.38407C8.76 1.98246 9.78 2.22172 10.25 2.89677L10.36 3.05912C11.26 4.40067 12.74 4.40067 13.65 3.05912L13.76 2.89677C14.23 2.22172 15.25 1.98246 16.04 2.38407L17.77 3.23002C18.68 3.67435 18.99 4.67411 18.47 5.44315C17.56 6.78471 18.3 7.87846 20.11 7.87846C21.15 7.87846 22.01 8.60477 22.01 9.50199V11.0059C22.01 11.8946 21.16 12.6294 20.11 12.6294C18.3 12.6294 17.56 13.7232 18.47 15.0647C18.99 15.8423 18.68 16.8335 17.77 17.2779L16.04 18.1238C15.25 18.5254 14.23 18.2862 13.76 17.6111L13.65 17.4488C12.75 16.1072 11.27 16.1072 10.36 17.4488L10.25 17.6111C9.78 18.2862 8.76 18.5254 7.97 18.1238L6.24 17.2779C5.33 16.8335 5.02 15.8338 5.54 15.0647C6.45 13.7232 5.71 12.6294 3.9 12.6294C2.85 12.6294 2 11.8946 2 11.0059Z" stroke="#292D32" stroke-width="1.5" stroke-miterlimit="10" stroke-linecap="round" stroke-linejoin="round"/>
</svg>
