<svg width="79" height="17" viewBox="0 0 79 17" fill="none" xmlns="http://www.w3.org/2000/svg">
<g clip-path="url(#clip0_52_34027)">
<path d="M71.5685 12.8299C71.5685 14.5476 70.1139 16.2875 67.487 16.2875C64.8261 16.2875 63.3848 14.9364 63.0301 12.8432L65.1795 12.3376C65.3598 13.5513 66.3428 14.2224 67.5624 14.2224C68.6238 14.2224 69.2328 13.6547 69.2328 12.9688C69.2328 12.4145 68.748 11.9562 67.9719 11.804L66.399 11.492C64.6044 11.1387 63.4425 9.98865 63.4425 8.29752C63.4425 6.31517 65.2371 4.83248 67.3717 4.83248C69.9365 4.83248 71.1915 6.36395 71.3852 7.789L69.2994 8.40543C69.119 7.53917 68.4952 6.89317 67.351 6.89317C66.4079 6.89317 65.7249 7.48448 65.7249 8.12013C65.7249 8.65378 66.0649 9.11796 66.875 9.27169L68.4213 9.55552C70.4805 9.93839 71.5685 11.257 71.5685 12.8299ZM61.914 10.5223C61.914 11.2818 61.7639 12.0338 61.4725 12.7351C61.181 13.4364 60.7538 14.0732 60.2155 14.6089C59.6771 15.1446 59.0383 15.5687 58.3355 15.8568C57.6328 16.1448 56.8801 16.2912 56.1207 16.2875C52.9188 16.2875 50.3673 13.7863 50.3673 10.577C50.37 9.81815 50.5225 9.0673 50.816 8.36751C51.1095 7.66772 51.5383 7.03277 52.0778 6.49907C52.6173 5.96537 53.2568 5.54342 53.9597 5.25743C54.6626 4.97144 55.4151 4.82702 56.1739 4.83248C59.3699 4.83248 61.914 7.32778 61.914 10.5223ZM59.565 10.5563C59.565 9.64908 59.2046 8.77901 58.5631 8.13751C57.9216 7.496 57.0515 7.13561 56.1443 7.13561C55.2371 7.13561 54.367 7.496 53.7255 8.13751C53.084 8.77901 52.7236 9.64908 52.7236 10.5563C52.7236 12.478 54.2285 14.0627 56.1488 14.0627C58.069 14.0627 59.565 12.4692 59.565 10.5563ZM49.1344 13.0516C49.1344 15.3119 47.1388 16.122 45.1771 16.122H40.5043V5.00395H45.1135C46.9008 5.00395 48.6614 5.95596 48.6614 7.94422C48.6614 9.05143 48.0701 9.82309 47.1018 10.3213V10.3479C48.4145 10.8416 49.1344 11.5822 49.1344 13.0516ZM42.738 9.51709H44.6435C45.4609 9.51709 46.4174 9.30274 46.4174 8.30343C46.4174 7.38248 45.5777 7.12082 44.8016 7.12082H42.738V9.51709ZM46.8889 12.753C46.8889 11.7286 45.9251 11.5127 45.0721 11.5127H42.738V13.9873H45.149C45.9739 13.9873 46.8889 13.7479 46.8889 12.753ZM38.5929 10.5223C38.5929 11.2819 38.4428 12.034 38.1513 12.7354C37.8597 13.4368 37.4324 14.0737 36.8939 14.6094C36.3554 15.1452 35.7164 15.5692 35.0135 15.8572C34.3106 16.1452 33.5577 16.2914 32.7981 16.2875C29.5962 16.2875 27.0462 13.7863 27.0462 10.577C27.0489 9.81865 27.2012 9.06828 27.4944 8.36888C27.7876 7.66949 28.2158 7.0348 28.7547 6.50117C29.2935 5.96755 29.9323 5.54548 30.6346 5.25914C31.3368 4.97279 32.0886 4.82781 32.8469 4.83248C36.0488 4.83248 38.5929 7.32778 38.5929 10.5223ZM36.2425 10.5563C36.252 10.1012 36.1705 9.6488 36.0029 9.22558C35.8353 8.80237 35.5849 8.41687 35.2663 8.09167C34.9478 7.76647 34.5676 7.50811 34.148 7.33173C33.7284 7.15535 33.2777 7.0645 32.8225 7.0645C32.3673 7.0645 31.9167 7.15535 31.4971 7.33173C31.0774 7.50811 30.6972 7.76647 30.3787 8.09167C30.0602 8.41687 29.8098 8.80237 29.6422 9.22558C29.4746 9.6488 29.3931 10.1012 29.4026 10.5563C29.4026 12.478 30.906 14.0627 32.8248 14.0627C34.7435 14.0627 36.2425 12.4692 36.2425 10.5563ZM22.9381 7.02769V14.116C22.9411 15.5218 21.9433 17 20.1043 17H7.62188C5.8598 17 4.90927 15.5218 4.90927 14.116V11.5527C4.90607 11.4514 4.86492 11.3551 4.79399 11.2828C4.72307 11.2105 4.62755 11.1675 4.52641 11.1624C3.15893 10.8873 1.94205 10.1148 1.11105 8.99452C0.280053 7.8742 -0.106024 6.48554 0.0274724 5.09707C0.160969 3.70859 0.804555 2.41894 1.83379 1.47746C2.86302 0.535994 4.20478 0.00959113 5.59962 4.25431e-05C6.43752 -0.0032421 7.26523 0.183712 8.02037 0.546815C8.77551 0.909917 9.43838 1.43969 9.95901 2.09622C10.1586 2.349 10.2547 2.32978 10.4528 2.2263L12.5948 1.00378C13.1565 0.678564 14.0434 0.319347 15.1654 0.983086L17.2188 2.16569L21.8487 4.86648C22.9411 5.511 22.9411 6.35656 22.9411 7.02769H22.9381ZM22.2552 7.02769C22.2552 6.35361 22.2301 5.88943 21.5013 5.45926C20.5936 4.92413 15.1551 1.77396 14.8166 1.57439C14.0878 1.14569 13.5231 1.25804 12.9303 1.59952C12.8017 1.67491 11.8955 2.19082 10.7721 2.83091C10.3581 3.05709 9.8718 3.08961 9.42241 2.52491C8.96477 1.95036 8.3833 1.48657 7.72137 1.16815C7.05944 0.849731 6.33415 0.684899 5.59962 0.685956C4.37512 0.694759 3.19736 1.1572 2.29398 1.98388C1.39061 2.81056 0.825784 3.94279 0.708672 5.16171C0.591559 6.38063 0.930482 7.59969 1.65993 8.58325C2.38937 9.56682 3.45754 10.245 4.65797 10.4868C4.91727 10.5191 5.15569 10.6454 5.32793 10.8419C5.50017 11.0384 5.59423 11.2914 5.59223 11.5527V14.116C5.59223 15.0266 6.16284 16.3127 7.62188 16.3127H20.1043C21.4924 16.3127 22.2655 15.2291 22.2655 14.116L22.2552 7.02769ZM18.9498 7.53917C14.5993 7.84813 14.4869 7.83482 10.1512 7.53917C9.53327 7.47856 9.92945 8.63456 10.2532 8.69074C12.1971 9.07952 12.6879 9.16526 12.6879 9.70483C12.6273 10.6007 12.6066 11.4167 11.3885 14.9453C11.0928 15.6046 12.3449 15.405 12.4942 15.068C13.2748 13.5587 13.767 12.3627 14.2814 11.7759C14.315 11.7373 14.3565 11.7064 14.403 11.6852C14.4496 11.664 14.5001 11.6531 14.5512 11.6531C14.6024 11.6531 14.6529 11.664 14.6994 11.6852C14.746 11.7064 14.7874 11.7373 14.821 11.7759C15.3354 12.3672 15.8277 13.5587 16.6082 15.068C16.7561 15.405 18.0022 15.6046 17.714 14.9453C16.4974 11.4167 16.4752 10.6007 16.4146 9.70483C16.4146 9.16969 16.9054 9.07952 18.8478 8.69221C19.173 8.63604 19.5677 7.48004 18.9498 7.53917ZM14.5461 7.02178C14.7976 7.02354 15.0441 6.95052 15.2541 6.812C15.4641 6.67348 15.6282 6.47569 15.7257 6.24373C15.8231 6.01178 15.8494 5.75611 15.8013 5.50916C15.7532 5.26222 15.6328 5.03513 15.4554 4.85671C15.2781 4.67829 15.0517 4.55659 14.805 4.50703C14.5584 4.45748 14.3026 4.48232 14.07 4.57839C13.8375 4.67446 13.6388 4.83744 13.499 5.04664C13.3593 5.25584 13.2848 5.50185 13.2851 5.75343C13.2843 6.08878 13.4167 6.41073 13.6531 6.64855C13.8895 6.88636 14.2107 7.02061 14.5461 7.02178ZM5.59962 2.41552C4.96232 2.41172 4.33824 2.59722 3.8065 2.94851C3.27475 3.29981 2.85928 3.80108 2.61275 4.38878C2.36623 4.97648 2.29975 5.62414 2.42174 6.24967C2.54374 6.87519 2.84871 7.45041 3.29801 7.9024C3.7473 8.3544 4.32069 8.66281 4.94547 8.78855C5.57025 8.91429 6.2183 8.85169 6.80747 8.60869C7.39663 8.36569 7.90038 7.95323 8.25486 7.4236C8.60933 6.89396 8.79857 6.271 8.79858 5.63369C8.79994 5.21231 8.71827 4.79479 8.55822 4.40498C8.39818 4.01517 8.1629 3.66072 7.86583 3.36186C7.56876 3.06301 7.21572 2.82561 6.82687 2.66323C6.43803 2.50086 6.02101 2.41668 5.59962 2.41552Z" fill="white"/>
</g>
<defs>
<clipPath id="clip0_52_34027">
<rect width="71.6957" height="17" fill="white"/>
</clipPath>
</defs>
</svg>
