<svg width="25" height="25" viewBox="0 0 25 25" fill="none" xmlns="http://www.w3.org/2000/svg">
<path fill-rule="evenodd" clip-rule="evenodd" d="M12.7722 0.550781C7.56134 0.550781 3.35156 4.86383 3.35156 10.1649C3.35156 13.6649 6.16134 18.1617 11.7026 23.8964C12.2874 24.5008 13.257 24.5008 13.8418 23.8964L14.3168 23.4008C19.544 17.9019 22.1929 13.5638 22.1929 10.1649C22.1929 4.86383 17.9831 0.550781 12.7722 0.550781ZM12.7722 3.52578C16.3244 3.52578 19.2179 6.48991 19.2179 10.1649L19.2157 10.2769C19.1505 12.5019 17.1646 15.8747 13.2048 20.228L12.7722 20.6986L12.757 20.6823C8.44939 16.0323 6.32656 12.4638 6.32656 10.1649C6.32656 6.48991 9.22113 3.52578 12.7722 3.52578ZM12.7722 5.01274C11.5888 5.01274 10.4539 5.48284 9.61713 6.31961C8.78036 7.15639 8.31026 8.29131 8.31026 9.47469C8.31026 10.6581 8.78036 11.793 9.61713 12.6298C10.4539 13.4666 11.5888 13.9367 12.7722 13.9367C13.9556 13.9367 15.0905 13.4666 15.9273 12.6298C16.7641 11.793 17.2342 10.6581 17.2342 9.47469C17.2342 8.29131 16.7641 7.15639 15.9273 6.31961C15.0905 5.48284 13.9556 5.01274 12.7722 5.01274ZM12.7722 7.98774C13.1667 7.98774 13.5451 8.14446 13.824 8.42342C14.103 8.70238 14.2597 9.08073 14.2597 9.47524C14.2597 9.86975 14.103 10.2481 13.824 10.5271C13.5451 10.806 13.1667 10.9627 12.7722 10.9627C12.3777 10.9627 11.9994 10.806 11.7204 10.5271C11.4414 10.2481 11.2847 9.86975 11.2847 9.47524C11.2847 9.08073 11.4414 8.70238 11.7204 8.42342C11.9994 8.14446 12.3777 7.98774 12.7722 7.98774Z" fill="#0E0E0E"/>
</svg>
