<svg width="22" height="22" viewBox="0 0 22 22" fill="none" xmlns="http://www.w3.org/2000/svg">
<path d="M19.4419 10.4884C19.4419 15.4333 15.4333 19.4419 10.4884 19.4419V20.9767C16.2809 20.9767 20.9767 16.2809 20.9767 10.4884H19.4419ZM10.4884 19.4419C5.5435 19.4419 1.53488 15.4333 1.53488 10.4884H0C0 16.2809 4.6958 20.9767 10.4884 20.9767V19.4419ZM1.53488 10.4884C1.53488 5.5435 5.5435 1.53488 10.4884 1.53488V0C4.6958 0 0 4.6958 0 10.4884H1.53488ZM10.4884 1.53488C15.4333 1.53488 19.4419 5.5435 19.4419 10.4884H20.9767C20.9767 4.6958 16.2809 0 10.4884 0V1.53488Z" fill="#93989A"/>
<path d="M20.6899 21.7752C20.9896 22.0749 21.4755 22.0749 21.7752 21.7752C22.0749 21.4755 22.0749 20.9896 21.7752 20.6899L20.6899 21.7752ZM19.7287 18.6434C19.429 18.3437 18.9431 18.3437 18.6434 18.6434C18.3437 18.9431 18.3437 19.429 18.6434 19.7287L19.7287 18.6434ZM21.7752 20.6899L19.7287 18.6434L18.6434 19.7287L20.6899 21.7752L21.7752 20.6899Z" fill="#93989A"/>
</svg>
