<svg width="41" height="41" viewBox="0 0 41 41" fill="none" xmlns="http://www.w3.org/2000/svg">
<path d="M38.4353 40.9994C38.4353 40.9994 32.3956 38.6228 27.5102 36.7201H6.96438C4.53388 36.7201 2.56078 34.6266 2.56078 32.0475V4.66881C2.56078 2.09225 4.53388 0 6.96438 0H34.0304C36.4622 0 38.434 2.09097 38.434 4.67009V28.2499L38.4353 40.9994ZM33.1323 25.6477C33.0363 25.5245 32.9158 25.4226 32.7784 25.3485C32.6411 25.2743 32.4898 25.2295 32.3341 25.2168C32.1785 25.2042 32.022 25.224 31.8744 25.275C31.7269 25.326 31.5915 25.4071 31.4769 25.5132C31.4385 25.5465 27.614 28.9482 20.4968 28.9482C13.4679 28.9482 9.5845 25.5708 9.51531 25.5093C9.40061 25.4038 9.26528 25.3233 9.11787 25.2727C8.97046 25.2222 8.81417 25.2027 8.65886 25.2156C8.50356 25.2285 8.35261 25.2734 8.21554 25.3476C8.07848 25.4217 7.95827 25.5235 7.86252 25.6464C7.65743 25.9023 7.55714 26.2265 7.58193 26.5535C7.60359 26.8789 7.74945 27.1835 7.98936 27.4043C8.1713 27.5683 12.5211 31.4402 20.4968 31.4402C28.4737 31.4402 32.8235 27.5683 33.0054 27.4043C33.2449 27.1833 33.3903 26.8787 33.4116 26.5535C33.4364 26.2271 33.3366 25.9035 33.1323 25.6477Z" fill="white"/>
</svg>
