<svg width="911" height="222" viewBox="0 0 911 222" fill="none" xmlns="http://www.w3.org/2000/svg">
<rect x="319" y="46" width="1" height="37" fill="#858597"/>
<rect x="316" y="58" width="7" height="14" fill="#D82C60"/>
<rect x="330" y="43" width="1" height="41" fill="#858597"/>
<rect x="327" y="55" width="7" height="17" fill="#37CBB0"/>
<rect x="340" y="35" width="1" height="26" fill="#858597"/>
<rect x="337" y="47" width="7" height="2" fill="#37CBB0"/>
<rect x="14" y="175" width="1" height="41" fill="#858597"/>
<rect x="11" y="187" width="7" height="17" fill="#37CBB0"/>
<rect x="35" y="159" width="1" height="41" fill="#858597"/>
<rect x="32" y="171" width="7" height="17" fill="#37CBB0"/>
<rect x="56" y="143" width="1" height="35" fill="#858597"/>
<rect x="53" y="155" width="7" height="11" fill="#37CBB0"/>
<rect x="87" y="107" width="1" height="41" fill="#858597"/>
<rect x="84" y="119" width="7" height="17" fill="#37CBB0"/>
<rect x="172" y="139" width="1" height="52" fill="#858597"/>
<rect x="169" y="151" width="7" height="28" fill="#37CBB0"/>
<rect x="193" y="104" width="1" height="41" fill="#858597"/>
<rect x="190" y="116" width="7" height="17" fill="#37CBB0"/>
<rect x="224" y="75" width="1" height="48" fill="#858597"/>
<rect x="221" y="87" width="7" height="24" fill="#37CBB0"/>
<rect x="3" y="197" width="1" height="25" fill="#858597"/>
<rect y="209" width="7" height="1" fill="#D82C60"/>
<rect x="24" y="175" width="1" height="25" fill="#858597"/>
<rect x="21" y="187" width="7" height="1" fill="#D82C60"/>
<rect x="77" y="130" width="1" height="40" fill="#858597"/>
<rect x="74" y="142" width="7" height="16" fill="#D82C60"/>
<rect x="45" y="159" width="1" height="40" fill="#858597"/>
<rect x="42" y="171" width="7" height="16" fill="#D82C60"/>
<rect x="235" y="75" width="1" height="53" fill="#858597"/>
<rect x="232" y="87" width="7" height="29" fill="#D82C60"/>
<rect x="98" y="107" width="1" height="25" fill="#858597"/>
<rect x="95" y="119" width="7" height="1" fill="#D82C60"/>
<rect x="140" y="106" width="1" height="48" fill="#858597"/>
<rect x="137" y="130" width="7" height="1" fill="#D82C60"/>
<rect x="108" y="113" width="1" height="45" fill="#858597"/>
<rect x="105" y="125" width="7" height="21" fill="#D82C60"/>
<rect x="161" y="151" width="1" height="38" fill="#858597"/>
<rect x="158" y="163" width="7" height="14" fill="#D82C60"/>
<rect x="203" y="104" width="1" height="34" fill="#858597"/>
<rect x="200" y="116" width="7" height="10" fill="#D82C60"/>
<rect x="214" y="104" width="1" height="44" fill="#858597"/>
<rect x="211" y="116" width="7" height="20" fill="#37CBB0"/>
<rect x="182" y="126" width="1" height="32" fill="#858597"/>
<rect x="179" y="138" width="7" height="8" fill="#37CBB0"/>
<rect x="151" y="125" width="1" height="45" fill="#858597"/>
<rect x="148" y="137" width="7" height="21" fill="#D82C60"/>
<rect x="130" y="118" width="1" height="41" fill="#858597"/>
<rect x="127" y="130" width="7" height="17" fill="#37CBB0"/>
<rect x="119" y="125" width="1" height="34" fill="#858597"/>
<rect x="116" y="137" width="7" height="10" fill="#37CBB0"/>
<rect x="66" y="130" width="1" height="32" fill="#858597"/>
<rect x="63" y="142" width="7" height="8" fill="#37CBB0"/>
<rect x="246" y="69" width="1" height="60" fill="#858597"/>
<rect x="243" y="81" width="7" height="36" fill="#37CBB0"/>
<rect x="309" y="46" width="1" height="79" fill="#858597"/>
<rect x="306" y="58" width="7" height="56" fill="#37CBB0"/>
<rect x="298" y="19" width="1" height="53" fill="#858597"/>
<rect x="295" y="31" width="7" height="29" fill="#D82C60"/>
<rect x="288" y="19" width="1" height="63" fill="#858597"/>
<rect x="285" y="31" width="7" height="39" fill="#37CBB0"/>
<rect x="277" y="38" width="1" height="44" fill="#858597"/>
<rect x="274" y="50" width="7" height="20" fill="#D82C60"/>
<rect x="267" y="24" width="1" height="33" fill="#858597"/>
<rect x="264" y="36" width="7" height="9" fill="#D82C60"/>
<rect x="256" y="24" width="1" height="63" fill="#858597"/>
<rect x="253" y="36" width="7" height="39" fill="#37CBB0"/>
<rect x="594" y="110" width="1" height="37" transform="rotate(-180 594 110)" fill="#858597"/>
<rect x="597" y="98" width="7" height="14" transform="rotate(-180 597 98)" fill="#D82C60"/>
<rect x="583" y="114" width="1" height="41" transform="rotate(-180 583 114)" fill="#858597"/>
<rect x="586" y="102" width="7" height="17" transform="rotate(-180 586 102)" fill="#37CBB0"/>
<rect x="572" y="122" width="1" height="26" transform="rotate(-180 572 122)" fill="#858597"/>
<rect x="575" y="110" width="7" height="2" transform="rotate(-180 575 110)" fill="#37CBB0"/>
<rect width="1" height="41" transform="matrix(1 0 0 -1 361 71)" fill="#858597"/>
<rect width="7" height="17" transform="matrix(1 0 0 -1 358 59)" fill="#37CBB0"/>
<rect width="1" height="41" transform="matrix(1 0 0 -1 383 87)" fill="#858597"/>
<rect width="7" height="17" transform="matrix(1 0 0 -1 380 75)" fill="#37CBB0"/>
<rect width="1" height="35" transform="matrix(1 0 0 -1 406 103)" fill="#858597"/>
<rect width="7" height="11" transform="matrix(1 0 0 -1 403 91)" fill="#37CBB0"/>
<rect width="1" height="41" transform="matrix(1 0 0 -1 439 139)" fill="#858597"/>
<rect width="7" height="17" transform="matrix(1 0 0 -1 436 127)" fill="#37CBB0"/>
<rect width="1" height="52" transform="matrix(1 0 0 -1 528 107)" fill="#858597"/>
<rect width="7" height="28" transform="matrix(1 0 0 -1 525 95)" fill="#37CBB0"/>
<rect width="1" height="41" transform="matrix(1 0 0 -1 550 142)" fill="#858597"/>
<rect width="7" height="17" transform="matrix(1 0 0 -1 547 130)" fill="#37CBB0"/>
<rect x="694" y="65" width="1" height="48" transform="rotate(-180 694 65)" fill="#858597"/>
<rect x="697" y="53" width="7" height="24" transform="rotate(-180 697 53)" fill="#37CBB0"/>
<rect width="1" height="25" transform="matrix(1 0 0 -1 350 49)" fill="#858597"/>
<rect width="7" height="1" transform="matrix(1 0 0 -1 347 37)" fill="#D82C60"/>
<rect width="1" height="25" transform="matrix(1 0 0 -1 372 71)" fill="#858597"/>
<rect width="7" height="1" transform="matrix(1 0 0 -1 369 59)" fill="#D82C60"/>
<rect width="1" height="40" transform="matrix(1 0 0 -1 428 117)" fill="#858597"/>
<rect width="7" height="16" transform="matrix(1 0 0 -1 425 105)" fill="#D82C60"/>
<rect width="1" height="40" transform="matrix(1 0 0 -1 394 87)" fill="#858597"/>
<rect width="7" height="16" transform="matrix(1 0 0 -1 391 75)" fill="#D82C60"/>
<rect x="683" y="53" width="1" height="53" transform="rotate(-180 683 53)" fill="#858597"/>
<rect x="686" y="41" width="7" height="29" transform="rotate(-180 686 41)" fill="#D82C60"/>
<rect width="1" height="25" transform="matrix(1 0 0 -1 450 139)" fill="#858597"/>
<rect width="7" height="1" transform="matrix(1 0 0 -1 447 127)" fill="#D82C60"/>
<rect width="1" height="48" transform="matrix(1 0 0 -1 494 140)" fill="#858597"/>
<rect width="7" height="1" transform="matrix(1 0 0 -1 491 116)" fill="#D82C60"/>
<rect width="1" height="45" transform="matrix(1 0 0 -1 461 133)" fill="#858597"/>
<rect width="7" height="21" transform="matrix(1 0 0 -1 458 121)" fill="#D82C60"/>
<rect width="1" height="39" transform="matrix(1 0 0 -1 517 95)" fill="#858597"/>
<rect width="7" height="15" transform="matrix(1 0 0 -1 514 83)" fill="#D82C60"/>
<rect width="1" height="34" transform="matrix(1 0 0 -1 561 142)" fill="#858597"/>
<rect width="7" height="10" transform="matrix(1 0 0 -1 558 130)" fill="#D82C60"/>
<rect width="1" height="44" transform="matrix(1 0 0 -1 575 142)" fill="#858597"/>
<rect width="7" height="20" transform="matrix(1 0 0 -1 572 130)" fill="#37CBB0"/>
<rect width="1" height="32" transform="matrix(1 0 0 -1 539 120)" fill="#858597"/>
<rect width="7" height="8" transform="matrix(1 0 0 -1 536 108)" fill="#37CBB0"/>
<rect width="1" height="45" transform="matrix(1 0 0 -1 506 122)" fill="#858597"/>
<rect width="7" height="21" transform="matrix(1 0 0 -1 503 110)" fill="#D82C60"/>
<rect width="1" height="41" transform="matrix(1 0 0 -1 483 128)" fill="#858597"/>
<rect width="7" height="17" transform="matrix(1 0 0 -1 480 116)" fill="#37CBB0"/>
<rect width="1" height="34" transform="matrix(1 0 0 -1 472 122)" fill="#858597"/>
<rect width="7" height="10" transform="matrix(1 0 0 -1 469 110)" fill="#37CBB0"/>
<rect width="1" height="32" transform="matrix(1 0 0 -1 417 117)" fill="#858597"/>
<rect width="7" height="8" transform="matrix(1 0 0 -1 414 105)" fill="#37CBB0"/>
<rect x="672" y="60" width="1" height="60" transform="rotate(-180 672 60)" fill="#858597"/>
<rect x="675" y="48" width="7" height="36" transform="rotate(-180 675 48)" fill="#37CBB0"/>
<rect x="605" y="110" width="1" height="80" transform="rotate(-180 605 110)" fill="#858597"/>
<rect x="608" y="98" width="7" height="57" transform="rotate(-180 608 98)" fill="#37CBB0"/>
<rect x="616" y="84" width="1" height="53" transform="rotate(-180 616 84)" fill="#858597"/>
<rect x="619" y="72" width="7" height="29" transform="rotate(-180 619 72)" fill="#D82C60"/>
<rect x="627" y="84" width="1" height="63" transform="rotate(-180 627 84)" fill="#858597"/>
<rect x="630" y="72" width="7" height="39" transform="rotate(-180 630 72)" fill="#37CBB0"/>
<rect x="638" y="65" width="1" height="44" transform="rotate(-180 638 65)" fill="#858597"/>
<rect x="641" y="53" width="7" height="20" transform="rotate(-180 641 53)" fill="#D82C60"/>
<rect x="650" y="79" width="1" height="33" transform="rotate(-180 650 79)" fill="#858597"/>
<rect x="653" y="67" width="7" height="9" transform="rotate(-180 653 67)" fill="#D82C60"/>
<rect x="661" y="79" width="1" height="63" transform="rotate(-180 661 79)" fill="#858597"/>
<rect x="664" y="67" width="7" height="39" transform="rotate(-180 664 67)" fill="#37CBB0"/>
<rect width="1" height="37" transform="matrix(-1 0 0 1 863 83)" fill="#858597"/>
<rect width="7" height="14" transform="matrix(-1 0 0 1 866 95)" fill="#D82C60"/>
<rect width="1" height="41" transform="matrix(-1 0 0 1 851 79)" fill="#858597"/>
<rect width="7" height="17" transform="matrix(-1 0 0 1 854 91)" fill="#37CBB0"/>
<rect width="1" height="26" transform="matrix(-1 0 0 1 840 71)" fill="#858597"/>
<rect width="7" height="2" transform="matrix(-1 0 0 1 843 83)" fill="#37CBB0"/>
<rect x="704" y="54" width="1" height="41" fill="#858597"/>
<rect x="701" y="66" width="7" height="17" fill="#37CBB0"/>
<rect x="795" y="86" width="1" height="51" fill="#858597"/>
<rect x="792" y="98" width="7" height="27" fill="#37CBB0"/>
<rect x="817" y="51" width="1" height="41" fill="#858597"/>
<rect x="814" y="63" width="7" height="17" fill="#37CBB0"/>
<rect x="715" y="54" width="1" height="25" fill="#858597"/>
<rect x="712" y="66" width="7" height="1" fill="#D82C60"/>
<rect x="761" y="53" width="1" height="48" fill="#858597"/>
<rect x="758" y="77" width="7" height="1" fill="#D82C60"/>
<rect x="727" y="60" width="1" height="45" fill="#858597"/>
<rect x="724" y="72" width="7" height="21" fill="#D82C60"/>
<rect x="783" y="98" width="1" height="38" fill="#858597"/>
<rect x="780" y="110" width="7" height="14" fill="#D82C60"/>
<rect x="829" y="51" width="1" height="34" fill="#858597"/>
<rect x="826" y="63" width="7" height="10" fill="#D82C60"/>
<rect x="843" y="51" width="1" height="44" fill="#858597"/>
<rect x="840" y="63" width="7" height="20" fill="#37CBB0"/>
<rect x="806" y="73" width="1" height="32" fill="#858597"/>
<rect x="803" y="85" width="7" height="8" fill="#37CBB0"/>
<rect x="772" y="71" width="1" height="45" fill="#858597"/>
<rect x="769" y="83" width="7" height="21" fill="#D82C60"/>
<rect x="749" y="65" width="1" height="41" fill="#858597"/>
<rect x="746" y="77" width="7" height="17" fill="#37CBB0"/>
<rect x="738" y="71" width="1" height="34" fill="#858597"/>
<rect x="735" y="83" width="7" height="10" fill="#37CBB0"/>
<rect width="1" height="79" transform="matrix(-1 0 0 1 874 83)" fill="#858597"/>
<rect width="7" height="56" transform="matrix(-1 0 0 1 877 95)" fill="#37CBB0"/>
<rect width="1" height="53" transform="matrix(-1 0 0 1 885 109)" fill="#858597"/>
<rect width="7" height="29" transform="matrix(-1 0 0 1 888 121)" fill="#D82C60"/>
<rect width="1" height="62" transform="matrix(-1 0 0 1 897 109)" fill="#858597"/>
<rect width="7" height="38" transform="matrix(-1 0 0 1 900 121)" fill="#37CBB0"/>
<rect width="1" height="44" transform="matrix(-1 0 0 1 908 99)" fill="#858597"/>
<rect width="7" height="20" transform="matrix(-1 0 0 1 911 111)" fill="#D82C60"/>
</svg>
