<svg width="32" height="32" viewBox="0 0 32 32" fill="none" xmlns="http://www.w3.org/2000/svg">
<path d="M15.7343 25.5731C16.5002 25.5731 17.121 24.9523 17.121 24.1865C17.121 23.4206 16.5002 22.7998 15.7343 22.7998C14.9685 22.7998 14.3477 23.4206 14.3477 24.1865C14.3477 24.9523 14.9685 25.5731 15.7343 25.5731Z" fill="#FF9F24"/>
<path d="M20.0131 20.5602C18.9865 19.3335 17.4665 18.5469 15.7331 18.5469C13.9998 18.5469 12.4798 19.3335 11.4531 20.5602" stroke="#FF9F24" stroke-width="1.2" stroke-miterlimit="10" stroke-linecap="round" stroke-linejoin="round"/>
<path d="M23.2808 16.2664C21.4675 14.1331 18.7608 12.7598 15.7342 12.7598C12.7075 12.7598 10.0008 14.1198 8.1875 16.2664" stroke="#FF9F24" stroke-width="1.2" stroke-miterlimit="10" stroke-linecap="round" stroke-linejoin="round"/>
<path d="M26.6674 12.5468C24.0408 9.44013 20.1208 7.4668 15.7341 7.4668C11.3474 7.4668 7.42745 9.44013 4.80078 12.5468" stroke="#FF9F24" stroke-width="1.2" stroke-miterlimit="10" stroke-linecap="round" stroke-linejoin="round"/>
</svg>
