<svg width="14" height="14" viewBox="0 0 14 14" fill="none" xmlns="http://www.w3.org/2000/svg">
<path fill-rule="evenodd" clip-rule="evenodd" d="M10.6051 0.655215C11.8931 0.798327 12.9099 1.8151 13.053 3.10311L13.3418 5.70173C13.4347 6.53832 13.1424 7.3718 12.5472 7.96699L8.3904 12.1238C7.30832 13.2058 5.55393 13.2058 4.47185 12.1237L1.5845 9.2364C0.502419 8.15432 0.502419 6.39993 1.5845 5.31785L5.74125 1.16109C6.33645 0.565895 7.16993 0.273526 8.00652 0.36648L10.6051 0.655215ZM12.1834 3.19974C12.0855 2.31847 11.3898 1.62278 10.5085 1.52486L7.90989 1.23613C7.33749 1.17253 6.76721 1.37257 6.35997 1.77981L2.20321 5.93657C1.46285 6.67694 1.46285 7.87731 2.20321 8.61768L5.09057 11.505C5.83094 12.2454 7.03131 12.2454 7.77168 11.505L11.9284 7.34827C12.3357 6.94104 12.5357 6.37076 12.4721 5.79836L12.1834 3.19974Z" fill="#B0B0B0"/>
<path fill-rule="evenodd" clip-rule="evenodd" d="M9.86991 3.83879C9.69905 3.66793 9.42204 3.66793 9.25119 3.83879C9.08033 4.00964 9.08033 4.28665 9.25119 4.45751C9.42204 4.62836 9.69905 4.62836 9.86991 4.45751C10.0408 4.28665 10.0408 4.00964 9.86991 3.83879ZM8.63247 3.22007C9.14503 2.70751 9.97606 2.70751 10.4886 3.22007C11.0012 3.73263 11.0012 4.56366 10.4886 5.07623C9.97606 5.58879 9.14503 5.58879 8.63247 5.07623C8.11991 4.56366 8.11991 3.73263 8.63247 3.22007Z" fill="#B0B0B0"/>
</svg>
