<svg width="162" height="21" viewBox="0 0 162 21" fill="none" xmlns="http://www.w3.org/2000/svg">
<path fill-rule="evenodd" clip-rule="evenodd" d="M8.8 12.4786V6.86837H18.3333C19.3055 6.86949 20.2374 7.26187 20.9248 7.95944C21.6122 8.65701 21.9989 9.60279 22 10.5893V19.5195H20.5333V17.4537L1.46667 17.2989V19.5195H0V3.51953H1.46667V6.49628H3.76883C4.83353 6.49749 5.85427 6.92725 6.60712 7.69126C7.35997 8.45526 7.78343 9.49112 7.78461 10.5716V12.4786H8.8ZM5.57048 8.74317C5.09259 8.25821 4.44466 7.98542 3.76883 7.98465H1.46667V12.4785H6.31794V10.5715C6.31718 9.88565 6.04837 9.22813 5.57048 8.74317ZM1.46667 15.8105V13.9669H20.5333V15.9653L1.46667 15.8105ZM10.2667 8.35674V12.4786H20.5333V10.5893C20.5327 9.9974 20.3007 9.42993 19.8882 9.01139C19.4758 8.59285 18.9166 8.35742 18.3333 8.35674H10.2667Z" fill="#BABBC3"/>
<path fill-rule="evenodd" clip-rule="evenodd" d="M108.977 20.5137C108.424 20.5137 107.977 20.066 107.977 19.5137C107.977 18.9614 108.424 18.5137 108.977 18.5137C109.529 18.5137 109.977 18.9614 109.977 19.5137C109.977 20.066 109.529 20.5137 108.977 20.5137Z" fill="#BABBC3"/>
<path fill-rule="evenodd" clip-rule="evenodd" d="M102.507 12.2637C103.346 11.3947 104.351 10.7033 105.462 10.2309C106.574 9.75842 107.769 9.51453 108.977 9.51374C110.192 9.50915 111.394 9.75042 112.513 10.223C113.632 10.6956 114.644 11.3898 115.487 12.2637C115.622 12.4052 115.712 12.583 115.747 12.7753C115.782 12.9676 115.76 13.1659 115.683 13.3457C115.607 13.5255 115.479 13.6789 115.316 13.7869C115.153 13.895 114.962 13.953 114.767 13.9537C114.635 13.9532 114.504 13.9264 114.382 13.8749C114.26 13.8234 114.15 13.7482 114.057 13.6537C113.404 12.9763 112.621 12.4374 111.755 12.0693C110.889 11.7013 109.958 11.5116 109.017 11.5116C108.076 11.5116 107.145 11.7013 106.279 12.0693C105.413 12.4374 104.63 12.9763 103.977 13.6537C103.886 13.7503 103.776 13.8279 103.655 13.8821C103.534 13.9364 103.403 13.9662 103.27 13.9699C103.002 13.9774 102.742 13.8781 102.547 13.6937C102.451 13.6025 102.373 13.4931 102.319 13.3718C102.264 13.2506 102.235 13.1198 102.231 12.987C102.227 12.8542 102.25 12.722 102.297 12.5979C102.344 12.4738 102.416 12.3603 102.507 12.2637ZM105.201 16.6161C105.206 16.3507 105.316 16.0981 105.507 15.9137C106.439 15.0155 107.683 14.5137 108.977 14.5137C110.271 14.5137 111.515 15.0155 112.447 15.9137C112.638 16.0981 112.748 16.3507 112.753 16.6161C112.757 16.8814 112.656 17.1378 112.472 17.3287C112.288 17.5197 112.035 17.6296 111.77 17.6343C111.504 17.639 111.248 17.5381 111.057 17.3537C110.489 16.8337 109.747 16.5453 108.977 16.5453C108.207 16.5453 107.465 16.8337 106.897 17.3537C106.706 17.5381 106.45 17.639 106.184 17.6343C105.919 17.6296 105.666 17.5197 105.482 17.3287C105.298 17.1378 105.197 16.8814 105.201 16.6161Z" fill="#BABBC3"/>
<path d="M108.976 4.51953C105.351 4.51953 101.866 5.92631 99.2565 8.44374C99.0877 8.63139 98.9961 8.87592 99.0001 9.12827C99.0041 9.38061 99.1034 9.62212 99.278 9.80433C99.4526 9.98655 99.6897 10.096 99.9416 10.1107C100.194 10.1254 100.442 10.0444 100.636 9.88374C102.874 7.72086 105.864 6.51186 108.976 6.51186C112.089 6.51186 115.079 7.72086 117.316 9.88374C117.502 10.0624 117.749 10.1627 118.006 10.1637C118.141 10.1632 118.274 10.1355 118.398 10.0822C118.522 10.029 118.634 9.95124 118.726 9.85374C118.909 9.66244 119.008 9.40675 119.002 9.14255C118.997 8.87835 118.887 8.62711 118.696 8.44374C116.087 5.92631 112.602 4.51953 108.976 4.51953Z" fill="#BABBC3"/>
<path fill-rule="evenodd" clip-rule="evenodd" d="M146.705 1.81242C146.514 1.99995 146.407 2.25429 146.407 2.5195V5.18608C146.407 5.45129 146.514 5.70563 146.705 5.89316C146.895 6.08069 147.154 6.18605 147.424 6.18605C147.693 6.18605 147.952 6.08069 148.143 5.89316C148.334 5.70563 148.441 5.45129 148.441 5.18608V2.5195C148.441 2.25429 148.334 1.99995 148.143 1.81242C147.952 1.62488 147.693 1.51953 147.424 1.51953C147.154 1.51953 146.895 1.62488 146.705 1.81242ZM151.492 5.18608C151.492 5.45129 151.384 5.70563 151.194 5.89316C151.003 6.08069 150.744 6.18605 150.475 6.18605C150.205 6.18605 149.946 6.08069 149.755 5.89316C149.565 5.70563 149.458 5.45129 149.458 5.18608V2.5195C149.458 2.25429 149.565 1.99995 149.755 1.81242C149.946 1.62488 150.205 1.51953 150.475 1.51953C150.744 1.51953 151.003 1.62488 151.194 1.81242C151.384 1.99995 151.492 2.25429 151.492 2.5195V5.18608ZM154.245 5.89316C154.435 5.70563 154.542 5.45129 154.542 5.18608V2.5195C154.542 2.25429 154.435 1.99995 154.245 1.81242C154.054 1.62488 153.795 1.51953 153.525 1.51953C153.256 1.51953 152.997 1.62488 152.806 1.81242C152.616 1.99995 152.508 2.25429 152.508 2.5195V5.18608C152.508 5.45129 152.616 5.70563 152.806 5.89316C152.997 6.08069 153.256 6.18605 153.525 6.18605C153.795 6.18605 154.054 6.08069 154.245 5.89316ZM160.944 13.7395C161.62 13.0556 161.999 12.1397 162 11.1859V10.5192C161.999 9.54715 161.606 8.61519 160.907 7.92782C160.208 7.24044 159.26 6.85379 158.271 6.85269H143.017C142.747 6.85269 142.489 6.95804 142.298 7.14558C142.107 7.33311 142 7.58745 142 7.85266V11.8525C142.003 13.9543 142.812 15.9776 144.265 17.519H143.017C142.747 17.519 142.489 17.6244 142.298 17.8119C142.107 17.9994 142 18.2538 142 18.519C142 18.7842 142.107 19.0385 142.298 19.2261C142.489 19.4136 142.747 19.5189 143.017 19.5189H153.569L153.577 19.5192L153.586 19.5195L153.59 19.5193L153.591 19.5192L153.597 19.5189H157.932C158.202 19.5189 158.461 19.4136 158.651 19.2261C158.842 19.0385 158.949 18.7842 158.949 18.519C158.949 18.2538 158.842 17.9994 158.651 17.8119C158.461 17.6244 158.202 17.519 157.932 17.519H156.684C157.415 16.7422 157.989 15.8365 158.378 14.8498C159.347 14.8216 160.268 14.4234 160.944 13.7395ZM155.425 15.8998C155.994 15.2255 156.416 14.4428 156.663 13.6007L156.664 13.5947C156.669 13.5777 156.673 13.5608 156.679 13.5443C156.835 12.9936 156.915 12.4244 156.915 11.8525V8.85263H144.034V11.8525C144.036 13.0286 144.37 14.1809 144.999 15.1813C145.628 16.1817 146.527 16.991 147.595 17.519H153.354C154.15 17.1253 154.855 16.574 155.425 15.8998ZM158.949 8.99279C159.251 9.12261 159.508 9.3361 159.689 9.60717C159.869 9.87825 159.966 10.1952 159.966 10.5192V11.1859C159.966 11.5186 159.864 11.8436 159.674 12.1191C159.484 12.3946 159.215 12.608 158.901 12.7318C158.933 12.4398 158.949 12.1463 158.949 11.8525V8.99279Z" fill="#BABBC3"/>
<path fill-rule="evenodd" clip-rule="evenodd" d="M54.5 13.5195H55.5V19.5195C55.5 20.1195 55.9 20.5195 56.5 20.5195C57.1 20.5195 57.5 20.1195 57.5 19.5195V4.51953C55.8 4.51953 54.5 5.81953 54.5 7.51953V13.5195ZM52 7.51953V10.0195H51V7.51953C51 7.21953 50.8 7.01953 50.5 7.01953C50.2 7.01953 50 7.31953 50 7.51953V10.0195H49V7.51953C49 7.21953 48.8 7.01953 48.5 7.01953C48.2 7.01953 48 7.31953 48 7.51953V10.8195C48 11.7195 48.7 12.4195 49.5 12.5195V19.5195C49.5 20.1195 49.9 20.5195 50.5 20.5195C51.1 20.5195 51.5 20.1195 51.5 19.5195V12.5195C52.3 12.4195 53 11.7195 53 10.8195V7.51953C53 7.31953 52.8 7.01953 52.5 7.01953C52.2 7.01953 52 7.31953 52 7.51953ZM60.5 12.8195C59.5 12.1195 58.9 11.0195 59 9.81953C59 8.01953 60.1 6.51953 61.5 6.51953C62.9 6.51953 64 8.01953 64 9.81953C64.1 11.0195 63.5 12.1195 62.5 12.8195V19.5195C62.5 20.1195 62.1 20.5195 61.5 20.5195C60.9 20.5195 60.5 20.1195 60.5 19.5195V12.8195Z" fill="#BABBC3"/>
<path d="M31.7598 0.720703C31.5723 0.720703 31.3965 0.755859 31.2324 0.826172C31.0723 0.896484 30.9316 0.992187 30.8105 1.11328C30.6895 1.23438 30.5938 1.37695 30.5234 1.54102C30.4531 1.70117 30.418 1.875 30.418 2.0625V2.40234L29.6621 2.2793V2.0625C29.6621 1.77734 29.7148 1.50977 29.8203 1.25977C29.9297 1.00977 30.0781 0.791016 30.2656 0.603516C30.4531 0.416016 30.6719 0.269531 30.9219 0.164062C31.1719 0.0546875 31.4395 0 31.7246 0H32.082C32.3672 0 32.6348 0.0507812 32.8848 0.152344C33.1387 0.253906 33.3594 0.400391 33.5469 0.591797C33.7344 0.783203 33.8809 1.01367 33.9863 1.2832C34.0957 1.54883 34.1504 1.84961 34.1504 2.18555C34.1504 2.51758 34.0996 2.85156 33.998 3.1875C33.9004 3.52344 33.7695 3.85352 33.6055 4.17773C33.4453 4.50195 33.2598 4.81641 33.0488 5.12109C32.8418 5.42578 32.6289 5.71289 32.4102 5.98242C31.8984 6.61133 31.3184 7.2168 30.6699 7.79883H34.209V8.51953H29.4805V7.92188C30.2109 7.32031 30.8633 6.69727 31.4375 6.05273C31.6836 5.77539 31.9238 5.48047 32.1582 5.16797C32.3926 4.85547 32.6016 4.53516 32.7852 4.20703C32.9688 3.875 33.1152 3.53906 33.2246 3.19922C33.3379 2.85547 33.3945 2.51758 33.3945 2.18555C33.3945 1.93945 33.3574 1.72461 33.2832 1.54102C33.209 1.35742 33.1094 1.20508 32.9844 1.08398C32.8594 0.962891 32.7148 0.873047 32.5508 0.814453C32.3906 0.751953 32.2227 0.720703 32.0469 0.720703H31.7598Z" fill="#BABBC3"/>
<path d="M77.7598 0.720703C77.5723 0.720703 77.3965 0.755859 77.2324 0.826172C77.0723 0.896484 76.9316 0.992187 76.8105 1.11328C76.6895 1.23438 76.5938 1.37695 76.5234 1.54102C76.4531 1.70117 76.418 1.875 76.418 2.0625V2.40234L75.6621 2.2793V2.0625C75.6621 1.77734 75.7148 1.50977 75.8203 1.25977C75.9297 1.00977 76.0781 0.791016 76.2656 0.603516C76.4531 0.416016 76.6719 0.269531 76.9219 0.164062C77.1719 0.0546875 77.4395 0 77.7246 0H78.082C78.3672 0 78.6348 0.0507812 78.8848 0.152344C79.1387 0.253906 79.3594 0.400391 79.5469 0.591797C79.7344 0.783203 79.8809 1.01367 79.9863 1.2832C80.0957 1.54883 80.1504 1.84961 80.1504 2.18555C80.1504 2.51758 80.0996 2.85156 79.998 3.1875C79.9004 3.52344 79.7695 3.85352 79.6055 4.17773C79.4453 4.50195 79.2598 4.81641 79.0488 5.12109C78.8418 5.42578 78.6289 5.71289 78.4102 5.98242C77.8984 6.61133 77.3184 7.2168 76.6699 7.79883H80.209V8.51953H75.4805V7.92188C76.2109 7.32031 76.8633 6.69727 77.4375 6.05273C77.6836 5.77539 77.9238 5.48047 78.1582 5.16797C78.3926 4.85547 78.6016 4.53516 78.7852 4.20703C78.9688 3.875 79.1152 3.53906 79.2246 3.19922C79.3379 2.85547 79.3945 2.51758 79.3945 2.18555C79.3945 1.93945 79.3574 1.72461 79.2832 1.54102C79.209 1.35742 79.1094 1.20508 78.9844 1.08398C78.8594 0.962891 78.7148 0.873047 78.5508 0.814453C78.3906 0.751953 78.2227 0.720703 78.0469 0.720703H77.7598Z" fill="#BABBC3"/>
</svg>
