<svg width="24" height="24" viewBox="0 0 24 24" fill="none" xmlns="http://www.w3.org/2000/svg">
<path fill-rule="evenodd" clip-rule="evenodd" d="M11.5 8C10.673 8 10 7.327 10 6.5C10 5.673 10.673 5 11.5 5C12.327 5 13 5.673 13 6.5C13 7.327 12.327 8 11.5 8ZM10 11.5C10 12.327 10.673 13 11.5 13C12.327 13 13 12.327 13 11.5C13 10.673 12.327 10 11.5 10C10.673 10 10 10.673 10 11.5ZM10 16.5C10 17.327 10.673 18 11.5 18C12.327 18 13 17.327 13 16.5C13 15.673 12.327 15 11.5 15C10.673 15 10 15.673 10 16.5Z" fill="#ADB8D4"/>
</svg>
