<svg width="30" height="30" viewBox="0 0 30 30" fill="none" xmlns="http://www.w3.org/2000/svg">
<g clip-path="url(#clip0_52_47505)">
<path d="M24 4.21875C24 4.21875 27.1875 18.5625 24.0938 20.8125C21 23.0625 18.1875 24.75 18.1875 24.75L14.9062 23.0625L14.5312 17.25L24 4.21875Z" fill="#422F28"/>
<path d="M20.3438 8.625C22.829 8.625 24.8438 6.69423 24.8438 4.3125C24.8438 1.93077 22.829 0 20.3438 0C17.8585 0 15.8438 1.93077 15.8438 4.3125C15.8438 6.69423 17.8585 8.625 20.3438 8.625Z" fill="#422F28"/>
<path d="M18.75 10.125C21.2353 10.125 23.25 8.19423 23.25 5.8125C23.25 3.43077 21.2353 1.5 18.75 1.5C16.2647 1.5 14.25 3.43077 14.25 5.8125C14.25 8.19423 16.2647 10.125 18.75 10.125Z" fill="#893E27"/>
<path d="M19.7809 18.5625C21.6559 19.2188 23.3434 20.7188 23.9059 22.875C24.4684 25.125 23.7184 27.75 21.9371 29.0625C20.8121 29.9063 19.4996 30.0937 18.0934 30.0937C14.9059 30.0937 11.8121 29.0625 8.62462 27.9375C7.59337 27.5625 6.46837 27.1875 5.62462 26.5312C4.68712 25.875 3.93712 24.8438 3.74962 23.5313C3.56212 21.8438 4.59337 20.0625 5.90587 19.2188C8.24962 17.7188 10.5934 17.1562 13.0309 17.1562C15.2809 17.1562 17.8121 17.9062 19.7809 18.5625Z" fill="#A53829"/>
<path d="M20.0621 17.4375C21.9371 18.0938 23.6246 19.5938 24.1871 21.75C24.7496 24 23.9996 26.625 22.2184 27.9375C21.0934 28.7813 19.7809 28.9687 18.3746 28.9687C15.1871 28.9687 12.0934 27.9375 8.90587 26.8125C7.87462 26.4375 6.74962 26.0625 5.90587 25.4062C4.96837 24.75 4.21837 23.7188 4.03087 22.4063C3.84337 20.7188 4.87462 18.9375 6.18712 18.0938C8.53087 16.5938 10.8746 16.0312 13.3121 16.0312C15.5621 16.0312 18.0934 16.7812 20.0621 17.4375Z" fill="#D3624F"/>
<path d="M19.688 16.125C21.4692 16.7813 23.063 18.2812 23.6255 20.4375C24.188 22.6875 23.438 25.3125 21.8442 26.625C20.813 27.4688 19.5005 27.6562 18.2817 27.6562C15.2817 27.6562 12.3755 26.625 9.37545 25.5C8.3442 25.125 7.4067 24.75 6.4692 24.0938C5.62545 23.4375 4.87545 22.4062 4.68795 21.0938C4.50045 19.4062 5.43795 17.625 6.75045 16.7812C8.9067 15.2812 11.1567 14.7188 13.5005 14.7188C15.4692 14.7188 17.813 15.4688 19.688 16.125Z" fill="#E5A98C"/>
<path d="M21.0713 23.6855C21.6943 21.7648 21.1213 19.8581 19.7916 19.4268C18.4618 18.9955 16.8788 20.203 16.2559 22.1237C15.6329 24.0445 16.2059 25.9512 17.5357 26.3825C18.8654 26.8137 20.4484 25.6063 21.0713 23.6855Z" fill="#F7BFA9"/>
<path d="M23.1515 10.3244C23.1698 5.25028 19.0714 1.12199 13.9972 1.1036C8.92313 1.08522 4.79484 5.1837 4.77645 10.2578C4.75807 15.3319 8.85655 19.4602 13.9307 19.4786C19.0048 19.497 23.1331 15.3985 23.1515 10.3244Z" fill="#A67A65"/>
<path d="M22.751 9.62509C22.7688 4.7063 18.7958 0.704392 13.877 0.686569C8.95826 0.668745 4.95634 4.64176 4.93852 9.56055C4.9207 14.4793 8.89371 18.4812 13.8125 18.4991C18.7313 18.5169 22.7332 14.5439 22.751 9.62509Z" fill="#E5A98C"/>
<path d="M22.736 9.3925C22.7531 4.68082 19.0313 0.847712 14.4232 0.831015C9.81503 0.814317 6.06556 4.62035 6.04849 9.33203C6.03142 14.0437 9.7532 17.8768 14.3613 17.8935C18.9695 17.9102 22.7189 14.1042 22.736 9.3925Z" fill="#E5A98C"/>
<path d="M18.1448 10.5227C18.1574 7.05364 15.4393 4.23154 12.0738 4.21935C8.70836 4.20715 5.9699 7.00948 5.95733 10.4785C5.94476 13.9476 8.66284 16.7697 12.0283 16.7818C15.3938 16.794 18.1323 13.9917 18.1448 10.5227Z" fill="#F7BFA9"/>
<path d="M15.0044 11.1663C15.0062 10.6485 14.63 10.2274 14.164 10.2257C13.698 10.224 13.3187 10.6424 13.3169 11.1602C13.315 11.6779 13.6912 12.099 14.1572 12.1007C14.6232 12.1024 15.0025 11.684 15.0044 11.1663Z" fill="#425763"/>
<path d="M14.4444 10.8549C14.4449 10.6995 14.3615 10.5733 14.2579 10.5729C14.1543 10.5726 14.0699 10.6982 14.0694 10.8535C14.0688 11.0088 14.1523 11.1351 14.2559 11.1354C14.3594 11.1358 14.4438 11.0102 14.4444 10.8549Z" fill="white"/>
<path d="M8.37156 9.79908C8.37344 9.28132 7.9972 8.86021 7.53121 8.85853C7.06522 8.85684 6.68594 9.2752 6.68406 9.79297C6.68218 10.3107 7.05842 10.7318 7.52441 10.7335C7.9904 10.7352 8.36969 10.3169 8.37156 9.79908Z" fill="#425763"/>
<path d="M7.81254 9.39394C7.81311 9.23861 7.72961 9.11238 7.62606 9.11201C7.52251 9.11163 7.43811 9.23725 7.43754 9.39258C7.43698 9.54791 7.52047 9.67413 7.62402 9.67451C7.72758 9.67488 7.81198 9.54927 7.81254 9.39394Z" fill="white"/>
<path d="M12.2813 15.375C12.2813 15.375 11.4375 15.2812 10.875 14.8125C10.3125 14.3437 9.75 14.4375 9.5625 14.4375C9.46875 14.4375 9.28125 14.25 9.09375 14.1562C8.90625 14.0625 8.625 14.0625 8.625 14.1562C8.625 14.25 8.90625 14.7187 8.90625 14.7187C8.90625 14.7187 9 15.0937 8.90625 15.2812C8.8125 15.4687 8.90625 16.125 9.5625 16.2187C10.2188 16.4062 10.6875 16.3125 10.9688 16.125C11.1562 16.0313 12.2813 15.375 12.2813 15.375Z" fill="#A67A65"/>
<path d="M8.4375 3.93659C8.4375 3.93659 8.625 6.65534 12.1875 6.93659C15.8438 7.21784 22.2188 8.81159 22.875 10.8741C22.875 10.8741 24.375 5.99909 19.9687 2.71784C15.5625 -0.563411 9 -0.375911 8.4375 3.93659Z" fill="#422F28"/>
<path d="M10.3126 3.46878L9.65632 2.81253C9.56257 2.71878 7.96882 1.31253 6.56257 1.96878C5.15632 2.62503 3.84382 7.31253 9.46882 6.56253H10.8751C10.8751 6.56253 10.8751 3.84378 10.3126 3.46878ZM18.6563 13.6875C18.6563 13.6875 19.3126 12.5625 20.8126 12.5625C22.3126 12.5625 23.5313 11.3438 22.9688 8.62503C22.4063 5.90628 19.2188 5.62503 19.2188 5.62503L19.6876 9.28128L18.6563 13.6875Z" fill="#422F28"/>
<path d="M20.0625 13.875C20.8392 13.875 21.4688 13.0775 21.4688 12.0937C21.4688 11.11 20.8392 10.3125 20.0625 10.3125C19.2858 10.3125 18.6562 11.11 18.6562 12.0937C18.6562 13.0775 19.2858 13.875 20.0625 13.875Z" fill="#E5A98C"/>
<path d="M17.9997 7.87501C17.9997 7.87501 19.2184 9.00001 18.1872 11.5313C17.1559 13.9688 18.6559 17.5313 18.6559 17.5313C18.6559 17.5313 18.3747 14.625 18.9372 13.875C19.4997 13.125 21.6559 9.37501 20.5309 7.50001C19.4059 5.62501 17.9997 7.87501 17.9997 7.87501Z" fill="#422F28"/>
<path d="M19.3125 14.3438L19.5 13.875C19.5 13.875 21.1875 13.4062 21.4687 12.5625C21.375 12.5625 21.4688 14.625 19.3125 14.3438Z" fill="#A67A65"/>
<path d="M4.40625 21.7492C4.40625 21.7492 5.53125 20.5304 6.9375 20.8117C8.34375 21.0929 9.09375 22.6867 10.125 23.9992C11.1563 25.3117 12.9375 23.8117 13.3125 23.6242C13.6875 23.4367 15.0938 22.6867 17.25 23.6242C19.4062 24.5617 20.4375 28.2179 20.4375 28.2179C20.4375 28.2179 14.0625 28.1242 10.4063 26.9992C6.75 25.7804 4.78125 23.2492 4.40625 21.7492Z" fill="#D3624F"/>
<path d="M7.87484 23.438C8.06234 23.7193 8.15609 23.9068 8.24984 24.188C8.34359 24.4693 8.24984 24.7505 7.96859 24.938C7.59359 25.2193 7.12484 25.0318 6.74984 24.8443C5.99984 24.4693 4.59359 23.3443 5.24984 22.4068C5.99984 21.4693 7.40609 22.7818 7.87484 23.438ZM16.2186 26.063C16.4061 26.3443 16.4998 26.5318 16.5936 26.813C16.6873 27.0943 16.5936 27.3755 16.3123 27.563C15.9373 27.8443 15.4686 27.6568 15.0936 27.4693C14.3436 27.0943 12.9373 25.9693 13.5936 25.0318C14.4373 24.0943 15.7498 25.4068 16.2186 26.063Z" fill="#E27364"/>
<path d="M8.53125 21.75C8.53125 21.75 10.125 23.625 11.0625 23.625C12 23.625 13.7812 22.2187 15.5625 22.4062C17.3438 22.5937 20.25 24.1875 21.1875 26.9062L20.0625 27.5625C20.0625 27.5625 18.2812 24 15.5625 23.625C15.5625 23.625 14.4375 23.625 12.9375 24.1875C11.4375 24.75 10.4062 25.5 8.53125 21.75Z" fill="#A53829"/>
<path d="M21.375 7.40612C21.1875 6.18737 20.1562 5.34362 19.3125 4.59362C18.75 4.12487 18.0938 3.65612 17.4375 3.28112C16.4063 2.71862 15.1875 2.53112 14.0625 2.34362C13.4062 2.24987 12.75 2.15612 12.1875 2.53112C11.9062 2.71862 11.7187 3.09362 11.4375 3.37487C11.0625 3.74987 10.5937 3.84362 10.0312 3.93737C9.46875 4.03112 9 3.84362 8.53125 3.74987C8.4375 4.03112 8.53125 4.31237 8.8125 4.40612C9 4.49987 9.28125 4.49987 9.5625 4.49987C11.1562 4.40612 12.75 4.40612 14.3437 4.68737C16.5938 5.15612 18.75 6.28112 20.7188 7.40612" fill="#513C36"/>
<path d="M20.438 24.4693C20.6255 24.4693 22.9692 24.4693 24.6567 27.0943C25.1255 27.8443 24.8442 28.7818 24.0942 29.1568C22.5005 29.9068 19.5005 30.938 16.2192 29.1568C15.563 28.7818 15.188 27.6568 15.6567 27.0005C16.5005 25.7818 17.9067 24.3755 20.438 24.4693Z" fill="#425763"/>
<path d="M20.4373 25.0309C20.6248 25.0309 22.5935 25.0309 24.0935 27.0934C24.4685 27.6559 24.281 28.4059 23.6248 28.6871C22.2185 29.3434 19.6873 29.9996 16.781 28.5934C16.2185 28.3121 16.031 27.4684 16.406 26.9996C17.0623 26.0621 18.281 24.9371 20.4373 25.0309C20.3435 25.0309 20.3435 25.0309 20.4373 25.0309Z" fill="#A2B6BA"/>
<path d="M20.344 25.1257C20.5315 25.1257 22.1253 25.1257 23.344 26.8132C23.6253 27.2819 23.5315 27.9382 22.969 28.1257C21.844 28.5944 19.7815 29.2507 17.4378 28.0319C16.969 27.7507 16.7815 27.1882 17.1565 26.7194C17.6253 25.9694 18.6565 25.0319 20.344 25.1257Z" fill="#87999B"/>
<path d="M20.0625 27.75C23.428 27.75 26.1562 25.0217 26.1562 21.6562C26.1562 18.2908 23.428 15.5625 20.0625 15.5625C16.697 15.5625 13.9688 18.2908 13.9688 21.6562C13.9688 25.0217 16.697 27.75 20.0625 27.75Z" fill="#425763"/>
<path d="M20.0625 26.9062C23.0655 26.9062 25.5 24.4718 25.5 21.4687C25.5 18.4657 23.0655 16.0312 20.0625 16.0312C17.0595 16.0312 14.625 18.4657 14.625 21.4687C14.625 24.4718 17.0595 26.9062 20.0625 26.9062Z" fill="#A2B6BA"/>
<path d="M20.25 25.9688C22.9942 25.9688 25.2188 23.7442 25.2188 21C25.2188 18.2558 22.9942 16.0312 20.25 16.0312C17.5058 16.0312 15.2812 18.2558 15.2812 21C15.2812 23.7442 17.5058 25.9688 20.25 25.9688Z" fill="#CBDEE4"/>
<path d="M22.9688 20.625C23.5901 20.625 24.0938 20.1213 24.0938 19.5C24.0938 18.8787 23.5901 18.375 22.9688 18.375C22.3474 18.375 21.8438 18.8787 21.8438 19.5C21.8438 20.1213 22.3474 20.625 22.9688 20.625Z" fill="#425763"/>
<path d="M23.0625 20.0625C23.4249 20.0625 23.7187 19.7687 23.7187 19.4063C23.7187 19.0438 23.4249 18.75 23.0625 18.75C22.7001 18.75 22.4062 19.0438 22.4062 19.4063C22.4062 19.7687 22.7001 20.0625 23.0625 20.0625Z" fill="#4ED154"/>
<path d="M19.0312 19.0312C19.0312 19.0312 19.3125 17.0625 20.8125 16.3125C21 16.2187 21 16.0312 20.7187 16.0312H20.4375C20.25 16.0312 18.5625 16.125 18 19.125L19.0312 19.0312Z" fill="#A2B6BA"/>
<path d="M21.8348 22.2321C21.8418 20.3163 20.4203 18.7582 18.6599 18.7518C16.8995 18.7454 15.4668 20.2932 15.4598 22.209C15.4529 24.1247 16.8744 25.6829 18.6348 25.6893C20.3952 25.6957 21.8279 24.1478 21.8348 22.2321Z" fill="#425763"/>
<path d="M21.2175 22.0743C21.2228 20.6246 20.1357 19.4454 18.7895 19.4405C17.4433 19.4356 16.3478 20.6069 16.3425 22.0566C16.3373 23.5064 17.4243 24.6856 18.7705 24.6905C20.1167 24.6954 21.2123 23.5241 21.2175 22.0743Z" fill="#3587C4"/>
<path d="M20.7539 21.9739C20.7582 20.7831 19.8383 19.8143 18.6992 19.8102C17.5601 19.8061 16.6332 20.7681 16.6289 21.959C16.6246 23.1498 17.5445 24.1186 18.6836 24.1227C19.8227 24.1268 20.7496 23.1648 20.7539 21.9739Z" fill="#4DA3EC"/>
<path d="M19.8565 20.9533C19.8577 20.6426 19.6067 20.3899 19.2961 20.3888C18.9854 20.3876 18.7327 20.6386 18.7315 20.9492C18.7304 21.2599 18.9813 21.5126 19.292 21.5138C19.6027 21.5149 19.8554 21.264 19.8565 20.9533Z" fill="white"/>
<path d="M20.1565 17.5313L20.9065 16.7813C21.0003 16.6875 21.1878 16.6875 21.2815 16.6875C21.5628 16.7812 22.1253 16.9688 22.7815 17.3438C23.1565 17.5313 22.969 18.1875 22.5003 18.0938L20.4378 18.1875C20.1565 18.2813 19.8753 17.8125 20.1565 17.5313Z" fill="#E1F0F4"/>
</g>
<defs>
<clipPath id="clip0_52_47505">
<rect width="30" height="30" fill="white"/>
</clipPath>
</defs>
</svg>
