<svg width="27" height="27" viewBox="0 0 27 27" fill="none" xmlns="http://www.w3.org/2000/svg">
<path fill-rule="evenodd" clip-rule="evenodd" d="M15.9131 2.8125C16.3971 1.18604 17.9038 0 19.6875 0C21.4712 0 22.9779 1.18604 23.4619 2.8125H25.8742C26.496 2.8125 27 3.31185 27 3.9375C27 4.55882 26.4966 5.0625 25.8742 5.0625H23.4619C22.9779 6.68896 21.4712 7.875 19.6875 7.875C17.9038 7.875 16.3971 6.68896 15.9131 5.0625H1.12578C0.504029 5.0625 0 4.56315 0 3.9375C0 3.31618 0.503403 2.8125 1.12578 2.8125H15.9131ZM7.3125 17.4375C9.0962 17.4375 10.6029 16.2515 11.0869 14.625H25.8742C26.4966 14.625 27 14.1213 27 13.5C27 12.8743 26.496 12.375 25.8742 12.375H11.0869C10.6029 10.7485 9.0962 9.5625 7.3125 9.5625C5.5288 9.5625 4.02212 10.7485 3.53806 12.375H1.12578C0.503403 12.375 0 12.8787 0 13.5C0 14.1257 0.504029 14.625 1.12578 14.625H3.53806C4.02212 16.2515 5.5288 17.4375 7.3125 17.4375ZM19.6875 19.125C17.9038 19.125 16.3971 20.311 15.9131 21.9375H1.12578C0.503403 21.9375 0 22.4412 0 23.0625C0 23.6882 0.504029 24.1875 1.12578 24.1875H15.9131C16.3971 25.814 17.9038 27 19.6875 27C21.4712 27 22.9779 25.814 23.4619 24.1875H25.8742C26.4966 24.1875 27 23.6838 27 23.0625C27 22.4368 26.496 21.9375 25.8742 21.9375H23.4619C22.9779 20.311 21.4712 19.125 19.6875 19.125ZM21.375 3.9375C21.375 4.86948 20.6195 5.625 19.6875 5.625C18.7555 5.625 18 4.86948 18 3.9375C18 3.00552 18.7555 2.25 19.6875 2.25C20.6195 2.25 21.375 3.00552 21.375 3.9375ZM19.6875 24.75C20.6195 24.75 21.375 23.9945 21.375 23.0625C21.375 22.1305 20.6195 21.375 19.6875 21.375C18.7555 21.375 18 22.1305 18 23.0625C18 23.9945 18.7555 24.75 19.6875 24.75ZM5.625 13.5C5.625 12.568 6.38052 11.8125 7.3125 11.8125C8.24448 11.8125 9 12.568 9 13.5C9 14.432 8.24448 15.1875 7.3125 15.1875C6.38052 15.1875 5.625 14.432 5.625 13.5Z" fill="white"/>
</svg>
