<svg width="30" height="30" viewBox="0 0 30 30" fill="none" xmlns="http://www.w3.org/2000/svg">
<g clip-path="url(#clip0_52_73531)">
<path d="M22.4062 10.3125L25.6875 10.5938C25.6875 10.5938 25.3125 15.2812 21.6562 16.4062C18.0937 17.5312 22.4062 10.3125 22.4062 10.3125ZM5.81248 3.46875C5.81248 3.46875 3.74998 6.5625 3.18748 8.625C2.62498 10.6875 7.31248 7.875 7.31248 7.875L5.81248 3.46875Z" fill="#999893"/>
<path d="M7.1243 4.6875C7.1243 4.6875 3.9368 7.03125 3.65555 8.0625C3.3743 9.09375 2.0618 13.7812 5.6243 12.8438C9.1868 11.9062 10.0305 6.1875 10.0305 6.1875L7.1243 4.6875Z" fill="#999893"/>
<path d="M6.93749 5.71875C6.93749 5.71875 4.31249 7.59375 4.03124 8.53125C3.74999 9.46875 2.71874 13.125 5.62499 12.375C8.53124 11.625 9.18749 6.9375 9.18749 6.9375L6.93749 5.71875Z" fill="#BFBDB4"/>
<path d="M14.6245 3.75076C14.6245 3.75076 15.187 5.81326 16.1245 6.65701C17.1558 7.50076 17.6245 9.93826 18.7495 10.032C19.9683 10.1258 22.1245 11.8133 23.437 11.0633C24.7495 10.3133 24.937 7.78201 24.4683 7.21951C23.9058 6.65701 22.0308 4.78201 21.3745 3.65701C20.7183 2.53201 19.687 1.68826 18.187 0.938256C16.687 0.0945056 13.1245 -0.374244 12.937 0.563256C12.7495 1.50076 14.6245 3.75076 14.6245 3.75076Z" fill="#999893"/>
<path d="M21.4687 10.6875C23.7469 10.6875 25.5937 8.7987 25.5937 6.46875C25.5937 4.1388 23.7469 2.25 21.4687 2.25C19.1906 2.25 17.3438 4.1388 17.3438 6.46875C17.3438 8.7987 19.1906 10.6875 21.4687 10.6875Z" fill="#999893"/>
<path d="M21.1875 10.5C23.155 10.5 24.75 8.86304 24.75 6.84375C24.75 4.82446 23.155 3.1875 21.1875 3.1875C19.22 3.1875 17.625 4.82446 17.625 6.84375C17.625 8.86304 19.22 10.5 21.1875 10.5Z" fill="#E2E0D7"/>
<path d="M14.9062 0.843729C14.9062 0.843729 13.5938 3.74998 11.25 4.40623C8.90625 5.06248 4.59375 6.84373 3.9375 9.46873C3.9375 9.56248 5.15625 -0.656271 14.9062 0.843729Z" fill="#827420"/>
<path d="M20.0631 17.5313C21.9381 18.1875 23.7193 19.875 24.2818 22.2188C24.8443 24.6562 24.0006 27.5625 22.3131 28.875C21.1881 29.7187 19.7818 30 18.4693 30C15.2818 30 12.0943 28.875 8.81305 27.6562C7.7818 27.2812 6.6568 26.9062 5.7193 26.1562C4.7818 25.4062 4.0318 24.2812 3.8443 22.9687C3.6568 21.0937 4.68805 19.2187 6.0943 18.2812C8.43805 16.6875 10.8756 16.0312 13.3131 16.0312C15.4693 16.0312 18.0943 16.875 20.0631 17.5313Z" fill="#614D6D"/>
<path d="M19.313 17.8125C21.0005 18.375 22.5943 19.875 23.1568 21.8437C23.7193 23.9062 22.9693 26.4375 21.3755 27.6562C20.3443 28.4062 19.1255 28.5938 17.9068 28.5938C15.0005 28.5938 12.0943 27.5625 9.18801 26.625C8.25051 26.25 7.21926 25.9688 6.37551 25.3125C5.53176 24.6562 4.78176 23.7187 4.68801 22.5C4.50051 20.9062 5.43801 19.3125 6.65676 18.4688C8.81301 17.0625 10.9693 16.5 13.2193 16.5C15.0943 16.5 17.438 17.1562 19.313 17.8125Z" fill="#957DA1"/>
<path d="M16.7812 18.6558C16.7812 18.6558 12.7499 20.3433 9.74992 25.0308C9.74992 25.0308 8.71867 20.9995 9.28117 18.0933C9.37492 17.9995 13.4999 19.8745 16.7812 18.6558Z" fill="#FAEACF"/>
<path d="M6.5625 18.0938C6.5625 18.0938 8.15625 22.0313 10.0312 22.4063C11.9062 22.7813 15.2812 23.4375 19.5938 19.2188L6.5625 18.0938Z" fill="#E8CCAA"/>
<path d="M23.8466 11.3298C23.8664 5.8415 19.4334 1.37621 13.9451 1.35632C8.45673 1.33643 3.99144 5.76948 3.97156 11.2578C3.95167 16.7461 8.38472 21.2114 13.873 21.2313C19.3614 21.2512 23.8267 16.8182 23.8466 11.3298Z" fill="#A67A65"/>
<path d="M23.3944 10.5661C23.4137 5.23307 19.1061 0.894157 13.7731 0.874833C8.4401 0.855509 4.10119 5.16309 4.08186 10.4961C4.06254 15.8291 8.37013 20.168 13.7031 20.1873C19.0361 20.2067 23.375 15.8991 23.3944 10.5661Z" fill="#E5A98C"/>
<path d="M23.3461 10.2605C23.3647 5.13464 19.3503 0.964683 14.3798 0.946672C9.4092 0.928661 5.3647 5.06942 5.34613 10.1953C5.32756 15.3212 9.34194 19.4912 14.3125 19.5092C19.2831 19.5272 23.3276 15.3864 23.3461 10.2605Z" fill="#E8CCAA"/>
<path d="M18.378 11.5769C18.3915 7.84893 15.4643 4.81621 11.8399 4.80308C8.21556 4.78994 5.26648 7.80137 5.25297 11.5293C5.23947 15.2572 8.16665 18.2899 11.791 18.3031C15.4154 18.3162 18.3645 15.3048 18.378 11.5769Z" fill="#FAEACF"/>
<path d="M14.8807 12.2561C14.8828 11.6866 14.5067 11.2235 14.0407 11.2218C13.5747 11.2201 13.1953 11.6805 13.1932 12.25C13.1911 12.8195 13.5672 13.2826 14.0332 13.2843C14.4992 13.286 14.8786 12.8257 14.8807 12.2561Z" fill="#425763"/>
<path d="M14.3584 11.9271C14.359 11.7718 14.2755 11.6456 14.172 11.6452C14.0684 11.6448 13.984 11.7705 13.9834 11.9258C13.9829 12.0811 14.0664 12.2073 14.1699 12.2077C14.2735 12.2081 14.3579 12.0825 14.3584 11.9271Z" fill="white"/>
<path d="M15.9384 4.96951C15.9384 4.96951 16.5009 7.032 17.4384 7.87575C18.3759 8.7195 18.9384 11.157 20.0634 11.2508C21.2821 11.3445 23.4384 13.032 24.7509 12.282C26.0634 11.532 26.2509 9.00075 25.7821 8.43825C25.2196 7.87575 23.3446 6.00076 22.6884 4.87576C22.1259 3.75076 21.0009 2.90701 19.4071 2.06326C17.9071 1.21951 14.3446 0.750756 14.1571 1.68826C13.9696 2.62576 15.9384 4.96951 15.9384 4.96951Z" fill="#999893"/>
<path d="M7.73225 10.6995C7.73432 10.1299 7.35823 9.66686 6.89224 9.66517C6.42625 9.66348 6.04682 10.1238 6.04475 10.6934C6.04269 11.2629 6.41878 11.726 6.88477 11.7277C7.35076 11.7294 7.73019 11.269 7.73225 10.6995Z" fill="#425763"/>
<path d="M7.21196 10.3705C7.21252 10.2152 7.12903 10.0889 7.02548 10.0886C6.92192 10.0882 6.83752 10.2138 6.83696 10.3691C6.83639 10.5245 6.91988 10.6507 7.02344 10.6511C7.12699 10.6514 7.21139 10.5258 7.21196 10.3705Z" fill="white"/>
<path d="M20.3438 11.9998C20.3438 11.9998 21.1875 11.3435 21.8437 11.6248C22.5 11.906 22.4062 13.9685 20.7187 14.156L20.3438 11.9998Z" fill="#FAEACF"/>
<path d="M12.0932 16.7812C12.0932 16.7812 11.1557 16.6875 10.4994 16.125C9.84317 15.5625 9.28067 15.6562 9.09317 15.75C8.99942 15.75 8.81192 15.5625 8.53067 15.4688C8.34317 15.375 8.06192 15.375 7.96817 15.4688C7.87442 15.5625 8.24942 16.0313 8.24942 16.0313C8.24942 16.0313 8.34317 16.4062 8.24942 16.6875C8.15567 16.875 8.24942 17.5312 8.90567 17.7187C9.56192 17.9062 10.1244 17.8125 10.4057 17.625C10.7807 17.5312 12.0932 16.7812 12.0932 16.7812Z" fill="#A87483"/>
<path d="M4.03125 8.06178L6.75 6.37428C7.40625 5.90553 8.15625 5.34303 8.90625 5.06178C9.5625 4.49928 10.2188 4.12428 10.875 3.93678C13.3125 3.18678 14.8125 -0.000717297 14.8125 -0.000717297C6.75 -0.375717 4.59375 4.40553 4.03125 8.06178Z" fill="#999893"/>
<path d="M12.5618 3.65625C12.5618 3.65625 15.2805 4.96875 16.4993 7.03125C17.718 9.09375 20.0618 12.1875 23.718 11.5312C23.718 11.5312 24.1868 0.9375 12.9368 0.75C13.0305 0.75 10.3118 2.71875 12.5618 3.65625Z" fill="#E2E0D7"/>
<path d="M14.1555 0.84396C14.1555 0.84396 12.9367 4.03146 10.7805 4.68771C8.62422 5.34396 4.59297 7.12521 4.03047 9.75021C3.93672 9.84396 5.06172 -0.65604 14.1555 0.84396Z" fill="#E2E0D7"/>
<path d="M17.6253 12.9384C17.6253 14.6259 16.3128 15.9384 14.5315 15.9384C12.6565 15.9384 10.8753 14.4384 10.7815 12.4697C10.6878 10.5009 12.3753 9.09468 14.344 9.37593C16.3128 9.65718 17.6253 11.2509 17.6253 12.9384ZM9.65652 10.7822C9.65652 12.2822 8.53152 13.4072 7.03152 13.4072C5.43777 13.4072 3.93777 12.0009 3.84402 10.3134C3.75027 8.53218 5.25027 7.21968 6.93777 7.50093C8.53152 7.78218 9.75027 9.28218 9.65652 10.7822Z" stroke="#425763" stroke-width="0.666844" stroke-miterlimit="10"/>
<path d="M17.7188 12.4688L20.3438 12" stroke="#425763" stroke-width="0.666844" stroke-miterlimit="10" stroke-linecap="round"/>
<path d="M15.2821 5.43826C15.2821 5.43826 15.8446 7.50075 16.7821 8.3445C17.8134 9.18825 18.2821 11.6258 19.4071 11.7195C20.6259 11.8133 22.7821 13.5008 24.0946 12.7508C25.4071 12.0008 25.5946 9.4695 25.1259 8.907C24.5634 8.3445 22.6884 6.46951 22.0321 5.34451C21.3759 4.21951 20.3446 3.37576 18.7509 2.53201C17.2509 1.68826 13.6884 1.21951 13.5009 2.15701C13.3134 3.09451 15.2821 5.43826 15.2821 5.43826Z" fill="#E2E0D7"/>
<path d="M21.75 12.1875C21.75 12.1875 22.875 14.4375 22.5937 15.0938C22.3125 15.75 25.125 13.6875 25.2187 11.25C25.3125 8.8125 22.5937 8.71875 22.5937 8.71875L21.75 12.1875Z" fill="#E2E0D7"/>
<path d="M12.1875 3.84375C12.1875 3.84375 14.25 5.25 14.625 6.28125C15 7.3125 18.375 10.5938 18.375 10.5938C18.375 10.5938 16.6875 8.34375 16.2187 7.125C15.75 5.90625 14.625 4.40625 12.5625 3.65625L12.1875 3.84375Z" fill="#C4C4C4"/>
<path d="M22.0312 12.6562C22.0312 12.6562 23.8125 14.1562 23.9062 15L22.5 16.125C22.5 16.125 22.6875 13.5 22.0312 12.6562Z" fill="#999893"/>
<path d="M15.1867 1.9678C15.1867 1.9678 17.6242 2.06155 18.7492 3.4678C19.8742 4.7803 22.6867 8.1553 23.6242 8.62405C24.5617 8.99905 24.8429 11.4366 23.6242 11.1553C22.5929 10.6866 19.6867 8.3428 19.6867 8.3428C19.6867 8.3428 18.6554 7.7803 18.0929 5.9053C17.5304 4.0303 15.1867 1.9678 15.1867 1.9678ZM11.0617 1.87405C11.3429 1.7803 12.8429 1.49905 12.6554 2.24905C12.4679 2.99905 8.34292 3.6553 8.15542 3.6553C8.06167 3.74905 8.90542 2.24905 11.0617 1.87405Z" fill="#EFEFEF"/>
<path d="M20.1567 11.7187C20.1567 11.7187 21.8442 17.3437 20.2504 18.6562C18.6567 19.9687 25.6879 16.2188 25.9692 14.1562C26.2504 12.0938 25.2192 9.65625 25.2192 9.65625L20.1567 11.7187Z" fill="#E2E0D7"/>
<path d="M25.4994 9.9375C25.4994 9.9375 24.9369 10.5 25.2181 11.25C25.4994 12.0937 25.9681 14.3437 25.0306 14.9062L19.8744 18.4688C19.8744 18.4688 19.3119 18.8438 20.2494 18.8438C21.1869 18.8438 22.9681 18.4687 24.0931 17.1562C25.1244 15.8437 26.1556 15.6562 26.3431 14.25C26.5306 12.8437 25.8744 10.0312 25.8744 10.0312L25.4994 9.9375Z" fill="#999893"/>
<path d="M20.625 14.3438C20.625 14.3438 21.1875 16.125 20.7188 17.0625C20.25 18 20.1562 18.6562 20.1562 18.6562L22.875 17.5313L20.625 14.3438Z" fill="#999893"/>
<path opacity="0.4" d="M20.7188 18.9375C20.7188 18.9375 22.125 23.9062 19.3125 25.6875C16.5 27.4688 12 27.4687 12 27.4687C12 27.4687 14.7187 28.7812 16.4062 29.0625C18.0938 29.3438 21 30 22.6875 26.9063C24.375 23.8125 23.4375 19.3125 21.5625 18.75L20.7188 18.9375Z" fill="#614D6D"/>
<path d="M7.8742 19.125C7.8742 19.125 7.59295 20.625 8.53045 21.6563C9.46795 22.6875 8.4367 21.75 8.4367 21.75C8.4367 21.75 6.3742 19.4062 6.46795 18.1875H6.65545L7.8742 19.125Z" fill="#614D6D"/>
<path d="M15.0946 22.5938L14.7196 28.3125L9.75083 27C8.34458 26.5312 6.00083 25.0313 6.18833 25.0313L7.96958 20.9062C7.87583 20.9062 11.9071 23.25 15.0946 22.5938Z" fill="#DACCE2"/>
<path d="M8.15625 22.0312L11.8125 23.3437L10.6875 26.5312L7.21875 25.0313L8.15625 22.0312Z" fill="#E8DFEF"/>
<path d="M13.875 22.875L14.4375 28.5938L15.1875 28.6875L15.6563 22.0312L13.875 22.875Z" fill="#614D6D"/>
<path d="M9.65625 11.0625L10.875 11.3438" stroke="#425763" stroke-width="0.666844" stroke-miterlimit="10" stroke-linecap="round"/>
<path opacity="0.16" d="M21.8437 17.4375L20.625 14.1562C20.625 14.1562 23.0625 13.5937 23.625 13.0312L25.5 11.3438L25.875 13.4062C25.875 13.4062 26.25 15.0938 25.3125 15.6563C24.375 16.2188 21.8437 17.4375 21.8437 17.4375Z" fill="#999893"/>
</g>
<defs>
<clipPath id="clip0_52_73531">
<rect width="30" height="30" fill="white"/>
</clipPath>
</defs>
</svg>
