<svg width="18" height="21" viewBox="0 0 18 21" fill="none" xmlns="http://www.w3.org/2000/svg">
<path d="M3.75 13.5C5.40685 13.5 6.75 12.1569 6.75 10.5C6.75 8.84315 5.40685 7.5 3.75 7.5C2.09315 7.5 0.75 8.84315 0.75 10.5C0.75 12.1569 2.09315 13.5 3.75 13.5Z" stroke="#7C7C7C" stroke-width="1.5" stroke-linecap="round" stroke-linejoin="round"/>
<path d="M14.25 20.25C15.9069 20.25 17.25 18.9069 17.25 17.25C17.25 15.5931 15.9069 14.25 14.25 14.25C12.5931 14.25 11.25 15.5931 11.25 17.25C11.25 18.9069 12.5931 20.25 14.25 20.25Z" stroke="#7C7C7C" stroke-width="1.5" stroke-linecap="round" stroke-linejoin="round"/>
<path d="M14.25 6.75C15.9069 6.75 17.25 5.40685 17.25 3.75C17.25 2.09315 15.9069 0.75 14.25 0.75C12.5931 0.75 11.25 2.09315 11.25 3.75C11.25 5.40685 12.5931 6.75 14.25 6.75Z" stroke="#7C7C7C" stroke-width="1.5" stroke-linecap="round" stroke-linejoin="round"/>
<path d="M11.727 5.37207L6.27344 8.87792" stroke="#7C7C7C" stroke-width="1.5" stroke-linecap="round" stroke-linejoin="round"/>
<path d="M6.27344 12.1221L11.727 15.6279" stroke="#7C7C7C" stroke-width="1.5" stroke-linecap="round" stroke-linejoin="round"/>
</svg>
