<svg width="200" height="49" viewBox="0 0 200 49" fill="none" xmlns="http://www.w3.org/2000/svg">
<g clip-path="url(#clip0_52_34580)">
<path d="M199.968 0H0.031504V48.0932H199.968V0Z" fill="#D71016"/>
<path d="M122.357 5.87946H114.584C114.584 5.87946 110.542 5.87946 109.046 7.04392C107.978 7.74698 107.098 8.69893 106.48 9.8178C105.976 10.8238 105.704 11.9303 105.685 13.0556V35.0951C105.653 36.3376 105.943 37.5673 106.528 38.6642C107.095 39.5602 107.876 40.3017 108.8 40.8227C110.416 41.7634 112.25 42.2629 114.12 42.2712H176.603C178.529 42.1703 180.384 41.5125 181.943 40.3778C182.851 39.7026 183.596 38.8325 184.124 37.8315C184.651 36.8305 184.948 35.724 184.991 34.5933V22.6079H145.826V26.7072H160.168V32.8893C160.168 32.8893 160.244 35.4738 158.711 36.6761C157.865 37.5262 156.728 38.0236 155.53 38.0678H135.563C134.478 38.1254 133.409 37.7892 132.553 37.1211C131.589 36.3467 130.958 35.2318 130.792 34.0064V14.2011C130.84 13.602 131.014 13.0199 131.303 12.4929C131.591 11.9658 131.988 11.5059 132.468 11.1432C133.55 10.3173 134.897 9.91649 136.254 10.0166C138.792 10.0829 149.149 10.0166 149.149 10.0166H155.189C156.471 10.0296 157.706 10.5073 158.663 11.3609C159.173 11.8437 159.57 12.434 159.824 13.089C160.077 13.744 160.182 14.4473 160.131 15.1478H184.982C184.982 15.1478 184.916 10.4805 183.155 8.52079C183.155 8.52079 180.769 5.73745 177.474 5.84159H162.327H137.826L122.357 5.87946Z" fill="white"/>
<path d="M39.4906 5.69942L8.38153 5.73729L38.5628 42.2332L72.3984 42.2805L102.949 5.72782L72.1902 5.68049L55.225 30.3708L39.4906 5.69942Z" fill="white"/>
</g>
<defs>
<clipPath id="clip0_52_34580">
<rect width="199.874" height="48.0781" fill="white" transform="translate(0.031504) scale(1.00031)"/>
</clipPath>
</defs>
</svg>
