<svg width="14" height="14" viewBox="0 0 14 14" fill="none" xmlns="http://www.w3.org/2000/svg">
<path d="M10.5 0H3.49999C1.568 0 0 1.561 0 3.48599V7.67198V8.37197C0 10.297 1.568 11.858 3.49999 11.858H4.54999C4.73899 11.858 4.99099 11.984 5.10998 12.138L6.15998 13.531C6.62198 14.147 7.37798 14.147 7.83998 13.531L8.88997 12.138C9.02297 11.963 9.23297 11.858 9.44997 11.858H10.5C12.432 11.858 14 10.297 14 8.37197V3.48599C14 1.561 12.432 0 10.5 0ZM4.19999 6.99998C3.80799 6.99998 3.49999 6.68498 3.49999 6.29998C3.49999 5.91498 3.81499 5.59998 4.19999 5.59998C4.58499 5.59998 4.89999 5.91498 4.89999 6.29998C4.89999 6.68498 4.59199 6.99998 4.19999 6.99998ZM6.99998 6.99998C6.60798 6.99998 6.29998 6.68498 6.29998 6.29998C6.29998 5.91498 6.61498 5.59998 6.99998 5.59998C7.38498 5.59998 7.69998 5.91498 7.69998 6.29998C7.69998 6.68498 7.39198 6.99998 6.99998 6.99998ZM9.79997 6.99998C9.40797 6.99998 9.09997 6.68498 9.09997 6.29998C9.09997 5.91498 9.41497 5.59998 9.79997 5.59998C10.185 5.59998 10.5 5.91498 10.5 6.29998C10.5 6.68498 10.192 6.99998 9.79997 6.99998Z" fill="white"/>
</svg>
