<svg width="85" height="85" viewBox="0 0 85 85" fill="none" xmlns="http://www.w3.org/2000/svg">
<path d="M25.8711 59.1309H59.132" stroke="#213A52" stroke-width="2.95652" stroke-linecap="round" stroke-linejoin="round"/>
<path d="M27.3471 33.2602C27.3471 32.4437 26.6853 31.7819 25.8689 31.7819C25.0524 31.7819 24.3906 32.4437 24.3906 33.2602H27.3471ZM38.4341 33.2602C38.4341 32.4437 37.7723 31.7819 36.9558 31.7819C36.1394 31.7819 35.4776 32.4437 35.4776 33.2602H38.4341ZM38.4341 35.108C38.4341 34.2916 37.7723 33.6298 36.9558 33.6298C36.1394 33.6298 35.4776 34.2916 35.4776 35.108H38.4341ZM49.5211 33.2602C49.5211 32.4437 48.8592 31.7819 48.0428 31.7819C47.2264 31.7819 46.5645 32.4437 46.5645 33.2602H49.5211ZM49.5211 35.108C49.5211 34.2916 48.8592 33.6298 48.0428 33.6298C47.2264 33.6298 46.5645 34.2916 46.5645 35.108H49.5211ZM59.1298 33.2602H60.608C60.608 32.4437 59.9462 31.7819 59.1298 31.7819V33.2602ZM25.8689 33.2602L24.5467 32.5991C24.3176 33.0573 24.3421 33.6015 24.6114 34.0374C24.8807 34.4732 25.3565 34.7385 25.8689 34.7385V33.2602ZM29.5645 25.8689V24.3906C29.0046 24.3906 28.4927 24.707 28.2423 25.2078L29.5645 25.8689ZM55.4341 25.8689L56.7563 25.2078C56.5059 24.707 55.994 24.3906 55.4341 24.3906V25.8689ZM57.8075 33.9213C58.1727 34.6515 59.0606 34.9475 59.7908 34.5824C60.5211 34.2173 60.817 33.3293 60.452 32.5991L57.8075 33.9213ZM24.3906 33.2602V35.108H27.3471V33.2602H24.3906ZM24.3906 35.108C24.3906 38.986 27.5344 42.1298 31.4124 42.1298V39.1732C29.1672 39.1732 27.3471 37.3532 27.3471 35.108H24.3906ZM31.4124 42.1298C35.2904 42.1298 38.4341 38.986 38.4341 35.108H35.4776C35.4776 37.3532 33.6575 39.1732 31.4124 39.1732V42.1298ZM38.4341 35.108V33.2602H35.4776V35.108H38.4341ZM35.4776 35.108C35.4776 38.986 38.6213 42.1298 42.4993 42.1298V39.1732C40.2541 39.1732 38.4341 37.3532 38.4341 35.108H35.4776ZM42.4993 42.1298C46.3773 42.1298 49.5211 38.986 49.5211 35.108H46.5645C46.5645 37.3532 44.7445 39.1732 42.4993 39.1732V42.1298ZM49.5211 35.108V33.2602H46.5645V35.108H49.5211ZM46.5645 35.108C46.5645 38.986 49.7083 42.1298 53.5863 42.1298V39.1732C51.3411 39.1732 49.5211 37.3532 49.5211 35.108H46.5645ZM53.5863 42.1298C57.4643 42.1298 60.608 38.986 60.608 35.108H57.6515C57.6515 37.3532 55.8315 39.1732 53.5863 39.1732V42.1298ZM60.608 35.108V33.2602H57.6515V35.108H60.608ZM59.1298 31.7819H25.8689V34.7385H59.1298V31.7819ZM27.1911 33.9213L30.8868 26.53L28.2423 25.2078L24.5467 32.5991L27.1911 33.9213ZM29.5645 27.3471H55.4341V24.3906H29.5645V27.3471ZM54.1119 26.53L57.8075 33.9213L60.452 32.5991L56.7563 25.2078L54.1119 26.53Z" fill="#213A52"/>
<path d="M29.5664 59.1304V40.375" stroke="#213A52" stroke-width="2.95652" stroke-linecap="round" stroke-linejoin="round"/>
<path d="M55.4336 59.1304V40.375" stroke="#213A52" stroke-width="2.95652" stroke-linecap="round" stroke-linejoin="round"/>
<path d="M36.957 59.1299V51.7386C36.957 49.6976 38.6116 48.043 40.6527 48.043H44.3483C46.3894 48.043 48.044 49.6976 48.044 51.7386V59.1299" stroke="#213A52" stroke-width="2.95652" stroke-linecap="round" stroke-linejoin="round"/>
</svg>
