<svg width="22" height="21" viewBox="0 0 22 21" fill="none" xmlns="http://www.w3.org/2000/svg">
<path d="M13.2963 10.4212C13.2963 11.6921 12.266 12.7225 10.995 12.7225V14.2567C13.1133 14.2567 14.8305 12.5395 14.8305 10.4212H13.2963ZM10.995 12.7225C9.72404 12.7225 8.69373 11.6921 8.69373 10.4212H7.15954C7.15954 12.5395 8.87674 14.2567 10.995 14.2567V12.7225ZM8.69373 10.4212C8.69373 9.15022 9.72404 8.1199 10.995 8.1199V6.58572C8.87674 6.58572 7.15954 8.30291 7.15954 10.4212H8.69373ZM10.995 8.1199C12.266 8.1199 13.2963 9.15022 13.2963 10.4212H14.8305C14.8305 8.30291 13.1133 6.58572 10.995 6.58572V8.1199Z" fill="#93989A"/>
<path d="M4.38777 4.6635L3.72357 5.04726L3.72411 5.04817L4.38777 4.6635ZM5.10373 2.01447L5.48431 2.68049L5.48473 2.68026L5.10373 2.01447ZM6.87316 1.00191L7.25421 1.66779L7.26537 1.66115L6.87316 1.00191ZM9.20512 1.61558L9.86904 1.23121L9.86437 1.22337L9.20512 1.61558ZM9.31763 1.80991L9.98314 1.42841L9.98149 1.42557L9.31763 1.80991ZM12.6826 1.80991L13.3463 2.19458L13.3465 2.19426L12.6826 1.80991ZM12.7951 1.61558L12.1358 1.22335L12.1312 1.23124L12.7951 1.61558ZM15.1271 1.00191L14.7348 1.66125L14.7461 1.66769L15.1271 1.00191ZM16.8965 2.01447L16.5155 2.68026L16.5159 2.68049L16.8965 2.01447ZM17.6125 4.6635L18.2762 5.04817L18.2767 5.04726L17.6125 4.6635ZM17.6125 16.1801L18.2785 15.7995L18.2762 15.7955L17.6125 16.1801ZM16.8965 18.8292L16.5159 18.1631L16.5155 18.1633L16.8965 18.8292ZM15.1271 19.8417L14.746 19.1759L14.7348 19.1824L15.1271 19.8417ZM12.7951 19.228L12.1312 19.6124L12.1358 19.6203L12.7951 19.228ZM12.6826 19.0337L12.0171 19.4152L12.0187 19.4181L12.6826 19.0337ZM9.31763 19.0337L8.65396 18.649L8.65377 18.6494L9.31763 19.0337ZM9.20512 19.228L9.86441 19.6203L9.86898 19.6124L9.20512 19.228ZM6.87316 19.8417L7.26542 19.1824L7.25416 19.1759L6.87316 19.8417ZM5.10373 18.8292L5.48473 18.1633L5.48431 18.1631L5.10373 18.8292ZM4.38777 16.1801L3.72411 15.7955L3.72357 15.7964L4.38777 16.1801ZM2.7104 13.2652V14.0323V13.2652ZM1.53419 11.3219V9.52176H0V11.3219H1.53419ZM1.53419 9.52176C1.53419 8.87909 2.06275 8.34555 2.7104 8.34555V6.81136C1.21019 6.81136 0 8.03703 0 9.52176H1.53419ZM2.7104 8.34555C3.79945 8.34555 4.76817 7.95435 5.25696 7.10616C5.74583 6.25784 5.59871 5.223 5.05144 4.27883L3.72411 5.04817C4.10758 5.70978 4.0474 6.13242 3.9277 6.34014C3.80793 6.54797 3.47259 6.81136 2.7104 6.81136V8.34555ZM5.05198 4.27974C4.73174 3.72548 4.92446 3.00041 5.48431 2.68049L4.72315 1.34845C3.42151 2.09223 2.98011 3.7605 3.72357 5.04726L5.05198 4.27974ZM5.48473 2.68026L7.25416 1.66769L6.49216 0.336121L4.72273 1.34868L5.48473 2.68026ZM7.26537 1.66115C7.69458 1.40579 8.27293 1.54901 8.54587 2.00779L9.86437 1.22337C9.17589 0.066148 7.66774 -0.363408 6.48095 0.342662L7.26537 1.66115ZM8.54126 1.99993L8.65377 2.19426L9.98149 1.42557L9.86898 1.23124L8.54126 1.99993ZM8.65213 2.19141C9.1942 3.13702 10.0166 3.78134 10.9962 3.78134C11.9748 3.78134 12.7992 3.13842 13.3463 2.19458L12.0189 1.42524C11.6353 2.08718 11.2374 2.24715 10.9962 2.24715C10.7563 2.24715 10.3616 2.08858 9.98313 1.42842L8.65213 2.19141ZM13.3465 2.19426L13.459 1.99993L12.1312 1.23124L12.0187 1.42557L13.3465 2.19426ZM13.4544 2.00779C13.7273 1.54901 14.3057 1.40579 14.7348 1.66115L15.5193 0.342662C14.3325 -0.363408 12.8244 0.066147 12.1358 1.22337L13.4544 2.00779ZM14.7461 1.66769L16.5155 2.68026L17.2775 1.34868L15.5081 0.336121L14.7461 1.66769ZM16.5159 2.68049C17.0758 3.00041 17.2685 3.72548 16.9483 4.27974L18.2767 5.04726C19.0201 3.7605 18.5787 2.09223 17.2771 1.34845L16.5159 2.68049ZM16.9488 4.27883C16.4016 5.223 16.2544 6.25784 16.7433 7.10616C17.2321 7.95435 18.2008 8.34555 19.2898 8.34555V6.81136C18.5277 6.81136 18.1923 6.54797 18.0725 6.34014C17.9528 6.13242 17.8926 5.70978 18.2762 5.04817L16.9488 4.27883ZM19.2898 8.34555C19.9326 8.34555 20.4661 8.87411 20.4661 9.52176H22.0002C22.0002 8.02155 20.7745 6.81136 19.2898 6.81136V8.34555ZM20.4661 9.52176V11.3219H22.0002V9.52176H20.4661ZM20.4661 11.3219C20.4661 11.9646 19.9375 12.4981 19.2898 12.4981V14.0323C20.7901 14.0323 22.0002 12.8066 22.0002 11.3219H20.4661ZM19.2898 12.4981C18.2008 12.4981 17.2321 12.8893 16.7433 13.7375C16.2544 14.5858 16.4016 15.6207 16.9488 16.5648L18.2762 15.7955C17.8926 15.1338 17.9528 14.7112 18.0725 14.5035C18.1923 14.2956 18.5277 14.0323 19.2898 14.0323V12.4981ZM16.9464 16.5607C17.2703 17.1276 17.0749 17.8437 16.5159 18.1631L17.2771 19.4952C18.5796 18.7509 19.0183 17.0941 18.2785 15.7995L16.9464 16.5607ZM16.5155 18.1633L14.7461 19.1759L15.5081 20.5076L17.2775 19.495L16.5155 18.1633ZM14.7348 19.1824C14.3057 19.4378 13.7273 19.2946 13.4544 18.8358L12.1358 19.6203C12.8244 20.7775 14.3325 21.207 15.5193 20.501L14.7348 19.1824ZM13.459 18.8437L13.3465 18.6494L12.0187 19.4181L12.1312 19.6124L13.459 18.8437ZM13.3481 18.6522C12.8061 17.7066 11.9836 17.0623 11.0039 17.0623C10.0254 17.0623 9.20102 17.7052 8.65396 18.649L9.9813 19.4184C10.365 18.7564 10.7628 18.5965 11.0039 18.5965C11.244 18.5965 11.6386 18.755 12.0171 19.4152L13.3481 18.6522ZM8.65377 18.6494L8.54126 18.8437L9.86898 19.6124L9.98149 19.4181L8.65377 18.6494ZM8.54587 18.8358C8.27293 19.2946 7.69458 19.4378 7.26537 19.1824L6.48095 20.501C7.66773 21.207 9.17589 20.7775 9.86437 19.6203L8.54587 18.8358ZM7.25416 19.1759L5.48473 18.1633L4.72273 19.495L6.49216 20.5076L7.25416 19.1759ZM5.48431 18.1631C4.92446 17.8432 4.73174 17.1181 5.05198 16.5639L3.72357 15.7964C2.98011 17.0832 3.42151 18.7514 4.72315 19.4952L5.48431 18.1631ZM5.05144 16.5648C5.59871 15.6207 5.74583 14.5858 5.25696 13.7375C4.76817 12.8893 3.79945 12.4981 2.7104 12.4981V14.0323C3.47259 14.0323 3.80793 14.2956 3.9277 14.5035C4.0474 14.7112 4.10758 15.1338 3.72411 15.7955L5.05144 16.5648ZM2.7104 12.4981C2.06275 12.4981 1.53419 11.9646 1.53419 11.3219H0C0 12.8066 1.21019 14.0323 2.7104 14.0323V12.4981Z" fill="#93989A"/>
</svg>
