<svg width="18" height="18" viewBox="0 0 18 18" fill="none" xmlns="http://www.w3.org/2000/svg">
<mask id="mask0_0_251" style="mask-type:luminance" maskUnits="userSpaceOnUse" x="-3" y="-2" width="23" height="23">
<rect x="-2.84221" y="-1.89548" width="22.7377" height="22.7377" fill="white"/>
</mask>
<g mask="url(#mask0_0_251)">
<path fill-rule="evenodd" clip-rule="evenodd" d="M16.1056 8.52569H18.0004C18.0004 3.66551 14.3311 0 9.46428 0V1.89481C13.3126 1.89481 16.1056 4.68302 16.1056 8.52569Z" fill="#ADB5BD"/>
<path fill-rule="evenodd" clip-rule="evenodd" d="M9.47425 5.68393C11.4666 5.68393 12.3165 6.53375 12.3165 8.52614H14.2113C14.2113 5.47076 12.5296 3.78912 9.47425 3.78912V5.68393ZM12.7163 10.8406C12.3383 10.4967 11.7547 10.5147 11.3985 10.8814L9.13135 13.2129C8.58564 13.1087 7.48855 12.7667 6.35924 11.6403C5.22994 10.51 4.88793 9.41007 4.78655 8.86815L7.11622 6.60007C7.48381 6.24384 7.50087 5.66119 7.15696 5.28223L3.6563 1.43293C3.31239 1.05302 2.72784 1.01702 2.33846 1.3505L0.282594 3.11362C0.118693 3.27847 0.0211102 3.49637 0.00784639 3.72849C-0.00636477 3.96534 -0.277322 9.57586 4.07316 13.9282C7.86846 17.7226 12.6225 18.0002 13.9318 18.0002C14.1232 18.0002 14.2407 17.9945 14.272 17.9926C14.5041 17.9793 14.722 17.8818 14.8859 17.7169L16.648 15.6601C16.9825 15.2707 16.9446 14.6871 16.5666 14.3423L12.7163 10.8406Z" fill="#ADB5BD"/>
</g>
</svg>
