<svg width="122" height="17" viewBox="0 0 122 17" fill="none" xmlns="http://www.w3.org/2000/svg">
<path d="M66.3955 4.14141C63.9834 4.14141 62.0378 6.08742 62.0378 8.5C62.0378 10.9126 63.9834 12.8586 66.3955 12.8586C68.8075 12.8586 70.7531 10.9126 70.7531 8.5C70.7531 6.08742 68.8075 4.14141 66.3955 4.14141ZM66.3955 11.3336C64.8367 11.3336 63.5624 10.0629 63.5624 8.5C63.5624 6.93713 64.8329 5.66635 66.3955 5.66635C67.958 5.66635 69.2285 6.93713 69.2285 8.5C69.2285 10.0629 67.9542 11.3336 66.3955 11.3336ZM71.9477 3.96313C71.9477 4.52834 71.4926 4.97975 70.9313 4.97975C70.3662 4.97975 69.9149 4.52455 69.9149 3.96313C69.9149 3.40171 70.37 2.9465 70.9313 2.9465C71.4926 2.9465 71.9477 3.40171 71.9477 3.96313ZM74.8338 4.99492C74.7694 3.6331 74.4584 2.42681 73.4609 1.43295C72.4673 0.439083 71.2613 0.128026 69.8997 0.0597456C68.4965 -0.0199152 64.2906 -0.0199152 62.8874 0.0597456C61.5296 0.124233 60.3236 0.43529 59.3262 1.42915C58.3287 2.42302 58.0216 3.62931 57.9533 4.99113C57.8736 6.39468 57.8736 10.6015 57.9533 12.0051C58.0178 13.3669 58.3287 14.5732 59.3262 15.5671C60.3236 16.5609 61.5258 16.872 62.8874 16.9403C64.2906 17.0199 68.4965 17.0199 69.8997 16.9403C71.2613 16.8758 72.4673 16.5647 73.4609 15.5671C74.4546 14.5732 74.7656 13.3669 74.8338 12.0051C74.9135 10.6015 74.9135 6.39847 74.8338 4.99492ZM73.021 13.511C72.7252 14.2545 72.1525 14.8273 71.4054 15.127C70.2866 15.5708 67.6318 15.4684 66.3955 15.4684C65.1591 15.4684 62.5005 15.5671 61.3855 15.127C60.6422 14.8311 60.0695 14.2583 59.7699 13.511C59.3262 12.392 59.4286 9.73664 59.4286 8.5C59.4286 7.26336 59.33 4.60421 59.7699 3.48895C60.0657 2.74545 60.6384 2.17265 61.3855 1.87298C62.5043 1.42915 65.1591 1.53157 66.3955 1.53157C67.6318 1.53157 70.2904 1.43295 71.4054 1.87298C72.1487 2.16886 72.7214 2.74166 73.021 3.48895C73.4647 4.608 73.3623 7.26336 73.3623 8.5C73.3623 9.73664 73.4647 12.3958 73.021 13.511Z" fill="#FF285C"/>
<path d="M120.146 4.73827C120.157 4.90232 120.157 5.06641 120.157 5.23047C120.157 10.2344 116.651 16 110.244 16C108.27 16 106.436 15.3789 104.894 14.3008C105.174 14.3359 105.444 14.3477 105.735 14.3477C107.364 14.3477 108.863 13.75 110.06 12.7305C108.529 12.6953 107.245 11.6055 106.803 10.1055C107.019 10.1406 107.234 10.164 107.461 10.164C107.774 10.164 108.086 10.1172 108.378 10.0352C106.781 9.68357 105.584 8.16015 105.584 6.32031V6.27345C106.048 6.5547 106.587 6.73048 107.159 6.75389C106.22 6.07419 105.605 4.91405 105.605 3.60154C105.605 2.89842 105.778 2.25389 106.08 1.69139C107.795 3.98826 110.373 5.48824 113.264 5.65233C113.21 5.37108 113.178 5.07814 113.178 4.78516C113.178 2.6992 114.731 1 116.662 1C117.665 1 118.571 1.45703 119.208 2.19531C119.995 2.03126 120.75 1.71484 121.419 1.28125C121.16 2.16018 120.61 2.89846 119.887 3.36718C120.588 3.28519 121.268 3.0742 121.894 2.78126C121.419 3.53123 120.826 4.19917 120.146 4.73827Z" fill="#56C7CE"/>
<path d="M7.37607 9.29918L7.78539 6.68025H5.22615V4.98074C5.22615 4.26425 5.58365 3.56585 6.72986 3.56585H7.89333V1.33611C7.89333 1.33611 6.83751 1.15918 5.82803 1.15918C3.72042 1.15918 2.34278 2.41353 2.34278 4.68425V6.68025H0V9.29918H2.34278V15.6303H5.22615V9.29918H7.37607Z" fill="#5856CE"/>
</svg>
