<svg width="12" height="12" viewBox="0 0 12 12" fill="none" xmlns="http://www.w3.org/2000/svg">
<mask id="mask0_0_308" style="mask-type:luminance" maskUnits="userSpaceOnUse" x="-2" y="-2" width="16" height="16">
<rect x="-1.2003" y="-1.2003" width="14.3996" height="14.3996" fill="white"/>
</mask>
<g mask="url(#mask0_0_308)">
<path fill-rule="evenodd" clip-rule="evenodd" d="M5.99983 0C2.69152 0 0 2.69152 0 5.99983C0 9.30814 2.69152 11.9997 5.99983 11.9997C9.30814 11.9997 11.9997 9.30814 11.9997 5.99983C11.9997 2.69152 9.30814 0 5.99983 0ZM6.59982 9.59975H5.39985V8.39979H6.59982V9.59975ZM7.1854 6.66879C7.0678 6.76359 6.9544 6.85419 6.86441 6.94418C6.61961 7.18838 6.60041 7.41037 6.59981 7.41997V7.49977H5.39985V7.39957C5.39985 7.32877 5.41725 6.69339 6.01543 6.09521C6.13243 5.97821 6.27762 5.85942 6.43002 5.73582C6.87041 5.37883 7.1596 5.11844 7.1596 4.75965C7.1602 4.12006 6.63941 3.59988 5.99983 3.59988C5.36025 3.59988 4.83946 4.12006 4.83946 4.76025H3.6395C3.6395 3.45888 4.69847 2.39991 5.99983 2.39991C7.30119 2.39991 8.36016 3.45888 8.36016 4.76025C8.36016 5.71842 7.65278 6.2902 7.1854 6.66879Z" fill="#8F9198"/>
</g>
</svg>
