<svg width="26" height="26" viewBox="0 0 26 26" fill="none" xmlns="http://www.w3.org/2000/svg">
<path d="M21.6663 21.6663L17.333 17.333M19.4997 11.9163C19.4997 12.9122 19.3035 13.8983 18.9224 14.8184C18.5413 15.7384 17.9827 16.5744 17.2786 17.2786C16.5744 17.9827 15.7384 18.5413 14.8184 18.9224C13.8983 19.3035 12.9122 19.4997 11.9163 19.4997C10.9205 19.4997 9.93438 19.3035 9.01432 18.9224C8.09427 18.5413 7.25829 17.9827 6.55411 17.2786C5.84994 16.5744 5.29135 15.7384 4.91025 14.8184C4.52916 13.8983 4.33301 12.9122 4.33301 11.9163C4.33301 9.90512 5.13196 7.97626 6.55411 6.55411C7.97626 5.13196 9.90512 4.33301 11.9163 4.33301C13.9276 4.33301 15.8564 5.13196 17.2786 6.55411C18.7007 7.97626 19.4997 9.90512 19.4997 11.9163Z" stroke="#32383F" stroke-width="2" stroke-linecap="round" stroke-linejoin="round"/>
</svg>
