<svg width="35" height="40" viewBox="0 0 35 40" fill="none" xmlns="http://www.w3.org/2000/svg">
<path fill-rule="evenodd" clip-rule="evenodd" d="M32.4998 4.99994V37.4997H34.9998V39.9998H0V37.4997H2.50001V4.99994C2.50001 2.24242 4.74242 0 7.49995 0H27.4998C30.2574 0 32.4998 2.24242 32.4998 4.99994ZM24.9998 7.49995H19.9998V12.4999H24.9998V7.49995ZM19.9998 14.9999H24.9998V19.9998H19.9998V14.9999ZM24.9998 22.4998H19.9998V27.4998H24.9998V22.4998ZM9.99996 7.49995H14.9999V12.4999H9.99996V7.49995ZM14.9999 14.9999H9.99996V19.9998H14.9999V14.9999ZM9.99996 22.4998H14.9999V27.4998H9.99996V22.4998ZM11.4984 29.9999V37.4998H23.5013V29.9999H11.4984Z" fill="#3347D2"/>
</svg>
