<svg width="26" height="19" viewBox="0 0 26 19" fill="none" xmlns="http://www.w3.org/2000/svg">
<path d="M0.000694282 2.37512V16.6249C0.00122849 17.2544 0.2515 17.8581 0.696587 18.3034C1.14167 18.7487 1.74523 18.9992 2.37481 19H22.9582C23.5881 18.9994 24.1921 18.7489 24.6374 18.3034C25.0828 17.8579 25.3331 17.2538 25.3333 16.6238V2.37614C25.3331 1.74603 25.0826 1.1418 24.6371 0.69625C24.1915 0.250696 23.5873 0.00026796 22.9572 0H2.37481C1.74505 0.000803548 1.14135 0.251468 0.69623 0.696964C0.251114 1.14246 0.000962352 1.74537 0.000694282 2.37512ZM22.9572 1.58342C23.0613 1.58334 23.1644 1.60396 23.2605 1.64408L12.666 10.8271L2.07046 1.64509C2.16655 1.60497 2.26966 1.58435 2.3738 1.58443L22.9572 1.58342ZM1.58209 16.6249V3.3185L12.1483 12.4722C12.292 12.5976 12.4763 12.6668 12.667 12.6668C12.8578 12.6668 13.042 12.5976 13.1857 12.4722L23.7499 3.31749V16.6238C23.7499 17.0617 23.395 17.4166 22.9582 17.4166H2.37481C1.93801 17.4166 1.5831 17.0617 1.58209 16.6249Z" fill="#96979F"/>
</svg>
