<svg width="48" height="48" viewBox="0 0 48 48" fill="none" xmlns="http://www.w3.org/2000/svg">
<path d="M43.0407 10.5C43.0407 11.4047 43.0407 12.3141 43.0407 13.2188C43.0407 15.3844 43.0407 17.55 43.0407 19.711C43.0407 22.3219 43.0407 24.9329 43.0407 27.5438C43.0407 29.7938 43.0407 32.0438 43.0407 34.2891C43.0407 35.3485 43.0454 36.4079 43.0407 37.4672C43.0407 37.5657 43.036 37.6594 43.022 37.7579C43.0454 37.5938 43.0688 37.425 43.0876 37.261C43.0641 37.4297 43.022 37.5891 42.961 37.7485C43.022 37.5985 43.0876 37.4485 43.1485 37.2985C43.0735 37.4719 42.9845 37.6313 42.872 37.7766C42.9704 37.65 43.0688 37.5235 43.1673 37.3969C43.0641 37.5235 42.9516 37.6407 42.8204 37.7438C42.947 37.6454 43.0735 37.5469 43.2001 37.4485C43.0501 37.561 42.8907 37.6547 42.722 37.725C42.872 37.6641 43.022 37.5985 43.172 37.5375C43.0126 37.5985 42.8532 37.6407 42.6845 37.6641C42.8485 37.6407 43.0173 37.6172 43.1813 37.5985C42.7829 37.6454 42.3657 37.6172 41.9626 37.6172C41.0532 37.6172 40.1391 37.6172 39.2298 37.6172C37.8704 37.6172 36.511 37.6172 35.1516 37.6172C33.4876 37.6172 31.8235 37.6172 30.1595 37.6172C28.336 37.6172 26.5079 37.6172 24.6845 37.6172C22.8423 37.6172 21.0001 37.6172 19.1532 37.6172C17.4376 37.6172 15.7173 37.6172 14.0016 37.6172C12.5532 37.6172 11.1095 37.6172 9.66103 37.6172C8.62509 37.6172 7.59384 37.6172 6.55791 37.6172C6.07978 37.6172 5.60634 37.6172 5.12822 37.6172C5.02509 37.6172 4.92197 37.6125 4.81884 37.5985C4.98291 37.6219 5.15166 37.6454 5.31572 37.6641C5.14697 37.6407 4.98759 37.5985 4.82822 37.5375C4.97822 37.5985 5.12822 37.6641 5.27822 37.725C5.10478 37.65 4.94541 37.561 4.80009 37.4485C4.92666 37.5469 5.05322 37.6454 5.17978 37.7438C5.05322 37.6407 4.93603 37.5282 4.83291 37.3969C4.93134 37.5235 5.02978 37.65 5.12822 37.7766C5.01572 37.6266 4.92197 37.4672 4.85166 37.2985C4.91259 37.4485 4.97822 37.5985 5.03916 37.7485C4.97822 37.5891 4.93603 37.4297 4.91259 37.261C4.93603 37.425 4.95947 37.5938 4.97822 37.7579C4.94541 37.4485 4.95947 37.1344 4.95947 36.825C4.95947 36.1735 4.95947 35.5219 4.95947 34.8704C4.95947 32.7141 4.95947 30.5579 4.95947 28.4016C4.95947 25.786 4.95947 23.1657 4.95947 20.55C4.95947 18.2813 4.95947 16.0125 4.95947 13.7438C4.95947 12.675 4.95478 11.6063 4.95947 10.5328C4.95947 10.4344 4.96416 10.3406 4.97822 10.2422C4.95478 10.4063 4.93134 10.575 4.91259 10.7391C4.93603 10.5703 4.97822 10.4109 5.03916 10.2516C4.97822 10.4016 4.91259 10.5516 4.85166 10.7016C4.92666 10.5281 5.01572 10.3688 5.12822 10.2234C5.02978 10.35 4.93134 10.4766 4.83291 10.6031C4.93603 10.4766 5.04853 10.3594 5.17978 10.2563C5.05322 10.3547 4.92666 10.4531 4.80009 10.5516C4.95009 10.4391 5.10947 10.3453 5.27822 10.275C5.12822 10.3359 4.97822 10.4016 4.82822 10.4625C4.98759 10.4016 5.14697 10.3594 5.31572 10.3359C5.15166 10.3594 4.98291 10.3828 4.81884 10.4016C5.21728 10.3547 5.63447 10.3828 6.03759 10.3828C6.94697 10.3828 7.86103 10.3828 8.77041 10.3828C10.1298 10.3828 11.4891 10.3828 12.8485 10.3828C14.5126 10.3828 16.1766 10.3828 17.8407 10.3828C19.6641 10.3828 21.4923 10.3828 23.3157 10.3828C25.1579 10.3828 27.0001 10.3828 28.847 10.3828C30.5626 10.3828 32.2829 10.3828 33.9985 10.3828C35.447 10.3828 36.8907 10.3828 38.3391 10.3828C39.3751 10.3828 40.4063 10.3828 41.4423 10.3828C41.9204 10.3828 42.3938 10.3828 42.872 10.3828C42.9751 10.3828 43.0782 10.3875 43.1813 10.4016C43.0173 10.3781 42.8485 10.3547 42.6845 10.3359C42.8532 10.3594 43.0126 10.4016 43.172 10.4625C43.022 10.4016 42.872 10.3359 42.722 10.275C42.8954 10.35 43.0548 10.4391 43.2001 10.5516C43.0735 10.4531 42.947 10.3547 42.8204 10.2563C42.947 10.3594 43.0641 10.4719 43.1673 10.6031C43.0688 10.4766 42.9704 10.35 42.872 10.2234C42.9845 10.3734 43.0782 10.5328 43.1485 10.7016C43.0876 10.5516 43.022 10.4016 42.961 10.2516C43.022 10.4109 43.0641 10.5703 43.0876 10.7391C43.0641 10.575 43.0407 10.4063 43.022 10.2422C43.036 10.3266 43.0407 10.4109 43.0407 10.5C43.0501 10.9875 43.2423 11.4797 43.5891 11.8266C43.9126 12.15 44.447 12.3984 44.9157 12.375C45.9188 12.3281 46.8095 11.55 46.7907 10.5C46.7766 9.4875 46.3923 8.54531 45.6985 7.80468C45.0095 7.07344 44.0673 6.7125 43.0829 6.63281C42.9657 6.62344 42.8438 6.62812 42.722 6.62812C42.2016 6.62812 41.6813 6.62812 41.1657 6.62812C40.2095 6.62812 39.2485 6.62812 38.2923 6.62812C37.0032 6.62812 35.7095 6.62812 34.4204 6.62812C32.911 6.62812 31.397 6.62812 29.8876 6.62812C28.247 6.62812 26.6016 6.62812 24.961 6.62812C23.297 6.62812 21.6376 6.62812 19.9735 6.62812C18.4032 6.62812 16.8329 6.62812 15.2626 6.62812C13.8704 6.62812 12.4829 6.62812 11.0907 6.62812C9.99853 6.62812 8.90166 6.62812 7.80947 6.62812C7.10634 6.62812 6.40322 6.62812 5.70009 6.62812C5.53134 6.62812 5.36259 6.62812 5.18916 6.62812C4.52822 6.62812 3.92353 6.77813 3.32353 7.05469C2.60634 7.38281 1.94072 8.05781 1.61729 8.775C1.35947 9.34687 1.20947 9.87656 1.20479 10.5141C1.20479 10.6547 1.20479 10.7953 1.20479 10.9406C1.20479 11.7234 1.20479 12.5109 1.20479 13.2938C1.20479 14.5734 1.20479 15.8531 1.20479 17.1375C1.20479 18.7032 1.20479 20.2688 1.20479 21.8344C1.20479 23.4938 1.20479 25.1579 1.20479 26.8172C1.20479 28.3641 1.20479 29.9063 1.20479 31.4532C1.20479 32.6719 1.20479 33.8954 1.20479 35.1141C1.20479 35.8172 1.20479 36.5204 1.20479 37.2282C1.20479 37.3641 1.2001 37.5 1.20947 37.636C1.2751 38.625 1.64072 39.5625 2.36259 40.261C3.08447 40.9594 4.04072 41.3532 5.04384 41.3719C5.32978 41.3766 5.61103 41.3719 5.89697 41.3719C6.65634 41.3719 7.41572 41.3719 8.17978 41.3719C9.32353 41.3719 10.4673 41.3719 11.611 41.3719C13.0266 41.3719 14.4423 41.3719 15.8579 41.3719C17.4516 41.3719 19.0501 41.3719 20.6438 41.3719C22.3032 41.3719 23.9579 41.3719 25.6173 41.3719C27.2485 41.3719 28.8798 41.3719 30.5157 41.3719C32.011 41.3719 33.5016 41.3719 34.997 41.3719C36.2438 41.3719 37.4907 41.3719 38.7376 41.3719C39.6423 41.3719 40.5516 41.3719 41.4563 41.3719C41.911 41.3719 42.3657 41.3719 42.8251 41.3719C43.5188 41.3719 44.1751 41.2125 44.7891 40.8938C46.0407 40.2469 46.7813 38.8594 46.7954 37.4813C46.8001 37.0079 46.7954 36.5391 46.7954 36.0657C46.7954 34.9969 46.7954 33.9329 46.7954 32.8641C46.7954 31.4157 46.7954 29.9625 46.7954 28.5141C46.7954 26.8688 46.7954 25.2282 46.7954 23.5829C46.7954 21.9563 46.7954 20.3297 46.7954 18.7032C46.7954 17.3016 46.7954 15.9047 46.7954 14.5031C46.7954 13.5234 46.7954 12.5391 46.7954 11.5594C46.7954 11.2078 46.7954 10.8563 46.7954 10.5C46.7954 9.52031 45.9329 8.57812 44.9204 8.625C43.9032 8.67187 43.0407 9.45 43.0407 10.5Z" fill="#393D46"/>
<path d="M43.0405 15.5999C43.0405 17.4796 43.0405 19.3593 43.0405 21.239C43.0405 21.5015 43.0405 21.764 43.0405 22.0265C43.664 21.403 44.2921 20.7749 44.9155 20.1515C44.5405 20.1515 44.1655 20.1515 43.7905 20.1515C42.778 20.1515 41.7655 20.1515 40.7483 20.1515C39.2483 20.1515 37.753 20.1515 36.253 20.1515C34.4202 20.1515 32.5827 20.1515 30.7499 20.1515C28.7483 20.1515 26.7468 20.1515 24.7452 20.1515C22.7155 20.1515 20.6858 20.1515 18.6608 20.1515C16.7765 20.1515 14.8921 20.1515 13.0077 20.1515C11.4093 20.1515 9.81084 20.1515 8.2124 20.1515C7.06865 20.1515 5.9249 20.1515 4.77646 20.1515C4.23271 20.1515 3.68896 20.1421 3.1499 20.1515C3.12646 20.1515 3.10303 20.1515 3.07959 20.1515C3.70303 20.7749 4.33115 21.403 4.95459 22.0265C4.95459 20.1468 4.95459 18.2671 4.95459 16.3874C4.95459 16.1249 4.95459 15.8624 4.95459 15.5999C4.33115 16.2234 3.70303 16.8515 3.07959 17.4749C3.45459 17.4749 3.82959 17.4749 4.20459 17.4749C5.21709 17.4749 6.22959 17.4749 7.24678 17.4749C8.74678 17.4749 10.2421 17.4749 11.7421 17.4749C13.5749 17.4749 15.4124 17.4749 17.2452 17.4749C19.2468 17.4749 21.2483 17.4749 23.2499 17.4749C25.2796 17.4749 27.3093 17.4749 29.3343 17.4749C31.2187 17.4749 33.103 17.4749 34.9874 17.4749C36.5859 17.4749 38.1843 17.4749 39.7827 17.4749C40.9265 17.4749 42.0702 17.4749 43.2187 17.4749C43.7624 17.4749 44.3062 17.4796 44.8452 17.4749C44.8687 17.4749 44.8921 17.4749 44.9155 17.4749C45.8952 17.4749 46.8374 16.6124 46.7905 15.5999C46.7437 14.5827 45.9655 13.7249 44.9155 13.7249C44.5405 13.7249 44.1655 13.7249 43.7905 13.7249C42.778 13.7249 41.7655 13.7249 40.7483 13.7249C39.2483 13.7249 37.753 13.7249 36.253 13.7249C34.4202 13.7249 32.5827 13.7249 30.7499 13.7249C28.7483 13.7249 26.7468 13.7249 24.7452 13.7249C22.7155 13.7249 20.6858 13.7249 18.6608 13.7249C16.7765 13.7249 14.8921 13.7249 13.0077 13.7249C11.4093 13.7249 9.81084 13.7249 8.2124 13.7249C7.06865 13.7249 5.9249 13.7249 4.77646 13.7249C4.23271 13.7249 3.68896 13.7202 3.1499 13.7249C3.12646 13.7249 3.10303 13.7249 3.07959 13.7249C2.06709 13.7249 1.20459 14.5827 1.20459 15.5999C1.20459 17.4796 1.20459 19.3593 1.20459 21.239C1.20459 21.5015 1.20459 21.764 1.20459 22.0265C1.20459 23.039 2.0624 23.9014 3.07959 23.9014C3.45459 23.9014 3.82959 23.9014 4.20459 23.9014C5.21709 23.9014 6.22959 23.9014 7.24678 23.9014C8.74678 23.9014 10.2421 23.9014 11.7421 23.9014C13.5749 23.9014 15.4124 23.9014 17.2452 23.9014C19.2468 23.9014 21.2483 23.9014 23.2499 23.9014C25.2796 23.9014 27.3093 23.9014 29.3343 23.9014C31.2187 23.9014 33.103 23.9014 34.9874 23.9014C36.5859 23.9014 38.1843 23.9014 39.7827 23.9014C40.9265 23.9014 42.0702 23.9014 43.2187 23.9014C43.7624 23.9014 44.3062 23.9061 44.8452 23.9014C44.8687 23.9014 44.8921 23.9014 44.9155 23.9014C45.928 23.9014 46.7905 23.0437 46.7905 22.0265C46.7905 20.1468 46.7905 18.2671 46.7905 16.3874C46.7905 16.1249 46.7905 15.8624 46.7905 15.5999C46.7905 14.6202 45.928 13.678 44.9155 13.7249C43.903 13.7671 43.0405 14.5452 43.0405 15.5999ZM9.87178 32.4655C11.1796 32.4655 12.4874 32.4655 13.7952 32.4655C15.8718 32.4655 17.9483 32.4655 20.0249 32.4655C20.503 32.4655 20.9812 32.4655 21.4546 32.4655C22.4343 32.4655 23.3765 31.603 23.3296 30.5905C23.2827 29.5733 22.5046 28.7155 21.4546 28.7155C20.1468 28.7155 18.839 28.7155 17.5312 28.7155C15.4546 28.7155 13.378 28.7155 11.3015 28.7155C10.8233 28.7155 10.3452 28.7155 9.87178 28.7155C8.89209 28.7155 7.9499 29.578 7.99678 30.5905C8.03897 31.6077 8.81709 32.4655 9.87178 32.4655Z" fill="#393D46"/>
</svg>
