<svg width="24" height="24" viewBox="0 0 24 24" fill="none" xmlns="http://www.w3.org/2000/svg">
<path d="M22.2042 5.0348C21.4037 5.0348 20.7425 5.69606 20.7425 6.53132C20.7425 7.15777 21.1253 7.71462 21.6821 7.92343L16.8445 15.058C16.8445 15.0232 13.8167 9.62877 12.7378 7.67981C13.051 7.40139 13.2947 6.98376 13.2947 6.49652C13.2947 5.66125 12.6334 5 11.8329 5C11.0325 5 10.3712 5.66125 10.3712 6.49652C10.3712 6.98376 10.6149 7.43619 10.9629 7.71462L6.89095 15.0232L2.12297 7.95824C2.61021 7.71462 2.95824 7.19258 2.95824 6.56613C2.95824 5.73086 2.29698 5.0348 1.49652 5.0348C0.661253 5.0348 0 5.73086 0 6.56613C0 7.26218 0.417633 7.81903 0.974478 8.02784V20H6.92575H9.88399V17.0418C9.88399 15.9281 10.7889 15.0232 11.8677 15.0232C12.9466 15.0232 13.8515 15.9281 13.8515 17.0418V20H16.8097H22.761V7.92343C23.3179 7.67981 23.6659 7.15777 23.6659 6.53132C23.6659 5.69606 23.0046 5.0348 22.2042 5.0348Z" fill="#F4BB2E"/>
</svg>
