<svg width="22" height="22" viewBox="0 0 22 22" fill="none" xmlns="http://www.w3.org/2000/svg">
<path d="M20.465 11C20.465 16.2245 16.2245 20.465 11 20.465V21.9999C17.0721 21.9999 21.9999 17.0721 21.9999 11H20.465ZM11 20.465C5.77545 20.465 1.53488 16.2245 1.53488 11H0C0 17.0721 4.92777 21.9999 11 21.9999V20.465ZM1.53488 11C1.53488 5.77545 5.77545 1.53488 11 1.53488V0C4.92777 0 0 4.92777 0 11H1.53488ZM11 1.53488C16.2245 1.53488 20.465 5.77545 20.465 11H21.9999C21.9999 4.92777 17.0721 0 11 0V1.53488Z" fill="#93989A"/>
<path d="M14.402 14.9126C14.766 15.1298 15.2371 15.0109 15.4543 14.6469C15.6715 14.2829 15.5526 13.8118 15.1886 13.5946L14.402 14.9126ZM11.6232 12.3606L12.0165 11.7016L12.0145 11.7004L11.6232 12.3606ZM11.3879 6.40528C11.3879 5.98143 11.0443 5.63784 10.6204 5.63784C10.1966 5.63784 9.85301 5.98143 9.85301 6.40528H11.3879ZM15.1886 13.5946L12.0165 11.7016L11.23 13.0196L14.402 14.9126L15.1886 13.5946ZM12.0145 11.7004C11.8801 11.6207 11.7147 11.4534 11.5813 11.2194C11.4479 10.9855 11.3879 10.7577 11.3879 10.6006H9.85301C9.85301 11.0881 10.0181 11.5767 10.248 11.9797C10.4778 12.3827 10.8138 12.773 11.232 13.0208L12.0145 11.7004ZM11.3879 10.6006V6.40528H9.85301V10.6006H11.3879Z" fill="#93989A"/>
</svg>
