<svg width="4" height="15" viewBox="0 0 4 15" fill="none" xmlns="http://www.w3.org/2000/svg">
<mask id="mask0_0_234" style="mask-type:luminance" maskUnits="userSpaceOnUse" x="-10" y="-4" width="24" height="23">
<rect x="-9.37575" y="-3.7495" width="22.501" height="22.501" fill="white"/>
</mask>
<g mask="url(#mask0_0_234)">
<path fill-rule="evenodd" clip-rule="evenodd" d="M1.87508 5.62525C0.843787 5.62525 0 6.46904 0 7.50033C0 8.53163 0.843787 9.37542 1.87508 9.37542C2.90638 9.37542 3.75017 8.53163 3.75017 7.50033C3.75017 6.46904 2.90638 5.62525 1.87508 5.62525ZM1.87508 0C0.843787 0 0 0.843787 0 1.87508C0 2.90638 0.843787 3.75017 1.87508 3.75017C2.90638 3.75017 3.75017 2.90638 3.75017 1.87508C3.75017 0.843787 2.90638 0 1.87508 0ZM1.87508 11.2505C0.843787 11.2505 0 12.0943 0 13.1256C0 14.1569 0.843787 15.0007 1.87508 15.0007C2.90638 15.0007 3.75017 14.1569 3.75017 13.1256C3.75017 12.0943 2.90638 11.2505 1.87508 11.2505Z" fill="#ADB5BD"/>
</g>
</svg>
