<svg width="20" height="20" viewBox="0 0 20 20" fill="none" xmlns="http://www.w3.org/2000/svg">
<path d="M19.328 11.1673C19.0583 10.9905 18.7377 10.9079 18.4161 10.9324C18.0945 10.9568 17.7901 11.0868 17.5501 11.3023C16.9601 11.8262 14.8362 13.5352 12.3394 13.5542C11.9708 13.5575 11.603 13.5206 11.2424 13.4442C10.0928 13.1989 9.03867 12.6264 8.20695 11.7957C7.37523 10.9651 6.80142 9.91168 6.55464 8.7624C6.48035 8.41233 6.44381 8.05531 6.44565 7.69745C6.45265 6.03053 7.31261 4.07963 8.74554 2.4817C9.19652 1.97773 9.25551 1.25776 8.89153 0.687792C8.71859 0.412608 8.45933 0.202498 8.15429 0.0903242C7.84925 -0.0218501 7.51563 -0.0297631 7.20561 0.0678226C5.16965 0.6883 3.38057 1.93373 2.09186 3.62765C0.768967 5.34929 0.0361135 7.45142 0.00196469 9.62236C-0.0255547 11.0152 0.236287 12.3987 0.770927 13.6852C1.28519 14.9276 2.04033 16.0559 2.99282 17.005C3.95177 17.9639 5.06972 18.7119 6.31466 19.2289C7.60285 19.7636 8.98799 20.0251 10.3825 19.9968C12.0694 19.9714 13.7226 19.5208 15.1892 18.6869C15.2785 18.6365 15.357 18.569 15.4202 18.4882C15.4834 18.4075 15.5301 18.315 15.5576 18.2162C15.5851 18.1174 15.5928 18.0142 15.5804 17.9124C15.568 17.8106 15.5356 17.7123 15.4852 17.623C15.4348 17.5337 15.3673 17.4552 15.2865 17.392C15.2057 17.3288 15.1133 17.2821 15.0145 17.2546C14.9157 17.2271 14.8125 17.2194 14.7107 17.2318C14.6089 17.2442 14.5106 17.2766 14.4213 17.327C13.1804 18.0325 11.7817 18.4136 10.3545 18.4349C9.19428 18.4587 8.04138 18.2463 6.96581 17.8107C5.89025 17.3751 4.91447 16.7254 4.09776 15.901C3.27402 15.0854 2.62471 14.1108 2.18929 13.0364C1.75387 11.962 1.54143 10.8104 1.56489 9.65135C1.59345 7.87797 2.16952 6.15676 3.2142 4.72346C4.25889 3.29015 5.7211 2.21483 7.4006 1.64475C6.52365 2.6727 4.89373 4.95258 4.88273 7.69045C4.88073 8.16543 4.92872 8.6344 5.02572 9.08738C5.33563 10.5313 6.05819 11.8541 7.10562 12.8952C8.14825 13.9408 9.47156 14.6619 10.9154 14.9711C11.3784 15.0701 11.8614 15.1181 12.3494 15.1151C13.4843 15.1071 14.6612 14.8231 15.8492 14.2701C16.7409 13.8512 17.5753 13.3199 18.3321 12.6892C18.0624 13.4501 17.6867 14.1692 17.2161 14.8251C17.0955 14.9935 17.0466 15.2029 17.0804 15.4074C17.1141 15.6118 17.2277 15.7944 17.3961 15.915C17.5645 16.0357 17.774 16.0845 17.9784 16.0508C18.1828 16.017 18.3654 15.9035 18.4861 15.7351C19.1207 14.8506 19.6089 13.8697 19.932 12.8302C20.0291 12.525 20.0224 12.1962 19.913 11.8952C19.8035 11.5942 19.5975 11.3379 19.327 11.1663L19.328 11.1673Z" fill="#96979F"/>
</svg>
