<svg width="336" height="241" viewBox="0 0 336 241" fill="none" xmlns="http://www.w3.org/2000/svg">
<path d="M0 22.4C0 14.5593 0 10.6389 1.52591 7.64413C2.86814 5.00986 5.00986 2.86814 7.64413 1.52591C10.6389 0 14.5593 0 22.4 0H313.6C321.441 0 325.361 0 328.356 1.52591C330.99 2.86814 333.132 5.00986 334.474 7.64413C336 10.6389 336 14.5593 336 22.4V241H0V22.4Z" fill="#91C8FB"/>
<mask id="mask0_37_40869" style="mask-type:luminance" maskUnits="userSpaceOnUse" x="0" y="0" width="336" height="241">
<path d="M0 22.4C0 14.5593 0 10.6389 1.52591 7.64413C2.86814 5.00986 5.00986 2.86814 7.64413 1.52591C10.6389 0 14.5593 0 22.4 0H313.6C321.441 0 325.361 0 328.356 1.52591C330.99 2.86814 333.132 5.00986 334.474 7.64413C336 10.6389 336 14.5593 336 22.4V241H0V22.4Z" fill="white"/>
</mask>
<g mask="url(#mask0_37_40869)">
</g>
</svg>
