<svg width="30" height="30" viewBox="0 0 30 30" fill="none" xmlns="http://www.w3.org/2000/svg">
<g clip-path="url(#clip0_52_69430)">
<path d="M20.1568 17.3438C22.1255 18 23.9068 19.6875 24.4693 22.125C25.1255 24.5625 24.188 27.5625 22.5005 28.875C21.3755 29.8125 19.9693 30 18.563 30C15.2818 30 12.0006 28.875 8.7193 27.6563C7.5943 27.2813 6.56305 26.9062 5.5318 26.1562C4.5943 25.4062 3.75055 24.2812 3.56305 22.875C3.37555 21 4.4068 19.125 5.81305 18.0938C8.1568 16.4063 10.6881 15.75 13.2193 15.75C15.4693 15.8438 18.0943 16.5938 20.1568 17.3438Z" fill="#293338"/>
<path d="M19.313 17.5314C21.0942 18.0939 22.688 19.5939 23.2505 21.6564C23.813 23.8127 23.063 26.3439 21.4692 27.5627C20.438 28.3127 19.1255 28.5939 17.9067 28.5939C14.9067 28.5939 12.0005 27.5627 9.00045 26.5314C8.06295 26.1564 7.0317 25.8752 6.18795 25.2189C5.3442 24.5627 4.5942 23.5314 4.4067 22.4064C4.2192 20.7189 5.1567 19.1252 6.4692 18.2814C8.62545 16.8752 10.8755 16.3127 13.1255 16.3127C15.0942 16.2189 17.438 16.9689 19.313 17.5314Z" fill="#425763"/>
<path d="M12.0938 20.3438L13.4063 22.4062C13.5 22.5 13.5 22.6875 13.4063 22.875L10.5938 27.375C10.5938 27.375 7.6875 26.9062 7.21875 26.0625L7.78125 20.625L9.09375 19.125L12.0938 20.3438Z" fill="#E8CCAA"/>
<path d="M24.357 11.9386C24.3773 6.34673 19.8606 1.79719 14.2687 1.77692C8.67681 1.75666 4.12726 6.27335 4.107 11.8652C4.08674 17.4571 8.60343 22.0067 14.1953 22.0269C19.7872 22.0472 24.3367 17.5305 24.357 11.9386Z" fill="#293338"/>
<path d="M7.59375 2.43785C7.59375 2.43785 8.625 -0.280896 15.375 0.0941036C17.8125 0.0941036 26.3438 4.9691 24.8438 13.9691C24.8438 13.9691 23.4375 18.4691 21 18.2816C21 18.2816 21.75 17.6254 20.8125 15.2816C19.875 12.9379 18.8438 11.6254 17.3438 10.9691C15.8438 10.3129 7.59375 2.43785 7.59375 2.43785Z" fill="#72402A"/>
<path d="M20.7188 8.625C23.1005 8.625 25.0313 6.69423 25.0313 4.3125C25.0313 1.93077 23.1005 0 20.7188 0C18.337 0 16.4062 1.93077 16.4062 4.3125C16.4062 6.69423 18.337 8.625 20.7188 8.625Z" fill="#72402A"/>
<path d="M20.3438 7.875C22.2595 7.875 23.8125 6.32199 23.8125 4.40625C23.8125 2.49051 22.2595 0.9375 20.3438 0.9375C18.428 0.9375 16.875 2.49051 16.875 4.40625C16.875 6.32199 18.428 7.875 20.3438 7.875Z" fill="#89563A"/>
<path d="M23.9605 10.9523C23.9808 5.3604 19.4641 0.810856 13.8722 0.790594C8.28032 0.770332 3.73078 5.28702 3.71052 10.8789C3.69025 16.4708 8.20694 21.0203 13.7988 21.0406C19.3907 21.0609 23.9403 16.5442 23.9605 10.9523Z" fill="#A67A65"/>
<path d="M23.5313 10.2188C23.5313 15.6563 19.125 20.0625 13.6875 19.9688C8.25 19.875 3.9375 15.5625 3.9375 10.125C3.9375 4.6875 8.34375 0.84375 13.7812 0.84375C19.2188 0.9375 23.5313 4.78125 23.5313 10.2188Z" fill="#E5A98C"/>
<path d="M23.4855 9.96502C23.5044 4.73557 19.4064 0.481366 14.3323 0.46298C9.25818 0.444594 5.12943 4.66899 5.11048 9.89844C5.09153 15.1279 9.18956 19.3821 14.2637 19.4005C19.3378 19.4189 23.4665 15.1945 23.4855 9.96502Z" fill="#E8CCAA"/>
<path d="M18.4486 11.2611C18.4623 7.48143 15.4933 4.40658 11.8172 4.39326C8.14103 4.37994 5.14982 7.43319 5.13613 11.2129C5.12243 14.9926 8.09143 18.0674 11.7676 18.0808C15.4437 18.0941 18.4349 15.0408 18.4486 11.2611Z" fill="#FAEACF"/>
<path d="M14.9764 11.9931C14.9785 11.4236 14.5604 10.9604 14.0426 10.9585C13.5249 10.9566 13.1035 11.4168 13.1014 11.9863C13.0993 12.5559 13.5174 13.0191 14.0352 13.021C14.5529 13.0229 14.9743 12.5627 14.9764 11.9931Z" fill="#425763"/>
<path d="M14.3721 11.5658C14.3727 11.4105 14.2892 11.2843 14.1856 11.2839C14.0821 11.2835 13.9977 11.4091 13.9971 11.5645C13.9966 11.7198 14.08 11.846 14.1836 11.8464C14.2871 11.8468 14.3716 11.7211 14.3721 11.5658Z" fill="white"/>
<path d="M7.72835 10.372C7.73041 9.80248 7.31235 9.33926 6.79458 9.33738C6.27682 9.33551 5.85541 9.79569 5.85335 10.3652C5.85128 10.9348 6.26934 11.398 6.78711 11.3999C7.30488 11.4018 7.72628 10.9416 7.72835 10.372Z" fill="#425763"/>
<path d="M7.12407 9.94472C7.12463 9.78939 7.04114 9.66316 6.93758 9.66279C6.83403 9.66241 6.74963 9.78803 6.74907 9.94336C6.7485 10.0987 6.83199 10.2249 6.93555 10.2253C7.0391 10.2257 7.1235 10.1 7.12407 9.94472Z" fill="white"/>
<path d="M20.4375 11.7185C20.4375 11.7185 21.2813 11.0623 21.9375 11.3435C22.5938 11.6248 22.5 13.6873 20.8125 13.9685L20.4375 11.7185Z" fill="#FAEACF"/>
<path d="M12 16.5C12 16.5 11.0625 16.4062 10.4063 15.8437C9.75 15.2812 9.09375 15.375 9 15.4687C8.90625 15.5625 8.71875 15.2812 8.4375 15.1875C8.25 15.0938 7.875 15.0938 7.875 15.1875C7.875 15.2812 8.15625 15.8437 8.15625 15.8437C8.15625 15.8437 8.25 16.2187 8.15625 16.5C8.0625 16.6875 8.15625 17.3438 8.8125 17.5312C9.46875 17.7188 10.0313 17.625 10.3125 17.4375C10.5938 17.25 12 16.5 12 16.5Z" fill="#931655"/>
<path d="M14.3438 0.656184C14.3438 0.656184 13.125 3.93743 10.9687 4.59368C8.8125 5.24993 4.6875 7.12493 4.03125 9.74993C4.03125 9.74993 5.0625 -0.937566 14.3438 0.656184Z" fill="#89563A"/>
<path d="M11.1562 2.71875C11.1562 2.71875 13.4063 10.2188 22.0312 11.625L23.8125 11.5313L18.5625 3.1875C18.6562 3.09375 14.3438 0.656251 11.1562 2.71875Z" fill="#89563A"/>
<path d="M10.5938 10.9688L17.8125 13.0312C17.8125 13.0312 16.3125 15.1875 14.25 15C12.1875 14.9063 11.0625 13.0313 10.5938 10.9688Z" stroke="#425763" stroke-width="0.678937" stroke-miterlimit="10"/>
<path d="M3.75 9.09375L10.2187 10.9688C10.2187 10.9688 8.90625 12.8438 7.03125 12.75C5.15625 12.6563 4.21875 10.875 3.75 9.09375Z" stroke="#425763" stroke-width="0.678937" stroke-miterlimit="10"/>
<path d="M11.9062 1.12517C11.9062 1.12517 13.125 0.0939161 15.2812 0.187666C17.4375 0.281416 25.2188 4.21892 23.9062 12.2814C23.9062 12.2814 23.1563 15.6564 22.125 17.0627C22.125 17.0627 21.0938 16.1252 20.25 14.0627C19.4063 12.0002 18.4687 10.7814 17.1562 10.2189C15.8437 9.65641 11.9062 1.12517 11.9062 1.12517Z" fill="#89563A"/>
<path d="M12.5625 2.53125C12.5625 2.53125 14.1563 9.84375 23.1563 10.9688C23.1563 10.9688 23.1562 2.15625 14.25 1.3125C14.25 1.3125 12.5625 1.875 12.5625 2.53125Z" fill="#B57555"/>
<path d="M17.8125 13.125L19.7813 12.6562" stroke="#425763" stroke-width="0.678937" stroke-miterlimit="10"/>
<path d="M14.1562 2.90663C14.1562 2.90663 10.125 2.06288 8.0625 3.56288C8.0625 3.56288 10.2188 -0.655872 15.1875 1.50038L14.1562 2.90663Z" fill="#B57555"/>
<path d="M10.0312 27.75L11.625 25.5L13.9688 21.75L12.5625 21.5625L14.4375 21.75L15.375 23.8125L11.9063 28.125L10.0312 27.75Z" fill="#293338"/>
<path d="M7.5 26.4375L9.28125 25.3125L9.5625 26.9063C9.5625 27 8.625 26.8125 7.5 26.4375Z" fill="#A67A65"/>
<path opacity="0.5" d="M19.5 19.9687C19.5 19.9687 21.0938 23.0625 20.0625 24.8438L17.625 29.0625C17.625 29.0625 20.5313 30.5625 22.2188 28.2188C23.9063 25.875 25.5938 21.1875 21.6563 18.6562L19.5 19.9687Z" fill="#293338"/>
<path d="M20.25 12.9381L22.125 17.0631C22.125 17.0631 23.7187 15.0944 24.2812 13.1256C24.8437 11.1569 20.25 12.9381 20.25 12.9381Z" fill="#72402A"/>
<path d="M15.5625 2.625C15.5625 2.625 19.0312 2.8125 20.25 5.15625C21.4687 7.5 21.4687 9 21.4687 9L17.9062 5.90625L15.5625 2.625Z" fill="#D69274"/>
</g>
<defs>
<clipPath id="clip0_52_69430">
<rect width="30" height="30" fill="white"/>
</clipPath>
</defs>
</svg>
