<svg width="7" height="7" viewBox="0 0 7 7" fill="none" xmlns="http://www.w3.org/2000/svg">
<path opacity="0.3" d="M6.12593 2.6254H4.37566V0.875132C4.37566 0.643033 4.28346 0.420439 4.11934 0.25632C3.95522 0.0922005 3.73263 0 3.50053 0C3.26843 0 3.04584 0.0922005 2.88172 0.25632C2.7176 0.420439 2.6254 0.643033 2.6254 0.875132V2.6254H0.875132C0.643033 2.6254 0.420441 2.7176 0.256322 2.88172C0.0922027 3.04584 0 3.26843 0 3.50053C0 3.73263 0.0922027 3.95522 0.256322 4.11934C0.420441 4.28346 0.643033 4.37566 0.875132 4.37566H2.6254V6.12593C2.6254 6.35802 2.7176 6.58062 2.88172 6.74474C3.04584 6.90886 3.26843 7.00106 3.50053 7.00106C3.73263 7.00106 3.95522 6.90886 4.11934 6.74474C4.28346 6.58062 4.37566 6.35802 4.37566 6.12593V4.37566H6.12593C6.35802 4.37566 6.58062 4.28346 6.74474 4.11934C6.90886 3.95522 7.00106 3.73263 7.00106 3.50053C7.00106 3.26843 6.90886 3.04584 6.74474 2.88172C6.58062 2.7176 6.35802 2.6254 6.12593 2.6254Z" fill="white"/>
</svg>
