<svg width="17" height="12" viewBox="0 0 17 12" fill="none" xmlns="http://www.w3.org/2000/svg">
<path fill-rule="evenodd" clip-rule="evenodd" d="M9.17665 5.3421C9.17665 5.84618 9.07737 6.34533 8.88446 6.81103C8.69156 7.27674 8.40882 7.69989 8.05238 8.05633C7.69594 8.41277 7.27279 8.69551 6.80708 8.88841C6.34137 9.08132 5.84223 9.1806 5.33815 9.1806C4.83407 9.1806 4.33493 9.08132 3.86922 8.88841C3.40352 8.69551 2.98036 8.41277 2.62392 8.05633C2.26749 7.69989 1.98475 7.27674 1.79184 6.81103C1.59894 6.34533 1.49965 5.84618 1.49965 5.3421C1.49965 4.32407 1.90407 3.34773 2.62392 2.62788C3.34378 1.90802 4.32012 1.50361 5.33815 1.50361C6.35619 1.50361 7.33252 1.90802 8.05238 2.62788C8.77224 3.34773 9.17665 4.32407 9.17665 5.3421ZM9.53312 8.64641C8.69654 9.70732 7.48892 10.4117 6.15363 10.6176C4.81833 10.8234 3.45464 10.5155 2.33738 9.75579C1.22012 8.9961 0.432362 7.84114 0.132866 6.52368C-0.16663 5.20622 0.0444014 3.82421 0.723431 2.65617C1.40246 1.48814 2.499 0.620909 3.79207 0.229272C5.08513 -0.162364 6.47858 -0.0492948 7.69159 0.545694C8.9046 1.14068 9.84697 2.17335 10.3288 3.43559C10.8106 4.69782 10.7961 6.09578 10.2881 7.34772L16.0626 10.7011L15.3076 11.9998L9.53312 8.64641Z" fill="white"/>
</svg>
